<svg width="48" version="1.1" xmlns="http://www.w3.org/2000/svg" height="48">
<path style="fill:#a45942" d="M 3,3 V 45 H 45 V 3 Z"/>
<g style="fill-rule:evenodd" transform="translate(0,-1.507)">
<rect width="7.9695606" x="20.002359" y="4.5075564" height="18.793396" style="fill:#34495e"/>
<g style="fill:#ecf0f1" transform="matrix(1.4683729,0,0,1.025597,-11.238691,-2.7746832)">
<rect width="3.2564054" x="23.465931" y="7.1004887" height="1.4654016"/>
<rect width="3.2564054" x="21.302462" y="8.5685101" height="1.4654016"/>
<rect width="3.2564054" x="23.46616" y="10.03407" height="1.4654016"/>
<rect width="3.2564054" x="21.29925" y="11.503496" height="1.4654016"/>
<rect width="3.2564054" x="23.462833" y="12.96901" height="1.4654016"/>
<rect width="3.2564054" x="21.29925" y="14.437004" height="1.4654016"/>
<rect width="3.2564054" x="23.462833" y="15.902609" height="1.4654016"/>
<rect width="3.2564054" x="21.277571" y="17.370695" height="1.4654016"/>
<rect width="3.2564054" x="23.441038" y="18.836208" height="1.4654016"/>
<rect width="3.2564054" x="21.277571" y="20.304295" height="1.4654016"/>
<rect width="3.2564054" x="23.441269" y="21.769808" height="1.4654016"/>
<rect width="3.2564054" x="21.274359" y="23.239271" height="1.4654016"/>
<rect width="5.4192996" x="21.285601" y="24.824669" height="9.7665815"/>
</g>
<rect width="4.6644192" x="21.693239" y="23.685429" height="2.3696082" style="fill:#2c3e50"/>
</g>
<g>
<path style="fill:#fff" d="m 14,40.9876 v -1.07517 l 3.573,-3.9138 h -3.16932 v -0.998657 h 4.97903 v 0.926174 l -3.7262,4.0668 h 3.87 v 0.99463 z "/>
<path style="fill:#fff" d="m 21.4493,39.51 c 0.192445,0.578524 0.628119,0.650468 1.05335,0.672482 0.351885,0.01822 0.937074,-0.08066 0.932697,-0.463087 -0.003,-0.261745 -0.3142,-0.322617 -0.528989,-0.362416 -0.584775,-0.108352 -1.71845,-0.385234 -2,-0.551677 -0.389784,-0.230873 -0.584676,-0.551678 -0.584676,-0.962416 0,-0.370469 0.168598,-0.681878 0.505792,-0.934227 0.337194,-0.252348 0.86,-0.378523 1.56842,-0.378523 0.674389,0 1.17554,0.0953 1.50345,0.285906 0.327914,0.190604 0.553742,0.472483 0.677483,0.845637 l -1.2297,.1973 c -0.190715,-0.48103 -0.568528,-0.493281 -0.928058,-0.515436 -0.320873,-0.01977 -0.893589,0.05537 -0.886295,0.354362 0.0083,0.341701 0.970706,0.435941 1.34568,0.523489 0.696043,0.136913 1.18173,0.304698 1.45705,0.503356 0.272231,0.201342 0.408346,0.481879 0.408346,0.84161 0,0.391945 -0.188705,0.728858 -0.566116,1.01074 -0.37741,0.281878 -0.935792,0.422818 -1.67514,0.422818 -0.671295,0 -1.20338,-0.11812 -1.59626,-0.354362 -0.389784,-0.236242 -0.645,-0.557047 -0.765647,-0.962415 z "/>
<path style="fill:#fff" d="m 28.3603,36.6268 v 0.902013 h -0.890935 v 1.72349 c 0,0.348993 0.0017,0.443054 0.0232,0.61208 0.01564,0.123051 0.224232,0.195871 0.338741,0.197314 0.17906,0.0022 0.295432,-0.03624 0.524353,-0.108725 l .1114,.8779 c -0.303166,0.112752 -0.681487,0.164565 -1.03014,0.169128 -0.415307,0.0054 -0.838854,-0.08051 -1.05335,-0.366443 -0.250953,-0.334537 -0.205839,-0.868982 -0.222735,-1.24027 v -1.86443 h -0.598598 v -0.902013 h 0.598598 v -0.849663 l 1.3086,-.6604 v 1.51006 z "/>
<path style="fill:#fff" d="m 34,40.9034 h -1.21112 v -0.628187 c -0.201079,0.244294 -0.439281,0.426844 -0.714604,0.54765 -0.272231,0.11812 -0.547554,0.177181 -0.825971,0.177181 -0.566116,0 -1.0518,-0.197315 -1.45705,-0.591946 -0.402159,-0.397315 -0.603238,-0.950335 -0.603238,-1.65906 0,-0.724831 0.196438,-1.27517 0.589317,-1.651 0.392878,-0.378523 0.889389,-0.567785 1.48953,-0.567785 0.550647,0 1.02705,0.198658 1.42921,0.595973 v -2.12617 h 1.30392 Z  m -3.4802,-2.2309 c -0.0157,0.831983 0.256775,1.42489 1.09975,1.43356 0.596087,0.0061 1.08963,-0.500927 1.08119,-1.32483 -0.0085,-0.823904 -0.297669,-1.3871 -1.12005,-1.38523 -0.604783,0.0014 -1.04519,0.444526 -1.06088,1.27651 z "/>
</g>
</svg>
