<svg width="48" version="1.1" xmlns="http://www.w3.org/2000/svg" height="48">
<g style="stroke:none">
<rect width="42" x="3" y="3" height="42" style="fill:#ff8000" id="rect824"/>
<g style="fill:#fff">
<path style="fill-rule:evenodd" id="path4112" d="m 24.0029,9.9998 v 15.6147 c -0.81743,-0.676961 -1.88339,-1.11464 -3.00412,-1.11458 -2.35727,0.00012 -4.49882,1.90578 -4.49882,4.00001 0,2.09423 2.14155,3.99987 4.49882,4 2.35729,0.00012 5.00496,-1.90555 5.00496,-4 v -12.6538 c 3.13989,1.67348 5.09672,3.74551 5.09672,7.02101 0,0.842147 -0.156497,1.66804 -0.430849,2.46354 0.84039,-1.31891 1.3306,-2.8035 1.3306,-4.33073 0,-2.44596 -0.942488,-3.77915 -2.88688,-5.50017 -0.897067,-0.794028 -3.07687,-2.26387 -3.10961,-5.4323 v -0.067733 h -0.006 -1.99497 z "/>
<path id="path4142" d="m 18.43749,35.5195 q -0.46484,0 -0.71093,0.33594 -0.24219,0.33203 -0.24219,0.96094 0,0.6289 0.24219,0.96484 0.24609,0.33203 0.71093,0.33203 0.45703,0 0.69922,-0.33203 0.24219,-0.33594 0.24219,-0.96484 0,-0.62891 -0.24219,-0.96094 -0.24219,-0.33594 -0.69922,-0.33594 z m 0,-1 q 1.12891,0 1.76172,0.60938 0.63672,0.60937 0.63672,1.6875 0,1.07812 -0.63672,1.6875 -0.63281,0.60937 -1.76172,0.60937 -1.13281,0 -1.77343,-0.60937 -0.63672,-0.60938 -0.63672,-1.6875 0,-1.07813 0.63672,-1.6875 0.64062,-0.60938 1.77343,-0.60938 z"/>
<path id="path4144" d="m 24.832,38.2578 q -0.28906,0.38281 -0.63671,0.5625 -0.34766,0.17969 -0.80469,0.17969 -0.80078,0 -1.32422,-0.62891 -0.52344,-0.63281 -0.52344,-1.60937 0,-0.98047 0.52344,-1.60547 0.52344,-0.62891 1.32422,-0.62891 0.45703,0 0.80469,0.17969 0.34765,0.17969 0.63671,0.56641 v -0.64844 h 1.40625 v 3.93359 q 0,1.05469 -0.66796,1.60938 -0.66407,0.55859 -1.92969,0.55859 -0.41016,0 -0.79297,-0.0625 -0.38281,-0.0625 -0.76953,-0.1914 v -1.08985 q 0.36719,0.21094 0.71875,0.3125 0.35156,0.10547 0.70703,0.10547 0.6875,0 1.00781,-0.30078 0.32031,-0.30078 0.32031,-0.94141 z  m -.9219,-2.7227 q -0.43359,0 -0.67578,0.32031 -0.24219,0.32031 -0.24219,0.90625 0,0.60156 0.23438,0.91406 0.23437,0.30859 0.68359,0.30859 0.4375,0 0.67969,-0.32031 0.24218,-0.32031 0.24218,-0.90234 0,-0.58594 -0.24218,-0.90625 -0.24219,-0.32031 -0.67969,-0.32031 z "/>
<path id="path4146" d="m 30.56639,38.2578 q -0.28906,0.38281 -0.63672,0.5625 -0.34766,0.17969 -0.80469,0.17969 -0.80078,0 -1.32422,-0.62891 -0.52343,-0.63281 -0.52343,-1.60937 0,-0.98047 0.52343,-1.60547 0.52344,-0.62891 1.32422,-0.62891 0.45703,0 0.80469,0.17969 0.34766,0.17969 0.63672,0.56641 v -0.64844 h 1.40625 v 3.93359 q 0,1.05469 -0.66797,1.60938 -0.66406,0.55859 -1.92969,0.55859 -0.41015,0 -0.79297,-0.0625 -0.38281,-0.0625 -0.76953,-0.1914 V 39.3828 q 0.36719,0.21094 0.71875,0.3125 0.35157,0.10547 0.70703,0.10547 0.6875,0 1.00782,-0.30078 0.32031,-0.30078 0.32031,-0.94141 z m -0.9219,-2.7227 q -0.43359,0 -0.67578,0.32031 -0.24218,0.32031 -0.24218,0.90625 0,0.60156 0.23437,0.91406 0.23438,0.30859 0.68359,0.30859 0.4375,0 0.67969,-0.32031 0.24219,-0.32031 0.24219,-0.90234 0,-0.58594 -0.24219,-0.90625 -0.24219,-0.32031 -0.67969,-0.32031 z"/>
</g>
</g>
</svg>
