<svg width="48" version="1.1" xmlns="http://www.w3.org/2000/svg" height="48">
<g id="g2987" transform="matrix(1.1470591,0,0,0.91699996,-3.5294177,1.9890939)">
<path style="fill:#05aa9d" id="path2989" d="M 0,0 0,40 34,40 34,-0.0717333 23,0 z" transform="translate(7,4)"/>
</g>
<path style="fill:#fff" id="path10" d="m 31.259,12 c -0.766999,0 -1.4236,0.403107 -1.7824,0.999999 h -7.55093 c 0,0 -1.50267,-0.02552 -3.04626,0.718747 -1.5436,0.744253 -3.17586,2.44787 -3.17586,5.2812 0,2.83333 1.63227,4.53693 3.17586,5.2812 0.73224,0.35304 1.45147,0.50224 2.0092,0.593746 v 0.437507 l -2.8519,2.75 c -0.08777,-0.02328 -0.1638,-0.06249 -0.259253,-0.06249 -0.572746,0 -1.03704,0.44772 -1.03704,0.999999 0,0.55228 0.464293,1 1.03704,1 0.572746,0 1.03704,-0.44772 1.03704,-1 0,-0.09205 -0.04067,-0.165346 -0.06481,-0.25 l 2.8519,-2.75 h 3.4352 v -1 h 1.03704 c 0,0 1.08995,0.02552 2.13893,0.531253 1.04895,0.505747 2.0092,1.30208 2.0092,3.4688 0,2.16672 -0.960306,2.96307 -2.0092,3.4688 -1.04895,0.505746 -2.13893,0.531253 -2.13893,0.531253 h -7.55093 c -0.358667,-0.597333 -1.01467,-1 -1.78133,-1 -1.14548,0 -2.07413,0.89544 -2.07413,2 0,1.10457 0.928599,2 2.07413,2 0.767,0 1.4236,-0.403106 1.7824,-0.999999 h 7.55093 c 0,0 1.50267,0.02552 3.04626,-0.718747 1.5436,-0.744253 3.17587,-2.44787 3.17587,-5.2812 0,-2.83333 -1.63227,-4.53693 -3.17587,-5.2812 -1.5436,-0.744253 -3.04626,-0.718746 -3.04626,-0.718746 h -1.03704 v -0.312507 l 2.8519,-2.75 c 0.08777,0.02328 0.1638,0.06249 0.259253,0.06249 0.572747,0 1.03704,-0.44772 1.03704,-0.999999 0,-0.55228 -0.464293,-0.999986 -1.03704,-0.999986 -0.572746,0 -1.03704,0.447719 -1.03704,0.999999 0,0.09205 0.04067,0.165347 0.06481,0.25 l -2.8519,2.75 h -3.4352 v 0.843747 c -0.34172,-0.07868 -0.714266,-0.188134 -1.10185,-0.375 -1.04895,-0.505747 -2.0092,-1.30208 -2.0092,-3.4688 0,-2.16672 0.960306,-2.96307 2.0092,-3.4688 1.048,-0.505333 2.13733,-0.530667 2.13733,-0.530667 h 7.55093 c 0.358854,0.596893 1.01541,1 1.7824,1 1.14548,0 2.07413,-0.895426 2.07413,-2 0,-1.10457 -0.928587,-2 -2.07413,-2 z "/>
<rect width="7.3133702" x="4.5000048" y="5.6033258" height="36.733669" style="fill:#f1c40f;fill-rule:evenodd;stroke:#003bc3;stroke-linecap:square;stroke-width:0;stroke-miterlimit:2" id="shape01"/>
</svg>
