<svg width="48" version="1.1" xmlns="http://www.w3.org/2000/svg" height="48">
<g style="fill:#134b73" id="layer1" transform="matrix(1.1470591,0,0,0.91864444,-3.5294177,1.9525339)">
<path id="rect4090" d="M 0,0 0,40 34,40 33.79661,0.01694915 23,0 z" transform="translate(7,4)"/>
</g>
<g style="stroke:none" id="g6">
<g id="layer1-9" transform="matrix(0.28054317,0,0,0.28054317,10.467418,11.154881)">
<g style="fill:#134b73" id="g9">
<rect width="84" x="6" y="6" rx="6" height="86.964485" ry="0" id="rect2419"/>
<path id="rect2980" d="m 12,30 0,4 0,36 0,10 c 0,2.216 1.784,4 4,4 h 64 c 2.216,0 4,-1.784 4,-4 v -10 -36 -4 h -4 -64 -4 z "/>
</g>
<path style="fill:#fff;fill-rule:evenodd" id="path3496" d="m 58.9646,44.8154 0,22 18,-11 z "/>
<path style="opacity:.08;fill:#134b73" id="path3828" d="m 12,30 0,4 0,36 0,10 c 0,2.216 1.784,4 4,4 h 64 c 2.216,0 4,-1.784 4,-4 v -10 -36 -4 h -4 -64 -4 z  m 3.0938,3.0938 .9062,0 64,0 .9062,0 0,.9062 0,36 0,10 c 0,0.550784 -0.355466,0.90625 -0.90625,0.90625 h -64 c -0.550784,0 -0.90625,-0.355466 -0.90625,-0.90625 v -10 -36 -0.90625 z "/>
</g>
<g style="fill:#f9f9f9" id="g15">
<rect width="2.8025162" x="15.440562" y="20.901134" height="11.605499" id="rect3169"/>
<path id="path3171" d="m 23.0976,20.9011 1.6859,0 1.6859,0 -4.8068,5.8027 4.8068,5.8027 -1.6859,0 -1.6859,0 -4.8068,-5.8027 z "/>
</g>
<path style="fill:#fff" id="path4154" d="m 16.2534,15.1091 0,.9316 1.1104,0 0,.4189 -1.1104,0 0,1.7812 q 0,0.401367 0.108399,0.515625 0.111328,0.114258 0.448242,0.114258 h 0.553711 v 0.451172 h -0.553711 q -0.624023,0 -0.861328,-0.231445 -0.237305,-0.234375 -0.237305,-0.84961 v -1.78125 h -0.395508 v -0.418945 h 0.395508 v -0.931641 h 0.541992 z "/>
<path style="fill:#fff" id="path4156" d="m 18.0757,16.0408 .5391,0 0,3.2812 -.5391,0 0,-3.2812 z  m 0,-1.2773 .5391,0 0,.6826 -.5391,0 0,-.6826 z "/>
<path style="fill:#fff" id="path4158" d="m 20.273,15.1091 0,.9316 1.1104,0 0,.4189 -1.1104,0 0,1.7812 q 0,0.401367 0.108398,0.515625 0.111328,0.114258 0.448242,0.114258 h 0.553711 v 0.451172 h -0.553711 q -0.624023,0 -0.861328,-0.231445 -0.237305,-0.234375 -0.237305,-0.84961 v -1.78125 h -0.395507 v -0.418945 h 0.395507 v -0.931641 h 0.541993 z "/>
<path style="fill:#fff" id="path4160" d="m 22.0952,14.7634 .5391,0 0,4.5586 -.5391,0 0,-4.5586 z "/>
<path style="fill:#fff" id="path4162" d="m 26.5659,17.5466 0,.2637 -2.4785,0 q 0.03516,0.556641 0.333984,0.849609 0.301758,0.29004 0.837891,0.29004 0.310547,0 0.600586,-0.07617 0.292968,-0.07617 0.580078,-0.228516 v 0.509766 q -0.290039,0.123047 -0.594727,0.1875 -0.304687,0.06445 -0.618164,0.06445 -0.785156,0 -1.24512,-0.457031 -0.457031,-0.457032 -0.457031,-1.23633 0,-0.805664 0.433594,-1.27734 0.436523,-0.47461 1.1748,-0.47461 0.66211,0 1.0459,0.427735 0.386718,0.424804 0.386718,1.15723 z  m -.5391,-.1582 q -0.0059,-0.442383 -0.249024,-0.706055 -0.240234,-0.263671 -0.638671,-0.263671 -0.451172,0 -0.723633,0.254882 -0.269531,0.254883 -0.310547,0.717774 l 1.9219,-.0029 z "/>
</g>
</svg>
