<svg width="48" version="1.1" xmlns="http://www.w3.org/2000/svg" height="48">
<path style="fill:#09f" id="rect4090" d="M 3,3 V 45 H 45 V 3 Z"/>
<g style="stroke:#003bc3;fill-rule:evenodd;stroke-linecap:square;stroke-width:0" id="g888" transform="translate(0,-1.507)">
<rect width="7.9695606" x="20.002359" y="4.5075564" height="18.793396" style="fill:#34495e;stroke-miterlimit:2.013" id="shape0"/>
<g style="stroke-miterlimit:2" id="g19">
<g style="fill:#ecf0f1" id="g10" transform="matrix(1.4683729,0,0,1.025597,-11.238691,-2.7746832)">
<rect width="3.2564054" x="23.465931" y="7.1004887" height="1.4654016" id="shape2"/>
<rect width="3.2564054" x="21.302462" y="8.5685101" height="1.4654016" id="shape3"/>
<rect width="3.2564054" x="23.46616" y="10.03407" height="1.4654016" id="shape4"/>
<rect width="3.2564054" x="21.29925" y="11.503496" height="1.4654016" id="shape5"/>
<rect width="3.2564054" x="23.462833" y="12.96901" height="1.4654016" id="shape6"/>
<rect width="3.2564054" x="21.29925" y="14.437004" height="1.4654016" id="shape7"/>
<rect width="3.2564054" x="23.462833" y="15.902609" height="1.4654016" id="shape8"/>
<rect width="3.2564054" x="21.277571" y="17.370695" height="1.4654016" id="shape9"/>
<rect width="3.2564054" x="23.441038" y="18.836208" height="1.4654016" id="shape10"/>
<rect width="3.2564054" x="21.277571" y="20.304295" height="1.4654016" id="shape11"/>
<rect width="3.2564054" x="23.441269" y="21.769808" height="1.4654016" id="shape12"/>
<rect width="3.2564054" x="21.274359" y="23.239271" height="1.4654016" id="shape13"/>
<rect width="5.4192996" x="21.285601" y="24.824669" height="9.7665815" id="shape17"/>
</g>
<rect width="4.6644192" x="21.693239" y="23.685429" height="2.3696082" style="fill:#2c3e50" id="shape18"/>
</g>
</g>
<g style="fill:#fff" id="g2049" transform="translate(4.4e-5,0.0176)">
<path id="path4157-6" d="m 17.2695,36.7441 q 0.355469,0 0.539063,-0.15625 0.183593,-0.15625 0.183593,-0.460938 0,-0.300781 -0.183593,-0.457031 -0.183594,-0.160156 -0.539063,-0.160156 h -0.832031 v 1.23438 H 17.2695 Z m 0.0508,2.5508 q 0.453125,0 0.679688,-0.191406 0.230469,-0.191407 0.230469,-0.578125 0,-0.378907 -0.226563,-0.566407 -0.226562,-0.191406 -0.683594,-0.191406 h -0.882812 v 1.52734 H 17.3203 Z m 1.3984,-2.0977 q 0.484375,0.140625 0.75,0.519531 0.265625,0.378906 0.265625,0.929687 0,0.84375 -0.570313,1.25781 -0.570312,0.414062 -1.73438,0.414062 h -2.49609 v -5.83203 h 2.25781 q 1.21484,0 1.75781,0.367188 0.546875,0.367187 0.546875,1.17578 0,0.425781 -0.199219,0.726562 -0.199219,0.296875 -0.578125,0.441407 z"/>
<path id="path4159-2" d="m 20.75,35.9433 h 3.8164 v 0.9766 l -2.3047,2.3984 h 2.3047 v 1 H 20.6523 V 39.3417 L 22.957,36.9433 H 20.75 Z"/>
<path id="path4161-1" d="m 25.6211,35.9433 h 1.3984 v 4.375 h -1.3984 z m 0,-1.7031 h 1.3984 v 1.1406 h -1.3984 z"/>
<path id="path4163" d="m 29.7695,39.6855 v 2.2969 h -1.3984 v -6.0391 h 1.3984 v 0.6406 q 0.289063,-0.382812 0.640625,-0.5625 0.351563,-0.183593 0.808594,-0.183593 0.808594,0 1.32812,0.644531 0.519531,0.640625 0.519531,1.65234 0,1.01172 -0.519531,1.65625 -0.519531,0.640625 -1.32812,0.640625 -0.457031,0 -0.808594,-0.179688 -0.351562,-0.183594 -0.640625,-0.566406 z m 0.9297,-2.832 q -0.449219,0 -0.691407,0.332031 -0.238281,0.328125 -0.238281,0.949219 0,0.621093 0.238281,0.953125 0.242188,0.328125 0.691407,0.328125 0.449218,0 0.683593,-0.328125 0.238282,-0.328125 0.238282,-0.953125 0,-0.625 -0.238282,-0.953125 Q 31.148418,36.8535 30.6992,36.8535 Z"/>
</g>
</svg>
