<svg width="48" version="1.1" xmlns="http://www.w3.org/2000/svg" height="48">
<path style="fill:#0074bd" id="rect4090" d="m 4.5,5.6271 0,36.7458 39,0 -.2333,-36.7302 -12.3843,-.0156 z "/>
<g id="layer3" transform="matrix(0.43688402,0,0,0.43688402,2.9630556,2.5837355)">
<g style="fill-rule:evenodd" id="g3678" transform="matrix(1.1301798,0,0,1.1301798,137.30438,-15.095426)">
<g style="fill:#fff">
<path id="path3616" d="m -86.6825,70.0206 c 0,0 -2.23034,0.893166 1.58908,1.33123 4.62785,0.528358 6.99267,0.452269 12.091,-0.511436 0,0 1.34311,1.2452 3.21562,1.97289 -12.3392,5.57798 -25.8748,-0.283815 -16.8957,-2.79268 z "/>
<path id="path3618" d="m -88.0802,63.6276 c 0,0 -2.50189,1.44666 1.32038,1.8417 4.94396,0.510402 8.84683,0.552257 15.6043,-0.748227 0,0 0.932442,1.35286 2.40086,1.8705 -14.9537,4.38253 -29.2143,0.318049 -19.3255,-2.96397 z "/>
</g>
<path style="fill:#ea2d2e" id="path3620" d="m -76.3035,52.7815 c 2.81851,3.24443 -0.739056,6.16164 -0.739056,6.16164 0,0 7.15247,-3.69166 3.86838,-8.31679 -3.06835,-4.31122 -5.42077,-6.45282 7.31472,-13.8386 0.000129,0 -19.9916,4.99176 -10.4441,15.9937 z "/>
<g style="fill:#fff">
<path id="path3622" d="m -61.1829,74.7499 c 0,0 1.65109,0.956763 -1.81851,2.00935 -6.5975,1.99833 -27.4648,2.6011 -33.2607,0.07996 -2.08204,-0.906864 1.82419,-1.75951 3.05324,-2.02498 1.28149,-0.277226 2.01319,-0.226586 2.01319,-0.226586 -2.31715,-1.63171 -14.9768,3.20464 -6.42969,4.59168 23.8748,4.15507 42.4876,-1.70173 36.4425,-4.42942 z "/>
<path id="path3624" d="m -85.6091,57.0028 c 0,0 -10.613,2.11621 -3.75819,3.03263 2.89525,0.38742 8.66339,0.298283 14.0402,-0.152823 4.39299,-0.368688 8.80162,-0.75191 8.80162,-0.75191 0,0 -1.54787,0.664 -2.66853,1.42876 -12.8188,3.96811 -31.5997,1.5148 -25.605,-1.38381 5.06746,-2.4515 9.18981,-2.17286 9.18981,-2.17286 z "/>
<path id="path3626" d="m -66.5693,67.6444 c 10.957,-5.69219 5.89035,-11.163 2.3541,-10.4261 -0.864751,0.180468 -1.25269,0.336779 -1.25269,0.336779 0,0 0.322182,-0.504717 0.935672,-0.721874 6.9959,-2.45835 12.3749,7.2531 -2.25605,11.0993 -0.00013,0 0.168196,-0.152436 0.218965,-0.288078 z "/>
</g>
<path style="fill:#ea2d2e" id="path3628" d="m -73.1741,24.8593 c 0,0 6.06682,6.0703 -5.756,15.4021 -9.48112,7.4886 -2.16175,11.7568 -0.0034,16.6359 -5.53484,-4.99331 -9.59454,-9.38953 -6.8715,-13.4805 3.99873,-6.00429 15.0781,-8.91633 12.6309,-18.5575 z "/>
<path style="fill:#fff" id="path3630" d="m -84.5318,83.4787 c 10.5151,0.672267 26.6667,-0.778932 27.049,-5.75493 0,0 -0.734792,1.88633 -8.69091,3.38304 -8.97576,1.68984 -20.0488,1.4931 -26.6137,0.409123 0,0 1.34492,1.51799 8.25569,1.96276 z "/>
</g>
</g>
</svg>
