<svg width="48" version="1.1" xmlns="http://www.w3.org/2000/svg" height="48">
<path style="fill:#2c3e50;stroke-width:1.024" d="m 3,3 v 42 h 42 v -42 Z "/>
<path style="fill:#ecf0f1" d="m 9,24 h 3 V 9 l 7,15 H 39 V 39 H 9 Z"/>
<g style="fill:#2c3e50">
<path d="m 18.1726,35.6072 c -0.586769,0.395164 -1.44966,0.592746 -2.58869,0.592746 -1.03931,0 -1.85426,-0.174017 -2.44487,-0.522053 -0.590604,-0.348034 -0.970278,-0.875524 -1.13902,-1.58247 l 1.6396,-.2556 c 0.111216,0.40604 0.327899,0.701508 0.650047,0.886402 0.322149,0.181268 0.768936,0.271902 1.34036,0.271902 1.18504,0 1.55398,-0.34103 1.53726,-1.02235 -0.01223,-0.498588 -0.435177,-0.7525 -0.782358,-0.891839 -0.244214,-0.09801 -0.478777,-0.208458 -1.1806,-0.342597 -0.605944,-0.134138 -1.0278,-0.241086 -1.26558,-0.320843 -0.237777,-0.08339 -0.452542,-0.179453 -0.644296,-0.288217 -0.191754,-0.11239 -0.354745,-0.246525 -0.488973,-0.402416 -0.134229,-0.155891 -0.239694,-0.338971 -0.316396,-0.549242 -0.07286,-0.210271 -0.109296,-0.451357 -0.109296,-0.72326 0,-0.692445 0.274208,-1.22175 0.822626,-1.58791 0.552254,-0.369786 1.35378,-0.55468 2.4046,-0.55468 1.00479,0 1.75838,0.14864 2.26079,0.44592 0.506231,0.29728 0.832214,0.788517 0.977948,1.47371 l -1.6452,.2121 c -0.08437,-0.329909 -0.256956,-0.578245 -0.517738,-0.745011 -0.256951,-0.166767 -0.627037,-0.25015 -1.11026,-0.25015 -1.0278,0 -1.3247,0.398902 -1.30182,0.91359 0.03899,0.876928 1.0147,0.965453 1.71601,1.14743 0.770108,0.199828 1.33462,0.300905 1.66826,0.435043 0.337488,0.130513 0.615698,0.308697 0.821333,0.472167 0.5582,0.443745 0.592382,1.20336 0.582308,1.67949 -0.01128,0.5346 -0.295303,1.10936 -0.885907,1.50816 z "/>
<path d="m 23.6778,36.2 c -1.116,0 -1.97124,-0.257401 -2.56567,-0.772202 -0.590604,-0.514802 -0.885906,-1.25075 -0.885906,-2.20785 v -4.79092 h 2.05758 v 4.66584 c 0,1.35068 0.525966,1.83569 1.5603,1.84894 0.605903,0.0078 0.95163,-0.163141 1.27762,-0.489424 0.325984,-0.329907 0.488975,-0.801205 0.488975,-1.41389 v -4.61145 h 1.69703 v 4.70935 c 0,0.971598 -0.318312,1.72567 -0.954937,2.26223 -0.63279,0.532928 -1.52444,0.799391 -2.67498,0.799391 z "/>
<path d="m 36,33.9051 c 0,0.69607 -0.276126,1.23444 -0.828379,1.6151 -0.552253,0.380663 -1.31927,0.570994 -2.30106,0.570994 h -4.0556 v -7.6622 h 3.71045 c 0.989453,0 1.7373,0.163141 2.24353,0.489424 0.510068,0.322657 0.765102,0.801205 0.765102,1.43564 0,0.435044 -0.128476,0.803018 -0.385428,1.10392 -0.253116,0.29728 -0.640461,0.498488 -1.16203,0.603622 0.6558,0.0725 1.15436,0.268279 1.49568,0.58731 0.345158,0.315406 0.517737,0.734136 0.517737,1.25619 z  m -2.4148,-3.3336 c 0,-0.34441 -0.116976,-0.589122 -0.35091,-0.734137 -0.230106,-0.145014 -0.573347,-0.217521 -1.02972,-0.217521 h -1.45223 v 1.89788 h 1.46372 c 0.479386,0 0.826462,-0.07794 1.04123,-0.233836 0.2186,-0.159515 0.3279,-0.396976 0.3279,-0.712382 z  m .4717,3.2085 c 0,-0.717822 -0.544583,-1.07673 -1.63375,-1.07673 h -1.67082 v 2.19696 h 1.73411 c 0.544583,0 0.941515,-0.09244 1.1908,-0.277341 0.253115,-0.18852 0.379673,-0.469486 0.379673,-0.842897 z "/>
</g>
</svg>
