<svg width="48" version="1.1" xmlns="http://www.w3.org/2000/svg" height="48">
<path style="fill:#f1c40f" id="rect4090" d="M 3,3 V 45 H 45 V 3 Z"/>
<g style="opacity:.35" id="g830" transform="matrix(1.1470591,0,0,0.91864444,9.1409482,15.753864)">
<g id="g828">
<path id="path824" d="m -0.4363,13.0348 2.8098,-1.6031 c 0.54207,0.9061 1.03518,1.6727 2.21794,1.6727 1.13374,0 1.74861,-0.418179 1.76143,-2.0444 V 0 h 3.53737 l 0.4363,1.0882 -0.4363,10.0178 -5.15092,4.9026 c 0,0 -3.92602,-0.259182 -4.7393,-1.88558" transform="translate(0.852584,3.42314)"/>
<path id="path826" d="m 0,12.8722 2.8094,-1.5336 c 0.73955,1.1387 1.70071,1.9751 3.40121,1.9751 1.42965,0 2.34128,-0.6739 2.34128,-1.6033 0,-1.1153 -0.93647,-1.5103 -2.51385,-2.16068 L 5.17564,9.20092 C 2.68626,8.20199 0.65848,8.2742 0.94785,4.29852 1.124687,1.86888 2.79468,0.024 6.08741,-5e-5 8.28083,-0.0160733 9.85818,0.720317 10.99178,2.60238 V 3.6906 C 8.41147,3.133828 7.07319,2.834783 6.08741,2.834783 c -1.01048,0 -1.65133,0.6041 -1.65133,1.39397 0,0.97592 0.64085,1.37095 2.11945,1.97512 l 0.8625,0.3485 c 3.47769,1.37214 4.26199,2.4231 4.58422,5.11151 0.422276,3.52311 -5.71775,4.5309 -5.71775,4.5309 L -5e-5,13.960403" transform="translate(13.0532,3.23724)"/>
</g>
</g>
<g style="fill:#fff" id="logo" transform="matrix(1.1470591,0,0,0.91864444,9.1409482,16.753549)">
<g id="g2990">
<path id="j" d="m 0,13.0348 2.8098,-1.6031 c 0.54207,0.9061 1.03518,1.6727 2.21794,1.6727 1.13374,0 1.84853,-0.4181 1.84853,-2.0444 v -11.06 h 3.45027 v 11.106 c 0,3.369 -2.09471,4.9026 -5.15092,4.9026 -2.76015,0 -4.3623,-1.3477 -5.17558,-2.9741" transform="translate(0.852584,3.42314)"/>
<path id="s" d="m 0,12.8722 2.8094,-1.5336 c 0.73955,1.1387 1.70071,1.9751 3.40121,1.9751 1.42965,0 2.34128,-0.6739 2.34128,-1.6033 0,-1.1153 -0.93647,-1.5103 -2.51385,-2.16068 L 5.17566,9.20097 C 2.68628,8.20204 1.03496,6.94736 1.03496,4.29857 1.03496,1.85892 3.0066,0 6.08743,0 8.28089,0 9.8582,0.720367 10.9918,2.60243 L 8.30537,4.2288 C 7.71384,3.2298 7.07321,2.83483 6.08743,2.83483 c -1.01048,0 -1.65133,0.6041 -1.65133,1.39397 0,0.97592 0.64085,1.37095 2.11945,1.97512 l 0.86253,0.34847 c 2.93282,1.18504 4.58422,2.39316 4.58422,5.11151 0,2.9278 -2.43993,4.5309 -5.71775,4.5309 C 3.08061,16.1948 1.01033,14.7543 0,12.8722" transform="translate(13.0532,3.23724)"/>
</g>
</g>
</svg>
