<svg width="48" version="1.1" xmlns="http://www.w3.org/2000/svg" height="48">
<defs>
<clipPath>
<rect width="640" height="409"/>
</clipPath>
</defs>
<path style="fill:#e6be96" d="m 6.4807,4.1217 h 35.0386 c 1.61761,0 2.91988,1.30227 2.91988,2.91988 v 35.0386 c 0,1.61761 -1.30227,2.91988 -2.91988,2.91988 h -35.0386 c -1.61761,0 -2.91988,-1.30227 -2.91988,-2.91988 v -35.0386 c 0,-1.61761 1.30227,-2.91988 2.91988,-2.91988 z "/>
<rect width="39.956001" x="3.9800367" y="5.9614763" rx="2.854" ry="2.9198806" height="11.679523" style="fill:#3c2510"/>
<g style="fill:#e6be96">
<path d="M 6.855,4.1614 C 3.86179,4.220128 3.85427,4.1687 3.85427,7.07467 v 7.65272 c 0,2.92589 0.122133,2.84767 3,2.91327 l 18.0044,-0.9711 V 3.19026 Z"/>
<path d="m 41.3546,4.1614 c 2.6869,0.058728 2.7492,0.066026 2.7492,2.91327 v 7.65272 c 0,2.99148 -0.235701,2.97887 -2.7492,2.91327 L 24.8594,16.66956 V 3.19026 Z"/>
</g>
<path style="opacity:.5;fill:#3a240f" d="m 26.9785,3.2781 -5.8984,0 .0293,12.3137 .0655,4.8086 2.7675,-.2532 2.9412,-.2688 .0159,-2.8408 .0496,-1.4458 .0293,-12.3137 z "/>
<path style="fill:#f3dfcb" d="m 26.9492,3.216 -2.9492,-.216 l -2.9492,.216 .0293,12.5563 .0655,4.1414 2.7675,-.2418 2.9412,-.2567 .0159,-2.7128 .0496,-.9301 .0293,-12.5563 z "/>
<path style="opacity:.2;fill:#8d6137" d="M 23.513353,3.2092094 H 24 V 16.84 h -0.486647 z"/>
<path style="opacity:.3;fill:#fff" d="m 24,3.2092094 h 0.486647 V 16.84 H 24 Z"/>
<g style="stroke-width:.242;fill:#d70751">
<path d="m 25.7826,33.0224 c -0.376542,0.0046 0.07082,0.178127 0.562545,0.24794 0.136351,-0.09788 0.258841,-0.196218 0.368729,-0.29224 -0.30572,0.06889 -0.617237,0.07051 -0.931274,0.0443"/>
<path d="m 27.8032,32.5587 c 0.225069,-0.285051 0.388388,-0.596774 0.446104,-0.919166 -0.05066,0.229618 -0.185498,0.427924 -0.313533,0.637594 -0.703937,0.407977 -0.06654,-0.242141 0,-0.489618 -0.756612,0.877417 -0.104343,0.526033 -0.132067,0.77119"/>
<path d="m 28.55,30.7719 c 0.04587,-0.624141 -0.133328,-0.426531 -0.193564,-0.188796 0.07007,0.03386 0.125766,0.440216 0.193564,0.188796"/>
<path d="m 24.3541,22.2415 c 0.201125,0.03294 0.43451,0.05845 0.400989,0.102748 0.220784,-0.04476 0.270435,-0.08512 -0.400989,-0.102748"/>
<path d="m 24.7553,22.3443 -.1414,.0271 .1318,-.0111 .0096,-.016"/>
<path d="m 31.0232,31.0085 c 0.02268,0.560359 -0.177686,0.832652 -0.3589,1.31415 l -.3259,.1491 c -0.266402,0.476398 0.02646,0.302446 -0.164327,0.681198 -0.416364,0.340252 -1.26169,1.06436 -1.53238,1.13069 -0.197849,-0.0039 0.133831,-0.214774 0.177181,-0.297111 -0.556748,0.351616 -0.44686,0.527888 -1.29849,0.741965 l -.0247,-.0513 c -2.09946,0.909192 -5.01602,-0.89226 -4.97771,-3.34986 -0.02218,0.155861 -0.06377,0.116896 -0.11014,0.179519 -0.108375,-1.26429 0.634628,-2.53414 1.88775,-3.05345 1.22565,-0.55804 2.66251,-0.32935 3.53985,0.424212 -0.481893,-0.581233 -1.4419,-1.19749 -2.57883,-1.14043 -1.11425,0.0167 -2.15693,0.66821 -2.50474,1.37585 -0.57061,0.33051 -0.637148,1.27472 -0.885655,1.44775 -0.334957,2.2637 0.629334,3.24132 2.26076,4.39195 0.256069,0.159109 0.07208,0.183462 0.10636,0.304533 -0.541878,-0.233328 -1.03789,-0.585872 -1.44618,-1.01751 0.216751,0.291544 0.450389,0.574971 0.75258,0.79763 -0.511382,-0.158877 -1.19415,-1.1395 -1.393,-1.1794 0.880866,1.45146 3.57337,2.5455 4.98402,2.00254 -0.652774,0.02227 -1.48172,0.01229 -2.21464,-0.237039 -0.308745,-0.145888 -0.726873,-0.447638 -0.652018,-0.503998 1.92455,0.661251 3.91211,0.500519 5.57706,-0.727586 0.423925,-0.303837 0.886663,-0.82036 1.0205,-0.827318 -0.201377,0.278788 0.03453,0.134059 -0.120222,0.380144 0.421405,-0.626461 -0.183734,-0.25513 0.436023,-1.08175 l .2288,.2899 c -0.08569,-0.520466 0.701921,-1.1518 0.621773,-1.97424 0.18071,-0.251419 0.201377,0.270902 0.0098,0.849352 0.265898,-0.641768 0.07032,-0.74498 0.138367,-1.27472 0.07334,0.178128 0.170881,0.367156 0.220532,0.555257 -0.173401,-0.620431 0.177182,-1.04441 0.264386,-1.40507 -0.0862,-0.03479 -0.26741,0.274149 -0.309248,-0.458307 0.0063,-0.318217 0.09653,-0.166762 0.131058,-0.245157 -0.06754,-0.03595 -0.245735,-0.279947 -0.353858,-0.747764 0.07788,-0.11017 0.209694,0.285051 0.316557,0.301054 -0.06881,-0.371794 -0.187011,-0.655453 -0.192051,-0.940967 -0.312525,-0.600716 -0.110644,0.08025 -0.363689,-0.257914 -0.332688,-0.954187 0.275728,-0.221499 0.317062,-0.654757 0.503568,0.671457 0.790637,1.71285 0.922956,2.14402 -0.100814,-0.525801 -0.263377,-1.03537 -0.462234,-1.52823 0.15349,0.05961 -0.246743,-1.08152 0.199361,-0.325871 -0.476097,-1.6108 -2.03595,-3.11607 -3.4713,-3.82209 0.175165,0.147744 0.396705,0.333293 0.317566,0.362517 -0.714271,-0.390813 -0.588757,-0.421661 -0.691084,-0.5868 -0.580943,-0.217788 -0.619757,0.01786 -1.00411,0 -1.09636,-0.53531 -1.30756,-0.478485 -2.31647,-0.813402 l .0459,.1976 c -0.726116,-0.222659 -0.846085,0.08396 -1.63067,0 -0.04764,-0.0341 0.251532,-0.124318 0.498023,-0.157021 -0.702172,0.08535 -0.669408,-0.127565 -1.35646,0.02343 0.169116,-0.109243 0.348566,-0.181839 0.529024,-0.274614 -0.572375,0.03201 -1.36705,0.306621 -1.12181,0.05659 -0.933794,0.383623 -2.59244,0.921948 -3.52321,1.72515 l -.0292,-.18 c -0.426445,0.471064 -1.85977,1.40693 -1.97395,2.01762 l -.1142,.0243 c -0.22154,0.345818 -0.365452,0.737559 -0.541374,1.09312 -0.290093,0.455291 -0.425437,0.175344 -0.384103,0.24678 -0.570862,1.06505 -0.854906,1.95987 -1.09963,2.69418 0.174409,0.240055 0.0043,1.44543 0.07007,2.41005 -0.286313,4.76491 3.63386,9.39088 7.91898,10.4587 0.628074,0.207119 1.56187,0.199697 2.35629,0.220108 -0.93707,-0.246781 -1.05805,-0.130581 -1.97143,-0.423517 -0.65857,-0.285746 -0.802735,-0.611617 -1.26951,-0.984339 l .1847,.3004 c -0.914891,-0.298039 -0.532048,-0.368779 -1.27656,-0.58564 l .1973,-.2368 c -0.296615,-0.020871 -0.785566,-0.459695 -0.919145,-0.70346 l -.3246,.0118 c -0.389648,-0.442073 -0.597578,-0.76145 -0.582204,-1.00893 l -.1048,.1721 c -0.118709,-0.187637 -1.43434,-1.6602 -0.751824,-1.3174 -0.126774,-0.106227 -0.295386,-0.173256 -0.478113,-0.479181 l .1389,-.1459 c -0.327899,-0.388958 -0.604383,-0.88739 -0.583212,-1.05346 0.175166,0.217557 0.296647,0.258378 0.41712,0.29572 -0.829451,-1.89353 -0.876077,-0.10414 -1.5039,-1.92739 l .1326,-.0097 c -0.10157,-0.141713 -0.163823,-0.294559 -0.245483,-0.445086 l .058,-.53 c -0.596822,-0.634578 -0.166848,-2.7009 -0.0804,-3.83391 0.05923,-0.460626 0.498276,-0.951173 0.831719,-1.72051 l -.2031,-.032 c 0.38864,-0.623446 2.21842,-2.50468 3.06627,-2.4082 0.410567,-0.474542 -0.08166,-0.0019 -0.16206,-0.121071 0.902038,-0.858861 1.18558,-0.606746 1.79425,-0.761448 0.65605,-0.358342 -0.563301,0.14009 -0.252288,-0.136611 1.13492,-0.266495 0.803995,-0.606282 2.2842,-0.741501 0.156262,0.08164 -0.362176,0.126173 -0.492227,0.232168 0.945136,-0.425835 2.99142,-0.328654 4.32116,0.236112 1.54171,0.663571 3.27496,2.62413 3.34351,4.46872 l .0779,.0192 c -0.03932,0.733384 0.121986,1.58158 -0.158026,2.36042 l .1893,-.369"/>
<path d="m 21.6717,33.4979 -.0532,.2428 c 0.247752,0.309636 0.44434,0.645016 0.760141,0.88623 -0.227336,-0.407976 -0.395949,-0.576594 -0.706961,-1.12907"/>
<path d="m 22.2567,33.477 c -0.131059,-0.133596 -0.208182,-0.294096 -0.295387,-0.453668 0.08317,0.280875 0.253549,0.522321 0.411575,0.768174 l -.1162,-.3145"/>
<path d="m 32.6113,31.4058 -.0552,.128 c -0.101319,0.662875 -0.320842,1.31879 -0.656554,1.92716 0.370997,-0.641768 0.610179,-1.34384 0.71175,-2.05519"/>
<path d="m 24.429,22.0752 c 0.254304,-0.08559 0.625553,-0.04708 0.89624,-0.103444 -0.352346,0.02714 -0.702929,0.04337 -1.04897,0.08396 l .1527,.0195"/>
<path d="m 15.489,26.45 c 0.05872,0.499591 -0.408299,0.693722 0.103334,0.363908 0.27472,-0.569172 -0.106863,-0.157021 -0.103334,-0.363908"/>
<path d="m 14.8871,28.7633 c 0.118205,-0.333293 0.139376,-0.533222 0.184491,-0.726425 -0.325883,0.383623 -0.150214,0.465497 -0.184491,0.726425"/>
</g>
<path style="opacity:.2;fill:#8d6137;stroke-linecap:round;stroke-width:.11" d="m 21.0976,16.8777 5.7597,-.0905 .0108,.8538 -5.7584,-.0062 z "/>
</svg>
