<svg width="48" version="1.1" xmlns="http://www.w3.org/2000/svg" height="48">
<path style="fill:#203040;fill-rule:evenodd" d="M 3,3 H 45 V 45 H 3 Z"/>
<path style="fill:#bdc3c7" d="m 39.5948,28.0347 c -0.525115,-1.96399 -0.292322,-2.34325 -2.20974,-1.79542 l -1.5468,.4419 c -0.607679,-0.883899 -1.49158,-1.6573 -2.43072,-2.20974 l .2486,-1.5192 c 0.341612,-2.08763 -0.518085,-1.6192 -2.29261,-1.85066 -1.97654,-0.264439 -2.46241,-0.85348 -2.76218,1.13249 l -.221,1.464 c -0.165731,0.05524 -0.386706,0.110488 -0.552433,0.165731 -0.662922,0.16573 -1.2706,0.497193 -1.82304,0.828653 l -1.1877,-.9115 c -1.60402,-1.23099 -1.65487,-0.346038 -2.76218,0.994385 -1.32476,1.5666 -1.95061,1.61332 -0.331462,2.87267 l 1.243,.9667 c -0.220974,0.607679 -0.33146,1.2706 -0.33146,1.98877 l -1.5468,.4419 c -1.98731,0.567801 -1.39981,0.938089 -0.883898,2.67931 0.52511,1.96399 0.292323,2.34325 2.20974,1.79542 l 1.5468,-.4419 c 0.607679,0.883898 1.49158,1.65731 2.43072,2.20974 l -.2486,1.5192 c -0.341613,2.08763 0.518083,1.6192 2.29261,1.85066 1.97654,0.264441 2.46241,0.853482 2.76218,-1.13249 l .221,-1.464 c 0.16573,-0.05524 0.386705,-0.110486 0.552433,-0.16573 0.662925,-0.165732 1.27061,-0.497193 1.82304,-0.828653 l 1.1877,.9115 c 1.43404,1.42539 1.65487,0.346039 2.76218,-0.994385 1.32476,-1.5666 1.95061,-1.61332 0.331461,-2.87266 l -1.243,-.9667 c 0.220974,-0.607679 0.331462,-1.2706 0.331462,-1.98877 l 1.5468,-.4419 c 1.98731,-0.567802 1.39982,-0.938089 0.883899,-2.67931 z  m -9.0047,5.4967 c -1.54682,0.441948 -3.20412,-0.441948 -3.70132,-1.98877 -0.497193,-1.54682 0.441949,-3.20412 1.98877,-3.70132 1.54682,-0.441948 3.20412,0.441948 3.70132,1.98877 0.441947,1.54682 -0.441949,3.20412 -1.98877,3.70132 z "/>
<path style="fill:#f00" d="m 6,6 h 8 v 8 H 6 Z"/>
<path style="fill:#51ff00" d="m 15,6 h 8 v 8 h -8 z"/>
<path style="fill:#53a8ff" d="m 6,15 h 8 v 8 H 6 Z"/>
<path style="fill:#fffd00" d="m 15,15 h 8 v 8 h -8 z"/>
</svg>
