<svg width="48" version="1.1" xmlns="http://www.w3.org/2000/svg" height="48">
<g style="fill:#134b73" id="layer1" transform="matrix(1.1470591,0,0,0.91864444,-3.5294177,1.9525339)">
<path id="rect4090" d="M 0,0 0,40 34,40 33.79661,0.01694915 23,0 z" transform="translate(7,4)"/>
</g>
<g style="stroke:none">
<g id="layer1-9" transform="matrix(0.28054317,0,0,0.28054317,10.467418,11.154881)">
<g style="fill:#134b73">
<rect width="84" x="6" y="6" rx="6" height="86.964485" ry="0" id="rect2419"/>
<path id="rect2980" d="m 12,30 0,4 0,36 0,10 c 0,2.216 1.784,4 4,4 h 64 c 2.216,0 4,-1.784 4,-4 v -10 -36 -4 h -4 -64 -4 z "/>
</g>
<path style="fill:#fff;fill-rule:evenodd" id="path3496" d="m 58.9646,44.8154 -0,22 18,-11 z "/>
<path style="opacity:.08;fill:#134b73" id="path3828" d="m 12,30 0,4 0,36 0,10 c 0,2.216 1.784,4 4,4 h 64 c 2.216,0 4,-1.784 4,-4 v -10 -36 -4 h -4 -64 -4 z  m 3.0938,3.0938 .9062,0 64,0 .9062,0 0,.9062 0,36 0,10 c 0,0.550784 -0.355466,0.90625 -0.90625,0.90625 h -64 c -0.550784,0 -0.90625,-0.355466 -0.90625,-0.90625 v -10 -36 -0.90625 z "/>
</g>
<g style="fill:#f9f9f9">
<rect width="2.8025162" x="15.440562" y="20.901134" height="11.605499" id="rect3169"/>
<path id="path3171" d="m 23.0976,20.9011 1.6859,0 1.6859,0 -4.8068,5.8027 4.8068,5.8027 -1.6859,0 -1.6859,0 -4.8068,-5.8027 z "/>
</g>
</g>
</svg>
