<svg width="48" version="1.1" xmlns="http://www.w3.org/2000/svg" height="48">
<g id="layer1" transform="matrix(3.5432964,0,0,3.5432964,135.06764,-1409.6824)">
<path style="fill:#f39c12" id="rect4090" d="m -36.8492,399.433 0,10.3705 11.0067,0 0,-10.3338 -3.561,-.0367 z "/>
<g style="fill:#ecf0f1" id="layer1-0" transform="matrix(0.24846976,0,0,0.24846976,-64.334485,202.69751)">
<path style="stroke:none" id="rect4299" d="m 125.6115,800.731 0,2.3853 -2.3853,0 -2.3853,0 0,2.3853 0,3.9754 0,2.3853 13.119,0 0,3.1803 -1.5902,0 0,9.5411 5.5656,0 0,-9.5411 -1.5902,0 0,-5.5656 -13.119,0 0,-3.9754 2.3853,0 0,2.3853 19.0821,0 0,-7.1558 -19.0821,0 z"/>
</g>
</g>
</svg>
