<svg width="48" version="1.1" xmlns="http://www.w3.org/2000/svg" height="48">
<g id="layer1" transform="matrix(1.1446382,0,0,0.91694783,-3.4765175,1.9901786)">
<path style="fill:#ecf0f1" id="rect4090" d="M 0,0 0,40 34,40 34.071909,-0.07401129 23,0 z" transform="translate(7,4)"/>
</g>
<rect width="33.222034" x="7.3889832" y="12.435257" height="23.345213" style="fill:#2c3e50;fill-rule:evenodd" id="rect2996"/>
<path style="fill:#fff" id="path4144" d="m 18.2352,20.1524 -2.373,3.1934 2.4961,3.3691 -1.2715,0 -1.9102,-2.5781 -1.9102,2.5781 -1.2715,0 2.5488,-3.4336 -2.332,-3.1289 1.2715,0 1.7402,2.3379 1.7402,-2.3379 1.2715,0 z "/>
<path style="fill:#fff" id="path4146" d="m 24.2704,19.1914 0,3.2637 3.2637,0 0,.9961 -3.2637,0 0,3.2637 -.9844,0 0,-3.2637 -3.2637,0 0,-.9961 3.2637,0 0,-3.2637 .9844,0 z "/>
<path style="fill:#fff" id="path4148" d="m 32.6669,27.3243 q -0.457031,1.17188 -0.890625,1.5293 -0.433593,0.357421 -1.16016,0.357421 h -0.861328 v -0.902343 h 0.632813 q 0.445312,0 0.691406,-0.210938 0.246094,-0.210937 0.544922,-0.996094 l .1934,-.4922 -2.6543,-6.457 h 1.14258 l 2.0508,5.1328 2.0508,-5.1328 h 1.14258 l -2.8828,7.1719 z "/>
</svg>
