<svg width="48" version="1.1" xmlns="http://www.w3.org/2000/svg" height="48">
<path style="fill:#bdc3c7" id="rect4090" d="M 3,3 V 45 H 45 V 3 Z"/>
<g id="g1011">
<rect width="42" x="3" y="17" height="14" style="opacity:.8;fill:#0082ff;stroke:none" id="rect3008"/>
<rect width="42" x="3" y="31" height="14" style="opacity:.8;fill:#a5be4d;stroke:none" id="rect3010"/>
<rect width="42" x="3" y="3" height="14" style="opacity:.8;fill:#b043b0;stroke:none" id="rect3006"/>
</g>
<g style="fill-rule:evenodd;stroke-linecap:square;stroke-width:0" id="g888" transform="translate(0,-1.507)">
<rect width="7.9695606" x="20.002359" y="4.5075564" height="18.793396" style="fill:#34495e" id="shape0"/>
<g style="fill:#fff" id="g10" transform="matrix(1.4683729,0,0,1.025597,-11.238691,-2.7746832)">
<rect width="3.2564054" x="23.465931" y="7.1004887" height="1.4654016" id="shape2"/>
<rect width="3.2564054" x="21.302462" y="8.5685101" height="1.4654016" id="shape3"/>
<rect width="3.2564054" x="23.46616" y="10.03407" height="1.4654016" id="shape4"/>
<rect width="3.2564054" x="21.29925" y="11.503496" height="1.4654016" id="shape5"/>
<rect width="3.2564054" x="23.462833" y="12.96901" height="1.4654016" id="shape6"/>
<rect width="3.2564054" x="21.29925" y="14.437004" height="1.4654016" id="shape7"/>
<rect width="3.2564054" x="23.462833" y="15.902609" height="1.4654016" id="shape8"/>
<rect width="3.2564054" x="21.277571" y="17.370695" height="1.4654016" id="shape9"/>
<rect width="3.2564054" x="23.441038" y="18.836208" height="1.4654016" id="shape10"/>
<rect width="3.2564054" x="21.277571" y="20.304295" height="1.4654016" id="shape11"/>
<rect width="3.2564054" x="23.441269" y="21.769808" height="1.4654016" id="shape12"/>
<rect width="3.2564054" x="21.274359" y="23.239271" height="1.4654016" id="shape13"/>
<rect width="5.4192996" x="21.285601" y="24.824669" height="11.168204" id="shape17"/>
</g>
<rect width="4.6644192" x="21.693239" y="23.685429" height="2.3696082" style="fill:#2c3e50" id="shape18"/>
</g>
<g id="g1016" transform="translate(69.382375,6.4044495)">
<path style="fill:#2c3e50;stroke:none" id="path4168" d="m -50.6207,31.9087 q 0.472656,0 0.675781,-0.175782 0.207031,-0.175781 0.207031,-0.578125 0,-0.398437 -0.207031,-0.570312 -0.203125,-0.171875 -0.675781,-0.171875 h -0.632813 v 1.49609 h 0.632813 z  m -.6328,1.0391 v 2.207 h -1.5039 v -5.832 h 2.2969 q 1.15234,0 1.6875,0.386719 0.539062,0.386719 0.539062,1.22266 0,0.578125 -0.28125,0.949219 -0.277343,0.371094 -0.839843,0.546875 0.308593,0.07031 0.550781,0.320312 0.246094,0.246094 0.496094,0.75 l .8164,1.6562 h -1.60156 l -.7109,-1.4492 q -0.214844,-0.4375 -0.4375,-0.597657 -0.21875,-0.160156 -0.585938,-0.160156 h -0.425781 z "/>
<path style="fill:#2c3e50;stroke:none" id="path4170" d="m -44.7027,33.1861 q -0.4375,0 -0.660156,0.148438 -0.21875,0.148437 -0.21875,0.4375 0,0.265625 0.175781,0.417969 0.179688,0.148437 0.496094,0.148437 0.394531,0 0.664063,-0.28125 0.269531,-0.285156 0.269531,-0.710937 v -0.160157 z  m 2.1367,-.5273 v 2.4961 h -1.4102 v -0.6484 q -0.28125,0.398437 -0.632813,0.582031 -0.351562,0.179688 -0.855468,0.179688 -0.679688,0 -1.10547,-0.394532 -0.421875,-0.398437 -0.421875,-1.03125 0,-0.769531 0.527344,-1.12891 0.53125,-0.359375 1.66406,-0.359375 h 0.824219 v -0.109375 q 0,-0.332031 -0.261719,-0.484375 -0.261719,-0.15625 -0.816406,-0.15625 -0.449219,0 -0.835938,0.08984 -0.386718,0.08984 -0.71875,0.269531 v -1.06641 q 0.449219,-0.109375 0.902344,-0.164063 0.453125,-0.05859 0.90625,-0.05859 1.18359,0 1.70703,0.46875 0.527344,0.464843 0.527344,1.51562 z "/>
<path style="fill:#2c3e50;stroke:none" id="path4172" d="m -38.0074,31.9712 q -0.183594,-0.08594 -0.367188,-0.125 -0.179687,-0.04297 -0.363281,-0.04297 -0.539062,0 -0.832031,0.347656 -0.289063,0.34375 -0.289063,0.988281 v 2.01562 h -1.39844 v -4.375 h 1.39844 v 0.71875 q 0.269532,-0.429687 0.617188,-0.625 0.351562,-0.199218 0.839844,-0.199218 0.07031,0 0.152343,0.0078 0.08203,0.0039 0.238282,0.02344 l .0039,1.2656 z "/>
</g>
</svg>
