<svg width="48" version="1.1" xmlns="http://www.w3.org/2000/svg" height="48">
<path style="fill:#91baf8" id="rect4090" d="M 3,3 V 45 H 45 V 3 Z"/>
<g style="fill-rule:evenodd" id="g888" transform="translate(0,-1.507)">
<rect width="7.9695606" x="20.002359" y="4.5075564" height="18.793396" style="fill:#34495e;stroke-miterlimit:2.013" id="shape0"/>
<g style="stroke-miterlimit:2" id="g19">
<g style="fill:#ecf0f1" id="g10" transform="matrix(1.4683729,0,0,1.025597,-11.238691,-2.7746832)">
<rect width="3.2564054" x="23.465931" y="7.1004887" height="1.4654016" id="shape2"/>
<rect width="3.2564054" x="21.302462" y="8.5685101" height="1.4654016" id="shape3"/>
<rect width="3.2564054" x="23.46616" y="10.03407" height="1.4654016" id="shape4"/>
<rect width="3.2564054" x="21.29925" y="11.503496" height="1.4654016" id="shape5"/>
<rect width="3.2564054" x="23.462833" y="12.96901" height="1.4654016" id="shape6"/>
<rect width="3.2564054" x="21.29925" y="14.437004" height="1.4654016" id="shape7"/>
<rect width="3.2564054" x="23.462833" y="15.902609" height="1.4654016" id="shape8"/>
<rect width="3.2564054" x="21.277571" y="17.370695" height="1.4654016" id="shape9"/>
<rect width="3.2564054" x="23.441038" y="18.836208" height="1.4654016" id="shape10"/>
<rect width="3.2564054" x="21.277571" y="20.304295" height="1.4654016" id="shape11"/>
<rect width="3.2564054" x="23.441269" y="21.769808" height="1.4654016" id="shape12"/>
<rect width="3.2564054" x="21.274359" y="23.239271" height="1.4654016" id="shape13"/>
<rect width="5.4192996" x="21.285601" y="24.824669" height="9.7665815" id="shape17"/>
</g>
<rect width="4.6644192" x="21.693239" y="23.685429" height="2.3696082" style="fill:#2c3e50" id="shape18"/>
</g>
</g>
<g id="g999" transform="matrix(1.2215786,0,0,1.2107205,68.761715,1.6783755)">
<path id="path4157" d="m -44.873,25.8703 h 1.5039 v 5.2656 q 0,1.08984 -0.59375,1.62891 -0.589843,0.539063 -1.78906,0.539063 h -0.304687 v -1.13672 h 0.234375 q 0.46875,0 0.707031,-0.261719 0.242187,-0.261719 0.242187,-0.769531 v -5.26562 z "/>
<path id="path4159" d="m -39.9902,29.7336 q -0.4375,0 -0.660157,0.148438 -0.21875,0.148437 -0.21875,0.4375 0,0.265625 0.175782,0.417968 0.179687,0.148438 0.496093,0.148438 0.394532,0 0.664063,-0.28125 0.269531,-0.285156 0.269531,-0.710938 v -0.160156 z  m 2.1367,-.5273 v 2.4961 h -1.4102 v -0.6484 q -0.28125,0.398437 -0.632812,0.582031 -0.351563,0.179687 -0.855469,0.179687 -0.679688,0 -1.10547,-0.394531 -0.421875,-0.398437 -0.421875,-1.03125 0,-0.769531 0.527344,-1.12891 0.53125,-0.359375 1.66406,-0.359375 h 0.824219 v -0.109375 q 0,-0.332031 -0.261719,-0.484375 -0.261718,-0.15625 -0.816406,-0.15625 -0.449219,0 -0.835937,0.08984 -0.386719,0.08984 -0.71875,0.269531 v -1.06641 q 0.449218,-0.109375 0.902343,-0.164063 0.453125,-0.05859 0.90625,-0.05859 1.18359,0 1.70703,0.46875 0.527343,0.464844 0.527343,1.51562 z "/>
<path id="path4161" d="m -37.0956,27.3273 h 1.3984 l 1.0898,3.0234 1.0859,-3.0234 h 1.4023 l -1.7227,4.375 h -1.5352 l -1.7188,-4.375 z "/>
<path id="path4163" d="m -29.3652,29.7336 q -0.4375,0 -0.660157,0.148438 -0.21875,0.148437 -0.21875,0.4375 0,0.265625 0.175782,0.417968 0.179687,0.148438 0.496093,0.148438 0.394532,0 0.664063,-0.28125 0.269531,-0.285156 0.269531,-0.710938 v -0.160156 z  m 2.1367,-.5273 v 2.4961 h -1.4102 v -0.6484 q -0.28125,0.398437 -0.632812,0.582031 -0.351563,0.179687 -0.855469,0.179687 -0.679688,0 -1.10547,-0.394531 -0.421875,-0.398437 -0.421875,-1.03125 0,-0.769531 0.527344,-1.12891 0.53125,-0.359375 1.66406,-0.359375 h 0.824219 v -0.109375 q 0,-0.332031 -0.261719,-0.484375 -0.261718,-0.15625 -0.816406,-0.15625 -0.449219,0 -0.835937,0.08984 -0.386719,0.08984 -0.71875,0.269531 v -1.06641 q 0.449218,-0.109375 0.902343,-0.164063 0.453125,-0.05859 0.90625,-0.05859 1.18359,0 1.70703,0.46875 0.527343,0.464844 0.527343,1.51562 z "/>
</g>
</svg>
