<svg width="48" version="1.1" xmlns="http://www.w3.org/2000/svg" height="48">
<g style="fill-rule:evenodd">
<rect width="42" x="3" y="3" height="42" style="fill:#d38d5f;stroke:none" id="rect816"/>
<path style="fill:#34495e;stroke-width:1.015" id="path2518" d="m 19.3653,33.3828 c 0.0158,-0.02413 0.02354,-0.03867 0.04039,-0.06478 0.149945,-0.232062 0.325492,-0.517527 0.393736,-0.639617 0.126399,-0.226285 0.310384,-0.760308 0.36345,-1.05258 0.125306,-0.69041 0.13795,-0.871121 0.08077,-1.09293 -0.01688,-0.06552 -0.0383,-0.38528 -0.05048,-0.712498 -0.01809,-0.484723 -0.02585,-0.634398 -0.07068,-0.777271 -0.06877,-0.219202 -0.121227,-0.484257 -0.121145,-0.696282 3.4e-05,-0.259277 -0.04738,-0.723216 -0.111058,-1.02825 -0.08598,-0.411842 -0.08683,-1.14456 0,-1.53022 0.07111,-0.316035 0.05383,-0.447909 -0.07068,-0.591062 -0.182486,-0.209789 -0.378546,-0.232156 -0.868232,-0.10522 -1.41091,0.345577 -2.87837,-0.538311 -3.70519,-1.38445 -0.549225,-0.735006 -1.34125,-1.20145 -1.42351,-2.08082 -0.06226,-0.717503 -0.178639,-1.32337 -0.141333,-2.05648 -0.03051,-0.670186 0.493788,-1.13414 0.686513,-1.8055 -0.122413,-0.633839 -1.08887,-0.474517 -1.65572,-0.688202 -0.281095,-0.122219 -0.422316,-0.34745 -0.363449,-0.574844 0.07054,-0.272539 0.390867,-0.652535 0.656229,-0.777253 0.554734,-0.207057 1.18544,-0.126348 1.77686,-0.242891 0.495252,-0.101959 0.696797,-0.176788 0.999488,-0.396725 0.452101,-0.328502 0.566506,-0.379386 0.969214,-0.38053 1.80194,0.09505 2.42768,1.72102 2.59463,2.939 0.06756,0.924925 -0.416922,1.71109 -0.686525,2.58275 -0.112104,0.36022 0.235842,0.875605 0.676426,0.501974 0.285792,-0.714101 0.335742,-1.26297 0.908629,-1.89456 0.566854,-0.607874 1.03797,-0.97144 1.61533,-1.24685 0.465013,-0.245185 0.927724,-0.525068 1.29227,-0.866312 0.194643,-0.220944 0.570412,-0.708016 0.656228,-0.858223 0.342204,-0.677697 1.13946,-1.12364 1.96868,-1.38448 0.536,-0.15157 1.05643,-0.359888 1.61532,-0.453399 0.754721,-0.03197 1.2877,-0.07403 1.95863,0.178121 0.529492,0.16521 0.868267,0.523737 1.23168,0.85012 0.385844,0.457723 0.608402,1.08239 0.868266,1.61119 0.180138,0.444051 0.377013,0.73878 0.706724,1.03634 0.211633,0.191036 0.49323,0.503557 0.686501,0.761054 0.560405,1.14905 1.12395,2.00473 2.09983,2.97948 0.521588,0.455756 0.625953,0.68233 0.625953,1.28732 0.148527,0.931428 0.137602,1.62929 -0.131211,2.5747 -0.03243,0.06869 -0.218491,0.31622 -0.41397,0.55052 -0.288221,0.345577 -0.371899,0.428245 -0.454297,0.461516 -0.06647,0.02674 -0.124818,0.04175 -0.171538,0.03234 -0.107619,-0.02163 -0.245454,-0.142686 -0.282759,-0.250982 -0.04671,-0.13579 0.01697,-0.322838 0.201987,-0.582953 0.311465,-0.41967 0.476727,-0.906257 0.373525,-1.39256 -0.07972,-0.352195 -0.04777,-0.715201 -0.111104,-1.06872 -0.103434,-0.381245 -0.253937,-0.591034 -0.413854,-0.591034 -0.174675,0 -0.307281,0.243955 -0.525074,0.923023 l -.1413,1.2549 c -0.0115,1.02658 0.02313,1.82752 0.09088,2.0484 0.06811,0.222091 0.06833,0.918 0,1.21446 -0.06311,0.273816 -0.04545,0.390965 0.09088,0.647726 0.137719,0.259463 0.181882,0.436073 0.161543,0.736729 -0.01767,0.258718 -0.05497,0.370369 -0.181765,0.623402 -0.141437,0.282296 -0.165843,0.391617 -0.191761,0.825826 -0.01359,0.226098 -0.04835,0.469345 -0.07078,0.542506 -0.12877,0.421068 -0.109594,0.52023 0.141438,1.14158 0.157708,0.390686 0.251729,0.757979 0.211982,0.80961 -0.0165,0.228708 0.07334,0.461703 0.01,0.688267 -0.01278,0.03681 -25.0298,0.347628 -14.3966,-0.534396 z  m 11.4183,-9.1084 c -0.18595,0 -0.287873,0.102052 -0.504736,0.461423 -0.379453,0.535794 -0.65524,1.02807 -0.726946,1.65175 -0.08659,0.519952 -0.124354,1.02928 -0.1211,1.55445 v 0.736822 l -.0808,.1295 c -0.04882,0.07195 -0.192225,0.223581 -0.323087,0.331877 -0.163403,0.135323 -0.270905,0.244738 -0.343309,0.356296 -0.193038,0.297674 -0.317741,0.457136 -0.555175,0.712498 -0.26521,0.284999 -0.495671,0.620419 -0.54518,0.80961 -0.04079,0.155268 -0.0094,0.315941 0.09077,0.437192 0.03777,0.04567 0.160265,0.143431 0.272647,0.218642 0.332618,0.222557 0.443955,0.368784 0.524959,0.744838 0.03533,0.163935 0.03626,0.228987 0.01015,0.372419 -0.05369,0.294413 -0.170027,0.473259 -0.343309,0.550613 1.2927,0.09571 2.59574,0.243806 3.90714,0.429084 0.01882,-0.06104 0.04882,-0.129732 0.09077,-0.202427 0.164448,-0.284533 0.195827,-0.353685 0.242315,-0.639617 0.04835,-0.296742 0.105177,-0.467667 0.353419,-1.05248 0.169215,-0.398794 0.175258,-0.431226 0.191761,-0.680158 0.02825,-0.425636 -0.0043,-1.05845 -0.07066,-1.27923 -0.08728,-0.290405 -0.110756,-0.516782 -0.110989,-1.08492 -0.000231,-0.385653 -0.0088,-0.570837 -0.04044,-0.704389 -0.05962,-0.252287 -0.253938,-0.665713 -0.48463,-1.03636 -0.243013,-0.3905 -0.318439,-0.530576 -0.423965,-0.841951 -0.173165,-0.437191 -0.451043,-0.829275 -0.535069,-1.28734 -0.07345,-0.466735 -0.225115,-0.688173 -0.47452,-0.688173 z  m -3.4124,.9554 c -0.03975,-0.0021 -0.07729,0.0099 -0.131211,0.03234 -0.112731,0.04679 -0.174908,0.149956 -0.312975,0.566736 -0.149457,0.450985 -0.208612,0.58314 -0.333199,0.728715 -0.347841,0.406343 -0.3497,0.413054 -0.434075,0.80961 -0.09309,0.437564 -0.103086,0.453129 -0.474519,0.761055 -0.179441,0.148743 -0.422686,0.342036 -0.535069,0.429176 -0.257423,0.199257 -0.353537,0.355736 -0.35342,0.566737 0.000233,0.161233 0.03137,0.237189 0.282759,0.599076 0.221163,0.318365 0.302633,0.405411 0.494626,0.566737 0.17944,0.150794 0.552153,0.382484 0.757161,0.469624 0.148876,0.06328 0.299147,0.07185 0.41397,0.02424 0.117032,-0.04846 0.23418,-0.17223 0.343309,-0.356203 0.05486,-0.09245 0.191411,-0.291243 0.302865,-0.4453 0.365042,-0.50476 0.459876,-0.7426 0.494625,-1.27923 0.01244,-0.190497 0.03161,-0.454807 0.05055,-0.582953 0.03661,-0.248932 0.01639,-0.479131 -0.111105,-1.21446 -0.02883,-0.166545 -0.07531,-0.555833 -0.110988,-0.866275 -0.06856,-0.59479 -0.09809,-0.682862 -0.22221,-0.761055 -0.04381,-0.02777 -0.08124,-0.04641 -0.121099,-0.04864 z  m -4.3917,.2752 c -0.188146,0.01621 -0.288175,0.06645 -0.403824,0.161884 -0.205554,0.169714 -0.302597,0.415756 -0.333163,0.890693 -0.02622,0.407182 -0.04935,0.475589 -0.323074,0.922939 -0.201348,0.329175 -0.249359,0.478478 -0.353351,0.979697 -0.05233,0.25238 -0.0659,0.350051 -0.06057,0.825827 0.0059,0.523213 0.0041,0.557882 -0.06057,0.73673 -0.03696,0.102331 -0.146028,0.320507 -0.242303,0.48584 -0.211645,0.363286 -0.24658,0.467387 -0.282678,0.825827 -0.01539,0.152565 -0.05311,0.396464 -0.09087,0.542412 -0.04171,0.161326 -0.07643,0.395346 -0.09086,0.599169 -0.0153,0.216779 -0.08804,0.527407 -0.161531,0.817719 1.28161,-0.07885 2.55961,-0.114633 3.83638,-0.10522 -0.02243,-0.04092 -0.04184,-0.08006 -0.03022,-0.129546 0.02847,-0.121996 0.170027,-0.217431 0.54518,-0.364403 0.272532,-0.106712 0.367017,-0.157877 0.504735,-0.267105 0.268697,-0.213051 0.454879,-0.537007 0.454415,-0.793488 -0.0459,-0.351076 -0.411181,-0.619207 -0.666396,-0.8906 -0.24034,-0.257878 -0.638852,-0.567668 -0.989367,-0.769162 -0.361962,-0.207924 -0.703318,-0.442597 -0.817758,-0.566736 -0.05161,-0.05601 -0.11809,-0.167664 -0.151444,-0.250982 -0.05589,-0.139518 -0.06093,-0.187422 -0.06057,-0.655835 0.000325,-0.583139 0.0068,-0.613894 0.252391,-0.96348 0.192678,-0.274188 0.268034,-0.471209 0.302876,-0.817718 0.01588,-0.158064 0.06316,-0.395346 0.100964,-0.526289 0.08428,-0.292082 0.07294,-0.425821 -0.03029,-0.534304 -0.110129,-0.115751 -0.269673,-0.154615 -0.62594,-0.153869 -0.08457,0.000185 -0.159394,-0.0054 -0.222105,0 z  m 3.8971,7.1653 c -0.101575,-0.007 -0.180371,0.07912 -0.28276,0.250982 -0.08751,0.147066 -0.19513,0.24129 -0.343192,0.315754 0.466036,0.01882 0.925912,0.04231 1.39323,0.07288 -0.127956,-0.06748 -0.258237,-0.175025 -0.393747,-0.340079 -0.155733,-0.189564 -0.271952,-0.292548 -0.373526,-0.299537 z "/>
</g>
</svg>
