<svg width="48" version="1.1" xmlns="http://www.w3.org/2000/svg" height="48">
<path style="fill:#ecf0f1" id="rect4090" d="M 3,3 V 45 H 45 V 3 Z"/>
<g style="fill:#2c3e50;fill-rule:evenodd;stroke:#003bc3;stroke-linecap:square;stroke-width:0;stroke-miterlimit:2" id="g9" transform="matrix(1.3561225,0,0,1.0859321,-8.3829401,-4.5474329)">
<path id="shape0" d="M 2.75685,0 4.49758,0.363529 1.61324,17.0647 C 1.503,15.1992 0.965247,13.9112 0,13.2009 1.22527,7.33386 2.14422,2.93354 2.75685,0 Z" transform="translate(19.3136,23.8462)"/>
<path id="shape11" d="M 3.6068,1e-4 C 1.81901,0.0156568 2e-5,1.77778 2e-5,3.62118 c 0,1.84339 1.76511,3.60563 3.61168,3.60563 1.84656,0 3.60577,-1.79335 3.60577,-3.60563 0,-1.81229 -1.82288,-3.63664 -3.61067,-3.62108 z m 0,1.673 c 1.07888,0 1.94685,0.86856 1.94685,1.94812 0,1.07956 -0.86797,1.9481 -1.94685,1.9481 -1.07886,0 -1.94686,-0.86854 -1.94686,-1.9481 0,-1.07956 0.868,-1.94812 1.94686,-1.94812 z" transform="translate(20.2971,18.4524)"/>
<path id="shape1" d="M 1.75208,0 0,0.365899 2.895,17.2129 C 3.01,15.321 3.55671,14.0255 4.53516,13.3266 Z" transform="translate(23.9444,23.8094)"/>
<rect width="1.9610876" x="0" y="0" rx="0.98054379" ry="1.0073068" height="4.3886003" id="shape2" transform="translate(22.9664,15.238)"/>
<rect width="12.515334" x="0" y="0" height="0.90020764" id="shape3" transform="translate(17.6214,32.6292)"/>
<rect width="1.2690742" x="0" y="0" rx="0.63450003" ry="0.53626519" height="3.4857237" id="shape4" transform="translate(23.2506,31.308)"/>
</g>
</svg>
