<svg width="48" version="1.1" xmlns="http://www.w3.org/2000/svg" height="48">
<path style="fill:#d03cd2" d="m 3,3 v 42 h 42 v -42 Z "/>
<g style="fill:#fff">
<path d="m 19.3687,28.7971 q 0.633079,0.262074 1.2272,1.11977 0.603861,0.857694 1.20772,2.35866 l 1.9966,4.8602 h -2.11352 l -1.8602,-4.5624 q -0.720736,-1.78686 -1.40251,-2.37057 -0.672038,-0.583708 -1.8408,-0.583708 h -2.14273 v 7.51674 h -1.96741 v -17.7852 h 4.4413 q 2.49336,0 3.72056,1.27463 1.2272,1.27463 1.2272,3.84771 0,1.67965 -0.642819,2.78751 -0.63308,1.10785 -1.85054,1.5367 z  m -4.9283,-7.4691 v 6.31353 h 2.47385 q 1.42199,0 2.14273,-0.798131 0.730476,-0.810045 0.730476,-2.37057 0,-1.56052 -0.730476,-2.34675 -0.720736,-0.798132 -2.14273,-0.798132 h -2.47388 z "/>
<path d="m 35.332,23.7939 -3.9446,6.4923 4.1491,6.8497 h -2.11352 l -3.1752,-5.2414 -3.1752,5.2414 h -2.11352 l 4.2368,-6.9806 -3.8764,-6.3612 h 2.11351 l 2.8927,4.7531 2.8927,-4.7531 h 2.11352 z "/>
</g>
</svg>
