<svg width="48" version="1.1" xmlns="http://www.w3.org/2000/svg" height="48">
<path style="fill:#727d7e" d="m 3,3 v 42 h 42 v -42 Z "/>
<g style="fill:#fff">
<path d="m 29.0821,21.1634 c -0.950147,0.122603 -1.89596,0.306077 -2.83791,0.551282 v 3.58751 c 0.696235,-0.402836 1.44888,-0.704855 2.25979,-0.906274 1.50325,-0.373391 4.04131,-0.514435 5.19731,0.223436 0.548794,0.34153 0.824226,0.884419 0.824226,1.62879 v 0.367522 h -2.59377 c -2.37538,0 -4.1185,0.401301 -5.23247,1.20697 -1.10578,0.80567 -1.66017,2.07115 -1.66017,3.79633 0,1.41868 0.443514,2.57524 1.32814,3.46849 1.91133,1.8935 4.89037,1.42069 6.16802,0.722513 0.737186,-0.411591 1.4005,-1.06339 1.99025,-1.95663 v 2.18007 h 4.43559 v -8.39453 c 0,-2.35571 -0.554393,-4.05307 -1.66017,-5.09519 -2.02362,-1.93748 -6.14304,-1.66726 -8.21882,-1.38029 z  m 3.1582,8.2504 h 2.28518 v 0.538753 c 0,0.954539 -0.282487,1.74961 -0.847664,2.38889 -1.20942,1.34927 -2.97482,1.04357 -3.65042,0.446873 -0.368593,-0.341538 -0.552739,-0.809855 -0.552739,-1.40535 0,-0.648042 0.230766,-1.13731 0.689459,-1.47009 0.466884,-0.332778 1.1588,-0.499077 2.07619,-0.499077 z "/>
<path d="m 21.8315,12 h 18.6416 v 1.83066 h -16.2797 l -7.2489,23.7318 h -2.36188 l -3.7719,-10.3942 -1.7815,.6757 -.4546,-1.5849 4.4231,-1.5604 2.7399,7.8018 z "/>
</g>
</svg>
