<svg width="48" version="1.1" xmlns="http://www.w3.org/2000/svg" height="48">
<g id="g1101" transform="matrix(1.1470591,0,0,0.917,-3.5294184,1.9932097)">
<path style="fill:#059b90" id="path1099" d="M 5.6923,1.1024 V 46.9039 H 42.3077 V 1.1024 Z"/>
</g>
<g style="fill-rule:evenodd" id="g1133" transform="translate(-4,0.00411584)">
<path style="fill:#34495e" id="path1105" d="m 10,2.9918 h 8.9684 V 20.1406 H 10 Z"/>
<g style="fill:#fff" id="g1129">
<path id="path1107" d="m 13.6187,2.9918 h 5.38091 V 4.68307 H 13.6187 Z"/>
<path id="path1109" d="m 10.0438,4.6861 h 5.38091 V 6.37737 H 10.0438 Z"/>
<path id="path1111" d="m 13.6191,6.3776 h 5.38091 V 8.06887 H 13.6191 Z"/>
<path id="path1113" d="m 10.0385,8.0735 h 5.38091 V 9.76477 H 10.0385 Z"/>
<path id="path1115" d="m 13.6136,9.7649 h 5.38091 v 1.69127 H 13.6136 Z"/>
<path id="path1117" d="m 10.0385,11.4592 h 5.38091 v 1.69127 H 10.0385 Z"/>
<path id="path1119" d="m 13.6136,13.1507 h 5.38091 v 1.69127 H 13.6136 Z"/>
<path id="path1121" d="m 10.0027,14.8451 h 5.38091 v 1.69127 H 10.0027 Z"/>
<path id="path1123" d="m 13.5776,16.5365 h 5.38091 v 1.69127 H 13.5776 Z"/>
<path id="path1125" d="m 10.0027,18.2308 h 5.38091 v 1.69128 H 10.0027 Z"/>
<path id="path1127" d="m 10,20.047 h 9 v 11.272 h -9 z"/>
</g>
<path style="fill:#2c3e50" id="path1131" d="m 11.9028,21.1723 h 5.24902 v 2.6666 H 11.9028 Z"/>
</g>
<g id="g1282" transform="matrix(0.27777701,0,0,0.27777701,51.461523,16.328817)">
<g style="fill-rule:evenodd">
<rect width="72" x="-110.34957" y="24.747507" height="35" style="fill:#00c3ff" id="rect4154"/>
<g id="g10430" transform="matrix(1.0286749,0,0,1.0409543,-31.9,27.883441)">
<g id="g21">
<path style="fill:#68a5bb" id="path2784" d="m -75.4778,54.3908 v -23.6545 l 68.9268,-4.2532 -26.4662,15.3848 -42.4606,12.523 Z "/>
<path style="fill:#fbf7e5" id="path2162" d="m -74.6269,54.183 33.3066,-13.5037 c 8.69555,-4.15499 -3.60994,-3.53175 -0.02941,-7.89449 2.3383,-3.18549 34.4459,-4.77824 34.5921,-5.81699 l -4.737,27.977 c 0,0 -62.9131,2.28525 -63.1323,-0.761752 z"/>
<path style="fill:#fff" id="path9629" d="m -43.3614,25.0981 c 0.445377,-1.06183 1.73697,-1.108 2.73907,-1.73125 1.0021,-0.623249 2.50525,-1.84666 3.27353,-2.00825 0.768275,-0.161584 0.82395,2.05441 2.07101,1.8005 1.24705,-0.253916 4.24222,-3.07008 5.41134,-3.324 1.16911,-0.253917 1.33613,1.50041 1.60336,1.8005 0.267222,0.3 4.06623,0.578199 4.74327,-1.2465 0.668066,-1.8005 4.92099,0.44867 6.41344,-1.73125 1.46974,-2.14675 2.60546,1.86975 2.60546,1.86975 0,0 7.41554,2.83925 3.0731,4.08574 -4.34243,1.2465 -9.3418,-0.611707 -10.355,-0.415499 -1.01323,0.196208 -5.19978,0.496291 -6.21301,0.692499 -1.01323,0.196208 -4.27562,0.554 -5.61176,-0.277 -1.30758,-0.813242 -10.1749,1.48866 -9.75377,0.48475 z"/>
<path style="fill:#efe9c7" id="path1537" d="m -74.6269,54.3215 46.6978,-13.019 c 7.95,-4.15499 -10.8227,-4.63974 -7.54915,-9.00249 2.13781,-3.18549 30.397,-5.95549 28.6601,-5.19374 l -.1336,29.0157 c 0,0 -68.9592,2.63936 -69.1596,-0.407643 z "/>
<path style="fill:#1a6e8e" id="path1538" d="m -75.0923,32.3001 .1336,-3.588 68.341,-2.2289 -68.4746,5.817 z "/>
</g>
<g style="stroke:#000" id="g29">
<path style="fill:#503525;stroke-width:.053" id="path7142" d="m -12.1627,26.9678 .8685,-.7617 .5199,-.7835 4.1753,-.238 -.2191,2.9605 -4.5429,-.1385 -.8017,-1.0387 z "/>
</g>
<g id="g33">
<path style="fill:#fff" id="path10257" d="m -69.2222,26.5523 c 1.0024,0.620891 4.36884,-0.09422 6.26862,0.06925 3.73379,0.32128 11.2667,0.0939 11.3081,-0.06925 0.04055,-0.160017 -7.46565,-0.08971 -11.0623,-0.900249 -3.57336,-0.805294 -6.96513,-2.6315 -10.4477,-3.94724 0,0 -1.78226,4.08574 -1.53643,4.08574 0.245834,0 5.2755,0.641472 5.46968,0.761749 z"/>
<path style="fill:#28b433" id="path1821" d="m -75.4915,56.2475 43.3355,-7.2707 c 7.95,-2.95966 5.70117,-2.52604 11.4725,-6.19005 3.38671,-3.27052 7.0523,-0.458909 13.8655,-6.8152 l -.1336,20.2232 c 0,0 -70.549,0.108989 -68.5398,0.05275 z "/>
</g>
</g>
</g>
<path style="fill:#fff" id="path3174" d="m -111.7493,20.4163 c -1.88391,0 -3.3125,1.42938 -3.3125,3.3125 v 65.3752 c 0,1.88312 1.42859,3.3125 3.3125,3.3125 h 75.3748 c 1.88391,0 3.3125,-1.42938 3.3125,-3.3125 v -65.3752 c 0,-1.88312 -1.42859,-3.3125 -3.3125,-3.3125 z  m 2.6875,6 h 70 v 60 h -70 z "/>
</g>
</svg>
