<svg width="48" version="1.1" xmlns="http://www.w3.org/2000/svg" height="48">
<g id="g873" transform="matrix(1.0769164,0,0,1.1429884,-1.7632545,-3.4753608)">
<path style="fill:#f1c40f" id="rect4090" d="m 4.4455,5.6842 v 36.6677 h 38.2886 v -26.5841 l -12.3875,-10.0836 Z "/>
<g style="stroke-linecap:square;stroke-linejoin:bevel;fill-rule:evenodd;stroke-width:0;stroke:#003bc3">
<path style="fill:#27ae60" id="shape0" d="m 26.0589,5.7047 h 4.74897 l 12.6154,.0568 v 36.6496 h -5.8884 l -1.2745,-3.7867 c 2.31857,-1.89535 3.48921,-2.82735 3.51189,-2.796 0.0228,0.03135 -0.491995,-1.76546 -1.54403,-5.39043 l -4.749,-1.8904 -2.3744,-2.7963 .371,-3.1705 -2.9681,-.9845 -.7668,-2.816 .8904,-4.7261 -2.7702,-3.6233 z "/>
<path style="fill:#2980b9" id="shape1" d="m 15.2668,5.6786 h 7.69553 l -3.5816,4.6341 -.1484,4.4505 3.5616,3.8991 -2.0282,5.12 1.5336,5.435 6.2331,3.9588 3.4132,4.1544 2.325,5.0412 -10.1377,-.0298 -3.2683,-6.1536 -6.5074,-1.6302 -5.7113,-3.923 -4.2048,-.8665 v -2.52063 l 4.8479,.8665 5.1942,3.3477 6.5298,1.6148 -5.1447,-4.3322 -.742,-4.7655 .8904,-4.6474 -3.7163,-4.4873 .7313,-4.5829 z "/>
<path style="fill:#27ae60" id="shape2" d="m 4.4617,42.3369 v -36.6443 l 4.679,-.0272 .3688,4.5286 -2.4431,7.2591 4.8574,6.6983 1.2237,3.9631 -5.2931,-3.5446 -3.3763,.5415 -.0552,10.2821 c 2.96916,-0.08278 4.47572,-0.106703 4.5197,-0.07168 0.065952,0.05253 1.76437,0.367593 5.09523,0.945201 l 1.583,1.8904 3.3639,.6302 .6925,2.2055 -1.5625,1.3439 z "/>
</g>
</g>
<g style="stroke-width:0;stroke:#003bc3;stroke-linecap:square;fill-rule:evenodd" id="g867">
<path style="fill:#e74c3c;stroke-linejoin:bevel" id="shape3" d="m 34.7159,25.6134 c 3.40559,0.01995 4.99693,1.42494 4.99626,3.78093 -0.0191,2.02618 -1.67669,4.86105 -5.19503,8.93862 -3.30176,-3.88467 -4.69844,-6.7189 -4.79758,-8.74169 0.127829,-2.59218 1.59076,-3.99781 4.99635,-3.97785 z "/>
<path style="fill:#ecf0f1;stroke-miterlimit:2.013" id="shape4" d="m 34.5833,27.3217 c -1.45408,0.03698 -2.59978,1.03167 -2.56632,2.22804 0.03346,1.19637 1.23357,2.14667 2.68816,2.12861 1.45459,-0.01808 2.61831,-1.03217 2.60783,-2.22883 -0.05643,-1.1958 -1.27561,-2.1648 -2.72967,-2.12782 Z "/>
</g>
<g style="fill-rule:evenodd;stroke:#003bc3;stroke-linecap:square;stroke-width:0" id="g4214" transform="matrix(1.0733235,0,0,1.0528776,54.927059,14.975673)">
<rect width="7.4251237" x="-44.688305" y="-11.380642" height="21.617744" style="fill:#34495e;stroke-miterlimit:2.013" id="shape0-4"/>
<g style="fill:#fff" id="g30">
<rect width="4.4549632" x="-44.652218" y="-11.374231" height="1.6002752" style="stroke-miterlimit:2.013" id="shape1-7"/>
<g style="stroke-miterlimit:2" id="g28">
<rect width="4.4549632" x="-41.692238" y="-9.7737942" height="1.6002752" id="shape2-2"/>
<rect width="4.4549632" x="-44.651997" y="-8.1706581" height="1.6002752" id="shape3-0"/>
<rect width="4.4549632" x="-41.691925" y="-6.57021" height="1.6002752" id="shape4-7"/>
<rect width="4.4549632" x="-44.656391" y="-4.9655404" height="1.6002752" id="shape5"/>
<rect width="4.4549632" x="-41.696476" y="-3.3651414" height="1.6002752" id="shape6"/>
<rect width="4.4549632" x="-44.656391" y="-1.7620358" height="1.6002752" id="shape7"/>
<rect width="4.4549632" x="-41.696476" y="-0.16153865" height="1.6002752" id="shape8"/>
<rect width="4.4549632" x="-44.68605" y="1.441668" height="1.6002752" id="shape9"/>
<rect width="4.4549632" x="-41.726292" y="3.0420651" height="1.6002752" id="shape10"/>
<rect width="4.4549632" x="-44.68605" y="4.6452718" height="1.6002752" id="shape11"/>
<rect width="4.4549632" x="-41.725979" y="6.2456689" height="1.6002752" id="shape12"/>
<rect width="4.4549632" x="-44.690445" y="7.8503785" height="1.6002752" id="shape13"/>
<rect width="7.4139357" x="-44.675064" y="9.5816936" height="10.665484" id="shape17"/>
</g>
</g>
<rect width="4.3457713" x="-43.112942" y="16.246485" height="2.5231194" style="fill:#2c3e50;stroke-miterlimit:2" id="shape18"/>
</g>
</svg>
