<?xml version="1.0" encoding="UTF-8" standalone="no"?>
<!-- Created using Karbon, part of Calligra: http://www.calligra.org/karbon -->

<svg
   xmlns:dc="http://purl.org/dc/elements/1.1/"
   xmlns:cc="http://creativecommons.org/ns#"
   xmlns:rdf="http://www.w3.org/1999/02/22-rdf-syntax-ns#"
   xmlns:svg="http://www.w3.org/2000/svg"
   xmlns="http://www.w3.org/2000/svg"
   xmlns:sodipodi="http://sodipodi.sourceforge.net/DTD/sodipodi-0.dtd"
   xmlns:inkscape="http://www.inkscape.org/namespaces/inkscape"
   width="38.4pt"
   height="38.4pt"
   id="svg2"
   version="1.1"
   inkscape:version="0.48.4 r9939"
   sodipodi:docname="application-x-perl.svg">
  <metadata
     id="metadata13">
    <rdf:RDF>
      <cc:Work
         rdf:about="">
        <dc:format>image/svg+xml</dc:format>
        <dc:type
           rdf:resource="http://purl.org/dc/dcmitype/StillImage" />
      </cc:Work>
    </rdf:RDF>
  </metadata>
  <sodipodi:namedview
     pagecolor="#ffffff"
     bordercolor="#666666"
     borderopacity="1"
     objecttolerance="10"
     gridtolerance="10"
     guidetolerance="10"
     inkscape:pageopacity="0"
     inkscape:pageshadow="2"
     inkscape:window-width="1366"
     inkscape:window-height="709"
     id="namedview11"
     showgrid="false"
     inkscape:zoom="13.959783"
     inkscape:cx="28.375061"
     inkscape:cy="23.651461"
     inkscape:current-layer="svg2"
     inkscape:window-x="0"
     inkscape:window-y="-3"
     inkscape:window-maximized="1" />
  <defs
     id="defs4" />
  <path
     sodipodi:nodetypes="cccccc"
     style="fill:#d38d5f"
     inkscape:connector-curvature="0"
     d="m 4.5358118,5.6403551 0,36.7166889 38.9180152,0 0.082,-36.7457779 -12.673118,0.029089 z"
     id="rect4090" />
  <path
     style="fill:#34495e;fill-rule:evenodd"
     inkscape:connector-curvature="0"
     d="m 19.590433,35.14809 c 0.01556,-0.02377 0.02319,-0.03809 0.03978,-0.0638 0.147682,-0.228561 0.320581,-0.509719 0.387795,-0.629966 0.124492,-0.222871 0.305701,-0.748837 0.357966,-1.036696 0.123415,-0.679993 0.135869,-0.857977 0.07955,-1.076441 -0.01663,-0.06453 -0.03772,-0.379467 -0.04972,-0.701748 -0.01782,-0.477409 -0.02546,-0.624826 -0.06961,-0.765543 -0.06773,-0.215894 -0.119398,-0.47695 -0.119318,-0.685776 3.4e-5,-0.255365 -0.04666,-0.712304 -0.109382,-1.012738 -0.08468,-0.405628 -0.08552,-1.127294 0,-1.507128 0.07004,-0.311266 0.05302,-0.441151 -0.06961,-0.582144 -0.179733,-0.206623 -0.372835,-0.228653 -0.855132,-0.103632 -1.389625,0.340363 -2.834937,-0.530189 -3.649285,-1.363566 -0.540938,-0.723916 -1.321015,-1.183324 -1.402033,-2.049425 -0.06132,-0.706677 -0.175944,-1.303406 -0.139201,-2.025449 -0.03005,-0.660074 0.486338,-1.117031 0.676155,-1.778253 -0.120566,-0.624276 -1.072436,-0.467358 -1.630737,-0.677818 -0.276854,-0.120375 -0.415944,-0.342208 -0.357965,-0.566171 0.06948,-0.268427 0.384969,-0.642689 0.646328,-0.765525 0.546363,-0.203933 1.167552,-0.124442 1.750052,-0.239227 0.48778,-0.10042 0.686284,-0.17412 0.984408,-0.390739 0.445279,-0.323545 0.557958,-0.373661 0.95459,-0.374788 1.774753,0.09362 2.391054,1.695056 2.555483,2.894654 0.06654,0.910969 -0.410631,1.685269 -0.676166,2.543778 -0.110413,0.354784 0.232283,0.862393 0.666219,0.4944 0.28148,-0.703327 0.330677,-1.243916 0.89492,-1.86597 0.558301,-0.598702 1.022307,-0.956782 1.590957,-1.228036 0.457996,-0.241485 0.913726,-0.517145 1.272767,-0.85324 0.191706,-0.217611 0.561805,-0.697333 0.646326,-0.845274 0.337041,-0.667472 1.122269,-1.106686 1.938975,-1.36359 0.527912,-0.149284 1.040485,-0.354458 1.590946,-0.446558 0.743334,-0.03149 1.268269,-0.07291 1.929074,0.175433 0.521502,0.162717 0.855166,0.515835 1.213098,0.837293 0.380023,0.450817 0.599223,1.06606 0.855166,1.586877 0.17742,0.437351 0.371324,0.727633 0.69606,1.020706 0.20844,0.188154 0.485788,0.495959 0.676143,0.749571 0.551949,1.131709 1.106989,1.974486 2.068149,2.934526 0.513718,0.44888 0.616508,0.672035 0.616508,1.267901 0.146286,0.917375 0.135526,1.604712 -0.129231,2.535847 -0.03194,0.06765 -0.215194,0.311449 -0.407724,0.542214 -0.283872,0.340363 -0.366287,0.421783 -0.447442,0.454552 -0.06547,0.02634 -0.122935,0.04112 -0.16895,0.03185 -0.105995,-0.0213 -0.24175,-0.140533 -0.278493,-0.247195 -0.04601,-0.133741 0.01671,-0.317967 0.19894,-0.574157 0.306765,-0.413338 0.469534,-0.892583 0.367889,-1.371552 -0.07852,-0.346881 -0.04705,-0.70441 -0.109428,-1.052594 -0.101873,-0.375493 -0.250105,-0.582116 -0.407609,-0.582116 -0.17204,0 -0.302645,0.240274 -0.517152,0.909096 l -0.139189,1.235976 c -0.01133,1.011086 0.02278,1.799944 0.08951,2.01749 0.06708,0.21874 0.0673,0.904149 0,1.196138 -0.06216,0.269684 -0.04476,0.385066 0.08951,0.637953 0.135641,0.255548 0.179138,0.429493 0.159106,0.725613 -0.0174,0.254814 -0.05414,0.36478 -0.179023,0.613995 -0.139303,0.278037 -0.163341,0.385709 -0.188867,0.813366 -0.01339,0.222687 -0.04762,0.462263 -0.06971,0.53432 -0.126827,0.414715 -0.10794,0.512381 0.139304,1.124357 0.155329,0.384791 0.247931,0.746542 0.208784,0.797394 -0.01625,0.225257 0.07223,0.454737 0.0098,0.677882 -0.01259,0.03626 -24.6521819,0.342383 -14.179333,-0.526333 z m 11.246059,-8.970989 c -0.183144,0 -0.283529,0.100512 -0.49712,0.454461 -0.373728,0.52771 -0.645353,1.012554 -0.715977,1.626825 -0.08528,0.512106 -0.122478,1.013747 -0.119273,1.530994 l 0,0.725705 -0.07955,0.127591 c -0.04808,0.07086 -0.189324,0.220208 -0.318212,0.32687 -0.160937,0.133281 -0.266817,0.241045 -0.338129,0.35092 -0.190125,0.293182 -0.312946,0.450238 -0.546798,0.701747 -0.261208,0.280699 -0.488192,0.611058 -0.536954,0.797395 -0.04018,0.152925 -0.0093,0.311174 0.0894,0.430595 0.0372,0.04498 0.157847,0.141267 0.268534,0.215343 0.327599,0.219199 0.437256,0.36322 0.517038,0.7336 0.0348,0.161461 0.03571,0.225532 0.01,0.366799 -0.05288,0.289971 -0.167462,0.466119 -0.338129,0.542306 1.273192,0.09427 2.556571,0.240127 3.848191,0.422609 0.01854,-0.06012 0.04808,-0.127774 0.0894,-0.199372 0.161967,-0.28024 0.192873,-0.348349 0.238659,-0.629966 0.04762,-0.292265 0.10359,-0.460611 0.348087,-1.036604 0.166661,-0.392777 0.172613,-0.42472 0.188867,-0.669896 0.02782,-0.419213 -0.0042,-1.042479 -0.06959,-1.259933 -0.08596,-0.286023 -0.109085,-0.508985 -0.109314,-1.068548 -2.28e-4,-0.379834 -0.0087,-0.562224 -0.03983,-0.693761 -0.05872,-0.248481 -0.250106,-0.655669 -0.477318,-1.020724 -0.239346,-0.384608 -0.313634,-0.522571 -0.417568,-0.829247 -0.170552,-0.430595 -0.444237,-0.816763 -0.526995,-1.267919 -0.07234,-0.459693 -0.221719,-0.67779 -0.46736,-0.67779 z m -3.360914,0.940957 c -0.03915,-0.0021 -0.07612,0.0098 -0.129231,0.03185 -0.11103,0.04608 -0.172269,0.147693 -0.308253,0.558185 -0.147202,0.44418 -0.205464,0.574341 -0.328171,0.71772 -0.342593,0.400212 -0.344424,0.406821 -0.427526,0.797394 -0.09169,0.430962 -0.10153,0.446292 -0.467359,0.749572 -0.176734,0.146499 -0.416308,0.336875 -0.526996,0.4227 -0.253539,0.196251 -0.348202,0.350369 -0.348087,0.558186 2.29e-4,0.1588 0.0309,0.23361 0.278493,0.590037 0.217826,0.313561 0.298066,0.399294 0.487162,0.558186 0.176733,0.148519 0.543822,0.376713 0.745737,0.462538 0.14663,0.06233 0.294633,0.07077 0.407724,0.02387 0.115266,-0.04773 0.230646,-0.169631 0.338129,-0.350828 0.05403,-0.09106 0.188523,-0.286849 0.298295,-0.438581 0.359534,-0.497144 0.452937,-0.731396 0.487162,-1.259933 0.01225,-0.187622 0.03113,-0.447944 0.04979,-0.574157 0.03606,-0.245176 0.01614,-0.471902 -0.109428,-1.196138 -0.02839,-0.164032 -0.07417,-0.547446 -0.109314,-0.853204 -0.06753,-0.585815 -0.09661,-0.672558 -0.218857,-0.749572 -0.04315,-0.02735 -0.08001,-0.04571 -0.119272,-0.04791 z m -4.325417,0.271061 c -0.185307,0.01597 -0.283827,0.06545 -0.397731,0.159442 -0.202453,0.167153 -0.298031,0.409483 -0.328136,0.877254 -0.02582,0.401038 -0.04861,0.468413 -0.3182,0.909013 -0.19831,0.324208 -0.245596,0.471259 -0.348019,0.964915 -0.05154,0.248572 -0.06491,0.344769 -0.05966,0.813366 0.0058,0.515319 0.004,0.549465 -0.05966,0.725614 -0.0364,0.100787 -0.143825,0.315671 -0.238647,0.47851 -0.208452,0.357804 -0.24286,0.460335 -0.278413,0.813366 -0.01516,0.150263 -0.05231,0.390482 -0.0895,0.534228 -0.04108,0.158892 -0.07528,0.389381 -0.08949,0.590129 -0.01507,0.213508 -0.08671,0.519449 -0.159094,0.805381 1.262271,-0.07766 2.520994,-0.112904 3.778493,-0.103633 -0.02209,-0.0403 -0.04121,-0.07885 -0.02976,-0.127591 0.02804,-0.120155 0.167462,-0.21415 0.536954,-0.358905 0.26842,-0.105102 0.36148,-0.155495 0.49712,-0.263075 0.264643,-0.209836 0.448015,-0.528904 0.447558,-0.781515 -0.04521,-0.345779 -0.404977,-0.609864 -0.656341,-0.877162 -0.236713,-0.253987 -0.629213,-0.559103 -0.974439,-0.757557 -0.3565,-0.204787 -0.692706,-0.435919 -0.805419,-0.558185 -0.05083,-0.05517 -0.116308,-0.165134 -0.149159,-0.247195 -0.05505,-0.137413 -0.06001,-0.184594 -0.05966,-0.645939 3.2e-4,-0.574341 0.0067,-0.604632 0.248583,-0.948943 0.189771,-0.270051 0.26399,-0.464099 0.298306,-0.80538 0.01564,-0.155679 0.06221,-0.389381 0.09944,-0.518348 0.08301,-0.287675 0.07184,-0.419396 -0.02983,-0.526242 -0.108467,-0.114005 -0.265604,-0.152282 -0.616495,-0.151548 -0.08329,1.83e-4 -0.156989,-0.0053 -0.218754,0 z m 3.838255,7.057223 c -0.100042,-0.0069 -0.177649,0.07793 -0.278493,0.247195 -0.08619,0.144847 -0.192186,0.237649 -0.338014,0.31099 0.459004,0.01854 0.911941,0.04167 1.372203,0.07178 -0.126025,-0.06646 -0.25434,-0.172384 -0.387806,-0.334948 -0.153383,-0.186704 -0.267848,-0.288134 -0.36789,-0.295018 z"
     id="path2518" />
</svg>
