<svg width="48" version="1.1" xmlns="http://www.w3.org/2000/svg" height="48">
<path style="fill:#906b38" d="M 3,3 V 45 H 45 V 3 Z"/>
<g style="fill-rule:evenodd" transform="translate(0,-1.507)">
<rect width="7.9695606" x="20.002359" y="4.5075564" height="18.793396" style="fill:#34495e"/>
<g style="fill:#ecf0f1" transform="matrix(1.4683729,0,0,1.025597,-11.238691,-2.7746832)">
<rect width="3.2564054" x="23.465931" y="7.1004887" height="1.4654016"/>
<rect width="3.2564054" x="21.302462" y="8.5685101" height="1.4654016"/>
<rect width="3.2564054" x="23.46616" y="10.03407" height="1.4654016"/>
<rect width="3.2564054" x="21.29925" y="11.503496" height="1.4654016"/>
<rect width="3.2564054" x="23.462833" y="12.96901" height="1.4654016"/>
<rect width="3.2564054" x="21.29925" y="14.437004" height="1.4654016"/>
<rect width="3.2564054" x="23.462833" y="15.902609" height="1.4654016"/>
<rect width="3.2564054" x="21.277571" y="17.370695" height="1.4654016"/>
<rect width="3.2564054" x="23.441038" y="18.836208" height="1.4654016"/>
<rect width="3.2564054" x="21.277571" y="20.304295" height="1.4654016"/>
<rect width="3.2564054" x="23.441269" y="21.769808" height="1.4654016"/>
<rect width="3.2564054" x="21.274359" y="23.239271" height="1.4654016"/>
<rect width="5.4192996" x="21.285601" y="24.824669" height="9.7665815"/>
</g>
<rect width="4.6644192" x="21.693239" y="23.685429" height="2.3696082" style="fill:#2c3e50"/>
</g>
<g>
<path style="fill:#fff" d="m 24.683,40.9874 v -1.07517 l 3.573,-3.9138 h -3.16932 v -0.998657 h 4.97903 v 0.926174 l -3.7262,4.0668 h 3.87 v 0.99463 z "/>
<path style="fill:#fff" d="m 32.1323,39.5098 c 0.192445,0.578524 0.628119,0.650468 1.05335,0.672482 0.351885,0.01822 0.937074,-0.08066 0.932698,-0.463087 -0.003,-0.261745 -0.3142,-0.322617 -0.52899,-0.362416 -0.584775,-0.108352 -1.71845,-0.385234 -2,-0.551677 -0.389784,-0.230873 -0.584676,-0.551678 -0.584676,-0.962416 0,-0.370469 0.168598,-0.681878 0.505792,-0.934227 0.337194,-0.252348 0.86,-0.378523 1.56842,-0.378523 0.674389,0 1.17554,0.0953 1.50345,0.285906 0.327914,0.190604 0.553742,0.472483 0.677483,0.845637 l -1.2297,.1973 c -0.190715,-0.48103 -0.568528,-0.493281 -0.928058,-0.515436 -0.320873,-0.01977 -0.893589,0.05537 -0.886295,0.354362 0.0083,0.341701 0.970706,0.435941 1.34568,0.523489 0.696043,0.136913 1.18173,0.304698 1.45705,0.503356 0.272231,0.201342 0.408346,0.481879 0.408346,0.84161 0,0.391945 -0.188705,0.728858 -0.566116,1.01074 -0.37741,0.281878 -0.935792,0.422818 -1.67514,0.422818 -0.671295,0 -1.20338,-0.11812 -1.59626,-0.354362 -0.389784,-0.236242 -0.645,-0.557047 -0.765647,-0.962415 z "/>
<path style="fill:#fff" d="m 39.0433,36.6266 v 0.902013 h -0.890935 v 1.72349 c 0,0.348993 0.0017,0.443054 0.0232,0.61208 0.01564,0.123051 0.224232,0.195871 0.338741,0.197314 0.17906,0.0022 0.295432,-0.03624 0.524353,-0.108725 l .1114,.8779 c -0.303165,0.112752 -0.681486,0.164565 -1.03014,0.169128 -0.415307,0.0054 -0.838854,-0.08051 -1.05335,-0.366443 -0.250953,-0.334537 -0.205839,-0.868982 -0.222735,-1.24027 v -1.86443 h -0.598598 v -0.902013 h 0.598598 v -0.849663 l 1.3086,-.6604 v 1.51006 z "/>
<path style="fill:#fff" d="m 8.85,35.054581 h 5.37504 v 1.1367 h -1.933614 v 4.6953 h -1.503912 v -4.6953 H 8.85 Z"/>
<path style="fill:#fff" d="m 15.7676,36.4062 c -0.302085,0 -0.604165,0.019534 -0.90625,0.058594 -0.302085,0.036458 -0.602862,0.091146 -0.902344,0.164062 v 1.06641 c 0.221356,-0.119793 0.460935,-0.209637 0.71875,-0.269531 0.257814,-0.059893 0.536457,-0.089843 0.835938,-0.089843 0.369795,0 0.641926,0.052083 0.816406,0.15625 0.174481,0.101562 0.261719,0.26302 0.261719,0.484374 v 0.109376 h -0.824219 c -0.755212,0 -1.30989,0.119791 -1.66406,0.359374 -0.351565,0.239587 -0.527344,0.615886 -0.527344,1.12891 0,0.421875 0.140623,0.765625 0.421875,1.03125 0.283857,0.263021 0.652341,0.394531 1.10547,0.394531 0.335938,0 0.621091,-0.059896 0.855468,-0.179688 0.234377,-0.122396 0.445312,-0.316406 0.632813,-0.582031 v 0.648438 h 1.41016 v -2.49609 c 0,-0.700518 -0.175779,-1.20573 -0.527344,-1.51562 -0.348963,-0.3125 -0.917966,-0.46875 -1.70703,-0.46875 z  m .0977,2.5117 h 0.726563 v 0.160156 c 0,0.283854 -0.089843,0.520834 -0.269531,0.710937 -0.179689,0.1875 -0.40104,0.28125 -0.664063,0.28125 -0.210939,0 -0.376302,-0.049479 -0.496094,-0.148437 -0.117188,-0.101563 -0.175781,-0.240885 -0.175781,-0.417969 0,-0.192708 0.072917,-0.338542 0.21875,-0.4375 0.148439,-0.098958 0.368488,-0.148437 0.660156,-0.148437 z "/>
<path style="fill:#fff" d="m 22.5609,37.703 q -0.183594,-0.08594 -0.367191,-0.125 -0.179689,-0.04297 -0.363282,-0.04297 -0.539067,0 -0.832039,0.347656 -0.289064,0.34375 -0.289064,0.988281 v 2.01562 h -1.39845 v -4.375 h 1.39845 v 0.71875 q 0.269533,-0.429687 0.617191,-0.625 0.351566,-0.199218 0.83985,-0.199218 0.07031,0 0.152345,0.0078 0.08203,0.0039 0.238283,0.02344 l .0039,1.2656 z "/>
</g>
</svg>
