<svg width="48" version="1.1" xmlns="http://www.w3.org/2000/svg" height="48">
<path style="fill:#f1c40f" id="rect4090" d="m 4.5,5.6271 0,36.7458 39,0 -.2333,-36.7302 -12.3843,-.0156 z "/>
<g style="fill:#fff" id="logo" transform="matrix(1.1470591,0,0,0.91864444,9.1409482,16.753549)">
<g id="g2990">
<path id="j" d="m 0,13.0348 2.8098,-1.6031 c 0.54207,0.9061 1.03518,1.6727 2.21794,1.6727 1.13374,0 1.84853,-0.4181 1.84853,-2.0444 v -11.06 h 3.45027 v 11.106 c 0,3.369 -2.09471,4.9026 -5.15092,4.9026 -2.76015,0 -4.3623,-1.3477 -5.17558,-2.9741" transform="translate(0.852584,3.42314)"/>
<path id="s" d="m 0,12.8722 2.8094,-1.5336 c 0.73955,1.1387 1.70071,1.9751 3.40121,1.9751 1.42965,0 2.34128,-0.6739 2.34128,-1.6033 0,-1.1153 -0.93647,-1.5103 -2.51385,-2.16068 L 5.17566,9.20097 C 2.68628,8.20204 1.03496,6.94736 1.03496,4.29857 1.03496,1.85892 3.0066,0 6.08743,0 8.28089,0 9.8582,0.720367 10.9918,2.60243 L 8.30537,4.2288 C 7.71384,3.2298 7.07321,2.83483 6.08743,2.83483 c -1.01048,0 -1.65133,0.6041 -1.65133,1.39397 0,0.97592 0.64085,1.37095 2.11945,1.97512 l 0.86253,0.34847 c 2.93282,1.18504 4.58422,2.39316 4.58422,5.11151 0,2.9278 -2.43993,4.5309 -5.71775,4.5309 C 3.08061,16.1948 1.01033,14.7543 0,12.8722" transform="translate(13.0532,3.23724)"/>
</g>
</g>
</svg>
