<svg width="48" version="1.1" xmlns="http://www.w3.org/2000/svg" height="48">
<path style="fill:#bb5cde" id="rect4090" d="M 3,3 V 45 H 45 V 3 Z"/>
<g style="stroke:#003bc3;fill-rule:evenodd;stroke-linecap:square;stroke-width:0" id="g888" transform="translate(0,-1.507)">
<rect width="7.9695606" x="20.002359" y="4.5075564" height="18.793396" style="fill:#34495e;stroke-miterlimit:2.013" id="shape0"/>
<g style="stroke-miterlimit:2" id="g19">
<g style="fill:#ecf0f1" id="g10" transform="matrix(1.4683729,0,0,1.025597,-11.238691,-2.7746832)">
<rect width="3.2564054" x="23.465931" y="7.1004887" height="1.4654016" id="shape2"/>
<rect width="3.2564054" x="21.302462" y="8.5685101" height="1.4654016" id="shape3"/>
<rect width="3.2564054" x="23.46616" y="10.03407" height="1.4654016" id="shape4"/>
<rect width="3.2564054" x="21.29925" y="11.503496" height="1.4654016" id="shape5"/>
<rect width="3.2564054" x="23.462833" y="12.96901" height="1.4654016" id="shape6"/>
<rect width="3.2564054" x="21.29925" y="14.437004" height="1.4654016" id="shape7"/>
<rect width="3.2564054" x="23.462833" y="15.902609" height="1.4654016" id="shape8"/>
<rect width="3.2564054" x="21.277571" y="17.370695" height="1.4654016" id="shape9"/>
<rect width="3.2564054" x="23.441038" y="18.836208" height="1.4654016" id="shape10"/>
<rect width="3.2564054" x="21.277571" y="20.304295" height="1.4654016" id="shape11"/>
<rect width="3.2564054" x="23.441269" y="21.769808" height="1.4654016" id="shape12"/>
<rect width="3.2564054" x="21.274359" y="23.239271" height="1.4654016" id="shape13"/>
<rect width="5.4192996" x="21.285601" y="24.824669" height="9.7665815" id="shape17"/>
</g>
<rect width="4.6644192" x="21.693239" y="23.685429" height="2.3696082" style="fill:#2c3e50" id="shape18"/>
</g>
</g>
<g style="fill:#fff" id="g1656" transform="translate(1.1e-5,-0.648875)">
<path id="path4157-1" d="m 24.3594,41.102 q -0.5625,0.273438 -1.16797,0.410157 -0.605469,0.136718 -1.25,0.136718 -1.45703,0 -2.30859,-0.8125 -0.851562,-0.816406 -0.851562,-2.21094 0,-1.41016 0.867187,-2.21875 0.867188,-0.808594 2.375,-0.808594 0.582032,0 1.11328,0.109375 0.535156,0.109375 1.00781,0.324219 v 1.20703 q -0.488281,-0.277344 -0.972656,-0.414062 -0.480469,-0.136719 -0.964844,-0.136719 -0.898437,0 -1.38672,0.503906 -0.484375,0.5 -0.484375,1.43359 0,0.925781 0.46875,1.42969 0.46875,0.503907 1.33203,0.503907 0.234375,0 0.433593,-0.02734 0.203125,-0.03125 0.363282,-0.09375 v -1.13281 h -0.917969 v -1.00781 h 2.34375 v 2.80469 z"/>
<path id="path4159-5" d="m 25.4023,37.1606 h 3.8164 v 0.9766 l -2.3047,2.3984 h 2.3047 v 1 H 25.3046 V 40.559 l 2.3047,-2.3984 h -2.207 z"/>
</g>
</svg>
