<svg width="48" version="1.1" xmlns="http://www.w3.org/2000/svg" height="48">
<path style="fill:#a5be4d" id="rect4090" d="m 4.5,5.6271 0,36.7458 39,0 0,-36.6755 -12.6176,-.0703 z "/>
<path id="path4164" d="m 16.0449,34.4863 4.9023,0 0,.9102 -3.1289,3.7852 3.2188,0 0,1.1367 -5.082,0 0,-.9102 3.1289,-3.7852 -3.0391,0 0,-1.1367 z "/>
<path id="path4166" d="m 24.1465,36.8379 q -0.464843,0 -0.710937,0.335937 -0.242188,0.332031 -0.242188,0.960938 0,0.628906 0.242188,0.964843 0.246094,0.332032 0.710937,0.332032 0.457032,0 0.699219,-0.332032 0.242188,-0.335937 0.242188,-0.964843 0,-0.628907 -0.242188,-0.960938 -0.242187,-0.335937 -0.699219,-0.335937 z  m 0,-1 q 1.12891,0 1.76172,0.609375 0.636719,0.609375 0.636719,1.6875 0,1.07812 -0.636719,1.6875 -0.632812,0.609375 -1.76172,0.609375 -1.13281,0 -1.77344,-0.609375 -0.636719,-0.609375 -0.636719,-1.6875 0,-1.07812 0.636719,-1.6875 0.640625,-0.609375 1.77344,-0.609375 z "/>
<path id="path4168" d="m 29.6465,36.8379 q -0.464843,0 -0.710937,0.335937 -0.242188,0.332031 -0.242188,0.960938 0,0.628906 0.242188,0.964843 0.246094,0.332032 0.710937,0.332032 0.457032,0 0.699219,-0.332032 0.242188,-0.335937 0.242188,-0.964843 0,-0.628907 -0.242188,-0.960938 -0.242187,-0.335937 -0.699219,-0.335937 z  m 0,-1 q 1.12891,0 1.76172,0.609375 0.636719,0.609375 0.636719,1.6875 0,1.07812 -0.636719,1.6875 -0.632812,0.609375 -1.76172,0.609375 -1.13281,0 -1.77344,-0.609375 -0.636719,-0.609375 -0.636719,-1.6875 0,-1.07812 0.636719,-1.6875 0.640625,-0.609375 1.77344,-0.609375 z "/>
<g id="g3029" transform="matrix(1.1014812,0,0,0.87924401,-2.4353929,0.4284223)">
<rect width="5.4274774" x="21.275965" y="5.6290684" height="19.795769" style="fill:#34495e;fill-rule:evenodd;stroke:#003bc3;stroke-linecap:square;stroke-width:0;stroke-miterlimit:2.013" id="shape0"/>
<rect width="3.2564054" x="21.302347" y="5.6349387" height="1.4654016" style="fill:#ecf0f1;fill-rule:evenodd;stroke:#003bc3;stroke-linecap:square;stroke-width:0;stroke-miterlimit:2.013" id="shape1"/>
<rect width="3.2564054" x="23.465931" y="7.1004887" height="1.4654016" style="fill:#ecf0f1;fill-rule:evenodd;stroke:#003bc3;stroke-linecap:square;stroke-width:0;stroke-miterlimit:2" id="shape2"/>
<rect width="3.2564054" x="21.302462" y="8.5685101" height="1.4654016" style="fill:#ecf0f1;fill-rule:evenodd;stroke:#003bc3;stroke-linecap:square;stroke-width:0;stroke-miterlimit:2" id="shape3"/>
<rect width="3.2564054" x="23.46616" y="10.03407" height="1.4654016" style="fill:#ecf0f1;fill-rule:evenodd;stroke:#003bc3;stroke-linecap:square;stroke-width:0;stroke-miterlimit:2" id="shape4"/>
<rect width="3.2564054" x="21.29925" y="11.503496" height="1.4654016" style="fill:#ecf0f1;fill-rule:evenodd;stroke:#003bc3;stroke-linecap:square;stroke-width:0;stroke-miterlimit:2" id="shape5"/>
<rect width="3.2564054" x="23.462833" y="12.96901" height="1.4654016" style="fill:#ecf0f1;fill-rule:evenodd;stroke:#003bc3;stroke-linecap:square;stroke-width:0;stroke-miterlimit:2" id="shape6"/>
<rect width="3.2564054" x="21.29925" y="14.437004" height="1.4654016" style="fill:#ecf0f1;fill-rule:evenodd;stroke:#003bc3;stroke-linecap:square;stroke-width:0;stroke-miterlimit:2" id="shape7"/>
<rect width="3.2564054" x="23.462833" y="15.902609" height="1.4654016" style="fill:#ecf0f1;fill-rule:evenodd;stroke:#003bc3;stroke-linecap:square;stroke-width:0;stroke-miterlimit:2" id="shape8"/>
<rect width="3.2564054" x="21.277571" y="17.370695" height="1.4654016" style="fill:#ecf0f1;fill-rule:evenodd;stroke:#003bc3;stroke-linecap:square;stroke-width:0;stroke-miterlimit:2" id="shape9"/>
<rect width="3.2564054" x="23.441038" y="18.836208" height="1.4654016" style="fill:#ecf0f1;fill-rule:evenodd;stroke:#003bc3;stroke-linecap:square;stroke-width:0;stroke-miterlimit:2" id="shape10"/>
<rect width="3.2564054" x="21.277571" y="20.304295" height="1.4654016" style="fill:#ecf0f1;fill-rule:evenodd;stroke:#003bc3;stroke-linecap:square;stroke-width:0;stroke-miterlimit:2" id="shape11"/>
<rect width="3.2564054" x="23.441269" y="21.769808" height="1.4654016" style="fill:#ecf0f1;fill-rule:evenodd;stroke:#003bc3;stroke-linecap:square;stroke-width:0;stroke-miterlimit:2" id="shape12"/>
<rect width="3.2564054" x="21.274359" y="23.239271" height="1.4654016" style="fill:#ecf0f1;fill-rule:evenodd;stroke:#003bc3;stroke-linecap:square;stroke-width:0;stroke-miterlimit:2" id="shape13"/>
<rect width="5.4192996" x="21.285601" y="24.824669" height="9.7665815" style="fill:#ecf0f1;fill-rule:evenodd;stroke:#003bc3;stroke-linecap:square;stroke-width:0;stroke-miterlimit:2" id="shape17"/>
<rect width="3.1765904" x="22.427498" y="25.799717" height="2.3104672" style="fill:#2c3e50;fill-rule:evenodd;stroke:#003bc3;stroke-linecap:square;stroke-width:0;stroke-miterlimit:2" id="shape18"/>
</g>
</svg>
