<svg width="48" version="1.1" xmlns="http://www.w3.org/2000/svg" height="48">
<g transform="matrix(1.0769227,0,0,1.1429778,-1.8461448,-3.4315358)">
<rect width="39" x="4.5" y="5.6271744" height="36.745651" style="fill:#008deb"/>
<path style="fill:#fff;fill-rule:evenodd" d="m 28.3105,5.627 c 0.633013,2.46145 1.96666,4.98798 2.88672,6.7832 -0.98215,5.3357 -2.5655,10.6026 -4.57617,15.6719 -0.720772,1.81725 -1.54622,3.8595 -2.52148,5.88477 -4.44479,1.79041 -8.87988,3.84249 -12.5527,6.61328 -0.667166,0.503187 -1.38627,1.10418 -1.89844,1.79297 h 3.08984 c 0.296018,-0.279372 0.67809,-0.586007 1.03711,-0.857422 2.59548,-1.9575 5.65119,-3.44758 8.85742,-4.78906 -1.27575,2.16467 -2.76551,4.15885 -4.66406,5.64648 h 3.11914 c 1.45904,-1.48113 2.67781,-3.16813 3.65625,-4.6582 0.527156,-0.802698 1.04325,-1.61411 1.52539,-2.44727 1.2874,-0.485527 2.51155,-1 3.75391,-1.45703 4.23173,-1.55573 8.79936,-3.11247 13.373,-4.06055 0.03467,0.03186 0.0692,0.06075 0.103516,0.0918 v -5.08984 c -0.01463,-0.01723 -0.0303,-0.03558 -0.04492,-0.05273 -2.44236,-2.86648 -4.55476,-5.94259 -6.45117,-9.11328 -0.858175,-1.43657 -1.6592,-2.93494 -2.4043,-4.42578 0.08026,-0.44601 0.101804,-0.90992 0.175782,-1.35352 0.220922,-1.32394 0.473974,-2.74505 0.625,-4.17969 h -7.08984 z m 5.1152,11 c 2.24673,4.02105 4.89283,7.94827 8.15234,11.3516 -4.75347,1.17345 -9.36452,2.87552 -13.8418,4.58203 2.55858,-5.04793 4.38571,-10.4915 5.68945,-15.9336 z"/>
</g>
<g style="fill-rule:evenodd">
<path style="fill:#34495e" d="m 10,2.9918 h 8.9684 v 17.1488 h -8.9684 z "/>
<g style="fill:#ecf0f1">
<path d="m 13.6187,2.9918 h 5.38091 v 1.69127 h -5.38091 z "/>
<path d="m 10.0438,4.6861 h 5.38091 v 1.69127 h -5.38091 z "/>
<path d="m 13.6191,6.3776 h 5.38091 v 1.69127 h -5.38091 z "/>
<path d="m 10.0385,8.0735 h 5.38091 v 1.69127 h -5.38091 z "/>
<path d="m 13.6136,9.7649 h 5.38091 v 1.69127 h -5.38091 z "/>
<path d="m 10.0385,11.4592 h 5.38091 v 1.69127 h -5.38091 z "/>
<path d="m 13.6136,13.1507 h 5.38091 v 1.69127 h -5.38091 z "/>
<path d="m 10.0027,14.8451 h 5.38091 v 1.69127 h -5.38091 z "/>
<path d="m 13.5776,16.5365 h 5.38091 v 1.69127 h -5.38091 z "/>
<path d="m 10.0027,18.2308 h 5.38091 v 1.69128 h -5.38091 z "/>
<path d="m 10,20.047 h 9 v 11.272 h -9 z "/>
</g>
<path style="fill:#2c3e50" d="m 11.9028,21.1723 h 5.24902 v 2.6666 h -5.24902 z "/>
</g>
</svg>
