<?xml version="1.0" encoding="UTF-8" standalone="no"?>
<svg
   xmlns:dc="http://purl.org/dc/elements/1.1/"
   xmlns:cc="http://creativecommons.org/ns#"
   xmlns:rdf="http://www.w3.org/1999/02/22-rdf-syntax-ns#"
   xmlns:svg="http://www.w3.org/2000/svg"
   xmlns="http://www.w3.org/2000/svg"
   xmlns:sodipodi="http://sodipodi.sourceforge.net/DTD/sodipodi-0.dtd"
   xmlns:inkscape="http://www.inkscape.org/namespaces/inkscape"
   width="48"
   version="1.1"
   height="48"
   id="svg2"
   inkscape:version="0.91 r13725"
   sodipodi:docname="application-xspf+xml.svg">
  <metadata
     id="metadata16">
    <rdf:RDF>
      <cc:Work
         rdf:about="">
        <dc:format>image/svg+xml</dc:format>
        <dc:type
           rdf:resource="http://purl.org/dc/dcmitype/StillImage" />
      </cc:Work>
    </rdf:RDF>
  </metadata>
  <defs
     id="defs14" />
  <sodipodi:namedview
     pagecolor="#ffffff"
     bordercolor="#666666"
     borderopacity="1"
     objecttolerance="10"
     gridtolerance="10"
     guidetolerance="10"
     inkscape:pageopacity="0"
     inkscape:pageshadow="2"
     inkscape:window-width="912"
     inkscape:window-height="603"
     id="namedview12"
     showgrid="false"
     inkscape:zoom="7.8359375"
     inkscape:cx="24"
     inkscape:cy="24"
     inkscape:window-x="948"
     inkscape:window-y="125"
     inkscape:window-maximized="0"
     inkscape:current-layer="svg2" />
  <rect
     id="rect824"
     style="fill:#ac9d93;stroke:none;fill-opacity:1"
     height="36.745777"
     y="5.6268921"
     x="4.4999928"
     width="39.000011" />
  <g
     id="g7"
     style="fill:#ffffff;stroke:none">
    <path
       inkscape:connector-curvature="0"
       d="m 24.0026,12 0,17.1146 c -0.72631,-0.67696 -1.67347,-1.11464 -2.66927,-1.11457 -2.09453,1.2e-4 -3.99738,1.90577 -3.99738,3.99999 0,2.09423 1.90285,3.99987 3.99738,4 2.09455,1.2e-4 4.00261,-1.90554 4.00261,-4 l 0,-14.1536 c 2.78992,1.67347 4.52864,4.74534 4.52864,8.02083 0,0.84214 -0.13906,1.66804 -0.38284,2.46353 0.74673,-1.31891 1.18229,-2.80349 1.18229,-4.33072 0,-2.44595 -0.83743,-4.77898 -2.5651,-6.49999 -0.79708,-0.79403 -2.73392,-2.26386 -2.76301,-5.43229 l 0,-0.0677 -0.005,0 -1.32811,0 z"
       id="path4112"
       style="fill-rule:evenodd" />
    <rect
       id="rect2996"
       height="1.5"
       y="20.949152"
       x="12.5"
       width="23" />
    <rect
       id="rect3766"
       height="1.5"
       y="24.948999"
       x="12.5"
       width="23" />
  </g>
</svg>
