<svg width="48" version="1.1" xmlns="http://www.w3.org/2000/svg" height="48">
<path style="fill:#2980b9" id="rect4090" d="m 4.5,5.6395 0,36.7185 39,0 0,-36.7458 -12.6177,.0273 z "/>
<g style="fill:#ecf0f1" id="g2989" transform="matrix(1.0427247,0,0,0.83446686,-1.0253903,3.9703383)">
<path id="path2991" d="M 0,0 0,40 34,40 34,-0.02968801 23,0 z" transform="translate(7,4)"/>
<g style="stroke:#003bc3;fill-rule:evenodd;stroke-linecap:square;stroke-width:0" id="g7">
<rect width="23.362026" x="0" y="0" height="3.1810868" style="stroke-miterlimit:2.013" id="rect2993" transform="translate(12.3038,16.1417)"/>
<g style="stroke-miterlimit:2" id="g10">
<rect width="11.115499" x="0" y="0" height="3.1810868" id="rect2995" transform="translate(18.861,9.77954)"/>
<rect width="13.562757" x="0" y="0" height="3.1810868" id="rect2997" transform="translate(12.2953,22.5039)"/>
<rect width="13.562757" x="0" y="0" height="3.1810868" id="rect2999" transform="translate(12.3208,28.8661)"/>
<rect width="23.362026" x="0" y="0" height="3.1810868" id="rect3001" transform="translate(12.3307,35.2282)"/>
</g>
<rect width="6.5734076" x="0" y="0" height="9.5378857" style="stroke-miterlimit:2.013" id="rect3003" transform="translate(29.0863,22.4914)"/>
</g>
</g>
<g style="stroke:none">
<g style="stroke-width:1.094" id="g3800" transform="matrix(0.66666667,0,0,0.66666667,17.980455,13.480823)">
<rect width="12" x="9.1525421" y="14.20339" height="12" style="fill:#f00" id="rect3773"/>
<rect width="12" x="21.152542" y="14.20339" height="12" style="fill:#51ff00" id="rect3775"/>
<rect width="12" x="9.1529999" y="26.20339" height="12" style="fill:#53a8ff" id="rect3777"/>
<rect width="12" x="21.152542" y="26.202999" height="12" style="fill:#fffd00" id="rect3779"/>
</g>
<g style="fill:#195daf">
<path id="path4165" d="m 16.7981,9.0237 c 0.51483,-0.014083 1.06787,-0.017274 1.5625,0 0.65951,0.023032 1.27502,0.09484 1.78125,0.1875 2.0249,0.370632 5.84434,2.05303 5.90625,5.4375 0.0619,3.38447 -2.05665,5.02629 -4.5625,7.03125 -2.51844,2.03782 -1.99926,5.04774 -2,7.0625 h -4.53125 v -2 c 0,-3.02213 1.54686,-5.07283 3.53125,-7.5625 1.99678,-2.50521 2.09032,-4.50442 1.53125,-5.5625 -0.55906,-1.05808 -1.94097,-1.30628 -2.9375,-1.25 -0.99652,0.05629 -1.58351,0.237538 -2.125,0.71875 -0.54149,0.481211 -0.86078,1.09607 -1.03125,1.5625 -0.17046,0.466427 -0.21075,1.28151 -0.4375,1.71875 -0.22674,0.437237 -0.8485,1.40809 -2.90625,1.15625 -2.05775,-0.251845 -2.58321,-2.70678 -1.625,-4.9375 0.95822,-2.23072 2.94814,-2.76576 4.15625,-3.125 0.67957,-0.202072 2.14303,-0.395264 3.6875,-0.4375 z "/>
<path id="rect3785" d="m 17.5481,30.8049 c 2.00034,0 3.65625,1.62466 3.65625,3.625 0,2.00034 -1.65591,3.59375 -3.65625,3.59375 -2.00034,0 -3.625,-1.59341 -3.625,-3.59375 0,-2.00034 1.62466,-3.625 3.625,-3.625 z "/>
</g>
</g>
</svg>
