<svg width="48" version="1.1" xmlns="http://www.w3.org/2000/svg" height="48">
<defs>
<clipPath>
<rect width="640" height="409"/>
</clipPath>
</defs>
<path style="fill:#c1d084" d="m 6.4807,4.1217 h 35.0386 c 1.61761,0 2.91988,1.30227 2.91988,2.91988 v 35.0386 c 0,1.61761 -1.30227,2.91988 -2.91988,2.91988 h -35.0386 c -1.61761,0 -2.91988,-1.30227 -2.91988,-2.91988 v -35.0386 c 0,-1.61761 1.30227,-2.91988 2.91988,-2.91988 z "/>
<rect width="39.956001" x="3.9800367" y="5.9614763" rx="2.854" height="11.679523" ry="2.9198806" style="fill:#3c2510"/>
<g style="fill:#c1d084">
<path d="M 6.855,4.1614 C 3.86179,4.220128 3.85427,4.1687 3.85427,7.07467 v 7.65272 c 0,2.92589 0.122133,2.84767 3,2.91327 l 18.0044,-0.9711 V 3.19026 Z"/>
<path d="m 41.3546,4.1614 c 2.6869,0.058728 2.7492,0.066026 2.7492,2.91327 v 7.65272 c 0,2.99148 -0.235701,2.97887 -2.7492,2.91327 L 24.8594,16.66956 V 3.19026 Z"/>
</g>
<path style="opacity:.5;fill:#3a240f" d="m 26.9785,3.2781 -5.8984,0 .0293,12.3137 .0655,4.8086 2.7675,-.2532 2.9412,-.2688 .0159,-2.8408 .0496,-1.4458 .0293,-12.3137 z "/>
<path style="fill:#e4eebc" d="m 26.9492,3.216 -2.9492,-.216 l -2.9492,.216 .0293,12.5563 .0655,4.1414 2.7675,-.2418 2.9412,-.2567 .0159,-2.7128 .0496,-.9301 .0293,-12.5563 z "/>
<path style="opacity:.2;fill:#8d6137" d="M 23.513353,3.209 H 24 V 16.84 h -0.486647 z"/>
<path style="opacity:.3;fill:#fff" d="m 24,3.209 h 0.486647 V 16.84 H 24 Z"/>
<path d="m 19.8368,24.022 c 0.652909,-0.154847 1.31142,-0.268048 1.97149,-0.321693 0.117264,-0.04312 0.238556,-0.03431 0.358354,-0.04092 0.936562,-0.04611 1.87441,-0.04402 2.81058,0.02108 1.68969,0.184463 3.37082,0.617738 5,1.34 l -.007,.0141 c -0.238966,0.498846 -0.478632,0.996905 -0.712966,1.50088 -0.07021,0.02 -0.131675,-0.04856 -0.194212,-0.08307 -1.23666,-0.787671 -2.55306,-1.2449 -3.87802,-1.49233 -2.17935,-0.34448 -4.41053,-0.0677 -6.50125,0.967411 -1.53931,0.768458 -3.02581,1.9534 -4.17366,3.74031 -0.813457,1.28402 -1.43801,2.94508 -1.52278,4.76507 -0.07888,0.867342 0.05566,1.73318 0.174671,2.57486 -0.454578,0.07158 -0.9,0.243619 -1.3513,0.350769 -1.27033,0.351632 -2.54046,0.705462 -3.81115,1.05393 -0.012477,-1.40596 0.225223,-2.79697 0.603507,-4.0689 0.752408,-2.47654 2.05714,-4.45524 3.51094,-5.97021 0.983026,-1.01876 2.04564,-1.84988 3.14931,-2.50892 1.47035,-0.887288 3.0109,-1.49352 4.57258,-1.84238 z "/>
<path style="fill:#d72123" d="m 29.2582,26.5355 c 0.234335,-0.503972 0.474001,-1.00203 0.712967,-1.50088 2.18855,0.989388 4.30201,2.55171 6.02839,4.87968 0.705908,0.975687 1.34437,2.07948 1.83472,3.33532 0.580671,1.47791 0.948633,3.17042 0.988004,4.90437 -1.7165,-0.463073 -3.43253,-0.930095 -5.1488,-1.39475 0.211232,-1.03699 0.213036,-2.16604 0.06838,-3.22428 -0.268077,-1.8289 -1.0277,-3.39916 -1.94398,-4.59115 -0.763835,-0.992052 -1.63525,-1.78711 -2.55852,-2.36895 l .0188,-.0393 z "/>
<path d="m 22.9302,33.8402 c 0.101033,-0.253961 0.278939,-0.456531 0.481287,-0.418934 0.228714,0.009 0.404962,0.300758 0.452343,0.630906 0.09459,0.136398 0.252942,0.07824 0.371141,0.150447 1.17839,0.312188 2.3567,0.631462 3.53309,0.960135 0.282619,0.06077 0.56213,0.151445 0.843633,0.22434 0.115098,0.04008 0.234129,0.04819 0.348805,0.09462 1.17741,0.318564 2.35583,0.630519 3.53152,0.963419 0.395337,0.08936 0.786958,0.214552 1.18142,0.313995 1.71627,0.464649 3.4323,0.931671 5.1488,1.39475 0.391616,0.117468 0.78789,0.196123 1.17774,0.328814 -0.02382,0.137131 -0.04193,0.276325 -0.05388,0.417266 -0.386784,-0.09319 -0.770828,-0.21279 -1.15713,-0.308059 -1.86733,-0.51755 -3.73865,-1.00246 -5.60468,-1.52984 -1.16688,-0.296284 -2.33004,-0.629465 -3.49556,-0.939646 -0.808342,-0.221727 -1.61838,-0.435323 -2.42614,-0.662236 -0.767293,-0.196661 -1.53206,-0.416418 -2.29877,-0.617854 -0.384027,-0.09675 -0.76535,-0.221037 -1.15036,-0.308998 -0.128696,0.345619 -0.427237,0.524116 -0.661779,0.320022 -0.162604,-0.109716 -0.218077,-0.378284 -0.291464,-0.603618 -0.09507,-0.0097 -0.189763,-0.02729 -0.283528,-0.04955 -0.235073,-0.07776 -0.473006,-0.133386 -0.709808,-0.196117 0.0134,-0.144325 0.02853,-0.288111 0.04554,-0.43131 0.341037,0.07161 0.676731,0.196085 1.01778,0.267461 z "/>
<path style="opacity:.2;fill:#8d6137;stroke-linecap:round;stroke-width:.11" d="m 21.098,16.878 5.759,-.091 .011,.854 -5.758,-.006 z "/>
</svg>
