<svg width="48" version="1.1" xmlns="http://www.w3.org/2000/svg" height="48">
<path style="fill:#ecf0f1" id="rect4090" d="m 4.5777,5.6271 0,36.7458 38.8225,0 .1775,-36.685 -12.7377,-.0608 z "/>
<g style="stroke-width:0;stroke:#003bc3;stroke-linecap:square;stroke-miterlimit:2;fill-rule:evenodd">
<rect width="26.675655" x="10.640201" y="17.139196" height="2.9222877" style="fill:#f1c40f" id="line2"/>
<g style="fill:#7f8c8d">
<rect width="26.571037" x="10.674912" y="11.294689" height="2.9222877" id="line"/>
<rect width="26.675655" x="10.630496" y="22.983795" height="2.9222877" id="line21"/>
</g>
<rect width="26.675655" x="10.680622" y="28.828396" height="2.9222877" style="fill:#e74c3c" id="line22"/>
<rect width="26.675655" x="10.670917" y="34.672905" height="2.9222877" style="fill:#7f8c8d" id="line23"/>
<g style="fill-opacity:1;fill:#ecf0f1" id="g4176">
<path style="opacity:.7" id="rect4164" d="m 23.1406,17.1392 14.1752,0 0,2.9223 -14.1752,0 z "/>
<path style="opacity:.7" id="rect4166" d="m 23.1309,22.9838 14.1752,0 0,2.9223 -14.1752,0 z "/>
<path style="opacity:.7" id="rect4168" d="m 23.1811,28.8284 14.1752,0 0,2.9223 -14.1752,0 z "/>
<path style="opacity:.7" id="rect4170" d="m 23.1714,34.6729 14.1752,0 0,2.9223 -14.1752,0 z "/>
</g>
</g>
<path style="fill:#3c88bb" id="path829" d="m 31.7882,33.189 c 1.28673,0 2.32981,0.939615 2.32981,2.09909 0,1.15957 -1.04308,2.09919 -2.32981,2.09919 -1.28667,0 -2.32974,-0.939615 -2.32974,-2.09919 0,-1.15947 1.04307,-2.09909 2.32974,-2.09909 z  m .466,-16.7929 c 4.1174,0 7.45514,2.39949 7.45514,5.87752 0,1.25946 -0.931849,3.35858 -2.79555,4.19822 -1.86396,0.839603 -2.79574,1.9672 -2.79574,3.35861 v 1.67927 h -4.65955 v -1.25945 c 0,-2.85559 2.7957,-4.61807 3.72758,-5.45771 1.86375,-1.67929 1.86375,-1.91229 1.86375,-2.51893 0,-1.39136 -1.25166,-2.51894 -2.79563,-2.51894 -1.54405,0 -2.7957,1.12758 -2.7957,2.51894 v 1.25946 h -4.6595 v -0.839644 c 1e-06,-3.47801 3.33782,-6.29733 7.4552,-6.29733 z "/>
</svg>
