<svg width="48" version="1.1" xmlns="http://www.w3.org/2000/svg" height="48">
<path style="fill:#ff7f2a" id="path3001" d="m 4.5323,5.6497 0,36.6961 38.926,0 .074,-36.7458 -12.6677,.0497 z "/>
<g id="g3018" transform="matrix(1.1035756,0,0,0.88043476,-2.4851693,0.4366612)">
<rect width="5.4171777" x="21.276451" y="5.6516771" height="19.768995" style="fill:#34495e;fill-rule:evenodd;stroke:#003bc3;stroke-linecap:square;stroke-width:0;stroke-miterlimit:2.013" id="shape0"/>
<rect width="3.2502258" x="21.302784" y="5.6575394" height="1.4634197" style="fill:#ecf0f1;fill-rule:evenodd;stroke:#003bc3;stroke-linecap:square;stroke-width:0;stroke-miterlimit:2.013" id="shape1"/>
<rect width="3.2502258" x="23.462261" y="7.1211071" height="1.4634197" style="fill:#ecf0f1;fill-rule:evenodd;stroke:#003bc3;stroke-linecap:square;stroke-width:0;stroke-miterlimit:2" id="shape2"/>
<rect width="3.2502258" x="21.302898" y="8.5871429" height="1.4634197" style="fill:#ecf0f1;fill-rule:evenodd;stroke:#003bc3;stroke-linecap:square;stroke-width:0;stroke-miterlimit:2" id="shape3"/>
<rect width="3.2502258" x="23.46249" y="10.05072" height="1.4634197" style="fill:#ecf0f1;fill-rule:evenodd;stroke:#003bc3;stroke-linecap:square;stroke-width:0;stroke-miterlimit:2" id="shape4"/>
<rect width="3.2502258" x="21.299692" y="11.51816" height="1.4634197" style="fill:#ecf0f1;fill-rule:evenodd;stroke:#003bc3;stroke-linecap:square;stroke-width:0;stroke-miterlimit:2" id="shape5"/>
<rect width="3.2502258" x="23.459169" y="12.981691" height="1.4634197" style="fill:#ecf0f1;fill-rule:evenodd;stroke:#003bc3;stroke-linecap:square;stroke-width:0;stroke-miterlimit:2" id="shape6"/>
<rect width="3.2502258" x="21.299692" y="14.4477" height="1.4634197" style="fill:#ecf0f1;fill-rule:evenodd;stroke:#003bc3;stroke-linecap:square;stroke-width:0;stroke-miterlimit:2" id="shape7"/>
<rect width="3.2502258" x="23.459169" y="15.911323" height="1.4634197" style="fill:#ecf0f1;fill-rule:evenodd;stroke:#003bc3;stroke-linecap:square;stroke-width:0;stroke-miterlimit:2" id="shape8"/>
<rect width="3.2502258" x="21.278053" y="17.377422" height="1.4634197" style="fill:#ecf0f1;fill-rule:evenodd;stroke:#003bc3;stroke-linecap:square;stroke-width:0;stroke-miterlimit:2" id="shape9"/>
<rect width="3.2502258" x="23.437416" y="18.840956" height="1.4634197" style="fill:#ecf0f1;fill-rule:evenodd;stroke:#003bc3;stroke-linecap:square;stroke-width:0;stroke-miterlimit:2" id="shape10"/>
<rect width="3.2502258" x="21.278053" y="20.307055" height="1.4634197" style="fill:#ecf0f1;fill-rule:evenodd;stroke:#003bc3;stroke-linecap:square;stroke-width:0;stroke-miterlimit:2" id="shape11"/>
<rect width="3.2502258" x="23.437647" y="21.770586" height="1.4634197" style="fill:#ecf0f1;fill-rule:evenodd;stroke:#003bc3;stroke-linecap:square;stroke-width:0;stroke-miterlimit:2" id="shape12"/>
<rect width="3.2502258" x="21.274849" y="23.238062" height="1.4634197" style="fill:#ecf0f1;fill-rule:evenodd;stroke:#003bc3;stroke-linecap:square;stroke-width:0;stroke-miterlimit:2" id="shape13"/>
<rect width="5.4090157" x="21.286068" y="24.821316" height="9.7533731" style="fill:#ecf0f1;fill-rule:evenodd;stroke:#003bc3;stroke-linecap:square;stroke-width:0;stroke-miterlimit:2" id="shape17"/>
<rect width="3.1705625" x="22.425798" y="25.795046" height="2.3073425" style="fill:#2c3e50;fill-rule:evenodd;stroke:#003bc3;stroke-linecap:square;stroke-width:0;stroke-miterlimit:2" id="shape18"/>
</g>
<g style="fill:#fff" transform="scale(0.9633257,1.0380705)">
<path id="path4157" d="m 21.0371,38.7085 -2.4411,0 -.3852,1.1029 -1.5693,0 2.2424,-6.0541 1.8612,0 2.2424,6.0541 -1.5693,0 -.3812,-1.1029 z  m -2.0518,-1.1232 1.6585,0 -.8272,-2.4086 -.8313,2.4086 z "/>
<path id="path4159" d="m 27.3913,35.4118 0,1.184 q -0.296013,-0.202748 -0.59608,-0.300067 -0.296012,-0.09732 -0.616354,-0.09732 -0.608245,0 -0.948862,0.356837 -0.336562,0.352781 -0.336562,0.989411 0,0.636629 0.336562,0.993466 0.340617,0.352781 0.948862,0.352781 0.340617,0 0.644739,-0.101374 0.308177,-0.101374 0.567695,-0.300067 v 1.1881 q -0.340617,0.125704 -0.693399,0.186528 -0.348727,0.06488 -0.701509,0.06488 -1.22865,0 -1.92205,-0.628519 -0.693399,-0.632575 -0.693399,-1.7558 0,-1.12322 0.693399,-1.75174 0.693399,-0.632575 1.92205,-0.632575 0.356837,0 0.701509,0.06488 0.348727,0.06082 0.693399,0.186528 z "/>
<path id="path4161" d="m 33.1858,37.5285 0,.4136 -3.394,0 q 0.05271,0.510925 0.369002,0.766388 0.316287,0.255463 0.883982,0.255463 0.458211,0 0.936696,-0.133814 0.482541,-0.137869 0.989411,-0.413606 v 1.11917 q -0.51498,0.194639 -1.02996,0.291958 -0.51498,0.101374 -1.02996,0.101374 -1.23271,0 -1.918,-0.624464 -0.681234,-0.62852 -0.681234,-1.75985 0,-1.11106 0.669069,-1.74769 0.673124,-0.636629 1.84906,-0.636629 1.07051,0 1.71119,0.644739 0.64474,0.64474 0.64474,1.72336 z  m -1.4922,-.4825 q 0,-0.413606 -0.243298,-0.665014 -0.239243,-0.255463 -0.628519,-0.255463 -0.421716,0 -0.685289,0.239243 -0.263572,0.235188 -0.328452,0.681234 h 1.88556 z "/>
</g>
</svg>
