<svg width="48" version="1.1" xmlns="http://www.w3.org/2000/svg" height="48">
<path style="fill:#60ee02" id="rect4090" d="M 3,3 V 45 H 45 V 3 Z"/>
<g style="stroke:#003bc3;fill-rule:evenodd;stroke-linecap:square;stroke-width:0" id="g888" transform="translate(0,-1.507)">
<rect width="7.9695606" x="20.002359" y="4.5075564" height="18.793396" style="fill:#34495e;stroke-miterlimit:2.013" id="shape0"/>
<g style="stroke-miterlimit:2" id="g19">
<g style="fill:#ecf0f1" id="g10" transform="matrix(1.4683729,0,0,1.025597,-11.238691,-2.7746832)">
<rect width="3.2564054" x="23.465931" y="7.1004887" height="1.4654016" id="shape2"/>
<rect width="3.2564054" x="21.302462" y="8.5685101" height="1.4654016" id="shape3"/>
<rect width="3.2564054" x="23.46616" y="10.03407" height="1.4654016" id="shape4"/>
<rect width="3.2564054" x="21.29925" y="11.503496" height="1.4654016" id="shape5"/>
<rect width="3.2564054" x="23.462833" y="12.96901" height="1.4654016" id="shape6"/>
<rect width="3.2564054" x="21.29925" y="14.437004" height="1.4654016" id="shape7"/>
<rect width="3.2564054" x="23.462833" y="15.902609" height="1.4654016" id="shape8"/>
<rect width="3.2564054" x="21.277571" y="17.370695" height="1.4654016" id="shape9"/>
<rect width="3.2564054" x="23.441038" y="18.836208" height="1.4654016" id="shape10"/>
<rect width="3.2564054" x="21.277571" y="20.304295" height="1.4654016" id="shape11"/>
<rect width="3.2564054" x="23.441269" y="21.769808" height="1.4654016" id="shape12"/>
<rect width="3.2564054" x="21.274359" y="23.239271" height="1.4654016" id="shape13"/>
<rect width="5.4192996" x="21.285601" y="24.824669" height="9.7665815" id="shape17"/>
</g>
<rect width="4.6644192" x="21.693239" y="23.685429" height="2.3696082" style="fill:#2c3e50" id="shape18"/>
</g>
</g>
<g id="g911" transform="translate(59.999965,1.0151)">
<path id="path4157" d="m -42.6875,33.4888 h 4.9023 v 0.9102 l -3.1289,3.7852 h 3.2188 v 1.1367 h -5.082 v -0.9102 l 3.1289,-3.7852 h -3.0391 z"/>
<path id="path4159" d="m -36.668,34.9458 h 1.3984 v 4.375 h -1.3984 z m 0,-1.7031 h 1.3984 v 1.1406 h -1.3984 z"/>
<path id="path4161" d="m -32.5195,38.688 v 2.2969 h -1.3984 v -6.0391 h 1.3984 v 0.6406 q 0.289062,-0.382812 0.640625,-0.5625 0.351562,-0.183594 0.808593,-0.183594 0.808594,0 1.32812,0.644532 0.519532,0.640625 0.519532,1.65234 0,1.01172 -0.519532,1.65625 -0.519531,0.640625 -1.32812,0.640625 -0.457031,0 -0.808593,-0.179687 -0.351563,-0.183594 -0.640625,-0.566406 z m 0.9297,-2.832 q -0.449219,0 -0.691406,0.332032 -0.238281,0.328125 -0.238281,0.949218 0,0.621094 0.238281,0.953125 0.242187,0.328125 0.691406,0.328125 0.449219,0 0.683594,-0.328125 0.238281,-0.328125 0.238281,-0.953125 0,-0.625 -0.238281,-0.953125 Q -31.140581,35.856 -31.5898,35.856 Z"/>
</g>
</svg>
