<svg width="48" version="1.1" xmlns="http://www.w3.org/2000/svg" height="48">
<path style="fill:#ff7f2a" id="rect4090" d="m 4.5399,5.6271 0,36.7458 38.9087,0 .0913,-36.6107 -12.6794,-.1351 z "/>
<path style="fill:#fff;fill-rule:evenodd" id="path3672" d="m 33.413,11 c 1.42737,4.29241 -5.03882,5.5975 -7.37108,8.27064 -1.58824,1.82138 0.779568,3.7725 4.00776,5.99564 -1.25891,-2.17225 -5.52986,-4.07596 0,-7.40993 C 36.94528,13.7016 33.41299,11 33.41299,11 Z m 4.2494,5.3191 c 0,0 -11.6507,2.21944 -6.08216,7.11772 1.64393,1.44446 -0.422895,2.73624 -0.422895,2.73624 0,0 4.17107,-1.63029 2.25566,-3.68953 -1.78956,-1.91926 -3.17856,-2.87623 4.2494,-6.16444 z m 1.8931,8.7472 c -0.357077,0.01588 -0.725057,0.06645 -1.10771,0.169199 -0.35775,0.0967 -0.543759,0.322731 -0.543759,0.322731 0,0 0.220733,-0.07369 0.725057,-0.154396 2.06265,-0.328026 5.0213,2.1085 -1.36949,4.6427 -0.02947,0.06062 -0.120865,0.138622 -0.120731,0.138622 7.7335,-1.55153 5.86883,-5.25435 2.41663,-5.11907 z M 25.7398,25.312 c -0.814751,0.01588 -2.73763,0.149534 -4.95431,0.968625 -3.49643,1.29049 8.24597,2.42414 14.9435,0.614884 0.653588,-0.340558 1.55079,-0.630443 1.55079,-0.630443 0,0 -2.5733,0.143715 -5.13557,0.307944 -3.13605,0.200856 -6.48799,0.249153 -8.17666,0.07801 -3.99806,-0.408087 2.19523,-1.33783 2.19523,-1.33783 l -0.422947,0 z m -1.0271,2.9529 c -5.76765,1.4612 2.66997,3.60075 11.2782,1.32215 -0.856555,-0.230567 -1.40987,-0.845373 -1.40987,-0.845373 -3.94122,0.578905 -6.21945,0.550057 -9.10303,0.322731 -2.22933,-0.175898 -0.765274,-0.799506 -0.765274,-0.799506 z m 0.8056,2.8441 c -5.23706,1.11697 2.92661,3.97307 9.86843,1.24511 -1.0921,-0.323919 -1.87314,-0.892275 -1.87314,-0.892275 -2.97348,0.429155 -4.36966,0.465782 -7.06886,0.230461 -2.22768,-0.194914 -0.926423,-0.583298 -0.926423,-0.583298 z m -3.3834,1.8908 c -2.25051,-0.06645 -7.34261,1.6425 -2.98064,2.18305 14.8941,2.09232 24.7729,-0.7534 21.2472,-1.96783 0,0 0.956155,0.407353 -1.06746,0.876052 -3.84791,0.889752 -16.0138,1.35335 -19.3943,0.230437 -1.21435,-0.403764 1.05542,-0.95782 1.77228,-1.07613 0.747413,-0.122739 1.18822,-0.09249 1.18822,-0.09249 -0.168928,-0.09097 -0.443796,-0.144565 -0.765301,-0.154506 z m 20.4214,1.5359 c 0,0 -0.434604,0.840375 -5.07513,1.50658 -5.23503,0.75221 -11.6784,0.666963 -15.5074,0.184541 0,0 0.782637,0.79403 4.81332,0.992293 6.13293,0.299285 15.5462,-0.46795 15.7692,-2.68342 z"/>
<g id="g4162" transform="translate(42.810122,-31.940087)">
<path style="fill:#fff;fill-rule:evenodd" id="rect3325" d="m -29.1171,40.2372 c -4.06671,0 -7.375,2.64932 -7.375,5.90625 0,3.2569 3.30828,5.875 7.375,5.875 4.06676,0 7.375,-2.6181 7.375,-5.875 0,-3.25693 -3.30824,-5.90625 -7.375,-5.90625 z  m -.125,1.7812 c 3.15094,0 5.6875,1.79933 5.6875,4.03125 0,2.23192 -2.53656,4.0625 -5.6875,4.0625 -3.15094,0 -5.71875,-1.83058 -5.71875,-4.0625 0,-2.23192 2.56781,-4.03125 5.71875,-4.03125 z "/>
<path style="fill:#fff;fill-rule:evenodd" id="rect3331" d="m -27.6412,71.643 -2.8404,-.1032 .1544,-21.3683 c 0.629886,0.456526 1.71637,1.05367 2.71486,1.02987 0.0032,-0.00019 -0.0065,6.8137 -0.02887,20.4416 z "/>
<rect width="4.1838713" x="-28.024168" y="67.692757" rx="2.0919" ry="0" height="2.6624634" style="fill:#fff;stroke:none;color:#000;stroke-width:1.191" id="rect2995"/>
<rect width="3.5182552" x="-28.214344" y="62.085716" rx="1.7591" height="3.0428154" ry="0" style="fill:#fff;stroke:none;color:#000;stroke-width:1.191" id="rect2997"/>
</g>
</svg>
