<svg width="48" version="1.1" xmlns="http://www.w3.org/2000/svg" height="48">
<path style="fill:#e6e6e6" id="path3756" d="m 4.904,5.8516 0,36.3288 38.342,.0006 0,-36.267 z "/>
<g style="stroke:none">
<path style="fill-rule:evenodd" id="folderGlyph-6" d="m 4.904,5.8477 .0003,36.3086 8.6172,0 0,-1.3887 21.0449,0 0,1.3887 8.6797,0 -.0001,-36.3086 -8.6796,0 0,1.9414 -21.0449,0 0,-1.9414 z  m 1.9046,3.6172 3.8398,0 0,3.6367 -3.8398,0 z  m 30.6934,0 3.8086,0 0,3.6367 -3.8086,0 z  m -24.043,.877 21.0449,0 0,12.7754 -21.0449,0 z  m -6.6504,11.8223 3.8398,0 0,3.6172 -3.8398,0 z  m 30.6934,0 3.8086,0 0,3.6172 -3.8086,0 z  m -24.043,3.4414 21.0449,0 0,12.6094 -21.0449,0 z  m -6.6504,9.2773 3.8398,0 0,3.6367 -3.8398,0 z  m 30.6934,0 3.8086,0 0,3.6367 -3.8086,0 z "/>
<path id="path4143" d="m 19.0098,33.3991 q 0.265625,-0.40625 0.628906,-0.617187 0.367187,-0.214844 0.804687,-0.214844 0.753907,0 1.14844,0.464844 0.394531,0.464843 0.394531,1.35156 v 2.66406 h -1.40625 v -2.28125 q 0.0039,-0.05078 0.0039,-0.105469 0.0039,-0.05469 0.0039,-0.15625 0,-0.464844 -0.136719,-0.671875 -0.136719,-0.210938 -0.441406,-0.210938 -0.398438,0 -0.617188,0.328125 -0.214844,0.328125 -0.222656,0.949219 v 2.14844 h -1.40625 v -2.28125 q 0,-0.726563 -0.125,-0.933594 -0.125,-0.210938 -0.445313,-0.210938 -0.402343,0 -0.621093,0.332032 -0.21875,0.328125 -0.21875,0.941406 v 2.15234 h -1.40625 v -4.375 h 1.40625 v 0.640625 q 0.257812,-0.371094 0.589843,-0.558594 0.335938,-0.1875 0.738282,-0.1875 0.453125,0 0.800781,0.21875 0.347656,0.21875 0.527344,0.613281 z "/>
<path id="path4145" d="m 23.2988,30.9694 1.3984,0 0,3.3086 1.6094,-1.6055 1.625,0 -2.1367,2.0078 2.3047,2.3672 -1.6953,0 -1.707,-1.8242 0,1.8242 -1.3984,0 0,-6.0781 z "/>
<path id="path4147" d="m 28.0762,32.6725 1.3984,0 1.0898,3.0234 1.0859,-3.0234 1.4023,0 -1.7227,4.375 -1.5352,0 -1.7188,-4.375 z "/>
</g>
</svg>
