<svg width="48" version="1.1" xmlns="http://www.w3.org/2000/svg" height="48">
<path style="fill:#bb5cde" id="rect4090" d="m 4.5,5.6271 0,36.7458 39,0 0,-36.6755 -12.6176,-.0703 z "/>
<g id="g3018" transform="matrix(1.1014812,0,0,0.87924401,-2.4353929,0.4284223)">
<rect width="5.4274774" x="21.275965" y="5.6290684" height="19.795769" style="fill:#34495e;fill-rule:evenodd;stroke:#003bc3;stroke-linecap:square;stroke-width:0;stroke-miterlimit:2.013" id="shape0"/>
<rect width="3.2564054" x="21.302347" y="5.6349387" height="1.4654016" style="fill:#ecf0f1;fill-rule:evenodd;stroke:#003bc3;stroke-linecap:square;stroke-width:0;stroke-miterlimit:2.013" id="shape1"/>
<rect width="3.2564054" x="23.465931" y="7.1004887" height="1.4654016" style="fill:#ecf0f1;fill-rule:evenodd;stroke:#003bc3;stroke-linecap:square;stroke-width:0;stroke-miterlimit:2" id="shape2"/>
<rect width="3.2564054" x="21.302462" y="8.5685101" height="1.4654016" style="fill:#ecf0f1;fill-rule:evenodd;stroke:#003bc3;stroke-linecap:square;stroke-width:0;stroke-miterlimit:2" id="shape3"/>
<rect width="3.2564054" x="23.46616" y="10.03407" height="1.4654016" style="fill:#ecf0f1;fill-rule:evenodd;stroke:#003bc3;stroke-linecap:square;stroke-width:0;stroke-miterlimit:2" id="shape4"/>
<rect width="3.2564054" x="21.29925" y="11.503496" height="1.4654016" style="fill:#ecf0f1;fill-rule:evenodd;stroke:#003bc3;stroke-linecap:square;stroke-width:0;stroke-miterlimit:2" id="shape5"/>
<rect width="3.2564054" x="23.462833" y="12.96901" height="1.4654016" style="fill:#ecf0f1;fill-rule:evenodd;stroke:#003bc3;stroke-linecap:square;stroke-width:0;stroke-miterlimit:2" id="shape6"/>
<rect width="3.2564054" x="21.29925" y="14.437004" height="1.4654016" style="fill:#ecf0f1;fill-rule:evenodd;stroke:#003bc3;stroke-linecap:square;stroke-width:0;stroke-miterlimit:2" id="shape7"/>
<rect width="3.2564054" x="23.462833" y="15.902609" height="1.4654016" style="fill:#ecf0f1;fill-rule:evenodd;stroke:#003bc3;stroke-linecap:square;stroke-width:0;stroke-miterlimit:2" id="shape8"/>
<rect width="3.2564054" x="21.277571" y="17.370695" height="1.4654016" style="fill:#ecf0f1;fill-rule:evenodd;stroke:#003bc3;stroke-linecap:square;stroke-width:0;stroke-miterlimit:2" id="shape9"/>
<rect width="3.2564054" x="23.441038" y="18.836208" height="1.4654016" style="fill:#ecf0f1;fill-rule:evenodd;stroke:#003bc3;stroke-linecap:square;stroke-width:0;stroke-miterlimit:2" id="shape10"/>
<rect width="3.2564054" x="21.277571" y="20.304295" height="1.4654016" style="fill:#ecf0f1;fill-rule:evenodd;stroke:#003bc3;stroke-linecap:square;stroke-width:0;stroke-miterlimit:2" id="shape11"/>
<rect width="3.2564054" x="23.441269" y="21.769808" height="1.4654016" style="fill:#ecf0f1;fill-rule:evenodd;stroke:#003bc3;stroke-linecap:square;stroke-width:0;stroke-miterlimit:2" id="shape12"/>
<rect width="3.2564054" x="21.274359" y="23.239271" height="1.4654016" style="fill:#ecf0f1;fill-rule:evenodd;stroke:#003bc3;stroke-linecap:square;stroke-width:0;stroke-miterlimit:2" id="shape13"/>
<rect width="5.4192996" x="21.285601" y="24.824669" height="9.7665815" style="fill:#ecf0f1;fill-rule:evenodd;stroke:#003bc3;stroke-linecap:square;stroke-width:0;stroke-miterlimit:2" id="shape17"/>
<rect width="3.1765904" x="22.427498" y="25.799717" height="2.3104672" style="fill:#2c3e50;fill-rule:evenodd;stroke:#003bc3;stroke-linecap:square;stroke-width:0;stroke-miterlimit:2" id="shape18"/>
</g>
<g style="fill:#fff">
<path id="path4157" d="m 20.1094,39.8847 q -0.5625,0.273437 -1.16797,0.410156 -0.605468,0.136719 -1.25,0.136719 -1.45703,0 -2.30859,-0.8125 -0.851563,-0.816407 -0.851563,-2.21094 0,-1.41016 0.867188,-2.21875 0.867187,-0.808594 2.375,-0.808594 0.582031,0 1.11328,0.109375 0.535156,0.109375 1.00781,0.324219 v 1.20703 q -0.488281,-0.277343 -0.972656,-0.414062 -0.480469,-0.136719 -0.964844,-0.136719 -0.898437,0 -1.38672,0.503906 -0.484375,0.5 -0.484375,1.43359 0,0.925781 0.46875,1.42969 0.46875,0.503906 1.33203,0.503906 0.234375,0 0.433594,-0.02734 0.203125,-0.03125 0.363281,-0.09375 v -1.13281 h -0.917969 v -1.00781 h 2.34375 v 2.80469 z "/>
<path id="path4159" d="m 21.1523,35.9433 3.8164,0 0,.9766 -2.3047,2.3984 2.3047,0 0,1 -3.9141,0 0,-.9766 2.3047,-2.3984 -2.207,0 0,-1 z "/>
<path id="path4161" d="m 26.0234,35.9433 1.3984,0 0,4.375 -1.3984,0 0,-4.375 z  m 0,-1.7031 1.3984,0 0,1.1406 -1.3984,0 0,-1.1406 z "/>
<path id="path4163" d="m 30.1719,39.6855 0,2.2969 -1.3984,0 0,-6.0391 1.3984,0 0,.6406 q 0.289063,-0.382812 0.640625,-0.5625 0.351563,-0.183593 0.808594,-0.183593 0.808594,0 1.32813,0.644531 0.519531,0.640625 0.519531,1.65234 0,1.01172 -0.519531,1.65625 -0.519531,0.640625 -1.32812,0.640625 -0.457031,0 -0.808594,-0.179688 -0.351562,-0.183594 -0.640625,-0.566406 z  m .9297,-2.832 q -0.449219,0 -0.691407,0.332031 -0.238281,0.328125 -0.238281,0.949219 0,0.621093 0.238281,0.953125 0.242188,0.328125 0.691407,0.328125 0.449218,0 0.683593,-0.328125 0.238282,-0.328125 0.238282,-0.953125 0,-0.625 -0.238282,-0.953125 -0.234375,-0.328125 -0.683593,-0.328125 z "/>
</g>
</svg>
