<svg width="48" version="1.1" xmlns="http://www.w3.org/2000/svg" height="48" xmlns:xlink="http://www.w3.org/1999/xlink">
<defs>
<linearGradient id="linearGradient6835">
<stop offset="0"/>
<stop offset="1" style="stop-opacity:0"/>
</linearGradient>
<linearGradient gradientTransform="translate(0.52446081,1.562)" xlink:href="#linearGradient6835" id="linearGradient7149" y1="27.2335" x1="9.6714134" y2="0.4387494" x2="9.6609049" gradientUnits="userSpaceOnUse"/>
<linearGradient gradientTransform="translate(0.52446081,1.562)" xlink:href="#linearGradient6835" id="linearGradient6837" y1="26.549097" x1="10.37096" y2="1.0329022" x2="10.358464" gradientUnits="userSpaceOnUse"/>
<linearGradient gradientTransform="translate(0.52446081,1.562)" xlink:href="#linearGradient6835" id="linearGradient6989" y1="26.897572" x1="10.013996" y2="0.93600869" x2="10.017675" gradientUnits="userSpaceOnUse"/>
</defs>
<path style="opacity:.2" d="M 4,4 V 46 H 46 V 4 Z"/>
<path style="fill:#ecf0f1" d="M 3,3 V 45 H 45 V 3 Z"/>
<g style="fill:#e7161d">
<path d="m 17.1257,20.0806 c -0.883167,1.56569 -2.36026,4.41668 -2.83518,6.26288 -1.21382,4.71865 -1.33129,7.8516 -1.51679,10.7441 -0.0091,0.127426 0.03804,0.236189 0.139475,0.31382 l 8.0373,6.0846 c 0.121205,0.093 0.28348,0.09438 0.400991,0.03488 0.117505,-0.05949 0.212438,-0.178512 0.209212,-0.331254 -0.07223,-7.19102 1.13655,-13.3902 2.57367,-20.3893 l -.8369,-.523 c 0,0 -2.99483,-1.68684 -6.17178,-2.19674 z "/>
<path d="m 22.9583,23.4786 c 2.48926,6.14021 5.67471,13.0611 7.61589,19.1001 0.03939,0.120329 0.157205,0.188794 0.261515,0.209213 0.104314,0.02042 0.214526,0.0093 0.296386,-0.08717 2.20273,-2.54689 4.59925,-4.79077 6.57277,-6.69481 0.0022,-0.0017 -0.0022,-0.01572 0,-0.01743 0.06355,-0.06233 0.10541,-0.137254 0.104606,-0.226648 -0.0094,-0.313607 -0.114436,-0.776329 -0.296383,-1.39475 -1.96704,-5.19764 -3.64671,-8.20095 -6.3083,-13.3468 -5.32988,-0.83564 -5.96817,0.774776 -8.24647,2.45824 z"/>
</g>
<path style="opacity:.15;fill:url(#linearGradient7149)" d="m 24.1417,3.313 -3.1641,2.709 -4.0176,-1.1328 -1.2148,3.9785 -3.9785,1.2148 1.1348,4.0176 -2.7109,3.1641 3.1289,2.7734 -.5469,4.1348 4.1133,.623 1.7832,3.7734 3.791,-1.6875 3.5469,2.2168 2.2754,-3.4883 4.1699,-.0371 .0352,-4.1699 3.4883,-2.2734 -2.2168,-3.5469 1.7051,-3.8145 -3.791,-1.7617 -.623,-4.1133 -4.1348,.5488 z "/>
<path style="opacity:.25;fill:url(#linearGradient6989)" d="m 24.1183,3.562 -3.0801,2.6367 -3.9102,-1.1035 -1.1816,3.873 -3.873,1.1816 1.1055,3.9102 -2.6387,3.0801 3.0449,2.6973 -.5332,4.0234 4.0039,.6074 1.7344,3.6719 3.6895,-1.6426 3.4512,2.1582 2.2148,-3.3945 4.0586,-.0371 .0352,-4.0586 3.3945,-2.2129 -2.1582,-3.4512 1.6602,-3.7109 -3.6895,-1.7148 -.6074,-4.0039 -4.0234,.5352 z "/>
<path style="opacity:.35;fill:url(#linearGradient6837)" d="m 24.0948,3.8122 -2.9961,2.5645 -3.8027,-1.0742 -1.1484,3.7676 -3.7676,1.1484 1.0762,3.8027 -2.5664,2.9961 2.9609,2.6211 -.5195,3.9121 3.8945,.5918 1.6855,3.5703 3.5879,-1.5977 3.3555,2.0996 2.1543,-3.3008 3.9473,-.0371 .0352,-3.9473 3.3008,-2.1523 -2.0996,-3.3555 1.6152,-3.6074 -3.5879,-1.668 -.5918,-3.8945 -3.9121,.5215 z "/>
<path style="fill:#ffcb00" d="m 21.1597,6.5551 -3.6961,-1.0461 -1.1158,3.6612 -3.6612,1.1158 1.0461,3.6961 -2.4931,2.9115 2.8767,2.5454 -.5056,3.8007 3.7833,.5753 1.6388,3.4694 3.4869,-1.5517 3.2602,2.0398 2.0921,-3.2079 3.8356,-.0349 .0349,-3.8356 3.2079,-2.0921 -2.0398,-3.2602 1.5691,-3.5043 -3.4869,-1.6214 -.5753,-3.7833 -3.8007,.5056 -2.5455,-2.8766 z "/>
</svg>
