<svg width="48" version="1.1" xmlns="http://www.w3.org/2000/svg" height="48">
<path style="fill:#bf7c4f" id="path3001" d="m 4.5323,5.6497 0,36.6961 38.926,0 .074,-36.7458 -12.6677,.0497 z "/>
<g id="g3018" transform="matrix(1.1035756,0,0,0.88043476,-2.4851693,0.4048375)">
<rect width="5.4171777" x="21.276451" y="5.6516771" height="19.768995" style="fill:#34495e;fill-rule:evenodd;stroke:#003bc3;stroke-linecap:square;stroke-width:0;stroke-miterlimit:2.013" id="shape0"/>
<rect width="3.2502258" x="21.302784" y="5.6575394" height="1.4634197" style="fill:#ecf0f1;fill-rule:evenodd;stroke:#003bc3;stroke-linecap:square;stroke-width:0;stroke-miterlimit:2.013" id="shape1"/>
<rect width="3.2502258" x="23.462261" y="7.1211071" height="1.4634197" style="fill:#ecf0f1;fill-rule:evenodd;stroke:#003bc3;stroke-linecap:square;stroke-width:0;stroke-miterlimit:2" id="shape2"/>
<rect width="3.2502258" x="21.302898" y="8.5871429" height="1.4634197" style="fill:#ecf0f1;fill-rule:evenodd;stroke:#003bc3;stroke-linecap:square;stroke-width:0;stroke-miterlimit:2" id="shape3"/>
<rect width="3.2502258" x="23.46249" y="10.05072" height="1.4634197" style="fill:#ecf0f1;fill-rule:evenodd;stroke:#003bc3;stroke-linecap:square;stroke-width:0;stroke-miterlimit:2" id="shape4"/>
<rect width="3.2502258" x="21.299692" y="11.51816" height="1.4634197" style="fill:#ecf0f1;fill-rule:evenodd;stroke:#003bc3;stroke-linecap:square;stroke-width:0;stroke-miterlimit:2" id="shape5"/>
<rect width="3.2502258" x="23.459169" y="12.981691" height="1.4634197" style="fill:#ecf0f1;fill-rule:evenodd;stroke:#003bc3;stroke-linecap:square;stroke-width:0;stroke-miterlimit:2" id="shape6"/>
<rect width="3.2502258" x="21.299692" y="14.4477" height="1.4634197" style="fill:#ecf0f1;fill-rule:evenodd;stroke:#003bc3;stroke-linecap:square;stroke-width:0;stroke-miterlimit:2" id="shape7"/>
<rect width="3.2502258" x="23.459169" y="15.911323" height="1.4634197" style="fill:#ecf0f1;fill-rule:evenodd;stroke:#003bc3;stroke-linecap:square;stroke-width:0;stroke-miterlimit:2" id="shape8"/>
<rect width="3.2502258" x="21.278053" y="17.377422" height="1.4634197" style="fill:#ecf0f1;fill-rule:evenodd;stroke:#003bc3;stroke-linecap:square;stroke-width:0;stroke-miterlimit:2" id="shape9"/>
<rect width="3.2502258" x="23.437416" y="18.840956" height="1.4634197" style="fill:#ecf0f1;fill-rule:evenodd;stroke:#003bc3;stroke-linecap:square;stroke-width:0;stroke-miterlimit:2" id="shape10"/>
<rect width="3.2502258" x="21.278053" y="20.307055" height="1.4634197" style="fill:#ecf0f1;fill-rule:evenodd;stroke:#003bc3;stroke-linecap:square;stroke-width:0;stroke-miterlimit:2" id="shape11"/>
<rect width="3.2502258" x="23.437647" y="21.770586" height="1.4634197" style="fill:#ecf0f1;fill-rule:evenodd;stroke:#003bc3;stroke-linecap:square;stroke-width:0;stroke-miterlimit:2" id="shape12"/>
<rect width="3.2502258" x="21.274849" y="23.238062" height="1.4634197" style="fill:#ecf0f1;fill-rule:evenodd;stroke:#003bc3;stroke-linecap:square;stroke-width:0;stroke-miterlimit:2" id="shape13"/>
<rect width="5.4090157" x="21.286068" y="24.821316" height="9.7533731" style="fill:#ecf0f1;fill-rule:evenodd;stroke:#003bc3;stroke-linecap:square;stroke-width:0;stroke-miterlimit:2" id="shape17"/>
<rect width="3.1705625" x="22.425798" y="25.795046" height="2.3073425" style="fill:#2c3e50;fill-rule:evenodd;stroke:#003bc3;stroke-linecap:square;stroke-width:0;stroke-miterlimit:2" id="shape18"/>
</g>
<g style="fill:#fff">
<path id="path4157" d="m 19.4043,39.991 q -0.414063,0.214843 -0.863281,0.324218 -0.449219,0.109375 -0.9375,0.109375 -1.45703,0 -2.30859,-0.8125 -0.851563,-0.816406 -0.851563,-2.21094 0,-1.39844 0.851563,-2.21094 0.851562,-0.816406 2.30859,-0.816406 0.488281,0 0.9375,0.109375 0.449218,0.109375 0.863281,0.324219 v 1.20703 q -0.417969,-0.285156 -0.824219,-0.417969 -0.40625,-0.132812 -0.855469,-0.132812 -0.804687,0 -1.26562,0.515625 -0.460937,0.515625 -0.460937,1.42188 0,0.902344 0.460937,1.41797 0.460938,0.515625 1.26562,0.515625 0.449219,0 0.855469,-0.132813 0.40625,-0.132812 0.824219,-0.417969 v 1.20703 z "/>
<path id="path4159" d="m 21.9902,39.6785 0,2.2969 -1.3984,0 0,-6.0391 1.3984,0 0,.6406 q 0.289063,-0.382812 0.640625,-0.5625 0.351563,-0.183594 0.808594,-0.183594 0.808594,0 1.32812,0.644532 0.519531,0.640625 0.519531,1.65234 0,1.01172 -0.519531,1.65625 -0.519531,0.640625 -1.32812,0.640625 -0.457031,0 -0.808594,-0.179687 -0.351562,-0.183594 -0.640625,-0.566406 z  m .9297,-2.832 q -0.449219,0 -0.691406,0.332032 -0.238282,0.328125 -0.238282,0.949218 0,0.621094 0.238282,0.953125 0.242187,0.328125 0.691406,0.328125 0.449219,0 0.683594,-0.328125 0.238281,-0.328125 0.238281,-0.953125 0,-0.625 -0.238281,-0.953125 -0.234375,-0.328125 -0.683594,-0.328125 z "/>
<path id="path4161" d="m 26.3262,35.9363 1.3984,0 0,4.375 -1.3984,0 0,-4.375 z  m 0,-1.7031 1.3984,0 0,1.1406 -1.3984,0 0,-1.1406 z "/>
<path id="path4163" d="m 31.1582,36.8308 q -0.464844,0 -0.710937,0.335938 -0.242188,0.332031 -0.242188,0.960937 0,0.628907 0.242188,0.964844 0.246093,0.332031 0.710937,0.332031 0.457031,0 0.699219,-0.332031 0.242187,-0.335937 0.242187,-0.964844 0,-0.628906 -0.242187,-0.960937 -0.242188,-0.335938 -0.699219,-0.335938 z  m 0,-1 q 1.12891,0 1.76172,0.609375 0.636719,0.609375 0.636719,1.6875 0,1.07812 -0.636719,1.6875 -0.632813,0.609375 -1.76172,0.609375 -1.13281,0 -1.77344,-0.609375 -0.636719,-0.609375 -0.636719,-1.6875 0,-1.07812 0.636719,-1.6875 0.640625,-0.609375 1.77344,-0.609375 z "/>
</g>
</svg>
