<svg width="48" version="1.1" xmlns="http://www.w3.org/2000/svg" height="48">
<path style="opacity:.2" d="M 4,4 V 46 H 46 V 4 Z"/>
<path style="fill:#ecf0f1" id="rect4090" d="M 3,3 V 45 H 45 V 3.1032118 L 31.411815,3 Z"/>
<g style="fill:#2c3e50" id="folderLayer" transform="translate(0,-2.0838147)">
<g id="layer1" transform="translate(7.5e-5,-0.2755603)">
<path style="stroke:none" id="path2995" d="m 23.9062,14.9688 c -6.20755,0 -11.3125,5.10495 -11.3125,11.3125 0,6.20755 5.10495,11.2812 11.3125,11.2812 2.40486,0 4.63327,-0.768557 6.46875,-2.0625 l 2.25,2.25 2.7812,-2.75 -2.2812,-2.25 c 1.29394,-1.83547 2.0625,-4.06389 2.0625,-6.46875 0,-6.20755 -5.0737,-11.3125 -11.2812,-11.3125 z m 0,3.9062 c 4.10515,0 7.375,3.3011 7.375,7.40625 0,1.33987 -0.354385,2.57665 -0.96875,3.65625 l -3.6562,-3.6562 2.3438,-2.375 -2.75,-2.75 -7.4688,7.4688 2.75,2.75 2.375,-2.375 3.6562,3.6875 c -1.0796,0.614365 -2.31638,0.96875 -3.65625,0.96875 -4.10515,0 -7.40625,-3.26985 -7.40625,-7.375 0,-4.10515 3.3011,-7.40625 7.40625,-7.40625 z"/>
</g>
</g>
</svg>
