<svg width="48" version="1.1" xmlns="http://www.w3.org/2000/svg" height="48">
<path style="fill:#27ae60" id="rect4090" d="m 4.5,5.6271 0,36.7458 39,0 -.0981,-36.6945 -12.5196,-.0513 z "/>
<g style="fill:#fff" id="g3811" transform="translate(-0.59506214,1.5683052)">
<rect width="3.1226337" x="19.511768" y="25.161228" rx="1.5613168" height="9.8203564" ry="1.5613168" style="stroke:none" id="c-4-14-6-4-9"/>
<path style="stroke:#fff;stroke-width:0" id="rect8719-3-2-7-4-3" d="m 17.5086,17.1086 c -0.0052,0.05912 -0.0096,0.119055 -0.0096,0.179597 v 10.1476 c 0,1.09138 0.863839,1.97048 1.93625,1.97048 h 10.3194 c 1.07242,0 1.93626,-0.879101 1.93626,-1.97048 v -10.1476 c 0,-0.06053 -0.0021,-0.120491 -0.0072,-0.179597 h -14.175 z "/>
<rect width="3.1226337" x="26.555721" y="25.161228" rx="1.5613168" height="9.8203564" ry="1.5613168" style="stroke:none" id="c-4-8-9-1-4-9"/>
<rect width="3.1226337" x="13.429009" y="18.011839" rx="1.5613168" height="9.8203564" ry="1.5613168" style="stroke:none" id="c-4-9-2-9-2-9"/>
<rect width="3.1226337" x="32.638481" y="18.011839" rx="1.5613168" height="9.8203564" ry="1.5613168" style="stroke:none" id="c-4-1-7-3-8-4"/>
<path style="stroke:none" id="path4090-4-4-4-8" d="m 23.8125,10.4375 c -3.49227,0.336914 -6.20654,2.88316 -6.25,6 h 14.0625 c -0.04346,-3.11684 -2.75773,-5.66309 -6.25,-6 h -1.5625 z  m -2.0938,2.4062 a 0.807709,0.788925 0 0,1 0.78125,0.8125 0.8125,0.793605 0 1,1 -1.625,0 0.807709,0.788925 0 0,1 0.84375,-0.8125 z  m 5.8438,0 a 0.807709,0.788925 0 0,1 0.1875,0 0.807709,0.788925 0 0,1 0.78125,0.8125 0.8125,0.793605 0 0,1 -1.625,0 0.807709,0.788925 0 0,1 0.65625,-0.8125 z "/>
<path style="stroke:#fff;stroke-linejoin:round;stroke-linecap:round;stroke-width:.5" id="path4160-1-3-5-6" d="m 18.0973,10.1318 1.6471,2.8528"/>
<path style="stroke:#fff;stroke-linejoin:round;stroke-linecap:round;stroke-width:.5" id="path4160-9-0-1-7-9" d="m 31.0928,10.1318 -1.6471,2.8528"/>
</g>
</svg>
