<svg width="48" version="1.1" xmlns="http://www.w3.org/2000/svg" height="48">
<g style="fill:#2c3e50" id="layer1" transform="matrix(1.1470591,0,0,0.91864444,-3.5294177,1.9525339)">
<path id="rect4090" d="M 0,0 0,40 34,40 33.79661,0.01694915 23,0 z" transform="translate(7,4)"/>
</g>
<g id="g3082" transform="matrix(0.73931747,0,0,0.81070128,-16.668867,-22.554584)">
<path style="fill:#999;fill-rule:evenodd;stroke:#2c3e50;stroke-width:1.292" id="path3813" d="m 696.8914,357.5783 c 0,39.9626 -32.7106,72.3587 -73.0612,72.3587 -40.3506,0 -73.0612,-32.3961 -73.0612,-72.3587 0,-39.9626 32.7106,-72.3587 73.0612,-72.3587 40.3506,0 73.0612,32.3961 73.0612,72.3587 z " transform="matrix(0.06916233,0.04968085,-0.02993579,0.04167458,29.006594,-3.9642632)"/>
<path style="fill:#f39c12" id="path3817" d="m 42.9858,73.8023 .863,-.1388 c 0,0 2.1237,-3.37589 6.37488,-7.33914 4.25118,-3.96325 9.44525,-4.78764 9.44525,-4.78764 0,0 0.152685,-6.01357 1.39517,-9.51596 1.33569,-3.76513 4.14419,-6.85695 4.14419,-6.85695 0,0 -0.239462,-3.5763 -2.92038,-5.12413 -2.66354,-1.5378 -4.33121,-0.38648 -4.33121,-0.38648 0,0 -1.17213,3.06691 -3.63829,7.19719 -1.77166,2.96714 -4.64258,7.67551 -4.64258,7.67551 0,0 -2.25284,5.40942 -3.37939,8.62047 -1.12655,3.21105 -3.31061,10.656 -3.31061,10.656 z "/>
<g style="stroke:#4d4d4d">
<path style="fill:#4d4d4d;fill-rule:evenodd;stroke-width:1.292" id="path3825" d="m 453.8224,587.2996 c 0,15.5195 -4.24609,28.1005 -9.48391,28.1005 -5.23782,0 -9.4839,-12.581 -9.4839,-28.1005 0,-15.5195 4.24608,-28.1005 9.4839,-28.1005 5.23782,0 9.48391,12.581 9.48391,28.1005 z " transform="matrix(0.04796144,0.02947173,-0.02947173,0.04796144,46.824069,14.385625)"/>
<path style="fill:none;stroke-width:.164" id="path3827" d="m 50.4255,56.2301 c 0,0 -1.86236,3.15234 -3.64986,7.52227 -1.7875,4.36994 -3.42731,9.88133 -3.42731,9.88133"/>
</g>
</g>
</svg>
