<svg width="48" version="1.1" xmlns="http://www.w3.org/2000/svg" height="48">
<path style="fill:#203040" id="rect4090" d="m 4.517,5.6407 0,36.7208 38.961,0 0,-36.6958 -12.605,-.0251 z "/>
<rect width="32.313984" x="10.199812" y="15.82008" height="25.312376" style="fill:#ccc" id="rect813"/>
<rect width="2.2918258" x="26.242592" y="20.410185" height="10.098228" style="fill:none" id="rect3288"/>
<g style="fill:#203040" id="shape0" transform="scale(0.95674452,1.0452111)">
<path id="path4142" d="m 15.0825,25.2964 0,6.2511 .8509,0 q 1.4547,0 2.22323,-0.802831 0.768523,-0.802832 0.768523,-2.33301 0,-1.52332 -0.768523,-2.31929 -0.761661,-0.79597 -2.22323,-0.79597 h -0.850864 z  m -2.381,-1.9968 2.5114,0 q 2.09971,0 3.12212,0.336229 1.02927,0.329366 1.76348,1.12534 0.651871,0.693043 0.967515,1.5988 0.315643,0.905759 0.315643,2.05168 0,1.15965 -0.315643,2.07227 -0.315644,0.905759 -0.967515,1.5988 -0.741076,0.795969 -1.77721,1.1322 -1.03613,0.329367 -3.1084,0.329367 h -2.51142 v -10.2447 z "/>
<path id="path4144" d="m 27.4269,25.0287 q -1.08417,0 -1.68801,0.892035 -0.596977,0.892035 -0.596977,2.51142 0,1.61252 0.596977,2.50456 0.603839,0.892035 1.68801,0.892035 1.09103,0 1.68801,-0.892035 0.603839,-0.892036 0.603839,-2.50456 0,-1.61939 -0.603839,-2.51142 -0.596978,-0.892035 -1.68801,-0.892035 z  m 0,-1.9144 q 2.22323,0 3.47894,1.41353 1.26257,1.41353 1.26257,3.90437 0,2.48397 -1.26257,3.89751 -1.25571,1.41353 -3.47894,1.41353 -2.21636,0 -3.47894,-1.41353 -1.26257,-1.41353 -1.26257,-3.89751 0,-2.49084 1.26257,-3.90437 1.26257,-1.41353 3.47894,-1.41353 z "/>
<path id="path4146" d="m 40.3889,23.6221 0,2.1683 q -0.754799,-0.377399 -1.48215,-0.56953 -0.72049,-0.19213 -1.3655,-0.19213 -0.850864,0 -1.26257,0.260748 -0.404846,0.260749 -0.404846,0.809694 0,0.411708 0.274472,0.64501 0.274472,0.226439 1.00182,0.391123 l 1.0087,.2264 q 1.54391,0.343091 2.18892,1.043 0.64501,0.699905 0.64501,1.98992 0,1.69487 -0.905759,2.52514 -0.898897,0.823417 -2.75845,0.823417 -0.878311,0 -1.76349,-0.185269 -0.878311,-0.185269 -1.76348,-0.548944 v -2.23009 q 0.885173,0.521497 1.70859,0.789108 0.823417,0.260749 1.59194,0.260749 0.775385,0 1.18709,-0.288196 0.418571,-0.288196 0.418571,-0.823417 0,-0.480327 -0.281335,-0.741076 -0.281334,-0.260748 -1.12534,-0.466603 l -.9195,-.2264 q -1.37922,-0.329367 -2.02423,-1.04986 -0.638148,-0.72049 -0.638148,-1.94189 0,-1.53018 0.892035,-2.3536 0.892035,-0.823417 2.55259,-0.823417 0.76166,0 1.56449,0.130374 0.802832,0.123513 1.66056,0.3774 z "/>
</g>
</svg>
