<svg width="48" version="1.1" xmlns="http://www.w3.org/2000/svg" height="48">
<path style="fill:#34495e" d="M 3,3 V 45 H 45 V 3 Z"/>
<path style="fill:#eff6fa;fill-rule:evenodd;color:#000" d="m 24,8.2969 c -4.06671,0 -7.375,2.64932 -7.375,5.90625 0,2.92254 2.66503,5.32932 6.15039,5.79297 l -.1406,19.6035 2.8418,.1035 c 0.002022,-1.2318 0,-0.727201 0.001954,-1.84766 0.378425,0.33913 1,0.560547 1.70703,0.560547 1.15891,0 2.0918,-0.59453 2.0918,-1.33203 0,-0.737502 -0.932886,-1.33203 -2.0918,-1.33203 -0.704925,0 -1.32645,0.220514 -1.70508,0.558594 0.003117,-1.95155 0.003492,-1.95998 0.005859,-3.50977 0.311185,0.241589 0.722772,0.388672 1.17578,0.388672 0.97454,0 1.75977,-0.678625 1.75977,-1.52148 0,-0.842859 -0.785226,-1.52148 -1.75977,-1.52148 -0.451943,0 -0.862902,0.144191 -1.17383,0.384766 0.005668,-3.88721 0.016828,-10.3371 0.015625,-10.5762 3.34782,-0.551669 5.87109,-2.90775 5.87109,-5.75195 0,-3.25693 -3.30824,-5.90625 -7.375,-5.90625 z  m -.125,1.7812 c 3.15094,0 5.6875,1.79933 5.6875,4.03125 0,2.23192 -2.53656,4.0625 -5.6875,4.0625 -3.15094,0 -5.71875,-1.83058 -5.71875,-4.0625 0,-2.23192 2.56781,-4.03125 5.71875,-4.03125 z "/>
</svg>
