<svg width="48" version="1.1" xmlns="http://www.w3.org/2000/svg" height="48">
<path style="fill:#d40000" id="rect4090" d="M 3,3 V 45 H 45 V 3 Z"/>
<g style="fill-rule:evenodd;stroke:none" id="g1456" transform="matrix(1.2382368,0,0,1,-5.7015861,-2.8011549)">
<rect width="1.5668042" x="29.642065" y="3.0519679" rx="0" ry="0.22379062" height="1.1189522" id="rect1442" transform="matrix(0.92271433,0.38548446,-0.64253629,0.76625526,0,0)"/>
<rect width="1.5668042" x="6.6159945" y="-24.574127" rx="0" height="1.1189522" ry="0.22379062" id="rect1444" transform="matrix(0.92271433,-0.38548446,-0.64253629,-0.76625526,0,0)"/>
<path id="path1446" d="m 23.8856,18.0846 c -1.14637,-4.36528 -2.96422,-8.28891 -4.7442,-12.2834 h 9.6912 c -2.06927,3.85446 -3.49843,8.04684 -4.947,12.2834 Z "/>
<g style="fill:#34495e" id="g1454">
<rect width="1.4525524" x="29.250229" y="2.3100381" rx="0" height="1.0695896" ry="0.21391809" id="rect1448" transform="matrix(0.91279566,0.40841655,-0.61647492,0.78737454,0,0)"/>
<rect width="1.4525524" x="7.5924802" y="-24.557444" rx="0" ry="0.21391809" height="1.0695896" id="rect1450" transform="matrix(0.91279566,-0.40841655,-0.61647492,-0.78737454,0,0)"/>
<rect width="1.4525524" x="29.465361" y="2.1984472" rx="0" ry="0.21391809" height="1.0695896" id="rect1452" transform="matrix(0.91279566,0.40841655,-0.61647492,0.78737454,0,0)"/>
</g>
</g>
<g id="g1516">
<rect width="7.9695606" x="20.002359" y="13.409226" height="15.784723" style="fill:#34495e;fill-rule:evenodd;stroke:#003bc3;stroke-linecap:square;stroke-width:0;stroke-miterlimit:2.013" id="shape0"/>
<rect width="4.7816172" x="23.218382" y="13.409226" height="1.5029116" style="fill:#ecf0f1;fill-rule:evenodd;stroke:#003bc3;stroke-linecap:square;stroke-width:0;stroke-miterlimit:2" id="shape4"/>
<rect width="4.7816172" x="20.036551" y="14.916263" height="1.5029116" style="fill:#ecf0f1;fill-rule:evenodd;stroke:#003bc3;stroke-linecap:square;stroke-width:0;stroke-miterlimit:2" id="shape5"/>
<rect width="4.7816172" x="23.213497" y="16.419291" height="1.5029116" style="fill:#ecf0f1;fill-rule:evenodd;stroke:#003bc3;stroke-linecap:square;stroke-width:0;stroke-miterlimit:2" id="shape6"/>
<rect width="4.7816172" x="20.036551" y="17.924862" height="1.5029116" style="fill:#ecf0f1;fill-rule:evenodd;stroke:#003bc3;stroke-linecap:square;stroke-width:0;stroke-miterlimit:2" id="shape7"/>
<rect width="4.7816172" x="23.213497" y="19.42798" height="1.5029116" style="fill:#ecf0f1;fill-rule:evenodd;stroke:#003bc3;stroke-linecap:square;stroke-width:0;stroke-miterlimit:2" id="shape8"/>
<rect width="4.7816172" x="20.004717" y="20.933645" height="1.5029116" style="fill:#ecf0f1;fill-rule:evenodd;stroke:#003bc3;stroke-linecap:square;stroke-width:0;stroke-miterlimit:2" id="shape9"/>
<rect width="4.7816172" x="23.181494" y="22.436672" height="1.5029116" style="fill:#ecf0f1;fill-rule:evenodd;stroke:#003bc3;stroke-linecap:square;stroke-width:0;stroke-miterlimit:2" id="shape10"/>
<rect width="4.7816172" x="20.004717" y="23.942337" height="1.5029116" style="fill:#ecf0f1;fill-rule:evenodd;stroke:#003bc3;stroke-linecap:square;stroke-width:0;stroke-miterlimit:2" id="shape11"/>
<rect width="4.7816172" x="23.181833" y="25.445362" height="1.5029116" style="fill:#ecf0f1;fill-rule:evenodd;stroke:#003bc3;stroke-linecap:square;stroke-width:0;stroke-miterlimit:2" id="shape12"/>
<rect width="4.7816172" x="20" y="26.95244" height="1.5029116" style="fill:#ecf0f1;fill-rule:evenodd;stroke:#003bc3;stroke-linecap:square;stroke-width:0;stroke-miterlimit:2" id="shape13"/>
<rect width="7.9575529" x="20.016508" y="28.578419" height="10.016577" style="fill:#ecf0f1;fill-rule:evenodd;stroke:#003bc3;stroke-linecap:square;stroke-width:0;stroke-miterlimit:2" id="shape17"/>
<rect width="4.6644192" x="21.693239" y="29.578436" height="2.3696082" style="fill:#2c3e50;fill-rule:evenodd;stroke:#003bc3;stroke-linecap:square;stroke-width:0;stroke-miterlimit:2" id="shape18"/>
</g>
</svg>
