<svg width="48" version="1.0" xmlns="http://www.w3.org/2000/svg" height="48">
<g style="stroke:none;fill-rule:evenodd">
<g style="fill:#ecf0f1">
<path id="path4141" d="m 30,3 0,6 6,0 0,-6 z"/>
<path id="path1306" d="M 12,3.0137 12.0176,24 0,24 24,45 48,24 36.002,24 36,15 30.0156,14.9941 30,9 23.998,9 24,12 21,12 20.9863,6.0098 18.076,6.0196 18.0878,3.0333 Z"/>
</g>
<g style="fill:#b2b9be">
<g style="stroke-opacity:0;stroke-linecap:square;stroke-width:4">
<path id="path4381" d="m 30,3 0,2.9902 3.166,0 0,-2.9902 -3.166,0 z "/>
<path id="path4335" d="m 33.1775,6.0098 0,2.9902 2.8225,0 v -2.99024 h -2.82246 z "/>
</g>
<path id="path4284" d="m 12,3.0137 l .002,2.9902 h 2.9082 v -2.98047 l -2.9102,-.0098 z  m 2.9102,2.9902 v 2.99023 h 3.16602 v -2.97461 -0.015625 h -3.16602 z  m 3.166,2.9902 v 2.99023 h 2.91016 v -2.99023 h -2.91016 z  m 0,2.9902 h -3.16602 v 2.99023 h 3.16602 v -2.99023 z  m 0,2.9902 v 2.99024 h 2.91016 v -2.99024 h -2.91016 z  m 0,2.9902 h -3.16797 v 2.99023 h 3.16602 l .002,-2.9902 z  m -.002,2.9902 v 2.99023 h 2.91016 v -2.99023 h -2.91016 z  m 0,2.9902 h -3.16602 v 2.99023 h 3.16602 v -2.99023 z  m 0,2.9902 v 2.99023 h 2.91016 v -2.99023 h -2.91016 z  m 0,2.9902 h -3.16602 v 2.99023 h 3.16602 v -2.99023 z  m 0,2.9902 v 2.99023 h 2.91016 v -2.99023 h -2.91016 z  m 2.9102,2.9902 v 2.99023 h 2.91016 v -2.99023 h -2.91016 z  m 0,2.9902 h -2.91016 v 0.917969 l 2.3672,2.0723 h 0.542969 v -2.99023 z  m -6.0762,-5.9805 h -2.91016 v 1.58203 l 1.6094,1.4082 h 1.25586 v 1.09961 l 2.1387,1.8711 h 1.02734 l .002,-2.9902 h -3.12305 v -2.9707 z  m -2.9102,0 v -2.99023 h -2.91016 v 2.02539 l 1.1016,.9648 h 1.80859 z  m -2.9102,-2.9902 v -2.99023 h -2.91016 v 2.4707 l .5938,.5195 h 2.31641 z  m -2.9102,-2.9902 v -2.93555 h -2.91016 v 2.85938 l .0879,.0762 h 2.82227 z  m 2.9102,0 h 2.91016 v -2.93555 h -2.91016 v 2.93555 z  m 2.9102,0 v 2.99023 h 2.91016 v -2.99023 h -2.91016 z  m 2.9102,-2.9902 v -2.99023 h -2.89258 l .002,2.9902 h 2.89062 z  m 0,-5.9805 l .002,-2.9902 h -2.90039 l .002,2.9902 h 2.89648 z  m .002,-5.9805 v -2.99023 h -2.9043 l .002,2.9902 h 2.90234 z  m 9.0898,-2.9746 v 2.99023 h 3.16602 v -2.99023 h -3.16602 z  m -2.9707,2.9941 v 2.99024 h 2.91016 v -2.99024 h -2.91016 z  m 2.9102,2.9902 v 2.99023 h 3.16602 v -2.99023 h -3.16602 z  m 3.166,0 h 2.91016 l -.0078,-2.9902 h -2.90234 v 2.99024 z  m 0,2.9902 v 2.99023 h 2.91602 v -2.98438 h 2.8125 v -2.99023 h -2.83203 l -.002,2.9844 h -2.89453 z  m 5.7285,.0059 v 2.99023 h 3.16602 v -2.99023 h -3.16602 z  m 3.166,2.9902 v 2.99023 h 0.001953 v -2.99023 h -0.001953 z  m 0,2.9902 h -3.16602 l -.002,2.9902 h 3.16797 v -2.99023 z  m 0,2.9902 l -.002,2.9902 h 2.91016 l .002,-2.9902 h -2.91016 z  m 2.9102,0 h 2.91016 v -2.96094 h -2.91016 v 2.96094 z  m 2.9102,0 l -.002,2.4473 2.7969,-2.4473 h -2.79492 z  m -2.9121,2.9902 v 2.00391 l 2.291,-2.0039 h -2.29102 z  m -2.9102,0 h -3.16602 v 2.99023 h 3.16602 v -2.99023 z  m 0,2.9902 v 1.56055 l 1.7832,-1.5605 h -1.7832 z  m -3.166,0 h -2.83203 v 2.99023 h 2.78906 v 1.37695 l 1.5977,-1.3965 h -1.55469 v -2.9707 z  m 0,-2.9902 v -2.99023 h -2.83203 v 2.98437 h -2.89648 v 2.99023 h 2.91797 v -2.98438 h 2.81055 z  m -5.7285,2.9844 h -3.16602 v 2.99023 h 3.12305 v 2.9707 h 2.91602 v -2.99023 h -2.87305 v -2.9707 z  m 2.873,5.9609 v 0.873047 l .998,-.873 h -0.998047 z  m -6.0391,-5.9609 v -2.99023 h -2.91016 v 2.99023 h 2.91016 z  m 0,-2.9902 h 3.16602 l .002,-2.9902 h -3.16797 v 2.99023 z  m 0,-2.9902 l .002,-2.9902 h -2.91016 l -.002,2.9902 h 2.91016 z  m .002,-2.9902 h 3.16602 v -2.99023 h -3.16602 v 2.99023 z  m 0,-2.9902 v -2.99023 h -2.91016 v 2.99023 h 2.91016 z  m 3.166,2.9902 v 2.99023 h 2.91602 v -2.98438 h 2.8125 v -2.99023 h -2.83398 v 2.98438 h -2.89453 z  m -3.168,14.9512 v 2.99023 h 3.16602 v -2.99023 h -3.16602 z "/>
</g>
</g>
</svg>
