<svg width="48" version="1.1" xmlns="http://www.w3.org/2000/svg" height="48">
<path style="opacity:.2" d="M 4,4 V 46 H 46 V 4 Z"/>
<path style="fill:#ecf0f1;stroke-width:1.024" d="m 3,3 v 42 h 42 v -42 Z "/>
<g style="stroke-width:.667">
<path style="fill:#c1a27b" d="m 6,16.7478 h 24 c 1.108,0 2,0.892 2,2 v 23.2522 c 0,1.108 -0.892,2 -2,2 h -24 c -1.108,0 -2,-0.892 -2,-2 v -23.2522 c 0,-1.108 0.892,-2 2,-2 z "/>
<path style="fill:#3c2510" d="m 31.891,22.5875 v 4.99346 c 0,1.07841 -1.44884,1.04629 -2.50292,1.04629 h -23.3317 c -1.05408,0 -1.90267,0.03212 -1.90267,-1.04629 v -4.99346 z "/>
</g>
<g style="fill:#d4b791;stroke-width:.681">
<path d="m 6.0875,16.7743 c -2.08226,0.039152 -2.08749,0.004866 -2.08749,1.94218 v 7.76866 c 0,1.95059 0.084963,1.89845 2.08698,1.94218 l 12.5255,-.9139 v -11.3865 Z "/>
<path d="m 30.0875,16.7743 c 1.86917,0.03915 1.9125,0.04402 1.9125,1.94218 v 7.76866 c 0,1.99433 -0.163968,1.98591 -1.9125,1.94218 l -11.4751,-.9139 v -11.3865 Z "/>
</g>
<g style="stroke-width:.667">
<path style="opacity:.5;fill:#3a240f" d="m 19.9857,16.1854 h -3.93226 l .0195,8.2091 .0437,9.8725 1.845,-.1688 1.9608,-.1792 .0106,-1.8939 .0331,-7.6307 .0195,-8.2091 z "/>
<path style="fill:#d8cab2" d="m 19.9661,16.144 -1.9661,-.144 l -1.9661,.144 .0195,8.3709 .0437,9.4278 1.845,-.1612 1.9608,-.1711 .0106,-1.8085 .0331,-7.2869 .0195,-8.3709 z "/>
<path style="opacity:.2;fill:#8d6137" d="m 17.6756,16.1395 h 0.324431 v 11.5272 h -0.324431 Z "/>
<path style="opacity:.2;fill:#fff" d="m 18,16.1395 h 0.324431 v 11.5272 h -0.324431 Z "/>
</g>
<path style="opacity:.2;fill:#8d6137;stroke-linecap:round;stroke-width:.081" d="m 16.0682,27.7035 3.8607,-.0853 .0019,1.0092 -3.8724,0 z "/>
<g style="fill-rule:evenodd">
<path style="fill:#007d00" d="m 33.6251,28.0298 c 0.239932,0.688037 0.457644,1.5309 0.573152,2.037 0,0.563437 -0.106701,0.62981 -0.655028,0.377237 -0.376162,-0.173282 -1.14563,-1.10467 -1.63757,-1.22557 -1.05078,-0.2583 -2.56281,-0.035 -3.19328,0.754473 -0.508875,0.637255 -0.352227,1.86906 -0.327516,2.20628 0.700287,-0.658701 2.17845,-1.13776 3.19327,-0.829819 0.44003,0.133509 0.15968,0.616191 0.491273,-0.07547 0.383293,-0.799528 1.24015,-0.529009 1.96509,-0.377236 0.194052,0.08941 0.08188,0.864691 0.08188,1.05617 0,0.415737 1.14712,0.203191 1.37409,0.150946 -0.167594,-0.901792 -0.265432,-1.85067 -0.245636,-2.71607 0.01917,-0.837964 0.119254,-1.43061 0.655029,-2.03694 0.0965,-0.0889 0.163758,-0.201155 0.245636,-0.301828 0.322565,-0.396264 -1.09367,0.253273 -1.47382,0.603592 -0.353608,0.325818 -0.08188,-0.143309 -0.08188,-0.603592 -0.308717,-1.91959 -1.3511,-3.87883 -1.39194,-5.80924 0,-0.5201 0.0171,-0.663218 -0.245637,-0.905355 -0.377746,-0.348027 -1.12845,0.06497 -1.12845,0.377237 -0.236879,2.65937 1.44431,5.07411 1.80132,7.31819 z "/>
<path style="fill:#fa8f00" d="m 32.988,3.0037 c -1.12291,0.230428 -1.44079,2.07868 -2.77121,1.7458 -1.66666,-0.091191 -3.44235,0.5978 -5.0151,-0.210891 -1.71268,-0.141082 -1.56598,2.62468 -3.44129,2.37364 -1.94191,0.416373 -4.06084,1.50265 -4.58028,3.58413 -0.373477,1.28406 -0.175045,2.72128 0.679822,3.77224 1.05078,1.61019 2.38639,3.08465 4.01728,4.11295 1.19609,0.587618 2.56508,0.589336 3.81609,1.00285 0.21582,0.162909 0.677295,0.704519 0.833955,0.833955 l .0633,.0813 c -0.630011,0.625801 -1.73626,1.02525 -1.02703,2.11419 0.415957,2.01676 1.94134,3.93432 3.98644,4.42617 1.70544,-0.132173 0.831888,-2.31306 1.40183,-3.33423 0.904751,-1.83177 2.98664,-0.967019 4.20548,-0.02609 1.28329,0.850246 1.85661,-1.30232 3.05676,-0.245 0.820808,-0.374182 1.70391,-1.81517 2.68684,-2.46114 0.761817,-1.07762 -0.249284,-2.75113 1.39696,-3.20129 1.06709,-0.812764 1.17912,-2.31388 2.11248,-3.25309 0.998857,-1.05369 0.779,-3.40608 -1.04488,-3.20441 -1.18932,-0.01082 -3.45366,1.57538 -3.67655,-0.397409 -0.628002,-1.92049 -1.08761,-4.09367 -2.78743,-5.38994 -1.02547,-0.933483 -2.34533,-1.435 -3.45265,-2.23256 -0.132859,-0.0957092 -0.409604,-0.101691 -0.460766,-0.091191 Z "/>
<path style="fill:#ffae00" d="m 25.3039,14.0645 c 1.12363,0.951364 2.57824,1.68649 4.08217,1.67446 1.42173,-0.06497 2.85794,-1.37181 4.25903,-0.55491 1.12577,0.403964 2.53732,1.5932 1.26554,2.72256 -0.893646,0.518573 -1.84911,0.961864 -2.47754,1.81873 -0.955214,0.805892 -2.16266,1.22615 -3.27742,1.7556 -1.15537,0.669518 -2.21114,-0.739583 -2.50836,-1.2299 -0.01066,0.01145 -0.02633,0.01973 -0.03732,0.03055 0,0 0,0 0,0.0083 0,0 -0.0017,0 -0.0017,0 0,0 0,0 0,0 0,0 0.0011,0 0.0017,0 0,-0.03309 -0.06486,-0.154509 -0.241751,-0.430055 -1.00307,-1.07698 -1.12582,-2.76138 -0.963755,-4.1664 0.656022,-0.186009 0.139469,-1.05306 -0.100593,-1.62095 z "/>
<path style="fill:#bb5804" d="m 32.131,3.9649 c -0.645102,0.642537 -0.288996,2.40877 -1.37587,2.4143 0.972485,0.169973 0.945268,0.746455 -0.04192,0.522328 -1.16884,-0.133191 -2.81029,-0.342173 -3.43242,0.930682 -0.801583,1.08596 -0.585984,2.46127 0.133791,3.50172 0.152244,1.58347 2.00336,0.425219 3.03003,0.635983 1.28588,-0.455573 2.74768,-1.54573 2.41326,-3.09884 -0.20447,-1.10708 1.48507,-0.748428 0.683405,-1.84641 -0.81153,-0.440364 -2.02849,-2.22772 -0.319966,-2.22874 1.75344,0.351337 2.47917,2.16103 3.56491,3.36847 0.848445,1.17059 1.3892,2.55195 1.42988,4.00547 0.186726,1.03327 0.785643,2.38516 -0.258461,3.16521 -1.08727,0.610464 1.11465,0.285091 0.896936,-0.596655 0.175024,-1.02098 1.68316,-2.00792 2.39731,-1.7248 -0.653559,0.493883 -2.25836,2.20214 -0.674782,2.48965 0.476977,0.04645 1.24219,0.171564 0.269112,0.08915 -1.35931,-0.474473 -2.57462,0.439219 -3.25197,1.55298 -0.612829,0.329827 0.120182,-1.47917 -0.485752,-1.85138 0.539329,-1.5 -0.413112,-2.96749 -1.78444,-3.59278 -1.22974,-0.282546 -1.63561,-2.3226 -1.87806,-2.80338 -0.204154,1.55107 -1.19097,2.80738 -2.76874,3.19315 1.09206,0.03118 2.12331,0.610782 3.25676,0.518318 0.625628,0.273064 2.51181,-0.257727 2.08638,0.736719 -1.35867,0.2 -2.66221,-0.486182 -4.02619,-0.437564 -1.45605,-0.285214 -2.95149,-0.356614 -4.41608,-0.327787 -0.947018,-0.775664 -1.08926,-2.25438 -1.21084,-3.42548 -0.156264,-1.06795 1.09981,-1.91654 1.35173,-2.45732 -0.883909,-0.754155 -2.4105,0.0222727 -2.88272,0.954037 -0.483975,0.997055 -1.09313,1.95122 -1.23339,3.06887 -0.366114,0.879965 -0.178392,2.03414 0.984201,1.94174 -0.308395,1.22284 -1.75225,-0.873664 -2.00852,-1.50672 -0.198633,-1.37836 0.93466,-2.46655 1.50487,-3.60774 0.904121,-0.804173 1.98903,-1.70654 3.24497,-1.7129 0.826516,-0.278918 1.26341,0.706173 2.02486,0.259509 1.45831,0.424964 1.90378,-0.675373 2.34383,-1.75484 0.122584,-0.147445 0.252706,-0.296164 0.433863,-0.374946 z "/>
<g style="fill:#a43500">
<path d="m 22.9672,7.6512 c -0.626628,1.56488 -1.43221,3.56141 -0.265336,5.07399 0.743789,0.950983 2.04949,1.67122 1.74677,3.08274 -0.05139,0.892437 -0.1,2.32642 -1.10181,1.25027 -1.12686,-0.528183 -1.61987,-1.72989 -2.68644,-2.35035 -0.873741,-0.576673 -2.33376,-2.06697 -1.75743,-2.75444 0.544829,1.22405 1.5402,2.59967 2.99632,2.67489 1.85663,-0.161509 -0.534305,-1.834 -0.650746,-2.8315 -0.73334,-1.30556 -0.457389,-3.19652 0.961298,-3.91167 0.235752,-0.122246 0.493218,-0.203955 0.757368,-0.233927 z "/>
<path d="m 30.132,8.3781 c 0.826789,-0.270582 2.2709,0.891037 2.14858,1.12325 -1.16841,-1.0899 -0.235442,0.733664 -0.542941,1.21106 0.517155,-0.856609 -1.22964,-2.02116 -1.29772,-1.38746 0.646565,0.280064 0.969666,1.372 0.289157,1.70075 0.755033,-0.71031 -0.30872,-2.00474 -0.960509,-1.22017 1.21278,1.07628 -1.85836,0.686382 -0.744578,-0.478164 0.233153,-0.389073 0.6755,-0.8 1.10801,-0.949264 z "/>
</g>
</g>
</svg>
