<svg width="48" version="1.1" xmlns="http://www.w3.org/2000/svg" height="48">
<g id="layer1" transform="matrix(1.1470591,0,0,0.91852198,-3.5294177,1.9552552)">
<path style="fill:#ecf0f1" id="rect4090" d="M 0,0 0,40 34,40 34,-0.00533305 23,0 z" transform="translate(7,4)"/>
<g style="stroke-width:0;stroke-linecap:square;stroke:#003bc3;fill:#2c3e50;stroke-miterlimit:2;fill-rule:evenodd">
<path id="shape0" d="M 2.75685,0 4.49758,0.363529 1.61324,17.0647 C 1.503,15.1992 0.965247,13.9112 0,13.2009 1.22527,7.33386 2.14422,2.93354 2.75685,0 z" transform="translate(19.3136,23.8462)"/>
<path id="shape11" d="m 3.6068,.0001 c -1.78779,0.0155568 -3.60678,1.77768 -3.60678,3.62108 0,1.84339 1.76511,3.60563 3.61168,3.60563 1.84656,0 3.60577,-1.79335 3.60577,-3.60563 0,-1.81229 -1.82288,-3.63664 -3.61067,-3.62108 z  m 0,1.673 c 1.07888,0 1.94685,0.86856 1.94685,1.94812 0,1.07956 -0.86797,1.9481 -1.94685,1.9481 -1.07886,0 -1.94686,-0.86854 -1.94686,-1.9481 0,-1.07956 0.868,-1.94812 1.94686,-1.94812 z " transform="translate(20.2971,18.4524)"/>
<path id="shape1" d="M 1.75208,0 0,0.365899 2.895,17.2129 C 3.01,15.321 3.55671,14.0255 4.53516,13.3266 z" transform="translate(23.9444,23.8094)"/>
<rect width="1.9610876" x="0" y="0" rx="0.98054379" height="4.3886003" ry="1.0073068" id="shape2" transform="translate(22.9664,15.238)"/>
<rect width="12.515334" x="0" y="0" height="0.90020764" id="shape3" transform="translate(17.6214,32.6292)"/>
<rect width="1.2690742" x="0" y="0" rx=".6345" height="3.4857237" ry="0.53626519" id="shape4" transform="translate(23.2506,31.308)"/>
</g>
</g>
</svg>
