<svg width="48" version="1.1" xmlns="http://www.w3.org/2000/svg" height="48" xmlns:xlink="http://www.w3.org/1999/xlink">
<defs id="defs4">
<clipPath id="clip0">
<rect width="640" height="409" id="rect7"/>
</clipPath>
</defs>
<g style="stroke:none">
<rect width="40.87833" x="3.5608358" y="4.1216722" rx="2.9198806" height="40.87833" ry="0" style="fill:#c1d084" id="rect2419"/>
<rect width="39.956001" x="3.9800367" y="5.9614763" rx="2.8539999" height="11.679523" ry="2.9198806" style="fill:#3c2510" id="rect2483"/>
<g style="fill:#c1d084" id="g30">
<path id="rect2481" d="M 6.855,4.1614 C 3.86179,4.220128 3.85427,4.1687 3.85427,7.07467 l 0,7.65272 c 0,2.92589 0.122133,2.84767 3.00073,2.91327 l 18.0044,-0.9711 0,-13.4793 z"/>
<path id="path3262" d="m 41.3546,4.1614 c 2.6869,0.058728 2.7492,0.066026 2.7492,2.91327 v 7.65272 c 0,2.99148 -0.235701,2.97887 -2.7492,2.91327 l -16.4952,-.9711 v -13.4793 z "/>
</g>
</g>
<path style="opacity:.5;fill:#3a240f" id="path5008" d="m 26.9785,3.2781 -5.8984,0 .0293,12.3137 .0655,4.8086 2.7675,-.2532 2.9412,-.2688 .0159,-2.8408 .0496,-1.4458 .0293,-12.3137 z "/>
<path style="fill:#e4eebc" id="polygon120" d="m 26.9492,3.216 -2.9492,-.216 l -2.9492,.216 .0293,12.5563 .0655,4.1414 2.7675,-.2418 2.9412,-.2567 .0159,-2.7128 .0496,-.9301 .0293,-12.5563 z "/>
<g style="stroke:none" id="g36">
<rect width="0.48664677" x="23.513353" y="3.2090001" height="11.896" style="opacity:.2;fill:#8d6137" id="rect4363"/>
<rect width="0.48664677" x="24" y="3.2090001" height="11.896" style="opacity:.3;fill:#fff" id="rect4365"/>
</g>
<g id="layer1-0" transform="matrix(1.086497,0,0,1.086497,-2.6474449,0.93752832)">
<g style="stroke:none" id="g3999">
<path id="path16" d="m 20.6943,21.2467 c 0.60093,-0.14252 1.20702,-0.246709 1.81454,-0.296083 0.107928,-0.03969 0.219564,-0.03158 0.329825,-0.03766 0.862001,-0.04244 1.72519,-0.04052 2.58683,0.0194 1.55517,0.169777 3.10247,0.568559 4.60269,1.23331 l -.0064,.013 c -0.219942,0.459132 -0.440528,0.91754 -0.656207,1.38139 -0.06462,0.0184 -0.121192,-0.04469 -0.17875,-0.07646 -1.13821,-0.724964 -2.34981,-1.14579 -3.56929,-1.37352 -2.00585,-0.317055 -4.0594,-0.06231 -5.98368,0.890395 -1.41676,0.70728 -2.78492,1.79789 -3.84139,3.44254 -0.748697,1.1818 -1.32353,2.71062 -1.40155,4.38572 -0.0726,0.798292 0.05123,1.5952 0.160765,2.36987 -0.418389,0.06588 -0.828261,0.224224 -1.24372,0.322844 -1.1692,0.323638 -2.33821,0.6493 -3.50774,0.970025 -0.011484,-1.29403 0.207293,-2.5743 0.555461,-3.74497 0.692508,-2.27938 1.89337,-4.10055 3.23143,-5.49492 0.904767,-0.937658 1.88278,-1.70261 2.89859,-2.30918 1.35329,-0.81665 2.7712,-1.37462 4.20855,-1.69571 z "/>
<path style="fill:#d72123" id="path20" d="m 29.3656,23.5601 c 0.215679,-0.463851 0.436265,-0.922259 0.656207,-1.38139 2.01432,0.910622 3.95952,2.34857 5.54846,4.4912 0.64971,0.898012 1.23734,1.91393 1.68866,3.06979 0.534444,1.36025 0.873112,2.91802 0.909349,4.51393 -1.57985,-0.426207 -3.15926,-0.856049 -4.7389,-1.28371 0.194416,-0.954437 0.196076,-1.9936 0.06294,-2.96759 -0.246735,-1.6833 -0.945884,-3.12855 -1.78922,-4.22564 -0.703025,-0.913074 -1.50507,-1.64484 -2.35483,-2.18036 l .0173,-.0362 z "/>
<path id="path24" d="m 23.5414,30.2833 c 0.09299,-0.233743 0.256733,-0.420186 0.442972,-0.385582 0.210506,0.0083 0.372722,0.276814 0.416331,0.580679 0.08706,0.125539 0.232805,0.07201 0.341594,0.13847 1.08458,0.287334 2.16908,0.58119 3.25182,0.883697 0.260119,0.05593 0.517378,0.139389 0.77647,0.20648 0.105935,0.03689 0.21549,0.04435 0.321037,0.08709 1.08367,0.293203 2.16828,0.580323 3.25037,0.886721 0.363864,0.08225 0.724308,0.197471 1.08737,0.288997 1.57964,0.427658 3.15905,0.8575 4.7389,1.28371 0.360439,0.108117 0.725165,0.18051 1.08398,0.302637 -0.02192,0.126214 -0.03859,0.254327 -0.04959,0.384047 -0.355992,-0.08577 -0.709462,-0.195849 -1.06501,-0.283534 -1.71867,-0.47635 -3.44101,-0.922651 -5.15849,-1.40805 -1.07398,-0.272696 -2.14454,-0.579353 -3.21728,-0.86484 -0.743989,-0.204075 -1.48954,-0.400666 -2.23299,-0.609515 -0.706208,-0.181004 -1.41009,-0.383266 -2.11576,-0.568666 -0.353454,-0.08905 -0.70442,-0.20344 -1.05878,-0.284398 -0.11845,0.318104 -0.393224,0.482391 -0.609094,0.294545 -0.149659,-0.100982 -0.200716,-0.348169 -0.26826,-0.555564 -0.0875,-0.0089 -0.174656,-0.02512 -0.260956,-0.04561 -0.216359,-0.07157 -0.43535,-0.122767 -0.6533,-0.180504 0.01233,-0.132835 0.02626,-0.265174 0.04191,-0.396973 0.313887,0.06591 0.622856,0.180475 0.936757,0.246169 z"/>
</g>
</g>
</svg>
