<svg width="48" version="1.1" xmlns="http://www.w3.org/2000/svg" height="48">
<g style="stroke:none" id="g8">
<rect width="42" x="3" y="3" height="42" style="fill:#ac9d93" id="rect824"/>
<g style="fill:#fff" id="g6">
<path style="fill-rule:evenodd" id="path4112" d="m 23.7529,12 v 17.1146 c -0.81742,-0.67696 -1.8834,-1.11464 -3.00411,-1.11457 -2.35728,0.00012 -4.49883,1.90577 -4.49883,3.99999 0,2.09423 2.14155,3.99987 4.49883,4 2.3573,0.00012 5.0048,-1.90554 5.0048,-4 v -14.1536 c 3.1399,1.67347 5.09673,4.74534 5.09673,8.02082 0,0.84214 -0.156504,1.66804 -0.430865,2.46353 0.840403,-1.31891 1.3306,-2.80349 1.3306,-4.33072 0,-2.44595 -0.94248,-4.77898 -2.88687,-6.49998 -0.897068,-0.794029 -3.07687,-2.26386 -3.10961,-5.43229 v -0.0677 h -0.0056 -1.9948 z "/>
<rect width="23" x="12.5" y="20.949152" height="1.5" id="rect2996"/>
<rect width="23" x="12.5" y="24.948999" height="1.5" id="rect3766"/>
</g>
</g>
</svg>
