<svg width="48" version="1.1" xmlns="http://www.w3.org/2000/svg" height="48">
<rect width="39.000011" x="4.4999952" y="5.627111" height="36.745777" style="fill:#5b6d71" id="rect813"/>
<g style="stroke:none;line-height:125%">
<path style="fill:#bdc3c7" id="path9" d="m 33.6952,21.155 c -0.525115,-1.96399 -0.292322,-2.34325 -2.20974,-1.79542 l -1.5468,.4419 c -0.607679,-0.883899 -1.49158,-1.6573 -2.43072,-2.20974 l .2486,-1.5192 c 0.341612,-2.08763 -0.518085,-1.6192 -2.29261,-1.85066 -1.97654,-0.264439 -2.46241,-0.85348 -2.76218,1.13249 l -.221,1.464 c -0.165731,0.05524 -0.386706,0.110488 -0.552433,0.165731 -0.662922,0.16573 -1.2706,0.497193 -1.82304,0.828653 l -1.1877,-.9115 c -1.60402,-1.23099 -1.65487,-0.346038 -2.76218,0.994385 -1.32476,1.5666 -1.95061,1.61332 -0.331462,2.87267 l 1.243,.9667 c -0.220974,0.607679 -0.33146,1.2706 -0.33146,1.98877 l -1.5468,.4419 c -1.98731,0.567801 -1.39981,0.938089 -0.883898,2.67931 0.52511,1.96399 0.292323,2.34325 2.20974,1.79542 l 1.5468,-.4419 c 0.607679,0.883898 1.49158,1.65731 2.43072,2.20974 l -.2486,1.5192 c -0.341613,2.08763 0.518083,1.6192 2.29261,1.85066 1.97654,0.264441 2.46241,0.853482 2.76218,-1.13249 l .221,-1.464 c 0.16573,-0.05524 0.386705,-0.110486 0.552433,-0.16573 0.662925,-0.165732 1.27061,-0.497193 1.82304,-0.828653 l 1.1877,.9115 c 1.43404,1.42539 1.65487,0.346039 2.76218,-0.994385 1.32476,-1.5666 1.95061,-1.61332 0.331461,-2.87266 l -1.243,-.9667 c 0.220974,-0.607679 0.331462,-1.2706 0.331462,-1.98877 l 1.5468,-.4419 c 1.98731,-0.567802 1.39982,-0.938089 0.883899,-2.67931 z  m -9.0047,5.4967 c -1.54682,0.441948 -3.20412,-0.441948 -3.70132,-1.98877 -0.497193,-1.54682 0.441949,-3.20412 1.98877,-3.70132 1.54682,-0.441948 3.20412,0.441948 3.70132,1.98877 0.441947,1.54682 -0.441949,3.20412 -1.98877,3.70132 z "/>
<g style="word-spacing:0;fill:#fff;font-family:'Bitstream Vera Sans';letter-spacing:0">
<path id="path8078" d="m 18.2382,37.2668 0,2.385 -1.0269,0 q -4.12413,0 -5.53197,-1.22565 -1.39127,-1.22565 -1.39127,-4.88602 v -3.95851 q 0,-2.50098 -0.89439,-3.46162 -0.89439,-0.960642 -3.24631,-0.960642 h -1.01033 v -2.36848 h 1.01033 q 2.36848,0 3.24631,-0.94408 0.894389,-0.960641 0.894389,-3.4285 v -3.97507 q 0,-3.66038 1.39127,-4.86946 1.40784,-1.22565 5.53197,-1.22565 h 1.02689 v 2.36848 h -1.12627 q -2.33535,0 -3.04755,0.728762 -0.712199,0.728763 -0.712199,3.06412 v 4.10757 q 0,2.60036 -0.761888,3.77632 -0.745326,1.17596 -2.56723,1.59003 1.83847,0.447195 2.5838,1.62315 0.745326,1.17596 0.745326,3.75975 v 4.10757 q 0,2.33535 0.712199,3.06412 0.7122,0.728763 3.04755,0.728763 h 1.12627 z "/>
<path id="path8084" d="m 29.837,37.2668 0,2.385 1.0269,0 q 4.12413,0 5.53197,-1.22565 1.39127,-1.22565 1.39127,-4.88602 v -3.95851 q 0,-2.50098 0.894389,-3.46162 0.894391,-0.960642 3.24631,-0.960642 h 1.01033 v -2.36848 h -1.01033 q -2.36848,0 -3.24631,-0.94408 -0.894389,-0.960641 -0.894389,-3.4285 v -3.97507 q 0,-3.66038 -1.39127,-4.86946 -1.40784,-1.22565 -5.53197,-1.22565 h -1.02689 v 2.36848 h 1.12627 q 2.33535,0 3.04755,0.728762 0.712199,0.728763 0.712199,3.06412 v 4.10757 q 0,2.60036 0.761888,3.77632 0.745326,1.17596 2.56723,1.59003 -1.83847,0.447195 -2.5838,1.62315 -0.745326,1.17596 -0.745326,3.75975 v 4.10757 q 0,2.33535 -0.712199,3.06412 -0.712201,0.728763 -3.04755,0.728763 h -1.12627 z "/>
</g>
</g>
</svg>
