<svg width="48" version="1.1" xmlns="http://www.w3.org/2000/svg" height="48">
<g style="stroke:none">
<rect width="39.000015" x="4.4999924" y="5.6271744" height="36.745651" style="fill:#d40000;color:#000;stroke-width:1.191" id="rect2985"/>
<path style="fill:#fff;fill-rule:evenodd" id="path4151" d="m 28.3105,5.627 c 0.633013,2.46145 1.96666,4.98798 2.88672,6.7832 -0.98215,5.3357 -2.5655,10.6026 -4.57617,15.6719 -0.720772,1.81725 -1.54622,3.8595 -2.52148,5.88477 -4.44479,1.79041 -8.87988,3.84249 -12.5527,6.61328 -0.667166,0.503187 -1.38627,1.10418 -1.89844,1.79297 h 3.08984 c 0.296018,-0.279372 0.67809,-0.586007 1.03711,-0.857422 2.59548,-1.9575 5.65119,-3.44758 8.85742,-4.78906 -1.27575,2.16467 -2.76551,4.15885 -4.66406,5.64648 h 3.11914 c 1.45904,-1.48113 2.67781,-3.16813 3.65625,-4.6582 0.527156,-0.802698 1.04325,-1.61411 1.52539,-2.44727 1.2874,-0.485527 2.51155,-1.00073 3.75391,-1.45703 4.23173,-1.55573 8.79936,-3.11247 13.373,-4.06055 0.034666,0.03186 0.069195,0.060754 0.103516,0.091797 v -5.08984 c -0.014627,-0.017227 -0.030298,-0.035576 -0.044922,-0.052734 -2.44236,-2.86648 -4.55476,-5.94259 -6.45117,-9.11328 -0.858175,-1.43657 -1.6592,-2.93494 -2.4043,-4.42578 0.08026,-0.44601 0.101804,-0.90992 0.175782,-1.35352 0.220922,-1.32394 0.473974,-2.74505 0.625,-4.17969 h -7.08984 z  m 5.1152,11 c 2.24673,4.02105 4.89283,7.94827 8.15234,11.3516 -4.75347,1.17345 -9.36452,2.87552 -13.8418,4.58203 2.55858,-5.04793 4.38571,-10.4915 5.68945,-15.9336 z "/>
</g>
</svg>
