<svg width="48" version="1.1" xmlns="http://www.w3.org/2000/svg" height="48">
<g style="fill:#2c3e50" transform="matrix(1.1446382,0,0,0.91694783,-3.4765175,1.9901786)">
<path d="m 5.6581,1.1013 v 45.8041 h 36.6928 v -45.8041 Z "/>
</g>
<path style="fill:#ecf0f1" d="m 9,24 h 3 V 9 l 7,15 H 39 V 39 H 9 Z"/>
<path style="fill:#2c3e50;color:#000" d="m 30.8297,25.0768 c -0.274935,-0.0031 -0.647757,0.198263 -1.19846,0.352937 -1.22846,0.340646 -1.66114,0.114233 -1.34065,1.36351 l .2361,.9217 c -0.08363,0.07433 -0.200739,0.161815 -0.28438,0.236138 -0.348382,0.26464 -0.623884,0.612269 -0.86584,0.947092 l -.9242,-.2387 c -1.25116,-0.324342 -1.06033,0.211527 -1.3762,1.28225 -0.387173,1.25909 -0.744099,1.44263 0.523058,1.77992 l .9724,.259 c 0.02205,0.414757 0.122528,0.834898 0.302155,1.2594 l -.7973,.65 c -1.02662,0.835288 -0.58912,0.905795 0.149808,1.80531 0.800052,1.02888 0.758932,1.31374 1.74945,0.507823 l .7973,-.6526 c 0.578441,0.369683 1.2926,0.605302 1.98305,0.695718 l .2336,.9598 c 0.3213,1.31989 0.708976,0.827329 1.81039,0.517981 1.22846,-0.340644 1.66114,-0.11422 1.34065,-1.36351 l -.2361,-.9217 c 0.08363,-0.07433 0.200741,-0.161816 0.28438,-0.236139 0.348384,-0.26464 0.623884,-0.612269 0.86584,-0.947091 l .9242,.2387 c 1.19984,0.481986 1.06033,-0.211528 1.3762,-1.28225 0.387174,-1.2591 0.744099,-1.44263 -0.523058,-1.77992 l -.9724,-.259 c -0.02206,-0.414756 -0.122528,-0.834896 -0.302155,-1.2594 l .7973,-.65 c 1.02662,-0.835289 0.589118,-0.905796 -0.149808,-1.80531 -0.800053,-1.02888 -0.758934,-1.31374 -1.74945,-0.507823 l -.7973,.6526 c -0.578442,-0.369683 -1.2926,-0.605302 -1.98305,-0.695719 l -.2336,-.9598 c -0.16065,-0.659943 -0.336993,-0.867861 -0.611927,-0.870917 z  m .0432,4.545 c 0.605085,-0.05837 1.23095,0.166849 1.65551,0.66017 0.646802,0.803203 0.541497,2.00613 -0.243755,2.68893 -0.799071,0.650149 -1.9944,0.543018 -2.67369,-0.246294 -0.679289,-0.789313 -0.541498,-2.00359 0.243756,-2.68639 0.299651,-0.243805 0.655135,-0.381397 1.01819,-0.416415 z "/>
</svg>
