<svg width="48" version="1.1" xmlns="http://www.w3.org/2000/svg" height="48">
<path style="fill:#34495e" id="rect4090" d="m 4.5,5.6271 0,36.7458 39,0 0,-36.6884 -12.6176,-.0574 z "/>
<g style="fill-rule:evenodd" id="g5">
<g style="stroke:#003bc3;stroke-linecap:square;stroke-width:0" id="g7">
<g style="stroke-miterlimit:2" id="g9">
<path style="fill:#ecf0f1" id="shape011" d="m 24.5774,15.651 c -7.57892,0 -13.7179,4.91653 -13.7179,10.9863 0,6.06976 6.13899,10.9863 13.7179,10.9863 7.57896,0 13.7179,-4.91649 13.7179,-10.9863 0,-6.06972 -6.13894,-10.9863 -13.7179,-10.9863 z  m 0,9.1838 c 1.24708,0 2.25053,0.803602 2.25053,1.80244 0,0.99875 -1.00345,1.80238 -2.25053,1.80238 -1.2472,0 -2.25061,-0.80363 -2.25061,-1.80238 0,-0.998843 1.00341,-1.80244 2.25061,-1.80244 z "/>
<path style="fill:#2ecc71" id="shape11" d="m 24.5709,22.3737 c -2.93254,0 -5.31711,1.90973 -5.31711,4.25831 0,2.34852 2.38457,4.25831 5.31711,4.25831 2.93247,0 5.31711,-1.90979 5.31711,-4.25831 0,-2.34858 -2.38464,-4.25831 -5.31711,-4.25831 z  m 0,2.4258 c 1.26796,0 2.28806,0.816996 2.28806,1.83247 0,1.01547 -1.0201,1.83244 -2.28806,1.83244 -1.26797,0 -2.28811,-0.816968 -2.28811,-1.83244 0,-1.01548 1.02014,-1.83247 2.28811,-1.83247 z "/>
</g>
<path style="fill:#34495e;stroke-linejoin:bevel" id="shape1" d="m 21.1308,22.528 c -0.961018,0.542726 -1.23385,0.889432 -1.61364,1.27512 l -5.6653,-3.2892 c 0.856261,-1.07979 1.86793,-2.02101 3.26237,-2.66617 z "/>
</g>
<path style="fill:#2ecc71" id="path4112" d="m 34.261,10.1419 0,20.3405 c -0.86752,-0.685959 -1.99879,-1.12946 -3.18819,-1.12935 -2.50173,0 -4.77449,1.93095 -4.77449,4.05272 0,2.12199 2.27276,4.05251 4.77449,4.05272 2.50173,0.000215 4.78069,-1.93062 4.78069,-4.05272 v -17.3404 c 3.33235,1.69556 5.40897,4.80796 5.40897,8.12659 0,0.853227 -0.166012,1.6901 -0.457069,2.49611 0.891843,-1.33642 1.41204,-2.84054 1.41204,-4.3879 0,-2.47823 -1.0001,-4.84197 -3.06383,-6.58569 -0.952002,-0.804509 -3.26533,-2.29373 -3.30011,-5.50395 v -0.06862 h -0.0064 -1.58631 z "/>
</g>
</svg>
