<svg width="48" version="1.1" xmlns="http://www.w3.org/2000/svg" height="48">
<path style="opacity:.2" d="M 4,4 V 46 H 46 V 4 Z"/>
<rect width="42" x="3" y="3" height="42" style="fill:#ecf0f1;fill-rule:evenodd"/>
<g style="stroke-width:.792">
<g style="fill:#717e7f">
<path d="m 30.2428,9 -21.5,.0529 .0545,22.6655 21.4099,-.0515 Z "/>
<path d="m 41.1185,12.5695 -20.1234,-7.5695 l -7.981,21.214 20.0388,7.5388 z "/>
</g>
<path style="fill:#e2e8ea" d="m 40.1164,12.963 -7.5522,19.8355 -18.5513,-6.9792 7.4731,-19.8641 Z "/>
<g style="fill-rule:evenodd;fill:#5a6364">
<rect width="14.165158" x="24.984591" y="4.2020941" height="1.7451819" transform="rotate(20.616904)"/>
<rect width="10.697072" x="26.727842" y="0.71173781" height="1.7451819" transform="rotate(20.616904)"/>
<rect width="14.165158" x="24.979437" y="7.692472" height="1.7451819" transform="rotate(20.616904)"/>
</g>
<path style="fill:#bc6d20" d="m 8.0471,20.8686 c -0.786872,0 -1.64203,0.909072 -1.64203,1.69595 v 17.9671 c 0,0.78693 0.855104,1.69619 1.64203,1.69619 h 32.311 c 0.786892,0 1.64187,-0.909294 1.64187,-1.69619 v -17.9671 c 0,-0.786835 -0.85504,-1.69595 -1.64187,-1.69595 z "/>
<path style="fill:#60330a" d="m 16.8595,33.1508 c 0,1.09684 -0.960126,1.98593 -2.14453,1.98593 h -8.01722 c -1.18441,0 -1.69775,-0.88909 -1.69775,-1.98593 v -5.51843 c 0,-1.0964 0.513347,-1.98504 1.69775,-1.98504 h 8.01722 c 1.18441,0 2.14453,0.889091 2.14453,1.98504 z "/>
<circle cx="12.916677" cy="28.995874" style="fill:#fff" r="1.7871109"/>
</g>
</svg>
