<svg width="48" version="1.1" xmlns="http://www.w3.org/2000/svg" height="48">
<path style="fill:#9f3c8f" d="M 3,3 V 45 H 45 V 3 Z"/>
<g style="fill-rule:evenodd">
<rect width="7.9695606" x="20.002359" y="3" height="18.793396" style="fill:#34495e"/>
<g style="fill:#ecf0f1">
<rect width="4.7816172" x="23.218046" y="3" height="1.5029116"/>
<rect width="4.7816172" x="20.041265" y="4.506155" height="1.5029116"/>
<rect width="4.7816172" x="23.218382" y="6.0092287" height="1.5029116"/>
<rect width="4.7816172" x="20.036551" y="7.5162678" height="1.5029116"/>
<rect width="4.7816172" x="23.213497" y="9.0192947" height="1.5029116"/>
<rect width="4.7816172" x="20.036551" y="10.524865" height="1.5029116"/>
<rect width="4.7816172" x="23.213497" y="12.027985" height="1.5029116"/>
<rect width="4.7816172" x="20.004717" y="13.533649" height="1.5029116"/>
<rect width="4.7816172" x="23.181494" y="15.036675" height="1.5029116"/>
<rect width="4.7816172" x="20.004717" y="16.542341" height="1.5029116"/>
<rect width="4.7816172" x="23.181833" y="18.045366" height="1.5029116"/>
<rect width="4.7816172" x="20" y="19.552444" height="1.5029116"/>
<rect width="7.9575529" x="20.016508" y="21.178423" height="10.016577"/>
</g>
<rect width="4.6644192" x="21.693239" y="22.178429" height="2.3696082" style="fill:#2c3e50"/>
</g>
<g style="fill:#fff">
<path d="m 28.4995,35.4419 l -2.4341,3.6253 v 1.34292 h 2.69449 v 1.10756 h 1.4813 v -1.10756 h 0.866019 v -1.13525 h -0.866019 v -3.83295 h -1.74168 z  m .2604,1.2895 v 2.54343 h -1.71854 l 1.7185,-2.5434 z " transform="scale(1.0126263,0.98753114)"/>
<path d="m 21.316,36.9598 h 3.9759 v 1.01737 l -2.401,2.4987 h 2.401 v 1.04179 h -4.07764 v -1.01737 l 2.401,-2.4987 h -2.29927 z " transform="scale(1.0126263,0.98753114)"/>
<path d="m 16.2943,35.4419 h 1.56676 v 4.89154 h 2.75098 v 1.18422 h -4.31774 z " transform="scale(1.0126263,0.98753114)"/>
</g>
</svg>
