<svg width="48" version="1.1" xmlns="http://www.w3.org/2000/svg" height="48">
<path style="opacity:.2" d="M 4,4 V 46 H 46 V 4 Z"/>
<path style="fill:#ecf0f1" d="M 3,3 V 45 H 45 V 3 Z"/>
<g style="fill-rule:evenodd;fill:#2c3e50">
<path d="m 23.9522,8 c 0.205966,2.08283 0.510762,3.45493 1.29051,3.87155 0.849645,-0.242602 1.40332,-1.51612 2.03137,-3.51307 -0.220849,2.04861 -0.216432,3.428 0.430172,4.01494 0.863945,-0.09595 1.65272,-1.23876 2.65273,-3.0351 -0.633967,1.97822 -0.91679,3.3366 -0.382375,4.03883 0.86962,0.104266 1.8697,-0.828828 3.22629,-2.38984 -1.02171,1.79763 -1.56765,3.07231 -1.19492,3.87155 0.829531,0.277658 2.01521,-0.430265 3.65646,-1.67289 -1.4388,1.6298 -2.2636,2.80443 -1.93577,3.68036 -0.517919,-0.699576 -0.569702,-0.778936 -0.860344,-1.09933 -0.268533,-0.296013 -0.342839,-0.391321 -0.860343,-0.860344 -0.560742,-0.497144 -0.672265,-0.572564 -1.00373,-0.812547 -0.340457,-0.246483 -0.427514,-0.288145 -1.12323,-0.693054 -0.573173,-0.324355 -0.695271,-0.391753 -1.05153,-0.549664 -0.373287,-0.165448 -0.486287,-0.220858 -1.19492,-0.45407 -0.637104,-0.203239 -0.764135,-0.228833 -1.14712,-0.31068 -0.388804,-0.08309 -0.503477,-0.113603 -1.19492,-0.191187 -0.793367,-0.07972 -0.920629,-0.0717 -1.33831,-0.0717 -0.4,0 -0.514148,0.0017 -1.21882,0.0717 -0.740847,0.0826 -0.867838,0.105973 -1.26662,0.191187 -0.401647,0.08583 -0.494204,0.102357 -1.21882,0.334578 -0.623367,0.206103 -0.767151,0.272354 -1.12323,0.430172 -0.372025,0.164899 -0.479304,0.208094 -1.12323,0.573562 -0.619129,0.361228 -0.725164,0.432876 -1.05153,0.669156 -0.326461,0.236362 -0.41781,0.311948 -0.955938,0.788649 -0.540214,0.489171 -0.635363,0.583551 -0.90814,0.884242 -0.290643,0.320394 -0.342427,0.375853 -0.860344,1.07543 0.327826,-0.875929 -0.473074,-2.02666 -1.91187,-3.65646 1.64136,1.24272 2.80302,1.95072 3.63256,1.67289 0.372728,-0.799232 -0.173211,-2.07392 -1.19492,-3.87155 1.35742,1.56197 2.38022,2.49546 3.25019,2.38984 0.533491,-0.702496 0.251319,-2.06147 -0.382375,-4.03883 1,1.7953 1.78936,2.93802 2.65273,3.0351 0.648177,-0.586129 0.651199,-1.98857 0.430171,-4.03883 0.623155,1.98142 1.1689,3.25643 2.00747,3.51307 0.767319,-0.426974 1.03822,-1.77953 1.24272,-3.84765 z "/>
<path d="m 23.9044,12.8992 c 2.13562,-0.03084 4.30473,0.571008 6.23749,1.88798 5.13555,3.45401 6.264,10.5008 3.0112,15.4144 -0.382683,0.578084 -0.381205,0.588451 -0.979835,1.21882 l -14.4585,-9.7744 c 0.250881,-0.682604 0.239321,-0.692353 0.693054,-1.38611 2.32071,-3.49737 6.48606,-3.82296 9.34432,-1.88798 2.42948,1.64473 3.65084,4.77945 2.43764,7.95814 0.465408,0.323776 0.944604,0.656058 1.41001,0.979836 1.05356,-2.26646 1.28746,-7.33778 -2.96341,-10.2524 -4.03797,-2.69679 -9.1474,-1.542 -11.6146,2.22255 -2.50765,3.75057 -1.70417,9.10351 2.36594,11.8298 2.6467,1.82098 6.07815,1.63474 9.00967,0.0717 l 1.3622,2.342 c -2.71983,1.52642 -7.14394,2.92334 -11.8775,-0.238989 -5.41309,-3.70685 -6.16957,-10.6972 -3.0351,-15.4623 2.04717,-3.07363 5.49815,-4.87169 9.05754,-4.92308 z "/>
<path d="m 14.2733,31.1337 c 0.517918,0.699575 0.5697,0.778936 0.860344,1.09933 0.272776,0.30069 0.344027,0.395069 0.884242,0.884242 0.538126,0.476701 0.653375,0.552292 0.979835,0.788648 0.320651,0.232144 0.413682,0.300589 1.00373,0.645258 0.675671,0.383887 0.792381,0.429631 1.17102,0.597461 0.35868,0.158974 0.487492,0.220143 1.12323,0.430171 0.71043,0.227529 0.820064,0.249365 1.21882,0.334578 0.397526,0.08495 0.508225,0.109238 1.24272,0.191188 0.712304,0.07086 0.841149,0.07169 1.24272,0.07169 0.41765,0 0.521232,0.008 1.31441,-0.07169 0.691445,-0.07758 0.830014,-0.108099 1.21882,-0.191188 0.389169,-0.08317 0.505945,-0.122066 1.17102,-0.334578 0.680012,-0.2241 0.803316,-0.267197 1.17102,-0.430171 0.364141,-0.161405 0.467731,-0.229133 1.07543,-0.573563 0.657846,-0.383297 0.765675,-0.427601 1.09933,-0.669156 0.332668,-0.240856 0.413558,-0.310402 0.979836,-0.812547 0.512366,-0.464467 0.616689,-0.565411 0.884242,-0.860343 0.290645,-0.320393 0.342425,-0.399752 0.860343,-1.09933 -0.327828,0.875929 0.473074,2.05055 1.91188,3.68036 -1.64124,-1.24263 -2.80303,-1.95055 -3.63256,-1.67289 -0.372727,0.799225 0.173209,2.07392 1.19492,3.87155 -1.35694,-1.56141 -2.38042,-2.49467 -3.25019,-2.38984 -0.534418,0.702232 -0.251592,2.06062 0.382375,4.03883 -1,-1.79653 -1.78867,-2.93936 -2.65273,-3.0351 -0.646458,0.587018 -0.651003,1.96648 -0.430172,4.01494 -0.628277,-1.9977 -1.18118,-3.27116 -2.03137,-3.51307 -0.77889,0.417348 -1.06075,1.78973 -1.26662,3.87155 -0.204605,-2.06913 -0.498445,-3.42138 -1.26662,-3.84765 -0.838143,0.257173 -1.3845,1.53225 -2.00747,3.51307 0.221026,-2.05026 0.218004,-3.45271 -0.430172,-4.03883 -0.863372,0.09708 -1.6533,1.2398 -2.65273,3.0351 0.633812,-1.97774 0.916262,-3.33645 0.382375,-4.03883 -0.869796,-0.104919 -1.86929,0.828362 -3.22629,2.38984 1.02171,-1.79763 1.56765,-3.07231 1.19492,-3.87155 -0.829539,-0.277823 -2.0151,0.430174 -3.65646,1.67289 1.4388,-1.6298 2.2636,-2.80443 1.93577,-3.68036 z "/>
</g>
</svg>
