<svg width="48" version="1.1" xmlns="http://www.w3.org/2000/svg" height="48">
<path style="fill:#09f" d="M 3,3 V 45 H 45 V 3 Z"/>
<g style="fill-rule:evenodd">
<rect width="7.9695606" x="20.002359" y="3" height="18.793396" style="fill:#34495e"/>
<g style="fill:#ecf0f1">
<rect width="4.7816172" x="23.218046" y="3" height="1.5029116"/>
<rect width="4.7816172" x="20.041265" y="4.506155" height="1.5029116"/>
<rect width="4.7816172" x="23.218382" y="6.0092287" height="1.5029116"/>
<rect width="4.7816172" x="20.036551" y="7.5162678" height="1.5029116"/>
<rect width="4.7816172" x="23.213497" y="9.0192947" height="1.5029116"/>
<rect width="4.7816172" x="20.036551" y="10.524865" height="1.5029116"/>
<rect width="4.7816172" x="23.213497" y="12.027985" height="1.5029116"/>
<rect width="4.7816172" x="20.004717" y="13.533649" height="1.5029116"/>
<rect width="4.7816172" x="23.181494" y="15.036675" height="1.5029116"/>
<rect width="4.7816172" x="20.004717" y="16.542341" height="1.5029116"/>
<rect width="4.7816172" x="23.181833" y="18.045366" height="1.5029116"/>
<rect width="4.7816172" x="20" y="19.552444" height="1.5029116"/>
<rect width="7.9575529" x="20.016508" y="21.178423" height="10.016577"/>
</g>
<rect width="4.6644192" x="21.693239" y="22.178429" height="2.3696082" style="fill:#2c3e50"/>
</g>
<g style="fill:#fff">
<path d="m 14.6613,36.7617 q 0.355469,0 0.539063,-0.15625 0.183593,-0.15625 0.183593,-0.460938 0,-0.300781 -0.183593,-0.457031 -0.183594,-0.160156 -0.539063,-0.160156 h -0.832031 v 1.23438 H 14.6613 Z m 0.0508,2.5508 q 0.453125,0 0.679688,-0.191406 0.230469,-0.191407 0.230469,-0.578125 0,-0.378907 -0.226563,-0.566407 -0.226562,-0.191406 -0.683594,-0.191406 h -0.882812 v 1.52734 H 14.7121 Z m 1.3984,-2.0977 q 0.484375,0.140625 0.75,0.519531 0.265625,0.378906 0.265625,0.929687 0,0.84375 -0.570313,1.25781 -0.570312,0.414062 -1.73438,0.414062 h -2.49609 v -5.83203 h 2.25781 q 1.21484,0 1.75781,0.367188 0.546875,0.367187 0.546875,1.17578 0,0.425781 -0.199219,0.726562 -0.199219,0.296875 -0.578125,0.441407 z"/>
<path d="m 18.1418,35.9609 h 3.8164 v 0.9766 l -2.3047,2.3984 h 2.3047 v 1 h -3.9141 v -0.9766 l 2.3047,-2.3984 h -2.207 z"/>
<path d="m 23.0129,35.9609 h 1.3984 v 4.375 h -1.3984 z m 0,-1.7031 h 1.3984 v 1.1406 h -1.3984 z"/>
<path d="M 27.161303,39.7031 V 42 h -1.3984 v -6.0391 h 1.3984 v 0.6406 q 0.289063,-0.382812 0.640625,-0.5625 0.351563,-0.183593 0.808594,-0.183593 0.808594,0 1.32812,0.644531 0.519531,0.640625 0.519531,1.65234 0,1.01172 -0.519531,1.65625 -0.519531,0.640625 -1.32812,0.640625 -0.457031,0 -0.808594,-0.179688 -0.351562,-0.183594 -0.640625,-0.566406 z m 0.9297,-2.832 q -0.449219,0 -0.691407,0.332031 -0.238281,0.328125 -0.238281,0.949219 0,0.621093 0.238281,0.953125 0.242188,0.328125 0.691407,0.328125 0.449218,0 0.683593,-0.328125 0.238282,-0.328125 0.238282,-0.953125 0,-0.625 -0.238282,-0.953125 Q 28.540221,36.8711 28.091003,36.8711 Z"/>
<path d="m 33.0812,39.3449 h 2.59342 v 1.11711 h -4.28289 v -1.11711 l 2.1513,-1.8987 q 0.288158,-0.260526 0.426316,-0.50921 0.138158,-0.248684 0.138158,-0.517105 0,-0.414474 -0.280263,-0.667106 -0.276316,-0.252631 -0.738158,-0.252631 -0.355263,0 -0.777632,0.153947 -0.422368,0.15 -0.903947,0.45 v -1.29474 q 0.513158,-0.169737 1.01447,-0.256579 0.501316,-0.09079 0.982894,-0.09079 1.0579,0 1.64211,0.465789 0.588158,0.46579 0.588158,1.29868 0,0.481578 -0.248685,0.9 -0.248684,0.414473 -1.04605,1.11316 z "/>
</g>
</svg>
