<svg width="48" version="1.1" xmlns="http://www.w3.org/2000/svg" height="48">
<g id="layer1" transform="matrix(1.1470591,0,0,0.91864444,-3.5294177,1.9525339)">
<path style="fill:#ecf0f1" id="rect4090" d="M 0,0 0,40 34,40 33.928091,0.06980703 23,0 z" transform="translate(7,4)"/>
</g>
<g style="fill:#333">
<path id="path4141" d="m 31.9965,24.0154 q 0,2.89103 -0.63049,5.01317 -0.615112,2.10676 -1.69156,3.49076 -1.07645,1.384 -2.55272,2.06063 -1.46089,0.676624 -3.13707,0.676624 -1.69156,0 -3.15245,-0.676624 -1.44551,-0.676623 -2.52196,-2.06063 -1.07645,-1.384 -1.69156,-3.49076 -0.615112,-2.12214 -0.615112,-5.01317 0,-2.89103 0.615112,-5.01317 0.615112,-2.12214 1.69156,-3.50614 1.07645,-1.39938 2.52196,-2.076 1.46089,-0.676623 3.15245,-0.676623 1.67618,0 3.13707,0.676623 1.47627,0.676624 2.55272,2.076 1.07645,1.384 1.69156,3.50614 0.63049,2.12214 0.63049,5.01317 z  m -2.8449,0 q 0,-2.52196 -0.430579,-4.2289 -0.415201,-1.72231 -1.13796,-2.768 -0.707379,-1.04569 -1.64542,-1.49165 -0.938046,-0.461335 -1.95298,-0.461335 -1.01494,0 -1.95298,0.461335 -0.938046,0.445956 -1.64542,1.49165 -0.707379,1.04569 -1.13796,2.768 -0.415201,1.70694 -0.415201,4.2289 0,2.52196 0.415201,4.2289 0.430579,1.70694 1.13796,2.75263 0.707379,1.04569 1.64542,1.50703 0.938046,0.445957 1.95298,0.445957 1.01494,0 1.95298,-0.445957 0.938046,-0.461334 1.64542,-1.50702 0.722757,-1.04569 1.13796,-2.75263 0.430579,-1.70694 0.430579,-4.2289 z "/>
</g>
</svg>
