<svg width="48" version="1.1" xmlns="http://www.w3.org/2000/svg" height="48">
<path style="fill:#8a622a" d="M 3,3 V 45 H 45 V 3 Z"/>
<g style="fill-rule:evenodd" transform="translate(0,-1.507)">
<rect width="7.9695606" x="20.002359" y="4.5075564" height="18.793396" style="fill:#34495e;stroke-miterlimit:2.013"/>
<g style="stroke-miterlimit:2">
<g style="fill:#ecf0f1" transform="matrix(1.4683729,0,0,1.025597,-11.238691,-2.7746832)">
<rect width="3.2564054" x="23.465931" y="7.1004887" height="1.4654016"/>
<rect width="3.2564054" x="21.302462" y="8.5685101" height="1.4654016"/>
<rect width="3.2564054" x="23.46616" y="10.03407" height="1.4654016"/>
<rect width="3.2564054" x="21.29925" y="11.503496" height="1.4654016"/>
<rect width="3.2564054" x="23.462833" y="12.96901" height="1.4654016"/>
<rect width="3.2564054" x="21.29925" y="14.437004" height="1.4654016"/>
<rect width="3.2564054" x="23.462833" y="15.902609" height="1.4654016"/>
<rect width="3.2564054" x="21.277571" y="17.370695" height="1.4654016"/>
<rect width="3.2564054" x="23.441038" y="18.836208" height="1.4654016"/>
<rect width="3.2564054" x="21.277571" y="20.304295" height="1.4654016"/>
<rect width="3.2564054" x="23.441269" y="21.769808" height="1.4654016"/>
<rect width="3.2564054" x="21.274359" y="23.239271" height="1.4654016"/>
<rect width="5.4192996" x="21.285601" y="24.824669" height="9.7665815"/>
</g>
<rect width="4.6644192" x="21.693239" y="23.685429" height="2.3696082" style="fill:#2c3e50"/>
</g>
</g>
<g style="fill:#fff;stroke-width:.321">
<path d="m 10,40.997 v -1.05603 l 4.1279,-3.8612 h -3.6615 v -0.980883 h 5.75225 v 0.90969 l -4.3048,4.0115 h 4.47099 v 0.976928 z "/>
<path d="m 16.9853,39.0105 1.5439,-.1107 q 0.139383,0.573501 0.562895,0.842452 0.428872,0.268952 1.15259,0.268952 0.766609,0 1.15259,-0.23731 0.391346,-0.241266 0.391346,-0.561635 0,-0.205669 -0.166187,-0.348055 -0.160828,-0.146342 -0.568256,-0.253131 -0.278768,-0.0712 -1.27053,-0.253131 -1.2759,-0.233356 -1.79054,-0.573501 -0.723722,-0.478576 -0.723722,-1.16678 0,-0.442979 0.337737,-0.826631 0.343098,-0.387607 0.981045,-0.589321 0.643309,-0.201714 1.5493,-0.201714 1.47961,0 2.22478,0.478576 0.750527,0.478577 0.788052,1.27752 l -1.5868,.0514 q -0.101857,-0.446934 -0.439594,-0.640738 -0.332376,-0.197759 -1.00249,-0.197759 -0.691557,0 -1.0829,0.209624 -0.251963,0.134476 -0.251963,0.359921 0,0.205669 0.23588,0.352011 0.30021,0.185893 1.45817,0.387607 1.15796,0.201714 1.71013,0.419248 0.557534,0.21358 0.868466,0.589321 0.316294,0.371786 0.316294,0.921556 0,0.498352 -0.375263,0.933421 -0.375264,0.435069 -1.06146,0.648648 -0.686195,0.209625 -1.71013,0.209625 -1.49033,0 -2.28911,-0.506263 -0.798774,-0.510216 -0.95424,-1.48319 z "/>
<path d="m 26.4794,40.997 v -4.91723 h -2.33199 v -0.980883 h 6.24545 v 0.980883 h -2.32663 v 4.91723 Z "/>
<path d="m 31.4121,35.0996 v 5.89844 h 2.98633 c 0.586125,0 0.944174,-0.027367 1.4043,-0.123047 1.19797,-0.249124 2.19727,-1.23229 2.19727,-2.82227 -1e-06,-1.6831 -1,-2.56533 -2.19336,-2.84375 -0.486839,-0.113644 -0.84011,-0.109375 -1.49414,-0.109375 h -2.90039 z  m 1.5859,.9805 h 0.712891 c 0.646883,0 0.870274,0.011358 1.30273,0.054688 0.986025,0.098796 1.33697,0.865211 1.3457,1.86719 0.008747,0.99846 -0.359434,1.83478 -1.2168,1.96289 -0.31688,0.04738 -0.515816,0.05664 -0.958984,0.05664 h -1.18555 v -3.94141 z "/>
</g>
</svg>
