<svg width="48" version="1.1" xmlns="http://www.w3.org/2000/svg" height="48">
<path style="fill:#758182" d="m 3,3 v 42 h 42 v -42 Z "/>
<path aria-label="√a" style="fill:#fff" d="m 21.8315,16 h 18.6416 v 1.83066 h -16.7798 l -7.2489,19.7318 h -1.86173 l -3.7719,-10.3942 -1.7815,.6757 -.4546,-1.5849 4.4231,-1.5604 2.7399,7.8018 z  m 10.4081,14.8665 c -0.91738,0 -1.60951,0.155627 -2.07639,0.466881 -0.45869,0.311253 -0.688035,0.769943 -0.688035,1.37607 0,0.556981 0.184295,0.995193 0.552885,1.31464 0.675596,0.558101 2.43963,0.844265 3.64904,-0.417735 0.565172,-0.597935 0.847758,-1.34331 0.847758,-2.23611 v -0.50374 z  m 6.7206,-1.6587 v 7.85096 h -4.43537 v -2.03953 c -0.589745,0.83547 -1.25321,1.44569 -1.99039,1.83066 -1.27764,0.653014 -4.25643,1.09528 -6.16774,-0.675748 -0.884616,-0.835471 -1.32692,-1.91667 -1.32692,-3.24359 0,-1.6136 0.552886,-2.79719 1.65866,-3.55075 1.11396,-0.753562 2.85862,-1.13034 5.23398,-1.13034 h 2.59242 v -0.344017 c 0,-0.696225 -0.274395,-1.20406 -0.823185,-1.5235 -1.15599,-0.690146 -3.69388,-0.558107 -5.19712,-0.208868 -0.810898,0.188391 -1.56472,0.470976 -2.26095,0.847757 v -3.35417 c 0.941952,-0.229345 1.888,-0.401353 2.83814,-0.516026 2.08625,-0.269773 6.19862,-0.519966 8.21983,1.29006 1.10577,0.974715 1.65866,2.56375 1.65866,4.76709 z "/>
</svg>
