<svg width="48" version="1.1" xmlns="http://www.w3.org/2000/svg" height="48" xmlns:xlink="http://www.w3.org/1999/xlink">
<path style="fill:#ccaa7d" d="m 6.4807,4.1217 h 35.0386 c 1.61761,0 2.91988,1.30227 2.91988,2.91988 v 35.0386 c 0,1.61761 -1.30227,2.91988 -2.91988,2.91988 h -35.0386 c -1.61761,0 -2.91988,-1.30227 -2.91988,-2.91988 v -35.0386 c 0,-1.61761 1.30227,-2.91988 2.91988,-2.91988 z "/>
<rect width="39.956001" x="3.9800367" y="5.9614763" rx="2.854" ry="2.9198806" height="11.679523" style="fill:#3c2510"/>
<g style="fill:#ccaa7d">
<path d="M 6.855,4.1614 C 3.86179,4.220128 3.85427,4.1687 3.85427,7.07467 v 7.65272 c 0,2.92589 0.122133,2.84767 3,2.91327 l 18.0044,-0.9711 V 3.19026 Z"/>
<path d="m 41.3546,4.1614 c 2.6869,0.058728 2.7492,0.066026 2.7492,2.91327 v 7.65272 c 0,2.99148 -0.235701,2.97887 -2.7492,2.91327 L 24.8594,16.66956 V 3.19026 Z"/>
</g>
<path style="opacity:.5;fill:#3a240f" d="m 26.9785,3.2781 -5.8984,0 .0293,12.3137 .0655,4.8086 2.7675,-.2532 2.9412,-.2688 .0159,-2.8408 .0496,-1.4458 .0293,-12.3137 z "/>
<path style="fill:#d8cab2" d="m 26.9492,3.216 -2.9492,-.216 l -2.9492,.216 .0293,12.5563 .0655,4.1414 2.7675,-.2418 2.9412,-.2567 .0159,-2.7128 .0496,-.9301 .0293,-12.5563 z "/>
<path style="opacity:.2;fill:#8d6137" d="M 23.513353,3.2092094 H 24 V 16.84 h -0.486647 z"/>
<path style="opacity:.3;fill:#fff" d="m 24,3.2092094 h 0.486647 V 16.84 H 24 Z"/>
<g style="stroke:#fff;stroke-width:.89">
<rect width="10.678039" x="13.321961" y="21.509825" height="10.678039" style="fill:#f00"/>
<rect width="10.678039" x="24" y="21.509825" height="10.678039" style="fill:#51ff00"/>
<rect width="10.678039" x="13.322369" y="32.187862" height="10.678039" style="fill:#53a8ff"/>
<rect width="10.678039" x="24" y="32.187515" height="10.678039" style="fill:#fffd00"/>
</g>
<path style="opacity:.2;fill:#8d6137;stroke-linecap:round;stroke-width:.11" d="m 21.1057,16.872 5.7497,-.085 .0094,.8482 -5.7552,0 z "/>
</svg>
