<svg width="48" version="1.1" xmlns="http://www.w3.org/2000/svg" height="48">
<path style="fill:#787878" id="path4140" d="M 3,3 V 45 H 45 V 3 Z"/>
<path style="fill:#1a1a1a" id="rect4090" d="m 5,5 v 38 h 38 v -38 Z "/>
<g id="g826" transform="matrix(1.1428591,0,0,1.1428591,-3.4285578,-3.4285533)">
<path style="fill:#fff" id="path4142" d="m 16.9375,20.869 v 1.619 q -0.684523,-0.285714 -1.32143,-0.428571 -0.636905,-0.142857 -1.20238,-0.142857 -0.607143,0 -0.904762,0.154762 -0.291667,0.148809 -0.291667,0.464285 0,0.255953 0.220238,0.392858 0.226191,0.136904 0.803572,0.20238 l .375,.0536 q 1.6369,0.208333 2.20238,0.684524 0.565476,0.47619 0.565476,1.49405 0,1.06548 -0.785714,1.60119 -0.785715,0.535716 -2.34524,0.535716 -0.660715,0 -1.36905,-0.107143 -0.702381,-0.10119 -1.44643,-0.309523 v -1.61905 q 0.636905,0.309524 1.30357,0.464286 0.672619,0.154761 1.36309,0.154761 0.625,0 0.940476,-0.172619 0.315476,-0.172619 0.315476,-0.511904 0,-0.285715 -0.220238,-0.422619 -0.214285,-0.142858 -0.863095,-0.220238 l -.375,-.0476 q -1.42262,-0.178571 -1.99405,-0.660714 -0.571428,-0.482143 -0.571428,-1.46429 0,-1.05952 0.72619,-1.57143 0.726191,-0.511905 2.22619,-0.511905 0.589286,0 1.23809,0.08929 0.64881,0.08929 1.41071,0.279762 z "/>
<path style="fill:#fff" id="path4144" d="m 20.6756,23.9167 -2.4048,-3.256 h 2.256 l 1.3631,1.9762 1.381,-1.9762 h 2.256 l -2.4048,3.244 2.5238,3.4226 h -2.256 l -1.5,-2.1071 -1.4821,2.1071 h -2.256 l 2.5238,-3.4107 z"/>
<path style="fill:#fff" id="path4146" d="m 26.253,20.6607 h 2.0714 l 1.119,4.5952 1.125,-4.5952 h 1.7798 l 1.119,4.5476 1.125,-4.5476 h 2.0714 l -1.756,6.6667 h -2.3274 l -1.125,-4.5833 -1.119,4.5833 h -2.3274 l -1.756,-6.6667 z"/>
</g>
</svg>
