<svg width="48" version="1.1" xmlns="http://www.w3.org/2000/svg" height="48">
<rect width="42" x="3" y="3" height="42" style="fill:#f39c12"/>
<path style="opacity:.15" d="m 5,12.6005 v 5.7175 c 15,-0.318 25,9.682 25.1818,24.682 h 4.61773 c 0.0028,-16.7489 -12.5067,-30.3995 -29.7995,-30.3995 z "/>
<path style="opacity:.15" d="m 5,21.5095 v 5.7175 c 9,-0.227 16,6.773 15.773,15.773 h 5.1175 c 0.0095,-11.6364 -8.72253,-21.4908 -20.8905,-21.4905 z "/>
<path style="opacity:.15" d="m 10.1747,33.1768 c -3.05377,-0.415255 -5.70844,2.59725 -5.17204,5.66694 l 8.6923,1.1501 c 1.32621,-3.01844 -0.466459,-6.40174 -3.52022,-6.817 z "/>
<path style="fill:#f7f7f7" d="m 5,14 v 4.81773 c 14,-0.02125 24.6689,10.1823 24.6816,24.1823 h 4.31773 c 0,-16.4371 -12.4731,-29 -29,-29 z  m 0,8.9091 v 4.8177 c 9,-0.0048 15.2555,6.27318 15.2734,15.2732 h 4.8175 c 0.04146,-11.426 -8.65975,-20.1344 -20.0902,-20.0905 Z  m 4.4545,11.1818 c -2.46782,0 -4.45454,1.98673 -4.45454,4.45455 0,2.46782 1.98673,4.45455 4.45454,4.45455 2.46782,0 4.45455,-1.98673 4.45455,-4.45455 0,-2.46782 -1.98673,-4.45455 -4.45455,-4.45455 z "/>
</svg>
