<svg width="48" version="1.1" xmlns="http://www.w3.org/2000/svg" height="48">
<g id="layer1" transform="matrix(1.1514053,0,0,0.91669281,-3.6220948,2.0025533)">
<path style="fill:#f1c40f" id="rect4090" d="m 7.0067,4.0162 0,40 33.2538,0 0,-29 -10.7586,-11 z "/>
<g style="stroke:#003bc3;fill-rule:evenodd;stroke-linecap:square;stroke-width:0">
<g style="stroke-linejoin:bevel">
<path style="fill:#27ae60" id="shape0" d="m .1719,0 4.1245,0 10.9565,.062 0,39.9802 -5.1141,0 -1.1069,-4.1308 c 2.01369,-2.0676 3.03039,-3.0843 3.05009,-3.0501 0.0198,0.0342 -0.4273,-1.9259 -1.341,-5.8803 l -4.1245,-2.0622 -2.0622,-3.0504 .3222,-3.4586 -2.5778,-1.074 -.666,-3.0719 .7733,-5.1556 -2.4059,-3.9526 z " transform="translate(25.6062,4.03856)"/>
<path style="fill:#2980b9" id="shape1" d="m 9.402,0 6.6836,0 -3.1106,5.0552 -.1289,4.8549 3.0933,4.2534 -1.7615,5.5853 1.3319,5.9289 5.4135,4.3186 2.9644,4.5319 2.0193,5.4993 l -8.8046,-.0325 -2.8385,-6.7128 -5.6517,-1.7783 -4.9603,-4.2795 -3.6519,-.9452 v -2.7497 l 4.2104,.9452 4.5112,3.6519 5.6712,1.7615 -4.4682,-4.7259 -.6444,-5.1986 .7733,-5.0697 -3.2276,-4.8951 .6351,-4.9994 z " transform="translate(7.00304,4.01013)"/>
<path style="fill:#27ae60" id="shape2" d="m .0335,40.0042 0,-39.9745 l 4.0637,-.0297 .3203,4.9401 -2.1218,7.9188 4.2187,7.307 1.0628,4.3233 -4.5971,-3.8667 -2.9323,.5907 -.0479,11.2165 c 2.57873,-0.0903 3.88718,-0.1164 3.92538,-0.0782 0.05728,0.0573 1.53236,0.401 4.42523,1.0311 l 1.3748,2.0622 2.9216,.6875 .6014,2.4059 -1.357,1.466 z " transform="translate(6.98734,3.9956)"/>
<path style="fill:#e74c3c" id="shape3" d="m .0002,4.3393 c 0.0217657,-2.95777 1.55443,-4.33985 4.12453,-4.33927 2.21032,0.0165874 5.30281,1.45621 9.75094,4.5119 -4.2377,2.86759 -7.3295,4.08061 -9.53612,4.16672 -2.82775,-0.11102 -4.36112,-1.38158 -4.33935,-4.33935 z " transform="matrix(0,1,-1,0,37.636,25.7563)"/>
</g>
<path style="fill:#ecf0f1;stroke-miterlimit:2.013" id="shape4" d="m 2.2295,.0011 c -1.26287,0.0403354 -2.25792,1.12542 -2.22886,2.43052 0.0290602,1.3051 1.07136,2.34176 2.33468,2.32205 1.26332,-0.01972 2.27401,-1.12597 2.26491,-2.43138 -0.04901,-1.30447 -1.10787,-2.36153 -2.37073,-2.32119 z " transform="translate(30.952,27.619)"/>
</g>
</g>
<g style="stroke:#003bc3;stroke-linecap:square;fill-rule:evenodd;stroke-width:0" id="g4214" transform="matrix(1.0528776,0,0,1.0528776,54.311653,17.5796)">
<rect width="7.4251237" x="-44.688305" y="-11.380642" height="21.617744" style="fill:#34495e;stroke-miterlimit:2.013" id="shape0-4"/>
<g style="fill:#fff">
<rect width="4.4549632" x="-44.652218" y="-11.374231" height="1.6002752" style="stroke-miterlimit:2.013" id="shape1-7"/>
<g style="stroke-miterlimit:2">
<rect width="4.4549632" x="-41.692238" y="-9.7737942" height="1.6002752" id="shape2-2"/>
<rect width="4.4549632" x="-44.651997" y="-8.1706581" height="1.6002752" id="shape3-0"/>
<rect width="4.4549632" x="-41.691925" y="-6.57021" height="1.6002752" id="shape4-7"/>
<rect width="4.4549632" x="-44.656391" y="-4.9655404" height="1.6002752" id="shape5"/>
<rect width="4.4549632" x="-41.696476" y="-3.3651414" height="1.6002752" id="shape6"/>
<rect width="4.4549632" x="-44.656391" y="-1.7620358" height="1.6002752" id="shape7"/>
<rect width="4.4549632" x="-41.696476" y="-0.16153865" height="1.6002752" id="shape8"/>
<rect width="4.4549632" x="-44.68605" y="1.441668" height="1.6002752" id="shape9"/>
<rect width="4.4549632" x="-41.726292" y="3.0420651" height="1.6002752" id="shape10"/>
<rect width="4.4549632" x="-44.68605" y="4.6452718" height="1.6002752" id="shape11"/>
<rect width="4.4549632" x="-41.725979" y="6.2456689" height="1.6002752" id="shape12"/>
<rect width="4.4549632" x="-44.690445" y="7.8503785" height="1.6002752" id="shape13"/>
<rect width="7.4139357" x="-44.675064" y="9.5816936" height="10.665484" id="shape17"/>
</g>
</g>
<rect width="4.3457713" x="-43.112942" y="16.246485" height="2.5231194" style="fill:#2c3e50;stroke-miterlimit:2" id="shape18"/>
</g>
</svg>
