<svg width="48" version="1.1" xmlns="http://www.w3.org/2000/svg" height="48">
<rect width="42" x="3" y="3" height="42" style="fill:#5b6d71" id="rect813"/>
<g style="stroke:#003bc3;fill-rule:evenodd;stroke-linecap:square;stroke-width:0;stroke-miterlimit:2" id="g11">
<rect width="36" x="-42" y="-27.999998" height="22" style="fill:#2c3e50" id="shape0" transform="scale(-1)"/>
<g style="fill:#f1c40f" id="g10">
<rect width="2.0076134" x="-23.005655" y="-38.991455" height="7.9873819" id="rect4244" transform="scale(-1)"/>
<rect width="2.0076134" x="-19.299208" y="-38.96487" height="7.9688625" id="rect4246" transform="scale(-1)"/>
<rect width="2.0076134" x="-15.693819" y="-38.96487" height="7.9535518" id="rect4248" transform="scale(-1)"/>
<rect width="2.0076134" x="-34.398891" y="-38.96487" height="7.9688625" id="rect4256" transform="scale(-1)"/>
<rect width="2.0076134" x="-30.793501" y="-38.96487" height="7.9535518" id="rect4258" transform="scale(-1)"/>
<rect width="2.0076134" x="-27.001955" y="-38.953548" height="7.9535518" id="rect4260" transform="scale(-1)"/>
</g>
</g>
<g style="font-family:'Bitstream Vera Sans';fill:#fff;text-align:start;stroke:none;word-spacing:0;line-height:125%;letter-spacing:0;font-size:40px" id="g17" transform="matrix(1.0592344,0,0,1.1201043,-1.453561,-5.3378208)">
<path style="font-weight:bold" id="path8124" d="m 18.5032,24.9817 q -0.965878,0.605171 -2.00554,0.907758 -1.03966,0.302587 -2.1464,0.302587 -2.50189,0 -3.96413,-1.79823 -1.46223,-1.80688 -1.46223,-4.89325 0,-3.12096 1.48906,-4.91055 1.48906,-1.78958 4.07815,-1.78958 0.999416,0 1.91164,0.242069 0.918926,0.242069 1.73053,0.717562 v 2.67141 q -0.838437,-0.613819 -1.67017,-0.916406 -0.825022,-0.302585 -1.65675,-0.302585 -1.54272,0 -2.38116,1.11525 -0.831729,1.1066 -0.831729,3.17283 0,2.04894 0.804899,3.16419 0.804899,1.11525 2.28725,1.11525 0.40245,0 0.744532,-0.06052 0.348789,-0.06916 0.623797,-0.207486 v -2.50715 h -1.57626 v -2.23049 h 4.02449 v 6.20734 z"/>
<path style="font-weight:bold" id="path8126" d="m 20.7703,13.0339 h 6.9691 v 2.5158 h -4.3867 v 2.4034 h 4.1251 v 2.5158 h -4.1251 v 2.9567 h 4.5343 v 2.5158 H 20.7704 V 13.0339 Z"/>
<path style="font-weight:bold" id="path8128" d="m 30.1608,13.0339 h 2.8842 l 3.6422,8.8528 v -8.8528 h 2.4482 V 25.9414 H 36.2512 L 32.609,17.0886 v 8.8528 h -2.4482 z"/>
</g>
</svg>
