<svg width="48" version="1.1" xmlns="http://www.w3.org/2000/svg" height="48">
<g style="fill:#1a1a1a" id="layer1" transform="matrix(1.1470591,0,0,0.91864444,-3.5294177,1.9525339)">
<path style="fill:#787878" id="path4140" d="m 0,.0173 0,39.9827 h 34 v -39.9827 z " transform="translate(7,4)"/>
<path id="rect4090" d="m 1.7436,2.1944 0,35.6286 30.5128,0 0,-35.6286 z " transform="translate(7,4)"/>
</g>
<path style="fill:#fff" id="path4142" d="m 16.9375,20.869 0,1.619 q -0.684523,-0.285714 -1.32143,-0.428571 -0.636905,-0.142857 -1.20238,-0.142857 -0.607143,0 -0.904762,0.154762 -0.291667,0.148809 -0.291667,0.464285 0,0.255953 0.220238,0.392858 0.226191,0.136904 0.803572,0.20238 l .375,.0536 q 1.6369,0.208333 2.20238,0.684524 0.565476,0.47619 0.565476,1.49405 0,1.06548 -0.785714,1.60119 -0.785715,0.535716 -2.34524,0.535716 -0.660715,0 -1.36905,-0.107143 -0.702381,-0.10119 -1.44643,-0.309523 v -1.61905 q 0.636905,0.309524 1.30357,0.464286 0.672619,0.154761 1.36309,0.154761 0.625,0 0.940476,-0.172619 0.315476,-0.172619 0.315476,-0.511904 0,-0.285715 -0.220238,-0.422619 -0.214285,-0.142858 -0.863095,-0.220238 l -.375,-.0476 q -1.42262,-0.178571 -1.99405,-0.660714 -0.571428,-0.482143 -0.571428,-1.46429 0,-1.05952 0.72619,-1.57143 0.726191,-0.511905 2.22619,-0.511905 0.589286,0 1.23809,0.08929 0.64881,0.08929 1.41071,0.279762 z "/>
<path style="fill:#fff" id="path4144" d="m 20.6756,23.9167 -2.4048,-3.256 2.256,0 1.3631,1.9762 1.381,-1.9762 2.256,0 -2.4048,3.244 2.5238,3.4226 -2.256,0 -1.5,-2.1071 -1.4821,2.1071 -2.256,0 2.5238,-3.4107 z "/>
<path style="fill:#fff" id="path4146" d="m 26.253,20.6607 2.0714,0 1.119,4.5952 1.125,-4.5952 1.7798,0 1.119,4.5476 1.125,-4.5476 2.0714,0 -1.756,6.6667 -2.3274,0 -1.125,-4.5833 -1.119,4.5833 -2.3274,0 -1.756,-6.6667 z "/>
</svg>
