<svg width="48" version="1.1" xmlns="http://www.w3.org/2000/svg" height="48">
<g style="fill-rule:evenodd">
<rect width="39.000011" x="4.4999928" y="5.6271362" height="36.745777" style="fill:#5b6d71;stroke:none" id="rect3021"/>
<g style="fill:#fff;stroke:#fff;stroke-width:.3" id="g8">
<path id="path4193" d="m 7.9815,14.0245 c -0.55487,0 -0.981095,0.460541 -0.981095,1.01492 v 5.81891 c 0,0.564587 0.406304,1.01493 0.981095,1.01493 h 2.97711 c 0.574303,0 1.01492,-0.450338 1.01492,-1.01493 v -5.81891 c 0,-0.553898 -0.460056,-1.01492 -1.01492,-1.01492 h -2.97711 z  m 0,1.0149 2.9771,0 0,5.8189 -2.9771,0 0,-5.8189 z "/>
<path id="path4191" d="m 14.5443,14.0239 c 0.05984,-0.01922 0.137513,0 0.202985,0 h 2.50348 v 6.83383 h 0.947264 v -2.02985 c 0,-0.292497 0.13431,-0.507463 0.507463,-0.507463 0.373152,0 0.507462,0.214966 0.507462,0.507463 v 2.53731 c 0,0.36295 -0.24509,0.507463 -0.507462,0.507463 h -3.95821 c -0.262373,0 -0.507463,-0.144513 -0.507463,-0.507463 0,-0.362948 0.245576,-0.507462 0.507463,-0.507462 h 1.48856 v -5.81891 h -1.48856 c -0.262373,0 -0.507463,-0.144513 -0.507463,-0.507462 0,-0.272211 0.124926,-0.449806 0.304478,-0.507463 z "/>
<path id="path4189" d="m 22.4949,14.0245 c -0.554384,0 -0.981094,0.460541 -0.981094,1.01492 v 5.81891 c 0,0.564587 0.406303,1.01493 0.981094,1.01493 h 2.97712 c 0.574789,0 1.01493,-0.450338 1.01493,-1.01493 v -5.81891 c 0,-0.553898 -0.45957,-1.01492 -1.01493,-1.01492 h -2.97712 z  m 0,1.0149 2.9771,0 0,5.8189 -2.9771,0 0,-5.8189 z "/>
<path id="path4187" d="m 29.7685,14.0245 c -0.554384,0 -1.01493,0.460541 -1.01493,1.01492 v 5.81891 c 0,0.564587 0.440134,1.01493 1.01493,1.01493 h 2.97711 c 0.57479,0 0.981095,-0.450338 0.981095,-1.01493 v -5.81891 c 0,-0.553898 -0.425739,-1.01492 -0.981095,-1.01492 h -2.97711 z  m 0,1.0149 2.9771,0 0,5.8189 -2.9771,0 0,-5.8189 z "/>
<path id="path4185" d="m 36.3313,14.0239 c 0.05988,-0.01922 0.137392,0 0.202985,0 h 2.46965 v 6.83383 h 0.981095 v -2.02985 c 0,-0.292497 0.134796,-0.507463 0.507462,-0.507463 0.372666,0 0.507463,0.214966 0.507463,0.507463 v 2.53731 c 0,0.36295 -0.245576,0.507463 -0.507463,0.507463 h -3.95821 c -0.262372,0 -0.507462,-0.144513 -0.507462,-0.507463 0,-0.362948 0.24509,-0.507462 0.507462,-0.507462 h 1.45473 v -5.81891 h -1.45473 c -0.262372,0 -0.507462,-0.144513 -0.507462,-0.507462 0,-0.272211 0.124858,-0.449806 0.304477,-0.507463 z "/>
<path id="path4177" d="m 7.3045,26.1353 c 0.056684,-0.01926 0.103679,0 0.169154,0 h 2.50348 v 6.83383 h 0.981095 v -2.02985 c 0,-0.292983 0.13431,-0.507463 0.507463,-0.507463 0.373152,0 0.507462,0.214965 0.507462,0.507463 v 2.53731 c 0,0.362948 -0.24509,0.507463 -0.507462,0.507463 h -3.99204 c -0.262374,0 -0.473632,-0.144515 -0.473632,-0.507463 0,-0.362949 0.211744,-0.507462 0.473632,-0.507462 h 1.48856 v -5.81891 h -1.48856 c -0.262374,0 -0.473632,-0.144028 -0.473632,-0.507463 0,-0.271847 0.13444,-0.449691 0.304478,-0.507462 z "/>
<path id="path4175" d="m 15.2551,26.1359 c -0.55487,0 -1.01492,0.460542 -1.01492,1.01493 v 5.81891 c 0,0.564101 0.440134,1.01492 1.01492,1.01492 h 2.94328 c 0.574303,0 1.01493,-0.450824 1.01493,-1.01492 v -5.81891 c 0,-0.553898 -0.460056,-1.01493 -1.01493,-1.01493 h -2.94328 z  m 0,1.0149 2.9433,0 0,5.8189 -2.9433,0 0,-5.8189 z "/>
<path id="path4173" d="m 22.4949,26.1359 c -0.554384,0 -0.981094,0.460542 -0.981094,1.01493 v 5.81891 c 0,0.564101 0.406303,1.01492 0.981094,1.01492 h 2.97712 c 0.574789,0 1.01493,-0.450824 1.01493,-1.01492 v -5.81891 c 0,-0.553898 -0.45957,-1.01493 -1.01493,-1.01493 h -2.97712 z  m 0,1.0149 2.9771,0 0,5.8189 -2.9771,0 0,-5.8189 z "/>
<path id="path4171" d="m 29.0577,26.1353 c 0.05986,-0.01926 0.137514,0 0.202986,0 h 2.50348 v 6.83383 h 0.981095 v -2.02985 c 0,-0.292983 0.100962,-0.507463 0.473631,-0.507463 0.372667,0 0.507463,0.214965 0.507463,0.507463 v 2.53731 c 0,0.362948 -0.24509,0.507463 -0.507463,0.507463 h -3.95821 c -0.261887,0 -0.507463,-0.144515 -0.507463,-0.507463 0,-0.362949 0.245576,-0.507462 0.507463,-0.507462 h 1.48856 v -5.81891 h -1.48856 c -0.261887,0 -0.507463,-0.144028 -0.507463,-0.507463 0,-0.271847 0.124926,-0.449691 0.304477,-0.507462 z "/>
<path id="path4169" d="m 36.3313,26.1353 c 0.05988,-0.01926 0.137392,0 0.202985,0 h 2.46965 v 6.83383 h 0.981095 v -2.02985 c 0,-0.292983 0.134796,-0.507463 0.507462,-0.507463 0.372666,0 0.507463,0.21448 0.507463,0.507463 v 2.53731 c 0,0.362948 -0.245576,0.507463 -0.507463,0.507463 h -3.95821 c -0.262372,0 -0.507462,-0.144515 -0.507462,-0.507463 0,-0.362949 0.24509,-0.507462 0.507462,-0.507462 h 1.45473 v -5.81891 h -1.45473 c -0.262372,0 -0.507462,-0.144028 -0.507462,-0.507463 0,-0.271847 0.124858,-0.449691 0.304477,-0.507462 z "/>
</g>
</g>
</svg>
