<svg width="48" version="1.1" xmlns="http://www.w3.org/2000/svg" height="48">
<path style="fill:#34495e" id="rect4090" d="m 4.5,5.6271 0,36.7458 39,0 0,-36.7281 -12.6176,-.0177 z "/>
<g style="stroke:#003bc3;stroke-linecap:square;fill-rule:evenodd;stroke-width:0">
<g style="stroke-miterlimit:2">
<path style="fill:#ecf0f1" id="shape011" d="m 24.5774,15.651 c -7.57892,0 -13.7179,4.91653 -13.7179,10.9863 0,6.06976 6.13899,10.9863 13.7179,10.9863 7.57896,0 13.7179,-4.91649 13.7179,-10.9863 0,-6.06972 -6.13894,-10.9863 -13.7179,-10.9863 z  m 0,9.1838 c 1.24708,0 2.25053,0.803602 2.25053,1.80244 0,0.99875 -1.00345,1.80238 -2.25053,1.80238 -1.2472,0 -2.25061,-0.80363 -2.25061,-1.80238 0,-0.998843 1.00341,-1.80244 2.25061,-1.80244 z "/>
<path style="fill:#1abc9c" id="shape11" d="m 24.5709,22.3737 c -2.93254,0 -5.31711,1.90973 -5.31711,4.25831 0,2.34852 2.38457,4.25831 5.31711,4.25831 2.93247,0 5.31711,-1.90979 5.31711,-4.25831 0,-2.34858 -2.38464,-4.25831 -5.31711,-4.25831 z  m 0,2.4258 c 1.26796,0 2.28806,0.816996 2.28806,1.83247 0,1.01547 -1.0201,1.83244 -2.28806,1.83244 -1.26797,0 -2.28811,-0.816968 -2.28811,-1.83244 0,-1.01548 1.02014,-1.83247 2.28811,-1.83247 z "/>
</g>
<g style="stroke-linejoin:bevel">
<g style="fill:#34495e">
<path id="shape0" d="m 28.0116,30.7317 c 0.932884,-0.521244 1.19772,-0.854218 1.5664,-1.22464 l 5.4994,3.159 c -0.831205,1.03704 -1.81324,1.94098 -3.16687,2.56063 z "/>
<path id="shape1" d="m 21.1308,22.528 c -0.961018,0.542726 -1.23385,0.889432 -1.61364,1.27512 l -5.6653,-3.2892 c 0.856261,-1.07979 1.86793,-2.02101 3.26237,-2.66617 z "/>
</g>
<path style="fill:#e74c3c" id="shape0111" d="m 7.6314,25.8721 1.6315,4.9664 3.503,-7.111 3.407,6.8288 2.0633,-5.0229 c 11.8897,22.7237 -24.0091,21.6691 -10.6049,0.338613 Z "/>
<path style="fill:#f1c40f" id="shape111" d="m 12.7393,31.836 c 11.5225,9.76759 -12.1953,9.87358 0,0 z "/>
</g>
</g>
</svg>
