<svg width="48" version="1.1" xmlns="http://www.w3.org/2000/svg" height="48">
<g style="fill:#5e82d4" id="layer1" transform="matrix(1.1470591,0,0,0.91864444,-3.5294177,1.9525339)">
<path id="rect4090" d="m 0,-.0001 v 40.0001 h 34 v -40.0001 Z " transform="translate(7,4)"/>
</g>
<path style="fill:#fff;stroke:none" id="path3079" d="m 43.1875,17.4375 c -2.11665,3.63731 -4.2697,7.6519 -6.53516,10.9922 -3.14905,4.64311 -8.6959,7.92687 -13.9141,7.4933 -4.99474,-0.415007 -8.43972,-4.51099 -6.44141,-9.61049 0.671414,-1.71338 2.04149,-3.37227 3.67383,-4.4707 1.63233,-1.09843 3.48834,-1.63738 5.23047,-1.21094 0.931734,0.228074 1.82184,0.907289 2.22266,1.76562 0.400811,0.858328 0.353695,1.82382 -0.441406,2.80859 -0.172141,0.213206 -0.903258,0.680721 -1.41406,0.79491 -0.255404,0.05706 -0.433336,0.03578 -0.498047,-0.0039 -0.06474,-0.03969 -0.123102,-0.09173 -0.07031,-0.394538 l -1.0352,.0723 c -0.09117,0.522959 0.05528,0.965355 0.398437,1.17578 0.343159,0.210427 0.787266,0.196916 1.20508,0.103516 0.835619,-0.1868 1.68646,-0.651095 2.20312,-1.29102 1.07152,-1.32714 1.17499,-2.95229 0.671941,-4.02956 -0.503049,-1.07727 -1.52098,-2.07081 -2.71289,-2.36257 -2.05657,-0.503419 -4.78931,-0.05101 -7.12246,1.567 -1.85764,1.28825 -3.45365,3.33189 -4.226,5.30285 -2.23923,5.71427 1.26118,11.4403 8.02612,11.5691 5.91196,0.112626 11.6882,-3.17394 15.4238,-9.43357 1.77362,-2.92184 3.58383,-5.91446 5.35547,-8.86914 z "/>
</svg>
