<svg width="48" version="1.1" xmlns="http://www.w3.org/2000/svg" height="48">
<g id="layer1" transform="matrix(1.1470591,0,0,0.91864444,-3.5294177,1.9525339)">
<path style="fill:#ecf0f1" id="rect4090" d="M 0,0 0,40 34,40 33.79661,0.01694915 23,0 z" transform="translate(7,4)"/>
</g>
<g style="stroke:none;fill-rule:evenodd">
<path style="fill:#ecf0f1" id="path3002" d="m 41.4333,15.4453 a 9.0045,14.1679 0 1,1 -18.009,0 9.0045,14.1679 0 1,1 18.009,0 z " transform="matrix(1.4055944,0,0,0.97777778,-25.494765,13.503648)"/>
<path style="opacity:.95;fill:#c83737" id="path3003" d="m 24.1799,17.0195 1.3654,8.9088 1.3654,8.9088 -8.398,-3.2719 -8.398,-3.2719 7.0326,-5.6369 z " transform="translate(0.75562219,-9.9490255)"/>
<path style="opacity:.95;fill:#d4aa00" id="path3005" d="m 21.0315,15.0045 7.5633,6.338 7.5633,6.338 -9.2705,3.381 -9.2705,3.381 1.7072,-9.719 z " transform="matrix(0.08330288,0.99652427,-0.99652427,0.08330288,51.626543,-0.5257417)"/>
<path style="opacity:.95;fill:#0f0" id="path3007" d="m 32.2399,11.2264 .7666,11.1436 .7666,11.1436 -10.034,-4.9079 -10.0339,-4.9079 9.2673,-6.2357 z " transform="translate(7.4302849,-1.2593703)"/>
<path style="opacity:.95;fill:#f60" id="path3009" d="m 13.7271,10.7226 8.2284,6.8356 8.2284,6.8356 -10.0339,3.7082 -10.0339,3.7082 1.8056,-10.5438 z " transform="translate(-0.12593699,-0.50374813)"/>
</g>
</svg>
