<svg width="48" version="1.1" xmlns="http://www.w3.org/2000/svg" height="48">
<path style="fill:#0ca121" id="rect4090-5" d="m 4.5,5.627 0,36.7458 39,2e-4 0,-36.746 z"/>
<path style="opacity:.4;fill:#fff;stroke:none" id="path3522-9" d="m 18.530694,6.023446 c 0.753143,0.957583 0.05139,2.55665 1.18736,2.54077 0.553132,0.740434 -1.10245,0.220874 0.09293,0.791549 0.68741,0.512587 -0.727254,0.805459 0.124045,1.26545 -0.981154,0.47936 0.159034,2.50725 0.887785,3.01477 1.19944,0.956058 0.530447,-2.02417 1.8688,-2.1792 0.727236,-0.786088 2.00451,-1.2907 2.91161,-2.08148 -0.886502,-0.068144 -1.40416,-0.590584 -0.5646,-0.914218 1.54518,1.49917 0.387451,-0.709983 -0.467892,-1.05977 0.827649,-0.249278 1.63259,-0.06673 1.51776,-0.713372 0.874641,-0.605869 -0.840839,-0.801486 -1.4532,-0.66451 -2.03486,0 -4.06972,0 -6.10459,0 z m -12.6892,0.6254 c -1.11811,0.301611 -1.1961,2.83163 -0.072274,1.42674 0.275832,-0.576862 1.55048,-1.27206 0.072274,-1.42674 z m 5.2244,0.088 c -0.644579,0.956999 0.09352,1.72428 0.629815,0.557015 0.379606,-0.48743 -0.282034,-0.539156 -0.629815,-0.557015 z m 1.6107,0.215 c -1.24545,0.546556 -0.306985,1.82107 -0.276159,2.10453 1.312,0.429754 2.04166,-0.280981 2.53799,0.933735 1.24837,0.681216 -0.02455,1.86492 -0.493176,2.17319 0.844069,-0.696014 2.46655,1.89231 2.04121,0.524832 -0.50744,-0.350807 1.36247,0.563555 0.392345,-0.57656 -0.892783,-1.36191 0.07087,-0.609713 0.447265,-0.291855 1.28019,-1.08692 -1.44848,-1.2183 -0.767341,-2.33687 -0.596879,-0.457726 -1.3797,-1.84437 -2.43666,-1.57333 -0.707555,0.866378 -0.09774,-1.88777 -1.13584,-0.509557 -0.05381,0.770414 -0.01958,1.74802 -0.322098,0.413337 -0.202681,-0.233651 0.348703,-0.776845 0.01246,-0.861458 z m -2.5399,0.0097 c -0.835975,0.263881 -0.791076,1.33333 0.23686,1.44798 0.352095,-0.379989 0.139889,-1.37603 -0.23686,-1.44798 z m -3.2626,0.342 c -1.08585,0.243587 -0.642631,1.07257 -0.310168,1.30604 -1.34411,0.318774 2.05191,0.40742 0.361792,0.609317 -1.40612,0.531705 1.35403,1.15813 1.80685,0.527698 1.73639,0.402068 0.062487,-1.31607 -0.089933,-2.24743 C 7.906548,6.751192 8.613584,9.223461 7.948029,7.578839 7.71581,8.06722 6.977446,7.65081 6.874099,7.303555 z m 34.5056,0.1075 c -1.45708,0.539926 0.905613,2.57743 0.31842,0.723793 -0.0585,-0.223824 0.131527,-0.815206 -0.31842,-0.723793 z m -30.4273,0.8209 c -1.04706,0.931671 1.33091,1.70212 -0.30073,2.39619 -0.244649,-0.865245 -0.665582,0.432898 -1.59904,-0.265853 -1.60472,0.632632 -2.42534,-0.329532 -3.76888,-0.989066 -0.806958,-0.095104 -0.503784,0.72597 -0.557232,1.49476 0,2.12464 0,4.24929 0,6.37394 0.791193,0.788154 0.308688,0.347741 0,0.130361 0.434265,1.40035 -0.1915,3.44736 1.52026,4.26192 0.290995,0.511056 1.51205,2.68829 1.56835,2.03684 -0.612153,-0.606972 -1.24025,-2.42664 -0.204427,-0.804804 0.927784,1.54168 2.17928,2.5416 4.00756,2.90847 0.99958,0.321929 1.82164,1.42857 2.70067,1.18508 0.497061,1.24065 -1.47304,2.43204 0.06614,3.58921 0.80353,1.17146 2.15254,1.9398 1.42218,3.58445 -0.510762,1.60624 -0.292075,3.35643 -0.733822,4.85299 -0.137103,0.910944 1.34097,3.22306 1.21291,1.37161 0.431574,-1.28663 0.420195,-2.70235 1.43661,-3.6135 1.39075,0.01042 0.265804,-1.41594 1.64629,-1.22961 0.842387,-1.04544 1.08638,-2.29261 2.50797,-2.70774 0.16981,-1.26901 2.3637,-3.21252 0.09728,-3.70659 -0.615986,-0.287474 -2.20198,-0.390841 -2.08078,-0.532682 0.245565,-1.25919 -2.0509,-1.61766 -3.02798,-2.13284 -1.28287,-0.862181 -3.21054,1.4323 -3.66252,-0.544747 -0.269688,-0.62204 -1.25575,-0.632127 -0.802577,-1.59197 -0.816708,0.769079 -2.41414,0.535337 -1.99592,-0.949904 0.635134,-1.25086 3.07426,-1.31004 3.48988,0.194517 -0.577071,-1.65935 1.11546,-2.95109 2.05503,-4.13162 0.191311,-0.564262 1.32805,-1.04905 0.936877,-0.299118 0.666437,-0.02276 1.67655,-1.16146 0.492661,-0.63589 -0.01675,-1.03845 -1.03743,-0.743137 -1.36834,-0.595684 0.613319,-0.921677 3.76315,-0.417787 2.44415,-1.92432 -1.02205,-0.392107 -0.937032,-2.68024 -1.97081,-1.40551 0.08699,-0.785417 -2.10409,-2.32286 -2.05627,-1.00581 0.267456,1.17852 0.0489,2.53614 -0.520278,3.30864 -0.118782,-1.72692 -3.22946,-1.34525 -2.82952,-3.18548 0.579398,-0.87706 1.25645,-2.08992 1.32095,-1.98081 1.03837,-0.375371 1.8734,-1.46725 0.669943,-2.18505 -0.06432,0.625604 -0.905089,1.91636 -0.786708,0.355234 -0.778552,0.873989 -0.600735,-1.39074 -1.32988,-1.62562 z m 24.8519,0.6059 c -1.82381,0.422413 -2.54684,2.07174 -3.44905,3.43783 -1.32993,0.567735 -1.27931,3.00591 0.206487,2.22719 0.397667,0.657605 -0.278191,1.69411 0.880114,0.834261 0.934285,-1.17064 0.163369,-3.06398 1.75329,-3.80214 0.115814,0.573961 -1.46662,2.71715 0.382017,2.36488 1.6712,0.0597 -1.21491,0.157662 -0.402099,1.16841 -0.844494,-0.474414 -0.405682,1.29567 -1.508,0.883754 -0.954969,0.491833 -1.58118,-0.22836 -1.36242,-1.01731 -0.751244,0.414955 0.236287,1.58559 -1.06782,1.65594 -0.29213,0.982193 -2.6944,0.834152 -1.32826,1.83429 0.606533,1.48835 -2.25997,0.09331 -1.44618,1.87937 0.696242,1.76615 2.15538,-0.585224 2.74737,-1.03951 1.14217,-0.838864 2.83465,1.43035 1.80685,1.51469 1.15249,-0.146406 0.915658,-1.18418 -0.0077,-1.58596 -0.498717,-1.22466 1.57876,0.600603 1.46355,1.21461 0.732983,1.29957 0.43114,-1.33056 1.17703,-0.166127 -0.08709,1.2283 3.00056,0.288808 1.52643,1.85427 -1.26741,0.241703 -2.51492,-0.309365 -3.60607,0.0436 -1.01558,-0.0086 -0.964623,-1.03589 -1.33437,-1.29317 -1.29183,0.09937 -2.88818,0.08814 -3.75301,1.07625 -0.935207,1.2149 -2.28383,2.91324 -1.26452,4.46451 1.02003,2.29881 3.54963,0.119238 5.00369,1.47687 0.432193,0.56607 -0.374536,1.23896 0.591835,1.85211 0.363637,1.30613 -0.412819,2.54628 0.480273,3.79486 0.461822,1.17423 0.748424,2.93174 2.46728,1.85876 1.81917,-1.03653 1.33463,-2.94732 2.83569,-4.00567 -1.18772,-2.17638 1.45306,-3.13066 2.11194,-4.89749 -1.43952,0.199538 -2.72196,-1.15935 -3.06976,-2.5271 -0.604726,-0.664347 -0.448969,-1.64393 0.226533,-0.395903 0.92847,0.851839 0.948529,3.37946 2.66605,2.07916 0.785195,-0.31096 2.92956,-1.49715 1.22096,-2.03696 -1.10135,0.755286 -2.31643,-2.25682 -0.699149,-0.509733 1.17574,0.472292 1.99909,0.753691 1.99909,-0.812202 0,-4.21884 0,-8.49485 0,-12.7423 -0.366229,0.354351 -1.30709,1.0088 -1.78198,0.573926 -0.817155,0.107743 -1.8959,1.61316 -1.63911,0.157908 -0.710294,-0.04454 -0.127154,1.30483 -1.10299,1.34257 -0.09826,0.693723 -0.985802,0.128463 -0.652416,0.787241 -0.684921,-0.460013 -1.26458,-1.91243 0.08496,-1.0008 2.00414,-0.569293 -1.3216,-1.8534 -1.57831,-2.16379 0.43152,-0.097889 -0.469475,-0.523677 -0.578194,-0.381116 z m -16.5404,0.3811 c -0.667053,0.526249 1.26817,0.625352 0,0 z m -8.9103,0.2834 c -0.746081,0.738917 1.18818,0.679279 0,0 z m 4.3261,0.7329 c -0.56498,0.87632 0.8348,0.323533 0,0 z m 12.3692,1.0359 c -0.661454,0.72102 -1.5345,-0.189756 -1.54873,0.429978 0.119871,0.187254 0.600037,1.52374 1.65198,0.537471 0.564578,-0.225372 0.342288,-0.793509 -0.103253,-0.967449 z m -14.0831,0.43 c -1.2546,1.03741 2.13069,1.13299 0.26578,0.11898 l -0.2658,-0.119 z m 16.5507,2.873 c -0.90329,0.557714 0.433337,1.74212 -0.01966,2.29849 -0.566004,0.933726 2.10331,-0.06577 0.677599,-0.810736 -0.101579,-0.64004 -0.835252,-1.42096 -0.657943,-1.48775 z m -0.6092,1.1238 c -1.25852,0.336889 -0.285695,2.07624 0.160052,0.438034 0.02506,-0.09498 0.05904,-0.44121 -0.160052,-0.438034 z m -10.077,1.2606 c -1.17081,0.755905 -0.18185,1.51042 0.676209,1.17031 -0.176158,-0.456077 -0.668272,-0.743432 -0.676209,-1.17031 z m 22.1158,1.2704 c 0.584191,0.27915 -1.07054,0.756014 -0.02273,1.2473 0.609764,0.678943 0.37988,2.13638 -0.611234,1.10487 0.184138,-1.15168 -1.34349,-2.01176 0.633978,-2.35217 z m -3.0045,0.0097 c -0.07926,0.739905 1.68598,1.89001 -0.216816,1.51469 -1.00628,0.111769 -2.51347,-0.02912 -1.24576,-1.21634 0.400574,-0.227693 1.45235,0.78557 0.905037,-0.161541 0.194037,-0.01171 0.374751,-0.08107 0.557536,-0.136817 z m -5.8129,1.6026 c -0.733967,0.447718 0.507532,0.791022 0,0 z m -18.4298,4.1728 c -0.123739,0.390863 2.32133,0.786975 0.634095,0.160762 l -0.2515,-0.0838 -0.3826,-0.0769 z m 1.8998,0.557 c -0.741636,0.712872 1.528,0.212978 0,0 z m 24.8003,6.5376 c -1.61148,0.03937 -1.39724,3.97498 -0.27391,1.64623 0.106525,-0.505338 0.533506,-1.17232 0.27391,-1.64623 z"/>
<g id="g3913" transform="matrix(1.3011476,0,0,1.4603017,-7.2275424,18.793607)">
<path style="fill:#fff;fill-rule:evenodd;stroke:none" id="path3042" d="m 10.0991,7.4307 2.9238,0 2.0262,3.6676 2.0518,-3.6676 2.8981,0 0,6.8479 -2.1544,0 0,-5.0013 -2.0518,3.6932 -1.4619,0 -2.0518,-3.6932 0,5.0013 -2.18,0 0,-6.8479 z"/>
<path style="fill:#fff;fill-rule:evenodd;stroke:none" id="path3040" d="m 24.4873,7.4307 -3.2829,6.8479 h 2.30827 l .5642,-1.2311 h 3.59064 l .5642,1.2311 h 2.30827 l -3.3085,-6.8479 h -2.74427 z  m 1.385,1.6158 1.2055,2.7186 h -2.43651 l 1.2311,-2.7186 z "/>
<path style="fill:#fff;fill-rule:evenodd;stroke:none" id="path3038" d="m 31.6942,7.4307 6.2067,0 0,1.3337 -3.8984,0 0,1.2824 3.6676,0 0,1.3337 -3.6676,0 0,2.8981 -2.3083,0 0,-6.8479 z"/>
</g>
</svg>
