<svg width="48" version="1.1" xmlns="http://www.w3.org/2000/svg" height="48" xmlns:xlink="http://www.w3.org/1999/xlink">
<defs id="defs4">
<clipPath id="clip0">
<rect width="640" height="409" id="rect7"/>
</clipPath>
<linearGradient gradientTransform="matrix(0.48664677,0,0,0.48664677,0.64095515,1.2017913)" xlink:href="#linearGradient4370" id="linearGradient3013" y1="38.127232" x1="8" y2="71.877235" gradientUnits="userSpaceOnUse" x2="8"/>
<linearGradient id="linearGradient4370">
<stop offset="0" style="stop-color:#8a5b30" id="stop4372"/>
<stop offset="1" style="stop-color:#8a5b30;stop-opacity:0" id="stop4374"/>
</linearGradient>
</defs>
<g style="stroke:none">
<path style="fill:url(#linearGradient3013)" id="rect5138" d="m 3.5608,18.7211 0,23.359 c 0,0.867089 0.376941,1.64083 0.973294,2.1747 v -25.5337 h -0.973294 z "/>
<rect width="40.87833" x="3.5608358" y="4.1216722" rx="2.9198806" ry="0" height="40.87833" style="fill:#ccaa7d" id="rect2419"/>
<rect width="39.956001" x="3.9800367" y="5.9614763" rx="2.8539999" ry="2.9198806" height="11.679523" style="fill:#3c2510" id="rect2483"/>
<g style="fill:#ccaa7d" id="g30">
<path id="rect2481" d="M 6.855,4.1614 C 3.86179,4.220128 3.85427,4.1687 3.85427,7.07467 l 0,7.65272 c 0,2.92589 0.122133,2.84767 3.00073,2.91327 l 18.0044,-0.9711 0,-13.4793 z"/>
<path id="path3262" d="m 41.3546,4.1614 c 2.6869,0.058728 2.7492,0.066026 2.7492,2.91327 v 7.65272 c 0,2.99148 -0.235701,2.97887 -2.7492,2.91327 l -16.4952,-.9711 v -13.4793 z "/>
</g>
</g>
<path style="opacity:.5;fill:#3a240f" id="path5008" d="m 26.9785,3.2781 -5.8984,0 .0293,12.3137 .0655,4.8086 2.7675,-.2532 2.9412,-.2688 .0159,-2.8408 .0496,-1.4458 .0293,-12.3137 z "/>
<path style="fill:#d8cab2" id="polygon120" d="m 26.9492,3.216 -2.9492,-.216 l -2.9492,.216 .0293,12.5563 .0655,4.1414 2.7675,-.2418 2.9412,-.2567 .0159,-2.7128 .0496,-.9301 .0293,-12.5563 z "/>
<g style="stroke:none" id="g36">
<rect width="0.48664677" x="23.513353" y="3.2092094" height="11.895531" style="opacity:.2;fill:#8d6137" id="rect4363"/>
<rect width="0.48664677" x="24" y="3.2092094" height="11.895531" style="opacity:.3;fill:#fff" id="rect4365"/>
</g>
<g style="stroke:#fff" id="g3800" transform="matrix(0.88983653,0,0,0.88983653,5.1776953,8.8711295)">
<rect width="12" x="9.1525421" y="14.20339" height="12" style="fill:#f00" id="rect3773"/>
<rect width="12" x="21.152542" y="14.20339" height="12" style="fill:#51ff00" id="rect3775"/>
<rect width="12" x="9.1529999" y="26.20339" height="12" style="fill:#53a8ff" id="rect3777"/>
<rect width="12" x="21.152542" y="26.202999" height="12" style="fill:#fffd00" id="rect3779"/>
</g>
</svg>
