<svg width="48" version="1.1" xmlns="http://www.w3.org/2000/svg" height="48">
<path style="fill:#34495e" id="rect4090" d="m 4.5,5.6271 0,36.7458 39,0 0,-36.6884 -12.6176,-.0574 z "/>
<g style="stroke:#003bc3;fill-rule:evenodd;stroke-linecap:square;stroke-width:0">
<g style="stroke-miterlimit:2">
<path style="fill:#ecf0f1" id="shape011" d="m 24,10.282 c -7.57897,0 -13.718,6.13903 -13.718,13.718 0,7.57901 6.13903,13.718 13.718,13.718 7.57901,0 13.718,-6.13899 13.718,-13.718 0,-7.57897 -6.13899,-13.718 -13.718,-13.718 z  m 0,11.4674 c 1.24709,0 2.25054,1.00342 2.25054,2.25063 0,1.24709 -1.00345,2.25054 -2.25054,2.25054 -1.24721,0 -2.25062,-1.00345 -2.25062,-2.25054 0,-1.24721 1.00342,-2.25063 2.25062,-2.25063 z "/>
<path style="fill:#b2b2b2" id="shape11" d="m 23.9935,18.6763 c -2.93256,0 -5.31715,2.38459 -5.31715,5.31715 0,2.93249 2.38459,5.31715 5.31715,5.31715 2.93249,0 5.31715,-2.38466 5.31715,-5.31715 0,-2.93256 -2.38466,-5.31715 -5.31715,-5.31715 z  m 0,3.029 c 1.26797,0 2.28808,1.02014 2.28808,2.28812 0,1.26797 -1.02011,2.28808 -2.28808,2.28808 -1.26798,0 -2.28812,-1.02011 -2.28812,-2.28808 0,-1.26798 1.02014,-2.28812 2.28812,-2.28812 z "/>
</g>
<g style="stroke-linejoin:bevel;fill:#34495e">
<path id="shape0" d="m 27.4342,29.1126 c 0.93289,-0.650852 1.19773,-1.06662 1.56641,-1.52915 l 5.4995,3.9445 c -0.83121,1.2949 -1.81325,2.42361 -3.16689,3.19733 z "/>
<path id="shape1" d="m 20.5533,18.869 c -0.961024,0.677675 -1.23385,1.11059 -1.61365,1.59219 l -5.6653,-4.1071 c 0.856267,-1.34829 1.86794,-2.52353 3.2624,-3.32912 z "/>
</g>
</g>
</svg>
