<svg width="48" version="1.1" xmlns="http://www.w3.org/2000/svg" height="48">
<path style="fill:#8a97a2" id="rect4090" d="m 4.5,5.627 0,36.7459 39,0 0,-36.7459 z"/>
<path style="fill:#fff;stroke:none" id="path9" d="m 41.8874,25.4438 c -0.637573,-2.38455 -0.354933,-2.84503 -2.68295,-2.17989 l -1.8781,.5366 c -0.737798,-1.07317 -1.81098,-2.01219 -2.95123,-2.68293 l .3019,-1.8445 c 0.414758,-2.53469 -0.629031,-1.96595 -2.78355,-2.24696 -2.3998,-0.321076 -2.9897,-1.03625 -3.35367,1.37499 l -.2683,1.7775 c -0.20122,0.06707 -0.469518,0.13414 -0.67073,0.201231 -0.804875,0.201206 -1.54269,0.603652 -2.21342,1.00608 l -1.4421,-1.1067 c -1.9475,-1.4946 -2.00925,-0.420147 -3.35367,1.20733 -1.60845,1.90207 -2.36831,1.9588 -0.402443,3.48781 l 1.5092,1.1738 c -0.268288,0.737805 -0.402436,1.54269 -0.402436,2.41464 l -1.8781,.5366 c -2.41287,0.689396 -1.69957,1.13896 -1.07318,3.25306 0.637555,2.38455 0.354921,2.84503 2.68294,2.17988 l 1.8781,-.5366 c 0.737815,1.07318 1.81098,2.01221 2.95123,2.68293 l -.3018,1.8445 c -0.414767,2.53467 0.62903,1.96593 2.78355,2.24696 2.3998,0.32106 2.9897,1.03625 3.35367,-1.375 l .2683,-1.7775 c 0.201223,-0.06707 0.469511,-0.13415 0.670725,-0.201216 0.804897,-0.201237 1.5427,-0.603666 2.21343,-1.00611 l 1.4421,1.1067 c 1.74113,1.73062 2.00925,0.420138 3.35367,-1.20732 1.60844,-1.90208 2.36832,-1.9588 0.402434,-3.48782 l -1.5091,-1.1738 c 0.268297,-0.737808 0.402437,-1.54268 0.402437,-2.41463 l 1.8781,-.5366 c 2.41287,-0.689397 1.69957,-1.13897 1.07318,-3.25306 z  m -10.9329,6.6738 c -1.87806,0.536585 -3.89026,-0.536584 -4.49392,-2.41464 -0.603659,-1.87805 0.536584,-3.89026 2.41464,-4.49392 1.87806,-0.536577 3.89026,0.536602 4.49392,2.41465 0.536591,1.87804 -0.536576,3.89025 -2.41464,4.49391 z "/>
<g style="fill:none" id="text854" transform="matrix(2.0401244,0,0,1.6313805,4.5069606,5.9589736)">
<path style="fill:#fff" id="path815" d="m 3.78705,10.4463 0,1.4062 -1.00345,0 0,-1.3674 C 1.85344,10.4804 0.987441,10.2817 0.185584,9.88896 l 0,-1.79505 C 0.451334,8.29695 0.847679,8.48487 1.37461,8.65768 1.90155,8.83049 2.3712,8.92987 2.7836,8.95578 l 0,-2.35882 C 1.71139,6.22109 0.978264,5.815 0.584211,5.37865 0.194737,4.93799 0,4.40229 0,3.77155 0,3.09327 0.254308,2.51651 0.762925,2.0413 1.27153,1.56176 1.94509,1.2831 2.7836,1.20534 l 0,-1.20534 1.00345,0 0,1.17941 c 0.96681,0.04318 1.68849,0.19007 2.16503,0.44067 l 0,1.74968 C 5.3106,3.00254 4.58892,2.7779 3.78705,2.69581 l 0,2.45602 C 4.79052,5.49314 5.50991,5.88412 5.94519,6.32478 6.3805,6.76113 6.59815,7.29034 6.59815,7.91245 6.59815,8.62961 6.3553,9.20852 5.86959,9.64918 5.38389,10.0855 4.68972,10.3512 3.78705,10.4463 Z M 2.7836,4.77598 l 0,-2.05425 C 2.14669,2.82968 1.82823,3.1429 1.82823,3.66137 c 0,0.445 0.31846,0.81653 0.95537,1.11461 z m 1.00345,2.19034 0,1.96355 C 4.44229,8.83483 4.76992,8.52592 4.76992,8.00318 4.76992,7.57981 4.44229,7.23419 3.78705,6.96632 Z" transform="translate(0.625,0.625)"/>
</g>
</svg>
