<svg width="48" version="1.1" xmlns="http://www.w3.org/2000/svg" height="48">
<rect width="39.000011" x="4.4999952" y="5.627111" height="36.745777" style="fill:#203040" id="rect813"/>
<rect width="4" x="18.521879" y="8.7136297" height="11" style="fill:#fff" id="rect868"/>
<g style="fill:none" id="text854" transform="translate(17.278781,2.9360305)">
<path style="fill:#fff" id="path815" d="m 3.998,11.0058 0,1.4815 -1.05934,0 0,-1.4407 C 1.95668,11.0417 1.04245,10.8323 0.195922,10.4186 l 0,-1.89121 C 0.476475,8.7413 0.894898,8.93929 1.45118,9.12134 2.00747,9.30341 2.50329,9.40812 2.93866,9.43541 l 0,-2.48514 C 1.80672,6.55426 1.03276,6.12643 0.616754,5.66671 0.205585,5.20244 0,4.63805 0,3.97354 0,3.25894 0.268473,2.65129 0.805423,2.15062 1.34235,1.6454 2.05344,1.35182 2.93866,1.26989 L 2.93866,0 3.998,0 l 0,1.24257 c 1.02067,0.0455 1.78255,0.20025 2.28563,0.46427 l 0,1.84339 C 5.60642,3.16334 4.84455,2.92667 3.998,2.84019 l 0,2.58754 c 1.05938,0.3596 1.81884,0.77152 2.27836,1.23577 0.45956,0.45972 0.68933,1.01728 0.68933,1.67271 0,0.75557 -0.25637,1.36548 -0.76914,1.82969 -0.51276,0.4597 -1.24559,0.7397 -2.19855,0.8399 z m -1.05934,-5.97405 0,-2.16426 c -0.67239,0.11373 -1.0086,0.44373 -1.0086,0.98997 0,0.46883 0.33621,0.86026 1.0086,1.17429 z m 1.05934,2.30766 0,2.06871 C 4.68974,9.30798 5.03563,8.98254 5.03563,8.43179 5.03563,7.98575 4.68974,7.62162 3.998,7.33941 Z" transform="translate(-7.75697,5.77765)"/>
</g>
<path style="fill:#bdc3c7;stroke:none" id="path9" d="m 39.5948,28.0347 c -0.525115,-1.96399 -0.292322,-2.34325 -2.20974,-1.79542 l -1.5468,.4419 c -0.607679,-0.883899 -1.49158,-1.6573 -2.43072,-2.20974 l .2486,-1.5192 c 0.341612,-2.08763 -0.518085,-1.6192 -2.29261,-1.85066 -1.97654,-0.264439 -2.46241,-0.85348 -2.76218,1.13249 l -.221,1.464 c -0.165731,0.05524 -0.386706,0.110488 -0.552433,0.165731 -0.662922,0.16573 -1.2706,0.497193 -1.82304,0.828653 l -1.1877,-.9115 c -1.60402,-1.23099 -1.65487,-0.346038 -2.76218,0.994385 -1.32476,1.5666 -1.95061,1.61332 -0.331462,2.87267 l 1.243,.9667 c -0.220974,0.607679 -0.33146,1.2706 -0.33146,1.98877 l -1.5468,.4419 c -1.98731,0.567801 -1.39981,0.938089 -0.883898,2.67931 0.52511,1.96399 0.292323,2.34325 2.20974,1.79542 l 1.5468,-.4419 c 0.607679,0.883898 1.49158,1.65731 2.43072,2.20974 l -.2486,1.5192 c -0.341613,2.08763 0.518083,1.6192 2.29261,1.85066 1.97654,0.264441 2.46241,0.853482 2.76218,-1.13249 l .221,-1.464 c 0.16573,-0.05524 0.386705,-0.110486 0.552433,-0.16573 0.662925,-0.165732 1.27061,-0.497193 1.82304,-0.828653 l 1.1877,.9115 c 1.43404,1.42539 1.65487,0.346039 2.76218,-0.994385 1.32476,-1.5666 1.95061,-1.61332 0.331461,-2.87266 l -1.243,-.9667 c 0.220974,-0.607679 0.331462,-1.2706 0.331462,-1.98877 l 1.5468,-.4419 c 1.98731,-0.567802 1.39982,-0.938089 0.883899,-2.67931 z  m -9.0047,5.4967 c -1.54682,0.441948 -3.20412,-0.441948 -3.70132,-1.98877 -0.497193,-1.54682 0.441949,-3.20412 1.98877,-3.70132 1.54682,-0.441948 3.20412,0.441948 3.70132,1.98877 0.441947,1.54682 -0.441949,3.20412 -1.98877,3.70132 z "/>
</svg>
