<svg width="48" version="1.1" xmlns="http://www.w3.org/2000/svg" height="48">
<path style="fill:#2980b9" id="rect4090" d="m 4.5,5.6293 0,36.7409 39,0 0,-36.7458 -12.6176,.0049 z "/>
<g style="stroke-width:0;stroke-linecap:square;stroke:#003bc3;fill:#fff;stroke-miterlimit:2;fill-rule:evenodd">
<path id="shape0" d="m 21.7867,23.8585 1.9967,.3339 -3.3085,15.3404 c -0.126452,-1.7135 -0.743287,-2.89656 -1.85048,-3.54899 1.40546,-5.38901 2.45955,-9.4308 3.16227,-12.1253 z "/>
<path id="shape11" d="m 23.8897,18.9043 c -2.0507,0.01429 -4.13719,1.63284 -4.13719,3.32604 0,1.69319 2.02468,3.31185 4.14281,3.31185 2.11811,0 4.13603,-1.64723 4.13603,-3.31185 0,-1.66463 -2.09095,-3.34033 -4.14165,-3.32604 z  m 0,1.5367 c 1.23754,0 2.23315,0.797792 2.23315,1.78939 0,0.9916 -0.995613,1.78937 -2.23315,1.78937 -1.23752,0 -2.23316,-0.797773 -2.23316,-1.78937 0,-0.991599 0.995648,-1.78939 2.23316,-1.78939 z "/>
<path id="shape1" d="m 25.946,23.8247 -2.0097,.3361 3.3207,15.4743 c 0.131912,-1.73775 0.759021,-2.9277 1.88136,-3.56965 z "/>
<rect width="2.2494833" x="22.8144" y="15.951693" rx="1.1247" ry="0.92523342" height="4.0310259" id="shape2"/>
<rect width="14.355828" x="16.683371" y="31.925894" height="0.82686049" id="shape3"/>
<rect width="1.4557031" x="23.140394" y="30.712341" rx=".7279" ry="0.49257135" height="3.2017138" id="shape4"/>
</g>
</svg>
