<svg width="48" version="1.1" xmlns="http://www.w3.org/2000/svg" height="48">
<g style="stroke:none" id="layer1" transform="translate(-180.23661,-689.8125)">
<rect width="30" x="189.2366" y="698.8125" height="30" style="fill:none;fill-rule:evenodd" id="rect3332"/>
<rect width="39.000011" x="184.7366" y="695.43939" height="36.745777" style="fill:#ff8000" id="rect824"/>
<path style="fill:#fff;fill-rule:evenodd" id="path4112" d="m 204.2386,704.8125 0,12.8359 c -0.54474,-0.50772 -1.2551,-0.83598 -2.00196,-0.83593 -1.5709,9e-05 -2.99804,1.42933 -2.99804,3 0,1.57067 1.42714,2.9999 2.99804,3 1.57091,9e-05 3.00196,-1.42916 3.00196,-3 v -10.6152 c 2.09244,1.25511 3.39648,3.55901 3.39648,6.01563 0,0.63161 -0.10429,1.25103 -0.28712,1.84765 0.56004,-0.98918 0.88672,-2.10262 0.88672,-3.24804 0,-1.83447 -0.62808,-3.58424 -1.92383,-4.875 -0.59781,-0.59552 -2.05044,-1.6979 -2.07226,-4.07422 v -0.0508 h -0.004 -0.99609 z "/>
<g style="fill:none" id="g8">
<circle cx="181.2366" cy="713.8125" id="path3280" r="1"/>
<circle cx="224.73662" cy="713.8125" id="circle3288" r="3.5"/>
<circle cx="227.23662" cy="713.8125" r="1" id="circle3282"/>
<circle cx="204.23662" cy="691.8125" id="circle3284" r="2"/>
<circle cx="204.23662" cy="735.8125" r="2" id="circle3286"/>
</g>
<g style="fill:#fff">
<path id="path4150" d="m 198.6429,723.9648 q -0.6875,0 -1.0664,0.50782 -0.37891,0.50781 -0.37891,1.42968 0,0.91797 0.37891,1.42578 0.3789,0.50782 1.0664,0.50782 0.69141,0 1.07032,-0.50782 0.3789,-0.50781 0.3789,-1.42578 0,-0.92187 -0.3789,-1.42968 -0.37891,-0.50782 -1.07032,-0.50782 z  m 0,-1.0898 q 1.40625,0 2.20313,0.80469 0.79687,0.80468 0.79687,2.22265 0,1.41407 -0.79687,2.21875 -0.79688,0.80469 -2.20313,0.80469 -1.40234,0 -2.20312,-0.80469 -0.79688,-0.80468 -0.79688,-2.21875 0,-1.41797 0.79688,-2.22265 0.80078,-0.80469 2.20312,-0.80469 z "/>
<path id="path4152" d="m 205.6897,728.0703 q -0.28906,0.38281 -0.63672,0.5625 -0.34766,0.17969 -0.80469,0.17969 -0.80078,0 -1.32422,-0.62891 -0.52343,-0.63281 -0.52343,-1.60937 0,-0.98047 0.52343,-1.60547 0.52344,-0.62891 1.32422,-0.62891 0.45703,0 0.80469,0.17969 0.34766,0.17969 0.63672,0.56641 v -0.64844 h 1.40625 v 3.93359 q 0,1.05469 -0.66797,1.60938 -0.66406,0.55859 -1.92969,0.55859 -0.41015,0 -0.79297,-0.0625 -0.38281,-0.0625 -0.76953,-0.1914 v -1.08985 q 0.36719,0.21094 0.71875,0.3125 0.35156,0.10547 0.70703,0.10547 0.6875,0 1.00782,-0.30078 0.32031,-0.30078 0.32031,-0.94141 v -0.30078 z  m -.9219,-2.7227 q -0.43359,0 -0.67578,0.32031 -0.24219,0.32031 -0.24219,0.90625 0,0.60156 0.23438,0.91406 0.23437,0.30859 0.68359,0.30859 0.4375,0 0.67969,-0.32031 0.24219,-0.32031 0.24219,-0.90234 0,-0.58594 -0.24219,-0.90625 -0.24219,-0.32031 -0.67969,-0.32031 z "/>
<path id="path4154" d="m 211.4241,728.0703 q -0.28906,0.38281 -0.63672,0.5625 -0.34765,0.17969 -0.80468,0.17969 -0.80078,0 -1.32422,-0.62891 -0.52344,-0.63281 -0.52344,-1.60937 0,-0.98047 0.52344,-1.60547 0.52344,-0.62891 1.32422,-0.62891 0.45703,0 0.80468,0.17969 0.34766,0.17969 0.63672,0.56641 v -0.64844 h 1.40625 v 3.93359 q 0,1.05469 -0.66797,1.60938 -0.66406,0.55859 -1.92968,0.55859 -0.41016,0 -0.79297,-0.0625 -0.38281,-0.0625 -0.76953,-0.1914 v -1.08985 q 0.36718,0.21094 0.71875,0.3125 0.35156,0.10547 0.70703,0.10547 0.6875,0 1.00781,-0.30078 0.32031,-0.30078 0.32031,-0.94141 v -0.30078 z  m -.9219,-2.7227 q -0.4336,0 -0.67578,0.32031 -0.24219,0.32031 -0.24219,0.90625 0,0.60156 0.23437,0.91406 0.23438,0.30859 0.6836,0.30859 0.4375,0 0.67969,-0.32031 0.24218,-0.32031 0.24218,-0.90234 0,-0.58594 -0.24218,-0.90625 -0.24219,-0.32031 -0.67969,-0.32031 z "/>
</g>
</g>
</svg>
