<svg width="48" version="1.1" xmlns="http://www.w3.org/2000/svg" height="48">
<g style="fill:#2c3e50" id="layer1" transform="matrix(1.1446382,0,0,0.91694783,-3.4765175,1.9901786)">
<path id="rect4090" d="m 5.6581,1.1013 v 45.8041 h 36.6928 v -45.8041 Z "/>
</g>
<g style="fill:#ecf0f1" id="g7" transform="scale(0.977679,1.0228306)">
<path id="path4141" d="m 16.7401,29.0738 -.6314,0 -.7296,.6454 c -0.78573,-0.533174 -1.5434,-0.757668 -2.52556,-0.757668 -2.16076,0 -3.634,1.26278 -3.634,3.12889 0,1.71177 1.26278,2.93246 3.46563,3.33935 l .8699,.1684 c 0.897978,0.168371 1.1786,0.238525 1.51534,0.420927 0.392865,0.210463 0.61736,0.63139 0.61736,1.12247 0,0.982163 -0.799761,1.64162 -2.02045,1.64162 -1.58549,0 -2.97455,-1.24875 -3.74625,-3.35339 h -0.715576 l .0842,3.9707 h 0.63139 l .8699,-.8278 c 0.855885,0.645421 1.75386,0.94007 2.87633,0.94007 2.18882,0 3.70416,-1.37503 3.70416,-3.33935 0,-1.78192 -1.05232,-2.77812 -3.47966,-3.31129 l -.6735,-.1543 c -1.08038,-0.210464 -1.08038,-0.210464 -1.43115,-0.336742 -0.631391,-0.224494 -0.954101,-0.63139 -0.954101,-1.20666 0,-0.855885 0.78573,-1.47324 1.89417,-1.47324 1.45921,0 2.62378,1.02426 3.4516,3.01664 h 0.743638 l -.1824,-3.634 z "/>
<path id="path4143" d="m 22.0573,31.1925 c 0,-0.883947 0,-0.940071 0.09822,-1.05232 0.126278,-0.15434 0.434958,-0.210463 1.16456,-0.210463 h 0.210464 v -0.757669 h -5.45802 v 0.757669 h 0.210464 c 0.729606,0 1.02426,0.05612 1.15053,0.210463 0.09822,0.112247 0.09822,0.168371 0.09822,1.05232 v 4.4478 c 0,1.1786 0.09822,1.76789 0.364803,2.25897 0.575267,1.05232 1.93626,1.61355 3.91462,1.61355 1.79595,0 2.87633,-0.477051 3.56385,-1.55743 0.392865,-0.63139 0.505112,-1.26278 0.505112,-2.91843 v -2.82021 c 0,-1.23472 0.07015,-1.59952 0.364804,-1.9082 0.224494,-0.238525 0.617359,-0.364803 1.1786,-0.378834 v -0.757669 h -3.99881 v 0.757669 c 0.547205,0.01403 0.926039,0.140309 1.15053,0.378834 0.294649,0.30868 0.364803,0.659452 0.364803,1.9082 v 2.82021 c 0,1.15053 -0.05612,1.69774 -0.238525,2.0906 -0.406896,0.883947 -1.22069,1.33293 -2.38525,1.33293 -0.799761,0 -1.40309,-0.238525 -1.79595,-0.687514 -0.30868,-0.378834 -0.46302,-1.06635 -0.46302,-2.0906 v -4.48989 z "/>
<path id="path4145" d="m 29.8022,29.1721 0,.7577 .2105,0 c 0.729607,0 1.02426,0.05612 1.15053,0.196432 0.09822,0.126278 0.09822,0.168371 0.09822,1.06635 v 6.08941 c 0,0.883947 0,0.94007 -0.09822,1.05232 -0.126278,0.15434 -0.420926,0.210464 -1.15053,0.210464 h -0.210464 v 0.757668 h 5.68251 c 1.45921,0 2.20285,-0.112247 2.91843,-0.420927 0.897978,-0.406896 1.48728,-1.29084 1.48728,-2.23091 0,-0.982163 -0.561236,-1.78192 -1.59952,-2.24494 -0.47705,-0.224495 -0.897977,-0.336742 -1.62758,-0.434958 0.687514,-0.112247 1.08038,-0.210464 1.47324,-0.392865 0.841854,-0.406897 1.29084,-1.08038 1.29084,-1.92223 0,-0.799761 -0.420927,-1.5434 -1.10844,-1.92223 -0.771699,-0.448989 -1.43115,-0.561236 -3.10083,-0.561236 h -5.41593 z  m 3.9848,4.546 0,-2.9746 c 0,-0.406896 0.02806,-0.519143 0.16837,-0.631391 0.140309,-0.126278 0.350773,-0.182401 0.61736,-0.182401 h 0.420927 c 1.23472,0 1.89417,0.617359 1.89417,1.78192 0,0.687514 -0.238525,1.23472 -0.687514,1.58549 -0.378834,0.308679 -0.855885,0.420927 -1.7258,0.420927 h -0.687514 z  m 0,.7717 .9681,0 c 0.883946,0 1.29084,0.08418 1.68371,0.336742 0.47705,0.32271 0.771699,0.94007 0.771699,1.66968 0,0.673483 -0.252556,1.29084 -0.659452,1.62758 -0.350773,0.294649 -0.813792,0.420927 -1.48728,0.420927 h -0.420927 c -0.491081,0 -0.729606,-0.08419 -0.813792,-0.280618 -0.04209,-0.112247 -0.04209,-0.15434 -0.04209,-0.61736 v -3.15695 z "/>
</g>
<path style="fill:#e4e6e8;stroke:none" id="path9" d="m 34.4603,14.067 c -0.566562,-2.11898 -0.3154,-2.52817 -2.38414,-1.93711 l -1.6689,.4768 c -0.655628,-0.953647 -1.60929,-1.78809 -2.62254,-2.38413 l .2683,-1.6391 c 0.368567,-2.2524 -0.558973,-1.747 -2.47354,-1.99671 -2.13253,-0.285317 -2.65673,-0.920841 -2.98016,1.22186 l -.2384,1.5795 c -0.178812,0.059601 -0.417227,0.119202 -0.596031,0.178819 -0.715232,0.178797 -1.37088,0.536421 -1.96691,0.894037 l -1.2814,-.9834 c -1.73061,-1.32815 -1.78547,-0.373355 -2.98016,1.07286 -1.42931,1.69023 -2.10455,1.74064 -0.357624,3.09937 l 1.3411,1.043 c -0.238409,0.655636 -0.357616,1.37088 -0.357616,2.14572 l -1.6689,.4768 c -2.14414,0.612617 -1.51029,1.01212 -0.953654,2.89076 0.566548,2.11898 0.315393,2.52818 2.38413,1.9371 l 1.6689,-.4768 c 0.655643,0.953654 1.60929,1.7881 2.62254,2.38413 l -.2682,1.6391 c -0.368574,2.25238 0.558973,1.74698 2.47354,1.99671 2.13253,0.285302 2.65673,0.920841 2.98016,-1.22187 l .2384,-1.5795 c 0.178812,-0.0596 0.41722,-0.119208 0.596024,-0.178804 0.715255,-0.178826 1.37088,-0.536435 1.96691,-0.894058 l 1.2814,.9834 c 1.54722,1.53787 1.78547,0.373347 2.98017,-1.07286 1.42931,-1.69024 2.10455,-1.74064 0.357616,-3.09937 l -1.3411,-1.043 c 0.238415,-0.655636 0.357617,-1.37087 0.357617,-2.14571 l 1.6689,-.4768 c 2.14415,-0.612616 1.51029,-1.01212 0.953662,-2.89076 z  m -9.7153,5.9305 c -1.66889,0.476824 -3.45699,-0.476824 -3.99342,-2.14572 -0.536427,-1.66889 0.476824,-3.457 2.14572,-3.99342 1.66889,-0.476817 3.45699,0.476838 3.99342,2.14572 0.476831,1.66888 -0.476817,3.45698 -2.14571,3.99342 z "/>
</svg>
