<svg width="48" version="1.1" xmlns="http://www.w3.org/2000/svg" height="48">
<path style="fill:#5686bf" d="m 4,13 v 22 l 20,11 v -22 Z "/>
<path style="fill:#8ab3e5" d="m 24,2 20,11 -20,11 -20,-11 Z "/>
<path style="fill:#3f618c" d="m 44,13 v 22 l -20,11 v -22 Z "/>
<path style="opacity:.5;fill:#030303" d="m 31.9373,8.58 -1.593,.3512 c -0.625827,-0.702283 -1.53614,-1.31678 -2.50333,-1.75571 l .2561,-1.2071 c 0.351812,-1.65871 -0.533566,-1.28652 -2.36111,-1.47041 -2.0356,-0.210111 -2.53597,-0.678122 -2.8447,0.899797 l -.2276,1.1632 c -0.170683,0.043887 -0.398262,0.087785 -0.568939,0.131686 -0.682722,0.131669 -1.30856,0.395029 -1.8775,0.658383 l -1.2232,-.7242 c -1.65194,-0.978072 -1.70431,-0.274944 -2.8447,0.790076 -1.36434,1.24471 -1.89863,1.46144 -1.27685,2.16864 l 2.2157,.8819 c -0.227572,0.48282 -0.341362,1.00953 -0.341362,1.58014 l -1.593,.3512 c -2.04668,0.451141 -1.78256,0.812454 -1.1596,2.15704 0.998134,1.3322 0.895049,1.76397 2.52505,1.39828 l 1.593,-.3512 c 0.625841,0.702286 1.44969,1.27772 2.41688,1.71665 l -.2883,1.2384 c -0.267582,1.25454 -0.287207,1.32358 0.32213,1.82945 2.0356,0.210102 4.6937,0.326841 5.00243,-1.25108 l .2276,-1.1632 c 0.170685,-0.04389 0.398256,-0.08778 0.568934,-0.131675 0.682741,-0.13169 1.30857,-0.395039 1.87751,-0.658399 l 1.2232,.7242 c 1.1321,0.667082 2.53644,-0.444803 4.05207,-1.2545 0.641134,-0.559469 0.801518,-0.817417 -0.866012,-1.81801 l -1.2801,-.7681 c 0.227579,-0.482821 0.341361,-1.00953 0.341361,-1.58014 l 2.8181,-.1555 c 0.809767,-0.38243 0.242207,-0.924317 -0.230434,-2.38623 -0.456241,-1.41118 -0.385659,-1.8 -2.36036,-1.36472 z  m -6.9979,5.7939 c -1.59304,0.351141 -3.29985,-0.351141 -3.8119,-1.58014 -0.512045,-1.229 0.45515,-2.54579 2.04819,-2.94082 1.59303,-0.351136 3.29985,0.351151 3.8119,1.58014 0.455156,1.22899 -0.455143,2.54578 -2.04818,2.94082 z "/>
<path style="fill:#fdfeff" d="m 34.2131,10.6067 c -0.540809,-1.56045 -0.301065,-1.86179 -2.27577,-1.42652 l -1.593,.3512 c -0.625827,-0.702283 -1.53614,-1.31678 -2.50333,-1.75571 l .2561,-1.2071 c 0.351812,-1.65871 -0.533566,-1.28652 -2.36111,-1.47041 -2.0356,-0.210111 -2.53597,-0.678122 -2.8447,0.899797 l -.2276,1.1632 c -0.170683,0.043887 -0.398262,0.087785 -0.568939,0.131686 -0.682722,0.131669 -1.30856,0.395029 -1.8775,0.658383 l -1.2232,-.7242 c -1.65194,-0.978072 -1.70431,-0.274944 -2.8447,0.790076 -1.36434,1.24471 -2.00888,1.28184 -0.341368,2.28243 l 1.2802,.7681 c -0.227572,0.48282 -0.341362,1.00953 -0.341362,1.58014 l -1.593,.3512 c -2.04668,0.451141 -1.44164,0.745339 -0.910307,2.1288 0.540796,1.56045 0.301058,1.86179 2.27576,1.42651 l 1.593,-.3512 c 0.625841,0.702286 1.53614,1.31678 2.50333,1.75571 l -.256,1.2071 c -0.351819,1.65869 0.533566,1.2865 2.36111,1.47041 2.0356,0.210102 2.53597,0.678122 2.8447,-0.899804 l .2276,-1.1632 c 0.170685,-0.04389 0.398256,-0.08778 0.568934,-0.131675 0.682741,-0.13169 1.30857,-0.395039 1.87751,-0.658399 l 1.2232,.7242 c 1.47689,1.13252 1.70431,0.274938 2.8447,-0.790077 1.36434,-1.24472 2.00889,-1.28184 0.34136,-2.28243 l -1.2801,-.7681 c 0.227579,-0.482821 0.341361,-1.00953 0.341361,-1.58014 l 1.593,-.3512 c 2.04669,-0.451141 1.44164,-0.745344 0.910314,-2.1288 z  m -9.2737,4.3674 c -1.59304,0.351141 -3.29985,-0.351141 -3.8119,-1.58014 -0.512045,-1.229 0.45515,-2.54579 2.04819,-2.94082 1.59303,-0.351136 3.29985,0.351151 3.8119,1.58014 0.455156,1.22899 -0.455143,2.54578 -2.04818,2.94082 z "/>
</svg>
