<svg width="48" version="1.1" xmlns="http://www.w3.org/2000/svg" height="48">
<path style="fill:#7e3c9f" d="M 3,3 V 45 H 45 V 3 Z"/>
<g style="fill-rule:evenodd">
<rect width="7.9695606" x="20.002359" y="3" height="18.793396" style="fill:#34495e"/>
<g style="fill:#ecf0f1">
<rect width="4.7816172" x="23.218046" y="3" height="1.5029116"/>
<rect width="4.7816172" x="20.041265" y="4.506155" height="1.5029116"/>
<rect width="4.7816172" x="23.218382" y="6.0092287" height="1.5029116"/>
<rect width="4.7816172" x="20.036551" y="7.5162678" height="1.5029116"/>
<rect width="4.7816172" x="23.213497" y="9.0192947" height="1.5029116"/>
<rect width="4.7816172" x="20.036551" y="10.524865" height="1.5029116"/>
<rect width="4.7816172" x="23.213497" y="12.027985" height="1.5029116"/>
<rect width="4.7816172" x="20.004717" y="13.533649" height="1.5029116"/>
<rect width="4.7816172" x="23.181494" y="15.036675" height="1.5029116"/>
<rect width="4.7816172" x="20.004717" y="16.542341" height="1.5029116"/>
<rect width="4.7816172" x="23.181833" y="18.045366" height="1.5029116"/>
<rect width="4.7816172" x="20" y="19.552444" height="1.5029116"/>
<rect width="7.9575529" x="20.016508" y="21.178423" height="10.016577"/>
</g>
<rect width="4.6644192" x="21.693239" y="22.178429" height="2.3696082" style="fill:#2c3e50"/>
</g>
<g style="fill:#fff">
<path d="m 36.9969,35.0547 -2.3496,3.502 v 1.29688 h 2.60156 v 1.07031 h 1.43164 v -1.07031 h 0.835937 v -1.0957 h -0.835937 v -3.70312 z  m .252,1.2461 v 2.45703 h -1.6582 z "/>
<path d="m 30.0594,36.5207 h 3.84033 v 0.982683 l -2.3191,2.4135 h 2.31913 v 1.00627 h -3.93859 v -0.982683 l 2.3191,-2.4135 h -2.22086 z "/>
<path d="m 25.2089,35.0546 h 1.51333 v 4.72474 h 2.65718 v 1.14384 h -4.17051 z "/>
<path d="m 22.2765,37.7196 c -0.123163,-0.05765 -0.246325,-0.09958 -0.369488,-0.125783 -0.120543,-0.02883 -0.242396,-0.04324 -0.365559,-0.04324 -0.361627,0 -0.640709,0.116612 -0.837246,0.349835 -0.193916,0.230603 -0.290874,0.562094 -0.290874,0.994475 v 2.02826 h -1.4072 v -4.40242 h 1.4072 v 0.723254 c 0.180814,-0.288253 0.387833,-0.497892 0.621056,-0.628917 0.235844,-0.133645 0.517546,-0.200467 0.845107,-0.200467 0.04717,0 0.09827,0.0026 0.153299,0.0079 0.05503,0.0026 0.134952,0.01046 0.239775,0.02358 z "/>
<path d="m 15.3797,36.4141 c -0.683794,0.0071 -1.36145,0.13 -1.75,0.22461 v 1.07227 c 0.865756,-0.46852 2.01336,-0.424859 2.38476,-0.203126 0.175569,0.102199 0.263672,0.263588 0.263672,0.486329 v 0.111328 h -0.830078 c -1.5308,0 -2.20508,0.47585 -2.20508,1.49609 0,1.42614 1.58072,1.67185 2.39844,1.25391 0.235845,-0.123163 0.448044,-0.316696 0.636719,-0.583985 v 0.652344 h 1.41992 v -2.51172 c 0,-0.704911 -0.177485,-1.21355 -0.53125,-1.52539 -0.413938,-0.370691 -1.10331,-0.479769 -1.78711,-0.472657 z  m .168,2.5273 h 0.730469 v 0.16211 c 0,0.285633 -0.09067,0.523548 -0.271484,0.714843 -0.459654,0.479636 -1.34375,0.352365 -1.34375,-0.287109 0,-0.50664 0.503633,-0.589844 0.884765,-0.589844 z "/>
<path d="m 8.4836,35.0546 h 5.40869 v 1.14384 h -1.94571 v 4.72474 h -1.51333 v -4.72474 h -1.94964 Z "/>
</g>
</svg>
