<svg width="48" version="1.1" xmlns="http://www.w3.org/2000/svg" height="48">
<path style="fill:#ff7f2a" id="rect4090" d="m 4.5399,5.6271 0,36.7458 38.9087,0 .0913,-36.6107 -12.6794,-.1351 z "/>
<g style="fill:#fff">
<path style="fill-rule:evenodd" id="path3672" d="m 33.413237,11 c 1.42737,4.29241 -5.03882,5.5975 -7.37108,8.27064 -1.58824,1.82138 0.779568,3.7725 4.00776,5.99564 -1.25891,-2.17225 -5.52986,-4.07596 0,-7.40993 C 36.945517,13.7016 33.413227,11 33.413227,11 Z m 4.2494,5.3191 c 0,0 -11.6507,2.21944 -6.08216,7.11772 1.64393,1.44446 -0.422895,2.73624 -0.422895,2.73624 0,0 4.17107,-1.63029 2.25566,-3.68953 -1.78956,-1.91926 -3.17856,-2.87623 4.2494,-6.16444 z m 1.8931,8.7472 c -0.357077,0.01588 -0.725057,0.06645 -1.10771,0.169199 -0.35775,0.0967 -0.543759,0.322731 -0.543759,0.322731 0,0 0.220733,-0.07369 0.725057,-0.154396 2.06265,-0.328026 5.0213,2.1085 -1.36949,4.6427 -0.02947,0.06062 -0.120865,0.138622 -0.120731,0.138622 7.7335,-1.55153 5.86883,-5.25435 2.41663,-5.11907 z m -13.8157,0.2457 c -0.814751,0.01588 -2.73763,0.149534 -4.95431,0.968625 -3.49643,1.29049 8.24597,2.42414 14.9435,0.614884 0.653588,-0.340558 1.55079,-0.630443 1.55079,-0.630443 0,0 -2.5733,0.143715 -5.13557,0.307944 -3.13605,0.200856 -6.48799,0.249153 -8.17666,0.07801 -3.99806,-0.408087 2.19523,-1.33783 2.19523,-1.33783 l -0.422947,0 z m -1.0271,2.9529 c -5.76765,1.4612 2.66997,3.60075 11.2782,1.32215 -0.856555,-0.230567 -1.40987,-0.845373 -1.40987,-0.845373 -3.94122,0.578905 -6.21945,0.550057 -9.10303,0.322731 -2.22933,-0.175898 -0.765274,-0.799506 -0.765274,-0.799506 z m 0.8056,2.8441 c -5.23706,1.11697 2.92661,3.97307 9.86843,1.24511 -1.0921,-0.323919 -1.87314,-0.892275 -1.87314,-0.892275 -2.97348,0.429155 -4.36966,0.465782 -7.06886,0.230461 -2.22768,-0.194914 -0.926423,-0.583298 -0.926423,-0.583298 z m -3.3834,1.8908 c -2.25051,-0.06645 -7.34261,1.6425 -2.98064,2.18305 14.8941,2.09232 24.7729,-0.7534 21.2472,-1.96783 0,0 0.956155,0.407353 -1.06746,0.876052 -3.84791,0.889752 -16.0138,1.35335 -19.3943,0.230437 -1.21435,-0.403764 1.05542,-0.95782 1.77228,-1.07613 0.747413,-0.122739 1.18822,-0.09249 1.18822,-0.09249 -0.168928,-0.09097 -0.443796,-0.144565 -0.765301,-0.154506 z m 20.4214,1.5359 c 0,0 -0.434604,0.840375 -5.07513,1.50658 -5.23503,0.75221 -11.6784,0.666963 -15.5074,0.184541 0,0 0.782637,0.79403 4.81332,0.992293 6.13293,0.299285 15.5462,-0.46795 15.7692,-2.68342 z"/>
<path style="stroke:none" id="path9" d="m 23.9245,13.5989 c -0.479846,-1.79466 -0.267127,-2.14122 -2.01923,-1.64062 l -1.4135,.4038 c -0.55528,-0.807685 -1.36298,-1.51441 -2.22114,-2.01922 l .2272,-1.3882 c 0.312154,-1.90765 -0.473419,-1.47961 -2.09495,-1.6911 -1.80613,-0.241647 -2.2501,-0.779899 -2.52403,1.03484 l -.2019,1.3378 c -0.151443,0.0504811 -0.353367,0.100956 -0.504805,0.15145 -0.605761,0.151431 -1.16105,0.454318 -1.66586,0.757199 l -1.0853,-.8329 c -1.46572,-1.12486 -1.51219,-0.316209 -2.52403,0.908654 -1.21055,1.43153 -1.78243,1.47423 -0.302887,2.62499 l 1.1359,.8834 c -0.201918,0.555286 -0.30288,1.16105 -0.30288,1.8173 l -1.4135,.4038 c -1.81596,0.518852 -1.27913,0.857204 -0.807692,2.44831 0.479834,1.79465 0.26712,2.14122 2.01923,1.64062 l 1.4135,-.4038 c 0.555292,0.807692 1.36298,1.51442 2.22114,2.01922 l -.2271,1.3882 c -0.312161,1.90763 0.473418,1.47959 2.09495,1.6911 1.80613,0.241634 2.2501,0.779899 2.52403,-1.03485 l .2019,-1.3378 c 0.151443,-0.05048 0.353362,-0.100962 0.504799,-0.151437 0.605779,-0.151456 1.16106,-0.45433 1.66586,-0.757217 l 1.0853,.8329 c 1.3104,1.30249 1.51219,0.316203 2.52403,-0.908654 1.21054,-1.43154 1.78244,-1.47423 0.302881,-2.62499 l -1.1358,-.8834 c 0.201925,-0.555286 0.302881,-1.16105 0.302881,-1.8173 l 1.4135,-.4038 c 1.81597,-0.518851 1.27913,-0.85721 0.807698,-2.44831 z  m -8.2283,5.0228 c -1.41346,0.403843 -2.92787,-0.403843 -3.3822,-1.8173 -0.454323,-1.41345 0.403843,-2.92788 1.8173,-3.3822 1.41346,-0.403837 2.92787,0.403855 3.3822,1.81731 0.403848,1.41345 -0.403837,2.92787 -1.8173,3.3822 z "/>
</g>
</svg>
