<svg width="48" version="1.1" xmlns="http://www.w3.org/2000/svg" height="48">
<path style="fill:#00e0ff" d="M 3,3 V 45 H 45 V 3 Z"/>
<g style="fill-rule:evenodd">
<rect width="7.9695606" x="20.002359" y="3" height="18.793396" style="fill:#34495e"/>
<g style="fill:#ecf0f1">
<rect width="4.7816172" x="23.218046" y="3" height="1.5029116"/>
<rect width="4.7816172" x="20.041265" y="4.506155" height="1.5029116"/>
<rect width="4.7816172" x="23.218382" y="6.0092287" height="1.5029116"/>
<rect width="4.7816172" x="20.036551" y="7.5162678" height="1.5029116"/>
<rect width="4.7816172" x="23.213497" y="9.0192947" height="1.5029116"/>
<rect width="4.7816172" x="20.036551" y="10.524865" height="1.5029116"/>
<rect width="4.7816172" x="23.213497" y="12.027985" height="1.5029116"/>
<rect width="4.7816172" x="20.004717" y="13.533649" height="1.5029116"/>
<rect width="4.7816172" x="23.181494" y="15.036675" height="1.5029116"/>
<rect width="4.7816172" x="20.004717" y="16.542341" height="1.5029116"/>
<rect width="4.7816172" x="23.181833" y="18.045366" height="1.5029116"/>
<rect width="4.7816172" x="20" y="19.552444" height="1.5029116"/>
<rect width="7.9575529" x="20.016508" y="21.178423" height="10.016577"/>
</g>
<rect width="4.6644192" x="21.693239" y="22.178429" height="2.3696082" style="fill:#2c3e50"/>
</g>
<path d="m 9.1706,35.0546 h 5.375 v 1.1367 h -1.9336 v 4.6953 h -1.5039 v -4.6953 h -1.9375 Z "/>
<path d="m 16.1862,38.9179 q -0.437499,0 -0.660155,0.148438 -0.21875,0.148437 -0.21875,0.4375 0,0.265625 0.175781,0.417969 0.179688,0.148437 0.496094,0.148437 0.39453,0 0.664062,-0.28125 0.269531,-0.285156 0.269531,-0.710937 v -0.160157 z  m 2.1367,-.5273 v 2.4961 h -1.4102 v -0.6484 q -0.28125,0.398437 -0.632813,0.582031 -0.351562,0.179688 -0.855468,0.179688 -0.679688,0 -1.10547,-0.394532 -0.421875,-0.398437 -0.421875,-1.03125 0,-0.769531 0.527344,-1.12891 0.53125,-0.359375 1.66406,-0.359375 h 0.824219 v -0.109375 q 0,-0.332031 -0.261719,-0.484375 -0.261719,-0.15625 -0.816406,-0.15625 -0.449219,0 -0.835938,0.08984 -0.386718,0.08984 -0.71875,0.269531 v -1.06641 q 0.449219,-0.109375 0.902344,-0.164063 0.453125,-0.05859 0.90625,-0.05859 1.18359,0 1.70703,0.46875 0.527344,0.464843 0.527344,1.51562 z "/>
<path d="m 22.8815,37.703 q -0.183594,-0.08594 -0.367187,-0.125 -0.179688,-0.04297 -0.363282,-0.04297 -0.539062,0 -0.832031,0.347656 -0.289062,0.34375 -0.289062,0.988281 v 2.01562 h -1.39844 v -4.375 h 1.39844 v 0.71875 q 0.269532,-0.429687 0.617187,-0.625 0.351563,-0.199218 0.839844,-0.199218 0.07031,0 0.152343,0.0078 0.08203,0.0039 0.238282,0.02344 l .0039,1.2656 z "/>
<path d="m 25.9831,37.3124 q 0.355468,0 0.539062,-0.15625 0.183594,-0.15625 0.183594,-0.460938 0,-0.300781 -0.183594,-0.457031 -0.183594,-0.160156 -0.539062,-0.160156 h -0.832032 v 1.23438 h 0.832032 z  m .0508,2.5508 q 0.453125,0 0.679688,-0.191406 0.230468,-0.191407 0.230468,-0.578125 0,-0.378907 -0.226562,-0.566407 -0.226563,-0.191406 -0.683593,-0.191406 h -0.882813 v 1.52734 h 0.882813 z  m 1.3984,-2.0977 q 0.484375,0.140625 0.75,0.519531 0.265625,0.378906 0.265625,0.929687 0,0.84375 -0.570312,1.25781 -0.570313,0.414062 -1.73438,0.414062 h -2.49609 v -5.83203 h 2.25781 q 1.21484,0 1.75781,0.367188 0.546875,0.367187 0.546875,1.17578 0,0.425781 -0.199219,0.726562 -0.199219,0.296875 -0.578125,0.441407 z "/>
<path d="m 29.4636,36.5116 h 3.8164 v 0.9766 l -2.3047,2.3984 h 2.3047 v 1 h -3.9141 v -0.9766 l 2.3047,-2.3984 h -2.207 z "/>
<path d="m 36.236,39.806 h 2.59342 v 1.11711 h -4.28289 v -1.11711 l 2.1513,-1.8987 q 0.288158,-0.260527 0.426316,-0.509211 0.138157,-0.248684 0.138157,-0.517105 0,-0.414474 -0.280263,-0.667105 -0.276316,-0.252632 -0.738158,-0.252632 -0.355263,0 -0.777631,0.153947 -0.422369,0.15 -0.903948,0.45 v -1.29474 q 0.513158,-0.169737 1.01447,-0.256579 0.501316,-0.09079 0.982895,-0.09079 1.0579,0 1.64211,0.46579 0.588158,0.465789 0.588158,1.29868 0,0.481579 -0.248684,0.9 -0.248684,0.414473 -1.04605,1.11316 z "/>
</svg>
