<?xml version="1.0" encoding="UTF-8" standalone="no"?>
<!-- Created using Karbon, part of Calligra: http://www.calligra.org/karbon -->

<svg
   xmlns:dc="http://purl.org/dc/elements/1.1/"
   xmlns:cc="http://creativecommons.org/ns#"
   xmlns:rdf="http://www.w3.org/1999/02/22-rdf-syntax-ns#"
   xmlns:svg="http://www.w3.org/2000/svg"
   xmlns="http://www.w3.org/2000/svg"
   xmlns:sodipodi="http://sodipodi.sourceforge.net/DTD/sodipodi-0.dtd"
   xmlns:inkscape="http://www.inkscape.org/namespaces/inkscape"
   width="38.4pt"
   height="38.4pt"
   id="svg2"
   version="1.1"
   inkscape:version="0.48.4 r9939"
   sodipodi:docname="application-vnd-google-earth-kml.svg">
  <metadata
     id="metadata17">
    <rdf:RDF>
      <cc:Work
         rdf:about="">
        <dc:format>image/svg+xml</dc:format>
        <dc:type
           rdf:resource="http://purl.org/dc/dcmitype/StillImage" />
      </cc:Work>
    </rdf:RDF>
  </metadata>
  <sodipodi:namedview
     pagecolor="#ffffff"
     bordercolor="#666666"
     borderopacity="1"
     objecttolerance="10"
     gridtolerance="10"
     guidetolerance="10"
     inkscape:pageopacity="0"
     inkscape:pageshadow="2"
     inkscape:window-width="640"
     inkscape:window-height="480"
     id="namedview15"
     showgrid="false"
     inkscape:zoom="13.401331"
     inkscape:cx="26.237288"
     inkscape:cy="27.698327"
     inkscape:current-layer="svg2" />
  <defs
     id="defs4" />
  <g
     id="layer1"
     transform="matrix(1.1514053,0,0,0.91669281,-3.6220948,2.0025533)">
    <path
       id="rect4090"
       d="m 7.00674,4.01618 0,40 33.253805,0 0,-29 -10.758584,-11 z"
       inkscape:connector-curvature="0"
       style="fill:#f1c40f"
       sodipodi:nodetypes="cccccc" />
    <path
       id="shape0"
       transform="translate(25.6062,4.03856)"
       d="m 0.171854,0 4.124486,0 10.95646,0.06195975 0,39.98024025 -5.1141,0 -1.10689,-4.1308 c 2.01369,-2.0676 3.03039,-3.0843 3.05009,-3.0501 0.0198,0.0342 -0.4273,-1.9259 -1.341,-5.8803 L 6.61637,24.9188 4.55413,21.8684 4.87637,18.4098 2.29856,17.3358 1.63261,14.2639 2.40595,9.10825 0,5.15561 z"
       inkscape:connector-curvature="0"
       style="fill:#27ae60;fill-rule:evenodd;stroke:#003bc3;stroke-width:0;stroke-linecap:square;stroke-linejoin:bevel"
       sodipodi:nodetypes="cccccccccccccccc" />
    <path
       id="shape1"
       transform="translate(7.00304,4.01013)"
       d="m 9.40204,0 6.68356,0 -3.1106,5.05516 -0.1289,4.85487 3.0933,4.25337 -1.7615,5.5853 1.3319,5.9289 5.4135,4.3186 2.9644,4.5319 2.0193,5.4993 L 17.1024,39.9949 14.2639,33.2821 8.61216,31.5038 3.65189,27.2243 0,26.2791 0,23.5294 4.21042,24.4746 8.72158,28.1265 14.3928,29.888 9.92456,25.1621 9.28011,19.9635 10.0534,14.8938 6.82575,9.99873 7.46083,4.99937 z"
       inkscape:connector-curvature="0"
       style="fill:#2980b9;fill-rule:evenodd;stroke:#003bc3;stroke-width:0;stroke-linecap:square;stroke-linejoin:bevel" />
    <path
       id="shape2"
       transform="translate(6.98734,3.9956)"
       d="m 0.0334982,40.0042 0,-39.9744844 L 4.09723,0 4.41757,4.94005 2.29573,12.8589 6.51444,20.1659 7.57727,24.4892 2.98018,20.6225 0.0479232,21.2132 0,32.4297 c 2.57873,-0.0903 3.88718,-0.1164 3.92538,-0.0782 0.05728,0.0573 1.53236,0.401 4.42523,1.0311 l 1.37483,2.0622 2.92156,0.6875 0.6014,2.4059 -1.357,1.466 z"
       inkscape:connector-curvature="0"
       style="fill:#27ae60;fill-rule:evenodd;stroke:#003bc3;stroke-width:0;stroke-linecap:square;stroke-linejoin:bevel" />
    <path
       id="shape3"
       transform="matrix(0,1,-1,0,37.636,25.7563)"
       d="M 2.28565e-4,4.33927 C 0.0219943,1.3815 1.55466,-5.76696e-4 4.12476,1.80513e-7 6.33508,0.0165876 9.42757,1.45621 13.8757,4.5119 9.638,7.37949 6.5462,8.59251 4.33958,8.67862 1.51183,8.5676 -0.0215371,7.29704 2.28565e-4,4.33927 z"
       inkscape:connector-curvature="0"
       style="fill:#e74c3c;fill-rule:evenodd;stroke:#003bc3;stroke-width:0;stroke-linecap:square;stroke-linejoin:bevel" />
    <path
       id="shape4"
       transform="translate(30.952,27.619)"
       stroke-miterlimit="2.01260185242"
       d="M 2.22948,0.00111724 C 0.966615,0.0414526 -0.0284396,1.12654 6.20636e-4,2.43164 0.0296808,3.73674 1.07198,4.7734 2.3353,4.75369 3.59862,4.73397 4.60931,3.62772 4.60021,2.32231 4.5512,1.01784 3.49234,-0.0392181 2.22948,0.00111724 z"
       inkscape:connector-curvature="0"
       style="fill:#ecf0f1;fill-rule:evenodd;stroke:#003bc3;stroke-width:0;stroke-linecap:square;stroke-linejoin:miter;stroke-miterlimit:2.01260185" />
  </g>
</svg>
