<svg width="48" version="1.1" xmlns="http://www.w3.org/2000/svg" height="48">
<g style="fill:#d40000" id="layer1" transform="matrix(1.1470591,0,0,0.91864444,-3.5294177,1.9525339)">
<path id="rect4090" d="m 0,-.0001 0,40.0001 h 34 v -40.0001 z " transform="translate(7,4)"/>
</g>
<g style="fill:#fff">
<path id="path4141" d="m 14.8417,21.3862 0,6.5785 2.9785,0 q 1.65342,0 2.55635,-0.856026 0.902932,-0.856026 0.902932,-2.43909 0,-1.57134 -0.902932,-2.42736 -0.902931,-0.856026 -2.55635,-0.856026 h -2.9785 z  m -2.3687,-1.9466 5.3472,0 q 2.94332,0 4.4443,1.33681 1.5127,1.32508 1.5127,3.89316 0,2.59153 -1.5127,3.91661 -1.50098,1.32508 -4.4443,1.32508 h -2.9785 v 7.03583 h -2.36873 v -17.5075 z "/>
<path id="path4143" d="m 34.8235,24.2005 0,2.0404 q -0.914658,-0.469055 -1.89967,-0.703583 -0.985016,-0.234527 -2.04039,-0.234527 -1.60651,0 -2.41563,0.492508 -0.797394,0.492508 -0.797394,1.47752 0,0.750488 0.574592,1.18436 0.574593,0.422149 2.3101,0.80912 l .7388,.1642 q 2.29837,0.492508 3.25993,1.39544 0.97329,0.891205 0.97329,2.49772 0,1.82932 -1.45407,2.89642 -1.44235,1.0671 -3.97524,1.0671 -1.05538,0 -2.20456,-0.211074 -1.13746,-0.199349 -2.40391,-0.609772 v -2.22801 q 1.19609,0.621498 2.357,0.938111 1.16091,0.304886 2.29837,0.304886 1.52443,0 2.34528,-0.515961 0.820846,-0.527687 0.820846,-1.47752 0,-0.879479 -0.598045,-1.34853 -0.586319,-0.469056 -2.59153,-0.902932 l -.7505,-.1759 q -2.00521,-0.422149 -2.89642,-1.2899 -0.891205,-0.879478 -0.891205,-2.40391 0,-1.85277 1.31335,-2.86124 1.31336,-1.00847 3.72899,-1.00847 1.19609,0 2.25146,0.175896 1.05537,0.175895 1.94658,0.527687 z "/>
</g>
</svg>
