<svg width="48" version="1.1" xmlns="http://www.w3.org/2000/svg" height="48">
<g style="fill:#134b73" id="layer1" transform="matrix(1.2352943,0,0,1.0499968,-5.6470604,-1.1998596)">
<path id="rect4090" d="m 0,-.0001 v 40.0001 h 34 v -40.0001 Z " transform="translate(7,4)"/>
</g>
<g style="stroke:none">
<g style="stroke-width:.281">
<path style="fill:#fff;fill-rule:evenodd" id="path3496" d="m 27.0095,23.7275 v 6.17195 l 5.0498,-3.086 z "/>
<path style="opacity:.08;fill:#134b73" id="path3828" d="m 13.8339,19.5712 v 1.12217 10.0996 2.80543 c 0,0.621683 0.500489,1.12217 1.12217,1.12217 h 17.9548 c 0.621683,0 1.12217,-0.500489 1.12217,-1.12217 v -2.80543 -10.0996 -1.12217 h -1.12217 -17.9548 Z  m .8679,.8679 h 0.254229 17.9548 0.254228 v 0.254228 10.0996 2.80543 c 0,0.154518 -0.09972,0.254242 -0.254242,0.254242 h -19.0769 c -0.154519,0 -0.254243,-0.09972 -0.254243,-0.254242 v -2.80543 -10.0996 -0.254242 Z "/>
</g>
<g style="fill:#f9f9f9" id="g15">
<rect width="2.8025162" x="15.440562" y="20.901134" height="11.605499" id="rect3169"/>
<path id="path3171" d="m 23.0976,20.9011 h 1.6859 1.6859 l -4.8068,5.8027 4.8068,5.8027 h -1.6859 -1.6859 l -4.8068,-5.8027 z"/>
</g>
<g style="fill:#fff;stroke-width:1.511">
<path id="path4154" d="m 16.7325,12.9128 v 1.40767 h 1.67785 v 0.63297 h -1.67785 v 2.69144 q 0,0.606477 0.163794,0.779124 0.16822,0.172647 0.677307,0.172647 h 0.836673 v 0.681734 h -0.836673 q -0.942917,0 -1.30149,-0.34972 -0.358575,-0.354147 -0.358575,-1.28378 v -2.69152 h -0.597624 v -0.633038 h 0.597624 v -1.40774 h 0.818965 z "/>
<path id="path4156" d="m 19.486,14.3206 h 0.814596 v 4.95799 h -0.814596 z  m 0,-1.93 h 0.814596 v 1.03143 h -0.814596 z "/>
<path id="path4158" d="m 22.8062,12.9128 v 1.40767 h 1.67785 v 0.63297 h -1.67785 v 2.69144 q 0,0.606477 0.163792,0.779124 0.16822,0.172647 0.677307,0.172647 h 0.836673 v 0.681734 h -0.836673 q -0.942917,0 -1.30149,-0.34972 -0.358574,-0.354147 -0.358574,-1.28378 v -2.69152 h -0.597623 v -0.633038 h 0.597623 v -1.40774 h 0.818967 z "/>
<path id="path4160" d="m 25.5596,12.3904 h 0.814596 v 6.88818 h -0.814596 z "/>
<path id="path4162" d="m 32.315,16.5959 v 0.398458 h -3.74508 q 0.05313,0.841101 0.504659,1.28378 0.455965,0.438259 1.26608,0.438259 0.469245,0 0.907502,-0.115096 0.442683,-0.115095 0.876515,-0.345294 v 0.770271 q -0.438257,0.185928 -0.89865,0.283318 -0.460391,0.09739 -0.934063,0.09739 -1.18639,0 -1.88141,-0.690587 -0.690587,-0.690588 -0.690587,-1.86813 0,-1.21738 0.655173,-1.9301 0.659598,-0.717149 1.77516,-0.717149 1.00047,0 1.58038,0.64632 0.584342,0.641891 0.584342,1.74861 z  m -.8146,-.239 q -0.0089,-0.668453 -0.376282,-1.06687 -0.363001,-0.398415 -0.965051,-0.398415 -0.681734,0 -1.09343,0.385134 -0.407269,0.385136 -0.469245,1.08458 l 2.904,-.0044 z "/>
</g>
</g>
</svg>
