<svg width="48" version="1.1" xmlns="http://www.w3.org/2000/svg" height="48">
<path style="fill:#a5be4d" id="rect4090" d="M 3,3 V 45 H 45 V 3 Z"/>
<g style="stroke:#003bc3;fill-rule:evenodd;stroke-linecap:square;stroke-width:0" id="g888" transform="translate(0,-1.507)">
<rect width="7.9695606" x="20.002359" y="4.5075564" height="18.793396" style="fill:#34495e;stroke-miterlimit:2.013" id="shape0"/>
<g style="stroke-miterlimit:2" id="g19">
<g style="fill:#ecf0f1" id="g10" transform="matrix(1.4683729,0,0,1.025597,-11.238691,-2.7746832)">
<rect width="3.2564054" x="23.465931" y="7.1004887" height="1.4654016" id="shape2"/>
<rect width="3.2564054" x="21.302462" y="8.5685101" height="1.4654016" id="shape3"/>
<rect width="3.2564054" x="23.46616" y="10.03407" height="1.4654016" id="shape4"/>
<rect width="3.2564054" x="21.29925" y="11.503496" height="1.4654016" id="shape5"/>
<rect width="3.2564054" x="23.462833" y="12.96901" height="1.4654016" id="shape6"/>
<rect width="3.2564054" x="21.29925" y="14.437004" height="1.4654016" id="shape7"/>
<rect width="3.2564054" x="23.462833" y="15.902609" height="1.4654016" id="shape8"/>
<rect width="3.2564054" x="21.277571" y="17.370695" height="1.4654016" id="shape9"/>
<rect width="3.2564054" x="23.441038" y="18.836208" height="1.4654016" id="shape10"/>
<rect width="3.2564054" x="21.277571" y="20.304295" height="1.4654016" id="shape11"/>
<rect width="3.2564054" x="23.441269" y="21.769808" height="1.4654016" id="shape12"/>
<rect width="3.2564054" x="21.274359" y="23.239271" height="1.4654016" id="shape13"/>
<rect width="5.4192996" x="21.285601" y="24.824669" height="9.7665815" id="shape17"/>
</g>
<rect width="4.6644192" x="21.693239" y="23.685429" height="2.3696082" style="fill:#2c3e50" id="shape18"/>
</g>
</g>
<g id="g927">
<path style="fill:#363636" id="path4164" d="m 16.0449,35.0547 h 4.9023 v 0.9102 l -3.1289,3.7852 h 3.2188 v 1.1367 h -5.082 v -0.9102 l 3.1289,-3.7852 h -3.0391 z "/>
<path style="fill:#363636" id="path4166" d="m 24.146481,37.40625 q -0.464843,0 -0.710937,0.335938 -0.242188,0.332031 -0.242188,0.960937 0,0.628907 0.242188,0.964844 Q 23.681637,40 24.146481,40 q 0.457032,0 0.699219,-0.332031 0.242187,-0.335937 0.242187,-0.964844 0,-0.628906 -0.242187,-0.960937 -0.242188,-0.335938 -0.699219,-0.335938 z m 0,-1 q 1.12891,0 1.76172,0.609375 0.636719,0.609375 0.636719,1.6875 0,1.07812 -0.636719,1.6875 Q 25.275389,41 24.146481,41 q -1.13281,0 -1.77344,-0.609375 -0.636719,-0.609375 -0.636719,-1.6875 0,-1.078119 0.636719,-1.6875 0.640625,-0.609375 1.77344,-0.609375 z"/>
<path style="fill:#363636" id="path4168" d="m 29.646481,37.40625 q -0.464843,0 -0.710937,0.335938 -0.242188,0.332031 -0.242188,0.960937 0,0.628907 0.242188,0.964844 Q 29.181637,40 29.646481,40 q 0.457032,0 0.699219,-0.332031 0.242187,-0.335937 0.242187,-0.964844 0,-0.628906 -0.242187,-0.960937 -0.242188,-0.335938 -0.699219,-0.335938 z m 0,-1 q 1.12891,0 1.76172,0.609375 0.636718,0.609375 0.636718,1.6875 0,1.07812 -0.636718,1.6875 Q 30.775389,41 29.646481,41 q -1.13281,0 -1.77344,-0.609375 -0.636719,-0.609375 -0.636719,-1.6875 0,-1.078119 0.636719,-1.6875 0.640625,-0.609375 1.77344,-0.609375 z"/>
</g>
</svg>
