<svg width="48" version="1.1" xmlns="http://www.w3.org/2000/svg" height="48">
<path style="fill:#2980b9" id="rect4090" d="m 4.5,5.6395 0,36.7185 39,0 0,-36.7458 -12.6177,.0273 z "/>
<g style="fill:#ecf0f1" id="g2989" transform="matrix(1.0427247,0,0,0.83446686,-1.0253903,3.9703383)">
<path id="path2991" d="M 0,0 0,40 34,40 34,-0.02968801 23,0 z" transform="translate(7,4)"/>
<rect width="23.362026" x="0" y="0" height="3.1810868" style="fill-rule:evenodd;stroke:#003bc3;stroke-linecap:square;stroke-width:0;stroke-miterlimit:2.013" id="rect2993" transform="translate(12.3038,16.1417)"/>
<rect width="11.115499" x="0" y="0" height="3.1810868" style="fill-rule:evenodd;stroke:#003bc3;stroke-linecap:square;stroke-width:0;stroke-miterlimit:2" id="rect2995" transform="translate(18.861,9.77954)"/>
<rect width="13.562757" x="0" y="0" height="3.1810868" style="fill-rule:evenodd;stroke:#003bc3;stroke-linecap:square;stroke-width:0;stroke-miterlimit:2" id="rect2997" transform="translate(12.2953,22.5039)"/>
<rect width="13.562757" x="0" y="0" height="3.1810868" style="fill-rule:evenodd;stroke:#003bc3;stroke-linecap:square;stroke-width:0;stroke-miterlimit:2" id="rect2999" transform="translate(12.3208,28.8661)"/>
<rect width="23.362026" x="0" y="0" height="3.1810868" style="fill-rule:evenodd;stroke:#003bc3;stroke-linecap:square;stroke-width:0;stroke-miterlimit:2" id="rect3001" transform="translate(12.3307,35.2282)"/>
<rect width="6.5734076" x="0" y="0" height="9.5378857" style="fill-rule:evenodd;stroke:#003bc3;stroke-linecap:square;stroke-width:0;stroke-miterlimit:2.013" id="rect3003" transform="translate(29.0863,22.4914)"/>
</g>
<g id="g3801" transform="translate(68.564396,-4.057433)">
<path style="fill:#cb3300;fill-rule:evenodd;stroke:none" id="path3012" d="m -39.0956,19.5105 2.5,6.5625 -3.6875,5.125 3.1562,1 2.1562,-3.125 .9688,3.6875 4.3125,.3438 -2.3125,-6.6562 3.875,-4.7812 -3.9688,-.875 -1.625,2.5 -1.1562,-3.0625 -4.2188,-.7188 z "/>
<path style="fill:#007fff;fill-rule:evenodd;stroke:none" id="path3010" d="m -57.2831,21.4793 -.0938,.125 -3.625,1.7188 4.7812,11.0312 7.6562,-3.7812 -1.5625,-3.2188 -3.7188,1.875 -3.4375,-7.75 z "/>
<path style="fill:#e6ae00;fill-rule:evenodd;stroke:none" id="path3001" d="m -50.8769,22.5418 3.625,7.9062 -.7812,5.4375 4.5,.7188 1.0938,-6.0625 4.4375,-6.3125 -3.7188,-.5312 -2.4062,3.3125 -1.9688,-3.8125 -4.7812,-.6562 z "/>
</g>
</svg>
