<?xml version="1.0" encoding="UTF-8" standalone="no"?>
<!-- Created using Karbon, part of Calligra: http://www.calligra.org/karbon -->

<svg
   xmlns:dc="http://purl.org/dc/elements/1.1/"
   xmlns:cc="http://creativecommons.org/ns#"
   xmlns:rdf="http://www.w3.org/1999/02/22-rdf-syntax-ns#"
   xmlns:svg="http://www.w3.org/2000/svg"
   xmlns="http://www.w3.org/2000/svg"
   xmlns:sodipodi="http://sodipodi.sourceforge.net/DTD/sodipodi-0.dtd"
   xmlns:inkscape="http://www.inkscape.org/namespaces/inkscape"
   width="38.4pt"
   height="38.4pt"
   id="svg2"
   version="1.1"
   inkscape:version="0.48.4 r9939"
   sodipodi:docname="application-vnd.oasis.opendocument.formula-template.svg">
  <metadata
     id="metadata14">
    <rdf:RDF>
      <cc:Work
         rdf:about="">
        <dc:format>image/svg+xml</dc:format>
        <dc:type
           rdf:resource="http://purl.org/dc/dcmitype/StillImage" />
      </cc:Work>
    </rdf:RDF>
  </metadata>
  <sodipodi:namedview
     pagecolor="#ffffff"
     bordercolor="#666666"
     borderopacity="1"
     objecttolerance="10"
     gridtolerance="10"
     guidetolerance="10"
     inkscape:pageopacity="0"
     inkscape:pageshadow="2"
     inkscape:window-width="640"
     inkscape:window-height="480"
     id="namedview12"
     showgrid="false"
     inkscape:zoom="10.933664"
     inkscape:cx="26.033898"
     inkscape:cy="16.983051"
     inkscape:current-layer="svg2" />
  <defs
     id="defs4" />
  <g
     id="layer1"
     transform="matrix(1.1466622,0,0,0.91824983,-3.519029,1.9613015)">
    <path
       id="rect4090"
       transform="translate(7,4)"
       d="M 0,0 0,40 34,40 33.908539,0.11618266 23,0 z"
       inkscape:connector-curvature="0"
       style="fill:#7f8c8d"
       sodipodi:nodetypes="cccccc" />
    <path
       id="shape0"
       transform="translate(13.3898,19.2344)"
       d="m 0,0 c 0,5.19687 0,10.3938 0,15.5906 1.63714,0 3.27427,0 4.9114,0 0,-0.3902 0,-0.7806 0,-1.1709 -1.27078,0 -2.54156,0 -3.81234,0 0,-4.3957 0,-8.79148 0,-13.18725 1.27078,0 2.54156,0 3.81234,0 0,-0.410812 0,-0.82163 0,-1.23245 C 3.27427,0 1.63714,0 0,0 z M 12.5533,4.35468 C 11.9064,5.51867 11.2596,6.68265 10.6128,7.84664 9.92014,6.68265 9.2275,5.51867 8.53485,4.35468 c -0.44648,0 -0.89298,0 -1.33946,0 0.90442,1.54742 1.8089,3.09484 2.71328,4.64226 -0.92163,1.58856 -1.8432,3.17706 -2.76481,4.76546 0.46367,0 0.92733,0 1.39099,0 0.68695,-1.2187 1.37382,-2.4374 2.06075,-3.6563 0.7212,1.2189 1.4425,2.4376 2.1637,3.6563 0.4695,0 0.9388,0 1.4082,0 -0.9617,-1.609 -1.9233,-3.2181 -2.885,-4.82708 0.8472,-1.52688 1.6944,-3.05375 2.5416,-4.58064 -0.4237,0 -0.8472,0 -1.2708,0 z M 21.2599,0 c -1.6371,0 -3.2743,0 -4.9115,0 0,0.41082 0,0.821638 0,1.23245 1.2766,0 2.5531,0 3.8296,0 0,4.39577 0,8.79155 0,13.18725 -1.2765,0 -2.553,0 -3.8296,0 0,0.3903 0,0.7807 0,1.1709 1.6372,0 3.2744,0 4.9115,0 0,-5.1968 0,-10.39373 0,-15.5906 z"
       inkscape:connector-curvature="0"
       style="fill:#ffffff" />
    <rect
       id="shape01"
       transform="translate(6.98823,3.98281)"
       stroke-miterlimit="2.00000000000"
       width="6.377964"
       height="40.004005"
       x="0"
       y="0"
       style="fill:#f1c40f;fill-rule:evenodd;stroke:#003bc3;stroke-width:0;stroke-linecap:square;stroke-linejoin:miter;stroke-miterlimit:2" />
  </g>
</svg>
