<svg width="48" version="1.1" xmlns="http://www.w3.org/2000/svg" height="48">
<path style="fill:#9945ba" d="m 3,3 v 42 h 42 v -42 Z "/>
<g style="fill:#fff">
<path d="m 20.7461,9 c -1.46179,0.324971 -2.90796,0.776602 -4.26367,1.45899 0.031,1.19711 0.108737,2.34465 0.265625,3.50976 -0.5265,0.337315 -1.0805,0.626609 -1.57227,1.02149 -0.499656,0.384396 -1.01046,0.75161 -1.46289,1.20117 -0.903862,-0.597838 -1.86018,-1.15837 -2.8457,-1.6543 -1.06233,1.14328 -2.05577,2.37699 -2.86719,3.75781 0.610469,0.987545 1.24743,1.91256 1.93555,2.79102 h 0.019531 v 6.82031 0.867188 0.787109 c 0.015502,0 0.031517,0 0.046875,0.002 l 5.1953,.502 c 0.272149,0.02627 0.484957,0.244855 0.503906,0.517579 l .1602,2.293 4.5332,.3242 .3105,-2.1172 c 0.04048,-0.274445 0.277086,-0.478516 0.554688,-0.478516 h 5.48047 c 0.277459,0 0.514209,0.204072 0.554688,0.478516 l .3105,2.1172 4.5332,-.3242 .1602,-2.293 c 0.01909,-0.272723 0.231758,-0.491163 0.503906,-0.517579 l 5.1934,-.502 c 0.01536,-0.0014 0.03138,-0.0018 0.04687,-0.002 v -0.675781 h 0.002 v -7.79883 h 0.01953 c 0.688228,-0.878455 1.32475,-1.80347 1.93551,-2.79102 -0.811135,-1.38084 -1.80486,-2.61455 -2.86719,-3.75781 -0.985247,0.495924 -1.94184,1.05646 -2.8457,1.6543 -0.45229,-0.449562 -0.962514,-0.816776 -1.46289,-1.20117 -0.491617,-0.394873 -1.04482,-0.684168 -1.57031,-1.02149 0.156457,-1.1651 0.232524,-2.31264 0.263672,-3.50976 -1.35591,-0.682383 -2.80115,-1.13401 -4.26367,-1.45899 -0.583914,0.981372 -1.11697,2.0431 -1.58203,3.08203 -0.551476,-0.09215 -1.10538,-0.12621 -1.66016,-0.132813 h -0.011719 -0.0098 c -0.555779,0.0066 -1.11049,0.04067 -1.66211,0.132813 -0.464742,-1.03893 -0.997221,-2.10066 -1.582,-3.08203 Z  m -4.1113,12.3965 c 1.72935,0 3.13086,1.40013 3.13086,3.12891 0,1.72992 -1.40151,3.13281 -3.13086,3.13281 -1.72849,0 -3.13086,-1.40289 -3.13086,-3.13281 0,-1.72878 1.40237,-3.12891 3.13086,-3.12891 z  m 14.7305,0 c 1.72834,0 3.13086,1.40013 3.13086,3.12891 0,1.72992 -1.40252,3.13281 -3.13086,3.13281 -1.72964,0 -3.13086,-1.40289 -3.13086,-3.13281 0,-1.72877 1.40122,-3.12891 3.13086,-3.12891 z  m -7.3652,1.832 c 0.556642,0 1.00781,0.41076 1.00781,0.916016 v 2.88281 c 0,0.505686 -0.45117,0.916016 -1.00781,0.916016 -0.556641,0 -1.00781,-0.41033 -1.00781,-0.916016 v -2.88281 c 0,-0.505256 0.451171,-0.916016 1.00781,-0.916016 z "/>
<path d="m 33.3818,31.5383 -.1609,2.3057 c -0.01938,0.277891 -0.240427,0.499083 -0.518318,0.519035 l -5.5341,.3949 c -0.01349,0.001 -0.02698,0.0014 -0.04033,0.0014 -0.275019,0 -0.51229,-0.201815 -0.55291,-0.477983 l -.3174,-2.1522 h -4.51559 l -.3174,2.1522 c -0.04263,0.28966 -0.301574,0.497935 -0.593245,0.476548 l -5.5341,-.3949 c -0.27789,-0.01995 -0.498938,-0.241144 -0.518317,-0.519035 l -.1609,-2.3057 -4.6717,-.4504 c 0.00215,0.502097 0.00861,1.05213 0.00861,1.16166 0,4.934 6.259,7.30552 14.0353,7.33279 h 0.0095 0.0096 c 7.77634,-0.02727 14.0332,-2.39881 14.0332,-7.33279 0,-0.111529 0.0067,-0.659272 0.009,-1.16165 z "/>
<path d="m 18.1,24.4879 c 0,0.828166 -0.671215,1.49938 -1.5,1.49938 -0.828372,0 -1.5,-0.671215 -1.5,-1.49938 0,-0.828165 0.671628,-1.5 1.5,-1.5 0.828787,0 1.5,0.671835 1.5,1.5"/>
<path d="m 29.8,24.4883 c 0,0.828394 0.671191,1.49979 1.49958,1.49979 0.829223,0 1.50041,-0.6714 1.50041,-1.49979 0,-0.828394 -0.671192,-1.50042 -1.50042,-1.50042 -0.828394,0 -1.49958,0.672021 -1.49958,1.50042"/>
</g>
</svg>
