<svg width="48" version="1.1" xmlns="http://www.w3.org/2000/svg" height="48">
<g style="fill-rule:evenodd">
<rect width="42" x="3" y="3" height="42" style="fill:#f39c12" id="rect2988"/>
<g style="stroke-width:1.105">
<path style="opacity:.2" id="path864" d="m 23.2514,43.6625 c -4.67797,-6.33216 -11.809,-13.8279 -18.6713,-16.1161 l .8,-.8 c 10.3119,0 18.6713,7.21542 18.6713,16.1161 z "/>
<path style="opacity:.2" id="path856" d="m 34.454,43.6627 c -5.53701,-12.0022 -19.8753,-22.3283 -29.874,-25.7859 l .8,-.8 c 16.4989,0 29.874,11.5447 29.874,25.7859 z "/>
</g>
<path style="opacity:.2" id="path858" d="m 12.1172,39.742 c 0.01423,2.93344 -2.64828,3.72829 -2.64828,3.72829 0,0 -4.7547,-1.61201 -4.34123,-3.82676 0.416353,-2.23014 1.86661,-3.24736 3.59133,-3.27345 1.95861,-0.02963 3.38961,1.6064 3.39817,3.37192 z "/>
<g style="fill:#fff" id="g5" transform="matrix(1.064433,0,0,1.1472223,-1.5463917,-3.5333337)">
<path id="Oval 213" d="m 18.0343,41.1393 c 0,-5.43091 -5.49736,-9.8336 -12.2787,-9.8336 v -4.21435 c 9.68766,0 17.5411,6.28947 17.5411,14.0479 z m 10.5246,0 C 28.5589,31.0534 18.3496,22.877 5.7556,22.877 v -4.21441 c 15.5002,0 28.0656,10.0632 28.0656,22.4768 z"/>
<path id="path3758" d="m 11.6455,38.332 a 2.52685,2.52685 0 1,1 -5.05371,0 2.52685,2.52685 0 1,1 5.05371,0 z " transform="matrix(1.173913,0,0,1.173913,-1.5858511,-6.6664418)"/>
</g>
</g>
</svg>
