<svg width="48" version="1.1" xmlns="http://www.w3.org/2000/svg" height="48">
<g style="fill:#f948fb" id="layer1" transform="matrix(1.1470591,0,0,0.91864444,-3.5294177,1.9525339)">
<path id="rect4090" d="m 0,-.0001 0,40.0001 h 34 v -40.0001 z " transform="translate(7,4)"/>
</g>
<g style="fill:#fff" transform="scale(0.90421662,1.1059297)">
<path id="path4141" d="m 21.4204,26.0388 q 0.700141,0.236971 1.3572,1.01251 0.667827,0.775541 1.33565,2.13274 l 2.2081,4.3947 h -2.3374 l -2.0573,-4.1254 q -0.797084,-1.61571 -1.55108,-2.14351 -0.743227,-0.527799 -2.0358,-0.527799 h -2.36971 v 6.79676 h -2.17582 v -16.0817 h 4.91176 q 2.75748,0 4.11468,1.15254 1.3572,1.15254 1.3572,3.47916 0,1.51877 -0.710912,2.52051 -0.700142,1.00174 -2.04657,1.38951 z  m -5.4503,-6.7537 0,5.7088 2.7359,0 q 1.57262,0 2.36971,-0.721684 0.807855,-0.732456 0.807855,-2.14351 0,-1.41105 -0.807855,-2.12197 -0.797084,-0.721684 -2.36971,-0.721684 h -2.73594 z "/>
<path id="path4143" d="m 39.0747,21.5148 -4.3624,5.8704 4.5886,6.1936 -2.3374,0 -3.5115,-4.7394 -3.5115,4.7394 -2.3374,0 4.6856,-6.312 -4.287,-5.7519 2.3374,0 3.1991,4.2978 3.1991,-4.2978 2.3374,0 z "/>
</g>
</svg>
