<svg width="48" version="1.1" xmlns="http://www.w3.org/2000/svg" height="48" xmlns:xlink="http://www.w3.org/1999/xlink">
<defs id="defs15">
<linearGradient id="linearGradient860">
<stop offset="0" style="stop-color:#00bdcc" id="stop862"/>
<stop offset="0.99440002" style="stop-color:#005466" id="stop861"/>
</linearGradient>
<linearGradient id="linearGradient3882" xlink:href="#linearGradient860" y1="27.473185" y2="27.473185" x1="3.1728742" gradientUnits="userSpaceOnUse" x2="43.904659"/>
<linearGradient id="linearGradient3886" xlink:href="#linearGradient860" y1="5.2132821" y2="50.369083" x1="12.288835" x2="33.516705" gradientUnits="userSpaceOnUse"/>
</defs>
<path style="fill:#ecf0f1;stroke-width:1.024" id="rect4090" d="M 3,3 V 45 H 45 V 3 Z"/>
<g style="fill:url(#linearGradient3882)" id="#ff8200ff" transform="matrix(0.67251096,0,0,0.67251096,8.1699215,5.5239817)">
<path style="fill:url(#linearGradient3886)" id="path22" d="m 7.44,8.42 c 3.46,-5.3 12,-4 15.07,1.03 1.62,2.44 1.7,5.46 2.04,8.27 4.38,0.13 9.13,-0.72 13.11,1.58 3.52,1.88 6.55,5.53 6.22,9.72 -0.28,3.19 -2.83,5.58 -5.63,6.79 2.47,2.92 3.93,7.53 1.22,10.79 -3.4,4.67 -10.57,4.05 -14.56,0.51 C 21.67,44.54 20.85,40.28 20.17,36.44 14.23,36.96 7.03,35.84 4.09,29.93 1.5,25.57 4.76,20.21 9.32,19.02 6.65,16.33 4.84,11.77 7.44,8.42 m 1.48,5.56 c 2.9,4.71 9.17,4.19 13.95,3.85 -0.98,-5 -4.4,-10.1 -9.84,-10.67 -3.49,-0.35 -6.02,3.9 -4.11,6.82 M 6.34,28.64 c 3.19,4.11 8.92,3.52 13.53,3.22 C 18.88,26.87 15.45,21.67 9.96,21.21 6.17,20.88 3.84,25.84 6.34,28.64 m 12.59,-6.25 c 1.84,2.79 2.42,6.09 2.65,9.37 1.54,-0.06 3.09,-0.13 4.64,-0.19 -1.72,-2.79 -2.59,-5.95 -3.05,-9.17 -1.41,0 -2.83,0 -4.24,-0.01 m 5.79,-0.09 c 1.57,5.49 6.3,10.64 12.2,11.17 3.98,0.54 6.89,-4.49 4.16,-7.55 C 37.14,21.1 30.23,22.13 24.72,22.3 m -2.97,14.03 c 1.02,4.3 4.17,7.77 7.91,9.96 2.67,1.48 6.77,2.04 8.74,-0.83 1.83,-2.56 0.06,-6.1 -2.45,-7.45 -4.26,-2.6 -9.46,-1.79 -14.2,-1.68 z"/>
</g>
</svg>
