<svg width="48" version="1.1" xmlns="http://www.w3.org/2000/svg" height="48">
<path style="fill:#5b6d71" id="rect4090" d="m 4.5519,5.6271 0,36.7458 38.8812,0 l .1188,-36.6624 -12.698,-.0834 Z "/>
<g style="stroke:none">
<path style="mix-blend-mode:normal;font-family:sans-serif;text-decoration-style:solid;solid-color:#000000;white-space:normal;color-interpolation-filters:linearRGB;text-transform:none;text-decoration-color:#000000;text-indent:0;text-align:start;color:#000;text-decoration-line:none;image-rendering:auto;color-rendering:auto;isolation:auto;color-interpolation:sRGB;solid-opacity:1;text-rendering:auto;line-height:normal;fill:#ffd14e;shape-rendering:auto" id="path4243" d="m 24.1099,13.9531 -.3358,.6686 -6.8634,13.6394 14.7417,.0271 -7.5425,-14.3352 z  m -.1099,6.6526 2.5222,4.7899 -4.8803,-.0196 2.3581,-4.7703 z "/>
<g style="stroke-width:.771">
<g style="fill:#fff">
<path id="path3812" d="m 7.0114,9.3774 0,1.5419 0,1.5419 17.8344,0 c 3.71621,0.01019 7.05283,1.17717 9.40052,2.96339 2.35801,1.79409 3.69738,4.13486 3.69738,6.67366 0,2.5388 -1.33936,4.87957 -3.69738,6.67366 -2.35802,1.79409 -5.71293,2.96339 -9.44886,2.96339 h -15.6111 -2.19909 -0.024166 v 3.08386 h 17.8344 c 4.37454,0 8.37298,-1.3371 11.3338,-3.5898 2.96079,-2.2527 4.90567,-5.49911 4.90567,-9.13115 0,-3.632 -1.94487,-6.87841 -4.90567,-9.13107 -2.94976,-2.24432 -6.93001,-3.57989 -11.2855,-3.5898 h -15.6111 -1.93327 -0.265825 z "/>
<path id="rect3719" d="m 11.9523,13.8979 3.8548,0 0,22.5911 3.2249,0 -5.1041,5.0482 -5.1989,-5.0544 3.2233,.0062 0,-22.5911 z "/>
</g>
<rect width="6.9386768" x="10.410398" y="6.2935424" height="7.7096429" style="fill:#6ddc00" id="rect2694"/>
</g>
</g>
</svg>
