<svg width="48" version="1.1" xmlns="http://www.w3.org/2000/svg" height="48">
<path style="fill:#f1c40f" d="M 3,3 V 45 H 45 V 3 Z"/>
<path style="opacity:.3" d="m 9.6185,30.8729 3.223,-1.4727 c 0.621786,0.832383 1.18741,1.53662 2.54411,1.53662 1.30047,0 2.12043,-0.155272 2.12043,-1.87808 v -10.1602 l 4.458,0 v 1 l -.5004,9.2028 -5.9084,4.5037 c 0,0 -4.50338,-0.238096 -5.43626,-1.73218"/>
<path style="opacity:.3" d="m 23.6142,30.5527 3.2225,-1.4088 c 0.848308,1.04606 1.95081,1.81441 3.90139,1.81441 1.63989,0 2.68559,-0.619074 2.68559,-1.47286 0,-1.02456 -0.574685,-1.38743 -2.38403,-1.9849 l -3.899,-.6223 c -1.07865,-0.674633 -2.18152,-1.71718 -2.13979,-3.90123 0.04281,-2.24077 2.3184,-4.22722 6.09536,-4.24931 2.51598,-0.01472 4.30695,0.683742 5.72207,2.35308 0.19265,0.227258 0.38232,0.465017 0.549215,0.712726 l -.6457,.3246 c -2.95977,-0.511476 -4.49485,-0.786192 -5.6256,-0.786192 -1.15908,0 -1.89417,0.554953 -1.89417,1.28056 0,0.896523 0.735092,1.25942 2.43113,1.81443 l .9893,.3201 c 3.98912,1.26051 4.88875,2.22597 5.25837,4.69566 0.484375,3.23648 -6.5586,4.16229 -6.5586,4.16229 l -7.2088,-2.0526"/>
<g style="fill:#fff">
<path d="m 10.1189,31.8725 3.223,-1.4727 c 0.621786,0.832383 1.18741,1.53662 2.54411,1.53662 1.30047,0 2.12037,-0.384085 2.12037,-1.87808 v -10.1602 h 3.95766 v 10.2025 c 0,3.09491 -2.40276,4.50375 -5.90841,4.50375 -3.16606,0 -5.00382,-1.23806 -5.9367,-2.73214"/>
<path d="m 24.1137,31.5524 3.2225,-1.4088 c 0.848307,1.04606 1.95081,1.81441 3.90139,1.81441 1.63989,0 2.68559,-0.619074 2.68559,-1.47286 0,-1.02456 -1.07419,-1.38743 -2.88353,-1.9849 l -.9892,-.3204 c -2.85547,-0.917662 -4.74963,-2.07027 -4.74963,-4.50356 0,-2.24117 2.26159,-3.94886 5.79548,-3.94886 2.51603,0 4.3253,0.661761 5.6256,2.39071 l -3.0815,1.4941 c -0.67852,-0.917726 -1.41336,-1.28056 -2.54411,-1.28056 -1.15908,0 -1.89417,0.554953 -1.89417,1.28056 0,0.896523 0.735093,1.25942 2.43113,1.81443 l .9894,.3201 c 3.36412,1.08863 5.25837,2.19846 5.25837,4.69566 0,2.68961 -2.79874,4.16229 -6.5586,4.16229 -3.67511,0 -6.04984,-1.32331 -7.20875,-3.05229"/>
</g>
</svg>
