<svg width="48" version="1.1" xmlns="http://www.w3.org/2000/svg" height="48">
<defs id="defs4"/>
<path style="fill:#ecf0f1" id="rect4090" d="M 3,3 V 45 H 45 V 3 Z"/>
<path style="fill:#27ae60" id="path3766" d="m 19.3334,12.0043 c -1.8293,0.13176 -3.45846,1.40497 -3.96358,3.27556 -0.460797,1.70646 0.147378,3.45386 1.40595,4.53194 -0.110072,-0.03925 -0.229262,-0.07371 -0.344009,-0.104699 -2.3648,-0.638571 -4.80574,0.76117 -5.44431,3.12599 -0.638569,2.3648 0.761192,4.79078 3.12599,5.42936 0.90269,0.243752 1.8281,0.185776 2.64737,-0.104699 -0.663379,0.56171 -1.17715,1.32589 -1.42091,2.22858 -0.638569,2.3648 0.761195,4.80575 3.12599,5.44431 2.36482,0.638581 4.80574,-0.761194 5.44431,-3.12599 0.03099,-0.114744 0.05326,-0.229164 0.07478,-0.344009 0.298032,1.63016 1.49432,3.02416 3.20078,3.48496 2.3648,0.638571 4.80574,-0.761189 5.44431,-3.12599 0.460797,-1.70646 -0.147352,-3.45385 -1.40595,-4.53194 0.110097,0.03925 0.229263,0.07371 0.344009,0.104698 2.3648,0.638567 4.80574,-0.76117 5.44431,-3.12599 0.638569,-2.36479 -0.761194,-4.79078 -3.12599,-5.42936 -0.90269,-0.243757 -1.82809,-0.185801 -2.64737,0.104698 0.663404,-0.561695 1.17715,-1.32588 1.42091,-2.22858 0.638569,-2.3648 -0.761194,-4.80574 -3.12599,-5.44431 -2.36482,-0.638571 -4.80575,0.761194 -5.44431,3.12599 -0.03099,0.11475 -0.05326,0.22914 -0.07478,0.344009 -0.298025,-1.63018 -1.49432,-3.02416 -3.20078,-3.48496 -0.3695,-0.09977 -0.741013,-0.145214 -1.10681,-0.14957 -0.123457,-0.0015 -0.25197,-0.0088 -0.373923,0 z  m 4.6666,5.4593 c 3.60887,0 6.53617,2.9273 6.53617,6.53617 0,3.60886 -2.9273,6.53617 -6.53617,6.53617 -3.60887,0 -6.53617,-2.9273 -6.53617,-6.53617 0,-3.60887 2.9273,-6.53617 6.53617,-6.53617 z "/>
<path style="fill:#ff9b00" id="path3782" d="m 24,19.7818 c -2.32855,0 -4.21785,1.8893 -4.21785,4.21785 0,2.32854 1.8893,4.21785 4.21785,4.21785 2.32855,0 4.21785,-1.8893 4.21785,-4.21785 0,-2.32855 -1.8893,-4.21785 -4.21785,-4.21785 z "/>
</svg>
