<svg width="48" version="1.1" xmlns="http://www.w3.org/2000/svg" height="48">
<path style="fill:#ffb380" id="path3001" d="m 4.5323,5.6497 0,36.6961 38.926,0 .074,-36.7458 -12.6677,.0497 z "/>
<g id="g3018" transform="matrix(1.1035756,0,0,0.88043476,-2.4851693,0.4048375)">
<rect width="5.4171777" x="21.276451" y="5.6516771" height="19.768995" style="fill:#34495e;fill-rule:evenodd;stroke:#003bc3;stroke-linecap:square;stroke-width:0;stroke-miterlimit:2.013" id="shape0"/>
<rect width="3.2502258" x="21.302784" y="5.6575394" height="1.4634197" style="fill:#ecf0f1;fill-rule:evenodd;stroke:#003bc3;stroke-linecap:square;stroke-width:0;stroke-miterlimit:2.013" id="shape1"/>
<rect width="3.2502258" x="23.462261" y="7.1211071" height="1.4634197" style="fill:#ecf0f1;fill-rule:evenodd;stroke:#003bc3;stroke-linecap:square;stroke-width:0;stroke-miterlimit:2" id="shape2"/>
<rect width="3.2502258" x="21.302898" y="8.5871429" height="1.4634197" style="fill:#ecf0f1;fill-rule:evenodd;stroke:#003bc3;stroke-linecap:square;stroke-width:0;stroke-miterlimit:2" id="shape3"/>
<rect width="3.2502258" x="23.46249" y="10.05072" height="1.4634197" style="fill:#ecf0f1;fill-rule:evenodd;stroke:#003bc3;stroke-linecap:square;stroke-width:0;stroke-miterlimit:2" id="shape4"/>
<rect width="3.2502258" x="21.299692" y="11.51816" height="1.4634197" style="fill:#ecf0f1;fill-rule:evenodd;stroke:#003bc3;stroke-linecap:square;stroke-width:0;stroke-miterlimit:2" id="shape5"/>
<rect width="3.2502258" x="23.459169" y="12.981691" height="1.4634197" style="fill:#ecf0f1;fill-rule:evenodd;stroke:#003bc3;stroke-linecap:square;stroke-width:0;stroke-miterlimit:2" id="shape6"/>
<rect width="3.2502258" x="21.299692" y="14.4477" height="1.4634197" style="fill:#ecf0f1;fill-rule:evenodd;stroke:#003bc3;stroke-linecap:square;stroke-width:0;stroke-miterlimit:2" id="shape7"/>
<rect width="3.2502258" x="23.459169" y="15.911323" height="1.4634197" style="fill:#ecf0f1;fill-rule:evenodd;stroke:#003bc3;stroke-linecap:square;stroke-width:0;stroke-miterlimit:2" id="shape8"/>
<rect width="3.2502258" x="21.278053" y="17.377422" height="1.4634197" style="fill:#ecf0f1;fill-rule:evenodd;stroke:#003bc3;stroke-linecap:square;stroke-width:0;stroke-miterlimit:2" id="shape9"/>
<rect width="3.2502258" x="23.437416" y="18.840956" height="1.4634197" style="fill:#ecf0f1;fill-rule:evenodd;stroke:#003bc3;stroke-linecap:square;stroke-width:0;stroke-miterlimit:2" id="shape10"/>
<rect width="3.2502258" x="21.278053" y="20.307055" height="1.4634197" style="fill:#ecf0f1;fill-rule:evenodd;stroke:#003bc3;stroke-linecap:square;stroke-width:0;stroke-miterlimit:2" id="shape11"/>
<rect width="3.2502258" x="23.437647" y="21.770586" height="1.4634197" style="fill:#ecf0f1;fill-rule:evenodd;stroke:#003bc3;stroke-linecap:square;stroke-width:0;stroke-miterlimit:2" id="shape12"/>
<rect width="3.2502258" x="21.274849" y="23.238062" height="1.4634197" style="fill:#ecf0f1;fill-rule:evenodd;stroke:#003bc3;stroke-linecap:square;stroke-width:0;stroke-miterlimit:2" id="shape13"/>
<rect width="5.4090157" x="21.286068" y="24.821316" height="9.7533731" style="fill:#ecf0f1;fill-rule:evenodd;stroke:#003bc3;stroke-linecap:square;stroke-width:0;stroke-miterlimit:2" id="shape17"/>
<rect width="3.1705625" x="22.425798" y="25.795046" height="2.3073425" style="fill:#2c3e50;fill-rule:evenodd;stroke:#003bc3;stroke-linecap:square;stroke-width:0;stroke-miterlimit:2" id="shape18"/>
</g>
<g style="fill:#233241">
<path id="path4157" d="m 14.8164,37.9614 q 0.355469,0 0.539063,-0.15625 0.183594,-0.15625 0.183594,-0.460937 0,-0.300781 -0.183594,-0.457031 -0.183594,-0.160157 -0.539063,-0.160157 h -0.832031 v 1.23438 h 0.832031 z  m .0508,2.5508 q 0.453125,0 0.679687,-0.191407 0.230469,-0.191406 0.230469,-0.578125 0,-0.378906 -0.226563,-0.566406 -0.226562,-0.191406 -0.683593,-0.191406 h -0.882813 v 1.52734 h 0.882813 z  m 1.3984,-2.0977 q 0.484375,0.140625 0.75,0.519532 0.265625,0.378906 0.265625,0.929687 0,0.84375 -0.570313,1.25781 -0.570312,0.414062 -1.73437,0.414062 h -2.49609 v -5.83203 h 2.25781 q 1.21484,0 1.75781,0.367187 0.546875,0.367188 0.546875,1.17578 0,0.425781 -0.199219,0.726562 -0.199219,0.296875 -0.578125,0.441406 z "/>
<path id="path4159" d="m 18.2969,37.1606 3.8164,0 0,.9766 -2.3047,2.3984 2.3047,0 0,1 -3.9141,0 0,-.9766 2.3047,-2.3984 -2.207,0 0,-1 z "/>
<path id="path4161" d="m 26.1445,37.8012 0,-2.3438 1.4062,0 0,6.0781 -1.4062,0 0,-.6328 q -0.289062,0.386718 -0.636719,0.566406 -0.347656,0.179687 -0.804687,0.179687 -0.808594,0 -1.32812,-0.640625 -0.519531,-0.644531 -0.519531,-1.65625 0,-1.01172 0.519531,-1.65234 0.519531,-0.644532 1.32812,-0.644532 0.453125,0 0.800781,0.183594 0.351563,0.179688 0.640625,0.5625 z  m -.9219,2.832 q 0.449219,0 0.683594,-0.328125 0.238281,-0.328125 0.238281,-0.953125 0,-0.625 -0.238281,-0.953125 -0.234375,-0.328125 -0.683594,-0.328125 -0.445312,0 -0.683594,0.328125 -0.234375,0.328125 -0.234375,0.953125 0,0.625 0.234375,0.953125 0.238282,0.328125 0.683594,0.328125 z "/>
<path id="path4163" d="m 28.3516,37.1606 1.3984,0 1.0898,3.0234 1.0859,-3.0234 1.4023,0 -1.7227,4.375 -1.5352,0 -1.7188,-4.375 z "/>
<path id="path4165" d="m 34.1211,37.1606 1.3984,0 0,4.375 -1.3984,0 0,-4.375 z  m 0,-1.7031 1.3984,0 0,1.1406 -1.3984,0 0,-1.1406 z "/>
</g>
</svg>
