<svg width="48" version="1.1" xmlns="http://www.w3.org/2000/svg" height="48">
<g style="fill:#8e8f8f" id="layer1" transform="matrix(1.1470591,0,0,0.91864444,-3.5294177,1.9525339)">
<path id="rect4090" d="M 0,0 0,40 34,40 33.79661,0.01694915 23,0 z" transform="translate(7,4)"/>
</g>
<g style="fill:#fff" transform="scale(0.75397775,1.3262991)">
<path id="path4141" d="m 19.1176,22.9429 q -2.00292,0 -2.77535,0.458067 -0.772427,0.458067 -0.772427,1.56282 0,0.880206 0.574829,1.40114 0.583811,0.511957 1.58078,0.511957 1.3742,0 2.20052,-0.970024 0.835298,-0.979005 0.835298,-2.59571 v -0.36825 h -1.64365 z  m 3.2963,-.6826 0,5.7393 -1.6526,0 0,-1.5269 q -0.565847,0.916134 -1.41013,1.35624 -0.84428,0.431122 -2.06579,0.431122 -1.54485,0 -2.46099,-0.862243 -0.907151,-0.871225 -0.907151,-2.32626 0,-1.69754 1.13169,-2.55978 1.14068,-0.862243 3.39508,-0.862243 h 2.31728 v -0.161671 q 0,-1.14068 -0.754463,-1.76041 -0.745481,-0.628719 -2.10172,-0.628719 -0.862243,0 -1.67958,0.206579 -0.817334,0.206579 -1.5718,0.619737 v -1.52689 q 0.907152,-0.350286 1.76041,-0.520938 0.853262,-0.179634 1.66162,-0.179634 2.18255,0 3.26036,1.13169 1.0778,1.13169 1.0778,3.43101 z "/>
<path id="path4143" d="m 24.8659,17.9401 1.6526,0 2.0658,7.85 2.0568,-7.85 1.949,0 2.0658,7.85 2.0568,-7.85 1.6526,0 -2.6316,10.0595 -1.949,0 -2.1646,-8.2452 -2.1736,8.2452 -1.949,0 -2.6316,-10.0595 z "/>
<path id="path4145" d="m 40.8174,14.024 1.6616,0 0,8.2542 4.931,-4.3382 2.1107,0 -5.3351,4.7064 5.5597,5.3531 -2.1556,0 -5.1106,-4.913 0,4.913 -1.6616,0 0,-13.9755 z "/>
</g>
</svg>
