<svg width="48" version="1.1" xmlns="http://www.w3.org/2000/svg" height="48">
<path style="fill:#bf7c4f" id="rect4090" d="M 3,3 V 45 H 45 V 3 Z"/>
<g style="stroke:#003bc3;fill-rule:evenodd;stroke-linecap:square;stroke-width:0" id="g888" transform="translate(0,-1.507)">
<rect width="7.9695606" x="20.002359" y="4.5075564" height="18.793396" style="fill:#34495e;stroke-miterlimit:2.013" id="shape0"/>
<g style="stroke-miterlimit:2" id="g19">
<g style="fill:#ecf0f1" id="g10" transform="matrix(1.4683729,0,0,1.025597,-11.238691,-2.7746832)">
<rect width="3.2564054" x="23.465931" y="7.1004887" height="1.4654016" id="shape2"/>
<rect width="3.2564054" x="21.302462" y="8.5685101" height="1.4654016" id="shape3"/>
<rect width="3.2564054" x="23.46616" y="10.03407" height="1.4654016" id="shape4"/>
<rect width="3.2564054" x="21.29925" y="11.503496" height="1.4654016" id="shape5"/>
<rect width="3.2564054" x="23.462833" y="12.96901" height="1.4654016" id="shape6"/>
<rect width="3.2564054" x="21.29925" y="14.437004" height="1.4654016" id="shape7"/>
<rect width="3.2564054" x="23.462833" y="15.902609" height="1.4654016" id="shape8"/>
<rect width="3.2564054" x="21.277571" y="17.370695" height="1.4654016" id="shape9"/>
<rect width="3.2564054" x="23.441038" y="18.836208" height="1.4654016" id="shape10"/>
<rect width="3.2564054" x="21.277571" y="20.304295" height="1.4654016" id="shape11"/>
<rect width="3.2564054" x="23.441269" y="21.769808" height="1.4654016" id="shape12"/>
<rect width="3.2564054" x="21.274359" y="23.239271" height="1.4654016" id="shape13"/>
<rect width="5.4192996" x="21.285601" y="24.824669" height="9.7665815" id="shape17"/>
</g>
<rect width="4.6644192" x="21.693239" y="23.685429" height="2.3696082" style="fill:#2c3e50" id="shape18"/>
</g>
</g>
<g style="fill:#fff" id="g1853" transform="translate(-2.5e-6,0.0246)">
<path id="path4157" d="m 19.4043,39.991 q -0.414063,0.214843 -0.863281,0.324218 -0.449219,0.109375 -0.9375,0.109375 -1.45703,0 -2.30859,-0.8125 -0.851563,-0.816406 -0.851563,-2.21094 0,-1.39844 0.851563,-2.21094 0.851562,-0.816406 2.30859,-0.816406 0.488281,0 0.9375,0.109375 0.449218,0.109375 0.863281,0.324219 v 1.20703 q -0.417969,-0.285156 -0.824219,-0.417969 -0.40625,-0.132812 -0.855469,-0.132812 -0.804687,0 -1.26562,0.515625 -0.460937,0.515625 -0.460937,1.42188 0,0.902344 0.460937,1.41797 0.460938,0.515625 1.26562,0.515625 0.449219,0 0.855469,-0.132813 0.40625,-0.132812 0.824219,-0.417969 v 1.20703 z"/>
<path id="path4159" d="m 21.9902,39.6785 v 2.2969 h -1.3984 v -6.0391 h 1.3984 v 0.6406 q 0.289063,-0.382812 0.640625,-0.5625 0.351563,-0.183594 0.808594,-0.183594 0.808594,0 1.32812,0.644532 0.519531,0.640625 0.519531,1.65234 0,1.01172 -0.519531,1.65625 -0.519531,0.640625 -1.32812,0.640625 -0.457031,0 -0.808594,-0.179687 Q 22.279263,40.061272 21.9902,39.67846 Z m 0.9297,-2.832 q -0.449219,0 -0.691406,0.332032 -0.238282,0.328125 -0.238282,0.949218 0,0.621094 0.238282,0.953125 0.242187,0.328125 0.691406,0.328125 0.449219,0 0.683594,-0.328125 0.238281,-0.328125 0.238281,-0.953125 0,-0.625 -0.238281,-0.953125 Q 23.369119,36.8465 22.9199,36.8465 Z"/>
<path id="path4161" d="m 26.3262,35.9363 h 1.3984 v 4.375 h -1.3984 z m 0,-1.7031 h 1.3984 v 1.1406 h -1.3984 z"/>
<path id="path4163" d="m 31.1582,36.8308 q -0.464844,0 -0.710937,0.335938 -0.242188,0.332031 -0.242188,0.960937 0,0.628907 0.242188,0.964844 0.246093,0.332031 0.710937,0.332031 0.457031,0 0.699219,-0.332031 0.242187,-0.335937 0.242187,-0.964844 0,-0.628906 -0.242187,-0.960937 Q 31.615231,36.8308 31.1582,36.8308 Z m 0,-1 q 1.12891,0 1.76172,0.609375 0.636719,0.609375 0.636719,1.6875 0,1.07812 -0.636719,1.6875 -0.632813,0.609375 -1.76172,0.609375 -1.13281,0 -1.77344,-0.609375 -0.636719,-0.609375 -0.636719,-1.6875 0,-1.07812 0.636719,-1.6875 Q 30.025385,35.8308 31.1582,35.8308 Z"/>
</g>
</svg>
