<svg width="48" version="1.1" xmlns="http://www.w3.org/2000/svg" height="48">
<path style="fill:#ecf0f1" id="rect4090" d="m 4.5,5.6271 0,36.7458 39,0 l -.1025,-36.6588 -12.5151,-.087 z "/>
<path style="fill:#98a1a8;stroke:none" id="path9" d="m 24.9426,13.1568 c -0.535282,-2.00198 -0.297988,-2.38858 -2.2525,-1.83015 l -1.5768,.4505 c -0.619428,-0.900993 -1.52043,-1.68936 -2.47774,-2.25249 l .2535,-1.5486 c 0.348215,-2.12803 -0.528111,-1.65054 -2.33697,-1.88646 -2.01478,-0.269564 -2.51004,-0.869997 -2.81562,1.15439 l -.2253,1.4923 c -0.168937,0.056309 -0.39419,0.112619 -0.56312,0.168946 -0.675744,0.168925 -1.29519,0.506804 -1.85831,0.844667 l -1.2107,-.9291 c -1.63505,-1.25481 -1.68689,-0.35274 -2.81562,1.01363 -1.35039,1.59691 -1.98835,1.64454 -0.337876,2.92824 l 1.2671,.9855 c -0.225245,0.619434 -0.33787,1.29519 -0.33787,2.02724 l -1.5768,.4505 c -2.02576,0.578791 -1.4269,0.956228 -0.901002,2.73115 0.535267,2.00198 0.297979,2.38858 2.2525,1.83015 l 1.5768,-.4505 c 0.619442,0.901002 1.52043,1.68938 2.47774,2.25249 l -.2534,1.5486 c -0.348223,2.12802 0.528111,1.65052 2.33697,1.88646 2.01478,0.26955 2.51004,0.869997 2.81562,-1.1544 l .2253,-1.4923 c 0.16894,-0.05631 0.394185,-0.112628 0.563116,-0.168934 0.675762,-0.168951 1.29519,-0.506815 1.85831,-0.844692 l 1.2107,.9291 c 1.46179,1.45296 1.68689,0.352732 2.81562,-1.01362 1.35039,-1.59692 1.98835,-1.64454 0.337868,-2.92824 l -1.267,-.9855 c 0.225252,-0.619437 0.337871,-1.29518 0.337871,-2.02723 l 1.5768,-.4505 c 2.02576,-0.578792 1.4269,-0.956237 0.901002,-2.73115 z  m -9.1789,5.6031 c -1.57675,0.450497 -3.26612,-0.450496 -3.77293,-2.02724 -0.506809,-1.57674 0.450496,-3.26612 2.02724,-3.77293 1.57675,-0.45049 3.26612,0.450511 3.77293,2.02725 0.450502,1.57673 -0.450489,3.26611 -2.02724,3.77292 z "/>
<path style="fill:#2980b9" id="path1948" d="m 30.5031,21.7932 c -1.03568,0.0039 -2.02475,0.07532 -2.89506,0.199855 -2.56376,0.366273 -3.02927,1.13291 -3.02927,2.54671 v 1.86722 h 6.05854 v 0.622409 h -6.05854 -2.2737 c -1.76077,0 -3.30256,0.855837 -3.78481,2.48391 -0.55627,1.86614 -0.580944,3.03071 0,4.97924 0.430661,1.45045 1.45913,2.48392 3.2199,2.48392 h 2.08306 v -2.23837 c 0,-1.61709 1.7302,-3.04356 3.78481,-3.04356 h 6.05142 c 1.68457,0 3.02927,-1.12155 3.02927,-2.48959 v -4.66519 c 0,-1.32773 -1.38507,-2.32512 -3.02927,-2.54671 -1.04073,-0.1401 -2.12057,-0.203747 -3.15636,-0.199855 z  m -3.2764,1.5018 c 0.625824,0 1.13685,0.420013 1.13685,0.936457 0,0.514615 -0.511027,0.930752 -1.13685,0.930752 -0.62806,0 -1.13686,-0.416137 -1.13686,-0.930752 0,-0.516444 0.508801,-0.936457 1.13686,-0.936457 z "/>
<path style="fill:#f39c12" id="path1950" d="m 37.4867,26.9919 0,2.1595 c 0,1.67425 -1.77189,3.08341 -3.79248,3.08341 h -6.06378 c -1.66098,0 -3.03543,1.13878 -3.03543,2.47127 v 4.6308 c 0,1.31798 1.43065,2.09313 3.03543,2.47125 1.9217,0.452708 3.7645,0.534467 6.06378,0 1.52835,-0.354505 3.03542,-1.06783 3.03542,-2.47125 v -1.85346 h -6.06377 v -0.617789 h 6.06377 3.03546 c 1.76429,0 2.42179,-0.985889 3.03535,-2.46563 0.633865,-1.52337 0.606909,-2.98833 0,-4.94254 -0.435997,-1.40703 -1.26876,-2.46561 -3.03535,-2.46561 z  m -5.6888,11.7272 c 0.629323,0 1.13917,0.413023 1.13917,0.923881 0,0.512604 -0.509845,0.929576 -1.13917,0.929576 -0.627074,0 -1.13917,-0.416972 -1.13917,-0.929576 0,-0.510858 0.512093,-0.923881 1.13917,-0.923881 z "/>
</svg>
