<svg width="48" version="1.1" xmlns="http://www.w3.org/2000/svg" height="48">
<path style="fill:#f95" id="rect4090" d="M 3,3 V 45 H 45 V 3 Z"/>
<g style="stroke:#003bc3;fill-rule:evenodd;stroke-linecap:square;stroke-width:0" id="g888" transform="translate(0,-1.507)">
<rect width="7.9695606" x="20.002359" y="4.5075564" height="18.793396" style="fill:#34495e;stroke-miterlimit:2.013" id="shape0"/>
<g style="stroke-miterlimit:2" id="g19">
<g style="fill:#ecf0f1" id="g10" transform="matrix(1.4683729,0,0,1.025597,-11.238691,-2.7746832)">
<rect width="3.2564054" x="23.465931" y="7.1004887" height="1.4654016" id="shape2"/>
<rect width="3.2564054" x="21.302462" y="8.5685101" height="1.4654016" id="shape3"/>
<rect width="3.2564054" x="23.46616" y="10.03407" height="1.4654016" id="shape4"/>
<rect width="3.2564054" x="21.29925" y="11.503496" height="1.4654016" id="shape5"/>
<rect width="3.2564054" x="23.462833" y="12.96901" height="1.4654016" id="shape6"/>
<rect width="3.2564054" x="21.29925" y="14.437004" height="1.4654016" id="shape7"/>
<rect width="3.2564054" x="23.462833" y="15.902609" height="1.4654016" id="shape8"/>
<rect width="3.2564054" x="21.277571" y="17.370695" height="1.4654016" id="shape9"/>
<rect width="3.2564054" x="23.441038" y="18.836208" height="1.4654016" id="shape10"/>
<rect width="3.2564054" x="21.277571" y="20.304295" height="1.4654016" id="shape11"/>
<rect width="3.2564054" x="23.441269" y="21.769808" height="1.4654016" id="shape12"/>
<rect width="3.2564054" x="21.274359" y="23.239271" height="1.4654016" id="shape13"/>
<rect width="5.4192996" x="21.285601" y="24.824669" height="9.7665815" id="shape17"/>
</g>
<rect width="4.6644192" x="21.693239" y="23.685429" height="2.3696082" style="fill:#2c3e50" id="shape18"/>
</g>
</g>
<g style="fill:#233241" id="g2354" transform="translate(5e-5,0.737816)">
<path id="path4157" d="m 22.1484,38.4731 h -2.3516 l -.3711,1.0625 h -1.5117 l 2.1602,-5.832 h 1.793 l 2.1602,5.832 h -1.5117 l -.3672,-1.0625 z  m -1.9766,-1.082 h 1.5977 l -.7969,-2.3203 z "/>
<path id="path4159" d="m 27.9844,36.352 q -0.183594,-0.08594 -0.367188,-0.125 -0.179687,-0.04297 -0.363281,-0.04297 -0.539062,0 -0.832031,0.347656 -0.289063,0.34375 -0.289063,0.988281 v 2.01562 h -1.39844 v -4.375 h 1.39844 v 0.71875 q 0.269532,-0.429687 0.617188,-0.625 0.351562,-0.199219 0.839844,-0.199219 0.07031,0 0.152343,0.0078 0.08203,0.0039 0.238282,0.02344 l .0039,1.2656 z "/>
<path id="path4161" d="m 28.6875,35.1606 h 1.3984 v 4.2969 q 0,0.878906 -0.421875,1.33984 -0.421875,0.464844 -1.22266,0.464844 h -0.691406 v -0.917969 h 0.242187 q 0.398438,0 0.546875,-0.179688 0.148438,-0.179687 0.148438,-0.707031 v -4.29688 z m 0,-1.7031 h 1.3984 v 1.1406 h -1.3984 z"/>
</g>
</svg>
