<svg width="48" version="1.1" xmlns="http://www.w3.org/2000/svg" height="48">
<path style="fill:#34495e" id="rect4090" d="m 4.5,5.6272 0,36.7456 39,0 0,-36.6067 -12.6176,-.139 z "/>
<g style="fill-rule:evenodd">
<path style="fill:#bdc3c7" id="rect3325" d="m 31.4602,26.2306 c 0,3.2569 -3.29676,5.89715 -7.36352,5.89715 -4.06671,0 -7.36345,-2.64026 -7.36345,-5.89715 0,-3.25693 3.29674,-5.89719 7.36345,-5.89719 4.06676,0 7.36352,2.64026 7.36352,5.89719 z "/>
<g style="fill:#34495e">
<rect width="4.3631263" x="23.868078" y="-26.786436" rx="2.1815631" ry="2.724" height="5.4480071" id="rect3329" transform="matrix(0,1,-1,0,0,0)"/>
<rect width="7.2196312" x="26.049116" y="-25.424419" height="2.7240067" id="rect3331" transform="matrix(0,1,-1,0,0,0)"/>
</g>
</g>
</svg>
