<svg width="48" version="1.1" xmlns="http://www.w3.org/2000/svg" height="48">
<path style="opacity:.2" d="M 4,4 V 46 H 46 V 4 Z"/>
<path style="fill:#ecf0f1" d="M 3,3 V 45 H 45 V 3 Z"/>
<rect width="34" x="7" y="10" height="28" style="fill:#2980b9"/>
<rect width="34" x="7" y="33" height="5" style="fill:#37353a"/>
<g style="fill:#fff">
<path d="m 30.5622,36.4794 v -0.30863 c 0.06198,-0.110874 0.137273,-0.210611 0.226379,-0.299194 0.08915,-0.0897 0.181845,-0.171357 0.27863,-0.24535 0.09813,-0.07491 0.194842,-0.144015 0.290241,-0.207353 0.09664,-0.06442 0.183155,-0.126224 0.259264,-0.185028 0.07753,-0.06011 0.139896,-0.120419 0.187633,-0.180534 0.04776,-0.06011 0.07173,-0.124165 0.07173,-0.191584 0,-0.09926 -0.03034,-0.172481 -0.09102,-0.220106 -0.06049,-0.04757 -0.149634,-0.07116 -0.267019,-0.07116 -0.116111,0 -0.20503,0.02566 -0.267017,0.07753 -0.06049,0.05057 -0.1,0.127161 -0.117985,0.229638 l -.5476,-.0253 c 0.01311,-0.08764 0.03952,-0.16986 0.0794,-0.246962 0.03989,-0.07696 0.09663,-0.14439 0.170234,-0.202706 0.07491,-0.05806 0.1678,-0.103372 0.278649,-0.136151 0.112177,-0.0339 0.245706,-0.05057 0.400509,-0.05057 0.147011,0 0.277337,0.01311 0.390846,0.0427 0.113488,0.02735 0.20898,0.06817 0.286381,0.12173 0.07753,0.05374 0.136151,0.119668 0.176041,0.197838 0.03989,0.07696 0.06011,0.165177 0.06011,0.264341 0,0.104312 -0.02528,0.199018 -0.07547,0.283349 -0.05038,0.08446 -0.114801,0.162555 -0.193438,0.234283 -0.07865,0.07079 -0.166301,0.137085 -0.263123,0.199467 -0.09551,0.06217 -0.188344,0.122854 -0.27863,0.182033 -0.09027,0.05918 -0.172856,0.118733 -0.247673,0.178848 -0.0736,0.06011 -0.128284,0.12454 -0.164428,0.193213 h 1.26543 v 0.365657 h -1.90782"/>
<path d="m 34.5802,35.8384 c 0,0.09926 -0.01872,0.189018 -0.0558,0.268667 -0.03614,0.07865 -0.09102,0.145888 -0.164429,0.20179 -0.0736,0.056 -0.164989,0.09888 -0.27464,0.129033 -0.108619,0.02903 -0.235013,0.04345 -0.379627,0.04345 -0.160871,0 -0.296815,-0.01872 -0.407589,-0.05431 -0.109741,-0.03614 -0.2,-0.08371 -0.271157,-0.142892 -0.07004,-0.06011 -0.122853,-0.127723 -0.159186,-0.203402 -0.03502,-0.07566 -0.05769,-0.152255 -0.06817,-0.229862 l .5002,-.0388 c 0.0075,0.04664 0.02079,0.08952 0.03858,0.129034 0.02098,0.0382 0.04626,0.07135 0.07865,0.09944 0.03278,0.0279 0.07228,0.04963 0.118921,0.06517 0.04776,0.01311 0.103757,0.02098 0.167987,0.02098 0.117796,0 0.209207,-0.02603 0.274641,-0.07772 0.06536,-0.05169 0.09794,-0.131094 0.09794,-0.237635 0,-0.06517 -0.01685,-0.117609 -0.04738,-0.15675 -0.03034,-0.03933 -0.06929,-0.06929 -0.117049,-0.0899 -0.04664,-0.02079 -0.09739,-0.03614 -0.152068,-0.04363 -0.05468,-0.0075 -0.106749,-0.01122 -0.155626,-0.01122 h -0.171358 v -0.352549 h 0.16087 c 0.04888,0 0.09851,-0.0037 0.148698,-0.01122 0.05132,-0.0094 0.09739,-0.02322 0.13821,-0.04495 0.04082,-0.02098 0.07397,-0.05169 0.09963,-0.0899 0.02584,-0.03952 0.03858,-0.08915 0.03858,-0.149072 0,-0.0899 -0.02847,-0.160495 -0.08559,-0.211303 -0.056,-0.05169 -0.13821,-0.07772 -0.246681,-0.07772 -0.10132,0 -0.183717,0.02491 -0.246642,0.07454 -0.06199,0.04963 -0.09739,0.120232 -0.106749,0.211304 l -.4916,-.0311 c 0.01311,-0.102442 0.0455,-0.191585 0.09438,-0.267132 0.05,-0.07566 0.112551,-0.13821 0.187276,-0.187876 0.07584,-0.04963 0.162555,-0.08652 0.260651,-0.110114 0.09794,-0.02491 0.20179,-0.03726 0.311384,-0.03726 0.144765,0 0.268817,0.01685 0.372605,0.04664 0.103757,0.03109 0.189037,0.07303 0.255426,0.125663 0.06648,0.05281 0.115549,0.114426 0.147012,0.184841 0.03146,0.07023 0.04738,0.145515 0.04738,0.225218 0,0.06424 -0.01122,0.124352 -0.03146,0.180161 -0.02079,0.05506 -0.05319,0.104686 -0.09625,0.149072 -0.04196,0.04345 -0.09627,0.08128 -0.162556,0.113489 -0.06648,0.03109 -0.145139,0.05431 -0.236155,0.06986 v 0.0075 c 0.10132,0.0094 0.189505,0.03109 0.264153,0.06217 0.07472,0.02997 0.135962,0.0678 0.183718,0.113489 0.04776,0.0455 0.08353,0.09739 0.106748,0.155439 0.02341,0.05675 0.03502,0.117611 0.03502,0.181659"/>
<rect width="0.36276823" x="35.093117" y="34.798389" height="0.37413785"/>
<rect width="0.36276823" x="35.104603" y="35.591087" height="0.37413785"/>
<path d="m 35.9112,36.4564 v -0.30863 c 0.06199,-0.110874 0.137273,-0.210593 0.226379,-0.299156 0.08915,-0.0897 0.181845,-0.171358 0.278612,-0.245369 0.09813,-0.07491 0.194823,-0.144016 0.29024,-0.207352 0.09664,-0.06442 0.183156,-0.126224 0.259265,-0.18503 0.07753,-0.06011 0.139896,-0.120419 0.187651,-0.180534 0.04776,-0.06011 0.07173,-0.124165 0.07173,-0.191583 0,-0.09926 -0.03034,-0.172482 -0.09102,-0.220106 -0.06049,-0.04757 -0.149634,-0.07116 -0.267019,-0.07116 -0.115923,0 -0.205029,0.02603 -0.267,0.07753 -0.06049,0.05057 -0.1,0.12716 -0.117984,0.229619 l -.5476,-.0253 c 0.01311,-0.08764 0.03952,-0.169672 0.0794,-0.246942 0.03989,-0.07697 0.09664,-0.144577 0.170234,-0.202708 0.07491,-0.05806 0.167799,-0.103372 0.27863,-0.13615 0.11237,-0.0339 0.245725,-0.05057 0.400528,-0.05057 0.147012,0 0.277337,0.01311 0.390845,0.0427 0.11349,0.02734 0.208982,0.06817 0.286346,0.121729 0.07753,0.05374 0.136149,0.11967 0.176039,0.197839 0.03989,0.07696 0.06011,0.165178 0.06011,0.26434 0,0.104686 -0.02509,0.199 -0.07529,0.283368 -0.05038,0.08447 -0.1148,0.162555 -0.193437,0.234264 -0.07865,0.07079 -0.166301,0.137087 -0.26316,0.199468 -0.09551,0.06237 -0.188345,0.122853 -0.278612,0.182032 -0.09027,0.05918 -0.172856,0.118734 -0.247672,0.178849 -0.0736,0.06011 -0.128284,0.124539 -0.16443,0.193213 h 1.26543 v 0.365638 h -1.9078"/>
<path d="m 40.0962,35.8412 c 0,0.09944 -0.01873,0.189037 -0.056,0.268685 -0.03614,0.07865 -0.09082,0.145889 -0.164428,0.20179 -0.0736,0.05581 -0.164991,0.09888 -0.274641,0.129034 -0.108619,0.02902 -0.235014,0.04345 -0.379628,0.04345 -0.16087,0 -0.296777,-0.01873 -0.407589,-0.05431 -0.10974,-0.03614 -0.2,-0.0839 -0.271138,-0.142892 -0.07004,-0.06011 -0.123228,-0.127722 -0.159185,-0.20342 -0.03502,-0.07566 -0.05768,-0.152068 -0.06817,-0.229863 l .5004,-.0388 c 0.0075,0.04664 0.02079,0.08952 0.03858,0.129033 0.02079,0.0382 0.04607,0.07154 0.07865,0.09926 0.03278,0.0281 0.07228,0.04963 0.11892,0.06517 0.04776,0.01311 0.103745,0.02098 0.167987,0.02098 0.117796,0 0.20945,-0.02603 0.27464,-0.07772 0.06536,-0.05169 0.09794,-0.131093 0.09794,-0.237597 0,-0.06517 -0.01685,-0.11761 -0.04738,-0.15675 -0.03034,-0.03952 -0.06929,-0.06929 -0.117048,-0.0899 -0.04664,-0.02098 -0.09739,-0.03614 -0.152255,-0.04345 -0.05468,-0.0075 -0.106749,-0.01122 -0.155626,-0.01122 h -0.171358 v -0.352548 h 0.161057 c 0.04888,0 0.09851,-0.0037 0.148698,-0.01122 0.05132,-0.0094 0.09739,-0.02322 0.13821,-0.04495 0.04082,-0.02098 0.07397,-0.05169 0.09963,-0.09008 0.02566,-0.03952 0.03858,-0.08915 0.03858,-0.149072 0,-0.09008 -0.02847,-0.160496 -0.08577,-0.211304 -0.056,-0.05169 -0.13821,-0.07772 -0.246643,-0.07772 -0.10132,0 -0.183718,0.02472 -0.24668,0.07454 -0.06161,0.04963 -0.09739,0.120231 -0.106749,0.211285 l -.4916,-.0311 c 0.01311,-0.102442 0.0455,-0.191583 0.09438,-0.26713 0.05,-0.07566 0.112551,-0.13821 0.187277,-0.187876 0.07584,-0.04963 0.162555,-0.08652 0.260631,-0.110115 0.09794,-0.02472 0.201791,-0.03726 0.311404,-0.03726 0.144577,0 0.268797,0.01685 0.372605,0.04664 0.103756,0.03109 0.189036,0.07303 0.255407,0.125663 0.06648,0.05281 0.11555,0.114426 0.147012,0.184841 0.03146,0.07023 0.04739,0.145326 0.04739,0.225218 0,0.06424 -0.01122,0.124352 -0.03146,0.18016 -0.02079,0.05506 -0.05319,0.104686 -0.09627,0.149072 -0.04194,0.04363 -0.09625,0.08109 -0.162556,0.11349 -0.06648,0.03109 -0.145138,0.05431 -0.236155,0.06986 v 0.0075 c 0.10132,0.0094 0.189487,0.03109 0.264153,0.06217 0.07472,0.02997 0.135962,0.0678 0.183719,0.11349 0.04776,0.0455 0.08353,0.09739 0.106748,0.155439 0.02341,0.05675 0.03502,0.117609 0.03502,0.181658"/>
</g>
<g style="fill:#90d8d8">
<rect width="4" x="9" y="12" height="4"/>
<rect width="4" x="9" y="18" height="4"/>
<rect width="4" x="9" y="24" height="4"/>
</g>
<path style="fill:#fff" d="m 9.2582,33.554 c -0.015595,0 -0.029206,0.01043 -0.032912,0.02568 l -.1372,.5588 c -0.114705,0.03084 -0.222893,0.07666 -0.322935,0.135367 l -.2472,-.1615 -.2434,-.1592 c -0.013521,-0.0087 -0.031371,-0.007 -0.042829,0.0043 l -.2617,.2623 c -0.011061,0.01111 -0.013796,0.028 -0.00571,0.04136 l .1786,.2938 .1295,.2133 c -0.05457,0.09149 -0.098974,0.189686 -0.130176,0.293729 l -.5646,.117 c -0.015716,0.0033 -0.027069,0.01816 -0.027069,0.03422 v 0.370499 c 0,0.01566 0.011911,0.02913 0.027069,0.03282 l .5476,.1326 c 0.029282,0.120455 0.074474,0.235655 0.134349,0.340643 l -.3173,.4819 c -0.00887,0.01345 -0.00717,0.03138 0.00425,0.04274 l .263,.2624 c 0.011107,0.01111 0.028152,0.01239 0.041537,0.0043 l .4975,-.3009 c 0.09758,0.05618 0.203117,0.101229 0.314405,0.131196 l .1159,.5559 c 0.00329,0.01572 0.016739,0.02717 0.032821,0.02717 h 0.371705 c 0.015595,0 0.029127,-0.01043 0.032821,-0.02568 l .1372,-.5588 c 0.11473,-0.03085 0.222966,-0.07664 0.323028,-0.135368 l .2454,.1604 .2451,.1604 c 0.01352,0.0087 0.03137,0.007 0.04283,-0.0043 l .2617,-.2623 c 0.0029,-0.0029 0.0051,-0.0065 0.0068,-0.01 0.0048,-0.01 0.0048,-0.02157 -0.0012,-0.03134 l -.1786,-.2936 -.1295,-.2133 c 0.05458,-0.09149 0.09888,-0.189593 0.130083,-0.293635 l .5646,-.117 c 0.01572,-0.0033 0.02706,-0.01816 0.02706,-0.03422 v -0.370683 c 0,-0.01566 -0.01191,-0.02904 -0.02706,-0.03273 l -.5476,-.1326 c -0.02928,-0.120454 -0.07448,-0.235746 -0.134349,-0.340734 l .3173,-.4819 c 0.0088,-0.01345 0.0071,-0.03138 -0.0043,-0.04274 l -.263,-.2623 c -0.01111,-0.01111 -0.02815,-0.01239 -0.04154,-0.0043 l -.4974,.3008 c -0.0976325,-0.056158 -0.203261,-0.101106 -0.314549,-0.131081 l -.1158,-.556 c -0.00329,-0.01572 -0.016819,-0.02706 -0.032912,-0.02706 h -0.371612 Z  m .1627,.7919 a 1.07807,1.07807 0 0,1 1.07863,1.07773 1.07807,1.07807 0 0,1 -1.07812,1.07812 1.07807,1.07807 0 0,1 -1.07812,-1.07812 1.07807,1.07807 0 0,1 1.07812,-1.07811 Z "/>
<rect width="3" x="17" y="34" height="3" style="fill:#d45500"/>
<rect width="3" x="21" y="34" height="3" style="fill:#349ba3"/>
<rect width="3" x="13" y="34" height="3" style="fill:#ccc"/>
<rect width="3" x="25" y="34" height="3" style="fill:#008000"/>
</svg>
