<svg width="48" version="1.1" xmlns="http://www.w3.org/2000/svg" height="48">
<rect width="42" x="3" y="3" height="42" style="fill:#2980b9;fill-rule:evenodd;stroke:none" id="rect818"/>
<g style="stroke-linecap:square;stroke-miterlimit:2;stroke:#003bc3;stroke-width:0;fill-rule:evenodd" id="g826" transform="matrix(1.085286,0,0,1.085286,-2.5303813,0.82607978)">
<path style="fill:#f39c12" id="shape0" d="m 37.3443,25.9805 c -0.0741,-4.09901 -4.26671,-7.37802 -9.37659,-7.33343 -5.1099,0.04459 -9.21252,3.39597 -9.17547,7.49533 0.03706,4.09935 4.19985,7.4027 9.30999,7.38782 5.11024,-0.01488 9.24309,-3.3424 9.24309,-7.44173"/>
<path style="fill:#f2f2f2" id="shape4" d="m 34.19,26.3961 c -0.266119,-2.49002 -2.70017,-4.82984 -6.03081,-4.82984 -3.33067,0 -6.03074,2.16241 -6.03074,4.82984 0,2.66741 2.70007,4.82989 6.03074,4.82989 3.33065,0 6.03081,-2.16248 6.03081,-4.82989"/>
<path style="fill:#2980b9" id="shape5" d="m 30.7662,26.2539 c 0,-1.21976 -1.23467,-2.20856 -2.7577,-2.20856 -1.52304,0 -2.7577,0.988801 -2.7577,2.20856 0,1.21976 1.23466,2.20856 2.7577,2.20856 1.52303,0 2.7577,-0.988801 2.7577,-2.20856"/>
<g style="fill:#f39c12">
<rect width="15.716468" x="17.28129" y="15.134788" rx="1.5790613" height="2.8493714" ry="1.4247" id="rect13" transform="matrix(0.9928489,0.11937783,-0.18425407,0.98287865,0,0)"/>
<rect width="13.828378" x="24.792948" y="-11.571113" rx="1.3893615" height="3.2378073" ry="1.6189036" id="shape1" transform="matrix(0.67811372,0.73495699,-0.86059621,0.5092879,0,0)"/>
<rect width="14.745927" x="-10.547254" y="29.420664" rx="1.4815493" height="3.0989919" ry="1.5494959" id="shape2" transform="matrix(0.86059621,-0.5092879,0.67811372,0.73495699,0,0)"/>
</g>
</g>
</svg>
