<svg width="48" version="1.1" xmlns="http://www.w3.org/2000/svg" height="48">
<path style="fill:#e6e6e6;stroke-width:1.052" id="path3756" d="m 6,6 v 37 h 36 l -.1511,-36.9368 -11.5571,-.0632 Z "/>
<g style="stroke:none">
<path style="fill-rule:evenodd;line-height:125%;stroke-width:1.087" id="rect2988" d="m 5,6 v 37 h 8 v -3 h 22 v 3 h 8 V 6 H 35 V 9 H 13 V 6 Z m 2,3 h 4 v 4 H 7 Z m 30,0 h 4 v 4 H 37 Z M 13,12 H 35 V 23 H 13 Z M 7,22 h 4 v 4 H 7 Z m 30,0 h 4 v 4 H 37 Z M 13,26 H 35 V 37 H 13 Z m -6,9 h 4 v 4 H 7 Z m 30,0 h 4 v 4 h -4 z"/>
<path id="path4143" d="m 23.2988,29.2715 v 6.07812 h 1.39844 v -1.82422 l 1.707,1.8242 h 1.69531 l -2.3047,-2.3672 2.1367,-2.0078 h -1.625 l -1.6094,1.6055 v -3.30859 h -1.39844 z  m -5.6172,1.5977 c -0.26823,0 -0.514324,0.0625 -0.738282,0.1875 -0.221354,0.125 -0.417969,0.311197 -0.589843,0.558593 v -0.640625 h -1.40625 v 4.375 h 1.40625 v -2.15234 c 0,-0.408854 0.072916,-0.722657 0.21875,-0.941407 0.145833,-0.221354 0.352865,-0.332031 0.621093,-0.332031 0.213542,0 0.36198,0.070312 0.445313,0.210938 0.083333,0.13802 0.125,0.449218 0.125,0.933593 v 2.28125 h 1.40625 v -2.14844 c 0.005209,-0.414063 0.079427,-0.730469 0.222656,-0.949219 0.145833,-0.21875 0.351562,-0.328125 0.617188,-0.328125 0.203124,0 0.35026,0.070312 0.441406,0.210938 0.091146,0.13802 0.136719,0.361979 0.136719,0.671875 0,0.067706 -0.001307,0.11979 -0.003907,0.15625 0,0.036459 -0.001306,0.071615 -0.003906,0.105468 v 2.28125 h 1.40625 v -2.66406 c 0,-0.591145 -0.13151,-1.04167 -0.394531,-1.35156 -0.263022,-0.309896 -0.645833,-0.464843 -1.14844,-0.464843 -0.291666,0 -0.559896,0.071614 -0.804687,0.214843 -0.242187,0.140625 -0.451823,0.346355 -0.628906,0.617188 -0.119792,-0.263021 -0.295573,-0.467448 -0.527344,-0.613281 -0.231771,-0.145834 -0.498698,-0.21875 -0.800781,-0.21875 z  m 10.3945,.1055 l 1.7188,4.375 h 1.53516 l 1.7227,-4.375 h -1.40234 l -1.0859,3.0234 -1.0898,-3.0234 h -1.39844 z "/>
</g>
</svg>
