<svg width="48" version="1.1" xmlns="http://www.w3.org/2000/svg" height="48">
<g style="stroke:none;color:#000" id="g17">
<g style="fill-rule:evenodd" id="layer1" transform="matrix(0.59552686,-0.38289734,0.41969403,0.5244056,-0.34874551,10.50041)">
<path style="fill:#468c00" id="path2188" d="M 1.4867,43.4027 16.2859,5.7353 24.2855,1.1821 32.9517,5.8733 44.6844,20.3608 46.2843,34.5723 41.3512,40.9192 1.4866,43.4028 Z"/>
<g id="g3775" transform="matrix(2.2075528,0,0,2.2076152,73.549138,-9.8479227)">
<path style="opacity:.6;fill:#fff" id="path3777" d="m -32.1752,23.6889 6.2606,-9.2189 -.39,-5.2513 z "/>
<path style="opacity:.3;fill:#fff" id="path3779" d="m -31.6383,23.4625 5.9174,-8.0497 3.8343,5.327 z"/>
<path style="opacity:.2;fill:#fff" id="path3781" d="m -32.0825,23.8293 10.8053,-2.4099 2.4362,1.4544 Z "/>
<path style="opacity:.3;fill:#fff" id="path3783" d="m -17.5243,22.6812 -3.1037,-1.7404 l 2.6952,-4.0088 2.6335,.9074 -.0976,4.7577 z "/>
<path style="opacity:.4;fill:#fff" id="path3785" d="m -21.1668,20.3721 -4.0863,-5.2953 4.1967,-3.011 2.6562,4.5625 -2.7667,3.7438 z"/>
<path style="opacity:.75;fill:#fff" id="path3787" d="m -25.2834,14.1888 4.0109,-2.8792 .4949,-3.4295 -5.0414,.044 z "/>
<path style="opacity:.8;fill:#fff" id="path3789" d="m -25.6561,7.3666 3.3605,-1.864 3.7832,2.0046 -1.9578,-.1914 z "/>
<path style="opacity:.65;fill:#fff" id="path3791" d="m -18.1836,8.0681 4.1599,5.3145 -1.2514,3.6154 -2.5607,-1.0025 -2.6465,-4.6772 .2299,-3.3993 z "/>
<path style="opacity:.4;fill:#fff" id="path3793" d="m -13.5743,13.7754 .6462,6.2072 -1.9484,2.4847 .1644,-5.2065 z "/>
</g>
</g>
<path style="fill:#d17c00;display:block" id="path3591" d="m 6.5292,33.4948 -.0002,10.4195 c -3.48e-05,1.71558 1.19015,3.08567 2.65648,3.08567 h 29.5959 c 1.46634,0 2.65648,-1.37009 2.65648,-3.08567 l .0001,-10.4195 z "/>
<g id="g12" transform="matrix(1.058001,0,0,1.2448932,1.0265134,-7.3259714)">
<path style="fill:#3d2400" id="path3933" d="m 5.201,32.993 0,.6798 32.995,0 0,-.6798 z "/>
<path style="fill:#ffaa05" id="path4306" d="m 5.4875,25.8857 -1.6481,7.119 35.7493,0 -1.6481,-7.119 z "/>
</g>
</g>
</svg>
