<svg width="48" version="1.1" xmlns="http://www.w3.org/2000/svg" height="48">
<path style="fill:#ccaa7d" id="rect2419" d="m 6,4.1217 h 36 c 1.662,0 3,1.338 3,3 v 34.8783 c 0,1.662 -1.338,3 -3,3 h -36 c -1.662,0 -3,-1.338 -3,-3 v -34.8783 c 0,-1.662 1.338,-3 3,-3 z "/>
<rect width="39.956085" x="3.9800367" y="9.9614334" rx="2.8540061" ry="2.9198806" height="11.679523" style="fill:#3c2510" id="rect2483"/>
<g style="fill:#ccaa7d" id="g7" transform="matrix(1.0434904,0,0,1,-1.0218928,0)">
<path id="rect2481" d="M 6.855,4.1614 C 3.86179,4.220128 3.85427,4.1687 3.85427,7.07467 v 11.653 c 0,2.92589 0.122133,2.84767 3,2.91327 L 24.8594,20.27 V 3.19024 Z"/>
<path id="path3262" d="m 41.3546,4.1614 c 2.6869,0.058728 2.7492,0.066026 2.7492,2.91327 v 11.653 c 0,2.99149 -0.235701,2.97887 -2.7492,2.91327 L 24.8594,20.27 V 3.19024 Z"/>
</g>
<path style="opacity:.5;fill:#3a240f" id="path5008" d="m 26.9785,3.2781 -5.8984,0 .0293,12.3137 .0655,14.8088 2.7675,-.2532 2.9412,-.2688 .0159,-2.8408 .0496,-11.446 .0293,-12.3137 z "/>
<path style="fill:#d8cab2" id="polygon120" d="m 26.9492,3.216 -2.9492,-.216 l -2.9492,.216 .0293,12.5563 .0655,14.1417 2.7675,-.2418 2.9412,-.2567 .0159,-2.7128 .0496,-10.9304 .0293,-12.5563 z "/>
<g id="g15">
<rect width="0.48664677" x="23.513353" y="3.2092094" height="17.380241" style="opacity:.2;fill:#8d6137" id="rect4363"/>
<rect width="0.48664677" x="24" y="3.2092094" height="17.380241" style="opacity:.2;fill:#fff" id="rect4365"/>
</g>
</svg>
