<svg width="48" version="1.1" xmlns="http://www.w3.org/2000/svg" height="48">
<path style="opacity:.2" d="M 4,4 V 46 H 46 V 4 Z"/>
<path style="fill:#ecf0f1" id="rect4090-5" d="M 3,3 V 44.999772 L 45,45 V 3 Z"/>
<g id="g4156" transform="matrix(0.42500535,0,0,0.42500535,3.5145732,3.684566)">
<g style="stroke:#003bc3;stroke-width:0;stroke-miterlimit:2" id="g114">
<path style="opacity:.2" id="path3170" d="m 25.1687,7.8067 c -0.18109,0.018637 -0.376909,0.068405 -0.513056,0.204566 0,0 -6.29571,6.27401 -6.29571,6.27401 -0.264461,0.264233 -0.296728,0.668833 -0.102608,0.98868 0,0 7.35629,12.1047 7.35629,12.1047 -1.30622,2.1883 -2.36697,4.53567 -3.11371,7.02422 0,0 -13.5148,2.79592 -13.5148,2.79592 -0.37609,0.07759 -0.650084,0.434156 -0.650084,0.818317 0,0 0,8.86531 0,8.86531 0,0.374963 0.286035,0.69573 0.650084,0.784321 0,0 13.1043,3.17108 13.1043,3.17108 0.700782,2.88111 1.78328,5.63824 3.21626,8.14918 0,0 -7.59575,11.525 -7.59575,11.525 -0.211863,0.321968 -0.170547,0.751324 0.102584,1.0233 0,0 6.29563,6.27377 6.29563,6.27377 0.265237,0.263374 0.671964,0.296571 0.992211,0.102193 0,0 11.9068,-7.19448 11.9068,-7.19448 2.33548,1.34346 4.86369,2.42016 7.52723,3.13709 0,0 2.77176,13.2981 2.77176,13.2981 0.07733,0.375362 0.401604,0.647934 0.786665,0.647934 0,0 8.89567,0 8.89567,0 0.3737,0 0.698372,-0.250374 0.787064,-0.614738 0,0 3.28458,-13.3657 3.28458,-13.3657 2.74725,-0.738325 5.33724,-1.83402 7.73291,-3.23928 0,0 11.7356,7.67203 11.7356,7.67203 0.323476,0.209979 0.751986,0.169383 1.02643,-0.102192 0,0 6.26143,-6.27417 6.26143,-6.27417 0.265874,-0.264573 0.331447,-0.669532 0.136526,-0.9887 0,0 -4.27673,-7.0243 -4.27673,-7.0243 0,0 -1.82984,0.41456 -1.95022,0.238777 0,0 -2.70161,-3.9604 -6.22735,-9.10389 -4.21614,8.22218 -12.815,13.8436 -22.7186,13.8436 -14.0729,0 -25.49,-11.3781 -25.49,-25.4027 0,-10.3162 6.19008,-19.1768 15.0545,-23.1523 0,0 0,-6.5468 0,-6.5468 -1.61299,0.562724 -3.17177,1.24168 -4.65302,2.04588 -0.003,-0.0017 0.0026,-0.03254 0,-0.03404 0,0 -12.0095,-7.84257 -12.0095,-7.84257 -0.161578,-0.105204 -0.332225,-0.120867 -0.513315,-0.10224 z"/>
<path style="fill:#3080ca" id="gear_path" d="m 26.0302,8.0066 c -0.178033,0.018127 -0.370546,0.066568 -0.504395,0.199059 0,0 -6.18943,6.1051 -6.18943,6.1051 -0.259996,0.25712 -0.291719,0.650827 -0.100877,0.962064 0,0 7.23209,11.7789 7.23209,11.7789 -1.28417,2.12939 -2.32701,4.41356 -3.06115,6.83512 0,0 -13.2867,2.72065 -13.2867,2.72065 -0.369742,0.07551 -0.63911,0.422469 -0.63911,0.796289 0,0 0,8.62665 0,8.62665 0,0.364868 0.281207,0.677 0.63911,0.763207 0,0 12.8831,3.08572 12.8831,3.08572 0.688952,2.80355 1.75317,5.48645 3.16196,7.9298 0,0 -7.46752,11.2148 -7.46752,11.2148 -0.208286,0.313301 -0.167667,0.731099 0.100853,0.995751 0,0 6.18935,6.10488 6.18935,6.10488 0.260761,0.256283 0.66062,0.288586 0.97546,0.09944 0,0 11.7058,-7.0008 11.7058,-7.0008 2.29605,1.3073 4.78158,2.35501 7.40015,3.05263 0,0 2.72497,12.9401 2.72497,12.9401 0.07603,0.365258 0.394822,0.630493 0.773383,0.630493 0,0 8.74549,0 8.74549,0 0.367392,0 0.686581,-0.243635 0.773776,-0.59819 0,0 3.22913,-13.0058 3.22913,-13.0058 2.70087,-0.71845 5.24714,-1.78464 7.60237,-3.15207 0,0 11.5375,7.4655 11.5375,7.4655 0.318015,0.204326 0.73929,0.164823 1.0091,-0.09944 0,0 6.15572,-6.10527 6.15572,-6.10527 0.261387,-0.257451 0.325852,-0.651509 0.134221,-0.962084 0,0 -4.20453,-6.8352 -4.20453,-6.8352 0,0 -1.79895,0.403397 -1.9173,0.232348 0,0 -2.656,-3.85379 -6.12222,-8.85881 -4.14496,8.00083 -12.5987,13.4709 -22.3351,13.4709 -13.8353,0 -25.0597,-11.0718 -25.0597,-24.7188 0,-10.0384 6.08558,-18.6605 14.8003,-22.529 0,0 0,-6.37056 0,-6.37056 -1.58576,0.547574 -3.11823,1.20825 -4.57447,1.9908 -0.003,-0.0017 0.0025,-0.03167 0,-0.03312 0,0 -11.8067,-7.63144 -11.8067,-7.63144 -0.15885,-0.10237 -0.326616,-0.117616 -0.504649,-0.099478 z"/>
</g>
<g style="stroke:none" id="g118">
<path style="opacity:.2" id="path3172" d="m 38.12,21.8629 a 10.4549,11.0982 0 1 1 -20.9097,0 10.4549,11.0982 0 1 1 20.9097,0 z" transform="matrix(2.0390648,0,0,1.854887,-3.4829314,2.6399113)"/>
<path style="fill:#3080ca" id="path2985" d="m 38.12,21.8629 a 10.4549,11.0982 0 1 1 -20.9097,0 10.4549,11.0982 0 1 1 20.9097,0 z" transform="matrix(2.0046407,0,0,1.804952,-2.1369985,2.9784063)"/>
<path style="opacity:.5;fill:#fff" id="path3522-9" d="m 54.6799,22.5999 c -0.258136,-0.01 -0.497453,-0.003 -0.66686,0.03705 l -3.59364,0 c -0.981501,0.130657 -1.95665,0.299812 -2.88973,0.555717 0.358548,1.08907 -0.02605,2.4238 1.03734,2.40811 0.612083,0.865253 -1.21164,0.259319 0.111143,0.926195 0.760674,0.598998 -0.79384,0.944371 0.148191,1.48191 -1.08572,0.560171 0.156821,2.92646 0.963243,3.51954 1.32727,1.11723 0.593686,-2.37513 2.07468,-2.5563 0.804745,-0.918604 2.21939,-1.48402 3.22316,-2.40811 -0.980979,-0.07963 -1.55885,-0.696197 -0.629812,-1.07439 1.70986,1.75189 0.427835,-0.850872 -0.518669,-1.25962 0.915858,-0.291298 1.83128,-0.05941 1.7042,-0.815051 0.725895,-0.531004 -0.188835,-0.7851 -0.963242,-0.815052 z m -11.4848,2.297 c -0.786185,0.416006 -1.53973,0.901974 -2.25991,1.40782 1.17372,0.227503 1.84436,-0.302244 2.33401,0.963242 1.38142,0.796054 -1.03e-4,2.15901 -0.518669,2.51925 0.93403,-0.813344 2.73058,2.22782 2.25991,0.629812 -0.561521,-0.409944 1.48105,0.665451 0.407526,-0.66686 -0.987935,-1.59149 0.102157,-0.704872 0.518669,-0.33343 1.41664,-1.27015 -1.60584,-1.4344 -0.852099,-2.74154 -0.495371,-0.401167 -1.12141,-1.43111 -1.88944,-1.77829 z m 22.4139,1.2967 c -1.46918,0.738995 -2.17846,2.36757 -3.03792,3.74183 -1.47168,0.663441 -1.42186,3.50334 0.222287,2.59334 0.440051,0.768461 -0.318513,2.00509 0.963242,1.00029 1.03386,-1.36798 0.204162,-3.58314 1.96353,-4.44573 0.128153,0.670716 -1.63814,3.15319 0.407526,2.74154 1.84931,0.06978 -1.34402,0.189634 -0.444574,1.37077 -0.934499,-0.554387 -0.447351,1.5187 -1.66715,1.03734 -1.05675,0.574743 -1.76104,-0.263578 -1.51896,-1.18553 -0.831311,0.484909 0.257571,1.84427 -1.18553,1.92648 -0.323264,1.14777 -2.9566,0.980036 -1.44486,2.14877 0.671174,1.73925 -2.53063,0.09866 -1.6301,2.18582 0.770445,2.06389 2.38284,-0.691705 3.03792,-1.22258 1.18491,-0.919009 2.91257,1.37229 2.18582,1.74125 1.04456,-0.266007 0.779563,-1.37203 -0.185239,-1.81534 -0.55187,-1.4311 1.7576,0.727347 1.6301,1.44486 0.811103,1.51864 0.471287,-1.58302 1.29667,-0.222286 -0.09636,1.43536 3.33544,0.356459 1.7042,2.18582 -1.4025,0.282449 -2.79371,-0.37542 -4.00116,0.03705 -1.12382,-0.01 -1.07276,-1.21831 -1.48191,-1.51896 -1.42951,0.116122 -3.19235,0.104938 -4.14935,1.25962 -1.03488,1.4197 -2.53577,3.41096 -1.40782,5.22374 1.12875,2.68633 3.94814,0.154759 5.55717,1.74125 0.478258,0.661493 -0.439555,1.43225 0.629812,2.14877 0.402393,1.52631 -0.432562,2.98667 0.555717,4.44573 0.51104,1.37217 0.80244,3.40264 2.70449,2.14877 2.01306,-1.21127 1.48803,-3.43126 3.14906,-4.66802 -1.31431,-2.54327 1.60491,-3.64069 2.33401,-5.70536 -1.59294,0.233175 -2.98648,-1.3655 -3.37135,-2.96382 -0.669176,-0.776341 -0.525208,-1.94004 0.222286,-0.481622 1.02743,0.995438 1.06325,3.96466 2.96382,2.44515 0.868883,-0.36338 3.22441,-1.74025 1.33372,-2.37106 -1.21873,0.882609 -2.56765,-2.63436 -0.778003,-0.592765 1.03458,0.438875 1.83234,0.705376 2.11172,-0.111143 0,-4.96746 -1.90605,-9.50316 -5.0385,-13.0038 -0.290921,0.293288 -0.855463,-0.03272 -0.555717,0.592764 -0.739701,-0.524638 -1.35844,-2.13487 0,-1.22258 -0.936855,-0.965493 -1.95662,-1.8563 -3.07497,-2.63039 z m -17.5236,0.1852 c -0.738148,0.614961 1.40333,0.730769 0,0 z m -6.8538,0.3334 c -0.07117,0.731067 -1.02014,2.23182 -0.889147,0.407525 -0.269229,0.319164 -0.430263,0.249936 -0.555717,0.03705 -3.85359,3.11904 -6.47141,7.54254 -7.18727,12.5592 0.205462,0.470737 0.519578,0.869679 1.07439,1.14848 0.322008,0.597208 1.67895,3.13233 1.74125,2.37106 -0.677396,-0.709293 -1.3685,-2.82144 -0.222287,-0.926195 1.02667,1.80156 2.38555,2.97968 4.40869,3.4084 1.10611,0.376197 2.02815,1.6553 3.00087,1.37077 0.550038,1.4498 -1.62913,2.83416 0.0741,4.1864 0.88917,1.36894 2.36422,2.2645 1.55601,4.1864 -0.466978,1.55083 -0.360374,3.22367 -0.592765,4.74212 0.52472,0.26212 1.0434,0.52119 1.59305,0.740956 0.208277,-0.911752 0.468066,-1.76398 1.14848,-2.40811 1.53898,0.01218 0.28772,-1.66261 1.81534,-1.44486 0.932166,-1.22168 1.20548,-2.66396 2.77858,-3.14906 0.187909,-1.48293 2.61912,-3.75723 0.111143,-4.33459 -0.681635,-0.335926 -2.46814,-0.464061 -2.33401,-0.629813 0.271736,-1.47146 -2.25308,-1.88018 -3.3343,-2.4822 -1.4196,-1.00753 -3.53806,1.64346 -4.03821,-0.66686 -0.298429,-0.726902 -1.39062,-0.730748 -0.889147,-1.85239 -0.903751,0.898727 -2.68566,0.624183 -2.22287,-1.11143 0.702825,-1.46173 3.39305,-1.53591 3.85297,0.222286 -0.638575,-1.93908 1.25725,-3.43667 2.29696,-4.81621 0.211702,-0.659382 1.4702,-1.20978 1.03734,-0.33343 0.737464,-0.0266 1.82873,-1.35512 0.518669,-0.740956 -0.01854,-1.21351 -1.15278,-0.87622 -1.51896,-0.703908 0.678687,-1.07705 4.16406,-0.49941 2.70449,-2.25991 -1.13098,-0.458205 -1.00482,-3.11972 -2.14877,-1.6301 0.09627,-0.917819 -2.34987,-2.72461 -2.29696,-1.18553 0.295961,1.37719 0.07412,2.95024 -0.555717,3.85297 -0.131434,-2.01804 -3.59162,-1.55433 -3.14906,-3.70478 0.641151,-1.02491 1.41053,-2.46151 1.48191,-2.33401 1.14904,-0.438649 2.07268,-1.68045 0.740956,-2.51925 z m 1.7783,0.8521 c -0.625196,1.02405 0.923771,0.378075 0,0 z m 13.6706,1.1855 c -0.731949,0.842569 -1.68845,-0.205536 -1.7042,0.518669 0.132654,0.218823 0.651287,1.78235 1.81534,0.629812 0.62475,-0.263364 0.381888,-0.945219 -0.111144,-1.14848 z m -15.5601,0.5187 c -1.38832,1.21229 2.323,1.33314 0.259334,0.148191 l -0.2593,-0.1482 z m 18.2646,3.4084 c -0.896168,0.66532 0.492334,1.99185 0,2.63039 -0.626327,1.09113 2.35567,-0.09269 0.778003,-0.963242 -0.09836,-0.654444 -0.752515,-1.42997 -0.778003,-1.66715 z m -0.6298,1.2596 c -1.39265,0.393681 -0.345062,2.43303 0.148191,0.518669 0.02773,-0.110989 0.09425,-0.52238 -0.148191,-0.518669 z m -11.1514,1.4819 c -1.29559,0.883333 -0.208553,1.76822 0.740956,1.37077 C 48.149823,36.256209 47.612583,35.917237 47.6038,35.4184 Z m 21.1543,1.4819 c -0.08771,0.864636 1.84626,2.21688 -0.259335,1.77829 -1.11353,0.130607 -2.77359,-0.02046 -1.37077,-1.40782 0.443268,-0.266077 1.60593,0.884484 1.00029,-0.222287 0.214717,-0.01369 0.427546,-0.08305 0.629813,-0.148191 z m 3.2973,0 c 0.646452,0.326208 -1.15949,0.870755 0,1.44486 0.674751,0.793395 0.392838,2.50206 -0.703908,1.29667 0.203762,-1.34582 -1.48432,-2.34373 0.703908,-2.74154 z m -9.7436,1.8894 c -0.812194,0.523192 0.561623,0.924369 0,0 z M 41.8985,43.643 c -0.136927,0.456753 2.57096,0.917016 0.703908,0.185239 l -0.2593,-0.0741 -0.4446,-0.1111 z m 2.1117,0.6669 c -0.820679,0.833044 1.69085,0.248882 0,0 z m 27.4524,7.6318 c -1.01867,0.02628 -1.37043,1.51249 -1.25962,2.29696 0.474202,-0.618778 0.935032,-1.2566 1.33372,-1.92648 -0.004,-0.131213 -0.01425,-0.255101 -0.0741,-0.370478 z"/>
</g>
</g>
</svg>
