<svg width="48" version="1.1" xmlns="http://www.w3.org/2000/svg" height="48">
<g style="fill-rule:evenodd">
<rect width="42" x="3" y="3" height="42" style="fill:#f39c12;stroke:none" id="rect2988"/>
<g style="fill:#fff" id="g5" transform="matrix(1.064433,0,0,1.1472223,-1.5463917,-3.5333337)">
<path id="Oval 213" d="m 18.0343,41.1393 c 0,-5.43091 -5.49736,-9.8336 -12.2787,-9.8336 v -4.21435 c 9.68766,0 17.5411,6.28947 17.5411,14.0479 z m 10.5246,0 C 28.5589,31.0534 18.3496,22.877 5.7556,22.877 v -4.21441 c 15.5002,0 28.0656,10.0632 28.0656,22.4768 z"/>
<path style="stroke:none" id="path3758" d="m 11.6455,38.332 a 2.52685,2.52685 0 1,1 -5.05371,0 2.52685,2.52685 0 1,1 5.05371,0 z " transform="matrix(1.173913,0,0,1.173913,-1.5858511,-6.6664418)"/>
</g>
</g>
</svg>
