<svg width="48" version="1.1" xmlns="http://www.w3.org/2000/svg" height="48">
<path style="opacity:.2" d="M 4,4 V 46 H 46 V 4 Z"/>
<path style="fill:#ecf0f1" id="rect4090" d="M 3,3 V 45 H 45 V 3.1032118 L 31.411815,3 Z"/>
<g style="fill:#2c3e50">
<g id="folderLayer" transform="translate(5.7902881,2.7232169)">
<g id="layer1" transform="translate(7.5e-5,-0.2755603)">
<path style="stroke:none" id="path2995" d="m 23.9062,14.9688 c -6.20755,0 -11.3125,5.10495 -11.3125,11.3125 0,6.20755 5.10495,11.2812 11.3125,11.2812 2.40486,0 4.63327,-0.768557 6.46875,-2.0625 l 2.25,2.25 2.7812,-2.75 -2.2812,-2.25 c 1.29394,-1.83547 2.0625,-4.06389 2.0625,-6.46875 0,-6.20755 -5.0737,-11.3125 -11.2812,-11.3125 z m 0,3.9062 c 4.10515,0 7.375,3.3011 7.375,7.40625 0,1.33987 -0.354385,2.57665 -0.96875,3.65625 l -3.6562,-3.6562 2.3438,-2.375 -2.75,-2.75 -7.4688,7.4688 2.75,2.75 2.375,-2.375 3.6562,3.6875 c -1.0796,0.614365 -2.31638,0.96875 -3.65625,0.96875 -4.10515,0 -7.40625,-3.26985 -7.40625,-7.375 0,-4.10515 3.3011,-7.40625 7.40625,-7.40625 z"/>
</g>
</g>
<g style="font-family:'Bitstream Charter';font-style:italic;letter-spacing:0;word-spacing:0;text-align:start;font-weight:bold;line-height:125%;stroke:none;font-size:22.22222137px" id="text4140">
<path id="path4145" d="m 11.3692,7.1649 -3.9556,.8667 .0222,.7111 1.9333,.2222 -2.9111,14.5556 2.7556,0 1.3778,-7.6 c 1.2,-1 2.17778,-1.46667 2.82222,-1.46667 0.666666,0 1.06667,0.444444 1.06667,1.26667 0,0.333333 -0.06667,0.844444 -0.2,1.48889 l -.8,3.6889 c -0.111111,0.466667 -0.177777,0.866667 -0.177777,1.17778 0,1.04444 0.622222,1.57778 1.8,1.57778 0.844445,0 1.95556,-0.266667 3.35556,-0.777778 v -0.822222 c -0.533333,0.155555 -1.02222,0.244444 -1.46667,0.244444 -0.511111,0 -0.933333,-0.444444 -0.933333,-1.13333 0,-0.355556 0.08889,-0.888889 0.244444,-1.62222 l .6667,-3.0667 c 0.155556,-0.755555 0.244445,-1.35556 0.244445,-1.8 0,-1.31111 -0.844445,-2.13333 -2.13333,-2.13333 -1.08889,0 -2.51111,0.733333 -4.28889,2.2 l .7556,-3.7556 c 0.266667,-1.35556 0.533333,-2.62222 0.822222,-3.82222 h -1 z "/>
</g>
</g>
</svg>
