<svg width="48" version="1.1" xmlns="http://www.w3.org/2000/svg" height="48">
<path style="fill:#ef843f" id="path3001" d="m 4.5323,5.6497 0,36.6961 38.926,0 .074,-36.7458 -12.6677,.0497 z "/>
<g style="stroke:#003bc3;fill-rule:evenodd;stroke-linecap:square;stroke-width:0" id="g5">
<rect width="5.9782653" x="20.995003" y="5.3807707" height="17.40531" style="fill:#34495e;stroke-miterlimit:2.013" id="shape0"/>
<g style="fill:#ecf0f1" id="g8">
<rect width="3.58687" x="21.024063" y="5.385932" height="1.2884456" style="stroke-miterlimit:2.013" id="shape1"/>
<g style="stroke-miterlimit:2" id="g11">
<rect width="3.58687" x="23.407209" y="6.6745081" height="1.2884456" id="shape2"/>
<rect width="3.58687" x="21.024189" y="7.9652567" height="1.2884456" id="shape3"/>
<rect width="3.58687" x="23.407463" y="9.2538414" height="1.2884456" id="shape4"/>
<rect width="3.58687" x="21.020651" y="10.545826" height="1.2884456" id="shape5"/>
<rect width="3.58687" x="23.403797" y="11.83437" height="1.2884456" id="shape6"/>
<rect width="3.58687" x="21.020651" y="13.125094" height="1.2884456" id="shape7"/>
<rect width="3.58687" x="23.403797" y="14.413719" height="1.2884456" id="shape8"/>
<rect width="3.58687" x="20.996771" y="15.704525" height="1.2884456" id="shape9"/>
<rect width="3.58687" x="23.379791" y="16.993071" height="1.2884456" id="shape10"/>
<rect width="3.58687" x="20.996771" y="18.283875" height="1.2884456" id="shape11"/>
<rect width="3.58687" x="23.380047" y="19.572418" height="1.2884456" id="shape12"/>
<rect width="3.58687" x="20.993235" y="20.864435" height="1.2884456" id="shape13"/>
<rect width="5.9692578" x="21.005615" y="22.258387" height="8.5872087" id="shape17"/>
</g>
</g>
<rect width="3.4989555" x="22.263395" y="23.115692" height="2.0314646" style="fill:#2c3e50;stroke-miterlimit:2" id="shape18"/>
</g>
<g style="fill:#fff">
<path id="path4162" d="m 21.0801,40.4731 -2.3516,0 -.3711,1.0625 -1.5117,0 2.1602,-5.832 1.793,0 2.1602,5.832 -1.5117,0 -.3672,-1.0625 z  m -1.9766,-1.082 1.5977,0 -.7969,-2.3203 -.8008,2.3203 z "/>
<path id="path4164" d="m 26.916,38.352 q -0.183594,-0.08594 -0.367188,-0.125 -0.179687,-0.04297 -0.363281,-0.04297 -0.539063,0 -0.832031,0.347656 -0.289063,0.34375 -0.289063,0.988281 v 2.01562 h -1.39844 v -4.375 h 1.39844 v 0.71875 q 0.269531,-0.429687 0.617188,-0.625 0.351562,-0.199219 0.839843,-0.199219 0.07031,0 0.152344,0.0078 0.08203,0.0039 0.238281,0.02344 l .0039,1.2656 z "/>
<path id="path4166" d="m 31.1543,37.2973 0,1.1406 q -0.285156,-0.195313 -0.574219,-0.289063 -0.285156,-0.09375 -0.59375,-0.09375 -0.585937,0 -0.914062,0.34375 -0.324219,0.339844 -0.324219,0.953125 0,0.613282 0.324219,0.957032 0.328125,0.339843 0.914062,0.339843 0.328125,0 0.621094,-0.09766 0.296875,-0.09766 0.546875,-0.289062 v 1.14453 q -0.328125,0.121094 -0.667969,0.179687 -0.335937,0.0625 -0.675781,0.0625 -1.18359,0 -1.85156,-0.605468 -0.667968,-0.609375 -0.667968,-1.69141 0,-1.08203 0.667968,-1.6875 0.667969,-0.609375 1.85156,-0.609375 0.34375,0 0.675781,0.0625 0.335938,0.05859 0.667969,0.179688 z "/>
</g>
</svg>
