<svg width="48" version="1.1" xmlns="http://www.w3.org/2000/svg" height="48" xmlns:xlink="http://www.w3.org/1999/xlink">
<defs/>
<path style="fill:#ecf0f1" d="m 3,3 v 42 l 42,0 V 3 Z"/>
<path style="fill:#203040" d="m 9,15 36,0 0,30 -36,0 Z "/>
<path style="fill:#ecf0f1" d="m 24.3457,20.1543 c -5.07491,0.138806 -8.58789,4.25042 -8.58789,9.57422 0,0.769736 0.08682,1.52116 0.244141,2.24414 l 7.6703,-.6155 c -0.22631,1.37676 -4.8477,4.06686 -6.15078,4.20532 1.60365,2.39431 4.1352,3.98035 6.89453,4.02148 4.21032,0.05756 8.74094,-4.38523 10.2461,-7.83203 0.700151,1.67331 2.07534,3.83216 4.52539,3.83203 0,0 -1.14453,-3.0215 -1.14453,-5.79688 0,-2.77537 1.14453,-5.63281 1.14453,-5.63281 -2.49464,0 -3.87851,2.20629 -4.56641,3.86719 -1.52228,-2.99653 -5.91394,-7.81143 -10.2754,-7.86719 Z  m -2.7734,3.3711 c 1.3269,-0.09973 2.45818,0.950607 2.45703,2.28125 -0.06585,2.98029 -4.50446,2.98029 -4.57031,0 -0.0011,-1.19627 0.920425,-2.19101 2.11328,-2.28125 z "/>
</svg>
