<svg width="48" version="1.1" xmlns="http://www.w3.org/2000/svg" height="48">
<path style="fill:#ffb380" id="rect4090" d="M 3,3 V 45 H 45 V 3 Z"/>
<g style="stroke:#003bc3;fill-rule:evenodd;stroke-linecap:square;stroke-width:0" id="g888" transform="translate(0,-1.507)">
<rect width="7.9695606" x="20.002359" y="4.5075564" height="18.793396" style="fill:#34495e;stroke-miterlimit:2.013" id="shape0"/>
<g style="stroke-miterlimit:2" id="g19">
<g style="fill:#ecf0f1" id="g10" transform="matrix(1.4683729,0,0,1.025597,-11.238691,-2.7746832)">
<rect width="3.2564054" x="23.465931" y="7.1004887" height="1.4654016" id="shape2"/>
<rect width="3.2564054" x="21.302462" y="8.5685101" height="1.4654016" id="shape3"/>
<rect width="3.2564054" x="23.46616" y="10.03407" height="1.4654016" id="shape4"/>
<rect width="3.2564054" x="21.29925" y="11.503496" height="1.4654016" id="shape5"/>
<rect width="3.2564054" x="23.462833" y="12.96901" height="1.4654016" id="shape6"/>
<rect width="3.2564054" x="21.29925" y="14.437004" height="1.4654016" id="shape7"/>
<rect width="3.2564054" x="23.462833" y="15.902609" height="1.4654016" id="shape8"/>
<rect width="3.2564054" x="21.277571" y="17.370695" height="1.4654016" id="shape9"/>
<rect width="3.2564054" x="23.441038" y="18.836208" height="1.4654016" id="shape10"/>
<rect width="3.2564054" x="21.277571" y="20.304295" height="1.4654016" id="shape11"/>
<rect width="3.2564054" x="23.441269" y="21.769808" height="1.4654016" id="shape12"/>
<rect width="3.2564054" x="21.274359" y="23.239271" height="1.4654016" id="shape13"/>
<rect width="5.4192996" x="21.285601" y="24.824669" height="9.7665815" id="shape17"/>
</g>
<rect width="4.6644192" x="21.693239" y="23.685429" height="2.3696082" style="fill:#2c3e50" id="shape18"/>
</g>
</g>
<g style="fill:#233241" id="g2254" transform="translate(2.4e-5,-0.648793)">
<path id="path4157" d="m 14.8164,37.9614 q 0.355469,0 0.539063,-0.15625 0.183594,-0.15625 0.183594,-0.460937 0,-0.300781 -0.183594,-0.457031 -0.183594,-0.160157 -0.539063,-0.160157 h -0.832031 v 1.23438 H 14.8164 Z m 0.0508,2.5508 q 0.453125,0 0.679687,-0.191407 0.230469,-0.191406 0.230469,-0.578125 0,-0.378906 -0.226563,-0.566406 -0.226562,-0.191406 -0.683593,-0.191406 h -0.882813 v 1.52734 H 14.8672 Z m 1.3984,-2.0977 q 0.484375,0.140625 0.75,0.519532 0.265625,0.378906 0.265625,0.929687 0,0.84375 -0.570313,1.25781 -0.570312,0.414062 -1.73437,0.414062 h -2.49609 v -5.83203 h 2.25781 q 1.21484,0 1.75781,0.367187 0.546875,0.367188 0.546875,1.17578 0,0.425781 -0.199219,0.726562 -0.199219,0.296875 -0.578125,0.441406 z"/>
<path id="path4159" d="m 18.2969,37.1606 h 3.8164 v 0.9766 l -2.3047,2.3984 h 2.3047 v 1 H 18.1992 V 40.559 l 2.3047,-2.3984 h -2.207 z"/>
<path id="path4161" d="m 26.1445,37.8012 v -2.3438 h 1.4062 v 6.0781 h -1.4062 v -0.6328 q -0.289062,0.386718 -0.636719,0.566406 -0.347656,0.179687 -0.804687,0.179687 -0.808594,0 -1.32812,-0.640625 -0.519531,-0.644531 -0.519531,-1.65625 0,-1.01172 0.519531,-1.65234 0.519531,-0.644532 1.32812,-0.644532 0.453125,0 0.800781,0.183594 0.351563,0.179688 0.640625,0.5625 z m -0.9219,2.832 q 0.449219,0 0.683594,-0.328125 0.238281,-0.328125 0.238281,-0.953125 0,-0.625 -0.238281,-0.953125 Q 25.671819,38.0707 25.2226,38.0707 q -0.445312,0 -0.683594,0.328125 -0.234375,0.328125 -0.234375,0.953125 0,0.625 0.234375,0.953125 0.238282,0.328125 0.683594,0.328125 z"/>
<path id="path4163" d="M 28.3516,37.1606 H 29.75 l 1.0898,3.0234 1.0859,-3.0234 h 1.4023 l -1.7227,4.375 h -1.5352 l -1.7188,-4.375 z"/>
<path id="path4165" d="m 34.1211,37.1606 h 1.3984 v 4.375 h -1.3984 z m 0,-1.7031 h 1.3984 v 1.1406 h -1.3984 z"/>
</g>
</svg>
