<svg width="48" version="1.1" xmlns="http://www.w3.org/2000/svg" height="48">
<rect width="42" x="3" y="3" height="42" style="fill:#5b6d71;fill-rule:evenodd" id="rect3021"/>
<path style="fill:#bdc3c7" id="path9" d="m 26.4848,12.7003 c -0.540809,-2.02266 -0.301065,-2.41326 -2.27577,-1.84906 l -1.593,.4552 c -0.625827,-0.910301 -1.53614,-1.70681 -2.50333,-2.27576 l .2561,-1.5646 c 0.351812,-2.15002 -0.533566,-1.66759 -2.36111,-1.90595 -2.0356,-0.272347 -2.53597,-0.878984 -2.8447,1.16632 l -.2276,1.5077 c -0.170683,0.05689 -0.398262,0.113783 -0.568939,0.170692 -0.682722,0.170669 -1.30856,0.512037 -1.8775,0.853397 l -1.2232,-.9387 c -1.65194,-1.26778 -1.70431,-0.356383 -2.8447,1.0241 -1.36434,1.6134 -2.00888,1.66152 -0.341368,2.95849 l 1.2802,.9956 c -0.227572,0.625833 -0.341361,1.30856 -0.341361,2.04818 l -1.593,.4552 c -2.04668,0.58477 -1.44164,0.96611 -0.910307,2.75936 0.540796,2.02266 0.301058,2.41326 2.27576,1.84905 l 1.593,-.4552 c 0.625841,0.910307 1.53614,1.70682 2.50333,2.27576 l -.256,1.5646 c -0.351819,2.15 0.533566,1.66757 2.36111,1.90595 2.0356,0.272334 2.53597,0.878984 2.8447,-1.16633 l .2276,-1.5077 c 0.170685,-0.05689 0.398256,-0.11379 0.568934,-0.170677 0.682741,-0.170698 1.30857,-0.512052 1.87751,-0.85342 l 1.2232,.9387 c 1.47689,1.46797 1.70431,0.356375 2.8447,-1.0241 1.36434,-1.61341 2.00889,-1.66152 0.34136,-2.95849 l -1.2801,-.9956 c 0.227579,-0.625834 0.341361,-1.30855 0.341361,-2.04818 l 1.593,-.4552 c 2.04669,-0.584771 1.44164,-0.966117 0.910314,-2.75936 z  m -9.2737,5.661 c -1.59304,0.45515 -3.29985,-0.45515 -3.8119,-2.04819 -0.512045,-1.59303 0.45515,-3.29986 2.04819,-3.8119 1.59303,-0.455143 3.29985,0.455164 3.8119,2.04819 0.455156,1.59302 -0.455143,3.29985 -2.04818,3.8119 z "/>
<path style="fill:#e4e6e8;stroke-width:1.026" id="shape0" d="m 8.5743,36.5953 c 0,-1.04151 0,-2.08302 0,-3.1245 3.78411,-1.26467 7.56824,-2.52933 11.3524,-3.79399 0,0.737449 0,1.47489 0,2.21235 -3.0693,1.05119 -6.13859,2.10237 -9.20789,3.15357 3.0693,1.04795 6.13859,2.09592 9.20789,3.14386 0,0.734234 0,1.46847 0,2.2027 -3.78411,-1.26463 -7.56824,-2.52935 -11.3524,-3.79398 Z  m 12.4909,5.4047 c 1.07227,-4.93249 2.14443,-9.86498 3.2167,-14.7975 0.876927,0 1.75385,0 2.63078,0 -1.0538,4.9325 -2.10761,9.86499 -3.16141,14.7975 -0.895279,0 -1.79067,0 -2.68607,0 z  m 7.0082,-1.6107 c 0,-0.734233 0,-1.46847 0,-2.2027 3.06563,-1.04794 6.13126,-2.09591 9.19689,-3.14386 -3.06563,-1.05119 -6.13126,-2.10238 -9.19689,-3.15357 0,-0.737458 0,-1.4749 0,-2.21235 3.78415,1.26466 7.56818,2.52932 11.3523,3.79399 0,1.04149 0,2.08299 0,3.1245 -3.78415,1.26463 -7.56818,2.52935 -11.3523,3.79398 z "/>
</svg>
