<svg width="48" version="1.1" xmlns="http://www.w3.org/2000/svg" height="48">
<defs id="defs4"/>
<path style="fill:#ecf0f1" id="rect4090" d="m 4.5,5.6271 0,36.7458 39,0 0,-36.6555 -12.6176,-.0903 z "/>
<g style="fill:#2c3e50" id="layer1" transform="matrix(0.76474981,0,0,0.76474981,5.6460055,6.5899936)">
<path style="fill-rule:evenodd;stroke:none" id="path4145" d="m 23.9375,1.8438 c 0.269324,2.72355 0.667881,4.51772 1.6875,5.0625 1.11101,-0.317231 1.83501,-1.98251 2.65625,-4.59375 -0.288786,2.6788 -0.28301,4.48251 0.5625,5.25 1.12971,-0.125469 2.16113,-1.61983 3.46875,-3.96875 -0.828986,2.58675 -1.19881,4.363 -0.5,5.28125 1.13713,0.13634 2.44485,-1.08379 4.21875,-3.125 -1.33601,2.35061 -2.04989,4.01741 -1.5625,5.0625 1.08471,0.36307 2.63513,-0.562622 4.78125,-2.1875 -1.8814,2.13116 -2.95992,3.66712 -2.53125,4.8125 -0.677239,-0.914778 -0.744952,-1.01855 -1.125,-1.4375 -0.351139,-0.387071 -0.448302,-0.511697 -1.125,-1.125 -0.733235,-0.650074 -0.879065,-0.748694 -1.3125,-1.0625 -0.445188,-0.322306 -0.559025,-0.376784 -1.46875,-0.90625 -0.749491,-0.424132 -0.909149,-0.512263 -1.375,-0.71875 -0.488116,-0.216342 -0.635878,-0.288798 -1.5625,-0.59375 -0.833087,-0.265759 -0.999195,-0.299225 -1.5,-0.40625 -0.508406,-0.108643 -0.658355,-0.148549 -1.5625,-0.25 -1.03742,-0.104238 -1.20383,-0.09375 -1.75,-0.09375 -0.52302,0 -0.672309,0.00219 -1.59375,0.09375 -0.968745,0.108004 -1.1348,0.138573 -1.65625,0.25 -0.525201,0.112235 -0.64623,0.133844 -1.59375,0.4375 -0.815126,0.269503 -1.00314,0.356135 -1.46875,0.5625 -0.486466,0.215625 -0.626746,0.272107 -1.46875,0.75 -0.809583,0.472347 -0.948236,0.566036 -1.375,0.875 -0.426886,0.30907 -0.546335,0.407908 -1.25,1.03125 -0.706393,0.639649 -0.830812,0.763062 -1.1875,1.15625 -0.38005,0.418953 -0.447763,0.491472 -1.125,1.40625 0.428671,-1.14538 -0.6186,-2.65009 -2.5,-4.78125 2.14627,1.625 3.66528,2.55079 4.75,2.1875 0.487386,-1.04509 -0.226493,-2.71189 -1.5625,-5.0625 1.77499,2.04246 3.11241,3.26311 4.25,3.125 0.697602,-0.918596 0.32863,-2.69561 -0.5,-5.28125 1.30686,2.34756 2.3398,3.84181 3.46875,3.96875 0.847568,-0.766433 0.851519,-2.60029 0.5625,-5.28125 0.814848,2.59094 1.52848,4.25816 2.625,4.59375 1.00336,-0.558318 1.35759,-2.32695 1.625,-5.03125 z "/>
<path style="fill-rule:evenodd;stroke:none" id="path4143" d="m 23.875,8.25 c 2.79257,-0.040324 5.62894,0.74666 8.15625,2.46875 6.71534,4.51652 8.19092,13.731 3.9375,20.1562 -0.500403,0.755913 -0.498471,0.769469 -1.28125,1.59375 l -18.9062,-12.7812 c 0.328057,-0.892586 0.312941,-0.905333 0.90625,-1.8125 3.0346,-4.57322 8.48129,-4.99897 12.2188,-2.46875 3.17683,2.15068 4.7739,6.24969 3.1875,10.4062 0.608575,0.423375 1.23518,0.857873 1.84375,1.28125 1.37765,-2.96366 1.6835,-9.59501 -3.875,-13.4062 -5.28012,-3.52637 -11.9613,-2.01635 -15.1875,2.90625 -3.27904,4.90431 -2.2284,11.9039 3.09375,15.4688 3.46087,2.38114 7.94789,2.13762 11.7812,0.09375 l 1.7812,3.0625 c -3.55649,1.99598 -9.34154,3.82262 -15.5312,-0.3125 -7.07825,-4.84714 -8.06743,-13.9878 -3.96875,-20.2188 2.67691,-4.01913 7.18947,-6.37031 11.8438,-6.4375 Z "/>
<path style="fill-rule:evenodd;stroke:none" id="path1306" d="m 11.2812,32.0938 c 0.677238,0.914776 0.744949,1.01855 1.125,1.4375 0.356687,0.393188 0.449856,0.516599 1.15625,1.15625 0.703664,0.623342 0.854365,0.722187 1.28125,1.03125 0.419288,0.303555 0.540937,0.393055 1.3125,0.84375 0.883518,0.501977 1.03613,0.561793 1.53125,0.78125 0.469017,0.207878 0.637454,0.287863 1.46875,0.5625 0.928971,0.29752 1.07233,0.326073 1.59375,0.4375 0.519812,0.111087 0.664564,0.142841 1.625,0.25 0.931421,0.09266 1.0999,0.09375 1.625,0.09375 0.546127,0 0.681572,0.01048 1.71875,-0.09375 0.904145,-0.10145 1.08534,-0.141352 1.59375,-0.25 0.508884,-0.108749 0.661582,-0.159616 1.53125,-0.4375 0.889196,-0.293038 1.05043,-0.349392 1.53125,-0.5625 0.476157,-0.211055 0.611613,-0.299618 1.40625,-0.75 0.86021,-0.501206 1.00121,-0.559139 1.4375,-0.875 0.435003,-0.314947 0.540775,-0.405887 1.28125,-1.0625 0.669979,-0.607346 0.806394,-0.739342 1.15625,-1.125 0.380053,-0.418951 0.447761,-0.522723 1.125,-1.4375 -0.428674,1.14538 0.618599,2.68134 2.5,4.8125 -2.14612,-1.62488 -3.66529,-2.55057 -4.75,-2.1875 -0.487385,1.04508 0.226491,2.71189 1.5625,5.0625 -1.77436,-2.04173 -3.11268,-3.26207 -4.25,-3.125 -0.698814,0.918251 -0.328986,2.6945 0.5,5.28125 -1.30776,-2.34918 -2.33889,-3.84356 -3.46875,-3.96875 -0.84532,0.767594 -0.851263,2.57141 -0.5625,5.25 -0.821546,-2.61223 -1.54453,-4.27743 -2.65625,-4.59375 -1.01849,0.545731 -1.38706,2.34028 -1.65625,5.0625 -0.267545,-2.70563 -0.651775,-4.47386 -1.65625,-5.03125 -1.09597,0.336284 -1.8104,2.00359 -2.625,4.59375 0.289018,-2.68096 0.285066,-4.51482 -0.5625,-5.28125 -1.12896,0.126948 -2.16188,1.62119 -3.46875,3.96875 0.828784,-2.58612 1.19812,-4.3628 0.5,-5.28125 -1.13736,-0.137194 -2.44431,1.08318 -4.21875,3.125 1.33601,-2.35061 2.04989,-4.01741 1.5625,-5.0625 -1.08472,-0.363287 -2.63498,0.562502 -4.78125,2.1875 1.8814,-2.13116 2.95992,-3.66712 2.53125,-4.8125 z "/>
</g>
</svg>
