<svg width="48" version="1.1" xmlns="http://www.w3.org/2000/svg" height="48">
<g style="stroke:none" id="layer1" transform="translate(-180.23661,-689.8125)">
<rect width="39.000011" x="184.7366" y="695.43939" height="36.745777" style="fill:#5d00c8" id="rect824"/>
<path style="fill:#fff;fill-rule:evenodd" id="path4112" d="m 204.2386,704.8125 0,12.8359 c -0.54474,-0.50772 -1.2551,-0.83598 -2.00196,-0.83593 -1.5709,9e-05 -2.99804,1.42933 -2.99804,3 0,1.57067 1.42714,2.9999 2.99804,3 1.57091,9e-05 3.00196,-1.42916 3.00196,-3 v -10.6152 c 2.09244,1.25511 3.39648,3.55901 3.39648,6.01563 0,0.63161 -0.10429,1.25103 -0.28712,1.84765 0.56004,-0.98918 0.88672,-2.10262 0.88672,-3.24804 0,-1.83447 -0.62808,-3.58424 -1.92383,-4.875 -0.59781,-0.59552 -2.05044,-1.6979 -2.07226,-4.07422 v -0.0508 h -0.004 -0.99609 z "/>
<path style="fill:#fff" id="path4142" d="m 190.5276,724.4375 1.3984,0 1.0898,3.0234 1.0859,-3.0234 1.4023,0 -1.7227,4.375 -1.5351,0 -1.7188,-4.375 z "/>
<path style="fill:#fff" id="path4144" d="m 198.3792,725.332 q -0.46484,0 -0.71094,0.33594 -0.24218,0.33203 -0.24218,0.96094 0,0.6289 0.24218,0.96484 0.2461,0.33203 0.71094,0.33203 0.45703,0 0.69922,-0.33203 0.24219,-0.33594 0.24219,-0.96484 0,-0.62891 -0.24219,-0.96094 -0.24219,-0.33594 -0.69922,-0.33594 z  m 0,-1 q 1.12891,0 1.76172,0.60938 0.63672,0.60937 0.63672,1.6875 0,1.07812 -0.63672,1.6875 -0.63281,0.60937 -1.76172,0.60937 -1.13281,0 -1.77344,-0.60937 -0.63672,-0.60938 -0.63672,-1.6875 0,-1.07813 0.63672,-1.6875 0.64063,-0.60938 1.77344,-0.60938 z "/>
<path style="fill:#fff" id="path4146" d="m 205.0471,725.6289 q -0.18359,-0.0859 -0.36719,-0.125 -0.17969,-0.043 -0.36328,-0.043 -0.53906,0 -0.83203,0.34765 -0.28906,0.34375 -0.28906,0.98828 v 2.01563 h -1.39844 v -4.375 h 1.39844 v 0.71875 q 0.26953,-0.42969 0.61718,-0.625 0.35157,-0.19922 0.83985,-0.19922 0.0703,0 0.15234,0.008 0.082,0.004 0.23828,0.0234 l .004,1.2656 z "/>
<path style="fill:#fff" id="path4148" d="m 208.0784,727.9102 q 0.44922,0 0.68359,-0.32813 0.23828,-0.32812 0.23828,-0.95312 0,-0.625 -0.23828,-0.95313 -0.23437,-0.32812 -0.68359,-0.32812 -0.44922,0 -0.69141,0.33203 -0.23828,0.32812 -0.23828,0.94922 0,0.62109 0.23828,0.95312 0.24219,0.32813 0.69141,0.32813 z  m -.9297,-2.832 q 0.28906,-0.38281 0.64063,-0.5625 0.35156,-0.18359 0.80859,-0.18359 0.80859,0 1.32813,0.64453 0.51953,0.64063 0.51953,1.65235 0,1.01171 -0.51953,1.65625 -0.51954,0.64062 -1.32813,0.64062 -0.45703,0 -0.80859,-0.17969 -0.35157,-0.18359 -0.64063,-0.5664 v 0.63281 h -1.39844 v -6.07813 h 1.39844 v 2.34375 z "/>
<path style="fill:#fff" id="path4150" d="m 211.4846,724.4375 1.3984,0 0,4.375 -1.3984,0 0,-4.375 z  m 0,-1.7031 1.3984,0 0,1.1406 -1.3984,0 0,-1.1406 z "/>
<path style="fill:#fff" id="path4152" d="m 217.6526,724.5742 0,1.0625 q -0.44922,-0.1875 -0.86719,-0.28125 -0.41797,-0.0937 -0.78906,-0.0937 -0.39844,0 -0.59375,0.10156 -0.19141,0.0977 -0.19141,0.30469 0,0.16797 0.14453,0.25781 0.14844,0.0898 0.52735,0.13281 l .2461,.0352 q 1.07422,0.13672 1.44531,0.44922 0.3711,0.3125 0.3711,0.98047 0,0.69922 -0.51563,1.05078 -0.51562,0.35156 -1.53906,0.35156 -0.43359,0 -0.89844,-0.0703 -0.46094,-0.0664 -0.94922,-0.20313 v -1.0625 q 0.41797,0.20313 0.85547,0.30469 0.44141,0.10156 0.89453,0.10156 0.41016,0 0.61719,-0.11328 0.20703,-0.11328 0.20703,-0.33594 0,-0.1875 -0.14453,-0.27734 -0.14062,-0.0937 -0.56641,-0.14453 l -.2461,-.0312 q -0.93359,-0.11719 -1.30859,-0.43359 -0.375,-0.31641 -0.375,-0.96094 0,-0.69531 0.47656,-1.03125 0.47656,-0.33594 1.46094,-0.33594 0.38672,0 0.8125,0.0586 0.42578,0.0586 0.92578,0.1836 z "/>
</g>
</svg>
