<svg width="48" version="1.1" xmlns="http://www.w3.org/2000/svg" height="48">
<g style="stroke:none">
<rect width="39.000011" x="4.4999928" y="5.6268921" height="36.745777" style="fill:#3498db" id="rect824"/>
<path style="fill:#fff;fill-rule:evenodd" id="path4112" d="m 24.0026,12 0,17.1146 c -0.72631,-0.67696 -1.67347,-1.11464 -2.66927,-1.11457 -2.09453,0.00012 -3.99738,1.90577 -3.99738,3.99999 0,2.09423 1.90285,3.99987 3.99738,4 2.09455,0.00012 4.00261,-1.90554 4.00261,-4 v -14.1536 c 2.78992,1.67347 4.52864,4.74534 4.52864,8.02083 0,0.84214 -0.13906,1.66804 -0.38284,2.46353 0.74673,-1.31891 1.18229,-2.80349 1.18229,-4.33072 0,-2.44595 -0.83743,-4.77898 -2.5651,-6.49999 -0.79708,-0.79403 -2.73392,-2.26386 -2.76301,-5.43229 v -0.0677 h -0.005 -1.32811 z "/>
</g>
</svg>
