<svg width="48" version="1.1" xmlns="http://www.w3.org/2000/svg" height="48">
<g style="stroke:none">
<rect width="39" x="4.5" y="5.6271362" height="36.745777" style="fill:#8e44ad" id="rect824"/>
<g style="fill:#fff">
<path style="fill-rule:evenodd" id="path4112" d="m 24.0029,9.9998 v 15.6147 c -0.81743,-0.676961 -1.88339,-1.11464 -3.00412,-1.11458 -2.35727,0.00012 -4.49882,1.90578 -4.49882,4.00001 0,2.09423 2.14155,3.99987 4.49882,4 2.35729,0.00012 5.00496,-1.90555 5.00496,-4 v -12.6538 c 3.13989,1.67348 5.09672,3.74551 5.09672,7.02101 0,0.842147 -0.156497,1.66804 -0.430849,2.46354 0.84039,-1.31891 1.3306,-2.8035 1.3306,-4.33073 0,-2.44596 -0.942488,-3.77915 -2.88688,-5.50017 -0.897067,-0.794028 -3.07687,-2.26387 -3.10961,-5.4323 v -0.067733 h -0.006 -1.99497 z "/>
<path id="path4142" d="m 18.9199,35.3516 q 0.26563,-0.40625 0.62891,-0.61719 0.36719,-0.21484 0.80469,-0.21484 0.7539,0 1.14844,0.46484 0.39453,0.46485 0.39453,1.35157 v 2.66406 h -1.40625 v -2.28125 q 0.004,-0.0508 0.004,-0.10547 0.004,-0.0547 0.004,-0.15625 0,-0.46484 -0.13672,-0.67187 -0.13672,-0.21094 -0.44141,-0.21094 -0.39843,0 -0.61718,0.32812 -0.21485,0.32813 -0.22266,0.94922 v 2.14844 h -1.40625 v -2.28125 q 0,-0.72656 -0.125,-0.93359 -0.125,-0.21094 -0.44531,-0.21094 -0.40235,0 -0.6211,0.33203 -0.21875,0.32812 -0.21875,0.94141 v 2.15234 h -1.40625 v -4.375 h 1.40625 v 0.64062 q 0.25782,-0.37109 0.58985,-0.55859 0.33594,-0.1875 0.73828,-0.1875 0.45312,0 0.80078,0.21875 0.34766,0.21875 0.52734,0.61328 z "/>
<path id="path4144" d="m 24.60739,38.3672 v 2.2969 h -1.3984 V 34.625 h 1.3984 v 0.6406 q 0.28907,-0.38281 0.64063,-0.5625 0.35156,-0.18359 0.80859,-0.18359 0.8086,0 1.32813,0.64453 0.51953,0.64063 0.51953,1.65235 0,1.01171 -0.51953,1.65625 -0.51953,0.64062 -1.32813,0.64062 -0.45703,0 -0.80859,-0.17969 -0.35156,-0.18359 -0.64063,-0.5664 z m 0.9297,-2.832 q -0.44922,0 -0.6914,0.33203 -0.23829,0.32812 -0.23829,0.94922 0,0.62109 0.23829,0.95312 0.24218,0.32813 0.6914,0.32813 0.44922,0 0.6836,-0.32813 0.23828,-0.32812 0.23828,-0.95312 0,-0.625 -0.23828,-0.95313 -0.23438,-0.32812 -0.6836,-0.32812 z"/>
<path id="path4146" d="m 31.21679,34.4063 -1.6484,2.4414 h 1.6484 z m -0.25,-1.2383 h 1.6719 v 3.6797 h 0.832 v 1.0898 h -0.832 V 39 h -1.4219 v -1.0625 h -2.5859 v -1.2891 l 2.3359,-3.4805 z"/>
</g>
</g>
</svg>
