<svg width="48" version="1.1" xmlns="http://www.w3.org/2000/svg" height="48">
<g style="stroke:none">
<rect width="39" x="4.5" y="5.6268921" height="36.745777" style="fill:#3c3c3c" id="rect824"/>
<g style="fill:#fff">
<path style="fill-rule:evenodd" id="path4112" d="m 24.0029,9.9998 v 15.6147 c -0.81743,-0.676961 -1.88339,-1.11464 -3.00412,-1.11458 -2.35727,0.00012 -4.49882,1.90578 -4.49882,4.00001 0,2.09423 2.14155,3.99987 4.49882,4 2.35729,0.00012 5.00496,-1.90555 5.00496,-4 v -12.6538 c 3.13989,1.67348 5.09672,3.74551 5.09672,7.02101 0,0.842147 -0.156497,1.66804 -0.430849,2.46354 0.84039,-1.31891 1.3306,-2.8035 1.3306,-4.33073 0,-2.44596 -0.942488,-3.77915 -2.88688,-5.50017 -0.897067,-0.794028 -3.07687,-2.26387 -3.10961,-5.4323 v -0.067733 h -0.006 -1.99497 z "/>
<path id="path4142" d="m 18.94529,35.3516 q 0.26562,-0.40625 0.6289,-0.61719 0.36719,-0.21484 0.80469,-0.21484 0.75391,0 1.14844,0.46484 0.39453,0.46485 0.39453,1.35157 v 2.66406 H 20.5156 v -2.28125 q 0.004,-0.0508 0.004,-0.10547 0.004,-0.0547 0.004,-0.15625 0,-0.46484 -0.13672,-0.67187 -0.13672,-0.21094 -0.4414,-0.21094 -0.39844,0 -0.61719,0.32812 -0.21485,0.32813 -0.22266,0.94922 v 2.14844 h -1.40625 v -2.28125 q 0,-0.72656 -0.125,-0.93359 -0.125,-0.21094 -0.44531,-0.21094 -0.40234,0 -0.62109,0.33203 -0.21875,0.32812 -0.21875,0.94141 v 2.15234 h -1.40625 v -4.375 h 1.40625 v 0.64062 q 0.25781,-0.37109 0.58984,-0.55859 0.33594,-0.1875 0.73828,-0.1875 0.45313,0 0.80078,0.21875 0.34766,0.21875 0.52735,0.61328 z"/>
<path id="path4144" d="m 23.23439,34.625 h 1.3984 V 39 h -1.3984 z m 0,-1.7031 h 1.3984 v 1.1406 h -1.3984 z"/>
<path id="path4146" d="m 28.9609,35.2656 v -2.3438 h 1.4062 v 6.0781 h -1.4062 v -0.6328 q -0.28906,0.38672 -0.63672,0.5664 -0.34765,0.17969 -0.80469,0.17969 -0.80859,0 -1.32812,-0.64062 -0.51953,-0.64454 -0.51953,-1.65625 0,-1.01172 0.51953,-1.65235 0.51953,-0.64453 1.32812,-0.64453 0.45313,0 0.80079,0.18359 0.35156,0.17969 0.64062,0.5625 z  m -.9219,2.832 q 0.44921,0 0.68359,-0.32813 0.23828,-0.32812 0.23828,-0.95312 0,-0.625 -0.23828,-0.95313 -0.23438,-0.32812 -0.68359,-0.32812 -0.44532,0 -0.6836,0.32812 -0.23437,0.32813 -0.23437,0.95313 0,0.625 0.23437,0.95312 0.23828,0.32813 0.6836,0.32813 z "/>
<path id="path4148" d="m 31.71879,34.625 h 1.3984 V 39 h -1.3984 z m 0,-1.7031 h 1.3984 v 1.1406 h -1.3984 z"/>
</g>
</g>
</svg>
