<svg width="48" version="1.1" xmlns="http://www.w3.org/2000/svg" height="48">
<g style="stroke:none">
<rect width="42" x="3" y="3" height="42" style="fill:#666" id="rect824"/>
<g style="fill:#fff">
<path style="fill-rule:evenodd" id="path4112" d="m 24.0029,9.9998 v 15.6147 c -0.81743,-0.676961 -1.88339,-1.11464 -3.00412,-1.11458 -2.35727,0.00012 -4.49882,1.90578 -4.49882,4.00001 0,2.09423 2.14155,3.99987 4.49882,4 2.35729,0.00012 5.00496,-1.90555 5.00496,-4 v -12.6538 c 3.13989,1.67348 5.09672,3.74551 5.09672,7.02101 0,0.842147 -0.156497,1.66804 -0.430849,2.46354 0.84039,-1.31891 1.3306,-2.8035 1.3306,-4.33073 0,-2.44596 -0.942488,-3.77915 -2.88688,-5.50017 -0.897067,-0.794028 -3.07687,-2.26387 -3.10961,-5.4323 v -0.067733 h -0.006 -1.99497 z "/>
<path id="path4142" d="m 18.71289,37.0313 q -0.4375,0 -0.66015,0.14844 -0.21875,0.14843 -0.21875,0.4375 0,0.26562 0.17578,0.41797 0.17969,0.14843 0.49609,0.14843 0.39453,0 0.66406,-0.28125 0.26954,-0.28515 0.26954,-0.71093 V 37.0313 Z m 2.1367,-0.5273 v 2.4961 h -1.4101 v -0.6484 q -0.28125,0.39844 -0.63282,0.58203 -0.35156,0.17969 -0.85547,0.17969 -0.67968,0 -1.10546,-0.39453 -0.42188,-0.39844 -0.42188,-1.03125 0,-0.76953 0.52734,-1.12891 0.53125,-0.35937 1.66407,-0.35937 h 0.82422 v -0.10938 q 0,-0.33203 -0.26172,-0.48437 -0.26172,-0.15625 -0.81641,-0.15625 -0.44922,0 -0.83594,0.0898 -0.38672,0.0899 -0.71875,0.26953 v -1.0664 q 0.44922,-0.10938 0.90235,-0.16407 0.45312,-0.0586 0.90625,-0.0586 1.18359,0 1.70703,0.46875 0.52734,0.46484 0.52734,1.51563 z"/>
<path id="path4144" d="m 24.11909,37.0313 q -0.4375,0 -0.66015,0.14844 -0.21875,0.14843 -0.21875,0.4375 0,0.26562 0.17578,0.41797 0.17969,0.14843 0.49609,0.14843 0.39453,0 0.66406,-0.28125 0.26954,-0.28515 0.26954,-0.71093 V 37.0313 Z m 2.1367,-0.5273 v 2.4961 h -1.4101 v -0.6484 q -0.28125,0.39844 -0.63282,0.58203 -0.35156,0.17969 -0.85547,0.17969 -0.67968,0 -1.10546,-0.39453 -0.42188,-0.39844 -0.42188,-1.03125 0,-0.76953 0.52734,-1.12891 0.53125,-0.35937 1.66407,-0.35937 h 0.82422 v -0.10938 q 0,-0.33203 -0.26172,-0.48437 -0.26172,-0.15625 -0.81641,-0.15625 -0.44922,0 -0.83594,0.0898 -0.38672,0.0899 -0.71875,0.26953 v -1.0664 q 0.44922,-0.10938 0.90235,-0.16407 0.45312,-0.0586 0.90625,-0.0586 1.18359,0 1.70703,0.46875 0.52734,0.46484 0.52734,1.51563 z"/>
<path id="path4146" d="m 31.0996,34.7617 v 1.1406 q -0.28515,-0.19531 -0.57422,-0.28906 -0.28515,-0.0937 -0.59375,-0.0937 -0.58593,0 -0.91406,0.34375 -0.32422,0.33984 -0.32422,0.95313 0,0.61328 0.32422,0.95703 0.32813,0.33984 0.91406,0.33984 0.32813,0 0.6211,-0.0977 0.29687,-0.0977 0.54687,-0.28906 v 1.14453 q -0.32812,0.1211 -0.66797,0.17969 -0.33593,0.0625 -0.67578,0.0625 -1.18359,0 -1.85156,-0.60547 -0.66797,-0.60937 -0.66797,-1.6914 0,-1.08204 0.66797,-1.6875 0.66797,-0.60938 1.85156,-0.60938 0.34375,0 0.67578,0.0625 0.33594,0.0586 0.66797,0.17969 z "/>
</g>
</g>
</svg>
