<svg width="48" version="1.1" xmlns="http://www.w3.org/2000/svg" height="48">
<g style="stroke:none">
<rect width="39" x="4.5" y="5.6268921" height="36.745777" style="fill:#5d00c8" id="rect824"/>
<g style="fill:#fff">
<path style="fill-rule:evenodd" id="path4112" d="m 24.0029,9.9998 v 15.6147 c -0.81743,-0.676961 -1.88339,-1.11464 -3.00412,-1.11458 -2.35727,0.00012 -4.49882,1.90578 -4.49882,4.00001 0,2.09423 2.14155,3.99987 4.49882,4 2.35729,0.00012 5.00496,-1.90555 5.00496,-4 v -12.6538 c 3.13989,1.67348 5.09672,3.74551 5.09672,7.02101 0,0.842147 -0.156498,1.66804 -0.430849,2.46354 0.84039,-1.31891 1.3306,-2.8035 1.3306,-4.33073 0,-2.44596 -0.942488,-3.77915 -2.88688,-5.50017 -0.897067,-0.794028 -3.07687,-2.26387 -3.10961,-5.4323 v -0.067733 h -0.006 -1.99497 z "/>
<path id="path4142" d="m 10.29099,34.625 h 1.3984 l 1.0898,3.0234 1.0859,-3.0234 h 1.4023 L 13.54469,39 h -1.5351 l -1.7188,-4.375 z"/>
<path id="path4144" d="m 18.14259,35.5195 q -0.46484,0 -0.71094,0.33594 -0.24218,0.33203 -0.24218,0.96094 0,0.6289 0.24218,0.96484 0.2461,0.33203 0.71094,0.33203 0.45703,0 0.69922,-0.33203 0.24219,-0.33594 0.24219,-0.96484 0,-0.62891 -0.24219,-0.96094 -0.24219,-0.33594 -0.69922,-0.33594 z m 0,-1 q 1.12891,0 1.76172,0.60938 0.63672,0.60937 0.63672,1.6875 0,1.07812 -0.63672,1.6875 -0.63281,0.60937 -1.76172,0.60937 -1.13281,0 -1.77344,-0.60937 -0.63672,-0.60938 -0.63672,-1.6875 0,-1.07813 0.63672,-1.6875 0.64063,-0.60938 1.77344,-0.60938 z"/>
<path id="path4146" d="m 24.8105,35.8164 q -0.18359,-0.0859 -0.36719,-0.125 -0.17969,-0.043 -0.36328,-0.043 -0.53906,0 -0.83203,0.34765 -0.28906,0.34375 -0.28906,0.98828 v 2.01563 h -1.39844 v -4.375 h 1.39844 v 0.71875 q 0.26953,-0.42969 0.61718,-0.625 0.35157,-0.19922 0.83985,-0.19922 0.0703,0 0.15234,0.008 0.082,0.004 0.23828,0.0234 l .004,1.2656 z "/>
<path id="path4148" d="m 27.8418,38.0977 q 0.44922,0 0.68359,-0.32813 0.23828,-0.32812 0.23828,-0.95312 0,-0.625 -0.23828,-0.95313 -0.23437,-0.32812 -0.68359,-0.32812 -0.44922,0 -0.69141,0.33203 -0.23828,0.32812 -0.23828,0.94922 0,0.62109 0.23828,0.95312 0.24219,0.32813 0.69141,0.32813 z  m -.9297,-2.832 q 0.28906,-0.38281 0.64063,-0.5625 0.35156,-0.18359 0.80859,-0.18359 0.80859,0 1.32813,0.64453 0.51953,0.64063 0.51953,1.65235 0,1.01171 -0.51953,1.65625 -0.51954,0.64062 -1.32813,0.64062 -0.45703,0 -0.80859,-0.17969 -0.35157,-0.18359 -0.64063,-0.5664 v 0.63281 h -1.39844 v -6.07813 h 1.39844 z "/>
<path id="path4150" d="m 31.24799,34.625 h 1.3984 V 39 h -1.3984 z m 0,-1.7031 h 1.3984 v 1.1406 h -1.3984 z"/>
<path id="path4152" d="m 37.416,34.7617 v 1.0625 q -0.44922,-0.1875 -0.86719,-0.28125 -0.41797,-0.0937 -0.78906,-0.0937 -0.39844,0 -0.59375,0.10156 -0.19141,0.0977 -0.19141,0.30469 0,0.16797 0.14453,0.25781 0.14844,0.0898 0.52735,0.13281 l .2461,.0352 q 1.07422,0.13672 1.44531,0.44922 0.3711,0.3125 0.3711,0.98047 0,0.69922 -0.51563,1.05078 -0.51562,0.35156 -1.53906,0.35156 -0.43359,0 -0.89844,-0.0703 -0.46094,-0.0664 -0.94922,-0.20313 v -1.0625 q 0.41797,0.20313 0.85547,0.30469 0.44141,0.10156 0.89453,0.10156 0.41016,0 0.61719,-0.11328 0.20703,-0.11328 0.20703,-0.33594 0,-0.1875 -0.14453,-0.27734 -0.14062,-0.0937 -0.56641,-0.14453 l -.2461,-.0312 q -0.93359,-0.11719 -1.30859,-0.43359 -0.375,-0.31641 -0.375,-0.96094 0,-0.69531 0.47656,-1.03125 0.47656,-0.33594 1.46094,-0.33594 0.38672,0 0.8125,0.0586 0.42578,0.0586 0.92578,0.1836 z "/>
</g>
</g>
</svg>
