<svg width="48" version="1.1" xmlns="http://www.w3.org/2000/svg" height="48">
<g style="stroke:none">
<rect width="42" x="3" y="3" height="42" style="fill:#c80000" id="rect824"/>
<g style="fill:#fff">
<path style="fill-rule:evenodd" id="path4112" d="m 24.0029,9.9998 v 15.6147 c -0.81743,-0.676961 -1.88339,-1.11464 -3.00412,-1.11458 -2.35727,0.00012 -4.49882,1.90578 -4.49882,4.00001 0,2.09423 2.14155,3.99987 4.49882,4 2.35729,0.00012 5.00496,-1.90555 5.00496,-4 v -12.6538 c 3.13989,1.67348 5.09672,3.74551 5.09672,7.02101 0,0.842147 -0.156498,1.66804 -0.430849,2.46354 0.84039,-1.31891 1.3306,-2.8035 1.3306,-4.33073 0,-2.44596 -0.942488,-3.77915 -2.88688,-5.50017 -0.897067,-0.794028 -3.07687,-2.26387 -3.10961,-5.4323 v -0.067733 h -0.006 -1.99497 z "/>
<path id="path4142" d="m 15.1934,34.625 h 1.3594 l .7344,3.0156 .7383,-3.0156 h 1.168 l .7344,2.9844 .7383,-2.9844 h 1.3594 l -1.1523,4.375 h -1.5273 l -.7383,-3.0078 -.7344,3.0078 h -1.5273 l -1.1524,-4.375 z "/>
<path id="path4144" d="m 24.93549,37.0313 q -0.4375,0 -0.66016,0.14844 -0.21875,0.14843 -0.21875,0.4375 0,0.26562 0.17578,0.41797 0.17969,0.14843 0.4961,0.14843 0.39453,0 0.66406,-0.28125 0.26953,-0.28515 0.26953,-0.71093 V 37.0313 Z m 2.1367,-0.5273 v 2.4961 h -1.4102 v -0.6484 q -0.28125,0.39844 -0.63281,0.58203 -0.35156,0.17969 -0.85547,0.17969 -0.67969,0 -1.10547,-0.39453 -0.42187,-0.39844 -0.42187,-1.03125 0,-0.76953 0.52734,-1.12891 0.53125,-0.35937 1.66406,-0.35937 h 0.82422 v -0.10938 q 0,-0.33203 -0.26172,-0.48437 -0.26172,-0.15625 -0.8164,-0.15625 -0.44922,0 -0.83594,0.0898 -0.38672,0.0899 -0.71875,0.26953 v -1.0664 q 0.44922,-0.10938 0.90234,-0.16407 0.45313,-0.0586 0.90625,-0.0586 1.1836,0 1.70703,0.46875 0.52735,0.46484 0.52735,1.51563 z"/>
<path id="path4146" d="m 27.83009,34.625 h 1.3984 l 1.0898,3.0234 1.0859,-3.0234 h 1.4023 L 31.08389,39 h -1.5352 l -1.7188,-4.375 z"/>
</g>
</g>
</svg>
