<svg width="48" version="1.1" xmlns="http://www.w3.org/2000/svg" height="48">
<g style="stroke:none">
<rect width="42" x="3" y="3" height="42" style="fill:#1e72aa" id="rect824"/>
<g style="fill:#fff">
<path style="fill-rule:evenodd" id="path4112" d="m 24.0029,9.9998 10e-5,15.6147 c -0.81743,-0.676961 -1.88339,-1.11464 -3.00412,-1.11458 -2.35727,1.2e-4 -4.49882,1.90578 -4.49882,4.00001 0,2.09423 2.14155,3.99987 4.49882,4 2.35729,1.2e-4 5.00497,-1.90555 5.00496,-4 l -10e-5,-12.6538 c 3.13989,1.67348 5.09679,3.74551 5.09679,7.02101 0,0.842147 -0.156497,1.66804 -0.430849,2.46354 0.84039,-1.31891 1.3306,-2.8035 1.3306,-4.33073 0,-2.44596 -0.942564,-3.77915 -2.88695,-5.50017 -0.897067,-0.794028 -3.07687,-2.26387 -3.10961,-5.4323 V 9.999747 h -0.006 -1.99497 z"/>
<path id="path4147" d="m 13.8887,34.625 h 1.3594 l 0.7344,3.0156 0.7383,-3.0156 h 1.168 l 0.7344,2.9844 0.7383,-2.9844 h 1.3594 L 19.5685,39 H 18.0412 L 17.3029,35.9922 16.5685,39 h -1.5273 l -1.1524,-4.375 z"/>
<path id="path4149" d="m 25.72459,35.3516 q 0.26563,-0.40625 0.62891,-0.61719 0.36719,-0.21484 0.80469,-0.21484 0.7539,0 1.14843,0.46484 0.39453,0.46485 0.39453,1.35157 v 2.66406 H 27.2949 v -2.28125 q 0.004,-0.0508 0.004,-0.10547 0.004,-0.0547 0.004,-0.15625 0,-0.46484 -0.13672,-0.67187 -0.13672,-0.21094 -0.44141,-0.21094 -0.39844,0 -0.61719,0.32812 -0.21484,0.32813 -0.22265,0.94922 v 2.14844 h -1.40625 v -2.28125 q 0,-0.72656 -0.125,-0.93359 -0.125,-0.21094 -0.44531,-0.21094 -0.40235,0 -0.6211,0.33203 -0.21875,0.32812 -0.21875,0.94141 v 2.15234 h -1.40625 v -4.375 h 1.40625 v 0.64062 q 0.25781,-0.37109 0.58985,-0.55859 0.33593,-0.1875 0.73828,-0.1875 0.45312,0 0.80078,0.21875 0.34765,0.21875 0.52734,0.61328 z"/>
<path id="path4151" d="m 31.97459,37.0313 q -0.4375,0 -0.66015,0.14844 -0.21875,0.14843 -0.21875,0.4375 0,0.26562 0.17578,0.41797 0.17968,0.14843 0.49609,0.14843 0.39453,0 0.66406,-0.28125 0.26953,-0.28515 0.26953,-0.71093 V 37.0313 Z m 2.1367,-0.5273 v 2.4961 h -1.4102 v -0.6484 q -0.28125,0.39844 -0.63281,0.58203 -0.35156,0.17969 -0.85547,0.17969 -0.67968,0 -1.10547,-0.39453 -0.42187,-0.39844 -0.42187,-1.03125 0,-0.76953 0.52734,-1.12891 0.53125,-0.35937 1.66407,-0.35937 h 0.82421 v -0.10938 q 0,-0.33203 -0.26171,-0.48437 -0.26172,-0.15625 -0.81641,-0.15625 -0.44922,0 -0.83594,0.0898 -0.38672,0.0899 -0.71875,0.26953 v -1.0664 q 0.44922,-0.10938 0.90235,-0.16407 0.45312,-0.0586 0.90625,-0.0586 1.18359,0 1.70703,0.46875 0.52734,0.46484 0.52734,1.51563 z"/>
</g>
<g style="color:#000" id="g3002" transform="matrix(0.65217391,0,0,0.65217391,-5.1521739,-2.1521739)">
<path style="fill:#f00" id="rect3773" d="m 12.5,7.9 h 11 v 11 h -11 z"/>
<path style="fill:#51ff00" id="rect3775" d="m 24.5,7.9 h 11 v 11 h -11 z"/>
<path style="fill:#91c7ff" id="rect3777" d="m 12.5,19.9 h 11 v 11 h -11 z"/>
<path style="fill:#fffd00" id="rect3779" d="m 24.5,19.9 h 11 v 11 h -11 z"/>
</g>
</g>
</svg>
