<svg width="48" version="1.1" xmlns="http://www.w3.org/2000/svg" height="48">
<g style="stroke:none" id="layer1" transform="translate(-180.23661,-689.8125)">
<rect width="39.000011" x="184.7366" y="695.43939" height="36.745777" style="fill:#2c3e50" id="rect824"/>
<path style="fill:#fff;fill-rule:evenodd" id="path4112" d="m 204.2386,704.8125 0,12.8359 c -0.54474,-0.50772 -1.2551,-0.83598 -2.00196,-0.83593 -1.5709,9e-05 -2.99804,1.42933 -2.99804,3 0,1.57067 1.42714,2.9999 2.99804,3 1.57091,9e-05 3.00196,-1.42916 3.00196,-3 v -10.6152 c 2.09244,1.25511 3.39648,3.55901 3.39648,6.01563 0,0.63161 -0.10429,1.25103 -0.28712,1.84765 0.56004,-0.98918 0.88672,-2.10262 0.88672,-3.24804 0,-1.83447 -0.62808,-3.58424 -1.92383,-4.875 -0.59781,-0.59552 -2.05044,-1.6979 -2.07226,-4.07422 v -0.0508 h -0.004 -0.99609 z "/>
<path style="fill:#fff" id="path4142" d="m 199.1546,726.8438 q -0.4375,0 -0.66015,0.14844 -0.21875,0.14843 -0.21875,0.4375 0,0.26562 0.17578,0.41797 0.17968,0.14843 0.49609,0.14843 0.39453,0 0.66406,-0.28125 0.26953,-0.28515 0.26953,-0.71093 v -0.16016 h -0.72656 z  m 2.1367,-.5273 0,2.4961 -1.4102,0 0,-.6484 q -0.28125,0.39844 -0.63281,0.58203 -0.35156,0.17969 -0.85547,0.17969 -0.67968,0 -1.10547,-0.39453 -0.42187,-0.39844 -0.42187,-1.03125 0,-0.76953 0.52734,-1.12891 0.53125,-0.35937 1.66407,-0.35937 h 0.82421 v -0.10938 q 0,-0.33203 -0.26171,-0.48437 -0.26172,-0.15625 -0.81641,-0.15625 -0.44922,0 -0.83594,0.0898 -0.38672,0.0899 -0.71875,0.26953 v -1.0664 q 0.44922,-0.10938 0.90235,-0.16407 0.45312,-0.0586 0.90625,-0.0586 1.18359,0 1.70703,0.46875 0.52734,0.46484 0.52734,1.51563 z "/>
<path style="fill:#fff" id="path4144" d="m 206.135,724.5742 0,1.1406 q -0.28516,-0.19531 -0.57422,-0.28906 -0.28515,-0.0937 -0.59375,-0.0937 -0.58594,0 -0.91406,0.34375 -0.32422,0.33984 -0.32422,0.95313 0,0.61328 0.32422,0.95703 0.32812,0.33984 0.91406,0.33984 0.32813,0 0.6211,-0.0977 0.29687,-0.0977 0.54687,-0.28906 v 1.14453 q -0.32812,0.1211 -0.66797,0.17969 -0.33594,0.0625 -0.67578,0.0625 -1.18359,0 -1.85156,-0.60547 -0.66797,-0.60937 -0.66797,-1.6914 0,-1.08204 0.66797,-1.6875 0.66797,-0.60938 1.85156,-0.60938 0.34375,0 0.67578,0.0625 0.33594,0.0586 0.66797,0.17969 z "/>
<path style="fill:#fff" id="path4146" d="m 210.4046,725.668 q 0.58985,0.15234 0.89453,0.53125 0.3086,0.375 0.3086,0.95703 0,0.86719 -0.66407,1.32031 -0.66406,0.44922 -1.9375,0.44922 -0.44921,0 -0.90234,-0.0742 -0.44922,-0.0703 -0.89062,-0.21484 v -1.16016 q 0.42187,0.21094 0.83593,0.32031 0.41797,0.10547 0.82032,0.10547 0.59765,0 0.91406,-0.20703 0.32031,-0.20703 0.32031,-0.59375 0,-0.39844 -0.32812,-0.60156 -0.32422,-0.20703 -0.96094,-0.20703 h -0.60156 v -0.96875 h 0.63281 q 0.5664,0 0.84375,-0.17578 0.27734,-0.17969 0.27734,-0.54297 0,-0.33594 -0.26953,-0.51953 -0.26953,-0.1836 -0.76172,-0.1836 -0.36328,0 -0.73437,0.082 -0.3711,0.082 -0.73828,0.24219 v -1.10156 q 0.44531,-0.125 0.88281,-0.1875 0.4375,-0.0625 0.85937,-0.0625 1.13672,0 1.69922,0.375 0.56641,0.37109 0.56641,1.12109 0,0.51172 -0.26953,0.83985 -0.26953,0.32422 -0.79688,0.45703 z "/>
</g>
</svg>
