<svg width="48" version="1.1" xmlns="http://www.w3.org/2000/svg" height="48">
<g style="stroke:none" id="layer1" transform="translate(-180.23661,-689.8125)">
<rect width="39.000011" x="184.7366" y="695.43939" height="36.745777" style="fill:#5d00c8" id="rect824"/>
<path style="fill:#fff;fill-rule:evenodd" id="path4112" d="m 204.2386,704.8125 0,12.8359 c -0.54474,-0.50772 -1.2551,-0.83598 -2.00196,-0.83593 -1.5709,9e-05 -2.99804,1.42933 -2.99804,3 0,1.57067 1.42714,2.9999 2.99804,3 1.57091,9e-05 3.00196,-1.42916 3.00196,-3 v -10.6152 c 2.09244,1.25511 3.39648,3.55901 3.39648,6.01563 0,0.63161 -0.10429,1.25103 -0.28712,1.84765 0.56004,-0.98918 0.88672,-2.10262 0.88672,-3.24804 0,-1.83447 -0.62808,-3.58424 -1.92383,-4.875 -0.59781,-0.59552 -2.05044,-1.6979 -2.07226,-4.07422 v -0.0508 h -0.004 -0.99609 z "/>
<path style="fill:#fff" id="path4142" d="m 198.6741,725.332 q -0.46484,0 -0.71093,0.33594 -0.24219,0.33203 -0.24219,0.96094 0,0.6289 0.24219,0.96484 0.24609,0.33203 0.71093,0.33203 0.45703,0 0.69922,-0.33203 0.24219,-0.33594 0.24219,-0.96484 0,-0.62891 -0.24219,-0.96094 -0.24219,-0.33594 -0.69922,-0.33594 z  m 0,-1 q 1.12891,0 1.76172,0.60938 0.63672,0.60937 0.63672,1.6875 0,1.07812 -0.63672,1.6875 -0.63281,0.60937 -1.76172,0.60937 -1.13281,0 -1.77343,-0.60937 -0.63672,-0.60938 -0.63672,-1.6875 0,-1.07813 0.63672,-1.6875 0.64062,-0.60938 1.77343,-0.60938 z "/>
<path style="fill:#fff" id="path4144" d="m 205.0686,728.0703 q -0.28906,0.38281 -0.63671,0.5625 -0.34766,0.17969 -0.80469,0.17969 -0.80078,0 -1.32422,-0.62891 -0.52344,-0.63281 -0.52344,-1.60937 0,-0.98047 0.52344,-1.60547 0.52344,-0.62891 1.32422,-0.62891 0.45703,0 0.80469,0.17969 0.34765,0.17969 0.63671,0.56641 v -0.64844 h 1.40625 v 3.93359 q 0,1.05469 -0.66796,1.60938 -0.66407,0.55859 -1.92969,0.55859 -0.41016,0 -0.79297,-0.0625 -0.38281,-0.0625 -0.76953,-0.1914 v -1.08985 q 0.36719,0.21094 0.71875,0.3125 0.35156,0.10547 0.70703,0.10547 0.6875,0 1.00781,-0.30078 0.32031,-0.30078 0.32031,-0.94141 v -0.30078 z  m -.9219,-2.7227 q -0.43359,0 -0.67578,0.32031 -0.24219,0.32031 -0.24219,0.90625 0,0.60156 0.23438,0.91406 0.23437,0.30859 0.68359,0.30859 0.4375,0 0.67969,-0.32031 0.24218,-0.32031 0.24218,-0.90234 0,-0.58594 -0.24218,-0.90625 -0.24219,-0.32031 -0.67969,-0.32031 z "/>
<path style="fill:#fff" id="path4146" d="m 210.803,728.0703 q -0.28906,0.38281 -0.63672,0.5625 -0.34766,0.17969 -0.80469,0.17969 -0.80078,0 -1.32422,-0.62891 -0.52343,-0.63281 -0.52343,-1.60937 0,-0.98047 0.52343,-1.60547 0.52344,-0.62891 1.32422,-0.62891 0.45703,0 0.80469,0.17969 0.34766,0.17969 0.63672,0.56641 v -0.64844 h 1.40625 v 3.93359 q 0,1.05469 -0.66797,1.60938 -0.66406,0.55859 -1.92969,0.55859 -0.41015,0 -0.79297,-0.0625 -0.38281,-0.0625 -0.76953,-0.1914 v -1.08985 q 0.36719,0.21094 0.71875,0.3125 0.35157,0.10547 0.70703,0.10547 0.6875,0 1.00782,-0.30078 0.32031,-0.30078 0.32031,-0.94141 v -0.30078 z  m -.9219,-2.7227 q -0.43359,0 -0.67578,0.32031 -0.24218,0.32031 -0.24218,0.90625 0,0.60156 0.23437,0.91406 0.23438,0.30859 0.68359,0.30859 0.4375,0 0.67969,-0.32031 0.24219,-0.32031 0.24219,-0.90234 0,-0.58594 -0.24219,-0.90625 -0.24219,-0.32031 -0.67969,-0.32031 z "/>
</g>
</svg>
