<svg width="48" version="1.1" xmlns="http://www.w3.org/2000/svg" height="48">
<g style="stroke:none">
<rect width="42" x="3" y="3" height="42" style="fill:#2c3e50" id="rect824"/>
<g style="fill:#fff">
<path style="fill-rule:evenodd" id="path4112" d="m 24.0029,9.9998 v 15.6147 c -0.81743,-0.676961 -1.88339,-1.11464 -3.00412,-1.11458 -2.35727,0.00012 -4.49882,1.90578 -4.49882,4.00001 0,2.09423 2.14155,3.99987 4.49882,4 2.35729,0.00012 5.00496,-1.90555 5.00496,-4 v -12.6538 c 3.13989,1.67348 5.09672,3.74551 5.09672,7.02101 0,0.842147 -0.156497,1.66804 -0.430849,2.46354 0.84039,-1.31891 1.3306,-2.8035 1.3306,-4.33073 0,-2.44596 -0.942488,-3.77915 -2.88688,-5.50017 -0.897067,-0.794028 -3.07687,-2.26387 -3.10961,-5.4323 v -0.067733 h -0.006 -1.99497 z "/>
<path id="path4142" d="m 18.918,37.0313 q -0.4375,0 -0.66015,0.14844 -0.21875,0.14843 -0.21875,0.4375 0,0.26562 0.17578,0.41797 0.17968,0.14843 0.49609,0.14843 0.39453,0 0.66406,-0.28125 0.26953,-0.28515 0.26953,-0.71093 v -0.16016 Z  m 2.1367,-.5273 v 2.4961 h -1.4102 v -0.6484 q -0.28125,0.39844 -0.63281,0.58203 -0.35156,0.17969 -0.85547,0.17969 -0.67968,0 -1.10547,-0.39453 -0.42187,-0.39844 -0.42187,-1.03125 0,-0.76953 0.52734,-1.12891 0.53125,-0.35937 1.66407,-0.35937 h 0.82421 v -0.10938 q 0,-0.33203 -0.26171,-0.48437 -0.26172,-0.15625 -0.81641,-0.15625 -0.44922,0 -0.83594,0.0898 -0.38672,0.0899 -0.71875,0.26953 v -1.0664 q 0.44922,-0.10938 0.90235,-0.16407 0.45312,-0.0586 0.90625,-0.0586 1.18359,0 1.70703,0.46875 0.52734,0.46484 0.52734,1.51563 z "/>
<path id="path4144" d="m 25.8984,34.7617 v 1.1406 q -0.28516,-0.19531 -0.57422,-0.28906 -0.28515,-0.0937 -0.59375,-0.0937 -0.58594,0 -0.91406,0.34375 -0.32422,0.33984 -0.32422,0.95313 0,0.61328 0.32422,0.95703 0.32812,0.33984 0.91406,0.33984 0.32813,0 0.6211,-0.0977 0.29687,-0.0977 0.54687,-0.28906 v 1.14453 q -0.32812,0.1211 -0.66797,0.17969 -0.33594,0.0625 -0.67578,0.0625 -1.18359,0 -1.85156,-0.60547 -0.66797,-0.60937 -0.66797,-1.6914 0,-1.08204 0.66797,-1.6875 0.66797,-0.60938 1.85156,-0.60938 0.34375,0 0.67578,0.0625 0.33594,0.0586 0.66797,0.17969 z "/>
<path id="path4146" d="m 30.168,35.8555 q 0.58985,0.15234 0.89453,0.53125 0.3086,0.375 0.3086,0.95703 0,0.86719 -0.66407,1.32031 -0.66406,0.44922 -1.9375,0.44922 -0.44921,0 -0.90234,-0.0742 -0.44922,-0.0703 -0.89062,-0.21484 v -1.16016 q 0.42187,0.21094 0.83593,0.32031 0.41797,0.10547 0.82032,0.10547 0.59765,0 0.91406,-0.20703 0.32031,-0.20703 0.32031,-0.59375 0,-0.39844 -0.32812,-0.60156 -0.32422,-0.20703 -0.96094,-0.20703 h -0.60156 v -0.96875 h 0.63281 q 0.5664,0 0.84375,-0.17578 0.27734,-0.17969 0.27734,-0.54297 0,-0.33594 -0.26953,-0.51953 -0.26953,-0.1836 -0.76172,-0.1836 -0.36328,0 -0.73437,0.082 -0.3711,0.082 -0.73828,0.24219 v -1.10156 q 0.44531,-0.125 0.88281,-0.1875 0.4375,-0.0625 0.85937,-0.0625 1.13672,0 1.69922,0.375 0.56641,0.37109 0.56641,1.12109 0,0.51172 -0.26953,0.83985 -0.26953,0.32422 -0.79688,0.45703 z "/>
</g>
</g>
</svg>
