<svg width="48" version="1.1" xmlns="http://www.w3.org/2000/svg" height="48">
<g style="stroke:none" id="layer1" transform="translate(-180.23661,-689.8125)">
<rect width="39.000011" x="184.7366" y="695.43939" height="36.745777" style="fill:#5d00c8" id="rect824"/>
<path style="fill:#fff;fill-rule:evenodd" id="path4112" d="m 204.2386,704.8125 0,12.8359 c -0.54474,-0.50772 -1.2551,-0.83598 -2.00196,-0.83593 -1.5709,9e-05 -2.99804,1.42933 -2.99804,3 0,1.57067 1.42714,2.9999 2.99804,3 1.57091,9e-05 3.00196,-1.42916 3.00196,-3 v -10.6152 c 2.09244,1.25511 3.39648,3.55901 3.39648,6.01563 0,0.63161 -0.10429,1.25103 -0.28712,1.84765 0.56004,-0.98918 0.88672,-2.10262 0.88672,-3.24804 0,-1.83447 -0.62808,-3.58424 -1.92383,-4.875 -0.59781,-0.59552 -2.05044,-1.6979 -2.07226,-4.07422 v -0.0508 h -0.004 -0.99609 z "/>
<path style="fill:#fff" id="path4142" d="m 194.928,724.5742 0,1.0625 q -0.44922,-0.1875 -0.86719,-0.28125 -0.41797,-0.0937 -0.78906,-0.0937 -0.39844,0 -0.59375,0.10156 -0.19141,0.0977 -0.19141,0.30469 0,0.16797 0.14453,0.25781 0.14844,0.0898 0.52735,0.13281 l .2461,.0352 q 1.07422,0.13672 1.44531,0.44922 0.3711,0.3125 0.3711,0.98047 0,0.69922 -0.51563,1.05078 -0.51562,0.35156 -1.53906,0.35156 -0.43359,0 -0.89844,-0.0703 -0.46093,-0.0664 -0.94922,-0.20313 v -1.0625 q 0.41797,0.20313 0.85547,0.30469 0.44141,0.10156 0.89453,0.10156 0.41016,0 0.61719,-0.11328 0.20703,-0.11328 0.20703,-0.33594 0,-0.1875 -0.14453,-0.27734 -0.14062,-0.0937 -0.5664,-0.14453 l -.2461,-.0312 q -0.93359,-0.11719 -1.30859,-0.43359 -0.375,-0.31641 -0.375,-0.96094 0,-0.69531 0.47656,-1.03125 0.47656,-0.33594 1.46094,-0.33594 0.38672,0 0.8125,0.0586 0.42578,0.0586 0.92578,0.1836 z "/>
<path style="fill:#fff" id="path4144" d="m 197.6741,728.1797 0,2.2969 -1.3984,0 0,-6.0391 1.3984,0 0,.6406 q 0.28907,-0.38281 0.64063,-0.5625 0.35156,-0.18359 0.80859,-0.18359 0.8086,0 1.32813,0.64453 0.51953,0.64063 0.51953,1.65235 0,1.01171 -0.51953,1.65625 -0.51953,0.64062 -1.32813,0.64062 -0.45703,0 -0.80859,-0.17969 -0.35156,-0.18359 -0.64063,-0.5664 z  m .9297,-2.832 q -0.44922,0 -0.69141,0.33203 -0.23828,0.32812 -0.23828,0.94922 0,0.62109 0.23828,0.95312 0.24219,0.32813 0.69141,0.32813 0.44922,0 0.68359,-0.32813 0.23829,-0.32812 0.23829,-0.95312 0,-0.625 -0.23829,-0.95313 -0.23437,-0.32812 -0.68359,-0.32812 z "/>
<path style="fill:#fff" id="path4146" d="m 206.3772,726.6133 0,.3984 -3.2695,0 q 0.0508,0.49219 0.35547,0.73828 0.30468,0.24609 0.85156,0.24609 0.4414,0 0.90234,-0.1289 0.46485,-0.13282 0.95313,-0.39844 v 1.07812 q -0.4961,0.1875 -0.99219,0.28125 -0.49609,0.0977 -0.99219,0.0977 -1.1875,0 -1.84765,-0.60156 -0.65625,-0.60547 -0.65625,-1.69531 0,-1.07032 0.64453,-1.6836 0.64843,-0.61328 1.78125,-0.61328 1.03125,0 1.64843,0.62109 0.6211,0.6211 0.6211,1.66016 z  m -1.4375,-.4648 q 0,-0.39844 -0.23438,-0.64063 -0.23047,-0.24609 -0.60547,-0.24609 -0.40625,0 -0.66015,0.23047 -0.25391,0.22656 -0.31641,0.65625 h 1.81641 z "/>
<path style="fill:#fff" id="path4148" d="m 211.7991,726.6133 0,.3984 -3.2695,0 q 0.0508,0.49219 0.35547,0.73828 0.30469,0.24609 0.85156,0.24609 0.44141,0 0.90235,-0.1289 0.46484,-0.13282 0.95312,-0.39844 v 1.07812 q -0.49609,0.1875 -0.99219,0.28125 -0.49609,0.0977 -0.99218,0.0977 -1.1875,0 -1.84766,-0.60156 -0.65625,-0.60547 -0.65625,-1.69531 0,-1.07032 0.64453,-1.6836 0.64844,-0.61328 1.78125,-0.61328 1.03125,0 1.64844,0.62109 0.62109,0.6211 0.62109,1.66016 z  m -1.4375,-.4648 q 0,-0.39844 -0.23437,-0.64063 -0.23047,-0.24609 -0.60547,-0.24609 -0.40625,0 -0.66016,0.23047 -0.2539,0.22656 -0.3164,0.65625 h 1.8164 z "/>
<path style="fill:#fff" id="path4150" d="m 213.9593,726.5742 -1.5781,-2.1367 1.4805,0 .8945,1.2969 .9062,-1.2969 1.4805,0 -1.5781,2.1289 1.6562,2.2461 -1.4805,0 -.9844,-1.3828 -.9726,1.3828 -1.4805,0 1.6562,-2.2383 z "/>
</g>
</svg>
