<svg width="48" version="1.1" xmlns="http://www.w3.org/2000/svg" height="48">
<g style="stroke:none" id="layer1" transform="translate(-180.23661,-689.8125)">
<rect width="39.000011" x="184.7366" y="695.43964" height="36.745777" style="fill:#1e72aa" id="rect824"/>
<path style="fill:#fff;fill-rule:evenodd" id="path4112" d="m 204.2386,704.8125 0,12.8359 c -0.54474,-0.50772 -1.2551,-0.83598 -2.00196,-0.83593 -1.5709,9e-05 -2.99804,1.42933 -2.99804,3 0,1.57067 1.42714,2.9999 2.99804,3 1.57091,9e-05 3.00196,-1.42916 3.00196,-3 v -10.6152 c 2.09244,1.25511 3.39648,3.55901 3.39648,6.01563 0,0.63161 -0.10429,1.25103 -0.28712,1.84765 0.56004,-0.98918 0.88672,-2.10262 0.88672,-3.24804 0,-1.83447 -0.62808,-3.58424 -1.92383,-4.875 -0.59781,-0.59552 -2.05044,-1.6979 -2.07226,-4.07422 v -0.0508 h -0.004 -0.99609 z "/>
<path style="fill:#fff" id="path4147" d="m 194.1253,724.4375 1.3594,0 .7344,3.0156 .7383,-3.0156 1.168,0 .7344,2.9844 .7383,-2.9844 1.3594,0 -1.1524,4.375 -1.5273,0 -.7383,-3.0078 -.7344,3.0078 -1.5273,0 -1.1524,-4.375 z "/>
<path style="fill:#fff" id="path4149" d="m 205.9612,725.1641 q 0.26563,-0.40625 0.62891,-0.61719 0.36719,-0.21484 0.80469,-0.21484 0.7539,0 1.14843,0.46484 0.39453,0.46485 0.39453,1.35157 v 2.66406 h -1.40625 v -2.28125 q 0.004,-0.0508 0.004,-0.10547 0.004,-0.0547 0.004,-0.15625 0,-0.46484 -0.13672,-0.67187 -0.13672,-0.21094 -0.44141,-0.21094 -0.39844,0 -0.61719,0.32812 -0.21484,0.32813 -0.22265,0.94922 v 2.14844 h -1.40625 v -2.28125 q 0,-0.72656 -0.125,-0.93359 -0.125,-0.21094 -0.44531,-0.21094 -0.40235,0 -0.6211,0.33203 -0.21875,0.32812 -0.21875,0.94141 v 2.15234 h -1.40625 v -4.375 h 1.40625 v 0.64062 q 0.25781,-0.37109 0.58985,-0.55859 0.33593,-0.1875 0.73828,-0.1875 0.45312,0 0.80078,0.21875 0.34765,0.21875 0.52734,0.61328 z "/>
<path style="fill:#fff" id="path4151" d="m 212.2112,726.8438 q -0.4375,0 -0.66015,0.14844 -0.21875,0.14843 -0.21875,0.4375 0,0.26562 0.17578,0.41797 0.17968,0.14843 0.49609,0.14843 0.39453,0 0.66406,-0.28125 0.26953,-0.28515 0.26953,-0.71093 v -0.16016 h -0.72656 z  m 2.1367,-.5273 0,2.4961 -1.4102,0 0,-.6484 q -0.28125,0.39844 -0.63281,0.58203 -0.35156,0.17969 -0.85547,0.17969 -0.67968,0 -1.10547,-0.39453 -0.42187,-0.39844 -0.42187,-1.03125 0,-0.76953 0.52734,-1.12891 0.53125,-0.35937 1.66407,-0.35937 h 0.82421 v -0.10938 q 0,-0.33203 -0.26171,-0.48437 -0.26172,-0.15625 -0.81641,-0.15625 -0.44922,0 -0.83594,0.0898 -0.38672,0.0899 -0.71875,0.26953 v -1.0664 q 0.44922,-0.10938 0.90235,-0.16407 0.45312,-0.0586 0.90625,-0.0586 1.18359,0 1.70703,0.46875 0.52734,0.46484 0.52734,1.51563 z "/>
<g style="color:#000" id="g3002" transform="matrix(0.55543478,0,0,0.55543478,177.80572,688.4967)">
<path style="fill:#f00" id="rect3773" d="m 12.5,12.5 11,0 0,11 -11,0 0,-11 z"/>
<path style="fill:#51ff00" id="rect3775" d="m 24.5,12.5 11,0 0,11 -11,0 0,-11 z"/>
<path style="fill:#91c7ff" id="rect3777" d="m 12.5,24.5 11,0 0,11 -11,0 0,-11 z"/>
<path style="fill:#fffd00" id="rect3779" d="m 24.5,24.5 11,0 0,11 -11,0 0,-11 z"/>
</g>
</g>
</svg>
