<svg width="48" version="1.1" xmlns="http://www.w3.org/2000/svg" height="48">
<g style="stroke:none" id="layer1" transform="translate(-180.23661,-689.8125)">
<rect width="39.000011" x="184.7366" y="695.43939" height="36.745777" style="fill:#3c3c3c" id="rect824"/>
<path style="fill:#fff;fill-rule:evenodd" id="path4112" d="m 204.2386,704.8125 0,12.8359 c -0.54474,-0.50772 -1.2551,-0.83598 -2.00196,-0.83593 -1.5709,9e-05 -2.99804,1.42933 -2.99804,3 0,1.57067 1.42714,2.9999 2.99804,3 1.57091,9e-05 3.00196,-1.42916 3.00196,-3 v -10.6152 c 2.09244,1.25511 3.39648,3.55901 3.39648,6.01563 0,0.63161 -0.10429,1.25103 -0.28712,1.84765 0.56004,-0.98918 0.88672,-2.10262 0.88672,-3.24804 0,-1.83447 -0.62808,-3.58424 -1.92383,-4.875 -0.59781,-0.59552 -2.05044,-1.6979 -2.07226,-4.07422 v -0.0508 h -0.004 -0.99609 z "/>
<path style="fill:#fff" id="path4142" d="m 199.1819,725.1641 q 0.26562,-0.40625 0.6289,-0.61719 0.36719,-0.21484 0.80469,-0.21484 0.75391,0 1.14844,0.46484 0.39453,0.46485 0.39453,1.35157 v 2.66406 h -1.40625 v -2.28125 q 0.004,-0.0508 0.004,-0.10547 0.004,-0.0547 0.004,-0.15625 0,-0.46484 -0.13672,-0.67187 -0.13672,-0.21094 -0.4414,-0.21094 -0.39844,0 -0.61719,0.32812 -0.21485,0.32813 -0.22266,0.94922 v 2.14844 h -1.40625 v -2.28125 q 0,-0.72656 -0.125,-0.93359 -0.125,-0.21094 -0.44531,-0.21094 -0.40234,0 -0.62109,0.33203 -0.21875,0.32812 -0.21875,0.94141 v 2.15234 h -1.40625 v -4.375 h 1.40625 v 0.64062 q 0.25781,-0.37109 0.58984,-0.55859 0.33594,-0.1875 0.73828,-0.1875 0.45313,0 0.80078,0.21875 0.34766,0.21875 0.52735,0.61328 z "/>
<path style="fill:#fff" id="path4144" d="m 203.471,724.4375 1.3984,0 0,4.375 -1.3984,0 0,-4.375 z  m 0,-1.7031 1.3984,0 0,1.1406 -1.3984,0 0,-1.1406 z "/>
<path style="fill:#fff" id="path4146" d="m 209.1975,725.0781 0,-2.3438 1.4062,0 0,6.0781 -1.4062,0 0,-.6328 q -0.28906,0.38672 -0.63672,0.5664 -0.34765,0.17969 -0.80469,0.17969 -0.80859,0 -1.32812,-0.64062 -0.51953,-0.64454 -0.51953,-1.65625 0,-1.01172 0.51953,-1.65235 0.51953,-0.64453 1.32812,-0.64453 0.45313,0 0.80079,0.18359 0.35156,0.17969 0.64062,0.5625 z  m -.9219,2.832 q 0.44921,0 0.68359,-0.32813 0.23828,-0.32812 0.23828,-0.95312 0,-0.625 -0.23828,-0.95313 -0.23438,-0.32812 -0.68359,-0.32812 -0.44532,0 -0.6836,0.32812 -0.23437,0.32813 -0.23437,0.95313 0,0.625 0.23437,0.95312 0.23828,0.32813 0.6836,0.32813 z "/>
<path style="fill:#fff" id="path4148" d="m 211.9554,724.4375 1.3984,0 0,4.375 -1.3984,0 0,-4.375 z  m 0,-1.7031 1.3984,0 0,1.1406 -1.3984,0 0,-1.1406 z "/>
</g>
</svg>
