<svg width="48" version="1.1" xmlns="http://www.w3.org/2000/svg" height="48">
<g style="stroke:none">
<rect width="39" x="4.5" y="5.6268921" height="36.745777" style="fill:#00a027" id="rect824"/>
<g style="fill:#fff">
<path style="fill-rule:evenodd" id="path4112" d="m 24.0029,9.9998 v 15.6147 c -0.81743,-0.676961 -1.88339,-1.11464 -3.00412,-1.11458 -2.35727,0.00012 -4.49882,1.90578 -4.49882,4.00001 0,2.09423 2.14155,3.99987 4.49882,4 2.35729,0.00012 5.00496,-1.90555 5.00496,-4 v -12.6538 c 3.13989,1.67348 5.09672,3.74551 5.09672,7.02101 0,0.842147 -0.156497,1.66804 -0.430849,2.46354 0.84039,-1.31891 1.3306,-2.8035 1.3306,-4.33073 0,-2.44596 -0.942488,-3.77915 -2.88688,-5.50017 -0.897067,-0.794028 -3.07687,-2.26387 -3.10961,-5.4323 v -0.067733 h -0.006 -1.99497 z "/>
<path id="path4142" d="m 16.11719,35.3516 q 0.26563,-0.40625 0.62891,-0.61719 0.36718,-0.21484 0.80468,-0.21484 0.75391,0 1.14844,0.46484 0.39453,0.46485 0.39453,1.35157 v 2.66406 H 17.6875 v -2.28125 q 0.004,-0.0508 0.004,-0.10547 0.004,-0.0547 0.004,-0.15625 0,-0.46484 -0.13672,-0.67187 -0.13672,-0.21094 -0.44141,-0.21094 -0.39844,0 -0.61719,0.32812 -0.21484,0.32813 -0.22265,0.94922 v 2.14844 h -1.40625 v -2.28125 q 0,-0.72656 -0.125,-0.93359 -0.125,-0.21094 -0.44532,-0.21094 -0.40234,0 -0.62109,0.33203 -0.21875,0.32812 -0.21875,0.94141 v 2.15234 h -1.40625 v -4.375 h 1.40625 v 0.64062 q 0.25781,-0.37109 0.58984,-0.55859 0.33594,-0.1875 0.73829,-0.1875 0.45312,0 0.80078,0.21875 0.34765,0.21875 0.52734,0.61328 z"/>
<path id="path4144" d="m 21.80469,38.3672 v 2.2969 h -1.3984 V 34.625 h 1.3984 v 0.6406 q 0.28906,-0.38281 0.64063,-0.5625 0.35156,-0.18359 0.80859,-0.18359 0.80859,0 1.32812,0.64453 0.51954,0.64063 0.51954,1.65235 0,1.01171 -0.51954,1.65625 -0.51953,0.64062 -1.32812,0.64062 -0.45703,0 -0.80859,-0.17969 -0.35157,-0.18359 -0.64063,-0.5664 z m 0.9297,-2.832 q -0.44922,0 -0.69141,0.33203 -0.23828,0.32812 -0.23828,0.94922 0,0.62109 0.23828,0.95312 0.24219,0.32813 0.69141,0.32813 0.44922,0 0.68359,-0.32813 0.23828,-0.32812 0.23828,-0.95312 0,-0.625 -0.23828,-0.95313 -0.23437,-0.32812 -0.68359,-0.32812 z"/>
<path id="path4146" d="m 30.5078,36.8008 v 0.3984 h -3.2695 q 0.0508,0.49219 0.35547,0.73828 0.30469,0.24609 0.85157,0.24609 0.4414,0 0.90234,-0.1289 0.46484,-0.13282 0.95312,-0.39844 v 1.07812 q -0.49609,0.1875 -0.99218,0.28125 -0.4961,0.0977 -0.99219,0.0977 -1.1875,0 -1.84766,-0.60156 -0.65625,-0.60547 -0.65625,-1.69531 0,-1.07032 0.64453,-1.6836 0.64844,-0.61328 1.78125,-0.61328 1.03125,0 1.64844,0.62109 0.6211,0.6211 0.6211,1.66016 z  m -1.4375,-.4648 q 0,-0.39844 -0.23438,-0.64063 -0.23047,-0.24609 -0.60547,-0.24609 -0.40625,0 -0.66015,0.23047 -0.25391,0.22656 -0.31641,0.65625 z "/>
<path id="path4148" d="m 34.53909,38.2578 q -0.28907,0.38281 -0.63672,0.5625 -0.34766,0.17969 -0.80469,0.17969 -0.80078,0 -1.32422,-0.62891 -0.52344,-0.63281 -0.52344,-1.60937 0,-0.98047 0.52344,-1.60547 0.52344,-0.62891 1.32422,-0.62891 0.45703,0 0.80469,0.17969 0.34765,0.17969 0.63672,0.56641 v -0.64844 h 1.40625 v 3.93359 q 0,1.05469 -0.66797,1.60938 -0.66407,0.55859 -1.92969,0.55859 -0.41016,0 -0.79297,-0.0625 -0.38281,-0.0625 -0.76953,-0.1914 V 39.3828 q 0.36719,0.21094 0.71875,0.3125 0.35156,0.10547 0.70703,0.10547 0.6875,0 1.00781,-0.30078 0.32032,-0.30078 0.32032,-0.94141 z m -0.9219,-2.7227 q -0.43359,0 -0.67578,0.32031 -0.24219,0.32031 -0.24219,0.90625 0,0.60156 0.23438,0.91406 0.23437,0.30859 0.68359,0.30859 0.4375,0 0.67969,-0.32031 0.24219,-0.32031 0.24219,-0.90234 0,-0.58594 -0.24219,-0.90625 -0.24219,-0.32031 -0.67969,-0.32031 z"/>
</g>
</g>
</svg>
