<svg width="48" version="1.1" xmlns="http://www.w3.org/2000/svg" height="48">
<g style="stroke:none">
<g style="fill-rule:evenodd">
<rect width="40" x="4" y="3" height="42" style="fill:#e6e6e6" id="rect867"/>
<g id="g854">
<path id="rect2988" d="m 10.7368,7 h 26.5263 v 3.5 h -26.5263 Z "/>
<path id="rect2990" d="m 10.7368,37 h 26.5263 v 3.5 h -26.5263 Z "/>
<g id="g7">
<path id="path841" d="m 3,3 v 42 h 9 v -42 h -9 z  m 2,3 h 5 v 5 h -5 v -5 z  m 0,15 h 5 v 5 h -5 v -5 z  m 0,15 h 5 v 5 h -5 v -5 z "/>
<path id="path833" d="m 36,3 v 42 h 9 v -42 h -9 z  m 2,3 h 5 v 5 h -5 v -5 z  m 0,15 h 5 v 5 h -5 v -5 z  m 0,15 h 5 v 5 h -5 v -5 z "/>
</g>
<path id="path4511" d="m 10.7368,22 h 26.5263 v 3.5 h -26.5263 Z "/>
</g>
</g>
<g style="letter-spacing:0;font-family:sans-serif;word-spacing:0;line-height:1.25">
<text x="-41.084747" y="46.169491" style="font-size:40px" id="text868" xml:space="preserve"><tspan x="-41.084747" y="81.56012" id="tspan866"/>
</text>
<g id="text872" transform="translate(0,0.5)">
<path id="path874" d="m 18.0895,30.147 v -2.347 h 1.4082 v 6.08656 h -1.4082 v -0.63369 c -0.192976,0.25817 -0.40551,0.447234 -0.637602,0.567192 -0.232093,0.119958 -0.500694,0.180328 -0.805805,0.179937 -1.33164,-0.0017 -1.86643,-1.04156 -1.85022,-2.3 0.01621,-1.2585 0.839963,-2.24133 1.85022,-2.3 0.301993,-0.01756 0.5698,0.06128 0.801893,0.183848 0.2347,0.119958 0.448538,0.307718 0.641514,0.563281 z  m -.9232,2.836 c 0.299887,-0.002 0.528075,-0.109527 0.684542,-0.32858 0.159075,-0.219054 0.238612,-0.537203 0.238612,-0.954448 0,-0.417245 -0.07954,-0.735395 -0.238612,-0.954448 -0.156467,-0.219053 -0.384686,-0.333395 -0.684542,-0.32858 -0.536108,0.0086 -0.919445,0.508381 -0.919243,1.28303 0.000202,0.774647 0.548305,1.28545 0.919243,1.28303 z "/>
<path id="path876" d="m 20.8511,29.5055 h 1.40038 v 4.38107 h -1.40038 z  m 0,-1.7055 h 1.40038 v 1.14221 h -1.40038 z "/>
<path id="path878" d="m 23.0534,29.5055 h 1.40038 l 1.0914,3.0276 1.0874,-3.0276 h 1.40429 l -1.725,4.3811 h -1.53729 z "/>
<path id="path880" d="m 29.9379,31.6452 -1.5803,-2.1397 h 1.48252 l .8958,1.2987 .9075,-1.2987 h 1.48252 l -1.5803,2.1319 1.6585,2.2492 h -1.48252 l -.9857,-1.3847 -.974,1.3847 h -1.48252 z "/>
</g>
</g>
</g>
</svg>
