<svg width="48" version="1.1" xmlns="http://www.w3.org/2000/svg" height="48">
<g id="g3754" transform="matrix(1.1465264,0,0,1.003502,-3.4491073,-0.01867862)">
<path style="fill:#e6e6e6" id="path3756" d="m 7.2856,5.8498 0,36.202 33.4419,.0004 0,-36.1402 z "/>
</g>
<g style="stroke:none">
<path style="fill-rule:evenodd" id="folderGlyph-6" d="m 4.904,5.8477 .0003,36.3086 8.6172,0 0,-1.3887 21.0449,0 0,1.3887 8.6797,0 -.0001,-36.3086 -8.6796,0 0,1.9414 -21.0449,0 0,-1.9414 z  m 1.9046,3.6172 3.8398,0 0,3.6367 -3.8398,0 z  m 30.6934,0 3.8086,0 0,3.6367 -3.8086,0 z  m -24.043,.877 21.0449,0 0,12.7754 -21.0449,0 z  m -6.6504,11.8223 3.8398,0 0,3.6172 -3.8398,0 z  m 30.6934,0 3.8086,0 0,3.6172 -3.8086,0 z  m -24.043,3.4414 21.0449,0 0,12.6094 -21.0449,0 z  m -6.6504,9.2773 3.8398,0 0,3.6367 -3.8398,0 z  m 30.6934,0 3.8086,0 0,3.6367 -3.8086,0 z "/>
<path id="path4158" d="m 20.1133,35.0788 q -0.4375,0 -0.660156,0.148437 -0.21875,0.148438 -0.21875,0.4375 0,0.265625 0.175781,0.417969 0.179688,0.148437 0.496094,0.148437 0.394531,0 0.664062,-0.28125 0.269532,-0.285156 0.269532,-0.710937 v -0.160156 h -0.726563 z  m 2.1367,-.5273 v 2.49609 h -1.41016 v -0.648438 q -0.28125,0.398438 -0.632813,0.582031 -0.351562,0.179688 -0.855469,0.179688 -0.679687,0 -1.10547,-0.394531 -0.421875,-0.398438 -0.421875,-1.03125 0,-0.769532 0.527343,-1.12891 0.53125,-0.359375 1.66406,-0.359375 h 0.824219 v -0.109375 q 0,-0.332031 -0.261719,-0.484375 -0.261719,-0.15625 -0.816406,-0.15625 -0.449219,0 -0.835938,0.08984 -0.386719,0.08984 -0.71875,0.269531 v -1.06641 q 0.449219,-0.109375 0.902344,-0.164062 0.453125,-0.05859 0.90625,-0.05859 1.18359,0 1.70703,0.46875 0.527344,0.464844 0.527344,1.51562 Z "/>
<path id="path4160" d="m 23.0078,32.6725 1.3984,0 1.0898,3.0234 1.0859,-3.0234 1.4023,0 -1.7227,4.375 -1.5352,0 -1.7188,-4.375 z "/>
<path id="path4162" d="m 28.7773,32.6725 1.3984,0 0,4.375 -1.3984,0 0,-4.375 z  m 0,-1.7031 1.3984,0 0,1.1406 -1.3984,0 0,-1.1406 z "/>
</g>
</svg>
