<svg width="48" version="1.1" xmlns="http://www.w3.org/2000/svg" height="48">
<g style="stroke:none" id="layer1" transform="translate(-180.23661,-689.8125)">
<rect width="42" x="183.2366" y="692.8125" height="42" style="fill:#5b6d71;fill-rule:evenodd;stroke-width:1.109" id="rect3021"/>
<path style="fill:#bdc3c7" id="path9" d="m 218.6801,709.5741 c -0.7823,-2.92585 -0.4355,-3.49086 -3.29198,-2.67473 l -2.3044,.6584 c -0.90528,-1.31678 -2.22208,-2.46896 -3.62116,-3.29196 l .3704,-2.2632 c 0.50891,-3.11007 -0.77182,-2.41222 -3.41542,-2.75702 -2.94456,-0.39396 -3.66837,-1.27148 -4.11496,1.68712 l -.3292,2.181 c -0.2469,0.0823 -0.5761,0.16459 -0.82299,0.24691 -0.98758,0.24688 -1.89288,0.74068 -2.71587,1.23447 l -1.7694,-1.3579 c -2.38959,-1.83388 -2.46535,-0.51552 -4.11496,1.48139 -1.97357,2.33384 -2.90592,2.40345 -0.4938,4.27955 l 1.8518,1.4402 c -0.32919,0.90529 -0.49379,1.89288 -0.49379,2.96277 l -2.3044,.6584 c -2.96059,0.84589 -2.08538,1.39751 -1.31679,3.99151 0.78228,2.92585 0.43549,3.49086 3.29197,2.67472 l 2.3044,-.6584 c 0.9053,1.31679 2.22208,2.46898 3.62116,3.29196 l -.3703,2.2632 c -0.50892,3.11004 0.77182,2.4122 3.41542,2.75702 2.94456,0.39394 3.66837,1.27148 4.11496,-1.68713 l .3292,-2.181 c 0.2469,-0.0823 0.57609,-0.1646 0.82298,-0.24689 0.98761,-0.24692 1.89289,-0.7407 2.71588,-1.2345 l 1.7694,1.3579 c 2.13637,2.12347 2.46535,0.51551 4.11496,-1.48139 1.97356,-2.33385 2.90593,-2.40345 0.49379,-4.27956 l -1.8517,-1.4402 c 0.3292,-0.90529 0.49379,-1.89287 0.49379,-2.96276 l 2.3044,-.6584 c 2.9606,-0.84589 2.08538,-1.39752 1.3168,-3.99151 z  m -13.4147,8.1888 c -2.30438,0.65839 -4.77335,-0.65839 -5.51405,-2.96277 -0.74069,-2.30437 0.65839,-4.77336 2.96277,-5.51405 2.30438,-0.65838 4.77335,0.65841 5.51404,2.96278 0.6584,2.30436 -0.65838,4.77334 -2.96276,5.51404 z "/>
</g>
</svg>
