<svg width="48" version="1.1" xmlns="http://www.w3.org/2000/svg" height="48">
<g style="fill-rule:evenodd">
<rect width="42" x="3" y="3" height="42" style="fill:#4c4c4c;stroke:none" id="rect816"/>
<path style="fill:#fff;stroke:#003bc3;stroke-linejoin:bevel;stroke-linecap:square;stroke-width:0" id="shape0" d="m 12.1911,14.3126 11.9969,-.0277 c 0.600026,0.943209 0.579953,2.30297 0.291812,3.9341 4.51964,-2.50222 4.29631,4.1319 -0.332418,1.58078 -0.618712,2.6293 -1.58395,5.75065 -1.76987,8.89972 5.3854,-2.99081 3.6928,4.17972 -0.03157,1.02432 -0.0016,1.34663 0.161518,2.68913 0.57743,3.99129 l 12.8855,-.1386 c -0.0075,-1.36213 -0.03223,-8.64058 -0.03407,-9.06375 -1.2215,-0.427664 -2.86547,-0.612154 -4.78347,-0.691287 4.37592,-3.09277 -4.91561,-2.83006 -2.39391,-0.053 -3.11713,-0.02567 -6.70387,0.05933 -10.2834,-0.188433 3.2027,3.55675 -4.51981,3.13339 -1.6173,-0.136213 -1.46944,-0.147573 -2.92545,-0.363065 -4.33468,-0.677322 -0.118032,-0.299548 -0.0054,-4.96724 -0.170896,-8.45394 z "/>
</g>
</svg>
