<svg width="48" version="1.1" xmlns="http://www.w3.org/2000/svg" height="48">
<g id="layer1" transform="matrix(1.1470591,0,0,0.91864444,-3.5294176,1.9525339)">
<path style="fill:#ecf0f1" id="rect4090" d="m 5.6923,1.1402 v 45.7195 h 36.6154 v -45.7195 Z "/>
</g>
<g style="opacity:.7;fill:#666" transform="scale(0.75397775,1.3262991)">
<path id="path4141" d="m 33.7092,18.0246 q -3.95101,0 -5.47471,0.903593 -1.52371,0.903594 -1.52371,3.08285 0,1.73632 1.13392,2.76393 1.15164,1.0099 3.11828,1.0099 2.71078,0 4.34079,-1.91349 1.64773,-1.93121 1.64773,-5.12036 v -0.726418 h -3.24231 z  m 6.5023,-1.3465 0,11.3215 -3.26,0 0,-3.012 q -1.1162,1.80719 -2.78165,2.67535 -1.66545,0.85044 -4.07503,0.85044 -3.04741,0 -4.8546,-1.70088 -1.78947,-1.7186 -1.78947,-4.58884 0,-3.34861 2.23241,-5.04949 2.25013,-1.70088 6.69722,-1.70088 h 4.57112 v -0.318916 q 0,-2.25012 -1.48827,-3.47263 -1.47055,-1.24023 -4.1459,-1.24023 -1.70088,0 -3.31318,0.407503 -1.61229,0.407503 -3.10056,1.22251 v -3.01198 q 1.78947,-0.690983 3.47263,-1.02762 1.68316,-0.35435 3.27774,-0.35435 4.30536,0 6.43146,2.23241 2.1261,2.23241 2.1261,6.76809 z "/>
</g>
</svg>
