<svg width="48" version="1.1" xmlns="http://www.w3.org/2000/svg" height="48" xmlns:xlink="http://www.w3.org/1999/xlink">
<defs/>
<path style="opacity:.2" d="M 4,4 V 46 H 46 V 4 Z"/>
<path style="fill:#ecf0f1;stroke-width:1.139" d="m 3,3 v 42 h 42 v -41.9256 l -13.5882,-.0744 Z "/>
<path style="fill:#ccaa7d;stroke-width:.356" d="m 11.4227,10.0437 h 25.6231 c 1.18293,0 2.13526,0.952325 2.13526,2.13526 v 25.6231 c 0,1.18293 -0.952325,2.13526 -2.13526,2.13526 h -25.6231 c -1.18293,0 -2.13526,-0.952325 -2.13526,-2.13526 v -25.6231 c 0,-1.18293 0.952324,-2.13526 2.13526,-2.13526 z "/>
<rect width="29.219183" x="9.5939751" y="14.314221" rx="2.0870845" height="8.541029" ry="2.1352572" style="fill:#3c2510"/>
<g style="fill:#ccaa7d">
<path d="m 11.6964,10.0727 c -2.18888,0.04295 -2.19438,0.0053 -2.19438,2.13042 v 8.52167 c 0,2.13965 0.089314,2.08245 2.19438,2.13042 l 13.1663,-.7102 v -12.7825 Z "/>
<path d="m 36.9253,10.0727 c 1.96488,0.04295 2.01044,0.04828 2.01044,2.13042 v 8.52167 c 0,2.18762 -0.172364,2.17839 -2.01044,2.13042 l -12.0627,-.7102 v -12.7825 Z "/>
</g>
<g style="stroke-width:.356">
<path style="opacity:.5;fill:#3a240f" d="m 26.4123,9.4268 h -4.31336 l .0214,9.0048 .0479,10.8294 2.0238,-.1851 2.1509,-.1966 .0116,-2.0774 .0363,-8.3702 z "/>
<path style="fill:#d8cab2" d="m 26.3909,9.3814 -2.1567,-.1579 -2.1567,.1579 .0214,9.1822 .0479,10.3416 2.0238,-.1768 2.1509,-.1877 .0116,-1.9838 .0363,-7.9932 .0214,-9.1822 z "/>
<path style="opacity:.2;fill:#8d6137" d="m 23.8783,9.3764 h 0.355877 v 12.8936 h -0.355877 z "/>
<path style="opacity:.2;fill:#fff" d="m 24.2342,9.3764 h 0.355876 v 12.8936 h -0.355876 z "/>
</g>
<path style="fill:#e74c3c" d="m 35.4556,27.4674 c -1.14095,0 -2.28197,0 -3.42292,0 0,2.54159 0,5.08318 0,7.62479 -0.630118,0 -1.26026,0 -1.89037,0 0,-2.54161 0,-5.0832 0,-7.62479 -1.14097,0 -2.28194,0 -3.4229,0 0,-0.39303 0,-0.786065 0,-1.17909 2.91206,0 5.82412,0 8.73619,0 0,0.393029 0,0.786064 0,1.17909 z "/>
<path style="fill:#2c3e50" d="m 39.1678,30.0836 c -1.09575,0 -2.19155,0 -3.28729,0 0,2.47821 0,4.95644 0,7.43468 -0.605164,0 -1.21035,0 -1.81552,0 0,-2.47824 0,-4.95647 0,-7.43468 -1.09578,0 -2.19155,0 -3.28733,0 0,-0.383228 0,-0.766459 0,-1.14969 2.79671,0 5.59342,0 8.39014,0 0,0.383231 0,0.766462 0,1.14969 z "/>
<path style="opacity:.2;fill:#8d6137;stroke-linecap:round;stroke-width:.11" d="m 22.1186,22.2931 4.2341,-.0496 -.164,.4979 -4.0734,.1139 z "/>
</svg>
