<svg width="48" version="1.1" xmlns="http://www.w3.org/2000/svg" height="48" xmlns:xlink="http://www.w3.org/1999/xlink">
<defs id="defs4">
<linearGradient id="linearGradient4376" xlink:href="#linearGradient4370" y1="38.127232" x1="8" y2="71.877235" x2="8" gradientUnits="userSpaceOnUse"/>
<linearGradient id="linearGradient4370">
<stop offset="0" style="stop-color:#8a5b30" id="stop4372"/>
<stop offset="1" style="stop-color:#8a5b30;stop-opacity:0" id="stop4374"/>
</linearGradient>
</defs>
<g id="layer1" transform="matrix(1.1470591,0,0,0.91864444,-3.5294177,1.9525339)">
<path style="fill:#ecf0f1" id="rect4090" d="M 0,0 0,40 34,40 34,0.07084098 23,0 z" transform="translate(7,4)"/>
<path style="fill:#e74c3c" id="shape0" d="m 13.8774,2.33869 c -1.8124,0 -3.6249,0 -5.43729,0 0,5.04116 0,10.08231 0,15.12351 -1.00094,0 -2.00192,0 -3.00284,0 0,-5.0412 0,-10.08235 0,-15.12351 -1.81243,0 -3.62485,0 -5.43727,0 C 0,1.55913 0,0.779559 0,0 c 4.6258,0 9.25159,0 13.8774,0 0,0.779559 0,1.55913 0,2.33869 z" transform="translate(13.8589,15.0009)"/>
<path style="fill:#2c3e50" id="shape01" d="m 13.3277,2.28037 c -1.7406,0 -3.48127,0 -5.22185,0 0,4.91545 0,9.83093 0,14.74643 -0.9613,0 -1.92264,0 -2.88394,0 0,-4.9155 0,-9.83098 0,-14.74643 -1.74064,0 -3.48127,0 -5.22191,0 C 0,1.52025 0,0.760124 0,0 c 4.44257,0 8.88513,0 13.3277,0 0,0.760124 0,1.52025 0,2.28037 z" transform="translate(20.3055,20.2482)"/>
</g>
<g id="layer1-1" transform="matrix(0.35587621,0,0,0.35587621,7.1521633,7.9084497)">
<path style="fill:url(#linearGradient4376);stroke:none" id="rect5138" d="m 6,36 0,48 c 0,1.781762 0.7745675,3.371709 2,4.46875 L 8,36 6,36 z"/>
<rect width="84" x="6" y="6" rx="6" height="84" ry="0" style="fill:#ccaa7d;stroke:none" id="rect2419"/>
<rect width="82.104904" x="6.8614073" y="18" rx="5.8646359" height="24" ry="6" style="fill:#3c2510;stroke:none" id="rect2483"/>
<path style="fill:#ccaa7d;stroke:none" id="rect2481" d="m 12.7691,6.0816 c -6.15068,0.120679 -6.16613,0.0149974 -6.16613,5.98641 v 23.9456 c 0,6.01234 0.250969,5.85162 6.16613,5.98641 l 36.9968,-1.9955 v -35.9185 z "/>
<path style="fill:#ccaa7d;stroke:none" id="path3262" d="m 83.6616,6.0816 c 5.52125,0.120679 5.64928,0.135676 5.64928,5.98641 v 23.9456 c 0,6.14714 -0.484337,6.12121 -5.64928,5.98641 l -33.8957,-1.9955 v -35.9185 z "/>
<path style="opacity:.5;fill:#3a240f" id="path5008" d="m 54.1204,4.2666 -12.1204,0 .0602,25.3032 l .1347,30.4302 5.6868,-.5202 6.0439,-.5524 .0326,-5.8375 .102,-23.5201 .0602,-25.3032 z "/>
<path style="fill:#d8cab2" id="polygon120" d="m 54.0602,4.1389 -6.0602,-.4438 -6.0602,.4438 .0602,25.8016 .1346,29.0595 l 5.6868,-.4968 6.0439,-.5275 .0326,-5.5745 .102,-22.4606 .0602,-25.8016 z "/>
<rect width="1" x="47" y="4.1250005" height="35.714287" style="opacity:.2;fill:#8d6137;stroke:none" id="rect4363"/>
<rect width="1" x="48" y="4.1250005" height="35.714287" style="opacity:.2;fill:#fff;stroke:none" id="rect4365"/>
</g>
<path style="fill:#e74c3c" id="shape0-8" d="m 35.4556,27.4674 c -1.14095,0 -2.28197,0 -3.42292,0 0,2.54159 0,5.08318 0,7.62479 -0.630118,0 -1.26026,0 -1.89037,0 0,-2.54161 0,-5.0832 0,-7.62479 -1.14097,0 -2.28194,0 -3.4229,0 0,-0.39303 0,-0.786065 0,-1.17909 2.91206,0 5.82412,0 8.73619,0 0,0.393029 0,0.786064 0,1.17909 z "/>
<path style="fill:#2c3e50" id="shape01-6" d="m 39.1678,30.0836 c -1.09575,0 -2.19155,0 -3.28729,0 0,2.47821 0,4.95644 0,7.43468 -0.605164,0 -1.21035,0 -1.81552,0 0,-2.47824 0,-4.95647 0,-7.43468 -1.09578,0 -2.19155,0 -3.28733,0 0,-0.383228 0,-0.766459 0,-1.14969 2.79671,0 5.59342,0 8.39014,0 0,0.383231 0,0.766462 0,1.14969 z "/>
</svg>
