<svg width="48" version="1.1" xmlns="http://www.w3.org/2000/svg" height="48">
<g style="stroke:none">
<rect width="42" x="3" y="3" height="42" style="fill:#3498db;fill-rule:evenodd" id="rect856"/>
<g style="fill:#fff" id="g861" transform="matrix(1.2921149,0,0,1.2921149,-7.010693,-7.5915345)">
<path id="path4155" d="m 17.3105,32.1207 h 1.3984 v 3.3086 l 1.6094,-1.6055 h 1.625 l -2.1367,2.0078 2.3047,2.3672 H 20.416 l -1.707,-1.8242 v 1.8242 h -1.3984 v -6.0781 z"/>
<path id="path4157" d="m 25.8887,35.0152 q -0.183594,-0.086 -0.367188,-0.125 -0.179687,-0.043 -0.363281,-0.043 -0.539062,0 -0.832031,0.3476 -0.289063,0.3438 -0.289063,0.9883 v 2.0156 h -1.39844 v -4.375 h 1.39844 v 0.7188 q 0.269532,-0.4297 0.617188,-0.625 0.351562,-0.1992 0.839844,-0.1992 0.07031,0 0.152343,0.01 0.08203,0 0.238282,0.023 l .0039,1.2656 z "/>
<path id="path4159" d="m 28.5527,36.2301 q -0.4375,0 -0.660156,0.1484 -0.21875,0.1485 -0.21875,0.4375 0,0.2656 0.175781,0.418 0.179688,0.1484 0.496094,0.1484 0.394531,0 0.664063,-0.2812 0.269531,-0.2852 0.269531,-0.711 v -0.1601 z m 2.1367,-0.5274 v 2.4961 h -1.4102 v -0.6484 q -0.28125,0.3984 -0.632813,0.582 -0.351562,0.1797 -0.855468,0.1797 -0.679688,0 -1.10547,-0.3945 -0.421875,-0.3985 -0.421875,-1.0313 0,-0.7695 0.527344,-1.1289 0.53125,-0.3593 1.66406,-0.3593 h 0.824219 v -0.1094 q 0,-0.3321 -0.261719,-0.4844 -0.261719,-0.1562 -0.816406,-0.1562 -0.449219,0 -0.835938,0.09 -0.386718,0.09 -0.71875,0.2695 v -1.0664 q 0.449219,-0.1094 0.902344,-0.164 0.453125,-0.059 0.90625,-0.059 1.18359,0 1.70703,0.4687 0.527344,0.4649 0.527344,1.5156 z"/>
</g>
<g id="g3013" transform="matrix(1.0817639,0,0,1.0817639,0.41436433,-1089.2585)">
<g style="fill-rule:evenodd" id="g3078" transform="matrix(0.80258963,0,0,0.80258963,-0.25470477,200.3919)">
<g style="stroke-miterlimit:2" id="g16">
<path style="fill:#800000" id="path3159" d="m 11.6394,1012.0198 .7473,-.9845 15.1228,19.5118 -1.3117,1.754 z "/>
<path style="fill:#bdc3c7" id="path3161" d="m 26.1702,1032.2643 1.3117,-1.754 3.5837,5.3142 -1.0017,1.3124 z"/>
</g>
<path id="path3163" d="m 30.4229,1036.0643 c 2.67725,-3.5127 2.01124,3.3239 5.79953,7.1163 -4,1.8177 -8.98058,-2.9426 -5.79953,-7.1163 z"/>
</g>
<path style="fill:#fff" id="path3083" d="m 24.5721,32.3304 c 0.120304,0.120305 0.781978,0.481218 1.29327,0.240609 0.511293,-0.240609 -0.410405,-1.50184 -0.03008,-1.29327 0.932359,0.511293 0.120305,0.330837 0.812055,0.872206 0.691749,0.541369 1.14289,0.661674 1.05266,0.330837 -0.09023,-0.330837 -0.240609,-0.541369 0.15038,-0.180457 0.390989,0.360913 0.902282,0.902282 0.902282,0.902282 l .1203,.2105 c 0,0 -0.451141,0.180456 -1.44365,0.120304 -0.99251,-0.06015 -0.270684,0.09023 -1.17297,-0.180456 -0.902282,-0.270685 -1.56396,-0.781978 -1.68426,-1.02259 z " transform="translate(0,1004.3622)"/>
</g>
</g>
</svg>
