<svg width="48" version="1.1" xmlns="http://www.w3.org/2000/svg" height="48">
<g style="stroke:none" id="layer1" transform="translate(0,-1004.3622)">
<path style="fill:#8e44ad" id="rect3261" d="m 4.5,1009.9893 0,36.7458 39,0 0,-4.8994 0,-31.8464 -39,0 z  m 5.2,4.8994 28.6,0 0,19.5978 -10.4,-14.6983 -7.282,10.2869 -1.818,-2.9377 -9.1,14.6983 0,-26.947 z "/>
<g style="fill:none" id="g6">
<rect width="2" x="4.5" y="1045.8622" rx="1" height="2" ry="1" id="rect3281"/>
<rect width="2" x="17.5" y="1045.8622" rx="1" ry="1" height="2" id="rect3283"/>
</g>
<path style="fill:#fff" id="path4145" d="m 18.0098,1038.186 1.3984,0 0,4.375 -1.3984,0 0,-4.375 z  m 0,-1.7031 1.3984,0 0,1.1406 -1.3984,0 0,-1.1406 z "/>
<path style="fill:#fff" id="path4147" d="m 24.2949,1038.3228 0,1.1406 q -0.285156,-0.1953 -0.574219,-0.2891 -0.285156,-0.094 -0.59375,-0.094 -0.585937,0 -0.914062,0.3437 -0.324219,0.3399 -0.324219,0.9531 0,0.6133 0.324219,0.9571 0.328125,0.3398 0.914062,0.3398 0.328125,0 0.621094,-0.098 0.296875,-0.098 0.546875,-0.2891 v 1.1445 q -0.328125,0.1211 -0.667969,0.1797 -0.335937,0.062 -0.675781,0.062 -1.18359,0 -1.85156,-0.6055 -0.667968,-0.6093 -0.667968,-1.6914 0,-1.082 0.667968,-1.6875 0.667969,-0.6093 1.85156,-0.6093 0.34375,0 0.675781,0.062 0.335938,0.059 0.667969,0.1797 z "/>
<path style="fill:#fff" id="path4149" d="m 27.5918,1039.0806 q -0.464844,0 -0.710938,0.3359 -0.242187,0.332 -0.242187,0.9609 0,0.6289 0.242187,0.9649 0.246094,0.332 0.710938,0.332 0.457031,0 0.699219,-0.332 0.242187,-0.336 0.242187,-0.9649 0,-0.6289 -0.242187,-0.9609 -0.242188,-0.3359 -0.699219,-0.3359 z  m 0,-1 q 1.12891,0 1.76172,0.6093 0.636718,0.6094 0.636718,1.6875 0,1.0782 -0.636718,1.6875 -0.632813,0.6094 -1.76172,0.6094 -1.13281,0 -1.77344,-0.6094 -0.636718,-0.6093 -0.636718,-1.6875 0,-1.0781 0.636718,-1.6875 0.640625,-0.6093 1.77344,-0.6093 z "/>
</g>
</svg>
