<svg width="48" version="1.1" xmlns="http://www.w3.org/2000/svg" height="48">
<path style="fill:#8e44ad;stroke:none" id="rect3261" d="M 3,3 V 45 H 45 V 39.4 3 Z M 9,9 H 39 V 31 L 28.2,14.2001 20.357846,25.9578 18.4,22.6001 9,39 Z"/>
<g style="fill:#fff;stroke:none" id="g853" transform="translate(109.22032,29.0819)">
<path id="path4145" d="m -91.21054,7.4298 h 1.3984 v 4.375 h -1.3984 z m 0,-1.7031 h 1.3984 v 1.1406 h -1.3984 z"/>
<path id="path4147" d="m -84.9254,7.5666 v 1.1406 q -0.285156,-0.1953 -0.574219,-0.2891 -0.285156,-0.094 -0.59375,-0.094 -0.585937,0 -0.914062,0.3437 -0.324219,0.3399 -0.324219,0.9531 0,0.6133 0.324219,0.9571 0.328125,0.3398 0.914062,0.3398 0.328125,0 0.621094,-0.098 0.296875,-0.098 0.546875,-0.2891 v 1.1445 q -0.328125,0.1211 -0.667969,0.1797 -0.335937,0.062 -0.675781,0.062 -1.18359,0 -1.85156,-0.6055 -0.667968,-0.6093 -0.667968,-1.6914 0,-1.082 0.667968,-1.6875 0.667969,-0.6093 1.85156,-0.6093 0.34375,0 0.675781,0.062 0.335938,0.059 0.667969,0.1797 z "/>
<path id="path4149" d="m -81.62854,8.3244 q -0.464844,0 -0.710938,0.3359 -0.242187,0.332 -0.242187,0.9609 0,0.6289 0.242187,0.9649 0.246094,0.332 0.710938,0.332 0.457031,0 0.699219,-0.332 0.242187,-0.336 0.242187,-0.9649 0,-0.6289 -0.242187,-0.9609 -0.242188,-0.3359 -0.699219,-0.3359 z m 0,-1 q 1.12891,0 1.76172,0.6093 0.636718,0.6094 0.636718,1.6875 0,1.0782 -0.636718,1.6875 -0.632813,0.6094 -1.76172,0.6094 -1.13281,0 -1.77344,-0.6094 -0.636718,-0.6093 -0.636718,-1.6875 0,-1.0781 0.636718,-1.6875 0.640625,-0.6093 1.77344,-0.6093 z"/>
</g>
</svg>
