<svg width="48" version="1.1" xmlns="http://www.w3.org/2000/svg" height="48">
<g style="fill:#8e44ad">
<path d="M 3,3 V 45 H 45 V 3 Z M 9,9 H 39 V 33 L 30.2,18.2001 20.357846,34 16.4,28.6001 9,39 Z"/>
<path d="M 22,17.5 A 4.5,4.5 0 0 1 17.5,22 4.5,4.5 0 0 1 13,17.5 4.5,4.5 0 0 1 17.5,13 4.5,4.5 0 0 1 22,17.5 Z"/>
</g>
<g style="fill:#fff">
<path d="m 16.94114,39.1758 q 0.449219,0 0.683594,-0.3281 0.238281,-0.3282 0.238281,-0.9532 0,-0.625 -0.238281,-0.9531 -0.234375,-0.3281 -0.683594,-0.3281 -0.449219,0 -0.691406,0.332 -0.238281,0.3281 -0.238281,0.9492 0,0.6211 0.238281,0.9532 0.242187,0.3281 0.691406,0.3281 z m -0.9297,-2.832 q 0.289062,-0.3829 0.640625,-0.5625 0.351562,-0.1836 0.808593,-0.1836 0.808594,0 1.32812,0.6445 0.519532,0.6406 0.519532,1.6523 0,1.0118 -0.519532,1.6563 -0.519531,0.6406 -1.32812,0.6406 -0.457031,0 -0.808593,-0.1797 -0.351563,-0.1836 -0.640625,-0.5664 v 0.6328 H 14.613 V 34 h 1.39844 z"/>
<path d="m 24.402,36.4297 q 0.265625,-0.4063 0.628906,-0.6172 0.367187,-0.2148 0.804687,-0.2148 0.753907,0 1.14844,0.4648 0.394531,0.4649 0.394531,1.3516 v 2.664 h -1.40625 v -2.2812 q 0.0039,-0.051 0.0039,-0.1055 0.0039,-0.055 0.0039,-0.1562 0,-0.4649 -0.136719,-0.6719 -0.136719,-0.2109 -0.441406,-0.2109 -0.398438,0 -0.617188,0.3281 -0.214844,0.3281 -0.222656,0.9492 v 2.1484 h -1.40625 v -2.2812 q 0,-0.7266 -0.125,-0.9336 -0.125,-0.2109 -0.445313,-0.2109 -0.402343,0 -0.621093,0.332 -0.21875,0.3281 -0.21875,0.9414 v 2.1523 h -1.40625 v -4.375 h 1.40625 v 0.6407 q 0.257812,-0.3711 0.589843,-0.5586 0.335938,-0.1875 0.738282,-0.1875 0.453125,0 0.800781,0.2187 0.347656,0.2188 0.527344,0.6133 z "/>
<path d="m 30.0895,39.4453 v 2.2969 h -1.3984 v -6.0391 h 1.3984 v 0.6407 q 0.289062,-0.3829 0.640625,-0.5625 0.351562,-0.1836 0.808593,-0.1836 0.808594,0 1.32813,0.6445 0.519532,0.6406 0.519532,1.6523 0,1.0118 -0.519532,1.6563 -0.519531,0.6406 -1.32812,0.6406 -0.457031,0 -0.808593,-0.1797 -0.351563,-0.1836 -0.640625,-0.5664 z  m .9297,-2.832 q -0.449219,0 -0.691406,0.332 -0.238281,0.3281 -0.238281,0.9492 0,0.6211 0.238281,0.9532 0.242187,0.3281 0.691406,0.3281 0.449219,0 0.683594,-0.3281 0.238281,-0.3282 0.238281,-0.9532 0,-0.625 -0.238281,-0.9531 -0.234375,-0.3281 -0.683594,-0.3281 z "/>
</g>
</svg>
