<svg width="48" version="1.1" xmlns="http://www.w3.org/2000/svg" height="48">
<path style="fill:#fff" d="m 9,9 h 30 v 30 h -30 Z "/>
<g style="fill:#814c99">
<path d="M 3,3 V 45 H 45 V 3 Z M 9,9 H 39 V 33 L 30.2,18.2001 20.357846,34 16.4,28.6001 9,39 Z"/>
<path d="M 22,17.5 A 4.5,4.5 0 0 1 17.5,22 4.5,4.5 0 0 1 13,17.5 4.5,4.5 0 0 1 17.5,13 4.5,4.5 0 0 1 22,17.5 Z"/>
</g>
<g style="fill:#fff">
<path d="m 18.5312,33.656 v 1.35339 h 1.57042 v 1.08951 h -1.57042 v 2.02159 q 0,0.331974 0.131932,0.451167 0.131933,0.114835 0.523477,0.114835 h 0.783087 v 1.08951 h -1.30656 q -0.902252,0 -1.28103,-0.374465 -0.37452,-0.378824 -0.37452,-1.28105 v -2.02159 h -0.757551 v -1.08951 h 0.757551 v -1.35339 h 1.52362 z "/>
<path d="m 22.7109,34.9023 c -0.581642,0 -1.06316,0.228751 -1.44336,0.685547 -0.380194,0.453963 -0.570312,1.03782 -0.570312,1.75 0,0.709272 0.190118,1.29232 0.570312,1.75195 0.380195,0.456796 0.861719,0.685547 1.44336,0.685547 0.33196,0 0.624435,-0.06479 0.876953,-0.195313 0.252143,-0.130258 0.48365,-0.333843 0.693359,-0.611328 v 0.326172 c 0,0.465367 -0.116953,0.808932 -0.349609,1.02734 -0.232655,0.218483 -0.598297,0.326172 -1.09766,0.326172 -0.258191,0 -0.514176,-0.038606 -0.769531,-0.115235 -0.255354,-0.073723 -0.516499,-0.186586 -0.783203,-0.339844 v 1.1875 c 0.28089,0.093989 0.559839,0.163951 0.837891,0.208985 0.278053,0.045033 0.565368,0.066406 0.863281,0.066406 0.919277,0 1.62118,-0.201687 2.10352,-0.607422 0.485172,-0.402901 0.726562,-0.987833 0.726562,-1.75391 v -4.28516 h -1.53125 v 0.707031 c -0.209957,-0.280877 -0.440842,-0.486664 -0.693359,-0.617188 -0.252518,-0.130523 -0.544993,-0.197265 -0.876953,-0.197265 z  m .5664,1.0996 c 0.317774,0 0.564323,0.115009 0.740234,0.347656 0.175911,0.232648 0.263672,0.562646 0.263672,0.988282 0,0.42273 -0.087761,0.749774 -0.263672,0.982421 -0.175911,0.232647 -0.42246,0.34961 -0.740234,0.34961 -0.326286,0 -0.575857,-0.111789 -0.746094,-0.335938 -0.170236,-0.226982 -0.255859,-0.559199 -0.255859,-0.996093 0,-0.425636 0.089715,-0.755634 0.265625,-0.988282 0.175911,-0.232647 0.421391,-0.347656 0.736328,-0.347656 z "/>
<path d="m 29.1914,34.8945 c -0.287983,0.004687 -0.575298,0.026957 -0.863281,0.064453 -0.329123,0.039658 -0.656135,0.098273 -0.982422,0.177735 v 1.16211 c 0.241169,-0.130376 0.502314,-0.227595 0.783203,-0.292969 0.28089,-0.065373 0.58387,-0.097656 0.910156,-0.097656 0.402893,0 0.698575,0.056467 0.888672,0.169922 0.190098,0.110621 0.285157,0.286126 0.285157,0.527344 v 0.11914 h -0.896485 c -0.822806,0 -1.42858,0.129651 -1.81445,0.390625 -0.383032,0.261047 -0.574219,0.671549 -0.574219,1.23047 0,0.459629 0.152559,0.8336 0.458985,1.12305 0.309262,0.286542 0.711392,0.431641 1.20508,0.431641 0.366008,0 0.676287,-0.066742 0.931641,-0.197266 0.255354,-0.133356 0.485169,-0.343438 0.689453,-0.632813 v 0.705079 h 1.53711 v -2.71875 c 0,-0.763168 -0.191187,-1.31467 -0.574219,-1.65234 -0.380196,-0.340436 -1,-0.509766 -1.85938,-0.509766 -0.04114,0 -0.083859,0 -0.125,0 z  m .2305,2.7363 h 0.791016 v 0.173829 c 0,0.309275 -0.097197,0.568237 -0.292969,0.77539 -0.195772,0.204247 -0.436092,0.306641 -0.722656,0.306641 -0.22982,0 -0.410501,-0.054321 -0.541016,-0.16211 -0.127677,-0.110694 -0.191406,-0.262161 -0.191406,-0.455078 0,-0.209912 0.079394,-0.368701 0.238281,-0.476562 0.161725,-0.10779 0.400976,-0.16211 0.71875,-0.16211 z "/>
</g>
</svg>
