<svg width="48" version="1.1" xmlns="http://www.w3.org/2000/svg" height="48">
<g style="fill:#d40000">
<path d="M 3,3 V 45 H 45 V 3 Z M 9,9 H 39 V 33 L 30.2,18.2001 20.357846,34 16.4,28.6001 9,39 Z"/>
<path d="M 22,17.5 A 4.5,4.5 0 0 1 17.5,22 4.5,4.5 0 0 1 13,17.5 4.5,4.5 0 0 1 17.5,13 4.5,4.5 0 0 1 22,17.5 Z"/>
</g>
<g style="fill:#fff">
<path d="m 21.0977,37.2814 v 0.398532 h -3.2695 q 0.05078,0.49214 0.355469,0.73826 0.304687,0.24612 0.851562,0.24612 0.441406,0 0.902344,-0.12891 0.464844,-0.132811 0.953125,-0.398433 v 1.07819 q -0.496094,0.187515 -0.992188,0.281323 -0.496093,0.09801 -0.992187,0.09801 -1.1875,0 -1.84766,-0.601549 -0.65625,-0.605549 -0.65625,-1.69554 0,-1.07039 0.644531,-1.68374 0.648437,-0.61325 1.78125,-0.61325 1.03125,0 1.64844,0.621151 0.621094,0.62115 0.621094,1.66024 z  m -1.4375,-.4648 q 0,-0.398533 -0.234375,-0.640752 -0.230469,-0.24602 -0.605469,-0.24602 -0.40625,0 -0.660156,0.230418 -0.253906,0.226619 -0.316406,0.656354 h 1.81641 z "/>
<path d="M 23.550756,38.847913 V 41.145 h -1.3984 v -6.039591 h 1.3984 v 0.640752 Q 23.839819,35.36323 24.191381,35.183615 24.542944,35 25,35 q 0.808594,0 1.32812,0.644552 0.519531,0.640653 0.519531,1.652435 0,1.011882 -0.519531,1.656435 -0.519531,0.640652 -1.32812,0.640652 -0.457031,0 -0.808594,-0.179715 -0.351562,-0.183615 -0.640625,-0.566446 z m 0.9297,-2.83223 q -0.449219,0 -0.691407,0.332027 -0.238281,0.328126 -0.238281,0.949277 0,0.621151 0.238281,0.953278 0.242188,0.328126 0.691407,0.328126 0.449218,0 0.683593,-0.328126 0.238282,-0.328227 0.238282,-0.953278 0,-0.625051 -0.238282,-0.953178 -0.234375,-0.328126 -0.683593,-0.328126 z"/>
<path d="m 31.3047,35.2422 v 1.06259 q -0.449218,-0.187515 -0.867187,-0.281323 -0.417969,-0.09401 -0.789063,-0.09401 -0.398437,0 -0.59375,0.101508 -0.191406,0.09801 -0.191406,0.304725 0,0.168013 0.144531,0.257821 0.148438,0.09001 0.527344,0.132811 l .2461,.035 q 1.07422,0.136711 1.44531,0.449237 0.371094,0.312525 0.371094,0.98058 0,0.699257 -0.515625,1.05089 -0.515625,0.351529 -1.53906,0.351529 -0.433594,0 -0.898438,-0.07001 -0.460937,-0.066 -0.949219,-0.203116 v -1.06259 q 0.417969,0.203117 0.855469,0.304725 0.441406,0.101508 0.894531,0.101508 0.410157,0 0.617188,-0.113309 0.207031,-0.113209 0.207031,-0.335927 0,-0.187516 -0.144531,-0.277323 -0.140625,-0.09401 -0.566406,-0.144612 l -.2461,-.031 q -0.933594,-0.11721 -1.30859,-0.433635 -0.375,-0.316426 -0.375,-0.960979 0,-0.695456 0.476563,-1.03138 0.476562,-0.33592 1.46094,-0.33592 0.386719,0 0.8125,0.059 0.425781,0.059 0.925781,0.183615 z "/>
</g>
</svg>
