<svg width="48" version="1.1" xmlns="http://www.w3.org/2000/svg" height="48">
<g style="stroke:none" id="layer1" transform="translate(0,-1004.3622)">
<path style="fill:#d40000" id="rect3261" d="m 4.5,1009.9893 0,36.7458 39,0 0,-4.8994 0,-31.8464 -39,0 z  m 5.2,4.8994 28.6,0 0,19.5978 -10.4,-14.6983 -7.282,10.2869 -1.818,-2.9377 -9.1,14.6983 0,-26.947 z "/>
<g style="fill:none" id="g6">
<rect width="2" x="4.5" y="1045.8622" rx="1" height="2" ry="1" id="rect3281"/>
<rect width="2" x="17.5" y="1045.8622" rx="1" ry="1" height="2" id="rect3283"/>
</g>
<path style="fill:#fff" id="path4145" d="m 21.0977,1040.3618 0,.3985 -3.2695,0 q 0.05078,0.4921 0.355469,0.7382 0.304687,0.2461 0.851562,0.2461 0.441406,0 0.902344,-0.1289 0.464844,-0.1328 0.953125,-0.3984 v 1.0781 q -0.496094,0.1875 -0.992188,0.2813 -0.496093,0.098 -0.992187,0.098 -1.1875,0 -1.84766,-0.6015 -0.65625,-0.6055 -0.65625,-1.6954 0,-1.0703 0.644531,-1.6836 0.648437,-0.6132 1.78125,-0.6132 1.03125,0 1.64844,0.6211 0.621094,0.6211 0.621094,1.6601 z  m -1.4375,-.4648 q 0,-0.3985 -0.234375,-0.6407 -0.230469,-0.246 -0.605469,-0.246 -0.40625,0 -0.660156,0.2304 -0.253906,0.2266 -0.316406,0.6563 h 1.81641 z "/>
<path style="fill:#fff" id="path4147" d="m 23.5508,1041.9282 0,2.2969 -1.3984,0 0,-6.0391 1.3984,0 0,.6407 q 0.289063,-0.3829 0.640625,-0.5625 0.351563,-0.1836 0.808594,-0.1836 0.808594,0 1.32812,0.6445 0.519531,0.6406 0.519531,1.6523 0,1.0118 -0.519531,1.6563 -0.519531,0.6406 -1.32812,0.6406 -0.457031,0 -0.808594,-0.1797 -0.351562,-0.1836 -0.640625,-0.5664 z  m .9297,-2.832 q -0.449219,0 -0.691407,0.332 -0.238281,0.3281 -0.238281,0.9492 0,0.6211 0.238281,0.9532 0.242188,0.3281 0.691407,0.3281 0.449218,0 0.683593,-0.3281 0.238282,-0.3282 0.238282,-0.9532 0,-0.625 -0.238282,-0.9531 -0.234375,-0.3281 -0.683593,-0.3281 z "/>
<path style="fill:#fff" id="path4149" d="m 31.3047,1038.3228 0,1.0625 q -0.449218,-0.1875 -0.867187,-0.2813 -0.417969,-0.094 -0.789063,-0.094 -0.398437,0 -0.59375,0.1015 -0.191406,0.098 -0.191406,0.3047 0,0.168 0.144531,0.2578 0.148438,0.09 0.527344,0.1328 l .2461,.035 q 1.07422,0.1367 1.44531,0.4492 0.371094,0.3125 0.371094,0.9805 0,0.6992 -0.515625,1.0508 -0.515625,0.3515 -1.53906,0.3515 -0.433594,0 -0.898438,-0.07 -0.460937,-0.066 -0.949219,-0.2031 v -1.0625 q 0.417969,0.2031 0.855469,0.3047 0.441406,0.1015 0.894531,0.1015 0.410157,0 0.617188,-0.1133 0.207031,-0.1132 0.207031,-0.3359 0,-0.1875 -0.144531,-0.2773 -0.140625,-0.094 -0.566406,-0.1446 l -.2461,-.031 q -0.933594,-0.1172 -1.30859,-0.4336 -0.375,-0.3164 -0.375,-0.9609 0,-0.6954 0.476563,-1.0313 0.476562,-0.3359 1.46094,-0.3359 0.386719,0 0.8125,0.059 0.425781,0.059 0.925781,0.1836 z "/>
</g>
</svg>
