<svg width="48" version="1.1" xmlns="http://www.w3.org/2000/svg" height="48">
<g style="stroke:none" id="layer1" transform="translate(0,-1004.3622)">
<path style="fill:#db8b34" id="rect3261" d="m 4.5,1009.9893 0,36.7458 39,0 0,-4.8994 0,-31.8464 -39,0 z  m 5.2,4.8994 28.6,0 0,19.5978 -10.4,-14.6983 -7.282,10.2869 -1.818,-2.9377 -9.1,14.6983 0,-26.947 z "/>
<g style="fill:none" id="g6">
<rect width="2" x="4.5" y="1045.8622" rx="1" height="2" ry="1" id="rect3281"/>
<rect width="2" x="17.5" y="1045.8622" rx="1" ry="1" height="2" id="rect3283"/>
</g>
<path style="fill:#fff" id="path4145" d="m 17.4883,1041.9282 0,2.2969 -1.3984,0 0,-6.0391 1.3984,0 0,.6407 q 0.289063,-0.3829 0.640625,-0.5625 0.351563,-0.1836 0.808594,-0.1836 0.808594,0 1.32812,0.6445 0.519531,0.6406 0.519531,1.6523 0,1.0118 -0.519531,1.6563 -0.519531,0.6406 -1.32812,0.6406 -0.457031,0 -0.808594,-0.1797 -0.351562,-0.1836 -0.640625,-0.5664 z  m .9297,-2.832 q -0.449219,0 -0.691407,0.332 -0.238281,0.3281 -0.238281,0.9492 0,0.6211 0.238281,0.9532 0.242188,0.3281 0.691407,0.3281 0.449218,0 0.683593,-0.3281 0.238282,-0.3282 0.238282,-0.9532 0,-0.625 -0.238282,-0.9531 -0.234375,-0.3281 -0.683593,-0.3281 z "/>
<path style="fill:#fff" id="path4147" d="m 26.2227,1039.897 0,2.664 -1.4062,0 0,-.4336 0,-1.6054 q 0,-0.5664 -0.02734,-0.7813 -0.02344,-0.2148 -0.08594,-0.3164 -0.08203,-0.1367 -0.222656,-0.2109 -0.140625,-0.078 -0.320313,-0.078 -0.4375,0 -0.6875,0.3398 -0.25,0.3359 -0.25,0.9336 v 2.1523 h -1.39844 v -4.375 h 1.39844 v 0.6407 q 0.316406,-0.3829 0.671875,-0.5625 0.355469,-0.1836 0.785156,-0.1836 0.757813,0 1.14844,0.4648 0.394531,0.4649 0.394531,1.3516 z "/>
<path style="fill:#fff" id="path4149" d="m 30.5039,1041.8188 q -0.289062,0.3829 -0.636719,0.5625 -0.347656,0.1797 -0.804687,0.1797 -0.800781,0 -1.32422,-0.6289 -0.523437,-0.6328 -0.523437,-1.6093 0,-0.9805 0.523437,-1.6055 0.523438,-0.6289 1.32422,-0.6289 0.457031,0 0.804687,0.1797 0.347657,0.1797 0.636719,0.5664 v -0.6485 h 1.40625 v 3.9336 q 0,1.0547 -0.667969,1.6094 -0.664062,0.5586 -1.92969,0.5586 -0.410156,0 -0.792969,-0.062 -0.382812,-0.062 -0.769531,-0.1914 v -1.0899 q 0.367187,0.211 0.71875,0.3125 0.351562,0.1055 0.707031,0.1055 0.6875,0 1.00781,-0.3008 0.320312,-0.3007 0.320312,-0.9414 v -0.3008 z  m -.9219,-2.7226 q -0.433594,0 -0.675781,0.3203 -0.242188,0.3203 -0.242188,0.9063 0,0.6015 0.234375,0.914 0.234375,0.3086 0.683594,0.3086 0.4375,0 0.679688,-0.3203 0.242187,-0.3203 0.242187,-0.9023 0,-0.586 -0.242187,-0.9063 -0.242188,-0.3203 -0.679688,-0.3203 z "/>
</g>
</svg>
