<svg width="48" version="1.1" xmlns="http://www.w3.org/2000/svg" height="48">
<path style="fill:#fff" d="m 7.5,7.5 h 33 v 33 h -33 z"/>
<g style="fill:#626b73">
<path d="M 3,3 V 45 H 45 V 3 Z M 9,9 H 39 V 33 L 30.2,18.2001 20.357846,34 16.4,28.6001 9,39 Z"/>
<path d="M 22,17.5 A 4.5,4.5 0 0 1 17.5,22 4.5,4.5 0 0 1 13,17.5 4.5,4.5 0 0 1 17.5,13 4.5,4.5 0 0 1 22,17.5 Z"/>
</g>
<g style="fill:#fff">
<path d="m 14.8876,35.6 h 1.90986 l .6683,1.233 .775,-1.233 h 1.77542 l -1.4314,2.1078 1.5342,2.3162 h -1.87823 l -.775,-1.4247 -.9134,1.4247 h -1.74379 l 1.5263,-2.3162 z "/>
<path d="m 20.660661,41.707009 v -6.10703 h 1.50653 v 0.654026 Q 22.47957,35.841593 22.740545,35.695791 23.092467,35.5 23.519517,35.5 q 0.842238,0 1.30092,0.679021 0.462639,0.679021 0.462639,1.6788 0,1.10393 -0.502181,1.68714 -0.502179,0.579043 -1.26929,0.579043 -0.371692,0 -0.680117,-0.133305 -0.304472,-0.133306 -0.545676,-0.395749 V 41.707 Z m 1.6133,-3.8825 q 0,0.524887 0.209571,0.779 0.209571,0.254112 0.529859,0.254112 0.280746,0 0.470547,-0.241614 0.1898,-0.245782 0.1898,-0.82899 0,-0.537384 -0.197709,-0.787331 -0.197708,-0.254112 -0.482409,-0.254112 -0.308425,0 -0.514042,0.254112 -0.205617,0.254112 -0.205617,0.824823 z"/>
<path d="m 26.0661,35.6 h 1.50259 v 0.645695 q 0.324242,-0.404081 0.652438,-0.574877 0.332151,-0.170797 0.798743,-0.170797 0.502179,0 0.794788,0.18746 0.292609,0.18746 0.478455,0.558214 0.3796,-0.433241 0.69198,-0.587374 0.31238,-0.1583 0.771064,-0.1583 0.676163,0 1.05576,0.424909 0.3796,0.420743 0.3796,1.32055 v 2.77857 h -1.61331 v -2.52029 q 0,-0.3 -0.110716,-0.445738 -0.162122,-0.229117 -0.403326,-0.229117 -0.284701,0 -0.458684,0.21662 -0.173984,0.216621 -0.173984,0.695684 v 2.28285 h -1.61331 v -2.43698 q 0,-0.291605 -0.03164,-0.395749 -0.0514,-0.166631 -0.177938,-0.26661 -0.126533,-0.104143 -0.296562,-0.104143 -0.276792,0 -0.45473,0.220785 -0.177937,0.220787 -0.177937,0.724844 v 2.25785 h -1.61331 z "/>
</g>
</svg>
