<svg width="48" version="1.1" xmlns="http://www.w3.org/2000/svg" height="48">
<g style="stroke:none" id="layer1" transform="translate(0,-1004.3622)">
<path style="fill:#3498db" id="rect3261" d="m 4.5,1009.9893 0,36.7458 39,0 0,-4.8994 0,-31.8464 -39,0 z  m 5.2,4.8994 28.6,0 0,19.5978 -10.4,-14.6983 -7.282,10.2869 -1.818,-2.9377 -9.1,14.6983 0,-26.947 z "/>
<g style="fill:none" id="g6">
<rect width="2" x="4.5" y="1045.8622" rx="1" height="2" ry="1" id="rect3281"/>
<rect width="2" x="17.5" y="1045.8622" rx="1" ry="1" height="2" id="rect3283"/>
</g>
<path style="fill:#fff" id="path4145" d="m 19.582,1036.9438 0,1.2422 1.4414,0 0,1 -1.4414,0 0,1.8555 q 0,0.3047 0.121094,0.4141 0.121094,0.1054 0.480469,0.1054 h 0.71875 v 1 h -1.19922 q -0.828125,0 -1.17578,-0.3437 -0.34375,-0.3477 -0.34375,-1.1758 v -1.8555 h -0.695313 v -1 h 0.695313 v -1.2422 h 1.39844 z "/>
<path style="fill:#fff" id="path4147" d="m 21.8828,1038.186 1.3984,0 0,4.375 -1.3984,0 0,-4.375 z  m 0,-1.7031 1.3984,0 0,1.1406 -1.3984,0 0,-1.1406 z "/>
<path style="fill:#fff" id="path4149" d="m 27.5117,1036.4829 0,.918 -.7734,0 q -0.296875,0 -0.414062,0.1054 -0.117188,0.1094 -0.117188,0.375 v 0.3047 h 1.60156 v -0.3047 q 0,-0.7148 0.398437,-1.0546 0.398438,-0.3438 1.23438,-0.3438 h 1.07031 v 0.918 h -0.773438 q -0.296875,0 -0.414062,0.1054 -0.117188,0.1094 -0.117188,0.375 v 0.3047 h 1.19531 v 1 h -1.19531 v 3.375 h -1.39844 v -3.375 h -1.60156 v 3.375 h -1.39844 v -3.375 h -0.695313 v -1 h 0.695313 v -0.3047 q 0,-0.7148 0.398437,-1.0546 0.398438,-0.3438 1.23438,-0.3438 h 1.07031 z "/>
</g>
</svg>
