<svg width="48" version="1.1" xmlns="http://www.w3.org/2000/svg" height="48">
<g style="fill:#d40000">
<path d="M 3,3 V 45 H 45 V 3 Z M 9,9 H 39 V 33 L 30.2,18.2001 20.357846,34 16.4,28.6001 9,39 Z"/>
<path d="M 22,17.5 A 4.5,4.5 0 0 1 17.5,22 4.5,4.5 0 0 1 13,17.5 4.5,4.5 0 0 1 17.5,13 4.5,4.5 0 0 1 22,17.5 Z"/>
</g>
<g style="fill:#fff">
<path d="m 17.957,38.7033 v 2.2969 h -1.3984 v -6.0391 h 1.3984 v 0.6406 q 0.289063,-0.3828 0.640625,-0.5625 0.351563,-0.1835 0.808594,-0.1835 0.808594,0 1.32812,0.6445 0.519531,0.6406 0.519531,1.6523 0,1.0117 -0.519531,1.6563 -0.519531,0.6406 -1.32812,0.6406 -0.457031,0 -0.808594,-0.1797 -0.351562,-0.1836 -0.640625,-0.5664 z  m .9297,-2.832 q -0.449219,0 -0.691407,0.332 -0.238281,0.3281 -0.238281,0.9492 0,0.6211 0.238281,0.9532 0.242188,0.3281 0.691407,0.3281 0.449218,0 0.683593,-0.3281 0.238282,-0.3282 0.238282,-0.9532 0,-0.625 -0.238282,-0.9531 -0.234375,-0.3281 -0.683593,-0.3281 z "/>
<path d="m 25.7109,35.0978 v 1.0625 q -0.449218,-0.1875 -0.867187,-0.2812 -0.417969,-0.094 -0.789063,-0.094 -0.398437,0 -0.59375,0.1016 -0.191406,0.098 -0.191406,0.3047 0,0.168 0.144531,0.2578 0.148438,0.09 0.527344,0.1328 l .2461,.035 q 1.07422,0.1367 1.44531,0.4492 0.371094,0.3125 0.371094,0.9805 0,0.6992 -0.515625,1.0507 -0.515625,0.3516 -1.53906,0.3516 -0.433594,0 -0.898438,-0.07 -0.460937,-0.066 -0.949219,-0.2031 v -1.0625 q 0.417969,0.2031 0.855469,0.3047 0.441406,0.1015 0.894531,0.1015 0.410157,0 0.617188,-0.1133 0.207031,-0.1132 0.207031,-0.3359 0,-0.1875 -0.144531,-0.2773 -0.140625,-0.094 -0.566406,-0.1446 l -.2461,-.031 q -0.933594,-0.1172 -1.30859,-0.4336 -0.375,-0.3164 -0.375,-0.961 0,-0.6953 0.476563,-1.0312 0.476562,-0.3359 1.46094,-0.3359 0.386719,0 0.8125,0.059 0.425781,0.059 0.925781,0.1836 z "/>
<path d="M 30.03518,35.6017 V 33.258 h 1.4062 v 6.0781 h -1.4062 v -0.6328 q -0.289062,0.3867 -0.636719,0.5664 -0.347656,0.1797 -0.804687,0.1797 -0.808594,0 -1.32812,-0.6406 -0.519531,-0.6446 -0.519531,-1.6563 0,-1.0117 0.519531,-1.6523 0.519531,-0.6445 1.32812,-0.6445 0.453125,0 0.800781,0.1835 0.351563,0.1797 0.640625,0.5625 z m -0.9219,2.8321 q 0.449219,0 0.683594,-0.3281 0.238281,-0.3282 0.238281,-0.9532 0,-0.625 -0.238281,-0.9531 -0.234375,-0.3281 -0.683594,-0.3281 -0.445312,0 -0.683594,0.3281 -0.234375,0.3281 -0.234375,0.9531 0,0.625 0.234375,0.9532 0.238282,0.3281 0.683594,0.3281 z"/>
</g>
</svg>
