<svg width="48" version="1.1" xmlns="http://www.w3.org/2000/svg" height="48">
<path style="fill:#3498db;stroke:none" id="rect3261" d="M 3,3 V 45 H 45 V 39.4 3 Z M 9,9 H 39 V 31 L 28.2,14.2001 20.357846,25.9578 18.4,22.6001 9,39 Z"/>
<g style="fill:#fff;stroke:none" id="g846" transform="translate(44.997439,9.8534)">
<path id="path4145" d="m -23.5463,28.6778 q -0.289063,0.3829 -0.636719,0.5625 -0.347656,0.1797 -0.804687,0.1797 -0.800782,0 -1.32422,-0.6289 -0.523438,-0.6328 -0.523438,-1.6093 0,-0.9805 0.523438,-1.6055 0.523437,-0.6289 1.32422,-0.6289 0.457031,0 0.804687,0.1797 0.347656,0.1797 0.636719,0.5664 v -0.6485 h 1.40625 v 3.9336 q 0,1.0547 -0.667969,1.6094 -0.664062,0.5586 -1.92969,0.5586 -0.410157,0 -0.792969,-0.062 -0.382813,-0.062 -0.769531,-0.1914 v -1.0899 q 0.367187,0.211 0.71875,0.3125 0.351562,0.1055 0.707031,0.1055 0.6875,0 1.00781,-0.3008 0.320313,-0.3007 0.320313,-0.9414 v -0.3008 z  m -.9219,-2.7226 q -0.433594,0 -0.675781,0.3203 -0.242188,0.3203 -0.242188,0.9063 0,0.6015 0.234375,0.914 0.234375,0.3086 0.683594,0.3086 0.4375,0 0.679687,-0.3203 0.242188,-0.3203 0.242188,-0.9023 0,-0.586 -0.242188,-0.9063 -0.242187,-0.3203 -0.679687,-0.3203 z "/>
<path id="path4147" d="m -20.7885,25.045 h 1.3984 v 4.375 h -1.3984 z  m 0,-1.7031 h 1.3984 v 1.1406 h -1.3984 z "/>
<path id="path4149" d="m -15.1596,23.3419 v 0.918 h -0.7734 q -0.296875,0 -0.414062,0.1094 -0.117188,0.1054 -0.117188,0.371 v 0.3047 h 1.19531 v 1 h -1.19531 v 3.375 h -1.39844 v -3.375 h -0.695313 v -1 h 0.695313 v -0.3047 q 0,-0.7148 0.398437,-1.0546 0.398438,-0.3438 1.23438,-0.3438 h 1.07031 z "/>
</g>
</svg>
