<svg width="48" version="1.1" xmlns="http://www.w3.org/2000/svg" height="48">
<path style="fill:#fff" d="m 7.5,7.5 h 33 v 33 h -33 z"/>
<g style="fill:#4d7299">
<path d="M 3,3 V 45 H 45 V 3 Z M 9,9 H 39 V 33 L 30.2,18.2001 20.357846,34 16.4,28.6001 9,39 Z"/>
<path d="M 22,17.5 A 4.5,4.5 0 0 1 17.5,22 4.5,4.5 0 0 1 13,17.5 4.5,4.5 0 0 1 17.5,13 4.5,4.5 0 0 1 22,17.5 Z"/>
</g>
<g style="fill:#fff">
<path d="m 19.2507,35.4955 v 1.33539 h 1.54948 v 1.07502 h -1.54948 v 1.9947 q 0,0.327559 0.130173,0.445166 0.130174,0.113307 0.516495,0.113307 h 0.772643 v 1.07502 h -1.28914 q -0.890218,0 -1.26394,-0.369484 -0.369525,-0.373785 -0.369525,-1.26401 v -1.9947 h -0.747448 v -1.07502 h 0.747448 v -1.33539 h 1.5033 z "/>
<path d="m 21.7241,36.8309 h 1.50325 v 4.70322 h -1.50325 z  m 0,-1.8309 h 1.50325 v 1.22617 h -1.50325 z "/>
<path d="m 27.775,35 v 0.986869 h -0.831391 q -0.319135,0 -0.445108,0.113307 -0.125975,0.117607 -0.125975,0.403133 v 0.327559 h 1.72165 v -0.327559 q 0,-0.768425 0.428312,-1.13372 0.428314,-0.369592 1.32694,-0.369592 h 1.15056 v 0.986869 h -0.831431 q -0.319135,0 -0.445109,0.113307 -0.125975,0.117607 -0.125975,0.403133 v 0.327559 h 1.28494 v 1.07502 h -1.28494 v 3.6282 h -1.5033 v -3.6282 h -1.72165 v 3.6282 h -1.5033 v -3.6282 h -0.747448 v -1.07502 h 0.747448 v -0.327559 q 0,-0.768425 0.428313,-1.13372 0.428313,-0.369592 1.32693,-0.369592 h 1.15056 z "/>
</g>
</svg>
