<svg width="48" version="1.1" xmlns="http://www.w3.org/2000/svg" height="48" xmlns:xlink="http://www.w3.org/1999/xlink">
<defs id="defs4"/>
<g style="stroke:none" id="layer1" transform="translate(0,-1004.3622)">
<path style="fill:#9b59b6" id="rect3261" d="m 4.5,1009.9893 0,36.7458 39,0 0,-4.8994 0,-31.8464 z "/>
<g style="fill:none">
<rect width="2" x="4.5" y="1045.8622" rx="1" height="2" ry="1" id="rect3281"/>
<rect width="2" x="17.5" y="1045.8622" rx="1" ry="1" height="2" id="rect3283"/>
</g>
<path style="fill:#fff;fill-rule:evenodd" id="path4207" d="m 35.0671,1015.564 c -0.124449,0.057 -0.246296,0.2343 -0.346914,0.5361 -0.226612,0.6798 -1.58802,4.7978 -8.45209,6.213 a 3.87524,3.87524 0 0,1 1.29304,2.9645 3.87639,3.87639 0 0,1 -7.72673,0 3.87524,3.87524 0 0,1 0.946129,-2.523 c -4.31847,-0.4774 -6.18138,-4.3522 -6.18138,-4.3522 l -.0946,4.0368 a 3.08571,3.08571 0 0,1 5.04603,2.3653 3.08571,3.08571 0 0,1 -3.75298,3.0276 c 0.691096,1.8526 0.439172,3.7324 -0.819979,4.7307 -0.249047,0.1974 -0.527813,0.3021 -0.819979,0.41 4.40615,2.8695 11.6136,5.0757 16.4942,1.7976 -2.22766,-1.2362 -4.00528,-2.4914 -4.00528,-2.4914 -0.66859,-0.5639 -0.397875,-1.4589 0.567678,-1.0092 0,0 2.62445,0.7747 5.23525,1.9553 2.60325,-2.958 4.0285,-8.2632 3.05915,-17.0619 -0.04746,-0.372 -0.135792,-0.576 -0.283839,-0.5992 -0.03702,-0.01 -0.11621,-0.019 -0.157688,0 z  m -2.6176,17.6611 c -0.538226,0.6116 -1.17077,1.1243 -1.79765,1.5453 0.994571,0.5518 2.11011,1.0956 3.15376,1.5138 0.0023,0.079 0.01096,0.1827 0.03154,0.2523 l .3469,-.1261 c 0.06967,0.025 0.120075,0.039 0.189226,0.062 l .0946,.1262 2.523,.9461 c 0.0012,0.7849 0.455821,1.6184 1.41919,1.9869 1.90843,0.7303 3.68991,1.64 3.68991,1.64 -0.910344,-3.0901 -1.2478,-5.5482 -3.62683,-5.3299 -0.309273,0.028 -0.541823,0.1409 -0.756904,0.2839 l -2.3022,-1.4823 h -0.220763 c -0.03484,-0.021 -0.09089,-0.041 -0.126151,-0.063 l -.0946,-.3785 c -0.06559,0.041 -0.118339,0.1247 -0.189226,0.1893 -0.731481,-0.4224 -1.53439,-0.8054 -2.33379,-1.1669 z  m -17.9449,-10.7859 a 3.08571,3.08571 0 0,0 -1.13536,2.2392 c 0.396983,0.2946 0.819696,0.608 1.16689,1.0092 0.209662,-0.853 -0.06308,-1.5138 -0.06308,-1.5138 l .0315,-1.7346 z  m 6.276,.3154 c 0.35054,0.041 0.72065,0.041 1.10382,0.031 1.66256,-0.041 3.12033,-0.2124 4.38373,-0.473 a 3.87524,3.87524 0 0,0 -5.48755,0.4415 z  m -3.7747,.339 a 1.99341,1.99341 0 0,0 -0.199082,0.01 1.99341,1.99341 0 0,0 -1.82918,1.9869 2.00428,2.00428 0 0,0 4.00528,0 1.99341,1.99341 0 0,0 -1.97702,-1.9948 z  m -7.2635,.7333 c -0.559805,0.053 -1.07334,0.25 -1.51381,0.5992 -1.56612,1.2416 -1.50151,3.9542 0.189226,6.0868 1.69073,2.1326 4.33142,2.8816 5.89754,1.6399 1.56612,-1.2416 1.50151,-3.9856 -0.189226,-6.1183 -1.05671,-1.3328 -2.51161,-2.1117 -3.81606,-2.2076 -0.195668,-0.014 -0.381076,-0.018 -0.567678,0 z  m 14.6433,.406 a 1.99341,1.99341 0 0,0 -0.199082,0 1.99341,1.99341 0 0,0 -0.189226,0 1.99341,1.99341 0 0,0 -1.63996,1.9869 1.99341,1.99341 0 1,0 3.97374,0 1.99341,1.99341 0 0,0 -1.94351,-1.9908 1.99341,1.99341 0 0,1 -0.002,0 z "/>
</g>
</svg>
