<svg width="48" version="1.1" xmlns="http://www.w3.org/2000/svg" height="48">
<g style="stroke:none" id="layer1" transform="translate(0,-1004.3622)">
<path style="fill:#8e44ad" id="rect3261" d="m 4.5,1009.9893 0,36.7458 39,0 0,-4.8994 0,-31.8464 -39,0 z  m 5.2,4.8994 28.6,0 0,19.5978 -10.4,-14.6983 -7.282,10.2869 -1.818,-2.9377 -9.1,14.6983 0,-26.947 z "/>
<g style="fill:none" id="g6">
<rect width="2" x="4.5" y="1045.8622" rx="1" height="2" ry="1" id="rect3281"/>
<rect width="2" x="17.5" y="1045.8622" rx="1" ry="1" height="2" id="rect3283"/>
</g>
<path style="fill:#fff" id="path4145" d="m 16.9414,1041.6587 q 0.449219,0 0.683594,-0.3281 0.238281,-0.3282 0.238281,-0.9532 0,-0.625 -0.238281,-0.9531 -0.234375,-0.3281 -0.683594,-0.3281 -0.449219,0 -0.691406,0.332 -0.238281,0.3281 -0.238281,0.9492 0,0.6211 0.238281,0.9532 0.242187,0.3281 0.691406,0.3281 z  m -.9297,-2.832 q 0.289062,-0.3829 0.640625,-0.5625 0.351562,-0.1836 0.808593,-0.1836 0.808594,0 1.32812,0.6445 0.519532,0.6406 0.519532,1.6523 0,1.0118 -0.519532,1.6563 -0.519531,0.6406 -1.32812,0.6406 -0.457031,0 -0.808593,-0.1797 -0.351563,-0.1836 -0.640625,-0.5664 v 0.6328 h -1.39844 v -6.0781 h 1.39844 v 2.3438 z "/>
<path style="fill:#fff" id="path4147" d="m 24.4023,1038.9126 q 0.265625,-0.4063 0.628906,-0.6172 0.367187,-0.2148 0.804687,-0.2148 0.753907,0 1.14844,0.4648 0.394531,0.4649 0.394531,1.3516 v 2.664 h -1.40625 v -2.2812 q 0.0039,-0.051 0.0039,-0.1055 0.0039,-0.055 0.0039,-0.1562 0,-0.4649 -0.136719,-0.6719 -0.136719,-0.2109 -0.441406,-0.2109 -0.398438,0 -0.617188,0.3281 -0.214844,0.3281 -0.222656,0.9492 v 2.1484 h -1.40625 v -2.2812 q 0,-0.7266 -0.125,-0.9336 -0.125,-0.2109 -0.445313,-0.2109 -0.402343,0 -0.621093,0.332 -0.21875,0.3281 -0.21875,0.9414 v 2.1523 h -1.40625 v -4.375 h 1.40625 v 0.6407 q 0.257812,-0.3711 0.589843,-0.5586 0.335938,-0.1875 0.738282,-0.1875 0.453125,0 0.800781,0.2187 0.347656,0.2188 0.527344,0.6133 z "/>
<path style="fill:#fff" id="path4149" d="m 30.0898,1041.9282 0,2.2969 -1.3984,0 0,-6.0391 1.3984,0 0,.6407 q 0.289062,-0.3829 0.640625,-0.5625 0.351562,-0.1836 0.808593,-0.1836 0.808594,0 1.32813,0.6445 0.519532,0.6406 0.519532,1.6523 0,1.0118 -0.519532,1.6563 -0.519531,0.6406 -1.32812,0.6406 -0.457031,0 -0.808593,-0.1797 -0.351563,-0.1836 -0.640625,-0.5664 z  m .9297,-2.832 q -0.449219,0 -0.691406,0.332 -0.238281,0.3281 -0.238281,0.9492 0,0.6211 0.238281,0.9532 0.242187,0.3281 0.691406,0.3281 0.449219,0 0.683594,-0.3281 0.238281,-0.3282 0.238281,-0.9532 0,-0.625 -0.238281,-0.9531 -0.234375,-0.3281 -0.683594,-0.3281 z "/>
</g>
</svg>
