<svg width="48" version="1.1" xmlns="http://www.w3.org/2000/svg" height="48">
<g style="stroke:none" id="g3">
<path style="fill:#7b51ae;fill-opacity:.969" id="rect3261" d="M 3,3 V 45 H 45 V 3 Z"/>
</g>
<g style="stroke-width:1.106">
<rect width="13.79485" x="9.5322189" y="21.777288" rx="3.0035795e-17" ry="3.0035795e-17" height="12.869269" style="opacity:.7" id="rect11645" transform="matrix(0.94541426,-0.32587096,0.35874932,0.93343394,0,0)"/>
<rect width="13.794848" x="8.8213749" y="21.129591" rx="3.0035795e-17" ry="3.0035795e-17" height="12.869269" style="fill:#ffc05b" id="rect11641" transform="matrix(0.94541426,-0.32587096,0.35874932,0.93343394,0,0)"/>
</g>
<g style="stroke:none">
<g style="fill:#483751;fill-opacity:.862" id="g26" transform="matrix(1.1061064,0,0,1.1061064,-5.343729,-1117.7439)">
<path id="path11681" d="m 20.9281,1034.3521 c 2.12616,1.2409 4.72618,1.7794 6.88119,0.1951 1.66055,-1.2097 1.94486,-3.3325 1.39684,-5.4084 -0.96831,-3.5822 -4.81314,-7.5196 -4.81314,-7.5196 l -3.9768,-4.7899 c 0,0 -0.144216,-0.1717 -0.457373,-0.2614 -0.436769,-0.1171 -1.09192,0.2614 -0.721081,1.0262 l 4.4717,5.3281 c 0,0 3.44471,3.5007 4.09987,6.6653 0.313156,1.4829 0.226627,2.9579 -0.968311,3.8671 -1.60286,1.2214 -3.63426,0.5385 -5.41018,-0.5346 -2.38575,-1.4438 -4.40478,-3.7656 -4.40478,-3.7656 l -9.0437,-10.9118 -.1731,1.9315 8.2073,10.0222 c 0,0 2.19621,2.5637 4.9116,4.1558"/>
<path id="path11685" d="m 23.2232,1027.1732 c 2.1138,2.5481 0.168939,3.7032 -1.1867,3.0242 -1.97783,-0.9989 -4.6685,-4.3821 -4.6685,-4.3821 l -4.5839,-5.5919 c -0.572746,-0.7453 -1.2485,-0.359 -1.3886,0.09 -0.103016,0.3473 0.251349,0.6828 0.251349,0.6828 l 4.6375,5.6739 c 0,0 2.32807,2.5988 3.58481,3.7343 3.69194,3.3637 8.18738,0.1522 4.27293,-4.5538 -2.21681,-2.6574 -5.59972,-6.4776 -5.59972,-6.4776 l -4.0349,-4.9656 -1.5946,-.1327 -.0742,.7883 4.2739,4.8524 c 0,0 3.83616,4.5187 6.11066,7.258"/>
</g>
<g style="fill:#fff">
<g id="g30" transform="matrix(1.1061064,0,0,1.1061064,-5.343729,-1117.7439)">
<path id="path3877" d="m 20.8049,1033.3502 c 2.12616,1.2409 4.72618,1.7794 6.88119,0.1951 1.66055,-1.2097 1.94486,-3.3325 1.39684,-5.4084 -0.96831,-3.5822 -4.81271,-7.5195 -4.81271,-7.5195 l -3.9772,-4.79 c 0,0 -0.144216,-0.1717 -0.457373,-0.2614 -0.436769,-0.1171 -1.09192,0.2614 -0.721081,1.0262 l 4.5715,5.5276 c 0,0 3.34494,3.3012 4,6.4658 0.313156,1.4829 0.226627,2.9579 -0.968311,3.8671 -1.60286,1.2214 -3.63426,0.5385 -5.41018,-0.5346 -2.38575,-1.4438 -4.40478,-3.7656 -4.40478,-3.7656 l -9.2103,-11.0784 -.0065,2.0981 8.2073,10.0222 c 0,0 2.19621,2.5637 4.9116,4.1558"/>
<path id="path6173" d="m 23.1,1026.1713 c 2.1138,2.5481 0.168939,3.7032 -1.1867,3.0242 -1.97783,-0.9989 -4.6685,-4.3821 -4.6685,-4.3821 l -4.5839,-5.5919 c -0.572746,-0.7453 -1.2485,-0.359 -1.3886,0.09 -0.103016,0.3473 0.251349,0.6828 0.251349,0.6828 l 4.6375,5.6739 c 0,0 2.32807,2.5988 3.58481,3.7343 3.69194,3.3637 8.18738,0.1522 4.27293,-4.5538 -2.21681,-2.6574 -5.59972,-6.4776 -5.59972,-6.4776 l -4.0349,-4.9652 h -1.5946 l -.0742,.6552 4.2739,4.8524 c 0,0 3.83616,4.5187 6.11066,7.258"/>
</g>
<path id="text11559" d="m 12.4282,32.7802 h 3.1878 c 0.628398,0 1.13523,0.086 1.52048,0.2594 0.388404,0.1729 0.70892,0.421 0.96155,0.7444 0.252617,0.3234 0.43577,0.6996 0.549458,1.1287 0.113673,0.4291 0.170513,0.8837 0.17052,1.364 -7e-6,0.7525 -0.08527,1.3368 -0.255782,1.7531 -0.167369,0.413 -0.401046,0.7604 -0.701031,1.0422 -0.3,0.2786 -0.622091,0.4643 -0.966286,0.5571 -0.470517,0.1281 -0.896819,0.1921 -1.27891,0.1921 h -3.1878 v -7.041 m 2.1457,1.5946 v 3.8471 h 0.5258 c 0.448404,0 0.767342,-0.05 0.956814,-0.1489 0.189463,-0.1025 0.337879,-0.2786 0.44525,-0.5283 0.107359,-0.253 0.161042,-0.6612 0.161047,-1.2248 -5e-6,-0.746 -0.12,-1.2567 -0.36,-1.5321 -0.24,-0.2753 -0.637879,-0.413 -1.19365,-0.413 h -0.535247 m 5.3146,-1.5946 h 1.9326 v 1.3448 h -1.9326 v -1.3448 m 0,1.9404 h 1.9326 v 4.947 c -3e-6,0.6307 -0.04579,1.0774 -0.137364,1.34 -0.08842,0.2625 -0.254206,0.4754 -0.497354,0.6387 -0.243151,0.1633 -0.590509,0.245 -1.04207,0.245 -0.372621,0 -0.835239,-0.056 -1.38785,-0.1681 l 0.2889,-1.4217 c 0.154732,0.032 0.268413,0.048 0.341042,0.048 0.164206,0 0.288938,-0.058 0.3742,-0.1729 0.08526,-0.1121 0.127889,-0.3378 0.12789,-0.6772 v -4.7789 m 2.6052,-1.9404 h 2.2452 l 1.5631,5.0671 1.5394,-5.0671 h 2.1789 l -2.5768,7.041 h -2.3257 l -2.6241,-7.041 m 13.078,7.041 h -1.8 V 38.995 c -0.268417,0.3395 -0.539988,0.5812 -0.814713,0.7253 -0.271573,0.1441 -0.606299,0.2161 -1.00418,0.2161 -0.530512,0 -0.94734,-0.1601 -1.25049,-0.4803 -0.3,-0.3234 -0.449987,-0.8197 -0.449986,-1.4889 v -3.2467 h 1.93731 v 2.8049 c -2e-6,0.3202 0.05842,0.5475 0.175258,0.682 0.116836,0.1345 0.281042,0.2017 0.492618,0.2017 0.230516,0 0.418404,-0.09 0.563667,-0.269 0.148413,-0.1793 0.22262,-0.5011 0.222624,-0.9653 v -2.4543 h 1.92784 v 5.1006"/>
</g>
</g>
</svg>
