<svg width="48" version="1.1" xmlns="http://www.w3.org/2000/svg" height="48">
<path style="fill:#3498db;stroke:none" id="rect3261" d="M 3,3 V 45 H 45 V 39.4 3 Z M 9,9 H 39 V 31 L 28.2,14.2001 20.357846,25.9578 18.4,22.6001 9,39 Z"/>
<g style="fill:#fff;stroke:none" id="g846" transform="translate(58.511445,37.4091)">
<path id="path4145" d="m -38.9294,-2.0263 v 1.2422 h 1.4414 v 1 h -1.4414 v 1.8555 q 0,0.3047 0.121094,0.4141 0.121094,0.1054 0.480469,0.1054 h 0.71875 v 1 h -1.19922 q -0.828125,0 -1.17578,-0.3437 -0.34375,-0.3477 -0.34375,-1.1758 v -1.8555 h -0.695313 v -1 h 0.695313 v -1.2422 h 1.39844 z "/>
<path id="path4147" d="m -36.6286,-.7841 h 1.3984 v 4.375 h -1.3984 z  m 0,-1.7031 h 1.3984 v 1.1406 h -1.3984 z "/>
<path id="path4149" d="m -30.9997,-2.4872 v 0.918 h -0.7734 q -0.296875,0 -0.414062,0.1054 -0.117188,0.1094 -0.117188,0.375 v 0.3047 h 1.60156 v -0.3047 q 0,-0.7148 0.398437,-1.0546 0.398438,-0.3438 1.23438,-0.3438 h 1.07031 v 0.918 h -0.773438 q -0.296875,0 -0.414062,0.1054 -0.117188,0.1094 -0.117188,0.375 v 0.3047 h 1.19531 v 1 h -1.19531 v 3.375 h -1.39844 v -3.375 h -1.60156 v 3.375 h -1.39844 v -3.375 h -0.695313 v -1 h 0.695313 v -0.3047 q 0,-0.7148 0.398437,-1.0546 0.398438,-0.3438 1.23438,-0.3438 h 1.07031 z "/>
</g>
</svg>
