<svg width="48" version="1.1" xmlns="http://www.w3.org/2000/svg" height="48">
<g transform="matrix(1.1470591,0,0,0.91699996,-3.5294177,1.9890939)">
<path style="fill:#059b90" d="m 5.6923,1.1024 v 45.8015 h 36.6154 v -45.8015 Z "/>
</g>
<path style="fill:#fff" d="m 39.259,12 c -0.767,0 -1.4236,0.403107 -1.7824,1 h -7.55093 c 0,0 -1.50267,-0.02552 -3.04626,0.718747 -1.5436,0.744253 -3.17586,2.44787 -3.17586,5.2812 0,2.83333 1.63227,4.53693 3.17586,5.2812 0.73224,0.35304 1.45147,0.50224 2.0092,0.593746 v 0.437507 l -2.8519,2.75 c -0.08777,-0.02328 -0.1638,-0.06249 -0.259253,-0.06249 -0.572746,0 -1.03704,0.44772 -1.03704,1 0,0.55228 0.464293,1 1.03704,1 0.572746,0 1.03704,-0.44772 1.03704,-1 0,-0.09205 -0.04067,-0.165346 -0.06481,-0.25 l 2.8519,-2.75 h 3.4352 v -1 h 1.03704 c 0,0 1.08995,0.02552 2.13893,0.531253 1.04895,0.505747 2.0092,1.30208 2.0092,3.4688 0,2.16672 -0.960306,2.96307 -2.0092,3.4688 -1.04895,0.505746 -2.13893,0.531253 -2.13893,0.531253 h -7.55093 c -0.358667,-0.597333 -1.01467,-1 -1.78133,-1 -1.14548,0 -2.07413,0.89544 -2.07413,2 0,1.10457 0.928599,2 2.07413,2 0.767,0 1.4236,-0.403106 1.7824,-1 h 7.55093 c 0,0 1.50267,0.02552 3.04626,-0.718747 1.5436,-0.744253 3.17587,-2.44787 3.17587,-5.2812 0,-2.83333 -1.63227,-4.53693 -3.17587,-5.2812 -1.5436,-0.744253 -3.04626,-0.718746 -3.04626,-0.718746 h -1.03704 v -0.312507 l 2.8519,-2.75 c 0.08777,0.02328 0.1638,0.06249 0.259253,0.06249 0.572747,0 1.03704,-0.44772 1.03704,-1 0,-0.55228 -0.464293,-1 -1.03704,-1 -0.572746,0 -1.03704,0.447719 -1.03704,1 0,0.09205 0.04067,0.165347 0.06481,0.25 l -2.8519,2.75 h -3.4352 v 0.843747 c -0.34172,-0.07868 -0.714266,-0.188134 -1.10185,-0.375 -1.04895,-0.505747 -2.0092,-1.30208 -2.0092,-3.4688 0,-2.16672 0.960306,-2.96307 2.0092,-3.4688 1.048,-0.505333 2.13733,-0.530667 2.13733,-0.530667 h 7.55093 c 0.358854,0.596893 1.01541,1 1.7824,1 1.14548,0 2.07413,-0.895426 2.07413,-2 0,-1.10457 -0.928587,-2 -2.07413,-2 z"/>
<g style="fill-rule:evenodd">
<path style="fill:#34495e" d="m 10,2.9918 h 8.9684 V 20.1406 H 10 Z"/>
<g style="fill:#fff">
<path d="m 13.6187,2.9918 h 5.38091 V 4.68307 H 13.6187 Z"/>
<path d="m 10.0438,4.6861 h 5.38091 V 6.37737 H 10.0438 Z"/>
<path d="m 13.6191,6.3776 h 5.38091 V 8.06887 H 13.6191 Z"/>
<path d="m 10.0385,8.0735 h 5.38091 V 9.76477 H 10.0385 Z"/>
<path d="m 13.6136,9.7649 h 5.38091 v 1.69127 H 13.6136 Z"/>
<path d="m 10.0385,11.4592 h 5.38091 v 1.69127 H 10.0385 Z"/>
<path d="m 13.6136,13.1507 h 5.38091 v 1.69127 H 13.6136 Z"/>
<path d="m 10.0027,14.8451 h 5.38091 v 1.69127 H 10.0027 Z"/>
<path d="m 13.5776,16.5365 h 5.38091 v 1.69127 H 13.5776 Z"/>
<path d="m 10.0027,18.2308 h 5.38091 v 1.69128 H 10.0027 Z"/>
<path d="m 10,20.047 h 9 v 11.272 h -9 z"/>
</g>
<path style="fill:#2c3e50" d="m 11.9028,21.1723 h 5.24902 v 2.6666 H 11.9028 Z"/>
</g>
</svg>
