<svg width="48" version="1.1" xmlns="http://www.w3.org/2000/svg" height="48">
<path style="fill:#fff" d="m 7.5,7.5 h 33 v 33 h -33 z "/>
<g style="fill:#ad523d">
<path d="M 3,3 V 45 H 45 V 3 Z M 9,9 H 39 V 33 L 30.2,18.2001 20.357846,34 16.4,28.6001 9,39 Z"/>
<path d="M 22,17.5 A 4.5,4.5 0 0 1 17.5,22 4.5,4.5 0 0 1 13,17.5 4.5,4.5 0 0 1 17.5,13 4.5,4.5 0 0 1 22,17.5 Z"/>
</g>
<g style="fill:#fff">
<path d="m 14.9753,34.8981 h 1.45465 v 4.2969 q 0,0.8789 -0.438845,1.3399 -0.438846,0.4648 -1.27184,0.4648 h -0.719219 v -0.918 h 0.25193 q 0.414465,0 0.568873,-0.1797 0.154409,-0.1796 0.154409,-0.707 v -4.2969 z  m 0,-1.7031 h 1.45465 v 1.1406 h -1.45465 z "/>
<path d="m 19.2906,38.6403 v 2.2969 h -1.45465 v -6.0391 h 1.45465 v 0.6407 q 0.300691,-0.3829 0.666395,-0.5625 0.365705,-0.1836 0.84112,-0.1836 0.841121,0 1.38154,0.6445 0.54043,0.6406 0.54043,1.6523 0,1.0118 -0.54043,1.6563 -0.540429,0.6406 -1.38154,0.6406 -0.475415,0 -0.84112,-0.1797 -0.365704,-0.1836 -0.666395,-0.5664 z  m .9671,-2.832 q -0.467289,0 -0.719219,0.332 -0.247867,0.3281 -0.247867,0.9492 0,0.6211 0.247867,0.9532 0.25193,0.3281 0.719219,0.3281 0.467288,0 0.711091,-0.3281 0.247867,-0.3282 0.247867,-0.9532 0,-0.625 -0.247867,-0.9531 -0.243803,-0.3281 -0.711091,-0.3281 z "/>
<path d="m 28.3438,37.0739 v 0.3985 h -3.40102 q 0.05282,0.4921 0.369768,0.7382 0.316943,0.2461 0.885817,0.2461 0.459162,0 0.938642,-0.1289 0.483543,-0.1328 0.991465,-0.3984 v 1.0781 q -0.51605,0.1875 -1.0321,0.2813 -0.516048,0.098 -1.0321,0.098 -1.23527,0 -1.92198,-0.6015 -0.682649,-0.6055 -0.682649,-1.6954 0,-1.0703 0.670458,-1.6836 0.674521,-0.6132 1.8529,-0.6132 1.07273,0 1.71475,0.6211 0.646078,0.6211 0.646078,1.6601 z  m -1.4953,-.4648 q 0,-0.3985 -0.243803,-0.6407 -0.23974,-0.246 -0.629825,-0.246 -0.422591,0 -0.686711,0.2304 -0.26412,0.2266 -0.329134,0.6563 h 1.88948 z "/>
<path d="m 32.5372,38.5309 q -0.300689,0.3829 -0.662331,0.5625 -0.361641,0.1797 -0.837057,0.1797 -0.832993,0 -1.37749,-0.6289 -0.544492,-0.6328 -0.544492,-1.6093 0,-0.9805 0.544492,-1.6055 0.544494,-0.6289 1.37749,-0.6289 0.475416,0 0.837057,0.1797 0.361642,0.1797 0.662331,0.5664 v -0.6485 h 1.46282 v 3.9336 q 0,1.0547 -0.694839,1.6094 -0.690774,0.5586 -2.00731,0.5586 -0.426655,0 -0.824867,-0.062 -0.398211,-0.062 -0.800486,-0.1914 v -1.0899 q 0.381957,0.211 0.747662,0.3125 0.365704,0.1055 0.735472,0.1055 0.715155,0 1.04835,-0.3008 0.333197,-0.3007 0.333197,-0.9414 v -0.3008 z  m -.959,-2.7226 q -0.451036,0 -0.702965,0.3203 -0.25193,0.3203 -0.25193,0.9063 0,0.6015 0.243803,0.914 0.243803,0.3086 0.711092,0.3086 0.455099,0 0.707029,-0.3203 0.251929,-0.3203 0.251929,-0.9023 0,-0.586 -0.251929,-0.9063 -0.25193,-0.3203 -0.707029,-0.3203 z "/>
</g>
</svg>
