<svg width="48" version="1.1" xmlns="http://www.w3.org/2000/svg" height="48">
<g style="fill:#3498db">
<path d="M 3,3 V 45 H 45 V 3 Z M 9,9 H 39 V 33 L 30.2,18.2001 20.357846,34 16.4,28.6001 9,39 Z"/>
<path d="M 22,17.5 A 4.5,4.5 0 0 1 17.5,22 4.5,4.5 0 0 1 13,17.5 4.5,4.5 0 0 1 17.5,13 4.5,4.5 0 0 1 22,17.5 Z"/>
</g>
<g style="fill:#fff">
<path d="m 21.3804,39.4841 q -0.297089,0.393532 -0.654399,0.578119 -0.357309,0.184689 -0.82703,0.184689 -0.823017,0 -1.36099,-0.646362 -0.537973,-0.650371 -0.537973,-1.65398 0,-1.00773 0.537973,-1.65008 0.537971,-0.646362 1.36099,-0.646362 0.469721,0 0.82703,0.18469 0.35731,0.184689 0.654399,0.582127 v -0.666507 h 1.4453 v 4.04282 q 0,1.08399 -0.686516,1.65409 -0.682501,0.57411 -1.98327,0.57411 -0.421545,0 -0.814987,-0.06372 -0.393442,-0.06372 -0.790898,-0.196715 v -1.12016 q 0.377383,0.216859 0.738707,0.321177 0.361324,0.10843 0.726663,0.10843 0.70659,0 1.03579,-0.309152 0.329207,-0.30905 0.329207,-0.96754 v -0.309152 z  m -.9475,-2.7982 q -0.445634,0 -0.694545,0.329194 -0.248913,0.329194 -0.248913,0.931465 0,0.618202 0.240883,0.939379 0.240883,0.317168 0.702575,0.317168 0.449648,0 0.698559,-0.329193 0.248913,-0.329194 0.248913,-0.927354 0,-0.602271 -0.248913,-0.931465 -0.248911,-0.329194 -0.698559,-0.329194 z "/>
<path d="m 24.2148,35.7504 h 1.43723 v 4.49648 h -1.43723 z  m 0,-1.7504 h 1.43723 v 1.17227 h -1.43723 z "/>
<path d="m 30,34 v 0.943489 h -0.794875 q -0.305118,0 -0.425559,0.112438 -0.120442,0.108327 -0.120442,0.381301 v 0.313161 h 1.2285 v 1.02777 h -1.2285 v 3.46871 h -1.43727 v -3.46871 h -0.71462 v -1.02777 h 0.71462 v -0.313161 q 0,-0.734647 0.4095,-1.08388 0.409502,-0.353346 1.26865,-0.353346 h 1.1 Z "/>
</g>
</svg>
