<svg width="48" version="1.1" xmlns="http://www.w3.org/2000/svg" height="48">
<g style="stroke:none" id="layer1" transform="translate(0,-1004.3622)">
<path style="fill:#8e44ad" id="rect3261" d="m 4.5,1009.9893 0,36.7458 39,0 0,-4.8994 0,-31.8464 -39,0 z  m 5.2,4.8994 28.6,0 0,19.5978 -10.4,-14.6983 -7.282,10.2869 -1.818,-2.9377 -9.1,14.6983 0,-26.947 z "/>
<g style="fill:none" id="g6">
<rect width="2" x="4.5" y="1045.8622" rx="1" height="2" ry="1" id="rect3281"/>
<rect width="2" x="17.5" y="1045.8622" rx="1" ry="1" height="2" id="rect3283"/>
</g>
<path style="fill:#fff" id="path4145" d="m 18.9805,1036.9438 0,1.2422 1.4414,0 0,1 -1.4414,0 0,1.8555 q 0,0.3047 0.121093,0.4141 0.121094,0.1054 0.480469,0.1054 h 0.71875 v 1 h -1.19922 q -0.828125,0 -1.17578,-0.3437 -0.34375,-0.3477 -0.34375,-1.1758 v -1.8555 h -0.695312 v -1 h 0.695312 v -1.2422 h 1.39844 z "/>
<path style="fill:#fff" id="path4147" d="m 24.2578,1041.8188 q -0.289062,0.3829 -0.636718,0.5625 -0.347657,0.1797 -0.804688,0.1797 -0.800781,0 -1.32422,-0.6289 -0.523437,-0.6328 -0.523437,-1.6093 0,-0.9805 0.523437,-1.6055 0.523438,-0.6289 1.32422,-0.6289 0.457031,0 0.804688,0.1797 0.347656,0.1797 0.636718,0.5664 v -0.6485 h 1.40625 v 3.9336 q 0,1.0547 -0.667968,1.6094 -0.664063,0.5586 -1.92969,0.5586 -0.410156,0 -0.792969,-0.062 -0.382812,-0.062 -0.769531,-0.1914 v -1.0899 q 0.367188,0.211 0.71875,0.3125 0.351563,0.1055 0.707031,0.1055 0.6875,0 1.00781,-0.3008 0.320312,-0.3007 0.320312,-0.9414 v -0.3008 z  m -.9219,-2.7226 q -0.433593,0 -0.675781,0.3203 -0.242187,0.3203 -0.242187,0.9063 0,0.6015 0.234375,0.914 0.234375,0.3086 0.683593,0.3086 0.4375,0 0.679688,-0.3203 0.242187,-0.3203 0.242187,-0.9023 0,-0.586 -0.242187,-0.9063 -0.242188,-0.3203 -0.679688,-0.3203 z "/>
<path style="fill:#fff" id="path4149" d="m 28.9766,1040.5923 q -0.4375,0 -0.660156,0.1484 -0.21875,0.1485 -0.21875,0.4375 0,0.2656 0.175781,0.418 0.179688,0.1484 0.496094,0.1484 0.394531,0 0.664063,-0.2812 0.269531,-0.2852 0.269531,-0.711 v -0.1601 h -0.726563 z  m 2.1367,-.5274 0,2.4961 -1.4102,0 0,-.6484 q -0.28125,0.3984 -0.632813,0.582 -0.351562,0.1797 -0.855468,0.1797 -0.679688,0 -1.10547,-0.3945 -0.421875,-0.3985 -0.421875,-1.0313 0,-0.7695 0.527344,-1.1289 0.53125,-0.3593 1.66406,-0.3593 h 0.824219 v -0.1094 q 0,-0.3321 -0.261719,-0.4844 -0.261719,-0.1562 -0.816406,-0.1562 -0.449219,0 -0.835938,0.09 -0.386718,0.09 -0.71875,0.2695 v -1.0664 q 0.449219,-0.1094 0.902344,-0.164 0.453125,-0.059 0.90625,-0.059 1.18359,0 1.70703,0.4687 0.527344,0.4649 0.527344,1.5156 z "/>
</g>
</svg>
