<svg width="48" version="1.1" xmlns="http://www.w3.org/2000/svg" height="48">
<g style="fill:#4d4d4d" id="layer1" transform="matrix(1.2352941,0,0,1.05,-5.6470586,-1.2)">
<path style="fill:#d35400" id="rect4090" d="M 0,0 V 40 H 34 V 0.06980703 L 23,0 Z" transform="translate(7,4)"/>
</g>
<g style="stroke:none" id="g8" transform="matrix(0.97251157,0,0,0.98214899,0.78806943,0.63616052)">
<path style="fill:#fff" id="path3994" d="m 11.3425,10.2213 c -0.412218,0 -0.702081,0.297554 -0.702081,0.72071 v 3.29467 12.4805 6.62311 3.03156 0.263116 c 0,0.394531 0.255888,0.67247 0.624072,0.70927 0.02671,0.0027 0.05012,0.01144 0.07801,0.01144 h 1.78306 21.4839 1.78306 c 0.02576,0 0.05324,-0.0031 0.07801,-0.01144 0.368184,-0.0368 0.624072,-0.314739 0.624072,-0.70927 V 36.37185 33.34029 26.71718 20.8371 c -3.32223,-3.40022 -7.035,-7.21058 -10.3522,-10.6158 h -15.1435 z"/>
<path style="fill:#d35400" id="path3998" d="m 11.5085,11.0521 v 3.8244 17.6438 3.8244 h 2.0746 22.512 v -3.8244 -11.5438 l -9.6864,-9.9245 Z "/>
</g>
<g style="fill:#fff" id="g9">
<rect width="14.429908" x="16.65221" y="19.487537" height="8.6021214" style="stroke:#fff;stroke-linejoin:round;stroke-linecap:round;stroke-width:2;stroke-dashoffset:2.25" id="rect3256"/>
<path style="fill-rule:evenodd;stroke:none" id="path8085" d="m 22.37,27.971 0,1.9452 .0112,0 -4.8284,4.2559 3.435,0 2.6972,-3.391 2.6989,3.391 3.4372,0 -4.8303,-4.2558 0,-1.9452 z "/>
</g>
</svg>
