<svg width="48" version="1.1" xmlns="http://www.w3.org/2000/svg" height="48" xmlns:xlink="http://www.w3.org/1999/xlink">
<defs id="defs4"/>
<path style="fill:#4d4d4d" id="rect4090" d="m 4.5,5.6271 0,36.7458 39,0 0,-36.6816 -12.6176,-.0641 z "/>
<path style="fill:#fff;stroke:none" id="path3994" d="m 12.2066,10.8121 c -0.404236,0 -0.688484,0.297132 -0.688484,0.719687 v 3.29 12.0633 6.21444 3.02725 0.262743 c 0,0.39397 0.250932,0.671514 0.611986,0.708263 0.0262,0.0027 0.04915,0.01142 0.0765,0.01142 h 1.74853 20.283 1.74853 c 0.02526,0 0.05221,-0.0031 0.0765,-0.01142 0.361055,-0.03675 0.611987,-0.314292 0.611987,-0.708263 v -0.262743 -3.02725 -6.21444 -5.87173 c -3.25789,-3.39539 -6.50601,-6.80086 -9.75898,-10.2013 h -14.4582 -0.251352 z "/>
</svg>
