<svg width="48" version="1.1" xmlns="http://www.w3.org/2000/svg" height="48">
<g style="fill:#f3c312" id="layer1" transform="matrix(1.2352941,0,0,0.91864444,-5.6470591,1.9525339)">
<path id="rect4090" d="m 7,1.1402 v 45.7195 h 34 v -45.7195 Z "/>
</g>
<g style="stroke:none" id="g8" transform="matrix(1.0032968,0,0,0.97772988,-0.13376244,0.4607009)">
<path style="fill:#fff" id="path3994" d="m 11.9122,10.447 c -0.398704,0 -0.691902,0.299129 -0.679064,0.724054 v 3.30996 12.5366 6.65235 3.04562 0.264337 c 0,0.396361 0.247499,0.675589 0.603612,0.71256 0.02584,0.0027 0.04848,0.01149 0.07545,0.01149 h 1.72461 20.8053 1.72461 c 0.02492,0 0.0515,-0.0032 0.07545,-0.01149 0.356113,-0.03697 0.743857,-0.34184 0.603612,-0.71256 v -0.264337 -3.04562 -6.65235 -5.90736 c -3.21331,-3.41599 -6.81716,-7.24227 -10.0256,-10.6633 h -14.6601 z"/>
<path style="fill:#f3c312" id="path3998" d="m 12.0863,11.2802 v 3.8422 17.7261 3.8422 h 2.0066 21.7736 v -3.8422 -11.5981 l -9.3691,-9.9702 Z "/>
</g>
<g id="g4194" transform="matrix(0.64792118,0,0,0.64792118,7.099372,8.6446092)">
<g style="fill:#fff;fill-rule:evenodd;stroke:none" id="g4162" transform="translate(1.855339,1.8230637)">
<path id="path4178" d="m 14.6817,12.384 3.2813,5.625 0,8.7188 -11.5,.0312 z "/>
<path id="path4176" d="m 19.75,17.9531 12.2812,0 0,2.2935 c -4.78563,1.4264 -7.24079,5.30021 -6.31925,9.98775 h -5.962 z "/>
<path id="path1306" d="m 34.3498,21.5098 c 3.97729,0 7.1875,3.21021 7.1875,7.1875 0,3.97729 -3.21021,7.21875 -7.1875,7.21875 -3.97729,0 -7.21875,-3.24146 -7.21875,-7.21875 0,-3.97729 3.24146,-7.1875 7.21875,-7.1875 z"/>
</g>
</g>
</svg>
