<svg width="48" version="1.1" xmlns="http://www.w3.org/2000/svg" height="48">
<g style="fill:#4d4d4d" id="layer1" transform="matrix(1.1470591,0,0,0.91864444,-3.5294177,1.9525339)">
<path id="rect4090" d="M 0,0 0,40 34,40 34,0.06980703 23,0 z" transform="translate(7,4)"/>
</g>
<g style="stroke:none" id="g8">
<path style="fill:#fff" id="path3994" d="m 11.807,10.4122 c -0.404235,0 -0.688484,0.297131 -0.688484,0.719686 v 3.29 12.4633 6.614 3.02725 0.262742 c 0,0.393971 0.250932,0.671515 0.611986,0.708263 0.0262,0.0027 0.04919,0.01298 0.0765,0.01142 h 1.74853 21.083 1.74853 c 0.02526,0 0.05221,-0.0031 0.0765,-0.01142 0.361054,-0.03675 0.611987,-0.314292 0.611987,-0.708263 v -0.262742 -3.02725 -6.614 -5.87173 c -3.25789,-3.39539 -6.90637,-7.20087 -10.1593,-10.6013 h -14.8578 z "/>
<path style="fill:#4d4d4d" id="path3998" d="m 11.7756,11.141 0,3.819 0,17.822 0,3.819 2.0344,0 22.3789,0 0,-3.819 0,-11.6294 -9.6001,-10.0116 z "/>
<g style="fill:#fff" id="g12">
<path id="path4230" d="m 15.3551,23.8191 -1.9497,-3.5751 1.829,0 1.1051,2.17 1.1197,-2.17 1.829,0 -1.9497,3.5621 2.0462,3.7582 -1.829,0 -1.2162,-2.3137 -1.2016,2.3137 -1.829,0 2.0462,-3.7452 z "/>
<path id="path4232" d="m 24.2445,19.172 0,3.4249 2.5191,0 0,1.5425 -2.5191,0 0,3.4249 -1.1485,0 0,-3.4249 -2.5191,0 0,-1.5425 2.5191,0 0,-3.4249 1.1485,0 z "/>
<path id="path4234" d="m 27.9316,20.2438 1.7277,0 1.4526,4.9674 1.2354,-4.9674 1.7277,0 -2.273,8.0131 q -0.342643,1.22222 -0.801108,1.70589 -0.45364,0.490198 -1.20167,0.490198 h -0.998974 v -1.53595 h 0.540506 q 0.439162,0 0.637026,-0.189543 0.20269,-0.189543 0.313687,-0.679741 l .0483,-.2026 -2.4082,-7.6013 z "/>
</g>
</g>
</svg>
