<svg width="48" version="1.1" xmlns="http://www.w3.org/2000/svg" height="48">
<path style="fill:#2980b9" d="m 3,3 v 42 h 42 v -41.9267 l -13.5882,-.0733 Z "/>
<path style="fill:#fff" d="m 11.8181,10.675 c -0.400484,0 -0.682096,0.292124 -0.682096,0.707558 v 25.2348 c 0,0.387331 0.248604,0.660199 0.606308,0.696327 0.02596,0.0026 0.0487,0.01123 0.07579,0.01123 h 24.3628 l .0758,-.0112 c 0.357704,-0.03613 0.606307,-0.308996 0.606307,-0.696327 v -0.258316 -15.2569 c -3.22766,-3.33818 -6.84735,-7.0841 -10.0702,-10.4272 h -14.7258 Z "/>
<path style="fill:#2980b9" d="m 11.9932,11.4967 v 24.8306 h 23.8868 v -15.0882 l -9.4113,-9.7425 Z "/>
<g style="fill:#fff">
<rect width="15.206028" x="16.396564" y="18.677727" height="1.9705477"/>
<rect width="15.206028" x="16.396564" y="23.01461" height="1.9705477"/>
<rect width="15.206028" x="16.396564" y="27.35149" height="1.9705477"/>
</g>
</svg>
