<svg width="48" version="1.1" xmlns="http://www.w3.org/2000/svg" height="48">
<g id="layer1" transform="matrix(1.2352941,0,0,1.05,-5.6470589,-1.2)">
<path style="fill:#8e44ad" id="rect4090" d="M 0,0 V 40 H 34 V 0 Z" transform="translate(7,4)"/>
</g>
<g style="stroke:none" id="g9">
<path style="fill:#fff" id="path3994" d="m 11.8188,10.6752 c -0.400547,0 -0.695041,0.29228 -0.682204,0.707452 v 3.23407 12.258 6.50852 2.97579 0.258276 c 0,0.387273 0.248644,0.6601 0.606404,0.696223 0.02596,0.0026 0.04875,0.01279 0.0758,0.01123 h 1.73258 20.8972 1.73258 c 0.02503,0 0.05174,-0.0031 0.0758,-0.01123 0.35776,-0.03612 0.606404,-0.30895 0.606404,-0.696223 v -0.258276 -2.97579 -6.50852 -5.77191 c -3.22817,-3.33767 -6.84631,-7.08498 -10.0696,-10.4276 h -14.7259 z "/>
<path style="fill:#8e44ad" id="path3998" d="m 11.991,11.4979 v 3.7541 17.3189 3.7541 h 2.0159 21.875 v -3.7541 -11.3313 l -9.4125,-9.7417 z "/>
<path style="fill:#fff;color:#000;stroke-width:2" id="path4246" d="m 17.1388,18.0279 0,.7026 4.1167,0 0,-.7026 -4.1167,0 z  m 4.8029,0 0,.7026 4.1167,0 0,-.7026 -4.1167,0 z  m 4.8029,0 0,.7026 4.1167,0 0,-.7026 -4.1167,0 z  m -9.6057,1.4052 0,.7026 4.1167,0 0,-.7026 -4.1167,0 z  m 4.8029,0 0,.7026 4.1167,0 0,-.7026 -4.1167,0 z  m 4.8029,0 0,.7026 4.1167,0 0,-.7026 -4.1167,0 z  m -9.6057,1.4052 0,.7026 4.1167,0 0,-.7026 -4.1167,0 z  m 4.8029,0 0,.7026 4.1167,0 0,-.7026 -4.1167,0 z  m 4.8029,0 0,.7026 4.1167,0 0,-.7026 -4.1167,0 z  m -9.6057,1.4052 0,.7026 4.1167,0 0,-.7026 -4.1167,0 z  m 4.8029,0 0,.7026 4.1167,0 0,-.7026 -4.1167,0 z  m 4.8029,0 0,.7026 4.1167,0 0,-.7026 -4.1167,0 z  m -9.6057,1.4052 0,.7026 4.1167,0 0,-.7026 -4.1167,0 z  m 4.8029,0 0,.7026 4.1167,0 0,-.7026 -4.1167,0 z  m 4.8029,0 0,.7026 4.1167,0 0,-.7026 -4.1167,0 z  m -9.6057,1.4052 0,.7026 4.1167,0 0,-.7026 -4.1167,0 z  m 4.8029,0 0,.7026 4.1167,0 0,-.7026 -4.1167,0 z  m 4.8029,0 0,.7026 4.1167,0 0,-.7026 -4.1167,0 z  m -9.6057,1.4052 0,.7026 4.1167,0 0,-.7026 -4.1167,0 z  m 4.8029,0 0,.7026 4.1167,0 0,-.7026 -4.1167,0 z  m 4.8029,0 0,.7026 4.1167,0 0,-.7026 -4.1167,0 z  m -9.6057,1.4052 0,.7026 4.1167,0 0,-.7026 -4.1167,0 z  m 4.8029,0 0,.7026 4.1167,0 0,-.7026 -4.1167,0 z  m 4.8029,0 0,.7026 4.1167,0 0,-.7026 -4.1167,0 z  m -9.6057,1.4052 0,.7026 4.1167,0 0,-.7026 -4.1167,0 z  m 4.8029,0 0,.7026 4.1167,0 0,-.7026 -4.1167,0 z  m 4.8029,0 0,.7026 4.1167,0 0,-.7026 -4.1167,0 z "/>
</g>
</svg>
