<svg width="48" version="1.1" xmlns="http://www.w3.org/2000/svg" height="48">
<g style="fill:#4d4d4d" id="layer1" transform="matrix(1.2352941,0,0,1.05,-5.6470591,-1.2)">
<path id="rect4090" d="M 0,0 V 40 H 34 V 0 Z" transform="translate(7,4)"/>
</g>
<g style="stroke:none" id="g8" transform="matrix(0.99113793,0,0,0.9835086,0.11601705,0.43455496)">
<path style="fill:#fff" id="path3994" d="m 11.807,10.4122 c -0.404235,0 -0.688484,0.297131 -0.688484,0.719686 v 3.29 12.4633 6.614 3.02725 0.262742 c 0,0.393971 0.250932,0.671515 0.611986,0.708263 0.0262,0.0027 0.04919,0.01298 0.0765,0.01142 h 1.74853 21.083 1.74853 c 0.02526,0 0.05221,-0.0031 0.0765,-0.01142 0.361054,-0.03675 0.611987,-0.314292 0.611987,-0.708263 v -0.262742 -3.02725 -6.614 -5.87173 c -3.25789,-3.39539 -6.90637,-7.20087 -10.1593,-10.6013 h -14.8578 z"/>
<path style="fill:#4d4d4d" id="path3998" d="m 11.9769,11.2428 v 3.819 17.6185 3.819 h 2.0344 22.0765 v -3.819 -11.5278 l -9.499,-9.9098 Z "/>
<g style="fill:#fff" id="g12">
<path id="path4230" d="M 15.3551,23.8191 13.4054,20.244 h 1.829 l 1.1051,2.17 1.1197,-2.17 h 1.829 l -1.9497,3.5621 2.0462,3.7582 h -1.829 l -1.2162,-2.3137 -1.2016,2.3137 h -1.829 z"/>
<path id="path4232" d="m 24.2445,19.172 v 3.4249 h 2.5191 v 1.5425 h -2.5191 v 3.4249 H 23.096 V 24.1394 H 20.5769 V 22.5969 H 23.096 V 19.172 Z"/>
<path id="path4234" d="m 27.9316,20.2438 h 1.7277 l 1.4526,4.9674 1.2354,-4.9674 h 1.7277 l -2.273,8.0131 q -0.342643,1.22222 -0.801108,1.70589 -0.45364,0.490198 -1.20167,0.490198 h -0.998974 v -1.53595 h 0.540506 q 0.439162,0 0.637026,-0.189543 0.20269,-0.189543 0.313687,-0.679741 l .0483,-.2026 -2.4082,-7.6013 z "/>
</g>
</g>
</svg>
