<svg width="48" version="1.1" xmlns="http://www.w3.org/2000/svg" height="48">
<defs id="defs4">
<clipPath id="clipPath3613">
<rect width="84" x="6" y="6" rx="6" ry="6" height="84" style="fill:#fff;stroke:none" id="rect3615"/>
</clipPath>
</defs>
<path style="fill:#4d4d4d" id="rect4090" d="M 3,3 V 45 H 45 V 3 Z"/>
<g style="stroke:none">
<path style="fill:#fff" id="path3994" d="m 12.2066,10.8121 c -0.404236,0 -0.688484,0.297132 -0.688484,0.719687 v 3.29 12.0633 6.21444 3.02725 0.262743 c 0,0.39397 0.250932,0.671514 0.611986,0.708263 0.0262,0.0027 0.04915,0.01142 0.0765,0.01142 h 1.74853 20.283 1.74853 c 0.02526,0 0.05221,-0.0031 0.0765,-0.01142 0.361055,-0.03675 0.611987,-0.314292 0.611987,-0.708263 v -0.262743 -3.02725 -6.21444 -5.87173 c -3.25789,-3.39539 -6.50601,-6.80086 -9.75898,-10.2013 h -14.4582 -0.251352 z "/>
<path style="fill:#4d4d4d" id="path2985" d="m 34.1433,25.2005 a 10.1434,10.1086 0 1,1 -20.2867,0 10.1434,10.1086 0 1,1 20.2867,0 z "/>
<path style="opacity:.9;fill:#fff" id="path3522-9" d="m 24.5421,16.4693 c -0.112757,-0.0045 -0.217294,-0.0014 -0.291292,0.01688 h -1.56975 c -0.428733,0.05951 -0.854691,0.13655 -1.26227,0.253103 0.156619,0.496018 -0.01138,1.10393 0.453124,1.09678 0.267367,0.394081 -0.52926,0.118107 0.04855,0.421839 0.332272,0.272815 -0.346761,0.430117 0.06473,0.674939 -0.474258,0.255133 0.0685,1.33286 0.420757,1.60298 0.579768,0.508845 0.25933,-1.08176 0.906248,-1.16427 0.351522,-0.41838 0.969459,-0.675901 1.40792,-1.09678 -0.428505,-0.03626 -0.680927,-0.317086 -0.275109,-0.489333 0.74689,0.797903 0.186884,-0.387533 -0.226561,-0.573697 0.40006,-0.132672 0.799927,-0.02706 0.744417,-0.371216 0.317081,-0.241847 -0.08248,-0.357577 -0.420757,-0.371217 z  m -5.0167,1.0462 c -0.343417,0.18947 -0.672575,0.410806 -0.987159,0.641195 0.512697,0.103617 0.80564,-0.137658 1.01953,0.43871 0.603422,0.362565 -4.5e-05,0.983327 -0.226562,1.1474 0.407998,-0.37044 1.19276,1.01467 0.98716,0.286848 -0.245281,-0.186709 0.646942,0.303081 0.178012,-0.303722 -0.431544,-0.724848 0.04462,-0.321037 0.226561,-0.151861 0.618808,-0.578493 -0.701453,-0.6533 -0.372208,-1.24864 -0.216385,-0.182713 -0.489849,-0.651804 -0.825332,-0.809927 z  m 9.7907,.5906 c -0.641757,0.336577 -0.95158,1.07832 -1.327,1.70423 -0.64285,0.302167 -0.621088,1.59561 0.0971,1.18115 0.192221,0.349997 -0.13913,0.913221 0.420757,0.455584 0.451604,-0.62305 0.08918,-1.63195 0.857697,-2.02482 0.05598,0.305479 -0.715561,1.43613 0.178014,1.24864 0.807803,0.03178 -0.587086,0.08637 -0.194197,0.624321 -0.408201,-0.252497 -0.195409,0.691696 -0.728233,0.472459 -0.461602,0.261768 -0.769245,-0.120047 -0.663501,-0.539953 -0.363128,0.220853 0.112511,0.839976 -0.517856,0.877421 -0.141206,0.522755 -1.29148,0.446359 -0.631134,0.978662 0.293178,0.792145 -1.10541,0.04494 -0.712049,0.995538 0.336541,0.940004 1.04086,-0.31504 1.327,-0.556828 0.517585,-0.418564 1.27225,0.625013 0.954796,0.793058 0.456277,-0.121153 0.340524,-0.624895 -0.08091,-0.826801 -0.241064,-0.651799 0.767743,0.331272 0.712049,0.658065 0.354302,0.691668 0.205865,-0.720992 0.566404,-0.101241 -0.04209,0.653738 1.45697,0.16235 0.744417,0.995538 -0.61263,0.128642 -1.22033,-0.170987 -1.74776,0.01688 -0.490901,-0.0045 -0.468595,-0.554882 -0.647318,-0.691814 -0.624429,0.05289 -1.39446,0.0478 -1.81249,0.573697 -0.452049,0.646605 -1.10766,1.55353 -0.614954,2.37917 0.493052,1.22349 1.7246,0.07049 2.42744,0.793056 0.208909,0.301278 -0.192004,0.652323 0.275109,0.978661 0.175771,0.695162 -0.188949,1.36029 0.242744,2.02482 0.223228,0.624958 0.350517,1.54974 1.18136,0.978663 0.879332,-0.551676 0.649992,-1.56278 1.37555,-2.12606 -0.574107,-1.15834 0.701046,-1.65816 1.01953,-2.59851 -0.695818,0.1062 -1.30453,-0.621922 -1.47265,-1.34988 -0.292303,-0.353586 -0.229417,-0.883597 0.0971,-0.219356 0.448796,0.453374 0.464443,1.80571 1.29464,1.11365 0.379539,-0.165502 1.40846,-0.792601 0.582587,-1.07991 -0.532358,0.401986 -1.12158,-1.19983 -0.339843,-0.269977 0.45192,0.199887 0.800391,0.321266 0.922427,-0.05062 0,-2.26243 -0.832587,-4.32824 -2.20088,-5.92262 -0.12708,0.133579 -0.373679,-0.0149 -0.242745,0.269977 -0.323112,-0.238947 -0.593385,-0.972332 0,-0.556827 -0.409231,-0.439736 -0.854678,-0.845457 -1.34319,-1.19802 z  m -7.6545,.0844 c -0.322434,0.280086 0.612993,0.332831 0,0 z  m -2.9938,.1519 c -0.03109,0.332966 -0.445611,1.01649 -0.388392,0.185608 -0.117603,0.145364 -0.187944,0.113834 -0.242744,0.01688 -1.6833,1.42057 -2.8268,3.43527 -3.13949,5.72012 0.08975,0.214399 0.22696,0.396099 0.469307,0.523079 0.140658,0.272 0.733388,1.42663 0.760603,1.07991 -0.295895,-0.323048 -0.59778,-1.28503 -0.0971,-0.421836 0.448463,0.820524 1.04204,1.3571 1.92578,1.55237 0.483163,0.17134 0.885924,0.75391 1.31082,0.624321 0.240265,0.660316 -0.711625,1.29082 0.03236,1.90671 0.388401,0.623488 1.03272,1.03137 0.679687,1.90671 -0.203982,0.706329 -0.157416,1.46823 -0.258928,2.15981 0.229205,0.119384 0.45577,0.237378 0.695866,0.337471 0.09098,-0.415259 0.204457,-0.803408 0.501673,-1.09678 0.672247,0.0055 0.125679,-0.757238 0.792965,-0.658064 0.407182,-0.556416 0.52657,-1.21331 1.21372,-1.43425 0.08208,-0.675404 1.14407,-1.71124 0.04855,-1.9742 -0.297749,-0.152998 -1.07812,-0.211357 -1.01953,-0.28685 0.118697,-0.670179 -0.984175,-0.856334 -1.45647,-1.13052 -0.6201,-0.458882 -1.54547,0.748518 -1.76394,-0.303723 -0.130358,-0.331069 -0.607443,-0.332822 -0.388392,-0.843675 -0.394772,0.409327 -1.17313,0.284284 -0.97098,-0.506203 0.307005,-0.665749 1.48213,-0.699533 1.68303,0.10124 -0.278938,-0.883158 0.549184,-1.56524 1.00334,-2.19355 0.09248,-0.300317 0.642203,-0.550997 0.453124,-0.151862 0.322133,-0.01211 0.798814,-0.617192 0.226562,-0.337471 -0.0081,-0.552697 -0.50355,-0.399076 -0.663502,-0.320596 0.29646,-0.490546 1.81892,-0.227458 1.18136,-1.02928 -0.494027,-0.208691 -0.43892,-1.42088 -0.93861,-0.742434 0.04205,-0.418023 -1.02646,-1.24093 -1.00334,-0.539953 0.129279,0.627246 0.03237,1.34369 -0.242745,1.75485 -0.05741,-0.919123 -1.56887,-0.707925 -1.37555,-1.68735 0.280064,-0.466797 0.616138,-1.1211 0.647318,-1.06303 0.501917,-0.199783 0.905374,-0.765365 0.323659,-1.1474 z  m .7768,.3881 c -0.273093,0.466405 0.403516,0.172196 0,0 z  m 5.9715,.5399 c -0.319725,0.38375 -0.737539,-0.09361 -0.744417,0.236227 0.05794,0.09966 0.284491,0.811777 0.792965,0.286851 0.272898,-0.119949 0.166814,-0.430503 -0.04855,-0.523078 z  m -6.7969,.2362 c -0.606438,0.552139 1.01472,0.607183 0.113281,0.06749 l -.1133,-.0675 z  m 7.9782,1.5524 c -0.391458,0.303023 0.215059,0.907193 0,1.19802 -0.273588,0.496958 1.02899,-0.04222 0.339841,-0.438711 -0.04296,-0.298068 -0.328707,-0.651284 -0.339841,-0.759307 z  m -.2751,.5737 c -0.608328,0.179303 -0.150727,1.10813 0.06473,0.236227 0.01211,-0.05055 0.04117,-0.237919 -0.06473,-0.236227 z  m -4.8711,.6749 c -0.565932,0.402317 -0.0911,0.80534 0.32366,0.624322 -0.08515,-0.242738 -0.319822,-0.397125 -0.32366,-0.624322 z  m 9.2405,.6749 c -0.03831,0.393801 0.806469,1.00968 -0.113283,0.809927 -0.486404,0.05949 -1.21154,-0.0093 -0.598769,-0.641195 0.193624,-0.121186 0.70149,0.40284 0.43694,-0.101242 0.09379,-0.0062 0.186757,-0.03783 0.275109,-0.06749 z  m 1.4403,0 c 0.28238,0.148572 -0.506479,0.396587 0,0.658065 0.29474,0.361354 0.171596,1.13957 -0.307476,0.59057 0.08901,-0.612956 -0.64837,-1.06746 0.307476,-1.24864 z  m -4.2561,.8605 c -0.354777,0.238291 0.245324,0.421006 0,0 z  m -8.9168,2.2105 c -0.05981,0.20803 1.12303,0.417657 0.307477,0.08437 l -.1133,-.0338 -.1942,-.0506 z  m .9224,.3037 c -0.358483,0.379413 0.738587,0.113354 0,0 z  m 11.9916,3.4759 c -0.444967,0.01197 -0.598621,0.688866 -0.550218,1.04615 0.207137,-0.281824 0.408435,-0.572322 0.582585,-0.877419 -0.0017,-0.05976 -0.0062,-0.116187 -0.03236,-0.168736 z "/>
</g>
</svg>
