<svg width="48" version="1.1" xmlns="http://www.w3.org/2000/svg" height="48">
<path style="fill:#4d4d4d" id="rect4090" d="m 3,3 v 42 h 42 v -41.9265 Z "/>
<g style="stroke:none;color:#000" id="g10">
<path style="fill:#fff" id="path3994" d="m 12.2066,10.8122 c -0.404235,0 -0.688484,0.297131 -0.688484,0.719686 v 3.29 12.0633 6.21444 3.02725 0.262742 c 0,0.393971 0.250932,0.671515 0.611986,0.708263 0.0262,0.0027 0.04915,0.01142 0.0765,0.01142 h 1.74853 20.283 1.74853 c 0.02526,0 0.05221,-0.0031 0.0765,-0.01142 0.361054,-0.03675 0.611987,-0.314292 0.611987,-0.708263 v -0.262742 -3.02725 -6.21444 -5.87173 c -3.2579,-3.39539 -6.50603,-6.80088 -9.759,-10.2013 h -14.4582 -0.251352 z "/>
<g style="fill:#4d4d4d;stroke-width:2" id="g8">
<path id="rect4096" d="m 19.777,14.6048 c -0.753406,0 -1.36416,0.413777 -1.36416,0.924195 0.02192,0.190426 0.144934,0.430887 0.209871,0.513442 0.314807,0.410754 0.314807,0.667475 0.236105,0.821507 h -2.54469 c -0.465075,0 -0.839485,0.366392 -0.839485,0.821507 v 2.07944 c 0.157403,0.07702 0.419742,0.07702 0.839485,-0.231049 0.08436,-0.06355 0.330085,-0.183929 0.524677,-0.205377 0.521589,0 0.94442,0.597678 0.94442,1.33495 0,0.737272 -0.422831,1.33495 -0.94442,1.33495 -0.160081,-0.0027 -0.40345,-0.142758 -0.524677,-0.205376 -0.419743,-0.308066 -0.682082,-0.308066 -0.839485,-0.231049 v 2.69557 c 0,0.455115 0.37441,0.821507 0.839485,0.821507 h 3.38417 c 0.0787,-0.154033 0.0787,-0.410754 -0.236105,-0.821507 -0.06494,-0.08255 -0.187954,-0.323017 -0.209871,-0.513442 0,-0.510419 0.610757,-0.924196 1.36416,-0.924196 0.753406,0 1.36416,0.413777 1.36416,0.924196 -0.0027,0.156653 -0.145883,0.39481 -0.209871,0.513442 -0.314807,0.410753 -0.314807,0.667474 -0.236105,0.821507 h 1.49533 c 0.465075,0 0.839485,-0.366392 0.839485,-0.821507 v -2.28482 c 0.157403,-0.07702 0.419742,-0.07702 0.839484,0.231049 0.121228,0.06262 0.364597,0.202724 0.524678,0.205377 0.521589,0 0.94442,-0.597677 0.94442,-1.33495 0,-0.737272 -0.422831,-1.33495 -0.94442,-1.33495 -0.194592,0.02145 -0.440316,0.141831 -0.524678,0.205377 -0.419742,0.308065 -0.682081,0.308065 -0.839484,0.231049 v -2.49019 c 0,-0.455115 -0.37441,-0.821507 -0.839485,-0.821507 h -2.33482 c -0.0787,-0.154032 -0.0787,-0.410753 0.236105,-0.821507 0.06399,-0.118631 0.20716,-0.356788 0.209871,-0.513442 0,-0.510418 -0.610756,-0.924195 -1.36416,-0.924195 z "/>
<path style="opacity:.75" id="path4167" d="m 18.426,15.5996 c -0.0094,0.04368 -0.01312,0.08934 -0.01312,0.134778 0.02192,0.190425 0.144934,0.430888 0.209871,0.513442 0.165475,0.215909 0.243093,0.38803 0.268897,0.526278 0.03721,-0.158052 -0.0079,-0.39114 -0.268897,-0.731655 -0.05723,-0.07276 -0.158265,-0.267132 -0.196754,-0.442843 z  m 2.7021,0 c -0.032,0.151206 -0.141533,0.340466 -0.196754,0.442843 -0.260975,0.340515 -0.306104,0.573603 -0.268897,0.731655 0.0258,-0.138248 0.103422,-0.310369 0.268897,-0.526278 0.06399,-0.118632 0.20716,-0.356788 0.209871,-0.513442 0,-0.04544 -0.0038,-0.09109 -0.01312,-0.134778 z  m -4.2892,3.7289 c -0.194592,0.02145 -0.440316,0.141831 -0.524677,0.205377 -0.419743,0.308065 -0.682082,0.308065 -0.839485,0.231049 v 0.205377 c 0.157403,0.07702 0.419742,0.07702 0.839485,-0.231049 0.08436,-0.06355 0.330085,-0.183929 0.524677,-0.205377 0.496767,0 0.900232,0.543717 0.937862,1.23226 0.0019,-0.0344 0.0066,-0.0676 0.0066,-0.102689 0,-0.737272 -0.422831,-1.33495 -0.94442,-1.33495 z  m 9.3327,1.8484 c -0.03763,0.688544 -0.441095,1.23226 -0.937862,1.23226 -0.160082,-0.0027 -0.40345,-0.142759 -0.524678,-0.205377 -0.419742,-0.308065 -0.682081,-0.308065 -0.839484,-0.231049 v 0.205377 c 0.157403,-0.07702 0.419742,-0.07702 0.839484,0.231049 0.121228,0.06262 0.364596,0.202723 0.524678,0.205377 0.521589,0 0.94442,-0.597677 0.94442,-1.33495 0,-0.03509 -0.0047,-0.06828 -0.0066,-0.102689 z  m -5.555,1.643 c -0.753406,0 -1.36416,0.413777 -1.36416,0.924196 0.0026,0.0226 0.0079,0.04694 0.01312,0.0706 0.09568,-0.447014 0.664711,-0.789417 1.35104,-0.789417 0.686335,0 1.25536,0.342403 1.35105,0.789417 0.0051,-0.02401 0.01275,-0.04913 0.01312,-0.0706 0,-0.510419 -0.610756,-0.924196 -1.36416,-0.924196 z  m -5.1418,1.4376 0,.2054 c 0,0.455115 0.37441,0.821507 0.839485,0.821507 h 3.38417 c 0.03733,-0.07307 0.05608,-0.170468 0.03279,-0.295229 -0.0077,0.0326 -0.01934,0.06351 -0.03279,0.08985 h -3.38417 c -0.465075,0 -0.839485,-0.366392 -0.839485,-0.821507 z  m 8.3948,0 c 0,0.455115 -0.37441,0.821507 -0.839485,0.821507 h -1.49533 c -0.01346,-0.02634 -0.02512,-0.05725 -0.03279,-0.08985 -0.02329,0.124761 -0.0045,0.222163 0.03279,0.295229 h 1.49533 c 0.465075,0 0.839485,-0.366392 0.839485,-0.821507 v -0.205376 z "/>
<path id="path3073" d="m 27.8093,23.3255 c -0.753406,0 -1.36416,0.413777 -1.36416,0.924195 0.02192,0.190426 0.144935,0.430887 0.209871,0.513442 0.314807,0.410754 0.314807,0.667475 0.236105,0.821507 h -2.54469 c -0.465075,0 -0.839485,0.366392 -0.839485,0.821507 v 2.07944 c 0.157404,0.07702 0.419743,0.07702 0.839485,-0.231049 0.08436,-0.06355 0.330085,-0.183929 0.524678,-0.205377 0.521588,0 0.94442,0.597678 0.94442,1.33495 0,0.737272 -0.422832,1.33495 -0.94442,1.33495 -0.160082,-0.0027 -0.40345,-0.142758 -0.524678,-0.205376 -0.419742,-0.308066 -0.682081,-0.308066 -0.839485,-0.231049 v 2.69557 c 0,0.455115 0.37441,0.821507 0.839485,0.821507 h 3.38417 c 0.0787,-0.154033 0.0787,-0.410754 -0.236105,-0.821507 -0.06494,-0.08256 -0.187955,-0.323017 -0.209871,-0.513442 0,-0.510419 0.610756,-0.924196 1.36416,-0.924196 0.753406,0 1.36416,0.413777 1.36416,0.924196 -0.0027,0.156653 -0.145882,0.39481 -0.209871,0.513442 -0.314807,0.410753 -0.314807,0.667474 -0.236105,0.821507 h 1.49533 c 0.465074,0 0.839484,-0.366392 0.839484,-0.821507 v -2.28482 c 0.157403,-0.07702 0.419742,-0.07702 0.839485,0.231049 0.121227,0.06262 0.364596,0.202724 0.524677,0.205377 0.521589,0 0.94442,-0.597677 0.94442,-1.33495 0,-0.737272 -0.422831,-1.33495 -0.94442,-1.33495 -0.194592,0.02145 -0.440315,0.141831 -0.524677,0.205377 -0.419743,0.308065 -0.682082,0.308065 -0.839485,0.231049 v -2.49019 c 0,-0.455115 -0.37441,-0.821507 -0.839484,-0.821507 h -2.33482 c -0.0787,-0.154032 -0.0787,-0.410753 0.236105,-0.821507 0.06399,-0.118631 0.20716,-0.356788 0.209872,-0.513442 0,-0.510418 -0.610757,-0.924195 -1.36416,-0.924195 z "/>
<path style="opacity:.75" id="path3077" d="m 26.4582,24.3203 c -0.0094,0.04368 -0.01312,0.08934 -0.01312,0.134778 0.02192,0.190425 0.144935,0.430888 0.209871,0.513442 0.165476,0.215909 0.243093,0.38803 0.268898,0.526278 0.03721,-0.158052 -0.0079,-0.39114 -0.268898,-0.731655 -0.05723,-0.07276 -0.158265,-0.267132 -0.196754,-0.442843 z  m 2.7021,0 c -0.032,0.151206 -0.141533,0.340466 -0.196755,0.442843 -0.260974,0.340515 -0.306104,0.573603 -0.268897,0.731655 0.0258,-0.138248 0.103422,-0.310369 0.268897,-0.526278 0.06399,-0.118632 0.20716,-0.356788 0.209872,-0.513442 0,-0.04544 -0.0038,-0.09109 -0.01312,-0.134778 z  m -4.2892,3.7289 c -0.194593,0.02145 -0.440317,0.141831 -0.524678,0.205377 -0.419742,0.308065 -0.682081,0.308065 -0.839485,0.231049 v 0.205377 c 0.157404,0.07702 0.419743,0.07702 0.839485,-0.231049 0.08436,-0.06355 0.330085,-0.183929 0.524678,-0.205377 0.496766,0 0.900231,0.543717 0.937861,1.23226 0.0019,-0.0344 0.0066,-0.0676 0.0066,-0.102689 0,-0.737272 -0.422832,-1.33495 -0.94442,-1.33495 z  m 9.3327,1.8484 c -0.03763,0.688544 -0.441095,1.23226 -0.937862,1.23226 -0.160081,-0.0027 -0.40345,-0.142759 -0.524677,-0.205377 -0.419743,-0.308065 -0.682082,-0.308065 -0.839485,-0.231049 v 0.205377 c 0.157403,-0.07702 0.419742,-0.07702 0.839485,0.231049 0.121227,0.06262 0.364596,0.202723 0.524677,0.205377 0.521589,0 0.94442,-0.597677 0.94442,-1.33495 0,-0.03509 -0.0047,-0.06828 -0.0066,-0.102689 z  m -5.555,1.643 c -0.753406,0 -1.36416,0.413777 -1.36416,0.924196 0.0026,0.0226 0.0079,0.04694 0.01312,0.0706 0.09568,-0.447014 0.664711,-0.789417 1.35105,-0.789417 0.686334,0 1.25536,0.342403 1.35104,0.789417 0.0051,-0.02401 0.01275,-0.04913 0.01312,-0.0706 0,-0.510419 -0.610756,-0.924196 -1.36416,-0.924196 z  m -5.1418,1.4376 0,.2054 c 0,0.455115 0.37441,0.821507 0.839485,0.821507 h 3.38417 c 0.03733,-0.07307 0.05608,-0.170468 0.03279,-0.295229 -0.0077,0.0326 -0.01933,0.06351 -0.03279,0.08985 h -3.38417 c -0.465075,0 -0.839485,-0.366392 -0.839485,-0.821507 z  m 8.3948,0 c 0,0.455115 -0.37441,0.821507 -0.839484,0.821507 h -1.49533 c -0.01346,-0.02634 -0.02512,-0.05725 -0.03279,-0.08985 -0.02329,0.124761 -0.0045,0.222163 0.03279,0.295229 h 1.49533 c 0.465074,0 0.839484,-0.366392 0.839484,-0.821507 v -0.205376 z "/>
</g>
</g>
</svg>
