<svg width="48" version="1.1" xmlns="http://www.w3.org/2000/svg" height="48">
<g style="fill:#2980b9" id="layer1" transform="matrix(1.2352941,0,0,1.05,-5.6470589,-1.2)">
<path id="rect4090" d="M 0,0 V 40 H 34 V 0.06980703 L 23,0 Z" transform="translate(7,4)"/>
</g>
<g style="stroke:none" id="g12" transform="matrix(1.0044648,0,0,0.99473689,-0.03177596,-0.00593961)">
<path style="fill:#fff" id="path3994" d="m 11.7972,10.7375 c -0.398704,0 -0.679064,0.29367 -0.679064,0.711302 v 3.25167 12.3227 6.54231 2.99199 0.259682 c 0,0.389381 0.247499,0.663692 0.603613,0.700012 0.02584,0.0026 0.04848,0.01129 0.07545,0.01129 h 1.72461 20.8053 1.72461 c 0.02492,0 0.0515,-0.0031 0.07545,-0.01129 0.356114,-0.03632 0.603612,-0.310631 0.603612,-0.700012 v -0.259682 -2.99199 -6.54231 -5.80332 c -3.21331,-3.35584 -6.81691,-7.12158 -10.0254,-10.4824 h -14.6603 z"/>
<path style="fill:#2980b9" id="path3998" d="m 11.9715,11.5635 v 3.7745 17.413 3.7745 h 2.0066 21.774 v -3.7745 -11.3935 l -9.3695,-9.794 Z "/>
<g style="fill:#fff" id="g3158" transform="matrix(0.34148282,0,0,0.35321022,5.9763512,4.1596001)">
<rect width="44.331478" x="30.393818" y="41.400051" height="5.6084838" id="rect3222"/>
<rect width="44.331478" x="30.393818" y="53.743488" height="5.6084838" id="rect3963"/>
<rect width="44.331478" x="30.393818" y="66.086922" height="5.6084838" id="rect3965"/>
</g>
</g>
</svg>
