<svg width="48" version="1.1" xmlns="http://www.w3.org/2000/svg" height="48">
<path style="fill:#ecf0f1" id="rect4090" d="m 4.5351,5.6271 0,36.7458 38.9196,0 .0804,-36.7031 -12.672,-.0427 z "/>
<g style="fill-rule:evenodd" id="g5">
<g style="stroke:none;stroke-linejoin:bevel;stroke-linecap:square;stroke-width:10" id="g7">
<path style="opacity:.3" id="path4171" d="m 10.34,15.358 26.977,0 0,20.254 -26.977,0 z"/>
<path style="opacity:.4" id="rect4168" d="m 10.64,15.658 26.177,0 0,19.354 -26.177,0 z"/>
<rect width="25.576384" x="10.940131" y="15.958463" height="18.553623" style="fill:#ecf0f1" id="rect4166"/>
</g>
<g style="fill:#bbc9d5" id="g12">
<path id="path4254" d="m 19.8047,25.4672 -8.8645,6.8967 0,1.922 25.5764,0 0,-1.922 -8.8645,-6.8967 -3.9237,3.0527 z "/>
<path id="path4251" d="m 10.9401,15.9585 0,2.5511 12.7882,10.2045 12.7882,-10.2045 0,-2.5511 z "/>
</g>
<g style="fill:#fff" id="g16">
<path id="path4238" d="m 20.0953,25.8151 -9.1552,7.3055 0,1.3915 25.5764,0 0,-1.3915 -9.1552,-7.3055 -3.633,2.899 z "/>
<path id="path4219" d="m 10.9401,15.9585 0,1.3915 12.7882,10.2045 12.7882,-10.2045 0,-1.3915 z "/>
</g>
</g>
<g style="fill:#4d667b" id="g17" transform="matrix(1.1176401,0,0,0.89476323,8.1188037e-5,-3.0055884e-4)">
<path id="path4202" d="m 19.2168,43.2669 q -0.185323,-0.08675 -0.370647,-0.126178 -0.18138,-0.04337 -0.366704,-0.04337 -0.544141,0 -0.83987,0.350931 -0.291785,0.346989 -0.291785,0.997592 v 2.03462 h -1.41161 v -4.41622 h 1.41161 v 0.725522 q 0.27207,-0.433736 0.623002,-0.630889 0.354874,-0.201095 0.847756,-0.201095 0.07098,0 0.153779,0.0079 0.0828,0.0039 0.240526,0.02366 l .0039,1.2775 z "/>
<path id="path4204" d="m 22.8326,40.3451 0,.9266 -.7807,0 q -0.299672,0 -0.417963,0.110405 -0.118292,0.106463 -0.118292,0.37459 v 0.307558 h 1.20657 v 1.00942 h -1.20657 v 3.4068 h -1.41161 v -3.4068 h -0.701863 v -1.00942 h 0.701863 v -0.307558 q 0,-0.721578 0.402191,-1.06462 0.402191,-0.346988 1.246,-0.346988 h 1.0804 z "/>
<path id="path4206" d="m 27.0122,42.2022 0,1.1514 q -0.287843,-0.197152 -0.579628,-0.291786 -0.287843,-0.09463 -0.599344,-0.09463 -0.591458,0 -0.922674,0.346989 -0.327274,0.343045 -0.327274,0.962104 0,0.619059 0.327274,0.966048 0.331216,0.343045 0.922674,0.343045 0.331216,0 0.626945,-0.09858 0.299672,-0.09858 0.552027,-0.291786 v 1.15531 q -0.331216,0.122235 -0.674262,0.181381 -0.339102,0.06309 -0.682148,0.06309 -1.19474,0 -1.86901,-0.611173 -0.674262,-0.615116 -0.674262,-1.70734 0,-1.09222 0.674262,-1.7034 0.674262,-0.615116 1.86901,-0.615116 0.346989,0 0.682148,0.06309 0.339103,0.05915 0.674262,0.18138 z "/>
</g>
</svg>
