<svg width="48" version="1.1" xmlns="http://www.w3.org/2000/svg" height="48">
<path style="opacity:.2" d="M 4,4 V 46 H 46 V 4 Z"/>
<path style="fill:#ecf0f1" d="M 3,3 V 45 L 45,45 V 3 Z"/>
<g style="fill-rule:evenodd">
<path style="opacity:.05" d="m 8,10.963 h 32 v 26.0741 h -32 Z "/>
<path style="opacity:.15" d="m 8.2275,11.1902 h 31.3962 l 0,25.3727 h -31.3962 Z "/>
<path style="opacity:.25" d="m 8.4741,11.437 h 30.7454 v 24.6423 h -30.7454 Z "/>
<path style="fill:#5c656c" d="m 8.7901,11.7531 h 30.0247 v 23.7037 h -30.0247 Z "/>
<path style="fill:#f3f6f7" d="m 8.7901,11.7531 v 23.7037 l 10.5355,-11.8509 Z "/>
<path style="fill:#f5fbfe" d="m 8.7901,11.7531 15.0123,13.9852 15.0123,-13.9852 Z "/>
<path style="fill:#e7ecef" d="m 38.8148,11.7531 -10.5355,11.8528 10.5355,11.8509 Z "/>
<path style="fill:#dbe4e7" d="m 20.9937,25.4768 -12.0278,9.9799 h 29.6728 l -12.0278,-9.9799 -2.8086,2.6605 z "/>
</g>
<g style="fill:#4d667b">
<path d="m 15.541,39.538 v 3.7223 h -1.77155 v -0.605826 -2.24321 q 0,-0.79139 -0.03444,-1.09157 -0.02953,-0.300182 -0.10826,-0.442086 -0.103335,-0.191026 -0.280492,-0.294726 -0.177152,-0.109158 -0.403513,-0.109158 -0.551142,0 -0.86608,0.474835 -0.314938,0.469375 -0.314938,1.30443 v 3.00728 h -1.76169 v -6.11281 h 1.76169 v 0.89509 q 0.398594,-0.534871 0.846396,-0.785933 0.447802,-0.25652 0.989101,-0.25652 0.954655,0 1.44674,0.649486 0.497011,0.649487 0.497011,1.88842 z "/>
<path d="m 22.686,40.1874 v 0.556698 h -4.11882 q 0.06397,0.687691 0.447802,1.03154 0.383831,0.343845 1.07276,0.343845 0.556063,0 1.13673,-0.180109 0.585587,-0.185568 1.2007,-0.556702 v 1.50637 q -0.624955,0.261978 -1.24991,0.392966 -0.624955,0.136446 -1.24991,0.136446 -1.49595,0 -2.32758,-0.84051 -0.826712,-0.845969 -0.826712,-2.36871 0,-1.49545 0.811949,-2.35234 0.816869,-0.856885 2.24393,-0.856885 1.29912,0 2.07662,0.867801 0.782424,0.867799 0.782424,2.31959 z  m -1.8109,-.6494 q 0,-0.556702 -0.295254,-0.89509 -0.290334,-0.343845 -0.76274,-0.343845 -0.511775,0 -0.831633,0.322014 -0.319858,0.316556 -0.398593,0.916921 h 2.28822 z "/>
<path d="m 23.5227,37.1474 h 1.71246 l .9251,4.2135 .9301,-4.2135 h 1.47132 l .9251,4.1698 .9301,-4.1698 h 1.71246 l -1.4517,6.1128 h -1.9241 l -.9301,-4.2026 -.9251,4.2026 h -1.92409 l -1.4517,-6.1128 z "/>
<path d="m 37.6309,37.3384 v 1.48449 q -0.565904,-0.261977 -1.09244,-0.392966 -0.526536,-0.130988 -0.994022,-0.130988 -0.501932,0 -0.747977,0.141904 -0.241125,0.136447 -0.241125,0.425714 0,0.234688 0.182074,0.360218 0.186994,0.125532 0.664322,0.185568 l .3101,.0491 q 1.35325,0.191024 1.82074,0.627654 0.467486,0.436629 0.467486,1.36993 0,0.976958 -0.649559,1.46817 -0.649559,0.491207 -1.93883,0.491207 -0.54622,0 -1.1318,-0.09824 -0.580666,-0.09278 -1.19578,-0.28381 v -1.48454 q 0.526537,0.283808 1.07768,0.425713 0.556062,0.141904 1.12689,0.141904 0.516695,0 0.777502,-0.158278 0.260808,-0.158278 0.260808,-0.469377 0,-0.261976 -0.182073,-0.387508 -0.177152,-0.130988 -0.713531,-0.201941 l -.3101,-.0436 q -1.1761,-0.163736 -1.6485,-0.605823 -0.472407,-0.442087 -0.472407,-1.34263 0,-0.971499 0.60035,-1.44087 0.60035,-0.469379 1.84042,-0.469379 0.487169,0 1.02355,0.08186 0.536379,0.08186 1.16625,0.25652 z "/>
</g>
</svg>
