<svg width="48" version="1.1" xmlns="http://www.w3.org/2000/svg" height="48">
<path style="opacity:.2" d="M 4,4 V 46 H 46 V 4 Z"/>
<path style="fill:#ecf0f1" d="M 3,3 V 45 L 45,45 V 3 Z"/>
<g style="fill-rule:evenodd">
<path style="opacity:.05" d="m 8,10.963 h 32 v 26.0741 h -32 Z "/>
<path style="opacity:.15" d="m 8.2275,11.1902 h 31.3962 l 0,25.3727 h -31.3962 Z "/>
<path style="opacity:.25" d="m 8.4741,11.437 h 30.7454 v 24.6423 h -30.7454 Z "/>
<path style="fill:#5c656c" d="m 8.7901,11.7531 h 30.0247 v 23.7037 h -30.0247 Z "/>
<path style="fill:#f3f6f7" d="m 8.7901,11.7531 v 23.7037 l 10.5355,-11.8509 Z "/>
<path style="fill:#f5fbfe" d="m 8.7901,11.7531 15.0123,13.9852 15.0123,-13.9852 Z "/>
<path style="fill:#e7ecef" d="m 38.8148,11.7531 -10.5355,11.8528 10.5355,11.8509 Z "/>
<path style="fill:#dbe4e7" d="m 20.9937,25.4768 -12.0278,9.9799 h 29.6728 l -12.0278,-9.9799 -2.8086,2.6605 z "/>
</g>
<g style="fill:#4d667b">
<path d="m 20.7391,40.3791 q -0.267711,-0.100325 -0.535423,-0.145923 -0.262015,-0.05016 -0.529727,-0.05016 -0.786046,0 -1.21325,0.405849 -0.421502,0.40129 -0.421502,1.15371 v 2.35302 h -2.03916 v -5.10732 h 2.03916 v 0.839061 q 0.393023,-0.501613 0.9,-0.729618 0.512638,-0.232565 1.22464,-0.232565 0.102536,0 0.222144,0.0091 0.11961,0.0045 0.347455,0.02736 l .0056,1.4774 z "/>
<path d="m 25.9623,37 v 1.07161 h -1.12777 q -0.432895,0 -0.603773,0.127682 -0.170881,0.123124 -0.170881,0.433211 v 0.355688 h 1.74297 v 1.16739 h -1.74297 v 3.93994 h -2.03916 v -3.93994 h -1.01388 v -1.16739 h 1.01388 v -0.355688 q 0,-0.8345 0.58099,-1.23123 0.580991,-0.401289 1.8,-0.401289 h 1.5607 z "/>
<path d="m 32,39.1477 v 1.33158 q -0.415807,-0.228004 -0.837309,-0.337448 -0.415807,-0.109439 -0.86579,-0.109439 -0.854398,0 -1.33286,0.40129 -0.472767,0.396729 -0.472767,1.11267 0,0.715936 0.472767,1.11723 0.478463,0.396729 1.33286,0.396729 0.478462,0 0.905661,-0.114007 0.432895,-0.114007 0.797438,-0.337448 v 1.33611 q -0.478463,0.141363 -0.974014,0.209765 -0.489854,0.07296 -0.985406,0.07296 -1.72588,0 -2.7,-0.706816 -0.974013,-0.711377 -0.974013,-1.97452 0,-1.26314 0.974013,-1.96997 0.974014,-0.711377 2.7,-0.711377 0.501248,0 0.985406,0.07296 0.489856,0.06841 0.974014,0.209765 z "/>
</g>
</svg>
