<svg width="48" version="1.1" xmlns="http://www.w3.org/2000/svg" height="48">
<path style="opacity:.2" d="M 4,4 V 46 H 46 V 4 Z"/>
<path style="fill:#ecf0f1" id="rect4090" d="M 3,3 V 44.999886 L 45,45 V 3 Z"/>
<g style="fill-rule:evenodd" id="g5" transform="translate(0.1715,-1.485)">
<g style="stroke:none;stroke-linejoin:bevel;stroke-linecap:square;stroke-width:10" id="g7">
<path style="opacity:.3" id="path4171" d="M 10.34,15.358 H 37.317 V 35.612 H 10.34 Z"/>
<path style="opacity:.4" id="rect4168" d="M 10.64,15.658 H 36.817 V 35.012 H 10.64 Z"/>
<rect width="25.576384" x="10.940131" y="15.958463" height="18.553623" style="fill:#ecf0f1" id="rect4166"/>
</g>
<g style="fill:#bbc9d5" id="g12">
<path id="path4254" d="m 19.8047,25.4672 -8.8645,6.8967 v 1.922 h 25.5764 v -1.922 l -8.8645,-6.8967 -3.9237,3.0527 z"/>
<path id="path4251" d="m 10.9401,15.9585 v 2.5511 L 23.7283,28.7141 36.5165,18.5096 v -2.5511 z"/>
</g>
<g style="fill:#fff" id="g16">
<path id="path4238" d="m 20.0953,25.8151 -9.1552,7.3055 v 1.3915 h 25.5764 v -1.3915 l -9.1552,-7.3055 -3.633,2.899 z"/>
<path id="path4219" d="M 10.9401,15.9585 V 17.35 L 23.7283,27.5545 36.5165,17.35 v -1.3915 z"/>
</g>
</g>
<g style="fill:#4d667b" id="g18" transform="matrix(1,0,0,1.1091184,0,-4.5529582)">
<path id="path4231" d="m 15.8263,38.4374 v 3.2429 h -1.7118 v -0.5278 -1.9543 q 0,-0.689465 -0.03328,-0.950987 -0.02853,-0.261521 -0.104608,-0.385149 -0.09985,-0.166423 -0.271032,-0.256767 -0.171177,-0.0951 -0.389904,-0.0951 -0.532553,0 -0.836869,0.41368 -0.304316,0.408924 -0.304316,1.13643 v 2.61997 h -1.70227 v -5.32553 h 1.70227 v 0.77981 q 0.38515,-0.465984 0.817849,-0.684711 0.432699,-0.223482 0.955742,-0.223482 0.922457,0 1.39795,0.565837 0.480248,0.565838 0.480248,1.64521 z"/>
<path id="path4233" d="m 22.7304,39.0032 v 0.485 h -3.9799 q 0.06181,0.599122 0.432699,0.898683 0.370885,0.299561 1.03658,0.299561 0.537308,0 1.09839,-0.156913 0.565837,-0.161668 1.1602,-0.485003 v 1.31236 q -0.603877,0.228237 -1.20775,0.342355 -0.603877,0.118873 -1.20775,0.118873 -1.4455,0 -2.24908,-0.732259 -0.798829,-0.737015 -0.798829,-2.06364 0,-1.30285 0.784564,-2.04938 0.789319,-0.746525 2.16825,-0.746525 1.2553,0 2.00658,0.756035 0.756035,0.756034 0.756035,2.02085 z m -1.7498,-0.5658 q 0,-0.485004 -0.285296,-0.77981 -0.280542,-0.29956 -0.737015,-0.29956 -0.494514,0 -0.803584,0.280541 -0.309071,0.275786 -0.38515,0.798829 h 2.21104 z"/>
<path id="path4235" d="m 23.5388,36.3547 h 1.6547 l .8939,3.6708 .8987,-3.6708 h 1.4217 l .8939,3.6328 .8987,-3.6328 h 1.6547 l -1.4027,5.3255 h -1.8592 l -.8987,-3.6613 -.8939,3.6613 h -1.8592 l -1.4027,-5.3255 z "/>
<path id="path4237" d="m 37.1712,36.5211 v 1.2933 q -0.546818,-0.228237 -1.0556,-0.342355 -0.508778,-0.114118 -0.960497,-0.114118 -0.485003,0 -0.72275,0.123628 -0.232992,0.118873 -0.232992,0.370885 0,0.204462 0.175933,0.313825 0.180687,0.109364 0.641916,0.161668 l .2996,.0428 q 1.30761,0.166422 1.75933,0.546817 0.451719,0.380395 0.451719,1.19349 0,0.851133 -0.627652,1.27908 -0.627651,0.427944 -1.87344,0.427944 -0.527798,0 -1.09363,-0.08559 -0.561082,-0.08083 -1.15545,-0.247257 v -1.29334 q 0.508778,0.247256 1.04133,0.370885 0.537307,0.123628 1.08888,0.123628 0.499268,0 0.751279,-0.137893 0.252012,-0.137893 0.252012,-0.408925 0,-0.228236 -0.175933,-0.3376 -0.171177,-0.114118 -0.689465,-0.175933 l -.2996,-.038 q -1.13643,-0.142648 -1.5929,-0.527798 -0.456474,-0.38515 -0.456474,-1.16971 0,-0.846378 0.580102,-1.2553 0.580102,-0.408924 1.77835,-0.408924 0.470738,0 0.989026,0.07132 0.518288,0.07132 1.12692,0.223482 z "/>
</g>
</svg>
