<svg width="48" version="1.1" xmlns="http://www.w3.org/2000/svg" height="48">
<g style="fill:#5880bb" id="layer1" transform="matrix(1.1470591,0,0,0.91864444,-3.5294177,1.9525339)">
<path id="rect4090" d="M 0,0 0,40 34,40 34,0.06980703 23,0 z" transform="translate(7,4)"/>
</g>
<g style="fill:#fff">
<path id="path4141" d="m 15.2484,22.1658 q -1.19322,0 -1.88657,0.935224 -0.693356,0.927163 -0.693356,2.54768 0,1.62052 0.685294,2.55574 0.693356,0.927162 1.89464,0.927162 1.18515,0 1.87851,-0.935225 0.693357,-0.935224 0.693357,-2.54768 0,-1.60439 -0.693357,-2.53962 -0.693356,-0.943287 -1.87851,-0.943287 z  m 0,-1.2577 q 1.93495,0 3.03948,1.25772 1.10453,1.25772 1.10453,3.4829 0,2.21713 -1.10453,3.48291 -1.10453,1.25772 -3.03948,1.25772 -1.94301,0 -3.04754,-1.25772 -1.09647,-1.26578 -1.09647,-3.48291 0,-2.22519 1.09647,-3.4829 1.10453,-1.25772 3.04754,-1.25772 z "/>
<path id="path4143" d="m 27.7852,22.4964 0,-4.8857 1.4835,0 0,12.5449 -1.4835,0 0,-1.3545 q -0.467612,0.806228 -1.18516,1.20128 -0.709481,0.386989 -1.7092,0.386989 -1.63664,0 -2.66861,-1.30609 -1.02391,-1.30609 -1.02391,-3.43453 0,-2.12844 1.02391,-3.43453 1.03197,-1.30609 2.66861,-1.30609 0.999723,0 1.7092,0.395052 0.717543,0.386989 1.18516,1.19322 z  m -5.0551,3.1524 q 0,1.63664 0.669169,2.57187 0.677232,0.927163 1.85432,0.927163 1.17709,0 1.85432,-0.927163 0.677232,-0.935224 0.677232,-2.57187 0,-1.63664 -0.677232,-2.5638 -0.677231,-0.935225 -1.85432,-0.935225 -1.17709,0 -1.85432,0.935225 -0.669169,0.927162 -0.669169,2.5638 z "/>
<path id="path4145" d="m 36.8956,17.6106 0,1.2335 -1.419,0 q -0.798166,0 -1.11259,0.322491 -0.306366,0.322491 -0.306366,1.16097 v 0.798165 h 2.44287 v 1.15291 h -2.44287 v 7.87685 h -1.49152 v -7.87685 h -1.41896 v -1.15291 h 1.41896 v -0.628858 q 0,-1.50765 0.701418,-2.19294 0.701419,-0.693356 2.22519,-0.693356 h 1.40284 z "/>
</g>
</svg>
