<svg width="48" version="1.1" xmlns="http://www.w3.org/2000/svg" height="48">
<path style="fill:#b99337" id="rect4090" d="M 3,3 V 45 H 45 V 3 Z"/>
<g style="stroke:#003bc3;stroke-linecap:square;fill-rule:evenodd;stroke-width:0" id="g888" transform="translate(0,-1.507)">
<rect width="7.9695606" x="20.002359" y="4.5075564" height="18.793396" style="fill:#34495e;stroke-miterlimit:2.013" id="shape0"/>
<g style="stroke-miterlimit:2">
<g style="fill:#ecf0f1" id="g10" transform="matrix(1.4683729,0,0,1.025597,-11.238691,-2.7746832)">
<rect width="3.2564054" x="23.465931" y="7.1004887" height="1.4654016" id="shape2"/>
<rect width="3.2564054" x="21.302462" y="8.5685101" height="1.4654016" id="shape3"/>
<rect width="3.2564054" x="23.46616" y="10.03407" height="1.4654016" id="shape4"/>
<rect width="3.2564054" x="21.29925" y="11.503496" height="1.4654016" id="shape5"/>
<rect width="3.2564054" x="23.462833" y="12.96901" height="1.4654016" id="shape6"/>
<rect width="3.2564054" x="21.29925" y="14.437004" height="1.4654016" id="shape7"/>
<rect width="3.2564054" x="23.462833" y="15.902609" height="1.4654016" id="shape8"/>
<rect width="3.2564054" x="21.277571" y="17.370695" height="1.4654016" id="shape9"/>
<rect width="3.2564054" x="23.441038" y="18.836208" height="1.4654016" id="shape10"/>
<rect width="3.2564054" x="21.277571" y="20.304295" height="1.4654016" id="shape11"/>
<rect width="3.2564054" x="23.441269" y="21.769808" height="1.4654016" id="shape12"/>
<rect width="3.2564054" x="21.274359" y="23.239271" height="1.4654016" id="shape13"/>
<rect width="5.4192996" x="21.285601" y="24.824669" height="9.7665815" id="shape17"/>
</g>
<rect width="4.6644192" x="21.693239" y="23.685429" height="2.3696082" style="fill:#2c3e50" id="shape18"/>
</g>
</g>
</svg>
