<svg width="48" version="1.1" xmlns="http://www.w3.org/2000/svg" height="48">
<path style="fill:#ecf0f1" id="rect4090" d="M 3,3 V 45 H 45 V 3 Z"/>
<g style="fill:none">
<path id="path3264" d="m 24.5999,14.9745 c 0,-0.471379 -0.475475,-0.853507 -1.062,-0.853507 -0.586523,0 -1.06199,0.382128 -1.06199,0.853507 0,0.471375 0.475472,0.853511 1.06199,0.853511 0.586525,0 1.062,-0.382136 1.062,-0.853511"/>
<path id="ellipse3266" d="m 25.4789,36.8618 c 0,-0.471379 -0.475475,-0.853507 -1.062,-0.853507 -0.586523,0 -1.06199,0.382128 -1.06199,0.853507 0,0.471375 0.475472,0.853511 1.06199,0.853511 0.586525,0 1.062,-0.382136 1.062,-0.853511"/>
</g>
<g style="stroke:none">
<path style="fill:#5b6d71;color:#000;stroke-width:.842" id="path3038" d="m 24,13.6562 c -5.71887,0 -10.3438,4.62488 -10.3438,10.3438 0,5.71887 4.62488,10.3438 10.3438,10.3438 5.71887,0 10.3438,-4.62488 10.3438,-10.3438 0,-5.71887 -4.62488,-10.3438 -10.3438,-10.3438 z  m 0,7.4688 c 1.58857,0 2.875,1.28643 2.875,2.875 0,1.58857 -1.28643,2.875 -2.875,2.875 -1.58857,0 -2.875,-1.28643 -2.875,-2.875 0,-1.58857 1.28643,-2.875 2.875,-2.875 z "/>
<path style="fill:#bdc3c7" id="path9" d="m 23.5,15 c -0.362907,0.06072 -0.522272,0.393671 -0.65625,1.28125 l -.1875,1.3125 c -0.148139,0.04939 -0.351866,0.075605 -0.5,0.125 -0.592547,0.148129 -1.13121,0.453727 -1.625,0.75 l -1.0625,-.8125 c -1.43375,-1.10033 -1.47898,-0.323145 -2.46875,0.875 -1.18414,1.4003 -1.75977,1.46809 -0.3125,2.59375 l 1.125,.8438 c -0.197514,0.543173 -0.3125,1.13932 -0.3125,1.78125 l -1.375,.4062 c -1.77635,0.507535 -1.2424,0.818602 -0.78125,2.375 0.469367,1.75551 0.254863,2.11468 1.96875,1.625 l 1.375,-.4062 c 0.543181,0.790073 1.34805,1.47496 2.1875,1.96875 l -.2188,1.375 c -0.305352,1.86602 0.445093,1.44936 2.03125,1.65625 1.76674,0.236364 2.2008,0.743913 2.46875,-1.03125 l .1875,-1.3125 c 0.14814,-0.04939 0.351866,-0.075625 0.5,-0.125 0.592565,-0.148151 1.13121,-0.45372 1.625,-0.75 l 1.0625,.8125 c 1.28182,1.27408 1.47898,0.323138 2.46875,-0.875 1.18413,-1.40031 1.75978,-1.46808 0.3125,-2.59375 l -1.125,-.8438 c 0.197519,-0.543174 0.3125,-1.13932 0.3125,-1.78125 l 1.375,-.4062 c 1.77636,-0.507533 1.2424,-0.818608 0.78125,-2.375 -0.46938,-1.75551 -0.254865,-2.11468 -1.96875,-1.625 l -1.375,.4062 c -0.543169,-0.790066 -1.34805,-1.47495 -2.1875,-1.96875 l .2188,-1.375 c 0.305344,-1.86604 -0.445092,-1.44937 -2.03125,-1.65625 -0.883367,-0.118188 -1.44959,-0.31072 -1.8125,-0.25 z  m .5,4.5 c 2.48528,0 4.5,2.01472 4.5,4.5 0,2.48528 -2.01472,4.5 -4.5,4.5 -2.48528,0 -4.5,-2.01472 -4.5,-4.5 0,-2.48528 2.01472,-4.5 4.5,-4.5 z "/>
</g>
</svg>
