<svg width="48" version="1.1" xmlns="http://www.w3.org/2000/svg" height="48">
<g style="stroke:none">
<rect width="42" x="3" y="3" height="42" style="fill:#2c3e50" id="rect824"/>
<rect width="23" x="12.5" y="24.948999" height="1.5" style="fill:#fff" id="rect3766"/>
<g id="g4154" transform="matrix(0.83221212,0,0,0.83221212,14.885145,13.784673)">
<path style="fill:#5b6d71;color:#000" id="path3038" d="m 24,13.6562 c -5.71887,0 -10.3438,4.62488 -10.3438,10.3438 0,5.71887 4.62488,10.3438 10.3438,10.3438 5.71887,0 10.3438,-4.62488 10.3438,-10.3438 0,-5.71887 -4.62488,-10.3438 -10.3438,-10.3438 z m 0,7.4688 c 1.58857,0 2.875,1.28643 2.875,2.875 0,1.58857 -1.28643,2.875 -2.875,2.875 -1.58857,0 -2.875,-1.28643 -2.875,-2.875 0,-1.58857 1.28643,-2.875 2.875,-2.875 z"/>
<path style="fill:#d9dddf" id="path9" d="m 23.5,15 c -0.362907,0.06072 -0.522272,0.393671 -0.65625,1.28125 l -0.1875,1.3125 c -0.148139,0.04939 -0.351866,0.0756 -0.5,0.125 -0.592547,0.148129 -1.13121,0.453727 -1.625,0.75 l -1.0625,-0.8125 C 18.035,16.55592 17.98977,17.333105 17,18.53125 c -1.18414,1.4003 -1.75977,1.46809 -0.3125,2.59375 l 1.125,0.8438 C 17.614986,22.511973 17.5,23.10812 17.5,23.75005 l -1.375,0.4062 c -1.77635,0.507535 -1.2424,0.818602 -0.78125,2.375 0.469367,1.75551 0.254863,2.11468 1.96875,1.625 l 1.375,-0.4062 c 0.543181,0.790073 1.34805,1.47496 2.1875,1.96875 l -0.2188,1.375 c -0.305352,1.86602 0.445093,1.44936 2.03125,1.65625 1.76674,0.236364 2.2008,0.743913 2.46875,-1.03125 l 0.1875,-1.3125 c 0.14814,-0.04939 0.351866,-0.07563 0.5,-0.125 0.592565,-0.148151 1.13121,-0.45372 1.625,-0.75 l 1.0625,0.8125 c 1.28182,1.27408 1.47898,0.323138 2.46875,-0.875 1.18413,-1.40031 1.75978,-1.46808 0.3125,-2.59375 l -1.125,-0.8438 c 0.197519,-0.543174 0.3125,-1.13932 0.3125,-1.78125 l 1.375,-0.4062 c 1.77636,-0.507533 1.2424,-0.818608 0.78125,-2.375 -0.46938,-1.75551 -0.254865,-2.11468 -1.96875,-1.625 l -1.375,0.4062 c -0.543169,-0.790066 -1.34805,-1.47495 -2.1875,-1.96875 l 0.2188,-1.375 C 27.649094,15.04021 26.898658,15.45688 25.3125,15.25 24.429133,15.131812 23.86291,14.93928 23.5,15 Z m 0.5,4.5 c 2.48528,0 4.5,2.01472 4.5,4.5 0,2.48528 -2.01472,4.5 -4.5,4.5 -2.48528,0 -4.5,-2.01472 -4.5,-4.5 0,-2.48528 2.01472,-4.5 4.5,-4.5 z"/>
</g>
<g style="fill:#fff">
<rect width="23" x="12.5" y="20.949152" height="1.5" id="rect2996"/>
<path style="fill-rule:evenodd" id="path4112" d="m 23.7529,12 v 17.1146 c -0.81742,-0.67696 -1.8834,-1.11464 -3.00411,-1.11457 -2.35728,0.00012 -4.49883,1.90577 -4.49883,3.99999 0,2.09423 2.14155,3.99987 4.49883,4 2.3573,0.00012 5.0048,-1.90554 5.0048,-4 v -14.1536 c 3.1399,1.67347 5.09673,4.74534 5.09673,8.02083 0,0.84214 -0.156504,1.66804 -0.430865,2.46353 0.840403,-1.31891 1.3306,-2.80349 1.3306,-4.33072 0,-2.44595 -0.94248,-4.77898 -2.88687,-6.49999 -0.897068,-0.79403 -3.07687,-2.26386 -3.10961,-5.43229 v -0.0677 h -0.0056 -1.9948 z "/>
</g>
</g>
</svg>
