<svg width="48" version="1.1" xmlns="http://www.w3.org/2000/svg" height="48">
<path style="fill:#fff" d="m 7.5,7.5 h 33 v 33 h -33 z"/>
<g style="fill:#3498db">
<path d="M 3,3 V 45 H 45 V 3 Z M 9,9 H 39 V 33 L 30.2,18.2001 20.357846,34 16.4,28.6001 9,39 Z"/>
<path d="M 22,17.5 A 4.5,4.5 0 0 1 17.5,22 4.5,4.5 0 0 1 13,17.5 4.5,4.5 0 0 1 17.5,13 4.5,4.5 0 0 1 22,17.5 Z"/>
</g>
<g style="fill:#fff">
<path d="m 19.35,37.703 q -0.183593,-0.086 -0.367187,-0.125 -0.179688,-0.043 -0.363281,-0.043 -0.539063,0 -0.832032,0.3476 -0.289062,0.3438 -0.289062,0.9883 v 2.0156 h -1.39844 v -4.375 h 1.39844 v 0.7188 q 0.269531,-0.4297 0.617187,-0.625 0.351563,-0.1992 0.839844,-0.1992 0.07031,0 0.152344,0.01 0.08203,0 0.238281,0.023 l .0039,1.2656 z "/>
<path d="m 22.0141,38.9179 q -0.4375,0 -0.660156,0.1484 -0.21875,0.1485 -0.21875,0.4375 0,0.2656 0.175781,0.418 0.179687,0.1484 0.496094,0.1484 0.394531,0 0.664062,-0.2812 0.269531,-0.2852 0.269531,-0.711 v -0.1601 z  m 2.1367,-.5274 v 2.4961 h -1.4102 v -0.6484 q -0.28125,0.3984 -0.632812,0.582 -0.351563,0.1797 -0.855469,0.1797 -0.679687,0 -1.10547,-0.3945 -0.421875,-0.3985 -0.421875,-1.0313 0,-0.7695 0.527344,-1.1289 0.53125,-0.3593 1.66406,-0.3593 h 0.824218 v -0.1094 q 0,-0.3321 -0.261718,-0.4844 -0.261719,-0.1562 -0.816407,-0.1562 -0.449218,0 -0.835937,0.09 -0.386719,0.09 -0.71875,0.2695 v -1.0664 q 0.449219,-0.1094 0.902344,-0.164 0.453125,-0.059 0.90625,-0.059 1.18359,0 1.70703,0.4687 0.527344,0.4649 0.527344,1.5156 z "/>
<path d="m 25.0688,36.5116 h 1.3594 l .7344,3.0157 .7383,-3.0157 h 1.168 l .7344,2.9844 .7383,-2.9844 h 1.3594 l -1.1523,4.375 h -1.5273 l -.7383,-3.0078 -.7344,3.0078 h -1.5273 l -1.1523,-4.375 z "/>
</g>
</svg>
