<svg width="48" version="1.1" xmlns="http://www.w3.org/2000/svg" height="48">
<g style="stroke:none" id="layer1" transform="translate(0,-1004.3622)">
<path style="fill:#3498db" id="rect3261" d="m 4.5,1009.9893 0,36.7458 39,0 0,-4.8994 0,-31.8464 -39,0 z  m 5.2,4.8994 28.6,0 0,19.5978 -10.4,-14.6983 -7.282,10.2869 -1.818,-2.9377 -9.1,14.6983 0,-26.947 z "/>
<g style="fill:none">
<rect width="2" x="4.5" y="1045.8622" rx="1" height="2" ry="1" id="rect3281"/>
<rect width="2" x="17.5" y="1045.8622" rx="1" ry="1" height="2" id="rect3283"/>
</g>
<g style="fill:#fff">
<path id="path4144" d="m 19.3496,1039.3774 q -0.183593,-0.086 -0.367187,-0.125 -0.179688,-0.043 -0.363281,-0.043 -0.539063,0 -0.832032,0.3476 -0.289062,0.3438 -0.289062,0.9883 v 2.0156 h -1.39844 v -4.375 h 1.39844 v 0.7188 q 0.269531,-0.4297 0.617187,-0.625 0.351563,-0.1992 0.839844,-0.1992 0.07031,0 0.152344,0.01 0.08203,0 0.238281,0.023 l .0039,1.2656 z "/>
<path id="path4146" d="m 22.0137,1040.5923 q -0.4375,0 -0.660156,0.1484 -0.21875,0.1485 -0.21875,0.4375 0,0.2656 0.175781,0.418 0.179687,0.1484 0.496094,0.1484 0.394531,0 0.664062,-0.2812 0.269531,-0.2852 0.269531,-0.711 v -0.1601 h -0.726562 z  m 2.1367,-.5274 0,2.4961 -1.4102,0 0,-.6484 q -0.28125,0.3984 -0.632812,0.582 -0.351563,0.1797 -0.855469,0.1797 -0.679687,0 -1.10547,-0.3945 -0.421875,-0.3985 -0.421875,-1.0313 0,-0.7695 0.527344,-1.1289 0.53125,-0.3593 1.66406,-0.3593 h 0.824218 v -0.1094 q 0,-0.3321 -0.261718,-0.4844 -0.261719,-0.1562 -0.816407,-0.1562 -0.449218,0 -0.835937,0.09 -0.386719,0.09 -0.71875,0.2695 v -1.0664 q 0.449219,-0.1094 0.902344,-0.164 0.453125,-0.059 0.90625,-0.059 1.18359,0 1.70703,0.4687 0.527344,0.4649 0.527344,1.5156 z "/>
<path id="path4148" d="m 25.0684,1038.186 1.3594,0 .7344,3.0157 .7383,-3.0157 1.168,0 .7344,2.9844 .7383,-2.9844 1.3594,0 -1.1523,4.375 -1.5273,0 -.7383,-3.0078 -.7344,3.0078 -1.5273,0 -1.1523,-4.375 z "/>
</g>
</g>
</svg>
