<svg width="48" version="1.1" xmlns="http://www.w3.org/2000/svg" height="48">
<g style="fill:#4d4d4d" id="layer1" transform="matrix(1.1470591,0,0,0.91864444,-3.5294177,1.9525339)">
<path style="fill:#27ae60" id="rect4090" d="m 5.6923,1.1402 v 45.7195 h 36.6154 v -45.7195 z "/>
</g>
<g style="stroke:none" id="g15" transform="matrix(0.9951711,0,0,0.97943733,0.07608444,0.52479713)">
<path style="fill:#fff" id="path3994" d="m 11.7992,10.3633 c -0.402552,0 -0.685618,0.297267 -0.685618,0.720014 v 3.29149 12.5691 6.61739 3.02863 0.262862 c 0,0.394149 0.249887,0.671819 0.609438,0.708584 0.02609,0.0027 0.04895,0.01143 0.07618,0.01143 h 1.74125 20.9981 1.74125 c 0.02516,0 0.05199,-0.0031 0.07618,-0.01143 0.35955,-0.03677 0.609438,-0.314435 0.609438,-0.708584 v -0.262862 -3.02863 -6.61739 -5.87439 c -3.24433,-3.39693 -6.87895,-7.30427 -10.1184,-10.7062 h -14.7976 z"/>
<path style="fill:#27ae60" id="path3998" d="m 11.9706,11.1923 v 3.8207 17.7284 3.8207 h 2.026 21.9841 v -3.8207 -11.5327 l -9.4595,-10.0165 Z "/>
<g style="fill:#fff" id="g3982" transform="matrix(0.34477885,0,0,0.35753579,-0.51347681,-0.87526496)">
<rect width="24.557623" x="44.501003" y="54.001381" height="7.8663821" style="opacity:.95" id="rect3156"/>
<rect width="24.557623" x="73.169029" y="54.001381" height="7.8663821" style="opacity:.95" id="rect3928"/>
<rect width="24.557623" x="73.169029" y="65.722961" height="7.8663821" style="opacity:.95" id="rect3930"/>
<rect width="24.557623" x="44.501003" y="65.722961" height="7.8663821" style="opacity:.95" id="rect3932"/>
<rect width="24.557623" x="44.699478" y="77.381821" height="7.8663821" style="opacity:.95" id="rect3156-1"/>
<rect width="24.557623" x="73.367508" y="77.381821" height="7.8663821" style="opacity:.95" id="rect3928-3"/>
</g>
</g>
</svg>
