<svg width="48" version="1.1" xmlns="http://www.w3.org/2000/svg" height="48" xmlns:xlink="http://www.w3.org/1999/xlink">
<defs id="defs4"/>
<g style="fill:#4d4d4d" id="layer1" transform="matrix(1.1470591,0,0,0.91864444,-3.5294177,1.9525339)">
<path style="fill:#27ae60" id="rect4090" d="M 0,0 0,40 34,40 34,0.06980703 23,0 z" transform="translate(7,4)"/>
</g>
<g style="stroke:#fff;stroke-width:.797" id="g27" transform="matrix(2.6415533,-1.8287422,2.1876085,2.2082197,-29.297691,19.492468)"/>
<g style="stroke:none">
<path style="fill:#fff" id="path3994" d="m 11.7987,10.4633 c -0.402552,0 -0.685618,0.297267 -0.685618,0.720014 v 3.29149 12.4691 6.61739 3.02863 0.262862 c 0,0.394149 0.649997,0.671819 1.00955,0.708584 0.02609,0.0027 0.04895,0.01143 0.07618,0.01143 h 1.74125 20.5985 1.74125 c 0.02516,0 0.05199,-0.0031 0.07618,-0.01143 0.35955,-0.03677 0.749584,-0.340192 0.609438,-0.708584 v -0.262862 -3.02863 -6.61739 -5.87439 c -3.24433,-3.39693 -6.87895,-7.20427 -10.1184,-10.6062 h -14.7981 z "/>
<path style="fill:#27ae60" id="path3998" d="m 11.7695,11.1926 0,3.8207 0,17.8301 0,3.8207 2.026,0 22.2858,0 0,-3.8207 0,-11.6347 l -9.5601,-10.0162 Z "/>
<g style="fill:#fff" id="g3982" transform="matrix(0.34477885,0,0,0.35753579,-0.51347681,-0.87526496)">
<rect width="24.557623" x="44.501003" y="54.001381" height="7.8663821" style="opacity:.95" id="rect3156"/>
<rect width="24.557623" x="73.169029" y="54.001381" height="7.8663821" style="opacity:.95" id="rect3928"/>
<rect width="24.557623" x="73.169029" y="65.722961" height="7.8663821" style="opacity:.95" id="rect3930"/>
<rect width="24.557623" x="44.501003" y="65.722961" height="7.8663821" style="opacity:.95" id="rect3932"/>
<rect width="24.557623" x="44.699478" y="77.381821" height="7.8663821" style="opacity:.95" id="rect3156-1"/>
<rect width="24.557623" x="73.367508" y="77.381821" height="7.8663821" style="opacity:.95" id="rect3928-3"/>
</g>
</g>
</svg>
