<svg width="48" version="1.1" xmlns="http://www.w3.org/2000/svg" height="48">
<path style="fill:#aad400" id="path3001" d="m 4.5323,5.6497 0,36.6961 38.926,0 .074,-36.7458 -12.6677,.0497 z "/>
<g id="g3018" transform="matrix(1.1035756,0,0,0.88043476,-2.4851693,0.4048375)">
<rect width="5.4171777" x="21.276451" y="5.6516771" height="19.768995" style="fill:#34495e;fill-rule:evenodd;stroke:#003bc3;stroke-linecap:square;stroke-width:0;stroke-miterlimit:2.013" id="shape0"/>
<rect width="3.2502258" x="21.302784" y="5.6575394" height="1.4634197" style="fill:#ecf0f1;fill-rule:evenodd;stroke:#003bc3;stroke-linecap:square;stroke-width:0;stroke-miterlimit:2.013" id="shape1"/>
<rect width="3.2502258" x="23.462261" y="7.1211071" height="1.4634197" style="fill:#ecf0f1;fill-rule:evenodd;stroke:#003bc3;stroke-linecap:square;stroke-width:0;stroke-miterlimit:2" id="shape2"/>
<rect width="3.2502258" x="21.302898" y="8.5871429" height="1.4634197" style="fill:#ecf0f1;fill-rule:evenodd;stroke:#003bc3;stroke-linecap:square;stroke-width:0;stroke-miterlimit:2" id="shape3"/>
<rect width="3.2502258" x="23.46249" y="10.05072" height="1.4634197" style="fill:#ecf0f1;fill-rule:evenodd;stroke:#003bc3;stroke-linecap:square;stroke-width:0;stroke-miterlimit:2" id="shape4"/>
<rect width="3.2502258" x="21.299692" y="11.51816" height="1.4634197" style="fill:#ecf0f1;fill-rule:evenodd;stroke:#003bc3;stroke-linecap:square;stroke-width:0;stroke-miterlimit:2" id="shape5"/>
<rect width="3.2502258" x="23.459169" y="12.981691" height="1.4634197" style="fill:#ecf0f1;fill-rule:evenodd;stroke:#003bc3;stroke-linecap:square;stroke-width:0;stroke-miterlimit:2" id="shape6"/>
<rect width="3.2502258" x="21.299692" y="14.4477" height="1.4634197" style="fill:#ecf0f1;fill-rule:evenodd;stroke:#003bc3;stroke-linecap:square;stroke-width:0;stroke-miterlimit:2" id="shape7"/>
<rect width="3.2502258" x="23.459169" y="15.911323" height="1.4634197" style="fill:#ecf0f1;fill-rule:evenodd;stroke:#003bc3;stroke-linecap:square;stroke-width:0;stroke-miterlimit:2" id="shape8"/>
<rect width="3.2502258" x="21.278053" y="17.377422" height="1.4634197" style="fill:#ecf0f1;fill-rule:evenodd;stroke:#003bc3;stroke-linecap:square;stroke-width:0;stroke-miterlimit:2" id="shape9"/>
<rect width="3.2502258" x="23.437416" y="18.840956" height="1.4634197" style="fill:#ecf0f1;fill-rule:evenodd;stroke:#003bc3;stroke-linecap:square;stroke-width:0;stroke-miterlimit:2" id="shape10"/>
<rect width="3.2502258" x="21.278053" y="20.307055" height="1.4634197" style="fill:#ecf0f1;fill-rule:evenodd;stroke:#003bc3;stroke-linecap:square;stroke-width:0;stroke-miterlimit:2" id="shape11"/>
<rect width="3.2502258" x="23.437647" y="21.770586" height="1.4634197" style="fill:#ecf0f1;fill-rule:evenodd;stroke:#003bc3;stroke-linecap:square;stroke-width:0;stroke-miterlimit:2" id="shape12"/>
<rect width="3.2502258" x="21.274849" y="23.238062" height="1.4634197" style="fill:#ecf0f1;fill-rule:evenodd;stroke:#003bc3;stroke-linecap:square;stroke-width:0;stroke-miterlimit:2" id="shape13"/>
<rect width="5.4090157" x="21.286068" y="24.821316" height="9.7533731" style="fill:#ecf0f1;fill-rule:evenodd;stroke:#003bc3;stroke-linecap:square;stroke-width:0;stroke-miterlimit:2" id="shape17"/>
<rect width="3.1705625" x="22.425798" y="25.795046" height="2.3073425" style="fill:#2c3e50;fill-rule:evenodd;stroke:#003bc3;stroke-linecap:square;stroke-width:0;stroke-miterlimit:2" id="shape18"/>
</g>
<path id="path4157" d="m 17.1445,35.7035 5.375,0 0,1.1367 -1.9336,0 0,4.6953 -1.5039,0 0,-4.6953 -1.9375,0 0,-1.1367 z "/>
<path id="path4159" d="m 24.1602,39.5668 q -0.4375,0 -0.660156,0.148438 -0.21875,0.148437 -0.21875,0.4375 0,0.265625 0.175781,0.417968 0.179688,0.148438 0.496094,0.148438 0.394531,0 0.664062,-0.28125 0.269532,-0.285156 0.269532,-0.710938 v -0.160156 h -0.726563 z  m 2.1367,-.5273 0,2.4961 -1.4102,0 0,-.6484 q -0.28125,0.398437 -0.632813,0.582031 -0.351562,0.179687 -0.855469,0.179687 -0.679687,0 -1.10547,-0.394531 -0.421875,-0.398437 -0.421875,-1.03125 0,-0.769531 0.527343,-1.12891 0.53125,-0.359375 1.66406,-0.359375 h 0.824219 v -0.109375 q 0,-0.332031 -0.261719,-0.484375 -0.261719,-0.15625 -0.816406,-0.15625 -0.449219,0 -0.835938,0.08984 -0.386719,0.08984 -0.71875,0.269531 v -1.06641 q 0.449219,-0.109375 0.902344,-0.164063 0.453125,-0.05859 0.90625,-0.05859 1.18359,0 1.70703,0.46875 0.527344,0.464844 0.527344,1.51562 z "/>
<path id="path4161" d="m 30.8555,38.352 q -0.183594,-0.08594 -0.367188,-0.125 -0.179687,-0.04297 -0.363281,-0.04297 -0.539063,0 -0.832031,0.347656 -0.289063,0.34375 -0.289063,0.988281 v 2.01562 h -1.39844 v -4.375 h 1.39844 v 0.71875 q 0.269531,-0.429687 0.617188,-0.625 0.351562,-0.199219 0.839843,-0.199219 0.07031,0 0.152344,0.0078 0.08203,0.0039 0.238281,0.02344 l .0039,1.2656 z "/>
</svg>
