<svg width="48" version="1.1" xmlns="http://www.w3.org/2000/svg" height="48">
<path style="fill:#34495e" id="rect4090" d="m 4.5,5.6271 0,36.7458 39,0 0,-36.6555 -12.6176,-.0903 z "/>
<g style="fill:#ecf0f1;stroke:none;color:#000;stroke-width:.5" id="g8">
<path id="path4140" d="M 23.1627,10.5107 C 15.75511,10.5107 9.75,16.55005 9.75,24 c 0,7.44993 6.00507,13.4893 13.4127,13.4893 4.70217,0 8.83526,-2.43876 11.2298,-6.1222 l -2.0784,-1.2046 -6.5492,-3.7938 c -0.04999,-0.02669 -0.09693,-0.06041 -0.139716,-0.100366 -0.611617,0.673339 -1.48315,1.10403 -2.46248,1.10403 -1.8519,0 -3.35317,-1.50984 -3.35317,-3.37232 0,-1.86247 1.50126,-3.37232 3.35317,-3.37232 0.989027,0 1.86761,0.439095 2.47995,1.12411 0.03636,-0.04567 0.07742,-0.08611 0.12225,-0.12044 l 6.5492,-3.7938 2.0784,-1.2046 c -2.39447,-3.68344 -6.52755,-6.12214 -11.2298,-6.12214 z"/>
<path id="path3942" d="m 37.453,17.2554 -2.1656,1.2647 -6.5494,3.7938 c 0.285317,0.496031 0.4543,1.0719 0.4543,1.68616 0,0.614261 -0.168759,1.19012 -0.454076,1.68616 l 6.5492,3.7938 2.1656,1.2647 c 2.39594,-4.17359 2.39594,-9.31569 0,-13.4893 z"/>
</g>
</svg>
