<svg width="48" version="1.1" xmlns="http://www.w3.org/2000/svg" height="48">
<g style="fill:#2c3e50" id="layer1" transform="matrix(1.1446382,0,0,0.91694783,-3.4765175,1.9901786)">
<path id="rect4090" d="m 5.6581,1.1013 v 45.8041 h 36.6928 v -45.8041 Z "/>
</g>
<g style="fill:#ecf0f1" id="g7" transform="scale(0.977679,1.0228306)">
<path id="path4141" d="m 16.7401,29.0738 -.6314,0 -.7296,.6454 c -0.78573,-0.533174 -1.5434,-0.757668 -2.52556,-0.757668 -2.16076,0 -3.634,1.26278 -3.634,3.12889 0,1.71177 1.26278,2.93246 3.46563,3.33935 l .8699,.1684 c 0.897978,0.168371 1.1786,0.238525 1.51534,0.420927 0.392865,0.210463 0.61736,0.63139 0.61736,1.12247 0,0.982163 -0.799761,1.64162 -2.02045,1.64162 -1.58549,0 -2.97455,-1.24875 -3.74625,-3.35339 h -0.715576 l .0842,3.9707 h 0.63139 l .8699,-.8278 c 0.855885,0.645421 1.75386,0.94007 2.87633,0.94007 2.18882,0 3.70416,-1.37503 3.70416,-3.33935 0,-1.78192 -1.05232,-2.77812 -3.47966,-3.31129 l -.6735,-.1543 c -1.08038,-0.210464 -1.08038,-0.210464 -1.43115,-0.336742 -0.631391,-0.224494 -0.954101,-0.63139 -0.954101,-1.20666 0,-0.855885 0.78573,-1.47324 1.89417,-1.47324 1.45921,0 2.62378,1.02426 3.4516,3.01664 h 0.743638 l -.1824,-3.634 z "/>
<path id="path4143" d="m 22.0573,31.1925 c 0,-0.883947 0,-0.940071 0.09822,-1.05232 0.126278,-0.15434 0.434958,-0.210463 1.16456,-0.210463 h 0.210464 v -0.757669 h -5.45802 v 0.757669 h 0.210464 c 0.729606,0 1.02426,0.05612 1.15053,0.210463 0.09822,0.112247 0.09822,0.168371 0.09822,1.05232 v 4.4478 c 0,1.1786 0.09822,1.76789 0.364803,2.25897 0.575267,1.05232 1.93626,1.61355 3.91462,1.61355 1.79595,0 2.87633,-0.477051 3.56385,-1.55743 0.392865,-0.63139 0.505112,-1.26278 0.505112,-2.91843 v -2.82021 c 0,-1.23472 0.07015,-1.59952 0.364804,-1.9082 0.224494,-0.238525 0.617359,-0.364803 1.1786,-0.378834 v -0.757669 h -3.99881 v 0.757669 c 0.547205,0.01403 0.926039,0.140309 1.15053,0.378834 0.294649,0.30868 0.364803,0.659452 0.364803,1.9082 v 2.82021 c 0,1.15053 -0.05612,1.69774 -0.238525,2.0906 -0.406896,0.883947 -1.22069,1.33293 -2.38525,1.33293 -0.799761,0 -1.40309,-0.238525 -1.79595,-0.687514 -0.30868,-0.378834 -0.46302,-1.06635 -0.46302,-2.0906 v -4.48989 z "/>
<path id="path4145" d="m 29.8022,29.1721 0,.7577 .2105,0 c 0.729607,0 1.02426,0.05612 1.15053,0.196432 0.09822,0.126278 0.09822,0.168371 0.09822,1.06635 v 6.08941 c 0,0.883947 0,0.94007 -0.09822,1.05232 -0.126278,0.15434 -0.420926,0.210464 -1.15053,0.210464 h -0.210464 v 0.757668 h 5.68251 c 1.45921,0 2.20285,-0.112247 2.91843,-0.420927 0.897978,-0.406896 1.48728,-1.29084 1.48728,-2.23091 0,-0.982163 -0.561236,-1.78192 -1.59952,-2.24494 -0.47705,-0.224495 -0.897977,-0.336742 -1.62758,-0.434958 0.687514,-0.112247 1.08038,-0.210464 1.47324,-0.392865 0.841854,-0.406897 1.29084,-1.08038 1.29084,-1.92223 0,-0.799761 -0.420927,-1.5434 -1.10844,-1.92223 -0.771699,-0.448989 -1.43115,-0.561236 -3.10083,-0.561236 h -5.41593 z  m 3.9848,4.546 0,-2.9746 c 0,-0.406896 0.02806,-0.519143 0.16837,-0.631391 0.140309,-0.126278 0.350773,-0.182401 0.61736,-0.182401 h 0.420927 c 1.23472,0 1.89417,0.617359 1.89417,1.78192 0,0.687514 -0.238525,1.23472 -0.687514,1.58549 -0.378834,0.308679 -0.855885,0.420927 -1.7258,0.420927 h -0.687514 z  m 0,.7717 .9681,0 c 0.883946,0 1.29084,0.08418 1.68371,0.336742 0.47705,0.32271 0.771699,0.94007 0.771699,1.66968 0,0.673483 -0.252556,1.29084 -0.659452,1.62758 -0.350773,0.294649 -0.813792,0.420927 -1.48728,0.420927 h -0.420927 c -0.491081,0 -0.729606,-0.08419 -0.813792,-0.280618 -0.04209,-0.112247 -0.04209,-0.15434 -0.04209,-0.61736 v -3.15695 z "/>
</g>
<g id="g4551" transform="matrix(0.47826086,0,0,0.47826086,45.789241,15.293663)">
<path style="fill:#ecf0f1" id="shape011" d="m -45.5593,-19.4322 c -12.7071,0 -23,10.2929 -23,23 0,12.7072 10.2929,23 23,23 12.7072,0 23,-10.2928 23,-23 0,-12.7071 -10.2928,-23 -23,-23 z  m 0,19.2266 c 2.09091,0 3.77332,1.68236 3.77332,3.77347 0,2.09091 -1.68241,3.77332 -3.77332,3.77332 -2.09111,0 -3.77345,-1.68241 -3.77345,-3.77332 0,-2.09111 1.68236,-3.77347 3.77345,-3.77347 z "/>
<path style="fill:#b2b2b2" id="shape11" d="m -45.5702,-5.3581 c -4.91681,0 -8.91488,3.99807 -8.91488,8.91489 0,4.9167 3.99807,8.91489 8.91488,8.91489 4.9167,0 8.91489,-3.99819 8.91489,-8.91489 0,-4.91681 -3.99819,-8.91488 -8.91489,-8.91488 z  m 0,5.0785 c 2.12591,0 3.83626,1.7104 3.83626,3.83633 0,2.12591 -1.71035,3.83626 -3.83626,3.83626 -2.12593,0 -3.83633,-1.71035 -3.83633,-3.83626 0,-2.12593 1.7104,-3.83633 3.83633,-3.83633 z "/>
<path style="fill:#8196ab" id="shape0" d="m -39.8014,12.1397 c 1.56411,-1.09124 2.00815,-1.78833 2.62629,-2.56382 l 9.2206,6.6135 c -1.39363,2.17107 -3.04015,4.06349 -5.3097,5.36073 z "/>
<path style="fill:#8196ab;fill-rule:evenodd;stroke:#003bc3;stroke-linejoin:bevel;stroke-linecap:square;stroke-width:0" id="shape1" d="m -51.3381,-5.035 c -1.61128,1.13621 -2.06871,1.86205 -2.70549,2.66951 l -9.4986,-6.8861 c 1.43564,-2.26058 3.13184,-4.23102 5.46983,-5.5817 z "/>
</g>
</svg>
