<svg width="48" version="1.1" xmlns="http://www.w3.org/2000/svg" height="48">
<path style="opacity:.2" d="M 4,4 V 46 H 46 V 4 Z"/>
<path style="fill:#ecf0f1" d="M 3,3 3,45 H 45 V 3 Z"/>
<path style="fill:#01579b" d="M 16.30238,31.696664 11.855715,27.25 C 11.328534,26.707537 11,25.943506 11,25.196665 c 0,-0.345725 0.194828,-0.886277 0.341904,-1.197621 l 4.10476,-8.551425 z"/>
<g style="fill:#40c4ff">
<path d="M 31.5257,16.3033 27.079,11.8558 c -0.387746,-0.389656 -1.19762,-0.855715 -1.88143,-0.855715 -0.588305,0 -1.16515,0.118425 -1.53953,0.341904 l -8.2095,4.1056 z"/>
<path d="M 32.3814,32.3805 24.3419,29.8153 16.9881,32.3805 21.6048,37 h 10.7767 z"/>
</g>
<path style="fill:#29b6f6" d="m 15.4486,29.3033 c 0,1.37144 0.171907,1.70952 0.855716,2.39524 l .6838,.6838 h 15.3933 l -7.5257,-8.5514 -9.4071,-8.3814 Z "/>
<path style="fill:#01579b" d="m 29.1305,15.4476 h -13.6838 l 16.9329,16.9329 h 4.61857 v -10.6048 l -5.4724,-5.4724 c -0.767852,-0.771672 -1.45166,-0.855716 -2.39524,-0.855716 z "/>
<path style="opacity:.2;fill:#fff" d="m 16.4743,31.8686 c -0.683808,-0.687628 -0.855715,-1.3638 -0.855715,-2.56524 v -13.6838 l -.1719,-.1719 v 13.8538 c 0.002,1.20335 0.002,1.5357 1.02762,2.56715 l .5138,.5138 z "/>
<polygon points="112.92,111.63 113.82,112.52 138,112.52 138,57.01 137.1,56.11 137.1,111.63 " style="opacity:.2;fill:#263238" transform="matrix(0.19100793,0,0,0.19100793,10.640905,10.88826)"/>
<path style="opacity:.2;fill:#fff" d="m 31.5257,16.3033 c -0.848076,-0.848075 -1.54334,-0.855716 -2.56524,-0.855716 h -13.5119 l .1719,.1719 h 13.3419 c 0.50808,0 1.79738,-0.08595 2.56333,0.683809 z "/>
</svg>
