<svg width="48" version="1.1" xmlns="http://www.w3.org/2000/svg" height="48">
<path style="fill:#ecf0f1" id="rect4090" d="m 4.5719,5.628 0,36.7438 38.8357,0 .1643,-36.7458 -12.7288,.0019 z "/>
<g style="stroke-linecap:square;fill-rule:evenodd;stroke:#003bc3;stroke-width:0">
<rect width="26.684752" x="10.630051" y="16.781309" height="2.9221342" style="fill:#7f8c8d;stroke-miterlimit:2.013" id="line2"/>
<g style="stroke-miterlimit:2">
<g style="fill:#7f8c8d">
<rect width="20.151466" x="13.91404" y="10.937055" height="2.9221342" id="line"/>
<rect width="26.684752" x="10.620342" y="22.625603" height="2.9221342" id="line21"/>
</g>
<g style="fill:#c5cbcb">
<rect width="26.684752" x="10.670486" y="28.469894" height="2.9221342" id="line22"/>
<rect width="26.684752" x="10.660777" y="34.314095" height="2.9221342" id="line23"/>
</g>
</g>
</g>
<g style="fill:#f60" id="text4141" transform="matrix(1.0166453,0,0,0.98362723,-4.5725265e-7,-0.50006245)">
<path id="path4146" d="m 9.533,28.1782 9.3577,0 0,1.979 -3.3663,0 0,8.1744 -2.6183,0 0,-8.1744 -3.3731,0 0,-1.979 z "/>
<path id="path4148" d="m 28.2893,37.774 q -0.720873,0.374038 -1.50295,0.564458 -0.782079,0.190419 -1.63217,0.190419 -2.53666,0 -4.01921,-1.41454 -1.48255,-1.42134 -1.48255,-3.84919 0,-2.43465 1.48255,-3.84919 1.48255,-1.42134 4.01921,-1.42134 0.850086,0 1.63217,0.190419 0.782079,0.190419 1.50295,0.564457 v 2.10141 q -0.727673,-0.49645 -1.43494,-0.727674 -0.707271,-0.231223 -1.48935,-0.231223 -1.40094,0 -2.20342,0.897691 -0.802481,0.89769 -0.802481,2.47545 0,1.57096 0.802481,2.46865 0.802481,0.897691 2.20342,0.897691 0.782079,0 1.48935,-0.231223 0.707272,-0.231224 1.43494,-0.727674 v 2.10141 z "/>
<path id="path4150" d="m 30.4655,28.1782 2.6183,0 0,8.1744 4.5973,0 0,1.979 -7.2155,0 0,-10.1534 z "/>
</g>
</svg>
