<svg xmlns="http://www.w3.org/2000/svg" viewBox="0 0 48 48"><path fill="#e67e22" d="m4.5 5.627v36.746h39v-36.746z"/><g fill="#fff" transform="matrix(1 0 0 1.34639 0-13.184)"><path d="m11.01 31.812v2.407h-2.655v-2.407h-2.655v7.424h2.655v-2.64h2.655v2.64h2.655v-7.424z"/><path d="m37.873 36.86v-5.05h-2.703v7.424h6.907v-2.376z"/><path d="m23.17 31.812h-8.394v2.143h2.848v5.281h2.698v-5.281h2.848z"/><path d="m30.826 31.811v.004l-1.837 2.406-1.837-2.406v-.004h-2.699v7.427h2.699v-3.319l1.837 2.262 1.837-2.262v3.319h2.699v-7.427z"/></g><path fill="#fff" d="m29.09 16.55l-8.514 7.152h10.414l1-1.24h2v4.072h-21l10.523-9.02-11.123-8.889h21.6v4.672h-2l-1.3-2.564h-9.228z"/></svg>