<svg width="48" version="1.1" xmlns="http://www.w3.org/2000/svg" height="48">
<g id="layer1" transform="matrix(1.1470591,0,0,0.91694232,-3.5294177,1.9903009)">
<path style="fill:#ecf0f1" id="rect4090" d="m 5.6923,1.1012 v 45.8044 h 36.6154 v -45.8044 Z "/>
<path style="fill:#27ae60" id="c" d="m 7.45375,14.0094 c 1.50221,0.0716 3.13555,-1.0299 3.17665,-2.6261 0.0223,-0.298 0.5466,-0.0815 0.7955,-0.1473 0.8413,0 1.6827,0 2.524,0 0.1884,1.6059 -0.7211,3.1707 -1.9601,4.1414 C 9.94988,17.0931 6.98583,17.3055 4.53268,16.4568 2.1806,15.6298 0.663672,13.3085 0.214097,10.9353 -0.0657145,9.38054 -0.0639435,7.77069 0.176707,6.21104 0.588982,3.76562 2.11878,1.34712 4.53268,0.486819 6.41265,-0.16627 8.54835,-0.179133 10.4073,0.550809 12.4238,1.3702 13.9581,3.36944 13.9898,5.57988 c 0.2193,0.5862 -0.1707,0.63749 -0.5967,0.57678 -0.9197,0 -1.8394,0 -2.7591,0 C 10.7041,4.50924 9.3058,2.93619 7.62873,2.9499 6.39419,2.86007 5.03751,3.38065 4.47685,4.54749 3.56233,6.23665 3.59078,8.23515 3.75448,10.0958 c 0.19712,1.335 0.63805,2.8849 1.9358,3.5443 0.54321,0.2745 1.15998,0.3693 1.76347,0.3693 z" transform="translate(16.6272,19.4869)"/>
</g>
</svg>
