<svg width="48" version="1.1" xmlns="http://www.w3.org/2000/svg" height="48">
<g style="fill-rule:evenodd">
<rect width="42" x="3" y="3" height="42" style="fill:#2980b9;stroke:none" id="rect850"/>
<g style="stroke:#003bc3;stroke-linecap:square;stroke-width:0" id="g19" transform="matrix(1.1470591,0,0,0.91864444,-3.5454235,1.9525339)">
<rect width="23.453394" x="12.168757" y="7.94558" height="6.0898657" style="fill:#1abc9c;stroke-miterlimit:2" id="line2"/>
<rect width="6.0911918" x="0" y="0" height="6.1071916" style="fill:#ecf0f1;stroke-miterlimit:2.013" id="line23" transform="translate(12.2952,16.1417)"/>
<g style="stroke-miterlimit:2" id="g17">
<rect width="6.0911918" x="0" y="0" height="6.1071916" style="fill:#e74c3c" id="line25" transform="translate(29.5896,16.1672)"/>
<g style="fill:#ecf0f1" id="g9">
<rect width="6.0911918" x="0" y="0" height="6.1071916" id="line24" transform="translate(21.039,16.172)"/>
<rect width="6.0911918" x="0" y="0" height="6.1071916" id="line26" transform="translate(12.2698,24.5418)"/>
<rect width="6.0911918" x="0" y="0" height="6.1071916" id="line27" transform="translate(21.0136,24.572)"/>
</g>
<rect width="6.0911918" x="0" y="0" height="6.1071916" style="fill:#e74c3c" id="line28" transform="translate(29.5642,24.5672)"/>
<g style="fill:#ecf0f1" id="g14">
<rect width="6.0911918" x="0" y="0" height="6.1071916" id="line29" transform="translate(12.3035,32.8094)"/>
<rect width="6.0911918" x="0" y="0" height="6.1071916" id="line210" transform="translate(21.0473,32.8396)"/>
</g>
<rect width="6.0911918" x="0" y="0" height="6.1071916" style="fill:#e74c3c" id="line211" transform="translate(29.5979,32.8349)"/>
</g>
</g>
</g>
</svg>
