<svg width="48" version="1.1" xmlns="http://www.w3.org/2000/svg" height="48">
<path style="fill:#fc0" id="rect4090" d="M 3,3 V 45 H 45 V 3 Z"/>
<g style="fill-rule:evenodd" id="g11" transform="translate(0,3.9287024)">
<g style="opacity:.25" id="g837" transform="matrix(1.0016966,0,0,1.6973604,0.24286191,-23.365555)">
<path id="path831" d="m 7.744,23.8232 v 8.2481 h 8.4913 V 29.4022 H 10.784841 V 26.617 H 16.2353 v -2.7938 z"/>
<path id="path833" d="m 19.6512,23.8232 v 2.232 l 3.9289,3.347 h -3.70313 v 2.6691 h 8.1156 V 29.528 l -3.7027,-2.7938 h 3.70267 v -2.911 z"/>
<path id="path835" d="m 31.3484,23.8232 v 2.232 l 3.9289,3.347 h -3.70309 v 2.6691 h 8.1156 V 29.528 l -3.7047,-2.7938 h 3.70471 v -2.911 z"/>
</g>
<g style="fill:#fff" id="g6" transform="matrix(1.0016966,0,0,1.6973604,0.24286191,-22.365257)">
<path id="shape0" d="m 7.744,23.8232 v 8.2481 h 8.4913 V 29.4022 H 10.784841 V 26.617 H 16.2353 v -2.7938 z"/>
<path id="shape1" d="m 19.6512,23.8232 v 2.232 l 3.9289,3.347 h -3.70313 v 2.6691 h 8.1156 V 29.528 l -3.7027,-2.7938 h 3.70267 v -2.911 z"/>
<path id="shape2" d="m 31.3484,23.8232 v 2.232 l 3.9289,3.347 h -3.70309 v 2.6691 h 8.1156 V 29.528 l -3.7047,-2.7938 h 3.70471 v -2.911 z"/>
</g>
</g>
</svg>
