<svg width="48" version="1.1" xmlns="http://www.w3.org/2000/svg" height="48">
<path style="fill:#7f8c8d" id="rect4090" d="M 3,3 V 45 H 45 V 3 Z"/>
<rect width="30.937841" x="8.5208521" y="8.2853584" height="6.3558888" style="fill:#fff;fill-rule:evenodd;stroke:#003bc3;stroke-linecap:square;stroke-width:0;stroke-miterlimit:2" id="line"/>
<g style="fill:#f00">
<path id="path4149" d="m 19.2091,9.6979 .8551,0 0,2.6698 1.5015,0 0,.6463 -2.3566,0 0,-3.3161 z "/>
<path id="path4151" d="m 23.4603,10.2576 q -0.390914,0 -0.60636,0.288743 -0.215447,0.288743 -0.215447,0.812923 0,0.521958 0.215447,0.810701 0.215446,0.288744 0.60636,0.288744 0.393135,0 0.608581,-0.288744 0.215447,-0.288743 0.215447,-0.810701 0,-0.52418 -0.215447,-0.812923 -0.215446,-0.288743 -0.608581,-0.288743 z  m 0,-.6197 q 0.799596,0 1.2527,0.457547 0.453105,0.457546 0.453105,1.26381 0,0.804038 -0.453105,1.26159 -0.453104,0.457546 -1.2527,0.457546 -0.797375,0 -1.2527,-0.457546 -0.453104,-0.457547 -0.453104,-1.26159 0,-0.80626 0.453104,-1.26381 0.455326,-0.457547 1.2527,-0.457547 z "/>
<path id="path4153" d="m 28.7909,12.7675 q -0.319838,0.155477 -0.664109,0.233216 -0.34427,0.07774 -0.710752,0.07774 -0.82847,0 -1.31267,-0.461988 -0.4842,-0.46421 -0.4842,-1.25714 0,-0.801817 0.493085,-1.26159 0.493084,-0.459768 1.35043,-0.459768 0.330943,0 0.633013,0.062191 0.304291,0.062191 0.573044,0.184351 v 0.68632 q -0.277638,-0.157698 -0.553054,-0.235436 -0.273195,-0.07774 -0.548612,-0.07774 -0.510853,0 -0.78849,0.286522 -0.275417,0.284301 -0.275417,0.815144 0,0.526401 0.266532,0.812923 0.266532,0.286522 0.757395,0.286522 0.133266,0 0.246543,-0.01555 0.115497,-0.01777 0.206562,-0.05331 v -0.644119 h -0.521959 v -0.573044 h 1.33266 v 1.59475 z "/>
</g>
<g style="fill:#fff;fill-rule:evenodd" id="g8">
<rect width="23.305021" x="14.009782" y="18.781309" height="2.9221342" style="stroke:#003bc3;stroke-linecap:square;stroke-width:0;stroke-miterlimit:2.013" id="line2"/>
<rect width="2.9219999" x="8.7390003" y="18.781002" height="2.9219999" style="opacity:.95;stroke:none" id="rect2998"/>
<rect width="23.305021" x="14.009782" y="26.781309" height="2.9221342" style="stroke:#003bc3;stroke-linecap:square;stroke-width:0;stroke-miterlimit:2.013" id="rect3000"/>
<rect width="2.9219999" x="8.7391872" y="26.781002" height="2.9219999" style="opacity:.95;stroke:none" id="rect3002"/>
<rect width="23.305021" x="14.009782" y="34.781311" height="2.9221342" style="stroke:#003bc3;stroke-linecap:square;stroke-width:0;stroke-miterlimit:2.013" id="rect3004"/>
<rect width="2.9219999" x="8.7390003" y="34.781002" height="2.9219999" style="opacity:.95;stroke:none" id="rect3006"/>
</g>
</svg>
