<svg width="48" version="1.1" xmlns="http://www.w3.org/2000/svg" height="48">
<path style="opacity:.2" id="path2" d="M 4,4 V 46 H 46 V 4 Z"/>
<path style="fill:#ecf0f1;stroke-width:1.053" id="rect4090" d="M 3,3 3,45 H 45 V 3 Z"/>
<g style="fill:#7f8c8d;fill-rule:evenodd" id="g845" transform="translate(-1.4472313)">
<rect width="26.684752" x="12.10971" y="14.78108" height="2.9221342" id="line2"/>
<rect width="20.151466" x="15.393699" y="8.9368238" height="2.9221342" id="line"/>
<rect width="26.684752" x="12.1" y="20.625372" height="2.9221342" id="line21"/>
</g>
<g style="line-height:1.25;fill:#262a2a;word-spacing:0;letter-spacing:0">
<path id="path847" d="m 8.8703,30.3873 -3.0207,.72 v 0.59711 l 1.4576,.2107 -1.405,7.1302 h 2.16013 l .6849,-4.0744 c 0.26343,-1.56302 0.913226,-2.52893 2.33575,-3.12604 l .4742,1.3347 c 0.01756,0 0.03512,0 0.03512,0 1.03616,0 1.70352,-0.649795 1.70352,-1.49277 0,-0.77273 -0.544423,-1.28203 -1.29959,-1.28203 -0.825416,0 -1.87914,0.77273 -3.00311,2.33575 l .4917,-2.3533 z "/>
<path id="path849" d="m 15.7547,35.0588 c 0.193182,0 0.368802,0.01756 0.544423,0.01756 2.93286,0 4.54857,-1.07128 4.54857,-2.73968 0,-1.15909 -0.807853,-1.91426 -2.17769,-1.91426 -1.05372,0 -2.17769,0.421489 -3.07336,1.17666 -1.29959,1.10641 -1.98451,2.61674 -1.98451,4.26757 0,2.08988 1.15909,3.33679 3.10848,3.33679 1.05372,0 2.31819,-0.474175 3.60022,-1.47521 l .0351,-1.0713 c -1.05372,0.825415 -2.00207,1.22934 -2.75724,1.22934 -1.17666,0 -1.87914,-0.807853 -1.87914,-2.30063 0,-0.158058 0.01756,-0.333679 0.03512,-0.526861 z  m .1405,-.7376 c 0.491737,-1.98451 1.40496,-3.02067 2.31819,-3.02067 0.526861,0 0.86054,0.351241 0.86054,0.895664 0,1.0186 -1.21178,2.03719 -3.17873,2.12501 z "/>
<path id="path851" d="m 21.831,38.2551 c 1.03616,0.614671 2.14257,0.913225 3.31922,0.913225 2.7748,0 4.68906,-1.7562 4.68906,-3.89877 0,-1.5279 -0.930788,-2.10744 -2.5465,-3.03823 -1.3874,-0.790292 -2.21282,-1.21178 -2.21282,-2.19525 0,-1.07128 1.00104,-1.94938 2.42356,-1.94938 0.439051,0 0.842978,0.08781 1.22934,0.298554 l .1405,.1756 -.0351,1.9318 h 1.05372 l .4742,-2.968 c -1.0186,-0.316117 -1.96695,-0.474175 -2.84505,-0.474175 -2.73968,0 -4.531,1.54546 -4.531,3.6529 0,1.26447 0.632233,1.91426 1.98451,2.72211 1.07128,0.632233 1.87914,0.983474 2.19525,1.3874 0.316116,0.386365 0.474174,0.77273 0.474174,1.10641 0,1.19422 -0.965911,2.10744 -2.47625,2.10744 -0.544423,0 -1.07128,-0.122934 -1.59814,-0.35124 l -.1229,-.1756 .0176,-2.0899 h -1.1591 z "/>
<path id="path853" d="m 32.3859,27.2613 -.5971,3.0909 h 1.22934 l .6322,-1.8967 .3161,-.2283 h 1.98451 l -1.7738,9.5889 -.2459,.281 -1.2118,.0703 v 0.878101 h 5.05786 v -0.860539 l -1.1942,-.1054 -.1932,-.2459 1.8089,-9.6064 h 1.98451 l .2459,.2283 -.0351,1.8967 h 1.17666 l .5795,-3.0909 z "/>
</g>
</svg>
