<svg width="48" version="1.1" xmlns="http://www.w3.org/2000/svg" height="48">
<g style="fill-rule:evenodd">
<rect width="42" x="3" y="3" height="42" style="fill:#ecf0f1;stroke:none" id="rect846"/>
<g style="stroke:#003bc3;stroke-linecap:square;stroke-width:0" id="g17" transform="matrix(1.1470591,0,0,0.91694783,-3.5294177,1.9901786)">
<rect width="6.7608314" x="0" y="0" height="1.3750844" style="fill:#4d4d4d;stroke-miterlimit:2.013" id="shape0" transform="translate(21.0402,25.5045)"/>
<g style="stroke-miterlimit:2" id="g15">
<g style="fill:#4d4d4d" id="g6">
<rect width="4.1198306" x="0" y="0" height="1.3750844" id="shape01" transform="translate(23.8912,17.5879)"/>
<rect width="4.1198306" x="0" y="0" height="1.3750844" id="shape02" transform="translate(23.8827,33.4125)"/>
</g>
<g style="fill:#3498db" id="g12">
<rect width="7.4458194" x="0" y="0" height="5.4813366" id="line26" transform="translate(13.7172,23.4408)"/>
<rect width="7.4405341" x="0" y="0" height="5.4813366" id="line241" transform="translate(27.5781,15.5653)"/>
<rect width="7.4405341" x="0" y="0" height="5.4813366" id="line271" transform="translate(27.5781,23.4408)"/>
<rect width="7.4405341" x="0" y="0" height="5.4813366" id="line2101" transform="translate(27.5781,31.3163)"/>
</g>
<rect width="17.174698" x="0" y="0" height="1.3750844" style="fill:#4d4d4d" id="shape03" transform="rotate(90,3.8306,21.4381)"/>
</g>
</g>
</g>
</svg>
