<svg width="48" version="1.1" xmlns="http://www.w3.org/2000/svg" height="48">
<path style="opacity:.2" d="M 4,4 V 46 H 46 V 4 Z"/>
<g id="layer1" transform="matrix(1.1446382,0,0,0.91864444,-3.4765175,1.9525339)">
<path style="fill:#ecf0f1" id="rect4090" d="m 5.6581,1.1402 v 45.7194 l 36.6928,.0001 v -45.7195 Z "/>
<path style="fill:#2c3e50" id="shape0" d="m 9.8216,28.8065 c -0.025898,-1.67431 0.473691,-3.74838 2.22008,-4.39737 1.38557,-0.49805 3.25638,-0.07351 3.85369,1.39717 -0.01837,-0.739083 -0.108583,-1.41857 0.88729,-1.41857 h 1.43623 c 0,0 -0.02697,7.55845 -0.04892,11.3375 -0.0096,0.350696 0.0406,0.94623 -0.255,0.948629 h -2.01961 c 0.0052,-1.64261 -0.0162,-3.31624 0.02446,-4.93239 -0.875861,2.03081 -4.18984,2.22954 -5.32372,0.334261 -0.615121,-0.966749 -0.768002,-2.14596 -0.7745,-3.26923 Z  m 6.0901,-.0489 c 0.01721,-1.10785 -0.230516,-2.666 -1.5266,-2.93293 -1.26612,-0.331159 -2.10388,0.95593 -2.12697,2.07232 -0.07417,1.22057 -0.17651,2.71474 0.811545,3.61675 1.04867,0.786445 2.51772,-0.07533 2.67897,-1.28864 0.130044,-0.477067 0.161304,-0.975075 0.163055,-1.4675 z  m 9.7914,4.4514 c 0,0 -0.0647,-3.77906 -0.04128,-5.66868 0.01461,-1.17849 -1.3191,-2.21014 -2.19869,-1.1959 -0.941993,1.14015 -0.662405,2.68389 -0.662405,4.0485 l -.0001,2.8161 h -2.29086 l -.0652,-8.8212 2.3561,-.0002 c 0,0 -0.01678,0.996712 0,1.53596 0.441326,-1.30926 1.85587,-2.03445 3.23758,-1.637 1.00793,0.289937 1.57696,1.54704 1.86048,1.72035 0.426825,-1.20982 1.68999,-1.98592 2.963,-1.77398 1.37278,0.05631 2.2075,1.42348 2.25626,2.68224 0.08117,2.09547 0.0367,6.29389 0.0367,6.29389 h -2.27461 c -0.02091,-1.88927 -0.06255,-3.77902 -0.04128,-5.66868 0.01313,-1.16685 -1.2949,-2.20132 -2.18442,-1.21424 -0.956136,1.12348 -0.676668,2.66786 -0.676668,4.02461 v 2.85831 z  m 9.6447,0 0,-12.0986 2.2909,0 0,12.0986 z "/>
</g>
</svg>
