<?xml version="1.0" encoding="UTF-8" standalone="no"?>
<!-- Created using Karbon, part of Calligra: http://www.calligra.org/karbon -->

<svg
   xmlns:dc="http://purl.org/dc/elements/1.1/"
   xmlns:cc="http://creativecommons.org/ns#"
   xmlns:rdf="http://www.w3.org/1999/02/22-rdf-syntax-ns#"
   xmlns:svg="http://www.w3.org/2000/svg"
   xmlns="http://www.w3.org/2000/svg"
   xmlns:sodipodi="http://sodipodi.sourceforge.net/DTD/sodipodi-0.dtd"
   xmlns:inkscape="http://www.inkscape.org/namespaces/inkscape"
   width="38.4pt"
   height="38.4pt"
   id="svg2"
   version="1.1"
   inkscape:version="0.48.5 r10040"
   sodipodi:docname="application-text.svg">
  <metadata
     id="metadata17">
    <rdf:RDF>
      <cc:Work
         rdf:about="">
        <dc:format>image/svg+xml</dc:format>
        <dc:type
           rdf:resource="http://purl.org/dc/dcmitype/StillImage" />
        <dc:title></dc:title>
      </cc:Work>
    </rdf:RDF>
  </metadata>
  <sodipodi:namedview
     pagecolor="#ffffff"
     bordercolor="#666666"
     borderopacity="1"
     objecttolerance="10"
     gridtolerance="10"
     guidetolerance="10"
     inkscape:pageopacity="0"
     inkscape:pageshadow="2"
     inkscape:window-width="1645"
     inkscape:window-height="1055"
     id="namedview15"
     showgrid="false"
     inkscape:zoom="13.906433"
     inkscape:cx="11.297899"
     inkscape:cy="26.761395"
     inkscape:current-layer="svg2"
     inkscape:window-x="47"
     inkscape:window-y="0"
     inkscape:window-maximized="0" />
  <defs
     id="defs4" />
  <path
     sodipodi:nodetypes="cccccc"
     style="fill:#ecf0f1"
     inkscape:connector-curvature="0"
     d="m 4.5719044,5.6279911 0,36.7438469 38.8357386,0 0.164273,-36.7457779 -12.728777,0.00193 z"
     id="rect4090" />
  <g
     id="folderLayer"
     transform="translate(-1.3483637,-2.42932)">
    <g
       transform="matrix(1.1736265,0,0,1.1736265,-3.2329091,-4.3458355)"
       id="layer1-2">
      <path
         d="m 25.0625,14.3438 c 2.05199,0.02317 5.0767,0.310551 6.75,0.6875 l 0.125,0.9062 c 0.934941,-1.19693 4.16475,0.675591 7.0625,2.125 -3.94655,-0.632701 -7.43373,-0.675666 -8.875,2 -3.0282,-1.04082 -4.00543,0.4329 -0.5625,0.4375 -1.53993,1.4053 -3.23452,2.64536 -4.4375,4.46875 -3.7944,-1.55756 -1.41917,0.207466 -0.15625,0.71875 0,0 -0.823146,0.546744 -1.53125,2.5 -0.922381,2.54432 -2.28232,1.78596 -3.125,0.96875 -1.79103,-1.7369 -2.34584,-2.16996 -0.21875,0.5625 -1.18324,1.64608 -3.13969,2.97174 -6.53125,3.4375 C 12.952188,35.19923 12.75,37 12.75,37 c 0,0 -0.947245,0.408792 -1.25,0.625 -0.302755,0.216208 -0.625,0.9375 -0.625,0.9375 l -0.2812,-0.1562 c 0.495505,-2.09555 1.21347,-4.01009 2.0625,-5.8125 -0.728278,-4.52914 0.0511,-8.18023 1.34375,-10.2812 0.37155,1.27568 0.540171,2.58836 1.28125,3.78125 -1.8033,-7.67686 0.778089,-7.65639 1.3125,-8.21875 0.421685,1.81429 0.793279,3.65766 1.71875,5.4375 -0.498846,-1.80885 -0.8815,-5.51829 -0.875,-5.96875 0.01115,-0.778731 3.03803,-2.41247 4.8125,-2.53125 0.03258,0.783925 0.150652,1.54471 0.34375,2.28125 0.03892,-1.01946 0.26414,-2.0026 0.3125,-2.46875 0.02361,-0.227547 0.925055,-0.29515 2.15625,-0.28125 z"
         id="path39063"
         style="fill:#7f8c8d;fill-opacity:1;stroke:none"
         inkscape:connector-curvature="0" />
    </g>
  </g>
</svg>
