<svg width="48" version="1.1" xmlns="http://www.w3.org/2000/svg" height="48">
<path style="fill:#2c3e50" d="m 3,3 v 42 h 42 v -42 Z "/>
<g style="fill:#ecf0f1">
<path d="m 16.3664,29.7376 h -0.617306 l -.7133,.6601 c -0.768192,-0.545347 -1.50895,-0.774966 -2.46919,-0.774966 -2.11253,0 -3.55289,1.29161 -3.55289,3.20033 0,1.75085 1.23459,3 3.38827,3.41559 l .8505,.1722 c 0.877935,0.172215 1.15229,0.24397 1.48152,0.430537 0.384096,0.215268 0.60358,0.645805 0.60358,1.1481 0,1.00459 -0.781909,1.6791 -1.97535,1.6791 -1.5501,0 -2.90816,-1.27726 -3.66263,-3.42995 h -0.699604 l .0823,4.0614 h 0.617297 l .8505,-.8467 c 0.836781,0.660156 1.71471,0.961532 2.81213,0.961532 2.13996,0 3.62148,-1.40642 3.62148,-3.41559 0,-1.8226 -1.02883,-2.84155 -3.40199,-3.38689 l -.6585,-.1578 c -1.05626,-0.215269 -1.05626,-0.215269 -1.39921,-0.34443 -0.617298,-0.229619 -0.932805,-0.645805 -0.932805,-1.23421 0,-0.875426 0.768192,-1.50688 1.85189,-1.50688 1.42664,0 2.56522,1.04764 3.37456,3.08551 h 0.72704 l -.1783,-3.717 Z "/>
<path d="m 21.565,31.9046 c 0,-0.904128 0,-0.961533 0.09603,-1.07634 0.123459,-0.157863 0.425249,-0.215268 1.13856,-0.215268 h 0.205767 v -0.774967 h -5.33619 v 0.774967 h 0.205766 c 0.713321,0 1.0014,0.0574 1.12485,0.215268 0.09603,0.11481 0.09603,0.172215 0.09603,1.07634 v 4.54935 c 0,1.20551 0.09603,1.80825 0.35666,2.31054 0.562427,1.07635 1.89304,1.65039 3.82724,1.65039 1.75586,0 2.81213,-0.487942 3.4843,-1.59299 0.384096,-0.645805 0.493838,-1.29161 0.493838,-2.98506 v -2.8846 c 0,-1.26291 0.06858,-1.63604 0.356661,-1.95177 0.219483,-0.24397 0.603579,-0.373131 1.15229,-0.387483 v -0.774967 h -3.90955 v 0.774967 c 0.534991,0.01435 0.905369,0.143513 1.12485,0.387483 0.288072,0.315728 0.35666,0.674508 0.35666,1.95177 v 2.8846 c 0,1.1768 -0.05487,1.7365 -0.233201,2.13833 -0.397813,0.904129 -1.19344,1.36336 -2.33201,1.36336 -0.781909,0 -1.37177,-0.243971 -1.75586,-0.70321 -0.30179,-0.387483 -0.452685,-1.0907 -0.452685,-2.13833 v -4.5924 z "/>
<path d="m 29.137,29.8381 v 0.774998 h 0.205802 c 0.713321,0 1.0014,0.0574 1.12485,0.200917 0.09603,0.129161 0.09603,0.172215 0.09603,1.0907 v 6.22843 c 0,0.904128 0,0.961533 -0.09603,1.07635 -0.12346,0.157864 -0.411531,0.215269 -1.12485,0.215269 h -0.205767 v 0.774966 h 5.55567 c 1.42664,0 2.15368,-0.114809 2.85329,-0.430537 0.877934,-0.416185 1.45408,-1.32031 1.45408,-2.28184 0,-1.00459 -0.548709,-1.8226 -1.56382,-2.29619 -0.466402,-0.22962 -0.877933,-0.34443 -1.59125,-0.444888 0.672168,-0.11481 1.05627,-0.215269 1.44036,-0.401835 0.823063,-0.416186 1.26203,-1.10504 1.26203,-1.96612 0,-0.81802 -0.411531,-1.57864 -1.0837,-1.96612 -0.754474,-0.45924 -1.39921,-0.574049 -3.03162,-0.574049 h -5.29504 Z  m 3.8959,4.6498 v -3.04251 c 0,-0.416186 0.02743,-0.530996 0.164612,-0.645806 0.137177,-0.129161 0.342944,-0.186566 0.60358,-0.186566 h 0.411532 c 1.20716,0 1.85189,0.631454 1.85189,1.8226 0,0.703211 -0.233201,1.26291 -0.672168,1.62169 -0.370378,0.315727 -0.836781,0.430537 -1.68728,0.430537 h -0.672168 z  m 0,.7893 h 0.946491 c 0.864216,0 1.26203,0.0861 1.64613,0.34443 0.466402,0.330078 0.754474,0.961532 0.754474,1.7078 0,0.688859 -0.246918,1.32031 -0.644732,1.66474 -0.342944,0.301376 -0.795627,0.430537 -1.45408,0.430537 h -0.411531 c -0.48012,0 -0.713321,-0.08611 -0.795627,-0.287024 -0.04115,-0.11481 -0.04115,-0.157864 -0.04115,-0.631455 v -3.22903 z "/>
<path d="m 24,6 c -6.07731,0 -11,4.92269 -11,11 0,6.07736 4.92269,11 11,11 6.07736,0 11,-4.92264 11,-11 0,-6.07731 -4.92264,-11 -11,-11 z  m 0,9.1953 c 1,0 1.80463,0.804607 1.80463,1.8047 0,1 -0.804631,1.80463 -1.80463,1.80463 -1,0 -1.80469,-0.804631 -1.80469,-1.80463 0,-1 0.804606,-1.8047 1.80469,-1.8047 z "/>
</g>
<path style="fill:#b2b2b2" d="m 23.9948,12.7311 c -2.35152,0 -4.26364,1.91212 -4.26364,4.26364 0,2.35147 1.91212,4.26364 4.26364,4.26364 2.35147,0 4.26364,-1.91218 4.26364,-4.26364 0,-2.35152 -1.91218,-4.26364 -4.26364,-4.26364 z  m 0,2.4288 c 1.01674,0 1.83473,0.818018 1.83473,1.83477 0,1.01674 -0.817993,1.83473 -1.83473,1.83473 -1.01675,0 -1.83477,-0.817994 -1.83477,-1.83473 0,-1.01675 0.818018,-1.83477 1.83477,-1.83477 z "/>
<path style="fill:#91a8be" d="m 26.7538,21.0996 c 0.748053,-0.521897 0.96042,-0.855288 1.25605,-1.22617 l 4.4099,3.163 c -0.666519,1.03834 -1.45398,1.94341 -2.53942,2.56383 z "/>
<path style="fill:#91a8be;fill-rule:evenodd" d="m 21.2362,12.8856 c -0.770612,0.543404 -0.989383,0.890545 -1.29393,1.27672 l -4.5428,-3.2934 c 0.68661,-1.08115 1.49784,-2.02353 2.616,-2.66951 z "/>
</svg>
