<svg width="48" version="1.1" xmlns="http://www.w3.org/2000/svg" height="48">
<path style="fill:#ecf0f1" id="rect4090" d="M 3,3 V 45 H 45 V 3 Z"/>
<g style="fill:#7f8c8d" id="g5">
<g style="stroke:#003bc3;fill-rule:evenodd;stroke-linecap:square;stroke-width:0" id="g7">
<rect width="26.684752" x="10.630051" y="16.781309" height="2.9221342" style="stroke-miterlimit:2.013" id="line2"/>
<g style="stroke-miterlimit:2" id="g10">
<rect width="14.68637" x="22.628433" y="10.937055" height="2.9221342" id="line"/>
<rect width="26.684752" x="10.620342" y="22.625603" height="2.9221342" id="line21"/>
<rect width="26.684752" x="10.670486" y="28.469894" height="2.9221342" id="line22"/>
<rect width="17.336559" x="10.670486" y="34.314095" height="2.9221342" id="line23"/>
</g>
</g>
<path style="color:#000;stroke-width:3.8" id="path2999" d="m 12.0049,8.2864 0,1.6739 .2006,.1179 2.8303,1.721 -2.8303,1.7446 -.2006,.1179 0,1.556 2.8303,-1.721 2.8526,-1.7446 -2.8526,-1.721 -2.8303,-1.7446 z "/>
<path id="path4154" d="m 37.3552,39.3346 q -0.474314,0.246107 -0.9889,0.371397 -0.514585,0.12529 -1.07392,0.12529 -1.66905,0 -2.64452,-0.930729 -0.975475,-0.935204 -0.975475,-2.53266 0,-1.60193 0.975475,-2.53266 0.975476,-0.935204 2.64452,-0.935204 0.559333,0 1.07392,0.12529 0.514586,0.125291 0.9889,0.371397 v 1.38267 q -0.478788,-0.32665 -0.944153,-0.478789 -0.465365,-0.152138 -0.97995,-0.152138 -0.92178,0 -1.44979,0.590655 -0.52801,0.590655 -0.52801,1.62878 0,1.03365 0.52801,1.6243 0.52801,0.590655 1.44979,0.590655 0.514585,0 0.97995,-0.152138 0.465365,-0.152138 0.944153,-0.478789 v 1.38267 z "/>
</g>
</svg>
