<svg width="48" version="1.1" xmlns="http://www.w3.org/2000/svg" height="48">
<path style="fill:#fc0" id="rect4090" d="M 3,3 V 45 H 45 V 3 Z"/>
<g style="stroke-width:0;fill-rule:evenodd;stroke:#000;fill:#fff;stroke-miterlimit:2">
<path id="shape0" d="m 7.744,23.8232 0,8.2481 8.4913,0 0,-2.6691 -4.8516,0 0,-2.7852 4.8516,0 0,-2.7938 z "/>
<path id="shape1" d="m 19.6512,23.8232 0,2.232 2.9306,3.347 -2.7048,0 0,2.6691 8.1156,0 0,-2.5433 -2.7048,-2.7938 2.7048,0 0,-2.911 z "/>
<path id="shape2" d="m 31.3484,23.8232 0,2.232 2.9306,3.347 -2.7048,0 0,2.6691 8.1156,0 0,-2.5433 -2.7061,-2.7938 2.7061,0 0,-2.911 z "/>
</g>
</svg>
