<svg width="48" version="1.1" xmlns="http://www.w3.org/2000/svg" height="48">
<path style="fill:#ecf0f1" id="rect4090" d="m 4.5719,5.628 0,36.7438 38.8357,0 .1643,-36.7458 -12.7288,.0019 z "/>
<g style="fill:#2c3e50;fill-rule:evenodd;stroke:none" id="g17">
<path id="path4153" d="m 23.8544,6.0403 c 2.30987,-0.03335 4.65954,0.606828 6.75,2.03125 5.55457,3.73583 6.7682,11.3416 3.25,16.6562 -0.413907,0.625251 -0.415027,0.661949 -1.0625,1.34375 L 17.1669,15.4777 c 0.271352,-0.7383 0.259247,-0.749639 0.75,-1.5 2.51006,-3.78272 7.00232,-4.12411 10.0938,-2.03125 2.62771,1.77893 3.96844,5.15567 2.65625,8.59375 0.50338,0.350194 0.996622,0.712305 1.5,1.0625 1.13952,-2.45138 1.4102,-7.91004 -3.1875,-11.0625 -4.36743,-2.91683 -9.89397,-1.69671 -12.5625,2.375 -2.71225,4.05658 -1.8397,9.86383 2.5625,12.8125 2.86265,1.96955 6.54799,1.75308 9.71875,0.0625 l 1.5,2.5312 c -2.94174,1.65097 -7.72395,3.17035 -12.8438,-0.25 -5.85475,-4.00929 -6.70271,-11.5648 -3.3125,-16.7188 2.2142,-3.32441 5.96273,-5.25693 9.8125,-5.3125 z"/>
<path id="path4151" d="m 18.7607,30.134 0,4.25 c -0.697115,-0.793623 -1.51425,-1.18749 -2.46875,-1.1875 -1.0403,9e-6 -1.91273,0.368914 -2.59375,1.125 -0.681023,0.750739 -1,1.83342 -1,3.28125 -10e-7,1.41567 0.33414,2.51887 1.03125,3.3125 0.702469,0.788269 1.54993,1.1875 2.53125,1.1875 0.482609,0 0.965606,-0.107806 1.4375,-0.34375 0.477245,-0.241306 0.901439,-0.605773 1.25,-1.09375 l 0,1.25 2.09375,0 0,-11.7812 -2.28125,0 z m -1.875,4.7812 c 0.552319,7e-6 1.02108,0.221904 1.375,0.65625 0.35391,0.428996 0.531243,1.11244 0.53125,2.09375 -7e-6,0.879433 -0.197865,1.55493 -0.5625,2 -0.364647,0.439717 -0.792355,0.656252 -1.3125,0.65625 -0.654214,2e-6 -1.16661,-0.285137 -1.53125,-0.875 -0.252035,-0.407538 -0.375003,-1.08839 -0.375,-2 -3e-6,-0.84725 0.171968,-1.48262 0.53125,-1.90625 0.364638,-0.428983 0.807508,-0.624993 1.34375,-0.625 z"/>
<path id="path4149" d="m 23.2294,30.4341 2.25,0 0,2.0938 -2.25,0 z"/>
<path id="path4147" d="m 31.1035,33.1972 c -1.13146,9e-06 -2.07249,0.383152 -2.8125,1.1875 -0.740009,0.799001 -1.125,1.89684 -1.125,3.3125 -1e-06,1.18509 0.2807,2.19121 0.84375,2.96875 0.713194,0.97059 1.82712,1.4375 3.3125,1.4375 0.93841,0 1.72171,-0.19601 2.34375,-0.625 0.62739,-0.434351 1.08542,-1.08044 1.375,-1.90625 l -2.25,-.375 c -0.123341,0.428992 -0.321199,0.744456 -0.5625,0.9375 -0.241312,0.19305 -0.521088,0.281251 -0.875,0.28125 -0.520155,1e-06 -0.963949,-0.192494 -1.3125,-0.5625 -0.348557,-0.375364 -0.54642,-0.8922 -0.5625,-1.5625 h 5.6875 c 0.03217,-1.73204 -0.327863,-3.00721 -1.0625,-3.84375 -0.734652,-0.841885 -1.72912,-1.24999 -3,-1.25 z  m .125,1.7188 c 0.461159,7e-06 0.865752,0.156815 1.1875,0.5 0.321736,0.337836 0.48391,0.845796 0.5,1.5 h -3.375 c -0.0054,-0.616667 0.147004,-1.10947 0.46875,-1.46875 0.321739,-0.359272 0.725407,-0.531243 1.21875,-0.53125 z "/>
<path id="path4145" d="m 23.2294,33.384 2.25,0 0,4.8818 c 0,1.08856 -0.07397,1.83617 -0.21875,2.28125 -0.139425,0.450437 -0.404962,0.810466 -0.8125,1.0625 -0.40218,0.252028 -0.935104,0.374997 -1.5625,0.375 -0.22522,-3e-6 -0.455994,-0.0196 -0.71875,-0.0625 -0.257394,-0.03754 -0.543457,-0.107068 -0.84375,-0.1875 l 0.4062,-1.9062 c 0.107248,0.02145 0.215977,0.02052 0.3125,0.03125 0.09116,0.01609 0.169564,0.03125 0.25,0.03125 0.230582,-10e-7 0.417715,-0.05437 0.5625,-0.15625 0.150146,-0.09652 0.232988,-0.204329 0.28125,-0.34375 0.04826,-0.139422 0.09375,-0.584142 0.09375,-1.28125 z"/>
</g>
</svg>
