<svg width="48" version="1.1" xmlns="http://www.w3.org/2000/svg" height="48">
<path style="fill:#b3b3b3" id="rect4090" d="M 3,3 V 45 H 45 V 3 Z"/>
<g aria-label="g" style="font-family:sans-serif;stroke:none;word-spacing:0;line-height:1.25;letter-spacing:0;font-size:40px" id="text4523" transform="translate(0.9)">
<path style="font-variant-caps:normal;font-variant-numeric:normal;font-feature-settings:normal;font-family:'Bitstream Charter';fill:#34495e;font-variant-ligatures:normal;text-align:start;font-weight:bold" id="path4525" d="m 28.5,10.88 c -1.96,-0.8 -3.8,-1.16 -5.52,-1.16 -5.32,0 -8.56,2.8 -8.56,6.88 0,2.88 1.72,5.08 4.96,6 -1.48,1.32 -2.2,2.48 -2.2,3.8 0,0.56 0.16,1.24 0.52,2 -2.56,0.24 -4.12,1.92 -4.12,4.4 0,3.28 3,5.48 8.28,5.48 6.44,0 10.76,-3.32 10.76,-7.08 0,-3.4 -2.96,-4.6 -8.76,-5.44 l -2.72,-.36 c -0.08,-0.4 -0.12,-0.76 -0.12,-1.08 0,-0.48 0.12,-0.96 0.32,-1.48 0.4,0.04 0.8,0.04 1.16,0.04 5.28,0 8.48,-2.8 8.48,-6.64 0,-1.04 -0.28,-2.04 -0.88,-3.08 h 4.32 v -2.28 z  m -5.6,.72 c 1.76,0 3.16,1.72 3.16,4.6 0,3.04 -1.36,4.88 -3.24,4.88 -1.92,0 -3.28,-1.8 -3.28,-4.84 0,-2.92 1.36,-4.64 3.36,-4.64 z  m -2.76,17.24 3.4,.56 c 2.84,0.48 4.32,1.04 4.32,3 0,2.04 -1.88,3.76 -4.76,3.76 -2.68,0 -4.64,-1.84 -4.64,-4 0,-1.28 0.56,-2.4 1.68,-3.32 z "/>
</g>
</svg>
