<svg width="48" version="1.1" xmlns="http://www.w3.org/2000/svg" height="48">
<g id="layer1" transform="matrix(1.1470591,0,0,0.91694783,-3.5294177,1.9901786)">
<path style="fill:#ecf0f1" id="rect4090" d="m 0,0 0,40 34,0 0,-40.074 -11,.074 z " transform="translate(7,4)"/>
<g style="stroke:#003bc3;stroke-width:0;fill-rule:evenodd;stroke-linecap:square;fill:#7f8c8d">
<rect width="10.62994" x="0" y="0" height="4.7834725" style="stroke-miterlimit:2.013" id="line23" transform="translate(12.1537,15.0308)"/>
<g style="stroke-miterlimit:2">
<rect width="10.62994" x="0" y="0" height="4.7834725" id="line24" transform="translate(24.5553,15.0662)"/>
<rect width="10.62994" x="0" y="0" height="4.7834725" id="line231" transform="translate(12.1537,21.5402)"/>
<rect width="10.62994" x="0" y="0" height="4.7834725" id="line241" transform="translate(24.5553,21.5756)"/>
<rect width="10.62994" x="0" y="0" height="4.7834725" id="line232" transform="translate(12.1577,28.0369)"/>
<rect width="10.62994" x="0" y="0" height="4.7834725" id="line242" transform="translate(24.5593,28.0724)"/>
<rect width="10.62994" x="0" y="0" height="4.7834725" id="line233" transform="translate(12.1577,34.5463)"/>
<rect width="10.62994" x="0" y="0" height="4.7834725" id="line243" transform="translate(24.5593,34.5818)"/>
</g>
</g>
</g>
</svg>
