<svg width="48" version="1.1" xmlns="http://www.w3.org/2000/svg" height="48">
<g id="layer1" transform="matrix(1.2352941,0,0,1.05,-5.6470589,-1.2)">
<path style="fill:#ecf0f1" id="rect4090" d="M 0,0 0,40 34,40 33.928091,0.06980703 23,0 z" transform="translate(7,4)"/>
<path style="fill:#2980b9" id="path1948" d="m 10.8184,.0002 c -0.9029,0.00423639 -1.76517,0.0819931 -2.5239,0.217554 -2.23507,0.39871 -2.6409,1.23324 -2.6409,2.77225 v 2.03258 h 5.2818 v 0.67753 h -5.2818 -1.9822 c -1.53503,0 -2.87915,0.93163 -3.29957,2.70389 -0.484953,2.03141 -0.506464,3.29911 0,5.42021 0.375448,1.5789 1.27207,2.7039 2.80709,2.7039 h 1.816 v -2.4366 c 0,-1.7603 1.50838,-3.3131 3.29958,-3.3131 h 5.2756 c 1.4686,0 2.6409,-1.22088 2.6409,-2.71007 v -5.07834 c 0,-1.44531 -1.2075,-2.53104 -2.6409,-2.77225 -0.9073,-0.152507 -1.8487,-0.221791 -2.7517,-0.217554 z  m -2.8563,1.6348 c 0.54559,0 0.9911,0.45721 0.9911,1.01939 0,0.56019 -0.44551,1.01318 -0.9911,1.01318 -0.54754,0 -0.99111,-0.45299 -0.99111,-1.01318 0,-0.56218 0.44357,-1.01939 0.99111,-1.01939 z " transform="translate(12.652,15.0516)"/>
<path style="fill:#f39c12" id="path1950" d="m 11.2389,0 0,2.35078 c 0,1.82252 -1.54472,3.35648 -3.30626,3.35648 l -5.28637,0 C 1.19824,5.70726 1.97391e-7,6.94689 0,8.39739 l 0,5.04091 c 0,1.4347 1.24723,2.2785 2.64627,2.6901 1.67533,0.4928 3.28187,0.5818 5.28637,0 1.33241,-0.3859 2.64626,-1.1624 2.64626,-2.6901 l 0,-2.0176 -5.28636,0 0,-0.6725 5.28636,0 2.6463,0 c 1.5381,0 2.1113,-1.0732 2.6462,-2.68399 0.5526,-1.65828 0.5291,-3.25298 0,-5.38025 C 15.4913,1.15232 14.7653,0 13.2252,0 z M 8.26574,12.7658 c 0.54864,0 0.99312,0.4496 0.99312,1.0057 0,0.558 -0.44448,1.0119 -0.99312,1.0119 -0.54668,0 -0.99312,-0.4539 -0.99312,-1.0119 0,-0.5561 0.44644,-1.0057 0.99312,-1.0057 z" transform="translate(18.3198,20.7109)"/>
</g>
</svg>
