<svg width="48" version="1.1" xmlns="http://www.w3.org/2000/svg" height="48">
<path style="fill:#ecf0f1" id="rect4090" d="m 4.5,5.6271 0,36.7458 39,0 0,-36.6555 -12.6176,-.0903 z "/>
<g style="stroke:none;stroke-width:.541">
<path style="fill:#2a4e16" id="path4149" d="m 24,8.7517 c -10.0792,0 -18.25,5.92652 -18.25,13.21 0,4.68453 3.39454,8.77484 8.4884,11.1145 l -1.5384,7.9719 v 0.8 l 7.3476,-7.0476 c 1.28162,0.206093 2.58487,0.344842 3.9524,0.344842 10.0792,0 18.25,-5.9 18.25,-13.1835 0,-7.28349 -8.1708,-13.21 -18.25,-13.21 Z "/>
<path style="fill:#559c2c" id="path3776" d="m 24,7.9517 c -10.0792,0 -18.25,5.92652 -18.25,13.21 0,4.68453 3.39454,8.77484 8.4884,11.1145 l -1.5384,8.7718 7.3476,-7.0476 c 1.28162,0.206093 2.58487,0.344842 3.9524,0.344842 10.0792,0 18.25,-5.9 18.25,-13.1835 0,-7.28349 -8.1708,-13.21 -18.25,-13.21 z "/>
<path style="opacity:.5" id="path3003" d="m 23.8963,9.6899 c -5.55333,0 -10.0841,4.53082 -10.0841,10.0841 0,5.55333 4.53082,10.1101 10.0841,10.1101 2.15141,0 4.16478,-0.708904 5.80681,-1.86648 l 2.022,2.048 2.4625,-1.6325 .0002,-.8301 -2.022,-2.048 c 1.15757,-1.64203 1.84055,-3.62948 1.84055,-5.78089 0,-5.55333 -4.55675,-10.0841 -10.1101,-10.0841 z  m 0,3.4737 c 3.6725,0 6.63636,2.93793 6.63636,6.61043 0,1.19867 -0.331775,2.32643 -0.881391,3.29226 l -3.2923,-3.2923 2.1255,-1.2699 .0002,-.83 -2.4628,-2.4628 -6.6882,6.6882 v 0.830167 l 2.4628,1.6325 2.0997,-2.1257 3.2923,3.2923 c -0.965814,0.549614 -2.0936,0.855467 -3.29226,0.855467 -3.6725,0 -6.61043,-2.93794 -6.61043,-6.61043 0,-3.6725 2.93793,-6.61043 6.61043,-6.61043 z "/>
<path style="fill:#ecf0f1" id="path3774" d="m 23.8963,10.5199 c -5.55333,0 -10.0841,4.53082 -10.0841,10.0841 0,5.55333 4.53082,10.1101 10.0841,10.1101 2.15141,0 4.16478,-0.708904 5.80681,-1.86648 l 2.022,2.048 2.4625,-2.4625 -2.0218,-2.0481 c 1.15757,-1.64203 1.84055,-3.62948 1.84055,-5.78089 0,-5.55333 -4.55675,-10.0841 -10.1101,-10.0841 z  m 0,3.4737 c 3.6725,0 6.63636,2.93793 6.63636,6.61043 0,1.19867 -0.331775,2.32643 -0.881391,3.29226 l -3.2923,-3.2923 2.1255,-2.0997 -2.4625,-2.4628 -6.6882,6.6885 2.4628,2.4625 2.0997,-2.1257 3.2923,3.2923 c -0.965814,0.549615 -2.0936,0.855468 -3.29226,0.855468 -3.6725,0 -6.61043,-2.93794 -6.61043,-6.61043 0,-3.6725 2.93793,-6.61043 6.61043,-6.61043 z "/>
</g>
</svg>
