<svg width="48" version="1.1" xmlns="http://www.w3.org/2000/svg" height="48">
<path style="fill:#ecf0f1" id="rect4090" d="M 3,3 V 45 H 45 V 3 Z"/>
<g style="fill:#2c3e50" id="g5" transform="matrix(1.3043216,0,0,1.3043216,-7.9558792,-9.8104615)">
<path id="rect3764" d="M 14.65625,18.84375 C 13.746919,18.84375 13,19.590669 13,20.5 l 0,10.84375 C 13,32.253081 13.746919,33 14.65625,33 l 19.6875,0 C 35.253081,33 36,32.253081 36,31.34375 L 36,20.5 c 0,-0.909331 -0.746919,-1.65625 -1.65625,-1.65625 l -19.6875,0 z m 0,1.09375 19.6875,0 c 0.315861,0 0.5625,0.246639 0.5625,0.5625 l 0,10.84375 c 0,0.315861 -0.246639,0.5625 -0.5625,0.5625 l -19.6875,0 c -0.315861,0 -0.5625,-0.246639 -0.5625,-0.5625 l 0,-10.84375 c 0,-0.315861 0.246639,-0.5625 0.5625,-0.5625 z"/>
<path id="path3766" d="m 16.3173,29.6827 0,-7.5192 2.2115,0 2.2115,2.7644 2.2115,-2.7644 2.2115,0 0,7.5192 -2.2115,0 0,-4.3125 -2.2115,2.7644 -2.2115,-2.7644 0,4.3125 z"/>
<path id="path3768" d="m 30.1394,29.6827 -3.3173,-3.649 2.2115,0 0,-3.8702 2.2115,0 0,3.8702 2.2115,0 z"/>
</g>
</svg>
