<svg width="48" version="1.1" xmlns="http://www.w3.org/2000/svg" height="48">
<path style="fill:#ecf0f1" id="rect4090" d="m 4.5719,5.628 0,36.7438 38.8357,0 l .1977,-25.7133 -11.1054,-11.0306 -1.6569,-0 z "/>
<path style="opacity:.5;fill:#fff" id="path4151" d="m 32.5,5.5998 .0004,11.0001 11.0001,0 z "/>
<path style="fill-opacity:.118" id="path4252" d="m 43.5001,27.6 0,-11.0001 -11.0001,0 z "/>
<g style="stroke:none" id="g8" transform="matrix(3.5432722,0,0,3.5432722,135.0667,-1409.6728)">
<path style="fill:#c0392b" id="path4173" d="m -32.7569,404.336 2.8222,.8467 0,1.1289 -2.8222,-.8467 z "/>
<path style="fill:#fd5" id="path4175" d="m -32.7569,402.925 2.8222,.8467 0,1.1289 -2.8222,-.8467 z "/>
<path style="fill:#c0392b" id="path4177" d="m -32.7569,402.925 2.8222,.8467 0,1.1289 -2.8222,-.8467 z "/>
<g style="fill:#e74c3c" id="g13">
<path id="path4169" d="m -29.9347,403.6305 -2.8222,.8467 0,1.1289 2.8222,-.8467 z "/>
<path style="stroke-width:.282" id="path4167" d="m -29.9347,402.0783 -2.8222,.8467 0,1.1289 2.8222,-.8467 z "/>
<path id="path4171" d="m -29.9347,405.1827 -2.8222,.8467 0,1.1289 2.8222,-.8467 z "/>
</g>
</g>
</svg>
