<svg width="48" version="1.1" xmlns="http://www.w3.org/2000/svg" height="48">
<path style="opacity:.2" d="M 4,4 V 46 H 46 V 4 Z"/>
<path style="fill:#ecf0f1" d="m 3,3 v 42 l 42,0 V 3 Z"/>
<path style="fill:#203040" d="m 9,15 36,0 0,30 -36,0 Z "/>
<g style="fill:#fff">
<path style="stroke-width:1.208" d="m 22.2436,34.4431 v 1.5569 h -1.38943 v -1.514 c -1.28791,-0.0052 -2.48698,-0.225204 -3.59724,-0.660046 v -1.98748 c 0.367959,0.224806 0.916742,0.432871 1.64634,0.624205 0.729607,0.191336 1.37989,0.301369 1.9509,0.330057 v -2.61168 c -1.48459,-0.416164 -2.49969,-0.865786 -3.0453,-1.34891 -0.539269,-0.487898 -0.808904,-1.08102 -0.808904,-1.77938 0,-0.750991 0.352118,-1.38958 1.05635,-1.91573 0.704219,-0.530946 1.63684,-0.839479 2.79785,-0.925574 v -1.33456 h 1.38939 v 1.30585 c 1.33865,0.04781 2.3379,0.210445 2.99773,0.487909 v 1.93725 c -0.888199,-0.406585 -1.88744,-0.655307 -2.99773,-0.746196 v 2.71931 c 1.38941,0.377899 2.38549,0.810792 2.98818,1.2987 0.602734,0.483126 0.904094,1.06907 0.904094,1.75786 0,0.794039 -0.336252,1.435 -1.00877,1.9229 -0.672505,0.483094 -1.63366,0.777277 -2.8835,0.882571 z  m -1.3894,-6.2782 v -2.27451 c -0.881871,0.119526 -1.32281,0.466319 -1.32281,1.04037 0,0.492705 0.440944,0.904062 1.32281,1.2341 z  m 1.3894,2.4252 v 2.1741 c 0.907252,-0.105231 1.36089,-0.447253 1.36089,-1.02603 0,-0.468755 -0.45364,-0.851426 -1.36089,-1.14801 z "/>
<rect width="4.5" x="30" y="23.43845" height="12"/>
</g>
</svg>
