<svg width="48" version="1.1" xmlns="http://www.w3.org/2000/svg" height="48">
<rect width="42" x="3" y="3" height="42" style="fill:#c1d084;fill-rule:evenodd;stroke:none" id="rect827"/>
<g style="fill:#201810" id="g842" transform="matrix(1.1036217,0,0,1.1036217,-2.4869098,-2.4869208)">
<path id="path3331" d="m 23.9959,15 c -2.49099,2e-4 -4.96675,0.970623 -6.72683,2.63674 -1.76007,1.6661 -2.78321,4.00729 -2.78321,6.36329 0,2.356 1.02314,4.69714 2.78321,6.36326 1.76008,1.66606 4.23584,2.63655 6.72683,2.63671 2.49096,3.18e-4 4.96655,-0.970643 6.72893,-2.63671 1.7622,-1.66612 2.78929,-4.00695 2.78929,-6.36326 0,-2.35631 -1.0271,-4.6972 -2.78929,-6.36329 C 28.96245,15.97062 26.48687,14.9998 23.9959,15 Z m 0,2 c 3.8748,-1.91e-4 7.40389,3.33471 7.40389,7.00002 0,3.66525 -3.5291,7.00022 -7.40389,6.9999 -3.87486,-1.59e-4 -7.39579,-3.33489 -7.39579,-6.9999 0,-3.66501 3.52092,-6.99982 7.39579,-7.00002 z"/>
<g style="fill-rule:evenodd">
<rect width="4.1110578" x="22.214897" y="19.466927" height="6.8055782" id="rect4351"/>
<path style="stroke-width:.957" id="path4353" d="m 24.1664,29.4366 -5.5487,-5.4466 h 11.0974 Z "/>
</g>
</g>
<g style="fill-rule:evenodd;stroke-width:1.301;fill:#e4eebc">
<rect width="6.8250008" x="20.587385" y="38.756733" height="6.2432671" id="rect4206"/>
<rect width="6.8250008" x="20.587385" y="3" height="6.2429566" id="rect4223"/>
</g>
</svg>
