<svg width="48" version="1.1" xmlns="http://www.w3.org/2000/svg" height="48">
<path style="fill:#ecf0f1" id="rect4090" d="m 4.5504,5.6271 0,36.7458 38.8847,0 l .1153,-36.7328 -12.6956,-.013 Z "/>
<g style="fill:#2c3e50">
<path id="path4146" d="m 11.4708,21.4146 .47,0 .0671,.3156 5.7471,0 .0537,-.3156 .4901,0 .9869,2.7527 -.6042,.2148 q -0.436401,-1.10107 -1.03393,-1.54419 -0.597535,-0.449829 -1.53076,-0.449829 -0.389404,0 -0.463257,0.03357 -0.07385,0.02686 -0.107422,0.100708 -0.02685,0.07385 -0.02685,0.469971 v 6.49902 q 0,0.463257 0.047,0.62439 0.05371,0.161133 0.147705,0.248413 0.09399,0.08728 0.255127,0.127564 0.167847,0.03357 0.738525,0.04028 v 0.563965 h -3.61206 v -0.563965 q 0.597534,-0.0067 0.731811,-0.04028 0.234986,-0.06714 0.335694,-0.255127 0.100708,-0.187989 0.100708,-0.691529 v -6.64001 q 0,-0.308838 -0.03357,-0.375977 -0.02685,-0.06714 -0.114135,-0.100708 -0.08057,-0.04028 -0.342408,-0.04028 -0.731811,0 -1.17493,0.187988 -0.436402,0.187988 -0.825806,0.637818 -0.389404,0.449829 -0.664673,1.16821 l -.6042,-.2148 .9668,-2.7527 z "/>
<path id="path4148" d="m 18.9457,24.5586 7.6135,0 .8795,2.464 -.5908,.2216 q -0.221557,-0.604248 -0.483398,-0.946655 -0.261841,-0.349122 -0.631104,-0.590821 -0.362549,-0.241699 -0.738525,-0.322265 -0.369263,-0.08057 -1.34277,-0.08057 h -2.26929 v 3.43079 h 1.12793 q 0.62439,0 0.939941,-0.20813 0.322266,-0.214843 0.443116,-0.530395 0.09399,-0.234985 0.09399,-0.819092 v -0.154419 h 0.657959 v 4.10889 h -0.657959 v -0.355835 q 0,-0.469971 -0.07385,-0.678101 -0.06714,-0.20813 -0.255127,-0.389404 -0.187988,-0.187988 -0.409546,-0.255127 -0.214843,-0.06714 -0.738525,-0.06714 h -1.12793 v 3.0481 q 0,0.476685 0.04028,0.584107 0.047,0.100708 0.147705,0.147705 0.100708,0.047 0.550537,0.047 h 1.4032 q 1.17493,0 1.83289,-0.281983 0.664673,-0.281982 1.16821,-0.866089 0.396118,-0.456543 0.758667,-1.28906 l .611,.2148 -1.0474,2.934 h -7.90222 v -0.563965 h 0.268554 q 0.469971,0 0.584107,-0.06042 0.17456,-0.08728 0.268554,-0.281982 0.06714,-0.134278 0.06714,-0.584107 v -6.44531 q 0,-0.436402 -0.08728,-0.584107 -0.08728,-0.147705 -0.302124,-0.228271 -0.114136,-0.047 -0.79895,-0.047 v -0.570679 z "/>
<path id="path4150" d="m 28.0495,21.8186 3.5785,0 0,.5707 -.282,0 q -0.402833,0 -0.510254,0.05371 -0.107422,0.05371 -0.107422,0.17456 0,0.08057 0.04028,0.161133 0.04028,0.08057 0.241699,0.349121 l 1.7523,2.3901 1.9135,-2.3901 q 0.268554,-0.335693 0.268554,-0.510254 0,-0.107422 -0.107422,-0.167847 -0.100708,-0.06042 -0.436401,-0.06042 h -0.342407 v -0.570679 h 3.04138 v 0.570679 q -0.543824,0 -0.785523,0.114135 -0.234985,0.114136 -0.657959,0.62439 l -2.4438,2.934 2.8802,3.7799 q 0.275268,0.362549 0.463256,0.516968 0.187989,0.147705 0.362549,0.20813 0.174561,0.05371 0.577393,0.05371 v 0.563965 h -3.59192 v -0.563965 h 0.281982 q 0.41626,0 0.523682,-0.05371 0.114136,-0.06043 0.114136,-0.187988 0,-0.07385 -0.04028,-0.154419 -0.01343,-0.03357 -0.268555,-0.382691 l -2.1417,-2.8601 -2.3431,2.9474 q -0.214844,0.26184 -0.2417,0.322265 -0.04028,0.07385 -0.04028,0.140991 0,0.127564 0.154419,0.187989 0.100708,0.04028 0.476685,0.04028 h 0.281982 v 0.563965 h -3.03467 v -0.563965 q 0.41626,0 0.604248,-0.05371 0.194702,-0.06043 0.389404,-0.20813 0.194703,-0.147705 0.496827,-0.516968 l 2.8265,-3.4039 -2.511,-3.3099 q -0.375979,-0.496827 -0.617678,-0.617677 -0.234986,-0.120849 -0.765381,-0.120849 v -0.570679 z "/>
</g>
</svg>
