<svg width="48" version="1.1" xmlns="http://www.w3.org/2000/svg" height="48">
<path style="fill:#5b6d71;fill-rule:evenodd" id="rect816" d="M 3,3 H 45 V 45 H 3 Z"/>
<path style="fill:#fbfbfb" id="path844" d="m 18,12 c -3.31371,0 -6,2.68629 -6,6 0.0012,0.771643 0.176687,1.46059 0.373047,2.05859 0.863355,2.36407 3.11017,3.93772 5.62695,3.94141 3.31371,0 6,-2.68629 6,-6 0,-3.31371 -2.68629,-6 -6,-6 z m 6,6 c 0.0028,0.09314 0.0084,0.186385 0.01563,0.279297 -0.0086,0.08854 -0.01428,0.176681 -0.01563,0.265625 0,0.526926 0.128785,1.04678 0.373047,1.51367 0.863355,2.36407 3.11017,3.93772 5.62695,3.94141 3.31371,0 6,-2.68629 6,-6 0,-3.31371 -2.68629,-6 -6,-6 -3.31371,0 -6,2.68629 -6,6 z m -6,-4.9082 c 2.71121,0 4.9082,2.19699 4.9082,4.9082 0,2.71121 -2.19699,4.9082 -4.9082,4.9082 -1.13554,0 -2.23599,-0.394245 -3.11328,-1.11523 0.127936,0.01611 0.257775,0.02447 0.386719,0.02539 1.80747,0 3.27148,-1.46597 3.27148,-3.27344 0,-1.80747 -1.46402,-3.27149 -3.27148,-3.27148 -0.56326,0.0014 -1.11751,0.147853 -1.60742,0.425781 0.851131,-1.6039 2.51824,-2.60648 4.33398,-2.60742 z m 12,0 c 2.71122,0 4.9082,2.19699 4.9082,4.9082 0,2.71121 -2.19699,4.9082 -4.9082,4.9082 -1.13554,0 -2.23599,-0.394246 -3.11328,-1.11523 0.127936,0.01611 0.257775,0.02447 0.386719,0.02539 1.80747,0 3.27148,-1.46597 3.27148,-3.27344 0,-1.80747 -1.46401,-3.27149 -3.27148,-3.27148 -0.56326,0.0014 -1.1175,0.147853 -1.60742,0.425781 0.851131,-1.6039 2.51824,-2.60648 4.33398,-2.60742 z m 3.3672,14.041 c -3.13666,1.0065 -6.21838,1.19311 -9.36719,1.23047 -2.72634,0.03235 -6.19529,-0.369962 -8.13281,-0.873047 l -0.7305,0.8047 c 0.771717,0.422012 2.24561,0.755889 3.4082,0.960937 1.82712,0.322251 3.69523,0.429419 5.55078,0.414063 2.15843,-0.01787 4.33815,-0.13817 6.44922,-0.589844 1.24078,-0.265472 3.01912,-0.753767 3.60156,-1.23438 z m -3.9121,2.793 c -1.36691,0.209455 -2.84146,0.338315 -4.36328,0.38086 v 3.51172 c 0,1.20498 0.976656,2.18164 2.18164,2.18164 1.20499,0 2.18164,-0.976657 2.18164,-2.18164 z m -9.8184,0.1406 v 3.75195 c 0,1.20498 0.976654,2.18164 2.18164,2.18164 1.20498,0 2.18164,-0.976657 2.18164,-2.18164 v -3.49023 c -1.50327,-0.0011 -2.96692,-0.09698 -4.36328,-0.26172 z"/>
</svg>
