<svg width="48" version="1.1" xmlns="http://www.w3.org/2000/svg" height="48">
<path style="fill:#5b6d71" d="M 3,3 H 45 V 45 H 3 Z"/>
<path style="fill:#fafafa" d="m 11,15 v 4.15385 h 3.81818 v 9.69231 h -3.81818 v 4.15384 h 12.7273 v -4.15385 h -3.81818 v -2.76923 h 4.45454 c 1.05436,0 1.90909,0.929869 1.90909,2.07692 v 0.69231 c 0.0023,1.59108 0.633434,3.10426 1.7326,4.15384 h 9.26207 c 1.09916,-1.04959 1.73032,-2.56276 1.7326,-4.15384 v -2.76923 h -5.09091 v 1.38462 c 0,0.764701 -0.569819,1.38462 -1.27273,1.38462 -0.702908,0 -1.27273,-0.619915 -1.27273,-1.38462 v -0.692309 c 0,-1.14705 -0.854729,-2.07692 -1.90909,-2.07692 h -1.27273 c 2.46018,0 4.45455,-2.1697 4.45455,-4.84615 0,-2.67646 -1.99437,-4.84616 -4.45455,-4.84616 Z  m 8.9091,4.1538 h 4.45455 c 1.05436,0 1.90909,0.929871 1.90909,2.07692 0,1.14705 -0.854729,2.07692 -1.90909,2.07692 h -4.45455 z "/>
</svg>
