<svg width="48" version="1.1" xmlns="http://www.w3.org/2000/svg" height="48">
<path style="fill:#ecf0f1" id="rect4090" d="m 4.517,5.672 0,36.653 38.961,-.0004 0,-36.6526 z "/>
<path style="fill:#203040" id="rect813" d="m 10.1998,15.8321 33.2782,.0002 .0001,26.4928 -33.2782,-.0002 z "/>
<g style="fill:#fff">
<path id="path815" d="m 22.5608,29.986 0,1.2885 -1.1499,0 0,-1.253 c -1.06588,-0.0043 -2.05824,-0.186381 -2.9771,-0.546259 v -1.64485 c 0.304526,0.186051 0.758703,0.358247 1.36252,0.516597 0.603828,0.158351 1.14201,0.249415 1.61458,0.273157 v -2.16145 c -1.22866,-0.34442 -2.06876,-0.716531 -2.52031,-1.11637 -0.446303,-0.403788 -0.669455,-0.894664 -0.669455,-1.47263 0,-0.621526 0.291415,-1.15003 0.874246,-1.58547 0.582817,-0.439415 1.35466,-0.694759 2.31552,-0.766012 v -1.10449 h 1.14987 v 1.08073 c 1.10788,0.03957 1.93486,0.174166 2.48094,0.403797 v 1.60328 c -0.73508,-0.336493 -1.56206,-0.542337 -2.48094,-0.617558 v 2.25052 c 1.14989,0.312752 1.97425,0.671017 2.47304,1.07481 0.498827,0.399839 0.748235,0.884769 0.748235,1.45482 0,0.657153 -0.278285,1.18762 -0.834866,1.59141 -0.55657,0.399812 -1.35203,0.64328 -2.38641,0.730422 z  m -1.1499,-5.1959 0,-1.8824 c -0.729843,0.09892 -1.09477,0.385929 -1.09477,0.861017 0,0.407766 0.364928,0.748208 1.09477,1.02135 z  m 1.1499,2.0071 0,1.7993 c 0.750848,-0.08709 1.12628,-0.37015 1.12628,-0.84915 0,-0.387945 -0.375436,-0.704646 -1.12628,-0.950103 z "/>
<rect width="4.5836515" x="28.534418" y="20.413738" height="10.079591" id="rect868"/>
</g>
</svg>
