<svg width="48" version="1.1" xmlns="http://www.w3.org/2000/svg" height="48">
<path style="opacity:.2" d="M 4,4 V 46 H 46 V 4 Z"/>
<path style="fill:#ecf0f1;stroke-width:1.024" id="rect4090" d="M 3,3 V 45 H 45 V 3 Z"/>
<path style="fill:#1793d1;stroke-width:.696" id="path4509" d="m 23.9983,8 c 2.92933,6.87498 3.62496,9.01963 12.1681,24.9261 -1.08032,-0.648334 -2.48551,-1.22363 -4.42077,-1.72657 2.81594,1.44553 4.19469,2.76377 5.51571,3.78914 0.84033,1.55823 1.75092,3.19576 2.73664,5.01067 -4.99746,-2.88481 -8.88468,-4.68025 -12.5048,-5.3891 0.120345,-0.544684 0.195474,-1.15754 0.210778,-1.76831 0.08069,-3.24723 -1.49353,-6.02004 -3.4921,-6.18908 -2.00065,-0.169736 -3.70914,2.35264 -3.78913,5.59988 v 0.168344 c -0.0063,0.763114 0.0953,1.47127 0.252516,2.14743 -3.66044,0.688681 -7.6061,2.50638 -12.6731,5.43153 6.44786,-11.5858 9.63457,-17.6205 11.6631,-21.852 1.06154,0.892503 2.50708,1.7537 4.58912,2.61073 -1.93665,-1.3544 -3.15471,-2.54881 -4.12652,-3.57905 1.58466,-3.38567 2.45003,-5.68892 3.87331,-9.17893"/>
</svg>
