<svg width="48" version="1.1" xmlns="http://www.w3.org/2000/svg" height="48">
<path style="fill:#008eff" id="rect4090" d="M 3,3 V 45 H 45 V 3 Z"/>
<g style="fill:#fff">
<path id="path4140" d="m 11.5,17.6836 3.1956,0 0,7.4286 q 0,1.53552 0.498008,2.19954 0.506309,0.65571 1.64343,0.65571 1.14542,0 1.64343,-0.65571 0.506308,-0.664011 0.506308,-2.19954 v -7.42862 h 3.19555 v 7.42862 q 0,2.63114 -1.31972,3.91766 -1.31972,1.28652 -4.02556,1.28652 -2.69754,0 -4.01727,-1.28652 -1.31972,-1.28652 -1.31972,-3.91766 v -7.42862 z "/>
<path id="path4142" d="m 29.8516,23.1783 q 1.00432,0 1.43592,-0.373506 0.439907,-0.373506 0.439907,-1.22842 0,-0.846614 -0.439907,-1.21182 -0.431606,-0.365206 -1.43592,-0.365206 h -1.34462 v 3.17895 h 1.34462 z  m -1.3446,2.2078 0,4.6896 -3.1956,0 0,-12.3921 4.8805,0 q 2.44854,0 3.58566,0.821713 1.14542,0.821714 1.14542,2.59794 0,1.22842 -0.59761,2.01693 -0.589309,0.788513 -1.78453,1.16202 0.65571,0.149402 1.17032,0.680611 0.522909,0.522908 1.05412,1.59363 l 1.7347,3.5193 h -3.40306 l -1.5106,-3.0793 q -0.456507,-0.929615 -0.929615,-1.26992 -0.464807,-0.340305 -1.24502,-0.340305 h -0.904714 z "/>
</g>
</svg>
