<svg width="48" version="1.1" xmlns="http://www.w3.org/2000/svg" height="48">
<g id="layer1" transform="matrix(1.1470591,0,0,0.91864444,-3.5294177,1.9525339)">
<path style="fill:#ecf0f1" id="rect4090" d="M 0,0 0,40 34,40 34,0.06980703 23,0 z" transform="translate(7,4)"/>
</g>
<g style="stroke:none" id="g6">
<g id="g3053" transform="matrix(0.46721841,0,0,0.55007109,12.78676,10.798381)">
<g style="fill:#27ae60" id="g9">
<rect width="18" x="4" y="6.9996953" height="10" id="folderTab"/>
<rect width="40" x="4" y="9" height="30" id="folderBackground"/>
</g>
<rect width="35.999992" x="6" y="10.9998" height="27.999756" style="fill:#fff" id="folderPaper"/>
<rect width="43.999996" x="2" y="12.999983" height="28.000008" style="fill:#3498db" id="folderFront"/>
</g>
<rect width="16.819859" x="15.59007" y="16.849052" height="15.401856" style="fill:#fff" id="rect3849"/>
<rect width="20.557608" x="13.721197" y="17.949295" height="15.401994" style="fill:#27ae60" id="rect3851"/>
<path style="fill:#fff" id="path4152" d="m 20.6542,23.5058 -1.3265,0 0,-2.0204 -.6429,0 c -0.163265,1.30612 -0.714285,1.9898 -1.68367,2.10204 v 0.530612 h 0.72449 v 2.43878 c 0,0.836735 0.04082,1.08163 0.214285,1.36735 0.214286,0.357143 0.653062,0.561224 1.23469,0.561224 0.581633,0 1.04082,-0.193877 1.31633,-0.561224 0.255102,-0.326531 0.408163,-0.816327 0.408163,-1.2551 0,-0.05102 0,-0.132653 -0.0102,-0.234694 h -0.540816 c 0.0102,0.755102 -0.22449,1.18367 -0.642857,1.18367 -0.295919,0 -0.377551,-0.183673 -0.377551,-0.877551 v -2.62245 h 1.32653 v -0.612244 z "/>
<path style="fill:#fff" id="path4154" d="m 24.8867,25.5568 1.0612,-1 c 0.418368,-0.387755 0.72449,-0.530612 1.16327,-0.530612 v -0.520408 h -2.5102 v 0.520408 h 0.234694 c 0.255102,0 0.408164,0.09184 0.408164,0.234694 0,0.10204 -0.06123,0.204081 -0.214286,0.346938 l -.5204,.5 -.5816,-.7041 c -0.08163,-0.09184 -0.112245,-0.153062 -0.112245,-0.214286 0,-0.102041 0.122449,-0.163265 0.336735,-0.163265 h 0.112245 v -0.520408 h -3.02041 v 0.520408 c 0.306122,0.02041 0.418367,0.08163 0.683673,0.397959 l 1.4592,1.7449 -1.2347,1.1735 c -0.367347,0.336735 -0.602041,0.459184 -0.908163,0.469388 v 0.520408 h 2.38775 v -0.520408 h -0.132653 c -0.295919,0 -0.479592,-0.112245 -0.479592,-0.285714 0,-0.102041 0.05102,-0.204082 0.142857,-0.295919 l .6122,-.602 .602,.7245 c 0.08163,0.09184 0.112245,0.153061 0.112245,0.22449 0,0.163265 -0.132653,0.234694 -0.408164,0.234694 h -0.07143 v 0.520408 h 3.20408 v -0.520408 c -0.377551,-0.0102 -0.489796,-0.08163 -0.918367,-0.581633 l -1.4082,-1.6735 z "/>
<path style="fill:#fff" id="path4156" d="m 31.237,23.5058 -1.3265,0 0,-2.0204 -.6429,0 c -0.163265,1.30612 -0.714286,1.9898 -1.68367,2.10204 v 0.530612 h 0.72449 v 2.43878 c 0,0.836735 0.04082,1.08163 0.214286,1.36735 0.214286,0.357143 0.653061,0.561224 1.23469,0.561224 0.581632,0 1.04082,-0.193877 1.31633,-0.561224 0.255102,-0.326531 0.408164,-0.816327 0.408164,-1.2551 0,-0.05102 0,-0.132653 -0.0102,-0.234694 h -0.540816 c 0.0102,0.755102 -0.22449,1.18367 -0.642857,1.18367 -0.295918,0 -0.377551,-0.183673 -0.377551,-0.877551 v -2.62245 h 1.32653 v -0.612244 z "/>
</g>
</svg>
