<svg width="48" version="1.1" xmlns="http://www.w3.org/2000/svg" height="48">
<path style="opacity:.2" d="M 4,4 V 46 H 46 V 4 Z"/>
<rect width="42" x="3" y="3" height="42" style="fill:#ecf0f1;fill-rule:evenodd;stroke:none" id="rect819"/>
<g id="g825" transform="matrix(1.1601208,0,0,1.158371,-3.8428992,-0.0941168)">
<g style="fill:#2c3e50" id="g2995" transform="translate(0.47361458,-5.5618579)">
<path id="shape1" d="m 19.5627,28.5969 c -0.943686,-0.248208 -1.66756,-0.976537 -1.79483,-1.80674 -0.18936,-1.23049 0.434983,-2.18587 1.70773,-2.61464 0.689738,-0.232084 1.94249,-0.22676 2.68673,0.0118 0.451873,0.14489 1.30088,0.71352 1.30088,0.871495 0,0.02591 -0.29336,0.154241 -0.651312,0.285184 l -.6515,.2381 -.3477,-.2578 c -0.194002,-0.143878 -0.490655,-0.277826 -0.671087,-0.30273 -0.447399,-0.06258 -0.983087,0.08533 -1.22542,0.337703 -0.400633,0.417551 -0.428392,1.5092 -0.04889,1.93882 0.196916,0.222891 0.527728,0.379143 0.839705,0.396836 0.65598,0.03741 0.821466,-0.0046 1.20949,-0.307332 l .3915,-.305 .5042,.2057 c 0.277267,0.113241 0.544222,0.232674 0.593305,0.265607 0.170143,0.113683 -0.609983,0.704169 -1.23762,0.936687 -0.533359,0.197692 -0.701369,0.224168 -1.40253,0.218849 -0.439255,-0.0035 -0.97999,-0.05395 -1.20273,-0.112516 z "/>
<path id="shape2" d="m 25.3976,28.6099 c -0.935256,-0.245443 -1.65055,-0.952928 -1.80421,-1.7848 -0.222895,-1.20515 0.433698,-2.21797 1.71667,-2.64898 0.744338,-0.250066 2.00663,-0.231018 2.76112,0.04228 0.467048,0.16897 1.24688,0.699401 1.24688,0.847885 0,0.02524 -0.305576,0.155407 -0.679598,0.289171 l -.6794,.2434 -.3518,-.2841 c -0.316302,-0.255548 -0.400542,-0.284118 -0.833855,-0.284118 -0.596539,0 -0.980311,0.173449 -1.18742,0.536635 -0.18525,0.324952 -0.208638,1.12161 -0.04368,1.48465 0.336008,0.737947 1.56182,0.912839 2.25762,0.322077 l .3128,-.2655 .6028,.2254 c 0.331512,0.123658 0.60278,0.246022 0.60278,0.27156 0,0.167386 -0.778865,0.704316 -1.30286,0.897957 -0.536273,0.198262 -0.704949,0.22481 -1.40971,0.219473 -0.440528,-0.0036 -0.984016,-0.05425 -1.20808,-0.112984 z "/>
</g>
<path style="fill:#2c3e50;stroke:none;color:#000;stroke-width:.842" id="path2990" d="m 24,10.4406 c -5.71405,0 -10.3438,4.6297 -10.3438,10.3438 0,5.71405 4.6297,10.375 10.3438,10.375 5.71405,0 10.3438,-4.66095 10.3438,-10.375 0,-5.71405 -4.6297,-10.3438 -10.3438,-10.3438 z  m 0,2.2188 c 4.48687,0 8.125,3.63813 8.125,8.125 0,4.48687 -3.63813,8.125 -8.125,8.125 -4.48687,0 -8.125,-3.63813 -8.125,-8.125 0,-4.48687 3.63813,-8.125 8.125,-8.125 z "/>
</g>
</svg>
