<svg width="48" version="1.1" xmlns="http://www.w3.org/2000/svg" height="48">
<path style="fill:#ecf0f1" id="rect4090" d="m 3,3 v 42 l 42,0 V 3 Z"/>
<path style="fill:#003e60" id="rect813" d="m 9,15 36,0 0,30 -36,0 Z "/>
<g style="fill:#fff">
<path id="path815" d="m 22.2436,34.4431 v 1.5569 h -1.38943 v -1.514 c -1.28791,-0.0052 -2.48698,-0.225204 -3.59724,-0.660046 v -1.98748 c 0.367959,0.224806 0.916742,0.432871 1.64634,0.624205 0.729607,0.191336 1.37989,0.301369 1.9509,0.330057 v -2.61168 c -1.48459,-0.416164 -2.49969,-0.865786 -3.0453,-1.34891 -0.539269,-0.487898 -0.808904,-1.08102 -0.808904,-1.77938 0,-0.750991 0.352118,-1.38958 1.05635,-1.91573 0.704219,-0.530946 1.63684,-0.839479 2.79785,-0.925574 v -1.33456 h 1.38939 v 1.30585 c 1.33865,0.04781 2.3379,0.210445 2.99773,0.487909 v 1.93725 c -0.888199,-0.406585 -1.88744,-0.655307 -2.99773,-0.746196 v 2.71931 c 1.38941,0.377899 2.38549,0.810792 2.98818,1.2987 0.602734,0.483126 0.904094,1.06907 0.904094,1.75786 0,0.794039 -0.336252,1.435 -1.00877,1.9229 -0.672505,0.483094 -1.63366,0.777277 -2.8835,0.882571 z  m -1.3894,-6.2782 v -2.27451 c -0.881871,0.119526 -1.32281,0.466319 -1.32281,1.04037 0,0.492705 0.440944,0.904062 1.32281,1.2341 z  m 1.3894,2.4252 v 2.1741 c 0.907252,-0.105231 1.36089,-0.447253 1.36089,-1.02603 0,-0.468755 -0.45364,-0.851426 -1.36089,-1.14801 z "/>
<g id="text824" transform="matrix(1,0,0,1,0.00839739,0.00992039)">
<path style="stroke-width:.397" id="path826" d="m 39.8386,34.5781 c -1.14813,0.625223 -2.39091,0.829068 -3.57134,0.85991 -1.92575,0.05032 -3.45384,-0.535771 -4.57844,-1.61136 -1.12718,-1.07806 -1.68883,-2.53841 -1.68883,-4.38477 0,-1.84635 0.564233,-3.30917 1.68883,-4.38476 1.12718,-1.07806 2.4741,-1.6271 4.57844,-1.61911 1.30773,0.005 2.68538,0.262779 3.57134,0.859909 v 2.3938 c -1.0324,-0.756081 -2.08374,-1.17734 -3.33118,-1.09232 -2.03239,0.138526 -3.14897,1.74947 -3.12442,3.84248 0.02455,2.09301 1.46338,3.65296 3.12442,3.73449 1.27901,0.06278 2.3564,-0.428892 3.33118,-0.992076 z "/>
</g>
</g>
</svg>
