<svg width="48" version="1.1" xmlns="http://www.w3.org/2000/svg" height="48">
<g id="layer1" transform="matrix(1.1446382,0,0,0.91859617,-3.4765175,1.9536064)">
<path style="fill:#ecf0f1" id="rect4090" d="M 0,0 0,40 34,40 34.071909,-0.00210213 23,0 z" transform="translate(7,4)"/>
<g style="fill:#3498db">
<path id="c" d="m 7.45375,14.0094 c 1.50221,0.0716 3.13555,-1.0299 3.17665,-2.6261 0.0223,-0.298 0.5466,-0.0815 0.7955,-0.1473 0.8413,0 1.6827,0 2.524,0 0.1884,1.6059 -0.7211,3.1707 -1.9601,4.1414 C 9.94988,17.0931 6.98583,17.3055 4.53268,16.4568 2.1806,15.6298 0.663672,13.3085 0.214097,10.9353 -0.0657146,9.38054 -0.0639436,7.77069 0.176707,6.21104 0.588982,3.76562 2.11878,1.34712 4.53268,0.486819 6.41265,-0.16627 8.54835,-0.179133 10.4073,0.550809 12.4238,1.3702 13.9581,3.36944 13.9898,5.57988 c 0.2193,0.5862 -0.1707,0.63749 -0.5967,0.57678 -0.9197,0 -1.8394,0 -2.7591,0 C 10.7041,4.50924 9.3058,2.93619 7.62873,2.9499 6.39419,2.86007 5.03751,3.38065 4.47685,4.54749 3.56233,6.23665 3.59078,8.23515 3.75448,10.0958 c 0.19712,1.335 0.63805,2.8849 1.9358,3.5443 0.54321,0.2745 1.15998,0.3693 1.76347,0.3693 z" transform="translate(11.1848,19.4869)"/>
<path id="shape0" d="m 5.78906,12.2578 c -0.53125,0 -1.0625,0 -1.59375,0 -0.23047,1.6016 -0.46093,3.2031 -0.6914,4.8047 -0.67579,0 -1.35157,0 -2.02735,0 0.23047,-1.6016 0.46094,-3.2031 0.69141,-4.8047 -0.72266,0 -1.445314,0 -2.16797,0 0,-0.6484 0,-1.2969 0,-1.9453 0.816406,0 1.63281,0 2.44922,0 0.16797,-1.16406 0.33594,-2.32813 0.5039,-3.49219 -0.73828,0 -1.47656,0 -2.214839,0 0,-0.64843 0,-1.29687 0,-1.94531 0.832029,0 1.664059,0 2.496099,0 C 3.47266,3.25 3.71094,1.625 3.94922,0 4.62109,0 5.29297,0 5.96484,0 5.73047,1.625 5.49609,3.25 5.26172,4.875 c 0.53125,0 1.0625,0 1.59375,0 C 7.08984,3.25 7.32422,1.625 7.55859,0 8.23438,0 8.91016,0 9.58594,0 9.35156,1.625 9.11719,3.25 8.88281,4.875 c 0.72657,0 1.45309,0 2.17969,0 0,0.64844 0,1.29688 0,1.94531 -0.8203,0 -1.64062,0 -2.46094,0 -0.16797,1.16406 -0.33594,2.32813 -0.5039,3.49219 0.73828,0 1.47656,0 2.21484,0 0,0.6484 0,1.2969 0,1.9453 -0.83203,0 -1.66406,0 -2.49609,0 -0.23047,1.6016 -0.46094,3.2031 -0.69141,4.8047 -0.67578,0 -1.35156,0 -2.02734,0 0.23046,-1.6016 0.46093,-3.2031 0.6914,-4.8047 z m -1.3125,-1.9453 c 0.53125,0 1.0625,0 1.59375,0 0.16797,-1.16406 0.33594,-2.32813 0.50391,-3.49219 -0.53125,0 -1.0625,0 -1.59375,0 C 4.8125,7.98437 4.64453,9.14844 4.47656,10.3125 z" transform="translate(27.0415,19.5152)"/>
</g>
</g>
</svg>
