<svg width="48" version="1.1" xmlns="http://www.w3.org/2000/svg" height="48">
<path style="fill:#ff7e00" id="rect4090" d="M 3,3 V 45 H 45 V 3 Z"/>
<g style="fill-rule:evenodd" id="g13" transform="translate(0,3.9999994)">
<g style="opacity:.25" id="g831" transform="matrix(0.82114164,0,0,1.6973604,2.839919,-23.436555)">
<path id="path823" d="m 15.744,23.8232 v 8.2481 h 8.4913 V 29.4022 H 18.531615 V 26.617 H 24.2353 v -2.7938 z"/>
<path id="path825" d="m 27.6512,23.8232 v 2.232 l 4.1488,3.347 h -3.92298 v 2.6691 h 8.1156 V 29.528 l -3.9222,-2.7938 h 3.92218 v -2.911 z"/>
<path id="path827" d="m 39.3484,23.8232 v 2.232 l 4.1488,3.347 h -3.92298 v 2.6691 h 8.1156 V 29.528 l -3.9235,-2.7938 h 3.92348 v -2.911 z"/>
<path id="path829" d="m 3.8484,23.8232 v 2.232 l 4.1488,3.347 H 4.07422 v 2.6691 h 8.1156 V 29.528 l -3.9235,-2.7938 h 3.92348 v -2.911 z"/>
</g>
<g style="fill:#fff" id="g830" transform="matrix(0.82114164,0,0,1.6973604,2.839919,-22.436554)">
<path id="shape0" d="m 15.744,23.8232 v 8.2481 h 8.4913 V 29.4022 H 18.531615 V 26.617 H 24.2353 v -2.7938 z"/>
<path id="shape1" d="m 27.6512,23.8232 v 2.232 l 4.1488,3.347 h -3.92298 v 2.6691 h 8.1156 V 29.528 l -3.9222,-2.7938 h 3.92218 v -2.911 z"/>
<path id="shape2" d="m 39.3484,23.8232 v 2.232 l 4.1488,3.347 h -3.92298 v 2.6691 h 8.1156 V 29.528 l -3.9235,-2.7938 h 3.92348 v -2.911 z"/>
<path id="path824" d="m 3.8484,23.8232 v 2.232 l 4.1488,3.347 H 4.07422 v 2.6691 h 8.1156 V 29.528 l -3.9235,-2.7938 h 3.92348 v -2.911 z"/>
</g>
</g>
</svg>
