<svg width="48" version="1.1" xmlns="http://www.w3.org/2000/svg" height="48">
<path style="fill:#5955a9" d="M 3,3 V 45 H 45 V 3 Z"/>
<path style="fill:#fff" d="m 14.7496,37.8722 c 0,0 1.81689,0.527558 4.23539,0.82915 0.979434,0.122137 4.70598,0.549032 7.5632,0.537828 0,0 3.47983,0.004 5.40068,-0.268914 2.00986,-0.285507 3.14854,-0.649875 3.78224,-1.37701 0.0165,-0.173374 0.305871,-0.738518 -0.475377,-1.28351 -1.99735,-1.39335 -4.57946,-1.77474 -9.59491,-2.96584 -5.54612,-1.3944 -7.20358,-2.72965 -8.0316,-3.69597 -0.785025,-0.968468 0.147358,-2.97979 4.61635,-3.96647 2.2627,-0.550625 10.69,-0.651798 10.69,-0.651798 -2.41773,-1.91954 -6.95677,-5.35617 -7.88457,-6.08701 -0.813722,-0.640982 -2.125,-1.62463 -2.26597,-2.50365 -0.19015,-0.855679 1.15675,-1.26768 1.86981,-1.31521 2.29765,-0.158459 5.43515,0.110922 8.22402,0.665528 1.40184,0.278776 1.64798,0.237689 1.64798,0.237689 1.99659,0.09507 3.54948,-0.950756 3.47025,-3.15334 -0.01585,-2.23427 -2.24972,-4.02583 -4.72208,-4.10408 -2.32823,-0.073699 -8.06556,0.332765 -8.06556,0.332765 6.68697,1.3786 7.78013,1.7304 8.12894,2.53534 0.205996,0.475377 -0.344104,0.948022 -2.18673,0.855678 -2.00605,-0.100537 -6.11651,-0.586297 -6.11651,-0.586297 -3.91393,-0.602144 -6.63943,-1.17259 -7.82787,0.380301 -0.776424,1.01453 0.110922,2.25011 0.459531,2.97903 1.5529,2.70965 4.23817,4.56867 5.94221,5.87883 0.641161,0.492958 2.59872,1.58459 2.59872,1.58459 -6.08482,-1.66382 -10.9336,-0.728911 -14.0078,0.88737 -3.53363,2.09166 -2.92917,5.62135 2.67795,8.92126 3.31179,1.94904 4.96074,2.88536 10.3831,3.55107 3.16949,0.505377 3.64177,0.712163 3.61768,0.975975 -0.03391,0.371423 -3.75141,0.512177 -4.77322,0.582647 -2.5995,0.179275 -9.3223,0.224094 -9.35595,0.224094 z "/>
</svg>
