<svg width="48" version="1.1" xmlns="http://www.w3.org/2000/svg" height="48">
<g id="layer1" transform="matrix(1.1470591,0,0,0.91859617,-3.5294177,1.9536064)">
<path style="fill:#ecf0f1" id="rect4090" d="m 5.6923,1.1391 v 45.7219 h 36.6154 l -0,-45.7219 z "/>
<path style="fill:#8e44ad" id="shape0" d="M 0,10.2252 C 0,9.09139 0,7.95759 0,6.82381 3.29897,5.44707 6.59795,4.07034 9.89692,2.69361 c 0,0.8028 0,1.60559 0,2.4084 -2.6758,1.14434 -5.35159,2.28868 -8.02739,3.43303 2.6758,1.14082 5.35159,2.28166 8.02739,3.42246 0,0.7993 0,1.5986 0,2.3979 C 6.59795,12.9787 3.29897,11.6019 0,10.2252 z m 10.8895,5.8836 C 11.8243,10.7392 12.759,5.36961 13.6938,0 c 0.7645,0 1.529,0 2.2935,0 -0.9187,5.36961 -1.8374,10.7392 -2.7561,16.1088 -0.7805,0 -1.5611,0 -2.3417,0 z m 6.1097,-1.7534 c 0,-0.7993 0,-1.5986 0,-2.3979 2.6726,-1.1408 5.3452,-2.28164 8.0178,-3.42246 -2.6726,-1.14435 -5.3452,-2.28869 -8.0178,-3.43303 0,-0.80281 0,-1.6056 0,-2.4084 3.299,1.37673 6.5979,2.75346 9.8969,4.1302 0,1.13378 0,2.26758 0,3.40139 -3.299,1.3767 -6.5979,2.7535 -9.8969,4.1302 z" transform="translate(10.6005,19.5918)"/>
</g>
</svg>
