<svg width="48" version="1.1" xmlns="http://www.w3.org/2000/svg" height="48">
<g id="layer1" transform="matrix(1.1422276,0,0,0.91859617,-3.4236888,1.9536064)">
<path style="fill:#ecf0f1" id="rect4090" d="M 0,0 0,40 34,40 34.143818,-0.00210213 23,0 z" transform="translate(7,4)"/>
<g style="stroke:#003bc3;stroke-width:0;fill-rule:evenodd;stroke-linecap:square;fill:#7f8c8d">
<rect width="23.362026" x="0" y="0" height="3.1810868" style="stroke-miterlimit:2.013" id="line2" transform="translate(12.3038,16.1417)"/>
<g style="stroke-miterlimit:2">
<rect width="17.642252" x="15.178874" y="9.7795401" height="3.1810868" id="line"/>
<rect width="23.362026" x="0" y="0" height="3.1810868" id="line21" transform="translate(12.2953,22.5039)"/>
<rect width="23.362026" x="0" y="0" height="3.1810868" id="line22" transform="translate(12.3392,28.8661)"/>
<rect width="23.362026" x="0" y="0" height="3.1810868" id="line23" transform="translate(12.3307,35.2282)"/>
</g>
</g>
</g>
<g id="layer1-4" transform="matrix(0.53889228,0,0,0.51045853,15.398095,14.785445)">
<path style="fill:#e67e22" id="rect4090-7" d="m 0,0 0,40 34,0 .0026,-39.9979 z " transform="translate(7,4)"/>
<rect width="9.0000162" x="0" y="0" height="40.004005" style="fill:#2c3e50;fill-rule:evenodd;stroke:#003bc3;stroke-linecap:square;stroke-width:0;stroke-miterlimit:2.013" id="shape0" transform="translate(7.01576,4.00394)"/>
<path style="fill:#c0392b" id="rect4153" d="m 0,0 9,0 0,10.9843 l -4.5,-2.9957 -4.5,2.9957 z " transform="translate(31.834,4.249)"/>
</g>
</svg>
