<svg width="48" version="1.1" xmlns="http://www.w3.org/2000/svg" height="48">
<path style="fill:#ecf0f1;fill-rule:evenodd;stroke:none" id="rect828" d="M 3,3 H 34 L 45,14 V 45 H 3 Z"/>
<path style="opacity:.5;fill:#fff" id="path4151" d="m 34,3 -1e-4,11.0001 H 45 Z"/>
<path style="fill-opacity:.118" id="path4252" d="M 44.9996,25.0002 V 14 l -11.0001,10e-5 z"/>
<g style="stroke:none" id="g8" transform="matrix(4.252002,0,0,4.252002,157.2824,-1696.4378)">
<path style="fill:#c0392b" id="path4173" d="m -32.7569,404.336 2.8222,.8467 v 1.1289 l -2.8222,-.8467 z "/>
<path style="fill:#fd5" id="path4175" d="m -32.7569,402.925 2.8222,.8467 v 1.1289 l -2.8222,-.8467 z "/>
<path style="fill:#c0392b" id="path4177" d="m -32.7569,402.925 2.8222,.8467 v 1.1289 l -2.8222,-.8467 z "/>
<g style="fill:#e74c3c" id="g13">
<path id="path4169" d="m -29.9347,403.6305 -2.8222,.8467 v 1.1289 l 2.8222,-.8467 z "/>
<path style="stroke-width:.282" id="path4167" d="m -29.9347,402.0783 -2.8222,.8467 v 1.1289 l 2.8222,-.8467 z "/>
<path id="path4171" d="m -29.9347,405.1827 -2.8222,.8467 v 1.1289 l 2.8222,-.8467 z "/>
</g>
</g>
</svg>
