<svg width="48" version="1.1" xmlns="http://www.w3.org/2000/svg" height="48">
<path style="fill:#ecf0f1" id="rect4090" d="m 4.5777,5.6271 0,36.7458 38.8225,0 .1775,-36.685 -12.7377,-.0608 z "/>
<g style="fill:#3551ae" id="g3079" transform="matrix(1.1811579,0,0,1.1811579,-3.8373887,-3.0577553)">
<path id="path3038" d="m 17.0081,19.5186 .8534,-2.178 c 0.422715,-1.06622 0.759621,-1.95474 1.01072,-2.66557 0.06674,-0.190698 0.119181,-0.316392 0.157329,-0.377081 0.04131,-0.06501 0.09058,-0.09751 0.147794,-0.09752 0.05402,8e-06 0.101699,0.02602 0.143026,0.07802 0.04131,0.04769 0.06197,0.106198 0.06198,0.175538 -8e-06,0.07369 -0.03338,0.190716 -0.100119,0.351075 -0.0159,0.03902 -0.03179,0.07586 -0.04768,0.110524 -0.03179,0.06936 -0.07311,0.166877 -0.123956,0.292562 l -3.528,8.6729 -4.0715,-9.557 h 3.34205 l 2.1549,5.1946"/>
<path id="path3040" d="m 21.4375,15.9375 c -0.486117,0.05291 -0.911506,0.198211 -1.25,0.40625 -0.473576,0.290402 -0.718751,0.570698 -0.71875,0.84375 -1e-6,0.09102 0.03972,0.180658 0.09375,0.25 0.05403,0.06935 0.114397,0.09376 0.1875,0.09375 0.09853,6e-6 0.231972,-0.118362 0.375,-0.34375 0.352796,-0.554779 0.851612,-0.843743 1.5,-0.84375 0.41954,7e-6 0.666825,0.132288 0.78125,0.375 0.04767,0.09969 0.08422,0.218063 0.09375,0.34375 0.0095,0.1257 0.02806,0.480804 0.03125,1.03125 l 0,0.78125 C 22.261086,18.6973 22.022268,18.565018 21.8125,18.5 c -0.209775,-0.06935 -0.445414,-0.09375 -0.71875,-0.09375 -0.667457,5e-6 -1.236174,0.242895 -1.6875,0.75 -0.38776,0.429095 -0.59375,0.989687 -0.59375,1.6875 0,0.581361 0.145576,1.078722 0.40625,1.5 l 1,0 0,0.90625 c 0.180155,0.06632 0.395149,0.09375 0.59375,0.09375 0.279694,0 0.557695,-0.08006 0.84375,-0.21875 0.289228,-0.138696 0.582587,-0.320691 0.875,-0.59375 l 0,0.65625 0.4375,0 0,-0.8125 1.71875,0 0,0.8125 0.5,0 c -0.117605,-0.277393 -0.183794,-0.511615 -0.21875,-0.75 -0.0318,-0.242718 -0.04397,-0.61698 -0.03125,-1.09375 l 0,-2.5625 c -7e-6,-0.667472 -0.03019,-1.141855 -0.09375,-1.40625 -0.06357,-0.264385 -0.227734,-0.506365 -0.4375,-0.71875 -0.483116,-0.48543 -1.292762,-0.718742 -2.46875,-0.71875 -0.178784,2e-6 -0.337961,-0.01764 -0.5,0 z m 0.15625,3 c 0.219304,5e-6 0.537024,0.133196 0.9375,0.40625 L 22.5,22 c -0.149387,0.195042 -0.287587,0.347392 -0.46875,0.46875 -0.177991,0.117026 -0.353799,0.187501 -0.5,0.1875 -0.184348,1e-6 -0.28072,-0.113123 -0.3125,-0.3125 -0.01272,-0.07368 -0.02806,-0.282593 -0.03125,-0.625 l 0,-1.5625 c -3e-6,-0.520108 -5.4e-4,-0.829139 0.03125,-0.9375 0.05721,-0.199371 0.190653,-0.281245 0.375,-0.28125 z"/>
<path id="path3042" d="m 26.0312,14.3125 0,.4688 .0312,1.4375 0,1.3125 0,2.4688 -.0312,1.8438 0,1.0625 0,.2812 .7188,0 0,-.3438 1.7188,0 -.0312,-3.125 .0312,-1.7812 0,-1 0,-2.2812 0,-.3438 -2.4375,0 z "/>
<path id="path3044" d="m 32.3753,15.9253 c -0.715133,8e-06 -1.29563,0.141883 -1.74695,0.419269 -0.473577,0.290402 -0.710428,0.565485 -0.710427,0.838537 -1e-06,0.09102 0.02749,0.175231 0.08152,0.244573 0.05403,0.06935 0.113238,0.104823 0.186342,0.104817 0.09853,6e-06 0.229655,-0.112356 0.372683,-0.337744 0.352796,-0.554779 0.842345,-0.83853 1.49073,-0.838537 0.41954,7e-06 0.689173,0.118325 0.803598,0.361037 0.04767,0.09969 0.08363,0.223703 0.09317,0.34939 0.0095,0.1257 0.0085,0.462787 0.01165,1.01323 v 0.791952 c -0.270164,-0.1777 -0.512306,-0.307665 -0.722074,-0.372683 -0.209775,-0.06935 -0.448737,-0.09317 -0.722074,-0.09317 -0.667456,5e-06 -1.22575,0.249908 -1.67707,0.757013 -0.38776,0.429095 -0.582318,0.990907 -0.582317,1.68872 -1e-06,0.788837 0.24214,1.42754 0.722073,1.92165 0.368689,0.377081 0.784229,0.570671 1.25781,0.570671 0.279694,0 0.564128,-0.07094 0.850184,-0.209634 0.289227,-0.138696 0.581063,-0.344198 0.873476,-0.617257 v 0.675489 h 0.174695 v -0.500793 h 1.71201 v 0.500793 h 0.780305 c -0.117606,-0.277393 -0.186325,-0.530274 -0.221281,-0.768659 -0.0318,-0.242718 -0.04766,-0.606341 -0.03494,-1.08311 v -2.57384 c -6e-06,-0.667472 -0.02961,-1.13317 -0.09317,-1.39756 -0.06357,-0.264385 -0.197857,-0.509689 -0.407623,-0.722074 -0.483116,-0.48543 -1.31633,-0.722066 -2.49232,-0.722074 z  m -.3377,3.0048 c 0.219304,5e-06 0.531231,0.134569 0.931708,0.407623 l -.0117,2.6554 c -0.149387,0.195042 -0.31963,0.356142 -0.500793,0.4775 -0.177991,0.117026 -0.342945,0.174696 -0.489147,0.174695 -0.184347,1e-06 -0.282671,-0.103428 -0.314451,-0.302805 -0.01272,-0.07368 -0.0201,-0.274849 -0.02329,-0.617256 v -1.56061 c -3e-06,-0.520108 0.0148,-0.834994 0.04659,-0.943355 0.05721,-0.199371 0.17669,-0.291154 0.361037,-0.291159 z "/>
<rect width="1.7154645" x="22.973732" y="23.125376" height="1.4409901" style="stroke:#000;color:#000;stroke-width:0" id="rect3048"/>
<rect width="1.7154645" x="26.747753" y="24.341633" height="1.4409901" style="stroke:#000;color:#000;stroke-width:0" id="rect3052"/>
<rect width="1.7154645" x="24.689196" y="25.027819" height="2.5388873" style="stroke:#000;color:#000;stroke-width:0" id="rect3054"/>
<rect width="1.7154645" x="19.817276" y="23.998541" height="1.4409901" style="stroke:#000;color:#000;stroke-width:0" id="rect3056"/>
<rect width="1.7154645" x="18.033194" y="26.007355" height="1.4409901" style="stroke:#000;color:#000;stroke-width:0" id="rect3061"/>
<rect width="1.7154645" x="21.875834" y="25.988478" height="1.4409901" style="stroke:#000;color:#000;stroke-width:0" id="rect3063"/>
<rect width="1.7154645" x="20.091753" y="27.978418" height="1.0978972" style="stroke:#000;color:#000;stroke-width:0" id="rect3065"/>
<rect width="1.7154645" x="15.494307" y="25.096436" height="0.75480431" style="stroke:#000;color:#000;stroke-width:0" id="rect3067"/>
<rect width="1.7154645" x="27.159466" y="26.743282" height="1.4409901" style="stroke:#000;color:#000;stroke-width:0" id="rect3069"/>
<rect width="1.7154645" x="27.708412" y="29.556646" height="2.0585573" style="stroke:#000;color:#000;stroke-width:0" id="rect3071"/>
<rect width="1.7154645" x="22.836493" y="28.527367" height="1.4409901" style="stroke:#000;color:#000;stroke-width:0" id="rect3073"/>
<rect width="1.7154645" x="25.649858" y="28.801842" height="1.2351344" style="stroke:#000;color:#000;stroke-width:0" id="rect3075"/>
<rect width="1.7154645" x="29.561117" y="24.753344" height="1.9213201" style="stroke:#000;color:#000;stroke-width:0" id="rect3077"/>
<rect width="1.7154645" x="29.218023" y="28.047035" height="1.2351344" style="stroke:#000;color:#000;stroke-width:0" id="rect3079"/>
<rect width="1.7154645" x="33.197903" y="23.724066" height="1.2351344" style="stroke:#000;color:#000;stroke-width:0" id="rect3084"/>
<rect width="1.7154645" x="31.825529" y="25.165056" height="0.82342285" style="stroke:#000;color:#000;stroke-width:0" id="rect3086"/>
<rect width="1.7154645" x="31.551052" y="26.880522" height="1.4409901" style="stroke:#000;color:#000;stroke-width:0" id="rect3088"/>
</g>
</svg>
