<svg width="48" version="1.1" xmlns="http://www.w3.org/2000/svg" height="48">
<path style="fill:#ecf0f1" id="rect4090" d="m 4.5719,5.628 0,36.7438 38.8357,0 .1643,-36.7458 -12.7288,.0019 z "/>
<g style="fill:#7f8c8d" id="g5">
<g style="stroke:#003bc3;fill-rule:evenodd;stroke-linecap:square;stroke-width:0;stroke-miterlimit:2" id="g7">
<rect width="26.684752" x="10.620342" y="22.625603" height="2.9221342" id="line21"/>
<rect width="26.684752" x="10.670486" y="28.469894" height="2.9221342" id="line22"/>
<rect width="26.684752" x="10.660777" y="34.314095" height="2.9221342" id="line23"/>
</g>
<g transform="scale(0.92527043,1.0807651)">
<path id="path4147" d="m 11.5183,8.188 2.6318,0 0,8.2166 4.621,0 0,1.9892 -7.2528,0 0,-10.2058 z "/>
<path id="path4149" d="m 19.94,8.188 2.6318,0 0,6.118 q 0,1.26462 0.410147,1.81149 0.416984,0.540027 1.35349,0.540027 0.943339,0 1.35349,-0.540027 0.416983,-0.546864 0.416983,-1.81149 v -6.11804 h 2.63178 v 6.11804 q 0,2.16695 -1.08689,3.22649 -1.08689,1.05955 -3.31536,1.05955 -2.22163,0 -3.30852,-1.05955 -1.08689,-1.05955 -1.08689,-3.22649 v -6.11804 z "/>
<path id="path4151" d="m 37.0705,16.5345 -4.1151,0 -.6494,1.8593 -2.6455,0 3.7802,-10.2058 3.1376,0 3.7802,10.2058 -2.6455,0 -.6426,-1.8593 z  m -3.4589,-1.8935 2.7958,0 -1.3945,-4.0605 -1.4013,4.0605 z "/>
</g>
</g>
</svg>
