<svg width="48" version="1.1" xmlns="http://www.w3.org/2000/svg" height="48">
<path style="fill:#fd5" id="rect4090" d="M 3,3 V 45 H 45 V 3 Z"/>
<g style="fill:#354b5f">
<path id="path3331" d="m 23.9954,13.5544 c -2.78012,0.00021 -5.54323,1.0218 -7.5076,2.77579 -1.96439,1.754 -3.10628,4.21871 -3.10628,6.699 0,2.48034 1.1419,4.94506 3.10628,6.69895 1.96437,1.75399 4.72749,2.77556 7.5076,2.77587 2.78009,0.000204 5.54301,-1.02188 7.50999,-2.77587 1.96675,-1.75389 3.11312,-4.2183 3.11312,-6.69895 0,-2.4806 -1.14637,-4.94499 -3.11312,-6.699 -1.96698,-1.75399 -4.7299,-2.776 -7.50999,-2.77579 z  m 0,2.1055 c 4.32461,-0.000205 8.26338,3.51062 8.26338,7.36928 0,3.8586 -3.93877,7.36955 -8.26338,7.36924 -4.32462,-0.000204 -8.25423,-3.51085 -8.25423,-7.36924 0,-3.85834 3.92961,-7.36907 8.25423,-7.36928 z "/>
<g style="fill-rule:evenodd">
<rect width="3.0062346" x="22.417645" y="-28.572721" height="6.430511" id="rect4351" transform="scale(1,-1)"/>
<rect width="3.0062346" x="22.417645" y="-20.4739" height="2.3316886" id="rect2995" transform="scale(1,-1)"/>
</g>
</g>
</svg>
