<svg width="48" version="1.1" xmlns="http://www.w3.org/2000/svg" height="48">
<path style="opacity:.2" d="M 4,4 V 46 H 46 V 4 Z"/>
<g id="layer1" transform="matrix(1.1470591,0,0,0.91694783,-3.5294177,1.9901786)">
<path style="fill:#ecf0f1;stroke-width:1.028" id="rect4090" d="m 5.6923,1.1013 v 45.8041 h 36.6154 v -45.8041 Z "/>
<path style="fill:#a100e1" id="shape0" d="M 3.54749,9.73437 C 4.52445,8.10149 6.55701,6.90495 8.67621,7.18262 c 2.00009,0.10192 3.66749,1.49972 4.20939,3.18168 0.7992,2.2409 0.4892,4.6148 0.5529,6.928 0,2.3609 0,4.7218 0,7.0827 -1.1825,0 -2.365,0 -3.54748,0 C 9.87949,20.6849 9.91471,16.9941 9.87224,13.3045 9.79862,12.0135 9.51242,10.4128 8.03897,9.8224 6.47896,9.23124 4.64838,9.97656 3.83692,11.2451 c -0.47907,0.496 -0.22742,1.1677 -0.28943,1.7625 0,3.7891 0,7.5783 0,11.3674 -1.1825,0 -2.36499,0 -3.54749,0 C 0,16.25 0,8.125 0,0 c 1.18249,0 2.36499,0 3.54749,0 0,3.24479 0,6.48958 0,9.73438 z" transform="translate(13.1347,11.9364)"/>
<g style="fill:#8e44ad;fill-rule:evenodd;stroke:#003bc3;stroke-linecap:square;stroke-width:0;stroke-miterlimit:2" id="g8">
<rect width="2.0183125" x="0" y="0" height="7.3117642" id="shape11" transform="matrix(0,1,-1,0,36.7019,22.0625)"/>
<rect width="1.9573042" x="0" y="0" height="7.3052282" id="shape111" transform="matrix(-1,0,0,-1,34.0203,26.6871)"/>
<rect width="2.0183125" x="0" y="0" height="7.3764048" id="shape112" transform="matrix(0,1,-1,0,36.7867,31.5006)"/>
<rect width="1.9573042" x="0" y="0" height="7.3052282" id="shape113" transform="matrix(-1,0,0,-1,34.0875,36.1284)"/>
</g>
</g>
</svg>
