<svg width="48" version="1.1" xmlns="http://www.w3.org/2000/svg" height="48">
<g id="layer1" transform="matrix(1.1422276,0,0,0.91859617,-3.4236888,1.9536064)">
<path style="fill:#ecf0f1" id="rect4090" d="m 5.6238,1.1391 v 45.7219 h 36.7703 v -45.7219 Z "/>
<g style="stroke:#003bc3;stroke-width:0;fill-rule:evenodd;stroke-linecap:square;fill:#7f8c8d">
<rect width="23.362026" x="0" y="0" height="3.1810868" style="stroke-miterlimit:2.013" id="line2" transform="translate(12.3038,16.1417)"/>
<g style="stroke-miterlimit:2">
<rect width="17.642252" x="15.178874" y="9.7795401" height="3.1810868" id="line"/>
<rect width="23.362026" x="0" y="0" height="3.1810868" id="line21" transform="translate(12.2953,22.5039)"/>
<rect width="23.362026" x="0" y="0" height="3.1810868" id="line22" transform="translate(12.3392,28.8661)"/>
<rect width="23.362026" x="0" y="0" height="3.1810868" id="line23" transform="translate(12.3307,35.2282)"/>
</g>
</g>
</g>
<g style="fill-rule:evenodd">
<g style="stroke-linecap:square;stroke-width:0;stroke:#003bc3">
<g style="stroke-miterlimit:2">
<path style="opacity:.4" id="path4150" d="m 28.5749,15.0609 c -6.03235,0 -10.9186,4.98572 -10.9186,11.1408 0,6.15515 4.88628,11.1408 10.9186,11.1408 6.03237,0 10.9186,-4.9857 10.9186,-11.1408 0,-6.15512 -4.88625,-11.1408 -10.9186,-11.1408 z  m 0,9.3131 c 0.992666,0 1.79131,0.814897 1.79131,1.82777 0,1.01287 -0.798643,1.82777 -1.79131,1.82777 -0.992666,0 -1.79131,-0.814898 -1.79131,-1.82777 0,-1.01287 0.798644,-1.82777 1.79131,-1.82777 z "/>
<path style="fill:#ccc" id="shape011" d="m 28.533,15.2286 c -5.91653,0 -10.709,4.77992 -10.709,10.681 0,5.90107 4.79246,10.681 10.709,10.681 5.91655,0 10.709,-4.77989 10.709,-10.681 0,-5.90105 -4.79243,-10.681 -10.709,-10.681 z  m 0,8.9286 c 0.973607,0 1.75692,0.781259 1.75692,1.75232 0,0.97106 -0.783309,1.75232 -1.75692,1.75232 -0.973607,0 -1.75692,-0.78126 -1.75692,-1.75232 0,-0.971061 0.783309,-1.75232 1.75692,-1.75232 z "/>
<path style="fill:#2ebe45" id="shape11" d="m 28.533,21.8374 c -2.25178,0 -4.0828,1.82623 -4.0828,4.07212 0,2.24583 1.83102,4.07212 4.0828,4.07212 2.25173,0 4.0828,-1.82628 4.0828,-4.07212 0,-2.24589 -1.83107,-4.07212 -4.0828,-4.07212 z  m 0,2.3198 c 0.973623,0 1.75692,0.78127 1.75692,1.75235 0,0.971076 -0.783293,1.75232 -1.75692,1.75232 -0.973623,0 -1.75694,-0.781244 -1.75694,-1.75232 0,-0.971077 0.78332,-1.75235 1.75694,-1.75235 z "/>
</g>
<g style="fill:#f2f2f2;stroke-linejoin:bevel">
<path id="shape0" d="m 31.2138,29.8665 c 0.717523,-0.496623 0.921224,-0.813869 1.20479,-1.1668 l 4.2299,3.0098 c -0.639316,0.988048 -1.39464,1.8493 -2.43578,2.43968 z "/>
<path id="shape1" d="m 25.8423,21.9636 c -0.728259,0.506754 -0.935012,0.830475 -1.22282,1.19061 l -4.2932,-3.0712 c 0.648878,-1.00821 1.41552,-1.88705 2.47224,-2.48945 z "/>
</g>
</g>
<path style="opacity:.4" id="path4152" d="m 35.8444,20.2348 0,12.9795 c -0.536724,-0.513435 -1.23663,-0.845399 -1.9725,-0.845346 -1.54778,0.000107 -2.95392,1.44535 -2.95392,3.03356 0,1.58831 1.40614,3.03339 2.95392,3.0335 1.5478,0.00016 2.95776,-1.44508 2.95776,-3.0335 v -10.7339 c 2.06169,1.26914 2.94635,2.99921 2.94635,5.48328 0,0.638669 -0.102752,1.265 -0.282877,1.86832 0.551834,-1.00027 1.07385,-2.12615 1.07385,-3.28435 0,-1.85502 -0.41882,-3.02471 -1.69555,-4.32991 -0.588994,-0.602182 -2.02025,-1.71688 -2.04178,-4.11978 v -0.05137 h -0.0039 -0.981436 z "/>
<path style="fill:#2ebe45" id="path4112" d="m 35.4443,19.6349 0,12.9795 c -0.536724,-0.513435 -1.23663,-0.845399 -1.9725,-0.845346 -1.54778,0.000107 -2.95392,1.44535 -2.95392,3.03356 0,1.58831 1.40614,3.03339 2.95392,3.0335 1.5478,0.00016 2.95776,-1.44508 2.95776,-3.0335 v -10.7339 c 2.06169,1.26914 3.3465,3.59882 3.3465,6.0829 0,0.638669 -0.102752,1.265 -0.282877,1.86832 0.551834,-1.00027 0.873692,-2.12615 0.873692,-3.28435 0,-1.85502 -0.618819,-3.62432 -1.89554,-4.92952 -0.588994,-0.602182 -2.02025,-1.71688 -2.04178,-4.11978 v -0.05137 h -0.0039 -0.981436 z "/>
</g>
</svg>
