<svg width="48" version="1.1" xmlns="http://www.w3.org/2000/svg" height="48">
<path style="opacity:.2" d="M 4,4 V 46 H 46 V 4 Z"/>
<g id="layer1" transform="matrix(1.1444776,0,0,0.9176424,-3.4730024,1.9747838)">
<path style="fill:#ecf0f1" id="rect4090" d="m 5.6559,1.1172 v 45.7695 h 36.698 v -45.7695 Z "/>
<path style="fill:#a100e1" id="shape0" d="m 21.0359,21.6708 c 0.976959,-1.63288 3.00952,-2.82942 5.12872,-2.55175 2.00005,0.101916 3.66746,1.49972 4.20935,3.18164 0.799246,2.24091 0.489226,4.61487 0.55294,6.92806 0,2.36089 0,4.72178 0,7.08267 -1.18249,0 -2.36499,0 -3.54749,0 -0.01153,-3.69009 0.02369,-7.38086 -0.01878,-11.0705 -0.07362,-1.29102 -0.359822,-2.89173 -1.83327,-3.48211 -1.56001,-0.591158 -3.3906,0.154161 -4.20206,1.42273 -0.479068,0.495926 -0.227415,1.16766 -0.289431,1.76243 0,3.78915 0,7.5783 0,11.3674 -1.18249,0 -2.36499,0 -3.54749,0 0,-8.125 0,-16.25 0,-24.375 1.18249,0 2.36499,0 3.54749,0 0,3.24479 0,6.48958 0,9.73438 z "/>
</g>
</svg>
