<svg width="48" version="1.1" xmlns="http://www.w3.org/2000/svg" height="48">
<path style="fill:#ecf0f1" id="rect4090" d="M 3,3 V 45 H 45 V 3 Z"/>
<g style="fill:#7f8c8d" id="g5">
<g style="stroke:#003bc3;fill-rule:evenodd;stroke-linecap:square;stroke-width:0" id="g7">
<rect width="26.684752" x="10.630051" y="16.781309" height="2.9221342" style="stroke-miterlimit:2.013" id="line2"/>
<g style="stroke-miterlimit:2" id="g10">
<rect width="14.68637" x="22.628433" y="10.937055" height="2.9221342" id="line"/>
<rect width="26.684752" x="10.620342" y="22.625603" height="2.9221342" id="line21"/>
</g>
</g>
<path id="path4149" d="m 13.2839,29.0208 1.7227,0 0,5.3785 3.0249,0 0,1.3021 -4.7476,0 0,-6.6807 z "/>
<path id="path4151" d="m 19.1189,29.0208 1.7227,0 0,6.6807 -1.7227,0 0,-6.6807 z "/>
<path id="path4153" d="m 27.1867,29.2311 0,1.414 q -0.550384,-0.246106 -1.07392,-0.371397 -0.523535,-0.12529 -0.988899,-0.12529 -0.617503,0 -0.912831,0.170037 -0.295327,0.170037 -0.295327,0.52801 0,0.268479 0.196885,0.420618 0.201359,0.147664 0.724894,0.255055 l .7338,.1477 q 1.11419,0.223733 1.58403,0.680148 0.469839,0.456416 0.469839,1.29765 0,1.10524 -0.657775,1.64667 -0.6533,0.536959 -2.00017,0.536959 -0.635401,0 -1.27528,-0.120815 -0.639877,-0.120816 -1.27975,-0.357973 v -1.45426 q 0.639876,0.340074 1.23501,0.514585 0.599604,0.170037 1.15446,0.170037 0.563807,0 0.863609,-0.187935 0.299803,-0.187936 0.299803,-0.536959 0,-0.313227 -0.205835,-0.483264 -0.201359,-0.170037 -0.809913,-0.304276 l -.6667,-.1477 q -1.00232,-0.214784 -1.46769,-0.684623 -0.46089,-0.469839 -0.46089,-1.26633 0,-0.997849 0.644351,-1.53481 0.644351,-0.536959 1.85251,-0.536959 0.550383,0 1.13209,0.08502 0.581706,0.08054 1.20368,0.246107 z "/>
<path id="path4155" d="m 29.1421,29.0208 2.8593,0 q 1.27528,0 1.95543,0.568282 0.684623,0.563807 0.684623,1.61088 0,1.05154 -0.684623,1.61983 -0.680148,0.563807 -1.95543,0.563807 h -1.13656 v 2.31787 h -1.72274 v -6.68067 z  m 1.7227,1.2484 0,1.8659 .9531,0 q 0.501162,0 0.774116,-0.241632 0.272954,-0.246106 0.272954,-0.693572 0,-0.447466 -0.272954,-0.689098 -0.272954,-0.241631 -0.774116,-0.241631 h -0.953103 z "/>
</g>
</svg>
