<svg width="48" version="1.1" xmlns="http://www.w3.org/2000/svg" height="48">
<g style="fill-rule:evenodd">
<rect width="42" x="3" y="3" height="42" style="fill:#ecf0f1;stroke:none" id="rect816"/>
<path style="fill:#34495e;stroke-width:1.071" id="path3286" d="m 23.9974,15.1188 c -2.79268,0.000147 -5.33069,2.25673 -5.33069,4.73662 0,1.09756 0.497895,2.15084 1.29427,2.98468 v 0.630208 c -1.12541,0.441263 -2.16545,1.05534 -3.03514,1.82835 -1.84996,1.64411 -2.92579,3.95541 -2.92579,6.28032 v 1.30218 h 0.123698 1.79167 0.904934 3.84633 1.33335 3.99999 1.33332 3.84639 0.904849 1.79173 0.123738 v -1.30218 c 0,-2.325 -1.07878,-4.63621 -2.93112,-6.28032 -0.869034,-0.771514 -1.90732,-1.38498 -3.03114,-1.82601 v -0.633715 c 0.796804,-0.833604 1.29547,-1.88639 1.29547,-2.98351 0,-2.48017 -2.54302,-4.73677 -5.33586,-4.73662 z "/>
</g>
</svg>
