<svg width="48" version="1.1" xmlns="http://www.w3.org/2000/svg" height="48">
<path style="fill:#ecf0f1" id="rect4090" d="m 4.5719,5.628 0,36.7438 38.8357,0 .1643,-36.7458 -12.7288,.0019 z "/>
<g style="stroke:#003bc3;fill-rule:evenodd;stroke-linecap:square;stroke-width:0" id="g5">
<g style="fill:#7f8c8d" id="g7">
<rect width="26.684752" x="10.630051" y="16.781309" height="2.9221342" style="stroke-miterlimit:2.013" id="line2"/>
<g style="stroke-miterlimit:2" id="g10">
<rect width="20.151466" x="13.91404" y="10.937055" height="2.9221342" id="line"/>
<rect width="26.684752" x="10.620342" y="22.625603" height="2.9221342" id="line21"/>
<rect width="26.684752" x="10.670486" y="28.469894" height="2.9221342" id="line22"/>
<rect width="26.684752" x="10.660777" y="34.314095" height="2.9221342" id="line23"/>
</g>
</g>
<g style="fill:#c5cbcb" id="g4169" transform="matrix(1.3162862,0,0,0.99999993,-11.81495,1.5240473e-6)">
<path style="stroke-miterlimit:2.013" id="rect4147" d="m 25.9416,16.7813 11.3732,0 0,2.9221 -11.3732,0 z "/>
<g style="stroke-miterlimit:2" id="g18">
<path id="rect4149" d="m 26.4888,10.9371 8.3706,0 0,2.9221 -8.3706,0 z "/>
<path id="rect4151" d="m 25.9319,22.6256 11.3732,0 0,2.9221 -11.3732,0 z "/>
<path id="rect4153" d="m 25.9821,28.4699 11.3732,0 0,2.9221 -11.3732,0 z "/>
</g>
</g>
</g>
<g style="stroke:none" id="g23" transform="matrix(0.92234471,0,0,1.0841425,9.6540649e-4,2.8733986e-4)">
<path id="path4176" d="m 30.6958,12.105 0,7.0944 3.2121,0 c 1.18872,0 2.10765,-0.307717 2.75681,-0.923152 0.649157,-0.615435 0.973736,-1.49222 0.973736,-2.63035 0,-1.1297 -0.324579,-2.00227 -0.973736,-2.61771 -0.649157,-0.615435 -1.56809,-0.923152 -2.75681,-0.923152 z  m -2.5544,-2.0992 5.7665,0 c 2.11608,0 3.71369,0.480545 4.79281,1.44163 1.08755,0.952659 1.63132,2.35214 1.63132,4.19845 0,1.86317 -0.543775,3.27108 -1.63132,4.22374 -1.07912,0.95266 -2.67672,1.42899 -4.79281,1.42899 h -3.21206 v 7.58755 h -2.55448 z "/>
</g>
</svg>
