<svg width="48" version="1.1" xmlns="http://www.w3.org/2000/svg" height="48" xmlns:xlink="http://www.w3.org/1999/xlink">
<defs id="defs8">
<linearGradient id="linearGradient3779">
<stop offset="0" style="stop-color:#b2b9be" id="stop3781"/>
<stop offset="1" style="stop-color:#bdc3c7;stop-opacity:.51" id="stop3783"/>
</linearGradient>
<linearGradient gradientTransform="matrix(1.2386449,0,0,1.0107666,-5.6395479,1.0040988)" xlink:href="#linearGradient3779" id="linearGradient852" y1="2.1564658" x1="7.1517768" y2="43.522217" gradientUnits="userSpaceOnUse" x2="35.66811"/>
</defs>
<g>
<path style="fill:#ecf0f1" id="rect4090" d="M 3,3 V 45 H 45 V 3 Z"/>
<path style="fill:url(#linearGradient852);fill-rule:evenodd;stroke:none;color:#000" id="path850" d="m 3,3 v 6 h 7 v -6 h -7 z  m 7,6 v 6 h 7 v -6 h -7 z  m 7,0 h 7 v -6 h -7 v 6 z  m 0,6 v 6 h 7 7 v -6 h -7 -7 z  m 14,0 h 7 v -6 h -7 v 6 z  m 7,0 v 6 h 7 v -6 h -7 z  m 0,6 h -7 v 6 h 7 v -6 z  m 0,6 v 6 h 7 v -6 h -7 z  m -7,0 h -7 v 6 h 7 v -6 z  m -7,6 h -7 v 6 h 7 v -6 z  m -7,6 h -7 v 6 h 7 v -6 z  m -7,0 v -6 h -7 v 6 h 7 z  m 0,-6 h 7 v -6 -6 h -7 v 6 6 z  m 0,-12 v -6 h -7 v 6 h 7 z  m 21,18 v 6 h 7 v -6 h -7 z "/>
</g>
</svg>
