<svg width="48" version="1.1" xmlns="http://www.w3.org/2000/svg" height="48">
<path style="fill:#e6e6e6;stroke-width:1.052" id="path3756" d="m 5.9186,6 v 37 h 36 l -.1511,-36.9368 -11.5571,-.0632 Z "/>
<g style="stroke:none">
<path style="fill-rule:evenodd;stroke-width:1.087" id="rect2988" d="m 5,6 v 37 h 8 v -3 h 22 v 3 h 8 v -37 h -8 v 3 h -22 v -3 h -8 z  m 2,3 h 4 v 4 h -4 v -4 z  m 30,0 h 4 v 4 h -4 v -4 z  m -24,3 h 22 v 11 h -22 v -11 z  m -6,10 h 4 v 4 h -4 v -4 z  m 30,0 h 4 v 4 h -4 v -4 z  m -24,4 h 22 v 11 h -22 v -11 z  m -6,9 h 4 v 4 h -4 v -4 z  m 30,0 h 4 v 4 h -4 v -4 z "/>
<path style="line-height:125%;letter-spacing:0" id="path4686" d="m 32.1445,28.8867 c -0.268,0 -0.478672,0.123 -0.638672,0.375 v -0.316407 l -.9121,.0293 v 0.203125 h 0.0625 c 0.244,0 0.257812,0.020954 0.257812,0.376954 v 0.707031 0.183593 c 0,0.164001 -0.044781,0.189454 -0.300781,0.189454 h -0.019531 v 0.203125 h 1.17969 v -0.203125 c -0.204001,-0.004 -0.232422,-0.029547 -0.232422,-0.185547 v -0.1875 -0.535157 c 0,-0.283999 0.143281,-0.46875 0.363281,-0.46875 0.156,0 0.220703,0.109047 0.220703,0.373047 v 0.63086 0.183593 c 0,0.160001 -0.028516,0.185454 -0.228516,0.189454 v 0.203125 h 1.08789 v -0.203125 c -0.204,-0.004 -0.230469,-0.029547 -0.230469,-0.185547 v -0.1875 -0.535157 c 0,-0.283999 0.139282,-0.46875 0.363282,-0.46875 0.152,0 0.220703,0.107469 0.220703,0.355469 v 0.648438 0.1875 c 0,0.156 -0.028422,0.181547 -0.232422,0.185547 v 0.203125 h 1.17578 v -0.203125 h -0.015625 c -0.256,0 -0.300781,-0.029547 -0.300781,-0.185547 v -0.1875 -0.794922 c 0,-0.328 -0.270953,-0.580078 -0.626953,-0.580078 -0.256,0 -0.440907,0.103375 -0.628907,0.359375 -0.084,-0.224 -0.296453,-0.359375 -0.564453,-0.359375 z  m -5.2227,.4219 v 6.07812 h 1.39844 v -0.632813 c 0.192708,0.255209 0.406251,0.444011 0.640626,0.566406 0.234374,0.119793 0.503906,0.179688 0.808593,0.179688 0.539059,0 0.981771,-0.213542 1.32812,-0.640625 0.346355,-0.429687 0.519531,-0.98177 0.519532,-1.65625 0,-0.674477 -0.173177,-1.22526 -0.519532,-1.65234 -0.346351,-0.429687 -0.789062,-0.644531 -1.32812,-0.644531 -0.304687,0 -0.574219,0.0612 -0.808593,0.183594 -0.234376,0.119791 -0.447918,0.307291 -0.640626,0.5625 v -2.34375 h -1.39844 z  m -3.3242,1.5977 c -0.755208,0 -1.34896,0.204427 -1.78125,0.613281 -0.429687,0.408854 -0.644531,0.970054 -0.644531,1.68359 0,0.726561 0.21875,1.29167 0.65625,1.69531 0.440107,0.401042 1.05599,0.601562 1.84766,0.601562 0.330729,0 0.661458,-0.032546 0.992188,-0.097656 0.330729,-0.0625 0.661458,-0.15625 0.992187,-0.28125 v -1.07812 c -0.325521,0.177083 -0.643229,0.309896 -0.953125,0.398437 -0.307291,0.08594 -0.608073,0.128906 -0.902343,0.128906 -0.364583,0 -0.648438,-0.082029 -0.851563,-0.246093 -0.203126,-0.164063 -0.321616,-0.410157 -0.355469,-0.738281 h 3.26953 v -0.398438 c 0,-0.692711 -0.207032,-1.24609 -0.621094,-1.66016 -0.41146,-0.414063 -0.960938,-0.621094 -1.64844,-0.621094 z  m -9.8789,.1055 l 1.1523,4.375 h 1.52734 l .7344,-3.0078 .7383,3.0078 h 1.52734 l 1.1523,-4.375 h -1.35938 l -.7383,2.9844 -.7344,-2.9844 h -1.16797 l -.7383,3.0156 -.7344,-3.0156 h -1.35938 z  m 9.8711,.8242 c 0.25,0 0.451823,0.08203 0.605468,0.246093 0.15625,0.161459 0.234376,0.375001 0.234376,0.640625 h -1.81641 c 0.04167,-0.286458 0.147135,-0.505208 0.316407,-0.65625 0.16927,-0.153646 0.389322,-0.230468 0.660156,-0.230468 z  m 5.6602,.0859 c 0.299479,0 0.527344,0.109375 0.683594,0.328125 0.158854,0.21875 0.238281,0.536458 0.238281,0.953125 0,0.416667 -0.07943,0.734375 -0.238281,0.953125 -0.15625,0.21875 -0.384115,0.328125 -0.683594,0.328125 -0.299479,0 -0.529948,-0.109375 -0.691406,-0.328125 -0.158854,-0.221354 -0.238282,-0.539062 -0.238282,-0.953125 0,-0.414063 0.07943,-0.730469 0.238282,-0.949219 0.161458,-0.221354 0.391927,-0.332031 0.691406,-0.332031 z "/>
</g>
</svg>
