<svg width="48" version="1.1" xmlns="http://www.w3.org/2000/svg" height="48">
<path style="fill:#e6e6e6;stroke-width:1.052" id="path3756" d="m 5.9186,6 v 37 h 36 l -.1511,-36.9368 -11.5571,-.0632 Z "/>
<g style="stroke:none;letter-spacing:0">
<path style="fill-rule:evenodd;stroke-width:1.087" id="rect2988" d="m 5,6 v 37 h 8 v -3 h 22 v 3 h 8 v -37 h -8 v 3 h -22 v -3 h -8 z  m 2,3 h 4 v 4 h -4 v -4 z  m 30,0 h 4 v 4 h -4 v -4 z  m -24,3 h 22 v 11 h -22 v -11 z  m -6,10 h 4 v 4 h -4 v -4 z  m 30,0 h 4 v 4 h -4 v -4 z  m -24,4 h 22 v 11 h -22 v -11 z  m -6,9 h 4 v 4 h -4 v -4 z  m 30,0 h 4 v 4 h -4 v -4 z "/>
<g style="stroke-width:.822;text-indent:0">
<path style="fill:#f00" id="rect3773" d="m 18.75,12.25 h 5.02172 v 5.02172 h -5.02172 z "/>
<path style="fill:#51ff00" id="rect3775" d="m 24.2282,12.25 h 5.02172 v 5.02172 h -5.02172 z "/>
<path style="fill:#53a8ff" id="rect3777" d="m 18.75,17.7283 h 5.02172 v 5.02172 h -5.02172 z "/>
<path style="fill:#fffd00" id="rect3779" d="m 24.2282,17.7283 h 5.02172 v 5.02172 h -5.02172 z "/>
</g>
<path style="text-transform:none" id="path4159" d="m 28.7773,28.8086 v 1.14062 h 1.39844 v -1.14062 h -1.39844 z  m -8.7617,1.5977 c -0.302083,0 -0.604167,0.019534 -0.90625,0.058594 -0.302083,0.036458 -0.602864,0.091146 -0.902344,0.164062 v 1.06641 c 0.221354,-0.119794 0.460938,-0.209637 0.71875,-0.269531 0.257813,-0.059893 0.536458,-0.089843 0.835938,-0.089843 0.369791,-1e-06 0.641927,0.052082 0.816406,0.15625 0.174479,0.101561 0.261719,0.26302 0.261719,0.484374 v 0.109376 h -0.824219 c -0.755207,0 -1.3099,0.119791 -1.66406,0.359374 -0.351562,0.239588 -0.527343,0.615886 -0.527343,1.12891 0,0.421874 0.140625,0.765624 0.421875,1.03125 0.283855,0.26302 0.652344,0.394531 1.10547,0.394531 0.335939,0 0.621095,-0.059896 0.855469,-0.179688 0.234376,-0.122396 0.445313,-0.316405 0.632813,-0.582031 v 0.648438 h 1.41016 v -2.49609 c 0,-0.700518 -0.175781,-1.20573 -0.527344,-1.51562 -0.34896,-0.3125 -0.917971,-0.46875 -1.70703,-0.46875 z  m 2.9922,.1055 l 1.7188,4.375 h 1.53516 l 1.7227,-4.375 h -1.40234 l -1.0859,3.0234 -1.0898,-3.0234 h -1.39844 z  m 5.7695,0 v 4.375 h 1.39844 v -4.375 h -1.39844 z  m -8.6641,2.4062 h 0.726563 v 0.160156 c 0,0.283854 -0.089843,0.520834 -0.269532,0.710937 -0.179687,0.1875 -0.401041,0.28125 -0.664062,0.28125 -0.210937,0 -0.376302,-0.049478 -0.496094,-0.148437 -0.117187,-0.101563 -0.175781,-0.240885 -0.175781,-0.417969 0,-0.192708 0.072917,-0.338541 0.21875,-0.4375 0.148437,-0.098958 0.36849,-0.148437 0.660156,-0.148437 z "/>
</g>
</svg>
