<svg width="48" version="1.1" xmlns="http://www.w3.org/2000/svg" height="48">
<g id="g3754" transform="matrix(1.1465264,0,0,1.003502,-3.4491073,-0.01867862)">
<path style="fill:#e6e6e6" id="path3756" d="m 7.2856,5.8498 0,36.202 33.4428,.0006 0,-36.1404 z "/>
</g>
<g style="stroke:none;line-height:125%">
<path style="fill:#5400b4;fill-rule:evenodd" id="folderGlyph-6" d="m 4.9043,5.8477 v 36.3086 h 8.61719 v -1.38867 h 21.0449 v 1.38867 h 8.67969 v -36.3086 h -8.6797 v 1.94141 h -21.0449 v -1.9414 h -8.61719 z  m 1.9043,3.6172 h 3.83984 v 3.63672 h -3.83984 v -3.63672 z  m 30.6934,0 h 3.80859 v 3.63672 h -3.80859 v -3.63672 z  m -24.043,.877 h 21.0449 v 12.7754 h -21.0449 v -12.7754 z  m -6.6504,11.8223 h 3.83984 v 3.61719 h -3.83984 v -3.61719 z  m 30.6934,0 h 3.80859 v 3.61719 h -3.80859 v -3.61719 z  m -24.043,3.4414 h 21.0449 v 12.6094 h -21.0449 v -12.6094 z  m -6.6504,9.2773 h 3.83984 v 3.63672 h -3.83984 v -3.63672 z  m 30.6934,0 h 3.80859 v 3.63672 h -3.80859 v -3.63672 z "/>
<path id="path4163" d="m 18.4375,30.6069 q -0.464844,0 -0.710938,0.335937 -0.242187,0.332032 -0.242187,0.960938 0,0.628906 0.242187,0.964844 0.246094,0.332031 0.710938,0.332031 0.457031,0 0.699219,-0.332031 0.242187,-0.335938 0.242187,-0.964844 0,-0.628906 -0.242187,-0.960938 -0.242188,-0.335937 -0.699219,-0.335937 Z  m 0,-1 q 1.12891,0 1.76172,0.609375 0.636718,0.609375 0.636718,1.6875 0,1.07812 -0.636718,1.6875 -0.632813,0.609375 -1.76172,0.609375 -1.13281,0 -1.77344,-0.609375 -0.636718,-0.609375 -0.636718,-1.6875 0,-1.07812 0.636718,-1.6875 0.640625,-0.609375 1.77344,-0.609375 z "/>
<path id="path4165" d="m 24.832,33.3452 q -0.289062,0.382813 -0.636719,0.5625 -0.347656,0.179688 -0.804687,0.179688 -0.800781,0 -1.32422,-0.628907 -0.523437,-0.632812 -0.523437,-1.60938 0,-0.980468 0.523437,-1.60547 0.523438,-0.628907 1.32422,-0.628907 0.457031,0 0.804687,0.179688 0.347657,0.179687 0.636719,0.566406 v -0.648437 h 1.40625 v 3.93359 q 0,1.05469 -0.667969,1.60938 -0.664062,0.558594 -1.92969,0.558594 -0.410156,0 -0.792969,-0.0625 -0.382812,-0.0625 -0.769531,-0.191406 v -1.08984 q 0.367187,0.210938 0.71875,0.3125 0.351562,0.105469 0.707031,0.105469 0.6875,0 1.00781,-0.300781 0.320312,-0.300782 0.320312,-0.941407 v -0.300781 z  m -.9219,-2.7227 q -0.433594,0 -0.675781,0.320312 -0.242188,0.320313 -0.242188,0.90625 0,0.601563 0.234375,0.914063 0.234375,0.308594 0.683594,0.308594 0.4375,0 0.679688,-0.320313 0.242187,-0.320312 0.242187,-0.902344 0,-0.585937 -0.242187,-0.90625 -0.242188,-0.320312 -0.679688,-0.320312 z "/>
<path id="path4167" d="m 30.5664,33.3452 q -0.289062,0.382813 -0.636719,0.5625 -0.347656,0.179688 -0.804687,0.179688 -0.800781,0 -1.32422,-0.628907 -0.523437,-0.632812 -0.523437,-1.60938 0,-0.980468 0.523437,-1.60547 0.523438,-0.628907 1.32422,-0.628907 0.457031,0 0.804687,0.179688 0.347657,0.179687 0.636719,0.566406 v -0.648437 h 1.40625 v 3.93359 q 0,1.05469 -0.667969,1.60938 -0.664062,0.558594 -1.92969,0.558594 -0.410156,0 -0.792969,-0.0625 -0.382812,-0.0625 -0.769531,-0.191406 v -1.08984 q 0.367187,0.210938 0.71875,0.3125 0.351562,0.105469 0.707031,0.105469 0.6875,0 1.00781,-0.300781 0.320312,-0.300782 0.320312,-0.941407 v -0.300781 z  m -.9219,-2.7227 q -0.433594,0 -0.675781,0.320312 -0.242188,0.320313 -0.242188,0.90625 0,0.601563 0.234375,0.914063 0.234375,0.308594 0.683594,0.308594 0.4375,0 0.679688,-0.320313 0.242187,-0.320312 0.242187,-0.902344 0,-0.585937 -0.242187,-0.90625 -0.242188,-0.320312 -0.679688,-0.320312 z "/>
<path id="path4170" d="m 16.9575,15.2301 q -0.464844,0 -0.710937,0.335938 -0.242188,0.332031 -0.242188,0.960937 0,0.628906 0.242188,0.964844 0.246093,0.332031 0.710937,0.332031 0.457031,0 0.699219,-0.332031 0.242187,-0.335938 0.242187,-0.964844 0,-0.628906 -0.242187,-0.960937 -0.242188,-0.335938 -0.699219,-0.335938 z  m 0,-1 q 1.12891,0 1.76172,0.609375 0.636719,0.609375 0.636719,1.6875 0,1.07812 -0.636719,1.6875 -0.632813,0.609375 -1.76172,0.609375 -1.13281,0 -1.77344,-0.609375 -0.636719,-0.609375 -0.636719,-1.6875 0,-1.07812 0.636719,-1.6875 0.640625,-0.609375 1.77344,-0.609375 z "/>
<path id="path4172" d="m 23.352,17.9684 q -0.289062,0.382813 -0.636718,0.5625 -0.347657,0.179688 -0.804688,0.179688 -0.800781,0 -1.32422,-0.628906 -0.523437,-0.632813 -0.523437,-1.60938 0,-0.980469 0.523437,-1.60547 0.523438,-0.628906 1.32422,-0.628906 0.457031,0 0.804688,0.179687 0.347656,0.179688 0.636718,0.566406 v -0.648437 h 1.40625 v 3.93359 q 0,1.05469 -0.667968,1.60938 -0.664063,0.558593 -1.92969,0.558593 -0.410156,0 -0.792969,-0.0625 -0.382812,-0.0625 -0.769531,-0.191406 v -1.08984 q 0.367188,0.210938 0.71875,0.3125 0.351563,0.105469 0.707031,0.105469 0.6875,0 1.00781,-0.300781 0.320312,-0.300781 0.320312,-0.941406 v -0.300782 z  m -.9219,-2.7227 q -0.433593,0 -0.675781,0.320313 -0.242187,0.320312 -0.242187,0.90625 0,0.601562 0.234375,0.914062 0.234375,0.308594 0.683593,0.308594 0.4375,0 0.679688,-0.320313 0.242187,-0.320312 0.242187,-0.902343 0,-0.585938 -0.242187,-0.90625 -0.242188,-0.320313 -0.679688,-0.320313 z "/>
<path id="path4174" d="m 30.1645,15.0621 q 0.265625,-0.40625 0.628907,-0.617187 0.367187,-0.214844 0.804687,-0.214844 0.753906,0 1.14844,0.464844 0.394531,0.464844 0.394531,1.35156 v 2.66406 h -1.40625 v -2.28125 q 0.0039,-0.05078 0.0039,-0.105469 0.0039,-0.05469 0.0039,-0.15625 0,-0.464844 -0.136718,-0.671875 -0.136719,-0.210937 -0.441407,-0.210937 -0.398437,0 -0.617187,0.328125 -0.214844,0.328125 -0.222656,0.949218 v 2.14844 h -1.40625 v -2.28125 q 0,-0.726563 -0.125,-0.933594 -0.125,-0.210937 -0.445313,-0.210937 -0.402344,0 -0.621094,0.332031 -0.21875,0.328125 -0.21875,0.941406 v 2.15234 h -1.40625 v -4.375 h 1.40625 v 0.640625 q 0.257813,-0.371094 0.589844,-0.558594 0.335938,-0.1875 0.738281,-0.1875 0.453125,0 0.800782,0.21875 0.347656,0.21875 0.527343,0.613281 z "/>
</g>
</svg>
