<svg width="48" version="1.1" xmlns="http://www.w3.org/2000/svg" height="48">
<g style="fill-rule:evenodd;stroke:none" id="g10">
<rect width="40" x="4" y="3" height="42" style="fill:#e6e6e6" id="rect867"/>
<g id="g854">
<path id="rect2988" d="m 10.7368,7 h 26.5263 v 3.5 H 10.7368 Z"/>
<path id="rect2990" d="m 10.7368,37 h 26.5263 v 3.5 H 10.7368 Z"/>
<g id="g7">
<path id="path841" d="m 3,3 v 42 h 9 V 3 Z m 2,3 h 5 v 5 H 5 Z m 0,15 h 5 v 5 H 5 Z m 0,15 h 5 v 5 H 5 Z"/>
<path id="path833" d="m 36,3 v 42 h 9 V 3 Z m 2,3 h 5 v 5 h -5 z m 0,15 h 5 v 5 h -5 z m 0,15 h 5 v 5 h -5 z"/>
</g>
<path id="path4511" d="m 10.7368,22 h 26.5263 v 3.5 H 10.7368 Z"/>
</g>
</g>
<g style="stroke:none" id="g1255">
<path id="path1247" d="m 20.6601,28.3086 v 1.14062 h 1.39844 v -1.14062 z "/>
<path id="path1245" d="m 30.7109,29.9062 c -0.755211,0 -1.34635,0.203125 -1.77344,0.609375 -0.42448,0.406254 -0.636719,0.968754 -0.636719,1.6875 0,0.71875 0.212239,1.28125 0.636719,1.6875 0.427086,0.40625 1.01823,0.609375 1.77344,0.609375 0.752606,0 1.33984,-0.203125 1.76172,-0.609375 0.42448,-0.406253 0.636719,-0.968753 0.636719,-1.6875 0,-0.71875 -0.21224,-1.28125 -0.636719,-1.6875 -0.421873,-0.40625 -1.00911,-0.609375 -1.76172,-0.609375 z  m 0,1 c 0.304687,0 0.53776,0.11198 0.699218,0.335938 0.161459,0.221354 0.242188,0.541667 0.242188,0.960937 0,0.419271 -0.080731,0.740885 -0.242188,0.964844 -0.161458,0.221354 -0.394533,0.332031 -0.699218,0.332031 -0.309896,0 -0.546876,-0.110677 -0.710938,-0.332031 -0.161459,-0.223959 -0.242188,-0.545573 -0.242188,-0.964844 0,-0.41927 0.08073,-0.739582 0.242188,-0.960937 0.164062,-0.223961 0.401042,-0.335938 0.710938,-0.335938 z "/>
<path id="path1243" d="m 14.8906,30.0117 1.7188,4.375 h 1.53516 l 1.7227,-4.375 h -1.40234 l -1.0859,3.0234 -1.0898,-3.0234 h -1.39844 z "/>
<path id="path1241" d="m 20.6601,30.0117 v 4.375 h 1.39844 v -4.375 z "/>
<path id="path1239" d="m 22.8593,30.0117 1.7188,4.375 h 1.53516 l 1.7227,-4.375 h -1.40234 l -1.0859,3.0234 -1.0898,-3.0234 h -1.39844 z "/>
</g>
</svg>
