<svg width="48" version="1.1" xmlns="http://www.w3.org/2000/svg" height="48">
<path style="fill:#e6e6e6;stroke-width:1.052" id="path3756" d="m 6,6 v 37 h 36 l -.1511,-36.9368 -11.5571,-.0632 Z "/>
<g style="stroke:none">
<path style="fill:#b46100;fill-rule:evenodd;stroke-width:1.087" id="rect2988" d="m 5,6 v 37 h 8 v -3 h 22 v 3 h 8 V 6 H 35 V 9 H 13 V 6 Z m 2,3 h 4 v 4 H 7 Z m 30,0 h 4 v 4 H 37 Z M 13,12 H 35 V 23 H 13 Z M 7,22 h 4 v 4 H 7 Z m 30,0 h 4 v 4 H 37 Z M 13,26 H 35 V 37 H 13 Z m -6,9 h 4 v 4 H 7 Z m 30,0 h 4 v 4 h -4 z"/>
<path style="word-spacing:0" id="path4148" d="m 25.6682,28.2207 v 1.24219 h -0.695341 v 1 h 0.695341 v 1.85547 c 0,0.552082 0.11459,0.94401 0.343764,1.17578 0.231781,0.229167 0.623725,0.34375 1.17583,0.34375 h 1.19927 v -1 h -0.71878 c -0.239593,0 -0.399756,-0.03516 -0.480488,-0.105469 -0.08073,-0.07292 -0.121099,-0.210937 -0.121099,-0.414062 v -1.85547 h 1.44147 v -1 h -1.44147 v -1.24219 z  m -4.3283,1.1426 c -0.539082,0 -0.981812,0.213542 -1.32818,0.640626 -0.346369,0.42448 -0.519553,0.973957 -0.519553,1.64844 0,0.674479 0.173184,1.22656 0.519553,1.65625 0.346365,0.427083 0.789095,0.640625 1.32818,0.640625 0.304701,0 0.572941,-0.05989 0.804721,-0.179688 0.231782,-0.11979 0.44403,-0.308593 0.636746,-0.566406 v 2.29688 h 1.40631 v -6.03906 h -1.40631 v 0.648437 c -0.192716,-0.257812 -0.404964,-0.446615 -0.636746,-0.566406 -0.23178,-0.119792 -0.50002,-0.179687 -0.804721,-0.179688 z  m .5196,1.0098 c 0.299492,0 0.527365,0.109375 0.683622,0.328125 0.158861,0.21875 0.238292,0.536458 0.238292,0.953125 0,0.416667 -0.07943,0.734375 -0.238292,0.953125 -0.156257,0.21875 -0.38413,0.328125 -0.683622,0.328125 -0.296887,0 -0.524761,-0.109375 -0.683622,-0.328125 -0.156256,-0.21875 -0.234385,-0.536458 -0.234385,-0.953125 0,-0.416667 0.07813,-0.734375 0.234385,-0.953125 0.158861,-0.21875 0.386735,-0.328125 0.683622,-0.328125 z "/>
</g>
</svg>
