<svg width="48" version="1.1" xmlns="http://www.w3.org/2000/svg" height="48" xmlns:xlink="http://www.w3.org/1999/xlink">
<defs id="defs15">
<linearGradient xlink:href="#linearGradient4520" id="linearGradient963" y1="3" x1="12" y2="45" x2="12" gradientUnits="userSpaceOnUse"/>
<linearGradient xlink:href="#linearGradient4520" id="linearGradient971" y1="3" x1="12" y2="45" x2="12" gradientUnits="userSpaceOnUse"/>
<linearGradient xlink:href="#linearGradient4520" id="linearGradient955" y1="3" x1="36" y2="45" x2="36" gradientUnits="userSpaceOnUse"/>
<linearGradient gradientTransform="matrix(0.99495341,0,0,0.94887088,0.19589048,0.74432632)" id="linearGradient4554" xlink:href="#linearGradient4520" y1="4.6773109" y2="43.671024" x1="4.8284779" gradientUnits="userSpaceOnUse" x2="4.8284779"/>
<linearGradient id="linearGradient4520">
<stop offset="0" style="stop-color:#ef2929" id="stop4516"/>
<stop offset="1" style="stop-color:#950101" id="stop4518"/>
</linearGradient>
<linearGradient xlink:href="#linearGradient4520" id="linearGradient947" y1="3" x1="12" y2="45" x2="12" gradientUnits="userSpaceOnUse"/>
</defs>
<g style="stroke:none">
<rect width="40" x="4" y="3" height="42" style="fill:#e6e6e6" id="rect867"/>
<path style="fill:url(#linearGradient963)" id="rect2988" d="m 10.7368,7 h 26.5263 v 3.5 H 10.7368 Z"/>
<path style="fill:url(#linearGradient971)" id="rect2990" d="m 10.7368,37 h 26.5263 v 3.5 H 10.7368 Z"/>
<g id="g7">
<path style="fill:url(#linearGradient947)" id="path841" d="m 3,3 v 42 h 9 V 3 Z m 2,3 h 5 v 5 H 5 Z m 0,15 h 5 v 5 H 5 Z m 0,15 h 5 v 5 H 5 Z"/>
<path style="fill:url(#linearGradient955)" id="path833" d="m 36,3 v 42 h 9 V 3 Z m 2,3 h 5 v 5 h -5 z m 0,15 h 5 v 5 h -5 z m 0,15 h 5 v 5 h -5 z"/>
</g>
</g>
<path style="fill:url(#linearGradient4554)" id="path4519" d="m 33,12.19999 c -14.1618,0.229714 -8.56289,18.1442 -18,18.2436 V 35.2 c 7.0832,-0.0938 9.1391,-4.51001 10.654,-8.9604 h 5.07257 V 21.29639 H 27.4317 c 1.07735,-2.32734 2.59222,-4.05377 5.56526,-4.20399 z"/>
</svg>
