<svg width="48" version="1.1" xmlns="http://www.w3.org/2000/svg" height="48">
<g id="g3754" transform="matrix(1.1465264,0,0,1.003502,-3.4491073,-0.01867862)">
<path style="fill:#e6e6e6" id="path3756" d="m 7.2856,5.8498 0,36.202 33.4428,.0006 0,-36.1404 z "/>
</g>
<g style="stroke:none;letter-spacing:0;text-transform:none">
<path style="fill-rule:evenodd" id="folderGlyph-6" d="m 4.9043,5.8477 v 36.3086 h 8.61719 v -1.38867 h 21.0449 v 1.38867 h 8.67969 v -36.3086 h -8.6797 v 1.94141 h -21.0449 v -1.9414 h -8.61719 z  m 1.9043,3.6172 h 3.83984 v 3.63672 h -3.83984 v -3.63672 z  m 30.6934,0 h 3.80859 v 3.63672 h -3.80859 v -3.63672 z  m -24.043,.877 h 21.0449 v 12.7754 h -21.0449 v -12.7754 z  m -6.6504,11.8223 h 3.83984 v 3.61719 h -3.83984 v -3.61719 z  m 30.6934,0 h 3.80859 v 3.61719 h -3.80859 v -3.61719 z  m -24.043,3.4414 h 21.0449 v 12.6094 h -21.0449 v -12.6094 z  m -6.6504,9.2773 h 3.83984 v 3.63672 h -3.83984 v -3.63672 z  m 30.6934,0 h 3.80859 v 3.63672 h -3.80859 v -3.63672 z "/>
<path id="path4159" d="m 20.1133,32.8976 q -0.4375,0 -0.660156,0.148437 -0.21875,0.148438 -0.21875,0.4375 0,0.265625 0.175781,0.417969 0.179688,0.148438 0.496094,0.148438 0.394531,0 0.664062,-0.28125 0.269532,-0.285157 0.269532,-0.710938 v -0.160156 h -0.726563 z  m 2.1367,-.5273 v 2.49609 h -1.41016 v -0.648438 q -0.28125,0.398438 -0.632813,0.582032 -0.351562,0.179687 -0.855469,0.179687 -0.679687,0 -1.10547,-0.394531 -0.421875,-0.398438 -0.421875,-1.03125 0,-0.769531 0.527343,-1.12891 0.53125,-0.359375 1.66406,-0.359375 h 0.824219 v -0.109375 q 0,-0.332032 -0.261719,-0.484375 -0.261719,-0.15625 -0.816406,-0.15625 -0.449219,0 -0.835938,0.08984 -0.386719,0.08984 -0.71875,0.269532 v -1.06641 q 0.449219,-0.109375 0.902344,-0.164062 0.453125,-0.05859 0.90625,-0.05859 1.18359,0 1.70703,0.46875 0.527344,0.464843 0.527344,1.51562 Z "/>
<path id="path4161" d="m 23.0078,30.4914 1.3984,0 1.0898,3.0234 1.0859,-3.0234 1.4023,0 -1.7227,4.375 -1.5352,0 -1.7188,-4.375 z "/>
<path id="path4163" d="m 28.7773,30.4914 1.3984,0 0,4.375 -1.3984,0 0,-4.375 z  m 0,-1.7031 1.3984,0 0,1.1406 -1.3984,0 0,-1.1406 z "/>
<path style="fill:#f00" id="rect3773" d="m 17.612,10.342 6.1098,0 0,6.1098 -6.1098,0 0,-6.1098 z "/>
<path style="fill:#51ff00" id="rect3775" d="m 24.2772,10.342 6.1098,0 0,6.1098 -6.1098,0 0,-6.1098 z "/>
<path style="fill:#53a8ff" id="rect3777" d="m 17.612,17.0072 6.1098,0 0,6.1098 -6.1098,0 0,-6.1098 z "/>
<path style="fill:#fffd00" id="rect3779" d="m 24.2772,17.0072 6.1098,0 0,6.1098 -6.1098,0 0,-6.1098 z "/>
</g>
</svg>
