<svg width="48" version="1.1" xmlns="http://www.w3.org/2000/svg" height="48">
<path style="fill:#e6e6e6;stroke-width:1.052" id="path3756" d="m 6,6 v 37 h 36 l -.1511,-36.9368 -11.5571,-.0632 Z "/>
<g style="stroke:none">
<path style="fill-rule:evenodd;stroke-width:1.087" id="rect2988" d="m 5,6 v 37 h 8 v -3 h 22 v 3 h 8 v -37 h -8 v 3 h -22 v -3 h -8 z  m 2,3 h 4 v 4 h -4 v -4 z  m 30,0 h 4 v 4 h -4 v -4 z  m -24,3 h 22 v 11 h -22 v -11 z  m -6,10 h 4 v 4 h -4 v -4 z  m 30,0 h 4 v 4 h -4 v -4 z  m -24,4 h 22 v 11 h -22 v -11 z  m -6,9 h 4 v 4 h -4 v -4 z  m 30,0 h 4 v 4 h -4 v -4 z "/>
<path style="line-height:125%" id="path4575" d="m 20.6602,29.3086 v 1.14062 h 1.39844 v -1.14062 h -1.39844 z  m 10.0508,1.5977 c -0.755211,0 -1.34635,0.203125 -1.77344,0.609375 -0.42448,0.406254 -0.636719,0.968754 -0.636719,1.6875 0,0.71875 0.212239,1.28125 0.636719,1.6875 0.427086,0.40625 1.01823,0.609375 1.77344,0.609375 0.752606,0 1.33984,-0.203125 1.76172,-0.609375 0.424479,-0.406253 0.636719,-0.968753 0.636719,-1.6875 0,-0.71875 -0.21224,-1.28125 -0.636719,-1.6875 -0.421873,-0.40625 -1.00911,-0.609375 -1.76172,-0.609375 z  m -15.8203,.1055 l 1.7188,4.375 h 1.53516 l 1.7227,-4.375 h -1.40234 l -1.0859,3.0234 -1.0898,-3.0234 h -1.39844 z  m 5.7695,0 v 4.375 h 1.39844 v -4.375 h -1.39844 z  m 2.1992,0 l 1.7188,4.375 h 1.53516 l 1.7227,-4.375 h -1.40234 l -1.0859,3.0234 -1.0898,-3.0234 h -1.39844 z  m 7.8516,.8945 c 0.304687,0 0.53776,0.11198 0.699218,0.335938 0.161459,0.221355 0.242188,0.541667 0.242188,0.960937 0,0.419271 -0.080731,0.740885 -0.242188,0.964844 -0.161458,0.221354 -0.394532,0.332031 -0.699218,0.332031 -0.309896,0 -0.546876,-0.110677 -0.710938,-0.332031 -0.161459,-0.223959 -0.242188,-0.545573 -0.242188,-0.964844 0,-0.41927 0.08073,-0.739582 0.242188,-0.960937 0.164062,-0.22396 0.401042,-0.335938 0.710938,-0.335938 z "/>
</g>
</svg>
