<svg width="48" version="1.1" xmlns="http://www.w3.org/2000/svg" height="48">
<g id="g3754" transform="matrix(1.1465264,0,0,1.003502,-3.4491073,-0.01867862)">
<path style="fill:#e6e6e6" id="path3756" d="m 7.2856,5.8498 0,36.202 33.4428,.0006 0,-36.1404 z "/>
</g>
<g style="stroke:none;word-spacing:0;line-height:125%">
<path style="fill:#5400b4;fill-rule:evenodd" id="folderGlyph-6" d="m 4.9043,5.8477 v 36.3086 h 8.61719 v -1.38867 h 21.0449 v 1.38867 h 8.67969 v -36.3086 h -8.6797 v 1.94141 h -21.0449 v -1.9414 h -8.61719 z  m 1.9043,3.6172 h 3.83984 v 3.63672 h -3.83984 v -3.63672 z  m 30.6934,0 h 3.80859 v 3.63672 h -3.80859 v -3.63672 z  m -24.043,.877 h 21.0449 v 12.7754 h -21.0449 v -12.7754 z  m -6.6504,11.8223 h 3.83984 v 3.61719 h -3.83984 v -3.61719 z  m 30.6934,0 h 3.80859 v 3.61719 h -3.80859 v -3.61719 z  m -24.043,3.4414 h 21.0449 v 12.6094 h -21.0449 v -12.6094 z  m -6.6504,9.2773 h 3.83984 v 3.63672 h -3.83984 v -3.63672 z  m 30.6934,0 h 3.80859 v 3.63672 h -3.80859 v -3.63672 z "/>
<path id="path4154" d="m 18.4372,30.607 q -0.464844,0 -0.710938,0.335937 -0.242187,0.332032 -0.242187,0.960938 0,0.628906 0.242187,0.964844 0.246094,0.332031 0.710938,0.332031 0.457031,0 0.699218,-0.332031 0.242188,-0.335938 0.242188,-0.964844 0,-0.628906 -0.242188,-0.960938 -0.242187,-0.335937 -0.699218,-0.335937 z  m 0,-1 q 1.12891,0 1.76172,0.609375 0.636719,0.609375 0.636719,1.6875 0,1.07812 -0.636719,1.6875 -0.632812,0.609375 -1.76172,0.609375 -1.13281,0 -1.77344,-0.609375 -0.636719,-0.609375 -0.636719,-1.6875 0,-1.07812 0.636719,-1.6875 0.640625,-0.609375 1.77344,-0.609375 z "/>
<path id="path4156" d="m 24.8317,33.3452 q -0.289063,0.382813 -0.636719,0.5625 -0.347656,0.179688 -0.804687,0.179688 -0.800782,0 -1.32422,-0.628907 -0.523438,-0.632812 -0.523438,-1.60938 0,-0.980468 0.523438,-1.60547 0.523437,-0.628907 1.32422,-0.628907 0.457031,0 0.804687,0.179688 0.347656,0.179687 0.636719,0.566406 v -0.648437 h 1.40625 v 3.93359 q 0,1.05469 -0.667969,1.60938 -0.664062,0.558594 -1.92969,0.558594 -0.410157,0 -0.792969,-0.0625 -0.382813,-0.0625 -0.769531,-0.191406 v -1.08984 q 0.367187,0.210938 0.71875,0.3125 0.351562,0.105469 0.707031,0.105469 0.6875,0 1.00781,-0.300781 0.320313,-0.300782 0.320313,-0.941407 v -0.300781 z  m -.9219,-2.7227 q -0.433594,0 -0.675781,0.320312 -0.242188,0.320313 -0.242188,0.90625 0,0.601563 0.234375,0.914063 0.234375,0.308594 0.683594,0.308594 0.4375,0 0.679687,-0.320313 0.242188,-0.320312 0.242188,-0.902344 0,-0.585937 -0.242188,-0.90625 -0.242187,-0.320312 -0.679687,-0.320312 z "/>
<path id="path4158" d="m 30.5661,33.3452 q -0.289063,0.382813 -0.636719,0.5625 -0.347656,0.179688 -0.804687,0.179688 -0.800782,0 -1.32422,-0.628907 -0.523438,-0.632812 -0.523438,-1.60938 0,-0.980468 0.523438,-1.60547 0.523437,-0.628907 1.32422,-0.628907 0.457031,0 0.804687,0.179688 0.347656,0.179687 0.636719,0.566406 v -0.648437 h 1.40625 v 3.93359 q 0,1.05469 -0.667969,1.60938 -0.664062,0.558594 -1.92969,0.558594 -0.410157,0 -0.792969,-0.0625 -0.382813,-0.0625 -0.769531,-0.191406 v -1.08984 q 0.367187,0.210938 0.71875,0.3125 0.351562,0.105469 0.707031,0.105469 0.6875,0 1.00781,-0.300781 0.320313,-0.300782 0.320313,-0.941407 v -0.300781 z  m -.9219,-2.7227 q -0.433594,0 -0.675781,0.320312 -0.242188,0.320313 -0.242188,0.90625 0,0.601563 0.234375,0.914063 0.234375,0.308594 0.683594,0.308594 0.4375,0 0.679687,-0.320313 0.242188,-0.320312 0.242188,-0.902344 0,-0.585937 -0.242188,-0.90625 -0.242187,-0.320312 -0.679687,-0.320312 z "/>
<path id="path4161" d="m 15.9125,15.5114 0,.7764 .9009,0 0,.625 -.9009,0 0,1.1597 q 0,0.19043 0.07568,0.258789 0.07568,0.06592 0.300293,0.06592 h 0.449219 v 0.625 h -0.749512 q -0.517578,0 -0.734863,-0.214844 -0.214844,-0.217285 -0.214844,-0.734863 v -1.15967 h -0.43457 v -0.625 h 0.43457 v -0.776367 h 0.874024 z "/>
<path id="path4163" d="m 20.0995,17.3571 0,1.665 -.8789,0 0,-.271 0,-.9985 q 0,-0.358887 -0.01709,-0.493164 -0.01465,-0.134277 -0.05371,-0.197754 -0.05127,-0.08545 -0.139161,-0.131836 -0.08789,-0.04883 -0.200195,-0.04883 -0.273437,0 -0.429687,0.212402 -0.15625,0.209961 -0.15625,0.583496 v 1.34521 h -0.874024 v -3.79883 h 0.874024 v 1.46484 q 0.197753,-0.239258 0.419921,-0.351563 0.222168,-0.114746 0.490723,-0.114746 0.473633,0 0.717774,0.290528 0.246582,0.290527 0.246582,0.844726 z "/>
<path id="path4165" d="m 23.6445,17.6477 0,.249 -2.0435,0 q 0.03174,0.307617 0.222168,0.461426 0.19043,0.153808 0.532227,0.153808 0.275879,0 0.563965,-0.08057 0.290527,-0.08301 0.595703,-0.249024 v 0.673829 q -0.310059,0.117187 -0.620117,0.175781 -0.310059,0.06104 -0.620117,0.06104 -0.742188,0 -1.15479,-0.375977 -0.410156,-0.378418 -0.410156,-1.05957 0,-0.668945 0.402832,-1.05225 0.405274,-0.383301 1.11328,-0.383301 0.644532,0 1.03027,0.388184 0.388183,0.388183 0.388183,1.0376 z  m -.8984,-.2905 q 0,-0.249023 -0.146484,-0.40039 -0.144043,-0.153809 -0.378418,-0.153809 -0.253907,0 -0.412598,0.144043 -0.158691,0.141601 -0.197754,0.410156 h 1.13525 z "/>
<path id="path4167" d="m 25.6049,16.8469 q -0.290528,0 -0.444336,0.209961 -0.151367,0.20752 -0.151367,0.600586 0,0.393067 0.151367,0.603027 0.153808,0.20752 0.444336,0.20752 0.285644,0 0.437011,-0.20752 0.151368,-0.20996 0.151368,-0.603027 0,-0.393066 -0.151368,-0.600586 -0.151367,-0.209961 -0.437011,-0.209961 z  m 0,-.625 q 0.705566,0 1.10107,0.38086 0.397949,0.380859 0.397949,1.05469 0,0.673828 -0.397949,1.05469 -0.395508,0.380859 -1.10107,0.380859 -0.708008,0 -1.1084,-0.380859 -0.397949,-0.38086 -0.397949,-1.05469 0,-0.673828 0.397949,-1.05469 0.400391,-0.38086 1.1084,-0.38086 z "/>
<path id="path4169" d="m 29.7724,17.0324 q -0.114746,-0.05371 -0.229492,-0.07813 -0.112305,-0.02685 -0.227051,-0.02685 -0.336914,0 -0.520019,0.217285 -0.180664,0.214844 -0.180664,0.617676 v 1.25977 h -0.874024 v -2.73438 h 0.874024 v 0.449219 q 0.168457,-0.268555 0.385742,-0.390625 0.219726,-0.124512 0.524902,-0.124512 0.04395,0 0.09521,0.0049 0.05127,0.0024 0.148926,0.01465 l .0024,.791 z "/>
<path id="path4171" d="m 31.4374,17.7917 q -0.273437,0 -0.412597,0.09277 -0.136719,0.09277 -0.136719,0.273437 0,0.166016 0.109863,0.261231 0.112305,0.09277 0.310059,0.09277 0.246582,0 0.415039,-0.175781 0.168457,-0.178223 0.168457,-0.444336 v -0.100098 h -0.454102 z  m 1.3354,-.3296 0,1.5601 -.8813,0 0,-.4053 q -0.175781,0.249023 -0.395508,0.363769 -0.219727,0.112305 -0.534668,0.112305 -0.424805,0 -0.690918,-0.246582 -0.263672,-0.249023 -0.263672,-0.644531 0,-0.480957 0.32959,-0.705567 0.332031,-0.224609 1.04004,-0.224609 h 0.515137 v -0.06836 q 0,-0.20752 -0.163574,-0.302735 -0.163575,-0.09766 -0.510254,-0.09766 -0.280762,0 -0.522461,0.05615 -0.2417,0.05615 -0.449219,0.168457 v -0.666504 q 0.280762,-0.06836 0.563965,-0.102539 0.283203,-0.03662 0.566406,-0.03662 0.739746,0 1.0669,0.292969 0.329589,0.290527 0.329589,0.947266 z "/>
</g>
</svg>
