<svg width="48" version="1.1" xmlns="http://www.w3.org/2000/svg" height="48">
<g style="stroke:none" id="g12">
<g style="fill-rule:evenodd" id="g10">
<rect width="40" x="4" y="3" height="42" style="fill:#e6e6e6" id="rect867"/>
<g id="g854">
<g style="fill:#f06000">
<path id="rect2988" d="m 10.7368,7 h 26.5263 v 3.5 H 10.7368 Z"/>
<path id="rect2990" d="m 10.7368,37 h 26.5263 v 3.5 H 10.7368 Z"/>
<g id="g7">
<path id="path841" d="m 3,3 v 42 h 9 V 3 Z m 2,3 h 5 v 5 H 5 Z m 0,15 h 5 v 5 H 5 Z m 0,15 h 5 v 5 H 5 Z"/>
<path id="path833" d="m 36,3 v 42 h 9 V 3 Z m 2,3 h 5 v 5 h -5 z m 0,15 h 5 v 5 h -5 z m 0,15 h 5 v 5 h -5 z"/>
</g>
<path id="path4511" d="m 10.7368,22 h 26.5263 v 3.5 H 10.7368 Z"/>
</g>
</g>
</g>
<path id="path4801" d="m 15.732409,27.195242 v 1.14063 h 1.39844 v -1.14063 z m 4.6133,1.5977 c -0.302083,0 -0.604167,0.01953 -0.90625,0.05859 -0.302083,0.03646 -0.602864,0.09115 -0.902344,0.164063 v 1.06641 c 0.221355,-0.119794 0.460938,-0.209638 0.71875,-0.269531 0.257813,-0.05989 0.536459,-0.08984 0.835938,-0.08984 0.369791,0 0.641927,0.05208 0.816406,0.15625 0.174479,0.101563 0.261719,0.263021 0.261719,0.484375 v 0.109375 h -0.824219 c -0.755207,0 -1.3099,0.119792 -1.66406,0.359375 -0.351563,0.239586 -0.527344,0.615885 -0.527344,1.12891 0,0.421874 0.140625,0.765624 0.421875,1.03125 0.283855,0.263019 0.652343,0.394531 1.10547,0.394531 0.335937,0 0.621094,-0.0599 0.855468,-0.179688 0.234376,-0.122395 0.445313,-0.316406 0.632813,-0.582031 v 0.648438 h 1.41016 v -2.49609 c 0,-0.700518 -0.175781,-1.20573 -0.527344,-1.51562 -0.34896,-0.3125 -0.917971,-0.468749 -1.70703,-0.46875 z m 10.625,0 c -0.302083,0 -0.604167,0.01953 -0.90625,0.05859 -0.302083,0.03646 -0.602864,0.09115 -0.902344,0.164063 v 1.06641 c 0.221355,-0.119794 0.460938,-0.209638 0.71875,-0.269531 0.257813,-0.05989 0.536459,-0.08984 0.835938,-0.08984 0.369791,0 0.641927,0.05208 0.816406,0.15625 0.174479,0.101563 0.261719,0.263021 0.261719,0.484375 v 0.109375 h -0.824219 c -0.755207,0 -1.3099,0.119792 -1.66406,0.359375 -0.351563,0.239586 -0.527344,0.615885 -0.527344,1.12891 0,0.421874 0.140625,0.765624 0.421875,1.03125 0.283855,0.263019 0.652343,0.394531 1.10547,0.394531 0.335937,0 0.621094,-0.0599 0.855468,-0.179688 0.234376,-0.122395 0.445313,-0.316406 0.632813,-0.582031 v 0.648438 h 1.41016 v -2.49609 c 0,-0.700518 -0.175781,-1.20573 -0.527344,-1.51562 -0.348959,-0.3125 -0.917971,-0.468749 -1.70703,-0.46875 z m -15.2383,0.1055 v 4.29687 c 0,0.351563 -0.04948,0.58724 -0.148438,0.707032 -0.09896,0.119791 -0.281249,0.179687 -0.546875,0.179687 H 14.794909 V 35 h 0.691406 c 0.533856,0 0.941406,-0.154948 1.22266,-0.464844 0.28125,-0.307289 0.421875,-0.753906 0.421875,-1.33984 v -4.29687 h -1.39844 z m 7.6055,0 1.7188,4.375 h 1.53516 l 1.7227,-4.375 h -1.40234 l -1.0859,3.0234 -1.0898,-3.0234 h -1.39844 z m -2.8945,2.4062 h 0.726563 v 0.160156 c 0,0.283854 -0.08984,0.520833 -0.269531,0.710937 -0.179688,0.1875 -0.401042,0.28125 -0.664063,0.28125 -0.210938,0 -0.376302,-0.04948 -0.496094,-0.148437 -0.117187,-0.101563 -0.175781,-0.240886 -0.175781,-0.417969 0,-0.192708 0.07292,-0.338541 0.21875,-0.4375 0.148437,-0.09896 0.36849,-0.148437 0.660156,-0.148437 z m 10.625,0 h 0.726563 v 0.160156 c 0,0.283854 -0.08984,0.520833 -0.269531,0.710937 -0.179688,0.1875 -0.401042,0.28125 -0.664063,0.28125 -0.210938,0 -0.376302,-0.04948 -0.496094,-0.148437 -0.117187,-0.101563 -0.175781,-0.240886 -0.175781,-0.417969 0,-0.192708 0.07292,-0.338541 0.21875,-0.4375 0.148437,-0.09896 0.36849,-0.148437 0.660156,-0.148437 z"/>
</g>
</svg>
