<svg width="48" version="1.1" xmlns="http://www.w3.org/2000/svg" height="48">
<path style="fill:#e6e6e6;stroke-width:1.052" id="path3756" d="m 5.9186,6 v 37 h 36 l -.1511,-36.9368 -11.5571,-.0632 Z "/>
<g style="stroke:none;letter-spacing:0">
<path style="fill-rule:evenodd;stroke-width:1.087" id="rect2988" d="m 5,6 v 37 h 8 v -3 h 22 v 3 h 8 v -37 h -8 v 3 h -22 v -3 h -8 z  m 2,3 h 4 v 4 h -4 v -4 z  m 30,0 h 4 v 4 h -4 v -4 z  m -24,3 h 22 v 11 h -22 v -11 z  m -6,10 h 4 v 4 h -4 v -4 z  m 30,0 h 4 v 4 h -4 v -4 z  m -24,4 h 22 v 11 h -22 v -11 z  m -6,9 h 4 v 4 h -4 v -4 z  m 30,0 h 4 v 4 h -4 v -4 z "/>
<g style="stroke-width:.822;text-indent:0">
<path style="fill:#f00" id="rect3773" d="m 18.75,12.25 h 5.02172 v 5.02172 h -5.02172 z "/>
<path style="fill:#51ff00" id="rect3775" d="m 24.2282,12.25 h 5.02172 v 5.02172 h -5.02172 z "/>
<path style="fill:#53a8ff" id="rect3777" d="m 18.75,17.7283 h 5.02172 v 5.02172 h -5.02172 z "/>
<path style="fill:#fffd00" id="rect3779" d="m 24.2282,17.7283 h 5.02172 v 5.02172 h -5.02172 z "/>
</g>
<path style="text-transform:none" id="path4157-9" d="m 24.0977,29.3555 c -0.268229,0 -0.514323,0.0625 -0.738281,0.1875 -0.221354,0.125 -0.417968,0.311198 -0.589844,0.558593 v -0.640624 h -1.40625 v 4.375 h 1.40625 v -2.15234 c 0,-0.408854 0.072917,-0.722656 0.21875,-0.941406 0.145834,-0.221355 0.352865,-0.332032 0.621094,-0.332032 0.213541,0 0.361979,0.070312 0.445313,0.210938 0.083333,0.13802 0.125,0.449218 0.125,0.933594 v 2.28125 h 1.40625 v -2.14844 c 0.005208,-0.414063 0.079426,-0.730469 0.222656,-0.949219 0.145833,-0.21875 0.351563,-0.328125 0.617187,-0.328125 0.203126,0 0.350261,0.070312 0.441407,0.210938 0.091145,0.13802 0.136718,0.361979 0.136718,0.671875 0,0.067706 -0.001306,0.11979 -0.003906,0.15625 0,0.036459 -0.001306,0.071615 -0.003906,0.105469 v 2.28125 h 1.40625 v -2.66406 c 0,-0.591145 -0.13151,-1.04167 -0.394532,-1.35156 -0.263022,-0.309896 -0.645833,-0.464843 -1.14844,-0.464843 -0.291667,0 -0.559895,0.071614 -0.804687,0.214843 -0.242188,0.140625 -0.451823,0.346355 -0.628907,0.617188 -0.119791,-0.263021 -0.295572,-0.467448 -0.527343,-0.613281 -0.231771,-0.145834 -0.498698,-0.21875 -0.800782,-0.21875 z  m 8.4648,0 c -0.304687,0 -0.574218,0.0612 -0.808594,0.183593 -0.234374,0.119791 -0.447917,0.307291 -0.640625,0.5625 v -0.640624 h -1.39844 v 6.03906 h 1.39844 v -2.29688 c 0.192708,0.255208 0.406251,0.44401 0.640625,0.566406 0.234376,0.119792 0.503907,0.179688 0.808594,0.179688 0.53906,0 0.981771,-0.213541 1.32812,-0.640625 0.346354,-0.429686 0.519531,-0.98177 0.519531,-1.65625 0,-0.674476 -0.173177,-1.22526 -0.519531,-1.65234 -0.34635,-0.429687 -0.789062,-0.644531 -1.32812,-0.644531 z  m -18.9727,.1055 l 1.1523,4.375 h 1.52734 l .7344,-3.0078 .7383,3.0078 h 1.52734 l 1.1523,-4.375 h -1.35938 l -.7383,2.9844 -.7344,-2.9844 h -1.16797 l -.7383,3.0156 -.7344,-3.0156 h -1.35938 z  m 18.4531,.9102 c 0.299479,0 0.527343,0.109375 0.683593,0.328125 0.158854,0.21875 0.238282,0.536459 0.238282,0.953125 0,0.416667 -0.079431,0.734375 -0.238282,0.953125 -0.15625,0.21875 -0.384114,0.328125 -0.683593,0.328125 -0.299479,0 -0.529948,-0.109375 -0.691407,-0.328125 -0.158854,-0.221354 -0.238281,-0.539062 -0.238281,-0.953125 -1e-06,-0.414062 0.079431,-0.730469 0.238281,-0.949219 0.161458,-0.221355 0.391928,-0.332031 0.691407,-0.332031 z "/>
</g>
</svg>
