<svg width="48" version="1.1" xmlns="http://www.w3.org/2000/svg" height="48">
<g id="g3754" transform="matrix(1.1465264,0,0,1.003502,-3.4491073,-0.01867862)">
<path style="fill:#e6e6e6" id="path3756" d="m 7.2067,5.8502 0,36.202 33.4429,0 l -.1396,-36.1402 -10.6801,-.0618 z "/>
</g>
<g style="fill-rule:evenodd;stroke:none">
<path id="folderGlyph-6" d="m 4.9039,5.848 0,36.3079 8.6178,0 0,-1.1279 c 0,-0.323811 0.610339,-0.583417 1.37386,-0.583417 h 18.2661 c 0.763519,0 1.40508,0.259606 1.40508,0.583417 v 1.12793 h 8.68028 v -36.3079 h -8.68028 v 1.7308 c 0,0.323812 -0.641564,0.583415 -1.40508,0.583415 h -18.2661 c -0.763521,0 -1.37386,-0.259603 -1.37386,-0.583415 v -1.7308 h -8.61784 z  m 8.5554,3.4033 21.045,0 0,13.8658 -21.045,0 0,-13.8658 z  m -6.6507,.2139 3.8406,0 0,3.6366 -3.8406,0 0,-3.6366 z  m 30.6932,0 3.8093,0 0,3.6366 -3.8093,0 0,-3.6366 z  m -30.6932,12.699 h 3.84056 v 3.61717 h -3.84056 v -3.61717 z  m 30.6932,0 3.8093,0 0,3.6172 -3.8093,0 0,-3.6172 z  m -24.0425,3.4421 21.045,0 0,13.8658 -21.045,0 0,-13.8658 z  m -6.6507,9.2763 3.8406,0 0,3.6366 -3.8406,0 0,-3.6366 z  m 30.6932,0 3.8093,0 0,3.6366 -3.8093,0 0,-3.6366 z "/>
<rect width="23.866335" x="12.203216" y="7.7890625" height="2.5525739" id="rect2988"/>
<rect width="23.866335" x="12.007577" y="38.21405" height="2.5525739" id="rect2990"/>
</g>
</svg>
