<svg width="48" version="1.1" xmlns="http://www.w3.org/2000/svg" height="48">
<g id="g3754" transform="matrix(1.1465264,0,0,1.003502,-3.4491073,-0.01867862)">
<path style="fill:#e6e6e6" id="path3756" d="m 7.2856,5.8498 0,36.202 l 33.364,.0004 .0787,-36.1402 Z "/>
</g>
<g style="stroke:none;word-spacing:0;letter-spacing:0">
<path style="fill-rule:evenodd" id="rect2988" d="m 4.9043,5.8477 v 36.3086 h 8.61719 v -1.38867 h 21.0449 v 1.38867 h 8.67969 v -36.3086 h -8.6797 v 1.94141 h -21.0449 v -1.9414 h -8.61719 z  m 1.9043,3.6172 h 3.83984 v 3.63672 h -3.83984 v -3.63672 z  m 30.6934,0 h 3.80859 v 3.63672 h -3.80859 v -3.63672 z  m -24.043,.877 h 21.0449 v 12.7754 h -21.0449 v -12.7754 z  m -6.6504,11.8223 h 3.83984 v 3.61719 h -3.83984 v -3.61719 z  m 30.6934,0 h 3.80859 v 3.61719 h -3.80859 v -3.61719 z  m -24.043,3.4414 h 21.0449 v 12.6094 h -21.0449 v -12.6094 z  m -6.6504,9.2773 h 3.83984 v 3.63672 h -3.83984 v -3.63672 z  m 30.6934,0 h 3.80859 v 3.63672 h -3.80859 v -3.63672 z "/>
<path id="path4161" d="m 17.3759,33.82 c -0.742,0 -0.91,-0.07 -0.91,-0.406 0,-0.35 0.252,-0.462 1.064,-0.462 h 0.252 c 0.924,0 1.442,-0.084 1.974,-0.336 0.812,-0.378 1.288,-1.092 1.288,-1.946 0,-0.658 -0.224,-1.078 -0.84,-1.582 0.182,-0.252 0.35,-0.392 0.518,-0.392 0.042,0 0.07,0.014 0.07,0.07 v 0.056 c 0,0.322 0.378,0.63 0.756,0.63 0.49,0 0.868,-0.392 0.868,-0.896 0,-0.546 -0.42,-0.91 -1.036,-0.91 -0.63,0 -1.176,0.336 -1.792,1.106 -0.532,-0.266 -1.162,-0.406 -1.876,-0.406 -1.918,0 -3.304,1.008 -3.304,2.394 0,0.938 0.532,1.624 1.54,1.974 -1.092,0.196 -1.624,0.644 -1.624,1.372 0,0.616 0.462,1.078 1.274,1.302 -0.938,0.14 -1.484,0.588 -1.484,1.246 0,0.924 1.134,1.372 3.416,1.372 2.604,0 4.06,-0.826 4.06,-2.324 0,-0.784 -0.462,-1.442 -1.162,-1.652 -0.462,-0.154 -1.078,-0.21 -2.086,-0.21 h -0.966 z  m .378,-4.746 c 0.672,0 1.022,0.56 1.022,1.624 0,0.994 -0.378,1.582 -1.036,1.582 -0.42,0 -0.686,-0.154 -0.84,-0.504 -0.154,-0.308 -0.224,-0.714 -0.224,-1.162 0,-1.022 0.364,-1.54 1.078,-1.54 z  m .532,6.706 c 0.868,0 1.036,0.028 1.274,0.182 0.126,0.084 0.21,0.28 0.21,0.462 0,0.574 -0.7,0.854 -2.142,0.854 -1.078,0 -1.694,-0.294 -1.694,-0.812 0,-0.308 0.168,-0.532 0.518,-0.686 h 1.834 z "/>
<path id="path4154" d="m 22.0496,33.031 .7617,0 1.3672,3.6719 1.3672,-3.6719 .7617,0 -1.6406,4.375 -.9766,0 -1.6406,-4.375 z "/>
<path id="path4156" d="m 27.2996,31.3278 .7188,0 0,6.0781 -.7188,0 0,-6.0781 z "/>
<path id="path4158" d="m 32.6667,33.1989 0,.6719 q -0.304687,-0.167969 -0.613281,-0.25 -0.304687,-0.08594 -0.617187,-0.08594 -0.699219,0 -1.08594,0.445312 -0.386719,0.441406 -0.386719,1.24219 0,0.800781 0.386719,1.24609 0.386719,0.441407 1.08594,0.441407 0.3125,0 0.617187,-0.08203 0.308594,-0.08594 0.613281,-0.253906 v 0.664063 q -0.300781,0.140625 -0.625,0.210937 -0.320312,0.07031 -0.683593,0.07031 -0.988282,0 -1.57031,-0.621094 -0.582031,-0.621094 -0.582031,-1.67578 0,-1.07031 0.585937,-1.68359 0.589844,-0.613281 1.61328,-0.613281 0.332031,0 0.648437,0.07031 0.316406,0.06641 0.613281,0.203125 z "/>
</g>
</svg>
