<svg width="48" version="1.1" xmlns="http://www.w3.org/2000/svg" height="48">
<g id="g3754" transform="matrix(1.1465264,0,0,1.003502,-3.4491073,-0.01867862)">
<path style="fill:#e6e6e6" id="path3756" d="m 7.2856,5.8498 0,36.202 33.4428,.0006 0,-36.1404 z "/>
</g>
<g style="stroke:none;letter-spacing:0;text-transform:none">
<path style="fill-rule:evenodd" id="folderGlyph-6" d="m 4.9043,5.8477 v 36.3086 h 8.61719 v -1.38867 h 21.0449 v 1.38867 h 8.67969 v -36.3086 h -8.6797 v 1.94141 h -21.0449 v -1.9414 h -8.61719 z  m 1.9043,3.6172 h 3.83984 v 3.63672 h -3.83984 v -3.63672 z  m 30.6934,0 h 3.80859 v 3.63672 h -3.80859 v -3.63672 z  m -24.043,.877 h 21.0449 v 12.7754 h -21.0449 v -12.7754 z  m -6.6504,11.8223 h 3.83984 v 3.61719 h -3.83984 v -3.61719 z  m 30.6934,0 h 3.80859 v 3.61719 h -3.80859 v -3.61719 z  m -24.043,3.4414 h 21.0449 v 12.6094 h -21.0449 v -12.6094 z  m -6.6504,9.2773 h 3.83984 v 3.63672 h -3.83984 v -3.63672 z  m 30.6934,0 h 3.80859 v 3.63672 h -3.80859 v -3.63672 z "/>
<path id="path4157" d="m 13.5898,29.7124 1.3594,0 .7344,3.0156 .7383,-3.0156 1.168,0 .7344,2.9844 .7383,-2.9844 1.3594,0 -1.1523,4.375 -1.5273,0 -.7383,-3.0078 -.7344,3.0078 -1.5273,0 -1.1523,-4.375 z "/>
<path id="path4159" d="m 25.4258,30.439 q 0.265625,-0.40625 0.628906,-0.617187 0.367188,-0.214844 0.804688,-0.214844 0.753906,0 1.14844,0.464844 0.394532,0.464843 0.394532,1.35156 v 2.66406 h -1.40625 v -2.28125 q 0.003906,-0.050782 0.003906,-0.105469 0.0039,-0.05469 0.0039,-0.15625 0,-0.464844 -0.136719,-0.671875 -0.136718,-0.210938 -0.441406,-0.210938 -0.398437,0 -0.617187,0.328125 -0.214844,0.328125 -0.222657,0.949219 v 2.14844 h -1.40625 v -2.28125 q 0,-0.726563 -0.125,-0.933594 -0.125,-0.210938 -0.445312,-0.210938 -0.402344,0 -0.621094,0.332032 -0.21875,0.328125 -0.21875,0.941406 v 2.15234 h -1.40625 v -4.375 h 1.40625 v 0.640625 q 0.257813,-0.371094 0.589844,-0.558594 0.335937,-0.1875 0.738281,-0.1875 0.453125,0 0.800781,0.21875 0.347657,0.21875 0.527344,0.613281 z "/>
<path id="path4161" d="m 31.1133,33.4546 0,2.2969 -1.3984,0 0,-6.0391 1.3984,0 0,.6406 q 0.289063,-0.382813 0.640625,-0.5625 0.351563,-0.183594 0.808594,-0.183594 0.808594,0 1.32812,0.644531 0.519531,0.640625 0.519531,1.65234 0,1.01172 -0.519531,1.65625 -0.519531,0.640625 -1.32812,0.640625 -0.457031,0 -0.808594,-0.179688 -0.351562,-0.183593 -0.640625,-0.566406 z  m .9297,-2.832 q -0.449219,0 -0.691407,0.332031 -0.238281,0.328125 -0.238281,0.949219 0,0.621094 0.238281,0.953125 0.242188,0.328125 0.691407,0.328125 0.449218,0 0.683593,-0.328125 0.238282,-0.328125 0.238282,-0.953125 0,-0.625 -0.238282,-0.953125 -0.234375,-0.328125 -0.683593,-0.328125 z "/>
<path style="fill:#f00" id="rect3773" d="m 17.612,10.342 6.1098,0 0,6.1098 -6.1098,0 0,-6.1098 z "/>
<path style="fill:#51ff00" id="rect3775" d="m 24.2772,10.342 6.1098,0 0,6.1098 -6.1098,0 0,-6.1098 z "/>
<path style="fill:#53a8ff" id="rect3777" d="m 17.612,17.0072 6.1098,0 0,6.1098 -6.1098,0 0,-6.1098 z "/>
<path style="fill:#fffd00" id="rect3779" d="m 24.2772,17.0072 6.1098,0 0,6.1098 -6.1098,0 0,-6.1098 z "/>
</g>
</svg>
