<svg width="48" version="1.1" xmlns="http://www.w3.org/2000/svg" height="48">
<g id="g3754" transform="matrix(1.1465264,0,0,1.003502,-3.4491073,-0.01867862)">
<path style="fill:#e6e6e6" id="path3756" d="m 7.2856,5.8498 0,36.202 33.4419,.0006 0,-36.1404 z "/>
</g>
<g style="stroke:none">
<path style="fill:#0071a0;fill-rule:evenodd" id="folderGlyph-6" d="m 4.904,5.8477 .0003,36.3086 8.6172,0 0,-1.3887 21.0449,0 0,1.3887 8.6797,0 -.0001,-36.3086 -8.6796,0 0,1.9414 -21.0449,0 0,-1.9414 z  m 1.9046,3.6172 3.8398,0 0,3.6367 -3.8398,0 z  m 30.6934,0 3.8086,0 0,3.6367 -3.8086,0 z  m -24.043,.877 21.0449,0 0,12.7754 -21.0449,0 z  m -6.6504,11.8223 3.8398,0 0,3.6172 -3.8398,0 z  m 30.6934,0 3.8086,0 0,3.6172 -3.8086,0 z  m -24.043,3.4414 21.0449,0 0,12.6094 -21.0449,0 z  m -6.6504,9.2773 3.8398,0 0,3.6367 -3.8398,0 z  m 30.6934,0 3.8086,0 0,3.6367 -3.8086,0 z "/>
<path id="path4173" d="m 18.7039,30.6727 q 0.265625,-0.40625 0.628906,-0.617187 0.367188,-0.214844 0.804688,-0.214844 0.753906,0 1.14844,0.464844 0.394532,0.464843 0.394532,1.35156 v 2.66406 h -1.40625 v -2.28125 q 0.0039,-0.05078 0.0039,-0.105469 0.0039,-0.05469 0.0039,-0.15625 0,-0.464844 -0.136719,-0.671875 -0.136718,-0.210938 -0.441406,-0.210938 -0.398437,0 -0.617187,0.328125 -0.214844,0.328125 -0.222657,0.949219 v 2.14844 h -1.40625 v -2.28125 q 0,-0.726563 -0.125,-0.933594 -0.125,-0.210938 -0.445312,-0.210938 -0.402344,0 -0.621094,0.332032 -0.21875,0.328125 -0.21875,0.941406 v 2.15234 h -1.40625 v -4.375 h 1.40625 v 0.640625 q 0.257813,-0.371094 0.589844,-0.558594 0.335937,-0.1875 0.738281,-0.1875 0.453125,0 0.800781,0.21875 0.347657,0.21875 0.527344,0.613281 z "/>
<path id="path4175" d="m 24.3914,33.6883 0,2.2969 -1.3984,0 0,-6.0391 1.3984,0 0,.6406 q 0.289063,-0.382813 0.640625,-0.5625 0.351563,-0.183594 0.808594,-0.183594 0.808594,0 1.32812,0.644531 0.519531,0.640625 0.519531,1.65234 0,1.01172 -0.519531,1.65625 -0.519531,0.640625 -1.32812,0.640625 -0.457031,0 -0.808594,-0.179688 -0.351562,-0.183593 -0.640625,-0.566406 z  m .9297,-2.832 q -0.449219,0 -0.691407,0.332031 -0.238281,0.328125 -0.238281,0.949219 0,0.621094 0.238281,0.953125 0.242188,0.328125 0.691407,0.328125 0.449218,0 0.683593,-0.328125 0.238282,-0.328125 0.238282,-0.953125 0,-0.625 -0.238282,-0.953125 -0.234375,-0.328125 -0.683593,-0.328125 z "/>
<path id="path4177" d="m 31.0008,29.7273 -1.6484,2.4414 1.6484,0 0,-2.4414 z  m -.25,-1.2383 1.6719,0 0,3.6797 .832,0 0,1.0898 -.832,0 0,1.0625 -1.4219,0 0,-1.0625 -2.5859,0 0,-1.2891 2.3359,-3.4805 z "/>
</g>
</svg>
