<svg width="48" version="1.1" xmlns="http://www.w3.org/2000/svg" height="48">
<g style="fill-rule:evenodd;stroke:none" id="g10">
<rect width="40" x="4" y="3" height="42" style="fill:#e6e6e6" id="rect867"/>
<g id="g854">
<path id="rect2988" d="m 10.7368,7 h 26.5263 v 3.5 H 10.7368 Z"/>
<path id="rect2990" d="m 10.7368,37 h 26.5263 v 3.5 H 10.7368 Z"/>
<g id="g7">
<path id="path841" d="m 3,3 v 42 h 9 V 3 Z m 2,3 h 5 v 5 H 5 Z m 0,15 h 5 v 5 H 5 Z m 0,15 h 5 v 5 H 5 Z"/>
<path id="path833" d="m 36,3 v 42 h 9 V 3 Z m 2,3 h 5 v 5 h -5 z m 0,15 h 5 v 5 h -5 z m 0,15 h 5 v 5 h -5 z"/>
</g>
<path id="path4511" d="m 10.7368,22 h 26.5263 v 3.5 H 10.7368 Z"/>
</g>
</g>
<g style="stroke:none" id="g1168" transform="translate(76.637508,1.750251)">
<path id="path4148" d="m -61.444,27.761 h 1.3594 l .7344,3.0156 .7383,-3.0156 h 1.168 l .7344,2.9844 .7383,-2.9844 h 1.3594 l -1.1523,4.375 h -1.5273 l -.7383,-3.0078 -.7344,3.0078 h -1.5273 l -1.1523,-4.375 z "/>
<path id="path4150" d="m -51.7988,27.656 c -0.302083,0 -0.604167,0.01953 -0.90625,0.05859 -0.302083,0.03646 -0.602865,0.09115 -0.902344,0.164063 v 1.06641 c 0.221354,-0.119794 0.460937,-0.209638 0.71875,-0.269531 0.257813,-0.05989 0.536459,-0.08984 0.835938,-0.08984 0.369792,0 0.641927,0.05208 0.816406,0.15625 0.174479,0.101563 0.261719,0.263021 0.261719,0.484375 v 0.109375 h -0.824219 c -0.755207,0 -1.3099,0.119792 -1.66406,0.359375 -0.351562,0.239585 -0.527343,0.615885 -0.527343,1.12891 0,0.421875 0.140625,0.765625 0.421875,1.03125 0.283855,0.263021 0.652344,0.394531 1.10547,0.394531 0.335938,0 0.621094,-0.0599 0.855469,-0.179687 0.234375,-0.122395 0.445313,-0.316406 0.632813,-0.582031 v 0.648437 h 1.41016 v -2.49609 c 0,-0.700517 -0.175781,-1.20573 -0.527344,-1.51562 -0.34896,-0.3125 -0.917971,-0.46875 -1.70703,-0.46875 z  m .0977,2.5117 h 0.726563 v 0.160156 c 0,0.283854 -0.08984,0.520834 -0.269532,0.710938 -0.179687,0.1875 -0.401041,0.28125 -0.664062,0.28125 -0.210938,0 -0.376303,-0.04948 -0.496094,-0.148438 -0.117187,-0.101562 -0.175781,-0.240885 -0.175781,-0.417968 0,-0.192708 0.07292,-0.338542 0.21875,-0.4375 0.148437,-0.09896 0.368489,-0.148438 0.660156,-0.148438 z "/>
<path id="path4152" d="m -48.8074,27.761 h 1.3984 l 1.0898,3.0234 1.0859,-3.0234 h 1.4023 l -1.7227,4.375 h -1.5352 l -1.7188,-4.375 z "/>
</g>
</svg>
