<svg width="48" version="1.1" xmlns="http://www.w3.org/2000/svg" height="48">
<g style="stroke:none">
<g style="fill-rule:evenodd" id="g10">
<rect width="40" x="4" y="3" height="42" style="fill:#e6e6e6" id="rect867"/>
<g id="g854">
<path id="rect2988" d="m 10.7368,7 h 26.5263 v 3.5 H 10.7368 Z"/>
<path id="rect2990" d="m 10.7368,37 h 26.5263 v 3.5 H 10.7368 Z"/>
<g id="g7">
<path id="path841" d="m 3,3 v 42 h 9 V 3 Z m 2,3 h 5 v 5 H 5 Z m 0,15 h 5 v 5 H 5 Z m 0,15 h 5 v 5 H 5 Z"/>
<path id="path833" d="m 36,3 v 42 h 9 V 3 Z m 2,3 h 5 v 5 h -5 z m 0,15 h 5 v 5 h -5 z m 0,15 h 5 v 5 h -5 z"/>
</g>
<path id="path4511" d="m 10.7368,22 h 26.5263 v 3.5 H 10.7368 Z"/>
</g>
</g>
<g>
<g style="text-indent:0" id="g936" transform="translate(0,-1.25002)">
<path style="fill:#f00" id="rect3773" d="m 18.75,12.25 h 5.02172 v 5.02172 H 18.75 Z"/>
<path style="fill:#51ff00" id="rect3775" d="m 24.2282,12.25 h 5.02172 v 5.02172 H 24.2282 Z"/>
<path style="fill:#53a8ff" id="rect3777" d="m 18.75,17.7283 h 5.02172 v 5.02172 H 18.75 Z"/>
<path style="fill:#fffd00" id="rect3779" d="m 24.2282,17.7283 h 5.02172 v 5.02172 H 24.2282 Z"/>
</g>
<path style="text-transform:none" id="path4157-9" d="m 24.0978,28.855471 c -0.26823,0 -0.51432,0.0625 -0.73828,0.1875 -0.22135,0.125 -0.41797,0.311198 -0.58984,0.558593 V 28.96094 h -1.40625 v 4.375 h 1.40625 V 31.1836 c 0,-0.408854 0.0729,-0.722656 0.21875,-0.941406 0.14583,-0.221355 0.35286,-0.332032 0.62109,-0.332032 0.21354,0 0.36198,0.07031 0.44531,0.210938 0.0833,0.13802 0.125,0.449218 0.125,0.933594 v 2.28125 h 1.40625 v -2.14844 c 0.005,-0.414063 0.0794,-0.730469 0.22266,-0.949219 0.14583,-0.21875 0.35156,-0.328125 0.61719,-0.328125 0.20312,0 0.35026,0.07031 0.4414,0.210938 0.0911,0.13802 0.13672,0.361979 0.13672,0.671875 0,0.06771 -10e-4,0.11979 -0.004,0.15625 0,0.03646 -0.001,0.07161 -0.004,0.105469 v 2.28125 h 1.40625 v -2.66406 c 0,-0.591145 -0.13151,-1.04167 -0.39453,-1.35156 -0.26302,-0.309896 -0.64583,-0.464843 -1.14844,-0.464843 -0.29167,0 -0.5599,0.07161 -0.80469,0.214843 -0.24219,0.140625 -0.45182,0.346355 -0.62891,0.617188 -0.11979,-0.263021 -0.29557,-0.467448 -0.52734,-0.613281 -0.23177,-0.145834 -0.4987,-0.21875 -0.80078,-0.21875 z m 8.4648,0 c -0.30469,0 -0.57422,0.0612 -0.80859,0.183593 -0.23438,0.119791 -0.44792,0.307291 -0.64063,0.5625 V 28.96094 H 29.71494 V 35 h 1.39844 v -2.29688 c 0.19271,0.255208 0.40625,0.44401 0.64063,0.566406 0.23437,0.119792 0.5039,0.179688 0.80859,0.179688 0.53906,0 0.98177,-0.213541 1.32812,-0.640625 0.34635,-0.429686 0.51953,-0.98177 0.51953,-1.65625 0,-0.674476 -0.17318,-1.22526 -0.51953,-1.65234 -0.34635,-0.429687 -0.78906,-0.644531 -1.32812,-0.644531 z m -18.9727,0.1055 1.1523,4.375 h 1.52734 l 0.7344,-3.0078 0.7383,3.0078 h 1.52734 l 1.1523,-4.375 H 19.0625 l -0.7383,2.9844 -0.7344,-2.9844 h -1.16797 l -0.7383,3.0156 -0.7344,-3.0156 h -1.35938 z m 18.4531,0.9102 c 0.29948,0 0.52734,0.109375 0.68359,0.328125 0.15886,0.21875 0.23829,0.536459 0.23829,0.953125 0,0.416667 -0.0794,0.734375 -0.23829,0.953125 -0.15625,0.21875 -0.38411,0.328125 -0.68359,0.328125 -0.29948,0 -0.52995,-0.109375 -0.69141,-0.328125 -0.15885,-0.221354 -0.23828,-0.539062 -0.23828,-0.953125 0,-0.414062 0.0794,-0.730469 0.23828,-0.949219 0.16146,-0.221355 0.39193,-0.332031 0.69141,-0.332031 z"/>
</g>
</g>
</svg>
