<svg width="48" version="1.1" xmlns="http://www.w3.org/2000/svg" height="48">
<g style="stroke:none">
<g style="fill-rule:evenodd">
<rect width="40" x="4" y="3" height="42" style="fill:#e6e6e6" id="rect867"/>
<g id="g854">
<g style="fill:#0071a0">
<path id="rect2988" d="m 10.7368,7 h 26.5263 v 3.5 h -26.5263 Z "/>
<path id="rect2990" d="m 10.7368,37 h 26.5263 v 3.5 h -26.5263 Z "/>
<g id="g7">
<path id="path841" d="m 3,3 v 42 h 9 v -42 h -9 z  m 2,3 h 5 v 5 h -5 v -5 z  m 0,15 h 5 v 5 h -5 v -5 z  m 0,15 h 5 v 5 h -5 v -5 z "/>
<path id="path833" d="m 36,3 v 42 h 9 v -42 h -9 z  m 2,3 h 5 v 5 h -5 v -5 z  m 0,15 h 5 v 5 h -5 v -5 z  m 0,15 h 5 v 5 h -5 v -5 z "/>
</g>
<path id="path4511" d="m 10.7368,22 h 26.5263 v 3.5 h -26.5263 Z "/>
</g>
</g>
</g>
<path id="path4543" d="m 30.802711,28.003871 -2.3359,3.4805 v 1.28906 h 2.58594 v 1.0625 h 1.42188 v -1.0625 h 0.832032 v -1.08984 h -0.832032 v -3.67969 h -1.67188 z m 0.25,1.2383 v 2.44141 h -1.64844 l 1.6484,-2.4414 z m -13.625,0.1133 c -0.268225,0 -0.514327,0.0625 -0.738281,0.1875 -0.221351,0.125 -0.417972,0.311198 -0.589844,0.558593 V 29.46094 h -1.40625 v 4.375 h 1.40625 V 31.6836 c 0,-0.408854 0.07292,-0.722657 0.21875,-0.941406 0.145831,-0.221355 0.352868,-0.332032 0.621094,-0.332032 0.213538,0 0.361982,0.07031 0.445313,0.210938 0.08333,0.138021 0.125,0.449217 0.125,0.933594 v 2.28125 h 1.40625 v -2.14844 c 0.0052,-0.414062 0.07943,-0.730469 0.222656,-0.949219 0.145832,-0.21875 0.351566,-0.328125 0.617187,-0.328125 0.203122,0 0.350263,0.07031 0.441407,0.210938 0.09115,0.138021 0.136718,0.361979 0.136718,0.671875 0,0.06771 -0.0013,0.11979 -0.0039,0.15625 0,0.03646 -0.0013,0.07162 -0.0039,0.105469 v 2.28125 h 1.40625 v -2.66406 c 0,-0.591144 -0.131514,-1.04167 -0.394531,-1.35156 -0.263019,-0.309895 -0.645842,-0.464843 -1.14844,-0.464843 -0.291663,0 -0.559899,0.07161 -0.804687,0.214843 -0.242183,0.140624 -0.451827,0.346355 -0.628907,0.617188 -0.11979,-0.26302 -0.295576,-0.467448 -0.527343,-0.613281 -0.231768,-0.145833 -0.498704,-0.21875 -0.800782,-0.21875 z m 8.4648,0 c -0.304683,0 -0.574222,0.0612 -0.808594,0.183593 -0.234371,0.119791 -0.447919,0.307291 -0.640625,0.5625 V 29.46094 h -1.39844 V 35.5 h 1.39844 v -2.29688 c 0.192706,0.255209 0.406254,0.44401 0.640625,0.566406 0.234372,0.119791 0.503911,0.179688 0.808594,0.179688 0.539051,0 0.981781,-0.213542 1.32812,-0.640625 0.346349,-0.429687 0.519531,-0.98177 0.519531,-1.65625 0,-0.674477 -0.173182,-1.22526 -0.519531,-1.65234 -0.346346,-0.429687 -0.789076,-0.644531 -1.32812,-0.644531 z m -0.5195,1.0156 c 0.299474,0 0.527347,0.109375 0.683594,0.328125 0.158853,0.21875 0.238281,0.536458 0.238281,0.953125 0,0.416667 -0.07943,0.734375 -0.238281,0.953125 -0.156247,0.21875 -0.38412,0.328125 -0.683594,0.328125 -0.299475,0 -0.529949,-0.109375 -0.691406,-0.328125 -0.158851,-0.221354 -0.238282,-0.539062 -0.238282,-0.953125 0,-0.414063 0.07944,-0.730469 0.238282,-0.949219 0.161457,-0.221354 0.391931,-0.332031 0.691406,-0.332031 z"/>
</g>
</svg>
