<svg width="48" version="1.1" xmlns="http://www.w3.org/2000/svg" height="48">
<g id="g3754" transform="matrix(1.1465264,0,0,1.003502,-3.4491073,-0.01867862)">
<path style="fill:#e6e6e6" id="path3756" d="m 7.2856,5.8498 0,36.202 33.4428,.0006 0,-36.1404 z "/>
</g>
<g style="stroke:none;word-spacing:0">
<path style="fill:#b46100;fill-rule:evenodd" id="folderGlyph-6" d="m 4.9043,5.8477 v 36.3086 h 8.61719 v -1.38867 h 21.0449 v 1.38867 h 8.67969 v -36.3086 l -8.6797,-0 v 1.94141 h -21.0449 l -0,-1.9414 h -8.61719 z  m 1.9043,3.6172 h 3.83984 v 3.63672 h -3.83984 v -3.63672 z  m 30.6934,0 h 3.80859 v 3.63672 h -3.80859 v -3.63672 z  m -24.043,.877 h 21.0449 v 12.7754 h -21.0449 l -0,-12.7754 z  m -6.6504,11.8223 h 3.83984 v 3.61719 h -3.83984 v -3.61719 z  m 30.6934,0 h 3.80859 v 3.61719 h -3.80859 v -3.61719 z  m -24.043,3.4414 h 21.0449 v 12.6094 h -21.0449 l -0,-12.6094 z  m -6.6504,9.2773 h 3.83984 v 3.63672 h -3.83984 v -3.63672 z  m 30.6934,0 h 3.80859 v 3.63672 h -3.80859 v -3.63672 z "/>
<path id="path4148" d="m 21.9042,30.8562 q -0.445312,0 -0.683594,0.328125 -0.234375,0.328125 -0.234375,0.953125 0,0.625 0.234375,0.953125 0.238282,0.328125 0.683594,0.328125 0.449219,0 0.683594,-0.328125 0.238281,-0.328125 0.238281,-0.953125 0,-0.625 -0.238281,-0.953125 -0.234375,-0.328125 -0.683594,-0.328125 z  m .9219,2.832 q -0.289062,0.386719 -0.636719,0.566406 -0.347656,0.179688 -0.804687,0.179688 -0.808594,0 -1.32812,-0.640625 -0.519531,-0.644531 -0.519531,-1.65625 0,-1.01172 0.519531,-1.64844 0.519531,-0.640625 1.32812,-0.640625 0.457031,0 0.804687,0.179688 0.347657,0.179687 0.636719,0.566406 v -0.648437 h 1.40625 v 6.03906 h -1.40625 v -2.29688 z "/>
<path id="path4150" d="m 27.1112,28.7039 0,1.2422 1.4414,0 0,1 -1.4414,0 0,1.8555 q 0,0.304688 0.121094,0.414063 0.121094,0.105469 0.480469,0.105469 h 0.71875 v 1 h -1.19922 q -0.828125,0 -1.17578,-0.34375 -0.34375,-0.347657 -0.34375,-1.17578 v -1.85547 h -0.695313 v -1 h 0.695313 v -1.24219 h 1.39844 z "/>
</g>
</svg>
