<svg width="48" version="1.1" xmlns="http://www.w3.org/2000/svg" height="48">
<path style="fill:#e6e6e6;stroke-width:1.052" id="path3756" d="m 6,6 v 37 h 36 l -.1511,-36.9368 -11.5571,-.0632 Z "/>
<g style="stroke:none">
<g id="g5">
<path style="fill:#5400b4;fill-rule:evenodd;stroke-width:1.087" id="rect2988" d="m 5,6 v 37 h 8 v -3 h 22 v 3 h 8 V 6 H 35 V 9 H 13 V 6 Z m 2,3 h 4 v 4 H 7 Z m 30,0 h 4 v 4 H 37 Z M 13,12 H 35 V 23 H 13 Z M 7,22 h 4 v 4 H 7 Z m 30,0 h 4 v 4 H 37 Z M 13,26 H 35 V 37 H 13 Z m -6,9 h 4 v 4 H 7 Z m 30,0 h 4 v 4 h -4 z"/>
<path style="letter-spacing:0" id="path4141" d="m 18.4375,29.293 c -0.755211,0 -1.34635,0.203125 -1.77344,0.609375 -0.424479,0.406253 -0.636719,0.968753 -0.636719,1.6875 0,0.71875 0.21224,1.28125 0.636719,1.6875 0.427087,0.40625 1.01823,0.609375 1.77344,0.609375 0.752605,0 1.33984,-0.203125 1.76172,-0.609375 0.42448,-0.406254 0.636719,-0.968754 0.636719,-1.6875 0,-0.71875 -0.212239,-1.28125 -0.636719,-1.6875 -0.421873,-0.40625 -1.00911,-0.609375 -1.76172,-0.609375 z  m 4.9531,.0078 c -0.533855,0 -0.975262,0.209635 -1.32422,0.628906 -0.348957,0.416668 -0.523438,0.951824 -0.523438,1.60547 0,0.651046 0.174481,1.1875 0.523438,1.60938 0.34896,0.419272 0.790364,0.628907 1.32422,0.628906 0.304687,0 0.572917,-0.05989 0.804687,-0.179687 0.231771,-0.119791 0.444012,-0.307291 0.636719,-0.5625 v 0.300781 c 0,0.427084 -0.106771,0.740885 -0.320313,0.941406 -0.213539,0.200522 -0.54948,0.300782 -1.00781,0.300782 -0.236981,0 -0.472656,-0.03516 -0.707031,-0.105469 -0.234375,-0.06771 -0.473958,-0.171875 -0.71875,-0.3125 v 1.08984 c 0.257812,0.08594 0.514324,0.149739 0.769531,0.191406 0.255207,0.04167 0.519531,0.0625 0.792969,0.0625 0.843751,0 1.48698,-0.186198 1.92969,-0.558594 0.445313,-0.369793 0.667969,-0.906248 0.667969,-1.60938 v -3.93358 h -1.40625 v 0.648437 c -0.192707,-0.257812 -0.404948,-0.446615 -0.636719,-0.566406 -0.23177,-0.119792 -0.5,-0.179687 -0.804687,-0.179687 z  m 5.7344,0 c -0.533855,0 -0.975261,0.209635 -1.32422,0.628906 -0.348957,0.416668 -0.523438,0.951824 -0.523438,1.60547 0,0.651046 0.174481,1.1875 0.523438,1.60937 0.348961,0.419272 0.790364,0.628907 1.32422,0.628906 0.304687,0 0.572917,-0.05989 0.804687,-0.179687 0.231771,-0.119791 0.444012,-0.307291 0.636719,-0.5625 v 0.300781 c 0,0.427084 -0.106771,0.740885 -0.320313,0.941406 -0.213539,0.200522 -0.549479,0.300782 -1.00781,0.300782 -0.23698,0 -0.472656,-0.03516 -0.707031,-0.105469 -0.234375,-0.06771 -0.473958,-0.171875 -0.71875,-0.3125 v 1.08984 c 0.257812,0.08594 0.514324,0.149739 0.769531,0.191406 0.255208,0.04167 0.519531,0.0625 0.792969,0.0625 0.843751,0 1.48698,-0.186198 1.92969,-0.558594 0.445313,-0.369793 0.667969,-0.906248 0.667969,-1.60938 v -3.93359 h -1.40625 v 0.648437 c -0.192707,-0.257812 -0.404948,-0.446615 -0.636719,-0.566406 -0.23177,-0.119792 -0.5,-0.179687 -0.804687,-0.179687 z  m -10.6875,.9922 c 0.304687,0 0.53776,0.111979 0.699218,0.335937 0.161458,0.221355 0.242188,0.541667 0.242188,0.960938 0,0.41927 -0.08073,0.740885 -0.242188,0.964843 -0.161458,0.221356 -0.394531,0.332032 -0.699218,0.332032 -0.309896,0 -0.546875,-0.110676 -0.710938,-0.332032 -0.161457,-0.223957 -0.242187,-0.545573 -0.242187,-0.964843 0,-0.419271 0.08073,-0.739583 0.242187,-0.960938 0.164063,-0.223958 0.401042,-0.335937 0.710938,-0.335937 z  m 5.4727,.0156 c 0.291667,0 0.518229,0.106771 0.679687,0.320312 0.161458,0.213542 0.242188,0.515626 0.242188,0.90625 0,0.388022 -0.08073,0.688803 -0.242188,0.902344 -0.161458,0.213542 -0.38802,0.320311 -0.679687,0.320313 -0.299481,0 -0.527344,-0.102865 -0.683594,-0.308594 -0.15625,-0.208334 -0.234375,-0.513021 -0.234375,-0.914063 0,-0.390624 0.08073,-0.692708 0.242188,-0.90625 0.161457,-0.213541 0.386718,-0.320312 0.675781,-0.320312 z  m 5.7344,0 c 0.291668,0 0.518229,0.106771 0.679687,0.320312 0.161458,0.213542 0.242188,0.515626 0.242188,0.90625 0,0.388022 -0.08073,0.688803 -0.242188,0.902344 -0.161458,0.213542 -0.388019,0.320311 -0.679687,0.320313 -0.29948,0 -0.527344,-0.102865 -0.683594,-0.308594 -0.15625,-0.208334 -0.234375,-0.513021 -0.234375,-0.914063 0,-0.390624 0.08073,-0.692708 0.242188,-0.90625 0.161457,-0.213541 0.386718,-0.320312 0.675781,-0.320312 z "/>
</g>
<path style="word-spacing:0;line-height:125%;stroke-width:1.046" id="path4643" d="m 17.373,15.4531 v 3.97266 h 0.914062 v -1.40625 c 0,-0.260427 0.05317,-0.464944 0.16211,-0.611328 0.108937,-0.148085 0.258576,-0.220703 0.449219,-0.220703 0.078289,0 0.149657,0.016741 0.210937,0.050781 0.06125,0.03234 0.108765,0.07715 0.144531,0.136719 0.02719,0.04426 0.046391,0.113414 0.056641,0.207031 0.01192,0.09362 0.017578,0.265411 0.017578,0.515625 v 1.04492 0.283203 h 0.919922 v -1.74219 c 0,-0.386386 -0.0859,-0.680259 -0.257813,-0.882813 -0.170213,-0.202554 -0.421739,-0.302734 -0.751953,-0.302734 -0.187238,0 -0.358776,0.03914 -0.513672,0.119141 -0.154896,0.078299 -0.299629,0.200377 -0.4375,0.367187 v -1.53125 h -0.914062 z  m -2.418,.3008 v 0.8125 h -0.455078 v 0.654297 h 0.455078 v 1.21094 c 0,0.360853 0.074819,0.61804 0.22461,0.769531 0.15149,0.149788 0.406725,0.224609 0.767578,0.224609 h 0.785156 v -0.654297 h -0.470703 c -0.156597,0 -0.261687,-0.022399 -0.314453,-0.068359 -0.05277,-0.04766 -0.078125,-0.138717 -0.078125,-0.271484 v -1.21094 h 0.941406 v -0.654297 h -0.941406 v -0.8125 h -0.914063 z  m 7.5156,.7441 c -0.493621,0 -0.88151,0.133154 -1.16406,0.400391 -0.280852,0.267239 -0.421875,0.633223 -0.421875,1.09961 0,0.474896 0.143733,0.84359 0.429687,1.10742 0.287671,0.262129 0.689587,0.394531 1.20703,0.394531 0.216173,0 0.432265,-0.01994 0.648438,-0.0625 0.216173,-0.04085 0.432264,-0.103848 0.648437,-0.185547 v -0.703125 c -0.212771,0.115743 -0.42049,0.199939 -0.623047,0.257813 -0.200849,0.05617 -0.395548,0.083984 -0.58789,0.083984 -0.238302,0 -0.425827,-0.05096 -0.558594,-0.158203 -0.132796,-0.107236 -0.21032,-0.269905 -0.232422,-0.484375 h 2.13867 v -0.259766 c 0,-0.45277 -0.135612,-0.813344 -0.40625,-1.08398 -0.268936,-0.27064 -0.628761,-0.40625 -1.07812,-0.40625 z  m 3.5332,0 c -0.493614,0 -0.879046,0.132904 -1.1582,0.398437 -0.277443,0.265536 -0.416015,0.631772 -0.416015,1.10156 0,0.469791 0.138572,0.837982 0.416015,1.10352 0.279157,0.265534 0.664589,0.398438 1.1582,0.398438 0.491921,0 0.876603,-0.132904 1.15234,-0.398438 0.277449,-0.265536 0.416016,-0.633725 0.416016,-1.10352 0,-0.469793 -0.138567,-0.836029 -0.416016,-1.10156 -0.275741,-0.265533 -0.660424,-0.398437 -1.15234,-0.398437 z  m 4.1016,0 c -0.212764,0 -0.395634,0.0421 -0.548828,0.128906 -0.151487,0.08511 -0.286847,0.220968 -0.404297,0.408203 v -0.46875 h -0.914063 v 2.85938 h 0.914063 v -1.31836 c 0,-0.280853 0.0635,-0.494743 0.189453,-0.644531 0.127664,-0.15149 0.308077,-0.228516 0.542969,-0.228516 0.08,0 0.159986,0.010577 0.238281,0.029297 0.08,0.01703 0.160232,0.044581 0.240234,0.082031 l -.002,-.8281 c -0.06807,-0.0085 -0.120483,-0.013955 -0.15625,-0.015625 -0.03577,-0.0034 -0.068999,-0.003906 -0.099609,-0.003906 z  m 1.9336,0 c -0.197444,0 -0.394344,0.013532 -0.591796,0.039062 -0.197446,0.02383 -0.392146,0.0578 -0.587891,0.105469 v 0.697266 c 0.144682,-0.0783 0.300238,-0.136634 0.46875,-0.175782 0.168513,-0.039139 0.351129,-0.060546 0.546875,-0.060546 0.241704,0 0.419163,0.03542 0.533203,0.103515 0.114048,0.06639 0.169922,0.171723 0.169922,0.316407 v 0.070312 h -0.539063 c -0.493621,0 -0.854447,0.07973 -1.08594,0.236328 -0.229788,0.156596 -0.345703,0.40296 -0.345703,0.738281 0,0.275747 0.09156,0.50021 0.27539,0.673829 0.185532,0.171904 0.428435,0.257812 0.72461,0.257812 0.219575,0 0.405399,-0.04084 0.558594,-0.119141 0.153188,-0.08 0.289549,-0.205287 0.412109,-0.378906 v 0.423828 h 0.921875 v -1.63086 c 0,-0.457875 -0.113961,-0.787681 -0.34375,-0.990234 -0.228088,-0.204257 -0.601436,-0.306641 -1.11719,-0.306641 z  m -9.5723,.6055 c 0.163409,0 0.294108,0.05488 0.394531,0.162109 0.102122,0.105532 0.154297,0.24435 0.154297,0.417969 h -1.1875 c 0.02723,-0.187236 0.09639,-0.329011 0.207031,-0.427735 0.110645,-0.100428 0.254623,-0.152343 0.431641,-0.152343 z  m 3.5371,.0469 c 0.199154,0 0.351496,0.07237 0.457032,0.21875 0.105526,0.144682 0.160156,0.354862 0.160156,0.628906 0,0.274045 -0.054641,0.484476 -0.160156,0.630859 -0.105535,0.144682 -0.257878,0.216797 -0.457032,0.216797 -0.202549,0 -0.355654,-0.07211 -0.46289,-0.216797 -0.105534,-0.146383 -0.160157,-0.356814 -0.160157,-0.630859 0,-0.274044 0.05463,-0.484224 0.160157,-0.628906 0.107236,-0.146384 0.26034,-0.21875 0.46289,-0.21875 z  m 6.1016,.9902 h 0.472656 v 0.103516 c 0,0.185533 -0.05833,0.338634 -0.175781,0.46289 -0.11745,0.122554 -0.261679,0.183594 -0.433594,0.183594 -0.13787,0 -0.245917,-0.031023 -0.324219,-0.095703 -0.07659,-0.06639 -0.115234,-0.157692 -0.115234,-0.273438 0,-0.12596 0.04726,-0.220477 0.142578,-0.285156 0.09702,-0.06468 0.242959,-0.095703 0.433594,-0.095703 z "/>
</g>
</svg>
