<svg width="48" version="1.1" xmlns="http://www.w3.org/2000/svg" height="48">
<g id="g3754" transform="matrix(1.1465264,0,0,1.003502,-3.4491073,-0.01867862)">
<path style="fill:#e6e6e6" id="path3756" d="m 7.2856,5.8502 -0,36.2022 33.4427,-.0002 v -36.1402 z "/>
</g>
<g style="stroke:none;line-height:125%" id="g6">
<path style="fill-rule:evenodd" id="folderGlyph-6" d="m 4.904,5.8477 .0003,36.3086 8.6172,0 0,-1.3887 21.0449,0 0,1.3887 8.6797,0 0,-36.3086 -8.6797,0 0,1.9414 -21.0449,0 0,-1.9414 z  m 1.9046,3.6172 3.8398,0 0,3.6367 -3.8398,0 z  m 30.6934,0 3.8086,0 0,3.6367 -3.8086,0 z  m -24.043,.877 21.0449,0 0,12.7754 -21.0449,0 z  m -6.6504,11.8223 3.8398,0 0,3.6172 -3.8398,0 z  m 30.6934,0 3.8086,0 0,3.6172 -3.8086,0 z  m -24.043,3.4414 21.0449,0 0,12.6094 -21.0449,0 z  m -6.6504,9.2773 3.8398,0 0,3.6367 -3.8398,0 z  m 30.6934,0 3.8086,0 0,3.6367 -3.8086,0 z "/>
<path id="path4148" d="m 14.8906,32.6725 1.3984,0 1.0898,3.0234 1.0859,-3.0234 1.4023,0 -1.7227,4.375 -1.5352,0 -1.7188,-4.375 z "/>
<path id="path4150" d="m 20.6602,32.6725 1.3984,0 0,4.375 -1.3984,0 0,-4.375 z  m 0,-1.7031 1.3984,0 0,1.1406 -1.3984,0 0,-1.1406 z "/>
<path id="path4152" d="m 22.8594,32.6725 1.3984,0 1.0898,3.0234 1.0859,-3.0234 1.4023,0 -1.7227,4.375 -1.5352,0 -1.7188,-4.375 z "/>
<path id="path4154" d="m 30.7109,33.567 q -0.464843,0 -0.710937,0.335937 -0.242188,0.332032 -0.242188,0.960938 0,0.628906 0.242188,0.964844 0.246094,0.332031 0.710937,0.332031 0.457032,0 0.699219,-0.332031 0.242188,-0.335938 0.242188,-0.964844 0,-0.628906 -0.242188,-0.960938 -0.242187,-0.335937 -0.699219,-0.335937 z  m 0,-1 q 1.12891,0 1.76172,0.609375 0.636719,0.609375 0.636719,1.6875 0,1.07812 -0.636719,1.6875 -0.632812,0.609375 -1.76172,0.609375 -1.13281,0 -1.77344,-0.609375 -0.636719,-0.609375 -0.636719,-1.6875 0,-1.07812 0.636719,-1.6875 0.640625,-0.609375 1.77344,-0.609375 z "/>
</g>
</svg>
