<svg width="48" version="1.1" xmlns="http://www.w3.org/2000/svg" height="48">
<g style="stroke:none">
<g style="fill-rule:evenodd" id="g10">
<rect width="40" x="4" y="3" height="42" style="fill:#e6e6e6" id="rect867"/>
<g id="g854">
<path id="rect2988" d="m 10.7368,7 h 26.5263 v 3.5 h -26.5263 Z "/>
<path id="rect2990" d="m 10.7368,37 h 26.5263 v 3.5 h -26.5263 Z "/>
<g id="g7">
<path id="path841" d="m 3,3 v 42 h 9 v -42 h -9 z  m 2,3 h 5 v 5 h -5 v -5 z  m 0,15 h 5 v 5 h -5 v -5 z  m 0,15 h 5 v 5 h -5 v -5 z "/>
<path id="path833" d="m 36,3 v 42 h 9 v -42 h -9 z  m 2,3 h 5 v 5 h -5 v -5 z  m 0,15 h 5 v 5 h -5 v -5 z  m 0,15 h 5 v 5 h -5 v -5 z "/>
</g>
<path id="path4511" d="m 10.7368,22 h 26.5263 v 3.5 h -26.5263 Z "/>
</g>
</g>
<g>
<g style="text-indent:0" id="g936" transform="translate(0,-1.25002)">
<path style="fill:#f00" id="rect3773" d="m 18.75,12.25 h 5.02172 v 5.02172 H 18.75 Z"/>
<path style="fill:#51ff00" id="rect3775" d="m 24.2282,12.25 h 5.02172 v 5.02172 H 24.2282 Z"/>
<path style="fill:#53a8ff" id="rect3777" d="m 18.75,17.7283 h 5.02172 v 5.02172 H 18.75 Z"/>
<path style="fill:#fffd00" id="rect3779" d="m 24.2282,17.7283 h 5.02172 v 5.02172 H 24.2282 Z"/>
</g>
<path style="text-transform:none" id="path4159" d="m 28.777331,27.808544 v 1.14062 h 1.39844 v -1.14062 z m -8.7617,1.5977 c -0.302083,0 -0.604167,0.01953 -0.90625,0.05859 -0.302083,0.03646 -0.602864,0.09115 -0.902344,0.164062 v 1.06641 c 0.221354,-0.119794 0.460938,-0.209637 0.71875,-0.269531 0.257813,-0.05989 0.536458,-0.08984 0.835938,-0.08984 0.369791,0 0.641927,0.05208 0.816406,0.15625 0.174479,0.101561 0.261719,0.26302 0.261719,0.484374 v 0.109376 h -0.824219 c -0.755207,0 -1.3099,0.119791 -1.66406,0.359374 -0.351562,0.239588 -0.527343,0.615886 -0.527343,1.12891 0,0.421874 0.140625,0.765624 0.421875,1.03125 C 18.529958,33.868489 18.898447,34 19.351573,34 c 0.335939,0 0.621095,-0.0599 0.855469,-0.179688 0.234376,-0.122396 0.445313,-0.316405 0.632813,-0.582031 v 0.648438 h 1.41016 v -2.49609 c 0,-0.700518 -0.175781,-1.20573 -0.527344,-1.51562 -0.34896,-0.3125 -0.917971,-0.46875 -1.70703,-0.46875 z m 2.9922,0.1055 1.7188,4.375 h 1.53516 l 1.7227,-4.375 h -1.402339 l -1.0859,3.0234 -1.0898,-3.0234 h -1.39844 z m 5.7695,0 v 4.375 h 1.39844 v -4.375 z m -8.6641,2.4062 h 0.726563 V 32.0781 c 0,0.283854 -0.08984,0.520834 -0.269532,0.710937 -0.179687,0.1875 -0.401041,0.28125 -0.664062,0.28125 -0.210937,0 -0.376302,-0.04948 -0.496094,-0.148437 -0.117187,-0.101563 -0.175781,-0.240885 -0.175781,-0.417969 0,-0.192708 0.07292,-0.338541 0.21875,-0.4375 0.148437,-0.09896 0.36849,-0.148437 0.660156,-0.148437 z"/>
</g>
</g>
</svg>
