<svg width="48" version="1.1" xmlns="http://www.w3.org/2000/svg" height="48">
<rect width="40" x="4" y="3" height="42" style="fill:#e6e6e6;fill-rule:evenodd;stroke:none" id="rect867"/>
<g style="fill-rule:evenodd;stroke:none" id="g854">
<path id="rect2988" d="m 10.7368,7 h 26.5263 v 3.5 h -26.5263 Z "/>
<path id="rect2990" d="m 10.7368,37 h 26.5263 v 3.5 h -26.5263 Z "/>
<g>
<path id="path841" d="m 3,3 v 42 h 9 v -42 h -9 z  m 2,3 h 5 v 5 h -5 v -5 z  m 0,15 h 5 v 5 h -5 v -5 z  m 0,15 h 5 v 5 h -5 v -5 z "/>
<path id="path833" d="m 36,3 v 42 h 9 v -42 h -9 z  m 2,3 h 5 v 5 h -5 v -5 z  m 0,15 h 5 v 5 h -5 v -5 z  m 0,15 h 5 v 5 h -5 v -5 z "/>
</g>
<path id="path4511" d="m 10.7368,22 h 26.5263 v 3.5 h -26.5263 Z "/>
</g>
</svg>
