<svg width="48" version="1.1" xmlns="http://www.w3.org/2000/svg" height="48">
<g id="g3754" transform="matrix(1.1465264,0,0,1.003502,-3.4491073,-0.01867862)">
<path style="fill:#e6e6e6" id="path3756" d="m 7.2856,5.8498 0,36.202 33.4419,.0006 0,-36.1404 z "/>
</g>
<g style="stroke:none;letter-spacing:0">
<path style="fill:#5400b4;fill-rule:evenodd" id="folderGlyph-6" d="m 4.904,5.8477 .0003,36.3086 8.6172,0 0,-1.3887 21.0449,0 0,1.3887 8.6797,0 -.0001,-36.3086 -8.6796,0 c 0.03886,0.646005 0.01527,1.29395 0.0059,1.94141 h -21.1797 c -0.02967,-0.480737 0.128796,-1.30601 0.128906,-1.94141 z  m 1.9046,3.6172 3.8398,0 0,3.6367 -3.8398,0 z  m 30.6934,0 3.8086,0 0,3.6367 -3.8086,0 z  m -24.043,.877 21.0449,0 0,12.7754 -21.0449,0 z  m -6.6504,11.8223 3.8398,0 0,3.6172 -3.8398,0 z  m 30.6934,0 3.8086,0 0,3.6172 -3.8086,0 z  m -24.043,3.4414 21.0449,0 0,12.6094 -21.0449,0 z  m -6.6504,9.2773 3.8398,0 0,3.6367 -3.8398,0 z  m 30.6934,0 3.8086,0 0,3.6367 -3.8086,0 z "/>
<path id="path4141" d="m 18.4375,30.6069 q -0.464844,0 -0.710938,0.335937 -0.242187,0.332032 -0.242187,0.960938 0,0.628906 0.242187,0.964844 0.246094,0.332031 0.710938,0.332031 0.457031,0 0.699219,-0.332031 0.242187,-0.335938 0.242187,-0.964844 0,-0.628906 -0.242187,-0.960938 -0.242188,-0.335937 -0.699219,-0.335937 Z  m 0,-1 q 1.12891,0 1.76172,0.609375 0.636718,0.609375 0.636718,1.6875 0,1.07812 -0.636718,1.6875 -0.632813,0.609375 -1.76172,0.609375 -1.13281,0 -1.77344,-0.609375 -0.636718,-0.609375 -0.636718,-1.6875 0,-1.07812 0.636718,-1.6875 0.640625,-0.609375 1.77344,-0.609375 z "/>
<path id="path4143" d="m 24.832,33.3452 q -0.289062,0.382813 -0.636719,0.5625 -0.347656,0.179688 -0.804687,0.179688 -0.800781,0 -1.32422,-0.628907 -0.523437,-0.632812 -0.523437,-1.60938 0,-0.980468 0.523437,-1.60547 0.523438,-0.628907 1.32422,-0.628907 0.457031,0 0.804687,0.179688 0.347657,0.179687 0.636719,0.566406 v -0.648437 h 1.40625 v 3.93359 q 0,1.05469 -0.667969,1.60938 -0.664062,0.558594 -1.92969,0.558594 -0.410156,0 -0.792969,-0.0625 -0.382812,-0.0625 -0.769531,-0.191406 v -1.08984 q 0.367187,0.210938 0.71875,0.3125 0.351562,0.105469 0.707031,0.105469 0.6875,0 1.00781,-0.300781 0.320312,-0.300782 0.320312,-0.941407 v -0.300781 z  m -.9219,-2.7227 q -0.433594,0 -0.675781,0.320312 -0.242188,0.320313 -0.242188,0.90625 0,0.601563 0.234375,0.914063 0.234375,0.308594 0.683594,0.308594 0.4375,0 0.679688,-0.320313 0.242187,-0.320312 0.242187,-0.902344 0,-0.585937 -0.242187,-0.90625 -0.242188,-0.320312 -0.679688,-0.320312 z "/>
<path id="path4145" d="m 30.5664,33.3452 q -0.289062,0.382813 -0.636719,0.5625 -0.347656,0.179688 -0.804687,0.179688 -0.800781,0 -1.32422,-0.628907 -0.523437,-0.632812 -0.523437,-1.60938 0,-0.980468 0.523437,-1.60547 0.523438,-0.628907 1.32422,-0.628907 0.457031,0 0.804687,0.179688 0.347657,0.179687 0.636719,0.566406 v -0.648437 h 1.40625 v 3.93359 q 0,1.05469 -0.667969,1.60938 -0.664062,0.558594 -1.92969,0.558594 -0.410156,0 -0.792969,-0.0625 -0.382812,-0.0625 -0.769531,-0.191406 v -1.08984 q 0.367187,0.210938 0.71875,0.3125 0.351562,0.105469 0.707031,0.105469 0.6875,0 1.00781,-0.300781 0.320312,-0.300782 0.320312,-0.941407 v -0.300781 z  m -.9219,-2.7227 q -0.433594,0 -0.675781,0.320312 -0.242188,0.320313 -0.242188,0.90625 0,0.601563 0.234375,0.914063 0.234375,0.308594 0.683594,0.308594 0.4375,0 0.679688,-0.320313 0.242187,-0.320312 0.242187,-0.902344 0,-0.585937 -0.242187,-0.90625 -0.242188,-0.320312 -0.679688,-0.320312 z "/>
</g>
</svg>
