<svg width="48" version="1.1" xmlns="http://www.w3.org/2000/svg" height="48">
<g style="stroke:none">
<g style="fill-rule:evenodd" id="g10">
<rect width="40" x="4" y="3" height="42" style="fill:#e6e6e6" id="rect867"/>
<g id="g854">
<path id="rect2988" d="m 10.7368,7 h 26.5263 v 3.5 H 10.7368 Z"/>
<path id="rect2990" d="m 10.7368,37 h 26.5263 v 3.5 H 10.7368 Z"/>
<g id="g7">
<path id="path841" d="m 3,3 v 42 h 9 V 3 Z m 2,3 h 5 v 5 H 5 Z m 0,15 h 5 v 5 H 5 Z m 0,15 h 5 v 5 H 5 Z"/>
<path id="path833" d="m 36,3 v 42 h 9 V 3 Z m 2,3 h 5 v 5 h -5 z m 0,15 h 5 v 5 h -5 z m 0,15 h 5 v 5 h -5 z"/>
</g>
<path id="path4511" d="m 10.7368,22 h 26.5263 v 3.5 H 10.7368 Z"/>
</g>
</g>
<g>
<g id="g936" transform="translate(0,-1.25002)">
<path style="fill:#f00" id="rect3773" d="m 18.75,12.25 h 5.02172 v 5.02172 H 18.75 Z"/>
<path style="fill:#51ff00" id="rect3775" d="m 24.2282,12.25 h 5.02172 v 5.02172 H 24.2282 Z"/>
<path style="fill:#53a8ff" id="rect3777" d="m 18.75,17.7283 h 5.02172 v 5.02172 H 18.75 Z"/>
<path style="fill:#fffd00" id="rect3779" d="m 24.2282,17.7283 h 5.02172 v 5.02172 H 24.2282 Z"/>
</g>
<path id="path4157" d="m 29.6191,28.3085 c -0.557295,0 -0.96875,0.114583 -1.23438,0.34375 -0.265625,0.226564 -0.398438,0.578125 -0.398438,1.05469 v 0.304688 h -0.695312 v 1 h 0.695312 v 3.375 h 1.39844 v -3.375 h 1.19531 v -1 h -1.19531 v -0.304688 c 0,-0.177083 0.03906,-0.300781 0.117187,-0.371093 0.07813,-0.07292 0.216146,-0.109376 0.414063,-0.109376 h 0.773437 v -0.917968 h -1.07031 z  m -10.1172,1.5977 c -0.302083,0 -0.604167,0.01953 -0.90625,0.05859 -0.302083,0.03646 -0.602864,0.09115 -0.902344,0.164062 v 1.06641 c 0.221354,-0.119793 0.460938,-0.209637 0.71875,-0.269531 0.257813,-0.05989 0.536459,-0.08984 0.835938,-0.08984 0.369791,0 0.641927,0.05208 0.816406,0.15625 0.174479,0.101562 0.261719,0.263021 0.261719,0.484374 v 0.109376 h -0.824219 c -0.755207,0 -1.3099,0.119791 -1.66406,0.359374 -0.351562,0.239586 -0.527344,0.615886 -0.527344,1.12891 0,0.421874 0.140625,0.765624 0.421875,1.03125 0.283855,0.26302 0.652344,0.394531 1.10547,0.394531 0.335938,0 0.621094,-0.0599 0.855468,-0.179688 0.234376,-0.122395 0.445313,-0.316405 0.632813,-0.582031 v 0.648438 h 1.41016 v -2.49609 c 0,-0.700518 -0.175781,-1.20573 -0.527344,-1.51562 -0.34896,-0.3125 -0.917971,-0.46875 -1.70703,-0.46875 z  m 5.2227,0 c -0.656252,0 -1.14323,0.111979 -1.46094,0.335938 -0.317709,0.223958 -0.476563,0.567707 -0.476563,1.03125 0,0.429687 0.125,0.75 0.375,0.960937 0.249998,0.210937 0.686198,0.355468 1.30859,0.433594 l .2461,.0312 c 0.283854,0.03385 0.472656,0.08203 0.566406,0.144531 0.09635,0.0599 0.144531,0.152344 0.144531,0.277344 0,0.148437 -0.06901,0.260417 -0.207031,0.335937 -0.138021,0.07552 -0.343749,0.113281 -0.617187,0.113281 -0.302084,0 -0.600261,-0.03385 -0.894532,-0.101562 -0.291666,-0.06771 -0.576822,-0.169271 -0.855468,-0.304688 v 1.0625 c 0.325521,0.09114 0.641927,0.158852 0.949218,0.203126 0.309896,0.04687 0.609375,0.07031 0.898438,0.07031 0.68229,0 1.19531,-0.117188 1.53906,-0.351562 0.34375,-0.234375 0.515625,-0.584636 0.515625,-1.05078 0,-0.445312 -0.123697,-0.772135 -0.371093,-0.980468 -0.247394,-0.208334 -0.729166,-0.358073 -1.44531,-0.449219 l -.2461,-.0352 c -0.252604,-0.02865 -0.428385,-0.07292 -0.527343,-0.132812 -0.09635,-0.0599 -0.144532,-0.145834 -0.144532,-0.257812 0,-0.138019 0.0638,-0.239581 0.191407,-0.304688 0.130208,-0.06771 0.328125,-0.101562 0.59375,-0.101562 0.247396,0 0.510416,0.03125 0.789062,0.09375 0.278646,0.0625 0.567709,0.15625 0.867188,0.28125 v -1.0625 c -0.333334,-0.08334 -0.641928,-0.144534 -0.925782,-0.183594 -0.283854,-0.03906 -0.554687,-0.05859 -0.8125,-0.05859 z  m -5.125,2.5117 h 0.726562 v 0.160227 c 0,0.283854 -0.08984,0.520834 -0.269531,0.710937 -0.179688,0.1875 -0.401042,0.28125 -0.664063,0.28125 -0.210937,0 -0.376302,-0.04948 -0.496094,-0.148437 -0.117187,-0.101563 -0.175781,-0.240885 -0.175781,-0.417969 0,-0.192708 0.07292,-0.338541 0.21875,-0.4375 0.148437,-0.09896 0.36849,-0.148437 0.660156,-0.148437 z "/>
</g>
</g>
</svg>
