<svg width="48" version="1.1" xmlns="http://www.w3.org/2000/svg" height="48">
<g id="g3754" transform="matrix(1.1465264,0,0,1.003502,-3.4491073,-0.01867862)">
<path style="fill:#e6e6e6" id="path3756" d="m 7.2856,5.8502 -0,36.202 33.4427,.0002 0,-36.1404 z "/>
</g>
<g style="stroke:none;line-height:125%;letter-spacing:0" id="g6">
<path style="fill-rule:evenodd" id="folderGlyph-6" d="m 4.904,5.8477 .0003,36.3086 8.6172,0 0,-1.3887 21.0449,0 0,1.3887 8.6797,0 0,-36.3086 -8.6797,0 0,1.9414 -21.0449,0 0,-1.9414 z  m 1.9046,3.6172 3.8398,0 0,3.6367 -3.8398,0 z  m 30.6934,0 3.8086,0 0,3.6367 -3.8086,0 z  m -24.043,.877 21.0449,0 0,12.7754 -21.0449,0 z  m -6.6504,11.8223 3.8398,0 0,3.6172 -3.8398,0 z  m 30.6934,0 3.8086,0 0,3.6172 -3.8086,0 z  m -24.043,3.4414 21.0449,0 0,12.6094 -21.0449,0 z  m -6.6504,9.2773 3.8398,0 0,3.6367 -3.8398,0 z  m 30.6934,0 3.8086,0 0,3.6367 -3.8086,0 z "/>
<path id="path4153" d="m 13.6636,32.6725 1.3594,0 .7344,3.0156 .7383,-3.0156 1.168,0 .7344,2.9844 .7383,-2.9844 1.3594,0 -1.1523,4.375 -1.5273,0 -.7383,-3.0078 -.7344,3.0078 -1.5273,0 -1.1523,-4.375 z "/>
<path id="path4155" d="m 25.812,34.8483 0,.3984 -3.2695,0 q 0.05078,0.492188 0.355469,0.738282 0.304688,0.246093 0.851563,0.246093 0.441406,0 0.902343,-0.128906 0.464844,-0.132812 0.953125,-0.398437 v 1.07812 q -0.496093,0.1875 -0.992187,0.28125 -0.496094,0.09766 -0.992188,0.09766 -1.1875,0 -1.84766,-0.601563 -0.65625,-0.605468 -0.65625,-1.69531 0,-1.07031 0.644531,-1.68359 0.648438,-0.613281 1.78125,-0.613281 1.03125,0 1.64844,0.621094 0.621094,0.621093 0.621094,1.66016 z  m -1.4375,-.4648 q 0,-0.398437 -0.234375,-0.640625 -0.230469,-0.246094 -0.605469,-0.246094 -0.40625,0 -0.660156,0.230469 -0.253907,0.226563 -0.316407,0.65625 h 1.81641 z "/>
<path id="path4157" d="m 29.1948,36.1452 q 0.449219,0 0.683594,-0.328125 0.238281,-0.328125 0.238281,-0.953125 0,-0.625 -0.238281,-0.953125 -0.234375,-0.328125 -0.683594,-0.328125 -0.449219,0 -0.691406,0.332031 -0.238281,0.328125 -0.238281,0.949219 0,0.621094 0.238281,0.953125 0.242187,0.328125 0.691406,0.328125 z  m -.9297,-2.832 q 0.289062,-0.382813 0.640625,-0.5625 0.351562,-0.183594 0.808593,-0.183594 0.808594,0 1.32812,0.644531 0.519532,0.640625 0.519532,1.65234 0,1.01172 -0.519532,1.65625 -0.519531,0.640625 -1.32812,0.640625 -0.457031,0 -0.808593,-0.179688 -0.351563,-0.183593 -0.640625,-0.566406 v 0.632813 h -1.39844 v -6.07812 h 1.39844 v 2.34375 z "/>
<path id="path4160" d="m 31.4499,30.6064 -.912,.028 0,.204 .064,0 c 0.244,0 0.256,0.02 0.256,0.376 v 0.708 0.184 c 0,0.164 -0.044,0.188 -0.3,0.188 h -0.02 v 0.204 h 1.18 v -0.204 c -0.204,-0.004 -0.232,-0.028 -0.232,-0.184 v -0.188 -0.536 c 0,-0.284 0.144,-0.468 0.364,-0.468 0.156,0 0.22,0.108 0.22,0.372 v 0.632 0.184 c 0,0.16 -0.028,0.184 -0.228,0.188 v 0.204 h 1.088 v -0.204 c -0.204,-0.004 -0.232,-0.028 -0.232,-0.184 v -0.188 -0.536 c 0,-0.284 0.14,-0.468 0.364,-0.468 0.152,0 0.22,0.108 0.22,0.356 v 0.648 0.188 c 0,0.156 -0.028,0.18 -0.232,0.184 v 0.204 h 1.176 v -0.204 h -0.016 c -0.256,0 -0.3,-0.028 -0.3,-0.184 v -0.188 -0.796 c 0,-0.328 -0.272,-0.58 -0.628,-0.58 -0.256,0 -0.44,0.104 -0.628,0.36 -0.084,-0.224 -0.296,-0.36 -0.564,-0.36 -0.268,0 -0.48,0.124 -0.64,0.376 v -0.316 z "/>
</g>
</svg>
