<svg width="48" version="1.1" xmlns="http://www.w3.org/2000/svg" height="48">
<g style="stroke:none">
<g style="fill-rule:evenodd" id="g10">
<rect width="40" x="4" y="3" height="42" style="fill:#e6e6e6" id="rect867"/>
<g id="g854">
<path id="rect2988" d="m 10.7368,7 h 26.5263 v 3.5 H 10.7368 Z"/>
<path id="rect2990" d="m 10.7368,37 h 26.5263 v 3.5 H 10.7368 Z"/>
<g id="g7">
<path id="path841" d="m 3,3 v 42 h 9 V 3 Z m 2,3 h 5 v 5 H 5 Z m 0,15 h 5 v 5 H 5 Z m 0,15 h 5 v 5 H 5 Z"/>
<path id="path833" d="m 36,3 v 42 h 9 V 3 Z m 2,3 h 5 v 5 h -5 z m 0,15 h 5 v 5 h -5 z m 0,15 h 5 v 5 h -5 z"/>
</g>
<path id="path4511" d="m 10.7368,22 h 26.5263 v 3.5 H 10.7368 Z"/>
</g>
</g>
<path id="path4744" d="m 21.989231,26.04064 c -0.63,0 -1.17502,0.335469 -1.79102,1.10547 -0.532,-0.266 -1.16295,-0.406249 -1.87695,-0.40625 -1.918,0 -3.30469,1.00853 -3.30469,2.39453 0,0.938 0.533016,1.62461 1.54102,1.97461 -1.092,0.196 -1.625,0.643094 -1.625,1.37109 0,0.616 0.463391,1.07873 1.27539,1.30273 -0.938,0.14 -1.48438,0.588094 -1.48438,1.24609 0,0.924 1.13402,1.37109 3.41602,1.37109 2.604,0 4.06055,-0.826219 4.06055,-2.32422 0,-0.784 -0.46211,-1.44039 -1.16211,-1.65039 -0.462,-0.154 -1.07794,-0.210937 -2.08594,-0.210937 h -0.966797 c -0.742,0 -0.910156,-0.07025 -0.910156,-0.40625 0,-0.35 0.252453,-0.460938 1.06445,-0.460938 h 0.251953 c 0.924,0 1.44261,-0.08394 1.97461,-0.335937 0.812,-0.378 1.28711,-1.09327 1.28711,-1.94727 0,-0.658 -0.223844,-1.07803 -0.839844,-1.58203 0.182,-0.252 0.349577,-0.390625 0.517578,-0.390625 0.042,0 0.07031,0.01236 0.07031,0.06836 v 0.05664 c 0,0.322 0.377859,0.630859 0.755859,0.630859 0.49,0 0.869141,-0.392484 0.869141,-0.896484 0,-0.546 -0.42111,-0.910156 -1.03711,-0.910156 z m -3.625,1.4277 c 0.672,0 1.02148,0.560999 1.02148,1.625 0,0.993999 -0.37911,1.58203 -1.03711,1.58203 -0.42,0 -0.685844,-0.155859 -0.839844,-0.505859 -0.153999,-0.308 -0.222656,-0.712156 -0.222656,-1.16016 0,-1.022 0.364125,-1.54102 1.07812,-1.54102 z m 9.5469,2.2539 v 6.07812 h 0.71875 v -6.07812 z m 4.1055,1.5977 c -0.682291,0 -1.22005,0.204427 -1.61328,0.613281 -0.390625,0.408853 -0.585938,0.970054 -0.585938,1.68359 0,0.703124 0.194011,1.26172 0.582032,1.67578 0.388018,0.414063 0.909504,0.621094 1.56836,0.621094 0.242187,0 0.470052,-0.02344 0.683594,-0.07031 0.216146,-0.04687 0.424479,-0.117187 0.625,-0.210937 v -0.664063 c -0.203125,0.111977 -0.407552,0.196613 -0.613282,0.253906 -0.203124,0.05469 -0.408854,0.08203 -0.617187,0.08203 -0.466147,0 -0.828125,-0.147135 -1.08594,-0.441407 -0.257812,-0.296872 -0.386718,-0.712239 -0.386718,-1.24609 0,-0.533856 0.128906,-0.947917 0.386718,-1.24219 0.257814,-0.296875 0.619792,-0.445312 1.08594,-0.445312 0.208333,0 0.414063,0.02864 0.617187,0.08594 0.20573,0.05469 0.410157,0.138021 0.613282,0.25 v -0.671875 c -0.197386,-0.09075 -0.400997,-0.158979 -0.611329,-0.203125 -0.210937,-0.04687 -0.427083,-0.07031 -0.648437,-0.07031 z m -9.3555,0.1055 1.6406,4.375 h 0.976563 l 1.6406,-4.375 h -0.761719 l -1.3672,3.6719 -1.3672,-3.6719 h -0.761719 z m -5.5996,2.75 h 1.83398 c 0.868,0 1.03544,0.02764 1.27344,0.181641 0.126,0.084 0.210937,0.278937 0.210937,0.460938 0,0.573999 -0.700578,0.853516 -2.14258,0.853515 -1.078,0 -1.69336,-0.292547 -1.69336,-0.810547 0,-0.308 0.167578,-0.531547 0.517578,-0.685547 z"/>
</g>
</svg>
