<svg width="48" version="1.1" xmlns="http://www.w3.org/2000/svg" height="48">
<path style="fill:#e6e6e6;stroke-width:1.052" id="path3756" d="m 6,6 v 37 h 36 l -.1511,-36.9368 -11.5571,-.0632 Z "/>
<g style="stroke:none">
<path style="fill:#5400b4;fill-rule:evenodd;stroke-width:1.087" id="rect2988" d="m 5,6 v 37 h 8 v -3 h 22 v 3 h 8 V 6 H 35 V 9 H 13 V 6 Z m 2,3 h 4 v 4 H 7 Z m 30,0 h 4 v 4 H 37 Z M 13,12 H 35 V 23 H 13 Z M 7,22 h 4 v 4 H 7 Z m 30,0 h 4 v 4 H 37 Z M 13,26 H 35 V 37 H 13 Z m -6,9 h 4 v 4 H 7 Z m 30,0 h 4 v 4 h -4 z"/>
<path style="letter-spacing:0" id="path4141" d="m 18.4375,29.293 c -0.755211,0 -1.34635,0.203125 -1.77344,0.609375 -0.424479,0.406253 -0.636719,0.968753 -0.636719,1.6875 0,0.71875 0.21224,1.28125 0.636719,1.6875 0.427087,0.40625 1.01823,0.609375 1.77344,0.609375 0.752605,0 1.33984,-0.203125 1.76172,-0.609375 0.42448,-0.406254 0.636719,-0.968754 0.636719,-1.6875 0,-0.71875 -0.212239,-1.28125 -0.636719,-1.6875 -0.421873,-0.40625 -1.00911,-0.609375 -1.76172,-0.609375 z  m 4.9531,.0078 c -0.533855,0 -0.975262,0.209635 -1.32422,0.628906 -0.348957,0.416668 -0.523438,0.951824 -0.523438,1.60547 0,0.651046 0.174481,1.1875 0.523438,1.60938 0.34896,0.419272 0.790364,0.628907 1.32422,0.628906 0.304687,0 0.572917,-0.05989 0.804687,-0.179687 0.231771,-0.119791 0.444012,-0.307291 0.636719,-0.5625 v 0.300781 c 0,0.427084 -0.106771,0.740885 -0.320313,0.941406 -0.213539,0.200522 -0.54948,0.300782 -1.00781,0.300782 -0.236981,0 -0.472656,-0.03516 -0.707031,-0.105469 -0.234375,-0.06771 -0.473958,-0.171875 -0.71875,-0.3125 v 1.08984 c 0.257812,0.08594 0.514324,0.149739 0.769531,0.191406 0.255207,0.04167 0.519531,0.0625 0.792969,0.0625 0.843751,0 1.48698,-0.186198 1.92969,-0.558594 0.445313,-0.369793 0.667969,-0.906248 0.667969,-1.60938 v -3.93358 h -1.40625 v 0.648437 c -0.192707,-0.257812 -0.404948,-0.446615 -0.636719,-0.566406 -0.23177,-0.119792 -0.5,-0.179687 -0.804687,-0.179687 z  m 5.7344,0 c -0.533855,0 -0.975261,0.209635 -1.32422,0.628906 -0.348957,0.416668 -0.523438,0.951824 -0.523438,1.60547 0,0.651046 0.174481,1.1875 0.523438,1.60937 0.348961,0.419272 0.790364,0.628907 1.32422,0.628906 0.304687,0 0.572917,-0.05989 0.804687,-0.179687 0.231771,-0.119791 0.444012,-0.307291 0.636719,-0.5625 v 0.300781 c 0,0.427084 -0.106771,0.740885 -0.320313,0.941406 -0.213539,0.200522 -0.549479,0.300782 -1.00781,0.300782 -0.23698,0 -0.472656,-0.03516 -0.707031,-0.105469 -0.234375,-0.06771 -0.473958,-0.171875 -0.71875,-0.3125 v 1.08984 c 0.257812,0.08594 0.514324,0.149739 0.769531,0.191406 0.255208,0.04167 0.519531,0.0625 0.792969,0.0625 0.843751,0 1.48698,-0.186198 1.92969,-0.558594 0.445313,-0.369793 0.667969,-0.906248 0.667969,-1.60938 v -3.93359 h -1.40625 v 0.648437 c -0.192707,-0.257812 -0.404948,-0.446615 -0.636719,-0.566406 -0.23177,-0.119792 -0.5,-0.179687 -0.804687,-0.179687 z  m -10.6875,.9922 c 0.304687,0 0.53776,0.111979 0.699218,0.335937 0.161458,0.221355 0.242188,0.541667 0.242188,0.960938 0,0.41927 -0.08073,0.740885 -0.242188,0.964843 -0.161458,0.221356 -0.394531,0.332032 -0.699218,0.332032 -0.309896,0 -0.546875,-0.110676 -0.710938,-0.332032 -0.161457,-0.223957 -0.242187,-0.545573 -0.242187,-0.964843 0,-0.419271 0.08073,-0.739583 0.242187,-0.960938 0.164063,-0.223958 0.401042,-0.335937 0.710938,-0.335937 z  m 5.4727,.0156 c 0.291667,0 0.518229,0.106771 0.679687,0.320312 0.161458,0.213542 0.242188,0.515626 0.242188,0.90625 0,0.388022 -0.08073,0.688803 -0.242188,0.902344 -0.161458,0.213542 -0.38802,0.320311 -0.679687,0.320313 -0.299481,0 -0.527344,-0.102865 -0.683594,-0.308594 -0.15625,-0.208334 -0.234375,-0.513021 -0.234375,-0.914063 0,-0.390624 0.08073,-0.692708 0.242188,-0.90625 0.161457,-0.213541 0.386718,-0.320312 0.675781,-0.320312 z  m 5.7344,0 c 0.291668,0 0.518229,0.106771 0.679687,0.320312 0.161458,0.213542 0.242188,0.515626 0.242188,0.90625 0,0.388022 -0.08073,0.688803 -0.242188,0.902344 -0.161458,0.213542 -0.388019,0.320311 -0.679687,0.320313 -0.29948,0 -0.527344,-0.102865 -0.683594,-0.308594 -0.15625,-0.208334 -0.234375,-0.513021 -0.234375,-0.914063 0,-0.390624 0.08073,-0.692708 0.242188,-0.90625 0.161457,-0.213541 0.386718,-0.320312 0.675781,-0.320312 z "/>
</g>
</svg>
