<svg width="48" version="1.1" xmlns="http://www.w3.org/2000/svg" height="48">
<g id="layer1" transform="matrix(1.2352941,0,0,1.05,-5.6470589,-1.2)">
<path style="fill:#52ce52" id="rect4090" d="M 0,0 V 40 H 34 V 0.06980703 L 23,0 Z" transform="translate(7,4)"/>
</g>
<g style="stroke:#fff;stroke-width:.797" id="g27" transform="matrix(2.6415533,-1.8287422,2.1876085,2.2082197,-29.297691,19.492468)">
<g style="fill:#19aeff;stroke-width:6.339" id="g37" transform="matrix(0.12565,-0.0012861,0.0012838,0.12587,26.584,7.6481)">
<path style="fill:none" id="path41" d="m -147.4658,1.7637 11.19,9.2261 -16.315,18.646 39.622,-15.538 -12.431,17.092 25.639,-10.877 -15.538,20.2 13.207,10.876"/>
</g>
</g>
<g style="fill:#fff">
<path id="path4144" d="m 25.6547,35.7641 0,.6892 -5.6554,0 q 0.08784,0.851351 0.614865,1.27703 0.527027,0.425675 1.47297,0.425675 0.763513,0 1.56081,-0.222973 0.804054,-0.229729 1.64865,-0.689189 v 1.86487 q -0.858108,0.324325 -1.71622,0.486487 -0.858108,0.168919 -1.71622,0.168919 -2.05405,0 -3.19595,-1.04054 -1.13514,-1.0473 -1.13514,-2.93243 0,-1.85135 1.11487,-2.91216 1.12162,-1.06081 3.08108,-1.06081 1.78378,0 2.85135,1.07433 1.07432,1.07432 1.07432,2.87162 z  m -2.4865,-.8041 q 0,-0.689189 -0.405405,-1.10811 -0.398649,-0.425675 -1.0473,-0.425675 -0.702702,0 -1.14189,0.398648 -0.439189,0.391892 -0.547297,1.13513 h 3.14189 z "/>
<path id="path4146" d="m 29.3911,35.6965 -2.7297,-3.6959 2.5608,0 1.5473,2.2432 1.5676,-2.2432 2.5608,0 -2.7297,3.6824 2.8649,3.8851 -2.5608,0 -1.7027,-2.3919 -1.6824,2.3919 -2.5608,0 2.8649,-3.8716 z "/>
<path id="path4148" d="m 39.0398,29.852 0,2.1486 2.4932,0 0,1.7297 -2.4932,0 0,3.2095 q 0,0.527027 0.209459,0.716216 0.20946,0.182433 0.831081,0.182433 h 1.24324 v 1.72973 h -2.07433 q -1.43243,0 -2.03378,-0.594595 -0.594594,-0.601351 -0.594594,-2.03378 v -3.20946 h -1.2027 v -1.72973 h 1.2027 v -2.14865 h 2.41892 z "/>
</g>
</svg>
