<svg width="48" version="1.1" xmlns="http://www.w3.org/2000/svg" height="48" xmlns:xlink="http://www.w3.org/1999/xlink">
<defs id="defs4"/>
<g style="fill:#2980b9" id="layer1" transform="matrix(1.1470591,0,0,0.91864444,-3.5294177,1.9525339)">
<path id="rect4090" d="M 0,0 0,40 34,40 34,0.06980703 23,0 z" transform="translate(7,4)"/>
</g>
<g style="stroke:#fff;stroke-width:.797" id="g27" transform="matrix(2.6415533,-1.8287422,2.1876085,2.2082197,-29.297691,19.492468)"/>
<g style="stroke:none">
<path style="fill:#fff" id="path3994" d="m 11.7972,10.7375 c -0.398704,0 -0.679064,0.29367 -0.679064,0.711302 v 3.25167 12.3227 6.54231 2.99199 0.259682 c 0,0.389381 0.247499,0.663692 0.603613,0.700012 0.02584,0.0026 0.04852,0.01285 0.07545,0.01129 h 1.72461 20.8053 1.72461 c 0.02492,0 0.0515,-0.0031 0.07545,-0.01129 0.356114,-0.03632 0.603612,-0.310631 0.603612,-0.700012 v -0.259682 -2.99199 -6.54231 -5.80332 c -3.21331,-3.35584 -6.81691,-7.12158 -10.0254,-10.4824 h -14.6603 z "/>
<path style="fill:#2980b9" id="path3998" d="m 11.7721,11.4625 0,3.7745 0,17.6144 0,3.7745 2.0066,0 22.0727,0 0,-3.7745 0,-11.4939 -9.4687,-9.895 z "/>
<g style="fill:#fff" id="g3158" transform="matrix(0.34148282,0,0,0.35321022,5.9763512,4.1596001)">
<rect width="44.331478" x="30.393818" y="41.400051" height="5.6084838" id="rect3222"/>
<rect width="44.331478" x="30.393818" y="53.743488" height="5.6084838" id="rect3963"/>
<rect width="44.331478" x="30.393818" y="66.086922" height="5.6084838" id="rect3965"/>
</g>
</g>
</svg>
