<svg width="48" version="1.1" xmlns="http://www.w3.org/2000/svg" height="48">
<path style="opacity:.2" d="M 4,4 V 46 H 46 V 4 Z"/>
<path style="fill:#ecf0f1;stroke-width:1.139" d="m 3,3 v 42 h 42 v -41.9267 l -13.5882,-.0733 Z "/>
<path style="fill:#ccaa7d" d="m 12.1968,10.6074 h 23.6064 c 1.08983,0 1.9672,0.877373 1.9672,1.9672 v 23.6064 c 0,1.08983 -0.877373,1.9672 -1.9672,1.9672 h -23.6064 c -1.08983,0 -1.9672,-0.877373 -1.9672,-1.9672 v -23.6064 c 0,-1.08983 0.877373,-1.9672 1.9672,-1.9672 z "/>
<rect width="26.91951" x="10.512002" y="14.541839" rx="1.9228221" height="7.8688145" ry="1.9672036" style="fill:#3c2510"/>
<g style="fill:#ccaa7d">
<path d="m 12.4489,10.6342 c -2.01661,0.03957 -2.02167,0.0049 -2.02167,1.96275 v 7.85098 c 0,1.97125 0.08228,1.91856 2.02167,1.96275 l 12.13,-0.6543 V 9.97988 Z"/>
<path d="m 35.6923,10.6342 c 1.81024,0.03957 1.85221,0.04448 1.85221,1.96275 v 7.85098 c 0,2.01545 -0.158798,2.00695 -1.85221,1.96275 L 24.579,21.75638 V 9.97988 Z"/>
</g>
<g style="stroke-width:.328">
<path style="opacity:.5;fill:#3a240f" d="m 26.0067,10.0391 h -3.97388 l .0197,8.2961 .0442,9.9771 1.8645,-.1706 1.9816,-.1811 .0107,-1.9139 .0334,-7.7115 z "/>
<path style="fill:#d8cab2" d="m 25.9869,9.9972 -1.9869,-.1455 l -1.9869,.1455 .0197,8.4595 .0441,9.5277 1.8645,-.1629 1.9816,-.173 .0107,-1.8277 .0334,-7.3641 .0197,-8.4595 z "/>
<path style="opacity:.2;fill:#8d6137" d="M 23.672132,9.9926796 H 24 V 21.865 h -0.327868 z"/>
<path style="opacity:.2;fill:#fff" d="m 24,9.9926796 h 0.327867 V 21.865 H 24 Z"/>
</g>
<path style="fill:#3c2510" d="m 26.9802,27.8489 0,8.3745 8.8883,0 0,-1.1166 0,-7.2579 -8.8883,0 z  m 1.1851,1.1166 6.5181,0 0,4.4664 -2.3702,-3.3498 -1.6596,2.3444 -.4143,-.6695 -2.0739,3.3498 0,-6.1413 z "/>
<path style="opacity:.2;fill:#8d6137;stroke-linecap:round;stroke-width:.11" d="m 22.0605,21.8922 3.8913,-.0629 -.0087,.5813 h -3.8853 z "/>
</svg>
