<svg width="48" version="1.1" xmlns="http://www.w3.org/2000/svg" height="48" xmlns:xlink="http://www.w3.org/1999/xlink">
<defs id="defs4">
<linearGradient id="linearGradient5226-0">
<stop offset="0" style="stop-color:#fff" id="stop5228-7"/>
<stop offset="1" style="stop-color:#fff;stop-opacity:0" id="stop5230-6"/>
</linearGradient>
<linearGradient id="linearGradient3543">
<stop offset="0" style="stop-color:#fff" id="stop3545"/>
<stop offset="0.30645162" style="stop-color:#fff" id="stop3555"/>
<stop offset="0.51899064" style="stop-color:#fff;stop-opacity:.641" id="stop3551"/>
<stop offset="1" style="stop-color:#fff;stop-opacity:0" id="stop3547"/>
</linearGradient>
<radialGradient fx="64.230392" fy="68.449158" cx="64.230392" cy="68.449158" gradientTransform="matrix(1.4544425,0,0,0.92610887,-45.079796,-12.6013)" xlink:href="#linearGradient5226-0" id="radialGradient3153" r="43.769611" gradientUnits="userSpaceOnUse"/>
<radialGradient fx="74.375" fy="67.125" cx="74.375" cy="67.125" xlink:href="#linearGradient3543" id="radialGradient3161" r="3.125" gradientUnits="userSpaceOnUse"/>
<radialGradient fx="74.375" fy="67.125" cx="74.375" cy="67.125" xlink:href="#linearGradient3543" id="radialGradient3155" r="3.125" gradientUnits="userSpaceOnUse"/>
<radialGradient fx="74.375" fy="67.125" cx="74.375" cy="67.125" xlink:href="#linearGradient3543" id="radialGradient3159" r="3.125" gradientUnits="userSpaceOnUse"/>
<radialGradient fx="74.375" fy="67.125" cx="74.375" cy="67.125" xlink:href="#linearGradient3543" id="radialGradient3163" r="3.125" gradientUnits="userSpaceOnUse"/>
<radialGradient fx="69.75" fy="75.973572" cx="69.75" cy="75.973572" gradientTransform="matrix(2.2593878,-0.06832043,0.00797869,0.26385907,-105.95706,38.8624)" xlink:href="#linearGradient5226-0" id="radialGradient3169" r="58.5" gradientUnits="userSpaceOnUse"/>
<radialGradient fx="74.375" fy="67.125" cx="74.375" cy="67.125" xlink:href="#linearGradient3543" id="radialGradient3165" r="3.125" gradientUnits="userSpaceOnUse"/>
<radialGradient fx="74.375" fy="67.125" cx="74.375" cy="67.125" xlink:href="#linearGradient3543" id="radialGradient3157" r="3.125" gradientUnits="userSpaceOnUse"/>
<radialGradient fx="49.233551" fy="70.608253" cx="49.233551" cy="70.608253" gradientTransform="matrix(0.46811249,-0.52911558,1.7948202,1.5821666,-112.03757,-37.344561)" xlink:href="#linearGradient5226-0" id="radialGradient3151" r="25.483549" gradientUnits="userSpaceOnUse"/>
<radialGradient fx="74.375" fy="67.125" cx="74.375" cy="67.125" xlink:href="#linearGradient3543" id="radialGradient3171" r="3.125" gradientUnits="userSpaceOnUse"/>
<radialGradient fx="63.875" fy="2.2173476" cx="63.875" cy="2.2173476" gradientTransform="matrix(1.0948456,0,0,0.33117465,-21.844872,32.792567)" xlink:href="#linearGradient5226-0" id="radialGradient3167" r="58.375" gradientUnits="userSpaceOnUse"/>
</defs>
<path style="fill:#2980b9" id="rect4090" d="M 3,3 V 45 H 45 V 3 Z"/>
<g id="g3135" transform="matrix(1.5079987,0,0,1.4279943,5.0009148,-11.754512)">
<path style="opacity:.7;fill:#b1cde8;stroke:none" id="path3522-9" d="m 9.0835,12.4623 c 0.499432,0.670579 0.034077,1.79038 0.787374,1.77926 0.366798,0.518513 -0.73107,0.154674 0.061622,0.554308 0.455842,0.358956 -0.482265,0.564049 0.082258,0.886176 -0.650633,0.335688 0.10546,1.75578 0.588717,2.1112 0.795386,0.669511 0.351756,-1.41749 1.23926,-1.52606 0.482252,-0.550484 1.32925,-0.903854 1.93077,-1.45763 -0.587864,-0.04772 -0.931136,-0.413576 -0.374401,-0.640211 1.02465,1.04984 0.256931,-0.497189 -0.310273,-0.742138 0.548839,-0.174565 1.08262,-0.04673 1.00647,-0.499562 0.580001,-0.42428 -0.557586,-0.561267 -0.963664,-0.465345 -1.34938,0 -2.69875,0 -4.04814,0 z  m -8.4146,.438 c -0.741454,0.211213 -0.793174,1.98294 -0.0479268,0.999124 0.182913,-0.403967 1.02817,-0.890804 0.0479268,-0.999124 z  m 3.4644,.0616 c -0.42744,0.67017 0.062019,1.20748 0.417649,0.390068 0.251731,-0.341339 -0.187023,-0.377562 -0.417646,-0.390068 z  m 1.0681,.1506 c -0.825894,0.382744 -0.203572,1.27527 -0.18313,1.47377 0.870029,0.300949 1.35389,-0.196766 1.68302,0.653879 0.827834,0.477044 -0.016283,1.30597 -0.32704,1.52185 0.559728,-0.487407 1.63564,1.32515 1.35359,0.367531 -0.336499,-0.245664 0.903497,0.394648 0.260176,-0.403755 -0.592032,-0.953722 0.0469946,-0.426972 0.296595,-0.204381 0.848936,-0.761154 -0.960534,-0.853153 -0.508848,-1.63647 -0.395809,-0.320538 -0.91492,-1.29158 -1.61582,-1.10177 -0.469202,0.60671 -0.064815,-1.32197 -0.753212,-0.356834 -0.035681,0.539508 -0.012984,1.22411 -0.213593,0.289453 -0.134404,-0.163622 0.231235,-0.544011 0.00826,-0.603264 z  m -1.6843,.0068 c -0.55436,0.184791 -0.524586,0.93371 0.157069,1.014 0.233485,-0.2661 0.092765,-0.963608 -0.157069,-1.014 z  m -2.1636,.2395 c -0.720061,0.17058 -0.426148,0.7511 -0.205682,0.914595 -0.89132,0.223232 1.36068,0.285309 0.239916,0.426694 -0.932444,0.372344 0.897902,0.811021 1.19818,0.369538 1.15145,0.281561 0.041437,-0.92162 -0.059637,-1.57384 -0.488122,-0.523797 -0.019265,1.20749 -0.460615,0.05579 -0.153991,0.342005 -0.643623,0.0504 -0.712158,-0.192777 z  m 22.8817,.0753 c -0.966236,0.378101 0.60054,1.80493 0.211154,0.50686 -0.03879,-0.15674 0.08722,-0.570875 -0.211154,-0.50686 z  m -20.1773,.5749 c -0.694336,0.652433 0.882565,1.19196 -0.199423,1.67801 -0.162234,-0.605916 -0.441368,0.303151 -1.06037,-0.186172 -1.06414,0.443021 -1.60832,-0.230766 -2.49926,-0.692626 -0.535119,-0.0666 -0.334075,0.508384 -0.369517,1.04676 0,1.48785 0,2.97571 0,4.46356 0.524665,0.551931 0.2047,0.243517 0,0.09129 0.287975,0.98064 -0.126989,2.41413 1.00813,2.98455 0.192967,0.357884 1.00269,1.88257 1.04002,1.42637 -0.405937,-0.425052 -0.822445,-1.69934 -0.135562,-0.56359 0.615242,1.07961 1.44515,1.77984 2.65753,2.03675 0.662852,0.225441 1.20798,1.0004 1.7909,0.829893 0.329616,0.868808 -0.97682,1.70312 0.043859,2.51346 0.532846,0.820355 1.42742,1.35841 0.943088,2.51013 -0.338702,1.12482 -0.193684,2.35045 -0.48662,3.39847 -0.090917,0.637919 0.889239,2.25706 0.80432,0.960514 0.28619,-0.901006 0.278644,-1.89241 0.952662,-2.53048 0.92225,0.0073 0.176262,-0.991561 1.09171,-0.861077 0.558612,-0.732106 0.72041,-1.60548 1.66311,-1.89618 0.112606,-0.888665 1.56744,-2.24967 0.06451,-2.59566 -0.408479,-0.201313 -1.4602,-0.273699 -1.37983,-0.373028 0.162842,-0.88179 -1.36001,-1.13282 -2.00794,-1.49359 -0.850713,-0.603771 -2.12901,1.00301 -2.42873,-0.381477 -0.178838,-0.435604 -0.832728,-0.442668 -0.532213,-1.11483 -0.541584,0.538573 -1.60089,0.374887 -1.32356,-0.665202 0.421177,-0.875956 2.03863,-0.917402 2.31425,0.136217 -0.382673,-1.16202 0.739692,-2.0666 1.36275,-2.89331 0.126865,-0.395143 0.880673,-0.734632 0.621272,-0.209467 0.441935,-0.015938 1.11177,-0.813349 0.326698,-0.445303 -0.0111078,-0.727212 -0.687949,-0.520406 -0.907386,-0.417147 0.406711,-0.645435 2.49546,-0.292569 1.62079,-1.34757 -0.677755,-0.274586 -0.621375,-1.87693 -1.3069,-0.984257 0.0576877,-0.550014 -1.39528,-1.62666 -1.36358,-0.704349 0.177358,0.825296 0.032427,1.77602 -0.345013,2.31699 -0.078768,-1.20933 -2.14155,-0.942053 -1.87634,-2.23073 0.384217,-0.61419 0.833189,-1.46353 0.875964,-1.38713 0.688575,-0.262866 1.24231,-1.02749 0.444259,-1.53015 -0.042651,0.4381 -0.600192,1.34199 -0.52169,0.248764 -0.516282,0.61204 -0.398366,-0.973914 -0.881887,-1.1384 z  m 16.48,.4243 c -1.20943,0.295809 -1.68888,1.45081 -2.28717,2.40745 -0.88192,0.397575 -0.848349,2.10499 0.136928,1.55966 0.263705,0.46051 -0.184477,1.18636 0.58363,0.584219 0.619553,-0.819782 0.108335,-2.14565 1.16266,-2.66258 0.0768,0.401935 -0.972562,1.90277 0.253327,1.65608 1.10822,0.04181 -0.805646,0.110408 -0.266644,0.818217 -0.56001,-0.332224 -0.26902,0.907338 -0.999999,0.618878 -0.633269,0.344422 -1.04853,-0.159917 -0.90346,-0.712407 -0.498173,0.290586 0.156689,1.11036 -0.708107,1.15963 -0.19372,0.687813 -1.78674,0.584142 -0.880812,1.28452 0.40221,1.04227 -1.49865,0.06534 -0.959003,1.31609 0.461699,1.23681 1.4293,-0.409822 1.82186,-0.727953 0.75741,-0.587442 1.87974,1.00165 1.19818,1.06071 0.76425,-0.102526 0.607201,-0.829265 -0.0051,-1.11062 -0.330715,-0.857606 1.04692,0.420592 0.970522,0.850572 0.486063,0.910065 0.285902,-0.931768 0.780525,-0.116336 -0.05775,0.86016 1.98977,0.202247 1.01223,1.29851 -0.840462,0.16926 -1.66772,-0.216643 -2.3913,0.03053 -0.673461,-0.006 -0.639671,-0.725417 -0.884862,-0.905587 -0.856651,0.06959 -1.91524,0.06172 -2.48874,0.753683 -0.620164,0.850772 -1.51448,2.04009 -0.838539,3.12642 0.676414,1.60981 2.35387,0.0835 3.3181,1.03422 0.286601,0.396409 -0.248366,0.86762 0.392464,1.297 0.241139,0.914661 -0.273753,1.78311 0.318484,2.65747 0.306248,0.822291 0.496303,2.05305 1.63613,1.30166 1.20635,-0.725865 0.885037,-2.06396 1.88043,-2.8051 -0.787613,-1.52408 0.96357,-2.19235 1.40049,-3.42963 -0.954587,0.139733 -1.80502,-0.811874 -2.03565,-1.76969 -0.401012,-0.465231 -0.297725,-1.15122 0.150221,-0.277244 0.615697,0.596528 0.628999,2.36658 1.76794,1.456 0.520687,-0.21776 1.94268,-1.04843 0.809659,-1.42645 -0.73034,0.528914 -1.53609,-1.58041 -0.463627,-0.356957 0.779668,0.330738 1.32566,0.527797 1.32566,-0.568771 0,-2.95438 0,-5.9488 0,-8.9232 -0.242858,0.248146 -0.866769,0.706443 -1.18169,0.401911 -0.54188,0.07545 -1.25723,1.12967 -1.08694,0.11058 -0.471018,-0.03119 -0.08432,0.913752 -0.73143,0.940179 -0.06516,0.485802 -0.653715,0.08996 -0.432637,0.551291 -0.454192,-0.322139 -0.838582,-1.33924 0.05634,-0.700841 1.32901,-0.398666 -0.876394,-1.29791 -1.04662,-1.51526 0.286154,-0.06855 -0.311323,-0.366722 -0.383418,-0.266889 z  m -10.9685,.2669 c -0.442343,0.368523 0.840964,0.437923 0,0 z  m -5.9087,.1985 c -0.494749,0.517451 0.787919,0.475687 0,0 z  m 2.8688,.5132 c -0.374656,0.613672 0.553581,0.226565 0,0 z  m 8.2024,.7254 c -0.43863,0.504918 -1.01757,-0.132883 -1.02701,0.301106 0.07949,0.131131 0.397903,1.06705 1.09548,0.376382 0.374389,-0.157824 0.226982,-0.555681 -0.06847,-0.677488 z  m -9.3389,.3011 c -0.831965,0.726479 1.41293,0.793414 0.176247,0.08332 l -.1762,-.0833 z  m 10.9753,2.0119 c -0.598999,0.390558 0.287359,1.21998 -0.01304,1.60959 -0.375334,0.653872 1.39477,-0.04606 0.449337,-0.567745 -0.06736,-0.448209 -0.553881,-0.995075 -0.436302,-1.04185 z  m -.404,.787 c -0.834562,0.235918 -0.189453,1.45395 0.106135,0.306748 0.01662,-0.06651 0.03915,-0.308972 -0.106135,-0.306748 z  m -6.6824,.8828 c -0.776399,0.529347 -0.12059,1.05772 0.448415,0.819546 -0.116816,-0.319383 -0.443151,-0.520613 -0.448415,-0.819546 z  m 14.6657,.8896 c 0.387395,0.195484 -0.70991,0.529424 -0.01507,0.873465 0.404353,0.475452 0.25191,1.49607 -0.405328,0.773722 0.122107,-0.806499 -0.890909,-1.4088 0.42041,-1.64719 z  m -1.9924,.0068 c -0.05256,0.518143 1.11803,1.32354 -0.143777,1.06071 -0.667298,0.07827 -1.66676,-0.02039 -0.8261,-0.851782 0.265633,-0.15945 0.963095,0.550121 0.600158,-0.113125 0.128672,-0.0082 0.248509,-0.05677 0.369719,-0.09581 z  m -3.8547,1.1223 c -0.486716,0.313529 0.33656,0.553939 0,0 z  m -12.2214,2.9221 c -0.082055,0.273715 1.53934,0.551105 0.420488,0.112579 l -.1668,-.0587 -.2537,-.0539 z  m 1.2598,.3901 c -0.491802,0.499212 1.01326,0.149145 0,0 z  m 16.4458,4.5782 c -1.06862,0.02757 -0.926554,2.78361 -0.181638,1.15283 0.07064,-0.353879 0.353784,-0.820953 0.181638,-1.15283 z "/>
<g id="layer3" transform="matrix(0.30266389,0,0,0.30266389,-1.895288,10.617188)">
<g id="g4234">
<g style="fill:none;stroke-width:2" id="g26">
<path style="stroke:url(#radialGradient3151)" id="path3583" d="m 7,29.5231 c 51.25,8.82446 31.6336,59.4769 31.6336,59.4769"/>
<path style="stroke:url(#radialGradient3153)" id="path3581" d="m 27.6767,88.8235 c -1.06035,-15.5311 28.4526,-60.1828 61.1466,-67.9484"/>
</g>
<g style="fill-rule:evenodd;stroke:none" id="g34">
<path style="fill:url(#radialGradient3155)" id="path3537" d="m 77.5,67.125 a 3.125,3.125 0 1 1 -6.25,0 3.125,3.125 0 1 1 6.25,0 z" transform="matrix(1.3572422,0,0,1.3554377,-73.268157,-53.871603)"/>
<path style="fill:url(#radialGradient3157)" id="path3557" d="m 77.5,67.125 a 3.125,3.125 0 1 1 -6.25,0 3.125,3.125 0 1 1 6.25,0 z" transform="matrix(1.0744835,0,0,1.0730548,-39.513825,-14.090919)"/>
<path style="fill:url(#radialGradient3159)" id="path3561" d="m 77.5,67.125 a 3.125,3.125 0 1 1 -6.25,0 3.125,3.125 0 1 1 6.25,0 z" transform="matrix(1.5834493,0,0,1.581344,-53.333661,-72.388859)"/>
<path style="opacity:.6;fill:url(#radialGradient3161)" id="path3565" d="m 77.5,67.125 a 3.125,3.125 0 1 1 -6.25,0 3.125,3.125 0 1 1 6.25,0 z" transform="matrix(1.0219348,0,0,1.020576,-15.635673,-16.92189)"/>
<path style="opacity:.7;fill:url(#radialGradient3163)" id="path3569" d="m 77.5,67.125 a 3.125,3.125 0 1 1 -6.25,0 3.125,3.125 0 1 1 6.25,0 z" transform="matrix(0.89260147,0,0,0.89141463,-51.611367,-28.371713)"/>
<path style="opacity:.6;fill:url(#radialGradient3165)" id="path3573" d="m 77.5,67.125 a 3.125,3.125 0 1 1 -6.25,0 3.125,3.125 0 1 1 6.25,0 z" transform="matrix(0.56551763,0,0,0.5647657,38.456917,3.261507)"/>
</g>
<g style="fill:none" id="g38">
<path style="stroke:url(#radialGradient3167);stroke-width:2" id="path3577" d="m 7.1767,47.7015 c 28.0992,-19.4138 65.2113,-20.4728 81.8233,1.5884"/>
<path style="opacity:.6;stroke:url(#radialGradient3169);stroke-width:1.5" id="path3585" d="m 7.1767,67.8213 c 51.25,-11.4718 82.0001,-30.1797 82.0001,-30.1797"/>
</g>
<path style="opacity:.6;fill:url(#radialGradient3171);fill-rule:evenodd;stroke:none" id="path3352" d="m 77.5,67.125 a 3.125,3.125 0 1 1 -6.25,0 3.125,3.125 0 1 1 6.25,0 z" transform="matrix(0.84547158,0,0,0.84434747,15.553432,-31.917967)"/>
</g>
</g>
</g>
<g style="fill:#f00;fill-rule:evenodd;stroke:none;color:#000" id="g51">
<path id="path3175" d="m 15.5942,19.4669 a 0.82075,0.82075 0 1,1 -1.6415,0 0.82075,0.82075 0 1,1 1.6415,0 z "/>
<path id="path4013" d="m 15.5942,19.4669 a 0.82075,0.82075 0 1,1 -1.6415,0 0.82075,0.82075 0 1,1 1.6415,0 z " transform="translate(5.8900875,9.0282488)"/>
<path id="path4015" d="m 15.5942,19.4669 a 0.82075,0.82075 0 1,1 -1.6415,0 0.82075,0.82075 0 1,1 1.6415,0 z " transform="translate(14.870057,6.2280433)"/>
<path id="path4017" d="m 15.5942,19.4669 a 0.82075,0.82075 0 1,1 -1.6415,0 0.82075,0.82075 0 1,1 1.6415,0 z " transform="translate(16.608116,-1.4483822)"/>
<path id="path4019" d="m 15.5942,19.4669 a 0.82075,0.82075 0 1,1 -1.6415,0 0.82075,0.82075 0 1,1 1.6415,0 z " transform="matrix(0.65397923,0,0,0.65397923,29.541317,8.5705592)"/>
<path id="path4021" d="m 15.5942,19.4669 a 0.82075,0.82075 0 1,1 -1.6415,0 0.82075,0.82075 0 1,1 1.6415,0 z " transform="matrix(0.65397923,0,0,0.65397923,28.189494,1.3286484)"/>
<path id="path4023" d="m 15.5942,19.4669 a 0.82075,0.82075 0 1,1 -1.6415,0 0.82075,0.82075 0 1,1 1.6415,0 z " transform="matrix(0.65397923,0,0,0.65397923,-0.68159047,4.2736921)"/>
</g>
</svg>
