<svg width="48" version="1.1" xmlns="http://www.w3.org/2000/svg" height="48">
<path style="opacity:.2" d="M 4,4 V 46 H 46 V 4 Z"/>
<g id="layer1" transform="matrix(1.1446382,0,0,0.91864444,-3.4765175,1.9525339)">
<path style="fill:#ecf0f1" id="rect4090" d="m 5.6581,1.1402 v 45.7194 l 36.6928,.0001 v -45.7195 Z "/>
<g style="fill:none" id="Icon" transform="translate(32.3053,15.5492)">
<path style="fill:#7f8c8d;fill-rule:evenodd" id="Podcast" d="m 4.57427,5.30864 c 1.64435,0 2.97748,-1.18831 2.97748,-2.65432 C 7.55175,1.18842 6.21873,0 4.57427,0 2.93001,0 1.5971,1.18842 1.5971,2.65432 c 0,1.46601 1.333,2.65432 2.97717,2.65432 z m 0,1.32718 c -6.64264,0 -4.093688,6.35658 -4.093688,8.37218 l 8.187588,0 c 0,-2.0156 2.54893,-8.37218 -4.0939,-8.37218 z m 0,0" transform="translate(-6.20449,4.82705)"/>
</g>
<path style="fill:#34495e;fill-rule:evenodd" id="path3286" d="M 8.34614,0 C 6.01471,1.53553e-4 3.89589,2.35486 3.89589,4.94258 c 0,1.14528 0.41566,2.24436 1.0805,3.11446 l 0,0.65761 C 4.03686,9.1751 3.1686,9.81588 2.44255,10.6225 0.898134,12.3381 0,14.7499 0,17.1759 l 0,1.3588 0.103268,0 1.495752,0 0.75547,0 3.21105,0 1.11313,0 3.33933,0 1.1131,0 3.2111,0 0.7554,0 1.4958,0 0.1033,0 0,-1.3588 c 0,-2.4261 -0.9006,-4.8378 -2.447,-6.5534 C 13.5242,9.81744 12.6574,9.1773 11.7192,8.71709 l 0,-0.66127 C 12.3844,7.18597 12.8007,6.08741 12.8007,4.94258 12.8007,2.35457 10.6777,-1.53148e-4 8.34614,0 z" transform="translate(12.5496,16.8551)"/>
</g>
</svg>
