<svg width="48" version="1.1" xmlns="http://www.w3.org/2000/svg" height="48">
<path style="opacity:.2" d="M 4,4 V 46 H 46 V 4 Z"/>
<g id="layer1" transform="matrix(1.2352941,0,0,1.05,-5.6470589,-1.2)">
<path style="fill:#ecf0f1" id="rect4090" d="m 0,-.0001 0,40.0001 l 34.0314,.0006 v -40.0007 z " transform="translate(7,4)"/>
<g style="fill:none" id="Icon" transform="translate(34.8253,0.652061)">
<path style="fill:#8e44ad;fill-rule:evenodd" id="Podcast" d="m 10.34,12.1486 c 1.4296,0 2.5886,-1.0889 2.5886,-2.43227 0,-1.34327 -1.1589,-2.43227 -2.5886,-2.43227 -1.42952,0 -2.58836,1.089 -2.58836,2.43227 0,1.34337 1.15891,2.43227 2.58836,2.43227 z m 0,-8.50989 c -3.57196,0 -6.46763,2.72103 -6.46763,6.07755 0,1.63234 0.68503,3.11424 1.7994,4.20604 C 5.99063,13.4401 6.43093,12.9807 7.03803,12.6284 6.27718,11.867 5.81031,10.8431 5.81031,9.71626 c 0,-2.35081 2.02804,-4.25649 4.52969,-4.25649 2.5019,0 4.5298,1.90568 4.5298,4.25649 0,1.12934 -0.4689,2.15514 -1.2327,2.91704 0.6061,0.3535 1.0452,0.814 1.3631,1.2971 1.1193,-1.0928 1.8076,-2.5777 1.8076,-4.21414 0,-3.35645 -2.8956,-6.07755 -6.4678,-6.07755 z M 10.34,0 C 4.62937,0 0,4.35018 0,9.71633 0,13.2183 1.97193,16.2871 4.92903,17.9971 4.87016,17.576 4.83245,17.1242 4.83245,16.6562 c 0,0 -0.00283,-0.3619 0.10071,-0.8844 -1.83731,-1.45 -3.00549,-3.6244 -3.00549,-6.05547 0,-4.3658 3.76633,-7.90491 8.41243,-7.90491 4.6461,0 8.4125,3.53911 8.4125,7.90491 0,2.43617 -1.1731,4.61467 -3.0172,6.06477 0.1016,0.5175 0.0989,0.875 0.0989,0.875 0,0.4712 -0.0382,0.9261 -0.0977,1.3494 2.9653,-1.7082 4.9437,-4.7814 4.9437,-8.28917 C 20.6802,4.35012 16.0508,0 10.34,0 z m 0,13.3647 c -5.77512,0 -3.55906,8.4618 -3.55906,10.3088 l 7.11826,0 c 0,-1.847 2.216,-10.3088 -3.5592,-10.3088 z m 0,0" transform="translate(-20.6757,14.4772)"/>
</g>
</g>
</svg>
