<svg width="48" version="1.1" xmlns="http://www.w3.org/2000/svg" height="48">
<path style="fill:#2980b9;stroke-width:1.139" id="rect4090" d="m 3,3 v 42 h 42 v -42 Z "/>
<path style="fill:#ecf0f1;stroke:none" id="path3798-9" d="m 24,13.7497 c -3.01448,0 -5.45617,2.4941 -5.45617,5.5632 0.0073,0.3518 0.0094,0.7445 0.04297,1.1821 -0.477064,0.2773 -0.540101,1.3648 -0.114565,2.4585 0.164089,0.4217 0.389637,0.7625 0.615788,1.0402 0.0076,0.01 0.02105,0.023 0.02865,0.031 0.05398,0.289 0.09224,0.5094 0.157526,0.8354 0.202245,0.6618 1.03982,1.9083 1.77576,2.9786 0.07339,0.8256 0.07606,1.6455 -0.07161,2.5846 -2.11828,1.9172 -7.54079,2.7748 -7.53267,4.7595 l -.1002,.7562 h 21.3092 l -.1002,-.7565 c -0.0087,-1.6986 -5.45468,-2.7748 -7.54699,-4.7594 -0.08471,-0.7603 -0.100406,-1.5049 -0.05729,-2.2537 0.669105,-1.126 1.55186,-2.5769 1.77576,-3.3096 0.08229,-0.3795 0.122259,-0.6356 0.186168,-0.9614 0.197587,-0.2634 0.384009,-0.5707 0.529866,-0.9456 0.404109,-1.0387 0.354583,-2.0425 -0.05729,-2.3797 0.02879,-0.4513 0.05957,-0.8751 0.07161,-1.2608 3e-06,-3.0692 -2.44169,-5.5633 -5.45618,-5.5633 z "/>
</svg>
