<svg width="48" version="1.1" xmlns="http://www.w3.org/2000/svg" height="48">
<path style="opacity:.2" d="M 4,4 V 46 H 46 V 4 Z"/>
<path style="fill:#ecf0f1" d="m 3,3 v 42 h 42 l -.0888,-41.9267 Z "/>
<path style="opacity:.65" d="m 24,16.0658 q -2.41861,0 -3.64341,1.98838 -1.2093,1.97547 -1.2093,5.95224 0,3.96385 1.2093,5.95224 1.22481,1.97547 3.64341,1.97547 2.43411,0 3.64341,-1.97547 1.22481,-1.98838 1.22481,-5.95224 0,-3.97677 -1.22481,-5.95224 -1.2093,-1.98838 -3.64341,-1.98838 Z  m 0,-2.0659 q 3.89147,0 5.93799,2.5694 2.06202,2.55649 2.06202,7.43707 0,4.86766 -2.06202,7.43707 -2.04651,2.55649 -5.93799,2.55649 -3.89147,0 -5.95349,-2.55649 -2.04651,-2.5694 -2.04651,-7.43707 0,-4.88058 2.04651,-7.43707 2.06202,-2.56941 5.95349,-2.56941 Z "/>
</svg>
