<svg width="24" version="1.1" xmlns="http://www.w3.org/2000/svg" viewBox="0 0 24 24" height="24">
<path style="color:#4d4d4d" d="m 3,4 v 13 h 7 v 1 H 8 v 2 h 8 v -2 h -2 v -1 h 7 V 4 Z M 4,5 H 20 V 16 H 4 Z"/>
<path style="opacity:.5;fill:#fff" d="m 2,3 v 15 h 8 V 17 H 3 V 4 h 18 v 13 h -7 v 1 h 8 V 3 Z m 5,15 v 3 h 10 v -3 h -1 v 2 H 8 v -2 z"/>
<path style="fill:#3880d9" d="M 4,5 H 20 V 16 H 4 Z"/>
<path style="fill:#7fff2a" d="m 11,18 h 2 v 1 h -2 z"/>
<path style="fill:#f01a00" d="M 12,6 C 9.51471,6 7.5,8.01475 7.5,10.5 7.5,12.98534 9.51469,15 12,15 14.48508,15 16.5,12.98536 16.5,10.5 16.5,8.01475 14.48508,6 12,6 Z"/>
<path style="fill:#fff" d="m 9,10 h 6 v 1 H 9 Z"/>
</svg>
