<svg width="24" version="1.1" xmlns="http://www.w3.org/2000/svg" viewBox="0 0 24 24" height="24">
<defs id="defs3051">
<style type="text/css" id="current-color-scheme">
.ColorScheme-Text {
color:#4d4d4d;
}
</style>
</defs>
<path style="fill:currentColor;fill-opacity:1;stroke:none" id="path819" d="m 12,3 c -4.96462,0 -9,4.03538 -9,9 0,4.96462 4.03538,9 9,9 4.96462,0 9,-4.03538 9,-9 0,-4.96462 -4.03538,-9 -9,-9 z  m 0,1 c 4.42418,0 8,3.57582 8,8 0,2.03174 -0.759802,3.87931 -2.00391,5.28906 l -11.2852,-11.2852 c 1.40975,-1.2441 3.25732,-2.00391 5.28906,-2.00391 z  m -5.9961,2.7109 l 11.2852,11.2852 c -1.40975,1.2441 -3.25732,2.00391 -5.28906,2.00391 -4.42418,0 -8,-3.57582 -8,-8 0,-2.03174 0.759802,-3.87931 2.00391,-5.28906 z " class="ColorScheme-Text"/>
</svg>
