<svg width="24" version="1.1" xmlns="http://www.w3.org/2000/svg" height="24">
<defs id="defs3051">
<style type="text/css" id="current-color-scheme">
.ColorScheme-Text {
color:#4d4d4d;
}
</style>
</defs>
<path style="fill:currentColor" d="m 11,1 l -1,1.4824 v 11.0176 c -0.804349,0.112624 -4,1.59933 -4,4.48633 0,3.113 2.69664,5.01367 6,5.01367 3.30336,0 6,-1.90067 6,-5.01367 0,-2.887 -3.12456,-4.37927 -4,-4.48633 v -1.36914 l -1.5,-1.1309 v -0.5 l 1.5,-.5 v -1.5 l -1.5,-.5 v -1 l 2,-.5 v -1 l -2,-.5 v -0.5 l 2,-.5 v -1.5 l -2.3633,-1.5 h -1.13672 z  m .9844,16.7871 c 1.17253,0 2.26477,0.688213 2.21289,1.60938 -0.05188,0.921157 -1.04036,1.63281 -2.21289,1.63281 -1.17253,0 -2.18164,-0.621679 -2.18164,-1.63281 0,-1.01114 1.00911,-1.60938 2.18164,-1.60938 z " class="ColorScheme-Text"/>
</svg>
