<svg width="24" version="1.1" xmlns="http://www.w3.org/2000/svg" viewBox="0 0 24 24" height="24">
<defs id="defs3051">
<style type="text/css" id="current-color-scheme">
.ColorScheme-Text {
color:#4d4d4d;
}
</style>
</defs>
<path style="fill:currentColor;fill-opacity:1;stroke:none" id="path825" d="m 12,3 c -4.96462,0 -9,4.03538 -9,9 1e-07,4.96462 4.03538,9 9,9 4.96462,0 9,-4.03538 9,-9 0,-4.96462 -4.03538,-9 -9,-9 z  m 0,1 c 4.42418,1e-07 8,3.57582 8,8 0,4.42418 -3.57582,8 -8,8 -4.42418,0 -8,-3.57582 -8,-8 0,-4.42418 3.57582,-8 8,-8 z  m .5,2 c -2.5,0 -3.5,2 -3.5,3.5 v 0.5 h 2 v -0.5 c 0,-1.01735 0.671573,-1.5 1.5,-1.5 0.828427,0 1.5,0.414389 1.5,1.5 0,0.828427 -0.488385,1.43256 -1.5,1.5 h -1.5 v 4 h 2 v -2 c 1.75406,-0.262323 3,-1.16479 3,-3.5 0,-1.5 -1,-3.5 -3.5,-3.5 z  m -1.5,10 v 2 h 2 v -2 h -2 z " class="ColorScheme-Text"/>
</svg>
