<svg width="24" version="1.1" xmlns="http://www.w3.org/2000/svg" viewBox="0 0 24 24" height="24">
<defs id="defs3051">
<style type="text/css" id="current-color-scheme">
.ColorScheme-Text {
color:#4d4d4d;
}
</style>
</defs>
<path style="fill:currentColor;fill-opacity:1;stroke:none" id="path819" d="m 12,3 c -4.96462,0 -9,4.03538 -9,9 1e-07,4.96462 4.03538,9 9,9 4.96462,0 9,-4.03538 9,-9 0,-4.96462 -4.03538,-9 -9,-9 z  m 0,1 c 4.42418,1e-07 8,3.57582 8,8 0,4.42418 -3.57582,8 -8,8 -4.42418,0 -8,-3.57582 -8,-8 0,-4.42418 3.57582,-8 8,-8 z  m -1,3 v 2 h 2 v -2 h -2 z  m 0,3 v 7 h 2 v -7 h -2 z " class="ColorScheme-Text"/>
</svg>
