<svg width="24" version="1.1" xmlns="http://www.w3.org/2000/svg" viewBox="0 0 24 24" height="24">
<defs id="defs3051">
<style type="text/css" id="current-color-scheme">
.ColorScheme-Text {
color:#4d4d4d;
}
</style>
</defs>
<path style="fill:currentColor" d="m 12,2 a 19,19 0 0,0 -11.8047,4.11133 l .6484,.7637 a 18,18 0 0,1 11.1562,-3.875 18,18 0 0,1 11.1562,3.875 l .6484,-.7637 a 19,19 0 0,0 -11.8047,-4.11133 z  m 0,4 c -3.48255,0 -6.68209,1.17385 -9.22266,3.15039 l .6504,.7656 c 2.36543,-1.82907 5.33743,-2.91602 8.57227,-2.91602 3.23484,0 6.20684,1.08695 8.57227,2.91602 l .6504,-.7656 c -2.54057,-1.97654 -5.7401,-3.15039 -9.22266,-3.15039 z  m 0,4 c -2.4915,1.8e-05 -4.78477,0.820934 -6.625,2.20703 l .6484,.7617 c 1.66505,-1.23847 3.73281,-1.96875 5.97656,-1.96875 2.24376,0 4.31151,0.730284 5.97656,1.96875 l .6484,-.7617 c -1.84023,-1.3861 -4.13348,-2.20701 -6.625,-2.20703 z  m 0,4 c -1.50036,1.7e-05 -2.88815,0.466285 -4.02539,1.26367 l .6523,.7676 c 0.959935,-0.651618 2.12043,-1.03125 3.37305,-1.03125 1.25262,0 2.41311,0.379633 3.37305,1.03125 l .6523,-.7676 c -1.13724,-0.797391 -2.52503,-1.26365 -4.02539,-1.26367 z  m -7.5,2 c -0.831,0 -1.5,0.669 -1.5,1.5 v 1.5 h -1 v 3 h 5 v -3 h -1 v -1.5 c 0,-0.831 -0.669,-1.5 -1.5,-1.5 z  m 0,1 c 0.277,0 0.5,0.223 0.5,0.5 v 1.5 h -1 v -1.5 c 0,-0.277 0.223,-0.5 0.5,-0.5 z  m 7.5,1 c -1.108,0 -2,0.892 -2,2 0,1.108 0.892003,2 2,2 1.10801,0 2,-0.892 2,-2 0,-1.108 -0.891995,-2 -2,-2 z  m 0,1 c 0.554002,0 1,0.446 1,1 0,0.554 -0.445998,1 -1,1 -0.553994,0 -1,-0.446 -1,-1 0,-0.554 0.446006,-1 1,-1 z " class="ColorScheme-Text"/>
</svg>
