<svg width="24" version="1.1" xmlns="http://www.w3.org/2000/svg" viewBox="0 0 24 24" height="24">
<defs id="defs3051">
<style type="text/css" id="current-color-scheme">
.ColorScheme-Text {
color:#4d4d4d;
}
</style>
</defs>
<path style="fill:currentColor" d="M 12,2 C 9.784,2 8,3.784 8,6 V 9 H 6 v 8 h 5 v 3 H 2 v 2 h 20 v -2 h -9 v -3 h 5 V 9 H 16 V 6 C 16,3.784 14.216,2 12,2 Z m 0,1 c 1.662,0 3,1.561 3,3.5 V 9 H 9 V 6.5 C 9,4.561 10.338,3 12,3 Z" class="ColorScheme-Text"/>
<g style="fill:#0f0">
<path d="m 23,13 a 3,3 0 0 1 -3,3 3,3 0 0 1 -3,-3 3,3 0 0 1 3,-3 3,3 0 0 1 3,3 z"/>
<path d="M 7,13 A 3,3 0 0 1 4,16 3,3 0 0 1 1,13 3,3 0 0 1 4,10 3,3 0 0 1 7,13 Z"/>
<path d="m 15,13 a 3,3 0 0 1 -3,3 3,3 0 0 1 -3,-3 3,3 0 0 1 3,-3 3,3 0 0 1 3,3 z"/>
</g>
</svg>
