<svg width="24" version="1.1" xmlns="http://www.w3.org/2000/svg" height="24">
<g style="stroke-width:.458">
<path style="fill:#e6e6e6;stroke:#646464" d="m 10.662,11.3959 v 12.359 h 2.558 v -12.359 c 0,-0.67723 -0.630927,-1.14581 -1.2161,-1.14581 -0.585166,0 -1.3419,0.475453 -1.3419,1.14581 z "/>
<path style="fill:#969696" d="m 8,22 h 8 v 2 H 8 Z"/>
</g>
<g style="fill:#429cd6">
<path d="m 17.403,11.3841 c -0.01286,-1.25892 -0.67407,-2.42572 -1.74726,-3.08399 a 0.915525,0.915525 0 0,0 -1.25877,0.301819 0.915525,0.915525 0 0,0 0.301819,1.25877 c 0.536399,0.329015 0.863344,0.907368 0.871842,1.53627 -0.0034,0.629648 -0.326473,1.21167 -0.861113,1.54486 a 0.915525,0.915525 0 0,0 -0.292521,1.26092 0.915525,0.915525 0 0,0 1.26092,0.29252 c 1.06965,-0.666595 1.7225,-1.83937 1.72509,-3.09972 v -0.0057 z "/>
<path d="m 20.3325,11.3862 c -0.014145,-1.82019 -0.780833,-3.55446 -2.11774,-4.78979 a 0.915468,0.915468 0 0,0 -1.29381,0.050779 0.915468,0.915468 0 0,0 0.05078,1.29381 c 0.965181,0.891827 1.5179,2.14193 1.52912,3.4559 -0.0015,1.31624 -0.546285,2.57173 -1.50767,3.47092 a 0.915468,0.915468 0 0,0 -0.04362,1.29381 0.915468,0.915468 0 0,0 1.29381,0.04362 c 1.33163,-1.24548 2.08846,-2.98862 2.08913,-4.81191 v -0.0036 z "/>
<path d="m 23.262,11.3905 c -0.007869,-2.43454 -0.94828,-4.77449 -2.62768,-6.53706 a 0.915468,0.915468 0 0,0 -1.29453,-0.031469 0.915468,0.915468 0 0,0 -0.03147,1.29453 c 1.35598,1.42313 2.11547,3.31051 2.12274,5.27612 -0.000805,1.96831 -0.756084,3.86087 -2.11059,5.289 a 0.915468,0.915468 0 0,0 0.03432,1.29453 0.915468,0.915468 0 0,0 1.29453,-0.03433 c 1.67655,-1.76769 2.61168,-4.11144 2.61266,-6.54777 v -0.0022 z "/>
<path d="m 6.597,11.4154 c 0.012861,1.25892 0.674069,2.42572 1.74726,3.08399 a 0.915524,0.915524 0 0,0 1.25877,-0.301818 0.915524,0.915524 0 0,0 -0.301818,-1.25877 c -0.536398,-0.329015 -0.863344,-0.907367 -0.871842,-1.53627 0.0034106,-0.629648 0.326474,-1.21167 0.861113,-1.54486 a 0.915524,0.915524 0 0,0 0.292521,-1.26092 0.915524,0.915524 0 0,0 -1.26091,-0.292521 c -1.06965,0.666599 -1.7225,1.83936 -1.72509,3.09972 v 0.0057 z "/>
<path d="m 3.6675,11.4132 c 0.014146,1.82019 0.780833,3.55446 2.11774,4.78978 a 0.915468,0.915468 0 0,0 1.29381,-0.05078 0.915468,0.915468 0 0,0 -0.05078,-1.29381 c -0.96518,-0.891826 -1.5179,-2.14193 -1.52912,-3.45589 0.0015159,-1.31624 0.546279,-2.57173 1.50767,-3.47091 a 0.915468,0.915468 0 0,0 0.0436262,-1.29381 0.915468,0.915468 0 0,0 -1.29381,-0.0436281 c -1.33163,1.24548 -2.08846,2.98862 -2.08913,4.81191 v 0.0036 z "/>
<path d="m .738,11.4089 c 0.007865,2.43454 0.94828,4.77449 2.62768,6.53701 a 0.915468,0.915468 0 0,0 1.29453,0.03147 0.915468,0.915468 0 0,0 0.03147,-1.29453 c -1.35598,-1.42313 -2.11547,-3.31051 -2.12275,-5.27611 0.0008053,-1.96831 0.756083,-3.86086 2.11058,-5.289 a 0.915468,0.915468 0 0,0 -0.03433,-1.29453 0.915468,0.915468 0 0,0 -1.29453,0.03433 c -1.67655,1.76768 -2.61168,4.11144 -2.61266,6.54776 v 0.0022 z "/>
</g>
</svg>
