<svg width="24" version="1.1" xmlns="http://www.w3.org/2000/svg" viewBox="0 0 24 24" height="24">
<defs id="defs3051">
<style type="text/css" id="current-color-scheme">
.ColorScheme-Text {
color:#4d4d4d;
}
</style>
</defs>
<path style="fill:#3daee9" d="m 12,13 v 3.267578 C 11.381083,16.62491 11,17.285336 11,18 c 0,1.104569 0.895431,2 2,2 1.104569,0 2,-0.895431 2,-2 0,-0.714664 -0.381083,-1.37509 -1,-1.732422 V 13 Z"/>
<path style="fill:currentColor" d="m 13,3 c -1.108,0 -2,0.892 -2,2 v 9.535156 C 9.762166,15.24982 9,16.570672 9,18 c 0,2.209139 1.790861,4 4,4 2.209139,0 4,-1.790861 4,-4 0,-1.429328 -0.762166,-2.75018 -2,-3.464844 V 5 C 15,3.892 14.108,3 13,3 Z m 0,1 c 0.554,0 1,0.446 1,1 v 10.171875 c 1.198535,0.423746 2,1.556887 2,2.828125 0,1.656854 -1.343146,3 -3,3 -1.656854,0 -3,-1.343146 -3,-3 0,-1.271238 0.801465,-2.404379 2,-2.828125 V 5 C 12,4.446 12.446,4 13,4 Z M 8,6 v 1 h 2 V 6 Z m 0,3 v 1 h 2 V 9 Z m 0,3 v 1 h 2 v -1 z" class="ColorScheme-Text"/>
</svg>
