<svg width="24" version="1.1" xmlns="http://www.w3.org/2000/svg" viewBox="0 0 24 24" height="24">
<defs id="defs3051">
<style type="text/css" id="current-color-scheme">
.ColorScheme-Text {
color:#4d4d4d;
}
</style>
</defs>
<path style="fill:#8c8c8c" d="m 11,10 v 10 l 2,1 2,-1 V 10 Z"/>
<path style="fill:currentColor" d="M 13,3 C 11.892,3 11,3.892 11,5 V 15.765625 C 10.364139,16.334356 10,17.146903 10,18 c 0,1.656854 1.343146,3 3,3 1.656854,0 3,-1.343146 3,-3 0,-0.852416 -0.364645,-1.664145 -1,-2.232422 V 5 C 15,3.892 14.108,3 13,3 Z m 0,1 c 0.554,0 1,0.446 1,1 v 11.263672 c 0.61861,0.349704 1,0.995903 1,1.695312 0,1.081041 -0.895928,1.957032 -2,1.957032 -1.104072,0 -2,-0.875991 -2,-1.957032 0,-0.700106 0.380773,-1.347212 1,-1.697265 V 5 C 12,4.446 12.446,4 13,4 Z M 8,6 v 1 h 2 V 6 Z m 0,3 v 1 h 2 V 9 Z m 0,3 v 1 h 2 v -1 z m 5,5 c -0.552285,0 -1,0.447715 -1,1 0,0.552285 0.447715,1 1,1 0.552285,0 1,-0.447715 1,-1 0,-0.552285 -0.447715,-1 -1,-1 z" class="ColorScheme-Text"/>
</svg>
