<svg width="24" version="1.1" xmlns="http://www.w3.org/2000/svg" height="24">
<defs id="defs3051">
<style type="text/css" id="current-color-scheme">
.ColorScheme-Text {
color:#4d4d4d;
}
</style>
</defs>
<path style="fill:currentColor;fill-opacity:1;stroke:none" id="path2" d="m 10,3 v 8.0625 C 9.8355341,11.028131 9.6680171,11.010463 9.5,11.009766 8.1219579,11.01024 7.0052552,12.127817 7.0058594,13.505859 7.0063337,14.883139 8.1227207,16 9.5,16 c 1.366668,-0.0015 2.477809,-1.102157 2.492188,-2.46875 L 12,7 h 4 z m 8,0 c -0.552285,0 -1,0.4477153 -1,1 v 15.5 c 0,0.664967 1,0.654704 1,0 V 17 h 2 v -3 h -2 v -2 h 2 V 9 H 18 V 5 h 1 c 1.333333,0 1.333333,-2 0,-2 z M 3,6 v 14 h 11 v -3 h 2 v -1 h -3 v 3 H 4 V 7 H 9 V 6 Z m 15,4 h 1 v 1 h -1 z m 0,5 h 1 v 1 h -1 z" class="ColorScheme-Text"/>
</svg>
