<svg width="24" version="1.1" xmlns="http://www.w3.org/2000/svg" height="24" viewBox="0 0 24 24">
<defs id="defs3051">
<style type="text/css" id="current-color-scheme">
.ColorScheme-Text {
color:#4d4d4d;
}
</style>
</defs>
<path style="fill:currentColor" d="M 3.3847656,2 C 2.6174128,2 2,2.6174128 2,3.3847656 V 20.615234 C 2,21.379883 2.6201172,22 3.3847656,22 H 20.615234 C 21.379883,22 22,21.379883 22,20.615234 V 3.3847656 C 22,2.6174128 21.382587,2 20.615234,2 Z m 8.2031254,2 c 2.309853,0 4.34135,1.0429438 5.517578,2.6171875 l -4.298828,2.1875 c -0.300795,-0.2927621 -0.732912,-0.4804687 -1.21875,-0.4804687 -0.909707,0 -1.6464848,0.6454142 -1.6464848,1.4414062 0,0.795991 0.7367778,1.441406 1.6464848,1.441406 0.481076,0 0.910495,-0.184882 1.210937,-0.472656 l 4.306641,2.179687 C 15.929227,14.488304 13.89773,15.529297 11.587891,15.529297 7.9490743,15.529297 5,12.949601 5,9.765625 5,6.581652 7.9490743,4 11.587891,4 Z m 6.529297,2.8828125 c 1.176953,1.7837195 1.176953,3.9819015 0,5.7656255 l -4.28125,-2.16211 c 0.140164,-0.211996 0.222656,-0.458179 0.222656,-0.720703 0,-0.262523 -0.0825,-0.5087081 -0.222656,-0.7207031 z M 5,18 h 14 c 0.5,0 1,0.447782 1,1 0,0.552216 -0.5,1 -1,1 H 5 C 4.5,20 4,19.552216 4,19 4,18.447782 4.5,18 5,18 Z" class="ColorScheme-Text"/>
</svg>
