<svg width="24" version="1.1" xmlns="http://www.w3.org/2000/svg" viewBox="0 0 24 24" height="24">
<defs id="defs3051">
<style type="text/css" id="current-color-scheme">
.ColorScheme-Text {
color:#4d4d4d;
}
</style>
</defs>
<path style="fill:currentColor" d="M 3,2 V 22 H 13 V 19 H 9 V 18 H 4 V 3 h 16 v 8 h 1 V 2 Z m 4,4 v 10 h 6 V 15 H 8 V 7 h 2 v 2 h 4 V 7 h 2 v 4 h 1 V 6 Z m 12,6 c -1.65686,0 -3,1.34314 -3,3 v 3 h -2 v 6 h 10 v -6 h -2 v -3 c 0,-1.65686 -1.34314,-3 -3,-3 z m 0,1 c 1.10457,0 2,0.89543 2,2 v 3 h -4 v -3 c 0,-1.10457 0.895431,-2 2,-2 z M 4,19 h 3 v 2 H 4 Z" class="ColorScheme-Text"/>
</svg>
