<svg width="24" version="1.1" xmlns="http://www.w3.org/2000/svg" height="24" viewBox="0 0 24 24">
<defs id="defs3051">
<style type="text/css" id="current-color-scheme">
.ColorScheme-Text {
color:#4d4d4d;
}
</style>
</defs>
<path style="fill:currentColor" d="m 3.3848,2 c -0.767353,0 -1.38477,0.617409 -1.38477,1.38477 v 17.2305 c 0,0.764649 0.620113,1.38477 1.38477,1.38477 h 9.61523 v -2 h -9 c -0.5,0 -1,-0.447784 -1,-1 0,-0.552218 0.5,-1 1,-1 h 9 v -2.08398 a 6,6 0 0,1 -1,0.083984 6,6 0 0,1 -6,-6 6,6 0 0,1 6,-6 6,6 0 0,1 6,6 6,6 0 0,1 -0.804688,3 h 4.80469 v -9.61523 c 0,-0.767353 -0.617409,-1.38477 -1.38477,-1.38477 h -17.2305 z  m 8.6152,6 a 2,2 0 0,0 -2,2 2,2 0 0,0 2,2 2,2 0 0,0 2,-2 2,2 0 0,0 -2,-2 z  m 7,6 c -1.65686,0 -3,1.34314 -3,3 v 1 h -2 v 6 h 10 v -6 h -2 v -1 c 0,-1.65686 -1.34314,-3 -3,-3 z  m 0,1 c 1.10457,0 2,0.89543 2,2 v 1 h -4 v -1 c 0,-1.10457 0.895431,-2 2,-2 z " class="ColorScheme-Text"/>
</svg>
