<svg width="24" version="1.1" xmlns="http://www.w3.org/2000/svg" height="24" viewBox="0 0 24 24">
<defs id="defs3051">
<style type="text/css" id="current-color-scheme">
.ColorScheme-Text {
color:#4d4d4d;
}
</style>
</defs>
<path style="fill:currentColor" d="M 3.3847656,2 C 2.6174128,2 2,2.6174128 2,3.3847656 V 15 H 22 V 3.3847656 C 22,2.6174128 21.382587,2 20.615234,2 Z M 22,15 c 0,0.5 -0.5,1 -1,1 H 3 C 2.5,16 2,15.5 2,15 v 5.615234 C 2,21.379883 2.6201172,22 3.3847656,22 H 20.615234 C 21.379883,22 22,21.379883 22,20.615234 Z M 5,18 h 14 c 0.5,0 1,0.447782 1,1 0,0.552216 -0.5,1 -1,1 H 5 C 4.5,20 4,19.552216 4,19 4,18.447782 4.5,18 5,18 Z" class="ColorScheme-Text"/>
</svg>
