<svg width="24" version="1.1" xmlns="http://www.w3.org/2000/svg" height="24" viewBox="0 0 24 24">
<defs id="defs3051">
<style type="text/css" id="current-color-scheme">
.ColorScheme-Text {
color:#4d4d4d;
}
</style>
</defs>
<path style="fill:currentColor" d="m 1.3848,0 c -0.767353,0 -1.38477,0.617405 -1.38477,1.38477 v 17.2305 c 0,0.764649 0.620109,1.38477 1.38477,1.38477 h 1.61523 v -15.6152 c 0,-0.767357 0.617409,-1.38477 1.38477,-1.38477 h 15.6152 v -1.61523 c 0,-0.767353 -0.617405,-1.38477 -1.38477,-1.38477 h -17.2305 z  m 4,4 c -0.767353,0 -1.38477,0.617405 -1.38477,1.38477 v 17.2305 c 0,0.764649 0.620109,1.38477 1.38477,1.38477 h 17.2305 c 0.764649,0 1.38477,-0.620109 1.38477,-1.38477 v -17.2305 c 0,-0.767353 -0.617405,-1.38477 -1.38477,-1.38477 h -17.2305 z  m 8.6152,2 a 6,6 0 0,1 6,6 6,6 0 0,1 -6,6 6,6 0 0,1 -6,-6 6,6 0 0,1 6,-6 z  m 0,4 a 2,2 0 0,0 -2,2 2,2 0 0,0 2,2 2,2 0 0,0 2,-2 2,2 0 0,0 -2,-2 z  m -8,10 h 16 c 0.5,0 1,0.447782 1,1 0,0.552216 -0.5,1 -1,1 h -16 c -0.5,0 -1,-0.447784 -1,-1 0,-0.552218 0.5,-1 1,-1 z " class="ColorScheme-Text"/>
</svg>
