<svg width="24" version="1.1" xmlns="http://www.w3.org/2000/svg" viewBox="0 0 24 24" height="24">
<defs id="defs3051">
<style type="text/css" id="current-color-scheme">
.ColorScheme-Text {
color:#4d4d4d;
}
</style>
</defs>
<path style="fill:currentColor" d="M 0,0 V 20 H 5 V 16 H 1 V 1 h 16 v 2 h 1 V 0 Z M 4,4 V 14 H 5 V 4 Z M 6,4 V 24 H 24 V 4 Z m 1,1 h 16 v 15 h -7 v 1 H 12 V 20 H 7 Z m 3,3 V 18 H 20 V 8 Z m 1,1 h 2 v 2 h 4 V 9 h 2 v 8 H 11 Z M 1,17 h 3 v 2 H 1 Z m 6,4 h 3 v 2 H 7 Z m 10,0 h 5 v 2 h -5 z" class="ColorScheme-Text"/>
</svg>
