<svg width="24" version="1.1" xmlns="http://www.w3.org/2000/svg" height="24">
<defs id="defs3051">
<style type="text/css" id="current-color-scheme">
.ColorScheme-Text {
color:#4d4d4d;
}
</style>
</defs>
<path style="fill:currentColor;fill-opacity:1;stroke:none" id="path828" d="m 11.2441,2 c -0.670893,0.0672092 -1.31343,0.330269 -1.85938,0.748047 -0.726957,0.552836 -1.41016,1.88525 -1.41016,2.98047 0.00993,0.410153 0.335396,0.742154 0.744141,0.757812 0.408746,-0.015658 0.736166,-0.34766 0.746094,-0.757812 0,-0.672368 0.456799,-1.51309 0.851562,-1.81641 0.396253,-0.301819 0.98765,-0.447852 1.58203,-0.417969 0.594378,0.026893 1.1679,0.22699 1.58203,0.603516 0.415617,0.37802 0.699219,0.874803 0.699219,1.68164 0,3.23633 2.17913,5.24532 4.46875,5.18555 1.27515,-0.03437 2.51289,-0.717237 3.35156,-1.96484 l -.8047,-1.3828 c -0.560113,1.36715 -1.62397,1.92578 -2.59375,1.95117 -1.43008,0.037355 -3.0332,-1.19073 -3.0332,-3.78906 0,-1.18337 -0.401783,-2.15725 -1.10938,-2.80273 -0.709081,-0.640991 -1.67394,-0.906131 -2.51758,-0.976562 -0.305985,-0.0255452 -0.503713,-0.0193898 -0.697265,0 z  m -4.6719,6 c -1.42457,0 -2.57227,1.11375 -2.57227,2.5 v 2.5 h 4 v -5 h -1.42773 z  m 2.4277,0 v 5 h 4 v -2.5 c 0,-1.38625 -1.14769,-2.5 -2.57227,-2.5 h -1.42773 z  m -5,6 v 3.625 c 0,2.58417 2.00571,4.375 4.5,4.375 2.493,0 4.5,-1.79083 4.5,-4.375 v -3.625 h -9 z " class="ColorScheme-Text"/>
</svg>
