<svg width="24" version="1.1" xmlns="http://www.w3.org/2000/svg" viewBox="0 0 24 24" height="24">
<defs id="defs3051">
<style type="text/css" id="current-color-scheme">
.ColorScheme-Text {
color:#4d4d4d;
}
</style>
</defs>
<path style="fill:currentColor;fill-opacity:1;stroke:none" d="m 12,3 c -4.9646,0 -9,4.0354 -9,9 0,4.9646 4.0354,9 9,9 V 20 C 7.57583,20 4,16.42417 4,12 4,7.57583 7.57583,4 12,4 c 4.42417,0 8,3.57583 8,8 h 1 C 21,7.0354 16.9646,3 12,3 Z m 0,6.5 c -1.37469,0 -2.5,1.12531 -2.5,2.5 0,1.37469 1.12531,2.5 2.5,2.5 1.37469,0 2.5,-1.12531 2.5,-2.5 0,-1.37469 -1.12531,-2.5 -2.5,-2.5 z m 4,0.5 v 8.0625 c -0.164465,-0.03437 -0.337883,-0.05204 -0.5059,-0.05273 -1.37804,0 -2.49474,1.11805 -2.49414,2.49609 C 13,21.88314 14.11682,23 15.4941,23 16.86077,22.9985 17.98562,21.89784 18,20.53125 v -5.5312 h 4 z m -4,0.5 c 0.834251,0 1.5,0.665749 1.5,1.5 0,0.834251 -0.665749,1.5 -1.5,1.5 -0.834251,0 -1.5,-0.665749 -1.5,-1.5 0,-0.834251 0.665749,-1.5 1.5,-1.5 z" class="ColorScheme-Text"/>
</svg>
