<svg width="24" version="1.1" xmlns="http://www.w3.org/2000/svg" viewBox="0 0 24 24" height="24">
<defs id="defs3051">
<style type="text/css" id="current-color-scheme">
.ColorScheme-Text {
color:#4d4d4d;
}
</style>
</defs>
<path style="fill:currentColor;fill-opacity:1;stroke:none" d="m 12,3 c -4.9646,0 -9,4.0354 -9,9 1e-07,4.9646 4.0354,9 9,9 v -1 c -4.42417,0 -8,-3.57583 -8,-8 0,-4.42417 3.57583,-8 8,-8 4.42417,1e-07 8,3.57583 8,8 h 1 c 0,-4.9646 -4.0354,-9 -9,-9 z  m 0,6.5 c -1.37469,0 -2.5,1.12531 -2.5,2.5 0,1.37469 1.12531,2.5 2.5,2.5 1.37469,0 2.5,-1.12531 2.5,-2.5 0,-1.37469 -1.12531,-2.5 -2.5,-2.5 z  m 3.9941,.5 v 8.0625 c -0.164465,-0.03437 -0.331983,-0.052044 -0.5,-0.052734 -1.37804,0.000474 -2.49474,1.11805 -2.49414,2.49609 0.000474,1.37728 1.11686,2.49414 2.49414,2.49414 1.36667,-0.0015 2.47781,-1.10216 2.49219,-2.46875 l .0078,-5.5312 h 4.00586 l -6.0059,-5 z  m -3.9941,.5 c 0.834251,0 1.5,0.665749 1.5,1.5 0,0.834251 -0.665749,1.5 -1.5,1.5 -0.834251,0 -1.5,-0.665749 -1.5,-1.5 0,-0.834251 0.665749,-1.5 1.5,-1.5 z " class="ColorScheme-Text"/>
</svg>
