<svg width="24" version="1.1" xmlns="http://www.w3.org/2000/svg" viewBox="0 0 24 24" height="24">
<defs id="defs3051">
<style type="text/css" id="current-color-scheme">
.ColorScheme-Text {
color:#4d4d4d;
}
</style>
</defs>
<path style="fill:currentColor;fill-opacity:1;stroke:none" d="m 12,3 c -4.96461,0 -9,4.03539 -9,9 1e-07,4.96461 4.03539,9 9,9 v -1 c -4.42417,0 -8,-3.57583 -8,-8 0,-4.42417 3.57583,-8 8,-8 4.42417,1e-07 8,3.57583 8,8 h 1 c 0,-4.96461 -4.03539,-9 -9,-9 z  m 0,6.5 c -1.37469,0 -2.5,1.12531 -2.5,2.5 0,1.37469 1.12531,2.5 2.5,2.5 1.37469,0 2.5,-1.12531 2.5,-2.5 0,-1.37469 -1.12531,-2.5 -2.5,-2.5 z  m 0,1 c 0.834252,0 1.5,0.665748 1.5,1.5 0,0.834252 -0.665748,1.5 -1.5,1.5 -0.834252,0 -1.5,-0.665748 -1.5,-1.5 0,-0.834252 0.665748,-1.5 1.5,-1.5 z  m 6,2.5 v 5.50391 c -0.432251,-0.325949 -0.95863,-0.50278 -1.5,-0.503906 -1.38071,0 -2.5,1.11929 -2.5,2.5 0,1.38071 1.11929,2.5 2.5,2.5 1.38071,0 2.5,-1.11929 2.5,-2.5 v -5.5 h 2 l -2,-2 h -1 z " class="ColorScheme-Text"/>
</svg>
