<svg width="24" version="1.1" xmlns="http://www.w3.org/2000/svg" viewBox="0 0 24 24" height="24">
<defs id="defs3051">
<style type="text/css" id="current-color-scheme">
.ColorScheme-Text {
color:#4d4d4d;
}
</style>
</defs>
<path style="fill:currentColor" d="m 12,4 c -4.43359,0 -8,3.56641 -8,8 0,1.96094 0.699219,3.75 1.86328,5.14062 l .7109,-.7109 c -0.984375,-1.20703 -1.57422,-2.74609 -1.57422,-4.42969 0,-3.87891 3.12109,-7 7,-7 3.87891,0 7,3.12109 7,7 0,1.68359 -0.589844,3.22266 -1.57422,4.42969 l .7148,.7109 c 1.16016,-1.39062 1.85938,-3.17969 1.85938,-5.14062 0,-4.43359 -3.56641,-8 -8,-8 z  m 0,3 c -2.76953,0 -5,2.23047 -5,5 0,1.12891 0.382812,2.15625 1.00781,2.99219 l .7109,-.707 c -0.453125,-0.648437 -0.71875,-1.43359 -0.71875,-2.28516 0,-2.21484 1.78516,-4 4,-4 2.21484,0 4,1.78516 4,4 0,0.851562 -0.265625,1.63672 -0.71875,2.28516 l .7109,.707 c 0.625,-0.835939 1.00781,-1.86328 1.00781,-2.99219 0,-2.76953 -2.23047,-5 -5,-5 z  m 0,3 c -1.10938,0 -2,0.890625 -2,2 0,0.744388 0.400993,1.38995 1,1.73438 v 6.26562 h 2 v -6.26562 c 0.599007,-0.34443 1,-0.989987 1,-1.73438 0,-1.10938 -0.890625,-2 -2,-2 z  m 0,1 c 0.554688,0 1,0.445312 1,1 0,0.554688 -0.445312,1 -1,1 -0.554688,0 -1,-0.445312 -1,-1 0,-0.554688 0.445312,-1 1,-1 z " class="ColorScheme-Text"/>
</svg>
