<svg width="24" version="1.1" xmlns="http://www.w3.org/2000/svg" viewBox="0 0 24 24" height="24">
<defs id="defs3051">
<style type="text/css" id="current-color-scheme">
.ColorScheme-Text {
color:#4d4d4d;
}
</style>
</defs>
<path style="fill:currentColor" d="m 12,6 c -3.48255,0 -6.68209,1.17385 -9.22266,3.15039 l .6504,.7656 c 2.36543,-1.82907 5.33743,-2.91602 8.57227,-2.91602 3.23484,0 6.20684,1.08695 8.57227,2.91602 l .6504,-.7656 c -2.54057,-1.97654 -5.7401,-3.15039 -9.22266,-3.15039 z  m 0,4 c -2.49154,0 -4.78475,0.820916 -6.625,2.20703 l .6484,.7617 c 1.66505,-1.23847 3.73281,-1.96875 5.97656,-1.96875 2.24376,0 4.31151,0.730284 5.97656,1.96875 l .6484,-.7617 c -1.84025,-1.38612 -4.13345,-2.20703 -6.625,-2.20703 z  m 0,4 c -1.50039,0 -2.88813,0.466267 -4.02539,1.26367 l .6523,.7676 c 0.959935,-0.651618 2.12043,-1.03125 3.37305,-1.03125 1.25262,0 2.41311,0.379633 3.37305,1.03125 l .6523,-.7676 c -1.13726,-0.797405 -2.525,-1.26367 -4.02539,-1.26367 z  m 0,4 c -1.108,0 -2,0.892 -2,2 0,1.108 0.892003,2 2,2 1.10801,0 2,-0.892 2,-2 0,-1.108 -0.891995,-2 -2,-2 z  m 0,1 c 0.554002,0 1,0.446 1,1 0,0.554 -0.445998,1 -1,1 -0.553994,0 -1,-0.446 -1,-1 0,-0.554 0.446006,-1 1,-1 z " class="ColorScheme-Text"/>
<path style="fill:currentColor;opacity:.2" d="M 12 2 A 19 19 0 0 0 0.1953125 6.1113281 L 0.84375 6.875 A 18 18 0 0 1 12 3 A 18 18 0 0 1 23.15625 6.875 L 23.804688 6.1113281 A 19 19 0 0 0 12 2 z " class="ColorScheme-Text"/>
</svg>
