<svg width="24" version="1.1" xmlns="http://www.w3.org/2000/svg" height="24" viewBox="0 0 24 24">
<defs id="defs3051">
<style type="text/css" id="current-color-scheme">
.ColorScheme-Text {
color:#4d4d4d;
}
</style>
</defs>
<path style="fill:#f00" d="m 19,13 v 5 h 2 v -5 z m 1,6 a 1,1 0 0 0 -1,1 1,1 0 0 0 1,1 1,1 0 0 0 1,-1 1,1 0 0 0 -1,-1 z"/>
<path style="fill:currentColor" d="m 4.5,16 c -0.831,0 -1.5,0.669 -1.5,1.5 v 1.5 h -1 v 3 h 5 v -3 h -1 v -1.5 c 0,-0.831 -0.669,-1.5 -1.5,-1.5 z  m 0,1 c 0.277,0 0.5,0.223 0.5,0.5 v 1.5 h -1 v -1.5 c 0,-0.277 0.223,-0.5 0.5,-0.5 z  m 7.5,1 c -1.108,0 -2,0.892 -2,2 0,1.108 0.892003,2 2,2 1.10801,0 2,-0.892 2,-2 0,-1.108 -0.891995,-2 -2,-2 z  m 0,1 c 0.554002,0 1,0.446 1,1 0,0.554 -0.445998,1 -1,1 -0.553994,0 -1,-0.446 -1,-1 0,-0.554 0.446006,-1 1,-1 z " class="ColorScheme-Text"/>
<path style="fill:currentColor;opacity:.2" d="M 12,2 A 19,19 0 0 0 0.1953,6.11133 l 0.6484,0.7637 a 18,18 0 0 1 11.1562,-3.875 18,18 0 0 1 11.1562,3.875 l 0.6484,-0.7637 A 19,19 0 0 0 11.9998,2 Z m 0,4 C 8.51745,6 5.31791,7.17385 2.77734,9.15039 l 0.6504,0.7656 c 2.36543,-1.82907 5.33743,-2.91602 8.57227,-2.91602 3.23484,0 6.20684,1.08695 8.57227,2.91602 l 0.6504,-0.7656 C 18.68211,7.17385 15.48258,6 12.00002,6 Z m 0,4 c -2.49154,0 -4.78475,0.820916 -6.625,2.20703 l 0.6484,0.7617 c 1.66505,-1.23847 3.73281,-1.96875 5.97656,-1.96875 2.24376,0 4.31151,0.730284 5.97656,1.96875 l 0.6484,-0.7617 C 16.78467,10.82091 14.49147,10 11.99992,10 Z m 0,4 c -1.50039,0 -2.88813,0.466267 -4.02539,1.26367 l 0.6523,0.7676 c 0.959935,-0.651618 2.12043,-1.03125 3.37305,-1.03125 1.25262,0 2.41311,0.379633 3.37305,1.03125 l 0.6523,-0.7676 C 14.88805,14.466265 13.50031,14 11.99992,14 Z" class="ColorScheme-Text"/>
</svg>
