<svg width="24" version="1.1" xmlns="http://www.w3.org/2000/svg" viewBox="0 0 24 24" height="24">
<defs id="defs3051">
<style type="text/css" id="current-color-scheme">
.ColorScheme-Text {
color:#4d4d4d;
}
</style>
</defs>
<path style="fill:currentColor" d="m 12,14 c -1.50038,8e-06 -2.88814,0.466276 -4.02539,1.26367 l .6523,.7676 c 0.959935,-0.651618 2.12043,-1.03125 3.37305,-1.03125 1.25262,0 2.41311,0.379633 3.37305,1.03125 l .6523,-.7676 c -1.13725,-0.797398 -2.52502,-1.26366 -4.02539,-1.26367 z  m -7.5,2 c -0.831,0 -1.5,0.669 -1.5,1.5 v 1.5 h -1 v 3 h 5 v -3 h -1 v -1.5 c 0,-0.831 -0.669,-1.5 -1.5,-1.5 z  m 0,1 c 0.277,0 0.5,0.223 0.5,0.5 v 1.5 h -1 v -1.5 c 0,-0.277 0.223,-0.5 0.5,-0.5 z  m 7.5,1 c -1.108,0 -2,0.892 -2,2 0,1.108 0.892003,2 2,2 1.10801,0 2,-0.892 2,-2 0,-1.108 -0.891995,-2 -2,-2 z  m 0,1 c 0.554002,0 1,0.446 1,1 0,0.554 -0.445998,1 -1,1 -0.553994,0 -1,-0.446 -1,-1 0,-0.554 0.446006,-1 1,-1 z " class="ColorScheme-Text"/>
<path style="fill:currentColor;opacity:.2" d="M 12 2 A 19 19 0 0 0 0.1953125 6.1113281 L 0.84375 6.875 A 18 18 0 0 1 12 3 A 18 18 0 0 1 23.15625 6.875 L 23.804688 6.1113281 A 19 19 0 0 0 12 2 z M 12 6 C 8.5174468 6 5.3179143 7.1738461 2.7773438 9.1503906 L 3.4277344 9.9160156 C 5.7931629 8.0869455 8.7651668 7 12 7 C 15.234839 7 18.206839 8.0869456 20.572266 9.9160156 L 21.222656 9.1503906 C 18.682087 7.1738464 15.48256 6 12 6 z M 12 10 C 9.5084554 10 7.2152499 10.820916 5.375 12.207031 L 6.0234375 12.96875 C 7.6884874 11.730284 9.7562507 11 12 11 C 14.243756 11 16.311511 11.730284 17.976562 12.96875 L 18.625 12.207031 C 16.784752 10.820916 14.491551 10 12 10 z " class="ColorScheme-Text"/>
</svg>
