<svg width="48" version="1.0" xmlns="http://www.w3.org/2000/svg" viewBox="0 0 47.25 43.407375" height="48" style="overflow:visible;enable-background:new 0 0 126 115.753">
<g style="stroke:none" id="g4">
<path style="fill:#00a200" id="path4173" d="m 14.8887,3.4312 c -0.644208,0 -1.16895,0.434301 -1.16895,0.953613 v 36.2681 c 0,0.519308 0.52474,0.953614 1.16895,0.953614 5.94839,1.05656 11.744,0.714755 17.4727,0 0.644208,0 1.16895,-0.434306 1.16895,-0.953614 v -36.2681 c 4e-06,-0.519316 -0.524736,-0.953613 -1.16895,-0.953613 h -1.32275 -14.8271 z "/>
<path style="fill:#d2d2d2" id="path3485" d="m 18.5031,-.051 10.2439,0 c 0.641628,-6.85e-06 1.15816,0.652672 1.15815,1.46341 v 4.8574 c -4.02263,0.499083 -8.16242,0.641838 -12.5602,9e-07 v -4.8574 c 2e-06,-0.810729 0.516535,-1.46341 1.15816,-1.46341 z "/>
<g style="fill:#fff" id="g8">
<g id="g9">
<rect width="0.46697369" x="109.50977" y="152.06654" height="0" style="opacity:.578" id="rect1327"/>
<rect width="0.46697369" x="93.106468" y="140.782" height="0" style="opacity:.578" id="rect2482"/>
</g>
<g id="g4155" transform="matrix(0.93659371,0,0,0.93659371,17.66948,2.7638551)">
<rect width="0.46697369" x="109.50977" y="152.06654" height="0" style="opacity:.578" id="rect1327-6"/>
<rect width="0.46697369" x="93.106468" y="140.782" height="0" style="opacity:.578" id="rect2482-5"/>
</g>
</g>
<path style="fill:#ffed21" id="path3425" d="m 26.5979,6.6763 -2.3569,14.4007 4.8209,0 -8.8116,20.9795 2.0623,-15.903 -4.1246,0 8.4099,-19.4772 z "/>
<g style="fill:#dcdcdc" id="g4162" transform="matrix(0.93659371,0,0,0.93659371,17.66948,2.7638551)">
<rect width="0.41178483" x="82.093269" y="241.64474" height="0" style="opacity:.578" id="rect1327-9"/>
<rect width="0.41178483" x="67.628578" y="222.39859" height="0" style="opacity:.578" id="rect2482-6"/>
</g>
</g>
</svg>
