<svg width="48" version="1.1" xmlns="http://www.w3.org/2000/svg" height="48">
<path style="fill:#00a200;stroke-width:.984" id="path3981" d="m 14.1701,8 c -0.725163,0 -1.17006,0.473007 -1.17006,1.25189 v 33.6207 c 0,0.785149 0.533368,1.34984 1.17006,1.45164 5.97109,0.95469 13.9427,0.845645 19.6599,0 0.637854,-0.094347 1.17007,-0.653794 1.17007,-1.45164 v -33.6207 c 0,-0.841719 -0.525237,-1.25189 -1.17007,-1.25189 Z "/>
<path style="fill:#d2d2d2;stroke-width:1.008" id="path3485" d="m 29.4433,3 c 1.19946,4.2e-06 1.55677,0.351588 1.55673,1.48174 l 0,6.1386 c -4.99417,0.506141 -9.00543,0.506141 -14,0 v -6.13901 c 0,-1.14137 0.321851,-1.48138 1.36086,-1.48138 Z "/>
<g style="fill:#fff">
<rect width="0.46697369" x="109.98477" y="154.78966" height="0" style="opacity:.578" id="rect1327"/>
<rect width="0.46697369" x="93.581467" y="143.50511" height="0" style="opacity:.578" id="rect2482"/>
<g style="stroke-width:1.016">
<rect width="0.47438598" x="71.21183" y="142.43111" height="0" style="opacity:.578" id="rect1327-7"/>
<rect width="0.47438598" x="54.548157" y="130.96744" height="0" style="opacity:.578" id="rect2482-5"/>
</g>
</g>
<path style="fill:#dca100;stroke-width:1.051" id="path3425" d="M 9.5074248,1 7.5,19 H 12 L 3.0862105,45 5,25 H 1 Z"/>
<g style="stroke-width:1.016;fill:#dcdcdc">
<rect width="0.4183211" x="43.360146" y="233.43118" height="0" style="opacity:.578" id="rect1327-9"/>
<rect width="0.4183211" x="28.665857" y="213.87953" height="0" style="opacity:.578" id="rect2482-6"/>
</g>
<g style="fill:#fff">
<rect width="0.46697369" x="12.016009" y="161.44591" height="0" style="opacity:.578" id="rect1327-2"/>
<rect width="0.46697369" x="-4.3872952" y="150.16136" height="0" style="opacity:.578" id="rect2482-9"/>
<path id="path3425-1" d="m 17.9688,36.3438 h 12.0625 c 1.12559,0 2.03125,0.905663 2.03125,2.03125 v 1.59375 c 0,1.12559 -0.905663,2.03125 -2.03125,2.03125 h -12.0625 c -1.12559,0 -2.03125,-0.905663 -2.03125,-2.03125 v -1.59375 c 0,-1.12559 0.905663,-2.03125 2.03125,-2.03125 z "/>
<rect width="0.47438598" x="-16.720791" y="151.68851" height="0" style="opacity:.578" id="rect1327-6"/>
<rect width="0.47438598" x="-33.384464" y="140.22484" height="0" style="opacity:.578" id="rect2482-7"/>
<path id="path826" d="m 17.9688,28.3438 h 12.0625 c 1.12559,0 2.03125,0.905663 2.03125,2.03125 v 1.59375 c 0,1.12559 -0.905663,2.03125 -2.03125,2.03125 h -12.0625 c -1.12559,0 -2.03125,-0.905663 -2.03125,-2.03125 v -1.59375 c 0,-1.12559 0.905663,-2.03125 2.03125,-2.03125 z "/>
<path id="path827" d="m 17.9688,20.3438 h 12.0625 c 1.12559,0 2.03125,0.905663 2.03125,2.03125 v 1.59375 c 0,1.12559 -0.905663,2.03125 -2.03125,2.03125 h -12.0625 c -1.12559,0 -2.03125,-0.905663 -2.03125,-2.03125 v -1.59375 c 0,-1.12559 0.905663,-2.03125 2.03125,-2.03125 z "/>
<path id="path831" d="m 32.0625,15.5 v 0.468751 c 0,1.12559 -0.905663,2.03125 -2.03125,2.03125 h -12.0625 c -1.12559,0 -2.03125,-0.905663 -2.03125,-2.03125 v -0.468751 Z "/>
</g>
</svg>
