<svg width="48" version="1.1" xmlns="http://www.w3.org/2000/svg" height="48">
<path style="fill:#00a200;stroke-width:.984" id="path3981" d="m 14.1701,8 c -0.725163,0 -1.17006,0.473007 -1.17006,1.25189 v 33.6207 c 0,0.785149 0.533368,1.34984 1.17006,1.45164 5.97109,0.95469 13.9427,0.845645 19.6599,0 0.637854,-0.094347 1.17007,-0.653794 1.17007,-1.45164 v -33.6207 c 0,-0.841719 -0.525237,-1.25189 -1.17007,-1.25189 Z "/>
<path style="fill:#d2d2d2;stroke-width:1.008" id="path3485" d="m 29.4433,3 c 1.19946,4.2e-06 1.55677,0.351588 1.55673,1.48174 l 0,6.1386 c -4.99417,0.506141 -9.00543,0.506141 -14,0 v -6.13901 c 0,-1.14137 0.321851,-1.48138 1.36086,-1.48138 Z "/>
<g style="fill:#fff">
<rect width="0.46697369" x="109.98477" y="154.78966" height="0" style="opacity:.578" id="rect1327"/>
<rect width="0.46697369" x="93.581467" y="143.50511" height="0" style="opacity:.578" id="rect2482"/>
<g style="color:#bebebe" id="g9" transform="matrix(1.015873,0,0,1.015873,-36.714524,-9.9305009)">
<rect width="0.46697369" x="109.50977" y="152.06654" height="0" style="opacity:.578" id="rect1327-6"/>
<rect width="0.46697369" x="93.106468" y="140.782" height="0" style="opacity:.578" id="rect2482-7"/>
</g>
<path style="opacity:.8;stroke-width:.984" id="path879" d="m 23.8984,23.8984 v 8.63867 l 4.3027,4.3027 -4.3027,4.3027 v 3.85547 c 3.52079,-0.005135 7.01859,-0.242948 9.93164,-0.673828 0.637854,-0.094347 1.16992,-0.653329 1.16992,-1.45117 v -15.873 l -3.2871,-3.1016 h -7.81445 z "/>
</g>
<path style="fill:#ff3219;color:#bebebe" id="path3761-2-3-5-4-8-9-8-0-1-7" d="m 25.3981,25.3979 h 6.21552 l 5.0854,4.9442 4.9442,-4.9442 h 6.35683 v 6.63934 l -4.9442,4.8029 4.9442,4.8029 v 6.35683 h -6.49803 l -4.8029,-4.8029 -4.8029,4.8029 h -6.49803 v -6.35683 l 4.8029,-4.8029 -4.8029,-4.8029 v -6.63934 z "/>
</svg>
