<svg width="48" version="1.1" xmlns="http://www.w3.org/2000/svg" height="48" xmlns:xlink="http://www.w3.org/1999/xlink">
<defs>
<linearGradient id="linearGradient3">
<stop offset="0" style="stop-color:#e3e3e3"/>
<stop offset="1" style="stop-color:#bfbfbf"/>
</linearGradient>
<linearGradient id="linearGradient1">
<stop offset="0" style="stop-color:#00bd00"/>
<stop offset="1" style="stop-color:#008a00"/>
</linearGradient>
<linearGradient xlink:href="#linearGradient1" id="linearGradient2" y1="26.5" x1="13" y2="26.5" x2="35" gradientUnits="userSpaceOnUse"/>
<linearGradient xlink:href="#linearGradient3" id="linearGradient4" y1="6.9525175" x1="18" y2="6.9525175" x2="30" gradientUnits="userSpaceOnUse"/>
</defs>
<path style="fill:url(#linearGradient2)" d="m 14.1701,8 c -0.725163,0 -1.17006,0.473007 -1.17006,1.25189 v 33.6207 c 0,0.785149 0.533368,1.34984 1.17006,1.45164 5.97109,0.95469 13.9427,0.845645 19.6599,0 0.637854,-0.094347 1.17007,-0.653794 1.17007,-1.45164 v -33.6207 c 0,-0.841719 -0.525237,-1.25189 -1.17007,-1.25189 Z "/>
<path style="fill:url(#linearGradient4)" d="m 28.442943,3 c 1.199381,0 1.556667,0.351588 1.556627,1.48174 v 6.1386 C 25,11 23,11 18,10.62034 V 4.48133 c 0,-1.14137 0.32183,-1.48138 1.36077,-1.48138 z"/>
<rect width="16.124998" x="15.937501" y="40" height="2" style="fill:#fff;fill-rule:evenodd"/>
<path style="fill:#dca100" d="M 9.5074248,1 7.5,19 H 12 L 3.0862105,45 5,25 H 1 Z"/>
<g style="fill:#fff">
<path d="m 23.7223,12.1871 c 2.30167,-0.01156 4.60897,1.85107 4.15625,4.21664 l -2.2812,11.9201 h -2.875 l -2.5938,-11.9201 c -0.497385,-2.28584 1.29208,-4.20507 3.59375,-4.21664 z "/>
<path d="m 23.9098,29.9997 c 1.43697,-0.0057 2.90157,0.794497 3.5625,2.125 1.18133,2.05937 -0.0076,4.91172 -2.3125,5.5 -2.37982,0.803109 -5.18586,-1.18558 -5.09375,-3.71875 -0.02904,-1.18315 0.56703,-2.25918 1.46875,-3 0.668959,-0.610971 1.51282,-0.903143 2.375,-0.90625 z "/>
</g>
</svg>
