<svg width="48" version="1.0" xmlns="http://www.w3.org/2000/svg" viewBox="0 0 47.25 43.407375" height="48" style="overflow:visible;enable-background:new 0 0 126 115.753">
<g style="stroke:none">
<path style="fill:#00a200" id="path4238" d="m 14.8887,3.4312 c -0.644208,0 -1.16895,0.434301 -1.16895,0.953613 v 36.2681 c 0,0.519308 0.52474,0.953614 1.16895,0.953614 5.94839,1.05656 11.744,0.714755 17.4727,0 0.644208,0 1.16895,-0.434306 1.16895,-0.953614 v -36.2681 c 4e-06,-0.519316 -0.524736,-0.953613 -1.16895,-0.953613 h -1.32275 -14.8271 z "/>
<g style="fill:#fff">
<path id="path4236" d="m 17.688,10.2296 11.874,0 c 1.108,0 1.99951,0.891512 1.99951,1.99951 v 1.56885 c 0,1.108 -0.891512,1.99951 -1.99951,1.99951 h -11.874 c -1.108,0 -1.99951,-0.891513 -1.99951,-1.99951 v -1.56885 c 0,-1.108 0.891512,-1.99951 1.99951,-1.99951 z "/>
<path id="path4234" d="m 17.688,18.1046 11.874,0 c 1.108,0 1.99951,0.891512 1.99951,1.99951 v 1.56885 c 0,1.108 -0.891512,1.99951 -1.99951,1.99951 h -11.874 c -1.108,0 -1.99951,-0.891512 -1.99951,-1.99951 v -1.56885 c 0,-1.108 0.891512,-1.99951 1.99951,-1.99951 z "/>
<path id="path4232" d="m 17.688,25.9796 11.874,0 c 1.108,0 1.99951,0.891512 1.99951,1.99951 v 1.56885 c 0,1.108 -0.891512,1.99951 -1.99951,1.99951 h -11.874 c -1.108,0 -1.99951,-0.891512 -1.99951,-1.99951 v -1.56885 c 0,-1.108 0.891512,-1.99951 1.99951,-1.99951 z "/>
<path id="path3425" d="m 17.688,33.8546 11.874,0 c 1.108,0 1.99951,0.891512 1.99951,1.99951 v 1.56885 c 0,1.108 -0.891512,1.99951 -1.99951,1.99951 h -11.874 c -1.108,0 -1.99951,-0.891512 -1.99951,-1.99951 v -1.56885 c 0,-1.108 0.891512,-1.99951 1.99951,-1.99951 z "/>
</g>
<path style="fill:#d2d2d2" id="path3485" d="m 18.5031,-.051 10.2439,0 c 0.641628,-6.85e-06 1.15816,0.652672 1.15815,1.46341 v 4.8574 c -4.02263,0.499083 -8.16242,0.641838 -12.5602,9e-07 v -4.8574 c 2e-06,-0.810729 0.516535,-1.46341 1.15816,-1.46341 z "/>
<g style="fill:#fff">
<rect width="0.46697369" x="109.50977" y="152.06654" height="0" style="opacity:.578" id="rect1327"/>
<rect width="0.46697369" x="93.106468" y="140.782" height="0" style="opacity:.578" id="rect2482"/>
<rect width="0.46697369" x="109.50977" y="152.06654" height="0" style="opacity:.578" id="rect1327-2"/>
<rect width="0.46697369" x="93.106468" y="140.782" height="0" style="opacity:.578" id="rect2482-69"/>
</g>
<g style="fill:#dca100" id="g4118" transform="matrix(0.88181589,0,0,1.705532,-14.474188,-17.709616)">
<path id="path3425-3" d="m 27.2246,12.6481 -2.8537,9.0152 5.8372,0 -10.669,13.1336 2.497,-9.9556 -4.994,0 10.1826,-12.1932 z "/>
<rect width="0.46697369" x="109.50977" y="152.06654" height="0" style="opacity:.578" id="rect1327-9"/>
<rect width="0.46697369" x="93.106468" y="140.782" height="0" style="opacity:.578" id="rect2482-6"/>
</g>
</g>
</svg>
