<svg width="48" version="1.1" xmlns="http://www.w3.org/2000/svg" height="48" xmlns:xlink="http://www.w3.org/1999/xlink">
<defs>
<linearGradient id="linearGradient3">
<stop offset="0" style="stop-color:#e3e3e3"/>
<stop offset="1" style="stop-color:#bfbfbf"/>
</linearGradient>
<linearGradient id="linearGradient1">
<stop offset="0" style="stop-color:#00bd00"/>
<stop offset="1" style="stop-color:#008a00"/>
</linearGradient>
<linearGradient xlink:href="#linearGradient3" id="linearGradient4" y1="6.9525175" x1="18" y2="6.9525175" x2="30" gradientUnits="userSpaceOnUse"/>
<linearGradient xlink:href="#linearGradient1" id="linearGradient2" y1="26.5" x1="13" y2="26.5" x2="35" gradientUnits="userSpaceOnUse"/>
</defs>
<path style="opacity:.05" d="m 19.3613,2 c -0.628559,0 -1.31384,0.103431 -1.80469,0.634766 -0.490847,0.531335 -0.556641,1.18298 -0.556641,1.84766 v 6.41797 h 14 v -6.41797 c 0,-0.67046 -0.09851,-1.37118 -0.636719,-1.88672 C 29.825046,2.080163 29.14073,2 28.44333,2 Z"/>
<path style="opacity:.08" d="m 19.361328,2.25 c -0.601286,0 -1.200377,0.097315 -1.621094,0.5527344 C 17.319518,3.2581539 17.25,3.8392917 17.25,4.4804687 V 11 h 13.5 V 4.4824219 C 30.750023,3.8383082 30.652916,3.2193393 30.189453,2.7753906 29.72599,2.331442 29.116335,2.25 28.443359,2.25 Z"/>
<path style="opacity:.12" d="m 19.361328,2.5 c -0.574014,0 -1.086914,0.093152 -1.4375,0.4726563 C 17.573242,3.3521605 17.5,3.8627891 17.5,4.4804687 V 11 l 13,0 V 4.4824219 C 30.5,3.8646541 30.4063,3.3274326 30.017578,2.9550781 29.628857,2.5827237 29.091907,2.5 28.443359,2.5 Z"/>
<path style="opacity:.3" d="m 19.361328,2.75 c -0.546742,0 -0.973451,0.088989 -1.253906,0.3925781 C 17.826966,3.4461671 17.75,3.8862864 17.75,4.4804687 V 10 h 12.5 V 4.4824219 C 30.250021,3.891 30.15773,3.437479 29.84375,3.1367188 29.52977,2.8359585 29.067478,2.75 28.443359,2.75 Z"/>
<path style="fill:url(#linearGradient2)" d="m 14.1701,8 c -0.725163,0 -1.17006,0.473007 -1.17006,1.25189 v 33.6207 c 0,0.785149 0.533368,1.34984 1.17006,1.45164 5.97109,0.95469 13.9427,0.845645 19.6599,0 0.637854,-0.094347 1.17007,-0.653794 1.17007,-1.45164 v -33.6207 c 0,-0.841719 -0.525237,-1.25189 -1.17007,-1.25189 Z "/>
<path style="fill:url(#linearGradient4)" d="m 28.442943,3 c 1.199381,0 1.556667,0.351588 1.556627,1.48174 v 6.1386 C 25,11 23,11 18,10.62034 V 4.48133 c 0,-1.14137 0.32183,-1.48138 1.36077,-1.48138 z"/>
<g style="fill:#fff">
<rect width="16.124998" x="15.937501" y="40" height="2" style="fill-rule:evenodd"/>
<path d="m 24,14.1874 c 2.30167,-0.01156 4.33157,1.85107 3.87885,4.21664 l -2.2812,9.9201 h -2.875 l -2.5938,-9.9201 C 19.631465,16.1182 21.69833,14.19897 24,14.1874 Z"/>
<path d="m 23.9101,30 c 1.43697,-0.0057 2.90157,0.794497 3.5625,2.125 1.18133,2.05937 -0.0076,4.91172 -2.3125,5.5 -2.37982,0.803109 -5.18586,-1.18558 -5.09375,-3.71875 -0.02904,-1.18315 0.56703,-2.25918 1.46875,-3 0.668959,-0.610971 1.51282,-0.903143 2.375,-0.90625 z"/>
</g>
</svg>
