<svg width="48" version="1.0" xmlns="http://www.w3.org/2000/svg" viewBox="0 0 47.25 43.407375" height="48" style="overflow:visible;enable-background:new 0 0 126 115.753">
<g id="g14">
<path style="fill:#00a200" id="path3981" d="m 15.125,5.4375 c -0.654435,0 -1.1875,0.441195 -1.1875,0.96875 v 36.8438 c 0,0.527551 0.53307,0.96875 1.1875,0.96875 6.04281,1.07333 11.9304,0.726099 17.75,0 0.654435,0 1.1875,-0.441199 1.1875,-0.96875 v -36.8438 c 4e-06,-0.527559 -0.533064,-0.96875 -1.1875,-0.96875 h -1.34375 -15.0625 z " transform="matrix(0.984375,0,0,0.984375,0,-1.9213125)"/>
<path style="fill:#d2d2d2" id="path3485" d="m 18.5031,-.051 10.2439,0 c 0.641628,-6.85e-06 1.15816,0.652672 1.15815,1.46341 v 4.8574 c -4.02263,0.499083 -8.16242,0.641838 -12.5602,9e-07 v -4.8574 c 2e-06,-0.810729 0.516535,-1.46341 1.15816,-1.46341 z "/>
<g style="fill:#fff" id="g6">
<rect width="0.46697369" x="109.50977" y="152.06654" height="0" style="opacity:.578" id="rect1327"/>
<rect width="0.46697369" x="93.106468" y="140.782" height="0" style="opacity:.578" id="rect2482"/>
</g>
<path style="fill:#dca100" id="path3425" d="m 9.5329,3.862 -2.5165,15.3756 5.1473,0 -9.4081,22.3998 2.2019,-16.9796 -4.4038,0 l 8.9792,-20.7958 Z "/>
<g style="fill:#dcdcdc" id="g11">
<rect width="0.41178483" x="82.093269" y="241.64474" height="0" style="opacity:.578" id="rect1327-9"/>
<rect width="0.41178483" x="67.628578" y="222.39859" height="0" style="opacity:.578" id="rect2482-6"/>
</g>
</g>
</svg>
