<svg width="48" version="1.0" xmlns="http://www.w3.org/2000/svg" viewBox="0 0 47.25 43.407375" height="48" style="overflow:visible;enable-background:new 0 0 126 115.753">
<g style="stroke:none">
<path style="fill:#00a200" id="path4235" d="m 14.8887,3.4312 c -0.64421,0 -1.16895,0.434301 -1.16895,0.953613 v 36.2681 c 0,0.519308 0.52474,0.953614 1.16895,0.953614 5.94839,1.05656 11.744,0.714753 17.4727,0 0.64421,0 1.16895,-0.434306 1.16895,-0.953614 v -36.2681 c 4e-06,-0.519316 -0.524734,-0.953613 -1.16895,-0.953613 h -1.32275 -14.8271 z "/>
<g style="fill:#fff">
<path id="path4233" d="m 23.3481,11.2447 c 2.58438,0.04912 4.7562,1.93442 4.5707,4.12207 -0.395544,4.6648 -2.44814,11.9048 -2.44814,11.9048 h -3.38379 c 0,0 -2.26259,-6.9969 -2.75576,-11.9048 -0.155675,-1.54925 1.4326,-4.17118 4.01699,-4.12207 z "/>
<path id="path3981" d="m 23.5635,30.7784 c 1.53061,-0.006 3.07969,0.859162 3.78369,2.27637 1.25831,2.19356 -0.0058,5.24887 -2.46094,5.87549 -2.5349,0.855445 -5.5737,-1.27002 -5.47558,-3.96826 -0.03094,-1.26025 0.639129,-2.41012 1.59961,-3.19922 0.712551,-0.650786 1.63486,-0.981032 2.55322,-0.984375 z "/>
</g>
<path style="fill:#d2d2d2" id="path3485" d="m 18.5031,-.051 10.2439,0 c 0.641628,-6.85e-06 1.15816,0.652672 1.15815,1.46341 v 4.8574 c -4.02263,0.499083 -8.16242,0.641838 -12.5602,9e-07 v -4.8574 c 2e-06,-0.810729 0.516535,-1.46341 1.15816,-1.46341 z "/>
<g style="fill:#fff">
<rect width="0.46697369" x="109.50977" y="152.06654" height="0" style="opacity:.578" id="rect1327"/>
<rect width="0.46697369" x="93.106468" y="140.782" height="0" style="opacity:.578" id="rect2482"/>
<rect width="0.46697369" x="109.50977" y="152.06654" height="0" style="opacity:.578" id="rect1327-1"/>
<rect width="0.46697369" x="93.106468" y="140.782" height="0" style="opacity:.578" id="rect2482-60"/>
</g>
<g style="fill:#dca100" id="g4118" transform="matrix(0.88181589,0,0,1.705532,-14.474188,-17.709616)">
<path id="path3425" d="m 27.2246,12.6481 -2.8537,9.0152 5.8372,0 -10.669,13.1336 2.497,-9.9556 -4.994,0 10.1826,-12.1932 z "/>
<rect width="0.46697369" x="109.50977" y="152.06654" height="0" style="opacity:.578" id="rect1327-9"/>
<rect width="0.46697369" x="93.106468" y="140.782" height="0" style="opacity:.578" id="rect2482-6"/>
</g>
</g>
</svg>
