<svg width="96" version="1.0" xmlns="http://www.w3.org/2000/svg" height="96">
<g style="fill-rule:evenodd">
<rect width="75.874847" x="10.265" y="4.902215" rx="37.937401" ry="43.13168" height="86.488785" style="fill:#005bc8"/>
<path style="opacity:.35" d="m 43.9883,9.326 v 29.0762 l -15.0566,-12.1562 -5.1133,4.291 -1.5362,1.2647 1.5362,1.2355 18.748,12.7537 -19.0332,15.252 -1.5774,1.245 1.5774,1.2552 5.9668,2.2674 14.4883,-12.3945 v 28.8398 l 26.9863,-18.7127 1.5263,-1.2113 -1.5263,-1.2889 -17.8965,-15.0137 17.3281,-12.2772 1.4652,-1.2539 -1.4652,-1.2463 Z  m 7.3848,14.0605 8.8066,8.1035 -8.8066,7.1504 z  m -.2832,30.2676 9.375,7.1504 -8.8066,6.4355 z "/>
<path style="fill:#a8ffad" d="m 43.9883,11.8262 v 29.0762 l -15.0566,-12.1562 -5.1133,4.291 18.748,15.2539 -19.0332,15.252 5.9668,4.7676 14.4883,-12.3945 v 28.8398 l 26.9863,-21.2129 -17.8965,-15.0137 17.3281,-14.7773 -26.418,-21.9258 z  m 7.3848,14.0605 l 8.8066,8.1035 -8.8066,7.1504 v -15.2539 z  m -.2832,30.2676 l 9.375,7.1504 -8.8066,6.4355 -.5684,-13.5859 z "/>
</g>
</svg>
