<svg width="48" version="1.1" xmlns="http://www.w3.org/2000/svg" height="48" xmlns:xlink="http://www.w3.org/1999/xlink">
<defs>
<linearGradient id="linearGradient1">
<stop offset="0" style="stop-color:#0087c7"/>
<stop offset="1" style="stop-color:#006f9e"/>
</linearGradient>
<linearGradient xlink:href="#linearGradient1" id="linearGradient2" y1="19.61435" x1="12.04155" y2="19.61435" x2="35.95835" gradientUnits="userSpaceOnUse"/>
</defs>
<path style="fill:#5a5a5a" d="m 17.3954,31.6124 c -0.321838,0 -0.577033,0.254696 -0.577033,0.577032 v 13.0332 c 0,0.322336 0.255195,0.577033 0.577033,0.577033 h 13.3366 c 0.618462,0 1.07703,-0.376806 1.07703,-1.07666 v -12.5336 c 0,-0.322336 -0.255195,-0.577032 -0.577032,-0.577032 z  m 2.797,8 h 3.4419 v 3.1416 h -3.4419 z  m 5.1292,0 h 3.4419 v 3.1416 h -3.4419 z "/>
<rect width="12.309719" x="17.845297" y="-46.683613" height="13.335554" style="opacity:.715;fill:none" transform="scale(1,-1)"/>
<path style="fill:#c8c8c8" d="m 17.3963,30.7744 c -0.321837,0 -0.577032,0.254696 -0.577032,0.577032 v 13.0332 c 0,0.322336 0.255195,0.577033 0.577032,0.577033 h 13.2076 c 0.321837,0 0.577032,-0.254697 0.577032,-0.577033 v -13.0332 c 0,-0.322336 -0.255195,-0.577032 -0.577032,-0.577032 z  m 2.4684,8 h 3.1416 v 3.1416 h -3.1416 z  m 5.1292,0 h 3.1416 v 3.1416 h -3.1416 z "/>
<path style="fill:#004564" d="m 13.7085,3 c -0.925609,0 -1.66695,0.745428 -1.66695,1.66695 v 30.694793 c 0,0.921529 0.741348,1.66695 1.66695,1.66695 H 34.192 c 1.558,0 2.36662,-0.9795 2.36662,-2.3665 V 4.668 c 0,-0.92153 -0.741349,-1.66745 -1.66695,-1.66745 z"/>
<path style="fill:url(#linearGradient2)" d="m 13.7085,3 c -0.925609,0 -1.66695,0.745428 -1.66695,1.66695 v 29.8948 c 0,0.921529 0.741348,1.66695 1.66695,1.66695 h 20.5829 c 0.925609,0 1.66695,-0.745428 1.66695,-1.66695 v -29.8948 c 0,-0.92153 -0.741348,-1.66695 -1.66695,-1.66695 z "/>
<path style="opacity:.3;stroke-width:1.049" d="m 23.2591,5.9124 c 2.08342,0 3.77053,1.68695 3.77053,3.77037 0,2.08342 -1.68711,3.77066 -3.77053,3.77066 -2.08342,0 -3.77053,-1.68724 -3.77053,-3.77066 0,-2.08342 1.68711,-3.77037 3.77053,-3.77037 z"/>
<path style="opacity:.3" d="m 18,16.2 h 8.75 V 27.7 H 30 v 2.5 H 18 v -2.5 h 3.25 v -9 H 18 Z"/>
<g style="fill:#fff">
<path d="m 23.2812,6.7122 c 1.98574,0 3.59375,1.60801 3.59375,3.59375 0,1.98574 -1.60801,3.59375 -3.59375,3.59375 -1.98574,0 -3.59375,-1.60801 -3.59375,-3.59375 0,-1.98574 1.60801,-3.59375 3.59375,-3.59375 z"/>
<path d="m 18,17 h 8.75 v 11.5 H 30 v 2.5 H 18 v -2.5 h 3.25 v -9 H 18 Z"/>
</g>
</svg>
