<svg width="48" version="1.1" xmlns="http://www.w3.org/2000/svg" height="48">
<path style="fill:#9d1100" d="m 24,2.5 c -11.8742,0 -21.5,9.62604 -21.5,21.5 0,11.8744 9.62577,21.5 21.5,21.5 11.8731,0 21.5,-9.6255 21.5,-21.5 0,-11.874 -9.62686,-21.5 -21.5,-21.5 Z "/>
<path style="opacity:.3" d="m 9.907,19.329 h 28.186 c 0.913039,0 1.63872,0.806549 1.63872,1.80259 v 3.73628 c 0,0.996043 -0.72568,1.80259 -1.63872,1.80259 h -28.186 c -0.913039,0 -1.63872,-0.806549 -1.63872,-1.80259 v -3.73628 c 0,-0.996043 0.725681,-1.80259 1.63872,-1.80259 z "/>
<path style="fill:#fff" d="m 9.907,20.3293 h 28.186 c 0.913039,0 1.63872,0.806549 1.63872,1.80259 v 3.73628 c 0,0.996043 -0.72568,1.80259 -1.63872,1.80259 h -28.186 c -0.913039,0 -1.63872,-0.806549 -1.63872,-1.80259 v -3.73628 c 0,-0.996043 0.725681,-1.80259 1.63872,-1.80259 z "/>
</svg>
