<svg xmlns:xlink="http://www.w3.org/1999/xlink" version="1.1" width="48" xmlns="http://www.w3.org/2000/svg" height="48">
<defs id="defs3"/>
<g id="layer2">
<path style="fill:#00a200;fill-rule:evenodd;stroke:none" id="path3182" d="m 22.0986,2 -.208,.8322 -2.0284,2.1324 0,24.305 c -3.98037,1.09937 -6.23808,4.71227 -6.23808,8.10527 0,4.33794 4.6214,8.62519 10.3499,8.62519 5.72848,0 10.4019,-4.28725 10.4019,-8.62519 0,-3.45174 -2.3572,-7.10245 -6.44598,-8.15728 v -4.95749 l -2.4965,-2.1844 v -1.45627 l 1.4605,-.9882 v -2.34042 l -1.2005,-.4161 v -2.23641 l 2.2915,-1.0402 v -1.92435 l -1.7714,-1.1962 v -1.6643 l 1.9274,-1.4043 v -1.82033 l -3.9038,-3.5887 z  m 1.8754,35.1747 c 2.03333,0 3.92618,1.37391 3.83621,3.21623 -0.08997,1.84232 -1.80287,3.26865 -3.83621,3.26865 -2.03333,0 -3.78398,-1.24637 -3.78398,-3.26865 3e-06,-2.02228 1.75065,-3.21623 3.78398,-3.21623 z "/>
</g>
</svg>
