<svg width="48" version="1.1" xmlns="http://www.w3.org/2000/svg" height="48">
<g id="layer1" transform="matrix(1.0487805,0,0,1.0487805,-1.170732,-1.170732)">
<path style="fill:#9d1100" id="path2990" d="M 24,3.5 C 12.6781,3.5 3.5,12.67832 3.5,24 3.5,35.3221 12.67806,44.5 24,44.5 35.3209,44.5 44.5,35.3222 44.5,24 44.5,12.6783 35.3209,3.5 24,3.5 Z"/>
<path style="fill:#fff" id="path6495" d="m 10.5625,20.5 h 26.875 C 38.308072,20.5 39,21.269035 39,22.21875 v 3.5625 C 39,26.730965 38.308072,27.5 37.4375,27.5 H 10.5625 C 9.6919283,27.5 9,26.730965 9,25.78125 v -3.5625 C 9,21.269035 9.6919283,20.5 10.5625,20.5 Z"/>
</g>
</svg>
