<svg width="48" version="1.1" xmlns="http://www.w3.org/2000/svg" height="48">
<defs id="defs7189"/>
<g style="stroke:none" id="layer1">
<path style="fill:#9d1100" id="path2990" d="m 24,3.5 c -11.3219,0 -20.5,9.17832 -20.5,20.5 0,11.3221 9.17806,20.5 20.5,20.5 11.3209,0 20.5,-9.1778 20.5,-20.5 0,-11.3217 -9.1791,-20.5 -20.5,-20.5 z "/>
<path style="fill:#fff" id="path6495" d="m 10.5625,20.5 26.875,0 C 38.308072,20.5 39,21.269035 39,22.21875 l 0,3.5625 C 39,26.730965 38.308072,27.5 37.4375,27.5 l -26.875,0 C 9.6919283,27.5 9,26.730965 9,25.78125 l 0,-3.5625 C 9,21.269035 9.6919283,20.5 10.5625,20.5 z"/>
</g>
</svg>
