<svg width="48" version="1.1" xmlns="http://www.w3.org/2000/svg" height="48">
<g id="layer1" transform="matrix(1.0487805,0,0,1.0487805,-1.170732,-1.170732)">
<path style="fill:#3e659e" id="path3006" d="M 24,3.5 C 12.6781,3.5 3.5,12.67832 3.5,24 3.5,35.3221 12.67806,44.5 24,44.5 35.3209,44.5 44.5,35.3222 44.5,24 44.5,12.6783 35.3209,3.5 24,3.5 Z"/>
<g style="fill:#fff" id="g6">
<path id="path3004" d="m 23.875,8.6562 c 1.98574,0 3.59375,1.60801 3.59375,3.59375 0,1.98574 -1.60801,3.59375 -3.59375,3.59375 -1.98574,0 -3.59375,-1.60801 -3.59375,-3.59375 0,-1.98574 1.60801,-3.59375 3.59375,-3.59375 z"/>
<path id="path6495" d="m 18.5938,18.8438 h 8.75 v 15.5 h 3.25 v 2.5 h -12 v -2.5 h 3.25 v -13 h -3.25 z"/>
</g>
</g>
</svg>
