<svg width="48" version="1.1" xmlns="http://www.w3.org/2000/svg" height="48">
<path style="fill:#0099c4" d="m 24,2.5 c -11.8742,0 -21.5,9.62605 -21.5,21.5 0,11.8744 9.62578,21.5 21.5,21.5 11.8731,0 21.5,-9.62551 21.5,-21.5 0,-11.874 -9.62687,-21.5 -21.5,-21.5 Z "/>
<path style="opacity:.3" d="m 23.8437,9.3381 c 0.511053,-0.01398 1.04024,-0.01715 1.53125,0 4.42513,0.154517 7.57015,2.66401 7.625,5.66211 0.06146,3.35968 -2.01251,5.00972 -4.5,7 -2.5,2.0229 -2,5 -2,7 h -4.5 v -2 c 0,-3 1.53014,-5.02857 3.5,-7.5 1.98215,-2.48687 2.05497,-4.44967 1.5,-5.5 -0.55497,-1.05033 -1.91702,-1.30587 -2.90624,-1.25 -0.98923,0.05588 -1.55622,0.241062 -2.09375,0.71875 -0.537528,0.477687 -0.830781,1.06824 -1,1.53125 -0.169219,0.463012 -0.212415,1.28472 -0.4375,1.71875 -0.225085,0.434035 -0.832325,1.375 -2.875,1.12501 -2.04268,-0.25 -2.60745,-2.66061 -1.65626,-4.875 1.1687,-2.72075 4.07096,-3.52854 7.8125,-3.63086 z "/>
<path style="fill:#fff" d="m 23.8437,10.3379 c 0.511053,-0.01398 1.04024,-0.01715 1.53125,0 4.42513,0.154517 7.57015,2.66401 7.625,5.66211 0.06146,3.35968 -2.01251,5.00972 -4.5,7 -2.5,2.0229 -2,5 -2,7 h -4.5 v -2 c 0,-3 1.53014,-5.02857 3.5,-7.5 1.98215,-2.48687 2.05497,-4.44967 1.5,-5.5 -0.55497,-1.05033 -1.91702,-1.30587 -2.90624,-1.25 -0.98923,0.05588 -1.55622,0.241062 -2.09375,0.71875 -0.537528,0.477687 -0.830781,1.06824 -1,1.53125 -0.169219,0.463012 -0.212415,1.28472 -0.4375,1.71875 -0.225085,0.434035 -0.832325,1.375 -2.875,1.12501 -2.04268,-0.25 -2.60745,-2.66061 -1.65626,-4.875 1.1687,-2.72075 4.07096,-3.52854 7.8125,-3.63086 z "/>
<path style="opacity:.3" d="m 24.5937,31.231 c 1.98569,0 3.69328,1.78709 3.69328,3.99388 0,2.20678 -1.7076,3.99387 -3.69328,3.99387 -1.9857,0 -3.69372,-1.78709 -3.69372,-3.99387 0,-2.20677 1.70802,-3.99387 3.69372,-3.99387 Z "/>
<path style="fill:#fff" d="m 24.5937,32.0312 c 1.98569,0 3.59375,1.60805 3.59375,3.59375 0,1.9857 -1.60806,3.59375 -3.59375,3.59375 -1.9857,0 -3.59375,-1.60805 -3.59375,-3.59375 0,-1.98569 1.60805,-3.59375 3.59375,-3.59375 z "/>
</svg>
