<svg width="48" version="1.1" xmlns="http://www.w3.org/2000/svg" height="48">
<path style="fill:#3e659e" d="m 24,2.5 c -11.8742,0 -21.5,9.62604 -21.5,21.5 0,11.8744 9.62577,21.5 21.5,21.5 11.8731,0 21.5,-9.6255 21.5,-21.5 0,-11.874 -9.62686,-21.5 -21.5,-21.5 Z "/>
<path style="opacity:.3" d="m 23.8689,7.108 c 2.08261,0 3.8691,1.86537 3.8691,4.16892 0,2.30355 -1.78649,4.16892 -3.8691,4.16892 -2.0826,0 -3.8689,-1.86537 -3.8689,-4.16892 0,-2.30355 1.7863,-4.16892 3.8689,-4.16892 Z "/>
<path style="fill:#fff" d="m 23.8689,7.9077 c 2.08261,0 3.76906,1.68645 3.76906,3.76906 0,2.0826 -1.68645,3.76905 -3.76906,3.76905 -2.08261,0 -3.76905,-1.68645 -3.76905,-3.76905 0,-2.08261 1.68645,-3.76906 3.76905,-3.76906 z "/>
<path style="opacity:.3" d="m 18.3301,17.592 h 9.17683 v 16.2561 h 3.40854 v 2.62195 h -12.5854 v -2.62195 h 3.40854 v -13.6341 h -3.40854 z "/>
<path style="fill:#fff" d="m 18.3301,18.5923 h 9.17683 v 16.2561 h 3.40854 v 2.62195 h -12.5854 v -2.62195 h 3.40854 v -13.6341 h -3.40854 z "/>
</svg>
