<svg xmlns:xlink="http://www.w3.org/1999/xlink" version="1.1" width="48" xmlns="http://www.w3.org/2000/svg" height="48">
<defs id="defs7222"/>
<g style="stroke:none" id="layer1">
<path style="fill:#0099c4" id="path3008" d="m 24,3.5 c -11.3219,0 -20.5,9.17833 -20.5,20.5 0,11.3221 9.17807,20.5 20.5,20.5 11.3209,0 20.5,-9.17781 20.5,-20.5 0,-11.3217 -9.17911,-20.5 -20.5,-20.5 z "/>
<g style="fill:#fff">
<path id="path3006" d="m 23.851,11.0683 c 0.487283,-0.01333 0.991862,-0.01635 1.46003,0 0.624224,0.0218 1.21926,0.06128 1.6984,0.148983 1.91658,0.350805 5.51335,1.95138 5.57195,5.1548 0.0586,3.20342 -1.9189,4.77671 -4.2907,6.67442 -2.38372,1.92881 -1.90627,4.76744 -1.90698,6.67442 h -4.2907 v -1.90698 c 0,-2.86047 1.45897,-4.79468 3.33721,-7.15116 1.88996,-2.3712 1.95939,-4.24271 1.43023,-5.24419 -0.529157,-1.00148 -1.82786,-1.24513 -2.77107,-1.19186 -0.943219,0.05328 -1.48384,0.22985 -1.99637,0.68532 -0.512526,0.455469 -0.79214,1.01855 -0.953488,1.46003 -0.161348,0.441476 -0.202535,1.22496 -0.417151,1.63881 -0.214616,0.413847 -0.793612,1.31105 -2.74128,1.07268 -1.94767,-0.238373 -2.48617,-2.53686 -1.57922,-4.64826 0.906953,-2.11139 2.78965,-2.63963 3.93314,-2.97965 0.643211,-0.191262 2.05414,-0.347378 3.51599,-0.387355 z "/>
<path id="path6495" d="m 24.5661,31.6577 c 1.89333,0 3.4266,1.53326 3.4266,3.4266 0,1.89334 -1.53327,3.4266 -3.4266,3.4266 -1.89334,0 -3.4266,-1.53326 -3.4266,-3.4266 0,-1.89333 1.53326,-3.4266 3.4266,-3.4266 z "/>
</g>
</g>
</svg>
