<svg width="48" version="1.1" xmlns="http://www.w3.org/2000/svg" height="48">
<path style="fill:#dca100" d="m 23.9448,3.4676 c -1.08103,0 -2.04931,0.615523 -2.5939,1.59384 l -18.5322,35.252 c -0.436037,0.869613 -0.443137,2.03679 0.093755,2.90641 0.536893,0.869614 1.38786,1.31257 2.46889,1.31257 h 37.1896 c 1.08103,0 2.06411,-0.536714 2.50014,-1.40633 0.544139,-0.869614 0.553339,-1.95935 0.125007,-2.93767 l -18.6573,-35.2208 c -0.536439,-0.978315 -1.51287,-1.5 -2.5939,-1.5 Z "/>
<path style="opacity:.3" d="m 23.7247,9.6551 c 2.30167,-0.01359 4.4452,2.07026 4.15625,3.78125 -0.706036,5.07197 -1.67444,10.1092 -2.28125,15.1875 h -2.875 c -0.731551,-5.28811 -1.73437,-9.92002 -2.59375,-15.1875 -0.304288,-1.6857 1.29208,-3.76765 3.59375,-3.78125 z "/>
<path style="fill:#fff" d="m 23.7247,10.6548 c 2.30167,-0.01359 4.4452,2.07026 4.15625,3.78125 -0.706036,5.07197 -1.67444,10.1092 -2.28125,15.1875 h -2.875 c -0.731551,-5.28811 -1.73437,-9.92002 -2.59375,-15.1875 -0.304288,-1.6857 1.29208,-3.76765 3.59375,-3.78125 z "/>
<path style="opacity:.3" d="m 23.9087,32.842 c 1.4604,-0.0064 2.94887,0.896322 3.62058,2.39735 1.20059,2.3233 -0.0077,5.54122 -2.3502,6.20489 -2.41862,0.906037 -5.27041,-1.33753 -5.17679,-4.19535 -0.02951,-1.33479 0.576274,-2.54872 1.4927,-3.38449 0.679865,-0.689274 1.53748,-1.01889 2.41372,-1.0224 z "/>
<path style="fill:#fff" d="m 23.9122,33.8424 c 1.43697,-0.0057 2.90157,0.794497 3.5625,2.125 1.18133,2.05937 -0.0076,4.91172 -2.3125,5.5 -2.37982,0.803109 -5.18586,-1.18558 -5.09375,-3.71875 -0.02904,-1.18315 0.56703,-2.25918 1.46875,-3 0.668959,-0.610971 1.51282,-0.903143 2.375,-0.90625 z "/>
</svg>
