<svg width="48" version="1.1" xmlns="http://www.w3.org/2000/svg" height="48" xmlns:xlink="http://www.w3.org/1999/xlink">
<defs>
<linearGradient id="linearGradient2">
<stop offset="0"/>
<stop offset="1" style="stop-color:#fff"/>
</linearGradient>
<linearGradient xlink:href="#linearGradient2" id="linearGradient3" y1="15.193" x1="19.876" y2="15.193" x2="21.458" gradientUnits="userSpaceOnUse"/>
</defs>
<g style="fill-rule:evenodd">
<path style="opacity:.02" d="m 22.6986,3.9001 -.208,.8322 -3.0286,2.1324 0,24.305 c -3.88564,1.43958 -6.23749,4.40185 -6.23749,8.10527 0,4.54192 4.45816,8.69839 11.3495,8.62519 6.89135,-0.0732 11.4117,-3.96097 11.4015,-8.62519 -0.008,-3.66926 -2.40419,-6.95279 -6.44561,-8.15728 v -4.95749 l -3.4964,-2.1844 v -1.45627 l 2.4604,-.9882 v -2.34042 l -2.2004,-.4161 v -2.23641 l 3.2914,-1.0402 v -1.92435 l -2.7713,-1.1962 v -1.6643 l 2.9273,-1.4043 v -1.82033 l -3.9038,-3.5887 Z  m 1.8754,34.575 c 2.03333,0 3.92618,1.67368 3.83621,3.516 -0.08997,1.84232 -1.80287,3.56858 -3.83621,3.56858 -2.03333,0 -3.78398,-1.5463 -3.78398,-3.56858 3e-06,-2.02228 1.75065,-3.516 3.78398,-3.516 z "/>
<path style="opacity:.05" d="m 22.5986,3.6001 -.208,.8322 -3.0286,2.1324 0,24.305 c -3.88564,1.43958 -6.23749,4.40185 -6.23749,8.10527 0,4.54192 4.45816,8.69839 11.3495,8.62519 6.89135,-0.0732 11.4117,-3.96097 11.4015,-8.62519 -0.008,-3.66926 -2.40419,-6.95279 -6.44561,-8.15728 v -4.95749 l -3.4964,-2.1844 v -1.45627 l 2.4604,-.9882 v -2.34042 l -2.2004,-.4161 v -2.23641 l 3.2914,-1.0402 v -1.92435 l -2.7713,-1.1962 v -1.6643 l 2.9273,-1.4043 v -1.82033 l -3.9038,-3.5887 Z  m 1.8754,34.575 c 2.03333,0 3.92618,1.67368 3.83621,3.516 -0.08997,1.84232 -1.80287,3.56858 -3.83621,3.56858 -2.03333,0 -3.78398,-1.5463 -3.78398,-3.56858 3e-06,-2.02228 1.75065,-3.516 3.78398,-3.516 z "/>
<path style="opacity:.1" d="m 22.4986,3.2001 -.208,.8322 -3.0286,2.1324 0,24.305 c -3.88564,1.43958 -6.23749,4.40184 -6.23749,8.10527 0,4.54192 4.45816,8.69839 11.3495,8.62519 6.89135,-0.0732 11.4117,-3.96097 11.4015,-8.62519 -0.008,-3.66926 -2.40419,-6.95279 -6.44561,-8.15728 v -4.95749 l -3.4964,-2.1844 v -1.45627 l 2.4604,-.9882 v -2.34042 l -2.2004,-.4161 v -2.23641 l 3.2914,-1.0402 v -1.92435 l -2.7713,-1.1962 v -1.6643 l 2.9273,-1.4043 v -1.82033 l -3.9038,-3.5887 Z  m 1.8754,34.575 c 2.03333,0 3.92618,1.67368 3.83621,3.516 -0.08997,1.84232 -1.80287,3.56858 -3.83621,3.56858 -2.03333,0 -3.78398,-1.5463 -3.78398,-3.56858 3e-06,-2.02228 1.75065,-3.516 3.78398,-3.516 z "/>
<path style="opacity:.15" d="m 22.3986,2.8001 -.208,.8322 -3.0286,2.1324 0,24.305 c -3.88564,1.43958 -6.23749,4.40185 -6.23749,8.10527 0,4.54192 4.45816,8.69839 11.3495,8.62519 6.89135,-0.0732 11.4117,-3.96097 11.4015,-8.62519 -0.008,-3.66926 -2.40419,-6.95279 -6.44561,-8.15728 v -4.95749 l -3.4964,-2.1844 v -1.45627 l 2.4604,-.9882 v -2.34042 l -2.2004,-.4161 v -2.23641 l 3.2914,-1.0402 v -1.92435 l -2.7713,-1.1962 v -1.6643 l 2.9273,-1.4043 v -1.82033 l -3.9038,-3.5887 Z  m 1.8754,34.575 c 2.03333,0 3.92618,1.67368 3.83621,3.516 -0.08997,1.84232 -1.80287,3.56858 -3.83621,3.56858 -2.03333,0 -3.78398,-1.5463 -3.78398,-3.56858 3e-06,-2.02228 1.75065,-3.516 3.78398,-3.516 z "/>
<path style="opacity:.2" d="m 22.2986,2.4001 -.208,.8322 -3.0286,2.1324 0,24.305 c -3.88564,1.43958 -6.23749,4.40185 -6.23749,8.10527 0,4.54192 4.45816,8.69839 11.3495,8.62519 6.89135,-0.0732 11.4117,-3.96097 11.4015,-8.62519 -0.008,-3.66926 -2.40419,-6.95279 -6.44561,-8.15728 v -4.95749 l -3.4964,-2.1844 v -1.45627 l 2.4604,-.9882 v -2.34042 l -2.2004,-.4161 v -2.23641 l 3.2914,-1.0402 v -1.92435 l -2.7713,-1.1962 v -1.6643 l 2.9273,-1.4043 v -1.82033 l -3.9038,-3.5887 Z  m 1.8754,34.575 c 2.03333,0 3.92618,1.67368 3.83621,3.516 -0.08997,1.84232 -1.80287,3.56858 -3.83621,3.56858 -2.03333,0 -3.78398,-1.5463 -3.78398,-3.56858 3e-06,-2.02228 1.75065,-3.516 3.78398,-3.516 z "/>
<path style="opacity:.25" d="m 22.1986,2.2001 -.208,.8322 -3.0286,2.1324 0,24.305 c -3.88564,1.43958 -6.23749,4.40184 -6.23749,8.10527 0,4.54192 4.45816,8.69839 11.3495,8.62519 6.89135,-0.0732 11.4117,-3.96097 11.4015,-8.62519 -0.008,-3.66926 -2.40419,-6.95279 -6.44561,-8.15728 v -4.95749 l -3.4964,-2.1844 v -1.45627 l 2.4604,-.9882 v -2.34042 l -2.2004,-.4161 v -2.23641 l 3.2914,-1.0402 v -1.92435 l -2.7713,-1.1962 v -1.6643 l 2.9273,-1.4043 v -1.82033 l -3.9038,-3.5887 Z  m 1.8754,34.575 c 2.03333,0 3.92618,1.67368 3.83621,3.516 -0.08997,1.84232 -1.80287,3.56858 -3.83621,3.56858 -2.03333,0 -3.78398,-1.5463 -3.78398,-3.56858 3e-06,-2.02228 1.75065,-3.516 3.78398,-3.516 z "/>
<path style="fill:#00a200" d="m 22.0986,2 -.208,.8322 -3.0286,2.1324 0,24.305 c -3.88564,1.43958 -6.23749,4.40184 -6.23749,8.10527 0,4.54192 4.45816,8.69839 11.3495,8.62519 6.89135,-0.0732 11.4117,-3.96097 11.4015,-8.62519 -0.008,-3.66926 -2.40419,-6.95279 -6.44561,-8.15728 v -4.95749 l -3.4964,-2.1844 v -1.45627 l 2.4604,-.9882 v -2.34042 l -2.2004,-.4161 v -2.23641 l 3.2914,-1.0402 v -1.92435 l -2.7713,-1.1962 v -1.6643 l 2.9273,-1.4043 v -1.82033 l -3.9038,-3.5887 z  m 1.8754,34.575 c 2.03333,0 3.92618,1.67368 3.83621,3.516 -0.08997,1.84232 -1.80287,3.56858 -3.83621,3.56858 -2.03333,0 -3.78398,-1.5463 -3.78398,-3.56858 3e-06,-2.02228 1.75065,-3.516 3.78398,-3.516 z "/>
</g>
<path style="opacity:.35;fill:url(#linearGradient3)" d="m 19.876,4.26 1.582,-1.1 v 24.066 c 0,0 -1.582,-0.785839 -1.582,-2 z"/>
</svg>
