<svg width="48" version="1.1" xmlns="http://www.w3.org/2000/svg" height="48" xmlns:xlink="http://www.w3.org/1999/xlink">
<defs id="defs4"/>
<g style="stroke:none" id="layer1" transform="translate(0,-1004.3622)">
<path style="fill:#3498db" id="rect3261" d="m 4.5,1009.9893 0,36.7458 39,0 0,-4.8994 0,-31.8464 z "/>
<g style="fill:none">
<rect width="2" x="4.5" y="1045.8622" rx="1" height="2" ry="1" id="rect3281"/>
<rect width="2" x="17.5" y="1045.8622" rx="1" ry="1" height="2" id="rect3283"/>
</g>
<path style="fill:#fff;fill-rule:evenodd" id="path3272" d="m 23.9947,1014.8622 c -3.53453,0.0002 -7.04573,1.4559 -9.54317,3.9551 -2.49745,2.4991 -3.95156,6.0109 -3.95156,9.5449 0,3.534 1.45411,7.0457 3.95156,9.5449 2.49745,2.4992 6.00862,3.9549 9.54317,3.9551 3.53453,0.0002 7.04781,-1.4542 9.54844,-3.9533 2.50064,-2.4992 3.95683,-6.0123 3.95683,-9.5467 0,-3.5344 -1.4562,-7.0475 -3.95683,-9.5467 -2.50063,-2.4991 -6.01389,-3.9535 -9.54844,-3.9533 z  m 0,3.6 c 2.59199,-0.0003 5.16932,1.0659 7.0031,2.8986 1.83379,1.8327 2.90214,4.4095 2.90214,7.0013 0,2.5919 -1.06835,5.1687 -2.90214,7.0014 -1.8338,1.8327 -4.41113,2.8988 -7.0031,2.8986 -2.59199,-0.0001 -5.16638,-1.0677 -6.99782,-2.9004 -1.83146,-1.8327 -2.89688,-4.408 -2.89688,-6.9996 0,-2.5916 1.06541,-5.1669 2.89688,-6.9995 1.83146,-1.8327 4.40585,-2.9003 6.99782,-2.9004 z  m -1.7947,1.8 0,9.9 1.8,0 1.8,0 6.3,0 0,-3.6 -6.3,0 0,-6.2999 -3.6,0 z "/>
</g>
</svg>
