<svg width="48" version="1.1" xmlns="http://www.w3.org/2000/svg" height="48">
<path style="fill:#3498db" d="M 3,3 V 45 H 45 V 39.4 3 Z"/>
<g style="fill:none">
<rect width="2" x="4.5" y="41.499981" rx="1" height="2"/>
<rect width="2" x="17.5" y="41.499981" rx="1" height="2"/>
</g>
<path style="fill:#fff;fill-rule:evenodd" d="m 23.9941,9 c -3.92725,0 -7.82859,1.61767 -10.6035,4.39456 -2.77494,2.77678 -4.39062,6.67878 -4.39062,10.6054 0,3.92667 1.61568,7.82856 4.39062,10.6054 2.77494,2.77689 6.67625,4.39433 10.6035,4.39456 3.92726,0 7.8309,-1.61578 10.6094,-4.39256 2.77849,-2.77689 4.39648,-6.68033 4.39648,-10.6074 0,-3.92711 -1.618,-7.83056 -4.39648,-10.6074 -2.77848,-2.77678 -6.6821,-4.39278 -10.6094,-4.39256 Z  m 0,4 c 2.88,0 5.74369,1.18433 7.78122,3.22067 2.03754,2.03633 3.2246,4.89944 3.2246,7.77922 0,2.87989 -1.18706,5.743 -3.2246,7.77933 -2.03756,2.03633 -4.90126,3.22089 -7.78122,3.22067 -2.88,0 -5.74042,-1.18633 -7.77536,-3.22267 -2.03496,-2.03633 -3.21876,-4.89778 -3.21876,-7.77733 0,-2.87956 1.18379,-5.741 3.21876,-7.77722 2.03496,-2.03633 4.89539,-3.22256 7.77536,-3.22267 Z  m -1.9941,2 v 11 h 11 v -4 h -7 v -7 z "/>
</svg>
