<svg width="48" version="1.0" xmlns="http://www.w3.org/2000/svg" height="48">
<g style="stroke:none">
<g style="fill-rule:evenodd" id="g9">
<g style="stroke-linejoin:round;stroke-linecap:round;stroke-miterlimit:0" id="g11">
<path style="opacity:.05" id="path4169" d="m 1,5.2593 46,0 0,37.4815 -46,0 z "/>
<path style="opacity:.15" id="path4167" d="m 1.327,5.586 45.132,0 .0001,36.4733 -45.132,0 z "/>
<path style="opacity:.25" id="path4165" d="m 1.6815,5.9407 44.1965,0 0,35.4233 -44.1965,0 z "/>
<path style="fill:#5c656c" id="rect4162" d="m 2.1358,6.3951 43.1605,0 0,34.0741 -43.1605,0 z "/>
</g>
<path style="fill:#f3f6f7" id="path4127" d="m 2.1358,6.3951 0,34.0741 l 15.1448,-17.0357 -15.1448,-17.0384 Z "/>
<path style="fill:#f5fbfe" id="path4125" d="m 2.1358,6.3951 21.5802,20.1037 21.5802,-20.1037 Z "/>
<path style="fill:#e7ecef" id="path4123" d="m 45.2963,6.3951 -15.1448,17.0384 15.1448,17.0357 0,-34.0741 z "/>
<path style="fill:#dbe4e7" id="rect3260-9" d="m 19.6785,26.123 -17.2899,14.3461 42.6546,0 -17.2899,-14.3461 -4.0373,3.8245 z "/>
</g>
<path style="font-family:Sans;fill:#429cd6;text-align:start;line-height:normal;color:#000;text-indent:0;text-transform:none" id="path3503" d="m 40.9674,15.2888 c -0.528408,0.000879 -1.05305,0.221794 -1.42296,0.599139 0,0 -11.6023,11.9035 -16.5262,16.9506 -3.52735,-3.61505 -8.86226,-9.08694 -8.86226,-9.08694 -0.74173,-0.759776 -2.11666,-0.759776 -2.85839,0 l -5.0552,5.1801 c -0.7153,0.736294 -0.7153,2.04721 0,2.7835 l 15.3404,15.7149 c 0.74173,0.759776 2.11666,0.759776 2.85839,0 l 23.0169,-23.5786 c 0.722573,-0.737316 0.722573,-2.05867 0,-2.79598 l -5.0552,-5.1676 c -0.372812,-0.380323 -0.90287,-0.601564 -1.43544,-0.599139 z "/>
</g>
</svg>
