<svg width="16" version="1.1" xmlns="http://www.w3.org/2000/svg" height="16">
<g style="stroke:none" id="layer9" transform="translate(-221.0002,-237)">
<g style="line-height:normal;color:#bebebe">
<g style="font-family:Sans;text-align:start;text-indent:0;text-transform:none">
<path style="fill:#b4b4b4;stroke-width:3" id="path13314" d="m 229,238.0004 c -1.64501,0 -3,1.355 -3,3 v 2 1.00001 h 1 4 1 v -1.00001 -2 c 0,-1.645 -1.35499,-3 -3,-3 z  m 0,2 c 0.56413,0 1,0.43588 1,1 v 1 h -2 v -1 c 0,-0.56412 0.43587,-1 1,-1 z "/>
<g style="fill:#a0a0a0;stroke-width:2">
<path id="path12679-6" d="m 228,247 0,3 2,0 0,-3 -2,0 z"/>
<path id="path12681-3" d="m 223,250 0,2 12,0 0,-2 -12,0 z"/>
</g>
</g>
<rect width="8" x="224.99995" y="242" rx="0" height="6" ry="0" style="fill:#ffe191" id="rect13312"/>
</g>
<g style="fill:#0f0">
<circle cx="223.0002" cy="245" id="path4955-1-1" r="1.9999992"/>
<circle cx="229.0112" cy="244.998" id="path4957-2-6" r="1.9980011"/>
<circle cx="235.0002" cy="245" id="path4959-4-4" r="2.0000007"/>
</g>
</g>
</svg>
