<svg width="16" version="1.1" xmlns="http://www.w3.org/2000/svg" height="16">
<g style="stroke:none;color:#bebebe" id="layer9" transform="translate(-221.0002,-237)">
<g style="font-family:Sans;text-align:start;line-height:normal;text-indent:0;text-transform:none">
<path style="fill:#b4b4b4;stroke-width:3" id="path13314" d="m 229,238.0004 c -1.64501,0 -3,1.355 -3,3 v 2 1.00001 h 1 4 1 v -1.00001 -2 c 0,-1.645 -1.35499,-3 -3,-3 z  m 0,2 c 0.56413,0 1,0.43588 1,1 v 1 h -2 v -1 c 0,-0.56412 0.43587,-1 1,-1 z "/>
<g style="fill:#a0a0a0;stroke-width:2">
<path id="path12679-6" d="m 228,247 0,3 2,0 0,-3 -2,0 z"/>
<path id="path12681-3" d="m 223,250 0,2 12,0 0,-2 -12,0 z"/>
</g>
</g>
<rect width="8" x="224.99995" y="242" rx="0" height="6" ry="0" style="fill:#dca100" id="rect13312"/>
</g>
</svg>
