<svg width="48" version="1.0" xmlns="http://www.w3.org/2000/svg" height="48">
<g style="stroke:none" id="g4">
<path style="fill:#3880d9" id="path4148" d="m 34.1719,31.3253 0,-29.522 -32.3718,0 0,29.522 z"/>
<path id="path4152" d="M 1.490625,0 C 0.6428655,0 0,0.64321898 0,1.490625 l 0,30.01875 C 0,32.356781 0.6428655,33 1.490625,33 l 33.01875,0 C 35.357134,33 36,32.356781 36,31.509375 L 36,1.490625 C 36,0.64321893 35.357134,0 34.509375,0 Z M 2.7,2.7 l 30.6,0 0,27.6 -30.6,0 z"/>
</g>
<g style="stroke:none" id="g10">
<path style="fill:#3880d9" id="path3215" d="m 46.0195,43.1853 0,-32.2562 -35.0695,0 0,32.2562 z"/>
<path id="path3174" d="m 10.6148,8.9755 c -0.918406,0 -1.61484,0.696821 -1.61484,1.61484 v 32.7943 c 0,0.918023 0.696438,1.61484 1.61484,1.61484 h 35.7703 c 0.918406,0 1.61484,-0.696821 1.61484,-1.61484 v -32.7943 c 0,-0.918023 -0.696438,-1.61484 -1.61484,-1.61484 Z  m 1.3102,2.925 33.15,0 0,30.174 -33.15,0 z "/>
<path id="rect3535" d="m 21.1875,43.5017 c -0.810225,0 -1.4625,0.501561 -1.4625,1.12458 h -1.4625 v 0.374858 c 0.8073,0 1.4625,0.503811 1.4625,1.12458 v 0.749718 c 0,0.623015 0.652275,1.12458 1.4625,1.12458 h 14.625 c 0.810225,0 1.4625,-0.501561 1.4625,-1.12458 v -0.749718 c 0,-0.620766 0.6552,-1.12458 1.4625,-1.12458 v -0.374858 h -1.4625 c 0,-0.623016 -0.652275,-1.12458 -1.4625,-1.12458 h -14.625 z "/>
<rect width="5.0398245" x="30.76088" y="45.032494" rx="1.007965" height="2.0159299" ry="1.008" style="fill:#7fff2a" id="rect3485"/>
</g>
</svg>
