<svg width="48" version="1.0" xmlns="http://www.w3.org/2000/svg" height="48" xmlns:xlink="http://www.w3.org/1999/xlink">
<defs>
<linearGradient id="linearGradient3654">
<stop offset="0" style="stop-color:#f2b200"/>
<stop offset="0.2" style="stop-color:#f2b200"/>
<stop offset="0.2" style="stop-color:#e5a800"/>
<stop offset="0.5" style="stop-color:#e5a800"/>
<stop offset="0.5" style="stop-color:#cc9600"/>
<stop offset="0.8" style="stop-color:#cc9600"/>
<stop offset="0.8" style="stop-color:#b28300"/>
<stop offset="1" style="stop-color:#b28300"/>
</linearGradient>
<linearGradient gradientTransform="matrix(1.4375,0,0,1.4375,69.470467,5.2258419)" xlink:href="#linearGradient3654" id="linearGradient3656" y1="21.40811" x1="-48.327282" y2="21.40811" x2="-37.196846" gradientUnits="userSpaceOnUse"/>
</defs>
<g>
<path style="fill:#3880d9" d="m 34.1719,31.3253 0,-29.522 -32.3718,0 0,29.522 z"/>
<path d="M 1.490625,0 C 0.6428655,0 0,0.64321898 0,1.490625 l 0,30.01875 C 0,32.356781 0.6428655,33 1.490625,33 l 33.01875,0 C 35.357134,33 36,32.356781 36,31.509375 L 36,1.490625 C 36,0.64321893 35.357134,0 34.509375,0 Z M 2.7,2.7 l 30.6,0 0,27.6 -30.6,0 z"/>
</g>
<g>
<path style="fill:#3880d9" d="m 46.0195,43.1853 0,-32.2562 -35.0695,0 0,32.2562 z"/>
<path d="m 10.6148,8.9755 c -0.918406,0 -1.61484,0.696821 -1.61484,1.61484 v 32.7943 c 0,0.918023 0.696438,1.61484 1.61484,1.61484 h 35.7703 c 0.918406,0 1.61484,-0.696821 1.61484,-1.61484 v -32.7943 c 0,-0.918023 -0.696438,-1.61484 -1.61484,-1.61484 Z  m 1.3102,2.925 33.15,0 0,30.174 -33.15,0 z "/>
<path d="m 21.1875,43.5017 c -0.810225,0 -1.4625,0.501561 -1.4625,1.12458 h -1.4625 v 0.374858 c 0.8073,0 1.4625,0.503811 1.4625,1.12458 v 0.749718 c 0,0.623015 0.652275,1.12458 1.4625,1.12458 h 14.625 c 0.810225,0 1.4625,-0.501561 1.4625,-1.12458 v -0.749718 c 0,-0.620766 0.6552,-1.12458 1.4625,-1.12458 v -0.374858 h -1.4625 c 0,-0.623016 -0.652275,-1.12458 -1.4625,-1.12458 h -14.625 z "/>
<rect width="5.0398245" x="30.76088" y="45.032494" rx="1.007965" height="2.0159299" ry="1.008" style="fill:#7fff2a"/>
</g>
<g>
<g style="color:#000;fill-rule:evenodd;stroke-width:.5">
<path style="fill:#808080" d="m 8.0156,26.75 c -3.51558,0 -5.93749,2.68981 -5.93749,6 v 3.64063 h 2.9374 l -.0155,-3.1406 c -0.00986,-1.99806 1,-3.5 3,-3.5 2,0 2.9904,1.55543 3,3.5 l .0155,3.1406 h 2.92198 v -3.64063 c 0,-3.31019 -2.43747,-6 -5.92191,-6 z "/>
<path style="fill:#8c8c8c" d="m 8.0156,27 c -3.38808,0 -5.68751,2.56175 -5.68751,5.74998 v 3.39063 h 2.43653 l -.0147,-2.8897 c -0.00514,-1.04145 0.253727,-1.97385 0.80078,-2.65625 0.547054,-0.6824 1.38664,-1.09473 2.44922,-1.09473 1.06481,0 1.89921,0.428076 2.44238,1.11621 0.543164,0.688133 0.802613,1.61841 0.80762,2.63281 l .0147,2.8916 h 2.42285 v -3.39063 c 0,-3.18744 -2.31611,-5.74998 -5.67189,-5.74998 z "/>
<path style="fill:#999" d="m 8.0156,27.25 c -3.26206,0 -5.43749,2.43195 -5.43749,5.5 v 3.3905 h 1.93555 l -.0137,-2.8885 c -0.0053467,-1.08361 0.262977,-2.0744 0.855473,-2.81347 0.594393,-0.741453 1.51727,-1.18847 2.64453,-1.18847 1.13181,0 2.0496,0.464644 2.63867,1.21094 0.587071,0.743753 0.856113,1.73084 0.861333,2.78711 l .0137,2.8925 h 1.92383 v -3.3905 c 0,-3.06631 -2.19339,-5.5 -5.42191,-5.5 z "/>
<path style="fill:#a6a6a6" d="m 8.0156,27.5 c -3.1378,0 -5.18751,2.30013 -5.18751,5.25002 v 3.3405 h 1.43457 l -.0127,-2.8375 c -0.00555,-1.12563 0.272503,-2.17528 0.910153,-2.97071 0.642717,-0.801727 1.6465,-1.28223 2.83985,-1.28223 1.20023,0 2.19891,0.5 2.83496,1.30567 0.630703,0.799033 0.90962,1.84348 0.91504,2.94141 l .0127,2.8435 h 1.42481 v -3.3405 c 0,-2.94705 -2.06903,-5.25002 -5.17189,-5.25002 z "/>
<path style="fill:#b2b2b2" d="m 8.0156,27.75 c -3.01563,0 -4.93749,2.16595 -4.93749,5 v 3.3405 h 0.933593 l -.0117,-2.8366 c -0.00576,-1.16757 0.28224,-2.27644 0.964847,-3.12793 0.69168,-0.862807 1.77471,-1.37597 3.03516,-1.37597 1.26964,0 2.3475,0.534157 3.03125,1.40039 0.674133,0.85406 0.96312,1.9562 0.968753,3.09571 l .0117,2.8444 h 0.92578 v -3.3405 c 0,-2.83002 -1.94273,-5 -4.92188,-5 z "/>
<path style="fill:#bfbfbf" d="m 8.0156,28 c -2.89592,0 -4.68751,2.02897 -4.68751,4.74998 v 3.2905 h 0.432615 l -.0107,-2.7856 c -0.005967,-1.20946 0.29214,-2.3778 1.01953,-3.28515 0.74108,-0.924434 1.90217,-1.46973 3.23047,-1.46973 1.33976,0 2.49559,0.567819 3.22754,1.49511 0.717414,0.908887 1.01663,2.06903 1.02246,3.25 l .0107,2.7954 h 0.426758 v -3.2905 c 0,-2.71558 -1.81413,-4.74998 -4.67186,-4.74998 z "/>
</g>
<path style="fill:url(#linearGradient3656);stroke-width:.5" d="M 0,36 V 48 H 16 V 36 Z"/>
</g>
</svg>
