<svg width="48" version="1.1" xmlns="http://www.w3.org/2000/svg" height="48">
<path style="fill:#e6e6e6;stroke:#646464" d="m 21.299,20.5 v 26.9653 h 5.36316 v -26.9653 c 0,-1.47762 -1.37689,-2.5 -2.65365,-2.5 -1.27675,0 -2.70951,1.03737 -2.70951,2.5 z "/>
<path style="fill:#969696" d="m 16,43 h 16 v 5 H 16 Z"/>
<g style="fill:#429cd6">
<path d="m 34.9037,19.9918 c -0.02716,-2.65773 -1.42304,-5.12098 -3.68867,-6.51066 a 1.93278,1.93278 0 0,0 -2.65741,0.637176 1.93278,1.93278 0 0,0 0.637175,2.65741 c 1.1324,0.694589 1.82262,1.91556 1.84056,3.24325 -0.0072,1.32926 -0.689223,2.55798 -1.81791,3.26137 a 1.93278,1.93278 0 0,0 -0.617547,2.66194 1.93278,1.93278 0 0,0 2.66194,0.617546 c 2.25816,-1.40726 3.63639,-3.88312 3.64186,-6.54387 v -0.01209 z "/>
<path d="m 41.0882,19.9963 c -0.029862,-3.84263 -1.64843,-7.50389 -4.47079,-10.1118 a 1.93266,1.93266 0 0,0 -2.73139,0.107202 1.93266,1.93266 0 0,0 0.107202,2.73139 c 2.03761,1.88275 3.20446,4.52186 3.22815,7.2958 -0.0032,2.77874 -1.15327,5.42923 -3.18286,7.32751 a 1.93266,1.93266 0 0,0 -0.0921,2.73139 1.93266,1.93266 0 0,0 2.73139,0.0921 c 2.81123,-2.62936 4.40898,-6.30933 4.4104,-10.1585 v -0.0076 z "/>
<path d="m 47.2728,20.0054 c -0.016613,-5.13959 -2.00193,-10.0795 -5.54734,-13.8005 a 1.93266,1.93266 0 0,0 -2.73291,-0.066435 1.93266,1.93266 0 0,0 -0.06644,2.73291 c 2.86264,3.00439 4.46601,6.98888 4.48136,11.1385 -0.0017,4.15533 -1.59618,8.15074 -4.45569,11.1657 a 1.93266,1.93266 0 0,0 0.07247,2.73291 1.93266,1.93266 0 0,0 2.73291,-0.07247 c 3.53939,-3.73179 5.51357,-8.67974 5.51564,-13.8231 v -0.0045 z "/>
<path d="m 13.0963,20.058 c 0.02715,2.65773 1.42304,5.12098 3.68867,6.51066 a 1.93278,1.93278 0 0,0 2.65741,-0.637176 1.93278,1.93278 0 0,0 -0.637174,-2.65741 c -1.1324,-0.694588 -1.82262,-1.91556 -1.84056,-3.24325 0.0072,-1.32926 0.689224,-2.55798 1.81791,-3.26137 a 1.93278,1.93278 0 0,0 0.617547,-2.66194 1.93278,1.93278 0 0,0 -2.66194,-0.617547 c -2.25816,1.40727 -3.63639,3.88311 -3.64186,6.54387 v 0.01209 z "/>
<path d="m 6.9118,20.0535 c 0.029864,3.84263 1.64843,7.50389 4.47079,10.1118 a 1.93266,1.93266 0 0,0 2.73139,-0.107202 1.93266,1.93266 0 0,0 -0.107202,-2.73139 c -2.03761,-1.88275 -3.20446,-4.52186 -3.22815,-7.2958 0.0032,-2.77874 1.15326,-5.42923 3.18286,-7.32751 a 1.93266,1.93266 0 0,0 0.0921,-2.73139 1.93266,1.93266 0 0,0 -2.73139,-0.092104 c -2.81123,2.62936 -4.40898,6.30933 -4.4104,10.1585 v 0.0076 z "/>
<path d="m .7272,20.0444 c 0.0166134,5.13959 2.00193,10.0795 5.54735,13.8004 a 1.93266,1.93266 0 0,0 2.73291,0.06644 1.93266,1.93266 0 0,0 0.066437,-2.73291 c -2.86264,-3.00439 -4.46601,-6.98888 -4.48137,-11.1385 0.0017008,-4.15533 1.59618,-8.15073 4.45569,-11.1657 a 1.93266,1.93266 0 0,0 -0.0724745,-2.73291 1.93266,1.93266 0 0,0 -2.73291,0.0724744 c -3.53939,3.73179 -5.51357,8.67974 -5.51564,13.8231 v 0.0045 z "/>
</g>
</svg>
