<svg width="48" version="1.0" xmlns="http://www.w3.org/2000/svg" height="48" xmlns:xlink="http://www.w3.org/1999/xlink">
<defs>
<linearGradient id="linearGradient3654">
<stop offset="0" style="stop-color:#f2b200"/>
<stop offset="0.2" style="stop-color:#f2b200"/>
<stop offset="0.2" style="stop-color:#e5a800"/>
<stop offset="0.5" style="stop-color:#e5a800"/>
<stop offset="0.5" style="stop-color:#cc9600"/>
<stop offset="0.8" style="stop-color:#cc9600"/>
<stop offset="0.8" style="stop-color:#b28300"/>
<stop offset="1" style="stop-color:#b28300"/>
</linearGradient>
<linearGradient gradientTransform="matrix(1.4375,0,0,1.4375,69.470467,5.2258421)" xlink:href="#linearGradient3654" id="linearGradient3656" y1="17.234198" x1="-48.327282" y2="17.234198" x2="-31.63163" gradientUnits="userSpaceOnUse"/>
</defs>
<g>
<path style="fill:#3880d9" d="m 34.1719,31.3253 0,-29.522 -32.3718,0 0,29.522 z"/>
<path d="M 1.490625,0 C 0.6428655,0 0,0.64321898 0,1.490625 l 0,30.01875 C 0,32.356781 0.6428655,33 1.490625,33 l 33.01875,0 C 35.357134,33 36,32.356781 36,31.509375 L 36,1.490625 C 36,0.64321893 35.357134,0 34.509375,0 Z M 2.7,2.7 l 30.6,0 0,27.6 -30.6,0 z"/>
</g>
<g>
<path style="fill:#3880d9" d="m 46.0195,43.1853 0,-32.2562 -35.0695,0 0,32.2562 z"/>
<path d="m 10.6148,8.9755 c -0.918406,0 -1.61484,0.696821 -1.61484,1.61484 v 32.7943 c 0,0.918023 0.696438,1.61484 1.61484,1.61484 h 35.7703 c 0.918406,0 1.61484,-0.696821 1.61484,-1.61484 v -32.7943 c 0,-0.918023 -0.696438,-1.61484 -1.61484,-1.61484 Z  m 1.3102,2.925 33.15,0 0,30.174 -33.15,0 z "/>
<path d="m 21.1875,43.5017 c -0.810225,0 -1.4625,0.501561 -1.4625,1.12458 h -1.4625 v 0.374858 c 0.8073,0 1.4625,0.503811 1.4625,1.12458 v 0.749718 c 0,0.623015 0.652275,1.12458 1.4625,1.12458 h 14.625 c 0.810225,0 1.4625,-0.501561 1.4625,-1.12458 v -0.749718 c 0,-0.620766 0.6552,-1.12458 1.4625,-1.12458 v -0.374858 h -1.4625 c 0,-0.623016 -0.652275,-1.12458 -1.4625,-1.12458 h -14.625 z "/>
<rect width="5.0398245" x="30.76088" y="45.032494" rx="1.007965" height="2.0159299" ry="1.008" style="fill:#7fff2a"/>
</g>
<g>
<g style="color:#000;fill-rule:evenodd;stroke-width:.75">
<path style="fill:#808080" d="m 12.0234,16.125 c -5.27337,0 -8.90624,4.03471 -8.90624,9 v 5.46094 h 4.4061 l -.0233,-4.7109 c -0.014791,-2.99709 1.5,-5.25 4.5,-5.25 3,0 4.4856,2.33314 4.5,5.25 l .0233,4.7109 h 4.38296 v -5.46094 c 0,-4.96529 -3.65621,-9 -8.88287,-9 z "/>
<path style="fill:#8c8c8c" d="m 12.0234,16.5 c -5.08212,0 -8.53127,3.84262 -8.53127,8.62497 v 5.08594 h 3.65479 l -.022,-4.3345 c -0.0077113,-1.56218 0.38059,-2.96078 1.20117,-3.98438 0.820581,-1.0236 2.07996,-1.64209 3.67383,-1.64209 1.59722,0 2.84882,0.642114 3.66357,1.67431 0.814747,1.0322 1.20392,2.42762 1.21143,3.94921 l .022,4.3374 h 3.63427 v -5.08594 c 0,-4.78116 -3.47417,-8.62497 -8.50784,-8.62497 z "/>
<path style="fill:#999" d="m 12.0234,16.875 c -4.89309,0 -8.15624,3.64793 -8.15624,8.25 v 5.08575 h 2.90332 l -.0205,-4.3328 c -0.0080243,-1.62542 0.394465,-3.1116 1.28321,-4.22021 0.89159,-1.11218 2.27591,-1.78271 3.9668,-1.78271 1.69771,0 3.0744,0.696966 3.958,1.81641 0.880607,1.11563 1.28417,2.59626 1.292,4.18066 l .0205,4.3387 h 2.88574 v -5.08575 c 0,-4.59946 -3.29008,-8.25 -8.13287,-8.25 z "/>
<path style="fill:#a6a6a6" d="m 12.0234,17.25 c -4.7067,0 -7.78127,3.4502 -7.78127,7.87503 v 5.01075 h 2.15186 l -.019,-4.2563 c -0.00833,-1.68845 0.408755,-3.26292 1.36523,-4.45606 0.964075,-1.20259 2.46975,-1.92334 4.25977,-1.92334 1.80034,0 3.29837,0.75 4.25244,1.9585 0.946054,1.19855 1.36443,2.76522 1.37256,4.41211 l .019,4.2652 h 2.13721 v -5.01075 c 0,-4.42058 -3.10354,-7.87503 -7.75784,-7.87503 z "/>
<path style="fill:#b2b2b2" d="m 12.0234,17.625 c -4.52344,0 -7.40624,3.24892 -7.40624,7.5 v 5.01075 h 1.40039 l -.0175,-4.2549 c -0.0086405,-1.75135 0.42336,-3.41466 1.44727,-4.6919 1.03752,-1.29421 2.66206,-2.06396 4.55274,-2.06396 1.90446,0 3.52125,0.801235 4.54687,2.10058 1.0112,1.28109 1.44468,2.9343 1.45313,4.64356 l .0175,4.2666 h 1.38867 v -5.01075 c 0,-4.24503 -2.91409,-7.5 -7.38282,-7.5 z "/>
<path style="fill:#bfbfbf" d="m 12.0234,18 c -4.34388,0 -7.03127,3.04346 -7.03127,7.12497 v 4.93575 h 0.648923 l -.0161,-4.1784 c -0.00895,-1.81419 0.43821,-3.5667 1.5293,-4.92773 1.11162,-1.38665 2.85325,-2.20459 4.84571,-2.20459 2.00964,0 3.74339,0.851729 4.84131,2.24267 1.07612,1.36333 1.52495,3.10354 1.53369,4.875 l .0161,4.1931 h 0.640137 v -4.93575 c 0,-4.07337 -2.72119,-7.12497 -7.00779,-7.12497 z "/>
</g>
<path style="fill:url(#linearGradient3656);stroke-width:.75" d="m -0,30 v 18 h 24 v -18 Z "/>
</g>
</svg>
