<svg width="96" version="1.0" xmlns="http://www.w3.org/2000/svg" height="96">
<path style="opacity:.65;fill:#fff" d="m 8.5673,4.2142 c -2.54478,0 -4.519,2.28524 -4.519,4.51924 v 68.3368 c -1.3e-06,2.43 2.21994,5.12025 4.81904,5.12025 h 15.7693 c 1.7595,0 2.18754,0.127994 2.18754,1.8875 v 1.52451 c 0,2.39775 1.97577,4.4875 5.08723,4.4875 h 32.2747 c 3.01354,0 5.08827,-2.08976 5.08827,-4.4875 v -1.52451 c 0,-1.7595 0.427964,-1.8875 2.18746,-1.8875 h 15.7667 c 3.271,0 4.81996,-2.69025 4.81996,-5.12025 v -68.3368 c 0,-2.234 -2.14706,-4.51924 -4.51996,-4.51924 z "/>
<path style="fill:#3880d9" d="M 84.937,75.2786 V 11.0071 H 11 v 64.2715 z"/>
<path style="opacity:.7;fill:#0e367e" d="M 11,11 V 75.2813 H 84.9371 V 11 Z m 3,3 H 82 V 72 H 14 Z"/>
<path d="m 10.3123,7 c -1.88391,0 -3.3125,1.42938 -3.3125,3.3125 V 75.6875 C 7,77.57062 8.42839,79 10.3123,79 h 75.3748 c 1.88391,0 3.3125,-1.42938 3.3125,-3.3125 V 10.3123 c 0,-1.88312 -1.42859,-3.3125 -3.3125,-3.3125 z m 2.6875,6 H 83 V 73 H 13 Z"/>
<path d="m 33,75 c -1.662,0 -3,1.338 -3,3 h -3 v 1 c 1.656,0 3,1.344 3,3 v 2 c 0,1.662 1.338,3 3,3 h 30 c 1.662,0 3,-1.338 3,-3 v -2 c 0,-1.656 1.344,-3 3,-3 v -1 h -3 c 0,-1.662 -1.338,-3 -3,-3 z"/>
<path style="fill:#7f7f7f" d="m 13,73 h 70 v 1 H 13 Z"/>
<rect width="8.4909124" x="53.275669" y="80.837639" rx="1.6981825" height="3.3963649" ry="1.6982" style="fill:#7fff2a"/>
<g style="color:#bebebe">
<g style="fill:#ffdc4c">
<path style="line-height:normal" d="m 47.9882,29.5456 c -7.3895,0 -13.4545,6.06502 -13.4545,13.4545 0,7.3895 6.06499,13.4545 13.4545,13.4545 7.38951,0 13.4545,-6.06501 13.4545,-13.4545 0,-7.38949 -6.06499,-13.4545 -13.4545,-13.4545 z"/>
<rect width="5.5" x="26" y="40.25" rx="1.546875" height="5.5"/>
<rect width="5.5" x="64.5" y="40.25" rx="1.546875" height="5.5"/>
<rect width="5.5" x="21" y="-50.75" rx="1.546875" height="5.5" transform="rotate(90)"/>
</g>
<rect width="5.5" x="59.5" y="-50.75" rx="1.546875" height="5.5" style="fill:#eec623" transform="rotate(90)"/>
<g style="fill:#ffdc4c">
<rect width="5.5" x="-25.53554" y="-67.096733" rx="1.546875" height="5.5" transform="rotate(135)"/>
<rect width="5.5" x="12.964459" y="-67.096733" rx="1.546875" height="5.5" transform="rotate(135)"/>
<rect width="5.5" x="42.346741" y="-6.2855434" rx="1.546875" height="5.5" transform="rotate(45)"/>
<rect width="5.5" x="80.846756" y="-6.2855434" rx="1.546875" height="5.5" transform="rotate(45)"/>
</g>
</g>
</svg>
