<svg width="96" version="1.0" xmlns="http://www.w3.org/2000/svg" height="96" xmlns:xlink="http://www.w3.org/1999/xlink">
<defs>
<radialGradient cx="538.77338" cy="651.10352" gradientTransform="translate(-484,-674)" r="126.0234" id="radialGradient2854" gradientUnits="userSpaceOnUse">
<stop offset="0" style="stop-color:#f99"/>
<stop offset="0.6" style="stop-color:#c33"/>
<stop offset="1" style="stop-color:#ff7a7a"/>
</radialGradient>
<radialGradient fx="47.467381" fy="36.487312" cx="47.467381" cy="36.487312" gradientTransform="matrix(-3.4946246,-0.02813808,0.01595754,-1.9818542,213.29849,93.648221)" xlink:href="#radialGradient2854" id="radialGradient13" r="14.49593" gradientUnits="userSpaceOnUse"/>
</defs>
<path style="opacity:.65;fill:#fff" d="m 8.5673,4.2142 c -2.54478,0 -4.519,2.28524 -4.519,4.51924 v 68.3368 c -1.3e-06,2.43 2.21994,5.12025 4.81904,5.12025 h 15.7693 c 1.7595,0 2.18754,0.127994 2.18754,1.8875 v 1.52451 c 0,2.39775 1.97577,4.4875 5.08723,4.4875 h 32.2747 c 3.01354,0 5.08827,-2.08976 5.08827,-4.4875 v -1.52451 c 0,-1.7595 0.427964,-1.8875 2.18746,-1.8875 h 15.7667 c 3.271,0 4.81996,-2.69025 4.81996,-5.12025 v -68.3368 c 0,-2.234 -2.14706,-4.51924 -4.51996,-4.51924 z "/>
<path style="fill:#4051a5" d="M 84.937,75.2786 V 11.0071 H 11 v 64.2715 z"/>
<path style="opacity:.7;fill:#0e367e" d="M 11,11 V 75.2813 H 84.9371 V 11 Z m 3,3 H 82 V 72 H 14 Z"/>
<path d="m 10.3123,7 c -1.88391,0 -3.3125,1.42938 -3.3125,3.3125 V 75.6875 C 7,77.57062 8.42839,79 10.3123,79 h 75.3748 c 1.88391,0 3.3125,-1.42938 3.3125,-3.3125 V 10.3123 c 0,-1.88312 -1.42859,-3.3125 -3.3125,-3.3125 z m 2.6875,6 H 83 V 73 H 13 Z"/>
<path d="m 33,75 c -1.662,0 -3,1.338 -3,3 h -3 v 1 c 1.656,0 3,1.344 3,3 v 2 c 0,1.662 1.338,3 3,3 h 30 c 1.662,0 3,-1.338 3,-3 v -2 c 0,-1.656 1.344,-3 3,-3 v -1 h -3 c 0,-1.662 -1.338,-3 -3,-3 z"/>
<path style="fill:#7f7f7f" d="m 13,73 h 70 v 1 H 13 Z"/>
<rect width="8.4909124" x="53.275669" y="80.837639" rx="1.6981825" height="3.3963649" ry="1.6982" style="fill:#7fff2a"/>
<g style="fill-rule:evenodd">
<path style="fill:#8c8c8c" d="m 42.0478,52.0068 h 11.7894 v 6.94222 h -1.43818 v 5.474 h -9.004 l -.122,-3.924 h -1.22524 z "/>
<path style="fill:url(#radialGradient13)" d="m 48,20 c -8.00586,4.6e-05 -14.4959,6.36516 -14.4959,14.2169 0.0068,4.49519 2.18087,8.72242 5.86279,11.3996 2.65217,2.14242 2.08459,2.37823 2.16241,4.28304 0.122534,3 0.55667,3.14153 6.50798,3.14893 5.9513,0.0074 6.44262,-0.08048 6.43348,-3.14893 -0.0048,-1.62662 -0.2094,-2.34378 2.16241,-4.28069 3.68259,-2.67764 5.85673,-6.90589 5.86279,-11.4019 -4.3e-05,-7.85177 -6.49007,-14.2169 -14.4959,-14.2169 Z "/>
<g style="fill:#ccc;stroke:#ccc;stroke-linecap:round;stroke-width:2.5">
<path d="m 42.6243,56.1079 10.7514,-1.3973"/>
<path d="m 42.6243,59.7088 10.7514,-1.3973"/>
<path d="m 44.3577,63.0789 7.2846,-.95"/>
</g>
</g>
</svg>
