<svg width="48" version="1.1" xmlns="http://www.w3.org/2000/svg" height="48" xmlns:xlink="http://www.w3.org/1999/xlink">
<defs id="defs7386"/>
<g style="solid-color:#000000;text-decoration-color:#000000;stroke:none;line-height:normal;color:#bebebe;color-interpolation:sRGB;text-transform:none;text-indent:0;stroke-width:5.93;color-rendering:auto;text-rendering:auto;isolation:auto;font-family:sans-serif;mix-blend-mode:normal;text-align:start;shape-rendering:auto;white-space:normal;text-decoration-style:solid;solid-opacity:1;image-rendering:auto;text-decoration-line:none">
<path style="color-interpolation-filters:linearRGB;fill:#19318e" id="path4152" d="m 6.2109,3 0,2.9648 0,17.7891 c 0,6.14243 4.44271,10.9579 8.39844,14.498 3.95573,3.54011 7.88477,5.8457 7.88477,5.8457 l 1.5273,.9023 1.5176,-.9219 c 0,0 3.91581,-2.36841 7.86133,-5.93359 3.94552,-3.56518 8.38867,-8.32934 8.38867,-14.3906 v -20.7539 h -35.5781 Z "/>
<path style="color-interpolation-filters:linearRGB;fill:#fff" id="rect3259-2-8" d="m 12.1406,8.9297 23.7188,0 0,14.8242 c 0,2.72683 -2.96864,6.85948 -6.43555,9.99219 -2.25925,2.04147 -4.13476,3.36951 -5.44336,4.24805 -1.30677,-0.857929 -3.17251,-2.15432 -5.41602,-4.16211 -3.4567,-3.09351 -6.42383,-7.17538 -6.42383,-10.0781 v -14.8242 z "/>
</g>
</svg>
