<svg width="48" version="1.0" xmlns="http://www.w3.org/2000/svg" height="48" xmlns:xlink="http://www.w3.org/1999/xlink">
<defs>
<linearGradient id="linearGradient10">
<stop offset="0" style="stop-opacity:.8"/>
<stop offset="1"/>
</linearGradient>
<linearGradient xlink:href="#linearGradient10" id="linearGradient15" y1="3.2789631" x1="24.320913" y2="40.546768" x2="23.7829" gradientUnits="userSpaceOnUse"/>
<linearGradient xlink:href="#linearGradient10" id="linearGradient11" y1="3.2789631" x1="24.320913" y2="40.546768" x2="23.7829" gradientUnits="userSpaceOnUse"/>
<linearGradient xlink:href="#linearGradient10" id="linearGradient17" y1="3.2789631" x1="24.320913" y2="40.546768" x2="23.7829" gradientUnits="userSpaceOnUse"/>
<linearGradient xlink:href="#linearGradient10" id="linearGradient19" y1="3.2789631" x1="24.320913" y2="40.546768" x2="23.7829" gradientUnits="userSpaceOnUse"/>
<linearGradient xlink:href="#linearGradient10" id="linearGradient13" y1="3.2789631" x1="24.320913" y2="40.546768" x2="23.7829" gradientUnits="userSpaceOnUse"/>
</defs>
<path style="opacity:.03;fill:url(#linearGradient17)" d="M 38.1986,47.4032 C 35.8712,49.13349 27.5688,42.92601 24.7213,42.88348 21.87379,42.84094 13.308,48.79795 11.0279,46.99883 8.74792,45.1997 11.781637,34.95623 10.94009,32.08773 10.098527,29.21922 2.2091,22.47092 3.1274,19.62873 c 0.9183,-2.84222 11.0956,-2.96555 13.423,-4.69585 2.3274,-1.73029 5.85547,-11.6961 8.70301,-11.6538 2.84751,0.042533 6.10369,10.1098 8.38369,11.909 2.27998,1.79913 12.4499,2.12642 13.2914,4.99492 0.841563,2.86851 -7.32328,9.47549 -8.24159,12.31769 -0.9183,2.84222 1.83897,13.1722 -0.488438,14.9025 z"/>
<path style="opacity:.06;fill:url(#linearGradient15)" d="m 38.1986,46.5217 c -2.3274,1.69572 -10.6298,-4.38774 -13.4773,-4.42942 -2.84751,-0.04169 -11.7133,5.79631 -13.9934,4.03313 -2.27998,-1.76319 0.753737,-11.802 -0.08781,-14.6132 -0.841563,-2.8112 -8.43098,-9.32672 -7.51269,-12.1121 0.9183,-2.78544 11.0956,-2.9063 13.423,-4.60203 2.3274,-1.69572 5.85547,-11.5604 8.70301,-11.5189 2.84751,0.041683 6.10369,10.0058 8.38369,11.769 2.27998,1.76319 12.3502,2.18193 13.1917,4.99312 0.841563,2.8112 -7.32328,9.09023 -8.24159,11.8756 -0.9183,2.78544 1.93868,12.909 -0.388733,14.6048 z "/>
<path style="opacity:.12;fill:url(#linearGradient19)" d="m 37.7986,45.7179 c -2.3274,1.6642 -10.6298,-4.30618 -13.4773,-4.34708 -2.84751,-0.04091 -11.5133,5.68856 -13.7934,3.95816 -2.27998,-1.73042 0.753737,-11.5826 -0.08781,-14.3416 -0.841563,-2.75894 -8.63098,-9.15335 -7.71268,-11.887 0.9183,-2.73367 11.0956,-2.85227 13.423,-4.51649 2.3274,-1.6642 5.85547,-11.3456 8.70301,-11.3048 2.84751,0.040909 6.10369,9.81981 8.38369,11.5502 2.27998,1.73042 12.4499,2.14138 13.2914,4.90031 0.841563,2.75894 -7.32328,8.92126 -8.24159,11.6549 -0.9183,2.73367 1.83897,12.669 -0.488438,14.3333 z "/>
<path style="opacity:.16;fill:url(#linearGradient13)" d="m 37.4983,45.2213 c -2.3274,1.64473 -10.6298,-4.25579 -13.4773,-4.29622 -2.84751,-0.04043 -11.413,5.622 -13.6931,3.91185 -2.27998,-1.71017 0.753737,-11.4471 -0.08781,-14.1738 -0.841563,-2.72666 -8.73128,-9.04625 -7.81299,-11.7479 0.9183,-2.70168 11.0956,-2.8189 13.423,-4.46364 2.3274,-1.64473 5.85547,-11.2128 8.70301,-11.1725 2.84751,0.04043 6.10369,9.70491 8.38369,11.4151 2.27998,1.71017 12.4499,2.11632 13.2914,4.84297 0.841563,2.72666 -7.32328,8.81687 -8.24159,11.5185 -0.9183,2.70168 1.83897,12.5208 -0.488438,14.1656 z "/>
<path style="opacity:.27;fill:url(#linearGradient11)" d="m 37.1368,44.8112 c -2.3233,1.63256 -10.5114,-4.2243 -13.3539,-4.26443 -2.8425,-0.04013 -11.2932,5.5804 -13.5693,3.8829 -2.27597,-1.69752 0.752411,-11.2626 -0.08765,-13.9691 -0.840082,-2.70648 -8.81543,-8.97931 -7.89875,-11.661 0.916684,-2.68169 11.0761,-2.79804 13.3994,-4.43061 2.3233,-1.63256 5.84516,-11.1298 8.68769,-11.0898 2.8425,0.040131 6.09295,9.6331 8.36893,11.3306 2.27597,1.69752 12.3281,2.10066 13.1681,4.80713 0.840082,2.70648 -7.31039,8.75163 -8.22708,11.4333 -0.916684,2.68169 1.83573,12.3284 -0.487578,13.961 z "/>
<path style="fill:#eec323" d="m 36.8963,44.3379 c -2.27786,1.60615 -10.4035,-4.15596 -13.1904,-4.19544 -2.7869,-0.039482 -11.0725,5.49012 -13.304,3.82008 -2.23145,-1.67005 0.737693,-11.1786 -0.08594,-13.8413 -0.82365,-2.6627 -8.643,-8.83404 -7.74425,-11.4723 0.898753,-2.6383 10.8594,-2.75277 13.1373,-4.35893 2.27786,-1.60615 5.73083,-10.9498 8.51775,-10.9104 2.7869,0.039482 5.97377,9.47725 8.20523,11.1473 2.23145,1.67005 12.1849,2.06667 13.0085,4.72936 0.82365,2.6627 -7.16739,8.61004 -8.06616,11.2483 -0.898753,2.6383 1.79983,12.2271 -0.478041,13.8333 z "/>
<path style="opacity:.45" d="m 32.498,14.5742 l -21.8984,29.5098 c 2.48607,1.24737 10.3954,-3.9798 13.1055,-3.94141 2.7869,0.03948 10.9135,5.80146 13.1914,4.19531 2.27787,-1.6062 -0.420237,-11.1957 0.478516,-13.834 0.89877,-2.63826 8.89006,-8.58535 8.06641,-11.248 -0.815685,-2.6371 -10.5879,-3.05156 -12.9434,-4.68164 z "/>
</svg>
