<svg width="48" version="1.0" xmlns="http://www.w3.org/2000/svg" height="48">
<g style="stroke:none">
<path style="fill:#eec323" id="path3574" d="m 36.8963,44.3379 c -2.27786,1.60615 -10.4035,-4.15596 -13.1904,-4.19544 -2.7869,-0.039482 -11.0725,5.49012 -13.304,3.82008 -2.23145,-1.67005 0.737693,-11.1786 -0.08594,-13.8413 -0.82365,-2.6627 -8.643,-8.83404 -7.74425,-11.4723 0.898753,-2.6383 10.8594,-2.75277 13.1373,-4.35893 2.27786,-1.60615 5.73083,-10.9498 8.51775,-10.9104 2.7869,0.039482 5.97377,9.47725 8.20523,11.1473 2.23145,1.67005 12.1849,2.06667 13.0085,4.72936 0.82365,2.6627 -7.16739,8.61004 -8.06616,11.2483 -0.898753,2.6383 1.79983,12.2271 -0.478041,13.8333 z "/>
<path style="fill-rule:evenodd;fill-opacity:.51" id="path4137" d="m 32.9141,14.8125 l -22.8535,28.7734 c 0.097309,0.150129 0.210114,0.278399 0.341797,0.376953 2.2315,1.67004 10.5158,-3.85979 13.3027,-3.82031 2.7869,0.03948 10.9135,5.80146 13.1914,4.19531 2.27787,-1.6062 -0.420237,-11.1957 0.478516,-13.834 0.89877,-2.63826 8.89006,-8.58535 8.06641,-11.248 -0.774502,-2.50396 -9.61945,-3.00381 -12.5273,-4.44336 z "/>
</g>
</svg>
