<svg width="16" version="1.1" xmlns="http://www.w3.org/2000/svg" height="16">
<g style="stroke:none;fill-rule:evenodd" id="layer9" transform="translate(-181.0002,-257)">
<path style="fill:#f57900" id="path4147" d="m 189.0002,257.0625 -2.25,3.4062 -3.4375,-1.1562 1.1562,3.4375 -3.4062,2.25 3.4062,2.25 -1.1562,3.4375 3.4375,-1.1562 2.25,3.4062 2.25,-3.4062 3.4375,1.1562 -1.1562,-3.4375 3.4062,-2.25 -3.4062,-2.25 1.1562,-3.4375 -3.4375,1.1562 z "/>
<path style="fill:#fff" id="rect7040" d="m 189.0002,261.5938 .7188,.6875 2,2 c 0.2236,0.22597 0.33131,0.56107 0.28125,0.875 v 0.84375 h -0.875 c -0.30421,0.0401 -0.62444,-0.0666 -0.84375,-0.28125 l -.2812,-.2812 v 2.5625 h -2 v -2.5625 l -.2812,.2812 c -0.19084,0.18226 -0.45489,0.28559 -0.71875,0.28125 h -0.15625 -0.84375 v -0.78125 c -0.001,-0.0312 -0.001,-0.0625 0,-0.0937 -0.0401,-0.30421 0.0666,-0.62444 0.28125,-0.84375 l 2,-2 z "/>
</g>
</svg>
