<svg width="16" version="1.1" xmlns="http://www.w3.org/2000/svg" height="16">
<g style="stroke:none;fill-rule:evenodd" id="layer9" transform="translate(-181.0002,-257)">
<path style="fill:#d30909" id="path4147" d="m 189,257.0581 -2.2647,3.4125 -3.4125,-1.1479 1.1479,3.4125 -3.4125,2.2647 3.4125,2.2647 -1.1479,3.4125 3.4125,-1.1479 2.2647,3.4125 2.2647,-3.4125 3.4125,1.1479 -1.1479,-3.4125 3.4125,-2.2647 -3.4125,-2.2647 1.1479,-3.4125 -3.4125,1.1479 z "/>
<g style="fill:#fff">
<path id="path4145" d="m 188.0073,261.0911 1.9855,0 0,4.9326 -1.9855,0 z "/>
<path id="path16909" d="m 189.031,266.7373 c 0.70247,0 1.27194,0.56947 1.27194,1.27194 0,0.70247 -0.56947,1.27194 -1.27194,1.27194 -0.70247,0 -1.27194,-0.56947 -1.27194,-1.27194 0,-0.70247 0.56947,-1.27194 1.27194,-1.27194 z "/>
</g>
</g>
</svg>
