<svg width="48" version="1.1" xmlns="http://www.w3.org/2000/svg" height="48">
<path style="fill:#7f8c8d" id="rect4090" d="M 6,3.0022859 6,45 42,45 42,3 Z"/>
<g style="fill:#fff;fill-rule:evenodd" id="g16">
<rect width="23.99999" x="15.000005" y="9.0000048" height="2.9999897" style="stroke:#003bc3;stroke-linecap:square;stroke-width:0;stroke-miterlimit:2.013" id="rect4154"/>
<rect width="3" x="9" y="9" height="3" style="opacity:.95;stroke:none" id="rect4156"/>
<rect width="23.99999" x="15.000005" y="18.000006" height="2.9999897" style="stroke:#003bc3;stroke-linecap:square;stroke-width:0;stroke-miterlimit:2.013" id="rect4164"/>
<rect width="3" x="9" y="18" height="3" style="opacity:.95;stroke:none" id="rect4166"/>
<rect width="23.99999" x="15.000005" y="27.000006" height="2.9999897" style="stroke:#003bc3;stroke-linecap:square;stroke-width:0;stroke-miterlimit:2.013" id="rect4168"/>
<rect width="3" x="9" y="27.000002" height="3" style="opacity:.95;stroke:none" id="rect4170"/>
<rect width="23.99999" x="15.000005" y="36.000004" height="2.9999897" style="stroke:#003bc3;stroke-linecap:square;stroke-width:0;stroke-miterlimit:2.013" id="rect4176"/>
<rect width="3" x="9" y="36" height="3" style="opacity:.95;stroke:none" id="rect4178"/>
</g>
<g style="stroke:none" id="g4182" transform="matrix(0.7792989,0,0,0.7792989,12.542799,13.296807)">
<path style="fill:#dca100" id="path2993" d="m 23.9449,3.4688 c -1.08097,0 -2.04919,0.615488 -2.59375,1.59375 l -18.5312,35.25 c -0.436012,0.869564 -0.443112,2.03668 0.09375,2.90625 0.536863,0.869565 1.38778,1.3125 2.46875,1.3125 h 37.1875 c 1.08097,0 2.06399,-0.536684 2.5,-1.40625 0.544109,-0.869565 0.553308,-1.95924 0.125,-2.9375 l -18.6562,-35.2188 c -0.536408,-0.97826 -1.51278,-1.5 -2.59375,-1.5 z "/>
<g style="fill:#fff" id="g4185">
<path id="path2991" d="m 23.7261,10.6562 c 2.30167,-0.01359 4.4452,2.07026 4.15625,3.78125 -0.706036,5.07197 -1.67444,10.1092 -2.28125,15.1875 h -2.875 c -0.731551,-5.28811 -1.73437,-9.92002 -2.59375,-15.1875 -0.304288,-1.6857 1.29208,-3.76765 3.59375,-3.78125 z "/>
<path id="path3009" d="m 23.9136,33.8438 c 1.43697,-0.0057 2.90157,0.794497 3.5625,2.125 1.18133,2.05937 -0.0076,4.91172 -2.3125,5.5 -2.37982,0.803109 -5.18586,-1.18558 -5.09375,-3.71875 -0.02904,-1.18315 0.56703,-2.25918 1.46875,-3 0.668959,-0.610971 1.51282,-0.903143 2.375,-0.90625 z"/>
</g>
</g>
</svg>
