<svg width="48" version="1.1" xmlns="http://www.w3.org/2000/svg" height="48">
<g style="stroke-width:.682;stroke:none;stroke-linecap:square;fill-rule:evenodd" id="layer1" transform="translate(0,-1004.3622)">
<path style="fill:#2ca5e0" id="path4143" d="m 24,1005.3622 a 23.0006,23.0006 0 0,0 -23,23 23.0006,23.0006 0 0,0 23,23 23.0006,23.0006 0 0,0 23,-23 23.0006,23.0006 0 0,0 -23,-23 z "/>
<path style="opacity:.3" id="path4145" d="m 33.5,1016.2832 c 0.388203,0.04 0.756678,0.168 1.01274,0.3923 0.51212,0.4488 0.713481,1.25 0.417512,2.4896 -0.743333,2.5587 -21.5713,9.8755 -21.8838,6.1309 0.05919,-1.4235 0.864773,-2.2998 1.4705,-2.516 l 17.8471,-6.3688 c 0.339966,-0.1213 0.747678,-0.168 1.13588,-0.128 z "/>
<path style="fill:#fff" id="path4144" d="m 33.5,1017.2832 c 0.388203,0.04 0.756678,0.168 1.01274,0.3923 0.51212,0.4488 0.52546,1.2893 0.314225,1.8934 l -6.552,18.7378 c -0.186494,0.5334 -0.405818,1.0109 -1.2569,1.1322 -0.851082,0.1213 -1.8046,-0.4426 -2.2293,-1.4243 0,0 -2.78788,-6.5763 -3.32697,-7.0767 -0.539084,-0.5005 -7.45435,-3.5929 -7.45435,-3.5929 -0.894034,-0.582 -1.07663,-1.6732 -0.904457,-2.2494 0.172168,-0.5762 0.808284,-1.0994 1.41401,-1.3156 l 17.8471,-6.3688 c 0.339966,-0.1213 0.747678,-0.168 1.13588,-0.128 z "/>
</g>
</svg>
