<svg width="48" version="1.1" xmlns="http://www.w3.org/2000/svg" viewBox="0 0 48 48" height="48" xmlns:xlink="http://www.w3.org/1999/xlink">
<defs>
<linearGradient id="linearGradient1">
<stop offset="0" style="stop-color:#fff"/>
<stop offset="1" style="stop-color:#d9d9d9"/>
</linearGradient>
<linearGradient gradientTransform="matrix(2,0,0,2,-2,-1)" xlink:href="#linearGradient1" id="linearGradient2" y1="18" x1="10" y2="18" x2="16" gradientUnits="userSpaceOnUse"/>
</defs>
<path style="fill:url(#linearGradient2)" d="m 21,9 v 20 l -4.5,6 4.5,6.5 h 6 L 31.5,35 27,29 V 9 L 24,6 Z"/>
<path style="fill:#ff1a1a" d="m 23,12 v 22.5 h 2 V 12 Z"/>
<path style="fill:#ff1a1a" d="m 24,30.5 c -2.48528,0 -4.5,2.01471 -4.5,4.5 0,2.48529 2.01472,4.5 4.5,4.5 2.48529,0 4.5,-2.01471 4.5,-4.5 0,-2.48529 -2.01471,-4.5 -4.5,-4.5 z "/>
<path style="fill:#800000" d="m 24,5 c -2.216,0 -4,1.784 -4,4 v 19.0703 c -2.47567,1.42933 -4,4.07103 -4,6.92968 0,4.41828 3.58172,8 8,8 4.41828,0 8,-3.58172 8,-8 0,-2.85865 -1.52433,-5.50035 -4,-6.92968 v -19.0703 c 0,-2.216 -1.784,-4 -4,-4 Z  m 0,2 c 1.108,0 2,0.892 2,2 v 20.3437 c 2.39707,0.847491 4,3.11377 4,5.65624 0,3.31371 -2.68629,6 -6,6 -3.31371,0 -6,-2.68629 -6,-6 0,-2.54247 1.60293,-4.80875 4,-5.65624 v -20.3437 c 0,-1.108 0.892,-2 2,-2 z "/>
</svg>
