<svg width="48" version="1.1" xmlns="http://www.w3.org/2000/svg" viewBox="0 0 48 48" height="48" xmlns:xlink="http://www.w3.org/1999/xlink">
<defs>
<linearGradient id="linearGradient1">
<stop offset="0" style="stop-color:#fff"/>
<stop offset="1" style="stop-color:#d9d9d9"/>
</linearGradient>
<linearGradient gradientTransform="matrix(2,0,0,2,-2,-1)" xlink:href="#linearGradient1" id="linearGradient2" y1="18.5" x1="9" y2="18.5" x2="17" gradientUnits="userSpaceOnUse"/>
</defs>
<path style="fill:url(#linearGradient2)" d="m 19,6 v 22 l -4.3,8 2.8,6 6.5,3 6.5,-3 2.8,-6 -4.3,-8 V 6 L 24,3 Z"/>
<g style="fill:#808080">
<path d="m 22,17 v 18 h 4 V 17 Z"/>
<path d="m 24,30 c -3.31371,0 -6,2.68628 -6,6 0,3.31372 2.68629,6 6,6 3.31372,0 6,-2.68628 6,-6 0,-3.31372 -2.68628,-6 -6,-6 z "/>
</g>
<path style="fill:#555555" d="m 24,2 c -3.31371,0 -6,2.68629 -6,6 v 19.9688 c -2.54308,1.88609 -4.04272,4.86509 -4.04297,8.03125 0,5.52285 4.47715,10 10,10 5.52285,0 10,-4.47715 10,-10 0,-3.12905 -1.46393,-6.07788 -3.95703,-7.96875 v -20.0312 c 0,-3.31371 -2.68629,-6 -6,-6 Z  m 0,2 c 2.20914,0 4,1.79086 4,4 v 21.0723 c 2.47197,1.42694 4,4.0661 4,6.92773 0,4.41828 -3.58172,8 -8,8 -4.41828,0 -8,-3.58172 -8,-8 0,-2.86163 1.52803,-5.50079 4,-6.92773 v -2.07227 h -1 v -1 h 1 v -2 h -1 v -1 h 1 v -2 h -1 v -1 h 1 v -2 h -1 v -1 h 1 v -2 h -1 v -1 h 1 v -2 h -1 v -1 h 1 v -2 h -1 v -1 h 1 c 0,-2.20914 1.79086,-4 4,-4 z  m -4,4 v 1 h 2 v -1 Z  m 0,3 v 1 h 2 v -1 z  m 0,3 v 1 h 2 v -1 z  m 0,3 v 1 h 2 v -1 z  m 0,3 v 1 h 2 v -1 z  m 0,3 v 1 h 2 v -1 z  m 0,3 v 1 h 2 v -1 z "/>
</svg>
