<svg width="24" version="1.1" xmlns="http://www.w3.org/2000/svg" height="24" xmlns:xlink="http://www.w3.org/1999/xlink">
<defs id="defs2818"/>
<path style="fill:#c8c8c8;stroke:#787878" id="path2819" d="m 2.5,11.9 c 0.0705703,-3.59931 -0.030219,-0.000128 0,-3.6 0.0359546,-4.28314 2.63814,-4.8 4.8,-4.8 h 8.4 c 3.20251,0 4.8,1.09214 4.8,4.8 v 3.6 c 0,4.03146 -1.45712,4.6 -3.6,4.6 -2.8754,-0.01699 -0.619386,3.46918 0,5 h -0.799999 l -5.2,-5 h -3.6 c -2.6456,0 -4.87755,-0.644613 -4.8,-4.6 z  m 2,-3.606 0,3.7007 c -0.071932,0.945505 1.1796,2.71608 2.9578,2.50525 h 8.07299 c 1.79424,-0.09872 2.88385,-0.264387 2.96921,-2.38116 v -4.13868 c -0.084264,-1.77839 -1.16316,-2.49087 -2.61884,-2.48016 h -9 c -1.78944,0.104463 -2.40517,1.45924 -2.38116,2.79402 z "/>
</svg>
