<svg width="48" version="1.0" xmlns="http://www.w3.org/2000/svg" viewBox="0 0 48 48" height="48">
<path style="fill:#bc6d20" d="m 5.1121,16.0604 c -0.993942,0 -2.07414,1.1483 -2.07414,2.14225 v 22.6953 c 0,0.994015 1.08013,2.14255 2.07414,2.14255 H 45.926 c 0.993968,0 2.07394,-1.14858 2.07394,-2.14255 v -22.6953 c 0,-0.993896 -1.08005,-2.14225 -2.07394,-2.14225 z"/>
<path style="fill:#60330a" d="m 14.9804,31.5747 c 0,1.38548 -1.21279,2.50854 -2.70888,2.50854 H 2.14452 C 0.64843,34.08324 -1e-5,32.96018 -1e-5,31.5747 v -6.97064 c 0,-1.38492 0.648438,-2.50741 2.14453,-2.50741 h 10.127 c 1.49609,0 2.70888,1.12306 2.70888,2.50741 z"/>
<circle cx="10" cy="26.326416" style="fill:#fff" r="2.2574005"/>
</svg>
