<svg width="48" version="1.1" xmlns="http://www.w3.org/2000/svg" height="48" xmlns:xlink="http://www.w3.org/1999/xlink">
<defs>
<linearGradient id="linearGradient3760">
<stop offset="0" style="stop-color:#fff"/>
<stop offset="1" style="stop-color:#b4b4b4"/>
</linearGradient>
<linearGradient gradientTransform="matrix(2.75,0,0,2.75,-440.75,-762.5)" xlink:href="#linearGradient3760" id="linearGradient3766" y1="280" x1="172" y2="295" x2="172" gradientUnits="userSpaceOnUse"/>
</defs>
<g style="color:#000">
<path style="opacity:.4" d="m 28.125,12.25 c -3.53042,0 -6.39809,2.67578 -6.78906,6.10154 C 20.43734,18.01584 19.51569,17.75 18.5,17.75 c -4.55636,0 -8.25,3.69365 -8.25,8.25 0,0.27004 0.0603,0.51014 0.0858,0.77344 C 9.51164,26.28051 8.53026,26 7.5,26 4.46243,26 2,28.46243 2,31.5 2,34.53756 4.46243,37 7.5,37 H 41.875 C 44.15316,37 46,35.15318 46,32.875 46,30.59681 44.15316,28.75 41.875,28.75 c -0.56956,0 -1.13932,0.13493 -1.63282,0.34374 0.14466,-0.55532 0.25768,-1.11808 0.25768,-1.71874 0,-3.38074 -2.45668,-6.12751 -5.67186,-6.70313 0.11514,-0.49873 0.17178,-1.01317 0.17178,-1.54687 0,-3.79697 -3.07805,-6.875 -6.875,-6.875 z"/>
<path style="fill:url(#linearGradient3766)" d="m 28.125,10.25 c -3.53042,0 -6.39809,2.67578 -6.78906,6.10154 C 20.43734,16.01584 19.51569,15.75 18.5,15.75 c -4.55636,0 -8.25,3.69365 -8.25,8.25 0,0.27004 0.0603,0.51014 0.0858,0.77344 C 9.51164,24.28051 8.53026,24 7.5,24 4.46243,24 2,26.46243 2,29.5 2,32.53756 4.46243,35 7.5,35 H 41.875 C 44.15316,35 46,33.15318 46,30.875 46,28.59681 44.15316,26.75 41.875,26.75 c -0.56956,0 -1.13932,0.13493 -1.63282,0.34374 0.14466,-0.55532 0.25768,-1.11808 0.25768,-1.71874 0,-3.38074 -2.45668,-6.12751 -5.67186,-6.70313 0.11514,-0.49873 0.17178,-1.01317 0.17178,-1.54687 0,-3.79697 -3.07805,-6.875 -6.875,-6.875 z"/>
</g>
<path style="fill:#dca100" d="m 32.2528,18 c -0.789749,0 -1.49712,0.449671 -1.89497,1.16438 l -13.5388,25.7534 c -0.318547,0.635297 -0.323734,1.48798 0.06849,2.12329 0.392228,0.635298 1.0139,0.958903 1.80365,0.958903 h 27.1689 c 0.789748,0 1.50794,-0.392098 1.82648,-1.0274 0.397522,-0.635298 0.404243,-1.43141 0.09132,-2.14612 l -13.6301,-25.7306 c -0.391896,-0.71471 -1.10523,-1.09589 -1.89498,-1.09589 Z "/>
<g style="fill:#fff">
<path d="m 32.093,23.2511 c 1.68158,-0.0099 3.24763,1.51252 3.03653,2.76255 -0.515825,3.70554 -1.22333,7.38571 -1.66667,11.0959 h -2.10045 c -0.534466,-3.86346 -1.26712,-7.2475 -1.89497,-11.0959 -0.22231,-1.23156 0.943985,-2.75262 2.62557,-2.76255 z "/>
<path d="m 32.23,40.1918 c 1.04984,-0.0042 2.11987,0.580454 2.60274,1.55251 0.863071,1.50456 -0.0056,3.58847 -1.6895,4.01826 -1.73868,0.586746 -3.78875,-0.866176 -3.72146,-2.71689 -0.02122,-0.864401 0.414268,-1.65054 1.07306,-2.19178 0.488737,-0.446371 1.10526,-0.65983 1.73516,-0.6621 z "/>
</g>
</svg>
