<svg width="48" version="1.1" xmlns="http://www.w3.org/2000/svg" height="48" xmlns:xlink="http://www.w3.org/1999/xlink">
<defs id="defs7386">
<linearGradient id="linearGradient6713-272">
<stop offset="0" style="stop-color:#bfbfbf" id="stop3653"/>
<stop offset="0.47637364" style="stop-color:#8c8c8c" id="stop3655"/>
<stop offset="0.55680996" style="stop-color:#737373" id="stop3657"/>
<stop offset="1" style="stop-color:#4f4f4f" id="stop3659"/>
</linearGradient>
<linearGradient gradientTransform="scale(1.2369109,0.8084657)" id="linearGradient6169-701" xlink:href="#linearGradient6110-38" y1="-118.56122" x1="753.12567" y2="-118.56122" x2="862.3598" gradientUnits="userSpaceOnUse">
<stop offset="0" style="stop-color:#fff" id="stop3669"/>
<stop offset="1" style="stop-color:#b9b9b9;stop-opacity:0" id="stop3671"/>
</linearGradient>
<linearGradient id="linearGradient12606-987">
<stop offset="0" style="stop-color:#f3f3f3" id="stop3663"/>
<stop offset="1" style="stop-color:#f3f3f3;stop-opacity:0" id="stop3665"/>
</linearGradient>
<linearGradient id="linearGradient4004-290">
<stop offset="0" style="stop-color:#fff" id="stop3635"/>
<stop offset="1" style="stop-color:#fff;stop-opacity:0" id="stop3637"/>
</linearGradient>
<linearGradient id="linearGradient6110-649">
<stop offset="0" style="stop-color:#efefef" id="stop3595"/>
<stop offset="0.5" style="stop-color:#e2e2e2;stop-opacity:.812" id="stop3597"/>
<stop offset="1" style="stop-color:#d6d6d6;stop-opacity:0" id="stop3599"/>
</linearGradient>
<linearGradient id="linearGradient6268-123">
<stop offset="0" style="stop-color:#f1f1f1" id="stop3603"/>
<stop offset="0.703125" style="stop-color:#e7e7e7" id="stop3605"/>
<stop offset="1" style="stop-color:#dbdbdb" id="stop3607"/>
</linearGradient>
<linearGradient id="linearGradient3329-944">
<stop offset="0" style="stop-color:#ddd" id="stop3623"/>
<stop offset="1" style="stop-color:#909090" id="stop3625"/>
</linearGradient>
<linearGradient id="linearGradient6705-307">
<stop offset="0" style="stop-color:#323232" id="stop3641"/>
<stop offset="1" style="stop-color:#323232;stop-opacity:0" id="stop3643"/>
</linearGradient>
<linearGradient id="linearGradient6549-237">
<stop offset="0" style="stop-color:#fff" id="stop3629"/>
<stop offset="1" style="stop-color:#fff;stop-opacity:0" id="stop3631"/>
</linearGradient>
<linearGradient id="linearGradient3337-144">
<stop offset="0" style="stop-color:#d2d2d2" id="stop3611"/>
<stop offset="1" style="stop-color:#ededed" id="stop3613"/>
</linearGradient>
<linearGradient id="linearGradient3345-386">
<stop offset="0" style="stop-color:#6b6b6b" id="stop3617"/>
<stop offset="1" style="stop-color:#dedede" id="stop3619"/>
</linearGradient>
<linearGradient id="linearGradient5383-526">
<stop offset="0" style="stop-color:#474747" id="stop3647"/>
<stop offset="1" style="stop-color:#474747;stop-opacity:0" id="stop3649"/>
</linearGradient>
<linearGradient gradientTransform="scale(1.2369109,0.8084657)" id="linearGradient6169-248" xlink:href="#linearGradient6110-649" y1="-118.56122" x1="753.12567" y2="-118.56122" x2="862.3598" gradientUnits="userSpaceOnUse">
<stop offset="0" style="stop-color:#fff" id="stop3590"/>
<stop offset="1" style="stop-color:#b9b9b9;stop-opacity:0" id="stop3592"/>
</linearGradient>
<linearGradient gradientTransform="matrix(0.24657483,0,0,0.24657483,105.4205,279.35361)" xlink:href="#linearGradient3329-944" id="linearGradient4352" y1="-72.28125" x1="522.97772" y2="-145.85268" gradientUnits="userSpaceOnUse" x2="603.09106"/>
<linearGradient id="linearGradient6110-38">
<stop offset="0" style="stop-color:#efefef" id="stop3674"/>
<stop offset="0.5" style="stop-color:#e2e2e2;stop-opacity:.812" id="stop3676"/>
<stop offset="1" style="stop-color:#d6d6d6;stop-opacity:0" id="stop3678"/>
</linearGradient>
<linearGradient gradientTransform="matrix(0.24657483,0,0,0.24657483,105.4205,279.35361)" xlink:href="#linearGradient3345-386" id="linearGradient4350" y1="-126.06868" x1="505.52676" y2="5.2764025" gradientUnits="userSpaceOnUse" x2="505.52676"/>
<linearGradient gradientTransform="matrix(0.24657483,0,0,0.24657483,105.4205,279.35361)" xlink:href="#linearGradient3337-144" id="linearGradient4348" y1="-64.498436" x1="560.62927" y2="-24.254879" gradientUnits="userSpaceOnUse" x2="572.39282"/>
<linearGradient id="linearGradient6296-492">
<stop offset="0" style="stop-color:#fff" id="stop3584"/>
<stop offset="1" style="stop-color:#fff;stop-opacity:0" id="stop3586"/>
</linearGradient>
<linearGradient gradientTransform="matrix(0.24657483,0,0,0.24657483,-112.04084,301.05057)" xlink:href="#linearGradient6713-272" id="linearGradient4362" y1="-122.62072" x1="1509.5211" y2="-203.71242" gradientUnits="userSpaceOnUse" x2="1466.8225"/>
<linearGradient gradientTransform="matrix(0.24657483,0,0,0.24657483,-2.7201746,279.35361)" xlink:href="#linearGradient5383-526" id="linearGradient4360" y1="27.316828" x1="929.51794" y2="-112.32603" gradientUnits="userSpaceOnUse" x2="951.82587"/>
<linearGradient gradientTransform="matrix(0.22650815,-0.07569147,0.07569147,0.22650815,156.83171,392.25643)" xlink:href="#linearGradient6169-248" id="linearGradient4368" y1="-322.30264" x1="584.88068" y2="-309.50015" gradientUnits="userSpaceOnUse" x2="576.414"/>
<linearGradient gradientTransform="matrix(0.30499109,0,0,0.19934729,-2.7201746,279.35361)" xlink:href="#linearGradient6169-701" id="linearGradient4366" y1="-118.56122" x1="753.12567" y2="-118.56122" gradientUnits="userSpaceOnUse" x2="862.3598"/>
<linearGradient gradientTransform="matrix(0.24657483,0,0,0.24657483,-2.7201746,279.35361)" xlink:href="#linearGradient6705-307" id="linearGradient4358" y1="-32.679276" x1="1051.0059" y2="-4.4284282" gradientUnits="userSpaceOnUse" x2="995.87506"/>
<radialGradient fx="965.45331" fy="-94.575142" cx="965.45331" cy="-94.575142" gradientTransform="matrix(0.38056941,-0.21972184,0.14311432,0.24788131,-118.55063,491.60836)" xlink:href="#linearGradient4004-290" id="radialGradient4356" r="16.920055" gradientUnits="userSpaceOnUse"/>
<radialGradient fx="568.16028" fy="-308.77417" cx="568.16028" cy="-308.77417" gradientTransform="matrix(1,0,0,0.4189189,0,-179.42282)" xlink:href="#linearGradient6296-492" id="radialGradient4370" r="3.2703688" gradientUnits="userSpaceOnUse"/>
<radialGradient fx="1031.3245" fy="-96.673991" cx="1031.3245" cy="-96.673991" gradientTransform="matrix(0.24657483,0,0,0.11915203,-2.7201746,267.03514)" xlink:href="#linearGradient6549-237" id="radialGradient4354" r="13.090693" gradientUnits="userSpaceOnUse"/>
<radialGradient fx="479.65286" fy="-323.17078" cx="486.8381" cy="-314.12476" gradientTransform="matrix(0.20504474,-0.01285277,0.00736193,0.11744753,166.14601,320.61219)" xlink:href="#linearGradient6268-123" id="radialGradient4346" r="17.073833" gradientUnits="userSpaceOnUse"/>
<radialGradient fx="965.18164" fy="-2.2204363" cx="967.18164" cy="-2.6433811" gradientTransform="matrix(0.33408727,0,0,0.22568676,-87.360617,279.2984)" xlink:href="#linearGradient12606-987" id="radialGradient4364" r="6.4793326" gradientUnits="userSpaceOnUse"/>
</defs>
<g id="layer9" transform="translate(-221,-245)">
<g id="g4294" transform="matrix(0.73743441,0,0,0.73743441,62.781865,64.545471)">
<g style="fill-rule:evenodd" id="g74">
<g style="stroke:none" id="g76">
<path style="fill:#c7c7c7;fill-opacity:.973" id="path6304" d="m 259.4873,278.0119 c 0.22021,0.77016 1.14567,1.58927 1.88946,1.88662 0.90486,0.36175 2.28338,0.0647 3.24737,-0.0779 0.67423,-0.0998 1.65498,-0.18314 2.18967,-0.60582 0.49719,-0.39303 1.06846,-1.21927 1.01816,-1.85104 -0.0513,-0.64377 -0.73833,-1.42377 -1.32291,-1.69825 -1.35416,-0.63583 -3.50316,-0.0556 -4.98431,0.15478 -0.4978,0.0707 -1.27181,0.0572 -1.6234,0.41659 -0.38237,0.39089 -0.56436,1.24932 -0.41404,1.77507 z "/>
<path style="fill:url(#radialGradient4346)" id="path6254" d="m 259.4873,277.8447 c 0.22022,0.77016 1.14567,1.58927 1.88946,1.88662 0.90486,0.36175 2.28339,0.0647 3.24737,-0.0779 0.67423,-0.0998 1.65498,-0.18314 2.18968,-0.60582 0.49718,-0.39303 1.06845,-1.21927 1.01815,-1.85104 -0.0513,-0.64377 -0.73833,-1.42377 -1.32291,-1.69825 -1.35416,-0.63583 -3.50316,-0.0556 -4.9843,0.15478 -0.49781,0.0707 -1.27181,0.0572 -1.62341,0.41659 -0.38237,0.39089 -0.56436,1.24932 -0.41404,1.77507 z "/>
<path style="fill:#2b2b2b;fill-opacity:.973" id="path6456" d="m 253.7353,251.712 c -0.004,0.1257 -0.008,0.24672 0,0.36569 0.003,-0.12363 0.009,-0.24604 0,-0.36569 z  m -26.815,2.1718 c -0.0187,0.96447 0.0667,1.93994 0.17911,2.89569 0.17176,1.45977 0.63515,2.88628 0.84333,4.34355 0.15368,1.0758 0.14949,2.16978 0.24629,3.25393 0.10424,1.16746 0.006,2.4443 0.35823,3.50021 0.17073,0.51218 0.96278,0.71652 1.20903,1.20902 0.39708,0.79414 0.34085,1.82854 0.72392,2.64942 0.46128,0.98846 1.41477,1.79802 1.80608,2.77628 0.006,0.0149 0.0102,0.0296 0.0149,0.0448 0.0362,-0.18467 0.0494,-0.36154 -0.0149,-0.52242 -0.39131,-0.97826 -1.3448,-1.78782 -1.80608,-2.77628 -0.38307,-0.82088 -0.32684,-1.85528 -0.72392,-2.64942 -0.24625,-0.4925 -1.0383,-0.69684 -1.20903,-1.20902 -0.35195,-1.05591 -0.25399,-2.33275 -0.35823,-3.50021 -0.0968,-1.08415 -0.0926,-2.17813 -0.24629,-3.25393 -0.20818,-1.45727 -0.67157,-2.88378 -0.84333,-4.34355 -0.0937,-0.79646 -0.16893,-1.61078 -0.17911,-2.41805 z  m 32.6139,5.2988 c 0.00048,0.0388 0.003,0.0744 0,0.11941 -0.15154,2.27366 -0.0597,4.58574 -0.67914,6.79892 -0.27468,0.98139 -0.3388,1.97894 -0.32092,2.97779 0.008,-0.83773 0.0902,-1.67588 0.32092,-2.50015 0.61944,-2.21318 0.5276,-4.52526 0.67914,-6.79892 0.004,-0.0535 -0.00071,-0.0938 0,-0.14179 0.0366,-0.13501 0.0268,-0.29239 0,-0.45526 z  m -.9329,11.8365 c -0.0623,1.22895 -0.54138,2.4171 -0.68661,3.61215 -0.16853,1.38674 -1.5431,1.30248 -2.47029,1.6195 -1.95931,0.66993 -3.87091,2.01412 -5.91827,1.93295 -1.67745,-0.0665 -3.11617,0.52983 -4.56744,1.17172 -2.13489,0.94423 -4.53461,0.96001 -6.69443,1.85832 -0.89904,0.37393 -2.16109,0.6632 -2.8957,-0.0299 -0.0223,-0.0111 -0.0479,-0.0236 -0.0672,-0.0373 -1.01872,-0.72382 -1.69612,-2.44751 -2.4106,-3.73903 -0.31843,-0.57562 -0.58424,-1.21503 -0.70899,-1.85086 -0.0262,0.139 -0.0381,0.27311 -0.0149,0.40301 0.11793,0.66042 0.39299,1.32726 0.72392,1.92549 0.71448,1.29152 1.39188,3.01521 2.4106,3.73903 0.0193,0.0137 0.0449,0.0262 0.0672,0.0373 0.73461,0.69305 1.99666,0.40378 2.8957,0.0298 2.15982,-0.89831 4.55954,-0.91409 6.69443,-1.85832 1.45127,-0.64189 2.88999,-1.23822 4.56744,-1.17171 2.04736,0.0812 3.95896,-1.26303 5.91827,-1.93296 0.92719,-0.31702 2.30176,-0.23276 2.47029,-1.6195 0.16396,-1.34919 0.75204,-2.68974 0.68661,-4.08979 z  m -23.494,9.8364 c 0.0288,0.0488 0.0649,0.0979 0.10449,0.14926 -0.0389,-0.051 -0.0763,-0.10083 -0.10449,-0.14926 z "/>
</g>
<g style="stroke:#fff;stroke-width:.247" id="g81">
<path style="fill:url(#linearGradient4348)" id="path3305" d="m 235.0484,281.9615 c -0.88284,-1.10721 0.73492,-1.63289 1.65429,-1.82141 1.04988,-0.21527 1.86025,-1.12686 0.63978,-1.97327 -0.96899,-0.672 -2.92586,-0.24781 -3.08663,-1.401 -0.16221,-1.16351 0.69142,-2.427 -0.2862,-3.53213 -0.8832,-0.99839 -0.52425,-2.32015 -0.4183,-3.51287 0.12795,-1.44044 -1.1447,-3.09595 -0.44031,-4.227 0.57096,-0.91681 2.59773,-1.64813 3.6124,-0.7201 0.85093,0.77827 1.94513,0.0437 2.95432,0.15736 1.9333,0.21771 7.63306,-0.89022 5.70566,-1.00551 -3.15683,-0.18885 4.99284,-1.45506 7.49417,-2.17353 1.59066,-0.45689 3.38052,-0.67104 4.69444,-1.67554 0.74024,-0.56592 2.71003,-2.64132 2.57052,-0.54851 -0.1565,2.34748 -0.0613,4.73754 -0.70084,7.02258 -0.41718,1.49055 -0.35026,3.01194 -0.26169,4.53091 0.0854,1.46481 -0.53563,2.86521 -0.707,4.27534 -0.17401,1.43176 -1.59653,1.34587 -2.5538,1.67319 -2.02293,0.69167 -3.99738,2.07815 -6.11121,1.99435 -1.73192,-0.0687 -3.2127,0.54303 -4.71111,1.20576 -2.20418,0.97489 -4.68561,0.9897 -6.91554,1.91717 -0.99013,0.41181 -2.40559,0.72642 -3.13295,-0.18579 z "/>
<path style="fill:url(#linearGradient4350)" id="path3308" d="m 227.2769,249.9551 c -0.20512,-0.0205 -0.66549,1.63673 -0.74743,2.48886 -0.12563,1.30655 -0.0315,2.66801 0.12329,3.98372 0.17731,1.50717 0.65577,2.97999 0.87072,4.48458 0.15868,1.11074 0.15434,2.24024 0.25428,3.35959 0.10762,1.20538 0.006,2.52367 0.36986,3.61386 0.17627,0.52882 0.99404,0.73979 1.24828,1.24828 0.40997,0.81993 0.35192,1.88792 0.74743,2.73544 0.47627,1.02056 1.46071,1.85641 1.86473,2.86644 0.17717,0.44292 -0.20909,1.01436 -0.12329,1.49486 0.12176,0.68186 0.40575,1.37036 0.74743,1.98801 0.73766,1.33346 1.43707,3.11311 2.48886,3.86043 0.0199,0.0141 0.0463,0.0271 0.0694,0.0385 -0.0506,-0.0477 -0.0932,-0.0971 -0.1387,-0.15411 -0.56264,-0.70564 -0.10892,-1.17524 0.53168,-1.47174 -0.0767,-0.0505 -0.15473,-0.10247 -0.21575,-0.15411 -0.48886,-0.41365 -1.18635,-0.93443 -1.24058,-1.49486 -0.0447,-0.46147 0.26528,-0.95884 0.53168,-1.47175 -0.21603,-0.1326 -0.36108,-0.32461 -0.40069,-0.60873 -0.16221,-1.1635 0.69252,-2.42397 -0.2851,-3.5291 -0.8832,-0.99839 -0.52975,-2.32097 -0.4238,-3.51369 0.12795,-1.44045 -1.1436,-3.09155 -0.43921,-4.22259 0.0255,-0.0409 0.0537,-0.0833 0.0848,-0.12329 -0.13939,-0.64202 -0.23769,-1.29968 -0.43921,-1.91096 -0.0685,-0.20766 -0.27957,-0.34578 -0.40069,-0.53167 -0.32515,-0.49907 -0.69789,-0.98309 -0.94006,-1.52569 -0.57771,-1.29436 -1.29179,-2.6146 -1.52569,-3.98372 -0.19161,-1.12166 0.41883,-2.38593 0.25428,-3.48287 -0.0845,-0.56358 -0.55504,-1.23626 -1.00171,-1.49486 -0.34208,-0.19805 -1.15173,0.40613 -1.36386,0.12329 -0.41057,-0.54742 -0.29085,-2.59115 -0.50086,-2.61215 z "/>
<path style="fill:url(#linearGradient4352)" id="path3313" d="m 247.7349,244.9542 c -1.02165,1e-05 -2.07724,0.28462 -3.113,0.39298 -0.88227,0.0923 -1.77252,0.15437 -2.65068,0.27739 -1.27014,0.17795 -2.53726,0.39092 -3.79879,0.62415 -2.44351,0.45174 -4.9162,0.81275 -7.31249,1.43321 -1.09081,0.28244 -2.32415,0.62418 -3.15153,1.2714 -0.33577,0.26266 -0.5006,0.75542 -0.60873,1.23288 0.0666,-0.14316 0.12994,-0.23589 0.17722,-0.23116 0.21001,0.021 0.0903,2.06473 0.50086,2.61215 0.21213,0.28284 1.02178,-0.32134 1.36386,-0.12329 0.44667,0.2586 0.91718,0.93128 1.00171,1.49486 0.16455,1.09694 -0.44589,2.36121 -0.25428,3.48287 0.2339,1.36912 0.94798,2.68936 1.52569,3.98372 0.24217,0.5426 0.61491,1.02662 0.94006,1.52569 0.12112,0.18589 0.33223,0.32401 0.40069,0.53167 0.20152,0.61128 0.29982,1.26894 0.43921,1.91096 0.66498,-0.85767 2.55968,-1.48767 3.5291,-0.60103 0.85093,0.77828 1.94201,0.0482 2.95119,0.16182 1.93331,0.21771 3.82539,-0.58831 5.70976,-1.00942 2.54638,-0.56906 4.98836,-1.45448 7.48971,-2.17294 1.59063,-0.45688 3.38639,-0.66759 4.70033,-1.67209 0.72027,-0.55065 2.59331,-2.52276 2.56591,-0.70119 0.10995,-0.40548 -0.12837,-0.99088 -0.3005,-1.41781 -0.17679,-0.43842 -0.53482,-0.81081 -0.83991,-1.18664 -0.70762,-0.87172 -1.38987,-1.79211 -2.20376,-2.55051 -0.47769,-0.44512 -1.12983,-0.68168 -1.67207,-1.05565 -0.30904,-0.21311 -0.73706,-0.39084 -0.87843,-0.7089 -0.21089,-0.4745 0.0384,-1.16894 -0.17723,-1.67208 -0.40081,-0.93521 -1.05776,-1.80391 -1.67208,-2.64298 -0.58921,-0.80476 -1.159,-1.70722 -1.93408,-2.28852 -0.63392,-0.47545 -1.50329,-0.80886 -2.29623,-0.87842 -0.14427,-0.0127 -0.28556,-0.0231 -0.43151,-0.0231 z  m -14.756,20.851 c -0.0169,0.0533 -0.0355,0.10687 -0.0462,0.16182 0.0103,-0.0562 0.0294,-0.10741 0.0462,-0.16182 z  m -.0462,.1618 c -0.0162,0.0832 -0.0271,0.16755 -0.0308,0.25428 0.003,-0.0859 0.0157,-0.17192 0.0308,-0.25428 z  m -.0308,.2543 c -0.004,0.0864 0.00099,0.17253 0.008,0.26198 -0.007,-0.0893 -0.0107,-0.17605 -0.008,-0.26198 z "/>
</g>
<path style="opacity:.693;fill:url(#radialGradient4354);stroke:none" id="path3562" d="m 252.7095,253.9564 -.3114,1.0586 -1.1208,.3113 -.9963,.0623 -1.4322,-.3113 c 0,0 -0.49816,-0.24908 -0.49816,0.0623 0,0.31134 0.62268,1.12085 0.87177,1.18312 0.24909,0.0623 1.30766,0.37361 1.30766,0.37361 0,0 1.30766,0.31135 1.74355,0.37362 0.43587,0.0623 2.17943,-0.37362 2.17943,-0.37362 0,0 0.49815,0.0623 0.31135,-0.31134 -0.18681,-0.37362 -1.18312,-1.18313 -1.18312,-1.18313 l -.8718,-1.2454 z "/>
</g>
<path style="opacity:.807;fill:#fff;stroke:none" id="path3604" d="m 344.462,41.9571 a 3.283,3.283 0 0,1 -3.28299,3.283 3.283,3.283 0 0,1 -3.283,-3.283 3.283,3.283 0 0,1 3.283,-3.283 3.283,3.283 0 0,1 3.28299,3.283 z " transform="matrix(0.23973408,0.05767772,-0.04214911,0.17519028,157.6165,232.56294)"/>
<g style="fill-rule:evenodd" id="g88">
<g style="stroke:none" id="g90">
<path style="fill:url(#radialGradient4356)" id="path3718" d="m 232.9701,258.7512 c 0,0 0.81412,-1.30506 1.68128,-1.86809 0.86103,-0.55905 0.37362,-0.8095 0.68497,-0.99631 0.31134,-0.18681 1.31944,-0.49561 1.86808,-0.74723 0.47847,-0.21945 1.30766,-0.68497 1.55674,-0.80951 0.24908,-0.12454 1.04452,-0.39667 1.49447,-0.56042 0.31647,-0.11518 1.05858,-0.37362 1.05858,-0.37362 0,0 -1.49447,-0.12454 -1.93035,-0.0623 -0.43589,0.0623 -1.49447,0.68496 -2.0549,0.8095 -0.56042,0.12454 -1.18312,0.43589 -1.55674,0.56043 -0.37361,0.12454 -0.74879,0.32307 -0.99631,0.56042 -0.33301,0.31934 -0.56042,0.93405 -0.8095,1.30766 -0.24908,0.37362 -0.93405,1.99263 -0.99632,2.17944 z "/>
<path style="opacity:.723;fill:url(#linearGradient4358)" id="path4112" d="m 236.969,279.3945 c -1e-05,1e-05 0.0895,0.40675 0.19877,0.63056 0.0521,0.10669 0.0223,0.23784 0.013,0.34321 -0.0102,0.1157 0.004,0.20033 0.17941,0.18739 0.33443,-0.0247 0.39347,-0.5509 0.30953,-0.78175 -0.0839,-0.23086 -0.70068,-0.37942 -0.7007,-0.37941 z  m 6.7675,-1.9182 c -0.0793,-0.25583 0.0213,0.61539 0.0922,0.82205 0.0709,0.20666 0.0484,0.66366 0.3288,0.53674 0.2804,-0.12692 -0.42099,-1.35879 -0.42099,-1.35879 z  m -4.5178,-1.2602 c 0.19275,0.54421 0.5088,-0.0853 0.83826,0.003 0.32946,0.0883 0.84764,0.83373 1.24579,0.71348 0.39816,-0.12025 0.55165,-0.77783 0.59849,-1.19572 0.0468,-0.41789 0.28711,-1.21089 -0.34974,-1.42393 -0.63685,-0.21303 -2.52555,1.35898 -2.3328,1.9032 z  m 6.7685,-1.7227 c -0.005,0.0414 0,0.0915 0.0158,0.14391 0.13532,0.41901 0.88348,1.22911 1.38837,0.84395 0.50488,-0.38514 1.31486,-2.34163 1.0494,-2.24663 -0.26547,0.095 -1.53779,0.73876 -1.90216,0.93496 -0.36436,0.1962 -0.51396,0.0336 -0.55134,0.32381 z  m 2.3489,.2779 c 0.021,-0.003 0.62324,0.23317 0.75558,0.50419 0.13236,0.27103 1.03586,0.49464 1.03586,0.49462 0,0 -0.16124,-0.40272 -0.33771,-0.62941 -0.17647,-0.22669 -0.54643,-0.73865 -0.88668,-0.81001 -0.34025,-0.0714 -0.58801,0.44317 -0.56705,0.44061 z  m 2.5594,-1.8986 c -0.25676,0.42424 0.48008,1.8556 0.48587,1.91709 0.006,0.0617 0.53892,0.4165 0.52974,0.14062 -0.004,-0.12978 0.32356,-0.38162 0.74503,-0.62901 0.42147,-0.24738 -0.26218,-1.0018 -0.67468,-1.34053 -0.41249,-0.33873 -0.8292,-0.51241 -1.08596,-0.0882 z  m 1.8444,-2.6478 c 0,3e-05 0.5686,0.27443 1.21075,0.55477 -0.212,-0.14847 -0.37274,-0.26668 -0.37274,-0.26668 l -.838,-.2881 z  m 1.2107,.5548 c 0.45769,0.32054 1.21327,0.86328 1.53343,1.2279 0.46841,0.5335 2.13139,1.38458 2.13139,1.38458 0,0 0.36939,-0.526 0.0104,-0.83574 -0.35914,-0.30971 -1.41399,-1.04367 -2.10886,-1.18941 -0.33137,-0.0695 -0.98078,-0.33176 -1.56622,-0.58733 z "/>
<path style="fill:url(#linearGradient4360)" id="path4187" d="m 227.5884,252.1918 c -0.30888,0.0271 -0.68706,0.0112 -0.69349,0.30051 -0.006,0.284 0.18301,0.78126 0.43921,1.23288 -0.11996,0.24215 -0.22174,0.51429 -0.20034,0.76284 0.0527,0.61244 0.14398,1.54143 0.17723,2.03424 0.0136,0.20225 0.0281,0.4485 0.0385,0.67038 -0.23639,-1.15868 -0.55594,-2.30602 -0.69349,-3.47517 -0.0488,-0.41494 -0.0915,-0.8351 -0.12329,-1.25599 -0.12345,1.3019 -0.0309,2.65771 0.12329,3.96832 0.11524,0.97955 0.35557,1.94398 0.57021,2.91266 -0.008,-0.001 -0.0154,-0.006 -0.0231,-0.008 0.11423,0.51634 0.21835,1.03528 0.29281,1.5565 0.0176,0.12334 0.0323,0.2461 0.0462,0.36986 0.0109,0.01 0.0198,0.0212 0.0308,0.0308 0.11098,0.98831 0.11943,1.98951 0.20805,2.98202 0.10762,1.20538 0.006,2.52367 0.36986,3.61386 0.17627,0.52882 0.99404,0.73979 1.24829,1.24829 0.0461,0.0922 0.08,0.1873 0.11558,0.2851 -0.005,0.007 -0.002,0.008 -0.008,0.0154 0.26653,0.76387 0.26369,1.67244 0.60873,2.41181 0.1153,0.24708 0.27102,0.4797 0.4315,0.7089 0.0315,0.046 0.0599,0.0931 0.0925,0.1387 0.0153,0.021 0.0308,0.0407 0.0462,0.0616 0.0497,0.0685 0.10291,0.13256 0.15411,0.20035 0.0225,0.0296 0.039,0.0629 0.0617,0.0925 0.42112,0.55179 0.86979,1.08802 1.10958,1.6875 0.17717,0.44292 -0.20909,1.01436 -0.12328,1.49486 0.0138,0.0773 0.0284,0.15381 0.0462,0.23116 -0.0113,-0.0221 -0.0224,-0.0444 -0.0385,-0.0694 0.0199,0.0905 0.0443,0.17943 0.0693,0.26969 0.003,-0.0282 0.00099,-0.0565 0,-0.0848 0.14437,0.56559 0.38696,1.12895 0.67038,1.64127 0.73765,1.33346 1.43707,3.11311 2.48886,3.86043 0.0199,0.0141 0.0463,0.0271 0.0693,0.0385 -0.0506,-0.0477 -0.0932,-0.0971 -0.1387,-0.15411 -0.56265,-0.70564 -0.10893,-1.17524 0.53168,-1.47174 -0.0767,-0.0505 -0.15473,-0.10247 -0.21576,-0.15411 -0.48885,-0.41365 -1.18634,-0.93443 -1.24057,-1.49486 -0.0155,-0.16018 0.008,-0.32518 0.0616,-0.49315 -0.58104,-0.851 -1.05995,-1.9457 -1.5565,-2.84332 -0.34168,-0.61765 -0.62568,-1.30614 -0.74743,-1.98801 -0.0858,-0.48049 0.30045,-1.05193 0.12328,-1.49486 -0.2697,-0.67425 -0.80052,-1.26977 -1.26369,-1.89554 0.00098,-0.002 -0.00099,-0.006 0,-0.008 0.11416,-0.28131 0.36281,-0.28623 0.33904,-0.66267 -0.0274,-0.43354 -0.21924,-1.66739 -0.79367,-1.92636 -0.0359,-0.0162 -0.0754,-0.0239 -0.10787,-0.0231 -0.16261,0.004 -0.27422,0.21531 -0.36216,0.48545 -0.10179,-0.54767 -0.18752,-1.09935 -0.4238,-1.57192 -0.25425,-0.50849 -1.07202,-0.71946 -1.24828,-1.24828 -0.3634,-1.09019 -0.26225,-2.40849 -0.36987,-3.61387 -0.006,-0.0642 -0.0103,-0.12836 -0.0154,-0.19263 0.17077,0.021 0.32117,-0.0848 0.43921,-0.20805 0.009,0.21349 0.0154,0.40068 0.0154,0.40068 0,1e-05 0.57459,0.18257 1.08648,0.28511 0.16691,0.18007 0.32874,0.29609 0.47003,0.30051 0.1239,0.004 0.1855,-0.0891 0.20805,-0.24657 0.0796,-0.0219 0.12193,-0.0702 0.10017,-0.14641 -0.12863,-0.45024 -0.20762,-1.3632 -0.28511,-1.74143 -0.0775,-0.37823 -0.17505,-1.76469 -0.10017,-2.20377 0.0301,-0.17669 0.10437,-0.26769 0.17723,-0.34674 -0.004,-0.0209 -0.0118,-0.0407 -0.0154,-0.0617 -0.074,-0.43297 -0.0281,-0.89081 0.0462,-1.34845 -0.0188,-0.0649 -0.0392,-0.1289 -0.0616,-0.19264 0.0324,-0.012 0.0677,-0.0245 0.10017,-0.0385 0.0288,-0.1617 0.0631,-0.32453 0.0925,-0.48544 0.006,0.0228 0.009,0.0465 0.0154,0.0694 0.0888,-0.50235 0.16232,-0.9983 0.0925,-1.46404 -0.0287,-0.19121 -0.10651,-0.39742 -0.20805,-0.59332 -0.0758,0.46277 -0.12101,0.92612 -0.0462,1.36387 0.0124,0.0728 0.0307,0.14356 0.0462,0.21575 -0.28501,-0.12331 -0.58632,-0.24527 -0.81678,-0.33904 -0.0855,-0.0348 -0.19909,-0.13498 -0.30051,-0.18493 0.001,-0.0895 0.01,-0.1687 0.0154,-0.23887 0.4283,-0.17194 0.87664,-0.51431 0.83219,-0.53938 -0.11559,-0.0652 -0.28058,-0.14348 -0.45462,-0.22346 0.0128,-0.0496 0.02,-0.11182 0.0154,-0.18493 -0.0111,-0.17557 -0.0515,-0.48121 -0.13099,-0.80137 -0.3501,-0.17315 -1.13934,0.40982 -1.34846,0.13099 -0.0636,-0.0848 -0.11275,-0.21083 -0.15411,-0.35445 -0.003,0.00024 -0.005,-0.00023 -0.008,0 z  m -.1233,5.6173 c 0.0958,0.0322 0.28136,0.0927 0.54709,0.16182 -0.0213,0.10124 -0.0314,0.20424 -0.0231,0.30051 0.0345,0.40098 0.0757,0.90213 0.11558,1.36387 -0.1377,-0.0751 -0.29691,-0.14008 -0.46233,-0.19264 -0.0276,-0.41376 -0.057,-0.83048 -0.11558,-1.24058 -0.0187,-0.13123 -0.0393,-0.26218 -0.0616,-0.39298 z  m 3.5445,3.8836 c -0.0537,-0.0232 0.59643,1.21594 0.75513,1.74143 0.1587,0.5255 1.13271,2.22688 1.13271,2.22688 -1e-05,0 0.0539,-0.0126 0.11558,-0.0462 0.0221,-0.0471 0.0411,-0.0933 0.0694,-0.1387 0.0254,-0.0409 0.0537,-0.0833 0.0848,-0.12329 -0.01,-0.0456 -0.0136,-0.093 -0.0231,-0.1387 -0.005,-0.0142 -0.009,-0.0235 -0.0154,-0.0385 -0.17096,-0.42018 -0.8379,-1.70041 -1.17123,-2.10359 -0.33332,-0.4032 -0.89407,-1.3561 -0.94777,-1.37928 z  m -.6319,.8938 c -0.0537,-0.0232 0.59643,1.21594 0.75514,1.74144 0.1587,0.52549 1.1327,2.22688 1.1327,2.22688 0,0 0.40212,-0.0653 0.23116,-0.48545 -0.17097,-0.42018 -0.8379,-1.6927 -1.17123,-2.09589 -0.33332,-0.40319 -0.89407,-1.3638 -0.94777,-1.38698 z  m -.4546,.2774 c -0.0993,0.002 -0.17331,0.0327 -0.18493,0.0385 0.0542,0.0131 0.38009,0.56213 0.40068,0.80136 0.022,0.25519 0.59331,0.97861 0.59332,0.9786 l -.0693,-.601 c -1e-05,0 -0.18269,-0.79036 -0.40839,-1.06335 -0.10818,-0.13085 -0.23199,-0.15633 -0.33133,-0.15411 z  m 2.4041,.0462 c 0.0822,0.23286 0.16279,0.45415 0.20805,0.62414 0.0534,0.20066 0.0696,0.6028 0.23116,0.68579 -0.007,0.003 -0.0207,0.007 -0.0231,0.008 0.0374,0.009 0.19624,0.27459 0.30051,0.51626 -0.0877,-0.44314 -0.17763,-0.88273 -0.31592,-1.30222 -0.0685,-0.20767 -0.27957,-0.34578 -0.40069,-0.53168 z  m -1.6027,3.2825 c -0.0138,-0.001 -0.0264,0.004 -0.0385,0.008 -0.4006,0.10864 0.18191,1.32845 0.33904,1.91866 0.055,0.20676 0.0707,0.62883 0.24657,0.6935 0.46291,0.17019 0.45772,-0.78066 0.2774,-1.47945 0.13124,-0.15095 0.24183,-0.36491 0.20805,-0.5625 -0.0261,-0.15245 -0.34675,-0.49315 -0.34675,-0.49315 -6e-05,4e-05 -0.0535,0.21288 -0.10787,0.45462 -0.16563,-0.25248 -0.42244,-0.52701 -0.57791,-0.53938 z  m 2.4735,1.6567 c -0.0993,0.002 -0.17331,0.0404 -0.18493,0.0462 0.0474,0.0114 0.30836,0.42942 0.38527,0.69349 -0.0587,-0.24594 -0.12579,-0.49423 -0.20034,-0.73973 z  m .208,.6396 c -0.002,0.0414 0.001,0.082 0,0.12328 0.00074,0.003 -0.00074,0.005 0,0.008 -0.0124,0.40013 0.0107,0.79484 0.1387,1.16352 0.002,-0.0203 0.006,-0.0414 0.008,-0.0616 0.0355,-0.39933 -0.0387,-0.81673 -0.14641,-1.23287 z  m .8322,5.1241 c -0.006,0.14798 0.003,0.29377 0.0231,0.43921 0.0251,0.17978 0.0919,0.3172 0.19264,0.43151 -0.006,-0.29465 -0.0668,-0.58787 -0.21576,-0.87072 z  m .1541,1.5719 c -0.16264,0.32665 -0.29118,0.64613 -0.26199,0.94778 0.011,0.11316 0.0515,0.22196 0.10788,0.33133 -0.004,-0.42065 0.0898,-0.85067 0.15411,-1.27911 z "/>
<path style="opacity:.683;fill:#959595" id="path4108" d="m 247.734,244.9511 c -1.02164,1e-05 -2.07727,0.28462 -3.11301,0.39298 -0.37689,0.0394 -0.75449,0.0724 -1.13272,0.10787 l -.4238,1.0711 1.0557,.7089 1.7569,.3467 2.119,1.5873 1.0557,1.0556 1.0557,2.2885 1.0556,1.5873 1.5873,.8784 c 0,0 0.70119,0.88283 0.70119,1.58733 0,0.7045 -0.52398,1.4101 -0.52398,1.4101 0,0 -1.58949,0.7067 -0.7089,1.58733 0.88062,0.88062 2.82023,2.28852 2.82023,2.28852 -3e-05,0 -0.35556,0.7056 -0.53169,1.4101 -0.17613,0.7045 0,2.28852 0,2.28852 l .1772,2.2885 -1.0556,1.4101 -2.4657,1.7568 -4.5771,1.4101 -3.3519,.5317 -5.9872,1.2329 -1.4101,-.3544 -1.9341,2.2885 .7012,2.2885 .5317,2.119 .131,1.6567 c 0.7669,0.63267 2.01346,0.34318 2.91269,-0.0308 2.22995,-0.92747 4.70758,-0.94377 6.91179,-1.91866 1.49839,-0.66273 2.98383,-1.27842 4.71574,-1.20976 2.11384,0.0838 4.08752,-1.30404 6.11042,-1.99571 0.95733,-0.32732 2.37652,-0.24033 2.55053,-1.67209 0.17136,-1.41012 0.79431,-2.81172 0.7089,-4.27653 -0.0886,-1.51898 -0.1552,-3.04026 0.26198,-4.53081 0.63957,-2.28505 0.54471,-4.6722 0.70119,-7.01968 0.004,-0.0552 0,-0.0969 0,-0.14641 0.11,-0.40548 -0.12834,-0.99087 -0.3005,-1.4178 -0.17677,-0.43842 -0.5348,-0.81081 -0.83991,-1.18664 -0.7076,-0.87172 -1.38987,-1.79211 -2.20374,-2.55051 -0.47766,-0.44512 -1.12985,-0.68168 -1.6721,-1.05565 -0.309,-0.21311 -0.73706,-0.39084 -0.87842,-0.7089 -0.21089,-0.4745 0.0384,-1.16894 -0.17724,-1.67209 -0.40075,-0.9352 -1.05775,-1.8039 -1.67207,-2.64297 -0.58919,-0.80476 -1.159,-1.70722 -1.93408,-2.28852 -0.6339,-0.47545 -1.5033,-0.80886 -2.29621,-0.87843 -0.14424,-0.0127 -0.28556,-0.0231 -0.4315,-0.0231 z  m -12.8142,36.8244 c 0.0291,0.05 0.0677,0.10146 0.10788,0.15411 -0.0409,-0.053 -0.0782,-0.10376 -0.10788,-0.15411 z "/>
<path style="opacity:.504;fill:url(#linearGradient4362)" id="path10335" d="m 247.7353,244.9573 c -1.02163,1e-05 -2.07729,0.28462 -3.113,0.39297 -0.37689,0.0394 -0.7545,0.0724 -1.13272,0.10788 l -.4238,1.0711 .4546,.3005 .3236,-.393 c 0,0 0.49096,-0.31043 0.75514,-0.35446 l -1.0556,.7628 .5779,.393 1.7569,.3467 2.119,1.5873 1.0557,1.0556 1.0557,2.2885 1.0556,1.5873 1.5873,.8784 c 0,0 0.70118,0.88283 0.70118,1.58733 0,0.7045 -0.52397,1.4101 -0.52397,1.4101 0,0 -1.58947,0.7067 -0.7089,1.58732 0.88062,0.88063 2.82022,2.28853 2.82022,2.28853 -2e-05,0 -0.35556,0.7056 -0.53169,1.4101 -0.17612,0.7045 0,2.28852 0,2.28852 l .1772,2.2885 -1.0556,1.4101 -2.4658,1.7568 -4.577,1.4101 -3.3519,.5317 -5.9872,1.2329 -1.4101,-.3544 -1.9341,2.2885 .7012,2.2885 .5317,2.119 .131,1.6567 c 0.7669,0.63267 2.01346,0.34318 2.91269,-0.0308 2.22995,-0.92747 4.70758,-0.94377 6.91179,-1.91866 1.49838,-0.66272 2.98382,-1.27842 4.71574,-1.20976 2.11384,0.0838 4.08755,-1.30404 6.11042,-1.99571 0.95733,-0.32732 2.37651,-0.24032 2.55052,-1.67209 0.0764,-0.62852 0.23989,-1.25635 0.39299,-1.88784 l -1.3176,.4392 c 0,0 -1.7624,1.49706 -2.02655,1.84931 -0.26421,0.35226 -1.06116,1.14702 -1.32534,1.58733 -0.26418,0.44031 -2.37331,-1.23288 -2.37328,-1.23288 l 1.1404,-1.0556 c 0,0 1.23621,-1.23618 1.76457,-1.76455 0.52838,-0.52838 2.20376,-0.79367 2.20376,-0.79367 l 2.25,-.8707 c 0.009,-0.18127 0.0106,-0.36399 0,-0.54709 -0.0886,-1.51898 -0.15519,-3.04027 0.26199,-4.53082 0.63957,-2.28503 0.54471,-4.67219 0.70119,-7.01967 0.004,-0.0552 0,-0.0969 0,-0.14641 0.10999,-0.40548 -0.12835,-0.99087 -0.30051,-1.4178 -0.17676,-0.43842 -0.53477,-0.81081 -0.8399,-1.18664 -0.7076,-0.87172 -1.38987,-1.79211 -2.20374,-2.55051 -0.47767,-0.44512 -1.12986,-0.68168 -1.6721,-1.05565 -0.30901,-0.21311 -0.73706,-0.39084 -0.87842,-0.7089 -0.2109,-0.4745 0.0384,-1.16894 -0.17724,-1.67209 -0.40076,-0.9352 -1.05776,-1.8039 -1.67207,-2.64297 -0.58919,-0.80477 -1.15898,-1.70722 -1.93409,-2.28852 -0.63389,-0.47545 -1.50329,-0.80886 -2.2962,-0.87843 -0.14425,-0.0127 -0.28556,-0.0231 -0.43151,-0.0231 z  m -1.2483,1.0788 -.131,.7937 c 0,0 -0.70007,0.26199 -0.83219,-0.0462 -0.13209,-0.30822 0.26305,-0.17062 0.4392,-0.34674 0.17611,-0.17613 0.52397,-0.40069 0.52397,-0.40069 z  m 3.7449,1.1019 2.5505,1.5873 -1.2329,.7937 -1.3176,-.1772 .262,-1.4101 -.262,-.7937 z  m 3.8836,5.833 c 0.25434,0.0109 0.43148,0.41609 0.4315,0.41609 0,0 1.14258,1.15032 1.49484,1.50257 0,0.0881 -1.93736,0.0826 -2.46575,-0.26969 -0.52836,-0.35225 0.002,-1.31544 0.35448,-1.57962 0.066,-0.0495 0.12622,-0.0719 0.18493,-0.0694 z  m .4469,2.3116 c 0.0428,0.004 0.55876,0.0627 0.60105,0.40068 0.0441,0.35225 -0.48546,1.09418 -0.48546,1.09418 l -.4854,.5317 c 0,0 -0.0891,-0.92795 0.131,-1.14811 0.20641,-0.2064 0.30092,-0.8365 0.23886,-0.87842 z  m 2.6276,1.8031 .262,1.0634 -2.0265,1.4024 .3545,-.7012 1.4101,-1.7645 z  m 1.9341,4.2303 0,.8784 c 0,0 -0.051,0.19555 -0.12328,0.44691 -0.0513,0.63654 -0.0959,1.33624 -0.0539,1.67209 0.0881,0.7045 -0.26309,1.93297 -0.43922,2.37328 -0.17613,0.44031 -0.79365,0.26199 -0.79365,0.26199 0,0 0.26423,-1.84931 0.61643,-2.46575 0.24004,-0.42005 0.51574,-1.30395 0.67037,-1.84161 0.0563,-0.69869 0.12328,-1.32534 0.12328,-1.32534 z  m -24.2028,20.4657 c 0.0291,0.05 0.0677,0.10146 0.10787,0.15411 -0.0409,-0.053 -0.0782,-0.10376 -0.10787,-0.15411 z "/>
<path style="opacity:.683;fill:#e4e4e4" id="path10337" d="m 247.4893,244.7059 c -1.02163,2e-05 -2.07729,0.28462 -3.113,0.39298 -0.37689,0.0394 -0.7545,0.0724 -1.13272,0.10788 l -.4238,1.0711 .4546,.3005 .0385,-.0539 .4238,-1.0711 c 0.37822,-0.0355 0.75583,-0.0685 1.13271,-0.10788 1.03572,-0.10835 2.09138,-0.39296 3.11301,-0.39297 0.14593,-1e-05 0.28726,0.0104 0.43151,0.0231 0.45895,0.0403 0.94497,0.16872 1.39467,0.36216 -0.57148,-0.32948 -1.25528,-0.55324 -1.88782,-0.60874 -0.14425,-0.0126 -0.28558,-0.0231 -0.43151,-0.0231 z  m -.7552,1.3253 c 0,0 -0.34784,0.22456 -0.52397,0.40068 -0.0259,0.0259 -0.0518,0.0469 -0.0847,0.0616 l -.0153,.0848 c 0,0 -0.17063,0.0655 -0.36217,0.0925 -0.002,0.0289 0.003,0.0612 0.0232,0.10788 0.13212,0.30822 0.83219,0.0462 0.83219,0.0462 l .131,-.7937 z  m -1.8878,.0462 c -0.26418,0.044 -0.75514,0.35445 -0.75514,0.35445 l -.3236,.393 -.4161,-.2697 -.0539,.0385 .5779,.393 .1849,.0385 -.2697,-.1849 1.0556,-.7628 z  m 5.6327,1.0557 .0232,.0771 2.0342,1.2637 -1.2329,.7937 -.7937,-.1079 -.0308,.1772 1.3176,.1772 1.0402,-.6704 c -0.10048,-0.14387 -0.19763,-0.28984 -0.3005,-0.4315 l -2.0573,-1.2791 z  m -4.5771,.4007 1.8493,1.387 1.0557,1.0557 1.0557,2.2885 1.0556,1.5873 1.5873,.8784 c 0,0 0.70118,0.88283 0.70118,1.58732 3e-05,0.7045 -0.52397,1.4101 -0.52397,1.4101 2e-05,0 -1.58947,0.7067 -0.7089,1.58733 0.88064,0.88062 2.82022,2.28852 2.82022,2.28852 -2e-05,0 -0.35556,0.7056 -0.53169,1.4101 -0.17613,0.7045 0,2.28852 0,2.28852 l .1772,2.2885 -1.0556,1.4101 -2.4657,1.7568 -4.577,1.4101 -3.3519,.5317 -5.9872,1.2329 -1.4101,-.3544 -1.9341,2.2885 .7012,2.2885 .5317,2.119 .131,1.6567 c 0.16271,0.13423 0.34912,0.22589 0.5471,0.2851 -0.0173,-0.013 -0.0371,-0.0246 -0.054,-0.0385 l -.131,-1.6567 -.5317,-2.119 -.7012,-2.2885 1.9341,-2.2885 1.4101,.3545 5.9872,-1.2329 3.3519,-.5317 4.577,-1.4101 2.4657,-1.7568 1.0556,-1.4101 -.1772,-2.2885 c 0,0 -0.17613,-1.58403 0,-2.28853 0.17613,-0.70449 0.53167,-1.4101 0.53169,-1.4101 0,0 -1.93958,-1.40789 -2.82022,-2.28852 -0.88057,-0.88062 0.70892,-1.58732 0.7089,-1.58732 0,0 0.524,-0.7056 0.52397,-1.4101 0,-0.7045 -0.70118,-1.58733 -0.70118,-1.58733 l -1.5873,-.8784 -1.0556,-1.5873 -1.0557,-2.2885 -1.0557,-1.0557 -2.119,-1.5873 -.2235,-.0462 z  m 8.4606,5.4324 c -0.0427,-0.002 -0.0851,0.0132 -0.13101,0.0385 0.0439,0.071 0.0693,0.131 0.0694,0.131 0,0 1.14261,1.15031 1.49484,1.50256 2e-05,0.0731 -1.3248,0.0777 -2.08045,-0.12328 0.0302,0.0375 0.0634,0.0705 0.10785,0.10017 0.52841,0.35225 2.46577,0.35775 2.46575,0.26969 -0.35224,-0.35225 -1.49484,-1.50257 -1.49484,-1.50257 -2e-05,0 -0.17716,-0.40519 -0.4315,-0.41609 z  m .5008,2.3193 c 0.029,0.0419 0.0469,0.0901 0.0539,0.14641 0.0412,0.32959 -0.40288,0.97842 -0.46233,1.06335 -0.0511,0.34932 -0.0153,0.80907 -0.0155,0.80907 l .4854,-.5317 c 0,0 0.52952,-0.74192 0.48546,-1.09417 -0.037,-0.29572 -0.41908,-0.37451 -0.5471,-0.39298 z  m 2.5736,1.7954 -.3313,.4161 .1002,.4007 -.9401,.655 -.2389,.2928 -.3545,.7012 2.0266,-1.4024 -.262,-1.0634 z  m 1.9341,4.2303 c 0,0 -0.0669,0.62664 -0.12329,1.32534 0.0723,-0.25136 0.12332,-0.44692 0.12329,-0.44692 v -0.87842 z  m -.1233,1.3253 c -0.12703,0.44177 -0.33578,1.112 -0.53935,1.57192 0.032,0.71716 -0.28211,1.81482 -0.44694,2.22688 -0.0543,0.13564 -0.14718,0.20505 -0.25427,0.24657 -0.0232,0.14365 -0.0462,0.26199 -0.0462,0.26199 0,0 0.61755,0.17832 0.79366,-0.26199 0.17612,-0.44031 0.5273,-1.66878 0.43922,-2.37328 -0.042,-0.33585 0.003,-1.03555 0.0539,-1.67209 z  m -.6318,10.5796 -1.3177,.4392 c 0,0 -1.76236,1.49707 -2.02654,1.84932 -0.26418,0.35225 -1.06114,1.14701 -1.32534,1.58732 -0.0613,0.10222 -0.22079,0.0859 -0.43151,0.008 0.24665,0.14228 0.47352,0.25495 0.64726,0.29281 0.11562,-0.052 0.23109,-0.10353 0.34676,-0.15411 0.31048,-0.45204 1.01044,-1.15975 1.25598,-1.48715 0.26418,-0.35225 2.02654,-1.84931 2.02654,-1.84931 l .7166,-.2389 c 0.036,-0.14873 0.0717,-0.29785 0.1079,-0.44692 z  m -23.9409,8.3142 c 0.0291,0.05 0.0677,0.10146 0.10788,0.15411 -0.0409,-0.053 -0.0782,-0.10376 -0.10788,-0.15411 z "/>
<path style="opacity:.534;fill:#6c6c6c" id="path4152" d="m 247.7017,245.3005 c -0.31352,0 -0.62944,0.0291 -0.94779,0.0694 0.0217,0.0412 0.0367,0.0814 0.0616,0.12328 -0.15808,0.27305 -0.21899,0.67533 -0.23117,0.96319 -0.0128,0.30574 -0.11148,0.81219 0.0848,1.1327 -0.25424,0.13288 -0.52811,0.28958 -0.7166,0.41609 l .339,.262 c 0.34733,-0.0407 0.7511,-0.16098 0.90925,-0.35445 0.0143,-0.0174 0.0229,-0.0358 0.0308,-0.0617 0.30891,-0.0503 0.73378,-0.32871 1.1173,-0.67037 0.004,0.003 0.0385,0.0385 0.0385,0.0385 0,-0.0244 0.003,-0.0516 0.008,-0.0771 0.52831,-0.48209 0.95237,-1.07942 0.83219,-1.35616 -0.0237,-0.0543 -0.0449,-0.0917 -0.0693,-0.12329 0.003,-0.041 0,-0.0757 -0.008,-0.11558 -0.33704,-0.11336 -0.68395,-0.19423 -1.01712,-0.22346 -0.14424,-0.0126 -0.28558,-0.0231 -0.4315,-0.0231 z  m 5.4555,4.2919 c 0.10191,0.24959 0.27972,0.52344 0.49315,0.78596 -0.15258,-0.26466 -0.3182,-0.53008 -0.49315,-0.78596 z  m -2.3116,1.988 c -0.18872,-0.0114 -0.50858,0.15411 -0.50858,0.15411 7e-05,0.00024 1.076,1.33239 1.20205,1.21746 0.13069,-0.1192 -0.22189,-1.16001 -0.62413,-1.35616 -0.0202,-0.01 -0.0424,-0.0138 -0.0693,-0.0154 z  m 5.1781,3.1053 c -0.71475,-0.00074 -1.48717,0.0539 -1.48717,0.0539 0,0 -0.0375,0.63852 0.43151,0.7089 0.46896,0.0703 1.92811,0.0671 2.41951,-0.11558 0.0261,-0.01 0.0631,-0.0138 0.0925,-0.0231 -0.17219,-0.19289 -0.34873,-0.38251 -0.53167,-0.5625 -0.22916,-0.0431 -0.56135,-0.0613 -0.92465,-0.0616 z  m -1.9726,.1387 c -0.00025,-1e-05 -0.80867,0.37085 -1.23288,0.63185 0.0533,0.0747 0.11629,0.17403 0.19263,0.30051 0.36468,-0.0162 0.84489,-0.1243 1.02481,-0.33133 0.11777,-0.1355 0.0155,-0.60103 0.0155,-0.60103 z  m .0925,.5933 c -0.35297,0.1016 -0.19694,0.84344 -0.22347,1.20976 -0.009,0.12831 -0.10257,0.39628 0.0232,0.4238 0.39319,0.0861 0.65601,-0.79561 0.60105,-1.19435 -0.0242,-0.17596 -0.22998,-0.48834 -0.40068,-0.43921 z  m 2.1575,.0848 c -0.041,0.008 -0.087,0.0286 -0.131,0.0616 -0.35223,0.26419 -0.87515,1.23508 -0.34676,1.58733 0.52834,0.35225 2.51866,0.32813 2.46575,0.26198 -0.29939,-0.37416 -1.03542,-1.06343 -1.50256,-1.49485 -0.14089,-0.13015 -0.19886,-0.4751 -0.48543,-0.4161 z  m .4315,2.6044 c -0.62931,0.0157 -1.24331,0.22313 -1.32534,0.65496 -0.14116,0.74285 1.63548,1.27401 2.38867,1.46404 -0.43718,0.41167 -0.80115,0.82686 -0.63954,0.994 0.27116,0.28046 0.65098,0.90473 0.94006,1.34075 -0.10713,0.0737 -0.23888,0.16952 -0.23888,0.16952 0,1e-05 -1.6754,0.26529 -2.20374,0.79367 -0.17504,0.17501 -0.39084,0.39654 -0.60105,0.60873 -0.22929,-0.11698 -0.44289,-0.20401 -0.62413,-0.23887 -0.0881,0.77431 0.0462,2.00342 0.0462,2.00342 l .131,1.6413 c 0.25784,0.11079 0.45367,0.14799 0.52397,0.0308 0.26413,-0.44031 1.05342,-1.22737 1.31762,-1.57962 0.26421,-0.35226 1.49195,-1.53556 2.02653,-1.84932 0.18025,-0.10578 0.34725,-0.15322 0.50087,-0.17722 0.27505,0.51179 0.53765,1.06542 0.62415,1.37928 0.0255,0.0926 0.033,0.17346 0.0385,0.25428 -0.07,0.0844 -0.12598,0.16411 -0.0693,0.21575 0.0207,0.0189 0.0452,0.0357 0.0693,0.0462 -0.006,0.0583 -0.015,0.11457 -0.0232,0.16952 0.32023,-1.56815 0.35869,-3.17579 0.42381,-4.77738 -0.12925,-0.22306 -0.26637,-0.46394 -0.35445,-0.62415 -0.29222,-0.53161 -0.72431,-1.38698 -0.72431,-1.38698 0,0 -0.41617,0.31998 -0.85532,0.7012 0.006,-0.52092 0.2357,-1.2472 -0.11557,-1.52568 -0.26786,-0.21241 -0.76658,-0.32047 -1.25598,-0.30822 z  m -.4701,3.9837 c -0.13021,0.002 -0.28511,0.0616 -0.28511,0.0616 l -.0693,.4315 c 0,1e-05 0.1894,-0.12004 0.28509,-0.21575 0.0957,-0.0957 0.31066,-0.0251 0.23888,-0.19264 -0.0269,-0.0628 -0.0914,-0.086 -0.16952,-0.0848 z  m .9324,5.3476 c -0.18042,0.026 -0.13873,0.43151 -0.13873,0.43151 l .393,.1772 c -2e-05,-1e-05 -0.0633,-0.21412 -0.13098,-0.33133 -0.0677,-0.11723 0.0571,-0.30338 -0.12328,-0.2774 z "/>
<path style="fill:#f1f1f1;fill-opacity:.84" id="path5063" d="m 227.7383,252.4412 c 0.005,0.1705 0.0125,0.35344 0.0154,0.46233 0.005,0.17965 0.008,0.44691 0.008,0.44691 1e-05,0 0.15534,0.49249 0.23117,0.68579 0.00074,0.004 -0.00074,0.004 0,0.008 0.003,0.0231 0.004,0.0446 0.008,0.0694 -0.0116,-0.0101 -0.0227,-0.009 -0.0231,0.0308 -0.003,0.27246 0.17378,1.42894 0.27739,1.6952 0.00049,0.007 -0.00019,0.025 0,0.0308 0.004,0.12837 0.12329,0.74743 0.12329,0.74743 l -.0154,-.3082 c 0,0 -0.0328,-0.4571 -0.0771,-0.6935 -0.0175,-0.40347 -0.0925,-1.14811 -0.0925,-1.14811 -0.0169,0.0219 -0.0819,-0.11841 -0.13099,-0.23116 -0.007,-0.0445 -0.009,-0.0724 -0.0154,-0.11558 0.001,-0.003 0.008,-0.008 0.008,-0.008 l -.0308,-.2003 c -0.006,-0.0943 -0.0108,-0.16868 -0.0154,-0.26198 0.0248,0.027 0.0385,-0.0154 0.0385,-0.0154 l -.0616,-.393 c -0.009,-0.21306 -0.0165,-0.53266 -0.008,-0.63185 0.003,-0.0306 0.01,-0.0475 0.0154,-0.0539 -0.0962,0.007 -0.17568,-0.006 -0.22346,-0.0694 -0.0106,-0.0141 -0.0209,-0.0302 -0.0308,-0.0462 z  m .2774,.4161 c -0.003,0.004 0.00011,0.0105 0,0.0231 -0.002,0.20217 0.0746,0.32022 0.11559,0.54708 0.041,0.22687 0.0773,0.66708 0.1387,0.90925 0.0614,0.24217 0.11039,0.25189 0.13869,0.22346 0.0283,-0.0284 0.10788,0.013 0.0308,-0.43151 -0.0722,-0.41672 -0.38436,-1.32568 -0.42381,-1.2714 z  m .339,1.9033 c -0.0105,-0.037 0.11525,0.8513 0.1464,1.17123 0.0311,0.31993 0.22346,1.57962 0.22346,1.57962 -1e-05,0 0.0798,0.16952 0.0462,-0.10788 -0.0336,-0.27739 -0.16574,-1.19197 -0.23116,-1.54109 -0.0654,-0.34912 -0.17439,-1.06488 -0.18493,-1.10188 z  m .4931,0 c 1e-05,0 -0.0112,0.11306 -0.008,0.21575 0.003,0.1027 -0.0476,-0.0138 0,0.20035 0.0476,0.21415 0.0848,0.0925 0.0848,0.0925 l -.077,-.5086 z  m -.339,.1233 c -0.003,-0.001 -0.006,0.004 -0.008,0.008 -0.0223,0.0511 0.0417,0.56058 0.0616,0.78596 0.008,0.0902 0.013,0.23803 0.0385,0.32363 0.0797,0.2678 0.0635,-0.24634 0.0231,-0.57021 -0.0178,-0.14292 -0.0798,-0.47948 -0.10788,-0.53167 -0.004,-0.007 -0.005,-0.0143 -0.008,-0.0154 z  m -1.2714,1.0557 c 0.008,0.024 0.0587,0.32727 0.0616,0.41609 0.003,0.0947 0.0848,0.54709 0.0848,0.54709 l -.008,-.2312 c 1e-05,0 -0.0289,-0.3341 -0.0616,-0.50857 -0.0314,-0.16725 -0.0737,-0.21902 -0.0771,-0.22345 z  m 2.4735,.1002 c -0.003,0.004 0.00011,0.0105 0,0.0231 -0.002,0.20218 0.0746,0.32023 0.11558,0.54709 0.004,0.0216 0.0115,0.0576 0.0154,0.0848 0.005,-0.0982 0.02,-0.19356 0.0308,-0.29281 -0.0773,-0.21803 -0.14481,-0.38555 -0.16181,-0.36215 z  m -2.1807,.0462 c -0.052,-0.026 0.0558,0.74389 0.0848,1.07106 0.0108,0.12225 0.0117,0.32324 0.0462,0.43921 0.108,0.36284 0.0855,-0.33174 0.0308,-0.77055 -0.0241,-0.19365 -0.10838,-0.65359 -0.14641,-0.72431 -0.005,-0.009 -0.0119,-0.0137 -0.0154,-0.0154 z  m 2.119,.0462 c -0.003,0.002 -0.007,0.0124 -0.008,0.0308 -0.003,0.14716 0.0564,0.75055 0.1464,1.02483 0.0294,0.0896 0.0684,0.15543 0.10788,0.21575 -0.004,-0.0209 -0.0118,-0.0407 -0.0154,-0.0616 -0.0297,-0.17405 -0.0415,-0.35192 -0.0385,-0.53168 -0.0357,-0.12908 -0.0697,-0.25714 -0.10017,-0.36215 -0.0281,-0.0971 -0.0721,-0.33252 -0.0925,-0.31593 z  m -.0616,.7012 c -0.004,0.003 -0.008,0.0124 -0.008,0.0308 -0.002,0.20109 0.12386,1.05177 0.20034,1.24829 0.0929,0.23881 -0.0462,-1.01712 -0.0462,-1.01712 -0.021,0.0273 -0.12056,-0.28166 -0.14641,-0.26199 z  m -.7012,.1464 c -0.002,0.003 8e-05,0.006 0,0.0154 -0.001,0.14922 0.0545,0.23325 0.0848,0.40069 0.0303,0.16745 0.0549,0.49934 0.10017,0.67808 0.0453,0.17873 0.0793,0.18281 0.10017,0.16181 0.0152,-0.0153 0.0511,-0.005 0.0462,-0.12328 0.0107,0.0371 0.0224,0.069 0.0308,0.11558 0.0303,0.16743 0.0549,0.49164 0.10017,0.67037 0.0453,0.17874 0.087,0.1828 0.10788,0.16182 0.0183,-0.0184 0.0505,-0.009 0.0231,-0.22346 0.0148,0.0493 0.0344,0.0963 0.0462,0.16181 0.0303,0.16744 0.0548,0.49935 0.10017,0.67809 0.0453,0.17873 0.087,0.1828 0.10788,0.16181 0.0209,-0.021 0.0723,0.0122 0.0154,-0.31592 -0.0533,-0.30757 -0.2791,-0.98013 -0.30822,-0.94007 -0.0752,-0.30825 -0.22717,-0.73854 -0.26969,-0.77825 -0.0757,-0.3328 -0.25889,-0.86056 -0.2851,-0.82449 z  m -.6164,.1849 c -1e-05,0 -0.0112,0.11306 -0.008,0.21576 0.003,0.10269 -0.0476,-0.0138 0,0.20034 0.0476,0.21416 0.0848,0.0925 0.0848,0.0925 l -.0771,-.5086 z  m -.2774,.0925 c -0.0521,-0.0259 0.0481,0.73618 0.0771,1.06335 0.0108,0.12226 0.0194,0.33094 0.0539,0.44692 0.0816,0.27404 0.0867,-0.0563 0.0616,-0.4238 0.008,-0.0171 0.0141,-0.0499 0.0154,-0.0848 0.0256,0.0969 0.0607,0.19048 0.0848,0.32363 0.041,0.22687 0.0696,0.66707 0.13099,0.90924 0.003,0.0125 0.005,0.0196 0.008,0.0308 -0.009,0.0902 -0.0103,0.18742 0,0.23116 0.0228,0.0963 0.0998,0.10783 0.10788,-0.0308 0.0133,0.004 0.0221,0.001 0.0308,-0.008 0.0283,-0.0284 0.10017,0.013 0.0231,-0.4315 -0.0722,-0.41673 -0.37665,-1.32568 -0.41609,-1.2714 -0.0163,-0.0899 -0.0345,-0.14932 -0.0385,-0.16952 -0.0346,-0.21869 -0.0922,-0.51238 -0.12329,-0.57021 -0.005,-0.009 -0.0119,-0.0137 -0.0154,-0.0154 z  m .6473,.2003 c -0.0105,-0.037 0.11525,0.8513 0.1464,1.17123 0.0311,0.31993 0.22346,1.57962 0.22346,1.57962 -1e-05,0 0.0798,0.16953 0.0462,-0.10787 -0.0336,-0.2774 -0.16574,-1.19198 -0.23116,-1.5411 -0.0654,-0.34912 -0.17439,-1.06489 -0.18493,-1.10188 z  m -.9555,1.3176 c -0.004,-0.003 -0.006,0.003 -0.008,0.008 -0.0303,0.0693 0.0655,0.758 0.0925,1.06336 0.0108,0.12224 0.0117,0.33093 0.0462,0.44691 0.108,0.36284 0.0855,-0.33944 0.0308,-0.77825 -0.0241,-0.19365 -0.10838,-0.64589 -0.14641,-0.71661 -0.005,-0.009 -0.0114,-0.0203 -0.0154,-0.0231 z  m 2.2808,.131 c -0.0491,0.003 -0.0616,0.43151 -0.0616,0.43151 0,0 -0.0924,0.0346 -0.0848,0.26198 0.008,0.22739 0.0183,0.57549 0.0231,0.75514 0.005,0.17964 0.0154,0.44691 0.0154,0.44691 -1e-05,0 0.28832,0.93938 0.26969,0.73973 -0.0186,-0.19966 -0.035,-0.53682 -0.0462,-0.69349 -0.0113,-0.15668 -0.0263,-0.66369 -0.0154,-0.78596 0.0108,-0.12227 0.0656,0.0187 0.0616,-0.1387 -0.004,-0.15736 -0.0324,-0.64427 -0.11558,-0.94007 -0.0156,-0.0555 -0.0349,-0.0778 -0.0462,-0.077 z  m -1.256,.2081 c -0.002,-0.003 -0.006,0.003 -0.008,0.008 -0.0303,0.0693 0.0578,0.75799 0.0848,1.06336 0.0108,0.12225 0.0117,0.32322 0.0462,0.43921 0.108,0.36283 0.0855,-0.33176 0.0308,-0.77055 -0.0242,-0.19365 -0.10838,-0.64589 -0.14641,-0.71661 -0.005,-0.009 -0.006,-0.0203 -0.008,-0.0231 z  m -1.4101,.3544 c -0.002,-0.006 0.0166,0.143 0.0231,0.19263 -0.002,0.0205 -0.006,0.0409 -0.008,0.0616 0.0128,0.0615 0.0262,0.12333 0.0385,0.18493 0.0615,0.30705 0.11766,0.6155 0.16182,0.92466 0.0655,0.45863 0.10224,0.92398 0.13099,1.38698 0.0126,0.0244 0.0187,0.0353 0.0154,0 -0.0186,-0.19966 -0.0273,-0.53682 -0.0385,-0.69349 -0.0113,-0.15668 -0.0263,-0.66369 -0.0154,-0.78596 0.0108,-0.12227 0.0579,0.0187 0.0539,-0.1387 -0.004,-0.15737 -0.0324,-0.65197 -0.11558,-0.94777 -0.0832,-0.2958 -0.10017,0.36216 -0.10017,0.36216 0,0 -0.0236,0.01 -0.0462,0.0462 -0.011,-0.0655 -0.0126,-0.0896 -0.0231,-0.15411 0.0144,-0.0124 0.0195,-0.0422 0.0154,-0.10788 -0.004,-0.0613 -0.0462,-0.2928 -0.0462,-0.2928 0,-1e-05 -0.008,0.0615 -0.0154,0.12328 -0.007,-0.039 -0.0293,-0.15638 -0.0308,-0.16181 z  m 2.0882,.262 c 0.008,0.024 0.0587,0.31957 0.0616,0.40839 0.003,0.0947 0.0848,0.55479 0.0848,0.5548 l -.008,-.2312 c 0,0 -0.0289,-0.33409 -0.0616,-0.50856 -0.0313,-0.16725 -0.0737,-0.21903 -0.0771,-0.22346 z  m .2851,1.0094 c 0.008,0.024 0.051,0.32728 0.0539,0.41609 0.003,0.0948 0.0925,0.5548 0.0925,0.5548 l -.0154,-.2312 c 0,0 -0.0289,-0.33409 -0.0616,-0.50856 -0.0313,-0.16725 -0.066,-0.22673 -0.0694,-0.23116 z  m -.131,.4084 c -0.004,0.003 -0.008,0.0124 -0.008,0.0308 -0.002,0.20109 0.12387,1.05177 0.20035,1.24829 0.0929,0.23882 -0.0462,-1.01712 -0.0462,-1.01712 -0.021,0.0273 -0.12056,-0.28166 -0.1464,-0.26199 z  m -.7243,.0616 c -0.002,0.002 0.00025,0.01 0,0.0231 -0.002,0.10861 0.0414,0.55269 0.10788,0.75513 0.0664,0.20244 0.20189,0.30504 0.19264,0.2697 -0.0523,-0.19992 -0.16235,-0.57924 -0.23117,-0.81678 -0.0208,-0.0717 -0.0543,-0.24341 -0.0694,-0.23117 z  m 1.1327,.0462 c -1e-05,-1e-05 -0.003,0.086 0,0.16181 0.003,0.0758 -0.0351,-0.0117 0,0.1464 0.0351,0.15806 0.0616,0.0694 0.0616,0.0694 l -.0616,-.3776 z  m 1.726,.5856 c 0.0213,0.16638 0.0519,0.35412 0.0616,0.45462 0.0311,0.31993 0.22346,1.57962 0.22346,1.57962 0,0 0.0661,0.13709 0.0462,-0.077 0.0324,0.22062 0.0693,0.4315 0.0693,0.4315 1e-05,0 0.0327,0.075 0.0385,0.0231 0.001,0.0124 -0.002,0.0286 0,0.0385 0.009,0.0373 0.0233,0.0686 0.0385,0.0925 0.0131,0.1203 0.0313,0.24991 0.0385,0.33134 0.008,0.0902 0.005,0.23803 0.0308,0.32363 0.0498,0.16737 0.0617,0.0215 0.0539,-0.18493 0.012,0.045 0.0277,0.0878 0.0385,0.11558 0.0803,0.20646 0.0376,-0.31267 -0.008,-0.78596 -0.00025,-0.0135 0.00099,-0.0238 0,-0.0385 -0.00074,-0.0139 -0.0129,-0.0569 -0.0154,-0.0771 -0.0196,-0.19514 -0.0462,-0.47003 -0.0462,-0.47003 -0.007,0.009 -0.0215,-0.0128 -0.0385,-0.0462 -0.009,-0.044 -0.0231,-0.13099 -0.0231,-0.13099 -1e-05,0 -0.007,0.0469 -0.008,0.0539 0.002,-0.0173 0.006,-0.049 0,-0.10017 -0.0217,-0.17915 -0.0952,-0.68882 -0.1464,-0.99401 -0.0176,-0.026 -0.0364,-0.051 -0.0539,-0.077 0.0228,0.22504 0.12495,0.92137 0.1464,1.06335 -0.0457,-0.10471 -0.0838,-0.18862 -0.0848,-0.0925 -0.001,0.11555 0.0341,0.40299 0.0771,0.70119 -0.005,0.0635 -0.008,0.12401 -0.008,0.17723 -0.0248,-0.20473 -0.12124,-0.88273 -0.16953,-1.14041 -0.0483,-0.25767 -0.13091,-0.78177 -0.13869,-0.80907 -0.007,-0.0258 0.0793,0.55367 0.10787,0.81678 -0.0451,-0.30674 -0.0983,-0.61911 -0.13099,-0.79367 -0.0188,-0.10014 -0.0314,-0.18011 -0.0539,-0.31592 -0.0147,-0.0237 -0.0319,-0.0455 -0.0462,-0.0694 z  m -.1541,.7783 c -0.002,0.003 8e-05,0.006 0,0.0154 -0.001,0.14923 0.0545,0.23325 0.0848,0.40069 0.0303,0.16744 0.0548,0.49934 0.10017,0.67808 0.0453,0.17873 0.087,0.18281 0.10788,0.16181 0.0209,-0.021 0.0723,0.0122 0.0154,-0.31592 -0.0533,-0.30757 -0.27911,-0.98013 -0.30822,-0.94007 z  m -.2003,.1464 c -0.0521,-0.026 0.0481,0.74388 0.077,1.07106 0.0108,0.12224 0.0117,0.32322 0.0462,0.43921 0.108,0.36283 0.0855,-0.33945 0.0308,-0.77825 -0.0241,-0.19366 -0.10838,-0.6459 -0.14641,-0.71661 -0.005,-0.009 -0.004,-0.0137 -0.008,-0.0154 z  m -1.7569,.0154 c 0,-1e-05 -0.003,0.086 0,0.16181 0.003,0.0758 -0.0351,-0.0117 0,0.14641 0.0351,0.15806 0.0617,0.0694 0.0617,0.0694 l -.0617,-.3776 z  m -1.8108,.4392 c 0,0 -0.003,0.086 0,0.16181 0.003,0.0758 -0.0428,-0.0116 -0.008,0.14641 0.0351,0.15806 0.0616,0.0694 0.0616,0.0694 l -.0539,-.3776 z  m 2.7586,.2312 c -0.005,0.004 -0.0147,0.028 -0.0154,0.0616 -0.004,0.20588 0.0652,0.89515 0.16952,1.43321 -0.004,0.0698 -0.008,0.12329 -0.008,0.12329 0,0 -0.10274,0.0367 -0.11558,0.26969 -0.12909,-0.45558 -0.31466,-0.95812 -0.31592,-0.80907 -0.002,0.20217 0.0746,0.31252 0.11558,0.53938 0.041,0.22687 0.0773,0.67478 0.1387,0.91695 0.035,0.13803 0.0652,0.1935 0.0925,0.21575 0.003,0.0796 0.006,0.18803 0.008,0.24658 0.007,0.2434 0.008,0.60873 0.008,0.60873 -1e-05,0 0.3951,1.27222 0.36986,1.00171 -0.018,-0.19254 -0.0348,-0.45928 -0.0462,-0.68579 0.0189,0.005 0.0308,-0.0308 0.0308,-0.0308 l -.0462,-.3236 c -0.0143,-0.26117 -0.0289,-0.81922 -0.0154,-0.97089 0.0147,-0.16566 0.0747,0.0283 0.0693,-0.18493 -0.00049,-0.0216 -0.006,-0.0854 -0.008,-0.11558 0.019,0.0304 0.035,0.0586 0.0539,0.0848 0.006,0.0592 0.0116,0.13374 0.0154,0.17723 0.008,0.0902 0.005,0.24573 0.0308,0.33133 0.0674,0.22633 0.0727,-0.10435 0.0462,-0.40839 0.0998,0.11122 0.17308,0.1586 0.16182,0.11558 -0.12953,-0.4949 -0.39983,-1.43076 -0.5702,-2.01883 -0.0514,-0.1774 -0.1324,-0.60823 -0.16953,-0.57791 z  m -.1926,.0231 c 0.008,0.024 0.051,0.32727 0.0539,0.41609 0.003,0.0947 0.0848,0.54708 0.0848,0.54709 l -.008,-.2235 c 1e-05,0 -0.0289,-0.3418 -0.0616,-0.51626 -0.0313,-0.16726 -0.066,-0.21902 -0.0693,-0.22346 z  m -1.1789,.0848 c 0.0106,0.0326 0.0807,0.44215 0.0848,0.5625 0.004,0.12836 0.11558,0.74743 0.11558,0.74743 l -.0154,-.3082 c 0,0 -0.0327,-0.4571 -0.0771,-0.69349 -0.0425,-0.22661 -0.10331,-0.30221 -0.10788,-0.30822 z  m -1.3176,.0771 c -0.0106,-0.037 0.11525,0.85131 0.1464,1.17123 0.0312,0.31993 0.22346,1.57962 0.22346,1.57962 0,0 0.0798,0.16952 0.0462,-0.10787 -0.0336,-0.2774 -0.16574,-1.19198 -0.23116,-1.54109 -0.0654,-0.34912 -0.17439,-1.06489 -0.18493,-1.10189 z  m 1.7877,1.1789 c -0.008,-0.0273 0.0849,0.62688 0.10787,0.86301 0.0106,0.10856 0.0494,0.37195 0.0848,0.61644 -0.001,0.0371 0,0.0848 0,0.0848 1e-05,0 -0.13364,0.0464 -0.12329,0.35445 0.0104,0.30808 0.032,0.78143 0.0385,1.02483 0.007,0.2434 0.008,0.60873 0.008,0.60873 0,0 0.3951,1.27222 0.36986,1.00171 -0.0253,-0.27051 -0.0387,-0.7278 -0.0539,-0.94007 -0.0152,-0.21228 -0.0378,-0.9054 -0.0231,-1.07106 0.0147,-0.16565 0.0824,0.0283 0.077,-0.18493 -0.005,-0.21321 -0.0414,-0.87833 -0.15411,-1.27911 -0.0647,-0.22988 -0.10469,-0.0371 -0.12329,0.16952 -0.0254,-0.16707 -0.0512,-0.34258 -0.0693,-0.43921 -0.0483,-0.25767 -0.13091,-0.78176 -0.13869,-0.80907 z  m -1.4409,.2774 c -1e-05,-1e-05 -0.0491,0.27691 -0.0308,0.35445 0.019,0.0804 0.0865,0.0911 0.0771,-0.0617 -0.004,-0.0613 -0.0462,-0.2928 -0.0462,-0.2928 z  m .6858,.3005 c 0.0106,0.0326 0.073,0.44216 0.0771,0.5625 0.004,0.12837 0.11558,0.73972 0.11559,0.73972 l -.0154,-.3082 c 0,0 -0.0328,-0.44939 -0.0771,-0.68578 -0.0425,-0.22661 -0.0956,-0.30221 -0.10017,-0.30822 z  m -.6164,.2543 c -0.002,0.002 0.00025,0.01 0,0.0231 -0.002,0.10861 0.0414,0.55269 0.10788,0.75513 0.0664,0.20243 0.20189,0.30503 0.19264,0.26969 -0.0523,-0.19991 -0.16234,-0.57923 -0.23117,-0.81678 -0.0208,-0.0716 -0.0543,-0.24341 -0.0693,-0.23116 z  m 2.0419,.2774 c -0.005,0.004 -0.007,0.0213 -0.008,0.0462 -0.003,0.27246 0.16608,1.42894 0.26969,1.6952 0.12591,0.32357 -0.0616,-1.37928 -0.0616,-1.37928 -0.0285,0.037 -0.16533,-0.3888 -0.20035,-0.36215 z  m -.994,.2389 c 0.0106,0.0326 0.073,0.44215 0.0771,0.56249 0.004,0.12837 0.11558,0.74743 0.11558,0.74743 l -.008,-.3082 c -1e-05,0 -0.0405,-0.45711 -0.0848,-0.6935 -0.0425,-0.22661 -0.0956,-0.3022 -0.10017,-0.30821 z  m 2.9743,.6164 c -0.0105,-0.037 0.11525,0.8513 0.1464,1.17123 0.0311,0.31992 0.22346,1.57962 0.22346,1.57962 0,0 0.0798,0.16952 0.0462,-0.10787 -0.0271,-0.22396 -0.10891,-0.81138 -0.17723,-1.23288 0.0687,0.20046 0.11559,0.0385 0.11559,0.0385 l -.1387,-.9324 c -1e-05,-1e-05 -0.0217,0.21305 -0.0154,0.40068 0.003,0.0938 -0.0187,0.0889 -0.0308,0.10788 -0.066,-0.36773 -0.15973,-0.99043 -0.16952,-1.02483 z  m -.9092,.3544 c -1e-05,-1e-05 -0.0491,0.27691 -0.0308,0.35446 0.019,0.0804 0.0865,0.0911 0.077,-0.0616 -0.004,-0.0613 -0.0462,-0.29281 -0.0462,-0.29281 z  m .0771,.8399 c -0.003,-0.001 -0.006,0.004 -0.008,0.008 -0.0223,0.0511 0.0494,0.56057 0.0693,0.78595 0.008,0.0902 0.013,0.23803 0.0385,0.32363 0.0797,0.2678 0.0558,-0.24634 0.0154,-0.5702 -0.0178,-0.14293 -0.0798,-0.47949 -0.10788,-0.53168 -0.004,-0.007 -0.005,-0.0143 -0.008,-0.0154 z  m -1.6104,.8322 c -1e-05,-1e-05 -0.0414,0.2692 -0.0231,0.34675 0.019,0.0804 0.0788,0.0988 0.0694,-0.0539 -0.004,-0.0613 -0.0462,-0.29281 -0.0462,-0.29281 z  m .6935,1.0402 c -0.003,0.002 0.0005,0.0124 0,0.0308 -0.003,0.14715 0.0564,0.75054 0.14641,1.02483 0.0313,0.0953 0.0736,0.16286 0.11558,0.22345 -0.0141,0.0389 -0.0258,0.0892 -0.0231,0.16952 0.008,0.22738 0.0183,0.57549 0.0231,0.75514 0.005,0.17964 0.008,0.44692 0.008,0.44692 0,0 0.11337,0.3452 0.19264,0.5702 0.0436,0.0567 0.0797,0.12059 0.12329,0.17723 -0.0142,-0.30023 -0.0693,-0.82449 -0.0693,-0.82449 -0.004,0.005 -0.0153,-0.003 -0.0231,-0.0154 -0.009,-0.21118 -0.0167,-0.54577 -0.008,-0.64726 0.0109,-0.12227 0.0579,0.0187 0.0539,-0.1387 -0.004,-0.15736 -0.0324,-0.65197 -0.11558,-0.94777 -0.0267,-0.0949 -0.0391,-0.0861 -0.0539,-0.0385 -0.005,-0.0296 -0.0106,-0.067 -0.0154,-0.0925 -0.0425,-0.22661 -0.0956,-0.30221 -0.10017,-0.30822 0.0106,0.0326 0.073,0.44216 0.0771,0.5625 0.00024,0.007 0.007,0.0365 0.008,0.0462 -0.004,0.0606 -0.007,0.11334 -0.008,0.1387 -0.0756,-0.27238 -0.16198,-0.578 -0.23116,-0.81678 -0.0281,-0.0971 -0.0798,-0.33252 -0.10017,-0.31592 z  m 1.5257,.6473 c -0.005,0.004 -0.007,0.0136 -0.008,0.0385 -0.003,0.27245 0.16608,1.42895 0.26969,1.69521 0.12593,0.32357 -0.0616,-1.37158 -0.0616,-1.37158 -0.0285,0.037 -0.16532,-0.38881 -0.20034,-0.36215 z  m .5779,.0616 c -0.0665,0.004 -0.0848,0.58562 -0.0848,0.58562 0,0 -0.12593,0.0464 -0.11559,0.35445 0.0104,0.30807 0.032,0.78142 0.0385,1.02482 0.007,0.24341 0.008,0.60873 0.008,0.60873 1e-05,0 0.39511,1.27223 0.36987,1.00172 -0.0252,-0.27052 -0.0464,-0.7355 -0.0616,-0.94778 -0.0152,-0.21227 -0.0301,-0.8977 -0.0154,-1.06335 0.0147,-0.16566 0.0824,0.0283 0.0771,-0.18493 -0.005,-0.21322 -0.0491,-0.87833 -0.16182,-1.27911 -0.0211,-0.0752 -0.0386,-0.10115 -0.0539,-0.10017 z  m -1.518,.8014 c -0.005,0.004 -0.007,0.028 -0.008,0.0616 -0.006,0.26886 0.10523,1.36356 0.26969,1.86472 0.16445,0.50116 0.50063,0.75786 0.47774,0.67038 -0.12953,-0.49491 -0.39983,-1.43076 -0.57021,-2.01883 -0.0514,-0.17741 -0.13239,-0.60824 -0.16952,-0.57791 z  m 1.0865,1.5488 c -0.004,0.003 -0.008,0.0124 -0.008,0.0308 -0.002,0.20109 0.12387,1.05947 0.20034,1.25599 0.0929,0.23881 -0.0462,-1.01712 -0.0462,-1.01712 -0.021,0.0273 -0.12056,-0.28937 -0.14641,-0.26969 z  m .3776,.8553 c -0.0665,0.004 -0.0848,0.58562 -0.0848,0.58562 -1e-05,0 -0.12593,0.0464 -0.11558,0.35445 0.0104,0.30808 0.0243,0.78142 0.0308,1.02483 0.007,0.2434 0.0154,0.60873 0.0154,0.60873 0,0 0.3874,1.27222 0.36216,1.00171 -0.0252,-0.27051 -0.0387,-0.7278 -0.0539,-0.94007 -0.0152,-0.21228 -0.0378,-0.9054 -0.0231,-1.07106 0.0147,-0.16566 0.0824,0.0283 0.0771,-0.18493 -0.005,-0.21322 -0.0414,-0.87832 -0.15411,-1.27911 -0.0211,-0.0751 -0.0386,-0.10115 -0.0539,-0.10017 z  m -.6935,.5317 c -0.003,0.004 0.0001,0.0105 0,0.0231 -0.00024,0.028 0.005,0.0517 0.008,0.077 0.0441,0.087 0.0875,0.17256 0.12329,0.26199 0.06,0.14991 0.0521,0.31459 0.0231,0.48544 0.026,0.22045 0.0501,0.46485 0.0925,0.63185 0.0614,0.24216 0.1181,0.25189 0.1464,0.22346 0.002,-0.002 0.005,-0.006 0.008,-0.008 0.0169,0.17272 0.0429,0.39118 0.0539,0.51627 0.008,0.0902 0.013,0.23802 0.0385,0.32363 0.0797,0.26779 0.0635,-0.24634 0.0231,-0.57021 -0.0119,-0.0955 -0.0414,-0.25202 -0.0694,-0.37756 0.004,-0.0583 -0.001,-0.1453 -0.0308,-0.31593 -0.0722,-0.41673 -0.37665,-1.32568 -0.41609,-1.2714 z  m .9015,2.4966 c 0.008,0.0241 0.051,0.32727 0.0539,0.4161 0.003,0.0947 0.0925,0.54707 0.0925,0.54708 l -.0154,-.2312 c 0,0 -0.0212,-0.33409 -0.0539,-0.50856 -0.0313,-0.16726 -0.0737,-0.21903 -0.0771,-0.22346 z "/>
<path style="opacity:.48;fill:#f2f2f2" id="path5151" d="m 250.8002,246.267 c -1.95157,0.28613 -3.94147,0.46463 -5.79451,0.9863 -0.057,0.0161 -0.11239,0.0345 -0.16952,0.0539 -0.85709,0.29187 -1.71833,-0.0848 -1.71833,-0.0848 0,0 -1.42415,0.49553 -2.1113,0.86301 -0.45373,0.0603 -0.88612,0.17723 -0.88612,0.17723 0,0 -0.95387,-0.3675 -1.51798,-0.12329 -0.56411,0.24421 -1.42329,0.62128 -1.88013,0.80907 -0.45685,0.1878 -1.17123,0.45463 -1.17123,0.45463 -1e-05,0 0.0222,2.09094 0.40839,1.82619 0.38621,-0.26476 1.22235,-0.62336 1.5565,-0.81678 0.33414,-0.19343 1.62491,-0.72546 2.06506,-0.79366 0.44017,-0.0682 0.48364,0.26361 0.88613,0.10017 0.4025,-0.16344 1.50845,-0.73697 1.57192,-1.36387 0.002,-0.0225 -0.005,-0.0421 -0.008,-0.0616 2.14311,-0.2608 5.87152,-0.82954 9.31592,-1.44092 -0.1711,-0.20626 -0.34821,-0.40808 -0.53938,-0.58562 -0.002,-0.001 -0.006,0.001 -0.008,0 z  m 2.7586,3.6678 c -0.61442,0.18825 -1.35617,0.49315 -1.35617,0.49315 0,0 -1.01061,0.0271 -1.6875,0.36987 -2.20406,1.13349 -4.86105,1.34298 -7.09674,2.38869 -0.0429,0.0201 -0.0885,0.0459 -0.13099,0.0693 -0.63746,0.35173 -1.38698,0.0385 -1.38698,0.0385 -1e-05,0 -2.20388,1.23173 -1.73373,1.37927 1.97765,-0.36036 11.1345,-3.08806 13.6079,-4.36899 -0.0684,-0.12398 -0.14104,-0.24797 -0.21575,-0.36987 z  m -18.0539,1.3176 c -0.45891,-0.003 -1.17123,0.31592 -1.17123,0.31592 1e-05,0 -0.81381,-0.29053 -1.22517,-0.008 -0.41135,0.28283 -1.03686,0.72084 -1.37157,0.94007 -0.33471,0.21922 -0.86301,0.53938 -0.86301,0.53938 0,0 0.21574,1.30199 0.43921,1.68749 -0.30441,-0.036 -0.72991,-0.0597 -1.07876,0.0539 -0.0234,0.008 -0.046,0.0153 -0.0694,0.0231 -0.0397,0.48164 -0.15383,0.97748 -0.23117,1.47174 1.84252,-0.62745 3.33014,-1.23404 3.58304,-1.54109 0.1645,-0.41421 -1.8339,0.0462 -1.8339,0.0462 1e-05,0 -0.0568,-0.017 -0.13869,-0.0308 0.28765,-0.28574 0.83441,-0.66861 1.05564,-0.87072 0.23596,-0.21557 1.17772,-0.83219 1.51798,-0.93236 0.34026,-0.10017 0.42911,0.22198 0.72431,0.0308 0.2952,-0.19115 1.08849,-0.83405 1.04024,-1.45633 -0.0151,-0.19446 -0.16897,-0.26831 -0.37757,-0.26969 z  m 15.9965,.6319 c -0.0653,0.002 -0.13496,0.0103 -0.19263,0.0308 -1.50001,0.56145 -2.94652,1.03595 -4.48458,1.44862 -0.0295,0.008 -0.0561,0.0176 -0.0848,0.0308 -0.43003,0.1984 -0.75514,0.94006 -0.75514,0.94006 0,0 -0.13458,0.069 -0.30821,0.16952 -0.53776,0.17286 -1.07105,0.38528 -1.07105,0.38528 0,-1e-05 -1.01998,0.008 -1.70292,0.33904 -2.22406,1.09371 -4.88117,1.26004 -7.13526,2.2654 -0.0433,0.0194 -0.0881,0.039 -0.13099,0.0616 -0.64369,0.34022 -1.38698,0.0154 -1.38699,0.0154 1e-05,0 -1.14966,0.62748 -1.61814,1.03253 -0.80808,0.0743 -1.60518,0.12217 -2.41181,0.15411 0.20385,0.59011 0.46529,1.17335 0.73201,1.74914 0.99036,-0.15898 1.9519,-0.3977 3.03596,-0.2851 0.34974,0.0797 0.30198,0.40803 0.64726,0.38527 0.34528,-0.0228 1.32749,-0.20594 1.53338,-0.77825 0.2059,-0.57232 -1.43321,-0.7089 -1.43321,-0.7089 -1e-05,-1e-05 -0.34033,-0.36154 -0.71661,-0.53168 2.79061,-0.67524 7.96871,-2.15509 10.8108,-3.22859 0.002,0.0555 0.0123,0.11092 0.054,0.16182 0.38192,0.46709 1.36406,0.28508 1.69521,0.18493 0.33112,-0.10015 0.17622,-0.38731 0.47774,-0.58562 1.93378,-0.15582 3.17622,-1.35629 5.03165,-1.62585 0.35862,-0.009 0.39516,0.3225 0.72431,0.21575 0.32916,-0.10675 1.23527,-0.51966 1.29452,-1.125 0.0592,-0.60533 -1.5565,-0.33904 -1.5565,-0.33904 0,0 -0.59107,-0.3788 -1.04794,-0.36215 z  m 7.274,4.7312 c -0.1421,0.0199 -0.28043,0.0595 -0.40068,0.12329 -1.4203,0.77154 -2.79209,1.4677 -4.2457,2.14982 -0.0279,0.0132 -0.0499,0.0298 -0.077,0.0462 -0.40781,0.24623 -0.72432,0.83218 -0.72432,0.83219 0,-1e-05 -1.40708,0.86736 -1.05566,1.07876 1.11827,-0.0479 5.08499,-1.94691 7.26627,-3.28253 -0.16526,-0.22558 -0.35729,-0.44011 -0.53169,-0.65496 -0.0787,-0.0969 -0.15288,-0.19497 -0.23117,-0.29281 z  m -15.6036,4.1841 c -0.0394,0.003 -0.0779,0.008 -0.11558,0.0154 -1.96411,0.42057 -3.85132,0.74893 -5.83304,1.01712 -0.0381,0.005 -0.0698,0.0203 -0.10787,0.0308 -0.5705,0.15802 -1.1173,0.87072 -1.1173,0.87072 1e-05,0 -1.97447,0.57572 -1.59503,1.07876 0.37943,0.50305 1.62847,0.40809 2.05736,0.33904 0.42889,-0.069 0.2895,-0.36938 0.7012,-0.53938 2.41978,0.0259 4.18875,-1.05287 6.53423,-1.14811 0.44469,0.0252 0.41986,0.36093 0.84761,0.2851 0.42774,-0.0758 1.63327,-0.40958 1.82619,-1.00942 0.19292,-0.59984 -1.85701,-0.48544 -1.85701,-0.48544 0,0 -0.75008,-0.49275 -1.34076,-0.45462 z  m -10.3407,3.0282 c 0.0857,0.2989 0.15351,0.60704 0.21575,0.91695 0.76474,-0.22798 1.31681,-0.4474 1.46404,-0.61643 0.17622,-0.38726 -1.45633,-0.21576 -1.45633,-0.21576 0,0 -0.0951,-0.0397 -0.22346,-0.0848 z "/>
<path style="fill:url(#radialGradient4364)" id="path5663" d="m 234.7402,277.6302 c 1.05037,0.21995 2.60957,0.64936 2.61986,1.1228 0.0114,0.52621 -1.43174,1.13288 -2.06947,1.01272 -0.58492,-0.11022 -1.04888,-0.94061 -1.12279,-1.60714 -0.0391,-0.35282 0.31947,-0.58134 0.5724,-0.52838 z "/>
<path style="opacity:.114;fill:#464646" id="path5952" d="m 247.7074,244.8254 c -0.14262,0 -0.28768,0.006 -0.43151,0.0154 -0.29828,0.20565 -0.61441,0.42757 -0.83219,0.5702 -0.50577,0.33128 -0.99739,0.62403 -1.27911,0.79367 0.0361,0.2056 0.09,0.52809 0.18494,0.96318 0.81931,-0.21085 1.66669,-0.36552 2.51967,-0.49315 0.26401,-0.18985 0.57028,-0.39877 0.90155,-0.60873 0.4048,-0.25656 0.78724,-0.4985 1.14813,-0.67038 -0.54915,-0.29761 -1.18526,-0.49491 -1.77998,-0.54709 -0.14424,-0.0126 -0.28556,-0.0231 -0.4315,-0.0231 z  m -1.0479,2.8048 c -0.40179,0.0627 -0.77397,0.11977 -1.15582,0.17722 0.0656,0.23631 0.13476,0.44172 0.20035,0.62415 0.22071,-0.19184 0.42396,-0.38438 0.66267,-0.57021 0.10284,-0.08 0.1942,-0.15453 0.2928,-0.23116 z  m -12.9529,2.0034 c -0.17088,0.2499 -0.42557,0.49319 -0.79366,0.50856 -0.77036,0.0322 -1.73929,0.13594 -2.49657,0.36986 -0.97135,0.30539 -1.95955,0.55022 -2.9589,0.76284 0.003,0.031 0.004,0.0616 0.008,0.0925 2.31074,-0.43052 4.49027,-0.86309 6.31848,-1.2714 0.0741,-0.0165 0.11198,-0.0298 0.18493,-0.0462 -0.14557,-0.0921 -0.24182,-0.245 -0.26198,-0.41609 z  m 20.4195,1.9187 c -0.5169,0.0808 -1.11164,0.21733 -1.62584,0.47774 -0.0616,0.0316 -0.12309,0.0616 -0.18494,0.0925 0.13165,0.0672 0.23117,0.12329 0.23117,0.12329 0,0 0.10373,-0.0153 0.25427,-0.0308 0.005,-0.002 0.0106,0.002 0.0155,0 0.44889,-0.16114 0.89245,-0.32194 1.3099,-0.47774 0.00023,-0.0622 -0.002,-0.12166 0,-0.18493 z  m -14.2166,.6858 c -0.0751,-0.00074 -0.14367,0.008 -0.18493,0.0231 -2.37218,0.88791 -4.67038,1.6597 -7.06591,2.34246 0.47904,-0.0633 0.93755,-0.0761 0.8553,0.13099 -0.23495,0.28526 -1.55238,0.83124 -3.21317,1.4101 -0.094,0.1764 -0.15411,0.30051 -0.15411,0.30051 -0.0538,0.12807 -0.15242,0.23216 -0.2774,0.29281 0,0 -0.042,0.021 -0.0462,0.0231 -0.003,0.17976 0.009,0.35763 0.0385,0.53168 0.0589,0.34462 0.1444,0.68603 0.25428,1.02482 0.18362,-0.0348 0.34625,-0.0697 0.44692,-0.10017 0.0702,-0.0212 0.0419,-0.0194 0.0385,-0.0154 -0.003,0.004 0.0212,-0.0187 0.0539,-0.10788 0.0656,-0.17834 0.21587,-0.61517 0.63955,-0.89383 0.0806,-0.0531 0.17343,-0.0849 0.26969,-0.0925 0.85303,-0.0687 1.63089,-0.25915 2.38099,-0.50856 0.006,-0.009 0.0178,-0.0229 0.0231,-0.0308 0.24908,-0.37362 0.47607,-0.98288 0.80908,-1.30222 0.24752,-0.23736 0.62038,-0.43796 0.994,-0.5625 0.37362,-0.12454 0.99609,-0.43796 1.55651,-0.5625 0.56042,-0.12454 1.62146,-0.7468 2.05735,-0.80907 0.43589,-0.0623 1.92637,0.0616 1.92637,0.0616 0,0 -0.73918,0.2624 -1.05565,0.37757 -0.44996,0.16375 -1.24578,0.43025 -1.49486,0.55479 -0.24908,0.12454 -1.07803,0.59734 -1.5565,0.81678 -0.54865,0.25163 -1.55338,0.56062 -1.86472,0.74743 -0.12271,0.0736 -0.12498,0.1613 -0.131,0.26969 0.22084,-0.0102 0.43606,0.10928 0.53939,0.31593 0.13108,0.26216 0.0394,0.5826 -0.20805,0.73972 -0.22254,0.13482 -0.43603,0.29835 -0.67808,0.45462 0.37802,-0.092 0.75279,-0.17874 1.14811,-0.27739 0.40293,-0.16737 0.81898,-0.31052 1.24058,-0.43921 -0.44354,-0.0238 -0.81731,-0.11101 -1.02483,-0.17723 -0.22842,-0.0715 -0.38864,-0.27723 -0.40068,-0.51627 -0.012,-0.23904 0.12666,-0.46073 0.34675,-0.55479 1.33189,-0.59833 2.70556,-1.2343 4.33817,-1.53339 0.001,-0.001 0.006,0.001 0.008,0 0.53124,-0.3962 1.37927,-0.87842 1.37927,-0.87842 0,0 0.74952,0.31321 1.38699,-0.0385 0.0425,-0.0234 0.0881,-0.0492 0.13099,-0.0693 0.21575,-0.10091 0.43988,-0.19047 0.66266,-0.27739 -0.1514,-0.0571 -0.45271,-0.10821 -0.77054,-0.11558 -0.66528,-0.0154 -1.38698,0.10017 -1.38698,0.10017 -0.13849,0.0245 -0.28115,-0.003 -0.40068,-0.0771 0,0 -0.31854,-0.20883 -0.73202,-0.37757 -0.31011,-0.12655 -0.65306,-0.19831 -0.87843,-0.20034 z  m 3.5676,1.5796 c -0.64852,0.18468 -1.22599,0.34281 -1.74144,0.47774 0.11987,0.0652 0.21549,0.13273 0.2774,0.17723 0.17163,0.12606 0.25584,0.33661 0.22346,0.54709 -0.0324,0.21047 -0.17598,0.38597 -0.37757,0.45462 -0.75289,0.2464 -1.4856,0.52705 -2.19606,0.83989 1.11752,-0.28106 2.21987,-0.58662 3.2363,-1.08647 0.68294,-0.33059 1.70289,-0.33904 1.70289,-0.33904 3e-05,0 0.53332,-0.21241 1.07107,-0.38527 0.17364,-0.10057 0.30822,-0.16952 0.30822,-0.16952 0,0 0.0136,-0.0192 0.0153,-0.0231 -0.69176,0.18397 -1.38311,0.35852 -2.06506,0.54708 -0.26507,0.073 -0.54197,-0.0535 -0.66267,-0.30051 -0.12067,-0.24702 -0.051,-0.54464 0.16952,-0.7089 0.014,-0.0102 0.0249,-0.0205 0.0385,-0.0308 z  m 12.0976,.4932 c -0.31108,-0.006 -0.59508,0.0397 -0.71659,0.12329 -0.75985,0.52243 -1.90642,1.335 -2.55052,1.75685 -0.50578,0.33127 -0.99737,0.62402 -1.27909,0.79366 0.0453,0.25922 0.108,0.663 0.26197,1.30222 0.0456,0.19379 -0.0126,0.3994 -0.15411,0.53939 -0.14156,0.13998 -0.34612,0.19416 -0.53936,0.1464 -0.86511,-0.21209 -2.48888,-0.15411 -2.48888,-0.15411 -0.28317,0.0167 -0.53578,-0.17684 -0.59331,-0.45462 -5e-05,0 -0.11179,0.12659 -0.60105,-0.0848 -0.48918,-0.21136 -1.09023,-0.35402 -1.43319,-0.2851 -3.14527,0.67347 -6.17305,1.22094 -9.30821,1.67979 0.0125,0.0485 0.0127,0.0973 -0.008,0.15411 -0.20589,0.57231 -1.18811,0.75548 -1.53339,0.77825 -0.34528,0.0228 -0.29752,-0.3056 -0.64726,-0.38528 -0.0313,-0.003 -0.0614,-0.005 -0.0925,-0.008 -0.21707,0.14473 -0.44043,0.31783 -0.62414,0.49315 -0.35389,0.33774 -0.58561,0.63955 -0.58561,0.63955 -0.0739,0.0962 -0.17643,0.16631 -0.29281,0.20034 0,0 -0.32125,0.099 -0.73202,0.24658 0.20782,0.34518 0.45126,0.6731 0.67037,1.00941 0.0801,0.12295 0.19358,0.22396 0.28511,0.33904 0.15233,-0.0147 0.28694,-0.0381 0.38527,-0.0539 0.26015,-0.0419 0.1679,-0.0178 0.2851,-0.19264 0.1172,-0.17481 0.38691,-0.57346 0.90154,-0.78596 0.0712,-0.0276 0.14715,-0.0407 0.22346,-0.0385 0.98243,0.0105 1.91179,-0.0842 2.81249,-0.23887 3.07071,-0.5274 5.82186,-1.75336 9.32359,-1.89555 0.018,-0.00084 0.036,-0.00084 0.054,0 0.5562,0.0315 0.94066,0.31995 1.10959,0.44692 0.16895,0.12697 0.0723,0.13067 0.33134,0.0848 0.56631,-0.10041 2.14538,-0.5818 2.71233,-1.1327 0.19982,-0.19724 0.51334,-0.22011 0.73972,-0.0539 0.24066,-0.21492 0.47269,-0.4317 0.73973,-0.63956 0.40869,-0.31818 0.81224,-0.62696 0.9863,-0.78595 0.2969,-0.27126 0.82982,-0.63677 1.4178,-1.00942 0.58793,-0.37265 1.13945,-0.71211 1.62584,-0.85531 0.48997,-0.14424 0.93053,0.0436 1.09418,0.11559 0.0667,0.0293 0.0722,0.0294 0.0693,0.0308 0.004,-0.002 0.0128,0.001 0.0385,-0.0154 0.14546,-0.0942 0.39847,-0.29043 0.66267,-0.53168 -0.31569,-0.38861 -0.64227,-0.76865 -0.9863,-1.125 -0.0197,0.009 -0.077,0.0308 -0.077,0.0308 -0.13184,0.0573 -0.28038,0.0628 -0.4161,0.0154 -2e-05,0 -0.33812,-0.11818 -0.75513,-0.17723 -0.10425,-0.0148 -0.21223,-0.021 -0.31594,-0.0231 z "/>
</g>
<path style="opacity:.287;stroke-opacity:0;fill:#252525;stroke:#b7b7b7;stroke-width:.247" id="path3496" d="m 242.5907,246.9511 c -0.57002,-0.18526 -1.51636,0.0391 -2.24171,0.18681 -0.3955,0.0806 -0.85068,0.25642 -1.12085,0.49816 -0.1242,0.11112 -0.18156,0.46624 -0.0623,0.56042 0.27508,0.21717 0.81978,0.33019 1.24539,0.37362 0.59146,0.0603 1.25275,0.0795 1.80582,-0.0623 0.25643,-0.0658 0.56675,-0.3273 0.6227,-0.56043 0.0686,-0.28578 0.0112,-0.91173 -0.24908,-0.99631 z "/>
</g>
<path style="fill:none;stroke:url(#linearGradient4366);stroke-width:.246" id="path6153" d="m 247.7349,244.9542 c -1.02165,1e-05 -2.07724,0.28462 -3.113,0.39298 -0.88227,0.0923 -1.77252,0.15437 -2.65068,0.27739 -1.27014,0.17795 -2.53726,0.39092 -3.79879,0.62415 -2.44351,0.45174 -4.9162,0.81275 -7.31249,1.43321 -1.09081,0.28244 -2.32415,0.62418 -3.15153,1.2714 -0.33577,0.26266 -0.5006,0.75542 -0.60873,1.23288 0.0666,-0.14316 0.12994,-0.23589 0.17722,-0.23116 0.21001,0.021 0.0903,2.06473 0.50086,2.61215 0.21213,0.28284 1.02178,-0.32134 1.36386,-0.12329 0.44667,0.2586 0.91718,0.93128 1.00171,1.49486 0.16455,1.09694 -0.44589,2.36121 -0.25428,3.48287 0.2339,1.36912 0.94798,2.68936 1.52569,3.98372 0.24217,0.5426 0.61491,1.02662 0.94006,1.52569 0.12112,0.18589 0.33223,0.32401 0.40069,0.53167 0.20152,0.61128 0.29982,1.26894 0.43921,1.91096 0.66498,-0.85767 2.55968,-1.48767 3.5291,-0.60103 0.85093,0.77828 1.94201,0.0482 2.95119,0.16182 1.93331,0.21771 3.82539,-0.58831 5.70976,-1.00942 2.54638,-0.56906 4.98836,-1.45448 7.48971,-2.17294 1.59063,-0.45688 3.38639,-0.66759 4.70033,-1.67209 0.72027,-0.55065 2.59331,-2.52276 2.56591,-0.70119 0.10995,-0.40548 -0.12837,-0.99088 -0.3005,-1.41781 -0.17679,-0.43842 -0.53482,-0.81081 -0.83991,-1.18664 -0.70762,-0.87172 -1.38987,-1.79211 -2.20376,-2.55051 -0.47769,-0.44512 -1.12983,-0.68168 -1.67207,-1.05565 -0.30904,-0.21311 -0.73706,-0.39084 -0.87843,-0.7089 -0.21089,-0.4745 0.0384,-1.16894 -0.17723,-1.67208 -0.40081,-0.93521 -1.05776,-1.80391 -1.67208,-2.64298 -0.58921,-0.80476 -1.159,-1.70722 -1.93408,-2.28852 -0.63392,-0.47545 -1.50329,-0.80886 -2.29623,-0.87842 -0.14427,-0.0127 -0.28556,-0.0231 -0.43151,-0.0231 z  m -14.756,20.851 c -0.0169,0.0533 -0.0355,0.10687 -0.0462,0.16182 0.0103,-0.0562 0.0294,-0.10741 0.0462,-0.16182 z  m -.0462,.1618 c -0.0162,0.0832 -0.0271,0.16755 -0.0308,0.25428 0.003,-0.0859 0.0157,-0.17192 0.0308,-0.25428 z  m -.0308,.2543 c -0.004,0.0864 0.00099,0.17253 0.008,0.26198 -0.007,-0.0893 -0.0107,-0.17605 -0.008,-0.26198 z "/>
<g style="stroke:none" id="g105">
<g style="fill-rule:evenodd" id="g107">
<path style="fill:#4f4f4f;fill-opacity:.973;clip-path:url(#clipPath6256)" id="path6187" d="m 564.8991,-325.3652 c -0.60482,0.0289 -1.169,0.17247 -1.65546,0.42199 -2.11619,1.0854 -4.05026,4.37568 -4.15488,6.75168 -0.15327,3.48061 2.53525,8.13526 5.1936,10.3872 3.23402,2.73962 9.33007,3.41468 13.5034,4.15489 2.9189,0.51772 7.07949,1.52588 9.86785,0.51936 2.59277,-0.93593 6.0883,-3.55681 6.75168,-6.23233 0.67597,-2.72632 -1.08305,-6.89102 -3.11616,-8.82913 -4.70968,-4.48961 -14.4333,-4.77351 -20.7744,-6.23232 -1.59213,-0.36628 -3.11417,-0.55513 -5.61559,-0.94135 z  m 1.5511,.6222 c 1.80073,0.34731 3.01177,0.52715 4.49823,0.79976 5.89707,1.0815 14.7677,1.56443 19.1072,5.70123 1.87334,1.78582 3.51182,5.42614 2.88894,7.93823 -0.61123,2.46527 -3.84329,4.88306 -6.23233,5.74543 -2.56924,0.92743 -6.39931,-0.01 -9.0888,-0.4869 -3.84535,-0.68203 -9.45229,-1.30596 -12.4322,-3.83029 -2.44945,-2.07499 -4.94532,-6.33615 -4.80408,-9.54325 0.0964,-2.18928 1.88037,-5.23222 3.83028,-6.23232 0.44823,-0.2299 1.68955,-0.19666 2.23273,-0.0919 z " transform="matrix(0.22650815,-0.07569147,0.07569147,0.22650815,156.83171,392.25643)"/>
<path style="fill:url(#linearGradient4368)" id="path6276" d="m 262.2407,275.9773 c -0.0935,-0.08 1.74638,-0.25877 2.256,-0.30875 0.50962,-0.05 0.87116,-0.1215 1.13474,-0.0676 0.26357,0.0539 0.51471,0.1467 0.58764,0.29327 0.0729,0.14658 0.14718,0.44046 -0.0798,0.42728 -0.22696,-0.0132 -1.04137,-0.0526 -1.40184,-0.0657 -0.36048,-0.0131 -0.69419,0.0539 -1.0947,0.0542 -0.40052,0.00024 -1.30854,-0.25267 -1.40205,-0.33271 z "/>
</g>
<path style="fill:url(#radialGradient4370)" id="path6294" d="m 571.4307,-308.7742 a 3.27037,1.37002 0 0,1 -3.27037,1.37002 3.27037,1.37002 0 0,1 -3.27037,-1.37002 3.27037,1.37002 0 0,1 3.27037,-1.37002 3.27037,1.37002 0 0,1 3.27037,1.37002 z " transform="matrix(0.23265583,0.05391108,-0.05391108,0.23265583,112.7274,320.32557)"/>
</g>
</g>
<g style="fill:#4290c2;font-family:Sans;text-align:start;stroke:none;line-height:normal;stroke-width:.992;color:#000;text-indent:0;text-transform:none" id="g4260">
<path id="path6561-2" d="m 229.4153,274.48 a 1.34408,1.34408 0 0,0 -1.1005,1.10051 l -2.7089,13.2907 a 1.34408,1.34408 0 1,0 2.62428,0.50792 l 2.7089,-13.2907 a 1.34408,1.34408 0 0,0 -1.52379,-1.60843 z "/>
<path id="use6826" d="m 234.8332,274.48 a 1.34408,1.34408 0 0,0 -1.1005,1.10051 l -2.7089,13.2907 a 1.34408,1.34408 0 1,0 2.62429,0.50792 l 2.7936,-13.2907 a 1.34408,1.34408 0 0,0 -1.60843,-1.60843 z "/>
<path id="use6826-1" d="m 240.2511,274.48 a 1.34408,1.34408 0 0,0 -1.1005,1.10051 l -2.7089,13.2907 a 1.37808,1.37808 0 1,0 2.70894,0.50792 l 2.7089,-13.2907 a 1.34408,1.34408 0 0,0 -1.60844,-1.60843 z "/>
<path id="use6826-1-0" d="m 245.6689,274.48 a 1.34408,1.34408 0 0,0 -1.10051,1.10051 l -2.7089,13.2907 a 1.37807,1.37807 0 1,0 2.70893,0.50792 l 2.7089,-13.2907 a 1.34408,1.34408 0 0,0 -1.60843,-1.60843 z "/>
<path id="use6826-1-0-0" d="m 251.0868,274.48 a 1.34408,1.34408 0 0,0 -1.01585,1.10051 l -2.7936,13.2907 a 1.37808,1.37808 0 1,0 2.70894,0.50792 l 2.7089,-13.2907 a 1.34408,1.34408 0 0,0 -1.60844,-1.60843 z "/>
<path id="use6826-1-0-0-6" d="m 256.5047,274.48 a 1.34408,1.34408 0 0,0 -1.01586,1.10051 l -2.7089,13.2907 a 1.34408,1.34408 0 1,0 2.62429,0.50792 l 2.7089,-13.2907 a 1.34408,1.34408 0 0,0 -1.60843,-1.60843 z "/>
</g>
</g>
</svg>
