<svg width="48" version="1.1" xmlns="http://www.w3.org/2000/svg" height="48">
<g style="color:#bebebe">
<g style="fill:#766109">
<path d="m 23.9882,11.3456 c -7.3895,0 -13.4545,6.06502 -13.4545,13.4545 0,7.3895 6.06499,13.4545 13.4545,13.4545 7.38951,0 13.4545,-6.06501 13.4545,-13.4545 0,-7.38949 -6.06499,-13.4545 -13.4545,-13.4545 z"/>
<rect width="5.5" x="2" y="22.05" rx="1.546875" height="5.5"/>
<rect width="5.5" x="40.5" y="22.05" rx="1.546875" height="5.5"/>
<rect width="5.5" x="2.8" y="-26.75" rx="1.546875" height="5.5" transform="rotate(90)"/>
<rect width="5.5" x="41.3" y="-26.75" rx="1.546875" height="5.5" transform="rotate(90)"/>
<rect width="5.5" x="-21.43432" y="-37.256824" rx="1.546875" height="5.5" transform="rotate(135)"/>
<rect width="5.5" x="17.065678" y="-37.256824" rx="1.546875" height="5.5" transform="rotate(135)"/>
<rect width="5.5" x="12.506835" y="-2.1843295" rx="1.546875" height="5.5" transform="rotate(45)"/>
<rect width="5.5" x="51.006851" y="-2.1843295" rx="1.546875" height="5.5" transform="rotate(45)"/>
</g>
<g style="fill:#eec623">
<path d="m 23.9882,10.5456 c -7.3895,0 -13.4545,6.06502 -13.4545,13.4545 0,7.3895 6.06499,13.4545 13.4545,13.4545 7.38951,0 13.4545,-6.06501 13.4545,-13.4545 0,-7.38949 -6.06499,-13.4545 -13.4545,-13.4545 z"/>
<rect width="5.5" x="2" y="21.25" rx="1.546875" height="5.5"/>
<rect width="5.5" x="40.5" y="21.25" rx="1.546875" height="5.5"/>
<rect width="5.5" x="2" y="-26.75" rx="1.546875" height="5.5" transform="rotate(90)"/>
<rect width="5.5" x="40.5" y="-26.75" rx="1.546875" height="5.5" transform="rotate(90)"/>
<rect width="5.5" x="-22" y="-36.691139" rx="1.546875" height="5.5" transform="rotate(135)"/>
<rect width="5.5" x="16.5" y="-36.691139" rx="1.546875" height="5.5" transform="rotate(135)"/>
<rect width="5.5" x="11.941152" y="-2.750011" rx="1.546875" height="5.5" transform="rotate(45)"/>
<rect width="5.5" x="50.441166" y="-2.750011" rx="1.546875" height="5.5" transform="rotate(45)"/>
</g>
</g>
</svg>
