<svg width="48" version="1.1" xmlns="http://www.w3.org/2000/svg" height="48" xmlns:xlink="http://www.w3.org/1999/xlink">
<defs id="defs7386">
<linearGradient gradientTransform="matrix(2.7089361,0,0,2.7089361,-375.77793,-502.98465)" xlink:href="#linearGradient3766" id="linearGradient3772" y1="276" x1="231" y2="288" x2="231" gradientUnits="userSpaceOnUse"/>
<linearGradient id="linearGradient3766">
<stop offset="0" style="stop-color:#fff" id="stop3768"/>
<stop offset="1" style="stop-color:#bebebe" id="stop3770"/>
</linearGradient>
</defs>
<g style="line-height:normal;color:#000" id="g19" transform="translate(-221,-245)">
<path style="fill:url(#linearGradient3772);stroke-width:2.4" id="path5094-5-04-4-6-4" d="m 248.5381,247.3906 c -3.4488,0 -6.25019,2.63582 -6.63213,6.01046 -0.87783,-0.33071 -1.77819,-0.5926 -2.77039,-0.5926 -4.45103,0 -8.05931,3.6385 -8.05931,8.12682 0,0.26602 0.059,0.50251 0.0838,0.76188 -0.80498,-0.48555 -1.76369,-0.76188 -2.77013,-0.76188 -2.96736,0 -5.3729,2.42566 -5.3729,5.41788 0,2.9922 2.40554,5.41787 5.3729,5.41787 h 33.5805 c 2.22553,0 4.02965,-1.81925 4.02965,-4.06341 0,-2.24417 -1.80412,-4.06341 -4.02965,-4.06341 -0.55639,0 -1.11297,0.13301 -1.59508,0.33862 0.14141,-0.54703 0.25167,-1.1014 0.25167,-1.69308 0,-3.33026 -2.39991,-6.03602 -5.54078,-6.60303 0.11269,-0.49129 0.16795,-0.99806 0.16795,-1.52378 0,-3.74026 -3.0069,-6.77234 -6.7161,-6.77234 z"/>
<g style="fill:#4290c2;stroke-width:.992" id="g17">
<path id="use6826" d="m 234.8332,274.48 a 1.34408,1.34408 0 0 0 -1.1005,1.10051 l -2.7089,13.2907 a 1.34408,1.34408 0 1 0 2.62429,0.50792 l 2.7936,-13.2907 A 1.34408,1.34408 0 0 0 234.83326,274.48 Z"/>
<path id="use6826-1-0" d="m 245.6689,274.48 a 1.34408,1.34408 0 0 0 -1.10051,1.10051 l -2.7089,13.2907 a 1.37807,1.37807 0 1 0 2.70893,0.50792 l 2.7089,-13.2907 A 1.34408,1.34408 0 0 0 245.66889,274.48 Z"/>
<path id="use6826-1-0-0-6" d="m 256.5047,274.48 a 1.34408,1.34408 0 0 0 -1.01586,1.10051 l -2.7089,13.2907 a 1.34408,1.34408 0 1 0 2.62429,0.50792 l 2.7089,-13.2907 A 1.34408,1.34408 0 0 0 256.5047,274.48 Z"/>
</g>
</g>
<g style="stroke-width:.545">
<path style="fill:#5b7495;color:#bebebe" id="path7834" d="m 35.5,5.1364 c -4.04426,0 -7.36364,3.31937 -7.36364,7.36364 0,4.04426 3.31936,7.36364 7.36364,7.36364 4.04427,0 7.36364,-3.31938 7.36364,-7.36364 0,-4.04427 -3.31936,-7.36364 -7.36364,-7.36364 z "/>
<path style="opacity:.7;fill:#b2d4ff" id="path2023" d="m 35.5,.5 c -6.61451,-1.1e-07 -12,5.3855 -12,12 0,6.61451 5.3855,12 12,12 6.61451,0 12,-5.3855 12,-12 0,-6.61451 -5.3855,-12 -12,-12 z  m 0,2.1818 c 5.43536,0 9.81818,4.38283 9.81818,9.81818 0,5.43536 -4.38283,9.81818 -9.81818,9.81818 -5.43536,0 -9.81818,-4.38283 -9.81818,-9.81818 0,-5.43536 4.38283,-9.81818 9.81818,-9.81818 z "/>
</g>
</svg>
