<svg width="48" version="1.1" xmlns="http://www.w3.org/2000/svg" height="48" xmlns:xlink="http://www.w3.org/1999/xlink">
<defs id="defs7386">
<linearGradient id="linearGradient3760">
<stop offset="0" style="stop-color:#fff" id="stop3762"/>
<stop offset="1" style="stop-color:#b4b4b4" id="stop3764"/>
</linearGradient>
<linearGradient gradientTransform="matrix(2.75,0,0,2.75,-279.75,-517.5)" xlink:href="#linearGradient3760" id="linearGradient3766" y1="280" x1="172" y2="295" x2="172" gradientUnits="userSpaceOnUse"/>
</defs>
<g style="opacity:.3" id="g835" transform="translate(-161,-243)">
<path style="color:#000" id="path833" d="m 189.125,255.25 c -3.53042,0 -6.39809,2.67578 -6.78906,6.10154 -0.8986,-0.3357 -1.82025,-0.60154 -2.83594,-0.60154 -4.55636,0 -8.25,3.69365 -8.25,8.25 0,0.27004 0.0603,0.51014 0.0858,0.77344 C 170.51164,269.28051 169.53026,269 168.5,269 c -3.03757,0 -5.5,2.46243 -5.5,5.5 0,3.03756 2.46243,5.5 5.5,5.5 h 34.375 c 2.27816,0 4.125,-1.84682 4.125,-4.125 0,-2.27819 -1.84684,-4.125 -4.125,-4.125 -0.56956,0 -1.13932,0.13493 -1.63282,0.34374 0.14466,-0.55532 0.25768,-1.11808 0.25768,-1.71874 0,-3.38074 -2.45668,-6.12751 -5.67186,-6.70313 0.11514,-0.49873 0.17178,-1.01317 0.17178,-1.54687 0,-3.79697 -3.07805,-6.875 -6.875,-6.875 z"/>
</g>
<g id="layer9" transform="translate(-161,-245)">
<path style="fill:url(#linearGradient3766);color:#000" id="path5094-5-04-4-6-4-8" d="m 189.125,255.25 c -3.53042,0 -6.39809,2.67578 -6.78906,6.10154 -0.8986,-0.3357 -1.82025,-0.60154 -2.83594,-0.60154 -4.55636,0 -8.25,3.69365 -8.25,8.25 0,0.27004 0.0603,0.51014 0.0858,0.77344 C 170.51164,269.28051 169.53026,269 168.5,269 c -3.03757,0 -5.5,2.46243 -5.5,5.5 0,3.03756 2.46243,5.5 5.5,5.5 l 34.375,0 c 2.27816,0 4.125,-1.84682 4.125,-4.125 0,-2.27819 -1.84684,-4.125 -4.125,-4.125 -0.56956,0 -1.13932,0.13493 -1.63282,0.34374 0.14466,-0.55532 0.25768,-1.11808 0.25768,-1.71874 0,-3.38074 -2.45668,-6.12751 -5.67186,-6.70313 0.11514,-0.49873 0.17178,-1.01317 0.17178,-1.54687 0,-3.79697 -3.07805,-6.875 -6.875,-6.875 z"/>
</g>
<g id="g4144" transform="matrix(0.73059272,0,0,0.73059272,14.758874,15.465757)">
<path style="fill:#dca100" id="path2993" d="m 23.9449,3.4688 c -1.08097,0 -2.04919,0.615488 -2.59375,1.59375 l -18.5312,35.25 c -0.436012,0.869564 -0.443112,2.03668 0.09375,2.90625 0.536863,0.869565 1.38778,1.3125 2.46875,1.3125 h 37.1875 c 1.08097,0 2.06399,-0.536684 2.5,-1.40625 0.544109,-0.869565 0.553308,-1.95924 0.125,-2.9375 l -18.6562,-35.2188 c -0.536408,-0.97826 -1.51278,-1.5 -2.59375,-1.5 z "/>
<g style="fill:#fff" id="g4147">
<path id="path2991" d="m 23.7261,10.6562 c 2.30167,-0.01359 4.4452,2.07026 4.15625,3.78125 -0.706036,5.07197 -1.67444,10.1092 -2.28125,15.1875 h -2.875 c -0.731551,-5.28811 -1.73437,-9.92002 -2.59375,-15.1875 -0.304288,-1.6857 1.29208,-3.76765 3.59375,-3.78125 z "/>
<path id="path3009" d="m 23.9136,33.8438 c 1.43697,-0.0057 2.90157,0.794497 3.5625,2.125 1.18133,2.05937 -0.0076,4.91172 -2.3125,5.5 -2.37982,0.803109 -5.18586,-1.18558 -5.09375,-3.71875 -0.02904,-1.18315 0.56703,-2.25918 1.46875,-3 0.668959,-0.610971 1.51282,-0.903143 2.375,-0.90625 z"/>
</g>
</g>
</svg>
