<svg width="48" version="1.1" xmlns="http://www.w3.org/2000/svg" height="48" xmlns:xlink="http://www.w3.org/1999/xlink">
<defs>
<linearGradient id="linearGradient3760">
<stop offset="0" style="stop-color:#fff"/>
<stop offset="1" style="stop-color:#b4b4b4"/>
</linearGradient>
<linearGradient gradientTransform="matrix(2.75,0,0,2.75,-440.75,-762.5)" xlink:href="#linearGradient3760" id="linearGradient3766" y1="280" x1="172" y2="295" x2="172" gradientUnits="userSpaceOnUse"/>
</defs>
<g style="color:#000">
<path style="opacity:.4" d="m 28.125,12.25 c -3.53042,0 -6.39809,2.67578 -6.78906,6.10154 C 20.43734,18.01584 19.51569,17.75 18.5,17.75 c -4.55636,0 -8.25,3.69365 -8.25,8.25 0,0.27004 0.0603,0.51014 0.0858,0.77344 C 9.51164,26.28051 8.53026,26 7.5,26 4.46243,26 2,28.46243 2,31.5 2,34.53756 4.46243,37 7.5,37 H 41.875 C 44.15316,37 46,35.15318 46,32.875 46,30.59681 44.15316,28.75 41.875,28.75 c -0.56956,0 -1.13932,0.13493 -1.63282,0.34374 0.14466,-0.55532 0.25768,-1.11808 0.25768,-1.71874 0,-3.38074 -2.45668,-6.12751 -5.67186,-6.70313 0.11514,-0.49873 0.17178,-1.01317 0.17178,-1.54687 0,-3.79697 -3.07805,-6.875 -6.875,-6.875 z"/>
<path style="fill:url(#linearGradient3766)" d="m 28.125,10.25 c -3.53042,0 -6.39809,2.67578 -6.78906,6.10154 C 20.43734,16.01584 19.51569,15.75 18.5,15.75 c -4.55636,0 -8.25,3.69365 -8.25,8.25 0,0.27004 0.0603,0.51014 0.0858,0.77344 C 9.51164,24.28051 8.53026,24 7.5,24 4.46243,24 2,26.46243 2,29.5 2,32.53756 4.46243,35 7.5,35 H 41.875 C 44.15316,35 46,33.15318 46,30.875 46,28.59681 44.15316,26.75 41.875,26.75 c -0.56956,0 -1.13932,0.13493 -1.63282,0.34374 0.14466,-0.55532 0.25768,-1.11808 0.25768,-1.71874 0,-3.38074 -2.45668,-6.12751 -5.67186,-6.70313 0.11514,-0.49873 0.17178,-1.01317 0.17178,-1.54687 0,-3.79697 -3.07805,-6.875 -6.875,-6.875 z"/>
</g>
<path style="opacity:.3;fill:#010304" d="m 28.0298,18.5006 c -0.53533,-0.0039 -1.066,0.09972 -1.56055,0.304687 -1.49443,0.619256 -2.46875,2.07766 -2.46875,3.69531 h 2.01172 c 0,-0.804255 0.483763,-1.52955 1.22656,-1.83789 0.743443,-0.307851 1.59913,-0.137484 2.16797,0.431641 0.569125,0.568838 0.739492,1.42453 0.431641,2.16797 -0.308343,0.742799 -1.03364,1.22684 -1.83789,1.22656 l -10,.0059 c -0.554,0 -1,0.446 -1,1 0,0.554 0.446,1 1,1 l 10,.0059 c 1.61765,0 3.07606,-0.974324 3.69531,-2.46875 0.619196,-1.49478 0.276928,-3.21536 -0.867188,-4.35938 -0.742829,-0.743046 -1.74818,-1.16399 -2.79883,-1.17188 z  m 8,3.0059 c -0.53533,-0.0039 -1.066,0.09972 -1.56055,0.304688 -1.49443,0.619256 -2.46875,2.07766 -2.46875,3.69531 h 2.01172 c 0,-0.804255 0.483763,-1.52955 1.22656,-1.83789 0.743443,-0.307851 1.59913,-0.137485 2.16797,0.43164 0.569125,0.568838 0.739492,1.42453 0.431641,2.16797 -0.308343,0.742799 -1.03364,1.22684 -1.83789,1.22656 l -21,.0059 c -0.554,0 -1.0188,0.494651 -1,1.03828 0.01884,0.54363 0.528548,0.962274 1,0.962142 h 21 c 1.61765,0 3.07556,-0.968904 3.69481,-2.46333 0.619196,-1.49478 0.276928,-3.21536 -0.867188,-4.35938 -0.742829,-0.743046 -1.74818,-1.16399 -2.79883,-1.17188 z  m -8.0312,8.9824 v 0.0059 h -10.998 c -0.554,0 -1,0.446 -1,1 0,0.554 0.446,1 1,1 l 10.998,.0059 c 0.804255,0 1.52955,0.483763 1.83789,1.22656 0.307851,0.743443 0.137484,1.59913 -0.431641,2.16797 -0.568838,0.569125 -1.42453,0.739492 -2.16797,0.431641 -0.742799,-0.308424 -1.22684,-1.03372 -1.22656,-1.83797 h -2.01172 c 0,1.61765 0.974324,3.07606 2.46875,3.69531 1.49478,0.619196 3.21536,0.276929 4.35938,-0.867187 0.743046,-0.742829 1.16399,-1.74818 1.17188,-2.79883 0.0039,-0.53533 -0.09972,-1.066 -0.304688,-1.56055 -0.619256,-1.49443 -2.07766,-2.46875 -3.69531,-2.46875 z "/>
<path style="fill:#187eb2" d="m 28.0298,18 c -0.53533,-0.0039 -1.066,0.09972 -1.56055,0.304687 -1.49443,0.619256 -2.46875,2.07766 -2.46875,3.69531 h 2.01172 c 0,-0.804255 0.483763,-1.52955 1.22656,-1.83789 0.743443,-0.307851 1.59913,-0.137484 2.16797,0.431641 0.569125,0.568838 0.739492,1.42453 0.431641,2.16797 -0.308343,0.742799 -1.03364,1.22684 -1.83789,1.22656 l -10,.0059 c -0.554,0 -1,0.446 -1,1 0,0.554 0.446,1 1,1 l 10,.0059 c 1.61765,0 3.07606,-0.974324 3.69531,-2.46875 0.619196,-1.49478 0.276928,-3.21536 -0.867188,-4.35938 -0.742829,-0.743046 -1.74818,-1.16399 -2.79883,-1.17188 z  m 8,3.0059 c -0.53533,-0.0039 -1.066,0.09972 -1.56055,0.304688 -1.49443,0.619256 -2.46875,2.07766 -2.46875,3.69531 h 2.01172 c 0,-0.804255 0.483763,-1.52955 1.22656,-1.83789 0.743443,-0.307851 1.59913,-0.137485 2.16797,0.43164 0.569125,0.568838 0.739492,1.42453 0.431641,2.16797 -0.308343,0.742799 -1.03364,1.22684 -1.83789,1.22656 l -21,.0059 c -0.554,0 -1.0188,0.494651 -1,1.03828 0.01884,0.54363 0.528548,0.961774 1,0.961642 h 21 c 1.61765,0 3.07606,-0.968404 3.69531,-2.46283 0.619196,-1.49478 0.276928,-3.21536 -0.867188,-4.35938 -0.742829,-0.743046 -1.74818,-1.16399 -2.79883,-1.17188 z  m -8.0312,8.9824 v 0.0059 h -10.998 c -0.554,0 -1,0.446 -1,1 0,0.554 0.446,1 1,1 l 10.998,.0059 c 0.804255,0 1.52955,0.483763 1.83789,1.22656 0.307851,0.743443 0.137484,1.59913 -0.431641,2.16797 -0.568838,0.569125 -1.42453,0.739492 -2.16797,0.431641 -0.742799,-0.308424 -1.22684,-1.03372 -1.22656,-1.83797 h -2.01172 c 0,1.61765 0.974324,3.07606 2.46875,3.69531 1.49478,0.619196 3.21536,0.276929 4.35938,-0.867187 0.743046,-0.742829 1.16399,-1.74818 1.17188,-2.79883 0.0039,-0.53533 -0.09972,-1.066 -0.304688,-1.56055 -0.619256,-1.49443 -2.07766,-2.46875 -3.69531,-2.46875 z "/>
</svg>
