<svg width="48" version="1.1" xmlns="http://www.w3.org/2000/svg" height="48" xmlns:xlink="http://www.w3.org/1999/xlink">
<defs>
<linearGradient id="linearGradient3772-4">
<stop offset="0" style="stop-color:#fff"/>
<stop offset="1" style="stop-color:#c8c8c8"/>
</linearGradient>
<linearGradient gradientTransform="matrix(2,0,0,2,-170,-549)" xlink:href="#linearGradient3772-4" id="linearGradient3080" y1="286" x1="91" y2="295" gradientUnits="userSpaceOnUse" x2="91"/>
<linearGradient gradientTransform="matrix(2,0,0,2,-148,-540)" xlink:href="#linearGradient3772-4" id="linearGradient3084" y1="286" x1="91" y2="295" gradientUnits="userSpaceOnUse" x2="91"/>
</defs>
<g style="color:#bebebe">
<g style="fill:#766109">
<path d="m 24.0551,11.3476 c -7.3895,0 -13.4545,6.06502 -13.4545,13.4545 0,7.3895 6.06499,13.4545 13.4545,13.4545 7.38951,0 13.4545,-6.06501 13.4545,-13.4545 0,-7.38949 -6.06499,-13.4545 -13.4545,-13.4545 z "/>
<rect width="5.5" x="40.56694" y="22.052011" rx="1.546875" height="5.5"/>
<rect width="5.5" x="2.8020022" y="-26.816946" rx="1.546875" height="5.5" transform="rotate(90)"/>
<rect width="5.5" x="-21.48024" y="-37.305584" rx="1.546875" height="5.5" transform="rotate(135)"/>
<rect width="5.5" x="12.55558" y="-2.2302468" rx="1.546875" height="5.5" transform="rotate(45)"/>
</g>
<g style="fill:#eec623">
<path d="m 24.0551,10.5481 c -7.3895,0 -13.4545,6.06502 -13.4545,13.4545 0,7.3895 6.06499,13.4545 13.4545,13.4545 7.38951,0 13.4545,-6.06501 13.4545,-13.4545 0,-7.38949 -6.06499,-13.4545 -13.4545,-13.4545 z"/>
<rect width="5.5" x="40.56694" y="21.252502" rx="1.546875" height="5.5"/>
<rect width="5.5" x="2.0024872" y="-26.81694" rx="1.546875" height="5.5" transform="rotate(90)"/>
<rect width="5.5" x="-22.045582" y="-36.740238" rx="1.546875" height="5.5" transform="rotate(135)"/>
<rect width="5.5" x="11.990239" y="-2.7955813" rx="1.546875" height="5.5" transform="rotate(45)"/>
</g>
</g>
<g style="color:#000">
<path style="opacity:.4" d="m 11,27 c -2.76142,0 -5,2.23858 -5,5 0,0.43684 0.0822,0.84612 0.1874,1.25 C 5.82858,33.0982 5.41422,33 5,33 c -1.65686,0 -3,1.34314 -3,3 0,1.65686 1.34314,3 3,3 h 16 c 1.65686,0 3,-1.34314 3,-3 0,-1.65686 -1.34314,-3 -3,-3 0,-2.20914 -1.79086,-4 -4,-4 -0.63144,0 -1.21896,0.177 -1.75,0.4375 C 14.3759,27.98192 12.82148,27 11,27 Z"/>
<path style="fill:url(#linearGradient3080)" d="m 11,25 c -2.76142,0 -5,2.23858 -5,5 0,0.43684 0.0822,0.84612 0.1874,1.25 C 5.82858,31.0982 5.41422,31 5,31 c -1.65686,0 -3,1.34314 -3,3 0,1.65686 1.34314,3 3,3 h 16 c 1.65686,0 3,-1.34314 3,-3 0,-1.65686 -1.34314,-3 -3,-3 0,-2.20914 -1.79086,-4 -4,-4 -0.63144,0 -1.21896,0.177 -1.75,0.4375 C 14.3759,25.98192 12.82148,25 11,25 Z"/>
<path style="opacity:.4" d="m 33,36 c -2.76142,0 -5,2.23858 -5,5 0,0.43684 0.0822,0.84612 0.1874,1.25 C 27.82858,42.0982 27.41422,42 27,42 c -1.65686,0 -3,1.34314 -3,3 0,1.65686 1.34314,3 3,3 h 16 c 1.65686,0 3,-1.34314 3,-3 0,-1.65686 -1.34314,-3 -3,-3 0,-2.20914 -1.79086,-4 -4,-4 -0.63144,0 -1.21896,0.177 -1.75,0.4375 C 36.3759,36.98192 34.82148,36 33,36 Z"/>
<path style="fill:url(#linearGradient3084)" d="m 33,34 c -2.76142,0 -5,2.23858 -5,5 0,0.43684 0.0822,0.84612 0.1874,1.25 C 27.82858,40.0982 27.41422,40 27,40 c -1.65686,0 -3,1.34314 -3,3 0,1.65686 1.34314,3 3,3 h 16 c 1.65686,0 3,-1.34314 3,-3 0,-1.65686 -1.34314,-3 -3,-3 0,-2.20914 -1.79086,-4 -4,-4 -0.63144,0 -1.21896,0.177 -1.75,0.4375 C 36.3759,34.98192 34.82148,34 33,34 Z"/>
</g>
</svg>
