<svg width="48" version="1.1" xmlns="http://www.w3.org/2000/svg" height="48" xmlns:xlink="http://www.w3.org/1999/xlink">
<defs id="defs7386">
<linearGradient id="linearGradient3772-4">
<stop offset="0" style="stop-color:#fff" id="stop3774-6"/>
<stop offset="1" style="stop-color:#c8c8c8" id="stop3776-6"/>
</linearGradient>
<linearGradient gradientTransform="matrix(2,0,0,2,-170,-549)" xlink:href="#linearGradient3772-4" id="linearGradient3080" y1="286" x1="91" y2="295" gradientUnits="userSpaceOnUse" x2="91"/>
<linearGradient gradientTransform="matrix(2,0,0,2,-148,-540)" xlink:href="#linearGradient3772-4" id="linearGradient3084" y1="286" x1="91" y2="295" gradientUnits="userSpaceOnUse" x2="91"/>
</defs>
<g style="fill:#eec623;color:#bebebe" id="g15" transform="translate(-81,-245)">
<path style="line-height:normal;stroke-width:2.21" id="path7834-1" d="m 105.0551,255.5481 c -7.3895,0 -13.4545,6.06502 -13.4545,13.4545 0,7.3895 6.06499,13.4545 13.4545,13.4545 7.38951,0 13.4545,-6.06501 13.4545,-13.4545 0,-7.38949 -6.06499,-13.4545 -13.4545,-13.4545 z"/>
<g style="stroke-width:2" id="g13">
<rect width="5.5" x="121.56694" y="266.2525" rx="1.546875" height="5.5" id="rect4906-4-6-1"/>
<rect width="5.5" x="247.00249" y="-107.81694" rx="1.546875" height="5.5" id="rect4107-6" transform="rotate(90)"/>
<rect width="5.5" x="93.91993" y="-267.25705" rx="1.546875" height="5.5" id="rect4101-6" transform="rotate(135)"/>
<rect width="5.5" x="242.50705" y="113.16993" rx="1.546875" height="5.5" id="rect4095-7" transform="rotate(45)"/>
</g>
</g>
<g style="color:#000">
<path style="opacity:.3" id="path853" d="m 11,27 c -2.76142,0 -5,2.23858 -5,5 0,0.43684 0.0822,0.84612 0.1874,1.25 C 5.82858,33.0982 5.41422,33 5,33 c -1.65686,0 -3,1.34314 -3,3 0,1.65686 1.34314,3 3,3 h 16 c 1.65686,0 3,-1.34314 3,-3 0,-1.65686 -1.34314,-3 -3,-3 0,-2.20914 -1.79086,-4 -4,-4 -0.63144,0 -1.21896,0.177 -1.75,0.4375 C 14.3759,27.98192 12.82148,27 11,27 Z"/>
<path style="fill:url(#linearGradient3080)" id="path5094-5-03-1" d="m 11,25 c -2.76142,0 -5,2.23858 -5,5 0,0.43684 0.0822,0.84612 0.1874,1.25 C 5.82858,31.0982 5.41422,31 5,31 c -1.65686,0 -3,1.34314 -3,3 0,1.65686 1.34314,3 3,3 h 16 c 1.65686,0 3,-1.34314 3,-3 0,-1.65686 -1.34314,-3 -3,-3 0,-2.20914 -1.79086,-4 -4,-4 -0.63144,0 -1.21896,0.177 -1.75,0.4375 C 14.3759,25.98192 12.82148,25 11,25 Z"/>
<path style="opacity:.3" id="path855" d="m 33,36 c -2.76142,0 -5,2.23858 -5,5 0,0.43684 0.0822,0.84612 0.1874,1.25 C 27.82858,42.0982 27.41422,42 27,42 c -1.65686,0 -3,1.34314 -3,3 0,1.65686 1.34314,3 3,3 h 16 c 1.65686,0 3,-1.34314 3,-3 0,-1.65686 -1.34314,-3 -3,-3 0,-2.20914 -1.79086,-4 -4,-4 -0.63144,0 -1.21896,0.177 -1.75,0.4375 C 36.3759,36.98192 34.82148,36 33,36 Z"/>
<path style="fill:url(#linearGradient3084)" id="path3082" d="m 33,34 c -2.76142,0 -5,2.23858 -5,5 0,0.43684 0.0822,0.84612 0.1874,1.25 C 27.82858,40.0982 27.41422,40 27,40 c -1.65686,0 -3,1.34314 -3,3 0,1.65686 1.34314,3 3,3 h 16 c 1.65686,0 3,-1.34314 3,-3 0,-1.65686 -1.34314,-3 -3,-3 0,-2.20914 -1.79086,-4 -4,-4 -0.63144,0 -1.21896,0.177 -1.75,0.4375 C 36.3759,34.98192 34.82148,34 33,34 Z"/>
</g>
</svg>
