<svg width="48" version="1.1" xmlns="http://www.w3.org/2000/svg" height="48" xmlns:xlink="http://www.w3.org/1999/xlink">
<defs>
<linearGradient gradientTransform="matrix(2,0,0,2,-148,-540)" xlink:href="#linearGradient3772-4" id="linearGradient3084" y1="286" x1="91" y2="295" gradientUnits="userSpaceOnUse" x2="91"/>
<linearGradient gradientTransform="matrix(2,0,0,2,-170,-549)" xlink:href="#linearGradient3772-4" id="linearGradient3080" y1="286" x1="91" y2="295" gradientUnits="userSpaceOnUse" x2="91"/>
<linearGradient id="linearGradient3772-4">
<stop offset="0" style="stop-color:#fff"/>
<stop offset="1" style="stop-color:#c8c8c8"/>
</linearGradient>
</defs>
<path style="fill:#5b7495;color:#bebebe" d="m 24,10.5 c -7.41448,0 -13.5,6.08551 -13.5,13.5 0,7.41448 6.0855,13.5 13.5,13.5 7.41449,0 13.5,-6.08552 13.5,-13.5 0,-7.41449 -6.08549,-13.5 -13.5,-13.5 z"/>
<path style="opacity:.7;fill:#b2d4ff" d="M 24,2 C 11.8675,2 2,11.8675 2,24 2,36.1325 11.8675,46 24,46 36.1325,46 46,36.1325 46,24 46,11.8675 36.1325,2 24,2 Z m 0,3 C 34.5112,5 43,13.48882 43,24 43,34.5112 34.51118,43 24,43 13.4888,43 5,34.51118 5,24 5,13.4888 13.48882,5 24,5 Z"/>
<g style="color:#000">
<path style="opacity:.3" d="m 11,27 c -2.76142,0 -5,2.23858 -5,5 0,0.43684 0.0822,0.84612 0.1874,1.25 C 5.82858,33.0982 5.41422,33 5,33 c -1.65686,0 -3,1.34314 -3,3 0,1.65686 1.34314,3 3,3 h 16 c 1.65686,0 3,-1.34314 3,-3 0,-1.65686 -1.34314,-3 -3,-3 0,-2.20914 -1.79086,-4 -4,-4 -0.63144,0 -1.21896,0.177 -1.75,0.4375 C 14.3759,27.98192 12.82148,27 11,27 Z"/>
<path style="fill:url(#linearGradient3080)" d="m 11,25 c -2.76142,0 -5,2.23858 -5,5 0,0.43684 0.0822,0.84612 0.1874,1.25 C 5.82858,31.0982 5.41422,31 5,31 c -1.65686,0 -3,1.34314 -3,3 0,1.65686 1.34314,3 3,3 h 16 c 1.65686,0 3,-1.34314 3,-3 0,-1.65686 -1.34314,-3 -3,-3 0,-2.20914 -1.79086,-4 -4,-4 -0.63144,0 -1.21896,0.177 -1.75,0.4375 C 14.3759,25.98192 12.82148,25 11,25 Z"/>
<path style="opacity:.3" d="m 33,36 c -2.76142,0 -5,2.23858 -5,5 0,0.43684 0.0822,0.84612 0.1874,1.25 C 27.82858,42.0982 27.41422,42 27,42 c -1.65686,0 -3,1.34314 -3,3 0,1.65686 1.34314,3 3,3 h 16 c 1.65686,0 3,-1.34314 3,-3 0,-1.65686 -1.34314,-3 -3,-3 0,-2.20914 -1.79086,-4 -4,-4 -0.63144,0 -1.21896,0.177 -1.75,0.4375 C 36.3759,36.98192 34.82148,36 33,36 Z"/>
<path style="fill:url(#linearGradient3084)" d="m 33,34 c -2.76142,0 -5,2.23858 -5,5 0,0.43684 0.0822,0.84612 0.1874,1.25 C 27.82858,40.0982 27.41422,40 27,40 c -1.65686,0 -3,1.34314 -3,3 0,1.65686 1.34314,3 3,3 h 16 c 1.65686,0 3,-1.34314 3,-3 0,-1.65686 -1.34314,-3 -3,-3 0,-2.20914 -1.79086,-4 -4,-4 -0.63144,0 -1.21896,0.177 -1.75,0.4375 C 36.3759,34.98192 34.82148,34 33,34 Z"/>
</g>
<path style="opacity:.3;fill:#010304" d="m 28.0298,18.5006 c -0.53533,-0.0039 -1.066,0.09972 -1.56055,0.304687 -1.49443,0.619256 -2.46875,2.07766 -2.46875,3.69531 h 2.01172 c 0,-0.804255 0.483763,-1.52955 1.22656,-1.83789 0.743443,-0.307851 1.59913,-0.137484 2.16797,0.431641 0.569125,0.568838 0.739492,1.42453 0.431641,2.16797 -0.308343,0.742799 -1.03364,1.22684 -1.83789,1.22656 l -10,.0059 c -0.554,0 -1,0.446 -1,1 0,0.554 0.446,1 1,1 l 10,.0059 c 1.61765,0 3.07606,-0.974324 3.69531,-2.46875 0.619196,-1.49478 0.276928,-3.21536 -0.867188,-4.35938 -0.742829,-0.743046 -1.74818,-1.16399 -2.79883,-1.17188 z  m 8,3.0059 c -0.53533,-0.0039 -1.066,0.09972 -1.56055,0.304688 -1.49443,0.619256 -2.46875,2.07766 -2.46875,3.69531 h 2.01172 c 0,-0.804255 0.483763,-1.52955 1.22656,-1.83789 0.743443,-0.307851 1.59913,-0.137485 2.16797,0.43164 0.569125,0.568838 0.739492,1.42453 0.431641,2.16797 -0.308343,0.742799 -1.03364,1.22684 -1.83789,1.22656 l -21,.0059 c -0.554,0 -1.0188,0.494651 -1,1.03828 0.01884,0.54363 0.528548,0.962274 1,0.962142 h 21 c 1.61765,0 3.07556,-0.968904 3.69481,-2.46333 0.619196,-1.49478 0.276928,-3.21536 -0.867188,-4.35938 -0.742829,-0.743046 -1.74818,-1.16399 -2.79883,-1.17188 z  m -8.0312,8.9824 v 0.0059 h -10.998 c -0.554,0 -1,0.446 -1,1 0,0.554 0.446,1 1,1 l 10.998,.0059 c 0.804255,0 1.52955,0.483763 1.83789,1.22656 0.307851,0.743443 0.137484,1.59913 -0.431641,2.16797 -0.568838,0.569125 -1.42453,0.739492 -2.16797,0.431641 -0.742799,-0.308424 -1.22684,-1.03372 -1.22656,-1.83797 h -2.01172 c 0,1.61765 0.974324,3.07606 2.46875,3.69531 1.49478,0.619196 3.21536,0.276929 4.35938,-0.867187 0.743046,-0.742829 1.16399,-1.74818 1.17188,-2.79883 0.0039,-0.53533 -0.09972,-1.066 -0.304688,-1.56055 -0.619256,-1.49443 -2.07766,-2.46875 -3.69531,-2.46875 z "/>
<path style="fill:#e5f7ff" d="m 28.0298,18.0001 c -0.53533,-0.0039 -1.066,0.09972 -1.56055,0.304687 -1.49443,0.619256 -2.46875,2.07766 -2.46875,3.69531 h 2.01172 c 0,-0.804255 0.483763,-1.52955 1.22656,-1.83789 0.743443,-0.307851 1.59913,-0.137484 2.16797,0.431641 0.569125,0.568838 0.739492,1.42453 0.431641,2.16797 -0.308343,0.742799 -1.03364,1.22684 -1.83789,1.22656 l -10,.0059 c -0.554,0 -1,0.446 -1,1 0,0.554 0.446,1 1,1 l 10,.0059 c 1.61765,0 3.07606,-0.974324 3.69531,-2.46875 0.619196,-1.49478 0.276928,-3.21536 -0.867188,-4.35938 -0.742829,-0.743046 -1.74818,-1.16399 -2.79883,-1.17188 z  m 8,3.0059 c -0.53533,-0.0039 -1.066,0.09972 -1.56055,0.304688 -1.49443,0.619256 -2.46875,2.07766 -2.46875,3.69531 h 2.01172 c 0,-0.804255 0.483763,-1.52955 1.22656,-1.83789 0.743443,-0.307851 1.59913,-0.137485 2.16797,0.43164 0.569125,0.568838 0.739492,1.42453 0.431641,2.16797 -0.308343,0.742799 -1.03364,1.22684 -1.83789,1.22656 l -21,.0059 c -0.554,0 -1.0188,0.494651 -1,1.03828 0.01884,0.54363 0.528548,0.961774 1,0.961642 h 21 c 1.61765,0 3.07606,-0.968404 3.69531,-2.46283 0.619196,-1.49478 0.276928,-3.21536 -0.867188,-4.35938 -0.742829,-0.743046 -1.74818,-1.16399 -2.79883,-1.17188 z  m -8.0312,8.9824 v 0.0059 h -10.998 c -0.554,0 -1,0.446 -1,1 0,0.554 0.446,1 1,1 l 10.998,.0059 c 0.804255,0 1.52955,0.483763 1.83789,1.22656 0.307851,0.743443 0.137484,1.59913 -0.431641,2.16797 -0.568838,0.569125 -1.42453,0.739492 -2.16797,0.431641 -0.742799,-0.308424 -1.22684,-1.03372 -1.22656,-1.83797 h -2.01172 c 0,1.61765 0.974324,3.07606 2.46875,3.69531 1.49478,0.619196 3.21536,0.276929 4.35938,-0.867187 0.743046,-0.742829 1.16399,-1.74818 1.17188,-2.79883 0.0039,-0.53533 -0.09972,-1.066 -0.304688,-1.56055 -0.619256,-1.49443 -2.07766,-2.46875 -3.69531,-2.46875 z "/>
<path style="fill:#187eb2;color:#000" d="m 17,27 c -0.63144,0 -1.21896,0.177 -1.75,0.4375 -0.090152,-0.150124 -0.192703,-0.292151 -0.296875,-0.431641 -0.532679,0.027383 -0.971382,0.505273 -0.953125,1.0332 0.01884,0.543631 0.528548,0.96107 1,0.960938 h 5.46094 c -0.69193,-1.19439 -1.98128,-2 -3.46094,-2 z  m 0,2.9941 c -0.554,0 -1,0.446 -1,1 0,0.554 0.446,1 1,1 l 6.2285,.0039 c -0.549182,-0.61097 -1.34232,-0.998047 -2.22852,-0.998047 0,-0.347992 -0.049302,-0.68399 -0.132812,-1.00586 h -3.86719 z  m 6.998,3.9941 c 0,0.009859 0.001881,0.019451 0.001953,0.029297 3.4e-05,-0.005913 0,-0.011657 0,-0.017578 0,-0.003947 1.5e-05,-0.007775 0,-0.011719 h -0.001953 z  m 7.9941,.1133 c -1.95027,0.399085 -3.4865,1.93367 -3.88867,3.88281 1.0039,-0.026851 1.98365,-0.428901 2.72266,-1.16797 0.723086,-0.722875 1.13876,-1.69494 1.16797,-2.71484 -0.000626,0.000128 -0.001328,-0.000128 -0.001953,0 z "/>
</svg>
