<svg width="48" version="1.1" xmlns="http://www.w3.org/2000/svg" height="48" xmlns:xlink="http://www.w3.org/1999/xlink">
<defs>
<linearGradient id="linearGradient3760">
<stop offset="0" style="stop-color:#fff"/>
<stop offset="1" style="stop-color:#b4b4b4"/>
</linearGradient>
<linearGradient gradientTransform="matrix(2.75,0,0,2.75,-279.75,-517.5)" xlink:href="#linearGradient3760" id="linearGradient3766" y1="280" x1="172" y2="295" x2="172" gradientUnits="userSpaceOnUse"/>
</defs>
<g style="opacity:.3" transform="translate(-161,-243)">
<path style="color:#000" d="m 189.125,255.25 c -3.53042,0 -6.39809,2.67578 -6.78906,6.10154 -0.8986,-0.3357 -1.82025,-0.60154 -2.83594,-0.60154 -4.55636,0 -8.25,3.69365 -8.25,8.25 0,0.27004 0.0603,0.51014 0.0858,0.77344 C 170.51164,269.28051 169.53026,269 168.5,269 c -3.03757,0 -5.5,2.46243 -5.5,5.5 0,3.03756 2.46243,5.5 5.5,5.5 h 34.375 c 2.27816,0 4.125,-1.84682 4.125,-4.125 0,-2.27819 -1.84684,-4.125 -4.125,-4.125 -0.56956,0 -1.13932,0.13493 -1.63282,0.34374 0.14466,-0.55532 0.25768,-1.11808 0.25768,-1.71874 0,-3.38074 -2.45668,-6.12751 -5.67186,-6.70313 0.11514,-0.49873 0.17178,-1.01317 0.17178,-1.54687 0,-3.79697 -3.07805,-6.875 -6.875,-6.875 z"/>
</g>
<g transform="translate(-161,-245)">
<path style="fill:url(#linearGradient3766);color:#000" d="m 189.125,255.25 c -3.53042,0 -6.39809,2.67578 -6.78906,6.10154 -0.8986,-0.3357 -1.82025,-0.60154 -2.83594,-0.60154 -4.55636,0 -8.25,3.69365 -8.25,8.25 0,0.27004 0.0603,0.51014 0.0858,0.77344 C 170.51164,269.28051 169.53026,269 168.5,269 c -3.03757,0 -5.5,2.46243 -5.5,5.5 0,3.03756 2.46243,5.5 5.5,5.5 l 34.375,0 c 2.27816,0 4.125,-1.84682 4.125,-4.125 0,-2.27819 -1.84684,-4.125 -4.125,-4.125 -0.56956,0 -1.13932,0.13493 -1.63282,0.34374 0.14466,-0.55532 0.25768,-1.11808 0.25768,-1.71874 0,-3.38074 -2.45668,-6.12751 -5.67186,-6.70313 0.11514,-0.49873 0.17178,-1.01317 0.17178,-1.54687 0,-3.79697 -3.07805,-6.875 -6.875,-6.875 z"/>
</g>
<path style="opacity:.3;fill:#010304" d="m 28.0298,18.5006 c -0.53533,-0.0039 -1.066,0.09972 -1.56055,0.304687 -1.49443,0.619256 -2.46875,2.07766 -2.46875,3.69531 h 2.01172 c 0,-0.804255 0.483763,-1.52955 1.22656,-1.83789 0.743443,-0.307851 1.59913,-0.137484 2.16797,0.431641 0.569125,0.568838 0.739492,1.42453 0.431641,2.16797 -0.308343,0.742799 -1.03364,1.22684 -1.83789,1.22656 l -10,.0059 c -0.554,0 -1,0.446 -1,1 0,0.554 0.446,1 1,1 l 10,.0059 c 1.61765,0 3.07606,-0.974324 3.69531,-2.46875 0.619196,-1.49478 0.276928,-3.21536 -0.867188,-4.35938 -0.742829,-0.743046 -1.74818,-1.16399 -2.79883,-1.17188 z  m 8,3.0059 c -0.53533,-0.0039 -1.066,0.09972 -1.56055,0.304688 -1.49443,0.619256 -2.46875,2.07766 -2.46875,3.69531 h 2.01172 c 0,-0.804255 0.483763,-1.52955 1.22656,-1.83789 0.743443,-0.307851 1.59913,-0.137485 2.16797,0.43164 0.569125,0.568838 0.739492,1.42453 0.431641,2.16797 -0.308343,0.742799 -1.03364,1.22684 -1.83789,1.22656 l -21,.0059 c -0.554,0 -1.0188,0.494651 -1,1.03828 0.01884,0.54363 0.528548,0.962274 1,0.962142 h 21 c 1.61765,0 3.07556,-0.968904 3.69481,-2.46333 0.619196,-1.49478 0.276928,-3.21536 -0.867188,-4.35938 -0.742829,-0.743046 -1.74818,-1.16399 -2.79883,-1.17188 z  m -8.0312,8.9824 v 0.0059 h -10.998 c -0.554,0 -1,0.446 -1,1 0,0.554 0.446,1 1,1 l 10.998,.0059 c 0.804255,0 1.52955,0.483763 1.83789,1.22656 0.307851,0.743443 0.137484,1.59913 -0.431641,2.16797 -0.568838,0.569125 -1.42453,0.739492 -2.16797,0.431641 -0.742799,-0.308424 -1.22684,-1.03372 -1.22656,-1.83797 h -2.01172 c 0,1.61765 0.974324,3.07606 2.46875,3.69531 1.49478,0.619196 3.21536,0.276929 4.35938,-0.867187 0.743046,-0.742829 1.16399,-1.74818 1.17188,-2.79883 0.0039,-0.53533 -0.09972,-1.066 -0.304688,-1.56055 -0.619256,-1.49443 -2.07766,-2.46875 -3.69531,-2.46875 z "/>
<path style="fill:#187eb2" d="m 28.0298,18.0001 c -0.53533,-0.0039 -1.066,0.09972 -1.56055,0.304687 -1.49443,0.619256 -2.46875,2.07766 -2.46875,3.69531 h 2.01172 c 0,-0.804255 0.483763,-1.52955 1.22656,-1.83789 0.743443,-0.307851 1.59913,-0.137484 2.16797,0.431641 0.569125,0.568838 0.739492,1.42453 0.431641,2.16797 -0.308343,0.742799 -1.03364,1.22684 -1.83789,1.22656 l -10,.0059 c -0.554,0 -1,0.446 -1,1 0,0.554 0.446,1 1,1 l 10,.0059 c 1.61765,0 3.07606,-0.974324 3.69531,-2.46875 0.619196,-1.49478 0.276928,-3.21536 -0.867188,-4.35938 -0.742829,-0.743046 -1.74818,-1.16399 -2.79883,-1.17188 z  m 8,3.0059 c -0.53533,-0.0039 -1.066,0.09972 -1.56055,0.304688 -1.49443,0.619256 -2.46875,2.07766 -2.46875,3.69531 h 2.01172 c 0,-0.804255 0.483763,-1.52955 1.22656,-1.83789 0.743443,-0.307851 1.59913,-0.137485 2.16797,0.43164 0.569125,0.568838 0.739492,1.42453 0.431641,2.16797 -0.308343,0.742799 -1.03364,1.22684 -1.83789,1.22656 l -21,.0059 c -0.554,0 -1.0188,0.494651 -1,1.03828 0.01884,0.54363 0.528548,0.961774 1,0.961642 h 21 c 1.61765,0 3.07606,-0.968404 3.69531,-2.46283 0.619196,-1.49478 0.276928,-3.21536 -0.867188,-4.35938 -0.742829,-0.743046 -1.74818,-1.16399 -2.79883,-1.17188 z  m -8.0312,8.9824 v 0.0059 h -10.998 c -0.554,0 -1,0.446 -1,1 0,0.554 0.446,1 1,1 l 10.998,.0059 c 0.804255,0 1.52955,0.483763 1.83789,1.22656 0.307851,0.743443 0.137484,1.59913 -0.431641,2.16797 -0.568838,0.569125 -1.42453,0.739492 -2.16797,0.431641 -0.742799,-0.308424 -1.22684,-1.03372 -1.22656,-1.83797 h -2.01172 c 0,1.61765 0.974324,3.07606 2.46875,3.69531 1.49478,0.619196 3.21536,0.276929 4.35938,-0.867187 0.743046,-0.742829 1.16399,-1.74818 1.17188,-2.79883 0.0039,-0.53533 -0.09972,-1.066 -0.304688,-1.56055 -0.619256,-1.49443 -2.07766,-2.46875 -3.69531,-2.46875 z "/>
</svg>
