<svg width="48" version="1.1" xmlns="http://www.w3.org/2000/svg" height="48" xmlns:xlink="http://www.w3.org/1999/xlink">
<defs>
<linearGradient id="linearGradient3772-9">
<stop offset="0" style="stop-color:#fff"/>
<stop offset="1" style="stop-color:#c8c8c8"/>
</linearGradient>
<linearGradient gradientTransform="matrix(3.6363637,0,0,3.6363637,-306.72728,-1019.4546)" id="linearGradient5385" xlink:href="#linearGradient3772-9" y1="286" y2="295" x1="91" gradientUnits="userSpaceOnUse" x2="91"/>
</defs>
<path style="fill:#5b7495;color:#bebebe" d="m 24,10.5 c -7.41448,0 -13.5,6.08551 -13.5,13.5 0,7.41448 6.0855,13.5 13.5,13.5 7.41449,0 13.5,-6.08552 13.5,-13.5 0,-7.41449 -6.08549,-13.5 -13.5,-13.5 z"/>
<path style="opacity:.7;fill:#b2d4ff" d="M 24,2 C 11.8675,2 2,11.8675 2,24 2,36.1325 11.8675,46 24,46 36.1325,46 46,36.1325 46,24 46,11.8675 36.1325,2 24,2 Z m 0,3 C 34.5112,5 43,13.48882 43,24 43,34.5112 34.51118,43 24,43 13.4888,43 5,34.51118 5,24 5,13.4888 13.48882,5 24,5 Z"/>
<g style="color:#000">
<path style="opacity:.3" d="m 22.3636,26.1818 c -5.02076,0 -9.0909,4.07015 -9.0909,9.09091 0,0.79426 0.149454,1.5384 0.340727,2.27273 -0.6524,-0.276 -1.40578,-0.45455 -2.15891,-0.45455 -3.01247,0 -5.45455,2.44208 -5.45455,5.45455 0,3.01247 2.44207,5.45454 5.45455,5.45454 H 40.54542 c 3.01248,0 5.45455,-2.44207 5.45455,-5.45454 0,-3.01247 -2.44207,-5.45455 -5.45455,-5.45455 0,-4.01662 -3.25611,-7.27272 -7.27272,-7.27272 -1.14808,0 -2.21629,0.32181 -3.18182,0.79545 C 28.5016,27.96711 25.67539,26.1818 22.3636,26.1818 Z"/>
<path style="fill:url(#linearGradient5385)" d="m 22.3636,24.1818 c -5.02076,0 -9.0909,4.07015 -9.0909,9.09091 0,0.79426 0.149454,1.5384 0.340727,2.27273 -0.6524,-0.276 -1.40578,-0.45455 -2.15891,-0.45455 -3.01247,0 -5.45455,2.44208 -5.45455,5.45455 0,3.01247 2.44207,5.45454 5.45455,5.45454 H 40.54542 c 3.01248,0 5.45455,-2.44207 5.45455,-5.45454 0,-3.01247 -2.44207,-5.45455 -5.45455,-5.45455 0,-4.01662 -3.25611,-7.27272 -7.27272,-7.27272 -1.14808,0 -2.21629,0.32181 -3.18182,0.79545 C 28.5016,25.96711 25.67539,24.1818 22.3636,24.1818 Z"/>
</g>
<path style="opacity:.3;fill:#010304" d="m 28.0298,18.5006 c -0.53533,-0.0039 -1.066,0.09972 -1.56055,0.304687 -1.49443,0.619256 -2.46875,2.07766 -2.46875,3.69531 h 2.01172 c 0,-0.804255 0.483763,-1.52955 1.22656,-1.83789 0.743443,-0.307851 1.59913,-0.137484 2.16797,0.431641 0.569125,0.568838 0.739492,1.42453 0.431641,2.16797 -0.308343,0.742799 -1.03364,1.22684 -1.83789,1.22656 l -10,.0059 c -0.554,0 -1,0.446 -1,1 0,0.554 0.446,1 1,1 l 10,.0059 c 1.61765,0 3.07606,-0.974324 3.69531,-2.46875 0.619196,-1.49478 0.276928,-3.21536 -0.867188,-4.35938 -0.742829,-0.743046 -1.74818,-1.16399 -2.79883,-1.17188 z  m 8,3.0059 c -0.53533,-0.0039 -1.066,0.09972 -1.56055,0.304688 -1.49443,0.619256 -2.46875,2.07766 -2.46875,3.69531 h 2.01172 c 0,-0.804255 0.483763,-1.52955 1.22656,-1.83789 0.743443,-0.307851 1.59913,-0.137485 2.16797,0.43164 0.569125,0.568838 0.739492,1.42453 0.431641,2.16797 -0.308343,0.742799 -1.03364,1.22684 -1.83789,1.22656 l -21,.0059 c -0.554,0 -1.0188,0.494651 -1,1.03828 0.01884,0.54363 0.528548,0.962274 1,0.962142 h 21 c 1.61765,0 3.07556,-0.968904 3.69481,-2.46333 0.619196,-1.49478 0.276928,-3.21536 -0.867188,-4.35938 -0.742829,-0.743046 -1.74818,-1.16399 -2.79883,-1.17188 z  m -8.0312,8.9824 v 0.0059 h -10.998 c -0.554,0 -1,0.446 -1,1 0,0.554 0.446,1 1,1 l 10.998,.0059 c 0.804255,0 1.52955,0.483763 1.83789,1.22656 0.307851,0.743443 0.137484,1.59913 -0.431641,2.16797 -0.568838,0.569125 -1.42453,0.739492 -2.16797,0.431641 -0.742799,-0.308424 -1.22684,-1.03372 -1.22656,-1.83797 h -2.01172 c 0,1.61765 0.974324,3.07606 2.46875,3.69531 1.49478,0.619196 3.21536,0.276929 4.35938,-0.867187 0.743046,-0.742829 1.16399,-1.74818 1.17188,-2.79883 0.0039,-0.53533 -0.09972,-1.066 -0.304688,-1.56055 -0.619256,-1.49443 -2.07766,-2.46875 -3.69531,-2.46875 z "/>
<path style="fill:#e5f7ff" d="m 28.0298,18.0001 c -0.53533,-0.0039 -1.066,0.09972 -1.56055,0.304687 -1.49443,0.619256 -2.46875,2.07766 -2.46875,3.69531 h 2.01172 c 0,-0.804255 0.483763,-1.52955 1.22656,-1.83789 0.743443,-0.307851 1.59913,-0.137484 2.16797,0.431641 0.569125,0.568838 0.739492,1.42453 0.431641,2.16797 -0.308343,0.742799 -1.03364,1.22684 -1.83789,1.22656 l -10,.0059 c -0.554,0 -1,0.446 -1,1 0,0.554 0.446,1 1,1 l 10,.0059 c 1.61765,0 3.07606,-0.974324 3.69531,-2.46875 0.619196,-1.49478 0.276928,-3.21536 -0.867188,-4.35938 -0.742829,-0.743046 -1.74818,-1.16399 -2.79883,-1.17188 z  m 8,3.0059 c -0.53533,-0.0039 -1.066,0.09972 -1.56055,0.304688 -1.49443,0.619256 -2.46875,2.07766 -2.46875,3.69531 h 2.01172 c 0,-0.804255 0.483763,-1.52955 1.22656,-1.83789 0.743443,-0.307851 1.59913,-0.137485 2.16797,0.43164 0.569125,0.568838 0.739492,1.42453 0.431641,2.16797 -0.308343,0.742799 -1.03364,1.22684 -1.83789,1.22656 l -21,.0059 c -0.554,0 -1.0188,0.494651 -1,1.03828 0.01884,0.54363 0.528548,0.961774 1,0.961642 h 21 c 1.61765,0 3.07606,-0.968404 3.69531,-2.46283 0.619196,-1.49478 0.276928,-3.21536 -0.867188,-4.35938 -0.742829,-0.743046 -1.74818,-1.16399 -2.79883,-1.17188 z  m -8.0312,8.9824 v 0.0059 h -10.998 c -0.554,0 -1,0.446 -1,1 0,0.554 0.446,1 1,1 l 10.998,.0059 c 0.804255,0 1.52955,0.483763 1.83789,1.22656 0.307851,0.743443 0.137484,1.59913 -0.431641,2.16797 -0.568838,0.569125 -1.42453,0.739492 -2.16797,0.431641 -0.742799,-0.308424 -1.22684,-1.03372 -1.22656,-1.83797 h -2.01172 c 0,1.61765 0.974324,3.07606 2.46875,3.69531 1.49478,0.619196 3.21536,0.276929 4.35938,-0.867187 0.743046,-0.742829 1.16399,-1.74818 1.17188,-2.79883 0.0039,-0.53533 -0.09972,-1.066 -0.304688,-1.56055 -0.619256,-1.49443 -2.07766,-2.46875 -3.69531,-2.46875 z "/>
<path style="fill:#187eb2;color:#000" d="m 22.3633,24.1816 c -1.87056,0 -3.6074,0.566563 -5.05273,1.53516 0.179296,0.171111 0.420895,0.277344 0.689453,0.277344 l 9.752,.0059 c -1.4957,-1.13829 -3.3492,-1.81836 -5.38867,-1.81836 z  m 6.4961,2.8145 l -13.0664,.0039 c -0.519839,0.544415 -0.972918,1.15238 -1.3457,1.8125 0.168055,0.117161 0.362284,0.187553 0.552734,0.1875 h 21 c 0.350449,0 0.692896,-0.048363 1.02148,-0.134766 -1.09543,-0.660976 -2.37536,-1.04688 -3.74805,-1.04688 -1.14808,0 -2.21611,0.321282 -3.18164,0.794922 -0.351843,-0.585898 -0.767484,-1.12573 -1.23242,-1.61719 z  m -.8613,2.9922 v 0.00586 h -10.998 c -0.554,0 -1,0.446 -1,1 0,0.554 0.446,1 1,1 l 10.998,.0059 c 0.804255,0 1.52955,0.483766 1.83789,1.22656 0.30785,0.743443 0.137484,1.59913 -0.431641,2.16797 -0.568838,0.569125 -1.42453,0.739492 -2.16797,0.431641 -0.742799,-0.308424 -1.22684,-1.03364 -1.22656,-1.83789 h -2.01172 c 0,1.61765 0.974324,3.07606 2.46875,3.69531 1.49478,0.619196 3.21535,0.276928 4.35938,-0.867188 0.743046,-0.742829 1.16399,-1.74818 1.17188,-2.79883 0.0039,-0.53533 -0.09972,-1.066 -0.304688,-1.56055 -0.619256,-1.49443 -2.07766,-2.46875 -3.69531,-2.46875 z "/>
</svg>
