<svg width="48" version="1.1" xmlns="http://www.w3.org/2000/svg" height="48" xmlns:xlink="http://www.w3.org/1999/xlink">
<defs id="defs7386">
<linearGradient id="linearGradient3766">
<stop offset="0" style="stop-color:#fff" id="stop3768"/>
<stop offset="1" style="stop-color:#bebebe" id="stop3770"/>
</linearGradient>
<linearGradient gradientTransform="matrix(2.7089361,0,0,2.7089361,-596.77793,-747.98465)" xlink:href="#linearGradient3766" id="linearGradient3772" y1="276" x1="231" y2="288" x2="231" gradientUnits="userSpaceOnUse"/>
</defs>
<path style="opacity:.3;color:#000" id="path885" d="m 27.5381,4.3906 c -3.4488,0 -6.25019,2.63582 -6.63213,6.01046 -0.87783,-0.33071 -1.77819,-0.5926 -2.77039,-0.5926 -4.45103,0 -8.05931,3.6385 -8.05931,8.12682 0,0.26602 0.059,0.50251 0.0838,0.76188 -0.80498,-0.48555 -1.76369,-0.76188 -2.77013,-0.76188 -2.96736,0 -5.3729,2.42566 -5.3729,5.41788 0,2.9922 2.40554,5.41787 5.3729,5.41787 h 33.5805 c 2.22553,0 4.02965,-1.81925 4.02965,-4.06341 0,-2.24417 -1.80412,-4.06341 -4.02965,-4.06341 -0.55639,0 -1.11297,0.13301 -1.59508,0.33862 0.14141,-0.54703 0.25167,-1.1014 0.25167,-1.69308 0,-3.33026 -2.39991,-6.03602 -5.54078,-6.60303 0.11269,-0.49129 0.16795,-0.99806 0.16795,-1.52378 0,-3.74026 -3.0069,-6.77234 -6.7161,-6.77234 z"/>
<g style="fill:#505050" id="g4256" transform="translate(-220.97255,-244)">
<g id="g4258">
<g id="g4260" transform="matrix(1.0995772,0,0,1.0995772,224.57697,271.4333)">
<g id="g4262" transform="translate(-241,-277)">
<path style="line-height:normal;color:#000" id="path4264" d="m 249.4375,282.9375 a 0.50005,0.50005 0 0,0 -0.4375,0.53125 v 0.65625 l -.2812,-.125 a 0.503164,0.503164 0 1,0 -0.4375,0.90625 l .7188,.3438 v 1.8125 l -1.6562,-1.0312 .0625,-.875 a 0.502192,0.502192 0 1,0 -1,-0.0937 l -.0312,.4062 -.5938,-.375 a 0.50005,0.50005 0 1,0 -0.5313,0.8437 l .6562,.4062 -.3125,.25 a 0.503164,0.503164 0 1,0 0.59375,0.8125 l .6562,-.5 1.6875,1.0312 -1.7188,1.0625 -.6562,-.4688 a 0.50005,0.50005 0 1,0 -0.59375,0.78125 l .3438,.25 -.6875,.4062 a 0.511823,0.511823 0 1,0 0.53125,0.875 l .625,-.375 .0312,.375 a 0.500976,0.500976 0 1,0 1,-0.0625 l -.0625,-.9062 1.6562,-1.0312 v 1.8125 l -.7187,.3438 a 0.503164,0.503164 0 1,0 0.4375,0.90625 l .2812,-.125 v 0.6875 a 0.50005,0.50005 0 1,0 1,0 v -0.6875 l .2812,.125 a 0.503164,0.503164 0 1,0 0.4375,-0.90625 l -.7188,-.3438 v -1.8125 l 1.6562,1 -.0625,.9375 a 0.500244,0.500244 0 1,0 1,0.0312 l .0312,-.375 .5938,.375 a 0.50005,0.50005 0 1,0 0.53125,-0.84375 l -.6875,-.4062 .3438,-.25 a 0.503164,0.503164 0 1,0 -0.5937,-0.81245 l -.6562,.5 -1.6875,-1.0312 1.6875,-1.0312 .6875,.4688 a 0.50005,0.50005 0 1,0 0.5625,-0.8125 l -.3125,-.2188 .6875,-.4375 a 0.511823,0.511823 0 1,0 -0.53125,-0.875 l -.625,.375 -.0312,-.375 a 0.500976,0.500976 0 1,0 -1,0.0625 l .0625,.9062 -1.6562,1.0312 v -1.8125 l .7188,-.3438 a 0.503175,0.503175 0 1,0 -0.43755,-0.90625 l -.2812,.125 v -0.65625 a 0.50005,0.50005 0 0,0 -0.5625,-0.53125 z "/>
</g>
</g>
<g id="g4280" transform="matrix(1.0953512,0,0,1.0953512,246.73037,271.50081)">
<g id="g4282" transform="translate(-241,-277)">
<path style="line-height:normal;color:#000" id="path4284" d="m 249.4375,282.9375 a 0.50005,0.50005 0 0,0 -0.4375,0.53125 v 0.65625 l -.2812,-.125 a 0.503164,0.503164 0 1,0 -0.4375,0.90625 l .7188,.3438 v 1.8125 l -1.6562,-1.0312 .0625,-.875 a 0.502192,0.502192 0 1,0 -1,-0.0937 l -.0312,.4062 -.5938,-.375 a 0.50005,0.50005 0 1,0 -0.5313,0.8437 l .6562,.4062 -.3125,.25 a 0.503164,0.503164 0 1,0 0.59375,0.8125 l .6562,-.5 1.6875,1.0312 -1.7188,1.0625 -.6562,-.4688 a 0.50005,0.50005 0 1,0 -0.59375,0.78125 l .3438,.25 -.6875,.4062 a 0.511823,0.511823 0 1,0 0.53125,0.875 l .625,-.375 .0312,.375 a 0.500976,0.500976 0 1,0 1,-0.0625 l -.0625,-.9062 1.6562,-1.0312 v 1.8125 l -.7187,.3438 a 0.503164,0.503164 0 1,0 0.4375,0.90625 l .2812,-.125 v 0.6875 a 0.50005,0.50005 0 1,0 1,0 v -0.6875 l .2812,.125 a 0.503164,0.503164 0 1,0 0.4375,-0.90625 l -.7188,-.3438 v -1.8125 l 1.6562,1 -.0625,.9375 a 0.500244,0.500244 0 1,0 1,0.0312 l .0312,-.375 .5938,.375 a 0.50005,0.50005 0 1,0 0.53125,-0.84375 l -.6875,-.4062 .3438,-.25 a 0.503164,0.503164 0 1,0 -0.5937,-0.81245 l -.6562,.5 -1.6875,-1.0312 1.6875,-1.0312 .6875,.4688 a 0.50005,0.50005 0 1,0 0.5625,-0.8125 l -.3125,-.2188 .6875,-.4375 a 0.511823,0.511823 0 1,0 -0.53125,-0.875 l -.625,.375 -.0312,-.375 a 0.500976,0.500976 0 1,0 -1,0.0625 l .0625,.9062 -1.6562,1.0312 v -1.8125 l .7188,-.3438 a 0.503175,0.503175 0 1,0 -0.43755,-0.90625 l -.2812,.125 v -0.65625 a 0.50005,0.50005 0 0,0 -0.5625,-0.53125 z "/>
</g>
</g>
</g>
</g>
<path style="fill:url(#linearGradient3772);color:#000" id="path5094-5-04-4-6-4" d="m 27.5381,2.3906 c -3.4488,0 -6.25019,2.63582 -6.63213,6.01046 -0.87783,-0.33071 -1.77819,-0.5926 -2.77039,-0.5926 -4.45103,0 -8.05931,3.6385 -8.05931,8.12682 0,0.26602 0.059,0.50251 0.0838,0.76188 -0.80498,-0.48555 -1.76369,-0.76188 -2.77013,-0.76188 -2.96736,0 -5.3729,2.42566 -5.3729,5.41788 0,2.9922 2.40554,5.41787 5.3729,5.41787 h 33.5805 c 2.22553,0 4.02965,-1.81925 4.02965,-4.06341 0,-2.24417 -1.80412,-4.06341 -4.02965,-4.06341 -0.55639,0 -1.11297,0.13301 -1.59508,0.33862 0.14141,-0.54703 0.25167,-1.1014 0.25167,-1.69308 0,-3.33026 -2.39991,-6.03602 -5.54078,-6.60303 0.11269,-0.49129 0.16795,-0.99806 0.16795,-1.52378 0,-3.74026 -3.0069,-6.77234 -6.7161,-6.77234 z"/>
<g style="fill:#dcdcdc" id="g3836" transform="translate(-220.97255,-245)">
<g id="g3814">
<g id="g3042" transform="matrix(1.0995772,0,0,1.0995772,224.57697,271.4333)">
<g id="layer9-5" transform="translate(-241,-277)">
<path style="line-height:normal;color:#000" id="path7750" d="m 249.4375,282.9375 a 0.50005,0.50005 0 0,0 -0.4375,0.53125 v 0.65625 l -.2812,-.125 a 0.503164,0.503164 0 1,0 -0.4375,0.90625 l .7188,.3438 v 1.8125 l -1.6562,-1.0312 .0625,-.875 a 0.502192,0.502192 0 1,0 -1,-0.0937 l -.0312,.4062 -.5938,-.375 a 0.50005,0.50005 0 1,0 -0.5313,0.8437 l .6562,.4062 -.3125,.25 a 0.503164,0.503164 0 1,0 0.59375,0.8125 l .6562,-.5 1.6875,1.0312 -1.7188,1.0625 -.6562,-.4688 a 0.50005,0.50005 0 1,0 -0.59375,0.78125 l .3438,.25 -.6875,.4062 a 0.511823,0.511823 0 1,0 0.53125,0.875 l .625,-.375 .0312,.375 a 0.500976,0.500976 0 1,0 1,-0.0625 l -.0625,-.9062 1.6562,-1.0312 v 1.8125 l -.7187,.3438 a 0.503164,0.503164 0 1,0 0.4375,0.90625 l .2812,-.125 v 0.6875 a 0.50005,0.50005 0 1,0 1,0 v -0.6875 l .2812,.125 a 0.503164,0.503164 0 1,0 0.4375,-0.90625 l -.7188,-.3438 v -1.8125 l 1.6562,1 -.0625,.9375 a 0.500244,0.500244 0 1,0 1,0.0312 l .0312,-.375 .5938,.375 a 0.50005,0.50005 0 1,0 0.53125,-0.84375 l -.6875,-.4062 .3438,-.25 a 0.503164,0.503164 0 1,0 -0.5937,-0.81245 l -.6562,.5 -1.6875,-1.0312 1.6875,-1.0312 .6875,.4688 a 0.50005,0.50005 0 1,0 0.5625,-0.8125 l -.3125,-.2188 .6875,-.4375 a 0.511823,0.511823 0 1,0 -0.53125,-0.875 l -.625,.375 -.0312,-.375 a 0.500976,0.500976 0 1,0 -1,0.0625 l .0625,.9062 -1.6562,1.0312 v -1.8125 l .7188,-.3438 a 0.503175,0.503175 0 1,0 -0.43755,-0.90625 l -.2812,.125 v -0.65625 a 0.50005,0.50005 0 0,0 -0.5625,-0.53125 z "/>
</g>
</g>
<g id="g3073" transform="matrix(1.0953512,0,0,1.0953512,246.73037,271.50081)">
<g id="g3075" transform="translate(-241,-277)">
<path style="line-height:normal;color:#000" id="path3077" d="m 249.4375,282.9375 a 0.50005,0.50005 0 0,0 -0.4375,0.53125 v 0.65625 l -.2812,-.125 a 0.503164,0.503164 0 1,0 -0.4375,0.90625 l .7188,.3438 v 1.8125 l -1.6562,-1.0312 .0625,-.875 a 0.502192,0.502192 0 1,0 -1,-0.0937 l -.0312,.4062 -.5938,-.375 a 0.50005,0.50005 0 1,0 -0.5313,0.8437 l .6562,.4062 -.3125,.25 a 0.503164,0.503164 0 1,0 0.59375,0.8125 l .6562,-.5 1.6875,1.0312 -1.7188,1.0625 -.6562,-.4688 a 0.50005,0.50005 0 1,0 -0.59375,0.78125 l .3438,.25 -.6875,.4062 a 0.511823,0.511823 0 1,0 0.53125,0.875 l .625,-.375 .0312,.375 a 0.500976,0.500976 0 1,0 1,-0.0625 l -.0625,-.9062 1.6562,-1.0312 v 1.8125 l -.7187,.3438 a 0.503164,0.503164 0 1,0 0.4375,0.90625 l .2812,-.125 v 0.6875 a 0.50005,0.50005 0 1,0 1,0 v -0.6875 l .2812,.125 a 0.503164,0.503164 0 1,0 0.4375,-0.90625 l -.7188,-.3438 v -1.8125 l 1.6562,1 -.0625,.9375 a 0.500244,0.500244 0 1,0 1,0.0312 l .0312,-.375 .5938,.375 a 0.50005,0.50005 0 1,0 0.53125,-0.84375 l -.6875,-.4062 .3438,-.25 a 0.503164,0.503164 0 1,0 -0.5937,-0.81245 l -.6562,.5 -1.6875,-1.0312 1.6875,-1.0312 .6875,.4688 a 0.50005,0.50005 0 1,0 0.5625,-0.8125 l -.3125,-.2188 .6875,-.4375 a 0.511823,0.511823 0 1,0 -0.53125,-0.875 l -.625,.375 -.0312,-.375 a 0.500976,0.500976 0 1,0 -1,0.0625 l .0625,.9062 -1.6562,1.0312 v -1.8125 l .7188,-.3438 a 0.503175,0.503175 0 1,0 -0.43755,-0.90625 l -.2812,.125 v -0.65625 a 0.50005,0.50005 0 0,0 -0.5625,-0.53125 z "/>
</g>
</g>
</g>
</g>
<g id="g4329" transform="matrix(0.52677273,0,0,0.52677273,23.76845,-1.05355)">
<g style="fill:#eec623" id="layer9-6" transform="translate(-81,-245)">
<g style="color:#bebebe">
<path style="line-height:normal" id="path7834" d="m 104.9882,255.5456 c -7.3895,0 -13.4545,6.06502 -13.4545,13.4545 0,7.3895 6.06499,13.4545 13.4545,13.4545 7.38951,0 13.4545,-6.06501 13.4545,-13.4545 0,-7.38949 -6.06499,-13.4545 -13.4545,-13.4545 z"/>
<rect width="5.5" x="83" y="266.25" rx="1.546875" height="5.5" id="rect4906-43"/>
<rect width="5.5" x="121.5" y="266.25" rx="1.546875" height="5.5" id="rect4906-4-6"/>
<rect width="5.5" x="247" y="-107.75" rx="1.546875" height="5.5" id="rect4107" transform="rotate(90)"/>
<rect width="5.5" x="285.5" y="-107.75" rx="1.546875" height="5.5" id="rect4109" transform="rotate(90)"/>
<g id="use4998-8-8" transform="matrix(-1.9445436,1.9445436,-1.9445436,-1.9445436,832.25932,650.13055)">
<rect width="2" x="81" y="284" rx="0.5625" height="2" id="rect4101"/>
<rect width="2" x="95" y="284" rx="0.5625" height="2" id="rect4103"/>
</g>
<rect width="5.5" x="242.45796" y="113.2155" rx="1.546875" height="5.5" id="rect4095" transform="rotate(45)"/>
<rect width="5.5" x="280.95798" y="113.2155" rx="1.546875" height="5.5" id="rect4097" transform="rotate(45)"/>
</g>
</g>
</g>
</svg>
