<svg width="48" version="1.1" xmlns="http://www.w3.org/2000/svg" height="48" xmlns:xlink="http://www.w3.org/1999/xlink">
<defs id="defs7386">
<linearGradient id="linearGradient3766">
<stop offset="0" style="stop-color:#fff" id="stop3768"/>
<stop offset="1" style="stop-color:#c8c8c8" id="stop3770"/>
</linearGradient>
<linearGradient gradientTransform="matrix(2.7089361,0,0,2.7089361,-596.77793,-747.98465)" xlink:href="#linearGradient3766" id="linearGradient3772" y1="276" x1="231" y2="288" x2="231" gradientUnits="userSpaceOnUse"/>
</defs>
<g style="line-height:normal;color:#000">
<path style="opacity:.3" id="path885" d="m 27.5381,4.3906 c -3.4488,0 -6.25019,2.63582 -6.63213,6.01046 -0.87783,-0.33071 -1.77819,-0.5926 -2.77039,-0.5926 -4.45103,0 -8.05931,3.6385 -8.05931,8.12682 0,0.26602 0.059,0.50251 0.0838,0.76188 -0.80498,-0.48555 -1.76369,-0.76188 -2.77013,-0.76188 -2.96736,0 -5.3729,2.42566 -5.3729,5.41788 0,2.9922 2.40554,5.41787 5.3729,5.41787 h 33.5805 c 2.22553,0 4.02965,-1.81925 4.02965,-4.06341 0,-2.24417 -1.80412,-4.06341 -4.02965,-4.06341 -0.55639,0 -1.11297,0.13301 -1.59508,0.33862 0.14141,-0.54703 0.25167,-1.1014 0.25167,-1.69308 0,-3.33026 -2.39991,-6.03602 -5.54078,-6.60303 0.11269,-0.49129 0.16795,-0.99806 0.16795,-1.52378 0,-3.74026 -3.0069,-6.77234 -6.7161,-6.77234 z"/>
<path style="fill:url(#linearGradient3772)" id="path5094-5-04-4-6-4" d="m 27.5381,2.3906 c -3.4488,0 -6.25019,2.63582 -6.63213,6.01046 -0.87783,-0.33071 -1.77819,-0.5926 -2.77039,-0.5926 -4.45103,0 -8.05931,3.6385 -8.05931,8.12682 0,0.26602 0.059,0.50251 0.0838,0.76188 -0.80498,-0.48555 -1.76369,-0.76188 -2.77013,-0.76188 -2.96736,0 -5.3729,2.42566 -5.3729,5.41788 0,2.9922 2.40554,5.41787 5.3729,5.41787 h 33.5805 c 2.22553,0 4.02965,-1.81925 4.02965,-4.06341 0,-2.24417 -1.80412,-4.06341 -4.02965,-4.06341 -0.55639,0 -1.11297,0.13301 -1.59508,0.33862 0.14141,-0.54703 0.25167,-1.1014 0.25167,-1.69308 0,-3.33026 -2.39991,-6.03602 -5.54078,-6.60303 0.11269,-0.49129 0.16795,-0.99806 0.16795,-1.52378 0,-3.74026 -3.0069,-6.77234 -6.7161,-6.77234 z"/>
<g style="fill:#4290c2" id="g14" transform="translate(-221,-245)">
<path id="path6561-2" d="m 229.4153,274.48 a 1.34408,1.34408 0 0 0 -1.1005,1.10051 l -2.7089,13.2907 a 1.34408,1.34408 0 1 0 2.62428,0.50792 l 2.7089,-13.2907 A 1.34408,1.34408 0 0 0 229.41529,274.48 Z"/>
<path id="use6826" d="m 234.8332,274.48 a 1.34408,1.34408 0 0 0 -1.1005,1.10051 l -2.7089,13.2907 a 1.34408,1.34408 0 1 0 2.62429,0.50792 l 2.7936,-13.2907 A 1.34408,1.34408 0 0 0 234.83326,274.48 Z"/>
<path id="use6826-1" d="m 240.2511,274.48 a 1.34408,1.34408 0 0 0 -1.1005,1.10051 l -2.7089,13.2907 a 1.37808,1.37808 0 1 0 2.70894,0.50792 l 2.7089,-13.2907 A 1.34408,1.34408 0 0 0 240.2511,274.48 Z"/>
<path id="use6826-1-0" d="m 245.6689,274.48 a 1.34408,1.34408 0 0 0 -1.10051,1.10051 l -2.7089,13.2907 a 1.37807,1.37807 0 1 0 2.70893,0.50792 l 2.7089,-13.2907 A 1.34408,1.34408 0 0 0 245.66889,274.48 Z"/>
<path id="use6826-1-0-0" d="m 251.0868,274.48 a 1.34408,1.34408 0 0 0 -1.01585,1.10051 l -2.7936,13.2907 a 1.37808,1.37808 0 1 0 2.70894,0.50792 l 2.7089,-13.2907 A 1.34408,1.34408 0 0 0 251.08675,274.48 Z"/>
<path id="use6826-1-0-0-6" d="m 256.5047,274.48 a 1.34408,1.34408 0 0 0 -1.01586,1.10051 l -2.7089,13.2907 a 1.34408,1.34408 0 1 0 2.62429,0.50792 l 2.7089,-13.2907 A 1.34408,1.34408 0 0 0 256.5047,274.48 Z"/>
</g>
</g>
<g id="g4245" transform="matrix(0.52677273,0,0,0.52677273,23.42045,-1.05355)">
<g style="fill:#eec623" id="layer9-1" transform="translate(-81,-245)">
<g style="color:#bebebe" id="g30">
<path style="line-height:normal;stroke-width:2.21" id="path7834-3" d="m 104.9882,255.5456 c -7.3895,0 -13.4545,6.06502 -13.4545,13.4545 0,7.3895 6.06499,13.4545 13.4545,13.4545 7.38951,0 13.4545,-6.06501 13.4545,-13.4545 0,-7.38949 -6.06499,-13.4545 -13.4545,-13.4545 z"/>
<g style="stroke-width:2" id="g28">
<rect width="5.5" x="83" y="266.25" rx="1.546875" height="5.5" id="rect4906-43-1"/>
<rect width="5.5" x="121.5" y="266.25" rx="1.546875" height="5.5" id="rect4906-4-6-0"/>
<rect width="5.5" x="247" y="-107.75" rx="1.546875" height="5.5" id="rect4107-9" transform="rotate(90)"/>
<rect width="5.5" x="285.5" y="-107.75" rx="1.546875" height="5.5" id="rect4109-1" transform="rotate(90)"/>
<g id="use4998-8-8-8" transform="matrix(-1.9445436,1.9445436,-1.9445436,-1.9445436,832.25932,650.13055)">
<rect width="2" x="81" y="284" rx="0.5625" height="2" id="rect4101-3"/>
<rect width="2" x="95" y="284" rx="0.5625" height="2" id="rect4103-3"/>
</g>
<rect width="5.5" x="242.45796" y="113.2155" rx="1.546875" height="5.5" id="rect4095-8" transform="rotate(45)"/>
<rect width="5.5" x="280.95798" y="113.2155" rx="1.546875" height="5.5" id="rect4097-3" transform="rotate(45)"/>
</g>
</g>
</g>
</g>
</svg>
