<svg width="48" version="1.1" xmlns="http://www.w3.org/2000/svg" height="48" xmlns:xlink="http://www.w3.org/1999/xlink">
<defs>
<linearGradient id="linearGradient3772-4">
<stop offset="0" style="stop-color:#fff"/>
<stop offset="1" style="stop-color:#c8c8c8"/>
</linearGradient>
<linearGradient gradientTransform="matrix(2,0,0,2,-170,-549)" xlink:href="#linearGradient3772-4" id="linearGradient3080" y1="286" x1="91" y2="295" gradientUnits="userSpaceOnUse" x2="91"/>
<linearGradient gradientTransform="matrix(2,0,0,2,-148,-540)" xlink:href="#linearGradient3772-4" id="linearGradient3084" y1="286" x1="91" y2="295" gradientUnits="userSpaceOnUse" x2="91"/>
</defs>
<g style="color:#bebebe">
<g style="fill:#766109">
<rect width="5.5" x="40.497002" y="22.029531" rx="1.546875" height="5.5"/>
<rect width="5.5" x="2.7795312" y="-26.747005" rx="1.546875" height="5.5" transform="rotate(90)"/>
<rect width="5.5" x="-21.446672" y="-37.240231" rx="1.546875" height="5.5" transform="rotate(135)"/>
<rect width="5.5" x="12.490244" y="-2.196682" rx="1.546875" height="5.5" transform="rotate(45)"/>
<path d="m 23.9852,11.3251 c -7.3895,0 -13.4545,6.06502 -13.4545,13.4545 0,7.3895 6.06499,13.4545 13.4545,13.4545 7.38951,0 13.4545,-6.06501 13.4545,-13.4545 0,-7.38949 -6.06499,-13.4545 -13.4545,-13.4545 z "/>
</g>
<g style="fill:#eec623">
<rect width="5.5" x="40.497002" y="21.23" rx="1.546875" height="5.5"/>
<rect width="5.5" x="1.98" y="-26.747" rx="1.546875" height="5.5" transform="rotate(90)"/>
<rect width="5.5" x="-22.012028" y="-36.67487" rx="1.546875" height="5.5" transform="rotate(135)"/>
<rect width="5.5" x="11.924887" y="-2.7620349" rx="1.546875" height="5.5" transform="rotate(45)"/>
<path d="m 23.9852,10.5256 c -7.3895,0 -13.4545,6.06502 -13.4545,13.4545 0,7.3895 6.06499,13.4545 13.4545,13.4545 7.38951,0 13.4545,-6.06501 13.4545,-13.4545 0,-7.38949 -6.06499,-13.4545 -13.4545,-13.4545 z "/>
</g>
</g>
<g style="color:#000">
<path style="opacity:.3" d="m 11,27 c -2.76142,0 -5,2.23858 -5,5 0,0.43684 0.0822,0.84612 0.1874,1.25 C 5.82858,33.0982 5.41422,33 5,33 c -1.65686,0 -3,1.34314 -3,3 0,1.65686 1.34314,3 3,3 h 16 c 1.65686,0 3,-1.34314 3,-3 0,-1.65686 -1.34314,-3 -3,-3 0,-2.20914 -1.79086,-4 -4,-4 -0.63144,0 -1.21896,0.177 -1.75,0.4375 C 14.3759,27.98192 12.82148,27 11,27 Z"/>
<path style="fill:url(#linearGradient3080)" d="m 11,25 c -2.76142,0 -5,2.23858 -5,5 0,0.43684 0.0822,0.84612 0.1874,1.25 C 5.82858,31.0982 5.41422,31 5,31 c -1.65686,0 -3,1.34314 -3,3 0,1.65686 1.34314,3 3,3 h 16 c 1.65686,0 3,-1.34314 3,-3 0,-1.65686 -1.34314,-3 -3,-3 0,-2.20914 -1.79086,-4 -4,-4 -0.63144,0 -1.21896,0.177 -1.75,0.4375 C 14.3759,25.98192 12.82148,25 11,25 Z"/>
<path style="opacity:.3" d="m 33,36 c -2.76142,0 -5,2.23858 -5,5 0,0.43684 0.0822,0.84612 0.1874,1.25 C 27.82858,42.0982 27.41422,42 27,42 c -1.65686,0 -3,1.34314 -3,3 0,1.65686 1.34314,3 3,3 h 16 c 1.65686,0 3,-1.34314 3,-3 0,-1.65686 -1.34314,-3 -3,-3 0,-2.20914 -1.79086,-4 -4,-4 -0.63144,0 -1.21896,0.177 -1.75,0.4375 C 36.3759,36.98192 34.82148,36 33,36 Z"/>
<path style="fill:url(#linearGradient3084)" d="m 33,34 c -2.76142,0 -5,2.23858 -5,5 0,0.43684 0.0822,0.84612 0.1874,1.25 C 27.82858,40.0982 27.41422,40 27,40 c -1.65686,0 -3,1.34314 -3,3 0,1.65686 1.34314,3 3,3 h 16 c 1.65686,0 3,-1.34314 3,-3 0,-1.65686 -1.34314,-3 -3,-3 0,-2.20914 -1.79086,-4 -4,-4 -0.63144,0 -1.21896,0.177 -1.75,0.4375 C 36.3759,34.98192 34.82148,34 33,34 Z"/>
</g>
<path style="opacity:.3;fill:#010304" d="m 28.0298,18.5006 c -0.53533,-0.0039 -1.066,0.09972 -1.56055,0.304687 -1.49443,0.619256 -2.46875,2.07766 -2.46875,3.69531 h 2.01172 c 0,-0.804255 0.483763,-1.52955 1.22656,-1.83789 0.743443,-0.307851 1.59913,-0.137484 2.16797,0.431641 0.569125,0.568838 0.739492,1.42453 0.431641,2.16797 -0.308343,0.742799 -1.03364,1.22684 -1.83789,1.22656 l -10,.0059 c -0.554,0 -1,0.446 -1,1 0,0.554 0.446,1 1,1 l 10,.0059 c 1.61765,0 3.07606,-0.974324 3.69531,-2.46875 0.619196,-1.49478 0.276928,-3.21536 -0.867188,-4.35938 -0.742829,-0.743046 -1.74818,-1.16399 -2.79883,-1.17188 z  m 8,3.0059 c -0.53533,-0.0039 -1.066,0.09972 -1.56055,0.304688 -1.49443,0.619256 -2.46875,2.07766 -2.46875,3.69531 h 2.01172 c 0,-0.804255 0.483763,-1.52955 1.22656,-1.83789 0.743443,-0.307851 1.59913,-0.137485 2.16797,0.43164 0.569125,0.568838 0.739492,1.42453 0.431641,2.16797 -0.308343,0.742799 -1.03364,1.22684 -1.83789,1.22656 l -21,.0059 c -0.554,0 -1.0188,0.494651 -1,1.03828 0.01884,0.54363 0.528548,0.962274 1,0.962142 h 21 c 1.61765,0 3.07556,-0.968904 3.69481,-2.46333 0.619196,-1.49478 0.276928,-3.21536 -0.867188,-4.35938 -0.742829,-0.743046 -1.74818,-1.16399 -2.79883,-1.17188 z  m -8.0312,8.9824 v 0.0059 h -10.998 c -0.554,0 -1,0.446 -1,1 0,0.554 0.446,1 1,1 l 10.998,.0059 c 0.804255,0 1.52955,0.483763 1.83789,1.22656 0.307851,0.743443 0.137484,1.59913 -0.431641,2.16797 -0.568838,0.569125 -1.42453,0.739492 -2.16797,0.431641 -0.742799,-0.308424 -1.22684,-1.03372 -1.22656,-1.83797 h -2.01172 c 0,1.61765 0.974324,3.07606 2.46875,3.69531 1.49478,0.619196 3.21536,0.276929 4.35938,-0.867187 0.743046,-0.742829 1.16399,-1.74818 1.17188,-2.79883 0.0039,-0.53533 -0.09972,-1.066 -0.304688,-1.56055 -0.619256,-1.49443 -2.07766,-2.46875 -3.69531,-2.46875 z "/>
<path style="fill:#187eb2" d="m 28.0298,18 c -0.53533,-0.0039 -1.066,0.09972 -1.56055,0.304687 -1.49443,0.619256 -2.46875,2.07766 -2.46875,3.69531 h 2.01172 c 0,-0.804255 0.483763,-1.52955 1.22656,-1.83789 0.743443,-0.307851 1.59913,-0.137484 2.16797,0.431641 0.569125,0.568838 0.739492,1.42453 0.431641,2.16797 -0.308343,0.742799 -1.03364,1.22684 -1.83789,1.22656 l -10,.0059 c -0.554,0 -1,0.446 -1,1 0,0.554 0.446,1 1,1 l 10,.0059 c 1.61765,0 3.07606,-0.974324 3.69531,-2.46875 0.619196,-1.49478 0.276928,-3.21536 -0.867188,-4.35938 -0.742829,-0.743046 -1.74818,-1.16399 -2.79883,-1.17188 z  m 8,3.0059 c -0.53533,-0.0039 -1.066,0.09972 -1.56055,0.304688 -1.49443,0.619256 -2.46875,2.07766 -2.46875,3.69531 h 2.01172 c 0,-0.804255 0.483763,-1.52955 1.22656,-1.83789 0.743443,-0.307851 1.59913,-0.137485 2.16797,0.43164 0.569125,0.568838 0.739492,1.42453 0.431641,2.16797 -0.308343,0.742799 -1.03364,1.22684 -1.83789,1.22656 l -21,.0059 c -0.554,0 -1.0188,0.494651 -1,1.03828 0.01884,0.54363 0.528548,0.961774 1,0.961642 h 21 c 1.61765,0 3.07606,-0.968404 3.69531,-2.46283 0.619196,-1.49478 0.276928,-3.21536 -0.867188,-4.35938 -0.742829,-0.743046 -1.74818,-1.16399 -2.79883,-1.17188 z  m -8.0312,8.9824 v 0.0059 h -10.998 c -0.554,0 -1,0.446 -1,1 0,0.554 0.446,1 1,1 l 10.998,.0059 c 0.804255,0 1.52955,0.483763 1.83789,1.22656 0.307851,0.743443 0.137484,1.59913 -0.431641,2.16797 -0.568838,0.569125 -1.42453,0.739492 -2.16797,0.431641 -0.742799,-0.308424 -1.22684,-1.03372 -1.22656,-1.83797 h -2.01172 c 0,1.61765 0.974324,3.07606 2.46875,3.69531 1.49478,0.619196 3.21536,0.276929 4.35938,-0.867187 0.743046,-0.742829 1.16399,-1.74818 1.17188,-2.79883 0.0039,-0.53533 -0.09972,-1.066 -0.304688,-1.56055 -0.619256,-1.49443 -2.07766,-2.46875 -3.69531,-2.46875 z "/>
</svg>
