<svg width="48" version="1.1" xmlns="http://www.w3.org/2000/svg" height="48" xmlns:xlink="http://www.w3.org/1999/xlink">
<defs>
<linearGradient id="linearGradient3766">
<stop offset="0" style="stop-color:#fff"/>
<stop offset="1" style="stop-color:#bebebe"/>
</linearGradient>
<linearGradient gradientTransform="matrix(2.7089361,0,0,2.7089361,-596.77793,-747.98465)" xlink:href="#linearGradient3766" id="linearGradient3772" y1="276" x1="231" y2="288" x2="231" gradientUnits="userSpaceOnUse"/>
</defs>
<g style="color:#000">
<path style="opacity:.4" d="m 27.5381,4.3906 c -3.4488,0 -6.25019,2.63582 -6.63213,6.01046 -0.87783,-0.33071 -1.77819,-0.5926 -2.77039,-0.5926 -4.45103,0 -8.05931,3.6385 -8.05931,8.12682 0,0.26602 0.059,0.50251 0.0838,0.76188 -0.80498,-0.48555 -1.76369,-0.76188 -2.77013,-0.76188 -2.96736,0 -5.3729,2.42566 -5.3729,5.41788 0,2.9922 2.40554,5.41787 5.3729,5.41787 h 33.5805 c 2.22553,0 4.02965,-1.81925 4.02965,-4.06341 0,-2.24417 -1.80412,-4.06341 -4.02965,-4.06341 -0.55639,0 -1.11297,0.13301 -1.59508,0.33862 0.14141,-0.54703 0.25167,-1.1014 0.25167,-1.69308 0,-3.33026 -2.4,-6.03602 -5.54078,-6.60303 0.11269,-0.49129 0.16795,-0.99806 0.16795,-1.52378 0,-3.74026 -3.0069,-6.77234 -6.7161,-6.77234 z"/>
<g style="fill:#505050">
<path d="m 12.8821,33.962 a 0.549844,0.549844 0 0,0 -0.481065,0.58415 v 0.721598 l -.3092,-.1374 a 0.553268,0.553268 0 1,0 -0.481065,0.996492 l .7904,.378 v 1.99298 l -1.8211,-1.1339 .0687,-.9621 a 0.552199,0.552199 0 1,0 -1.09958,-0.10303 l -.0343,.4466 -.6529,-.4123 a 0.549844,0.549844 0 1,0 -0.584205,0.927714 l .7215,.4466 -.3436,.2749 a 0.553268,0.553268 0 1,0 0.652874,0.893407 l .7215,-.5498 1.8555,1.1339 -1.89,1.1683 -.7215,-.5155 a 0.549844,0.549844 0 1,0 -0.652874,0.859045 l .378,.2749 -.756,.4466 a 0.562789,0.562789 0 1,0 0.58415,0.96213 l .6872,-.4123 .0343,.4123 a 0.550862,0.550862 0 1,0 1.09958,-0.06872 l -.0687,-.9964 1.8211,-1.1339 v 1.99298 l -.7903,.378 a 0.553268,0.553268 0 1,0 0.481065,0.996492 l .3092,-.1374 v 0.755959 a 0.549844,0.549844 0 1,0 1.09958,0 v -0.755962 l .3092,.1374 a 0.553268,0.553268 0 1,0 0.481065,-0.996492 l -.7904,-.378 v -1.99298 l 1.8211,1.0996 -.0687,1.0309 a 0.550057,0.550057 0 1,0 1.09958,0.03431 l .0343,-.4123 .6529,.4123 a 0.549844,0.549844 0 1,0 0.584151,-0.927769 l -.756,-.4466 .378,-.2749 a 0.553268,0.553268 0 1,0 -0.652819,-0.893352 l -.7215,.5498 -1.8555,-1.1339 1.8555,-1.1339 .756,.5155 a 0.549844,0.549844 0 1,0 0.618512,-0.893407 l -.3436,-.2406 .756,-.4811 a 0.562789,0.562789 0 1,0 -0.58415,-0.96213 l -.6872,.4123 -.0343,-.4123 a 0.550862,0.550862 0 1,0 -1.09958,0.06872 l .0687,.9964 -1.8211,1.1339 v -1.99298 l .7904,-.378 a 0.55328,0.55328 0 1,0 -0.48112,-0.996492 l -.3092,.1374 v -0.721598 a 0.549844,0.549844 0 0,0 -0.618512,-0.58415 z "/>
<path d="m 35,34.0045 a 0.54773,0.54773 0 0,0 -0.479216,0.581905 v 0.718825 l -.308,-.1369 a 0.551141,0.551141 0 1,0 -0.479216,0.992662 l .7873,.3766 v 1.98532 l -1.8141,-1.1295 .0685,-.9584 a 0.550077,0.550077 0 1,0 -1.09535,-0.102634 l -.0342,.4449 -.6504,-.4108 a 0.54773,0.54773 0 1,0 -0.58196,0.924148 l .7188,.4449 -.3423,.2738 a 0.551141,0.551141 0 1,0 0.650364,0.889973 l .7188,-.5477 1.8484,1.1295 -1.8827,1.1638 -.7188,-.5135 a 0.54773,0.54773 0 1,0 -0.650365,0.855744 l .3766,.2738 -.7531,.4449 a 0.560626,0.560626 0 1,0 0.581905,0.958432 l .6846,-.4108 .0342,.4108 a 0.548745,0.548745 0 1,0 1.09535,-0.06846 l -.0685,-.9926 1.8141,-1.1295 v 1.98532 l -.7872,.3766 a 0.551141,0.551141 0 1,0 0.479216,0.992662 l .308,-.1369 v 0.753054 a 0.54773,0.54773 0 1,0 1.09535,0 v -0.753054 l .308,.1369 a 0.551141,0.551141 0 1,0 0.479216,-0.992662 l -.7873,-.3766 v -1.98532 l 1.8141,1.0954 -.0685,1.0269 a 0.547943,0.547943 0 1,0 1.09535,0.03417 l .0342,-.4108 .6504,.4108 a 0.54773,0.54773 0 1,0 0.581905,-0.924202 l -.7531,-.4449 .3766,-.2738 a 0.551141,0.551141 0 1,0 -0.65031,-0.889918 l -.7188,.5477 -1.8484,-1.1295 1.8484,-1.1295 .7531,.5135 a 0.54773,0.54773 0 1,0 0.616135,-0.889973 l -.3423,-.2397 .7531,-.4792 a 0.560626,0.560626 0 1,0 -0.581905,-0.958432 l -.6846,.4108 -.0342,-.4108 a 0.548745,0.548745 0 1,0 -1.09535,0.06846 l .0685,.9926 -1.8141,1.1295 v -1.98532 l .7873,-.3766 a 0.551153,0.551153 0 1,0 -0.479271,-0.992662 l -.308,.1369 v -0.718824 a 0.54773,0.54773 0 0,0 -0.616136,-0.581906 z "/>
</g>
<path style="fill:url(#linearGradient3772)" d="m 27.5381,2.3906 c -3.4488,0 -6.25019,2.63582 -6.63213,6.01046 -0.87783,-0.33071 -1.77819,-0.5926 -2.77039,-0.5926 -4.45103,0 -8.05931,3.6385 -8.05931,8.12682 0,0.26602 0.059,0.50251 0.0838,0.76188 -0.80498,-0.48555 -1.76369,-0.76188 -2.77013,-0.76188 -2.96736,0 -5.3729,2.42566 -5.3729,5.41788 0,2.9922 2.40554,5.41787 5.3729,5.41787 h 33.5805 c 2.22553,0 4.02965,-1.81925 4.02965,-4.06341 0,-2.24417 -1.80412,-4.06341 -4.02965,-4.06341 -0.55639,0 -1.11297,0.13301 -1.59508,0.33862 0.14141,-0.54703 0.25167,-1.1014 0.25167,-1.69308 0,-3.33026 -2.4,-6.03602 -5.54078,-6.60303 0.11269,-0.49129 0.16795,-0.99806 0.16795,-1.52378 0,-3.74026 -3.0069,-6.77234 -6.7161,-6.77234 z"/>
<g style="fill:#dcdcdc">
<path d="m 12.8821,32.962 a 0.549844,0.549844 0 0,0 -0.481065,0.58415 v 0.721598 l -.3092,-.1374 a 0.553268,0.553268 0 1,0 -0.481065,0.996492 l .7904,.378 v 1.99298 l -1.8211,-1.1339 .0687,-.9621 a 0.552199,0.552199 0 1,0 -1.09958,-0.10303 l -.0343,.4466 -.6529,-.4123 a 0.549844,0.549844 0 1,0 -0.584205,0.927714 l .7215,.4466 -.3436,.2749 a 0.553268,0.553268 0 1,0 0.652874,0.893407 l .7215,-.5498 1.8555,1.1339 -1.89,1.1683 -.7215,-.5155 a 0.549844,0.549844 0 1,0 -0.652874,0.859045 l .378,.2749 -.756,.4466 a 0.562789,0.562789 0 1,0 0.58415,0.96213 l .6872,-.4123 .0343,.4123 a 0.550862,0.550862 0 1,0 1.09958,-0.06872 l -.0687,-.9964 1.8211,-1.1339 v 1.99298 l -.7903,.378 a 0.553268,0.553268 0 1,0 0.481065,0.996492 l .3092,-.1374 v 0.755959 a 0.549844,0.549844 0 1,0 1.09958,0 v -0.755962 l .3092,.1374 a 0.553268,0.553268 0 1,0 0.481065,-0.996492 l -.7904,-.378 v -1.99298 l 1.8211,1.0996 -.0687,1.0309 a 0.550057,0.550057 0 1,0 1.09958,0.03431 l .0343,-.4123 .6529,.4123 a 0.549844,0.549844 0 1,0 0.584151,-0.927769 l -.756,-.4466 .378,-.2749 a 0.553268,0.553268 0 1,0 -0.652819,-0.893352 l -.7215,.5498 -1.8555,-1.1339 1.8555,-1.1339 .756,.5155 a 0.549844,0.549844 0 1,0 0.618512,-0.893407 l -.3436,-.2406 .756,-.4811 a 0.562789,0.562789 0 1,0 -0.58415,-0.96213 l -.6872,.4123 -.0343,-.4123 a 0.550862,0.550862 0 1,0 -1.09958,0.06872 l .0687,.9964 -1.8211,1.1339 v -1.99298 l .7904,-.378 a 0.55328,0.55328 0 1,0 -0.48112,-0.996492 l -.3092,.1374 v -0.721598 a 0.549844,0.549844 0 0,0 -0.618512,-0.58415 z "/>
<path d="m 35,33.0045 a 0.54773,0.54773 0 0,0 -0.479216,0.581905 v 0.718825 l -.308,-.1369 a 0.551141,0.551141 0 1,0 -0.479216,0.992662 l .7873,.3766 v 1.98532 l -1.8141,-1.1295 .0685,-.9584 a 0.550077,0.550077 0 1,0 -1.09535,-0.102634 l -.0342,.4449 -.6504,-.4108 a 0.54773,0.54773 0 1,0 -0.58196,0.924148 l .7188,.4449 -.3423,.2738 a 0.551141,0.551141 0 1,0 0.650364,0.889973 l .7188,-.5477 1.8484,1.1295 -1.8827,1.1638 -.7188,-.5135 a 0.54773,0.54773 0 1,0 -0.650365,0.855744 l .3766,.2738 -.7531,.4449 a 0.560626,0.560626 0 1,0 0.581905,0.958432 l .6846,-.4108 .0342,.4108 a 0.548745,0.548745 0 1,0 1.09535,-0.06846 l -.0685,-.9926 1.8141,-1.1295 v 1.98532 l -.7872,.3766 a 0.551141,0.551141 0 1,0 0.479216,0.992662 l .308,-.1369 v 0.753054 a 0.54773,0.54773 0 1,0 1.09535,0 v -0.753054 l .308,.1369 a 0.551141,0.551141 0 1,0 0.479216,-0.992662 l -.7873,-.3766 v -1.98532 l 1.8141,1.0954 -.0685,1.0269 a 0.547943,0.547943 0 1,0 1.09535,0.03417 l .0342,-.4108 .6504,.4108 a 0.54773,0.54773 0 1,0 0.581905,-0.924202 l -.7531,-.4449 .3766,-.2738 a 0.551141,0.551141 0 1,0 -0.65031,-0.889918 l -.7188,.5477 -1.8484,-1.1295 1.8484,-1.1295 .7531,.5135 a 0.54773,0.54773 0 1,0 0.616135,-0.889973 l -.3423,-.2397 .7531,-.4792 a 0.560626,0.560626 0 1,0 -0.581905,-0.958432 l -.6846,.4108 -.0342,-.4108 a 0.548745,0.548745 0 1,0 -1.09535,0.06846 l .0685,.9926 -1.8141,1.1295 v -1.98532 l .7873,-.3766 a 0.551153,0.551153 0 1,0 -0.479271,-0.992662 l -.308,.1369 v -0.718824 a 0.54773,0.54773 0 0,0 -0.616136,-0.581906 z "/>
</g>
<g style="color:#bebebe">
<g style="fill:#766109">
<path d="m 36.4048,5.3016 c -3.89259,0 -7.08746,3.19489 -7.08746,7.08746 0,3.89259 3.19487,7.08746 7.08746,7.08746 3.89259,0 7.08746,-3.19488 7.08746,-7.08746 0,-3.89258 -3.19487,-7.08746 -7.08746,-7.08746 z "/>
<rect width="2.8972499" x="24.821995" y="10.940379" rx="0.81485158" height="2.8972499"/>
<rect width="2.8972499" x="45.102745" y="10.940379" rx="0.81485158" height="2.8972499"/>
<rect width="2.8972499" x="0.8" y="-37.859619" rx="0.81485158" height="2.8972499" transform="rotate(90)"/>
<rect width="2.8972499" x="21.080755" y="-37.859619" rx="0.81485158" height="2.8972499" transform="rotate(90)"/>
<rect width="2.8972499" x="-28.575123" y="-35.955452" rx="0.81485152" height="2.8972499" transform="rotate(135)"/>
<rect width="2.8972499" x="-8.2943735" y="-35.955452" rx="0.81485152" height="2.8972499" transform="rotate(135)"/>
</g>
<g style="fill:#766109">
<rect width="2.8972499" x="22.917824" y="-18.434744" rx="0.81485158" height="2.8972499" transform="rotate(45)"/>
<rect width="2.8972499" x="43.198582" y="-18.434744" rx="0.81485158" height="2.8972499" transform="rotate(45)"/>
</g>
<g style="fill:#eec623">
<path d="m 36.4048,4.5016 c -3.89259,0 -7.08746,3.19489 -7.08746,7.08746 0,3.89259 3.19487,7.08746 7.08746,7.08746 3.89259,0 7.08746,-3.19488 7.08746,-7.08746 0,-3.89258 -3.19487,-7.08746 -7.08746,-7.08746 z "/>
<rect width="2.8972499" x="24.821995" y="10.140369" rx="0.81485158" height="2.8972499"/>
<rect width="2.8972499" x="45.102745" y="10.140369" rx="0.81485158" height="2.8972499"/>
<rect width="2.8972499" x="0" y="-37.859619" rx="0.81485158" height="2.8972499" transform="rotate(90)"/>
<rect width="2.8972499" x="20.280745" y="-37.859619" rx="0.81485158" height="2.8972499" transform="rotate(90)"/>
</g>
<g style="fill:#eec623">
<rect width="2.8972499" x="-29.140814" y="-35.389763" rx="0.81485152" height="2.8972499" transform="rotate(135)"/>
<rect width="2.8972499" x="-8.8600655" y="-35.389763" rx="0.81485152" height="2.8972499" transform="rotate(135)"/>
<rect width="2.8972499" x="22.352133" y="-19" rx="0.81485158" height="2.8972499" transform="rotate(45)"/>
<rect width="2.8972499" x="42.632889" y="-19" rx="0.81485158" height="2.8972499" transform="rotate(45)"/>
</g>
</g>
</g>
</svg>
