<svg width="48" version="1.1" xmlns="http://www.w3.org/2000/svg" height="48" xmlns:xlink="http://www.w3.org/1999/xlink">
<defs id="defs7386"/>
<g style="fill:#eec623" id="layer9" transform="translate(-81,-245)">
<g style="color:#bebebe;stroke:none">
<path style="font-family:Sans;text-transform:none;text-indent:0;text-align:start;stroke-width:2.21;line-height:normal" id="path7834" d="m 104.9882,255.5456 c -7.3895,0 -13.4545,6.06502 -13.4545,13.4545 0,7.3895 6.06499,13.4545 13.4545,13.4545 7.38951,0 13.4545,-6.06501 13.4545,-13.4545 0,-7.38949 -6.06499,-13.4545 -13.4545,-13.4545 z "/>
<g style="stroke-width:2">
<rect width="5.5" x="83" y="266.25" rx="1.546875" height="5.5" ry="1.546875" id="rect4906-43"/>
<rect width="5.5" x="121.5" y="266.25" rx="1.546875" height="5.5" ry="1.546875" id="rect4906-4-6"/>
<rect width="5.5" x="247" y="-107.75" rx="1.546875" ry="1.546875" height="5.5" id="rect4107" transform="matrix(0,1,-1,0,0,0)"/>
<rect width="5.5" x="285.5" y="-107.75" rx="1.546875" ry="1.546875" height="5.5" id="rect4109" transform="matrix(0,1,-1,0,0,0)"/>
<g id="use4998-8-8" transform="matrix(-1.9445436,1.9445436,-1.9445436,-1.9445436,832.25932,650.13055)">
<rect width="2" x="81" y="284" rx="0.5625" height="2" ry="0.5625" id="rect4101"/>
<rect width="2" x="95" y="284" rx="0.5625" height="2" ry="0.5625" id="rect4103"/>
</g>
<rect width="5.5" x="242.45796" y="113.2155" rx="1.546875" ry="1.546875" height="5.5" id="rect4095" transform="matrix(0.70710678,0.70710678,-0.70710678,0.70710678,0,0)"/>
<rect width="5.5" x="280.95798" y="113.2155" rx="1.546875" ry="1.546875" height="5.5" id="rect4097" transform="matrix(0.70710678,0.70710678,-0.70710678,0.70710678,0,0)"/>
</g>
</g>
</g>
</svg>
