<svg width="48" version="1.1" xmlns="http://www.w3.org/2000/svg" height="48">
<g style="stroke-width:1.995;stroke:none;line-height:normal;color:#000;text-align:start;font-family:Sans;text-indent:0;text-transform:none" id="layer9" transform="translate(-281,-245)">
<g style="text-decoration-line:none;fill:#5a5a5a">
<path id="path4161" d="m 293.8581,253.7498 c -1.49181,-0.00064 -2.4129,0.78743 -3.06572,1.42071 -0.65282,0.63325 -1.10776,1.27108 -1.57025,1.86934 -0.46251,0.59826 -0.9242,1.15668 -1.19638,1.4207 -0.27218,0.26402 -0.26776,0.0747 0.2991,0.075 a 2.39276,2.39276 0 1,0 0,4.78551 c 1.4918,0.00065 2.41293,-0.78743 3.06572,-1.4207 0.65278,-0.63325 1.10775,-1.34585 1.57025,-1.94411 0.33968,-0.43941 0.64333,-0.68476 0.89728,-0.97206 0.25407,0.28764 0.55758,0.53236 0.89728,0.97206 0.46249,0.59865 0.99244,1.31053 1.64502,1.94411 0.65258,0.63358 1.49914,1.42006 2.99096,1.4207 1.49178,0.00065 2.4129,-0.78743 3.06572,-1.4207 0.65281,-0.63325 1.18253,-1.34585 1.64502,-1.94411 0.35129,-0.45441 0.56465,-0.75796 0.82252,-1.04682 0.26179,0.29012 0.53336,0.57576 0.89728,1.04682 0.4625,0.59865 0.99247,1.31053 1.64502,1.94411 0.65256,0.63358 1.57391,1.42006 3.06572,1.4207 1.49179,0.00065 2.41291,-0.78743 3.06572,-1.4207 0.65282,-0.63325 1.10775,-1.34585 1.57026,-1.94411 0.3397,-0.43941 0.64333,-0.68476 0.89727,-0.97206 0.25408,0.28764 0.55759,0.53236 0.89729,0.97206 0.46249,0.59865 0.91769,1.31053 1.57026,1.94411 0.65255,0.63358 1.57387,1.42006 3.06572,1.4207 a 2.39393,2.39393 0 1,0 0.14955,-4.78551 c 0.0466,0.0191 0.29375,0.0653 0.14954,-0.075 -0.27241,-0.26449 -0.73389,-0.82206 -1.19638,-1.4207 -0.4625,-0.59865 -0.91767,-1.23576 -1.57025,-1.86934 -0.65258,-0.63359 -1.57391,-1.42006 -3.06573,-1.42071 -1.49181,-0.00064 -2.41291,0.78743 -3.06571,1.42071 -0.65283,0.63325 -1.10776,1.27108 -1.57025,1.86934 -0.35756,0.46249 -0.63745,0.83218 -0.89729,1.12161 -0.26265,-0.29023 -0.53029,-0.64658 -0.89728,-1.12161 -0.46249,-0.59865 -0.99245,-1.23576 -1.64503,-1.86934 -0.65258,-0.63359 -1.49913,-1.42006 -2.99094,-1.42071 -1.49181,-0.00064 -2.41292,0.78743 -3.06572,1.42071 -0.65282,0.63325 -1.18253,1.27108 -1.64502,1.86934 -0.36699,0.47472 -0.63479,0.83174 -0.89729,1.12161 -0.25921,-0.28961 -0.46736,-0.66189 -0.82251,-1.12161 -0.4625,-0.59865 -0.99244,-1.23576 -1.64502,-1.86934 -0.65258,-0.63359 -1.57392,-1.42006 -3.06573,-1.42071 z "/>
<path id="path4163" d="m 293.85812,265.71364 c -1.49181,-6.5e-4 -2.4129,0.78744 -3.06572,1.4207 -0.65282,0.63326 -1.10776,1.27108 -1.57025,1.86935 -0.46251,0.59826 -0.9242,1.15667 -1.19638,1.42068 -0.27218,0.26402 -0.26778,0.0747 0.2991,0.075 a 2.39276,2.39276 0 1 0 0,4.78552 c 1.49183,6.4e-4 2.41293,-0.78744 3.06572,-1.4207 0.65278,-0.63328 1.10775,-1.34587 1.57025,-1.94412 0.33968,-0.43941 0.64333,-0.68476 0.89728,-0.97206 0.25407,0.28763 0.55758,0.53235 0.89728,0.97206 0.46249,0.59866 0.99244,1.31053 1.64502,1.94412 0.65258,0.63357 1.49912,1.42005 2.99096,1.4207 1.49181,6.4e-4 2.4129,-0.78744 3.06572,-1.4207 0.65281,-0.63328 1.18253,-1.34587 1.64502,-1.94412 0.35129,-0.45442 0.56465,-0.75797 0.82252,-1.04683 0.26179,0.29014 0.53336,0.57574 0.89728,1.04683 0.4625,0.59866 0.99247,1.31051 1.64502,1.94412 0.65256,0.63359 1.57389,1.42005 3.06572,1.4207 1.49181,6.4e-4 2.41291,-0.78744 3.06572,-1.4207 0.65282,-0.63328 1.10775,-1.34587 1.57026,-1.94412 0.3397,-0.43941 0.64333,-0.68476 0.89727,-0.97206 0.25408,0.28763 0.55759,0.53235 0.89729,0.97206 0.46249,0.59866 0.91769,1.31053 1.57026,1.94412 0.65255,0.63357 1.57387,1.42005 3.06572,1.4207 a 2.3939281,2.3939281 0 1 0 0.14955,-4.78552 c 0.0466,0.0191 0.29375,0.0653 0.14954,-0.075 -0.27241,-0.26448 -0.73389,-0.82202 -1.19638,-1.42068 -0.4625,-0.59868 -0.91767,-1.23577 -1.57025,-1.86935 -0.65258,-0.63358 -1.57391,-1.42006 -3.06573,-1.4207 -1.49181,-6.5e-4 -2.41291,0.78744 -3.06571,1.4207 -0.65283,0.63326 -1.10776,1.27108 -1.57025,1.86935 -0.35756,0.46251 -0.63745,0.83217 -0.89729,1.1216 -0.26265,-0.29022 -0.53029,-0.64658 -0.89728,-1.1216 -0.46249,-0.59868 -0.99245,-1.23576 -1.64503,-1.86935 -0.65258,-0.6336 -1.49913,-1.42006 -2.99094,-1.4207 -1.49181,-6.5e-4 -2.41294,0.78744 -3.06572,1.4207 -0.65279,0.63326 -1.18253,1.27108 -1.64502,1.86935 -0.36699,0.47472 -0.63479,0.83174 -0.89729,1.1216 -0.25921,-0.28962 -0.46736,-0.66189 -0.82251,-1.1216 -0.4625,-0.59868 -0.99244,-1.23577 -1.64502,-1.86935 -0.65258,-0.63358 -1.57389,-1.42006 -3.06573,-1.4207 z"/>
<path id="path4165" d="m 293.8581,277.6774 c -1.49181,-0.00064 -2.4129,0.78744 -3.06572,1.42071 -0.65282,0.63327 -1.10776,1.27107 -1.57025,1.86933 -0.46251,0.59828 -0.9242,1.15669 -1.19638,1.42071 -0.27218,0.26401 -0.26776,0.0747 0.2991,0.075 a 2.39276,2.39276 0 1,0 0,4.78551 c 1.4918,0.00066 2.41293,-0.78744 3.06572,-1.42068 0.65278,-0.63328 1.10775,-1.34587 1.57025,-1.94413 0.33968,-0.43941 0.64333,-0.68476 0.89728,-0.97206 0.25407,0.28764 0.55758,0.53237 0.89728,0.97206 0.46249,0.59864 0.99244,1.31054 1.64502,1.94413 0.65258,0.63357 1.49914,1.42005 2.99096,1.42068 1.49178,0.00066 2.4129,-0.78744 3.06572,-1.42068 0.65281,-0.63328 1.18253,-1.34587 1.64502,-1.94413 0.35129,-0.45441 0.56465,-0.75795 0.82252,-1.04683 0.26179,0.29014 0.53336,0.57577 0.89728,1.04683 0.4625,0.59864 0.99247,1.31054 1.64502,1.94413 0.65256,0.63357 1.57391,1.42005 3.06572,1.42068 1.49179,0.00066 2.41291,-0.78744 3.06572,-1.42068 0.65282,-0.63328 1.10775,-1.34587 1.57026,-1.94413 0.3397,-0.43941 0.64333,-0.68476 0.89727,-0.97206 0.25534,0.2882 0.55398,0.60245 0.89729,1.04684 0.46249,0.59864 0.91769,1.23576 1.57026,1.86935 0.65255,0.63357 1.57387,1.42005 3.06572,1.42068 a 2.39393,2.39393 0 1,0 0.14955,-4.78551 c 0.0466,0.0191 0.29375,0.0654 0.14954,-0.075 -0.27241,-0.2645 -0.73389,-0.82206 -1.19638,-1.42071 -0.4625,-0.59864 -0.91767,-1.23576 -1.57025,-1.86933 -0.65258,-0.63358 -1.57391,-1.42005 -3.06573,-1.42071 -1.49181,-0.00064 -2.41291,0.78744 -3.06571,1.42071 -0.65283,0.63327 -1.10776,1.27107 -1.57025,1.86933 -0.35756,0.4625 -0.63745,0.83218 -0.89729,1.12161 -0.26265,-0.29021 -0.53029,-0.64657 -0.89728,-1.12161 -0.46249,-0.59864 -0.99245,-1.23576 -1.64503,-1.86933 -0.65258,-0.63358 -1.49913,-1.42005 -2.99094,-1.42071 -1.49181,-0.00064 -2.41292,0.78744 -3.06572,1.42071 -0.65282,0.63327 -1.18253,1.27107 -1.64502,1.86933 -0.36699,0.47473 -0.63479,0.83176 -0.89729,1.12161 -0.25921,-0.28959 -0.46736,-0.66188 -0.82251,-1.12161 -0.4625,-0.59864 -0.99244,-1.23576 -1.64502,-1.86933 -0.65258,-0.63358 -1.57392,-1.42005 -3.06573,-1.42071 z "/>
</g>
<g style="fill:#dcdcdc">
<path id="path5123" d="m 293.8581,252.2499 c -1.49181,-0.00064 -2.4129,0.78743 -3.06572,1.42071 -0.65282,0.63325 -1.10776,1.27108 -1.57025,1.86934 -0.46251,0.59826 -0.9242,1.15668 -1.19638,1.4207 -0.27218,0.26402 -0.26776,0.0747 0.2991,0.075 a 2.39276,2.39276 0 1,0 0,4.78551 c 1.4918,0.00065 2.41293,-0.78743 3.06572,-1.4207 0.65278,-0.63325 1.10775,-1.34585 1.57025,-1.94411 0.33968,-0.43941 0.64333,-0.68476 0.89728,-0.97206 0.25407,0.28764 0.55758,0.53236 0.89728,0.97206 0.46249,0.59865 0.99244,1.31053 1.64502,1.94411 0.65258,0.63358 1.49914,1.42006 2.99096,1.4207 1.49178,0.00065 2.4129,-0.78743 3.06572,-1.4207 0.65281,-0.63325 1.18253,-1.34585 1.64502,-1.94411 0.35129,-0.45441 0.56465,-0.75796 0.82252,-1.04682 0.26179,0.29012 0.53336,0.57576 0.89728,1.04682 0.4625,0.59865 0.99247,1.31053 1.64502,1.94411 0.65256,0.63358 1.57391,1.42006 3.06572,1.4207 1.49179,0.00065 2.41291,-0.78743 3.06572,-1.4207 0.65282,-0.63325 1.10775,-1.34585 1.57026,-1.94411 0.3397,-0.43941 0.64333,-0.68476 0.89727,-0.97206 0.25408,0.28764 0.55759,0.53236 0.89729,0.97206 0.46249,0.59865 0.91769,1.31053 1.57026,1.94411 0.65255,0.63358 1.57387,1.42006 3.06572,1.4207 a 2.39393,2.39393 0 1,0 0.14955,-4.78551 c 0.0466,0.0191 0.29375,0.0653 0.14954,-0.075 -0.27241,-0.26449 -0.73389,-0.82206 -1.19638,-1.4207 -0.4625,-0.59865 -0.91767,-1.23576 -1.57025,-1.86934 -0.65258,-0.63359 -1.57391,-1.42006 -3.06573,-1.42071 -1.49181,-0.00064 -2.41291,0.78743 -3.06571,1.42071 -0.65283,0.63325 -1.10776,1.27108 -1.57025,1.86934 -0.35756,0.46249 -0.63745,0.83218 -0.89729,1.12161 -0.26265,-0.29023 -0.53029,-0.64658 -0.89728,-1.12161 -0.46249,-0.59865 -0.99245,-1.23576 -1.64503,-1.86934 -0.65258,-0.63359 -1.49913,-1.42006 -2.99094,-1.42071 -1.49181,-0.00064 -2.41292,0.78743 -3.06572,1.42071 -0.65282,0.63325 -1.18253,1.27108 -1.64502,1.86934 -0.36699,0.47472 -0.63479,0.83174 -0.89729,1.12161 -0.25921,-0.28961 -0.46736,-0.66189 -0.82251,-1.12161 -0.4625,-0.59865 -0.99244,-1.23576 -1.64502,-1.86934 -0.65258,-0.63359 -1.57392,-1.42006 -3.06573,-1.42071 z "/>
<path id="path5123-0" d="m 293.85812,264.21372 c -1.49181,-6.5e-4 -2.4129,0.78744 -3.06572,1.4207 -0.65282,0.63326 -1.10776,1.27108 -1.57025,1.86935 -0.46251,0.59826 -0.9242,1.15667 -1.19638,1.42068 -0.27218,0.26402 -0.26778,0.0747 0.2991,0.075 a 2.39276,2.39276 0 1 0 0,4.78552 c 1.49183,6.4e-4 2.41293,-0.78744 3.06572,-1.4207 0.65278,-0.63328 1.10775,-1.34587 1.57025,-1.94412 0.33968,-0.43941 0.64333,-0.68476 0.89728,-0.97206 0.25407,0.28763 0.55758,0.53235 0.89728,0.97206 0.46249,0.59866 0.99244,1.31053 1.64502,1.94412 0.65258,0.63357 1.49912,1.42005 2.99096,1.4207 1.49181,6.4e-4 2.4129,-0.78744 3.06572,-1.4207 0.65281,-0.63328 1.18253,-1.34587 1.64502,-1.94412 0.35129,-0.45442 0.56465,-0.75797 0.82252,-1.04683 0.26179,0.29014 0.53336,0.57574 0.89728,1.04683 0.4625,0.59866 0.99247,1.31051 1.64502,1.94412 0.65256,0.63359 1.57389,1.42005 3.06572,1.4207 1.49181,6.4e-4 2.41291,-0.78744 3.06572,-1.4207 0.65282,-0.63328 1.10775,-1.34587 1.57026,-1.94412 0.3397,-0.43941 0.64333,-0.68476 0.89727,-0.97206 0.25408,0.28763 0.55759,0.53235 0.89729,0.97206 0.46249,0.59866 0.91769,1.31053 1.57026,1.94412 0.65255,0.63357 1.57387,1.42005 3.06572,1.4207 a 2.3939281,2.3939281 0 1 0 0.14955,-4.78552 c 0.0466,0.0191 0.29375,0.0653 0.14954,-0.075 -0.27241,-0.26448 -0.73389,-0.82202 -1.19638,-1.42068 -0.4625,-0.59868 -0.91767,-1.23577 -1.57025,-1.86935 -0.65258,-0.63358 -1.57391,-1.42006 -3.06573,-1.4207 -1.49181,-6.5e-4 -2.41291,0.78744 -3.06571,1.4207 -0.65283,0.63326 -1.10776,1.27108 -1.57025,1.86935 -0.35756,0.46251 -0.63745,0.83217 -0.89729,1.1216 -0.26265,-0.29022 -0.53029,-0.64658 -0.89728,-1.1216 -0.46249,-0.59868 -0.99245,-1.23576 -1.64503,-1.86935 -0.65258,-0.6336 -1.49913,-1.42006 -2.99094,-1.4207 -1.49181,-6.5e-4 -2.41294,0.78744 -3.06572,1.4207 -0.65279,0.63326 -1.18253,1.27108 -1.64502,1.86935 -0.36699,0.47472 -0.63479,0.83174 -0.89729,1.1216 -0.25921,-0.28962 -0.46736,-0.66189 -0.82251,-1.1216 -0.4625,-0.59868 -0.99244,-1.23577 -1.64502,-1.86935 -0.65258,-0.63358 -1.57389,-1.42006 -3.06573,-1.4207 z"/>
<path id="path5123-0-9" d="m 293.8581,276.1775 c -1.49181,-0.00064 -2.4129,0.78744 -3.06572,1.42071 -0.65282,0.63327 -1.10776,1.27107 -1.57025,1.86933 -0.46251,0.59828 -0.9242,1.15669 -1.19638,1.42071 -0.27218,0.26401 -0.26776,0.0747 0.2991,0.075 a 2.39276,2.39276 0 1,0 0,4.78551 c 1.4918,0.00066 2.41293,-0.78744 3.06572,-1.42068 0.65278,-0.63328 1.10775,-1.34587 1.57025,-1.94413 0.33968,-0.43941 0.64333,-0.68476 0.89728,-0.97206 0.25407,0.28764 0.55758,0.53237 0.89728,0.97206 0.46249,0.59864 0.99244,1.31054 1.64502,1.94413 0.65258,0.63357 1.49914,1.42005 2.99096,1.42068 1.49178,0.00066 2.4129,-0.78744 3.06572,-1.42068 0.65281,-0.63328 1.18253,-1.34587 1.64502,-1.94413 0.35129,-0.45441 0.56465,-0.75795 0.82252,-1.04683 0.26179,0.29014 0.53336,0.57577 0.89728,1.04683 0.4625,0.59864 0.99247,1.31054 1.64502,1.94413 0.65256,0.63357 1.57391,1.42005 3.06572,1.42068 1.49179,0.00066 2.41291,-0.78744 3.06572,-1.42068 0.65282,-0.63328 1.10775,-1.34587 1.57026,-1.94413 0.3397,-0.43941 0.64333,-0.68476 0.89727,-0.97206 0.25534,0.2882 0.55398,0.60245 0.89729,1.04684 0.46249,0.59864 0.91769,1.23576 1.57026,1.86935 0.65255,0.63357 1.57387,1.42005 3.06572,1.42068 a 2.39393,2.39393 0 1,0 0.14955,-4.78551 c 0.0466,0.0191 0.29375,0.0654 0.14954,-0.075 -0.27241,-0.2645 -0.73389,-0.82206 -1.19638,-1.42071 -0.4625,-0.59864 -0.91767,-1.23576 -1.57025,-1.86933 -0.65258,-0.63358 -1.57391,-1.42005 -3.06573,-1.42071 -1.49181,-0.00064 -2.41291,0.78744 -3.06571,1.42071 -0.65283,0.63327 -1.10776,1.27107 -1.57025,1.86933 -0.35756,0.4625 -0.63745,0.83218 -0.89729,1.12161 -0.26265,-0.29021 -0.53029,-0.64657 -0.89728,-1.12161 -0.46249,-0.59864 -0.99245,-1.23576 -1.64503,-1.86933 -0.65258,-0.63358 -1.49913,-1.42005 -2.99094,-1.42071 -1.49181,-0.00064 -2.41292,0.78744 -3.06572,1.42071 -0.65282,0.63327 -1.18253,1.27107 -1.64502,1.86933 -0.36699,0.47473 -0.63479,0.83176 -0.89729,1.12161 -0.25921,-0.28959 -0.46736,-0.66188 -0.82251,-1.12161 -0.4625,-0.59864 -0.99244,-1.23576 -1.64502,-1.86933 -0.65258,-0.63358 -1.57392,-1.42005 -3.06573,-1.42071 z "/>
</g>
</g>
</svg>
