<svg width="48" version="1.1" xmlns="http://www.w3.org/2000/svg" height="48" xmlns:xlink="http://www.w3.org/1999/xlink">
<defs id="defs7386">
<linearGradient gradientTransform="matrix(2.7089361,0,0,2.7089361,-375.77793,-502.98465)" xlink:href="#linearGradient3766" id="linearGradient3772" y1="276" x1="231" y2="288" x2="231" gradientUnits="userSpaceOnUse"/>
<linearGradient id="linearGradient7473-2">
<stop offset="0" style="stop-color:#fff;stop-opacity:0" id="stop7475-4"/>
<stop offset="0.39673913" style="stop-color:#fff;stop-opacity:0" id="stop7481-8"/>
<stop offset="0.75" style="stop-color:#fff;stop-opacity:.784" id="stop7483-0"/>
<stop offset="1" style="stop-color:#fff;stop-opacity:0" id="stop7477-1"/>
</linearGradient>
<linearGradient id="linearGradient3766">
<stop offset="0" style="stop-color:#fff" id="stop3768"/>
<stop offset="1" style="stop-color:#bebebe" id="stop3770"/>
</linearGradient>
<radialGradient fx="27.930717" fy="18.124739" cx="27.930717" cy="18.124739" r="9.1923885" id="radialGradient3910" xlink:href="#linearGradient7473-2" gradientUnits="userSpaceOnUse"/>
</defs>
<g id="layer9" transform="translate(-221,-245)">
<g style="fill:#505050" id="g4229" transform="translate(0.0274508,0.99999623)">
<g id="g4231">
<g id="g4233" transform="matrix(1.0995772,0,0,1.0995772,224.57697,271.4333)">
<g id="g4235" transform="translate(-241,-277)">
<path style="font-family:Sans;text-transform:none;text-indent:0;text-align:start;color:#000;text-decoration-line:none;line-height:normal;stroke:none" id="path4237" d="m 249.4375,282.9375 a 0.50005,0.50005 0 0,0 -0.4375,0.53125 v 0.65625 l -.2812,-.125 a 0.503164,0.503164 0 1,0 -0.4375,0.90625 l .7188,.3438 v 1.8125 l -1.6562,-1.0312 .0625,-.875 a 0.502192,0.502192 0 1,0 -1,-0.0937 l -.0312,.4062 -.5938,-.375 a 0.50005,0.50005 0 1,0 -0.5313,0.8437 l .6562,.4062 -.3125,.25 a 0.503164,0.503164 0 1,0 0.59375,0.8125 l .6562,-.5 1.6875,1.0312 -1.7188,1.0625 -.6562,-.4688 a 0.50005,0.50005 0 1,0 -0.59375,0.78125 l .3438,.25 -.6875,.4062 a 0.511823,0.511823 0 1,0 0.53125,0.875 l .625,-.375 .0312,.375 a 0.500976,0.500976 0 1,0 1,-0.0625 l -.0625,-.9062 1.6562,-1.0312 v 1.8125 l -.7187,.3438 a 0.503164,0.503164 0 1,0 0.4375,0.90625 l .2812,-.125 v 0.6875 a 0.50005,0.50005 0 1,0 1,0 v -0.6875 l .2812,.125 a 0.503164,0.503164 0 1,0 0.4375,-0.90625 l -.7188,-.3438 v -1.8125 l 1.6562,1 -.0625,.9375 a 0.500244,0.500244 0 1,0 1,0.0312 l .0312,-.375 .5938,.375 a 0.50005,0.50005 0 1,0 0.53125,-0.84375 l -.6875,-.4062 .3438,-.25 a 0.503164,0.503164 0 1,0 -0.5937,-0.81245 l -.6562,.5 -1.6875,-1.0312 1.6875,-1.0312 .6875,.4688 a 0.50005,0.50005 0 1,0 0.5625,-0.8125 l -.3125,-.2188 .6875,-.4375 a 0.511823,0.511823 0 1,0 -0.53125,-0.875 l -.625,.375 -.0312,-.375 a 0.500976,0.500976 0 1,0 -1,0.0625 l .0625,.9062 -1.6562,1.0312 v -1.8125 l .7188,-.3438 a 0.503175,0.503175 0 1,0 -0.43755,-0.90625 l -.2812,.125 v -0.65625 a 0.50005,0.50005 0 0,0 -0.5625,-0.53125 z "/>
</g>
</g>
<g id="g4253" transform="matrix(1.0953512,0,0,1.0953512,246.73037,271.50081)">
<g id="g4255" transform="translate(-241,-277)">
<path style="font-family:Sans;text-transform:none;text-indent:0;text-align:start;color:#000;text-decoration-line:none;line-height:normal;stroke:none" id="path4257" d="m 249.4375,282.9375 a 0.50005,0.50005 0 0,0 -0.4375,0.53125 v 0.65625 l -.2812,-.125 a 0.503164,0.503164 0 1,0 -0.4375,0.90625 l .7188,.3438 v 1.8125 l -1.6562,-1.0312 .0625,-.875 a 0.502192,0.502192 0 1,0 -1,-0.0937 l -.0312,.4062 -.5938,-.375 a 0.50005,0.50005 0 1,0 -0.5313,0.8437 l .6562,.4062 -.3125,.25 a 0.503164,0.503164 0 1,0 0.59375,0.8125 l .6562,-.5 1.6875,1.0312 -1.7188,1.0625 -.6562,-.4688 a 0.50005,0.50005 0 1,0 -0.59375,0.78125 l .3438,.25 -.6875,.4062 a 0.511823,0.511823 0 1,0 0.53125,0.875 l .625,-.375 .0312,.375 a 0.500976,0.500976 0 1,0 1,-0.0625 l -.0625,-.9062 1.6562,-1.0312 v 1.8125 l -.7187,.3438 a 0.503164,0.503164 0 1,0 0.4375,0.90625 l .2812,-.125 v 0.6875 a 0.50005,0.50005 0 1,0 1,0 v -0.6875 l .2812,.125 a 0.503164,0.503164 0 1,0 0.4375,-0.90625 l -.7188,-.3438 v -1.8125 l 1.6562,1 -.0625,.9375 a 0.500244,0.500244 0 1,0 1,0.0312 l .0312,-.375 .5938,.375 a 0.50005,0.50005 0 1,0 0.53125,-0.84375 l -.6875,-.4062 .3438,-.25 a 0.503164,0.503164 0 1,0 -0.5937,-0.81245 l -.6562,.5 -1.6875,-1.0312 1.6875,-1.0312 .6875,.4688 a 0.50005,0.50005 0 1,0 0.5625,-0.8125 l -.3125,-.2188 .6875,-.4375 a 0.511823,0.511823 0 1,0 -0.53125,-0.875 l -.625,.375 -.0312,-.375 a 0.500976,0.500976 0 1,0 -1,0.0625 l .0625,.9062 -1.6562,1.0312 v -1.8125 l .7188,-.3438 a 0.503175,0.503175 0 1,0 -0.43755,-0.90625 l -.2812,.125 v -0.65625 a 0.50005,0.50005 0 0,0 -0.5625,-0.53125 z "/>
</g>
</g>
</g>
</g>
<path style="fill:url(#linearGradient3772);stroke:none;color:#000;stroke-width:2.4" id="path5094-5-04-4-6-4" d="m 248.5381,247.3906 c -3.4488,0 -6.25019,2.63582 -6.63213,6.01046 -0.87783,-0.33071 -1.77819,-0.5926 -2.77039,-0.5926 -4.45103,0 -8.05931,3.6385 -8.05931,8.12682 0,0.26602 0.059,0.50251 0.0838,0.76188 -0.80498,-0.48555 -1.76369,-0.76188 -2.77013,-0.76188 -2.96736,0 -5.3729,2.42566 -5.3729,5.41788 0,2.9922 2.40554,5.41787 5.3729,5.41787 h 33.5805 c 2.22553,0 4.02965,-1.81925 4.02965,-4.06341 0,-2.24417 -1.80412,-4.06341 -4.02965,-4.06341 -0.55639,0 -1.11297,0.13301 -1.59508,0.33862 0.14141,-0.54703 0.25167,-1.1014 0.25167,-1.69308 0,-3.33026 -2.39991,-6.03602 -5.54078,-6.60303 0.11269,-0.49129 0.16795,-0.99806 0.16795,-1.52378 0,-3.74026 -3.0069,-6.77234 -6.7161,-6.77234 z "/>
<g style="fill:#dcdcdc" id="g3836" transform="translate(0.0274508,0)">
<g id="g3814">
<g id="g3042" transform="matrix(1.0995772,0,0,1.0995772,224.57697,271.4333)">
<g id="layer9-5" transform="translate(-241,-277)">
<path style="font-family:Sans;text-transform:none;text-indent:0;text-align:start;color:#000;line-height:normal;stroke:none" id="path7750" d="m 249.4375,282.9375 a 0.50005,0.50005 0 0,0 -0.4375,0.53125 v 0.65625 l -.2812,-.125 a 0.503164,0.503164 0 1,0 -0.4375,0.90625 l .7188,.3438 v 1.8125 l -1.6562,-1.0312 .0625,-.875 a 0.502192,0.502192 0 1,0 -1,-0.0937 l -.0312,.4062 -.5938,-.375 a 0.50005,0.50005 0 1,0 -0.5313,0.8437 l .6562,.4062 -.3125,.25 a 0.503164,0.503164 0 1,0 0.59375,0.8125 l .6562,-.5 1.6875,1.0312 -1.7188,1.0625 -.6562,-.4688 a 0.50005,0.50005 0 1,0 -0.59375,0.78125 l .3438,.25 -.6875,.4062 a 0.511823,0.511823 0 1,0 0.53125,0.875 l .625,-.375 .0312,.375 a 0.500976,0.500976 0 1,0 1,-0.0625 l -.0625,-.9062 1.6562,-1.0312 v 1.8125 l -.7187,.3438 a 0.503164,0.503164 0 1,0 0.4375,0.90625 l .2812,-.125 v 0.6875 a 0.50005,0.50005 0 1,0 1,0 v -0.6875 l .2812,.125 a 0.503164,0.503164 0 1,0 0.4375,-0.90625 l -.7188,-.3438 v -1.8125 l 1.6562,1 -.0625,.9375 a 0.500244,0.500244 0 1,0 1,0.0312 l .0312,-.375 .5938,.375 a 0.50005,0.50005 0 1,0 0.53125,-0.84375 l -.6875,-.4062 .3438,-.25 a 0.503164,0.503164 0 1,0 -0.5937,-0.81245 l -.6562,.5 -1.6875,-1.0312 1.6875,-1.0312 .6875,.4688 a 0.50005,0.50005 0 1,0 0.5625,-0.8125 l -.3125,-.2188 .6875,-.4375 a 0.511823,0.511823 0 1,0 -0.53125,-0.875 l -.625,.375 -.0312,-.375 a 0.500976,0.500976 0 1,0 -1,0.0625 l .0625,.9062 -1.6562,1.0312 v -1.8125 l .7188,-.3438 a 0.503175,0.503175 0 1,0 -0.43755,-0.90625 l -.2812,.125 v -0.65625 a 0.50005,0.50005 0 0,0 -0.5625,-0.53125 z "/>
</g>
</g>
<g id="g3073" transform="matrix(1.0953512,0,0,1.0953512,246.73037,271.50081)">
<g id="g3075" transform="translate(-241,-277)">
<path style="font-family:Sans;text-transform:none;text-indent:0;text-align:start;color:#000;line-height:normal;stroke:none" id="path3077" d="m 249.4375,282.9375 a 0.50005,0.50005 0 0,0 -0.4375,0.53125 v 0.65625 l -.2812,-.125 a 0.503164,0.503164 0 1,0 -0.4375,0.90625 l .7188,.3438 v 1.8125 l -1.6562,-1.0312 .0625,-.875 a 0.502192,0.502192 0 1,0 -1,-0.0937 l -.0312,.4062 -.5938,-.375 a 0.50005,0.50005 0 1,0 -0.5313,0.8437 l .6562,.4062 -.3125,.25 a 0.503164,0.503164 0 1,0 0.59375,0.8125 l .6562,-.5 1.6875,1.0312 -1.7188,1.0625 -.6562,-.4688 a 0.50005,0.50005 0 1,0 -0.59375,0.78125 l .3438,.25 -.6875,.4062 a 0.511823,0.511823 0 1,0 0.53125,0.875 l .625,-.375 .0312,.375 a 0.500976,0.500976 0 1,0 1,-0.0625 l -.0625,-.9062 1.6562,-1.0312 v 1.8125 l -.7187,.3438 a 0.503164,0.503164 0 1,0 0.4375,0.90625 l .2812,-.125 v 0.6875 a 0.50005,0.50005 0 1,0 1,0 v -0.6875 l .2812,.125 a 0.503164,0.503164 0 1,0 0.4375,-0.90625 l -.7188,-.3438 v -1.8125 l 1.6562,1 -.0625,.9375 a 0.500244,0.500244 0 1,0 1,0.0312 l .0312,-.375 .5938,.375 a 0.50005,0.50005 0 1,0 0.53125,-0.84375 l -.6875,-.4062 .3438,-.25 a 0.503164,0.503164 0 1,0 -0.5937,-0.81245 l -.6562,.5 -1.6875,-1.0312 1.6875,-1.0312 .6875,.4688 a 0.50005,0.50005 0 1,0 0.5625,-0.8125 l -.3125,-.2188 .6875,-.4375 a 0.511823,0.511823 0 1,0 -0.53125,-0.875 l -.625,.375 -.0312,-.375 a 0.500976,0.500976 0 1,0 -1,0.0625 l .0625,.9062 -1.6562,1.0312 v -1.8125 l .7188,-.3438 a 0.503175,0.503175 0 1,0 -0.43755,-0.90625 l -.2812,.125 v -0.65625 a 0.50005,0.50005 0 0,0 -0.5625,-0.53125 z "/>
</g>
</g>
</g>
</g>
<g id="g4309" transform="matrix(0.54347827,0,0,0.54347827,243.45652,244.45652)">
<g id="layer9-9" transform="translate(-81,-245)">
<path style="font-family:Sans;text-transform:none;text-indent:0;text-align:start;color:#bebebe;text-decoration-line:none;stroke-width:2.21;line-height:normal;fill:#5b7495;stroke:none" id="path7834" d="m 105,255.5455 c -7.38949,0 -13.4545,6.065 -13.4545,13.4545 0,7.38949 6.06499,13.4545 13.4545,13.4545 7.3895,0 13.4545,-6.06501 13.4545,-13.4545 0,-7.3895 -6.06498,-13.4545 -13.4545,-13.4545 z "/>
<circle cx="27.930717" cy="18.124739" style="opacity:.75;fill:url(#radialGradient3910);stroke:none" id="path6598" r="9.1923885" transform="matrix(2.50207,0,0,2.50207,35.11539,223.65064)"/>
</g>
</g>
</g>
</svg>
