<svg width="48" version="1.1" xmlns="http://www.w3.org/2000/svg" height="48" xmlns:xlink="http://www.w3.org/1999/xlink">
<defs id="defs7386">
<linearGradient id="linearGradient3772-9">
<stop offset="0" style="stop-color:#fff" id="stop3774-5"/>
<stop offset="1" style="stop-color:#c8c8c8" id="stop3776-9"/>
</linearGradient>
<linearGradient gradientTransform="matrix(3.6363637,0,0,3.6363637,-306.72728,-1019.4546)" id="linearGradient5385" xlink:href="#linearGradient3772-9" y1="286" y2="295" x1="91" gradientUnits="userSpaceOnUse" x2="91"/>
</defs>
<path style="fill:#5b7495;color:#bebebe" id="path7834" d="m 24,10.5 c -7.41448,0 -13.5,6.08551 -13.5,13.5 0,7.41448 6.0855,13.5 13.5,13.5 7.41449,0 13.5,-6.08552 13.5,-13.5 0,-7.41449 -6.08549,-13.5 -13.5,-13.5 z"/>
<path style="fill:#9cc7ff" id="path6598" d="M 24,2 C 11.8675,2 2,11.8675 2,24 2,36.1325 11.8675,46 24,46 36.1325,46 46,36.1325 46,24 46,11.8675 36.1325,2 24,2 Z m 0,3 C 34.5112,5 43,13.48882 43,24 43,34.5112 34.51118,43 24,43 13.4888,43 5,34.51118 5,24 5,13.4888 13.48882,5 24,5 Z"/>
<path style="fill:url(#linearGradient5385);color:#000" id="path5094-5-03-1" d="m 22.3636,24.1818 c -5.02076,0 -9.0909,4.07015 -9.0909,9.09091 0,0.79426 0.149454,1.5384 0.340727,2.27273 -0.6524,-0.276 -1.40578,-0.45455 -2.15891,-0.45455 -3.01247,0 -5.45455,2.44208 -5.45455,5.45455 0,3.01247 2.44207,5.45454 5.45455,5.45454 H 40.54542 c 3.01248,0 5.45455,-2.44207 5.45455,-5.45454 0,-3.01247 -2.44207,-5.45455 -5.45455,-5.45455 0,-4.01662 -3.25611,-7.27272 -7.27272,-7.27272 -1.14808,0 -2.21629,0.32181 -3.18182,0.79545 C 28.5016,25.96711 25.67539,24.1818 22.3636,24.1818 Z"/>
</svg>
