<svg width="48" version="1.1" xmlns="http://www.w3.org/2000/svg" height="48" xmlns:xlink="http://www.w3.org/1999/xlink">
<defs>
<linearGradient id="linearGradient3772-9">
<stop offset="0" style="stop-color:#fff"/>
<stop offset="1" style="stop-color:#c8c8c8"/>
</linearGradient>
<linearGradient gradientTransform="matrix(3.6363637,0,0,3.6363637,-306.72728,-1019.4546)" id="linearGradient5385" xlink:href="#linearGradient3772-9" y1="286" y2="295" x1="91" gradientUnits="userSpaceOnUse" x2="91"/>
</defs>
<g style="color:#bebebe">
<g style="fill:#766109">
<rect width="5.5" x="1.9974365" y="22.03" rx="1.546875" height="5.5"/>
<rect width="5.5" x="40.497437" y="22.03" rx="1.546875" height="5.5"/>
<rect width="5.5" x="2.78" y="-26.747442" rx="1.546875" height="5.5" transform="rotate(90)"/>
<rect width="5.5" x="-21.44665" y="-37.240871" rx="1.546875" height="5.5" transform="rotate(135)"/>
<rect width="5.5" x="12.490884" y="-2.1966591" rx="1.546875" height="5.5" transform="rotate(45)"/>
<path d="m 23.9856,11.3256 c -7.3895,0 -13.4545,6.06502 -13.4545,13.4545 0,7.3895 6.06499,13.4545 13.4545,13.4545 7.38951,0 13.4545,-6.06501 13.4545,-13.4545 0,-7.38949 -6.06499,-13.4545 -13.4545,-13.4545 z "/>
</g>
<g style="fill:#eec623">
<rect width="5.5" x="1.9974365" y="21.230469" rx="1.546875" height="5.5"/>
<rect width="5.5" x="40.497437" y="21.230469" rx="1.546875" height="5.5"/>
<rect width="5.5" x="1.9804688" y="-26.747437" rx="1.546875" height="5.5" transform="rotate(90)"/>
<rect width="5.5" x="-22.012005" y="-36.67551" rx="1.546875" height="5.5" transform="rotate(135)"/>
<rect width="5.5" x="11.925527" y="-2.762012" rx="1.546875" height="5.5" transform="rotate(45)"/>
<path d="m 23.9856,10.5261 c -7.3895,0 -13.4545,6.06502 -13.4545,13.4545 0,7.3895 6.06499,13.4545 13.4545,13.4545 7.38951,0 13.4545,-6.06501 13.4545,-13.4545 0,-7.38949 -6.06499,-13.4545 -13.4545,-13.4545 z"/>
</g>
</g>
<g style="color:#000">
<path style="opacity:.4" d="m 22.3636,26.1818 c -5.02076,0 -9.09091,4.07015 -9.09091,9.09091 0,0.794255 0.149454,1.5384 0.340727,2.27273 -0.6524,-0.276 -1.40578,-0.454545 -2.15891,-0.454545 -3.01247,0 -5.45455,2.44207 -5.45455,5.45455 0,3.01247 2.44207,5.45455 5.45455,5.45455 h 29.0909 c 3.01247,0 5.45455,-2.44207 5.45455,-5.45455 0,-3.01247 -2.44207,-5.45455 -5.45455,-5.45455 0,-4.01662 -3.25611,-7.27273 -7.27273,-7.27273 -1.14807,0 -2.21629,0.321818 -3.18182,0.795454 -1.58927,-2.64651 -4.41549,-4.43182 -7.72727,-4.43182 z "/>
<path style="fill:url(#linearGradient5385)" d="m 22.3636,24.1818 c -5.02076,0 -9.09091,4.07015 -9.09091,9.09091 0,0.794255 0.149454,1.5384 0.340727,2.27273 -0.6524,-0.276 -1.40578,-0.454545 -2.15891,-0.454545 -3.01247,0 -5.45455,2.44207 -5.45455,5.45455 0,3.01247 2.44207,5.45455 5.45455,5.45455 h 29.0909 c 3.01247,0 5.45455,-2.44207 5.45455,-5.45455 0,-3.01247 -2.44207,-5.45455 -5.45455,-5.45455 0,-4.01662 -3.25611,-7.27273 -7.27273,-7.27273 -1.14807,0 -2.21629,0.321818 -3.18182,0.795454 -1.58927,-2.64651 -4.41549,-4.43182 -7.72727,-4.43182 z "/>
</g>
</svg>
