<svg width="48" version="1.1" xmlns="http://www.w3.org/2000/svg" height="48">
<g style="color:#bebebe">
<g style="fill:#766109">
<path d="m 23.9882,11.3456 c -7.3895,0 -13.4545,6.06502 -13.4545,13.4545 0,7.3895 6.06499,13.4545 13.4545,13.4545 7.38951,0 13.4545,-6.06501 13.4545,-13.4545 0,-7.38949 -6.06499,-13.4545 -13.4545,-13.4545 z"/>
<rect width="5.5" x="2" y="22.05" rx="1.546875" height="5.5"/>
<rect width="5.5" x="40.5" y="22.05" rx="1.546875" height="5.5"/>
<rect width="5.5" x="2.8" y="-26.75" rx="1.546875" height="5.5" transform="rotate(90)"/>
<rect width="5.5" x="41.3" y="-26.75" rx="1.546875" height="5.5" transform="rotate(90)"/>
<rect width="5.5" x="-21.43432" y="-37.256824" rx="1.546875" height="5.5" transform="rotate(135)"/>
<rect width="5.5" x="17.065678" y="-37.256824" rx="1.546875" height="5.5" transform="rotate(135)"/>
<rect width="5.5" x="12.506835" y="-2.1843295" rx="1.546875" height="5.5" transform="rotate(45)"/>
<rect width="5.5" x="51.006851" y="-2.1843295" rx="1.546875" height="5.5" transform="rotate(45)"/>
</g>
<g style="fill:#eec623">
<path d="m 23.9882,10.5456 c -7.3895,0 -13.4545,6.06502 -13.4545,13.4545 0,7.3895 6.06499,13.4545 13.4545,13.4545 7.38951,0 13.4545,-6.06501 13.4545,-13.4545 0,-7.38949 -6.06499,-13.4545 -13.4545,-13.4545 z"/>
<rect width="5.5" x="2" y="21.25" rx="1.546875" height="5.5"/>
<rect width="5.5" x="40.5" y="21.25" rx="1.546875" height="5.5"/>
<rect width="5.5" x="2" y="-26.75" rx="1.546875" height="5.5" transform="rotate(90)"/>
<rect width="5.5" x="40.5" y="-26.75" rx="1.546875" height="5.5" transform="rotate(90)"/>
<rect width="5.5" x="-22" y="-36.691139" rx="1.546875" height="5.5" transform="rotate(135)"/>
<rect width="5.5" x="16.5" y="-36.691139" rx="1.546875" height="5.5" transform="rotate(135)"/>
<rect width="5.5" x="11.941152" y="-2.750011" rx="1.546875" height="5.5" transform="rotate(45)"/>
<rect width="5.5" x="50.441166" y="-2.750011" rx="1.546875" height="5.5" transform="rotate(45)"/>
</g>
</g>
<path style="opacity:.3;fill:#010304" d="m 28.0298,18.5006 c -0.53533,-0.0039 -1.066,0.09972 -1.56055,0.304687 -1.49443,0.619256 -2.46875,2.07766 -2.46875,3.69531 h 2.01172 c 0,-0.804255 0.483763,-1.52955 1.22656,-1.83789 0.743443,-0.307851 1.59913,-0.137484 2.16797,0.431641 0.569125,0.568838 0.739492,1.42453 0.431641,2.16797 -0.308343,0.742799 -1.03364,1.22684 -1.83789,1.22656 l -10,.0059 c -0.554,0 -1,0.446 -1,1 0,0.554 0.446,1 1,1 l 10,.0059 c 1.61765,0 3.07606,-0.974324 3.69531,-2.46875 0.619196,-1.49478 0.276928,-3.21536 -0.867188,-4.35938 -0.742829,-0.743046 -1.74818,-1.16399 -2.79883,-1.17188 z  m 8,3.0059 c -0.53533,-0.0039 -1.066,0.09972 -1.56055,0.304688 -1.49443,0.619256 -2.46875,2.07766 -2.46875,3.69531 h 2.01172 c 0,-0.804255 0.483763,-1.52955 1.22656,-1.83789 0.743443,-0.307851 1.59913,-0.137485 2.16797,0.43164 0.569125,0.568838 0.739492,1.42453 0.431641,2.16797 -0.308343,0.742799 -1.03364,1.22684 -1.83789,1.22656 l -21,.0059 c -0.554,0 -1.0188,0.494651 -1,1.03828 0.01884,0.54363 0.528548,0.962274 1,0.962142 h 21 c 1.61765,0 3.07556,-0.968904 3.69481,-2.46333 0.619196,-1.49478 0.276928,-3.21536 -0.867188,-4.35938 -0.742829,-0.743046 -1.74818,-1.16399 -2.79883,-1.17188 z  m -8.0312,8.9824 v 0.0059 h -10.998 c -0.554,0 -1,0.446 -1,1 0,0.554 0.446,1 1,1 l 10.998,.0059 c 0.804255,0 1.52955,0.483763 1.83789,1.22656 0.307851,0.743443 0.137484,1.59913 -0.431641,2.16797 -0.568838,0.569125 -1.42453,0.739492 -2.16797,0.431641 -0.742799,-0.308424 -1.22684,-1.03372 -1.22656,-1.83797 h -2.01172 c 0,1.61765 0.974324,3.07606 2.46875,3.69531 1.49478,0.619196 3.21536,0.276929 4.35938,-0.867187 0.743046,-0.742829 1.16399,-1.74818 1.17188,-2.79883 0.0039,-0.53533 -0.09972,-1.066 -0.304688,-1.56055 -0.619256,-1.49443 -2.07766,-2.46875 -3.69531,-2.46875 z "/>
<path style="fill:#187eb2" d="m 28.0298,18 c -0.53533,-0.0039 -1.066,0.09972 -1.56055,0.304687 -1.49443,0.619256 -2.46875,2.07766 -2.46875,3.69531 h 2.01172 c 0,-0.804255 0.483763,-1.52955 1.22656,-1.83789 0.743443,-0.307851 1.59913,-0.137484 2.16797,0.431641 0.569125,0.568838 0.739492,1.42453 0.431641,2.16797 -0.308343,0.742799 -1.03364,1.22684 -1.83789,1.22656 l -10,.0059 c -0.554,0 -1,0.446 -1,1 0,0.554 0.446,1 1,1 l 10,.0059 c 1.61765,0 3.07606,-0.974324 3.69531,-2.46875 0.619196,-1.49478 0.276928,-3.21536 -0.867188,-4.35938 -0.742829,-0.743046 -1.74818,-1.16399 -2.79883,-1.17188 z  m 8,3.0059 c -0.53533,-0.0039 -1.066,0.09972 -1.56055,0.304688 -1.49443,0.619256 -2.46875,2.07766 -2.46875,3.69531 h 2.01172 c 0,-0.804255 0.483763,-1.52955 1.22656,-1.83789 0.743443,-0.307851 1.59913,-0.137485 2.16797,0.43164 0.569125,0.568838 0.739492,1.42453 0.431641,2.16797 -0.308343,0.742799 -1.03364,1.22684 -1.83789,1.22656 l -21,.0059 c -0.554,0 -1.0188,0.494651 -1,1.03828 0.01884,0.54363 0.528548,0.961774 1,0.961642 h 21 c 1.61765,0 3.07606,-0.968404 3.69531,-2.46283 0.619196,-1.49478 0.276928,-3.21536 -0.867188,-4.35938 -0.742829,-0.743046 -1.74818,-1.16399 -2.79883,-1.17188 z  m -8.0312,8.9824 v 0.0059 h -10.998 c -0.554,0 -1,0.446 -1,1 0,0.554 0.446,1 1,1 l 10.998,.0059 c 0.804255,0 1.52955,0.483763 1.83789,1.22656 0.307851,0.743443 0.137484,1.59913 -0.431641,2.16797 -0.568838,0.569125 -1.42453,0.739492 -2.16797,0.431641 -0.742799,-0.308424 -1.22684,-1.03372 -1.22656,-1.83797 h -2.01172 c 0,1.61765 0.974324,3.07606 2.46875,3.69531 1.49478,0.619196 3.21536,0.276929 4.35938,-0.867187 0.743046,-0.742829 1.16399,-1.74818 1.17188,-2.79883 0.0039,-0.53533 -0.09972,-1.066 -0.304688,-1.56055 -0.619256,-1.49443 -2.07766,-2.46875 -3.69531,-2.46875 z "/>
</svg>
