<svg width="48" version="1.1" xmlns="http://www.w3.org/2000/svg" height="48" xmlns:xlink="http://www.w3.org/1999/xlink">
<defs>
<linearGradient id="linearGradient3772-4">
<stop offset="0" style="stop-color:#fff"/>
<stop offset="1" style="stop-color:#c8c8c8"/>
</linearGradient>
<linearGradient gradientTransform="matrix(2,0,0,2,-148,-540)" xlink:href="#linearGradient3772-4" id="linearGradient3084" y1="286" x1="91" y2="295" gradientUnits="userSpaceOnUse" x2="91"/>
<linearGradient gradientTransform="matrix(2,0,0,2,-170,-549)" xlink:href="#linearGradient3772-4" id="linearGradient3080" y1="286" x1="91" y2="295" gradientUnits="userSpaceOnUse" x2="91"/>
</defs>
<path style="fill:#5b7495;color:#bebebe" d="m 24,10.5 c -7.41448,0 -13.5,6.08551 -13.5,13.5 0,7.41448 6.0855,13.5 13.5,13.5 7.41449,0 13.5,-6.08552 13.5,-13.5 0,-7.41449 -6.08549,-13.5 -13.5,-13.5 z"/>
<path style="opacity:.7;fill:#b2d4ff" d="M 24,2 C 11.8675,2 2,11.8675 2,24 2,36.1325 11.8675,46 24,46 36.1325,46 46,36.1325 46,24 46,11.8675 36.1325,2 24,2 Z m 0,3 C 34.5112,5 43,13.48882 43,24 43,34.5112 34.51118,43 24,43 13.4888,43 5,34.51118 5,24 5,13.4888 13.48882,5 24,5 Z"/>
<g style="color:#000">
<path style="opacity:.4" d="m 11,27 c -2.76142,0 -5,2.23858 -5,5 0,0.43684 0.0822,0.84612 0.1874,1.25 C 5.82858,33.0982 5.41422,33 5,33 c -1.65686,0 -3,1.34314 -3,3 0,1.65686 1.34314,3 3,3 h 16 c 1.65686,0 3,-1.34314 3,-3 0,-1.65686 -1.34314,-3 -3,-3 0,-2.20914 -1.79086,-4 -4,-4 -0.63144,0 -1.21896,0.177 -1.75,0.4375 C 14.3759,27.98192 12.82148,27 11,27 Z"/>
<path style="fill:url(#linearGradient3080)" d="m 11,25 c -2.76142,0 -5,2.23858 -5,5 0,0.43684 0.0822,0.84612 0.1874,1.25 C 5.82858,31.0982 5.41422,31 5,31 c -1.65686,0 -3,1.34314 -3,3 0,1.65686 1.34314,3 3,3 h 16 c 1.65686,0 3,-1.34314 3,-3 0,-1.65686 -1.34314,-3 -3,-3 0,-2.20914 -1.79086,-4 -4,-4 -0.63144,0 -1.21896,0.177 -1.75,0.4375 C 14.3759,25.98192 12.82148,25 11,25 Z"/>
<path style="opacity:.4" d="m 33,36 c -2.76142,0 -5,2.23858 -5,5 0,0.43684 0.0822,0.84612 0.1874,1.25 C 27.82858,42.0982 27.41422,42 27,42 c -1.65686,0 -3,1.34314 -3,3 0,1.65686 1.34314,3 3,3 h 16 c 1.65686,0 3,-1.34314 3,-3 0,-1.65686 -1.34314,-3 -3,-3 0,-2.20914 -1.79086,-4 -4,-4 -0.63144,0 -1.21896,0.177 -1.75,0.4375 C 36.3759,36.98192 34.82148,36 33,36 Z"/>
<path style="fill:url(#linearGradient3084)" d="m 33,34 c -2.76142,0 -5,2.23858 -5,5 0,0.43684 0.0822,0.84612 0.1874,1.25 C 27.82858,40.0982 27.41422,40 27,40 c -1.65686,0 -3,1.34314 -3,3 0,1.65686 1.34314,3 3,3 h 16 c 1.65686,0 3,-1.34314 3,-3 0,-1.65686 -1.34314,-3 -3,-3 0,-2.20914 -1.79086,-4 -4,-4 -0.63144,0 -1.21896,0.177 -1.75,0.4375 C 36.3759,34.98192 34.82148,34 33,34 Z"/>
</g>
</svg>
