<svg width="48" version="1.1" xmlns="http://www.w3.org/2000/svg" height="48" xmlns:xlink="http://www.w3.org/1999/xlink">
<defs id="defs7386">
<linearGradient id="linearGradient3772-9">
<stop offset="0" style="stop-color:#fff" id="stop3774-5"/>
<stop offset="1" style="stop-color:#c8c8c8" id="stop3776-9"/>
</linearGradient>
<linearGradient id="linearGradient7473-7">
<stop offset="0" style="stop-color:#fff;stop-opacity:0" id="stop7475-8"/>
<stop offset="0.39673913" style="stop-color:#fff;stop-opacity:0" id="stop7481-0"/>
<stop offset="0.75" style="stop-color:#fff;stop-opacity:.784" id="stop7483-9"/>
<stop offset="1" style="stop-color:#fff;stop-opacity:0" id="stop7477-6"/>
</linearGradient>
<linearGradient gradientTransform="matrix(3.6363637,0,0,3.6363637,-225.72728,-774.45456)" id="linearGradient5385" xlink:href="#linearGradient3772-9" y1="286" y2="295" x1="91" gradientUnits="userSpaceOnUse" x2="91"/>
<radialGradient fx="27.930717" fy="18.124739" cx="27.930717" cy="18.124739" r="9.1923885" id="radialGradient3910-5" xlink:href="#linearGradient7473-7" gradientUnits="userSpaceOnUse"/>
</defs>
<g id="layer9" transform="translate(-81,-245)">
<g id="g4249" transform="translate(80.964038,245.0221)">
<g style="stroke:none" id="layer9-1" transform="translate(-81,-245)">
<path style="font-family:Sans;text-transform:none;text-indent:0;text-align:start;color:#bebebe;text-decoration-line:none;stroke-width:2.21;line-height:normal;fill:#5b7495" id="path7834-8" d="m 105,255.5455 c -7.38949,0 -13.4545,6.065 -13.4545,13.4545 0,7.38949 6.06499,13.4545 13.4545,13.4545 7.3895,0 13.4545,-6.06501 13.4545,-13.4545 0,-7.3895 -6.06498,-13.4545 -13.4545,-13.4545 z "/>
<circle cx="27.930717" cy="18.124739" style="opacity:.75;fill:url(#radialGradient3910-5)" id="path6598-5" r="9.1923885" transform="matrix(2.50207,0,0,2.50207,35.11539,223.65064)"/>
</g>
</g>
<path style="fill:url(#linearGradient5385);stroke:none;color:#000;stroke-width:2.4" id="path5094-5-03-1" d="m 103.3636,269.1818 c -5.02076,0 -9.0909,4.07015 -9.0909,9.09091 0,0.79426 0.149454,1.5384 0.340727,2.27273 -0.6524,-0.276 -1.40578,-0.45455 -2.15891,-0.45455 -3.01247,0 -5.45455,2.44208 -5.45455,5.45455 0,3.01247 2.44207,5.45454 5.45455,5.45454 h 29.0909 c 3.01248,0 5.45455,-2.44207 5.45455,-5.45454 0,-3.01247 -2.44207,-5.45455 -5.45455,-5.45455 0,-4.01662 -3.25611,-7.27272 -7.27272,-7.27272 -1.14808,0 -2.21629,0.32181 -3.18182,0.79545 -1.58928,-2.64651 -4.41549,-4.43182 -7.72728,-4.43182 z "/>
</g>
</svg>
