<svg width="48" version="1.1" xmlns="http://www.w3.org/2000/svg" height="48" xmlns:xlink="http://www.w3.org/1999/xlink">
<defs>
<linearGradient id="linearGradient3766">
<stop offset="0" style="stop-color:#fff"/>
<stop offset="1" style="stop-color:#b4b4b4"/>
</linearGradient>
<linearGradient gradientTransform="matrix(2.7089361,0,0,2.7089361,-596.77793,-747.98465)" xlink:href="#linearGradient3766" id="linearGradient3772" y1="276" x1="231" y2="288" x2="231" gradientUnits="userSpaceOnUse"/>
</defs>
<g style="color:#000">
<path style="opacity:.4" d="m 27.5381,4.3906 c -3.4488,0 -6.25019,2.63582 -6.63213,6.01046 -0.87783,-0.33071 -1.77819,-0.5926 -2.77039,-0.5926 -4.45103,0 -8.05931,3.6385 -8.05931,8.12682 0,0.26602 0.059,0.50251 0.0838,0.76188 -0.80498,-0.48555 -1.76369,-0.76188 -2.77013,-0.76188 -2.96736,0 -5.3729,2.42566 -5.3729,5.41788 0,2.9922 2.40554,5.41787 5.3729,5.41787 h 33.5805 c 2.22553,0 4.02965,-1.81925 4.02965,-4.06341 0,-2.24417 -1.80412,-4.06341 -4.02965,-4.06341 -0.55639,0 -1.11297,0.13301 -1.59508,0.33862 0.14141,-0.54703 0.25167,-1.1014 0.25167,-1.69308 0,-3.33026 -2.4,-6.03602 -5.54078,-6.60303 0.11269,-0.49129 0.16795,-0.99806 0.16795,-1.52378 0,-3.74026 -3.0069,-6.77234 -6.7161,-6.77234 z"/>
<path style="fill:url(#linearGradient3772)" d="m 27.5381,2.3906 c -3.4488,0 -6.25019,2.63582 -6.63213,6.01046 -0.87783,-0.33071 -1.77819,-0.5926 -2.77039,-0.5926 -4.45103,0 -8.05931,3.6385 -8.05931,8.12682 0,0.26602 0.059,0.50251 0.0838,0.76188 -0.80498,-0.48555 -1.76369,-0.76188 -2.77013,-0.76188 -2.96736,0 -5.3729,2.42566 -5.3729,5.41788 0,2.9922 2.40554,5.41787 5.3729,5.41787 h 33.5805 c 2.22553,0 4.02965,-1.81925 4.02965,-4.06341 0,-2.24417 -1.80412,-4.06341 -4.02965,-4.06341 -0.55639,0 -1.11297,0.13301 -1.59508,0.33862 0.14141,-0.54703 0.25167,-1.1014 0.25167,-1.69308 0,-3.33026 -2.4,-6.03602 -5.54078,-6.60303 0.11269,-0.49129 0.16795,-0.99806 0.16795,-1.52378 0,-3.74026 -3.0069,-6.77234 -6.7161,-6.77234 z"/>
<g style="fill:#4290c2">
<path d="m 8.4153,29.48 a 1.34408,1.34408 0 0 0 -1.1005,1.10051 l -2.7089,13.2907 a 1.34408,1.34408 0 1 0 2.62428,0.50792 l 2.7089,-13.2907 A 1.34408,1.34408 0 0 0 8.41529,29.48 Z"/>
<path d="m 13.8332,29.48 a 1.34408,1.34408 0 0 0 -1.1005,1.10051 l -2.7089,13.2907 a 1.34408,1.34408 0 1 0 2.62429,0.50792 l 2.7936,-13.2907 A 1.34408,1.34408 0 0 0 13.83326,29.48 Z"/>
<path d="m 19.2511,29.48 a 1.34408,1.34408 0 0 0 -1.1005,1.10051 l -2.7089,13.2907 a 1.37808,1.37808 0 1 0 2.70894,0.50792 l 2.7089,-13.2907 A 1.34408,1.34408 0 0 0 19.2511,29.48 Z"/>
<path d="m 24.6689,29.48 a 1.34408,1.34408 0 0 0 -1.10051,1.10051 l -2.7089,13.2907 a 1.37807,1.37807 0 1 0 2.70893,0.50792 l 2.7089,-13.2907 A 1.34408,1.34408 0 0 0 24.66889,29.48 Z"/>
<path d="m 30.0868,29.48 a 1.34408,1.34408 0 0 0 -1.01585,1.10051 l -2.7936,13.2907 a 1.37808,1.37808 0 1 0 2.70894,0.50792 l 2.7089,-13.2907 A 1.34408,1.34408 0 0 0 30.08675,29.48 Z"/>
<path d="m 35.5047,29.48 a 1.34408,1.34408 0 0 0 -1.01586,1.10051 l -2.7089,13.2907 a 1.34408,1.34408 0 1 0 2.62429,0.50792 l 2.7089,-13.2907 A 1.34408,1.34408 0 0 0 35.5047,29.48 Z"/>
</g>
</g>
</svg>
