<svg width="48" version="1.1" xmlns="http://www.w3.org/2000/svg" height="48" xmlns:xlink="http://www.w3.org/1999/xlink">
<defs>
<linearGradient id="linearGradient3766">
<stop offset="0" style="stop-color:#fff"/>
<stop offset="1" style="stop-color:#b4b4b4"/>
</linearGradient>
<linearGradient gradientTransform="matrix(2.7089361,0,0,2.7089361,-596.77793,-747.98465)" xlink:href="#linearGradient3766" id="linearGradient3772" y1="276" x1="231" y2="288" x2="231" gradientUnits="userSpaceOnUse"/>
</defs>
<g style="color:#000">
<path style="opacity:.4" d="m 27.5381,4.3906 c -3.4488,0 -6.25019,2.63582 -6.63213,6.01046 -0.87783,-0.33071 -1.77819,-0.5926 -2.77039,-0.5926 -4.45103,0 -8.05931,3.6385 -8.05931,8.12682 0,0.26602 0.059,0.50251 0.0838,0.76188 -0.80498,-0.48555 -1.76369,-0.76188 -2.77013,-0.76188 -2.96736,0 -5.3729,2.42566 -5.3729,5.41788 0,2.9922 2.40554,5.41787 5.3729,5.41787 h 33.5805 c 2.22553,0 4.02965,-1.81925 4.02965,-4.06341 0,-2.24417 -1.80412,-4.06341 -4.02965,-4.06341 -0.55639,0 -1.11297,0.13301 -1.59508,0.33862 0.14141,-0.54703 0.25167,-1.1014 0.25167,-1.69308 0,-3.33026 -2.4,-6.03602 -5.54078,-6.60303 0.11269,-0.49129 0.16795,-0.99806 0.16795,-1.52378 0,-3.74026 -3.0069,-6.77234 -6.7161,-6.77234 z"/>
<path style="fill:#505050" d="m 22.9172,32.6967 a 0.662691,0.662691 0 0,0 -0.579797,0.704039 v 0.869695 l -.3727,-.1657 a 0.666818,0.666818 0 1,0 -0.579797,1.20101 l .9526,.4556 v 2.40202 l -2.1949,-1.3666 .0828,-1.1596 a 0.66553,0.66553 0 1,0 -1.32525,-0.124176 l -.0414,.5383 -.7869,-.497 a 0.662691,0.662691 0 1,0 -0.704106,1.11811 l .8696,.5383 -.4141,.3313 a 0.666818,0.666818 0 1,0 0.786867,1.07677 l .8696,-.6626 2.2364,1.3666 -2.2778,1.4081 -.8696,-.6213 a 0.662691,0.662691 0 1,0 -0.786867,1.03535 l .4556,.3313 -.9111,.5383 a 0.678294,0.678294 0 1,0 0.704039,1.15959 l .8283,-.497 .0414,.497 a 0.663918,0.663918 0 1,0 1.32525,-0.08283 l -.0828,-1.2009 2.1949,-1.3666 v 2.40201 l -.9525,.4556 a 0.666818,0.666818 0 1,0 0.579797,1.20101 l .3727,-.1657 v 0.91111 a 0.662691,0.662691 0 1,0 1.32525,0 v -0.91111 l .3727,.1657 a 0.666818,0.666818 0 1,0 0.579797,-1.20101 l -.9526,-.4556 v -2.40201 l 2.1949,1.3252 -.0828,1.2424 a 0.662948,0.662948 0 1,0 1.32525,0.04135 l .0414,-.497 .7869,.497 a 0.662691,0.662691 0 1,0 0.704039,-1.11818 l -.9111,-.5383 .4556,-.3313 a 0.666818,0.666818 0 1,0 -0.786801,-1.0767 l -.8696,.6626 -2.2364,-1.3666 2.2364,-1.3666 .9111,.6213 a 0.662691,0.662691 0 1,0 0.745453,-1.07677 l -.4141,-.29 .9111,-.5798 a 0.678294,0.678294 0 1,0 -0.704039,-1.15959 l -.8283,.497 -.0414,-.497 a 0.663918,0.663918 0 1,0 -1.32525,0.08283 l .0828,1.2009 -2.1949,1.3666 v -2.40201 l .9526,-.4556 a 0.666833,0.666833 0 1,0 -0.579863,-1.20101 l -.3727,.1657 v -0.869696 a 0.662691,0.662691 0 0,0 -0.745454,-0.704039 z "/>
<path style="fill:url(#linearGradient3772)" d="m 27.5381,2.3906 c -3.4488,0 -6.25019,2.63582 -6.63213,6.01046 -0.87783,-0.33071 -1.77819,-0.5926 -2.77039,-0.5926 -4.45103,0 -8.05931,3.6385 -8.05931,8.12682 0,0.26602 0.059,0.50251 0.0838,0.76188 -0.80498,-0.48555 -1.76369,-0.76188 -2.77013,-0.76188 -2.96736,0 -5.3729,2.42566 -5.3729,5.41788 0,2.9922 2.40554,5.41787 5.3729,5.41787 h 33.5805 c 2.22553,0 4.02965,-1.81925 4.02965,-4.06341 0,-2.24417 -1.80412,-4.06341 -4.02965,-4.06341 -0.55639,0 -1.11297,0.13301 -1.59508,0.33862 0.14141,-0.54703 0.25167,-1.1014 0.25167,-1.69308 0,-3.33026 -2.4,-6.03602 -5.54078,-6.60303 0.11269,-0.49129 0.16795,-0.99806 0.16795,-1.52378 0,-3.74026 -3.0069,-6.77234 -6.7161,-6.77234 z"/>
<g style="fill:#4290c2">
<path d="m 13.8332,29.48 a 1.34408,1.34408 0 0 0 -1.1005,1.10051 l -2.7089,13.2907 a 1.34408,1.34408 0 1 0 2.62429,0.50792 l 2.7936,-13.2907 A 1.34408,1.34408 0 0 0 13.83326,29.48 Z"/>
<path d="m 35.5047,29.48 a 1.34408,1.34408 0 0 0 -1.01586,1.10051 l -2.7089,13.2907 a 1.34408,1.34408 0 1 0 2.62429,0.50792 l 2.7089,-13.2907 A 1.34408,1.34408 0 0 0 35.5047,29.48 Z"/>
</g>
<path style="fill:#dcdcdc" d="m 22.9172,31.6966 a 0.662691,0.662691 0 0,0 -0.579797,0.704039 v 0.869695 l -.3727,-.1657 a 0.666818,0.666818 0 1,0 -0.579797,1.20101 l .9526,.4556 v 2.40202 l -2.1949,-1.3666 .0828,-1.1596 a 0.66553,0.66553 0 1,0 -1.32525,-0.124176 l -.0414,.5383 -.7869,-.497 a 0.662691,0.662691 0 1,0 -0.704106,1.11811 l .8696,.5383 -.4141,.3313 a 0.666818,0.666818 0 1,0 0.786867,1.07677 l .8696,-.6626 2.2364,1.3666 -2.2778,1.4081 -.8696,-.6213 a 0.662691,0.662691 0 1,0 -0.786867,1.03535 l .4556,.3313 -.9111,.5383 a 0.678294,0.678294 0 1,0 0.704039,1.15959 l .8283,-.497 .0414,.497 a 0.663918,0.663918 0 1,0 1.32525,-0.08283 l -.0828,-1.2009 2.1949,-1.3666 v 2.40201 l -.9525,.4556 a 0.666818,0.666818 0 1,0 0.579797,1.20101 l .3727,-.1657 v 0.91111 a 0.662691,0.662691 0 1,0 1.32525,0 v -0.91111 l .3727,.1657 a 0.666818,0.666818 0 1,0 0.579797,-1.20101 l -.9526,-.4556 v -2.40201 l 2.1949,1.3252 -.0828,1.2424 a 0.662948,0.662948 0 1,0 1.32525,0.04135 l .0414,-.497 .7869,.497 a 0.662691,0.662691 0 1,0 0.704039,-1.11818 l -.9111,-.5383 .4556,-.3313 a 0.666818,0.666818 0 1,0 -0.786801,-1.0767 l -.8696,.6626 -2.2364,-1.3666 2.2364,-1.3666 .9111,.6213 a 0.662691,0.662691 0 1,0 0.745453,-1.07677 l -.4141,-.29 .9111,-.5798 a 0.678294,0.678294 0 1,0 -0.704039,-1.15959 l -.8283,.497 -.0414,-.497 a 0.663918,0.663918 0 1,0 -1.32525,0.08283 l .0828,1.2009 -2.1949,1.3666 v -2.40201 l .9526,-.4556 a 0.666833,0.666833 0 1,0 -0.579863,-1.20101 l -.3727,.1657 v -0.869696 a 0.662691,0.662691 0 0,0 -0.745454,-0.704039 z "/>
</g>
</svg>
