<svg width="48" version="1.1" xmlns="http://www.w3.org/2000/svg" height="48" xmlns:xlink="http://www.w3.org/1999/xlink">
<defs id="defs7386">
<linearGradient id="linearGradient5385" xlink:href="#linearGradient3772-9" y1="286" y2="295" x1="91" gradientUnits="userSpaceOnUse" x2="91"/>
<linearGradient id="linearGradient3772-9">
<stop offset="0" style="stop-color:#fff" id="stop3774-5"/>
<stop offset="1" style="stop-color:#c8c8c8" id="stop3776-9"/>
</linearGradient>
</defs>
<g style="fill:#eec623;color:#bebebe" id="g15" transform="translate(-81,-245)">
<g style="stroke-width:2" id="g12">
<rect width="5.5" x="82.997437" y="266.23047" rx="1.546875" height="5.5" id="rect4906-43-1"/>
<rect width="5.5" x="121.49744" y="266.23047" rx="1.546875" height="5.5" id="rect4906-4-6-8"/>
<rect width="5.5" x="246.98047" y="-107.74744" rx="1.546875" height="5.5" id="rect4107-1" transform="rotate(90)"/>
<rect width="5.5" x="93.953506" y="-267.19232" rx="1.546875" height="5.5" id="rect4101-0" transform="rotate(135)"/>
<rect width="5.5" x="242.44234" y="113.2035" rx="1.546875" height="5.5" id="rect4095-0" transform="rotate(45)"/>
</g>
<path style="line-height:normal;stroke-width:2.21" id="path7834-9" d="m 104.9856,255.5261 c -7.3895,0 -13.4545,6.06502 -13.4545,13.4545 0,7.3895 6.06499,13.4545 13.4545,13.4545 7.38951,0 13.4545,-6.06501 13.4545,-13.4545 0,-7.38949 -6.06499,-13.4545 -13.4545,-13.4545 z"/>
</g>
<g style="opacity:.29" id="g855" transform="matrix(3.6363637,0,0,3.6363637,-12.181818,-10.18182)">
<g id="g853" transform="translate(-81,-277)">
<path style="color:#000" id="path851" d="m 90.5,287 c -1.38071,0 -2.5,1.11929 -2.5,2.5 0,0.21842 0.0411,0.42306 0.0937,0.625 C 87.91429,290.0491 87.70711,290 87.5,290 c -0.82843,0 -1.5,0.67157 -1.5,1.5 0,0.82843 0.67157,1.5 1.5,1.5 h 8 c 0.82843,0 1.5,-0.67157 1.5,-1.5 0,-0.82843 -0.67157,-1.5 -1.5,-1.5 0,-1.10457 -0.89543,-2 -2,-2 -0.31572,0 -0.60948,0.0885 -0.875,0.21875 C 92.18795,287.49096 91.41074,287 90.5,287 Z"/>
</g>
</g>
<g id="g3057" transform="matrix(3.6363637,0,0,3.6363637,-12.181818,-12.18182)">
<g id="layer9-0" transform="translate(-81,-277)">
<path style="fill:url(#linearGradient5385);color:#000" id="path5094-5-03-1" d="m 90.5,287 c -1.38071,0 -2.5,1.11929 -2.5,2.5 0,0.21842 0.0411,0.42306 0.0937,0.625 C 87.91429,290.0491 87.70711,290 87.5,290 c -0.82843,0 -1.5,0.67157 -1.5,1.5 0,0.82843 0.67157,1.5 1.5,1.5 h 8 c 0.82843,0 1.5,-0.67157 1.5,-1.5 0,-0.82843 -0.67157,-1.5 -1.5,-1.5 0,-1.10457 -0.89543,-2 -2,-2 -0.31572,0 -0.60948,0.0885 -0.875,0.21875 C 92.18795,287.49096 91.41074,287 90.5,287 Z"/>
</g>
</g>
</svg>
