<svg width="48" version="1.1" xmlns="http://www.w3.org/2000/svg" height="48" xmlns:xlink="http://www.w3.org/1999/xlink">
<defs id="defs7386"/>
<path style="fill:#5b7495;color:#bebebe" id="path7834" d="m 24,10.5 c -7.41448,0 -13.5,6.08551 -13.5,13.5 0,7.41448 6.0855,13.5 13.5,13.5 7.41449,0 13.5,-6.08552 13.5,-13.5 0,-7.41449 -6.08549,-13.5 -13.5,-13.5 z"/>
<path style="opacity:.7;fill:#b2d4ff" id="path6598" d="m 24,2 c -12.1325,0 -22,9.8675 -22,22 0,12.1325 9.8675,22 22,22 12.1325,0 22,-9.8675 22,-22 0,-12.1325 -9.8675,-22 -22,-22 Z  m 0,3 c 10.5112,0 19,8.48882 19,19 0,10.5112 -8.48882,19 -19,19 -10.5112,0 -19,-8.48882 -19,-19 0,-10.5112 8.48882,-19 19,-19 Z "/>
</svg>
