<svg width="48" version="1.1" xmlns="http://www.w3.org/2000/svg" height="48" xmlns:xlink="http://www.w3.org/1999/xlink">
<defs id="defs7386">
<linearGradient id="linearGradient7473">
<stop offset="0" style="stop-color:#fff;stop-opacity:0" id="stop7475"/>
<stop offset="0.39673913" style="stop-color:#fff;stop-opacity:0" id="stop7481"/>
<stop offset="0.75" style="stop-color:#fff;stop-opacity:.784" id="stop7483"/>
<stop offset="1" style="stop-color:#fff;stop-opacity:0" id="stop7477"/>
</linearGradient>
<radialGradient fx="27.930717" fy="18.124739" cx="27.930717" cy="18.124739" xlink:href="#linearGradient7473" id="radialGradient3910" r="9.1923885" gradientUnits="userSpaceOnUse"/>
</defs>
<g style="stroke:none" id="layer9" transform="translate(-81,-245)">
<path style="font-family:Sans;text-transform:none;text-indent:0;text-align:start;color:#bebebe;stroke-width:2.21;line-height:normal;fill:#5b7495" id="path7834" d="m 105,255.5455 c -7.38949,0 -13.4545,6.065 -13.4545,13.4545 0,7.38949 6.06499,13.4545 13.4545,13.4545 7.3895,0 13.4545,-6.06501 13.4545,-13.4545 0,-7.3895 -6.06498,-13.4545 -13.4545,-13.4545 z "/>
<circle style="fill:url(#radialGradient3910)" id="path6598" d="m 37.123106,18.124739 a 9.1923885,9.1923885 0 0 1 -9.192389,9.192388 9.1923885,9.1923885 0 0 1 -9.192388,-9.192388 9.1923885,9.1923885 0 0 1 9.192388,-9.1923888 9.1923885,9.1923885 0 0 1 9.192389,9.1923888 z" transform="matrix(2.50207,0,0,2.50207,35.11539,223.65064)"/>
</g>
</svg>
