<svg width="48" version="1.1" xmlns="http://www.w3.org/2000/svg" height="48" xmlns:xlink="http://www.w3.org/1999/xlink">
<defs id="defs7386">
<linearGradient gradientTransform="matrix(2.7641981,0,0,2.7641981,-719.63045,-763.81445)" xlink:href="#linearGradient3761" id="linearGradient3767" y1="276" x1="271" y2="288" x2="271" gradientUnits="userSpaceOnUse"/>
<linearGradient id="linearGradient3761">
<stop offset="0" style="stop-color:#fff" id="stop3763"/>
<stop offset="1" style="stop-color:#bebebe" id="stop3765"/>
</linearGradient>
</defs>
<g style="color:#000;line-height:normal">
<path style="fill:#505050" id="path4187" d="m 26.062,22.0451 c -0.63388,0.12018 -1.13508,0.73704 -1.12295,1.3821 v 6.91049 h -8.20621 v 5.52839 h -4.75097 c 0,0 -3.8119,4.08177 -5.87392,5.9603 -0.61269,0.55817 -0.83498,1.56322 -0.24891,2.14929 0.58606,0.58607 1.56322,0.33718 2.14929,-0.24889 l 5.0965,-5.0965 h 3.62801 v 6.91051 c 0,0.72367 0.65843,1.3821 1.3821,1.3821 0.72367,0 1.3821,-0.65843 1.3821,-1.3821 v -8.11983 c 0.0145,-0.11457 0.0145,-0.23097 0,-0.34554 V 33.1019 h 5.44201 v 1.98676 l 5.5284,5.442 v 5.01011 c 0.002,0.72254 0.65955,1.37873 1.38209,1.37873 0.72255,0 1.38034,-0.65619 1.3821,-1.37873 v -4.14631 h 3.62801 l 5.0101,5.0965 c 0.53584,0.54508 1.48135,0.66575 2.03371,0.1374 0.55236,-0.52834 0.48714,-1.49097 -0.0469,-2.0378 -1.94688,-1.9935 -5.87393,-5.96031 -5.87393,-5.96031 h -5.61478 l -4.6646,-4.7509 c 0.0558,-3.4872 0,-6.91429 0,-10.4521 0.0159,-0.81908 -0.83682,-1.53712 -1.64125,-1.3821 z"/>
<path style="fill:url(#linearGradient3767)" id="path5094-5-04-4-6-4-1-4" d="m 28.1115,1.9888 c -3.51885,0 -6.37711,2.68985 -6.76681,6.13362 C 20.44906,7.78494 19.53041,7.5177 18.51808,7.5177 c -4.54142,0 -8.22297,3.71309 -8.22297,8.29336 0,0.27145 0.0606,0.51282 0.0854,0.77751 -0.82122,-0.4955 -1.79955,-0.77751 -2.82642,-0.77751 -3.02764,0 -5.48199,2.4754 -5.48199,5.52893 0,3.05352 2.45435,5.52891 5.48199,5.52891 h 13.7905 v -4.14667 c -0.0451,-2.17129 1.87299,-4.1881 4.02584,-4.2331 2.20991,-0.0468 4.24343,2.00424 4.19713,4.2331 v 4.14667 h 12.2488 c 2.27067,0 4.11143,-1.85651 4.11143,-4.14667 0,-2.29018 -1.84076,-4.14669 -4.11143,-4.14669 -0.56771,0 -1.13559,0.13571 -1.62751,0.34555 0.14401,-0.55826 0.2568,-1.12397 0.2568,-1.72779 0,-3.3985 -2.44864,-6.15974 -5.65328,-6.73837 0.11498,-0.50135 0.17137,-1.01849 0.17137,-1.555 0,-3.81691 -3.06798,-6.91113 -6.85248,-6.91113 z"/>
<path style="fill:#dcdcdc" id="path1891-5-8-3" d="m 25.0618,21.0451 c -0.63388,0.12018 -1.13508,0.73704 -1.12295,1.3821 v 6.91049 h -8.20621 v 5.52839 h -4.75097 c 0,0 -3.8119,4.08177 -5.87392,5.9603 -0.61269,0.55817 -0.83498,1.56322 -0.24891,2.14929 0.58606,0.58607 1.56322,0.33718 2.14929,-0.24889 l 5.0965,-5.0965 h 3.62801 v 6.91051 c 0,0.72367 0.65843,1.3821 1.3821,1.3821 0.72367,0 1.3821,-0.65843 1.3821,-1.3821 v -8.11983 c 0.0145,-0.11457 0.0145,-0.23097 0,-0.34554 V 32.1019 h 5.44201 v 1.98676 l 5.5284,5.442 v 5.01011 c 0.002,0.72254 0.65955,1.37873 1.38209,1.37873 0.72255,0 1.38034,-0.65619 1.3821,-1.37873 v -4.14631 h 3.62801 l 5.0101,5.0965 c 0.53584,0.54508 1.48135,0.66575 2.03371,0.1374 0.55236,-0.52834 0.48714,-1.49097 -0.0469,-2.0378 -1.94688,-1.9935 -5.87393,-5.96031 -5.87393,-5.96031 h -5.61478 l -4.6646,-4.7509 c 0.0558,-3.4872 0,-6.91429 0,-10.4521 0.0159,-0.81908 -0.83682,-1.53712 -1.64125,-1.3821 z"/>
</g>
<g style="stroke-width:.545">
<path style="fill:#5b7495;color:#bebebe" id="path7834" d="m 35.5,5.1364 c -4.04426,0 -7.36364,3.31937 -7.36364,7.36364 0,4.04426 3.31936,7.36364 7.36364,7.36364 4.04427,0 7.36364,-3.31938 7.36364,-7.36364 0,-4.04427 -3.31936,-7.36364 -7.36364,-7.36364 z "/>
<path style="opacity:.7;fill:#b2d4ff" id="path2023" d="m 35.5,.5 c -6.61451,-1.1e-07 -12,5.3855 -12,12 0,2.18755 0.591411,4.23946 1.61914,6.00781 0.083839,-0.007762 0.167286,-0.017761 0.251953,-0.019531 2.20991,-0.0468 4.24357,2.00551 4.19727,4.23438 v 0.201172 c 1.7511,1.0007 3.77531,1.57617 5.93164,1.57617 6.61451,0 12,-5.3855 12,-12 0,-6.61451 -5.3855,-12 -12,-12 z  m 0,2.1816 c 5.43536,0 9.81836,4.383 9.81836,9.81836 0,5.43536 -4.383,9.81836 -9.81836,9.81836 -5.43536,0 -9.81836,-4.383 -9.81836,-9.81836 0,-5.43536 4.383,-9.81836 9.81836,-9.81836 z "/>
</g>
</svg>
