<svg width="48" version="1.1" xmlns="http://www.w3.org/2000/svg" height="48" xmlns:xlink="http://www.w3.org/1999/xlink">
<defs id="defs3">
<linearGradient id="linearGradient14861">
<stop offset="0" style="stop-color:#fff" id="stop14863"/>
<stop offset="1" style="stop-color:#fff;stop-opacity:0" id="stop14865"/>
</linearGradient>
<linearGradient id="linearGradient14981">
<stop offset="0" style="stop-color:#788600" id="stop14983"/>
<stop offset="1" style="stop-color:#505900" id="stop14985"/>
</linearGradient>
<linearGradient gradientTransform="matrix(1.0824496,0,0,1.0824496,-1.1745453,-3.5620867)" xlink:href="#linearGradient14981" id="linearGradient14987" y1="22.747095" x1="20.046677" y2="49.79393" x2="39.002876" gradientUnits="userSpaceOnUse"/>
<linearGradient gradientTransform="matrix(1.0118111,0,0,1.2441243,-0.61302132,-7.7399211)" xlink:href="#linearGradient14861" id="linearGradient14867" y1="20.165941" x1="16.964844" y2="31.347067" x2="18.968426" gradientUnits="userSpaceOnUse"/>
</defs>
<g style="color:#000" id="g77">
<g style="stroke-linejoin:round;stroke-linecap:round" id="g51">
<g style="fill:#a0a0a0;stroke:none" id="g53">
<rect width="4.7360778" x="39.844307" y="19.507889" height="3.9684026" id="rect15011"/>
<rect width="4.7360778" x="39.844307" y="26.458069" height="3.9684026" id="rect4743"/>
</g>
<g style="fill:none" id="g112">
<path style="stroke:#a0a0a0;stroke-width:3" id="path15001" d="m 41.5,45.9581 v -38.5 h 5"/>
<path style="stroke:none" id="path15003" d="m 41.5,45.9581 0,-38.5 5.5,0"/>
</g>
</g>
<path style="fill:url(#linearGradient14987);stroke:none" id="rect14772" d="m .4502,11.192 .0042,28.9226 c 0,0.08538 0.0961237,0.162591 0.202181,0.162591 l 11.703,.0169 -.0042,5.2535 c 0,0.07715 0.02425,0.136751 0.134529,0.137222 l 20.3021,-.0084 c 0.10004,-0.004 0.134528,-0.069 0.134528,-0.137222 l .0042,-5.2703 7.4499,.0084 c 0.10148,0 0.12561,-0.141009 0.121843,-0.230244 v -28.855 c 0.0042,-0.08879 -0.04926,-0.13205 -0.138756,-0.137221 h -39.7789 c -0.0849149,0.0047 -0.142985,0.05688 -0.134528,0.137221 z "/>
<g style="fill:none;stroke:#98a332" id="g59" transform="matrix(1.0824496,0,0,1.0824496,-3.3394445,-2.4342479)">
<path id="path14957" d="m 27,22.4303 .0644,.5309 2.4244,1.8922 0,4.6038 -17.059,0 0,3.9333"/>
<path id="path14826" d="m 17.5044,41.9191 .0548,-5.645 1.901,-2.7914 14.0094,0 2.0442,-2.0245 .0442,-3.0336 -8.0431,-5.9613 8.1101,.047 -.1875,-3.9897 -7.4375,0"/>
<g id="g14850" transform="translate(2,-1.0419319)">
<path id="path14842" d="m 19.5,42.961 .0548,-5.7807 1.901,-2.6665"/>
<path id="path14844" d="m 22.5,42.961 .0548,-5.7807 1.901,-2.6665"/>
<path id="path14846" d="m 25.5442,42.961 .0548,-5.7807 1.901,-2.6665"/>
<path id="path14848" d="m 28.5,42.961 .0548,-5.7807 1.901,-2.6665"/>
</g>
</g>
<g style="fill:#ebff39;stroke:none" id="g32">
<path id="path14796" d="m 16.1362,39.2814 c 0.865605,0 1.07399,0.681132 1.07399,0.98097 v 4.78426 c 0,0 -2.14799,0 -2.14799,0 v -4.78426 c 0,-0.299838 0.225303,-0.98097 1.07399,-0.98097 z "/>
<path id="path14800" d="m 19.3836,39.2814 c 0.865605,0 1.07399,0.681132 1.07399,0.98097 v 4.78426 c 0,0 -2.14799,0 -2.14799,0 v -4.78426 c 0,-0.299838 0.225302,-0.98097 1.07399,-0.98097 z "/>
<path id="path14804" d="m 22.6478,39.2814 c 0.865605,0 1.07399,0.681132 1.07399,0.98097 v 4.78426 c 0,0 -2.14799,0 -2.14799,0 v -4.78426 c 0,-0.299838 0.225302,-0.98097 1.07399,-0.98097 z "/>
<path id="path14808" d="m 25.8951,39.2814 c 0.865604,0 1.07399,0.681132 1.07399,0.98097 v 4.78426 c 0,0 -2.14799,0 -2.14799,0 v -4.78426 c 0,-0.299838 0.225302,-0.98097 1.07399,-0.98097 z "/>
<path id="path14812" d="m 29.1425,39.2814 c 0.865604,0 1.07399,0.681132 1.07399,0.98097 v 4.78426 c 0,0 -2.14799,0 -2.14799,0 v -4.78426 c 0,-0.299838 0.225302,-0.98097 1.07399,-0.98097 z "/>
</g>
<g style="stroke-width:1.082" id="g37">
<path style="fill:none;stroke:#98a332" id="path15029" d="m 4.6774,17.3428 -2.0296,1.3531 0,2.0296 0,10.8921 7.5771,.0677"/>
<rect width="17.379322" x="6.9137559" y="15.384589" rx="1.019604" ry="1.0196042" height="8.5843182" style="fill:#555753;stroke:#2e3436" id="rect14857"/>
<rect width="15.27989" x="7.9360056" y="16.474947" rx="0" height="6.3666973" ry="0" style="opacity:.17;fill:none;stroke:url(#linearGradient14867)" id="rect14859"/>
</g>
<rect width="3.2473488" x="4.2377028" y="17.004457" height="1.0824496" style="fill:#c8c8c8;stroke:none" id="rect14869"/>
<path style="fill:none;stroke:#98a332;stroke-width:1.082" id="path15031" d="m 4.9311,19.7106 -2.3002,1.1501 0,2.6385"/>
<rect width="3.2473488" x="4.2377028" y="19.169355" height="1.0824496" style="fill:#c8c8c8;stroke:none" id="rect14871"/>
<path style="fill:none;stroke:#98a332;stroke-width:1.082" id="path15033" d="m 4.7789,21.9432 -2.1649,1.556"/>
<g style="fill:#c8c8c8;stroke:none" id="g54">
<rect width="3.2473488" x="4.2377028" y="21.334255" height="1.0824496" id="rect14873"/>
<rect width="3.2473488" x="23.721796" y="17.004457" height="1.0824496" id="rect14875"/>
<rect width="3.2473488" x="23.721796" y="19.169355" height="1.0824496" id="rect14877"/>
<rect width="3.2473488" x="23.721796" y="21.334255" height="1.0824496" id="rect14879"/>
<rect width="3.2473488" x="12.674657" y="-9.649951" height="1.0824496" id="rect14901" transform="matrix(0,1,-1,0,0,0)"/>
<rect width="3.2473488" x="12.674657" y="-11.81485" height="1.0824496" id="rect14905" transform="matrix(0,1,-1,0,0,0)"/>
<rect width="3.2473488" x="12.674657" y="-13.979749" height="1.0824496" id="rect14909" transform="matrix(0,1,-1,0,0,0)"/>
<rect width="3.2473488" x="12.674657" y="-16.144648" height="1.0824496" id="rect14913" transform="matrix(0,1,-1,0,0,0)"/>
<rect width="3.2473488" x="12.674657" y="-18.309547" height="1.0824496" id="rect14917" transform="matrix(0,1,-1,0,0,0)"/>
<rect width="3.2473488" x="12.674657" y="-20.474447" height="1.0824496" id="rect14921" transform="matrix(0,1,-1,0,0,0)"/>
<rect width="3.2473488" x="12.674657" y="-22.639345" height="1.0824496" id="rect14925" transform="matrix(0,1,-1,0,0,0)"/>
</g>
<g style="fill:none;stroke:#98a332" id="g14967" transform="matrix(1.0824496,0,0,1.0824496,-1.1745453,-3.5620867)">
<path id="path14959" d="m 9.4576,27.5823 1.0607,2.9168 1.9445,0 -1.0607,-2.961"/>
<path id="path14961" d="m 13.4576,27.5823 1.0607,2.9168 1.9445,0 -1.0607,-2.961"/>
<path id="path14963" d="m 17.4576,27.5823 1.0607,2.9168 1.9445,0 -1.0607,-2.961"/>
<path id="path14965" d="m 21.4576,27.5823 1.0607,2.9168"/>
</g>
<g style="fill:#c8c8c8;stroke:none" id="g100" transform="matrix(1.0824496,0,0,1.0824496,-3.3394445,-2.4342479)">
<rect width="3" x="23.958069" y="-12" height="1" id="rect14929" transform="matrix(0,1,-1,0,0,0)"/>
<rect width="3" x="23.958069" y="-14" height="1" id="rect14931" transform="matrix(0,1,-1,0,0,0)"/>
<rect width="3" x="23.958069" y="-16" height="1" id="rect14933" transform="matrix(0,1,-1,0,0,0)"/>
<rect width="3" x="23.958069" y="-18" height="1" id="rect14935" transform="matrix(0,1,-1,0,0,0)"/>
<rect width="3" x="23.958069" y="-20" height="1" id="rect14937" transform="matrix(0,1,-1,0,0,0)"/>
<rect width="3" x="23.958069" y="-22" height="1" id="rect14939" transform="matrix(0,1,-1,0,0,0)"/>
</g>
<path style="opacity:.239;fill:none;stroke:#fff;stroke-width:1.082" id="path14989" d="m 1.5329,39.1964 11.9049,-.0001 .0119,5.394 18.4027,-.0026 -.0031,-5.3985 7.5661,.0029 .004,-27.0549 -37.8828,-.0024 z "/>
<rect width="3.2473488" x="23.499155" y="-22.639345" height="1.0824496" style="fill:#c8c8c8;stroke:none" id="rect14941" transform="matrix(0,1,-1,0,0,0)"/>
<g style="stroke-linejoin:round;stroke-linecap:round" id="g75">
<g style="fill:#3465a4;stroke:#204a87" id="g116" transform="matrix(1.0824496,0,0,1.0824496,-3.3394445,-2.4342479)">
<circle cx="36.000004" cy="17.958075" id="path15005" r="1.4856964"/>
<circle cx="36.000004" cy="22.943764" id="path15007" r="1.4856964"/>
<circle cx="36.000004" cy="27.972372" id="path15009" r="1.4856964"/>
</g>
<path style="fill:#55baff;stroke:none" id="path7246" d="m 24.9,.5206 0,17.7095 c -0.947482,-0.424943 -2.06041,-0.309459 -3.48,-0.30946 -2.90732,0 -4.64,0.96861 -4.64,2.32 0,1.35139 1.73268,2.32 4.64,2.32 2.90732,0 5.8,-1.01738 5.8,-2.36877 v -12.0587 l 7.96,4.5675 v 12.76 c -0.947483,-0.424943 -2.06041,-0.579999 -3.48,-0.58 -2.90732,0 -4.64,0.968611 -4.64,2.32 0,1.35139 1.73268,2.32 4.64,2.32 2.90732,0 5.8,-0.856071 5.8,-2.20746 v -18.6736 z "/>
</g>
</g>
</svg>
