<svg width="48" version="1.1" xmlns="http://www.w3.org/2000/svg" height="48" xmlns:xlink="http://www.w3.org/1999/xlink">
<defs>
<linearGradient id="linearGradient1">
<stop offset="0" style="stop-color:#9e9e9e"/>
<stop offset="1" style="stop-color:#b8b8b8"/>
</linearGradient>
<linearGradient id="linearGradient3">
<stop offset="0" style="stop-color:#919191"/>
<stop offset="1" style="stop-color:#ababab"/>
</linearGradient>
<linearGradient xlink:href="#linearGradient1" id="linearGradient2" y1="30.812099" x1="3.5" y2="17.1693" x2="3.5" gradientUnits="userSpaceOnUse"/>
<linearGradient xlink:href="#linearGradient3" id="linearGradient4" y1="39.040298" x1="19.8713" y2="9.0263004" x2="19.8713" gradientUnits="userSpaceOnUse"/>
</defs>
<path style="opacity:.7;color:#bebebe" d="m 3.5,17.9696 h 6.7787 l 8.1004,-8.1856 1.4922,0.0426 v 30.014 l -1.2969,0.0023 -8.2957,-8.2305 H 3.5 V 17.9697 Z"/>
<g style="fill:#429cd6;color:#000">
<path style="stroke-width:2.14" d="m 22.7871,16.4338 a 2.72883,2.72883 0 0,0 -1.4044,4.68134 c 1.6212,1.62121 1.6212,4.13015 0,5.75136 a 2.74274,2.74274 0 1,0 3.87882,3.87882 c 3.70663,-3.70663 3.70663,-9.80237 0,-13.509 a 2.72883,2.72883 0 0,0 -2.47442,-0.802515 Z "/>
<path style="stroke-width:4.708" d="m 28.806,10.6021 a 2.72882,2.72882 0 0,0 -1.6184,4.70808 c 4.81788,4.81788 4.81788,12.5432 0,17.3611 a 2.72882,2.72882 0 1,0 3.82532,3.82532 c 6.90332,-6.90332 6.90332,-18.1084 0,-25.0117 a 2.72882,2.72882 0 0,0 -2.20692,-0.882766 z "/>
<path style="stroke-width:7.276" d="m 33.0595,9.4422 c 8.0146,8.0146 8.0146,21.09 0,29.1046 -2.57756,2.57699 1.28789,6.44244 3.86545,3.86545 10.1,-10.1 10.1,-26.7355 0,-36.8355 -0.756588,-0.80445 -1.94161,-1.06668 -2.95598,-0.681774 -1.89358,0.718155 -2.38706,3.1633 -0.909452,4.54722 z "/>
</g>
<g style="color:#bebebe">
<path style="fill:url(#linearGradient4)" d="m 3.5,17.1693 h 6.7787 l 8.1004,-8.1856 1.4922,0.0426 v 30.014 l -1.2969,0.0023 -8.2957,-8.2305 H 3.5 V 17.1694 Z"/>
<path style="fill:url(#linearGradient2)" d="m 3.5,17.1693 h 6.7787 V 30.8121 H 3.5 V 17.1694 Z"/>
</g>
</svg>
