<svg width="48" version="1.0" xmlns="http://www.w3.org/2000/svg" height="48">
<defs id="defs1309"/>
<g style="stroke:none" id="layer1" transform="translate(0,-80)">
<path style="opacity:.7" id="path4151" d="m 9.2595,100.5071 c -0.55453,0.0187 -0.903515,0.32308 -1.05455,0.44225 -0.08989,0.071 -0.22662,0.20867 -0.272143,0.3402 -0.01153,-0.20979 -0.0784,-0.27312 -0.238125,-0.27217 l -.1021,-.034 c -0.893674,-0.0147 -1.75828,1.81958 -1.83696,2.10915 -2.97241,0.51995 -3.63468,3.54854 -3.70794,6.56544 -0.00411,-0.30822 0.00655,-0.62157 0,-0.91848 0,0 -0.069371,-0.0298 -0.170089,-0.034 -0.100718,-0.004 -0.236332,0.004 -0.374196,0.10199 -0.275729,0.19624 -0.575642,0.23726 -0.578303,0.71438 -0.057721,10.3498 0.349231,10.5648 0.612321,11.9062 0.434596,2.21585 11.8637,3.53357 16.3286,3.91205 0.06804,-1.29268 0,0 0.06804,-1.29268 -4.18546,-0.26624 -14.3839,-1.33421 -15.342,-3.23169 -0.546734,-1.08278 -0.494209,-5.30741 -0.510267,-9.32089 0.153746,2.76738 0.920456,5.24473 3.67393,5.78303 0.182283,1.13189 1.1077,2.12477 1.70089,2.10911 0.114889,-0.003 0.210142,-0.13508 0.238125,-0.30616 0.0001513,0.009 0,0.17009 0,0.17009 0,0.14003 0.548211,0.66501 0.918482,0.68036 h 0.204107 c 0.465002,-0.031 0.508111,-0.3499 0.510267,-0.51027 0,0.14003 0.0492,0.45773 0.47625,0.47625 h 0.238125 c 0.993993,-0.0342 2.01936,-0.92226 2.04107,-2.75545 0,0 -0.102054,-3.52816 -0.102054,-7.07571 0,-3.54753 0.102054,-7.10972 0.102054,-7.10972 -0.04341,-1.89835 -0.860404,-2.41533 -1.56482,-2.41533 h -0.170089 c -0.325058,-0.0162 -0.751566,0.11983 -0.850446,0.37421 0.000228,-0.003 0,-0.068 0,-0.068 0,-0.14004 -0.09819,-0.3449 -0.238128,-0.3402 z  m 31.2284,0 c -0.139932,-0.004 -0.238125,0.20015 -0.238125,0.34018 0,0 -0.000151,0.066 0,0.068 -0.09735,-0.25371 -0.491371,-0.39039 -0.816428,-0.3742 h -0.204107 c -0.704418,0 -1.48739,0.51696 -1.5308,2.41531 0,0 0.06804,3.5622 0.06804,7.10973 0,3.54754 -0.06804,7.07571 -0.06804,7.07571 0.02171,1.83318 1.01306,2.72128 2.00705,2.75544 h 0.238125 c 0.427045,-0.0185 0.510267,-0.33621 0.510267,-0.47625 0.0023,0.16047 0.04556,0.47922 0.510268,0.51027 h 0.204107 c 0.37027,-0.0153 0.918481,-0.54032 0.918481,-0.68036 0,0 -6.2e-05,-0.0985 0,-0.102 0.03921,0.13883 0.137313,0.23544 0.238125,0.23813 0.175439,0.004 0.373993,-0.0898 0.578303,-0.23813 0.476581,-0.32961 0.934923,-1.0284 1.08857,-1.80294 3.14682,-0.61521 3.74196,-3.76256 3.74196,-6.97366 0,-3.19686 -0.538417,-6.59523 -3.67393,-7.17776 v -0.068 c 0,-0.008 0.006,-0.0142 0,-0.034 0,-0.003 -0.03297,-0.0284 -0.03402,-0.034 -0.0063,-0.0185 0.0094,-0.0439 0,-0.068 -0.0196,-0.0601 -0.04329,-0.11346 -0.102053,-0.23812 -0.0069,-0.0142 -0.02672,-0.0533 -0.03402,-0.068 -0.306896,-0.63095 -0.998911,-1.78048 -1.70089,-1.76897 h -0.102054 c -0.128902,-0.00077 -0.180432,0.0678 -0.204107,0.20412 -0.0012,0.004 0.0012,0.0295 0,0.034 -0.006,0.0377 -0.0317,0.0538 -0.03402,0.102 -0.0023,0.0212 0.0013,0.0441 0,0.068 -0.03001,-0.13625 -0.21016,-0.29847 -0.30616,-0.3742 -0.151039,-0.11916 -0.50002,-0.42354 -1.05455,-0.44224 z "/>
<path style="opacity:.7" id="path4149" d="m 24.1341,81.3079 c -7.99497,0.179626 -13.3705,4.60435 -15.1924,8.50629 -0.19727,0.422502 -0.190591,0.815624 -0.01214,1.23772 -0.209096,0.243483 -0.41329,0.500745 -0.618861,0.764473 -1.07169,1.37488 -2.03555,3.04026 -2.06286,3.03363 -0.048028,-0.01166 -0.166466,-0.02426 -0.279094,-0.02426 -1.02974,0 -1.86871,0.813814 -1.86871,1.80804 0,0.784492 0.523612,1.4412 1.24985,1.6867 v 0.04854 c -0.054231,0.04244 -2.40263,1.84445 -2.40263,1.84445 -0.212179,0.17072 -0.55561,0.39698 -0.630994,0.66741 -0.068918,0.24725 -0.028936,0.43612 -0.012134,0.71595 l .4401,3.2871 c 0.289694,-0.45251 0.642827,-0.84344 1.09211,-1.14065 l -.3794,-2.2192 c -0.030269,-0.25164 0.016643,-0.34418 0.218421,-0.47327 0,0 1.79407,-1.3649 2.4633,-1.86874 0.028444,-0.02141 0.106038,-0.06629 0.109211,-0.182018 0.0006988,-0.02548 0.0001055,-0.305942 0,-0.59459 0.895352,-0.13005 1.57749,-0.869531 1.57748,-1.77164 0,-0.512649 -0.213905,-0.982421 -0.570322,-1.31053 0.088348,-0.169409 0.827606,-1.56266 1.83231,-2.85161 0.139502,-0.178968 0.278497,-0.361418 0.424708,-0.533919 0.07275,0.08272 0.146798,0.168153 0.230555,0.254825 3.9306,-4.12114 7.68107,-6.34634 14.5735,-6.34634 6.89247,0 10.7601,2.35639 14.525,6.43129 0.06586,-0.06985 0.112384,-0.129318 0.169883,-0.194152 0.125364,0.14944 0.244022,0.307144 0.364036,0.461111 1.00471,1.28895 1.74396,2.6822 1.83231,2.85161 -0.356417,0.328105 -0.570322,0.797877 -0.570322,1.31053 0,0.898136 0.675832,1.63679 1.56535,1.77164 -0.000102,0.288649 -0.000777,0.569112 0,0.594591 0.0032,0.115722 0.08078,0.160606 0.10921,0.182017 0.669238,0.503833 2.4633,1.86874 2.4633,1.86874 0.201763,0.12909 0.248709,0.22162 0.218422,0.47326 l -.4778,2.3179 c 0.444611,0.29243 0.803483,0.67209 1.09211,1.11638 l .5384,-3.3615 c 0.01682,-0.27984 0.05678,-0.46871 -0.01212,-0.71595 -0.07538,-0.27044 -0.418818,-0.4967 -0.630995,-0.66742 0,0 -2.3484,-1.802 -2.40263,-1.84444 v -0.04854 c 0.731895,-0.242513 1.26199,-0.898297 1.26199,-1.6867 0,-0.994227 -0.838978,-1.80804 -1.86871,-1.80804 -0.112628,0 -0.231069,0.01262 -0.279095,0.02426 -0.0273,0.0066 -0.99118,-1.65875 -2.06287,-3.03363 -0.178045,-0.228419 -0.352204,-0.453443 -0.533919,-0.667399 0.18389,-0.438052 0.103883,-0.803703 -0.08494,-1.29839 -1.30835,-3.42769 -6.69667,-8.6155 -14.9133,-8.6155 -0.160481,0 -0.326118,-0.0036 -0.485379,7e-06 z "/>
<path style="fill:#969696" id="path8165" d="m 8.6063,99.6363 c -0.554529,0.01872 -0.903515,0.323086 -1.05455,0.442244 -0.089894,0.071 -0.22662,0.20867 -0.272143,0.34019 -0.011528,-0.20978 -0.0784,-0.2731 -0.238125,-0.27215 l -.1021,-.034 c -0.893674,-0.0147 -1.75828,1.81955 -1.83696,2.10912 -2.97241,0.51996 -3.63468,3.54855 -3.70794,6.56545 -0.00411,-0.30822 0.00655,-0.62157 0,-0.91848 0,0 -0.069371,-0.0298 -0.170089,-0.034 -0.100718,-0.004 -0.236332,0.004 -0.374196,0.102 -0.275729,0.19624 -0.575642,0.23726 -0.578303,0.71438 -0.057721,10.3498 0.349231,10.5648 0.612321,11.9062 0.434596,2.21585 11.8637,3.53356 16.3286,3.91205 0.525076,1.4234 2.898,2.55928 5.74901,2.65339 3.27745,0.1082 5.96447,-1.17422 6.02116,-2.89152 0.05668,-1.71728 -2.5396,-3.19154 -5.81705,-3.29972 -2.8444,-0.0938 -5.26039,0.86463 -5.88509,2.24517 -4.18546,-0.26624 -14.3839,-1.33422 -15.342,-3.23169 -0.546734,-1.08278 -0.494209,-5.30741 -0.510267,-9.32089 0.153746,2.76738 0.920456,5.24472 3.67393,5.78303 0.182283,1.13189 1.1077,2.12477 1.70089,2.10911 0.114889,-0.003 0.210142,-0.13508 0.238125,-0.30616 0.0001513,0.009 0,0.17009 0,0.17009 0,0.14003 0.548211,0.66501 0.918481,0.68035 h 0.204107 c 0.465003,-0.031 0.508111,-0.34989 0.510268,-0.51026 0,0.14003 0.0492,0.45773 0.476249,0.47625 h 0.238125 c 0.993993,-0.0342 2.01936,-0.92226 2.04107,-2.75545 0,0 -0.102054,-3.52816 -0.102054,-7.07571 0,-3.54753 0.102054,-7.10973 0.102054,-7.10973 -0.04341,-1.89832 -0.860404,-2.4153 -1.56482,-2.4153 h -0.170089 c -0.325059,-0.01622 -0.751567,0.119833 -0.850446,0.374205 0.000227,-0.003 0,-0.06804 0,-0.06804 0,-0.140037 -0.09819,-0.344901 -0.238125,-0.340188 z  m 31.2284,0 c -0.139932,-0.0044 -0.238125,0.200151 -0.238125,0.340188 0,0 -0.000151,0.06597 0,0.06804 -0.09735,-0.253716 -0.49137,-0.3904 -0.816427,-0.374202 h -0.204107 c -0.704419,0 -1.48739,0.516952 -1.5308,2.41529 0,0 0.06804,3.56219 0.06804,7.10972 0,3.54755 -0.06804,7.07571 -0.06804,7.07571 0.02171,1.83319 1.01306,2.72129 2.00705,2.75545 h 0.238125 c 0.427045,-0.0185 0.510267,-0.33622 0.510267,-0.47625 0.0023,0.16046 0.04556,0.47922 0.510268,0.51026 h 0.204107 c 0.370271,-0.0154 0.918481,-0.54032 0.918481,-0.68035 0,0 -6.2e-05,-0.0985 0,-0.102 0.03921,0.13882 0.137314,0.23543 0.238125,0.23812 0.17544,0.004 0.373993,-0.0898 0.578303,-0.23812 0.476581,-0.32962 0.934924,-1.02841 1.08857,-1.80295 3.14682,-0.6152 3.74196,-3.76255 3.74196,-6.97365 0,-3.19686 -0.538416,-6.59524 -3.67392,-7.17776 v -0.068 c 0,-0.008 0.006,-0.0142 0,-0.034 0,-0.003 -0.03297,-0.0284 -0.03402,-0.034 -0.0063,-0.0185 0.0094,-0.0439 0,-0.068 -0.0196,-0.0601 -0.04329,-0.11346 -0.102054,-0.23813 -0.0069,-0.0142 -0.02672,-0.0533 -0.03402,-0.068 -0.306892,-0.63094 -0.998907,-1.78044 -1.70089,-1.76894 h -0.102054 c -0.128902,-0.00077 -0.180431,0.0678 -0.204107,0.20411 -0.0012,0.004 0.0012,0.0295 0,0.034 -0.006,0.0377 -0.0317,0.0538 -0.03402,0.102 -0.0023,0.0212 0.0013,0.0441 0,0.068 -0.03001,-0.13625 -0.210161,-0.29847 -0.306161,-0.3742 -0.151039,-0.119165 -0.50002,-0.423536 -1.05455,-0.442241 z "/>
<g style="fill:#c8c8c8">
<path id="rect8188" d="m 24.1341,80.4373 c -7.99497,0.179626 -13.3705,4.60435 -15.1924,8.50629 -0.19727,0.422502 -0.190591,0.815624 -0.01214,1.23772 -0.209096,0.243483 -0.41329,0.500745 -0.618861,0.764473 -1.07169,1.37488 -2.03555,3.04026 -2.06286,3.03363 -0.048028,-0.01166 -0.166466,-0.02426 -0.279094,-0.02426 -1.02974,0 -1.86871,0.813814 -1.86871,1.80804 0,0.784492 0.523612,1.4412 1.24985,1.6867 v 0.04854 c -0.054231,0.04244 -2.40263,1.84444 -2.40263,1.84444 -0.212179,0.170726 -0.55561,0.396981 -0.630994,0.667409 -0.068918,0.24725 -0.028936,0.43612 -0.012134,0.71595 l .4401,3.2871 c 0.289694,-0.45251 0.642827,-0.84343 1.09211,-1.14065 l -.3794,-2.2192 c -0.030269,-0.25163 0.016643,-0.34417 0.218421,-0.47326 0,0 1.79407,-1.3649 2.4633,-1.86873 0.028444,-0.02141 0.106038,-0.06629 0.109211,-0.182018 0.0006988,-0.02548 0.0001055,-0.305942 0,-0.59459 0.895352,-0.13005 1.57749,-0.869531 1.57748,-1.77164 0,-0.512649 -0.213905,-0.982421 -0.570322,-1.31053 0.088348,-0.169409 0.827606,-1.56266 1.83231,-2.85161 0.139502,-0.178968 0.278497,-0.361418 0.424708,-0.533919 0.07275,0.08272 0.146798,0.168153 0.230555,0.254825 3.9306,-4.12114 7.68107,-6.34634 14.5735,-6.34634 6.89247,0 10.7601,2.35639 14.525,6.43129 0.06586,-0.06985 0.112384,-0.129318 0.169883,-0.194152 0.125364,0.14944 0.244022,0.307144 0.364036,0.461111 1.00471,1.28895 1.74396,2.6822 1.83231,2.85161 -0.356417,0.328105 -0.570322,0.797877 -0.570322,1.31053 0,0.898136 0.675832,1.63679 1.56535,1.77164 -0.000102,0.288649 -0.000777,0.569112 0,0.594591 0.0032,0.115722 0.08078,0.160606 0.10921,0.182017 0.669238,0.503833 2.4633,1.86874 2.4633,1.86874 0.201763,0.12909 0.248709,0.22163 0.218422,0.47326 l -.4778,2.3179 c 0.444611,0.29242 0.803483,0.67208 1.09211,1.11637 l .5384,-3.3615 c 0.01682,-0.27984 0.05678,-0.46872 -0.01212,-0.71596 -0.07538,-0.270438 -0.418818,-0.496693 -0.630995,-0.667414 0,0 -2.3484,-1.80201 -2.40263,-1.84444 v -0.04854 c 0.731895,-0.242513 1.26199,-0.898297 1.26199,-1.6867 0,-0.994227 -0.838978,-1.80804 -1.86871,-1.80804 -0.112628,0 -0.231069,0.01262 -0.279095,0.02426 -0.0273,0.0066 -0.99118,-1.65875 -2.06287,-3.03363 -0.178045,-0.228419 -0.352204,-0.453443 -0.533919,-0.667399 0.18389,-0.438052 0.103883,-0.803703 -0.08494,-1.29839 -1.30835,-3.42769 -6.69667,-8.6155 -14.9133,-8.6155 -0.160481,0 -0.326118,-0.0036 -0.485379,7e-06 z "/>
<path id="path3762" d="m 1.3945,108.7871 c 0,0 0.00655,-0.62157 0,-0.91848 0,0 -0.069371,-0.0298 -0.170089,-0.034 -0.100718,-0.004 -0.236332,0.004 -0.374196,0.102 -0.275729,0.19624 -0.575642,0.23726 -0.578303,0.71438 -0.057721,10.3498 0.349231,10.5648 0.612321,11.9062 0.434596,2.21585 11.8637,3.53356 16.3286,3.91205 0.525076,1.4234 2.898,2.55928 5.74901,2.65339 3.27745,0.1082 5.96447,-1.17422 6.02116,-2.89152 0.05668,-1.71728 -2.5396,-3.19154 -5.81705,-3.29972 -2.8444,-0.0938 -5.26039,0.86463 -5.88509,2.24517 -4.18546,-0.26624 -14.3839,-1.33422 -15.342,-3.23169 -0.546734,-1.08278 -0.510267,-9.32089 -0.510267,-9.32089 z "/>
</g>
<g style="fill:#505050">
<path id="path3764" d="m 17.0075,124.174 c 0.551992,1.63998 3.04655,2.94872 6.04371,3.05713 3.44545,0.12467 6.27022,-1.3529 6.32981,-3.33149 0.05959,-1.97858 -2.66978,-3.67717 -6.11524,-3.80183 -2.9902,-0.10809 -5.53005,0.9962 -6.18676,2.58682 -0.109341,0.25249 -0.214593,0.94165 -0.07152,1.48937 z "/>
<path id="path4147" d="m 24.1341,80.0016 c -7.99497,0.179626 -12.7804,4.05642 -15.1924,8.94199 -0.206422,0.418108 -0.01214,1.23772 -0.01214,1.23772 l .5825,.8858 c 0,0 0.146798,0.168153 0.230555,0.254825 3.9306,-4.12114 7.68107,-5.91124 14.5735,-5.91124 6.89247,0 10.7601,1.92129 14.525,5.99619 0.06586,-0.06985 0.169883,-0.194152 0.169883,-0.194152 l .6067,-.8616 c 0,0 0.123045,-0.811449 -0.08494,-1.29839 -1.80016,-4.21459 -6.69667,-9.0512 -14.9133,-9.0512 -0.160481,0 -0.326118,-0.0036 -0.485379,7e-06 z "/>
</g>
</g>
</svg>
