<svg width="48" version="1.0" xmlns="http://www.w3.org/2000/svg" viewBox="0 0 47.25 43.407375" height="48" style="overflow:visible;enable-background:new 0 0 126 115.753">
<g style="stroke:none">
<path style="fill:#00a200" id="path4157" d="m 14.9017,3.4383 c -0.644207,0 -1.16743,0.421117 -1.16743,0.94043 v 36.2876 c 0,0.519308 0.523226,0.94043 1.16743,0.94043 5.94839,1.05656 11.7179,0.714756 17.4466,0 0.644207,0 1.16743,-0.421122 1.16743,-0.94043 v -36.2876 c 4e-06,-0.519316 -0.523223,-0.94043 -1.16743,-0.94043 h -1.29714 -14.8523 z "/>
<path style="opacity:.35" id="path4150" d="m 27.2246,11.6637 -.0001,.9846 -2.8536,8.0306 5.8372,0 0,.9844 -6.0005,5.5346 -4.6685,7.599 0,-.9844 2.497,-9.9556 -4.994,.9844 0,-.9844 10.1826,-12.1932 -.0001,0 z "/>
<path style="fill:#fff" id="path3425" d="m 27.2246,12.6481 -2.8537,9.0152 5.8372,0 -10.669,13.1336 2.497,-9.9556 -4.994,0 10.1826,-12.1932 z"/>
<path style="fill:#d2d2d2" id="path3485" d="m 18.5031,-.051 10.2439,0 c 0.641628,-6.85e-06 1.15816,0.652672 1.15815,1.46341 v 4.8574 c -4.02263,0.499083 -8.16242,0.641838 -12.5602,9e-07 v -4.8574 c 2e-06,-0.810729 0.516535,-1.46341 1.15816,-1.46341 z "/>
<g style="fill:#fff" id="g10">
<rect width="0.46697369" x="109.50977" y="152.06654" height="0" style="opacity:.578" id="rect1327"/>
<rect width="0.46697369" x="93.106468" y="140.782" height="0" style="opacity:.578" id="rect2482"/>
</g>
</g>
</svg>
