<svg width="48" version="1.1" xmlns="http://www.w3.org/2000/svg" height="48" xmlns:xlink="http://www.w3.org/1999/xlink">
<defs>
<linearGradient id="linearGradient6">
<stop offset="0" style="stop-color:#e3e3e3"/>
<stop offset="1" style="stop-color:#bfbfbf"/>
</linearGradient>
<linearGradient id="linearGradient4">
<stop offset="0" style="stop-color:#00bd00"/>
<stop offset="1" style="stop-color:#008a00"/>
</linearGradient>
<linearGradient xlink:href="#linearGradient6" id="linearGradient7" y1="5.5066856" x1="18" y2="5.5066856" x2="30" gradientUnits="userSpaceOnUse"/>
<linearGradient xlink:href="#linearGradient4" id="linearGradient5" y1="25.250037" x1="12.5" y2="25.250037" x2="35.5" gradientUnits="userSpaceOnUse"/>
</defs>
<path style="opacity:.05" d="m 19.3613,1 c -0.628559,0 -1.31384,0.103431 -1.80469,0.634766 -0.490847,0.531335 -0.556641,1.18298 -0.556641,1.84766 v 6.41797 h 14 v -6.41797 c 0,-0.67046 -0.09851,-1.37118 -0.636719,-1.88672 C 29.825046,1.080163 29.14073,1 28.44333,1 Z"/>
<path style="opacity:.08" d="m 19.361328,1.25 c -0.601286,0 -1.200377,0.097315 -1.621094,0.5527344 C 17.319518,2.2581539 17.25,2.8392917 17.25,3.4804687 V 10 h 13.5 V 3.4824219 C 30.750023,2.8383082 30.652916,2.2193393 30.189453,1.7753906 29.72599,1.331442 29.116335,1.25 28.443359,1.25 Z"/>
<path style="opacity:.12" d="m 19.361328,1.5 c -0.574014,0 -1.086914,0.093152 -1.4375,0.4726563 C 17.573242,2.3521605 17.5,2.8627891 17.5,3.4804687 V 10 h 13 V 3.4824219 C 30.5,2.8646541 30.4063,2.3274326 30.017578,1.9550781 29.628857,1.5827237 29.091907,1.5 28.443359,1.5 Z"/>
<path style="opacity:.3" d="m 19.361328,1.75 c -0.546742,0 -0.973451,0.088989 -1.253906,0.3925781 C 17.826966,2.4461671 17.75,2.8862864 17.75,3.4804687 V 9 h 12.5 V 3.4824219 C 30.250021,2.891 30.15773,2.437479 29.84375,2.1367188 29.52977,1.8359585 29.067478,1.75 28.443359,1.75 Z"/>
<path style="fill:url(#linearGradient5)" d="m 13.67,5.5001 c -0.725163,0 -1.17006,0.473007 -1.17006,1.25189 v 36.1206 c 0,0.785149 0.533368,1.34984 1.17006,1.45164 5.97109,0.95469 14.9427,0.845645 20.6599,0 0.637854,-0.09435 1.17007,-0.653794 1.17007,-1.45164 v -36.1206 c 0,-0.841719 -0.525237,-1.25189 -1.17007,-1.25189 z "/>
<path style="opacity:.35" d="m 28.1825,12.018 -3.2931,10.988 7.6106,.0655 -.8743,1.2816 -6.9247,7.5729 -5.3876,10.3974 -.4298,.6767 3.3114,-15.6454 -5.7632,1.3469 -.9319,-.0133 13.1536,-18.6882 Z "/>
<path style="fill:#fff" d="m 28.1827,12.0178 -3.2932,12.3352 h 6.73626 l -12.3122,17.9703 2.8816,-13.6218 h -5.76319 l 11.7509,-16.6835 z "/>
<path style="fill:url(#linearGradient7)" d="m 28.4433,2 c 1.19942,0 1.55671,0.355807 1.55667,1.49952 V 8.712 c -2.865997,0.436051 -9.45782,0.366225 -12,0 V 3.49911 c 0,-1.15507 0.321839,-1.49916 1.36081,-1.49916 z"/>
</svg>
