<svg width="48" version="1.0" xmlns="http://www.w3.org/2000/svg" height="48" xmlns:xlink="http://www.w3.org/1999/xlink">
<defs id="defs7856">
<linearGradient id="linearGradient3968">
<stop offset="0" style="stop-color:#e6e6e6" id="stop3970"/>
<stop offset="1" style="stop-color:#8c8c8c" id="stop3972"/>
</linearGradient>
<linearGradient gradientTransform="matrix(1.1940298,0,0,1.1940298,-5.3731343,-3.9379459)" xlink:href="#linearGradient3968" id="linearGradient4219" y1="6.6985388" x1="4.6767769" y2="19.338072" gradientUnits="userSpaceOnUse" x2="4.7079229"/>
</defs>
<g style="stroke:none" id="layer1">
<g style="color:#000" id="g10">
<g style="fill-rule:evenodd" id="g12">
<path style="opacity:.4" id="path4266" d="m 3.9833,12.0983 0,23.7495 c 0.023546,8.3245 1.52765,10.7724 4.67766,10.7724 h 7.34627 2.98474 19.2 c 0.992238,0 2.11635,-1.1233 2.11635,-2.11554 0.0062,-1.11727 0,-1.78343 0,-1.78343 l .1673,-9.9173 -1.5189,-9.8176 c 0,0 -0.016,-6.49234 -0.02398,-10.8881 h -23.4858 -2.08866 z "/>
<g style="fill:#969696;stroke-linecap:square" id="g15">
<ellipse cx="20.543304" cy="4.6138511" rx="4.2929702" ry="3.2339377" id="path4244"/>
<ellipse cx="29.920084" cy="4.6138511" rx="4.2929702" ry="3.2339377" id="ellipse4246"/>
</g>
<path style="fill:#5a5a5a" id="path4226" d="m 13.359,11.2053 0,23.9608 0,.0371 c 0.113669,2.41931 0.160152,4.81001 0.710755,6.90262 0.361862,1.37532 0.957974,2.63015 1.93823,3.62137 h 2.98311 c -1.82085,0 -2.41375,-2.20959 -2.87355,-3.95712 -0.487892,-1.85428 -0.558126,-4.17973 -0.67151,-6.60393 v -0.03706 -23.9237 z "/>
<path style="fill:#e6e6e6" id="rect5829" d="m 4.7769,11.2053 0,23.8496 c 0.228357,4.59106 -0.200771,10.6722 4.17732,10.6722 h 7.5 c -0.980252,-0.99122 -1.57636,-2.24605 -1.93823,-3.62137 -0.550603,-2.09261 -0.597085,-4.48331 -0.710755,-6.90262 v -0.03706 -23.9608 z "/>
<path style="fill:#c8c8c8" id="path4222" d="m 15,11.2053 0,23.9237 0,.0371 c 0.113385,2.4242 0.183619,4.74964 0.671511,6.60392 0.459798,1.74753 1.75981,3.95712 2.87355,3.95712 h 19.0661 c 0.992238,0 1.79215,-0.799912 1.79215,-1.79215 0.0062,-1.11727 0,-1.78343 0,-1.78343 v -20.0581 c 0,0 -0.016,-6.49235 -0.02398,-10.8881 z "/>
<path style="fill:url(#linearGradient4219)" id="path4217" d="m 7.6112,3.9735 c -4.21702,0 -7.61119,3.39418 -7.61119,7.61119 v 0.1483 c 0,4.21701 3.39418,7.61337 7.61119,7.61337 h 8.69477 0.403343 15.0807 c 4.21701,0 7.61337,-3.39636 7.61337,-7.61337 v -0.148257 c 0,-4.21701 -3.39636,-7.61119 -7.61337,-7.61119 h -14.819 -0.477471 -8.88227 z "/>
<path style="fill:#19385f" id="rect5179" d="m 7.1642,6.1367 c 3.14134,0 5.67164,2.53083 5.67164,5.67164 0,3.14081 -2.5303,5.70895 -5.67164,5.70895 -3.14134,0 -5.70895,-2.56814 -5.70895,-5.70895 0,-3.14081 2.56761,-5.67164 5.70895,-5.67164 z "/>
</g>
<path style="fill:#314c5b" id="rect2108" d="m 23.4851,23.1665 c -1.19582,0 -1.56716,0.337235 -1.56716,1.52985 v 3.24627 h -3.43284 c -0.188997,0 -0.335791,0.147537 -0.335821,0.335822 v 7.68657 c -2.8e-05,0.188285 0.146824,0.335821 0.335821,0.335821 h 3.43284 v 3.24627 c 0,1.19262 0.334029,1.52985 1.52985,1.52985 7.67413,0 23.0224,0 23.0224,0 0.850491,0 1.52972,-0.682566 1.52985,-1.52985 v -14.8507 c 0.000135,-0.847285 -0.67936,-1.52985 -1.52985,-1.52985 0,0 -15.3234,0 -22.9851,0 z "/>
<path style="fill:#5a5a5a;fill-rule:evenodd" id="path4205" d="m 14.0656,3.9735 c 2.62752,1.64272 4.66474,4.38278 4.66474,7.61119 0,3.22842 -2.15885,6.13105 -4.92684,7.76163 h 1.19248 c 0.996178,4e-05 5.07443,-3.34695 5.07956,-7.76163 0.005128,-4.41468 -4.07557,-7.58469 -4.89158,-7.61119 Z "/>
</g>
</g>
</svg>
