<svg width="128" version="1.0" xmlns="http://www.w3.org/2000/svg" height="128">
<g id="g4148" transform="translate(0,2.7413)">
<g style="stroke-dashoffset:4" id="g11" transform="translate(4.5366516,0)">
<path style="fill:#7c7c7c" id="path2041" d="m 59.4465,13.0938 c -34.0907,0 -59.2284,35.1292 -59.2151,78.4062 0.004236,13.7587 2.16595,30 2.16595,30 h 114.132 c 0,0 2.15434,-16.2413 2.16595,-30 0.0365,-43.2771 -25.1585,-78.4062 -59.2491,-78.4062 z "/>
<path style="fill:#c2c2c2;stroke:#5a5a5a;stroke-linecap:square;stroke-width:3" id="path2311" d="m 110.5458,53.5375 c 0,28.1777 -22.5014,51.0201 -50.2584,51.0201 -27.757,0 -50.2584,-22.8425 -50.2584,-51.0201 0,-28.1777 22.5014,-51.0201 50.2584,-51.0201 27.757,0 50.2584,22.8425 50.2584,51.0201 z"/>
</g>
<path style="fill:none;fill-rule:evenodd;stroke:#646464;fill-opacity:.75;stroke-width:1.019" id="path2893" d="m 64.8241,2.5818 0,101.5647"/>
<g style="stroke-linejoin:round;stroke-linecap:round;stroke-dashoffset:4" id="g16" transform="translate(4.5366516,0)">
<path style="stroke:#fff;stroke-width:4.652" id="path1977" d="m 85.8439,52.9971 c 0,13.8987 -11.4421,25.1659 -25.5566,25.1659 -14.1145,0 -25.5566,-11.2672 -25.5566,-25.1659 0,-13.8987 11.4421,-25.1659 25.5566,-25.1659 14.1145,0 25.5566,11.2672 25.5566,25.1659 z"/>
<path style="fill:none;stroke:#a3a3a3;stroke-width:4.123" id="path2928" d="m 78.4214,53.0977 c 0,9.59018 -7.89507,17.3646 -17.6342,17.3646 -9.73906,0 -17.6342,-7.77439 -17.6342,-17.3646 0,-9.59018 7.89507,-17.3646 17.6342,-17.3646 9.73906,0 17.6342,7.77439 17.6342,17.3646 z"/>
</g>
</g>
</svg>
