<svg width="48" version="1.1" xmlns="http://www.w3.org/2000/svg" height="48" xmlns:xlink="http://www.w3.org/1999/xlink">
<defs>
<linearGradient id="linearGradient12">
<stop offset="0"/>
<stop offset="1" style="stop-opacity:0"/>
</linearGradient>
<linearGradient id="linearGradient854">
<stop offset="0" style="stop-color:#828282"/>
<stop offset="1" style="stop-color:#fff"/>
</linearGradient>
<linearGradient gradientTransform="matrix(0.3746964,0,0,0.3746964,-0.74561774,10.026324)" xlink:href="#linearGradient854" id="linearGradient864" y1="18.116" x1="76.724098" y2="62.704" x2="76.24" gradientUnits="userSpaceOnUse"/>
<linearGradient xlink:href="#linearGradient12" id="linearGradient18" y1="41.16824" x1="3.3984151" y2="-15.040692" gradientUnits="userSpaceOnUse" x2="3.5763462"/>
<linearGradient xlink:href="#linearGradient12" id="linearGradient13" y1="41.16824" x1="3.3984151" y2="-24.579353" x2="3.5679774" gradientUnits="userSpaceOnUse"/>
<linearGradient xlink:href="#linearGradient12" id="linearGradient17" y1="41.16824" x1="3.3984151" y2="3.4752207" x2="3.6083503" gradientUnits="userSpaceOnUse"/>
<linearGradient xlink:href="#linearGradient12" id="linearGradient15" y1="41.16824" x1="3.3984151" y2="3.4752207" x2="3.6083503" gradientUnits="userSpaceOnUse"/>
<linearGradient gradientTransform="matrix(0.69483704,0,0,1.1243237,-9.352171,-15.16613)" xlink:href="#linearGradient854" id="linearGradient873" y1="27.560459" x1="27.099058" y2="20.77672" x2="27.098022" gradientUnits="userSpaceOnUse"/>
<linearGradient gradientTransform="matrix(0.34903224,0,0,0.34903224,2.1743229,9.7003309)" xlink:href="#linearGradient854" id="linearGradient872" y1="165.14508" x1="1.3640177" y2="4.959434" x2="0" gradientUnits="userSpaceOnUse"/>
<linearGradient gradientTransform="matrix(0.3746964,0,0,0.3746964,-0.74561774,10.026324)" xlink:href="#linearGradient854" id="linearGradient856" y1="72.862" x1="76.24" y2="8.231" x2="76.240501" gradientUnits="userSpaceOnUse"/>
</defs>
<path style="opacity:.1;fill:url(#linearGradient17);color-interpolation-filters:linearRGB" d="m 9.5684,6.6375 c -2.30355,-1e-07 -4.32397,0.934272 -4.8914,2.19698 h -1.079 c -1.37558,0 -3.09806,1.72063 -3.09802,3.09653 l 0,26.241 c 2.51e-05,1.37591 1.62242,2.99624 2.998,2.99624 h 41.004 c 1.3759,0 2.99822,-1.62034 2.99822,-2.99624 v -27.843 c 0,-1.37558 -1.62229,-2.99849 -2.99822,-2.99849 h -19.0918 c -0.989496,0 -2.02192,0.616376 -2.41917,1.50391 h -8.432 c -0.567334,-1.26271 -2.68626,-2.19698 -4.99063,-2.19698 Z "/>
<path style="opacity:.2;fill:url(#linearGradient15);color-interpolation-filters:linearRGB" d="M 9.5684,7.137 C 7.26485,7.137 5.34481,8.071272 4.77738,9.33398 H 3.998083 c -1.37558,0 -2.99808,1.62018 -2.99805,2.99609 v 25.4414 c 2.51e-5,1.37591 1.52286,2.89648 2.89844,2.89648 h 40.2031 c 1.3759,0 2.89844,-1.52058 2.89844,-2.89648 v -27.043 c 0,-1.37558 -1.52251,-2.89844 -2.89844,-2.89844 h -18.6914 c -0.989496,0 -1.921923,0.616376 -2.319173,1.50391 H 14.359393 C 13.792059,8.07123 11.872743,7.13696 9.568373,7.13696 Z"/>
<path style="opacity:.25;fill:url(#linearGradient18);color-interpolation-filters:linearRGB" d="m 9.4785,7.6328 c -2.18094,0 -3.97011,0.956828 -4.2832,2.20117 H 4.298816 c -1.37558,0 -2.79886,1.42097 -2.79883,2.79687 v 24.8398 c 2.57e-5,1.3759 1.32169,2.69727 2.69727,2.69727 h 39.6055 c 1.3759,0 2.69727,-1.32136 2.69727,-2.69727 v -26.4434 c 0,-1.37558 -1.32134,-2.69727 -2.69727,-2.69727 h -18.3926 c -0.989496,0 -1.921906,0.616377 -2.319156,1.50391 H 13.761716 C 13.448679,8.58953 11.660226,7.63271 9.478516,7.63271 Z"/>
<path style="opacity:.3;fill:url(#linearGradient13);color-interpolation-filters:linearRGB" d="m 5.495,10.2342 h -0.997 c -1.37558,0 -2.59844,1.22091 -2.59842,2.5968 v 24.339 c 2.57e-05,1.3759 1.22184,2.59763 2.59741,2.59763 h 39.005 c 1.3759,0 2.59763,-1.22172 2.59763,-2.59763 v -25.843 c 0,-1.37558 -1.22171,-2.5968 -2.59763,-2.5968 h -18.0918 c -0.989496,0 -1.8215,0.616377 -2.21875,1.50391 h -9.72941 c -0.100803,-1.21274 -1.80167,-2.40115 -3.983,-2.4011 -2.18133,4.5e-05 -3.84339,1.19245 -3.984,2.40119 Z "/>
<path style="fill:url(#linearGradient873);stroke-width:.444" d="m 9.4513,12.459 c -1.97936,0 -3.58421,-0.9539 -3.58421,-2.12976 0,-1.17642 1.60485,-2.12976 3.58421,-2.12976 1.98006,0 3.58456,0.953338 3.58456,2.12976 0,1.17643 -1.60485,2.12976 -3.58456,2.12976 z "/>
<path style="fill:url(#linearGradient872);stroke-width:.695" d="m 43.5026,9.1273 h -17.8932 c -0.957742,0 -1.75737,0.635239 -2.02648,1.50398 h -19.0858 c -1.17764,0 -2.13154,0.954602 -2.13154,2.13189 v 24.4083 c 0,1.17764 0.954255,2.13154 2.13154,2.13154 h 39.0054 c 1.17798,0 2.13189,-0.953907 2.13189,-2.13154 v -25.9123 c 0,-1.17694 -0.953907,-2.13188 -2.13189,-2.13188 z "/>
<g style="fill:#48b400">
<path style="stroke-width:.349" d="m 43.3873,14.9292 c 0,0.177309 -0.132632,0.321459 -0.296677,0.321459 h -4.15314 c -0.164044,0 -0.296677,-0.14415 -0.296677,-0.321459 v -2.83938 c 0,-0.177657 0.132633,-0.321458 0.296677,-0.321458 h 4.15314 c 0.164045,0 0.296677,0.143801 0.296677,0.321458 z "/>
<path style="stroke-width:.361" d="m 36.427,12.3258 c -0.58428,0 -1.05931,0.475647 -1.05931,1.06002 0,0.58475 0.475033,1.05965 1.05931,1.05965 0.584978,0 1.06036,-0.4749 1.06036,-1.05965 0,-0.584377 -0.475383,-1.06002 -1.06036,-1.06002 z "/>
</g>
<path style="fill:url(#linearGradient856);stroke-width:.746" d="m 15.662,25.1682 c 0,6.70445 5.45483,12.1593 12.1593,12.1593 6.70445,0 12.1593,-5.45483 12.1593,-12.1593 0,-6.70519 -5.45483,-12.16 -12.1593,-12.16 -6.70445,0 -12.1593,5.45483 -12.1593,12.16 z "/>
<g style="stroke-width:.374">
<path style="fill:url(#linearGradient864)" d="m 36.1751,25.1682 c 0,4.61364 -3.73984,8.35313 -8.35387,8.35313 -4.61364,0 -8.35387,-3.73947 -8.35387,-8.35313 0,-4.61439 3.74022,-8.35387 8.35387,-8.35387 4.61401,0 8.35387,3.73947 8.35387,8.35387 z "/>
<path style="fill:#282828" d="m 32.913,25.1682 c 0,2.8121 -2.27853,5.091 -5.09175,5.091 -2.81247,0 -5.09175,-2.2789 -5.09175,-5.091 0,-2.81284 2.27928,-5.0925 5.09175,-5.0925 2.81322,0 5.09175,2.27965 5.09175,5.0925 z "/>
<path style="fill:#2162af" d="m 30.8083,25.1678 c 0,1.65016 -1.33729,2.98708 -2.98746,2.98708 -1.64867,0 -2.98746,-1.33692 -2.98746,-2.98708 0,-1.64979 1.33841,-2.98746 2.98746,-2.98746 1.65017,0 2.98746,1.33767 2.98746,2.98746 z "/>
</g>
</svg>
