<svg width="48" version="1.1" xmlns="http://www.w3.org/2000/svg" height="48" xmlns:xlink="http://www.w3.org/1999/xlink">
<defs>
<linearGradient id="linearGradient854">
<stop offset="0" style="stop-color:#828282"/>
<stop offset="1" style="stop-color:#fff"/>
</linearGradient>
<linearGradient gradientTransform="matrix(0.50232244,0,0,0.50232244,16.588773,22.239421)" xlink:href="#linearGradient854" id="linearGradient856" y1="72.862" x1="76.24" y2="8.231" x2="76.240501" gradientUnits="userSpaceOnUse"/>
<linearGradient gradientTransform="matrix(0.34903224,0,0,0.34903224,2.1743229,9.7003309)" xlink:href="#linearGradient854" id="linearGradient872" y1="165.14508" x1="1.3640177" y2="4.959434" x2="0" gradientUnits="userSpaceOnUse"/>
<linearGradient gradientTransform="matrix(0.50232244,0,0,0.50232244,16.588773,22.239421)" xlink:href="#linearGradient854" id="linearGradient864" y1="18.116" x1="76.724098" y2="62.704" x2="76.24" gradientUnits="userSpaceOnUse"/>
<linearGradient gradientTransform="matrix(0.69483704,0,0,1.1243237,-9.352171,-15.16613)" xlink:href="#linearGradient854" id="linearGradient873" y1="27.560459" x1="27.099058" y2="20.77672" x2="27.098022" gradientUnits="userSpaceOnUse"/>
</defs>
<path style="opacity:.3;color-interpolation-filters:linearRGB" d="m 9.5684,7.137 c -2.30355,-1e-07 -4.22359,0.934272 -4.79102,2.19698 h -0.779297 c -1.37558,0 -2.99808,1.62018 -2.99805,2.99609 v 25.4414 c 2.51e-05,1.37591 1.52286,2.89648 2.89844,2.89648 h 40.2031 c 1.3759,0 2.89844,-1.52058 2.89844,-2.89648 v -27.043 c 0,-1.37558 -1.52251,-2.89844 -2.89844,-2.89844 h -18.6914 c -0.989496,0 -1.8215,0.616376 -2.21875,1.50391 h -8.83203 c -0.567334,-1.26271 -2.48665,-2.19698 -4.79102,-2.19698 Z "/>
<path style="opacity:.3;color-interpolation-filters:linearRGB" d="m 9.4785,7.6328 c -2.18094,0 -3.97011,0.956828 -4.2832,2.20117 h -0.896484 c -1.37558,0 -2.79886,1.42097 -2.79883,2.79687 v 24.8398 c 2.57e-05,1.3759 1.32169,2.69727 2.69727,2.69727 h 39.6055 c 1.3759,0 2.69727,-1.32136 2.69727,-2.69727 v -26.4434 c 0,-1.37558 -1.32134,-2.69727 -2.69727,-2.69727 h -18.3926 c -0.989496,0 -1.8215,0.616377 -2.21875,1.50391 h -9.42969 c -0.313037,-1.24435 -2.10149,-2.20117 -4.2832,-2.20117 z "/>
<path style="fill:url(#linearGradient873);stroke-width:.444" d="m 9.4513,12.459 c -1.97936,0 -3.58421,-0.9539 -3.58421,-2.12976 0,-1.17642 1.60485,-2.12976 3.58421,-2.12976 1.98006,0 3.58456,0.953338 3.58456,2.12976 0,1.17643 -1.60485,2.12976 -3.58456,2.12976 z "/>
<path style="fill:url(#linearGradient872);stroke-width:.695" d="m 43.5026,9.1273 h -17.8932 c -0.957742,0 -1.75737,0.635239 -2.02648,1.50398 h -19.0858 c -1.17764,0 -2.13154,0.954602 -2.13154,2.13189 v 24.4083 c 0,1.17764 0.954255,2.13154 2.13154,2.13154 h 39.0054 c 1.17798,0 2.13189,-0.953907 2.13189,-2.13154 v -25.9123 c 0,-1.17694 -0.953907,-2.13188 -2.13189,-2.13188 z "/>
<g style="fill:#48b400" transform="matrix(0.69483704,0,0,0.69483704,-9.352171,-5.7524426)">
<path style="stroke-width:.502" d="m 75.902,29.7647 c 0,0.25518 -0.190882,0.462639 -0.426974,0.462639 h -5.97714 c -0.236091,0 -0.426974,-0.207459 -0.426974,-0.462639 v -4.08639 c 0,-0.255682 0.190883,-0.462639 0.426974,-0.462639 h 5.97714 c 0.236092,0 0.426974,0.206957 0.426974,0.462639 z"/>
<path style="stroke-width:.52" d="m 65.8847,26.0179 c -0.840888,0 -1.52455,0.684544 -1.52455,1.52557 0,0.841565 0.683661,1.52503 1.52455,1.52503 0.841892,0 1.52606,-0.683469 1.52606,-1.52503 0,-0.841027 -0.684164,-1.52557 -1.52606,-1.52557 z"/>
</g>
<g transform="matrix(0.74592806,0,0,0.74592806,-13.119649,-6.5626839)">
<path style="fill:url(#linearGradient856)" d="m 38.585,42.5388 c 0,8.98806 7.31281,16.3009 16.3009,16.3009 8.98806,0 16.3009,-7.31281 16.3009,-16.3009 0,-8.98906 -7.31281,-16.3019 -16.3009,-16.3019 -8.98806,0 -16.3009,7.31281 -16.3009,16.3019 z"/>
<g style="stroke-width:.502">
<path style="fill:url(#linearGradient864)" d="m 66.0851,42.5388 c 0,6.1851 -5.01368,11.1983 -11.1993,11.1983 -6.1851,0 -11.1993,-5.01318 -11.1993,-11.1983 0,-6.1861 5.01418,-11.1993 11.1993,-11.1993 6.1856,0 11.1993,5.01318 11.1993,11.1993 z"/>
<path style="fill:#282828" d="m 61.7119,42.5388 c 0,3.76993 -3.05462,6.82505 -6.82606,6.82505 -3.77043,0 -6.82606,-3.05512 -6.82606,-6.82505 0,-3.77093 3.05563,-6.82706 6.82606,-6.82706 3.77144,0 6.82606,3.05613 6.82606,6.82706 z"/>
<path style="fill:#2162af" d="m 58.8903,42.5383 c 0,2.21223 -1.79279,4.00451 -4.00502,4.00451 -2.21022,0 -4.00502,-1.79229 -4.00502,-4.00451 0,-2.21173 1.79429,-4.00502 4.00502,-4.00502 2.21223,0 4.00502,1.79329 4.00502,4.00502 z"/>
</g>
</g>
</svg>
