<svg width="48" version="1.0" xmlns="http://www.w3.org/2000/svg" height="48" xmlns:xlink="http://www.w3.org/1999/xlink">
<defs>
<linearGradient id="linearGradient16">
<stop offset="0"/>
<stop offset="1" style="stop-opacity:0"/>
</linearGradient>
<linearGradient id="linearGradient3968">
<stop offset="0" style="stop-color:#e6e6e6"/>
<stop offset="1" style="stop-color:#828282"/>
</linearGradient>
<linearGradient id="linearGradient20">
<stop offset="0" style="stop-color:#153151"/>
<stop offset="1" style="stop-color:#1f487a"/>
</linearGradient>
<linearGradient id="linearGradient899">
<stop offset="0" style="stop-color:#3c3c3c"/>
<stop offset="1" style="stop-color:#828282"/>
</linearGradient>
<linearGradient gradientTransform="translate(1.5)" xlink:href="#linearGradient16" id="linearGradient27" y1="19.746361" x1="7.6112" y2="11.20525" x2="7.5618916" gradientUnits="userSpaceOnUse"/>
<linearGradient xlink:href="#linearGradient20" id="linearGradient22" y1="6.0366998" x1="8.8641901" y2="17.41729" x2="8.8641901" gradientUnits="userSpaceOnUse"/>
<linearGradient xlink:href="#linearGradient16" id="linearGradient21" y1="46.33672" x1="4.126" y2="4.0729852" x2="4.126" gradientUnits="userSpaceOnUse"/>
<linearGradient gradientTransform="translate(1.5)" xlink:href="#linearGradient16" id="linearGradient23" y1="19.746361" x1="7.6112" y2="11.20525" x2="7.5618916" gradientUnits="userSpaceOnUse"/>
<linearGradient xlink:href="#linearGradient16" id="linearGradient17" y1="46.33672" x1="4.126" y2="4.0729852" x2="4.126" gradientUnits="userSpaceOnUse"/>
<linearGradient gradientTransform="translate(1.5)" xlink:href="#linearGradient16" id="linearGradient25" y1="19.746361" x1="7.6112" y2="11.20525" x2="7.5618916" gradientUnits="userSpaceOnUse"/>
<linearGradient xlink:href="#linearGradient16" id="linearGradient19" y1="46.33672" x1="4.126" y2="4.0729852" x2="4.126" gradientUnits="userSpaceOnUse"/>
<linearGradient gradientTransform="translate(1.5)" xlink:href="#linearGradient899" id="linearGradient901" y1="19.082911" x1="10.992618" y2="4.032063" x2="11.268902" gradientUnits="userSpaceOnUse"/>
<linearGradient gradientTransform="matrix(1.1940298,0,0,1.1940298,-3.8731443,-3.9379459)" xlink:href="#linearGradient3968" id="linearGradient4219" y1="6.6985388" x1="4.6767769" y2="19.338072" gradientUnits="userSpaceOnUse" x2="4.7079229"/>
</defs>
<g style="color:#000">
<g style="fill-rule:evenodd">
<path style="opacity:.1;fill:url(#linearGradient21)" d="m 6.8191,4.173 -2.0936,7.3211 -.983,7.8244 v 14.8257 c 0.010938,4.04436 0.511227,11.046 5.15895,11.046 h 6.1491 0.769666 22.6667 c 1.07716,0 2.25841,-1.06926 2.24461,-2.25417 0.0067,-1.15643 0,-1.44534 0,-1.44534 v -18.7617 c 0,0 -0.0143,-5.83324 -0.02334,-10.2656 0.009,-0.152561 0.02593,-0.304083 0.02593,-0.458899 v -0.153642 c 0,-4.36483 -3.68965,-7.6494 -8.26751,-7.67786 h -16.0867 -0.51735 z "/>
<path style="opacity:.2;fill:url(#linearGradient19)" d="m 7.2089,4.1729 -2.4834,7.3212 -.5211,7.6785 v 14.6655 c 0.010682,4.00586 0.501872,10.9408 5.04097,10.9408 h 5.98875 0.751678 22.2308 c 1.05199,0 2.11178,-0.862089 2.09831,-2.03572 0.0066,-1.14542 0,-1.729 0,-1.729 v -18.4636 c 0,0 -0.01396,-5.7777 -0.02279,-10.1679 0.0088,-0.151108 0.02534,-0.301187 0.02534,-0.45453 v -0.152179 c 0,-4.32327 -3.60343,-7.57444 -8.0743,-7.6029 h -15.7107 -0.505259 z "/>
<path style="opacity:.3;fill:url(#linearGradient17)" d="m 7.6525,4.073 -2.927,7.4211 v 7.52142 14.4934 c 0.010405,3.96449 0.391198,10.8278 4.81272,10.8278 h 5.91577 0.732206 21.8492 c 1.02474,0 1.86281,-0.655678 1.84968,-1.81719 0.0065,-1.1336 0,-1.80926 0,-1.80926 v -18.3517 c 0,0 -0.0136,-5.71805 -0.0222,-10.0629 0.0087,-0.149548 0.0247,-0.298077 0.0247,-0.449838 v -0.150607 c 0,-4.27863 -3.51011,-7.59378 -7.86516,-7.62224 h -15.3037 -0.49217 z "/>
<g style="fill:#969696">
<ellipse cx="22.043299" cy="4.6138511" rx="4.2929702" ry="3.2339377"/>
<ellipse cx="31.420078" cy="4.6138511" rx="4.2929702" ry="3.2339377"/>
</g>
<path style="fill:#646464" d="m 13.359,11.2053 v 21.9608 0.0371 c 0.113669,2.41931 0.160152,4.81001 0.710755,6.90262 0.361862,1.37532 0.957974,2.63015 1.93823,3.62137 h 2.98311 c -1.82085,0 -2.41375,-2.20959 -2.87355,-3.95712 -0.487892,-1.85428 -0.558126,-4.17973 -0.67151,-6.60393 v -0.03706 -21.9237 z"/>
<path style="fill:#e6e6e6" d="m 5.3765,11.2053 v 21.8496 c 0.010075,3.90739 -0.00419,10.6722 4.2771,10.6722 h 6.80067 c -0.980252,-0.99122 -1.57636,-2.24605 -1.93823,-3.62137 -0.550603,-2.09261 -0.597085,-4.48331 -0.710755,-6.90262 v -0.03706 -21.9608 z "/>
<path style="fill:#c8c8c8" d="m 14.5005,11.2053 v 21.9237 0.0371 c 0.113385,2.4242 0.183619,4.74964 0.671511,6.60392 0.459798,1.74753 1.75981,3.95712 2.87355,3.95712 h 19.5656 c 1.29732,0 1.77944,-0.354997 1.79215,-1.79215 0.0062,-1.11727 0,-1.78343 0,-1.78343 v -18.0581 c 0,0 -0.016,-6.49235 -0.02398,-10.8881 z"/>
<path style="opacity:.2;fill:url(#linearGradient27)" d="M 9.11119,4.9735 C 4.89417,4.9735 1.5,8.36768 1.5,12.58469 v 0.1483 c 0,4.21701 3.39418,7.61337 7.61119,7.61337 h 8.69477 0.403343 15.0807 c 4.21701,0 7.61337,-3.39636 7.61337,-7.61337 v -0.148257 c 0,-4.21701 -3.39636,-7.61119 -7.61337,-7.61119 h -14.819 -0.477471 -8.88227 z"/>
<path style="opacity:.2;fill:url(#linearGradient25)" d="M 9.11119,4.6735 C 4.89417,4.6735 1.5,8.06768 1.5,12.28469 v 0.1483 c 0,4.21701 3.39418,7.61337 7.61119,7.61337 h 8.69477 0.403343 15.0807 c 4.21701,0 7.61337,-3.39636 7.61337,-7.61337 v -0.148257 c 0,-4.21701 -3.39636,-7.61119 -7.61337,-7.61119 h -14.819 -0.477471 -8.88227 z"/>
<path style="opacity:.3;fill:url(#linearGradient23)" d="M 9.11119,4.3735 C 4.89417,4.3735 1.5,7.76768 1.5,11.98469 v 0.1483 c 0,4.21701 3.39418,7.61337 7.61119,7.61337 h 8.69477 0.403343 15.0807 c 4.21701,0 7.61337,-3.39636 7.61337,-7.61337 v -0.148257 c 0,-4.21701 -3.39636,-7.61119 -7.61337,-7.61119 h -14.819 -0.477471 -8.88227 z"/>
<path style="fill:url(#linearGradient4219)" d="M 9.11119,3.9735 C 4.89417,3.9735 1.5,7.36768 1.5,11.58469 v 0.1483 c 0,4.21701 3.39418,7.61337 7.61119,7.61337 h 8.69477 0.403343 15.0807 c 4.21701,0 7.61337,-3.39636 7.61337,-7.61337 v -0.148257 c 0,-4.21701 -3.39636,-7.61119 -7.61337,-7.61119 h -14.819 -0.477471 -8.88227 z"/>
<path style="fill:url(#linearGradient22)" d="m 8.8642,6.0367 c 3.14134,0 5.67164,2.53083 5.67164,5.67164 0,3.14081 -2.5303,5.70895 -5.67164,5.70895 -3.14134,0 -5.70895,-2.56814 -5.70895,-5.70895 0,-3.14081 2.56761,-5.67164 5.70895,-5.67164 z "/>
</g>
<path style="fill:#314c5b" d="m 21.3358,21 c -1.19582,0 -1.56716,0.337235 -1.56716,1.52985 v 3.24627 h -3.43284 c -0.188997,0 -0.335791,0.147537 -0.335821,0.335822 v 7.68657 c 0,0.188285 0.146824,0.335821 0.335821,0.335821 h 3.43284 v 3.24627 c 0,1.19262 0.334029,1.52985 1.52985,1.52985 7.67413,0 23.0224,0 23.0224,0 0.850491,0 1.52972,-0.682566 1.52985,-1.52985 v -14.8507 c 0,-0.847285 -0.67936,-1.52985 -1.52985,-1.52985 0,0 -15.3234,0 -22.9851,0 z "/>
<path style="fill:url(#linearGradient901);fill-rule:evenodd" d="m 9.1113,3.9727 c -0.0303,0 -0.05963,0.00356 -0.089844,0.00391 4.16587,0.048358 7.50781,3.41675 7.50781,7.59375 0,4.20731 -3.38964,7.64844 -7.59766,7.64844 -1.57801,0 -3.04836,-0.483791 -4.26953,-1.31055 1.25054,0.901227 2.78336,1.4375 4.44922,1.4375 h 3.20622 c 2.63309,-0.658187 5.43441,-3.71057 5.43441,-7.67188 0,-3.96131 -2.91986,-7.25754 -5.5555,-7.70117 z "/>
<path style="fill:#1f3039" d="m 19.7687,25.7761 h -3.43284 c -0.188997,0 -0.335791,0.147537 -0.335821,0.335822 v 7.68657 c 0,0.188285 0.146824,0.335821 0.335821,0.335821 h 3.43284 z "/>
</g>
</svg>
