<svg width="48" version="1.1" xmlns="http://www.w3.org/2000/svg" height="48">
<g style="stroke:none">
<path style="fill:#7c7c7c" id="path4155" d="m 14.6102,11.0212 c -2.23019,0 -4.04012,0.368776 -4.03527,0.814814 0.0045,0.446039 -1.80509,0.814816 -4.03527,0.814816 h -0.465609 c -2.23019,0 -4.07407,1.84388 -4.07407,4.07407 v 16.2187 c 0,2.23019 1.84389,4.03527 4.07407,4.03527 h 35.8907 c 2.23019,0 4.03527,-1.80509 4.03527,-4.03527 v -16.2187 c 0,-2.23019 -1.80508,-4.07407 -4.03527,-4.07407 h -18.2751 c -2.23019,0 -4.03527,-0.368777 -4.03527,-0.814816 0,-0.446038 -1.84389,-0.814814 -4.07407,-0.814814 h -0.970018 z "/>
<circle cx="24" cy="24.795" style="fill:#e0e0e0;fill-rule:evenodd;stroke-linecap:square;stroke-width:2.5" id="path4158" r="8.7930002"/>
<path style="fill:#2de1ff" id="path4153" d="m 7.0829,14.358 c 1.39975,0 2.52205,1.1611 2.52205,2.56085 0,1.39934 -1.1223,2.52205 -2.52205,2.52205 -1.39975,0 -2.52205,-1.1223 -2.52205,-2.52205 0,-1.39975 1.1223,-2.56085 2.52205,-2.56085 z"/>
<path style="fill:#fff" id="path4151" d="m 34.4374,14.5908 8.5362,0 c 0.446039,0 0.814817,0.368777 0.814817,0.814814 v 1.39683 c 0,0.446036 -0.368778,0.814816 -0.814817,0.814816 h -8.53616 c -0.446038,0 -0.814814,-0.36878 -0.814814,-0.814816 v -1.39682 c 0,-0.446037 0.368776,-0.814814 0.814814,-0.814814 z "/>
<circle cx="24" cy="24.795" style="fill-rule:evenodd;stroke-linecap:square;stroke-width:2.5" r="4.7930002" id="circle4160"/>
</g>
</svg>
