<svg width="128" version="1.0" xmlns="http://www.w3.org/2000/svg" height="128" xmlns:xlink="http://www.w3.org/1999/xlink">
<defs id="defs16">
<linearGradient id="linearGradient4168">
<stop offset="0" style="stop-color:#fff;stop-opacity:.392" id="stop4170"/>
<stop offset="1" style="stop-color:#fff;stop-opacity:0" id="stop4172"/>
</linearGradient>
<linearGradient xlink:href="#linearGradient4168" id="linearGradient4174" y1="23.54096" x1="18.0989" y2="78.462845" x2="58.963066" gradientUnits="userSpaceOnUse"/>
</defs>
<g style="fill-rule:evenodd">
<g style="stroke:none">
<g id="g11">
<path style="opacity:.65;fill:#fff" id="path4163" d="m 11.2207,5.4863 c -4.60555,0 -9.17188,4.0145 -9.17187,9.4375 l -0,78.0762 h -2.04883 v 7 8.24454 c 0,4.30349 4.0005,7.75508 7.8125,7.75508 h 112.375 c 3.812,0 7.8118,-3.41812 7.8125,-7.75508 v -8.24454 -7 h -1.65039 v -78.0762 c 0,-5.423 -4.34931,-9.4375 -9.07031,-9.4375 z "/>
<path id="path4871" d="m 12.4997,8.6252 c -1.90391,0 -3.74912,0.63995 -5.09375,1.9375 -1.33738,1.29055 -2,3.09835 -2,4.96875 v 74.0875 h 117.188 l -.0001,-74.1188 c 0,-1.83481 -0.62837,-3.6427 -1.96875,-4.9375 -1.34821,-1.3024 -3.20289,-1.93563 -5.12495,-1.9375 h -103 z "/>
<path style="fill:#7fff2a" id="path4869" d="m 64.25,10.969 c 2.35683,0 4.25,1.92442 4.25,4.28125 0,2.35683 -1.89317,4.25 -4.25,4.25 -2.35683,0 -4.28125,-1.89317 -4.28125,-4.25 0,-2.35683 1.92442,-4.28125 4.28125,-4.28125 z"/>
<path style="fill:#2d79d7" id="path4673" d="m 17.1872,20.2502 93.9066,0 0,64.3371 -93.9066,0 z"/>
</g>
<path style="fill:url(#linearGradient4174)" id="path4162" d="m 17.1872,20.2502 0,64.3371 5.0996,0 C 54.589,69.5453 84.8504,46.838 111.0938,21.3459 l 0,-1.0957 -93.4063,0 z"/>
</g>
<g style="stroke-linecap:round;stroke-width:0;stroke-linejoin:round;stroke:#fff">
<path id="path4160" d="m 3,93 0,5.9094 0,8.109 c 0,3.27696 2.46787,5.90938 5.53999,5.90938 h 110.92 c 3.07211,0 5.48714,-2.63291 5.53999,-5.90938 v -8.10899 -5.90937 z "/>
<g id="g17" transform="matrix(0.99999999,0,0,1.2043005,4.8702895e-7,-18.999944)">
<path style="fill:#fff" id="path4873" d="m 46.5448,93.0914 34.9239,.0024 0,5.8125 -34.9375,0 z "/>
</g>
</g>
</g>
</svg>
