<svg width="48" version="1.1" xmlns="http://www.w3.org/2000/svg" height="48">
<rect width="28" x="10" y="10" rx="3" height="28" style="fill:#2c3e50"/>
<g style="fill:#e5b700">
<rect width="7" x="2" y="15" rx="2" height="4"/>
<path d="m 6,15 h 3 v 4 H 6 Z"/>
<rect width="7" x="2" y="22" rx="2" height="4"/>
<path d="m 6,22 h 3 v 4 H 6 Z"/>
<rect width="7" x="2" y="29" rx="2" height="4"/>
<path d="m 6,29 h 3 v 4 H 6 Z"/>
<rect width="7" x="-46" y="15" rx="2" height="4" transform="scale(-1,1)"/>
<path d="m 42,15 h -3 v 4 h 3 z"/>
<rect width="7" x="-46" y="22" rx="2" height="4" transform="scale(-1,1)"/>
<path d="m 42,22 h -3 v 4 h 3 z"/>
<rect width="7" x="-46" y="29" rx="2" height="4" transform="scale(-1,1)"/>
<path d="m 42,29 h -3 v 4 h 3 z"/>
<rect width="7" x="2" y="15" rx="2" height="4" transform="matrix(0,1,1,0,0,0)"/>
<path d="m 15,6 v 3 h 4 V 6 Z"/>
<rect width="7" x="2" y="22" rx="2" height="4" transform="matrix(0,1,1,0,0,0)"/>
<path d="m 22,6 v 3 h 4 V 6 Z"/>
<rect width="7" x="2" y="29" rx="2" height="4" transform="matrix(0,1,1,0,0,0)"/>
<path d="m 29,6 v 3 h 4 V 6 Z"/>
<rect width="7" x="-46" y="15" rx="2" height="4" transform="rotate(-90)"/>
<path d="m 15,42 v -3 h 4 v 3 z"/>
<rect width="7" x="-46" y="22" rx="2" height="4" transform="rotate(-90)"/>
<path d="m 22,42 v -3 h 4 v 3 z"/>
<rect width="7" x="-46" y="29" rx="2" height="4" transform="rotate(-90)"/>
<path d="m 29,42 v -3 h 4 v 3 z"/>
</g>
</svg>
