<svg width="96" version="1.0" xmlns="http://www.w3.org/2000/svg" height="96">
<g style="color:#000">
<path style="fill:#7c7c7c" d="m 12,6 h 72 c 3.324,0 6,2.676 6,6 v 71.887093 c 0,3.324 -2.676,6 -6,6 l -72,0 c -3.324,0 -6,-2.676 -6,-6 V 12 C 6,8.676 8.676,6 12,6 Z"/>
<path style="opacity:.4" d="m 46,18.4 c -13.2548,0 -24,9.40202 -24,21 0,11.598 10.7452,21 24,21 4.206925,0 20.094,-7.931 20.094,-7.931 l 0,-1.60025 -3.7188,-1.875 -11.7188,-5.9062 c -0.08947,-0.04155 -0.173443,-0.09404 -0.25,-0.15625 -1.0944,1.04825 -2.65388,1.71875 -4.40625,1.71875 -3.31371,0 -6,-2.35051 -6,-5.25 0,-2.89949 2.68629,-5.25 6,-5.25 1.76972,0 3.34182,0.68358 4.4375,1.75 0.06508,-0.0711 0.138531,-0.13406 0.21875,-0.1875 L 66.094,29.531 66.0938,27.93135 C 61.80925,22.19699 54.4139,18.4001 46,18.4001 Z M 69.7812,28.9 66.118351,30.668369 54.1874,36.775 v 1.6 l 11.7188,9.5562 3.875,1.9688 c 4.28719,-6.49742 4.28719,-14.5026 0,-21 z"/>
<path style="fill:#fff" d="m 46,20 c -13.2548,0 -24,9.40202 -24,21 0,11.598 10.7452,21 24,21 8.41385,0 15.8094,-3.79664 20.094,-9.531 l -3.719,-1.87525 -11.7188,-5.9062 c -0.08947,-0.04155 -0.173443,-0.09404 -0.25,-0.15625 -1.0944,1.04825 -2.65388,1.71875 -4.40625,1.71875 -3.31371,0 -6,-2.35051 -6,-5.25 0,-2.89949 2.68629,-5.25 6,-5.25 1.76972,0 3.34182,0.68358 4.4375,1.75 0.06508,-0.0711 0.138531,-0.13406 0.21875,-0.1875 L 62.375,31.40635 66.094,29.531 C 61.80945,23.79664 54.4139,20 46,20 Z m 23.7812,10.5 -3.875,1.9688 -11.7192,5.9062 c 0.510532,0.772217 0.8129,1.66873 0.8129,2.625 0,0.956275 -0.301968,1.85278 -0.8125,2.625 l 11.7188,5.9062 3.875,1.9688 c 4.28719,-6.49742 4.28719,-14.5026 0,-21 z"/>
<path style="opacity:.3" d="m 24.0933,83.9777 a 4.32102,4.32102 0 0 1 -8.64204,0 4.32102,4.32102 0 1 1 8.64204,0 z"/>
<path style="fill:#2de1ff" d="m 23.0443,83.9777 a 3.27195,3.27195 0 0 1 -6.5439,0 3.27195,3.27195 0 1 1 6.5439,0 z"/>
<rect width="83.696457" x="6.2248263" y="76.044968" rx="6.0297518" ry="0.14412965" height="2.0820873" style="fill:#fff;fill-rule:evenodd"/>
</g>
<path style="fill:#e5a800;stroke-width:.984" d="m 60,69 v 21 l 30,0 V 69 Z"/>
<path style="fill:#d9d9d9;fill-rule:evenodd;stroke-width:.846" d="m 75.6319,50.7841 c -6.64273,0 -11.2189,5.08239 -11.2189,11.337 v 6.87897 h 5.55022 l -.0293,-5.9342 c -0.01863,-3.77533 1.8895,-6.61325 5.66851,-6.61325 3.779,0 5.65037,2.93899 5.6685,6.61325 l .0293,5.9342 h 5.52107 v -6.87897 c 0,-6.25461 -4.60561,-11.337 -11.1894,-11.337 z "/>
</svg>
