<svg width="48" version="1.1" xmlns="http://www.w3.org/2000/svg" height="48">
<path style="opacity:.6" d="M 24,2 C 11.2929,2 1,12.2929 1,25 1,37.7072 11.2929,48 24,48 36.7072,48 47,37.7072 47,25 47,12.2929 36.7072,2 24,2 Z m 0,19.2266 c 2.09091,0 3.77332,1.68236 3.77332,3.77347 0,2.09091 -1.68241,3.77332 -3.77332,3.77332 -2.09111,0 -3.77345,-1.68241 -3.77345,-3.77332 0,-2.09111 1.68236,-3.77347 3.77345,-3.77347 z"/>
<path style="fill:#ecf0f1" d="M 24,1 C 11.2929,1 1,11.2929 1,24 1,36.7072 11.2929,47 24,47 36.7072,47 47,36.7072 47,24 47,11.2929 36.7072,1 24,1 Z m 0,19.2266 c 2.09091,0 3.77332,1.68236 3.77332,3.77347 0,2.09091 -1.68241,3.77332 -3.77332,3.77332 -2.09111,0 -3.77345,-1.68241 -3.77345,-3.77332 0,-2.09111 1.68236,-3.77347 3.77345,-3.77347 z"/>
<path style="fill:#b2b2b2" d="m 23.9891,15.0741 c -4.91681,0 -8.91488,3.99807 -8.91488,8.91489 0,4.9167 3.99807,8.91489 8.91488,8.91489 4.9167,0 8.91489,-3.99819 8.91489,-8.91489 0,-4.91681 -3.99819,-8.91488 -8.91489,-8.91488 z m 0,5.0785 c 2.12591,0 3.83626,1.7104 3.83626,3.83633 0,2.12591 -1.71035,3.83626 -3.83626,3.83626 -2.12593,0 -3.83633,-1.71035 -3.83633,-3.83626 0,-2.12593 1.7104,-3.83633 3.83633,-3.83633 z"/>
<g style="fill:#91a8be">
<path style="opacity:.6" d="m 29.7579,32.5719 c 1.56411,-1.09124 2.00815,-1.78833 2.62629,-2.56382 l 9.2206,6.6135 c -1.39363,2.17107 -3.04015,4.06349 -5.3097,5.36073 z"/>
<path style="opacity:.6" d="m 18.2212,15.3972 c -1.61128,1.13621 -2.06871,1.86205 -2.70549,2.66951 l -9.4986,-6.8861 C 7.45275,8.92003 9.14895,6.94959 11.48694,5.59891 Z"/>
</g>
</svg>
