<svg width="96" version="1.0" xmlns="http://www.w3.org/2000/svg" height="96">
<g style="stroke:none;color:#000" id="g16">
<path style="fill:#464646" id="rect3171" d="m 12,6 72,0 c 3.324,0 6,2.676 6,6 l 0,71.887093 c 0,3.324 -2.676,6 -6,6 l -72,0 c -3.324,0 -6,-2.676 -6,-6 L 6,12 C 6,8.676 8.676,6 12,6 Z"/>
<path style="opacity:.3" id="path4053" d="m 24.0933,83.9777 a 4.32102,4.32102 0 0 1 -8.64204,0 4.32102,4.32102 0 1 1 8.64204,0 z"/>
<path style="fill:#2de1ff" id="path3364" d="m 23.0443,83.9777 a 3.27195,3.27195 0 0 1 -6.5439,0 3.27195,3.27195 0 1 1 6.5439,0 z"/>
<g style="fill:#fff" id="g21">
<rect width="83.696457" x="6.2248263" y="76.044968" rx="6.0297518" ry="0.14412965" height="2.0820873" style="fill-rule:evenodd" id="rect3082"/>
<path id="rect5391" d="m 50.1261,12.9653 4.8252,7.6116 -3.2621,0 0,21.4078 c 0.452653,0 4.89504,-4.2163 6.38835,-6.11651 0.645198,-0.820991 1.01942,-1.95828 1.01942,-3.05825 0,-1.65902 0.602743,-2.03884 -0.747576,-2.03884 h -1.49513 v -7.74757 h 8.15533 v 7.74757 h -1.29126 c -1.17665,0.12908 -2.02058,0.742958 -2.24271,2.58252 -0.331283,2.74348 -1.57016,4.54436 -6.18446,8.90291 l -3.6019,3.6019 v 13.0485 l 1.0195,.5437 c 0.725299,0.328115 1.74714,1.41091 2.24271,2.37863 1.76623,3.4489 -0.708391,7.13593 -4.75728,7.13593 -2.93403,-0.100667 -5.02912,-1.51512 -5.02912,-4.28155 0,-3.25412 1.10082,-4.09683 2.51457,-5.23301 1.13495,-0.513426 1.37413,-0.863389 1.35921,-2.51457 -0.01669,-1.8247 -0.264817,-1.61767 -3.87378,-4.55339 -5.51024,-4.48233 -6.21699,-5.56043 -6.86407,-10.0582 -0.477252,-3.31723 -0.125157,-2.52981 -1.49515,-3.80583 -2.52161,-2.34859 -2.11835,-5.8595 0.883496,-7.3398 2.70426,-1.33356 5.94412,0.09005 6.93204,3.05826 0.486915,1.46293 -0.743237,4.01758 -2.31068,4.8932 -1.43436,0.801292 -2.02704,-0.507135 -1.69902,2.4466 0.181563,1.63481 0.660249,3.48254 1.01942,4.14563 0.616861,1.13883 6.68274,6.52427 7.3398,6.52427 v -31.6699 h -3.39807 c 1.54882,-2.51842 3.05308,-5.07807 4.55341,-7.61164 z "/>
</g>
</g>
</svg>
