<svg width="48" version="1.1" xmlns="http://www.w3.org/2000/svg" height="48">
<g id="g9">
<path style="fill:#5a5a5a" id="path4189" d="m 17.3954,32.1125 c -0.321838,0 -0.577033,0.254696 -0.577033,0.577032 v 14.2335 c 0,0.322336 0.254795,0.577033 0.576633,0.577033 h 13.137 c 0.853818,0 1.27703,-0.452159 1.27703,-1.27707 v -13.5335 c 0,-0.322336 -0.255195,-0.577032 -0.577032,-0.577032 z  m 3.0973,9.2005 h 3.1416 v 3.1416 h -3.1416 z  m 5.1292,0 h 3.1416 v 3.1416 h -3.1416 z "/>
<rect width="12.309719" x="17.845297" y="-46.683613" height="13.335554" style="opacity:.715;fill:none" id="rect3458" transform="scale(1,-1)"/>
<path style="fill:#c8c8c8" id="rect3448" d="m 17.3963,31.2745 c -0.321837,0 -0.577032,0.254696 -0.577032,0.577032 v 14.2335 c 0,0.322336 0.255195,0.577033 0.577032,0.577033 h 13.2076 c 0.321837,0 0.577032,-0.254697 0.577032,-0.577033 v -14.2335 c 0,-0.322336 -0.255195,-0.577032 -0.577032,-0.577032 h -13.2076 z  m 2.4684,9.2005 3.1416,0 0,3.1416 -3.1416,0 0,-3.1416 z  m 5.1292,0 3.1416,0 0,3.1416 -3.1416,0 0,-3.1416 z "/>
<path style="fill:#69470f" id="path4146" d="m 15.4088,0.5 c -0.925609,0 -1.66695,0.745428 -1.66695,1.66695 v 34.3956 c 0,0.921529 0.741348,1.66695 1.66695,1.66695 H 32.492 c 1.258,0 2.36655,-0.9795 2.36655,-2.3665 V 2.16695 C 34.85855,1.24542 34.117201,0.5 33.1916,0.5 Z"/>
<path style="fill:#e09924" id="path4152" d="m 15.4088,0.5 c -0.925609,0 -1.66695,0.745428 -1.66695,1.66695 l 0,33.5956 c 0,0.921529 0.741348,1.66695 1.66695,1.66695 l 17.1825,0 c 0.925609,0 1.66695,-0.745428 1.66695,-1.66695 l 0,-33.5956 C 34.25825,1.24542 33.516902,0.5 32.5913,0.5 l -17.1825,0 z"/>
<path style="opacity:.35" id="path4149" d="m 23.6781,1.4584 2.8915,4.5612 0,1 -1.9548,-1 0,12.8285 c 0.271249,0 2.93332,-2.52659 3.82818,-3.66528 0.386632,-0.491974 0.61088,-1.17349 0.61088,-1.83264 0,-0.994156 0.361191,-1.22176 -0.447977,-1.22176 h -0.895957 v -4.64268 h 4.88703 v 4.64268 h -0.77378 c -0.705099,0.07735 -1.21082,0.445213 -1.34393,1.54756 -0.198521,1.64401 -0.940909,2.72318 -3.706,5.33501 l -2.1584,2.1584 v 7.81925 l .6109,.3258 c 0.434631,0.19662 1.08129,0.829141 1.34393,1.42538 1.33165,3.02311 -0.424498,4.676 -2.85077,4.676 -1.7582,-0.06032 -3.01367,-0.907927 -3.01367,-2.56569 0,-1.95001 0.659665,-2.85485 1.50684,-3.5357 0.68011,-0.307668 0.823442,-0.517381 0.814504,-1.50684 -0.01,-1.09344 -0.158695,-0.969381 -2.32134,-2.72859 -3.30198,-2.68601 -3.72549,-3.33205 -4.11325,-6.02734 -0.285988,-1.98783 -0.07497,-1.51597 -0.895956,-2.28062 -1.51106,-1.40738 -1.26941,-3.51127 0.529428,-4.39833 1.62051,-0.799126 3.56198,0.05396 4.15398,1.83264 0.291775,0.876652 -0.445387,2.40751 -1.38466,2.93222 -0.859529,0.48017 -1.21469,-0.303897 -1.01813,1.46611 0.108796,0.979651 0.395652,2.08689 0.610879,2.48424 0.369649,0.682437 4.00459,3.90963 4.39833,3.90963 v -18.978 l -2.0363,1 v -1 c 0.92812,-1.50915 1.82954,-3.043 2.7286,-4.56123 z "/>
<path style="fill:#fff" id="rect5391" d="m 23.6781,2.4585 2.8915,4.5612 -1.9548,0 0,12.8285 c 0.271249,0 2.93332,-2.52659 3.82818,-3.66528 0.386632,-0.491974 0.61088,-1.17349 0.61088,-1.83264 0,-0.994156 0.361191,-1.22176 -0.447977,-1.22176 h -0.895957 v -4.64268 h 4.88703 v 4.64268 h -0.77378 c -0.705099,0.07735 -1.21082,0.445213 -1.34393,1.54756 -0.198521,1.64401 -0.940909,2.72318 -3.706,5.33501 l -2.1584,2.1584 v 7.81925 l .6109,.3258 c 0.434631,0.19662 1.04696,0.845476 1.34393,1.42538 1.0584,2.06673 -0.424498,4.27616 -2.85077,4.27616 -1.7582,-0.06032 -3.01367,-0.907927 -3.01367,-2.56569 0,-1.95001 0.659665,-2.455 1.50684,-3.13585 0.68011,-0.307668 0.823442,-0.517381 0.814504,-1.50684 -0.01,-1.09344 -0.158695,-0.969381 -2.32134,-2.72859 -3.30198,-2.68601 -3.72549,-3.33205 -4.11325,-6.02734 -0.285988,-1.98783 -0.07497,-1.51597 -0.895956,-2.28062 -1.51106,-1.40738 -1.26941,-3.51127 0.529428,-4.39833 1.62051,-0.799126 3.56198,0.05396 4.15398,1.83264 0.291775,0.876652 -0.445387,2.40751 -1.38466,2.93222 -0.859529,0.48017 -1.21469,-0.303897 -1.01813,1.46611 0.108796,0.979651 0.395652,2.08689 0.610879,2.48424 0.369649,0.682437 4.00459,3.90963 4.39833,3.90963 v -18.978 h -2.03627 c 0.92812,-1.50915 1.82954,-3.043 2.7286,-4.56123 z "/>
</g>
</svg>
