<svg width="96" version="1.0" xmlns="http://www.w3.org/2000/svg" height="96">
<g style="stroke:none;color:#000" id="g16">
<path style="fill:#464646" id="rect3171" d="m 12,6 72,0 c 3.324,0 6,2.676 6,6 l 0,71.887093 c 0,3.324 -2.676,6 -6,6 l -72,0 c -3.324,0 -6,-2.676 -6,-6 L 6,12 C 6,8.676 8.676,6 12,6 Z"/>
<g style="stroke-width:.5" id="g19">
<path style="opacity:.2" id="path3868" d="m 45.7659,20 c -13.5652,0 -24.5619,9.69824 -24.5619,21.6616 0,11.9634 10.9967,21.6616 24.5619,21.6616 8.61085,0 16.1794,-3.91651 20.5642,-9.83154 l -3.8058,-1.9341 -11.9931,-6.0923 a 1.22173,1.23139 0 0,1 -0.255853,-0.161173 c -1.12002,1.08128 -2.71602,1.7729 -4.50942,1.7729 -3.39129,0 -6.14048,-2.42456 -6.14048,-5.41541 0,-2.99085 2.74919,-5.41541 6.14048,-5.41541 1.81115,0 3.42007,0.705117 4.5414,1.80514 a 1.22173,1.23139 0 0,1 0.223871,-0.193407 l 11.9931,-6.0923 3.8058,-1.9341 c -4.38487,-5.91503 -11.9534,-9.83154 -20.5642,-9.83154 z  m 24.3381,10.8308 -3.9657,2.0308 -11.9931,6.0923 c 0.522486,0.796546 0.831524,1.7213 0.831524,2.7077 0,0.986403 -0.309038,1.91116 -0.831524,2.7077 l 11.9931,6.0923 3.9657,2.0308 c 4.38756,-6.70213 4.38756,-14.9595 0,-21.6616 z "/>
<path style="fill:#fff" id="path3942" d="m 46,20 c -13.2548,0 -24,9.40202 -24,21 0,11.598 10.7452,21 24,21 8.41385,0 15.8092,-3.79689 20.0938,-9.53125 l -3.7188,-1.875 -11.7188,-5.9062 a 1.19378,1.19378 0 0,1 -0.25,-0.15625 c -1.0944,1.04825 -2.65388,1.71875 -4.40625,1.71875 -3.31371,0 -6,-2.35051 -6,-5.25 0,-2.89949 2.68629,-5.25 6,-5.25 1.76972,0 3.34182,0.68358 4.4375,1.75 a 1.19378,1.19378 0 0,1 0.21875,-0.1875 l 11.7188,-5.9062 3.7188,-1.875 c -4.28455,-5.73436 -11.6799,-9.53125 -20.0938,-9.53125 z  m 23.7812,10.5 -3.875,1.9688 l -11.7188,5.9062 c 0.510532,0.772217 0.8125,1.66873 0.8125,2.625 0,0.956275 -0.301968,1.85278 -0.8125,2.625 l 11.7188,5.9062 3.875,1.9688 c 4.28719,-6.49742 4.28719,-14.5026 0,-21 z "/>
</g>
<path style="opacity:.3" id="path4053" d="m 24.0933,83.9777 a 4.32102,4.32102 0 0,1 -8.64204,0 4.32102,4.32102 0 1,1 8.64204,0 z "/>
<path style="fill:#2de1ff" id="path3364" d="m 23.0443,83.9777 a 3.27195,3.27195 0 1,1 -6.5439,0 3.27195,3.27195 0 1,1 6.5439,0 z "/>
<rect width="83.696457" x="6.2248263" y="76.044968" rx="6.0297518" height="2.0820873" ry="0.14412965" style="fill:#fff;fill-rule:evenodd" id="rect3082"/>
</g>
</svg>
