<svg width="96" version="1.0" xmlns="http://www.w3.org/2000/svg" height="96">
<g style="color:#000">
<path style="fill:#505050" d="m 5,0 h 60 c 2.77,0 5,2.23 5,5 v 59.9059 c 0,2.77 -2.23,5 -5,5 H 5 c -2.77,0 -5,-2.23 -5,-5 V 5 C 0,2.23 2.23,0 5,0 Z"/>
<path style="opacity:.3" d="m 16.518,64.2616 a 4.321,4.321 0 0 1 -8.642,0 4.321,4.321 0 1 1 8.642,0 z"/>
<path style="fill:#2de1ff" d="m 15.469,64.2616 a 3.27195,3.27195 0 0 1 -6.5439,0 3.27195,3.27195 0 1 1 6.5439,0 z"/>
<rect width="69.747047" x="0.18735528" y="55.523998" rx="5.0247931" height="2.082" ry="0.14412363" style="fill:#fff;fill-rule:evenodd"/>
<path style="fill:#7c7c7c" d="m 31,26.0941 h 60 c 2.77,0 5,2.23 5,5 V 91 c 0,2.77 -2.23,5 -5,5 H 31 c -2.77,0 -5,-2.23 -5,-5 V 31.0941 c 0,-2.77 2.23,-5 5,-5 z"/>
<path style="opacity:.4" d="m 60.7336,30.5313 c -12.4763,0 -22.5904,8.84982 -22.5904,19.7666 0,10.9168 10.1141,19.7666 22.5904,19.7666 3.95985,0 18.9138,-7.4652 18.9138,-7.4652 l .7621,-1.1001 -15.5285,-7.8774 c -1.03012,0.986685 -2.49801,1.6178 -4.14746,1.6178 -3.11909,0 -5.64761,-2.21246 -5.64761,-4.94166 0,-2.7292 2.52852,-4.94166 5.64761,-4.94166 1.66578,0 3.14555,0.643432 4.17688,1.64722 0.06126,-0.06692 0.130395,-0.126186 0.205902,-0.176487 l 14.5311,-5.8185 .8176,-.4449 -.8178,-1.0608 c -4.03291,-5.39757 -10.9939,-8.97146 -18.9137,-8.97146 Z  m 22.3845,9.8833 -15.7187,7.901 1.0407,1.0175 11.0305,8.9949 3.6474,1.8532 c 4.03539,-6.11581 4.03539,-13.6508 0,-19.7666 z "/>
<path style="fill:#fff" d="m 60.7336,32.0374 c -12.4763,0 -22.5904,8.84982 -22.5904,19.7666 0,10.9168 10.1141,19.7666 22.5904,19.7666 7.91969,0 14.8809,-3.57366 18.9138,-8.97123 l -14.7664,-7.4715 c -1.03012,0.986684 -2.49801,1.6178 -4.14746,1.6178 -3.11909,0 -5.64761,-2.21246 -5.64761,-4.94166 0,-2.7292 2.52852,-4.94166 5.64761,-4.94166 1.66578,0 3.14555,0.643432 4.17688,1.64722 l 14.737,-7.501 c -4.03291,-5.39757 -10.9941,-8.97113 -18.9138,-8.97113 Z  m 22.3845,9.8833 -14.6783,7.4125 c 0.480547,0.726863 0.765157,1.57072 0.765157,2.47083 0,0.900111 -0.284233,1.74396 -0.764781,2.47083 l 14.6779,7.4125 c 4.03539,-6.11581 4.03539,-13.6508 0,-19.7666 z "/>
<path style="opacity:.3" d="m 42.518,90.3562 a 4.321,4.321 0 0 1 -8.642,0 4.321,4.321 0 1 1 8.642,0 z"/>
<path style="fill:#2de1ff" d="m 41.469,90.3562 a 3.27195,3.27195 0 0 1 -6.54389,0 3.27195,3.27195 0 1 1 6.54389,0 z"/>
<rect width="69.747047" x="26.187355" y="81.617996" rx="5.0247931" ry="0.14412361" height="2.082" style="fill:#fff;fill-rule:evenodd"/>
</g>
</svg>
