<svg width="96" version="1.0" xmlns="http://www.w3.org/2000/svg" height="96">
<g style="color:#000;stroke:none">
<path style="fill:#505050" id="rect3171-5" d="m 5,0 60,0 c 2.77,0 5,2.23 5,5 l 0,59.9059 c 0,2.77 -2.23,5 -5,5 l -60,0 c -2.77,0 -5,-2.23 -5,-5 L 0,5 C 0,2.23 2.23,0 5,0 Z"/>
<path style="opacity:.3" id="path4053-5" d="m 16.518,64.2616 a 4.321,4.321 0 0 1 -8.642,0 4.321,4.321 0 1 1 8.642,0 z"/>
<path style="fill:#2de1ff" id="path3364-4" d="m 15.469,64.2616 a 3.27195,3.27195 0 0,1 -6.5439,0 3.27195,3.27195 0 1,1 6.5439,0 z "/>
<rect width="69.747047" x="0.18735528" y="55.523998" rx="5.0247931" height="2.082" ry="0.14412363" style="fill:#fff;fill-rule:evenodd" id="rect3082-8"/>
<path style="fill:#7c7c7c" id="rect3171" d="m 31,26.0941 60,0 c 2.77,0 5,2.23 5,5 v 59.9059 c 0,2.77 -2.23,5 -5,5 h -60 c -2.77,0 -5,-2.23 -5,-5 v -59.9059 c 0,-2.77 2.23,-5 5,-5 z "/>
<g style="stroke-width:.5" id="g19" transform="matrix(0.9412682,0,0,0.9412682,17.435312,13.212007)">
<path style="opacity:.4" id="path4165" d="m 46,18.4 c -13.2548,0 -24,9.40202 -24,21 0,11.598 10.7452,21 24,21 4.206925,0 20.094,-7.931 20.094,-7.931 l -2e-4,-1.60025 -3.7188,-1.875 -11.7188,-5.9062 c -0.08947,-0.04155 -0.173443,-0.09404 -0.25,-0.15625 -1.0944,1.04825 -2.65388,1.71875 -4.40625,1.71875 -3.31371,0 -6,-2.35051 -6,-5.25 0,-2.89949 2.68629,-5.25 6,-5.25 1.76972,0 3.34182,0.68358 4.4375,1.75 0.06508,-0.0711 0.138531,-0.13406 0.21875,-0.1875 L 66.094,29.531 66.0938,27.93135 C 61.80925,22.19699 54.4139,18.4001 46,18.4001 Z M 69.7812,28.9 66.118351,30.668369 54.1874,36.775 l 0,1.6 11.7188,9.5562 3.875,1.9688 c 4.28719,-6.49742 4.28719,-14.5026 0,-21 z"/>
<path style="fill:#fff" id="path3942" d="m 46,20 c -13.2548,0 -24,9.40202 -24,21 0,11.598 10.7452,21 24,21 8.41385,0 15.8094,-3.79664 20.094,-9.531 l -3.719,-1.87525 -11.7188,-5.9062 c -0.08947,-0.04155 -0.173443,-0.09404 -0.25,-0.15625 -1.0944,1.04825 -2.65388,1.71875 -4.40625,1.71875 -3.31371,0 -6,-2.35051 -6,-5.25 0,-2.89949 2.68629,-5.25 6,-5.25 1.76972,0 3.34182,0.68358 4.4375,1.75 0.06508,-0.0711 0.138531,-0.13406 0.21875,-0.1875 L 62.375,31.40635 66.094,29.531 C 61.80945,23.79664 54.4139,20.0001 46,20.0001 Z m 23.7812,10.5 -3.875,1.9688 -11.7192,5.9062 c 0.510532,0.772217 0.8129,1.66873 0.8129,2.625 0,0.956275 -0.301968,1.85278 -0.8125,2.625 l 11.7188,5.9062 3.875,1.9688 c 4.28719,-6.49742 4.28719,-14.5026 0,-21 z"/>
</g>
<path style="opacity:.3" id="path4053" d="m 42.518,90.3562 a 4.321,4.321 0 0 1 -8.642,0 4.321,4.321 0 1 1 8.642,0 z"/>
<path style="fill:#2de1ff" id="path3364" d="m 41.469,90.3562 a 3.27195,3.27195 0 0,1 -6.54389,0 3.27195,3.27195 0 1,1 6.54389,0 z "/>
<rect width="69.747047" x="26.187355" y="81.617996" rx="5.0247931" ry="0.14412361" height="2.082" style="fill:#fff;fill-rule:evenodd" id="rect3082"/>
</g>
</svg>
