<svg width="48" version="1.1" xmlns="http://www.w3.org/2000/svg" height="48" xmlns:xlink="http://www.w3.org/1999/xlink">
<defs>
<linearGradient id="linearGradient10">
<stop offset="0" style="stop-color:#e8a945"/>
<stop offset="1" style="stop-color:#bf7f17"/>
</linearGradient>
<linearGradient id="linearGradient9168">
<stop offset="0" style="stop-color:#ebebeb"/>
<stop offset="0.49" style="stop-color:#ebebeb"/>
<stop offset="0.51" style="stop-color:#c7c7c7"/>
<stop offset="1" style="stop-color:#c7c7c7"/>
</linearGradient>
<linearGradient xlink:href="#linearGradient9168" id="linearGradient9170" y1="38.968283" x1="16.819268" y2="38.968283" x2="31.180932" gradientUnits="userSpaceOnUse"/>
<linearGradient xlink:href="#linearGradient10" id="linearGradient11" y1="33.929001" x1="12.5" y2="33.929001" x2="35.5" gradientUnits="userSpaceOnUse"/>
</defs>
<path style="fill:#5a5a5a" d="m 17.3963,31.2745 c -0.321837,0 -0.577032,0.254696 -0.577032,0.577032 V 46.685 c 0,0.322336 0.255195,0.577033 0.577032,0.577033 H 30.903 c 0.413114,0 0.877466,-0.425317 0.877466,-0.877033 V 31.851532 c 0,-0.322336 -0.255195,-0.577032 -0.577032,-0.577032 z"/>
<path style="fill:#64430e" d="m 18,39.7467 h 12 v 6.11486 h -12 Z "/>
<path style="fill:url(#linearGradient9170)" d="m 17.3963,31.2745 c -0.321837,0 -0.577032,0.254696 -0.577032,0.577032 v 14.2335 c 0,0.322336 0.255195,0.577033 0.577032,0.577033 h 13.2076 c 0.321837,0 0.577032,-0.254697 0.577032,-0.577033 v -14.2335 c 0,-0.322336 -0.255195,-0.577032 -0.577032,-0.577032 z M 19,41 H 23 v 3 H 19 Z M 25,41 h 4 v 3 h -4 z"/>
<path style="fill:#69470f" d="m 16.5,1 h 15.6 c 2.216,0 4,1.784 4,4 v 29.229 c 0,2.216 -2.084,4.300202 -4.3,4.300125 H 16.5 c -2.216,0 -4,-1.784 -4,-4 V 5 c 0,-2.216 1.784,-4 4,-4 z"/>
<path style="fill:url(#linearGradient11)" d="m 16.5,1 h 15 c 2.216,0 4,1.784 4,4 v 28.929001 c 0,2.216 -1.784,4 -4,4 h -15 c -2.216,0 -4,-1.784 -4,-4 V 5 c 0,-2.216 1.784,-4 4,-4 z"/>
<path style="opacity:.35" d="m 23.6777,1.559 -3.7287,5.441 h 3.03733 v 18.098 c -2.34373,-1.72165 -4.81725,-3.35655 -5.00977,-6.39453 -0.04766,-0.429204 -0.06142,-0.703371 -0.04492,-0.886719 l 2.6387,-2.0726 v -0.9 c 0,-1.65685 -1.34315,-3 -3,-3 -1.65685,0 -3,1.34315 -3,3 l .0012,.9814 1.7801,1.7569 c 0.07832,0.229271 0.102348,0.611894 0.240235,1.57031 0.38776,2.69529 0.811301,3.34133 4.11328,6.02734 2.16265,1.75921 2.31227,1.63508 2.32227,2.72852 0.0035,0.392947 -0.02128,0.659362 -0.08984,0.861328 -1.45013,0.462011 -2.43662,1.70816 -2.43753,3.23008 0,0.966499 0,1 0,1 h 7 c 0,0 0,-0.03357 0,-1 0,-1.69559 -1.21557,-3.04726 -2.88477,-3.34531 v -7.38477 l 2.1582,-2.1582 c 2.76509,-2.61183 3.62804,-3.69193 3.82656,-5.33594 0.13311,-1.10235 0.616901,-1.46953 1.322,-1.54688 h 0.675656 v -4.74368 h -4.88867 v 4.74368 h 0.796016 c 1.10086,0 0.570261,2.1936 -0.06164,3.05469 -0.856822,1.16758 -3.55688,3.66406 -3.82812,3.66406 v -11.9476 h 2.85477 Z "/>
<path style="fill:#fff" d="m 23.6777,2.459 -3.0287,4.541 h 2.33733 v 18.998 c -2.34373,-1.72165 -4.81725,-3.35655 -5.00977,-6.39453 -0.04766,-0.429204 -0.06142,-0.703371 -0.04492,-0.886719 1.50398,-0.18247 2.63589,-1.45765 2.63867,-2.97266 0,-1.65685 -1.34315,-3 -3,-3 -1.65685,0 -3,1.34315 -3,3 0.0012,1.18434 0.699041,2.25714 1.78125,2.73828 0.07832,0.229271 0.102348,0.611894 0.240235,1.57031 0.38776,2.69529 0.811301,3.34133 4.11328,6.02734 2.16265,1.75921 2.31227,1.63508 2.32227,2.72852 0.0035,0.392947 -0.02128,0.659362 -0.08984,0.861328 -1.45011,0.462011 -2.43544,1.80816 -2.4375,3.33008 0,1.933 1.567,3.5 3.5,3.5 1.933,0 3.5,-1.567 3.5,-3.5 0,-1.69559 -1.21557,-3.14726 -2.88477,-3.44531 v -7.38477 l 2.1582,-2.1582 c 2.76509,-2.61183 3.62804,-3.69193 3.82656,-5.33594 0.13311,-1.10235 0.616901,-1.46953 1.322,-1.54688 h 0.675656 v -4.84375 h -4.88867 v 4.84375 h 0.796016 c 1.10086,0 0.570261,2.1936 -0.06164,3.05469 -0.856822,1.16758 -3.55688,3.66406 -3.82812,3.66406 v -12.8477 h 2.25477 Z "/>
</svg>
