<svg width="96" version="1.0" xmlns="http://www.w3.org/2000/svg" height="96">
<g style="color:#000">
<path style="fill:#464646" d="m 12,6 h 72 c 3.324,0 6,2.676 6,6 v 71.887093 c 0,3.324 -2.676,6 -6,6 H 12 c -3.324,0 -6,-2.676 -6,-6 V 12 C 6,8.676 8.676,6 12,6 Z"/>
<path style="opacity:.3" d="m 24.0933,83.9777 a 4.32102,4.32102 0 0 1 -8.64204,0 4.32102,4.32102 0 1 1 8.64204,0 z"/>
<path style="fill:#2de1ff" d="m 23.0443,83.9777 a 3.27195,3.27195 0 0 1 -6.5439,0 3.27195,3.27195 0 1 1 6.5439,0 z"/>
</g>
<path style="fill:#fff;fill-rule:evenodd" d="m 89.8,76.1891 v 1.79383 h -83.6 v -1.79383 z "/>
<g style="color:#000">
<path d="m 50.127,11.365 -6.555,9.211 h 5.3987 v 30.47 c -4.11013,-3.35404 -7.84904,-5.27398 -8.35938,-10.6699 -0.0835,-0.882844 -0.112828,-1.37841 -0.04883,-1.66992 2.75405,-0.338968 4.82427,-2.67634 4.82812,-5.45117 0,-3.03757 -2.46243,-5.5 -5.5,-5.5 -3.03757,0 -5.5,2.46243 -5.5,5.5 0.0053,2.23487 1.36245,4.24432 3.43359,5.08398 0.194665,0.366129 0.209406,0.928236 0.476562,2.78516 0.64708,4.49777 1.355,5.57626 6.86523,10.0586 3.60896,2.93572 3.85636,2.72803 3.87305,4.55273 0.01145,1.26683 -0.131496,1.76765 -0.708984,2.16406 -2.45651,0.809062 -4.11815,3.10119 -4.12305,5.6875 0,3.31371 2.68629,6 6,6 3.31371,0 6,-2.68629 6,-6 0,-2.64166 -1.72828,-4.97233 -4.25586,-5.74023 l -.0039,-.002 -.2578,-.1387 v -13.0468 l 3.6016,-3.6035 c 4.6143,-4.35855 5.74317,-6.11137 6.28598,-8.90234 0.314755,-1.61837 1.34557,-2.42291 2.342,-2.58203 h 1.09077 v -7.74805 h -8.15625 v 7.74805 h 1.29648 c 1.83413,0 1.10597,3.52041 -0.172,5.09766 -1.52146,1.87775 -5.83589,6.11523 -6.28854,6.11523 v -20.2083 h 5.26151 Z "/>
<path style="fill:#fff" d="m 50.127,12.9648 -5.355,7.6113 h 4.1987 v 31.6699 c -4.11013,-3.35404 -7.84904,-5.27398 -8.35938,-10.6699 -0.0835,-0.882844 -0.112828,-1.37841 -0.04883,-1.66992 2.75405,-0.338968 4.82427,-2.67634 4.82812,-5.45117 0,-3.03757 -2.46243,-5.5 -5.5,-5.5 -3.03757,0 -5.5,2.46243 -5.5,5.5 0.0053,2.23487 1.36245,4.24432 3.43359,5.08398 0.194665,0.366129 0.209406,0.928236 0.476562,2.78516 0.64708,4.49777 1.355,5.57626 6.86523,10.0586 3.60896,2.93572 3.85636,2.72803 3.87305,4.55273 0.01145,1.26683 -0.131496,1.76765 -0.708984,2.16406 -2.45651,0.809062 -4.11815,3.10119 -4.12305,5.6875 0,3.31371 2.68629,6 6,6 3.31371,0 6,-2.68629 6,-6 0,-2.64166 -1.72828,-4.97233 -4.25586,-5.74023 l -.0039,-.002 -.2578,-.1387 v -13.0468 l 3.6016,-3.6035 c 4.6143,-4.35855 5.74317,-6.11137 6.28598,-8.90234 0.314755,-1.61837 1.34557,-2.42291 2.342,-2.58203 h 1.09077 v -7.74805 h -8.15625 v 7.74805 h 1.29648 c 1.83413,0 1.10597,3.52041 -0.172,5.09766 -1.52146,1.87775 -5.83589,6.11523 -6.28854,6.11523 v -21.4082 h 4.06154 z "/>
</g>
</svg>
