<svg xmlns:xlink="http://www.w3.org/1999/xlink" version="1.1" width="64" xmlns="http://www.w3.org/2000/svg" height="64">
<defs id="defs2385">
<linearGradient xlink:href="#linearGradient4166" id="linearGradient4162" y1="26.642063" x1="36.075577" y2="36.090439" x2="26.687187" gradientUnits="userSpaceOnUse"/>
<linearGradient xlink:href="#linearGradient4166" id="linearGradient4158" y1="40.079762" x1="45.22401" y2="45.148891" x2="40.214867" gradientUnits="userSpaceOnUse"/>
<linearGradient xlink:href="#linearGradient4148" id="linearGradient4154" y1="33.240932" x1="18.258631" y2="17.943554" x2="33.406033" gradientUnits="userSpaceOnUse"/>
<linearGradient id="linearGradient4148">
<stop offset="0" style="stop-color:#d2d2d2" id="stop4162"/>
<stop offset="1" style="stop-color:#fafafa" id="stop4164"/>
</linearGradient>
<linearGradient id="linearGradient4166">
<stop offset="0" style="stop-color:#c8c8c8" id="stop4150"/>
<stop offset="1" style="stop-color:#fff" id="stop4152"/>
</linearGradient>
</defs>
<g id="layer1">
<g style="fill-rule:evenodd;stroke:none">
<path style="opacity:.6" id="path4267" d="m 30.0466,17.7938 c -1.20946,0.0094 -2.4033,0.475773 -3.32943,1.40976 l -8.4585,8.5485 c -1.85225,1.86797 -1.85475,4.84971 0,6.68885 l 25.5082,25.2983 c 1.85459,1.83932 5.20611,1.76466 7.15751,-0.193892 l 8.1873,-8.2173 c 1.85225,-1.86797 1.85475,-4.84971 0,-6.68885 l -25.7056,-25.4956 c -0.927378,-0.919573 -2.14996,-1.35917 -3.35942,-1.34977 Z "/>
<path style="fill:url(#linearGradient4154)" id="path4265" d="m 30.0466,16.5938 c -1.20946,0.0094 -2.4033,0.475773 -3.32943,1.40976 l -8.4585,8.5485 c -1.85225,1.86797 -1.85475,4.84971 0,6.68885 l 25.6756,25.4656 c 1.85475,1.83915 4.8366,1.80798 6.68885,-0.05999 l 8.4885,-8.5185 c 1.85225,-1.86797 1.85475,-4.84971 0,-6.68885 l -25.7056,-25.4956 c -0.927378,-0.919573 -2.14996,-1.35917 -3.35942,-1.34977 Z "/>
<path style="fill:url(#linearGradient4162)" id="path4263" d="m 31.3664,24.6924 c 1.70707,-0.0072 3.40124,0.65272 4.70919,1.94967 2.6159,2.59389 2.65388,6.80248 0.05999,9.41839 -2.59389,2.6159 -6.83247,2.62389 -9.44838,0.02999 -2.61591,-2.59389 -2.62389,-6.80248 -0.02999,-9.41839 1.29695,-1.30795 3.00212,-1.97245 4.70919,-1.97966 z "/>
<path style="fill:#4b4b4b" id="path4261" d="m 34.6958,28.3218 -8.0386,2.7895 5.4291,5.3091 2.6096,-8.0986 z "/>
<path style="fill:url(#linearGradient4158)" id="path4259" d="m 42.6445,38.9699 c 0.928669,0.01364 1.8515,0.387877 2.57956,1.10981 l 5.2791,5.2191 c 1.45612,1.44387 1.51024,3.72706 0.119979,5.12912 -1.39026,1.40206 -3.703,1.38388 -5.15911,-0.05999 l -5.2491,-5.2191 c -1.45612,-1.44387 -1.51024,-3.72706 -0.119979,-5.12912 0.69513,-0.701029 1.62089,-1.06346 2.54956,-1.04982 z "/>
<path style="fill:#4b4b4b" id="path4257" d="m 41.0247,40.5897 a 0.533304,0.533304 0 0,0 -0.209964,0.929841 l 1.0498,1.0198 -1.1698,1.1998 .7799,.7199 1.1398,-1.1698 1.0798,1.0498 a 0.533304,0.533304 0 1,0 0.749871,-0.749872 l -1.0498,-1.0498 1.1398,-1.1698 -.7799,-.7199 -1.1398,1.1398 -1.0498,-1.0498 a 0.533304,0.533304 0 0,0 -0.479918,-0.149975 0.533304,0.533304 0 0,0 -0.05999,0 z "/>
<path style="fill:#aaa" id="path4255" d="m 47.2937,42.5093 -4.6792,4.6492 .7199,.7199 4.6792,-4.6492 -.7199,-.7199 z "/>
<path style="fill:#4b4b4b" id="rect3513" d="m 48.6434,46.3187 -2.3696,2.4596 .7799,.7199 2.3696,-2.4596 -.7799,-.7199 z "/>
</g>
<g style="stroke-linejoin:round;stroke-linecap:round;fill:none;stroke:#ff3e10;stroke-opacity:.961">
<path style="stroke-width:.374" id="path4353" d="m 58.2811,56.7205 a 3.72213,4.44588 0 0,1 2.54609,0" transform="matrix(5.9251044,-5.975387,5.0026479,4.9605509,-621.16489,89.993201)"/>
<path style="stroke-width:.302" id="path4359" d="m 58.2811,56.7205 a 3.72213,4.44588 0 0,1 2.54609,0" transform="matrix(7.2534184,-7.3149736,6.2527603,6.2001436,-774.91384,95.605276)"/>
<path style="stroke-width:.502" id="path4254" d="m 58.2811,56.7205 a 3.72213,4.44588 0 0,1 2.54609,0" transform="matrix(4.4129716,-4.4504217,3.7259333,3.6945797,-454.98729,74.640729)"/>
</g>
</g>
</svg>
