<svg width="64" version="1.1" xmlns="http://www.w3.org/2000/svg" height="64" xmlns:xlink="http://www.w3.org/1999/xlink">
<defs id="defs2385">
<linearGradient id="linearGradient4166">
<stop offset="0" style="stop-color:#bebebe" id="stop4150"/>
<stop offset="1" style="stop-color:#fff" id="stop4152"/>
</linearGradient>
<linearGradient xlink:href="#linearGradient4166" id="linearGradient847" y1="40.079762" x1="45.22401" y2="45.148891" gradientUnits="userSpaceOnUse" x2="40.214867"/>
<linearGradient id="linearGradient4148">
<stop offset="0" style="stop-color:#c8c8c8" id="stop4162"/>
<stop offset="1" style="stop-color:#fafafa" id="stop4164"/>
</linearGradient>
<linearGradient xlink:href="#linearGradient4166" id="linearGradient4162" y1="26.642063" x1="36.075577" y2="36.090439" x2="26.687187" gradientUnits="userSpaceOnUse"/>
<linearGradient xlink:href="#linearGradient4148" id="linearGradient4154" y1="33.240932" x1="18.258631" y2="17.943554" x2="33.406033" gradientUnits="userSpaceOnUse"/>
</defs>
<g style="fill-rule:evenodd">
<path style="opacity:.6" id="path4267" d="m 30.0466,17.7938 c -1.20946,0.0094 -2.4033,0.475773 -3.32943,1.40976 l -8.4585,8.5485 c -1.85225,1.86797 -1.85475,4.84971 0,6.68885 l 25.5082,25.2983 c 1.85459,1.83932 5.20611,1.76466 7.15751,-0.193892 l 8.1873,-8.2173 c 1.85225,-1.86797 1.85475,-4.84971 0,-6.68885 l -25.7056,-25.4956 c -0.927378,-0.919573 -2.14996,-1.35917 -3.35942,-1.34977 z"/>
<path style="fill:url(#linearGradient4154)" id="path4265" d="m 30.0466,16.5938 c -1.20946,0.0094 -2.4033,0.475773 -3.32943,1.40976 l -8.4585,8.5485 c -1.85225,1.86797 -1.85475,4.84971 0,6.68885 l 25.6756,25.4656 c 1.85475,1.83915 4.8366,1.80798 6.68885,-0.06 l 8.4885,-8.5185 c 1.85225,-1.86797 1.85475,-4.84971 0,-6.68885 L 33.40602,17.94357 C 32.478642,17.023997 31.25606,16.5844 30.0466,16.5938 Z"/>
<path style="fill:url(#linearGradient4162)" id="path4263" d="m 31.3664,24.6924 c 1.70707,-0.0072 3.40124,0.65272 4.70919,1.94967 2.6159,2.59389 2.65388,6.80248 0.06,9.41839 -2.59389,2.6159 -6.83247,2.62389 -9.44838,0.03 -2.61591,-2.59389 -2.62389,-6.80248 -0.03,-9.41839 1.29695,-1.30795 3.00212,-1.97245 4.70919,-1.97966 z"/>
<path style="fill:#4b4b4b" id="path4261" d="m 34.6958,28.3218 -8.0386,2.7895 5.4291,5.3091 2.6096,-8.0986 z"/>
<path style="fill:url(#linearGradient847)" id="path4259" d="m 42.6445,38.9699 c 0.928669,0.01364 1.8515,0.387877 2.57956,1.10981 l 5.2791,5.2191 c 1.45612,1.44387 1.51024,3.72706 0.119979,5.12912 -1.39026,1.40206 -3.703,1.38388 -5.15911,-0.06 l -5.2491,-5.2191 c -1.45612,-1.44387 -1.51024,-3.72706 -0.119979,-5.12912 0.69513,-0.701029 1.62089,-1.06346 2.54956,-1.04982 z"/>
<path style="fill:#4b4b4b" id="path4257" d="m 40.8147,41.5195 1.0498,1.0198 -1.1698,1.1998 c -0.53692,0.550689 0.222732,1.29173 0.7799,0.7199 l 1.1398,-1.1698 1.0798,1.0498 c 0.496697,0.616564 1.36644,-0.253176 0.749871,-0.749872 l -1.0498,-1.0498 1.1398,-1.1698 c 0.430295,-0.44162 -0.299025,-1.20078 -0.7799,-0.7199 l -1.1398,1.1398 -1.0498,-1.0498 c -0.519915,-0.515678 -1.27677,0.268028 -0.749871,0.779872 z "/>
<path style="fill:#aaa" id="path4255" d="m 47.4746,42.3047 l -5.0234,5.0664 .7207,.7168 5.0273,-5.0684 -.7246,-.7148 z "/>
<path style="fill:#4b4b4b" id="rect3513" d="m 48.6434,46.3187 -2.3696,2.4596 c -0.539178,0.559657 0.204764,1.31688 0.7799,0.7199 l 2.3696,-2.4596 c 0.498794,-0.517739 -0.29929,-1.21876 -0.7799,-0.7199 z "/>
</g>
<g style="fill:none;stroke-linejoin:round;stroke-linecap:round;stroke:#ff3e10;stroke-opacity:.961">
<path style="stroke-width:2.88" id="path4353" d="M 7.9094023,23.106001 A 31.321706,31.321699 45.337165 0 1 22.995251,7.892128"/>
<path style="stroke-width:2.876" id="path4359" d="M 2.4830537,20.955813 A 39.148692,38.343525 44.757914 0 1 20.95091,2.3312321"/>
<path style="stroke-width:2.879" id="path4254" d="M 13.542349,24.823665 A 23.328163,23.328157 44.174602 0 1 24.778172,13.492491"/>
</g>
</svg>
