<svg width="96" version="1.0" xmlns="http://www.w3.org/2000/svg" height="96">
<g style="stroke:none;color:#000">
<path style="fill:#7c7c7c" id="rect3171" d="m 12,6 72,0 c 3.324,0 6,2.676 6,6 l 0,71.887093 c 0,3.324 -2.676,6 -6,6 l -72,0 c -3.324,0 -6,-2.676 -6,-6 L 6,12 C 6,8.676 8.676,6 12,6 Z"/>
<path style="opacity:.3" id="path4053" d="m 24.0933,83.9777 a 4.32102,4.32102 0 0 1 -8.64204,0 4.32102,4.32102 0 1 1 8.64204,0 z"/>
<path style="fill:#2de1ff" id="path3364" d="m 23.0443,83.9777 a 3.27195,3.27195 0 0 1 -6.5439,0 3.27195,3.27195 0 1 1 6.5439,0 z"/>
<rect width="83.696457" x="6.2248263" y="76.044968" rx="6.0297518" height="2.0820873" ry="0.14412965" style="fill:#fff;fill-rule:evenodd" id="rect3082"/>
</g>
</svg>
