<svg width="96" version="1.0" xmlns="http://www.w3.org/2000/svg" height="96" xmlns:xlink="http://www.w3.org/1999/xlink">
<defs>
<linearGradient id="linearGradient3864">
<stop offset="0" style="stop-color:#fafafa"/>
<stop offset="1" style="stop-color:#707070"/>
</linearGradient>
<linearGradient gradientTransform="matrix(1.4608601,0.29012583,-0.29012398,1.4608694,11.841365,31.573388)" xlink:href="#linearGradient3864" id="linearGradient4050" y1="6.2615089" x1="15.158204" y2="9.9772863" gradientUnits="userSpaceOnUse" x2="18.917904"/>
</defs>
<path style="opacity:.65;fill:#fff" d="m 8.5673,19.0123 c -2.54478,0 -4.519,2.28524 -4.519,4.51924 v 48.3365 c 0,2.43 2.21994,5.12025 4.81904,5.12025 h 78.3612 c 3.271,0 4.81996,-2.69025 4.81996,-5.12025 v -48.3365 c 0,-2.234 -2.14706,-4.51924 -4.51996,-4.51924 z "/>
<path style="fill:#3880d9" d="m 84.937,70.0763 v -44.2715 h -73.9372 v 44.2715 z "/>
<path style="opacity:.7;fill:#0e367e" d="m 11,25.797455 v 44.2815 h 73.9373 v -44.2815 z m 3,3 h 68 v 38 H 14 Z"/>
<path d="M 10.3125,21.7972 C 8.42859,21.7972 7,23.22658 7,25.1097 v 45.376005 c 0,1.88312 1.42859,3.3125 3.3125,3.3125 h 75.375 c 1.88391,0 3.3125,-1.42938 3.3125,-3.3125 V 25.1097 c 0,-1.88312 -1.42859,-3.3125 -3.3125,-3.3125 z M 13,27.7969 h 70 v 40 H 13 Z"/>
<path style="opacity:.15;fill:#fff" d="m 14,66.7978 h 68 l 1,1 h -70 Z "/>
<rect width="8.4909124" x="13" y="23.1" rx="1.6981825" height="3.3963649" ry="1.6982" style="fill:#7fff2a"/>
<path style="opacity:.25" d="m 13,27.7978 h 70 l -1,1 h -68 Z "/>
<path style="fill:url(#linearGradient4050)" d="m 79.1758,14.041 a 2.12755,2.12755 0 0,0 -1.59961,0.320312 l -44.8945,30.2012 a 2.12755,2.12755 0 0,0 -0.427735,0.382812 l -4.7441,5.5449 a 2.12755,2.12755 0 0,0 2.19531,3.42969 l 7.1074,-2.0078 a 2.12755,2.12755 0 0,0 0.609375,-0.28125 l 44.8945,-30.2012 a 2.12755,2.12755 0 0,0 0.580078,-2.94922 l -2.3633,-3.5352 a 2.12755,2.12755 0 0,0 -1.35742,-0.904297 z "/>
</svg>
