<svg width="48" version="1.1" xmlns="http://www.w3.org/2000/svg" height="48">
<g style="stroke:none;color:#bebebe;stroke-width:2" id="layer10" transform="translate(-281,-416)">
<rect width="33.000008" x="287.00015" y="423.81259" rx="0" height="32.442028" ry="0" style="fill:#fff" id="rect5839-9"/>
<path style="fill:#a0a0a0;" id="rect5837" d="M 290.09375,419 C 285.08618,419 281,423.08618 281,428.09375 l 0,23.8125 c 0,5.00757 4.08618,9.09375 9.09375,9.09375 l 26.8125,0 C 321.91382,461 326,456.91382 326,451.90625 l 0,-23.8125 C 326,423.08618 321.91382,419 316.90625,419 l -26.8125,0 z m 0,6 26.8125,0 C 318.69359,425 320,426.30641 320,428.09375 L 320,446 l -33,0 0,-17.90625 C 287,426.30641 288.30641,425 290.09375,425 Z M 287,449 l 15,0 0,6 -11.90625,0 C 288.30641,455 287,453.69359 287,451.90625 L 287,449 Z m 18,0 15,0 0,2.90625 C 320,453.69359 318.69359,455 316.90625,455 L 305,455 l 0,-6 z"/>
</g>
</svg>
