<svg width="48" version="1.1" xmlns="http://www.w3.org/2000/svg" height="48">
<g style="stroke:none" id="layer10" transform="translate(-241,-415)">
<path style="fill:#fff;fill-rule:evenodd;stroke-linejoin:round;stroke-linecap:round;stroke-width:2" id="rect4145" d="m 250.3067,419.6415 29.2841,0 0,27.1275 -8.8224,0 0,8.7011 -11.52,0 0,-8.7011 -8.9417,0 z "/>
<path style="fill:#a0a0a0;color:#000" id="rect8806" d="m 251.5,415 c 0,0 -4.5,0 -4.5,4.5 l 0,27 c 0,4.5 4.5,4.5 4.5,4.5 l 4.5,0 0,6 c 0,1.662 1.338,3 3,3 l 12,0 c 1.662,0 3,-1.338 3,-3 l 0,-6 4.5,0 c 4.5,0 4.5,-4.5 4.5,-4.5 l 0,-27 c 0,-4.5 -4.5,-4.5 -4.5,-4.5 z m 1.5,6 6,0 0,6 -6,0 z m 9,0 6,0 0,6 -6,0 z m 9,0 6,0 0,6 -6,0 z m -18,9 6,0 0,6 -6,0 z m 9,0 6,0 0,6 -6,0 z m 9,0 6,0 0,6 -6,0 z m -18,9 6,0 0,6 -6,0 z m 9,0 6,0 0,6 -6,0 z m 9,0 6,0 0,6 -6,0 z m -9,9 6,0 0,6 -6,0 z"/>
</g>
</svg>
