<svg width="48" version="1.1" xmlns="http://www.w3.org/2000/svg" height="48">
<g style="stroke:#003bc3;fill-rule:evenodd;stroke-linecap:square;stroke-width:0" id="g4">
<g style="stroke-miterlimit:2" id="g6">
<path style="opacity:.6" id="path4157" d="m 24,2 c -12.7071,0 -23,10.2929 -23,23 0,12.7072 10.2929,23 23,23 12.7072,0 23,-10.2928 23,-23 0,-12.7071 -10.2928,-23 -23,-23 Z  m 0,19.2266 c 2.09091,0 3.77332,1.68236 3.77332,3.77347 0,2.09091 -1.68241,3.77332 -3.77332,3.77332 -2.09111,0 -3.77345,-1.68241 -3.77345,-3.77332 0,-2.09111 1.68236,-3.77347 3.77345,-3.77347 z "/>
<path style="fill:#2d79d7" id="shape011" d="m 24,1 c -12.7071,0 -23,10.2929 -23,23 1.55431e-15,12.7072 10.2929,23 23,23 12.7072,0 23,-10.2928 23,-23 0,-12.7071 -10.2928,-23 -23,-23 Z  m 0,19.2266 c 2.09091,0 3.77332,1.68236 3.77332,3.77347 0,2.09091 -1.68241,3.77332 -3.77332,3.77332 -2.09111,0 -3.77345,-1.68241 -3.77345,-3.77332 0,-2.09111 1.68236,-3.77347 3.77345,-3.77347 z "/>
<path style="fill:#b2b2b2" id="shape11" d="m 23.9891,15.0741 c -4.91681,0 -8.91488,3.99807 -8.91488,8.91489 0,4.9167 3.99807,8.91489 8.91488,8.91489 4.9167,0 8.91489,-3.99819 8.91489,-8.91489 0,-4.91681 -3.99819,-8.91488 -8.91489,-8.91488 z  m 0,5.0785 c 2.12591,0 3.83626,1.7104 3.83626,3.83633 0,2.12591 -1.71035,3.83626 -3.83626,3.83626 -2.12593,0 -3.83633,-1.71035 -3.83633,-3.83626 0,-2.12593 1.7104,-3.83633 3.83633,-3.83633 z "/>
</g>
<g style="fill:#8196ab;stroke-linejoin:bevel" id="g11">
<path style="opacity:.8;fill:#fff" id="shape0" d="m 29.7579,32.5719 c 1.56411,-1.09124 2.00815,-1.78833 2.62629,-2.56382 l 9.2206,6.6135 c -1.39363,2.17107 -3.04015,4.06349 -5.3097,5.36073 z "/>
<path style="opacity:.8;fill:#fff" id="shape1" d="m 18.2212,15.3972 c -1.61128,1.13621 -2.06871,1.86205 -2.70549,2.66951 l -9.4986,-6.8861 c 1.43564,-2.26058 3.13184,-4.23102 5.46983,-5.5817 Z "/>
</g>
</g>
</svg>
