<svg width="48" version="1.1" xmlns="http://www.w3.org/2000/svg" height="48" xmlns:xlink="http://www.w3.org/1999/xlink">
<defs>
<linearGradient id="linearGradient26">
<stop offset="0" style="stop-color:#e8a945"/>
<stop offset="1" style="stop-color:#bf7f17"/>
</linearGradient>
<linearGradient id="linearGradient9168">
<stop offset="0" style="stop-color:#ebebeb"/>
<stop offset="0.49" style="stop-color:#ebebeb"/>
<stop offset="0.51" style="stop-color:#c7c7c7"/>
<stop offset="1" style="stop-color:#c7c7c7"/>
</linearGradient>
<linearGradient xlink:href="#linearGradient26" id="linearGradient27" y1="18.4645" x1="25.4" y2="18.4645" x2="47.4" gradientUnits="userSpaceOnUse"/>
<linearGradient gradientTransform="translate(12.4,-1)" xlink:href="#linearGradient9168" id="linearGradient9170" y1="38.968283" x1="16.819268" y2="38.968283" x2="31.180932" gradientUnits="userSpaceOnUse"/>
</defs>
<g style="color:#000;fill-rule:evenodd">
<path style="fill:#2e3436" d="m 1.1682952,5 c -0.871622,0.057092 -1.22022,0.941847 -1.16211,1.62695 v 37.5371 c 0.064808,0.976409 0.9216,1.95696 2.20898,1.85938 h 0.115234 v 1.10547 c 0,0.483083 0.334955,0.871094 0.755859,0.871094 H 30.396758 c 0.420905,0 0.755859,-0.388011 0.755859,-0.871094 v -1.10547 h 0.697266 c 0.830775,-0.04008 1.6391,-0.750843 1.62695,-2.11914 V 9.58979 c 0,-0.666186 -0.209149,-1.11807 -0.697265,-1.59766 l -2.5566,-2.6426 C 29.955892,5.097216 29.800454,5 29.060858,5 H 1.1682582 Z"/>
<path style="fill:#2c72c7" d="M 3.0862952,36.2617 H 30.396795 c 0.420905,0 0.755859,0.388011 0.755859,0.871093 v 8.29102 H 2.3303542 v -8.29102 c 0,-0.483083 0.334955,-0.871093 0.755859,-0.871093 z"/>
<path style="fill:#f1c203" d="m 5.4977,8.8351 h 22.4878 c 0.977317,0 1.74324,0.765925 1.74324,1.74324 v 12.2899 c 0,0.977318 -0.765926,1.7723 -1.74324,1.7723 H 5.4977 c -0.977317,0 -1.7723,-0.79498 -1.7723,-1.7723 v -12.2899 c 0,-0.977317 0.794981,-1.74324 1.7723,-1.74324 z"/>
<g style="fill:#2e3436">
<path d="m 5.12,9.3 v 14.8757 h 0.9297 v -7.4378 c 6.92248,-2.83163 13.3295,3.66382 21.3838,1.85946 v 5.57838 h 0.929729 V 9.35814 H 27.4335 v 7.37973 C 20.04961,18.57687 12.7483,12.21913 6.0497,14.87841 V 9.3 H 5.11997 Z"/>
<path d="m 8.8389,9.3 v 4.1838 L 9.7686,13.3966 V 9.3 Z"/>
<path d="m 12.5578,9.3 v 4.4453 l .9297,.2034 v -4.6486 h -0.9297 z "/>
<path d="m 16.2768,9.3 v 5.2878 l .9297,.1162 v -5.4041 h -0.9297 z "/>
<path d="m 19.995695,9.3 v 6.1304 l 0.9297,0.1743 V 9.3 Z"/>
<path d="m 23.714595,9.3 v 6.7696 h 0.9297 V 9.3 Z"/>
<path d="m 9.7687,16.9412 -.9297,.1162 v 7.0601 h 0.9297 v -7.1764 z "/>
<path d="m 12.5578,17.348 v 6.7696 h 0.9297 v -6.5662 z"/>
<path d="m 16.2768,18.3358 v 5.7818 h 0.9297 v -5.4331 l -.9297,-.3486 z "/>
<path d="m 19.9957,19.2365 v 4.8811 h 0.9297 v -4.7068 z"/>
<path d="m 24.6443,19.6432 -.9297,.1453 v 4.3291 h 0.9297 v -4.4743 z "/>
</g>
<g style="fill:#fff">
<path d="m 5.2362,38.3831 c -0.06679,0 -0.116216,0.0686 -0.116216,0.14527 v 1.85946 c 0,0.07666 0.04942,0.14527 0.116216,0.14527 h 9.09392 c 0.06679,0 0.116216,-0.0686 0.116216,-0.14527 v -1.85946 c 0,-0.07666 -0.04942,-0.14527 -0.116216,-0.14527 z"/>
<path d="m 16.3639,38.3831 c -0.06679,0 -0.116216,0.0686 -0.116216,0.14527 v 1.85946 c 0,0.07666 0.04942,0.14527 0.116216,0.14527 h 3.51554 c 0.06679,0 0.116216,-0.0686 0.116216,-0.14527 v -1.85946 c 0,-0.07666 -0.04942,-0.14527 -0.116216,-0.14527 z"/>
</g>
</g>
<path style="fill:#5a5a5a" d="m 29.7963,30.2745 c -0.321837,0 -0.577032,0.254696 -0.577032,0.577032 V 45.685 c 0,0.322336 0.255195,0.577033 0.577032,0.577033 H 43.303 c 0.413114,0 0.877466,-0.425317 0.877466,-0.877033 V 30.851532 c 0,-0.322336 -0.255195,-0.577032 -0.577032,-0.577032 z"/>
<path style="fill:#64430e" d="m 30.4,38.7467 h 12 v 6.11486 h -12 z"/>
<path style="fill:url(#linearGradient9170)" d="m 29.7963,30.2745 c -0.321837,0 -0.577032,0.254696 -0.577032,0.577032 v 14.2335 c 0,0.322336 0.255195,0.577033 0.577032,0.577033 h 13.2076 c 0.321837,0 0.577032,-0.254697 0.577032,-0.577033 v -14.2335 c 0,-0.322336 -0.255195,-0.577032 -0.577032,-0.577032 z M 31.4,40 h 4 v 3 h -4 z m 6,0 h 4 v 3 h -4 z"/>
<path style="fill:#69470f" d="M 29.4,0 H 44 c 2.216,0 4,1.784 4,4 v 29.229 c 0,2.216 -2.084,4.300202 -4.3,4.300125 H 29.4 c -2.216,0 -4,-1.784 -4,-4 V 4 c 0,-2.216 1.784,-4 4,-4 z"/>
<path style="fill:url(#linearGradient27)" d="m 29.4,0 h 14 c 2.216,0 4,1.784 4,4 v 28.929001 c 0,2.216 -1.784,4 -4,4 h -14 c -2.216,0 -4,-1.784 -4,-4 V 4 c 0,-2.216 1.784,-4 4,-4 z"/>
<path style="opacity:.35" d="M 36.0781,0.4584 39.6,6.02 h -0.6304 l -1.9548,-1 v 12.8285 c 0.271249,0 2.93332,-2.52659 3.82818,-3.66528 0.386632,-0.491974 0.61088,-1.17349 0.61088,-1.83264 0,-0.994156 0.361191,-1.22176 -0.447977,-1.22176 H 40.109926 V 6.48574 h 4.88703 v 4.64268 h -0.77378 c -0.705099,0.07735 -1.21082,0.445213 -1.34393,1.54756 -0.198521,1.64401 -0.940909,2.72318 -3.706,5.33501 l -2.1584,2.1584 v 7.81925 l 0.6109,0.3258 c 0.434631,0.19662 1.08129,0.829141 1.34393,1.42538 1.33165,3.02311 -0.424498,4.676 -2.85077,4.676 -1.7582,-0.06032 -3.01367,-0.907927 -3.01367,-2.56569 0,-1.95001 0.659665,-2.85485 1.50684,-3.5357 0.68011,-0.307668 0.823442,-0.517381 0.814504,-1.50684 -0.01,-1.09344 -0.158695,-0.969381 -2.32134,-2.72859 -3.30198,-2.68601 -3.72549,-3.33205 -4.11325,-6.02734 -0.285988,-1.98783 -0.07497,-1.51597 -0.895956,-2.28062 -1.51106,-1.40738 -1.26941,-3.51127 0.529428,-4.39833 1.62051,-0.799126 3.56198,0.05396 4.15398,1.83264 0.291775,0.876652 -0.445387,2.40751 -1.38466,2.93222 -0.859529,0.48017 -1.21469,-0.303897 -1.01813,1.46611 0.108796,0.979651 0.395652,2.08689 0.610879,2.48424 0.369649,0.682437 4.00459,3.90963 4.39833,3.90963 V 5.01955 L 33.35,6.02 h -0.63 c 0.92812,-1.5091501 2.459101,-4.04345 3.358161,-5.56168 z"/>
<path style="fill:#fff" d="m 36.0781,1.4585 2.8915,4.5612 h -1.9548 v 12.8285 c 0.271249,0 2.93332,-2.52659 3.82818,-3.66528 0.386632,-0.491974 0.61088,-1.17349 0.61088,-1.83264 0,-0.994156 0.361191,-1.22176 -0.447977,-1.22176 H 40.109926 V 7.286 h 4.88703 v 4.84252 h -0.77378 c -0.705099,0.07735 -1.21082,0.445213 -1.34393,1.54756 -0.198521,1.64401 -0.940909,2.72318 -3.706,5.33501 l -2.1584,2.1584 v 7.81925 l 0.6109,0.3258 c 0.434631,0.19662 1.04696,0.845476 1.34393,1.42538 1.0584,2.06673 -0.424498,4.27616 -2.85077,4.27616 -1.7582,-0.06032 -3.01367,-0.907927 -3.01367,-2.56569 0,-1.95001 0.659665,-2.455 1.50684,-3.13585 0.68011,-0.307668 0.823442,-0.517381 0.814504,-1.50684 -0.01,-1.09344 -0.158695,-0.969381 -2.32134,-2.72859 -3.30198,-2.68601 -3.72549,-3.33205 -4.11325,-6.02734 -0.285988,-1.98783 -0.07497,-1.51597 -0.895956,-2.28062 -1.51106,-1.40738 -1.26941,-3.51127 0.529428,-4.39833 1.62051,-0.799126 3.56198,0.05396 4.15398,1.83264 0.291775,0.876652 -0.445387,2.40751 -1.38466,2.93222 -0.859529,0.48017 -1.21469,-0.303897 -1.01813,1.46611 0.108796,0.979651 0.395652,2.08689 0.610879,2.48424 0.369649,0.682437 4.00459,3.90963 4.39833,3.90963 v -18.978 h -2.03627 c 0.92812,-1.50915 1.82954,-3.043 2.7286,-4.56123 z"/>
</svg>
