<svg width="48" version="1.1" xmlns="http://www.w3.org/2000/svg" height="48">
<g style="fill-rule:evenodd;color:#000" id="layer1" transform="translate(-7.2614048,3.5)">
<path style="fill:#2e3436" id="path4227" d="M 8.4297,1.5 C 7.558078,1.5570922 7.20948,2.441847 7.26759,3.12695 v 37.5371 c 0.064808,0.976409 0.9216,1.95696 2.20898,1.85938 h 0.115234 v 1.10547 c 0,0.483083 0.334955,0.871094 0.755859,0.871094 h 27.3105 c 0.420905,0 0.755859,-0.388011 0.755859,-0.871094 v -1.10547 h 0.697266 c 0.830775,-0.04008 1.6391,-0.750843 1.62695,-2.11914 V 6.08979 c 0,-0.666186 -0.209149,-1.11807 -0.697265,-1.59766 l -2.5566,-2.6426 C 37.217297,1.597216 37.061859,1.5 36.322263,1.5 h -27.8926 z"/>
<path style="fill:#2c72c7" id="path4222" d="m 10.3477,32.7617 h 27.3105 c 0.420905,0 0.755859,0.388011 0.755859,0.871093 v 8.29102 h -28.8223 v -8.29102 c 0,-0.483083 0.334955,-0.871093 0.755859,-0.871093 z"/>
<path style="fill:#f1c203" id="path4218" d="m 12.7591,5.3351 h 22.4878 c 0.977317,0 1.74324,0.765925 1.74324,1.74324 v 12.2899 c 0,0.977318 -0.765926,1.7723 -1.74324,1.7723 H 12.7591 c -0.977317,0 -1.7723,-0.79498 -1.7723,-1.7723 V 7.07834 c 0,-0.977317 0.794981,-1.74324 1.7723,-1.74324 z"/>
<g style="fill:#2e3436" id="g4151">
<path id="path4216" d="m 12.3814,5.8 v 14.8757 h 0.9297 v -7.4378 c 6.92248,-2.83163 13.3295,3.66382 21.3838,1.85946 v 5.57838 h 0.929729 V 5.85814 H 34.6949 v 7.37973 C 27.31101,15.07687 20.0097,8.71913 13.3111,11.37841 V 5.8 h -0.92973 z"/>
<path id="path4212" d="M 16.1003,5.8 V 9.9838 L 17.03,9.8966 V 5.8 Z"/>
<path id="path4208" d="m 19.8192,5.8 v 4.4453 l .9297,.2034 v -4.6486 h -0.9297 z "/>
<path id="path4204" d="m 23.5382,5.8 v 5.2878 l .9297,.1162 v -5.4041 h -0.9297 z "/>
<path id="path4200" d="m 27.2571,5.8 v 6.1304 l 0.9297,0.1743 V 5.8 Z"/>
<path id="path4196" d="m 30.976,5.8 v 6.7696 h 0.9297 V 5.8 Z"/>
<path id="path4192" d="m 17.0301,13.4412 -.9297,.1162 v 7.0601 h 0.9297 v -7.1764 z "/>
<path id="path4186" d="m 19.8192,13.848 v 6.7696 h 0.9297 v -6.5662 z"/>
<path id="path4182" d="m 23.5382,14.8358 v 5.7818 h 0.9297 v -5.4331 l -.9297,-.3486 z "/>
<path id="path4178" d="m 27.2571,15.7365 v 4.8811 h 0.9297 v -4.7068 z"/>
<path id="path4172" d="m 31.9057,16.1432 -.9297,.1453 v 4.3291 h 0.9297 v -4.4743 z "/>
</g>
<g style="fill:#fff" id="g4164">
<path id="path4170" d="m 12.4976,34.8831 c -0.06679,0 -0.116216,0.0686 -0.116216,0.14527 v 1.85946 c 0,0.07666 0.04942,0.14527 0.116216,0.14527 h 9.09392 c 0.06679,0 0.116216,-0.0686 0.116216,-0.14527 v -1.85946 c 0,-0.07666 -0.04942,-0.14527 -0.116216,-0.14527 z"/>
<path id="path4291" d="m 23.6253,34.8831 c -0.06679,0 -0.116216,0.0686 -0.116216,0.14527 v 1.85946 c 0,0.07666 0.04942,0.14527 0.116216,0.14527 h 3.51554 c 0.06679,0 0.116216,-0.0686 0.116216,-0.14527 v -1.85946 c 0,-0.07666 -0.04942,-0.14527 -0.116216,-0.14527 z"/>
</g>
</g>
<g id="g9" transform="translate(13.14115,-0.5)">
<path style="fill:#5a5a5a" id="path4189-3" d="m 17.3954,32.1125 c -0.321838,0 -0.577033,0.254696 -0.577033,0.577032 v 14.2335 c 0,0.322336 0.254795,0.577033 0.576633,0.577033 h 13.137 c 0.853818,0 1.27703,-0.452159 1.27703,-1.27707 v -13.5335 c 0,-0.322336 -0.255195,-0.577032 -0.577032,-0.577032 z m 3.0973,9.2005 h 3.1416 v 3.1416 h -3.1416 z m 5.1292,0 h 3.1416 v 3.1416 h -3.1416 z"/>
<rect width="12.309719" x="17.845297" y="-46.683613" height="13.335554" style="opacity:.715;fill:none" id="rect3458-6" transform="scale(1,-1)"/>
<path style="fill:#c8c8c8" id="rect3448-7" d="m 17.3963,31.2745 c -0.321837,0 -0.577032,0.254696 -0.577032,0.577032 v 14.2335 c 0,0.322336 0.255195,0.577033 0.577032,0.577033 h 13.2076 c 0.321837,0 0.577032,-0.254697 0.577032,-0.577033 v -14.2335 c 0,-0.322336 -0.255195,-0.577032 -0.577032,-0.577032 z m 2.4684,9.2005 h 3.1416 v 3.1416 h -3.1416 z m 5.1292,0 h 3.1416 v 3.1416 h -3.1416 z"/>
<path style="fill:#69470f" id="path4146-5" d="m 15.4088,0.5 c -0.925609,0 -1.66695,0.745428 -1.66695,1.66695 v 34.3956 c 0,0.921529 0.741348,1.66695 1.66695,1.66695 H 32.492 c 1.258,0 2.36655,-0.9795 2.36655,-2.3665 V 2.16695 C 34.85855,1.24542 34.117201,0.5 33.1916,0.5 Z"/>
<path style="fill:#e09924" id="path4152-3" d="m 15.4088,0.5 c -0.925609,0 -1.66695,0.745428 -1.66695,1.66695 v 33.5956 c 0,0.921529 0.741348,1.66695 1.66695,1.66695 h 17.1825 c 0.925609,0 1.66695,-0.745428 1.66695,-1.66695 V 2.16695 C 34.25825,1.24542 33.516902,0.5 32.5913,0.5 Z"/>
<path style="opacity:.35" id="path4149-5" d="m 23.6781,1.4584 2.8915,4.5612 v 1 l -1.9548,-1 v 12.8285 c 0.271249,0 2.93332,-2.52659 3.82818,-3.66528 0.386632,-0.491974 0.61088,-1.17349 0.61088,-1.83264 0,-0.994156 0.361191,-1.22176 -0.447977,-1.22176 h -0.895957 v -4.64268 h 4.88703 v 4.64268 h -0.77378 c -0.705099,0.07735 -1.21082,0.445213 -1.34393,1.54756 -0.198521,1.64401 -0.940909,2.72318 -3.706,5.33501 l -2.1584,2.1584 v 7.81925 l .6109,.3258 c 0.434631,0.19662 1.08129,0.829141 1.34393,1.42538 1.33165,3.02311 -0.424498,4.676 -2.85077,4.676 -1.7582,-0.06032 -3.01367,-0.907927 -3.01367,-2.56569 0,-1.95001 0.659665,-2.85485 1.50684,-3.5357 0.68011,-0.307668 0.823442,-0.517381 0.814504,-1.50684 -0.01,-1.09344 -0.158695,-0.969381 -2.32134,-2.72859 -3.30198,-2.68601 -3.72549,-3.33205 -4.11325,-6.02734 -0.285988,-1.98783 -0.07497,-1.51597 -0.895956,-2.28062 -1.51106,-1.40738 -1.26941,-3.51127 0.529428,-4.39833 1.62051,-0.799126 3.56198,0.05396 4.15398,1.83264 0.291775,0.876652 -0.445387,2.40751 -1.38466,2.93222 -0.859529,0.48017 -1.21469,-0.303897 -1.01813,1.46611 0.108796,0.979651 0.395652,2.08689 0.610879,2.48424 0.369649,0.682437 4.00459,3.90963 4.39833,3.90963 v -18.978 l -2.0363,1 v -1 c 0.92812,-1.50915 1.82954,-3.043 2.7286,-4.56123 z "/>
<path style="fill:#fff" id="rect5391-6" d="m 23.6781,2.4585 2.8915,4.5612 h -1.9548 v 12.8285 c 0.271249,0 2.93332,-2.52659 3.82818,-3.66528 0.386632,-0.491974 0.61088,-1.17349 0.61088,-1.83264 0,-0.994156 0.361191,-1.22176 -0.447977,-1.22176 h -0.895957 v -4.64268 h 4.88703 v 4.64268 h -0.77378 c -0.705099,0.07735 -1.21082,0.445213 -1.34393,1.54756 -0.198521,1.64401 -0.940909,2.72318 -3.706,5.33501 l -2.1584,2.1584 v 7.81925 l .6109,.3258 c 0.434631,0.19662 1.04696,0.845476 1.34393,1.42538 1.0584,2.06673 -0.424498,4.27616 -2.85077,4.27616 -1.7582,-0.06032 -3.01367,-0.907927 -3.01367,-2.56569 0,-1.95001 0.659665,-2.455 1.50684,-3.13585 0.68011,-0.307668 0.823442,-0.517381 0.814504,-1.50684 -0.01,-1.09344 -0.158695,-0.969381 -2.32134,-2.72859 -3.30198,-2.68601 -3.72549,-3.33205 -4.11325,-6.02734 -0.285988,-1.98783 -0.07497,-1.51597 -0.895956,-2.28062 -1.51106,-1.40738 -1.26941,-3.51127 0.529428,-4.39833 1.62051,-0.799126 3.56198,0.05396 4.15398,1.83264 0.291775,0.876652 -0.445387,2.40751 -1.38466,2.93222 -0.859529,0.48017 -1.21469,-0.303897 -1.01813,1.46611 0.108796,0.979651 0.395652,2.08689 0.610879,2.48424 0.369649,0.682437 4.00459,3.90963 4.39833,3.90963 v -18.978 h -2.03627 c 0.92812,-1.50915 1.82954,-3.043 2.7286,-4.56123 z "/>
</g>
</svg>
