<svg width="48" version="1.1" xmlns="http://www.w3.org/2000/svg" height="48">
<g style="stroke-miterlimit:2;stroke-width:0;stroke:#003bc3;stroke-linecap:square;fill-rule:evenodd">
<rect width="26.999989" x="-38.999996" y="15.000005" height="20.99999" style="fill:#2c3e50" id="shape0" transform="matrix(0,-1,1,0,0,0)"/>
<g style="fill:#f1c40f">
<rect width="2.9999878" x="18.000006" y="6.0000038" height="4.9999914" id="shape4"/>
<rect width="2.9999883" x="15.000004" y="-42.999996" height="5.9999957" id="shape8" transform="matrix(0,1,-1,0,0,0)"/>
<rect width="2.9999883" x="21" y="-42.999992" height="5.9999957" id="rect4187" transform="matrix(0,1,-1,0,0,0)"/>
<rect width="2.9999883" x="27.000006" y="-42.999992" height="5.9999957" id="rect4189" transform="matrix(0,1,-1,0,0,0)"/>
<rect width="2.9999883" x="33" y="-42.999996" height="5.9999957" id="rect4191" transform="matrix(0,1,-1,0,0,0)"/>
<rect width="2.9999883" x="15.000005" y="-13.999999" height="5.9999928" id="rect4193" transform="matrix(0,1,-1,0,0,0)"/>
<rect width="2.9999883" x="21" y="-13.999994" height="5.9999928" id="rect4195" transform="matrix(0,1,-1,0,0,0)"/>
<rect width="2.9999883" x="27.000006" y="-13.999998" height="5.9999928" id="rect4197" transform="matrix(0,1,-1,0,0,0)"/>
<rect width="2.9999883" x="33.000004" y="-13.999999" height="5.9999928" id="rect4199" transform="matrix(0,1,-1,0,0,0)"/>
<rect width="2.9999878" x="24.000006" y="6.0000038" height="4.9999914" id="rect4201"/>
<rect width="2.9999878" x="30.000008" y="6.0000038" height="4.9999914" id="rect4203"/>
<rect width="2.9999878" x="18.000008" y="40.000008" height="4.9999881" id="rect4205"/>
<rect width="2.9999878" x="24.000006" y="40.000008" height="4.9999881" id="rect4207"/>
<rect width="2.9999878" x="30.000008" y="40.000008" height="4.9999881" id="rect4209"/>
</g>
</g>
</svg>
