<svg width="128" version="1.1" xmlns="http://www.w3.org/2000/svg" viewBox="0 0 128 128" height="128" style="enable-background:new 0 0 128 128">
<path style="fill:#273851" id="path4204" d="m 18.1995,6 c -1.11059,0 -2,0.900223 -2,2 v 24 c 0,0.529714 0.215543,1.03173 0.59375,1.40625 0.378205,0.373489 0.872375,0.594785 1.40625,0.59375 h 7.2005 v 4.08008 l -7.179,-.0801 c 0,0 -1.97852,0.874878 -1.97852,1.95312 v 8.09375 c 0,1.07825 0.885416,1.95312 1.97852,1.95312 h 6.64386 l .5352,12 h -7.0755 c -1.10954,0.002 -2.09375,0.838756 -2.09375,1.9375 l -.0312,60.0938 c 0,1.09978 0.889412,1.96875 2,1.96875 h 37.2317 c 0.610144,0 1.33741,-0.49594 1.71875,-0.96875 l .0312,-.0312 13.5313,.0312 c 0.382386,0.47185 1.07736,0.96875 1.6875,0.96875 h 35 c 1.10955,0 2.03125,-0.86794 2.03125,-1.96875 l -.0625,-71.9688 c 0,-1.09978 -1.0144,-2.0625 -2.125,-2.0625 h -5.84375 v -8 h 5.90625 c 1.097,-0.01966 2.0625,-0.976171 2.0625,-2.0625 l .0625,-19 -14.5938,-14.9375 z  m 10.0065,36 .737,.9629 c 0,0 -0.04624,2.10117 -1.54341,3.03711 h -5.53125 c -1.22238,-0.864976 -1.00586,-1.62945 -1.00586,-3.03711 0,-0.46415 0.54171,-0.962891 1.00586,-0.962891 z  m 10.8503,76 52.6875,0 c 0.915455,0 1.65625,0.925 1.65625,2.0625 0,1.13629 -0.740795,2.0625 -1.65625,2.0625 h -52.6875 c -0.91447,0 -1.65625,-0.92621 -1.65625,-2.0625 0,-1.1375 0.74178,-2.0625 1.65625,-2.0625 z "/>
<path style="fill:#5076a6" id="path34" d="m 18,4 c -1.11059,0 -2,0.900223 -2,2 v 24 c 0,0.529714 0.215543,1.03173 0.59375,1.40625 0.378205,0.373489 0.872375,0.594785 1.40625,0.59375 h 6 v 4.08008 c -0.170822,-0.047413 -0.348985,-0.080078 -0.535156,-0.080078 h -5.44336 c -1.0931,0 -1.97852,0.874878 -1.97852,1.95312 v 8.09375 c 0,1.07825 0.885416,1.95312 1.97852,1.95312 h 5.44336 c 0.186171,0 0.364334,-0.032665 0.535156,-0.080078 v 12.0801 h -5.875 c -1.10954,0.002 -2.09375,0.838756 -2.09375,1.9375 l -.0312,60.0938 c 0,1.09978 0.889412,1.96875 2,1.96875 h 36.0312 c 0.610144,0 1.33741,-0.49594 1.71875,-0.96875 l .0312,-.0312 13.5312,.0312 c 0.382386,0.47185 1.07736,0.96875 1.6875,0.96875 h 35 c 1.10955,0 2.03125,-0.86794 2.03125,-1.96875 l -.0625,-71.9688 c 0,-1.09978 -1.0144,-2.0625 -2.125,-2.0625 h -5.84375 v -8 h 5.90625 c 1.097,-0.01966 2.0625,-0.976171 2.0625,-2.0625 l .0625,-19 -14.5938,-14.9375 h -75.4375 z  m 3.0059,36 h 5.53125 c 0.554771,0 1.00586,0.432015 1.00586,0.962891 v 2.07227 c 0,0.53188 -0.451089,0.964844 -1.00586,0.964844 h -5.53125 c -0.554771,0 -1.00586,-0.432964 -1.00586,-0.964844 v -2.07227 c 0,-0.530876 0.451088,-0.962891 1.00586,-0.962891 z  m 16.6504,76 h 52.6875 c 0.915455,0 1.65625,0.925 1.65625,2.0625 0,1.13629 -0.740795,2.0625 -1.65625,2.0625 h -52.6875 c -0.91447,0 -1.65625,-0.92621 -1.65625,-2.0625 0,-1.1375 0.74178,-2.0625 1.65625,-2.0625 z "/>
<g style="fill:#fff" id="g8">
<path id="path4193" d="m 35.125,24 57.75,0 C 94.539315,24 96,25.44667 96,27.09375 L 96,40 92,40 86,28 80,40 32,40 32,27.09375 C 32,25.44667 33.46173,24 35.125,24 Z"/>
<path id="path4191" d="m 32,42.5 64,0 0,19.59375 L 32,90.125 32,42.5 Z"/>
</g>
<g style="fill:#7c7c7c" id="g12">
<path id="path4189" d="m 60.125,47.5 0,8.2812 1.7812,0 0,-1.7812 .4375,-.5625 1.4062,2.3438 2.2188,0 -2.375,-3.375 2.0625,-2.3125 -2.1562,0 -1.1562,1.7188 c -0.140707,0.212034 -0.277779,0.443155 -0.40625,0.6875 h -0.03125 v -5 h -1.78125 z "/>
<path id="path4187" d="m 42.1562,47.9375 0,7.8438 4.9375,0 0,-1.4688 -3.1562,0 0,-6.375 -1.7812,0 z "/>
<path id="path4185" d="m 33.5312,49 2.9375,5.8125 2.9375,-5.8125 -5.875,0 z "/>
<path id="path4183" d="m 50.75,49.9688 c -1.86182,0 -3.0625,1.15631 -3.0625,3 0,1.84369 1.28435,2.9375 2.96875,2.9375 1.52942,0 3.03125,-0.95331 3.03125,-3.03125 0,-1.72455 -1.18172,-2.90625 -2.9375,-2.90625 z  m -.0625,1.25 c 0.811613,0 1.15625,0.878689 1.15625,1.71875 0,1.02584 -0.448638,1.71875 -1.15625,1.71875 -0.754515,0 -1.15625,-0.751467 -1.15625,-1.71875 0,-0.852177 0.30793,-1.71875 1.15625,-1.71875 z "/>
<path id="path4181" d="m 57.7812,49.9688 c -2.14323,0 -3.3125,1.37536 -3.3125,3.03125 0,1.78311 1.20272,2.90625 3.0625,2.90625 0.685181,0 1.27563,-0.129796 1.59375,-0.28125 l -.2188,-1.2812 c -0.269178,0.117123 -0.60709,0.1875 -1.03125,0.1875 -0.870751,0 -1.5625,-0.574923 -1.5625,-1.625 -0.0102,-0.920837 0.589126,-1.5625 1.53125,-1.5625 0.471062,0 0.787921,0.06336 1,0.15625 l .2812,-1.3125 c -0.377257,-0.139341 -0.872688,-0.21875 -1.34375,-0.21875 z "/>
</g>
<path style="fill:#fff" id="path4177" d="m 96,65.1875 0,3.0938 -64,28.875 0,-3.9688 64,-28 z "/>
<path style="fill:#a0b5d2" id="path4175" d="m 96,71.09375 0,37.8125 C 96,110.55437 94.539315,112 92.875,112 l -57.75,0 C 33.46173,112 32,110.55437 32,108.90625 l 0,-8.9375 64,-28.875 z"/>
<g style="fill:#fff" id="g21">
<path id="path4173" d="m 70.1875,87.8125 c -1.93493,0 -3.65348,0.376404 -5.15625,1.125 -1.50277,0.747304 -2.53633,1.72755 -3.0625,2.96875 -0.425633,0.999421 -0.354333,1.93051 0.1875,2.78125 0.672396,0.793848 1.21495,1.42787 1.65625,1.90625 0.699814,0.808071 1.14277,1.35759 1.3125,1.65625 0.236315,0.464155 0.27262,0.89489 0.09375,1.3125 -0.190621,0.44735 -0.583082,0.84056 -1.15625,1.125 -0.573168,0.28445 -1.16752,0.40625 -1.8125,0.40625 -1.18289,0 -2.13871,-0.36347 -2.84375,-1.125 l -2.7812,2.5938 c 1.2782,0.97098 3.02278,1.46875 5.1875,1.46875 2.11119,0 3.99419,-0.42922 5.65625,-1.28125 1.66206,-0.85203 2.78355,-1.98511 3.375,-3.375 0.514415,-1.21146 0.405592,-2.34477 -0.3125,-3.40625 -0.545751,-0.806777 -1.13236,-1.56217 -1.78125,-2.25 -0.553584,-0.583103 -0.90591,-0.995296 -1.03125,-1.25 -0.12795,-0.252118 -0.138311,-0.525253 -0.03125,-0.78125 0.280709,-0.655506 1.00861,-0.96875 2.15625,-0.96875 0.695896,0 1.42885,0.196825 2.21875,0.59375 l 2.5,-2.4688 c -1.23512,-0.700759 -2.68552,-1.03125 -4.375,-1.03125 Z "/>
<path id="path4171" d="m 79.0938,88.0625 l -6.6562,15.6875 h 6.09375 c 3.04993,0 5.65039,-0.48096 7.8125,-1.46875 3.28886,-1.50754 5.56816,-3.7804 6.84375,-6.78125 0.812097,-1.91093 0.852232,-3.50514 0.125,-4.78125 -0.731148,-1.27611 -2.18042,-2.07807 -4.3125,-2.4375 -0.795124,-0.133174 -2.15612,-0.21875 -4.125,-0.21875 h -5.78125 z  m 4.1562,3 h 0.96875 c 1.32912,0 2.25369,0.211268 2.8125,0.625 1.01447,0.744718 1.13365,2.04704 0.34375,3.90625 -0.789901,1.8605 -1.88684,3.2316 -3.28125,4.125 -1.07714,0.68395 -2.43039,1.03125 -4.09375,1.03125 h -0.84375 l 4.0938,-9.6875 z "/>
</g>
</svg>
