<svg width="128" version="1.1" xmlns="http://www.w3.org/2000/svg" viewBox="-0.5 -19 128 128" height="128" style="enable-background:new -0.5 -19 128 128">
<path id="path4149" d="m 12.4002,6 -1.4062,2 -1.4002,61.5 c 3.29192,3.533 8.49359,8.391 12.7127,10.5 h 93.875 v -8.5625 c -1.21602,-2.593 -1.84375,-5.3515 -1.84375,-8.1875 0,-2.836 0.62773,-5.5945 1.84375,-8.1875 v -47.0625 l -2.6815,-4 Z "/>
<path style="fill:#7c7c7c" id="path3046" d="m 11,4 -1.4062,2 0,63.5 c 3.29192,3.533 7.09334,6.391 11.3125,8.5 h 93.875 v -8.5625 c -1.21602,-2.593 -1.84375,-5.3515 -1.84375,-8.1875 0,-2.836 0.62773,-5.5945 1.84375,-8.1875 v -47.0625 l -1.375,-2 h -102.406 z "/>
<g style="fill:#fff">
<path style="fill-rule:evenodd;stroke:none;stroke-linejoin:round" id="path4188" d="m 95.2148,29.7578 a 11.934,11.934 0 0,0 -11.9336,11.9336 11.934,11.934 0 0,0 11.9336,11.9336 11.934,11.934 0 0,0 11.9336,-11.9336 11.934,11.934 0 0,0 -11.9336,-11.9336 z  m -.1211,3.3359 c 4.79834,0 8.6875,3.89104 8.6875,8.6875 0,4.79646 -3.88916,8.6875 -8.6875,8.6875 -4.79646,0 -8.6875,-3.89104 -8.6875,-8.6875 0,-4.79646 3.89104,-8.6875 8.6875,-8.6875 z " transform="translate(-0.5,-19)"/>
<path id="path4178" d="m 82.2813,42.25 c -2.00252,0 -3.125,0.800953 -3.125,1.84375 0,0.72413 0.80717,1.39762 2,1.875 0.874164,0.375705 1.40625,0.683092 1.40625,1.21875 0,0.545577 -0.576003,0.9375 -1.625,0.9375 -0.556737,0 -1.25947,-0.132456 -1.65625,-0.28125 l -0.2812,0.9375 c 0.333546,0.138874 1.12657,0.25 1.9375,0.25 1.92192,0 3.3125,-0.737229 3.3125,-1.9375 0,-0.71421 -0.554706,-1.382 -1.90625,-1.9375 -1.09611,-0.436462 -1.53125,-0.671681 -1.53125,-1.1875 0,-0.406703 0.4691,-0.8125 1.4375,-0.8125 0.571616,0 1.02731,0.129725 1.3125,0.25 l 0.3125,-0.9375 C 83.587432,42.360875 82.964562,42.25 82.28135,42.25 Z"/>
<path id="path4176" d="M 40.8125,42.3125 40.0937,49 l 1.46875,0 0.2188,-2.5625 c 0.06447,-0.794807 0.10888,-1.68485 0.125,-2.4375 l 0.0625,0 c 0.190953,0.742729 0.463572,1.57547 0.75,2.25 l 1.0625,2.6562 1.15625,0 1.0938,-2.7188 c 0.255429,-0.646013 0.542928,-1.45345 0.75,-2.1875 l 0.0625,0 c -0.01612,0.73405 0.03051,1.6536 0.09375,2.40625 l 0.2188,2.5938 1.53125,0 -0.625,-6.6875 -1.8125,0 -1.0312,2.6875 c -0.318667,0.872924 -0.527798,1.58986 -0.71875,2.34375 l -0.03125,0 c -0.207071,-0.753889 -0.478954,-1.48075 -0.8125,-2.34375 l -1.0312,-2.6875 -1.8125,0 z"/>
<path id="path4174" d="m 64.5625,62.9062 c -1.60945,0 -2.5,1.05968 -2.5,2.5625 0,1.5115 0.807956,2.59375 2.40625,2.59375 1.4185,0 2.46875,-0.766568 2.46875,-2.65625 0,-1.34659 -0.68123,-2.5012 -2.375,-2.5 z  m -.0625,.6875 c 0.859284,0 1.125,0.936108 1.125,1.84375 0,1.00312 -0.271664,1.90625 -1.09375,1.90625 -0.810926,0 -1.15625,-0.780125 -1.15625,-1.875 0,-1.049 0.326473,-1.8762 1.125,-1.875 z " transform="translate(-0.5,-19)"/>
<path id="path4172" d="m 69.5,62.9375 c -0.535657,0 -1.09107,0.05804 -1.53125,0.125 v 4.9375 h 1.25 v -2.09375 h 0.3125 c 0.631134,0 0.938756,0.228987 1.09375,0.875 0.142594,0.587736 0.299614,1.0774 0.40625,1.21875 h 1.3125 c -0.130195,-0.169873 -0.321448,-0.702445 -0.5,-1.3125 -0.154994,-0.595176 -0.440783,-0.936026 -1,-1.0625 v -0.03125 c 0.810927,-0.23187 1.25,-0.669704 1.25,-1.25 0,-0.416622 -0.152328,-0.763421 -0.59375,-1.03125 -0.47614,-0.2765 -1.17791,-0.375 -2,-0.375 z  m .1562,.625 c 0.834486,0.0074 1.15625,0.352731 1.15625,0.84375 0,0.513339 -0.487432,0.875 -1.25,0.875 h -0.3125 v -1.6875 c 0.106635,-0.02112 0.251256,-0.03125 0.40625,-0.03125 z " transform="translate(-0.5,-19)"/>
<path id="path4170" d="m 95.1875,43.9375 c -1.4309,0 -3.0625,0.69688 -3.0625,2.625 0,1.54746 1.03987,2.46875 2.875,2.46875 0.525738,0 0.94943,-0.04936 1.1875,-0.125 l -.1562,-.6562 c -0.190952,0.05208 -0.483663,0.09375 -0.78125,0.09375 -0.96592,0 -1.78125,-0.497165 -1.78125,-1.84375 0,-1.37014 0.912046,-1.875 1.78125,-1.875 0.380665,0 0.559048,0.04167 0.75,0.09375 l .25,-.6562 c -0.166153,-0.05951 -0.538001,-0.125 -1.0625,-0.125 z "/>
<path id="path4168" d="m 50.0625,43.9687 0,5.0312 3.4375,0 0,-.7188 -2.1562,0 0,-1.5625 1.9062,0 0,-.6875 -1.9062,0 0,-1.375 2,0 0,-.6875 -3.2812,0 z "/>
<path id="path4166" d="m 54.8125,43.9687 -.5312,5.0312 1.125,0 .125,-1.9375 c 0.04711,-0.596416 0.1126,-1.24708 0.125,-1.8125 h 0.03125 c 0.142594,0.556737 0.346749,1.18284 0.5625,1.6875 l .7812,2 h 0.875 l .8438,-2.0625 c 0.190952,-0.48234 0.407507,-1.0757 0.5625,-1.625 h 0.03125 c -0.0124,0.549297 0.04539,1.24708 0.09375,1.8125 l .125,1.9375 h 1.1875 l -.5,-5.0312 h -1.375 l -.75,2.0312 c -0.23807,0.654693 -0.419906,1.18458 -0.5625,1.75 -0.154994,-0.565417 -0.375771,-1.10275 -0.625,-1.75 l -.7812,-2.0312 h -1.34375 z "/>
<path id="path4164" d="m 71.9063,43.9687 1.7812,3 0,2.0312 1.2812,0 0,-2.0625 1.8125,-2.9688 -1.3125,0 -.5938,1.2188 c -0.178553,0.371985 -0.317225,0.713086 -0.4375,1.09375 h -0.03125 c -0.154994,-0.380664 -0.332607,-0.758964 -0.5,-1.09375 l -.625,-1.2188 h -1.375 z "/>
<path id="path4162" d="m 84.7813,43.9687 0,.75 1.4375,0 0,4.2812 1.2812,0 0,-4.2812 1.4375,0 0,-.75 -4.1562,0 z "/>
<path id="path4160" d="m 89.8125,43.9687 0,5.0312 1.2812,0 0,-5.0312 -1.2812,0 z "/>
<path id="path4158" d="m 97.0937,43.9687 0,5.0312 1.25,0 0,-1.8125 .4062,-.4375 1.375,2.25 1.4062,0 -1.9062,-2.875 1.875,-2.1562 -1.4062,0 -1.25,1.6875 c -0.154993,0.209552 -0.313756,0.416689 -0.46875,0.625 h -0.03125 v -2.3125 h -1.25 z "/>
<path id="path4152" d="m 26.5,56.7187 -5.0625,6.3125 5.0625,6.9375 0,-13.25 z"/>
<path id="path4150" d="m 34.0938,57.1249 c -1.05331,0 -2.09834,0.326044 -2.625,0.65625 l .3438,1.9375 c 0.46814,-0.292587 1.02808,-0.5 1.59375,-0.5 0.897268,0 1.5,0.551976 1.5,1.46875 0,1.22887 -1.21997,1.60549 -2.15625,1.625 h -0.25 v 1.875 h 0.34375 c 1.30689,0 2.375,0.59558 2.375,2 0,1.07282 -0.677383,1.84375 -1.90625,1.84375 -0.682704,0 -1.36785,-0.207413 -1.875,-0.5 l -.375,2 c 0.565669,0.3107 1.46619,0.59375 2.5,0.59375 2.75032,0 4.21875,-1.91267 4.21875,-3.84375 0,-1.71791 -0.927383,-2.80913 -2.15625,-3.21875 v -0.03125 c 1.11183,-0.526657 1.8125,-1.57587 1.8125,-2.84375 0,-1.61898 -1.12009,-3.0625 -3.34375,-3.0625 z "/>
<path id="path4147" d="m 42.4688,57.1249 c -1.15084,0 -2.25858,0.410639 -2.84375,0.78125 l .4688,2 c 0.46814,-0.292588 1.10651,-0.65625 1.90625,-0.65625 1.05331,0 1.625,0.704447 1.625,1.71875 0,1.81544 -1.36151,3.56913 -3,5.65625 l -1.25,1.625 v 1.71875 h 6.9375 v -2.28125 h -3.875 v -0.03125 l .75,-.875 c 1.46294,-1.69701 2.9375,-3.62029 2.9375,-6 0,-1.81404 -0.886422,-3.65625 -3.65625,-3.65625 z "/>
<path id="path4145" d="m 61.5938,80.4375 c -0.952999,0 -1.96717,0.08858 -2.46875,0.1875 v 8.28125 c 0.426342,0.06269 1.15329,0.125 2.09375,0.125 1.68029,0 2.69807,-0.259568 3.3125,-0.75 0.526657,-0.426342 0.875,-1.01495 0.875,-1.78125 0,-1.08954 -0.721961,-1.83181 -1.6875,-2.09375 v -0.03125 c 0.952999,-0.351105 1.40625,-1.06013 1.40625,-1.8125 0,-0.763514 -0.441895,-1.34137 -1.03125,-1.65625 -0.614434,-0.363645 -1.33383,-0.46875 -2.5,-0.46875 z  m .25,1.4062 c 0.865223,0 1.34375,0.329238 1.34375,0.96875 0,0.626974 -0.528093,1.03125 -1.53125,1.03125 h -0.625 v -1.96875 c 0.163013,-0.02365 0.398697,-0.03125 0.8125,-0.03125 z  m -.8125,3.375 h 0.65625 c 0.952999,0 1.71875,0.334817 1.71875,1.1875 0,0.877763 -0.759777,1.21875 -1.625,1.21875 -0.326026,0 -0.561908,-0.0062 -0.75,-0.03125 v -2.375 z " transform="translate(-0.5,-19)"/>
<path id="path4143" d="m 48.375,61.4999 -.5312,8.4688 1.7812,0 .125,-3.2188 c 0.06269,-1.05331 0.10609,-2.35891 0.15625,-3.5 h 0.03125 c 0.200631,1.10347 0.474132,2.30934 0.75,3.3125 l .9062,3.25 h 1.5 l 1.0312,-3.2812 c 0.326026,-0.990618 0.674171,-2.20286 0.9375,-3.28125 h 0.03125 c 0,1.23026 0.05613,2.45305 0.09375,3.46875 l .125,3.25 h 1.84375 l -.4375,-8.4688 h -2.5 l -.9062,2.8125 c -0.275868,0.94046 -0.574251,2.05317 -0.8125,3.03125 h -0.03125 c -0.188092,-0.990618 -0.455421,-2.06571 -0.71875,-3.03125 l -.8125,-2.8125 h -2.5625 z "/>
</g>
</svg>
