<svg width="48" version="1.1" xmlns="http://www.w3.org/2000/svg" height="48">
<g style="fill-rule:evenodd" id="g5">
<g style="stroke:#003bc3;stroke-linecap:square;stroke-width:0" id="g7">
<g style="stroke-miterlimit:2" id="g9">
<path style="opacity:.6" id="path4157" d="m 24,2 c -12.7071,0 -23,10.2929 -23,23 0,12.7072 10.2929,23 23,23 12.7072,0 23,-10.2928 23,-23 0,-12.7071 -10.2928,-23 -23,-23 Z  m 0,19.2266 c 2.09091,0 3.77332,1.68236 3.77332,3.77347 0,2.09091 -1.68241,3.77332 -3.77332,3.77332 -2.09111,0 -3.77345,-1.68241 -3.77345,-3.77332 0,-2.09111 1.68236,-3.77347 3.77345,-3.77347 z "/>
<path style="fill:#ecf0f1" id="shape011" d="m 24,1 c -12.7071,0 -23,10.2929 -23,23 1.55431e-15,12.7072 10.2929,23 23,23 12.7072,0 23,-10.2928 23,-23 0,-12.7071 -10.2928,-23 -23,-23 Z  m 0,19.2266 c 2.09091,0 3.77332,1.68236 3.77332,3.77347 0,2.09091 -1.68241,3.77332 -3.77332,3.77332 -2.09111,0 -3.77345,-1.68241 -3.77345,-3.77332 0,-2.09111 1.68236,-3.77347 3.77345,-3.77347 z "/>
<path style="fill:#b2b2b2" id="shape11" d="m 23.9891,15.0741 c -4.91681,0 -8.91488,3.99807 -8.91488,8.91489 0,4.9167 3.99807,8.91489 8.91488,8.91489 4.9167,0 8.91489,-3.99819 8.91489,-8.91489 0,-4.91681 -3.99819,-8.91488 -8.91489,-8.91488 z  m 0,5.0785 c 2.12591,0 3.83626,1.7104 3.83626,3.83633 0,2.12591 -1.71035,3.83626 -3.83626,3.83626 -2.12593,0 -3.83633,-1.71035 -3.83633,-3.83626 0,-2.12593 1.7104,-3.83633 3.83633,-3.83633 z "/>
</g>
<g style="fill:#8196ab;stroke-linejoin:bevel" id="g14">
<path id="shape0" d="m 29.7579,32.5719 c 1.56411,-1.09124 2.00815,-1.78833 2.62629,-2.56382 l 9.2206,6.6135 c -1.39363,2.17107 -3.04015,4.06349 -5.3097,5.36073 z "/>
<path id="shape1" d="m 18.2212,15.3972 c -1.61128,1.13621 -2.06871,1.86205 -2.70549,2.66951 l -9.4986,-6.8861 c 1.43564,-2.26058 3.13184,-4.23102 5.46983,-5.5817 Z "/>
</g>
</g>
<g style="stroke:none" id="g18">
<g id="g4293" transform="matrix(0.43082115,0,0,0.43082115,30.514648,-3.7495797)">
<path id="path4295" d="m 6.7823,54.7852 c -0.51254,0 -0.90625,0.42541 -0.90625,0.9375 v 5.375 c 0,0.52152 0.37531,0.9375 0.90625,0.9375 h 2.75 c 0.53049,0 0.9375,-0.41598 0.9375,-0.9375 v -5.375 c 0,-0.51164 -0.42496,-0.9375 -0.9375,-0.9375 h -2.75 z  m 0,.9375 2.75,0 0,5.375 -2.75,0 0,-5.375 z "/>
<path id="path4297" d="m 12.8456,54.7852 c 0.0553,-0.0178 0.12702,0 0.1875,0 h 2.3125 v 6.3125 h 0.875 v -1.875 c 0,-0.27018 0.12406,-0.46875 0.46875,-0.46875 0.34469,0 0.46875,0.19857 0.46875,0.46875 v 2.34375 c 0,0.33526 -0.22639,0.46875 -0.46875,0.46875 h -3.65625 c -0.24236,0 -0.46875,-0.13349 -0.46875,-0.46875 0,-0.33526 0.22684,-0.46875 0.46875,-0.46875 h 1.375 v -5.375 h -1.375 c -0.24236,0 -0.46875,-0.13349 -0.46875,-0.46875 0,-0.25144 0.1154,-0.41549 0.28125,-0.46875 z "/>
<path id="path4299" d="m 20.1885,54.7852 c -0.51209,0 -0.90625,0.42541 -0.90625,0.9375 v 5.375 c 0,0.52152 0.37531,0.9375 0.90625,0.9375 h 2.75 c 0.53094,0 0.9375,-0.41598 0.9375,-0.9375 v -5.375 c 0,-0.51164 -0.42451,-0.9375 -0.9375,-0.9375 h -2.75 z  m 0,.9375 2.75,0 0,5.375 -2.75,0 0,-5.375 z "/>
<path id="path4301" d="m 26.9073,54.7852 c -0.51209,0 -0.9375,0.42541 -0.9375,0.9375 v 5.375 c 0,0.52152 0.40656,0.9375 0.9375,0.9375 h 2.75 c 0.53094,0 0.90625,-0.41598 0.90625,-0.9375 v -5.375 c 0,-0.51164 -0.39326,-0.9375 -0.90625,-0.9375 h -2.75 z  m 0,.9375 2.75,0 0,5.375 -2.75,0 0,-5.375 z "/>
<path id="path4303" d="m 32.9706,54.7852 c 0.0553,-0.0178 0.12691,0 0.1875,0 h 2.28125 v 6.3125 h 0.90625 v -1.875 c 0,-0.27018 0.12451,-0.46875 0.46875,-0.46875 0.34424,0 0.46875,0.19857 0.46875,0.46875 v 2.34375 c 0,0.33526 -0.22684,0.46875 -0.46875,0.46875 h -3.65625 c -0.24236,0 -0.46875,-0.13349 -0.46875,-0.46875 0,-0.33526 0.22639,-0.46875 0.46875,-0.46875 h 1.34375 v -5.375 h -1.34375 c -0.24236,0 -0.46875,-0.13349 -0.46875,-0.46875 0,-0.25144 0.11533,-0.41549 0.28125,-0.46875 z "/>
<path id="path4305" d="m 6.1581,65.9727 c 0.0523,-0.0178 0.0958,0 0.15625,0 h 2.3125 v 6.3125 h 0.90625 v -1.875 c 0,-0.27063 0.12406,-0.46875 0.46875,-0.46875 0.34469,0 0.46875,0.19857 0.46875,0.46875 v 2.34375 c 0,0.33526 -0.22639,0.46875 -0.46875,0.46875 h -3.6875 c -0.24236,0 -0.4375,-0.13349 -0.4375,-0.46875 0,-0.33526 0.19559,-0.46875 0.4375,-0.46875 h 1.375 v -5.375 h -1.375 c -0.24236,0 -0.4375,-0.13304 -0.4375,-0.46875 0,-0.25111 0.12418,-0.41539 0.28125,-0.46875 z "/>
<path id="path4307" d="m 13.501,65.9727 c -0.51254,0 -0.9375,0.42541 -0.9375,0.9375 v 5.375 c 0,0.52107 0.40656,0.9375 0.9375,0.9375 h 2.71875 c 0.53049,0 0.9375,-0.41643 0.9375,-0.9375 v -5.375 c 0,-0.51164 -0.42496,-0.9375 -0.9375,-0.9375 h -2.71875 z  m 0,.9375 2.7188,0 0,5.375 -2.7188,0 0,-5.375 z "/>
<path id="path4309" d="m 20.1885,65.9727 c -0.51209,0 -0.90625,0.42541 -0.90625,0.9375 v 5.375 c 0,0.52107 0.37531,0.9375 0.90625,0.9375 h 2.75 c 0.53094,0 0.9375,-0.41643 0.9375,-0.9375 v -5.375 c 0,-0.51164 -0.42451,-0.9375 -0.9375,-0.9375 h -2.75 z  m 0,.9375 2.75,0 0,5.375 -2.75,0 0,-5.375 z "/>
<path id="path4311" d="m 26.2518,65.9727 c 0.0553,-0.0178 0.12702,0 0.1875,0 h 2.3125 v 6.3125 h 0.90625 v -1.875 c 0,-0.27063 0.0933,-0.46875 0.4375,-0.46875 0.34424,0 0.46875,0.19857 0.46875,0.46875 v 2.34375 c 0,0.33526 -0.22639,0.46875 -0.46875,0.46875 h -3.65625 c -0.24191,0 -0.46875,-0.13349 -0.46875,-0.46875 0,-0.33526 0.22684,-0.46875 0.46875,-0.46875 h 1.375 v -5.375 h -1.375 c -0.24191,0 -0.46875,-0.13304 -0.46875,-0.46875 0,-0.25111 0.1154,-0.41539 0.28125,-0.46875 z "/>
<path id="path4313" d="m 32.9706,65.9727 c 0.0553,-0.0178 0.12691,0 0.1875,0 h 2.28125 v 6.3125 h 0.90625 v -1.875 c 0,-0.27063 0.12451,-0.46875 0.46875,-0.46875 0.34424,0 0.46875,0.19812 0.46875,0.46875 v 2.34375 c 0,0.33526 -0.22684,0.46875 -0.46875,0.46875 h -3.65625 c -0.24236,0 -0.46875,-0.13349 -0.46875,-0.46875 0,-0.33526 0.22639,-0.46875 0.46875,-0.46875 h 1.34375 v -5.375 h -1.34375 c -0.24236,0 -0.46875,-0.13304 -0.46875,-0.46875 0,-0.25111 0.11533,-0.41539 0.28125,-0.46875 z "/>
</g>
<g id="g4379" transform="matrix(0.41940436,0,0,0.41940436,-2.6417417,-4.7703997)">
<path id="path4317" d="m 49.2027,90.6708 c -0.51254,0 -0.90625,0.42541 -0.90625,0.9375 v 5.375 c 0,0.52152 0.37531,0.9375 0.90625,0.9375 h 2.75 c 0.53049,0 0.9375,-0.41598 0.9375,-0.9375 v -5.375 c 0,-0.51164 -0.42496,-0.9375 -0.9375,-0.9375 h -2.75 z  m 0,.9375 2.75,0 0,5.375 -2.75,0 0,-5.375 z "/>
<path id="path4319" d="m 55.266,90.6708 c 0.0553,-0.0178 0.12702,0 0.1875,0 h 2.3125 v 6.3125 h 0.875 v -1.875 c 0,-0.27018 0.12406,-0.46875 0.46875,-0.46875 0.34469,0 0.46875,0.19857 0.46875,0.46875 v 2.34375 c 0,0.33526 -0.22639,0.46875 -0.46875,0.46875 h -3.65625 c -0.24236,0 -0.46875,-0.13349 -0.46875,-0.46875 0,-0.33526 0.22684,-0.46875 0.46875,-0.46875 h 1.375 v -5.375 h -1.375 c -0.24236,0 -0.46875,-0.13349 -0.46875,-0.46875 0,-0.25144 0.1154,-0.41549 0.28125,-0.46875 z "/>
<path id="path4321" d="m 62.609,90.6708 c -0.51209,0 -0.90625,0.42541 -0.90625,0.9375 v 5.375 c 0,0.52152 0.37531,0.9375 0.90625,0.9375 h 2.75 c 0.53094,0 0.9375,-0.41598 0.9375,-0.9375 v -5.375 c 0,-0.51164 -0.42451,-0.9375 -0.9375,-0.9375 h -2.75 z  m 0,.9375 2.75,0 0,5.375 -2.75,0 0,-5.375 z "/>
<path id="path4323" d="m 69.3277,90.6708 c -0.51209,0 -0.9375,0.42541 -0.9375,0.9375 v 5.375 c 0,0.52152 0.40656,0.9375 0.9375,0.9375 h 2.75 c 0.53094,0 0.90625,-0.41598 0.90625,-0.9375 v -5.375 c 0,-0.51164 -0.39326,-0.9375 -0.90625,-0.9375 h -2.75 z  m 0,.9375 2.75,0 0,5.375 -2.75,0 0,-5.375 z "/>
<path id="path4325" d="m 75.391,90.6708 c 0.0553,-0.0178 0.12691,0 0.1875,0 h 2.28125 v 6.3125 h 0.90625 v -1.875 c 0,-0.27018 0.12451,-0.46875 0.46875,-0.46875 0.34424,0 0.46875,0.19857 0.46875,0.46875 v 2.34375 c 0,0.33526 -0.22684,0.46875 -0.46875,0.46875 h -3.65625 c -0.24236,0 -0.46875,-0.13349 -0.46875,-0.46875 0,-0.33526 0.22639,-0.46875 0.46875,-0.46875 h 1.34375 v -5.375 h -1.34375 c -0.24236,0 -0.46875,-0.13349 -0.46875,-0.46875 0,-0.25144 0.11533,-0.41549 0.28125,-0.46875 z "/>
<path id="path4327" d="m 48.5785,101.8583 c 0.0523,-0.0178 0.0958,0 0.15625,0 h 2.3125 v 6.3125 h 0.90625 v -1.875 c 0,-0.27063 0.12406,-0.46875 0.46875,-0.46875 0.34469,0 0.46875,0.19857 0.46875,0.46875 v 2.34375 c 0,0.33526 -0.22639,0.46875 -0.46875,0.46875 h -3.6875 c -0.24236,0 -0.4375,-0.13349 -0.4375,-0.46875 0,-0.33526 0.19559,-0.46875 0.4375,-0.46875 h 1.375 v -5.375 h -1.375 c -0.24236,0 -0.4375,-0.13304 -0.4375,-0.46875 0,-0.25111 0.12418,-0.41539 0.28125,-0.46875 z "/>
<path id="path4329" d="m 55.9215,101.8583 c -0.51254,0 -0.9375,0.42541 -0.9375,0.9375 v 5.375 c 0,0.52107 0.40656,0.9375 0.9375,0.9375 h 2.71875 c 0.53049,0 0.9375,-0.41643 0.9375,-0.9375 v -5.375 c 0,-0.51164 -0.42496,-0.9375 -0.9375,-0.9375 h -2.71875 z  m 0,.9375 2.7188,0 0,5.375 -2.7188,0 0,-5.375 z "/>
<path id="path4331" d="m 62.609,101.8583 c -0.51209,0 -0.90625,0.42541 -0.90625,0.9375 v 5.375 c 0,0.52107 0.37531,0.9375 0.90625,0.9375 h 2.75 c 0.53094,0 0.9375,-0.41643 0.9375,-0.9375 v -5.375 c 0,-0.51164 -0.42451,-0.9375 -0.9375,-0.9375 h -2.75 z  m 0,.9375 2.75,0 0,5.375 -2.75,0 0,-5.375 z "/>
<path id="path4333" d="m 68.6723,101.8583 c 0.0553,-0.0178 0.12702,0 0.1875,0 h 2.3125 v 6.3125 h 0.90625 v -1.875 c 0,-0.27063 0.0933,-0.46875 0.4375,-0.46875 0.34424,0 0.46875,0.19857 0.46875,0.46875 v 2.34375 c 0,0.33526 -0.22639,0.46875 -0.46875,0.46875 h -3.65625 c -0.24191,0 -0.46875,-0.13349 -0.46875,-0.46875 0,-0.33526 0.22684,-0.46875 0.46875,-0.46875 h 1.375 v -5.375 h -1.375 c -0.24191,0 -0.46875,-0.13304 -0.46875,-0.46875 0,-0.25111 0.1154,-0.41539 0.28125,-0.46875 z "/>
<path id="path4335" d="m 75.391,101.8583 c 0.0553,-0.0178 0.12691,0 0.1875,0 h 2.28125 v 6.3125 h 0.90625 v -1.875 c 0,-0.27063 0.12451,-0.46875 0.46875,-0.46875 0.34424,0 0.46875,0.19812 0.46875,0.46875 v 2.34375 c 0,0.33526 -0.22684,0.46875 -0.46875,0.46875 h -3.65625 c -0.24236,0 -0.46875,-0.13349 -0.46875,-0.46875 0,-0.33526 0.22639,-0.46875 0.46875,-0.46875 h 1.34375 v -5.375 h -1.34375 c -0.24236,0 -0.46875,-0.13304 -0.46875,-0.46875 0,-0.25111 0.11533,-0.41539 0.28125,-0.46875 z "/>
<path id="path4369" d="m 49.2027,113.571 c -0.51254,0 -0.90625,0.42541 -0.90625,0.9375 v 5.375 c 0,0.52152 0.37531,0.9375 0.90625,0.9375 h 2.75 c 0.53049,0 0.9375,-0.41598 0.9375,-0.9375 v -5.375 c 0,-0.51164 -0.42496,-0.9375 -0.9375,-0.9375 h -2.75 z  m 0,.9375 2.75,0 0,5.375 -2.75,0 0,-5.375 z "/>
<path id="path4371" d="m 55.266,113.571 c 0.0553,-0.0178 0.12702,0 0.1875,0 h 2.3125 v 6.3125 h 0.875 v -1.875 c 0,-0.27018 0.12406,-0.46875 0.46875,-0.46875 0.34469,0 0.46875,0.19857 0.46875,0.46875 v 2.34375 c 0,0.33526 -0.22639,0.46875 -0.46875,0.46875 h -3.65625 c -0.24236,0 -0.46875,-0.13349 -0.46875,-0.46875 0,-0.33526 0.22684,-0.46875 0.46875,-0.46875 h 1.375 v -5.375 h -1.375 c -0.24236,0 -0.46875,-0.13349 -0.46875,-0.46875 0,-0.25144 0.1154,-0.41549 0.28125,-0.46875 z "/>
<path id="path4373" d="m 62.609,113.571 c -0.51209,0 -0.90625,0.42541 -0.90625,0.9375 v 5.375 c 0,0.52152 0.37531,0.9375 0.90625,0.9375 h 2.75 c 0.53094,0 0.9375,-0.41598 0.9375,-0.9375 v -5.375 c 0,-0.51164 -0.42451,-0.9375 -0.9375,-0.9375 h -2.75 z  m 0,.9375 2.75,0 0,5.375 -2.75,0 0,-5.375 z "/>
<path id="path4375" d="m 69.3277,113.571 c -0.51209,0 -0.9375,0.42541 -0.9375,0.9375 v 5.375 c 0,0.52152 0.40656,0.9375 0.9375,0.9375 h 2.75 c 0.53094,0 0.90625,-0.41598 0.90625,-0.9375 v -5.375 c 0,-0.51164 -0.39326,-0.9375 -0.90625,-0.9375 h -2.75 z  m 0,.9375 2.75,0 0,5.375 -2.75,0 0,-5.375 z "/>
<path id="path4377" d="m 75.391,113.571 c 0.0553,-0.0178 0.12691,0 0.1875,0 h 2.28125 v 6.3125 h 0.90625 v -1.875 c 0,-0.27018 0.12451,-0.46875 0.46875,-0.46875 0.34424,0 0.46875,0.19857 0.46875,0.46875 v 2.34375 c 0,0.33526 -0.22684,0.46875 -0.46875,0.46875 h -3.65625 c -0.24236,0 -0.46875,-0.13349 -0.46875,-0.46875 0,-0.33526 0.22639,-0.46875 0.46875,-0.46875 h 1.34375 v -5.375 h -1.34375 c -0.24236,0 -0.46875,-0.13349 -0.46875,-0.46875 0,-0.25144 0.11533,-0.41549 0.28125,-0.46875 z "/>
</g>
<g id="g4571" transform="matrix(0.43082115,0,0,0.43082115,-1.0855266,-3.7495797)">
<path id="path4573" d="m 6.7823,54.7852 c -0.51254,0 -0.90625,0.42541 -0.90625,0.9375 v 5.375 c 0,0.52152 0.37531,0.9375 0.90625,0.9375 h 2.75 c 0.53049,0 0.9375,-0.41598 0.9375,-0.9375 v -5.375 c 0,-0.51164 -0.42496,-0.9375 -0.9375,-0.9375 h -2.75 z  m 0,.9375 2.75,0 0,5.375 -2.75,0 0,-5.375 z "/>
<path id="path4575" d="m 12.8456,54.7852 c 0.0553,-0.0178 0.12702,0 0.1875,0 h 2.3125 v 6.3125 h 0.875 v -1.875 c 0,-0.27018 0.12406,-0.46875 0.46875,-0.46875 0.34469,0 0.46875,0.19857 0.46875,0.46875 v 2.34375 c 0,0.33526 -0.22639,0.46875 -0.46875,0.46875 h -3.65625 c -0.24236,0 -0.46875,-0.13349 -0.46875,-0.46875 0,-0.33526 0.22684,-0.46875 0.46875,-0.46875 h 1.375 v -5.375 h -1.375 c -0.24236,0 -0.46875,-0.13349 -0.46875,-0.46875 0,-0.25144 0.1154,-0.41549 0.28125,-0.46875 z "/>
<path id="path4577" d="m 20.1885,54.7852 c -0.51209,0 -0.90625,0.42541 -0.90625,0.9375 v 5.375 c 0,0.52152 0.37531,0.9375 0.90625,0.9375 h 2.75 c 0.53094,0 0.9375,-0.41598 0.9375,-0.9375 v -5.375 c 0,-0.51164 -0.42451,-0.9375 -0.9375,-0.9375 h -2.75 z  m 0,.9375 2.75,0 0,5.375 -2.75,0 0,-5.375 z "/>
<path id="path4579" d="m 26.9073,54.7852 c -0.51209,0 -0.9375,0.42541 -0.9375,0.9375 v 5.375 c 0,0.52152 0.40656,0.9375 0.9375,0.9375 h 2.75 c 0.53094,0 0.90625,-0.41598 0.90625,-0.9375 v -5.375 c 0,-0.51164 -0.39326,-0.9375 -0.90625,-0.9375 h -2.75 z  m 0,.9375 2.75,0 0,5.375 -2.75,0 0,-5.375 z "/>
<path id="path4581" d="m 32.9706,54.7852 c 0.0553,-0.0178 0.12691,0 0.1875,0 h 2.28125 v 6.3125 h 0.90625 v -1.875 c 0,-0.27018 0.12451,-0.46875 0.46875,-0.46875 0.34424,0 0.46875,0.19857 0.46875,0.46875 v 2.34375 c 0,0.33526 -0.22684,0.46875 -0.46875,0.46875 h -3.65625 c -0.24236,0 -0.46875,-0.13349 -0.46875,-0.46875 0,-0.33526 0.22639,-0.46875 0.46875,-0.46875 h 1.34375 v -5.375 h -1.34375 c -0.24236,0 -0.46875,-0.13349 -0.46875,-0.46875 0,-0.25144 0.11533,-0.41549 0.28125,-0.46875 z "/>
<path id="path4583" d="m 6.1581,65.9727 c 0.0523,-0.0178 0.0958,0 0.15625,0 h 2.3125 v 6.3125 h 0.90625 v -1.875 c 0,-0.27063 0.12406,-0.46875 0.46875,-0.46875 0.34469,0 0.46875,0.19857 0.46875,0.46875 v 2.34375 c 0,0.33526 -0.22639,0.46875 -0.46875,0.46875 h -3.6875 c -0.24236,0 -0.4375,-0.13349 -0.4375,-0.46875 0,-0.33526 0.19559,-0.46875 0.4375,-0.46875 h 1.375 v -5.375 h -1.375 c -0.24236,0 -0.4375,-0.13304 -0.4375,-0.46875 0,-0.25111 0.12418,-0.41539 0.28125,-0.46875 z "/>
<path id="path4585" d="m 13.501,65.9727 c -0.51254,0 -0.9375,0.42541 -0.9375,0.9375 v 5.375 c 0,0.52107 0.40656,0.9375 0.9375,0.9375 h 2.71875 c 0.53049,0 0.9375,-0.41643 0.9375,-0.9375 v -5.375 c 0,-0.51164 -0.42496,-0.9375 -0.9375,-0.9375 h -2.71875 z  m 0,.9375 2.7188,0 0,5.375 -2.7188,0 0,-5.375 z "/>
<path id="path4587" d="m 20.1885,65.9727 c -0.51209,0 -0.90625,0.42541 -0.90625,0.9375 v 5.375 c 0,0.52107 0.37531,0.9375 0.90625,0.9375 h 2.75 c 0.53094,0 0.9375,-0.41643 0.9375,-0.9375 v -5.375 c 0,-0.51164 -0.42451,-0.9375 -0.9375,-0.9375 h -2.75 z  m 0,.9375 2.75,0 0,5.375 -2.75,0 0,-5.375 z "/>
<path id="path4589" d="m 26.2518,65.9727 c 0.0553,-0.0178 0.12702,0 0.1875,0 h 2.3125 v 6.3125 h 0.90625 v -1.875 c 0,-0.27063 0.0933,-0.46875 0.4375,-0.46875 0.34424,0 0.46875,0.19857 0.46875,0.46875 v 2.34375 c 0,0.33526 -0.22639,0.46875 -0.46875,0.46875 h -3.65625 c -0.24191,0 -0.46875,-0.13349 -0.46875,-0.46875 0,-0.33526 0.22684,-0.46875 0.46875,-0.46875 h 1.375 v -5.375 h -1.375 c -0.24191,0 -0.46875,-0.13304 -0.46875,-0.46875 0,-0.25111 0.1154,-0.41539 0.28125,-0.46875 z "/>
<path id="path4591" d="m 32.9706,65.9727 c 0.0553,-0.0178 0.12691,0 0.1875,0 h 2.28125 v 6.3125 h 0.90625 v -1.875 c 0,-0.27063 0.12451,-0.46875 0.46875,-0.46875 0.34424,0 0.46875,0.19812 0.46875,0.46875 v 2.34375 c 0,0.33526 -0.22684,0.46875 -0.46875,0.46875 h -3.65625 c -0.24236,0 -0.46875,-0.13349 -0.46875,-0.46875 0,-0.33526 0.22639,-0.46875 0.46875,-0.46875 h 1.34375 v -5.375 h -1.34375 c -0.24236,0 -0.46875,-0.13304 -0.46875,-0.46875 0,-0.25111 0.11533,-0.41539 0.28125,-0.46875 z "/>
</g>
<g id="g4612" transform="matrix(0.41940436,0,0,0.41940436,-2.0417417,-35.870854)">
<path id="path4614" d="m 49.2027,90.6708 c -0.51254,0 -0.90625,0.42541 -0.90625,0.9375 v 5.375 c 0,0.52152 0.37531,0.9375 0.90625,0.9375 h 2.75 c 0.53049,0 0.9375,-0.41598 0.9375,-0.9375 v -5.375 c 0,-0.51164 -0.42496,-0.9375 -0.9375,-0.9375 h -2.75 z  m 0,.9375 2.75,0 0,5.375 -2.75,0 0,-5.375 z "/>
<path id="path4616" d="m 55.266,90.6708 c 0.0553,-0.0178 0.12702,0 0.1875,0 h 2.3125 v 6.3125 h 0.875 v -1.875 c 0,-0.27018 0.12406,-0.46875 0.46875,-0.46875 0.34469,0 0.46875,0.19857 0.46875,0.46875 v 2.34375 c 0,0.33526 -0.22639,0.46875 -0.46875,0.46875 h -3.65625 c -0.24236,0 -0.46875,-0.13349 -0.46875,-0.46875 0,-0.33526 0.22684,-0.46875 0.46875,-0.46875 h 1.375 v -5.375 h -1.375 c -0.24236,0 -0.46875,-0.13349 -0.46875,-0.46875 0,-0.25144 0.1154,-0.41549 0.28125,-0.46875 z "/>
<path id="path4618" d="m 62.609,90.6708 c -0.51209,0 -0.90625,0.42541 -0.90625,0.9375 v 5.375 c 0,0.52152 0.37531,0.9375 0.90625,0.9375 h 2.75 c 0.53094,0 0.9375,-0.41598 0.9375,-0.9375 v -5.375 c 0,-0.51164 -0.42451,-0.9375 -0.9375,-0.9375 h -2.75 z  m 0,.9375 2.75,0 0,5.375 -2.75,0 0,-5.375 z "/>
<path id="path4620" d="m 69.3277,90.6708 c -0.51209,0 -0.9375,0.42541 -0.9375,0.9375 v 5.375 c 0,0.52152 0.40656,0.9375 0.9375,0.9375 h 2.75 c 0.53094,0 0.90625,-0.41598 0.90625,-0.9375 v -5.375 c 0,-0.51164 -0.39326,-0.9375 -0.90625,-0.9375 h -2.75 z  m 0,.9375 2.75,0 0,5.375 -2.75,0 0,-5.375 z "/>
<path id="path4622" d="m 75.391,90.6708 c 0.0553,-0.0178 0.12691,0 0.1875,0 h 2.28125 v 6.3125 h 0.90625 v -1.875 c 0,-0.27018 0.12451,-0.46875 0.46875,-0.46875 0.34424,0 0.46875,0.19857 0.46875,0.46875 v 2.34375 c 0,0.33526 -0.22684,0.46875 -0.46875,0.46875 h -3.65625 c -0.24236,0 -0.46875,-0.13349 -0.46875,-0.46875 0,-0.33526 0.22639,-0.46875 0.46875,-0.46875 h 1.34375 v -5.375 h -1.34375 c -0.24236,0 -0.46875,-0.13349 -0.46875,-0.46875 0,-0.25144 0.11533,-0.41549 0.28125,-0.46875 z "/>
<path id="path4624" d="m 48.5785,101.8583 c 0.0523,-0.0178 0.0958,0 0.15625,0 h 2.3125 v 6.3125 h 0.90625 v -1.875 c 0,-0.27063 0.12406,-0.46875 0.46875,-0.46875 0.34469,0 0.46875,0.19857 0.46875,0.46875 v 2.34375 c 0,0.33526 -0.22639,0.46875 -0.46875,0.46875 h -3.6875 c -0.24236,0 -0.4375,-0.13349 -0.4375,-0.46875 0,-0.33526 0.19559,-0.46875 0.4375,-0.46875 h 1.375 v -5.375 h -1.375 c -0.24236,0 -0.4375,-0.13304 -0.4375,-0.46875 0,-0.25111 0.12418,-0.41539 0.28125,-0.46875 z "/>
<path id="path4626" d="m 55.9215,101.8583 c -0.51254,0 -0.9375,0.42541 -0.9375,0.9375 v 5.375 c 0,0.52107 0.40656,0.9375 0.9375,0.9375 h 2.71875 c 0.53049,0 0.9375,-0.41643 0.9375,-0.9375 v -5.375 c 0,-0.51164 -0.42496,-0.9375 -0.9375,-0.9375 h -2.71875 z  m 0,.9375 2.7188,0 0,5.375 -2.7188,0 0,-5.375 z "/>
<path id="path4628" d="m 62.609,101.8583 c -0.51209,0 -0.90625,0.42541 -0.90625,0.9375 v 5.375 c 0,0.52107 0.37531,0.9375 0.90625,0.9375 h 2.75 c 0.53094,0 0.9375,-0.41643 0.9375,-0.9375 v -5.375 c 0,-0.51164 -0.42451,-0.9375 -0.9375,-0.9375 h -2.75 z  m 0,.9375 2.75,0 0,5.375 -2.75,0 0,-5.375 z "/>
<path id="path4630" d="m 68.6723,101.8583 c 0.0553,-0.0178 0.12702,0 0.1875,0 h 2.3125 v 6.3125 h 0.90625 v -1.875 c 0,-0.27063 0.0933,-0.46875 0.4375,-0.46875 0.34424,0 0.46875,0.19857 0.46875,0.46875 v 2.34375 c 0,0.33526 -0.22639,0.46875 -0.46875,0.46875 h -3.65625 c -0.24191,0 -0.46875,-0.13349 -0.46875,-0.46875 0,-0.33526 0.22684,-0.46875 0.46875,-0.46875 h 1.375 v -5.375 h -1.375 c -0.24191,0 -0.46875,-0.13304 -0.46875,-0.46875 0,-0.25111 0.1154,-0.41539 0.28125,-0.46875 z "/>
<path id="path4632" d="m 75.391,101.8583 c 0.0553,-0.0178 0.12691,0 0.1875,0 h 2.28125 v 6.3125 h 0.90625 v -1.875 c 0,-0.27063 0.12451,-0.46875 0.46875,-0.46875 0.34424,0 0.46875,0.19812 0.46875,0.46875 v 2.34375 c 0,0.33526 -0.22684,0.46875 -0.46875,0.46875 h -3.65625 c -0.24236,0 -0.46875,-0.13349 -0.46875,-0.46875 0,-0.33526 0.22639,-0.46875 0.46875,-0.46875 h 1.34375 v -5.375 h -1.34375 c -0.24236,0 -0.46875,-0.13304 -0.46875,-0.46875 0,-0.25111 0.11533,-0.41539 0.28125,-0.46875 z "/>
<path id="path4634" d="m 49.2027,113.571 c -0.51254,0 -0.90625,0.42541 -0.90625,0.9375 v 5.375 c 0,0.52152 0.37531,0.9375 0.90625,0.9375 h 2.75 c 0.53049,0 0.9375,-0.41598 0.9375,-0.9375 v -5.375 c 0,-0.51164 -0.42496,-0.9375 -0.9375,-0.9375 h -2.75 z  m 0,.9375 2.75,0 0,5.375 -2.75,0 0,-5.375 z "/>
<path id="path4636" d="m 55.266,113.571 c 0.0553,-0.0178 0.12702,0 0.1875,0 h 2.3125 v 6.3125 h 0.875 v -1.875 c 0,-0.27018 0.12406,-0.46875 0.46875,-0.46875 0.34469,0 0.46875,0.19857 0.46875,0.46875 v 2.34375 c 0,0.33526 -0.22639,0.46875 -0.46875,0.46875 h -3.65625 c -0.24236,0 -0.46875,-0.13349 -0.46875,-0.46875 0,-0.33526 0.22684,-0.46875 0.46875,-0.46875 h 1.375 v -5.375 h -1.375 c -0.24236,0 -0.46875,-0.13349 -0.46875,-0.46875 0,-0.25144 0.1154,-0.41549 0.28125,-0.46875 z "/>
<path id="path4638" d="m 62.609,113.571 c -0.51209,0 -0.90625,0.42541 -0.90625,0.9375 v 5.375 c 0,0.52152 0.37531,0.9375 0.90625,0.9375 h 2.75 c 0.53094,0 0.9375,-0.41598 0.9375,-0.9375 v -5.375 c 0,-0.51164 -0.42451,-0.9375 -0.9375,-0.9375 h -2.75 z  m 0,.9375 2.75,0 0,5.375 -2.75,0 0,-5.375 z "/>
<path id="path4640" d="m 69.3277,113.571 c -0.51209,0 -0.9375,0.42541 -0.9375,0.9375 v 5.375 c 0,0.52152 0.40656,0.9375 0.9375,0.9375 h 2.75 c 0.53094,0 0.90625,-0.41598 0.90625,-0.9375 v -5.375 c 0,-0.51164 -0.39326,-0.9375 -0.90625,-0.9375 h -2.75 z  m 0,.9375 2.75,0 0,5.375 -2.75,0 0,-5.375 z "/>
<path id="path4642" d="m 75.391,113.571 c 0.0553,-0.0178 0.12691,0 0.1875,0 h 2.28125 v 6.3125 h 0.90625 v -1.875 c 0,-0.27018 0.12451,-0.46875 0.46875,-0.46875 0.34424,0 0.46875,0.19857 0.46875,0.46875 v 2.34375 c 0,0.33526 -0.22684,0.46875 -0.46875,0.46875 h -3.65625 c -0.24236,0 -0.46875,-0.13349 -0.46875,-0.46875 0,-0.33526 0.22639,-0.46875 0.46875,-0.46875 h 1.34375 v -5.375 h -1.34375 c -0.24236,0 -0.46875,-0.13349 -0.46875,-0.46875 0,-0.25144 0.11533,-0.41549 0.28125,-0.46875 z "/>
</g>
</g>
</g>
</svg>
