<svg width="48" version="1.1" xmlns="http://www.w3.org/2000/svg" height="48">
<g style="fill-rule:evenodd">
<path style="fill:#2c3e50" d="M 15,39 V 12 h 21 v 27 z"/>
<g style="fill:#f1c40f">
<path d="m 18,6 h 3 v 5 H 18 Z"/>
<path d="m 43,15 v 3 H 37 V 15 Z"/>
<path d="m 43,21 v 3 H 37 V 21 Z"/>
<path d="m 43,27 v 3 H 37 V 27 Z"/>
<path d="m 43,33 v 3 H 37 V 33 Z"/>
<path d="m 14,15 v 3 H 8 V 15 Z"/>
<path d="m 14,21 v 3 H 8 V 21 Z"/>
<path d="m 14,27 v 3 H 8 V 27 Z"/>
<path d="m 14,33 v 3 H 8 V 33 Z"/>
<path d="m 24,6 h 3 v 5 H 24 Z"/>
<path d="m 30,6 h 3 v 5 H 30 Z"/>
<path d="m 18,40 h 3 v 5 H 18 Z"/>
<path d="m 24,40 h 3 v 5 H 24 Z"/>
<path d="m 30,40 h 3 v 5 H 30 Z"/>
</g>
</g>
</svg>
