<svg width="48" version="1.1" xmlns="http://www.w3.org/2000/svg" height="48" xmlns:xlink="http://www.w3.org/1999/xlink">
<defs>
<linearGradient id="linearGradient26">
<stop offset="0" style="stop-color:#e8a945"/>
<stop offset="1" style="stop-color:#bf7f17"/>
</linearGradient>
<linearGradient id="linearGradient9168">
<stop offset="0" style="stop-color:#ebebeb"/>
<stop offset="0.49" style="stop-color:#ebebeb"/>
<stop offset="0.51" style="stop-color:#c7c7c7"/>
<stop offset="1" style="stop-color:#c7c7c7"/>
</linearGradient>
<linearGradient gradientTransform="translate(11.9,-1)" xlink:href="#linearGradient26" id="linearGradient11" y1="33.929001" x1="12.5" y2="33.929001" x2="35.5" gradientUnits="userSpaceOnUse"/>
<linearGradient gradientTransform="translate(11.9,-1)" xlink:href="#linearGradient9168" id="linearGradient9170-2" y1="38.968283" x1="16.819268" y2="38.968283" x2="31.180932" gradientUnits="userSpaceOnUse"/>
</defs>
<g style="color:#000;fill-rule:evenodd">
<path style="fill:#2e3436" d="m 1.1682952,5 c -0.871622,0.057092 -1.22022,0.941847 -1.16211,1.62695 v 37.5371 c 0.064808,0.976409 0.9216,1.95696 2.20898,1.85938 h 0.115234 v 1.10547 c 0,0.483083 0.334955,0.871094 0.755859,0.871094 H 30.396758 c 0.420905,0 0.755859,-0.388011 0.755859,-0.871094 v -1.10547 h 0.697266 c 0.830775,-0.04008 1.6391,-0.750843 1.62695,-2.11914 V 9.58979 c 0,-0.666186 -0.209149,-1.11807 -0.697265,-1.59766 l -2.5566,-2.6426 C 29.955892,5.097216 29.800454,5 29.060858,5 H 1.1682582 Z"/>
<path style="fill:#2c72c7" d="M 3.0862952,36.2617 H 30.396795 c 0.420905,0 0.755859,0.388011 0.755859,0.871093 v 8.29102 H 2.3303542 v -8.29102 c 0,-0.483083 0.334955,-0.871093 0.755859,-0.871093 z"/>
<path style="fill:#f1c203" d="m 5.4977,8.8351 h 22.4878 c 0.977317,0 1.74324,0.765925 1.74324,1.74324 v 12.2899 c 0,0.977318 -0.765926,1.7723 -1.74324,1.7723 H 5.4977 c -0.977317,0 -1.7723,-0.79498 -1.7723,-1.7723 v -12.2899 c 0,-0.977317 0.794981,-1.74324 1.7723,-1.74324 z"/>
<g style="fill:#2e3436">
<path d="m 5.12,9.3 v 14.8757 h 0.9297 v -7.4378 c 6.92248,-2.83163 13.3295,3.66382 21.3838,1.85946 v 5.57838 h 0.929729 V 9.35814 H 27.4335 v 7.37973 C 20.04961,18.57687 12.7483,12.21913 6.0497,14.87841 V 9.3 H 5.11997 Z"/>
<path d="m 8.8389,9.3 v 4.1838 L 9.7686,13.3966 V 9.3 Z"/>
<path d="m 12.5578,9.3 v 4.4453 l .9297,.2034 v -4.6486 h -0.9297 z "/>
<path d="m 16.2768,9.3 v 5.2878 l .9297,.1162 v -5.4041 h -0.9297 z "/>
<path d="m 19.995695,9.3 v 6.1304 l 0.9297,0.1743 V 9.3 Z"/>
<path d="m 23.714595,9.3 v 6.7696 h 0.9297 V 9.3 Z"/>
<path d="m 9.7687,16.9412 -.9297,.1162 v 7.0601 h 0.9297 v -7.1764 z "/>
<path d="m 12.5578,17.348 v 6.7696 h 0.9297 v -6.5662 z"/>
<path d="m 16.2768,18.3358 v 5.7818 h 0.9297 v -5.4331 l -.9297,-.3486 z "/>
<path d="m 19.9957,19.2365 v 4.8811 h 0.9297 v -4.7068 z"/>
<path d="m 24.6443,19.6432 -.9297,.1453 v 4.3291 h 0.9297 v -4.4743 z "/>
</g>
<g style="fill:#fff">
<path d="m 5.2362,38.3831 c -0.06679,0 -0.116216,0.0686 -0.116216,0.14527 v 1.85946 c 0,0.07666 0.04942,0.14527 0.116216,0.14527 h 9.09392 c 0.06679,0 0.116216,-0.0686 0.116216,-0.14527 v -1.85946 c 0,-0.07666 -0.04942,-0.14527 -0.116216,-0.14527 z"/>
<path d="m 16.3639,38.3831 c -0.06679,0 -0.116216,0.0686 -0.116216,0.14527 v 1.85946 c 0,0.07666 0.04942,0.14527 0.116216,0.14527 h 3.51554 c 0.06679,0 0.116216,-0.0686 0.116216,-0.14527 v -1.85946 c 0,-0.07666 -0.04942,-0.14527 -0.116216,-0.14527 z"/>
</g>
</g>
<path style="fill:#5a5a5a" d="m 29.2963,30.2745 c -0.321837,0 -0.577032,0.254696 -0.577032,0.577032 V 45.685 c 0,0.322336 0.255195,0.577033 0.577032,0.577033 H 42.803 c 0.413114,0 0.877466,-0.425317 0.877466,-0.877033 V 30.851532 c 0,-0.322336 -0.255195,-0.577032 -0.577032,-0.577032 z"/>
<path style="fill:#64430e" d="m 29.9,38.7467 h 12 v 6.11486 h -12 z"/>
<path style="fill:url(#linearGradient9170-2)" d="m 29.2963,30.2745 c -0.321837,0 -0.577032,0.254696 -0.577032,0.577032 v 14.2335 c 0,0.322336 0.255195,0.577033 0.577032,0.577033 h 13.2076 c 0.321837,0 0.577032,-0.254697 0.577032,-0.577033 v -14.2335 c 0,-0.322336 -0.255195,-0.577032 -0.577032,-0.577032 z M 30.9,40 h 4 v 3 h -4 z m 6,0 h 4 v 3 h -4 z"/>
<path style="fill:#69470f" d="M 28.4,0 H 44 c 2.216,0 4,1.784 4,4 v 29.229 c 0,2.216 -2.084,4.300202 -4.3,4.300125 H 28.4 c -2.216,0 -4,-1.784 -4,-4 V 4 c 0,-2.216 1.784,-4 4,-4 z"/>
<path style="fill:url(#linearGradient11)" d="m 28.4,0 h 15 c 2.216,0 4,1.784 4,4 v 28.929001 c 0,2.216 -1.784,4 -4,4 h -15 c -2.216,0 -4,-1.784 -4,-4 V 4 c 0,-2.216 1.784,-4 4,-4 z"/>
<path style="opacity:.35" d="M 35.5777,0.559 31.849,6 h 3.03733 V 24.098 C 32.5426,22.37635 30.06908,20.74145 29.87656,17.70347 29.8289,17.274266 29.81514,17 29.83164,16.816751 l 2.6387,-2.0726 v -0.9 c 0,-1.65685 -1.34315,-3 -3,-3 -1.65685,0 -3,1.34315 -3,3 l 0.0012,0.9814 1.7801,1.7569 c 0.07832,0.229271 0.102348,0.611894 0.240235,1.57031 0.38776,2.69529 0.811301,3.34133 4.11328,6.02734 2.16265,1.75921 2.31227,1.63508 2.32227,2.72852 0.0035,0.392947 -0.02128,0.659362 -0.08984,0.861328 -1.45013,0.462011 -2.43662,1.70816 -2.43753,3.23008 0,0.966499 0,1 0,1 h 7 c 0,0 0,-0.03357 0,-1 0,-1.69559 -1.21557,-3.04726 -2.88477,-3.34531 v -7.38477 l 2.1582,-2.1582 c 2.76509,-2.61183 3.62804,-3.69193 3.82656,-5.33594 0.13311,-1.10235 0.616901,-1.46953 1.322,-1.54688 h 0.675656 v -4.74368 h -4.88867 v 4.74368 h 0.796016 c 1.10086,0 0.570261,2.1936 -0.06164,3.05469 -0.856822,1.16758 -3.55688,3.66406 -3.82812,3.66406 v -11.9476 h 2.85477 z"/>
<path style="fill:#fff" d="M 35.5777,1.459 32.549,6 h 2.33733 v 18.998 c -2.34373,-1.72165 -4.81725,-3.35655 -5.00977,-6.39453 -0.04766,-0.429204 -0.06142,-0.703371 -0.04492,-0.886719 1.50398,-0.18247 2.63589,-1.45765 2.63867,-2.97266 0,-1.65685 -1.34315,-3 -3,-3 -1.65685,0 -3,1.34315 -3,3 0.0012,1.18434 0.699041,2.25714 1.78125,2.73828 0.07832,0.229271 0.102348,0.611894 0.240235,1.57031 0.38776,2.69529 0.811301,3.34133 4.11328,6.02734 2.16265,1.75921 2.31227,1.63508 2.32227,2.72852 0.0035,0.392947 -0.02128,0.659362 -0.08984,0.861328 -1.45011,0.462011 -2.43544,1.80816 -2.4375,3.33008 0,1.933 1.567,3.5 3.5,3.5 1.933,0 3.5,-1.567 3.5,-3.5 0,-1.69559 -1.21557,-3.14726 -2.88477,-3.44531 v -7.38477 l 2.1582,-2.1582 c 2.76509,-2.61183 3.62804,-3.69193 3.82656,-5.33594 0.13311,-1.10235 0.616901,-1.46953 1.322,-1.54688 h 0.675656 v -4.84375 h -4.88867 v 4.84375 h 0.796016 c 1.10086,0 0.570261,2.1936 -0.06164,3.05469 -0.856822,1.16758 -3.55688,3.66406 -3.82812,3.66406 v -12.8477 h 2.25477 z"/>
</svg>
