<svg width="48" version="1.1" xmlns="http://www.w3.org/2000/svg" height="48" xmlns:xlink="http://www.w3.org/1999/xlink">
<g style="fill-rule:evenodd;stroke:none;color:#000" id="layer1">
<path style="fill:#2e3436" id="path4227" d="m 8.4297,1.5 c -0.871622,0.0570922 -1.22022,0.941847 -1.16211,1.62695 v 37.5371 c 0.064808,0.976409 0.9216,1.95696 2.20898,1.85938 h 0.115234 v 1.10547 c 0,0.483083 0.334955,0.871094 0.755859,0.871094 h 27.3105 c 0.420905,0 0.755859,-0.388011 0.755859,-0.871094 v -1.10547 h 0.697266 c 0.830775,-0.04008 1.6391,-0.750843 1.62695,-2.11914 v -34.3145 c 0,-0.666186 -0.209149,-1.11807 -0.697265,-1.59766 l -2.5566,-2.6426 c -0.267076,-0.252314 -0.422514,-0.349609 -1.16211,-0.349609 h -27.8926 z "/>
<path style="fill:#2c72c7" id="path4222" d="m 10.3477,32.7617 27.3105,0 c 0.420905,0 0.755859,0.388011 0.755859,0.871093 v 8.29102 h -28.8223 v -8.29102 c 0,-0.483083 0.334955,-0.871093 0.755859,-0.871093 z "/>
<path style="fill:#f1c203" id="path4218" d="m 12.7591,5.3351 22.4878,0 c 0.977317,0 1.74324,0.765925 1.74324,1.74324 v 12.2899 c 0,0.977318 -0.765926,1.7723 -1.74324,1.7723 h -22.4878 c -0.977317,0 -1.7723,-0.79498 -1.7723,-1.7723 v -12.2899 c 0,-0.977317 0.794981,-1.74324 1.7723,-1.74324 z "/>
<g style="fill:#2e3436">
<path id="path4216" d="m 12.3814,5.8 0,14.8757 .9297,0 0,-7.4378 c 6.92248,-2.83163 13.3295,3.66382 21.3838,1.85946 v 5.57838 h 0.929729 v -14.8176 h -0.929729 v 7.37973 c -7.38389,1.839 -14.6852,-4.51874 -21.3838,-1.85946 v -5.57838 h -0.92973 z "/>
<path id="path4212" d="m 16.1003,5.8 0,4.1838 .9297,-.0872 0,-4.0966 -.9297,0 z "/>
<path id="path4208" d="m 19.8192,5.8 0,4.4453 .9297,.2034 0,-4.6486 -.9297,0 z "/>
<path id="path4204" d="m 23.5382,5.8 0,5.2878 .9297,.1162 0,-5.4041 -.9297,0 z "/>
<path id="path4200" d="m 27.2571,5.8 0,6.1304 .9297,.1743 0,-6.3047 -.9297,0 z "/>
<path id="path4196" d="m 30.976,5.8 0,6.7696 .9297,0 0,-6.7696 -.9297,0 z "/>
<path id="path4192" d="m 17.0301,13.4412 -.9297,.1162 0,7.0601 .9297,0 0,-7.1764 z "/>
<path id="path4186" d="m 19.8192,13.848 0,6.7696 .9297,0 0,-6.5662 -.9297,-.2034 z "/>
<path id="path4182" d="m 23.5382,14.8358 0,5.7818 .9297,0 0,-5.4331 -.9297,-.3486 z "/>
<path id="path4178" d="m 27.2571,15.7365 0,4.8811 .9297,0 0,-4.7068 -.9297,-.1743 z "/>
<path id="path4172" d="m 31.9057,16.1432 -.9297,.1453 0,4.3291 .9297,0 0,-4.4743 z "/>
</g>
<g style="fill:#fff">
<path id="path4170" d="m 12.4976,34.8831 c -0.06679,0 -0.116216,0.0686 -0.116216,0.14527 v 1.85946 c 0,0.07666 0.04942,0.14527 0.116216,0.14527 h 9.09392 c 0.06679,0 0.116216,-0.0686 0.116216,-0.14527 v -1.85946 c 0,-0.07666 -0.04942,-0.14527 -0.116216,-0.14527 h -9.09392 z "/>
<path id="path4291" d="m 23.6253,34.8831 c -0.06679,0 -0.116216,0.0686 -0.116216,0.14527 v 1.85946 c 0,0.07666 0.04942,0.14527 0.116216,0.14527 h 3.51554 c 0.06679,0 0.116216,-0.0686 0.116216,-0.14527 v -1.85946 c 0,-0.07666 -0.04942,-0.14527 -0.116216,-0.14527 h -3.51554 z "/>
</g>
</g>
</svg>
