<svg width="48" version="1.0" xmlns="http://www.w3.org/2000/svg" height="48" xmlns:xlink="http://www.w3.org/1999/xlink">
<defs id="defs17">
<linearGradient xlink:href="#linearGradient4164" id="linearGradient4156" y1="34.55154" x1="23.999943" y2="27.157648" x2="23.978376" gradientUnits="userSpaceOnUse"/>
<linearGradient xlink:href="#linearGradient4166" id="linearGradient4172" y1="18.275085" x1="14.387218" y2="5.9155207" x2="14.359474" gradientUnits="userSpaceOnUse"/>
<linearGradient gradientTransform="matrix(0.23437621,0,0,0.23437621,-1.84e-4,-1.6e-4)" xlink:href="#linearGradient4147" id="linearGradient4153" y1="14.899216" x1="38.496452" y2="189.83304" x2="38.492523" gradientUnits="userSpaceOnUse"/>
<linearGradient id="linearGradient4147">
<stop offset="0" style="stop-color:#e6e6e6" id="stop4160"/>
<stop offset="1" style="stop-color:#c8c8c8" id="stop4162"/>
</linearGradient>
<linearGradient id="linearGradient4166">
<stop offset="0" style="stop-color:#258bbf" id="stop4168"/>
<stop offset="0.68003875" style="stop-color:#38a3d9" id="stop4174"/>
<stop offset="1" style="stop-color:#7fc4e6" id="stop4170"/>
</linearGradient>
<linearGradient id="linearGradient4164">
<stop offset="0" style="stop-color:#fff" id="stop4149"/>
<stop offset="1" style="stop-color:#dcdcdc" id="stop4151"/>
</linearGradient>
</defs>
<path style="opacity:.3" id="path4149" d="m 11.5729,3 c -1.52146,0 -3.04987,1.35234 -3.04987,2.63987 v 37.2201 c 0,1.2877 1.52841,2.64001 3.04987,2.64001 h 25.554 c 1.52167,0 2.8499,-1.65231 2.8499,-2.94002 v -36.9201 c 0,-1.2877 -1.52812,-2.63987 -3.0498,-2.63987 Z "/>
<path style="opacity:.3" id="path4147" d="m 11.5729,3 c -1.52146,0 -3.04987,1.35234 -3.04987,2.63987 v 36.7202 c 0,1.28771 1.52841,2.64002 3.04987,2.64002 h 25.254 c 1.52167,0 2.64993,-1.45231 2.64993,-2.74003 v -36.6201 c 0,-1.2877 -1.52812,-2.63987 -3.0498,-2.63987 z "/>
<path style="fill:url(#linearGradient4153)" id="path4152" d="m 11.7722,3.4998 c -1.52146,0 -2.74942,1.0519 -2.74942,2.33943 v 36.3213 c 0,1.28771 1.22796,2.33942 2.74942,2.33942 h 24.4555 c 1.52167,0 2.74942,-1.05171 2.74942,-2.33942 v -36.3213 c 0,-1.28771 -1.22775,-2.33943 -2.74942,-2.33943 h -24.4555 z "/>
<path style="fill:#cdedff" id="path4176" d="m 15.7396,5.9116 16.4214,0 c 0.761078,0 1.97436,0.422557 1.97436,1.4374 v 10.21 c 0,0.57363 -0.913279,1.33753 -1.67435,1.33753 h -16.7214 c -1.16217,0 -1.37471,-1.1639 -1.37471,-1.73753 v -10.2103 c 0,-0.57364 0.613634,-1.03707 1.37471,-1.03707 z "/>
<path style="fill:url(#linearGradient4172)" id="path4150" d="m 15.7396,5.9116 16.521,0 c 0.761078,0 1.37471,0.46343 1.37471,1.03707 v 10.3108 c 0,0.57363 -0.613634,1.03706 -1.37471,1.03706 h -16.521 c -0.761079,0 -1.37471,-0.46343 -1.37471,-1.03706 v -10.3108 c 0,-0.57364 0.613634,-1.03707 1.37471,-1.03707 z "/>
<g style="fill:#fff" id="g12" transform="matrix(0.23437621,0,0,0.23437621,-1.84e-4,-1.6e-4)">
<path id="path4148" d="m 102.4,88.6111 c 11.562,0 21.997,4.63381 29.7387,12.0395 0.0402,-0.0417 0.0627,-0.0614 0.1029,-0.10289 0.10343,0.0988 0.20683,0.20837 0.30871,0.3087 l -.1029,.1029 c 8.01871,7.829 13.0685,18.6728 13.0685,30.7677 0,12.0949 -5.04984,22.9387 -13.0685,30.7677 l -6.5857,-6.8944 c 6.19755,-6.09155 10.0844,-14.5258 10.0844,-23.8733 -0.11575,-7.69508 -4.17635,-16.6163 -10.0844,-23.8732 l 6.5857,-6.8944 c -0.10561,-0.1031 -0.20205,-0.20669 -0.30871,-0.30871 -2.65839,2.7516 -3.70865,3.81011 -6.68862,6.89445 -6.25973,-5.97943 -14.3635,-9.3641 -23.05,-9.3641 -8.68657,0 -16.7903,3.38466 -23.05,9.3641 -2.97997,-3.08439 -4.03024,-4.14285 -6.68863,-6.89445 7.7417,-7.40572 18.1766,-12.0395 29.7387,-12.0395 z "/>
<path id="path4146" d="m 72.3526,100.9594 6.5857,6.8944 c -5.43529,5.58973 -9.03551,14.444 -10.0844,23.8732 0.11581,7.69523 4.1779,16.6162 10.0844,23.8732 l -6.5857,6.8944 c -8.01871,-7.82902 -13.0685,-18.6728 -13.0685,-30.7677 0,-12.0949 5.04983,-22.9387 13.0685,-30.7677 z"/>
</g>
<path style="fill:url(#linearGradient4156)" id="path4144" d="m 23.9999,27.1594 c 2.04393,0 3.69002,1.6702 3.69002,3.71413 0,2.04394 -1.64608,3.69002 -3.69002,3.69002 -2.04393,0 -3.69002,-1.64608 -3.69002,-3.69002 0,-2.04393 1.64608,-3.71413 3.69002,-3.71413 z "/>
<path style="fill:#fff" id="path144" d="m 18.5976,36.5412 c 1.46713,1.40159 3.36646,2.19472 5.40237,2.19472 2.09842,0 3.9904,-0.84845 5.40237,-2.19472 0.698434,0.7229 0.94459,0.97107 1.56765,1.61589 -1.81447,1.73573 -4.26016,2.82178 -6.97004,2.82178 -2.70988,0 -5.15557,-1.08606 -6.97004,-2.82178 0.623063,-0.64482 0.869221,-0.89301 1.56765,-1.61589 z "/>
</svg>
