<svg width="48" version="1.1" xmlns="http://www.w3.org/2000/svg" height="48">
<g style="color:#000">
<g style="fill:#429cd6">
<path d="m 16.4426,30.7129 a 2.72883,2.72883 0 0,0 4.68134,1.4044 c 1.62121,-1.6212 4.13015,-1.6212 5.75136,0 a 2.74274,2.74274 0 1,0 3.87882,-3.87882 c -3.70663,-3.70663 -9.80237,-3.70663 -13.509,0 a 2.72883,2.72883 0 0,0 -0.802515,2.47442 z "/>
<path d="m 10.6109,24.694 a 2.72882,2.72882 0 0,0 4.70809,1.6184 c 4.81788,-4.81788 12.5432,-4.81788 17.3611,0 a 2.72882,2.72882 0 1,0 3.82532,-3.82532 c -6.90332,-6.90332 -18.1084,-6.90332 -25.0117,0 a 2.72882,2.72882 0 0,0 -0.882766,2.20692 z "/>
</g>
<path style="opacity:.3;fill:#ababab" d="m 10.4506,19.4407 c 7.29167,-7.17209 20.4458,-6.74095 27.1047,0 2.57699,2.57756 6.44244,-1.28789 3.86545,-3.86545 -8.89635,-8.79159 -26.2006,-8.55882 -34.8356,0 -0.80445,0.756588 -1.06668,1.94161 -0.681774,2.95598 0.718155,1.89358 3.1633,2.38706 4.54722,0.909452 z "/>
</g>
<path style="fill:#e6e6e6;stroke:#646464" d="m 24.0085,33.6266 c -1.27672,-0.0084 -2.70951,1.28413 -2.70951,2.74676 v 11.0919 h 5.36316 v -11.0919 c 0,-1.47762 -1.37692,-2.73839 -2.65364,-2.74676 z "/>
<rect width="16" x="16" y="44.397064" height="3.5555556" style="fill:#969696"/>
<path style="opacity:.3;fill:#ababab;color:#000" d="m 4.9518,12.4405 c 8.50495,-8.40862 29.1876,-8.72064 38.1047,0 2.60581,2.54842 6.44244,-1.28789 3.86545,-3.86545 -10.1239,-10.5596 -35.6329,-10.4021 -45.8356,0 -0.80445,0.756588 -1.07072,1.94315 -0.681774,2.95598 0.775648,2.01985 3.00518,2.43405 4.54722,0.909467 Z "/>
</svg>
