<svg width="128" version="1.0" xmlns="http://www.w3.org/2000/svg" height="128">
<g style="stroke:none" id="g4" transform="matrix(0.77887706,0,0,0.77887706,15.24242,14.52959)">
<g style="opacity:.6;fill:#fff" id="g4152" transform="translate(0,2)">
<path id="path4154" d="m 67.3,30.5083 c -20.7825,0 -37.6414,16.859 -37.6414,37.6414 0,18.9255 14.0016,34.585 32.1976,37.234 a 0.500223,0.500223 0 0,0 0.145558,-0.9898 c -16.7825,-2.56432 -29.6649,-17.0508 -29.6649,-34.5557 0,-19.3159 15.6472,-34.9632 34.9632,-34.9632 19.3159,0 34.9632,15.6472 34.9632,34.9632 0,17.5049 -12.8823,31.9913 -29.6649,34.5557 a 0.500223,0.500223 0 0,0 0.145559,0.9898 c 18.196,-2.64884 32.1976,-18.3083 32.1976,-37.234 0,-20.7825 -16.859,-37.6414 -37.6414,-37.6414 z "/>
<path id="path4156" d="m 67.1688,12.3713 c -30.8028,0 -55.7942,24.9915 -55.7942,55.7942 0,28.0501 20.7409,51.26 47.7055,55.1853 0.01934,0.003 0.02402,-0.001 0.04349,0 0.01954,0 0.02393,2e-5 0.04349,0 0.01946,-0.001 0.02414,0.003 0.04349,0 0.01897,-0.004 0.02478,0.006 0.04349,0 0.0187,-0.006 -0.0184,-0.0369 0,-0.0436 0.01767,-0.008 0.02624,0.01 0.04349,0 0.01624,-0.0111 0.02779,0.0111 0.04349,0 0.0157,-0.0111 -0.0151,-0.031 0,-0.0436 0.01378,-0.0139 0.03038,0.0145 0.04349,0 0.01308,-0.0145 -0.01239,-0.0284 0,-0.0436 0.01002,-0.0168 0.03429,-0.0263 0.04349,-0.0436 0.0075,-0.0181 -0.0065,-0.025 0,-0.0436 0.0047,-0.0189 -0.0038,-0.0243 0,-0.0435 0.0019,-0.0195 0,-0.0239 0,-0.0436 0,-0.0195 0.0019,-0.0241 0,-0.0436 -0.0039,-0.0192 0.0047,-0.0245 0,-0.0435 -0.0067,-0.0184 0.0075,-0.0255 0,-0.0436 -0.0092,-0.0173 -0.03341,-0.0267 -0.04349,-0.0436 -0.01239,-0.0152 0.01322,-0.0289 0,-0.0436 -0.01322,-0.0145 -0.02964,0.0139 -0.04349,0 -0.01513,-0.0125 0.01572,-0.0319 0,-0.0435 -0.01573,-0.0111 -0.02722,0.0111 -0.04349,0 -0.01726,-0.01 -0.0258,0.008 -0.04349,0 -0.01843,-0.007 -0.02477,-0.0378 -0.04349,-0.0436 a 0.448019,0.448019 0 0 1 -0.04349,0 c -25.2851,-3.8622 -44.6615,-25.6843 -44.6615,-52.0529 0,-29.0963 23.5669,-52.6632 52.6632,-52.6632 29.0963,0 52.6631,23.5669 52.6631,52.6632 0,26.3686 -19.3764,48.1909 -44.6615,52.0542 a 0.448019,0.448019 0 0 1 -0.04349,0 c -0.01872,0.006 -0.02506,0.0369 -0.04349,0.0436 -0.01769,0.008 -0.02623,-0.01 -0.04349,0 -0.01627,0.0111 -0.02776,-0.0111 -0.04349,0 -0.01572,0.0111 0.01513,0.0312 0,0.0436 -0.01378,0.0139 -0.03034,-0.0145 -0.04349,0 -0.01322,0.0145 0.01239,0.0284 0,0.0436 -0.01002,0.0167 -0.03425,0.0263 -0.04349,0.0435 -0.0075,0.0181 0.0067,0.025 0,0.0436 -0.0047,0.0189 0.0039,0.0243 0,0.0436 -0.0019,0.0195 0,0.0239 0,0.0435 0,0.0195 -0.0019,0.0241 0,0.0436 0.0038,0.0192 -0.0047,0.0245 0,0.0436 0.0065,0.0184 -0.0075,0.0255 0,0.0436 0.0092,0.0173 0.03345,0.0267 0.04349,0.0436 0.01239,0.0152 -0.01308,0.0289 0,0.0436 0.01308,0.0145 0.02968,-0.0139 0.04349,0 0.0151,0.0125 -0.0157,0.0319 0,0.0435 0.0157,0.0111 0.02725,-0.0111 0.04349,0 0.01723,0.01 0.02581,-0.008 0.04349,0 0.01841,0.007 -0.0187,0.0379 0,0.0436 0.0187,0.006 0.02452,-0.004 0.04349,0 0.01934,0.003 0.02403,-10e-4 0.04349,0 0.01955,3e-5 0.02395,0 0.04349,0 0.01947,-10e-4 0.02415,0.003 0.04349,0 26.9646,-3.92532 47.7055,-27.1352 47.7055,-55.1853 0,-30.8028 -24.9915,-55.7942 -55.7942,-55.7942 z"/>
<path id="path4158" d="m 66.8942,47.2559 c -11.8784,0 -21.5336,9.6552 -21.5336,21.5336 0,11.8784 9.6552,21.5336 21.5336,21.5336 11.8784,0 21.5336,-9.6552 21.5336,-21.5336 0,-11.8784 -9.6552,-21.5336 -21.5336,-21.5336 z m 0,4.8742 c 10.4122,0 18.8419,8.42974 18.8419,18.8419 0,10.4122 -8.42974,18.8419 -18.8419,18.8419 -10.4122,0 -18.8419,-8.42974 -18.8419,-18.8419 0,-10.4122 8.42974,-18.8419 18.8419,-18.8419 z"/>
</g>
<g style="fill:#429cd6" id="g6">
<path id="path3997" d="m 66.5,28.9696 c -22.309,0 -41.1543,18.8465 -41.1543,41.1554 0,20.3156 15.7781,37.1253 35.3106,39.9688 0.70776,0.1034 0.86401,-0.9591 0.15625,-1.0625 -18.0152,-2.75267 -31.8438,-18.3032 -31.8438,-37.0938 0,-20.7347 16.7965,-37.5312 37.5312,-37.5312 20.7347,0 37.5312,16.7965 37.5312,37.5312 0,18.7906 -13.8285,34.3411 -31.8438,37.0938 -0.707562,0.10474 -0.551312,1.16724 0.15625,1.0625 19.5325,-2.8434 35.3118,-19.6531 35.3118,-39.9688 0,-22.309 -18.8466,-41.1554 -41.1555,-41.1554 z" transform="matrix(0.93157563,0,0,0.93157563,5.3502209,2.0334869)"/>
<path id="path4045" d="m 66.5,29.529642 c -22.1349,0 -40.594623,18.460458 -40.594623,40.595358 0,20.1568 15.405223,36.8355 34.782023,39.6562 0.0139,0.002 0.01726,-0.001 0.03125,0 0.01404,6.7e-4 0.0172,2e-5 0.03125,0 0.01398,-0.001 0.01735,0.002 0.03125,0 0.01363,-0.003 0.01781,0.004 0.03125,0 0.01344,-0.004 -0.01322,-0.0265 0,-0.0313 0.0127,-0.006 0.01886,0.007 0.03125,0 0.01167,-0.008 0.01997,0.008 0.03125,0 0.01128,-0.008 -0.01085,-0.0223 0,-0.0313 0.0099,-0.01 0.02183,0.0104 0.03125,0 0.0094,-0.0104 -0.0089,-0.0204 0,-0.0313 0.0072,-0.0121 0.02464,-0.0189 0.03125,-0.0313 0.0054,-0.013 -0.0047,-0.018 0,-0.0313 0.0034,-0.0136 -0.0027,-0.0175 0,-0.0313 0.0014,-0.014 -6.72e-4,-0.0172 0,-0.0313 -7.07e-4,-0.014 0.0014,-0.0173 0,-0.0313 -0.0028,-0.0138 0.0034,-0.0176 0,-0.0313 -0.0048,-0.0132 0.0054,-0.0183 0,-0.0313 -0.0066,-0.0124 -0.02401,-0.0192 -0.03125,-0.0313 -0.0089,-0.0109 0.0095,-0.0208 0,-0.0313 -0.0095,-0.0104 -0.0213,0.01 -0.03125,0 -0.01087,-0.009 0.0113,-0.0229 0,-0.0313 -0.0113,-0.008 -0.01956,0.008 -0.03125,0 -0.0124,-0.007 -0.01854,0.006 -0.03125,0 -0.01324,-0.005 -0.0178,-0.0272 -0.03125,-0.0313 -0.01041,5.1e-4 -0.02084,5.1e-4 -0.03125,0 C 42.58,106.5674 28.6561,90.886 28.6561,71.9375 c 0,-20.9086 16.9352,-37.8438 37.8438,-37.8438 20.9086,0 37.8438,16.9352 37.8438,37.8438 0,18.9485 -13.9239,34.63 -32.0938,37.4062 -0.01041,5.1e-4 -0.02084,5.1e-4 -0.03125,0 -0.01345,0.004 -0.01801,0.0265 -0.03125,0.0313 -0.01271,0.006 -0.01885,-0.007 -0.03125,0 -0.01169,0.008 -0.01995,-0.008 -0.03125,0 -0.0113,0.008 0.01087,0.0224 0,0.0313 -0.0099,0.01 -0.0218,-0.0104 -0.03125,0 -0.0095,0.0104 0.0089,0.0204 0,0.0313 -0.0072,0.012 -0.02461,0.0189 -0.03125,0.0313 -0.0054,0.013 0.0048,0.018 0,0.0313 -0.0034,0.0136 0.0028,0.0175 0,0.0313 -0.0014,0.014 7.07e-4,0.0172 0,0.0313 6.72e-4,0.014 -0.0014,0.0173 0,0.0313 0.0027,0.0138 -0.0034,0.0176 0,0.0313 0.0047,0.0132 -0.0054,0.0183 0,0.0313 0.0066,0.0124 0.02404,0.0192 0.03125,0.0313 0.0089,0.0109 -0.0094,0.0208 0,0.0313 0.0094,0.0104 0.02133,-0.01 0.03125,0 0.01085,0.009 -0.01128,0.0229 0,0.0313 0.01128,0.008 0.01958,-0.008 0.03125,0 0.01238,0.007 0.01855,-0.006 0.03125,0 0.01323,0.005 -0.01344,0.0272 0,0.0313 0.01344,0.004 0.01762,-0.003 0.03125,0 0.0139,0.002 0.01727,-10e-4 0.03125,0 0.01405,2e-5 0.01721,6.7e-4 0.03125,0 0.01399,-10e-4 0.01735,0.002 0.03125,0 19.3768,-2.82074 34.78281,-19.4994 34.78281,-39.6562 0,-22.1349 -18.46051,-40.595358 -40.59541,-40.595358 z" transform="matrix(1.3915926,0,0,1.3915926,-25.372077,-30.209353)"/>
<path id="path5777" d="m 66.8942,45.7684 c -11.8784,0 -22.2305,10.3532 -22.2305,22.2316 0,11.8784 10.3521,21.5336 22.2305,21.5336 11.8784,0 22.2316,-9.6552 22.2316,-21.5336 0,-11.8784 -10.3532,-22.2316 -22.2316,-22.2316 z m 0,5.5722 c 10.4122,0 18.8419,8.42974 18.8419,18.8419 0,10.4122 -8.42974,18.8419 -18.8419,18.8419 -10.4122,0 -18.8419,-8.42974 -18.8419,-18.8419 0,-10.4122 8.42974,-18.8419 18.8419,-18.8419 z"/>
</g>
</g>
<path style="fill:#e6e6e6;stroke:#646464;stroke-width:3.5" id="path5485" d="m 67.0121,60.7987 c -4.17831,-0.02737 -8.86737,4.20256 -8.86737,8.98926 v 56.6171 h 17.5519 c 0,0 0,-37.7447 0,-56.6171 0,-4.83579 -4.50622,-8.96189 -8.68453,-8.98926 z "/>
<rect width="52.3629" x="40.802795" y="116.3638" height="11.6362" style="fill:#969696;stroke:none" id="rect3806"/>
</svg>
