<svg width="128" version="1.0" xmlns="http://www.w3.org/2000/svg" height="128">
<g style="stroke:none" id="g4">
<g style="opacity:.6;fill:#fff" id="g4150" transform="translate(0,1.999558)">
<path id="path4152" d="m 66.5,29.7188 c -22.309,0 -40.4062,18.0973 -40.4062,40.4062 0,20.3156 15.03,37.1253 34.5625,39.9688 a 0.536964,0.536964 0 0 0 0.15625,-1.0625 c -18.0152,-2.75267 -31.8438,-18.3032 -31.8438,-37.0938 0,-20.7347 16.7965,-37.5312 37.5312,-37.5312 20.7347,0 37.5312,16.7965 37.5312,37.5312 0,18.7906 -13.8285,34.3411 -31.8438,37.0938 a 0.536964,0.536964 0 0 0 0.15625,1.0625 c 19.5325,-2.8434 34.5625,-19.6531 34.5625,-39.9688 0,-22.309 -18.0973,-40.4062 -40.4062,-40.4062 z" transform="matrix(0.93157563,0,0,0.93157563,5.3502209,2.0334869)"/>
<path id="path4154" d="m 66.8942,46.4664 c -11.8784,0 -21.5336,9.6552 -21.5336,21.5336 0,11.8784 9.6552,21.5336 21.5336,21.5336 11.8784,0 21.5336,-9.6552 21.5336,-21.5336 0,-11.8784 -9.6552,-21.5336 -21.5336,-21.5336 z m 0,4.8742 c 10.4122,0 18.8419,8.42974 18.8419,18.8419 0,10.4122 -8.42974,18.8419 -18.8419,18.8419 -10.4122,0 -18.8419,-8.42974 -18.8419,-18.8419 0,-10.4122 8.42974,-18.8419 18.8419,-18.8419 z"/>
</g>
<g style="fill:#429cd6" id="g6">
<path id="path3997" d="m 66.5,29.7188 c -22.309,0 -40.4062,18.0973 -40.4062,40.4062 0,20.3156 15.03,37.1253 34.5625,39.9688 a 0.536964,0.536964 0 0 0 0.15625,-1.0625 c -18.0152,-2.75267 -31.8438,-18.3032 -31.8438,-37.0938 0,-20.7347 16.7965,-37.5312 37.5312,-37.5312 20.7347,0 37.5312,16.7965 37.5312,37.5312 0,18.7906 -13.8285,34.3411 -31.8438,37.0938 a 0.536964,0.536964 0 0 0 0.15625,1.0625 c 19.5325,-2.8434 34.5625,-19.6531 34.5625,-39.9688 0,-22.309 -18.0973,-40.4062 -40.4062,-40.4062 z" transform="matrix(0.93157563,0,0,0.93157563,5.3502209,2.0334869)"/>
<path id="path5777" d="m 66.8942,46.4664 c -11.8784,0 -21.5336,9.6552 -21.5336,21.5336 0,11.8784 9.6552,21.5336 21.5336,21.5336 11.8784,0 21.5336,-9.6552 21.5336,-21.5336 0,-11.8784 -9.6552,-21.5336 -21.5336,-21.5336 z m 0,4.8742 c 10.4122,0 18.8419,8.42974 18.8419,18.8419 0,10.4122 -8.42974,18.8419 -18.8419,18.8419 -10.4122,0 -18.8419,-8.42974 -18.8419,-18.8419 0,-10.4122 8.42974,-18.8419 18.8419,-18.8419 z"/>
</g>
</g>
<path style="fill:#e6e6e6;stroke:#646464;stroke-width:3.5" id="path5485" d="m 67.0121,60.7987 c -4.17913,-0.07124 -8.86737,4.20256 -8.86737,8.98926 v 56.6171 h 17.5519 v -56.6171 c 0,-4.83579 -4.5054,-8.91802 -8.68453,-8.98926 z "/>
<rect width="52.3629" x="40.802795" y="116.3638" height="11.6362" style="fill:#969696;stroke:none" id="rect3806"/>
</svg>
