<svg width="128" version="1.0" xmlns="http://www.w3.org/2000/svg" height="128">
<g style="stroke:none" id="g4">
<g style="opacity:.6;fill:#fff" id="g4156" transform="translate(0,1.9999059)">
<path id="path4158" d="m 66.5,29.7188 c -22.309,0 -40.4062,18.0973 -40.4062,40.4062 0,20.3156 15.03,37.1253 34.5625,39.9688 a 0.536964,0.536964 0 0 0 0.15625,-1.0625 c -18.0152,-2.75267 -31.8438,-18.3032 -31.8438,-37.0938 0,-20.7347 16.7965,-37.5312 37.5312,-37.5312 20.7347,0 37.5312,16.7965 37.5312,37.5312 0,18.7906 -13.8285,34.3411 -31.8438,37.0938 a 0.536964,0.536964 0 0 0 0.15625,1.0625 c 19.5325,-2.8434 34.5625,-19.6531 34.5625,-39.9688 0,-22.309 -18.0973,-40.4062 -40.4062,-40.4062 z" transform="matrix(0.93157563,0,0,0.93157563,5.3502209,2.0334869)"/>
<path id="path4160" d="m 66.5,30.0312 c -22.1349,0 -40.0938,17.9589 -40.0938,40.0938 0,20.1568 14.9044,36.8355 34.2812,39.6562 0.0139,0.002 0.01726,-0.001 0.03125,0 0.01404,6.7e-4 0.0172,2e-5 0.03125,0 0.01398,-0.001 0.01735,0.002 0.03125,0 0.01363,-0.003 0.01781,0.004 0.03125,0 0.01344,-0.004 -0.01322,-0.0265 0,-0.0313 0.0127,-0.006 0.01886,0.007 0.03125,0 0.01167,-0.008 0.01997,0.008 0.03125,0 0.01128,-0.008 -0.01085,-0.0223 0,-0.0313 0.0099,-0.01 0.02183,0.0104 0.03125,0 0.0094,-0.0104 -0.0089,-0.0204 0,-0.0313 0.0072,-0.0121 0.02464,-0.0189 0.03125,-0.0313 0.0054,-0.013 -0.0047,-0.018 0,-0.0313 0.0034,-0.0136 -0.0027,-0.0175 0,-0.0313 0.0014,-0.014 -6.72e-4,-0.0172 0,-0.0313 -7.07e-4,-0.014 0.0014,-0.0173 0,-0.0313 -0.0028,-0.0138 0.0034,-0.0176 0,-0.0313 -0.0048,-0.0132 0.0054,-0.0183 0,-0.0313 -0.0066,-0.0124 -0.02401,-0.0192 -0.03125,-0.0313 -0.0089,-0.0109 0.0095,-0.0208 0,-0.0313 -0.0095,-0.0104 -0.0213,0.01 -0.03125,0 -0.01087,-0.009 0.0113,-0.0229 0,-0.0313 -0.0113,-0.008 -0.01956,0.008 -0.03125,0 -0.0124,-0.007 -0.01854,0.006 -0.03125,0 -0.01324,-0.005 -0.0178,-0.0272 -0.03125,-0.0313 a 0.321947,0.321947 0 0 1 -0.03125,0 C 42.58,106.5674 28.6561,90.886 28.6561,71.9375 c 0,-20.9086 16.9352,-37.8438 37.8438,-37.8438 20.9086,0 37.8438,16.9352 37.8438,37.8438 0,18.9485 -13.9239,34.63 -32.0938,37.4062 a 0.321947,0.321947 0 0 1 -0.03125,0 c -0.01345,0.004 -0.01801,0.0265 -0.03125,0.0313 -0.01271,0.006 -0.01885,-0.007 -0.03125,0 -0.01169,0.008 -0.01995,-0.008 -0.03125,0 -0.0113,0.008 0.01087,0.0224 0,0.0313 -0.0099,0.01 -0.0218,-0.0104 -0.03125,0 -0.0095,0.0104 0.0089,0.0204 0,0.0313 -0.0072,0.012 -0.02461,0.0189 -0.03125,0.0313 -0.0054,0.013 0.0048,0.018 0,0.0313 -0.0034,0.0136 0.0028,0.0175 0,0.0313 -0.0014,0.014 7.07e-4,0.0172 0,0.0313 6.72e-4,0.014 -0.0014,0.0173 0,0.0313 0.0027,0.0138 -0.0034,0.0176 0,0.0313 0.0047,0.0132 -0.0054,0.0183 0,0.0313 0.0066,0.0124 0.02404,0.0192 0.03125,0.0313 0.0089,0.0109 -0.0094,0.0208 0,0.0313 0.0094,0.0104 0.02133,-0.01 0.03125,0 0.01085,0.009 -0.01128,0.0229 0,0.0313 0.01128,0.008 0.01958,-0.008 0.03125,0 0.01238,0.007 0.01855,-0.006 0.03125,0 0.01323,0.005 -0.01344,0.0272 0,0.0313 0.01344,0.004 0.01762,-0.003 0.03125,0 0.0139,0.002 0.01727,-10e-4 0.03125,0 0.01405,2e-5 0.01721,6.7e-4 0.03125,0 0.01399,-10e-4 0.01735,0.002 0.03125,0 19.3768,-2.82074 34.2812,-19.4994 34.2812,-39.6562 0,-22.1349 -17.9589,-40.0938 -40.0938,-40.0938 z" transform="matrix(1.3915926,0,0,1.3915926,-25.372077,-30.209353)"/>
<path id="path4162" d="m 66.8942,46.4664 c -11.8784,0 -21.5336,9.6552 -21.5336,21.5336 0,11.8784 9.6552,21.5336 21.5336,21.5336 11.8784,0 21.5336,-9.6552 21.5336,-21.5336 0,-11.8784 -9.6552,-21.5336 -21.5336,-21.5336 z m 0,4.8742 c 10.4122,0 18.8419,8.42974 18.8419,18.8419 0,10.4122 -8.42974,18.8419 -18.8419,18.8419 -10.4122,0 -18.8419,-8.42974 -18.8419,-18.8419 0,-10.4122 8.42974,-18.8419 18.8419,-18.8419 z"/>
</g>
<g style="fill:#429cd6" id="g6">
<path id="path3997" d="m 66.5,29.7188 c -22.309,0 -40.4062,18.0973 -40.4062,40.4062 0,20.3156 15.03,37.1253 34.5625,39.9688 a 0.536964,0.536964 0 0 0 0.15625,-1.0625 c -18.0152,-2.75267 -31.8438,-18.3032 -31.8438,-37.0938 0,-20.7347 16.7965,-37.5312 37.5312,-37.5312 20.7347,0 37.5312,16.7965 37.5312,37.5312 0,18.7906 -13.8285,34.3411 -31.8438,37.0938 a 0.536964,0.536964 0 0 0 0.15625,1.0625 c 19.5325,-2.8434 34.5625,-19.6531 34.5625,-39.9688 0,-22.309 -18.0973,-40.4062 -40.4062,-40.4062 z" transform="matrix(0.93157563,0,0,0.93157563,5.3502209,2.0334869)"/>
<path id="path4045" d="m 66.5,30.0312 c -22.1349,0 -40.0938,17.9589 -40.0938,40.0938 0,20.1568 14.9044,36.8355 34.2812,39.6562 0.0139,0.002 0.01726,-0.001 0.03125,0 0.01404,6.7e-4 0.0172,2e-5 0.03125,0 0.01398,-0.001 0.01735,0.002 0.03125,0 0.01363,-0.003 0.01781,0.004 0.03125,0 0.01344,-0.004 -0.01322,-0.0265 0,-0.0313 0.0127,-0.006 0.01886,0.007 0.03125,0 0.01167,-0.008 0.01997,0.008 0.03125,0 0.01128,-0.008 -0.01085,-0.0223 0,-0.0313 0.0099,-0.01 0.02183,0.0104 0.03125,0 0.0094,-0.0104 -0.0089,-0.0204 0,-0.0313 0.0072,-0.0121 0.02464,-0.0189 0.03125,-0.0313 0.0054,-0.013 -0.0047,-0.018 0,-0.0313 0.0034,-0.0136 -0.0027,-0.0175 0,-0.0313 0.0014,-0.014 -6.72e-4,-0.0172 0,-0.0313 -7.07e-4,-0.014 0.0014,-0.0173 0,-0.0313 -0.0028,-0.0138 0.0034,-0.0176 0,-0.0313 -0.0048,-0.0132 0.0054,-0.0183 0,-0.0313 -0.0066,-0.0124 -0.02401,-0.0192 -0.03125,-0.0313 -0.0089,-0.0109 0.0095,-0.0208 0,-0.0313 -0.0095,-0.0104 -0.0213,0.01 -0.03125,0 -0.01087,-0.009 0.0113,-0.0229 0,-0.0313 -0.0113,-0.008 -0.01956,0.008 -0.03125,0 -0.0124,-0.007 -0.01854,0.006 -0.03125,0 -0.01324,-0.005 -0.0178,-0.0272 -0.03125,-0.0313 a 0.321947,0.321947 0 0 1 -0.03125,0 C 42.58,106.5674 28.6561,90.886 28.6561,71.9375 c 0,-20.9086 16.9352,-37.8438 37.8438,-37.8438 20.9086,0 37.8438,16.9352 37.8438,37.8438 0,18.9485 -13.9239,34.63 -32.0938,37.4062 a 0.321947,0.321947 0 0 1 -0.03125,0 c -0.01345,0.004 -0.01801,0.0265 -0.03125,0.0313 -0.01271,0.006 -0.01885,-0.007 -0.03125,0 -0.01169,0.008 -0.01995,-0.008 -0.03125,0 -0.0113,0.008 0.01087,0.0224 0,0.0313 -0.0099,0.01 -0.0218,-0.0104 -0.03125,0 -0.0095,0.0104 0.0089,0.0204 0,0.0313 -0.0072,0.012 -0.02461,0.0189 -0.03125,0.0313 -0.0054,0.013 0.0048,0.018 0,0.0313 -0.0034,0.0136 0.0028,0.0175 0,0.0313 -0.0014,0.014 7.07e-4,0.0172 0,0.0313 6.72e-4,0.014 -0.0014,0.0173 0,0.0313 0.0027,0.0138 -0.0034,0.0176 0,0.0313 0.0047,0.0132 -0.0054,0.0183 0,0.0313 0.0066,0.0124 0.02404,0.0192 0.03125,0.0313 0.0089,0.0109 -0.0094,0.0208 0,0.0313 0.0094,0.0104 0.02133,-0.01 0.03125,0 0.01085,0.009 -0.01128,0.0229 0,0.0313 0.01128,0.008 0.01958,-0.008 0.03125,0 0.01238,0.007 0.01855,-0.006 0.03125,0 0.01323,0.005 -0.01344,0.0272 0,0.0313 0.01344,0.004 0.01762,-0.003 0.03125,0 0.0139,0.002 0.01727,-10e-4 0.03125,0 0.01405,2e-5 0.01721,6.7e-4 0.03125,0 0.01399,-10e-4 0.01735,0.002 0.03125,0 19.3768,-2.82074 34.2812,-19.4994 34.2812,-39.6562 0,-22.1349 -17.9589,-40.0938 -40.0938,-40.0938 z" transform="matrix(1.3915926,0,0,1.3915926,-25.372077,-30.209353)"/>
<path id="path5777" d="m 66.8942,46.4664 c -11.8784,0 -21.5336,9.6552 -21.5336,21.5336 0,11.8784 9.6552,21.5336 21.5336,21.5336 11.8784,0 21.5336,-9.6552 21.5336,-21.5336 0,-11.8784 -9.6552,-21.5336 -21.5336,-21.5336 z m 0,4.8742 c 10.4122,0 18.8419,8.42974 18.8419,18.8419 0,10.4122 -8.42974,18.8419 -18.8419,18.8419 -10.4122,0 -18.8419,-8.42974 -18.8419,-18.8419 0,-10.4122 8.42974,-18.8419 18.8419,-18.8419 z"/>
</g>
</g>
<path style="fill:#e6e6e6;stroke:#646464;stroke-width:3.5" id="path5485" d="m 67.0121,60.7987 c -4.17913,-0.07124 -8.86737,4.20256 -8.86737,8.98926 v 56.6171 h 17.5519 v -56.6171 c 0,-4.83579 -4.5054,-8.91802 -8.68453,-8.98926 z "/>
<g style="stroke:none" id="g15">
<rect width="52.3629" x="40.802795" y="116.3638" height="11.6362" style="fill:#969696" id="rect3806"/>
<rect width="23.2742" x="104.7258" y="11.75" height="116.5" style="fill:#787878" id="rect3069"/>
<rect width="11.636201" x="110.5439" y="17.4561" height="104.7258" style="fill:#7fff2a" id="rect3839"/>
</g>
</svg>
