<?xml version="1.0" encoding="UTF-8" standalone="no"?>
<svg
   width="48"
   version="1.1"
   height="48"
   id="svg15"
   sodipodi:docname="0.svg"
   inkscape:version="1.1.2 (0a00cf5339, 2022-02-04, custom)"
   xmlns:inkscape="http://www.inkscape.org/namespaces/inkscape"
   xmlns:sodipodi="http://sodipodi.sourceforge.net/DTD/sodipodi-0.dtd"
   xmlns="http://www.w3.org/2000/svg"
   xmlns:svg="http://www.w3.org/2000/svg">
  <sodipodi:namedview
     id="namedview17"
     pagecolor="#ffffff"
     bordercolor="#666666"
     borderopacity="1.0"
     inkscape:pageshadow="2"
     inkscape:pageopacity="0.0"
     inkscape:pagecheckerboard="0"
     showgrid="false"
     inkscape:zoom="15.520834"
     inkscape:cx="21.036241"
     inkscape:cy="20.166442"
     inkscape:current-layer="svg15" />
  <defs
     id="defs7386" />
  <path
     id="path3718"
     d="m 16.44261,30.712866 a 2.728829,2.728829 0 0 0 4.681337,1.404401 c 1.621209,-1.6212 4.130149,-1.6212 5.751357,0 a 2.7427414,2.7427414 0 1 0 3.878822,-3.878822 c -3.706634,-3.706635 -9.802366,-3.706635 -13.509001,0 a 2.728829,2.728829 0 0 0 -0.802515,2.474421 z"
     style="color:#000000;fill:#ababab;stroke-width:2.14004;fill-opacity:1;opacity:0.3" />
  <path
     id="path3726"
     d="m 10.610892,24.694018 a 2.7288204,2.7288204 0 0 0 4.708085,1.618404 c 4.817878,-4.817878 12.543187,-4.817878 17.361065,0 a 2.7288204,2.7288204 0 1 0 3.82532,-3.82532 c -6.903325,-6.903324 -18.10838,-6.903324 -25.011704,0 a 2.7288204,2.7288204 0 0 0 -0.882766,2.206916 z"
     style="color:#000000;fill:#ababab;stroke-width:4.70809;fill-opacity:1;opacity:0.3" />
  <path
     id="path3728"
     d="m 10.450612,19.440725 c 7.291667,-7.172087 20.4458,-6.740952 27.104663,0 2.576991,2.577558 6.442441,-1.287892 3.86545,-3.865451 -8.896353,-8.7915864 -26.200605,-8.558819 -34.835563,0 -0.8044502,0.756588 -1.0666823,1.94161 -0.6817744,2.955984 0.7181551,1.893579 3.1633025,2.387055 4.5472244,0.909452 z"
     style="color:#000000;fill:#ababab;stroke-width:7.27614;fill-opacity:1;opacity:0.3"
     sodipodi:nodetypes="ccccccc" />
  <path
     style="fill:#e6e6e6;stroke:#646464;stroke-width:1.06946"
     d="m 24.008511,33.626621 c -1.276724,-0.0084 -2.709513,1.284134 -2.709513,2.746757 V 47.46527 h 5.363156 V 36.373378 c 0,-1.477623 -1.37692,-2.738393 -2.653643,-2.746757 z"
     id="path950"
     sodipodi:nodetypes="ssccss" />
  <rect
     width="16"
     x="16"
     y="44.397064"
     height="3.5555556"
     style="fill:#969696;stroke-width:0.30556"
     id="rect952" />
  <path
     id="path825"
     d="m 4.9517917,12.44046 c 8.5049503,-8.4086209 29.1876353,-8.7206362 38.1046633,0 2.605811,2.548419 6.442441,-1.287892 3.86545,-3.8654511 -10.12391,-10.5596444 -35.632923,-10.4020518 -45.8355634,0 C 0.28189146,9.3315969 0.01562578,10.518159 0.40456726,11.530993 1.1802154,13.550842 3.4097456,13.96504 4.9517917,12.44046 Z"
     style="color:#000000;fill:#ababab;stroke-width:7.27614;fill-opacity:1;opacity:0.3"
     sodipodi:nodetypes="ssccss" />
</svg>
