<svg width="48" version="1.1" xmlns="http://www.w3.org/2000/svg" height="48">
<path style="fill:#e6e6e6;stroke:#646464" d="m 24.0085,33.6266 c -1.27672,-0.0084 -2.70951,1.28413 -2.70951,2.74676 v 11.0919 h 5.36316 v -11.0919 c 0,-1.47762 -1.37692,-2.73839 -2.65364,-2.74676 z "/>
<rect width="16" x="16" y="44.397064" height="3.5555556" style="fill:#969696"/>
<g style="fill:#ababab">
<path style="opacity:.3" d="m 23.9746,25.5 c -3.43791,0.03513 -6.62425,1.84078 -8.42188,4.77148 a 2.50015,2.50015 0 0,0 0.824219,3.4375 2.50015,2.50015 0 0,0 3.4375,-0.824218 c 0.898486,-1.46482 2.47788,-2.35765 4.19531,-2.38086 1.71947,0.0092 3.30888,0.891545 4.21875,2.35156 a 2.50015,2.50015 0 0,0 3.44336,0.798828 2.50015,2.50015 0 0,0 0.798828,-3.44336 c -1.82037,-2.92105 -5.02301,-4.70386 -8.46484,-4.71094 h -0.01563 z "/>
<path style="opacity:.3" d="m 23.9805,17.5 c -4.97064,0.03863 -9.70667,2.13233 -13.0801,5.7832 a 2.5,2.5 0 0,0 0.138672,3.5332 2.5,2.5 0 0,0 3.5332,-0.138672 c 2.43544,-2.63575 5.84926,-4.14514 9.4375,-4.17578 3.59444,0.0041 7.02299,1.49181 9.47852,4.11719 a 2.5,2.5 0 0,0 3.5332,0.11914 2.5,2.5 0 0,0 0.119141,-3.5332 c -3.40121,-3.63647 -8.16145,-5.70325 -13.1406,-5.70508 h -0.0098 z "/>
<path style="opacity:.3" d="m 23.9922,9.5 c -6.64833,0.02149 -13.0383,2.5896 -17.8516,7.17578 a 2.5,2.5 0 0,0 -0.085937,3.53516 2.5,2.5 0 0,0 3.53516,0.08594 c 3.88633,-3.70297 9.04048,-5.77702 14.4082,-5.79688 5.37514,0.0022 10.5434,2.06474 14.4434,5.76367 a 2.5,2.5 0 0,0 3.53516,-0.09375 2.5,2.5 0 0,0 -0.09375,-3.53516 c -4.82727,-4.57839 -11.2277,-7.13209 -17.8809,-7.13477 h -0.0059 z "/>
<path style="opacity:.3" d="m 23.9922,1.5 c -8.34963,0.0279446 -16.3984,3.12856 -22.6094,8.70898 a 2.5,2.5 0 0,0 -0.189453,3.5293 2.5,2.5 0 0,0 3.5293,0.189453 c 5.29606,-4.75841 12.1559,-7.4015 19.2754,-7.42773 7.12868,0.00452 14.0054,2.63371 19.3184,7.38672 a 2.5,2.5 0 0,0 3.5293,-0.197266 2.5,2.5 0 0,0 -0.197266,-3.5293 c -6.22787,-5.57153 -14.2902,-8.65486 -22.6465,-8.66016 h -0.0059 z "/>
</g>
</svg>
