<svg width="128" version="1.0" xmlns="http://www.w3.org/2000/svg" height="128">
<g style="fill:#fff">
<path id="path4154" d="m 67.3,31.7187 c -20.7825,0 -37.6414,16.859 -37.6414,37.6414 0,18.9255 14.0016,34.585 32.1976,37.234 a 0.500223,0.500223 0 0,0 0.145558,-0.9898 c -16.7825,-2.56432 -29.6649,-17.0508 -29.6649,-34.5557 0,-19.3159 15.6472,-34.9632 34.9632,-34.9632 19.3159,0 34.9632,15.6472 34.9632,34.9632 0,17.5049 -12.8823,31.9913 -29.6649,34.5557 a 0.500223,0.500223 0 0,0 0.145559,0.9898 c 18.196,-2.64884 32.1976,-18.3083 32.1976,-37.234 0,-20.7825 -16.859,-37.6414 -37.6414,-37.6414 z "/>
<path id="path4156" d="m 67.1688,13.5817 c -30.8028,0 -55.7942,24.9915 -55.7942,55.7942 0,28.0501 20.7409,51.26 47.7055,55.1853 0.01934,0.003 0.02402,-0.001 0.04349,0 0.01954,0.00093 0.02393,3e-05 0.04349,0 0.01946,-0.001 0.02414,0.003 0.04349,0 0.01897,-0.004 0.02478,0.006 0.04349,0 0.0187,-0.006 -0.0184,-0.0369 0,-0.0436 0.01767,-0.008 0.02624,0.01 0.04349,0 0.01624,-0.0111 0.02779,0.0111 0.04349,0 0.0157,-0.0111 -0.0151,-0.031 0,-0.0436 0.01378,-0.0139 0.03038,0.0145 0.04349,0 0.01308,-0.0145 -0.01239,-0.0284 0,-0.0436 0.01002,-0.0168 0.03429,-0.0263 0.04349,-0.0436 0.0075,-0.0181 -0.0065,-0.025 0,-0.0436 0.0047,-0.0189 -0.0038,-0.0243 0,-0.0435 0.0019,-0.0195 -0.000935,-0.0239 0,-0.0436 -0.000984,-0.0195 0.0019,-0.0241 0,-0.0436 -0.0039,-0.0192 0.0047,-0.0245 0,-0.0435 -0.0067,-0.0184 0.0075,-0.0255 0,-0.0436 -0.0092,-0.0173 -0.03341,-0.0267 -0.04349,-0.0436 -0.01239,-0.0152 0.01322,-0.0289 0,-0.0436 -0.01322,-0.0145 -0.02964,0.0139 -0.04349,0 -0.01513,-0.0125 0.01572,-0.0319 0,-0.0436 -0.01573,-0.0111 -0.02722,0.0111 -0.04349,0 -0.01726,-0.01 -0.0258,0.008 -0.04349,0 -0.01843,-0.007 -0.02477,-0.0378 -0.04349,-0.0436 a 0.448019,0.448019 0 0,1 -0.04349,0 c -25.2851,-3.8621 -44.6615,-25.6842 -44.6615,-52.0528 -3.55271e-15,-29.0963 23.5669,-52.6632 52.6632,-52.6632 29.0963,0 52.6631,23.5669 52.6631,52.6632 0,26.3686 -19.3764,48.1909 -44.6615,52.0542 a 0.448019,0.448019 0 0,1 -0.04349,0 c -0.01872,0.006 -0.02506,0.0369 -0.04349,0.0436 -0.01769,0.008 -0.02623,-0.01 -0.04349,0 -0.01627,0.0111 -0.02776,-0.0111 -0.04349,0 -0.01572,0.0111 0.01513,0.0312 0,0.0436 -0.01378,0.0139 -0.03034,-0.0145 -0.04349,0 -0.01322,0.0145 0.01239,0.0284 0,0.0436 -0.01002,0.0167 -0.03425,0.0263 -0.04349,0.0435 -0.0075,0.0181 0.0067,0.025 0,0.0436 -0.0047,0.0189 0.0039,0.0243 0,0.0436 -0.0019,0.0195 0.000983,0.0239 0,0.0435 0.000935,0.0195 -0.0019,0.0241 0,0.0436 0.0038,0.0192 -0.0047,0.0245 0,0.0436 0.0065,0.0184 -0.0075,0.0255 0,0.0436 0.0092,0.0173 0.03345,0.0267 0.04349,0.0436 0.01239,0.0152 -0.01308,0.0289 0,0.0436 0.01308,0.0145 0.02968,-0.0139 0.04349,0 0.0151,0.0125 -0.0157,0.0319 0,0.0436 0.0157,0.0111 0.02725,-0.0111 0.04349,0 0.01723,0.01 0.02581,-0.008 0.04349,0 0.01841,0.007 -0.0187,0.0378 0,0.0435 0.0187,0.006 0.02452,-0.004 0.04349,0 0.01934,0.003 0.02403,-0.001 0.04349,0 0.01955,3e-05 0.02395,0.00094 0.04349,0 0.01947,-0.001 0.02415,0.003 0.04349,0 26.9646,-3.92532 47.7055,-27.1352 47.7055,-55.1853 0,-30.8028 -24.9915,-55.7942 -55.7942,-55.7942 z "/>
<path id="path4158" d="m 66.8942,48.4663 c -11.8784,0 -21.5336,9.6552 -21.5336,21.5336 0,11.8784 9.6552,21.5336 21.5336,21.5336 11.8784,0 21.5336,-9.6552 21.5336,-21.5336 0,-11.8784 -9.6552,-21.5336 -21.5336,-21.5336 z  m 0,4.8742 c 10.4122,0 18.8419,8.42974 18.8419,18.8419 0,10.4122 -8.42974,18.8419 -18.8419,18.8419 -10.4122,0 -18.8419,-8.42974 -18.8419,-18.8419 0,-10.4122 8.42974,-18.8419 18.8419,-18.8419 z "/>
</g>
<g style="fill:#d69642">
<path id="path3997" d="m 67.3,29.7188 c -20.7825,0 -37.6414,16.859 -37.6414,37.6414 0,18.9255 14.0016,34.585 32.1976,37.234 a 0.500223,0.500223 0 0,0 0.145558,-0.9898 c -16.7825,-2.56432 -29.6649,-17.0508 -29.6649,-34.5557 0,-19.3159 15.6472,-34.9632 34.9632,-34.9632 19.3159,0 34.9632,15.6472 34.9632,34.9632 0,17.5049 -12.8823,31.9913 -29.6649,34.5557 a 0.500223,0.500223 0 0,0 0.145559,0.9898 c 18.196,-2.64884 32.1976,-18.3084 32.1976,-37.234 0,-20.7825 -16.859,-37.6414 -37.6414,-37.6414 z "/>
<path id="path4045" d="m 67.1688,11.5818 c -30.8028,0 -55.7942,24.9915 -55.7942,55.7942 0,28.0501 20.7409,51.26 47.7055,55.1853 0.01934,0.003 0.02402,-0.001 0.04349,0 0.01954,0.00093 0.02393,3e-05 0.04349,0 0.01946,-0.001 0.02414,0.003 0.04349,0 0.01897,-0.004 0.02478,0.006 0.04349,0 0.0187,-0.006 -0.0184,-0.0369 0,-0.0436 0.01767,-0.008 0.02624,0.01 0.04349,0 0.01624,-0.0111 0.02779,0.0111 0.04349,0 0.0157,-0.0111 -0.0151,-0.031 0,-0.0436 0.01378,-0.0139 0.03038,0.0145 0.04349,0 0.01308,-0.0145 -0.01239,-0.0284 0,-0.0436 0.01002,-0.0168 0.03429,-0.0263 0.04349,-0.0435 0.0075,-0.0181 -0.0065,-0.025 0,-0.0436 0.0047,-0.0189 -0.0038,-0.0243 0,-0.0436 0.0019,-0.0195 -0.000935,-0.0239 0,-0.0436 -0.000984,-0.0195 0.0019,-0.0241 0,-0.0435 -0.0039,-0.0192 0.0047,-0.0245 0,-0.0436 -0.0067,-0.0184 0.0075,-0.0255 0,-0.0436 -0.0092,-0.0173 -0.03341,-0.0267 -0.04349,-0.0436 -0.01239,-0.0152 0.01322,-0.0289 0,-0.0436 -0.01322,-0.0145 -0.02964,0.0139 -0.04349,0 -0.01513,-0.0125 0.01572,-0.0319 0,-0.0436 -0.01573,-0.0111 -0.02722,0.0111 -0.04349,0 -0.01726,-0.01 -0.0258,0.008 -0.04349,0 -0.01843,-0.007 -0.02477,-0.0378 -0.04349,-0.0435 a 0.448019,0.448019 0 0,1 -0.04349,0 c -25.2851,-3.8622 -44.6615,-25.6843 -44.6615,-52.0529 -3.55271e-15,-29.0963 23.5669,-52.6632 52.6632,-52.6632 29.0963,0 52.6631,23.5669 52.6631,52.6632 0,26.3686 -19.3764,48.1908 -44.6615,52.0542 a 0.448019,0.448019 0 0,1 -0.04349,0 c -0.01872,0.006 -0.02506,0.0369 -0.04349,0.0436 -0.01769,0.008 -0.02623,-0.01 -0.04349,0 -0.01627,0.0111 -0.02776,-0.0111 -0.04349,0 -0.01572,0.0111 0.01513,0.0312 0,0.0436 -0.01378,0.0139 -0.03034,-0.0145 -0.04349,0 -0.01322,0.0145 0.01239,0.0284 0,0.0436 -0.01002,0.0167 -0.03425,0.0263 -0.04349,0.0436 -0.0075,0.0181 0.0067,0.025 0,0.0436 -0.0047,0.0189 0.0039,0.0243 0,0.0435 -0.0019,0.0195 0.000983,0.0239 0,0.0436 0.000935,0.0195 -0.0019,0.0241 0,0.0436 0.0038,0.0192 -0.0047,0.0245 0,0.0435 0.0065,0.0184 -0.0075,0.0255 0,0.0436 0.0092,0.0173 0.03345,0.0267 0.04349,0.0436 0.01239,0.0152 -0.01308,0.0289 0,0.0436 0.01308,0.0145 0.02968,-0.0139 0.04349,0 0.0151,0.0125 -0.0157,0.0319 0,0.0436 0.0157,0.0111 0.02725,-0.0111 0.04349,0 0.01723,0.01 0.02581,-0.008 0.04349,0 0.01841,0.007 -0.0187,0.0378 0,0.0436 0.0187,0.006 0.02452,-0.004 0.04349,0 0.01934,0.003 0.02403,-0.001 0.04349,0 0.01955,2e-05 0.02395,0.00093 0.04349,0 0.01947,-0.001 0.02415,0.003 0.04349,0 26.9646,-3.92532 47.7055,-27.1352 47.7055,-55.1853 0,-30.8028 -24.9915,-55.7942 -55.7942,-55.7942 z "/>
<path id="path5777" d="m 66.8942,46.4664 c -11.8784,0 -21.5336,9.6552 -21.5336,21.5336 0,11.8784 9.6552,21.5336 21.5336,21.5336 11.8784,0 21.5336,-9.6552 21.5336,-21.5336 0,-11.8784 -9.6552,-21.5336 -21.5336,-21.5336 z m 0,4.8742 c 10.4122,0 18.8419,8.42974 18.8419,18.8419 0,10.4122 -8.42974,18.8419 -18.8419,18.8419 -10.4122,0 -18.8419,-8.42974 -18.8419,-18.8419 0,-10.4122 8.42974,-18.8419 18.8419,-18.8419 z"/>
</g>
<path style="fill:#e6e6e6;stroke:#646464;stroke-width:3.5" id="path5485" d="m 67.0121,60.7987 c -4.17831,-0.02737 -8.86737,4.20256 -8.86737,8.98926 v 56.6171 h 17.5519 c 0,0 0,-37.7447 0,-56.6171 0,-4.83579 -4.50622,-8.96189 -8.68453,-8.98926 z "/>
<rect width="52.3629" x="40.802795" y="116.3638" height="11.6362" style="fill:#969696;stroke:none" id="rect3806"/>
</svg>
