<svg width="48" version="1.1" xmlns="http://www.w3.org/2000/svg" height="48" xmlns:xlink="http://www.w3.org/1999/xlink">
<defs>
<linearGradient id="linearGradient3654">
<stop offset="0" style="stop-color:#f2b200"/>
<stop offset="0.2" style="stop-color:#f2b200"/>
<stop offset="0.2" style="stop-color:#e5a800"/>
<stop offset="0.5" style="stop-color:#e5a800"/>
<stop offset="0.5" style="stop-color:#cc9600"/>
<stop offset="0.8" style="stop-color:#cc9600"/>
<stop offset="0.8" style="stop-color:#b28300"/>
<stop offset="1" style="stop-color:#b28300"/>
</linearGradient>
<linearGradient gradientTransform="matrix(1.4375,0,0,1.4375,55.360404,-9.8506669)" xlink:href="#linearGradient3654" id="linearGradient3656" y1="31.896116" x1="-38.511585" y2="31.896116" x2="-27.381151" gradientUnits="userSpaceOnUse"/>
</defs>
<g style="fill:#429cd6;color:#000">
<path d="m 16.4426,30.7129 a 2.72883,2.72883 0 0,0 4.68134,1.4044 c 1.62121,-1.6212 4.13015,-1.6212 5.75136,0 a 2.74274,2.74274 0 1,0 3.87882,-3.87882 c -3.70663,-3.70663 -9.80237,-3.70663 -13.509,0 a 2.72883,2.72883 0 0,0 -0.802515,2.47442 z "/>
<path d="m 10.6109,24.694 a 2.72882,2.72882 0 0,0 4.70809,1.6184 c 4.81788,-4.81788 12.5432,-4.81788 17.3611,0 a 2.72882,2.72882 0 1,0 3.82532,-3.82532 c -6.90332,-6.90332 -18.1084,-6.90332 -25.0117,0 a 2.72882,2.72882 0 0,0 -0.882766,2.20692 z "/>
<path d="m 10.4506,19.4407 c 7.29167,-7.17209 20.4458,-6.74095 27.1047,0 2.57699,2.57756 6.44244,-1.28789 3.86545,-3.86545 -8.89635,-8.79159 -26.2006,-8.55882 -34.8356,0 -0.80445,0.756588 -1.06668,1.94161 -0.681774,2.95598 0.718155,1.89358 3.1633,2.38706 4.54722,0.909452 z "/>
</g>
<path style="fill:#e6e6e6;stroke:#646464" d="m 24.0085,33.6266 c -1.27672,-0.0084 -2.70951,1.28413 -2.70951,2.74676 v 11.0919 h 5.36316 v -11.0919 c 0,-1.47762 -1.37692,-2.73839 -2.65364,-2.74676 z "/>
<rect width="16" x="16" y="44.397064" height="3.5555556" style="fill:#969696"/>
<path style="opacity:.3;fill:#ababab;color:#000" d="m 4.9518,12.4405 c 8.50495,-8.40862 29.1876,-8.72064 38.1047,0 2.60581,2.54842 6.44244,-1.28789 3.86545,-3.86545 -10.1239,-10.5596 -35.6329,-10.4021 -45.8356,0 -0.80445,0.756588 -1.07072,1.94315 -0.681774,2.95598 0.775648,2.01985 3.00518,2.43405 4.54722,0.909467 Z "/>
<g>
<g style="color:#000">
<path style="fill:#808080" d="m 8.0156,26.75 c -3.51558,0 -5.9375,2.68981 -5.9375,6 v 3.64063 h 2.9374 l -.0155,-3.1406 c -0.00986,-1.99806 1,-3.5 3,-3.5 2,0 2.9904,1.55543 3,3.5 l .0155,3.1406 h 2.92198 v -3.64063 c 0,-3.31019 -2.43747,-6 -5.92191,-6 z "/>
<path style="fill:#8c8c8c" d="m 8.0156,27 c -3.38808,0 -5.68751,2.56175 -5.68751,5.74998 v 3.39063 h 2.43653 l -.0146,-2.8896 c -0.0051408,-1.04145 0.253727,-1.97385 0.800779,-2.65625 0.547054,-0.6824 1.38664,-1.09472 2.44922,-1.09472 1.06481,0 1.89921,0.428076 2.44238,1.11621 0.543166,0.688135 0.802613,1.61841 0.807618,2.63281 l .0146,2.8916 h 2.42285 v -3.39063 c 0,-3.18744 -2.31611,-5.74998 -5.6719,-5.74998 z "/>
<path style="fill:#999" d="m 8.0156,27.25 c -3.26206,0 -5.4375,2.43195 -5.4375,5.5 v 3.3905 h 1.93554 l -.0136,-2.8886 c -0.00535,-1.08361 0.262976,-2.0744 0.855471,-2.81348 0.594393,-0.741454 1.51728,-1.18848 2.64453,-1.18848 1.13181,0 2.0496,0.464644 2.63867,1.21094 0.587072,0.743753 0.856115,1.73084 0.861332,2.78711 l .0136,2.8925 h 1.92383 v -3.3905 c 0,-3.06631 -2.19338,-5.5 -5.42191,-5.5 z "/>
<path style="fill:#a6a6a6" d="m 8.0156,27.5 c -3.1378,0 -5.18751,2.30014 -5.18751,5.25002 v 3.3405 h 1.43457 l -.0127,-2.8376 c -0.00555,-1.12564 0.272503,-2.17528 0.910153,-2.97071 0.642716,-0.801725 1.6465,-1.28223 2.83984,-1.28223 1.20023,0 2.19892,0.5 2.83496,1.30567 0.630703,0.799036 0.909621,1.84348 0.91504,2.9414 l .0127,2.8434 h 1.4248 v -3.3405 c 0,-2.94705 -2.06903,-5.25002 -5.1719,-5.25002 z "/>
<path style="fill:#b2b2b2" d="m 8.0156,27.75 c -3.01562,0 -4.9375,2.16595 -4.9375,5 v 3.3405 h 0.933597 l -.0117,-2.8366 c -0.00576,-1.16757 0.28224,-2.27644 0.964845,-3.12793 0.69168,-0.862804 1.77471,-1.37598 3.03516,-1.37598 1.26964,0 2.3475,0.534156 3.03125,1.40039 0.674136,0.854059 0.963124,1.9562 0.968751,3.0957 l .0117,2.8444 h 0.925781 v -3.3405 c 0,-2.83002 -1.94273,-5 -4.92188,-5 z "/>
<path style="fill:#bfbfbf" d="m 8.0156,28 c -2.89592,0 -4.68751,2.02897 -4.68751,4.74998 v 3.2905 h 0.432616 l -.0107,-2.7856 c -0.00597,-1.20946 0.29214,-2.3778 1.01953,-3.28515 0.741082,-0.924432 1.90217,-1.46973 3.23047,-1.46973 1.33976,0 2.49559,0.567819 3.22754,1.49512 0.717412,0.90889 1.01664,2.06903 1.02246,3.25 l .0107,2.7954 h 0.426758 v -3.2905 c 0,-2.71558 -1.81413,-4.74998 -4.67186,-4.74998 z "/>
</g>
<path style="fill:url(#linearGradient3656)" d="m 0,36 v 12 h 16 v -12 Z "/>
</g>
</svg>
