<svg width="48" version="1.1" xmlns="http://www.w3.org/2000/svg" height="48" xmlns:xlink="http://www.w3.org/1999/xlink">
<defs>
<linearGradient id="linearGradient3654">
<stop offset="0" style="stop-color:#f2b200"/>
<stop offset="0.2" style="stop-color:#f2b200"/>
<stop offset="0.2" style="stop-color:#e5a800"/>
<stop offset="0.5" style="stop-color:#e5a800"/>
<stop offset="0.5" style="stop-color:#cc9600"/>
<stop offset="0.8" style="stop-color:#cc9600"/>
<stop offset="0.8" style="stop-color:#b28300"/>
<stop offset="1" style="stop-color:#b28300"/>
</linearGradient>
<linearGradient gradientTransform="matrix(1.4375,0,0,1.4375,49.066512,-9.3468511)" xlink:href="#linearGradient3654" id="linearGradient3656" y1="31.545635" x1="-34.133224" y2="31.545635" x2="-23.00279" gradientUnits="userSpaceOnUse"/>
</defs>
<path style="fill:#e6e6e6;stroke:#646464" d="m 24.0085,33.6266 c -1.27672,-0.0084 -2.70951,1.28413 -2.70951,2.74676 v 11.0919 h 5.36316 v -11.0919 c 0,-1.47762 -1.37692,-2.73839 -2.65364,-2.74676 z "/>
<rect width="16" x="16" y="44.397064" height="3.5555556" style="fill:#969696"/>
<g style="fill:#429cd6">
<path d="m 23.9746,25.5 c -3.43791,0.03513 -6.62425,1.84078 -8.42188,4.77148 a 2.50015,2.50015 0 0,0 0.824219,3.4375 2.50015,2.50015 0 0,0 3.4375,-0.824218 c 0.898486,-1.46482 2.47788,-2.35765 4.19531,-2.38086 1.71947,0.0092 3.30888,0.891545 4.21875,2.35156 a 2.50015,2.50015 0 0,0 3.44336,0.798828 2.50015,2.50015 0 0,0 0.798828,-3.44336 c -1.82037,-2.92105 -5.02301,-4.70386 -8.46484,-4.71094 h -0.01563 z "/>
<path d="m 23.9805,17.5 c -4.97064,0.03863 -9.70667,2.13233 -13.0801,5.7832 a 2.5,2.5 0 0,0 0.138672,3.5332 2.5,2.5 0 0,0 3.5332,-0.138672 c 2.43544,-2.63575 5.84926,-4.14514 9.4375,-4.17578 3.59444,0.0041 7.02299,1.49181 9.47852,4.11719 a 2.5,2.5 0 0,0 3.5332,0.11914 2.5,2.5 0 0,0 0.119141,-3.5332 c -3.40121,-3.63647 -8.16145,-5.70325 -13.1406,-5.70508 h -0.0098 z "/>
<path d="m 23.9922,9.5 c -6.64833,0.02149 -13.0383,2.5896 -17.8516,7.17578 a 2.5,2.5 0 0,0 -0.085937,3.53516 2.5,2.5 0 0,0 3.53516,0.08594 c 3.88633,-3.70297 9.04048,-5.77702 14.4082,-5.79688 5.37514,0.0022 10.5434,2.06474 14.4434,5.76367 a 2.5,2.5 0 0,0 3.53516,-0.09375 2.5,2.5 0 0,0 -0.09375,-3.53516 c -4.82727,-4.57839 -11.2277,-7.13209 -17.8809,-7.13477 h -0.0059 z "/>
<path d="m 23.9922,1.5 c -8.34963,0.0279446 -16.3984,3.12856 -22.6094,8.70898 a 2.5,2.5 0 0,0 -0.189453,3.5293 2.5,2.5 0 0,0 3.5293,0.189453 c 5.29606,-4.75841 12.1559,-7.4015 19.2754,-7.42773 7.12868,0.00452 14.0054,2.63371 19.3184,7.38672 a 2.5,2.5 0 0,0 3.5293,-0.197266 2.5,2.5 0 0,0 -0.197266,-3.5293 c -6.22787,-5.57153 -14.2902,-8.65486 -22.6465,-8.66016 h -0.0059 z "/>
</g>
<g>
<g style="color:#000">
<path style="fill:#808080" d="m 8.0156,26.75 c -3.51558,0 -5.9375,2.68981 -5.9375,6 v 3.64063 H 5.0155 L 5,33.25003 c -0.00986,-1.99806 1,-3.5 3,-3.5 2,0 2.9904,1.55543 3,3.5 l 0.0155,3.1406 h 2.92198 V 32.75 c 0,-3.31019 -2.43747,-6 -5.92191,-6 z"/>
<path style="fill:#8c8c8c" d="m 8.0156,27 c -3.38808,0 -5.68751,2.56175 -5.68751,5.74998 v 3.39063 h 2.43653 l -.0146,-2.8896 c -0.00514,-1.04145 0.253727,-1.97385 0.800779,-2.65625 0.547054,-0.6824 1.38664,-1.09472 2.44922,-1.09472 1.06481,0 1.89921,0.428076 2.44238,1.11621 0.543166,0.688135 0.802613,1.61841 0.807618,2.63281 l .0146,2.8916 h 2.42285 v -3.39063 c 0,-3.18744 -2.31611,-5.74998 -5.6719,-5.74998 z "/>
<path style="fill:#999" d="m 8.0156,27.25 c -3.26206,0 -5.4375,2.43195 -5.4375,5.5 v 3.3905 h 1.93554 l -.0136,-2.8886 c -0.00535,-1.08361 0.262976,-2.0744 0.855471,-2.81348 0.594393,-0.741454 1.51728,-1.18848 2.64453,-1.18848 1.13181,0 2.0496,0.464644 2.63867,1.21094 0.587072,0.743753 0.856115,1.73084 0.861332,2.78711 l .0136,2.8925 h 1.92383 v -3.3905 c 0,-3.06631 -2.19338,-5.5 -5.42191,-5.5 z "/>
<path style="fill:#a6a6a6" d="m 8.0156,27.5 c -3.1378,0 -5.18751,2.30014 -5.18751,5.25002 v 3.3405 h 1.43457 l -.0127,-2.8376 c -0.00555,-1.12564 0.272503,-2.17528 0.910153,-2.97071 0.642716,-0.801725 1.6465,-1.28223 2.83984,-1.28223 1.20023,0 2.19892,0.5 2.83496,1.30567 0.630703,0.799036 0.909621,1.84348 0.91504,2.9414 l .0127,2.8434 h 1.4248 v -3.3405 c 0,-2.94705 -2.06903,-5.25002 -5.1719,-5.25002 z "/>
<path style="fill:#b2b2b2" d="m 8.0156,27.75 c -3.01562,0 -4.9375,2.16595 -4.9375,5 v 3.3405 h 0.933597 l -.0117,-2.8366 c -0.00576,-1.16757 0.28224,-2.27644 0.964845,-3.12793 0.69168,-0.862804 1.77471,-1.37598 3.03516,-1.37598 1.26964,0 2.3475,0.534156 3.03125,1.40039 0.674136,0.854059 0.963124,1.9562 0.968751,3.0957 l .0117,2.8444 h 0.925781 v -3.3405 c 0,-2.83002 -1.94273,-5 -4.92188,-5 z "/>
<path style="fill:#bfbfbf" d="m 8.0156,28 c -2.89592,0 -4.68751,2.02897 -4.68751,4.74998 v 3.2905 h 0.432616 l -0.0107,-2.7856 c -0.00597,-1.20946 0.29214,-2.3778 1.01953,-3.28515 C 5.510618,29.045298 6.671706,28.5 8.000006,28.5 c 1.33976,0 2.49559,0.567819 3.22754,1.49512 0.717412,0.90889 1.01664,2.06903 1.02246,3.25 l 0.0107,2.7954 h 0.426758 v -3.2905 c 0,-2.71558 -1.81413,-4.74998 -4.67186,-4.74998 z"/>
</g>
<path style="fill:url(#linearGradient3656)" d="M 0,36 V 48 H 16 V 36 Z"/>
</g>
</svg>
