<svg width="128" version="1.0" xmlns="http://www.w3.org/2000/svg" height="128" xmlns:xlink="http://www.w3.org/1999/xlink">
<defs>
<linearGradient id="linearGradient3654">
<stop offset="0" style="stop-color:#f2b200"/>
<stop offset="0.2" style="stop-color:#f2b200"/>
<stop offset="0.2" style="stop-color:#e5a800"/>
<stop offset="0.5" style="stop-color:#e5a800"/>
<stop offset="0.5" style="stop-color:#cc9600"/>
<stop offset="0.8" style="stop-color:#cc9600"/>
<stop offset="0.8" style="stop-color:#b28300"/>
<stop offset="1" style="stop-color:#b28300"/>
</linearGradient>
<linearGradient gradientTransform="matrix(1.4375,0,0,1.4375,169.18859,67.572152)" xlink:href="#linearGradient3654" id="linearGradient3656" y1="18.036764" x1="-60.652931" y2="18.036764" x2="-28.652933" gradientUnits="userSpaceOnUse"/>
</defs>
<g>
<g style="opacity:.6;fill:#fff" transform="translate(0,1.9999746)">
<path d="m 66.5,29.7188 c -22.309,0 -40.4062,18.0973 -40.4062,40.4062 0,20.3156 15.03,37.1253 34.5625,39.9688 a 0.536964,0.536964 0 0 0 0.15625,-1.0625 c -18.0152,-2.75267 -31.8438,-18.3032 -31.8438,-37.0938 0,-20.7347 16.7965,-37.5312 37.5312,-37.5312 20.7347,0 37.5312,16.7965 37.5312,37.5312 0,18.7906 -13.8285,34.3411 -31.8438,37.0938 a 0.536964,0.536964 0 0 0 0.15625,1.0625 c 19.5325,-2.8434 34.5625,-19.6531 34.5625,-39.9688 0,-22.309 -18.0973,-40.4062 -40.4062,-40.4062 z" transform="matrix(0.7262109,0,0,0.7262109,19.090787,16.052612)"/>
<path d="m 67.0675,50.6903 c -9.25982,0 -16.7865,7.52672 -16.7865,16.7865 0,9.25982 7.52672,16.7865 16.7865,16.7865 9.25982,0 16.7865,-7.52672 16.7865,-16.7865 0,-9.25982 -7.52672,-16.7865 -16.7865,-16.7865 z m 0,3.7997 c 8.11681,0 14.6882,6.57142 14.6882,14.6882 0,8.11681 -6.57142,14.6882 -14.6882,14.6882 -8.11681,0 -14.6882,-6.57142 -14.6882,-14.6882 0,-8.11681 6.57141,-14.6882 14.6882,-14.6882 z"/>
</g>
<g style="fill:#429cd6">
<path d="m 66.5,29.7188 c -22.309,0 -40.4062,18.0973 -40.4062,40.4062 0,20.3156 15.03,37.1253 34.5625,39.9688 a 0.536964,0.536964 0 0 0 0.15625,-1.0625 c -18.0152,-2.75267 -31.8438,-18.3032 -31.8438,-37.0938 0,-20.7347 16.7965,-37.5312 37.5312,-37.5312 20.7347,0 37.5312,16.7965 37.5312,37.5312 0,18.7906 -13.8285,34.3411 -31.8438,37.0938 a 0.536964,0.536964 0 0 0 0.15625,1.0625 c 19.5325,-2.8434 34.5625,-19.6531 34.5625,-39.9688 0,-22.309 -18.0973,-40.4062 -40.4062,-40.4062 z" transform="matrix(0.7262109,0,0,0.7262109,19.090787,16.052612)"/>
<path d="m 67.0675,50.6903 c -9.25982,0 -16.7865,7.52672 -16.7865,16.7865 0,9.25982 7.52672,16.7865 16.7865,16.7865 9.25982,0 16.7865,-7.52672 16.7865,-16.7865 0,-9.25982 -7.52672,-16.7865 -16.7865,-16.7865 z m 0,3.7997 c 8.11681,0 14.6882,6.57142 14.6882,14.6882 0,8.11681 -6.57142,14.6882 -14.6882,14.6882 -8.11681,0 -14.6882,-6.57142 -14.6882,-14.6882 0,-8.11681 6.57141,-14.6882 14.6882,-14.6882 z"/>
</g>
</g>
<path style="fill:#e6e6e6;stroke:#646464;stroke-width:3.5" d="m 67.0121,60.7987 c -4.17913,-0.07124 -8.86737,4.20256 -8.86737,8.98926 v 56.6171 h 17.5519 v -56.6171 c 0,-4.83579 -4.5054,-8.91802 -8.68453,-8.98926 z "/>
<rect width="52.3629" x="40.802795" y="116.3638" height="11.6362" style="fill:#969696"/>
<g style="stroke-width:1.438" transform="translate(-82)">
<g style="fill-rule:evenodd;color:#000">
<path style="fill:#808080" d="m 105.0448,66.9062 c -10.1073,0 -17.0703,7.73319 -17.0703,17.25 V 94.623 h 8.44503 l -0.0446,-9.0293 c -0.02835,-5.74442 2.875,-10.0625 8.625,-10.0625 5.75,0 8.59741,4.47186 8.625,10.0625 l 0.0446,9.0293 h 8.40068 V 84.1562 c 0,-9.51681 -7.00774,-17.25 -17.0255,-17.25 z"/>
<path style="fill:#8c8c8c" d="m 105.0448,67.625 c -9.74073,0 -16.3516,7.36503 -16.3516,16.5312 v 9.74805 h 7.00501 l -.0421,-8.3077 c -0.01478,-2.99418 0.729465,-5.67482 2.30224,-7.63672 1.57278,-1.9619 3.98659,-3.14733 7.04151,-3.14733 3.06133,0 5.46024,1.23072 7.02185,3.2091 1.5616,1.97839 2.30751,4.65294 2.3219,7.56933 l .0421,8.3133 h 6.96569 v -9.74805 c 0,-9.16389 -6.65882,-16.5312 -16.3067,-16.5312 z "/>
<path style="fill:#999" d="m 105.0448,68.3438 c -9.37842,0 -15.6328,6.99187 -15.6328,15.8125 v 9.74769 h 5.56469 l -.0392,-8.3046 c -0.01538,-3.11539 0.756057,-5.96389 2.45948,-8.08874 1.70888,-2.13168 4.36217,-3.41687 7.60303,-3.41687 3.25395,0 5.8926,1.33585 7.58617,3.48145 1.68783,2.13829 2.46133,4.97616 2.47633,8.01294 l .0392,8.3158 h 5.53101 v -9.74769 c 0,-8.81563 -6.30598,-15.8125 -15.588,-15.8125 z "/>
<path style="fill:#a6a6a6" d="m 105.0448,69.0625 c -9.02117,0 -14.9141,6.61289 -14.9141,15.0938 v 9.60394 h 4.12439 l -.0365,-8.158 c -0.01597,-3.2362 0.783447,-6.25394 2.61669,-8.54078 1.84781,-2.30496 4.73369,-3.6864 8.16455,-3.6864 3.45066,0 6.32188,1.4375 8.15051,3.75379 1.81327,2.29723 2.61516,5.3 2.63074,8.45654 l .0365,8.1749 h 4.09631 v -9.60394 c 0,-8.47278 -5.94845,-15.0938 -14.8692,-15.0938 z "/>
<path style="fill:#b2b2b2" d="m 105.0448,69.7812 c -8.66992,0 -14.1953,6.22709 -14.1953,14.375 v 9.60394 h 2.68409 l -.0336,-8.1552 c -0.01656,-3.35676 0.811441,-6.54476 2.77393,-8.9928 1.98858,-2.48056 5.10228,-3.95593 8.72608,-3.95593 3.65021,0 6.74907,1.5357 8.71484,4.02612 1.93814,2.45542 2.76898,5.62408 2.78516,8.90015 l .0336,8.1776 h 2.66162 v -9.60394 c 0,-8.13631 -5.58535,-14.375 -14.1504,-14.375 z "/>
<path style="fill:#bfbfbf" d="m 105.0448,70.5 c -8.32576,0 -13.4766,5.83329 -13.4766,13.6562 v 9.46019 h 1.24377 l -.0309,-8.0086 c -0.01716,-3.4772 0.839903,-6.83618 2.93115,-9.44482 2.13061,-2.65774 5.46873,-4.22546 9.28761,-4.22546 3.85181,0 7.17483,1.63248 9.27917,4.29846 2.06256,2.61306 2.92283,5.94845 2.93958,9.34375 l .0309,8.0368 h 1.22693 v -9.46019 c 0,-7.80729 -5.21562,-13.6562 -13.4316,-13.6562 z "/>
</g>
<path style="fill:url(#linearGradient3656)" d="M 82,93.5 V 128 h 46 V 93.5 Z"/>
</g>
</svg>
