<svg width="128" version="1.0" xmlns="http://www.w3.org/2000/svg" height="128" xmlns:xlink="http://www.w3.org/1999/xlink">
<defs id="defs4389">
<linearGradient id="linearGradient3864">
<stop offset="0" style="stop-color:#fafafa" id="stop3866"/>
<stop offset="1" style="stop-color:#787878" id="stop3868"/>
</linearGradient>
<linearGradient gradientTransform="matrix(1.7943805,0.35636049,-0.35636049,1.7943805,29.259369,42.314843)" id="linearGradient4050" xlink:href="#linearGradient3864" y1="6.2615089" y2="9.9772863" x1="15.158204" x2="18.917904" gradientUnits="userSpaceOnUse"/>
</defs>
<g id="layer1">
<g style="stroke:none" id="g6">
<g style="fill-rule:evenodd" id="g8">
<path style="fill:#3c3c3c" id="path4199" d="m 60,8 c -12,0 -32.0663,1.72885 -36,4 v 84 c 0,8 8,20 16,20 h 40 c 8,0 16,-12 16,-20 v -84 c -3.93375,-2.27115 -24,-4 -36,-4 Z "/>
<path style="fill:#fff" id="path4197" d="m 60,9.5938 c 1.2599,0 2.28125,1.02135 2.28125,2.28125 0,1.2599 -1.02135,2.28125 -2.28125,2.28125 -1.2599,0 -2.28125,-1.02135 -2.28125,-2.28125 0,-1.2599 1.02135,-2.28125 2.28125,-2.28125 z "/>
<path style="fill:#3880d9" id="path4195" d="m 32,16 56,0 0,72 -56,0 0,-72 z"/>
<path style="fill:#fff" id="path4193" d="m 60,92.8438 c -4.4528,0 -8.0625,3.60971 -8.0625,8.0625 0,4.4528 3.6097,8.0625 8.0625,8.0625 4.45279,0 8.0625,-3.6097 8.0625,-8.0625 0,-4.45279 -3.60971,-8.0625 -8.0625,-8.0625 z  m 0,5.375 c 1.48427,0 2.6875,1.20324 2.6875,2.6875 0,1.48427 -1.20323,2.6875 -2.6875,2.6875 -1.48427,0 -2.6875,-1.20323 -2.6875,-2.6875 0,-1.48426 1.20323,-2.6875 2.6875,-2.6875 z "/>
<path style="fill:#2de1ff" id="path4191" d="m 39.0938,98.2188 c 1.48427,0 2.6875,1.20324 2.6875,2.6875 0,1.48427 -1.20323,2.6875 -2.6875,2.6875 -1.48427,0 -2.6875,-1.20323 -2.6875,-2.6875 0,-1.48426 1.20323,-2.6875 2.6875,-2.6875 z "/>
<path style="fill:#7fff2a" id="path3045" d="m 80.9062,98.2188 c 1.48426,0 2.6875,1.20324 2.6875,2.6875 0,1.48427 -1.20324,2.6875 -2.6875,2.6875 -1.48426,0 -2.6875,-1.20323 -2.6875,-2.6875 0,-1.48426 1.20324,-2.6875 2.6875,-2.6875 z "/>
</g>
<rect width="0" x="713.97491" y="132.53772" rx="0" ry="0.14139143" height="1.1553122" style="opacity:.768;fill:#fff" id="rect3736"/>
</g>
</g>
<rect width="0" x="417.16891" y="170.2505" rx="0" ry="0.14139143" height="1.1553122" style="opacity:.768;fill:#fff;stroke:none" id="rect3736-9"/>
<path style="stroke:url(#linearGradient4050);stroke-linejoin:round;stroke-linecap:round;stroke-width:5.226" id="path3246" d="m 111.4608,23.3424 2.9045,4.344 -55.1441,37.096 -8.3301,1.5659 5.4256,-5.9099 55.1441,-37.096 z "/>
</svg>
