<svg width="48" version="1.0" xmlns="http://www.w3.org/2000/svg" height="48">
<g style="stroke:none;fill-rule:evenodd" id="layer1">
<rect width="2.1849217" x="30.554766" y="-2.0980835e-08" rx="1.0925" height="9.8321476" ry="1.0924609" style="fill:#505050" id="rect7962"/>
<path style="fill:#7c7c7c" id="path4170" d="m 18.606,5.394 c -3.06861,0 -5.53058,1.71589 -5.53058,3.85775 v 27.0043 c 0,6.50951 2.70559,11.744 6.07681,11.744 h 9.69559 c 3.37122,0 6.07681,-5.23444 6.07681,-11.744 v -27.0043 c 0,-2.14186 -2.46198,-3.85775 -5.53058,-3.85775 h -10.7881 z "/>
<g style="fill:#fff" id="g8">
<path id="path4168" d="m 23.8293,7.0327 a 0.546285,0.546285 0 0,1 0.06828,0 0.546285,0.546285 0 0,1 0.648648,0.546231 v 1.16074 a 0.546285,0.546285 0 1,1 -1.09246,0 v -1.16074 a 0.546285,0.546285 0 0,1 0.375534,-0.546231 z "/>
<path id="path4166" d="m 26.0142,7.0327 a 0.546285,0.546285 0 0,1 0.06828,0 0.546285,0.546285 0 0,1 0.648649,0.546231 v 1.16074 a 0.546285,0.546285 0 1,1 -1.09246,0 v -1.16074 a 0.546285,0.546285 0 0,1 0.375534,-0.546231 z "/>
<path id="path4164" d="m 21.6785,7.0669 a 0.546285,0.546285 0 0,1 0.03414,0 0.546285,0.546285 0 0,1 0.648649,0.58037 v 1.09246 a 0.546285,0.546285 0 1,1 -1.09246,0 v -1.09246 a 0.546285,0.546285 0 0,1 0.375533,-0.546231 0.546285,0.546285 0 0,1 0.03414,-0.034139 z "/>
</g>
<path style="fill:#edb867" id="path4162" d="m 18.5718,10.8563 10.8563,0 c 1.23395,0 2.21906,0.985115 2.21906,2.21906 v 7.57895 c 0,1.23395 -0.985115,2.21906 -2.21906,2.21906 h -10.8563 c -1.23395,0 -2.21906,-0.985115 -2.21906,-2.21906 v -7.57895 c 0,-1.23395 0.985114,-2.21906 2.21906,-2.21906 z "/>
<g style="fill:#fff" id="g14">
<path id="path4160" d="m 17.2745,24.99 c 0.487802,-0.0062 1.08396,0.06828 1.84353,0.06828 h 9.76387 c 1.64175,0 3.09491,-0.548973 3.85775,1.22902 v 3.34566 c 0,4.07482 -0.435884,7.10482 -1.19488,9.25178 -0.379497,1.07348 -0.824071,1.95166 -1.43386,2.59459 -0.609784,0.64294 -1.42929,1.05832 -2.28734,1.05832 h -7.64723 c -0.86393,0 -1.67937,-0.444324 -2.28734,-1.09246 -0.607969,-0.648138 -1.05486,-1.48368 -1.43386,-2.56045 -0.757998,-2.15355 -1.19488,-5.21057 -1.19488,-9.25178 v -3.34566 c 0.66528,-1.07217 1.20122,-1.28691 2.01422,-1.2973 z "/>
<path id="path4158" d="m 24.9559,44.0398 a 0.546285,0.546285 0 0,1 0.03414,0 0.546285,0.546285 0 0,1 0.648649,0.58037 v 1.16074 a 0.546285,0.546285 0 1,1 -1.09246,0 v -1.16074 a 0.546285,0.546285 0 0,1 0.375534,-0.54623 0.546285,0.546285 0 0,1 0.03414,-0.03414 z "/>
<path id="path7885" d="m 22.771,44.1081 a 0.546285,0.546285 0 0,1 0.03414,0 0.546285,0.546285 0 0,1 0.102418,0 0.546285,0.546285 0 0,1 0.54623,0.58037 v 1.09246 a 0.546285,0.546285 0 1,1 -1.09246,0 v -1.09246 a 0.546285,0.546285 0 0,1 0.409672,-0.58037 z "/>
</g>
<path style="fill:#3c3c3c" id="path8246" d="m 16.9673,26.1508 c -0.340438,0 -0.614509,0.274071 -0.614509,0.61451 v 0.955903 c 0,0.340438 0.274071,0.614509 0.614509,0.614509 h 3.14082 c 0.340438,0 0.614509,-0.274071 0.614509,-0.614509 v -0.955903 c 0,-0.340439 -0.274071,-0.61451 -0.614509,-0.61451 h -0.990043 -2.15078 z  m 5.4623,0 c -0.340438,0 -0.614509,0.274071 -0.614509,0.61451 v 0.955903 c 0,0.340438 0.274071,0.614509 0.614509,0.614509 h 3.14082 c 0.340438,0 0.61451,-0.274071 0.61451,-0.614509 v -0.955903 c 0,-0.340439 -0.274072,-0.61451 -0.61451,-0.61451 h -3.14082 z  m 5.4623,0 c -0.340438,0 -0.61451,0.274071 -0.61451,0.61451 v 0.955903 c 0,0.340438 0.274072,0.614509 0.61451,0.614509 h 3.14082 c 0.340438,0 0.614509,-0.274071 0.614509,-0.614509 v -0.955903 c 0,-0.340439 -0.274071,-0.61451 -0.614509,-0.61451 h -2.15078 -0.990042 z  m -10.9246,3.2774 c -0.316607,0 -0.579771,0.239211 -0.614509,0.54623 -0.0026,0.02311 0,0.04445 0,0.06828 0.0033,0.415047 0.02148,0.802797 0.03414,1.19488 0.09305,0.220705 0.325041,0.375534 0.58037,0.375534 h 3.14082 c 0.340438,0 0.614509,-0.274071 0.614509,-0.614509 v -0.955904 c 0,-0.340438 -0.274071,-0.614509 -0.614509,-0.614509 h -3.14082 z  m 5.4623,0 c -0.340438,0 -0.614509,0.274071 -0.614509,0.614509 v 0.955904 c 0,0.340438 0.274071,0.614509 0.614509,0.614509 h 3.14082 c 0.340438,0 0.61451,-0.274071 0.61451,-0.614509 v -0.955904 c 0,-0.340438 -0.274072,-0.614509 -0.61451,-0.614509 h -3.14082 z  m 5.4623,0 c -0.340438,0 -0.61451,0.274071 -0.61451,0.614509 v 0.955904 c 0,0.340438 0.274072,0.614509 0.61451,0.614509 h 3.14082 c 0.255329,0 0.487329,-0.154829 0.58037,-0.375534 0.01266,-0.394748 0.03084,-0.776437 0.03414,-1.19488 0.000188,-0.02389 -0.000157,-0.04431 0,-0.06828 -0.03474,-0.307019 -0.297902,-0.54623 -0.614509,-0.54623 h -3.14082 z  m -10.9246,3.2774 c -0.196407,0 -0.365609,0.09642 -0.477952,0.238975 0.04783,0.657688 0.09507,1.29718 0.170697,1.87767 0.08986,0.05132 0.195958,0.06828 0.307255,0.06828 h 3.14082 c 0.340438,0 0.614509,-0.274071 0.614509,-0.614509 v -0.955903 c 0,-0.340438 -0.274071,-0.614509 -0.614509,-0.614509 h -3.14082 z  m 5.4623,0 c -0.340438,0 -0.614509,0.274071 -0.614509,0.614509 v 0.955903 c 0,0.340438 0.274071,0.614509 0.614509,0.614509 h 3.14082 c 0.340438,0 0.61451,-0.274071 0.61451,-0.614509 v -0.955903 c 0,-0.340438 -0.274072,-0.614509 -0.61451,-0.614509 h -3.14082 z  m 5.4623,0 c -0.340438,0 -0.61451,0.274071 -0.61451,0.614509 v 0.955903 c 0,0.340438 0.274072,0.614509 0.61451,0.614509 h 3.14082 c 0.111296,0 0.217402,-0.01695 0.307254,-0.06828 0.07411,-0.575018 0.123651,-1.22578 0.170697,-1.87767 -0.112343,-0.142559 -0.281544,-0.238975 -0.477951,-0.238975 h -3.14082 z  m -11.027,3.2774 c 0.146891,0.818109 0.309409,1.55298 0.512091,2.18492 h 2.73115 c 0.340438,0 0.614509,-0.274071 0.614509,-0.614509 v -0.955903 c 0,-0.340439 -0.274071,-0.61451 -0.614509,-0.61451 h -3.14082 c -0.03574,0 -0.06838,-0.0058 -0.102418,0 z  m 5.5647,0 c -0.340438,0 -0.614509,0.274071 -0.614509,0.61451 v 0.955903 c 0,0.340438 0.274071,0.614509 0.614509,0.614509 h 3.14082 c 0.340438,0 0.61451,-0.274071 0.61451,-0.614509 v -0.955903 c 0,-0.340439 -0.274072,-0.61451 -0.61451,-0.61451 h -3.14082 z  m 5.4623,0 c -0.340438,0 -0.61451,0.274071 -0.61451,0.61451 v 0.955903 c 0,0.340438 0.274072,0.614509 0.61451,0.614509 h 2.73115 c 0.200767,-0.627868 0.366487,-1.37067 0.512091,-2.18492 -0.03404,-0.0058 -0.06667,0 -0.102418,0 h -3.14082 z  m -9.9687,3.2774 c -0.05155,0 -0.08923,0.0135 -0.136557,0.03414 0.653424,1.43254 1.48268,2.15078 2.38976,2.15078 h 0.06828 c 0.255328,0 0.477951,-0.274071 0.477951,-0.61451 v -0.955903 c 0,-0.340438 -0.222624,-0.614509 -0.477951,-0.614509 h -2.32148 z  m 4.5064,0 c -0.340438,0 -0.614509,0.274071 -0.614509,0.614509 v 0.955903 c 0,0.340439 0.274071,0.61451 0.614509,0.61451 h 3.14082 c 0.340438,0 0.61451,-0.274071 0.61451,-0.61451 v -0.955903 c 0,-0.340438 -0.274072,-0.614509 -0.61451,-0.614509 h -3.14082 z  m 5.3257,0 c -0.255329,0 -0.477952,0.274071 -0.477952,0.614509 v 0.955903 c 0,0.340439 0.222624,0.61451 0.477952,0.61451 h 0.06828 c 0.91249,0 1.73456,-0.710021 2.38976,-2.15078 -0.04732,-0.02064 -0.085,-0.03414 -0.136558,-0.03414 h -2.32148 z "/>
</g>
</svg>
