<svg width="48" version="1.0" xmlns="http://www.w3.org/2000/svg" height="48">
<path style="fill:#ecf0f1;stroke:#899497" id="path4152" d="m 4.5625,3.1875 c -0.826643,0 -1.53125,0.814347 -1.53125,1.8125 v 38.125 c 0,0.99816 0.704607,1.8125 1.53125,1.8125 h 38.8438 c 0.826641,0 1.5,-0.81434 1.5,-1.8125 0,-12.7083 0,-38.125 0,-38.125 0,-0.998153 -0.673359,-1.8125 -1.5,-1.8125 z "/>
<path style="fill:#2f79c5" id="path4187" d="m 6.2188,5.9062 0,25.3867 20.75,0 0,-25.3867 z"/>
<g style="fill:#fff" id="g13" transform="translate(0,-80)">
<path id="path4150" d="m 14.1562,103.5625 c 0.163824,0.70658 0.723592,1.52285 2.625,1.46875 1.90141,-0.0541 2.2082,-0.76142 2.65625,-1.46875 0.237201,0.0397 0.3812,0.25999 0.375,0.40625 1.3149,0.53576 2.93253,1.06164 4.34375,1.78125 0.523825,0.26711 1.09437,1.06917 1.25,1.5 0.474663,1.31399 1,3.15625 1,3.15625 l -.2812,.3438 c -0.20333,0.11792 -0.412388,0.24258 -0.625,0.34375 h -17.4062 c -0.212612,-0.10124 -0.42167,-0.22583 -0.625,-0.34375 l -.25,-.3438 c 0,0 0.494088,-1.84226 0.96875,-3.15625 0.155632,-0.43083 0.757425,-1.23289 1.28125,-1.5 1.41121,-0.71961 2.9976,-1.24549 4.3125,-1.78125 -0.0063,-0.14627 0.137799,-0.36655 0.375,-0.40625 z "/>
<path id="path4148" d="m 16.625,90.0312 c -1.44359,0.03875 -3.13799,1.12362 -3.71875,2.4375 -0.464558,1.05098 -0.485636,2.25859 -0.3125,3.625 -0.04116,-0.334759 -0.56926,-0.296872 -0.53125,0.09375 0.365442,1.74566 0.706503,2.08532 1.03125,2.15625 0.421052,1.22862 1.08217,2.37032 1.5625,3.03125 0.0034,0.004 -0.0033,0.0263 0,0.0312 0.08408,0.11491 0.14854,0.19875 0.21875,0.28125 0.0701,0.0824 0.17581,0.15895 0.25,0.21875 0.150623,0.12296 0.279981,0.1993 0.4375,0.25 0.07746,0.0249 0.17335,0.0498 0.25,0.0625 0.148376,0.0232 0.301648,0.0343 0.4375,0.0312 0.134478,-0.003 0.265153,0.003 0.375,0 0.02335,0 0.06866,-0.00078 0.09375,0 0.224515,0.007 0.510745,0.0165 0.8125,-0.0312 0.156472,-0.0259 0.312417,-0.0718 0.46875,-0.15625 0.153296,-0.0813 0.328579,-0.17902 0.46875,-0.34375 0.07393,-0.0869 0.13624,-0.22106 0.21875,-0.34375 0.525741,-0.72342 1.28064,-2.01647 1.6875,-3.375 0.261035,-0.182662 0.519283,-0.693099 0.8125,-2.09375 0.02817,-0.28965 -0.248063,-0.386419 -0.40625,-0.28125 0.107676,-1.182 0.03742,-2.22326 -0.375,-3.15625 -0.580762,-1.31388 -2.24391,-2.39876 -3.6875,-2.4375 h -0.09375 z "/>
</g>
<path style="fill:#dca100" id="path4146" d="m 36,12.0938 c -2.66737,0 -4.84375,1.92712 -4.84375,4.3125 v 3.03125 h -1.21875 v 8.5625 h 12.0625 v -8.5625 h -1.1875 v -3.03125 c 0.00023,-2.38538 -2.14536,-4.3125 -4.8125,-4.3125 z  m 0,1.625 c 1.68433,0 3.03125,1.20401 3.03125,2.6875 v 3.03125 h -6.125 v -3.03125 c 0,-1.48349 1.40966,-2.6875 3.09375,-2.6875 z "/>
<path style="fill:#232323" id="path4145" d="m 5.1562,36.5 37.8125,0 c 0.182465,0 0.34375,0.4792 0.34375,1.0625 0,0.58334 -0.161285,1.0625 -0.34375,1.0625 h -37.8125 c -0.182463,0 -0.34375,-0.47916 -0.34375,-1.0625 0,-0.5833 0.161287,-1.0625 0.34375,-1.0625 z "/>
<path style="fill:#787878" id="path4252" d="m 5.1562,36 37.8125,0 c 0.182465,0 0.34375,0.4792 0.34375,1.0625 0,0.58334 -0.161285,1.0625 -0.34375,1.0625 l -37.8125,0 C 4.973737,38.125 4.81245,37.64584 4.81245,37.0625 4.81245,36.4792 4.973737,36 5.1562,36 Z"/>
</svg>
