<svg xmlns:xlink="http://www.w3.org/1999/xlink" version="1.0" width="128" xmlns="http://www.w3.org/2000/svg" height="128">
<defs id="defs4389"/>
<g id="layer1">
<g style="stroke:none">
<g style="fill-rule:evenodd">
<path style="fill:#3c3c3c" id="path4199" d="m 60,8 c -12,0 -32.0663,1.72885 -36,4 v 84 c 0,8 8,20 16,20 h 40 c 8,0 16,-12 16,-20 v -84 c -3.93375,-2.27115 -24,-4 -36,-4 Z "/>
<path style="fill:#fff" id="path4197" d="m 60,9.5938 c 1.2599,0 2.28125,1.02135 2.28125,2.28125 0,1.2599 -1.02135,2.28125 -2.28125,2.28125 -1.2599,0 -2.28125,-1.02135 -2.28125,-2.28125 0,-1.2599 1.02135,-2.28125 2.28125,-2.28125 z "/>
<path style="fill:#3880d9" id="path4195" d="m 32,16 56,0 0,72 -56,0 0,-72 z"/>
<path style="fill:#fff" id="path4193" d="m 60,92.8438 c -4.4528,0 -8.0625,3.60971 -8.0625,8.0625 0,4.4528 3.6097,8.0625 8.0625,8.0625 4.45279,0 8.0625,-3.6097 8.0625,-8.0625 0,-4.45279 -3.60971,-8.0625 -8.0625,-8.0625 z  m 0,5.375 c 1.48427,0 2.6875,1.20324 2.6875,2.6875 0,1.48427 -1.20323,2.6875 -2.6875,2.6875 -1.48427,0 -2.6875,-1.20323 -2.6875,-2.6875 0,-1.48426 1.20323,-2.6875 2.6875,-2.6875 z "/>
<path style="fill:#2de1ff" id="path4191" d="m 39.0938,98.2188 c 1.48427,0 2.6875,1.20324 2.6875,2.6875 0,1.48427 -1.20323,2.6875 -2.6875,2.6875 -1.48427,0 -2.6875,-1.20323 -2.6875,-2.6875 0,-1.48426 1.20323,-2.6875 2.6875,-2.6875 z "/>
<path style="fill:#7fff2a" id="path3045" d="m 80.9062,98.2188 c 1.48426,0 2.6875,1.20324 2.6875,2.6875 0,1.48427 -1.20324,2.6875 -2.6875,2.6875 -1.48426,0 -2.6875,-1.20323 -2.6875,-2.6875 0,-1.48426 1.20324,-2.6875 2.6875,-2.6875 z "/>
</g>
<rect width="0" x="713.97491" y="132.53772" rx="0" ry="0.14139143" height="1.1553122" style="opacity:.768;fill:#fff" id="rect3736"/>
</g>
<g style="fill:#fff">
<g style="opacity:.362" id="g7458" transform="matrix(0.01717561,0,0,0.01717561,716.99114,70.029174)"/>
<g style="opacity:.362" id="g7486" transform="matrix(0.01717561,0,0,0.01717561,716.99114,71.815914)"/>
<g style="opacity:.362" id="g7518" transform="matrix(0.01717561,0,0,0.01717561,716.99114,73.602654)"/>
</g>
</g>
</svg>
