<svg width="128" version="1.0" xmlns="http://www.w3.org/2000/svg" height="128" xmlns:xlink="http://www.w3.org/1999/xlink">
<defs id="defs12259">
<clipPath id="clipPath12229" clipPathUnits="userSpaceOnUse">
<path style="fill:#ef0091;stroke:none;stroke-width:2" id="path12231" d="m 51.713,57.441 c 2.149,-2.539 14.517,-16.95 19.25,-22.403 4.734,-5.453 32.571,-34.905 35.828,-35.033 0,-2.55785e-15 0.33,-0.078 0.789,0.364 0.61,0.532 0.375,1.025 0.375,1.025 -3.01,7.059 -28.514,36.227 -31.36,39.508 -2.842,3.28 -19.101,19.844 -20.454,21.569 -2.678,2.753 -9.077,10.711 -9.077,10.711 l -4.801,-5.679 c -0.001,0 6.431,-6.585 9.45,-10.062 z "/>
</clipPath>
<clipPath id="clipPath3519" clipPathUnits="userSpaceOnUse">
<path style="stroke:none;stroke-linecap:square;stroke-dashoffset:.361" id="path3521" d="m 49.053,377.9185 c -0.710706,0.07273 -1.33956,0.49196 -1.68004,1.12002 l -14.2803,26.3829 c -0.171895,0.32432 -0.254644,0.67287 -0.248894,1.02669 0.000172,0.01057 -0.000328,0.02054 0,0.03111 v 2.98673 0.31112 h 0.062223 c 0.045335,0.25962 0.109053,0.51286 0.248895,0.74669 0.388063,0.64889 1.07953,1.05365 1.8356,1.0578 h 220.863 c 0.76537,0.00175 1.4767,-0.39926 1.86671,-1.0578 0.13743,-0.23204 0.20572,-0.48851 0.2489,-0.74669 0.04872,-0.29136 0.06222,-0.87113 0.06222,-0.87113 v -2.08449 c 0,-0.49198 -0.03547,-0.98746 -0.28001,-1.43115 l -14.8403,-26.3828 c -0.38858,-0.68003 -1.11464,-1.09662 -1.89783,-1.08891 h -191.742 c -0.072548,-0.00367 -0.145236,-0.00367 -0.217783,0 z "/>
</clipPath>
<linearGradient gradientTransform="matrix(2.0820966,0,0,2.0820966,-48.442889,-16.430797)" xlink:href="#linearGradient4407" id="linearGradient4433" y1="8.5129795" x1="30.834169" y2="25.939911" x2="35.053295" gradientUnits="userSpaceOnUse"/>
<linearGradient id="linearGradient4407">
<stop offset="0" style="stop-color:#e6e6e6" id="stop4409"/>
<stop offset="0.56323987" style="stop-color:#aaa" id="stop4571"/>
<stop offset="0.76957035" style="stop-color:#646464" id="stop4573"/>
<stop offset="1" style="stop-color:#646464" id="stop4411"/>
</linearGradient>
<linearGradient gradientTransform="matrix(1.0529626,0,0,1.0529626,-1158.5852,10.919994)" xlink:href="#linearGradient5073" id="linearGradient5079" y1="26.493605" x1="1108.8569" y2="98.65657" x2="1108.8119" gradientUnits="userSpaceOnUse"/>
<linearGradient id="linearGradient5073">
<stop offset="0" style="stop-color:#acbfd5" id="stop5075"/>
<stop offset="0.84661525" style="stop-color:#acbfd5" id="stop5081"/>
<stop offset="0.85787153" style="stop-color:#668ab2" id="stop5083"/>
<stop offset="1" style="stop-color:#668ab2" id="stop5077"/>
</linearGradient>
</defs>
<path style="fill:none;stroke:url(#linearGradient4433);stroke-width:2.86" id="path3590" d="m 32.3562,44.3967 c 0,0 -9.19474,-1.96506 -7.60316,-10.2401 1.9367,-10.0694 21.1123,-0.362827 21.1123,-7.45307 0,-11.388 -43.2974,0.332264 -44.4008,-7.45307 -0.840897,-5.93207 10.9202,-4.95506 16.7592,-7.86715 10.2373,-5.10564 -2.25056,-4.61344 -2.94842,-11.2333"/>
<path style="fill:url(#linearGradient5079)" id="path35" d="m 118.9946,112.7223 c 0.0895,1.41471 -0.94767,2.16878 -2.30567,2.16769 h -105.386 c -1.35706,-0.001 -2.39044,-0.94748 -2.29735,-2.36109 4.64441,-70.0335 0.220596,-0.98368 4.69832,-71.1098 0.09582,-1.4636 1.3062,-2.60448 2.68864,-2.60231 l 95.4562,.1195 c 1.38138,0.0022 2.58714,1.20173 2.67811,2.66533 4.31694,69.8373 0.13488,1.05603 4.46762,71.1207 z "/>
<ellipse cx="28.485218" cy="45.410141" rx="5.0933824" ry="3.2266009" style="fill:#fff;stroke:#fff;stroke-width:1.58" id="ellipse132"/>
<path style="fill:#3e556f" id="path141" d="m 25.4951,51.1199 c -1.4713,0 -2.73307,1.22672 -2.81246,2.73595 l -2.0075,38.2773 c -0.04107,0.770371 0.228494,1.53096 0.739391,2.08511 0.508687,0.550886 1.19838,0.855121 1.94187,0.855121 h 81.2832 c 0.74256,0 1.43215,-0.302064 1.93883,-0.851861 0.51079,-0.553059 0.78161,-1.31256 0.7456,-2.08511 0,-0.0033 -2.01063,-38.2795 -2.01063,-38.2795 -0.0758,-1.50705 -1.33695,-2.73595 -2.81236,-2.73595 h -77.006 v -0.001 z "/>
</svg>
