<svg width="128" version="1.0" xmlns="http://www.w3.org/2000/svg" height="128" xmlns:xlink="http://www.w3.org/1999/xlink">
<defs id="defs12259">
<linearGradient id="linearGradient5073">
<stop offset="0" style="stop-color:#acbfd5" id="stop5075"/>
<stop offset="0.84661525" style="stop-color:#acbfd5" id="stop5081"/>
<stop offset="0.85787153" style="stop-color:#668ab2" id="stop5083"/>
<stop offset="1" style="stop-color:#668ab2" id="stop5077"/>
</linearGradient>
<linearGradient gradientTransform="matrix(1.0529626,0,0,1.0529626,-1158.5852,10.92)" xlink:href="#linearGradient5073" id="linearGradient5079" y1="26.493605" x1="1108.8569" y2="98.65657" x2="1108.8119" gradientUnits="userSpaceOnUse"/>
<linearGradient gradientTransform="matrix(2.0820966,0,0,2.0820966,-48.442889,-16.430797)" xlink:href="#linearGradient4407" id="linearGradient4433" y1="8.5129795" x1="30.834169" y2="25.939911" x2="35.053295" gradientUnits="userSpaceOnUse"/>
<linearGradient id="linearGradient4407">
<stop offset="0" style="stop-color:#e6e6e6" id="stop4409"/>
<stop offset="0.56323987" style="stop-color:#aaa" id="stop4571"/>
<stop offset="0.76957035" style="stop-color:#646464" id="stop4573"/>
<stop offset="1" style="stop-color:#646464" id="stop4411"/>
</linearGradient>
</defs>
<path style="fill:none;stroke:url(#linearGradient4433);stroke-width:2.86" id="path3590" d="m 32.3562,44.3967 c 0,0 -9.19474,-1.96506 -7.60316,-10.2401 1.9367,-10.0694 21.1123,-0.362827 21.1123,-7.45307 0,-11.388 -43.2974,0.332264 -44.4008,-7.45307 -0.840897,-5.93207 10.9202,-4.95506 16.7592,-7.86715 10.2373,-5.10564 -2.25056,-4.61344 -2.94842,-11.2333"/>
<path style="fill:url(#linearGradient5079)" id="path35" d="m 118.9946,112.7223 c 0.0895,1.41471 -0.94767,2.16878 -2.30567,2.16769 h -105.386 c -1.35706,-0.001 -2.39044,-0.94748 -2.29735,-2.36109 l 4.6983,-71.1098 c 0.09582,-1.4636 1.3062,-2.60448 2.68864,-2.60231 l 95.4562,.1195 c 1.38138,0.0022 2.58714,1.20173 2.67811,2.66533 z "/>
<ellipse cx="28.298342" cy="43.813782" rx="5.9013252" ry="3.8898544" style="fill:#8c8c8c" id="ellipse841"/>
<ellipse cx="28.306767" cy="44.366962" rx="5.5928969" ry="3.5430377" style="fill:#fff" id="ellipse132"/>
<path style="fill:#2f4155" id="path837" d="m 25.4951,49.7195 c -1.4713,0 -2.73307,1.22672 -2.81246,2.73595 l -2.0075,38.2773 c -0.04107,0.770371 0.228494,1.53096 0.739391,2.08511 0.508687,0.550886 1.19838,0.855121 1.94187,0.855121 h 81.2832 c 0.74256,0 1.43215,-0.302064 1.93883,-0.851861 0.51079,-0.553059 0.78161,-1.31256 0.7456,-2.08511 0,-0.0033 -2.01063,-38.2795 -2.01063,-38.2795 -0.0758,-1.50705 -1.33695,-2.73595 -2.81236,-2.73595 h -77.006 v -0.001 z "/>
<path style="fill:#3e556f" id="path141" d="m 25.4951,51.1199 c -1.4713,0 -2.73307,1.22672 -2.81246,2.73595 l -2.0075,38.2773 c -0.04107,0.770371 0.228494,1.53096 0.739391,2.08511 0.508687,0.550886 1.19838,0.855121 1.94187,0.855121 h 81.2832 c 0.74256,0 1.43215,-0.302064 1.93883,-0.851861 0.51079,-0.553059 0.78161,-1.31256 0.7456,-2.08511 0,-0.0033 -2.01063,-38.2795 -2.01063,-38.2795 -0.0758,-1.50705 -1.33695,-2.73595 -2.81236,-2.73595 h -77.006 v -0.001 z "/>
</svg>
