<svg width="48" version="1.1" xmlns="http://www.w3.org/2000/svg" height="48" xmlns:xlink="http://www.w3.org/1999/xlink">
<defs>
<linearGradient id="linearGradient843">
<stop offset="0" style="stop-color:#d2c096"/>
<stop offset="1" style="stop-color:#8c7b52"/>
</linearGradient>
<linearGradient id="linearGradient4148">
<stop offset="0" style="stop-color:#c6b07a"/>
<stop offset="1" style="stop-color:#504428"/>
</linearGradient>
<linearGradient id="linearGradient860">
<stop offset="0" style="stop-color:#6e5e30"/>
<stop offset="1" style="stop-color:#d6c59f"/>
</linearGradient>
<linearGradient gradientTransform="translate(0,-0.5)" xlink:href="#linearGradient4148" id="linearGradient4170" y1="6.270822" x1="23.926098" y2="42.009113" x2="24.073902" gradientUnits="userSpaceOnUse"/>
<linearGradient gradientTransform="translate(0,-0.5)" xlink:href="#linearGradient4148" id="linearGradient4162" y1="6.270822" x1="23.926098" y2="42.009113" x2="24.073902" gradientUnits="userSpaceOnUse"/>
<linearGradient xlink:href="#linearGradient843" id="linearGradient845" y1="2.4430935" x1="1.0071564" y2="25.953119" x2="1.132812" gradientUnits="userSpaceOnUse"/>
<linearGradient xlink:href="#linearGradient860" id="linearGradient862" y1="42" x1="21.5" y2="4.9" x2="21.5" gradientUnits="userSpaceOnUse"/>
<linearGradient gradientTransform="translate(0,-0.5)" xlink:href="#linearGradient4148" id="linearGradient4154" y1="-2.7803898" x1="23.95462" y2="56.578297" x2="24.122683" gradientUnits="userSpaceOnUse"/>
</defs>
<g style="fill-rule:evenodd">
<path style="opacity:.6;color:#000" d="m 24,1.5 c -12.673,0 -23,10.327 -23,23 0,12.673 10.327,23 23,23 12.673,0 23,-10.327 23,-23 C 47,11.827 36.673,1.5 24,1.5 Z M 22.0996,6.5996 V 22 H 6.1914 C 7.31881,13.8416 13.85589,7.4575 22.0996,6.5996 Z m 5,0.1836 C 34.77101,8.10703 40.7367,14.24316 41.8086,22 H 27.0996 Z M 6.1914,27 H 22.0996 V 42.4004 C 13.85589,41.542489 7.3188,35.15841 6.1914,27 Z m 20.9082,0 h 14.709 c -1.07191,7.75683 -7.03757,13.893 -14.709,15.2168 z"/>
<path style="fill:url(#linearGradient4162)" d="m 21.5,3.5 h 5 v 40 h -5 z"/>
<path style="opacity:.7;fill:url(#linearGradient862)" d="M 21.5,4.9 H 23 V 42 h -1.5 z"/>
<path style="fill:url(#linearGradient4170)" d="m 4,26 v -5 h 40 v 5 z"/>
<path style="opacity:.7;fill:#c6b07a" d="M 4,22.454 V 21 h 40 v 1.4542 z"/>
<path style="fill:url(#linearGradient4154)" d="m 24,0.5 c -12.673,0 -23,10.327 -23,23 0,12.673 10.327,23 23,23 12.673,0 23,-10.327 23,-23 0,-12.673 -10.327,-23 -23,-23 z m 0,5 c 9.97084,0 18,8.02915 18,18 0,9.97084 -8.02916,18 -18,18 -9.97085,0 -18,-8.02916 -18,-18 0,-9.97084 8.02916,-18 18,-18 z"/>
<path style="fill:url(#linearGradient845)" d="m 24,.5 c -12.673,0 -23,10.327 -23,23 0,0.828445 0.046781,1.64696 0.132812,2.45312 -0.00544,-0.206383 -0.013624,-0.41141 -0.015625,-0.619141 -0.139967,-14.5276 10.2334,-23.941 22.9414,-23.941 12.4,0 22.9983,9.53147 22.918,23.023 0.01201,-0.304146 0.02344,-0.609003 0.02344,-0.916016 0,-12.673 -10.327,-23 -23,-23 z "/>
<path style="fill:url(#linearGradient4162)" d="m 23,21 h 3.5 v 1.454 H 23 Z"/>
<path style="fill:#a39268" d="M 21.5,21 H 23 v 1.454 z"/>
</g>
</svg>
