<svg width="48" version="1.0" xmlns="http://www.w3.org/2000/svg" height="48" xmlns:xlink="http://www.w3.org/1999/xlink">
<defs id="defs4">
<linearGradient id="linearGradient4183">
<stop offset="0" style="stop-color:#2f6004" id="stop4185"/>
<stop offset="1" style="stop-color:#4d9a06" id="stop4187"/>
</linearGradient>
<linearGradient xlink:href="#linearGradient4183" id="linearGradient4189" y1="7.0124922" x1="8.7636805" y2="15.652658" x2="8.8049879" gradientUnits="userSpaceOnUse"/>
</defs>
<g style="stroke:none;color:#000" id="g9">
<path style="opacity:.55" id="path4191" d="m 9.6018,3.6002 c -1.51867,0 -3.24164,1.72297 -3.24164,3.24164 v 6.62717 5.81032 24.6787 c 0,1.51867 1.53618,3.74177 3.54184,3.74177 h 28.896 c 1.79914,0 3.84192,-1.07577 3.84192,-3.7418 v -24.6786 -5.81032 -6.62717 c 0,-1.51867 -1.72297,-3.24164 -3.24164,-3.24164 z "/>
<path style="fill:#bebebe" id="path4181" d="M 9.1017,3.5 C 7.58303,3.5 6.36042,4.72261 6.36042,6.24128 l 0,6.22747 0,5.81032 0,25.4793 c 0,1.51867 1.22261,2.74128 2.74128,2.74128 l 29.7965,0 c 1.51867,0 2.74128,-1.22261 2.74128,-2.74128 l 0,-25.4793 0,-5.81032 0,-6.22747 C 41.63948,4.72261 40.41687,3.5 38.8982,3.5 Z"/>
<path style="opacity:.6;fill:#c0ffc8" id="path4196" d="m 10.176,7.1159 28.3479,0 c 0.77387,0 1.53213,0.583686 1.53213,1.33214 v 6.64693 c 0,0.773869 -0.783686,1.502 -1.53213,1.502 h -28.3479 c -0.773869,0 -1.33214,-0.702708 -1.33214,-1.502 v -6.64693 c 0,-0.621327 0.710805,-1.33214 1.33214,-1.33214 z "/>
<path style="fill:url(#linearGradient4189)" id="path4179" d="m 9.8765,7.016 28.2471,0 c 0.621328,0 1.13227,0.51094 1.13227,1.13227 l 0,6.34666 c 0,0.621327 -0.51094,1.10247 -1.13227,1.10247 l -28.2471,0 c -0.621327,0 -1.13227,-0.481144 -1.13227,-1.10247 l 0,-6.34666 C 8.74423,7.526943 9.25517,7.016 9.8765,7.016 Z"/>
<path style="opacity:.5;fill:#a4efff" id="path4201" d="m 8.9499,20.1633 2.0475,0 c 0.536931,0 0.983285,0.646419 0.983285,1.18335 v 2.04736 c 0,0.536931 -0.446354,0.983285 -0.983285,0.983285 h -2.04749 c -0.53693,0 -1.18287,-0.446354 -1.18287,-0.983285 v -2.04736 c 0,-0.536931 0.645942,-1.18335 1.18287,-1.18335 z "/>
<path style="fill:#00687e" id="path4177" d="m 9.2507,20.6628 1.8474,0 c 0.536931,0 0.983285,0.446354 0.983285,0.983285 v 1.84738 c 0,0.536931 -0.446354,0.983285 -0.983285,0.983285 h -1.84738 c -0.53693,0 -0.983285,-0.446354 -0.983285,-0.983285 v -1.84738 c 0,-0.536931 0.446354,-0.983285 0.983285,-0.983285 z "/>
<g style="opacity:.4" id="g4209" transform="translate(0.39956,0.40045)">
<path id="path4211" d="m 15.0015,20.6628 2.7413,0 c 0.552994,0 1.01308,0.460087 1.01308,1.01308 v 1.78779 c 0,0.552993 -0.460088,1.01308 -1.01308,1.01308 h -2.74128 c -0.552993,0 -1.01308,-0.460088 -1.01308,-1.01308 v -1.78779 c 0,-0.552994 0.460088,-1.01308 1.01308,-1.01308 z "/>
<path id="path4213" d="m 21.6461,20.6628 2.7711,0 c 0.552994,0 1.01308,0.460087 1.01308,1.01308 v 1.78779 c 0,0.552993 -0.460087,1.01308 -1.01308,1.01308 h -2.77108 c -0.552993,0 -0.983284,-0.460088 -0.983284,-1.01308 v -1.78779 c 0,-0.552994 0.430291,-1.01308 0.983284,-1.01308 z "/>
<path id="path4215" d="m 28.3503,20.6628 2.7413,0 c 0.552993,0 1.01308,0.460087 1.01308,1.01308 v 1.78779 c 0,0.552993 -0.460088,1.01308 -1.01308,1.01308 h -2.74128 c -0.552994,0 -1.01308,-0.460088 -1.01308,-1.01308 v -1.78779 c 0,-0.552994 0.460088,-1.01308 1.01308,-1.01308 z "/>
</g>
<g style="fill:#fff" id="g14">
<path id="path4175" d="m 15.0015,20.6628 2.7413,0 c 0.552994,0 1.01308,0.460087 1.01308,1.01308 v 1.78779 c 0,0.552993 -0.460088,1.01308 -1.01308,1.01308 h -2.74128 c -0.552993,0 -1.01308,-0.460088 -1.01308,-1.01308 v -1.78779 c 0,-0.552994 0.460088,-1.01308 1.01308,-1.01308 z "/>
<path id="path4173" d="m 21.6461,20.6628 2.7711,0 c 0.552994,0 1.01308,0.460087 1.01308,1.01308 v 1.78779 c 0,0.552993 -0.460087,1.01308 -1.01308,1.01308 h -2.77108 c -0.552993,0 -0.983284,-0.460088 -0.983284,-1.01308 v -1.78779 c 0,-0.552994 0.430291,-1.01308 0.983284,-1.01308 z "/>
<path id="path4171" d="m 28.3503,20.6628 2.7413,0 c 0.552993,0 1.01308,0.460087 1.01308,1.01308 v 1.78779 c 0,0.552993 -0.460088,1.01308 -1.01308,1.01308 h -2.74128 c -0.552994,0 -1.01308,-0.460088 -1.01308,-1.01308 v -1.78779 c 0,-0.552994 0.460088,-1.01308 1.01308,-1.01308 z "/>
</g>
<path style="opacity:.5;fill:#ffe9c6" id="path4195" d="m 34.726,20.1635 3.8935,0 c 0.552993,0 1.01308,0.660547 1.01308,1.21354 v 1.987 c 0,0.552993 -0.460088,1.01308 -1.01308,1.01308 h -3.89344 c -0.552994,0 -1.21355,-0.460088 -1.21355,-1.01308 v -1.987 c 0,-0.552994 0.660562,-1.21354 1.21355,-1.21354 z "/>
<path style="fill:#c07600" id="path4169" d="m 35.0247,20.6628 3.6948,0 c 0.552993,0 1.01308,0.460087 1.01308,1.01308 v 1.78779 c 0,0.552993 -0.460088,1.01308 -1.01308,1.01308 h -3.69477 c -0.552994,0 -1.01308,-0.460088 -1.01308,-1.01308 v -1.78779 c 0,-0.552994 0.460087,-1.01308 1.01308,-1.01308 z "/>
<path style="opacity:.5;fill:#a4efff" id="path4203" d="m 8.9499,25.8842 2.0475,0 c 0.536931,0 0.983285,0.64642 0.983285,1.18335 v 2.04736 c 0,0.53693 -0.446354,0.983284 -0.983285,0.983284 h -2.04749 c -0.53693,-3.55271e-15 -1.18287,-0.446354 -1.18287,-0.983284 v -2.04736 c 0,-0.53693 0.645942,-1.18335 1.18287,-1.18335 z "/>
<path style="fill:#00687e" id="path4167" d="m 9.2507,26.3837 1.8474,0 c 0.536931,0 0.983285,0.446355 0.983285,0.983285 v 1.84738 c 0,0.53693 -0.446354,0.983284 -0.983285,0.983284 h -1.84738 c -0.53693,0 -0.983285,-0.446354 -0.983285,-0.983284 v -1.84738 c 0,-0.53693 0.446354,-0.983285 0.983285,-0.983285 z "/>
<g style="opacity:.4" id="g4217" transform="translate(0.39956,0.40045)">
<path id="path4219" d="m 14.9717,26.3837 2.7711,0 c 0.552994,0 1.01308,0.460088 1.01308,1.01308 v 1.78779 c 0,0.552994 -0.460088,1.01308 -1.01308,1.01308 h -2.77107 c -0.552994,0 -0.983285,-0.460087 -0.983285,-1.01308 v -1.78779 c 0,-0.552993 0.430291,-1.01308 0.983285,-1.01308 z "/>
<path id="path4221" d="m 21.6461,26.3837 2.7711,0 c 0.552994,0 1.01308,0.460088 1.01308,1.01308 v 1.78779 c 0,0.552994 -0.460087,1.01308 -1.01308,1.01308 h -2.77108 c -0.552993,0 -0.983284,-0.460087 -0.983284,-1.01308 v -1.78779 c 0,-0.552993 0.430291,-1.01308 0.983284,-1.01308 z "/>
<path id="path4223" d="m 28.3503,26.3837 2.7413,0 c 0.552993,0 1.01308,0.460088 1.01308,1.01308 v 1.78779 c 0,0.552994 -0.460088,1.01308 -1.01308,1.01308 h -2.74128 c -0.552994,0 -1.01308,-0.460087 -1.01308,-1.01308 v -1.78779 c 0,-0.552993 0.460088,-1.01308 1.01308,-1.01308 z "/>
</g>
<g style="fill:#fff" id="g21">
<path id="path4165" d="m 14.9717,26.3837 2.7711,0 c 0.552994,0 1.01308,0.460088 1.01308,1.01308 v 1.78779 c 0,0.552994 -0.460088,1.01308 -1.01308,1.01308 h -2.77107 c -0.552994,0 -0.983285,-0.460087 -0.983285,-1.01308 v -1.78779 c 0,-0.552993 0.430291,-1.01308 0.983285,-1.01308 z "/>
<path id="path4163" d="m 21.6461,26.3837 2.7711,0 c 0.552994,0 1.01308,0.460088 1.01308,1.01308 v 1.78779 c 0,0.552994 -0.460087,1.01308 -1.01308,1.01308 h -2.77108 c -0.552993,0 -0.983284,-0.460087 -0.983284,-1.01308 v -1.78779 c 0,-0.552993 0.430291,-1.01308 0.983284,-1.01308 z "/>
<path id="path4161" d="m 28.3503,26.3837 2.7413,0 c 0.552993,0 1.01308,0.460088 1.01308,1.01308 v 1.78779 c 0,0.552994 -0.460088,1.01308 -1.01308,1.01308 h -2.74128 c -0.552994,0 -1.01308,-0.460087 -1.01308,-1.01308 v -1.78779 c 0,-0.552993 0.460088,-1.01308 1.01308,-1.01308 z "/>
</g>
<path style="opacity:.5;fill:#ffe9c6" id="path4197" d="m 34.726,25.8844 3.8935,0 c 0.552993,0 1.01308,0.660593 1.01308,1.21358 v 1.987 c 0,0.552994 -0.460088,1.01308 -1.01308,1.01308 h -3.89344 c -0.552994,0 -1.21355,-0.460087 -1.21355,-1.01308 v -1.987 c 0,-0.552993 0.660562,-1.21358 1.21355,-1.21358 z "/>
<path style="fill:#c07600" id="path4159" d="m 35.0247,26.3837 3.6948,0 c 0.552993,0 1.01308,0.460088 1.01308,1.01308 v 1.78779 c 0,0.552994 -0.460088,1.01308 -1.01308,1.01308 h -3.69477 c -0.552994,0 -1.01308,-0.460087 -1.01308,-1.01308 v -1.78779 c 0,-0.552993 0.460087,-1.01308 1.01308,-1.01308 z "/>
<path style="opacity:.5;fill:#a4efff" id="path4205" d="m 8.9499,31.6051 2.0475,0 c 0.536931,0 0.983285,0.64642 0.983285,1.18335 v 2.04736 c 0,0.53693 -0.446354,0.983285 -0.983285,0.983285 h -2.04721 c -0.53693,0 -1.18315,-0.446355 -1.18315,-0.983285 v -2.04736 c 0,-0.53693 0.645942,-1.18335 1.18287,-1.18335 z "/>
<path style="fill:#00687e" id="path4157" d="m 9.2507,32.1047 1.8474,0 c 0.536931,0 0.983285,0.446355 0.983285,0.983285 v 1.84738 c 0,0.53693 -0.446354,0.983285 -0.983285,0.983285 h -1.84738 c -0.53693,0 -0.983285,-0.446355 -0.983285,-0.983285 v -1.84738 c 0,-0.53693 0.446354,-0.983285 0.983285,-0.983285 z "/>
<g style="opacity:.4" id="g4225" transform="translate(0.39956,0.40045)">
<path id="path4227" d="m 14.9717,32.1047 2.7711,0 c 0.552994,0 1.01308,0.460088 1.01308,1.01308 v 1.78779 c 0,0.552994 -0.460088,1.01308 -1.01308,1.01308 h -2.77107 c -0.552994,0 -0.983285,-0.460088 -0.983285,-1.01308 v -1.78779 c 0,-0.552994 0.430291,-1.01308 0.983285,-1.01308 z "/>
<path id="path4229" d="m 21.6461,32.1047 2.7711,0 c 0.552994,0 1.01308,0.460088 1.01308,1.01308 v 1.78779 c 0,0.552994 -0.460087,1.01308 -1.01308,1.01308 h -2.77108 c -0.552993,0 -0.983284,-0.460088 -0.983284,-1.01308 v -1.78779 c 0,-0.552994 0.430291,-1.01308 0.983284,-1.01308 z "/>
<path id="path4231" d="m 28.3503,32.1047 2.7413,0 c 0.552993,0 1.01308,0.460088 1.01308,1.01308 v 1.78779 c 0,0.552994 -0.460088,1.01308 -1.01308,1.01308 h -2.74128 c -0.552994,0 -1.01308,-0.460088 -1.01308,-1.01308 v -1.78779 c 0,-0.552994 0.460088,-1.01308 1.01308,-1.01308 z "/>
</g>
<g style="fill:#fff" id="g28">
<path id="path4155" d="m 14.9717,32.1047 2.7711,0 c 0.552994,0 1.01308,0.460088 1.01308,1.01308 v 1.78779 c 0,0.552994 -0.460088,1.01308 -1.01308,1.01308 h -2.77107 c -0.552994,0 -0.983285,-0.460088 -0.983285,-1.01308 v -1.78779 c 0,-0.552994 0.430291,-1.01308 0.983285,-1.01308 z "/>
<path id="path4153" d="m 21.6461,32.1047 2.7711,0 c 0.552994,0 1.01308,0.460088 1.01308,1.01308 v 1.78779 c 0,0.552994 -0.460087,1.01308 -1.01308,1.01308 h -2.77108 c -0.552993,0 -0.983284,-0.460088 -0.983284,-1.01308 v -1.78779 c 0,-0.552994 0.430291,-1.01308 0.983284,-1.01308 z "/>
<path id="path4151" d="m 28.3503,32.1047 2.7413,0 c 0.552993,0 1.01308,0.460088 1.01308,1.01308 v 1.78779 c 0,0.552994 -0.460088,1.01308 -1.01308,1.01308 h -2.74128 c -0.552994,0 -1.01308,-0.460088 -1.01308,-1.01308 v -1.78779 c 0,-0.552994 0.460088,-1.01308 1.01308,-1.01308 z "/>
</g>
<path style="opacity:.5;fill:#ffe9c6" id="path4199" d="m 34.726,31.6054 3.8935,0 c 0.552993,0 1.01308,0.660548 1.01308,1.21354 v 7.70793 c 0,0.552994 -0.460088,1.01308 -1.01308,1.01308 h -3.89344 c -0.552994,0 -1.21355,-0.460088 -1.21355,-1.01308 v -7.70793 c 0,-0.552994 0.660562,-1.21354 1.21355,-1.21354 z "/>
<path style="fill:#c07600" id="path4149" d="m 35.0247,32.1047 3.6948,0 c 0.552993,0 1.01308,0.460088 1.01308,1.01308 v 7.50872 c 0,0.552994 -0.460088,1.01308 -1.01308,1.01308 h -3.69477 c -0.552994,0 -1.01308,-0.460088 -1.01308,-1.01308 v -7.50872 c 0,-0.552994 0.460087,-1.01308 1.01308,-1.01308 z "/>
<path style="opacity:.5;fill:#a4efff" id="path4207" d="m 8.9501,37.3261 2.0472,0 c 0.536931,0 0.983285,0.64642 0.983285,1.18335 v 2.04736 c 0,0.53693 -0.446354,0.983284 -0.983285,0.983284 h -2.04721 c -0.53693,0 -1.18315,-0.446355 -1.18315,-0.983285 v -2.04736 c 0,-0.53693 0.646217,-1.18335 1.18315,-1.18335 z "/>
<path style="fill:#00687e" id="path4147" d="m 9.2507,37.8256 1.8474,0 c 0.536931,0 0.983285,0.446355 0.983285,0.983285 v 1.84738 c 0,0.53693 -0.446354,0.983285 -0.983285,0.983285 h -1.84738 c -0.53693,0 -0.983285,-0.446355 -0.983285,-0.983285 v -1.84738 c 0,-0.53693 0.446354,-0.983285 0.983285,-0.983285 z "/>
<g style="opacity:.4" id="g4233" transform="translate(0.39956,0.40045)">
<path id="path4235" d="m 14.9717,37.8256 2.7711,0 c 0.552994,0 1.01308,0.460088 1.01308,1.01308 v 1.78779 c 0,0.552994 -0.460088,1.01308 -1.01308,1.01308 h -2.77107 c -0.552994,0 -0.983285,-0.460088 -0.983285,-1.01308 v -1.78779 c 0,-0.552994 0.430291,-1.01308 0.983285,-1.01308 z "/>
<path id="path4237" d="m 21.6461,37.8256 2.7711,0 c 0.552994,0 1.01308,0.460088 1.01308,1.01308 v 1.78779 c 0,0.552994 -0.460087,1.01308 -1.01308,1.01308 h -2.77108 c -0.552993,0 -0.983284,-0.460088 -0.983284,-1.01308 v -1.78779 c 0,-0.552994 0.430291,-1.01308 0.983284,-1.01308 z "/>
<path id="path4239" d="m 28.3205,37.8256 2.7711,0 c 0.552993,0 1.01308,0.460088 1.01308,1.01308 v 1.78779 c 0,0.552994 -0.460088,1.01308 -1.01308,1.01308 h -2.77108 c -0.552994,0 -0.983285,-0.460088 -0.983285,-1.01308 v -1.78779 c 0,-0.552994 0.430291,-1.01308 0.983285,-1.01308 z "/>
</g>
<g style="fill:#fff" id="g35">
<path id="path4145" d="m 14.9717,37.8256 2.7711,0 c 0.552994,0 1.01308,0.460088 1.01308,1.01308 v 1.78779 c 0,0.552994 -0.460088,1.01308 -1.01308,1.01308 h -2.77107 c -0.552994,0 -0.983285,-0.460088 -0.983285,-1.01308 v -1.78779 c 0,-0.552994 0.430291,-1.01308 0.983285,-1.01308 z "/>
<path id="path4143" d="m 21.6461,37.8256 2.7711,0 c 0.552994,0 1.01308,0.460088 1.01308,1.01308 v 1.78779 c 0,0.552994 -0.460087,1.01308 -1.01308,1.01308 h -2.77108 c -0.552993,0 -0.983284,-0.460088 -0.983284,-1.01308 v -1.78779 c 0,-0.552994 0.430291,-1.01308 0.983284,-1.01308 z "/>
<path id="rect2157" d="m 28.3205,37.8256 2.7711,0 c 0.552993,0 1.01308,0.460088 1.01308,1.01308 v 1.78779 c 0,0.552994 -0.460088,1.01308 -1.01308,1.01308 h -2.77108 c -0.552994,0 -0.983285,-0.460088 -0.983285,-1.01308 v -1.78779 c 0,-0.552994 0.430291,-1.01308 0.983285,-1.01308 z "/>
</g>
</g>
</svg>
