<svg width="48" version="1.0" xmlns="http://www.w3.org/2000/svg" height="48" xmlns:xlink="http://www.w3.org/1999/xlink">
<defs id="defs5">
<linearGradient id="linearGradient895">
<stop offset="0" style="stop-color:#1b6271" id="stop891"/>
<stop offset="1" style="stop-color:#268ca2" id="stop893"/>
</linearGradient>
<linearGradient id="linearGradient960">
<stop offset="0" style="stop-color:#06537b" id="stop956"/>
<stop offset="1" style="stop-color:#0f6ecd" id="stop958"/>
</linearGradient>
<linearGradient id="linearGradient875">
<stop offset="0" style="stop-color:#82a276" id="stop871"/>
<stop offset="1" style="stop-color:#58734e" id="stop873"/>
</linearGradient>
<linearGradient id="linearGradient3310">
<stop offset="0" style="stop-color:#53a3f2" id="stop3312"/>
<stop offset="1" style="stop-color:#05213d" id="stop3314"/>
</linearGradient>
<linearGradient id="linearGradient2768">
<stop offset="0" style="stop-color:#c3b9b9" id="stop2770"/>
<stop offset="1" style="stop-color:#fff" id="stop2772"/>
</linearGradient>
<linearGradient id="linearGradient851">
<stop offset="0" style="stop-color:#638bb5" id="stop847"/>
<stop offset="1" style="stop-color:#41648a" id="stop849"/>
</linearGradient>
<linearGradient xlink:href="#linearGradient3310" id="linearGradient939" y1="15" x1="10" y2="6" x2="10" gradientUnits="userSpaceOnUse"/>
<linearGradient gradientTransform="matrix(0.4590474,0,0,0.38533506,-6.6644931,0.02386136)" xlink:href="#linearGradient2768" id="linearGradient3226" y1="119.3147" x1="34.396217" y2="5.1283655" gradientUnits="userSpaceOnUse" x2="34.396217"/>
<linearGradient xlink:href="#linearGradient895" id="linearGradient907" y1="42.912041" x1="25.500397" y2="39" x2="25.500397" gradientUnits="userSpaceOnUse"/>
<linearGradient gradientTransform="matrix(0.96428571,0,0,0.88888888,0.85714284,1.1666667)" xlink:href="#linearGradient960" id="linearGradient949" y1="6" x1="10" y2="15" gradientUnits="userSpaceOnUse" x2="10"/>
<linearGradient xlink:href="#linearGradient875" id="linearGradient877" y1="17" x1="33" y2="21" x2="33" gradientUnits="userSpaceOnUse"/>
<linearGradient xlink:href="#linearGradient895" id="linearGradient897" y1="43" x1="10.500396" y2="39" x2="10.500396" gradientUnits="userSpaceOnUse"/>
<linearGradient xlink:href="#linearGradient851" id="linearGradient853" y1="22.5" x1="18" y2="26.5" x2="18" gradientUnits="userSpaceOnUse"/>
</defs>
<g style="stroke:none;stroke-linejoin:round">
<g style="stroke-linecap:round">
<rect width="38" x="5.5" y="1.5" rx="2.432" height="46" ry="2.432" style="opacity:.2;stroke-width:.883" id="rect881"/>
<rect width="37.5" x="5.5" y="1.5" rx="2.4" ry="2.4" height="45.5" style="opacity:.2;stroke-width:.873" id="rect879"/>
<rect width="37" x="5.5" y="1.5" rx="2.368" height="45" ry="2.3736265" style="opacity:.2;stroke-width:.862" id="rect961"/>
<rect width="36" x="6" y="2" rx="1.8" height="44" ry="1.8" style="fill:url(#linearGradient3226);stroke-width:.429" id="rect2778"/>
<rect width="12.082898" x="25.500397" y="39" rx="0.5" height="3.9120395" ry="0.5" style="fill:url(#linearGradient907);stroke-width:.145" id="rect3169"/>
</g>
<rect width="28" x="10" y="6" rx="0.8" height="9" ry="0.8" style="fill:url(#linearGradient939);fill-rule:evenodd;stroke-linecap:square;stroke-width:2.683" id="rect931"/>
</g>
<rect width="4.5" x="33" y="17" rx="0.5" ry="0.5" height="4" style="fill:url(#linearGradient877);stroke:none;stroke-linejoin:round;stroke-linecap:round;stroke-width:.09" id="use945"/>
<rect width="4.5" x="18" y="22.5" rx="0.5" ry="0.5" height="4" style="fill:url(#linearGradient853);stroke:none;stroke-linejoin:round;stroke-linecap:round;stroke-width:.09" id="use951"/>
<rect width="4.5" x="10.500396" y="39" rx="0.5" ry="0.5" height="4" style="fill:url(#linearGradient897);stroke:none;stroke-linejoin:round;stroke-linecap:round;stroke-width:.09" id="use939"/>
<rect width="27" x="10.5" y="6.5" rx="0.5" ry="0.5" height="8" style="fill:url(#linearGradient949);fill-rule:evenodd;stroke:none;stroke-linejoin:round;stroke-linecap:square;stroke-width:2.484" id="rect941"/>
<use width="100%" x="0" y="0" height="100%" xlink:href="#use951" id="use855" transform="translate(7.4996033)"/>
<use width="100%" x="0" y="0" height="100%" xlink:href="#use951" id="use857" transform="translate(15)"/>
<use width="100%" x="0" y="0" height="100%" xlink:href="#use951" id="use859" transform="translate(0,5.5)"/>
<use width="100%" x="0" y="0" height="100%" xlink:href="#use951" id="use861" transform="translate(0,11)"/>
<use width="100%" x="0" y="0" height="100%" xlink:href="#use951" id="use863" transform="translate(7.4996033,5.5)"/>
<use width="100%" x="0" y="0" height="100%" xlink:href="#use951" id="use865" transform="translate(15,5.5)"/>
<use width="100%" x="0" y="0" height="100%" xlink:href="#use951" id="use867" transform="translate(7.4996033,11)"/>
<use width="100%" x="0" y="0" height="100%" xlink:href="#use951" id="use869" transform="translate(15,11)"/>
<use width="100%" x="0" y="0" height="100%" xlink:href="#use945" id="use879" transform="translate(-7.5003967)"/>
<use width="100%" x="0" y="0" height="100%" xlink:href="#use945" id="use881" transform="translate(-15)"/>
<use width="100%" x="0" y="0" height="100%" xlink:href="#use945" id="use883" transform="translate(-22.500397)"/>
<use width="100%" x="0" y="0" height="100%" xlink:href="#use945" id="use885" transform="translate(-22.500397,11)"/>
<use width="100%" x="0" y="0" height="100%" xlink:href="#use945" id="use887" transform="translate(-22.500397,5.5)"/>
<use width="100%" x="0" y="0" height="100%" xlink:href="#use945" id="use889" transform="translate(-22.500397,16.5)"/>
<use width="100%" x="0" y="0" height="100%" xlink:href="#use939" id="use899" transform="translate(7.4996042)"/>
</svg>
