<svg width="96" version="1.0" xmlns="http://www.w3.org/2000/svg" height="96">
<path style="fill:#c3c3c3" id="rect2419" d="m 20,6 h 56 c 7.756,0 14,6.244 14,14 v 56 c 0,7.756 -6.244,14 -14,14 H 20 C 12.244,90 6,83.756 6,76 V 20 C 6,12.244 12.244,6 20,6 Z"/>
<path style="fill:#f9f9f9" id="rect3043" d="M 80,22.418 V 73.582 C 80,76.805273 76.805273,80 73.582,80 H 22.418 C 19.194727,80 16,76.805273 16,73.582 V 22.418 C 16,19.194727 19.194727,16 22.418,16 H 73.582 C 76.805273,16 80,19.194727 80,22.418 Z"/>
<path style="fill:#e6e6e6" id="rect3813" d="m 78.5155,23.0327 v 49.9345 c 0,3.07375 -2.47453,5.54828 -5.54828,5.54828 h -49.9345 c -3.07375,0 -5.54828,-2.47453 -5.54828,-5.54828 V 23.0327 c 0,-3.07375 2.47453,-5.54828 5.54828,-5.54828 h 49.9345 c 3.07375,0 5.54828,2.47453 5.54828,5.54828 z"/>
<path style="opacity:.9" id="path3693" d="m 50.6707,55.0846 c -3.74567,0 -6.34074,0.428328 -7.78524,1.28494 -1.44452,0.856641 -2.16678,2.31795 -2.16677,4.38392 0,1.64608 0.537484,2.95622 1.61248,3.93041 1.09177,0.957412 2.56987,1.43612 4.43431,1.43611 2.56987,0 4.62746,-0.907015 6.17276,-2.72106 1.56207,-1.83083 2.34311,-4.25794 2.34313,-7.28134 V 55.08459 H 50.771 m 9.1463,-1.7146 v 15.8994 h -4.6359 v -4.2831 c -1.05821,1.71326 -2.37674,2.98141 -3.95561,3.80444 -1.5789,0.806238 -3.51051,1.20936 -5.79484,1.20936 -2.88903,0 -5.19017,-0.806239 -6.90342,-2.41872 -1.69647,-1.62927 -2.54469,-3.80443 -2.54469,-6.52549 0,-3.17455 1.05818,-5.56807 3.17457,-7.18056 2.13316,-1.61246 5.30773,-2.4187 9.5237,-2.41872 h 6.5003 v -0.453509 c 0,-2.13315 -0.705481,-3.77922 -2.11638,-4.93821 -1.39414,-1.17574 -3.35934,-1.76362 -5.89562,-1.76365 -1.61249,0 -3.18297,0.193186 -4.71146,0.579484 -1.5285,0.386347 -2.99821,0.965831 -4.40912,1.73845 v -4.28314 c 1.69645,-0.655041 3.34252,-1.14214 4.93821,-1.46131 1.59567,-0.335904 3.14936,-0.50387 4.66107,-0.503899 4.08156,0 7.13015,1.05822 9.14577,3.17457 2.01557,2.1164 3.02337,5.32456 3.0234,9.62448 m -15.6209,-25.1698 7.105,9.4229 h -3.8548 l -8.2136,-9.4229"/>
</svg>
