<svg width="48" version="1.1" xmlns="http://www.w3.org/2000/svg" height="48">
<g style="stroke:none" id="g4">
<g style="color:#000" id="g6">
<path style="fill:#245a90" id="path4368" d="m 4.9573,9.8188 c -0.045408,12.0846 -0.118778,17.3349 -0.0001809,32.1943 l 4.3312,3.3359 33.7651,-.2782 v -40.432 c 0,0 0.438683,-2.08537 -1.09332,-2.10569 -3.27916,-0.04349 -10.9219,-0.03217 -15.8974,-0.03063 0,0 2.59145,0.02528 -15.6467,0.0056 -3.69635,0.07614 -5.52223,1.97506 -5.45865,7.31061 Z "/>
<path style="fill:#fff" id="path2489" d="M 41.7002,11.4073 10.6644,11.2744 C 9.00931,11.085268 7.6738,9.78987 7.6738,8.08443 c 0,-1.70544 1.33552,-3.00084 2.9906,-3.18997 l 31.0358,-0.1329 0,0.06645 c -1.76046,0.0831 -3.18997,1.47552 -3.18997,3.25643 0,1.78091 1.42951,3.17333 3.18997,3.25643 l 0,0.06645 z"/>
<path style="fill:#5496d8" id="path2784" d="m 7.768,45.5001 c -1.815,0 -2.9986,-1.0729 -3.0851,-3.04256 v -34.1879 c -0.097789,-3.27337 1.81671,-5.56608 4.6541,-5.66803 -4.79204,0.951094 -4.52079,9.5612 1.12812,9.52848 h 32.8554 v 32.912 c 0,0.257417 -0.390088,0.45802 -0.651498,0.45802 z "/>
</g>
<g style="font-family:'Bitstream Vera Sans';text-align:start;word-spacing:0;line-height:125%;letter-spacing:0;font-size:21.19046593px" id="g10">
<g style="opacity:.7" id="g4177" transform="translate(0,-0.79957932)">
<g style="font-weight:bold" id="text4179">
<path id="path4166" d="m 32.5962,35.1064 q 1.18989,0 1.81071,-0.86914 0.631162,-0.86914 0.631162,-2.52465 0,-1.65551 -0.631162,-2.52464 -0.620814,-0.86914 -1.81071,-0.86914 -1.18989,0 -1.8314,0.879487 -0.631161,0.86914 -0.631161,2.5143 0,1.64516 0.631161,2.52465 0.641508,0.86914 1.8314,0.86914 z  m -2.4626,-7.5015 q 0.765671,-1.014 1.69689,-1.48995 0.931221,-0.486305 2.14181,-0.486305 2.14181,0 3.51795,1.70724 1.37614,1.69689 1.37614,4.37674 0,2.67985 -1.37614,4.38709 -1.37614,1.69689 -3.51795,1.69689 -1.21059,0 -2.14181,-0.475958 -0.931222,-0.486305 -1.69689,-1.5003 v 1.6762 h -3.70419 v -16.0998 h 3.70419 v 6.20814 z "/>
</g>
<g style="font-weight:bold" id="text4183">
<path id="path4172" d="m 16.3148,21.5656 q -1.15885,0 -1.74863,0.393183 -0.579427,0.393182 -0.579427,1.15885 0,0.70359 0.465611,1.10712 0.475958,0.393183 1.31406,0.393183 1.04504,0 1.75897,-0.744978 0.713937,-0.755324 0.713937,-1.88314 v -0.424223 h -1.92452 z  m 5.6598,-1.3968 0,6.6117 -3.7352,0 0,-1.7176 q -0.744977,1.05538 -1.6762,1.54169 -0.931222,0.475958 -2.26597,0.475958 -1.80036,0 -2.92817,-1.04504 -1.11747,-1.05539 -1.11747,-2.73158 0,-2.03834 1.39683,-2.99026 1.40718,-0.951915 4.40778,-0.951915 h 2.1832 v -0.289714 q 0,-0.879487 -0.693243,-1.28302 -0.693243,-0.413876 -2.1625,-0.413876 -1.18989,0 -2.21424,0.237979 -1.02434,0.237978 -1.90383,0.713936 v -2.82471 q 1.18989,-0.289713 2.39014,-0.43457 1.20024,-0.155203 2.40048,-0.155203 3.13511,0 4.5216,1.24163 1.39683,1.23128 1.39683,4.0146 z "/>
</g>
<g style="font-weight:bold" id="text4187">
<path id="path4160" d="m 21.4032,31.4751 0,3.0213 q -0.755325,-0.517346 -1.521,-0.765672 -0.755324,-0.248325 -1.57273,-0.248325 -1.55204,0 -2.42118,0.910528 -0.858793,0.90018 -0.858793,2.52464 0,1.62446 0.858793,2.53499 0.86914,0.900181 2.42118,0.900181 0.86914,0 1.64516,-0.258673 0.786364,-0.258672 1.44857,-0.765671 v 3.03164 q -0.869141,0.320754 -1.76932,0.475958 -0.889834,0.16555 -1.79002,0.16555 -3.13511,0 -4.90443,-1.60377 -1.76932,-1.61412 -1.76932,-4.48021 0,-2.86609 1.76932,-4.46986 1.76932,-1.61412 4.90443,-1.61412 0.910528,0 1.79002,0.165551 0.889834,0.155204 1.76932,0.475958 z "/>
</g>
</g>
<g style="fill:#fff" id="g11">
<g style="font-weight:bold" id="text4156">
<path id="path4163" d="m 32.5962,35.1064 q 1.18989,0 1.81071,-0.86914 0.631162,-0.86914 0.631162,-2.52465 0,-1.65551 -0.631162,-2.52464 -0.620814,-0.86914 -1.81071,-0.86914 -1.18989,0 -1.8314,0.879487 -0.631161,0.86914 -0.631161,2.5143 0,1.64516 0.631161,2.52465 0.641508,0.86914 1.8314,0.86914 z  m -2.4626,-7.5015 q 0.765671,-1.014 1.69689,-1.48995 0.931221,-0.486305 2.14181,-0.486305 2.14181,0 3.51795,1.70724 1.37614,1.69689 1.37614,4.37674 0,2.67985 -1.37614,4.38709 -1.37614,1.69689 -3.51795,1.69689 -1.21059,0 -2.14181,-0.475958 -0.931222,-0.486305 -1.69689,-1.5003 v 1.6762 h -3.70419 v -16.0998 h 3.70419 v 6.20814 z "/>
</g>
<g style="font-weight:bold" id="text4257">
<path id="path4169" d="m 16.3148,21.5656 q -1.15885,0 -1.74863,0.393183 -0.579427,0.393182 -0.579427,1.15885 0,0.70359 0.465611,1.10712 0.475958,0.393183 1.31406,0.393183 1.04504,0 1.75897,-0.744978 0.713937,-0.755324 0.713937,-1.88314 v -0.424223 h -1.92452 z  m 5.6598,-1.3968 0,6.6117 -3.7352,0 0,-1.7176 q -0.744977,1.05538 -1.6762,1.54169 -0.931222,0.475958 -2.26597,0.475958 -1.80036,0 -2.92817,-1.04504 -1.11747,-1.05539 -1.11747,-2.73158 0,-2.03834 1.39683,-2.99026 1.40718,-0.951915 4.40778,-0.951915 h 2.1832 v -0.289714 q 0,-0.879487 -0.693243,-1.28302 -0.693243,-0.413876 -2.1625,-0.413876 -1.18989,0 -2.21424,0.237979 -1.02434,0.237978 -1.90383,0.713936 v -2.82471 q 1.18989,-0.289713 2.39014,-0.43457 1.20024,-0.155203 2.40048,-0.155203 3.13511,0 4.5216,1.24163 1.39683,1.23128 1.39683,4.0146 z "/>
</g>
<g style="font-weight:bold" id="text4261">
<path id="path4157" d="m 21.4032,31.4751 0,3.0213 q -0.755325,-0.517346 -1.521,-0.765672 -0.755324,-0.248325 -1.57273,-0.248325 -1.55204,0 -2.42118,0.910528 -0.858793,0.90018 -0.858793,2.52464 0,1.62446 0.858793,2.53499 0.86914,0.900181 2.42118,0.900181 0.86914,0 1.64516,-0.258673 0.786364,-0.258672 1.44857,-0.765671 v 3.03164 q -0.869141,0.320754 -1.76932,0.475958 -0.889834,0.16555 -1.79002,0.16555 -3.13511,0 -4.90443,-1.60377 -1.76932,-1.61412 -1.76932,-4.48021 0,-2.86609 1.76932,-4.46986 1.76932,-1.61412 4.90443,-1.61412 0.910528,0 1.79002,0.165551 0.889834,0.155204 1.76932,0.475958 z "/>
</g>
</g>
</g>
</g>
</svg>
