<svg width="48" version="1.0" xmlns="http://www.w3.org/2000/svg" height="48" xmlns:xlink="http://www.w3.org/1999/xlink">
<defs id="defs4">
<linearGradient id="linearGradient4183">
<stop offset="0" style="stop-color:#06537b" id="stop4185"/>
<stop offset="1" style="stop-color:#0f6ecd" id="stop4187"/>
</linearGradient>
<linearGradient gradientTransform="matrix(1.0547343,0,0,0.84463741,-1.3136236,1.4420353)" xlink:href="#linearGradient4183" id="linearGradient1055" y1="6.3226862" x1="8.5729589" y2="18.677317" x2="8.5729589" gradientUnits="userSpaceOnUse"/>
</defs>
<g style="stroke-linecap:square;stroke-linejoin:round;fill-rule:evenodd;stroke:none">
<rect width="38.099998" x="5.5" y="3.5" rx="3" height="44.25" ry="3" style="opacity:.5;stroke-width:1.644" id="rect1059"/>
<rect width="37" x="5.5" y="3.5" rx="2.5" ry="2.5" height="43" style="fill:#c8c8c8;fill-opacity:.992;stroke-width:1.597" id="rect1057"/>
<g style="stroke-width:.312;fill:#fff">
<rect width="5" x="14" y="21" rx="0.7" ry="0.7" height="4" id="rect959"/>
<rect width="5" x="14" y="27" rx="0.7" ry="0.7" height="4" id="rect963"/>
<rect width="5" x="14" y="33" rx="0.7" ry="0.7" height="4" id="rect965"/>
<rect width="5" x="14" y="39" rx="0.7" ry="0.7" height="4" id="rect967"/>
<rect width="5" x="21" y="21" rx="0.7" ry="0.7" height="4" id="rect969"/>
<rect width="5" x="21" y="27" rx="0.7" ry="0.7" height="4" id="rect971"/>
<rect width="5" x="21" y="33" rx="0.7" ry="0.7" height="4" id="rect973"/>
<rect width="5" x="21" y="39" rx="0.7" ry="0.7" height="4" id="rect975"/>
<rect width="5" x="28" y="21" rx="0.7" ry="0.7" height="4" id="rect977"/>
<rect width="5" x="28" y="27" rx="0.7" ry="0.7" height="4" id="rect979"/>
<rect width="5" x="28" y="33" rx="0.7" ry="0.7" height="4" id="rect981"/>
<rect width="5" x="28" y="39" rx="0.7" ry="0.7" height="4" id="rect983"/>
</g>
<g style="stroke-width:.28">
<g style="fill:#00687e">
<rect width="4" x="8" y="21" rx="0.7" height="4" ry="0.7" id="rect985"/>
<rect width="4" x="8" y="27" rx="0.7" ry="0.7" height="4" id="rect987"/>
<rect width="4" x="8" y="33" rx="0.7" height="4" ry="0.7" id="rect989"/>
</g>
<rect width="4" x="8" y="39" rx="0.7" ry="0.7" height="4" style="fill:#279600" id="rect991"/>
</g>
<g style="fill:#c07600">
<g style="stroke-width:.312">
<rect width="5" x="35" y="21" rx="0.7" ry="0.7" height="4" id="rect993"/>
<rect width="5" x="35" y="27" rx="0.7" height="4" ry="0.7" id="rect995"/>
</g>
<rect width="5" x="35" y="33" rx="0.7" height="10" ry="0.7" style="stroke-width:.494" id="rect997"/>
</g>
<rect width="32.510002" x="8" y="7" rx="1.4004308" height="10.75" ry="1.4" style="opacity:.75;fill:#f6fafe;stroke-width:.54" id="rect980"/>
<rect width="32" x="8" y="7" rx="1" ry="1" height="10" style="fill:url(#linearGradient1055);stroke-width:.517" id="rect1039"/>
</g>
</svg>
