<svg width="48" version="1.0" xmlns="http://www.w3.org/2000/svg" height="48" xmlns:xlink="http://www.w3.org/1999/xlink">
<defs>
<linearGradient id="linearGradient7185">
<stop offset="0" style="stop-color:#902626"/>
<stop offset="1" style="stop-color:#ffcaca"/>
</linearGradient>
<linearGradient gradientTransform="matrix(0.102067,0,0,0.1020932,-13.982106,-25.493929)" spreadMethod="reflect" xlink:href="#linearGradient7185" id="linearGradient3848" y1="473.79688" x1="390.19592" y2="368.65701" gradientUnits="userSpaceOnUse" x2="213.73976"/>
</defs>
<path style="opacity:.5" d="m 24,2.7512 c -11.7803,0 -21.3438,9.56346 -21.3438,21.3438 0,11.7803 9.56346,21.3438 21.3438,21.3438 11.7803,0 21.3437,-9.56346 21.3437,-21.3438 0,-11.7803 -9.56345,-21.3438 -21.3438,-21.3438 z m 0,15.6875 c 3.13102,0 5.65625,2.52523 5.65625,5.65625 0,3.13102 -2.52523,5.65625 -5.65625,5.65625 -3.13102,0 -5.65625,-2.52523 -5.65625,-5.65625 0,-3.13102 2.52523,-5.65625 5.65625,-5.65625 z"/>
<path style="fill:url(#linearGradient3848);clip-path:url(#clipPath4248)" d="m 24.0729,1.146 c -11.9926,0 -21.7243,9.73424 -21.7243,21.7299 0,11.9956 9.73174,21.7331 21.7243,21.7331 11.9926,0 21.7275,-9.73742 21.7275,-21.7331 0,-11.9956 -9.73493,-21.7299 -21.7275,-21.7299 z  m 0,16.3349 c 2.97802,0 5.39679,2.4162 5.39679,5.39499 0,2.97878 -2.41877,5.39818 -5.39679,5.39818 -2.97802,0 -5.39361,-2.41939 -5.39361,-5.39818 0,-2.97878 2.41558,-5.39499 5.39361,-5.39499 z "/>
<path style="opacity:.389;fill:none;stroke:#d2d2d2;stroke-linejoin:round;stroke-width:1.809" d="m 30.7461,22.9226 c 0,3.7103 -3.00779,6.71809 -6.71809,6.71809 -3.7103,0 -6.71809,-3.0078 -6.71809,-6.71809 0,-3.7103 3.00779,-6.71809 6.71809,-6.71809 3.7103,0 6.71809,3.00779 6.71809,6.71809 z "/>
</svg>
