<svg width="96" version="1.0" xmlns="http://www.w3.org/2000/svg" height="96">
<defs id="defs2410">
<clipPath id="clipPath3754">
<path style="fill:#f00;stroke:none" id="path3756" d="m -78,6 c -3.324,0 -6,2.676 -6,6 v 72 c 0,3.324 2.676,6 6,6 h 72 c 3.324,0 6,-2.676 6,-6 v -72 c 0,-3.324 -2.676,-6 -6,-6 h -72 z  m 4,10 a 64,64 0 0,1 64,64 h -12.8125 a 51.2,51.2 0 0,0 -51.1875,-51.1875 v -12.8125 z  m 0,21.5625 a 42.4229,42.4229 0 0,1 42.4375,42.4375 h -12.4375 a 29.9886,29.9886 0 0,0 -30,-30 v -12.4375 z  m 8.7812,24.875 c 4.84748,0 8.78125,3.93377 8.78125,8.78125 0,4.84748 -3.93377,8.78125 -8.78125,8.78125 -4.84748,0 -8.78125,-3.93377 -8.78125,-8.78125 0,-4.84748 3.93377,-8.78125 8.78125,-8.78125 z "/>
</clipPath>
<clipPath id="clipPath3775">
<path style="fill:#fff" id="path3777" d="m -84,16 0,12.8 a 51.2,51.2 0 0,1 51.2,51.2 h 12.8 a 64,64 0 0,0 -64,-64 z  m 0,21.5771 0,12.4343 a 29.9886,29.9886 0 0,1 29.9886,29.9886 h 12.4343 a 42.4229,42.4229 0 0,0 -42.4229,-42.4229 z  m 8.7771,24.8686 c -4.84748,7.10543e-15 -8.77714,3.92966 -8.77714,8.77714 0,4.84748 3.92966,8.77714 8.77714,8.77714 4.84748,0 8.77714,-3.92966 8.77714,-8.77714 0,-4.84748 -3.92966,-8.77714 -8.77714,-8.77714 z "/>
</clipPath>
<clipPath id="clipPath3613">
<rect width="84" x="6" y="6" rx="6" height="84" ry="6" style="fill:#fff;stroke:none" id="rect3615"/>
</clipPath>
</defs>
<path style="fill:#ff6701;stroke:none" id="rect3716" d="m 12,-91 72,0 c 3.324,0 6,2.676 6,6 v 72 c 0,3.324 -2.676,6 -6,6 h -72 c -3.324,0 -6,-2.676 -6,-6 v -72 c 0,-3.324 2.676,-6 6,-6 z " transform="scale(1,-1)"/>
<path style="opacity:.4" id="path4158" d="m 24.023,16.3262 -1.5,1.5008 c 24.3571,0 55.129,31.4984 55.129,56.432 l 1.4991,-1.5 c 0,-31.167 -24.6817,-56.4328 -55.1281,-56.4328 z  m 0,19.0259 -1.5,1.4999 c 14.2663,0 36.543,22.803 36.543,37.407 l 1.4991,-1.5 c 0,-20.6593 -16.3605,-37.4069 -36.5421,-37.4069 z  m 7.5604,21.9282 c -4.17551,0 -7.56042,3.46503 -7.56042,7.73935 0,4.27433 3.38492,7.73935 7.56042,7.73935 4.17551,0 7.56043,-3.46503 7.56043,-7.73935 0,-4.27433 -3.38492,-7.73935 -7.56043,-7.73935 z "/>
<path style="fill:#fff" id="circle3643" d="m 22.5235,17.827 0,11.2862 c 24.3571,0 44.1025,20.2126 44.1025,45.1462 h 11.026 c 0,-31.167 -24.6821,-56.4324 -55.1285,-56.4324 Z  m -.0005,19.025 .0005,10.9646 c 14.2663,0 25.8315,11.8388 25.8315,26.4428 l 10.711,-.0004 c 0,-20.6593 -16.3614,-37.407 -36.543,-37.407 z  m 7.5609,21.9287 c -4.17551,0 -7.56042,3.46503 -7.56042,7.73935 0,4.27433 3.38492,7.73935 7.56042,7.73935 4.17551,0 7.56043,-3.46503 7.56043,-7.73935 0,-4.27433 -3.38492,-7.73935 -7.56043,-7.73935 z "/>
</svg>
