<svg width="48" version="1.1" xmlns="http://www.w3.org/2000/svg" height="48">
<rect width="42" x="3" y="3" rx="3" height="42" style="fill:#ff6701;fill-rule:evenodd"/>
<path style="opacity:.4;color-interpolation-filters:linearRGB" d="m 10.1572,7.75 v 5.8175 c 15,-0.318 25,9.682 25.1818,24.682 h 4.61773 c 0.002843,-16.7489 -12.5067,-30.5 -29.7995,-30.4995 Z "/>
<path style="opacity:.4;color-interpolation-filters:linearRGB" d="m 10.1572,16.659 v 5.8175 c 9,-0.227 16,6.773 15.773,15.773 h 5.1175 c 0.009501,-11.6364 -8.72253,-21.5908 -20.8905,-21.5905 Z "/>
<path style="opacity:.4;color-interpolation-filters:linearRGB" d="m 14.6117,28.1405 c -3.06111,-0.01105 -5.28266,3.30119 -4.35455,6.254 h 8.709 c 0.912658,-3.145 -1.29335,-6.24295 -4.35445,-6.254 z "/>
<path style="fill:#f7f7f7;color-interpolation-filters:linearRGB" d="m 10.1572,9.2495 v 4.81773 c 14,-0.02125 24.6689,10.1823 24.6816,24.1823 h 4.31773 c 0,-16.4371 -12.4731,-29 -29,-29 z  m 0,8.9091 v 4.81773 c 9,-0.0048 15.2548,6.27318 15.2727,15.2732 h 4.8175 c 0.041464,-11.426 -8.65975,-20.1344 -20.0902,-20.0905 Z  m 4.4545,11.1818 c -2.46782,0 -4.45454,1.98673 -4.45454,4.45455 0,2.46782 1.98673,4.45455 4.45454,4.45455 2.46782,0 4.45455,-1.98673 4.45455,-4.45455 0,-2.46782 -1.98673,-4.45455 -4.45455,-4.45455 z "/>
</svg>
