<svg width="48" version="1.0" xmlns="http://www.w3.org/2000/svg" viewBox="0 0 48 48" height="48">
<path style="fill:#fff;stroke:#0358ad;stroke-width:1.98" id="path3849" d="m 46.0102,23.9963 a 22.0095,22.0095 0 0,1 -44.0191,0 22.0095,22.0095 0 1,1 44.0191,0 z "/>
<path style="fill:#0358ad;stroke:none" id="circle22" d="m 24.0007,2.4962 c -11.8632,0 -21.5,9.63679 -21.5,21.5 0,5.93164 2.41828,11.3019 6.30823,15.1918 -1.50563,-1.75438 -1.89921,-3.0673 -1.82302,-3.0673 1.21464,0 2.2807,-2.38321 1.64939,-2.48857 -0.6313,-0.10513 -5.01132,-4.5457 -4.4852,-4.86138 0.526056,-0.31551 4.27217,-1.91768 4.74563,-2.28601 0.473462,-0.36833 2.223,-2.32028 2.749,-2.37282 0.526113,-0.0526 1.61795,-0.27373 2.45963,-0.69448 0.841734,-0.42092 4.21159,-3.86172 4.9482,-4.28264 0.73649,-0.42087 2.90433,-0.39978 3.58817,-0.34724 0.683839,0.0526 1.32062,-0.20793 1.79408,-0.83917 0.473461,-0.63136 5.44543,-4.19846 6.07673,-4.51414 0.6313,-0.31562 2.31548,-2.31494 3.18305,-2.31494 0.263028,0 0.76318,0.89957 1.44684,1.79407 0.683957,0.89422 0.513017,1.71252 0.144684,2.34389 -0.368274,0.6313 -3.23824,6.01356 -2.92262,6.53973 0.315738,0.52606 2.59384,0.36562 3.0673,0.26043 0.473462,-0.10518 1.88886,-1.05482 2.25707,-0.89704 0.368333,0.15784 0.578735,1.20493 0.578735,1.67833 0,0.47341 0.268309,1.0102 -1.0996,1.27322 -1.36785,0.26303 -5.28773,2.78616 -6.65549,4.89032 -1.36791,2.10428 -1.71771,10.0491 -1.82302,10.996 -0.105246,0.94686 -0.150081,2.05188 -0.202557,2.89367 -0.05271,0.84168 1.01467,1.13084 -0.520863,1.6494 -1.04875,0.35405 -2.95868,0.82098 -5.2665,0.89704 0.432853,0.026 0.862794,0.0579 1.30215,0.0579 11.8632,0 21.5,-9.63679 21.5,-21.5 0,-11.8632 -9.63679,-21.5 -21.5,-21.5 z  m -1.7362,18.4905 c -0.709091,0.0443 -1.66743,0.2495 -2.34388,0.92598 -1.20263,1.20257 -2.25067,3.85709 -2.17026,4.65882 0.08006,0.80174 2.4882,-2.74007 3.53029,-2.98049 1.04233,-0.2406 2.17942,-2.0143 1.93876,-2.57537 0,0 -0.133058,-0.0177 -0.347241,-0.0289 -0.160637,-0.008 -0.371309,-0.0148 -0.607673,0 z "/>
</svg>
