<svg width="48" version="1.0" xmlns="http://www.w3.org/2000/svg" height="48">
<g style="stroke-linecap:round;fill-rule:evenodd">
<path style="fill:#e6ddef;stroke:#261933;stroke-width:1.583" id="path2504" d="m 5.2069,39.374 c -3.04067,-4.95118 -4.66891,-11.7027 -2.5025,-18.7283 1.63688,-5.30841 7.73001,-14.307 19.3742,-14.2885 12.2464,0.01947 19.9008,10.5111 20.2622,18.4862 0.378918,8.36132 -3.04067,18.2171 -13.4005,22.361"/>
<path style="fill:#a096aa;stroke:#000;stroke-linejoin:round;stroke-width:1.31" id="path5015" d="m 27.9035,46.2412 c -5.70016,1.05416 -19.9944,-3.25022 -22.5765,-11.054 3.4712,-6.72714 2.97966,-11.4756 5.00499,-16.3066 0.921343,-2.19769 2.44868,-2.61013 4.19774,-4.52064 -0.18836,-0.295995 -0.403628,-0.887984 -0.726532,-1.53379 -0.322903,-0.645805 -1.14317,-2.29664 -1.29161,-2.98685 -0.612226,-2.84674 0.03715,-6.93705 0.807257,-7.18459 0.736777,-0.236822 1.72215,3.95556 4.03628,6.78096 2.31413,-0.080728 3.71339,-0.269085 5.73153,1.21088 0.887982,-4.97809 0.870361,-8.35994 0.484354,-9.84853 -0.234407,-0.903965 3.58385,2.74023 4.35919,4.52064 0.677723,1.55625 0,3.65957 0,5.48935 0,1.82978 -3.09449,-0.02691 -2.50249,1.04943 0.591989,1.07635 1.74047,2.42927 2.90613,2.90613 1.20229,0.491849 3.19012,-0.195187 4.03628,0.72653 2.16759,2.36113 3.31008,6.68091 5.6508,9.36418 2.07228,2.37555 6.80942,3.75935 7.58821,5.3279 1.54972,3.12123 0.693524,6.46863 -1.04943,8.23402 -1.96343,1.98871 -4.89736,1.66833 -7.58822,0.322902 -2.69086,-1.34542 -3.74029,-2.31413 -5.00499,-3.39048 -1.2647,-1.07635 -3.00261,-1.55475 -5.00499,-1.61451 -2.63681,-0.0787 -5.40461,1.24728 -7.58822,-0.807258 -2.18361,-2.05454 -1.07635,-5.83915 -1.77597,-8.87982 0.107633,11.6515 3.4443,9.47182 6.78096,11.0594 -0.53817,5.30099 -1.11651,7.04051 3.26958,9.51606 z "/>
</g>
</svg>
