<svg width="48" version="1.1" xmlns="http://www.w3.org/2000/svg" height="48">
<path style="fill:#ccaa7d" d="m 6,4.1217 h 36 c 1.662,0 3,1.338 3,3 v 34.8783 c 0,1.662 -1.338,3 -3,3 h -36 c -1.662,0 -3,-1.338 -3,-3 v -34.8783 c 0,-1.662 1.338,-3 3,-3 z "/>
<rect width="39.956085" x="3.9800367" y="9.9614334" rx="2.8540061" ry="2.9198806" height="11.679523" style="fill:#3c2510"/>
<g style="fill:#ccaa7d;stroke-width:1.022">
<path d="m 6.1312,4.1614 c -3.12339,0.058728 -3.13123,0.0073 -3.13123,2.91327 v 11.653 c 0,2.92589 0.127445,2.84767 3.13047,2.91327 l 18.7882,-1.3709 v -17.0798 Z "/>
<path d="m 42.1312,4.1614 c 2.80376,0.058728 2.86876,0.066026 2.86876,2.91327 v 11.653 c 0,2.99149 -0.245952,2.97887 -2.86876,2.91327 l -17.2126,-1.3709 v -17.0798 Z "/>
</g>
<path style="opacity:.5;fill:#3a240f" d="m 26.9785,3.2781 -5.8984,0 .0293,12.3137 .0655,14.8088 2.7675,-.2532 2.9412,-.2688 .0159,-2.8408 .0496,-11.446 .0293,-12.3137 z "/>
<path style="fill:#d8cab2" d="m 26.9492,3.216 -2.9492,-.216 l -2.9492,.216 .0293,12.5563 .0655,14.1417 2.7675,-.2418 2.9412,-.2567 .0159,-2.7128 .0496,-10.9304 .0293,-12.5563 z "/>
<g style="stroke-width:1.087">
<rect width="0.48664677" x="23.513353" y="3.2092094" height="20.545557" style="opacity:.2;fill:#8d6137"/>
<rect width="0.48664677" x="24" y="3.2092094" height="20.545557" style="opacity:.2;fill:#fff"/>
</g>
<path style="opacity:.1;fill:#8d6137;stroke-linecap:round;stroke-width:.1" d="m 21.1116,20.5478 5.787,-.109 -.0054,1.1912 -5.786,-.0013 z "/>
</svg>
