<svg width="48" version="1.0" xmlns="http://www.w3.org/2000/svg" height="48" xmlns:xlink="http://www.w3.org/1999/xlink">
<defs id="defs4"/>
<g style="stroke:none" id="layer1">
<path style="fill:#559c2c" id="path3766" d="m 6.6047,2.0039 c -2.58618,0.261073 -4.60465,2.45901 -4.60465,5.11628 v 33.7674 c 0,2.83442 2.28186,5.11628 5.11628,5.11628 h 33.7674 c 2.83442,0 5.11628,-2.28186 5.11628,-5.11628 v -33.7674 c 0,-2.83442 -2.28186,-5.11628 -5.11628,-5.11628 h -33.7674 c -0.177151,0 -0.339216,-0.017405 -0.511628,0 z "/>
<path style="opacity:.5" id="path2993" d="m 23.3285,7.1429 c 0.74936,-0.015165 1.55038,-0.018601 2.27035,0 0.959952,0.024801 1.85327,0.060107 2.59012,0.159884 2.94738,0.3991 8.47965,2.23929 8.56977,5.88372 0.09012,3.64443 -2.93978,5.41953 -6.58721,7.57849 -3.66577,2.19434 -2.94084,4.70549 -2.94186,6.875 h -7.4186 v -2.17442 c 0,-3.25426 3.05926,-4.73771 5.94767,-7.4186 2.90645,-2.69764 3.02015,-4.80832 2.2064,-5.94768 -0.813756,-1.13935 -2.83437,-1.43561 -4.28488,-1.375 -1.45051,0.06062 -2.24961,0.281245 -3.03779,0.799419 -0.788178,0.518172 -1.2228,1.16054 -1.47093,1.66279 -0.248126,0.502252 -0.30949,1.38383 -0.639535,1.85465 -0.330044,0.47082 -1.22574,1.4863 -4.22093,1.21512 -2.99519,-0.271189 -3.82498,-2.8741 -2.43023,-5.27616 1.39474,-2.40206 4.31709,-3.00271 6.07558,-3.38953 0.989152,-0.217593 3.12402,-0.402194 5.37209,-0.447674 z "/>
<path style="fill:#fff" id="path3764" d="m 23.3285,8.1434 c 0.74936,-0.015165 1.55038,-0.018601 2.27035,0 0.959952,0.024801 1.85327,0.060107 2.59012,0.159884 2.94738,0.3991 8.47965,2.23929 8.56977,5.88372 0.09012,3.64443 -2.93978,5.41953 -6.58721,7.57849 -3.66577,2.19434 -2.94084,4.70549 -2.94186,6.875 h -7.4186 v -2.17442 c 0,-3.25426 3.05926,-4.73771 5.94767,-7.4186 2.90645,-2.69764 3.02015,-4.80832 2.2064,-5.94768 -0.813756,-1.13935 -2.83437,-1.43561 -4.28488,-1.375 -1.45051,0.06062 -2.24961,0.281245 -3.03779,0.799419 -0.788178,0.518172 -1.2228,1.16054 -1.47093,1.66279 -0.248126,0.502252 -0.30949,1.38383 -0.639535,1.85465 -0.330044,0.47082 -1.22574,1.4863 -4.22093,1.21512 -2.99519,-0.271189 -3.82498,-2.8741 -2.43023,-5.27616 1.39474,-2.40206 4.31709,-3.00271 6.07558,-3.38953 0.989152,-0.217593 3.12402,-0.402194 5.37209,-0.447674 z "/>
<path style="opacity:.5" id="path3763" d="m 24.4477,31.0937 c 2.91163,0 5.24419,1.7152 5.24419,3.86919 0,2.15399 -2.33255,3.90116 -5.24419,3.90116 -2.91163,0 -5.27616,-1.74717 -5.27616,-3.90116 0,-2.15398 2.36453,-3.86919 5.27616,-3.86919 z "/>
<path style="fill:#fff" id="path3000" d="m 24.4477,32.094 c 2.91163,0 5.24419,1.7152 5.24419,3.86919 0,2.15399 -2.33255,3.90116 -5.24419,3.90116 -2.91163,0 -5.27616,-1.74717 -5.27616,-3.90116 0,-2.15398 2.36453,-3.86919 5.27616,-3.86919 z "/>
</g>
</svg>
