<svg xmlns:xlink="http://www.w3.org/1999/xlink" version="1.1" width="48" xmlns="http://www.w3.org/2000/svg" height="48">
<defs id="defs2784"/>
<g id="layer1">
<g style="stroke:none">
<path style="stroke-opacity:.629;fill:#edd400;stroke-width:2.062" id="path4648" d="m -25.9062,41.5043 c -0.309375,-0.113093 -0.934311,-0.543664 -1.38875,-0.95682 -0.743331,-0.67581 -0.999093,-0.70767 -2.54863,-0.317494 -1.92099,0.483709 -4.36735,0.04752 -5.52434,-0.98499 -0.52517,-0.468667 -0.757124,-0.489814 -1.21397,-0.110662 -3.4412,-0.433742 -0.167278,-15.6742 1.77587,-15.7524 0.299795,-2.7517 5.12818,-8.0196 6.08977,-8.0196 0.178312,0 0.737916,0.911529 1.24356,1.37559 0.505648,0.464062 0.981257,0.675 1.05691,0.46875 0.413705,-1.12791 1.69226,-2.8125 2.13461,-2.8125 0.281082,0 0.809976,0.662879 1.17532,1.47307 0.427535,0.948103 1.06713,1.63994 1.79474,1.94132 1.17353,0.486091 1.4655,0.31113 2.50916,-1.50357 0.625492,-1.0876 1.40784,-0.11788 1.66412,2.06266 0.27918,2.37538 0.713729,3.15152 1.76449,3.15152 0.380069,0 1.26325,0.502409 1.96262,1.11647 0.699371,0.614056 1.38024,1.00781 1.51305,0.875 1.22059,3.15663 1.35645,5.43146 0.01098,12.9031 -0.480835,-0.480835 -2.13582,1.06462 -2.80043,2.6151 -0.650236,1.51694 -0.783313,1.61538 -2.18363,1.61538 -0.820158,0 -1.60531,-0.184642 -1.74478,-0.410314 -0.286725,-0.463931 -0.917962,-0.346211 -4.06763,0.758569 -2.3574,0.826883 -2.3602,0.827325 -3.22304,0.511909 z " transform="matrix(0.91154489,0,0,0.91154489,45.494765,3.2077177)"/>
<path style="fill:#3b48b5;stroke-width:0" id="path2790" d="m 23.8258,3.6954 c -7.94282,-0.0621589 -15.3584,4.85205 -16.6793,12.3507 -0.243686,1.38343 -0.461014,2.01013 -1.18313,2.85683 -2.88086,1.42599 -4.96338,5.24336 -4.96338,9.72476 0.162968,4.47116 3.03747,11.1747 8.39735,10.3596 0.114118,-0.297384 0.200163,-5.73234 0.201998,-12.0622 0.00333,-11.4633 0.010427,-11.4991 0.83685,-13.2742 2.42311,-5.20448 9.36429,-8.36948 15.8713,-7.27193 4.74723,0.800723 8.84011,3.59184 10.677,7.32964 0.831844,1.69265 0.930975,2.96324 0.981134,8.13764 l .043,17.24 c 4.90716,0 8.09468,-5.03693 8.09468,-10.5163 0,-3.37324 -1.29223,-6.34351 -3.26083,-8.13764 -0.02998,-0.02733 -0.05628,-0.0598 -0.08657,-0.08657 -0.283987,-0.347357 -0.551944,-0.672501 -0.836849,-0.923419 -1.27026,-1.11873 -1.48595,-1.49589 -1.70256,-3.23197 -0.543071,-4.35262 -3.81753,-8.46099 -8.48392,-10.677 -2.55774,-1.21467 -5.25917,-1.79726 -7.90678,-1.81798 z "/>
</g>
<path style="fill:#fe0a00;fill-opacity:.953" id="path3365" d="m -24.0478,14.5205 c -0.03144,0.01993 -0.08658,0.121099 -0.125,0.28125 -0.573947,2.39223 -1.76909,13.4495 -2.21875,15.9375 -0.02998,0.07541 -0.07095,0.180832 -0.09375,0.21875 -0.04745,0.07893 -0.107941,0.02139 -0.1875,-0.15625 -0.0064,-0.01431 -0.02466,-0.04679 -0.03125,-0.0625 -0.564498,-2.93649 -1.76286,-17.0025 -2.0625,-13.5938 -0.337942,3.84449 -0.745624,10.8569 -1.0625,12.9375 -0.315916,2.07431 -1.14069,-13.4125 -1.5625,-10.3125 -0.42259,3.10581 -0.615905,8.95498 -1,10.375 -0.364645,1.34811 -0.784553,-7.95969 -1,-8.28125 -0.215445,-0.321558 -0.568977,6.29013 -0.8125,7.15625 -0.207669,0.738603 -0.399439,-1.09689 -0.6875,-2.53125 -0.217806,-1.08453 -0.423184,2.04548 -0.5625,4.21875 -0.04524,0.320857 -0.102691,0.782366 -0.125,0.875 -0.03223,0.133816 -0.108301,-0.298947 -0.21875,-0.84375 -0.184459,-2.0039 -0.512653,-4.7582 -1.125,-4.25 0.0078,1.11297 -0.0373,2.62897 -0.125,4.21875 -0.20841,1.71914 -0.5825,3.71713 -0.59375,4.375 0.104992,0.0295 0.208904,-0.05148 0.3125,-0.15625 -0.160126,2.3345 -0.305472,4.43979 -0.3125,5.34375 0.610861,0.377535 1.25,-5.15782 1.25,-5.71875 0,-0.560935 1.36729,6.87309 1.5,3.75 0.132709,-3.16869 0.257413,-5.62317 0.9375,-0.03125 0.675313,5.55268 0.480055,-12.2835 1.625,-2.375 1.14956,9.9484 1.23752,0.628396 1.25,-2.53125 0.01248,-3.20525 1.55977,9.33303 2,4.28125 0.440233,-5.09739 0.36732,-5.27473 0.75,-6.71875 0.77016,4.14351 1.24736,5.31269 1.65625,7.8125 0.408886,2.49981 0.513723,3.37657 0.96875,-3.34375 0.455028,-6.67471 0.741655,-0.335467 0.90625,2.8125 0.164594,3.19357 0.422724,4.88456 1.5625,-2.25 1.15108,-6.57856 1.2283,-3.08828 1.4375,0.03125 0.209379,3.12224 0.330539,6.52792 0.90625,3.59375 0.57571,-2.93417 1.38904,-7.95563 1.5,-7.6875 0.726926,1.75652 0.857151,5.79628 1.375,6.59375 0.215688,-0.554684 0.494858,-5.5484 1.53125,-6.34375 0.356259,-0.273401 0.438614,1.83158 0.71875,3.75 0.273615,1.87375 0.563795,2.68973 0.875,0.34375 0.311204,-2.34598 0.850607,-4.92049 1,-4.3125 0.138849,0.56508 0.674557,3.63794 0.875,3.4375 0.277411,-0.277414 0.388867,-3.57726 1.03125,-1.96875 0.839334,2.10167 1.0513,0.447798 0.96875,-1.71875 0.01476,-0.276456 0.02196,-0.60005 -0.03125,-0.9375 -0.0084,-0.05357 -0.02141,-0.102658 -0.03125,-0.15625 -0.129382,-1.67652 -0.373086,-3.3338 -0.65625,-3.71875 -0.182409,0.722634 -0.106012,3.34375 -0.5,3.34375 -0.393988,0 -0.19024,-7.44078 -0.65625,-6 -0.470518,1.45472 -0.46866,3.32964 -0.96875,5.15625 -0.319217,-1.6471 -0.474096,-7.44648 -0.96875,-6.5625 -0.494655,0.883979 -0.828781,4.94164 -1.90625,6.59375 -0.481631,-2.70085 -0.305735,-3.924 -0.53125,-7.40625 -0.225515,-3.48225 -0.779741,-7.06312 -1.03125,-4.5625 -0.251012,2.49567 -0.383733,10.7894 -0.8125,8.28125 -0.428769,-2.50819 -0.41953,6.48589 -0.96875,2.6875 -0.550115,-3.80458 -0.920816,-11.2046 -1.4375,-9.46875 -0.516684,1.73584 -1.39008,10.3751 -1.875,10.0938 -0.454616,-0.263784 -0.184671,-14.7989 -0.65625,-14.5 z " transform="matrix(0.91154489,0,0,0.91154489,45.494765,3.2077177)"/>
<g style="fill:none;fill-rule:evenodd;stroke:#3b48b5;stroke-linecap:round;stroke-width:1.977">
<path id="path3783" d="m 11.4038,17.8184 0,21.2645"/>
<path id="path3785" d="m 35.7508,17.6858 0,21.2645"/>
</g>
</g>
</svg>
