<svg width="48" version="1.1" xmlns="http://www.w3.org/2000/svg" height="48">
<g style="text-align:start;stroke:none" id="g10">
<circle cx="24" cy="24" style="fill:#537a9d;stroke-width:.88" id="path3654" r="24"/>
<path style="font-variant-caps:normal;font-variant-numeric:normal;font-feature-settings:normal;font-family:Arial;font-variant-ligatures:normal;word-spacing:0;line-height:25;fill-opacity:.957;font-weight:bold;stroke-width:1.155;letter-spacing:0" id="path4490" d="m 19.1621,18.2855 -5.7523,-1.0376 c 1.56002,-5.18187 5.98453,-6.78111 10.3767,-6.81254 3.70361,-0.0265 8.87889,0.987049 9.26962,6.08017 0.520085,6.77926 -0.499221,12.7986 2.18988,18.4179 h -6.27114 c -0.355395,-0.992594 -0.546297,-1.18715 -0.834648,-2.1552 -2.11373,1.99098 -4.75318,2.75935 -7.4216,2.69659 -4.45146,-0.10471 -7.89007,-2.92526 -7.96299,-7.08324 -0.1391,-7.93129 7.92917,-6.75937 13.6178,-9.0909 -0.06691,-3.38227 -0.480131,-4.0674 -3.03811,-4.01534 -2.2082,0.04494 -3.53483,1.22511 -4.17325,3.00022 z m 7.2118,5.1432 c -3.34805,1.24025 -6.7719,0.504103 -6.70163,4.30859 0.07754,4.19902 4.95037,3.33236 6.4535,0.04511 0.338391,-1.67893 0.248139,-2.69189 0.248139,-4.3537 z"/>
<path style="font-family:'Circulate BRK';fill:#f0f0f0;line-height:125%;stroke-width:.528;font-size:56px" id="path4495" d="m 5,24 c 1.7e-6,2.64318 0.497742,5.11473 1.49322,7.41464 0.995483,2.29991 2.3514,4.30804 4.06775,6.02439 1.71634,1.71634 3.72447,3.07226 6.02439,4.06775 C 18.88526,42.502255 21.3568,42.99999 24,43 c 2.60884,-1.1e-5 5.06321,-0.49775 7.36314,-1.49322 2.33421,-0.99549 4.3595,-2.35141 6.07588,-4.06775 1.71632,-1.71636 3.07223,-3.72448 4.06775,-6.02439 C 42.502216,29.11474 42.99996,26.64319 42.99999,24 42.999952,21.39116 42.502212,18.93678 41.50677,16.63686 40.511251,14.30265 39.15534,12.27735 37.43902,10.56098 35.72264,8.84466 33.69735,7.48874 31.36314,6.49323 29.0632,5.497775 26.60883,5.00003 24,5.00001 21.35681,5.0000387 18.88527,5.49778 16.58536,6.49323 14.28545,7.488741 12.27732,8.84466 10.56097,10.56098 8.84461,12.27736 7.4887,14.30265 6.49322,16.63686 5.497737,18.93679 5,21.39117 5,24"/>
<g style="font-variant-caps:normal;font-feature-settings:normal;font-variant-numeric:normal;font-family:Arial;font-variant-ligatures:normal;word-spacing:0;line-height:25;stroke-width:1.253;letter-spacing:0" id="g7">
<path style="opacity:.75;fill:#001a32;font-weight:bold" id="path4504" d="m 14.2743,15.851 c -1.36326,-0.52839 -0.568687,-2.92779 0.716086,-3.76879 2.31362,-1.51448 5.43906,-1.84807 8.77808,-1.85187 4.01819,-0.0046 9.6328,1.07086 10.0567,6.59644 0.564245,7.35489 -0.541611,12.2579 2.37582,18.3544 v 1.00034 c -3.95618,-4.63214 -11.289,-0.361768 -15.7609,-0.412981 -4.82944,-0.113601 -8.80742,-2.48697 -8.63913,-7.68468 0.288426,-8.908 8.60244,-7.33331 14.7741,-9.86281 -0.0372,-2.00594 -0.456773,-2.60501 -3.29608,-2.72886 -5.00216,-0.218196 -7.02488,1.12622 -9.00466,0.358872 z  m 12.3013,6.8485 c -3.63234,1.34556 -7.34691,0.546905 -7.27067,4.67442 0.08412,4.55556 5.37071,3.61531 7.00147,0.04894 0.367125,-1.82148 0.269209,-2.92046 0.269209,-4.72338 z "/>
<path style="fill:#3f709d;font-weight:bold" id="path4498" d="m 14.2743,16.1514 c -1.22485,-0.989762 -0.800118,-2.64583 0.554606,-3.36878 2.05987,-1.09924 5.60054,-1.54818 8.93956,-1.55198 4.01819,-0.0046 9.6328,1.07086 10.0567,6.59644 0.564245,7.35489 -0.541611,12.2579 2.37582,18.3544 h -6.80363 c -2.94116,-3.15574 -4.48539,0.638573 -8.95729,0.58736 -4.82944,-0.113601 -8.56002,-3.17365 -8.63913,-7.68468 -0.150911,-8.60474 8.60244,-7.33331 14.7741,-9.86281 -0.0372,-2.00594 -0.456773,-2.60501 -3.29608,-2.72886 -5.00216,-0.218196 -7.35317,0.993485 -9.00466,-0.341033 z  m 12.3013,7.5484 c -3.63234,1.34556 -7.34691,0.546905 -7.27067,4.67442 0.08412,4.55556 5.37071,3.61531 7.00147,0.04894 0.367125,-1.82148 0.269209,-2.92046 0.269209,-4.72338 z "/>
</g>
<path style="opacity:.75;font-family:'Circulate BRK';fill:#001a32;line-height:125%;stroke-width:.528;font-size:56px" id="path4493" d="m 24,5 c -2.64319,2.88e-5 -5.11372,0.497168 -7.41363,1.49262 -2.29991,0.995511 -4.30981,2.35128 -6.02615,4.0676 C 8.84386,12.2766 7.4881,14.30164 6.49262,16.63585 5.497137,18.93578 5,21.39116 5,24 c 1e-7,0.215851 0.024286,0.423482 0.030925,0.637045 -0.030926,-8.63705 7.42028,-18.3633 18.9691,-18.337 11.5488,0.026293 19,9.7 18.9691,18.337 0.0066,-0.213564 0.03092,-0.421194 0.03092,-0.637045 -3.8e-5,-2.60884 -0.497176,-5.06422 -1.49262,-7.36415 -0.995514,-2.33421 -2.35127,-4.35926 -4.0676,-6.07563 C 35.723445,8.8439 33.698405,7.48813 31.364195,6.49262 29.064255,5.497165 26.608885,5.00002 24.000045,5 Z"/>
</g>
</svg>
