<svg width="48" version="1.1" xmlns="http://www.w3.org/2000/svg" height="48" xmlns:xlink="http://www.w3.org/1999/xlink">
<defs>
<linearGradient id="linearGradient2">
<stop offset="0" style="stop-color:#3b48b5"/>
<stop offset="0.42" style="stop-color:#3b48b5"/>
<stop offset="0.43" style="stop-color:#5a67c8"/>
<stop offset="1" style="stop-color:#3842a9"/>
</linearGradient>
<linearGradient gradientTransform="translate(0.448354)" xlink:href="#linearGradient2" id="linearGradient3" y1="3.6953609" x1="23.825792" y2="39.086239" x2="23.709616" gradientUnits="userSpaceOnUse"/>
</defs>
<path style="fill:#edd400" d="m 22.3285,41.0408 c -0.282009,-0.103089 -0.851667,-0.495574 -1.26591,-0.872184 -0.67758,-0.616031 -0.910718,-0.645073 -2.32319,-0.28941 -1.75107,0.440922 -3.98104,0.04332 -5.03568,-0.897863 -0.478716,-0.427211 -0.690152,-0.446487 -1.10659,-0.100873 -3.13681,-0.395375 -0.152481,-14.2877 1.61878,-14.359 0.273277,-2.5083 4.67457,-7.31022 5.5511,-7.31022 0.162539,0 0.672644,0.830899 1.13356,1.25391 0.460921,0.423013 0.89446,0.615293 0.963421,0.427286 0.37711,-1.02814 1.54257,-2.56372 1.94579,-2.56372 0.256218,0 0.738329,0.604244 1.07136,1.34277 0.389717,0.864238 0.972736,1.49488 1.63599,1.7696 1.06973,0.443094 1.33587,0.283609 2.28721,-1.37057 0.570164,-0.991397 1.28331,-0.107453 1.51692,1.88021 0.254485,2.16527 0.650596,2.87275 1.60841,2.87275 0.34645,0 1.15151,0.457968 1.78902,1.01771 0.637508,0.55974 1.25815,0.918664 1.37921,0.797602 1.11262,2.87741 1.23647,4.95102 0.01001,11.7618 -0.438302,-0.438303 -1.94689,0.970449 -2.55272,2.38378 -0.592719,1.38276 -0.714025,1.47249 -1.99048,1.47249 -0.747611,0 -1.46331,-0.168309 -1.59044,-0.374019 -0.261363,-0.422894 -0.836764,-0.315587 -3.70783,0.691469 -2.14888,0.753741 -2.15143,0.754144 -2.93794,0.466628 z "/>
<path style="fill:url(#linearGradient3)" d="m 24.2742,3.6954 c -7.94282,-0.062159 -15.3584,4.85205 -16.6793,12.3507 -0.243686,1.38343 -0.461014,2.01013 -1.18313,2.85683 -2.88086,1.42599 -4.96338,5.24336 -4.96338,9.72476 0.162968,4.47116 3.03747,11.1747 8.39735,10.3596 0.114118,-0.297384 0.200163,-5.73234 0.201998,-12.0622 0.0033,-11.4633 0.01043,-11.4991 0.83685,-13.2742 2.42311,-5.20448 9.36429,-8.36948 15.8713,-7.27193 4.74723,0.800723 8.84011,3.59184 10.677,7.32964 0.831844,1.69265 0.930975,2.96324 0.981134,8.13764 l .043,17.24 c 4.90716,0 8.09468,-5.03693 8.09468,-10.5163 0,-3.37324 -1.29223,-6.34351 -3.26083,-8.13764 -0.02998,-0.02733 -0.05628,-0.0598 -0.08657,-0.08657 -0.283987,-0.347357 -0.551944,-0.672501 -0.836849,-0.923419 -1.27026,-1.11873 -1.48595,-1.49589 -1.70256,-3.23197 -0.543071,-4.35262 -3.81753,-8.46099 -8.48392,-10.677 -2.55774,-1.21467 -5.25917,-1.79726 -7.90678,-1.81798 z "/>
<path style="fill:#fe0a00;fill-opacity:.953;stroke-width:.912" d="m 24.0225,16.4438 c -0.02866,0.01817 -0.07892,0.110387 -0.113943,0.256372 -0.523179,2.18062 -1.6126,12.2598 -2.02249,14.5277 -0.02733,0.06874 -0.06467,0.164836 -0.08546,0.1994 -0.04325,0.07195 -0.09839,0.0195 -0.170915,-0.142428 -0.0058,-0.01304 -0.02248,-0.04265 -0.02848,-0.05697 -0.514566,-2.67674 -1.60693,-15.4985 -1.88006,-12.3914 -0.308049,3.50443 -0.679669,9.89655 -0.968516,11.7931 -0.287972,1.89083 -1.03979,-12.2261 -1.42429,-9.40031 -0.38521,2.83109 -0.561425,8.16287 -0.911545,9.45728 -0.33239,1.22886 -0.715155,-7.25561 -0.911545,-7.54873 -0.196388,-0.293114 -0.518648,5.73374 -0.74063,6.52324 -0.1893,0.673269 -0.364107,1 -0.626687,-2.30735 -0.19854,-0.988598 -0.385751,1.86455 -0.512744,3.84558 -0.04124,0.292475 -0.09361,0.713161 -0.113943,0.797601 -0.02938,0.12198 -0.09872,-0.272503 -0.199401,-0.769116 -0.168142,-1.82664 -0.467306,-4.33731 -1.02549,-3.87406 0.0071,1.01452 -0.034,2.39642 -0.113943,3.84558 -0.189975,1.56707 -0.530975,3.38833 -0.54123,3.98801 0.0957,0.02689 0.190426,-0.04693 0.284858,-0.142428 -0.145962,2.128 -0.278451,4.04707 -0.284858,4.87107 0.556828,0.34414 1.13943,-4.70159 1.13943,-5.2129 0,-0.511317 1.24635,6.26513 1.36732,3.41829 0.12097,-2.8884 0.234643,-5.12577 0.854573,-0.02849 0.615578,5.06152 0.437592,-11.197 1.48126,-2.16492 1.04788,9.06841 1.12805,0.572811 1.13943,-2.30735 0.01138,-2.92173 1.4218,8.50748 1.82309,3.90255 0.401292,-4.6465 0.334828,-4.80815 0.683658,-6.12444 0.702036,3.77699 1.13703,4.84276 1.50975,7.12145 0.372718,2.27869 0.468282,3.07789 0.88306,-3.04798 0.414778,-6.0843 0.676051,-0.305793 0.826087,2.56372 0.150035,2.91108 0.385332,4.4525 1.42429,-2.05098 1.04926,-5.99665 1.11965,-2.81511 1.31035,0.02849 0.190858,2.84606 0.301301,5.95049 0.826087,3.27587 0.524786,-2.67463 1.26617,-7.25191 1.36732,-7.0075 0.662625,1.60115 0.781331,5.28357 1.25337,6.0105 0.196609,-0.505619 0.451085,-5.05761 1.3958,-5.78261 0.324746,-0.249217 0.399816,1.66957 0.655173,3.41829 0.249412,1.70801 0.513924,2.45181 0.797602,0.313343 0.283676,-2.13847 0.775366,-4.48525 0.911545,-3.93104 0.126567,0.515096 0.614889,3.31615 0.797601,3.13343 0.252873,-0.252875 0.35447,-3.26083 0.940031,-1.7946 0.765091,1.91577 0.958307,0.408188 0.883059,-1.56672 0.01346,-0.252002 0.02002,-0.546973 -0.02849,-0.854574 -0.0077,-0.04883 -0.01952,-0.09358 -0.02849,-0.142429 -0.117938,-1.52822 -0.340085,-3.03891 -0.598202,-3.38981 -0.166274,0.658713 -0.09663,3.04798 -0.455772,3.04798 -0.359138,0 -0.173412,-6.78261 -0.598202,-5.46927 -0.428898,1.32604 -0.427204,3.03512 -0.883059,4.70015 -0.29098,-1.5014 -0.432159,-6.7878 -0.883059,-5.98201 -0.4509,0.805786 -0.755471,4.50453 -1.73763,6.0105 -0.439028,-2.46195 -0.278691,-3.5769 -0.484258,-6.75113 -0.205567,-3.17423 -0.710769,-6.43835 -0.940031,-4.15892 -0.228809,2.27492 -0.34979,9.83502 -0.74063,7.54873 -0.390843,-2.28633 -0.382421,5.91218 -0.883059,2.44978 -0.501455,-3.46805 -0.839366,-10.2135 -1.31035,-8.63119 -0.470981,1.5823 -1.26712,9.45737 -1.70915,9.20095 -0.414403,-0.240451 -0.168336,-13.4899 -0.598201,-13.2174 z "/>
<g style="stroke-linecap:round;stroke:#3b48b5;fill-rule:evenodd;fill:none;stroke-width:1.977">
<path d="m 11.9885,17.8184 v 21.2645"/>
<path d="m 36.1992,17.6858 v 21.2645"/>
</g>
</svg>
