<svg width="96" version="1.0" xmlns="http://www.w3.org/2000/svg" height="96">
<g id="layer1">
<path style="fill:#343434;stroke:none" id="rect2419" d="M 12,6 C 6.1462996,6 6,6.1462996 6,12 l 0,72 c 0,5.986842 -0.1199846,6 6,6 l 72,0 c 5.986842,0 6,-0.279442 6,-6 L 90,12 C 90,6.0131575 89.720558,6 84,6 z m -2,4 6,0 0,4 -6,0 z m 70,0 6,0 0,4 -6,0 z m -70,8 6,0 0,4 -6,0 z m 70,0 6,0 0,4 -6,0 z m -70,8 6,0 0,4 -6,0 z m 70,0 6,0 0,4 -6,0 z m -70,8 6,0 0,4 -6,0 z m 70,0 6,0 0,4 -6,0 z m -70,8 6,0 0,4 -6,0 z m 70,0 6,0 0,4 -6,0 z m -70,8 6,0 0,4 -6,0 z m 70,0 6,0 0,4 -6,0 z m -70,8 6,0 0,4 -6,0 z m 70,0 6,0 0,4 -6,0 z m -70,8 6,0 0,4 -6,0 z m 70,0 6,0 0,4 -6,0 z m -70,8 6,0 0,4 -6,0 z m 70,0 6,0 0,4 -6,0 z m -70,8 6,0 0,4 -6,0 z m 70,0 6,0 0,4 -6,0 z"/>
</g>
<g id="layer4" transform="translate(0,-8.5149088)">
<path style="fill:#4c86c1;stroke:none;color:#000" id="path3751" d="m 80,48 a 32,32 0 1 1 -64,0 32,32 0 1 1 64,0 z" transform="matrix(0.875,0,0,0.875,6,6)"/>
<path style="opacity:.1;fill:#00086e;stroke:none;color:#000" id="path3846" d="m 117.4688,32.3438 c -0.27561,-0.02085 -0.5653,0.05315 -0.90625,0.25 -0.68178,0.393624 -0.74553,0.885189 -0.90625,1.46875 -0.16072,0.583561 -0.27813,1.30043 -0.375,2.125 -0.19375,1.64915 -0.28125,3.72996 -0.28125,5.8125 0,2.08254 0.0875,4.16335 0.28125,5.8125 0.0969,0.824573 0.21428,1.54144 0.375,2.125 0.16072,0.583561 0.22447,1.07513 0.90625,1.46875 0.6819,0.393697 1.13285,0.215079 1.71875,0.0625 0.5859,-0.152579 1.2684,-0.421617 2.03125,-0.75 1.52571,-0.656767 3.38311,-1.61499 5.1875,-2.65625 1.80439,-1.04126 3.57427,-2.1639 4.90625,-3.15625 0.66599,-0.496173 1.19978,-0.944046 1.625,-1.375 0.42522,-0.430954 0.84375,-0.74371 0.84375,-1.53125 0,-0.78754 -0.41853,-1.1003 -0.84375,-1.53125 -0.42522,-0.430954 -0.95901,-0.878827 -1.625,-1.375 -1.33198,-0.992346 -3.10186,-2.11499 -4.90625,-3.15625 -1.80439,-1.04126 -3.66179,-1.99948 -5.1875,-2.65625 -0.76285,-0.328383 -1.44535,-0.597421 -2.03125,-0.75 -0.29295,-0.07629 -0.53689,-0.166647 -0.8125,-0.1875 z " transform="matrix(1.3023256,0,0,1.2604308,-111.90698,-3.9380936)"/>
<path style="fill:#fff;stroke:none;color:#000" id="path3830" d="m 132,42 c 0,1.73205 -13.5,9.52628 -15,8.66025 -1.5,-0.866025 -1.5,-16.4545 0,-17.3205 1.5,-0.866025 15,6.9282 15,8.66025 z " transform="matrix(1.3023256,0,0,1.2604308,-111.90698,-4.9380936)"/>
</g>
<g style="font-family:'Droid Sans Japanese';fill:#fff;stroke:none;word-spacing:0;line-height:125%;letter-spacing:0;font-size:26.87514305px" id="text3832" transform="scale(1.2080229,0.82779888)">
<path id="path4153" d="m 29.4725,95.5781 q -2.92635,0 -4.05489,0.669254 -1.12855,0.669254 -1.12855,2.28334 0,1.28602 0.839849,2.04712 0.85297,0.74799 2.30958,0.74799 2.00776,0 3.21504,-1.41724 1.2204,-1.43037 1.2204,-3.79244 v -0.538028 h -2.40144 z  m 4.816,-.9973 0,8.3854 -2.4146,0 0,-2.2308 q -0.826726,1.3385 -2.06025,1.98151 -1.23353,0.62989 -3.0182,0.62989 -2.25709,0 -3.5956,-1.25977 -1.32539,-1.2729 -1.32539,-3.39876 0,-2.48018 1.65345,-3.73995 1.66657,-1.25977 4.96035,-1.25977 h 3.38564 v -0.236208 q 0,-1.66657 -1.1023,-2.57203 -1.08918,-0.918584 -3.0707,-0.918584 -1.25977,0 -2.45393,0.301821 -1.19416,0.30182 -2.29646,0.905461 v -2.23085 q 1.32539,-0.511782 2.57203,-0.761112 1.24665,-0.262453 2.42769,-0.262453 3.1888,0 4.76351,1.65345 1.57471,1.65345 1.57471,5.01284 z "/>
<path id="path4155" d="m 37.5429,88.2688 2.5589,0 4.5929,12.3353 4.5929,-12.3353 2.5589,0 -5.5115,14.6973 -3.2807,0 -5.5115,-14.6973 z "/>
<path id="path4157" d="m 55.1797,88.2688 2.4146,0 0,14.6973 -2.4146,0 0,-14.6973 z  m 0,-5.7215 2.4146,0 0,3.0576 -2.4146,0 0,-3.0576 z "/>
</g>
</svg>
