<svg width="96" version="1.0" xmlns="http://www.w3.org/2000/svg" height="96">
<rect width="78" x="9" y="9" height="78" style="fill:#fff"/>
<path style="fill:#343434" d="M 12,6 C 6.1462996,6 6,6.1462996 6,12 v 72 c 0,5.986842 -0.1199846,6 6,6 h 72 c 5.986842,0 6,-0.279442 6,-6 V 12 C 90,6.0131575 89.720558,6 84,6 Z m -2,4 h 6 v 4 h -6 z m 70,0 h 6 v 4 h -6 z m -70,8 h 6 v 4 h -6 z m 70,0 h 6 v 4 h -6 z m -70,8 h 6 v 4 h -6 z m 70,0 h 6 v 4 h -6 z m -70,8 h 6 v 4 h -6 z m 70,0 h 6 v 4 h -6 z m -70,8 h 6 v 4 h -6 z m 70,0 h 6 v 4 h -6 z m -70,8 h 6 v 4 h -6 z m 70,0 h 6 v 4 h -6 z m -70,8 h 6 v 4 h -6 z m 70,0 h 6 v 4 h -6 z m -70,8 h 6 v 4 h -6 z m 70,0 h 6 v 4 h -6 z m -70,8 h 6 v 4 h -6 z m 70,0 h 6 v 4 h -6 z m -70,8 h 6 v 4 h -6 z m 70,0 h 6 v 4 h -6 z"/>
<g style="color:#000">
<path style="fill:#4c86c1" d="m 76,39.4851 a 28,28 0 1,1 -56,0 28,28 0 1,1 56,0 z "/>
<path style="opacity:.1;fill:#00086e" d="m 41.0756,28.3141 c -0.358934,-0.02628 -0.736204,0.06699 -1.18023,0.315107 -0.8879,0.496136 -0.970923,1.11572 -1.18023,1.85126 -0.209309,0.735538 -0.362216,1.6391 -0.488372,2.67842 -0.252325,2.07864 -0.366279,4.70136 -0.366279,7.32625 0,2.6249 0.113954,5.24761 0.366279,7.32625 0.126196,1.03932 0.279063,1.94288 0.488372,2.67842 0.20931,0.735538 0.292333,1.35513 1.18023,1.85126 0.888056,0.496228 1.47534,0.271092 2.23837,0.07878 0.763033,-0.192316 1.65187,-0.531419 2.64535,-0.945323 1.98697,-0.82781 4.40591,-2.03558 6.75581,-3.34802 2.3499,-1.31244 4.65486,-2.72745 6.38954,-3.97823 0.867336,-0.625392 1.5625,-1.18991 2.11628,-1.73309 0.553775,-0.543187 1.09884,-0.937395 1.09884,-1.93003 0,-0.99264 -0.545062,-1.38685 -1.09884,-1.93003 -0.553775,-0.543188 -1.24894,-1.1077 -2.11628,-1.73309 -1.73467,-1.25078 -4.03963,-2.6658 -6.38954,-3.97823 -2.3499,-1.31244 -4.76884,-2.52021 -6.75581,-3.34802 -0.993479,-0.413904 -1.88232,-0.753008 -2.64535,-0.945324 -0.381516,-0.09616 -0.699206,-0.210047 -1.05814,-0.23633 z "/>
</g>
<g style="fill:#fff;line-height:125%">
<path style="color:#000" d="m 60,39.4851 c 0,2.18313 -17.5814,12.0072 -19.5349,10.9156 -1.95349,-1.09156 -1.95349,-20.7398 0,-21.8313 1.95349,-1.09156 19.5349,8.73252 19.5349,10.9156 z "/>
<g style="letter-spacing:0;word-spacing:0">
<path d="m 35.6035,79.1194 q -3.5351,0 -4.8984,0.554008 -1.36331,0.554008 -1.36331,1.89015 0,1.06457 1.01456,1.6946 1.03041,0.619186 2.79002,0.619186 2.42542,0 3.88384,-1.17319 1.47427,-1.18406 1.47427,-3.13938 v -0.445379 h -2.90099 z  m 5.8178,-.8256 v 6.94142 h -2.91689 v -1.84665 q -0.998704,1.10801 -2.48883,1.64029 -1.49013,0.521422 -3.64605,0.521422 -2.72662,0 -4.34357,-1.04284 -1.6011,-1.0537 -1.6011,-2.81349 0,-2.05309 1.99741,-3.09593 2.01326,-1.04284 5.99222,-1.04284 h 4.08993 v -0.195533 q 0,-1.37959 -1.3316,-2.12912 -1.31575,-0.760402 -3.70947,-0.760402 -1.52183,0 -2.9644,0.249847 -1.44257,0.249846 -2.77418,0.749539 v -1.84669 q 1.6011,-0.423652 3.10707,-0.630047 1.50598,-0.217259 2.9327,-0.217259 3.85214,0 5.75443,1.36872 1.90229,1.36872 1.90229,4.14962 z "/>
<path d="m 45.3527,73.0688 h 3.09121 l 5.5483,10.2111 5.5483,-10.2111 h 3.09121 l -6.658,12.1664 h -3.96316 l -6.658,-12.1664 Z "/>
<path d="m 66.6583,73.0688 h 2.91689 v 12.1664 h -2.91689 z  m 0,-4.7363 h 2.91689 v 2.53108 h -2.91689 z "/>
</g>
</g>
</svg>
