<svg width="128" version="1.1" xmlns="http://www.w3.org/2000/svg" height="128">
<ellipse cx="51.616669" cy="50.139526" rx="35.493999" ry="34.78648" style="fill:#f5f5f5;fill-rule:evenodd;stroke:none;stroke-linecap:square" id="path4154"/>
<g id="layer1" transform="translate(0,-924.36218)">
<path style="fill:none;stroke:#206794;stroke-width:16.212" id="path4267" d="m 92.8482,976.2634 a 41.7694,41.7695 0 0,1 -41.7694,41.7698 41.7694,41.7695 0 0,1 -41.7694,-41.7698 41.7694,41.7695 0 0,1 41.7694,-41.7695 41.7694,41.7695 0 0,1 41.7694,41.7695 Z "/>
<g style="stroke:none" id="g7">
<g style="fill:#3e659e" id="g4252" transform="matrix(1.1503214,0,0,1.1503214,-9.4079005,-144.89555)">
<path id="path2993" d="m 46.6535,977.5272 c 0.920463,-2.21882 2.14845,-6.00783 6.31737,-6.03663 4.16892,-0.0289 6.12581,3.85873 7.0193,6.45778 3.15017,1.1078 7.04272,2.16134 7.0193,6.87893 -0.02341,4.71748 -6.75777,10.3106 -14.179,10.2481 -7.42121,-0.0623 -14.0764,-4.5158 -14.3194,-10.2481 -0.242937,-5.73233 4.01815,-6.76853 8.14239,-7.30008 z "/>
<ellipse cx="-120.08051" cy="967.35126" rx="2.8779123" ry="3.9308069" id="path3763" transform="matrix(0.98675341,-0.16222731,0.16222731,0.98675341,0,0)"/>
<ellipse cx="52.900692" cy="965.3136" rx="2.8779123" ry="3.9308069" id="path3765"/>
<ellipse cx="-93.34771" cy="965.40649" rx="2.8779123" ry="3.9308069" id="path3767" transform="matrix(0.98969069,-0.14322128,0.14322128,0.98969069,0,0)"/>
<ellipse cx="179.51643" cy="953.39532" rx="2.8779125" ry="3.9308071" id="path3769" transform="matrix(0.99235524,0.12341422,-0.12341422,0.99235524,0,0)"/>
<ellipse cx="245.76746" cy="945.12506" rx="2.8779125" ry="3.9308071" id="path3771" transform="matrix(0.98268165,0.18530185,-0.18530185,0.98268165,0,0)"/>
<path id="path3773" d="m 35.7034,969.104 3.0885,-.9827 c 0,0 -0.792075,-4.61039 -0.280772,-9.12508 -3.30972,4.60494 -2.80772,10.1078 -2.80772,10.1078 z "/>
<path id="path3775" d="m 42.8631,964.1904 2.9481,-.9826 c 0,0 -0.230532,-5.03167 -0.280772,-9.68667 -2.88856,4.46455 -2.66733,10.6693 -2.66733,10.6693 z "/>
<path id="path3777" d="m 50.8651,959.8385 3.0885,0 c 0,0 0.331012,-5.17198 -1.12309,-9.9674 -2.46741,4.74528 -1.9654,9.9674 -1.9654,9.9674 z "/>
<path id="path3781" d="m 63.6363,963.3481 -2.9481,-.9826 c 0,0 0.230532,-5.03167 0.280772,-9.68667 2.88856,4.46455 2.66733,10.6693 2.66733,10.6693 z "/>
<path id="path3783" d="m 70.4919,969.2444 -3.0885,-.9826 c 0,0 0.792075,-4.61041 0.280772,-9.1251 3.30972,4.60486 2.80772,10.1077 2.80772,10.1077 z "/>
</g>
<rect width="20.21718" x="-664.58246" y="770.68286" rx="3.2704234" ry="3.630085" height="55.009571" style="fill:#206794" id="rect4269" transform="matrix(0.70710678,-0.70710678,0.70710678,0.70710678,0,0)"/>
<rect width="20.21718" x="-663.14948" y="769.24988" rx="3.2704234" height="55.009571" ry="3.630085" style="fill:#429cd6" id="rect3755-2" transform="matrix(0.70710678,-0.70710678,0.70710678,0.70710678,0,0)"/>
</g>
<path style="fill:none;stroke:#429cd6;stroke-width:16.212" id="path2985-6" d="m 92.8482,974.2374 a 41.7694,41.7695 0 0,1 -41.7694,41.7694 41.7694,41.7695 0 0,1 -41.7694,-41.7694 41.7694,41.7695 0 0,1 41.7694,-41.7695 41.7694,41.7695 0 0,1 41.7694,41.7695 Z "/>
</g>
</svg>
