<svg width="48" version="1.0" xmlns="http://www.w3.org/2000/svg" height="48" xmlns:xlink="http://www.w3.org/1999/xlink">
<defs id="defs254">
<linearGradient id="linearGradient111009">
<stop offset="0" style="stop-color:#284664" id="stop111010"/>
<stop offset="0.5" style="stop-color:#284664" id="stop6922"/>
<stop offset="1" style="stop-color:#284664;stop-opacity:0" id="stop111011"/>
</linearGradient>
<linearGradient gradientTransform="matrix(0.29854067,0,0,0.29854067,-1.0238656,-1.5929025)" xlink:href="#linearGradient111009" id="linearGradient6920" y1="78.246857" y2="-14.590347" x1="39.723915" x2="86.443604" gradientUnits="userSpaceOnUse"/>
</defs>
<path style="fill:#235f95" id="path3776" d="m 19.2622,19.9452 c -6.62745,0 -12,5.37268 -12,12 0,6.62757 5.37252,12 12,12 6.62687,0 12,-5.37237 12,-12 0,-6.62734 -5.37313,-12 -12,-12 z "/>
<g id="g51">
<path style="fill:#254d7b;fill-rule:evenodd" id="path4558" d="m 11.0927,10.7001 c -2.4896,2.47487 -5.79171,3.7935 -6.53131,7.83087 0.238304,-5.03992 4.26268,-9.09777 7.98972,-12.2503 Z "/>
<path style="fill:#2e7bc2" id="path4261" d="m 19.8788,-.5372 c -0.0053,0 -3.72641,0.63976 -6.81115,5.34676 -4.26305,1.83118 -8.95341,4.81717 -10.8978,9.53561 -1.05917,1.93659 -1.6151,4.52465 -1.66873,7.76472 -0.00827,0.45004 0.034326,0.884825 0.068112,1.32818 l -.0341,-.0341 c 0,0 0.274206,5.60523 2.34985,9.94428 0.00358,0.01242 -0.00361,0.02153 0,0.03406 0.023682,0.04696 0.044382,0.08978 0.068112,0.136223 0.136153,0.276298 0.291026,0.520018 0.442725,0.783283 0.091156,0.165073 0.180868,0.352997 0.272446,0.510836 0.00848,0.0132 0.025534,0.02089 0.034055,0.03406 3.86276,6.62853 8.03716,6.91332 8.03716,6.91332 -1.93865,-1.22473 -3.84948,-3.54023 -5.44892,-5.75543 -2.26897,-4.59134 -2.96863,-11 -2.96285,-11 -0.02656,-0.823104 -0.034055,-1.4644 -0.034055,-1.4644 1.26775,1.88125 2.80676,2.91254 3.2353,2.48607 -0.00446,0 -4.22632,-5.0361 -0.476781,-11.8514 1.16706,-2.12637 2.91978,-4.1543 5.24459,-6.02787 -0.206139,0.506262 -0.393512,1.03437 -0.578949,1.60062 -0.201373,0.321137 -0.385105,0.6658 -0.510836,1.02167 -0.07625,0.150831 -0.122971,0.308835 -0.170279,0.476781 -0.0099,0.03426 -0.02523,0.06728 -0.03406,0.102168 -0.03337,0.135875 -0.04962,0.264893 -0.06811,0.408669 -0.01726,0.125429 -0.02646,0.2445 -0.03406,0.374614 -0.0061,0.11023 -0.03388,0.227929 -0.03406,0.340557 0,0.04689 0,0.08901 0,0.136222 0.0076,0.483597 0.07744,0.984905 0.136222,1.4644 0.02322,0.189328 0.04523,0.397476 0.06811,0.578948 0.05389,0.427379 0.09379,0.812104 0.102168,1.1579 l .0341,.9536 c -0.02971,-0.04849 -0.03418,-0.05408 -0.03406,-0.06811 -0.0026,-0.006 -0.03439,-0.03406 -0.03406,-0.03406 0.0041,0 -0.457537,1.21275 -0.476781,2.45202 -0.01754,0.743559 0.126695,1.48892 0.647059,2.00929 0,0 0.624051,-1.09 1.73685,-1.66873 1.11279,-0.578742 2.13161,-1.1 2.96285,-1.60062 0.831242,-0.500533 3.42829,-2.59949 5.55109,-2.45202 1.25311,1.85819 7.06129,4.06801 11.9876,2.11146 1.74328,4.1205 2.00865,9.43205 -0.578949,12.9071 -0.003,0 2.98558,-0.425621 4.73375,-4.05264 0.01028,0.105323 0.02513,0.199221 0.03406,0.306501 -0.0068,0 -0.0022,0.02959 0,0.03406 -0.822573,12.9532 -8.50216,19.6065 -12.3622,21.3189 4.85562,0.335178 7.82612,-1.36223 7.83283,-1.36223 0.0068,0 -0.652145,0.811667 -2.3839,1.87307 2.17867,0 7.61612,-2.07831 8.68422,-4.25697 l .5449,.2043 c -0.0018,0 6.81649,-4.76667 8.20744,-15.6997 0.0041,-0.01254 0.03281,-0.13276 0.03406,-0.136223 -0.0044,-0.0023 0.02735,0.0023 0.03406,0 0.05007,-0.460402 0.07027,-0.948307 0.102168,-1.43034 0.0015,-0.02284 -0.0014,-0.04522 0,-0.06811 0.01253,-0.175203 0.02436,-0.36681 0.03406,-0.544891 0.0037,-0.07795 -0.0032,-0.159887 0,-0.238391 0.02904,-0.617202 0.04119,-1.25554 0.03406,-1.90712 0,-0.04384 0,-0.09222 0,-0.136223 -0.01063,-0.708984 -0.04446,-1.42967 -0.102168,-2.17957 -0.03074,-0.3995 -0.0571,-0.814784 -0.102168,-1.22601 -0.0093,-0.160859 -0.01718,-0.308348 -0.03406,-0.476781 -0.03907,-0.252534 -0.09102,-0.499534 -0.136224,-0.749226 -0.373616,-2.06352 -0.944896,-4.00733 -1.70279,-5.78948 -3.21866,-6.64156 -8.11359,-9.61076 -13.7971,-11.081 -2.99535,-0.77484 -6.58814,-0.724272 -9.25869,-0.532049 -0.544393,0.056527 -1.02659,0.128195 -1.4644,0.23839 0.06759,-0.03588 0.07036,-0.117279 0.102168,-0.170279 0.15679,-0.195577 -0.09196,0.01839 -0.170279,0.034055 -0.731404,0.123813 -1.4571,0.329792 -2.04335,0.476781 0.445261,-0.675065 1.01527,-1.34911 1.7709,-1.83901 -0.828724,0.349588 -1.76533,1.18806 -2.6223,2.0774 -0.645226,0.181577 -1.28979,0.357679 -2.04335,0.613004 0.573736,-1.12005 1.70681,-2.5942 3.98453,-4.25697 z "/>
<path style="fill:#e8f0f8" id="path4259" d="m 21.8881,6.5805 c -6.93373,6.70358 -4.17006,10.2535 -9.36534,10.4211 -2.16525,-7.20635 3.71646,-7.14302 9.36534,-10.4211 Z "/>
<path id="path187" d="m 14.8385,12.5402 c -0.900165,0.02242 -1.98033,0.474832 -1.87307,1.83901 0.09162,1.28709 1.3778,1.61745 2.24768,0.544891 0.457709,-0.564354 0.694688,-1.4572 0.408669,-2.28174 -0.212281,-0.06927 -0.483228,-0.109635 -0.783283,-0.102168 z "/>
</g>
<g style="fill-rule:evenodd;stroke-width:.312" id="g24">
<path style="fill:#65a2db" id="path5463" d="m 37.5127,25.6439 c -0.238361,2.81673 0.335732,4.89435 -0.04579,7.34152 1.28189,-0.882842 1.64816,-2.4162 2.47223,-3.62429 -0.320472,1.57982 -0.274692,2.92731 -0.961424,4.73945 1.32768,-0.789908 2.15176,-1.90508 2.88427,-3.90308 -0.30521,1.34749 -0.289956,3.02024 -0.915643,4.04248 1.66341,-0.58856 3.06291,-2.48996 4.02882,-4.4142 0.975515,-1.94339 -0.76304,-7.27956 -2.06019,-7.94556 -1.29716,-0.666003 -5.16781,0.993081 -5.40228,3.76369 z"/>
<path style="fill:#86b6e2" id="path6718" d="m 34.7044,20.3738 c 0.633784,2.58266 -0.724659,6.26774 -1.16164,8.71492 4.20274,-1.95992 4.06011,-4.86316 4.64468,-6.35356 0.05244,1.57982 0.869248,2.79629 0.24,4.60844 1.52068,-0.789909 3.82791,-2.64852 4.66691,-4.64653 -0.349584,1.34749 -0.332109,4.78592 -0.576817,5.90109 1.90522,-0.588557 2.35454,-2.0253 3.46086,-5.01825 1.11694,-3.02168 -6.17011,-12.3907 -7.65583,-13.0567 -1.48572,-0.666004 -4.24106,7.31236 -3.61816,9.85064 z"/>
<path style="fill:#b6d3ee" id="path7344" d="m 32.7236,15.1392 c 0.553347,2.58266 2.44171,4.98727 2.0602,7.43445 3.98303,-1.62629 2.70114,-6.55161 3.52521,-7.75971 0.04579,1.57982 0.824073,3.2061 0.732512,5.01825 1.32768,-0.78991 2.79271,-1.99801 2.2891,-5.90109 1.2056,0.882841 2.13649,1.25456 3.75412,3.48489 0.06104,-2.95829 -2.15623,-5.92839 -3.15895,-7.06272 -0.980178,-1.10883 -4.27657,-4.64919 -7.46247,-3.06671 -3.22278,1.6008 -2.28354,5.31435 -1.73972,7.85264 z"/>
</g>
<path style="fill:url(#linearGradient6920)" id="path247" d="m 12.4511,17.9107 c 0,0 -1.30311,-0.161025 -2.30688,-1.25654 -1.46887,3.66326 0.646297,4.94641 0.65214,4.94151 -0.751481,-1.3293 1.02554,-3.07537 1.65474,-3.68497 z "/>
<g style="fill:#f2f7fd">
<path id="path869" d="m 20.0102,29.4969 -4.2102,.7619 v 0.74127 l 2.0189,.2677 -1.3295,5.5389 c -0.123104,0.555953 -0.22159,1.02954 -0.22159,1.37959 0,1.05013 0.615531,1.60609 1.82197,1.60609 1.30492,0 2.65909,-0.288272 4.21023,-0.803043 v -0.844224 c -0.738636,0.185318 -1.32954,0.288271 -1.69886,0.288271 -0.787878,0 -1.20644,-0.391225 -1.20644,-1.1325 0,-0.205908 0.04924,-0.49418 0.123107,-0.844224 l 1.5758,-6.9597 z "/>
<path id="path864" d="m 19.9458,22.963 c -1.28333,0 -2.24583,0.933333 -2.24583,2.21667 0,1.07916 0.787501,1.8375 1.98333,1.8375 1.25417,0 2.21667,-0.962501 2.21667,-2.1875 0,-1.1375 -0.729165,-1.86667 -1.95417,-1.86667 Z "/>
</g>
</svg>
