<svg width="96" version="1.0" xmlns="http://www.w3.org/2000/svg" height="96" xmlns:xlink="http://www.w3.org/1999/xlink">
<defs>
<linearGradient id="linearGradient9320">
<stop offset="0" style="stop-color:#fff38a"/>
<stop offset="1" style="stop-color:#d1bf00"/>
</linearGradient>
<linearGradient gradientTransform="matrix(-1.6124936,-0.930973,-1.4857603,2.5734142,133.07576,-4.3815776)" xlink:href="#linearGradient5739" id="linearGradient7990" y1="38.492577" x1="23.198494" y2="29.909071" gradientUnits="userSpaceOnUse" x2="18.485983"/>
<linearGradient id="linearGradient15303">
<stop offset="0" style="stop-color:#c00"/>
<stop offset="1" style="stop-color:#ff4c4c"/>
</linearGradient>
<linearGradient id="linearGradient5739">
<stop offset="0" style="stop-color:#a88900"/>
<stop offset="1" style="stop-color:#e5ba00;stop-opacity:0"/>
</linearGradient>
<linearGradient gradientTransform="matrix(-1.6124936,-0.930973,-1.4848852,2.5718874,133.01954,-4.2840117)" xlink:href="#linearGradient5739" id="linearGradient7988" y1="37.541862" x1="7.1793013" y2="29.498543" gradientUnits="userSpaceOnUse" x2="10.656019"/>
<linearGradient id="linearGradient11647">
<stop offset="0" style="stop-color:#ffa20f"/>
<stop offset="1" style="stop-color:#ffc466"/>
</linearGradient>
<linearGradient gradientTransform="matrix(-1.6124936,-0.930973,-1.5705123,2.72021,140.5444,-7.8386528)" xlink:href="#linearGradient5739" id="linearGradient7992" y1="37.457359" x1="13.879225" y2="29" gradientUnits="userSpaceOnUse" x2="14.045431"/>
<linearGradient gradientTransform="matrix(-1.6124936,-0.930973,-1.4919866,2.5841948,127.65564,-7.858017)" xlink:href="#linearGradient5739" id="linearGradient7994" y1="37.790447" x1="14.823053" y2="29" gradientUnits="userSpaceOnUse" x2="14.045431"/>
<linearGradient gradientTransform="matrix(1.2049844,0,0,1.2049844,-12.527437,-14.302631)" xlink:href="#linearGradient9320" id="linearGradient6" y1="56.989647" x1="52.375153" y2="69.818169" x2="74.003716" gradientUnits="userSpaceOnUse"/>
<linearGradient gradientTransform="matrix(-1.6124936,-0.930973,-1.6040422,2.7782841,137.07933,-13.008532)" xlink:href="#linearGradient5739" id="linearGradient7996" y1="36.115135" x1="15.003684" y2="29.746326" gradientUnits="userSpaceOnUse" x2="14.595143"/>
<linearGradient gradientTransform="matrix(2.190951,0,0,2.1909533,-97.856256,-50.610544)" xlink:href="#linearGradient15303" id="linearGradient15309" y1="26.524836" x1="-0.50396591" y2="26.581038" x2="10.556646" gradientUnits="userSpaceOnUse"/>
<linearGradient gradientTransform="matrix(-1.8896704,0,0,1.8729687,104.40626,12.631604)" xlink:href="#linearGradient9320" id="linearGradient8582" y1="14.412096" x1="20.306164" y2="19.909122" x2="11.391118" gradientUnits="userSpaceOnUse"/>
<linearGradient gradientTransform="matrix(-1.798502,0.48801977,0.481907,1.8213127,98.282757,1.8331517)" xlink:href="#linearGradient11647" id="linearGradient11653" y1="18.027935" x1="13.952534" y2="14.492402" x2="17.48807" gradientUnits="userSpaceOnUse"/>
</defs>
<g style="color:#000">
<path style="fill:#808080" d="m 12,6 h 72 c 3.324,0 6,2.676 6,6 v 71.887093 c 0,3.324 -2.676,6 -6,6 H 12 c -3.324,0 -6,-2.676 -6,-6 V 12 C 6,8.676 8.676,6 12,6 Z"/>
<path style="opacity:.4" d="m 46,18.4 c -13.2548,0 -24,9.40202 -24,21 0,11.598 10.7452,21 24,21 4.20692,0 20.094,-7.931 20.094,-7.931 l 0.7075,-1.0884 -16.3953,-8.4493 c -1.0944,1.04825 -2.65388,1.71875 -4.40625,1.71875 -3.31371,0 -6,-2.35051 -6,-5.25 0,-2.89949 2.68629,-5.25 6,-5.25 1.76972,0 3.34182,0.68358 4.4375,1.75 0.06508,-0.0711 0.138531,-0.13406 0.21875,-0.1875 l 15.4378,-6.1816 0.8473,-0.4808 -0.8475,-1.1189 C 61.80925,22.19689 54.4139,18.4 46,18.4 Z m 23.7812,10.5 -16.5938,8.4375 1,1.0375 11.7188,9.5562 3.875,1.9688 c 4.28719,-6.49742 4.28719,-14.5026 0,-21 z"/>
<path style="fill:#ebebeb" d="m 46,20 c -13.2548,0 -24,9.40202 -24,21 0,11.598 10.7452,21 24,21 8.41385,0 15.8094,-3.79664 20.094,-9.531 L 50.4062,44.5313 c -1.0944,1.04825 -2.65388,1.71875 -4.40625,1.71875 -3.31371,0 -6,-2.35051 -6,-5.25 0,-2.89949 2.68629,-5.25 6,-5.25 1.76972,0 3.34182,0.68358 4.4375,1.75 L 66.094,29.531 C 61.80945,23.79664 54.4139,20 46,20 Z M 69.7812,30.5 54.187,38.375 c 0.510532,0.772217 0.8129,1.66873 0.8129,2.625 0,0.956275 -0.301968,1.85278 -0.8125,2.625 L 69.7812,51.5 c 4.28719,-6.49742 4.28719,-14.5026 0,-21 z"/>
</g>
<path style="opacity:.08" d="m -83.0343,-31.7741 c 2.49854,1.40772 4.59819,4.4503 4.25243,7.59942 l -2.2499,19.1744 8.3293,.0458 c -0.947361,3.32667 -2.57402,4.83051 -3.44643,8.23111 l .4942,.0034 c 1.08136,0.00653 2.11725,0.861005 2.14803,1.94195 l .1348,4.7665 c 0.003,0.311915 -0.231659,0.485538 -0.311617,0.701511 6.68918,7.2225 9.6988,27.4375 19.2382,41.612 -18.3713,5.77474 -39.2497,4.37952 -50.1357,-2.23666 -3.45535,-13.4439 1.73722,-29.6612 6.83977,-38.2179 l -.6429,-.0036 c -1.08137,-0.0049 -1.923,-0.872096 -1.9531,-1.95306 l -.133,-4.7971 c -0.0301,-1.08096 1.09842,-1.82674 1.95136,-1.95408 l .8091,.0048 c -1.00759,-2.97349 -2.87391,-5.18373 -3.77175,-8.2601 l 7.6677,-.1158 -1.0637,-18.8226 c -0.396867,-4.2697 3.46776,-9.04679 8.12123,-8.82029 1.30103,0.06331 2.58629,0.460315 3.722,1.10019 z " transform="matrix(-0.86602527,-0.5,-0.5,0.86602544,0,0)"/>
<g style="color:#000">
<path style="opacity:.3" d="m 24.0933,83.9777 a 4.32102,4.32102 0 0 1 -8.64204,0 4.32102,4.32102 0 1 1 8.64204,0 z"/>
<path style="fill:#2de1ff" d="m 23.0443,83.9777 a 3.27195,3.27195 0 0 1 -6.5439,0 3.27195,3.27195 0 1 1 6.5439,0 z"/>
</g>
<g style="fill-rule:evenodd">
<path style="fill:#e3e3e3" d="m 90,76 v 2 H 6 v -2 z"/>
<path style="opacity:.15" d="m 87.7305,14.3535 c -2.86766,-0.03015 -5.72098,1.35576 -6.99609,4.25586 l -7.8828,17.9961 -7.1152,-4.0742 c -0.863566,3.43692 -0.220948,5.38283 -1.17188,8.90625 l -.5352,-.3047 c -0.939893,-0.534772 -2.22831,-0.286628 -2.78617,0.63975 l -2.1094,3.502 c -0.210627,0.349768 -0.175507,0.814277 -0.147428,1.19228 -9.22527,2.94781 -21.2236,18.9362 -36.5508,26.4316 13.2777,13.7615 33.7369,21.945 42.5605,21.6582 9.92378,-10.1288 13.3708,-26.4327 13.0508,-36.2168 l 1.0723,.6113 c 0.93909,0.53618 2.10875,0.211891 2.66602,-0.714844 l 2.125,-3.5332 c 0.557232,-0.926754 0.231251,-1.89943 -0.714844,-2.66602 l -.8359,-.4766 c 2.41874,-2.16297 5.09538,-2.93946 7.49023,-5.23047 l -6.6294,-3.8209 10.5747,-16.0346 c 2.47855,-3.49924 1.85224,-9.08227 -2.29102,-11.2129 -1.15838,-0.595686 -2.46995,-0.8945 -3.77344,-0.908203 z "/>
<path style="opacity:.35" d="m 87.7617,14.8223 c -2.86766,-0.03015 -5.29325,1.08232 -6.56836,3.98242 l -8.1641,18.375 -6.9805,-3.7734 c -0.858771,3.41784 -0.131901,5.23215 -1.00586,8.64648 l -.8926,-.5156 c -0.936617,-0.54049 -2.20544,-0.277841 -2.75613,0.652816 l -1.6895,2.8555 c -0.357689,0.604493 -0.252971,1.38074 0.05691,1.95656 -8.99556,2.62069 -19.9552,18.2155 -35.4062,25.7715 13.2777,13.7615 31.5985,20.9216 40.4219,20.6348 10.1668,-10.3769 13.1761,-26.2504 12.6387,-35.8789 l 1.4375,.8301 c 0.936615,0.54049 2.11532,0.215814 2.66602,-0.714844 l 1.6895,-2.8555 c 0.550688,-0.930658 0.221773,-2.12553 -0.714843,-2.66602 l -.9336,-.5391 c 2.33257,-2.18348 4.88997,-2.88773 7.31641,-5.20898 l -6.3281,-3.7676 10.5898,-16.1016 c 2.47855,-3.49924 1.97724,-8.45727 -1.54102,-10.5879 -1.11419,-0.674743 -2.53245,-1.08199 -3.83594,-1.0957 z "/>
<path style="fill:url(#linearGradient11653)" d="m 87.6426,15.4141 c -2.48494,-0.02612 -4.95756,1.1764 -6.0625,3.68945 l -7.7656,17.6602 c -1.64943,2.89313 -1.17861,6.27238 1.05469,7.57812 2.2333,1.30575 5.35838,0.0279 7.00781,-2.86523 l 11.0195,-15.5586 c 2.14776,-3.03223 1.17071,-8.11228 -1.98633,-9.71484 -1.00648,-0.510906 -2.13806,-0.777188 -3.26758,-0.789063 z m 0.293,3.4824 a 2.41464,2.41464 0 0 1 2.27344,1.78906 2.41464,2.41464 0 0 1 -1.70703,2.95703 2.41464,2.41464 0 0 1 -2.95703,-1.70703 2.41464,2.41464 0 0 1 1.70703,-2.95703 2.41464,2.41464 0 0 1 0.683594,-0.08203 z"/>
<path style="fill:url(#linearGradient6)" d="M 76.2675,55.333 C 77.74867,63.31486 75.08709,81.3118 64.6131,92.0022 56.51968,92.265277 38.5643,85.63866 26.3853,73.0159 43.5826,64.60603 55.3135,43.7406 64.4347,48.2843 Z"/>
</g>
<path style="fill:url(#linearGradient7988)" d="m 73.6948,57.3916 c -2.50423,2.37318 -3.76285,7.66685 -5.02483,14.3291 -1.38624,7.31823 -4.71836,13.0658 -9.57355,19.7032 l 2.164,.3715 c 1.50407,-1.55275 6.70043,-8.49599 8.56762,-16.8871 1.77891,-7.99443 3.47208,-15.885 3.86675,-17.5166 z "/>
<path style="fill:url(#linearGradient7990)" d="m 29.9347,76.3937 2.047,1.7933 c 5.29606,-3.28183 10.729,-7.75993 15.8825,-12.6611 5.15353,-4.90122 9.727,-10.2256 13.1839,-15.3201 -5.11513,4.62138 -8.94675,9.29712 -14.2772,13.708 -5.26527,4.35694 -10.7768,8.67728 -16.8361,12.4799 z "/>
<path style="fill:url(#linearGradient7992)" d="m 62.6452,71.7949 c -3.12344,6.91493 -5.10435,11.5007 -10.2935,17.708 l 1.9951,.6711 c 5.01016,-5.74017 7.15092,-11.1261 10.0706,-17.8072 5.97515,-13.6729 6.58907,-15.1494 6.90503,-17.5473 -1.69507,1.39326 -4.42903,7.57046 -8.67721,16.9755 z "/>
<path style="fill:url(#linearGradient7994)" d="m 51.7486,67.2377 c -4.11377,5.04585 -8.37091,11.0968 -13.271,15.4916 l 2.0317,1.2308 c 4.86888,-4.54214 8.92476,-10.1764 12.7738,-15.668 7.44767,-10.84 8.50441,-11.2378 9.3167,-13.4805 -3.49252,2.14243 -8.09197,9.04173 -10.8512,12.4261 z "/>
<path style="fill:url(#linearGradient7996)" d="m 56.8662,70.182 c -3.86415,6.70036 -8.93653,13.5798 -11.2356,16.5023 l 1.8188,.8459 c 2.5559,-3.24903 7.17968,-9.74724 11.0289,-16.4162 2.15178,-3.72805 8.16961,-13.7289 10.0859,-17.4856 -4.76234,3.96931 -9.68316,12.9785 -11.698,16.5536 z "/>
<g style="fill-rule:evenodd">
<path style="fill:url(#linearGradient8582)" d="M 87.9455,46.5228 66.6045,34.3105 c -1.11465,4.43622 0.636487,6.03379 -3.34396,13.3087 l 14.7285,8.4284 c 2.7062,-6.47477 6.63762,-6.34979 9.95644,-9.52469 z"/>
<rect width="24.233261" x="-98.960403" y="4.2830658" rx="1.8619404" height="6.4421334" ry="1.8619436" style="fill:url(#linearGradient15309)" transform="matrix(-0.86602537,-0.5,-0.5,0.86602541,0,0)"/>
</g>
<path style="opacity:.3" d="m 73.6527,37.0491 8.2242,4.4277 c -0.266398,0.441313 -0.435908,0.708675 -0.780679,1.12661 l -7.8833,-4.5112 c 0.163774,-0.438573 0.255362,-0.639218 0.439704,-1.04315 z "/>
</svg>
