<svg width="48" version="1.1" xmlns="http://www.w3.org/2000/svg" height="48" xmlns:xlink="http://www.w3.org/1999/xlink">
<defs>
<linearGradient id="linearGradient2">
<stop offset="0" style="stop-color:#d44d3f"/>
<stop offset="1" style="stop-color:#9f3123"/>
</linearGradient>
<linearGradient xlink:href="#linearGradient2" id="linearGradient3" y1="26.5" x1="9" y2="26.5" x2="39" gradientUnits="userSpaceOnUse"/>
<linearGradient xlink:href="#linearGradient2" id="linearGradient5" y1="6.9812055" x1="8.9560928" y2="6.9812055" x2="44.956093" gradientUnits="userSpaceOnUse"/>
</defs>
<g style="fill-rule:evenodd">
<path style="fill:url(#linearGradient3)" d="M 9,17 H 39 V 41 H 9 Z"/>
<path style="fill:#600" d="m 33,20 h 4 v 15 h -4 z"/>
<g style="fill:#750000">
<path d="m 22,20 h 4 v 15 h -4 z"/>
<path d="m 11,20 h 4 v 15 h -4 z"/>
</g>
<path style="opacity:.3" d="m 27.6088,12.3941 l 14.1781,-.0011 -.4273,-2.4236 -13.7508,2.4246 z " transform="rotate(10)"/>
<rect width="36" x="8.9560928" y="3.4812055" height="7" style="fill:url(#linearGradient5)" transform="rotate(10)"/>
<g style="fill:#c0392b">
<path d="m 34.0513,2.4311 -.8682,4.924 -.3473,1.9696 1.9696,.3473 .3473,-1.9696 z "/>
<path d="m 20.2639,0 -2.8379,4.5767 -.3473,1.9696 1.9696,.3473 .3473,-1.9696 Z "/>
</g>
<path style="fill:#800000" d="m 20.264,0 -.8682,4.924 13.7873,2.4311 .8682,-4.924 z "/>
<path style="opacity:.3" d="m 10.0991,51.6258 h 30 v 7 h -30 z "/>
</g>
</svg>
