<svg width="48" version="1.0" xmlns="http://www.w3.org/2000/svg" height="48" xmlns:xlink="http://www.w3.org/1999/xlink">
<defs id="defs7856"/>
<g id="layer1">
<path style="fill:#f57900;fill-rule:evenodd;stroke:#f57900" id="path2482" d="m 15.4235,29.2241 c 0.0098,0.576682 0.196474,1.6979 0.471116,2.57742 0.581566,1.85414 1.56684,3.57266 2.93913,5.0865 1.40749,1.55312 3.13852,2.80323 5.13931,3.68976 2.10536,0.931573 4.3848,1.40749 6.75013,1.40374 2.36534,-0.005 4.6446,-0.488686 6.74896,-1.42702 2.00002,-0.895288 3.73104,-2.14839 5.13754,-3.70552 1.36921,-1.51984 2.35258,-3.24111 2.93409,-5.09626 0.294262,-0.938353 0.476921,-1.88939 0.553238,-2.84531 0.07331,-0.939306 0.04204,-1.88351 -0.09183,-2.82379 -0.259981,-1.8356 -0.896294,-3.55685 -1.87265,-5.12758 -0.895541,-1.4417 -2.04781,-2.70454 -3.41727,-3.76697 0,0 0.002,-0.002 0.002,-0.002 0,0 -13.8285,-10.6197 -13.8285,-10.6197 -0.01176,-0.00978 -0.02252,-0.019551 -0.03529,-0.028344 -0.909003,-0.695926 -2.43477,-0.693976 -3.43173,0.00488 -1.01067,0.705702 -1.09182,1.80926 -0.195527,2.54821 1.89978,1.49976 3.79207,3.06804 5.70237,4.56762 0,0 -17.5517,-0.01171 -17.5517,-0.01171 -1.99469,0 -3.16826,0.947915 -3.41539,2.33368 -0.218077,1.22284 0.747921,2.73813 2.48002,2.73813 2.95657,0.0039 5.94211,-0.0069 8.90921,-0.01272 0,0 -15.9017,11.7642 -15.9017,11.7642 -0.020527,0.01564 -0.041053,0.02933 -0.06158,0.04497 -1.49742,1.14839 -1.9832,3.05932 -1.03998,4.26839 0.959832,1.22959 2.99777,1.23059 4.51473,0.006 0,0 8.67759,-7.1021 8.67759,-7.1021 0,0 -0.12511,0.959824 -0.116333,1.53553 z "/>
<g style="stroke:none">
<path style="fill:#fff;color:#000" id="path39153" d="m 42.75,25.75 a 11.5625,10.125 0 1 1 -23.125,0 11.5625,10.125 0 1 1 23.125,0 z" transform="matrix(0.821621,0,0,0.839506,5.2506858,5.0134023)"/>
<path style="fill:#3465a4;fill-rule:evenodd" id="path2478" d="m 25.3821,25.8847 c 0.07447,-1.36116 0.739293,-2.56265 1.7387,-3.41327 0.983518,-0.836183 2.30421,-1.34675 3.74688,-1.34675 1.44174,0 2.76244,0.510564 3.74573,1.34675 1.00052,0.850616 1.66454,2.05121 1.73987,3.41237 0.07718,1.40085 -0.4828,2.70158 -1.46425,3.66495 -1.00052,0.981409 -2.4271,1.5975 -4.02135,1.5975 -1.59517,0 -3.02176,-0.616094 -4.02222,-1.5975 -0.982461,-0.963374 -1.54051,-2.2641 -1.46336,-3.66405 z "/>
</g>
</g>
</svg>
