<svg width="48" version="1.1" xmlns="http://www.w3.org/2000/svg" height="48">
<g style="stroke:none">
<path style="fill:#5a5a5a" id="path4189" d="m 17.3954,32.1125 c -0.321838,0 -0.577033,0.254696 -0.577033,0.577032 v 14.2335 c 0,0.322336 0.255195,0.577033 0.577033,0.577033 h 13.8366 c 0.321837,0 0.577032,-0.254697 0.577032,-0.577033 v -14.2335 c 0,-0.322336 -0.255195,-0.577032 -0.577032,-0.577032 z  m 3.0973,9.2005 3.1416,0 0,3.1416 -3.1416,0 z  m 5.1292,0 3.1416,0 0,3.1416 -3.1416,0 z "/>
<rect width="12.309719" x="17.845297" y="-46.683613" height="13.335554" style="opacity:.715;fill:none" id="rect3458" transform="scale(1,-1)"/>
<path style="fill:#c8c8c8" id="rect3448" d="m 17.3963,31.2745 c -0.321837,0 -0.577032,0.254696 -0.577032,0.577032 v 14.2335 c 0,0.322336 0.255195,0.577033 0.577032,0.577033 h 13.2076 c 0.321837,0 0.577032,-0.254697 0.577032,-0.577033 v -14.2335 c 0,-0.322336 -0.255195,-0.577032 -0.577032,-0.577032 h -13.2076 z  m 2.4684,9.2005 3.1416,0 0,3.1416 -3.1416,0 0,-3.1416 z  m 5.1292,0 3.1416,0 0,3.1416 -3.1416,0 0,-3.1416 z "/>
<path style="fill:#00408c" id="path4146" d="m 15.4088,.5 c -0.925609,0 -1.66695,0.745428 -1.66695,1.66695 v 34.3956 c 0,0.921529 0.741348,1.66695 1.66695,1.66695 h 17.7828 c 0.925609,0 1.66695,-0.745428 1.66695,-1.66695 v -34.3956 c 0,-0.92153 -0.741349,-1.66695 -1.66695,-1.66695 z "/>
<path style="fill:#005bc8" id="path4152" d="m 15.4088,.5 c -0.925609,0 -1.66695,0.745428 -1.66695,1.66695 v 33.5956 c 0,0.921529 0.741348,1.66695 1.66695,1.66695 h 17.1825 c 0.925609,0 1.66695,-0.745428 1.66695,-1.66695 v -33.5956 c 0,-0.92153 -0.741348,-1.66695 -1.66695,-1.66695 h -17.1825 z "/>
<path style="fill:#fff;fill-rule:evenodd" id="path2311" d="m 22.8465,5.7484 0,10.2715 -5.319,-4.2936 -1.8063,1.5151 6.6229,5.3886 -6.7237,5.3886 2.1079,1.6835 5.1182,-4.3778 0,10.1873 9.5333,-7.493 -6.3221,-5.3044 6.122,-5.2203 -9.3331,-7.7455 z  m 2.6088,4.967 3.111,2.8627 -3.111,2.5259 0,-5.3886 z  m -.1,10.693 3.3118,2.5259 -3.111,2.2728 -.2008,-4.7987 z "/>
</g>
</svg>
