<svg width="48" version="1.1" xmlns="http://www.w3.org/2000/svg" height="48">
<g style="stroke:none;stroke-width:1.196" id="g10">
<path style="fill:#db9700" id="path864" d="m 36.042,6 v 34.829465 c 0,0.660435 0.861272,1.19587 1.44639,1.19587 h 6.42781 c 0.585116,0 1.08376,-0.535436 1.08376,-1.19587 V 6 Z"/>
<path style="fill:#6396c9" id="path862" d="m 24.06812,9.038 v 31.841485 c 0,0.591786 0.498644,1.08376 1.08376,1.08376 h 6.82779 c 0.585114,0 1.04639,-0.491972 1.04639,-1.08376 V 9.038 Z"/>
<path style="fill:#1dc404" id="path860" d="M 13.9421,11.089 3.1702,37.9127 c -0.220277,0.549261 0.021156,1.21133 0.564226,1.42912 l 6.3658,2.5434 c 0.543078,0.217769 1.15075,-0.07496 1.37103,-0.624216 l 10.7777,-26.8379 z"/>
<g style="fill:#eaeaea" id="g8">
<path id="path858" d="m 8.2813,33.1532 c 0.506104,-0.211246 1.08366,-0.259965 1.63189,-0.04007 1.09647,0.439704 1.62793,1.70364 1.1882,2.8001 -0.439704,1.09647 -1.70364,1.62793 -2.80011,1.1882 -1.09647,-0.439736 -1.62793,-1.70366 -1.1882,-2.80014 0.219944,-0.548195 0.662103,-0.936853 1.1682,-1.1481 z"/>
<path id="path856" d="m 40.5022,33.7401 c 1.18135,0 2.16752,0.950978 2.16752,2.13014 0,1.17917 -0.986167,2.13015 -2.16752,2.13015 -1.18135,0 -2.13015,-0.950977 -2.13015,-2.13015 0,-1.17917 0.948796,-2.13014 2.13015,-2.13014 z "/>
<path id="path3001" d="m 28.5655,33.7027 c 1.18135,0 2.13015,0.948797 2.13015,2.13014 0,1.18135 -0.948796,2.16752 -2.13015,2.16752 -1.18135,0 -2.16752,-0.986169 -2.16752,-2.16752 0,-1.18135 0.986168,-2.13014 2.16752,-2.13014 z "/>
</g>
</g>
</svg>
