<svg width="48" version="1.0" xmlns="http://www.w3.org/2000/svg" height="48">
<path style="fill:#f0f0f0;fill-rule:evenodd;stroke:#aaa" id="path4030" d="m 35.639,1.8799 -33.5643,0 -.0267,43.4709 26.1023,0 7.4887,-9.8513 z "/>
<g style="stroke:none" id="g6">
<path style="opacity:.9;fill:#2f8b39;fill-rule:evenodd" id="path2190" d="m 33.1312,8.1466 c 0.744297,5.06845 -0.954454,11.0869 -6.38551,23.04 -1.88594,4.18274 -2.21807,5.09643 -3.12753,7.8465 l -2.4174,1.1204 c -0.471071,-4.79313 -2.33174,-17.9425 -3.35599,-24.2593 -3.03942,9.04394 -4.13406,12.1007 -8.18431,23.3157 l -2.3828,1.0459 .2391,-30.5951 c 1.01453,-0.026773 2.01953,-0.054726 3.49945,-0.088442 -0.610146,0.954735 -0.641298,0.680045 -1.43451,1.05658 0.125678,6.3253 0.124312,17.1649 0.421532,21.4325 2.12326,-5.39756 6.21891,-17.623 7.37888,-21.7462 l 2.8307,-1.2441 c 0.198779,1.36886 0.355412,2.72745 0.513344,4.0967 0.472538,3.63327 0.892356,6.73981 1.25304,9.267 l 1.0634,7.4233 c 0.101378,0.578975 0.142612,0.667119 0.444026,3.08942 3.64266,-7.46802 4.71788,-10.4182 5.6196,-14.3808 0.703983,-3.22261 1.16989,-5.60204 0.764376,-7.91792 -0.256182,-1.46305 -0.290224,-2.5536 -0.932721,-3.56532 z "/>
<path style="fill:#a0a0a0" id="rect3256" d="m 42.5,1.5625 c -0.43541,0.0002224 -0.812817,0.258391 -0.8125,0.5625 v 0.6875 c -0.216339,0.020552 -0.375169,0.155695 -0.375,0.3125 l .0312,14.8438 c 0.000181,0.17106 0.380078,0.312626 0.625,0.3125 l 3.1562,-.0312 c 0.244914,-0.000123 0.625177,-0.11019 0.625,-0.28125 v -14.8438 c -0.000177,-0.171062 -0.192578,-0.312625 -0.4375,-0.3125 v -0.6875 c -0.000316,-0.304109 -0.377091,-0.562721 -0.8125,-0.5625 h -2 z "/>
<path style="fill:#b4b4b4;stroke-width:.2" id="rect3264" d="m 42.008,37.2241 -1.0338,5.1803 c 0.641357,0.447289 1.28018,1.66591 1.68132,2.99285 l .0029,-3.3154 c -0.238405,-0.0559 -0.44016,-0.199598 -0.440349,-0.384878 -0.000243,-0.232166 0.272451,-0.412379 0.604864,-0.412548 0.332399,-0.000174 0.617072,0.177987 0.61731,0.410169 0.000198,0.18528 -0.198123,0.332181 -0.436426,0.388323 l -.0033,3.4763 -.17,.2654 -.0613,-.1053 c 0.02572,0.09545 0.05495,0.189092 0.07789,0.284787 1.10602,-2.06457 1.84053,-3.09766 3.31757,-3.61442 l -1.1185,-5.1498 -3.0376,-.0157 z "/>
<path style="fill:#8c8c8c" id="path3619" d="m 39.8434,4.6623 .0163,11.5881 .0041,1.872 -.0008,.1446 .4405,.0051 c 0.488798,-0.000249 0.872713,-0.493405 0.872083,-1.09085 -0.000412,-0.480494 -0.243671,-0.880265 -0.59855,-1.02128 l .6104,-5.0062 -.0242,-6.187 c -0.244592,9.44e-05 -0.433046,-0.142067 -0.433224,-0.312765 l -.8864,.0084 z "/>
<path style="fill:#363636" id="path3811" d="m 41.973,18.2663 c -0.337503,0.000178 -0.638906,0.105438 -0.642179,0.309464 l -.1293,8.0633 .4528,10.0803 c 0.000176,0.171064 0.19816,0.309126 0.443077,0.309013 l 2.6565,-.0012 c 0.244922,-0.000113 0.442613,-0.138405 0.442436,-0.309464 l .4327,-10.0807 .1294,-8.0633 c 0.002932,-0.182768 -0.295882,-0.309196 -0.643379,-0.309013 z "/>
</g>
</svg>
