<svg width="48" version="1.0" xmlns="http://www.w3.org/2000/svg" height="48" xmlns:xlink="http://www.w3.org/1999/xlink">
<defs>
<linearGradient id="linearGradient3">
<stop offset="0" style="stop-color:#bababa"/>
<stop offset="1" style="stop-color:#8f8f8f"/>
</linearGradient>
<linearGradient id="linearGradient1">
<stop offset="0" style="stop-color:#666"/>
<stop offset="1" style="stop-color:#333"/>
</linearGradient>
<linearGradient xlink:href="#linearGradient3" id="linearGradient4" y1="9.9219" x1="41.3125" y2="9.9219" x2="45.7499" gradientUnits="userSpaceOnUse"/>
<linearGradient xlink:href="#linearGradient3" id="linearGradient6" y1="41.614101" x1="40.974201" y2="41.614101" x2="46.16468" gradientUnits="userSpaceOnUse"/>
<linearGradient xlink:href="#linearGradient1" id="linearGradient2" y1="27.646538" x1="41.201521" y2="27.646538" x2="45.758455" gradientUnits="userSpaceOnUse"/>
</defs>
<g style="fill-rule:evenodd">
<path style="fill:#f0f0f0;stroke:#aaa" d="m 35.639,1.8799 -33.5643,0 -.0267,43.4709 26.1023,0 7.4887,-9.8513 z "/>
<path style="opacity:.9;fill:#2f8b39" d="m 33.1312,8.1466 c 0.744297,5.06845 -0.954454,11.0869 -6.38551,23.04 -1.88594,4.18274 -2.21807,5.09643 -3.12753,7.8465 l -2.4174,1.1204 C 20.729689,35.36037 18.86902,22.211 17.84477,15.8942 14.80535,24.93814 13.71071,27.9949 9.66046,39.2099 l -2.3828,1.0459 0.2391,-30.5951 c 1.01453,-0.026773 2.01953,-0.054726 3.49945,-0.088442 -0.610146,0.954735 -0.641298,0.680045 -1.43451,1.05658 0.125678,6.3253 0.124312,17.1649 0.421532,21.4325 2.12326,-5.39756 6.21891,-17.623 7.37888,-21.7462 l 2.8307,-1.2441 c 0.198779,1.36886 0.355412,2.72745 0.513344,4.0967 0.472538,3.63327 0.892356,6.73981 1.25304,9.267 l 1.0634,7.4233 c 0.101378,0.578975 0.142612,0.667119 0.444026,3.08942 3.64266,-7.46802 4.71788,-10.4182 5.6196,-14.3808 0.703983,-3.22261 1.16989,-5.60204 0.764376,-7.91792 -0.256182,-1.46305 -0.290224,-2.5536 -0.932721,-3.56532 z"/>
</g>
<path style="fill:url(#linearGradient4)" d="m 42.5,1.5625 c -0.43541,0 -0.812817,0.258391 -0.8125,0.5625 v 0.6875 c -0.216339,0.020552 -0.375169,0.155695 -0.375,0.3125 l 0.0312,14.8438 c 0,0.17106 0.380078,0.312626 0.625,0.3125 l 3.1562,-0.0312 c 0.244914,0 0.625177,-0.11019 0.625,-0.28125 V 3.12505 C 45.749723,2.953988 45.557322,2.812425 45.3124,2.81255 V 2.12505 C 45.312084,1.820941 44.935309,1.562329 44.5,1.56255 h -2 z"/>
<path style="fill:url(#linearGradient6)" d="m 42.008,37.2241 -1.0338,5.1803 c 0.641357,0.447289 1.28018,1.66591 1.68132,2.99285 l .0029,-3.3154 c -0.238405,-0.0559 -0.44016,-0.199598 -0.440349,-0.384878 0,-0.232166 0.272451,-0.412379 0.604864,-0.412548 0.332399,0 0.617072,0.177987 0.61731,0.410169 0.000198,0.18528 -0.198123,0.332181 -0.436426,0.388323 l -.0033,3.4763 -.17,.2654 -.0613,-.1053 c 0.02572,0.09545 0.05495,0.189092 0.07789,0.284787 1.10602,-2.06457 1.84053,-3.09766 3.31757,-3.61442 l -1.1185,-5.1498 -3.0376,-.0157 z "/>
<path style="fill:#8c8c8c" d="m 39.8434,4.6623 .0163,11.5881 .0041,1.872 0,.1446 .4405,.0051 c 0.488798,0 0.872713,-0.493405 0.872083,-1.09085 -0.000412,-0.480494 -0.243671,-0.880265 -0.59855,-1.02128 l .6104,-5.0062 -.0242,-6.187 c -0.244592,0 -0.433046,-0.142067 -0.433224,-0.312765 l -.8864,.0084 z "/>
<path style="fill:url(#linearGradient2)" d="m 41.973,18.2663 c -0.337503,0 -0.638906,0.105438 -0.642179,0.309464 l -.1293,8.0633 .4528,10.0803 c 0.000176,0.171064 0.19816,0.309126 0.443077,0.309013 l 2.6565,-.0012 c 0.244922,0 0.442613,-0.138405 0.442436,-0.309464 l .4327,-10.0807 .1294,-8.0633 c 0.0029,-0.182768 -0.295882,-0.309196 -0.643379,-0.309013 z "/>
</svg>
