<svg width="48" version="1.1" xmlns="http://www.w3.org/2000/svg" viewBox="0 0 48 48" height="48">
<path style="fill:#2f8719" id="path4139" d="m 23.3459,1.5048 a 22.5,22.5 0 0 0 -21.8459,22.5 22.5,22.5 0 0 0 45,0 22.5,22.5 0 0 0 -23.1541,-22.5 z"/>
<path style="fill:#fff" id="path46" d="m 24,5.7235 c 10.0802,0 18.2812,8.20105 18.2812,18.2812 C 42.2812,34.0849 34.08015,42.2859 24,42.2859 13.9198,42.2859 5.7188,34.08485 5.7188,24.0047 5.7188,13.9245 13.91985,5.7235 24,5.7235 Z"/>
<path style="fill:#0358ad" id="path58" d="m 24.6135,12.3175 c -0.244424,2.23314 -0.313733,2.95789 -0.464068,4.92483 l -.7302,9.5537 c -4.93022,-2.2023 -12.1139,1.05315 -11.3759,5.09383 0.693578,3.7976 8.01781,5.95916 12.3888,3.36275 2.83449,-1.68372 2.99901,-6.59335 3.1897,-9.94494 l .5088,-8.9425 c 2.12722,1.9916 5.32878,5.01535 2.49069,7.2196 -1.668,1.29547 -0.164804,3.65928 2.17155,2.52413 4.11222,-1.99797 4.12069,-6.60022 0.94083,-9.11943 -2.3679,-1.87594 -5.05506,-3.65307 -7.7037,-5.3259 -0.29032,-0.183362 -1.35917,0.130292 -1.41648,0.653887 z "/>
</svg>
