<svg width="48" version="1.1" xmlns="http://www.w3.org/2000/svg" height="48" viewBox="0 0 48 48.000001">
<defs id="defs4244"/>
<g style="stroke-linejoin:round;stroke:none" id="layer1" transform="translate(0,-1004.3622)">
<g style="stroke-width:.5">
<circle cx="24.000002" cy="1028.3622" style="fill:#f5ab35" id="path4173" r="20.000006"/>
<path style="fill:#b97d1b" id="path4173-6" d="m 43.9785,1027.7802 a 20,20 0 0,1 -19.9785,19.582 20,20 0 0,1 -19.9785,-19.418 20,20 0 0,0 -0.021484,0.418 20,20 0 0,0 20,20 20,20 0 0,0 20,-20 20,20 0 0,0 -0.02148,-0.582 z "/>
</g>
<g style="stroke-width:2;stroke-linecap:round">
<circle cx="24.000002" cy="1028.3622" style="fill:#fafac5" id="path4297" r="18"/>
<path style="fill:#ff8a2c" id="path4206" d="m 24,1012.3622 c -3,0 -5,2 -5,2 0,0 1.19323,4.0523 2,6 0.85571,2.0659 3,6 3,6 0,0 2.14429,-3.9341 3,-6 0.80677,-1.9477 2,-6 2,-6 0,0 -2,-2 -5,-2 z  m -6.3633,2.5645 c 0,0 -2.82985,-0.0003 -4.95117,2.121 -2.12132,2.1214 -2.12109,4.9512 -2.12109,4.9512 0,0 3.71049,2.0214 5.6582,2.8281 2.06586,0.8557 6.36328,2.1211 6.36328,2.1211 0,0 -1.26539,-4.2974 -2.12109,-6.3632 -0.806767,-1.9478 -2.82812,-5.6582 -2.82812,-5.6582 z  m 12.7266,0 c 0,0 -2.02136,3.7104 -2.82812,5.6582 -0.855705,2.0658 -2.12109,6.3632 -2.12109,6.3632 0,0 4.29742,-1.2654 6.36328,-2.1211 1.94771,-0.8067 5.6582,-2.8281 5.6582,-2.8281 0,0 0.000226,-2.8298 -2.12109,-4.9512 -2.12132,-2.1213 -4.95117,-2.121 -4.95117,-2.121 z  m -20.3633,8.4355 c 0,0 -2,2 -2,5 0,3 2,5 2,5 0,0 4.05229,-1.1932 6,-2 2.06586,-0.8557 6,-3 6,-3 0,0 -3.93414,-2.1443 -6,-3 -1.94771,-0.8068 -6,-2 -6,-2 z  m 28,0 c 0,0 -4.05229,1.1932 -6,2 -2.06586,0.8557 -6,3 -6,3 0,0 3.93414,2.1443 6,3 1.94771,0.8068 6,2 6,2 0,0 2,-2 2,-5 0,-3 -2,-5 -2,-5 z  m -15.4141,6.4141 c 0,0 -4.29742,1.2654 -6.36328,2.1211 -1.94771,0.8067 -5.6582,2.8281 -5.6582,2.8281 0,0 -0.000226,2.8298 2.12109,4.9512 2.12132,2.1213 4.95117,2.121 4.95117,2.121 0,0 2.02136,-3.7104 2.82812,-5.6582 0.855705,-2.0658 2.12109,-6.3632 2.12109,-6.3632 z  m 2.8281,0 c 0,0 1.26539,4.2974 2.12109,6.3632 0.806767,1.9478 2.82812,5.6582 2.82812,5.6582 0,0 2.82985,0.0003 4.95117,-2.121 2.12132,-2.1214 2.12109,-4.9512 2.12109,-4.9512 0,0 -3.71049,-2.0214 -5.6582,-2.8281 -2.06586,-0.8557 -6.36328,-2.1211 -6.36328,-2.1211 z  m -1.4141,.5859 c 0,0 -2.14429,3.9341 -3,6 -0.80677,1.9477 -2,6 -2,6 0,0 2,2 5,2 3,0 5,-2 5,-2 0,0 -1.19323,-4.0523 -2,-6 -0.85571,-2.0659 -3,-6 -3,-6 z "/>
</g>
</g>
</svg>
