<svg width="48" version="1.0" xmlns="http://www.w3.org/2000/svg" height="48" xmlns:xlink="http://www.w3.org/1999/xlink">
<defs>
<linearGradient id="linearGradient3182">
<stop offset="0" style="stop-color:#ededed"/>
<stop offset="1" style="stop-color:#fcfcfc"/>
</linearGradient>
<linearGradient id="linearGradient3671">
<stop offset="0" style="stop-color:#fff"/>
<stop offset="0.45285222" style="stop-color:#fff;stop-opacity:.5"/>
<stop offset="0.64131367" style="stop-opacity:.232"/>
<stop offset="1" style="stop-opacity:0"/>
</linearGradient>
<linearGradient gradientTransform="matrix(0.95202522,0,0,0.99794828,4.3333677,-1.259903)" xlink:href="#linearGradient3671" id="linearGradient3879" y1="38.106586" x1="29.698275" y2="29.153027" gradientUnits="userSpaceOnUse" x2="19.705704"/>
<linearGradient gradientTransform="matrix(0.13495234,0,0,-0.12313737,-31.745296,84.403521)" xlink:href="#linearGradient3182" id="linearGradient3828" y1="522.29456" x1="324.57977" y2="444.43079" gradientUnits="userSpaceOnUse" x2="449.4509"/>
</defs>
<g style="color:#000">
<g style="fill-rule:evenodd">
<rect width="29.832321" x="9.0838394" y="4.9284167" rx="3.8274429" height="38.921089" ry="2.9458654" style="fill:#b48400;stroke:#000;stroke-linejoin:round;stroke-linecap:round;stroke-width:.301"/>
<path style="opacity:.2;fill:#050505" d="M 11.4015,41.37 11.4026,6.9493 36.621,6.9664 v 15.0905 l -1.7614,17.608 -15.7795,1.7049 z"/>
<path style="fill:url(#linearGradient3828)" d="m 11.4015,41.3697 .0011,-34.4204 25.2181,.0171 v 13.9906 c 0,2.45866 -4.2085,16.5251 -4.2085,16.5251 0,0 -11.5627,3.88774 -14.3322,3.8877 z "/>
</g>
<path style="fill:#a0a0a0" d="m 23.6931,0 c -1.43624,-0.00570573 -2.45362,0.292912 -3.1792,0.975274 -0.725583,0.682363 -0.913403,1.35742 -1.01878,2.11045 -0.119088,0.851014 0.456456,2.43711 0,3.33556 -0.447381,0.880589 -4.43628,0.340443 -4.51779,2.0017 l 18.0441,-0.0835 c 0.07016,-1.67533 -4.37485,-1.21624 -4.95455,-2.16806 -0.469937,-0.771625 0.09383,-2.16935 0,-3.00225 C 27.9785,2.384691 27.738597,1.628864 26.97344,0.998764 26.208286,0.368661 25.12936,0.00568 23.69314,0 Z M 23.639,2.0393 A 1.36884,1.36884 0 0 1 25.00756,3.40845 1.36884,1.36884 0 0 1 23.639,4.77701 1.36884,1.36884 0 0 1 22.26985,3.40845 1.36884,1.36884 0 0 1 23.639,2.0393 Z"/>
<g style="fill:#7f8c8d">
<g style="fill-rule:evenodd">
<rect width="16.273911" x="15.572306" y="-25.356243" height="0.90296483" transform="scale(1,-1)"/>
<rect width="16.273911" x="15.602886" y="-21.340446" height="0.90296483" transform="scale(1,-1)"/>
<rect width="16.273911" x="15.596965" y="-17.324924" height="0.90296483" transform="scale(1,-1)"/>
</g>
<path d="m 30.5121,31.409 c -1.79528,0.728141 -3.08729,1.07538 -3.94325,1.07538 h -10.9908 v 0.902344 h 10.9908 c 1.30843,0 3.11616,-0.66122 3.68925,-0.94336 z"/>
<path d="m 31.5891,27.949 c -0.635914,0.228406 -1.28666,0.380934 -1.94649,0.504125 l -14.0645,.0156 v 0.902344 l 14.0645,-.0156 c 0.619486,0 1.53001,-0.327744 1.77349,-0.464844 z "/>
</g>
</g>
<path style="opacity:.4;fill:url(#linearGradient3879);fill-rule:evenodd" d="m 36.6211,6.9668 l -25.2188,34.4023 h 6.67773 c 2.76947,0 14.332,-3.88672 14.332,-3.88672 0,0 4.20898,-14.0667 4.20898,-16.5254 v -13.9902 z "/>
</svg>
