<svg width="48" version="1.1" xmlns="http://www.w3.org/2000/svg" height="48" xmlns:xlink="http://www.w3.org/1999/xlink">
<defs>
<linearGradient id="linearGradient3755">
<stop offset="0" style="stop-color:#00448c"/>
<stop offset="1" style="stop-color:#006ebf"/>
</linearGradient>
<linearGradient id="linearGradient1">
<stop offset="0" style="stop-color:#fff"/>
<stop offset="1" style="stop-color:#f5f5f5"/>
</linearGradient>
<linearGradient gradientTransform="matrix(1,0,0,1,-378.8564,-514.07552)" xlink:href="#linearGradient3755" id="linearGradient4150" y1="559.57648" x1="402.87729" y2="516.57672" gradientUnits="userSpaceOnUse" x2="402.75009"/>
<linearGradient xlink:href="#linearGradient1" id="linearGradient2" y1="39.739605" x1="24.093185" y2="8.2333002" x2="23.9916" gradientUnits="userSpaceOnUse"/>
<linearGradient gradientTransform="matrix(1,0,0,1,-378.8564,-514.07552)" xlink:href="#linearGradient3755" id="linearGradient3761" y1="559.57648" x1="402.87729" y2="516.57672" x2="402.75009" gradientUnits="userSpaceOnUse"/>
</defs>
<g style="fill-rule:evenodd">
<path style="fill:url(#linearGradient4150)" d="m 23.9916,2.5 c -5.62907,0 -11.221,2.31869 -15.1983,6.29882 -3.97741,3.98011 -6.29321,9.57292 -6.29321,15.2012 0,5.62822 2.3158,11.221 6.29321,15.2012 3.97741,3.98013 9.56927,6.29849 15.1983,6.29882 5.62907,0 11.2243,-2.31588 15.2068,-6.29602 3.98249,-3.98014 6.30162,-9.57509 6.30162,-15.204 0,-5.62885 -2.31912,-11.2238 -6.30162,-15.204 -3.98248,-3.98014 -9.57767,-6.29634 -15.2068,-6.29602 Z "/>
<path style="fill:url(#linearGradient2)" d="m 23.9916,8.2333 c 4.12799,0 8.23261,1.69757 11.1531,4.61633 2.92049,2.91878 4.62194,7.02248 4.62194,11.1503 0,4.12782 -1.70145,8.23153 -4.62194,11.1503 -2.9205,2.91877 -7.02513,4.61657 -11.1531,4.61633 -4.12798,0 -8.22794,-1.70039 -11.1447,-4.61913 -2.91677,-2.91876 -4.61354,-7.02014 -4.61354,-11.1475 0,-4.12736 1.69677,-8.22875 4.61354,-11.1475 2.91676,-2.91874 7.01671,-4.61888 11.1447,-4.61913 z "/>
<path style="fill:url(#linearGradient3761)" d="m 21,11 v 16 h 15 v -5 h -10 v -11 h -5 z "/>
</g>
</svg>
