<svg width="48" version="1.1" xmlns="http://www.w3.org/2000/svg" height="48" xmlns:xlink="http://www.w3.org/1999/xlink">
<defs>
<linearGradient id="linearGradient6434">
<stop offset="0" style="stop-color:#fff"/>
<stop offset="0.2" style="stop-color:#ffbd7d"/>
<stop offset="0.5" style="stop-color:#ef2929"/>
<stop offset="1" style="stop-color:#c0000f"/>
</linearGradient>
<radialGradient fx="103.09141" fy="155.05023" cx="103.09141" cy="155.05023" gradientTransform="matrix(0.5439948,-0.00558323,0.00122468,0.36540156,-31.583446,-34.120503)" r="99.226646" id="radialGradient3264" xlink:href="#linearGradient6434" gradientUnits="userSpaceOnUse"/>
</defs>
<g style="fill-rule:evenodd">
<path style="fill:url(#radialGradient3264);stroke-width:3" d="M 45,3 V 45 L 33.77,47 H 11.787 L 3,45 V 3 l 7.316,-2 h 18.631 z"/>
<path style="fill:#232323" d="M 1,1 V 47 H 11.787 C 16.29727,44.77998 27.7733,34.5305 30.75,29.6465 35.80938,21.34498 23.9082,17.1328 23.9082,17.1328 c 0,0 17.6933,2.92025 18.209,15.9023 C 42.420169,40.66157 36.1975,45.0722 33.77,47 H 47 V 1 L 28.94724,1 c -8.19788,3.94583 -11.7862,8.68 -13.4805,13.3751 -3.33656,9.24609 5.01367,14.5977 5.01367,14.5977 0,2e-6 -15.2727,-3.27026 -15.4805,-14.8496 C 4.879309,7.40122 8.72182,2.8674 10.316,1 H 1 Z M 21.5195,18.6895 c 1.80156,0.02798 3.91799,0.812975 5.63672,2.22656 2.74995,2.26173 3.45619,5.29135 1.57617,6.76172 -1.88002,1.47036 -5.64067,0.824233 -8.39062,-1.4375 -2.74996,-2.26173 -3.45619,-5.2894 -1.57617,-6.75977 0.705003,-0.551385 1.67297,-0.807797 2.75391,-0.791016 z"/>
<path style="opacity:.2;fill:#fff" d="m 1,1 v 23 c 5.02346,7.17638 10.435,6.61667 16,3.88672 -4.52022,-1.7282 -11.8564,-5.7601 -12,-13.7637 -0.120601,-6.72188 3.72223,-11.2656 5.31641,-13.133 l -9.3164,.01 Z  m 27.947,-.01 c -8.19788,3.94583 -11.7859,8.68988 -13.4802,13.385 -2.20587,6.11278 0.691974,10.5096 2.91211,12.7969 0.610384,-0.333309 1.2226,-0.683565 1.83594,-1.05078 -2.63492,-2.24829 -3.29733,-5.19521 -1.44922,-6.64062 0.705003,-0.551385 1.67297,-0.807797 2.75391,-0.791016 1.80156,0.02798 3.91799,0.812975 5.63672,2.22656 0.217806,0.179137 0.4,0.369032 0.591797,0.55664 0.57559,-0.331169 1.15104,-0.65159 1.72656,-0.949218 -2.37536,-2.24731 -5.56641,-3.39063 -5.56641,-3.39063 0,0 3.59596,0.60475 7.58984,2.44336 5.26603,-2.23069 10.4956,-2.25131 15.502,4.42383 v -23 l -18.053,-.01 Z "/>
</g>
</svg>
