<svg width="48" version="1.1" xmlns="http://www.w3.org/2000/svg" height="48" xmlns:xlink="http://www.w3.org/1999/xlink">
<defs id="defs4">
<linearGradient id="linearGradient6434">
<stop offset="0" style="stop-color:#fff" id="stop6436"/>
<stop offset="0.2" style="stop-color:#ffbd7d" id="stop8227"/>
<stop offset="0.5" style="stop-color:#ef2929" id="stop8223"/>
<stop offset="1" style="stop-color:#c0000f" id="stop6438"/>
</linearGradient>
<radialGradient fx="103.09141" fy="155.05023" cx="103.09141" cy="155.05023" gradientTransform="matrix(0.5439948,-0.00558323,0.00122468,0.36540156,-31.583446,-34.120503)" r="99.226646" id="radialGradient3264" xlink:href="#linearGradient6434" gradientUnits="userSpaceOnUse"/>
</defs>
<g style="fill-rule:evenodd;stroke:none">
<path style="fill:url(#radialGradient3264);stroke-width:3" id="path3262" d="M 47,1 47,47 1,47 1,1 Z"/>
<path style="fill:#232323" id="path4144" d="m .8008,.8008 v 46.3984 h 10.9863 c 4.51027,-2.22002 15.9862,-12.6687 18.9629,-17.5527 5.05938,-8.30152 -6.8418,-12.5137 -6.8418,-12.5137 0,0 17.6933,2.92025 18.209,15.9023 0.302969,7.62647 -5.92016,12.2363 -8.34766,14.1641 h 13.4297 v -46.3984 h -18.252 c -8.19788,3.94583 -11.7862,8.87909 -13.4805,13.5742 -3.33656,9.24609 5.01367,14.5977 5.01367,14.5977 0,2e-06 -15.2727,-3.27026 -15.4805,-14.8496 -0.120601,-6.72188 3.72223,-11.4548 5.31641,-13.3223 h -9.51562 z  m 20.7187,17.8887 c 1.80156,0.02798 3.91799,0.812975 5.63672,2.22656 2.74995,2.26173 3.45619,5.29135 1.57617,6.76172 -1.88002,1.47036 -5.64067,0.824233 -8.39062,-1.4375 -2.74996,-2.26173 -3.45619,-5.2894 -1.57617,-6.75977 0.705003,-0.551385 1.67297,-0.807797 2.75391,-0.791016 z "/>
<path style="opacity:.2;fill:#fff;stroke-linecap:round;stroke-width:5" id="rect4164" d="m 1,1 v 23 c 5.02346,7.17638 10.435,6.61667 16,3.88672 -4.52022,-1.7282 -11.8564,-5.7601 -12,-13.7637 -0.120601,-6.72188 3.72223,-11.2556 5.31641,-13.123 h -9.31641 z  m 27.9473,0 c -8.19788,3.94583 -11.7862,8.67987 -13.4805,13.375 -2.20587,6.11278 0.691974,10.5096 2.91211,12.7969 0.610384,-0.333309 1.2226,-0.683565 1.83594,-1.05078 -2.63492,-2.24829 -3.29733,-5.19521 -1.44922,-6.64062 0.705003,-0.551385 1.67297,-0.807797 2.75391,-0.791016 1.80156,0.02798 3.91799,0.812975 5.63672,2.22656 0.217806,0.179137 0.399906,0.369032 0.591797,0.55664 0.57559,-0.331169 1.15104,-0.65159 1.72656,-0.949218 -2.37536,-2.24731 -5.56641,-3.39063 -5.56641,-3.39063 0,0 3.59596,0.60475 7.58984,2.44336 5.26603,-2.23069 10.4956,-2.25131 15.502,4.42383 v -23 h -18.0527 z "/>
</g>
</svg>
