<svg width="48" version="1.0" xmlns="http://www.w3.org/2000/svg" viewBox="0 0 48 48" height="48">
<path style="fill:none;stroke:none;fill-opacity:.304" id="path12" d="m 48,48 h -48 v -48 h 48 v 48 z "/>
<path style="fill:#32bcc8;stroke:#248790" id="path9" d="m 40.1202,10.7602 c -2.58472,-3.30688 -2.44895,-4.21554 -5.649,-1.62528 l -2.5815,2.0896 c -1.86876,-1.18818 -4.173,-1.94325 -6.40363,-2.23386 l -.7554,-3.0871 c -1.03802,-4.2422 -2.29275,-2.65753 -5.85107,-1.66327 -3.96877,1.09486 -5.36784,0.368409 -4.33248,4.38366 l .7632,2.9598 c -0.270216,0.238879 -0.645386,0.522403 -0.915602,0.761283 -1.12551,0.850567 -2.01214,1.97135 -2.79381,3.0475 l -2.9931,-.7719 c -4.04212,-1.04246 -3.4236,0.679894 -4.44409,4.12128 -1.25084,4.04681 -2.40209,4.64132 1.69169,5.72541 l 3.1427,.8322 c 0.071254,1.33305 0.397058,2.68177 0.97741,4.04616 l -2.5815,2.0896 c -3.31669,2.68467 -1.90133,2.9134 0.485909,5.8045 2.58472,3.30688 2.44894,4.21554 5.649,1.62528 l 2.5815,-2.0896 c 1.86876,1.18818 4.173,1.94325 6.40363,2.23385 l .7554,3.0871 c 1.03802,4.2422 2.29275,2.65753 5.85107,1.66327 3.96877,-1.09485 5.36784,-0.368369 4.33248,-4.38365 l -.7632,-2.9598 c 0.270217,-0.238885 0.645387,-0.522405 0.915604,-0.761283 1.12551,-0.850566 2.01214,-1.97136 2.79382,-3.04749 l 2.9931,.7719 c 3.87629,1.54913 3.4236,-0.679892 4.44409,-4.12128 1.25084,-4.04681 2.40209,-4.64133 -1.69168,-5.72541 l -3.1427,-.8322 c -0.07125,-1.33306 -0.397057,-2.68177 -0.977408,-4.04616 l 2.5815,-2.0896 c 3.31669,-2.68467 1.90133,-2.9134 -0.485912,-5.8045 z "/>
<g style="stroke:none;line-height:125%;word-spacing:0;letter-spacing:0;font-family:'Bitstream Vera Sans';font-size:28.53876877px">
<g style="opacity:.4" id="g4140" transform="matrix(1.036546,0,0,0.96474252,0.09997795,-0.60005538)">
<path style="font-family:Arial;text-align:start;font-weight:bold" id="path4142" d="m 31.8879,28.4962 -.0003,1.0361 c 0,0 -2.35009,3.39525 -3.06543,3.93871 -1.42137,1.07764 -3.22826,1.61645 -5.42069,1.61645 -2.71267,0 -4.94226,-0.924351 -6.68877,-2.77305 -1.74651,-1.85799 -2.61977,-4.39415 -2.61977,-7.60848 0,-3.40013 0.877902,-6.03848 2.6337,-7.91505 1.7558,-1.88586 4.06436,-2.82879 6.92567,-2.82879 2.499,0 4.52886,0.738552 6.08957,2.21566 0.928997,0.873256 1.62574,2.1274 2.09024,3.76243 l -.0005,1.0365 -4.0824,-.0611 c -0.674682,-2.16449 -2.38088,-3.51467 -4.3059,-3.428 -3.83239,0.172559 -5.06699,3.72665 -5.10019,6.91173 -0.03927,3.76758 1.6205,7.20748 5.01658,7.16256 2.55108,-0.03374 4.00203,-2.11956 4.52886,-4.33377 z "/>
</g>
<g style="fill:#fff" id="text4137" transform="matrix(1.036546,0,0,0.96474252,0.09997795,0.19997231)">
<path style="font-family:Arial;text-align:start;font-weight:bold" id="path4137" d="m 31.8876,28.703 c -0.613138,2.22959 -1.63477,3.88806 -3.06543,4.97498 -1.42137,1.07764 -3.22826,1.61645 -5.42069,1.61645 -2.71267,0 -4.94226,-0.924351 -6.68877,-2.77305 -1.74651,-1.85799 -2.61977,-4.39415 -2.61977,-7.60848 0,-3.40013 0.877902,-6.03848 2.6337,-7.91505 1.7558,-1.88586 4.06436,-2.82879 6.92567,-2.82879 2.499,0 4.52886,0.738552 6.08957,2.21566 0.928997,0.873256 1.62526,2.1276 2.08976,3.76263 l -4.0824,.9752 c -0.674682,-2.16449 -2.38088,-3.51467 -4.3059,-3.428 -3.83239,0.172559 -5.06699,3.72665 -5.10019,6.91173 -0.03927,3.76758 1.6205,7.20748 5.01658,7.16256 2.55108,-0.03374 4.00203,-2.11956 4.52886,-4.33377 z "/>
</g>
</g>
</svg>
