<svg width="48" version="1.0" xmlns="http://www.w3.org/2000/svg" viewBox="0 0 48 48" height="48">
<path style="fill:none;fill-opacity:.304" d="m 48,48 h -48 v -48 h 48 v 48 z "/>
<path style="fill:#32bcc8;stroke:#248790" d="m 40.1202,10.7602 c -2.58472,-3.30688 -2.44895,-4.21554 -5.649,-1.62528 l -2.5815,2.0896 c -1.86876,-1.18818 -4.173,-1.94325 -6.40363,-2.23386 l -.7554,-3.0871 c -1.03802,-4.2422 -2.29275,-2.65753 -5.85107,-1.66327 -3.96877,1.09486 -5.36784,0.368409 -4.33248,4.38366 l .7632,2.9598 c -0.270216,0.238879 -0.645386,0.522403 -0.915602,0.761283 -1.12551,0.850567 -2.01214,1.97135 -2.79381,3.0475 l -2.9931,-.7719 c -4.04212,-1.04246 -3.4236,0.679894 -4.44409,4.12128 -1.25084,4.04681 -2.40209,4.64132 1.69169,5.72541 l 3.1427,.8322 c 0.071254,1.33305 0.397058,2.68177 0.97741,4.04616 l -2.5815,2.0896 c -3.31669,2.68467 -1.90133,2.9134 0.485909,5.8045 2.58472,3.30688 2.44894,4.21554 5.649,1.62528 l 2.5815,-2.0896 c 1.86876,1.18818 4.173,1.94325 6.40363,2.23385 l .7554,3.0871 c 1.03802,4.2422 2.29275,2.65753 5.85107,1.66327 3.96877,-1.09485 5.36784,-0.368369 4.33248,-4.38365 l -.7632,-2.9598 c 0.270217,-0.238885 0.645387,-0.522405 0.915604,-0.761283 1.12551,-0.850566 2.01214,-1.97136 2.79382,-3.04749 l 2.9931,.7719 c 3.87629,1.54913 3.4236,-0.679892 4.44409,-4.12128 1.25084,-4.04681 2.40209,-4.64133 -1.69168,-5.72541 l -3.1427,-.8322 c -0.07125,-1.33306 -0.397057,-2.68177 -0.977408,-4.04616 l 2.5815,-2.0896 c 3.31669,-2.68467 1.90133,-2.9134 -0.485912,-5.8045 z "/>
<path style="opacity:.4" d="m 33.436,26.9795 -.2831,.9115 c 0,0 -2.43598,3.27554 -3.17746,3.79984 -1.47331,1.03964 -3.34624,1.55946 -5.61879,1.55946 -2.81181,0 -5.12288,-0.891761 -6.93322,-2.67528 -1.81034,-1.79248 -2.71551,-4.23922 -2.71551,-7.34022 0,-3.28025 0.909985,-5.82558 2.72995,-7.63598 1.81997,-1.81937 4.2129,-2.72905 7.17877,-2.72905 2.59033,0 4.69437,0.712512 6.31212,2.13754 0.962948,0.842467 2.33752,2.65885 2.65047,4.50319 l -.4844,.1265 -4.2316,-.0589 c -0.699339,-2.08818 -2.46789,-3.39075 -4.46326,-3.30714 -3.97245,0.166475 -5.25217,3.59526 -5.28658,6.66804 -0.0407,3.63474 1.67972,6.95336 5.2,6.91003 2.64431,-0.03255 4.14829,-2.04483 4.69437,-4.18097 z "/>
<path style="fill:#fff" d="m 33.1529,27.891 c -0.635546,2.15098 -1.69451,3.75098 -3.17746,4.79957 -1.47331,1.03965 -3.34624,1.55946 -5.61879,1.55946 -2.81181,0 -5.12288,-0.891761 -6.93322,-2.67528 -1.81034,-1.79248 -2.71551,-4.23922 -2.71551,-7.34022 0,-3.28025 0.909985,-5.82558 2.72995,-7.63598 1.81997,-1.81937 4.2129,-2.72905 7.17877,-2.72905 2.59033,0 4.69437,0.712512 6.31212,2.13754 0.962948,0.842468 1.68466,2.05259 2.16613,3.62997 l -4.2316,.9408 c -0.699339,-2.08817 -2.46789,-3.39075 -4.46326,-3.30714 -3.97245,0.166475 -5.25217,3.59526 -5.28658,6.66804 -0.0407,3.63474 1.67972,6.95336 5.2,6.91003 2.64431,-0.03255 4.14829,-2.04483 4.69437,-4.18097 z "/>
</svg>
