<svg width="64" version="1.1" xmlns="http://www.w3.org/2000/svg" height="64">
<g style="stroke:none" id="g14">
<path style="mix-blend-mode:normal;font-family:sans-serif;text-decoration-style:solid;solid-color:#000000;font-variant-position:normal;white-space:normal;color-interpolation-filters:linearRGB;font-feature-settings:normal;text-transform:none;font-variant-numeric:normal;text-decoration-color:#000000;text-indent:0;text-orientation:mixed;shape-padding:0;vector-effect:none;text-align:start;color:#000;text-decoration-line:none;image-rendering:auto;font-variant-caps:normal;color-rendering:auto;stroke-width:5.2;isolation:auto;color-interpolation:sRGB;font-variant-alternates:normal;solid-opacity:1;text-rendering:auto;line-height:normal;fill:#5a5a5a;font-variant-ligatures:normal;shape-rendering:auto" id="path4512" d="m 32.0254,25.0568 -1.4922,1.3555 c -10.351,9.38202 -11.3908,18.5528 -9.18164,24.9043 2.20915,6.35151 7.17773,9.98438 7.17773,9.98438 l 3.209,2.3965 .8828,-3.9082 c 2.02111,-8.94843 8,-27.5605 8,-27.5605 l .6953,-2.1621 -2.0488,-.9805 c 0,0 -4.47883,-2.20621 -5.55859,-2.91797 z "/>
<path style="fill:#e6e6e6;stroke-width:4" id="path3811-3" d="m 33.297,27.0648 c -21.0666,18.8437 -3.2113,32.1523 -3.2113,32.1523 2.09112,-9.2584 9.71476,-30.0772 9.71476,-30.0772 0,0 -4.92819,-1.03669 -6.50347,-2.07509 z"/>
<path style="mix-blend-mode:normal;font-family:sans-serif;text-decoration-style:solid;solid-color:#000000;font-variant-position:normal;white-space:normal;color-interpolation-filters:linearRGB;font-feature-settings:normal;text-transform:none;font-variant-numeric:normal;text-decoration-color:#000000;text-indent:0;text-orientation:mixed;shape-padding:0;text-align:start;color:#000;text-decoration-line:none;image-rendering:auto;font-variant-caps:normal;color-rendering:auto;stroke-width:5.2;isolation:auto;color-interpolation:sRGB;font-variant-alternates:normal;solid-opacity:1;text-rendering:auto;line-height:normal;fill:#5a5a5a;font-variant-ligatures:normal;shape-rendering:auto" id="path4516" d="m 31.8087,24.5566 -1.2794,1.633 c -1.09619,0.686694 -5.625,2.79102 -5.625,2.79102 l -2.0703,.9336 .6465,2.1758 c 0,0 5.54392,18.7454 7.35742,27.7383 l .793,3.9277 3.2637,-2.3223 c 0,0 5.05072,-3.51774 7.40625,-9.81641 2.35553,-6.29866 1.52961,-15.4903 -8.60156,-25.1094 z "/>
<path style="fill:#2f7147;fill-rule:evenodd;stroke-linejoin:round;stroke-linecap:round;stroke-width:11.741" id="path4495" d="M 44.4844,1.5723 A 14.9745,14.9745 0 0 0 29.5098,16.5469 14.9745,14.9745 0 0 0 44.4844,31.5215 14.9745,14.9745 0 0 0 59.459,16.5469 14.9745,14.9745 0 0 0 44.4844,1.5723 Z m 0,12.0039 a 2.9735,2.9735 0 0 1 2.97266,2.97266 2.9735,2.9735 0 0 1 -2.97266,2.97461 2.9735,2.9735 0 0 1 -2.97461,-2.97461 2.9735,2.9735 0 0 1 2.97461,-2.97266 z"/>
<path style="fill:#e6e6e6;stroke-width:4" id="path3846-6" d="m 30.5293,26.1896 c 20.9127,20.1043 2.85753,33.1252 2.85753,33.1252 -1.78631,-9.93457 -8.24218,-29.3867 -8.24218,-29.3867 0,0 4.05583,-2.44433 5.38465,-3.73851 z"/>
<g style="fill-rule:evenodd;stroke-linejoin:round;stroke-linecap:round" id="g12">
<path style="fill:#2f7147;stroke-width:11.741" id="path4499" d="M 19.5156,1.5723 A 14.9745,14.9745 0 0 0 4.541,16.5469 14.9745,14.9745 0 0 0 19.5156,31.5215 14.9745,14.9745 0 0 0 34.4902,16.5469 14.9745,14.9745 0 0 0 19.5156,1.5723 Z m -0.002,12.0039 a 2.9735,2.9735 0 0 1 2.97461,2.97266 2.9735,2.9735 0 0 1 -2.97461,2.97461 2.9735,2.9735 0 0 1 -2.97266,-2.97461 2.9735,2.9735 0 0 1 2.97266,-2.97266 z"/>
<g style="fill:#7fca9b;stroke-width:11.668" id="g10">
<path id="circle4550" d="M 44.4863,3.9062 A 12.6405,12.6405 0 0 0 31.8457,16.5468 12.6405,12.6405 0 0 0 44.4863,29.1874 12.6405,12.6405 0 0 0 57.1269,16.5468 12.6405,12.6405 0 0 0 44.4863,3.9062 Z m 0,7.3281 a 5.3125,5.3125 0 0 1 5.3125,5.3125 5.3125,5.3125 0 0 1 -5.3125,5.3125 5.3125,5.3125 0 0 1 -5.3125,-5.3125 5.3125,5.3125 0 0 1 5.3125,-5.3125 z"/>
<path id="circle4552" d="M 19.5176,3.9062 A 12.6405,12.6405 0 0 0 6.877,16.5468 12.6405,12.6405 0 0 0 19.5176,29.1874 12.6405,12.6405 0 0 0 32.1582,16.5468 12.6405,12.6405 0 0 0 19.5176,3.9062 Z m 0,7.3281 a 5.3125,5.3125 0 0 1 5.3125,5.3125 5.3125,5.3125 0 0 1 -5.3125,5.3125 5.3125,5.3125 0 0 1 -5.3125,-5.3125 5.3125,5.3125 0 0 1 5.3125,-5.3125 z"/>
</g>
</g>
</g>
</svg>
