<svg width="64" version="1.1" xmlns="http://www.w3.org/2000/svg" height="64">
<g style="stroke:none">
<path style="mix-blend-mode:normal;font-family:sans-serif;text-decoration-style:solid;solid-color:#000000;font-variant-position:normal;white-space:normal;color-interpolation-filters:linearRGB;font-feature-settings:normal;text-transform:none;font-variant-numeric:normal;text-decoration-color:#000000;text-indent:0;text-orientation:mixed;shape-padding:0;vector-effect:none;text-align:start;color:#000;text-decoration-line:none;image-rendering:auto;font-variant-caps:normal;color-rendering:auto;stroke-width:5.325;isolation:auto;color-interpolation:sRGB;font-variant-alternates:normal;solid-opacity:1;text-rendering:auto;line-height:normal;fill:#5a5a5a;font-variant-ligatures:normal;shape-rendering:auto" id="path4535" d="m 33.4043,23.6829 -1.7715,1.0099 c -12.2755,6.99425 -15.4536,16.0833 -14.8086,23.1034 0.645034,7.0201 4.61523,11.9522 4.61523,11.9522 l 2.5508,3.2405 1.7812,-3.7648 c 4.0793,-8.61799 14.2871,-26.1022 14.2871,-26.1022 l 1.1875,-2.0299 -1.7578,-1.5076 c 0,0 -3.82977,-3.3596 -4.71094,-4.35275 z "/>
<path style="fill:#e6e6e6;stroke-width:4.096" id="path3811" d="m 32.8738,27.089 c -23.3227,13.2886 -9.4305,30.9233 -9.4305,30.9233 4.22062,-8.91654 14.3998,-26.3163 14.3998,-26.3163 0,0 -3.6841,-3.15844 -4.9693,-4.60698 z "/>
<path style="mix-blend-mode:normal;font-family:sans-serif;text-decoration-style:solid;solid-color:#000000;font-variant-position:normal;white-space:normal;color-interpolation-filters:linearRGB;font-feature-settings:normal;text-transform:none;font-variant-numeric:normal;text-decoration-color:#000000;text-indent:0;text-orientation:mixed;shape-padding:0;vector-effect:none;text-align:start;color:#000;text-decoration-line:none;image-rendering:auto;font-variant-caps:normal;color-rendering:auto;stroke-width:5.325;isolation:auto;color-interpolation:sRGB;font-variant-alternates:normal;solid-opacity:1;text-rendering:auto;line-height:normal;fill:#5a5a5a;font-variant-ligatures:normal;shape-rendering:auto" id="path4531" d="m 30.5938,23.6829 -1.373,1.5486 c -0.881163,0.993159 -4.71094,4.35275 -4.71094,4.35275 l -1.7578,1.5076 1.1875,2.0299 c 0,0 10.2078,17.4842 14.2871,26.1022 l 1.7812,3.7648 2.5508,-3.2405 c 0,0 3.9702,-4.93205 4.61523,-11.9522 0.645035,-7.0201 -2.53305,-16.1091 -14.8086,-23.1034 z "/>
<path style="fill:#e6e6e6;stroke-width:4.096" id="path3846" d="m 31.1241,27.089 c 23.3227,13.2886 9.4305,30.9233 9.4305,30.9233 -4.22062,-8.91654 -14.3998,-26.3163 -14.3998,-26.3163 0,0 3.6841,-3.15844 4.96929,-4.60698 z "/>
<g style="stroke-linejoin:round;fill-rule:evenodd;stroke-linecap:round">
<g style="fill:#2f7147;stroke-width:11.741">
<path id="path4495" d="M 44.4844,3.0508 A 14.9745,14.9745 0 0 0 29.5098,18.0254 14.9745,14.9745 0 0 0 44.4844,33 14.9745,14.9745 0 0 0 59.459,18.0254 14.9745,14.9745 0 0 0 44.4844,3.0508 Z m 0,12.0039 a 2.9735,2.9735 0 0 1 2.97266,2.97266 2.9735,2.9735 0 0 1 -2.97266,2.97461 2.9735,2.9735 0 0 1 -2.97461,-2.97461 2.9735,2.9735 0 0 1 2.97461,-2.97266 z"/>
<path id="path4499" d="M 19.5156,3.0508 A 14.9745,14.9745 0 0 0 4.541,18.0254 14.9745,14.9745 0 0 0 19.5156,33 14.9745,14.9745 0 0 0 34.4902,18.0254 14.9745,14.9745 0 0 0 19.5156,3.0508 Z m -0.002,12.0039 a 2.9735,2.9735 0 0 1 2.97461,2.97266 2.9735,2.9735 0 0 1 -2.97461,2.97461 2.9735,2.9735 0 0 1 -2.97266,-2.97461 2.9735,2.9735 0 0 1 2.97266,-2.97266 z"/>
</g>
<g style="stroke-width:11.668;fill:#7fca9b">
<path id="circle4550" d="M 44.4863,5.3847 A 12.6405,12.6405 0 0 0 31.8457,18.0253 12.6405,12.6405 0 0 0 44.4863,30.6659 12.6405,12.6405 0 0 0 57.1269,18.0253 12.6405,12.6405 0 0 0 44.4863,5.3847 Z m 0,7.3281 a 5.3125,5.3125 0 0 1 5.3125,5.3125 5.3125,5.3125 0 0 1 -5.3125,5.3125 5.3125,5.3125 0 0 1 -5.3125,-5.3125 5.3125,5.3125 0 0 1 5.3125,-5.3125 z"/>
<path id="circle4552" d="M 19.5176,5.3847 A 12.6405,12.6405 0 0 0 6.877,18.0253 12.6405,12.6405 0 0 0 19.5176,30.6659 12.6405,12.6405 0 0 0 32.1582,18.0253 12.6405,12.6405 0 0 0 19.5176,5.3847 Z m 0,7.3281 a 5.3125,5.3125 0 0 1 5.3125,5.3125 5.3125,5.3125 0 0 1 -5.3125,5.3125 5.3125,5.3125 0 0 1 -5.3125,-5.3125 5.3125,5.3125 0 0 1 5.3125,-5.3125 z"/>
</g>
</g>
</g>
</svg>
