<svg width="48" version="1.1" xmlns="http://www.w3.org/2000/svg" height="48">
<path style="fill:#c8c8c8;fill-rule:evenodd;stroke:none;stroke-linejoin:bevel;stroke-linecap:round;stroke-width:2" id="rect4142" d="m 4,1 40,0 c 1.662,0 3,1.338 3,3 l 0,40 c 0,1.662 -1.338,3 -3,3 L 4,47 C 2.338,47 1,45.662 1,44 L 1,4 C 1,2.338 2.338,1 4,1 Z"/>
<g style="fill:#395067">
<path id="path4166" d="m 38.5641,30.118 6.2584,0 C 43.26144,38.40536 35.475098,45.300213 25.4539,45.49 11.403848,45.756087 3.3755,35.3841 3.5823,23.4297 3.805101,10.5536 12.70878,2.4865 25.5491,2.509 34.97666,2.525548 41.4599,7.24552 44.1155,15.4329 l -6.24978,0 C 35.83985,9.50708 30.84846,6.40642 25.42212,6.53566 c -8.53552,0.203277 -14.7916,7.81105 -14.8906,16.865 -0.106586,9.74995 6.11261,17.772 14.4144,17.5628 7.14281,-0.179973 12.1405,-4.85275 13.6182,-10.8454 z"/>
<path id="path4177" d="m 20.2788,8.6386 3.0323,0 0,5.3779 q 0,1.11163 0.472568,1.59233 0.480444,0.474696 1.55947,0.474696 1.08691,0 1.55947,-0.474696 0.480444,-0.480704 0.480444,-1.59233 v -5.37788 h 3.03231 v 5.37788 q 0,1.90479 -1.2523,2.83616 -1.25231,0.931365 -3.81993,0.931365 -2.55974,0 -3.81205,-0.931365 -1.25231,-0.931365 -1.25231,-2.83616 v -5.37788 z "/>
<path id="path4179" d="m 20.2788,19.0301 5.0329,0 q 2.2447,0 3.44187,0.755447 1.20505,0.749499 1.20505,2.14142 0,1.39787 -1.20505,2.15332 -1.19717,0.7495 -3.44187,0.7495 h -2.00054 v 3.08127 h -3.03231 v -8.88096 z  m 3.0323,1.6596 0,2.4805 1.6776,0 q 0.882127,0 1.36257,-0.321214 0.480444,-0.327161 0.480444,-0.922001 0,-0.594839 -0.480444,-0.916053 -0.480445,-0.321214 -1.36257,-0.321214 h -1.67762 z "/>
<path id="path4181" d="m 29.4377,29.0892 0,2.1562 q -1.07987,-0.375286 -2.10706,-0.566341 -1.02719,-0.191057 -1.94025,-0.191057 -1.21156,0 -1.79101,0.259291 -0.579442,0.259289 -0.579442,0.805161 0,0.409403 0.386295,0.641401 0.395074,0.225173 1.42227,0.388934 l 1.4398,.2252 q 2.18608,0.341169 3.10792,1.03716 0.921841,0.695988 0.921841,1.97879 0,1.68538 -1.29058,2.51101 -1.2818,0.818808 -3.92441,0.818808 -1.24668,0 -2.50214,-0.184228 -1.25546,-0.184236 -2.51092,-0.545873 v -2.21761 q 1.25546,0.518581 2.42312,0.78469 1.17645,0.259291 2.2651,0.259291 1.10621,0 1.69443,-0.286582 0.588221,-0.286582 0.588221,-0.818809 0,-0.47764 -0.403853,-0.736929 -0.395075,-0.259287 -1.58908,-0.463989 l -1.3081,-.2252 q -1.96659,-0.327525 -2.87965,-1.04398 -0.904283,-0.716457 -0.904283,-1.93102 0,-1.52162 1.26424,-2.34043 1.26424,-0.818808 3.63469,-0.818808 1.07987,0 2.2212,0.129647 1.14133,0.12282 2.36167,0.375288 z "/>
</g>
</svg>
