<svg width="48" version="1.0" xmlns="http://www.w3.org/2000/svg" height="48">
<path style="fill:#8c8c8c" d="m 5.832,1.5003 c -1.73516,0 -3.53571,1.80055 -3.53571,3.53571 v 37.928 c 0,1.73516 2,3.53571 3.73571,3.53571 h 36.136 c 1.73516,0 3.53571,-1.80055 3.53571,-3.53571 v -37.928 c 0,-1.73516 -1.80055,-3.53571 -3.53571,-3.53571 z"/>
<path style="fill:#e2e6ea" d="M 6.4317,2.5 C 4.69654,2.5 3.29628,3.90026 3.29628,5.63542 v 36.7292 c 0,1.73516 1.40026,3.13542 3.13542,3.13542 h 35.1366 c 1.73516,0 3.13542,-1.40026 3.13542,-3.13542 V 5.63542 C 44.70372,3.90026 43.30346,2.5 41.5683,2.5 Z"/>
<path style="opacity:.65;fill:#fff" d="m 41.46,24.4001 c 0,2.20574 -1.77574,3.98148 -3.98148,3.98148 h -9.55556 c -2.20574,0 -3.98148,-1.77574 -3.98148,-3.98148 0,-2.20574 1.77574,-3.98148 3.98148,-3.98148 h 9.55556 c 2.20574,0 3.98148,1.77574 3.98148,3.98148 z "/>
<path style="fill:#3d404d" d="m 41.4595,23.6 c 0,2.20574 -1.77574,3.98148 -3.98148,3.98148 h -9.55556 c -2.20574,0 -3.98148,-1.77574 -3.98148,-3.98148 0,-2.20574 1.77574,-3.98148 3.98148,-3.98148 h 9.55556 c 2.20574,0 3.98148,1.77574 3.98148,3.98148 z "/>
<g style="fill:#fff">
<path d="m 39.0706,23.6 c 0,-1.75913 -1.42605,-3.18519 -3.18518,-3.18519 -1.75913,0 -3.18519,1.42606 -3.18519,3.18519 0,1.75913 1.42606,3.18518 3.18519,3.18518 1.75913,0 3.18518,-1.42606 3.18518,-3.18519 z"/>
<path style="opacity:.65" d="m 41.46,11.6594 c 0,2.20574 -1.77574,3.98148 -3.98148,3.98148 h -9.55556 c -2.20574,0 -3.98148,-1.77574 -3.98148,-3.98148 0,-2.20574 1.77574,-3.98148 3.98148,-3.98148 h 9.55556 c 2.20574,0 3.98148,1.77574 3.98148,3.98148 z"/>
</g>
<path style="fill:#3d404d" d="m 41.4595,10.8592 c 0,2.20574 -1.77574,3.98148 -3.98148,3.98148 h -9.55556 c -2.20574,0 -3.98148,-1.77574 -3.98148,-3.98148 0,-2.20574 1.77574,-3.98148 3.98148,-3.98148 h 9.55556 c 2.20574,0 3.98148,1.77574 3.98148,3.98148 z "/>
<g style="fill:#fff">
<path d="m 32.7003,10.8592 c 0,-1.75913 -1.42605,-3.18519 -3.18518,-3.18519 -1.75913,0 -3.18519,1.42606 -3.18519,3.18519 0,1.75913 1.42606,3.18519 3.18519,3.18519 1.75913,0 3.18518,-1.42606 3.18518,-3.18519 z"/>
<rect width="10" x="7" y="22.65" rx="1" height="3" style="opacity:.65;stroke-width:.913"/>
</g>
<g style="stroke-width:.913">
<rect width="10" x="7" y="22.15" rx="1" height="3" style="fill:#5a5f72"/>
<rect width="10" x="7" y="10.1" rx="1" height="3" style="opacity:.65;fill:#fff"/>
<rect width="10" x="7" y="9.6" rx="1" height="3" style="fill:#5a5f72"/>
<rect width="10" x="7" y="35.2" rx="1" height="3" style="opacity:.65;fill:#fff"/>
<rect width="10" x="7" y="34.7" rx="1" height="3" style="fill:#5a5f72"/>
</g>
<path style="opacity:.65;fill:#fff" d="m 41.46,37.1407 c 0,2.20574 -1.77574,3.98148 -3.98148,3.98148 h -9.55556 c -2.20574,0 -3.98148,-1.77574 -3.98148,-3.98148 0,-2.20574 1.77574,-3.98148 3.98148,-3.98148 h 9.55556 c 2.20574,0 3.98148,1.77574 3.98148,3.98148 z "/>
<path style="fill:#3d404d" d="m 41.4595,36.3405 c 0,2.20574 -1.77574,3.98148 -3.98148,3.98148 h -9.55556 c -2.20574,0 -3.98148,-1.77574 -3.98148,-3.98148 0,-2.20574 1.77574,-3.98148 3.98148,-3.98148 h 9.55556 c 2.20574,0 3.98148,1.77574 3.98148,3.98148 z "/>
<path style="fill:#fff" d="m 32.7003,36.3405 c 0,-1.75913 -1.42605,-3.18519 -3.18518,-3.18519 -1.75913,0 -3.18519,1.42606 -3.18519,3.18519 0,1.75913 1.42606,3.18519 3.18519,3.18519 1.75913,0 3.18518,-1.42606 3.18518,-3.18519 z "/>
</svg>
