<svg width="128" version="1.1" xmlns="http://www.w3.org/2000/svg" height="128">
<g style="stroke:none">
<path style="text-align:start;shape-rendering:auto;mix-blend-mode:normal;color-interpolation-filters:linearRGB;isolation:auto;white-space:normal;font-family:sans-serif;text-decoration-line:none;opacity:.25;fill:#5a5a5a;solid-opacity:1;image-rendering:auto;text-decoration-style:solid;text-rendering:auto;solid-color:#000000;line-height:normal;text-decoration-color:#000000;color:#000;text-transform:none;stroke-width:15.959;color-rendering:auto;text-indent:0;color-interpolation:sRGB" id="path4267" d="m 51.2805,2.7944 c -27.0205,1e-07 -49.0957,22.0772 -49.0957,49.0977 -0.0001932,27.0206 22.0751,49.0957 49.0957,49.0957 9.52763,0 18.4335,-2.75392 25.9805,-7.49219 0.04167,0.04568 0.07295,0.09638 0.117187,0.140625 l 33.2363,33.2363 c 1.39981,1.39981 3.54356,1.51112 4.80469,0.25 l 9.5195,-9.5195 c 1.26112,-1.26112 1.14786,-3.40291 -0.25196,-4.80273 l -33.0449,-33.0449 c 5.49786,-7.9283 8.73445,-17.531 8.73438,-27.8633 0,-27.0205 -22.0752,-49.0977 -49.0957,-49.0977 z  m 0,15.959 c 18.3957,0 33.1367,14.7428 33.1367,33.1387 0.000131,18.3959 -14.7409,33.1367 -33.1367,33.1367 -18.3958,0 -33.1369,-14.7408 -33.1367,-33.1367 1e-06,-18.3958 14.741,-33.1387 33.1367,-33.1387 z "/>
<rect width="19.901245" x="-8.670805" y="114.52763" rx="3.2193165" ry="3.5733576" height="54.149933" style="fill:#429cd6" id="rect3755-2" transform="matrix(0.70710678,-0.70710678,0.70710678,0.70710678,0,0)"/>
</g>
<path style="fill:none;stroke:#429cd6;stroke-width:15.959" id="path2985-6" d="m 92.3974,49.0961 a 41.1167,41.1168 0 0,1 -41.1167,41.1167 41.1167,41.1168 0 0,1 -41.1167,-41.1167 41.1167,41.1168 0 0,1 41.1167,-41.1168 41.1167,41.1168 0 0,1 41.1167,41.1168 Z "/>
<path style="font-family:Sans;fill:#4da34d;text-align:start;stroke:none;line-height:normal;color:#000;text-indent:0;text-transform:none" id="path3503" d="m 72.1696,32.3639 c -0.718071,0.0012 -1.35803,0.384955 -1.93369,0.814188 l -25.991,19.3798 -12.3903,-6.824 c -1.26391,-0.696092 -2.8764,-1.03248 -3.88436,0 l -4.1894,3.9937 c -0.972043,1.00057 -0.972043,2.78201 0,3.78258 l 19.4881,21.1913 c 1.00796,1.03248 2.8764,1.03248 3.88435,0 l 30.3037,-34.3564 c 0.981926,-1.00196 0.981926,-2.79758 0,-3.79954 l -3.3366,-3.3675 c -0.506626,-0.516832 -1.22694,-0.817484 -1.95066,-0.814189 Z "/>
</svg>
