<svg width="48" version="1.0" xmlns="http://www.w3.org/2000/svg" height="48">
<path style="fill:#8c8c8c" d="m 5.0362,1.5 c -1.73516,0 -3.53601,1.8 -3.536,3.53571 v 37.928 c 0,1.73516 2,3.536 3.73571,3.536 h 37.7277 c 1.73516,0 3.53654,-1.8 3.53655,-3.536 l 0,-37.928 C 46.5,3.3 44.69848,1.5 42.96332,1.5 Z"/>
<path style="fill:#e2e6ea" d="M 5.63585,2.5 C 3.9,2.5 2.5,3.9 2.5,5.63542 v 36.7292 c 0,1.73516 1.4,3.13542 3.13542,3.13542 h 36.7283 c 1.73516,0 3.13628,-1.4 3.13628,-3.13542 V 5.63542 C 45.50086,3.9 44.1,2.5 42.36415,2.5 Z"/>
<path style="opacity:.65;fill:#fff" d="m 41.4595,24.8 c 0,2.20574 -1.77574,3.98148 -3.98148,3.98148 h -9.55556 c -2.20574,0 -3.98148,-1.77574 -3.98148,-3.98148 0,-2.20574 1.77574,-3.98148 3.98148,-3.98148 h 9.55556 c 2.20574,0 3.98148,1.77574 3.98148,3.98148 z"/>
<path style="fill:#3d404d" d="m 41.4595,24 c 0,2.20574 -1.77574,3.98148 -3.98148,3.98148 h -9.55556 c -2.20574,0 -3.98148,-1.77574 -3.98148,-3.98148 0,-2.20574 1.77574,-3.98148 3.98148,-3.98148 h 9.55556 c 2.20574,0 3.98148,1.77574 3.98148,3.98148 z"/>
<g style="fill:#fff">
<path style="opacity:.65" d="m 41.4595,12.2815 c 0,2.20574 -1.77574,3.98148 -3.98148,3.98148 h -9.55556 c -2.20574,0 -3.98148,-1.77574 -3.98148,-3.98148 0,-2.20574 1.77574,-3.98148 3.98148,-3.98148 h 9.55556 c 2.20574,0 3.98148,1.77574 3.98148,3.98148 z"/>
<path d="m 39.0706,24 c 0,-1.75913 -1.42605,-3.18519 -3.18518,-3.18519 -1.75913,0 -3.18519,1.42606 -3.18519,3.18519 0,1.75913 1.42606,3.18518 3.18519,3.18518 1.75913,0 3.18518,-1.42606 3.18518,-3.18519 z"/>
<path style="opacity:.65" d="m 41.4595,37.3215 c 0,2.20574 -1.77574,3.98148 -3.98148,3.98148 h -9.55556 c -2.20574,0 -3.98148,-1.77574 -3.98148,-3.98148 0,-2.20574 1.77574,-3.98148 3.98148,-3.98148 h 9.55556 c 2.20574,0 3.98148,1.77574 3.98148,3.98148 z"/>
</g>
<path style="fill:#3d404d" d="m 41.4595,11.4815 c 0,2.20574 -1.77574,3.98148 -3.98148,3.98148 h -9.55556 c -2.20574,0 -3.98148,-1.77574 -3.98148,-3.98148 0,-2.20574 1.77574,-3.98148 3.98148,-3.98148 h 9.55556 c 2.20574,0 3.98148,1.77574 3.98148,3.98148 z "/>
<path style="fill:#fff" d="m 32.7003,11.4815 c 0,-1.75913 -1.42605,-3.18519 -3.18518,-3.18519 -1.75913,0 -3.18519,1.42606 -3.18519,3.18519 0,1.75913 1.42606,3.18519 3.18519,3.18519 1.75913,0 3.18518,-1.42606 3.18518,-3.18519 z "/>
<path style="fill:#3d404d" d="m 41.4595,36.5215 c 0,2.20574 -1.77574,3.98148 -3.98148,3.98148 h -9.55556 c -2.20574,0 -3.98148,-1.77574 -3.98148,-3.98148 0,-2.20574 1.77574,-3.98148 3.98148,-3.98148 h 9.55556 c 2.20574,0 3.98148,1.77574 3.98148,3.98148 z "/>
<path style="fill:#fff" d="m 32.7003,36.5215 c 0,-1.75913 -1.42605,-3.18519 -3.18518,-3.18519 -1.75913,0 -3.18519,1.42606 -3.18519,3.18519 0,1.75913 1.42606,3.18519 3.18519,3.18519 1.75913,0 3.18518,-1.42606 3.18518,-3.18519 z "/>
<g style="fill:#717e7f;fill-rule:evenodd">
<rect width="12" x="6" y="9.5" height="3"/>
<rect width="12" x="6" y="16" height="3"/>
<rect width="12" x="6" y="22.5" height="3"/>
<rect width="12" x="6" y="29" height="3"/>
<rect width="12" x="6" y="35.5" height="3"/>
</g>
</svg>
