<svg width="48" version="1.0" xmlns="http://www.w3.org/2000/svg" height="48">
<g style="stroke:none">
<path style="fill:#c0821c" id="path4151" d="M 5.1337209,2 C 3.3925781,2 2,3.3925781 2,5.1337209 L 2,42.866279 C 2,44.607421 3.3925781,46 5.1337209,46 L 42.866279,46 C 44.607421,46 46,44.607421 46,42.866279 L 46,5.1337209 C 46,3.3925781 44.607421,2 42.866279,2 L 5.1337209,2 Z"/>
<g style="opacity:.2" id="g4153" transform="translate(0.89981,0.8998)">
<path id="path4155" d="m 24.2238,7.2762 c 8.65139,0 15.6686,7.07591 15.6686,15.7965 0,8.72061 -7.01722,15.7965 -15.6686,15.7965 -2.85118,0 -5.53135,-0.768755 -7.8343,-2.11046 l 2.1424,-3.7733 c 1.67729,0.979639 3.61387,1.56686 5.69186,1.56686 6.29193,0 11.4157,-5.13739 11.4157,-11.4797 0,-6.34226 -5.12377,-11.4797 -11.4157,-11.4797 -6.29192,0 -11.3837,5.13739 -11.3837,11.4797 l 2.84593,0 -2.4942,4.2849 -2.4942,4.3169 -2.4942,-4.3169 -2.4942,-4.2849 2.87791,0 c 0,-8.7206 6.98524,-15.7965 15.6366,-15.7965 z"/>
<path id="path4157" d="m 24.2238,13 c 0.788932,0 1.43895,0.643707 1.43895,1.43895 v 8.02616 l 4.6366,4.6686 c 0.557859,0.562321 0.613143,1.36579 0.159883,1.82267 l -.3837,.3837 c -0.453261,0.456886 -1.26481,0.370458 -1.82267,-0.19186 l -5.0203,-5.0843 c -0.07132,-0.07188 -0.136952,-0.137965 -0.19186,-0.223837 -0.285922,-0.402461 -0.365251,-0.863587 -0.223838,-1.24709 v -8.15407 c 0,-0.795246 0.618045,-1.43895 1.40698,-1.43895 z "/>
</g>
<g style="fill:#fff" id="g15">
<path id="path4149" d="m 24.2238,7.2762 c 8.65139,0 15.6686,7.07591 15.6686,15.7965 0,8.72061 -7.01722,15.7965 -15.6686,15.7965 -2.85118,0 -5.53135,-0.768755 -7.8343,-2.11046 l 2.1424,-3.7733 c 1.67729,0.979639 3.61387,1.56686 5.69186,1.56686 6.29193,0 11.4157,-5.13739 11.4157,-11.4797 0,-6.34226 -5.12377,-11.4797 -11.4157,-11.4797 -6.29192,0 -11.3837,5.13739 -11.3837,11.4797 l 2.84593,0 -2.4942,4.2849 -2.4942,4.3169 -2.4942,-4.3169 -2.4942,-4.2849 2.87791,0 c 0,-8.7206 6.98524,-15.7965 15.6366,-15.7965 z"/>
<path id="rect3716" d="m 24.2238,13 c 0.788932,0 1.43895,0.643707 1.43895,1.43895 v 8.02616 l 4.6366,4.6686 c 0.557859,0.562321 0.613143,1.36579 0.159883,1.82267 l -.3837,.3837 c -0.453261,0.456886 -1.26481,0.370458 -1.82267,-0.19186 l -5.0203,-5.0843 c -0.07132,-0.07188 -0.136952,-0.137965 -0.19186,-0.223837 -0.285922,-0.402461 -0.365251,-0.863587 -0.223838,-1.24709 v -8.15407 c 0,-0.795246 0.618045,-1.43895 1.40698,-1.43895 z "/>
</g>
</g>
</svg>
