<svg width="128" version="1.1" xmlns="http://www.w3.org/2000/svg" viewBox="0 0 128 128" height="128" style="enable-background:new 0 0 128 128">
<defs id="defs4001">
<linearGradient id="XMLID_9_" y1="20.0117" x1="18.7383" y2="45.0119" gradientUnits="userSpaceOnUse" x2="119.072">
<stop offset="0" style="stop-color:#bbdbd8" id="stop3935"/>
<stop offset="0.3708" style="stop-color:#dfecdb" id="stop3937"/>
<stop offset="0.6798" style="stop-color:#dfecdb" id="stop3939"/>
<stop offset="1" style="stop-color:#e2e3c9" id="stop3941"/>
</linearGradient>
<linearGradient id="XMLID_14_" y1="54.5889" x1="57.5889" y2="67.5428" gradientUnits="userSpaceOnUse" x2="70.5428">
<stop offset="0" style="stop-color:#bbdbd8" id="stop3990"/>
<stop offset="1" style="stop-color:#d8bdb6" id="stop3992"/>
</linearGradient>
<linearGradient id="XMLID_8_" y1="72.9668" x1="11.998" y2="99.2332" gradientUnits="userSpaceOnUse" x2="89.7672">
<stop offset="0" style="stop-color:#ced1e3" id="stop3922"/>
<stop offset="0.1854" style="stop-color:#e7e6f0" id="stop3924"/>
<stop offset="0.618" style="stop-color:#e7e6f0" id="stop3926"/>
<stop offset="0.8933" style="stop-color:#dbc0c4" id="stop3928"/>
<stop offset="1" style="stop-color:#d8bdb6" id="stop3930"/>
</linearGradient>
<linearGradient id="XMLID_12_" y1="40.708" x1="47.1772" y2="81.7672" gradientUnits="userSpaceOnUse" x2="81.2175">
<stop offset="0" style="stop-color:#879b95" id="stop3972"/>
<stop offset="0.5056" style="stop-color:#8e8e9c" id="stop3974"/>
<stop offset="1" style="stop-color:#9b8a91" id="stop3976"/>
</linearGradient>
<linearGradient id="XMLID_13_" y1="41.7246" x1="48.02" y2="80.726" gradientUnits="userSpaceOnUse" x2="80.3542">
<stop offset="0" style="stop-color:#879b95" id="stop3981"/>
<stop offset="0.5056" style="stop-color:#8e8e9c" id="stop3983"/>
<stop offset="1" style="stop-color:#9b8a91" id="stop3985"/>
</linearGradient>
</defs>
<g style="fill:#3d3d3d" id="g33">
<path style="opacity:.2" id="path3915" d="M64.105,2c-33.636,0-61,27.364-61,61c0,33.638,27.364,61.002,61,61.002s61-27.364,61-61.002  C125.105,29.364,97.741,2,64.105,2z M64.105,71.476c-4.672,0-8.474-3.801-8.474-8.476c0-4.672,3.801-8.474,8.474-8.474  c4.672,0,8.474,3.801,8.474,8.474C72.579,67.675,68.777,71.476,64.105,71.476z"/>
<path style="opacity:.2" id="path3917" d="M64.105,1c-33.636,0-61,27.364-61,61c0,33.638,27.364,61.002,61,61.002s61-27.364,61-61.002  C125.105,28.364,97.741,1,64.105,1z M64.105,70.476c-4.672,0-8.474-3.801-8.474-8.476c0-4.672,3.801-8.474,8.474-8.474  c4.672,0,8.474,3.801,8.474,8.474C72.579,66.675,68.777,70.476,64.105,70.476z"/>
<path style="opacity:.6" id="path3919" d="M64,0C30.364,0,3,27.364,3,61s27.364,61,61,61s61-27.364,61-61S97.636,0,64,0z M64,69  c-4.411,0-8-3.588-8-8c0-4.411,3.589-8,8-8s8,3.589,8,8C72,65.412,68.411,69,64,69z"/>
</g>
<path style="fill:url(#XMLID_8_)" id="path3932" d="M72.727,64.692c-1.438,3.397-4.804,5.781-8.727,5.781c-5.233,0-9.474-4.241-9.474-9.474  c0-0.199,0.018-0.394,0.03-0.59L5.247,48.789C4.431,52.731,4,56.815,4,61c0,33.137,26.864,60,60,60  c27.844,0,51.252-18.971,58.021-44.689L72.727,64.692z"/>
<path style="fill:url(#XMLID_9_)" id="path3943" d="M64,1C35.048,1,10.888,21.508,5.247,48.789l49.31,11.621c0.306-4.956,4.41-8.883,9.444-8.883  c5.233,0,9.474,4.242,9.474,9.474c0,1.31-0.266,2.558-0.747,3.692l49.295,11.618C123.308,71.422,124,66.292,124,61  C124,27.864,97.136,1,64,1z"/>
<path style="fill:#dce8eb" id="path3945" d="M7.46,40.904l48.369,15.317c0.301-0.514,0.647-0.995,1.036-1.441L16.429,24.453  C12.632,29.388,9.585,34.926,7.46,40.904z"/>
<path style="fill:#e6e9f0" id="path3947" d="M54.526,61c0-0.629,0.064-1.243,0.182-1.838l-50.09-6.72C4.218,55.239,4,58.093,4,61  c0,3.127,0.241,6.197,0.702,9.194l49.833-9.033C54.534,61.107,54.526,61.055,54.526,61z"/>
<path style="fill:#bacbd8" id="path3949" d="M4.618,52.442l50.09,6.72c0.208-1.055,0.595-2.043,1.121-2.94L7.46,40.904  C6.147,44.598,5.187,48.456,4.618,52.442z"/>
<path style="fill:#ebdfda" id="path3951" d="M120.116,82.246l-47.865-16.6c-0.323,0.572-0.706,1.105-1.137,1.596l39.591,31.406  C114.654,93.755,117.849,88.23,120.116,82.246z"/>
<path style="fill:#d7c8b4" id="path3953" d="M123.227,70.598l-49.79-8.855c-0.11,1.412-0.525,2.734-1.186,3.904l47.865,16.6  C121.525,78.525,122.578,74.63,123.227,70.598z"/>
<path style="fill:#f0eee3" id="path3955" d="M73.474,61c0,0.251-0.019,0.497-0.037,0.743l49.79,8.855C123.729,67.472,124,64.268,124,61  c0-2.267-0.137-4.501-0.382-6.702l-50.226,5.524C73.44,60.208,73.474,60.6,73.474,61z"/>
<path style="opacity:.2;fill:url(#XMLID_12_)" id="path3978" d="M64,34.403C49.312,34.403,37.403,46.31,37.403,61  c0,14.688,11.908,26.597,26.597,26.597c14.688,0,26.597-11.908,26.597-26.597C90.597,46.31,78.688,34.403,64,34.403z M64,70.974  c-5.51,0-9.974-4.465-9.974-9.974c0-5.508,4.464-9.974,9.974-9.974s9.974,4.465,9.974,9.974C73.974,66.509,69.51,70.974,64,70.974z"/>
<path style="fill:url(#XMLID_13_)" id="path3987" d="M64,35.737c-13.951,0-25.263,11.31-25.263,25.263c0,13.952,11.312,25.263,25.263,25.263  S89.263,74.952,89.263,61C89.263,47.047,77.951,35.737,64,35.737z M64,70.474c-5.233,0-9.474-4.241-9.474-9.474  c0-5.232,4.24-9.474,9.474-9.474s9.474,4.242,9.474,9.474C73.474,66.232,69.233,70.474,64,70.474z"/>
<path style="fill:url(#XMLID_14_)" id="path3994" d="M64,51c-5.523,0-10,4.477-10,10c0,5.522,4.477,10,10,10c5.522,0,10-4.478,10-10  C74,55.477,69.522,51,64,51z M64,70.5c-5.248,0-9.5-4.253-9.5-9.5c0-5.247,4.252-9.5,9.5-9.5s9.5,4.253,9.5,9.5  C73.5,66.247,69.248,70.5,64,70.5z"/>
<g style="fill:#fff" id="g51">
<path style="opacity:.08" id="path3996" d="M39.045,57.061c-0.201,1.284-0.308,2.599-0.308,3.939c0,1.013,0.066,2.01,0.183,2.992  l15.615-2.831c-0.001-0.054-0.008-0.107-0.008-0.162c0-0.629,0.064-1.243,0.182-1.838L39.045,57.061z M89.092,58.095l-15.699,1.727  C73.44,60.208,73.474,60.6,73.474,61c0,0.251-0.019,0.497-0.037,0.743l15.577,2.771c0.16-1.149,0.249-2.321,0.249-3.514  C89.263,60.017,89.2,59.049,89.092,58.095z M71.114,67.242l12.383,9.822c1.538-1.864,2.813-3.953,3.771-6.21l-15.017-5.208  C71.928,66.219,71.545,66.752,71.114,67.242z M40.627,51.408l15.202,4.814c0.301-0.514,0.647-0.995,1.036-1.441l-12.646-9.485  C42.752,47.141,41.537,49.194,40.627,51.408z"/>
<path style="opacity:.5" id="path3998" d="M64,1C30.864,1,4,27.864,4,61c0,20.921,10.715,39.332,26.949,50.07  c-15.742-10.716-26.09-28.848-26.09-49.414c0-32.923,26.527-59.615,59.247-59.615s59.246,26.691,59.246,59.615  c0,17.349-7.37,32.961-19.124,43.855C116.369,94.533,124,78.658,124,61C124,27.864,97.136,1,64,1z"/>
</g>
<g style="font-family:'le mans';fill:#006764;stroke:none;stroke-width:1.136;font-size:4.90302038px" id="text2337" transform="scale(1.0136239,0.9865592)">
<path style="font-family:'Bitstream Vera Sans';font-weight:bold;font-size:29.41817093px" id="path4188" d="m 5.9812,99.5622 0,13.0859 1.9823,0 q 3.38998,0 5.17116,-1.68062 1.79554,-1.68063 1.79554,-4.88388 0,-3.18888 -1.78118,-4.85515 -1.78118,-1.66626 -5.18553,-1.66626 h -1.98228 z  m -5.5303,-4.18 5.8319,0 q 4.88388,0 7.26836,0.703853 2.39884,0.689488 4.1082,2.35575 1.50826,1.4508 2.24084,3.34689 0.732582,1.8961 0.732582,4.29494 0,2.42757 -0.732582,4.33803 -0.732581,1.89609 -2.24084,3.34689 -1.72372,1.66627 -4.13693,2.37012 -2.41321,0.68949 -7.23963,0.68949 h -5.83192 v -21.446 z "/>
<path style="font-family:'Bitstream Vera Sans';font-weight:bold;font-size:29.41817093px" id="path4190" d="m 40.6998,108.741 0,1.4652 -12.023,0 q 0.186736,1.8099 1.30716,2.71486 1.12042,0.90495 3.13143,0.90495 1.62317,0 3.31816,-0.47402 1.70936,-0.48839 3.5049,-1.46517 v 3.96456 q -1.82427,0.68949 -3.64854,1.03424 -1.82427,0.3591 -3.64854,0.3591 -4.36676,0 -6.79433,-2.2121 -2.41321,-2.22648 -2.41321,-6.23413 0,-3.93583 2.37012,-6.19103 2.38448,-2.2552 6.55014,-2.2552 3.79219,0 6.06175,2.28393 2.28393,2.28393 2.28393,6.10484 z  m -5.2861,-1.7094 q 0,-1.46517 -0.861861,-2.35575 -0.847496,-0.90496 -2.22647,-0.90496 -1.49389,0 -2.42757,0.8475 -0.933682,0.83313 -1.16351,2.41321 h 6.67942 z "/>
<path style="font-family:'Bitstream Vera Sans';font-weight:bold;font-size:29.41817093px" id="path4192" d="m 42.2512,95.3822 5.559,0 5.6883,15.8295 5.6739,-15.8295 5.559,0 -7.9435,21.446 -6.5932,0 -7.9435,-21.446 z "/>
<path style="font-family:'Bitstream Vera Sans';font-weight:bold;font-size:29.41817093px" id="path4194" d="m 81.7818,108.741 0,1.4652 -12.023,0 q 0.186736,1.8099 1.30715,2.71486 1.12042,0.90495 3.13143,0.90495 1.62317,0 3.31816,-0.47402 1.70936,-0.48839 3.5049,-1.46517 v 3.96456 q -1.82427,0.68949 -3.64854,1.03424 -1.82427,0.3591 -3.64854,0.3591 -4.36676,0 -6.79433,-2.2121 -2.41321,-2.22648 -2.41321,-6.23413 0,-3.93583 2.37012,-6.19103 2.38448,-2.2552 6.55014,-2.2552 3.79219,0 6.06175,2.28393 2.28393,2.28393 2.28393,6.10484 z  m -5.2861,-1.7094 q 0,-1.46517 -0.861861,-2.35575 -0.847496,-0.90496 -2.22647,-0.90496 -1.49389,0 -2.42757,0.8475 -0.933682,0.83313 -1.16351,2.41321 h 6.67942 z "/>
<path style="font-family:'Bitstream Vera Sans';font-weight:bold;font-size:29.41817093px" id="path4196" d="m 91.4203,99.5622 0,13.0859 1.9823,0 q 3.38998,0 5.17116,-1.68062 1.79554,-1.68063 1.79554,-4.88388 0,-3.18888 -1.78118,-4.85515 -1.78118,-1.66626 -5.18553,-1.66626 h -1.98228 z  m -5.5303,-4.18 5.8319,0 q 4.88388,0 7.26836,0.703853 2.39884,0.689488 4.1082,2.35575 1.50825,1.4508 2.24084,3.34689 0.73258,1.8961 0.73258,4.29494 0,2.42757 -0.73258,4.33803 -0.73259,1.89609 -2.24084,3.34689 -1.72372,1.66627 -4.13693,2.37012 -2.41321,0.68949 -7.23963,0.68949 h -5.83192 v -21.446 z "/>
<path style="font-family:'Bitstream Vera Sans';font-weight:bold;font-size:29.41817093px" id="path4198" d="m 126.1389,108.741 0,1.4652 -12.0229,0 q 0.18673,1.8099 1.30715,2.71486 1.12042,0.90495 3.13143,0.90495 1.62317,0 3.31816,-0.47402 1.70936,-0.48839 3.5049,-1.46517 v 3.96456 q -1.82427,0.68949 -3.64854,1.03424 -1.82427,0.3591 -3.64854,0.3591 -4.36676,0 -6.79434,-2.2121 -2.41321,-2.22648 -2.41321,-6.23413 0,-3.93583 2.37012,-6.19103 2.38448,-2.2552 6.55014,-2.2552 3.79219,0 6.06175,2.28393 2.28393,2.28393 2.28393,6.10484 z  m -5.2861,-1.7094 q 0,-1.46517 -0.86186,-2.35575 -0.84749,-0.90496 -2.22647,-0.90496 -1.49389,0 -2.42757,0.8475 -0.93369,0.83313 -1.16351,2.41321 h 6.67941 z "/>
</g>
</svg>
