<svg width="48" version="1.0" xmlns="http://www.w3.org/2000/svg" height="48">
<g id="layer1">
<g style="text-decoration-style:solid;line-height:normal;text-rendering:auto;solid-color:#000000;text-decoration-color:#000000;color-interpolation:sRGB;color:#000;text-indent:0;text-transform:none;color-rendering:auto;stroke:none;isolation:auto;white-space:normal;image-rendering:auto;text-align:start;shape-rendering:auto;mix-blend-mode:normal;solid-opacity:1;font-family:sans-serif;text-decoration-line:none">
<path style="color-interpolation-filters:linearRGB;fill:#ce5c00" id="path4243" d="m 24.1426,10.9591 -.4355,.8672 -8.9023,17.6914 19.1211,.0352 -9.7832,-18.5938 z  m -.1426,8.6289 3.2715,6.2129 -6.3301,-.0254 3.0586,-6.1875 Z "/>
<path style="color-interpolation-filters:linearRGB;fill:#fdb166" id="path4241" d="m 24.1641,13.1447 -7.7383,15.377 15.8418,.0273 -8.1035,-15.4043 z  m -.1641,6.4434 3.2715,6.2129 -6.3301,-.0254 3.0586,-6.1875 Z "/>
<path style="color-interpolation-filters:linearRGB;fill:#ce5c00" id="path4239" d="m 23.9707,17.3868 -.4336,.8789 -4.2012,8.502 9.5957,.0391 -4.9609,-9.4199 z  m .0293,2.2012 3.2715,6.2129 -6.3301,-.0254 3.0586,-6.1875 Z "/>
</g>
<g style="stroke:#373e40;fill:#b4b6b2">
<path id="path3812" d="m 1.9645,5.024 0,2 0,2 23.1326,0 c 4.82021,0.01322 9.14806,1.52688 12.1932,3.84375 3.05852,2.32707 4.79578,5.36323 4.79578,8.65625 0,3.29302 -1.73725,6.32918 -4.79578,8.65625 -3.05853,2.32707 -7.41011,3.84375 -12.2559,3.84375 h -20.2488 -2.85239 -0.031345 v 4 h 23.1326 c 5.67411,0 10.8604,-1.73432 14.7008,-4.65625 3.84038,-2.92193 6.36303,-7.13277 6.36303,-11.8438 0,-4.71098 -2.52265,-8.92182 -6.36303,-11.8437 -3.82607,-2.91105 -8.98875,-4.64339 -14.6381,-4.65625 h -20.2488 -2.5076 -0.344795 z "/>
<path id="rect3719" d="m 8.3733,10.8875 5,0 0,29.3024 3.534,0 -5.9715,6.5479 -6.0945,-6.5559 3.532,.008 0,-29.3024 z "/>
</g>
<rect width="8.9999981" x="6.3733187" y="1.0240257" height="10" style="fill:#85db30;stroke:#306003" id="rect2694"/>
</g>
</svg>
