<svg width="48" version="1.0" xmlns="http://www.w3.org/2000/svg" height="48" xmlns:xlink="http://www.w3.org/1999/xlink">
<g style="stroke:none">
<rect width="43" x="2.5000002" y="3.101938" height="43" style="opacity:0;fill:#333" id="rect4580"/>
<path style="fill:#19445f" id="path3042" d="m 24.625,2.6079 a 21.489,21.489 0 0,0 -22.125,21.5 21.5,21.5 0 0,0 43,0 21.489,21.489 0 0,0 -20.875,-21.5 z "/>
<path style="fill:#fff" id="path3812" d="m -73.4432,-5.5004 a 13.1354,15.3406 0 1,1 -26.2708,0 13.1354,15.3406 0 1,1 26.2708,0 z " transform="matrix(1.1419516,0,0,0.97779608,122.86861,29.378287)"/>
<g style="fill:#5aa2d2" id="g3836" transform="translate(8.2815853e-4,0.5972199)">
<path id="path3040" d="m 24,8.4075 c 1.36212,0.00555 2.57176,0.186552 3.71875,0.46875 -3.42591,3.11276 -6.96318,6.14361 -10.4375,9.21875 0.199327,-2.75639 0.366238,-5.58497 0.5625,-8.34375 1.06832,-0.569929 2.4042,-0.906147 3.84375,-1.1875 l .9062,-.0938 c 0.483979,-0.03665 0.95221,-0.064351 1.40625,-0.0625 z "/>
<path id="path3038" d="m 29.3125,9.3762 c 1.12396,0.401407 2.29315,1.04982 3.46875,1.84375 0.235067,0.180626 0.483682,0.350677 0.71875,0.53125 1.59165,1.35851 2.7221,2.78889 3.53125,4.25 -4.69652,-0.296263 -9.39433,-0.68062 -14.0938,-1 2.12875,-1.88818 4.24864,-3.71802 6.375,-5.625 z "/>
<path id="path3036" d="m 16.4688,10.47 c -0.262652,4.61163 -0.589098,9.16349 -0.84375,13.7812 -1.90916,-2.0421 -3.72116,-4.22313 -5.59375,-6.3125 1.26303,-3.17422 3.37627,-5.69289 6.4375,-7.46875 z "/>
<path id="path3034" d="m 29.2188,16.7825 c 2.83925,0.187015 5.64901,0.390498 8.5,0.5625 0.504681,1.08167 0.863387,2.3557 1.125,3.75 0.03673,0.294081 0.05702,0.612117 0.09375,0.90625 0.152469,2.08709 -0.0296,3.89744 -0.5,5.5 -3.09058,-3.54876 -6.14261,-7.1516 -9.21875,-10.7188 z "/>
<path id="path3032" d="m 9.5313,19.3762 c 3.09208,3.42902 6.24341,7.12021 9.34375,10.6562 -2.86746,-0.185976 -5.70577,-0.40281 -8.59375,-0.5625 -0.504628,-1.08173 -0.863387,-2.3558 -1.125,-3.75 -0.03678,-0.294081 -0.05697,-0.612169 -0.09375,-0.90625 -0.152469,-2.05955 0.019758,-3.84564 0.46875,-5.4375 z "/>
<path id="path3030" d="m 32.25,22.3137 c 1.89706,2.21072 3.82296,4.4035 5.6875,6.65625 -1.30438,3.15136 -3.40939,5.68213 -6.46875,7.46875 0.247639,-4.71496 0.489299,-9.44464 0.78125,-14.125 z "/>
<path id="path3028" d="m 30.5938,28.72 c -0.166183,2.78221 -0.340697,5.56307 -0.46875,8.375 -1.07471,0.537512 -2.39576,0.884715 -3.8125,1.15625 -0.294081,0.03673 -0.612065,0.05702 -0.90625,0.09375 -2.0049,0.152885 -3.7097,-0.03318 -5.28125,-0.4375 3.42861,-3.11063 6.97079,-6.13074 10.4688,-9.1875 z "/>
<path id="path3045" d="m 11,30.7825 c 4.67849,0.317613 9.35341,0.659212 14.0625,0.9375 -0.260419,0.265406 -0.493945,0.490436 -0.75,0.71875 -1.87867,1.67456 -3.81042,3.35221 -5.71875,4.96875 -3.24424,-1.31446 -5.83239,-3.45283 -7.65625,-6.59375 0.02026,-0.0025 0.04219,-0.02865 0.0625,-0.03125 z "/>
</g>
</g>
</svg>
