<svg width="128" version="1.1" xmlns="http://www.w3.org/2000/svg" height="128" xmlns:xlink="http://www.w3.org/1999/xlink">
<defs id="defs6">
<linearGradient gradientTransform="matrix(1.25,0,0,-1.25,0,707.2375)" xlink:href="#linearGradient4018" id="linearGradient4024" y1="388.47525" x1="365.93668" y2="302.76767" x2="451.5787" gradientUnits="userSpaceOnUse"/>
<linearGradient id="linearGradient4018">
<stop offset="0" style="stop-color:#769bde" id="stop4020"/>
<stop offset="1" style="stop-color:#2752a1" id="stop4022"/>
</linearGradient>
<linearGradient gradientTransform="matrix(1.25,0,0,-1.25,0,707.2375)" xlink:href="#linearGradient4018" id="linearGradient4032" y1="259.56354" x1="266.72159" y2="174.45528" x2="491.17593" gradientUnits="userSpaceOnUse"/>
</defs>
<g style="stroke:none" id="g10">
<g id="g34" transform="matrix(0.18520209,0,0,0.18520209,2.4954735,0.00116511)">
<g style="fill:#eb222c" id="g36">
<path id="path204" d="m 450.9488,649.572 c 0,0 -23.0038,-3.30663 -25.4287,6.288 -1.61125,6.378 7.62,16.3746 19.8288,18.9844 24.2425,5.18075 45.2704,-9.29735 45.2704,-9.29735 l -28.7275,-16.8168"/>
<path id="path746" d="m 453.6571,647.2483 c 0,0 -28.1372,-2.98978 -31.0896,7.55709 -1.96375,7.01175 7.6975,18.646 22.57,21.5146 29.5312,5.69587 54.21,-8.85838 54.21,-8.85838 0,0 -6.7036,-1.59299 -9.86735,-2.22524 -3.16375,3.164 -29.1563,10.8727 -42.8664,6.86487 -9.6025,-2.80763 -20.25,-8.226 -19.6175,-16.0312 0.805,-9.917 37.4833,-4.52068 37.4833,-4.52068 l -2.7694,-3.7058"/>
</g>
<g style="fill:#c7282a" id="g40">
<path id="path748" d="m 603.7613,675.4768 c 2.95375,3.58637 32.485,17.7183 45.3525,15.398 12.8675,-2.31938 15.31,-7.67488 15.0575,-14.0821 -0.28125,-7.17187 -22.44,-25.7851 -22.44,-25.7851 l -3.5862,4.2188 c 0,0 20.25,16.2905 20.25,21.3053 0,3.375 1.37875,5.97012 -9.91375,9.28075 -12.235,3.58637 -40.3126,-13.7095 -40.3126,-13.7095 0,0 -7.35993,-0.21237 -4.40743,3.37401"/>
<path id="path250" d="m 607.328,672.3926 c 29.8125,24.75 80.4963,16.1918 31.5588,-17.5582"/>
</g>
<path style="fill:url(#linearGradient4024)" id="path296" d="m 653.3325,97.5075 c 5.4875,3.56625 -12.445,10.3363 -12.445,10.3363 0,0 -70.4125,124.63 -74.8825,143.649 -4.4725,19.0175 -0.72625,34.2113 -3.165,41.3438 -2.43875,7.13125 -6.96,4.85125 -6.96,4.85125 0,0 15.5425,22.265 8.22625,30.5863 -7.31625,8.32 -23.695,-24.525 -72.8075,-36.8775 -34.3464,-3.79969 -63.213,-7.69894 -63.9024,-6.7544 -2.67125,4.09375 -5.2513,9.4594 -8.8563,15.4706 -4.67375,7.7875 -16.1762,-2.61375 -15.8012,-8.75375 1.01625,-16.64 17.1525,-20.6037 24.4688,-29.32 7.3175,-8.71625 15.5163,-25.9812 29.9525,-41.5537 15.2437,-16.4425 74.04,-81.6338 167.274,-113.696 3.83625,-1.31875 25.5175,-11.4787 28.8987,-9.28125"/>
</g>
<g id="g54" transform="matrix(0.18520209,0,0,0.18520209,2.4954735,0.00116511)">
<path style="fill:url(#linearGradient4032)" id="path406" d="m 340.0312,297.035 c -3.60375,-9.38625 -35.5788,23.0625 -42.3288,42.1875 -12.125,34.3525 1.36,87.9375 13.3487,90.8637 11.6363,2.84 9.71375,-1.70625 19.1075,0.84375 21.4588,5.82375 52.0475,19.93 58.5175,38.5312 16.6112,47.7562 17.2725,124.607 41.625,154.124 74.25,90 232.324,58.7613 220.5,0 -2.39,-11.8784 -30.2625,-24.6371 -48.375,-42.7494 -10.125,-10.125 -5.625,-27.2812 -5.625,-27.2812 0,0 23.625,-9.84375 18,-78.4688 0,0 -69.75,-25.875 -79.875,-49.5 -3.96375,-9.24874 -75.375,-16.875 -124.875,-33.75 -46.8562,-15.9737 -57.425,-61.9862 -70.02,-94.8012"/>
<path style="fill:#2957ab" id="path410" d="m 300.5612,341.4712 c 0,0 -8.4375,83.6262 15.3763,71.2512 16.0825,-8.3575 15.375,-49.875 15.375,-49.875 0,0 9.34875,-61.885 2.25,-63 -13.1263,-2.0625 -33.0013,41.6237 -33.0013,41.6237"/>
<path style="fill:#2953a7" id="path412" d="m 300.92,341.4375 c 0,0 -8.13,83.2163 15.0175,71.285 16.12,-8.28 15.545,-49.8575 15.545,-49.8575 0,0 9.17875,-61.9025 2.08,-63.0175 -13.1263,-2.0625 -32.6425,41.59 -32.6425,41.59"/>
<path style="fill:#2a50a4" id="path414" d="m 301.2775,341.4038 c 0,0 -7.82375,82.8075 14.66,71.3187 16.1587,-8.2025 15.715,-49.8413 15.715,-49.8413 0,0 9.00875,-61.9187 1.91,-63.0337 -13.1263,-2.0625 -32.285,41.5562 -32.285,41.5562"/>
<path style="fill:#203876" id="path416" d="m 301.6363,341.37 c 0,0 -7.51625,82.3975 14.3012,71.3525 16.195,-8.12375 15.8863,-49.825 15.8863,-49.825 0,0 8.8375,-61.935 1.73875,-63.05 -13.1263,-2.0625 -31.9262,41.5225 -31.9262,41.5225"/>
<g style="fill:#f29a70" id="g61">
<path id="path436" d="m 503.075,292.485 c 0,0 -34.875,-10.97 -73.9688,-8.71875 -3.375,2.53125 -6.46875,7.875 -8.71875,11.8112 -2.25125,3.93875 -0.28125,17.1575 -0.28125,17.1575 0,0 -18.845,19.6862 -12.9375,31.7812 6.61625,13.5462 84.0924,38.339 103.217,27.089 19.125,-11.25 18.9444,-43.022 15.4701,-53.5277 -3.375,-12.6562 -22.7813,-25.5925 -22.7813,-25.5925"/>
<path id="path438" d="m 336.2937,334.8125 c 0,0 -14.3438,-19.6175 -15.1888,-24.2575 -0.8425,-4.64125 -2.515,-25.7262 -8.4375,-28.6875 -10.1237,-5.0625 -36.9137,-1.89875 -40.4988,-0.21125 -3.58625,1.6875 -13.7113,19.4062 -9.91375,22.3587 3.79625,2.95375 10.125,2.11 10.125,2.11 0,0 -3.73875,10.0387 0,13.9225 5.48375,5.695 12.8662,-3.7975 12.8662,-3.7975 0,0 -2.9525,11.8125 0.21125,13.5 3.16375,1.6875 7.59375,0.4225 7.59375,0.4225 0,0 3.58625,8.22625 9.70375,10.335 6.11625,2.11 12.0225,-0.42125 12.0225,-0.42125 0,0 14.1338,21.515 16.2425,22.3587 2.11,0.84375 5.27375,-27.6325 5.27375,-27.6325"/>
</g>
<path style="fill:#231f20" id="path440" d="m 335.7138,335.2337 c -0.6625,0.99375 -14.625,-17.7175 -17.1575,-25.8737 -2.53,-8.1575 -0.56125,-18.2812 -7.31125,-25.3125 -6.75125,-7.03125 -36.2825,-1.96875 -38.25,-0.84375 -1.96875,1.12375 -11.5312,12.0938 -9,18.5625 2.53,6.4675 13.2188,0.5625 13.2188,0.5625 v 2.53125 c 0,0 -9,7.3125 -4.21875,13.7812 4.78,6.4675 11.8112,-3.9375 11.8112,-3.9375 0,0 3.93875,-1.125 2.25125,1.125 -1.6875,2.24875 -3.375,6.1875 -1.96875,10.6862 1.40625,4.5 6.1875,1.97 6.1875,1.97 l 1.125,2.8125 c 0,0 -7.3125,1.12375 -8.4375,-0.84375 -1.125,-1.96875 -1.6875,-6.75125 -1.125,-10.125 -1.40625,0.28125 -5.625,5.34375 -12.375,0.28125 -4.6825,-3.5125 0,-14.0625 0,-14.0625 0,0 -8.4375,3.375 -9.56375,-2.8125 -1.12375,-6.1875 3.6575,-21.375 13.22,-23.9062 9.5625,-2.5325 34.875,-3.65625 40.2175,1.40625 5.345,5.0625 6.47,16.3125 8.72,25.5925 4.12375,17.0138 14.9062,25.0325 12.6562,28.4062"/>
</g>
</g>
<path style="stroke:#231f20;stroke-width:.232" id="path452" d="m 43.1091,30.3137 c -0.468793,5.93782 8.77349,22.8404 10.613,23.5307 l .7422,-.6642 c -5.36508,-5.20881 -10.3134,-20.1057 -11.3552,-22.8663 Z "/>
<g style="fill:#fff;stroke:none" id="g62">
<path id="path456" d="m 99.9002,59.527 c 0.549352,2.88245 0.09029,6.36008 -1.56264,8.12574 -1.47791,1.57838 -4.39299,2.06247 -6.66728,1.26725 -0.980645,0.376423 -2.44815,2.6565 -8.59453,-1.51055 -2.1356,0.520881 -2.70858,1.82308 -4.75506,1.24109 0.104176,30.8361 16.564,37.7118 17.5014,38.7535 0.937817,1.0417 18.3352,6.14632 17.9185,-1.87541 -0.41671,-8.02132 -10.0009,-12.5011 -11.9803,-32.2946 -0.3836,-3.8367 1.35406,-5.10439 1.35406,-5.10439 l -1.4876,-1.12 c 0,0 0.67738,-4.74003 1.55292,-5.19584 2.10019,-1.09269 3.17412,0.07825 3.06,-0.768358 -0.0412,-0.30975 -6.04685,-4.94699 -9.98563,-6.48416 1.60478,1.61612 3.30308,3.16557 3.64617,4.96573"/>
<path id="path752" d="m 84.7143,62.9516 c 0,0 9.65668,0 9.15895,2.63704 -0.49773,2.63681 -2.28978,4.05315 -5.17664,4.19946 -2.8873,0.146541 -4.92476,-2.44143 -5.52226,-2.34373 -1.07996,0.176405 -3.93555,2.88104 -5.47852,0.195157 -1.5432,-2.68567 2.03467,-5.80584 2.93684,-5.90865 2.14023,-0.244235 4.08161,1.22071 4.08161,1.22071"/>
</g>
<path id="path1436" d="m 87.5403,51.5656 c -0.248402,0.372488 1.66682,-2.44815 1.66682,-2.44815"/>
<g id="g4322">
<g style="fill:#f7ee33;stroke:#f7ee33;stroke-width:.463" id="g35">
<path id="path1000" d="m 17.8747,17.9623 -1.3585,-.5639 -1.2345,.7994 .1166,-1.4661 -1.1418,-.9274 1.4304,-.3419 .5289,-1.3726 .7675,1.2547 1.4688,.0789 -.9561,1.1177 z "/>
<path id="path1004" d="m 6.6236,37.5344 -1.3583,-.5639 -1.2346,.7991 .1166,-1.4659 -1.1418,-.9274 1.4304,-.3422 .529,-1.3723 .7675,1.2547 1.4687,.0787 -.9561,1.1179 Z "/>
</g>
<g style="fill:#fac816;stroke:none" id="g39">
<path id="path1006" d="m 5.2128,22.7891 -.7215,-.2887 -.6559,.4091 .0619,-.7505 -.6065,-.4746 l .7598,-.1753 .2812,-.7028 .4076,.6424 .7802,.0405 -.5079,.5723"/>
<path id="path1008" d="m 18.3629,8.0498 -.7215,-.2889 -.656,.4093 .062,-.7505 -.6065,-.4748 .7598,-.175 .2811,-.7028 .4076,.6424 .7803,.0405 -.5078,.572"/>
<path id="path1010" d="m 44.0395,1.9826 -.7216,-.2887 -.6558,.4093 .0618,-.7505 -.6065,-.4748 .76,-.1753 .2808,-.7026 .4079,.6424 .7802,.0403 -.5079,.5723"/>
<path id="path1012" d="m 52.7589,5.3165 -.7218,-.2889 -.6556,.4093 .0618,-.7505 -.6065,-.4748 .7598,-.1752 .281,-.7026 .4079,.6424 .7802,.0403 -.5079,.5723"/>
<path id="path1014" d="m 74.9868,9.0617 -.7214,-.2889 -.6561,.4093 .0623,-.7508 -.6065,-.4746 .7596,-.1752 .2813,-.7026 l .4074,.6424 .7804,.0405 -.5079,.572"/>
<path id="path1016" d="m 41.6435,37.7153 -.7218,-.2892 -.6556,.4095 .0618,-.7505 -.6065,-.4748 .76,-.1752 .281,-.7026 .4077,.6424 .7802,.0403 -.5079,.5723"/>
<path id="path1018" d="m 27.3221,39.4069 -.7214,-.2887 -.6561,.4091 .0618,-.7505 -.6063,-.4748 .7598,-.175 .281,-.7026 .4077,.6422 .7804,.0405 -.5082,.5723"/>
<path id="path1020" d="m 25.7594,32.9479 -.7215,-.2887 -.656,.4091 .0619,-.7505 -.6063,-.4748 .7598,-.175 .281,-.7028 .4077,.6424 .7804,.0405 -.5082,.5721"/>
<path id="path1022" d="m 36.5301,23.3197 -.7218,-.2887 -.6556,.4091 .0618,-.7505 -.6065,-.4748 .76,-.175 .281,-.7026 .4077,.6424 .7802,.0403 -.5079,.5723 .2012,.7276"/>
<path id="path1024" d="m 71.4927,39.511 -.7214,-.2889 -.6561,.4093 .0618,-.7505 -.6063,-.4748 .7598,-.175 .281,-.7026 .4077,.6422 .7804,.0405 -.5079,.5721"/>
<path id="path1026" d="m 70.8198,28.4382 -.7214,-.2887 -.6561,.4093 .0623,-.7505 -.6065,-.4748 .7596,-.1752 .2813,-.7026 .4074,.6424 .7804,.0403 -.5079,.5723"/>
<path id="path1028" d="m 84.5712,21.5629 -.7216,-.2889 -.6558,.4093 .062,-.7508 -.6065,-.4746 .7596,-.1753 .281,-.7024 .4077,.6422 .7804,.0405 -.5077,.5721"/>
</g>
<g style="fill:#f7ee33;stroke:#f7ee33;stroke-width:.463" id="g53">
<path id="path1032" d="m 24.3348,54.5152 -1.3584,-.5637 -1.2346,.7994 .1167,-1.4663 -1.1417,-.9272 1.4304,-.3424 .529,-1.3723 .7674,1.2547 1.4687,.0789 -.956,1.1177 z "/>
<path id="path1036" d="m 38.5015,29.2524 -1.3585,-.5637 -1.2346,.7989 .1167,-1.4659 -1.1418,-.9272 1.4304,-.3424 .529,-1.3723 .7674,1.2545 1.4687,.0789 -.9561,1.1177 z "/>
<path id="path1040" d="m 49.9081,27.3831 -1.4279,.3512 -.5207,1.3756 -.7753,-1.2499 -1.4691,-.0697 .9489,-1.1237 -.3875,-1.4189 1.3619,.5554 1.2295,-.807 -.1074,1.4668 z "/>
<path id="path1044" d="m 54.0516,37.3363 -1.3582,-.5639 -1.2346,.7994 .1165,-1.4661 -1.1415,-.9272 1.4304,-.3424 .529,-1.3723 .7674,1.2547 1.4687,.0789 -.9561,1.1177 z "/>
<path id="path1048" d="m 83.0125,30.4609 -1.3582,-.5639 -1.2348,.7991 .1167,-1.4661 -1.1418,-.9274 1.4304,-.3422 .5292,-1.3721 .7674,1.2545 1.4684,.0789 -.9556,1.1177 z "/>
<path id="path1052" d="m 62.19,35.297 -1.0274,-1.0527 -1.4497,.25 .6834,-1.3024 -.6855,-1.3013 1.4499,.2475 1.0258,-1.0543 .2128,1.4554 1.3193,.6498 -1.3184,.6519 z "/>
<path id="path1056" d="m 35.017,38.0507 -.9776,-1.0987 -1.4596,.1824 .7431,-1.2696 -.6246,-1.3316 1.4369,.3144 1.0732,-1.0056 .1451,1.4638 1.2881,.71 -1.3471,.5906 z "/>
<path id="path1060" d="m 61.5523,7.7503 -1.3582,-.5639 -1.2346,.7994 .1165,-1.4661 -1.1418,-.9272 l 1.4304,-.3422 .529,-1.3726 .7677,1.2547 1.4684,.0789 -.9556,1.1177 z "/>
<path id="path1064" d="m 32.1091,7.5704 -1.4689,-.0734 -.8931,1.1686 -.3843,-1.4198 -1.3874,-.4882 1.2314,-.8042 .0357,-1.4703 1.1455,.9228 1.4094,-.4207 -.5237,1.3747 Z "/>
</g>
</g>
<path style="fill:#231f20;stroke:none" id="path1570" d="m 81.6543,52.6592 c 0,0 -1.43254,1.87541 -1.61473,2.6044 -0.182192,0.729464 0.05209,2.50047 0.05209,2.50047 0,0 -1.97959,2.2398 -2.39605,4.21912 -0.416704,1.97935 0.156033,2.50023 0.156033,2.50023 l .3278,-.6679 c 0,0 -0.457912,-0.543337 -0.197472,-1.68928 0.26044,-1.14594 1.83628,-3.51582 2.46134,-4.06287 0.282664,-0.247245 -0.390777,-1.79692 -0.117372,-2.6565 0.273636,-0.859338 1.79716,-2.81276 1.79716,-2.81276 l -.4688,.065"/>
<g id="g4288">
<g style="font-size:2.77802944px" id="text1574" transform="matrix(0.25840916,-0.96603556,0.96603556,0.25840916,0,0)">
<path style="font-family:Helvetica;fill:#eb222c;stroke:none;font-weight:bold;font-size:11.25059605px" id="path4290" d="m -35.6333,19.2439 -1.6876,0 0,8.2017 1.6876,0 0,-8.2017 z "/>
</g>
<g style="font-size:2.7780304px" id="text1578" transform="matrix(0.40750212,-0.91320426,0.91320426,0.40750212,0,0)">
<path style="font-family:Helvetica;fill:#eb222c;stroke:none;font-weight:bold;font-size:11.2509737px" id="path4287" d="m -29.7553,26.2618 0,6.0755 1.5751,0 0,-3.6453 c 0,-0.742564 0.405035,-1.1926 1.08009,-1.1926 0.528795,0 0.855074,0.303776 0.855074,0.787568 v 4.05035 h 1.57514 v -3.64532 c 0,-0.742564 0.405035,-1.1926 1.08009,-1.1926 0.528796,0 0.855074,0.303776 0.855074,0.787568 v 4.05035 h 1.57514 v -4.29787 c 0,-1.18135 -0.720063,-1.87891 -1.93517,-1.87891 -0.765066,0 -1.30511,0.270023 -1.77765,0.900078 -0.292525,-0.5738 -0.900078,-0.900078 -1.65389,-0.900078 -0.69756,0 -1.1476,0.23627 -1.66514,0.855074 v -0.753815 h -1.56388 z "/>
</g>
<g style="font-size:2.77803063px" id="text1582" transform="matrix(0.61288111,-0.79017514,0.79017514,0.61288111,0,0)">
<path style="font-family:Helvetica;fill:#eb222c;stroke:none;font-weight:bold;font-size:11.25136948px" id="path4284" d="m -6.7095,36.3231 c -0.281284,-0.258782 -0.360044,-0.427552 -0.360044,-0.74259 v -3.37541 c 0,-1.23765 -0.843853,-1.86773 -2.48655,-1.86773 -1.6427,0 -2.4978,0.697585 -2.59907,2.10401 h 1.51893 c 0.07876,-0.630076 0.337541,-0.832601 1.11389,-0.832601 0.607574,0 0.911361,0.202525 0.911361,0.607574 0,0.202525 -0.101262,0.382547 -0.270033,0.472558 -0.213776,0.112513 -0.213776,0.112513 -0.99012,0.236278 l -.6301,.1125 c -1.2039,0.202525 -1.78897,0.82135 -1.78897,1.91273 0,0.517563 0.146268,0.945115 0.427552,1.2489 0.348793,0.360044 0.877607,0.57382 1.41767,0.57382 0.675082,0 1.29391,-0.292536 1.84522,-0.866356 0,0.315039 0.033754,0.427552 0.180022,0.607574 h 1.71021 v -0.191273 z  m -1.9015,-2.2503 c 0,0.911361 -0.450055,1.42892 -1.2489,1.42892 -0.528814,0 -0.855104,-0.281284 -0.855104,-0.731339 0,-0.472558 0.24753,-0.697585 0.900109,-0.832601 l .5401,-.1013 c 0.416301,-0.07876 0.483809,-0.101262 0.663831,-0.191273 v 0.427552 z "/>
</g>
<g style="font-size:2.77803135px" id="text1586" transform="matrix(0.76802493,-0.64041994,0.64041994,0.76802493,0,0)">
<path style="font-family:Helvetica;fill:#eb222c;stroke:none;font-weight:bold;font-size:11.25065804px" id="path4281" d="m 5.6912,30.9685 0,.9338 c -0.472528,-0.720043 -0.990058,-1.03506 -1.6876,-1.03506 -1.44008,0 -2.52015,1.40633 -2.52015,3.28519 0,1.89011 0.990058,3.15018 2.4864,3.15018 0.708792,0 1.13632,-0.213762 1.72135,-0.877551 v 0.821298 c 0,0.731293 -0.551282,1.23757 -1.33883,1.23757 -0.596285,0 -0.990058,-0.247515 -1.11382,-0.708792 h -1.63135 c 0.011251,0.472528 0.191261,0.798797 0.596285,1.13632 0.483778,0.393773 1.15882,0.585034 2.09262,0.585034 1.83386,0 2.89142,-0.821298 2.89142,-2.25013 v -6.27787 h -1.49634 z  m -1.3501,1.2151 c 0.787546,0 1.37258,0.821298 1.37258,1.94636 0,1.10256 -0.573784,1.85636 -1.39508,1.85636 -0.742543,0 -1.26007,-0.753794 -1.26007,-1.85636 0,-1.14757 0.51753,-1.94636 1.28258,-1.94636 z "/>
</g>
<g style="font-size:2.7780304px" id="text1590" transform="matrix(0.89120429,-0.45360215,0.45360215,0.89120429,0,0)">
<path style="font-family:Helvetica;fill:#eb222c;stroke:none;font-weight:bold;font-size:11.25097275px" id="path4278" d="m 21.6004,31.8759 c 0.01125,-0.135012 0.01125,-0.191267 0.01125,-0.270024 0,-0.607552 -0.09001,-1.1701 -0.23627,-1.59764 -0.405035,-1.1026 -1.38387,-1.7664 -2.61023,-1.7664 -1.7439,0 -2.81274,1.26011 -2.81274,3.29653 0,1.94642 1.05759,3.13902 2.77899,3.13902 1.36137,0 2.46396,-0.776317 2.81274,-1.96892 h -1.55263 c -0.191266,0.483792 -0.630054,0.765066 -1.20385,0.765066 -0.450039,0 -0.81007,-0.191267 -1.03509,-0.528796 -0.146263,-0.225019 -0.202518,-0.495043 -0.22502,-1.06884 h 4.07285 z  m -4.0504,-1.0463 c 0.101259,-0.922579 0.495043,-1.38387 1.1926,-1.38387 0.393784,0 0.753815,0.191266 0.978835,0.506293 0.146262,0.22502 0.213768,0.46129 0.247521,0.877576 h -2.41896 z "/>
</g>
<g style="font-size:2.77803016px" id="text1594" transform="matrix(0.98867142,-0.15009607,0.15009607,0.98867142,0,0)">
<path style="font-family:Helvetica;fill:#eb222c;stroke:none;font-weight:bold;font-size:11.25134087px" id="path4275" d="m 36.5827,18.7865 1.4739,6.3908 1.6877,0 1.4514,-6.3908 0,6.3908 1.6877,0 0,-8.2022 -2.5428,0 -1.4402,6.5258 -1.4852,-6.5258 -2.5203,0 0,8.2022 1.6877,0 0,-6.3908 z "/>
</g>
<g style="font-size:2.7780323px" id="text1598" transform="matrix(0.9995006,0.03159999,-0.03159999,0.9995006,0,0)">
<path style="font-family:Helvetica;fill:#eb222c;stroke:none;font-weight:bold;font-size:11.25103569px" id="path4272" d="m 52.9012,16.8773 c -0.281276,-0.258774 -0.360033,-0.427539 -0.360033,-0.742568 v -3.37531 c 0,-1.23761 -0.843828,-1.86767 -2.48648,-1.86767 -1.64265,0 -2.49773,0.697564 -2.59899,2.10394 h 1.51889 c 0.07876,-0.630058 0.337532,-0.832577 1.11385,-0.832577 0.607556,0 0.911334,0.202519 0.911334,0.607556 0,0.202519 -0.101259,0.382535 -0.270025,0.472544 -0.21377,0.11251 -0.21377,0.11251 -0.990091,0.236271 l -.6301,.1125 c -1.20386,0.202518 -1.78892,0.821325 -1.78892,1.91268 0,0.517547 0.146264,0.945087 0.42754,1.24886 0.348782,0.360033 0.87758,0.573803 1.41763,0.573803 0.675062,0 1.29387,-0.292527 1.84517,-0.86633 0,0.315029 0.03375,0.427539 0.180017,0.607556 h 1.71016 v -0.191268 z  m -1.9014,-2.2502 c 0,0.911334 -0.450042,1.42888 -1.24887,1.42888 -0.528799,0 -0.855079,-0.281276 -0.855079,-0.731318 0,-0.472543 0.247523,-0.697564 0.900083,-0.832576 l .5401,-.1013 c 0.416288,-0.07876 0.483794,-0.101259 0.663811,-0.191267 v 0.427539 z "/>
</g>
<g style="font-size:2.77803254px" id="text1602" transform="matrix(0.98711654,0.16000293,-0.16000293,0.98711654,0,0)">
<path style="font-family:Helvetica;fill:#eb222c;stroke:none;font-weight:bold;font-size:11.25085258px" id="path4269" d="m 59.2442,4.0065 0,.9338 c -0.472535,-0.720054 -0.990075,-1.03508 -1.68763,-1.03508 -1.44011,0 -2.52019,1.40636 -2.52019,3.28525 0,1.89014 0.990075,3.15024 2.48644,3.15024 0.708804,0 1.13634,-0.213766 1.72138,-0.877566 v 0.821312 c 0,0.731305 -0.551291,1.23759 -1.33885,1.23759 -0.596295,0 -0.990075,-0.247519 -1.11383,-0.708804 h -1.63137 c 0.01125,0.472536 0.191264,0.798811 0.596295,1.13634 0.483787,0.39378 1.15884,0.585045 2.09266,0.585045 1.83389,0 2.89147,-0.821313 2.89147,-2.25017 v -6.27798 h -1.49636 z  m -1.3501,1.2151 c 0.78756,0 1.3726,0.821312 1.3726,1.9464 0,1.10258 -0.573793,1.85639 -1.39511,1.85639 -0.742556,0 -1.26009,-0.753807 -1.26009,-1.85639 0,-1.14759 0.517539,-1.9464 1.2826,-1.9464 z "/>
</g>
<g style="font-size:2.77803063px" id="text1606" transform="matrix(0.96845512,0.24918804,-0.24918804,0.96845512,0,0)">
<path style="font-family:Helvetica;fill:#eb222c;stroke:none;font-weight:bold;font-size:11.25155544px" id="path4266" d="m 64.3418,-1.54 -1.5752,0 0,6.0758 1.5752,0 0,-6.0758 z  m 0,-2.1265 -1.5752,0 0,1.4064 1.5752,0 0,-1.4064 z "/>
</g>
<g style="font-size:2.77803183px" id="text1610" transform="matrix(0.9448148,0.32760494,-0.32760494,0.9448148,0,0)">
<path style="font-family:Helvetica;fill:#eb222c;stroke:none;font-weight:bold;font-size:11.25084496px" id="path4263" d="m 71.0078,-4.6699 c -0.112508,-1.48511 -1.10258,-2.37393 -2.62145,-2.37393 -1.81139,0 -2.86897,1.19259 -2.86897,3.26274 0,2.00265 1.04633,3.17274 2.84646,3.17274 1.47386,0 2.49769,-0.911318 2.64395,-2.36268 h -1.50761 c -0.202515,0.787559 -0.517539,1.09133 -1.12508,1.09133 -0.79881,0 -1.2826,-0.720054 -1.2826,-1.90139 0,-0.573793 0.112508,-1.11383 0.303773,-1.47386 0.180013,-0.337525 0.52879,-0.517539 0.978823,-0.517539 0.641298,0 0.945071,0.303773 1.12508,1.10258 h 1.50761 z "/>
</g>
<g style="font-size:2.7780323px" id="text1614" transform="matrix(0.90528965,0.42479484,-0.42479484,0.90528965,0,0)">
<path style="font-family:Helvetica;fill:#eb222c;stroke:none;font-weight:bold;font-size:11.25117397px" id="path4260" d="m 72.7227,-12.0338 0,-4.4892 -1.5752,0 0,8.2021 1.5752,0 0,-1.9915 .6301,-.6863 1.4514,2.6778 1.8452,0 -2.2165,-3.7804 2.0702,-2.2952 -1.7889,0 -1.9915,2.3627 z "/>
</g>
</g>
<g style="stroke:none" id="g136" transform="matrix(0.18520209,0,0,0.18520209,2.4954735,0.00116511)">
<g style="fill:#231f20" id="g138">
<path id="path1618" d="m 412.9162,368.5625 c -9.28125,46.8275 27.905,216.165 138.375,220.219 45.985,1.688 48.3338,-13.8235 47.25,-22.3585 -3.37375,-26.5788 -57.655,-80.2038 -65.39,-169.173 -2.0975,-24.1062 8.455,-30.2337 8.455,-30.2337 l 3.6562,.8438 c 0,0 -3.1075,6.38 -5.36125,12.0925 -6.32875,16.0325 10.2375,64.4638 12.2337,74.2513 8.86,43.4525 56.5312,98.7175 52.735,117.702 -5.43875,27.1931 -49.595,33.2908 -91.5475,15.6096 -51.0462,-21.5159 -117.281,-110.532 -104.625,-219.797 l 4.2188,.8438"/>
<path id="path1778" d="m 310.4013,298.6725 c 0,0 -3.095,5.0625 -10.6875,3.65625 -7.59375,-1.40625 -10.4062,-6.75125 -12.9375,-12.6562 -12.375,1.125 -8.15625,13.5 -6.18875,17.155 1.97,3.6575 13.5013,10.97 13.5013,10.97 0,0 -2.8125,9.84375 5.625,17.4362 6.94875,6.255 15.4688,1.97 15.4688,1.97 l 17.1562,27 c 0,0 -12.3763,-5.625 -19.4075,-21.6562 -3.37375,1.96875 -10.6862,1.12375 -14.3425,-2.53125 -3.65625,-3.6575 -10.125,-5.06375 -8.4375,-21.0938 -6.1875,-3.09375 -5.47125,-1.84625 -12.0938,-10.125 -9,-11.25 0.5625,-25.0312 9,-22.7812 5.24875,1.39875 7.5925,8.4375 12.0938,10.6875 4.5,2.25 11.25,1.96875 11.25,1.96875"/>
<path id="path1918" d="m 442.0263,344.235 c 0,-0.845 -6.2725,-9.64625 -17.5612,-9.00125 -14.7663,0.845 -24.0462,21.9388 -17.2962,29.9538 8.3425,9.9075 26.7,-3.235 27.545,-3.51625 0.84375,-0.28 21.355,14.3425 31.5175,13.6413 24.4688,-1.6875 25.225,-19.4825 24.89,-23.8363 -0.5625,-7.3125 -48.0238,-9.7025 -48.0238,-9.7025 l .615,-2.8825 c 0,0 54.5637,0 51.7512,15.1875 -2.8125,15.1875 -12.9375,23.3425 -29.2513,24.1875 -16.3112,0.84375 -27.825,-14.0625 -31.2013,-13.5013 -6.10125,1.0175 -22.2362,16.5938 -30.9538,1.125 -8.71875,-15.4688 11.495,-33.4388 16.5938,-34.03 12.0938,-1.40625 23.1363,7.49625 23.9062,8.15625 1.9675,1.6875 -2.53125,4.21875 -2.53125,4.21875"/>
</g>
<g style="fill:#f29a70" id="g143">
<path id="path2226" d="m 436.9225,333.4563 c -0.2275,-0.35375 -1.3275,5.475 2.59,9.09125 3.65625,3.375 13.9013,-3.39 12.9237,-8.76375 -1.5925,-8.765 -8.06125,11.3438 -15.5138,-0.3275"/>
<path id="path408" d="m 543.645,333.7575 c 0,0 16.6638,-4.64 18.9837,-1.05375 2.32125,3.585 -7.3825,33.96 -18.14,34.3825 -10.7575,0.42125 -8.85875,-10.9688 -8.85875,-10.9688 l 8.015,-22.36"/>
</g>
<g style="fill:#231f20" id="g147">
<path id="path742" d="m 543.065,332.07 c 0,0 17.7188,-7.80375 21.7263,-0.6325 5.7075,10.2138 -12.2337,38.3913 -20.0388,38.18 -7.805,-0.21125 -9.4925,-7.805 -9.4925,-7.805 l 1.265,-3.375 c 0,0 4.21875,8.01625 8.4375,6.75 4.21875,-1.265 21.0938,-25.945 15.8212,-31.0075 -3.2925,-3.16 -14.9763,1.05375 -16.6638,1.47625 -1.6875,0.4225 -1.055,-3.58625 -1.055,-3.58625"/>
<path id="path744" d="m 545.5438,328.9062 c -7.3925,3.5475 -13.7812,28.5462 -11.8125,41.7663 3.375,-18 11.8125,-41.7663 11.8125,-41.7663"/>
</g>
<path style="fill:#cb7246" id="path1806" d="m 546.6513,342.8288 c 0,0 3.66,-7.54375 5.72375,-7.35625 2.0625,0.1875 1.235,0.3075 4.875,1.2175 1.12375,0.2825 -6.37625,7.0325 -6.37625,7.0325 l -4.2225,-.8938"/>
<path style="fill:#231f20" id="path1808" d="m 550.6063,334.8125 c 0,1.47625 -6.27625,10.3363 -6.27625,10.3363 0,0 5.0625,-0.84375 5.0625,2.74125 0,3.58625 -5.695,5.06375 -5.695,5.06375 0,0 10.3362,2.32 8.4375,-5.90625 -1.255,-5.4425 -5.48375,-4.21875 -5.48375,-4.21875 l 6.6975,-7.1725 -2.7425,-.8438"/>
<path style="fill:#fff" id="path2254" d="m 466.2312,333.2663 c 0.24,-6.1375 -8.15625,-32.625 12.3737,-29.8125 10.5775,1.4475 16.875,10.405 18.845,12.9375 1.96875,2.53125 -6.46875,18.8425 -10.125,19.6875 -3.375,-1.40625 -13.1787,-1.4575 -21.0938,-2.8125"/>
<path style="fill:#231f20" id="path2256" d="m 469.2788,323.9962 c -4.0125,-1.92125 -5.3025,-7.575 -2.88125,-12.6275 2.42,-5.05125 7.635,-7.5875 11.6463,-5.665 4.01125,1.92125 5.3025,7.575 2.88,12.6275 -2.42,5.05125 -7.63375,7.5875 -11.645,5.665"/>
<path style="fill:#fff" id="path2258" d="m 474.5625,314.2937 c -1.39875,0 -2.535,-1.20125 -2.535,-2.68375 0,-1.48375 1.13625,-2.685 2.535,-2.685 1.40125,0 2.53625,1.20125 2.53625,2.685 0,1.4825 -1.135,2.68375 -2.53625,2.68375"/>
<g style="fill:#231f20" id="g156">
<path id="path2558" d="m 498.505,318.36 c -10.3363,-7.1725 -14.555,-16.0312 -32.6963,-12.6562 13.29,-8.86 27.4225,-0.4225 32.6963,12.6562"/>
<path id="path2560" d="m 493.8637,340.93 c -8.53,-3.23625 -20.6712,-6.75 -30.1637,-4.64125 -5.0625,0.84375 -4.21875,-0.42125 -0.6325,-1.8975 16.34,-6.73 27.8425,0 30.7962,6.53875"/>
<path id="path2562" d="m 485.6363,335.6562 c 7.1725,-4.85125 14.5562,-24.2575 9.07125,-32.4837 -1.985,-2.97875 -7.32125,-10.6175 -17.7188,-6.1175 -14.1325,6.1175 -13.2887,33.5387 -8.015,35.4375 2.54125,0.915 -0.4225,3.375 -3.37625,1.47625 -2.9525,-1.89875 -8.10875,-26.4137 8.64875,-38.6012 9.28125,-6.75 18.5625,0.84375 21.305,3.58625 4.71125,4.71 8.5675,21.8075 -5.48375,35.8587 -1.6875,1.6875 -3.165,2.11 -4.43125,0.84375"/>
</g>
<path style="fill:#f29a70" id="path1568" d="m 428.0512,285.6637 c -3.375,2.53125 -5.54375,8.20625 -7.79375,12.145 -2.25,3.93625 -0.15125,14.0825 -0.15125,14.0825 0,0 2.11375,-12.9025 3.515,-15.2588 5.27375,-8.85875 18.985,-10.9688 4.43,-10.9688"/>
<g style="fill:#fff" id="g162">
<path id="path1920" d="m 422.96,326.465 c 0.24,-6.13625 -6.44,-29.8325 12.3338,-25.8238 5.67,1.21 10.125,9.5625 10.125,9.5625 0,0 -5.34375,17.9988 -9.00125,18.8438 -3.37375,-1.40625 -5.5425,-1.22625 -13.4575,-2.5825"/>
<path id="path1922" d="m 434.8125,301.535 c 3.41,22.06 -5.485,22.3587 -7.735,24.0462 4.07875,2.8125 11.4762,11.2788 17.7613,-13.87 -2.4325,-9.6 -6.51125,-8.77125 -10.0263,-10.1762"/>
</g>
<g style="fill:#231f20" id="g166">
<path id="path2220" d="m 436.4575,327.9762 c 4.83,-4.345 10.7975,-21.9137 7.10375,-29.2812 -1.3375,-2.6675 -5.925,-9.32125 -12.93,-5.29 -9.51875,5.47875 -8.95,30.0375 -5.39875,31.7387 1.7125,0.8175 -0.28375,3.02125 -2.2725,1.32125 -1.98875,-1.7 -5.4625,-23.6562 5.825,-34.5713 6.25125,-6.04625 13.7825,0.75625 15.63,3.2125 3.1725,4.21875 4.49125,19.5312 -4.975,32.115 -1.135,1.51125 -2.13125,1.88875 -2.9825,0.755"/>
<path id="path2222" d="m 445.3487,311.1875 c -7.1725,-5.0625 -7.29625,-11.7262 -22.7,-6.98125 7.31125,-8.4375 19.535,-6.09625 22.7,6.98125"/>
<path id="path2224" d="m 424.5475,317.34 c -3.24125,-1.515 -4.28375,-5.97 -2.32875,-9.94875 1.9575,-3.98 6.17,-5.98 9.41125,-4.465 3.24125,1.51375 4.2825,5.96875 2.3275,9.94875 -1.95625,3.98 -6.16875,5.97875 -9.41,4.465"/>
</g>
<path style="fill:#fff" id="path2252" d="m 429.4225,309.3687 c -1.1625,0 -2.105,-0.88625 -2.105,-1.9775 0,-1.09375 0.9425,-1.98 2.105,-1.98 1.1625,0 2.105,0.88625 2.105,1.98 0,1.09125 -0.9425,1.9775 -2.105,1.9775"/>
<g style="fill:#231f20" id="g172">
<path id="path2564" d="m 436.9112,330.805 c -5.65,-2.2425 -11.855,-3.36 -18.1413,-1.89875 -3.35125,0.585 -2.73,-0.9775 -0.355,-2 11.09,-4.77875 16.8325,0.045 18.4962,3.89875"/>
<path id="path2566" d="m 452.3087,331.2262 c -2.32,-1.265 -5.1,-8.7275 -9.14,-7.80375 -6.46875,1.47625 -6.8925,15.6675 -3.72625,17.9287 4.42875,3.165 8.6475,-1.6875 12.6562,-4.64 0.42125,2.9525 -4.35875,8.69375 -9.4925,8.85875 -6.54,0.21125 -8.64875,-8.22625 -7.805,-13.5 0.84375,-5.2725 3.58625,-10.9688 8.01625,-11.6012 4.43,-0.6325 10.5462,6.96125 9.49125,10.7575"/>
</g>
</g>
<g style="fill:#fff" id="g4303">
<path id="path1322" d="m 105.15,37.1458 -1.9585,-2.2553 -2.7634,.5352 1.3029,-2.791 -1.3066,-2.7885 2.7639,.5304 1.9553,-2.259 .4056,3.1188 2.5155,1.3925 -2.5132,1.3971 -.4014,3.1197"/>
<path id="path1332" d="m 116.7362,25.9686 -1.3409,-.8348 -1.4529,.6285 .3852,-1.53 -1.0461,-1.1809 1.5791,-.1109 .8061,-1.3582 .5908,1.4615 1.5446,.3412 -1.214,1.0142 .1482,1.5693"/>
<path id="path1342" d="m 92.7099,39.1946 c -6.95364,1.75803 -4.57079,8.67279 0.351652,9.84464 -2.38309,-3.75034 -2.30484,-6.21144 -0.351652,-9.84464"/>
<g style="stroke:none;fill-rule:evenodd;stroke-linecap:square;stroke-width:.3" id="g126">
<ellipse cx="96.479622" cy="47.008659" rx="2.5267885" ry="2.1907747" id="path4295"/>
<ellipse cx="109.50004" cy="36.37381" rx="0.93982428" ry="0.99582654" id="circle4297"/>
<ellipse cx="109.85661" cy="30.152388" rx="0.97182554" ry="0.81181908" id="circle4299"/>
<ellipse cx="119.33652" cy="20.381733" rx="0.83582008" ry="0.91582328" id="circle4301"/>
</g>
</g>
</svg>
