<svg width="128" version="1.1" xmlns="http://www.w3.org/2000/svg" height="128" xmlns:xlink="http://www.w3.org/1999/xlink">
<defs>
<linearGradient gradientTransform="matrix(0.23150261,0,0,-0.23150261,2.4954735,130.98303)" xlink:href="#linearGradient4018" id="linearGradient4024" y1="388.47525" x1="365.93668" y2="302.76767" x2="451.5787" gradientUnits="userSpaceOnUse"/>
<linearGradient id="linearGradient4018">
<stop offset="0" style="stop-color:#769bde"/>
<stop offset="1" style="stop-color:#2752a1"/>
</linearGradient>
<linearGradient gradientTransform="matrix(0.23150261,0,0,-0.23150261,2.4954735,130.98303)" xlink:href="#linearGradient4018" id="linearGradient4032" y1="259.56354" x1="266.72159" y2="174.45528" x2="491.17593" gradientUnits="userSpaceOnUse"/>
</defs>
<g style="fill:#eb222c">
<path d="m 86.0121,120.3033 c 0,0 -4.26035,-0.6124 -4.70945,1.16455 -0.298407,1.18122 1.41124,3.03261 3.67234,3.51595 4.48976,0.95948 8.38417,-1.72189 8.38417,-1.72189 l -5.3204,-3.1145"/>
<path d="m 86.5137,119.8729 c 0,0 -5.21107,-0.55371 -5.75786,1.39959 -0.363691,1.29859 1.42559,3.45328 4.18001,3.98455 5.46924,1.05489 10.0398,-1.64059 10.0398,-1.64059 0,0 -1.24152,-0.29502 -1.82745,-0.41212 -0.585933,0.58598 -5.39981,2.01365 -7.93895,1.27139 -1.7784,-0.51998 -3.75034,-1.52347 -3.6332,-2.96901 0.149088,-1.83665 6.94199,-0.83724 6.94199,-0.83724 l -.5129,-.6863"/>
</g>
<g style="fill:#c7282a">
<path d="m 114.3133,125.1009 c 0.54704,0.6642 6.01629,3.28147 8.39938,2.85174 2.38308,-0.42955 2.83544,-1.4214 2.78868,-2.60803 -0.0521,-1.32825 -4.15594,-4.77546 -4.15594,-4.77546 l -.6642,.7813 c 0,0 3.75034,3.01704 3.75034,3.94579 0,0.62506 0.25535,1.10568 -1.83605,1.71881 -2.26594,0.66421 -7.46597,-2.53902 -7.46597,-2.53902 0,0 -1.36308,-0.0393 -0.81627,0.62487"/>
<path d="m 114.9739,124.5297 c 5.52134,4.58375 14.9081,2.99876 5.84475,-3.25182"/>
</g>
<path style="fill:url(#linearGradient4024)" d="m 123.494,18.0598 c 1.01629,0.660477 -2.30484,1.9143 -2.30484,1.9143 0,0 -13.0405,23.0817 -13.8684,26.6041 -0.82831,3.52208 -0.1345,6.33601 -0.58616,7.65696 -0.45166,1.32072 -1.28901,0.898462 -1.28901,0.898462 0,0 2.8785,4.12353 1.52352,5.66465 -1.35498,1.54088 -4.38836,-4.54208 -13.4841,-6.82979 -6.36102,-0.703711 -11.7072,-1.42586 -11.8349,-1.25093 -0.494721,0.758171 -0.972552,1.7519 -1.6402,2.86519 -0.865589,1.44226 -2.99587,-0.484072 -2.92642,-1.62121 0.188212,-3.08176 3.17668,-3.81585 4.53167,-5.43013 1.35522,-1.61427 2.87365,-4.81177 5.54727,-7.69583 2.82317,-3.04518 13.7124,-15.1187 30.9795,-21.0567 0.71048,-0.244235 4.7259,-2.12588 5.3521,-1.71891"/>
<path style="fill:url(#linearGradient4032)" d="m 65.47,55.0127 c -0.667422,-1.73835 -6.58927,4.27122 -7.83938,7.81321 -2.24558,6.36216 0.251875,16.2862 2.47221,16.8281 2.15507,0.525974 1.79901,-0.316001 3.53875,0.156264 3.97421,1.07857 9.63931,3.69108 10.8376,7.13606 3.07643,8.84455 3.1989,23.0775 7.70904,28.5441 13.7513,16.6682 43.0269,10.8827 40.8371,0 -0.44264,-2.2 -5.60468,-4.56284 -8.95915,-7.91728 -1.87517,-1.87517 -1.04177,-5.05254 -1.04177,-5.05254 0,0 4.3754,-1.82308 3.33364,-14.5326 0,0 -12.9178,-4.7921 -14.793,-9.1675 -0.7341,-1.71288 -13.9596,-3.12529 -23.1271,-6.25057 -8.67787,-2.95836 -10.6352,-11.48 -12.9678,-17.5574"/>
<path style="fill:#2957ab" d="m 58.16,63.2423 c 0,0 -1.56264,15.4877 2.84772,13.1959 2.97851,-1.54783 2.84748,-9.23695 2.84748,-9.23695 0,0 1.73141,-11.4612 0.416705,-11.6677 -2.43102,-0.381979 -6.11191,7.7088 -6.11191,7.7088"/>
<path style="fill:#2953a7" d="m 58.2265,63.2361 c 0,0 -1.50569,15.4118 2.78127,13.2021 2.98546,-1.53347 2.87897,-9.23371 2.87897,-9.23371 0,0 1.7,-11.4645 0.385221,-11.671 -2.43102,-0.38198 -6.04546,7.70255 -6.04546,7.70255"/>
<path style="fill:#2a50a4" d="m 58.2927,63.2299 c 0,0 -1.44897,15.3361 2.71506,13.2084 2.99262,-1.51912 2.91045,-9.23071 2.91045,-9.23071 0,0 1.66844,-11.4675 0.353736,-11.674 -2.43102,-0.38198 -5.97925,7.69629 -5.97925,7.69629"/>
<path style="fill:#203876" d="m 58.3591,63.2236 c 0,0 -1.39203,15.2602 2.64861,13.2146 3,-1.50454 2.94218,-9.22769 2.94218,-9.22769 0,0 1.63672,-11.4705 0.32202,-11.677 -2.43102,-0.38198 -5.9128,7.69005 -5.9128,7.69005"/>
<g style="fill:#f29a70">
<path d="m 95.666,54.17 c 0,0 -6.45892,-2.03167 -13.6992,-1.61473 -0.625057,0.468792 -1.19803,1.45847 -1.61473,2.18746 -0.416936,0.729464 -0.05209,3.1776 -0.05209,3.1776 0,0 -3.49013,3.64593 -2.39605,5.88594 1.22534,2.50879 15.5741,7.10046 19.116,5.01694 3.54199,-2.08352 3.50854,-7.96776 2.86509,-9.91344 -0.625057,-2.34396 -4.21914,-4.73978 -4.21914,-4.73978"/>
<path d="m 64.7778,62.0091 c 0,0 -2.6565,-3.6332 -2.813,-4.49254 -0.156033,-0.859569 -0.465783,-4.76455 -1.56264,-5.31298 -1.87493,-0.937585 -6.83649,-0.351652 -7.50046,-0.03912 -0.664181,0.312529 -2.53936,3.59407 -1.83605,4.14088 0.703073,0.547041 1.87517,0.390777 1.87517,0.390777 0,0 -0.692424,1.85919 0,2.57848 1.0156,1.05473 2.38285,-0.703305 2.38285,-0.703305 0,0 -0.546809,2.1877 0.03912,2.50023 0.585933,0.312529 1.40638,0.07825 1.40638,0.07825 0,0 0.664181,1.52352 1.79715,1.91406 1.13274,0.390776 2.22659,-0.07802 2.22659,-0.07802 0,0 2.61761,3.98462 3.00814,4.14088 0.390777,0.156264 0.97671,-5.1176 0.97671,-5.1176"/>
</g>
<path style="fill:#231f20" d="m 64.6704,62.0871 c -0.122696,0.184045 -2.70858,-3.28132 -3.1776,-4.79186 -0.468561,-1.51079 -0.103945,-3.38572 -1.35406,-4.68793 -1.25035,-1.3022 -6.71959,-0.364617 -7.08398,-0.156264 -0.364616,0.20812 -2.1356,2.2398 -1.66682,3.43781 0.468561,1.19779 2.44815,0.104176 2.44815,0.104176 v 0.468793 c 0,0 -1.66682,1.35429 -0.781321,2.55231 0.885266,1.19779 2.18746,-0.729233 2.18746,-0.729233 0,0 0.729464,-0.208352 0.416936,0.208352 -0.312529,0.416474 -0.625057,1.14594 -0.364617,1.97911 0.260441,0.833409 1.14594,0.364848 1.14594,0.364848 l .2084,.5209 c 0,0 -1.35429,0.208121 -1.56264,-0.156264 -0.208353,-0.364617 -0.312529,-1.25035 -0.208353,-1.87517 -0.26044,0.05209 -1.04176,0.989673 -2.29187,0.05209 -0.867209,-0.650523 0,-2.6044 0,-2.6044 0,0 -1.56264,0.625057 -1.77123,-0.520881 -0.208121,-1.14594 0.677377,-3.95869 2.44837,-4.42748 1.77099,-0.469024 6.45892,-0.677145 7.44837,0.260441 0.989905,0.937585 1.19826,3.02111 1.61496,4.73978 0.763727,3.15099 2.76066,4.63607 2.34396,5.26089"/>
<path style="fill:#ccc" d="m 42.998,30.3008 -.459,.4902 c -0.119822,1.51769 0.359575,3.69164 1.17188,6.13086 0.812301,2.43922 1.96137,5.13882 3.19531,7.67969 1.23394,2.54087 2.55248,4.92239 3.70508,6.72656 0.576297,0.902085 1.11032,1.66014 1.57422,2.22266 0.716609,0.868938 0.994456,1.02218 1.24392,1.1208 l .7346,-1.0192 -.0723,-.0703 c -2.65413,-2.57682 -5.16349,-7.66905 -7.125,-12.457 -1.96151,-4.78798 -3.38067,-9.26551 -3.90625,-10.6582 z "/>
<path style="fill:#231f20" d="m 43.2168,30.2734 -.2227,.041 c -0.06723,2.10425 0.552956,4.1432 1.20703,6.1211 0.831588,2.43717 2.00153,5.13165 3.24414,7.66211 1.24261,2.53046 2.557,4.89668 3.67773,6.67578 0.560369,0.889551 1.05037,1.65038 1.50391,2.17773 0.650146,0.755977 0.832754,0.986525 1.06982,1.13258 l .938,-.9002 c -2.69068,-2.57388 -5.31533,-7.65684 -7.36327,-12.4004 -2.0357,-4.71522 -3.53087,-9.12174 -4.05469,-10.5098 z "/>
<g style="fill:#fff">
<path d="m 99.9002,59.527 c 0.54935,2.88245 0.09029,6.36008 -1.56264,8.12574 -1.47791,1.57838 -4.39299,2.06247 -6.66728,1.26725 -0.980645,0.376423 -2.44815,2.6565 -8.59453,-1.51055 -2.1356,0.520881 -2.70858,1.82308 -4.75506,1.24109 0.104176,30.8361 16.564,37.7118 17.5014,38.7535 0.937817,1.0417 18.3352,6.14632 17.9185,-1.87541 -0.41671,-8.02132 -10,-12.5011 -11.9803,-32.2946 -0.3836,-3.8367 1.35406,-5.10439 1.35406,-5.10439 l -1.4876,-1.12 c 0,0 0.67738,-4.74003 1.55292,-5.19584 2.10019,-1.09269 3.17412,0.07825 3.06,-0.768358 -0.0412,-0.30975 -6.04685,-4.94699 -9.98563,-6.48416 1.60478,1.61612 3.30308,3.16557 3.64617,4.96573"/>
<path d="m 84.7143,62.9516 c 0,0 9.65668,0 9.15895,2.63704 -0.49773,2.63681 -2.28978,4.05315 -5.17664,4.19946 -2.8873,0.146541 -4.92476,-2.44143 -5.52226,-2.34373 -1.07996,0.176405 -3.93555,2.88104 -5.47852,0.195157 -1.5432,-2.68567 2.03467,-5.80584 2.93684,-5.90865 2.14023,-0.244235 4.08161,1.22071 4.08161,1.22071"/>
</g>
<path d="m 87.5403,51.5656 c -0.248402,0.372488 1.66682,-2.44815 1.66682,-2.44815"/>
<g style="stroke-width:.463;stroke:#f7ee33;fill:#f7ee33">
<path d="m 17.8747,17.9623 -1.3585,-.5639 -1.2345,.7994 .1166,-1.4661 -1.1418,-.9274 1.4304,-.3419 .5289,-1.3726 .7675,1.2547 1.4688,.0789 -.9561,1.1177 z "/>
<path d="m 6.6236,37.5344 -1.3583,-.5639 -1.2346,.7991 .1166,-1.4659 -1.1418,-.9274 1.4304,-.3422 .529,-1.3723 .7675,1.2547 1.4687,.0787 -.9561,1.1179 Z "/>
</g>
<g style="fill:#fac816">
<path d="m 5.2128,22.7891 -.7215,-.2887 -.6559,.4091 .0619,-.7505 -.6065,-.4746 l .7598,-.1753 .2812,-.7028 .4076,.6424 .7802,.0405 -.5079,.5723"/>
<path d="m 18.3629,8.0498 -.7215,-.2889 -.656,.4093 .062,-.7505 -.6065,-.4748 .7598,-.175 .2811,-.7028 .4076,.6424 .7803,.0405 -.5078,.572"/>
<path d="m 44.0395,1.9826 -.7216,-.2887 -.6558,.4093 .0618,-.7505 -.6065,-.4748 .76,-.1753 .2808,-.7026 .4079,.6424 .7802,.0403 -.5079,.5723"/>
<path d="m 52.7589,5.3165 -.7218,-.2889 -.6556,.4093 .0618,-.7505 -.6065,-.4748 .7598,-.1752 .281,-.7026 .4079,.6424 .7802,.0403 -.5079,.5723"/>
<path d="m 74.9868,9.0617 -.7214,-.2889 -.6561,.4093 .0623,-.7508 -.6065,-.4746 .7596,-.1752 .2813,-.7026 l .4074,.6424 .7804,.0405 -.5079,.572"/>
<path d="m 41.6435,37.7153 -.7218,-.2892 -.6556,.4095 .0618,-.7505 -.6065,-.4748 .76,-.1752 .281,-.7026 .4077,.6424 .7802,.0403 -.5079,.5723"/>
<path d="m 27.3221,39.4069 -.7214,-.2887 -.6561,.4091 .0618,-.7505 -.6063,-.4748 .7598,-.175 .281,-.7026 .4077,.6422 .7804,.0405 -.5082,.5723"/>
<path d="m 25.7594,32.9479 -.7215,-.2887 -.656,.4091 .0619,-.7505 -.6063,-.4748 .7598,-.175 .281,-.7028 .4077,.6424 .7804,.0405 -.5082,.5721"/>
<path d="m 36.5301,23.3197 -.7218,-.2887 -.6556,.4091 .0618,-.7505 -.6065,-.4748 .76,-.175 .281,-.7026 .4077,.6424 .7802,.0403 -.5079,.5723 .2012,.7276"/>
<path d="m 71.4927,39.511 -.7214,-.2889 -.6561,.4093 .0618,-.7505 -.6063,-.4748 .7598,-.175 .281,-.7026 .4077,.6422 .7804,.0405 -.5079,.5721"/>
<path d="m 70.8198,28.4382 -.7214,-.2887 -.6561,.4093 .0623,-.7505 -.6065,-.4748 .7596,-.1752 .2813,-.7026 .4074,.6424 .7804,.0403 -.5079,.5723"/>
<path d="m 84.5712,21.5629 -.7216,-.2889 -.6558,.4093 .062,-.7508 -.6065,-.4746 .7596,-.1753 .281,-.7024 .4077,.6422 .7804,.0405 -.5077,.5721"/>
</g>
<g style="stroke-width:.463;stroke:#f7ee33;fill:#f7ee33">
<path d="m 24.3348,54.5152 -1.3584,-.5637 -1.2346,.7994 .1167,-1.4663 -1.1417,-.9272 1.4304,-.3424 .529,-1.3723 .7674,1.2547 1.4687,.0789 -.956,1.1177 z "/>
<path d="m 38.5015,29.2524 -1.3585,-.5637 -1.2346,.7989 .1167,-1.4659 -1.1418,-.9272 1.4304,-.3424 .529,-1.3723 .7674,1.2545 1.4687,.0789 -.9561,1.1177 z "/>
<path d="m 49.9081,27.3831 -1.4279,.3512 -.5207,1.3756 -.7753,-1.2499 -1.4691,-.0697 .9489,-1.1237 -.3875,-1.4189 1.3619,.5554 1.2295,-.807 -.1074,1.4668 z "/>
<path d="m 54.0516,37.3363 -1.3582,-.5639 -1.2346,.7994 .1165,-1.4661 -1.1415,-.9272 1.4304,-.3424 .529,-1.3723 .7674,1.2547 1.4687,.0789 -.9561,1.1177 z "/>
<path d="m 83.0125,30.4609 -1.3582,-.5639 -1.2348,.7991 .1167,-1.4661 -1.1418,-.9274 1.4304,-.3422 .5292,-1.3721 .7674,1.2545 1.4684,.0789 -.9556,1.1177 z "/>
<path d="m 62.19,35.297 -1.0274,-1.0527 -1.4497,.25 .6834,-1.3024 -.6855,-1.3013 1.4499,.2475 1.0258,-1.0543 .2128,1.4554 1.3193,.6498 -1.3184,.6519 z "/>
<path d="m 35.017,38.0507 -.9776,-1.0987 -1.4596,.1824 .7431,-1.2696 -.6246,-1.3316 1.4369,.3144 1.0732,-1.0056 .1451,1.4638 1.2881,.71 -1.3471,.5906 z "/>
<path d="m 61.5523,7.7503 -1.3582,-.5639 -1.2346,.7994 .1165,-1.4661 -1.1418,-.9272 l 1.4304,-.3422 .529,-1.3726 .7677,1.2547 1.4684,.0789 -.9556,1.1177 z "/>
<path d="m 32.1091,7.5704 -1.4689,-.0734 -.8931,1.1686 -.3843,-1.4198 -1.3874,-.4882 1.2314,-.8042 .0357,-1.4703 1.1455,.9228 1.4094,-.4207 -.5237,1.3747 Z "/>
</g>
<path style="fill:#231f20" d="m 81.6543,52.6592 c 0,0 -1.43254,1.87541 -1.61473,2.6044 -0.182192,0.729464 0.05209,2.50047 0.05209,2.50047 0,0 -1.97959,2.2398 -2.39605,4.21912 -0.416704,1.97935 0.156033,2.50023 0.156033,2.50023 l .3278,-.6679 c 0,0 -0.457912,-0.543337 -0.197472,-1.68928 0.26044,-1.14594 1.83628,-3.51582 2.46134,-4.06287 0.282664,-0.247245 -0.390777,-1.79692 -0.117372,-2.6565 0.273636,-0.859338 1.79716,-2.81276 1.79716,-2.81276 l -.4688,.065"/>
<g style="fill:#eb222c">
<path d="m 9.3823,39.3958 -.4361,1.6303 7.9231,2.1194 .4361,-1.6303 z "/>
<path d="m 11.857,37.8744 5.5482,2.4758 .6419,-1.4384 -3.3289,-1.4855 c -0.678113,-0.302596 -0.924035,-0.855866 -0.648949,-1.47233 0.215485,-0.482898 0.625854,-0.657068 1.06766,-0.459922 l 3.6988,1.6505 .6419,-1.4384 -3.3289,-1.4855 c -0.678113,-0.302596 -0.924035,-0.855867 -0.648948,-1.47233 0.215485,-0.482898 0.625854,-0.657068 1.06765,-0.459921 l 3.6988,1.6505 .6419,-1.4384 -3.9248,-1.7514 c -1.07881,-0.481402 -2.00926,-0.108095 -2.50441,1.00155 -0.311766,0.698661 -0.285249,1.30187 0.09756,1.99014 -0.643201,0.03331 -1.18874,0.455172 -1.49592,1.14356 -0.284257,0.637015 -0.251887,1.14427 0.102309,1.86906 l -.6884,-.3072 -.6373,1.4281 z "/>
<path d="m 24.5895,27.5634 c -0.376877,0.06366 -0.558506,0.02246 -0.807441,-0.170622 l -2.6672,-2.0687 c -0.97796,-0.758532 -1.99301,-0.477904 -3,0.820114 -1.00678,1.29802 -0.97964,2.40124 0.06961,3.34323 l .9309,-1.2002 c -0.4496,-0.448396 -0.451028,-0.777002 0.02478,-1.39045 0.372371,-0.48009 0.718587,-0.596011 1.03865,-0.347764 0.16003,0.124124 0.240218,0.31447 0.207906,0.502995 -0.04211,0.237878 -0.04211,0.237878 -0.420125,0.927179 l -.2973,.5668 c -0.577817,1.07542 -0.447415,1.91699 0.414966,2.58588 0.408965,0.317204 0.836451,0.463666 1.24889,0.427586 0.498267,-0.05494 0.991287,-0.34178 1.32228,-0.768524 0.413745,-0.533433 0.561858,-1.20171 0.446327,-1.98902 0.248936,0.193081 0.358528,0.235367 0.590422,0.230122 l 1.0482,-1.3514 -.1511,-.1172 z  m -2.9435,.1234 c 0.720135,0.558556 0.853267,1.23138 0.36367,1.86261 -0.3241,0.417856 -0.746341,0.503289 -1.10196,0.227459 -0.373404,-0.289622 -0.399508,-0.623129 -0.106241,-1.22153 l .251,-.4889 c 0.192909,-0.377221 0.216503,-0.444356 0.255711,-0.64177 l .3378,.262 z "/>
<path d="m 24.2038,20.1398 .598,.7172 c -0.824043,-0.250395 -1.42326,-0.160899 -1.95899,0.285821 -1.10602,0.922255 -1.0349,2.69405 0.168363,4.13706 1.21046,1.45165 2.77783,1.78536 3.92705,0.827076 0.54437,-0.453924 0.735825,-0.891896 0.760039,-1.77637 l .526,.6308 c 0.468335,0.561651 0.369167,1.30354 -0.23569,1.8079 -0.457962,0.381873 -0.918903,0.443955 -1.30937,0.168942 l -1.2529,1.0447 c 0.311257,0.355708 0.658458,0.491009 1.18568,0.49085 0.623734,-0.0074 1.26467,-0.292811 1.98185,-0.890835 1.40845,-1.17444 1.69471,-2.4825 0.779655,-3.57988 l -4.0205,-4.8216 -1.1492,.9583 z  m -.2587,1.7979 c 0.604855,-0.50436 1.58015,-0.24825 2.30066,0.615825 0.706101,0.846794 0.748169,1.79319 0.117394,2.31917 -0.570292,0.47554 -1.45051,0.228042 -2.15662,-0.618757 -0.734926,-0.881362 -0.849011,-1.82629 -0.261434,-2.31624 z "/>
<path d="m 33.7093,18.61 c -0.05122,-0.125426 -0.07673,-0.175561 -0.112457,-0.24575 -0.275587,-0.541452 -0.610978,-1.00197 -0.935258,-1.31665 -0.861111,-0.798917 -2.03455,-0.946496 -3.12749,-0.390217 -1.55417,0.791037 -1.93514,2.39888 -1.01141,4.21375 0.8829,1.73466 2.3664,2.31778 3.90051,1.53695 1.21326,-0.61752 1.84375,-1.80952 1.61362,-3.03057 l -1.3837,.7043 c 0.04899,0.517917 -0.214471,0.967624 -0.725841,1.2279 -0.401076,0.204139 -0.808697,0.196992 -1.16234,-0.0017 -0.23242,-0.134192 -0.405038,-0.349322 -0.685367,-0.850485 l 3.6297,-1.8475 z  m -4.0843,.9048 c -0.328241,-0.868138 -0.186542,-1.45786 0.435124,-1.77428 0.350942,-0.178621 0.758562,-0.171475 1.102,0.0072 0.232418,0.134194 0.399753,0.314138 0.618662,0.669824 l -2.1558,1.0972 z "/>
<path d="m 38.9881,13.0828 2.4164,6.0972 1.6686,-.2533 .4757,-6.5363 .9592,6.3184 1.6686,-.2533 -1.2311,-8.1093 -2.514,.3817 -.4444,6.668 -2.4479,-6.2289 -2.4917,.3783 1.2311,8.1093 1.6686,-.2533 -.9592,-6.3184 z "/>
<path d="m 52.3415,18.5405 c -0.272958,-0.267533 -0.346343,-0.438703 -0.336388,-0.753574 l .1067,-3.3736 c 0.03911,-1.23699 -0.784388,-1.8934 -2.42622,-1.94531 -1.64183,-0.05191 -2.51852,0.618288 -2.66418,2.02076 l 1.5181,.048 c 0.09863,-0.627254 0.363673,-0.821495 1.1396,-0.796963 0.607253,0.0192 0.90448,0.231216 0.89168,0.636051 -0.0064,0.202417 -0.113296,0.379144 -0.284822,0.463775 -0.217219,0.105698 -0.217219,0.105698 -0.997063,0.204866 l -.6333,.0925 c -1.20966,0.164374 -1.81398,0.764385 -1.84847,1.85519 -0.01636,0.517289 0.116326,0.949237 0.387862,1.26175 0.337231,0.370875 0.85901,0.601248 1.39879,0.618314 0.674725,0.02133 1.30247,-0.251495 1.87162,-0.80759 -0.01,0.314871 0.02022,0.428392 0.160729,0.612941 l 1.7093,.054 .006,-.1912 z  m -1.8293,-2.3092 c -0.0288,0.910879 -0.49497,1.41395 -1.2934,1.3887 -0.528535,-0.01671 -0.845763,-0.308156 -0.831542,-0.757973 0.01493,-0.472307 0.269442,-0.689394 0.925943,-0.803717 l .543,-.0842 c 0.418569,-0.06557 0.486752,-0.08592 0.669524,-0.170195 l -.0135,.4273 z "/>
<path d="m 57.8399,13.4341 -.1494,.9218 c -0.351236,-0.786384 -0.811703,-1.18016 -1.50027,-1.29177 -1.42156,-0.230422 -2.71274,0.985004 -3.01337,2.83969 -0.302428,1.86579 0.473271,3.26807 1.95036,3.50749 0.699672,0.11341 1.1559,-0.0292 1.83962,-0.590834 l -.1314,.8107 c -0.117011,0.721883 -0.742207,1.13344 -1.51962,1.00743 -0.588613,-0.09541 -0.937716,-0.402745 -0.98607,-0.877888 l -1.6104,-.261 c -0.0645,0.468248 0.06099,0.819122 0.406795,1.21711 0.414548,0.466114 1.0503,0.762925 1.97209,0.912339 1.81026,0.293428 2.98563,-0.348088 3.21425,-1.75854 l 1.0045,-6.1971 -1.4771,-.2394 z  m -1.5271,.9834 c 0.777414,0.126012 1.2235,1.03035 1.04349,2.14094 -0.176416,1.08837 -0.863429,1.74066 -1.67416,1.60925 -0.73299,-0.118812 -1.12324,-0.945714 -0.946828,-2.03409 0.183618,-1.1328 0.822301,-1.83852 1.57751,-1.7161 z "/>
<path d="m 62.6959,14.5418 -1.5255,-.3925 -1.514,5.8841 1.5255,.3925 z  m .5299,-2.0594 -1.5255,-.3925 -.3505,1.362 1.5255,.3925 z "/>
<path d="m 68.6191,18.8503 c 0.38023,-1.44001 -0.264023,-2.60413 -1.69907,-3.10172 -1.71143,-0.593421 -3.10134,0.186888 -3.77954,2.1428 -0.656078,1.89213 -0.05082,3.34043 1.64997,3.93017 1.39253,0.482844 2.65841,-0.04277 3.27207,-1.36612 l -1.4244,-.4939 c -0.449348,0.677752 -0.846504,0.861556 -1.42052,0.662523 -0.754727,-0.261694 -0.975926,-1.1005 -0.588914,-2.21665 0.187977,-0.542128 0.471195,-1.01551 0.769853,-1.29301 0.280654,-0.259925 0.669157,-0.315744 1.09435,-0.168311 0.605907,0.210092 0.793399,0.596619 0.701781,1.41032 l 1.4244,.4939 z "/>
<path d="m 70.947,19.9982 1.907,-4.064 -1.426,-.6691 -3.4842,7.4253 1.426,.6691 .846,-1.8029 .862,-.3536 .1764,3.0407 1.6704,.7838 -.4007,-4.3639 2.8491,-1.1984 -1.6195,-.7599 z "/>
</g>
<g style="fill:#231f20">
<path d="m 78.9684,68.2597 c -1.71891,8.67255 5.16806,40.0342 25.6273,40.785 8.51651,0.31262 8.95152,-2.56014 8.75079,-4.14084 -0.62482,-4.92245 -10.6778,-14.8539 -12.1104,-31.3312 -0.38846,-4.46452 1.56588,-5.59934 1.56588,-5.59934 l .6771,.1563 c 0,0 -0.57552,1.18159 -0.99292,2.23956 -1.17209,2.96925 1.89601,11.9388 2.26571,13.7515 1.64089,8.04749 10.4697,18.2827 9.76663,21.7987 -1.00726,5.03622 -9.18509,6.16553 -16.9548,2.89093 -9.45386,-3.98479 -21.7207,-20.4708 -19.3768,-40.7069 l .7813,.1563"/>
<path d="m 59.9824,55.3159 c 0,0 -0.5732,0.937586 -1.97935,0.677145 -1.40638,-0.26044 -1.92725,-1.25035 -2.39605,-2.34395 -2.29188,0.208352 -1.51056,2.50023 -1.14617,3.17714 0.364848,0.677376 2.50047,2.03167 2.50047,2.03167 0,0 -0.520881,1.82308 1.04176,3.22922 1.28692,1.15844 2.86485,0.364848 2.86485,0.364848 l 3.1774,5 c 0,0 -2.29212,-1.04176 -3.59431,-4.01077 -0.624826,0.364617 -1.97911,0.208121 -2.65626,-0.468792 -0.677146,-0.677377 -1.87517,-0.937818 -1.56264,-3.90662 -1.14594,-0.572969 -1.01329,-0.34193 -2.2398,-1.87517 -1.66682,-2.08352 0.104176,-4.63583 1.66682,-4.21912 0.972079,0.259051 1.40615,1.56264 2.2398,1.97935 0.833409,0.416705 2.08352,0.364617 2.08352,0.364617"/>
<path d="m 84.3597,63.7542 c 0,-0.156496 -1.16168,-1.78651 -3.25237,-1.66705 -2.73475,0.156496 -4.45341,4.06311 -3.20329,5.54751 1.54505,1.83489 4.9449,-0.599129 5.10139,-0.651217 0.156265,-0.05186 3.95499,2.65626 5.83711,2.5264 4.53167,-0.312528 4.67172,-3.6082 4.60968,-4.41453 -0.104176,-1.35429 -8.89411,-1.79692 -8.89411,-1.79692 l .1139,-.5338 c 0,0 10.1053,0 9.58443,2.81276 -0.520881,2.81276 -2.39605,4.32308 -5.4174,4.47957 -3.02087,0.156265 -5.15325,-2.6044 -5.77855,-2.50047 -1.12996,0.188444 -4.11819,3.07321 -5.73271,0.208353 -1.61473,-2.86485 2.1289,-6.19294 3.07321,-6.30243 2.2398,-0.260441 4.28489,1.38832 4.42748,1.51055 0.364385,0.312529 -0.468793,0.781322 -0.468793,0.781322"/>
</g>
<g style="fill:#f29a70">
<path d="m 83.4144,61.758 c -0.04213,-0.06552 -0.245856,1.01398 0.479673,1.68372 0.677145,0.625057 2.57455,-0.627835 2.3935,-1.62306 -0.294934,-1.6233 -1.49296,2.1009 -2.87319,-0.06065"/>
<path d="m 103.1797,61.8138 c 0,0 3.08617,-0.859338 3.51582,-0.195157 0.4299,0.663949 -1.36725,6.28946 -3.35956,6.36771 -1.99231,0.07802 -1.64066,-2.03145 -1.64066,-2.03145 l 1.4844,-4.1411"/>
</g>
<g style="fill:#231f20">
<path d="m 103.0722,61.5012 c 0,0 3.28156,-1.44527 4.02375,-0.11714 1.05704,1.89162 -2.2657,7.11015 -3.71122,7.07102 -1.44551,-0.03912 -1.75804,-1.4455 -1.75804,-1.4455 l .2343,-.6251 c 0,0 0.78133,1.48463 1.56265,1.25011 0.78132,-0.23428 3.90661,-4.80507 2.93012,-5.74265 -0.60978,-0.585239 -2.77365,0.195156 -3.08617,0.273404 -0.31253,0.07825 -0.19539,-0.664181 -0.19539,-0.664181"/>
<path d="m 103.5313,60.9153 c -1.36911,0.657004 -2.55231,5.28682 -2.1877,7.73521 0.62505,-3.33364 2.1877,-7.73521 2.1877,-7.73521"/>
</g>
<path style="fill:#cb7246" d="m 103.7364,63.4938 c 0,0 0.67784,-1.39712 1.06005,-1.36239 0.38198,0.03473 0.22872,0.05695 0.90286,0.225483 0.20812,0.05232 -1.1809,1.30243 -1.1809,1.30243 l -.782,-.1655"/>
<path style="fill:#231f20" d="m 104.4689,62.0091 c 0,0.273404 -1.16237,1.9143 -1.16237,1.9143 0,0 0.93758,-0.156264 0.93758,0.507685 0,0.664181 -1.05472,0.937818 -1.05472,0.937818 0,0 1.91428,0.429668 1.56264,-1.09385 -0.23243,-1.00796 -1.0156,-0.781322 -1.0156,-0.781322 l 1.2404,-1.3284 -.5079,-.1563"/>
<path style="fill:#fff" d="m 88.8425,61.7228 c 0.04445,-1.13668 -1.51055,-6.04222 2.29163,-5.52134 1.95897,0.26808 3.12529,1.92703 3.49013,2.39605 0.364616,0.468793 -1.19803,3.48967 -1.87517,3.64617 -0.625057,-0.26044 -2.44072,-0.269932 -3.90662,-0.520881"/>
<path style="fill:#231f20" d="m 89.4069,60.0059 c -0.743123,-0.35582 -0.982034,-1.40291 -0.533613,-2.33864 0.448189,-0.935502 1.41402,-1.40522 2.15692,-1.04917 0.742892,0.35582 0.982034,1.40291 0.533382,2.33864 -0.448189,0.935502 -1.41379,1.40522 -2.15668,1.04917"/>
<path style="fill:#fff" d="m 90.3854,58.209 c -0.259051,0 -0.469487,-0.222474 -0.469487,-0.497036 0,-0.274793 0.210436,-0.497267 0.469487,-0.497267 0.259515,0 0.469719,0.222474 0.469719,0.497267 0,0.274562 -0.210204,0.497036 -0.469719,0.497036"/>
<g style="fill:#231f20">
<path d="m 94.8196,58.9621 c -1.9143,-1.32836 -2.69562,-2.96901 -6.05542,-2.34395 2.46134,-1.64089 5.0787,-0.07825 6.05542,2.34395"/>
<path d="m 93.9601,63.1421 c -1.57977,-0.599361 -3.82835,-1.25011 -5.58638,-0.85957 -0.937586,0.156265 -0.781322,-0.07802 -0.117141,-0.351421 3.0262,-1.24641 5.15649,0 5.70352,1.21099"/>
<path d="m 92.4363,62.1654 c 1.32836,-0.898462 2.69584,-4.49254 1.68001,-6.01605 -0.367626,-0.551671 -1.35591,-1.96638 -3.28156,-1.13297 -2.61737,1.13297 -2.4611,6.21144 -1.4844,6.5631 0.470645,0.16946 -0.07825,0.625057 -0.625288,0.273405 -0.54681,-0.351653 -1.50176,-4.89187 1.60177,-7.14902 1.71891,-1.25011 3.43781,0.156264 3.94573,0.664181 0.872533,0.872302 1.58672,4.03879 -1.0156,6.64111 -0.312529,0.312528 -0.586165,0.390776 -0.820677,0.156264"/>
</g>
<path style="fill:#f29a70" d="m 81.7715,52.9067 c -0.625057,0.468793 -1.02671,1.51982 -1.44342,2.24928 -0.416705,0.729001 -0.02801,2.60811 -0.02801,2.60811 0,0 0.391471,-2.38957 0.650985,-2.82596 0.97671,-1.64066 3.51606,-2.03144 0.820445,-2.03144"/>
<g style="fill:#fff">
<path d="m 80.8285,60.4632 c 0.04445,-1.13645 -1.1927,-5.52504 2.28425,-4.78262 1.0501,0.224094 1.87517,1.77099 1.87517,1.77099 0,0 -0.989673,3.33342 -1.66705,3.48991 -0.624826,-0.260441 -1.02648,-0.227104 -2.49236,-0.478285"/>
<path d="m 83.0237,55.8461 c 0.631539,4.08556 -1.01583,4.14088 -1.43254,4.45341 0.755393,0.520881 2.12542,2.08886 3.28943,-2.56875 -0.450504,-1.77794 -1.2059,-1.62445 -1.85689,-1.88465"/>
</g>
<g style="fill:#231f20">
<path d="m 83.3283,60.743 c 0.894526,-0.804703 2,-4.05846 1.31563,-5.42294 -0.247708,-0.494026 -1.09732,-1.72631 -2.39466,-0.979719 -1.76289,1.01468 -1.65756,5.56301 -1,5.87807 0.317159,0.151403 -0.05255,0.559542 -0.420872,0.244698 -0.36832,-0.314843 -1.01167,-4.38118 1.0788,-6.40268 1.15774,-1.11978 2.55255,0.140059 2.89471,0.594962 0.587554,0.781321 0.831789,3.61722 -0.92138,5.94776 -0.210204,0.279887 -0.394712,0.3498 -0.552365,0.139828"/>
<path d="m 84.975,57.6337 c -1.32836,-0.937585 -1.35128,-2.17172 -4.20409,-1.29294 1.35406,-1.56264 3.61792,-1.12904 4.20409,1.29294"/>
<path d="m 81.1226,58.7732 c -0.600286,-0.280581 -0.79336,-1.10566 -0.43129,-1.84253 0.362534,-0.737104 1.1427,-1.10751 1.74298,-0.826927 0.600286,0.280349 0.793128,1.10542 0.431057,1.84253 -0.362301,0.737104 -1.14247,1.10728 -1.74275,0.826927"/>
</g>
<path style="fill:#fff" d="m 82.0254,57.2969 c -0.215297,0 -0.38985,-0.164135 -0.38985,-0.366237 0,-0.202565 0.174553,-0.3667 0.38985,-0.3667 0.215297,0 0.38985,0.164135 0.38985,0.3667 0,0.202102 -0.174553,0.366237 -0.38985,0.366237"/>
<g style="fill:#231f20">
<path d="m 83.4123,61.2669 c -1.04639,-0.415315 -2.19557,-0.622279 -3.35981,-0.351652 -0.620658,0.108343 -0.505601,-0.181035 -0.06575,-0.370404 2.05389,-0.885035 3.11741,0.0083 3.42553,0.722056"/>
<path d="m 86.264,61.3449 c -0.429669,-0.234281 -0.944531,-1.61635 -1.69275,-1.44527 -1.19803,0.273404 -1.27651,2.90165 -0.690109,3.32043 0.820213,0.586164 1.60153,-0.312529 2.34395,-0.859338 0.07802,0.546809 -0.807249,1.6101 -1.75803,1.64066 -1.21122,0.03912 -1.60177,-1.52352 -1.4455,-2.50023 0.156264,-0.976478 0.664181,-2.03144 1.48463,-2.14857 0.820446,-0.11714 1.95318,1.28924 1.7578,1.99231"/>
</g>
<g style="fill:#fff">
<path d="m 105.15,37.1458 -1.9585,-2.2553 -2.7634,.5352 1.3029,-2.791 -1.3066,-2.7885 2.7639,.5304 1.9553,-2.259 .4056,3.1188 2.5155,1.3925 -2.5132,1.3971 -.4014,3.1197"/>
<path d="m 116.7362,25.9686 -1.3409,-.8348 -1.4529,.6285 .3852,-1.53 -1.0461,-1.1809 1.5791,-.1109 .8061,-1.3582 .5908,1.4615 1.5446,.3412 -1.214,1.0142 .1482,1.5693"/>
<path d="m 92.7099,39.1946 c -6.95364,1.75803 -4.57079,8.67279 0.351652,9.84464 C 90.678462,45.2889 90.756712,42.8278 92.7099,39.1946"/>
<g style="fill-rule:evenodd">
<ellipse cx="96.479622" cy="47.008659" rx="2.5267885" ry="2.1907747"/>
<ellipse cx="109.5" cy="36.37381" rx="0.93982428" ry="0.99582654"/>
<ellipse cx="109.85661" cy="30.152388" rx="0.97182554" ry="0.81181908"/>
<ellipse cx="119.33652" cy="20.381733" rx="0.83582008" ry="0.91582328"/>
</g>
</g>
</svg>
