<svg width="64" version="1.1" xmlns="http://www.w3.org/2000/svg" height="64">
<g style="fill-rule:evenodd;stroke:#000">
<path style="fill:#fd9e46;stroke-width:.669;font-size:12px" id="rect677" d="m .3347,2 63.3306,0 0,60 -63.3306,0 z "/>
<g id="g1257" transform="matrix(0.231676,-0.02948936,0.02948936,0.231676,19.951582,0.75557761)">
<g style="font-size:12px">
<path id="path643" d="m 64.338,75.2242 c -57.9815,45.6102 -57.7837,45.5351 -57.7837,45.5351 l 42.2032,-7.2205 15.5805,-38.3146 z "/>
<path id="path644" d="m 121.8901,88.4266 c 43.8736,65.5649 43.2285,65.3177 43.2285,65.3177 l -38.3328,-22.9529 -4.8957,-42.3648 z "/>
<g style="fill:#fd9e46;stroke-width:2.5">
<path id="path646" d="m 96.354,153.0267 c -5.28601,31.3909 -5.28601,31.3909 -5.28601,31.3909 l 6.8097,2.42 16.2972,23.2292 -11.7343,1.1075 -12.5859,-2.4076 -12.9505,-.2428 4.557,-27.0614 4.1953,.8027 10.6976,-29.2385 z "/>
<path id="path645" d="m 67.6744,148.8658 c -5.28606,31.3911 -5.28606,31.3911 -5.28606,31.3911 l -7.1745,-.2553 -22.8591,15.739 10.6407,5.3875 12.586,2.4074 12.2214,4.5727 4.5569,-27.0611 -4.1953,-.8027 -.49,-31.3786 z "/>
</g>
<path style="stroke-width:.779" id="path620" d="m 128.3766,121.9492 c -6.6182,36.6162 -25.0704,49.8784 -48.6248,44.8641 -22.6024,-4.8116 -38.3739,-22.3518 -34.7809,-59.635 2.36315,-24.5237 27.1474,-33.3894 30.2021,-47.0448 1.26342,-17.4181 4.46572,-39.1302 28.7325,-33.4295 20.8862,4.90644 15.5149,23.6576 13.1274,40.1022 -1.0651,15.7416 15.9114,29.8718 11.3437,55.143 z "/>
<path style="fill:#fd9e46" id="path625" d="m 81.5908,52.4333 32.1641,6.1527 -17.9348,12.2117 -14.2294,-18.3644 Z "/>
</g>
<g style="fill:#fff">
<g style="stroke-width:1.25">
<ellipse cx="242.5" cy="464.86218" rx="10" ry="15" id="path627" transform="matrix(0.769144,0.14713,-0.0729114,0.432979,-45.28405,-187.4172)"/>
<ellipse cx="242.5" cy="464.86218" rx="10" ry="15" id="path630" transform="matrix(0.769144,0.14713,-0.0729114,0.432979,-62.06543,-190.6275)"/>
</g>
<path style="stroke-width:.594;font-size:12px" id="path632" d="m 114.1418,129.3689 c -5.1077,12.4226 -7.849,34.72 -33.8329,28.856 -26.1081,-5.8922 -23.8353,-28.3573 -24.6991,-42.0656 -0.82745,-13.1307 9.36379,-32.7091 19.6256,-38.4515 7.91924,-4.43161 29.1938,0.32964 34.9176,7.92963 7.245,9.62035 8.8292,31.9584 3.9888,43.7314 z "/>
</g>
<g style="stroke-width:1.25">
<ellipse cx="176.25" cy="466.73718" rx="5" ry="5.625" id="path652" transform="matrix(0.567131,0.108487,-0.07430256,0.441233,41.74643,-175.1887)"/>
<ellipse cx="176.25" cy="466.73718" rx="5" ry="5.625" id="path656" transform="matrix(0.567131,0.108487,-0.07430256,0.441233,24.936,-178.4043)"/>
</g>
</g>
</g>
<g id="g1162" transform="matrix(0.23641411,-0.01575068,0.0263147,0.22271393,4.4169006,43.454008)">
<g style="fill-rule:evenodd;font-size:12px">
<rect width="207.31488" x="10.442021" y="20.62958" height="41.6992" id="rect963" transform="matrix(0.994704,0.102779,0.00108982,0.999999,0,0)"/>
<rect width="19.853752" x="186.77238" y="77.50309" height="20.589088" style="fill:#fffffe" id="rect971" transform="matrix(1.005174,0.100224,0.00112368,0.994965,-33.27739,-51.71037)"/>
<rect width="20.589073" x="81.62101" y="76.767761" height="22.059738" style="fill:#ff0" id="rect970" transform="matrix(1.005174,0.100224,0.00112368,0.994965,-33.27739,-51.71037)"/>
</g>
<g style="font-family:'Outlands Truetype';font-size:72px">
<path id="path935" d="m 82.0625,98.625 20.5625,0" transform="matrix(1.005174,0.100224,0.00112368,0.994965,-33.27739,-51.71037)"/>
<path id="path936" d="m 77.0625,77 4.6875,0" transform="matrix(1.005174,0.100224,0.00112368,0.994965,-33.27739,-51.71037)"/>
<path id="path937" d="m 87.125,84.5625 10.0625,0 0,6.5 -10.0625,0 0,-6.5 z" transform="matrix(1.005174,0.100224,0.00112368,0.994965,-33.27739,-51.71037)"/>
<path id="path938" d="m 112.125,70.25 0,34.3489 30.25,0 0,-34.3489 -30.25,0 z " transform="matrix(1.005174,0.100224,0.00112368,0.994965,-33.27739,-51.71037)"/>
<g style="fill:#f00">
<path id="path939" d="m 117.125,98.375 9.75,0 0,-6.8125 10.4375,0 0,13.6875 -20.1875,0 0,-6.875 z" transform="matrix(1.005174,0.100224,0.00112368,0.994965,-33.27739,-51.71037)"/>
<path id="path940" d="m 117.125,77.4375 20.1875,0 0,6.8125 -10.4375,0 0,6.875 -9.75,0 0,-13.6875 z" transform="matrix(1.005174,0.100224,0.00112368,0.994965,-33.27739,-51.71037)"/>
</g>
<path id="path941" d="m 147.0625,56.5 14.75,0 0,13.3125 15.4375,0 0,35.625 -30.1875,0 0,-48.9375 z" transform="matrix(1.005174,0.100224,0.00112368,0.994965,-33.27739,-51.71037)"/>
<path style="fill:#fff" id="path942" d="m 152.0625,62.9375 0,35.3125 19.4375,0 0,-21.25 -14.75,0 0,-14.0625 -4.6875,0 z" transform="matrix(1.005174,0.100224,0.00112368,0.994965,-33.27739,-51.71037)"/>
<path id="path944" d="m 187.0625,98.625 20.5,0" transform="matrix(1.005174,0.100224,0.00112368,0.994965,-33.27739,-51.71037)"/>
<path id="path945" d="m 182,77 4.6875,0" transform="matrix(1.005174,0.100224,0.00112368,0.994965,-33.27739,-51.71037)"/>
<path id="path946" d="m 192.125,84.5625 10.0625,0 0,6.5 -10.0625,0 0,-6.5 z" transform="matrix(1.005174,0.100224,0.00112368,0.994965,-33.27739,-51.71037)"/>
<path id="path947" d="m 217.9229,70.1875 15.4375,0 0,6.4375 5.0625,0 0,-6.4375 9.6875,0 0,35.25 -14.75,0 0,-6.5 -5,0 0,6.5 -10.4375,0 0,-35.25 z" transform="matrix(1.005174,0.100224,0.00112368,0.994965,-33.27739,-51.71037)"/>
<path style="fill:#fff" id="path948" d="m 222.9375,91.375 0,6.875 4.6875,0 0,-6.875" transform="matrix(1.005174,0.100224,0.00112368,0.994965,-33.27739,-51.71037)"/>
<path id="path943" d="m 157.125,84.5625 9.375,0 0,6.5 -9.375,0 0,-6.5 z" transform="matrix(1.005174,0.100224,0.00112368,0.994965,-33.27739,-51.71037)"/>
<g style="fill:#fff">
<path id="path949" d="m 222.9375,77.375 0,6.5 4.3125,0 0,-6.5 -4.3125,0 z" transform="matrix(1.005174,0.100224,0.00112368,0.994965,-33.27739,-51.71037)"/>
<path id="path950" d="m 237.8125,91.75 0,6.5 4.5625,0 0,-6.5 -4.5625,0 z" transform="matrix(1.005174,0.100224,0.00112368,0.994965,-33.27739,-51.71037)"/>
</g>
<path id="path951" d="m 102.625,98.625 0,-21.25 4.6875,0 0,21.25 -4.6875,0 z" transform="matrix(1.005174,0.100224,0.00112368,0.994965,-33.27739,-51.71037)"/>
<path id="path952" d="m 102.625,98.625 0,6.8125 -20.5625,0 0,-6.8125" transform="matrix(1.005174,0.100224,0.00112368,0.994965,-33.27739,-51.71037)"/>
<path id="path953" d="m 81.75,77 0,-6.8125 20.5,0 0,6.8125 -20.5,0 z" transform="matrix(1.005174,0.100224,0.00112368,0.994965,-33.27739,-51.71037)"/>
<path id="path954" d="m 81.75,77 0,21.25 -4.6875,0 0,-21.25" transform="matrix(1.005174,0.100224,0.00112368,0.994965,-33.27739,-51.71037)"/>
<path id="path956" d="m 207.5625,98.625 0,6.8125 -20.5,0 0,-6.8125" transform="matrix(1.005174,0.100224,0.00112368,0.994965,-33.27739,-51.71037)"/>
<path id="path957" d="m 186.6875,77 0,-6.8125 20.5625,0 0,6.8125 -20.5625,0 z" transform="matrix(1.005174,0.100224,0.00112368,0.994965,-33.27739,-51.71037)"/>
<path id="path958" d="m 186.6875,77 0,21.25 -4.6875,0 0,-21.25" transform="matrix(1.005174,0.100224,0.00112368,0.994965,-33.27739,-51.71037)"/>
<path style="fill:#fff" id="path959" d="m 227.625,91.375 10.0625,0 0,-7.1875" transform="matrix(1.005174,0.100224,0.00112368,0.994965,-33.27739,-51.71037)"/>
<path id="path960" d="m 227.625,91.375 -4.6875,0" transform="matrix(1.005174,0.100224,0.00112368,0.994965,-33.27739,-51.71037)"/>
<g style="fill:#fff">
<path id="path961" d="m 237.6875,84.1875 4.6875,0 0,-6.8125 -4.6875,0 0,6.8125 z" transform="matrix(1.005174,0.100224,0.00112368,0.994965,-33.27739,-51.71037)"/>
<path id="path962" d="m 237.6875,84.1875 -10.0625,0 0,7.1875" transform="matrix(1.005174,0.100224,0.00112368,0.994965,-33.27739,-51.71037)"/>
</g>
</g>
<rect width="19.85376" x="48.53141" y="64.267258" height="35.295563" style="fill:#f0f;fill-rule:evenodd;font-size:12px" id="rect969" transform="matrix(1.005174,0.100224,0.00112368,0.994965,-33.27739,-51.71037)"/>
<g style="font-family:'Outlands Truetype';font-size:72px">
<path id="path967" d="m 53.4228,70.9228 9.375,0 0,20.875 -9.375,0 0,-20.875 z " transform="matrix(1.005174,0.100224,0.00112368,0.994965,-33.27739,-51.71037)"/>
<path id="path968" d="m 43.3603,57.9706 24.5,0 0,6.125 -19.4375,0 0,35.625 19.8125,0 0,-35.3125 4.625,0 0,35.6874 -4.625,0 0,6.8125 -24.875,0 0,-48.9374 z " transform="matrix(1.005174,0.100224,0.00112368,0.994965,-33.27739,-51.71037)"/>
</g>
</g>
<g style="font-size:12px;fill-rule:evenodd;stroke:#000">
<path style="fill:#fdfad7;stroke-width:.715" id="path678" d="m 11.0949,38.477 .5292,4.4289 16.2839,.7805 -.6879,-5.5587 -16.1253,.3494 z "/>
<path style="fill:#b4a70a;stroke-width:.718" id="path680" d="m 15.5908,36.2169 .0767,4.3521 c 2.2615,0.55448 5.3296,0.739262 7.85832,-0.146373 l -.0767,-4.3521 -7.8583,.1464 z "/>
<g style="stroke-width:.701">
<rect width="28.058498" x="3.5284913" y="15.763398" height="21.043873" style="fill:#fdfad7" id="rect657" transform="matrix(0.99969125,-0.02484773,0.02484773,0.99969125,0,0)"/>
<rect width="19.50066" x="7.1712728" y="20.409105" height="12.486033" id="rect660" transform="matrix(0.99915331,-0.04114192,0.04114192,0.99915331,0,0)"/>
</g>
</g>
<path style="font-family:Arial;fill:#fff;stroke:none;line-height:100%;font-weight:bold;stroke-width:2.75;font-size:28px" id="text662" d="m 16.1309,26.5187 .9057,.1827 c -0.08132,0.502719 -0.265704,0.890045 -0.553138,1.16199 -0.285627,0.269684 -0.668454,0.430544 -1.14848,0.482587 -0.593934,0.06438 -1.10404,-0.08507 -1.53031,-0.448383 -0.426497,-0.365345 -0.677896,-0.899904 -0.754193,-1.60367 -0.08071,-0.744447 0.04889,-1.34294 0.388766,-1.79549 0.339662,-0.454577 0.822732,-0.715825 1.44921,-0.78375 0.547148,-0.05932 1.00911,0.05421 1.38589,0.340565 0.224126,0.16915 0.406447,0.427202 0.546961,0.77416 l -.8708,.3105 c -0.07803,-0.226139 -0.208725,-0.397181 -0.392099,-0.513128 -0.181345,-0.116158 -0.392024,-0.161231 -0.632035,-0.135214 -0.331545,0.03595 -0.588151,0.184156 -0.769819,0.444625 -0.179636,0.260255 -0.240567,0.656835 -0.182791,1.18974 0.0613,0.565456 0.206663,0.957162 0.436087,1.17513 0.22942,0.217963 0.506852,0.309301 0.832295,0.27402 0.240011,-0.02602 0.438194,-0.124676 0.59455,-0.295973 0.15635,-0.171294 0.254404,-0.424758 0.294162,-0.760393 m 1.7201,-.9335 -.0929,-.8573 .8573,-.0929 .0929,.8573 -.8573,.0929 m .2583,2.3828 -.0929,-.8573 .8573,-.0929 .0929,.8573 -.8573,.0929 m .9591,-4.7065 .6316,-.0685 1.6212,4.504 -.6438,.0698 -1.609,-4.5053"/>
</svg>
