<svg width="48" version="1.1" xmlns="http://www.w3.org/2000/svg" height="48">
<g style="stroke:none" id="g4">
<path style="fill:#fff" id="path3799" d="M 46.7744,4e-5 48,8.07744 l -34.271,5.3543 0,-3.59294 -2.719,-0.0283 -5.6364,0.0283 -3.58344,0 -0.3565,-2.7936 z"/>
<path style="fill:#0b3b2c" id="rect1316" d="M 46.7744,4e-5 48,8.07744 l -34.271,5.3543 0,-3.59294 -2.71952,0 -2.5685,-2.8343 -4.4297,0.6804 1.3623,2.1539 -3.61502,0 L 1.43356,7.0453 46.77436,0 Z m -5.1996,2.0933 -4.4297,0.6804 4.4079,5.008 4.4297,-0.6804 z m -10.589,1.7773 -4.4297,0.6804 4.4079,5.008 4.4297,-0.6804 z m -10.9681,1.6952 -4.4332,0.7166 4.4079,5.008 4.4332,-0.7167 -4.4079,-5.008 z"/>
<g style="fill-rule:evenodd" id="g8">
<path style="fill:#26637a" id="path4161" d="M 0,10.83823 0,48 l 48,0 0,-32.512 -35.180136,0 0,-4.64983 z"/>
<g style="fill:#7cff55" id="g11">
<path style="stroke-width:2.5" id="path638" d="m 15.1282,35.2407 c -5.86153,-1.91593 -3.68401,-6.79662 -1.05515,-9.13834 l .0742,-.2227 c -2.28365,-6.1391 -7.49503,-10.9241 -11.6084,-12.1808 l -.127,.1617 .138,.2141 c 3.86301,1.95952 7.17893,5.1055 8.29518,8.31873 -3.75486,-2.81038 -7.11937,-2.20485 -10.8451,0.339346 l .0002,.166 c 4.48266,-2.04194 8.70648,-1.60279 10.6598,1.36909 l .0879,.3159 c -3.51725,0.10467 -6.68234,1.91558 -8.37975,5.81719 l .146,-.0267 c 2.15779,-2.11445 5.77891,-5.19152 8.05628,-4.20416 -2.31835,6.27216 -1.09781,9.42315 3.99923,11.3071 l .5814,-2.2424"/>
<path style="stroke-width:1.25" id="path648" d="m 31.6129,40.7234 c 2.94928,0.70752 6.25455,-3.45004 6.74294,-6.32294 l .2659,.231 c 1.21594,3.81086 -1.76816,8.49204 -1.90378,10.8524 2.84463,-3.4648 4.52289,-6.88 3.00246,-11.3638 2.95997,4.64023 2.7202,8.51576 2.58713,13.6035 l .1099,.2764 .0765,-.014 .1784,-.6455 c 1.09267,-4.74078 0.543135,-10.451 -1.71902,-13.5053 3.33906,1.66895 5.17191,6.90524 6.94403,9.86071 l .1026,.0207 c -1.53842,-4.32393 -4.83783,-13.7404 -10.2954,-12.5098 l -.2156,.1185 -.2032,.2942 c -0.619045,3.97958 -4.01111,6.99781 -7.12877,7.45688"/>
</g>
<g style="stroke-width:3.75" id="g15" transform="matrix(1.1215318,0.16016844,-0.16016844,1.1215318,2.3139024,-8.0969483)">
<g style="fill:#fff845" id="g17">
<path id="path595" d="m 25.2107,24.6213 .1387,-.8962 c -0.02247,-0.72904 0.336652,-2.89558 -0.26372,-3.29359 -0.344828,0.868406 -0.961459,1.65403 -1.39496,2.27891 l -.3036,.5861 .731,.4228 .6132,.4374 z "/>
<path id="path575" d="m 18.1353,23.9768 c 0.0758,-0.996229 -1.07177,-3.47656 -0.122834,-4.18985 0.466946,1.1176 1.34355,1.90706 1.865,2.7596 l -.7047,.4653 -.5863,.4729 z "/>
</g>
<path style="fill:#76e254" id="path581" d="m 14.8603,34.4141 c -0.138728,-0.181976 -0.180327,-0.365933 -0.147466,-0.583648 0.318794,-2.11213 1.6243,-4.11959 2.51864,-6.03771 0.244414,-0.524209 0.278679,-1.06958 0.270471,-1.63709 -0.0323,-2.2333 1.32353,-5.10347 3.7887,-4.46056 0.837529,0.218425 1.29302,0.730836 1.77945,1.426 0.409253,-0.512959 1.27641,-0.861664 1.82004,-0.780004 2.07953,0.312373 2.99892,2.73829 2.74564,5.13617 l -.1388,.7989 c 0.974144,0.219158 1.68927,0.361087 2.65787,0.28729 0.726917,0.464232 0.992978,1.13148 0.965519,1.94021 -0.04323,1.27326 0.07556,1.68959 0.268007,2.80055 0.252855,1.45969 0.449236,3.25045 -0.849556,3.21558 -2.60388,-0.06991 -9.27913,0.367006 -12.5623,-1.9836 -0.639102,-0.457562 -0.535253,-1.04617 -0.324226,-1.77256 -0.506342,-0.400356 -1.46899,1.28614 -2.38517,1.66306"/>
</g>
<path style="fill:#fff;stroke-width:2.5" id="path618" d="m 21.9785,20.1719 c -1.18992,-0.124905 -2.70282,1.06861 -2.96094,2.88086 -0.173793,1.22022 0.175544,2.33803 1.22266,3.11914 0.197473,-0.027573 0.310402,-0.191114 0.464844,-0.3125 0.596757,-0.175592 0.865054,-0.119085 1.39648,0.285156 l 1.6387,.4238 4.4766,1.3457 .2617,-.7324 c 0.449757,-1.93671 0.341686,-4.1443 -1.5918,-5.44922 -0.687535,-0.464019 -2.17116,-0.010668 -2.70703,0.75 -0.252116,-0.916053 -0.780035,-1.72024 -1.7168,-2.17383 -0.152266,-0.073727 -0.314387,-0.118875 -0.484375,-0.136719 z "/>
<g style="fill:#b75500;stroke-linejoin:round;stroke-linecap:round;stroke-miterlimit:0" id="g26" transform="matrix(1.1215318,0.16016844,-0.16016844,1.1215318,2.3139024,-8.0969483)">
<path id="path4245" d="m 20.7569,24.3775 a 1.41515,1.75807 3 0,0 -1.19881,1.56958 1.41515,1.75807 3 0,0 0.586121,1.62285 c 0.0553,-0.06099 0.104587,-0.131404 0.164248,-0.193822 0.499539,-0.227909 0.740559,-0.211209 1.25538,0.0757 l .2418,.0301 a 1.41515,1.75807 3 0,0 0.565553,-1.21869 1.41515,1.75807 3 0,0 -1.2316,-1.9071 1.41515,1.75807 3 0,0 -0.382689,0.02139 z "/>
<path id="ellipse4259" d="m 24.8839,25.108 a 1.28549,1.75015 2 0,0 -1.16186,1.47021 1.28549,1.75015 2 0,0 0.132465,1.15623 l 2.0328,.3105 a 1.28549,1.75015 2 0,0 0.362887,-0.934212 1.28549,1.75015 2 0,0 -1.01914,-1.99445 1.28549,1.75015 2 0,0 -0.347136,-0.0082 z "/>
</g>
<g style="stroke-width:2.5" id="g30" transform="matrix(1.1215318,0.16016844,-0.16016844,1.1215318,2.3139024,-8.0969483)">
<path style="fill:#74e14b" id="path655" d="m 22.9538,35.6739 -2.3247,-.2465 -.8097,-.1979 -.6439,-.1265 -.6897,-.2097 -.102,1.7793 c -0.06008,1.31978 0.09163,2.10559 0.524767,2.59075 2.13921,2.39619 5.64917,2.70178 8.32009,0.808675 l .3783,-.4356 .1027,-.2732 c -0.182769,-1.06131 -0.137898,-2.03359 -0.333694,-3.10402 l -1.8708,-.2684 -2.5235,-.3168"/>
<path style="fill:#ff937a" id="path656" d="m 18.6593,35.0224 .4291,.099 .5722,.0872 .7722,.1251 .6025,.0733 1.3114,.1553 1.4122,.1691 1.4896,.1992 1.4435,.1904 .4642,.0568 .1021,.9183 .0789,.8845 -.0025,1.0958 c -2.18727,2.25909 -6.22383,1.91879 -8.07979,-0.365612 -0.57228,-0.704378 -0.534941,-1.77881 -0.526404,-2.67502 z "/>
<path style="fill:#d70000" id="path661" d="m 20.0874,35.3224 6.26,.7044 c 0.165167,1.3651 -0.442994,2.17649 -1.10448,3.3252 l -.2309,.1934 -.1994,.0509 -.1539,-.015 c -0.611049,-0.647032 -1.16276,-1.33087 -1.88685,-1.85692 -0.510407,0.278438 -0.330271,0.751651 -0.241185,1.23869 l -.1802,.2345 -.2552,-.0181 c -1.19849,-0.909886 -2.31059,-2.30884 -2.008,-3.85691 z "/>
<g style="fill:#fff" id="g35">
<path id="path666" d="m 20.6025,35.2853 .4169,.0815 c 0.622256,0.117775 1.25344,0.173057 1.87751,0.277377 -0.697652,1.40122 -1.48494,2.43388 -2.64717,3.47116 0.444657,-1.25249 0.461597,-2.52473 0.352754,-3.83003 z "/>
<path id="path668" d="m 28.7873,36.371 c -0.645832,-0.03806 -1.28764,-0.120571 -1.92705,-0.216398 l -.3813,-.038 .0731,.3345 c 0.300317,1.38979 0.802275,2.52534 1.57287,3.70863 -0.101217,-1.32523 0.215525,-2.55752 0.662326,-3.78878 z "/>
</g>
</g>
<g style="stroke-linejoin:round;stroke-linecap:round;stroke-miterlimit:0" id="g39" transform="matrix(1.1215318,0.16016844,-0.16016844,1.1215318,2.3139024,-8.0969483)">
<ellipse cx="24.59374" cy="21.478565" rx="0.72852373" ry="0.97661555" id="ellipse4266" transform="matrix(0.97927067,0.20255605,-0.14340674,0.98966384,0,0)"/>
<path id="ellipse4270" d="m 24.9997,25.9716 a 0.725589,0.978797 3 0,0 -0.657543,0.82321 0.725589,0.978797 3 0,0 0.489466,1.08891 l .2259,.0345 a 0.725589,0.978797 3 0,0 0.711508,-0.828254 0.725589,0.978797 3 0,0 -0.573433,-1.11408 0.725589,0.978797 3 0,0 -0.195874,-0.0042 z "/>
<path style="opacity:.5" id="rect4175" d="m 22.4636,29.6118 c -0.05505,0.396419 -0.887474,1.08565 -1.22342,1.0694 -0.335953,-0.01626 -1.45427,-1.18212 -1.41556,-1.64101 0.03867,-0.458891 0.926486,-1.06219 1.22343,-1.0694 0.296938,-0.0072 1.47061,1.2446 1.41556,1.64101 z"/>
<path style="opacity:.5" id="path4259" d="m 30.5502,31.3369 c -0.194051,0.350032 -1.21877,0.693437 -1.52635,0.557342 -0.307582,-0.136096 -0.931288,-1.62636 -0.729993,-2.04055 0.201256,-0.414213 1.24672,-0.657499 1.52635,-0.557342 0.279627,0.100166 0.924048,1.69052 0.729991,2.04055 z"/>
</g>
</g>
</g>
</svg>
