<svg width="48" version="1.0" xmlns="http://www.w3.org/2000/svg" height="48" xmlns:xlink="http://www.w3.org/1999/xlink">
<defs id="defs3"/>
<g style="fill-rule:evenodd">
<g style="stroke-width:1.25">
<path style="fill:#664088" id="path25179" d="m 22.7345,2.8836 c -11.4494,0 -20.7345,9.62422 -20.7345,21.1164 0,11.4922 9.28515,21.1164 20.7345,21.1164 1.25752,0 2.48391,-0.115449 3.6797,-0.330762 -0.834157,0.114515 -1.68933,0.175718 -2.55305,0.175718 -10.807,0 -19.5665,-9.55482 -19.5665,-20.9614 0,-11.4065 8.75955,-20.9614 19.5665,-20.9614 0.863726,0 1.7189,0.061203 2.55305,0.175716 -1.19579,-0.21531 -2.42218,-0.33076 -3.6797,-0.33076 z  m 20.1143,16.0827 c 0.06865,0.289143 0.129086,0.574414 0.186053,0.868245 -0.05919,-0.292497 -0.114777,-0.580345 -0.186053,-0.868245 z  m .1861,.8682 c 0.260657,1.34449 0.403112,2.73969 0.403112,4.16551 0,1.42582 -0.142455,2.82102 -0.403112,4.16551 0.272216,-1.34534 0.423784,-2.73952 0.423784,-4.16551 0,-1.42609 -0.151531,-2.82008 -0.423784,-4.16551 z  m 0,8.331 c -0.0443,0.228493 -0.09332,0.456515 -0.144709,0.682192 0.05397,-0.226962 0.09822,-0.452413 0.144709,-0.682192 z "/>
<path style="fill:#a481c4" id="path10663" d="m 5.2688,24.0015 c 0,11.4065 8.76078,20.6534 19.5678,20.6534 10.807,0 19.5678,-9.24683 19.5678,-20.6534 0,-11.4065 -8.76078,-20.6534 -19.5678,-20.6534 -10.807,0 -19.5678,9.24683 -19.5678,20.6534 z "/>
</g>
<path style="font-family:Sans;text-transform:none;text-indent:0;text-align:start;color:#000;stroke-width:1.214;line-height:normal;fill:#fff;stroke:none" id="path4343" d="m 4.4985,17.8504 0,1.2235 40.5356,0 0,-1.2235 -40.5356,0 z  m -.4508,3.0587 0,1.2235 41.5981,0 0,-1.2235 -41.5981,0 z  m -.1932,3.0265 0,1.2235 42.1455,0 0,-1.2235 -42.1455,0 z  m .2898,2.9621 0,1.2235 41.4049,.0966 0,-1.2235 -41.4049,-.0966 z "/>
</g>
</svg>
