<svg width="48" version="1.1" xmlns="http://www.w3.org/2000/svg" height="48" viewBox="0 0 48 48">
<circle cx="24" cy="24" style="fill:#30393b;fill-rule:evenodd" r="23"/>
<g style="color:#000;fill:#dfe6eb">
<circle cx="24" cy="24" style="fill-rule:evenodd" r="1.8034091"/>
<path d="m 32.2461,13.4024 c -0.110927,0 -0.221674,0.0029 -0.333985,0.0059 -0.09681,0.0026 -0.195164,0.0055 -0.292968,0.0098 l .5996,1.3496 c 1.53375,-0.01142 2.86682,0.224998 3.83398,0.69336 1.02508,0.496402 1.64574,1.19187 1.875,2.25195 0.579485,2.67935 -0.853162,5.38758 -3.11523,8.13477 a 0.681604,0.681604 0 0,0 0.0957,0.958985 0.681604,0.681604 0 0,0 0.960938,-0.08789 c 2.36053,-2.86677 4.11018,-5.98598 3.39453,-9.29492 -0.318047,-1.47061 -1.30855,-2.55288 -2.61914,-3.1875 -1.22868,-0.594992 -2.73454,-0.844399 -4.39844,-0.833984 z  m -4.3418,.5234 c -2.54382,0.562583 -5.19496,1.5584 -7.61133,2.88672 -2.62131,1.44098 -5.50122,3.5084 -7.75781,5.94922 -2.25659,2.44078 -3.92598,5.27155 -3.93555,8.26758 a 0.681604,0.681604 0 0,0 0.015625,0.0957 c -0.659699,0.431131 -1.0996,1.17592 -1.09961,2.01562 0,1.32008 1.08617,2.40625 2.40625,2.40625 1.32008,0 2.39846,-1.08617 2.39844,-2.40625 0,-1.30211 -1.05023,-2.37724 -2.3457,-2.40625 0.117673,-2.39005 1.52663,-4.84663 3.56445,-7.05078 2.12371,-2.29708 4.89775,-4.30569 7.4043,-5.68359 2.38508,-1.31113 5.04007,-2.27734 7.52734,-2.79688 l -.5664,-1.2773 z  m -17.9824,18.1738 c 0.583335,0 1.04101,0.457684 1.04102,1.04102 0,0.583332 -0.457672,1.04102 -1.04102,1.04102 -0.583344,0 -1.04884,-0.457684 -1.04883,-1.04102 0,-0.583332 0.465493,-1.04102 1.04883,-1.04102 z "/>
<path d="m 24.002,6.0782 c -1.29204,0.033209 -2.34374,1.10684 -2.34375,2.40625 0,1.32008 1.08619,2.40039 2.40625,2.40039 0.85627,0 1.61043,-0.455446 2.03516,-1.13477 3.9087,2.98187 5.61711,10.0455 5.42773,15.8691 -0.08897,2.73594 -0.606289,5.53139 -1.42188,7.94727 l 1.3867,.1523 c 0.810977,-2.48545 1.30448,-5.28728 1.39453,-8.05664 0.204586,-6.29152 -1.5,-13.9896 -6.37891,-17.2949 a 0.681604,0.681604 0 0,0 -0.04883,-0.023437 c -0.07347,-1.2556 -1.12173,-2.26562 -2.39453,-2.26562 -0.02063,0 -0.04199,0 -0.0625,0 z  m .0625,1.3652 c 0.583335,0 1.04101,0.457683 1.04102,1.04102 0,0.583332 -0.457681,1.04102 -1.04102,1.04102 -0.583334,0 -1.04101,-0.457683 -1.04102,-1.04102 0,-0.583332 0.457681,-1.04102 1.04102,-1.04102 z  m -7.0508,25.752 a 0.681604,0.681604 0 0,0 -0.189453,0.04102 0.681604,0.681604 0 0,0 -0.400391,0.878906 c 1.29804,3.47928 3.11192,6.54905 6.33398,7.58789 1.43086,0.461291 2.86855,0.161401 4.07617,-0.648437 1.20762,-0.809915 2.22646,-2.09107 3.0918,-3.66211 0.03827,-0.06949 0.07563,-0.140299 0.113281,-0.210937 l -1.4629,-.1602 c -0.757611,1.30441 -1.6224,2.31113 -2.50391,2.90234 -0.944715,0.6336 -1.867,0.821409 -2.90039,0.488281 -2.60902,-0.841209 -4.22681,-3.4432 -5.4707,-6.77734 a 0.681604,0.681604 0 0,0 -0.6875,-0.439454 z "/>
<path d="m 16.1797,13.2286 c -0.54516,0.0017 -1.07931,0.034 -1.59961,0.09961 -1.66494,0.209764 -3.18613,0.778944 -4.44531,1.91016 -1.12188,1.00789 -1.58075,2.416 -1.49023,3.89062 0.090512,1.47462 0.683207,3.04398 1.60937,4.60742 0.0062,0.01054 0.01326,0.02071 0.01953,0.03125 l .9258,-1.125 c -0.711131,-1.29338 -1.12462,-2.53755 -1.18945,-3.59375 -0.071468,-1.16428 0.22905,-2.07637 1.0332,-2.79883 2.03917,-1.83197 5.1,-1.93001 8.60742,-1.32812 a 0.681604,0.681604 0 0,0 0.791017,-0.552735 0.681604,0.681604 0 0,0 -0.554687,-0.791016 c -1.25815,-0.215929 -2.50768,-0.35337 -3.70703,-0.349609 z  m -2.8262,12.4629 -.8828,1.0703 c 1.78537,2.03839 4.05865,3.93006 6.54492,5.36719 2.65824,1.53642 5.88137,2.91989 9.06445,3.625 3.1676,0.701642 6.31477,0.755211 8.80664,-0.507812 0.35325,0.204662 0.763149,0.322265 1.19727,0.322265 1.32006,0 2.40624,-1.08617 2.40625,-2.40625 0,-1.32007 -1.08619,-2.40625 -2.40625,-2.40625 -1.32006,0 -2.40819,1.08618 -2.4082,2.40625 0,0.368814 0.08532,0.719465 0.236328,1.0332 -2.02226,0.872453 -4.71587,0.855 -7.53516,0.230469 -3.00526,-0.665688 -6.13247,-1.99733 -8.68164,-3.4707 -2.41454,-1.39566 -4.63794,-3.28113 -6.3418,-5.26367 z  m 24.7305,6.4297 c 0.583336,0 1.03905,0.457683 1.03906,1.04102 0,0.583333 -0.455727,1.04102 -1.03906,1.04102 -0.583335,0 -1.04101,-0.457683 -1.04102,-1.04102 0,-0.583332 0.45768,-1.04102 1.04102,-1.04102 z "/>
</g>
</svg>
