<svg width="48" version="1.1" xmlns="http://www.w3.org/2000/svg" height="48" viewBox="0 0 48 48" style="fill:none">
<rect width="42" x="3" y="3" rx="9.545" height="42" ry="9.545454" style="fill:#0dbd8b"/>
<g style="fill:#fff;fill-rule:evenodd">
<path d="m 19.6121,11.1827 c 0,-0.96876 0.78696,-1.75409 1.75774,-1.75409 6.57965,0 11.9136,5.32279 11.9136,11.8888 0,0.96876 -0.7872,1.75409 -1.75776,1.75409 -0.9708,0 -1.75776,-0.785328 -1.75776,-1.75409 0,-4.62847 -3.76008,-8.38061 -8.39813,-8.38061 -0.970776,0 -1.75774,-0.785328 -1.75774,-1.75409 z "/>
<path d="m 36.8136,19.5633 c 0.9708,0 1.75776,0.785328 1.75776,1.75409 0,6.56606 -5.33376,11.8888 -11.9134,11.8888 -0.9708,0 -1.75776,-0.78528 -1.75776,-1.75416 0,-0.96864 0.78696,-1.75392 1.75776,-1.75392 4.638,0 8.39784,-3.75216 8.39784,-8.3807 0,-0.96876 0.78696,-1.75409 1.75776,-1.75409 z "/>
<path d="m 28.4155,36.8172 c 0,0.96888 -0.78696,1.75416 -1.75776,1.75416 -6.57955,0 -11.9134,-5.32272 -11.9134,-11.8889 0,-0.96864 0.786984,-1.75392 1.75776,-1.75392 0.970752,0 1.75774,0.78528 1.75774,1.75392 0,4.62864 3.75991,8.3808 8.39794,8.3808 0.9708,0 1.75776,0.78528 1.75776,1.75392 z "/>
<path d="m 11.1863,28.4366 c -0.970776,0 -1.75774,-0.78528 -1.75774,-1.75392 0,-6.56609 5.33386,-11.8889 11.9135,-11.8889 0.970776,0 1.75774,0.785352 1.75774,1.75411 0,0.96876 -0.78696,1.75409 -1.75774,1.75409 -4.63812,0 -8.39803,3.75211 -8.39803,8.3807 0,0.96864 -0.786984,1.75392 -1.75776,1.75392 z "/>
</g>
</svg>
