<svg width="48" version="1.1" xmlns="http://www.w3.org/2000/svg" height="48">
<g style="stroke:none;fill-rule:evenodd">
<circle cx="24" cy="24" style="fill:#2c3e50;stroke-linecap:round;stroke-width:3" id="path4188" r="24"/>
<g style="fill:#ecf0f1">
<path id="path4145-3" d="m 23.9283,0 c 0.308949,3.12425 0.766144,5.18239 1.93577,5.80732 1.27447,-0.363903 2.10498,-2.27419 3.04705,-5.2696 -0.331273,3.07292 -0.324648,5.142 0.645258,6.0224 1.29592,-0.143929 2.47909,-1.85815 3.97909,-4.55265 -0.95095,2.96732 -1.37518,5.0049 -0.573562,6.05825 1.30443,0.156399 2.80455,-1.24324 4.83943,-3.58477 -1.53257,2.69644 -2.35148,4.60847 -1.79238,5.80732 1.2443,0.416487 3.02282,-0.645397 5.48469,-2.50933 -2.1582,2.44471 -3.3954,4.20664 -2.90366,5.52054 -0.776878,-1.04936 -0.854553,-1.1684 -1.29052,-1.64899 -0.4028,-0.444019 -0.514258,-0.58698 -1.29051,-1.29051 -0.841112,-0.745716 -1.0084,-0.858845 -1.5056,-1.21882 C 33.99267,8.771435 33.862085,8.708941 32.818516,8.10158 31.958756,7.615048 31.775606,7.513951 31.241216,7.277084 30.681285,7.028913 30.511784,6.945797 29.448836,6.595979 28.493181,6.29112 28.302636,6.252731 27.728146,6.12996 27.144942,6.005333 26.972931,5.959556 25.935766,5.843179 c -1.19005,-0.119573 -1.38094,-0.107547 -2.00747,-0.107547 -0.6,0 -0.771222,0.00253 -1.82823,0.107547 -1.11127,0.123893 -1.30176,0.15896 -1.9,0.286781 -0.602471,0.128747 -0.741307,0.153536 -1.82823,0.501867 -0.93505,0.309153 -1.15073,0.408532 -1.68484,0.645257 -0.558038,0.247349 -0.718956,0.312141 -1.68484,0.860344 -0.928692,0.541841 -1.08774,0.649315 -1.5773,1.00373 -0.489692,0.354541 -0.626715,0.467921 -1.4339,1.18297 -0.810322,0.733757 -0.953046,0.875327 -1.36221,1.32636 -0.435965,0.480592 -0.51364,0.56378 -1.29052,1.61314 0.491739,-1.31389 -0.709611,-3.03998 -2.86781,-5.48469 2.46204,1.86408 4.20453,2.92607 5.44884,2.50933 0.559092,-1.19885 -0.259816,-3.11088 -1.79238,-5.80732 2.03613,2.34296 3.57032,3.74319 4.87528,3.58477 0.800237,-1.05374 0.37698,-3.0922 -0.573562,-6.05825 1.49913,2.69294 2.68404,4.40704 3.97909,4.55265 0.972267,-0.879195 0.976799,-2.98286 0.645258,-6.05825 0.934733,2.97213 1.75336,4.88464 3.0112,5.2696 1.15098,-0.640461 1.55733,-2.6693 1.86408,-5.77147 z"/>
<path id="path4143" d="m 23.8566,7.3487 c 3.20343,-0.046253 6.4571,0.856512 9.35624,2.83196 7.70333,5.18101 9.39601,15.7512 4.5168,23.1217 -0.574025,0.867127 -0.571808,0.882677 -1.46975,1.82823 l -21.6878,-14.6616 c 0.376322,-1.02391 0.358982,-1.03853 1.03958,-2.07916 3.48106,-5.24605 9.7291,-5.73444 14.0165,-2.83196 3.64422,2.4671 5.47626,7.16917 3.65646,11.9372 0.698111,0.485664 1.4169,0.984088 2.11501,1.46975 1.58034,-3.39969 1.93118,-11.0067 -4.44511,-15.3786 -6.05696,-4.04519 -13.7211,-2.31301 -17.422,3.33383 -3.76147,5.62586 -2.55625,13.6553 3.54892,17.7446 3.97005,2.73147 9.11722,2.45212 13.5145,0.107547 l 2.0433,3.5131 c -4.07974,2.28964 -10.7159,4.38502 -17.8162,-0.358477 C 6.70341,32.36655 5.5687,21.88102 10.2704,14.73332 13.34115,10.12288 18.51762,7.42578 23.8567,7.34871 Z"/>
<path id="path1306-6" d="m 9.41,34.7005 c 0.776876,1.04936 0.854549,1.1684 1.29051,1.64899 0.409164,0.451036 0.516042,0.592604 1.32636,1.32636 0.807191,0.715052 0.980064,0.828439 1.46975,1.18297 0.480976,0.348215 0.620523,0.450883 1.5056,0.967886 1.01351,0.57583 1.18857,0.644446 1.75654,0.896192 0.538021,0.238461 0.73124,0.330214 1.68484,0.645257 1.06564,0.341292 1.2301,0.374047 1.82823,0.501866 0.59629,0.127427 0.762339,0.163858 1.86408,0.286782 1.06846,0.106293 1.26172,0.107546 1.86408,0.107546 0.626476,0 0.781848,0.012 1.97162,-0.107546 1.03717,-0.116374 1.24502,-0.162148 1.82823,-0.286782 0.583753,-0.124746 0.758917,-0.183098 1.75653,-0.501866 1.02002,-0.336151 1.20498,-0.400796 1.75653,-0.645257 0.546212,-0.242107 0.701596,-0.3437 1.61314,-0.860344 0.986768,-0.574946 1.14851,-0.641402 1.64899,-1.00373 0.499003,-0.361284 0.620336,-0.465604 1.46975,-1.21882 0.76855,-0.696702 0.925035,-0.848118 1.32636,-1.29052 0.435969,-0.480589 0.513638,-0.599628 1.29052,-1.64899 -0.491743,1.31389 0.70961,3.07583 2.86781,5.52054 -2.46187,-1.86394 -4.20454,-2.92582 -5.44884,-2.50934 -0.559091,1.19884 0.259813,3.11088 1.79238,5.80732 -2.03541,-2.34212 -3.57063,-3.742 -4.87528,-3.58476 -0.801628,1.05335 -0.377388,3.09093 0.573562,6.05825 -1.50017,-2.6948 -2.683,-4.40904 -3.97909,-4.55265 -0.969688,0.880525 -0.976505,2.94973 -0.645258,6.0224 -0.942415,-2.99655 -1.77177,-4.90675 -3.04705,-5.2696 -1.16833,0.626021 -1.59113,2.68459 -1.9,5.80732 -0.306908,-3.10369 -0.747666,-5.13207 -1.9,-5.77147 -1.25721,0.385758 -2.07675,2.29837 -3.0112,5.2696 0.33154,-3.0754 0.327007,-5.17906 -0.645257,-6.05825 -1.29506,0.145624 -2.47995,1.85971 -3.97909,4.55265 0.950718,-2.9666 1.37439,-5.00467 0.573562,-6.05825 -1.30469,-0.157379 -2.80393,1.24254 -4.83943,3.58476 1.53257,-2.69644 2.35148,-4.60847 1.79238,-5.80732 -1.24431,-0.416736 -3.02265,0.64526 -5.48469,2.50934 2.1582,-2.44471 3.3954,-4.20664 2.90366,-5.52054 z"/>
</g>
</g>
</svg>
