<svg width="48" version="1.0" xmlns="http://www.w3.org/2000/svg" height="48" viewBox="0 0 48 48">
<path style="fill:#5955a9" d="m 47,24 c 0,12.8323 -10.2975,23.2349 -23,23.2349 -12.7025,0 -23,-10.4027 -23,-23.2349 0,-12.8323 10.2975,-23.2349 23,-23.2349 12.7025,0 23,10.4027 23,23.2349 z "/>
<path style="fill:#fff;fill-rule:evenodd" d="m 12.6556,39.2136 c 0,0 2.04545,0.593924 4.76819,0.933455 1.10264,0.137502 5.29798,0.618099 8.51462,0.605485 0,0 3.91757,0.0045 6.08006,-0.302741 2.2627,-0.321425 3.54461,-0.731629 4.25803,-1.55023 0.01858,-0.195184 0.344349,-0.831422 -0.535177,-1.44497 -2.24861,-1.56863 -5.15553,-1.99799 -10.8019,-3.33894 -6.24381,-1.56981 -8.10976,-3.07303 -9.04195,-4.16091 -0.883779,-1.0903 0.165895,-3.35464 5.19707,-4.46544 2.54734,-0.619892 12.0348,-0.733792 12.0348,-0.733792 -2.72188,-2.16101 -7.8319,-6.02996 -8.87642,-6.85274 -0.916086,-0.721614 -2.39232,-1.82901 -2.55102,-2.8186 -0.214071,-0.96332 1.30226,-1.42715 2.10503,-1.48066 2.5867,-0.178392 6.11886,0.124876 9.25857,0.74925 1.57819,0.313846 1.85529,0.26759 1.85529,0.26759 2.24775,0.107035 3.996,-1.07035 3.90678,-3.55002 -0.01784,-2.51533 -2.53272,-4.53227 -5.31609,-4.62036 -2.62112,-0.082965 -9.08017,0.374625 -9.08017,0.374625 7.52816,1.55202 8.75884,1.94808 9.15153,2.85429 0.23191,0.535179 -0.387391,1.06728 -2.46182,0.96332 -2.2584,-0.113183 -6.88595,-0.660052 -6.88595,-0.660052 -4.40629,-0.677891 -7.47464,-1.3201 -8.81259,0.428143 -0.874095,1.14216 0.124876,2.53317 0.517338,3.35378 1.74825,3.05052 4.77131,5.14339 6.68971,6.61837 0.721816,0.554971 2.92563,1.78392 2.92563,1.78392 -6.85026,-1.87313 -12.309,-0.820608 -15.7699,1 -3.97816,2.35479 -3.29765,6.3285 3.01484,10.0435 3.7284,2.19423 5.58478,3.24833 11.6893,3.99779 3.5682,0.568953 4.09989,0.801752 4.07278,1.09875 -0.03818,0.418148 -4.22331,0.576608 -5.37367,0.655943 -2.92651,0.201827 -10.495,0.252284 -10.5329,0.252284 z "/>
<path style="fill:#aaa" d="m 46.1432,11.6399 c -0.330369,-0.293658 -0.790846,-0.35248 -0.995813,-0.12161 l -.4639,.5214 c -0.177954,-0.13039 -0.389611,-0.135061 -0.495289,-0.01602 l -9.9924,11.2796 c -0.115283,0.12987 0.07733,0.493579 0.263177,0.658749 l 2.4149,2.106 c 0.185822,0.165189 0.548528,0.338273 0.663819,0.20841 l 10.0161,-11.2585 c 0.115284,-0.129872 0.06488,-0.367061 -0.120963,-0.532232 l .4639,-.5214 c 0.204989,-0.230845 0.09369,-0.681252 -0.236698,-0.974889 l -1.5169,-1.3495 z "/>
<path style="fill:#c8c8c8" d="m 21.856,38.2013 -4.4619,3.342 c 0.184632,0.772019 -0.153122,2.12736 -0.744245,3.40447 l 2.2393,-2.5127 c -0.143103,-0.203266 -0.199165,-0.448393 -0.07429,-0.589049 0.156445,-0.17628 0.484903,-0.128934 0.737142,0.09524 0.25224,0.224149 0.347928,0.551376 0.19144,0.727639 -0.124879,0.140654 -0.374413,0.118261 -0.593041,0 l -2.3482,2.6344 -.308,.0866 .0246,-.1212 c -0.0449,0.08975 -0.08592,0.180497 -0.133087,0.268557 2.23198,-0.819598 3.48617,-1.10755 4.95513,-0.502829 l 2.7359,-4.9107 -2.2204,-1.9221 z "/>
<path style="fill:#8c8c8c" d="m 42.0367,12.1984 -7.8069,8.8002 -1.2601,1.4226 -.0982,.1091 .3307,.3011 c 0.370925,0.329612 0.994856,0.214646 1.39751,-0.238917 0.323936,-0.364692 0.409156,-0.832072 0.235142,-1.17849 l 3.841,-3.3852 4.1564,-4.709 c -0.185578,-0.164972 -0.232589,-0.4 -0.117543,-0.529547 l -.678,-.5917 z "/>
<path style="fill:#363636" d="m 34.4724,23.9536 c -0.256111,-0.227594 -0.555733,-0.351141 -0.695886,-0.198603 l -5.5389,6.0285 -6.4584,7.9511 c -0.115286,0.129873 -0.05829,0.368173 0.127546,0.53335 l 2.0157,1.7916 c 0.185827,0.165193 0.429097,0.193684 0.544386,0.06382 l 7.1303,-7.3539 5.539,-6.0284 c 0.125522,-0.136669 -0.01578,-0.434166 -0.279469,-0.668506 z "/>
</svg>
