<svg width="48" version="1.0" xmlns="http://www.w3.org/2000/svg" height="48" viewBox="0.171 0.201 512 512">
<g style="stroke-width:0" id="g4200" transform="matrix(1.038573,0,0,1.038573,9.9886128,7.6181242)">
<path style="fill:#5955a9;stroke:#7b0000;fill-opacity:.992" id="path4864" d="m 277.1966,7.9852 c 0,157.045 -119.435,284.354 -266.765,284.354 -147.33,0 -266.765,-127.31 -266.765,-284.354 0,-157.045 119.435,-284.354 266.765,-284.354 147.33,0 266.765,127.31 266.765,284.354 z " transform="matrix(0.8855031,0,0,0.8392166,227.80221,232.6491)"/>
<path style="fill:#fff;fill-rule:evenodd;stroke:#000" id="path4839" d="m 120.5273,395.6018 c 0,0 21.0078,6.09989 48.9717,9.58704 11.3247,1.41221 54.4129,6.34818 87.4494,6.21863 0,0 40.2355,0.0457 62.4453,-3.10931 23.239,-3.30118 36.4049,-7.51418 43.7321,-15.9217 0.19087,-2.00464 3.53663,-8.53911 -5.49654,-14.8406 -23.0943,-16.1106 -52.95,-20.5204 -110.941,-34.2925 -64.127,-16.1227 -83.2913,-31.5615 -92.8653,-42.7346 -9.07685,-11.1979 1.70382,-34.4538 53.3765,-45.8623 26.1624,-6.36659 123.603,-7.5364 123.603,-7.5364 -27.955,-22.1947 -80.4376,-61.9307 -91.1653,-70.381 -9.40866,-7.41134 -24.5703,-18.7848 -26.2002,-28.9484 -2.19861,-9.89378 13.3749,-14.6575 21.6197,-15.2071 26.5666,-1.83218 62.8438,1.28253 95.0901,7.69516 16.2088,3.22335 19.0547,2.74827 19.0547,2.74827 23.0855,1.09931 41.0408,-10.9931 40.1247,-36.4604 -0.18322,-25.8337 -26.0123,-46.5486 -54.599,-47.4534 -26.9202,-0.852094 -93.2579,3.84758 -93.2579,3.84758 77.318,15.94 89.9577,20.0077 93.9908,29.3149 2.38183,5.49654 -3.9787,10.9615 -25.2841,9.89377 -23.1949,-1.16245 -70.7221,-6.77906 -70.7221,-6.77906 -45.2548,-6.96228 -76.7683,-13.5581 -90.5097,4.39723 -8.97739,11.7305 1.28253,26.0169 5.31332,34.445 17.9554,31.3303 49.0038,52.8252 68.7067,67.9739 7.41341,5.69982 30.0477,18.3218 30.0477,18.3218 -70.3557,-19.2379 -126.42,-8.42803 -161.965,10.2602 -40.8576,24.1848 -33.8685,64.9968 30.9638,103.152 38.2925,22.5358 57.3585,33.3619 120.055,41.0592 36.6472,5.84342 42.1079,8.23438 41.8294,11.2847 -0.39214,4.29458 -43.3756,5.92204 -55.1903,6.73685 -30.0567,2.07287 -107.789,2.59109 -108.178,2.59109 z "/>
</g>
<g id="g4177">
<path style="fill:#aaa;stroke:none" id="rect3256" d="m 492.3658,124.361 c -3.52394,-3.13235 -8.43569,-3.75979 -10.622,-1.29718 l -4.9483,5.5621 c -1.89817,-1.39083 -4.15584,-1.44065 -5.28307,-0.17085 l -106.5857,120.3152 c -1.22969,1.38528 0.82482,5.26484 2.80722,7.02665 l 25.7591,22.4643 c 1.9821,1.76201 5.85095,3.60824 7.08072,2.22304 l 106.8382,-120.0907 c 1.2297,-1.38529 0.6921,-3.91531 -1.29028,-5.67713 l 4.9483,-5.5621 c 2.18655,-2.46235 0.99941,-7.26668 -2.52477,-10.3988 l -16.1805,-14.395 Z "/>
<path style="fill:#c8c8c8;stroke:none;stroke-width:.2" id="rect3264" d="m 233.3023,407.6825 -47.5934,35.6478 c 1.9694,8.23486 -1.63331,22.6918 -7.93861,36.3143 l 23.886,-26.8017 c -1.52643,-2.16817 -2.12442,-4.78285 -0.7924,-6.28318 1.66874,-1.88032 5.1723,-1.3753 7.86284,1.01587 2.69056,2.39092 3.71123,5.88133 2.04203,7.76147 -1.33204,1.50031 -3.99374,1.26145 -6.32576,0.00047 l -25.0473,28.1005 -3.2855,.9236 .2619,-1.2931 c -0.47892,0.95733 -0.91643,1.9253 -1.4196,2.86461 23.8078,-8.74237 37.1858,-11.8138 52.8548,-5.36351 l 29.1833,-52.3804 -23.6842,-20.502 z "/>
<path style="fill:#8c8c8c;stroke:none" id="path3619" d="m 448.5623,130.3184 -83.2733,93.8684 -13.4406,15.1745 -1.0476,1.1638 3.5271,3.2118 c 3.95654,3.51585 10.6118,2.28955 14.9068,-2.54845 3.45532,-3.89004 4.36433,-8.87542 2.50818,-12.5705 l 40.9704,-36.1083 44.3351,-50.2288 c -1.97949,-1.75969 -2.48094,-4.26621 -1.25379,-5.64849 l -7.2317,-6.3119 z "/>
<path style="fill:#363636;stroke:none" id="path3811" d="m 367.8767,255.7064 c -2.73185,-2.42766 -5.92782,-3.74549 -7.42278,-2.11843 l -59.0816,64.3037 -68.8896,84.8116 c -1.22971,1.38531 -0.62176,3.92717 1.3605,5.68905 l 21.5005,19.1104 c 1.98216,1.76206 4.57703,2.06596 5.80679,0.68077 l 76.0565,-78.4414 59.0824,-64.303 c 1.3389,-1.4578 -0.16834,-4.6311 -2.981,-7.13072 z "/>
</g>
</svg>
