<svg width="48" version="1.1" xmlns="http://www.w3.org/2000/svg" height="48">
<g style="fill-rule:evenodd;stroke:#003bc3;stroke-linecap:square;stroke-width:0;stroke-miterlimit:2" id="g863" transform="matrix(0.98137257,0,0,0.98141773,0.72233333,0.72140937)">
<path style="fill:#468c00" id="path847" d="m 1.3019,28.5647 0.348,16.2466 1.2582,1.3246 h 41.6118 l 1.6172,-1.7744 V 2.7639 L 44.7811,1.5802 28.6881,1.3028 Z"/>
<g style="fill:#fff" id="g9">
<path style="opacity:.65" id="path822" d="M 28.9719,3 22.9222,9.0051 33.1784,13.8954 43.1135,3.3473 Z"/>
<path style="opacity:.6" id="path820" d="M 44.4003,4.5307 34.5694,14.9744 44.6521,42.8765 Z"/>
<path style="opacity:.5" id="path818" d="M 21.6361,10.3448 10.2842,21.6074 15.1689,31.876 31.8401,15.235 Z"/>
<path style="opacity:.45" id="path816" d="M 33.231,16.314 16.4033,33.2161 43.4526,43.5031 Z"/>
<path style="opacity:.35" id="path814" d="M 8.9454,22.8951 3.0001,28.848 3.3475,43.1124 13.8822,33.1641 Z"/>
<path style="opacity:.25" id="shape0" d="M 15.0644,34.5563 4.6339,44.4004 43.0354,44.652 Z"/>
</g>
</g>
</svg>
