<svg width="48" version="1.1" xmlns="http://www.w3.org/2000/svg" height="48">
<g style="stroke:none;fill-rule:evenodd" id="g4">
<path style="fill:#468c00" id="path2188" d="M 1.4867,43.4027 16.2859,5.7353 24.2855,1.1821 32.9517,5.8733 44.6844,20.3608 46.2843,34.5723 41.3512,40.9192 1.4866,43.4028 Z"/>
<g style="fill:#fff" id="g7">
<path style="opacity:.75" id="path3777" d="m 2.5207,42.4481 13.8206,-20.3518 -.8609,-11.5928 Z "/>
<path style="opacity:.5" id="path3779" d="m 3.7059,41.9482 13.063,-17.7706 8.0688,11.3643 Z "/>
<path style="opacity:.35" id="path3781" d="m 2.7253,42.758 23.0738,-5.8695 6.6323,3.6019 z "/>
<path style="opacity:.35" id="path3783" d="m 35.5596,40.4422 -7.5478,-4.0609 6.3878,-9.1095 5.2056,2.1711 -.0454,10.5949 z "/>
<path style="opacity:.5" id="path3785" d="m 26.8223,35.1258 -8.6251,-11.8482 8.8688,-6.4889 5.8637,10.0722 -6.1076,8.2649 z "/>
<path style="opacity:.7" id="path3787" d="m 17.7347,21.4755 8.8543,-6.3562 .6969,-7.571 -10.7335,.0971 z "/>
<path style="opacity:.75" id="path3789" d="m 16.9119,6.4147 7.4185,-4.115 8.3516,4.4254 -4.3219,-.4225 Z "/>
<path style="opacity:.5" id="path3791" d="m 33.4079,7.9633 9.2447,11.7373 -2.824,7.9765 -5.6529,-2.2131 -5.8423,-10.3255 .5075,-7.5043 Z "/>
<path style="opacity:.35" id="path3793" d="m 43.5832,20.5629 1.4265,13.7031 -4.3012,5.4853 .1582,-11.0824 z "/>
</g>
</g>
</svg>
