<svg width="96" version="1.0" xmlns="http://www.w3.org/2000/svg" height="96">
<g style="stroke:none">
<path style="fill:#747474" id="rect2419" d="m 12,6 72,0 c 3.324,0 6,2.676 6,6 v 72 c 0,3.324 -2.676,6 -6,6 h -72 c -3.324,0 -6,-2.676 -6,-6 v -72 c 0,-3.324 2.676,-6 6,-6 Z "/>
<g style="fill-rule:evenodd">
<path style="fill:#323232" id="path3412" d="m 73,48 a 25,25 0 0 1 -50,0 25,25 0 1 1 50,0 z"/>
<path style="opacity:.6;fill:#4e4e4e" id="path3947" d="M 68.7846,36 C 62.15718,24.521 47.479,20.588 36,27.21539 c -11.479,6.62742 -15.412,21.3056 -8.78461,32.7846 6.62742,11.479 21.3056,15.412 32.7846,8.78461 C 71.47899,62.15718 75.41199,47.479 68.7846,36 Z m -3.4641,2 c 5.52285,9.56585 2.24534,21.7977 -7.32051,27.3205 -9.56585,5.52285 -21.7977,2.24534 -27.3205,-7.32051 C 25.15664,48.43414 28.43415,36.20229 38,30.67949 47.56585,25.15664 59.7977,28.43415 65.3205,38 Z"/>
</g>
</g>
<path style="fill:#d7991e;fill-rule:evenodd;stroke:#c2c2c2;stroke-linejoin:round;stroke-width:2" id="path3493" d="m 65.5254,48 a 17.5254,17.5254 0 0 1 -35.0508,0 17.5254,17.5254 0 1 1 35.0508,0 z"/>
<g style="stroke:none" id="g27">
<path style="fill:#333;fill-rule:evenodd" id="path3540" d="m 55,48 a 7,7 0 0 1 -14,0 7,7 0 1 1 14,0 z"/>
<path style="fill:#a1a1a1" id="path4079" d="m 80.0001,85 a 6.0001,6.0001 0 1 1 0,-12.0002 6.0001,6.0001 0 0 1 0,12.0002 z"/>
<path style="opacity:.6" id="path4093" d="m 80.0001,73.9999 a 5,5 0 1 0 0,10 5,5 0 0 0 0,-10 z"/>
<path style="fill:#bababa" id="path4081" d="m 80.0001,74.4999 a 4.5,4.5 0 1 0 0,9 4.5,4.5 0 0 0 0,-9 z"/>
<path style="opacity:.8;fill:#1a1a1a" id="path4097" d="m 80.0001,81.9998 a 2.99991,2.99991 0 1 1 0,-5.99981 2.99991,2.99991 0 1 1 0,5.99981 z"/>
</g>
<path style="stroke-opacity:.532;fill:#9af06e;stroke:#000;stroke-linecap:square;stroke-width:.999" id="path4121" d="m 84.9822,67.5089 a 2.49108,2.49107 0 1,1 -4.98214,0 2.49108,2.49107 0 1,1 4.98214,0 z "/>
<g style="stroke:none;fill-rule:evenodd;fill:#ecf0f1">
<path id="path4145" d="m 47.8826,8.6955 c 0.505962,5.11655 1.2547,8.48714 3.17019,9.51058 2.08718,-0.595961 3.44732,-3.72442 4.99012,-8.62996 -0.542522,5.03249 -0.531671,8.421 1.05673,9.86282 2.12231,-0.235711 4.05998,-3.04307 6.51651,-7.45582 -1.55736,4.85955 -2.25213,8.19648 -0.939318,9.92153 2.13625,0.256133 4.59298,-2.03604 7.92548,-5.87072 -2.50987,4.41593 -3.85099,7.54724 -2.93536,9.51058 2.03778,0.682077 4.95044,-1.05696 8.98222,-4.10952 -3.53446,4.00368 -5.56061,6.88917 -4.75529,9.04093 -1.27228,-1.71852 -1.39949,-1.91348 -2.11345,-2.70053 -0.659663,-0.727164 -0.842197,-0.961292 -2.11347,-2.11347 -1.37748,-1.22125 -1.65144,-1.40652 -2.4657,-1.99605 -0.836345,-0.605494 -1.0502,-0.707838 -2.75924,-1.70251 -1.40802,-0.796788 -1.70796,-0.962355 -2.58313,-1.35027 -0.916991,-0.406427 -1.19458,-0.542545 -2.93536,-1.11544 -1.56506,-0.499264 -1.87712,-0.562133 -2.81795,-0.763194 -0.955109,-0.2041 -1.23681,-0.279069 -2.93536,-0.469658 -1.94893,-0.195825 -2.26155,-0.176122 -3.28761,-0.176122 -0.982563,0 -1.26302,0.0041 -2.99407,0.176122 -1.81991,0.2029 -2.13188,0.260329 -3.11148,0.469658 -0.98666,0.210849 -1.21403,0.251444 -2.99407,0.821902 -1.53132,0.506296 -1.88454,0.669047 -2.75924,1.05673 -0.913891,0.40508 -1.17743,0.51119 -2.75924,1.40898 -1.52091,0.887367 -1.78138,1.06338 -2.58313,1.6438 -0.801963,0.580629 -1.02636,0.766309 -2.3483,1.93734 -1.32705,1.20166 -1.56079,1.43351 -2.23088,2.17216 -0.713973,0.787059 -0.841182,0.923295 -2.11345,2.64182 0.805315,-2.15174 -1.16212,-4.97854 -4.69658,-8.98222 4.03206,3.05278 6.88571,4.79199 8.9235,4.10952 0.915618,-1.96334 -0.425498,-5.09465 -2.93536,-9.51058 3.33455,3.83704 5.84707,6.13018 7.98419,5.87072 1.31054,-1.7257 0.617376,-5.06406 -0.939316,-9.92153 2.45511,4.4102 4.39562,7.21736 6.51651,7.45582 1.59227,-1.43985 1.59969,-4.885 1.05673,-9.92153 1.5308,4.86742 2.87146,7.99952 4.93141,8.62996 1.88495,-1.04887 2.55041,-4.37148 3.05278,-9.45187 z "/>
<path id="path1306" d="m 24.1062,65.5241 c 1.27228,1.71852 1.39948,1.91348 2.11345,2.70053 0.670084,0.738657 0.845114,0.970501 2.17216,2.17217 1.32193,1.17103 1.60504,1.35672 2.40699,1.93734 0.787687,0.570268 1.01622,0.738406 2.4657,1.5851 1.6598,0.94303 1.94651,1.0554 2.87665,1.46768 0.881111,0.390526 1.19754,0.540789 2.75924,1.05673 1.7452,0.55893 2.01452,0.612571 2.99407,0.821902 0.976536,0.208692 1.24847,0.268345 3.05278,0.469658 1.74981,0.174074 2.0663,0.176122 3.05278,0.176122 1.02597,0 1.28042,0.01969 3.2289,-0.176122 1.69856,-0.190588 2.03896,-0.265548 2.99407,-0.469658 0.956006,-0.2043 1.24287,-0.29986 2.87665,-0.821902 1.67048,-0.550511 1.97337,-0.65638 2.87665,-1.05673 0.894526,-0.396494 1.149,-0.562872 2.64182,-1.40897 1.61602,-0.941583 1.8809,-1.05042 2.70053,-1.6438 0.817212,-0.59167 1.01592,-0.762512 2.40699,-1.99605 1.25864,-1.14098 1.51492,-1.38895 2.17217,-2.11347 0.71398,-0.787055 0.841178,-0.982004 2.11345,-2.70053 -0.805322,2.15174 1.16212,5.03725 4.69658,9.04093 -4.03178,-3.05255 -6.88574,-4.79158 -8.9235,-4.10952 -0.915617,1.96333 0.425495,5.09465 2.93536,9.51058 -3.33337,-3.83566 -5.84758,-6.12823 -7.98419,-5.87072 -1.31282,1.72506 -0.618044,5.06198 0.939316,9.92153 -2.45679,-4.41324 -4.39392,-7.22064 -6.51651,-7.45582 -1.58805,1.44203 -1.59921,4.83074 -1.05673,9.86282 -1.54338,-4.90742 -2.90161,-8.03573 -4.99012,-8.62996 -1.91336,1.02523 -2.60578,4.39652 -3.11149,9.51058 -0.502618,-5.08289 -1.22445,-8.40475 -3.11148,-9.45187 -2.05892,0.631754 -3.40107,3.76401 -4.93141,8.62996 0.542958,-5.03655 0.535534,-8.48169 -1.05673,-9.92153 -2.12091,0.238489 -4.06139,3.04563 -6.51651,7.45582 1.55698,-4.85837 2.25082,-8.19609 0.939318,-9.92153 -2.13668,-0.257738 -4.59197,2.03489 -7.92548,5.87072 2.50987,-4.41593 3.85099,-7.54724 2.93536,-9.51058 -2.03779,-0.682484 -4.95016,1.05674 -8.98222,4.10952 3.53446,-4.00367 5.56061,-6.88917 4.75529,-9.04093 z "/>
<path style="stroke-linecap:round;stroke-width:3" id="path4193" d="m 48,20.9782 a 27.0219,27.0219 0 0,0 -27.0219,27.0219 27.0219,27.0219 0 0,0 27.0219,27.0219 27.0219,27.0219 0 0,0 27.0219,-27.0219 27.0219,27.0219 0 0,0 -27.0219,-27.0219 Z  m 0,4.9131 a 22.1088,22.1088 0 0,1 22.1088,22.1088 22.1088,22.1088 0 0,1 -22.1088,22.1088 22.1088,22.1088 0 0,1 -22.1088,-22.1088 22.1088,22.1088 0 0,1 22.1088,-22.1088 Z "/>
</g>
</svg>
