<svg width="48" version="1.0" xmlns="http://www.w3.org/2000/svg" height="48" xmlns:xlink="http://www.w3.org/1999/xlink">
<defs>
<linearGradient id="linearGradient5737">
<stop offset="0" style="stop-color:#b5b8b0"/>
<stop offset="1" style="stop-color:#e6e7e5"/>
</linearGradient>
<linearGradient id="linearGradient6832">
<stop offset="0" style="stop-color:#666864"/>
<stop offset="1" style="stop-color:#999c96"/>
</linearGradient>
<linearGradient id="linearGradient5656">
<stop offset="0" style="stop-color:#34577f"/>
<stop offset="1" style="stop-color:#729fcf"/>
</linearGradient>
<linearGradient id="linearGradient5491">
<stop offset="0" style="stop-color:#666864"/>
<stop offset="0.25" style="stop-color:#838681"/>
<stop offset="0.62437075" style="stop-color:#abaca9"/>
<stop offset="0.79695714" style="stop-color:#fff"/>
<stop offset="1" style="stop-color:#90928d"/>
</linearGradient>
<linearGradient gradientTransform="matrix(1.2759582,0,0,1.6501669,-18.026874,-10.093603)" xlink:href="#linearGradient6832" id="linearGradient6838" y1="11.5" x1="23.5" y2="7.4999967" x2="23.5" gradientUnits="userSpaceOnUse"/>
<linearGradient xlink:href="#linearGradient5737" id="linearGradient4205" y1="4.387" x1="2" y2="31.127243" x2="2" gradientUnits="userSpaceOnUse"/>
<linearGradient gradientTransform="matrix(1,0,0,1.0247057,0,-0.44154142)" xlink:href="#linearGradient5491" id="linearGradient4183" y1="39.872051" x1="5" y2="19.918289" x2="5" gradientUnits="userSpaceOnUse"/>
<linearGradient gradientTransform="matrix(0.80952381,0,0,0.96098627,4.5714285,2.237558)" xlink:href="#linearGradient5656" id="linearGradient4195" y1="39.872051" x1="3" y2="26.114115" x2="3" gradientUnits="userSpaceOnUse"/>
</defs>
<path style="opacity:.5;color:#000" d="m 3.7357,3.8318 c -1.41012,0 -2.21425,0.667249 -2.21423,2.21465 l 0,24.2616 c 0,1.99644 2.95233,1.99644 2.95231,0 l 0,-23.5239 h 39.0461 l 0,23.5239 c 0,1.99644 2.95233,1.99644 2.95231,0 l 0,-24.2616 C 46.472177,4.51935 45.849771,3.8318 44.25796,3.8318 Z"/>
<rect width="38" x="5" y="17.872051" height="22.543526" style="fill:url(#linearGradient4183)"/>
<rect width="34" x="7" y="27.332865" height="13.221188" style="fill:url(#linearGradient4195)"/>
<path style="color:#000;fill:url(#linearGradient4205)" d="M 3.5,4.3867 C 2.544737,4.3867 2,4.838718 2,5.88698 v 24.2263 c 0,1.35246 2,1.35246 2,0 V 6.38668 h 40 v 23.7266 c 0,1.35246 2,1.35246 2,0 V 5.88698 C 46,4.85247 45.578351,4.3867 44.5,4.3867 Z"/>
<rect width="24.083712" x="11.958144" y="2.2826433" rx="3" ry="3.3003" height="6.600666" style="fill:url(#linearGradient6838);color:#000"/>
</svg>
