<svg width="48" version="1.1" xmlns="http://www.w3.org/2000/svg" height="48">
<g id="layer1" transform="matrix(1.0435398,0,0,1.0435398,954.3299,-1066.2792)">
<path style="fill:#a05f00" id="path4166" d="m -882.0837,1021.8083 c -0.0922,-0.025 -0.176,-0.022 -0.25883,0 -0.0768,0.024 0.217,0.4621 0.68451,1.061 0.44309,0.5675 0.69198,0.9969 0.75296,1.1294 -0.0521,-0.029 -0.20022,-0.1789 -0.47916,-0.5134 -0.50042,-0.5999 -1.30846,-1.0932 -1.74763,-1.0952 -0.33989,0 -0.31535,0.2843 0.0342,0.4792 0.42613,0.2375 1.39051,1.1254 1.54229,1.4375 0.10995,0.2261 0.0859,0.229 -0.20536,-0.068 -0.59656,-0.6107 -1.96622,-1.1783 -2.15833,-0.8899 -0.0372,0.056 0.26759,0.2899 0.65028,0.5134 0.99144,0.5791 1.14343,0.7409 1.40538,1.2685 0.36113,0.7275 0.28536,0.753 -0.92623,0.753 -0.68466,0 -1.0669,0.055 -1.16366,0.1369 -0.22132,0.1895 -0.12906,0.2321 0.82141,0.3422 0.5871,0.068 1.10108,0.202 1.54228,0.4107 0.36892,0.1747 0.82446,0.3044 1.06099,0.308 0.39452,0.011 0.43509,0.067 0.82141,0.6846 0.44271,0.708 1.25199,2.621 1.64281,3.799 0.34722,1.0463 0.77437,2.3074 0.65029,3.2535 -0.0982,0.7497 -0.38426,1.1829 -0.95831,2.0193 -1.53675,2.2392 -4.10879,4.2232 -7.29215,6.3681 -1.61075,1.0852 -3.83395,2.631 -5.91243,2.907 -2.07849,0.276 -3.80144,-0.4763 -6.13704,-1.5722 -2.33561,-1.096 -5.14369,-3.0696 -6.77877,-4.9991 -0.58471,-0.69 -0.88979,-1.2858 -1.02676,-1.8139 -0.24621,-0.9494 -0.0811,-1.5725 0.30803,-2.7038 0.43804,-1.2735 1.68596,-4.0881 2.1562,-4.8964 0.41037,-0.7059 0.46233,-0.7636 0.85563,-0.8556 0.23574,-0.053 0.7206,-0.2948 1.09522,-0.5476 0.44803,-0.3023 0.95266,-0.529 1.54014,-0.7188 0.9511,-0.3073 1.06819,-0.367 0.85563,-0.5133 -0.0929,-0.064 -0.48181,-0.039 -1.16366,0.1026 -1.2066,0.2497 -1.27968,0.2294 -0.88986,-0.5818 0.28273,-0.5882 0.46034,-0.7837 1.47169,-1.5744 0.39038,-0.3052 0.65081,-0.601 0.61606,-0.6503 -0.17936,-0.2525 -1.53677,0.5934 -2.1562,1.3348 -0.30246,0.3619 -0.32423,0.3885 -0.20535,0.1369 0.16409,-0.3474 1.14014,-1.4513 1.57436,-1.7797 0.35639,-0.2693 0.37265,-0.5514 0.0342,-0.4813 -0.43738,0.092 -1.22227,0.7631 -1.74549,1.4739 -0.27738,0.3767 -0.4513,0.5644 -0.51339,0.616 0.0642,-0.1487 0.3224,-0.6344 0.78719,-1.3006 0.49042,-0.7029 0.79406,-1.2233 0.71873,-1.2342 -0.32565,-0.037 -0.65109,0.3005 -1.47169,1.4054 -0.48484,0.6528 -0.91892,1.1379 -0.92408,1.0952 -0.005,-0.043 0.17367,-0.3829 0.37647,-0.753 0.4596,-0.8389 0.5545,-1.1532 0.27381,-1.0952 -0.44133,0.091 -1.56629,2.0337 -1.98507,3.491 -0.13599,0.4732 -0.76917,1.7291 -1.19789,2.6354 -1.23788,2.523 -1.99781,4.3571 -2.6375,6.8472 -0.31939,1.2433 0.35913,2.1142 0.72088,2.6696 1.52119,2.3346 5.64358,5.6962 8.52425,7.121 0.57126,0.2825 1.05836,0.5268 1.06099,0.5476 0.77921,0.4946 1.25461,0.7343 1.57437,0.7872 -0.007,0.1707 -0.0481,0.3635 -0.10268,0.5155 -0.37963,1.4097 -0.69249,5.3233 -0.5476,6.7082 0.10228,0.9751 0.18832,1.756 0.65883,2.1626 -1.69072,-1.0303 -3.83484,-1.6371 -4.97337,-1.5124 v -0.034 c -0.4296,0.047 -0.7388,0.1944 -0.92409,0.4449 -0.69198,0.9361 0.20452,1.7458 4.55412,4.1435 l 1.8139,.9925 .5134,-.1369 c 0.28912,-0.082 0.63747,-0.1951 0.75296,-0.2396 0.18931,-0.073 0.16629,-0.065 -0.0685,0.1711 -0.35176,0.3537 -0.98889,0.606 -2.53268,0.9926 -1.45069,0.3633 -1.98274,0.6043 -2.56904,1.1979 -0.58781,0.5953 -0.71219,1.3667 -0.2738,1.677 0.20598,0.1457 0.56402,0.081 0.58183,-0.1027 0.0254,-0.2639 0.43581,-1.024 0.7551,-1.369 0.33457,-0.3614 0.37027,-0.3025 0.0685,0.2054 -0.12339,0.2076 -0.29404,0.5538 -0.37648,0.7871 -0.20604,0.583 -0.0449,1.1781 0.4107,1.4033 0.55755,0.2755 0.6333,0.2327 0.68451,-0.3765 0.0472,-0.5616 0.38414,-1.424 0.58183,-1.5401 0.076,-0.045 0.0992,0.011 0.0342,0.1711 -0.18345,0.4604 -0.32613,1.4962 -0.23958,1.8482 0.0507,0.2062 0.19761,0.3763 0.34225,0.4449 0.32558,0.1542 0.86216,0.1601 1.09522,0 0.17284,-0.1189 0.14997,-0.1665 0.0342,-0.5134 -0.069,-0.2065 -0.0655,-0.5948 -0.0342,-0.8898 l .0342,-.5477 .0684,.4792 c 0.0555,0.6609 0.40106,1.3616 0.78719,1.5401 0.42612,0.1972 1.10241,0.1565 1.16366,-0.066 0.0256,-0.093 -0.0496,-0.3766 -0.20535,-0.6182 -0.25085,-0.3892 -0.28297,-0.487 -0.20536,-0.9583 0.1092,-0.6631 0.27203,-0.7926 1.23212,-1.2321 1.05868,-0.4848 1.49354,-0.8918 1.43746,-1.2321 -0.11664,-0.7075 -1.75654,-2.5724 -2.80648,-3.2172 -0.95372,-0.5859 -2.50243,-1.2495 -5.20439,-2.261 -0.0812,-0.031 0.11227,-0.064 0.41284,-0.066 0.63804,-0.011 2.44482,0.4865 3.74554,1.1209 l 1.1038,.7016 c 0.58265,0.4713 1.17419,0.9555 1.31554,1.0717 0.26703,0.2195 1.09093,0.9818 1.09093,0.9818 l .6845,.4706 .9605,-.034 c 0.56399,-0.03 1.06964,-0.1116 1.26634,-0.2054 0.23457,-0.1119 0.63928,-0.5735 1.43746,-1.6086 1.30533,-1.6928 2.72191,-3.1888 4.41508,-4.6567 1.1412,-0.9895 2.48247,-1.9509 2.70594,-1.9509 0.0566,0 -0.5861,0.5943 -1.40324,1.3348 -1.9298,1.7485 -2.65425,2.478 -4.17764,4.1434 -2.52962,2.7655 -3.71338,4.3087 -3.83324,5.0311 -0.0603,0.3641 0.31375,0.8373 0.82141,1.0289 0.76459,0.2887 0.9007,0.3887 0.99254,0.753 0.12174,0.4828 -0.0463,1.0155 -0.51338,1.5401 -0.45283,0.5085 -0.46331,0.6301 -0.0684,0.7188 0.1572,0.035 0.29994,0.061 0.30802,0.068 0.008,0.011 0.21337,-0.066 0.47916,-0.1711 0.57525,-0.2302 1.0118,-0.7262 1.33479,-1.5423 l .2053,-.5476 -.1369,.6867 c -0.0889,0.4 -0.25653,0.778 -0.37648,0.924 -0.19291,0.2351 -0.16793,0.2779 0,0.3765 0.31921,0.1875 0.9343,0.113 1.26634,-0.1369 0.24802,-0.1867 0.3501,-0.3527 0.47916,-0.8556 0.0952,-0.3711 0.14005,-0.7685 0.10267,-0.9947 -0.0341,-0.2074 -0.0383,-0.4122 0,-0.4449 0.15002,-0.1288 0.28884,0.7604 0.20535,1.3369 -0.0843,0.5827 -0.0855,0.6193 0.17113,0.6503 0.19856,0.024 0.38053,-0.047 0.68451,-0.308 0.54205,-0.465 0.62275,-0.9714 0.34225,-1.8846 -0.10972,-0.3572 -0.13934,-0.6158 -0.0684,-0.5476 0.24961,0.2402 0.61171,1.125 0.58183,1.4375 -0.0253,0.264 -0.007,0.3092 0.20535,0.308 0.35173,0 0.53225,-0.097 0.68665,-0.4449 0.46989,-1.056 -0.87163,-2.3455 -2.74017,-2.6011 -1.49943,-0.2053 -1.89487,-0.2815 -2.25887,-0.445 -0.47617,-0.2137 -0.40103,-0.2926 0.20535,-0.1711 l .5134,.1027 1.0268,-.9241 c 4.0017,-3.5198 7.2027,-7.3656 7.4975,-9.0034 0.085,-0.4727 0.0761,-0.5732 -0.1369,-0.7872 -0.13439,-0.1349 -0.38957,-0.2396 -0.54761,-0.2396 -0.38764,0 -1.84316,0.6764 -2.77225,1.3006 -0.87134,0.5856 -2.50407,2.0147 -3.35623,2.9434 -0.32191,0.3508 -0.558,0.576 -0.54761,0.5133 0.01,-0.062 0.27709,-0.4683 0.58183,-0.924 l .5476,-.8215 -.0684,-.6845 c -0.12737,-1.2418 -0.96062,-4.3988 -1.71127,-6.4707 -0.22762,-0.6283 -0.41407,-1.1776 -0.4107,-1.1979 0.003,-0.021 0.47075,-0.3539 1.06098,-0.7529 2.97642,-2.0125 7.28086,-6.0211 8.86652,-8.627 0.69528,-1.1426 1.05299,-1.8225 0.92408,-3.0118 -0.26448,-2.44 -1.79532,-4.7802 -2.5669,-6.3681 -0.39659,-0.8143 -0.84025,-1.8498 -0.95831,-2.2931 -0.36368,-1.365 -1.37075,-3.0824 -1.81395,-3.0824 -0.28184,0 -0.22531,0.3202 0.20535,1.061 0.19006,0.3267 0.34952,0.6066 0.34226,0.6503 -0.008,0.044 -0.39168,-0.3397 -0.85564,-0.8899 -0.58891,-0.6984 -0.93628,-1.0243 -1.21286,-1.0995 z "/>
<path style="fill:#dc8300" id="path4158" d="m -886.9895,1030.7038 c -0.52068,0.1469 -1.17591,0.7713 -1.32899,1.165 l -.1203,.3366 -.4266,-.3651 c -0.22521,-0.2049 -0.73457,-0.5508 -1.15924,-0.7801 -0.68591,-0.3706 -1.35425,-0.6498 -2.2826,-0.6709 -1.37326,-0.031 -2.65154,0.3533 -4.07559,1.6427 l -.9351,.8426 -.3312,-.2228 c -0.22475,-0.1537 -0.66721,-0.2964 -1.11215,-0.3198 -0.56937,-0.03 -1.20578,0.2655 -1.49937,0.4863 -0.81154,0.6104 -0.74138,1.7621 -0.27063,2.4542 0.54264,0.7981 1.76556,0.847 2.72414,0.422 0.3374,-0.1496 0.61739,-0.2757 0.63139,-0.2757 0.0139,0.0001 0.02,0.2559 0.005,0.5488 -0.0243,0.4877 0.1119,1.6252 0.2387,2.0006 0.0366,0.1085 -0.24165,0.2587 -0.3974,0.3908 -1.11999,0.8793 -1.08358,2.1888 -0.57021,3.1233 0.48837,0.8889 1.24007,1.5199 2.88426,2.2064 1.4036,0.5861 3.36904,0.5913 4.72321,0.1732 1.1707,-0.3613 2.18654,-1.0425 3.01878,-1.8741 0.62375,-0.6234 1.33649,-1.615 1.37602,-2.5039 0.0481,-1.0729 -0.31802,-1.7295 -1.09737,-2.0962 -0.2127,-0.1 -0.23892,-0.055 -0.25966,-0.9392 -0.0118,-0.5063 -0.10415,-1.2026 -0.19347,-1.5527 -0.0893,-0.3499 -0.15459,-0.6753 -0.13537,-0.6926 0.0193,-0.017 0.23167,0.059 0.47329,0.1278 1.42055,0.4063 2.40343,-0.032 2.70007,-1.1622 0.27784,-1.0586 -0.19888,-2.0113 -0.97129,-2.4158 -0.52433,-0.2746 -1.11964,-0.1873 -1.60889,-0.049 z "/>
<g style="fill:#fff" id="g8">
<path id="path4156" d="m -890.8562,1033.8622 c 0.54275,0.028 0.96,0.656 0.92208,1.3849 -0.0379,0.7288 -0.51629,1.2758 -1.05903,1.2476 -0.54275,-0.028 -0.9618,-0.6219 -0.92387,-1.3507 0.0379,-0.7288 0.51809,-1.3102 1.06082,-1.2818 z"/>
<path id="path4154" d="m -894.0139,1033.9378 c 0.54274,0.028 0.96178,0.6218 0.92386,1.3507 -0.0379,0.7288 -0.51807,1.31 -1.06081,1.2817 -0.54275,-0.028 -0.96,-0.6561 -0.92209,-1.3849 0.0379,-0.7288 0.5163,-1.2757 1.05904,-1.2475 z"/>
</g>
<path id="path4152" d="m -891.2712,1037.8856 c 0.3599,-0.044 0.61146,0.1073 0.59938,0.3397 -0.0122,0.2325 -0.28396,0.4715 -0.64385,0.515 -0.3599,0.044 -0.64564,-0.1096 -0.63356,-0.3415 0.0121,-0.2326 0.31815,-0.4698 0.67803,-0.5132 z"/>
<path id="path4150" d="m -893.5023,1037.9414 c 0.0778,-0.011 0.15094,-0.011 0.23931,0.012 0.35342,0.081 0.63321,0.3482 0.62111,0.5809 -0.012,0.2325 -0.31213,0.3543 -0.66558,0.2737 -0.35341,-0.081 -0.63322,-0.3481 -0.62111,-0.5807 0.009,-0.1744 0.19325,-0.2748 0.42627,-0.2864 z"/>
<path style="fill:#fff" id="path3047" d="m -887.5443,1038.7314 c -0.74702,2.5676 -2.85543,3.8496 -4.753,3.8487 -2.35446,0 -3.78721,-1.0509 -4.23967,-2.9763 0.92644,1.2766 2.56225,1.842 4.52317,1.6728 1.9778,-0.1706 3.63574,-1.0996 4.4695,-2.5452 z"/>
<path id="path4160" d="m -890.7858,1034.5375 c 0.28887,0.014 0.51096,0.3491 0.49078,0.7371 -0.0201,0.388 -0.2748,0.679 -0.56369,0.664 -0.28887,-0.014 -0.51192,-0.331 -0.49173,-0.7189 0.0202,-0.3879 0.27576,-0.6973 0.56464,-0.6822 z"/>
<path id="path4162" d="m -894.0411,1034.6528 c 0.30524,0.016 0.54091,0.3497 0.51959,0.7597 -0.0214,0.4099 -0.29137,0.7367 -0.59662,0.7208 -0.30525,-0.016 -0.53993,-0.3691 -0.51861,-0.7789 0.0213,-0.4099 0.29038,-0.7175 0.59564,-0.7016 z"/>
</g>
</svg>
