<svg width="48" version="1.1" xmlns="http://www.w3.org/2000/svg" height="48" xmlns:xlink="http://www.w3.org/1999/xlink">
<defs id="defs21">
<linearGradient id="linearGradient4450">
<stop offset="0" style="stop-color:#fff200" id="stop7"/>
<stop offset="1" style="stop-color:#a99400" id="stop9"/>
</linearGradient>
<linearGradient id="linearGradient4493">
<stop offset="0" style="stop-color:#fff" id="stop2"/>
<stop offset="1" style="stop-opacity:0" id="stop4"/>
</linearGradient>
<linearGradient id="linearGradient4506">
<stop offset="0" style="stop-color:#fff" id="stop12"/>
<stop offset="1" style="stop-color:#fff;stop-opacity:0" id="stop14"/>
</linearGradient>
<linearGradient xlink:href="#linearGradient4493" id="linearGradient5760" y1="2.617352" x1="17.338354" y2="14.659163" gradientUnits="userSpaceOnUse" x2="22.232607"/>
<linearGradient xlink:href="#linearGradient4493" id="linearGradient1950" y1="-3.3175836" x1="5.2428579" y2="38.803001" x2="21.956751" gradientUnits="userSpaceOnUse"/>
<linearGradient gradientTransform="matrix(0.93905306,0,0,1.1394743,1.9034496,-1147.1286)" xlink:href="#linearGradient4450" id="linearGradient4456" y1="1020.3143" x1="24.85956" y2="1035.6715" x2="39.910713" gradientUnits="userSpaceOnUse"/>
<linearGradient xlink:href="#linearGradient4506" id="linearGradient1958" y1="14.647461" x1="15.800781" y2="19.445312" x2="21.640625" gradientUnits="userSpaceOnUse"/>
</defs>
<path style="fill:#007a12" id="path23" d="m 27.3733,36.0635 -10.8331,5.479 2.299,.8395 c 2.6272,0.9598 5.10253,1.4537 7.41946,1.4803 2.32662,0.033 4.37081,-0.4089 6.12981,-1.3166 1.74413,-0.9001 2.37668,-1.8327 1.90441,-2.7981 -0.470943,-0.962 -2.01768,-1.9151 -4.63705,-2.8602 l -2.2825,-.8239 m -2.9228,-3.9966 6.6741,2.3991 c 3.74415,1.346 7.59729,1.7897 9.05631,2.6453 1.04453,0.6607 1.25057,0.4583 1.7072,3.3371 0.382518,2.4115 -1.21795,3.6667 -2.83199,4.5177 -1.3234,0.6975 -2.80157,1.2106 -4.42519,1.5497 -1.61885,0.3358 -3.4212,0.4972 -5.40588,0.4838 -2.27484,-0.013 -4.5523,-0.2641 -6.82971,-0.7518 -2.26759,-0.4915 -5.2775,-1.4254 -9.02153,-2.7982 l -6.7528,-2.4762 -.513,-2.8073 18.3425,-6.0992"/>
<path style="fill:url(#linearGradient4456)" id="path25" d="m 42.4879,20.6867 c 1.57842,-1.1643 1.68727,-1.274 2.43403,-2.146 0.736684,-0.8607 1.08347,-2.2352 1.08347,-3.8713 0,-2.4378 -0.920628,-4.6596 -2.76188,-6.666 C 41.40211,6.008 38.716,4.3078 35.18489,2.9028 33.93939,2.4071 32.68829,2.0134 31.4319,1.7223 30.18625,1.4243 28.95148,1.2348 27.72761,1.1542 l -1.3059,2.1579 1.3059,2.7337 c 1.16973,-0.1275 2.32872,-0.1164 3.47682,0.032 1.15899,0.1645 2.2962,0.4688 3.41193,0.9128 1.65719,0.6597 2.92432,1.4546 3.80169,2.3857 0.888262,0.9354 1.33232,1.9467 1.33232,3.0336 0,1.12 -0.454944,1.7844 -1.36483,1.9933 -0.899001,0.2244 -2.23116,-0.016 -3.99665,-0.7174 l -2.502,-0.9955 -1.4158,2.1578 1.4158,1.9267 2.632,1.0475 c 1.57052,0.6247 2.74025,1.3374 3.50934,2.1373 0.769078,0.8113 1.15354,1.7273 1.15354,2.7485 0,0.9443 -0.373724,1.5258 -1.12103,1.7443 -0.747301,0.2187 -1.80344,0.059 -3.16813,-0.4863 -1.00729,-0.4007 -2.02547,-0.9209 -3.05454,-1.5613 -1.02892,-0.6399 -2.05254,-1.3878 -3.07057,-2.2431 l -1.3338,2.1578 1.3338,2.487 c 1.23476,0.8423 2.45864,1.5931 3.67177,2.2516 1.21313,0.6582 2.40449,1.2201 3.57437,1.6858 3.15194,1.2541 4.42204,3.5018 5.98168,3.0683 1.57053,-0.418 3.44148,-3.5187 3.44163,-5.6268 0,-1.4386 -0.373728,-2.7675 -1.12118,-3.9871 -0.747301,-1.209 -1.85215,-2.2907 -3.31438,-3.2462"/>
<path style="fill:#9a8600" id="path27" d="m 39.3433,21.1105 c 1.59217,0.2226 2.79948,-0.031 3.62192,-0.7594 0.832897,-0.7135 1.24942,-1.8884 1.24942,-3.5244 0,-2.4376 -0.896206,-4.6595 -2.68862,-6.6659 C 39.73346,8.1652 37.11861,6.4651 33.68117,5.0599 32.46871,4.5643 31.2508,4.1706 30.02774,3.8797 28.81513,3.5816 27.61312,3.3926 26.42172,3.3121 v 4.8911 c 1.1387,-0.1275 2.26694,-0.1164 3.38459,0.032 1.12825,0.1648 2.23529,0.469 3.32142,0.9129 1.61323,0.6596 2.84674,1.4545 3.70084,2.3857 0.864697,0.9353 1.29697,1.9466 1.29697,3.0338 0,1.1199 -0.442874,1.7842 -1.32863,1.993 -0.875153,0.2244 -2.17198,-0.015 -3.89063,-0.7171 l -2.4353,-0.9953 0,4.0841 2.5621,1.0473 c 1.52887,0.625 2.66756,1.3376 3.41624,2.1378 0.748677,0.811 1.12294,1.7271 1.12294,2.7482 0,0.9445 -0.363812,1.5259 -1.09129,1.7444 -0.727477,0.2189 -1.7556,0.058 -3.08408,-0.4865 -0.980572,-0.4006 -1.97174,-0.921 -2.97351,-1.5612 -1.00163,-0.6402 -1.99845,-1.3873 -2.98947,-2.2426 l 0,4.644 c 1.20201,0.8428 2.39342,1.5933 3.57437,2.2516 1.18095,0.6586 2.34071,1.2203 3.47955,1.6861 3.06833,1.2542 5.36163,1.6644 6.87989,1.2307 1.52887,-0.418 2.2933,-1.6813 2.29344,-3.7893 0,-1.4382 -0.363812,-2.7675 -1.09144,-3.9872 -0.727476,-1.2088 -1.80301,-2.2905 -3.22646,-3.2458"/>
<path style="fill:#00e122" id="path29" d="m 26.8603,33.2563 -10.8331,5.4788 2.299,.8398 c 2.62718,0.9595 5.10251,1.4534 7.41944,1.48 2.32662,0.033 4.37081,-0.409 6.12981,-1.3167 1.74411,-0.9001 2.37668,-1.8326 1.90441,-2.7979 -0.470945,-0.9621 -2.0177,-1.9154 -4.63707,-2.8606 l -2.2825,-.8234 m -2.9229,-3.9969 6.6741,2.3991 c 3.74415,1.3461 6.34924,2.4477 7.80829,3.3035 1.48163,0.8579 2.43726,1.7583 2.86488,2.701 0.388958,0.8293 0.35682,1.6149 -0.09811,2.3558 -0.456342,0.7435 -1.33685,1.4566 -2.64354,2.14 -1.32634,0.6935 -2.80157,1.2104 -4.42519,1.5496 -1.61885,0.3358 -3.4212,0.4972 -5.40588,0.4838 -2.27484,-0.013 -4.5523,-0.264 -6.82971,-0.7519 -2.26759,-0.4915 -5.27747,-1.4253 -9.02153,-2.7981 l -6.7528,-2.4761 17.8295,-8.9067"/>
<path style="fill:#ff3b2c" id="path31" d="m 4.1174,9.1344 15.7696,-8.2566 2.3455,1.7396 -12.2718,8.383 v 6.70548 l 9.3343,-4.8872 2.3455,1.7396 -11.6798,8.0731 -3.4979,12.5133 -2.3455,-1.7396 Z "/>
<g style="fill:#b20d00">
<path id="path33" d="m 6.463,10.874 15.7696,-8.2566 v 4.92552 l -9.9262,5.1972 v 6.70548 l 9.3343,-4.8872 v 4.92552 l -9.3343,4.8872 v 7.71421 l -5.8434,3.0595 z "/>
<path id="path37" d="M 6.463,10.874 22.2326,2.6174 v 4.92552 l -9.9262,5.1972 v 6.70548 l 9.3343,-4.8872 v 4.92552 l -9.3343,4.8872 v 7.71422 l -5.8434,3.0595 z"/>
</g>
<path style="opacity:.35;fill:url(#linearGradient1958)" id="path41" d="m 19.2949,12.8184 -6.9883,3.6582 v 2.96875 l 9.334,-4.8867 z "/>
<path style="opacity:.45;fill:url(#linearGradient1950)" id="path43" d="m 4.1172,9.1348 v 24.2695 l 2.3457,1.7402 v -24.2714 Z "/>
<path style="opacity:.5;fill:url(#linearGradient5760)" id="path45" d="m 19.8867,.877 -15.7695,8.2578 2.3457,1.7383 15.7695,-8.2559 Z "/>
</svg>
