<svg width="128" version="1.1" xmlns="http://www.w3.org/2000/svg" height="128" viewBox="0 0 128 128">
<g style="stroke:none">
<circle cx="64" cy="64" style="fill:#018ac7;stroke-width:.558" id="ellipse4650-0-7-2-3-4-4" r="63"/>
<g style="fill-rule:evenodd">
<g style="fill:#fff">
<path id="path4652-2-7-9-7-2-7" d="m 22.8461,125.0051 c 0,0 19.8783,-69.5587 97.2574,-60.714 0,0 -49.1773,-29.193 -96.9183,10.1634 -14.0994,32.659 -0.339139,50.5505 -0.339139,50.5505 Z "/>
<path id="path4654-1-7-7-4-4-6" d="m 29.4352,113.8073 c 0,0 20.0704,-47.6073 75.436,-48.4861 -42.0857,10.2529 -0.33778,43.9304 -0.33778,43.9304 0,0 -32.2126,30.435 -75.0983,4.55576 z "/>
<path id="path4656-5-6-43-8-0-8" d="m 17.2159,77.8727 c 0,0 41.428,-45.5707 103.294,-14.0855 -1.10478,-8.56175 -8.42371,-18.2283 -21.5426,-20.9901 -2.9,-1.38093 -24.1663,-34.2471 -69.8752,-15.3283 14.0618,1.09489 20.0954,3.06459 20.4378,4.55704 -24.3179,-4.1793 -31.5262,30.4278 -32.3138,45.8469 Z "/>
</g>
<path style="fill:#00293c" id="path4658-6-9-5-0-2-9" d="m 76.6305,39.2154 c 0,0 10.5992,-3.79599 11.9796,7.49341 -10.4513,0.986024 -11.9796,-7.49341 -11.9796,-7.49341 z "/>
<g style="fill:#88d5f4">
<path id="path4660-5-1-6-0-7-6" d="m 22.5683,125.2314 c 0,0 18.1207,-59.1105 78.7046,-61.3975 0,0 -49.1613,-8.96967 -83.8822,46.0313 -0.192505,7.78133 5.1776,15.3662 5.1776,15.3662 z "/>
<path id="path4662-0-1-1-1-2-3" d="m 29.1428,27.4745 c 0,0 15.1108,0.878839 20.5058,4.58941 2.25256,-0.463405 4.16517,-2.00568 4.4903,-4.10622 -1.93294,-0.8 -19.6255,-2.24083 -24.9961,-0.48319 z "/>
<path id="path4442-5-0-9-4-6-0-96" d="m 17.3522,77.9513 c 0,0 18.9183,-22.7226 57.1108,-25.4372 0,0 -51.9918,2.34973 -56.3565,17.0309 -1.21344,3.53028 -0.754272,8.40637 -0.754272,8.40637 z "/>
</g>
</g>
</g>
</svg>
