<svg width="48" version="1.1" xmlns="http://www.w3.org/2000/svg" height="48">
<g style="line-height:125%;stroke:none">
<path style="fill:#205080" id="path4368" d="m 4.9573,38.1813 c -0.0454085,-12.0846 -0.118778,-17.3349 -0.0001809,-32.1943 l 4.3312,-3.3359 33.7651,.2782 v 40.432 c 0,0 0.438683,2.08537 -1.09332,2.10569 -3.27916,0.04349 -10.9219,0.03217 -15.8974,0.03063 0,0 2.59145,-0.02528 -15.6467,-0.0056 -3.69635,-0.07614 -5.52223,-1.97506 -5.45865,-7.31061 Z "/>
<g style="color:#000">
<path style="fill:#fff" id="path2489" d="m 41.7002,36.5928 -31.0358,.1329 c -1.65509,0.189132 -2.9906,1.48453 -2.9906,3.18997 0,1.70544 1.33552,3.00084 2.9906,3.18997 l 31.0358,.1329 v -0.06645 c -1.76046,-0.0831 -3.18997,-1.47552 -3.18997,-3.25643 0,-1.78091 1.42951,-3.17333 3.18997,-3.25643 v -0.06645 z "/>
<path style="fill:#347fcb" id="path2784" d="m 7.768,2.5 c -1.815,0 -2.9986,1.0729 -3.0851,3.04256 v 34.1879 c -0.097789,3.27337 1.94295,5.13449 4.05432,5.66803 -4.51913,-1.73393 -3.92101,-9.5612 1.7279,-9.52848 h 32.8554 v -32.912 c 0,-0.257417 -0.390088,-0.45802 -0.651498,-0.45802 z "/>
</g>
<g style="font-family:'Bitstream Vera Sans';word-spacing:0;letter-spacing:0" id="g12" transform="translate(-1.8,0)">
<g style="opacity:.7" id="g4166" transform="translate(0,-0.80048324)">
<text x="-134.36841" y="58.552334" style="font-size:44.77652359px" id="text4168" xml:space="preserve"><tspan x="-134.36841" y="58.552334" id="tspan4170"/>
</text>
<text x="10.188251" y="32.997841" style="font-size:47.22272873px" id="text4172" xml:space="preserve" transform="scale(1.0795575,0.92630546)"><tspan x="10.188251" y="32.997841" id="tspan4174">e</tspan>
</text>
</g>
<g id="g20">
<text x="-134.36841" y="58.552334" style="font-size:44.77652359px" id="text3014" xml:space="preserve"><tspan x="-134.36841" y="58.552334" id="tspan3016"/>
</text>
<text x="10.188251" y="32.997841" style="fill:#fff;font-size:47.22272873px" id="text3018" xml:space="preserve" transform="scale(1.0795575,0.92630546)"><tspan x="10.188251" y="32.997841" id="tspan3020">e</tspan>
</text>
</g>
</g>
</g>
</svg>
