<svg width="48" version="1.1" xmlns="http://www.w3.org/2000/svg" height="48">
<g style="line-height:125%">
<path style="fill:#205080" d="m 4.9573,38.1813 c -0.0454085,-12.0846 -0.118778,-17.3349 0,-32.1943 l 4.3312,-3.3359 33.7647,.2779 0,40.932 c 1.3e-05,1.24729 -0.33207,1.631 -1.69342,1.631 h -30.944 c -3.69635,-0.07614 -5.52223,-1.97504 -5.45865,-7.31059 Z "/>
<g style="color:#000">
<path style="fill:#fff" d="m 41.7002,36.5928 -31.0358,.1329 c -1.65509,0.189132 -2.9906,1.48453 -2.9906,3.18997 0,1.70544 1.33552,3 2.9906,3.18997 l 31.0358,.1329 v -0.06645 c -1.76046,-0.0831 -3.18997,-1.47552 -3.18997,-3.25643 0,-1.78091 1.42951,-3.17333 3.18997,-3.25643 v -0.06645 z "/>
<path style="fill:#347fcb" d="m 7.768,2.5 c -1.815,0 -2.9986,1.0729 -3.0851,3.04256 v 34.1879 c -0.097789,3.27337 1.92885,5.0859 4.05432,5.56754 -4.51913,-1.73393 -3.92101,-9.46071 1.7279,-9.42799 h 32.8554 v -32.912 c 0,-0.257417 -0.390088,-0.45802 -0.651498,-0.45802 z "/>
</g>
<g style="word-spacing:0;letter-spacing:0;font-family:'Bitstream Vera Sans'">
<text x="-136.16841" y="57.75185" style="opacity:.7;font-size:44.7765px" xml:space="preserve"><tspan x="-136.16841" y="57.75185"/>
</text>
<text x="8.5209007" y="32.133675" style="opacity:.7;font-size:47.2227px" xml:space="preserve" transform="scale(1.0795575,0.92630546)"><tspan x="8.5209007" y="32.133675">e</tspan>
</text>
<text x="-136.16841" y="58.552334" style="font-size:44.7765px" xml:space="preserve"><tspan x="-136.16841" y="58.552334"/>
</text>
<text x="8.5209007" y="32.997841" style="fill:#fff;font-size:47.2227px" xml:space="preserve" transform="scale(1.0795575,0.92630546)"><tspan x="8.5209007" y="32.997841">e</tspan>
</text>
</g>
</g>
</svg>
