<svg width="48" version="1.0" xmlns="http://www.w3.org/2000/svg" height="48" xmlns:xlink="http://www.w3.org/1999/xlink">
<defs id="defs48">
<linearGradient id="linearGradient3809" xlink:href="#linearGradient3765" y1="8.0864058" y2="34.527084" x1="28.344072" x2="8.0732231" gradientUnits="userSpaceOnUse"/>
<linearGradient id="linearGradient3807" xlink:href="#linearGradient3765" y1="8.0864058" y2="34.527084" x1="28.344072" x2="8.0732231" gradientUnits="userSpaceOnUse"/>
<linearGradient id="linearGradient3765">
<stop offset="0" style="stop-color:#fff" id="stop3767"/>
<stop offset="0.75999999" style="stop-color:#fff" id="stop3797"/>
<stop offset="0.76999998" id="stop3795"/>
<stop offset="1" id="stop3769"/>
</linearGradient>
</defs>
<path style="fill:#fff;stroke:#555753;stroke-linejoin:round;stroke-linecap:round;stroke-width:1.189" id="rect3790" d="m 2.5946,5.5953 42.8108,0 0,35.0534 0,4.1622 -42.8108,0 0,-4.1625 z "/>
<g style="stroke:none" id="g8" transform="matrix(1.1891892,0,0,1.1891892,-0.1999998,-6.8098269)">
<g style="fill:#fff" id="g10">
<path id="path2878" d="m 14,15.1094 a 1.74219,1.57812 0 1 1 -3.48438,0 1.74219,1.57812 0 1 1 3.48438,0 z" transform="matrix(1.143498,0,0,1.268986,-5.4245922,-6.267977)"/>
<path id="path2880" d="m 14,15.1094 a 1.74219,1.57812 0 1 1 -3.48438,0 1.74219,1.57812 0 1 1 3.48438,0 z" transform="matrix(1.143498,0,0,1.268986,-1.4245922,-6.267977)"/>
<path id="path2882" d="m 14,15.1094 a 1.74219,1.57812 0 1 1 -3.48438,0 1.74219,1.57812 0 1 1 3.48438,0 z" transform="matrix(1.143498,0,0,1.268986,2.5754078,-6.267977)"/>
<path id="path2884" d="m 14,15.1094 a 1.74219,1.57812 0 1 1 -3.48438,0 1.74219,1.57812 0 1 1 3.48438,0 z" transform="matrix(1.143498,0,0,1.268986,6.5754128,-6.267977)"/>
<path id="path2886" d="m 14,15.1094 a 1.74219,1.57812 0 1 1 -3.48438,0 1.74219,1.57812 0 1 1 3.48438,0 z" transform="matrix(1.143498,0,0,1.268986,10.575413,-6.267977)"/>
<path id="path2888" d="m 14,15.1094 a 1.74219,1.57812 0 1 1 -3.48438,0 1.74219,1.57812 0 1 1 3.48438,0 z" transform="matrix(1.143498,0,0,1.268986,14.575413,-6.267977)"/>
<path id="path2890" d="m 14,15.1094 a 1.74219,1.57812 0 1 1 -3.48438,0 1.74219,1.57812 0 1 1 3.48438,0 z" transform="matrix(1.143498,0,0,1.268986,18.575413,-6.267977)"/>
</g>
<rect width="35" x="2.8500016" y="39.908226" height="3.0103984" style="fill:#d3d7cf" id="rect2757"/>
</g>
<rect width="2.375998" x="10.722713" y="3.1903355" rx="1.188" height="5.9982834" ry="1.792384" style="fill:#fff;stroke:#555753;stroke-linecap:square;stroke-width:1.192;stroke-dashoffset:1.2" id="rect2776"/>
<g style="fill:#888a85;stroke:none" id="g21" transform="matrix(1.1891892,0,0,1.1891892,-0.1999998,-6.8098269)">
<rect width="6.5" x="26.850117" y="16.908228" rx="0.64999998" height="1" ry=".5" style="opacity:.48" id="rect3297"/>
<rect width="2.9517651" x="6.7250037" y="18.908228" rx="0.24605711" height="1" ry=".5" style="opacity:.48" id="rect3305"/>
<rect width="4.171875" x="5.6781282" y="34.908226" rx="0.46088129" height="1" ry=".5" style="opacity:.48" id="rect3287"/>
<rect width="2.1659424" x="6.4593787" y="21.908228" rx="0.12906921" height="1" ry=".5" style="opacity:.48" id="rect3307"/>
<rect width="5.3159986" x="6.3343787" y="23.908228" rx="0.74880081" height="1" ry=".5" style="opacity:.48" id="rect3309"/>
<rect width="8.9999981" x="25.350115" y="31.908228" rx="0.48982832" height="1" ry=".5" style="opacity:.48" id="rect3313"/>
<rect width="3" x="18.849998" y="34.908226" rx="0.5" height="1" ry=".5" style="opacity:.48" id="rect2940"/>
<rect width="5" x="27.849998" y="21.908228" rx="0.54237288" height="1" ry=".5" style="opacity:.48" id="rect2915"/>
<rect width="2.640625" x="6.2093787" y="26.908228" rx="0.5" height="1" ry=".5" style="opacity:.48" id="rect2885"/>
<rect width="5.5863471" x="6.8500037" y="16.908228" rx="0.46552885" height="1" ry=".5" style="opacity:.48" id="rect2893"/>
<rect width="3.2377937" x="20.612318" y="23.908228" rx="0.36390677" height="1" ry=".5" style="opacity:.48" id="rect2925"/>
<rect width="2" x="16.849998" y="26.908228" rx="0.54237288" height="1" ry=".5" style="opacity:.48" id="rect2935"/>
<rect width="6" x="10.849998" y="34.908226" rx="0.54237288" height="1" ry=".5" style="opacity:.48" id="rect2938"/>
<rect width="3.9999998" x="5.8500032" y="31.908228" rx="0.6188969" height="1" ry=".5" style="opacity:.48" id="rect2942"/>
<rect width="11" x="11.750115" y="31.908228" rx="0.47525266" height="1" ry=".5" style="opacity:.48" id="rect2949"/>
</g>
<g style="fill:#fff;stroke:#555753;stroke-width:1.192;stroke-dashoffset:1.2;stroke-linecap:square">
<g id="g32">
<rect width="2.375998" x="15.479465" y="3.1903355" rx="1.188" height="5.9982834" ry="1.792384" id="rect3907"/>
<rect width="2.375998" x="20.236225" y="3.1903355" rx="1.188" ry="1.792384" height="5.9982834" id="rect3043"/>
</g>
<g id="g41">
<rect width="2.375998" x="25.387766" y="3.1903355" rx="1.188" ry="1.792384" height="5.9982834" id="rect3040"/>
<rect width="2.375998" x="30.144524" y="3.1903355" rx="1.188" ry="1.792384" height="5.9982834" id="rect3042"/>
<rect width="2.375998" x="34.901291" y="3.1903355" rx="1.188" height="5.9982834" ry="1.792384" id="rect3044"/>
</g>
</g>
<g style="fill-rule:evenodd;stroke:none" id="g11" transform="matrix(0.96334295,0,0,0.93440737,-1.4011705,7.6162338)">
<path style="fill:#4976a8" id="path2906" d="m 11.1134,27.6008 c 4.80979,-0.519818 7.50336,-2.28955 9.11379,-4.52991 -2.76096,-3.54673 -2.03349,-2.99186 0.291261,-0.73736 1.0938,1.06074 2.83421,2.03375 4.03146,-1.26878 0.919118,-2.53532 1.99783,-3.23822 1.99783,-3.23822 -1.63927,-0.663646 -4.69167,-2.96033 0.233452,-0.938615 1.56147,-2.36675 3.73995,-3.96792 5.73878,-5.79201 -4.46892,-0.006 -3.1999,-1.89596 0.7307,-0.544966 1.87077,-3.47301 6.41338,-3.4177 11.536,-2.59645 -3.76127,-1.88133 -7.94991,-4.33887 -9.16347,-2.78526 l -.1763,-1.1612 c -3.4751,-0.782848 -11.4558,-1.307 -11.5375,-0.519371 -0.06277,0.605059 -0.397369,1.85092 -0.447894,3.17418 -0.25064,-0.956028 -0.400623,-1.94177 -0.442907,-2.9593 -2.30326,0.15418 -6.23978,2.29565 -6.25426,3.30644 -0.0084,0.584701 0.530655,5.3673 1.17816,7.71519 -1.20126,-2.31023 -1.71718,-4.66732 -2.26453,-7.02226 -0.693665,0.72994 -4.06421,0.699894 -1.72354,10.6644 -0.96192,-1.54836 -1.12075,-3.27666 -1.60302,-4.93249 -1.7434,2.83364 -2.85077,7.83819 -1.70114,14.0379"/>
<path style="fill:url(#linearGradient3807);stroke:url(#linearGradient3809);stroke-width:.2" id="path1873" d="m 28.4139,7.8771 c -9.92245,6.24683 -17.6455,14.3477 -20.5122,26.4715 l .3394,.1844 c 0,0 0.443477,-0.93261 0.836452,-1.21325 0.392975,-0.280637 1.6502,-0.802076 1.6502,-0.802076 0,0 0.39192,-4.4661 2.17511,-8.03951 1.78319,-3.5734 4.6582,-6.33533 5.23672,-6.98188 0.578522,-0.646554 1.78515,-2.06324 1.78515,-2.06324"/>
</g>
</svg>
