<svg width="48" version="1.0" xmlns="http://www.w3.org/2000/svg" height="48" xmlns:xlink="http://www.w3.org/1999/xlink">
<defs id="defs48">
<linearGradient gradientTransform="matrix(0.67719863,0,0,0.67719863,-5,-5.9688)" xlink:href="#linearGradient4223" id="linearGradient4220" y1="72.062553" x1="77.093697" y2="76.9375" x2="71.656197" gradientUnits="userSpaceOnUse"/>
<linearGradient gradientTransform="matrix(1.5893205,0,0,1.6041344,-274.6686,-287.51822)" xlink:href="#linearGradient2888-4-3" id="linearGradient4859" y1="165.82466" x1="182.28128" y2="151.52789" gradientUnits="userSpaceOnUse" x2="175.20076"/>
<linearGradient gradientTransform="matrix(1.4783537,0,0,1.4919614,42.342302,-89.155828)" xlink:href="#linearGradient2888-4-3" id="linearGradient3808" y1="34.121754" x1="-26.252876" y2="41.695" gradientUnits="userSpaceOnUse" x2="-21.25"/>
<linearGradient id="linearGradient2888-4-3">
<stop offset="0.0000000" style="stop-color:#fff" id="stop2889-50"/>
<stop offset="1" style="stop-color:#b4b4b4" id="stop2894-1"/>
</linearGradient>
<linearGradient id="linearGradient4223">
<stop offset="0" style="stop-color:#646464" id="stop4225"/>
<stop offset="1" style="stop-color:#282828" id="stop4227"/>
</linearGradient>
<linearGradient gradientTransform="matrix(1.3103922,0,0,1.2710325,-10.203755,-3.9383882)" xlink:href="#linearGradient3765" id="linearGradient3809" y1="8.0864058" x1="28.344072" y2="34.527084" gradientUnits="userSpaceOnUse" x2="8.0732231"/>
<linearGradient id="linearGradient3765">
<stop offset="0" style="stop-color:#fff" id="stop3767"/>
<stop offset="0.76" style="stop-color:#fff" id="stop3797"/>
<stop offset="0.77" id="stop3795"/>
<stop offset="1" id="stop3769"/>
</linearGradient>
<linearGradient gradientTransform="matrix(1.3103922,0,0,1.2710325,-10.203755,-3.9383882)" xlink:href="#linearGradient3765" id="linearGradient3807" y1="8.0864058" x1="28.344072" y2="34.527084" gradientUnits="userSpaceOnUse" x2="8.0732231"/>
</defs>
<g style="fill-rule:evenodd">
<g id="g45">
<path style="fill:#4976a8" id="path2906" d="m 24.7578,0.002 c -2.09411,-0.0229342 -3.59073,0.118727 -3.63086,0.494141 -0.08225,0.76905 -0.519729,2.35325 -0.585937,4.03516 -0.328436,-1.21514 -0.526624,-2.4684 -0.582032,-3.76172 -3.01817,0.195968 -8.17634,2.91643 -8.19531,4.20117 -0.0061,0.41147 0.218598,2.4688 0.554687,4.7207 a 11.9685,11.9685 0 0 1 7.9668,-3.05664 11.9685,11.9685 0 0 1 9.97656,5.37109 c 0.7201,-0.608653 1.4421,-1.21657 2.14844,-1.8418 -5.85604,-0.0076 -4.19359,-2.40857 0.957032,-0.691406 2.45144,-4.41431 8.40453,-4.34462 15.1172,-3.30078 -4.92874,-2.39123 -10.4176,-5.51374 -12.0078,-3.53906 l -0.2305,-1.4766 c -2.84609,-0.621891 -7.9981,-1.11607 -11.4883,-1.1543 z M 10.3398,5.8516 C 9.430827,6.779378 5.01479,6.741075 8.08199,19.4063 6.8215,17.43828 6.61434,15.24333 5.98238,13.13872 3.69784,16.74037 2.24544,23.10051 3.75191,30.98052 l 0.6074,0.1621 c 3.94295,-0.413335 6.80051,-1.44698 8.9043,-2.86133 A 11.9685,11.9685 0 0 1 8.31634,18.60356 11.9685,11.9685 0 0 1 11.54095,10.45317 C 11.067769,8.92439 10.707779,7.38736 10.33978,5.85161 Z"/>
<path style="fill:url(#linearGradient3807);stroke:url(#linearGradient3809);stroke-width:.258" id="path1873" d="M 27.0296,6.0737 C 14.0273,14.01362 3.9071,24.3101 0.1506,39.7198 l 0.4447,0.2344 c 0,0 0.581129,-1.18538 1.09608,-1.54208 0.514951,-0.356699 2.16241,-1.01946 2.16241,-1.01946 0,0 0.513569,-5.67656 2.85025,-10.2185 2.33668,-4.54191 6.10407,-8.05241 6.86216,-8.8742 0.75809,-0.821791 2.33925,-2.62244 2.33925,-2.62244"/>
</g>
<g id="g78">
<g id="g4242">
<path style="fill:#4976a8" id="circle4222" d="m 20.2207,6.8789 a 11.5705,11.5705 0 0 0 -8.12891,3.3457 c 0.324954,2.02049 0.692733,4.04047 1.10938,5.50586 -0.809799,-1.51061 -1.4342,-3.03328 -1.96094,-4.5625 a 11.5705,11.5705 0 0 0 -2.58984,7.28125 11.5705,11.5705 0 0 0 8.16602,11.0586 c -4.30943,-5.41255 -3.03058,-4.45903 0.939453,-0.724609 0.470312,0.442397 1.01062,0.872076 1.58594,1.19336 a 11.5705,11.5705 0 0 0 0.878906,0.04297 11.5705,11.5705 0 0 0 2.85742,-0.367187 c 0.642429,-0.607877 1.25889,-1.57415 1.80859,-3.04492 1.62546,-4.34903 3.53125,-5.55664 3.53125,-5.55664 -2.89904,-1.1384 -8.29599,-5.07738 0.414062,-1.60938 0.818918,-1.20397 1.73778,-2.28693 2.71289,-3.30273 a 11.5705,11.5705 0 0 0 -11.3242,-9.25977 z"/>
<path style="fill:#fff" id="circle4220" d="M 25.4004,8.1172 C 19.37888,12.336 13.9651,17.0499 9.3613,22.418 a 11.5705,11.5705 0 0 0 0.78711,1.69727 c 1.59573,-1.81799 2.93202,-3.12119 3.40039,-3.62891 1.02311,-1.10908 3.1582,-3.54102 3.1582,-3.54102 l 9.6211,-8.3066 A 11.5705,11.5705 0 0 0 25.400366,8.117256 Z"/>
</g>
<circle cx="20.284887" cy="18.603249" style="opacity:.15;fill:#fff" r="11.968503" id="path4246"/>
</g>
<g id="g20" transform="translate(1.7811139e-4,0.00170282)">
<g style="color:#000;stroke-width:.677" id="g15">
<path style="opacity:.3;fill:#000" id="path4233" d="m 20.8764,6.5004 c -3.38891,-0.016483 -6.76646,1.37458 -9.22378,3.77141 -2.45732,2.39682 -3.93505,5.74896 -4.03002,9.15911 -0.094964,3.41017 1.20222,6.7944 3.53435,9.22378 l .0431,.0215 c 2.33031,2.40858 5.61363,3.81965 8.9867,3.83606 1.87593,0.0091 3.73756,-0.443077 5.45237,-1.2284 0.06601,-0.0087 0.126689,-0.01424 0.193957,-0.02155 1.45924,-0.158577 3.18929,0.01597 4.63344,1.20685 -0.233101,0.347225 -0.211901,0.853216 0.0862,1.16374 l 13.534,14.0943 c 0.340691,0.354892 0.919365,0.365012 1.2715,0.02155 l 2.3706,-2.3059 c 0.352143,-0.343463 0.362241,-0.938164 0.02155,-1.29305 l -13.534,-14.0943 c -0.305784,-0.318531 -0.809856,-0.351174 -1.16375,-0.107755 -1.12886,-1.50373 -1.25756,-3.23816 -1.056,-4.69809 0.0065,-0.04703 0.01452,-0.08332 0.02155,-0.129305 0.860686,-1.72522 1.36881,-3.61554 1.42236,-5.53858 0.09468,-3.4 -1.19383,-6.77449 -3.51279,-9.20225 l -.0215,-.0215 c -2.33211,-2.42937 -5.64091,-3.84113 -9.02983,-3.8576 z  m 0,1.3793 c 3.00747,0.014628 5.97459,1.29818 8.03848,3.44814 2.0639,2.14996 3.23094,5.17599 3.14643,8.2109 v 0.02155 c -0.09017,3.02779 -1.43317,6.05582 -3.62055,8.18936 -2.19251,2.13853 -5.24652,3.39812 -8.25397,3.38349 -3.00741,-0.01462 -5.97453,-1.29817 -8.03843,-3.44813 -2.0639,-2.14997 -3.23094,-5.17599 -3.14643,-8.2109 v -0.02156 c 0.090146,-3.0278 1.43316,-6.05581 3.62054,-8.18937 2.19251,-2.13853 5.24652,-3.39811 8.25397,-3.38349 z "/>
<path style="fill:url(#linearGradient4220)" id="path4249" d="m 31.865,21.1615 c 0,0 -0.181732,0.371599 -0.402086,0.952311 -0.600423,1.54984 -1.1205,2.7716 -3.17437,4.61341 -1.90283,1.70637 -4.05683,2.43767 -5.10015,2.75112 -0.02203,0.0062 -0.06327,0.01502 -0.08465,0.02116 -0.243716,0.0718 -0.825336,0.296275 -0.825336,0.296275 -0.0033,0.0014 -0.06349,0.02116 -0.06349,0.02116 l .2116,.6349 c 0,0 0.06193,-0.02079 0.06349,-0.02116 0,0 0.313541,-0.130161 0.825336,-0.275112 0.0058,-0.0017 0.01533,0.0017 0.02116,0 1.4556,-0.40986 4.49068,-0.919466 6.72966,0.994636 -0.242695,0.325492 -0.229457,0.79667 0.06349,1.10045 l 13.3958,13.8826 c 0.334791,0.347172 0.91069,0.385466 1.26975,0.06349 l 2.3702,-2.1374 c 0.359056,-0.321979 0.377113,-0.88025 0.04233,-1.22742 l -13.3958,-13.8826 c -0.3,-0.31112 -0.767489,-0.351991 -1.12161,-0.126975 -1.2013,-1.49837 -1.32329,-3.20821 -1.10045,-4.63458 0.120198,-0.769351 0.34267,-1.42351 0.529062,-1.90462 0.190241,-0.491039 0.338599,-0.804173 0.338599,-0.804173 0.0062,-0.01571 0.0149,-0.02654 0.02116,-0.04232 l -.6137,-.2751 z "/>
</g>
<g id="g961" transform="matrix(1.0345841,0,0,0.99452834,10.07362,50.673731)">
<ellipse cx="9.8197718" cy="-32.460846" rx="11.125243" ry="11.228941" style="opacity:.2;fill:url(#linearGradient4859);stroke-width:1.597" id="path4272"/>
<path style="opacity:.3;fill:url(#linearGradient3808)" id="path5507" d="m .9484,-29.4774 c 7.39177,-1.49196 6.12193,-9.13253 14.2435,-10.6245 -3.16523,-2.64047 -8.28981,-2.18595 -11.2868,0.180762 -3.05545,2.41286 -4.43506,7.45981 -2.95671,10.4437 z "/>
</g>
</g>
</g>
<path style="fill:none;stroke:#464646;stroke-width:2.772" id="path2420" d="m 32.7423,18.804 a 12.0645,12.521 85 0,1 -25.0152,-0.808798 12.0645,12.521 85 1,1 25.0152,0.808798 Z "/>
</svg>
