<svg width="48" version="1.1" xmlns="http://www.w3.org/2000/svg" height="48" xmlns:xlink="http://www.w3.org/1999/xlink">
<defs id="defs7219"/>
<g style="stroke:none" id="g9">
<path style="fill:#afb1b2" id="path7263" d="m 6.615,4.179 c -0.615473,0 -0.4375,0.282503 -0.4375,0.875 v 25.8437 h 7.65625 C 13.79401,30.436722 13.74,29.96273 13.74,29.49145 c 0,-8.87596 7.18653,-16.0625 16.0625,-16.0625 3.7705,0 7.22753,1.32587 9.96875,3.5 V 7.61645 C 39.76425,6.829382 39.74132,6.782219 38.9275,6.7727 h -20.25 L 16.5213,4.6165 C 16.142911,4.0855 16.059356,4.205924 15.24005,4.179 h -8.625 z"/>
<path id="folderTab" d="m 4.0045,2.4115 18,0 0,11.7733 -18,0 z"/>
<path id="folderBackground" d="m 4.0045,4.7665 40,0 0,8.3199 -40,0 z"/>
<path style="fill:#fff" id="folderPaper" d="m 6.0045,7.121 36,0 0,5.6788 -36,0 z"/>
<path style="fill:#b4b4b4" id="folderFront" d="m 2,9.471 0,27.4433 44.0001,0 0,-27.4433 z "/>
</g>
<g id="layer1" transform="matrix(1.6520036,0,0,1.6520036,-3.9552535,-4.6422868)">
<g style="stroke:none" id="g23392" transform="matrix(1.3247028,0,0,1.3247028,-10.051533,-10.085035)">
<path style="fill:#00e0ff" id="path2826" d="m 21.1739,14.7395 c -1.94393,0.606795 -3.72907,1.81409 -5.03893,3.57192 l 2.4056,1.7925 c 0.991702,-1.33086 2.3511,-2.20781 3.84196,-2.5932 l -1.2086,-2.7713 z "/>
<path style="fill:#ff4e00" id="path3600-92" d="m 17.1625,24.1158 c 0.04083,1.91945 0.814227,3.63755 2.03125,4.90625 l 2.125,-2.0938 c -0.0059,-0.0058 0.0058,-0.0254 0,-0.03125 -0.713539,-0.715828 -1.15625,-1.69034 -1.15625,-2.78125 h -3 z "/>
<path style="fill:#ff9e00" id="path3600-92-7" d="m 18.1793,27.6608 c 1.01267,1.77379 2.53801,2.73007 4.22883,3.21158 l .7786,-2.8798 c -0.008,-0.0021 -0.0078,-0.02485 -0.01576,-0.02698 -0.977198,-0.258126 -1.85105,-0.876234 -2.40136,-1.81817 l -2.5903,1.5134 z "/>
<path style="fill:#f00" id="path3600-9" d="m 20.2097,23.2742 c -0.400987,2.18271 0.861677,4.30696 2.96269,4.77903 l .9095,-3.9089 -3.8722,-.87 z "/>
<path style="fill:#00c9d9" id="path3600-92-5" d="m 27.308,18.0246 c -1.72784,-0.83697 -3.6097,-0.929979 -5.2932,-0.423465 l .8976,2.8449 c 0.0078,-0.0027 0.01998,0.01672 0.02782,0.01422 0.962094,-0.30971 2.03132,-0.260555 3.00278,0.2358 l 1.365,-2.6715 z "/>
<path style="fill:#0098d9" id="path3600-92-48" d="m 22.9813,17.3664 c -1.89094,0.332101 -3.47153,1.35765 -4.54051,2.75337 l 2.3924,1.7821 c 0.0048,-0.0067 0.02598,0.0019 0.03089,-0.0047 0.599058,-0.814048 1.49496,-1.39973 2.57319,-1.56555 l -.456,-2.9652 z "/>
<path style="fill:#0074d9" id="path3600-9-0" d="m 26.1594,20.7934 c -1.91161,-1.06177 -4.32178,-0.506035 -5.44167,1.33324 l 3.3777,2.0566 2.064,-3.3898 z "/>
<path style="fill:#a3df17" id="path3600-92-4" d="m 30.3741,27.0025 c 0.831038,-1.90489 0.746833,-3.65199 0.156099,-5.30781 l -2.7961,1.0399 c 0.003,0.0077 -0.01569,0.0208 -0.0128,0.02851 0.357815,0.945259 0.362619,2.01561 -0.08413,3.01084 l 2.7369,1.2286 z "/>
<path style="fill:#c0df17" id="path3600-92-4-7" d="m 28.4488,29.5106 c 1.55995,-1.20653 2.30947,-2.90592 2.50735,-4.65279 l -2.9685,-.2961 c -0.000718,0.0083 -0.02324,0.01177 -0.02403,0.01997 -0.09447,1.00629 -0.579271,1.90567 -1.4,2.66689 l 1.814,2.1975 z "/>
<path style="fill:#dadf4a" id="path3600-92-4-7-1" d="m 25.0069,31.0592 c 1.89503,-0.307956 3.48857,-1.31327 4.57526,-2.69523 l -2.3695,-1.8124 c -0.005,0.0067 -0.02596,-0.0022 -0.03094,0.0044 -0.609388,0.806345 -1.51269,1.38056 -2.59295,1.5326 l .4181,2.9707 z "/>
<path style="fill:#50e700" id="path3600-9-8" d="m 27.294,21.7569 -3.2188,2.4062 0,.0312 .5152,3.9304 c 0.719017,-0.117585 1.31643,-0.37412 1.85984,-0.781789 0.438187,-0.328732 0.83816,-0.778372 1.06245,-1.24232 0.37553,-0.776808 0.55863,-1.71071 0.5,-2.40625 -0.05781,-0.685799 -0.275908,-1.35471 -0.71875,-1.9375 z "/>
</g>
</g>
</svg>
