<svg width="48" version="1.0" xmlns="http://www.w3.org/2000/svg" height="48" xmlns:xlink="http://www.w3.org/1999/xlink">
<defs id="defs633">
<radialGradient fx="64.551804" fy="14.1646" cx="64.551804" cy="14.1646" r="52.241501" id="XMLID_67_" gradientUnits="userSpaceOnUse">
<stop offset="0" style="stop-color:#0f80bc" id="stop85"/>
<stop offset="0.33759999" style="stop-color:#0a5f9e" id="stop87"/>
<stop offset="1" style="stop-color:#00145a" id="stop89"/>
</radialGradient>
<radialGradient fx="64.551804" fy="14.1646" cx="64.551804" cy="14.1646" gradientTransform="matrix(0.3850499,0,0,0.385971,-0.61343004,1.0015733)" xlink:href="#XMLID_67_" id="radialGradient3654" r="52.241501" gradientUnits="userSpaceOnUse"/>
</defs>
<ellipse cx="63.755001" cy="59.375" rx="59.335999" ry="59.375" style="fill:#5392ba" id="ellipse10" d="m 123.091,59.375 c 0,32.791907 -26.565632,59.375 -59.335999,59.375 C 30.984634,118.75 4.4190025,92.166907 4.4190025,59.375 4.4190025,26.583093 30.984634,0 63.755001,0 96.525368,0 123.091,26.583093 123.091,59.375 z" transform="matrix(0.3850499,0,0,0.385971,-0.61343004,1.0015733)"/>
<path style="fill:#084f84" id="path73" d="m 34.1046,19.2634 c -0.01617,-0.04747 0.147859,-0.239302 0.103964,0.0093 -0.100883,0.176775 0.407382,0.335795 0.549851,0.13895 0.477847,-0.656151 -0.450508,-0.973419 -0.853271,-0.668502 -0.406612,0.307619 -0.630711,-0.352005 -0.163646,-0.445796 0.465525,-0.09456 0.504801,-0.93791 -0.0081,-0.940998 0.452819,-0.223863 -0.174428,-0.89468 -0.692705,-1.00931 -0.08356,-0.721765 -0.842874,-1.18069 -1.24217,-0.918611 -0.403147,0.262847 -0.437801,0.21653 -1.02847,-0.142809 -0.588356,-0.357795 -0.871753,0.744152 -0.438957,1.22546 0.435492,0.48478 0.119751,1.26637 0.137848,1.13283 0,0 -0.164031,0.295654 -0.15325,0.406427 -0.49824,0.169405 -0.643789,-0.533835 -0.952984,-0.689381 -0.225255,0.294496 -0.589127,0.451586 -0.589127,0.451586 l .0273,-.5994 c 0,0 -1.54675,-0.844504 -2.0219,-0.607904 -0.585661,0.181406 -0.724279,1.54041 -0.192525,1.73918 0.532524,0.201091 -0.668062,0.701696 0.536374,1.97463 1.23717,1.3069 1.7154,1.34434 1.96799,1.13167 0.06238,-0.05365 0.170193,-0.133932 0.30188,-0.223091 0.01194,0.05018 0.03196,0.09842 0.06276,0.143967 0.30958,0.466639 -0.719659,0.834469 -0.863282,1.50297 -0.145934,0.675835 -0.01155,1.93256 0.599137,1.9754 0.116286,-0.669659 1.25911,-0.433059 0.637258,0.173687 -0.633022,0.618712 -0.189059,0.727942 -0.189059,0.727942 0,0 0.03003,1.15907 0.998049,0.788538 -0.02811,0.06639 -0.05083,0.151301 -0.0643,0.243934 -0.270691,-0.05481 -0.932206,-0.137792 -1.09393,0.324602 -0.204077,0.583588 -1.06813,-0.197617 -1.67266,0.06446 -0.601833,0.260144 -1.48013,1.1143 -1.18441,1.71487 0.568333,-0.27018 1.00344,0.947945 0.209467,0.697836 -0.796669,-0.250882 -0.641879,0.225021 -0.641879,0.225021 0,0 -0.829397,0.655764 -0.05275,1.35399 -0.298414,0.04555 -0.828628,0.378638 -0.649965,1.10928 0,0 -0.340769,0.01235 -0.38659,0.666186 -1.11164,0.224635 -1.04387,0.570465 0.628787,0.191441 -0.674993,0.351234 0.472071,0.516429 0.980337,0.469727 0.509036,-0.04632 1.84516,0.61408 0.841334,0.620641 -1.00575,0.0062 -0.706182,0.499447 0.498254,0.522991 1.20251,0.0247 1.07622,0.304145 1.25488,0.291794 0.178663,-0.01235 0.956464,0.602501 0.914109,0.943313 -0.04351,0.341199 0.814765,0.695134 1.37309,0.304145 0.02849,0.354708 1.4963,0.07797 1.71347,-0.561587 1.58949,0.243547 1.55291,-0.05365 1.19904,-0.242776 -0.795898,-0.121967 -2.25639,-1.18223 -0.672297,-0.636852 1.57601,0.544605 0.05776,-0.428428 -0.357712,-0.802434 -0.904867,-0.176389 -0.951073,-0.932506 -0.951073,-0.932506 0,0 0.499795,-0.285233 0.105504,-0.998121 0.977642,-0.181792 0.38736,-0.526464 0.497099,-0.854926 0.10974,-0.329619 0.606069,-0.749555 0.776261,-0.783521 0.03234,-0.04439 0.298414,0.0089 0.0516,0.10923 -0.213318,0.0023 -0.06199,0.60443 0.193295,0.635308 0.863282,0.10537 0.610689,-1.02437 0.103578,-1.2517 -0.508266,-0.229267 -0.05198,-0.85068 0.30496,-0.432287 0.356941,0.41762 1.15245,-0.05133 0.85404,-0.580501 0.474382,0.329619 0.730055,-0.736818 0.528289,-1.34897 0.634562,-0.551553 0.614154,-1.65118 0.123216,-1.89705 -0.241427,-0.120809 -0.358097,-0.199161 -0.416624,-0.349304 0.291482,-0.138177 0.678073,-0.240074 0.829782,-0.103826 0.246817,0.223477 0.933746,-0.392918 0.890236,-1.11353 0.289172,0.15902 0.749692,-1.31037 0.358481,-1.82448 0.895626,-1.25518 0.6542,-1.36904 0.354631,-1.15868 -0.450508,0.626045 -1.93026,1.37522 -0.783191,0.265548 1.11356,-1.07725 -0.296104,-0.26053 -0.76779,-0.08569 -0.554857,0.696678 -1.1436,0.362041 -1.1436,0.362041 0,0 0.02503,-0.570851 -0.69155,-0.58243 0.331143,-0.915909 -0.202536,-0.585132 -0.389285,-0.835241 -0.187135,-0.249723 -0.254518,-0.86033 -0.197146,-1.01665 z "/>
<path style="fill:#0a5f9e" id="path82" d="m 22.4923,10.0877 c -0.139003,0.363198 0.453589,0.953348 0.751233,0.76345 0.298413,-0.191055 0.725819,-0.572009 0.725819,-0.572009 0,0 0.453203,0.364743 0.26992,0.624887 -0.184439,0.259373 -0.918729,0.551167 0.144008,0.43306 1.09008,-0.120809 1.28876,-0.346216 1.28337,-0.554641 -0.0058,-0.207652 0.05429,-0.952962 0.242966,-1.00468 0.0058,-0.382111 -0.741221,-0.346602 -0.482467,-0.729099 0.258753,-0.380567 -0.348471,-1.00584 -0.348471,-1.00584 0,0 -0.472841,0.277513 -0.532138,0.728713 -0.05968,0.450428 -0.502106,0.207652 -0.711573,0.311093 0.05429,0.225407 -0.01001,0.467797 -0.01001,0.467797 l -.2738,-.2428 c 0.000385,-0.000386 -0.989964,0.450814 -1.05889,0.780048 z "/>
<path style="fill:url(#radialGradient3654)" id="path91" d="m 24.2646,29.1643 c -0.129762,0.128915 0.01925,0.518359 0.185979,0.500219 0.167112,-0.01891 0.427405,-0.09263 0.427405,-0.09263 0,0 0.129762,0.259372 0,0.333865 -0.130531,0.07333 -0.50788,0.04168 -0.01887,0.221933 0.50172,0.185266 0.632252,0.129686 0.669602,0.03705 0.03658,-0.09263 0.203691,-0.407585 0.296873,-0.389445 0.07509,-0.166353 -0.260293,-0.31418 -0.07431,-0.42534 0.185979,-0.112317 0.03812,-0.519517 0.03812,-0.519517 0,0 -0.260294,0.01853 -0.371959,0.204179 -0.111664,0.18488 -0.260293,-0.01891 -0.371958,-0.01891 -0.01887,0.11116 -0.09241,0.203793 -0.09241,0.203793 l -.0743,-.1664 c -0.000385,0 -0.521358,-0.01853 -0.614155,0.111159 z "/>
<g style="fill:#084f84" id="g17">
<path id="path108" d="m 65.061,1.002 c -0.912,0.203 0.613,3.503 0.613,3.503 0,0 -0.055,2.216 0.321,2.329 0.374,0.113 2.852,0.733 4.147,2.345 1.301,1.614 0.625,2.463 -0.458,1.997 -1.084,-0.465 -0.797,0.959 -0.797,0.959 0,0 3.27,1.063 0.8,0.995 -2.475,-0.066 1.666,1.741 1.393,1.93 -0.273,0.191 -0.429,1.231 -0.429,1.231 0,0 -2.183,0.182 -0.333,0.959 6.26,2.637 -0.669,1.925 -0.669,1.925 l -0.884,1.087 1.749,2.194 1.345,0.962 c 0,0 2.833,-0.945 3.716,-1.093 0.884,-0.146 3.114,-1.815 3.114,-1.815 0,0 0.669,0.478 0.169,-0.497 -0.501,-0.976 1.841,-0.54 2.425,0.186 l 4.134,1.867 c 0.054,0.144 0.146,0.274 0.292,0.375 0.806,0.565 -0.729,1.535 -0.573,2.562 0.156,1.016 1.093,2.704 2.121,2.526 -0.18,-0.969 1.851,-1.086 1.144,-0.006 -0.706,1.077 0.077,1.056 0.077,1.056 0,0 0.653,1.521 2.034,0.676 -0.056,0.464 0.227,1.397 1.413,1.459 0,0 -0.126,0.506 0.848,0.865 -0.132,1.737 0.424,1.792 0.561,-0.846 0.245,1.157 0.992,-0.471 1.141,-1.25 0.15,-0.784 1.756,-2.505 1.322,-0.984 -0.431,1.508 4.735,2.06 5.308,0.259 0.578,-1.815 2.637,-2.763 2.699,-3.038 0.062,-0.281 -4.583,-0.712 -4.07,-0.493 0.514,0.219 1.47,-0.948 1.115,-1.986 0.576,0.116 0.83,-2.301 -0.083,-2.927 1.143,-2.405 0.651,-2.48 0.182,-2.001 -0.57,1.205 -2.922,3.023 -1.327,0.783 1.609,-2.263 -0.653,-0.284 -1.438,0.208 -0.689,1.341 -1.899,1.08 -1.899,1.08 0,0 -0.222,-0.911 -1.516,-0.607 0.151,-1.612 -0.653,-0.838 -1.12,-1.154 -0.285,-0.193 -0.558,-0.627 -0.726,-0.999 1.115,0.452 2.612,0.933 2.354,0.104 -0.167,-0.542 2.112,0.643 2.192,0.396 l 2.848,-0.396 2.769,-1.75 C 85.388,0.164 65.061,1.002 65.061,1.002 z" transform="matrix(0.3850499,0,0,0.385971,-0.61343004,1.0015733)"/>
<path id="path117" d="m 38.752,6.095 c -10.573,4.747 -18.551,14.531 -18.551,14.531 0,0 0.938,2.145 1.265,1.987 0.33,-0.156 -2.361,5.628 -0.386,5.954 1.985,0.325 7.696,-3.578 6.637,-3.22 -1.056,0.356 0.595,-2.112 0.595,-2.112 0,0 2.972,-1.318 1.214,0.202 -1.743,1.511 2.318,0.187 2.255,0.496 -0.064,0.311 0.525,1.147 0.525,1.147 0,0 -1.393,1.494 0.406,0.892 6.172,-2.075 0.812,1.779 0.812,1.779 l .106,1.312 2.67,.464 1.578,-.15 c 0,0 1.381,-2.436 1.914,-3.098 0.535,-0.663 1.028,-3.284 1.028,-3.284 0,0 0.803,-0.084 -0.213,-0.468 -1.016,-0.385 0.972,-1.583 1.886,-1.434 l 4.303,-1.336 c 0.138,0.068 0.292,0.103 0.47,0.082 0.985,-0.114 0.489,1.603 1.294,2.25 0.796,0.644 2.627,1.264 3.283,0.469 -0.784,-0.594 0.674,-2.011 0.86,-0.751 0.187,1.249 0.767,0.723 0.767,0.723 0,0 1.543,-2.654 2.036,-4.177 0.27,0.377 2.788,-3.309 2.025,-5.067 -0.771,-1.78 0.479,-3.456 0.34,-3.715 -0.143,-0.256 -0.896,0.528 -0.34,0.34 0.561,-0.192 -1.589,0.772 -1.874,-2.061 -0.288,-2.89 -0.707,0.243 -0.985,1.169 0.377,1.508 4.29,-6.093 4.29,-6.093 l 5.044,-2.057 c 0,0.004 -11.481,-0.957 -25.254,5.226 z " transform="matrix(0.3850499,0,0,0.385971,-0.61343004,1.0015733)"/>
</g>
<path style="fill:#ff7200" id="path159" d="m 30.5625,4.7812 c -0.776653,0.023113 -1.1953,0.115592 -1.1875,0.125 0.02079,0.025474 5.68675,0.996698 6.6875,2.375 0,0 -2.39587,-0.0014583 -4.78125,0.6875 -0.107814,0.030878 8.77747,1.10105 10.5938,10 0,0 -0.983064,-2.02917 -2.1875,-2.375 0.792047,2.41541 0.598063,7.00325 -0.15625,9.28125 -0.09703,0.292952 -0.201592,-1.26591 -1.6875,-1.9375 0.475922,3.41855 -0.040115,8.85004 -2.40625,10.3438 -0.184439,0.116177 1.49158,-5.36435 0.34375,-3.25 -6.85273,10.532 -15.008,4.26641 -18.3125,2.03125 2.65222,0.651519 5.46268,0.179886 7.09375,-0.9375 1.64609,-1.12781 2.62555,-1.94492 3.5,-1.75 0.874063,0.195688 1.46009,-0.688702 0.78125,-1.46875 -0.679613,-0.781591 -2.32998,-1.86677 -4.5625,-1.28125 -1.57447,0.413375 -3.52164,2.17438 -6.5,0.40625 -2.54095,-1.50915 -2.53125,-2.75043 -2.53125,-3.53125 0,-0.781205 0.707327,-1.97617 1.96875,-1.78125 1.12974,0.174845 0.534397,-0.490183 1.75,0 0.331143,0.133546 -0.028694,-1.58092 -0.5,-2.6875 0.907563,-1.89859 3.84264,-2.45865 4.0625,-2.625 0.398142,-0.301829 0.176577,-0.451576 0.3125,-0.90625 0.127066,-0.42341 0.201507,-1.56611 -3.09375,-1.25 -1.51633,0.145511 -2.46512,-1.83428 -2.78125,-2.3125 0.102424,-0.608676 0.246191,-1.14677 0.46875,-1.65625 0.226024,-0.464323 0.472318,-0.89685 0.71875,-1.21875 0.07701,-0.100738 0.157912,-0.199038 0.21875,-0.28125 0.491323,-0.574325 1.08861,-1.06039 1.8125,-1.46875 0.377734,-0.213828 -4.21084,-0.0177708 -6.28125,2.6875 -0.555627,0.07256 -1.33538,-0.09375 -2.1875,-0.09375 -0.934045,0 -1.67985,0.096691 -2.375,0.25 0.0715475,-0.03056 0.147825,-0.068286 0.21875,-0.09375 -0.117731,-0.003857 -0.276298,0.006751 -0.4375,0.03125 0.343407,-0.155418 0.75,-0.3125 0.75,-0.3125 0,0 -0.640535,0.199532 -1.84375,-0.0625 -0.843914,-0.85629 -2.17571,-2.309 -2.25,-4.25 0,0 -2.82711,2.15714 -2.40625,8.0625 -0.0026591,0.234918 -0.0195371,0.399722 -0.03125,0.59375 -0.975137,1.07065 -2.17112,3.3104 -3.0625,8.34375 0,0 0.414072,-1.1739 1.15625,-2.53125 -0.562476,1.76752 -1.01129,4.4754 -0.75,8.53125 0,0 0.145129,-1.60234 0.65625,-3.625 -0.116606,2.93285 0.447362,6.66744 2.84375,10.7812 4.85317,8.33273 13.0177,11.9984 21.4688,11.2812 1.47821,-0.09649 2.95198,-0.327775 4.4375,-0.6875 19.6888,-4.77176 17.5625,-28.5938 17.5625,-28.5938 l -.5625,3.5312 c 0,0 -0.78776,-6.5244 -1.75,-8.96875 -1.47474,-3.74546 -2.12076,-3.72415 -2.125,-3.71875 0.987653,2.51614 0.8125,3.875 0.8125,3.875 0,0 -1.74786,-4.79139 -6.375,-6.3125 -3.42502,-1.12535 -5.79933,-1.28852 -7.09375,-1.25 z "/>
<g style="fill:#a73b00" id="g22">
<path id="path166" d="m 16.8944,11.6582 c 0,0 0.85096,2.33088 2.75965,2.32316 3.64142,-0.01467 3.71419,0.0359 3.73768,0.479762 0.07239,1.3509 -0.592977,1.79361 -0.847495,1.98582 -0.255288,0.191827 -3.72266,2.20698 -3.85011,2.78324 -0.127451,0.575868 -4.00105,-5.48002 -4.00105,-5.48002 l 2.2013,-2.092 z "/>
<path id="path200" d="m 17.5682,32.2394 c 1.70154,0.511412 5.4138,0.07063 7.00829,-1.11816 1.07429,-0.800504 1.88597,-1.40416 2.56867,-1.65659 -1.20675,-0.821733 -1.226,0.343128 -3.76348,0.93212 -5.28597,1.22932 -7.85232,-1.42616 -7.85232,-1.42616 0.374268,2.10123 1.68344,3.12443 2.27256,3.48763 -0.15633,-0.13895 -0.238345,-0.22039 -0.233725,-0.218846 z "/>
<path id="path232" d="m 5.7834,5.497 c 0,0 -2.92407,2.24828 -2.36536,8.4161 2.26332,-2.03677 5.46386,-3.55942 5.46386,-3.55942 -0.537145,-0.338883 -3.00108,-2.31467 -3.0985,-4.85667 z "/>
</g>
<path style="fill:#ff7200" id="path241" d="m 20.0625,7.2812 c -1.03606,-0.041366 -6.44897,0.774548 -7.0625,4.96875 l 2.7812,3.5 c -7.57898,3.15197 -8.66517,6.97448 -7.84375,6.84375 6.887,-1.09423 8.81624,-1.21888 11.125,-0.03125 0.0385,-0.999665 -0.025562,-3.41505 -1.0625,-4.46875 -0.396024,-0.402375 -0.653715,-0.849817 -0.8125,-1.3125 -0.930803,-4.79996 0.10384,-7.7861 3.03125,-9.4375 0.057709,-0.0326145 -0.008242,-0.0565906 -0.15625,-0.0625 z "/>
<path style="fill:#a73b00" id="path250" d="m 9.8954,25.767 c 0.748922,-4.73046 7.31672,-4.03494 7.31672,-4.03494 -0.293023,0.218073 -1.41814,0.348532 -1.74043,1.25093 -1.06351,2.97931 -0.04929,9.48755 6.57588,12.2171 0.698865,0.288706 -13.2588,-2.44243 -12.1522,-9.43313 z "/>
<path id="path377" d="m 23.3921,14.4612 c -0.0181,-0.336953 -0.06777,-0.446954 -1.67728,-0.474358 0.184438,0.08376 0.50249,0.251653 0.8525,0.539587 0.462445,0.379796 0.53753,0.803206 0.585276,1.24167 0.156715,-0.298742 0.27146,-0.710573 0.239501,-1.3069 z "/>
</svg>
