<svg width="48" version="1.1" xmlns="http://www.w3.org/2000/svg" viewBox="0 0 48 48" height="48" xmlns:xlink="http://www.w3.org/1999/xlink" style="overflow:visible">
<defs>
<linearGradient id="linearGradient4153">
<stop offset="0" style="stop-color:#fff;stop-opacity:.51"/>
<stop offset="1" style="stop-color:#fff;stop-opacity:0"/>
</linearGradient>
<linearGradient gradientTransform="scale(0.8)" xlink:href="#linearGradient4153" id="linearGradient4159" y1="9.6396875" x1="6.0155225" y2="39.580494" x2="29.109051" gradientUnits="userSpaceOnUse"/>
</defs>
<path style="opacity:.04" d="m 3.7841,3.638 c -1.76602,0 -3.20309,1.45417 -3.20309,3.2406 v 35.2216 c 0,3.01913 0.216545,3.2222 3.41904,3.2222 h 39.8185 c 3.42666,0 3.63802,-0.1988 3.63802,-3.222 v -35.2218 c 0,-1.78751 -1.43601,-3.2406 -3.20203,-3.2406 h -40.4704 Z "/>
<path style="opacity:.05" d="m 3.9843,3.8384 c -1.76602,0 -3.20309,1.45417 -3.20309,3.2406 v 34.8212 c 0,2.707 0.194719,2.9222 3.29394,2.9222 h 39.6935 c 3.18383,0 3.38801,-0.204 3.38801,-2.9214 v -34.822 c 0,-1.78751 -1.43601,-3.2406 -3.20203,-3.2406 h -39.9702 z "/>
<path style="opacity:.1" d="m 4.0056,4.0929 c -1.60581,0.037547 -3.0479,1.40851 -3.04407,3.13884 v 34.6044 c 0,2.40046 0.007763,2.40429 2.96618,2.40429 h 39.9659 c 2.94152,0 2.93151,0.0083 2.93151,-2.404 v -34.6047 c 0,-1.73138 -1.40955,-3.13884 -3.14302,-3.13884 h -39.6765 Z "/>
<path style="opacity:.17" d="m 4.3416,4.3308 c -1.88191,0 -3.14789,1.40867 -3.14406,3.139 l 0,34.885 c 0,1.38038 0.00491,1.385 2.132,1.385 h 40.888 c 2.26825,0 2.26404,-0.0025 2.26404,-1.685 v -34.5852 c 0,-1.73138 -1.36653,-3.13884 -3.1,-3.13884 h -39.0401 z "/>
<path style="opacity:.3" d="m 4.1496,4.6111 c -1.89567,0.16344 -2.66087,1.49411 -2.66088,2.73842 v 35.8908 h 44.6109 v -35.691 c 0,-1.60554 -1.15941,-2.93821 -2.81779,-2.93821 h -39.1323 z "/>
<path style="fill:#d0cabe" d="M 43.266,4.9246 H 4.1893 c -1.30402,0 -2.3604,1.05429 -2.3604,2.35517 v 3.50664 c 0,0.331229 0,8.42179 0,16.3817 0,7.69872 0,15.2752 0,15.597 0.778441,0 43.0169,0 43.7964,0 0,-0.321826 0,-7.8983 0,-15.597 0,-7.95995 0,-16.0495 0,-16.3817 V 7.27977 c 0,-1.30088 -1.05638,-2.35517 -2.35935,-2.35517 z"/>
<path style="fill:#006" d="m 42.6997,38.8038 c 0,0.497965 -0.380338,0.90187 -0.851583,0.90187 h -36.477 c -0.471244,0 -0.851583,-0.403905 -0.851583,-0.90187 V 8.4401 c 0,-0.499072 0.381384,-0.90187 0.851583,-0.90187 h 36.477 c 0.471245,0 0.851583,0.403904 0.851583,0.90187 z"/>
<path style="fill:#ecf0f1" d="m 19.9699,12.4 c -5.89157,0.161143 -9.96986,4.9344 -9.96986,11.1149 0,0.893603 0.100799,1.76595 0.283428,2.60527 l 8.9046,-.7145 c -0.262728,1.59831 -5.62779,4.7213 -7.14057,4.88204 1.86171,2.7796 4.80064,4.62087 8.004,4.66862 4.88785,0.06682 10.1475,-5.0909 11.8949,-9.09237 0.81282,1.94258 2.4093,4.44883 5.25362,4.44868 0,0 -1.32871,-3.50772 -1.32871,-6.72972 0,-3.22198 1.32871,-6.53924 1.32871,-6.53924 -2.89608,0 -4.50264,2.56133 -5.30124,4.4895 -1.76725,-3.47873 -6.86561,-9.06845 -11.9289,-9.13318 Z  m -2.8198,3.9136 c 1.54043,-0.115774 2.85375,1.10358 2.85242,2.64835 -0.07645,3.45988 -5.22932,3.45988 -5.30577,0 -0.0013,-1.38877 1.06854,-2.54359 2.45335,-2.64835 z "/>
<path style="fill:url(#linearGradient4159)" d="m 5.3718,7.5375 c -0.470199,0 -0.85156,0.404053 -0.85156,0.903128 v 30.2625 c 9.29256,-13.8294 21.5824,-23.0099 37.3156,-31.1656 h -36.4641 Z "/>
</svg>
