<svg width="48" version="1.1" xmlns="http://www.w3.org/2000/svg" viewBox="0 0 48 48" height="48" xmlns:xlink="http://www.w3.org/1999/xlink" style="overflow: visible;">
<defs>
<linearGradient id="linearGradient4153">
<stop offset="0" style="stop-color:#fff;stop-opacity:.51"/>
<stop offset="1" style="stop-color:#fff;stop-opacity:0"/>
</linearGradient>
<linearGradient id="linearGradient4733">
<stop offset="0"/>
<stop offset="1" style="stop-opacity:.2"/>
</linearGradient>
<linearGradient id="linearGradient7837">
<stop offset="0" style="stop-color:#d1d1d1"/>
<stop offset="1" style="stop-color:#f5f5f5"/>
</linearGradient>
<linearGradient id="linearGradient3570">
<stop offset="0" style="stop-color:#fff"/>
<stop offset="1" style="stop-color:#fff;stop-opacity:0"/>
</linearGradient>
<linearGradient gradientTransform="scale(0.5)" xlink:href="#linearGradient4733" id="linearGradient4759" y1="90" x1="13.8" y2="4.2" x2="13.391417" gradientUnits="userSpaceOnUse"/>
<linearGradient gradientTransform="matrix(0.8,0,0,0.8,0.390383,0.378415)" xlink:href="#linearGradient4153" id="linearGradient4159-5" y1="9.6396875" x1="6.0155225" y2="39.580494" x2="29.109051" gradientUnits="userSpaceOnUse"/>
<linearGradient gradientTransform="scale(0.5)" xlink:href="#linearGradient4733" id="linearGradient1" y1="90" x1="13.8" y2="4.2" gradientUnits="userSpaceOnUse" x2="13.391417"/>
<linearGradient gradientTransform="scale(0.5)" xlink:href="#linearGradient4733" id="linearGradient3" y1="90" x1="13.8" y2="4.2" gradientUnits="userSpaceOnUse" x2="13.391417"/>
<linearGradient gradientTransform="scale(0.5)" xlink:href="#linearGradient4733" id="linearGradient2" y1="90" x1="13.8" y2="4.2" gradientUnits="userSpaceOnUse" x2="13.391417"/>
<linearGradient gradientTransform="scale(0.5)" xlink:href="#linearGradient7837" id="linearGradient7839" y1="89" x1="14" y2="7" x2="14" gradientUnits="userSpaceOnUse"/>
<radialGradient fx="24.25" fy="43" cx="24.25" cy="43" gradientTransform="matrix(1.3427872,-0.00919718,0.01219515,1.7804878,-8.8369815,-33.337944)" xlink:href="#linearGradient3570" id="radialGradient5026" r="20.5" gradientUnits="userSpaceOnUse"/>
</defs>
<path style="opacity:.05;fill:url(#linearGradient1)" d="m 4.9499,3 h 38.1001 c 2.5761,0 4.65,2.0739 4.65,4.65 v 35.3 c 0,2.5761 -2.0739,4.65 -4.65,4.65 h -38.1001 c -2.5761,0 -4.65,-2.0739 -4.65,-4.65 v -35.3 c 0,-2.5761 2.0739,-4.65 4.65,-4.65 z "/>
<path style="opacity:.1;fill:url(#linearGradient2)" d="m 5.2,3 h 37.6001 c 2.4376,0 4.4,1.9624 4.4,4.4 v 35 c 0,2.4376 -1.9624,4.4 -4.4,4.4 h -37.6001 c -2.4376,0 -4.4,-1.9624 -4.4,-4.4 v -35 c 0,-2.4376 1.9624,-4.4 4.4,-4.4 z "/>
<path style="opacity:.15;fill:url(#linearGradient3)" d="m 5.5499,3 h 36.9001 c 2.2991,0 4.15,1.8509 4.15,4.15 v 34.7 c 0,2.2991 -1.8509,4.15 -4.15,4.15 h -36.9001 c -2.2991,0 -4.15,-1.8509 -4.15,-4.15 v -34.7 c 0,-2.2991 1.8509,-4.15 4.15,-4.15 z "/>
<path style="opacity:.3;fill:url(#linearGradient4759)" d="m 5.7,3 h 36.6001 c 2.1606,0 3.9,1.7394 3.9,3.9 v 34.6 c 0,2.1606 -1.7394,3.9 -3.9,3.9 h -36.6001 c -2.1606,0 -3.9,-1.7394 -3.9,-3.9 v -34.6 c 0,-2.1606 1.7394,-3.9 3.9,-3.9 z "/>
<path style="fill:url(#linearGradient7839)" d="m 5.8,3.5 c -1.939,0 -3.5,1.561 -3.5,3.5 v 34 c 0,1.939 1.561,3.5 3.5,3.5 h 36.4001 c 1.939,0 3.5,-1.561 3.5,-3.5 V 7 c 0,-1.939 -1.561,-3.5 -3.5,-3.5 z"/>
<path style="opacity:.6;fill:url(#radialGradient5026)" d="m 5.8,3.5 c -1.939,0 -3.5,1.561 -3.5,3.5 v 34 c 0,1.939 1.561,3.5 3.5,3.5 h 36.4001 c 1.939,0 3.5,-1.561 3.5,-3.5 V 7 c 0,-1.939 -1.561,-3.5 -3.5,-3.5 h -0.330078 c 1.84441,0 3.33008,1.48567 3.33008,3.33008 v 33.3399 c 0,1.84441 -1.03034,3.33008 -3.33008,3.33008 h -35.2399 c -2.62532,0 -3.83008,-1.48567 -3.83008,-3.33008 V 6.83008 C 2.8,4.98567 4.285651,3.5 6.130061,3.5 Z"/>
<path style="opacity:.3" d="m 2.3,41 v 0.5 c 0,1.939 1.561,3.5 3.5,3.5 h 36.4001 c 1.939,0 3.5,-1.561 3.5,-3.5 V 41 c 0,1.939 -1.561,3.5 -3.5,3.5 h -36.4001 c -1.939,0 -3.5,-1.561 -3.5,-3.5 z"/>
<path style="fill:#006" d="m 43.0901,39.1822 c 0,0.497965 -0.380338,0.90187 -0.851583,0.90187 h -36.477 c -0.471244,0 -0.851583,-0.403905 -0.851583,-0.90187 v -30.3637 c 0,-0.499072 0.381384,-0.90187 0.851583,-0.90187 h 36.477 c 0.471245,0 0.851583,0.403904 0.851583,0.90187 z "/>
<path style="fill:#ecf0f1" d="m 20.3603,12.7784 c -5.89157,0.161143 -9.96986,4.9344 -9.96986,11.1149 0,0.893603 0.100799,1.76595 0.283428,2.60527 l 8.9046,-.7145 c -0.262728,1.59831 -5.62779,4.7213 -7.14057,4.88204 1.86171,2.7796 4.80064,4.62087 8.004,4.66862 4.88785,0.06682 10.1475,-5.0909 11.8949,-9.09237 0.81282,1.94258 2.4093,4.44883 5.25362,4.44868 0,0 -1.32871,-3.50772 -1.32871,-6.72972 0,-3.22198 1.32871,-6.53924 1.32871,-6.53924 -2.89608,0 -4.50264,2.56133 -5.30124,4.4895 -1.76725,-3.47873 -6.86561,-9.06845 -11.9289,-9.13318 z  m -2.8198,3.9136 c 1.54043,-0.115774 2.85375,1.10358 2.85242,2.64835 -0.07645,3.45988 -5.22932,3.45988 -5.30577,0 -0.0013,-1.38877 1.06854,-2.54359 2.45335,-2.64835 z "/>
<path style="fill:url(#linearGradient4159-5)" d="m 5.7622,7.9159 c -0.470199,0 -0.85156,0.404053 -0.85156,0.903128 v 30.2625 c 9.29256,-13.8294 21.5824,-23.0099 37.3156,-31.1656 h -36.4641 z "/>
</svg>
