<svg xmlns="http://www.w3.org/2000/svg" viewBox="0 0 48 48"><defs><radialGradient cx="21.929" cy="-3.218" r="13" id="a" gradientUnits="userSpaceOnUse" gradientTransform="matrix(6.53697 0 0 3.70881-130.5 4.03)"><stop stop-color="#fff"/><stop offset="1" stop-color="#fff" stop-opacity="0"/></radialGradient><radialGradient cx="22.5" cy="28.12" r="14.538" id="b" gradientUnits="userSpaceOnUse" gradientTransform="matrix(.3545 1.5059-3.55405.83271 115.95-23.872)"><stop stop-color="#ef2929"/><stop offset="1" stop-color="#910101"/></radialGradient><radialGradient cx="24.837" cy="36.421" r="15.645" id="c" gradientUnits="userSpaceOnUse" gradientTransform="matrix(1.18443 0 0 .31182-4.116 24.947)"><stop/><stop offset="1" stop-opacity="0"/></radialGradient></defs><g fill-rule="evenodd" transform="matrix(1.06977 0 0 1.06963-1.674-1.673)"><g color="#000"><ellipse opacity=".04" fill="url(#c)" cx="25.302" cy="36.3" rx="18.53" ry="4.878"/><ellipse fill="url(#b)" cx="24" cy="24.01" rx="21.5" ry="21.494"/></g><path opacity=".6" fill="url(#a)" d="m23.617 2.501c-11.219.142-20.376 8.898-21.1 19.941 10.93 4.486 24.781-2.587 41.35-6.03-1.23-4.899-8.138-13.913-19.963-13.913-.092 0-.187-.001-.279 0"/></g><path fill="#fff" d="m35.622 9.412c-18.482.289-11.175 22.827-23.491 22.952v5.984c9.244-.118 11.927-5.674 13.904-11.273h6.62v-6.219h-4.3c1.406-2.928 3.383-5.1 7.263-5.289z"/></svg>