<svg width="48" version="1.1" xmlns="http://www.w3.org/2000/svg" height="48" xmlns:xlink="http://www.w3.org/1999/xlink">
<defs id="defs4">
<linearGradient id="linearGradient3232">
<stop offset="0" style="stop-color:#c3c8cd" id="stop17"/>
<stop offset="0.63882625" style="stop-color:#847b6c" id="stop19"/>
<stop offset="0.64923722" style="stop-color:#6f6659" id="stop21"/>
<stop offset="1" style="stop-color:#585248" id="stop23"/>
</linearGradient>
<linearGradient gradientTransform="matrix(1.0454545,0,0,1.0454545,58.499997,2.6727272)" id="linearGradient3220" xlink:href="#linearGradient3232" y1="4.5" x1="-42" y2="44.5" x2="-42" gradientUnits="userSpaceOnUse"/>
<linearGradient gradientTransform="matrix(-1.0454545,0,0,1.0454545,-11.545454,2.6727272)" xlink:href="#linearGradient3232" id="linearGradient4295" y1="4.5" x1="-42" y2="44.5" gradientUnits="userSpaceOnUse" x2="-42"/>
</defs>
<g style="stroke:#34302a;stroke-linejoin:round;stroke-linecap:round;stroke-width:1.045" id="g12">
<path style="fill:url(#linearGradient3220)" id="path57" d="m 23.4773,7.3773 0,28.8023 0,2.6136 0,3.3977 c 0,1.04545 -0.522728,1.56818 -1.56818,1.56818 h -13.5909 c -1.04545,0 -1.56818,-0.522728 -1.56818,-1.56818 v -3.39773 -2.61364 -2.14318 l 3.3977,-25.0909 c 0.177414,-1.31008 0.784091,-1.56818 1.82955,-1.56818 z "/>
<path style="fill:url(#linearGradient4295)" id="path4285" d="m 23.4773,7.3773 0,28.8023 0,2.6136 0,3.3977 c 0,1.04545 0.522727,1.56818 1.56818,1.56818 h 13.5909 c 1.04545,0 1.56818,-0.522728 1.56818,-1.56818 v -3.39773 -2.61364 -2.14318 l -3.3977,-25.0909 c -0.177413,-1.31008 -0.784091,-1.56818 -1.82955,-1.56818 Z "/>
</g>
<g style="stroke:none" id="g16">
<path style="fill:#34302a" id="path77" d="m 6.2273,3.7182 c -3.39773,0 -5.22727,1.30682 -5.22727,3.13636 v 1.04545 c 0,1.04545 0.784091,2.09091 2.09091,2.09091 2.875,0 4.70455,3.13636 4.70455,5.22727 v 2.875 c 0,1.82954 2.70804,-1.25622 4.70455,4.18182 2.49184,6.7873 7.31818,12.8068 12.5455,12.8068 4.18182,0 6.27273,-1.04545 6.27273,-3.13636 v -2.09091 c 0,-1.30682 -1.04546,-2.09091 -2.61364,-2.09091 -2.09091,0 -2.35227,2.09091 -3.65909,2.09091 -1.30682,0 -3.7905,-7.07271 -4.44318,-9.14773 -0.844623,-2.68525 0.784091,-1.30682 0.784091,-2.35227 v -4.44318 c 0,-0.522728 0,-0.522728 -4.18182,-0.784091 -2.875,-6.27273 -6.53409,-9.40909 -10.9773,-9.40909 z "/>
<path style="fill:#b1a695" id="path79" d="m 6.2273,4.7636 c -3.13636,0 -4.18182,1.04545 -4.18182,2.09091 0,0.522727 0.522727,1.04545 1.56818,1.04545 2.09091,0 1.04545,-2.09091 3.65909,-2.09091 1.56818,0 2.61364,2.35227 4.99853,8.20023 l -3.9531,.1634 v 1.04546 l 4.5739,.196 2.2216,5.554 c 2.35227,5.75 5.48864,10.9773 10.9773,10.9773 3.13636,0 4.18182,-1.04545 4.18182,-2.09091 0,-0.522727 -0.522727,-1.04545 -1.56818,-1.04545 -2.09091,0 -1.04545,2.09091 -3.65909,2.09091 -1.56818,0 -2.66079,-2.59377 -4.18182,-6.27273 l -3.8224,-9.2458 3.8224,-.1633 v -1.04546 l -4.4105,-.196 c -1.73608,-3.84187 -4.73727,-9.21307 -10.2259,-9.21307 Z  m 1.0455,4.1818 c -1.17614,0 -1.63352,0.261364 -2.09091,0.522727 1.57442,0.769433 2.74972,2.29138 3.29972,3.85511 0.309705,-0.057186 0.718489,-0.110191 1.40483,-0.196022 -0.522728,-2.09091 -1.30682,-4.18182 -2.61364,-4.18182 Z  m 1.5682,8.3636 0,.5227 c 1.56818,0 2.09091,0.522727 2.61364,1.04546 l -.5227,-1.5682 z  m 9.9318,0 1.0455,2.6136 c -0.522727,-2.09091 0,-2.09091 0.522727,-2.09091 v -0.522727 z "/>
</g>
<path style="stroke-opacity:.549;fill:none;stroke:#fff;stroke-width:.784" id="path81" d="m 6.2184,5.1603 c -3.08736,0 -3.78185,1.04033 -3.78185,1.57755 0,0.522727 0.385083,0.771044 1.25084,0.771044 1.61719,0 0.841089,-2.0592 3.569,-2.0592 2.09098,0 3.24742,3.32118 5.58339,8.92416 l -4.1515,.1797 .0063,.3063 4.464,.1706 2.4288,6.0683 c 2.35227,5.75 5.53767,10.4709 10.4382,10.4709 3.13636,0 3.85511,-0.9637 3.85511,-1.71517 0,-0.522727 -0.735059,-0.653409 -1.19245,-0.653409 -1.74789,0 -0.816813,2.0746 -3.64278,2.0746 -1.92751,0 -2.98174,-2.77589 -4.50852,-6.45244 l -4.0838,-9.8339 4.0127,-.1469 -.0024,-.2941 -4.2684,-.1807 c -2.82722,-6.62256 -6.24931,-9.20749 -9.97667,-9.20749 Z "/>
<g style="stroke:none" id="g21">
<path style="fill:#34302a" id="path4271" d="m 21.9091,3.7182 c -3.39773,0 -5.22727,1.30682 -5.22727,3.13636 v 1.04545 c 0,1.04545 0.784091,2.09091 2.09091,2.09091 2.875,0 4.70455,3.13636 4.70455,5.22727 v 2.875 c 0,1.82954 2.70804,-1.25622 4.70454,4.18182 2.49184,6.7873 7.31818,12.8068 12.5455,12.8068 4.18182,0 6.27273,-1.04545 6.27273,-3.13636 v -2.09091 c 0,-1.30682 -1.04545,-2.09091 -2.61364,-2.09091 -2.09091,0 -2.35227,2.09091 -3.65909,2.09091 -1.30682,0 -3.79051,-7.07271 -4.44318,-9.14773 -0.844623,-2.68525 0.784091,-1.30682 0.784091,-2.35227 v -4.44318 c 0,-0.522728 0,-0.522728 -4.18182,-0.784091 -2.875,-6.27273 -6.53409,-9.40909 -10.9773,-9.40909 z "/>
<path style="fill:#b1a695" id="path4273" d="m 21.9091,4.7636 c -3.13636,0 -4.18182,1.04545 -4.18182,2.09091 0,0.522727 0.522727,1.04545 1.56818,1.04545 2.09091,0 1.04545,-2.09091 3.65909,-2.09091 1.56818,0 2.61364,2.35227 4.99853,8.20023 l -3.9531,0.1634 0,1.04546 4.5739,0.196 2.2216,5.554 c 2.35227,5.75 5.48864,10.9773 10.9773,10.9773 3.13636,0 4.18182,-1.04545 4.18182,-2.09091 0,-0.522727 -0.522727,-1.04545 -1.56818,-1.04545 -2.09091,0 -1.04545,2.09091 -3.65909,2.09091 -1.56818,0 -2.66079,-2.59377 -4.18182,-6.27273 l -3.8224,-9.2458 3.8224,-0.1633 0,-1.04546 -4.4105,-0.196 C 30.39893,10.13483 27.39774,4.76363 21.90911,4.76363 Z m 1.0455,4.1818 c -1.17614,0 -1.63352,0.261364 -2.09091,0.522727 1.57442,0.769433 2.74972,2.29138 3.29972,3.85511 0.309706,-0.05719 0.718489,-0.110191 1.40483,-0.196022 C 25.045513,11.036305 24.26142,8.945395 22.9546,8.9454 Z m 1.5682,8.3636 0,0.5227 c 1.56818,0 2.09091,0.522727 2.61364,1.04546 l -0.5227,-1.5682 z"/>
</g>
<path style="stroke-opacity:.549;fill:none;stroke:#fff;stroke-width:.784" id="path4275" d="m 21.9002,5.1603 c -3.08736,0 -3.78185,1.04033 -3.78185,1.57755 0,0.522727 0.385083,0.771044 1.25084,0.771044 1.61719,0 0.841089,-2.0592 3.569,-2.0592 2.09098,0 3.24742,3.32118 5.58339,8.92416 l -4.1515,.1797 .0063,.3063 4.464,.1706 2.4288,6.0683 c 2.35227,5.75 5.53767,10.4709 10.4382,10.4709 3.13636,0 3.85511,-0.9637 3.85511,-1.71517 0,-0.522727 -0.735059,-0.653409 -1.19244,-0.653409 -1.7479,0 -0.816814,2.0746 -3.64278,2.0746 -1.92751,0 -2.98174,-2.77589 -4.50852,-6.45244 l -4.0838,-9.8339 4.0127,-.1469 -.0024,-.2941 -4.2684,-.1807 c -2.82723,-6.62256 -6.24932,-9.20749 -9.97668,-9.20749 Z "/>
</svg>
