<svg width="48" version="1.1" xmlns="http://www.w3.org/2000/svg" height="48" xmlns:xlink="http://www.w3.org/1999/xlink">
<defs id="defs4">
<linearGradient id="linearGradient3766">
<stop offset="0" style="stop-color:#ffc900" id="stop3768"/>
<stop offset="1" style="stop-color:#f00" id="stop3770"/>
</linearGradient>
<linearGradient gradientTransform="translate(2.3791e-4,1004.3622)" xlink:href="#linearGradient3766" id="linearGradient3772" y1="5.3121781" x1="13.232871" y2="41.281158" x2="41.708076" gradientUnits="userSpaceOnUse"/>
</defs>
<g style="stroke:none" id="layer1" transform="translate(0,-1004.3622)">
<path style="opacity:.55" id="path4141" d="m 31.0627,1007.3622 c 0,0 -19.386,6.583 -21.244,11.1437 l -5.6935,8.7313 .5998,.8 h 7.84375 l -4.256,9.8563 .5998,.8 h 7.75 l 3.7188,-10.6563 h 2.5 l 3.5312,-9 -.5998,-.8 -7.244,.8 c 0.40364,-2.1815 1.2347,-2.875 3.3125,-2.875 h 7.5625 l 2.2188,-8 z  m -6.375,18.5938 .5998,.8 5.375,0 c 2.93058,0 3.05593,3.5 -1.3125,3.4375 l -10.631,6.45 .5998,.8 h 14 c 2.14936,0 2.38865,3.2812 -0.9375,3.2812 l -29.881,8.6375 .5998,.8 h 27.2188 c 9.27823,0 14.0959,-3.7193 15.4062,-9.0312 1.4473,-5.8671 -1.31909,-11.7013 -7.96875,-11.6563 4.43262,-1.8125 3.53016,-10.2023 -2.09375,-10.4375 z "/>
<path style="fill:url(#linearGradient3772)" id="path2993" d="m 20.844,1007.3622 c -8.10065,0 -9.76705,5.783 -11.625,10.3437 l -2.625,.25 -2.4688,9.2813 h 7.84375 l -3.6563,10.6563 h 7.75 l 3.7188,-10.6563 h 2.5 l 3.5312,-9 h -7.84375 c 0.40364,-2.1815 1.2347,-2.875 3.3125,-2.875 h 7.5625 l 2.2188,-8 h -10.2188 z  m 7.0625,10.875 -3.2188,7.7188 5.375,0 c 2.93058,0 3.05593,3.5 -1.3125,3.4375 h -7.21875 l -2.8125,7.25 h 14 c 2.14936,0 2.38865,3.2812 -0.9375,3.2812 h -26.6563 l -2.625,9.4375 h 27.2188 c 9.27823,0 14.0959,-3.7193 15.4062,-9.0312 1.4473,-5.8671 -1.31909,-11.7013 -7.96875,-11.6563 4.43262,-1.8125 3.53016,-10.2023 -2.09375,-10.4375 h -7.15625 z "/>
</g>
</svg>
