<svg width="48" version="1.1" xmlns="http://www.w3.org/2000/svg" height="48" xmlns:xlink="http://www.w3.org/1999/xlink">
<defs id="defs4">
<linearGradient id="linearGradient3670-5">
<stop offset="0" style="stop-color:#fafafa" id="stop3672-4"/>
<stop offset="1" style="stop-color:#c8c8c8" id="stop3674-0"/>
</linearGradient>
<linearGradient gradientTransform="matrix(0.46071209,0,0,0.46071209,4.6363538,1006.248)" xlink:href="#linearGradient3834" id="linearGradient3813" y1="60.327255" x1="69.087135" y2="36.595539" gradientUnits="userSpaceOnUse" x2="69.087135"/>
<linearGradient id="linearGradient3834">
<stop offset="0" style="stop-color:#d40000" id="stop3836-4"/>
<stop offset="1" style="stop-color:#d41400" id="stop3838-6"/>
</linearGradient>
<linearGradient gradientTransform="translate(-1.3999988,0)" xlink:href="#linearGradient3670-5" id="linearGradient3780" y1="1009.1693" x1="12.434731" y2="1047.5551" x2="12.564446" gradientUnits="userSpaceOnUse"/>
<linearGradient gradientTransform="translate(-1.3999997,0)" xlink:href="#linearGradient3670-5" id="linearGradient3772" y1="1009.1693" x1="22.622" y2="1047.5551" x2="22.877985" gradientUnits="userSpaceOnUse"/>
<linearGradient gradientTransform="matrix(0.46071209,0,0,0.46071209,-14.685287,1006.248)" xlink:href="#linearGradient3670-5" id="linearGradient3839" y1="8" x1="64" y2="88" gradientUnits="userSpaceOnUse" x2="64"/>
</defs>
<g id="layer1" transform="translate(0,-1004.3622)">
<g style="color:#000" id="g16">
<g style="stroke-width:.5" id="g18">
<rect width="24.878452" x="1.2" y="1009.7124" rx="2.7642725" ry="2.7642725" height="38.699814" style="opacity:.36;stroke:#000" id="rect3779"/>
<path style="fill:url(#linearGradient3839);stroke:#c8c8c8" id="rect3785-2" d="m 4.6646,1009.0123 19.3499,0 c 1.53141,0 2.76427,1.2329 2.76427,2.7643 v 33.1713 c 0,1.5314 -1.23287,2.7642 -2.76427,2.7642 h -19.3499 c -1.98453,0 -2.76427,-0.7055 -2.76427,-2.7642 v -33.1713 c 0,-1.5314 1.23287,-2.7643 2.76427,-2.7643 z "/>
<rect width="24.878454" x="10.461" y="1009.7124" rx="2.7642727" ry="2.7642727" height="38.699814" style="opacity:.36;stroke:#000" id="rect3777"/>
<path style="fill:url(#linearGradient3780);stroke:#c8c8c8" id="rect3698-2" d="m 13.9253,1009.0123 19.3499,0 c 1.53141,0 2.76427,1.2329 2.76427,2.7643 v 33.1713 c 0,1.5314 -1.23286,2.7642 -2.76427,2.7642 h -19.3499 c -1.97938,0 -2.76427,-0.7694 -2.76427,-2.7642 v -33.1713 c 0,-1.5314 1.23287,-2.7643 2.76427,-2.7643 z "/>
<rect width="24.878454" x="20.521999" y="1009.7124" rx="2.7642727" height="38.699814" ry="2.7642727" style="opacity:.36;stroke:#000" id="rect3775"/>
<path style="fill:url(#linearGradient3772);stroke:#c8c8c8" id="rect3666-4" d="m 23.9863,1009.0123 19.3499,0 c 1.53141,0 2.76427,1.2329 2.76427,2.7643 v 33.1713 c 0,1.5314 -1.23286,2.7642 -2.76427,2.7642 h -19.3499 c -2.10668,0 -2.76427,-0.9124 -2.76427,-2.7642 v -33.1713 c 0,-1.5314 1.23287,-2.7643 2.76427,-2.7643 z "/>
</g>
<path style="fill:url(#linearGradient3813);stroke:none;stroke-width:1.5" id="path3805-7" d="m 25.2276,1010.8622 -1.7917,5.039 -.6047,.112 0,.2015 1.7469,0 0,-.2015 -.7167,-.112 .5375,-1.5453 2.0828,0 .5151,1.5453 -.6943,.112 0,.2015 2.2396,0 0,-.2015 -.6719,-.112 -1.8812,-5.039 -.7615,0 z  m .2016,.5599 .9406,2.5979 -1.8588,0 .9182,-2.5979 z  m -.9182,6.1364 c -0.740715,0 -1.34374,0.603 -1.34374,1.3437 0,0.046 -0.0045,0.089 0,0.1344 0.115718,1.9867 2.68749,3.8968 2.68749,3.8968 0,0 2.54624,-1.9894 2.66509,-3.8968 0.0046,-0.045 0.0224,-0.088 0.0224,-0.1344 0,-0.7407 -0.603029,-1.3437 -1.34374,-1.3437 -0.740714,0 -1.34374,0.603 -1.34374,1.3437 0,-0.7407 -0.603029,-1.3437 -1.34374,-1.3437 z  m 6.3828,5.2854 c -1.48874,0 -2.69529,1.1685 -2.75467,2.6427 -0.0041,0.036 0,0.076 0,0.1119 0,0.095 -0.0095,0.1983 0,0.2912 0.01491,0.2559 0.06024,0.5079 0.111978,0.7615 0.05177,0.2536 0.117972,0.4895 0.201562,0.739 0.0023,0.01 -0.0023,0.016 0,0.022 0.08214,0.2428 0.183667,0.4795 0.291144,0.7167 0.112544,0.2499 0.222836,0.4972 0.358332,0.739 0.132117,0.2358 0.276696,0.4457 0.425519,0.6719 1.63579,2.4937 4.14321,4.3447 4.14321,4.3447 0,0 2.48482,-1.9234 4.12081,-4.4119 0.145349,-0.2204 0.295988,-0.4437 0.425518,-0.6719 0.0033,-0.01 -0.0033,-0.016 0,-0.022 0.132193,-0.2338 0.247815,-0.4543 0.358332,-0.6942 0.113563,-0.2465 0.205869,-0.4884 0.291145,-0.7391 0.08145,-0.237 0.150017,-0.4778 0.201561,-0.7167 0.0016,-0.01 -0.0015,-0.015 0,-0.022 0.05207,-0.2459 0.09667,-0.471 0.111979,-0.7167 0.0094,-0.093 0,-0.1957 0,-0.2911 0,-0.036 0.0041,-0.076 0,-0.112 -0.05939,-1.4741 -1.26593,-2.6427 -2.75467,-2.6427 -1.52667,0 -2.75467,1.228 -2.75467,2.7547 0,-1.5267 -1.25041,-2.7547 -2.77707,-2.7547 z  m 10.6828,10.9291 c 0,0 -2.57155,1.9065 -2.68749,3.8969 -0.0046,0.046 0,0.089 0,0.1343 0,0.7421 0.601625,1.3438 1.34374,1.3438 0.742118,0 1.34374,-0.6017 1.34374,-1.3438 0,0.7421 0.601626,1.3438 1.34374,1.3438 0.742117,0 1.34374,-0.6017 1.34374,-1.3438 0,-0.047 -0.01781,-0.089 -0.0224,-0.1343 -0.11908,-1.911 -2.66509,-3.8969 -2.66509,-3.8969 z  m -3.0234,6.7187 0,.224 .6047,.09 1.7917,5.0614 .7615,0 1.8812,-5.0614 .6719,-.09 0,-.224 -2.2396,0 0,.224 .6943,.09 -.5151,1.5452 -2.0828,0 -.5375,-1.5452 .7167,-.09 0,-.224 -1.7469,0 z  m 1.6797,2.2172 1.8364,0 -.9182,2.5979 -.9182,-2.5979 z "/>
</g>
<g style="font-family:Serif;text-align:start;stroke:none;word-spacing:0;line-height:125%;letter-spacing:0;font-size:10.88891315px" id="g27">
<path style="fill:#d50404" id="path3910" d="m 6.0436,1010.8622 c -0.250336,0 -0.499085,0.019 -0.761454,0.09 -0.259963,0.071 -0.526296,0.1791 -0.783851,0.3135 v 0.9406 h 0.403123 c 0.0337,-0.3349 0.148184,-0.5716 0.335936,-0.739 0.187749,-0.1675 0.439639,-0.2688 0.783851,-0.2688 0.332172,0 0.596096,0.1131 0.78385,0.3136 0.190155,0.2005 0.291142,0.4725 0.291144,0.8286 -2e-06,0.3255 -0.06991,0.6434 -0.223957,0.9406 -0.154054,0.2949 -0.422793,0.6092 -0.78385,0.963 l -1.6349,1.6125 v 0.3807 h 3.47134 v -1.2317 h -0.403123 v 0.6495 h -2.26197 l 1.3661,-1.3438 c 0.02888,-0.028 0.0766,-0.058 0.134375,-0.1119 0.736557,-0.7194 1.09739,-1.3423 1.09739,-1.8589 -3e-06,-0.4576 -0.167756,-0.8084 -0.492706,-1.075 -0.324957,-0.2665 -0.760504,-0.4031 -1.32135,-0.4031 z  m .3807,6.7187 c -0.228281,0 -1.22712,1.1375 -1.38854,1.2989 -0.161419,0.1614 -1.29895,1.1603 -1.29895,1.3886 0,0.2282 1.13753,1.2271 1.29895,1.3885 0.161419,0.1614 1.16025,1.2989 1.38854,1.2989 0.228281,0 1.22712,-1.1375 1.38854,-1.2989 0.16142,-0.1614 1.29895,-1.1603 1.29895,-1.3885 0,-0.2283 -1.13753,-1.2272 -1.29895,-1.3886 -0.161419,-0.1614 -1.16025,-1.2989 -1.38854,-1.2989 z "/>
<path id="path3913" d="m 12.9623,1010.9294 0,.3807 .6943,0 0,4.5463 -.6943,0 0,.3807 2.1276,0 0,-.3807 -.6943,0 0,-2.15 2.5755,2.5307 1.2766,0 0,-.3807 -.6271,0 -2.6203,-2.5531 2.3516,-1.9932 .6047,0 0,-.3807 -1.8141,0 0,.3807 .6047,0 -2.3516,2.0156 0,-2.0156 .6943,0 0,-.3807 -2.1276,0 z  m 2.7771,6.6739 c 0,0 -2.27164,1.4285 -2.37395,2.9338 -0.0041,0.034 0,0.077 0,0.112 0,0.5612 0.532177,1.0078 1.18697,1.0078 0.535819,0 0.972928,-0.2984 1.11979,-0.7167 -0.240955,1.5388 -1.29895,2.0828 -1.29895,2.0828 h 2.70988 c 0,0 -1.07115,-0.5562 -1.29895,-2.1276 0.130258,0.44 0.588334,0.7615 1.14218,0.7615 0.654796,0 1.16458,-0.4466 1.16458,-1.0078 0,-0.035 0.0041,-0.078 0,-0.112 -0.105069,-1.4452 -2.35155,-2.9338 -2.35155,-2.9338 z "/>
</g>
</g>
</svg>
