<svg width="48" version="1.1" xmlns="http://www.w3.org/2000/svg" height="48" xmlns:xlink="http://www.w3.org/1999/xlink">
<defs id="defs4">
<linearGradient gradientTransform="matrix(0.98828363,0,0,1.1992121,0.61806026,1000.5298)" xlink:href="#linearGradient4506" id="linearGradient4512" y1="23.596062" x1="12.717006" y2="26.342415" x2="14.309168" gradientUnits="userSpaceOnUse"/>
<linearGradient gradientTransform="matrix(0.98828363,-0.09097422,0,1.1992121,0.61806026,1001.6202)" xlink:href="#linearGradient4493" id="linearGradient4499" y1="4.8833561" x1="15.424107" y2="22.096411" x2="19.700893" gradientUnits="userSpaceOnUse"/>
<linearGradient gradientTransform="matrix(0.98828363,0,0,1.1992121,0.61806026,1000.5298)" xlink:href="#linearGradient4506" id="linearGradient4525" y1="14.484375" x1="12.375" y2="19.57366" x2="15.776786" gradientUnits="userSpaceOnUse"/>
<linearGradient gradientTransform="matrix(0.93905306,0,0,1.1394743,1.9034496,-142.76643)" xlink:href="#linearGradient4450" id="linearGradient4456" y1="1020.3143" x1="24.85956" y2="1035.6715" x2="39.910713" gradientUnits="userSpaceOnUse"/>
<linearGradient id="linearGradient4493">
<stop offset="0" style="stop-color:#fff" id="stop4495"/>
<stop offset="1" style="stop-opacity:0" id="stop4497"/>
</linearGradient>
<linearGradient id="linearGradient4506">
<stop offset="0" style="stop-color:#fff" id="stop4508"/>
<stop offset="1" style="stop-color:#fff;stop-opacity:0" id="stop4510"/>
</linearGradient>
<linearGradient id="linearGradient4450">
<stop offset="0" style="stop-color:#fff200" id="stop4452"/>
<stop offset="1" style="stop-color:#a99400" id="stop4454"/>
</linearGradient>
</defs>
<g style="stroke:none" id="layer1" transform="translate(0,-1004.3622)">
<g style="word-spacing:0;letter-spacing:0;line-height:125%;font-size:22px;text-align:start;font-family:Bitstream Vera Sans">
<path style="fill:#007a12;font-weight:bold" id="path4430" d="m 27.3733,1040.4257 -10.8331,5.479 2.299,.8395 c 2.6272,0.9598 5.10253,1.4537 7.41946,1.4803 2.32662,0.033 4.37081,-0.4089 6.12981,-1.3166 1.74413,-0.9001 2.37668,-1.8327 1.90441,-2.7981 -0.470943,-0.962 -2.01768,-1.9151 -4.63705,-2.8602 l -2.2825,-.8239 m -2.9228,-3.9966 6.6741,2.3991 c 3.74415,1.346 7.59729,1.7897 9.05631,2.6453 1.04453,0.6607 1.25057,0.4583 1.7072,3.3371 0.382518,2.4115 -1.21795,3.6667 -2.83199,4.5177 -1.3234,0.6975 -2.80157,1.2106 -4.42519,1.5497 -1.61885,0.3358 -3.4212,0.4972 -5.40588,0.4838 -2.27484,-0.013 -4.5523,-0.2641 -6.82971,-0.7518 -2.26759,-0.4915 -5.2775,-1.4254 -9.02153,-2.7982 l -6.7528,-2.4762 -.513,-2.8073 18.3425,-6.0992"/>
<path style="fill:url(#linearGradient4456);font-weight:bold" id="path4428" d="m 42.4879,1025.0489 c 1.57842,-1.1643 1.68727,-1.274 2.43403,-2.146 0.736684,-0.8607 1.08347,-2.2352 1.08347,-3.8713 0,-2.4378 -0.920628,-4.6596 -2.76188,-6.666 -1.84141,-1.9954 -4.52752,-3.6956 -8.05863,-5.1006 -1.2455,-0.4957 -2.4966,-0.8894 -3.75299,-1.1805 -1.24565,-0.298 -2.48042,-0.4875 -3.70429,-0.5681 l -1.3059,2.1579 1.3059,2.7337 c 1.16973,-0.1275 2.32872,-0.1164 3.47682,0.032 1.15899,0.1645 2.2962,0.4688 3.41193,0.9128 1.65719,0.6597 2.92432,1.4546 3.80169,2.3857 0.888262,0.9354 1.33232,1.9467 1.33232,3.0336 0,1.12 -0.454944,1.7844 -1.36483,1.9933 -0.899001,0.2244 -2.23116,-0.016 -3.99665,-0.7174 l -2.502,-.9955 -1.4158,2.1578 1.4158,1.9267 2.632,1.0475 c 1.57052,0.6247 2.74025,1.3374 3.50934,2.1373 0.769078,0.8113 1.15354,1.7273 1.15354,2.7485 0,0.9443 -0.373724,1.5258 -1.12103,1.7443 -0.747301,0.2187 -1.80344,0.059 -3.16813,-0.4863 -1.00729,-0.4007 -2.02547,-0.9209 -3.05454,-1.5613 -1.02892,-0.6399 -2.05254,-1.3878 -3.07057,-2.2431 l -1.3338,2.1578 1.3338,2.487 c 1.23476,0.8423 2.45864,1.5931 3.67177,2.2516 1.21313,0.6582 2.40449,1.2201 3.57437,1.6858 3.15194,1.2541 4.42204,3.5018 5.98168,3.0683 1.57053,-0.418 3.44148,-3.5187 3.44163,-5.6268 -0.000152,-1.4386 -0.373728,-2.7675 -1.12118,-3.9871 -0.747301,-1.209 -1.85215,-2.2907 -3.31438,-3.2462"/>
<path style="fill:#ff3b2c;font-weight:bold" id="path4425" d="m 20.7203,1027.5448 c -1.25893,1.4392 -2.56583,2.7004 -3.92083,3.7836 -1.35512,1.0831 -2.75383,1.9859 -4.19623,2.7083 -3.5616,4.7256 -5.8442,1.7247 -7.74999,0.2757 -1.90579,-1.4607 -2.85868,-4.254 -2.85868,-8.3792 0,-4.1716 0.970351,-7.9395 2.91118,-11.3035 1.9407,-3.3641 4.59833,-5.8909 7.97277,-7.5809 1.30263,-0.6523 2.54838,-1.1142 3.73736,-1.3863 1.19765,-0.2763 2.32535,-0.3615 3.38323,-0.2545 l 2.2114,1.6538 c -1.09279,-0.2732 -4.39255,3.3617 -5.47667,3.5001 -1.07521,0.1341 -2.15494,0.4727 -3.23894,1.0156 -2.01065,1.0069 -3.56243,2.5292 -4.6551,4.5672 -1.08412,2.022 -1.62612,4.4141 -1.62612,7.1758 0,2.7389 0.524544,4.5908 1.57363,5.5561 1.04897,0.9654 2.53959,0.9644 4.47162,0 0.524421,-0.2625 1.00966,-0.5459 1.45559,-0.8498 0.454474,-0.3198 0.861442,-0.6625 1.21997,-1.027 l -.0005,-5.0268 -.8703,3.1973 -2.2117,-1.6536 v -4.4731 l 7.8683,-3.9398 2.2112,1.6538 -2.2112,10.7922"/>
</g>
<path style="opacity:.333;fill:#7e7e7e" id="path4460" d="m 15.9345,1026.996 .0997,-5.4477 2.1111,1.9299 0,5.1154 z "/>
<g style="word-spacing:0;letter-spacing:0;line-height:125%;font-size:22px;text-align:start;font-family:Bitstream Vera Sans">
<path style="fill:#b20d00;font-weight:bold" id="path2991" d="m 22.9316,1029.1987 c -1.25893,1.4394 -2.56583,2.7006 -3.92083,3.7836 -1.35512,1.0832 -2.75382,1.986 -4.19623,2.7084 -3.26091,1.633 -5.8442,1.7247 -7.74999,0.2757 -1.90579,-1.4608 -2.85868,-4.2539 -2.85868,-8.3792 0,-4.1717 0.970351,-7.9393 2.91118,-11.3034 1.9407,-3.3641 4.59833,-5.891 7.97277,-7.581 1.30263,-0.6523 2.54838,-1.1144 3.73736,-1.3863 1.19765,-0.2764 2.32549,-0.3618 3.38337,-0.2546 l -.0001,3.7968 c -2.31971,0.2253 -4.70149,1.0539 -6.59248,2.2658 -1.74451,1.118 -3.47419,2.6363 -4.56686,4.6742 -1.08412,2.0222 -1.62612,4.4142 -1.62612,7.1761 0,2.7387 0.524544,4.5907 1.57363,5.5559 1.04897,0.9654 2.53959,0.9642 4.47162,0 0.524422,-0.2626 1.00966,-0.546 1.45559,-0.8498 0.454474,-0.3199 0.861009,-0.6626 1.21953,-1.0272 l -0,-5.0267 -3.0814,1.5437 v -4.473 l 7.8678,-3.9401 -0,12.4461"/>
<path style="fill:#9a8600;font-weight:bold" id="path2993" d="m 39.3433,1025.4727 c 1.59217,0.2226 2.79948,-0.031 3.62192,-0.7594 0.832897,-0.7135 1.24942,-1.8884 1.24942,-3.5244 0,-2.4376 -0.896206,-4.6595 -2.68862,-6.6659 -1.79256,-1.9956 -4.40741,-3.6957 -7.84485,-5.1009 -1.21246,-0.4956 -2.43037,-0.8893 -3.65343,-1.1802 -1.21261,-0.2981 -2.41462,-0.4871 -3.60602,-0.5676 l 0,4.8911 c 1.1387,-0.1275 2.26694,-0.1164 3.38459,0.032 1.12825,0.1648 2.23529,0.469 3.32142,0.9129 1.61323,0.6596 2.84674,1.4545 3.70084,2.3857 0.864697,0.9353 1.29697,1.9466 1.29697,3.0338 0,1.1199 -0.442874,1.7842 -1.32863,1.993 -0.875153,0.2244 -2.17198,-0.015 -3.89063,-0.7171 l -2.4353,-.9953 -.0004,4.0841 2.5621,1.0473 c 1.52887,0.625 2.66756,1.3376 3.41624,2.1378 0.748677,0.811 1.12294,1.7271 1.12294,2.7482 0,0.9445 -0.363812,1.5259 -1.09129,1.7444 -0.727477,0.2189 -1.7556,0.058 -3.08408,-0.4865 -0.980572,-0.4006 -1.97174,-0.921 -2.97351,-1.5612 -1.00163,-0.6402 -1.99845,-1.3873 -2.98947,-2.2426 l .0003,4.644 c 1.20201,0.8428 2.39342,1.5933 3.57437,2.2516 1.18095,0.6586 2.34071,1.2203 3.47955,1.6861 3.06833,1.2542 5.36163,1.6644 6.87989,1.2307 1.52887,-0.418 2.2933,-1.6813 2.29344,-3.7893 -0.000148,-1.4382 -0.363812,-2.7675 -1.09144,-3.9872 -0.727476,-1.2088 -1.80301,-2.2905 -3.22646,-3.2458"/>
<path style="fill:#00e122;font-weight:bold" id="path2995" d="m 26.8603,1037.6185 -10.8331,5.4788 2.299,.8398 c 2.62718,0.9595 5.10251,1.4534 7.41944,1.48 2.32662,0.033 4.37081,-0.409 6.12981,-1.3167 1.74411,-0.9001 2.37668,-1.8326 1.90441,-2.7979 -0.470945,-0.9621 -2.0177,-1.9154 -4.63707,-2.8606 l -2.2825,-.8234 m -2.9229,-3.9969 6.6741,2.3991 c 3.74415,1.3461 6.34924,2.4477 7.80829,3.3035 1.48163,0.8579 2.43726,1.7583 2.86488,2.701 0.388958,0.8293 0.35682,1.6149 -0.09811,2.3558 -0.456342,0.7435 -1.33685,1.4566 -2.64354,2.14 -1.32634,0.6935 -2.80157,1.2104 -4.42519,1.5496 -1.61885,0.3358 -3.4212,0.4972 -5.40588,0.4838 -2.27484,-0.013 -4.5523,-0.264 -6.82971,-0.7519 -2.26759,-0.4915 -5.27747,-1.4253 -9.02153,-2.7981 l -6.7528,-2.4761 17.8295,-8.9067"/>
</g>
<path style="opacity:.333;fill:#727272" id="path4458" d="m 12.852,1023.5129 0,-4.4731 2.2118,1.6541 0,4.473 z "/>
<g style="word-spacing:0;letter-spacing:0;line-height:125%;font-size:22px;text-align:start;font-family:Bitstream Vera Sans">
<path style="opacity:.672;fill:url(#linearGradient4499);font-weight:bold" id="path4478" d="m 18.3454,1005.3848 c -0.563866,0.042 -1.13067,0.1335 -1.7295,0.2716 -1.18898,0.2719 -2.43432,0.7411 -3.73695,1.3934 -3.37444,1.6901 -6.02733,4.2273 -7.96804,7.5914 -1.94082,3.3641 -2.90308,7.1134 -2.90308,11.285 0,4.1252 0.935526,6.9346 2.84132,8.3953 0.78553,0.5972 1.64839,1.4196 2.62513,1.8943 -0.134639,-0.083 -0.27301,-0.1651 -0.40149,-0.2626 -1.90579,-1.461 -2.8722,-4.2297 -2.8722,-8.355 0,-4.1717 0.962259,-7.9585 2.90308,-11.3225 1.9407,-3.3641 4.62448,-5.867 7.99892,-7.557 1.30263,-0.6521 2.54797,-1.1212 3.73695,-1.3932 1.10542,-0.2551 2.13291,-0.3583 3.11927,-0.2871 0.08229,0.011 0.165607,0.011 0.247071,0.014 l -2.1928,-1.6344 c -0.528936,-0.053 -1.10386,-0.077 -1.66773,-0.034 z "/>
<path style="opacity:.545;fill:url(#linearGradient4512);font-weight:bold" id="path4501" d="m 15.9365,1026.9874 c 0,0 -0.780879,0.7297 -1.23536,1.0493 -0.445927,0.3041 -0.92712,0.562 -1.45154,0.8246 -1.15089,0.5744 -2.12728,0.8218 -2.96485,0.7119 0.204794,0.3821 0.431343,0.7178 0.710329,0.9744 1.04897,0.9654 2.54612,0.9643 4.47816,0 0.524422,-0.2625 1.00561,-0.558 1.45154,-0.8619 0.454476,-0.3198 1.23535,-1.0493 1.23535,-1.0493 z "/>
<path style="opacity:.651;fill:url(#linearGradient4525);font-weight:bold" id="path4514" d="m 20.7235,1015.1077 -7.8754,3.9349 2.2236,1.649 7.8445,-3.9349 z "/>
</g>
</g>
</svg>
