<svg width="48" version="1.1" xmlns="http://www.w3.org/2000/svg" height="48">
<g style="stroke-linejoin:round;stroke-linecap:round">
<path style="fill:none;stroke:#666;stroke-width:3.374" d="m 41.0993,24.9217 c -1.77127,8.7227 -10.9754,15.6876 -20.558,15.5565 -9.58258,-0.13105 -15.9149,-7.30844 -14.1436,-16.0312 1.77127,-8.7227 10.9754,-15.6876 20.558,-15.5565 9.58258,0.131048 15.9149,7.30844 14.1436,16.0311 Z "/>
<g style="stroke:#000;fill:#99f;stroke-width:1.474">
<path d="m 37.7663,36.2146 c 0,2.43296 -2.02651,4.40526 -4.52636,4.40526 -2.49984,0 -4.52636,-1.9723 -4.52636,-4.40526 0,-2.43296 2.02652,-4.40526 4.52636,-4.40526 2.49984,0 4.52636,1.9723 4.52636,4.40526 z "/>
<path d="m 45.2633,19.021 c 0,2.43297 -2.02652,4.40526 -4.52636,4.40526 -2.49984,0 -4.52636,-1.9723 -4.52636,-4.40526 0,-2.43297 2.02652,-4.40526 4.52636,-4.40526 2.49984,0 4.52636,1.9723 4.52636,4.40526 z "/>
<path d="m 18.0654,38.6082 c 0,2.43296 -2.02651,4.40526 -4.52636,4.40526 -2.49984,0 -4.52636,-1.9723 -4.52636,-4.40526 0,-2.43296 2.02653,-4.40526 4.52636,-4.40526 2.49984,0 4.52636,1.9723 4.52636,4.40526 z "/>
<path d="m 11.7895,21.8758 c 0,2.43297 -2.02652,4.40526 -4.52636,4.40526 -2.49984,0 -4.52636,-1.9723 -4.52636,-4.40526 0,-2.43296 2.02652,-4.40526 4.52636,-4.40526 2.49984,0 4.52636,1.9723 4.52636,4.40526 z "/>
<path d="m 27.3509,9.3918 c 0,2.43297 -2.02651,4.40526 -4.52636,4.40526 -2.49984,0 -4.52636,-1.9723 -4.52636,-4.40526 0,-2.43297 2.02652,-4.40526 4.52636,-4.40526 2.49984,0 4.52636,1.9723 4.52636,4.40526 z "/>
</g>
</g>
</svg>
