<svg width="48" version="1.0" xmlns="http://www.w3.org/2000/svg" height="48">
<g style="color:#000">
<g style="stroke-miterlimit:10;fill-rule:evenodd">
<g style="stroke:none">
<path style="fill:#857c63;stroke-width:1.042" id="path4196" d="m 9.8741,9.4902 c 0,0 3.08662,6.55118 10.3076,6.36637 15.1324,-0.390746 17.7859,-8.51546 18.1656,-9.6877 0.379642,-1.17223 0.96054,-0.994672 1.09485,0.0887111 4.93534,46.1079 -34.2505,26.3248 -35.6423,18.4717 7.78265,-2.34447 5.88445,-6.83803 5.88445,-6.83803 l .1898,-8.401 Z "/>
<path id="path6480" d="m 15.8547,28.9181 c 7.01978,1.40402 10.5946,0.102179 12.6868,-1.51333 -0.552434,-0.713561 -1.49618,-1.49618 -1.49618,-1.49618 0,0 2.45141,0.681198 3.31461,1.79541 0.86073,1.11103 0.319596,1.79556 0.09433,3.21709 -0.501476,-1.24856 -1.4375,-1.71678 -1.56422,-2.21287 -1.88155,2.601 -6.56929,2.49295 -13.0354,0.209874 z "/>
</g>
<path style="fill:#f8f8f8;stroke:#888a85;stroke-width:1.042" id="path4357" d="m 17.9097,19.8858 a 4.23533,4.23533 0 0,1 -8.47066,0 4.23533,4.23533 0 1,1 8.47066,0 z "/>
<g style="stroke:#000" id="g11" transform="matrix(1.04168,0,0,1.04168,-0.53905121,-2.4010257)">
<path id="path5198" d="M 9.6112,22.927 A 6.0988,4.33103 54 0 1 2.58641,27.9949 6.0988,4.33103 54 1 1 9.6112,22.927 Z"/>
<path style="fill:#2e3436" id="path4359" d="m 16.5532,21.9975 a 1.95764,1.95764 0 1 1 -3.91528,0 1.95764,1.95764 0 1 1 3.91528,0 z"/>
</g>
<g style="fill:#fff;stroke:none" id="g15" transform="matrix(1.04168,0,0,1.04168,-0.53905121,-2.4010257)">
<path id="path6446" d="m 5.8336,23.2513 a 1.76777,2.12132 0 1 1 -3.53553,0 1.76777,2.12132 0 1 1 3.53553,0 z"/>
<path id="path4361" d="m 15.1978,21.0939 a 1.35529,1.35529 0 1 1 -2.71057,0 1.35529,1.35529 0 1 1 2.71057,0 z"/>
</g>
<g style="stroke-width:1.042">
<path style="fill:#f8f8f8;stroke:#888a85" id="path6462" d="m 27.3932,20.3462 a 4.97191,4.97191 0 0,1 -9.94381,0 4.97191,4.97191 0 1,1 9.94381,0 z "/>
<path style="fill:#2e3436;stroke:#000" id="path6464" d="m 25.9777,21.0828 a 2.39388,2.39388 0 1,1 -4.78776,0 2.39388,2.39388 0 1,1 4.78776,0 z "/>
</g>
<path style="fill:#fff;stroke:none" id="path6466" d="m 24.3205,19.9779 a 1.6573,1.6573 0 1,1 -3.31461,0 1.6573,1.6573 0 1,1 3.31461,0 z "/>
</g>
<g style="stroke-linecap:round" id="g22" transform="matrix(1.04168,0,0,1.04168,-0.53905121,-2.4010257)">
<path style="fill:#e07c12;stroke:#673907" id="path6937" d="m 36.5869,36.0914 .9264,-1.8449 c -3.44633,-2.52134 -9.79931,-4.35591 -9.79931,-4.35591 -1.10122,-0.512948 -1.44875,0.476333 -0.686218,1.11942 0,0 5.43309,3.89497 9.55913,5.08136 z "/>
<path style="fill:#fff;stroke:#888a85" id="path6935" d="m 41.0052,37.7919 .4959,-1.0979 -3.8476,-2.4649 -.3068,-.0262 -.1326,-.4246 c -0.558915,0.350022 -1.37111,1.65024 -1.15577,2.38123 l .4156,-.1572 .2251,.2176 4.3061,1.5719 z "/>
<g style="stroke:none" id="g26">
<path style="stroke-width:.2" id="path6933" d="m 46.597,42.4541 c -1.19951,-4.07172 -1.62495,-7.30466 -4.75966,-7.01698 -2.52614,0.231833 -2.703,3.85139 -0.0926,4.85019 2.51463,0.962164 4.85226,2.16679 4.85226,2.16679 z"/>
<g style="fill:#fff" id="g29">
<path style="opacity:.528" id="path6971" d="M 42.0252,35.767 A 1.05159,1.05159 0 1 1 42.619531,37.78445 1.05159,1.05159 0 1 1 42.0252,35.767 Z"/>
<path style="opacity:.428" id="path1571" d="m 45.0909,40.0177 c 0,0 -0.390659,-1.46172 -1.25298,-2.22245 -0.305088,-0.269144 0.07932,-0.665598 0.367209,-0.317408 0.621841,0.752079 0.885773,2.53986 0.885773,2.53986 z"/>
</g>
</g>
</g>
</g>
</svg>
