<svg width="48" version="1.1" xmlns="http://www.w3.org/2000/svg" height="48">
<g style="stroke:none;color:#000" id="g10">
<g style="fill-rule:evenodd" id="g6" transform="translate(0,-2.2110004)">
<path style="fill:#e6e6e6;stroke-width:1.2" id="rect3003" d="m 0,2.211 48,0 0,38.578 -48,0 z "/>
<path style="mix-blend-mode:normal;font-family:sans-serif;text-decoration-style:solid;solid-color:#000000;white-space:normal;color-interpolation-filters:linearRGB;text-transform:none;text-decoration-color:#000000;text-indent:0;text-align:start;text-decoration-line:none;image-rendering:auto;color-rendering:auto;stroke-width:2;isolation:auto;color-interpolation:sRGB;solid-opacity:1;text-rendering:auto;fill:#2f3a85;line-height:normal;shape-rendering:auto" id="rect4566" d="m 1,3.227 0,36.546 46,0 0,-36.546 z m 2,2 42,0 0,32.546 -42,0 z"/>
</g>
<g style="fill:#1a1a1a;stroke-width:.3" id="g129" transform="matrix(1.9477266,0,0,1.9477266,-35.636363,-1994.228)">
<rect width="10.496265" x="22.124481" y="23.817427" height="0.72033197" id="rect4017" transform="translate(0,1004.3622)"/>
<rect width="6.3800826" x="22.124481" y="1030.1797" height="0.72033197" id="rect4019"/>
<rect width="9.0556011" x="22.124481" y="1032.1797" height="0.72033197" id="rect4021"/>
<rect width="11.834024" x="22.124481" y="1034.1797" height="0.72033197" id="rect4023"/>
</g>
</g>
<g style="opacity:.3" id="g4504" transform="translate(9.1148754,2.5000577)">
<path id="path4500" d="m 18.2449,20.3586 c -1.18905,1.42974 -2.89522,4.3087 -3.48869,6.09707 -1.54101,4.64366 -2.62133,9.67793 -2.80683,12.5704 -0.0091,0.127426 0.03804,0.236189 0.139475,0.31382 l 8.3371,6.0846 c 0.121205,0.093 0.28348,0.09438 0.400991,0.03488 0.117505,-0.05949 0.212438,-0.178512 0.209212,-0.331254 -0.07223,-7.19102 1.13655,-15.3906 2.57367,-22.3897 -1.92569,-1.71445 -2.99924,-1.98653 -5.36496,-2.37986 z "/>
<path id="path4502" d="m 23.9341,23.4167 c 2.48926,6.14021 3.67487,15.0615 5.61605,21.1005 0.03939,0.120329 0.157205,0.188794 0.261515,0.209213 0.104314,0.02042 0.214526,0.0093 0.296386,-0.08717 2.22416,-2.53735 5.05767,-4.73277 7.17689,-6.93889 -0.742974,-3.37822 -2.22153,-6.79183 -3.50431,-9.64121 -0.578048,-1.27826 -2.49243,-5.96189 -3.10038,-7.10073 -3.18978,0.553964 -4.07503,0.934464 -6.74616,2.45829 z "/>
</g>
<g style="fill:#e7161d" id="g4252" transform="translate(10.715022,2.5000577)">
<path id="path3105" d="m 16.6012,20.0187 c -0.883167,1.56569 -2.36026,4.41668 -2.83518,6.26288 -1.21382,4.71865 -1.33129,9.85199 -1.51679,12.7445 -0.0091,0.127426 0.03804,0.236189 0.139475,0.31382 l 8.0373,6.0846 c 0.121205,0.093 0.28348,0.09438 0.400991,0.03488 0.117505,-0.05949 0.212438,-0.178512 0.209212,-0.331254 -0.07223,-7.19102 1.13655,-15.3906 2.57367,-22.3897 -3.95587,-1.82062 -4.83193,-2.04749 -7.00868,-2.71973 Z "/>
<path id="path23453" d="m 22.4338,23.4167 c 2.48926,6.14021 5.67471,15.0615 7.61589,21.1005 0.03939,0.120329 0.157205,0.188794 0.261515,0.209213 0.104314,0.02042 0.214526,0.0093 0.296386,-0.08717 2.20273,-2.54689 4.59925,-4.79077 6.57277,-6.69481 0.0022,-0.0017 -0.0022,-0.01572 0,-0.01743 0.06355,-0.06233 0.10541,-0.137254 0.104606,-0.226648 -0.0094,-0.313607 -0.114436,-0.776329 -0.296383,-1.39475 -0.182131,-0.619038 -0.451045,-1.37541 -0.767113,-2.24903 -0.632117,-1.74722 -1.49145,-3.89807 -2.44081,-5.99743 -0.578048,-1.27826 -2.49243,-5.96189 -3.10038,-7.10073 -3.51388,0.253983 -5.15822,0.620612 -8.24648,2.45829 z "/>
</g>
<path style="fill:#503e00" id="path4470" d="m 34.4934,3.158 -3.3691,2.885 -4.277,-1.2105 -1.2912,4.2366 -4.2366,1.2912 1.2105,4.277 -2.885,3.3691 3.3288,2.9455 -.5851,4.3981 4.3779,.6657 1.8964,4.0147 4.035,-1.7956 3.7726,2.3604 2.4209,-3.7121 4.4385,-.0404 .0404,-4.4385 3.7121,-2.4209 -2.3604,-3.7726 1.8157,-4.0551 -4.035,-1.8762 -.6657,-4.3779 -4.3981,.5851 -2.9455,-3.3288 z "/>
<path style="fill:#ffcb00" id="path3107" d="m 34.2617,5.0001 -2.9115,2.4931 -3.6961,-1.0461 -1.1158,3.6612 -3.6612,1.1158 1.0461,3.6961 -2.4931,2.9115 2.8767,2.5454 -.5056,3.8007 3.7833,.5753 1.6388,3.4694 3.4869,-1.5517 3.2602,2.0398 2.0921,-3.2079 3.8356,-.0349 .0349,-3.8356 3.2079,-2.0921 -2.0398,-3.2602 1.5691,-3.5043 -3.4869,-1.6214 -.5753,-3.7833 -3.8007,.5056 -2.5454,-2.8767 z "/>
</svg>
