<svg width="48" version="1.1" xmlns="http://www.w3.org/2000/svg" viewBox="0 0 48 48" height="48" xmlns:xlink="http://www.w3.org/1999/xlink" style="overflow: visible;">
<defs>
<linearGradient id="linearGradient4153-1">
<stop offset="0" style="stop-color:#fff;stop-opacity:.471"/>
<stop offset="1" style="stop-color:#fff;stop-opacity:0"/>
</linearGradient>
<linearGradient id="linearGradient4733">
<stop offset="0"/>
<stop offset="1" style="stop-opacity:.2"/>
</linearGradient>
<linearGradient id="linearGradient3570">
<stop offset="0" style="stop-color:#fff"/>
<stop offset="1" style="stop-color:#fff;stop-opacity:0"/>
</linearGradient>
<linearGradient id="linearGradient7837">
<stop offset="0" style="stop-color:#d1d1d1"/>
<stop offset="1" style="stop-color:#f5f5f5"/>
</linearGradient>
<linearGradient gradientTransform="scale(0.5)" xlink:href="#linearGradient4733" id="linearGradient1" y1="90" x1="13.8" y2="4.2" gradientUnits="userSpaceOnUse" x2="13.391417"/>
<linearGradient gradientTransform="scale(0.5)" xlink:href="#linearGradient4733" id="linearGradient2" y1="90" x1="13.8" y2="4.2" gradientUnits="userSpaceOnUse" x2="13.391417"/>
<linearGradient gradientTransform="scale(0.5)" xlink:href="#linearGradient4733" id="linearGradient3" y1="90" x1="13.8" y2="4.2" gradientUnits="userSpaceOnUse" x2="13.391417"/>
<linearGradient gradientTransform="matrix(0.8,0,0,0.8,0.390383,0.378405)" xlink:href="#linearGradient4153-1" id="linearGradient4159-0" y1="9.6396875" x1="6.0155225" y2="37.810818" x2="27.732635" gradientUnits="userSpaceOnUse"/>
<linearGradient gradientTransform="scale(0.5)" xlink:href="#linearGradient4733" id="linearGradient4759" y1="90" x1="13.8" y2="4.2" x2="13.391417" gradientUnits="userSpaceOnUse"/>
<linearGradient gradientTransform="scale(0.5)" xlink:href="#linearGradient7837" id="linearGradient7839" y1="89" x1="14" y2="7" x2="14" gradientUnits="userSpaceOnUse"/>
<radialGradient fx="24.25" fy="43" cx="24.25" cy="43" gradientTransform="matrix(1.3427872,-0.00919718,0.01219515,1.7804878,-8.8369815,-33.337944)" xlink:href="#linearGradient3570" id="radialGradient5026" r="20.5" gradientUnits="userSpaceOnUse"/>
</defs>
<path style="opacity:.05;fill:url(#linearGradient1)" d="m 4.9499,3 h 38.1001 c 2.5761,0 4.65,2.0739 4.65,4.65 v 35.3 c 0,2.5761 -2.0739,4.65 -4.65,4.65 h -38.1001 c -2.5761,0 -4.65,-2.0739 -4.65,-4.65 v -35.3 c 0,-2.5761 2.0739,-4.65 4.65,-4.65 z "/>
<path style="opacity:.1;fill:url(#linearGradient2)" d="m 5.2,3 h 37.6001 c 2.4376,0 4.4,1.9624 4.4,4.4 v 35 c 0,2.4376 -1.9624,4.4 -4.4,4.4 h -37.6001 c -2.4376,0 -4.4,-1.9624 -4.4,-4.4 v -35 c 0,-2.4376 1.9624,-4.4 4.4,-4.4 z "/>
<path style="opacity:.15;fill:url(#linearGradient3)" d="m 5.5499,3 h 36.9001 c 2.2991,0 4.15,1.8509 4.15,4.15 v 34.7 c 0,2.2991 -1.8509,4.15 -4.15,4.15 h -36.9001 c -2.2991,0 -4.15,-1.8509 -4.15,-4.15 v -34.7 c 0,-2.2991 1.8509,-4.15 4.15,-4.15 z "/>
<path style="opacity:.3;fill:url(#linearGradient4759)" d="m 5.7,3 h 36.6001 c 2.1606,0 3.9,1.7394 3.9,3.9 v 34.6 c 0,2.1606 -1.7394,3.9 -3.9,3.9 h -36.6001 c -2.1606,0 -3.9,-1.7394 -3.9,-3.9 v -34.6 c 0,-2.1606 1.7394,-3.9 3.9,-3.9 z "/>
<path style="fill:url(#linearGradient7839)" d="m 5.8,3.5 c -1.939,0 -3.5,1.561 -3.5,3.5 v 34 c 0,1.939 1.561,3.5 3.5,3.5 h 36.4001 c 1.939,0 3.5,-1.561 3.5,-3.5 V 7 c 0,-1.939 -1.561,-3.5 -3.5,-3.5 z"/>
<path style="opacity:.6;fill:url(#radialGradient5026)" d="m 5.8,3.5 c -1.939,0 -3.5,1.561 -3.5,3.5 v 34 c 0,1.939 1.561,3.5 3.5,3.5 h 36.4001 c 1.939,0 3.5,-1.561 3.5,-3.5 V 7 c 0,-1.939 -1.561,-3.5 -3.5,-3.5 h -0.330078 c 1.84441,0 3.33008,1.48567 3.33008,3.33008 v 33.3399 c 0,1.84441 -1.03034,3.33008 -3.33008,3.33008 h -35.2399 c -2.62532,0 -3.83008,-1.48567 -3.83008,-3.33008 V 6.83008 C 2.8,4.98567 4.285651,3.5 6.130061,3.5 Z"/>
<path style="opacity:.3" d="m 2.3,41 v 0.5 c 0,1.939 1.561,3.5 3.5,3.5 h 36.4001 c 1.939,0 3.5,-1.561 3.5,-3.5 V 41 c 0,1.939 -1.561,3.5 -3.5,3.5 h -36.4001 c -1.939,0 -3.5,-1.561 -3.5,-3.5 z"/>
<path style="fill:#640005" d="m 43.0901,39.1822 c 0,0.497965 -0.380338,0.90187 -0.851583,0.90187 h -36.477 c -0.471244,0 -0.851583,-0.403905 -0.851583,-0.90187 v -30.3637 c 0,-0.499072 0.381384,-0.90187 0.851583,-0.90187 h 36.477 c 0.471245,0 0.851583,0.403904 0.851583,0.90187 z "/>
<g style="fill:#fff">
<path d="m 12.081,32.7702 c -1.09875,-0.07582 -2.10179,-0.40768 -3.01036,-0.995585 l .9136,-2.2087 c 0.97694,0.697282 1.93773,1.04406 2.88111,1.04406 1.45174,0 2.17761,-0.499656 2.17761,-1.50145 0,-0.499656 -0.185197,-0.969483 -0.556833,-1.41073 -0.371635,-0.44 -1.07513,-0.919767 -2.11298,-1.43931 -1.03785,-0.519544 -1.74383,-0.949597 -2.11795,-1.2914 -0.374121,-0.340562 -0.662481,-0.749485 -0.861349,-1.22179 -0.20011,-0.473555 -0.300788,-1.0018 -0.300788,-1.58349 0,-0.860107 0.270958,-1.61829 0.810389,-2.2758 0.540674,-0.656264 1.26654,-1.09626 2.17637,-1.3175 v -1.72394 h 2.1714 l -.0099,1.627 c 1.17332,0.113112 2.04834,0.396494 2.62258,0.84892 l -.7507,2.1366 c -0.868806,-0.631408 -1.7836,-0.947111 -2.74562,-0.947111 -0.569261,0 -1.01174,0.154124 -1.32496,0.461125 -0.313217,0.308248 -0.469826,0.694799 -0.469826,1.16463 0,0.799201 0.882478,1.62823 2.64867,2.48834 0.92971,0.454912 1.60089,0.875021 2.0123,1.25785 0.411407,0.382821 0.724626,0.82779 0.939653,1.33739 0.215026,0.508358 0.32316,1.07638 0.32316,1.70281 0,0.884964 -0.287116,1.65807 -0.861348,2.31806 -0.574233,0.661237 -1.3722,1.1149 -2.39264,1.36224 v 2.18631 h -2.1602 v -2.01851 h -0.0012 z "/>
<path d="m 21.4949,24.2723 v -2.15896 l 7.5756,3.6418 v 1.5288 l -7.5756,3.6654 v -2.16021 l 5.0015,-2.2696 z "/>
</g>
<path style="fill:url(#linearGradient4159-0);stroke-width:.8" d="m 5.7622,7.9159 c -0.470199,0 -0.85156,0.404053 -0.85156,0.903128 v 30.2625 c 9.29256,-13.8294 21.5824,-23.0099 37.3156,-31.1656 h -36.4641 Z "/>
</svg>
