<svg width="48" version="1.1" xmlns="http://www.w3.org/2000/svg" viewBox="0 0 48 48" height="48" xmlns:xlink="http://www.w3.org/1999/xlink" style="overflow: visible;">
<defs>
<linearGradient id="linearGradient4153">
<stop offset="0" style="stop-color:#fff;stop-opacity:.471"/>
<stop offset="1" style="stop-color:#fff;stop-opacity:0"/>
</linearGradient>
<linearGradient xlink:href="#linearGradient4153" id="linearGradient4159" y1="9.6396875" x1="6.0155225" y2="37.810818" x2="27.732635" gradientUnits="userSpaceOnUse"/>
</defs>
<path style="opacity:.04" d="m 3.7841,3.638 c -1.76602,0 -3.20309,1.45417 -3.20309,3.2406 v 35.2216 c 0,3.01913 0.216545,3.2222 3.41904,3.2222 h 39.8185 c 3.42666,0 3.63802,-0.1988 3.63802,-3.222 v -35.2218 c 0,-1.78751 -1.43601,-3.2406 -3.20203,-3.2406 h -40.4704 Z "/>
<path style="opacity:.05" d="m 3.9843,3.8384 c -1.76602,0 -3.20309,1.45417 -3.20309,3.2406 v 34.8212 c 0,2.707 0.194719,2.9222 3.29394,2.9222 h 39.6935 c 3.18383,0 3.38801,-0.204 3.38801,-2.9214 v -34.822 c 0,-1.78751 -1.43601,-3.2406 -3.20203,-3.2406 h -39.9702 z "/>
<path style="opacity:.1" d="m 4.0056,4.0929 c -1.60581,0.037547 -3.0479,1.40851 -3.04407,3.13884 v 34.6044 c 0,2.40046 0.007763,2.40429 2.96618,2.40429 h 39.9659 c 2.94152,0 2.93151,0.0083 2.93151,-2.404 v -34.6047 c 0,-1.73138 -1.40955,-3.13884 -3.14302,-3.13884 h -39.6765 Z "/>
<path style="opacity:.17" d="m 4.3416,4.3308 c -1.88191,0 -3.14789,1.40867 -3.14406,3.139 l 0,34.885 c 0,1.38038 0.00491,1.385 2.132,1.385 h 40.888 c 2.26825,0 2.26404,-0.0025 2.26404,-1.685 v -34.5852 c 0,-1.73138 -1.36653,-3.13884 -3.1,-3.13884 h -39.0401 z "/>
<path style="opacity:.3" d="m 4.1496,4.6111 c -1.89567,0.16344 -2.66087,1.49411 -2.66088,2.73842 v 35.8908 h 44.6109 v -35.691 c 0,-1.60554 -1.15941,-2.93821 -2.81779,-2.93821 h -39.1323 z "/>
<path style="fill:#d0cabe" d="m 43.266,4.9246 -39.0767,0 c -1.30402,0 -2.3604,1.05429 -2.3604,2.35517 v 3.50664 c 0,0.331229 0,8.42179 0,16.3817 0,7.69872 0,15.2752 0,15.597 0.778441,0 43.0169,0 43.7964,0 0,-0.321826 0,-7.8983 0,-15.597 0,-7.95995 0,-16.0495 0,-16.3817 v -3.50664 c 0,-1.30088 -1.05638,-2.35517 -2.35935,-2.35517 z "/>
<path style="fill:#640005" d="m 42.6997,38.8038 c 0,0.497965 -0.380338,0.90187 -0.851583,0.90187 h -36.477 c -0.471244,0 -0.851583,-0.403905 -0.851583,-0.90187 v -30.3637 c 0,-0.499072 0.381384,-0.90187 0.851583,-0.90187 h 36.477 c 0.471245,0 0.851583,0.403904 0.851583,0.90187 v 30.3637 z "/>
<g style="fill:#fff">
<path d="M 11.6906,32.3918 C 10.59185,32.31598 9.58881,31.98412 8.68024,31.396215 l 0.9136,-2.2087 c 0.97694,0.697282 1.93773,1.04406 2.88111,1.04406 1.45174,0 2.17761,-0.499656 2.17761,-1.50145 0,-0.499656 -0.185197,-0.969483 -0.556833,-1.41073 -0.371635,-0.44 -1.07513,-0.919767 -2.11298,-1.43931 -1.03785,-0.519544 -1.74383,-0.949597 -2.11795,-1.2914 C 9.490676,24.248123 9.202316,23.8392 9.003448,23.366895 8.803338,22.89334 8.70266,22.365095 8.70266,21.783405 c 0,-0.860107 0.270958,-1.61829 0.810389,-2.2758 0.540674,-0.656264 1.26654,-1.09626 2.17637,-1.3175 v -1.72394 h 2.1714 l -0.0099,1.627 c 1.17332,0.113112 2.04834,0.396494 2.62258,0.84892 l -0.7507,2.1366 c -0.868806,-0.631408 -1.7836,-0.947111 -2.74562,-0.947111 -0.569261,0 -1.01174,0.154124 -1.32496,0.461125 -0.313217,0.308248 -0.469826,0.694799 -0.469826,1.16463 0,0.799201 0.882478,1.62823 2.64867,2.48834 0.92971,0.454912 1.60089,0.875021 2.0123,1.25785 0.411407,0.382821 0.724626,0.82779 0.939653,1.33739 0.215026,0.508358 0.32316,1.07638 0.32316,1.70281 0,0.884964 -0.287116,1.65807 -0.861348,2.31806 -0.574233,0.661237 -1.3722,1.1149 -2.39264,1.36224 v 2.18631 h -2.1602 v -2.01851 h -0.0012 z"/>
<path d="m 21.1045,23.8939 v -2.15896 l 7.5756,3.6418 v 1.5288 l -7.5756,3.6654 v -2.16021 l 5.0015,-2.2696 z"/>
</g>
<path style="fill:url(#linearGradient4159)" d="m 6.7148,9.4219 c -0.587749,0 -1.06445,0.505066 -1.06445,1.12891 v 37.8281 c 11.6157,-17.2867 26.978,-28.7624 46.6445,-38.957 h -45.5801 z " transform="scale(0.8,0.8)"/>
</svg>
