<svg width="60" version="1.1" xmlns="http://www.w3.org/2000/svg" viewBox="0 0 48 48" height="60" xmlns:xlink="http://www.w3.org/1999/xlink" style="overflow: visible;">
<defs id="defs646">
<linearGradient id="linearGradient4153">
<stop offset="0" style="stop-color:#fff;stop-opacity:.471" id="stop4155"/>
<stop offset="1" style="stop-color:#fff;stop-opacity:0" id="stop4157"/>
</linearGradient>
<linearGradient xlink:href="#linearGradient4153" id="linearGradient4159" y1="9.6396875" x1="6.0155225" y2="37.810818" x2="27.732635" gradientUnits="userSpaceOnUse"/>
</defs>
<path style="opacity:.2" id="path562" d="m 3.9847,3.8381 c -1.76602,0 -3.20309,1.45417 -3.20309,3.2406 v 37.4437 h 46.3754 v -37.4437 c 0,-1.78751 -1.43601,-3.2406 -3.20203,-3.2406 h -39.9702 z "/>
<path style="opacity:.3" id="path563" d="m 4.3056,4.293 c -1.73347,0 -3.14789,1.40851 -3.14406,3.13884 v 36.1082 h 45.3635 v -36.1082 c 0,-1.73138 -1.40955,-3.13884 -3.14302,-3.13884 h -39.0765 z "/>
<path style="fill:#d0cabe" id="path583" d="m 43.266,4.9246 -39.0767,0 c -1.30402,0 -2.3604,1.05429 -2.3604,2.35517 v 3.50664 c 0,0.331229 0,8.42179 0,16.3817 0,7.69872 0,15.2752 0,15.597 0.778441,0 43.0169,0 43.7964,0 0,-0.321826 0,-7.8983 0,-15.597 0,-7.95995 0,-16.0495 0,-16.3817 v -3.50664 c 0,-1.30088 -1.05638,-2.35517 -2.35935,-2.35517 z "/>
<path style="fill:#640005" id="path623" d="m 42.6997,38.8038 c 0,0.497965 -0.380338,0.90187 -0.851583,0.90187 h -36.477 c -0.471244,0 -0.851583,-0.403905 -0.851583,-0.90187 v -30.3637 c 0,-0.499072 0.381384,-0.90187 0.851583,-0.90187 h 36.477 c 0.471245,0 0.851583,0.403904 0.851583,0.90187 v 30.3637 z "/>
<g style="fill:#fff" id="g66" transform="matrix(1.1895334,0,0,1.1895334,-1.6451855,-6.5219048)">
<path id="path641" d="M 11.2109,32.7134 C 10.28722,32.649661 9.444,32.370677 8.68019,31.876446 l 0.768,-1.8568 c 0.82128,0.586181 1.62898,0.877704 2.42205,0.877704 1.22043,0 1.83064,-0.420044 1.83064,-1.26222 0,-0.420044 -0.155689,-0.815011 -0.46811,-1.18595 C 12.920349,28.079289 12.328943,27.675963 11.45646,27.2392 10.583979,26.802437 9.99048,26.440906 9.67597,26.15356 9.361459,25.867261 9.119045,25.523493 8.951863,25.12644 8.783637,24.728339 8.699001,24.284262 8.699001,23.79525 c 0,-0.723062 0.227785,-1.36044 0.681266,-1.91319 0.454526,-0.551699 1.06474,-0.921589 1.8296,-1.10758 v -1.44926 h 1.82542 l -0.0083,1.3678 c 0.986374,0.09509 1.72197,0.333319 2.20471,0.713658 l -0.6311,1.7962 c -0.730376,-0.530803 -1.49941,-0.796203 -2.30815,-0.796203 -0.478558,0 -0.850538,0.129566 -1.11385,0.387652 -0.263311,0.259133 -0.394967,0.584093 -0.394967,0.97906 0,0.671861 0.741869,1.3688 2.22665,2.09186 0.781575,0.382429 1.34581,0.7356 1.69167,1.05743 0.345856,0.321825 0.609168,0.695895 0.789934,1.1243 0.180765,0.427359 0.27167,0.904872 0.27167,1.43149 0,0.743959 -0.241369,1.39388 -0.724106,1.94871 -0.482738,0.555879 -1.15356,0.937262 -2.01141,1.14519 v 1.83796 h -1.81601 v -1.69689 h -10e-4 z"/>
<path id="polygon642" d="m 19.595,25.651 0,-1.737 6.095,2.93 0,1.23 -6.095,2.949 0,-1.738 4.024,-1.826 z " transform="matrix(1.0448867,0,0,1.0448867,-1.3496335,-1.2328694)"/>
</g>
<path style="fill:url(#linearGradient4159)" id="path4148" d="m 6.7148,9.4219 c -0.587749,0 -1.06445,0.505066 -1.06445,1.12891 v 37.8281 c 11.6157,-17.2867 26.978,-28.7624 46.6445,-38.957 h -45.5801 z " transform="scale(0.8,0.8)"/>
</svg>
