<svg width="96" version="1.0" xmlns="http://www.w3.org/2000/svg" height="96" xmlns:xlink="http://www.w3.org/1999/xlink">
<defs id="defs2410">
<clipPath id="clipPath3980">
<path style="opacity:.2;fill:#803300;stroke:none" id="path3982" d="m -84,12 c -2.216,0 -4,1.784 -4,4 v 52 c 0,2.216 1.784,4 4,4 h 64 c 2.216,0 4,-1.784 4,-4 v -52 c 0,-2.216 -1.784,-4 -4,-4 h -64 z  m 32,8 c 8.41385,0 15.8092,3.79689 20.0938,9.53125 l -3.7188,1.875 -11.7188,5.9062 a 1.19378,1.19378 0 0,0 -0.21875,0.1875 c -1.09568,-1.06642 -2.66778,-1.75 -4.4375,-1.75 -3.31371,0 -6,2.35051 -6,5.25 0,2.89949 2.68629,5.25 6,5.25 1.75237,0 3.31185,-0.6705 4.40625,-1.71875 a 1.19378,1.19378 0 0,0 0.25,0.15625 l 11.7188,5.9062 3.7188,1.875 c -4.28455,5.73436 -11.6799,9.53125 -20.0938,9.53125 -13.2548,0 -24,-9.40202 -24,-21 0,-11.598 10.7452,-21 24,-21 z  m 23.7812,10.5 c 4.28719,6.49742 4.28719,14.5026 0,21 l -3.875,-1.9688 -11.7188,-5.9062 c 0.510532,-0.772217 0.8125,-1.66873 0.8125,-2.625 0,-0.956275 -0.301968,-1.85278 -0.8125,-2.625 l 11.7188,-5.9062 3.875,-1.9688 z "/>
</clipPath>
<clipPath id="clipPath3306">
<rect width="72" x="12" y="12" rx="4" height="60" ry="4" style="fill:#fff;stroke:none" id="rect3308"/>
</clipPath>
<linearGradient id="linearGradient4225">
<stop offset="0" id="stop4227"/>
<stop offset="1" style="stop-color:#484848" id="stop4229"/>
</linearGradient>
<linearGradient gradientTransform="translate(-2,0)" id="linearGradient4231" xlink:href="#linearGradient4225" y1="80" x1="67.071426" y2="88.011475" x2="67.071426" gradientUnits="userSpaceOnUse"/>
</defs>
<g style="stroke:none">
<g id="g15">
<path style="fill:#cacaca" id="rect3171" d="m 12,6 72,0 c 3.324,0 6,2.676 6,6 l 0,71.887093 c 0,3.324 -2.676,6 -6,6 l -72,0 c -3.324,0 -6,-2.676 -6,-6 L 6,12 C 6,8.676 8.676,6 12,6 Z"/>
<rect width="74" x="11" y="11" rx="4.1111112" height="63" ry="4.1999998" style="opacity:.8;fill:#7b7b7b" id="rect3492"/>
<rect width="72" x="12" y="12" rx="4" height="60" ry="4" style="fill:#cacaca" id="rect3519"/>
</g>
<g id="layer1">
<g id="g3318">
<path style="opacity:.3" id="path4053" d="m 22.7808,83.5089 a 3.28977,3.28977 0 0 1 -6.57954,0 3.28977,3.28977 0 1 1 6.57954,0 z"/>
<path style="fill:#f00;stroke-linecap:square;stroke-width:.84" id="path3364" d="m 20.1786,85.0625 a 2.08929,2.09821 0 1 1 -4.17857,0 2.08929,2.09821 0 1 1 4.17857,0 z" transform="matrix(1.1923077,0,0,1.1872339,-2.0769275,-17.480158)"/>
</g>
<path style="fill:url(#linearGradient4231)" id="rect4210" d="m 55,80 c -0.554,0 -1,0.446 -1,1 v 6 c 0,0.554 0.446,1 1,1 0.554,0 1,-0.446 1,-1 v -6 c 0,-0.554 -0.446,-1 -1,-1 z  m 4,0 c -0.554,0 -1,0.446 -1,1 v 6 c 0,0.554 0.446,1 1,1 0.554,0 1,-0.446 1,-1 v -6 c 0,-0.554 -0.446,-1 -1,-1 z  m 4,0 c -0.554,0 -1,0.446 -1,1 v 6 c 0,0.554 0.446,1 1,1 0.554,0 1,-0.446 1,-1 v -6 c 0,-0.554 -0.446,-1 -1,-1 z  m 4,0 c -0.554,0 -1,0.446 -1,1 v 6 c 0,0.554 0.446,1 1,1 0.554,0 1,-0.446 1,-1 v -6 c 0,-0.554 -0.446,-1 -1,-1 z  m 4,0 c -0.554,0 -1,0.446 -1,1 v 6 c 0,0.554 0.446,1 1,1 0.554,0 1,-0.446 1,-1 v -6 c 0,-0.554 -0.446,-1 -1,-1 z  m 4,0 c -0.554,0 -1,0.446 -1,1 v 6 c 0,0.554 0.446,1 1,1 0.554,0 1,-0.446 1,-1 v -6 c 0,-0.554 -0.446,-1 -1,-1 z  m 4,0 c -0.554,0 -1,0.446 -1,1 v 6 c 0,0.554 0.446,1 1,1 0.554,0 1,-0.446 1,-1 v -6 c 0,-0.554 -0.446,-1 -1,-1 z "/>
</g>
<rect width="83.696457" x="6.2248263" y="76.044968" rx="6.0297518" ry="0.14412965" height="2.0820873" style="fill:#999;fill-rule:evenodd" id="rect3082"/>
<g style="fill:#204562" id="g5" transform="matrix(1.2941165,0,0,1.2941165,16.941197,10.693547)">
<path id="path3775" d="m 37.4152,3.105 c -8.69372,0 -10.3245,12.3826 -5.43384,12.3826 4.89,0 14.1279,-12.3826 5.43384,-12.3826 z"/>
<path id="path3777" d="m 22.9795,13.9532 c 2.60402,0.159018 5.46105,-9.9376 0.566813,-9.30259 -4.89247,0.635014 -3.17189,9.14357 -0.566813,9.30259 z"/>
<path id="path3779" d="m 11.0453,20.227 c 1.85204,-0.815235 0.238528,-8.78913 -2.91075,-6.61446 -3.14786,2.17502 1.05871,7.42935 2.91075,6.61446 z"/>
<path id="path3781" d="m 16.2636,16.0533 c 2.2047,-0.449493 2.32556,-9.49305 -1.60609,-7.87071 -3.93235,1.6227 -0.59685,8.32091 1.60609,7.87071 z"/>
<path id="path3783" d="m 27.7762,36.2914 c 0.391186,2.98743 -2.19163,4.46277 -4.72108,2.53688 -8.05235,-6.1307 13.3325,-9.18915 11.9229,-17.5648 -1.17002,-6.95229 -22.5015,-4.8119 -24.9306,6.06638 -1.64425,7.35761 6.76818,17.5652 15.546,17.5652 4.31824,0 9.29905,-3.89914 10.2309,-8.8386 0.711697,-3.76662 -8.37462,-2.25736 -8.0481,0.234994 z"/>
</g>
</g>
</svg>
