<svg width="48" version="1.1" xmlns="http://www.w3.org/2000/svg" height="48">
<defs id="defs7386">
<clipPath id="clipPath6810-7-87" clipPathUnits="userSpaceOnUse">
<rect width="14" x="21" y="281" height="11" style="fill:none;stroke:#fff;stroke-linejoin:round;stroke-linecap:round;color:#bebebe;stroke-width:2" id="rect6812-2-4"/>
</clipPath>
<clipPath id="clipPath6810-7-87-5" clipPathUnits="userSpaceOnUse">
<rect width="14" x="21" y="281" height="11" style="fill:none;stroke:#fff;stroke-linejoin:round;stroke-linecap:round;color:#bebebe;stroke-width:2" id="rect6812-2-4-6"/>
</clipPath>
</defs>
<g style="color:#bebebe;text-indent:0;text-transform:none;text-decoration-line:none">
<g style="stroke-width:2;stroke:none">
<path style="font-family:'Bitstream Vera Sans';fill:#969696;text-align:start;line-height:normal" id="path12335-8" d="m 28.9384,33.2957 0,5.6022 -5.2025,0 c -3.03908,0 -3.19602,3.67707 -3.18472,5.60213 h 2.40091 5.98628 8.38718 5.95426 2.43293 c 0.149977,-2.35903 -0.03077,-5.60213 -3.12086,-5.60213 h -5.26633 v -5.60213 z "/>
<path style="fill:#c29242" id="path4157" d="m 33.1319,2.5 c -3.87417,0 -7.01066,3.10449 -7.01066,6.97865 v 14.0213 c 0,3.87417 3.13649,7.01066 7.01066,7.01066 3.87417,0 6.97865,-3.13649 6.97865,-7.01066 v -14.0213 c 0,-3.87416 -3.10448,-6.97865 -6.97865,-6.97865 z "/>
<g style="fill:#fff" id="g13" transform="matrix(0.91304209,0,0,0.91304209,11.23114,1.58696)">
<path id="path4155" d="m 19.4287,7.2409 9.0457,0 c 0.6859,0 1.22712,0.56294 1.22712,1.2622 0,0.69925 -0.54122,1.2622 -1.22712,1.2622 h -9.04574 c -0.68591,0 -1.22714,-0.56295 -1.22714,-1.2622 0,-0.69926 0.54123,-1.2622 1.22714,-1.2622 z "/>
<path id="path4153" d="m 19.4287,12.1494 9.0457,0 c 0.6859,0 1.22712,0.56294 1.22712,1.2622 0,0.69925 -0.54122,1.26219 -1.22712,1.26219 h -9.04574 c -0.68591,0 -1.22714,-0.56294 -1.22714,-1.26219 0,-0.69926 0.54123,-1.2622 1.22714,-1.2622 z "/>
<path id="path4151" d="m 19.4287,17.093 9.0457,0 c 0.6859,0 1.22712,0.56294 1.22712,1.2622 0,0.69925 -0.54122,1.26219 -1.22712,1.26219 h -9.04574 c -0.68591,0 -1.22714,-0.56294 -1.22714,-1.26219 0,-0.69926 0.54123,-1.2622 1.22714,-1.2622 z "/>
<path id="rect12327-3" d="m 19.4287,22.0366 9.0457,0 c 0.6859,0 1.22712,0.56293 1.22712,1.26219 0,0.69926 -0.54122,1.2622 -1.22712,1.2622 h -9.04574 c -0.68591,0 -1.22714,-0.56294 -1.22714,-1.2622 0,-0.69926 0.54123,-1.26219 1.22714,-1.26219 z "/>
</g>
</g>
<path style="font-family:'Bitstream Vera Sans';fill:#e6e6e6;text-align:start;stroke:#646464;line-height:normal" id="path4179" d="m 21.9378,13.9238 c -0.675542,0.000511 -1.25416,0.483794 -1.37501,1.14843 l -.0156,.0997 v 0.100005 c -0.0055,0.05058 -0.0082,0.101777 -0.0082,0.152661 0.000503,0.04437 0.0027,0.08866 0.0082,0.132811 v 7.90931 c 0,7.00002 5.64182,12.6738 12.5996,12.6738 6.95777,0 12.5976,-5.67379 12.5976,-12.6738 l .0005,-8.1948 v -0.1 c -0.116258,-0.653391 -0.650059,-1.23645 -1.34,-1.23645 -0.772433,0 -1.445,0.604516 -1.445,1.37695 0,0.105886 -0.01826,0.209123 0.0037,0.30859 v 7.8457 c 0,5.49418 -4.35536,9.87692 -9.81639,9.87692 -5.46103,0 -9.81831,-4.38276 -9.81831,-9.87692 v -7.90346 c 0.0046,-0.04611 0.0073,-0.09234 0.0082,-0.138673 -0.000429,-0.04501 -0.0027,-0.09085 -0.0082,-0.13566 v -0.116997 l -.0156,-.1 c -0.120832,-0.66464 -0.699454,-1.14766 -1.37499,-1.14817 z "/>
</g>
<g id="layer1" transform="matrix(0.6328677,0,0,0.6328677,-5.263731,20.43616)">
<path style="fill:#9d1100;stroke:none;stroke-width:.527" id="path7968-3" d="m 22.981,16.1343 a 7.11526,7.11526 0 1 1 -14.2305,0 7.11526,7.11526 0 1 1 14.2305,0 z" transform="matrix(1.9676015,0,0,1.9676015,-7.2173916,-7.7458546)"/>
</g>
</svg>
