<svg width="48" version="1.0" xmlns="http://www.w3.org/2000/svg" height="48">
<g style="fill:#0064b4;stroke:none" id="g5">
<path id="path3775" d="m 37.4152,3.105 c -8.69372,0 -10.3245,12.3826 -5.43384,12.3826 4.89,0 14.1279,-12.3826 5.43384,-12.3826 z "/>
<path id="path3777" d="m 22.9795,13.9532 c 2.60402,0.159018 5.46105,-9.9376 0.566813,-9.30259 -4.89247,0.635014 -3.17189,9.14357 -0.566813,9.30259 z "/>
<path id="path3779" d="m 11.0453,20.227 c 1.85204,-0.815235 0.238528,-8.78913 -2.91075,-6.61446 -3.14786,2.17502 1.05871,7.42935 2.91075,6.61446 z "/>
<path id="path3781" d="m 16.2636,16.0533 c 2.2047,-0.449493 2.32556,-9.49305 -1.60609,-7.87071 -3.93235,1.6227 -0.59685,8.32091 1.60609,7.87071 z "/>
<path id="path3783" d="m 27.7762,36.2914 c 0.391186,2.98743 -2.19163,4.46277 -4.72108,2.53688 -8.05235,-6.1307 13.3325,-9.18915 11.9229,-17.5648 -1.17002,-6.95229 -22.5015,-4.8119 -24.9306,6.06638 -1.64425,7.35761 6.76818,17.5652 15.546,17.5652 4.31824,0 9.29905,-3.89914 10.2309,-8.8386 0.711697,-3.76662 -8.37462,-2.25736 -8.0481,0.234994 z "/>
</g>
</svg>
