<svg width="96" version="1.0" xmlns="http://www.w3.org/2000/svg" height="96" xmlns:xlink="http://www.w3.org/1999/xlink">
<defs>
<linearGradient id="linearGradient4225">
<stop offset="0"/>
<stop offset="1" style="stop-color:#484848"/>
</linearGradient>
<linearGradient gradientTransform="translate(-2)" id="linearGradient4231" xlink:href="#linearGradient4225" y1="80" x1="67.071426" y2="88.011475" x2="67.071426" gradientUnits="userSpaceOnUse"/>
</defs>
<path style="fill:#cacaca" d="m 12,6 h 72 c 3.324,0 6,2.676 6,6 v 71.887093 c 0,3.324 -2.676,6 -6,6 H 12 c -3.324,0 -6,-2.676 -6,-6 V 12 C 6,8.676 8.676,6 12,6 Z"/>
<rect width="74" x="11" y="11" rx="4" height="63" style="opacity:.8;fill:#7b7b7b"/>
<rect width="72" x="12" y="12" rx="3" height="60" style="fill:#cacaca"/>
<path style="opacity:.3" d="m 22.7808,83.5089 a 3.28977,3.28977 0 0 1 -6.57954,0 3.28977,3.28977 0 1 1 6.57954,0 z"/>
<path style="fill:#f00" d="m 21.9822,83.5089 a 2.49108,2.49107 0 1,1 -4.98214,0 2.49108,2.49107 0 1,1 4.98214,0 z "/>
<path style="fill:url(#linearGradient4231)" d="m 55,80 c -0.554,0 -1,0.446 -1,1 v 6 c 0,0.554 0.446,1 1,1 0.554,0 1,-0.446 1,-1 v -6 c 0,-0.554 -0.446,-1 -1,-1 z m 4,0 c -0.554,0 -1,0.446 -1,1 v 6 c 0,0.554 0.446,1 1,1 0.554,0 1,-0.446 1,-1 v -6 c 0,-0.554 -0.446,-1 -1,-1 z m 4,0 c -0.554,0 -1,0.446 -1,1 v 6 c 0,0.554 0.446,1 1,1 0.554,0 1,-0.446 1,-1 v -6 c 0,-0.554 -0.446,-1 -1,-1 z m 4,0 c -0.554,0 -1,0.446 -1,1 v 6 c 0,0.554 0.446,1 1,1 0.554,0 1,-0.446 1,-1 v -6 c 0,-0.554 -0.446,-1 -1,-1 z m 4,0 c -0.554,0 -1,0.446 -1,1 v 6 c 0,0.554 0.446,1 1,1 0.554,0 1,-0.446 1,-1 v -6 c 0,-0.554 -0.446,-1 -1,-1 z m 4,0 c -0.554,0 -1,0.446 -1,1 v 6 c 0,0.554 0.446,1 1,1 0.554,0 1,-0.446 1,-1 v -6 c 0,-0.554 -0.446,-1 -1,-1 z m 4,0 c -0.554,0 -1,0.446 -1,1 v 6 c 0,0.554 0.446,1 1,1 0.554,0 1,-0.446 1,-1 v -6 c 0,-0.554 -0.446,-1 -1,-1 z"/>
<rect width="83.696457" x="6.2248263" y="76.044968" rx="6.0297518" ry="0.14412965" height="2.0820873" style="fill:#999;fill-rule:evenodd"/>
<g style="fill:#204562">
<path d="m 65.3608,14.7118 c -11.2507,0 -13.3611,16.0245 -7.03202,16.0245 6.32823,0 18.2831,-16.0245 7.03202,-16.0245 z "/>
<path d="m 46.6793,28.7506 c 3.36991,0.205788 7.06724,-12.8604 0.733522,-12.0386 -6.33143,0.821782 -4.1048,11.8328 -0.733522,12.0386 z "/>
<path d="m 31.2351,36.8696 c 2.39676,-1.05501 0.308683,-11.3742 -3.76685,-8.55988 -4.0737,2.81473 1.37009,9.61444 3.76685,8.55988 z "/>
<path d="m 37.9882,31.4684 c 2.85314,-0.581696 3.00955,-12.2851 -2.07847,-10.1856 -5.08892,2.01 -0.772394,10.7682 2.07847,10.1856 z "/>
<path d="m 52.8868,57.6588 c 0.50624,3.86608 -2.83622,5.77534 -6.10963,3.28302 -10.4207,-7.93384 17.2538,-11.8918 15.4296,-22.7309 -1.51414,-8.99707 -29.1196,-6.22716 -32.2631,7.8506 -2.12785,9.5216 8.75881,22.7314 20.1183,22.7314 5.58831,0 12.0341,-5.04594 13.24,-11.4382 0.921018,-4.87445 -10.8377,-2.92129 -10.4152,0.304109 z "/>
</g>
</svg>
