<svg width="48" version="1.1" xmlns="http://www.w3.org/2000/svg" height="48">
<rect width="40" x="4" y="17" height="14" style="fill:#f7f7f7;fill-rule:evenodd" id="rect877"/>
<g style="line-height:100%;fill:#333">
<path id="path850" d="m 16.7832,28.9154 c -1.53914,0.739076 -3.15288,1.0817 -4.67413,1.08454 -1.87972,0.0035 -3.36783,-0.537107 -4.46434,-1.61132 -1.0965,-1.07938 -1.64476,-2.54093 -1.64476,-4.38464 0,-1.86438 0.556643,-3.33109 1.66993,-4.40014 1.11888,-1.06905 2.65179,-1.58693 4.5986,-1.60357 1.45298,-0.01241 2.82204,0.350403 4.1035,0.859886 v 2.39374 c -0.632167,-0.36668 -1.25539,-0.65933 -1.87972,-0.821154 -1.49764,-0.388184 -3.40401,-0.457794 -4.54825,0.728192 -0.631176,0.654204 -0.93986,1.60874 -0.93986,2.84305 0,1.22398 0.250414,2.25007 0.906294,2.8353 1.16863,1.04275 2.15844,1.0589 3.41538,0.945096 0.264319,-0.02393 0.495105,-0.103288 0.696503,-0.18592 v -2.24655 h -1.77063 v -1.99865 h 4.53147 z"/>
<path id="path852" d="m 19.3343,18.2095 h 3.24755 l 4.1035,7.9326 v -7.93264 h 2.75245 v 11.5659 h -3.24755 l -4.0951,-7.9326 v 7.93264 h -2.76084 z"/>
<path id="path854" d="m 32.2741,18.2095 h 2.91189 v 6.93332 q 0,1.43314 0.453147,2.05288 0.461538,0.611991 1.49371,0.611991 1.04056,0 1.49371,-0.611991 0.461539,-0.619738 0.461539,-2.05288 V 18.2095 h 2.91189 v 6.93332 q 0,2.45571 -1.20839,3.65645 -1.2,1.20074 -3.65874,1.20074 -2.45874,0 -3.65874,-1.20074 -1.2,-1.20074 -1.2,-3.65645 z"/>
</g>
<path style="fill:#c00" id="path875" d="M 36.605469,45 H 45 L 40.789063,31.25 Z"/>
<path style="fill:#6ec814" id="path873" d="m 28.2109,45 h 8.39453 l -4.2109,-13.75 z"/>
<path style="fill:#c00" id="path871" d="m 19.789063,45 h 8.421874 L 24,31.25 Z"/>
<path style="fill:#6ec814" id="path869" d="m 11.3945,45 h 8.39453 l -4.1836,-13.75 z"/>
<path style="fill:#c00" id="path867" d="M 7.2109,31.25 3,45 h 8.39453 z"/>
<path style="fill:#6ec814" id="path865" d="M 36.605469,3 40.789063,16.75 45,3 Z"/>
<path style="fill:#c00" id="path863" d="M 28.2109,3 32.3945,16.75 36.6054,3 Z"/>
<path style="fill:#6ec814" id="path861" d="M 19.789063,3 24,16.75 28.210937,3 Z"/>
<path style="fill:#c00" id="path859" d="M 11.3945,3 15.6054,16.75 19.789,3 Z"/>
<path style="fill:#6ec814" id="path2168" d="M 3,3 7.2109,16.75 11.3945,3 Z"/>
</svg>
