<svg width="48" version="1.1" xmlns="http://www.w3.org/2000/svg" height="48">
<g style="stroke:none" id="g4">
<g style="line-height:125%" id="g4169" transform="matrix(0.83720766,0,0,0.83720766,-3.9177309,9.9069892)">
<path style="fill:#804d20" id="path4368" d="m 4.9573,38.1813 c -0.0454085,-12.0846 -0.118778,-17.3349 -0.0001809,-32.1943 l 4.3312,-3.3359 33.7651,.2782 v 40.432 c 0,0 0.438683,2.08537 -1.09332,2.10569 -3.27916,0.04349 -10.9219,0.03217 -15.8974,0.03063 0,0 2.59145,-0.02528 -15.6467,-0.0056 -3.69635,-0.07614 -5.52223,-1.97506 -5.45865,-7.31061 Z "/>
<g style="color:#000" id="g7">
<path style="fill:#fff" id="path2489" d="m 41.7002,36.5928 -31.0358,.1329 c -1.65509,0.189132 -2.9906,1.48453 -2.9906,3.18997 0,1.70544 1.33552,3.00084 2.9906,3.18997 l 31.0358,.1329 v -0.06645 c -1.76046,-0.0831 -3.18997,-1.47552 -3.18997,-3.25643 0,-1.78091 1.42951,-3.17333 3.18997,-3.25643 v -0.06645 z "/>
<path style="fill:#c0a840" id="path2784" d="m 7.768,2.5 c -1.815,0 -2.9986,1.0729 -3.0851,3.04256 v 34.1879 c -0.097789,3.27337 1.94295,5.13449 4.05432,5.66803 -4.51913,-1.73393 -3.92101,-9.5612 1.7279,-9.52848 h 32.8559 l -.0005,-32.912 c -4e-06,-0.257417 -0.390088,-0.45802 -0.651498,-0.45802 z "/>
</g>
</g>
<path style="opacity:.4;fill:#804d20;fill-rule:evenodd;stroke-linejoin:round;stroke-linecap:round;stroke-miterlimit:0" id="rect4185" d="m 14.856,12 17.495,0 0,24.886 -10.467,0 c -4.30403,1e-06 -7.028,-0.909981 -7.028,-7.093 z "/>
<g style="line-height:125%" id="g4175" transform="matrix(0.83720766,0,0,0.83720766,11.731729,-2.0930108)">
<path style="fill:#804d20" id="path4177" d="m 4.9573,38.1813 c -0.0454085,-12.0846 -0.118778,-17.3349 -0.0001809,-32.1943 l 4.3312,-3.3359 33.7651,.2782 v 40.432 c 0,0 0.438683,2.08537 -1.09332,2.10569 -3.27916,0.04349 -10.9219,0.03217 -15.8974,0.03063 0,0 2.59145,-0.02528 -15.6467,-0.0056 -3.69635,-0.07614 -5.52223,-1.97506 -5.45865,-7.31061 Z "/>
<g style="color:#000" id="g4179">
<path style="fill:#fff" id="path4181" d="m 41.7002,36.5928 -31.0358,.1329 c -1.65509,0.189132 -2.9906,1.48453 -2.9906,3.18997 0,1.70544 1.33552,3.00084 2.9906,3.18997 l 31.0358,.1329 v -0.06645 c -1.76046,-0.0831 -3.18997,-1.47552 -3.18997,-3.25643 0,-1.78091 1.42951,-3.17333 3.18997,-3.25643 v -0.06645 z "/>
<path style="fill:#e0c134" id="path4183" d="m 7.768,2.5 c -1.815,0 -2.9986,1.0729 -3.0851,3.04256 v 33.9494 c 0,3.27483 1.61977,5.32677 4.05432,5.90648 -4.51913,-1.73393 -3.92101,-9.5612 1.7279,-9.52848 h 32.8554 v -32.912 c 0,-0.257417 -0.390088,-0.45802 -0.651498,-0.45802 z "/>
</g>
</g>
</g>
</svg>
