<svg width="48" version="1.1" xmlns="http://www.w3.org/2000/svg" height="48" xmlns:xlink="http://www.w3.org/1999/xlink">
<defs id="defs18">
<linearGradient id="linearGradient3778">
<stop offset="0" id="stop3780"/>
<stop offset="0.5" style="stop-opacity:0" id="stop3786"/>
<stop offset="1" style="stop-color:#fff" id="stop3782"/>
</linearGradient>
<linearGradient gradientTransform="matrix(0,0.40464522,0.40464522,0,-5.6650331,35.041552)" id="linearGradient3940" xlink:href="#linearGradient3778" y1="24" y2="24" x1="10" x2="18" gradientUnits="userSpaceOnUse"/>
</defs>
<path style="fill:#b49e3c" id="rect2419" d="m 3.2372,14 h 29.1345 c 1.34504,0 2.42787,1.08283 2.42787,2.42787 v 29.1345 c 0,1.34504 -1.08283,2.42787 -2.42787,2.42787 h -29.1345 c -1.34504,0 -2.42787,-1.08283 -2.42787,-2.42787 v -29.1345 c 0,-1.34504 1.08283,-2.42787 2.42787,-2.42787 Z "/>
<path style="opacity:.2" id="path1259" d="m 48,28.5 v 4.56213 c 0,1.34504 -1.08283,2.42787 -2.42787,2.42787 h -31.5621 l 0,-6.99 z "/>
<path style="opacity:.2" id="path1261" d="m 48,28 v 4.562129 C 48,33.907169 46.917169,34.99 45.572128,34.99 H 14.01 L 14.009801,28 Z"/>
<rect width="0.4046452" x="8.0929041" y="14" height="33.990196" style="opacity:.15;fill:#fff" id="rect3650"/>
<rect width="0.4046452" x="7.6882591" y="14" height="33.990196" style="opacity:.4" id="rect3648"/>
<rect width="7.0982013" x="0.79948783" y="14.003058" rx="0" height="33.996941" style="fill:#34080e;fill-rule:evenodd" id="rect3059"/>
<path style="opacity:.6;fill:#7f7f7f" id="path3879" d="m 5.2604,26.1394 a 1.21394,1.21394 0 0,1 -2.42787,0 1.21394,1.21394 0 1,1 2.42787,0 z "/>
<rect width="4.8557425" x="0" y="25.330067" rx="0.80929047" ry=".8093" height="1.6185809" style="fill:#a0a0a0" id="rect3883"/>
<path style="opacity:.6;fill:#7f7f7f" id="path3863" d="m 5.2604,30.9951 a 1.21394,1.21394 0 0,1 -2.42787,0 1.21394,1.21394 0 1,1 2.42787,0 z "/>
<rect width="4.8557425" x="0" y="30.185808" rx="0.80929047" ry=".8093" height="1.6185809" style="fill:#a0a0a0" id="rect3867"/>
<path style="opacity:.6;fill:#7f7f7f" id="path3847" d="m 5.2604,35.8508 a 1.21394,1.21394 0 0,1 -2.42787,0 1.21394,1.21394 0 1,1 2.42787,0 z "/>
<rect width="4.8557425" x="0" y="35.041553" rx="0.80929047" ry=".8093" height="1.6185809" style="fill:#a0a0a0" id="rect3851"/>
<path style="opacity:.3;fill:url(#linearGradient3940)" id="path3827" d="m 2.4279,40.7066 c 0,-0.893918 0.724663,-1.61858 1.61858,-1.61858 0.893918,0 1.61858,0.724663 1.61858,1.61858 0,0.893918 -0.724663,1.61858 -1.61858,1.61858 -0.893918,0 -1.61858,-0.724663 -1.61858,-1.61858 z  m .4046,0 c 0,0.670436 0.543499,1.21394 1.21394,1.21394 0.670436,0 1.21394,-0.5435 1.21394,-1.21394 0,-0.670437 -0.543499,-1.21394 -1.21394,-1.21394 -0.670437,0 -1.21394,0.543499 -1.21394,1.21394 z "/>
<path style="opacity:.6;fill:#7f7f7f" id="path3831" d="m 5.2604,40.7066 a 1.21394,1.21394 0 0,1 -2.42787,0 1.21394,1.21394 0 1,1 2.42787,0 z "/>
<rect width="4.8557425" x="0" y="39.897293" rx="0.80929047" ry=".8093" height="1.6185809" style="fill:#a0a0a0" id="rect3835"/>
<path style="opacity:.6;fill:#7f7f7f" id="path3977" d="m 5.2604,21.2836 a 1.21394,1.21394 0 0,1 -2.42787,0 1.21394,1.21394 0 1,1 2.42787,0 z "/>
<rect width="4.8557425" x="0" y="20.474323" rx="0.80929047" height="1.6185809" ry=".8093" style="fill:#a0a0a0" id="rect3981"/>
<path style="opacity:.2" id="path1257" d="m 48,27.5 v 4.56213 c 0,1.34504 -1.08283,2.42787 -2.42787,2.42787 h -31.5621 l 0,-6.99 z "/>
<path style="fill:#f2cc22" id="path1025" d="m 16.4377,0 h 29.1345 c 1.34504,0 2.42787,1.08283 2.42787,2.42787 v 29.1345 c 0,1.34504 -1.08283,2.42787 -2.42787,2.42787 h -29.1345 c -1.34504,0 -2.42787,-1.08283 -2.42787,-2.42787 v -29.1345 c 0,-1.34504 1.08283,-2.42787 2.42787,-2.42787 Z "/>
<rect width="0.4046452" x="21.293415" y="0" height="33.990196" style="opacity:.15;fill:#fff" id="rect1027"/>
<rect width="0.4046452" x="20.888769" y="0" height="33.990196" style="opacity:.4" id="rect1029"/>
<rect width="7.0982013" x="14" y="0.0030590314" rx="0" height="33.996941" style="fill:#450b13;fill-rule:evenodd" id="rect1031"/>
<path style="opacity:.6;fill:#7f7f7f" id="path1035" d="m 18.4609,12.1394 a 1.21394,1.21394 0 0,1 -2.42787,0 1.21394,1.21394 0 1,1 2.42787,0 z "/>
<rect width="4.8557425" x="13.200511" y="11.330067" rx="0.80929047" height="1.6185809" ry=".8093" style="fill:#b4b4b4" id="rect1039"/>
<path style="opacity:.6;fill:#7f7f7f" id="path1045" d="m 18.4609,16.9951 a 1.21394,1.21394 0 0,1 -2.42787,0 1.21394,1.21394 0 1,1 2.42787,0 z "/>
<rect width="4.8557425" x="13.200511" y="16.185808" rx="0.80929047" height="1.6185809" ry=".8093" style="fill:#b4b4b4" id="rect1049"/>
<path style="opacity:.6;fill:#7f7f7f" id="path1055" d="m 18.4609,21.8508 a 1.21394,1.21394 0 0,1 -2.42787,0 1.21394,1.21394 0 1,1 2.42787,0 z "/>
<rect width="4.8557425" x="13.200511" y="21.041552" rx="0.80929047" height="1.6185809" ry=".8093" style="fill:#b4b4b4" id="rect1059"/>
<path style="opacity:.6;fill:#7f7f7f" id="path1065" d="m 18.4609,26.7066 a 1.21394,1.21394 0 0,1 -2.42787,0 1.21394,1.21394 0 1,1 2.42787,0 z "/>
<rect width="4.8557425" x="13.200511" y="25.897295" rx="0.80929047" height="1.6185809" ry=".8093" style="fill:#b4b4b4" id="rect1069"/>
<path style="opacity:.6;fill:#7f7f7f" id="path1075" d="m 18.4609,7.2836 a 1.21394,1.21394 0 0,1 -2.42787,0 1.21394,1.21394 0 1,1 2.42787,0 z "/>
<rect width="4.8557425" x="13.200511" y="6.4743237" rx="0.80929047" ry=".8093" height="1.6185809" style="fill:#b4b4b4" id="rect1079"/>
</svg>
