<svg width="48" version="1.1" xmlns="http://www.w3.org/2000/svg" viewBox="0 0 48 48" height="48">
<defs id="defs27"/>
<path style="fill:#2853c8;stroke:none" id="path3840" d="m 46,24 a 22,22 0 0,1 -44,0 22,22 0 1,1 44,0 z "/>
<g style="fill:#fff">
<path id="path71" d="m 24,2.825 c -2.66421,0 -5.2129,0.49335 -7.56141,1.39168 0.90145,-0.123567 1.98074,-0.200017 3.27599,-0.200017 7.38724,0 11.5762,3.21495 14.6209,6.62293 2.03189,2.27445 5.56069,9.0521 8.18125,9.0521 0.762485,-0.066 1.36162,-0.657251 1.83297,-1.56255 -2.54541,-8.83851 -10.692,-15.3041 -20.3497,-15.3041 z "/>
<path id="path82" d="m 11.0444,13.7944 c 7.15386,0 19.7423,15.1575 33.1154,16.6969 0.341183,-1.0604 0.602252,-2.15692 0.773483,-3.28259 -6.08008,-1.3244 -13.7234,-8.41923 -16.4725,-11.0921 -4.29715,-4.17835 -8.30793,-8.37229 -13.8111,-8.37229 -1.87734,0 -3.60049,0.323034 -5.09153,0.771468 -2.76155,2.57675 -4.83341,5.88262 -5.90757,9.61181 2.20698,-2.20606 4.72909,-4.33327 7.39367,-4.33327 z "/>
<path id="path93" d="m 32.2729,37.5896 c -12.2833,0 -21.5646,-6.62293 -24.8647,-6.62293 -1.34567,0 -2.12209,0.940132 -2.56996,2.05352 2.12007,4.49553 5.7752,8.12423 10.29,10.2108 -0.636534,-1.6357 -1.02043,-3.80032 1.40837,-3.80032 2.14647,0 4.28542,1.84855 12.2069,1.84855 3.61699,0 6.94817,-0.754602 9.3973,-1.51929 1.29653,-1.16417 2.44916,-2.48545 3.42669,-3.93471 -2.33969,0.833068 -5.74714,1.7644 -9.29463,1.7644 z "/>
</g>
</svg>
