<svg width="96" version="1.0" xmlns="http://www.w3.org/2000/svg" height="96">
<g style="color:#000">
<path style="fill:#a0a0a0" d="m 12,6 h 72 c 3.324,0 6,2.676 6,6 v 71.887093 c 0,3.324 -2.676,6 -6,6 H 12 c -3.324,0 -6,-2.676 -6,-6 V 12 C 6,8.676 8.676,6 12,6 Z"/>
<path style="opacity:.5" d="m 46,18.4 c -13.2548,0 -24,9.40202 -24,21 0,11.598 10.7452,21 24,21 4.20692,0 20.094,-7.931 20.094,-7.931 l 0.7075,-1.0884 -16.3953,-8.4493 c -1.0944,1.04825 -2.65388,1.71875 -4.40625,1.71875 -3.31371,0 -6,-2.35051 -6,-5.25 0,-2.89949 2.68629,-5.25 6,-5.25 1.76972,0 3.34182,0.68358 4.4375,1.75 0.06508,-0.0711 0.138531,-0.13406 0.21875,-0.1875 l 15.4378,-6.1816 0.8473,-0.4808 -0.8475,-1.1189 C 61.80925,22.19689 54.4139,18.4 46,18.4 Z m 23.7812,10.5 -16.5938,8.4375 1,1.0375 11.7188,9.5562 3.875,1.9688 c 4.28719,-6.49742 4.28719,-14.5026 0,-21 z"/>
<path style="fill:#fff" d="m 46,20 c -13.2548,0 -24,9.40202 -24,21 0,11.598 10.7452,21 24,21 8.41385,0 15.8094,-3.79664 20.094,-9.531 L 50.4062,44.5313 c -1.0944,1.04825 -2.65388,1.71875 -4.40625,1.71875 -3.31371,0 -6,-2.35051 -6,-5.25 0,-2.89949 2.68629,-5.25 6,-5.25 1.76972,0 3.34182,0.68358 4.4375,1.75 L 66.094,29.531 C 61.80945,23.79664 54.4139,20 46,20 Z M 69.7812,30.5 54.187,38.375 c 0.510532,0.772217 0.8129,1.66873 0.8129,2.625 0,0.956275 -0.301968,1.85278 -0.8125,2.625 L 69.7812,51.5 c 4.28719,-6.49742 4.28719,-14.5026 0,-21 z"/>
<g transform="matrix(1.0414208,0,0,1.0414208,-0.09126355,-3.1229868)">
<path style="opacity:.3" d="m 24.0933,83.1777 a 4.32102,4.32102 0 0 1 -8.64204,0 4.32102,4.32102 0 1 1 8.64204,0 z"/>
<path style="fill:#4cff98" d="m 23.0443,83.1777 a 3.27195,3.27195 0 0 1 -6.5439,0 3.27195,3.27195 0 1 1 6.5439,0 z"/>
</g>
</g>
<path style="fill:#fff;fill-rule:evenodd" d="m 89.9,74 v 3 H 6.1 v -3 z"/>
</svg>
