<svg xmlns:xlink="http://www.w3.org/1999/xlink" version="1.1" width="48" xmlns="http://www.w3.org/2000/svg" height="48">
<defs id="defs7189"/>
<g style="stroke:none" id="layer1">
<path style="fill:#3e659e" id="path3006" d="m 24,3.5 c -11.3219,0 -20.5,9.17832 -20.5,20.5 0,11.3221 9.17806,20.5 20.5,20.5 11.3209,0 20.5,-9.1778 20.5,-20.5 0,-11.3217 -9.1791,-20.5 -20.5,-20.5 z "/>
<g style="fill:#fff">
<path id="path3004" d="m 23.875,8.6562 c 1.98574,0 3.59375,1.60801 3.59375,3.59375 0,1.98574 -1.60801,3.59375 -3.59375,3.59375 -1.98574,0 -3.59375,-1.60801 -3.59375,-3.59375 0,-1.98574 1.60801,-3.59375 3.59375,-3.59375 z "/>
<path id="path6495" d="m 18.5938,18.8438 8.75,0 0,15.5 3.25,0 0,2.5 -12,0 0,-2.5 3.25,0 0,-13 -3.25,0 0,-2.5 z "/>
</g>
</g>
</svg>
