<svg width="48" version="1.1" xmlns="http://www.w3.org/2000/svg" height="48" xmlns:xlink="http://www.w3.org/1999/xlink">
<g style="font-family:Sans;text-align:start;stroke:none;line-height:normal;color:#bebebe;stroke-width:5.857;text-decoration-line:none;text-indent:0;text-transform:none">
<path style="fill:#19318e" id="path4162" d="m 6.211,3 0,2.9751 0,17.7875 c 0,6.14475 4.4305,10.9544 8.38805,14.4959 3.95755,3.54144 7.8816,5.85531 7.8816,5.85531 l 1.551,.8862 1.5193,-.9179 c 0,0 3.90261,-2.35209 7.84995,-5.91861 3.94734,-3.56652 8.38805,-8.33734 8.38805,-14.4009 v -17.7875 -2.97513 h -2.94373 -29.6905 -2.94373 Z "/>
<path style="fill:#fff" id="path4160" d="m 12.1301,8.9186 23.7398,0 0,14.844 c 0,2.72786 -2.98871,6.86762 -6.45722,10.0015 -2.26207,2.04384 -4.1356,3.36275 -5.44432,4.24115 -1.31112,-0.861946 -3.18281,-2.1508 -5.41267,-4.14619 -3.4583,-3.09468 -6.42556,-7.19262 -6.42556,-10.0965 v -14.844 z "/>
<path style="fill:#19318e" id="rect3259-2-8" d="m 26.8171,10.3745 -13.1677,12.0588 0,.8546 c 0,2.29682 2.16077,5.46062 4.81126,8.03919 l 15.8898,-14.5275 v -6.42502 h -7.53342 z "/>
</g>
</svg>
