<svg xmlns:xlink="http://www.w3.org/1999/xlink" version="1.0" width="48" xmlns="http://www.w3.org/2000/svg" height="48">
<defs id="defs4661"/>
<g id="layer1" transform="translate(0,-80)">
<path style="fill:#dc00a5" id="path25" d="m 1.6708,107.5408 -.6349,.4073 c 0.064016,0.13761 6.58116,13.7942 20.2328,15.3812 13.7647,1.60042 20.1729,-8.61302 20.1729,-8.61302 -0.09009,0.0487 -9.10043,4.85703 -18.5557,4.28854 -12.0075,-0.72143 -21.1246,-11.3567 -21.2151,-11.4641 z "/>
<path style="fill:#fafafa" id="path39" d="m 2.4582,107.4193 c 0,0 14.1116,8.20256 25.9946,3.70951 11.8818,-4.49343 17.0346,-19.982 17.0346,-19.982 0,0 -13.3327,-6.14292 -25.2149,-1.64948 -11.8822,4.49343 -17.8143,17.922 -17.8143,17.922 z "/>
<path style="fill:#282828" id="path48" d="m 13.5424,101.716 c 0.547494,5.47273 5.44617,9.48042 10.9189,8.93256 5.47236,-0.54749 9.47969,-5.44616 8.9322,-10.9189 -0.547494,-5.47347 -5.44617,-9.48006 -10.9189,-8.9322 -5.47273,0.547496 -9.48006,5.44506 -8.9322,10.9185 z "/>
<path style="fill:#dc00a5" id="path151" d="m 26.2042,84.5049 c -2.45254,0.04506 -4.93748,0.441074 -7.31927,1.34167 -12.7025,4.80355 -17.8849,22.2094 -17.8849,22.2094 0,0 15.4122,9.61879 28.1151,4.81562 12.7025,-4.80393 17.8849,-22.2094 17.8849,-22.2094 0,0 -10.1682,-6.35253 -20.7958,-6.15729 z  m 2.6115,5.726 c 7.49669,-0.08968 13.6562,2.40781 13.6562,2.40781 0,0 -5.01563,13.096 -15.8724,17.1302 -10.8572,4.0342 -23.4432,-2.51562 -23.4432,-2.51562 0,0 5.6741,-11.3834 16.5312,-15.4172 3.05336,-1.13451 6.19464,-1.57012 9.12813,-1.60521 z  m 3.5099,18.0286 c -0.643314,0.41549 -1.30777,0.80776 -2.00052,1.16198 0.692754,-0.35424 1.35721,-0.74648 2.00052,-1.16198 z "/>
</g>
</svg>
