<svg width="48" version="1.1" xmlns="http://www.w3.org/2000/svg" height="48" xmlns:xlink="http://www.w3.org/1999/xlink">
<defs id="defs3815">
<linearGradient id="linearGradient3755">
<stop offset="0" style="stop-color:#00448c" id="stop3757"/>
<stop offset="1" style="stop-color:#006ebf" id="stop3759"/>
</linearGradient>
<linearGradient gradientTransform="matrix(0.83720813,0,0,0.83720813,-319.27524,-432.48205)" xlink:href="#linearGradient3755" id="linearGradient3761" y1="559.57648" x1="402.87729" y2="516.57672" x2="402.75009" gradientUnits="userSpaceOnUse"/>
<linearGradient gradientTransform="matrix(0.60465032,0,0,0.60465032,-208.58767,-290.34815)" xlink:href="#linearGradient3755" id="linearGradient4145" y1="559.57648" x1="402.87729" y2="516.57672" gradientUnits="userSpaceOnUse" x2="402.75009"/>
</defs>
<g style="fill-rule:evenodd;stroke:none">
<path style="fill:url(#linearGradient4145)" id="path4159" d="m 34.9949,22 c -3.40362,0.0002 -6.78478,1.402 -9.18972,3.80859 -2.40495,2.40658 -3.8052,5.78828 -3.8052,9.19141 0,3.40311 1.40026,6.78478 3.8052,9.19141 2.40495,2.40659 5.78607,3.80839 9.18972,3.80859 3.40362,0.0002 6.78678,-1.4003 9.1948,-3.8069 2.40802,-2.40659 3.81028,-5.78959 3.81028,-9.1931 0,-3.40349 -1.40226,-6.78647 -3.81028,-9.1931 -2.40801,-2.40659 -5.79115,-3.8071 -9.1948,-3.8069 z "/>
<path style="fill:#fff" id="path4157" d="m 34.9949,25.4666 c 2.49599,-0.000145 4.97786,1.02644 6.74373,2.79127 1.76588,1.76484 2.79466,4.24616 2.79466,6.74203 0,2.49589 -1.02878,4.97721 -2.79466,6.74203 -1.76588,1.76483 -4.24775,2.79142 -6.74373,2.79127 -2.49599,-0.000152 -4.97503,-1.02814 -6.73865,-2.79297 -1.76363,-1.76483 -2.78958,-4.24474 -2.78958,-6.74034 0,-2.49562 1.02595,-4.97553 2.78958,-6.74034 1.76363,-1.76482 4.24267,-2.79281 6.73865,-2.79296 z "/>
<path style="fill:url(#linearGradient4145)" id="path4143" d="m 33.2667,27.2 0,9.5333 1.7334,0 1.7334,0 6.0666,0 0,-3.4666 -6.0666,0 0,-6.0666 -3.4666,0 z "/>
<path style="fill:url(#linearGradient3761)" id="path4152" d="m 17.993,-0 c -4.71271,0.000276279 -9.39431,1.94123 -12.7242,5.27343 -3.32993,3.33219 -5.26874,8.01454 -5.26874,12.7266 -3.04159e-16,4.712 1.93881,9.39431 5.26874,12.7266 3.32993,3.3322 8.01149,5.27316 12.7242,5.27343 4.71271,0.000277 9.39708,-1.93888 12.7313,-5.27109 3.33418,-3.33221 5.27578,-8.01636 5.27578,-12.7289 0,-4.71253 -1.94159,-9.39666 -5.27578,-12.7289 -3.33417,-3.33221 -8.01852,-5.27136 -12.7313,-5.27109 Z "/>
<path style="fill:#fff" id="path4150" d="m 17.993,4.8 c 3.45599,-0.0002009 6.89242,1.42122 9.33747,3.86484 2.44506,2.44363 3.86953,5.87929 3.86953,9.33512 0,3.45585 -1.42447,6.89152 -3.86953,9.33512 -2.44507,2.44362 -5.88151,3.86504 -9.33747,3.86484 -3.45599,-0.000209 -6.88851,-1.42358 -9.33043,-3.86718 -2.44195,-2.44361 -3.8625,-5.87733 -3.8625,-9.33278 0,-3.45547 1.42055,-6.88919 3.8625,-9.33278 2.44194,-2.4436 5.87446,-3.86697 9.33043,-3.86718 Z "/>
<path style="fill:url(#linearGradient3761)" id="path3272" d="m 15.6,7.2 0,13.2 2.4,0 2.4,0 8.4,0 0,-4.8 -8.4,0 0,-8.4 -4.8,0 z "/>
</g>
</svg>
