<svg width="48" version="1.1" xmlns="http://www.w3.org/2000/svg" height="48" xmlns:xlink="http://www.w3.org/1999/xlink">
<defs id="defs4">
<linearGradient id="linearGradient3670-5">
<stop offset="0" style="stop-color:#fafafa" id="stop3672-4"/>
<stop offset="1" style="stop-color:#c8c8c8" id="stop3674-0"/>
</linearGradient>
<linearGradient gradientTransform="matrix(0.45453502,0.07519008,-0.07519008,0.45453502,5.6513566,1002.6914)" xlink:href="#linearGradient3834" id="linearGradient3009" y1="60.327255" x1="69.087135" y2="36.595539" gradientUnits="userSpaceOnUse" x2="69.087135"/>
<linearGradient id="linearGradient3834">
<stop offset="0" style="stop-color:#d40000" id="stop3836-4"/>
<stop offset="1" style="stop-color:#d41400" id="stop3838-6"/>
</linearGradient>
<linearGradient gradientTransform="matrix(0.46071209,0,0,0.46071209,-215.80542,988.14892)" xlink:href="#linearGradient3670-5" id="linearGradient3800" y1="8" x1="64" y2="88" gradientUnits="userSpaceOnUse" x2="64"/>
<linearGradient gradientTransform="translate(-1.1002891,-0.25253814)" xlink:href="#linearGradient3670-5" id="linearGradient3790" y1="1009.1693" x1="12.434731" y2="1047.5551" gradientUnits="userSpaceOnUse" x2="12.564446"/>
<linearGradient gradientTransform="translate(163.18254,-17.922668)" xlink:href="#linearGradient3670-5" id="linearGradient3012" y1="1009.1693" x1="22.622" y2="1047.5551" gradientUnits="userSpaceOnUse" x2="22.877985"/>
</defs>
<g id="layer1" transform="translate(0,-1004.3622)">
<g style="color:#000;stroke-width:.5" id="g16">
<rect width="24.878452" x="-200.04463" y="991.45959" rx="2.7642725" ry="2.7642725" height="38.699814" style="opacity:.36;stroke:#000" id="rect3784" transform="matrix(0.9799896,-0.19904869,0.19904869,0.9799896,0,0)"/>
<path style="fill:url(#linearGradient3800);stroke:#c8c8c8" id="rect3785-2" d="m -196.4555,990.9132 19.3499,0 c 1.5314,0 2.76427,1.23286 2.76427,2.76427 v 33.1712 c 0,1.5315 -1.23287,2.7643 -2.76427,2.7643 h -19.3499 c -1.9557,0 -2.76427,-0.7668 -2.76427,-2.7643 v -33.1712 c 0,-1.53141 1.23286,-2.76427 2.76427,-2.76427 z " transform="matrix(0.9799896,-0.19904869,0.19904869,0.9799896,0,0)"/>
</g>
<path style="fill:#d50404;font-family:Serif;text-align:start;stroke:none;word-spacing:0;line-height:125%;letter-spacing:0;font-size:10.88891315px" id="path3910" d="m 6.4352,1011.7273 c -0.245327,0.05 -0.485316,0.118 -0.728303,0.2398 -0.240629,0.1213 -0.480115,0.2802 -0.705764,0.4632 l .1872,.9218 .3951,-.08 c -0.033636,-0.3349 0.031443,-0.5896 0.182117,-0.791 0.150651,-0.2016 0.377337,-0.351 0.714662,-0.4195 0.325525,-0.066 0.60668,-0.01 0.830586,0.1513 0.226259,0.1587 0.379367,0.4051 0.45025,0.7541 0.064788,0.319 0.059557,0.6444 -0.03225,0.9663 -0.092272,0.3197 -0.293072,0.6812 -0.576481,1.0998 l -1.2812,1.9057 .0758,.373 3.4019,-.6909 -.2452,-1.2071 -.3951,.08 .1293,.6365 -2.2167,.4502 1.0713,-1.5888 c 0.022729,-0.033 0.063522,-0.072 0.109413,-0.1364 0.578622,-0.8517 0.808245,-1.5339 0.705419,-2.0402 -0.091088,-0.4484 -0.32531,-0.7588 -0.696824,-0.9554 -0.371501,-0.1965 -0.825522,-0.2436 -1.37514,-0.132 z  m 1.7105,6.5085 c -0.223713,0.045 -0.976143,1.359 -1.10221,1.5493 -0.126062,0.1903 -1.042,1.3956 -0.996561,1.6193 0.045423,0.2237 1.35902,0.9762 1.54934,1.1022 0.190315,0.126 1.39558,1.042 1.61929,0.9965 0.223713,-0.045 0.976143,-1.359 1.10221,-1.5493 0.126064,-0.1903 1.042,-1.3956 0.996581,-1.6193 -0.04544,-0.2237 -1.35904,-0.9762 -1.54936,-1.1022 -0.190315,-0.1261 -1.39558,-1.042 -1.61929,-0.9965 z "/>
<g style="color:#000;stroke-width:.5" id="g21">
<rect width="24.878454" x="10.761" y="1009.4594" rx="2.7642727" ry="2.7642727" height="38.699814" style="opacity:.36;stroke:#000" id="rect3782"/>
<path style="fill:url(#linearGradient3790);stroke:#c8c8c8" id="rect3698-2" d="m 14.225,1008.7598 19.3499,0 c 1.53141,0 2.76427,1.2329 2.76427,2.7643 v 33.1713 c 0,1.5314 -1.23287,2.7642 -2.76427,2.7642 h -19.3499 c -1.91529,0 -2.76427,-0.8489 -2.76427,-2.7642 v -33.1713 c 0,-1.5314 1.23287,-2.7643 2.76427,-2.7643 z "/>
</g>
<path style="font-family:Serif;text-align:start;stroke:none;word-spacing:0;line-height:125%;letter-spacing:0;font-size:10.88891315px" id="path3913" d="m 13.262,1010.6769 0,.3807 .6943,0 0,4.5463 -.6943,0 0,.3807 2.1276,0 0,-.3807 -.6943,0 0,-2.15 2.5755,2.5307 1.2766,0 0,-.3807 -.6271,0 -2.6203,-2.5531 2.3516,-1.9932 .6047,0 0,-.3807 -1.8141,0 0,.3807 .6047,0 -2.3516,2.0156 0,-2.0156 .6943,0 0,-.3807 -2.1276,0 z  m 2.7771,6.6739 c 0,0 -2.27164,1.4285 -2.37395,2.9338 -0.0041,0.034 0,0.077 0,0.112 0,0.5612 0.532177,1.0078 1.18697,1.0078 0.535819,0 0.972928,-0.2984 1.11979,-0.7167 -0.240955,1.5388 -1.29895,2.0828 -1.29895,2.0828 h 2.70988 c 0,0 -1.07115,-0.5562 -1.29895,-2.1276 0.130258,0.44 0.588334,0.7615 1.14218,0.7615 0.654796,0 1.16458,-0.4466 1.16458,-1.0078 0,-0.035 0.0041,-0.078 0,-0.112 -0.105069,-1.4452 -2.35155,-2.9338 -2.35155,-2.9338 z "/>
<g style="color:#000" id="g26">
<g style="stroke-width:.5" id="g28">
<rect width="24.878454" x="185.22829" y="991.89429" rx="2.7642727" height="38.699814" ry="2.7642727" style="opacity:.36;stroke:#000" id="rect3780" transform="matrix(0.98659233,0.16320406,-0.16320406,0.98659233,0,0)"/>
<path style="fill:url(#linearGradient3012);stroke:#c8c8c8" id="rect3666-4" d="m 188.5688,991.0897 19.3499,0 c 1.53141,0 2.76427,1.23287 2.76427,2.76427 v 33.1713 c 0,1.5314 -1.23286,2.7643 -2.76427,2.7643 h -19.3499 c -1.7895,0 -2.76427,-0.7051 -2.76427,-2.7643 v -33.1713 c 0,-1.5314 1.23287,-2.76427 2.76427,-2.76427 z " transform="matrix(0.98659233,0.16320406,-0.16320406,0.98659233,0,0)"/>
</g>
<path style="fill:url(#linearGradient3009);stroke:none;stroke-width:1.5" id="path3805-7" d="m 25.2135,1010.6043 -2.59,4.6791 -.6149,.012 -.0329,.1988 1.7234,.2851 .0329,-.1988 -.6888,-.2275 .7825,-1.4368 2.0549,.3399 .256,1.6086 -.7032,0 -.0329,.1988 2.2095,.3655 .0329,-.1988 -.6446,-.2201 -1.0336,-5.2785 -.7512,-.1243 z  m .1075,.5853 .504,2.7166 -1.8339,-.3034 1.3299,-2.4132 z  m -1.9074,5.9043 c -0.730783,-0.1209 -1.42414,0.3756 -1.54502,1.1064 -0.0075,0.045 -0.01896,0.087 -0.02193,0.1326 -0.210071,1.9789 2.01548,4.2831 2.01548,4.2831 0,0 2.83677,-1.5471 3.26533,-3.4096 0.01188,-0.044 0.03646,-0.083 0.04404,-0.1289 0.120885,-0.7308 -0.375647,-1.4241 -1.10643,-1.545 -0.730782,-0.1209 -1.42414,0.3756 -1.54502,1.1064 0.120885,-0.7308 -0.375647,-1.4241 -1.10643,-1.545 z  m 5.4346,6.2562 c -1.46878,-0.2429 -2.84985,0.713 -3.14904,2.1577 -0.0099,0.035 -0.0124,0.075 -0.01826,0.1104 -0.0155,0.094 -0.04174,0.1941 -0.04753,0.2873 -0.02705,0.2549 -0.02346,0.5109 -0.0138,0.7696 0.0097,0.2586 0.0365,0.5022 0.07825,0.762 0.000637,0.01 -0.0049,0.015 -0.0036,0.022 0.04141,0.2529 0.102948,0.503 0.170272,0.7546 0.07025,0.2649 0.138703,0.5269 0.23292,0.7875 0.09186,0.2543 0.200246,0.4849 0.310157,0.7324 1.20687,2.7272 3.37859,4.9626 3.37859,4.9626 0,0 2.76541,-1.4921 4.7856,-3.6802 0.17937,-0.1937 0.364433,-0.3894 0.52947,-0.5934 0.0049,-0.01 -0.000645,-0.016 0.0036,-0.022 0.168578,-0.2091 0.318636,-0.4078 0.466824,-0.6265 0.15227,-0.2246 0.282818,-0.4482 0.407866,-0.6816 0.119037,-0.2206 0.225984,-0.4469 0.315826,-0.6742 0.0032,-0.01 0.000969,-0.015 0.0036,-0.022 0.0915,-0.2341 0.172243,-0.4489 0.227446,-0.6888 0.02445,-0.09 0.03194,-0.1931 0.04751,-0.2872 0.0059,-0.036 0.01645,-0.074 0.01828,-0.1105 0.181986,-1.4641 -0.81766,-2.8139 -2.28644,-3.0569 -1.5062,-0.2491 -2.91815,0.762 -3.16732,2.2682 0.249164,-1.5062 -0.784062,-2.9218 -2.29026,-3.171 z  m 8.7559,12.5261 c 0,0 -2.84822,1.4612 -3.28744,3.406 -0.01205,0.045 -0.01452,0.088 -0.02192,0.1325 -0.121114,0.7322 0.374245,1.424 1.10641,1.5451 0.732168,0.1211 1.42393,-0.3743 1.54504,-1.1065 -0.121114,0.7322 0.374246,1.424 1.10641,1.5451 0.732167,0.1211 1.42393,-0.3743 1.54504,-1.1065 0.0077,-0.046 -0.003,-0.091 -0.000182,-0.1361 0.1944,-1.9048 -1.99337,-4.2796 -1.99337,-4.2796 z  m -4.0794,6.1351 -.0366,.221 .5819,.1875 .9416,5.286 .7512,.1242 2.6821,-4.6865 .6776,.021 .0366,-.221 -2.2095,-.3655 -.0366,.221 .6703,.2021 -.7604,1.4404 -2.0549,-.3399 -.2781,-1.6122 .7217,.028 .0366,-.221 -1.7234,-.2851 z  m 1.2953,2.4616 1.8118,.2998 -1.3299,2.4132 -.4819,-2.713 z "/>
</g>
</g>
</svg>
