<svg width="48" version="1.0" xmlns="http://www.w3.org/2000/svg" height="48" xmlns:xlink="http://www.w3.org/1999/xlink">
<defs>
<linearGradient id="linearGradient37">
<stop offset="0" style="stop-color:#bd000f"/>
<stop offset="0.46820849" style="stop-color:#bd000f"/>
<stop offset="1" style="stop-color:#ff0016"/>
</linearGradient>
<radialGradient fx="56.719601" fy="48" cx="56.719601" cy="48" gradientTransform="matrix(0.66666667,0,0,0.66666667,-13.813067,-8)" xlink:href="#linearGradient37" id="radialGradient38" r="30" gradientUnits="userSpaceOnUse"/>
</defs>
<g style="color:#000">
<path style="opacity:.1" d="m 24,5 c -11.08,0 -20,8.92 -20,20 0,11.08 8.92,20 20,20 11.08,0 20,-8.92 20,-20 0,-11.08 -8.92,-20 -20,-20 Z  m 0,11.1111 c 4.92444,0 8.88887,3.96444 8.88887,8.88887 0,4.92444 -3.96444,8.88887 -8.88887,8.88887 -4.92444,0 -8.88887,-3.96444 -8.88887,-8.88887 0,-4.92444 3.96444,-8.88887 8.88887,-8.88887 z "/>
<path style="opacity:.2" d="m 24,4.66 c -11.08,0 -20,8.92 -20,20 0,11.08 8.92,20 20,20 11.08,0 20,-8.92 20,-20 0,-11.08 -8.92,-20 -20,-20 z  m 0,11.1111 c 4.92444,0 8.88887,3.96444 8.88887,8.88887 0,4.92444 -3.96444,8.88887 -8.88887,8.88887 -4.92444,0 -8.88887,-3.96444 -8.88887,-8.88887 0,-4.92444 3.96444,-8.88887 8.88887,-8.88887 z "/>
<path style="opacity:.3" d="m 24,4.33 c -11.08,0 -20,8.92 -20,20 0,11.08 8.92,20 20,20 11.08,0 20,-8.92 20,-20 0,-11.08 -8.92,-20 -20,-20 z  m 0,11.1111 c 4.92444,0 8.88887,3.96444 8.88887,8.88887 0,4.92444 -3.96444,8.88887 -8.88887,8.88887 -4.92444,0 -8.88887,-3.96444 -8.88887,-8.88887 0,-4.92444 3.96444,-8.88887 8.88887,-8.88887 z "/>
<path style="fill:url(#radialGradient38)" d="m 24,4 c -11.08,0 -20,8.92 -20,20 0,11.08 8.92,20 20,20 11.08,0 20,-8.92 20,-20 0,-11.08 -8.92,-20 -20,-20 Z  m 0,11.1111 c 4.92444,0 8.88887,3.96444 8.88887,8.88887 0,4.92444 -3.96444,8.88887 -8.88887,8.88887 -4.92444,0 -8.88887,-3.96444 -8.88887,-8.88887 0,-4.92444 3.96444,-8.88887 8.88887,-8.88887 z "/>
<path style="fill:#fff;fill-rule:evenodd" d="m 15.9376,7.5 c -4.13943,2.01843 -7.3922,5.53459 -9.06253,9.86327 l 6.9745,3.9844 c 0.832773,-3.21533 3.13349,-5.82389 6.16016,-7.06253 l -4.0723,-6.7852 Z  m 16.1251,0 -4.0723,6.7852 c 3.02667,1.23861 5.32739,3.84717 6.16016,7.06253 l 6.9745,-3.9844 c -1.67024,-4.32868 -4.92303,-7.8448 -9.06247,-9.86327 z  m -18.2129,19.1523 -6.9745,3.9844 c 1.67028,4.32869 4.92307,7.84487 9.06253,9.86327 l 4.0724,-6.7852 c -3.02661,-1.23864 -5.32735,-3.84719 -6.16012,-7.06253 Z  m 20.3008,0 c -0.83292,3.2154 -3.13365,5.82395 -6.16031,7.0626 l 4.0723,6.7852 c 4.13943,-2.01843 7.3922,-5.53457 9.06253,-9.86327 l -6.9745,-3.9844 z "/>
<path style="fill:#7e1722" d="m 11.5995,11.1403 c -0.76331,0 -1.37784,0.614533 -1.37784,1.37785 0,0.763307 0.61453,1.37784 1.37784,1.37784 0.76332,0 1.37785,-0.614533 1.37785,-1.37784 0,-0.76332 -0.614531,-1.37785 -1.37785,-1.37785 z  m 24.8011,0 c -0.76332,0 -1.37785,0.614533 -1.37785,1.37785 0,0.763307 0.61453,1.37784 1.37785,1.37784 0.76331,0 1.37784,-0.614533 1.37784,-1.37784 0,-0.76332 -0.61453,-1.37785 -1.37784,-1.37785 z  m -24.8011,.9185 c 0.25444,0 0.45929,0.20484 0.45929,0.45928 0,0.254427 -0.20485,0.45928 -0.45929,0.45928 -0.254431,0 -0.45928,-0.204853 -0.45928,-0.45928 0,-0.25444 0.20485,-0.45928 0.45928,-0.45928 z  m 24.8011,0 c 0.25443,0 0.45928,0.20484 0.45928,0.45928 0,0.254427 -0.20485,0.45928 -0.45928,0.45928 -0.25444,0 -0.45928,-0.204853 -0.45928,-0.45928 0,-0.25444 0.20484,-0.45928 0.45928,-0.45928 z  m -24.8011,22.0455 c -0.76331,0 -1.37784,0.614533 -1.37784,1.37785 0,0.763307 0.61453,1.37784 1.37784,1.37784 0.76332,0 1.37785,-0.614533 1.37785,-1.37784 0,-0.76332 -0.614531,-1.37785 -1.37785,-1.37785 z  m 24.8011,0 c -0.76332,0 -1.37785,0.614533 -1.37785,1.37785 0,0.763307 0.61453,1.37784 1.37785,1.37784 0.76331,0 1.37784,-0.614533 1.37784,-1.37784 0,-0.76332 -0.61453,-1.37785 -1.37784,-1.37785 z  m -24.8011,.9185 c 0.25444,0 0.45929,0.204853 0.45929,0.459293 0,0.254427 -0.20485,0.45928 -0.45929,0.45928 -0.254431,0 -0.45928,-0.204853 -0.45928,-0.45928 0,-0.25444 0.20485,-0.459293 0.45928,-0.459293 z  m 24.8011,0 c 0.25443,0 0.45928,0.204853 0.45928,0.459293 0,0.254427 -0.20485,0.45928 -0.45928,0.45928 -0.25444,0 -0.45928,-0.204853 -0.45928,-0.45928 0,-0.25444 0.20484,-0.459293 0.45928,-0.459293 z "/>
<path style="opacity:.4" d="m 36.2493,13.5065 c 2.00521,2.60397 3.30796,5.78793 3.60248,9.27533 0.04209,0.498209 0.0646,1.00266 0.0646,1.5124 0,4.07793 -1.3754,7.81353 -3.66707,10.7895 0.0028,0.123894 0,0.29139 0.0055,0.419572 0.01,0.242492 0.220776,0.425642 0.462836,0.434462 l .004,.004 .002,-.002 c 0.004,0 0.0071,0.002 0.0108,0.002 0.25444,0 0.45928,-0.204831 0.45928,-0.45928 0,-0.04971 -0.01431,-0.0952 -0.02871,-0.139931 2.28553,-3.08145 3.66885,-6.88513 3.66885,-11.0478 0,-4.30465 -1.46639,-8.2358 -3.89311,-11.3708 0.14882,-0.0758 0.252909,-0.22634 0.252909,-0.40546 0,-0.25444 -0.204829,-0.45928 -0.45928,-0.45928 -0.142709,0 -0.273309,0.06755 -0.35742,0.169084 -0.347615,0.312876 -0.547036,0.712033 -0.127587,1.27823 z "/>
<path style="fill:#cea476" d="m 35.9161,13.5065 c 2.00521,2.60397 3.30796,5.78793 3.60248,9.27533 0.04209,0.498209 0.0646,1.00266 0.0646,1.5124 0,4.07793 -1.3754,7.81353 -3.66707,10.7895 0.0028,0.123894 0,0.29139 0.0055,0.419572 0.01,0.242492 0.220776,0.425642 0.462836,0.434462 l .004,.004 .002,-.002 c 0.004,0 0.0071,0.002 0.0108,0.002 0.25444,0 0.45928,-0.204831 0.45928,-0.45928 0,-0.04971 -0.01431,-0.0952 -0.02871,-0.139931 2.28553,-3.08145 3.66885,-6.88513 3.66885,-11.0478 0,-4.30465 -1.46639,-8.2358 -3.89311,-11.3708 0.14882,-0.0758 0.25291,-0.22634 0.25291,-0.40546 0,-0.25444 -0.20483,-0.45928 -0.45928,-0.45928 -0.14271,0 -0.27331,0.06755 -0.35742,0.169084 -0.347615,0.312876 -0.547036,0.712033 -0.127587,1.27823 z "/>
<path style="opacity:.4" d="m 12.3495,13.5063 c -2.00521,2.60397 -3.30796,5.78793 -3.60248,9.27533 -0.042093,0.498209 -0.0646,1.00266 -0.0646,1.5124 0,4.07793 1.3754,7.81353 3.66707,10.7895 0.02765,0.119413 0.04771,0.326896 0.04235,0.455078 -0.01,0.242492 -0.218217,0.395218 -0.460277,0.404038 h -0.0544 l -.002,-.002 c -0.004,0 -0.0071,0.002 -0.0108,0.002 -0.25444,0 -0.45928,-0.204831 -0.45928,-0.45928 0,-0.04971 0.01431,-0.0952 0.02871,-0.139931 -2.28553,-3.08145 -3.66885,-6.88513 -3.66885,-11.0478 0,-4.30465 1.46639,-8.2358 3.89311,-11.3708 -0.14882,-0.0758 -0.252909,-0.22634 -0.252909,-0.40546 0,-0.25444 0.229202,-0.45928 0.483653,-0.45928 0.142709,0 0.293459,0.04128 0.377569,0.142812 0.347615,0.312876 0.502514,0.738307 0.08307,1.30451 z "/>
<path style="fill:#cea476" d="m 12.0161,13.5063 c -2.00521,2.60397 -3.30796,5.78793 -3.60248,9.27533 -0.042093,0.498209 -0.0646,1.00266 -0.0646,1.5124 0,4.07793 1.3754,7.81353 3.66707,10.7895 0.02765,0.119413 0.04771,0.326896 0.04235,0.455078 -0.01,0.242492 -0.218217,0.395218 -0.460277,0.404038 h -0.0544 l -.002,-.002 c -0.004,0 -0.0071,0.002 -0.0108,0.002 -0.25444,0 -0.45928,-0.204831 -0.45928,-0.45928 0,-0.04971 0.01431,-0.0952 0.02871,-0.139931 -2.28553,-3.08145 -3.66885,-6.88513 -3.66885,-11.0478 0,-4.30465 1.46639,-8.2358 3.89311,-11.3708 -0.14882,-0.0758 -0.252909,-0.22634 -0.252909,-0.40546 0,-0.25444 0.229202,-0.45928 0.483653,-0.45928 0.142709,0 0.293459,0.04128 0.377569,0.142812 0.347615,0.312876 0.502514,0.738307 0.08307,1.30451 z "/>
</g>
</svg>
