<svg width="96" version="1.0" xmlns="http://www.w3.org/2000/svg" height="96">
<g style="fill:#67a243">
<rect width="72" x="18" y="18" rx="0" height="60"/>
<rect width="72" x="6" y="6" rx="0" height="84"/>
</g>
<g style="color:#000;fill:#ffe32a">
<rect width="10" x="-88" y="72" height="2" transform="scale(-1,1)"/>
<rect width="10" x="-88" y="68" height="2" transform="scale(-1,1)"/>
<rect width="10" x="-88" y="64" height="2" transform="scale(-1,1)"/>
<rect width="10" x="-88" y="60" height="2" transform="scale(-1,1)"/>
<rect width="10" x="-88" y="56" height="2" transform="scale(-1,1)"/>
<rect width="10" x="-88" y="52" height="2" transform="scale(-1,1)"/>
<rect width="10" x="-88" y="48" height="2" transform="scale(-1,1)"/>
<rect width="10" x="-88" y="44" height="2" transform="scale(-1,1)"/>
<rect width="10" x="-88" y="34" height="2" transform="scale(-1,1)"/>
<rect width="10" x="-88" y="30" height="2" transform="scale(-1,1)"/>
<rect width="10" x="-88" y="26" height="2" transform="scale(-1,1)"/>
<rect width="10" x="-88" y="22" height="2" transform="scale(-1,1)"/>
</g>
<g style="stroke-width:.5;stroke:#fc0;fill:none">
<path style="opacity:.4" d="m 18,64 3,-3 h 53 l 4,-4"/>
<path style="opacity:.5" d="m 78,61 -5,5 H 38"/>
<path style="opacity:.5" d="m 38,68 h 35 l 3,-3 h 2"/>
<path style="opacity:.5" d="m 24,70 2,2 h 26 l 2,2"/>
<path style="opacity:.5" d="m 66,70 h 7 l 3,3 h 2"/>
<path style="opacity:.5" d="M 33.866398,79.994648 36,82 h 4 l 4,4 h 5 l 4,-4"/>
<path style="opacity:.5" d="m 40,80 4,4 h 5 l 2,-2"/>
<path style="opacity:.5" d="m 24,64 1,-1 h 46"/>
</g>
<path style="opacity:.5;fill:#fc0;color:#000" d="m 73,63 a 1,1 0 0,1 -2,0 1,1 0 1,1 2,0 z "/>
<g style="stroke-width:.5;stroke:#fc0;fill:none">
<path style="opacity:.5" d="M 78,23 H 76 L 71,18 H 54 l -6,6"/>
<path style="opacity:.5" d="m 39,18 h 11 l 3,-3 h 16"/>
<path style="opacity:.5" d="m 50,26 4,-4 h 17 l 5,5 h 2"/>
<path style="opacity:.5" d="m 52,39 h 16 l 6,6 h 4"/>
<path style="opacity:.5" d="m 78,49 h -4 l -6,-6 h -6"/>
<path style="opacity:.5" d="m 62,47 h 6 l 6,6 h 4"/>
<path style="opacity:.5" d="m 78,31 h -2 l -6,-6"/>
<path style="opacity:.5" d="m 78,35 h -2 l -6,-6"/>
<path style="opacity:.5" d="m 51,59 h 10 l 6,-6"/>
</g>
<g style="color:#000;fill:#fc0">
<path style="opacity:.5" d="m 68,53 a 1,1 0 1,1 -2,0 1,1 0 1,1 2,0 z "/>
<path style="opacity:.5" d="m 51,59 a 1,1 0 1,1 -2,0 1,1 0 1,1 2,0 z "/>
<path style="opacity:.5" d="m 71,15 a 1,1 0 1,1 -2,0 1,1 0 1,1 2,0 z "/>
<path style="opacity:.5" d="m 39,18 a 1,1 0 1,1 -2,0 1,1 0 1,1 2,0 z "/>
<path style="opacity:.5" d="m 71,74 a 1,1 0 1,1 -2,0 1,1 0 1,1 2,0 z "/>
</g>
<g style="stroke-width:.5;stroke:#fc0;fill:none">
<path style="opacity:.5" d="m 69,74 h -3 l -4,4 h -2"/>
<path style="opacity:.5" d="m 32,79 h -8 l -3,3"/>
<path style="opacity:.5" d="m 32,77 h -8 l -6,-6 v -1"/>
<path style="opacity:.5" d="m 13,55 v 16 l 4,4"/>
</g>
<g style="color:#000;fill:#fc0">
<path style="opacity:.5" d="m 18,75 a 1,1 0 1,1 -2,0 1,1 0 1,1 2,0 z "/>
<path style="opacity:.5" d="m 22,82 a 1,1 0 1,1 -2,0 1,1 0 1,1 2,0 z "/>
</g>
<path style="opacity:.5;fill:none;stroke:#fc0;stroke-width:.5" d="m 11,62 0,10 6,6"/>
<g style="color:#000;fill:#fc0">
<path style="opacity:.5" d="m 18,78 a 1,1 0 1,1 -2,0 1,1 0 1,1 2,0 z "/>
<path style="opacity:.5" d="m 12,61 a 1,1 0 1,1 -2,0 1,1 0 1,1 2,0 z "/>
</g>
<path style="opacity:.5;fill:none;stroke:#fc0;stroke-width:.5" d="m 50,14 2,-2 12,0"/>
<g style="color:#000;line-height:125%">
<g style="fill:#fc0">
<path style="opacity:.5" d="m 66,12 a 1,1 0 1,1 -2,0 1,1 0 1,1 2,0 z "/>
<path style="opacity:.5" d="m 51,14 a 1,1 0 1,1 -2,0 1,1 0 1,1 2,0 z "/>
</g>
<rect width="32" x="16" y="24" height="32" style="fill:#424242"/>
<rect width="14" x="56" y="24" height="8" style="fill:#4d4d4d"/>
<g style="fill:#ccc">
<rect width="4" x="16" y="64" height="6"/>
<rect width="4" x="22" y="64" height="6"/>
<rect width="4" x="28" y="64" height="6"/>
<rect width="4" x="34" y="64" height="6"/>
</g>
<rect width="4" x="44" y="64" height="6" style="fill:#ddd"/>
<g style="fill:#c3b194">
<rect width="4" x="32" y="74" height="6"/>
<rect width="4" x="38" y="74" height="6"/>
</g>
<rect width="2" x="56" y="50" height="6" style="fill:#ccc"/>
<rect width="12" x="48" y="74" rx="1.5" height="8" style="fill:#dc6819"/>
<rect width="10" x="49" y="75" rx="1" height="6" style="fill:#c4c4c4"/>
<g style="fill:#ccc">
<rect width="4" x="12" y="54" height="1"/>
<rect width="4" x="12" y="52" height="1"/>
<rect width="4" x="12" y="50" height="1"/>
<rect width="4" x="12" y="48" height="1"/>
<rect width="4" x="12" y="46" height="1"/>
<rect width="4" x="12" y="44" height="1"/>
<rect width="4" x="12" y="42" height="1"/>
<rect width="4" x="12" y="40" height="1"/>
<rect width="4" x="12" y="38" height="1"/>
<rect width="4" x="12" y="36" height="1"/>
<rect width="4" x="12" y="34" height="1"/>
<rect width="4" x="12" y="32" height="1"/>
<rect width="4" x="12" y="30" height="1"/>
<rect width="4" x="12" y="28" height="1"/>
<rect width="4" x="12" y="26" height="1"/>
<rect width="4" x="12" y="24" height="1"/>
<rect width="4" x="20" y="-18" height="1" transform="rotate(90)"/>
<rect width="4" x="20" y="-20" height="1" transform="rotate(90)"/>
<rect width="4" x="20" y="-22" height="1" transform="rotate(90)"/>
<rect width="4" x="20" y="-24" height="1" transform="rotate(90)"/>
<rect width="4" x="20" y="-26" height="1" transform="rotate(90)"/>
<rect width="4" x="20" y="-28" height="1" transform="rotate(90)"/>
<rect width="4" x="20" y="-30" height="1" transform="rotate(90)"/>
<rect width="4" x="20" y="-32" height="1" transform="rotate(90)"/>
<rect width="4" x="20" y="-34" height="1" transform="rotate(90)"/>
<rect width="4" x="20" y="-36" height="1" transform="rotate(90)"/>
<rect width="4" x="20" y="-38" height="1" transform="rotate(90)"/>
<rect width="4" x="20" y="-40" height="1" transform="rotate(90)"/>
<rect width="4" x="20" y="-42" height="1" transform="rotate(90)"/>
<rect width="4" x="20" y="-44" height="1" transform="rotate(90)"/>
<rect width="4" x="20" y="-46" height="1" transform="rotate(90)"/>
<rect width="4" x="20" y="-48" height="1" transform="rotate(90)"/>
<rect width="4" x="-52" y="-26" height="1" transform="scale(-1)"/>
<rect width="4" x="-52" y="-28" height="1" transform="scale(-1)"/>
<rect width="4" x="-52" y="-30" height="1" transform="scale(-1)"/>
<rect width="4" x="-52" y="-32" height="1" transform="scale(-1)"/>
<rect width="4" x="-52" y="-34" height="1" transform="scale(-1)"/>
<rect width="4" x="-52" y="-36" height="1" transform="scale(-1)"/>
<rect width="4" x="-52" y="-38" height="1" transform="scale(-1)"/>
<rect width="4" x="-52" y="-40" height="1" transform="scale(-1)"/>
<rect width="4" x="-52" y="-42" height="1" transform="scale(-1)"/>
<rect width="4" x="-52" y="-44" height="1" transform="scale(-1)"/>
<rect width="4" x="-52" y="-46" height="1" transform="scale(-1)"/>
<rect width="4" x="-52" y="-48" height="1" transform="scale(-1)"/>
<rect width="4" x="-52" y="-50" height="1" transform="scale(-1)"/>
<rect width="4" x="-52" y="-52" height="1" transform="scale(-1)"/>
<rect width="4" x="-52" y="-54" height="1" transform="scale(-1)"/>
<rect width="4" x="-52" y="-56" height="1" transform="scale(-1)"/>
<rect width="4" x="-60" y="46" height="1" transform="rotate(-90)"/>
<rect width="4" x="-60" y="44" height="1" transform="rotate(-90)"/>
<rect width="4" x="-60" y="42" height="1" transform="rotate(-90)"/>
<rect width="4" x="-60" y="40" height="1" transform="rotate(-90)"/>
<rect width="4" x="-60" y="38" height="1" transform="rotate(-90)"/>
<rect width="4" x="-60" y="36" height="1" transform="rotate(-90)"/>
<rect width="4" x="-60" y="34" height="1" transform="rotate(-90)"/>
<rect width="4" x="-60" y="32" height="1" transform="rotate(-90)"/>
<rect width="4" x="-60" y="30" height="1" transform="rotate(-90)"/>
<rect width="4" x="-60" y="28" height="1" transform="rotate(-90)"/>
<rect width="4" x="-60" y="26" height="1" transform="rotate(-90)"/>
<rect width="4" x="-60" y="24" height="1" transform="rotate(-90)"/>
<rect width="4" x="-60" y="22" height="1" transform="rotate(-90)"/>
<rect width="4" x="-60" y="20" height="1" transform="rotate(-90)"/>
<rect width="4" x="-60" y="18" height="1" transform="rotate(-90)"/>
<rect width="4" x="-60" y="16" height="1" transform="rotate(-90)"/>
<rect width="4" x="20" y="-58" height="2" transform="rotate(90)"/>
<rect width="4" x="20" y="-62" height="2" transform="rotate(90)"/>
<rect width="4" x="20" y="-66" height="2" transform="rotate(90)"/>
<rect width="4" x="20" y="-70" height="2" transform="rotate(90)"/>
<rect width="4" x="-36" y="-58" height="2" transform="matrix(0,-1,-1,0,0,0)"/>
<rect width="4" x="-36" y="-62" height="2" transform="matrix(0,-1,-1,0,0,0)"/>
<rect width="4" x="-36" y="-66" height="2" transform="matrix(0,-1,-1,0,0,0)"/>
<rect width="4" x="-36" y="-70" height="2" transform="matrix(0,-1,-1,0,0,0)"/>
</g>
<path style="opacity:.2;fill:#fff" d="m 56,24 v 1 h 14 v -1 z"/>
<path style="opacity:.2" d="m 56,31 v 1 h 14 v -1 z"/>
<g style="fill:#c89737">
<path d="m 57.7939,27.7119 v -0.1494 h 0.3506 v -1.0586 l -.3105,.2217 v -0.166 l .3252,-.2236 h 0.1621 v 1.2266 h 0.335 v 0.1494 h -0.8623"/>
<path d="m 59.6152,27.4004 v 0.3115 h -0.166 v -0.3115 h -0.6484 v -0.1367 l .6299,-.9277 h 0.1846 v 0.9258 h 0.1934 v 0.1387 h -0.1934 m -.166,-.8662 c -0.0013,0.0033 -0.0046,0.0098 -0.0098,0.01953 -0.0052,0.0091 -0.01107,0.01953 -0.01758,0.03125 -0.0065,0.01172 -0.01335,0.02376 -0.02051,0.03613 -0.0065,0.01172 -0.01237,0.02149 -0.01758,0.0293 l -.3525,.5195 c -0.0033,0.0052 -0.0081,0.01205 -0.01465,0.02051 -0.0059,0.0085 -0.01205,0.01725 -0.01855,0.02637 -0.0065,0.0085 -0.01302,0.01693 -0.01953,0.02539 -0.0065,0.0085 -0.01172,0.01497 -0.01563,0.01953 h 0.486328 v -0.727539"/>
<path d="m 60.0322,27.7119 v -1.376 h 1.0439 v 0.1523 h -0.8574 v 0.4414 h 0.7988 v 0.1504 h -0.7988 v 0.4795 h 0.8975 v 0.1523 h -1.084"/>
<path d="m 62.3408,27.7119 -.3574,-.5713 h -0.4287 v 0.5713 h -0.1865 v -1.376 h 0.6475 c 0.07813,0 0.147135,0.0091 0.207032,0.02734 0.06054,0.01758 0.111327,0.0433 0.152343,0.07715 0.04102,0.03386 0.07227,0.0752 0.09375,0.124023 0.02148,0.04883 0.03223,0.103842 0.03223,0.165039 0,0.04362 -0.0065,0.08659 -0.01953,0.128906 -0.01237,0.04232 -0.03223,0.08106 -0.05957,0.116211 -0.02735,0.03516 -0.06218,0.06543 -0.104492,0.09082 -0.04232,0.02539 -0.0931,0.04329 -0.152344,0.05371 l .3906,.5928 h -0.214843 m -.0273,-.9805 c 0,-0.04167 -0.0072,-0.0778 -0.02148,-0.108398 -0.01432,-0.0306 -0.03516,-0.05599 -0.0625,-0.07617 -0.02734,-0.02083 -0.06055,-0.03613 -0.09961,-0.0459 -0.03906,-0.01042 -0.08333,-0.01562 -0.132812,-0.01563 h -0.442383 v 0.507813 h 0.450195 c 0.05338,0 0.09961,-0.0065 0.138672,-0.01953 0.03906,-0.01367 0.07096,-0.03223 0.0957,-0.05566 0.02539,-0.02344 0.04394,-0.05111 0.05566,-0.08301 0.01237,-0.0319 0.01855,-0.0664 0.01855,-0.103516"/>
<path d="m 63,26.4883 v 0.5117 h 0.7676 v 0.1543 h -0.7676 v 0.5576 h -0.1865 v -1.376 h 0.9775 v 0.1523 h -0.791"/>
<path d="m 64.9004,27.2637 c 0,0.06901 -0.01042,0.132162 -0.03125,0.189453 -0.02083,0.05729 -0.05176,0.106771 -0.09277,0.148437 -0.04102,0.04102 -0.09212,0.07292 -0.153321,0.0957 -0.06055,0.02279 -0.13086,0.03418 -0.210937,0.03418 -0.07227,0 -0.135417,-0.0085 -0.189453,-0.02539 -0.05339,-0.01693 -0.09863,-0.04004 -0.135743,-0.06934 -0.03711,-0.02995 -0.06673,-0.06478 -0.08887,-0.104493 -0.02148,-0.03971 -0.03678,-0.08236 -0.0459,-0.127929 l .1777,-.0205 c 0.0072,0.02604 0.01725,0.05143 0.03027,0.07617 0.01302,0.02409 0.0306,0.0459 0.05273,0.06543 0.02279,0.01888 0.05046,0.03418 0.08301,0.0459 0.0332,0.01107 0.07324,0.0166 0.120117,0.0166 0.04557,0 0.08691,-0.0068 0.124023,-0.02051 0.03711,-0.01432 0.06869,-0.03516 0.09473,-0.0625 0.02669,-0.02734 0.0472,-0.06087 0.06152,-0.100586 0.01432,-0.03971 0.02148,-0.08529 0.02148,-0.136719 0,-0.04232 -0.0068,-0.08105 -0.02051,-0.116211 -0.01367,-0.03581 -0.0332,-0.0664 -0.05859,-0.0918 -0.02539,-0.02604 -0.05664,-0.04622 -0.09375,-0.06055 -0.03646,-0.01432 -0.07813,-0.02148 -0.125,-0.02148 -0.0293,0 -0.05631,0.0026 -0.08105,0.0078 -0.02474,0.0052 -0.04785,0.01237 -0.06934,0.02148 -0.02083,0.0091 -0.04004,0.01986 -0.05762,0.03223 -0.01693,0.01172 -0.03288,0.02409 -0.04785,0.03711 h -0.171875 l .0459,-.7402 h 0.782227 v 0.149414 h -0.62207 l -.0264,.4365 c 0.03125,-0.02409 0.07031,-0.0446 0.117188,-0.06152 0.04687,-0.01758 0.102538,-0.02637 0.166992,-0.02637 0.06836,0 0.129882,0.01042 0.18457,0.03125 0.05469,0.02083 0.101237,0.05046 0.139649,0.08887 0.03841,0.03776 0.06803,0.08301 0.08887,0.135743 0.02083,0.05274 0.03125,0.110677 0.03125,0.173828"/>
<path d="m 66.0098,27.2617 c 0,0.06901 -0.0098,0.132487 -0.0293,0.190429 -0.01888,0.05729 -0.0472,0.106771 -0.08496,0.148438 -0.03711,0.04102 -0.08333,0.07324 -0.138672,0.09668 -0.05534,0.02279 -0.119141,0.03418 -0.191406,0.03418 -0.08008,0 -0.150065,-0.0153 -0.209961,-0.0459 -0.0599,-0.0306 -0.109701,-0.07454 -0.149414,-0.131836 -0.03971,-0.05794 -0.06966,-0.128581 -0.08984,-0.211914 -0.01953,-0.08398 -0.0293,-0.179362 -0.0293,-0.286133 0,-0.122395 0.01107,-0.229817 0.0332,-0.322266 0.02279,-0.09245 0.05534,-0.169595 0.09766,-0.231445 0.04232,-0.06185 0.09375,-0.108397 0.154297,-0.139648 0.0612,-0.03125 0.130208,-0.04687 0.207031,-0.04687 0.04687,0 0.09082,0.0049 0.131836,0.01465 0.04101,0.0098 0.07812,0.02572 0.111328,0.04785 0.03385,0.02149 0.06348,0.05013 0.08887,0.08594 0.02539,0.03581 0.04557,0.07975 0.06055,0.131836 l -.168,.0303 c -0.01823,-0.05924 -0.04753,-0.101886 -0.08789,-0.127929 -0.03971,-0.02669 -0.08594,-0.04004 -0.138672,-0.04004 -0.04818,0 -0.0918,0.01139 -0.13086,0.03418 -0.03906,0.02279 -0.07227,0.05697 -0.09961,0.102539 -0.02734,0.04492 -0.0485,0.101564 -0.06348,0.169922 -0.01432,0.06836 -0.02149,0.148113 -0.02149,0.239258 0.0319,-0.05924 0.07682,-0.104166 0.134766,-0.134765 0.05794,-0.03125 0.124348,-0.04687 0.199219,-0.04687 0.0625,0 0.119139,0.01009 0.169921,0.03027 0.05078,0.02018 0.09408,0.04948 0.129883,0.08789 0.03646,0.03776 0.06445,0.08399 0.08398,0.138671 0.02018,0.05404 0.03027,0.11491 0.03027,0.182618 m -.1787,.0078 c 0,-0.04753 -0.0059,-0.09049 -0.01758,-0.128906 -0.01172,-0.03841 -0.0293,-0.07096 -0.05273,-0.09766 -0.02344,-0.02734 -0.05241,-0.04818 -0.08691,-0.0625 -0.03451,-0.01497 -0.07455,-0.02246 -0.120118,-0.02246 -0.0319,0 -0.06413,0.0049 -0.09668,0.01465 -0.03255,0.0091 -0.06218,0.02442 -0.08887,0.0459 -0.02604,0.02083 -0.04753,0.0485 -0.06445,0.08301 -0.01628,0.03451 -0.02441,0.0765 -0.02441,0.125977 0,0.05078 0.0065,0.09831 0.01953,0.142578 0.01302,0.04362 0.03157,0.08171 0.05566,0.114258 0.02474,0.03255 0.05436,0.05827 0.08887,0.07715 0.0345,0.01888 0.07324,0.02832 0.116211,0.02832 0.04232,0 0.08008,-0.0072 0.113281,-0.02148 0.03385,-0.01497 0.0625,-0.03613 0.08594,-0.06348 0.02344,-0.028 0.04134,-0.06185 0.05371,-0.101563 0.01237,-0.03971 0.01855,-0.08431 0.01856,-0.133789"/>
<path d="m 58.6699,29.7637 c 0,0.06901 -0.01042,0.132162 -0.03125,0.189453 -0.02083,0.05729 -0.05176,0.106771 -0.09277,0.148437 -0.04102,0.04102 -0.09212,0.07292 -0.15332,0.0957 -0.06055,0.02279 -0.13086,0.03418 -0.210938,0.03418 -0.07227,0 -0.135417,-0.0085 -0.189453,-0.02539 -0.05339,-0.01693 -0.09863,-0.04004 -0.135742,-0.06934 -0.03711,-0.02995 -0.06673,-0.06478 -0.08887,-0.104493 -0.02148,-0.03971 -0.03678,-0.08236 -0.0459,-0.127929 l .1777,-.0205 c 0.0072,0.02604 0.01725,0.05143 0.03027,0.07617 0.01302,0.02409 0.0306,0.0459 0.05273,0.06543 0.02279,0.01888 0.05046,0.03418 0.08301,0.0459 0.0332,0.01107 0.07324,0.0166 0.120117,0.0166 0.04557,0 0.08691,-0.0068 0.124024,-0.02051 0.03711,-0.01432 0.06868,-0.03516 0.09473,-0.0625 0.02669,-0.02734 0.0472,-0.06087 0.06152,-0.100586 0.01432,-0.03971 0.02148,-0.08529 0.02148,-0.136719 0,-0.04232 -0.0068,-0.08105 -0.02051,-0.116211 -0.01367,-0.03581 -0.0332,-0.0664 -0.05859,-0.0918 -0.02539,-0.02604 -0.05664,-0.04622 -0.09375,-0.06055 -0.03646,-0.01432 -0.07813,-0.02148 -0.125,-0.02148 -0.0293,0 -0.05632,0.0026 -0.08105,0.0078 -0.02474,0.0052 -0.04785,0.01237 -0.06934,0.02148 -0.02083,0.0091 -0.04004,0.01986 -0.05762,0.03223 -0.01693,0.01172 -0.03288,0.02409 -0.04785,0.03711 h -0.171875 l .0459,-.7402 h 0.782226 v 0.149414 h -0.62207 l -.0264,.4365 c 0.03125,-0.02409 0.07031,-0.0446 0.117187,-0.06152 0.04687,-0.01758 0.102539,-0.02637 0.166992,-0.02637 0.06836,0 0.129882,0.01042 0.184571,0.03125 0.05469,0.02083 0.101236,0.05046 0.139648,0.08887 0.03841,0.03776 0.06803,0.08301 0.08887,0.135743 0.02083,0.05274 0.03125,0.110677 0.03125,0.173828"/>
<path d="m 59.7793,29.7617 c 0,0.06901 -0.0098,0.132487 -0.0293,0.190429 -0.01888,0.05729 -0.0472,0.106771 -0.08496,0.148438 -0.03711,0.04102 -0.08333,0.07324 -0.138671,0.09668 -0.05534,0.02279 -0.119142,0.03418 -0.191407,0.03418 -0.08008,0 -0.150065,-0.0153 -0.209961,-0.0459 -0.0599,-0.0306 -0.1097,-0.07454 -0.149414,-0.131836 -0.03971,-0.05794 -0.06966,-0.128581 -0.08984,-0.211914 -0.01953,-0.08398 -0.0293,-0.179362 -0.0293,-0.286133 0,-0.122395 0.01107,-0.229817 0.0332,-0.322266 0.02279,-0.09245 0.05534,-0.169595 0.09766,-0.231445 0.04232,-0.06185 0.09375,-0.108397 0.154297,-0.139648 0.0612,-0.03125 0.130208,-0.04687 0.207031,-0.04687 0.04687,0 0.09082,0.0049 0.131836,0.01465 0.04102,0.0098 0.07812,0.02572 0.111328,0.04785 0.03385,0.02149 0.06348,0.05013 0.08887,0.08594 0.02539,0.03581 0.04557,0.07975 0.06055,0.131836 l -.168,.0303 c -0.01823,-0.05924 -0.04753,-0.101886 -0.08789,-0.127929 -0.03971,-0.02669 -0.08594,-0.04004 -0.138672,-0.04004 -0.04818,0 -0.0918,0.01139 -0.130859,0.03418 -0.03906,0.02279 -0.07227,0.05697 -0.09961,0.102539 -0.02734,0.04492 -0.0485,0.101564 -0.06348,0.169922 -0.01432,0.06836 -0.02148,0.148113 -0.02148,0.239258 0.0319,-0.05924 0.07682,-0.104166 0.134766,-0.134765 0.05794,-0.03125 0.124348,-0.04687 0.199219,-0.04687 0.0625,0 0.11914,0.01009 0.169922,0.03027 0.05078,0.02018 0.09407,0.04948 0.129882,0.08789 0.03646,0.03776 0.06445,0.08399 0.08398,0.138671 0.02018,0.05404 0.03027,0.11491 0.03027,0.182618 m -.1787,.0078 c 0,-0.04753 -0.0059,-0.09049 -0.01758,-0.128906 -0.01172,-0.03841 -0.0293,-0.07096 -0.05273,-0.09766 -0.02344,-0.02734 -0.05241,-0.04818 -0.08691,-0.0625 -0.03451,-0.01497 -0.07455,-0.02246 -0.120117,-0.02246 -0.0319,0 -0.06413,0.0049 -0.09668,0.01465 -0.03255,0.0091 -0.06217,0.02442 -0.08887,0.0459 -0.02604,0.02083 -0.04753,0.0485 -0.06445,0.08301 -0.01628,0.03451 -0.02441,0.0765 -0.02441,0.125977 0,0.05078 0.0065,0.09831 0.01953,0.142578 0.01302,0.04362 0.03158,0.08171 0.05566,0.114258 0.02474,0.03255 0.05436,0.05827 0.08887,0.07715 0.03451,0.01888 0.07324,0.02832 0.116211,0.02832 0.04232,0 0.08008,-0.0072 0.113281,-0.02148 0.03385,-0.01497 0.0625,-0.03613 0.08594,-0.06348 0.02344,-0.028 0.04134,-0.06185 0.05371,-0.101563 0.01237,-0.03971 0.01855,-0.08431 0.01855,-0.133789"/>
<path d="m 60.5713,28.9883 v 1.2236 h -0.1855 v -1.2236 h -0.4727 v -0.1523 h 1.1309 v 0.1523 h -0.4727"/>
<path d="m 61.0703,29.7588 v -0.1562 h 0.4883 v 0.1562 h -0.4883"/>
<path d="m 62.7861,30.2119 -.3574,-.5713 h -0.4287 v 0.5713 h -0.1865 v -1.376 h 0.6475 c 0.07812,0 0.147134,0.0091 0.207031,0.02734 0.06055,0.01758 0.111327,0.0433 0.152344,0.07715 0.04101,0.03386 0.07226,0.0752 0.09375,0.124023 0.02148,0.04883 0.03222,0.103842 0.03223,0.165039 0,0.04362 -0.0065,0.08659 -0.01953,0.128906 -0.01237,0.04232 -0.03223,0.08106 -0.05957,0.116211 -0.02734,0.03516 -0.06218,0.06543 -0.104492,0.09082 -0.04232,0.02539 -0.0931,0.04329 -0.152344,0.05371 l .3906,.5928 h -0.214844 m -.0273,-.9805 c 0,-0.04167 -0.0072,-0.0778 -0.02148,-0.108398 -0.01432,-0.0306 -0.03516,-0.05599 -0.0625,-0.07617 -0.02734,-0.02083 -0.06055,-0.03613 -0.09961,-0.0459 -0.03906,-0.01042 -0.08333,-0.01562 -0.132813,-0.01563 h -0.442383 v 0.507813 h 0.450196 c 0.05338,0 0.09961,-0.0065 0.138672,-0.01953 0.03906,-0.01367 0.07096,-0.03223 0.0957,-0.05566 0.02539,-0.02344 0.04394,-0.05111 0.05566,-0.08301 0.01237,-0.0319 0.01855,-0.0664 0.01855,-0.103516"/>
<path d="m 64.2539,30.2119 h -1.0957 v -0.1396 l .8379,-1.084 h -0.7666 v -0.1523 h 0.9785 v 0.1357 l -.8379,1.0879 h 0.8838 v 0.1523"/>
<path d="m 65.3418,29.832 c 0,0.06315 -0.01042,0.119467 -0.03125,0.168945 -0.02018,0.04948 -0.05013,0.09147 -0.08984,0.125977 -0.03906,0.03385 -0.08789,0.0599 -0.146485,0.07813 -0.05794,0.01758 -0.124349,0.02637 -0.199219,0.02637 -0.08529,0 -0.157227,-0.01042 -0.21582,-0.03125 -0.05794,-0.02148 -0.105794,-0.04948 -0.143555,-0.08398 -0.03776,-0.03516 -0.06608,-0.07487 -0.08496,-0.119141 -0.01888,-0.04492 -0.03125,-0.09115 -0.03711,-0.138672 l .1816,-.0166 c 0.0052,0.03646 0.01465,0.06966 0.02832,0.09961 0.01432,0.02995 0.03353,0.05566 0.05762,0.07715 0.02409,0.02148 0.05371,0.03809 0.08887,0.0498 0.03516,0.01172 0.07682,0.01758 0.125,0.01758 0.08854,0 0.157877,-0.02181 0.208008,-0.06543 0.05078,-0.04362 0.07617,-0.108398 0.07617,-0.194336 0,-0.05078 -0.01139,-0.09147 -0.03418,-0.122071 -0.02214,-0.03125 -0.05013,-0.05534 -0.08398,-0.07227 -0.0332,-0.01758 -0.06966,-0.0293 -0.109375,-0.03516 -0.03906,-0.0059 -0.0752,-0.0088 -0.108398,-0.0088 h -0.09961 v -0.152344 h 0.0957 c 0.0332,0 0.06771,-0.0033 0.103516,-0.0098 0.03581,-0.0072 0.06836,-0.01953 0.09766,-0.03711 0.02995,-0.01823 0.05436,-0.04264 0.07324,-0.07324 0.01953,-0.0306 0.0293,-0.06966 0.0293,-0.117188 0,-0.07357 -0.02181,-0.131509 -0.06543,-0.173828 -0.04297,-0.04297 -0.107097,-0.06445 -0.192383,-0.06445 -0.07748,0 -0.1403,0.01986 -0.188477,0.05957 -0.04753,0.03972 -0.07519,0.0957 -0.08301,0.167969 l -.1768,-.0137 c 0.0072,-0.06055 0.02376,-0.11328 0.0498,-0.158203 0.02604,-0.04492 0.05892,-0.08203 0.09863,-0.111328 0.04036,-0.02995 0.08626,-0.05208 0.137695,-0.06641 0.05143,-0.01497 0.10612,-0.02246 0.164063,-0.02246 0.07682,0 0.142903,0.0098 0.198242,0.0293 0.05534,0.01888 0.100585,0.04492 0.135742,0.07813 0.03516,0.03255 0.06087,0.07096 0.07715,0.115235 0.01693,0.04427 0.02539,0.09147 0.02539,0.141601 0,0.04037 -0.0055,0.07813 -0.0166,0.113282 -0.01107,0.03516 -0.02832,0.06673 -0.05176,0.09473 -0.02344,0.028 -0.05339,0.05208 -0.08984,0.07227 -0.03581,0.02018 -0.0791,0.03548 -0.129883,0.0459 v 0.0039 c 0.05534,0.0059 0.103515,0.01856 0.144532,0.03809 0.04101,0.01888 0.07487,0.04264 0.101562,0.07129 0.02669,0.02865 0.04655,0.0612 0.05957,0.09766 0.01367,0.03646 0.02051,0.07487 0.02051,0.115234"/>
<path d="m 66.4482,29.4961 c 0,0.122396 -0.01172,0.229818 -0.03516,0.322265 -0.02279,0.0918 -0.05567,0.168295 -0.09863,0.229492 -0.04297,0.0612 -0.09538,0.107097 -0.157227,0.137696 -0.0612,0.0306 -0.130209,0.0459 -0.207031,0.0459 -0.05273,0 -0.100261,-0.0055 -0.142578,-0.0166 -0.04232,-0.01042 -0.08008,-0.02702 -0.113282,-0.0498 -0.0332,-0.02279 -0.06152,-0.05241 -0.08496,-0.08887 -0.02344,-0.03646 -0.04232,-0.0804 -0.05664,-0.131836 l .168,-.0264 c 0.01823,0.05925 0.04655,0.102864 0.08496,0.130859 0.03906,0.02734 0.08822,0.04102 0.147461,0.04102 0.04753,0 0.09082,-0.01107 0.129883,-0.0332 0.03971,-0.02279 0.07324,-0.05664 0.100586,-0.101563 0.02799,-0.04492 0.0498,-0.101237 0.06543,-0.168945 0.01562,-0.06771 0.02409,-0.147135 0.02539,-0.238282 -0.01367,0.0306 -0.03255,0.05794 -0.05664,0.08203 -0.02344,0.02409 -0.05046,0.0446 -0.08106,0.06152 -0.02995,0.01628 -0.0625,0.02897 -0.09766,0.03809 -0.03516,0.0085 -0.07064,0.0127 -0.106445,0.0127 -0.0625,0 -0.119141,-0.01107 -0.169922,-0.0332 -0.05013,-0.02279 -0.09277,-0.05436 -0.12793,-0.09473 -0.03516,-0.04036 -0.0625,-0.08887 -0.08203,-0.145508 -0.01888,-0.05729 -0.02832,-0.120767 -0.02832,-0.19043 0,-0.07096 0.01009,-0.13509 0.03027,-0.192383 0.02083,-0.05729 0.05078,-0.105793 0.08984,-0.145507 0.03906,-0.04036 0.08691,-0.07129 0.143554,-0.09277 0.05729,-0.02148 0.12207,-0.03223 0.194336,-0.03223 0.152994,0 0.26888,0.05664 0.347657,0.169921 0.07877,0.113283 0.118163,0.28353 0.118164,0.510743 m -.1914,-.1699 c 0,-0.05078 -0.0062,-0.09863 -0.01855,-0.143555 -0.01172,-0.04492 -0.02962,-0.08398 -0.05371,-0.117187 -0.02344,-0.0332 -0.05273,-0.05924 -0.08789,-0.07813 -0.03451,-0.01953 -0.07455,-0.0293 -0.120117,-0.0293 -0.04232,0 -0.0804,0.0075 -0.114258,0.02246 -0.03385,0.01497 -0.0625,0.03646 -0.08594,0.06445 -0.02344,0.02735 -0.04167,0.06087 -0.05469,0.100586 -0.01237,0.03971 -0.01856,0.08399 -0.01856,0.132812 0,0.04622 0.0055,0.08919 0.0166,0.128906 0.01172,0.03971 0.02897,0.07422 0.05176,0.103516 0.02279,0.02865 0.05111,0.05143 0.08496,0.06836 0.03385,0.01628 0.07324,0.02441 0.118164,0.02441 0.03255,0 0.06543,-0.0055 0.09863,-0.0166 0.03385,-0.01107 0.06413,-0.02799 0.09082,-0.05078 0.02734,-0.02279 0.04948,-0.05143 0.06641,-0.08594 0.01758,-0.03515 0.02637,-0.0765 0.02637,-0.124023"/>
<path d="m 67.5781,29.5234 c 0,0.132162 -0.0127,0.24349 -0.03809,0.333985 -0.02474,0.08984 -0.05892,0.16276 -0.102539,0.21875 -0.04297,0.05534 -0.09375,0.09505 -0.152343,0.11914 -0.0586,0.02409 -0.121095,0.03613 -0.1875,0.03613 -0.06706,0 -0.129558,-0.01204 -0.1875,-0.03613 -0.05794,-0.02409 -0.108399,-0.0638 -0.151368,-0.11914 -0.04232,-0.05534 -0.07585,-0.12793 -0.100585,-0.217774 -0.02409,-0.09049 -0.03613,-0.202148 -0.03613,-0.334961 0,-0.138671 0.01204,-0.253254 0.03613,-0.34375 0.02474,-0.09114 0.05859,-0.163735 0.101562,-0.217773 0.04297,-0.05403 0.09375,-0.0918 0.152344,-0.113281 0.05859,-0.02213 0.122395,-0.0332 0.191406,-0.0332 0.06576,0 0.127278,0.01107 0.18457,0.0332 0.05794,0.02149 0.108398,0.05925 0.151368,0.113281 0.04297,0.05404 0.07682,0.126629 0.101562,0.217773 0.02474,0.0905 0.03711,0.205079 0.03711,0.34375 m -.1787,0 c 0,-0.109374 -0.0065,-0.200194 -0.01953,-0.272461 -0.01302,-0.07292 -0.03223,-0.130858 -0.05762,-0.173828 -0.02539,-0.04362 -0.05664,-0.07422 -0.09375,-0.0918 -0.03646,-0.01823 -0.07813,-0.02734 -0.125,-0.02734 -0.04948,0 -0.0931,0.0091 -0.130859,0.02734 -0.03776,0.01823 -0.06966,0.04915 -0.0957,0.09277 -0.02539,0.04297 -0.0446,0.100912 -0.05762,0.173828 -0.01302,0.07227 -0.01953,0.162761 -0.01953,0.271484 0,0.10547 0.0065,0.194337 0.01953,0.266602 0.01367,0.07227 0.0332,0.130534 0.05859,0.174805 0.02604,0.04362 0.05762,0.0752 0.09473,0.09473 0.03711,0.01888 0.07943,0.02832 0.126953,0.02832 0.04622,0 0.08789,-0.0094 0.125,-0.02832 0.03711,-0.01953 0.06836,-0.05111 0.09375,-0.09473 0.02604,-0.04427 0.0459,-0.102539 0.05957,-0.174805 0.01432,-0.07227 0.02148,-0.161132 0.02148,-0.266602"/>
</g>
<g style="fill:#fff">
<path style="opacity:.5" d="m 21.5096,41.9142 v 0.8729 h 1.3094 v 0.2632 h -1.3094 v 0.9512 h -0.3182 v -2.3472 h 1.6675 v 0.2599 h -1.3494"/>
<path style="opacity:.5" d="m 24.9746,44.0015 h -1.8691 v -0.2382 l 1.4293,-1.8491 h -1.3077 v -0.2599 h 1.6692 v 0.2316 l -1.4293,1.8558 h 1.5076 v 0.2599"/>
<path style="opacity:.5" d="m 27.027,44.0015 -.2682,-.6863 h -1.0695 l -.2699,.6863 h -0.3298 l .9579,-2.3472 h 0.3615 l .9429,2.3472 h -0.3248 m -.6647,-1.7092 c -0.01777,-0.04442 -0.03498,-0.0894 -0.05164,-0.134936 -0.01555,-0.04553 -0.02943,-0.08662 -0.04165,-0.123275 -0.01222,-0.03776 -0.02277,-0.06885 -0.03165,-0.09329 -0.0078,-0.02554 -0.01222,-0.04109 -0.01333,-0.04664 -0.0022,0.0056 -0.0072,0.0211 -0.01499,0.04664 -0.0078,0.02555 -0.01833,0.0572 -0.03165,0.09495 -0.01222,0.03776 -0.02665,0.07941 -0.04331,0.12494 -0.01555,0.04554 -0.03165,0.09052 -0.04831,0.134936 l -.3,.7713 h 0.877917 l -.3015,-.7746"/>
<path style="opacity:.5" d="m 29.0976,42.7804 c 0,0.208791 -0.02,0.392037 -0.05997,0.54974 -0.03887,0.156593 -0.09496,0.287086 -0.168253,0.391481 -0.0733,0.104395 -0.162702,0.182691 -0.268207,0.234889 -0.104396,0.0522 -0.222118,0.0783 -0.353166,0.0783 -0.08996,0 -0.17103,-0.0094 -0.243218,-0.02832 -0.07219,-0.01777 -0.136602,-0.04609 -0.193242,-0.08496 -0.05664,-0.03887 -0.10495,-0.0894 -0.144931,-0.151595 -0.03998,-0.06219 -0.07219,-0.137157 -0.09662,-0.224893 l 0.2865,-0.045 c 0.0311,0.101064 0.07941,0.175473 0.144931,0.223228 0.06664,0.04664 0.150484,0.06997 0.251548,0.06997 0.08107,0 0.154926,-0.01888 0.221562,-0.05664 0.06774,-0.03887 0.124939,-0.09662 0.171585,-0.173252 0.04775,-0.07663 0.08496,-0.172695 0.111614,-0.288196 0.02665,-0.1155 0.04109,-0.250992 0.04331,-0.406475 -0.02332,0.0522 -0.05553,0.09884 -0.09662,0.139934 -0.03998,0.04109 -0.08607,0.07608 -0.138268,0.10495 -0.05109,0.02777 -0.106617,0.04942 -0.166588,0.06497 -0.05997,0.01444 -0.120499,0.02166 -0.18158,0.02166 -0.106617,0 -0.203238,-0.01888 -0.289863,-0.05664 -0.08552,-0.03887 -0.158259,-0.09273 -0.21823,-0.16159 -0.05997,-0.06885 -0.106617,-0.151594 -0.139934,-0.248216 -0.03221,-0.09773 -0.04831,-0.206012 -0.04831,-0.324846 0,-0.121052 0.01721,-0.230444 0.05164,-0.328178 0.03554,-0.09773 0.08663,-0.180468 0.153261,-0.248216 0.06663,-0.06885 0.148262,-0.121606 0.244884,-0.158258 0.09773,-0.03665 0.208234,-0.05497 0.331509,-0.05497 0.260987,0 0.458671,0.09662 0.593053,0.289863 0.134379,0.193244 0.201569,0.483661 0.201571,0.871254 m -0.3265,-0.2899 c -0,-0.08662 -0.01055,-0.168252 -0.03165,-0.244884 -0.02,-0.07663 -0.05053,-0.143263 -0.09162,-0.2 -0.03998,-0.05664 -0.08996,-0.101061 -0.149929,-0.13327 -0.05886,-0.03332 -0.127163,-0.04997 -0.204903,-0.04998 -0.07219,0 -0.137158,0.01277 -0.194908,0.03832 -0.05775,0.02555 -0.106616,0.06219 -0.146597,0.109948 -0.03998,0.04665 -0.07108,0.103842 -0.09329,0.171586 -0.0211,0.06775 -0.03165,0.143267 -0.03165,0.226559 0,0.07885 0.0094,0.152152 0.02832,0.219896 0.02,0.06775 0.04942,0.126608 0.08829,0.176583 0.03887,0.04887 0.08718,0.08774 0.144931,0.116612 0.05775,0.02777 0.12494,0.04165 0.201571,0.04165 0.05553,0 0.111613,-0.0094 0.168254,-0.02832 0.05775,-0.01888 0.109391,-0.04775 0.154927,-0.08663 0.04664,-0.03887 0.0844,-0.08774 0.113279,-0.146597 0.02998,-0.05997 0.04498,-0.130493 0.04498,-0.211567"/>
<path style="opacity:.5" d="m 31.0084,43.2336 c -0,0.117722 -0.01666,0.226004 -0.04998,0.324846 -0.03221,0.09773 -0.08052,0.182136 -0.144931,0.253213 -0.0633,0.06997 -0.142157,0.124941 -0.236555,0.164922 -0.0944,0.03887 -0.203238,0.05831 -0.326512,0.05831 -0.136603,0 -0.25599,-0.0261 -0.358164,-0.0783 -0.102174,-0.0522 -0.187134,-0.127162 -0.254879,-0.224894 -0.06775,-0.09884 -0.118833,-0.21934 -0.153261,-0.361495 -0.03332,-0.143265 -0.04998,-0.305966 -0.04998,-0.488103 0,-0.208788 0.01888,-0.392035 0.05664,-0.549739 0.03887,-0.157701 0.0944,-0.289306 0.166588,-0.394813 0.07219,-0.105504 0.159923,-0.18491 0.263208,-0.238221 0.104395,-0.05331 0.222116,-0.07996 0.353166,-0.07996 0.07996,0 0.154926,0.0083 0.224894,0.02499 0.06996,0.01666 0.133269,0.04387 0.18991,0.08163 0.05775,0.03665 0.10828,0.08552 0.151595,0.146598 0.04331,0.06108 0.07774,0.136048 0.103284,0.224893 l -0.2865,0.0516 c -0.0311,-0.101061 -0.08107,-0.173804 -0.149929,-0.21823 -0.06775,-0.04553 -0.146598,-0.0683 -0.236554,-0.0683 -0.08218,0 -0.156594,0.01944 -0.223228,0.05831 -0.06664,0.03887 -0.123276,0.09718 -0.169919,0.174917 -0.04665,0.07663 -0.08274,0.173253 -0.108283,0.289863 -0.02443,0.116613 -0.03665,0.252659 -0.03665,0.40814 0.05442,-0.101062 0.131049,-0.177692 0.229891,-0.229891 0.09884,-0.05331 0.212121,-0.07996 0.339839,-0.07996 0.106615,0 0.203236,0.01722 0.289863,0.05164 0.08662,0.03443 0.160478,0.08441 0.221562,0.149929 0.06219,0.06442 0.109946,0.143267 0.143265,0.236555 0.03443,0.09218 0.05164,0.196019 0.05164,0.311519 m -0.3049,0.0133 c 0,-0.08107 -0.01,-0.154371 -0.03,-0.219896 -0.02,-0.06552 -0.04998,-0.121053 -0.08996,-0.166588 -0.03998,-0.04664 -0.0894,-0.08218 -0.148263,-0.106616 -0.05886,-0.02554 -0.127163,-0.03831 -0.204903,-0.03831 -0.05442,0 -0.109394,0.0083 -0.164922,0.02499 -0.05553,0.01555 -0.106062,0.04165 -0.151595,0.0783 -0.04442,0.03554 -0.08107,0.08274 -0.109948,0.1416 -0.02777,0.05886 -0.04165,0.130494 -0.04165,0.214898 0,0.08663 0.01111,0.167699 0.03332,0.243218 0.02221,0.07441 0.05386,0.139379 0.09496,0.194908 0.0422,0.05553 0.09273,0.0994 0.151594,0.131604 0.05886,0.03221 0.12494,0.04831 0.19824,0.04831 0.07219,0 0.136601,-0.01222 0.193242,-0.03665 0.05775,-0.02554 0.106615,-0.06164 0.146597,-0.108282 0.03998,-0.04775 0.07052,-0.105505 0.09162,-0.173251 0.0211,-0.06774 0.03165,-0.14382 0.03165,-0.228225"/>
<path style="opacity:.5" d="m 32.9142,43.2369 c 0,0.117723 -0.01777,0.22545 -0.05331,0.323181 -0.03554,0.09773 -0.08829,0.182136 -0.158258,0.253213 -0.06997,0.06997 -0.157149,0.124386 -0.261543,0.163256 -0.103286,0.03887 -0.223229,0.05831 -0.35983,0.05831 -0.123275,0 -0.231002,-0.01444 -0.32318,-0.04331 -0.09107,-0.02887 -0.168254,-0.0683 -0.231557,-0.118277 -0.0633,-0.05109 -0.113835,-0.110503 -0.151595,-0.178249 -0.03665,-0.06775 -0.06275,-0.140489 -0.0783,-0.21823 l .3032,-.035 c 0.01222,0.04442 0.02943,0.08774 0.05164,0.129939 0.02221,0.04109 0.0522,0.0783 0.08996,0.111614 0.03887,0.03221 0.08607,0.05831 0.1416,0.0783 0.05664,0.01888 0.12494,0.02832 0.204903,0.02832 0.07774,0 0.148262,-0.01166 0.211566,-0.03498 0.0633,-0.02443 0.117166,-0.05997 0.161591,-0.106616 0.04553,-0.04664 0.08052,-0.103839 0.10495,-0.171585 0.02443,-0.06774 0.03665,-0.145486 0.03665,-0.233223 0,-0.07219 -0.01166,-0.138267 -0.03498,-0.19824 -0.02332,-0.06108 -0.05664,-0.113278 -0.1,-0.156592 -0.04331,-0.04442 -0.09662,-0.07885 -0.159924,-0.103284 -0.06219,-0.02443 -0.133271,-0.03665 -0.213233,-0.03665 -0.04998,0 -0.09607,0.0044 -0.138267,0.01333 -0.0422,0.0089 -0.08163,0.0211 -0.118278,0.03665 -0.03554,0.01555 -0.0683,0.03387 -0.09829,0.05497 -0.02887,0.02 -0.05608,0.04109 -0.08163,0.0633 h -0.293194 l .0783,-1.2627 h 1.33437 v 0.254879 h -1.06116 l -.045,.7446 c 0.05331,-0.04109 0.119942,-0.07607 0.2,-0.10495 0.07996,-0.02998 0.174916,-0.04498 0.284865,-0.04498 0.11661,0 0.22156,0.01777 0.314851,0.05331 0.09329,0.03554 0.172694,0.08607 0.23822,0.151595 0.06552,0.06442 0.116055,0.141601 0.151595,0.231557 0.03554,0.08996 0.05331,0.188801 0.05331,0.296526"/>
<path style="opacity:.5" d="m 33.339,44.0015 v -2.3472 h 0.3182 v 2.0873 h 1.1861 v 0.2599 H 33.339"/>
<path style="opacity:.5" d="m 36.7124,43.2369 c 0,0.117723 -0.01777,0.22545 -0.05331,0.323181 -0.03554,0.09773 -0.08829,0.182136 -0.158259,0.253213 -0.06997,0.06997 -0.157149,0.124386 -0.261542,0.163256 -0.103286,0.03887 -0.223229,0.05831 -0.35983,0.05831 -0.123276,0 -0.231002,-0.01444 -0.32318,-0.04331 -0.09107,-0.02887 -0.168254,-0.0683 -0.231557,-0.118277 -0.0633,-0.05109 -0.113836,-0.110503 -0.151595,-0.178249 -0.03665,-0.06775 -0.06275,-0.140489 -0.0783,-0.21823 l .3032,-.035 c 0.01222,0.04442 0.02943,0.08774 0.05164,0.129939 0.02221,0.04109 0.0522,0.0783 0.08996,0.111614 0.03887,0.03221 0.08607,0.05831 0.1416,0.0783 0.05664,0.01888 0.12494,0.02832 0.204903,0.02832 0.07774,0 0.148262,-0.01166 0.211566,-0.03498 0.0633,-0.02443 0.117165,-0.05997 0.16159,-0.106616 0.04553,-0.04664 0.08052,-0.103839 0.10495,-0.171585 0.02443,-0.06774 0.03665,-0.145486 0.03665,-0.233223 0,-0.07219 -0.01166,-0.138267 -0.03498,-0.19824 -0.02332,-0.06108 -0.05664,-0.113278 -0.1,-0.156592 -0.04331,-0.04442 -0.09662,-0.07885 -0.159925,-0.103284 -0.06219,-0.02443 -0.133271,-0.03665 -0.213232,-0.03665 -0.04998,0 -0.09607,0.0044 -0.138268,0.01333 -0.0422,0.0089 -0.08163,0.0211 -0.118277,0.03665 -0.03554,0.01555 -0.0683,0.03387 -0.09829,0.05497 -0.02888,0.02 -0.05608,0.04109 -0.08163,0.0633 h -0.293194 l .0783,-1.2627 h 1.33437 v 0.254879 h -1.06116 l -.045,.7446 c 0.05331,-0.04109 0.119943,-0.07607 0.2,-0.10495 0.07996,-0.02998 0.174917,-0.04498 0.284865,-0.04498 0.116611,0 0.221561,0.01777 0.314851,0.05331 0.09329,0.03554 0.172695,0.08607 0.238221,0.151595 0.06552,0.06442 0.116054,0.141601 0.151595,0.231557 0.03554,0.08996 0.05331,0.188801 0.05331,0.296526"/>
<path style="opacity:.5" d="m 21.9664,46.3292 c -0,0.05757 -0.003,0.115142 -0.009,0.172712 -0.0055,0.05702 -0.01563,0.111577 -0.03043,0.163664 -0.01426,0.05209 -0.03399,0.100886 -0.05922,0.146394 -0.02522,0.04496 -0.0573,0.08389 -0.09623,0.116785 -0.03893,0.0329 -0.08553,0.05894 -0.139814,0.07813 -0.05428,0.01864 -0.117882,0.02796 -0.190804,0.02796 -0.01042,0 -0.02193,0 -0.03454,0 -0.01261,0 -0.02522,-0.0016 -0.03783,-0.0033 -0.01261,-0.0011 -0.02495,-0.0025 -0.03701,-0.0041 -0.01206,-0.0016 -0.02276,-0.0038 -0.03207,-0.0066 v -0.1283 c 0.01919,0.0071 0.04085,0.01234 0.06497,0.01563 0.02412,0.0033 0.04797,0.0049 0.07155,0.0049 0.07402,0 0.134879,-0.01288 0.182581,-0.03865 0.0477,-0.02577 0.08553,-0.06059 0.113496,-0.104449 0.02796,-0.04441 0.0477,-0.09595 0.05922,-0.154618 0.01206,-0.05867 0.01946,-0.120623 0.02221,-0.18587 h -0.01069 c -0.01097,0.01974 -0.02412,0.03811 -0.03948,0.0551 -0.01535,0.017 -0.03345,0.0318 -0.05428,0.04441 -0.02084,0.01261 -0.04441,0.02248 -0.07073,0.02961 -0.02632,0.0071 -0.05565,0.01069 -0.088,0.01069 -0.05209,0 -0.09924,-0.008 -0.141458,-0.02385 -0.04222,-0.01645 -0.07813,-0.0403 -0.107739,-0.07155 -0.02961,-0.03125 -0.05264,-0.06936 -0.06909,-0.114318 -0.0159,-0.04551 -0.02385,-0.09732 -0.02385,-0.15544 0,-0.06251 0.0085,-0.118704 0.0255,-0.1686 0.01755,-0.05044 0.04194,-0.09293 0.0732,-0.127477 0.0318,-0.03509 0.07018,-0.06196 0.11514,-0.0806 0.04551,-0.01864 0.09623,-0.02796 0.152151,-0.02796 0.05538,0 0.106916,0.01069 0.154618,0.03207 0.0477,0.02138 0.0891,0.05401 0.124188,0.09787 0.03509,0.04386 0.06278,0.09924 0.08307,0.166132 0.02029,0.06634 0.03043,0.144475 0.03043,0.234394 m -0.3907,-0.4038 c -0.0329,0 -0.06305,0.0055 -0.09047,0.01645 -0.02687,0.01097 -0.05017,0.02796 -0.06991,0.05099 -0.01974,0.02303 -0.03509,0.05209 -0.04606,0.08718 -0.01042,0.03454 -0.01563,0.07567 -0.01563,0.123366 0,0.03838 0.0044,0.07292 0.01316,0.103626 0.0093,0.03016 0.02303,0.05593 0.04112,0.07731 0.01809,0.02138 0.04057,0.03783 0.06744,0.04935 0.02741,0.01152 0.05922,0.01727 0.0954,0.01727 0.03728,0 0.071,-0.0063 0.10116,-0.01892 0.03016,-0.01316 0.05593,-0.02988 0.07731,-0.05017 0.02138,-0.02083 0.03783,-0.04441 0.04935,-0.07073 0.01206,-0.02632 0.01809,-0.05264 0.01809,-0.07895 0,-0.03674 -0.0052,-0.0732 -0.01563,-0.109384 -0.0099,-0.03674 -0.02495,-0.06963 -0.04523,-0.09869 -0.01974,-0.02961 -0.04469,-0.05346 -0.07484,-0.07155 -0.03016,-0.01809 -0.06525,-0.02714 -0.105272,-0.02714"/>
<path style="opacity:.5" d="m 22.5134,45.7971 c 0.04606,0 0.08937,0.006 0.129945,0.01809 0.04112,0.01206 0.07703,0.03016 0.107739,0.05428 0.03125,0.02413 0.05592,0.05428 0.07402,0.09047 0.01809,0.03619 0.02714,0.07841 0.02714,0.126655 0,0.03674 -0.0055,0.06991 -0.01645,0.09951 -0.01097,0.02961 -0.02604,0.05647 -0.04523,0.0806 -0.01919,0.02358 -0.04194,0.04496 -0.06826,0.06415 -0.02632,0.01864 -0.05483,0.03564 -0.08553,0.05099 0.0318,0.017 0.06278,0.03591 0.09294,0.05675 0.0307,0.02084 0.05784,0.04441 0.08142,0.07073 0.02412,0.02577 0.04331,0.05483 0.05757,0.08718 0.0148,0.03235 0.0222,0.06854 0.02221,0.108561 0,0.05044 -0.0093,0.09622 -0.02796,0.137347 -0.01809,0.04057 -0.04386,0.07512 -0.07731,0.103627 -0.0329,0.02851 -0.07265,0.05044 -0.119253,0.06579 -0.04606,0.01535 -0.09705,0.02303 -0.152973,0.02303 -0.06031,0 -0.114045,-0.0074 -0.161197,-0.02221 -0.04661,-0.0148 -0.08608,-0.03591 -0.118431,-0.06333 -0.0318,-0.02796 -0.0562,-0.06196 -0.0732,-0.101982 -0.01645,-0.04002 -0.02467,-0.08526 -0.02467,-0.135701 0,-0.04112 0.006,-0.07813 0.01809,-0.111029 0.01261,-0.0329 0.02933,-0.06251 0.05017,-0.08882 0.02083,-0.02632 0.04551,-0.04962 0.07402,-0.06991 0.02851,-0.02029 0.05867,-0.03811 0.09047,-0.05346 -0.02687,-0.017 -0.05209,-0.03536 -0.07566,-0.0551 -0.02358,-0.02029 -0.04414,-0.04277 -0.06168,-0.06744 -0.017,-0.02467 -0.03071,-0.05181 -0.04112,-0.08142 -0.0099,-0.03016 -0.0148,-0.06333 -0.0148,-0.09952 0,-0.0477 0.009,-0.08937 0.02714,-0.12501 0.01864,-0.03619 0.04359,-0.06634 0.07484,-0.09047 0.03125,-0.02412 0.06716,-0.04222 0.107739,-0.05428 0.04112,-0.01206 0.08389,-0.01809 0.1283,-0.01809 m -.2303,.9162 c 0,0.02906 0.0044,0.05593 0.01316,0.0806 0.0088,0.02412 0.02248,0.04496 0.04112,0.06251 0.01864,0.017 0.04222,0.03043 0.07073,0.0403 0.02851,0.0093 0.06251,0.01398 0.101982,0.01398 0.03838,0 0.0721,-0.0047 0.10116,-0.01398 0.02961,-0.0099 0.05428,-0.02358 0.07402,-0.04112 0.01974,-0.01809 0.03454,-0.03975 0.04441,-0.06497 0.0099,-0.02522 0.0148,-0.05318 0.0148,-0.08389 0,-0.02851 -0.0055,-0.05428 -0.01645,-0.07731 -0.01042,-0.02303 -0.02577,-0.04441 -0.04606,-0.06415 -0.01974,-0.01974 -0.04359,-0.03838 -0.07155,-0.05593 -0.02796,-0.01754 -0.05921,-0.03482 -0.09376,-0.05181 l -.0247,-.0115 c -0.06908,0.0329 -0.121173,0.07073 -0.156263,0.113496 -0.03509,0.04222 -0.05264,0.09348 -0.05264,0.153795 m .2286,-.7912 c -0.05812,0 -0.10445,0.01453 -0.138991,0.04359 -0.03399,0.02906 -0.05099,0.07128 -0.05099,0.126655 0,0.03125 0.0047,0.05812 0.01398,0.0806 0.0099,0.02248 0.0233,0.04249 0.0403,0.06004 0.017,0.01755 0.03728,0.03345 0.06086,0.0477 0.02412,0.01371 0.05017,0.02714 0.07813,0.0403 0.02632,-0.01206 0.05099,-0.02522 0.07402,-0.03948 0.02358,-0.01425 0.04386,-0.03043 0.06086,-0.04852 0.01754,-0.01809 0.03125,-0.03865 0.04112,-0.06168 0.0099,-0.02303 0.0148,-0.04935 0.0148,-0.07895 0,-0.05538 -0.01727,-0.09759 -0.05181,-0.126655 -0.03454,-0.02906 -0.08197,-0.04359 -0.142281,-0.04359"/>
<path style="opacity:.5" d="m 23.0693,46.5044 c 0,-0.05757 0.0027,-0.114866 0.0082,-0.171889 0.006,-0.05702 0.01617,-0.111576 0.03043,-0.163665 0.0148,-0.05264 0.03482,-0.101432 0.06004,-0.146393 0.02522,-0.04496 0.0573,-0.08389 0.09623,-0.116786 0.03893,-0.03344 0.08553,-0.05949 0.139814,-0.07813 0.05428,-0.01919 0.117882,-0.02878 0.190805,-0.02878 0.01042,0 0.02193,0 0.03454,0 0.01261,0 0.02522,0.0016 0.03783,0.0033 0.01316,0.0011 0.02549,0.0027 0.03701,0.0049 0.01206,0.0016 0.02275,0.0038 0.03208,0.0066 v 0.127477 c -0.01919,-0.0066 -0.04085,-0.01151 -0.06497,-0.0148 -0.02413,-0.0033 -0.04798,-0.0049 -0.07155,-0.0049 -0.04935,0 -0.09294,0.006 -0.130767,0.01809 -0.03728,0.01152 -0.06963,0.02796 -0.09705,0.04935 -0.02742,0.02139 -0.05044,0.04688 -0.06908,0.07649 -0.01809,0.02961 -0.0329,0.06251 -0.04441,0.09869 -0.01151,0.03564 -0.02001,0.07375 -0.02549,0.114319 -0.0055,0.04057 -0.009,0.08279 -0.01069,0.126655 h 0.0099 c 0.01097,-0.01974 0.02413,-0.03811 0.03948,-0.0551 0.0159,-0.01754 0.03427,-0.03235 0.0551,-0.04441 0.02084,-0.01261 0.04414,-0.02248 0.06991,-0.02961 0.02632,-0.0071 0.05565,-0.01069 0.088,-0.01069 0.05209,0 0.09924,0.0082 0.141459,0.02467 0.04222,0.0159 0.07813,0.03948 0.107739,0.07073 0.02961,0.03125 0.05236,0.06963 0.06826,0.115141 0.01645,0.04496 0.02467,0.0965 0.02467,0.154618 0,0.06251 -0.0085,0.118705 -0.02549,0.168599 -0.017,0.04989 -0.0414,0.09239 -0.0732,0.127478 -0.0318,0.03454 -0.07018,0.06113 -0.115141,0.07978 -0.04496,0.01864 -0.0954,0.02796 -0.151328,0.02796 -0.05483,0 -0.106369,-0.01069 -0.154618,-0.03207 -0.0477,-0.02138 -0.0891,-0.05401 -0.124188,-0.09787 -0.03509,-0.04386 -0.06278,-0.09897 -0.08307,-0.16531 -0.02029,-0.06634 -0.03043,-0.144748 -0.03043,-0.235216 m 0.3907,0.4046 c 0.0329,0 0.06278,-0.0055 0.08964,-0.01645 0.02741,-0.01151 0.05099,-0.02851 0.07073,-0.05099 0.01974,-0.02303 0.03482,-0.05181 0.04523,-0.08636 0.01096,-0.03509 0.01645,-0.07649 0.01645,-0.124188 0,-0.03838 -0.0047,-0.07265 -0.01398,-0.102804 -0.0088,-0.0307 -0.02221,-0.05675 -0.0403,-0.07813 -0.01809,-0.02138 -0.04085,-0.03783 -0.06826,-0.04935 -0.02687,-0.01151 -0.05839,-0.01727 -0.09458,-0.01727 -0.03674,0 -0.07046,0.0066 -0.10116,0.01974 -0.03016,0.01261 -0.05593,0.02933 -0.07731,0.05017 -0.02138,0.02029 -0.03811,0.04359 -0.05017,0.06991 -0.01151,0.02632 -0.01727,0.05264 -0.01727,0.07895 0,0.03674 0.0049,0.07347 0.0148,0.110206 0.01042,0.03619 0.0255,0.06881 0.04523,0.09787 0.02029,0.02906 0.04551,0.05291 0.07566,0.07155 0.03016,0.01809 0.06525,0.02714 0.105272,0.02714"/>
<path style="opacity:.5" d="m 24.1352,47.0184 .463,-1.0659 h -0.6201 v -0.1365 h 0.7731 v 0.1193 l -.4565,1.0831 h -0.1596"/>
<path style="opacity:.5" d="m 25.7258,46.7486 h -0.1752 v 0.2698 h -0.1447 v -0.2698 h -0.5551 v -0.1308 l .5453,-.8085 h 0.1546 v 0.8027 h 0.1752 v 0.1365 m -.3199,-.1365 v -0.2928 c 0,-0.0307 0,-0.06278 0,-0.09622 0.0011,-0.03399 0.0022,-0.06689 0.0033,-0.09869 0.0011,-0.03235 0.0022,-0.0625 0.0033,-0.09047 0.0016,-0.02796 0.0027,-0.05126 0.0033,-0.06991 h -0.0074 c -0.0038,0.01097 -0.0088,0.0233 -0.0148,0.03701 -0.0055,0.01316 -0.01179,0.02659 -0.01892,0.0403 -0.0066,0.01316 -0.01343,0.02604 -0.02056,0.03865 -0.0071,0.01261 -0.01371,0.0233 -0.01974,0.03207 l -.338,.5 h 0.408751"/>
<path style="opacity:.5" d="m 25.8525,46.5044 c 0,-0.05757 0.0027,-0.114866 0.0082,-0.171889 0.006,-0.05702 0.01618,-0.111576 0.03043,-0.163665 0.0148,-0.05264 0.03482,-0.101432 0.06004,-0.146393 0.02522,-0.04496 0.0573,-0.08389 0.09623,-0.116786 0.03893,-0.03344 0.08553,-0.05949 0.139814,-0.07813 0.05428,-0.01919 0.117882,-0.02878 0.190805,-0.02878 0.01042,0 0.02193,0 0.03454,0 0.01261,0 0.02522,0.0016 0.03783,0.0033 0.01316,0.0011 0.02549,0.0027 0.03701,0.0049 0.01206,0.0016 0.02275,0.0038 0.03207,0.0066 v 0.127477 c -0.01919,-0.0066 -0.04085,-0.01151 -0.06497,-0.0148 -0.02413,-0.0033 -0.04798,-0.0049 -0.07155,-0.0049 -0.04935,0 -0.09294,0.006 -0.130768,0.01809 -0.03728,0.01152 -0.06963,0.02796 -0.09705,0.04935 -0.02742,0.02139 -0.05044,0.04688 -0.06908,0.07649 -0.01809,0.02961 -0.0329,0.06251 -0.04441,0.09869 -0.01151,0.03564 -0.02001,0.07375 -0.02549,0.114319 -0.0055,0.04057 -0.009,0.08279 -0.01069,0.126655 h 0.0099 c 0.01097,-0.01974 0.02413,-0.03811 0.03948,-0.0551 0.0159,-0.01754 0.03427,-0.03235 0.0551,-0.04441 0.02083,-0.01261 0.04414,-0.02248 0.06991,-0.02961 0.02632,-0.0071 0.05565,-0.01069 0.088,-0.01069 0.05209,0 0.09924,0.0082 0.141459,0.02467 0.04222,0.0159 0.07813,0.03948 0.107739,0.07073 0.02961,0.03125 0.05236,0.06963 0.06826,0.115141 0.01645,0.04496 0.02467,0.0965 0.02467,0.154618 0,0.06251 -0.0085,0.118705 -0.0255,0.168599 -0.017,0.04989 -0.0414,0.09239 -0.0732,0.127478 -0.0318,0.03454 -0.07018,0.06113 -0.115141,0.07978 -0.04496,0.01864 -0.0954,0.02796 -0.151328,0.02796 -0.05483,0 -0.106369,-0.01069 -0.154618,-0.03207 -0.0477,-0.02138 -0.0891,-0.05401 -0.124188,-0.09787 -0.03509,-0.04386 -0.06278,-0.09897 -0.08307,-0.16531 -0.02029,-0.06634 -0.03043,-0.144748 -0.03043,-0.235216 m 0.3907,0.4046 c 0.0329,0 0.06278,-0.0055 0.08965,-0.01645 0.02741,-0.01151 0.05099,-0.02851 0.07073,-0.05099 0.01974,-0.02303 0.03481,-0.05181 0.04523,-0.08636 0.01097,-0.03509 0.01645,-0.07649 0.01645,-0.124188 -0,-0.03838 -0.0047,-0.07265 -0.01398,-0.102804 -0.0088,-0.0307 -0.02221,-0.05675 -0.0403,-0.07813 -0.01809,-0.02138 -0.04085,-0.03783 -0.06826,-0.04935 -0.02687,-0.01151 -0.05839,-0.01727 -0.09458,-0.01727 -0.03674,0 -0.07046,0.0066 -0.101159,0.01974 -0.03016,0.01261 -0.05593,0.02933 -0.07731,0.05017 -0.02138,0.02029 -0.03811,0.04359 -0.05017,0.06991 -0.01151,0.02632 -0.01727,0.05264 -0.01727,0.07895 0,0.03674 0.0049,0.07347 0.0148,0.110206 0.01042,0.03619 0.02549,0.06881 0.04523,0.09787 0.02029,0.02906 0.04551,0.05291 0.07566,0.07155 0.03016,0.01809 0.06525,0.02714 0.105272,0.02714"/>
<path style="opacity:.5" d="m 27.4776,46.0973 c 0,0.04003 -0.0063,0.07649 -0.01892,0.109384 -0.01261,0.0329 -0.03043,0.06141 -0.05346,0.08553 -0.02248,0.02413 -0.04962,0.04414 -0.08142,0.06004 -0.0318,0.01535 -0.06717,0.02632 -0.106094,0.0329 v 0.0049 c 0.09705,0.01206 0.170792,0.04304 0.221235,0.09294 0.05044,0.04935 0.07566,0.11377 0.07566,0.193272 0,0.05264 -0.009,0.100885 -0.02714,0.144748 -0.01755,0.04386 -0.04441,0.0817 -0.0806,0.113497 -0.03619,0.0318 -0.08197,0.05647 -0.137346,0.07402 -0.05538,0.01755 -0.120899,0.02632 -0.196562,0.02632 -0.05976,0 -0.116238,-0.0047 -0.169422,-0.01398 -0.05264,-0.0093 -0.102256,-0.02632 -0.148861,-0.05099 v -0.139814 c 0.0477,0.02522 0.09924,0.04469 0.154618,0.05839 0.05593,0.01371 0.109384,0.02056 0.160375,0.02056 0.05044,0 0.09403,-0.0055 0.130767,-0.01645 0.03674,-0.01096 0.06689,-0.02659 0.09047,-0.04688 0.02412,-0.02029 0.04167,-0.04523 0.05264,-0.07484 0.01151,-0.02961 0.01727,-0.06278 0.01727,-0.09952 0,-0.03728 -0.0074,-0.06908 -0.02221,-0.0954 -0.01426,-0.02687 -0.03482,-0.0488 -0.06168,-0.0658 -0.02687,-0.01754 -0.05976,-0.03043 -0.09869,-0.03865 -0.03838,-0.0082 -0.08197,-0.01234 -0.130767,-0.01234 h -0.109384 v -0.124188 h 0.109384 c 0.04441,0 0.08389,-0.0055 0.118431,-0.01645 0.03454,-0.01097 0.06333,-0.02659 0.08635,-0.04688 0.02358,-0.02029 0.0414,-0.04441 0.05346,-0.07238 0.01206,-0.02796 0.01809,-0.05867 0.01809,-0.09211 0,-0.02851 -0.0049,-0.05401 -0.0148,-0.07649 -0.0099,-0.02248 -0.02385,-0.0414 -0.04194,-0.05675 -0.01809,-0.0159 -0.03975,-0.02796 -0.06497,-0.03619 -0.02522,-0.0082 -0.05318,-0.01234 -0.08389,-0.01234 -0.05867,0 -0.110481,0.0093 -0.155441,0.02796 -0.04441,0.01809 -0.0869,0.04195 -0.127477,0.07155 l -.0757,-.1027 c 0.02084,-0.017 0.04386,-0.0329 0.06908,-0.0477 0.02577,-0.0148 0.05373,-0.02769 0.08389,-0.03865 0.03016,-0.01151 0.06223,-0.02056 0.09623,-0.02714 0.03454,-0.0066 0.071,-0.0099 0.109384,-0.0099 0.05921,0 0.111028,0.0074 0.15544,0.0222 0.04496,0.01481 0.08252,0.03564 0.112673,0.06251 0.03016,0.02632 0.05291,0.05785 0.06826,0.09458 0.01535,0.03619 0.02303,0.07594 0.02303,0.119253"/>
<path d="m 50,75 c -0.554,0 -1,0.446 -1,1 v 1 c 0,-0.554 0.446,-1 1,-1 h 8 c 0.554,0 1,0.446 1,1 v -1 c 0,-0.554 -0.446,-1 -1,-1 z"/>
</g>
<rect width="2" x="42" y="-62" height="6" style="fill:#ccc" transform="rotate(90)"/>
<rect width="2" x="42" y="-60" height="2" style="fill:#767676" transform="rotate(90)"/>
<rect width="1" x="42" y="-62" height="6" style="opacity:.6;fill:#fff" transform="rotate(90)"/>
<rect width="2" x="46" y="-62" height="6" style="fill:#ccc" transform="rotate(90)"/>
<rect width="2" x="46" y="-60" height="2" style="fill:#767676" transform="rotate(90)"/>
<g style="fill:#fff">
<rect width="1" x="46" y="-62" height="6" style="opacity:.6" transform="rotate(90)"/>
<rect width="2" x="56" y="50" height="1"/>
</g>
<rect width="2" x="56" y="51" height="4" style="fill:#b28160"/>
<rect width="2" x="17" y="65" height="4" style="opacity:.29"/>
<rect width="4" x="16" y="64" height="1" style="opacity:.632;fill:#fff"/>
<rect width="2" x="23" y="65" height="4" style="opacity:.29"/>
<rect width="4" x="22" y="64" height="1" style="opacity:.632;fill:#fff"/>
<rect width="2" x="29" y="65" height="4" style="opacity:.29"/>
<rect width="4" x="28" y="64" height="1" style="opacity:.632;fill:#fff"/>
<rect width="2" x="35" y="65" height="4" style="opacity:.29"/>
<rect width="4" x="34" y="64" height="1" style="opacity:.632;fill:#fff"/>
<rect width="4" x="50" y="64" height="6" style="fill:#ddd"/>
<g style="fill:#fff">
<path style="opacity:.6" d="m 32,74 v 1 h 4 v -1 z"/>
<path style="opacity:.6" d="m 38,74 v 1 h 4 v -1 z"/>
</g>
<path style="fill:#2877e4" d="m 68,56 a 18,18 0 0 1 0,36 18,18 0 1 1 0,-36 z"/>
<g style="fill:#fff">
<path d="m 68.057,67.8444 c -1.04762,0 -1.90477,-0.315291 -2.57143,-0.945946 -0.634924,-0.662136 -0.952384,-1.49772 -0.952382,-2.50676 0,-1.04051 0.333332,-1.89186 1,-2.55405 0.666662,-0.66213 1.50793,-0.993211 2.52381,-0.993243 1.01587,0 1.84126,0.346878 2.47619,1.04054 0.666658,0.662193 1,1.49778 1,2.50676 0,1.00904 -0.333342,1.84462 -1,2.50676 -0.634927,0.630655 -1.46032,0.945971 -2.47619,0.945946"/>
<path d="m 73.5094,85.8444 h -9.9762 v -1.0188 c 1.38676,0 2.08013,-0.806581 2.08014,-2.41975 v -9.09876 c 0,-1.72635 -0.650929,-2.58954 -1.95278,-2.58956 v -0.976391 h 7.81113 v 12.6647 c 0,1.61317 0.67922,2.41975 2.03768,2.41975 v 1.01884"/>
</g>
</g>
</svg>
