<svg width="48" version="1.1" xmlns="http://www.w3.org/2000/svg" height="48" viewBox="0 0 48 48" xmlns:xlink="http://www.w3.org/1999/xlink">
<defs>
<linearGradient id="linearGradient991">
<stop offset="0" style="stop-color:#003452"/>
<stop offset="1" style="stop-color:#007cc3"/>
</linearGradient>
<linearGradient gradientTransform="matrix(1.8916456,-1.8916456,1.8916456,1.8916456,-537.81895,-513.79487)" xlink:href="#linearGradient991" id="linearGradient993" y1="286.74081" x1="10.264683" y2="294.20752" x2="2.5889783" gradientUnits="userSpaceOnUse"/>
</defs>
<path style="fill:#a7a8ac" d="m 1.7278,22.2483 20.5204,-20.5204 c 0.970465,-0.970465 2.53302,-0.970465 3.50348,0 l 20.5204,20.5204 c 0.970466,0.970465 0.970468,2.53302 0,3.50349 l -20.5204,20.5204 c -0.970465,0.970465 -2.53302,0.970463 -3.50349,0 l -20.5204,-20.5204 c -0.970465,-0.970465 -0.970465,-2.53302 0,-3.50348 z "/>
<path style="fill:#fff" d="m 5.231,22.7486 17.5174,-17.5174 c 0.69319,-0.69319 1.8093,-0.693187 2.50249,0 l 17.5174,17.5174 c 0.69319,0.69319 0.69319,1.8093 0,2.50249 l -17.5174,17.5174 c -0.69319,0.693191 -1.8093,0.693191 -2.50249,0 l -17.5174,-17.5174 c -0.69319,-0.693191 -0.69319,-1.8093 0,-2.50249 z "/>
<path style="fill:url(#linearGradient993)" d="m 8.9851,23 14.0139,-14.0139 c 0.554553,-0.554553 1.44744,-0.554553 2.00199,0 l 14.0139,14.0139 c 0.55455,0.55455 0.554553,1.44744 0,2.00199 l -14.0139,14.0139 c -0.554552,0.554552 -1.44744,0.55455 -2.00199,0 l -14.0139,-14.0139 c -0.554553,-0.554553 -0.554553,-1.44744 0,-2.00199 z "/>
<g style="fill:#fff">
<path d="m 1.0785,23.3919 c -0.188055,0.741014 -0.030074,1.54983 0.47997,2.17304 l 20.4816,-3.0282 c 2.85542,-0.343937 4.28255,-1.51797 5.46743,-5.4243 l 3.6722,-9.9564 -.6051,-.6051 -4.086,10.9795 c -0.740943,1.99083 -1.98273,2.98813 -4.51914,3.29919 z "/>
<path d="m 2.6961,26.7201 1.844,1.844 19.7522,-3.775 c 2.84526,-0.419716 4.84853,-1.38943 5.46743,-5.42427 l 2.5629,-11.0661 -.6539,-.6539 -2.9276,12.138 c -0.448705,2.07632 -1.99151,2.92343 -4.51914,3.29919 z "/>
<path d="m 5.7001,29.7242 1.8372,1.8372 19.0072,-4.5199 c 2.79802,-0.665386 5.32717,-1.34468 5.46743,-5.4243 l 1.4544,-12.1742 -.7049,-.7049 -1.7684,13.2975 c -0.194419,2.11529 -2.00237,2.85649 -4.51914,3.29919 z "/>
</g>
</svg>
