<svg width="48" version="1.1" xmlns="http://www.w3.org/2000/svg" height="48">
<path style="fill:#3594bb" id="path3761" d="M 7.1162791,2 C 4.2818605,2 2,4.2818605 2,7.1162791 V 40.883721 C 2,43.71814 4.2818605,46 7.1162791,46 H 40.883721 C 43.71814,46 46,43.71814 46,40.883721 V 7.1162791 C 46,4.2818605 43.71814,2 40.883721,2 Z"/>
<g style="line-height:1.25;letter-spacing:0;word-spacing:0" id="g4592" transform="translate(-4.654241,-1.096623)">
<path style="opacity:.4" id="path4560" d="m 32.6805,18.9843 -10.73,1.5736 -.2521,1.531 4.9301,.5529 -5.1902,11.0401 c -0.495228,1.14829 -0.901216,2.12646 -1.02025,2.84945 -0.357117,2.16899 0.984653,3.31727 3.98508,3.31727 3.24536,0 6.71122,-0.595409 10.744,-1.65864 l .2871,-1.7437 c -1.9,0.382762 -3.40462,0.595408 -4.32312,0.595408 -1.95946,0 -2.86738,-0.808054 -2.6153,-2.3391 0.07002,-0.425293 6.60651,-14.0635 6.60651,-14.0635 l .2724,-1.6547 z "/>
<path style="opacity:.5" id="path4580" d="m 35.3993,7.0892 c -2.87164,0 -5.33219,1.86355 -5.75408,4.42592 -0.35477,2.15473 1.15807,3.66886 3.83392,3.66886 2.80637,0 5.27651,-1.92178 5.67923,-4.36769 0.373946,-2.2712 -1.01796,-3.72709 -3.75906,-3.72709 z "/>
<g style="fill:#fff">
<path id="path4552" d="m 35.3156,8.5891 c -2.87164,0 -5.33219,1.86355 -5.75408,4.42592 -0.354769,2.15473 1.15807,3.66886 3.83392,3.66886 2.80637,0 5.27651,-1.92178 5.67923,-4.36769 0.373947,-2.2712 -1.01796,-3.72709 -3.75906,-3.72709 z "/>
<path id="path4546" d="m 32.408,20.639 -10.73,1.5736 -.2521,1.531 4.9301,.5529 -5.1902,11.0401 c -0.495228,1.14829 -0.901215,2.12646 -1.02025,2.84945 -0.357117,2.16899 0.984654,3.31727 3.98508,3.31727 3.24536,0 6.71122,-0.595408 10.744,-1.65864 l .2871,-1.7437 c -1.9,0.382762 -3.40462,0.595408 -4.32312,0.595408 -1.95946,0 -2.86738,-0.808054 -2.6153,-2.3391 0.07003,-0.425292 0.290514,-1.0207 0.59326,-1.7437 l 6.2857,-13.9746 z "/>
</g>
</g>
</svg>
