<svg width="48" version="1.1" xmlns="http://www.w3.org/2000/svg" height="48">
<path style="fill:#3594bb" id="path3761" d="M 7.1162791,2 C 4.2818605,2 2,4.2818605 2,7.1162791 V 40.883721 C 2,43.71814 4.2818605,46 7.1162791,46 H 40.883721 C 43.71814,46 46,43.71814 46,40.883721 V 7.1162791 C 46,4.2818605 43.71814,2 40.883721,2 Z"/>
<g style="line-height:1.25;word-spacing:0;letter-spacing:0">
<path style="opacity:.4" id="path4560" d="m 32.6805,18.9843 -10.73,1.5736 -.2521,1.531 4.9301,.5529 -5.1902,11.4403 c -0.495228,1.14829 -0.901216,2.12646 -1.02025,2.84945 -0.357117,2.16899 0.984653,3.31727 3.98508,3.31727 3.24536,0 6.71122,-0.595409 10.744,-1.65864 l .2871,-1.7437 c -1.9,0.382762 -3.40462,0.595408 -4.32312,0.595408 -1.95946,0 -2.86738,-0.808054 -2.6153,-2.3391 0.07002,-0.425293 6.60651,-14.4638 6.60651,-14.4638 l .2724,-1.6547 z "/>
<path style="opacity:.4" id="path4580" d="m 35.3993,7.0892 c -2.87164,0 -5.33219,1.86355 -5.75408,4.42592 -0.35477,2.15473 1.15807,3.66886 3.83392,3.66886 2.80637,0 5.27651,-1.92178 5.67923,-4.36769 0.373946,-2.2712 -1.01796,-3.72709 -3.75906,-3.72709 z "/>
<g style="fill:#fff">
<path id="path4552" d="m 35.3156,8.5891 c -2.87164,0 -5.33219,1.86355 -5.75408,4.42592 -0.354769,2.15473 1.15807,3.66886 3.83392,3.66886 2.80637,0 5.27651,-1.92178 5.67923,-4.36769 0.373947,-2.2712 -1.01796,-3.72709 -3.75906,-3.72709 z "/>
<path id="path4546" d="m 32.408,20.639 -10.73,1.5736 -.2521,1.531 4.9301,.5529 -5.1902,11.4403 c -0.495228,1.14829 -0.901215,2.12646 -1.02025,2.84945 -0.357117,2.16899 0.984654,3.31727 3.98508,3.31727 3.24536,0 6.71122,-0.595408 10.744,-1.65864 l .2871,-1.7437 c -1.9,0.382762 -3.40462,0.595408 -4.32312,0.595408 -1.95946,0 -2.86738,-0.808054 -2.6153,-2.3391 0.07003,-0.425292 0.290514,-1.0207 0.59326,-1.7437 l 6.2857,-14.3749 z "/>
</g>
</g>
<g id="g4644" transform="matrix(1.1168699,0,0,1.1168699,-2.6585363,-1.1161322)">
<path style="opacity:.4" id="path4640" d="m 20.0547,7.1458 c -0.946083,-1.21041 -0.896387,-1.54301 -2.0677,-0.594899 l -.9449,.7649 c -0.684019,-0.434908 -1.52744,-0.711286 -2.34391,-0.817656 l -.2765,-1.13 c -0.379945,-1.55277 -0.839212,-0.972732 -2.14166,-0.608805 -1.45268,0.400751 -1.96478,0.134848 -1.58581,1.60455 l .2794,1.0834 c -0.09891,0.087432 -0.236229,0.191214 -0.335135,0.278652 -0.41197,0.311331 -0.736502,0.72157 -1.02262,1.11547 l -1.0956,-.2825 c -1.47953,-0.381571 -1.25314,0.248861 -1.62666,1.5085 -0.457843,1.48125 -0.879234,1.69886 0.619207,2.09567 l 1.1503,.3046 c 0.026082,0.487934 0.145335,0.981605 0.357761,1.48101 l -.9449,.7649 c -1.214,0.982666 -0.695941,1.06639 0.177857,2.12461 0.946083,1.21041 0.896382,1.54301 2.0677,0.5949 l .9449,-.7649 c 0.68402,0.434908 1.52744,0.711285 2.34391,0.817654 l .2765,1.13 c 0.379945,1.55277 0.839212,0.972732 2.14166,0.608804 1.45268,-0.400746 1.96478,-0.134833 1.58581,-1.60454 l -.2794,-1.0834 c 0.09891,-0.08743 0.236231,-0.191215 0.335138,-0.278652 0.411969,-0.311331 0.736501,-0.721574 1.02262,-1.11547 l 1.0956,.2825 c 1.41883,0.567026 1.25314,-0.248859 1.62666,-1.50851 0.457843,-1.48125 0.879233,-1.69886 -0.619204,-2.09567 l -1.1503,-.3046 c -0.02608,-0.487938 -0.145335,-0.981604 -0.35776,-1.48101 l .9449,-.7648 c 1.214,-0.982666 0.695942,-1.06639 -0.177858,-2.12461 Z  m -4.6359,6.4858 c -0.944918,0.764857 -2.35884,0.640419 -3.16212,-0.288162 -0.803271,-0.928578 -0.640419,-2.35884 0.288163,-3.16212 0.944922,-0.764856 2.35884,-0.640417 3.16212,0.288162 0.764857,0.944922 0.640418,2.35884 -0.288163,3.16212 z "/>
<path style="fill:#fff" id="path9" d="m 20.0547,8.1459 c -0.946083,-1.21041 -0.896387,-1.54301 -2.0677,-0.594899 l -.9449,.7649 c -0.684019,-0.434908 -1.52744,-0.711286 -2.34391,-0.817656 l -.2765,-1.13 c -0.379945,-1.55277 -0.839212,-0.972732 -2.14166,-0.608805 -1.45268,0.400751 -1.96478,0.134848 -1.58581,1.60455 l .2794,1.0834 c -0.098909,0.0874318 -0.236229,0.191214 -0.335135,0.278652 -0.41197,0.311331 -0.736502,0.72157 -1.02262,1.11547 l -1.0956,-.2825 c -1.47953,-0.381571 -1.25314,0.248861 -1.62666,1.50851 -0.457843,1.48125 -0.879234,1.69886 0.619207,2.09567 l 1.1503,.3046 c 0.026082,0.487934 0.145335,0.981605 0.357761,1.48101 l -.9449,.7649 c -1.214,0.982666 -0.695941,1.06639 0.177857,2.12461 0.946083,1.21041 0.896382,1.54301 2.0677,0.5949 l .9449,-.7649 c 0.68402,0.434908 1.52744,0.711285 2.34391,0.817654 l .2765,1.13 c 0.379945,1.55277 0.839212,0.972732 2.14166,0.608804 1.45268,-0.400746 1.96478,-0.134833 1.58581,-1.60454 l -.2794,-1.0834 c 0.09891,-0.08743 0.236231,-0.191215 0.335138,-0.278652 0.411969,-0.311331 0.736501,-0.721574 1.02262,-1.11547 l 1.0956,.2825 c 1.41883,0.567026 1.25314,-0.248859 1.62666,-1.50851 0.457843,-1.48125 0.879233,-1.69886 -0.619204,-2.09567 l -1.1503,-.3046 c -0.02608,-0.487938 -0.145335,-0.981604 -0.35776,-1.48101 l .9449,-.7649 c 1.214,-0.982667 0.695942,-1.06639 -0.177858,-2.12461 Z  m -4.6359,6.4858 c -0.944918,0.764857 -2.35884,0.640419 -3.16212,-0.288162 -0.803271,-0.928578 -0.640419,-2.35884 0.288163,-3.16212 0.944922,-0.764858 2.35884,-0.640419 3.16212,0.288162 0.764857,0.944922 0.640418,2.35884 -0.288163,3.16212 z "/>
</g>
</svg>
