<svg width="48" version="1.1" xmlns="http://www.w3.org/2000/svg" height="48">
<path style="fill:#3594bb" d="M 7.1162791,2 C 4.2818605,2 2,4.2818605 2,7.1162791 V 40.883721 C 2,43.71814 4.2818605,46 7.1162791,46 H 40.883721 C 43.71814,46 46,43.71814 46,40.883721 V 7.1162791 C 46,4.2818605 43.71814,2 40.883721,2 Z"/>
<path style="opacity:.4" d="m 28.0263,17.4875 -10.73,1.5736 -.2521,1.531 4.9301,.5529 -5.1902,11.4403 c -0.495228,1.14829 -0.901216,2.12646 -1.02025,2.84945 -0.357117,2.16899 0.984653,3.31727 3.98508,3.31727 3.24536,0 6.71122,-0.595409 10.744,-1.65864 l .2871,-1.7437 c -1.9,0.382762 -3.40462,0.595408 -4.32312,0.595408 -1.95946,0 -2.86738,-0.808054 -2.6153,-2.3391 0.07002,-0.425293 6.60651,-14.4638 6.60651,-14.4638 l .2724,-1.6547 z "/>
<path style="opacity:.4" d="m 30.7451,5.5924 c -3.55665,0 -5.47939,2.5828 -5.90252,5.14497 -0.471957,2.85785 1.46311,3.16696 3.98236,2.94981 4.33799,-0.373914 5.42092,-0.820192 5.71201,-3.86187 0.214679,-2.24327 -0.761253,-4.23291 -3.79184,-4.23291 z "/>
<g style="fill:#fff">
<path d="m 30.6614,7.0923 c -2.87164,0 -5.33219,1.86355 -5.75408,4.42592 -0.354769,2.15473 1.15807,3.66886 3.83392,3.66886 2.80637,0 5.27651,-1.92178 5.67923,-4.36769 0.373947,-2.2712 -1.01796,-3.72709 -3.75906,-3.72709 z "/>
<path d="m 27.7538,19.1422 -10.73,1.5736 -.2521,1.531 4.9301,.5529 -5.1902,11.4403 c -0.495228,1.14829 -0.901215,2.12646 -1.02025,2.84945 -0.357117,2.16899 0.984654,3.31727 3.98508,3.31727 3.24536,0 6.71122,-0.595408 10.744,-1.65864 l .2871,-1.7437 c -1.9,0.382762 -3.40462,0.595408 -4.32312,0.595408 -1.95946,0 -2.86738,-0.808054 -2.6153,-2.3391 0.07003,-0.425292 0.290514,-1.0207 0.59326,-1.7437 l 6.2857,-14.3749 z "/>
</g>
</svg>
