<svg width="48" version="1.1" xmlns="http://www.w3.org/2000/svg" height="48">
<path style="fill:#3594bb" d="M 7.1162791,2 C 4.2818605,2 2,4.2818605 2,7.1162791 V 40.883721 C 2,43.71814 4.2818605,46 7.1162791,46 H 40.883721 C 43.71814,46 46,43.71814 46,40.883721 V 7.1162791 C 46,4.2818605 43.71814,2 40.883721,2 Z"/>
<path style="opacity:.4" d="m 32.6805,18.9843 -10.73,1.5736 -.2521,1.531 4.9301,.5529 -5.1902,11.4403 c -0.495228,1.14829 -0.901216,2.12646 -1.02025,2.84945 -0.357117,2.16899 0.984653,3.31727 3.98508,3.31727 3.24536,0 6.71122,-0.595409 10.744,-1.65864 l .2871,-1.7437 c -1.9,0.382762 -3.40462,0.595408 -4.32312,0.595408 -1.95946,0 -2.86738,-0.808054 -2.6153,-2.3391 0.07002,-0.425293 6.60651,-14.4638 6.60651,-14.4638 l .2724,-1.6547 z "/>
<path style="opacity:.4" d="m 35.3993,7.0892 c -3.55665,0 -5.47939,2.5828 -5.90252,5.14497 -0.471957,2.85786 1.46311,3.16696 3.98236,2.94982 4.33798,-0.373914 5.42092,-0.820192 5.71201,-3.86187 0.214679,-2.24327 -0.761253,-4.23291 -3.79184,-4.23291 Z "/>
<g style="fill:#fff">
<path d="m 35.3156,8.5891 c -2.87164,0 -5.33219,1.86355 -5.75408,4.42592 -0.354769,2.15473 1.15807,3.66886 3.83392,3.66886 2.80637,0 5.27651,-1.92178 5.67923,-4.36769 0.373947,-2.2712 -1.01796,-3.72709 -3.75906,-3.72709 z"/>
<path d="m 32.408,20.639 -10.73,1.5736 -.2521,1.531 4.9301,.5529 -5.1902,11.4403 c -0.495228,1.14829 -0.901215,2.12646 -1.02025,2.84945 -0.357117,2.16899 0.984654,3.31727 3.98508,3.31727 3.24536,0 6.71122,-0.595408 10.744,-1.65864 l .2871,-1.7437 c -1.9,0.382762 -3.40462,0.595408 -4.32312,0.595408 -1.95946,0 -2.86738,-0.808054 -2.6153,-2.3391 0.07003,-0.425292 0.290514,-1.0207 0.59326,-1.7437 l 6.2857,-14.3749 z "/>
</g>
<path style="opacity:.4" d="m 19.74,6.8648 c -1.05665,-1.35187 -1.00115,-1.72334 -2.30935,-0.664425 l -1.0553,.8543 c -0.76396,-0.485736 -1.70595,-0.794414 -2.61784,-0.913215 l -.3088,-1.2621 c -0.424349,-1.73424 -0.93729,-1.08642 -2.39195,-0.679956 -1.62246,0.447587 -2.41652,0.310403 -1.99326,1.95187 l .331,1.2182 c -0.11047,0.0976503 -0.0607121,0.0455925 -0.171177,0.143249 -0.460117,0.347716 -0.822577,0.8059 -1.14213,1.24583 l -1.2236,-.3155 c -1.65244,-0.426165 -1.39959,0.277945 -1.81677,1.6848 -0.511351,1.65436 -1.35727,3.01188 0.316293,3.26775 l 1.66,-.587 c 0.02913,0.544958 0.16232,1.09633 0.399572,1.65409 l -1.0553,.8543 c -1.81992,1.35163 -1.25962,1.82615 -0.248545,2.94163 1.24415,1.19562 1.44833,1.15462 2.75654,0.0957 l 1.0553,-.8543 c 0.763962,0.485736 1.70595,0.794413 2.61784,0.913213 l .3088,1.2621 c 0.424349,1.73424 1.36818,2.01449 2.82285,1.60803 1.67324,-0.353831 2.24965,0.07038 1.34025,-2.72014 l -.3121,-1.21 c 0.11047,-0.09765 0.263839,-0.213563 0.374305,-0.311218 0.460116,-0.347717 0.822576,-0.805905 1.14213,-1.24583 l 1.2236,.3155 c 1.58465,0.633295 1.56532,-0.172982 2.12613,-1.53565 0.572118,-1.62674 0.67263,-2.04656 -1,-2.48975 l -1.2847,-.3402 c -0.02913,-0.544964 -0.16232,-1.09632 -0.399571,-1.6541 l 1.4641,-.136 c 1.35588,-1.09751 0.368481,-1.90917 -0.60744,-3.09107 z  m -5.1777,7.2438 c -1.05535,0.854245 -2.63452,0.715264 -3.53168,-0.32184 -0.89715,-1.0371 -0.715265,-2.63452 0.32184,-3.53168 1.05536,-0.854244 2.63452,-0.715262 3.53168,0.32184 0.854246,1.05536 0.715263,2.63452 -0.321841,3.53168 z "/>
<path style="fill:#fff" d="m 19.74,7.9818 c -1.05665,-1.35187 -1.00115,-1.72334 -2.30935,-0.664425 l -1.0553,.8543 c -0.76396,-0.485736 -1.70595,-0.794414 -2.61784,-0.913215 l -.3088,-1.2621 c -0.424349,-1.73424 -0.93729,-1.08642 -2.39195,-0.679956 -1.62246,0.447587 -2.1944,0.150608 -1.77114,1.79207 l .3121,1.21 c -0.11047,0.0976502 -0.263837,0.213561 -0.374302,0.311218 -0.460117,0.347716 -0.822577,0.8059 -1.14213,1.24583 l -1.2236,-.3155 c -1.65244,-0.426165 -1.39959,0.277945 -1.81677,1.68481 -0.511351,1.65436 -0.98199,1.89741 0.691574,2.34059 l 1.2847,.3402 c 0.02913,0.544959 0.16232,1.09633 0.399572,1.6541 l -1.0553,.8543 c -1.35588,1.09751 -0.777276,1.19102 0.198643,2.37291 1.05665,1.35187 1.00114,1.72334 2.30935,0.664425 l 1.0553,-.8543 c 0.763962,0.485735 1.70595,0.794412 2.61784,0.913213 l .3088,1.2621 c 0.424349,1.73424 0.937291,1.08641 2.39196,0.679955 1.62245,-0.447581 2.1944,-0.150591 1.77114,-1.79206 l -.3121,-1.21 c 0.11047,-0.09765 0.263839,-0.213562 0.374305,-0.311218 0.460116,-0.347716 0.822576,-0.805904 1.14213,-1.24583 l 1.2236,.3155 c 1.58465,0.633294 1.39959,-0.277943 1.81677,-1.68481 0.511351,-1.65436 0.981989,-1.89741 -0.69157,-2.34059 l -1.2847,-.3402 c -0.02913,-0.544963 -0.16232,-1.09632 -0.399571,-1.65409 l 1.0553,-.8543 c 1.35588,-1.09751 0.777277,-1.19102 -0.198644,-2.37291 z  m -5.1777,7.2438 c -1.05535,0.854246 -2.63452,0.715265 -3.53168,-0.321839 -0.89715,-1.0371 -0.715265,-2.63452 0.32184,-3.53168 1.05536,-0.854247 2.63452,-0.715265 3.53168,0.321839 0.854246,1.05536 0.715263,2.63452 -0.321841,3.53168 z "/>
</svg>
