<svg width="48" version="1.1" xmlns="http://www.w3.org/2000/svg" height="48">
<g style="stroke:none">
<path style="fill:#335410" id="path4159" d="m 22.4155,2.8546 c -0.465714,-0.029275 -0.83569,-0.034117 -1.08466,-0.029472 -3.01892,0.056267 -5.70534,0.601993 -8.75823,1.79122 -4.92045,1.91671 -8.1155,4.32588 -10.095,7.56127 -0.886319,1.44866 -1.2722,2.48959 -1.42687,4.0781 -0.097929,1.00505 -0.053991,1.55544 0.130584,2.39719 0.664849,3.03206 3.12746,5.35217 6.19591,5.86562 2.96923,0.496829 5.32221,-0.48179 6.52965,-2.73251 0.437754,-0.81597 0.592794,-1.53412 0.577855,-2.47242 -0.03652,-2.29452 -1.35796,-4.14312 -3.47717,-4.91437 -0.648917,-0.23617 -1.65817,-0.367571 -2.32727,-0.248832 -1.83454,0.325551 -3.28155,1.82982 -2.9857,3.86478 0.250995,1.7265 2.11247,2.97479 3.84314,2.45756 0.691093,-0.206535 1.1187,-0.512896 0.990976,-1.24188 -0.130197,-0.742928 -0.586357,-0.948751 -1.54251,-0.773055 -0.376363,0.06917 -0.633476,-0.01811 -0.885187,-0.291759 -0.422288,-0.459172 -0.376439,-1.0842 0.137375,-1.49567 0.625452,-0.50086 1.707,-0.474584 2.6215,0.100496 0.905048,0.56913 1.47414,2.01716 1.2241,3.09393 -0.268415,1.15589 -1.03935,1.91034 -2.19987,2.18313 -0.387451,0.09107 -0.553016,0.09175 -1.43888,0.0082 -0.950214,-0.08969 -0.993216,-0.120625 -1.51128,-0.349322 -1.9434,-0.858011 -3.09892,-2.7875 -2.91745,-4.89805 0.114564,-1.33283 0.666339,-2.36567 1.81195,-3.30613 1.07689,-0.884058 2.40585,-1.25282 4.02987,-1.10307 2.01881,0.186158 3.61688,1.02557 4.94979,2.62937 1.0031,1.20699 1.75253,4.72013 1.94056,6.20207 l .0629,.4617 2.7908,1.6944 c 0.02521,-0.01913 0.01634,-0.215221 -0.0029,-0.351025 -0.07268,-0.513218 -0.01604,-3.85025 0.141773,-4.43237 0.229521,-0.846561 0.486334,-1.27634 0.959746,-1.66567 0.729888,-0.600233 1.58074,-0.80075 2.83411,-0.68675 1.66717,0.151592 3.02692,0.89173 4.17535,2.27763 0.257698,0.310978 0.795267,1.0371 1.21916,1.62026 0.423896,0.583148 0.858331,1.13833 0.941254,1.2089 0.232665,0.197968 3.45306,2.04319 3.49886,2.00503 0.02227,-0.01856 -0.05289,-0.250055 -0.198754,-0.509324 -0.570889,-1.01484 -1.01335,-2.27743 -1.13857,-3.26146 -0.08565,-0.673199 0.02763,-1.65456 0.261259,-2.08059 0.218721,-0.398884 0.635544,-0.696403 1.0538,-0.78012 0.44801,-0.08969 1.41416,-0.0159 2.67828,0.245999 1.51612,0.314098 2.34392,0.432615 3.36116,0.449027 2.31661,0.03739 3.86161,-0.217052 5.62349,-0.886541 0.92079,-0.349899 1.1165,-0.500402 1.35442,-0.99804 0.226819,-0.47448 0.352824,-0.914657 0.260174,-0.923166 -0.03278,-0.0031 -0.36042,0.08272 -0.721215,0.214368 -1.35383,0.493971 -2.46645,0.168335 -3.45062,0.02466 -1.02311,-0.149355 -2.67653,-0.855198 -4.58671,-1.99972 l -.8628,-.5351 -.5675,-1.841 .6542,.516 c 1.07149,0.862533 2.82705,1.93539 3.91908,2.3944 1.66834,0.701217 3.02625,0.743169 4.47458,0.165455 0.510492,-0.203621 1.50758,-0.756128 1.51555,-0.842935 0.01502,-0.163643 -0.332307,-1.89289 -0.538355,-2.6397 -0.515223,-1.86757 -0.919301,-2.49097 -1.99249,-3.12945 -1.19146,-0.708849 -2.52891,-0.665414 -5.00091,-1.47279 -1.1836,-0.367187 -2.38041,-0.731037 -3.5915,-0.996328 l -.1721,1.4926 c -2.77278,-1.14982 -5.20261,-1.97877 -7.94148,-2.51831 -0.707749,-0.139424 -2.29467,-0.31689 -3.74698,-0.449386 -0.564781,-0.0515293 -1.1343,-0.117688 -1.60002,-0.146961 Z  m 20.2059,4.3426 c 0.922299,0.08235 1.77316,0.630827 2.20906,1.5358 0.74325,1.54312 -0.164117,3.38983 -1.85667,3.7931 -1.117,0.266134 -2.36236,-0.30713 -2.93027,-1.32143 -0.466124,-0.832487 -0.469311,-1.8539 -0.000676,-2.66587 0.266276,-0.461374 0.84795,-0.963818 1.29763,-1.14357 0.424286,-0.169625 0.861701,-0.235466 1.28093,-0.198028 z  m -.0703,.7652 c -0.432953,-0.030567 -0.897524,0.104454 -1.3001,0.406732 -0.614668,0.461488 -0.8779,1.37965 -0.615472,2.11821 0.215449,0.606372 0.672259,1.05117 1.2575,1.20287 0.829892,0.215127 1.6555,-0.09728 2.07208,-0.791821 0.284964,-0.475124 0.3721,-0.826217 0.295318,-1.30578 -0.152793,-0.95186 -0.883166,-1.57188 -1.70969,-1.63015 Z  m .3279,1.0122 c 0.320323,0.029422 0.699515,0.255917 0.730082,0.452897 0.04152,0.26768 -0.06672,0.459286 -0.332575,0.565752 -0.410536,0.164404 -0.90019,0.05713 -1.16983,-0.247755 -0.332436,-0.375907 0.114042,-0.831359 0.772327,-0.770894 z "/>
<g id="g6" transform="matrix(0,1,1,0,0.499935,13.14145)">
<path style="fill:#5a5a5a" id="path4189" d="m 17.3954,32.1125 c -0.321838,0 -0.577033,0.254696 -0.577033,0.577032 v 14.2335 c 0,0.322336 0.255195,0.577033 0.577033,0.577033 h 13.8366 c 0.321837,0 0.577032,-0.254697 0.577032,-0.577033 v -14.2335 c 0,-0.322336 -0.255195,-0.577032 -0.577032,-0.577032 z  m 3.0973,9.2005 3.1416,0 0,3.1416 -3.1416,0 z  m 5.1292,0 3.1416,0 0,3.1416 -3.1416,0 z "/>
<rect width="12.309719" x="17.845297" y="-46.683613" height="13.335554" style="opacity:.715;fill:none" id="rect3458" transform="scale(1,-1)"/>
<path style="fill:#c8c8c8" id="rect3448" d="m 17.3963,31.2745 c -0.321837,0 -0.577032,0.254696 -0.577032,0.577032 v 14.2335 c 0,0.322336 0.255195,0.577033 0.577032,0.577033 h 13.2076 c 0.321837,0 0.577032,-0.254697 0.577032,-0.577033 v -14.2335 c 0,-0.322336 -0.255195,-0.577032 -0.577032,-0.577032 h -13.2076 z  m 2.4684,9.2005 3.1416,0 0,3.1416 -3.1416,0 0,-3.1416 z  m 5.1292,0 3.1416,0 0,3.1416 -3.1416,0 0,-3.1416 z "/>
<path style="fill:#69470f" id="path4146" d="m 15.4088,.5 c -0.925609,0 -1.66695,0.745428 -1.66695,1.66695 v 34.3956 c 0,0.921529 0.741348,1.66695 1.66695,1.66695 h 17.7828 c 0.925609,0 1.66695,-0.745428 1.66695,-1.66695 v -34.3956 c 0,-0.92153 -0.741349,-1.66695 -1.66695,-1.66695 Z "/>
<path style="fill:#e09924" id="path4152" d="m 15.4088,0.5 c -0.925609,0 -1.66695,0.745428 -1.66695,1.66695 l 0,33.5956 c 0,0.921529 0.741348,1.66695 1.66695,1.66695 l 17.1825,0 c 0.925609,0 1.66695,-0.745428 1.66695,-1.66695 l 0,-33.5956 C 34.25825,1.24542 33.516902,0.5 32.5913,0.5 l -17.1825,0 z"/>
<path style="opacity:.35" id="path4149" d="m 23.6781,1.4584 2.8915,4.5612 0,1.0001 -1.9548,-1.0001 0,12.8285 c 0.271249,0 2.93332,-2.52659 3.82818,-3.66528 0.386632,-0.491974 0.61088,-1.17349 0.61088,-1.83264 0,-0.994156 0.361191,-1.22176 -0.447977,-1.22176 h -0.895957 v -4.64268 h 4.88703 v 4.64268 h -0.77378 c -0.705099,0.07735 -1.21082,0.445213 -1.34393,1.54756 -0.198521,1.64401 -0.940909,2.72318 -3.706,5.33501 l -2.1584,2.1584 v 7.81925 l .6109,.3258 c 0.434631,0.19662 1.08129,0.829141 1.34393,1.42538 1.33165,3.02311 -0.424498,4.676 -2.85077,4.676 -1.7582,-0.06032 -3.01367,-0.907927 -3.01367,-2.56569 0,-1.95001 0.659665,-2.85485 1.50684,-3.5357 0.68011,-0.307668 0.823442,-0.517381 0.814504,-1.50684 -0.01,-1.09344 -0.158695,-0.969381 -2.32134,-2.72859 -3.30198,-2.68601 -3.72549,-3.33205 -4.11325,-6.02734 -0.285988,-1.98783 -0.07497,-1.51597 -0.895956,-2.28062 -1.51106,-1.40738 -1.26941,-3.51127 0.529428,-4.39833 1.62051,-0.799126 3.56198,0.05396 4.15398,1.83264 0.291775,0.876652 -0.445387,2.40751 -1.38466,2.93222 -0.859529,0.48017 -1.21469,-0.303897 -1.01813,1.46611 0.108796,0.979651 0.395652,2.08689 0.610879,2.48424 0.369649,0.682437 4.00459,3.90963 4.39833,3.90963 v -18.978 l -2.0363,1.0001 v -1.00008 c 0.92812,-1.50915 1.82954,-3.043 2.7286,-4.56123 z "/>
<path style="fill:#fff" id="rect5391" d="m 23.6781,2.4585 2.8915,4.5612 -1.9548,0 0,12.8285 c 0.271249,0 2.93332,-2.52659 3.82818,-3.66528 0.386632,-0.491974 0.61088,-1.17349 0.61088,-1.83264 0,-0.994156 0.361191,-1.22176 -0.447977,-1.22176 h -0.895957 v -4.64268 h 4.88703 v 4.64268 h -0.77378 c -0.705099,0.07735 -1.21082,0.445213 -1.34393,1.54756 -0.198521,1.64401 -0.940909,2.72318 -3.706,5.33501 l -2.1584,2.1584 v 7.81925 l .6109,.3258 c 0.434631,0.19662 1.04696,0.845476 1.34393,1.42538 1.0584,2.06673 -0.424498,4.27616 -2.85077,4.27616 -1.7582,-0.06032 -3.01367,-0.907927 -3.01367,-2.56569 0,-1.95001 0.659665,-2.455 1.50684,-3.13585 0.68011,-0.307668 0.823442,-0.517381 0.814504,-1.50684 -0.01,-1.09344 -0.158695,-0.969381 -2.32134,-2.72859 -3.30198,-2.68601 -3.72549,-3.33205 -4.11325,-6.02734 -0.285988,-1.98783 -0.07497,-1.51597 -0.895956,-2.28062 -1.51106,-1.40738 -1.26941,-3.51127 0.529428,-4.39833 1.62051,-0.799126 3.56198,0.05396 4.15398,1.83264 0.291775,0.876652 -0.445387,2.40751 -1.38466,2.93222 -0.859529,0.48017 -1.21469,-0.303897 -1.01813,1.46611 0.108796,0.979651 0.395652,2.08689 0.610879,2.48424 0.369649,0.682437 4.00459,3.90963 4.39833,3.90963 v -18.978 h -2.03627 c 0.92812,-1.50915 1.82954,-3.043 2.7286,-4.56123 z "/>
</g>
<path style="fill:#71b923" id="path4175" d="m 22.4155,2.1548 c -0.465714,-0.029275 -0.83569,-0.034117 -1.08466,-0.029472 -3.01892,0.056267 -5.70534,0.601993 -8.75823,1.79122 -4.92045,1.91671 -8.1155,4.32588 -10.095,7.56127 -0.886319,1.44866 -1.2722,2.48959 -1.42687,4.0781 -0.097929,1.00505 -0.053991,1.55544 0.130584,2.39719 0.664849,3.03206 3.12746,5.35217 6.19591,5.86562 2.96923,0.496829 5.32221,-0.48179 6.52965,-2.73251 0.437754,-0.81597 0.592794,-1.53412 0.577855,-2.47242 -0.03652,-2.29452 -1.35796,-4.14312 -3.47717,-4.91437 -0.648917,-0.23617 -1.65817,-0.367571 -2.32727,-0.248832 -1.83454,0.325551 -3.28155,1.82982 -2.9857,3.86478 0.250995,1.7265 2.11247,2.97479 3.84314,2.45756 0.691093,-0.206535 1.1187,-0.512896 0.990976,-1.24188 -0.130197,-0.742928 -0.586357,-0.948751 -1.54251,-0.773055 -0.376363,0.06917 -0.633476,-0.01811 -0.885187,-0.291759 -0.422288,-0.459172 -0.376439,-1.0842 0.137375,-1.49567 0.625452,-0.50086 1.707,-0.474584 2.6215,0.100496 0.905048,0.56913 1.47414,2.01716 1.2241,3.09393 -0.268415,1.15589 -1.03935,1.91034 -2.19987,2.18313 -0.387451,0.09107 -0.553016,0.09175 -1.43888,0.0082 -0.950214,-0.08969 -0.993216,-0.120625 -1.51128,-0.349322 -1.9434,-0.858011 -3.09892,-2.7875 -2.91745,-4.89805 0.114564,-1.33283 0.666339,-2.36567 1.81195,-3.30613 1.07689,-0.884058 2.40585,-1.25282 4.02987,-1.10307 2.01881,0.186158 3.61688,1.02557 4.94979,2.62937 1.0031,1.20699 1.75253,4.72013 1.94056,6.20207 l .0629,.4617 2.7908,1.6944 c 0.02521,-0.01913 0.01634,-0.215221 -0.0029,-0.351025 -0.07268,-0.513218 -0.01604,-3.85025 0.141773,-4.43237 0.229521,-0.846561 0.486334,-1.27634 0.959746,-1.66567 0.729888,-0.600233 1.58074,-0.80075 2.83411,-0.68675 1.66717,0.151592 3.02692,0.89173 4.17535,2.27763 0.257698,0.310978 0.795267,1.0371 1.21916,1.62026 0.423896,0.583148 0.858331,1.13833 0.941254,1.2089 0.232665,0.197968 3.45306,2.04319 3.49886,2.00503 0.02227,-0.01856 -0.05289,-0.250055 -0.198754,-0.509324 -0.570889,-1.01484 -1.01335,-2.27743 -1.13857,-3.26146 -0.08565,-0.673199 0.02763,-1.65456 0.261259,-2.08059 0.218721,-0.398884 0.635544,-0.696403 1.0538,-0.78012 0.44801,-0.08969 1.41416,-0.0159 2.67828,0.245999 1.51612,0.314098 2.34392,0.432615 3.36116,0.449027 2.31661,0.03739 3.86161,-0.217052 5.62349,-0.886541 0.92079,-0.349899 1.1165,-0.500402 1.35442,-0.99804 0.226819,-0.47448 0.352824,-0.914657 0.260174,-0.923166 -0.03278,-0.0031 -0.36042,0.08272 -0.721215,0.214368 -1.35383,0.493971 -2.46645,0.668574 -3.45062,0.524895 -1.02311,-0.149355 -2.67653,-0.855198 -4.58671,-1.99972 l -.8628,-.5351 -.5675,-1.841 .6542,.516 c 1.07149,0.862533 2.82705,1.93539 3.91908,2.3944 1.66834,0.701217 3.02625,0.743169 4.47458,0.165455 0.510492,-0.203621 1.50758,-0.756128 1.51555,-0.842935 0.01502,-0.163643 -0.332307,-1.79309 -0.538355,-2.53989 -0.515223,-1.86756 -0.919301,-2.49096 -1.99249,-3.12944 -1.19146,-0.708849 -2.52891,-1.26546 -5.00091,-2.07284 -1.1836,-0.367187 -2.38041,-0.731037 -3.5915,-0.996328 l -.1721,1.4926 c -2.77278,-1.14982 -5.20261,-1.97877 -7.94148,-2.51831 -0.707749,-0.139424 -2.29467,-0.31689 -3.74698,-0.449386 -0.564781,-0.0515293 -1.1343,-0.117688 -1.60002,-0.14696 Z  m 20.2059,4.9426 c 0.922299,0.08235 1.77316,0.630827 2.20906,1.5358 0.74325,1.54312 -0.164117,3.38983 -1.85667,3.7931 -1.117,0.266134 -2.36236,-0.30713 -2.93027,-1.32143 -0.466124,-0.832487 -0.469311,-1.8539 -0.000676,-2.66587 0.266276,-0.461373 0.84795,-0.963818 1.29763,-1.14357 0.424286,-0.169625 0.861701,-0.235466 1.28093,-0.198034 z  m -.0703,.7652 c -0.432953,-0.030567 -0.897524,0.104454 -1.3001,0.406732 -0.614668,0.461488 -0.8779,1.37965 -0.615472,2.11821 0.215449,0.606372 0.672259,1.05117 1.2575,1.20287 0.829892,0.215127 1.6555,-0.09728 2.07208,-0.791821 0.284964,-0.475124 0.3721,-0.826217 0.295318,-1.30578 -0.152792,-0.951853 -0.883165,-1.57187 -1.70969,-1.63015 Z  m .3279,1.0122 c 0.320323,0.029422 0.699515,0.255917 0.730082,0.452897 0.04152,0.26768 -0.06672,0.459286 -0.332575,0.565751 -0.410536,0.164404 -0.90019,0.057134 -1.16983,-0.247754 -0.332436,-0.375907 0.114042,-0.831358 0.772329,-0.770895 z "/>
</g>
</svg>
