<svg width="48" version="1.1" xmlns="http://www.w3.org/2000/svg" height="48" xmlns:xlink="http://www.w3.org/1999/xlink">
<defs id="defs4">
<linearGradient id="linearGradient4214">
<stop offset="0" style="stop-color:#646464" id="stop4216"/>
<stop offset="1" style="stop-color:#282828" id="stop4218"/>
</linearGradient>
<linearGradient xlink:href="#linearGradient4214" id="linearGradient4220" y1="72.062553" x1="77.093697" y2="76.9375" x2="71.656197" gradientUnits="userSpaceOnUse"/>
</defs>
<g id="layer1" transform="translate(0,-1004.3622)">
<g style="stroke:none" id="g5174" transform="translate(-4.4999951,-5.6271)">
<path style="fill:#3498db" id="rect3261" d="m 4.5,1009.9893 0,36.7458 39,0 0,-4.8994 0,-31.8464 -39,0 z  m 5.2,4.8994 28.6,0 0,19.5978 -10.4,-14.6983 -7.282,10.2869 -1.818,-2.9377 -9.1,14.6983 0,-26.947 z "/>
</g>
<g id="g3340" transform="matrix(0.67719863,0,0,0.67719863,-4.9994969,998.3934)">
<g style="font-family:Sans;text-align:start;fill-rule:evenodd;stroke:none;line-height:normal;color:#000;text-indent:0;text-transform:none" id="g4489">
<path style="opacity:.3;fill:#1e1e1e" id="path4233" d="m 38.211,18.4129 c -5.00431,-0.02434 -9.99184,2.02981 -13.6205,5.56913 -3.62866,3.53932 -5.81078,8.48932 -5.95101,13.525 -0.14023,5.0357 1.77529,10.0331 5.21907,13.6205 l .0636,.0318 c 3.4411,3.55668 8.28949,5.64037 13.2704,5.6646 2.77014,0.01347 5.51915,-0.654279 8.05136,-1.81394 0.09747,-0.01289 0.187078,-0.02103 0.286412,-0.03182 2.15482,-0.234167 4.70954,0.02358 6.84207,1.78212 -0.344214,0.512738 -0.312908,1.25992 0.127294,1.71847 l 19.9852,20.8126 c 0.503088,0.524059 1.3576,0.539002 1.87759,0.03182 l 3.5006,-3.4051 c 0.519992,-0.507181 0.534911,-1.38536 0.03182,-1.90941 l -19.9852,-20.8126 c -0.451542,-0.470365 -1.19589,-0.518569 -1.71847,-0.159118 -1.66695,-2.22051 -1.857,-4.7817 -1.55936,-6.93754 0.0096,-0.06945 0.02144,-0.12303 0.03182,-0.190941 1.27095,-2.54759 2.02128,-5.33896 2.10036,-8.17866 0.139817,-5.02069 -1.76289,-10.0037 -5.18724,-13.5887 l -.0318,-.0318 c -3.44377,-3.58739 -8.32977,-5.67209 -13.3341,-5.69642 z  m 0,2.0367 c 4.44104,0.0216 8.8225,1.91698 11.8702,5.09177 3.0477,3.17479 4.77104,7.64324 4.64624,12.1248 v 0.03182 c -0.133147,4.47105 -2.11633,8.94246 -5.34636,12.093 -3.23762,3.15791 -7.74739,5.0179 -12.1884,4.9963 -4.44104,-0.0216 -8.8225,-1.91698 -11.8702,-5.09177 -3.0477,-3.17479 -4.77104,-7.64324 -4.64624,-12.1248 v -0.03181 c 0.133126,-4.47107 2.11632,-8.94244 5.34636,-12.093 3.23762,-3.15791 7.74739,-5.0179 12.1884,-4.9963 z "/>
<path style="fill:url(#linearGradient4220)" id="path4249" d="m 54.4375,40.0625 c 0,0 -0.268359,0.548729 -0.59375,1.40625 -0.886627,2.2886 -1.65461,4.09275 -4.6875,6.8125 -2.80986,2.51974 -5.99061,3.59964 -7.53125,4.0625 -0.03253,0.0091 -0.09343,0.02218 -0.125,0.03125 -0.359888,0.106019 -1.21875,0.4375 -1.21875,0.4375 -0.0049,0.0021 -0.09375,0.03125 -0.09375,0.03125 l .3125,.9375 c 0,0 0.09145,-0.0307 0.09375,-0.03125 0,0 0.462998,-0.192206 1.21875,-0.40625 0.0085,-0.0025 0.02263,0.0025 0.03125,0 2.14945,-0.605229 6.63126,-1.35775 9.9375,1.46875 -0.35838,0.480645 -0.338832,1.17642 0.09375,1.625 l 19.7812,20.5 c 0.494376,0.51266 1.34479,0.569207 1.875,0.09375 l 3.5,-3.1562 c 0.530208,-0.475456 0.556872,-1.29984 0.0625,-1.8125 l -19.7812,-20.5 c -0.443037,-0.459422 -1.13333,-0.519776 -1.65625,-0.1875 -1.77392,-2.2126 -1.95407,-4.73748 -1.625,-6.84375 0.177493,-1.13608 0.50601,-2.10206 0.78125,-2.8125 0.280923,-0.725104 0.5,-1.1875 0.5,-1.1875 0.0092,-0.0232 0.02201,-0.03919 0.03125,-0.0625 l -.9062,-.4062 z "/>
</g>
<path style="fill:none;stroke:#464646;stroke-width:4.093" id="path2420" d="m 55.7327,36.5788 a 17.8153,18.4894 85 0,1 -36.9393,-1.19433 17.8153,18.4894 85 1,1 36.9393,1.19433 Z "/>
<g style="fill:#fff;fill-rule:evenodd;stroke:none" id="g4494">
<path style="opacity:.8" id="path3874" d="m 28.3852,50.0028 c 8.00082,4.74211 18.4714,2.30491 23.3703,-5.44043 4.89892,-7.74535 2.38071,-17.881 -5.62011,-22.6231 -8.00083,-4.74211 -18.4714,-2.30491 -23.3703,5.44043 -4.89892,7.74534 -2.38071,17.881 5.62011,22.6231 z  m .4704,-.4154 c -1.15537,-0.677762 -2.25159,-1.50823 -3.23973,-2.48653 -6.32408,-6.26111 -6.21018,-16.3058 0.257721,-22.4277 6.4679,-6.1219 16.8444,-6.01163 23.1685,0.249481 4.64886,4.60257 5.96428,11.4815 3.32508,17.3898 l -9.5635,-4.0058 c -0.110894,0.246329 -0.233087,0.48787 -0.382124,0.723502 -0.263547,0.416675 -0.585269,0.783492 -0.929522,1.11155 l 7.2923,7.2087 c -5.45729,5.16535 -13.6897,5.89696 -19.9287,2.23705 z "/>
<path style="opacity:.8" id="path3099" d="m 47.4568,22.868 c -7.50217,-5.49711 -18.16,-4.08886 -23.7883,3.14381 -5.62835,7.23267 -4.10694,17.5651 3.39523,23.0622 7.50218,5.49711 18.16,4.08886 23.7883,-3.14381 5.62835,-7.23266 4.10694,-17.5651 -3.39524,-23.0622 z  m -.5085,.3678 c 1.08405,0.786822 2.09438,1.71988 2.98278,2.78957 5.68577,6.84599 4.59636,16.8321 -2.4358,22.2966 -7.03215,5.46444 -17.3488,4.34642 -23.0346,-2.49957 -4.17963,-5.03252 -4.8204,-12.0067 -1.61958,-17.6306 l 9.129,4.9162 c 0.13433,-0.234373 0.279388,-0.462913 0.450617,-0.682948 0.30279,-0.389093 0.658631,-0.722914 1.03313,-1.01597 l -6.5574,-7.8832 c 5.93338,-4.61063 14.1979,-4.53883 20.0518,-0.290001 z "/>
<path style="opacity:.7" id="path3869" d="m 42.3503,20.1675 c -8.93152,-2.59397 -18.4618,2.38066 -21.2714,11.104 -2.80961,8.7233 2.15984,17.909 11.0914,20.503 8.93153,2.59397 18.4618,-2.38066 21.2714,-11.104 2.80961,-8.72329 -2.15984,-17.909 -11.0914,-20.503 z  m -.3517,.5197 c 1.28802,0.367775 2.55688,0.898202 3.75801,1.59876 7.68722,4.48355 10.0852,14.2385 5.35095,21.7816 -4.73427,7.54307 -14.8096,10.0274 -22.4968,5.54389 -5.65091,-3.29588 -8.6424,-9.62837 -7.56221,-16.0086 l 10.2608,1.4908 c 0.04587,-0.266217 0.10388,-0.530619 0.189332,-0.796007 0.15115,-0.469285 0.37108,-0.90482 0.622506,-1.30845 l -8.8614,-5.1593 c 3.99454,-6.36447 11.7835,-9.12865 18.7388,-7.14265 z "/>
</g>
</g>
</g>
</svg>
