<svg width="48" version="1.1" xmlns="http://www.w3.org/2000/svg" height="48" xmlns:xlink="http://www.w3.org/1999/xlink">
<defs>
<linearGradient id="linearGradient9168">
<stop offset="0" style="stop-color:#ebebeb"/>
<stop offset="0.49" style="stop-color:#ebebeb"/>
<stop offset="0.51" style="stop-color:#c7c7c7"/>
<stop offset="1" style="stop-color:#c7c7c7"/>
</linearGradient>
<linearGradient gradientTransform="matrix(0,1,1,0,0.737967,12.4)" xlink:href="#linearGradient9168" id="linearGradient9170" y1="38.968283" x1="16.819268" y2="38.968283" x2="31.180932" gradientUnits="userSpaceOnUse"/>
</defs>
<path style="fill:#335410" d="m 22.4155,2.8546 c -0.465714,-0.029275 -0.83569,-0.034117 -1.08466,-0.029472 -3.01892,0.056267 -5.70534,0.601993 -8.75823,1.79122 -4.92045,1.91671 -8.1155,4.32588 -10.095,7.56127 -0.886319,1.44866 -1.2722,2.48959 -1.42687,4.0781 -0.097929,1.00505 -0.053991,1.55544 0.130584,2.39719 0.664849,3.03206 3.12746,5.35217 6.19591,5.86562 2.96923,0.496829 5.32221,-0.48179 6.52965,-2.73251 0.437754,-0.81597 0.592794,-1.53412 0.577855,-2.47242 -0.03652,-2.29452 -1.35796,-4.14312 -3.47717,-4.91437 -0.648917,-0.23617 -1.65817,-0.367571 -2.32727,-0.248832 -1.83454,0.325551 -3.28155,1.82982 -2.9857,3.86478 0.250995,1.7265 2.11247,2.97479 3.84314,2.45756 0.691093,-0.206535 1.1187,-0.512896 0.990976,-1.24188 -0.130197,-0.742928 -0.586357,-0.948751 -1.54251,-0.773055 -0.376363,0.06917 -0.633476,-0.01811 -0.885187,-0.291759 -0.422288,-0.459172 -0.376439,-1.0842 0.137375,-1.49567 0.625452,-0.50086 1.707,-0.474584 2.6215,0.100496 0.905048,0.56913 1.47414,2.01716 1.2241,3.09393 -0.268415,1.15589 -1.03935,1.91034 -2.19987,2.18313 -0.387451,0.09107 -0.553016,0.09175 -1.43888,0.0082 -0.950214,-0.08969 -0.993216,-0.120625 -1.51128,-0.349322 -1.9434,-0.858011 -3.09892,-2.7875 -2.91745,-4.89805 0.114564,-1.33283 0.666339,-2.36567 1.81195,-3.30613 1.07689,-0.884058 2.40585,-1.25282 4.02987,-1.10307 2.01881,0.186158 3.61688,1.02557 4.94979,2.62937 1.0031,1.20699 1.75253,4.72013 1.94056,6.20207 l .0629,.4617 2.7908,1.6944 c 0.02521,-0.01913 0.01634,-0.215221 -0.0029,-0.351025 -0.07268,-0.513218 -0.01604,-3.85025 0.141773,-4.43237 0.229521,-0.846561 0.486334,-1.27634 0.959746,-1.66567 0.729888,-0.600233 1.58074,-0.80075 2.83411,-0.68675 1.66717,0.151592 3.02692,0.89173 4.17535,2.27763 0.257698,0.310978 0.795267,1.0371 1.21916,1.62026 0.423896,0.583148 0.858331,1.13833 0.941254,1.2089 0.232665,0.197968 3.45306,2.04319 3.49886,2.00503 0.02227,-0.01856 -0.05289,-0.250055 -0.198754,-0.509324 -0.570889,-1.01484 -1.01335,-2.27743 -1.13857,-3.26146 -0.08565,-0.673199 0.02763,-1.65456 0.261259,-2.08059 0.218721,-0.398884 0.635544,-0.696403 1.0538,-0.78012 0.44801,-0.08969 1.41416,-0.0159 2.67828,0.246 1.51612,0.314098 2.34392,0.432615 3.36116,0.449027 2.31661,0.03739 3.86161,-0.217052 5.62349,-0.886541 0.92079,-0.349899 1.1165,-0.500402 1.35442,-0.99804 0.226819,-0.47448 0.352824,-0.914657 0.260174,-0.923166 -0.03278,-0.0031 -0.36042,0.08272 -0.721215,0.214368 -1.35383,0.493971 -2.46645,0.168335 -3.45062,0.02466 -1.02311,-0.149355 -2.67653,-0.855198 -4.58671,-2 l -.8628,-.5351 -.5675,-1.841 .6542,.516 c 1.07149,0.862533 2.82705,1.93539 3.91908,2.3944 1.66834,0.701217 3.02625,0.743169 4.47458,0.165455 0.510492,-0.203621 1.50758,-0.756128 1.51555,-0.842935 0.01502,-0.163643 -0.332307,-1.89289 -0.538355,-2.6397 -0.515223,-1.86757 -0.919301,-2.49097 -1.99249,-3.12945 -1.19146,-0.708849 -2.52891,-0.665414 -5,-1.47279 -1.1836,-0.367187 -2.38041,-0.731037 -3.5915,-0.996328 l -.1721,1.4926 c -2.77278,-1.14982 -5.20261,-1.97877 -7.94148,-2.51831 -0.707749,-0.139424 -2.29467,-0.31689 -3.74698,-0.449386 -0.564781,-0.051529 -1.1343,-0.117688 -1.6,-0.146961 z  m 20.2059,4.3426 c 0.922299,0.08235 1.77316,0.630827 2.20906,1.5358 0.74325,1.54312 -0.164117,3.38983 -1.85667,3.7931 -1.117,0.266134 -2.36236,-0.30713 -2.93027,-1.32143 -0.466124,-0.832487 -0.469311,-1.8539 0,-2.66587 0.266276,-0.461374 0.84795,-0.963818 1.29763,-1.14357 0.424286,-0.169625 0.861701,-0.235466 1.28093,-0.198028 z  m -.0703,.7652 c -0.432953,-0.030567 -0.897524,0.104454 -1.3001,0.406732 -0.614668,0.461488 -0.8779,1.37965 -0.615472,2.11821 0.215449,0.606372 0.672259,1.05117 1.2575,1.20287 0.829892,0.215127 1.6555,-0.09728 2.07208,-0.791821 0.284964,-0.475124 0.3721,-0.826217 0.295318,-1.30578 -0.152793,-0.95186 -0.883166,-1.57188 -1.70969,-1.63015 z  m .3279,1.0122 c 0.320323,0.029422 0.699515,0.255917 0.730082,0.452897 0.04152,0.26768 -0.06672,0.459286 -0.332575,0.565752 -0.410536,0.164404 -0.90019,0.05713 -1.16983,-0.247755 -0.332301,-0.376059 0.114177,-0.831511 0.772462,-0.771046 Z "/>
<path style="fill:#71b923" d="m 22.4155,2.1548 c -0.465714,-0.029275 -0.83569,-0.034117 -1.08466,-0.029472 -3.01892,0.056267 -5.70534,0.601993 -8.75823,1.79122 -4.92045,1.91671 -8.1155,4.32588 -10.095,7.56127 -0.886319,1.44866 -1.2722,2.48959 -1.42687,4.0781 -0.097929,1.00505 -0.053991,1.55544 0.130584,2.39719 0.664849,3.03206 3.12746,5.35217 6.19591,5.86562 2.96923,0.496829 5.32221,-0.48179 6.52965,-2.73251 0.437754,-0.81597 0.592794,-1.53412 0.577855,-2.47242 -0.03652,-2.29452 -1.35796,-4.14312 -3.47717,-4.91437 -0.648917,-0.23617 -1.65817,-0.367571 -2.32727,-0.248832 -1.83454,0.325551 -3.28155,1.82982 -2.9857,3.86478 0.250995,1.7265 2.11247,2.97479 3.84314,2.45756 0.691093,-0.206535 1.1187,-0.512896 0.990976,-1.24188 -0.130197,-0.742928 -0.586357,-0.948751 -1.54251,-0.773055 -0.376363,0.06917 -0.633476,-0.01811 -0.885187,-0.291759 -0.422288,-0.459172 -0.376439,-1.0842 0.137375,-1.49567 0.625452,-0.50086 1.707,-0.474584 2.6215,0.100496 0.905048,0.56913 1.47414,2.01716 1.2241,3.09393 -0.268415,1.15589 -1.03935,1.91034 -2.19987,2.18313 -0.387451,0.09107 -0.553016,0.09175 -1.43888,0.0082 -0.950214,-0.08969 -0.993216,-0.120625 -1.51128,-0.349322 -1.9434,-0.858011 -3.09892,-2.7875 -2.91745,-4.89805 0.114564,-1.33283 0.666339,-2.36567 1.81195,-3.30613 1.07689,-0.884058 2.40585,-1.25282 4.02987,-1.10307 2.01881,0.186158 3.61688,1.02557 4.94979,2.62937 1.0031,1.20699 1.75253,4.72013 1.94056,6.20207 l .0629,.4617 2.7908,1.6944 c 0.02521,-0.01913 0.01634,-0.215221 -0.0029,-0.351025 -0.07268,-0.513218 -0.01604,-3.85025 0.141773,-4.43237 0.229521,-0.846561 0.486334,-1.27634 0.959746,-1.66567 0.729888,-0.600233 1.58074,-0.80075 2.83411,-0.68675 1.66717,0.151592 3.02692,0.89173 4.17535,2.27763 0.257698,0.310978 0.795267,1.0371 1.21916,1.62026 0.423896,0.583148 0.858331,1.13833 0.941254,1.2089 0.232665,0.197968 3.45306,2.04319 3.49886,2.00503 0.02227,-0.01856 -0.05289,-0.250055 -0.198754,-0.509324 -0.570889,-1.01484 -1.01335,-2.27743 -1.13857,-3.26146 -0.08565,-0.673199 0.02763,-1.65456 0.261259,-2.08059 0.218721,-0.398884 0.635544,-0.696403 1.0538,-0.78012 0.44801,-0.08969 1.41416,-0.0159 2.67828,0.246 1.51612,0.314098 2.34392,0.432615 3.36116,0.449027 2.31661,0.03739 3.86161,-0.217052 5.62349,-0.886541 0.92079,-0.349899 1.1165,-0.500402 1.35442,-0.99804 0.226819,-0.47448 0.352824,-0.914657 0.260174,-0.923166 -0.03278,-0.0031 -0.36042,0.08272 -0.721215,0.214368 -1.35383,0.493971 -2.46645,0.668574 -3.45062,0.524895 -1.02311,-0.149355 -2.67653,-0.855198 -4.58671,-2 l -.8628,-.5351 -.5675,-1.841 .6542,.516 c 1.07149,0.862533 2.82705,1.93539 3.91908,2.3944 1.66834,0.701217 3.02625,0.743169 4.47458,0.165455 0.510492,-0.203621 1.50758,-0.756128 1.51555,-0.842935 0.01502,-0.163643 -0.332307,-1.79309 -0.538355,-2.53989 -0.515223,-1.86756 -0.919301,-2.49096 -1.99249,-3.12944 -1.19146,-0.708849 -2.52891,-1.26546 -5,-2.07284 -1.1836,-0.367187 -2.38041,-0.731037 -3.5915,-0.996328 l -.1721,1.4926 c -2.77278,-1.14982 -5.20261,-1.97877 -7.94148,-2.51831 -0.707749,-0.139424 -2.29467,-0.31689 -3.74698,-0.449386 -0.564781,-0.051529 -1.1343,-0.117688 -1.6,-0.14696 z  m 20.2059,4.9426 c 0.922299,0.08235 1.77316,0.630827 2.20906,1.5358 0.74325,1.54312 -0.164117,3.38983 -1.85667,3.7931 -1.117,0.266134 -2.36236,-0.30713 -2.93027,-1.32143 -0.466124,-0.832487 -0.469311,-1.8539 0,-2.66587 0.266276,-0.461373 0.84795,-0.963818 1.29763,-1.14357 0.424286,-0.169625 0.861701,-0.235466 1.28093,-0.198034 z  m -.0703,.7652 c -0.432953,-0.030567 -0.897524,0.104454 -1.3001,0.406732 -0.614668,0.461488 -0.8779,1.37965 -0.615472,2.11821 0.215449,0.606372 0.672259,1.05117 1.2575,1.20287 0.829892,0.215127 1.6555,-0.09728 2.07208,-0.791821 0.284964,-0.475124 0.3721,-0.826217 0.295318,-1.30578 -0.152792,-0.951853 -0.883165,-1.57187 -1.70969,-1.63015 z  m .3279,1.0122 c 0.320323,0.029422 0.699515,0.255917 0.730082,0.452897 0.04152,0.26768 -0.06672,0.459286 -0.332575,0.565751 -0.410536,0.164404 -0.90019,0.057134 -1.16983,-0.247754 -0.332436,-0.375907 0.114042,-0.831358 0.772329,-0.770895 z "/>
<path style="fill:#5a5a5a" d="m 32.0125,29.7963 c 0,-0.321837 0.254696,-0.577032 0.577032,-0.577032 h 14.8335 c 0.322336,0 0.577033,0.255195 0.577033,0.577032 v 13.5067 c 0,0.413114 -0.425317,0.877466 -0.877033,0.877466 h -14.5335 c -0.322336,0 -0.577032,-0.255195 -0.577032,-0.577032 z "/>
<path style="fill:#64430e" d="m 40.4847,30.4 v 12 h 6.11486 v -12 z "/>
<path style="fill:url(#linearGradient9170)" d="m 32.012467,29.7963 c 0,-0.321837 0.254696,-0.577032 0.577032,-0.577032 h 14.2335 c 0.322336,0 0.577033,0.255195 0.577033,0.577032 v 13.2076 c 0,0.321837 -0.254697,0.577032 -0.577033,0.577032 h -14.2335 c -0.322336,0 -0.577032,-0.255195 -0.577032,-0.577032 z m 9.7255,1.6037 v 4 h 3 v -4 z m 0,6 v 4 h 3 v -4 z"/>
<path style="fill:#69470f" d="m 1.738,29.4 v 14.6 c 0,2.216 1.784,4 4,4 h 29.229 c 2.216,0 4.3002,-2.084 4.30013,-4.3 v -14.3 c 0,-2.216 -1.784,-4 -4,-4 h -29.5291 c -2.216,0 -4,1.784 -4,4 z "/>
<path style="fill:#e09924" d="m 1.738,29.4 v 14 c 0,2.216 1.784,4 4,4 h 28.929 c 2.216,0 4,-1.784 4,-4 v -14 c 0,-2.216 -1.784,-4 -4,-4 h -28.929 c -2.216,0 -4,1.784 -4,4 z "/>
<path style="opacity:.35" d="m 3.4389,36.2318 4.3188,1.7381 v -1.9548 h 12.8285 c 0,0.271249 -2.52659,2.93332 -3.66528,3.82818 -0.491974,0.386632 -1.17349,0.61088 -1.83264,0.61088 -0.994156,0 -1.22176,0.361191 -1.22176,-0.447977 v -0.895957 h -4.64268 v 4.88703 h 4.64268 v -0.77378 c 0.07735,-0.705099 0.445213,-1.21082 1.54756,-1.34393 1.64401,-0.198521 2.72318,-0.940909 5.33501,-3.706 l 2.1584,-2.1584 h 7.81925 l .3258,.6109 c 0.19662,0.434631 2.05226,1.4251 2.63216,1.72207 1.62758,-0.383378 3.32598,0.43211 3.06938,-3.22891 -0.06032,-1.7582 -0.907927,-3.01367 -2.56569,-3.01367 -1.95001,0 -2.455,0.659665 -3.13585,1.50684 -0.307668,0.68011 -0.517381,0.823442 -1.50684,0.814504 -1.09344,-0.01 -0.969381,-0.158695 -2.72859,-2.32134 -2.68601,-3.30198 -3.33205,-3.72549 -6.02734,-4.11325 -1.98783,-0.285988 -1.51597,-0.07497 -2.28062,-0.895956 -1.40738,-1.51106 -3.51127,-1.26941 -4.39833,0.529428 -0.799126,1.62051 -0.588458,3.79825 1.19022,4.39025 0.876652,0.291775 3.04993,-0.681658 3.57464,-1.62093 0.48017,-0.859529 -0.303897,-1.21469 1.46611,-1.01813 0.979651,0.108796 2.08689,0.395652 2.48424,0.610879 0.682437,0.369649 3.90963,4.00459 3.90963,4.39833 h -18.978 v -2.03627 l -5.3771,3.2027 z "/>
<path style="fill:#fff" d="m 3.1965,36.0781 4.5612,2.8915 v -1.9548 h 12.8285 c 0,0.271249 -2.52659,2.93332 -3.66528,3.82818 -0.491974,0.386632 -1.17349,0.61088 -1.83264,0.61088 -0.994156,0 -1.22176,0.361191 -1.22176,-0.447977 v -0.895957 h -4.64268 v 4.88703 h 4.64268 v -0.77378 c 0.07735,-0.705099 0.445213,-1.21082 1.54756,-1.34393 1.64401,-0.198521 2.72318,-0.940909 5.33501,-3.706 l 2.1584,-2.1584 h 7.81925 l .3258,.6109 c 0.19662,0.434631 0.845476,1.04696 1.42538,1.34393 2.06673,1.0584 4.27616,-0.424498 4.27616,-2.85077 -0.06032,-1.7582 -0.907927,-3.01367 -2.56569,-3.01367 -1.95001,0 -2.455,0.659665 -3.13585,1.50684 -0.307668,0.68011 -0.517381,0.823442 -1.50684,0.814504 -1.09344,-0.01 -0.969381,-0.158695 -2.72859,-2.32134 -2.68601,-3.30198 -3.33205,-3.72549 -6.02734,-4.11325 -1.98783,-0.285988 -1.51597,-0.07497 -2.28062,-0.895956 -1.40738,-1.51106 -3.51127,-1.26941 -4.39833,0.529428 -0.799126,1.62051 0.05396,3.56198 1.83264,4.15398 0.876652,0.291775 2.40751,-0.445387 2.93222,-1.38466 0.48017,-0.859529 -0.303897,-1.21469 1.46611,-1.01813 0.979651,0.108796 2.08689,0.395652 2.48424,0.610879 0.682437,0.369649 3.90963,4.00459 3.90963,4.39833 h -18.978 v -2.03627 c -1.50915,0.92812 -3.043,1.82954 -4.56123,2.7286 z "/>
</svg>
