<svg width="48" version="1.1" xmlns="http://www.w3.org/2000/svg" height="48" xmlns:xlink="http://www.w3.org/1999/xlink">
<defs>
<linearGradient id="linearGradient9168">
<stop offset="0" style="stop-color:#ebebeb"/>
<stop offset="0.49" style="stop-color:#ebebeb"/>
<stop offset="0.51" style="stop-color:#c7c7c7"/>
<stop offset="1" style="stop-color:#c7c7c7"/>
</linearGradient>
<linearGradient id="linearGradient10">
<stop offset="0" style="stop-color:#e8a945"/>
<stop offset="1" style="stop-color:#bf7f17"/>
</linearGradient>
<linearGradient gradientTransform="matrix(0,1,1,0,0.737967,11.9)" xlink:href="#linearGradient10" id="linearGradient11" y1="33.929001" x1="12.5" y2="33.929001" x2="35.5" gradientUnits="userSpaceOnUse"/>
<linearGradient gradientTransform="matrix(0,1,1,0,0.737967,11.9)" xlink:href="#linearGradient9168" id="linearGradient9170-2" y1="38.968283" x1="16.819268" y2="38.968283" x2="31.180932" gradientUnits="userSpaceOnUse"/>
</defs>
<path style="fill:#335410" d="m 13.0285,4.1176 c -4.99883,1.70185 -8.2952,3.97041 -10.4129,7.11705 -0.948216,1.40892 -1.37881,2.43217 -1.60212,4.01249 -0.141357,1 -0.121293,1.55164 0.02666,2.4006 0.532934,3.05801 2.89277,5.48257 5.93611,6.12841 2.94493,0.624934 5.33808,-0.25088 6.64185,-2.44721 0.472676,-0.796249 0.658668,-1.50701 0.684372,-2.44508 0.06287,-2.29395 -1.17728,-4.19804 -3.26111,-5.06033 -0.638082,-0.264048 -1.6407,-0.439027 -2.31431,-0.349372 -1.84692,0.245807 -3.35771,1.68601 -3.15025,3.73187 0.176,1.73575 1.98168,3.06347 3.73312,2.62167 0.699388,-0.176416 0.980889,-0.640379 1.04382,-1.1978 l .0418,-.446 c -0.379003,0.052808 -2.18149,-0.438669 -2.42111,-0.722961 -0.402009,-0.477027 -0.329139,-1.09948 0.20201,-1.48832 0.646553,-0.473308 1.72595,-0.400224 2.61469,0.213916 0.879555,0.607785 1.38541,2.0791 1.08898,3.14403 -0.318215,1.14318 -1.1211,1.86354 -2.29234,2.08582 -0.391031,0.07421 -0.55647,0.06772 -1.43789,-0.05411 -0.945439,-0.130754 -0.987061,-0.163522 -1.49474,-0.414438 -1.90442,-0.941357 -2.97531,-2.91907 -2.70262,-5.01979 0.17217,-1.32662 0.76815,-2.3346 1.95341,-3.22457 1.11416,-0.836598 2.45784,-1.14747 4.07385,-0.927537 2.00886,0.2734 3.56908,1.18122 4.83129,2.84123 0.949895,1.24929 1.5465,4.79159 1.67018,6.28028 l .0429,.464 2.7148,1.8137 .0303,-.6991 c -0.05039,-0.515883 0.132696,-3.49901 0.315567,-4.07375 0.265963,-0.835828 0.541145,-1.25408 1.03097,-1.62255 0.755194,-0.568065 1.61393,-0.731551 2.86119,-0.563385 1.65904,0.22364 2.98547,1.02196 4.07281,2.45629 0.243991,0.321845 0.749614,1.07056 1.14786,1.67153 0.398247,0.600956 0.808234,1.17443 0.888024,1.24852 0.223874,0.207857 3.40618,2.21421 3.40876,2.15465 l .0303,-.6991 c -0.52641,-1.03861 -1.1206,-2.13748 -1.20309,-3.12601 -0.05642,-0.676277 0.09925,-1.65181 0.351106,-2.06733 0.235788,-0.389039 0.665103,-0.66823 1.08659,-0.733758 0.451474,-0.07021 1.41352,0.04535 2.66512,0.361742 1.5011,0.379454 2.32299,0.533704 3.33856,0.594148 2.31282,0.137667 3.86739,-0.04964 5.6566,-0.642205 0.935077,-0.3097 1.13712,-0.451587 1.39637,-0.938456 0.247152,-0.464214 0.300504,-0.780597 0.3,-0.911034 l .0547,-.5965 c -1.37395,0.434885 -3.25596,0.84078 -4.23299,0.654624 -1.01568,-0.193516 -2.63699,-0.970292 -4.49581,-2.19673 l -.8518,-.2719 -.4786,-2.0636 .6312,.5438 c 1.03314,0.908121 2.74059,2.05599 3.81172,2.56185 1.63641,0.7728 2.99123,0.873512 4.46322,0.359054 0.51883,-0.181325 1.54685,-0.689428 1.55063,-0.776519 l .013,-.2996 c -0.564574,-1.92071 -0.827115,-4.71728 -2.2873,-5.67395 -1.15965,-0.759776 -2.49773,-0.774295 -4.93154,-1.68791 -1.16659,-0.418094 -1.77184,-0.694455 -2.97031,-1.01194 l -.8113,1.3447 z "/>
<circle cx="43.01897" cy="8.7836151" style="fill:#fff" r="3.1885" transform="rotate(2.4817513)"/>
<path style="fill:#71b923" d="m 22.9688,2.0846 c -0.46401,-0.0494135 -0.833429,-0.0702713 -1.08237,-0.0764115 -3.01853,-0.0745086 -5.72605,0.35438 -8.82758,1.4103 -4.99883,1.70185 -8.2952,3.97041 -10.4129,7.11705 -0.948216,1.40892 -1.37881,2.43217 -1.60212,4.01249 -0.141357,1 -0.121293,1.55164 0.02666,2.4006 0.532934,3.05801 2.89277,5.48257 5.93611,6.12841 2.94493,0.624935 5.33808,-0.25088 6.64185,-2.44721 0.472676,-0.796249 0.658668,-1.50701 0.684372,-2.44508 0.06287,-2.29395 -1.17728,-4.19804 -3.26111,-5.06033 -0.638082,-0.264048 -1.6407,-0.439027 -2.31431,-0.349373 -1.84692,0.245808 -3.35771,1.68601 -3.15025,3.73187 0.176,1.73575 1.98168,3.06347 3.73312,2.62167 0.699388,-0.176417 1.13986,-0.463974 1.04382,-1.1978 -0.09791,-0.747869 -0.544726,-0.973251 -1.50759,-0.839123 -0.379005,0.05281 -0.632098,-0.04552 -0.871723,-0.329815 -0.402009,-0.477027 -0.329139,-1.09948 0.202011,-1.48832 0.646553,-0.473308 1.72595,-0.400224 2.61469,0.213916 0.879555,0.607785 1.38541,2.0791 1.08898,3.14403 -0.318214,1.14318 -1.1211,1.86354 -2.29234,2.08582 -0.391031,0.07421 -0.805004,0.08688 -1.44079,0.01279 -0.635781,-0.074085 -0.984161,-0.230426 -1.49184,-0.481341 -1.90442,-0.941358 -2.97531,-2.91907 -2.70262,-5.01979 0.17217,-1.32662 0.76815,-2.3346 1.95341,-3.22457 1.11416,-0.836598 2.45784,-1.14747 4.07385,-0.927537 2.00886,0.2734 3.56908,1.18122 4.83129,2.84124 0.949895,1.24929 1.5465,4.79159 1.67018,6.28028 l .0429,.464 2.7148,1.8137 c 0.02602,-0.01802 0.02564,-0.214311 0.0123,-0.350821 -0.05039,-0.515884 0.150695,-3.84733 0.333566,-4.42207 0.265963,-0.835828 0.541145,-1.25408 1.03097,-1.62255 0.755194,-0.568065 1.61393,-0.731551 2.86119,-0.563385 1.65904,0.22364 2.98547,1.02196 4.07281,2.45629 0.243991,0.321845 0.749614,1.07056 1.14786,1.67153 0.398247,0.600956 0.808235,1.17443 0.888024,1.24852 0.223875,0.207857 3.36135,2.1908 3.40876,2.15465 0.02305,-0.01758 -0.04201,-0.25211 -0.176513,-0.517452 -0.52641,-1.03861 -0.913784,-2.31917 -0.996277,-3.3077 -0.05642,-0.676276 0.09925,-1.65181 0.351106,-2.06733 0.235788,-0.389039 0.665103,-0.66823 1.08659,-0.733758 0.451473,-0.07021 1.41352,0.04535 2.66512,0.361742 1.5011,0.379453 2.32299,0.533704 3.33856,0.594148 2.31282,0.137667 3.86739,-0.04964 5.6566,-0.642205 0.935078,-0.3097 1.13712,-0.451587 1.39637,-0.938456 0.247152,-0.464214 0.392099,-0.898522 0.3,-0.911035 -0.03261,-0.0045 -0.363663,0.06704 -0.729821,0.182938 -1.37395,0.434885 -2.49309,0.561147 -3.47011,0.374987 -1.01568,-0.193517 -2.63699,-0.970293 -4.4958,-2.19674 l -.8388,-.572 -.4873,-1.8638 .6312,.5438 c 1.03314,0.908121 2.74059,2.05599 3.81172,2.56185 1.63641,0.772801 2.99123,0.873512 4.46322,0.359055 0.51883,-0.181326 1.53891,-0.690139 1.55063,-0.77652 0.02209,-0.162839 -0.25435,-1.8058 -0.427867,-2.56082 -0.433873,-1.88812 -0.810578,-2.52843 -1.85511,-3.21278 -1.15965,-0.759776 -2.47174,-1.37378 -4.90555,-2.2874 -1.16659,-0.418094 -2.34652,-0.833426 -3.54499,-1.15091 l -.2366,1.4837 c -2.72039,-1.26881 -5.11205,-2.20219 -7.82499,-2.85982 -0.701048,-0.16994 -2.2788,-0.415955 -3.72401,-0.611213 -0.56202,-0.0759363 -1.12814,-0.166694 -1.59214,-0.216104 Z  m 19.9729,5.8129 c 0.917868,0.122209 1.74418,0.707015 2.14049,1.63001 0.675734,1.57386 -0.310747,3.37954 -2.01917,3.70915 -1.12748,0.217517 -2.34685,-0.409135 -2.8703,-1.44707 -0.429639,-0.85189 -0.388595,-1.87248 0.115436,-2.66337 0.286004,-0.44941 0.888889,-0.926197 1.34593,-1.08631 0.431233,-0.151094 0.871089,-0.197933 1.2883,-0.142383 z  m -.1052,.7616 c -0.431223,-0.049286 -0.901205,0.065492 -1.31649,0.350055 -0.634075,0.434439 -0.936817,1.34034 -0.706616,2.08957 0.18899,0.615132 0.626112,1.07929 1.20423,1.25619 0.819798,0.25086 1.65816,-0.0255 2.10442,-0.701355 0.30527,-0.462339 0.407527,-0.80933 0.351583,-1.29177 -0.111432,-0.957576 -0.814273,-1.60864 -1.6375,-1.70265 Z  m .2838,1.0254 c 0.318749,0.043265 0.687778,0.285967 0.709787,0.484085 0.02989,0.269227 -0.08655,0.455966 -0.356761,0.55082 -0.41727,0.146473 -0.90182,0.0181 -1.15801,-0.298177 -0.315847,-0.389949 0.149934,-0.82564 0.804985,-0.736729 z "/>
<path style="fill:#5a5a5a" d="m 32.0125,29.2963 c 0,-0.321837 0.254696,-0.577032 0.577032,-0.577032 h 14.8335 c 0.322336,0 0.577033,0.255195 0.577033,0.577032 v 13.5067 c 0,0.413114 -0.425317,0.877466 -0.877033,0.877466 h -14.5335 c -0.322336,0 -0.577032,-0.255195 -0.577032,-0.577032 z "/>
<path style="fill:#64430e" d="m 40.4847,29.9 v 12 h 6.11486 v -12 z "/>
<path style="fill:url(#linearGradient9170-2)" d="m 32.012467,29.2963 c 0,-0.321837 0.254696,-0.577032 0.577032,-0.577032 h 14.2335 c 0.322336,0 0.577033,0.255195 0.577033,0.577032 v 13.2076 c 0,0.321837 -0.254697,0.577032 -0.577033,0.577032 h -14.2335 c -0.322336,0 -0.577032,-0.255195 -0.577032,-0.577032 z m 9.7255,1.6037 v 4 h 3 v -4 z m 0,6 v 4 h 3 v -4 z"/>
<path style="fill:#69470f" d="m 1.738,28.4 v 15.6 c 0,2.216 1.784,4 4,4 h 29.229 c 2.216,0 4.3002,-2.084 4.30013,-4.3 v -15.3 c 0,-2.216 -1.784,-4 -4,-4 h -29.5291 c -2.216,0 -4,1.784 -4,4 z "/>
<path style="fill:url(#linearGradient11)" d="m 1.738,28.4 v 15 c 0,2.216 1.784,4 4,4 h 28.929 c 2.216,0 4,-1.784 4,-4 v -15 c 0,-2.216 -1.784,-4 -4,-4 h -28.929 c -2.216,0 -4,1.784 -4,4 z "/>
<path style="opacity:.35" d="m 3.197,34.6774 4.541,-3.0287 v 2.33733 h 18.998 c -1.72165,-2.34373 -3.35655,-4.81725 -6.39453,-5.00977 -0.429204,-0.04766 -0.703371,-0.06142 -0.886719,-0.04492 -0.18247,1.50398 -1.45765,2.63589 -2.97266,2.63867 -1.65685,0 -3,-1.34315 -3,-3 0,-1.65685 1.34315,-3 3,-3 1.18434,0.0012 2.25714,0.699041 2.73828,1.78125 0.229271,0.07832 0.611894,0.102348 1.57031,0.240235 2.69529,0.38776 3.34133,0.811301 6.02734,4.11328 1.75921,2.16265 1.63508,2.31227 2.72852,2.32227 0.392947,0.0035 0.659362,-0.02128 0.861328,-0.08984 0.462011,-1.45011 1.80816,-2.43544 3.33008,-2.4375 1.933,0 3.5,1.567 3.5,3.5 0,1.933 -1.567,3.5 -3.5,3.5 -1.69559,0 -3.14726,-1.21557 -3.44531,-2.88477 h -7.38477 l -2.1582,2.1582 c -2.61183,2.76509 -3.69193,3.62804 -5.33594,3.82656 -1.10235,0.13311 -1.46953,0.616901 -1.54688,1.322 v 0.675656 h -4.84375 v -4.88867 h 4.84375 v 0.796016 c 0,1.10086 2.1936,0.570261 3.05469,-0.06164 1.16758,-0.856822 3.66406,-3.55688 3.66406,-3.82812 h -12.8477 l -4.5409,-.0372 -.6341,-.4511 Z "/>
<path style="fill:#fff" d="m 3.197,35.5777 4.541,-3.0287 v 2.33733 h 18.998 c -1.72165,-2.34373 -3.35655,-4.81725 -6.39453,-5.00977 -0.429204,-0.04766 -0.703371,-0.06142 -0.886719,-0.04492 -0.18247,1.50398 -1.45765,2.63589 -2.97266,2.63867 -1.65685,0 -3,-1.34315 -3,-3 0,-1.65685 1.34315,-3 3,-3 1.18434,0.0012 2.25714,0.699041 2.73828,1.78125 0.229271,0.07832 0.611894,0.102348 1.57031,0.240235 2.69529,0.38776 3.34133,0.811301 6.02734,4.11328 1.75921,2.16265 1.63508,2.31227 2.72852,2.32227 0.392947,0.0035 0.659362,-0.02128 0.861328,-0.08984 0.462011,-1.45011 1.80816,-2.43544 3.33008,-2.4375 1.933,0 3.5,1.567 3.5,3.5 0,1.933 -1.567,3.5 -3.5,3.5 -1.69559,0 -3.14726,-1.21557 -3.44531,-2.88477 h -7.38477 l -2.1582,2.1582 c -2.61183,2.76509 -3.69193,3.62804 -5.33594,3.82656 -1.10235,0.13311 -1.46953,0.616901 -1.54688,1.322 v 0.675656 h -4.84375 v -4.88867 h 4.84375 v 0.796016 c 0,1.10086 2.1936,0.570261 3.05469,-0.06164 1.16758,-0.856822 3.66406,-3.55688 3.66406,-3.82812 h -12.8477 v 2.25477 z "/>
</svg>
