<svg width="48" version="1.0" xmlns="http://www.w3.org/2000/svg" height="48">
<g style="fill-rule:evenodd">
<g style="stroke-opacity:.647">
<g style="stroke:none">
<g style="fill:#fff;fill-opacity:.647">
<path id="path4164" d="m 44.1229,33.8379 c -0.551349,-0.01768 -1.07312,0.0376 -1.46533,0.135677 -0.739442,0.184771 -4.05295,0.478927 -3.7645,2.78692 3.10393,1.5715 8.07954,2.0368 8.65626,-0.271357 0.432888,-1.73066 -1.65537,-2.59824 -3.30943,-2.65125 z "/>
<path id="path4162" d="m 39.4145,38.0867 c -1.60571,0.642134 -1.76103,2.94258 -0.476248,3.90578 1.28447,0.963398 3.06627,0.27059 3.70824,-0.371734 0.642497,-0.642129 -0.02089,-2.89189 -3.23198,-3.53404 z "/>
<path id="path4160" d="m 10.9346,37.4458 c -0.514243,-0.05993 -1.01734,0.0034 -1.50922,0.251538 -2.35022,1.0967 -3.39545,3.61479 -1.55783,4.52648 1.83781,0.911706 3.41886,-0.370263 5.02995,-1.50154 1.61129,-1.13111 1.54707,-1.40185 1.31396,-1.78871 -0.369351,-0.612953 -1.73412,-1.30797 -3.27686,-1.48777 z "/>
<path style="stroke-width:1.5" id="path4158" d="m 24.2917,.8624 c -1.35169,7.1e-07 -3.13886,0.154675 -4.17464,1.19719 l -18.3918,18.5323 c -1.01519,1.02178 -1.70493,3.08933 -1.7251,4.42268 -0.00028366,0.02238 0,0.06067 0,0.08303 l .0253,.0401 c 1.20487,2.20741 7.92307,2.55992 8.93874,3.58227 1.03668,1.32947 -5.14261,2.37254 -3.63521,3.94282 2.03128,2.11602 8.63514,2.94543 10.1692,4.48944 1.53399,1.54398 -2.75937,2.63995 -1.22537,4.18392 2.10233,2.40208 7.11371,0.565151 6.18044,4.59246 2.46228,2.54982 8.79629,0.692143 12.3296,-2.10794 1.53398,-1.54398 -2.93449,-1.39964 -1.40049,-2.94361 1.53399,-1.54399 3.75236,-0.0808 7.44128,-4.84673 -1.31328,-2.05574 -4.83053,-2.87573 -2.96869,-4.00293 1.95466,-1.18339 2.68154,-0.09978 9.11661,-3.04119 3.14129,-1.43595 3.03748,-2.94168 3.02546,-4.26403 -0.000249,-0.02782 0,-0.05488 0,-0.08292 l .0008,-.034 c -0.02015,-1.33335 -0.550931,-2.6341 -1.5661,-3.65587 l -18.4123,-18.5324 c -1.03576,-1.04252 -2.27385,-1.55472 -3.62555,-1.55472 Z "/>
</g>
<path id="path4145" d="m 44.0847,34.3947 c -0.450188,-0.01444 -0.876222,0.0307 -1.19647,0.110784 -0.603771,0.150869 -3.5369,0.220375 -3.30137,2.1049 2.59132,0.941806 6.59713,1.66309 7.06803,-0.221569 0.353462,-1.41312 -1.21962,-1.95084 -2.5702,-1.99412 z "/>
<path id="path4143" d="m 10.777,38.0104 c -0.422488,-0.04923 -0.83582,0.0027 -1.23993,0.206657 -1.61603,0.815152 -2.70375,2.62634 -1.194,3.37537 1.5099,0.749034 2.57986,-0.10384 3.90349,-1.03327 1.32379,-0.929291 1.38552,-1.15172 1.19401,-1.46955 -0.303449,-0.503587 -1.39609,-0.931486 -2.66356,-1.0792 z "/>
<path id="path1217" d="m 39.5092,38.5745 c -1.23133,0.492418 -1.21686,2.20307 -0.23163,2.9417 0.984991,0.738778 2.21778,0.260933 2.71007,-0.23163 0.492697,-0.492414 -0.01602,-2.21764 -2.47843,-2.71007 z "/>
<path style="stroke-width:1.5" id="path4156" d="m 23.7785,2.3306 c -1.27443,7e-07 -2.55755,0.479802 -3.53412,1.45636 l -17.3406,17.3599 c -0.957166,0.957141 -1.45677,2.20732 -1.47579,3.45632 -0.0002674,0.02096 0,0.05683 0,0.07778 l .0238,.0376 c 0.332211,1.26397 8.9218,2.83015 9.87941,3.78783 1.4463,1.44631 -5.54353,2.51501 -4.09724,3.96132 1.4463,1.4463 8.74813,2.78684 10.1945,4.23318 1.44631,1.44631 -2.96094,2.98105 -1.51462,4.42735 1.4463,1.44633 6.29761,-0.354919 5.41768,3.41761 1.95313,1.95313 6.02914,1.02105 8.75761,-0.932072 1.44629,-1.44631 -2.76676,-1.3111 -1.32044,-2.75739 1.44631,-1.44632 5.09891,-1.45311 8.17507,-4.9128 -1.23821,-1.92569 -5.29113,-2.74803 -3.84481,-4.19434 1.44629,-1.4463 4.24391,-0.720543 10.3111,-3.47587 2.96174,-1.34511 2.72989,-2.35369 2.71855,-3.59238 -0.000235,-0.02606 0,-0.0514 0,-0.07767 l .0008,-.0318 c -0.019,-1.24901 -0.519439,-2.46747 -1.47659,-3.4246 l -17.3599,-17.36 c -0.976556,-0.976566 -2.14387,-1.45636 -3.41831,-1.45636 Z "/>
</g>
<path style="stroke:#fff;stroke-width:1.016" id="path4147" d="m 15.8695,29.8094 c 2.7302,0.708053 5.76771,1.62436 8.20482,1.64096 l .1025,1.1076 c -2.08692,-0.215119 -6.50727,-1.23218 -7.54842,-1.76404 Z "/>
</g>
<path style="fill:#fff;stroke-width:1.25" id="path1317" d="m 24.1354,4.0726 c 1.7086,0.257861 7.83537,7.6731 9.9124,9.1293 2.07704,1.4562 1.58993,2.41127 1.58993,2.50231 l -5.6887,-2.4789 -.3103,3.791 -3.2153,-1.5145 -4.1984,2.9791 -1.9105,-6.5238 -2.4233,5.7084 -6.6227,.7438 .0699,-3.0289 9.88,-9.9965 c 0.721739,-0.730244 1.48268,-1.52763 2.91688,-1.31119 z "/>
</g>
</svg>
