<svg width="48" version="1.0" xmlns="http://www.w3.org/2000/svg" height="48" xmlns:xlink="http://www.w3.org/1999/xlink">
<defs id="defs1309">
<linearGradient gradientTransform="matrix(0.39471311,0,0,0.39685226,-1.7351218,80.924939)" xlink:href="#linearGradient3225" id="linearGradient4008" y1="-37.966259" x1="-16.63065" y2="406.26038" gradientUnits="userSpaceOnUse" x2="61.224335"/>
<linearGradient gradientTransform="matrix(0.39471311,0,0,0.39685226,-1.964765,80.575491)" xlink:href="#linearGradient2430" id="linearGradient4010" y1="232.70004" x1="73.640358" y2="-64.937431" gradientUnits="userSpaceOnUse" x2="72.251587"/>
<linearGradient xlink:href="#linearGradient2322" id="linearGradient4202" y1="-20.119595" x1="93.928986" y2="138.67398" gradientUnits="userSpaceOnUse" x2="97.445358"/>
<linearGradient id="linearGradient3225">
<stop offset="0" style="stop-color:#fff" id="stop3227"/>
<stop offset="1" style="stop-color:#aeaeae" id="stop3229"/>
</linearGradient>
<linearGradient id="linearGradient2430">
<stop offset="0" id="stop2432"/>
<stop offset="1" style="stop-opacity:0" id="stop2434"/>
</linearGradient>
<linearGradient id="linearGradient2322">
<stop offset="0" style="stop-color:#fff" id="stop2324"/>
<stop offset="1" style="stop-color:#999" id="stop2326"/>
</linearGradient>
</defs>
<g id="layer1" transform="translate(0,-80)">
<path style="fill:#6d6d6d;stroke:none" id="path3922" d="m 24.0062,81.0135 c -12.6984,0 -23.0062,10.2964 -23.0062,22.9865 5.55112e-16,12.69 10.3078,22.9865 23.0062,22.9865 12.6984,0 22.9938,-10.2964 22.9938,-22.9865 0,-12.6901 -10.2954,-22.9865 -22.9938,-22.9865 z  m .9405,2.6057 c 10.785,-1e-06 19.541,8.98899 19.541,20.0627 0,11.0737 -8.75607,20.0627 -19.541,20.0627 -10.785,0 -19.541,-8.98898 -19.541,-20.0627 0,-11.0737 8.75606,-20.0627 19.541,-20.0627 z "/>
<path style="fill:none;stroke:url(#linearGradient4202);stroke-linejoin:round;stroke-linecap:round;stroke-width:3.5;stroke-dashoffset:4" id="path4041" d="m 125.5682,64.1814 a 61.4313,61.4313 0 1,1 -122.863,0 61.4313,61.4313 0 1,1 122.863,0 z " transform="matrix(0.36022428,0,0,0.36022428,0.91700435,80.871962)"/>
<path style="fill:#c80000;stroke:none" id="path1410" d="m 23.4422,81.9919 c -11.8211,0.301446 -21.3294,10.0417 -21.3294,21.999 -8.88178e-16,12.1471 9.81026,22.0106 21.8919,22.0106 12.0817,0 21.8804,-9.86342 21.8804,-22.0106 0,-12.1471 -9.79878,-21.999 -21.8804,-21.999 -0.188776,0 -0.374875,-0.0048 -0.56251,0 z  m .2755,17.0591 c 0.09415,-0.0054 0.191504,0 0.286997,0 2.71625,0 4.91334,2.209 4.91334,4.93997 0,2.73097 -2.1971,4.95152 -4.91334,4.95152 -2.71625,0 -4.92482,-2.22055 -4.92482,-4.95152 0,-2.63495 2.05381,-4.79163 4.63783,-4.93997 z "/>
<g style="stroke-linejoin:round;stroke-linecap:round;stroke-dashoffset:4">
<path style="opacity:.725;fill:url(#linearGradient4008);stroke:url(#linearGradient4010);stroke-width:.345" id="path2426" d="m 23.5759,98.2872 c -2.93274,0.222797 -5.26695,2.70406 -5.26695,5.70475 0,3.14736 2.55594,5.71715 5.68634,5.71715 3.1304,0 5.68634,-2.57195 5.68634,-5.71715 0,-3.1452 -2.55809,-5.70475 -5.68634,-5.70475 -0.06681,0 -0.167686,-0.0088 -0.320704,0 -0.03494,0.002 -0.0639,-0.0026 -0.09868,0 z  m .0863,1.5378 c 0.03394,-0.003 0.06452,0.002 0.09868,0 0.03529,-0.002 0.110195,0 0.23436,0 2.30425,0 4.15682,1.85021 4.15682,4.16694 4e-06,2.31674 -1.85472,4.17935 -4.15682,4.17935 -2.3021,0 -4.15682,-1.86478 -4.15682,-4.17935 3e-06,-2.19874 1.68584,-3.99197 3.82378,-4.16694 z "/>
<path style="opacity:.054;fill:none;stroke:#000;stroke-width:.371" id="path2482" d="m -21.424,161.475 a 38.0659,38.0659 0 1,1 -76.1317,0 38.0659,38.0659 0 1,1 76.1317,0 z " transform="matrix(0.1188348,0,0,0.11947882,31.063416,84.67342)"/>
</g>
<path style="opacity:.258;fill:#fff;stroke:none" id="path1375" d="m 23.8882,95.99 c -4.34817,0.08316 -7.84956,3.66016 -7.84957,8.05167 0,4.44357 3.57644,8.05166 7.99606,8.05166 4.41962,0 8.00827,-3.60809 8.00827,-8.05166 0,-4.44357 -3.58865,-8.05167 -8.00827,-8.05167 -0.05179,0 -0.09494,-0.001 -0.146493,0 z  m -.1221,2.197 c 0.09106,-0.0019 0.176768,0.01227 0.26857,0.01227 3.21384,0 5.82308,2.61112 5.82308,5.84238 0,3.23125 -2.60925,5.85464 -5.82308,5.85464 -3.21384,0 -5.82308,-2.62339 -5.82308,-5.85464 -1e-06,-3.11766 2.43609,-5.66687 5.49348,-5.84238 0.02089,-0.0012 0.04003,-0.01185 0.06105,-0.01227 z "/>
<g style="fill:#fff017">
<path style="opacity:.7" id="path105" d="m 19.7295,96.0103 c 1.22252,-0.645657 2.60929,-1.01738 4.07979,-1.03227 0.02126,-0.218242 0.03929,-0.442311 0.04895,-0.67739 0.289204,-6.67805 -4.61955,-11.6141 -4.61955,-11.6141 0,0 4.61955,7.11324 1.29852,8.56516 -5.3416,1.74205 -2.74262,-8.41945 -3.46466,-7.11324 -0.721403,1.30686 -1.73201,5.5169 0,7.25895 0.886938,0.891098 2.0341,2.69531 2.65695,4.61285 z "/>
<path style="opacity:.7" id="path112" d="m 40.7526,115.9311 c 4.90876,-11.4684 0,-15.3876 0,-15.3876 2.8869,8.70957 -1.58837,7.40337 -1.58837,7.40337 -5.48716,-3.77422 -0.722044,-4.93601 0.722047,-10.4529 1.44345,-5.51626 -2.45534,-10.7424 -2.45534,-10.7424 0,0 3.89879,8.71022 -2.02121,8.27438 -5.91936,-0.435187 -0.722046,-9.43553 -0.722046,-9.43553 -6.35285,7.25895 -2.59834,11.3226 -2.59834,11.3226 0,0 5.63016,3.48473 3.32038,6.96817 -2.31042,3.48474 -3.75387,6.24287 -1.44409,10.8881 2.31042,4.64524 0,9.00035 -2.4547,9.00035 -2.45535,0 -5.34224,-2.17723 -3.46595,-6.09716 1.37646,-2.87404 3.05952,-3.80012 2.26855,-7.29197 -1.63475,1.66886 -3.90459,2.70697 -6.4134,2.70697 -1.82283,0 -3.51748,-0.55111 -4.93645,-1.48948 0.613836,2.91226 0.664076,6.29078 -2.61379,5.78436 -5.63145,-0.87167 -3.03247,-6.96817 -3.03247,-6.96817 0,0 1.23798,-1.72197 1.88595,-4.0611 -0.196453,-0.7428 -0.311105,-1.51863 -0.311105,-2.3223 0,-0.88785 0.132687,-1.74334 0.371007,-2.55543 -0.297579,-0.96687 -0.818664,-1.92532 -1.65665,-2.81965 -4.6202,-4.93601 -2.02122,-10.5973 -2.02122,-10.5973 -2.59962,3.19396 -1.44409,5.80703 -0.289205,8.71022 1.15489,2.90319 4.188,10.0171 -1.29981,10.7424 -5.48652,0.72596 -4.90876,-6.67805 -4.90876,-6.67805 0,0 -3.60959,1.88776 2.88754,10.8875 3.5426,4.90687 2.87724,7.52382 1.542,8.8922 3.27207,2.87275 7.39502,4.78511 11.9366,5.29477 l 8.8887,-.8322 c 4.16739,-1.29196 7.80596,-3.80271 10.5061,-7.11713 -0.135262,-1.00312 -0.09597,-2.02698 -0.09597,-2.02698 z "/>
</g>
</g>
</svg>
