<svg width="48" version="1.0" xmlns="http://www.w3.org/2000/svg" height="48" xmlns:xlink="http://www.w3.org/1999/xlink">
<defs id="defs1309">
<linearGradient id="linearGradient3972">
<stop offset="0" style="stop-color:#d49f9f" id="stop3974"/>
<stop offset="1" style="stop-color:#752b2b" id="stop3976"/>
</linearGradient>
<radialGradient fx="199.9751" fy="121.32745" cx="198.04059" cy="131.16762" gradientTransform="matrix(0.55653726,-0.35709602,0.53589067,0.72320294,-157.30192,7.3118924)" r="17.107521" id="radialGradient2873" xlink:href="#linearGradient3972" gradientUnits="userSpaceOnUse"/>
</defs>
<g style="stroke:none" id="g9">
<g style="fill:#fff" id="g11">
<path style="opacity:.5;fill-rule:evenodd" id="path4491" d="m 0,10.8382 0,37.1618 48,0 0,-32.512 -35.1801,0 0,-4.6498 z "/>
<path id="path3799" d="m 46.7744,0 1.2256,8.0774 -34.271,5.3543 0,-3.5929 -2.719,-.0283 -5.6364,.0283 -3.5834,0 -.3565,-2.7936 z "/>
</g>
<path style="fill:#323232" id="rect1316" d="m 46.7744,0 1.2256,8.0774 -34.271,5.3543 0,-3.5929 -2.7195,0 -2.5685,-2.8343 -4.4297,.6804 1.3623,2.1539 -3.615,0 -.325,-2.7935 l 45.3408,-7.0453 Z  m -5.1996,2.0933 -4.4297,.6804 4.4079,5.008 4.4297,-.6804 z  m -10.589,1.7773 -4.4297,.6804 4.4079,5.008 4.4297,-.6804 z  m -10.9681,1.6952 -4.4332,.7166 4.4079,5.008 4.4332,-.7167 -4.4079,-5.008 z "/>
<g style="fill-rule:evenodd" id="g16">
<path style="fill:#323232" id="path4161" d="m 1,11.8381 0,35.1619 h 46 v -30.5121 h -35.18 v -4.64983 z "/>
<path style="fill:url(#radialGradient2873)" id="path2027" d="m 14.167,19.0701 c 7.81104,-3.86185 17.71,2.78781 23.1355,13.1789 1.12616,2.15685 1.31977,5.71671 -0.717099,7.6966 -1.29413,1.25793 -3.47261,0.867618 -3.89655,0.797479 0.371736,0.528117 2.13217,0.820393 1.45311,1.62167 -3.02357,3.56773 -12.0069,5.29468 -22.342,-7.37391 -4.84318,-5.93878 -3.16489,-13.1811 2.36702,-15.9208 Z "/>
<path style="opacity:.65" id="path2924" d="m 13.3664,24.4907 c 2.88005,2.09296 6.10154,3.82376 8.90593,6.26016 1.70049,1.72257 3.42503,3.82478 5.20716,5.73221 1.68212,1.72952 3.4889,2.82112 5.20612,4.25848 1.45373,0.263254 2.69249,0.06405 3.45248,-0.448578 -0.165658,0.151532 -3.24705,0.198636 -3.88819,-0.256372 -0.898381,-0.637545 -4.31658,-4.75898 -4.23883,-4.72857 -1.65165,-1.91744 -3.02621,-3.76889 -5.38424,-5.69969 -3.00181,-2.58167 -8.72074,-5.41285 -9.26043,-5.11765 z "/>
<path style="opacity:.35" id="path2932" d="m 12.2038,23.6683 c 2.88006,2.09296 7.26407,4.64615 10.0685,7.08256 1.70049,1.72257 3.42503,3.82478 5.20716,5.73221 1.68212,1.72952 3.4889,2.82112 5.20612,4.25848 0.171561,0.208419 0.488253,0.374449 0.706336,0.478569 -0.200834,0.06949 -1.21619,-0.319199 -1.85732,-0.774196 -0.898378,-0.637543 -3.83029,-2.55848 -4.61792,-3.33276 -1.73728,-1.70784 -3.23953,-3.50028 -5.5506,-5.48704 -2.16031,-1.85715 -9.17534,-7.32762 -9.16224,-7.95782 z "/>
</g>
</g>
</svg>
