<svg width="48" version="1.0" xmlns="http://www.w3.org/2000/svg" height="48" xmlns:xlink="http://www.w3.org/1999/xlink">
<defs>
<linearGradient id="linearGradient3671">
<stop offset="0" style="stop-opacity:0"/>
<stop offset="0.5" style="stop-opacity:.232"/>
<stop offset="1" style="stop-opacity:0"/>
</linearGradient>
<linearGradient id="linearGradient869">
<stop offset="0" style="stop-color:#666"/>
<stop offset="1"/>
</linearGradient>
<linearGradient id="linearGradient3770">
<stop offset="0" style="stop-color:#ffda7d"/>
<stop offset="0.3" style="stop-color:#ffda7d"/>
<stop offset="0.3" style="stop-color:#ffc941"/>
<stop offset="0.6" style="stop-color:#ffc941"/>
<stop offset="0.6" style="stop-color:#dc9e00"/>
<stop offset="1" style="stop-color:#dc9e00"/>
</linearGradient>
<linearGradient gradientTransform="translate(0.34756813,1.2031)" xlink:href="#linearGradient3770" id="linearGradient3849" y1="23.72045" x1="34.265" y2="23.72045" gradientUnits="userSpaceOnUse" x2="45.4021"/>
<linearGradient xlink:href="#linearGradient869" id="linearGradient871" y1="42.82075" x1="37.1696" y2="42.82075" x2="43.2296" gradientUnits="userSpaceOnUse"/>
<linearGradient gradientTransform="matrix(1.0707396,0,0,1.0455696,-3.0700032,-2.139008)" xlink:href="#linearGradient3671" id="linearGradient3879" y1="41.989594" x1="37.830212" y2="33.946251" gradientUnits="userSpaceOnUse" x2="29.698484"/>
</defs>
<g style="fill-rule:evenodd">
<path style="fill:#f0f0f0;stroke:#aaa" d="m 2.7284,2.4531 0,43.0939 25.4811,-.0001 c 1.69495,-0.65616 2.90386,-1.63967 3.8755,-3.1559 v -39.9378 z "/>
<g>
<path style="fill:#d57000" d="m 35.4709,2.7213 c -0.450182,0.433162 -0.756585,1.11931 -0.75686,1.71227 l -.0329,4.8821 11.0599,.0048 .0329,-4.8821 c 0.000454,-0.975182 -0.929486,-2.1394 -1.80318,-2.1399 l -7.5926,.0002 c -0.318749,-0.0001846 -0.637175,0.162714 -0.907284,0.422614 z "/>
<path style="fill:#d0d0d0" d="m 34.707,9.3157 -.0127,5.0904 11.0599,.0044 .0127,-5.09 z "/>
<path style="fill:url(#linearGradient3849)" d="m 34.6898,14.4037 -.0772,21.0397 11.1201,-.0145 .017,-21.0203 z "/>
<path style="fill:#e9d078" d="m 34.6698,35.4337 5.5406,10.1741 5.5193,-10.1692 -11.0599,-.0048 z "/>
</g>
</g>
<g style="opacity:.5" transform="matrix(0.83827493,0,0,1,-3.149128,1.1661)">
<g transform="translate(-1.399602,-2.600339)">
<path style="fill:url(#linearGradient3879);fill-rule:evenodd" d="m 32.4206,46.4802 10.4178,-11.0005 v -25.0445 l -33.8362,36.045 z "/>
</g>
</g>
<path style="fill:url(#linearGradient871);fill-rule:evenodd" d="m 37.1696,40.0337 3.0408,5.5741 3.0192,-5.5692 -6.06,-.0048 z "/>
</svg>
