<svg width="48" version="1.0" xmlns="http://www.w3.org/2000/svg" height="48" xmlns:xlink="http://www.w3.org/1999/xlink">
<defs>
<linearGradient id="linearGradient3671">
<stop offset="0" style="stop-opacity:0"/>
<stop offset="0.5" style="stop-opacity:.232"/>
<stop offset="1" style="stop-opacity:0"/>
</linearGradient>
<linearGradient id="linearGradient3770">
<stop offset="0" style="stop-color:#ffda7d"/>
<stop offset="0.3" style="stop-color:#ffda7d"/>
<stop offset="0.3" style="stop-color:#ffc941"/>
<stop offset="0.68" style="stop-color:#ffc941"/>
<stop offset="0.68" style="stop-color:#dc9e00"/>
<stop offset="1" style="stop-color:#dc9e00"/>
</linearGradient>
<linearGradient id="linearGradient9">
<stop offset="0" style="stop-color:#bababa"/>
<stop offset="1" style="stop-color:#e3e3e3"/>
</linearGradient>
<linearGradient id="linearGradient869">
<stop offset="0" style="stop-color:#666"/>
<stop offset="1"/>
</linearGradient>
<linearGradient id="linearGradient13">
<stop offset="0" style="stop-color:#dbc457"/>
<stop offset="1" style="stop-color:#f0da94"/>
</linearGradient>
<linearGradient id="linearGradient6">
<stop offset="0" style="stop-color:#b25c00"/>
<stop offset="1" style="stop-color:#fa8600"/>
</linearGradient>
<linearGradient gradientTransform="matrix(0.89757416,0,0,1.0455696,-6.895886,-3.573247)" xlink:href="#linearGradient3671" id="linearGradient3879" y1="42.334335" x1="47.06662" y2="32.452374" gradientUnits="userSpaceOnUse" x2="37.529354"/>
<linearGradient gradientTransform="translate(4.86059,3.133625)" xlink:href="#linearGradient13" id="linearGradient15" y1="38.854919" x1="16.81628" y2="31.010721" x2="9.0194902" gradientUnits="userSpaceOnUse"/>
<linearGradient gradientTransform="translate(4.86059,3.133625)" xlink:href="#linearGradient6" id="linearGradient8" y1="17.639959" x1="38.194466" y2="10" x2="30.600706" gradientUnits="userSpaceOnUse"/>
<linearGradient gradientTransform="rotate(45.148796,29.015761,11.602007)" xlink:href="#linearGradient3770" id="linearGradient3849" y1="23.72045" x1="34.265" y2="23.72045" gradientUnits="userSpaceOnUse" x2="45.4021"/>
<linearGradient gradientTransform="rotate(45.148796,30.636498,11.785541)" xlink:href="#linearGradient869" id="linearGradient871" y1="44.033699" x1="37.169601" y2="44.038601" x2="43.229599" gradientUnits="userSpaceOnUse"/>
<linearGradient gradientTransform="translate(4.86059,3.133625)" xlink:href="#linearGradient9" id="linearGradient12" y1="21.217579" x1="34.573826" y2="13.371971" x2="26.778454" gradientUnits="userSpaceOnUse"/>
</defs>
<g style="fill-rule:evenodd">
<path style="fill:#aaa" d="m 3,2 v 44 l 36.3154,0.0166 c 2.09336,-0.790755 3.64746,-2.2869 4.68365,-3.87907 V 2 Z"/>
<path style="fill:#f2f2f2" d="M 4,3 V 45 H 38.808551 C 40.503501,44.34379 42.02786,43.16023 43,41.644 V 3 Z"/>
</g>
<g style="fill:#385389">
<path style="opacity:.85" d="m 18.9909,4 -.045,7.6305 5.5676,-7.4504 4.4865,1.0271 -5.7928,7.4504 5.7478,7.901 -4.3964,1.3964 -5.6126,-8.2163 v 7.40541 l -4.1712,.6307 v -17.3694 l 4.2162,-.4054 Z "/>
<path style="opacity:.85" d="m 9.4325,8.2342 c 0.047679,-0.00491 0.092613,0 0.135135,0.027026 l 3.1622,2.072 c 0,0 0,0.0086 0,0.009 0.390051,-0.212467 0.800433,-0.391856 1.22523,-0.54054 v 1.72973 c -2.33404,1.05038 -3.96396,3.39144 -3.96396,6.11712 0,3.7055 3.00623,6.71171 6.71171,6.71171 2.6077,0 4.87179,-1.48528 5.98199,-3.65765 0.928288,1.35907 1.63964,2.40541 1.63964,2.40541 0.03172,0.04641 0.09081,0.07048 0.144144,0.05405 l .3694,-.1172 1.1262,1.8558 c 0.05131,0.08432 0.03401,0.191353 -0.03603,0.261261 l -1.6486,1.6576 c -0.07222,0.07177 -0.185081,0.08252 -0.270271,0.02702 l -3.0901,-2.027 c -0.630771,0.371312 -1.31273,0.660829 -2.03604,0.855857 l -.8649,3.5315 c -0.02335,0.09615 -0.108904,0.162163 -0.207207,0.162163 h -2.34234 c -0.101405,0 -0.186738,-0.07185 -0.207208,-0.171171 l -.7298,-3.5136 c -0.701327,-0.189404 -1.36706,-0.473803 -1.98198,-0.828832 l -3.1352,1.9009 c -0.084323,0.05133 -0.191424,0.0426 -0.26126,-0.02702 l -1.6576,-1.6576 c -0.071922,-0.07178 -0.082811,-0.185224 -0.027026,-0.27027 l 2,-3.045 c -0.377295,-0.663489 -0.662344,-1.39193 -0.846844,-2.15315 l -3.4504,-.8378 c -0.0958562,-0.023352 -0.17138,-0.108184 -0.17138,-0.207208 v -2.34234 c 0,-0.101483 0.072144,-0.195748 0.171171,-0.216217 l 3.5586,-.7387 c 0.196611,-0.657511 0.475894,-1.2777 0.819817,-1.85585 l -1.9369,-3.1983 c -0.050889,-0.08454 -0.042383,-0.191426 0.027232,-0.261262 l 1.6576,-1.6576 c 0.035889,-0.03596 0.08746,-0.049137 0.135135,-0.054053 z "/>
</g>
<g style="fill-rule:evenodd">
<path style="opacity:.55;fill:url(#linearGradient3879)" d="m 33.8545,45 9.145,-10.954 V 9.0015 L 4,45 Z"/>
<path style="opacity:.15" d="m 40.8324,10.5012 c -0.624585,-0.01366 -1.32748,0.253874 -1.74805,0.671875 l -24.8906,24.6191 .043,.043 -3.3008,11.0938 11.1065,-3.2608 24.8389,-24.6514 c 0.691346,-0.687764 0.861928,-2.16736 0.246094,-2.78711 l -5.3556,-5.3828 c -0.224804,-0.225974 -0.5647,-0.337511 -0.939453,-0.345703 z "/>
<path style="opacity:.05" d="m 41.3255,10.9704 c -0.624585,-0.01366 -1.32748,0.253874 -1.74805,0.671875 l -25.6936,25.2209 .043,.043 -3.3008,11.0938 11.1065,-3.2608 25.6419,-25.2531 c 0.691346,-0.687764 0.861928,-2.16736 0.246094,-2.78711 l -5.3556,-5.3828 c -0.224804,-0.225974 -0.5647,-0.337511 -0.939453,-0.345703 z "/>
<path style="opacity:.25" d="m 40.3683,10.0593 c -0.624585,-0.01366 -1.32748,0.253874 -1.74805,0.671875 l -23.9219,24.0879 .0742,-.0664 -3.457,11.0781 10.5752,-2.9639 24.5264,-24.292 c 0.691346,-0.687764 0.861928,-2.16736 0.246094,-2.78711 l -5.3556,-5.3828 c -0.224804,-0.225974 -0.5647,-0.337511 -0.939453,-0.345703 z "/>
<path style="opacity:.35" d="m 40.6335,9.8825 c -0.624585,-0.013657 -1.32748,0.253874 -1.74805,0.671875 l -24.3382,24.0888 .043,.043 -3.1122,10.6255 10.4335,-2.9956 24.349,-24.1757 c 0.691346,-0.687764 0.861928,-2.16736 0.246094,-2.78711 l -4.9337,-5.125 c -0.224804,-0.225974 -0.5647,-0.337511 -0.939453,-0.345703 Z "/>
<path style="fill:url(#linearGradient8)" d="m 40.47209,8.820125 c -0.624585,-0.013657 -1.32712,0.25304 -1.74769,0.67104 l -3.4843,3.4199 7.7968,7.8442 3.4843,-3.4199 c 0.691346,-0.687764 0.861171,-2.1678 0.245337,-2.78755 l -5.3548,-5.3827 C 41.186933,8.939141 40.847003,8.828153 40.47225,8.819961 Z"/>
<path style="fill:url(#linearGradient12)" d="m 35.2583,12.9294 -3.6177,3.5811 7.7971,7.8439 3.6175,-3.5808 z "/>
<path style="fill:url(#linearGradient3849)" d="m 31.6391,16.5056 -17.8061,17.605 7.8529,7.8733 17.7499,-17.634 z "/>
<path style="fill:url(#linearGradient15)" d="m 13.8802,34.1443 -3.3052,11.1034 11.1019,-3.2592 -7.7968,-7.8442 z "/>
<path style="fill:url(#linearGradient871)" d="m 12.3821,39.1607 -1.8071,6.087 6.0776,-1.7873 -4.2705,-4.2996 z "/>
</g>
</svg>
