<svg width="48" version="1.0" xmlns="http://www.w3.org/2000/svg" height="48" xmlns:xlink="http://www.w3.org/1999/xlink">
<defs>
<linearGradient id="linearGradient3671">
<stop offset="0" style="stop-opacity:0"/>
<stop offset="0.5" style="stop-opacity:.232"/>
<stop offset="1" style="stop-opacity:0"/>
</linearGradient>
<linearGradient id="linearGradient6">
<stop offset="0" style="stop-color:#b25c00"/>
<stop offset="1" style="stop-color:#fa8600"/>
</linearGradient>
<linearGradient id="linearGradient3770">
<stop offset="0" style="stop-color:#ffda7d"/>
<stop offset="0.3" style="stop-color:#ffda7d"/>
<stop offset="0.3" style="stop-color:#ffc941"/>
<stop offset="0.68" style="stop-color:#ffc941"/>
<stop offset="0.68" style="stop-color:#dc9e00"/>
<stop offset="1" style="stop-color:#dc9e00"/>
</linearGradient>
<linearGradient id="linearGradient869">
<stop offset="0" style="stop-color:#666"/>
<stop offset="1"/>
</linearGradient>
<linearGradient id="linearGradient13">
<stop offset="0" style="stop-color:#dbc457"/>
<stop offset="1" style="stop-color:#f0da94"/>
</linearGradient>
<linearGradient id="linearGradient9">
<stop offset="0" style="stop-color:#bababa"/>
<stop offset="1" style="stop-color:#e3e3e3"/>
</linearGradient>
<linearGradient gradientTransform="translate(4.86059,3.133625)" xlink:href="#linearGradient13" id="linearGradient15" y1="38.854919" x1="16.81628" y2="31.010721" x2="9.0194902" gradientUnits="userSpaceOnUse"/>
<linearGradient gradientTransform="translate(4.86059,3.133625)" xlink:href="#linearGradient9" id="linearGradient12" y1="21.217579" x1="34.573826" y2="13.371971" x2="26.778454" gradientUnits="userSpaceOnUse"/>
<linearGradient gradientTransform="translate(4.86059,3.133625)" xlink:href="#linearGradient6" id="linearGradient8" y1="17.639959" x1="38.194466" y2="10" x2="30.600706" gradientUnits="userSpaceOnUse"/>
<linearGradient gradientTransform="rotate(45.148796,30.636498,11.785541)" xlink:href="#linearGradient869" id="linearGradient871" y1="44.033699" x1="37.169601" y2="44.038601" x2="43.229599" gradientUnits="userSpaceOnUse"/>
<linearGradient gradientTransform="rotate(45.148796,29.015761,11.602007)" xlink:href="#linearGradient3770" id="linearGradient3849" y1="23.72045" x1="34.265" y2="23.72045" gradientUnits="userSpaceOnUse" x2="45.4021"/>
<linearGradient gradientTransform="matrix(0.89757416,0,0,1.0455696,-6.895886,-3.573247)" xlink:href="#linearGradient3671" id="linearGradient3879" y1="42.334335" x1="47.06662" y2="32.452374" gradientUnits="userSpaceOnUse" x2="37.529354"/>
</defs>
<g style="fill-rule:evenodd">
<path style="fill:#aaa" d="m 3,2 v 44 l 36.3154,0.0166 c 2.09336,-0.790755 3.64746,-2.2869 4.68365,-3.87907 V 2 Z"/>
<path style="fill:#f2f2f2" d="M 4,3 V 45 H 38.808551 C 40.503501,44.34379 42.02786,43.16023 43,41.644 V 3 Z"/>
</g>
<g style="fill:#385389">
<path style="opacity:.85" d="m 18.9597,6 -.0385,6.5227 4.7593,-6.3687 3.8351,.878 -4.9518,6.3687 4.9133,6.7539 -3.7581,1.1937 -4.7978,-7.0234 v 6.33028 l -3.5656,.5391 v -14.8477 l 3.6041,-.3465 Z "/>
<path style="opacity:.85" d="m 10.789,9.6195 c 0.04076,-0.0042 0.07917,0 0.115516,0.023102 l 2.7031,1.7712 c 0,0 0,0.0074 0,0.0077 0.333423,-0.181621 0.684225,-0.334966 1.04735,-0.462063 v 1.4786 c -1.99518,0.897884 -3.38847,2.89907 -3.38847,5.22903 0,3.16753 2.56978,5.73729 5.73729,5.73729 2.22911,0 4.1645,-1.26965 5.11352,-3.12663 0.793518,1.16176 1.4016,2.05619 1.4016,2.05619 0.02711,0.03967 0.07763,0.06025 0.123217,0.0462 l .3158,-.1002 .9627,1.5864 c 0.04386,0.07208 0.02907,0.163572 -0.0308,0.22333 l -1.4093,1.4169 c -0.06173,0.06135 -0.15821,0.07054 -0.231032,0.0231 l -2.6415,-1.7327 c -0.539195,0.317404 -1.12215,0.564888 -1.74045,0.731602 l -.7393,3.0188 c -0.01996,0.08219 -0.09309,0.13862 -0.177125,0.13862 h -2.00228 c -0.08668,0 -0.159627,-0.06142 -0.177125,-0.146321 l -.6238,-3.0035 c -0.599507,-0.161906 -1.16859,-0.405015 -1.69423,-0.708501 l -2.68,1.6249 c -0.07208,0.04388 -0.163633,0.03641 -0.22333,-0.0231 l -1.4169,-1.417 c -0.06148,-0.06136 -0.070788,-0.158333 -0.023102,-0.231031 l 1.7096,-2.6029 c -0.322519,-0.567163 -0.566184,-1.18985 -0.723898,-1.84055 l -2.9495,-.7162 c -0.0819395,-0.01996 -0.146499,-0.092478 -0.146499,-0.177126 v -2.00228 c 0,-0.08675 0.06167,-0.167329 0.14632,-0.184826 l 3.042,-.6315 c 0.168067,-0.562052 0.406803,-1.0922 0.700795,-1.58642 l -1.6557,-2.734 c -0.043501,-0.07227 -0.03623,-0.163634 0.023278,-0.223331 l 1.4169,-1.4169 c 0.03068,-0.030739 0.07476,-0.042003 0.115516,-0.046206 z "/>
</g>
<g style="fill-rule:evenodd">
<path style="opacity:.55;fill:url(#linearGradient3879)" d="m 33.8545,45 9.145,-10.954 V 9.0015 L 4,45 Z"/>
<path style="opacity:.15" d="m 40.8324,10.5012 c -0.624585,-0.01366 -1.32748,0.253874 -1.74805,0.671875 l -24.8906,24.6191 .043,.043 -3.3008,11.0938 11.1065,-3.2608 24.8389,-24.6514 c 0.691346,-0.687764 0.861928,-2.16736 0.246094,-2.78711 l -5.3556,-5.3828 c -0.224804,-0.225974 -0.5647,-0.337511 -0.939453,-0.345703 z "/>
<path style="opacity:.05" d="m 41.3255,10.9704 c -0.624585,-0.01366 -1.32748,0.253874 -1.74805,0.671875 l -25.6936,25.2209 .043,.043 -3.3008,11.0938 11.1065,-3.2608 25.6419,-25.2531 c 0.691346,-0.687764 0.861928,-2.16736 0.246094,-2.78711 l -5.3556,-5.3828 c -0.224804,-0.225974 -0.5647,-0.337511 -0.939453,-0.345703 z "/>
<path style="opacity:.25" d="m 40.3683,10.0593 c -0.624585,-0.01366 -1.32748,0.253874 -1.74805,0.671875 l -23.9219,24.0879 .0742,-.0664 -3.457,11.0781 10.5752,-2.9639 24.5264,-24.292 c 0.691346,-0.687764 0.861928,-2.16736 0.246094,-2.78711 l -5.3556,-5.3828 c -0.224804,-0.225974 -0.5647,-0.337511 -0.939453,-0.345703 z "/>
<path style="opacity:.35" d="m 40.6335,9.8825 c -0.624585,-0.013657 -1.32748,0.253874 -1.74805,0.671875 l -24.3382,24.0888 .043,.043 -3.1122,10.6255 10.4335,-2.9956 24.349,-24.1757 c 0.691346,-0.687764 0.861928,-2.16736 0.246094,-2.78711 l -4.9337,-5.125 c -0.224804,-0.225974 -0.5647,-0.337511 -0.939453,-0.345703 Z "/>
<path style="fill:url(#linearGradient8)" d="m 40.47209,8.820125 c -0.624585,-0.013657 -1.32712,0.25304 -1.74769,0.67104 l -3.4843,3.4199 7.7968,7.8442 3.4843,-3.4199 c 0.691346,-0.687764 0.861171,-2.1678 0.245337,-2.78755 l -5.3548,-5.3827 C 41.186933,8.939141 40.847003,8.828153 40.47225,8.819961 Z"/>
<path style="fill:url(#linearGradient12)" d="m 35.2583,12.9294 -3.6177,3.5811 7.7971,7.8439 3.6175,-3.5808 z"/>
<path style="fill:url(#linearGradient3849)" d="m 31.6391,16.5056 -17.8061,17.605 7.8529,7.8733 17.7499,-17.634 z"/>
<path style="fill:url(#linearGradient15)" d="M 13.8802,34.1443 10.575,45.2477 21.6769,41.9885 13.8801,34.1443 Z"/>
<path style="fill:url(#linearGradient871)" d="m 12.3821,39.1607 -1.8071,6.087 6.0776,-1.7873 -4.2705,-4.2996 z"/>
</g>
</svg>
