<svg width="48" version="1.0" xmlns="http://www.w3.org/2000/svg" height="48" xmlns:xlink="http://www.w3.org/1999/xlink">
<defs>
<linearGradient id="linearGradient2">
<stop offset="0" style="stop-color:#b25c00"/>
<stop offset="1" style="stop-color:#fa8600"/>
</linearGradient>
<linearGradient id="linearGradient3671">
<stop offset="0" style="stop-opacity:0"/>
<stop offset="0.5" style="stop-opacity:.232"/>
<stop offset="1" style="stop-opacity:0"/>
</linearGradient>
<linearGradient id="linearGradient3770">
<stop offset="0" style="stop-color:#ffda7d"/>
<stop offset="0.3" style="stop-color:#ffda7d"/>
<stop offset="0.3" style="stop-color:#ffc941"/>
<stop offset="0.68" style="stop-color:#ffc941"/>
<stop offset="0.68" style="stop-color:#dc9e00"/>
<stop offset="1" style="stop-color:#dc9e00"/>
</linearGradient>
<linearGradient id="linearGradient869">
<stop offset="0" style="stop-color:#737373"/>
<stop offset="1"/>
</linearGradient>
<linearGradient id="linearGradient6">
<stop offset="0" style="stop-color:#bababa"/>
<stop offset="1" style="stop-color:#e3e3e3"/>
</linearGradient>
<linearGradient id="linearGradient9">
<stop offset="0" style="stop-color:#dbc457"/>
<stop offset="1" style="stop-color:#f0da94"/>
</linearGradient>
<linearGradient gradientTransform="translate(2.226032)" xlink:href="#linearGradient2" id="linearGradient5" y1="9.3156996" x1="45.766899" y2="9.3156996" x2="34.707001" gradientUnits="userSpaceOnUse"/>
<linearGradient gradientTransform="translate(2.226032)" xlink:href="#linearGradient869" id="linearGradient871" y1="42.82075" x1="37.1696" y2="42.82075" x2="43.2296" gradientUnits="userSpaceOnUse"/>
<linearGradient gradientTransform="translate(2.226032)" xlink:href="#linearGradient6" id="linearGradient8" y1="14.4037" x1="45.749699" y2="14.4037" x2="34.6898" gradientUnits="userSpaceOnUse"/>
<linearGradient gradientTransform="matrix(0.89757416,0,0,1.0455696,-6.895886,-1.573247)" xlink:href="#linearGradient3671" id="linearGradient3879" y1="41.989594" x1="37.830212" y2="33.994591" gradientUnits="userSpaceOnUse" x2="30.233929"/>
<linearGradient gradientTransform="translate(2.226032)" xlink:href="#linearGradient9" id="linearGradient12" y1="35.438599" x1="45.729698" y2="35.4338" x2="34.6698" gradientUnits="userSpaceOnUse"/>
<linearGradient gradientTransform="translate(2.5736001,1.2031)" xlink:href="#linearGradient3770" id="linearGradient3849" y1="23.72045" x1="34.265" y2="23.72045" gradientUnits="userSpaceOnUse" x2="45.4021"/>
</defs>
<path style="fill:#f0f0f0;fill-rule:evenodd;stroke:#aaa" d="m 2.7284,7 v 38.547 h 31.4811 c 1.69495,-0.65616 2.90386,-1.63967 3.8755,-3.1559 v -35.391 Z "/>
<g style="stroke-width:1.143;fill:#385389">
<path d="m 22.6477,10.5 -.0568,9.6249 7.0228,-9.3977 5.6591,1.2955 -7.3069,9.3977 7.2501,9.966 -5.5455,1.7614 -7.0796,-10.3637 v 9.34094 l -5.2614,.7955 v -21.9092 l 5.3182,-.5113 z "/>
<path d="m 10.591,15.8409 c 0.06014,-0.0062 0.116819,0 0.170455,0.03409 l 3.9887,2.6136 c 0,0 0,0.01086 0,0.01131 0.491998,-0.267999 1.00964,-0.494275 1.54547,-0.681819 v 2.18182 c -2.94408,1.32491 -5,4.27785 -5,7.71593 0,4.67399 3.79195,8.46592 8.46592,8.46592 3.28926,0 6.14511,-1.87348 7.54548,-4.61364 1.17091,1.71429 2.06819,3.0341 2.06819,3.0341 0.04,0.05855 0.114546,0.0889 0.181819,0.06818 l .4659,-.1478 1.4205,2.3409 c 0.06472,0.106366 0.0429,0.241366 -0.04545,0.329546 l -2.0795,2.0909 c -0.09109,0.09053 -0.233455,0.104092 -0.34091,0.03409 l -3.8977,-2.5567 c -0.795634,0.468361 -1.65583,0.833548 -2.56819,1.07955 l -1.0909,4.4545 c -0.02946,0.121274 -0.137365,0.204546 -0.261365,0.204546 h -2.95455 c -0.127909,0 -0.235545,-0.09063 -0.261365,-0.215909 l -.9205,-4.4319 c -0.884632,-0.238909 -1.72437,-0.59764 -2.5,-1.04546 l -3.9546,2.3977 c -0.106363,0.06474 -0.241456,0.05373 -0.329545,-0.03409 l -2.0909,-2.0909 c -0.0907236,-0.090537 -0.104455,-0.233636 -0.0340869,-0.340909 l 2.5227,-3.8409 c -0.475907,-0.836903 -0.835458,-1.75573 -1.06818,-2.71591 l -4.3522,-1.0568 c -0.12091,-0.029461 -0.216173,-0.136457 -0.216173,-0.261365 v -2.95455 c 0,-0.128001 0.090997,-0.24691 0.215909,-0.272728 l 4.4887,-.9318 c 0.247998,-0.829362 0.600276,-1.61165 1.03409,-2.34091 l -2.4432,-4.0342 c -0.064186,-0.106641 -0.05346,-0.241458 0.034351,-0.329547 l 2.0909,-2.0909 c 0.04527,-0.04536 0.110319,-0.06198 0.170455,-0.06818 z "/>
</g>
<g style="fill-rule:evenodd">
<path style="opacity:.5;fill:url(#linearGradient3879)" d="m 28.855,45.046 8.733,-11 V 11.0015 L 3.224,45.0465 Z"/>
<path style="opacity:.3" d="m 38.0047,2.799 c -0.318748,0 -0.638094,0.161975 -0.908203,0.421875 -0.450181,0.433162 -0.755584,1.11993 -0.755859,1.71289 l -.1015,31.0098 h 0.0625 l 5.5351,10.1641 5.5195,-10.168 .043,-31.002 c 0,-0.975181 -0.929045,-2.13817 -1.80274,-2.13867 z "/>
<path style="fill:url(#linearGradient5)" d="m 37.697,2.7213 c -0.450182,0.433162 -0.756585,1.11931 -0.75686,1.71227 l -.0329,4.8821 11.0599,.0048 .0329,-4.8821 c 0,-0.975182 -0.929486,-2.1394 -1.80318,-2.1399 h -7.5926 c -0.318749,0 -0.637175,0.162714 -0.907284,0.422614 z "/>
<path style="fill:url(#linearGradient8)" d="m 36.9331,9.3157 -.0127,5.0904 11.0599,.0044 .0127,-5.09 z "/>
<path style="fill:url(#linearGradient3849)" d="m 36.9159,14.4037 -.0772,21.0397 11.1201,-.0145 .017,-21.0203 z "/>
<path style="fill:url(#linearGradient12)" d="m 36.8959,35.4337 5.5406,10.1741 5.5193,-10.1692 -11.0599,-.0048 z "/>
<path style="fill:url(#linearGradient871)" d="m 39.3957,40.0337 3.0408,5.5741 3.0192,-5.5692 -6.06,-.0048 z "/>
</g>
</svg>
