<svg width="48" version="1.0" xmlns="http://www.w3.org/2000/svg" height="48" xmlns:xlink="http://www.w3.org/1999/xlink">
<defs>
<linearGradient id="linearGradient3671">
<stop offset="0" style="stop-opacity:0"/>
<stop offset="0.5" style="stop-opacity:.232"/>
<stop offset="1" style="stop-opacity:0"/>
</linearGradient>
<linearGradient id="linearGradient9">
<stop offset="0" style="stop-color:#bababa"/>
<stop offset="1" style="stop-color:#e3e3e3"/>
</linearGradient>
<linearGradient id="linearGradient6">
<stop offset="0" style="stop-color:#b25c00"/>
<stop offset="1" style="stop-color:#fa8600"/>
</linearGradient>
<linearGradient id="linearGradient869">
<stop offset="0" style="stop-color:#666"/>
<stop offset="1"/>
</linearGradient>
<linearGradient id="linearGradient13">
<stop offset="0" style="stop-color:#dbc457"/>
<stop offset="1" style="stop-color:#f0da94"/>
</linearGradient>
<linearGradient id="linearGradient3770">
<stop offset="0" style="stop-color:#ffda7d"/>
<stop offset="0.3" style="stop-color:#ffda7d"/>
<stop offset="0.3" style="stop-color:#ffc941"/>
<stop offset="0.68" style="stop-color:#ffc941"/>
<stop offset="0.68" style="stop-color:#dc9e00"/>
<stop offset="1" style="stop-color:#dc9e00"/>
</linearGradient>
<linearGradient xlink:href="#linearGradient9" id="linearGradient12" y1="21.217579" x1="34.573826" y2="13.371971" x2="26.778454" gradientUnits="userSpaceOnUse"/>
<linearGradient gradientTransform="matrix(0.89757416,0,0,1.0455696,-6.895886,-3.573247)" xlink:href="#linearGradient3671" id="linearGradient3879" y1="42.334335" x1="47.06662" y2="32.452374" gradientUnits="userSpaceOnUse" x2="37.529354"/>
<linearGradient xlink:href="#linearGradient6" id="linearGradient8" y1="17.639959" x1="38.194466" y2="10" x2="30.600706" gradientUnits="userSpaceOnUse"/>
<linearGradient gradientTransform="rotate(45.148796,31.974974,4.3729586)" xlink:href="#linearGradient869" id="linearGradient871" y1="44.033699" x1="37.169601" y2="44.038601" x2="43.229599" gradientUnits="userSpaceOnUse"/>
<linearGradient gradientTransform="rotate(45.148796,30.354237,4.1894244)" xlink:href="#linearGradient3770" id="linearGradient3849" y1="23.72045" x1="34.265" y2="23.72045" gradientUnits="userSpaceOnUse" x2="45.4021"/>
<linearGradient xlink:href="#linearGradient13" id="linearGradient15" y1="38.854919" x1="16.81628" y2="31.010721" x2="9.0194902" gradientUnits="userSpaceOnUse"/>
</defs>
<g style="fill-rule:evenodd">
<path style="fill:#aaa" d="m 3,2 v 44 l 36.3154,0.0166 c 2.09336,-0.790755 3.64746,-2.2869 4.68365,-3.87907 V 2 Z"/>
<path style="fill:#f0f0f0" d="M 4,3 V 45 H 38.808551 C 40.503501,44.34379 42.02786,43.16023 43,41.644 V 3 Z"/>
<g style="fill:#7f8c8d">
<path d="m 9,15.8443 h 30 v 2.92213 H 9 Z"/>
<path d="m 12,10 h 24 v 2.92214 H 12 Z"/>
<path d="m 9,21.6885 h 30 v 2.92213 H 9 Z"/>
<path d="m 9,27.5328 h 30 v 2.92213 H 9 Z"/>
<path d="m 9,33.377 h 30 v 2.92213 H 9 Z"/>
</g>
<path style="opacity:.55;fill:url(#linearGradient3879)" d="m 33.8545,45 9.145,-10.954 V 9.0015 L 4,45 Z"/>
<path style="opacity:.15" d="M 35.9718,7.3676 C 35.347215,7.353943 34.64432,7.621474 34.22375,8.039475 l -24.8906,24.6191 0.043,0.043 -3.3008,11.0938 11.1065,-3.2608 24.8389,-24.6514 c 0.691346,-0.687764 0.861928,-2.16736 0.246094,-2.78711 l -5.3556,-5.3828 C 36.68644,7.487291 36.346544,7.375754 35.971791,7.367562 Z"/>
<path style="opacity:.05" d="M 36.4649,7.8368 C 35.840315,7.823143 35.13742,8.090674 34.71685,8.508675 l -25.6936,25.2209 0.043,0.043 -3.3008,11.0938 11.1065,-3.2608 25.6419,-25.2531 c 0.691346,-0.687764 0.861928,-2.16736 0.246094,-2.78711 l -5.3556,-5.3828 C 37.17954,7.956591 36.839644,7.845054 36.464891,7.836862 Z"/>
<path style="opacity:.25" d="M 35.5077,6.9257 C 34.883115,6.912043 34.18022,7.179574 33.75965,7.597575 l -23.9219,24.0879 0.0742,-0.0664 -3.457,11.0781 10.5752,-2.9639 24.5264,-24.292 c 0.691346,-0.687764 0.861928,-2.16736 0.246094,-2.78711 l -5.3556,-5.3828 C 36.22224,7.045391 35.882344,6.933854 35.507591,6.925662 Z"/>
<path style="opacity:.35" d="M 35.7729,6.7489 C 35.148315,6.735243 34.44542,7.002774 34.02485,7.420775 l -24.3382,24.0888 0.043,0.043 -3.1122,10.6255 10.4335,-2.9956 24.349,-24.1757 c 0.691346,-0.687764 0.861928,-2.16736 0.246094,-2.78711 l -4.9337,-5.125 C 36.48754,6.868691 36.147644,6.757154 35.772891,6.748962 Z"/>
<path style="fill:url(#linearGradient8)" d="M 35.6115,5.6865 C 34.986915,5.672843 34.28438,5.93954 33.86381,6.35754 l -3.4843,3.4199 7.7968,7.8442 3.4843,-3.4199 c 0.691346,-0.687764 0.861171,-2.1678 0.245337,-2.78755 l -5.3548,-5.3827 C 36.326343,5.805516 35.986413,5.694528 35.61166,5.686336 Z"/>
<path style="fill:url(#linearGradient12)" d="M 30.3977,9.7958 26.78,13.3769 34.5771,21.2208 38.1946,17.64 Z"/>
<path style="fill:url(#linearGradient3849)" d="M 26.7785,13.372 8.9724,30.977 16.8253,38.8503 34.5752,21.2163 Z"/>
<path style="fill:url(#linearGradient15)" d="M 9.0196,31.0107 5.7144,42.1141 16.8163,38.8549 9.0195,31.0107 Z"/>
<path style="fill:url(#linearGradient871)" d="M 7.5215,36.0271 5.7144,42.1141 11.792,40.3268 7.5215,36.0272 Z"/>
</g>
</svg>
