<svg width="48" version="1.0" xmlns="http://www.w3.org/2000/svg" height="48" xmlns:xlink="http://www.w3.org/1999/xlink">
<defs>
<linearGradient id="linearGradient3671">
<stop offset="0" style="stop-opacity:0"/>
<stop offset="0.5" style="stop-opacity:.232"/>
<stop offset="1" style="stop-opacity:0"/>
</linearGradient>
<linearGradient id="linearGradient9">
<stop offset="0" style="stop-color:#bababa"/>
<stop offset="1" style="stop-color:#e3e3e3"/>
</linearGradient>
<linearGradient id="linearGradient6">
<stop offset="0" style="stop-color:#b25c00"/>
<stop offset="1" style="stop-color:#fa8600"/>
</linearGradient>
<linearGradient id="linearGradient869">
<stop offset="0" style="stop-color:#666"/>
<stop offset="1"/>
</linearGradient>
<linearGradient id="linearGradient13">
<stop offset="0" style="stop-color:#dbc457"/>
<stop offset="1" style="stop-color:#f0da94"/>
</linearGradient>
<linearGradient id="linearGradient3770">
<stop offset="0" style="stop-color:#ffda7d"/>
<stop offset="0.3" style="stop-color:#ffda7d"/>
<stop offset="0.3" style="stop-color:#ffc941"/>
<stop offset="0.68" style="stop-color:#ffc941"/>
<stop offset="0.68" style="stop-color:#dc9e00"/>
<stop offset="1" style="stop-color:#dc9e00"/>
</linearGradient>
<linearGradient gradientTransform="translate(4.86059,3.133625)" xlink:href="#linearGradient9" id="linearGradient12" y1="21.217579" x1="34.573826" y2="13.371971" x2="26.778454" gradientUnits="userSpaceOnUse"/>
<linearGradient gradientTransform="matrix(0.89757416,0,0,1.0455696,-6.895886,-3.573247)" xlink:href="#linearGradient3671" id="linearGradient3879" y1="42.334335" x1="47.06662" y2="32.452374" gradientUnits="userSpaceOnUse" x2="37.529354"/>
<linearGradient gradientTransform="translate(4.86059,3.133625)" xlink:href="#linearGradient6" id="linearGradient8" y1="17.639959" x1="38.194466" y2="10" x2="30.600706" gradientUnits="userSpaceOnUse"/>
<linearGradient gradientTransform="rotate(45.148796,29.015761,11.602007)" xlink:href="#linearGradient3770" id="linearGradient3849" y1="23.72045" x1="34.265" y2="23.72045" gradientUnits="userSpaceOnUse" x2="45.4021"/>
<linearGradient gradientTransform="rotate(45.148796,30.636498,11.785541)" xlink:href="#linearGradient869" id="linearGradient871" y1="44.033699" x1="37.169601" y2="44.038601" x2="43.229599" gradientUnits="userSpaceOnUse"/>
<linearGradient gradientTransform="translate(4.86059,3.133625)" xlink:href="#linearGradient13" id="linearGradient15" y1="38.854919" x1="16.81628" y2="31.010721" x2="9.0194902" gradientUnits="userSpaceOnUse"/>
</defs>
<g style="fill-rule:evenodd">
<path style="fill:#aaa" d="m 3,2 v 44 l 36.3154,0.0166 c 2.09336,-0.790755 3.64746,-2.2869 4.68365,-3.87907 V 2 Z"/>
<path style="fill:#f2f2f2" d="M 4,3 V 45 H 38.808551 C 40.503501,44.34379 42.02786,43.16023 43,41.644 V 3 Z"/>
</g>
<g style="fill:#385389">
<path style="opacity:.85" d="m 20.408,6 -.0432,7.3126 5.3357,-7.14 4.2995,.9843 -5.5515,7.14 5.5083,7.5718 -4.2132,1.3383 -5.3788,-7.8739 v 7.09688 l -3.9974,.6044 v -16.6458 l 4.0406,-.3885 Z "/>
<path style="opacity:.85" d="m 11.2478,10.0578 c 0.0457,-0.0047 0.08876,0 0.129505,0.0259 l 3.0304,1.9857 c 0,0 0,0.0083 0,0.0086 0.373801,-0.203615 0.767086,-0.375531 1.17418,-0.518019 v 1.65766 c -2.2368,1.00662 -3.79882,3.25015 -3.79882,5.86227 0,3.55112 2.88098,6.43208 6.43208,6.43208 2.49906,0 4.66882,-1.42341 5.73277,-3.50527 0.889614,1.30245 1.57134,2.3052 1.57134,2.3052 0.03039,0.04447 0.08703,0.06755 0.138139,0.05179 l .354,-.1123 1.0793,1.7785 c 0.04917,0.08081 0.03259,0.18338 -0.03453,0.250375 l -1.58,1.5885 c -0.06921,0.06878 -0.177369,0.07908 -0.25901,0.0259 l -2.9614,-1.9425 c -0.604492,0.355842 -1.25804,0.633296 -1.95122,0.8202 l -.8288,3.3844 c -0.02238,0.09214 -0.104363,0.155407 -0.198575,0.155407 h -2.24476 c -0.09718,0 -0.178958,-0.06886 -0.198575,-0.164041 l -.6993,-3.3672 c -0.672107,-0.181513 -1.31011,-0.454063 -1.8994,-0.794301 l -3.0046,1.8217 c -0.08081,0.04919 -0.183449,0.04082 -0.250375,-0.0259 l -1.5885,-1.5886 c -0.068925,-0.06879 -0.07936,-0.177507 -0.0259,-0.259009 l 1.9166,-2.9181 c -0.361576,-0.635846 -0.634749,-1.33394 -0.811562,-2.06344 l -3.3067,-.8029 c -0.0918624,-0.022377 -0.16424,-0.103677 -0.16424,-0.198576 v -2.24476 c 0,-0.09726 0.069138,-0.187593 0.16404,-0.207209 l 3.4104,-.708 c 0.18842,-0.630117 0.456067,-1.22447 0.785662,-1.77854 l -1.8562,-3.0651 c -0.048769,-0.08102 -0.040617,-0.18345 0.026097,-0.250376 l 1.5885,-1.5885 c 0.03439,-0.03446 0.08381,-0.04709 0.129505,-0.0518 z "/>
</g>
<g style="fill-rule:evenodd">
<path style="opacity:.55;fill:url(#linearGradient3879)" d="m 33.8545,45 9.145,-10.954 V 9.0015 L 4,45 Z"/>
<path style="opacity:.15" d="m 40.8324,10.5012 c -0.624585,-0.01366 -1.32748,0.253874 -1.74805,0.671875 l -24.8906,24.6191 .043,.043 -3.3008,11.0938 11.1065,-3.2608 24.8389,-24.6514 c 0.691346,-0.687764 0.861928,-2.16736 0.246094,-2.78711 l -5.3556,-5.3828 c -0.224804,-0.225974 -0.5647,-0.337511 -0.939453,-0.345703 z "/>
<path style="opacity:.05" d="m 41.3255,10.9704 c -0.624585,-0.01366 -1.32748,0.253874 -1.74805,0.671875 l -25.6936,25.2209 .043,.043 -3.3008,11.0938 11.1065,-3.2608 25.6419,-25.2531 c 0.691346,-0.687764 0.861928,-2.16736 0.246094,-2.78711 l -5.3556,-5.3828 c -0.224804,-0.225974 -0.5647,-0.337511 -0.939453,-0.345703 z "/>
<path style="opacity:.25" d="m 40.3683,10.0593 c -0.624585,-0.01366 -1.32748,0.253874 -1.74805,0.671875 l -23.9219,24.0879 .0742,-.0664 -3.457,11.0781 10.5752,-2.9639 24.5264,-24.292 c 0.691346,-0.687764 0.861928,-2.16736 0.246094,-2.78711 l -5.3556,-5.3828 c -0.224804,-0.225974 -0.5647,-0.337511 -0.939453,-0.345703 z "/>
<path style="opacity:.35" d="m 40.6335,9.8825 c -0.624585,-0.013657 -1.32748,0.253874 -1.74805,0.671875 l -24.3382,24.0888 .043,.043 -3.1122,10.6255 10.4335,-2.9956 24.349,-24.1757 c 0.691346,-0.687764 0.861928,-2.16736 0.246094,-2.78711 l -4.9337,-5.125 c -0.224804,-0.225974 -0.5647,-0.337511 -0.939453,-0.345703 Z "/>
<path style="fill:url(#linearGradient8)" d="m 40.47209,8.820125 c -0.624585,-0.013657 -1.32712,0.25304 -1.74769,0.67104 l -3.4843,3.4199 7.7968,7.8442 3.4843,-3.4199 c 0.691346,-0.687764 0.861171,-2.1678 0.245337,-2.78755 l -5.3548,-5.3827 C 41.186933,8.939141 40.847003,8.828153 40.47225,8.819961 Z"/>
<path style="fill:url(#linearGradient12)" d="m 35.2583,12.9294 -3.6177,3.5811 7.7971,7.8439 3.6175,-3.5808 z"/>
<path style="fill:url(#linearGradient3849)" d="m 31.6391,16.5056 -17.8061,17.605 7.8529,7.8733 17.7499,-17.634 z"/>
<path style="fill:url(#linearGradient15)" d="M 13.8802,34.1443 10.575,45.2477 21.6769,41.9885 13.8801,34.1443 Z"/>
<path style="fill:url(#linearGradient871)" d="m 12.3821,39.1607 -1.8071,6.087 6.0776,-1.7873 -4.2705,-4.2996 z"/>
</g>
</svg>
