<svg width="48" version="1.1" xmlns="http://www.w3.org/2000/svg" height="48">
<g style="stroke-width:1.212" id="g907">
<path style="opacity:.05" id="path1259" d="m 45.0816,37.0309 v 5.52752 c 0,1.62966 -1.31197,2.94163 -2.94163,2.94163 h -38.2409 v -8.46915 z "/>
<path style="opacity:.1" id="path1261" d="m 45.0816,36.425 v 5.52752 c 0,1.62966 -1.31197,2.94163 -2.94163,2.94163 h -38.241 v -8.4691 z "/>
<path style="opacity:.13" id="path1257" d="m 45.0816,35.8192 v 5.52752 c 0,1.62966 -1.31197,2.94163 -2.94163,2.94163 h -38.2409 v -8.46915 z "/>
<path style="fill:#64a0dc" id="path1025" d="m 6.8405,2.5 h 35.2996 c 1.62966,0 2.94163,1.31197 2.94163,2.94163 v 35.2996 c 0,1.62966 -1.31197,2.94163 -2.94163,2.94163 h -35.2996 c -1.62966,0 -2.94163,-1.31197 -2.94163,-2.94163 v -35.2996 c 0,-1.62966 1.31197,-2.94163 2.94163,-2.94163 z "/>
<path style="opacity:.15;fill:#fff" id="rect1027" d="m 12.7237,2.5 h 0.490272 v 41.1828 h -0.490272 z "/>
<path style="opacity:.4" id="rect1029" d="m 12.2334,2.5 h 0.490271 v 41.1828 h -0.490271 z "/>
<path style="fill:#2864a0;fill-rule:evenodd" id="rect1031" d="m 3.8869,2.5037 h 8.60024 v 41.191 h -8.60024 Z "/>
<path style="opacity:.6;fill:#7f7f7f" id="path1035" d="m 9.2918,17.2082 a 1.47082,1.47082 0 0,1 -2.94163,0 1.47082,1.47082 0 1,1 2.94163,0 z "/>
<rect width="5.8832607" x="2.9182725" y="16.22761" rx="0.98054355" height="1.9610871" ry=".9805" style="fill:#b4b4b4" id="rect1039"/>
<path style="opacity:.6;fill:#7f7f7f" id="path1045" d="m 9.2918,23.0914 a 1.47082,1.47082 0 0,1 -2.94163,0 1.47082,1.47082 0 1,1 2.94163,0 z "/>
<rect width="5.8832607" x="2.9182725" y="22.110868" rx="0.98054355" height="1.9610871" ry=".9805" style="fill:#b4b4b4" id="rect1049"/>
<path style="opacity:.6;fill:#7f7f7f" id="path1055" d="m 9.2918,28.9746 a 1.47082,1.47082 0 0,1 -2.94163,0 1.47082,1.47082 0 1,1 2.94163,0 z "/>
<rect width="5.8832607" x="2.9182725" y="27.994131" rx="0.98054355" height="1.9610871" ry=".9805" style="fill:#b4b4b4" id="rect1059"/>
<path style="opacity:.6;fill:#7f7f7f" id="path1065" d="m 9.2918,34.858 a 1.47082,1.47082 0 0,1 -2.94163,0 1.47082,1.47082 0 1,1 2.94163,0 z "/>
<rect width="5.8832607" x="2.9182725" y="33.877392" rx="0.98054355" height="1.9610871" ry=".9805" style="fill:#b4b4b4" id="rect1069"/>
<path style="opacity:.6;fill:#7f7f7f" id="path1075" d="m 9.2918,11.3249 a 1.47082,1.47082 0 0,1 -2.94163,0 1.47082,1.47082 0 1,1 2.94163,0 z "/>
<rect width="5.8832607" x="2.9182725" y="10.344348" rx="0.98054355" ry=".9805" height="1.9610871" style="fill:#b4b4b4" id="rect1079"/>
</g>
<g id="g874">
<path style="stroke-opacity:.55;fill:#c61423;stroke-width:2.1" id="rect4152-3" d="m 28.4672,9 c -8.31,0 -15,6.69 -15,15 0,8.31 6.69,15 15,15 8.31,0 15,-6.69 15,-15 0,-8.31 -6.69,-15 -15,-15 z  m 0,8.3333 c 3.69333,0 6.66666,2.97333 6.66666,6.66666 0,3.69333 -2.97333,6.66666 -6.66666,6.66666 -3.69333,0 -6.66666,-2.97333 -6.66666,-6.66666 0,-3.69333 2.97333,-6.66666 6.66666,-6.66666 z "/>
<path style="fill:#fff;fill-rule:evenodd;stroke-width:.75" id="path4412-6" d="m 22.4204,11.6253 c -3.10457,1.51382 -5.54416,4.15094 -6.79688,7.39746 l 5.2309,2.9883 c 0.624578,-2.4115 2.35012,-4.36792 4.62012,-5.29688 l -3.0542,-5.0889 z  m 12.0938,0 -3.0542,5.0889 c 2.27,0.928958 3.99554,2.88538 4.62012,5.29688 l 5.2309,-2.9883 c -1.25268,-3.24651 -3.69227,-5.88362 -6.79684,-7.39746 Z  m -13.6597,14.3642 -5.2309,2.9883 c 1.25271,3.24653 3.6923,5.88364 6.79688,7.39746 l 3.0542,-5.0889 c -2.26996,-0.928965 -3.99551,-2.88538 -4.62009,-5.29688 Z  m 15.2256,0 c -0.624578,2.4115 -2.35012,4.36791 -4.62012,5.29688 l 3.0542,5.0889 c 3.10457,-1.51382 5.54416,-4.15093 6.79688,-7.39746 l -5.2309,-2.9883 z "/>
<g style="stroke-width:2.1;stroke-opacity:.55">
<path style="fill:#7e1722" id="rect4393-7" d="m 19.1668,14.3554 c -0.572482,0 -1.03338,0.460898 -1.03338,1.03339 0,0.572482 0.460898,1.03338 1.03338,1.03338 0.57249,0 1.03339,-0.460897 1.03339,-1.03338 0,-0.57249 -0.460898,-1.03339 -1.03339,-1.03339 z  m 18.6008,0 c -0.57249,0 -1.03339,0.460898 -1.03339,1.03339 0,0.572482 0.460897,1.03338 1.03339,1.03338 0.572483,0 1.03338,-0.460897 1.03338,-1.03338 0,-0.57249 -0.460897,-1.03339 -1.03338,-1.03339 z  m -18.6008,.689 c 0.19083,0 0.344468,0.15363 0.344468,0.34446 0,0.190822 -0.153638,0.34446 -0.344468,0.34446 -0.190823,0 -0.34446,-0.153637 -0.34446,-0.34446 0,-0.19083 0.153638,-0.34446 0.34446,-0.34446 z  m 18.6008,0 c 0.190823,0 0.34446,0.15363 0.34446,0.34446 0,0.190822 -0.153637,0.34446 -0.34446,0.34446 -0.19083,0 -0.34446,-0.153637 -0.34446,-0.34446 0,-0.19083 0.15363,-0.34446 0.34446,-0.34446 z  m -18.6008,16.5341 c -0.572482,0 -1.03338,0.460897 -1.03338,1.03339 0,0.572483 0.460898,1.03338 1.03338,1.03338 0.57249,0 1.03339,-0.460897 1.03339,-1.03338 0,-0.57249 -0.460898,-1.03339 -1.03339,-1.03339 z  m 18.6008,0 c -0.57249,0 -1.03339,0.460897 -1.03339,1.03339 0,0.572483 0.460897,1.03338 1.03339,1.03338 0.572483,0 1.03338,-0.460897 1.03338,-1.03338 0,-0.57249 -0.460897,-1.03339 -1.03338,-1.03339 z  m -18.6008,.689 c 0.19083,0 0.344468,0.153637 0.344468,0.344467 0,0.190823 -0.153638,0.34446 -0.344468,0.34446 -0.190823,0 -0.34446,-0.153637 -0.34446,-0.34446 0,-0.19083 0.153638,-0.344467 0.34446,-0.344467 z  m 18.6008,0 c 0.190823,0 0.34446,0.153637 0.34446,0.344467 0,0.190823 -0.153637,0.34446 -0.34446,0.34446 -0.19083,0 -0.34446,-0.153637 -0.34446,-0.34446 0,-0.19083 0.15363,-0.344467 0.34446,-0.344467 z "/>
<path style="fill:#cea476" id="path4379-5" d="m 19.1668,15.0443 c -0.19083,0 -0.34446,0.15363 -0.34446,0.34446 0,0.11961 0.06405,0.21951 0.156083,0.28122 -1.83065,2.3549 -2.93732,5.31205 -2.93732,8.55097 0,3.14635 1.05381,6.01924 2.79201,8.3397 -0.003,0.0174 -0.0108,0.03292 -0.0108,0.05115 0,0.190837 0.15363,0.34446 0.34446,0.34446 0.190838,0 0.34446,-0.153623 0.34446,-0.34446 0,-0.02235 0,-0.04755 -0.0053,-0.0687 0.0783,-0.0666 0.0384,-0.1602 -0.0273,-0.22998 -1.71875,-2.23198 -2.7503,-5.03368 -2.7503,-8.09212 0,-0.382298 0.01687,-0.760635 0.04845,-1.13429 0.220883,-2.61554 1.19795,-5.0035 2.70185,-6.95648 0.325035,-0.392805 0.158228,-0.825773 -0.07669,-0.990323 -0.06165,-0.05827 -0.143566,-0.09553 -0.235471,-0.09553 z  m 18.2375,1.0859 c 1.50391,1.95298 2.48097,4.34095 2.70186,6.95648 0.03158,0.373658 0.04845,0.751995 0.04845,1.1343 0,3.05845 -1.03155,5.86014 -2.7503,8.09212 -0.086,0.130905 -0.05738,0.235028 0.02018,0.308145 0.0052,0.18195 0.14946,0.32574 0.331005,0.332355 l .003,.003 .0015,-.0015 c 0.003,6.8e-05 0.0052,0.0015 0.0081,0.0015 0.19083,0 0.34446,-0.153622 0.34446,-0.34446 0,-0.03728 -0.01073,-0.0714 -0.02152,-0.104947 1.71415,-2.31109 2.75165,-5.16383 2.75165,-8.28585 0,-3.22849 -1.09979,-6.17686 -2.91983,-8.5281 0.111615,-0.05685 0.189683,-0.169755 0.189683,-0.304095 0,-0.19083 -0.153623,-0.34446 -0.34446,-0.34446 -0.107033,0 -0.197948,0.05167 -0.26103,0.12783 -0.23538,0.202282 -0.362423,0.620452 -0.10275,0.957675 z "/>
</g>
</g>
</svg>
