<svg width="48" version="1.0" xmlns="http://www.w3.org/2000/svg" height="48">
<g style="stroke:none">
<g id="g6-5-2" transform="matrix(1.5104084,0,0,1.3826669,-17.926475,-4.2222528)">
<path style="fill:#00df16" id="path4500-8" d="m 24.16,24.4498 c -2.10598,3.98469 -2.65903,8.47732 -1.87931,12.6567 l 6.61207,0 C 25.96651,33.84393 24.16,29.38016 24.16,24.4498 Z"/>
<path style="fill:#04abcf" id="path4516-1" d="m 24.16,24.478 c -4.44215,2.80163 -7.24922,7.50657 -8.05172,12.6284 l 6.25472,0 C 21.587981,32.93464 22.057455,28.45616 24.16,24.478 Z"/>
<path style="fill:#1e3bdc" id="path4518-2" d="m 24.1428,24.4969 c -4.52215,-0.134557 -8.62228,1.9718 -11.6121,5.17944 v 5.62205 c 0,1.20541 0.551727,1.8081 1.65518,1.8081 h 1.91378 c 0.805649,-5.1144 3.60622,-9.81128 8.0431,-12.6096 z "/>
<path style="fill:#641edb" id="path4520-7" d="m 15.6945,22.0766 c -1.06699,0.01066 -2.12437,0.135863 -3.16379,0.36727 v 7.32308 c 2.98663,-3.19661 7.07287,-5.27014 11.5862,-5.27014 -2.65666,-1.67554 -5.56206,-2.44879 -8.42241,-2.42021 z "/>
<path style="fill:#8021b1" id="path4522-3" d="m 12.5307,15.7012 0,6.8238 c 3.81892,-0.846625 7.91863,-0.324951 11.5603,1.97186 -2.56468,-4.85257 -6.87169,-7.91899 -11.5603,-8.79564 z"/>
<path style="fill:#9c009b" id="path4524-8" d="m 14.1859,11.7931 c -1.10345,-6e-06 -1.65517,0.602698 -1.65517,1.8081 v 2.1908 c 4.68184,0.880084 8.98147,3.83921 11.5431,8.68603 0,-4.93996 -1.80503,-9.4189 -4.74138,-12.6849 z "/>
<path style="fill:#d10737" id="path4526-1" d="m 19.241,11.7931 c 2.92625,3.26257 4.83286,7.72634 4.83286,12.6567 2.10599,-3.98469 2.75886,-8.47732 1.97914,-12.6567 z"/>
<path style="fill:#fd0005" id="path4528-0" d="m 25.9704,11.7931 c 0.77502,4.17176 0.205998,8.65024 -1.89655,12.6284 C 28.516,21.61986 31.4235,16.91493 32.226,11.7931 Z"/>
<path style="fill:#ff6500" id="path4530-4" d="m 32.1342,11.7931 c -0.805653,5.1144 -3.60622,9.81128 -8.0431,12.6096 4.52215,-2e-06 8.62228,-1.9718 11.6121,-5.17944 v -5.62205 c 0,-1.20541 -0.555734,-1.80809 -1.65517,-1.8081 z "/>
<path style="fill:#fdad00" id="path4532-7" d="m 35.7031,19.133 c -2.98663,3.19661 -7.07286,5.26973 -11.5862,5.26972 3.64768,2.30056 7.76033,2.9047 11.5862,2.05294 z"/>
<path style="fill:#fffd01" id="path4534-7" d="m 24.1428,24.4027 c 2.56468,4.85257 6.87169,7.97952 11.5603,8.85616 v -6.84486 c -3.81892,0.846625 -7.91863,0.285504 -11.5603,-2.01131 z "/>
<path style="fill:#b6fd00" id="path4536-5" d="m 24.16,24.4215 c 0,4.93996 1.80503,9.4189 4.74138,12.6849 h 5.14668 c 1.10345,0 1.65504,-0.6026 1.65504,-1.8081 v -2.09067 c -4.68184,-0.880083 -8.98147,-3.93934 -11.5431,-8.78616 Z "/>
</g>
<g id="layer1" transform="matrix(0.74277887,0,0,0.74277887,12.523512,-59.341283)">
<g style="fill-rule:evenodd" id="g6">
<path style="opacity:.4" id="path3046" d="m 27.9778,95.3536 c -6.91826,6.29215 -15.8586,14.4334 -22.7769,20.7256 -0.024078,0.0225 -0.558388,0.50864 -1.02154,1.60075 -0.463145,1.09213 -0.479197,2.98624 -2.21785,4.25035 -1.16536,1.0979 -0.877274,2.05565 -0.362417,2.81861 0.058765,0.0871 0.16488,0.18143 0.26332,0.27598 0.083644,0.10568 0.166305,0.21904 0.246325,0.28501 0.709976,0.58528 1.63508,0.96295 2.83691,-0.0948 1.42129,-1.61345 3.3062,-1.45041 4.43592,-1.80881 1.12971,-0.3584 1.66357,-0.845 1.68824,-0.86687 6.91047,-6.30076 15.8664,-14.4248 22.7769,-20.7256 -1.08793,-0.33151 -2.4165,-1.45024 -3.53272,-2.68206 -1.12067,-1.22976 -2.10916,-2.66138 -2.33618,-3.77813 z"/>
<path style="fill:#fff;fill-opacity:.941" id="path3878" d="m 27.5778,94.5198 c -6.91826,6.29216 -15.8586,14.4334 -22.7769,20.7256 -0.024078,0.0225 -0.558388,0.50864 -1.02154,1.60075 -0.463145,1.09213 -0.479197,2.98624 -2.21785,4.25035 -1.16536,1.0979 -0.877274,2.05565 -0.362417,2.81861 0.058765,0.0871 0.16488,0.18143 0.26332,0.27598 0.083644,0.10568 0.166305,0.21904 0.246325,0.28501 0.709976,0.58528 1.63508,0.96295 2.83691,-0.0948 1.42129,-1.61345 3.30619,-1.45041 4.43592,-1.80881 1.12971,-0.3584 1.66357,-0.845 1.68824,-0.86687 6.91047,-6.30076 15.8664,-14.4248 22.7769,-20.7256 -1.08793,-0.33151 -2.4165,-1.45025 -3.53272,-2.68207 -1.12067,-1.22976 -2.10916,-2.66138 -2.33618,-3.77813 z"/>
</g>
<g style="fill:#1ab85d" id="g10">
<path id="path3835" d="m 36.5926,84.1392 c -1.76217,1.64678 -3.18694,5.35508 -5.66172,5.38362 -2.61279,3.93557 3.17757,10.3668 7.55779,8.40835 0.09185,-2.71337 4.09176,-3.98996 5.72076,-5.51229 6.55741,-6.12801 -1.6728,-13.8345 -7.61683,-8.27968 z"/>
<path id="path3837" d="m 28.6356,90.3923 c -0.474847,-0.02036 -0.868791,0.101438 -1.14329,0.377168 -0.932135,0.811934 -0.0049,-0.0054 -2.7934,2.53409 -0.775702,0.706442 8.96885,10.6303 9.55884,10.101 1.86494,-1.67316 1.2644,-1.12618 1.88584,-1.68547 l .7779,-.7425 .0118,-.0236 c 1.0677,-1.12137 -0.24987,-4.13213 -2.80518,-7.02474 -1.90677,-2.15847 -4.06796,-3.47488 -5.4925,-3.53594 z "/>
</g>
<g style="fill:#14964b" id="g14">
<path id="rect10614" d="m 37.0922,84.7389 c -1.76217,1.64678 -3.18694,5.35508 -5.66172,5.38362 -2.61279,3.93557 3.17757,10.3668 7.55779,8.40835 0.09185,-2.71337 4.09176,-3.98996 5.72076,-5.51229 6.55741,-6.12801 -1.6728,-13.8345 -7.61683,-8.27968 z"/>
<path id="path3144" d="m 29.1352,90.992 c -0.474847,-0.02036 -0.868791,0.101438 -1.14329,0.377168 -0.932135,0.811934 -0.0049,-0.0054 -2.7934,2.53409 -0.775702,0.706442 8.96885,10.6303 9.55884,10.101 1.86494,-1.67316 1.2644,-1.12618 1.88584,-1.68547 l .7779,-.7425 .0118,-.0236 c 1.0677,-1.12137 -0.24987,-4.13213 -2.80518,-7.02474 -1.90677,-2.15847 -4.06796,-3.47488 -5.4925,-3.53594 z "/>
</g>
</g>
</g>
</svg>
