<svg width="48" version="1.0" xmlns="http://www.w3.org/2000/svg" height="48">
<g style="fill:#e6e6e6" id="g12" transform="matrix(1.1415525,0,0,1.1415525,9.1194065,-3.7063925)">
<path id="path3756" d="m .7,8.3306 0,31.9844 5.8923,0 -.036,-31.9276 z "/>
<path id="path3782" d="m 19.5776,8.3306 0,31.5844 5.5286,0 -.0345,-31.5276 z "/>
</g>
<path style="fill:#80a4d4" id="path3784" d="m 16.189,5.0042 0,37.9958 15.7103,0 -.0919,-37.9309 z "/>
<g style="fill-rule:evenodd;stroke:none">
<g id="g13" transform="matrix(1.1415525,0,0,1.1415525,9.1194065,-3.7063925)">
<path id="folderGlyph-6" d="m 0.0827,7.6268 0,33.2652 7.8956,0 0,-1.833 10.0569,0 0,1.833 7.9529,0 0,-33.2652 -7.9529,0 0,2.2862 -10.0569,0 0,-2.2862 z m 7.8384,3.1181 10.0569,0 0,12.7038 -10.0569,0 z m -6.0934,0.196 3.5187,0 0,3.3319 -3.5187,0 z m 18.8966,0 3.4901,0 0,3.3319 -3.4901,0 z m -18.8966,11.6348 3.5187,0 0,3.314 -3.5187,0 z m 18.8966,0 3.4901,0 0,3.314 -3.4901,0 z m -12.8032,3.1537 10.0569,0 0,12.7038 -10.0569,0 z m -6.0934,8.4989 3.5187,0 0,3.3319 -3.5187,0 z m 18.8966,0 3.4901,0 0,3.3319 -3.4901,0 z"/>
<rect width="13.632507" x="6.7028561" y="9.4052105" height="2.3386607" id="rect2988"/>
<rect width="13.632507" x="6.5911064" y="37.280495" height="2.3386607" id="rect2990"/>
</g>
<rect width="43" x="2.5" y="19.5" rx="6.2738142" height="9" ry="0.034982346" style="fill:#b95b51;stroke-linejoin:round;fill-opacity:.711;stroke-linecap:round;stroke-miterlimit:0" id="rect4153"/>
</g>
</svg>
