<svg width="48" version="1.0" xmlns="http://www.w3.org/2000/svg" height="48">
<g style="fill:#788c3c" id="g8">
<path id="path3773" d="m 9.1834,2.4078 c -0.103796,0.0159739 -0.215205,0.0504512 -0.289815,0.133081 l -3.4462,3.809 c -0.144718,0.160451 -0.151631,0.395288 -0.0305549,0.574703 l 4.5888,6.787 c -0.689381,1.30289 -1.23268,2.69066 -1.591,4.15108 l -7.7067,2.0061 c -0.21447,0.05563 -0.362035,0.269828 -0.35093,0.4919 l .2563,5.126 c 0.010837,0.21671 0.18494,0.394107 0.397268,0.434721 l 7.6427,1.4559 c 0.487072,1.64567 1.19059,3.20859 2.08887,4.61929 l -4.0435,6.8826 c -0.112769,0.192218 -0.076536,0.439283 0.088723,0.588502 l 3.809,3.4463 c 0.160448,0.144707 0.395783,0.152072 0.574701,0.03053 l 6.6529,-4.503 c 1.38453,0.709643 2.87256,1.25917 4.42808,1.5969 l 1.9814,7.6091 c 0.05566,0.215098 0.250271,0.363013 0.472185,0.351916 l 5.126,-.2563 c 0.215132,-0.01076 0.395127,-0.16459 0.435706,-0.377553 l 1.5063,-7.823 c 1.56155,-0.505951 3.02226,-1.21416 4.36201,-2.09577 l 6.9842,4.0978 c 0.192499,0.112126 0.438322,0.0763 0.588503,-0.0887 l 3.4265,-3.808 c 0.145655,-0.160655 0.171794,-0.396768 0.05027,-0.575688 l -4.6447,-5.4684 c -2.91617,-3.34195 -0.170913,-0.115887 -2.99108,-3.36006 -2.19181,4.87553 -6.98402,8.37372 -12.6908,8.6591 -8.10911,0.405511 -15.0169,-5.84432 -15.4224,-13.9534 -0.298285,-5.96489 2.94054,-10.3316 5.99189,-12.5261 l 1.8242,-5.0797 v -0.8685 c 0,0 -2.20692,1.93168 -2.62209,2.18551 -0.0008,-0.0004199 -0.000635,-0.00513 -0.000476,-0.00985 0.000159,-0.00472 0.000313,-0.00943 -0.00051,-0.00987 l -7.1468,-4.1885 c -0.0960983,-0.0562306 -0.194893,-0.0603415 -0.298687,-0.0443576 z "/>
<path id="path3765" d="m 25.8762,27.1112 c -0.344228,-0.03992 -0.7878,-0.208565 -0.911189,-0.357554 l .0043,-6.1555 -.4074,-1.9558 -.4074,-1.9558 -2.2494,4.7757 c -1.23719,2.62666 -2.3703,4.92926 -2.51807,5.11689 -0.375099,0.476266 -0.593127,0.454913 -1.23984,-0.121351 -0.553799,-0.493506 -0.677971,-0.738994 -0.605762,-1.19759 0.06502,-0.413189 0.0086,-0.287608 2.64765,-5.88694 1.30791,-2.77501 2.39193,-5.13341 2.40895,-5.2409 0.02652,-0.167225 -0.08542,-0.27042 -0.774937,-0.714937 -0.796283,-0.51332 -0.807178,-0.517259 -0.91535,-0.330817 -0.192149,0.331136 -0.467601,0.234759 -1.00522,-0.351678 -0.737749,-0.804762 -0.763316,-0.675268 0.863061,-4.37185 0.737406,-1.67607 1.42211,-3.14973 1.52154,-3.27481 l .1808,-.2274 6.4608,-.0528 -.1103,-.4284 c -0.256873,-0.998049 0.0043,-2.22125 0.628988,-2.94781 1.06029,-1.23284 2.76368,-0.823403 3.4318,0.824895 0.251838,0.621304 0.276145,1.61728 0.05675,2.32277 -0.330494,1.06248 -1.10037,1.70742 -2.03821,1.70742 -0.493838,0 -0.518407,0.010643 -0.484868,0.196642 0.18063,4.03518 0.478107,11.0648 0.478107,11.0648 0,0 2.50264,1.72982 3.24707,2.00149 0.580282,-0.993724 1.85207,-3.27945 2.05961,-3.39834 1.44089,-0.244571 2.97602,-0.258801 4.41212,0.01194 2.45683,3.47221 4.85706,7.28568 7.03392,11.0329 l -17.9066,.0436 3.5815,-6.4935 c -0.01555,-0.01578 -2.44668,-1.56999 -3.91421,-2.50501 -2.38705,-1.52087 -2.87466,-1.78182 -2.86875,-1.53526 0.00094,0.03913 0.184904,0.991046 0.408822,2.11546 l .5168,2.0444 .0086,2.9783 c 0.0086,2.88107 0.0028,2.98442 -0.145077,3.16348 -0.163044,0.196814 -0.492584,0.21375 -1.44783,0.10304 z  m 2.9181,-13.1304 c -0.05475,-1.26341 -0.120351,-2.39137 -0.145718,-2.50659 -0.03593,-0.162585 -0.204739,0.224346 -0.754219,1.72837 -0.389371,1.06582 -0.719124,1.96421 -0.732771,1.99645 -0.02639,0.06233 1.64807,1.15074 1.70096,1.10557 0.01726,-0.01473 -0.01283,-1.06038 -0.06831,-2.32379 z  m -3.9526,-6.0978 c 0.04721,-0.150554 -0.0087,-0.163937 -0.75948,-0.136457 l -.8103,.026 -1.6777,3.9393 1.4717,.9226 c 0,0 1.11566,-2.92301 1.77584,-4.75136 z "/>
</g>
<g style="fill:#a1b85a" id="g12">
<path id="path5692_1_" d="m 9.1834,1.5395 c -0.103796,0.0159739 -0.215205,0.0504512 -0.289815,0.133081 l -3.4462,3.809 c -0.144718,0.160451 -0.151631,0.395288 -0.0305549,0.574703 l 4.5888,6.787 c -0.689381,1.30289 -1.23268,2.69066 -1.591,4.15108 l -7.7067,2.0061 c -0.21447,0.05563 -0.362035,0.269828 -0.35093,0.4919 l .2563,5.126 c 0.010837,0.21671 0.18494,0.394107 0.397268,0.434721 l 7.6427,1.4559 c 0.487072,1.64567 1.19059,3.20859 2.08887,4.61929 l -4.0435,6.8826 c -0.112769,0.192218 -0.076536,0.439283 0.088723,0.588502 l 3.809,3.4463 c 0.160448,0.144707 0.395783,0.152072 0.574701,0.03053 l 6.6529,-4.503 c 1.38453,0.709643 2.87256,1.25917 4.42808,1.5969 l 1.9814,7.6091 c 0.05566,0.215098 0.250271,0.363013 0.472185,0.351916 l 5.126,-.2563 c 0.215132,-0.01076 0.395127,-0.16459 0.435706,-0.377553 l 1.5063,-7.823 c 1.56155,-0.505951 3.02226,-1.21416 4.36201,-2.09577 l 6.9842,4.0978 c 0.192499,0.112126 0.438322,0.0763 0.588503,-0.0887 l 3.4265,-3.808 c 0.145655,-0.160655 0.171794,-0.396768 0.05027,-0.575688 l -4.6447,-5.4684 c -2.91617,-3.34195 -0.170913,-0.115887 -2.99108,-3.36006 -2.19181,4.87553 -6.98402,8.37372 -12.6908,8.6591 -8.10911,0.405511 -15.0169,-5.84432 -15.4224,-13.9534 -0.298285,-5.96489 2.94054,-10.3316 5.99189,-12.5261 l 1.8241,-5.0799 c -0.91334,0.371866 -1.79175,0.809525 -2.62209,1.31718 -0.0016,-0.0008399 0.00066,-0.018846 -0.000986,-0.019715 l -7.1468,-4.1885 c -0.096098,-0.056231 -0.194893,-0.060342 -0.298687,-0.044358 z "/>
<path id="path3856" d="m 25.8762,26.7107 c -0.344228,-0.03992 -0.7878,-0.208565 -0.911189,-0.357554 l .0043,-6.1555 -.4074,-1.9558 -.4074,-1.9558 -2.2494,4.7757 c -1.23719,2.62666 -2.3703,4.92926 -2.51807,5.11689 -0.375099,0.476266 -0.593127,0.454913 -1.23984,-0.121351 -0.553799,-0.493506 -0.677971,-0.738994 -0.605762,-1.19759 0.06502,-0.413189 0.0086,-0.287608 2.64765,-5.88694 1.30791,-2.77501 2.39193,-5.13341 2.40895,-5.2409 0.02652,-0.167225 -0.08542,-0.27042 -0.774937,-0.714937 -0.796283,-0.51332 -0.807178,-0.517259 -0.91535,-0.330817 -0.192149,0.331136 -0.467601,0.234759 -1.00522,-0.351678 -0.737749,-0.804762 -0.763316,-0.675268 0.863061,-4.37185 0.737406,-1.67607 1.42211,-3.14973 1.52154,-3.27481 l .1808,-.2274 6.4608,-.0528 -.1103,-.4284 c -0.256873,-0.998049 0.0043,-2.22125 0.628988,-2.94781 1.06029,-1.23284 2.76368,-0.823403 3.4318,0.824895 0.251838,0.621304 0.276145,1.61728 0.05675,2.32277 -0.330494,1.06248 -1.10037,1.70742 -2.03821,1.70742 -0.493838,0 -0.518407,0.010643 -0.484868,0.196642 0.18063,4.03518 0.478107,11.0649 0.478107,11.0649 0,0 2.50264,1.7297 3.24707,2.00137 0.580282,-0.993724 1.85207,-3.27945 2.05961,-3.39834 1.44089,-0.244571 2.97602,-0.258801 4.41212,0.01194 2.45683,3.47221 4.85706,7.28568 7.03392,11.0329 l -17.9066,.0436 3.5815,-6.4935 c -0.01555,-0.01578 -2.44668,-1.56999 -3.91421,-2.50501 -2.38705,-1.52087 -2.87466,-1.78182 -2.86875,-1.53526 0.00094,0.03913 0.184904,0.991046 0.408822,2.11546 l .5168,2.0444 .0086,2.9783 c 0.0086,2.88107 0.0028,2.98442 -0.145077,3.16348 -0.163044,0.196814 -0.492584,0.21375 -1.44783,0.10304 z  m 2.9187,-13.1306 c -0.05475,-1.26341 -0.120351,-2.39137 -0.145718,-2.50659 -0.03593,-0.162585 -0.204739,0.224346 -0.754219,1.72837 -0.389371,1.06582 -0.719124,1.96421 -0.732771,1.99645 -0.02639,0.06233 1.64807,1.15074 1.70096,1.10557 0.01726,-0.01473 -0.01283,-1.06038 -0.06831,-2.32379 z  m -3.9533,-6.0975 c 0.04721,-0.150554 -0.0087,-0.163937 -0.75948,-0.136457 l -.8104,.026 -1.6777,3.9393 1.4717,.9226 c 0,0 1.11575,-2.92299 1.77594,-4.75136 z "/>
</g>
</svg>
