<svg width="60.0000000" version="1.0" xmlns="http://www.w3.org/2000/svg" height="60.0000000">
<g style="font-family:'VAG Rounded Black SSi'">
<g style="stroke:none;fill-rule:evenodd">
<path style="fill:#f00000" id="rect602" d="m 1.8815,0.0404 44.2088,0 c 1.04228,0 1.88137,0.839093 1.88137,1.88137 l 0,39.1845 c 0,1.04228 -0.839093,1.88137 -1.88137,1.88137 l -44.2088,0 c -1.04228,0 -1.88137,-0.839094 -1.88137,-1.88137 l 0,-39.1845 C 1.3e-4,0.87949 0.839223,0.0404 1.8815,0.0404 Z"/>
<path style="fill:#3c3c3c" id="rect603" d="m 1.8815,0.0407 44.2088,0 c 1.04228,0 1.88141,0.839093 1.88137,1.88138 l -2e-4,6.0499 -47.9715,0 2e-4,-6.0499 C 2.044559e-4,0.8798 0.839263,0.0407 1.88155,0.0407 Z"/>
</g>
<path style="fill:none;stroke:#fff;stroke-linejoin:round;stroke-linecap:round;stroke-width:2.166" id="path604" d="m 44.9062,2.1804 -3.7258,3.7258 m -.0866,-3.8125 3.8125,3.8125"/>
<g style="stroke:none;fill-rule:evenodd">
<path style="fill:#007cc8" id="rect633" d="m 14.0217,15.0516 44.1086,0 c 1.04228,0 1.88137,0.839093 1.88137,1.88137 v 41.1856 c 0,1.04228 -0.839093,1.88138 -1.88137,1.88138 h -44.1086 c -1.04228,0 -1.88137,-0.839092 -1.88137,-1.88137 v -41.1856 c 0,-1.04228 0.839093,-1.88138 1.88137,-1.88138 z "/>
<path style="fill:#3c3c3c" id="rect634" d="m 14.0216,15.0516 44.1087,0 c 1.04228,0 1.88136,0.839093 1.88137,1.88137 l 10e-5,6.05 -47.8714,0 -1e-4,-6.05 c -1.7e-5,-1.04228 0.839093,-1.88137 1.88138,-1.88137 z"/>
</g>
<path style="fill:none;stroke:#fff;stroke-linejoin:round;stroke-linecap:round;stroke-width:2.166" id="path635" d="m 56.9062,17.1804 -3.7258,3.7258 m -.0866,-3.8125 3.8125,3.8125"/>
<g style="stroke:none">
<g style="fill-rule:evenodd">
<path style="opacity:.4" id="path4186" d="m 4.1396,22.4997 c 6.50908,20.9539 18.7649,17.9661 18.8991,17.9661 l 0,-6.59142 9.7176,9.949 -9.7846,9.6236 0,-6.1052 c 0,0 -18.9717,2.0579 -18.8321,-24.8421 z"/>
<path style="fill:#fff" id="path968" d="m 4.1396,21.1 c 6.50908,20.9539 18.7649,17.96612 18.8991,17.96612 l 0,-6.59142 9.7176,9.949 -9.7846,9.6236 0,-6.1052 C 22.9717,45.9421 4,48 4.1396,21.09998 Z"/>
</g>
<path style="fill:#fff;font-weight:900" id="path837" d="m 42.2289,44.5161 0,-3.3713 c 0,-0.694686 0.14303,-1.22591 0.429071,-1.59369 0.286042,-0.367775 0.633389,-0.619769 1.04203,-0.75598 0.408639,-0.136204 1.0216,-0.279241 1.83887,-0.429068 2.12491,-0.395018 3.18738,-1.46429 3.18738,-3.20781 0,-0.708305 -0.286043,-1.34169 -0.858139,-1.90016 -0.558472,-0.572091 -1.29402,-0.858138 -2.20665,-0.858138 -0.844518,0 -1.51196,0.163438 -2.00232,0.490366 -0.476746,0.326911 -0.953491,0.80365 -1.43023,1.43023 -0.463122,0.612957 -0.912621,1.08289 -1.3485,1.4098 -0.42226,0.313276 -1.00117,0.469931 -1.7367,0.469931 -0.830897,0 -1.54602,-0.313276 -2.14535,-0.939865 -0.585711,-0.640201 -0.878572,-1.38937 -0.878572,-2.24751 0,-1.49834 0.490365,-2.81279 1.4711,-3.94335 0.980731,-1.13056 2.20665,-1.99551 3.67775,-2.59485 1.4711,-0.599334 2.93538,-0.899005 4.39287,-0.899005 1.43024,0 2.76512,0.211141 4.00466,0.633391 1.23954,0.422257 2.33604,1.04202 3.28953,1.85929 0.953488,0.817277 1.69585,1.81163 2.22707,2.98306 0.544851,1.15781 0.817276,2.45182 0.817276,3.88206 0,2.56079 -0.64701,4.54951 -1.94103,5.96612 -1.2804,1.40299 -3.04435,2.33604 -5.29186,2.79916 v 0.817275 c 0,0.65382 -0.143031,1.23273 -0.429066,1.73671 -0.272442,0.490365 -0.660633,0.878571 -1.16462,1.16462 -0.490366,0.272442 -1.04884,0.40864 -1.67541,0.40864 -0.626575,0 -1.19186,-0.136205 -1.69585,-0.40864 -0.490366,-0.286043 -0.878572,-0.674251 -1.16462,-1.16462 -0.272443,-0.503986 -0.408639,-1.08289 -0.408639,-1.73671 z  m -.3679,8.8061 c 0,-0.653819 0.163439,-1.25997 0.490368,-1.81844 0.340544,-0.572093 0.790031,-1.02841 1.3485,-1.36894 0.558475,-0.340545 1.15781,-0.510796 1.798,-0.510796 0.6402,0 1.23953,0.170272 1.798,0.510796 0.558475,0.340544 1.00117,0.796843 1.32807,1.36894 0.340544,0.558471 0.510797,1.16462 0.510797,1.81844 0,0.667444 -0.170273,1.28721 -0.510797,1.85931 -0.32691,0.558469 -0.776412,1.00116 -1.34851,1.32807 -0.558492,0.326926 -1.15102,0.490382 -1.77759,0.490382 -0.626576,0 -1.22591,-0.163439 -1.798,-0.490366 -0.55847,-0.32691 -1.00797,-0.769601 -1.3485,-1.32807 -0.326909,-0.572095 -0.490365,-1.19186 -0.490365,-1.85931 z "/>
</g>
</g>
</svg>
