<svg width="48" version="1.1" xmlns="http://www.w3.org/2000/svg" height="48" xmlns:xlink="http://www.w3.org/1999/xlink">
<defs>
<linearGradient id="linearGradient3654">
<stop offset="0" style="stop-color:#f2b200"/>
<stop offset="0.25" style="stop-color:#f2b200"/>
<stop offset="0.25" style="stop-color:#e5a800"/>
<stop offset="0.5" style="stop-color:#e5a800"/>
<stop offset="0.5" style="stop-color:#cc9600"/>
<stop offset="0.75" style="stop-color:#cc9600"/>
<stop offset="0.75" style="stop-color:#bf8d00"/>
<stop offset="1" style="stop-color:#bf8d00"/>
</linearGradient>
<linearGradient gradientTransform="matrix(0.65625,0,0,0.65882353,21.75,18.352941)" xlink:href="#linearGradient3654" id="linearGradient3656" y1="33.6406" x1="8" y2="33.6406" x2="40" gradientUnits="userSpaceOnUse"/>
<linearGradient gradientTransform="matrix(0.8351275,0,0,-0.8351275,3.9569245,41.04371)" xlink:href="#linearGradient2" id="linearGradient13" y1="45.746204" x1="20.966547" y2="30.711494" x2="29.275286" gradientUnits="userSpaceOnUse"/>
<linearGradient id="linearGradient2">
<stop offset="0"/>
<stop offset="1" style="stop-color:#e3e3e3"/>
</linearGradient>
<linearGradient gradientTransform="matrix(0.8351275,0,0,-0.8351275,3.9569245,41.04371)" xlink:href="#linearGradient2" id="linearGradient3" y1="15.193" x1="19.876" y2="15.193" x2="21.458" gradientUnits="userSpaceOnUse"/>
</defs>
<circle cx="24" cy="-24" style="fill:#5c5c5c" r="24" transform="scale(1,-1)"/>
<path style="fill:#f2f2f2;fill-rule:evenodd" d="m 22.4121,39.3735 -.1737,-.695 -2.5293,-1.7808 v -20.2978 c -3.245,-1.20223 -5.2091,-3.6761 -5.2091,-6.76893 0,-3.79308 3.72313,-7.26427 9.47828,-7.20313 5.75516,0.061135 9.53022,3.30792 9.52171,7.20313 -0.0067,3.0643 -2.00781,5.80647 -5.38291,6.81237 v 4.14014 l -2.9199,1.8243 v 1.21617 l 2.0547,.8253 v 1.95455 l -1.8376,.3475 v 1.86769 l 2.7487,.8687 v 1.60708 l -2.3144,1 v 1.3899 l 2.4447,1.1728 v 1.52021 l -3.2602,2.997 z  m 1.5662,-28.8745 c 1.69809,0 3.27886,-1.39774 3.20372,-2.93631 -0.07514,-1.53857 -1.50563,-2.98022 -3.20372,-2.98022 -1.69809,0 -3.16011,1.29136 -3.16011,2.98022 0,1.68886 1.46202,2.93631 3.16011,2.93631 z "/>
<path style="opacity:.35;fill:url(#linearGradient3)" d="m 20.5559,37.4861 1.3212,.9186 v -20.0982 c 0,0 -1.32117,0.656275 -1.32117,1.67026 z "/>
<g style="fill-rule:evenodd;color:#000">
<path style="opacity:.2;fill:url(#linearGradient13)" d="m 20.3561,15.7012 c -2.75512,-1.03866 -4.42193,-3.1755 -4.42193,-5.84752 0,-3.277 3.16157,-6.27549 8.04789,-6.22268 4.88632,0.052809 8.09101,2.85744 8.08378,6.22268 -0.0057,2.64738 -1.70479,5.016 -4.57037,5.88504 -2.403,0.654976 -4.71126,0.666804 -7.13936,-0.03751 z  m 3.6227,-5.2016 c 1.69809,0 3.27864,-1.39906 3.2035,-2.93763 -0.07514,-1.53857 -1.5054,-2.98003 -3.2035,-2.98003 -1.69809,0 -3.16109,1.29117 -3.16109,2.98003 0,1.68886 1.463,2.93763 3.16109,2.93763 z "/>
<path style="fill:#a6a6a6" d="m 37.5106,17.6 c -4.74306,0 -8.01057,3.6271 -8.01057,8.09076 v 4.90924 h 3.96299 l -.021,-4.235 c -0.0133,-2.6943 1.34915,-4.71962 4.04744,-4.71962 2.69829,0 4.03449,2.09743 4.04745,4.71962 l .0209,4.235 h 3.94221 v -4.90924 c 0,-4.46366 -3.28851,-8.09076 -7.98951,-8.09076 Z "/>
<path style="fill:#b5b5b5" d="m 37.5106,17.9371 c -4.57102,0 -7.67328,3.45442 -7.67328,7.75365 v 4.57212 h 3.28723 l -.0198,-3.8966 c -0.0069,-1.40436 0.342315,-2.66166 1.08037,-3.58185 0.738058,-0.920195 1.87078,-1.4762 3.30436,-1.4762 1.43659,0 2.56233,0.577244 3.29514,1.50517 0.73281,0.927922 1.08284,2.18237 1.08959,3.55024 l .0198,3.8992 h 3.26879 v -4.57212 c 0,-4.29822 -3.12477,-7.75365 -7.65223,-7.75365 z "/>
<path style="fill:#c4c4c4" d="m 37.5106,18.2742 c -4.401,0 -7.33599,3.2794 -7.33599,7.41653 v 4.57195 h 2.61133 l -.0185,-3.8951 c -0.0073,-1.46121 0.354794,-2.79725 1.15416,-3.79386 0.801927,-1 2.04704,-1.60261 3.56783,-1.60261 1.52698,0 2.76522,0.626555 3.55996,1.6329 0.792044,1.00293 1.15503,2.33397 1.16206,3.75831 l .0185,3.9004 h 2.59556 v -4.57195 c 0,-4.13479 -2.9592,-7.41653 -7.31494,-7.41653 z "/>
<path style="fill:#d6d6d6" d="m 37.5105,18.6113 c -4.23336,0 -6.99871,3.10164 -6.99871,7.07942 v 4.50453 h 1.93544 l -.0171,-3.8263 c -0.0075,-1.51787 0.367648,-2.93328 1.22794,-4.00588 0.867117,-1.08109 2.22138,-1.72903 3.83137,-1.72903 1.61929,0 2.96666,0.674231 3.82478,1.76064 0.850907,1.07747 1.22721,2.48583 1.23452,3.96637 l .0171,3.8343 h 1.92227 v -4.50453 c 0,-3.97399 -2.79142,-7.07942 -6.97765,-7.07942 z "/>
<path style="fill:#e8e8e8" d="m 37.5105,18.9485 c -4.06853,0 -6.66141,2.92069 -6.66141,6.7423 v 4.50453 h 1.25955 l -.0158,-3.8251 c -0.0078,-1.57442 0.380785,-3.06969 1.30172,-4.21789 0.93318,-1.16346 2.39434,-1.85545 4.09488,-1.85545 1.71293,0 3.16713,0.720287 4.08961,1.88837 0.909509,1.15166 1.29939,2.63786 1.30698,4.17444 l .0158,3.8355 h 1.24902 v -4.50453 c 0,-3.81617 -2.62103,-6.7423 -6.64034,-6.7423 z "/>
<path style="fill:#f2f2f2" d="m 37.5105,19.2856 c -3.90702,0 -6.32413,2.73599 -6.32413,6.40519 v 4.43711 h 0.583664 l -.0145,-3.7563 c -0.0081,-1.63091 0.39414,-3.20637 1.37549,-4.42991 1,-1.24656 2.5663,-1.98186 4.35838,-1.98186 1.80753,0 3.36692,0.765683 4.35443,2.01611 0.967887,1.2256 1.37159,2.79 1.37944,4.3825 l .0145,3.7694 h 0.575759 v -4.43711 c 0,-3.66185 -2.44753,-6.40519 -6.30304,-6.40519 z "/>
</g>
<path style="fill:url(#linearGradient3656)" d="M 27,30 V 48 H 48 V 30 Z"/>
</svg>
