<svg width="48" version="1.1" xmlns="http://www.w3.org/2000/svg" height="48" xmlns:xlink="http://www.w3.org/1999/xlink">
<defs>
<linearGradient id="linearGradient2">
<stop offset="0"/>
<stop offset="1" style="stop-color:#e3e3e3"/>
</linearGradient>
<linearGradient gradientTransform="matrix(0.8351275,0,0,-0.8351275,3.9569245,41.043709)" xlink:href="#linearGradient2" id="linearGradient3" y1="15.193" x1="19.876" y2="15.193" x2="21.458" gradientUnits="userSpaceOnUse"/>
<linearGradient gradientTransform="matrix(0.8351275,0,0,-0.8351275,3.9569245,41.043709)" xlink:href="#linearGradient2" id="linearGradient13" y1="45.628723" x1="20.403187" y2="30.674992" x2="29.194178" gradientUnits="userSpaceOnUse"/>
</defs>
<circle cx="24" cy="-24" style="fill:#008000" r="24" transform="scale(1,-1)"/>
<path style="fill:#f2f2f2;fill-rule:evenodd" d="m 22.4121,39.3735 -.1737,-.695 -2.5293,-1.7808 v -20.2978 c -3.245,-1.20223 -5.2091,-3.6761 -5.2091,-6.76893 0,-3.79308 3.72313,-7.26426 9.47828,-7.20313 5.75516,0.061132 9.53022,3.30791 9.52171,7.20313 -0.0067,3.0643 -2.00781,5.80647 -5.38291,6.81237 v 4.14014 l -2.9199,1.8243 v 1.21617 l 2.0547,.8253 v 1.95455 l -1.8376,.3475 v 1.86769 l 2.7487,.8687 v 1.60708 l -2.3144,1 v 1.3899 l 2.4447,1.1728 v 1.52021 l -3.2602,2.997 z  m 1.5662,-28.8745 c 1.69809,0 3.27886,-1.39774 3.20372,-2.93631 -0.07514,-1.53857 -1.50563,-2.98022 -3.20372,-2.98022 -1.69809,0 -3.16011,1.29136 -3.16011,2.98022 0,1.68886 1.46202,2.93631 3.16011,2.93631 z "/>
<path style="opacity:.35;fill:url(#linearGradient3)" d="m 20.5559,37.4861 1.3212,.9186 v -20.0982 c 0,0 -1.32117,0.656276 -1.32117,1.67025 z "/>
<path style="opacity:.2;fill:url(#linearGradient13);fill-rule:evenodd" d="m 20.3561,15.7012 c -2.75512,-1.03866 -4.42193,-3.1755 -4.42193,-5.84752 0,-3.277 3.16157,-6.27549 8.04789,-6.22268 4.88632,0.052814 8.09101,2.85744 8.08378,6.22268 -0.0057,2.64738 -1.70479,5.016 -4.57037,5.88504 -2.403,0.654976 -4.71126,0.666803 -7.13936,-0.03751 z  m 3.6227,-5.2016 c 1.69809,0 3.27864,-1.39906 3.2035,-2.93763 -0.07514,-1.53857 -1.5054,-2.98004 -3.2035,-2.98004 -1.69809,0 -3.16109,1.29117 -3.16109,2.98004 0,1.68886 1.463,2.93763 3.16109,2.93763 z "/>
</svg>
