<svg width="48" version="1.1" xmlns="http://www.w3.org/2000/svg" viewBox="0 0 48 48" height="48" xmlns:xlink="http://www.w3.org/1999/xlink">
<defs>
<linearGradient gradientTransform="matrix(0.75294118,0,0,0.75294118,17.882353,14.117647)" xlink:href="#linearGradient3654" id="linearGradient3656" y1="33.6406" x1="8" y2="33.6406" x2="40" gradientUnits="userSpaceOnUse"/>
<linearGradient gradientTransform="scale(0.375)" id="d" y1="-3.314" x1="64" y2="118.486" x2="64" gradientUnits="userSpaceOnUse">
<stop offset="0" style="stop-color:#414141"/>
<stop offset=".196" style="stop-color:#3e3e3e"/>
<stop offset="1" style="stop-color:#3a3a3a"/>
</linearGradient>
<linearGradient id="linearGradient3654">
<stop offset="0" style="stop-color:#f2b200"/>
<stop offset="0.25" style="stop-color:#f2b200"/>
<stop offset="0.25" style="stop-color:#e5a800"/>
<stop offset="0.5" style="stop-color:#e5a800"/>
<stop offset="0.5" style="stop-color:#cc9600"/>
<stop offset="0.75" style="stop-color:#cc9600"/>
<stop offset="0.75" style="stop-color:#bf8d00"/>
<stop offset="1" style="stop-color:#bf8d00"/>
</linearGradient>
<radialGradient fx="583.1496" fy="-473.01779" cx="583.1496" cy="-473.01779" gradientTransform="matrix(0.1327125,0,0,0.1327125,-53.481225,69.572812)" id="s" r="223.5101" gradientUnits="userSpaceOnUse">
<stop offset="0" style="stop-color:#f5f5f5"/>
<stop offset=".5286" style="stop-color:#f2f2f2"/>
</radialGradient>
<radialGradient fx="572.9563" fy="-375.53009" cx="572.9563" cy="-375.53009" gradientTransform="matrix(0.1327125,0,0,0.1327125,-53.481225,69.572812)" id="f" r="207.2339" gradientUnits="userSpaceOnUse">
<stop offset=".6733" style="stop-color:#fcfcfc;stop-opacity:0"/>
<stop offset="1" style="stop-color:#fcfcfc"/>
</radialGradient>
<radialGradient fx="615.20837" fy="-390.2547" cx="615.20837" cy="-390.2547" gradientTransform="matrix(0.12585,0,0,0.20895,-53.4564,96.215663)" id="p" r="96.585098" gradientUnits="userSpaceOnUse">
<stop offset="0"/>
<stop offset=".7842" style="stop-color:#4f4f4f;stop-opacity:0"/>
</radialGradient>
<radialGradient fx="587.04761" fy="-451.59729" cx="587.04761" cy="-451.59729" gradientTransform="matrix(0.1327125,0,0,0.075975,-53.481225,44.2221)" id="l" r="334.8364" gradientUnits="userSpaceOnUse">
<stop offset="0" style="stop-color:#262626"/>
<stop offset="1" style="stop-color:#525252"/>
</radialGradient>
<radialGradient fx="581.30212" fy="-348.23251" cx="581.30212" cy="-348.23251" gradientTransform="matrix(0.1327125,0,0,0.1327125,-53.481225,69.572812)" id="h" r="172.3893" gradientUnits="userSpaceOnUse">
<stop offset=".1088" style="stop-color:#0f0f0d;stop-opacity:0"/>
<stop offset=".8856" style="stop-color:#414141;stop-opacity:0"/>
<stop offset=".9339" style="stop-color:#1e1e1d;stop-opacity:.684"/>
<stop offset=".9874" style="stop-color:#0f0f0d"/>
</radialGradient>
<radialGradient fx="584.54242" fy="-453.36301" cx="584.54242" cy="-453.36301" gradientTransform="matrix(0.1327125,0,0,0.1327125,-53.481225,69.572812)" id="n" r="65.392502" gradientUnits="userSpaceOnUse">
<stop offset="0" style="stop-color:#9e9e9e"/>
<stop offset="1" style="stop-color:#808080"/>
</radialGradient>
</defs>
<g style="isolation:isolate;mix-blend-mode:lighten">
<rect width="48" x="0" y="0" height="48" style="fill:none"/>
<path style="fill:url(#d)" d="M 24,46.8375 C 11.4073,46.8375 1.1625,36.5926 1.1625,24 1.1625,11.4074 11.4074,1.1625 24,1.1625 36.5927,1.1625 46.8375,11.4073 46.8375,24 46.8375,36.5927 36.5928,46.8375 24,46.8375 Z M 24,3.084 C 12.4719,3.084 3.0932,12.46687 3.0932,24 3.0932,35.5331 12.47195,44.916 24,44.916 35.5281,44.916 44.9067,35.53305 44.9067,24 44.9067,12.467 35.52806,3.084 24,3.084 Z"/>
<path style="opacity:.32;fill:url(#f)" d="M 24,1.1714 C 11.4122,1.1714 1.1714,11.4122 1.1714,24 1.1714,36.5877 11.4122,46.8286 24,46.8286 36.5878,46.8286 46.8285,36.5877 46.8285,24 46.8285,11.4123 36.5878,1.1714 24,1.1714 Z"/>
<path style="opacity:.44;fill:url(#h)" d="M 24,46.8375 C 11.4073,46.8375 1.1625,36.5926 1.1625,24 1.1625,11.4074 11.4074,1.1625 24,1.1625 36.5927,1.1625 46.8375,11.4073 46.8375,24 46.8375,36.5927 36.5928,46.8375 24,46.8375 Z M 24,3.084 C 12.4719,3.084 3.0932,12.46687 3.0932,24 3.0932,35.5331 12.47195,44.916 24,44.916 35.5281,44.916 44.9067,35.53305 44.9067,24 44.9067,12.467 35.52806,3.084 24,3.084 Z"/>
<path d="m 24,3.2064 c -11.6169,0 -21.0678,9.45094 -21.0678,21.0678 0,11.6169 9.45094,21.0678 21.0678,21.0678 11.6169,0 21.0678,-9.45105 21.0678,-21.0678 C 45.0678,12.6575 35.61694,3.2064 24,3.2064 Z"/>
<path style="opacity:.35;fill:#0f0f0d" d="M 24,46.8375 C 11.4073,46.8375 1.1625,36.5926 1.1625,24 1.1625,11.4074 11.4074,1.1625 24,1.1625 36.5927,1.1625 46.8375,11.4073 46.8375,24 46.8375,36.5927 36.5928,46.8375 24,46.8375 Z M 24,1.6513 C 11.4074,1.6513 1.1625,11.7599 1.1625,24.185 1.1625,36.6101 11.4074,46.7187 24,46.7187 36.5927,46.7187 46.8375,36.61 46.8375,24.185 46.8375,11.76 36.5927,1.6513 24,1.6513 Z"/>
<path style="opacity:.7;fill:url(#n)" d="m 24,4.823 c -3.4353,0 -6.2301,2.7948 -6.2301,6.23006 0,3.43526 2.7948,6.23006 6.2301,6.23006 3.4353,0 6.23006,-2.7948 6.23006,-6.23006 C 30.22996,7.6178 27.4352,4.823 24,4.823 Z"/>
<g style="mix-blend-mode:multiply">
<path style="opacity:.3;fill:url(#p)" d="m 13.0077,6.1367 c 0,0.00716 -0.002,0.014175 -0.003,0.021338 -0.02719,0.0051 -0.0276,-0.00139 0.003,-0.021338 z m 15.7941,13.425 -0.2893,5.1683 3.4134,3.7187 -3.4134,3.7187 2.2563,2.4581 -2.2563,2.4581 0.2893,5.1261 h -9.60375 v -22.648 c -3.81836,-1.9539 -6.4218,-6.17677 -6.4218,-11.0299 0,-0.812213 0.1137,-1.56266 0.228375,-2.37375 0.414225,-0.078075 7.11274,-2.88551 7.11274,-2.88551 -0.05561,0.30345 7.82066,0.30345 7.76505,0 0,0 6.47164,2.78464 7.12091,2.92121 0.16425,0.7974 0.220238,1.53787 0.220238,2.33805 0,4.85318 -2.6613,9.07609 -6.4218,11.03 z M 34.9922,6.1366 c 0.004,0.019163 0.0073,0.037913 0.01121,0.057037 0.0711,0.014963 0.0735,-0.00131 -0.01121,-0.057037 z"/>
<path style="opacity:.2;fill:#0f0f0d" d="M 12.7935,37.662 C 9.08186,34.43396 6.732,29.67566 6.732,24.3507 c 0,-6.19601 3.24034,-11.9154 8.5773,-15.1088 -0.09529,0.619613 -0.190613,1.19153 -0.190613,1.81114 0,3.66994 2.14433,6.86325 5.28934,8.34079 v 16.7292 l 3.9551,3.9559 3.9551,-3.9559 -0.2383,-3.4793 1.8584,-1.8588 -1.8584,-1.8588 2.8115,-2.812 -2.8115,-2.812 0.2383,-3.9082 c 3.09735,-1.4775 5.28934,-4.67085 5.28934,-8.34079 0,-0.619612 -0.04766,-1.19153 -0.190613,-1.81114 1.93661,1.16918 3.59707,2.6781 4.92821,4.42395 -3.21904,-4.42084 -8.44849,-7.29701 -14.3537,-7.29701 -9.78416,0 -17.7158,7.89375 -17.7158,17.6312 0,5.50988 2.5401,10.4288 6.51784,13.6619 z M 23.0766,34.7886 H 21.74235 V 21.5863 H 23.0766 Z M 21.1705,20.2518 c 1.04835,-0.19065 2.14433,-0.285975 3.19268,-0.285975 1.09597,-0.04766 2.14432,0.09533 3.19268,0.285975 0.04766,0.238313 0.09533,0.476625 0.09533,0.7149 0,1.81114 -1.4772,3.28868 -3.28796,3.28868 -1.81076,0 -3.28796,-1.4775 -3.28796,-3.28868 0,-0.238313 0.04766,-0.476587 0.09532,-0.7149 z"/>
</g>
<path style="fill:url(#l)" d="M 24,3.084 C 12.4668,3.084 3.084,12.46684 3.084,24 3.084,35.5331 12.46684,44.916 24,44.916 35.5332,44.916 44.9159,35.53309 44.9159,24 44.9159,12.467 35.53314,3.084 24,3.084 Z"/>
<path style="fill:url(#s)" d="M 24,3.084 C 12.4719,3.084 3.0932,12.46684 3.0932,24 3.0932,35.5331 12.47195,44.916 24,44.916 35.528,44.916 44.9067,35.53305 44.9067,24 44.9067,12.467 35.52806,3.084 24,3.084 Z m -3.1927,3.5956 c 1.04835,-0.19065 2.14432,-0.285975 3.19268,-0.285975 1.09597,-0.047662 2.14432,0.095325 3.19268,0.285975 0.04766,0.238313 0.09532,0.476625 0.09532,0.7149 0,1.81114 -1.4772,3.28868 -3.28796,3.28868 -1.81076,0 -3.28796,-1.4775 -3.28796,-3.28868 0,-0.238313 0.04766,-0.476587 0.09533,-0.7149 z m 1.9061,14.5368 V 34.4187 H 21.37915 V 21.2164 Z M 24,41.6156 c -9.72094,0 -17.6311,-7.86416 -17.6311,-17.6348 0,-6.19601 3.24034,-11.9154 8.5773,-15.1088 -0.09529,0.619613 -0.190612,1.19153 -0.190612,1.81114 0,3.66994 2.14433,6.86325 5.28934,8.34079 v 16.7292 l 3.9551,3.9559 3.9551,-3.9559 -0.2383,-3.4793 1.8584,-1.8588 -1.8584,-1.8588 2.8115,-2.812 -2.8115,-2.812 0.2383,-3.9082 c 3.09735,-1.4775 5.28934,-4.67085 5.28934,-8.34079 0,-0.619612 -0.04766,-1.19152 -0.190613,-1.81114 5.28934,3.19335 8.52964,8.91274 8.5773,15.1087 0,9.72296 -7.86255,17.6348 -17.6311,17.6348 z"/>
</g>
<g style="color:#000;stroke-width:.753">
<g style="fill-rule:evenodd">
<path style="fill:#6b6b6b" d="m 35.9765,16 c -5.29408,0 -8.94118,4.05053 -8.94118,9.03529 v 5.48235 h 4.42338 l -0.0234,-4.7294 c -0.01485,-3.00884 1.50588,-5.27059 4.51765,-5.27059 3.01176,0 4.50319,2.34229 4.51765,5.27059 l 0.0233,4.7294 h 4.40019 V 25.03529 C 44.894093,20.05053 41.22354,16 35.97641,16 Z"/>
<path style="fill:#7d7d7d" d="m 35.9765,16.3765 c -5.10205,0 -8.56471,3.85769 -8.56471,8.65882 v 5.10588 h 3.66912 l -.0221,-4.3515 c -0.0077,-1.56831 0.382083,-2.97239 1.20588,-4 0.823801,-1.02762 2.08812,-1.64853 3.68824,-1.64853 1.60348,0 2.86,0.644632 3.67795,1.68088 0.817942,1.03625 1.20864,2.43714 1.21617,3.9647 l .0221,4.3544 h 3.64853 v -5.10588 c 0,-4.8 -3.48779,-8.65882 -8.54121,-8.65882 z "/>
<path style="fill:#8f8f8f" d="m 35.9765,16.7529 c -4.91228,0 -8.18824,3.66224 -8.18824,8.28235 v 5.10569 h 2.9147 l -.0206,-4.3498 c -0.0081,-1.6318 0.396012,-3.1238 1.28824,-4.23676 0.895089,-1.11654 2.28485,-1.7897 3.98232,-1.7897 1.70437,0 3.08646,0.6997 3.97353,1.82353 0.884058,1.12001 1.28921,2.60644 1.29706,4.19706 l .0206,4.3557 h 2.89709 v -5.10569 c 0,-4.61749 -3.30298,-8.28235 -8.16474,-8.28235 z "/>
<path style="fill:#ababab" d="m 35.9764,17.1294 c -4.72516,0 -7.81177,3.46373 -7.81177,7.90588 v 5.0304 h 2.16029 l -.0191,-4.273 c -0.0084,-1.69507 0.410359,-3.27572 1.37059,-4.47353 0.967853,-1.2073 2.47944,-1.93088 4.27647,-1.93088 1.80741,0 3.31131,0.752942 4.26912,1.96618 0.94976,1.20325 1.36978,2.77603 1.37794,4.42941 l .0191,4.2819 h 2.14559 v -5.0304 c 0,-4.43792 -3.11571,-7.90588 -7.78827,-7.90588 z "/>
<path style="fill:#c2c2c2" d="m 35.9764,17.5059 c -4.54118,0 -7.43529,3.26166 -7.43529,7.52941 v 5.0304 h 1.40588 l -.0176,-4.2716 c -0.0087,-1.75822 0.425021,-3.42805 1.45294,-4.71029 1.04159,-1.29928 2.6725,-2.07206 4.57059,-2.07206 1.91193,0 3.53507,0.804375 4.56471,2.10882 1.01517,1.28611 1.45035,2.94581 1.45882,4.66177 l .0176,4.2833 h 1.39412 v -5.0304 c 0,-4.26168 -2.92552,-7.52941 -7.41177,-7.52941 z "/>
<path style="fill:#d4d4d4" d="m 35.9764,17.8824 c -4.36091,0 -7.05882,3.05539 -7.05882,7.15294 v 4.95511 h 0.65147 l -.0162,-4.1948 c -0.009,-1.8213 0.439928,-3.58069 1.53529,-4.94706 1.11598,-1.39208 2.86444,-2.21323 4.86471,-2.21323 2.01752,0 3.75807,0.85507 4.8603,2.25147 1.08033,1.36868 1.53093,3.11571 1.5397,4.89412 l .0162,4.2095 h 0.642647 v -4.95511 c 0,-4.08934 -2.73187,-7.15294 -7.03529,-7.15294 z "/>
</g>
<path style="fill:url(#linearGradient3656)" d="M 23.905882,29.929412 V 48 H 48 V 29.929412 Z"/>
</g>
</svg>
