<svg width="48" version="1.1" xmlns="http://www.w3.org/2000/svg" height="48" xmlns:xlink="http://www.w3.org/1999/xlink">
<defs>
<linearGradient id="linearGradient2">
<stop offset="0"/>
<stop offset="1" style="stop-color:#fff;stop-opacity:.6"/>
</linearGradient>
<linearGradient xlink:href="#linearGradient2" id="linearGradient3" y1="15.193" x1="19.876" y2="15.193" x2="21.458" gradientUnits="userSpaceOnUse"/>
<linearGradient xlink:href="#linearGradient2" id="linearGradient13" y1="30.594566" x1="18.804235" y2="44.478168" x2="26.987875" gradientUnits="userSpaceOnUse"/>
</defs>
<g style="fill-rule:evenodd">
<path style="opacity:.02" d="m 22.6986,3.9001 -0.208,0.8322 -3.0286,2.1324 v 24.305 c -3.88564,1.43958 -6.23749,4.40185 -6.23749,8.10527 0,4.54192 4.45816,8.69839 11.3495,8.62519 6.89135,-0.0732 11.4117,-3.96097 11.4015,-8.62519 -0.008,-3.66926 -2.40419,-6.95279 -6.44561,-8.15728 V 26.1602 l -3.4964,-2.1844 v -1.45627 l 2.4604,-0.9882 v -2.34042 l -2.2004,-0.4161 V 16.5384 l 3.2914,-1.0402 v -1.92435 l -2.7713,-1.1962 v -1.6643 l 2.9273,-1.4043 V 7.48872 l -3.9038,-3.5887 z m 1.8754,34.575 c 2.03333,0 3.92618,1.67368 3.83621,3.516 -0.08997,1.84232 -1.80287,3.56858 -3.83621,3.56858 -2.03333,0 -3.78398,-1.5463 -3.78398,-3.56858 3e-6,-2.02228 1.75065,-3.516 3.78398,-3.516 z"/>
<path style="opacity:.05" d="m 22.5986,3.6001 -0.208,0.8322 -3.0286,2.1324 v 24.305 c -3.88564,1.43958 -6.23749,4.40185 -6.23749,8.10527 0,4.54192 4.45816,8.69839 11.3495,8.62519 6.89135,-0.0732 11.4117,-3.96097 11.4015,-8.62519 -0.008,-3.66926 -2.40419,-6.95279 -6.44561,-8.15728 V 25.8602 l -3.4964,-2.1844 v -1.45627 l 2.4604,-0.9882 v -2.34042 l -2.2004,-0.4161 V 16.2384 l 3.2914,-1.0402 v -1.92435 l -2.7713,-1.1962 v -1.6643 l 2.9273,-1.4043 V 7.18872 l -3.9038,-3.5887 z m 1.8754,34.575 c 2.03333,0 3.92618,1.67368 3.83621,3.516 -0.08997,1.84232 -1.80287,3.56858 -3.83621,3.56858 -2.03333,0 -3.78398,-1.5463 -3.78398,-3.56858 3e-6,-2.02228 1.75065,-3.516 3.78398,-3.516 z"/>
<path style="opacity:.1" d="m 22.4986,3.2001 -0.208,0.8322 -3.0286,2.1324 v 24.305 c -3.88564,1.43958 -6.23749,4.40184 -6.23749,8.10527 0,4.54192 4.45816,8.69839 11.3495,8.62519 6.89135,-0.0732 11.4117,-3.96097 11.4015,-8.62519 -0.008,-3.66926 -2.40419,-6.95279 -6.44561,-8.15728 V 25.4602 l -3.4964,-2.1844 v -1.45627 l 2.4604,-0.9882 v -2.34042 l -2.2004,-0.4161 V 15.8384 l 3.2914,-1.0402 v -1.92435 l -2.7713,-1.1962 v -1.6643 l 2.9273,-1.4043 V 6.78872 l -3.9038,-3.5887 z m 1.8754,34.575 c 2.03333,0 3.92618,1.67368 3.83621,3.516 -0.08997,1.84232 -1.80287,3.56858 -3.83621,3.56858 -2.03333,0 -3.78398,-1.5463 -3.78398,-3.56858 3e-6,-2.02228 1.75065,-3.516 3.78398,-3.516 z"/>
<path style="opacity:.15" d="m 22.3986,2.8001 -0.208,0.8322 -3.0286,2.1324 v 24.305 c -3.88564,1.43958 -6.23749,4.40185 -6.23749,8.10527 0,4.54192 4.45816,8.69839 11.3495,8.62519 6.89135,-0.0732 11.4117,-3.96097 11.4015,-8.62519 -0.008,-3.66926 -2.40419,-6.95279 -6.44561,-8.15728 V 25.0602 l -3.4964,-2.1844 v -1.45627 l 2.4604,-0.9882 v -2.34042 l -2.2004,-0.4161 V 15.4384 l 3.2914,-1.0402 v -1.92435 l -2.7713,-1.1962 v -1.6643 l 2.9273,-1.4043 V 6.38872 l -3.9038,-3.5887 z m 1.8754,34.575 c 2.03333,0 3.92618,1.67368 3.83621,3.516 -0.08997,1.84232 -1.80287,3.56858 -3.83621,3.56858 -2.03333,0 -3.78398,-1.5463 -3.78398,-3.56858 3e-6,-2.02228 1.75065,-3.516 3.78398,-3.516 z"/>
<path style="opacity:.2" d="m 22.2986,2.4001 -0.208,0.8322 -3.0286,2.1324 v 24.305 c -3.88564,1.43958 -6.23749,4.40185 -6.23749,8.10527 0,4.54192 4.45816,8.69839 11.3495,8.62519 6.89135,-0.0732 11.4117,-3.96097 11.4015,-8.62519 -0.008,-3.66926 -2.40419,-6.95279 -6.44561,-8.15728 V 24.6602 l -3.4964,-2.1844 v -1.45627 l 2.4604,-0.9882 v -2.34042 l -2.2004,-0.4161 V 15.0384 l 3.2914,-1.0402 v -1.92435 l -2.7713,-1.1962 v -1.6643 l 2.9273,-1.4043 V 5.98872 l -3.9038,-3.5887 z m 1.8754,34.575 c 2.03333,0 3.92618,1.67368 3.83621,3.516 -0.08997,1.84232 -1.80287,3.56858 -3.83621,3.56858 -2.03333,0 -3.78398,-1.5463 -3.78398,-3.56858 3e-6,-2.02228 1.75065,-3.516 3.78398,-3.516 z"/>
<path style="opacity:.25" d="m 22.1986,2.2001 -0.208,0.8322 -3.0286,2.1324 v 24.305 c -3.88564,1.43958 -6.23749,4.40184 -6.23749,8.10527 0,4.54192 4.45816,8.69839 11.3495,8.62519 6.89135,-0.0732 11.4117,-3.96097 11.4015,-8.62519 -0.008,-3.66926 -2.40419,-6.95279 -6.44561,-8.15728 V 24.4602 l -3.4964,-2.1844 v -1.45627 l 2.4604,-0.9882 v -2.34042 l -2.2004,-0.4161 V 14.8384 l 3.2914,-1.0402 v -1.92435 l -2.7713,-1.1962 v -1.6643 l 2.9273,-1.4043 V 5.78872 l -3.9038,-3.5887 z m 1.8754,34.575 c 2.03333,0 3.92618,1.67368 3.83621,3.516 -0.08997,1.84232 -1.80287,3.56858 -3.83621,3.56858 -2.03333,0 -3.78398,-1.5463 -3.78398,-3.56858 3e-6,-2.02228 1.75065,-3.516 3.78398,-3.516 z"/>
<path style="fill:#00c800" d="m 22.0986,2 -0.208,0.8322 -3.0286,2.1324 v 24.305 c -3.88564,1.43958 -6.23749,4.40184 -6.23749,8.10527 0,4.54192 4.45816,8.69839 11.3495,8.62519 6.89135,-0.0732 11.4117,-3.96097 11.4015,-8.62519 -0.008,-3.66926 -2.40419,-6.95279 -6.44561,-8.15728 V 24.2601 l -3.4964,-2.1844 v -1.45627 l 2.4604,-0.9882 v -2.34042 l -2.2004,-0.4161 V 14.6383 l 3.2914,-1.0402 v -1.92435 l -2.7713,-1.1962 v -1.6643 l 2.9273,-1.4043 V 5.58862 l -3.9038,-3.5887 z m 1.8754,34.575 c 2.03333,0 3.92618,1.67368 3.83621,3.516 -0.08997,1.84232 -1.80287,3.56858 -3.83621,3.56858 -2.03333,0 -3.78398,-1.5463 -3.78398,-3.56858 3e-6,-2.02228 1.75065,-3.516 3.78398,-3.516 z"/>
</g>
<path style="opacity:.35;fill:url(#linearGradient3)" d="m 19.876,4.26 1.582,-1.1 v 24.066 c 0,0 -1.582,-0.785839 -1.582,-2 z"/>
<path style="opacity:.25;fill:url(#linearGradient13);fill-rule:evenodd;stroke-width:.856" d="m 19.6367,30.3457 c -3.29904,1.24371 -5.29492,3.80241 -5.29492,7.00195 0,3.92395 3.78573,7.51441 9.63672,7.45117 5.85099,-0.06324 9.68835,-3.42156 9.67969,-7.45117 -0.0068,-3.17003 -2.04135,-6.00627 -5.47266,-7.04688 -2.87741,-0.784283 -5.64136,-0.798445 -8.54883,0.04492 z  m 4.3379,6.2285 c 2.03333,0 3.92591,1.67526 3.83594,3.51758 -0.08997,1.84232 -1.8026,3.56836 -3.83594,3.56836 -2.03333,0 -3.78516,-1.54608 -3.78516,-3.56836 3e-06,-2.02228 1.75183,-3.51758 3.78516,-3.51758 z "/>
</svg>
