<svg width="48" version="1.1" xmlns="http://www.w3.org/2000/svg" viewBox="0 0 48 48" height="48">
<defs>
<linearGradient gradientTransform="scale(0.375)" id="e" y1="-3.314" x1="64" y2="118.486" x2="64" gradientUnits="userSpaceOnUse">
<stop offset="0" style="stop-color:#414141"/>
<stop offset=".196" style="stop-color:#3e3e3e"/>
<stop offset="1" style="stop-color:#3a3a3a"/>
</linearGradient>
<radialGradient fx="302.80139" fy="-375.53009" cx="302.80139" cy="-375.53009" gradientTransform="matrix(0.1327125,0,0,0.1327125,-17.624625,69.572812)" id="g" r="207.2339" gradientUnits="userSpaceOnUse">
<stop offset=".6733" style="stop-color:#fcfcfc;stop-opacity:0"/>
<stop offset="1" style="stop-color:#fcfcfc"/>
</radialGradient>
<radialGradient fx="311.14719" fy="-348.23251" cx="311.14719" cy="-348.23251" gradientTransform="matrix(0.1327125,0,0,0.1327125,-17.624625,69.572812)" id="i" r="172.3893" gradientUnits="userSpaceOnUse">
<stop offset=".1088" style="stop-color:#0f0f0d;stop-opacity:0"/>
<stop offset=".8856" style="stop-color:#414141;stop-opacity:0"/>
<stop offset=".9339" style="stop-color:#1e1e1d;stop-opacity:.684"/>
<stop offset=".9874" style="stop-color:#0f0f0d"/>
</radialGradient>
<radialGradient fx="316.8927" fy="-451.59729" cx="316.8927" cy="-451.59729" gradientTransform="matrix(0.1327125,0,0,0.075975,-17.624625,44.2221)" id="n" r="334.8364" gradientUnits="userSpaceOnUse">
<stop offset="0" style="stop-color:#2e6b26"/>
<stop offset="1" style="stop-color:#6ab536"/>
</radialGradient>
<radialGradient fx="314.38751" fy="-453.36301" cx="314.38751" cy="-453.36301" gradientTransform="matrix(0.1327125,0,0,0.1327125,-17.624625,69.572812)" id="p" r="65.392502" gradientUnits="userSpaceOnUse">
<stop offset="0" style="stop-color:#6ab536"/>
<stop offset="1" style="stop-color:#2e6b26"/>
</radialGradient>
<radialGradient fx="322.2128" fy="-390.2547" cx="322.2128" cy="-390.2547" gradientTransform="matrix(0.12585,0,0,0.20895,-16.582463,96.215663)" id="r" r="96.585098" gradientUnits="userSpaceOnUse">
<stop offset="0"/>
<stop offset=".7842" style="stop-color:#4f4f4f;stop-opacity:0"/>
</radialGradient>
<radialGradient fx="312.9946" fy="-473.01779" cx="312.9946" cy="-473.01779" gradientTransform="matrix(0.1327125,0,0,0.1327125,-17.624625,69.572812)" id="u" r="223.5101" gradientUnits="userSpaceOnUse">
<stop offset="0" style="stop-color:#f5f5f5"/>
<stop offset=".5481" style="stop-color:#f2f2f2"/>
</radialGradient>
</defs>
<g style="isolation:isolate;mix-blend-mode:lighten">
<rect width="48" x="0" y="0" height="48" style="fill:none"/>
<path style="fill:url(#e)" d="M 24,46.8375 C 11.4073,46.8375 1.1625,36.5926 1.1625,24 1.1625,11.4074 11.4074,1.1625 24,1.1625 36.5927,1.1625 46.8375,11.4073 46.8375,24 46.8375,36.5927 36.5928,46.8375 24,46.8375 Z M 24,3.084 C 12.4719,3.084 3.0932,12.46687 3.0932,24 3.0932,35.5331 12.47195,44.916 24,44.916 35.5281,44.916 44.9067,35.53305 44.9067,24 44.9067,12.467 35.52806,3.084 24,3.084 Z"/>
<path style="opacity:.32;fill:url(#g)" d="M 24,1.1714 C 11.4122,1.1714 1.1714,11.4122 1.1714,24 1.1714,36.5877 11.4122,46.8286 24,46.8286 36.5878,46.8286 46.8285,36.5877 46.8285,24 46.8285,11.4123 36.5878,1.1714 24,1.1714 Z"/>
<path style="opacity:.44;fill:url(#i)" d="M 24,46.8375 C 11.4073,46.8375 1.1625,36.5926 1.1625,24 1.1625,11.4074 11.4074,1.1625 24,1.1625 36.5927,1.1625 46.8375,11.4073 46.8375,24 46.8375,36.5927 36.5928,46.8375 24,46.8375 Z M 24,3.084 C 12.4719,3.084 3.0932,12.46687 3.0932,24 3.0932,35.5331 12.47195,44.916 24,44.916 35.5281,44.916 44.9067,35.53305 44.9067,24 44.9067,12.467 35.52806,3.084 24,3.084 Z"/>
<path d="m 24,3.2064 c -11.6169,0 -21.0678,9.45094 -21.0678,21.0678 0,11.6169 9.45094,21.0678 21.0678,21.0678 11.6169,0 21.0678,-9.45105 21.0678,-21.0678 C 45.0678,12.6575 35.61694,3.2064 24,3.2064 Z"/>
<path style="opacity:.35;fill:#0f0f0d" d="M 24,46.8375 C 11.4073,46.8375 1.1625,36.5926 1.1625,24 1.1625,11.4074 11.4074,1.1625 24,1.1625 36.5927,1.1625 46.8375,11.4073 46.8375,24 46.8375,36.5927 36.5928,46.8375 24,46.8375 Z M 24,1.6513 C 11.4074,1.6513 1.1625,11.7599 1.1625,24.185 1.1625,36.6101 11.4074,46.7187 24,46.7187 36.5927,46.7187 46.8375,36.61 46.8375,24.185 46.8375,11.76 36.5927,1.6513 24,1.6513 Z"/>
<path style="fill:url(#n)" d="M 24,3.084 C 12.4668,3.084 3.084,12.46684 3.084,24 3.084,35.5331 12.46684,44.916 24,44.916 35.5332,44.916 44.9159,35.53309 44.9159,24 44.9159,12.467 35.53314,3.084 24,3.084 Z"/>
<path style="opacity:.7;fill:url(#p)" d="m 24,4.823 c -3.4353,0 -6.2301,2.7948 -6.2301,6.23006 0,3.43526 2.7948,6.23006 6.2301,6.23006 3.4353,0 6.23006,-2.7948 6.23006,-6.23006 C 30.22996,7.6178 27.4352,4.823 24,4.823 Z"/>
<g style="mix-blend-mode:multiply">
<path style="opacity:.3;fill:url(#r)" d="m 13.0077,6.1367 c 0,0.00716 -0.002,0.014175 -0.003,0.021338 -0.02719,0.0051 -0.0276,-0.00139 0.003,-0.021338 z m 15.7941,13.425 -0.2893,5.1683 3.4134,3.7187 -3.4134,3.7187 2.2563,2.4581 -2.2563,2.4581 0.2893,5.1261 h -9.60375 v -22.648 c -3.81836,-1.9539 -6.4218,-6.17677 -6.4218,-11.0299 0,-0.812213 0.1137,-1.56266 0.228375,-2.37375 0.414225,-0.078075 7.11274,-2.88551 7.11274,-2.88551 -0.05561,0.30345 7.82066,0.30345 7.76505,0 0,0 6.47164,2.78464 7.12091,2.92121 0.16425,0.7974 0.220238,1.53787 0.220238,2.33805 0,4.85318 -2.6613,9.07609 -6.4218,11.03 z M 34.9922,6.1366 c 0.004,0.019163 0.0073,0.037913 0.01121,0.057037 0.0711,0.014963 0.0735,-0.00131 -0.01121,-0.057037 z"/>
<path style="opacity:.2;fill:#0f0f0d" d="M 12.7935,37.662 C 9.08186,34.43396 6.732,29.67566 6.732,24.3507 c 0,-6.19601 3.24034,-11.9154 8.5773,-15.1088 -0.09529,0.619613 -0.190613,1.19153 -0.190613,1.81114 0,3.66994 2.14433,6.86325 5.28934,8.34079 v 16.7292 l 3.9551,3.9559 3.9551,-3.9559 -0.2383,-3.4793 1.8584,-1.8588 -1.8584,-1.8588 2.8115,-2.812 -2.8115,-2.812 0.2383,-3.9082 c 3.09735,-1.4775 5.28934,-4.67085 5.28934,-8.34079 0,-0.619612 -0.04766,-1.19153 -0.190613,-1.81114 1.93661,1.16918 3.59707,2.6781 4.92821,4.42395 -3.21904,-4.42084 -8.44849,-7.29701 -14.3537,-7.29701 -9.78416,0 -17.7158,7.89375 -17.7158,17.6312 0,5.50988 2.5401,10.4288 6.51784,13.6619 z M 23.0766,34.7886 H 21.74235 V 21.5863 H 23.0766 Z M 21.1705,20.2518 c 1.04835,-0.19065 2.14433,-0.285975 3.19268,-0.285975 1.09597,-0.04766 2.14432,0.09533 3.19268,0.285975 0.04766,0.238313 0.09533,0.476625 0.09533,0.7149 0,1.81114 -1.4772,3.28868 -3.28796,3.28868 -1.81076,0 -3.28796,-1.4775 -3.28796,-3.28868 0,-0.238313 0.04766,-0.476587 0.09532,-0.7149 z"/>
</g>
<path style="fill:url(#u)" d="M 24,3.084 C 12.4719,3.084 3.0932,12.46684 3.0932,24 3.0932,35.5331 12.47195,44.916 24,44.916 35.528,44.916 44.9067,35.53305 44.9067,24 44.9067,12.467 35.52806,3.084 24,3.084 Z m -3.1927,3.5956 c 1.04835,-0.19065 2.14432,-0.285975 3.19268,-0.285975 1.09597,-0.047662 2.14432,0.095325 3.19268,0.285975 0.04766,0.238313 0.09532,0.476625 0.09532,0.7149 0,1.81114 -1.4772,3.28868 -3.28796,3.28868 -1.81076,0 -3.28796,-1.4775 -3.28796,-3.28868 0,-0.238313 0.04766,-0.476587 0.09533,-0.7149 z m 1.9061,14.5368 V 34.4187 H 21.37915 V 21.2164 Z M 24,41.6156 c -9.72094,0 -17.6311,-7.86416 -17.6311,-17.6348 0,-6.19601 3.24034,-11.9154 8.5773,-15.1088 -0.09529,0.619613 -0.190612,1.19153 -0.190612,1.81114 0,3.66994 2.14433,6.86325 5.28934,8.34079 v 16.7292 l 3.9551,3.9559 3.9551,-3.9559 -0.2383,-3.4793 1.8584,-1.8588 -1.8584,-1.8588 2.8115,-2.812 -2.8115,-2.812 0.2383,-3.9082 c 3.09735,-1.4775 5.28934,-4.67085 5.28934,-8.34079 0,-0.619612 -0.04766,-1.19152 -0.190613,-1.81114 5.28934,3.19335 8.52964,8.91274 8.5773,15.1087 0,9.72296 -7.86255,17.6348 -17.6311,17.6348 z"/>
</g>
</svg>
