<svg xmlns:xlink="http://www.w3.org/1999/xlink" version="1.0" width="48" xmlns="http://www.w3.org/2000/svg" height="48">
<defs id="defs4"/>
<g style="stroke:none" id="layer1" transform="translate(0,-80)">
<path style="fill:#5e953d" id="path4148" d="m 24,81 c -12.7026,0 -23,10.2974 -23,23 0,12.7026 10.2974,23 23,23 12.7026,0 23,-10.2974 23,-23 0,-12.7026 -10.2974,-23 -23,-23 Z "/>
<path style="fill:#fff" id="path4146" d="m 24,88.9307 c 3.59369,0 7.1825,1.3931 9.90763,4.11823 2.8103,2.8103 4.17622,6.53076 4.08839,10.2359 v 9.84795 c 0,1.42203 -1.1444,2.53659 -2.56643,2.53659 h -22.8592 c -1.42204,0 -2.56643,-1.11456 -2.56643,-2.53659 v -9.84795 c -0.087824,-3.70512 1.27809,-7.42559 4.08839,-10.2359 2.72514,-2.72514 6.31394,-4.11823 9.90763,-4.11823 z "/>
<path style="fill:#5e953d" id="path3001" d="m 24,94.3918 c -2.22492,0 -4.43851,0.887275 -6.1475,2.59628 -1.68866,1.68866 -2.54634,3.86206 -2.56643,6.05797 h 17.4279 c -0.02009,-2.19591 -0.877768,-4.36931 -2.56643,-6.05797 -1.709,-1.70899 -3.92258,-2.59628 -6.14751,-2.59628 z "/>
</g>
</svg>
