<svg width="96" version="1.0" xmlns="http://www.w3.org/2000/svg" height="96">
<g style="stroke:none" id="g11">
<rect width="84" x="6" y="6" rx="6" ry="0" height="84" style="fill:#b3b3b3" id="rect2419-8"/>
<g style="font-family:'Century Schoolbook L';word-spacing:0;line-height:125%;font-weight:500;letter-spacing:0;font-size:7.50786924px" id="text3399">
<path style="font-size:90.09442902px" id="path4227" d="m 74.9833,15.4759 -53.9666,0 -1.3514,25.0463 3.8741,0 c 0.630661,-4.50472 1.44151,-7.92831 2.43255,-10.8113 2.34246,-6.57689 6.66699,-10.0005 12.7934,-10.0005 2.97312,0 4.23444,0.991039 4.23444,3.2434 v 46.4887 2.61274 c 0,3.78397 -0.81085,4.23444 -8.1085,4.23444 h -2.34246 v 4.23444 h 30.9024 v -4.23444 h -2.34246 c -7.20755,0 -8.0184,-0.450472 -8.0184,-4.23444 v -2.61274 -46.4887 c 0,-2.25236 1.26132,-3.2434 4.23444,-3.2434 5.49576,0 9.91039,3.06321 12.1627,8.46888 1.35142,3.33349 2.25236,7.20755 2.97312,12.3429 h 3.87406 l -1.3514,-25.0463 z "/>
</g>
<path style="mix-blend-mode:normal;font-family:sans-serif;text-decoration-style:solid;solid-color:#000000;opacity:.3;white-space:normal;color-interpolation-filters:linearRGB;text-transform:none;text-decoration-color:#000000;text-indent:0;text-align:start;text-decoration-line:none;color:#000;image-rendering:auto;color-rendering:auto;fill-rule:evenodd;isolation:auto;color-interpolation:sRGB;solid-opacity:1;text-rendering:auto;fill:#1e1e1e;line-height:normal;shape-rendering:auto" id="path4206" d="m 38.541,18.3242 c -10.3279,-0.050222 -18.9274,8.34279 -19.2168,18.7363 -0.289432,10.3935 7.88502,18.9127 18.2129,18.9629 2.85364,0.013876 5.56494,-0.635983 8.01562,-1.77539 0.055223,-0.006713 0.106231,-0.017365 0.16211,-0.023438 2.09682,-0.227863 4.57572,0.012719 6.6582,1.69727 l -.166,.1621 c -0.51065,0.498068 -0.538971,1.33106 -0.044922,1.8457 l 19.6406,20.4609 c 0.494048,0.514642 1.32334,0.515647 1.83398,0.017578 l 3.4121,-3.3281 c 0.510647,-0.498066 0.537014,-1.33301 0.042969,-1.84766 l -19.6406,-20.4609 c -0.320353,-0.333706 -0.777697,-0.426665 -1.20117,-0.332031 -1.70839,-2.20248 -1.89449,-4.77581 -1.59766,-6.92578 0.004477,-0.032427 0.010934,-0.061587 0.015625,-0.09375 1.24704,-2.4614 2.00267,-5.21272 2.08398,-8.13281 0.289432,-10.3935 -7.88307,-18.9127 -18.2109,-18.9629 z  m -.0098,2 c 9.23866,0.04492 16.4822,7.58628 16.2227,16.9082 -0.259556,9.32192 -7.96838,16.8359 -17.207,16.791 -9.23866,-0.044926 -16.4822,-7.58628 -16.2227,-16.9082 0.25959,-9.32192 7.96838,-16.8359 17.207,-16.791 z "/>
</g>
<g id="layer3-7" transform="matrix(0.91520839,0.26885374,-0.28398015,0.88375944,13.165974,-13.560868)">
<g id="g3204" transform="matrix(0.50677982,-0.13579125,0.13579125,0.50677982,-10.251985,45.89415)">
<path style="fill:#d2d2d2;fill-rule:evenodd;stroke:#323232;stroke-width:2.026" id="path3310" d="m 101.036,56.5846 c 0,0 14.8682,-7.13224 24.6654,2.66446 l 5.8439,-5.6718 c -9.8966,-9.89608 -2.75054,-24.75 -2.75054,-24.75 -2.1751,6.4212 -2.96877,10.531 -10.055,17.6169 -7.12919,7.12881 -17.7037,10.1404 -17.7037,10.1404 z"/>
<path style="fill:none;stroke:#d2d2d2;stroke-width:4.088" id="path2420" d="m 74.25,37.75 a 36.25,36.25 0 1 1 -72.5,0 36.25,36.25 0 1 1 72.5,0 z" transform="matrix(0.9911353,0,0,0.9910827,55.641208,-16.409904)"/>
<rect width="12.976851" x="44.571445" y="130.05972" rx="1.7302468" height="61.423683" ry="1.7302446" style="fill:#d2d2d2;stroke:#323232;stroke-width:1.803" id="rect3361" transform="matrix(0.70713183,-0.70708173,0.70713176,0.7070818,0,0)"/>
<path style="fill:none;stroke:#1e1e1e;stroke-width:1.823" id="path3924" d="M 131.2926,21.0036 A 37.9916,37.9883 86 0 1 55.316,21.003244 37.9916,37.9883 86 0 1 131.2926,21.0036 Z"/>
</g>
</g>
<g style="fill:#fff;stroke:none;fill-rule:evenodd" id="g23">
<path style="opacity:.7" id="path3874" d="m 28.3851,50.0028 c 8.00082,4.74211 18.4714,2.30491 23.3703,-5.44043 4.89892,-7.74535 2.38071,-17.881 -5.62011,-22.6231 -8.00083,-4.74211 -18.4714,-2.30491 -23.3703,5.44043 -4.89892,7.74534 -2.38071,17.881 5.62011,22.6231 z  m .4704,-.4154 c -1.15537,-0.677762 -2.25159,-1.50823 -3.23973,-2.48653 -6.32408,-6.26111 -6.21018,-16.3058 0.257721,-22.4277 6.4679,-6.1219 16.8444,-6.01163 23.1685,0.249481 4.64886,4.60257 5.96428,11.4815 3.32508,17.3898 l -9.5635,-4.0058 c -0.110894,0.246329 -0.233087,0.48787 -0.382124,0.723502 -0.263547,0.416675 -0.585269,0.783492 -0.929522,1.11155 l 7.2923,7.2087 c -5.45729,5.16535 -13.6897,5.89696 -19.9287,2.23705 z "/>
<path style="opacity:.7" id="path3099" d="m 47.4568,22.868 c -7.50217,-5.49711 -18.16,-4.08886 -23.7883,3.14381 -5.62835,7.23267 -4.10694,17.5651 3.39523,23.0622 7.50218,5.49711 18.16,4.08886 23.7883,-3.14381 5.62835,-7.23266 4.10694,-17.5651 -3.39524,-23.0622 z  m -.5085,.3678 c 1.08405,0.786822 2.09438,1.71988 2.98278,2.78957 5.68577,6.84599 4.59636,16.8321 -2.4358,22.2966 -7.03215,5.46444 -17.3488,4.34642 -23.0346,-2.49957 -4.17963,-5.03252 -4.8204,-12.0067 -1.61958,-17.6306 l 9.129,4.9162 c 0.13433,-0.234373 0.279388,-0.462913 0.450617,-0.682948 0.30279,-0.389093 0.658631,-0.722914 1.03313,-1.01597 l -6.5574,-7.8832 c 5.93338,-4.61063 14.1979,-4.53883 20.0518,-0.290001 z "/>
<path style="opacity:.6" id="path3869" d="m 42.3502,20.1675 c -8.93152,-2.59397 -18.4618,2.38066 -21.2714,11.104 -2.80961,8.7233 2.15984,17.909 11.0914,20.503 8.93153,2.59397 18.4618,-2.38066 21.2714,-11.104 2.80961,-8.72329 -2.15984,-17.909 -11.0914,-20.503 z  m -.3517,.5197 c 1.28802,0.367775 2.55688,0.898202 3.75801,1.59876 7.68722,4.48355 10.0852,14.2385 5.35095,21.7816 -4.73427,7.54308 -14.8096,10.0274 -22.4968,5.54389 -5.65091,-3.29588 -8.6424,-9.62837 -7.56221,-16.0086 l 10.2608,1.4908 c 0.04587,-0.266217 0.10388,-0.530619 0.189332,-0.796007 0.15115,-0.469285 0.37108,-0.90482 0.622506,-1.30845 l -8.8614,-5.1593 c 3.99454,-6.36447 11.7835,-9.12865 18.7388,-7.14265 z "/>
<path style="opacity:.25" id="path4224" d="m 28.3851,50.0028 c 8.00082,4.74211 18.4714,2.30491 23.3703,-5.44043 4.89892,-7.74535 2.38071,-17.881 -5.62011,-22.6231 -8.00083,-4.74211 -18.4714,-2.30491 -23.3703,5.44043 -4.89892,7.74534 -2.38071,17.881 5.62011,22.6231 z "/>
</g>
</svg>
