<svg width="96" version="1.0" xmlns="http://www.w3.org/2000/svg" height="96" xmlns:xlink="http://www.w3.org/1999/xlink">
<defs id="defs22">
<linearGradient id="linearGradient2888-4-3">
<stop offset="0.0000000" style="stop-color:#fff" id="stop2889-50"/>
<stop offset="1" style="stop-color:#b4b4b4" id="stop2894-1"/>
</linearGradient>
<linearGradient gradientTransform="matrix(1.6442857,0,0,1.5953571,-359.20505,-214.49143)" id="linearGradient4859" xlink:href="#linearGradient2888-4-3" y1="165.82466" y2="151.52789" x1="182.28128" x2="175.20076" gradientUnits="userSpaceOnUse"/>
<linearGradient gradientTransform="matrix(1.5294812,0,0,1.4837979,-31.230614,-17.214411)" id="linearGradient3808" xlink:href="#linearGradient2888-4-3" y1="34.121754" y2="41.695" x1="-26.252876" x2="-21.25" gradientUnits="userSpaceOnUse"/>
</defs>
<path style="fill:#b3b3b3" id="rect2419-8" d="m 12,6 h 72 c 3.324,0 6,2.676 6,6 v 72 c 0,3.324 -2.676,6 -6,6 H 12 C 8.676,90 6,87.324 6,84 V 12 C 6,8.676 8.676,6 12,6 Z"/>
<g style="word-spacing:0;line-height:125%;letter-spacing:0" id="text3399">
<path id="path4227" d="M 74.9833,15.4759 H 21.0167 l -1.3514,25.0463 h 5.47322 c 0.630661,-4.50472 1.44191,-7.92831 2.43295,-10.8113 2.34246,-6.57689 6.1216,-7.83308 10.0397,-7.78683 2.97291,0.03509 3.73381,1.77757 3.73381,4.02993 v 27.2053 l 1.6548,0.0607 v 16.2225 2.61274 c 0,3.78397 -0.81085,4.23444 -8.1085,4.23444 h -2.34246 v 4.23444 h 30.9024 v -4.23444 h -2.34246 c -7.20755,0 -8.0184,-0.450472 -8.0184,-4.23444 V 69.4425 46.1982 l 1.2776,-3.7434 V 28.765 l -1.2776,-2.9057 v -2.90554 c 0,-2.25236 1.26132,-3.2434 4.23444,-3.2434 5.49576,0 9.91039,3.06321 12.1627,8.46888 1.35142,3.33349 2.25236,7.20755 2.97312,12.3429 h 3.87406 l -1.3514,-25.0463 z"/>
</g>
<g style="fill-rule:evenodd">
<path style="opacity:.3;fill:#000;isolation:auto;color-rendering:auto;white-space:normal;solid-opacity:1;mix-blend-mode:normal;color-interpolation-filters:linearRGB;shape-rendering:auto;image-rendering:auto;line-height:normal;color-interpolation:sRGB;color:#000;solid-color:#000000" id="path4206" d="m 38.541,18.3242 c -10.3279,-0.05022 -18.9274,8.34279 -19.2168,18.7363 -0.289432,10.3935 7.88502,18.9127 18.2129,18.9629 2.85364,0.01388 5.56494,-0.635983 8.01562,-1.77539 0.05522,-0.0067 0.106231,-0.01736 0.16211,-0.02344 2.09682,-0.227863 4.57572,0.01272 6.6582,1.69727 l -.166,.1621 c -0.51065,0.498068 -0.538971,1.33106 -0.04492,1.8457 l 19.6406,20.4609 c 0.494048,0.514642 1.32334,0.515647 1.83398,0.01758 l 3.4121,-3.3281 c 0.510647,-0.498066 0.537014,-1.33301 0.04297,-1.84766 l -19.6406,-20.4609 c -0.320353,-0.333706 -0.777697,-0.426665 -1.20117,-0.332031 -1.70839,-2.20248 -1.89449,-4.77581 -1.59766,-6.92578 0.0045,-0.03243 0.01093,-0.06159 0.01563,-0.09375 1.24704,-2.4614 2.00267,-5.21272 2.08398,-8.13281 0.289432,-10.3935 -7.88307,-18.9127 -18.2109,-18.9629 z  m -.0098,2 c 9.23866,0.04492 16.4822,7.58628 16.2227,16.9082 -0.259556,9.32192 -7.96838,16.8359 -17.207,16.791 -9.23866,-0.04493 -16.4822,-7.58628 -16.2227,-16.9082 0.25959,-9.32192 7.96838,-16.8359 17.207,-16.791 z "/>
<g id="g915" transform="matrix(1.4766726,0,0,1.4766511,133.06393,-21.87045)">
<ellipse cx="-64.877907" cy="39.170357" rx="11.51" ry="11.1675" style="opacity:.35;fill:url(#linearGradient4859);stroke-width:1.62" id="path4272"/>
<path style="opacity:.3;fill:url(#linearGradient3808);stroke-width:1.014" id="path5507" d="m -74.0561,42.1375 c 7.64741,-1.4838 6.33365,-9.08256 14.7361,-10.5664 -3.2747,-2.62602 -8.5765,-2.17399 -11.6771,0.179773 -3.16112,2.39966 -4.58844,7.41899 -3.05897,10.3866 z "/>
</g>
</g>
<g id="layer3-7" transform="matrix(0.91520839,0.26885374,-0.28398015,0.88375944,13.165974,-13.560868)">
<g id="g3204" transform="matrix(0.50677982,-0.13579125,0.13579125,0.50677982,-10.251985,45.89415)">
<path style="fill:#d2d2d2;fill-rule:evenodd;stroke:#323232;stroke-width:2.026" id="path3310" d="m 101.036,56.5846 c 0,0 14.8682,-7.13224 24.6654,2.66446 l 5.8439,-5.6718 c -9.8966,-9.89608 -2.75054,-24.75 -2.75054,-24.75 -2.1751,6.4212 -2.96877,10.531 -10.055,17.6169 -7.12919,7.12881 -17.7037,10.1404 -17.7037,10.1404 z"/>
<path style="fill:none;stroke:#d2d2d2;stroke-width:4.088" id="path2420" d="m 74.25,37.75 a 36.25,36.25 0 1 1 -72.5,0 36.25,36.25 0 1 1 72.5,0 z" transform="matrix(0.9911353,0,0,0.9910827,55.641208,-16.409904)"/>
<rect width="12.976851" x="44.571445" y="130.05972" rx="1.7302468" height="61.423683" ry="1.7302446" style="fill:#d2d2d2;stroke:#323232;stroke-width:1.803" id="rect3361" transform="matrix(0.70713183,-0.70708173,0.70713176,0.7070818,0,0)"/>
<path style="fill:none;stroke:#1e1e1e;stroke-width:1.823" id="path3924" d="M 131.2926,21.0036 A 37.9916,37.9883 86 0 1 55.316,21.003244 37.9916,37.9883 86 0 1 131.2926,21.0036 Z"/>
</g>
</g>
</svg>
