<svg width="96" version="1.0" xmlns="http://www.w3.org/2000/svg" height="96">
<g style="color:#000">
<path style="fill:#7c7c7c" d="m 12,6 h 72 c 3.324,0 6,2.676 6,6 v 71.887093 c 0,3.324 -2.676,6 -6,6 H 12 c -3.324,0 -6,-2.676 -6,-6 V 12 C 6,8.676 8.676,6 12,6 Z"/>
<path style="opacity:.3" d="m 24.0933,83.9777 a 4.32102,4.32102 0 0 1 -8.64204,0 4.32102,4.32102 0 1 1 8.64204,0 z"/>
<path style="fill:#2de1ff" d="m 23.0443,83.9777 a 3.27195,3.27195 0 0 1 -6.5439,0 3.27195,3.27195 0 1 1 6.5439,0 z"/>
<rect width="83.696457" x="6.2248263" y="76.044968" rx="6.0297518" height="2.0820873" ry="0.14412965" style="fill:#fff;fill-rule:evenodd"/>
</g>
<g style="fill-rule:evenodd">
<path style="opacity:.4" d="m 39.557,12.5424 -4.5269,-.032 c 0.02777,11.2102 0.04577,24.1308 0.05408,27.9632 h -17.6642 l 2.8,2.5007 h 56.77 l 2.6,-2.5007 h -17.5762 l -.004,-16.0384 -4.493,-.0164 c -0.0053,-0.873052 -0.02146,-3.97429 -0.02146,-3.97429 l -.0257,-3.9667 -8.9316,-.0087 v -3.9429 h 4.49057 l -.018,3.943 .0106,3.9527 h -4.47352 l .0257,3.9668 -4.525,.0226 0,.0079 -.0183,-7.95 -4.4905,.032 z "/>
<path style="fill:#fff" d="m 39.557,15.0428 -4.5269,-.032 c 0.02777,11.2102 0.04577,24.1309 0.05408,27.9632 l -14.8642,0 28.3663,25.9716 28.4037,-25.9716 -14.9762,0 -.004,-16.0384 -4.493,-.0164 c -0.0053,-0.873052 -0.02145,-3.97429 -0.02145,-3.97429 l -.0257,-3.9667 -8.9316,-.0087 v -3.9429 h 4.49057 l -.0179,3.943 .0106,3.9527 h -4.47352 l .0257,3.9668 -4.525,.0226 0,.0079 -.0183,-7.95 -4.4905,.032 z "/>
</g>
</svg>
