<svg width="48" version="1.0" xmlns="http://www.w3.org/2000/svg" viewBox="0 0 56.25 53.625" height="48" style="overflow:visible">
<g style="fill-rule:evenodd;stroke:none">
<path style="opacity:.7" id="path3834" d="m 5.1204,13.2031 c 0.01229,8.75606 10.814,5.29999 11.2181,9.18933 0.65317,6.28601 -17.2552,24.4261 7.71748,29.1592 13.7781,2.61134 28.4426,-6.09048 26.9713,-23.4307 -1.32318,-15.5945 -14.2196,-25.7885 -27.1304,-25.7776 -12.4119,0.0103822 -18.7853,4.59297 -18.7765,10.86 Z  m 12.4897,-7.4672 c 3.51343,0 6.36493,1.99604 6.36493,4.45544 2e-06,2.4594 -2.85148,4.45543 -6.36493,4.45543 -3.51343,0 -6.36493,-1.99604 -6.36493,-4.45543 0,-2.4594 2.85148,-4.45544 6.36493,-4.45544 z "/>
<path style="fill:#e1b637" id="path2193" d="m 5.1204,12.4771 c 0.01229,8.75606 11.8612,5.33229 11.2181,9.18933 -1.06852,6.40899 -17.6241,23.9342 7.71748,29.1592 13.7346,2.83178 28.4426,-6.09048 26.9713,-23.4307 -1.32318,-15.5945 -14.2196,-25.7885 -27.1304,-25.7776 -12.4119,0.0103821 -18.7853,4.59297 -18.7765,10.86 Z  m 11.9588,-7.4672 c 3.51343,0 6.36493,1.99604 6.36493,4.45543 2e-06,2.4594 -2.85148,4.45543 -6.36493,4.45543 -3.51343,0 -6.36493,-1.99604 -6.36493,-4.45543 0,-2.4594 2.85148,-4.45543 6.36493,-4.45543 z "/>
<path style="opacity:.7" id="path3787" d="m 28.0066,44.357 c -1.26801,0.76625 0.09245,1.64648 0.704353,2.15925 0.485301,0.406681 -0.243504,2.3722 -1.11262,1.50359 -1.00158,-1.001 -1.64645,-2.3936 -2.0393,-2.42928 -2.25792,-0.20515 -0.519421,2.77603 -2.33639,2.12036 -1.08728,-0.392341 0.265517,-2.03938 -1.18639,-2.54487 -1.15345,-0.40158 -1.03885,0.832452 -1.70581,0.231163 -3.13988,-2.83075 -1.48948,-5.28975 -0.03639,-7.21013 1.45311,-1.92041 4.32371,-2.12634 6.45237,-0.423449 2.12865,1.70289 2.69322,4.6567 1.26016,6.5933 z "/>
<path style="fill:#4f8b14" id="path1937" d="m 27.7043,43.7524 c -1.26801,0.766248 0.09245,1.64647 0.704354,2.15925 0.485301,0.406681 -0.243504,2.3722 -1.11262,1.50359 -1.00158,-1.001 -1.64645,-2.3936 -2.0393,-2.42928 -2.25792,-0.205151 -0.51942,2.77603 -2.33639,2.12036 -1.08728,-0.392342 0.265517,-2.03938 -1.18639,-2.54487 -1.15345,-0.40158 -1.03885,0.832452 -1.70581,0.231164 -3.13988,-2.83075 -1.48948,-5.28975 -0.03639,-7.21013 1.45311,-1.92041 4.32371,-2.12634 6.45237,-0.42345 2.12865,1.70289 2.69322,4.6567 1.26016,6.5933 z "/>
<path style="opacity:.7" id="path3789" d="m 41.4796,25.6693 c -1.13862,0 -1.36667,0.785784 -1.90322,1.29201 -0.425539,0.401478 -2.21921,-0.393505 -1.32466,-1.10204 1.0309,-0.816538 1.25736,-1.7811 1.32466,-2.12797 0.386853,-1.99371 -3.433,-1.02445 -2.64722,-2.58641 0.572169,-1.13738 2.65289,-0.05446 2.64722,-0.643599 -0.0087,-0.90842 -0.542987,-2.2808 0.59539,-2.50524 2.39525,-0.47223 5.15252,1.17899 6.45126,2.50258 1.24175,1.26551 0.552994,3.47847 -0.181205,5.05049 -0.448588,0.960467 -1.4765,2.91523 -2.66844,2.67991 -1.35251,-0.267022 0.573409,-2.55968 -2.29379,-2.55968 z "/>
<path style="fill:#429eff" id="path2876" d="m 41.1773,25.0647 c -1.13862,0 -1.36667,0.785786 -1.90322,1.29201 -0.42554,0.401478 -2.21921,-0.393504 -1.32466,-1.10204 1.0309,-0.816539 1.25736,-1.7811 1.32466,-2.12797 0.386852,-1.99371 -3.433,-1.02445 -2.64722,-2.58641 0.57217,-1.13737 2.65289,-0.05445 2.64722,-0.643599 -0.0087,-0.90842 -0.542987,-2.2808 0.59539,-2.50524 2.39525,-0.47223 5.15252,1.17899 6.45126,2.50258 1.24175,1.26551 0.552994,3.47847 -0.181205,5.05049 -0.448589,0.960467 -1.4765,2.91523 -2.66844,2.67992 -1.35251,-0.267023 0.573409,-2.55969 -2.29379,-2.55969 z "/>
<path style="opacity:.7" id="path3791" d="m 39.6374,41.9643 c 1.15622,0 3.09665,0.195164 3.6073,0.795723 1.19406,1.40428 2.2535,-0.442867 1.34513,-1.24029 -1.04683,-0.918975 -2.43818,-1.44789 -2.50652,-1.83827 -0.392829,-2.2438 2.61676,-0.753039 1.83026,-2.51748 -0.470646,-1.05584 -1.93245,0.436983 -2.54327,-0.974498 -0.485248,-1.12133 0.708001,-1.11012 0.07349,-1.72753 -2.98707,-2.90666 -5.20161,-1.0477 -6.91678,0.568496 -1.71522,1.61623 -1.66337,4.50803 0.154387,6.4967 0.74654,0.816749 1.11338,2.78 2.06547,3.01608 1.36615,0.338771 -0.02094,-2.57895 2.89055,-2.57895 z "/>
<path style="fill:#ef2929" id="path2852" d="m 39.3352,41.3597 c 1.15622,0 3.09665,0.195166 3.60731,0.795723 1.19406,1.40428 2.2535,-0.442866 1.34513,-1.24029 -1.04683,-0.918974 -2.43818,-1.44789 -2.50652,-1.83827 -0.392828,-2.2438 2.61676,-0.753039 1.83026,-2.51748 -0.470646,-1.05584 -1.93245,0.436983 -2.54327,-0.974497 -0.485248,-1.12133 0.708,-1.11012 0.07349,-1.72753 -2.98707,-2.90666 -5.20161,-1.0477 -6.91678,0.568495 -1.71522,1.61623 -1.66337,4.50803 0.154387,6.4967 0.746539,0.816748 1.11338,2.78 2.06547,3.01608 1.36615,0.338772 -0.02094,-2.57895 2.89055,-2.57895 z "/>
</g>
<path style="fill:#003063" id="path4152" d="m 24.6648,15.1314 -.046,7.7843 5.6797,-7.6005 4.5766,1.0475 0,.6777 -5.9092,6.923 5.8635,8.0596 .0001,.6777 -10.2107,-7.6343 0,7.6754 -4.2551,.6434 0,-17.84 4.3011,-.4136 z "/>
<path style="fill:#006bdc" id="path4162" d="m 24.6648,15.809 -.046,7.7843 5.6797,-7.6005 4.5766,1.0476 -5.9092,7.6006 5.8636,8.0597 -4.4851,1.4249 -5.7256,-8.3816 0,7.5546 -4.2551,.6434 0,-17.7191 4.3011,-.4136 z "/>
</svg>
