<svg width="48" version="1.0" xmlns="http://www.w3.org/2000/svg" height="48" xmlns:xlink="http://www.w3.org/1999/xlink">
<defs id="defs2349">
<linearGradient gradientTransform="matrix(0.17953283,0,0,0.17953283,-32.48687,-125.50368)" xlink:href="#linearGradient4039" id="linearGradient4099" y1="880.34772" x1="219.60678" y2="880.34772" gradientUnits="userSpaceOnUse" x2="367.96759"/>
<linearGradient id="linearGradient4073">
<stop offset="0" style="stop-color:#fd1f1f" id="stop4075"/>
<stop offset="1" style="stop-color:#a80202" id="stop4077"/>
</linearGradient>
<linearGradient id="linearGradient4039">
<stop offset="0" style="stop-color:#fff" id="stop4041"/>
<stop offset="1" style="stop-color:#e6e6e6" id="stop4043"/>
</linearGradient>
<radialGradient fx="273.49661" fy="731.67804" cx="273.49661" cy="731.67804" gradientTransform="matrix(0.23915033,-6.7490887e-4,6.6812551e-4,0.23674667,-49.47684,-166.13639)" xlink:href="#linearGradient4073" id="radialGradient4097" r="118.69667" gradientUnits="userSpaceOnUse"/>
</defs>
<path style="fill:url(#linearGradient4099);stroke:#717171;stroke-width:1.011" id="path4150" d="m 7.0311,17.8223 c -1.72877,10.5079 -0.69238,15.5588 3.00516,21.3938 2.44521,3.85874 6.46304,6.25005 11.4901,6.27804 4.76849,0.0224 7.4224,-1.89264 9.82587,-3.99552 5.65487,-4.94764 8.38953,-16.1427 3.38179,-23.585 -7.82893,1.4911 -21.5821,1.93381 -27.7029,-0.0914 z "/>
<g style="stroke:none">
<path style="fill:url(#radialGradient4097)" id="path112373" d="m 23.8715,2.0078 c -11.7628,0.27986 -18.7579,8.84626 -20.5285,16.2814 -2.2064,9.26515 0.99866,18.2675 0.99866,18.2675 3.4661,0.46208 4.05079,2.81917 7.54489,1.28704 -6.50947,-4.56045 -5.59616,-11.7385 -4.06645,-18.2472 8.50984,1.43449 16.1899,1.63714 25.0785,0.76302 2.74382,10.7487 -2.49573,18.4829 -6.48122,18.236 4.66024,4.44376 13.869,-0.37804 13.869,-0.37804 0,0 8.61989,-9.29046 3.54693,-22.7166 -4.46343,-11.8129 -13.7873,-13.64 -19.9618,-13.4931 z "/>
<path style="fill:#646464" id="path112377" d="m 21.2042,23.9763 c 0.07965,1.07831 -0.1,2.23022 -0.431065,3.51195 -0.626161,2.42422 -2.62873,6.16225 -3.39859,8.0193 -0.238559,0.575444 -0.443005,1.30217 -0.258071,1.78972 0.08113,0.213873 0.380685,0.243529 0.757405,0.129034 1.5921,-0.483878 3.50539,-0.567833 3.78703,-0.06171 -1.15356,-0.142605 -2.14243,0.09334 -3.04645,0.420822 -0.825255,0.298945 -1.67105,0.683953 -2.59762,0.633974 -0.555839,0.0443 -1.20609,-0.291948 -1.30161,-0.819116 -0.09724,-0.536638 0.04066,-1.09456 0.269303,-1.57652 1.74128,-3.67052 4.42794,-7.8257 4.84787,-11.8043 0.128977,-1.22199 1.32414,-0.888378 1.3718,-0.243161 z "/>
</g>
</svg>
