<svg width="160" version="1.0" xmlns="http://www.w3.org/2000/svg" height="160" xmlns:xlink="http://www.w3.org/1999/xlink">
<defs id="defs3">
<linearGradient id="linearGradient3182">
<stop offset="0" style="stop-color:#ececec" id="stop3184"/>
<stop offset="1" style="stop-color:#fcfcfc" id="stop3186"/>
</linearGradient>
<linearGradient gradientTransform="matrix(0.44836281,0,0,-0.40910901,-105.207,280.49442)" xlink:href="#linearGradient3182" id="linearGradient3828" y1="522.29456" x1="324.57977" y2="444.43079" gradientUnits="userSpaceOnUse" x2="449.4509"/>
</defs>
<g style="fill-rule:evenodd" id="g9">
<rect width="99.114281" x="30.44286" y="16.448002" rx="12.716216" height="129.31061" ry="9.787281" style="fill:#b48400;stroke:#000;stroke-linejoin:round;stroke-linecap:round" id="rect909"/>
<path style="fill:url(#linearGradient3828);stroke:none;color:#000" id="rect3173" d="m 38.143,137.5198 0,-114.3008 83.788,0 0,56.781 -6.12092,50.84263 L 70.298,137.52 Z"/>
</g>
<path style="fill:#a0a0a0;stroke:none;color:#000" id="path1534" d="m 78.9805,.0742 c -4.77172,-0.0189566 -8.15184,0.973166 -10.5625,3.24023 -2.41066,2.26707 -3.03467,4.50986 -3.38477,7.01172 -0.395655,2.82739 1.51652,8.097 0,11.082 -1.48637,2.92565 -14.739,1.13108 -15.0098,6.65039 l 59.9492,-.2773 c 0.2331,-5.56609 -14.5349,-4.0408 -16.4609,-7.20312 -1.56131,-2.56363 0.311757,-7.20739 0,-9.97461 -0.293633,-2.60635 -1.09068,-5.1175 -3.63281,-7.21094 -2.54213,-2.09344 -6.12672,-3.2994 -10.8984,-3.31836 z  m -.1797,6.7754 a 4.54779,4.54779 0 0,1 4.54688,4.54883 4.54779,4.54779 0 0,1 -4.54688,4.54687 4.54779,4.54779 0 0,1 -4.54883,-4.54687 4.54779,4.54779 0 0,1 4.54883,-4.54883 z "/>
<g style="fill:#7f8c8d;fill-rule:evenodd;stroke:#003bc3;stroke-linecap:square;stroke-width:0" id="g14">
<rect width="54.070122" x="52.019676" y="-97.657982" height="2.9999914" style="stroke-miterlimit:2.013" id="line2" transform="scale(1,-1)"/>
<g style="stroke-miterlimit:2" id="g17">
<rect width="40.830494" x="52.019577" y="-110.99999" height="2.9999914" id="line" transform="scale(1,-1)"/>
<rect width="54.0681" x="52.000004" y="-84.316986" height="2.9999914" id="line21" transform="scale(1,-1)"/>
<rect width="54.0681" x="52.101604" y="-70.974983" height="2.9999914" id="line22" transform="scale(1,-1)"/>
<rect width="54.0681" x="52.081932" y="-57.6339" height="2.9999914" id="line23" transform="scale(1,-1)"/>
</g>
</g>
</svg>
