<svg width="96" version="1.0" xmlns="http://www.w3.org/2000/svg" height="96" xmlns:xlink="http://www.w3.org/1999/xlink">
<defs id="defs14">
<linearGradient id="linearGradient867">
<stop offset="0" style="stop-color:#319739" id="stop863"/>
<stop offset="1" style="stop-color:#3bb544" id="stop865"/>
</linearGradient>
<linearGradient gradientTransform="matrix(1,0,0,1,-20.164919,-34.172327)" id="c" y1="5.342" x1="42.799" y2="31.357" x2="12" gradientUnits="userSpaceOnUse">
<stop style="stop-color:#4ce0c6" id="stop993"/>
<stop offset="1" style="stop-color:#3b85b5" id="stop995"/>
</linearGradient>
<linearGradient id="linearGradient1601">
<stop offset="0" style="stop-color:#282828" id="stop1597"/>
<stop offset="1" style="stop-color:#646464" id="stop1599"/>
</linearGradient>
<linearGradient gradientTransform="matrix(1.0381378,0,0,1.0381378,1.0314708,3.4615564)" xlink:href="#linearGradient1601" id="linearGradient1603" y1="50.949245" x1="51.826664" y2="46.642056" x2="56.146339" gradientUnits="userSpaceOnUse"/>
<linearGradient gradientTransform="matrix(1.5908368,0,0,2.0333434,-6.090042,0.79974082)" id="d" y1="22.346" y2="28.506" x1="29.855" gradientUnits="userSpaceOnUse" x2="54.32">
<stop style="stop-color:#ffc169" id="stop850"/>
<stop offset="1" style="stop-color:#ffa92d" id="stop852"/>
</linearGradient>
<linearGradient gradientTransform="matrix(1.5908368,0,0,2.0333434,-6.090042,0.79974082)" xlink:href="#c" id="linearGradient998" y1="5.342" x1="42.799" y2="31.357" gradientUnits="userSpaceOnUse" x2="12"/>
<linearGradient xlink:href="#linearGradient867" id="linearGradient869" y1="84.681259" x1="32.528316" y2="52.397865" x2="26.564268" gradientUnits="userSpaceOnUse"/>
</defs>
<path style="opacity:.65;fill:#fff;stroke:none" id="path4152" d="m 8.5673,4.2142 c -2.54478,0 -4.519,2.28524 -4.519,4.51924 v 68.3368 c -1.3e-06,2.43 2.21994,5.12025 4.81904,5.12025 h 15.7693 c 1.7595,0 2.18754,0.127994 2.18754,1.8875 v 1.52451 c 0,2.39775 1.97577,4.4875 5.08723,4.4875 h 32.2747 c 3.01354,0 5.08827,-2.08976 5.08827,-4.4875 v -1.52451 c 0,-1.7595 0.427964,-1.8875 2.18746,-1.8875 h 15.7667 c 3.271,0 4.81996,-2.69025 4.81996,-5.12025 v -68.3368 c 0,-2.234 -2.14706,-4.51924 -4.51996,-4.51924 z "/>
<path style="fill:url(#linearGradient998);stroke-width:1.799" id="path873" d="m 13,13 v 61 h 69.9968 v -61 Z "/>
<g style="stroke-width:3.597">
<path style="fill:url(#d)" id="path875" d="m 82.9968,13 -48.1705,35.5469 34.4925,25.4534 h 13.6812 z "/>
<path style="fill:url(#linearGradient869)" id="path877" d="m 34.874,48.4125 -21.874,16.1427 v 9.44488 h 56.6417 z "/>
</g>
<g style="stroke:none">
<path style="fill:#246068" id="path3726" d="M 11,11 V 75.2813 H 84.9371 V 11 Z m 3,3 H 82 V 72 H 14 Z"/>
<path id="path3174" d="m 10.3123,7 c -1.88391,0 -3.3125,1.42938 -3.3125,3.3125 V 75.6875 C 7,77.57062 8.42839,79 10.3123,79 h 75.3748 c 1.88391,0 3.3125,-1.42938 3.3125,-3.3125 V 10.3123 c 0,-1.88312 -1.42859,-3.3125 -3.3125,-3.3125 z m 2.6875,6 H 83 V 73 H 13 Z"/>
<path id="rect3535" d="m 33,75 c -1.662,0 -3,1.338 -3,3 h -3 v 1 c 1.656,0 3,1.344 3,3 v 2 c 0,1.662 1.338,3 3,3 h 30 c 1.662,0 3,-1.338 3,-3 v -2 c 0,-1.656 1.344,-3 3,-3 v -1 h -3 c 0,-1.662 -1.338,-3 -3,-3 z"/>
<path style="fill:#55b7c3" id="rect3483" d="m 13,73 h 70 v 1 H 13 Z"/>
<rect width="8.4909124" x="53.275669" y="80.837639" rx="1.6981825" ry="1.6982" height="3.3963649" style="fill:#7fff2a" id="rect3485"/>
</g>
<g id="g1132">
<path style="font-family:Sans;fill:url(#linearGradient1603);text-align:start;fill-rule:evenodd;stroke:none;line-height:normal;color:#000;text-indent:0;stroke-width:.767;text-transform:none" id="path4249" d="m 57.0911,41.7011 c 0,0 -0.240884,0.492551 -0.532963,1.26228 -0.795858,2.0543 -1.48522,3.67375 -4.2076,6.11505 -2.52219,2.26178 -5.3773,3.23112 -6.76022,3.64659 -0.0292,0.0082 -0.08387,0.01991 -0.112202,0.02806 -0.323042,0.09517 -1.09398,0.392709 -1.09398,0.392709 -0.0044,0.002 -0.08415,0.02806 -0.08415,0.02806 l .2805,.8415 c 0,0 0.08209,-0.02756 0.08415,-0.02806 0,0 0.415598,-0.172527 1.09398,-0.364658 0.0077,-0.0023 0.02032,0.0023 0.02806,0 1.9294,-0.543268 5.95237,-1.21875 8.92009,1.31838 -0.32169,0.431436 -0.304142,1.05598 0.08415,1.45864 l 13.082,13.2238 c 0.443764,0.460174 1.20712,0.510933 1.68305,0.08415 l 3.1416,-2.8331 c 0.475927,-0.42678 0.49986,-1.16677 0.05609,-1.62694 l -13.082,-13.2238 c -0.397681,-0.412388 -1.0173,-0.466563 -1.48669,-0.168304 -1.59231,-1.98608 -1.75402,-4.25246 -1.45864,-6.1431 0.159322,-1.01977 0.454205,-1.88685 0.701267,-2.52456 0.252164,-0.650869 0.448812,-1.06593 0.448812,-1.06593 0.0083,-0.02081 0.01977,-0.03517 0.02806,-0.05609 l -.8135,-.3646 z "/>
<g id="g1616" transform="matrix(1.1215013,0,0,1.1215013,-5.2720553,-2.9442964)">
<path style="fill:none;stroke:#5a5a5a;stroke-width:3.674" id="path2420" d="m 55.7576,34.3966 a 15.9915,16.5965 85 0,1 -33.1575,-1.07206 15.9915,16.5965 85 1,1 33.1575,1.07206 Z "/>
<g style="fill:#fff;stroke:none;fill-rule:evenodd;stroke-width:.767">
<path style="opacity:.5" id="path3874" d="m 31.2099,46.4463 c 7.18171,4.25662 16.5804,2.06894 20.9777,-4.88344 4.39737,-6.9524 2.13697,-16.0503 -5.04473,-20.307 -7.18172,-4.25662 -16.5804,-2.06894 -20.9777,4.88345 -4.39738,6.95239 -2.13698,16.0503 5.04473,20.307 Z  m .4222,-.3728 c -1.03709,-0.608374 -2.02108,-1.35382 -2.90806,-2.23196 -5.67664,-5.62011 -5.57439,-14.6364 0.231337,-20.1316 5.80573,-5.49515 15.1199,-5.39617 20.7965,0.223939 4.17292,4.13136 5.35367,10.306 2.98466,15.6095 l -8.5844,-3.5957 c -0.09955,0.22111 -0.209224,0.437923 -0.343002,0.649431 -0.236566,0.374016 -0.525351,0.703279 -0.834362,0.997749 l 6.5457,6.4707 c -4.89858,4.63654 -12.2881,5.29324 -17.8885,2.00803 z "/>
<path style="opacity:.6" id="path1193" d="m 48.3289,22.0894 c -6.73411,-4.93432 -16.3008,-3.67025 -21.3529,2.82195 -5.05213,6.49221 -3.68648,15.7668 3.04763,20.7011 6.73412,4.93432 16.3008,3.67025 21.3529,-2.82195 5.05213,-6.49219 3.68648,-15.7668 -3.04764,-20.7011 z "/>
<path style="opacity:.6" id="path3869" d="m 43.7452,19.6654 c -8.01716,-2.3284 -16.5717,2.13693 -19.0937,9.96723 -2.52197,7.83024 1.93872,16.0755 9.95588,18.4039 8.01716,2.3284 16.5717,-2.13693 19.0937,-9.96723 2.52197,-7.83024 -1.93872,-16.0755 -9.95588,-18.4039 z  m -.3157,.4665 c 1.15615,0.330123 2.29511,0.806247 3.37327,1.43508 6.90021,4.02454 9.05272,12.7808 4.80313,19.5516 -4.24958,6.77083 -13.2934,9 -20.1936,4.97631 -5.07238,-2.95846 -7.75764,-8.64262 -6.788,-14.3697 l 9.2104,1.3382 c 0.04117,-0.238961 0.09325,-0.476293 0.169949,-0.714513 0.135676,-0.42124 0.33309,-0.812188 0.558776,-1.17449 l -7.9542,-4.6311 c 3.58558,-5.71288 10.5771,-8.19411 16.8203,-6.4114 Z "/>
<path style="opacity:.4" id="path1195" d="m 38.4788,19.0917 c -4.39106,0.170751 -8.66183,2.16757 -11.5036,5.81943 -5.05213,6.49221 -3.68584,15.7673 3.04827,20.7016 6.73412,4.93432 16.3013,3.67005 21.3534,-2.82214 5.05213,-6.49219 3.68585,-15.7673 -3.04827,-20.7016 -2.94617,-2.15877 -6.43453,-3.13009 -9.8498,-2.99728 z  m .4212,.4766 c 3.17717,-0.02448 6.34457,0.944043 8.97189,2.85096 0.973072,0.706268 1.8806,1.54494 2.67804,2.50512 5.10367,6.14511 4.12633,15.1072 -2.18589,20.0122 -6.31221,4.90501 -15.5736,3.90158 -20.6773,-2.24353 -3.75173,-4.5173 -4.32743,-10.7762 -1.4543,-15.8244 l 8.196,4.4117 c 0.120578,-0.210378 0.249783,-0.414364 0.403481,-0.611872 0.27179,-0.349257 0.590516,-0.650318 0.926674,-0.913372 l -5.8859,-7.0742 c 2.66296,-2.0693 5.85015,-3.08808 9.02732,-3.11256 z "/>
</g>
</g>
</g>
</svg>
