<svg width="48" version="1.1" xmlns="http://www.w3.org/2000/svg" height="48" xmlns:xlink="http://www.w3.org/1999/xlink">
<defs>
<linearGradient id="linearGradient3770">
<stop offset="0" style="stop-color:#ffda7d"/>
<stop offset="0.3" style="stop-color:#ffda7d"/>
<stop offset="0.3" style="stop-color:#ffc941"/>
<stop offset="0.68" style="stop-color:#ffc941"/>
<stop offset="0.68" style="stop-color:#dc9e00"/>
<stop offset="1" style="stop-color:#dc9e00"/>
</linearGradient>
<linearGradient id="linearGradient8">
<stop offset="0" style="stop-color:#b25c00"/>
<stop offset="1" style="stop-color:#fa8600"/>
</linearGradient>
<linearGradient gradientTransform="matrix(0.53608036,0.53608036,-0.73275116,0.73275116,25.20522,-19.925536)" id="linearGradient3849" xlink:href="#linearGradient3770" y1="23.72045" y2="23.72045" x1="34.265" x2="45.4021" gradientUnits="userSpaceOnUse"/>
<linearGradient id="linearGradient6">
<stop offset="0" style="stop-color:#bababa"/>
<stop offset="1" style="stop-color:#e3e3e3"/>
</linearGradient>
<linearGradient id="linearGradient2">
<stop offset="0"/>
<stop offset="1" style="stop-color:#666"/>
</linearGradient>
<linearGradient id="linearGradient4">
<stop offset="0" style="stop-color:#dbc457"/>
<stop offset="1" style="stop-color:#f0da94"/>
</linearGradient>
<linearGradient gradientTransform="matrix(0.53608036,0.53608036,-0.73275116,0.73275116,25.900468,-20.993433)" xlink:href="#linearGradient8" id="linearGradient9" y1="9.3204699" x1="45.741039" y2="9.31567" x2="34.681141" gradientUnits="userSpaceOnUse"/>
<linearGradient gradientTransform="matrix(0.53608036,0.53608036,-0.73275116,0.73275116,202.91955,120.65488)" xlink:href="#linearGradient2" id="linearGradient3" y1="64.174202" x1="-253.9902" y2="64.169296" x2="-260.0502" gradientUnits="userSpaceOnUse"/>
<linearGradient gradientTransform="matrix(0.53608036,0.53608036,-0.73275116,0.73275116,25.900468,-20.993433)" xlink:href="#linearGradient6" id="linearGradient7" y1="14.4086" x1="45.749699" y2="14.4061" x2="34.694302" gradientUnits="userSpaceOnUse"/>
<linearGradient gradientTransform="matrix(0.53608036,0.53608036,-0.73275116,0.73275116,25.900468,-20.993433)" xlink:href="#linearGradient4" id="linearGradient5" y1="35.438599" x1="45.729698" y2="35.443401" x2="34.612598" gradientUnits="userSpaceOnUse"/>
</defs>
<path style="fill:#7f8c8d" d="M 6,3.0022859 6,45 42,45 42,3 Z"/>
<g style="fill-rule:evenodd">
<g style="fill:#fff">
<rect width="24" x="15" y="9" height="3"/>
<rect width="3" x="9" y="9" height="3" style="opacity:.95"/>
<rect width="24" x="15" y="18" height="3"/>
<rect width="3" x="9" y="18" height="3" style="opacity:.95"/>
<rect width="24" x="15" y="27" height="3"/>
<rect width="3" x="9" y="27" height="3" style="opacity:.95"/>
<rect width="24" x="15" y="36" height="3"/>
<rect width="3" x="9" y="36" height="3" style="opacity:.95"/>
</g>
<path style="opacity:.3" d="m 43.1641,.8001 c -0.517747,-0.00717154 -1.34167,0.304943 -1.90234,0.865234 l -22.7442,22.7012 -4.4805,10.416 10.4102,-4.4941 22.7403,-22.6914 c 0.71481,-0.714322 1.06957,-2.06642 0.601562,-2.53516 l -4.0723,-4.0684 c -0.128055,-0.128258 -0.32172,-0.19016 -0.552735,-0.193359 Z "/>
<path style="fill:url(#linearGradient9)" d="m 42.9217,.0159 c -0.558734,0.0760662 -1.22577,0.414585 -1.66041,0.84893 l -3.595,3.5597 5.9255,5.9325 3.595,-3.5597 c 0.71481,-0.714322 1.06937,-2.06593 0.601365,-2.53466 l -4.0704,-4.0701 c -0.17074,-0.17101 -0.460806,-0.222348 -0.796048,-0.176706 Z "/>
<path style="fill:url(#linearGradient7)" d="m 37.6801,4.4384 -3.7368,3.7232 5.9258,5.9322 3.7365,-3.7229 z "/>
<path style="fill:url(#linearGradient3849)" d="m 33.9427,8.1574 -15.4582,15.3755 5.9719,5.9506 15.4118,-15.3935 Z "/>
<path style="fill:url(#linearGradient5)" d="m 18.5222,23.5565 -4.4849,10.4253 10.4103,-4.4927 -5.9255,-5.9325 z "/>
<path style="fill:url(#linearGradient3)" d="m 16.4916,28.2672 -2.4543,5.7145 5.6994,-2.4623 -3.2451,-3.2522 z "/>
</g>
</svg>
