<svg width="96" version="1.0" xmlns="http://www.w3.org/2000/svg" height="96">
<path style="fill:#747474;stroke:none" id="rect2419" d="m 12,6 72,0 c 3.324,0 6,2.676 6,6 v 72 c 0,3.324 -2.676,6 -6,6 h -72 c -3.324,0 -6,-2.676 -6,-6 v -72 c 0,-3.324 2.676,-6 6,-6 Z "/>
<g style="fill-rule:evenodd">
<path style="fill:#a1a1a1;stroke:#282828;stroke-linejoin:round" id="path3320" d="M 48,16 C 30.3269,16 16,30.3269 16,48 16,65.6731 30.3269,80 48,80 65.6731,80 80,65.6731 80,48 80,30.3269 65.6731,16 48,16 Z m 0,8 C 61.2548,24 72,34.7452 72,48 72,61.2548 61.2548,72 48,72 34.7452,72 24,61.2548 24,48 24,34.7452 34.7452,24 48,24 Z"/>
<g style="stroke:none">
<path style="fill:#323232" id="path3412" d="m 73,48 a 25,25 0 0 1 -50,0 25,25 0 1 1 50,0 z"/>
<path style="opacity:.6;fill:#4e4e4e" id="path3947" d="M 68.7846,36 C 62.15718,24.521 47.479,20.588 36,27.21539 c -11.479,6.62742 -15.412,21.3056 -8.78461,32.7846 6.62742,11.479 21.3056,15.412 32.7846,8.78461 C 71.47899,62.15718 75.41199,47.479 68.7846,36 Z m -3.4641,2 c 5.52285,9.56585 2.24534,21.7977 -7.32051,27.3205 -9.56585,5.52285 -21.7977,2.24534 -27.3205,-7.32051 C 25.15664,48.43414 28.43415,36.20229 38,30.67949 47.56585,25.15664 59.7977,28.43415 65.3205,38 Z"/>
<path style="fill:#4d4d4d" id="path3918" d="M 48,23 C 34.1929,23 23,34.1929 23,48 23,61.8071 34.1929,73 48,73 61.8071,73 73,61.8071 73,48 73,34.1929 61.8071,23 48,23 Z m 0,1 C 61.2726,24 72,34.7274 72,48 72,61.2726 61.2726,72 48,72 34.7274,72 24,61.2726 24,48 24,34.7274 34.7274,24 48,24 Z m 0,5 C 37.5243,29 29,37.52434 29,48 29,58.4757 37.52434,67 48,67 58.4757,67 67,58.47566 67,48 67,37.5243 58.47565,29 48,29 Z m 0,1 c 9.94112,0 18,8.05888 18,18 0,9.94112 -8.05888,18 -18,18 -9.94112,0 -18,-8.05888 -18,-18 0,-9.94112 8.05888,-18 18,-18 z"/>
</g>
<path style="fill:#d7991e;stroke:#c2c2c2;stroke-linejoin:round;stroke-width:2" id="path3493" d="m 65.5254,48 a 17.5254,17.5254 0 0 1 -35.0508,0 17.5254,17.5254 0 1 1 35.0508,0 z"/>
</g>
<g style="stroke:none" id="g27">
<path style="fill:#333;fill-rule:evenodd" id="path3540" d="m 55,48 a 7,7 0 0 1 -14,0 7,7 0 1 1 14,0 z"/>
<path style="fill:#a1a1a1" id="path4079" d="m 80.0001,85 a 6.0001,6.0001 0 1 1 0,-12.0002 6.0001,6.0001 0 0 1 0,12.0002 z"/>
<path style="opacity:.6" id="path4093" d="m 80.0001,73.9999 a 5,5 0 1 0 0,10 5,5 0 0 0 0,-10 z"/>
<path style="fill:#bababa" id="path4081" d="m 80.0001,74.4999 a 4.5,4.5 0 1 0 0,9 4.5,4.5 0 0 0 0,-9 z"/>
<path style="opacity:.8;fill:#1a1a1a" id="path4097" d="m 80.0001,81.9998 a 2.99991,2.99991 0 1 1 0,-5.99981 2.99991,2.99991 0 1 1 0,5.99981 z"/>
</g>
<path style="stroke-opacity:.532;fill:#9af06e;stroke:#000;stroke-linecap:square;stroke-width:.999" id="path4121" d="m 84.9822,67.5089 a 2.49108,2.49107 0 1,1 -4.98214,0 2.49108,2.49107 0 1,1 4.98214,0 z "/>
</svg>
