<svg width="128" version="1.0" xmlns="http://www.w3.org/2000/svg" height="128">
<g style="stroke:none">
<path style="opacity:.2" id="path4300" d="m 7.9131,14 c -1.07505,0 -1.92628,0.853938 -1.92628,1.93239 v 105.135 c 0,1.07843 0.851238,1.93238 1.92628,1.93238 h 113.161 c 1.07505,0 1.92629,-0.85395 1.92629,-1.93238 v -105.135 c 0,-1.07846 -0.85124,-1.93239 -1.92629,-1.93239 Z "/>
<rect width="1" x="274.18399" y="1.23577" height="0" style="opacity:.578;fill:#fff;stroke-linejoin:round;stroke-linecap:round;stroke-width:3.632;stroke-dashoffset:4" id="rect1327"/>
<path style="opacity:.2" id="path4302" d="m 8.8767,15 c -1.04735,0 -1.87667,0.830435 -1.87667,1.87921 v 102.242 c 0,1.04875 0.829312,1.87919 1.87667,1.87919 h 110.246 c 1.04735,0 1.87667,-0.83044 1.87667,-1.87919 v -102.242 c 0,-1.04878 -0.82932,-1.87921 -1.87667,-1.87921 Z "/>
<path style="fill:#f0e8dc" id="path4275" d="M 9.84375,16 C 8.8147657,16 8,16.814766 8,17.84375 l 0,100.31238 c 0,1.02898 0.8147657,1.84375 1.84375,1.84375 l 108.3125,0 c 1.02898,0 1.84375,-0.81477 1.84375,-1.84375 L 120,17.84375 C 120,16.814766 119.18523,16 118.15625,16 Z"/>
<path style="fill:#fff" id="rect2859" d="m 40,40 24,0 0,16 -24,0 z"/>
<g style="stroke-linecap:round;stroke-linejoin:round;stroke-width:1.5">
<path style="fill:#bebebe" id="rect3678" d="m 16.5,40 c -0.269548,0 -0.5,0.230451 -0.5,0.5 v 71 c 0,0.26955 0.230451,0.5 0.5,0.5 h 15 c 0.269548,0 0.5,-0.23045 0.5,-0.5 v -71 c 0,-0.269548 -0.230451,-0.5 -0.5,-0.5 h -15 z  m 56,0 c -0.269548,0 -0.5,0.230451 -0.5,0.5 v 71 c 0,0.26955 0.230451,0.5 0.5,0.5 h 15 c 0.269548,0 0.5,-0.23045 0.5,-0.5 v -71 c 0,-0.269548 -0.230451,-0.5 -0.5,-0.5 h -15 z  m 24,0 c -0.269548,0 -0.5,0.230451 -0.5,0.5 v 71 c 0,0.26955 0.230451,0.5 0.5,0.5 h 15 c 0.26955,0 0.5,-0.23045 0.5,-0.5 v -71 c 0,-0.269548 -0.23045,-0.5 -0.5,-0.5 h -15 z  m -56,24 c -0.269548,0 -0.5,0.230451 -0.5,0.5 v 47 c 0,0.26955 0.230451,0.5 0.5,0.5 h 23 c 0.269548,0 0.5,-0.23045 0.5,-0.5 v -47 c 0,-0.269548 -0.230451,-0.5 -0.5,-0.5 h -23 z "/>
<rect width="102.99999" x="12" y="34.899963" rx="0.51248276" ry=".5" height="1" style="fill:#a1a1a1" id="rect3672"/>
</g>
<g style="font-family:'Bitstream Charter';text-align:start;word-spacing:0;line-height:125%;letter-spacing:0" id="g15">
<path style="font-weight:bold" id="path4305" d="m 56.0216,34.0483 4.9285,0 0,-1.0376 -1.3402,-.1729 -.3459,-.3891 0,-10.0082 7.4792,11.6078 2.421,0 0,-12.9048 .3675,-.4107 1.2753,-.1729 0,-1.016 -4.9285,0 0,1.016 1.3186,.1729 .3891,.4107 0,9.2517 -6.6145,-10.2676 0,-.5836 -4.9717,0 0,1.0592 1.3834,.1081 .3026,.3026 0,11.4349 -.3891,.3891 -1.2753,.1729 0,1.0376 z "/>
<path style="font-weight:bold" id="path4307" d="m 71.7919,34.0483 11.6078,0 0,-3.8693 -1.4699,0 -.3675,2.2913 -.281,.3459 -5.0149,0 0,-5.6202 2.8101,0 .3026,.3026 .2162,1.5564 1.2753,0 0,-5.0149 -1.2753,0 -.2162,1.5564 -.3026,.3026 -2.8101,0 0,-5.1446 4.3016,0 .281,.281 .3242,1.9022 1.5131,0 0,-3.3937 -10.8945,0 0,1.0592 1.3186,.1081 .3459,.3026 0,11.5214 -.3459,.3459 -1.3186,.1081 0,1.0592 z "/>
<path style="font-weight:bold" id="path4309" d="m 88.9486,34.0483 2.0968,0 3.2856,-11.0674 3.3505,11.0674 2.0968,0 3.3073,-13.1426 1.3618,-.3026 0,-1.0592 -4.7123,0 0,1.0592 1.4267,.2594 .2594,.3026 -2.2697,9.0787 -3.1992,-10.6999 -2.1832,0 -3.1127,10.4622 -2.421,-8.9707 .1729,-.3026 1.3402,-.1513 0,-1.0376 -5.6634,0 0,1.0592 1.3618,.3026 3.5018,13.1426 z "/>
<path style="font-weight:bold" id="path4311" d="m 105.751,33.5727 c 1.3402,0.475553 2.78847,0.713329 4.1719,0.713329 3.54503,0 5.72825,-1.85898 5.72825,-4.43129 0,-1.27535 -0.69171,-2.44261 -1.94544,-3.24241 -1.27535,-0.821409 -2.421,-1.14565 -3.0911,-1.55635 -1.14565,-0.691713 -1.7509,-1.3402 -1.7509,-2.33453 0,-1.18888 0.97272,-2.05352 2.5507,-2.05352 0.69171,0 1.18888,0.108081 1.57797,0.302625 l .3026,.3026 .3675,2.2481 h 1.55636 v -3.5018 c -1.36181,-0.475553 -2.72362,-0.734945 -4.06382,-0.734945 -3.09109,0 -5.10138,1.85898 -5.10138,4.25836 0,1.05919 0.51878,2.11837 1.51312,2.9614 0.95111,0.799794 1.96706,1.16727 2.8317,1.59959 1.53474,0.778178 2.31292,1.55635 2.31292,2.72362 0,1.18888 -1.03757,2.05352 -2.78847,2.05352 -0.6701,0 -1.29696,-0.108081 -1.90221,-0.302625 l -.281,-.3242 -.3459,-2.5939 h -1.64282 v 3.9125 z "/>
</g>
</g>
</svg>
