<svg width="96" version="1.0" xmlns="http://www.w3.org/2000/svg" height="96">
<g style="fill-rule:evenodd;stroke:none">
<rect width="84" x="6" y="6" height="84" style="stroke-opacity:.431;fill:#af6b32;stroke-linecap:square" id="rect4150"/>
<g style="fill:#fff">
<path id="path4155" d="m 46.1125,29.0919 c 0,0 -0.807892,-0.237853 -1.90155,0.660601 -0.972996,0.799327 -1.21374,2.47449 -2.44147,2.64243 -1.99761,0.273251 -8.56722,-0.695561 -9.27848,-0.206809 -2.975,2.04431 -3.03166,2.71198 -7.16786,-0.934239 -0.725592,-0.639637 -0.517334,-2.85158 0.355558,-3.90358 1.72934,-2.08419 2.8942,-2.9431 5.40019,-3.90358 1.92879,-0.73926 3.61379,-1.25148 5.61925,-1.56143 0.18139,-1.64203 1.10276,-3.66365 2.55844,-4.08375 0.986189,-0.284607 8.08332,-1.59146 8.08332,-1.59146 l 2.5342,-3.3674 c 0,0 -0.05831,2.43997 0.10459,3.42741 4.94028,-0.17511 8.87389,7.38968 9.58196,10.9 0.466841,2.31443 0.650451,5.10584 0.517441,8.34766 3.04764,6.9873 3.28171,12.5707 3.24493,21.5594 h -25.283 c 0.08428,-6.96406 -0.495895,-9.83825 2.85896,-14.2327 1.6269,-2.13103 4.81312,-4.51977 5.09724,-6.84629 0.260878,-2.13617 0.116286,-6.90633 0.116286,-6.90633 z "/>
<path style="stroke-opacity:.431;stroke-linecap:square" id="rect4159" d="m 38.04,57.5184 25.283,0 -0,2.0419 -25.2832,0 z "/>
<path id="path4163" d="m 56.053,60.0752 -11.481,0 0,2.486 -3.5097,0 c -2.32734,3.74616 -7.82721,8.86369 -7.85627,12.037 -0.0084,0.915294 0,2.746 0,2.746 h -3.059 v 5.813 h 40.97 v -5.813 h -3.2925 c 0,0 0.01419,-1.83078 0,-2.746 -0.04331,-2.79317 -5.35556,-7.70352 -8.16239,-12.037 h -3.60911 z "/>
</g>
</g>
</svg>
