<svg width="96" version="1.0" xmlns="http://www.w3.org/2000/svg" height="96" xmlns:xlink="http://www.w3.org/1999/xlink">
<g id="layer1">
<rect width="84" x="6" y="6" rx="6" height="84" ry="0.036197715" style="fill:#e19c2b;stroke:none" id="rect2419"/>
</g>
<g style="stroke:none">
<path id="path3813" d="m 48,27 c -4.27575,0 -7.75,3.22497 -7.75,7.21875 0.01037,0.45769 0.01495,0.99321 0.0625,1.5625 -0.676671,0.36101 -0.759833,1.76427 -0.15625,3.1875 0.232745,0.54881 0.554225,1.01384 0.875,1.375 0.01069,0.012 0.0205,0.01945 0.03125,0.03125 0.07657,0.37603 0.12615,0.66959 0.21875,1.09375 0.286865,0.86126 1.48739,2.48233 2.53125,3.875 0.104099,1.07433 0.115692,2.12172 -0.09375,3.34375 -1.69142,1.40437 -4.83156,2.39797 -7.28125,3.4375 -0.88116,-0.405159 -1.68005,-0.84776 -2.25,-1.34375 -0.09012,-0.74197 -0.07714,-1.48795 -0.03125,-2.21875 0.711798,-1.09884 1.63681,-2.50365 1.875,-3.21875 0.08754,-0.37033 0.119513,-0.6195 0.1875,-0.9375 0.210194,-0.25711 0.407337,-0.57163 0.5625,-0.9375 0.429892,-1.01368 0.375647,-1.98338 -0.0625,-2.3125 0.03061,-0.44045 0.08095,-0.84231 0.09375,-1.21875 0,-2.99533 -2.60569,-5.4375 -5.8125,-5.4375 -3.20681,0 -5.8125,2.44218 -5.8125,5.4375 0.0078,0.34327 0.02684,0.72928 0.0625,1.15625 -0.507503,0.27075 -0.577687,1.30757 -0.125,2.375 0.174559,0.4116 0.415669,0.76038 0.65625,1.03125 0.008,0.009 0.02319,0.02245 0.03125,0.03125 0.05743,0.28202 0.08679,0.49438 0.15625,0.8125 0.215149,0.64594 1.09211,1.86175 1.875,2.90625 0.07807,0.80575 0.09459,1.61472 -0.0625,2.53125 -2.25344,1.87102 -8.00864,2.68803 -8,4.625 l -.7812,5.0625 c 0,1.03181 1.54825,1.95539 4,2.59375 l .3438,1.375 a 0.843174,0.843822 0 0,0 0.53125,0.5625 c 0.108823,0.0421 0.170502,0.1321 0.46875,0.21875 1.57109,0.45647 3.96637,0.78125 6.65625,0.78125 2.53462,0 4.80443,-0.304222 6.375,-0.71875 l .4062,1.6562 a 1.12423,1.1251 0 0,0 0.6875,0.75 c 0.145097,0.0562 0.258586,0.16571 0.65625,0.28125 2.09479,0.60863 5.28849,1.03125 8.875,1.03125 3.58651,0 6.81146,-0.42262 8.90625,-1.03125 0.397664,-0.11554 0.511152,-0.22509 0.65625,-0.28125 a 1.12423,1.1251 0 0,0 0.65625,-0.71875 l .4688,-1.6562 c 1.56651,0.408587 3.80012,0.6875 6.3125,0.6875 2.68988,0 5.11641,-0.32478 6.6875,-0.78125 0.298248,-0.0867 0.359927,-0.17663 0.46875,-0.21875 a 0.843174,0.843822 0 0,0 0.5,-0.53125 l .4375,-1.4375 c 2.39184,-0.63736 3.90625,-1.54522 3.90625,-2.5625 l -.7812,-5.0625 c -0.0092,-1.65778 -5.80544,-2.68803 -8.03125,-4.625 -0.09012,-0.74197 -0.07714,-1.48795 -0.03125,-2.21875 0.711798,-1.09884 1.63681,-2.50365 1.875,-3.21875 0.08754,-0.37033 0.119513,-0.6195 0.1875,-0.9375 0.210194,-0.25711 0.407337,-0.57163 0.5625,-0.9375 0.429892,-1.01368 0.375647,-1.98338 -0.0625,-2.3125 0.03061,-0.44045 0.08095,-0.84231 0.09375,-1.21875 0,-2.99533 -2.60568,-5.4375 -5.8125,-5.4375 -3.20681,0 -5.8125,2.44218 -5.8125,5.4375 0.0078,0.34327 0.02684,0.72928 0.0625,1.15625 -0.507503,0.27075 -0.577687,1.30757 -0.125,2.375 0.174559,0.4116 0.415669,0.76038 0.65625,1.03125 0.008,0.009 0.02319,0.02245 0.03125,0.03125 0.05743,0.28202 0.0868,0.49438 0.15625,0.8125 0.215149,0.64594 1.09211,1.86175 1.875,2.90625 0.07807,0.80575 0.09459,1.61472 -0.0625,2.53125 -0.64335,0.534171 -1.56298,0.959298 -2.5625,1.375 -2.41091,-1.01731 -5.37094,-2.07828 -6.96875,-3.46875 -0.120158,-0.9893 -0.12368,-1.9631 -0.0625,-2.9375 0.949064,-1.46511 2.21367,-3.32778 2.53125,-4.28125 0.11672,-0.49378 0.15935,-0.826 0.25,-1.25 0.280258,-0.34282 0.543117,-0.76217 0.75,-1.25 0.57319,-1.35156 0.521696,-2.65492 -0.0625,-3.09375 0.04082,-0.58727 0.07669,-1.15433 0.09375,-1.65625 0,-3.99377 -3.47425,-7.21875 -7.75,-7.21875 z "/>
<g style="fill-rule:evenodd">
<path id="path3048" d="m 80.9206,18.5875 8.7093,15.0849 -17.4186,-0 z " transform="translate(-3.2326041,-8.6528906)"/>
<rect width="6.1976771" x="74.489059" y="20.692379" height="13.213915" id="rect3050"/>
</g>
</g>
</svg>
