<svg width="48" version="1.0" xmlns="http://www.w3.org/2000/svg" height="48">
<g style="stroke:none" id="layer1" transform="translate(0,-80)">
<path style="fill:#282828" id="path4150" d="m 24.125,85.4375 c -0.535959,0.02595 -1.0829,0.09352 -1.625,0.15625 -11.5649,1.33825 -20.0803,10.5964 -19,20.6875 0.430202,4.01834 2.34277,7.55473 5.1875,10.2812 -1.14853,2.69878 -3.18286,4.64592 -6.1875,5.03125 5.5,3.40625 11.5,2.40625 14.1562,-0.34375 2.99911,0.94942 6.31449,1.27255 9.75,0.875 11.5649,-1.33825 20.0803,-10.5964 19,-20.6875 -0.877784,-8.19898 -7.81911,-14.421 -16.5938,-15.75 -1.51869,-0.230024 -3.07962,-0.327862 -4.6875,-0.25 z "/>
<g style="fill:#fff">
<path id="path4148" d="m 34.3254,92.2812 c 0.960137,4.6e-05 1.7469,0.884152 1.8125,2 v 10.75 6.0625 c -0.000531,1.18587 -0.84063,2.12504 -1.84375,2.125 l -11.2438,-5.9625 -.0003,-9.4123 Z "/>
<path id="path1969" d="m 12.4691,98.0122 8.6559,0 c 0.0092,-0.0041 0.02225,0.0041 0.03125,0 l .0003,9.0755 h -3.06887 l -.0003,6.6125 c -0.00054,1.20796 -0.846135,2.18755 -1.875,2.1875 h -2.20011 c -1.02887,-4e-05 -1.8443,-0.97954 -1.84375,-2.1875 l .0003,-6.6125 h -0.931124 c -0.698882,-3e-05 -0.107829,-0.4273 -0.424578,-1.09375 -0.949527,-0.0991 -1.68801,-1.01478 -1.6875,-2.15625 l -.0003,-2.5755 c 0.000509,-1.14147 0.769143,-2.05724 1.71875,-2.15625 0.317344,-0.666411 0.926123,-1.09378 1.625,-1.09375 z "/>
</g>
</g>
</svg>
