<svg width="96" version="1.0" xmlns="http://www.w3.org/2000/svg" height="96">
<ellipse cx="48" cy="48.0005" rx="40" ry="39.1875" style="opacity:.3;fill-rule:evenodd;stroke:none;stroke-linecap:square" id="path4351"/>
<g style="fill-rule:evenodd;stroke:none" id="g15">
<path style="fill:#c0392b" id="path3141" d="m 53.162,13.697 -31.8742,18.6418 46.9156,9.9457 z "/>
<g id="g3077" transform="matrix(1.1256243,0,0,1.1256243,-6.5881767,-6.4504763)">
<path style="fill:#f39c12" id="path3109" d="m 25.6549,31.4421 c 29.4276,6.74286 44.0536,10.0942 43.8777,10.0537 -0.175899,-0.04062 -3.39734,10.1189 -9.66437,30.4784 z"/>
<path style="fill:#75a039" id="path3143" d="m 27.583,27.5723 3.4075,49.5308 c 3.09315,1.7722 6.48038,3.0996 10.0937,3.86616 4.13545,-3.81311 10.3391,-7.75886 18.6582,-11.8382 L 27.5831,27.57236 Z"/>
<path style="fill:#1abc9c" id="path3145" d="M 31.455,28.9909 14.9159,56.2272 c 2.69308,10.2741 10.0823,18.6504 19.8381,22.764 L 31.455,28.9909 Z"/>
<path style="fill:#3498db" id="path3147" d="m 20.2967,27.7721 c -4.08926,5.59453 -6.52002,12.4444 -6.52002,19.8869 0,4.46323 0.890994,8.70738 2.46493,12.6075 l 16.9663,-30.0368 -12.9112,-2.4576 z"/>
<path style="fill:#8e44ad" id="path3149" d="M 47.828,13.5762 C 35.1368,13.810258 24.1707,20.67138 18.3133,30.7958 l 13.2638,1.9647 20.8959,-10.433 -4.6451,-8.7513 z"/>
<path style="fill:#9b59b6" id="path3151" d="m 48.4959,13.5596 c -1.62781,0 -3.22725,0.118803 -4.79424,0.329672 l 5.6927,10.1233 17.8377,-5.065 c -5.40179,-3.3983 -11.8184,-5.38798 -18.7362,-5.38798 z"/>
<path style="fill:#8bc941" id="path3153" d="M 60.173,62.6774 39.5686,80.5863 c 2.85125,0.73914 5.83315,1.17217 8.92731,1.17217 7.75424,0 14.8751,-2.50172 20.6417,-6.69002 l -8.9646,-12.391 z"/>
<path style="fill:#e74c3c" id="path3155" d="m 64.1941,17.2492 -14.776,6.74 16.0271,19.3674 17.0036,-2.8305 C 80.25007,30.308 73.41384,21.8316 64.1941,17.2492 Z"/>
<path style="fill:#f1c40f" id="path3157" d="m 81.5673,37.2527 -18.8514,2.714 -5.7978,25.6079 9.2291,11.442 c 10.2197,-5.92188 17.068,-16.8131 17.068,-29.3575 0,-3.63383 -0.585419,-7.12706 -1.64781,-10.4063 z"/>
</g>
<g style="stroke-miterlimit:2" id="g28">
<path style="opacity:.3" id="path3135" d="m 55.377,60.028 4.268,-4.225 11.8074,12.4237 -3.2752,3.1458 z "/>
<path style="opacity:.3" id="path3124" d="M 8,11.1835 10.4317,8.8126 59.6453,55.8033 55.377,60.028 Z"/>
</g>
<path style="opacity:.3" id="path3128" d="m 69.1267,69.0903 c 8.71249,-8.45967 6.54512,8.00509 18.8732,17.1384 C 74.98,90.60638 58.7747,79.14193 69.1267,69.0903 Z"/>
<g style="stroke-miterlimit:2" id="g33">
<path style="fill:#800000" id="path3159" d="m 8.9192,11.1348 2.3759,-2.3223 48.0826,46.0262 -4.1706,4.1375 Z "/>
<path style="fill:#bdc3c7" id="path3161" d="m 55.1197,58.8894 4.1707,-4.1375 11.3945,12.5354 -3.1847,3.096 z "/>
</g>
<path id="path3163" d="m 68.6412,67.8531 c 8.51228,-8.28604 6.39471,7.84078 18.4395,16.7867 -12.7207,4.28783 -28.5536,-6.94132 -18.4395,-16.7867 Z "/>
</g>
</svg>
