<svg width="96" version="1.0" xmlns="http://www.w3.org/2000/svg" height="96" xmlns:xlink="http://www.w3.org/1999/xlink">
<defs id="defs60">
<linearGradient id="linearGradient2888-4-3">
<stop offset="0.0000000" style="stop-color:#fff" id="stop2889-50"/>
<stop offset="1" style="stop-color:#b4b4b4" id="stop2894-1"/>
</linearGradient>
<linearGradient gradientTransform="matrix(3.465951,0,0,3.3628156,-581.86124,-497.41744)" id="linearGradient4859" xlink:href="#linearGradient2888-4-3" y1="165.82466" y2="151.52789" x1="182.28128" x2="175.20076" gradientUnits="userSpaceOnUse"/>
<linearGradient gradientTransform="matrix(3.3336792,0,0,3.2341072,111.65013,-85.876287)" id="linearGradient3808" xlink:href="#linearGradient2888-4-3" y1="34.121754" y2="41.695" x1="-26.252876" x2="-21.25" gradientUnits="userSpaceOnUse"/>
</defs>
<path style="fill:#d2d2d2" id="rect2419-8" d="m 12,6 h 72 c 3.324,0 6,2.676 6,6 v 72 c 0,3.324 -2.676,6 -6,6 H 12 C 8.676,90 6,87.324 6,84 V 12 C 6,8.676 8.676,6 12,6 Z"/>
<path style="opacity:.25;fill-rule:evenodd;color:#000;stroke-width:1.285" id="path5300" d="m 38.1953,10.4243 c -15.4283,0.258644 -28.3054,12.1996 -28.9316,27.3887 -0.646195,15.674 12.0545,28.7906 28.1348,29.3105 3.99676,0.129224 7.84609,-0.528791 11.3848,-1.83008 2.90657,-0.742239 8.24853,-1.42388 12.2695,2.01367 -0.4606,0.617737 -0.434876,1.51136 0.121094,2.08789 l 18.6914,18.9668 c 0.635387,0.658883 1.72676,0.730206 2.4082,0.119141 l 4.498,-4.0566 c 0.681439,-0.611071 0.717409,-1.66925 0.08203,-2.32812 l -18.6914,-18.9668 c -0.569358,-0.590461 -1.45683,-0.667283 -2.12891,-0.240234 -2.2799,-2.84369 -2.51081,-6.08983 -2.08789,-8.79688 0.129002,-0.825698 0.321684,-1.57031 0.527344,-2.23633 1.97751,-3.62935 3.17524,-7.72773 3.35742,-12.0957 0.653942,-15.6788 -12.0493,-28.8041 -28.1348,-29.3242 -0.502671,-0.01625 -1.00231,-0.02006 -1.5,-0.01172 z  m .0957,5.8418 c 0.403,-0.0065 0.809277,-0.0034 1.2168,0.0098 13.0406,0.421632 23.0019,10.8325 22.4844,23.2402 -0.517335,12.4036 -11.368,22.189 -24.4043,21.7675 -13.0363,-0.421493 -22.9977,-10.8247 -22.4863,-23.2285 0.495559,-12.0202 10.6965,-21.5862 23.1895,-21.7891 Z "/>
<path style="fill:#111d36;stroke:#111d36;stroke-width:.855" id="path9" d="m 52.2849,25.8327 c -2.20979,-2.82719 -2.09371,-3.60404 -4.82957,-1.38952 l -2.207,1.7865 c -1.59768,-1.01583 -3.56767,-1.66137 -5.47473,-1.90982 l -.6458,-2.6393 c -0.887448,-3.62683 -1.96017,-2.27203 -5.00232,-1.422 -3.39307,0.936043 -4.58919,0.314969 -3.70402,3.74778 l .6525,2.5305 c -0.231019,0.204229 -0.551769,0.446625 -0.782787,0.650855 -0.962247,0.727184 -1.72026,1.68539 -2.38855,2.60543 l -2.5589,-.6599 c -3.45578,-0.891243 -2.92698,0.581269 -3.79944,3.52345 -1.0694,3.45979 -2.05365,3.96806 1.4463,4.89489 l 2.6868,.7115 c 0.06091,1.13968 0.339462,2.29276 0.835628,3.45923 l -2.207,1.7865 c -2.83558,2.29524 -1.62553,2.49079 0.415424,4.96251 2.20979,2.82719 2.0937,3.60404 4.82957,1.38952 l 2.207,-1.7865 c 1.59768,1.01583 3.56767,1.66137 5.47473,1.90981 l .6458,2.6393 c 0.887447,3.62683 1.96017,2.27203 5.00233,1.422 3.39307,-0.936034 4.58919,-0.314933 3.70402,-3.74777 l -.6525,-2.5305 c 0.231021,-0.204234 0.551769,-0.446627 0.782788,-0.650852 0.962246,-0.727186 1.72026,-1.6854 2.38855,-2.60543 l 2.5589,.6599 c 3.31401,1.32442 2.92698,-0.581268 3.79944,-3.52346 1.0694,-3.45979 2.05365,-3.96807 -1.44629,-4.89489 l -2.6868,-.7115 c -0.06091,-1.13969 -0.339461,-2.29276 -0.835626,-3.45923 l 2.207,-1.7865 c 2.83558,-2.29524 1.62552,-2.49079 -0.415426,-4.96251 Z  m -10.8282,15.1491 c -2.20707,1.7865 -5.50961,1.49584 -7.38583,-0.673066 -1.87622,-2.1689 -1.49584,-5.5096 0.673068,-7.38583 2.20708,-1.7865 5.5096,-1.49584 7.38583,0.673068 1.7865,2.20708 1.49584,5.5096 -0.673067,7.38583 z "/>
<g style="fill-rule:evenodd">
<path style="fill:#464646;color:#000;stroke-width:1.285" id="path4249-7" d="m 64.4673,46.8486 c 0,0 -0.344902,0.705244 -0.763103,1.80735 -1.13952,2.94138 -2.12655,5.26011 -6.02451,8.75561 -3.61131,3.23845 -7.6993,4.62636 -9.67937,5.22124 -0.04181,0.01177 -0.120078,0.02851 -0.160654,0.04016 -0.46254,0.136267 -1.56637,0.562288 -1.56637,0.562288 -0.0063,0.0026 -0.120495,0.04016 -0.120495,0.04016 l .4016,1.205 c 0,0 0.117535,-0.03945 0.120495,-0.04016 0,0 0.595057,-0.247027 1.56637,-0.522124 0.01101,-0.0032 0.02909,0.0032 0.04016,0 2.76252,-0.777857 8.52268,-1.74502 12.772,1.88768 -0.460601,0.617738 -0.435476,1.51197 0.120495,2.0885 l 18.6904,18.9664 c 0.635387,0.658884 1.72836,0.731561 2.40981,0.120495 l 4.4983,-4.0565 c 0.681439,-0.611072 0.715708,-1.67059 0.08033,-2.32947 l -18.6904,-18.9664 c -0.569359,-0.590462 -1.45659,-0.66803 -2.12866,-0.240981 -2.2799,-2.8437 -2.51142,-6.08873 -2.0885,-8.79579 0.22812,-1.46012 0.650341,-2.70162 1.00409,-3.6147 0.36105,-0.931924 0.642613,-1.52621 0.642613,-1.52621 0.01177,-0.02981 0.02828,-0.05037 0.04016,-0.08031 l -1.1647,-.5221 z "/>
<ellipse cx="38.54398" cy="37.27026" rx="24.261656" ry="23.539711" style="opacity:.3;fill:url(#linearGradient4859);stroke-width:3.415" id="path4272"/>
<path style="opacity:.35;fill:url(#linearGradient3808);stroke-width:2.211" id="path5507" d="m 18.3071,43.4879 c 16.6684,-3.2341 14.235,-19.9847 32.5491,-23.2188 -8.70693,-5.5401 -18.6389,-4.99453 -25.8817,0.580026 -6.89002,5.23033 -10.001,16.1705 -6.66737,22.6387 Z "/>
</g>
<path style="fill:none;stroke:#464646;stroke-width:5.843" id="path2420-5" d="m 64.9117,38.1383 a 25.4305,26.3927 85 0,1 -52.7289,-1.70485 25.4305,26.3927 85 1,1 52.7289,1.70485 Z "/>
</svg>
