<svg width="48" version="1.1" xmlns="http://www.w3.org/2000/svg" height="48">
<g style="opacity:.6;fill:#fff" id="g4137" transform="translate(-259.5004,-223.5)">
<path style="font-family:Sans;text-align:start;stroke:none;line-height:normal;color:#000;text-indent:0;stroke-width:2;text-transform:none" id="path4139" d="m 284.9999,226.5 c -7.3895,0 -13.4375,7.048 -13.4375,14.4375 0,4.26297 2.26984,7.80669 5.375,10.25 l -1.5,7.0625 1.5,1.5 h 2.6875 10.75 2.6875 v -2.6875 -5.875 c 3.10516,-2.44331 5.375,-5.98703 5.375,-10.25 0,-7.3895 -6.048,-14.4375 -13.4375,-14.4375 z  m -9.5625,37.125 1.5,1.5 16.125,0 0,-2.6875 -1.5,-1.4995 z  m 2.688,5.375 1.4995,1.5 10.75,0 0,-2.6875 -1.4995,-1.5005 z "/>
</g>
<g style="font-family:Sans;text-align:start;stroke:none;line-height:normal;text-indent:0;text-decoration-line:none;color:#000;text-transform:none" id="g4150" transform="translate(-5e-4,5.9999998e-8)">
<g style="stroke-width:2" id="g7">
<path style="fill:#a0a0a0" id="path4160" d="m 24,2.5 c -7.3895,0 -13.4375,6.048 -13.4375,13.4375 0,4.26297 2.26984,7.80278 5.375,10.2461 v 5.87891 2.6875 h 2.6875 10.75 2.6875 v -2.6875 -5.87891 c 3.10516,-2.44331 5.375,-5.98312 5.375,-10.2461 0,-7.3895 -6.048,-13.4375 -13.4375,-13.4375 Z "/>
<path style="fill:#fff00f;fill-opacity:.941" id="path4561-9" d="m 24,7.875 c 4.48458,0 8.0625,3.57792 8.0625,8.0625 0,2.99885 -1.59925,5.4768 -4.03125,6.88672 l -1.3438,.8398 v 1.51172 4.19922 h -5.375 v -4.19922 -1.51172 l -1.3438,-.8398 c -2.432,-1.40992 -4.03125,-3.88787 -4.03125,-6.88672 0,-4.48458 3.57792,-8.0625 8.0625,-8.0625 z "/>
</g>
<g style="fill:#a0a0a0" id="g10" transform="matrix(0.89583333,0,0,0.89583333,2.5000001,2.5000001)">
<path id="path4488-4" d="m 18,45 0,3 12,0 0,-3 -12,0 z"/>
<path id="path4488-4-7" d="m 15,39 0,3 18,0 0,-3 -18,0 z"/>
<path id="path4488-4-4" d="m 21,15.893 0,3 6,0 0,-3 -6,0 z"/>
</g>
</g>
</svg>
