<svg width="96" version="1.0" xmlns="http://www.w3.org/2000/svg" height="96" xmlns:xlink="http://www.w3.org/1999/xlink">
<g id="layer1">
<rect width="84" x="6" y="6" rx="6" height="84" ry="0.036197715" style="fill:#e19c2b;stroke:none" id="rect2419"/>
</g>
<path style="stroke:none" id="path3813" d="m 48,26.2759 c -4.42319,0 -8.01724,3.33618 -8.01724,7.46767 0.01073,0.473472 0.01546,1.02746 0.06466,1.61638 -0.700005,0.373458 -0.786034,1.82511 -0.161638,3.29741 0.240771,0.567734 0.573336,1.0488 0.905172,1.42241 0.01106,0.01241 0.02121,0.02012 0.03233,0.03233 0.07921,0.388997 0.1305,0.692679 0.226293,1.13147 0.296757,0.890958 1.53868,2.56793 2.61853,4.00862 0.107689,1.11138 0.119682,2.19488 -0.09698,3.45905 -1.74974,1.4528 -4.99817,2.48066 -7.53233,3.55603 -0.911545,-0.41913 -1.73798,-0.876993 -2.32759,-1.39009 -0.09323,-0.767555 -0.0798,-1.53926 -0.03233,-2.29526 0.736343,-1.13673 1.69326,-2.58998 1.93966,-3.32974 0.09056,-0.3831 0.123635,-0.640862 0.193966,-0.969827 0.217442,-0.265976 0.421383,-0.591342 0.581897,-0.969828 0.444715,-1.04863 0.3886,-2.05177 -0.06466,-2.39224 0.03167,-0.455638 0.08374,-0.871355 0.09698,-1.26078 0,-3.09862 -2.69554,-5.625 -6.01293,-5.625 -3.31739,0 -6.01293,2.52639 -6.01293,5.625 0.0081,0.355107 0.02777,0.754427 0.06465,1.19612 -0.525003,0.280086 -0.597607,1.35266 -0.12931,2.4569 0.180578,0.425793 0.430002,0.7866 0.678879,1.06681 0.0083,0.0093 0.02399,0.02322 0.03233,0.03233 0.05941,0.291745 0.08978,0.511428 0.161638,0.840517 0.222568,0.668214 1.12976,1.92595 1.93965,3.00647 0.08076,0.833534 0.09785,1.6704 -0.06466,2.61853 -2.33114,1.93554 -8.2848,2.78072 -8.27586,4.78448 l -.8082,5.2371 c 0,1.06739 1.60164,2.02282 4.13793,2.68319 l .3556,1.4224 a 0.872249,0.872919 0 0,0 0.549569,0.581897 c 0.112576,0.04355 0.176382,0.136655 0.484914,0.226293 1.62527,0.47221 4.10314,0.80819 6.88578,0.80819 2.62202,0 4.97011,-0.314713 6.59483,-0.743535 l .4203,1.7134 a 1.163,1.16389 0 0,0 0.711207,0.775862 c 0.150101,0.05814 0.267503,0.171425 0.67888,0.290949 2.16702,0.629617 5.47085,1.06681 9.18103,1.06681 3.71018,0 7.04634,-0.437193 9.21336,-1.06681 0.411377,-0.119524 0.528778,-0.232852 0.678879,-0.290949 a 1.163,1.16389 0 0,0 0.67888,-0.743534 l .4849,-1.7134 c 1.62053,0.422676 3.93115,0.711207 6.53017,0.711207 2.78264,0 5.29284,-0.33598 6.9181,-0.80819 0.308533,-0.08969 0.372339,-0.182721 0.484914,-0.226293 a 0.872249,0.872919 0 0,0 0.517242,-0.549569 l .4526,-1.4871 c 2.47432,-0.659338 4.04095,-1.5985 4.04095,-2.65086 l -.8082,-5.2371 c -0.0095,-1.71495 -6.00563,-2.78072 -8.30819,-4.78448 -0.09323,-0.767555 -0.0798,-1.53926 -0.03233,-2.29526 0.736343,-1.13673 1.69326,-2.58998 1.93966,-3.32974 0.09056,-0.3831 0.123634,-0.640862 0.193966,-0.969827 0.217442,-0.265976 0.421383,-0.591342 0.581896,-0.969828 0.444716,-1.04863 0.388601,-2.05177 -0.06466,-2.39224 0.03167,-0.455638 0.08374,-0.871355 0.09698,-1.26078 0,-3.09862 -2.69554,-5.625 -6.01293,-5.625 -3.31739,0 -6.01293,2.52639 -6.01293,5.625 0.0081,0.355107 0.02777,0.754427 0.06466,1.19612 -0.525003,0.280086 -0.597607,1.35266 -0.12931,2.4569 0.180578,0.425793 0.430002,0.7866 0.678879,1.06681 0.0083,0.0093 0.02399,0.02322 0.03233,0.03233 0.05941,0.291745 0.08979,0.511428 0.161638,0.840517 0.222567,0.668214 1.12976,1.92595 1.93966,3.00647 0.08076,0.833534 0.09785,1.6704 -0.06465,2.61853 -0.665535,0.552591 -1.61688,0.992377 -2.65086,1.42241 -2.49404,-1.05239 -5.55614,-2.14995 -7.20905,-3.58836 -0.124302,-1.02341 -0.127945,-2.03079 -0.06466,-3.03879 0.98179,-1.51563 2.29,-3.44253 2.61853,-4.42888 0.120745,-0.510807 0.164845,-0.854483 0.258621,-1.2931 0.289922,-0.354641 0.561845,-0.788452 0.775862,-1.2931 0.592955,-1.39817 0.539685,-2.74647 -0.06466,-3.20043 0.04223,-0.607521 0.07933,-1.19414 0.09698,-1.71336 0,-4.13149 -3.59405,-7.46767 -8.01724,-7.46767 z "/>
</svg>
