<svg width="96" version="1.0" xmlns="http://www.w3.org/2000/svg" height="96">
<g id="layer1">
<path style="fill:#e19c2b" id="rect2419" d="m 90,6 v 84 l -84,-0 v -84 Z "/>
</g>
<path id="path3813" d="m 48,24.8276 c -4.71807,0 -8.55172,3.55859 -8.55172,7.96551 0.01145,0.505036 0.01649,1.09596 0.06897,1.72414 -0.746672,0.398355 -0.838436,1.94678 -0.172414,3.51723 0.256822,0.605583 0.611558,1.11872 0.965516,1.51724 0.0118,0.01324 0.02262,0.02146 0.03449,0.03448 0.08449,0.41493 0.1392,0.738857 0.241379,1.2069 0.31654,0.950355 1.64126,2.73912 2.7931,4.27586 0.114868,1.18547 0.12766,2.3412 -0.103446,3.68965 -1.86639,1.54965 -5.33138,2.64604 -8.03448,3.7931 -0.972314,-0.447071 -1.85384,-0.935458 -2.48276,-1.48276 -0.09945,-0.818725 -0.08512,-1.64188 -0.03449,-2.44828 0.785432,-1.21251 1.80614,-2.76264 2.06897,-3.55172 0.0966,-0.40864 0.131877,-0.683586 0.206897,-1.03448 0.231937,-0.283708 0.449474,-0.630765 0.620688,-1.03448 0.474363,-1.11854 0.414507,-2.18855 -0.06897,-2.55172 0.03378,-0.486014 0.08932,-0.929445 0.103445,-1.34483 0,-3.30519 -2.87524,-6 -6.41379,-6 -3.53855,0 -6.41379,2.69481 -6.41379,6 0.0086,0.37878 0.02962,0.804721 0.06896,1.27586 -0.56,0.298758 -0.637447,1.44284 -0.13793,2.62069 0.192616,0.454179 0.458668,0.839039 0.724137,1.13793 0.0089,0.0099 0.02559,0.02477 0.03449,0.03449 0.06337,0.311195 0.09577,0.545523 0.172414,0.896551 0.237406,0.712761 1.20508,2.05435 2.06896,3.2069 0.08614,0.889102 0.104373,1.78176 -0.06897,2.7931 -2.48655,2.06457 -8.83711,2.9661 -8.82758,5.10344 l -.8621,5.5862 c 0,1.13855 1.70841,2.15767 4.41379,2.86207 l .3793,1.5172 a 0.930398,0.931113 0 0,0 0.586206,0.62069 c 0.120081,0.04645 0.188141,0.145765 0.517242,0.241379 1.73362,0.50369 4.37668,0.862069 7.34483,0.862069 2.79682,0 5.30145,-0.335694 7.03448,-0.793104 l .4483,1.8276 a 1.24053,1.24148 0 0,0 0.758621,0.827586 c 0.160107,0.06202 0.285336,0.182853 0.724138,0.310345 2.31149,0.671591 5.83557,1.13793 9.79309,1.13793 3.95752,0 7.51609,-0.466339 9.82758,-1.13793 0.438803,-0.127492 0.564031,-0.248375 0.724137,-0.310345 a 1.24053,1.24148 0 0,0 0.724139,-0.793103 l .5172,-1.8276 c 1.72856,0.450854 4.19322,0.75862 6.96551,0.75862 2.96815,0 5.64569,-0.358379 7.3793,-0.862069 0.329102,-0.09567 0.39716,-0.194902 0.51724,-0.241379 a 0.930398,0.931113 0 0,0 0.551721,-0.586207 l .4828,-1.5862 c 2.63927,-0.703293 4.31034,-1.70506 4.31034,-2.82758 l -.8621,-5.5862 c -0.01013,-1.82928 -6.406,-2.9661 -8.86207,-5.10344 -0.09945,-0.818725 -0.08512,-1.64188 -0.03449,-2.44828 0.785431,-1.21251 1.80614,-2.76264 2.06897,-3.55172 0.0966,-0.408639 0.131877,-0.683585 0.206897,-1.03448 0.231938,-0.283708 0.449475,-0.630765 0.620689,-1.03448 0.474364,-1.11854 0.414508,-2.18855 -0.06897,-2.55172 0.03378,-0.486013 0.08932,-0.929445 0.103444,-1.34483 0,-3.30519 -2.87524,-6 -6.41379,-6 -3.53855,0 -6.41379,2.69481 -6.41379,6 0.0086,0.37878 0.02962,0.804722 0.06897,1.27586 -0.56,0.298759 -0.637447,1.44284 -0.137931,2.62069 0.192617,0.454179 0.458669,0.83904 0.724137,1.13793 0.0089,0.0099 0.02559,0.02477 0.03449,0.03449 0.06337,0.311194 0.09578,0.545522 0.172414,0.896551 0.237404,0.712761 1.20508,2.05434 2.06897,3.2069 0.08614,0.889102 0.104373,1.78176 -0.06896,2.7931 -0.709904,0.58943 -1.72467,1.05853 -2.82758,1.51724 -2.66031,-1.12255 -5.92655,-2.29328 -7.68965,-3.82758 -0.132589,-1.09164 -0.136475,-2.16618 -0.06897,-3.24137 1.04724,-1.61667 2.44266,-3.67203 2.7931,-4.72414 0.128795,-0.544861 0.175835,-0.911448 0.275863,-1.37931 0.309249,-0.378284 0.5993,-0.841015 0.827585,-1.37931 0.632485,-1.49138 0.575664,-2.92957 -0.06897,-3.41379 0.04505,-0.648022 0.08462,-1.27375 0.103445,-1.82758 0,-4.40692 -3.83365,-7.96551 -8.55172,-7.96551 z "/>
</svg>
