<svg width="96" version="1.0" xmlns="http://www.w3.org/2000/svg" height="96" xmlns:xlink="http://www.w3.org/1999/xlink">
<defs id="defs2410">
<clipPath id="clipPath3980">
<path style="opacity:.2;fill:#803300;stroke:none" id="path3982" d="m -84,12 c -2.216,0 -4,1.784 -4,4 v 52 c 0,2.216 1.784,4 4,4 h 64 c 2.216,0 4,-1.784 4,-4 v -52 c 0,-2.216 -1.784,-4 -4,-4 h -64 z  m 32,8 c 8.41385,0 15.8092,3.79689 20.0938,9.53125 l -3.7188,1.875 -11.7188,5.9062 a 1.19378,1.19378 0 0,0 -0.21875,0.1875 c -1.09568,-1.06642 -2.66778,-1.75 -4.4375,-1.75 -3.31371,0 -6,2.35051 -6,5.25 0,2.89949 2.68629,5.25 6,5.25 1.75237,0 3.31185,-0.6705 4.40625,-1.71875 a 1.19378,1.19378 0 0,0 0.25,0.15625 l 11.7188,5.9062 3.7188,1.875 c -4.28455,5.73436 -11.6799,9.53125 -20.0938,9.53125 -13.2548,0 -24,-9.40202 -24,-21 0,-11.598 10.7452,-21 24,-21 z  m 23.7812,10.5 c 4.28719,6.49742 4.28719,14.5026 0,21 l -3.875,-1.9688 -11.7188,-5.9062 c 0.510532,-0.772217 0.8125,-1.66873 0.8125,-2.625 0,-0.956275 -0.301968,-1.85278 -0.8125,-2.625 l 11.7188,-5.9062 3.875,-1.9688 z "/>
</clipPath>
<clipPath id="clipPath3306">
<rect width="72" x="12" y="12" rx="4" height="60" ry="4" style="fill:#fff;stroke:none" id="rect3308"/>
</clipPath>
<linearGradient id="linearGradient4225">
<stop offset="0" id="stop4227"/>
<stop offset="1" style="stop-color:#484848" id="stop4229"/>
</linearGradient>
<linearGradient gradientTransform="translate(-2,0)" id="linearGradient4231" xlink:href="#linearGradient4225" y1="80" x1="67.071426" y2="88.011475" x2="67.071426" gradientUnits="userSpaceOnUse"/>
</defs>
<g style="stroke:none">
<path style="fill:#cacaca" id="rect3171" d="m 12,6 72,0 c 3.324,0 6,2.676 6,6 l 0,71.887093 c 0,3.324 -2.676,6 -6,6 l -72,0 c -3.324,0 -6,-2.676 -6,-6 L 6,12 C 6,8.676 8.676,6 12,6 Z"/>
<rect width="74" x="11" y="11" rx="4.1111112" ry="4.1999998" height="63" style="opacity:.8;fill:#7b7b7b" id="rect3492"/>
<rect width="72" x="12" y="12" rx="4" ry="4" height="60" style="fill:#cacaca" id="rect3519"/>
</g>
<g id="layer1">
<g style="stroke:none" id="g3318">
<path style="opacity:.3" id="path4053" d="m 22.7808,83.5089 a 3.28977,3.28977 0 0,1 -6.57954,0 3.28977,3.28977 0 1,1 6.57954,0 z "/>
<path style="fill:#f00;stroke-linecap:square;stroke-width:.84" id="path3364" d="m 20.1786,85.0625 a 2.08929,2.09821 0 1,1 -4.17857,0 2.08929,2.09821 0 1,1 4.17857,0 z " transform="matrix(1.1923077,0,0,1.1872339,-2.0769275,-17.480158)"/>
</g>
<path style="fill:url(#linearGradient4231);stroke:none" id="rect4210" d="m 55,80 c -0.554,0 -1,0.446 -1,1 v 6 c 0,0.554 0.446,1 1,1 0.554,0 1,-0.446 1,-1 v -6 c 0,-0.554 -0.446,-1 -1,-1 z  m 4,0 c -0.554,0 -1,0.446 -1,1 v 6 c 0,0.554 0.446,1 1,1 0.554,0 1,-0.446 1,-1 v -6 c 0,-0.554 -0.446,-1 -1,-1 z  m 4,0 c -0.554,0 -1,0.446 -1,1 v 6 c 0,0.554 0.446,1 1,1 0.554,0 1,-0.446 1,-1 v -6 c 0,-0.554 -0.446,-1 -1,-1 z  m 4,0 c -0.554,0 -1,0.446 -1,1 v 6 c 0,0.554 0.446,1 1,1 0.554,0 1,-0.446 1,-1 v -6 c 0,-0.554 -0.446,-1 -1,-1 z  m 4,0 c -0.554,0 -1,0.446 -1,1 v 6 c 0,0.554 0.446,1 1,1 0.554,0 1,-0.446 1,-1 v -6 c 0,-0.554 -0.446,-1 -1,-1 z  m 4,0 c -0.554,0 -1,0.446 -1,1 v 6 c 0,0.554 0.446,1 1,1 0.554,0 1,-0.446 1,-1 v -6 c 0,-0.554 -0.446,-1 -1,-1 z  m 4,0 c -0.554,0 -1,0.446 -1,1 v 6 c 0,0.554 0.446,1 1,1 0.554,0 1,-0.446 1,-1 v -6 c 0,-0.554 -0.446,-1 -1,-1 z "/>
</g>
<rect width="83.696457" x="6.2248263" y="76.044968" rx="6.0297518" height="2.0820873" ry="0.14412965" style="fill:#999;fill-rule:evenodd;stroke:none" id="rect3082"/>
<g id="g4458" transform="matrix(0.89025206,0,0,0.82383683,-45.723721,-1269.2236)">
<g style="stroke:none;fill-rule:evenodd" id="g3239" transform="translate(5.4730492,-3.7683289)">
<g style="opacity:.6;fill:#f00" id="g3097">
<path id="path3107" d="m 69.3342,1599.4901 9.0027,8.6874 14.2417,-12.8971 -8.9832,-5.779 z "/>
<path id="path3099" d="m 69.3342,1585.7178 0,13.7723 14.2612,-9.9887 0,-11.3795 z "/>
<path id="path3101" d="m 69.3342,1585.7178 9.0027,6.6062 14.2417,-9.8075 -8.9832,-4.3946 z "/>
<path id="path3105" d="m 78.3368,1592.324 0,15.8535 14.2417,-12.8971 0,-12.7639 z "/>
<path id="path3103" d="m 69.3342,1585.7178 9.0027,6.6062 0,15.8535 -9.0027,-8.6874 z "/>
</g>
<g style="opacity:.6;fill:#ff2a2a" id="g3111">
<path id="path3113" d="m 70.3211,1598.6433 8.1339,7.65 12.8674,-11.3571 -8.1163,-5.0889 z "/>
<path id="path3115" d="m 70.3211,1586.5155 0,12.1278 12.885,-8.796 0,-10.0206 z "/>
<path id="path3117" d="m 70.3211,1586.5155 8.1339,5.8174 12.8674,-8.6364 -8.1163,-3.8698 z "/>
<path id="path3119" d="m 78.455,1592.3329 0,13.9604 12.8674,-11.3571 0,-11.2397 z "/>
<path id="path3121" d="m 70.3211,1586.5155 8.1339,5.8174 0,13.9604 -8.1339,-7.65 z "/>
</g>
</g>
<g style="fill:#004399;fill-rule:evenodd;stroke:none" id="g3191" transform="translate(23.327751,-4.1272174)">
<g style="opacity:.6" id="g3167">
<path id="path3169" d="m 69.3342,1599.4901 9.0027,8.6874 14.2417,-12.8971 -8.9832,-5.779 z "/>
<path id="path3171" d="m 69.3342,1585.7178 0,13.7723 14.2612,-9.9887 0,-11.3795 z "/>
<path id="path3173" d="m 69.3342,1585.7178 9.0027,6.6062 14.2417,-9.8075 -8.9832,-4.3946 z "/>
<path id="path3175" d="m 78.3368,1592.324 0,15.8535 14.2417,-12.8971 0,-12.7639 z "/>
<path id="path3177" d="m 69.3342,1585.7178 9.0027,6.6062 0,15.8535 -9.0027,-8.6874 z "/>
</g>
<g style="opacity:.6" id="g3179">
<path id="path3181" d="m 70.3211,1598.6433 8.1339,7.65 12.8674,-11.3571 -8.1163,-5.0889 z "/>
<path id="path3183" d="m 70.3211,1586.5155 0,12.1278 12.885,-8.796 0,-10.0206 z "/>
<path id="path3185" d="m 70.3211,1586.5155 8.1339,5.8174 12.8674,-8.6364 -8.1163,-3.8698 z "/>
<path id="path3187" d="m 78.455,1592.3329 0,13.9604 12.8674,-11.3571 0,-11.2397 z "/>
<path id="path3189" d="m 70.3211,1586.5155 8.1339,5.8174 0,13.9604 -8.1339,-7.65 z "/>
</g>
</g>
<g style="fill:#8a0;fill-rule:evenodd;stroke:none" id="g3209" transform="translate(41.900229,-1.0766654)">
<g style="opacity:.6" id="g3211">
<path id="path3213" d="m 69.3342,1599.4901 9.0027,8.6874 14.2417,-12.8971 -8.9832,-5.779 z "/>
<path id="path3215" d="m 69.3342,1585.7178 0,13.7723 14.2612,-9.9887 0,-11.3795 z "/>
<path id="path3217" d="m 69.3342,1585.7178 9.0027,6.6062 14.2417,-9.8075 -8.9832,-4.3946 z "/>
<path id="path3219" d="m 78.3368,1592.324 0,15.8535 14.2417,-12.8971 0,-12.7639 z "/>
<path id="path3221" d="m 69.3342,1585.7178 9.0027,6.6062 0,15.8535 -9.0027,-8.6874 z "/>
</g>
<g style="opacity:.6" id="g3223">
<path id="path3225" d="m 70.3211,1598.6433 8.1339,7.65 12.8674,-11.3571 -8.1163,-5.0889 z "/>
<path id="path3227" d="m 70.3211,1586.5155 0,12.1278 12.885,-8.796 0,-10.0206 z "/>
<path id="path3229" d="m 70.3211,1586.5155 8.1339,5.8174 12.8674,-8.6364 -8.1163,-3.8698 z "/>
<path id="path3231" d="m 78.455,1592.3329 0,13.9604 12.8674,-11.3571 0,-11.2397 z "/>
<path id="path3233" d="m 70.3211,1586.5155 8.1339,5.8174 0,13.9604 -8.1339,-7.65 z "/>
</g>
</g>
<g style="stroke:none;fill-rule:evenodd" id="g3253" transform="translate(5.4730492,-3.7683289)">
<g style="opacity:.6;fill:#f00" id="g3255">
<path id="path3257" d="m 69.3342,1599.4901 9.0027,8.6874 14.2417,-12.8971 -8.9832,-5.779 z "/>
<path id="path3259" d="m 69.3342,1585.7178 0,13.7723 14.2612,-9.9887 0,-11.3795 z "/>
<path id="path3261" d="m 69.3342,1585.7178 9.0027,6.6062 14.2417,-9.8075 -8.9832,-4.3946 z "/>
<path id="path3263" d="m 78.3368,1592.324 0,15.8535 14.2417,-12.8971 0,-12.7639 z "/>
<path id="path3265" d="m 69.3342,1585.7178 9.0027,6.6062 0,15.8535 -9.0027,-8.6874 z "/>
</g>
<g style="opacity:.6;fill:#ff2a2a" id="g3267">
<path id="path3269" d="m 70.3211,1598.6433 8.1339,7.65 12.8674,-11.3571 -8.1163,-5.0889 z "/>
<path id="path3271" d="m 70.3211,1586.5155 0,12.1278 12.885,-8.796 0,-10.0206 z "/>
<path id="path3273" d="m 70.3211,1586.5155 8.1339,5.8174 12.8674,-8.6364 -8.1163,-3.8698 z "/>
<path id="path3275" d="m 78.455,1592.3329 0,13.9604 12.8674,-11.3571 0,-11.2397 z "/>
<path id="path3277" d="m 70.3211,1586.5155 8.1339,5.8174 0,13.9604 -8.1339,-7.65 z "/>
</g>
</g>
<g style="fill:#004399;fill-rule:evenodd;stroke:none" id="g3279" transform="translate(23.327751,-4.1272174)">
<g style="opacity:.6" id="g3281">
<path id="path3283" d="m 69.3342,1599.4901 9.0027,8.6874 14.2417,-12.8971 -8.9832,-5.779 z "/>
<path id="path3285" d="m 69.3342,1585.7178 0,13.7723 14.2612,-9.9887 0,-11.3795 z "/>
<path id="path3287" d="m 69.3342,1585.7178 9.0027,6.6062 14.2417,-9.8075 -8.9832,-4.3946 z "/>
<path id="path3289" d="m 78.3368,1592.324 0,15.8535 14.2417,-12.8971 0,-12.7639 z "/>
<path id="path3291" d="m 69.3342,1585.7178 9.0027,6.6062 0,15.8535 -9.0027,-8.6874 z "/>
</g>
<g style="opacity:.6" id="g3293">
<path id="path3295" d="m 70.3211,1598.6433 8.1339,7.65 12.8674,-11.3571 -8.1163,-5.0889 z "/>
<path id="path3297" d="m 70.3211,1586.5155 0,12.1278 12.885,-8.796 0,-10.0206 z "/>
<path id="path3299" d="m 70.3211,1586.5155 8.1339,5.8174 12.8674,-8.6364 -8.1163,-3.8698 z "/>
<path id="path3301" d="m 78.455,1592.3329 0,13.9604 12.8674,-11.3571 0,-11.2397 z "/>
<path id="path3303" d="m 70.3211,1586.5155 8.1339,5.8174 0,13.9604 -8.1339,-7.65 z "/>
</g>
</g>
<g style="fill:#8a0;fill-rule:evenodd;stroke:none" id="g3305" transform="translate(41.900229,-1.0766654)">
<g style="opacity:.6" id="g3307">
<path id="path3309" d="m 69.3342,1599.4901 9.0027,8.6874 14.2417,-12.8971 -8.9832,-5.779 z "/>
<path id="path3311" d="m 69.3342,1585.7178 0,13.7723 14.2612,-9.9887 0,-11.3795 z "/>
<path id="path3313" d="m 69.3342,1585.7178 9.0027,6.6062 14.2417,-9.8075 -8.9832,-4.3946 z "/>
<path id="path3315" d="m 78.3368,1592.324 0,15.8535 14.2417,-12.8971 0,-12.7639 z "/>
<path id="path3317" d="m 69.3342,1585.7178 9.0027,6.6062 0,15.8535 -9.0027,-8.6874 z "/>
</g>
<g style="opacity:.6" id="g3319">
<path id="path3321" d="m 70.3211,1598.6433 8.1339,7.65 12.8674,-11.3571 -8.1163,-5.0889 z "/>
<path id="path3323" d="m 70.3211,1586.5155 0,12.1278 12.885,-8.796 0,-10.0206 z "/>
<path id="path3325" d="m 70.3211,1586.5155 8.1339,5.8174 12.8674,-8.6364 -8.1163,-3.8698 z "/>
<path id="path3327" d="m 78.455,1592.3329 0,13.9604 12.8674,-11.3571 0,-11.2397 z "/>
<path id="path3329" d="m 70.3211,1586.5155 8.1339,5.8174 0,13.9604 -8.1339,-7.65 z "/>
</g>
</g>
<g style="fill:#004399;fill-rule:evenodd;stroke:none" id="g3331" transform="translate(23.327751,-4.1272174)">
<g style="opacity:.6" id="g3333">
<path id="path3335" d="m 69.3342,1599.4901 9.0027,8.6874 14.2417,-12.8971 -8.9832,-5.779 z "/>
<path id="path3337" d="m 69.3342,1585.7178 0,13.7723 14.2612,-9.9887 0,-11.3795 z "/>
<path id="path3339" d="m 69.3342,1585.7178 9.0027,6.6062 14.2417,-9.8075 -8.9832,-4.3946 z "/>
<path id="path3341" d="m 78.3368,1592.324 0,15.8535 14.2417,-12.8971 0,-12.7639 z "/>
<path id="path3343" d="m 69.3342,1585.7178 9.0027,6.6062 0,15.8535 -9.0027,-8.6874 z "/>
</g>
<g style="opacity:.6" id="g3345">
<path id="path3347" d="m 70.3211,1598.6433 8.1339,7.65 12.8674,-11.3571 -8.1163,-5.0889 z "/>
<path id="path3349" d="m 70.3211,1586.5155 0,12.1278 12.885,-8.796 0,-10.0206 z "/>
<path id="path3351" d="m 70.3211,1586.5155 8.1339,5.8174 12.8674,-8.6364 -8.1163,-3.8698 z "/>
<path id="path3353" d="m 78.455,1592.3329 0,13.9604 12.8674,-11.3571 0,-11.2397 z "/>
<path id="path3355" d="m 70.3211,1586.5155 8.1339,5.8174 0,13.9604 -8.1339,-7.65 z "/>
</g>
</g>
<g style="fill:#8a0">
<g style="fill-rule:evenodd;stroke:none" id="g3357" transform="translate(41.900229,-1.0766654)">
<g style="opacity:.6" id="g3359">
<path id="path3361" d="m 69.3342,1599.4901 9.0027,8.6874 14.2417,-12.8971 -8.9832,-5.779 z "/>
<path id="path3363" d="m 69.3342,1585.7178 0,13.7723 14.2612,-9.9887 0,-11.3795 z "/>
<path id="path3365" d="m 69.3342,1585.7178 9.0027,6.6062 14.2417,-9.8075 -8.9832,-4.3946 z "/>
<path id="path3367" d="m 78.3368,1592.324 0,15.8535 14.2417,-12.8971 0,-12.7639 z "/>
<path id="path3369" d="m 69.3342,1585.7178 9.0027,6.6062 0,15.8535 -9.0027,-8.6874 z "/>
</g>
<g style="opacity:.6" id="g3371">
<path id="path3373" d="m 70.3211,1598.6433 8.1339,7.65 12.8674,-11.3571 -8.1163,-5.0889 z "/>
<path id="path3375" d="m 70.3211,1586.5155 0,12.1278 12.885,-8.796 0,-10.0206 z "/>
<path id="path3377" d="m 70.3211,1586.5155 8.1339,5.8174 12.8674,-8.6364 -8.1163,-3.8698 z "/>
<path id="path3379" d="m 78.455,1592.3329 0,13.9604 12.8674,-11.3571 0,-11.2397 z "/>
<path id="path3381" d="m 70.3211,1586.5155 8.1339,5.8174 0,13.9604 -8.1339,-7.65 z "/>
</g>
</g>
<g style="fill-rule:evenodd;stroke:none" id="g3383" transform="translate(41.900229,-1.0766654)">
<g style="opacity:.6" id="g3385">
<path id="path3387" d="m 69.3342,1599.4901 9.0027,8.6874 14.2417,-12.8971 -8.9832,-5.779 z "/>
<path id="path3389" d="m 69.3342,1585.7178 0,13.7723 14.2612,-9.9887 0,-11.3795 z "/>
<path id="path3391" d="m 69.3342,1585.7178 9.0027,6.6062 14.2417,-9.8075 -8.9832,-4.3946 z "/>
<path id="path3393" d="m 78.3368,1592.324 0,15.8535 14.2417,-12.8971 0,-12.7639 z "/>
<path id="path3395" d="m 69.3342,1585.7178 9.0027,6.6062 0,15.8535 -9.0027,-8.6874 z "/>
</g>
<g style="opacity:.6" id="g3397">
<path id="path3399" d="m 70.3211,1598.6433 8.1339,7.65 12.8674,-11.3571 -8.1163,-5.0889 z "/>
<path id="path3401" d="m 70.3211,1586.5155 0,12.1278 12.885,-8.796 0,-10.0206 z "/>
<path id="path3403" d="m 70.3211,1586.5155 8.1339,5.8174 12.8674,-8.6364 -8.1163,-3.8698 z "/>
<path id="path3405" d="m 78.455,1592.3329 0,13.9604 12.8674,-11.3571 0,-11.2397 z "/>
<path id="path3407" d="m 70.3211,1586.5155 8.1339,5.8174 0,13.9604 -8.1339,-7.65 z "/>
</g>
</g>
</g>
<g style="fill:#004399;fill-rule:evenodd;stroke:none">
<g id="g4183" transform="translate(23.327751,-4.1272174)">
<g style="opacity:.6" id="g4185">
<path id="path4187" d="m 69.3342,1599.4901 9.0027,8.6874 14.2417,-12.8971 -8.9832,-5.779 z "/>
<path id="path4189" d="m 69.3342,1585.7178 0,13.7723 14.2612,-9.9887 0,-11.3795 z "/>
<path id="path4191" d="m 69.3342,1585.7178 9.0027,6.6062 14.2417,-9.8075 -8.9832,-4.3946 z "/>
<path id="path4193" d="m 78.3368,1592.324 0,15.8535 14.2417,-12.8971 0,-12.7639 z "/>
<path id="path4195" d="m 69.3342,1585.7178 9.0027,6.6062 0,15.8535 -9.0027,-8.6874 z "/>
</g>
<g style="opacity:.6" id="g4197">
<path id="path4199" d="m 70.3211,1598.6433 8.1339,7.65 12.8674,-11.3571 -8.1163,-5.0889 z "/>
<path id="path4201" d="m 70.3211,1586.5155 0,12.1278 12.885,-8.796 0,-10.0206 z "/>
<path id="path4203" d="m 70.3211,1586.5155 8.1339,5.8174 12.8674,-8.6364 -8.1163,-3.8698 z "/>
<path id="path4205" d="m 78.455,1592.3329 0,13.9604 12.8674,-11.3571 0,-11.2397 z "/>
<path id="path4207" d="m 70.3211,1586.5155 8.1339,5.8174 0,13.9604 -8.1339,-7.65 z "/>
</g>
</g>
<g id="g4209" transform="translate(23.327751,-4.1272174)">
<g style="opacity:.6" id="g4211">
<path id="path4213" d="m 69.3342,1599.4901 9.0027,8.6874 14.2417,-12.8971 -8.9832,-5.779 z "/>
<path id="path4215" d="m 69.3342,1585.7178 0,13.7723 14.2612,-9.9887 0,-11.3795 z "/>
<path id="path4217" d="m 69.3342,1585.7178 9.0027,6.6062 14.2417,-9.8075 -8.9832,-4.3946 z "/>
<path id="path4219" d="m 78.3368,1592.324 0,15.8535 14.2417,-12.8971 0,-12.7639 z "/>
<path id="path4221" d="m 69.3342,1585.7178 9.0027,6.6062 0,15.8535 -9.0027,-8.6874 z "/>
</g>
<g style="opacity:.6" id="g4223">
<path id="path4225" d="m 70.3211,1598.6433 8.1339,7.65 12.8674,-11.3571 -8.1163,-5.0889 z "/>
<path id="path4227" d="m 70.3211,1586.5155 0,12.1278 12.885,-8.796 0,-10.0206 z "/>
<path id="path4229" d="m 70.3211,1586.5155 8.1339,5.8174 12.8674,-8.6364 -8.1163,-3.8698 z "/>
<path id="path4231" d="m 78.455,1592.3329 0,13.9604 12.8674,-11.3571 0,-11.2397 z "/>
<path id="path4233" d="m 70.3211,1586.5155 8.1339,5.8174 0,13.9604 -8.1339,-7.65 z "/>
</g>
</g>
<g id="g4235" transform="translate(23.327751,-4.1272174)">
<g style="opacity:.6" id="g4237">
<path id="path4239" d="m 69.3342,1599.4901 9.0027,8.6874 14.2417,-12.8971 -8.9832,-5.779 z "/>
<path id="path4241" d="m 69.3342,1585.7178 0,13.7723 14.2612,-9.9887 0,-11.3795 z "/>
<path id="path4243" d="m 69.3342,1585.7178 9.0027,6.6062 14.2417,-9.8075 -8.9832,-4.3946 z "/>
<path id="path4245" d="m 78.3368,1592.324 0,15.8535 14.2417,-12.8971 0,-12.7639 z "/>
<path id="path4247" d="m 69.3342,1585.7178 9.0027,6.6062 0,15.8535 -9.0027,-8.6874 z "/>
</g>
<g style="opacity:.6" id="g4249">
<path id="path4251" d="m 70.3211,1598.6433 8.1339,7.65 12.8674,-11.3571 -8.1163,-5.0889 z "/>
<path id="path4253" d="m 70.3211,1586.5155 0,12.1278 12.885,-8.796 0,-10.0206 z "/>
<path id="path4255" d="m 70.3211,1586.5155 8.1339,5.8174 12.8674,-8.6364 -8.1163,-3.8698 z "/>
<path id="path4257" d="m 78.455,1592.3329 0,13.9604 12.8674,-11.3571 0,-11.2397 z "/>
<path id="path4259" d="m 70.3211,1586.5155 8.1339,5.8174 0,13.9604 -8.1339,-7.65 z "/>
</g>
</g>
<g id="g4261" transform="translate(23.327751,-4.1272174)">
<g style="opacity:.6" id="g4263">
<path id="path4265" d="m 69.3342,1599.4901 9.0027,8.6874 14.2417,-12.8971 -8.9832,-5.779 z "/>
<path id="path4267" d="m 69.3342,1585.7178 0,13.7723 14.2612,-9.9887 0,-11.3795 z "/>
<path id="path4269" d="m 69.3342,1585.7178 9.0027,6.6062 14.2417,-9.8075 -8.9832,-4.3946 z "/>
<path id="path4271" d="m 78.3368,1592.324 0,15.8535 14.2417,-12.8971 0,-12.7639 z "/>
<path id="path4273" d="m 69.3342,1585.7178 9.0027,6.6062 0,15.8535 -9.0027,-8.6874 z "/>
</g>
<g style="opacity:.6" id="g4275">
<path id="path4277" d="m 70.3211,1598.6433 8.1339,7.65 12.8674,-11.3571 -8.1163,-5.0889 z "/>
<path id="path4279" d="m 70.3211,1586.5155 0,12.1278 12.885,-8.796 0,-10.0206 z "/>
<path id="path4281" d="m 70.3211,1586.5155 8.1339,5.8174 12.8674,-8.6364 -8.1163,-3.8698 z "/>
<path id="path4283" d="m 78.455,1592.3329 0,13.9604 12.8674,-11.3571 0,-11.2397 z "/>
<path id="path4285" d="m 70.3211,1586.5155 8.1339,5.8174 0,13.9604 -8.1339,-7.65 z "/>
</g>
</g>
<g id="g4287" transform="translate(23.327751,-4.1272174)">
<g style="opacity:.6" id="g4289">
<path id="path4291" d="m 69.3342,1599.4901 9.0027,8.6874 14.2417,-12.8971 -8.9832,-5.779 z "/>
<path id="path4293" d="m 69.3342,1585.7178 0,13.7723 14.2612,-9.9887 0,-11.3795 z "/>
<path id="path4295" d="m 69.3342,1585.7178 9.0027,6.6062 14.2417,-9.8075 -8.9832,-4.3946 z "/>
<path id="path4297" d="m 78.3368,1592.324 0,15.8535 14.2417,-12.8971 0,-12.7639 z "/>
<path id="path4299" d="m 69.3342,1585.7178 9.0027,6.6062 0,15.8535 -9.0027,-8.6874 z "/>
</g>
<g style="opacity:.6" id="g4301">
<path id="path4303" d="m 70.3211,1598.6433 8.1339,7.65 12.8674,-11.3571 -8.1163,-5.0889 z "/>
<path id="path4305" d="m 70.3211,1586.5155 0,12.1278 12.885,-8.796 0,-10.0206 z "/>
<path id="path4307" d="m 70.3211,1586.5155 8.1339,5.8174 12.8674,-8.6364 -8.1163,-3.8698 z "/>
<path id="path4309" d="m 78.455,1592.3329 0,13.9604 12.8674,-11.3571 0,-11.2397 z "/>
<path id="path4311" d="m 70.3211,1586.5155 8.1339,5.8174 0,13.9604 -8.1339,-7.65 z "/>
</g>
</g>
</g>
<g style="fill:#8a0">
<g style="fill-rule:evenodd;stroke:none" id="g4323" transform="translate(41.900229,-1.0766654)">
<g style="opacity:.6" id="g4325">
<path id="path4327" d="m 69.3342,1599.4901 9.0027,8.6874 14.2417,-12.8971 -8.9832,-5.779 z "/>
<path id="path4329" d="m 69.3342,1585.7178 0,13.7723 14.2612,-9.9887 0,-11.3795 z "/>
<path id="path4331" d="m 69.3342,1585.7178 9.0027,6.6062 14.2417,-9.8075 -8.9832,-4.3946 z "/>
<path id="path4333" d="m 78.3368,1592.324 0,15.8535 14.2417,-12.8971 0,-12.7639 z "/>
<path id="path4335" d="m 69.3342,1585.7178 9.0027,6.6062 0,15.8535 -9.0027,-8.6874 z "/>
</g>
<g style="opacity:.6" id="g4337">
<path id="path4339" d="m 70.3211,1598.6433 8.1339,7.65 12.8674,-11.3571 -8.1163,-5.0889 z "/>
<path id="path4341" d="m 70.3211,1586.5155 0,12.1278 12.885,-8.796 0,-10.0206 z "/>
<path id="path4343" d="m 70.3211,1586.5155 8.1339,5.8174 12.8674,-8.6364 -8.1163,-3.8698 z "/>
<path id="path4345" d="m 78.455,1592.3329 0,13.9604 12.8674,-11.3571 0,-11.2397 z "/>
<path id="path4347" d="m 70.3211,1586.5155 8.1339,5.8174 0,13.9604 -8.1339,-7.65 z "/>
</g>
</g>
<g style="fill-rule:evenodd;stroke:none" id="g4349" transform="translate(41.900229,-1.0766654)">
<g style="opacity:.6" id="g4351">
<path id="path4353" d="m 69.3342,1599.4901 9.0027,8.6874 14.2417,-12.8971 -8.9832,-5.779 z "/>
<path id="path4355" d="m 69.3342,1585.7178 0,13.7723 14.2612,-9.9887 0,-11.3795 z "/>
<path id="path4357" d="m 69.3342,1585.7178 9.0027,6.6062 14.2417,-9.8075 -8.9832,-4.3946 z "/>
<path id="path4359" d="m 78.3368,1592.324 0,15.8535 14.2417,-12.8971 0,-12.7639 z "/>
<path id="path4361" d="m 69.3342,1585.7178 9.0027,6.6062 0,15.8535 -9.0027,-8.6874 z "/>
</g>
<g style="opacity:.6" id="g4363">
<path id="path4365" d="m 70.3211,1598.6433 8.1339,7.65 12.8674,-11.3571 -8.1163,-5.0889 z "/>
<path id="path4367" d="m 70.3211,1586.5155 0,12.1278 12.885,-8.796 0,-10.0206 z "/>
<path id="path4369" d="m 70.3211,1586.5155 8.1339,5.8174 12.8674,-8.6364 -8.1163,-3.8698 z "/>
<path id="path4371" d="m 78.455,1592.3329 0,13.9604 12.8674,-11.3571 0,-11.2397 z "/>
<path id="path4373" d="m 70.3211,1586.5155 8.1339,5.8174 0,13.9604 -8.1339,-7.65 z "/>
</g>
</g>
<g style="fill-rule:evenodd;stroke:none" id="g4375" transform="translate(41.900229,-1.0766654)">
<g style="opacity:.6" id="g4377">
<path id="path4379" d="m 69.3342,1599.4901 9.0027,8.6874 14.2417,-12.8971 -8.9832,-5.779 z "/>
<path id="path4381" d="m 69.3342,1585.7178 0,13.7723 14.2612,-9.9887 0,-11.3795 z "/>
<path id="path4383" d="m 69.3342,1585.7178 9.0027,6.6062 14.2417,-9.8075 -8.9832,-4.3946 z "/>
<path id="path4385" d="m 78.3368,1592.324 0,15.8535 14.2417,-12.8971 0,-12.7639 z "/>
<path id="path4387" d="m 69.3342,1585.7178 9.0027,6.6062 0,15.8535 -9.0027,-8.6874 z "/>
</g>
<g style="opacity:.6" id="g4389">
<path id="path4391" d="m 70.3211,1598.6433 8.1339,7.65 12.8674,-11.3571 -8.1163,-5.0889 z "/>
<path id="path4393" d="m 70.3211,1586.5155 0,12.1278 12.885,-8.796 0,-10.0206 z "/>
<path id="path4395" d="m 70.3211,1586.5155 8.1339,5.8174 12.8674,-8.6364 -8.1163,-3.8698 z "/>
<path id="path4397" d="m 78.455,1592.3329 0,13.9604 12.8674,-11.3571 0,-11.2397 z "/>
<path id="path4399" d="m 70.3211,1586.5155 8.1339,5.8174 0,13.9604 -8.1339,-7.65 z "/>
</g>
</g>
<g style="fill-rule:evenodd;stroke:none" id="g4401" transform="translate(41.900229,-1.0766654)">
<g style="opacity:.6" id="g4403">
<path id="path4405" d="m 69.3342,1599.4901 9.0027,8.6874 14.2417,-12.8971 -8.9832,-5.779 z "/>
<path id="path4407" d="m 69.3342,1585.7178 0,13.7723 14.2612,-9.9887 0,-11.3795 z "/>
<path id="path4409" d="m 69.3342,1585.7178 9.0027,6.6062 14.2417,-9.8075 -8.9832,-4.3946 z "/>
<path id="path4411" d="m 78.3368,1592.324 0,15.8535 14.2417,-12.8971 0,-12.7639 z "/>
<path id="path4413" d="m 69.3342,1585.7178 9.0027,6.6062 0,15.8535 -9.0027,-8.6874 z "/>
</g>
<g style="opacity:.6" id="g4415">
<path id="path4417" d="m 70.3211,1598.6433 8.1339,7.65 12.8674,-11.3571 -8.1163,-5.0889 z "/>
<path id="path4419" d="m 70.3211,1586.5155 0,12.1278 12.885,-8.796 0,-10.0206 z "/>
<path id="path4421" d="m 70.3211,1586.5155 8.1339,5.8174 12.8674,-8.6364 -8.1163,-3.8698 z "/>
<path id="path4423" d="m 78.455,1592.3329 0,13.9604 12.8674,-11.3571 0,-11.2397 z "/>
<path id="path4425" d="m 70.3211,1586.5155 8.1339,5.8174 0,13.9604 -8.1339,-7.65 z "/>
</g>
</g>
</g>
</g>
</svg>
