<svg width="96" version="1.0" xmlns="http://www.w3.org/2000/svg" height="96" xmlns:xlink="http://www.w3.org/1999/xlink">
<defs>
<linearGradient id="linearGradient4225">
<stop offset="0"/>
<stop offset="1" style="stop-color:#484848"/>
</linearGradient>
<linearGradient gradientTransform="translate(-2)" id="linearGradient4231" xlink:href="#linearGradient4225" y1="80" x1="67.071426" y2="88.011475" x2="67.071426" gradientUnits="userSpaceOnUse"/>
</defs>
<path style="fill:#cacaca" d="m 12,6 h 72 c 3.324,0 6,2.676 6,6 v 71.887093 c 0,3.324 -2.676,6 -6,6 H 12 c -3.324,0 -6,-2.676 -6,-6 V 12 C 6,8.676 8.676,6 12,6 Z"/>
<rect width="74" x="11" y="11" rx="4" height="63" style="opacity:.8;fill:#7b7b7b"/>
<rect width="72" x="12" y="12" rx="3" height="60" style="fill:#cacaca"/>
<path style="opacity:.3" d="m 22.7808,83.5089 a 3.28977,3.28977 0 0 1 -6.57954,0 3.28977,3.28977 0 1 1 6.57954,0 z"/>
<path style="fill:#f00" d="m 21.9822,83.5089 a 2.49108,2.49107 0 1,1 -4.98214,0 2.49108,2.49107 0 1,1 4.98214,0 z "/>
<path style="fill:url(#linearGradient4231)" d="m 55,80 c -0.554,0 -1,0.446 -1,1 v 6 c 0,0.554 0.446,1 1,1 0.554,0 1,-0.446 1,-1 v -6 c 0,-0.554 -0.446,-1 -1,-1 z m 4,0 c -0.554,0 -1,0.446 -1,1 v 6 c 0,0.554 0.446,1 1,1 0.554,0 1,-0.446 1,-1 v -6 c 0,-0.554 -0.446,-1 -1,-1 z m 4,0 c -0.554,0 -1,0.446 -1,1 v 6 c 0,0.554 0.446,1 1,1 0.554,0 1,-0.446 1,-1 v -6 c 0,-0.554 -0.446,-1 -1,-1 z m 4,0 c -0.554,0 -1,0.446 -1,1 v 6 c 0,0.554 0.446,1 1,1 0.554,0 1,-0.446 1,-1 v -6 c 0,-0.554 -0.446,-1 -1,-1 z m 4,0 c -0.554,0 -1,0.446 -1,1 v 6 c 0,0.554 0.446,1 1,1 0.554,0 1,-0.446 1,-1 v -6 c 0,-0.554 -0.446,-1 -1,-1 z m 4,0 c -0.554,0 -1,0.446 -1,1 v 6 c 0,0.554 0.446,1 1,1 0.554,0 1,-0.446 1,-1 v -6 c 0,-0.554 -0.446,-1 -1,-1 z m 4,0 c -0.554,0 -1,0.446 -1,1 v 6 c 0,0.554 0.446,1 1,1 0.554,0 1,-0.446 1,-1 v -6 c 0,-0.554 -0.446,-1 -1,-1 z"/>
<g style="fill-rule:evenodd">
<rect width="83.696457" x="6.2248263" y="76.044968" rx="6.0297518" height="2.0820873" ry="0.14412965" style="fill:#999"/>
<path style="fill:#f00" d="m 33.5703,27.7871 l -12.6973,6.2578 v 11.3457 l 8.0156,7.1562 12.6777,-10.625 v -10.5137 l -7.9961,-3.6211 z "/>
<path style="fill:#004399" d="m 49.4648,27.4902 l -12.6953,6.2578 v 11.3477 l 8.0137,7.1562 12.6797,-10.625 v -10.5156 l -7.998,-3.6211 z "/>
<path style="fill:#8a0" d="m 65.998,30.0039 l -12.6953,6.2578 v 11.3457 l 8.0156,7.1582 12.6777,-10.625 v -10.5156 l -7.998,-3.6211 z "/>
</g>
</svg>
