<svg width="96" version="1.0" xmlns="http://www.w3.org/2000/svg" height="96" xmlns:xlink="http://www.w3.org/1999/xlink">
<defs id="defs2410">
<linearGradient id="linearGradient3678">
<stop offset="0" style="stop-color:#888" id="stop3680"/>
<stop offset="1" style="stop-color:#acacac" id="stop3682"/>
</linearGradient>
<linearGradient id="linearGradient3684" xlink:href="#linearGradient3678" y1="24" x1="48" y2="80" x2="48" gradientUnits="userSpaceOnUse"/>
</defs>
<g style="stroke:none;color:#000">
<path style="fill:#c8c8c8" id="rect2419" d="m 12,6 72,0 c 3.324,0 6,2.676 6,6 v 72 c 0,3.324 -2.676,6 -6,6 h -72 c -3.324,0 -6,-2.676 -6,-6 v -72 c 0,-3.324 2.676,-6 6,-6 Z "/>
<g style="stroke-width:1.5">
<rect width="74" x="11" y="23" height="60" style="opacity:.99;fill:url(#linearGradient3684)" id="rect3674"/>
<rect width="72" x="12" y="24" height="58" style="opacity:.99;fill:#fff" id="rect3676"/>
</g>
<path style="fill:#1a1a1a" id="path3811" d="m 14,7.4806265 2,0 L 15,9 14,7.4806265 Z"/>
</g>
<path style="stroke-opacity:.627;fill:#cfcfcf;fill-rule:evenodd;stroke:#000;stroke-width:.105" id="path3079" d="m 84.2507,8.4534 a 1.94434,1.99876 0 0,1 -3.88868,0 1.94434,1.99876 0 1,1 3.88868,0 z "/>
<path style="fill:#1a1a1a;stroke:none;color:#000;stroke-width:1.5" id="rect3822-5" d="m 81.5597,7.2355 -.4536,.4662 .7181,.7382 -.7181,.7382 .4536,.5051 .7181,-.7382 .7181,.7382 .4913,-.5051 -.7181,-.7382 .7181,-.7382 -.4913,-.4662 -.7181,.7382 -.7181,-.7382 z "/>
<g style="stroke-opacity:.627;fill:#cfcfcf;fill-rule:evenodd;stroke:#000;stroke-width:.086" id="g74" transform="matrix(1.1029963,0,0,0.99876136,-8.6799138,0.01046269)">
<path id="path3079-1" d="m 83.9391,14.3456 a 1.6077,1.6077 0 1,1 -3.21541,0 1.6077,1.6077 0 1,1 3.21541,0 z " transform="matrix(1.0964584,0,0,1.2447823,-14.167197,-9.4167389)"/>
<path id="path3079-2" d="m 83.9391,14.3456 a 1.6077,1.6077 0 1,1 -3.21541,0 1.6077,1.6077 0 1,1 3.21541,0 z " transform="matrix(1.0964584,0,0,1.2447823,-21.023726,-9.4167389)"/>
</g>
<g style="stroke:none" id="g25">
<g style="fill:#1a1a1a" id="g78" transform="matrix(1.1029963,0,0,0.99876136,-8.6799138,0.01046269)">
<path id="path3811-5" d="m 75.0332,7.6542 2.1929,0 -1.0965,1.8913 -1.0965,-1.8913 z"/>
<path id="path3811-1" d="M 70.3627,9.2485 68.1699,9.2279 69.2801,7.347 70.3627,9.2485 Z"/>
</g>
<g style="font-family:'Bitstream Vera Sans';text-align:start;word-spacing:0;line-height:125%;letter-spacing:0;font-size:4.6473875px" id="g59">
<g style="fill:#f9f9f9;font-weight:bold" id="text4306" transform="scale(0.98046971,1.0199193)">
<path id="path4191" d="m 30.7319,13.8495 0,.7171 q -0.279115,-0.124808 -0.544615,-0.188347 -0.2655,-0.06354 -0.501501,-0.06354 -0.313154,0 -0.462923,0.08623 -0.149769,0.08623 -0.149769,0.267769 0,0.136154 0.09985,0.213308 0.102115,0.07489 0.367616,0.129346 l .3722,.0749 q 0.565038,0.113461 0.803308,0.344923 0.238269,0.231462 0.238269,0.658077 0,0.560501 -0.333577,0.835078 -0.331308,0.272308 -1.01435,0.272308 -0.322231,0 -0.646731,-0.06127 -0.3245,-0.06127 -0.649,-0.181538 v -0.737501 q 0.3245,0.172462 0.626308,0.260962 0.304077,0.08623 0.585462,0.08623 0.285923,0 0.437961,-0.09531 0.152039,-0.09531 0.152039,-0.272308 0,-0.158846 -0.104385,-0.245077 -0.102115,-0.08623 -0.410731,-0.154308 l -.3381,-.0749 q -0.508308,-0.108923 -0.744308,-0.347193 -0.233731,-0.238269 -0.233731,-0.642192 0,-0.506039 0.326769,-0.778347 0.32677,-0.272308 0.939462,-0.272308 0.279116,0 0.574116,0.04312 0.295,0.04085 0.610423,0.124808 z "/>
<path id="path4193" d="m 31.3537,14.5892 .8124,0 .683,1.7246 .5809,-1.7246 .8124,0 -1.0688,2.7821 q -0.161115,0.424346 -0.376692,0.592269 -0.213308,0.170193 -0.565039,0.170193 h -0.469731 v -0.53327 h 0.254154 q 0.2065,0 0.299538,-0.06581 0.09531,-0.06581 0.147501,-0.236 l .0227,-.0704 -1.1323,-2.6391 z "/>
<path id="path4195" d="m 36.7045,14.6687 0,.6172 q -0.260961,-0.108923 -0.503769,-0.163384 -0.242808,-0.05446 -0.458385,-0.05446 -0.231462,0 -0.344923,0.059 -0.111193,0.05673 -0.111193,0.177 0,0.09758 0.08396,0.149769 0.08623,0.05219 0.306346,0.07715 l .143,.0204 q 0.624039,0.07942 0.839616,0.260962 0.215577,0.181539 0.215577,0.569577 0,0.406193 -0.299539,0.610424 -0.299539,0.204231 -0.894077,0.204231 -0.251885,0 -0.521924,-0.04085 -0.267769,-0.03858 -0.551423,-0.118001 v -0.617231 q 0.242808,0.118 0.496962,0.177 0.256423,0.059 0.519654,0.059 0.238269,0 0.358538,-0.06581 0.12027,-0.06581 0.12027,-0.195154 0,-0.108923 -0.08396,-0.161116 -0.08169,-0.05446 -0.329039,-0.08396 l -.143,-.0181 q -0.542347,-0.06808 -0.760193,-0.251885 -0.217846,-0.183808 -0.217846,-0.558231 0,-0.403923 0.276846,-0.599077 0.276846,-0.195154 0.848693,-0.195154 0.224654,0 0.472,0.03404 0.247347,0.03404 0.537808,0.106654 z "/>
<path id="path4197" d="m 38.3747,13.8676 0,.7216 .8373,0 0,.5809 -.8373,0 0,1.0779 q 0,0.177 0.07035,0.240538 0.07035,0.06127 0.279116,0.06127 h 0.417538 v 0.580923 h -0.696654 q -0.481077,0 -0.683039,-0.199692 -0.199692,-0.201962 -0.199692,-0.683039 v -1.07789 h -0.403923 v -0.580923 h 0.403923 v -0.721616 h 0.812385 z "/>
<path id="path4199" d="m 42.2483,15.8532 0,.2315 -1.8993,0 q 0.0295,0.285923 0.2065,0.428885 0.177,0.142961 0.494693,0.142961 0.256423,0 0.524192,-0.07488 0.270039,-0.07715 0.553693,-0.231462 v 0.626308 q -0.288193,0.108923 -0.576385,0.163385 -0.288193,0.05673 -0.576385,0.05673 -0.689847,0 -1.07335,-0.349462 -0.381231,-0.351731 -0.381231,-0.984847 0,-0.621769 0.374423,-0.978039 0.376693,-0.356269 1.03477,-0.356269 0.599078,0 0.957616,0.360808 0.360808,0.360808 0.360808,0.964423 z  m -.8351,-.27 q 0,-0.231462 -0.136154,-0.372154 -0.133885,-0.142962 -0.351731,-0.142962 -0.236,0 -0.3835,0.133885 -0.147501,0.131615 -0.183808,0.381231 h 1.05519 z "/>
<path id="path4201" d="m 45.2164,15.0113 q 0.154308,-0.236 0.365346,-0.358539 0.213308,-0.124807 0.467462,-0.124807 0.437962,0 0.667154,0.270038 0.229193,0.270039 0.229193,0.785155 v 1.54762 h -0.816924 v -1.32523 q 0.0023,-0.0295 0.0023,-0.06127 0.0023,-0.03177 0.0023,-0.09077 0,-0.270039 -0.07942,-0.390308 -0.07942,-0.122539 -0.256424,-0.122539 -0.231461,0 -0.358538,0.190616 -0.124808,0.190615 -0.129346,0.551423 v 1.24808 h -0.816924 v -1.32523 q 0,-0.422077 -0.07261,-0.542346 -0.07262,-0.122539 -0.258693,-0.122539 -0.233731,0 -0.360808,0.192885 -0.127077,0.190616 -0.127077,0.546885 v 1.25035 h -0.816923 v -2.54154 h 0.816923 v 0.372154 q 0.149769,-0.215577 0.342654,-0.3245 0.195154,-0.108923 0.428885,-0.108923 0.263231,0 0.465193,0.127077 0.201961,0.127077 0.306346,0.356269 z "/>
<path id="path4203" d="m 49.0719,13.7428 .8373,0 .5855,2.4621 .5809,-2.4621 .8419,0 .5809,2.4621 .5855,-2.4621 .8305,0 -.7988,3.388 -1.0075,0 -.615,-2.5756 -.6082,2.5756 -1.0075,0 -.8056,-3.388 z "/>
<path id="path4205" d="m 54.4522,14.5892 .8124,0 0,2.5415 -.8124,0 0,-2.5415 z  m 0,-.9894 .8124,0 0,.6626 -.8124,0 0,-.6626 z "/>
<path id="path4207" d="m 58.6049,15.5832 0,1.5476 -.8169,0 0,-.2519 0,-.9327 q 0,-0.329039 -0.01588,-0.453847 -0.01362,-0.124807 -0.04992,-0.183807 -0.04765,-0.07942 -0.129346,-0.122539 -0.08169,-0.04538 -0.186077,-0.04538 -0.254154,0 -0.399385,0.197424 -0.145231,0.195154 -0.145231,0.542346 v 1.25035 h -0.812385 v -2.54154 h 0.812385 v 0.372154 q 0.183808,-0.222385 0.390308,-0.326769 0.2065,-0.106654 0.456116,-0.106654 0.440231,0 0.667154,0.270038 0.229192,0.270039 0.229192,0.785155 z "/>
<path id="path4209" d="m 61.092,14.9614 0,-1.3615 .8169,0 0,3.5309 -.8169,0 0,-.3676 q -0.167923,0.224654 -0.369885,0.329039 -0.201962,0.104385 -0.467462,0.104385 -0.469731,0 -0.771539,-0.372154 -0.301808,-0.374424 -0.301808,-0.962155 0,-0.587731 0.301808,-0.959885 0.301808,-0.374423 0.771539,-0.374423 0.263231,0 0.465193,0.106654 0.204231,0.104384 0.372154,0.326769 z  m -.5355,1.6452 q 0.260962,0 0.397116,-0.190615 0.138423,-0.190616 0.138423,-0.553693 0,-0.363077 -0.138423,-0.553692 -0.136154,-0.190616 -0.397116,-0.190616 -0.258692,0 -0.397116,0.190616 -0.136154,0.190615 -0.136154,0.553692 0,0.363077 0.136154,0.553693 0.138424,0.190615 0.397116,0.190615 z "/>
<path id="path4211" d="m 63.9036,15.1089 q -0.270039,0 -0.413001,0.195154 -0.140692,0.192885 -0.140692,0.558231 0,0.365347 0.140692,0.560501 0.142962,0.192884 0.413001,0.192884 0.2655,0 0.406192,-0.192884 0.140693,-0.195154 0.140693,-0.560501 0,-0.365346 -0.140693,-0.558231 -0.140692,-0.195154 -0.406192,-0.195154 z  m 0,-.5809 q 0.655808,0 1.02342,0.354 0.369885,0.354 0.369885,0.980308 0,0.626308 -0.369885,0.980309 -0.367615,0.354 -1.02342,0.354 -0.658078,0 -1.03023,-0.354 -0.369885,-0.354001 -0.369885,-0.980309 0,-0.626308 0.369885,-0.980308 0.372154,-0.354 1.03023,-0.354 z "/>
<path id="path4213" d="m 65.6622,14.5892 .7897,0 .4266,1.7518 .4289,-1.7518 .6785,0 .4266,1.7337 .4289,-1.7337 .7897,0 -.6694,2.5415 -.8873,0 -.4289,-1.7473 -.4266,1.7473 -.8873,0 -.6694,-2.5415 z "/>
</g>
<g style="fill:#4d4d4d;font-weight:bold" id="text4302" transform="scale(0.98046971,1.0199193)">
<path id="path4166" d="m 30.7319,13.2612 0,.7171 q -0.279115,-0.124808 -0.544615,-0.188346 -0.2655,-0.06354 -0.501501,-0.06354 -0.313154,0 -0.462923,0.08623 -0.149769,0.08623 -0.149769,0.26777 0,0.136154 0.09985,0.213307 0.102115,0.07489 0.367616,0.129347 l .3722,.0749 q 0.565038,0.113462 0.803308,0.344924 0.238269,0.231461 0.238269,0.658077 0,0.5605 -0.333577,0.835077 -0.331308,0.272308 -1.01435,0.272308 -0.322231,0 -0.646731,-0.06127 -0.3245,-0.06127 -0.649,-0.181539 v -0.7375 q 0.3245,0.172462 0.626308,0.260962 0.304077,0.08623 0.585462,0.08623 0.285923,0 0.437961,-0.09531 0.152039,-0.09531 0.152039,-0.272308 0,-0.158846 -0.104385,-0.245077 -0.102115,-0.08623 -0.410731,-0.154308 l -.3381,-.0749 q -0.508308,-0.108923 -0.744308,-0.347192 -0.233731,-0.23827 -0.233731,-0.642193 0,-0.506039 0.326769,-0.778347 0.32677,-0.272307 0.939462,-0.272307 0.279116,0 0.574116,0.04312 0.295,0.04085 0.610423,0.124808 z "/>
<path id="path4168" d="m 31.3537,14.0009 .8124,0 .683,1.7246 .5809,-1.7246 .8124,0 -1.0688,2.7821 q -0.161115,0.424347 -0.376692,0.59227 -0.213308,0.170192 -0.565039,0.170192 h -0.469731 v -0.533269 h 0.254154 q 0.2065,0 0.299538,-0.06581 0.09531,-0.06581 0.147501,-0.236 l .0227,-.0704 -1.1323,-2.6391 z "/>
<path id="path4170" d="m 36.7045,14.0803 0,.6172 q -0.260961,-0.108923 -0.503769,-0.163385 -0.242808,-0.05446 -0.458385,-0.05446 -0.231462,0 -0.344923,0.059 -0.111193,0.05673 -0.111193,0.177001 0,0.09758 0.08396,0.149769 0.08623,0.05219 0.306346,0.07715 l .143,.0204 q 0.624039,0.07942 0.839616,0.260962 0.215577,0.181538 0.215577,0.569577 0,0.406192 -0.299539,0.610423 -0.299539,0.204231 -0.894077,0.204231 -0.251885,0 -0.521924,-0.04085 -0.267769,-0.03858 -0.551423,-0.118 v -0.617231 q 0.242808,0.118 0.496962,0.177 0.256423,0.059 0.519654,0.059 0.238269,0 0.358538,-0.06581 0.12027,-0.06581 0.12027,-0.195154 0,-0.108923 -0.08396,-0.161115 -0.08169,-0.05446 -0.329039,-0.08396 l -.143,-.0182 q -0.542347,-0.06808 -0.760193,-0.251884 -0.217846,-0.183808 -0.217846,-0.558232 0,-0.403923 0.276846,-0.599077 0.276846,-0.195154 0.848693,-0.195154 0.224654,0 0.472,0.03404 0.247347,0.03404 0.537808,0.106654 z "/>
<path id="path4172" d="m 38.3747,13.2793 0,.7216 .8373,0 0,.5809 -.8373,0 0,1.0779 q 0,0.177 0.07035,0.240539 0.07035,0.06127 0.279116,0.06127 h 0.417538 v 0.580923 h -0.696654 q -0.481077,0 -0.683039,-0.199692 -0.199692,-0.201962 -0.199692,-0.683039 v -1.07789 h -0.403923 v -0.580924 h 0.403923 v -0.721615 h 0.812385 z "/>
<path id="path4174" d="m 42.2483,15.2649 0,.2315 -1.8993,0 q 0.0295,0.285924 0.2065,0.428885 0.177,0.142962 0.494693,0.142962 0.256423,0 0.524192,-0.07489 0.270039,-0.07715 0.553693,-0.231461 v 0.626308 q -0.288193,0.108923 -0.576385,0.163384 -0.288193,0.05673 -0.576385,0.05673 -0.689847,0 -1.07335,-0.349462 -0.381231,-0.351731 -0.381231,-0.984846 0,-0.62177 0.374423,-0.978039 0.376693,-0.35627 1.03477,-0.35627 0.599078,0 0.957616,0.360808 0.360808,0.360808 0.360808,0.964424 z  m -.8351,-.27 q 0,-0.231462 -0.136154,-0.372154 -0.133885,-0.142962 -0.351731,-0.142962 -0.236,0 -0.3835,0.133885 -0.147501,0.131616 -0.183808,0.381231 h 1.05519 z "/>
<path id="path4176" d="m 45.2164,14.423 q 0.154308,-0.236001 0.365346,-0.358539 0.213308,-0.124808 0.467462,-0.124808 0.437962,0 0.667154,0.270039 0.229193,0.270038 0.229193,0.785154 v 1.54762 h -0.816924 v -1.32523 q 0.0023,-0.0295 0.0023,-0.06127 0.0023,-0.03177 0.0023,-0.09077 0,-0.270038 -0.07942,-0.390308 -0.07942,-0.122538 -0.256424,-0.122538 -0.231461,0 -0.358538,0.190615 -0.124808,0.190616 -0.129346,0.551424 v 1.24808 h -0.816924 v -1.32523 q 0,-0.422077 -0.07261,-0.542347 -0.07262,-0.122538 -0.258693,-0.122538 -0.233731,0 -0.360808,0.192885 -0.127077,0.190615 -0.127077,0.546885 v 1.25035 h -0.816923 v -2.54154 h 0.816923 v 0.372155 q 0.149769,-0.215578 0.342654,-0.324501 0.195154,-0.108923 0.428885,-0.108923 0.263231,0 0.465193,0.127077 0.201961,0.127077 0.306346,0.35627 z "/>
<path id="path4178" d="m 49.0719,13.1545 .8373,0 .5855,2.4621 .5809,-2.4621 .8419,0 .5809,2.4621 .5855,-2.4621 .8305,0 -.7988,3.388 -1.0075,0 -.615,-2.5756 -.6082,2.5756 -1.0075,0 -.8056,-3.388 z "/>
<path id="path4180" d="m 54.4522,14.0009 .8124,0 0,2.5415 -.8124,0 0,-2.5415 z  m 0,-.9894 .8124,0 0,.6626 -.8124,0 0,-.6626 z "/>
<path id="path4182" d="m 58.6049,14.9948 0,1.5476 -.8169,0 0,-.2519 0,-.9327 q 0,-0.329038 -0.01588,-0.453846 -0.01362,-0.124808 -0.04992,-0.183808 -0.04765,-0.07942 -0.129346,-0.122538 -0.08169,-0.04538 -0.186077,-0.04538 -0.254154,0 -0.399385,0.197423 -0.145231,0.195154 -0.145231,0.542347 v 1.25035 h -0.812385 v -2.54154 h 0.812385 v 0.372155 q 0.183808,-0.222385 0.390308,-0.32677 0.2065,-0.106654 0.456116,-0.106654 0.440231,0 0.667154,0.270039 0.229192,0.270038 0.229192,0.785154 z "/>
<path id="path4184" d="m 61.092,14.3731 0,-1.3615 .8169,0 0,3.5309 -.8169,0 0,-.3676 q -0.167923,0.224654 -0.369885,0.329039 -0.201962,0.104384 -0.467462,0.104384 -0.469731,0 -0.771539,-0.372154 -0.301808,-0.374423 -0.301808,-0.962154 0,-0.587731 0.301808,-0.959886 0.301808,-0.374423 0.771539,-0.374423 0.263231,0 0.465193,0.106654 0.204231,0.104385 0.372154,0.32677 z  m -.5355,1.6452 q 0.260962,0 0.397116,-0.190616 0.138423,-0.190615 0.138423,-0.553692 0,-0.363077 -0.138423,-0.553693 -0.136154,-0.190615 -0.397116,-0.190615 -0.258692,0 -0.397116,0.190615 -0.136154,0.190616 -0.136154,0.553693 0,0.363077 0.136154,0.553692 0.138424,0.190616 0.397116,0.190616 z "/>
<path id="path4186" d="m 63.9036,14.5206 q -0.270039,0 -0.413001,0.195154 -0.140692,0.192884 -0.140692,0.558231 0,0.365346 0.140692,0.5605 0.142962,0.192885 0.413001,0.192885 0.2655,0 0.406192,-0.192885 0.140693,-0.195154 0.140693,-0.5605 0,-0.365347 -0.140693,-0.558231 -0.140692,-0.195154 -0.406192,-0.195154 z  m 0,-.5809 q 0.655808,0 1.02342,0.354 0.369885,0.354001 0.369885,0.980309 0,0.626308 -0.369885,0.980308 -0.367615,0.354 -1.02342,0.354 -0.658078,0 -1.03023,-0.354 -0.369885,-0.354 -0.369885,-0.980308 0,-0.626308 0.369885,-0.980309 0.372154,-0.354 1.03023,-0.354 z "/>
<path id="path4188" d="m 65.6622,14.0009 .7897,0 .4266,1.7518 .4289,-1.7518 .6785,0 .4266,1.7337 .4289,-1.7337 .7897,0 -.6694,2.5415 -.8873,0 -.4289,-1.7473 -.4266,1.7473 -.8873,0 -.6694,-2.5415 z "/>
</g>
</g>
</g>
</svg>
