<svg width="48" version="1.1" xmlns="http://www.w3.org/2000/svg" height="48">
<defs>
<linearGradient gradientTransform="matrix(1.0543705,0,0,1.0543705,-12.372019,-15.65381)" id="m" y1="14.733507" x1="33.66679" y2="59.0033" x2="34.0718" gradientUnits="userSpaceOnUse">
<stop offset="0" style="stop-color:#ffc5b3"/>
<stop offset="1" style="stop-color:#c98350"/>
</linearGradient>
</defs>
<rect width="48" x="0" y="0" rx="9.6" height="42" ry="9" style="fill:#808080"/>
<rect width="41" x="3.5" y="3.5" rx="6.4" height="35" style="fill:#fff"/>
<path style="fill:#805333" d="m 24.3736,9.9906 v 2.70777 l .2564,1.108 c -0.03102,-5.05893 -7.12648,-4.60775 -7.12644,0.498688 l -.0074,15.8921 c 0,0 -0.611318,-0.667818 -1.66886,-1.67076 -6.87129,-6.51658 -9.60356,-0.422358 -9.60356,-0.422358 0,0 -0.302091,0.558393 -0.363318,0.920234 0.263672,0.154088 0.684409,0.476021 0.909077,0.761019 5.21981,6.6215 8.12076,16.6276 16.0285,17.6819 4.44775,0.592977 9.9837,0.536201 10.6328,0.527344 0.04281,0 0.08415,0 0.126953,0 3.96253,-0.02527 7.25615,-2.38535 7.83315,-6.08789 0.20738,-0.514186 0.360483,-1.05889 0.435547,-1.64062 l 1.2285,-8.4727 c 0.131797,-0.790777 0.195811,-0.696012 0.0293,-6.2832 l -.2637,-8.8555 c -0.0055,-3.2442 -5.85574,-4.46993 -5.75893,-0.0553 l .2449,-1.052 v -2.75208 c 0.07129,-3.51751 -6.27507,-4.22562 -6.2625,-0.139917 l .2223,-.932 .0225,-1.5316 c 0.03149,-3.9973 -6.92409,-3.91701 -6.91523,-0.201173 z "/>
<path style="fill:url(#m)" d="m 22.798,46.0268 c 4.44776,0.592979 9.98299,0.536991 10.6321,0.528135 0.04281,0 0.08488,0 0.127684,-0.0011 4.03507,-0.02573 7.17538,-2.4686 7.66832,-6.28879 l 1.2292,-8.4722 c 0.131797,-0.790778 0.200586,-0.696242 0.02823,-6.28326 l -.2639,-8.5541 c -0.09973,-3.23283 -4.87976,-3.65721 -4.85827,0.04446 l .0445,7.671 c 0.0048,0.82444 -0.660885,0.843945 -0.658873,0 l .0276,-11.5758 c 0.0076,-3.20112 -5.38733,-3.41088 -5.43,0.06105 l -.126,10.2527 c -0.0111,0.90303 -0.557369,0.892883 -0.555603,0 l .0255,-12.9162 c 0.0067,-3.37831 -5.69448,-3.31349 -5.71474,-0.202 l -.0844,12.9642 c -0.0061,0.933252 -0.558361,0.836578 -0.558398,0 l 0,-8.9492 c 0,-4.21748 -6.12604,-4.51402 -6.126,0.3 l 0,17.7143 c 0,0 -1.05933,-1.58651 -2.10874,-2.63593 -7.18868,-7.1888 -9.4894,-1.05437 -9.4894,-1.05437 4.21748,3.16311 8.2836,16.3427 16.1914,17.3971 z "/>
</svg>
