<svg width="48" version="1.1" xmlns="http://www.w3.org/2000/svg" height="48">
<defs>
<linearGradient gradientTransform="matrix(1.0543705,0,0,1.0543705,-12.372019,-15.65381)" id="m" y1="21.03116" x1="33.862537" y2="59.0033" x2="34.0718" gradientUnits="userSpaceOnUse">
<stop offset="0" style="stop-color:#ffc5b3"/>
<stop offset="1" style="stop-color:#c98350"/>
</linearGradient>
</defs>
<rect width="48" x="0" y="0" rx="9.6" height="42" ry="9" style="fill:#808080"/>
<rect width="41" x="3.5" y="3.5" rx="6.4" height="35" style="fill:#fff"/>
<path style="fill:url(#m)" d="m 22.798,46.0268 c 4.44776,0.592979 9.98299,0.536991 10.6321,0.528135 0.04281,0 0.08488,0 0.127684,-0.0011 4.03507,-0.02573 7.17538,-2.4686 7.66832,-6.28879 l 1.2292,-8.4722 c 0.131797,-0.790778 0.200586,-0.696242 0.02823,-6.28326 l -.2639,-8.5541 c -0.09973,-3.23283 -4.87976,-3.65721 -4.85827,0.04446 l .0445,7.671 c 0.0048,0.82444 -0.660885,0.843945 -0.658873,0 l .0276,-11.5758 c 0.0076,-3.20112 -5.38733,-3.41088 -5.43,0.06105 l -.126,10.2527 c -0.0111,0.90303 -0.557369,0.892883 -0.555603,0 l .0255,-12.9162 c 0.0067,-3.37831 -5.69448,-3.31349 -5.71474,-0.202 l -.0844,12.9642 c -0.0061,0.933252 -0.558361,0.836578 -0.558398,0 v -8.9492 c 0,-4.21748 -6.12604,-4.51402 -6.126,0.3 v 17.7143 c 0,0 -1.05933,-1.58651 -2.10874,-2.63593 -7.18868,-7.1888 -9.4894,-1.05437 -9.4894,-1.05437 4.21748,3.16311 8.2836,16.3427 16.1914,17.3971 z "/>
<path style="fill:none;stroke:#794d2f;stroke-width:1.5" d="m 22.798,46.5269 c 4.44776,0.592979 9.98299,0.536991 10.6321,0.528135 0.04281,0 0.08488,0 0.127684,-0.0011 4.03507,-0.02573 7.17538,-2.96874 7.66832,-6.78892 l 1.2292,-8.4722 c 0.131797,-0.790778 0.200586,-0.696242 0.02823,-6.28326 l -.2639,-8.5541 c -0.09973,-3.23283 -4.87976,-3.65721 -4.85827,0.04446 l .0445,7.671 c 0.0048,0.82444 -0.660885,0.843945 -0.658873,0 l .0276,-11.5758 c 0.0076,-3.20112 -5.38733,-3.41088 -5.43,0.06105 l -.126,10.2527 c -0.0111,0.90303 -0.557369,0.892883 -0.555603,0 l .0255,-12.9162 c 0.0067,-3.37831 -5.69448,-3.31349 -5.71474,-0.202 l -.0844,12.9642 c -0.0061,0.933252 -0.558361,0.836578 -0.558398,0 v -8.9492 c 0,-4.21748 -6.12604,-4.51402 -6.126,0.3 v 17.7143 c 0,0 -1.05933,-1.58651 -2.10874,-2.63593 -7.18868,-7.1888 -9.4894,-1.05437 -9.4894,-1.05437 4.21748,3.16311 8.2836,16.8428 16.1914,17.8972 z "/>
</svg>
