<svg width="48" version="1.1" xmlns="http://www.w3.org/2000/svg" height="48">
<g style="stroke:none" id="g4">
<path style="fill:#fff" id="path3994" d="m 1.8102,0 c -0.721443,0 -1.25187,0.526439 -1.22875,1.27422 v 5.82503 33.8012 5.35983 0.465192 c 0,0.697535 0.447844,1.18894 1.09222,1.254 0.046758,0.0047 0.087806,0.02304 0.136527,0.02023 h 3.12063 38.1391 3.12063 c 0.04508,0 0.09319,-0.0056 0.136527,-0.02023 0.644378,-0.06506 1.09222,-0.556463 1.09222,-1.254 v -0.465192 -5.35983 -11.7228 -10.396 c -5.8144,-6.01163 -12.3312,-12.7611 -18.1368,-18.7816 h -27.0237 z "/>
<path style="fill:#d35400" id="path3998" d="m 2.2609,1.6021 0,6.462 0,31.5543 0,6.7617 3.6309,0 39.94,0 0,-6.7617 0,-19.9903 l -17.4337,-18.0259 Z "/>
</g>
<g style="fill:#fff">
<rect width="25.526129" x="11.2365" y="16.391573" height="15.216928" style="stroke:#fff;stroke-linejoin:round;stroke-linecap:round;stroke-width:3.609;stroke-dashoffset:2.25" id="rect3256"/>
<path style="fill-rule:evenodd;stroke:none" id="path8085" d="m 21.8473,31.6907 0,3.192 .0184,0 -7.9233,6.9839 5.6368,0 4.4261,-5.5646 4.4289,5.5646 5.6404,0 -7.9264,-6.9837 0,-3.192 z "/>
</g>
</svg>
