<svg width="48" version="1.1" xmlns="http://www.w3.org/2000/svg" height="48">
<g style="stroke:none">
<path style="fill:#fff" id="path3994" d="m 1.8102,-0 c -0.721443,0 -1.25187,0.526439 -1.22875,1.27422 v 5.82503 33.8012 5.35983 0.465192 c 0,0.697535 0.447844,1.18894 1.09222,1.254 0.046758,0.0047 0.087806,0.02304 0.136527,0.02023 h 3.12063 38.1391 3.12063 c 0.04508,0 0.09319,-0.0056 0.136527,-0.02023 0.644378,-0.06506 1.09222,-0.556463 1.09222,-1.254 v -0.465192 -5.35983 -11.7228 -10.396 c -5.8144,-6.01163 -12.3312,-12.7611 -18.1368,-18.7816 l -27.0237,-0 z "/>
<path style="fill:#f3c312" id="path3998" d="m 2.2609,1.6021 0,6.462 0,31.5543 0,6.7617 3.6309,0 39.94,0 0,-6.7617 0,-19.9903 l -17.4337,-18.0259 Z "/>
</g>
<g id="g4194" transform="matrix(1.1409985,0,0,1.1409985,-5.6072123,-3.1742721)">
<g style="fill:#fff;fill-rule:evenodd;stroke:none" id="g4162" transform="translate(1.855339,1.8230637)">
<path id="path4178" d="m 14.6817,12.384 3.2813,5.625 0,8.7188 -11.5,.0312 z "/>
<path id="path4176" d="m 19.75,17.9531 12.2812,0 0,2.2935 c -4.78563,1.4264 -7.24079,5.30021 -6.31925,9.98775 h -5.962 z "/>
<path id="path1306" d="m 34.3498,21.5098 c 3.97729,0 7.1875,3.21021 7.1875,7.1875 0,3.97729 -3.21021,7.21875 -7.1875,7.21875 -3.97729,0 -7.21875,-3.24146 -7.21875,-7.21875 0,-3.97729 3.24146,-7.1875 7.21875,-7.1875 z"/>
</g>
</g>
</svg>
