<svg width="48" version="1.1" xmlns="http://www.w3.org/2000/svg" height="48">
<g style="stroke:none">
<path style="fill:#fff" id="path3994" d="m 1.8102,-0 c -0.721443,0 -1.25187,0.526439 -1.22875,1.27422 v 5.82503 33.8012 5.35983 0.465192 c 0,0.697535 0.447844,1.18894 1.09222,1.254 0.046758,0.0047 0.087806,0.02304 0.136527,0.02023 h 3.12063 38.1391 3.12063 c 0.04508,0 0.09319,-0.0056 0.136527,-0.02023 0.644378,-0.06506 1.09222,-0.556463 1.09222,-1.254 v -0.465192 -5.35983 -11.7228 -10.396 c -5.8144,-6.01163 -12.3312,-12.7611 -18.1368,-18.7816 l -27.0237,-0 z "/>
<path style="fill:#4d4d4d" id="path3998" d="m 2.2609,1.6021 0,6.462 0,31.5543 0,6.7617 3.6309,0 39.94,0 0,-6.7617 0,-19.9903 l -17.4337,-18.0259 Z "/>
<g style="fill:#fff" id="g12" transform="matrix(1.7714226,0,0,1.7714226,-18.685686,-18.444111)">
<path id="path4230" d="m 15.3551,23.8191 -1.9497,-3.5751 1.829,0 1.1051,2.17 1.1197,-2.17 1.829,0 -1.9497,3.5621 2.0462,3.7582 -1.829,0 -1.2162,-2.3137 -1.2016,2.3137 -1.829,0 2.0462,-3.7452 z"/>
<path id="path4232" d="m 24.2445,19.172 0,3.4249 2.5191,0 0,1.5425 -2.5191,0 0,3.4249 -1.1485,0 0,-3.4249 -2.5191,0 0,-1.5425 2.5191,0 0,-3.4249 1.1485,0 z"/>
<path id="path4234" d="m 27.9316,20.2438 1.7277,0 1.4526,4.9674 1.2354,-4.9674 1.7277,0 -2.273,8.0131 q -0.342643,1.22222 -0.801108,1.70589 -0.45364,0.490198 -1.20167,0.490198 h -0.998974 v -1.53595 h 0.540506 q 0.439162,0 0.637026,-0.189543 0.20269,-0.189543 0.313687,-0.679741 l .0483,-.2026 -2.4082,-7.6013 z "/>
</g>
</g>
</svg>
