<svg width="48" version="1.1" xmlns="http://www.w3.org/2000/svg" height="48">
<g style="stroke:none" id="g8" transform="matrix(1.8011445,0,0,1.8011445,-18.976889,-19.227578)">
<path style="fill:#fff" id="path3994" d="m 11.541,10.6752 c -0.400547,0 -0.695041,0.29228 -0.682204,0.707452 v 3.23407 18.7665 2.97579 0.258276 c 0,0.387273 0.248644,0.6601 0.606404,0.696223 0.02596,0.0026 0.04875,0.01279 0.0758,0.01123 h 1.73258 21.175 1.73258 c 0.02503,0 0.05174,-0.0031 0.0758,-0.01123 0.35776,-0.03612 0.606404,-0.30895 0.606404,-0.696223 v -0.258276 -2.97579 -6.50852 -5.77191 c -3.22817,-3.33767 -6.84631,-7.08498 -10.0696,-10.4276 h -15.0037 z "/>
<path style="fill:#8e44ad" id="path3998" d="m 11.7913,11.5646 0,3.5878 0,17.519 0,3.7541 2.0159,0 22.1748,0 0,-3.7541 0,-11.0987 -9.6793,-10.0081 z "/>
<path style="fill:#fff;color:#000;stroke-width:2" id="path4246" d="m 17.1388,18.0279 0,.7026 4.1167,0 0,-.7026 -4.1167,0 z  m 4.8029,0 0,.7026 4.1167,0 0,-.7026 -4.1167,0 z  m 4.8029,0 0,.7026 4.1167,0 0,-.7026 -4.1167,0 z  m -9.6057,1.4052 0,.7026 4.1167,0 0,-.7026 -4.1167,0 z  m 4.8029,0 0,.7026 4.1167,0 0,-.7026 -4.1167,0 z  m 4.8029,0 0,.7026 4.1167,0 0,-.7026 -4.1167,0 z  m -9.6057,1.4052 0,.7026 4.1167,0 0,-.7026 -4.1167,0 z  m 4.8029,0 0,.7026 4.1167,0 0,-.7026 -4.1167,0 z  m 4.8029,0 0,.7026 4.1167,0 0,-.7026 -4.1167,0 z  m -9.6057,1.4052 0,.7026 4.1167,0 0,-.7026 -4.1167,0 z  m 4.8029,0 0,.7026 4.1167,0 0,-.7026 -4.1167,0 z  m 4.8029,0 0,.7026 4.1167,0 0,-.7026 -4.1167,0 z  m -9.6057,1.4052 0,.7026 4.1167,0 0,-.7026 -4.1167,0 z  m 4.8029,0 0,.7026 4.1167,0 0,-.7026 -4.1167,0 z  m 4.8029,0 0,.7026 4.1167,0 0,-.7026 -4.1167,0 z  m -9.6057,1.4052 0,.7026 4.1167,0 0,-.7026 -4.1167,0 z  m 4.8029,0 0,.7026 4.1167,0 0,-.7026 -4.1167,0 z  m 4.8029,0 0,.7026 4.1167,0 0,-.7026 -4.1167,0 z  m -9.6057,1.4052 0,.7026 4.1167,0 0,-.7026 -4.1167,0 z  m 4.8029,0 0,.7026 4.1167,0 0,-.7026 -4.1167,0 z  m 4.8029,0 0,.7026 4.1167,0 0,-.7026 -4.1167,0 z  m -9.6057,1.4052 0,.7026 4.1167,0 0,-.7026 -4.1167,0 z  m 4.8029,0 0,.7026 4.1167,0 0,-.7026 -4.1167,0 z  m 4.8029,0 0,.7026 4.1167,0 0,-.7026 -4.1167,0 z  m -9.6057,1.4052 0,.7026 4.1167,0 0,-.7026 -4.1167,0 z  m 4.8029,0 0,.7026 4.1167,0 0,-.7026 -4.1167,0 z  m 4.8029,0 0,.7026 4.1167,0 0,-.7026 -4.1167,0 z "/>
</g>
</svg>
