<svg width="128" version="1.0" xmlns="http://www.w3.org/2000/svg" height="128">
<defs id="defs23">
<clipPath id="clipPath3613">
<rect width="84" x="6" y="6" rx="6" ry="6" height="84" style="fill:#fff;stroke:none" id="rect3615"/>
</clipPath>
</defs>
<g style="stroke:none">
<g style="text-align:start">
<path style="opacity:.2" id="path4300" d="m 7.9131,14 c -1.07505,0 -1.92628,0.853938 -1.92628,1.93239 v 65.1676 l 38.5072,41.8998 h 76.5801 c 1.07505,0 1.92629,-0.85395 1.92629,-1.93238 v -105.135 c 0,-1.07846 -0.85124,-1.93239 -1.92629,-1.93239 z "/>
<rect width="1" x="274.18399" y="1.23577" height="0" style="opacity:.578;fill:#fff;stroke-linejoin:round;stroke-linecap:round;stroke-width:3.632;stroke-dashoffset:4" id="rect1327"/>
<path style="opacity:.2" id="path4302" d="M 8.8767,15 C 7.82935,15 7.00003,15.830435 7.00003,16.87921 L 7.00003,78 49.1,121.4 l 70.0227,-0.3996 c 1.04733,-0.006 1.87667,-0.83044 1.87667,-1.87919 l 0,-102.242 C 120.99937,15.83043 120.17005,15 119.1227,15 Z"/>
<path style="fill:#f0e8dc" id="path4275" d="M 9.84375,16 C 8.8147657,16 8,16.814766 8,17.84375 L 8,79.8 l 40.9,40.19988 69.25625,0 c 1.02898,0 1.84375,-0.81477 1.84375,-1.84375 L 120,17.84375 C 120,16.814766 119.18523,16 118.15625,16 Z"/>
<path style="fill:#fff" id="rect2859" d="m 40,40 24,0 0,16 -24,0 z"/>
<g style="stroke-linejoin:round;stroke-linecap:round;stroke-width:1.5">
<g style="fill:#c8c8c8">
<path id="path4234" d="m 72.5,40 c -0.269548,0 -0.5,0.230451 -0.5,0.5 v 71 c 0,0.26955 0.230451,0.5 0.5,0.5 h 15 c 0.269548,0 0.5,-0.23045 0.5,-0.5 v -71 c 0,-0.269548 -0.230451,-0.5 -0.5,-0.5 Z "/>
<path id="rect3678" d="m 111.5,40 c -15.2695,0 -15.5,0.230451 -15.5,0.5 v 71 c 0,0.26955 0.230451,0.5 0.5,0.5 h 15 c 0.26955,0 0.5,-0.23045 0.5,-0.5 v -71 c 0,-0.269548 -0.23045,-0.5 -0.5,-0.5 z "/>
</g>
<rect width="102.99999" x="12" y="34.899963" rx="0.51248276" ry=".5" height="1" style="fill:#a1a1a1" id="rect3672"/>
</g>
<g style="font-family:'Bitstream Charter';word-spacing:0;line-height:125%;letter-spacing:0" id="g49">
<path style="font-weight:bold" id="path4305" d="m 56.0216,34.0483 4.9285,0 0,-1.0376 -1.3402,-.1729 -.3459,-.3891 0,-10.0082 7.4792,11.6078 2.421,0 0,-12.9048 .3675,-.4107 1.2753,-.1729 0,-1.016 -4.9285,0 0,1.016 1.3186,.1729 .3891,.4107 0,9.2517 -6.6145,-10.2676 0,-.5836 -4.9717,0 0,1.0592 1.3834,.1081 .3026,.3026 0,11.4349 -.3891,.3891 -1.2753,.1729 0,1.0376 z "/>
<path style="font-weight:bold" id="path4307" d="m 71.7919,34.0483 11.6078,0 0,-3.8693 -1.4699,0 -.3675,2.2913 -.281,.3459 -5.0149,0 0,-5.6202 2.8101,0 .3026,.3026 .2162,1.5564 1.2753,0 0,-5.0149 -1.2753,0 -.2162,1.5564 -.3026,.3026 -2.8101,0 0,-5.1446 4.3016,0 .281,.281 .3242,1.9022 1.5131,0 0,-3.3937 -10.8945,0 0,1.0592 1.3186,.1081 .3459,.3026 0,11.5214 -.3459,.3459 -1.3186,.1081 0,1.0592 z "/>
<path style="font-weight:bold" id="path4309" d="m 88.9486,34.0483 2.0968,0 3.2856,-11.0674 3.3505,11.0674 2.0968,0 3.3073,-13.1426 1.3618,-.3026 0,-1.0592 -4.7123,0 0,1.0592 1.4267,.2594 .2594,.3026 -2.2697,9.0787 -3.1992,-10.6999 -2.1832,0 -3.1127,10.4622 -2.421,-8.9707 .1729,-.3026 1.3402,-.1513 0,-1.0376 -5.6634,0 0,1.0592 1.3618,.3026 3.5018,13.1426 z "/>
<path style="font-weight:bold" id="path4311" d="m 105.751,33.5727 c 1.3402,0.475553 2.78847,0.713329 4.1719,0.713329 3.54503,0 5.72825,-1.85898 5.72825,-4.43129 0,-1.27535 -0.69171,-2.44261 -1.94544,-3.24241 -1.27535,-0.821409 -2.421,-1.14565 -3.0911,-1.55635 -1.14565,-0.691713 -1.7509,-1.3402 -1.7509,-2.33453 0,-1.18888 0.97272,-2.05352 2.5507,-2.05352 0.69171,0 1.18888,0.108081 1.57797,0.302625 l .3026,.3026 .3675,2.2481 h 1.55636 v -3.5018 c -1.36181,-0.475553 -2.72362,-0.734945 -4.06382,-0.734945 -3.09109,0 -5.10138,1.85898 -5.10138,4.25836 0,1.05919 0.51878,2.11837 1.51312,2.9614 0.95111,0.799794 1.96706,1.16727 2.8317,1.59959 1.53474,0.778178 2.31292,1.55635 2.31292,2.72362 0,1.18888 -1.03757,2.05352 -2.78847,2.05352 -0.6701,0 -1.29696,-0.108081 -1.90221,-0.302625 l -.281,-.3242 -.3459,-2.5939 h -1.64282 v 3.9125 z "/>
</g>
</g>
<g id="g4362" transform="matrix(0.98787198,0,0,0.98787198,-0.88908336,1.5523868)">
<path style="opacity:.2" id="path3172" d="m 71.7624,93.68 a 35.4313,34.2142 0 1,1 -70.8622,0 35.4313,34.2142 0 1,1 70.8622,0 z "/>
<path style="fill:#3080ca" id="path2985" d="m 70.9184,93.1281 a 34.8331,33.2931 0 1,1 -69.6659,0 34.8331,33.2931 0 1,1 69.6659,0 z "/>
<path style="opacity:.5;fill:#fff" id="path3522-9" d="m 38.3068,60.1205 c -0.429027,-0.01662 -0.826776,-0.005 -1.10833,0.06158 h -5.9727 c -1.63127,0.217155 -3.25199,0.498294 -4.80279,0.923613 0.595914,1.81005 -0.0433,4.0284 1.72408,4.00232 1.01729,1.43807 -2.01377,0.430993 0.184721,1.53935 1.26425,0.995546 -1.31938,1.56956 0.246297,2.46296 -1.80449,0.931015 0.260639,4.86383 1.60093,5.84954 2.20595,1.85686 0.986717,-3.94751 3.44816,-4.24862 1.3375,-1.52674 3.68867,-2.46647 5.35695,-4.00232 -1.63041,-0.132346 -2.59084,-1.15709 -1.04676,-1.78566 2.84182,2.91167 0.71107,-1.41416 -0.862038,-2.09351 1.52217,-0.484143 3.04362,-0.09874 2.83241,-1.35463 1.20645,-0.882539 -0.313848,-1.30485 -1.60093,-1.35463 z  m -19.088,3.8177 c -1.30665,0.69141 -2.55906,1.4991 -3.75601,2.33982 1.95075,0.378114 3.06536,-0.502335 3.87917,1.60093 2.29595,1.32306 -0.000171,3.58832 -0.862038,4.18704 1.55238,-1.35179 4.53828,3.70268 3.75601,1.04676 -0.933258,-0.681335 2.46153,1.10599 0.677316,-1.10833 -1.64197,-2.64509 0.169787,-1.17151 0.862038,-0.554167 2.35448,-2.11101 -2.66894,-2.384 -1.41621,-4.55649 -0.823316,-0.666747 -1.8638,-2.37853 -3.14028,-2.95555 z  m 37.2523,2.1551 c -2.4418,1.22822 -3.62064,3.93494 -5.04908,6.21899 -2.44596,1.10265 -2.36316,5.82262 0.369445,4.31018 0.731374,1.2772 -0.529374,3.3325 1.60093,1.6625 1.71829,-2.27361 0.339321,-5.95525 3.26342,-7.38889 0.212992,1.11474 -2.72262,5.24066 0.677315,4.55649 3.07359,0.115976 -2.23379,0.315176 -0.73889,2.27825 -1.55315,-0.921402 -0.743506,2.52411 -2.77083,1.72408 -1.75634,0.955234 -2.92688,-0.438071 -2.52454,-1.97037 -1.38165,0.805928 0.428088,3.06521 -1.97037,3.20185 -0.537271,1.90762 -4.91392,1.62884 -2.40138,3.5713 1.1155,2.89067 -4.20596,0.163975 -2.70926,3.63287 1.28049,3.43022 3.96032,-1.14963 5.04908,-2.03195 1.96934,-1.52741 4.84075,2.28077 3.63287,2.89399 1.73608,-0.442109 1.29565,-2.28034 -0.307871,-3.01713 -0.917218,-2.37851 2.92117,1.20887 2.70926,2.40139 1.34807,2.52401 0.783288,-2.63101 2.15509,-0.369444 -0.160152,2.3856 5.54356,0.592442 2.83241,3.63287 -2.33098,0.469436 -4.6432,-0.623955 -6.65,0.06158 -1.86781,-0.01662 -1.78295,-2.02485 -2.46296,-2.52454 -2.37587,0.192997 -5.30575,0.174409 -6.8963,2.09351 -1.71999,2.35957 -4.2145,5.66908 -2.33982,8.68195 1.876,4.46473 6.56188,0.257213 9.23612,2.89399 0.794874,1.09941 -0.730549,2.38043 1.04676,3.5713 0.668785,2.53675 -0.718926,4.9639 0.923613,7.38888 0.849358,2.28058 1.33367,5.65526 4.49491,3.5713 3.34574,-2.01315 2.47313,-5.70282 5.2338,-7.75834 -2.18441,-4.22696 2.66739,-6.05089 3.87917,-9.48241 -2.6475,0.387544 -4.96359,-2.26949 -5.60325,-4.92593 -1.11218,-1.29029 -0.872905,-3.22438 0.369444,-0.800464 1.70761,1.65444 1.76714,6.58934 4.92592,4.06388 1.4441,-0.603945 5.35903,-2.89233 2.21667,-3.94075 -2.02555,1.46691 -4.26748,-4.37836 -1.29306,-0.985187 1.71949,0.729418 3.04538,1.17235 3.50972,-0.184722 0,-8.25601 -3.16789,-15.7944 -8.37408,-21.6126 -0.483516,0.48745 -1.4218,-0.05438 -0.923612,0.985185 -1.2294,-0.871958 -2.25775,-3.54819 0,-2.03195 -1.55707,-1.60467 -3.25194,-3.08521 -5.11066,-4.37176 z  m -29.1246,.3078 c -1.22682,1.02208 2.33236,1.21455 0,0 z  m -11.3911,.5541 c -0.118286,1.21505 -1.69549,3.70933 -1.47778,0.677314 -0.447463,0.530456 -0.715105,0.415398 -0.923612,0.06158 -6.40474,5.1839 -10.7556,12.5358 -11.9454,20.8736 0.341482,0.782374 0.863548,1.44542 1.78566,1.90879 0.535183,0.992571 2.79045,5.20599 2.89399,3.94075 -1.12584,-1.17886 -2.27447,-4.68929 -0.369445,-1.53935 1.70634,2.99423 3.96483,4.95228 7.32733,5.66482 1.83838,0.625247 3.37082,2.75114 4.9875,2.27825 0.914173,2.40959 -2.70764,4.71042 0.123155,6.95787 1.47782,2.27521 3.92938,3.76364 2.58612,6.95788 -0.776126,2.57751 -0.598948,5.3578 -0.985186,7.88149 0.872094,0.43565 1.73415,0.86623 2.64768,1.23148 0.34616,-1.51534 0.777934,-2.93176 1.9088,-4.00232 2.55781,0.0202 0.478196,-2.76329 3.01713,-2.40138 1.54928,-2.03046 2.00353,-4.42756 4.61805,-5.2338 0.312308,-2.46466 4.35303,-6.24459 0.184721,-7.20417 -1.13289,-0.55832 -4.10209,-0.77128 -3.87917,-1.04676 0.45163,-2.4456 -3.74466,-3.1249 -5.54167,-4.12546 -2.3594,-1.67453 -5.88032,2.73146 -6.71158,-1.10833 -0.495995,-1.20812 -2.31124,-1.21452 -1.47778,-3.07871 -1.50205,1.4937 -4.46362,1.0374 -3.69445,-1.84722 1.16811,-2.42942 5.63931,-2.55271 6.40371,0.369443 -1.06132,-3.22279 2.08957,-5.71181 3.81759,-8.00463 0.351853,-1.09591 2.4435,-2.01068 1.72408,-0.554167 1.22568,-0.04421 3.03938,-2.25223 0.862037,-1.23148 -0.03081,-2.01688 -1.91594,-1.45629 -2.52454,-1.16991 1.12799,-1.79008 6.92075,-0.830029 4.49491,-3.75601 -1.87971,-0.761545 -1.67003,-5.18503 -3.5713,-2.70926 0.160003,-1.52543 -3.90553,-4.52835 -3.81759,-1.97037 0.491892,2.28892 0.123188,4.90335 -0.923613,6.40371 -0.218445,-3.35402 -5.96934,-2.58333 -5.2338,-6.15741 1.0656,-1.70342 2.34433,-4.09108 2.46296,-3.87917 1.90973,-0.729043 3.44483,-2.79294 1.23148,-4.18704 z  m 2.9556,1.4162 c -1.03909,1.70199 1.53533,0.628368 0,0 z  m 22.7208,1.9703 c -1.21651,1.40037 -2.80624,-0.341605 -2.83241,0.862038 0.220474,0.363688 1.08245,2.9623 3.01713,1.04676 1.03835,-0.437716 0.634705,-1.57097 -0.184723,-1.90879 z  m -25.8612,.8621 c -2.30741,2.01485 3.86087,2.2157 0.431018,0.246296 l -.431,-.2463 z  m 30.3561,5.6648 c -1.48945,1.10577 0.818269,3.31049 0,4.37176 -1.04097,1.81348 3.91517,-0.154053 1.29306,-1.60093 -0.163476,-1.0877 -1.25069,-2.37664 -1.29306,-2.77083 z  m -1.0467,2.0935 c -2.31461,0.654305 -0.5735,4.04374 0.246296,0.862038 0.04609,-0.184466 0.156645,-0.868206 -0.246296,-0.862038 z  m -18.5338,2.4629 c -2.15329,1.46812 -0.346619,2.93882 1.23148,2.27824 -0.323982,-0.885791 -1.21689,-1.44917 -1.23148,-2.27824 z  m 35.1588,2.4629 c -0.145776,1.43704 3.06852,3.6845 -0.43102,2.95555 -1.85071,0.217071 -4.60976,-0.03401 -2.27824,-2.33982 0.736719,-0.442225 2.66909,1.47003 1.6625,-0.369445 0.356864,-0.02275 0.71059,-0.13803 1.04676,-0.246296 z  m 5.4802,0 c 1.07442,0.542164 -1.92709,1.44721 0,2.40139 1.12145,1.31864 0.652905,4.15847 -1.16991,2.15509 0.338656,-2.23678 -2.46697,-3.89532 1.16991,-4.55649 z  m -16.194,3.1402 c -1.34988,0.869555 0.933428,1.53632 0,0 z  m -33.9273,8.0663 c -0.227576,0.759133 4.27298,1.5241 1.16991,0.307871 l -.431,-.1231 -.7389,-.1847 z  m 3.5097,1.1084 c -1.36398,1.38453 2.81022,0.413646 0,0 z  m 45.6264,12.6842 c -1.69305,0.0437 -2.27768,2.51379 -2.09351,3.81759 0.788132,-1.02842 1.55404,-2.08849 2.21667,-3.20184 -0.0066,-0.21808 -0.02368,-0.42398 -0.123155,-0.61574 z "/>
</g>
</g>
</svg>
