<svg width="48" version="1.1" xmlns="http://www.w3.org/2000/svg" height="48">
<g style="color:#000">
<g style="line-height:125%">
<path style="fill:#642a00" d="M 4.9573,38.1813 C 4.9118915,26.0967 4.838522,20.8464 4.9573,5.987 L 9.2885,2.6511 43.0536,2.9293 V 43.861 c 0,1.271173 -0.363986,1.631 -1.693,1.631 H 10.4166 C 6.72025,45.41586 4.89437,43.51694 4.95795,38.18139 Z"/>
<path style="fill:#fff" d="m 41.7002,36.5928 -31.0358,.1329 c -1.65509,0.189132 -2.9906,1.48453 -2.9906,3.18997 0,1.70544 1.33552,3 2.9906,3.18997 l 31.0358,.1329 v -0.06645 c -1.76046,-0.0831 -3.18997,-1.47552 -3.18997,-3.25643 0,-1.78091 1.42951,-3.17333 3.18997,-3.25643 v -0.06645 z "/>
<path style="fill:#a74e21" d="M 7.768,2.5 C 5.953,2.5 4.7694,3.5729 4.6829,5.54256 v 34.1879 C 4.585111,43.00383 6.635,44.80205 8.73722,45.298 4.21809,43.56407 4.81621,35.83729 10.46512,35.87001 h 32.8554 v -32.912 c 0,-0.257417 -0.390088,-0.45802 -0.651498,-0.45802 z"/>
</g>
<path style="opacity:.5" d="m 14.694,6.0242 c 0.08384,0 0.166513,0 0.250546,0 12.3849,0 22.7293,10.1011 22.831,22.9563 l -.7996,.7005 c -6.39407,-13.3221 -14.9714,-18.0795 -23.082,-22.956 z "/>
<path style="opacity:.5" d="m 14.694,14.073 c 0.0846,-0.0015 0.165661,0 0.250546,0 7.93377,0 14.6508,6.50595 14.7509,14.9075 l -.7995,.7005 c -6.34138,-8.10622 -10.8989,-10.899 -15.002,-14.908 z "/>
<path style="opacity:.5" d="m 16.7802,23.6998 c 2.0128,0 3.63292,1.62012 3.63292,3.63292 0,2.0128 -1.62012,3.66424 -3.63292,3.66424 -2.0128,0 -3.66424,-1.65144 -3.66424,-3.66424 0,-2.0128 1.65144,-3.63292 3.66424,-3.63292 z"/>
<g style="fill:#fff">
<path d="m 13.894,6.725 c 0.08384,-9.28e-4 0.166929,-4.03e-4 0.250962,-4.03e-4 12.3849,0 22.7293,10.1012 22.831,22.9564 l -3.7269,-10e-5 c -0.101944,-10.1398 -8.4471,-18.6031 -19.1042,-18.6031 -0.0849,0 -0.165932,-0.0011 -0.250546,0 z"/>
<path d="m 13.894,14.773 c 0.0846,-0.0015 0.166077,3.95e-4 0.250962,3.95e-4 7.93377,0 14.6509,6.50605 14.751,14.9076 l -3.6957,-10e-5 c -0.103642,-5.68894 -4.85415,-10.5543 -11.0554,-10.5543 -0.08448,0 -0.166613,-0.0018 -0.250546,0 z"/>
<path d="m 16.1807,24.2002 c 2.0128,0 3.63292,1.62012 3.63292,3.63292 0,2.0128 -1.62012,3.66424 -3.63292,3.66424 -2.0128,0 -3.66424,-1.65144 -3.66424,-3.66424 0,-2.0128 1.65144,-3.63292 3.66424,-3.63292 z"/>
</g>
</g>
</svg>
