<svg width="48" version="1.1" xmlns="http://www.w3.org/2000/svg" height="48">
<g style="color:#000;stroke:none">
<g style="line-height:125%">
<path style="fill:#642a00" id="path4368" d="m 4.9573,38.1813 c -0.0454085,-12.0846 -0.118778,-17.3349 -0.0001809,-32.1943 l 4.3312,-3.3359 33.7651,.2782 v 40.432 c 0,0 0.438683,2.08537 -1.09332,2.10569 -3.27916,0.04349 -10.9219,0.03217 -15.8974,0.03063 0,0 2.59145,-0.02528 -15.6467,-0.0056 -3.69635,-0.07614 -5.52223,-1.97506 -5.45865,-7.31061 Z "/>
<path style="fill:#fff" id="path2489" d="m 41.7002,36.5928 -31.0358,.1329 c -1.65509,0.189132 -2.9906,1.48453 -2.9906,3.18997 0,1.70544 1.33552,3.00084 2.9906,3.18997 l 31.0358,.1329 v -0.06645 c -1.76046,-0.0831 -3.18997,-1.47552 -3.18997,-3.25643 0,-1.78091 1.42951,-3.17333 3.18997,-3.25643 v -0.06645 z "/>
<path style="fill:#a74e21" id="path2784" d="m 7.768,2.5 c -1.815,0 -2.9986,1.0729 -3.0851,3.04256 v 34.1879 c -0.097789,3.27337 1.94295,5.13449 4.05432,5.66803 -4.51913,-1.73393 -3.92101,-9.5612 1.7279,-9.52848 h 32.8554 v -32.912 c 0,-0.257417 -0.390088,-0.45802 -0.651498,-0.45802 z "/>
</g>
<path style="opacity:.5" id="path4148" d="m 14.694,6.0242 c 0.08384,-0.000928 0.166513,0 0.250546,0 12.3849,0 22.7293,10.1011 22.831,22.9563 l -.7996,.7005 c -6.39407,-13.3221 -14.9714,-18.0795 -23.082,-22.956 z "/>
<path style="opacity:.5" id="path4150" d="m 14.694,14.073 c 0.0846,-0.0015 0.165661,0 0.250546,0 7.93377,0 14.6508,6.50595 14.7509,14.9075 l -.7995,.7005 c -6.34138,-8.10622 -10.8989,-10.899 -15.002,-14.908 z "/>
<path style="opacity:.5" id="path4152" d="m 16.7802,23.6998 c 2.0128,0 3.63292,1.62012 3.63292,3.63292 0,2.0128 -1.62012,3.66424 -3.63292,3.66424 -2.0128,0 -3.66424,-1.65144 -3.66424,-3.66424 0,-2.0128 1.65144,-3.63292 3.66424,-3.63292 z"/>
<g style="fill:#fff">
<path id="path4155" d="m 13.894,6.725 c 0.08384,-0.000928 0.166929,-0.000403 0.250962,-0.000403 12.3849,0 22.7293,10.1012 22.831,22.9564 l -3.7269,-.0001 c -0.101944,-10.1398 -8.4471,-18.6031 -19.1042,-18.6031 -0.0849,0 -0.165932,-0.0011 -0.250546,0 z "/>
<path id="path4153" d="m 13.894,14.773 c 0.0846,-0.0015 0.166077,0.000395 0.250962,0.000395 7.93377,0 14.6509,6.50605 14.751,14.9076 l -3.6957,-.0001 c -0.103642,-5.68894 -4.85415,-10.5543 -11.0554,-10.5543 -0.08448,0 -0.166613,-0.0018 -0.250546,0 z "/>
<path id="path2784-8" d="m 16.1807,24.2002 c 2.0128,0 3.63292,1.62012 3.63292,3.63292 0,2.0128 -1.62012,3.66424 -3.63292,3.66424 -2.0128,0 -3.66424,-1.65144 -3.66424,-3.66424 0,-2.0128 1.65144,-3.63292 3.66424,-3.63292 z "/>
</g>
</g>
</svg>
