<svg width="48" version="1.0" xmlns="http://www.w3.org/2000/svg" height="48" style="enable-background:new">
<g style="stroke:none;stroke-width:.541" id="layer1" transform="translate(0,-252)">
<path style="fill:#559c2c" id="path3776" d="m 24,256.6541 c -12.1503,0 -22,7.14431 -22,15.9244 0,5.64711 4.09205,10.5779 10.2326,13.3983 l -1.8547,9.3692 8.8576,-7.2907 c 1.54497,0.24844 3.11601,0.4157 4.76454,0.4157 12.1503,0 22,-7.11233 22,-15.8924 0,-8.78011 -9.84974,-15.9244 -22,-15.9244 z "/>
<path style="opacity:.5" id="path3003" d="m 23.875,258.7495 c -6.69443,0 -12.1562,5.46182 -12.1562,12.1562 0,6.69443 5.46182,12.1875 12.1562,12.1875 2.59348,0 5.02056,-0.85457 7,-2.25 l 2.4375,2.4688 2.9685,-1.968 .0003,-1.0007 -2.4375,-2.4688 c 1.39543,-1.97943 2.21875,-4.37527 2.21875,-6.96875 0,-6.69443 -5.49307,-12.1562 -12.1875,-12.1562 z  m 0,4.1875 c 4.42713,0 8,3.54162 8,7.96875 0,1.44497 -0.399948,2.80447 -1.0625,3.96875 l -3.9688,-3.9688 2.5622,-1.5308 .0003,-1.0005 -2.9688,-2.9688 -8.0625,8.0625 v 1.00075 l 2.9688,1.968 2.5312,-2.5625 3.9688,3.9688 c -1.16427,0.66255 -2.52379,1.03125 -3.96875,1.03125 -4.42713,0 -7.96875,-3.54163 -7.96875,-7.96875 0,-4.42713 3.54162,-7.96875 7.96875,-7.96875 z "/>
<path style="fill:#fff" id="path3774" d="m 23.875,7.75 c -6.69443,0 -12.1562,5.46182 -12.1562,12.1562 0,6.69443 5.46182,12.1875 12.1562,12.1875 2.59348,0 5.02056,-0.85457 7,-2.25 l 2.4375,2.4688 2.9685,-2.9685 -2.4372,-2.469 c 1.39543,-1.97943 2.21875,-4.37527 2.21875,-6.96875 0,-6.69443 -5.49307,-12.1562 -12.1875,-12.1562 z  m 0,4.1875 c 4.42713,0 8,3.54162 8,7.96875 0,1.44497 -0.399948,2.80447 -1.0625,3.96875 l -3.9688,-3.9688 2.5622,-2.5312 -2.9685,-2.9688 -8.0625,8.0628 2.9688,2.9685 2.5312,-2.5625 3.9688,3.9688 c -1.16427,0.66255 -2.52379,1.03125 -3.96875,1.03125 -4.42713,0 -7.96875,-3.54163 -7.96875,-7.96875 0,-4.42713 3.54162,-7.96875 7.96875,-7.96875 z " transform="translate(0,252)"/>
</g>
</svg>
