<svg width="96" version="1.0" xmlns="http://www.w3.org/2000/svg" height="96">
<path style="fill:#425073;-inkscape-stroke:none;color:#000" d="m 10.3125,4.75 c -3.022,0 -5.5625,2.54144 -5.5625,5.5625 v 74.375 c 0,3.02106 2.5405,5.5625 5.5625,5.5625 h 75.375 c 3.022,0 5.5625,-2.54144 5.5625,-5.5625 v -74.375 c 0,-3.02106 -2.5405,-5.5625 -5.5625,-5.5625 Z "/>
<g style="fill-rule:evenodd">
<rect width="70.310959" x="12.915827" y="11.330991" height="30.227045" style="fill:#00d9ff"/>
<path style="fill:#68a5bb" d="m 12.9994,62.9366 v -21.2654 l 70.4231,-3.8236 -27.2717,13.8309 -43.1515,11.2582 Z "/>
<path style="fill:#fbf7e5" d="m 13.3946,62.7498 34.2617,-12.1398 c 8.94489,-3.73533 -3.71345,-3.17504 -0.03025,-7.09714 2.40535,-2.86375 35.4336,-4.29563 35.584,-5.22947 l -4.8728,25.1513 c 0,0 -64.7171,2.05444 -64.9426,-0.684815 z "/>
<path style="fill:#fff" d="m 45.5566,36.6024 c 0.458148,-0.954583 1.78678,-0.99609 2.81761,-1.55639 1.03084,-0.5603 2.57709,-1.66015 3.3674,-1.80542 0.790305,-0.145264 0.847577,1.84691 2.1304,1.61865 1.28281,-0.22827 4.36386,-2.76 5.56651,-2.98827 1.20263,-0.228271 1.37444,1.34887 1.64934,1.61865 0.274884,0.269775 4.18283,0.519801 4.87928,-1.1206 0.687222,-1.61865 5.0621,0.403354 6.59734,-1.55639 1.51189,-1.92993 2.68017,1.6809 2.68017,1.6809 0,0 7.62818,2.55248 3.16122,3.67308 -4.46695,1.1206 -9.60967,-0.549924 -10.6519,-0.373533 -1.04228,0.17639 -5.34888,0.446165 -6.39117,0.622555 -1.04228,0.176391 -4.39822,0.498045 -5.77268,-0.249022 -1.34508,-0.731105 -10.4667,1.3383 -10.0335,0.43579 z "/>
<path style="fill:#efe9c7" d="m 13.3946,62.8743 48.0369,-11.7041 c 8.17795,-3.73533 -11.133,-4.17112 -7.76562,-8.09323 2.19911,-2.86375 31.2686,-5.35398 29.4819,-4.66917 l -.1374,26.0851 c 0,0 -69.4095,1.1206 -69.6157,-1.61865 z "/>
<path style="fill:#1a6e8e" d="m 12.9158,43.077 .1374,-3.2256 70.3007,-2.0038 -70.4381,5.2295 z "/>
<path style="fill:#503525" d="m 77.6499,38.2833 .8934,-.6848 .5348,-.7044 4.295,-.214 -.2254,2.6615 -4.6732,-.1245 -.8247,-.9338 z "/>
<path style="fill:#fff" d="m 18.9543,37.9098 c 1.03114,0.558181 4.49412,-0.0847 6.44837,0.06226 3.84086,0.288831 11.5898,0.08442 11.6324,-0.06226 0.04171,-0.143855 -7.67973,-0.08065 -11.3795,-0.809323 -3.67583,-0.723958 -7.16485,-2.36572 -10.7473,-3.54857 0,0 -1.83337,3.67308 -1.58049,3.67308 0.252883,0 5.42677,0.576682 5.62652,0.684811 z "/>
<path style="fill:#28b433" d="m 12.5052,64.6057 44.5781,-6.5364 c 8.17797,-2.66073 5.86465,-2.27091 11.8015,-5.56485 3.48382,-2.94019 7.25452,-0.412559 14.2631,-6.12686 l -.1374,18.1806 c 0,0 -72.572,0.09798 -70.5052,0.04742 z "/>
</g>
<path style="fill:#4e5d87" d="m 10.312,7 c -1.88391,0 -3.3125,1.42938 -3.3125,3.3125 v 74.375205 c 0,1.88312 1.42859,3.3125 3.3125,3.3125 h 75.3748 c 1.88391,0 3.3125,-1.42938 3.3125,-3.3125 V 10.3123 c 0,-1.88312 -1.42859,-3.3125 -3.3125,-3.3125 z m 2.6875,6 H 83 V 63 H 13 Z"/>
<g style="fill:#fff">
<rect width="10" x="15" y="70" rx="1.5" height="10" style="opacity:.85"/>
<rect width="10" x="29" y="70" rx="1.5" height="10" style="opacity:.85"/>
<rect width="10" x="43" y="70" rx="1.5" height="10" style="opacity:.85"/>
<rect width="10" x="57" y="70" rx="1.5" height="10" style="opacity:.85"/>
<rect width="10" x="71" y="70" rx="1.5" height="10" style="opacity:.85"/>
</g>
</svg>
