<svg width="48" version="1.0" xmlns="http://www.w3.org/2000/svg" height="48" xmlns:xlink="http://www.w3.org/1999/xlink">
<defs id="defs12259">
<linearGradient id="linearGradient5073">
<stop offset="0" style="stop-color:#acbfd5" id="stop5075"/>
<stop offset="0.86" style="stop-color:#acbfd5" id="stop5081"/>
<stop offset="0.87" style="stop-color:#668ab2" id="stop5083"/>
<stop offset="1" style="stop-color:#668ab2" id="stop5077"/>
</linearGradient>
<linearGradient gradientTransform="matrix(0.42118416,0,0,0.44292602,-465.033,1.2652869)" xlink:href="#linearGradient5073" id="linearGradient5079" y1="26.493605" x1="1108.8569" y2="98.65657" x2="1108.8119" gradientUnits="userSpaceOnUse"/>
<linearGradient gradientTransform="matrix(0.72902066,0,0,-0.72902066,14.504284,27.335515)" id="linearGradient3101-2" xlink:href="#linearGradient5052" y1="10.03125" y2="10.03125" x1="23.499411" x2="26" gradientUnits="userSpaceOnUse"/>
<linearGradient id="linearGradient4407">
<stop offset="0" style="stop-color:#e6e6e6" id="stop4409"/>
<stop offset="0.56323987" style="stop-color:#aaa" id="stop4571"/>
<stop offset="0.76957035" style="stop-color:#646464" id="stop4573"/>
<stop offset="1" style="stop-color:#646464" id="stop4411"/>
</linearGradient>
<linearGradient gradientTransform="matrix(0.83283688,0,0,0.83283684,-0.06218289,-4.9113805)" xlink:href="#linearGradient4407" id="linearGradient4433" y1="8.5129795" x1="30.834169" y2="25.939911" x2="35.053295" gradientUnits="userSpaceOnUse"/>
<linearGradient id="linearGradient5052">
<stop offset="0" style="stop-color:#eeeeec" id="stop5054"/>
<stop offset="1" style="stop-color:#888a85" id="stop5056"/>
</linearGradient>
</defs>
<path style="fill:url(#linearGradient5079);stroke-width:.41" id="path35" d="m 46,45.0878 c 0.0358,0.595094 -0.381317,0.912292 -0.924517,0.911834 h -42.1543 c -0.542823,0 -0.958469,-0.398555 -0.921233,-0.993187 v -4.00641 l 1.8816,-26.9054 c 0.038327,-0.61566 0.522478,-1.09557 1.07545,-1.09466 l 38.1824,.0503 c 0.552551,0 1.03485,0.505505 1.07124,1.12116 l 1.7893,26.8286 0,4.0877 0,0 z "/>
<ellipse cx="9.4327688" cy="15.5" rx="1.718088" ry="1.2180882" style="fill:#fff;stroke:#fff;stroke-width:.564" id="ellipse132"/>
<path style="fill:#3e556f;stroke-width:.407" id="path141" d="m 8.648,18 c -0.594251,0 -1.10387,0.502371 -1.13594,1.12044 l -1.0104,16.6755 c -0.01659,0.315486 0.09229,0.626965 0.298636,0.853902 0.205457,0.225601 0.48402,0.350193 0.784312,0.350193 h 32.8299 c 0.3,0 0.578439,-0.123702 0.783084,-0.348858 0.206306,-0.226489 0.315689,-0.537525 0.301144,-0.853902 0,-0.0014 -1.01176,-16.6764 -1.01176,-16.6764 -0.03061,-0.617174 -0.539987,-1.12044 -1.1359,-1.12044 h -30.7031 z "/>
<path style="fill:none;stroke:url(#linearGradient4433);stroke-width:1.144" id="path3590" d="m 32.2574,19.4196 c 0,0 -3.67789,-0.786023 -3.04126,-4.09603 0.774677,-4.02775 8.44491,-0.145131 8.44491,-2.98122 0,-4.55519 -17.3189,0.132905 -17.7603,-2.98122 -0.336358,-2.37282 4.36806,-1.98202 6.70366,-3.14685 4.09493,-2.04225 -0.900222,-1.84537 -1.17936,-4.49332"/>
<g style="stroke-linejoin:round;color:#000" id="g29">
<path style="fill:#a0a0a0;stroke:#a0a0a0;stroke-linecap:round;stroke-width:1.399" id="rect1413-4" d="m 30.5333,20.0749 c 7.19653,-0.01018 -4.48349,-0.01018 2.82399,0 7.30747,0.01018 9.73339,6.93588 9.93625,11.1356 0.202852,4.19972 -3.98289,7.09 -8.36923,7.09 h -5.84848 c -4.38636,0 -8.57356,-2.92967 -8.36922,-7.10971 0.20429,-4.18002 2.63021,-11.1057 9.82677,-11.1159 z "/>
<path style="fill:url(#linearGradient3101-2);stroke:#888a85;stroke-linecap:square;stroke-width:.729" id="rect5006-2" d="m 30.9073,20.7743 h 2.18709 v -1.09351 c 0,-0.652375 -2.18706,-0.652375 -2.18706,0 v 1.09353 z "/>
<g style="fill:none;stroke:#fff" id="g27">
<path style="stroke-linecap:round;stroke-width:1.5" id="path6963-7" d="m 30.6479,21.4065 c -3.09831,0.0045 -5.05997,1.47136 -6.36325,3.42129 -1.30328,1.94992 -1.98796,4.42302 -2.07572,6.24755 -0.08125,1.689 0.684177,3.09957 1.98851,4.16504 1.30434,1.06546 3.24858,1.72127 5.11815,1.72127 h 5.369 c 1.87165,0 3.81486,-0.606482 5.11815,-1.66432 1.30329,-1.05784 2.06931,-2.42964 1.98851,-4.12934 -0.0872,-1.83414 -0.781356,-4.38816 -2.0956,-6.34021 -1.31424,-1.95204 -3.29054,-3.41681 -6.4428,-3.42129 -0.141355,0 -0.172059,0 -0.298277,0 -0.244022,0 -0.385646,0 -0.576669,0 -0.296168,0 -0.830142,-0.0011 -1.45162,0 -0.119188,0 -0.145477,0 -0.278393,0 z "/>
<path style="stroke-linecap:square;stroke-width:1.399" id="path7118-7" d="m 34.4498,21.6592 c 0.09543,1.3023 -0.589213,1.85727 -1.38514,2.05037 v 5.38564"/>
</g>
</g>
<path style="fill:none;stroke:#747672;stroke-linecap:round;stroke-width:.729" id="path7120-6" d="m 29.9597,20.2749 h 4.00539"/>
<path style="fill:#729fcf;fill-rule:evenodd" id="path7103-0" d="m 33.4588,20.8243 a 1.45805,1.63269 0 0,1 -2.91608,0 1.45805,1.63269 0 1,1 2.91608,0 z "/>
<path style="fill:none;stroke:#fff;stroke-linejoin:round;stroke-linecap:square;color:#000;stroke-width:1.399" id="path932" d="m 29.573,21.6592 c -0.09543,1.3023 0.589213,1.85727 1.38514,2.05037 v 5.38564"/>
</svg>
