<svg width="48" version="1.0" xmlns="http://www.w3.org/2000/svg" height="48" xmlns:xlink="http://www.w3.org/1999/xlink">
<defs>
<linearGradient id="linearGradient5073-6">
<stop offset="0" style="stop-color:#acbfd5"/>
<stop offset="0.84661525" style="stop-color:#acbfd5"/>
<stop offset="0.85787153" style="stop-color:#668ab2"/>
<stop offset="1" style="stop-color:#668ab2"/>
</linearGradient>
<linearGradient id="linearGradient5052">
<stop offset="0" style="stop-color:#eeeeec"/>
<stop offset="1" style="stop-color:#888a85"/>
</linearGradient>
<linearGradient id="linearGradient4407">
<stop offset="0" style="stop-color:#e6e6e6"/>
<stop offset="0.56323987" style="stop-color:#aaa"/>
<stop offset="0.76957035" style="stop-color:#646464"/>
<stop offset="1" style="stop-color:#646464"/>
</linearGradient>
<linearGradient gradientTransform="matrix(0.83283688,0,0,0.75286512,-2.4055548,-4.2745215)" xlink:href="#linearGradient4407" id="linearGradient4433" y1="8.5129795" x1="30.834169" y2="25.939911" x2="35.053295" gradientUnits="userSpaceOnUse"/>
<linearGradient gradientTransform="matrix(0.37158978,0,0,0.38942743,0.21821585,-0.55336383)" xlink:href="#linearGradient5073-6" id="linearGradient1523-6" y1="38.817001" x1="9" y2="114.89" x2="9" gradientUnits="userSpaceOnUse"/>
<linearGradient gradientTransform="matrix(0.91127845,0,0,-0.91127845,7.1305042,26.635566)" id="linearGradient3101-2" xlink:href="#linearGradient5052" y1="10.03125" y2="10.03125" x1="23.499411" x2="26" gradientUnits="userSpaceOnUse"/>
</defs>
<path style="fill:url(#linearGradient1523-6)" d="m 5.43755,11.563 h 37.1249 c 1.03875,0 1.87499,0.836247 1.87499,1.87499 v 28.8749 c 0,1.03875 -0.836248,1.87499 -1.87499,1.87499 H 5.43755 c -1.03875,0 -1.87499,-0.836248 -1.87499,-1.87499 v -28.8749 c 0,-1.03875 0.836247,-1.87499 1.87499,-1.87499 z"/>
<path style="fill:#2f4155" d="m 9,15.7567 h 30 c 0.623248,0 1.125,0.501748 1.125,1.125 v 17.2499 c 0,0.623248 -0.501749,1.125 -1.125,1.125 h -30 c -0.623248,0 -1.125,-0.501749 -1.125,-1.125 v -17.2499 c 0,-0.623249 0.501748,-1.125 1.125,-1.125 z "/>
<path style="fill:#3e556f" d="m 9,16.5067 h 30 c 0.623248,0 1.125,0.501748 1.125,1.125 v 17.2499 c 0,0.623248 -0.501749,1.125 -1.125,1.125 h -30 c -0.623248,0 -1.125,-0.501748 -1.125,-1.125 v -17.2499 c 0,-0.623248 0.501748,-1.125 1.125,-1.125 z "/>
<path style="fill:#8c8c8c" d="m 10.875,13.3942 c 0,0.828425 -0.67157,1.5 -1.5,1.5 -0.828425,0 -1.5,-0.671571 -1.5,-1.5 0,-0.828425 0.67157,-1.5 1.5,-1.5 0.828425,0 1.5,0.67157 1.5,1.5 z"/>
<path style="fill:#fff" d="m 10.875,13.7692 c 0,0.828425 -0.67157,1.5 -1.5,1.5 -0.828425,0 -1.5,-0.67157 -1.5,-1.5 0,-0.828425 0.67157,-1.5 1.5,-1.5 0.828425,0 1.5,0.67157 1.5,1.5 z"/>
<path style="fill:none;stroke:url(#linearGradient4433);stroke-width:1.088" d="m 29.914,17.7201 c 0,0 -3.67789,-0.710547 -3.04126,-3.70272 0.774677,-3.64099 8.44491,-0.131195 8.44491,-2.69495 0,-4.11779 -17.3189,0.120143 -17.7603,-2.69495 -0.336358,-2.14497 4.36806,-1.7917 6.70366,-2.84468 4.09493,-1.84615 -0.900222,-1.66817 -1.17936,-4.06186"/>
<g style="color:#000">
<g style="stroke-linejoin:round">
<path style="fill:#828282;stroke:#828282;stroke-linecap:round;stroke-width:1.749" d="m 27.1668,17.5598 c 8.99569,-0.01272 -5.60438,-0.01272 3.53,0 9.13436,0.01273 12.1668,8.66987 12.4203,13.9195 0.253566,5.24967 -4.97863,8.86252 -10.4616,8.86252 h -7.31062 c -5.48297,0 -10.717,-3.6621 -10.4616,-8.88716 0.255364,-5.22504 3.28777,-13.8822 12.2835,-13.8949 z "/>
<path style="fill:url(#linearGradient3101-2);stroke:#888a85;stroke-linecap:square;stroke-width:.911" d="m 27.6343,18.434 h 2.73387 v -1.36689 c 0,-0.815472 -2.73383,-0.815472 -2.73383,0 v 1.36692 z "/>
<g style="fill:none;stroke:#fff">
<path style="stroke-linecap:round;stroke-width:1.875" d="m 27.31,19.2243 c -3.8729,0.0056 -6.32498,1.83921 -7.95409,4.27662 -1.6291,2.43741 -2.48496,5.52879 -2.59466,7.80946 -0.101563,2.11126 0.855224,3.87447 2.48565,5.20632 1.63043,1.33183 4.06074,2.15159 6.39771,2.15159 h 6.71127 c 2.33957,0 4.76859,-0.758105 6.39771,-2.08041 1.62912,-1.3223 2.58664,-3.03706 2.48564,-5.16169 -0.109,-2.29268 -0.976697,-5.48522 -2.61951,-7.92528 -1.64281,-2.44006 -4.11319,-4.27102 -8.05352,-4.27662 -0.176695,0 -0.215075,0 -0.372848,0 -0.305028,0 -0.482059,0 -0.720838,0 -0.370211,0 -1.03768,-0.0014 -1.81453,0 -0.148986,0 -0.181847,0 -0.347993,0 z "/>
<path style="stroke-linecap:square;stroke-width:1.749" d="m 32.0624,19.5402 c 0.119288,1.62788 -0.736518,2.32159 -1.73143,2.56297 v 6.73207"/>
</g>
</g>
<path style="fill:none;stroke:#747672;stroke-linecap:round;stroke-width:.911" d="m 26.4498,17.8098 h 5.00675"/>
</g>
<path style="fill:#729fcf;fill-rule:evenodd;stroke-width:1.25" d="m 30.8237,18.4965 a 1.82257,2.04087 0 0,1 -3.64511,0 1.82257,2.04087 0 1,1 3.64511,0 z "/>
<path style="fill:none;stroke:#fff;stroke-linejoin:round;stroke-linecap:square;color:#000;stroke-width:1.749" d="m 25.9664,19.5402 c -0.119288,1.62788 0.736518,2.32159 1.73143,2.56297 v 6.73207"/>
</svg>
