<svg width="48" version="1.1" xmlns="http://www.w3.org/2000/svg" height="48">
<path style="fill:#ef843f" id="rect4090" d="M 3,3 V 45 H 45 V 3 Z"/>
<g style="stroke:#003bc3;fill-rule:evenodd;stroke-linecap:square;stroke-width:0" id="g888" transform="translate(0,-1.507)">
<rect width="7.9695606" x="20.002359" y="4.5075564" height="18.793396" style="fill:#34495e;stroke-miterlimit:2.013" id="shape0"/>
<g style="stroke-miterlimit:2" id="g19">
<g style="fill:#ecf0f1" id="g10" transform="matrix(1.4683729,0,0,1.025597,-11.238691,-2.7746832)">
<rect width="3.2564054" x="23.465931" y="7.1004887" height="1.4654016" id="shape2"/>
<rect width="3.2564054" x="21.302462" y="8.5685101" height="1.4654016" id="shape3"/>
<rect width="3.2564054" x="23.46616" y="10.03407" height="1.4654016" id="shape4"/>
<rect width="3.2564054" x="21.29925" y="11.503496" height="1.4654016" id="shape5"/>
<rect width="3.2564054" x="23.462833" y="12.96901" height="1.4654016" id="shape6"/>
<rect width="3.2564054" x="21.29925" y="14.437004" height="1.4654016" id="shape7"/>
<rect width="3.2564054" x="23.462833" y="15.902609" height="1.4654016" id="shape8"/>
<rect width="3.2564054" x="21.277571" y="17.370695" height="1.4654016" id="shape9"/>
<rect width="3.2564054" x="23.441038" y="18.836208" height="1.4654016" id="shape10"/>
<rect width="3.2564054" x="21.277571" y="20.304295" height="1.4654016" id="shape11"/>
<rect width="3.2564054" x="23.441269" y="21.769808" height="1.4654016" id="shape12"/>
<rect width="3.2564054" x="21.274359" y="23.239271" height="1.4654016" id="shape13"/>
<rect width="5.4192996" x="21.285601" y="24.824669" height="9.7665815" id="shape17"/>
</g>
<rect width="4.6644192" x="21.693239" y="23.685429" height="2.3696082" style="fill:#2c3e50" id="shape18"/>
</g>
</g>
<g style="fill:#fff" id="g2452" transform="translate(0,-0.648832)">
<path id="path4162" d="m 21.0801,40.4731 h -2.3516 l -.3711,1.0625 h -1.5117 l 2.1602,-5.832 h 1.793 l 2.1602,5.832 h -1.5117 l -.3672,-1.0625 z  m -1.9766,-1.082 h 1.5977 l -.7969,-2.3203 z "/>
<path id="path4164" d="m 26.916,38.352 q -0.183594,-0.08594 -0.367188,-0.125 -0.179687,-0.04297 -0.363281,-0.04297 -0.539063,0 -0.832031,0.347656 -0.289063,0.34375 -0.289063,0.988281 v 2.01562 h -1.39844 v -4.375 h 1.39844 v 0.71875 q 0.269531,-0.429687 0.617188,-0.625 0.351562,-0.199219 0.839843,-0.199219 0.07031,0 0.152344,0.0078 0.08203,0.0039 0.238281,0.02344 l .0039,1.2656 z "/>
<path id="path4166" d="m 31.1543,37.2973 v 1.1406 q -0.285156,-0.195313 -0.574219,-0.289063 -0.285156,-0.09375 -0.59375,-0.09375 -0.585937,0 -0.914062,0.34375 -0.324219,0.339844 -0.324219,0.953125 0,0.613282 0.324219,0.957032 0.328125,0.339843 0.914062,0.339843 0.328125,0 0.621094,-0.09766 0.296875,-0.09766 0.546875,-0.289062 v 1.14453 q -0.328125,0.121094 -0.667969,0.179687 -0.335937,0.0625 -0.675781,0.0625 -1.18359,0 -1.85156,-0.605468 -0.667968,-0.609375 -0.667968,-1.69141 0,-1.08203 0.667968,-1.6875 0.667969,-0.609375 1.85156,-0.609375 0.34375,0 0.675781,0.0625 0.335938,0.05859 0.667969,0.179688 z"/>
</g>
</svg>
