<svg width="48" version="1.0" xmlns="http://www.w3.org/2000/svg" height="48" xmlns:xlink="http://www.w3.org/1999/xlink">
<defs>
<linearGradient id="linearGradient5073-6">
<stop offset="0" style="stop-color:#acbfd5"/>
<stop offset="0.84661525" style="stop-color:#acbfd5"/>
<stop offset="0.85787153" style="stop-color:#668ab2"/>
<stop offset="1" style="stop-color:#668ab2"/>
</linearGradient>
<linearGradient id="linearGradient5052">
<stop offset="0" style="stop-color:#eeeeec"/>
<stop offset="1" style="stop-color:#888a85"/>
</linearGradient>
<linearGradient id="linearGradient4407">
<stop offset="0" style="stop-color:#e6e6e6"/>
<stop offset="0.56323987" style="stop-color:#aaa"/>
<stop offset="0.76957035" style="stop-color:#646464"/>
<stop offset="1" style="stop-color:#646464"/>
</linearGradient>
<linearGradient gradientTransform="matrix(0.37158978,0,0,0.38942743,0.21821585,-0.55336383)" xlink:href="#linearGradient5073-6" id="linearGradient1523-6" y1="38.817001" x1="9" y2="114.89" x2="9" gradientUnits="userSpaceOnUse"/>
<linearGradient gradientTransform="matrix(0.72902066,0,0,-0.72902066,14.504284,25.335515)" id="linearGradient3101-2" xlink:href="#linearGradient5052" y1="10.03125" y2="10.03125" x1="23.499411" x2="26" gradientUnits="userSpaceOnUse"/>
<linearGradient gradientTransform="matrix(0.83283688,0,0,0.75286512,-0.06218289,-4.2745215)" xlink:href="#linearGradient4407" id="linearGradient4433" y1="8.5129795" x1="30.834169" y2="25.939911" x2="35.053295" gradientUnits="userSpaceOnUse"/>
</defs>
<path style="fill:url(#linearGradient1523-6)" d="m 5.43755,11.563 h 37.1249 c 1.03875,0 1.87499,0.836247 1.87499,1.87499 v 28.8749 c 0,1.03875 -0.836248,1.87499 -1.87499,1.87499 H 5.43755 c -1.03875,0 -1.87499,-0.836248 -1.87499,-1.87499 v -28.8749 c 0,-1.03875 0.836247,-1.87499 1.87499,-1.87499 z"/>
<path style="fill:#2f4155" d="m 9,15.7567 h 30 c 0.623248,0 1.125,0.501748 1.125,1.125 v 17.2499 c 0,0.623248 -0.501749,1.125 -1.125,1.125 h -30 c -0.623248,0 -1.125,-0.501749 -1.125,-1.125 v -17.2499 c 0,-0.623249 0.501748,-1.125 1.125,-1.125 z "/>
<path style="fill:#3e556f" d="m 9,16.5067 h 30 c 0.623248,0 1.125,0.501748 1.125,1.125 v 17.2499 c 0,0.623248 -0.501749,1.125 -1.125,1.125 h -30 c -0.623248,0 -1.125,-0.501748 -1.125,-1.125 v -17.2499 c 0,-0.623248 0.501748,-1.125 1.125,-1.125 z "/>
<path style="fill:#8c8c8c" d="m 10.875,13.3942 c 0,0.828425 -0.67157,1.5 -1.5,1.5 -0.828425,0 -1.5,-0.671571 -1.5,-1.5 0,-0.828425 0.67157,-1.5 1.5,-1.5 0.828425,0 1.5,0.67157 1.5,1.5 z"/>
<path style="fill:#fff" d="m 10.875,13.7692 c 0,0.828425 -0.67157,1.5 -1.5,1.5 -0.828425,0 -1.5,-0.67157 -1.5,-1.5 0,-0.828425 0.67157,-1.5 1.5,-1.5 0.828425,0 1.5,0.67157 1.5,1.5 z"/>
<path style="fill:none;stroke:url(#linearGradient4433);stroke-width:1.088" d="m 32.2574,17.7201 c 0,0 -3.67789,-0.710547 -3.04126,-3.70272 0.774677,-3.64099 8.44491,-0.131195 8.44491,-2.69495 0,-4.11779 -17.3189,0.120143 -17.7603,-2.69495 -0.336358,-2.14497 4.36806,-1.7917 6.70366,-2.84468 4.09493,-1.84615 -0.900222,-1.66817 -1.17936,-4.06186"/>
<g style="color:#000">
<g style="stroke-linejoin:round">
<path style="fill:#a0a0a0;stroke:#a0a0a0;stroke-linecap:round;stroke-width:1.399" d="m 30.5333,18.0749 c 7.19653,-0.01018 -4.48349,-0.01018 2.82399,0 7.30747,0.01018 9.73339,6.93588 9.93625,11.1356 0.202852,4.19972 -3.98289,7.09 -8.36923,7.09 h -5.84848 c -4.38636,0 -8.57356,-2.92967 -8.36922,-7.10971 0.20429,-4.18002 2.63021,-11.1057 9.82677,-11.1159 z"/>
<path style="fill:url(#linearGradient3101-2);stroke:#888a85;stroke-linecap:square;stroke-width:.729" d="m 30.9073,18.7743 h 2.18709 v -1.09351 c 0,-0.652375 -2.18706,-0.652375 -2.18706,0 v 1.09353 z"/>
</g>
<g style="fill:none">
<g style="stroke-linejoin:round;stroke:#fff">
<path style="stroke-linecap:round;stroke-width:1.5" d="m 30.6479,19.4065 c -3.09831,0.0045 -5.05997,1.47136 -6.36325,3.42129 -1.30328,1.94992 -1.98796,4.42302 -2.07572,6.24755 -0.08125,1.689 0.684177,3.09957 1.98851,4.16504 1.30434,1.06546 3.24858,1.72127 5.11815,1.72127 h 5.369 c 1.87165,0 3.81486,-0.606482 5.11815,-1.66432 1.30329,-1.05784 2.06931,-2.42964 1.98851,-4.12934 -0.0872,-1.83414 -0.781356,-4.38816 -2.0956,-6.34021 -1.31424,-1.95204 -3.29054,-3.41681 -6.4428,-3.42129 -0.141355,0 -0.172059,0 -0.298277,0 -0.244022,0 -0.385646,0 -0.576669,0 -0.296168,0 -0.830142,-0.0011 -1.45162,0 -0.119188,0 -0.145477,0 -0.278393,0 z"/>
<path style="stroke-linecap:square;stroke-width:1.399" d="m 34.4498,19.6592 c 0.09543,1.3023 -0.589213,1.85727 -1.38514,2.05037 v 5.38564"/>
</g>
<path style="stroke:#747672;stroke-linecap:round;stroke-width:.729" d="m 29.9597,18.2749 h 4.00539"/>
</g>
</g>
<path style="fill:#729fcf;fill-rule:evenodd" d="m 33.4588,18.8243 a 1.45805,1.63269 0 0 1 -2.91608,0 1.45805,1.63269 0 1 1 2.91608,0 z"/>
<path style="fill:none;stroke:#fff;stroke-linejoin:round;stroke-linecap:square;color:#000;stroke-width:1.399" d="m 29.573,19.6592 c -0.09543,1.3023 0.589213,1.85727 1.38514,2.05037 v 5.38564"/>
</svg>
