<svg width="48" version="1.1" xmlns="http://www.w3.org/2000/svg" height="48" viewBox="0 0 48 48" xmlns:xlink="http://www.w3.org/1999/xlink">
<defs id="defs12">
<linearGradient id="linearGradient2888-4-3">
<stop offset="0.0000000" style="stop-color:#fff" id="stop2889-50"/>
<stop offset="1" style="stop-color:#b4b4b4" id="stop2894-1"/>
</linearGradient>
<linearGradient id="linearGradient8650">
<stop offset="0" style="stop-color:#154c95" id="stop8652"/>
<stop offset="1" style="stop-color:#07d6e9" id="stop8656"/>
</linearGradient>
<linearGradient gradientTransform="matrix(3.3923137,0,0,3.2909904,98.925809,-102.30844)" id="linearGradient3808" xlink:href="#linearGradient2888-4-3" y1="34.121754" y2="41.695" x1="-26.252876" x2="-21.25" gradientUnits="userSpaceOnUse"/>
<linearGradient gradientTransform="translate(0.4,0.4)" xlink:href="#linearGradient8650" id="linearGradient876" y1="46.435871" x1="31.316032" y2="-4.5783005" gradientUnits="userSpaceOnUse" x2="21.308712"/>
<radialGradient fx="18.526628" fy="5.2164474" cx="18.526628" cy="5.2164474" gradientTransform="matrix(0.33318316,2.8268739,-5.1619902,0.60840644,39.577029,-51.936909)" xlink:href="#linearGradient8650" id="radialGradient946" r="23" gradientUnits="userSpaceOnUse"/>
</defs>
<g style="fill-rule:evenodd;paint-order:normal">
<path style="fill:url(#linearGradient876)" id="path874" d="m 47.4,24.4 a 23,23 0 0 1 -23,23 23,23 0 0 1 -23,-23 23,23 0 0 1 23,-23 23,23 0 0 1 23,23 z"/>
<path style="fill:url(#radialGradient946)" id="path832" d="m 47,23.6 a 23,23 0 0 1 -23,23 23,23 0 0 1 -23,-23 23,23 0 0 1 23,-23 23,23 0 0 1 23,23 z"/>
</g>
<g style="fill:#fff" id="g7" transform="translate(0,-0.4)">
<path id="path825" d="m 22.3027,18.8575 c -0.916995,-0.864255 -1.56152,-2.01269 -1.82812,-3.24316 -0.266601,-1.2334 -0.149414,-2.54297 0.328125,-3.71192 0.477539,-1.16602 1.31543,-2.17969 2.36719,-2.87109 1.05469,-0.694336 2.32031,-1.05762 3.58008,-1.03125 1.18945,0.023437 2.37012,0.395508 3.36035,1.05469 0.987307,0.65918 1.78418,1.60547 2.26465,2.69531 l 10.125,2.25 h -12.1817 c -0.679687,-1.11914 -1.8457,-1.93066 -3.13183,-2.17383 -0.884767,-0.169922 -1.81641,-0.07617 -2.64844,0.263672 -0.832035,0.339844 -1.56445,0.925785 -2.07715,1.66406 -0.512696,0.741211 -0.808591,1.62891 -0.834961,2.52832 -0.02929,0.899415 0.210938,1.80762 0.676758,2.57519"/>
<path id="path827" d="M 23.375,22.625 8.75,10.25 c -1.44141,1.48828 -2.26758,3.55371 -2.25,5.625 0.017578,2.10058 0.905272,4.18067 2.40821,5.64844 1.50293,1.46777 3.60352,2.30567 5.7041,2.27637 -1.15429,-0.158202 -2.25,-0.723633 -3.04981,-1.57325 -0.799807,-0.846682 -1.29785,-1.97461 -1.38867,-3.13477 -0.08496,-1.125 0.210937,-2.27344 0.82617,-3.2168 l 12.375,6.75"/>
<path id="path829" d="M 22.25,26 7.625,21.5 c -0.389648,1.48829 -0.269531,3.10254 0.333984,4.51758 0.606446,1.41211 1.69336,2.61328 3.04102,3.35742 1.02832,0.568359 2.20019,0.87012 3.375,0.87012 1.17481,0 2.34668,-0.301758 3.375,-0.87012 -0.94629,0.08496 -1.91016,-0.07031 -2.78027,-0.451172 -0.87012,-0.37793 -1.64356,-0.981442 -2.22363,-1.73144 -0.667969,-0.867188 -1.08106,-1.93067 -1.16602,-3.0205 l 10.6699,1.8281"/>
<path id="path831" d="m 29.0439,17.75 c -0.626954,0.741211 -1.03711,1.66406 -1.16894,2.625 -0.123046,0.908205 0,1.83692 0.240234,2.72168 0.240235,0.881836 0.597658,1.73144 0.949223,2.57812 0.351562,0.846683 0.700195,1.69629 0.92871,2.58398 0.225586,0.887692 0.328125,1.82227 0.175781,2.72461 -0.254883,1.51172 -1.21875,2.85644 -2.47558,3.73242 -1.25683,0.875978 -2.78906,1.30957 -4.31836,1.40918 -1.93067,0.125977 -3.89062,-0.266602 -5.625,-1.125 l .0439,9 2.25,-4.4766 c 2.97363,0.87012 6.29883,0.442383 8.95605,-1.14844 1.3418,-0.802732 2.51954,-1.8955 3.33984,-3.22559 0.823245,-1.33008 1.27734,-2.89746 1.2041,-4.45606 -0.105468,-2.22363 -1.23925,-4.25098 -2.32325,-6.19336 -1.08692,-1.94238 -2.17969,-4.00195 -2.19433,-6.22852 0,-0.172851 0.0058,-0.348632 0.01758,-0.521484"/>
</g>
<path style="opacity:.35;fill:url(#linearGradient3808);fill-rule:evenodd;stroke-width:2.25" id="path833" d="M 36.6249,5.8954 C 29.36179,0.07101 17.6026,1.0736 10.7256,6.294128 3.71439,11.616448 0.65,22.120228 3.34351,29.426328 20.69462,25.820105 18.261025,9.1615878 36.6249,5.8954 Z"/>
</svg>
