<svg width="48" version="1.1" xmlns="http://www.w3.org/2000/svg" height="48">
<g style="stroke:none;fill-rule:evenodd" id="g3801" transform="matrix(1.3992395,0,0,1.3992395,86.356269,-15.259022)">
<path style="fill:#cb3300" id="path3012" d="m -39.0956,19.5105 2.5,6.5625 -3.6875,5.125 3.1562,1 2.1562,-3.125 .9688,3.6875 4.3125,.3438 -2.3125,-6.6562 3.875,-4.7812 -3.9688,-.875 -1.625,2.5 -1.1562,-3.0625 -4.2188,-.7188 z "/>
<path style="fill:#007fff" id="path3010" d="m -57.2831,21.4793 -.0938,.125 -3.625,1.7188 4.7812,11.0312 7.6562,-3.7812 -1.5625,-3.2188 -3.7188,1.875 -3.4375,-7.75 z "/>
<path style="fill:#e6ae00" id="path3001" d="m -50.8769,22.5418 3.625,7.9062 -.7812,5.4375 4.5,.7188 1.0938,-6.0625 4.4375,-6.3125 -3.7188,-.5312 -2.4062,3.3125 -1.9688,-3.8125 -4.7812,-.6562 z "/>
</g>
</svg>
