<svg width="96" version="1.0" xmlns="http://www.w3.org/2000/svg" height="96" xmlns:xlink="http://www.w3.org/1999/xlink">
<defs>
<linearGradient gradientTransform="matrix(1,0,0,1.0430754,0,-2.0676192)" xlink:href="#linearGradient4210" id="linearGradient4216" y1="21.588812" x1="59.099167" y2="73.656609" x2="33.544987" gradientUnits="userSpaceOnUse"/>
<linearGradient id="linearGradient4210">
<stop offset="0" style="stop-color:#fff"/>
<stop offset="1" style="stop-color:#fff;stop-opacity:.275"/>
</linearGradient>
</defs>
<path style="fill:#3080ca" d="m 91,48 a 43,42.8693 0 1,1 -86,0 43,42.8693 0 1,1 86,0 Z "/>
<path style="opacity:.7;fill:url(#linearGradient4216)" d="m 50.7686,8.3107 c -0.501806,-0.020341 -0.967034,-0.00605 -1.29635,0.075116 h -6.98593 c -1.90801,0.264935 -3.80367,0.607931 -5.61754,1.12682 0.697003,2.20832 -0.05063,4.91476 2.01656,4.88294 1.18987,1.75448 -2.35539,0.525821 0.21606,1.87805 1.47872,1.21459 -1.5432,1.91491 0.288078,3.00488 -2.11061,1.13586 0.304855,5.934 1.87251,7.1366 2.58017,2.26541 1.15411,-4.81607 4.03311,-5.18343 1.5644,-1.86266 4.31443,-3.00916 6.26572,-4.88294 -1.90699,-0.161468 -3.03036,-1.41169 -1.22433,-2.17855 3.32391,3.55232 0.831698,-1.72532 -1.00828,-2.55414 1.7804,-0.590667 3.55995,-0.120458 3.31291,-1.65269 1.41112,-1.07671 -0.367091,-1.59195 -1.87251,-1.65268 z  m -22.3261,4.6577 c -1.52832,0.843538 -2.99319,1.82894 -4.39319,2.85465 2.28168,0.461309 3.58538,-0.612861 4.53724,1.95317 2.68544,1.61416 0,4.37784 -1.00828,5.1083 1.81573,-1.64922 5.30816,4.51737 4.3932,1.27708 -1.09158,-0.831247 2.87912,1.34934 0.792218,-1.3522 -1.92052,-3.22708 0.198582,-1.42927 1.00828,-0.676096 2.7539,-2.57549 -3.1217,-2.90854 -1.65645,-5.55904 -0.962985,-0.813448 -2.18,-2.90187 -3.67301,-3.60585 z  m 43.5719,2.6293 c -2.85604,1.49846 -4.23486,4.80073 -5.90562,7.58733 -2.8609,1.34527 -2.76405,7.10374 0.43212,5.25853 0.855446,1.55821 -0.61918,4.06573 1.87251,2.02829 2.00979,-2.77386 0.396887,-7.26556 3.81704,-9.01463 0.249125,1.36001 -3.18449,6.39374 0.792219,5.55904 3.595,0.141498 -2.61274,0.38452 -0.86424,2.77951 -1.81664,-1.12413 -0.869637,3.07947 -3.24089,2.10342 -2.05429,1.16541 -3.42341,-0.534459 -2.95281,-2.40391 -1.61604,0.983253 0.500709,3.73964 -2.30464,3.90634 -0.628412,2.32734 -5.74754,1.98723 -2.80876,4.35707 1.30474,3.52669 -4.91946,0.2 -3.16886,4.43221 1.49772,4.18496 4.63217,-1.40257 5.90562,-2.47904 2.30343,-1.86348 5.66194,2.7826 4.24916,3.53075 2.0306,-0.539386 1.51545,-2.78207 -0.360098,-3.68098 -1.07282,-2.90185 3.41672,1.47485 3.16886,2.92975 1.57676,3.07936 0.916169,-3.2099 2.52069,-0.45073 -0.18732,2.91049 6.48399,0.722794 3.31291,4.43221 -2.72642,0.572723 -5.43089,-0.761241 -7.77813,0.07511 -2.18467,-0.02034 -2.08541,-2.47038 -2.88079,-3.08 -2.77892,0.235465 -6.20583,0.212786 -8.06621,2.55414 -2.01178,2.87874 -4.92946,6.91642 -2.73676,10.5922 2.19425,5.44709 7.67506,0.313808 10.803,3.53075 0.929718,1.34131 -0.854481,2.90418 1.22433,4.35707 0.782239,3.09491 -0.840887,6.05609 1.0803,9.01463 0.993445,2.78236 1.55992,6.89956 5.25744,4.35707 3.91333,-2.4561 2.89268,-6.95758 6.12167,-9.46538 -2.55498,-5.15701 3.1199,-7.38225 4.53725,-11.5687 -3.09663,0.472809 -5.80563,-2.76883 -6.5538,-6.00975 -1.30086,-1.5742 -1.02099,-3.93383 0.432117,-0.976591 1.99729,2.01846 2.06693,8.03917 5.76157,4.95805 1.68908,-0.736827 6.26815,-3.52871 2.59272,-4.80782 -2.36917,1.78967 -4.99143,-5.3417 -1.51242,-1.20196 2.0112,0.889911 3.56201,1.4303 4.10512,-0.225364 0,-10.0726 -3.70531,-19.2696 -9.79469,-26.3679 -0.565544,0.594702 -1.663,-0.06635 -1.0803,1.20196 -1.43795,-1.06381 -2.64076,-4.32889 0,-2.47904 -1.82122,-1.95774 -3.80361,-3.76403 -5.97765,-5.33366 z  m -34.0653,.3756 c -1.43494,1.24696 2.72803,1.48178 0,0 z  m -13.3236,.676 c -0.138349,1.48239 -1.98312,4.52548 -1.72848,0.82634 -0.523371,0.647173 -0.836414,0.506799 -1.08029,0.07514 -7.49126,6.3245 -12.5802,15.2941 -13.9718,25.4664 0.39941,0.954519 1.01004,1.76346 2.08858,2.32878 0.625971,1.21096 3.26383,6.35144 3.38493,4.80782 -1.31684,-1.43823 -2.66032,-5.72105 -0.43212,-1.87805 1.99581,3.65304 4.63744,6.04191 8.57036,6.91123 2.15024,0.762816 3.94266,3.35646 5.8336,2.77952 1.06926,2.93977 -3.16698,5.74685 0.14405,8.48879 1.72852,2.77581 4.59597,4.59174 3.02483,8.48879 -0.907791,3.14462 -0.700556,6.53665 -1.15232,9.61562 1.02004,0.531504 2.02834,1.05682 3.09684,1.50244 0.404885,-1.84877 0.909906,-3.57683 2.23261,-4.88294 2.99173,0.02469 0.559321,-3.37128 3.52896,-2.92975 1.8121,-2.47721 2.34342,-5.40173 5.40147,-6.38537 0.365288,-3.00695 5.09149,-7.61856 0.21606,-8.78928 -1.32508,-0.681157 -4.79799,-0.940976 -4.53724,-1.27708 0.528249,-2.98369 -4.37992,-3.81245 -6.48177,-5.03317 -2.75966,-2.04298 -6.87788,3.33245 -7.85016,-1.35219 -0.580137,-1.47395 -2.70332,-1.48174 -1.72847,-3.7561 -1.75686,1.82236 -5.22084,1.26566 -4.32119,-2.25365 1.36627,-2.96396 6.59598,-3.11437 7.49005,0.450728 -1.24137,-3.93188 2.44405,-6.96856 4.46522,-9.76586 0.411545,-1.33704 2.85802,-2.45308 2.01656,-0.676097 1.43361,-0.05394 3.55499,-2.74778 1.00828,-1.50245 -0.03605,-2.46064 -2.24097,-1.77671 -2.95281,-1.42732 1.31935,-2.18394 8.0948,-1.01266 5.25744,-4.58243 -2.19859,-0.929105 -1.95334,-6.32588 -4.17714,-3.30537 0.187134,-1.86107 -4.56808,-5.52471 -4.46522,-2.4039 0.575338,2.79254 0.144088,5.98221 -1.0803,7.81269 -0.255502,-4.09199 -6.982,-3.15173 -6.12167,-7.51221 1.24638,-2.07821 2.74203,-4.99122 2.88079,-4.73268 2.2337,-0.889451 4.02923,-3.40747 1.44039,-5.10831 z  m 3.457,1.7279 c -1.21536,2.07648 1.79578,0.766627 0,0 z  m 26.5752,2.4039 c -1.42289,1.70848 -3.28229,-0.416768 -3.31291,1.05171 0.257875,0.443708 1.26608,3.61408 3.52897,1.27707 1.21449,-0.534027 0.742378,-1.91663 -0.216062,-2.32878 z  m -30.2484,1.0517 c -2.69885,2.45816 4.51584,2.70321 0.504136,0.300487 l -.5041,-.3005 z  m 35.5058,6.9112 c -1.74212,1.34907 0.957081,4.03888 0,5.33366 -1.21756,2.21249 4.57935,-0.187952 1.51241,-1.95317 -0.191196,-1.32702 -1.46286,-2.89956 -1.51241,-3.38049 z  m -1.2243,2.5541 c -2.70727,0.798271 -0.67079,4.93346 0.288078,1.05171 0.0539,-0.225052 0.183216,-1.05923 -0.288078,-1.05171 z  m -21.678,3.0049 c -2.51859,1.79114 -0.405421,3.58543 1.4404,2.77952 -0.378943,-1.08069 -1.42332,-1.76802 -1.4404,-2.77952 z  m 41.1233,3.0049 c -0.170504,1.75322 3.58907,4.49518 -0.50414,3.60585 -2.16467,0.264836 -5.39177,-0.0415 -2.66473,-2.85465 0.861697,-0.539528 3.12188,1.79347 1.94453,-0.450734 0.417404,-0.02776 0.831135,-0.16841 1.22434,-0.300488 z  m 6.4099,0 c 1.25668,0.661452 -2.25402,1.76563 0,2.92975 1.31169,1.60878 0.763658,5.07345 -1.36838,2.62927 0.396104,-2.72892 -2.88547,-4.7524 1.36838,-5.55904 z  m -18.9413,3.8311 c -1.57888,1.06088 1.09178,1.87436 0,0 z  m -39.6829,9.8411 c -0.26618,0.926161 4.99787,1.85944 1.36838,0.375609 l -.5041,-.1503 -.8643,-.2253 z  m 4.1051,1.3522 c -1.59537,1.68917 3.28696,0.504659 0,0 z  m 53.3666,15.4751 c -1.98026,0.0533 -2.66407,3.06688 -2.44866,4.65756 0.921835,-1.25469 1.81767,-2.54802 2.59271,-3.90634 -0.0075,-0.26606 -0.02773,-0.51727 -0.14405,-0.751223 z "/>
</svg>
