<svg width="48" version="1.1" xmlns="http://www.w3.org/2000/svg" height="48">
<rect width="46" x="1" y="1" rx="3.1416605" height="46" style="fill:#3080ca"/>
<path style="fill:#664a23" d="m 6.3603,4.482 c -1.85389,0.027772 -2.34124,0.515123 -2.34221,2.44211 -0.00438,8.6479 0,16.0937 0,24.7819 l 2.7539,1.9881 c 5.39428,3.66582 9.4942,5.09086 14.218,4.8099 6.97782,-0.41504 12.6121,-5.37814 12.6169,-11.6079 0.0036,-4.60261 -3.2569,-8.78608 -6.82079,-8.78608 -3.10225,0 -5.77263,1.75324 -5.57192,4.10445 0.110445,1.29366 0.924154,1.64508 2.17753,0.929914 1.30053,-0.742106 2.72163,-0.648324 3.71214,0.365646 0.697552,0.714075 0.899093,1.28903 0.899103,2.58443 0,3.41693 -2.61656,6.04595 -6.4045,6.02841 -5.46852,-0.02531 -9.60031,-5.17519 -9.57473,-11.4155 0.02027,-4.9427 1.73864,-8.65838 6.4045,-13.2753 1.36804,-1.35371 2.04634,-2.64772 2.02892,-2.96343 l -.0246,-.4462 -14.0726,.4596 0,-0 z  m 22.3795,5.9643 c -0.574828,-0.01979 -1.13874,-0.0031 -1.72921,0.03207 -6.97781,0.41503 -12.6121,5.37813 -12.6169,11.6079 -0.0036,4.60261 3.2569,8.78609 6.82079,8.78609 3.10224,0 5.77264,-1.75324 5.57192,-4.10445 -0.110443,-1.29366 -0.93392,-1.66191 -2.17753,-0.929914 -1.42226,0.837156 -2.49725,0.826309 -3.51397,-0.144794 -0.80771,-0.771473 -1.09727,-1.50989 -1.09727,-2.80528 0,-3.41693 2.61659,-6.04596 6.4045,-6.02841 5.46853,0.02531 9.60032,5.1752 9.57473,11.4155 -0.02026,4.94269 -1.73865,8.65841 -6.4045,13.2753 l -2,2.4205 .0146,.5296 c 0.455057,0 11.0348,0.04157 13.9562,0 1.95136,-0.02777 2.43871,-0.515119 2.43933,-2.44211 0.0028,-8.64789 0,-16.0937 0,-24.7819 l -2.7539,-1.9881 c -4.71995,-3.20761 -8.46497,-4.70342 -12.4888,-4.84198 z "/>
<path style="fill:#ffb955" d="m 6.3603,3.9816 c -1.85389,0.027772 -2.34124,0.515123 -2.34221,2.44211 -0.00438,8.6479 0,16.0937 0,24.7819 l 2.7539,1.9881 c 5.39428,3.66582 9.4942,5.09086 14.218,4.8099 6.97782,-0.41504 12.6121,-5.37814 12.6169,-11.6079 0.0036,-4.60261 -3.2569,-8.78608 -6.82079,-8.78608 -3.10225,0 -5.77263,1.75324 -5.57192,4.10445 0.110445,1.29366 0.924154,1.64508 2.17753,0.929914 1.30053,-0.742106 2.72163,-0.648324 3.71214,0.365646 0.697552,0.714075 0.899093,1.28903 0.899103,2.58443 0,3.41693 -2.61656,6.04595 -6.4045,6.02841 -5.46852,-0.02531 -9.60031,-5.17519 -9.57473,-11.4155 0.02027,-4.9427 1.73864,-8.65838 6.4045,-13.2753 1.36804,-1.35371 2.13284,-2.71103 1.9854,-2.95007 h -14.0537 Z  m 22.3795,5.9643 c -0.574828,-0.01979 -1.13874,-0.0031 -1.72921,0.03207 -6.97781,0.41503 -12.6121,5.37813 -12.6169,11.6079 -0.0036,4.60261 3.2569,8.78609 6.82079,8.78609 3.10224,0 5.77264,-1.75324 5.57192,-4.10445 -0.110443,-1.29366 -0.93392,-1.66191 -2.17753,-0.929914 -1.42226,0.837156 -2.49725,0.826309 -3.51397,-0.144794 -0.80771,-0.771473 -1.09727,-1.50989 -1.09727,-2.80528 0,-3.41693 2.61659,-6.04596 6.4045,-6.02841 5.46853,0.02531 9.60032,5.1752 9.57473,11.4155 -0.02026,4.94269 -1.73865,8.65841 -6.4045,13.2753 -1.36805,1.35371 -2.13285,2.71105 -1.98539,2.95007 0.455057,0 11.0348,0.04157 13.9562,0 1.95136,-0.02777 2.43871,-0.515119 2.43933,-2.44211 0.0028,-8.64789 0,-16.0937 0,-24.7819 l -2.7539,-1.9881 c -4.71995,-3.20761 -8.46497,-4.70342 -12.4888,-4.84198 Z "/>
</svg>
