<svg width="48" version="1.1" xmlns="http://www.w3.org/2000/svg" height="48">
<defs id="defs2280"/>
<g id="layer1">
<rect width="46" x="1" y="1" rx="3.1416605" height="46" ry="3.1416605" style="fill:#3080ca;stroke:none" id="rect3849"/>
<path style="fill:#ffb955" id="path2454" d="m 6.3603,3.9816 c -1.85389,0.0277715 -2.34124,0.515123 -2.34221,2.44211 -0.0043753,8.6479 0.0003611,16.0937 0.0003507,24.7819 l 2.7539,1.9881 c 5.39428,3.66582 9.4942,5.09086 14.218,4.8099 6.97782,-0.41504 12.6121,-5.37814 12.6169,-11.6079 0.0036,-4.60261 -3.2569,-8.78608 -6.82079,-8.78608 -3.10225,0 -5.77263,1.75324 -5.57192,4.10445 0.110445,1.29366 0.924154,1.64508 2.17753,0.929914 1.30053,-0.742106 2.37734,-0.719388 3.5545,0.352726 0.825781,0.752109 1.05673,1.30195 1.05674,2.59735 0,3.41693 -2.61656,6.04595 -6.4045,6.02841 -5.46852,-0.02531 -9.60031,-5.17519 -9.57473,-11.4155 0.02027,-4.9427 1.73864,-8.65838 6.4045,-13.2753 1.36804,-1.35371 2.13284,-2.71103 1.9854,-2.95007 -0.543256,0 -11.1462,0 -14.0537,0 z  m 22.3795,5.9643 c -0.574828,-0.01979 -1.13874,-0.0031 -1.72921,0.03207 -6.97781,0.41503 -12.6121,5.37813 -12.6169,11.6079 -0.0036,4.60261 3.2569,8.78609 6.82079,8.78609 3.10224,0 5.77264,-1.75324 5.57192,-4.10445 -0.110443,-1.29366 -0.924164,-1.64508 -2.17753,-0.929914 -1.30054,0.742105 -2.37735,0.719408 -3.5545,-0.352726 -0.825781,-0.752099 -1.05674,-1.30196 -1.05674,-2.59735 0,-3.41693 2.61659,-6.04596 6.4045,-6.02841 5.46853,0.02531 9.60032,5.1752 9.57473,11.4155 -0.02026,4.94269 -1.73865,8.65841 -6.4045,13.2753 -1.36805,1.35371 -2.13285,2.71105 -1.98539,2.95007 0.455057,1.1e-05 11.0348,0.04157 13.9562,0 1.95136,-0.02777 2.43871,-0.515119 2.43933,-2.44211 0.0028,-8.64789 1.1e-05,-16.0937 0,-24.7819 l -2.7539,-1.9881 c -4.71998,-3.2076 -8.465,-4.70341 -12.4888,-4.84197 z "/>
</g>
</svg>
