<svg width="48" version="1.1" xmlns="http://www.w3.org/2000/svg" height="48" viewBox="0 0 48 48" xmlns:xlink="http://www.w3.org/1999/xlink">
<defs id="defs2">
<linearGradient id="linearGradient937">
<stop offset="0" style="stop-color:#e6e6e6" id="stop933"/>
<stop offset="1" style="stop-color:#969696" id="stop935"/>
</linearGradient>
<linearGradient id="linearGradient927">
<stop offset="0" style="stop-color:#bce0b6" id="stop923"/>
<stop offset="0.5" style="stop-color:#acc8a9" id="stop931"/>
<stop offset="1" style="stop-color:#3b6038" id="stop925"/>
</linearGradient>
<radialGradient fx="-63.732761" fy="265.94894" cx="-63.732761" cy="265.94894" gradientTransform="matrix(1.0819045,-0.14838864,0.11252213,0.8465889,54.713045,-204.56378)" xlink:href="#linearGradient927" id="radialGradient929" r="5.6932664" gradientUnits="userSpaceOnUse"/>
<radialGradient fx="24.370659" fy="257.29053" cx="24.370659" cy="257.29053" gradientTransform="matrix(-1.4492482,-0.00699768,0.00859022,-1.7790709,56.815234,461.99184)" xlink:href="#linearGradient937" id="radialGradient939" r="24" gradientUnits="userSpaceOnUse"/>
</defs>
<g style="fill-rule:evenodd;stroke-width:1.045">
<circle cx="24" cy="24" style="fill:url(#radialGradient939)" id="path838" r="23"/>
<ellipse cx="20.136421" cy="30.263842" rx="11.213988" ry="6.857399" style="fill:#fff" id="path833" transform="matrix(0.97657748,-0.21516604,0.21507021,0.97659859,0,0)"/>
<ellipse cx="15.685429" cy="30.042858" rx="5.5640931" ry="4.3784666" style="fill:url(#radialGradient929)" id="path871" transform="matrix(0.94603165,-0.32407425,0.31279673,0.94982009,0,0)"/>
<path id="path922" d="m 38.1501,6.4523 c -0.01311,0 -0.0089,0.017787 0.01772,0.047254 0.05354,0.059067 0,0.214232 -0.116397,0.344611 -0.117992,0.13038 -0.185386,0.236849 -0.149811,0.236845 0.211358,0 0.498547,-0.499036 0.339909,-0.590676 -0.04681,-0.026965 -0.07838,-0.0396 -0.09159,-0.038034 z  m .7877,.0772 c -0.03118,0.017043 -0.08607,0.05833 -0.167067,0.130238 -0.18039,0.160207 -0.390153,0.292171 -0.466097,0.292171 -0.07597,0 -0.301252,0.217623 -0.5,0.484643 -0.639365,0.858536 -2.14823,2.23305 -2.45146,2.23305 -0.174128,0 0.340367,-0.505035 0.597455,-0.586644 0.131528,-0.041818 0.225496,-0.132431 0.209055,-0.201118 -0.0163,-0.068687 0.377423,-0.499571 0.875728,-0.957759 0.498306,-0.458203 0.847811,-0.835087 0.776629,-0.837322 -0.07118,0 -0.553918,0.373897 -1.07334,0.836167 -0.519424,0.462256 -0.974083,0.841355 -1.00997,0.841355 -0.163949,0 0.642823,-0.890433 1.2024,-1.32658 1.07527,-0.838066 1.14485,-0.896237 0.946017,-0.797556 -0.10676,0.053004 -0.43819,0.261454 -0.736302,0.463319 -0.641665,0.434491 -0.862771,0.278153 -0.289205,-0.204576 0.219224,-0.184489 0.346216,-0.335966 0.282897,-0.335966 -0.191125,0 -0.821682,0.723111 -0.719592,0.825222 0.05223,0.052274 0.0085,0.061887 -0.09737,0.021331 -0.179752,-0.069 -1.40194,1.01883 -1.41269,1.25742 0,0.053422 -0.03956,0.091035 -0.08181,0.084136 -0.04225,-0.00627 -0.245937,0.149786 -0.45288,0.34807 -0.206869,0.198269 -0.376183,0.313827 -0.376183,0.257017 0,-0.056874 -0.11149,0.034689 -0.247737,0.202847 -0.136244,0.168098 -0.282533,0.271028 -0.324942,0.228781 -0.107706,-0.107411 0.54996,-0.794087 0.68232,-0.712268 0.05938,0.036694 0.237968,-0.164126 0.396382,-0.446035 0.158408,-0.281927 0.351879,-0.51288 0.430374,-0.51288 0.07848,0 0.105077,-0.03719 0.05934,-0.082984 -0.04574,-0.045687 -0.167878,-0.01265 -0.27136,0.073183 -0.103476,0.085833 -0.375818,0.179525 -0.60552,0.208609 -0.47921,0.060637 -1.35355,0.62562 -1.6368,1.05803 -0.105956,0.161741 -0.237345,0.26702 -0.292677,0.232813 -0.05531,-0.034193 -0.180645,0.038661 -0.2777,0.162507 -0.159675,0.203719 -0.154846,0.207974 0.05013,0.047254 0.12458,-0.097749 0.226421,-0.125635 0.226421,-0.062812 0,0.062727 -0.104049,0.179061 -0.231604,0.258747 -0.444328,0.277512 -0.342737,-0.463209 0.133607,-0.973329 l .4211,-.4511 -.518,.4011 c -0.284747,0.220727 -0.778351,0.674249 -1.09869,1.0079 -0.584157,0.60841 -1.52837,1.29557 -1.6345,1.18942 -0.03118,-0.03115 0.424984,-0.51357 1.01458,-1.07186 1.17927,-1.11668 0.790133,-0.911502 -0.545602,0.28756 l -.8415,.7551 .6445,-.7661 c 0.35433,-0.421441 0.552688,-0.712091 0.440167,-0.645998 -0.464531,0.27282 -1.65583,1.43939 -1.80504,1.768 -0.08829,0.194436 -0.268392,0.387801 -0.400989,0.429899 -0.132605,0.04203 -0.210721,0.126549 -0.172839,0.187862 0.03789,0.06137 -0.103057,0.21363 -0.313994,0.338269 -0.210944,0.12464 -0.357548,0.26915 -0.32552,0.320981 0.03203,0.05186 -0.341309,0.434853 -0.830211,0.850575 -0.488905,0.415736 -0.958089,0.860594 -1.04223,0.989457 -0.140474,0.215114 -0.128796,0.220656 0.144035,0.06916 0.163428,-0.09074 0.34604,-0.166277 0.406177,-0.168846 0.06014,0 0.23547,-0.156979 0.388892,-0.343456 0.477028,-0.579777 1.26416,-1.21353 1.16667,-0.938746 -0.0471,0.132775 -0.184174,0.35781 -0.305351,0.500201 -0.499496,0.587119 -0.380636,0.587768 0.465516,0 0.491014,-0.340044 1.31775,-1.02568 1.83614,-1.52424 0.518393,-0.498568 0.978484,-0.87054 1.02322,-0.825795 0.109304,0.109325 -0.322877,0.575362 -0.621652,0.670202 -0.131538,0.04182 -0.226073,0.119562 -0.20971,0.172304 0.01633,0.05279 -0.190414,0.28952 -0.459758,0.526712 -0.269341,0.237193 -0.459096,0.461675 -0.421732,0.499054 0.03737,0.03743 0,0.14648 -0.07662,0.242032 -0.07928,0.09556 -0.09882,0.173459 -0.04379,0.173459 0.09612,0 0.525969,-0.360496 2.06949,-1.73573 0.740849,-0.660069 1.03315,-0.746724 0.581896,-0.172882 -0.379187,0.482173 -0.31923,0.556877 0.137697,0.172304 0.850925,-0.71618 0.605111,-0.285438 -0.356053,0.623526 -0.557082,0.526837 -0.975306,0.99635 -0.929306,1.04363 0.046,0.04725 0.474175,-0.279755 0.9512,-0.726102 0.477025,-0.446336 0.947597,-0.822926 1.04521,-0.837322 0.201352,-0.02952 0.923892,-0.568201 0.762225,-0.568201 -0.05738,0 -0.211025,0.09671 -0.341649,0.214947 -0.130617,0.11823 -0.267814,0.185078 -0.304774,0.1481 -0.03697,-0.03701 0.24035,-0.3 0.615891,-0.584337 0.8869,-0.671588 1.18162,-0.811219 0.648152,-0.307155 -0.23248,0.21967 -0.388084,0.398777 -0.345678,0.398777 0.0424,0 -0.245565,0.362123 -0.639514,0.804473 -0.393945,0.442367 -0.697358,0.822674 -0.675233,0.844816 0.104279,0.104336 0.435876,-0.15705 0.788729,-0.621219 0.213559,-0.280935 0.766768,-0.743932 1.22947,-1.02807 0.462713,-0.284144 0.790915,-0.517088 0.728812,-0.517492 -0.06211,0 -0.04079,-0.08739 0.04782,-0.194202 0.08862,-0.106813 0.227388,-0.192458 0.307658,-0.190169 0.08027,0 0.04453,0.0814 -0.07893,0.175184 -0.123467,0.09378 -0.186509,0.208191 -0.14,0.254711 0.0465,0.04652 0.205601,-0.01513 0.35375,-0.137151 0.148153,-0.122067 -0.165589,0.226524 -0.697702,0.775662 -0.532119,0.549145 -0.909662,0.998677 -0.838853,0.998677 0.07081,0 0.680783,-0.557135 1.35565,-1.2384 1.10569,-1.11616 2.08022,-1.92846 1.56767,-1.30698 -0.224752,0.27253 -0.0995,0.274564 0.309969,0.00574 0.174862,-0.114594 0.288496,-0.255565 0.252354,-0.314068 -0.03614,-0.05844 -0.005,-0.14378 0.06913,-0.189595 0.07409,-0.04579 0.126,-0.035596 0.115795,0.023067 -0.04525,0.260465 0.02622,0.321055 0.20452,0.172882 0.106015,-0.087924 0.165401,-0.204835 0.13135,-0.259898 -0.03402,-0.055098 0.02835,-0.174915 0.13826,-0.266237 0.164799,-0.136807 0.192862,-0.133462 0.160157,0.017858 -0.02197,0.101094 0.03678,0.167967 0.130217,0.148677 0.159838,-0.032917 -0.398353,0.890235 -0.882067,1.45912 -0.428609,0.504078 -0.436759,0.802375 -0.01028,0.383797 0.215362,-0.211443 0.393396,-0.431104 0.395228,-0.488679 0,-0.0576 0.168732,-0.319783 0.369878,-0.582608 0.201154,-0.262839 0.527804,-0.700491 0.725354,-0.97217 0.197539,-0.271694 0.391578,-0.46063 0.432106,-0.420101 0.04054,0.040564 -0.06296,0.219324 -0.229889,0.397049 -0.377983,0.402438 -0.194882,0.42649 0.241405,0.031677 0.298276,-0.269851 0.29498,-0.25493 -0.04379,0.2 -0.201047,0.27005 -0.604116,0.699715 -0.895893,0.955457 l -.5308,.4649 .5173,-.36 c 0.28474,-0.198386 0.728068,-0.560066 0.985192,-0.803321 0.257137,-0.243248 0.548865,-0.453933 0.648155,-0.46851 0.09928,-0.014528 0.324567,-0.127144 0.5,-0.250101 0.604438,-0.423475 0.573427,-0.222378 -0.06739,0.441422 l -.6417,.6658 .5478,-.2998 c 0.684613,-0.374297 1.16252,-0.751135 1.30493,-1.00732 -0.09223,-0.106983 -0.185244,-0.213403 -0.279425,-0.318678 -0.03295,0.011409 -0.06835,0.027071 -0.108319,0.048405 -0.22709,0.121553 -0.240661,0.108889 -0.120401,-0.115831 0.02622,-0.048717 0.04394,-0.091056 0.05357,-0.130812 -0.143043,-0.147022 -0.288071,-0.292518 -0.434983,-0.43566 -0.01488,0.02374 -0.05269,-0.00361 -0.09737,-0.073765 -0.07696,-0.121252 -0.212138,-0.08072 -0.540989,0.161933 -0.590619,0.435848 -0.643294,0.407491 -0.187228,-0.102575 0.258909,-0.289559 0.22585,-0.270663 -0.103713,0.059354 -0.266952,0.267392 -0.485107,0.452438 -0.485107,0.410882 0,-0.041606 -0.08532,-0.00524 -0.188964,0.080678 -0.103642,0.086042 -0.245197,0.121309 -0.314575,0.078371 -0.06938,-0.04297 -0.162708,-0.01885 -0.207425,0.053593 -0.04472,0.072344 -0.150839,0.129625 -0.23563,0.127354 -0.08479,0 -0.04344,-0.087924 0.09159,-0.190169 0.13507,-0.102246 0.290374,-0.157737 0.345118,-0.123899 0.09769,0.060321 0.993759,-0.919258 1.13499,-1.21766 -0.01984,-0.018496 -0.03954,-0.036921 -0.05935,-0.055322 -0.113669,0.045897 -0.338138,0.181315 -0.598606,0.365932 l -.68,.4812 .4465,-.4695 c 0.245303,-0.258187 0.398186,-0.469084 0.33991,-0.469084 -0.05825,0 -0.02764,-0.101877 0.068,-0.226474 0.01559,-0.020268 0.0248,-0.035493 0.03154,-0.047831 l -.0159,-.0149 v -0.00354 z  m .0652,.6948 c 0.02409,0.00733 -0.0039,0.084047 -0.08181,0.229355 -0.07172,0.134036 -0.232902,0.283418 -0.357778,0.331356 -0.169229,0.065027 -0.147473,0 0.08412,-0.244339 0.207673,-0.221113 0.324567,-0.325906 0.355478,-0.316375 z  m .6665,.8919 c -0.138047,0.26842 -0.355064,0.44804 -0.607174,0.646962 0.138082,-0.269961 0.355071,-0.449405 0.607822,-0.647727 z  m -5.3518,.3019 c 0.100506,0 0.15245,0.048423 0.115802,0.107763 -0.03666,0.059276 -0.08862,0.108337 -0.115802,0.10834 -0.02721,0 -0.07973,-0.04899 -0.116384,-0.10834 -0.03667,-0.059276 0.01587,-0.107763 0.116384,-0.107763 z  m -.3367,.1198 c 0.0052,0 0.0087,0.00457 0.0087,0.00978 0,0.031996 -0.213403,0.221311 -0.47474,0.420675 -0.261333,0.199378 -0.434207,0.296327 -0.384282,0.215525 0.09601,-0.155385 0.766821,-0.657932 0.850394,-0.645998 z  m 2.4959,.1077 c -0.05028,0 -0.126,0.037343 -0.19187,0.10373 -0.126886,0.12786 -0.111863,0.142824 0.0726,0.072609 0.12763,-0.048614 0.199453,-0.120352 0.15959,-0.160204 -0.0099,-0.010453 -0.02374,-0.015626 -0.04032,-0.016122 z  m 4.8154,.2509 c -0.07211,0 -0.213768,0.073208 -0.320315,0.201696 -0.09252,0.111497 -0.334275,0.288439 -0.537534,0.39359 -0.203279,0.10513 -0.334736,0.248141 -0.291507,0.3181 0.07189,0.116327 0.988873,-0.508787 1.16552,-0.794679 0.01701,-0.02739 0.02622,-0.049075 0.02941,-0.066848 l -.0092,-.011 c -0.01205,-0.013606 -0.02445,-0.026752 -0.03628,-0.04034 z  m -6.5906,.1924 -.3883,.4674 c -0.42379,0.509733 -0.950163,0.925327 -0.755316,0.596437 0.05935,-0.100154 0.341512,-0.380583 0.626261,-0.622948 l .5173,-.4408 z  m 4.8292,.0652 c -0.03557,0 -0.170149,0.116355 -0.299019,0.258746 -0.128835,0.142413 -0.205547,0.258746 -0.169973,0.258746 0.03558,0 0.170185,-0.116334 0.29902,-0.258746 0.128764,-0.142873 0.205476,-0.259228 0.169866,-0.259228 z  m -2.1582,.1506 c -0.01559,0 -0.01169,0.014882 0.01488,0.044373 0.03402,0.037428 0.02126,0.10767 -0.01559,0.184408 0.07824,-0.104545 0.120118,-0.174352 0.100807,-0.185559 -0.05021,-0.029161 -0.08479,-0.043533 -0.10024,-0.043221 z  m 0,.2289 c -0.05669,0.075692 -0.131952,0.168924 -0.226417,0.279492 0.08812,-0.06806 0.178228,-0.179472 0.226417,-0.279492 z  m -.2264,.2796 c -0.06881,0.053111 -0.135496,0.079987 -0.179185,0.053015 -0.241866,-0.14951 -2.23925,1.75695 -2.26941,2.1662 -0.0094,0.125851 -0.01173,0.228413 -0.0057,0.227626 0.182377,-0.02278 1.75623,-1.62763 2.45434,-2.44684 z  m 4.5191,-.3965 c -0.04907,-0.00627 -0.160972,0.066356 -0.268476,0.178643 -0.213484,0.222924 -0.210402,0.226017 0.06222,0.062235 0.156933,-0.094302 0.256996,-0.199329 0.222945,-0.233391 -0.0043,-0.00418 -0.0096,-0.00762 -0.01665,-0.00868 z  m -1.8181,.5141 c -0.0534,0 -0.09737,0.067893 -0.09737,0.150984 0,0.08311 -0.08086,0.177941 -0.179752,0.210915 -0.122988,0.04098 -0.146835,0.0044 -0.07604,-0.118137 0.06109,-0.105456 0.05513,-0.134624 -0.01453,-0.07087 -0.06481,0.05928 -0.118736,0.146739 -0.119835,0.194201 0,0.04746 -0.05598,0.173265 -0.122138,0.280067 -0.06615,0.106802 0.07023,0.04889 0.303626,-0.129086 0.399221,-0.304491 0.525473,-0.518067 0.305929,-0.518067 z  m -.843,.067 c -0.02161,-0.015591 -0.262559,0.160059 -0.586506,0.430473 -0.37024,0.309069 -0.714199,0.62972 -0.764532,0.712272 -0.05031,0.08249 0.211075,-0.102979 0.581322,-0.412033 0.37024,-0.309058 0.7142,-0.629146 0.764532,-0.711694 0.0064,-0.01045 0.0082,-0.016831 0.0053,-0.019028 z  m 3.223,.0213 c -0.01984,0.0094 -0.03558,0.01644 -0.05992,0.02937 -0.147011,0.07872 -0.306744,0.206748 -0.354897,0.284679 -0.06272,0.101513 -0.01169,0.101094 0.179752,0 0.111224,-0.05949 0.22996,-0.147153 0.301889,-0.220135 -0.0074,-0.01045 -0.01524,-0.02076 -0.02232,-0.03111 -0.01488,-0.02059 -0.02941,-0.04059 -0.04436,-0.06109 z  m -13.1202,.0202 c -0.03615,0.0052 -0.213975,0.14954 -0.520837,0.414907 -0.445312,0.385083 -1.07989,1.01343 -1.41039,1.3963 -0.330483,0.382886 -0.782235,0.81293 -1.00305,0.955456 -0.220815,0.142515 -0.299147,0.22355 -0.174568,0.180372 0.642714,-0.222757 0.691466,-0.228746 0.436135,-0.05244 -1.13976,0.78683 -1.77165,1.30231 -1.90355,1.55362 -0.09187,0.17482 0.135532,0.0236 0.551937,-0.36766 0.389424,-0.365953 0.953267,-0.790941 1.25311,-0.94393 0.299834,-0.153004 0.511179,-0.333138 0.469552,-0.400507 -0.04163,-0.06733 0.101197,-0.230588 0.318026,-0.362473 0.216825,-0.131896 0.359475,-0.274915 0.3163,-0.318101 -0.04318,-0.04318 0.231991,-0.416958 0.611281,-0.830405 0.783375,-0.853927 1.11629,-1.23334 1.05606,-1.22515 z  m 1.9063,.1499 c 0.009,0.0042 -0.02466,0.05073 -0.09564,0.141732 -0.08815,0.113347 -0.128952,0.237522 -0.08988,0.276612 0.03907,0.0391 -0.106703,0.198238 -0.324365,0.353254 -0.217654,0.155019 -0.395805,0.229415 -0.395805,0.165391 0,-0.06398 0.14365,-0.193585 0.319178,-0.287561 0.175542,-0.09399 0.292227,-0.213247 0.259838,-0.265659 -0.03239,-0.05238 0.04271,-0.17493 0.166503,-0.272 0.09941,-0.07789 0.151179,-0.115926 0.160165,-0.111795 z  m 2.2596,.0064 c 0.04293,0.0073 0.03352,0.07828 -0.04321,0.220135 -0.06739,0.124618 -0.317165,0.337008 -0.554818,0.471965 l -.4319,.2456 .4465,-.4713 c 0.294984,-0.31237 0.5121,-0.478346 0.583628,-0.466203 z  m -1.4421,.0581 -.3037,.4213 c -0.3159,0.437658 -0.384283,0.493823 -0.384283,0.314068 0,-0.05886 0.154712,-0.248641 0.343953,-0.421253 l .3441,-.3139 z  m 2.4831,.1488 -.3139,.3465 c -0.172573,0.190658 -0.361222,0.346914 -0.42,0.346914 -0.195814,0 -0.111646,-0.10885 0.312839,-0.402236 l .4209,-.2909 z  m -7.1192,.653 c -0.02555,-0.0094 -0.203124,0.117974 -0.48453,0.353831 -0.409312,0.343073 -0.744367,0.574699 -0.744367,0.514608 0,-0.06011 -0.08831,0.01765 -0.197036,0.172882 -0.108733,0.155271 -0.278688,0.252028 -0.376792,0.214373 -0.217863,-0.08364 -2.21304,1.80636 -2.1,1.98929 0.04323,0.06994 -0.04167,0.235488 -0.188971,0.368812 -0.147288,0.133327 -0.327682,0.359879 -0.400993,0.503085 -0.08132,0.158847 0.06239,0.07844 0.368153,-0.205727 0.680634,-0.632541 1.42003,-1.16915 1.55499,-1.12831 0.145887,0.04422 1.22278,-0.746054 1.13557,-0.833287 -0.03695,-0.03701 0.126237,-0.18653 0.362392,-0.332507 0.236147,-0.145988 0.548351,-0.429516 0.694247,-0.629865 0.451849,-0.62054 0.478718,-0.693142 0.222962,-0.601051 -0.18282,0.06586 -0.163754,0.0042 0.08988,-0.285832 0.05562,-0.06356 0.07616,-0.09598 0.06453,-0.100265 z  m -.3352,.4489 c 0.02831,0.01892 -0.154084,0.267544 -0.563464,0.735898 -0.14575,0.166741 -0.382485,0.362573 -0.524859,0.43566 -0.14237,0.07308 0.031,-0.164583 0.384282,-0.529015 0.436461,-0.450284 0.675691,-0.66144 0.70403,-0.64255 z  m 2.5731,.0237 c 0.06982,0 -0.08875,0.155512 -0.455148,0.404539 -0.265681,0.180581 -0.435469,0.328475 -0.377369,0.328475 0.0581,0 -0.06857,0.218211 -0.281155,0.485221 -0.212598,0.267009 -0.578905,0.597447 -0.814081,0.734743 l -.4273,.2494 .4472,-.5613 c 0.609832,-0.765733 1.05161,-1.18861 1.53137,-1.46603 0.210302,-0.121606 0.334903,-0.17595 0.376795,-0.175184 z  m -4.3165,.0202 c -0.142709,-0.01881 -0.601363,0.445471 -1.39765,1.41187 -0.275124,0.333911 -0.531713,0.575181 -0.570374,0.536506 -0.103131,-0.103188 -0.426646,0.196912 -0.348562,0.323288 0.07643,0.123697 -1.21648,1.20971 -1.96117,1.64755 -0.352467,0.20722 -0.405975,0.270518 -0.179178,0.211493 1.30519,-0.339689 4.71869,-3.44487 4.49961,-4.09323 -0.0075,-0.02236 -0.02225,-0.03472 -0.04263,-0.03746 z  m .1407,1.1888 c 0.04171,0 0.08983,0.0236 0.141154,0.07492 0.03139,0.03146 -0.02743,0.127325 -0.130206,0.212645 -0.151845,0.126166 -0.180559,0.111125 -0.152677,-0.07895 0.01988,-0.135408 0.0722,-0.20722 0.141732,-0.208609 z  m -2.2677,.0223 c -0.01272,-0.0063 -0.121478,0.09263 -0.317452,0.276034 -0.26619,0.249215 -0.655749,0.701245 -0.865934,1.00386 -0.210182,0.302616 -0.335179,0.549762 -0.277696,0.549762 0.05749,0 0.172899,-0.109474 0.256379,-0.243188 0.08348,-0.133703 0.426235,-0.585166 0.761652,-1.00329 0.317479,-0.395759 0.459407,-0.575727 0.443044,-0.583179 z  m 1.8865,.1857 c 0.02944,-0.0063 0.01864,0.02689 -0.04033,0.102579 -0.08836,0.113357 -0.132803,0.234818 -0.09795,0.269695 0.03487,0.0349 -0.204793,0.255862 -0.532928,0.491559 -0.623519,0.447871 -0.645289,0.211936 -0.02996,-0.32617 0.375516,-0.328389 0.636396,-0.525312 0.701157,-0.537661 z  m -2.4796,.0259 -.7388,.7076 c -0.406413,0.38918 -0.739183,0.653595 -0.739183,0.587796 0,-0.165487 -1.15568,0.974718 -1.31129,1.29373 -0.06946,0.142409 0.137707,-0.03246 0.460336,-0.388407 0.64153,-0.707942 0.794083,-0.700572 0.250618,0.01212 -0.187895,0.246412 -0.316616,0.473375 -0.285764,0.504234 0.03086,0.03083 0.314776,-0.276839 0.630294,-0.683458 0.315517,-0.406609 0.834877,-1.0305 1.15401,-1.3865 l .5797,-.647 z  m .1857,.8398 c -0.03559,0 -0.201536,0.145864 -0.368727,0.323865 -0.167191,0.178009 -0.275265,0.323288 -0.239673,0.323288 0.03559,0 0.202114,-0.145279 0.369301,-0.323288 0.167195,-0.177998 0.274688,-0.323865 0.239099,-0.323865 z  m 2.0906,.129 c -0.0067,-0.0063 -0.05924,0.03295 -0.161894,0.113524 -0.124575,0.09775 -0.226995,0.199577 -0.226995,0.226474 0,0.106544 0.1063,0.03756 0.275393,-0.178069 0.0805,-0.102663 0.120179,-0.15525 0.1135,-0.161932 z  m 5.0474,1.04 c -0.533792,0.07033 -1.16664,0.163371 -1.40576,0.208034 -0.399558,0.07465 -0.427312,0.0582 -0.346833,-0.195356 0.11808,-0.372129 -0.131124,-0.354331 -0.380828,0.0265 -0.214586,0.327592 -1.10273,0.684035 -1.10273,0.442576 0,-0.07559 -0.101835,-0.04959 -0.226421,0.0582 -0.869141,0.323309 -3.25191,1.31098 -3.00454,0.742238 0.20482,-0.382794 -0.07361,-0.305972 -0.381979,0.105459 -0.455528,0.607755 -0.532333,0.678848 -0.730542,0.678848 -0.165926,0 -0.163722,-0.05715 0.02016,-0.420101 l .2133,-.4206 -.371,.3402 c -0.204393,0.186917 -0.437453,0.31545 -0.517373,0.285832 -0.07992,-0.02959 -0.3915,0.239829 -0.691937,0.598744 -0.556947,0.665369 -0.907997,0.874247 -0.645271,0.38322 0.279978,-0.523262 0.02955,-0.374223 -0.331856,0.197659 -0.20127,0.318498 -0.446357,0.610069 -0.544446,0.647727 -0.198504,0.07621 -0.185053,0.04715 0.385433,-0.834438 l .3767,-.5825 -.4011,.4528 c -0.22078,0.249215 -0.502409,0.618346 -0.625685,0.820035 -0.123275,0.201688 -0.603141,0.577449 -1.06585,0.835593 -7.31558,4.08168 -8.28131,11.0913 -1.86496,13.3447 2.51659,0.883785 4.74027,1.30663 7.2697,1.4741 l .2023,.4039 .2013,.4046 .0085,-.4858 .0085,-.4851 h 0.786416 0.787 l .2041,.5177 c 0.111848,0.284804 0.28817,0.518067 0.391773,0.518067 0.126485,0 0.159087,-0.07487 0.100247,-0.227052 -0.167407,-0.432825 -0.230708,-0.938303 -0.118109,-0.94393 0.06228,0 0.35973,-0.0529 0.660826,-0.11122 l .5474,-.1059 .2615,.6984 c 0.143812,0.384467 0.26099,0.780609 0.26099,0.880544 0,0.1 0.04652,0.211064 0.103131,0.246068 0.05662,0.03508 0.06153,-0.267321 0.01095,-0.671933 -0.163807,-1.30971 -0.185815,-1.25256 0.543873,-1.40207 0.748509,-0.153362 0.811126,-0.103387 1.22947,0.989454 0.122652,0.320414 0.264048,0.630382 0.314568,0.688067 0.123945,0.141502 -0.07278,-1.04853 -0.248892,-1.50521 -0.18393,-0.476968 -0.183739,-0.477152 0.124448,-0.477152 0.286387,0 0.82536,0.980734 0.977701,1.77895 0.04496,0.235591 0.137303,0.384335 0.210865,0.338847 0.170688,-0.105506 0.03235,-1.28977 -0.221814,-1.89824 -0.128789,-0.308292 -0.148837,-0.492488 -0.05991,-0.547458 0.221634,-0.137006 0.468291,0.166613 0.851528,1.04651 0.2,0.45928 0.409592,0.835016 0.464942,0.835016 0.216783,0 0.08345,-0.895334 -0.222966,-1.49945 -0.177672,-0.350281 -0.322951,-0.642345 -0.32321,-0.648882 -0.0063,-0.13752 1.09254,-0.295052 1.23466,-0.176914 0.25544,0.212049 0.964452,1.66759 0.964452,1.97949 0,0.142926 0.03914,0.22073 0.08642,0.173455 0.273359,-0.273416 -0.184755,-1.96355 -0.602061,-2.22152 -0.21555,-0.133243 -0.150746,-0.274075 0.198769,-0.433357 0.366775,-0.167163 0.783995,-0.01198 1.59013,0.591827 0.696409,0.521696 0.723692,0.155491 0.03111,-0.418368 -0.671,-0.555984 -0.764975,-0.899352 -0.120412,-0.44027 0.485347,0.345667 0.817795,0.151738 0.445351,-0.259898 -0.60457,-0.668201 0.729655,-0.787472 1.54635,-0.138306 0.724117,0.575589 0.859609,0.3 0.15672,-0.318678 l -.6002,-.5283 .4918,-.2831 c 0.320882,-0.184731 0.53674,-0.239368 0.619349,-0.156746 0.196015,0.196087 0.597529,0 0.425196,-0.208608 -0.14609,-0.176074 0.276733,-0.57915 0.607823,-0.57915 0.08741,0 0.205193,-0.0746 0.262134,-0.166543 0.209055,-0.337496 1.68164,-1.38709 1.94618,-1.38709 1.06668,0 0.332539,9.71461 -0.948894,12.5575 l -.4287,1.0563 c 4.88562,-4.35533 7.68044,-10.5395 7.68681,-17.151 0,-2.84194 -0.481497,-5.6594 -1.55788,-8.30923 -0.10963,-0.183866 -0.178583,-0.116494 -0.290941,0.09336 -0.127099,0.237348 -0.849756,0.761587 -1.3522,0.984848 -4.36475,-2.95735 -9.83438,-2.37093 -14.0755,-1.78697 z  m -8.1943,1.9715 c 0.02519,0 0.04032,0.02417 0.04032,0.06973 0,0.0644 -0.124965,0.228564 -0.277699,0.364202 -0.275765,0.244896 -0.276474,0.244088 -0.128477,-0.03803 0.123757,-0.236041 0.290211,-0.403529 0.365843,-0.395901 z  m 8.9061,2.7811 1.4396,.0709 c 2.94551,0.145162 3.88949,0.895865 3.68093,2.92861 -0.429459,4.18592 -2.68347,6.9526 -6.28505,7.71452 -0.498302,0.105414 -1.13974,0.155413 -1.42363,0.178647 -2.89745,0.237118 -11.0555,-0.591056 -12.4128,-3.33661 0.0071,-0.07799 0.02158,-0.282479 0.03228,-0.45468 0.0617,-0.994954 1.56178,-2.27775 1.92314,-1.64468 3.64372,6.3838 13.0455,3.74644 13.0455,-3.65931 v -1.79739 z  m -3.4033,.6927 .427,.011 -.4344,.1896 c -0.512472,0.223696 -1.18396,0.371923 -1.18396,0.261627 0,-0.166971 0.786918,-0.471578 1.19145,-0.461593 z  m 1.0959,.1194 c 0.525437,0 0.948901,0.272272 0.622226,0.4 -0.223292,0.08719 -0.212598,0.10096 0.08584,0.108915 0.305369,0.0073 0.49951,0.213254 0.49951,0.528441 0,0.06032 -0.131354,0.135092 -0.291525,0.165965 l -.2909,.056 .2909,.0174 c 0.342163,0.02069 0.396574,0.412419 0.09852,0.710539 -0.128728,0.128767 -0.144843,0.20909 -0.04782,0.241459 0.221953,0.07402 0,0.619603 -0.252924,0.621793 -0.16532,0 -0.177485,0.02796 -0.04897,0.109492 0.246391,0.156295 0.05848,0.835246 -0.203375,0.734743 -0.147596,-0.05666 -0.162294,-0.03476 -0.05934,0.08932 0.195583,0.235718 -0.145035,0.678213 -0.436135,0.566475 -0.184521,-0.07078 -0.192749,-0.05314 -0.053,0.115253 0.247266,0.298007 -0.200661,0.787628 -0.504117,0.550914 -0.178852,-0.139525 -0.185592,-0.133952 -0.0461,0.04495 0.332139,0.425948 -0.282894,0.746728 -0.699428,0.36478 l -.3405,-.3125 .2282,.3568 c 0.357034,0.557791 -0.129633,1.02373 -0.54,0.516242 -0.16526,-0.204375 -0.169636,-0.197586 -0.04206,0.0657 0.178686,0.368731 -0.433959,0.75668 -0.651607,0.412611 -0.09851,-0.155774 -0.118577,-0.151154 -0.120412,0.03054 0,0.267417 -0.513411,0.456293 -0.647578,0.239152 -0.06864,-0.111093 -0.116735,-0.09759 -0.173417,0.05013 -0.09293,0.242224 -0.488455,0.270369 -0.708661,0.05014 -0.120798,-0.120823 -0.154981,-0.120823 -0.154981,0 0,0.31005 -0.645831,0.177368 -0.661982,-0.136 -0.0113,-0.219199 -0.0292,-0.235626 -0.07375,-0.06512 -0.111685,0.427478 -0.837,0.302382 -0.751858,-0.12966 0.06698,-0.33991 0.06442,-0.341742 -0.06279,-0.05072 -0.08834,0.202107 -0.202415,0.278373 -0.337617,0.226474 -0.112146,-0.04307 -0.257269,-0.07837 -0.322636,-0.07837 -0.06536,0 -0.119962,-0.101881 -0.12099,-0.226474 0,-0.159328 -0.03175,-0.179157 -0.103131,-0.06685 -0.07847,0.123583 -0.167722,0.114427 -0.391195,-0.04207 l -.2891,-.2035 .2743,-.4748 c 0.153064,-0.265263 0.179455,-0.361212 0.05992,-0.216677 -0.117776,0.142413 -0.259274,0.338567 -0.315145,0.43566 -0.0798,0.138678 -0.160849,0.144518 -0.379099,0.02767 -0.314301,-0.168258 -0.35433,-0.390746 -0.116957,-0.660983 0.08898,-0.101409 0.04031,-0.08245 -0.108312,0.04092 -0.430522,0.357155 -0.867642,-0.152105 -0.493742,-0.575135 l .2459,-.2796 -.3561,.23 -.3554,.2289 v -0.395319 c 0,-0.217591 0.06466,-0.435926 0.143458,-0.484643 0.10401,-0.0643 0.102784,-0.113776 -0.0041,-0.179798 -0.276545,-0.171025 0.348424,-0.740831 1.21795,-1.11047 0.966596,-0.410903 1.0338,-0.58202 0.105431,-0.267966 l -.6218,.2108 .4326,-.3717 c 0.430079,-0.369567 0.431039,-0.372203 0.12963,-0.45468 -0.251599,-0.06879 -0.270577,-0.105127 -0.109467,-0.210916 0.129823,-0.08531 0.141034,-0.127608 0.03285,-0.129082 -0.08898,0 -0.161894,-0.141336 -0.161894,-0.311762 0,-0.312697 1.52884,-1.09543 1.80561,-0.924339 0.403058,0.249162 0.235552,1.0276 -0.347988,1.61933 -0.18439,0.18698 -0.254044,0.339835 -0.168807,0.368238 0.106424,0.03543 0.104177,0.09872 -0.0075,0.233391 -0.12391,0.149343 -0.112553,0.168579 0.05934,0.102578 0.251422,-0.0965 0.279393,0.08302 0.05071,0.325017 -0.133849,0.141626 -0.107947,0.143068 0.149219,0.01035 0.268242,-0.138377 0.299852,-0.132828 0.23276,0.04207 -0.05388,0.140468 -0.01995,0.180712 0.110041,0.130816 0.231955,-0.08897 0.248389,0.22253 0.02533,0.476574 -0.08898,0.101303 -0.04025,0.08413 0.107738,-0.03861 0.29498,-0.244605 0.503837,-0.296943 0.379098,-0.09508 -0.04535,0.07339 0.0063,0.09446 0.121564,0.05013 0.110477,-0.04234 0.200495,-0.02186 0.200495,0.04495 0,0.06691 0.131357,0.110754 0.291525,0.09681 0.160172,-0.014 0.363862,0.03175 0.452845,0.102004 0.107405,0.08468 0.162472,0.08226 0.162472,-0.0069 0,-0.0737 0.144669,-0.11802 0.322635,-0.09855 0.177966,0.01956 0.324365,-0.02034 0.324365,-0.08932 0,-0.069 0.08333,-0.09337 0.185517,-0.05417 0.102178,0.0392 0.209332,0 0.237944,-0.08356 0.03824,-0.113609 0.117032,-0.105243 0.299012,0.03285 0.194315,0.147526 0.21284,0.149333 0.08584,0.0075 -0.159527,-0.17894 -0.236799,-0.636782 -0.08123,-0.481184 0.110183,0.110211 0.383591,-0.183094 0.493172,-0.528442 0.04978,-0.15688 0.148918,-0.285254 0.219508,-0.285254 0.07059,0 0.08808,-0.06438 0.03917,-0.14349 -0.0489,-0.07914 -0.0083,-0.194864 0.08988,-0.257017 0.129168,-0.08186 0.133292,-0.113779 0.01612,-0.115257 -0.668115,-0.0084 0.03526,-0.26568 0.776055,-0.284102 l .939,-.0237 -.9709,-.078 c -0.864521,-0.06921 -0.935178,-0.09423 -0.647001,-0.227627 l .3239,-.1492 -.3175,-.0085 c -0.714755,-0.0185 1.25927,-0.784881 2.02167,-0.784881 z  m -.4861,1.8287 c -0.04496,0 -0.09616,0.0063 -0.142883,0.02477 -0.103256,0.04129 -0.07186,0.07221 0.07893,0.07838 0.136456,0.0052 0.212396,-0.02502 0.169384,-0.068 -0.02151,-0.02144 -0.06047,-0.03338 -0.105431,-0.03515 z  m .9064,.129 c -0.04496,0 -0.09559,0.0064 -0.142306,0.02537 -0.103245,0.04129 -0.07301,0.07278 0.07778,0.07895 0.136452,0.0063 0.212963,-0.02562 0.169958,-0.06853 -0.02154,-0.02147 -0.06047,-0.03341 -0.105431,-0.03519 z  m -8.6803,1.4487 c -0.03944,0 -0.13174,0.03108 -0.238521,0.08817 -0.142373,0.07621 -0.25926,0.167251 -0.25926,0.202847 0,0.03555 0.11689,0 0.25926,-0.07376 0.142374,-0.07621 0.258686,-0.167262 0.258686,-0.202848 0,-0.0084 -0.0071,-0.01378 -0.02016,-0.01442 z  m 5.4567,.2172 c -0.0067,0.0063 0.03242,0.05926 0.112922,0.161933 0.16908,0.215656 0.275393,0.284619 0.275393,0.178069 0,-0.02697 -0.10243,-0.128757 -0.226998,-0.226474 -0.102639,-0.0805 -0.154641,-0.120204 -0.161317,-0.113524 z  m -2.5413,.174 c -0.01963,0 -0.03355,0.04465 -0.03745,0.13888 -0.0056,0.136485 0.02498,0.21302 0.06798,0.17 0.043,-0.04307 0.04781,-0.15492 0.01035,-0.248372 -0.01556,-0.0392 -0.0292,-0.05926 -0.04097,-0.06103 z  m 2.9296,.3444 c -0.0067,0.0063 0.03242,0.05926 0.112921,0.161932 0.169083,0.215646 0.274816,0.284035 0.274816,0.177492 0,-0.02697 -0.101846,-0.128746 -0.226421,-0.226474 -0.102639,-0.0805 -0.154637,-0.119629 -0.16132,-0.11295 z  m .3876,.5173 c -0.0067,0.0063 0.03242,0.05926 0.112921,0.161932 0.169083,0.215646 0.275393,0.284609 0.275393,0.178069 0,-0.02697 -0.101845,-0.128746 -0.226421,-0.226474 -0.102639,-0.0805 -0.155211,-0.120217 -0.161893,-0.113527 z  m -2.3946,.0223 c -0.018,0 -0.03069,0.105577 -0.03168,0.301387 0,0.284783 0.02406,0.41653 0.05646,0.292744 0.03239,-0.12376 0.0332,-0.35646 0,-0.517492 -0.0097,-0.05029 -0.01892,-0.07518 -0.02707,-0.07664 z "/>
</g>
</svg>
