<svg width="48" version="1.0" xmlns="http://www.w3.org/2000/svg" height="48" xmlns:xlink="http://www.w3.org/1999/xlink">
<defs id="defs4">
<linearGradient id="linearGradient1043">
<stop offset="0" style="stop-color:#bce0b6" id="stop1039"/>
<stop offset="0.5" style="stop-color:#acc8a9" id="stop1049"/>
<stop offset="1" style="stop-color:#3b6038" id="stop1041"/>
</linearGradient>
<linearGradient id="linearGradient1075">
<stop offset="0" style="stop-color:#fff" id="stop1071"/>
<stop offset="1" style="stop-color:#cfcfcf" id="stop1073"/>
</linearGradient>
<linearGradient id="linearGradient833">
<stop offset="0" style="stop-color:#fff" id="stop829"/>
<stop offset="1" style="stop-color:#fff;stop-opacity:0" id="stop831"/>
</linearGradient>
<linearGradient gradientTransform="matrix(0.0814624,0,0,0.10102143,21.750559,286.3497)" xlink:href="#linearGradient1075" id="linearGradient1077" y1="139.00749" x1="266" y2="292.11868" x2="271.10596" gradientUnits="userSpaceOnUse"/>
<linearGradient xlink:href="#linearGradient833" id="linearGradient835" y1="314.51822" x1="42.849468" y2="302.01126" x2="43.041309" gradientUnits="userSpaceOnUse"/>
<radialGradient fx="288.90857" fy="196.03795" cx="288.90857" cy="196.03795" gradientTransform="matrix(0.08956082,0,0,0.08682734,17.528042,291.70624)" xlink:href="#linearGradient1043" id="radialGradient1047" r="77.87957" gradientUnits="userSpaceOnUse"/>
</defs>
<g id="layer4" transform="translate(-20.71769,-284.46718)">
<g style="fill-rule:evenodd">
<path style="paint-order:normal;fill:#d2d2d2" id="path837" d="m 67.7177,308.4672 a 23,23 0 0,1 -23,23 23,23 0 0,1 -23,-23 23,23 0 0,1 23,-23 23,23 0 0,1 23,23 z "/>
<path style="fill:url(#linearGradient1077)" id="path2265" d="m 27.2178,313.4623 c 0.668674,1.23119 2.2606,1.23328 3.40166,1.42673 0.509425,-0.20768 0.642158,-0.3336 1.9268,-0.29799 3.42154,1.35098 8.32429,1.70078 14.0997,1.46072 5.77245,0.48824 10.6692,-2.54914 14.5077,-8.96475 -4.62728,-3.09396 -8.9408,-6.68245 -15.0064,-7.43643 -13.2319,-2.49695 -13.4433,12.3288 -18.9294,13.8117 z "/>
</g>
<g id="g837" transform="translate(0.52671353,-1.172622)">
<path style="fill:#273f25;fill-rule:evenodd" id="path2283" d="m 52.4237,308.783 a 8.89534,8.42092 0 0,1 -8.89534,8.42092 8.89534,8.42092 0 0,1 -8.89534,-8.42092 8.89534,8.42092 0 0,1 8.89534,-8.42092 8.89534,8.42092 0 0,1 8.89534,8.42092 z "/>
<path style="fill:url(#radialGradient1047)" id="path3310" d="m 50.2539,308.7277 a 6.85093,6.63805 0 0,1 -6.85093,6.63805 6.85093,6.63805 0 0,1 -6.85093,-6.63805 6.85093,6.63805 0 0,1 6.85093,-6.63805 6.85093,6.63805 0 0,1 6.85093,6.63805 z "/>
<path id="path4281" d="m 45.8955,308.3784 a 2.68682,2.68682 0 0,1 -2.68682,2.68683 2.68682,2.68682 0 0,1 -2.68682,-2.68683 2.68682,2.68682 0 0,1 2.68682,-2.68682 2.68682,2.68682 0 0,1 2.68682,2.68682 z "/>
<path style="opacity:.2;fill:url(#linearGradient835);fill-rule:evenodd" id="path4285" d="m 46.919,305.3561 c 4.11583,4.35647 0.834681,9.39805 -4.08722,9.09414 -5.92859,-0.36607 -6.92486,-6.96946 -2.92025,-9.42306 -2.96628,4.02367 0.218421,7.42971 3.03812,7.47812 3.14094,0.0539 6.27491,-2.33463 3.96935,-7.1492 z "/>
</g>
<path style="fill-rule:evenodd;stroke:#000;stroke-width:.076" id="path2261" d="m 47.6682,295.0496 c -0.752585,1.01463 -1.47735,1.75411 -2.84998,2.21846 -1.16488,0.39407 -2.80517,0.15573 -4.34365,0.26544 -2.33602,0.16658 -4.87247,1.14603 -6.48092,2.75848 -2.81552,2.82252 -4.30791,5.63262 -6.65073,9.45032 -0.9764,1.59108 -3.68815,2.43267 -3.86394,3.5387 0.21662,1.05403 1.78593,0.88424 3.02094,1.45974 1.35328,0.63061 2.42682,0.75714 3.6985,0.48541 0.483447,-0.26381 0.937603,-0.55311 1.87101,-0.42472 3.00309,1.14397 6.12857,2.03089 9.63766,1.94183 2.71548,0.0162 5.27469,0.27101 6.7878,2.12375 -0.241557,-0.82231 -0.703545,-1.34603 -1.32703,-1.8507 1.67762,-0.45327 3.08687,0.008 4.24236,1.33502 -0.201243,-0.57647 -0.475889,-1.15299 -1.02249,-1.72947 1.436,0.34902 2.71123,1.31294 3.916,2.79126 -0.580092,-1.35782 -1.34932,-2.48476 -2.39317,-3.27667 1.90681,-1.08531 3.48091,-0.581 5.06906,0.63707 -0.563143,-0.78573 -1.21431,-1.32576 -1.89271,-1.79 l 1.6969,-1.335 c 1.78356,-0.0578 2.82446,0.84039 3.8726,1.7293 -0.729855,-1.40498 -1.29189,-1.84553 -2.32795,-2.7003 l .7833,-.5764 c 0.986258,0.15461 1.97247,0.71607 2.95873,1.51694 -0.58009,-0.72818 -1.05376,-1.45627 -2.41487,-2.18445 0.25,-0.24115 0.429382,-0.38693 0.826699,-0.94056 1.05158,0.25013 2.05066,0.66513 2.87181,1.63833 -0.46169,-0.81824 -0.881966,-1.64469 -2.13216,-2.30584 l .3264,-.7585 c 1.94843,0.86415 3.10903,0.31547 4.26418,-0.24279 -1.58731,0.4315 -2.56745,0.0632 -3.11112,-0.87987 1.69981,0.0353 3.13706,-0.84499 4.37293,-2.42724 -1.28917,0.67072 -2.80155,0.45934 -4.43815,-0.24279 1.38788,-0.36474 2.07532,-1.26227 2.84998,-2.09348 -1.4657,0.39131 -2.71051,1.145 -5.11258,0 1.17052,-0.63004 1.89377,-1.57203 2.61066,-2.51838 -1.63455,0.73771 -3.13012,1.65437 -6.22212,0.51585 1.56182,-0.99805 2.39801,-2.36395 3.35032,-3.67112 -1.80188,1.10912 -3.62991,2.42507 -5.26485,2.21489 0.867071,-0.67761 1.35894,-1.35536 1.82749,-2.03297 -1.73121,1.6559 -3.46117,1.93451 -6.06985,0.75865 0.759078,-0.82309 1.53852,-1.57005 2.21908,-3.00379 -1.18031,1.02583 -2.40904,2.00104 -4.04657,2.54864 l -1.8275,.0303 c 0.824764,-0.8113 0.859706,-1.29216 1.15306,-1.88113 -0.4293,0.68629 -0.910374,1.32101 -1.74044,1.60807 0.879685,-1.0692 1.03542,-1.86302 1.30533,-2.70029 z  m -5.3372,6.1676 c 0.843043,0.002 1.74942,0.13327 2.74826,0.25661 5.81602,0.71818 9.96131,3.8499 14.4023,6.59286 -3.68396,5.68778 -8.3836,8.02629 -13.9237,7.59343 -5.54287,0.21282 -10.2482,-0.0972 -13.532,-1.29496 -1.23293,-0.0316 -1.3604,0.25739 -1.84931,0.44151 -1.09513,-0.17151 -2.1864,-0.35073 -2.82816,-1.44224 4.85391,-1.21199 5.03461,-12.1754 14.9825,-12.1472 z "/>
</g>
</svg>
