<svg width="48" version="1.0" xmlns="http://www.w3.org/2000/svg" height="48">
<g style="stroke:none">
<g style="fill-rule:evenodd">
<path style="fill:#2b88c5" id="path4164" d="m 4.9579,3.0032 c -2.7326,0 -4.95789,2.19371 -4.95789,4.92631 l 0,17.5579 c 0,2.7326 2.22529,4.92665 4.95789,4.9266 h 15.8842 22.7899 c 2.73721,0 4.36799,-2.44406 4.36799,-4.9266 v -17.5579 c 0,-2.7326 -2.19371,-4.92631 -4.92631,-4.92631 z "/>
<g style="fill:#1a4f72" id="g9">
<path id="path4182" d="m 4.3482,7.4982 2.2954,0 2.8419,9.4455 2.8783,-9.4455 2.259,0 2.0768,13.5864 -2.259,0 -1.3116,-8.5899 -2.6233,8.5899 -2.0768,0 -2.5868,-8.5899 -1.3116,8.5899 -2.2954,0 z"/>
<path id="path4184" d="m 17.5666,7.499 0,13.5852 2.1033,0 0,-5.7839 c 1.07397,0 1.82685,-0.06407 2.23337,-0.205617 0.692557,-0.246129 1.23987,-0.671361 1.64136,-1.29902 0.406496,-0.627638 0.591994,-1.41333 0.592004,-2.36096 -10e-6,-0.855313 -0.148531,-1.58243 -0.459674,-2.19163 C 23.37082,8.627745 22.964922,8.178533 22.42795,7.907783 21.895978,7.630896 21.00939,7.498981 19.79991,7.498969 l -2.23337,0 z m 2.1033,2.5327 0.5897,0 c 0.652412,1.3e-5 1.10563,0.06105 1.34652,0.239483 0.331231,0.239994 0.49217,0.640519 0.492177,1.16355 -7e-6,0.301524 -0.04207,0.570825 -0.162512,0.786181 -0.115442,0.209224 -0.286422,0.352804 -0.492177,0.4451 -0.205766,0.09231 -0.557235,0.137894 -1.08418,0.137884 l -0.689512,0 0,-2.7722 z"/>
<path id="path4186" d="m 26.6648,13.6583 .4598,0 .0001,.8666 -1.0511,4.8486 c -0.05921,0.298192 -0.09854,0.547251 -0.09854,0.752901 0,0.318757 0.16716,0.513341 0.394132,0.513341 0.226972,0 0.515193,-0.03407 0.82111,-0.13689 l -.0002,.8673 c -1.01697,0.422161 -2.0629,0.248737 -2.38854,0.248737 -0.08889,-0.358014 -0.04173,-0.588327 -0.04173,-1.08189 0,-0.133672 0.02621,-0.311069 0.06569,-0.547565 l .8669,-5.1043 -.7025,.0161 -.0002,-.8666 z "/>
<path id="path4188" d="m 30.4097,16.1227 c -0.878279,9e-06 -1.70745,0.483677 -2.20086,1.26514 -0.394735,0.627232 -0.592005,1.27955 -0.592005,2.01988 0,1.18249 -0.06528,0.787274 0.179352,1.71779 0.483549,0 2.50063,0.444819 3.05326,-0.100148 v 0.06774 c 0,0.493559 0.02855,0.162764 0.512105,0.162764 0.374998,0 0.546627,0.525847 1.47942,0.149037 l -.0006,-.8675 c -0.236841,0.07197 -0.459641,0.101598 -0.657009,0.101598 -0.226972,0 -0.39467,-0.197093 -0.39467,-0.546699 0,-0.133672 0.0058,-0.379129 0.06501,-0.718449 l .6569,-2.3496 c 0,0 -0.05899,-0.682515 0.000209,-0.867603 h -0.589684 l -.3622,.2395 c -0.404604,-0.164521 -0.78406,-0.273352 -1.14919,-0.273352 z  m .1625,1.008 .1323,0 .3946,.1216 -.4597,2.7359 c -0.375,0.318759 -0.713258,0.481385 -1.01918,0.481385 -0.483547,0 -0.722014,-0.418365 -0.722014,-1.19984 0,-1.56294 0.75611,-2.13917 1.67386,-2.13917 z "/>
<path id="path4190" d="m 34.4818,16.1224 c 0.424336,0.08226 0.607395,0.621351 0.75542,1.60846 l .3284,2.2245 c 0.404601,-1.0591 0.899001,-2.31805 1.51084,-3.79872 h 0.295599 l .7883,.2395 -.0002,.9699 -.591,-.1065 c -0.76973,1.06938 -1.17796,2.30348 -1.93781,3.72247 -0.868415,1.62463 -1.48732,2.75915 -3.20193,2.88011 -0.185803,-0.488642 -0.115347,-0.826116 -0.115347,-1.23742 0,-0.349605 0.235939,-0.612472 0.591198,-0.684456 l .6568,.6502 c 0.444074,-0.04113 0.945106,-0.583593 1.47799,-1.6427 h -0.394132 l -.5912,-3.2512 c -0.04934,-0.287912 -0.121361,-0.07623 -0.229912,-0.292159 l -.8869,-.0384 v -0.86729 z "/>
<path id="path4192" d="m 40.9845,16.1567 c -0.5921,3e-6 -1.20308,0.242435 -1.70637,0.684583 -0.730256,0.647796 -1.11668,1.5323 -1.11668,2.49885 0,1.22362 0.142023,1.28208 0.420207,2.15293 0.5921,0 2.35586,0.331184 3.35484,-0.806455 l -1e-4,-0.8675 c -0.592099,0.483277 -1.11719,0.718449 -1.54154,0.718449 -0.661175,0 -1.05168,6.5e-5 -1.05168,-0.873947 0,-0.09254 -0.0099,-0.194111 0,-0.307214 0.108548,-2e-6 0.228694,0.03644 0.327345,0.03386 2.61984,-0.06842 2.56303,-0.791774 2.56303,-2.10387 0,-0.678644 -0.479284,-1.12968 -1.249,-1.12968 z m -0.2299,1.0087 c 0.296047,0 0.459674,0.194077 0.459674,0.512833 0,0.596385 -0.668438,0.720329 -1.7737,0.771745 0.276314,-1.16192 0.800867,-1.28458 1.31402,-1.28458 z"/>
<path id="path4194" d="m 44.4994,16.1566 .3612,0 -.2956,1.369 c 0.631575,-0.915141 1.24409,-1.36891 1.7079,-1.36891 0.424338,0 0.71496,0.300539 0.722576,0.7529 0.0093,0.551617 0.0043,0.461689 -0.01456,0.991035 l -.9708,-.1355 -.0957,-.313 c -0.799337,0.349603 -1.50006,1.06835 -1.64808,1.9835 l -1.4099,2.6531 .0005,-.867 .6699,-3.8036 -.7027,.0161 v -0.866919 z "/>
</g>
</g>
<path style="opacity:.5;color:#000;stroke-width:6" id="path4189" d="m 33.8747,24.305 a 11.5,11.5 0 0,0 -11.8384,11.4945 v 0.02866 a 11.5,11.5 0 1,0 11.8384,-11.5232 z "/>
<g style="fill:#fff;fill-rule:evenodd" id="g18">
<path id="path4162" d="m 4.3482,8.3652 2.2954,0 2.8419,9.4455 2.8783,-9.4455 2.259,0 2.0768,13.5864 -2.259,0 -1.3116,-8.5899 -2.6233,8.5899 -2.0768,0 -2.5868,-8.5899 -1.3116,8.5899 -2.2954,0 z"/>
<path id="path4160" d="m 17.5666,8.3661 0,13.5852 2.1033,0 0,-5.7839 c 1.07397,0 1.82685,-0.06407 2.23337,-0.205617 0.692557,-0.246129 1.23987,-0.671361 1.64136,-1.29902 0.406496,-0.627638 0.591994,-1.41333 0.592004,-2.36096 -10e-6,-0.855313 -0.148531,-1.58243 -0.459674,-2.19163 C 23.37082,9.494845 22.964922,9.045633 22.42795,8.774883 21.895978,8.497997 21.00939,8.366081 19.79991,8.366069 l -2.23337,0 z m 2.1033,2.5327 0.5897,0 c 0.652412,1.2e-5 1.10563,0.06105 1.34652,0.239483 0.331231,0.239994 0.49217,0.640519 0.492177,1.16355 -7e-6,0.301524 -0.04207,0.570825 -0.162512,0.786181 -0.115442,0.209224 -0.286422,0.352804 -0.492177,0.4451 -0.205766,0.09231 -0.557235,0.137894 -1.08418,0.137884 l -0.689512,0 0,-2.7722 z"/>
<path id="path4156" d="m 26.6648,14.5254 .4599,-.0005 -1.0511,5.7157 c -0.05921,0.298192 -0.09854,0.547251 -0.09854,0.752901 0,0.318757 0.16716,0.513341 0.394132,0.513341 0.226972,0 0.515193,-0.03375 0.82111,-0.136571 v 0.376132 c -0.710519,0.267343 -1.21804,0.410672 -1.54368,0.410672 -0.562496,0 -0.886797,-0.25934 -0.886797,-0.7529 0,-0.133672 0.02621,-0.311069 0.06569,-0.547566 l .9853,-5.4757 -.8211,-.1369 v -0.342664 z "/>
<path id="path4154" d="m 30.4097,16.9898 c -0.878279,9e-06 -1.70745,0.483677 -2.20086,1.26514 -0.394735,0.627232 -0.592005,1.27955 -0.592005,2.01988 0,1.18249 0.525695,1.882 1.41384,1.882 0.483548,0 1.02373,-0.275076 1.57636,-0.820048 v 0.06774 c 0,0.493559 0.270966,0.718449 0.754515,0.718449 0.374998,0 0.857148,-0.106997 1.47885,-0.3435 v -0.374517 c -0.236841,0.07197 -0.459641,0.101164 -0.657009,0.101164 -0.226972,0 -0.394671,-0.197092 -0.394671,-0.546699 0,-0.133671 0.0058,-0.379129 0.06501,-0.718449 l .2972,-1.6764 c 0.148024,-0.853446 0.30043,-1.35528 0.359637,-1.54037 l -.5895,-.0005 -.3622,.2395 c -0.404603,-0.164521 -0.78406,-0.273351 -1.14919,-0.273351 z  m .1625,.5129 .1323,0 .3946,.6168 -.4597,2.7359 c -0.375,0.318759 -0.713258,0.481386 -1.01918,0.481386 -0.483547,0 -0.722014,-0.418365 -0.722014,-1.19984 0,-1.56294 0.75611,-2.63431 1.67386,-2.63431 z "/>
<path id="path4152" d="m 34.4818,16.9894 c 0.424336,0.08226 0.607395,0.621352 0.75542,1.60847 l .3284,2.2245 c 0.404601,-1.0591 0.899001,-2.31805 1.51084,-3.79872 h 0.295599 l .7883,.2395 v 0.273756 l -.5912,.3422 c -0.76973,1.06938 -1.17796,2.55086 -1.93781,3.96984 -0.868415,1.62463 -1.68697,2.46404 -2.49617,2.46404 -0.47368,0 -0.821109,-0.410045 -0.821109,-0.821347 0,-0.349605 0.23594,-0.612472 0.591198,-0.684456 l .6568,.6502 c 0.444074,-0.04113 0.945107,-0.583593 1.47799,-1.6427 h -0.394132 l -.5912,-3.2512 c -0.04934,-0.287912 -0.121361,-0.571193 -0.229912,-0.787125 l -.8869,-.0685 v -0.341992 z "/>
<path id="path4150" d="m 40.9845,17.0237 c -0.5921,2e-06 -1.20308,0.242435 -1.70637,0.684582 -0.730256,0.647797 -1.11668,1.5323 -1.11668,2.49885 0,1.22362 0.643486,1.94973 1.73887,1.94973 0.5921,0 1.31565,-0.27023 2.03603,-0.856333 v -0.613978 c -0.592099,0.483277 -1.11719,0.717995 -1.54154,0.717995 -0.661176,0 -1.05168,-0.495155 -1.05168,-1.36917 0,-0.09254 -0.0099,-0.194111 0,-0.307215 0.108547,-1e-06 0.228662,0.03386 0.327344,0.03386 1.64801,0 2.56303,-0.631812 2.56303,-1.60865 0,-0.678644 -0.479284,-1.12968 -1.249,-1.12968 z  m -.2299,.5129 c 0.296047,0 0.459674,0.194076 0.459674,0.512833 0,0.596385 -0.668438,1.21616 -1.7737,1.26757 0.276314,-1.16192 0.800867,-1.7804 1.31402,-1.7804 z "/>
<path id="path4148" d="m 44.4994,17.0236 .3612,0 -.2956,1.369 c 0.631575,-0.915141 1.24409,-1.36891 1.7079,-1.36891 0.424338,0 0.722576,0.300469 0.722576,0.7529 0,0.49356 -0.370256,0.85557 -0.952487,0.85557 h -0.03284 l -.2628,-.7871 c -0.799338,0.349603 -1.16575,0.932888 -1.31377,1.84802 l -.3942,2.3956 h -1.18283 l .7888,-4.1752 -.8211,-.1369 v -0.342362 z "/>
</g>
<g style="stroke-width:6;color:#000">
<path style="fill:#ff8a2c" id="path4171" d="m 33.8747,25.005 a 11.5,11.5 0 0,0 -11.8384,11.4945 v 0.02866 a 11.5,11.5 0 1,0 11.8384,-11.5232 z "/>
<path style="fill:#8c4100" id="path4169" d="m 28.8298,28.3162 13.6014,7.8541 -4e-4,0.7307 -13.6014,-7.8547 6e-4,-0.7301 -10e-5,-10e-5 z"/>
<path style="fill:#fff" id="path5443" d="m 28.8293,29.0463 13.6015,7.8547 -13.6153,7.4383 .014,-15.2929 z "/>
</g>
</g>
</svg>
