<svg width="48" version="1.1" xmlns="http://www.w3.org/2000/svg" height="48">
<path style="opacity:.7;color:#bebebe" id="path4149" d="M 0.9978,37.302 6.3133,31.9865 6.2465,19.2158 7.45,18.0791 30.9855,41.6146 29.9703,42.6334 17.0113,42.6845 11.6958,48 0.9979,37.3021 Z"/>
<g style="line-height:normal;fill:#429cd6;color:#000">
<path id="path3718" d="m 26.9375,220.4062 a 1.27513,1.27513 0 0,0 -0.65625,2.1875 c 0.757556,0.75756 0.757556,1.92994 0,2.6875 a 1.28163,1.28163 0 1,0 1.8125,1.8125 c 1.73204,-1.73204 1.73204,-4.58046 0,-6.3125 a 1.27513,1.27513 0 0,0 -1.15625,-0.375 z " transform="matrix(1.6781143,-1.6781143,1.6781143,1.6781143,-399.52595,-304.06137)"/>
<path id="path3726" d="m 27.125,221.0938 a 0.579603,0.579603 0 0 0 -0.34375,1 c 1.02332,1.02332 1.02332,2.66418 0,3.6875 a 0.579603,0.579603 0 1 0 0.8125,0.8125 c 1.46627,-1.46627 1.46627,-3.84623 0,-5.3125 A 0.579603,0.579603 0 0 0 27.125,221.0938 Z" transform="matrix(3.6918499,-3.6918499,3.6918499,3.6918499,-900.69475,-704.7951)"/>
<path id="path3728" d="m 26.9375,221.9375 c 1.10149,1.10149 1.10149,2.89851 0,4 -0.354248,0.35417 0.177002,0.88542 0.53125,0.53125 1.3881,-1.3881 1.3881,-3.6744 0,-5.0625 -0.103982,-0.11056 -0.264074,-0.14734 -0.406273,-0.0937 -0.260064,0.0981 -0.32805,0.43476 -0.124984,0.62496 z" transform="matrix(5.7055937,-5.7055937,5.7055937,5.7055937,-1401.862,-1105.5272)"/>
</g>
<path style="fill:#aaa;color:#bebebe" id="path5491" d="M 0.9978,36.302 6.3133,30.9865 6.2465,18.2158 7.45,17.0791 30.9855,40.6146 29.9703,41.6334 17.0113,41.6845 11.6958,47 0.9979,36.3021 Z"/>
</svg>
