<svg width="96" version="1.0" xmlns="http://www.w3.org/2000/svg" height="96">
<g style="opacity:.2" id="g3133" transform="matrix(2.0025067,0,0,2.0276847,-0.0600006,-0.11872848)">
<rect width="23.80175" x="0" y="0" height="3.0074415" style="fill-rule:evenodd;stroke:#003bc3;stroke-linecap:square;stroke-width:0;stroke-miterlimit:2.013" id="rect3135" transform="matrix(0.994364,-0.10602,0.10602,0.994364,9.18775,32.6335)"/>
<rect width="23.80175" x="0" y="0" height="3.0074415" style="fill-rule:evenodd;stroke:#003bc3;stroke-linecap:square;stroke-width:0;stroke-miterlimit:2" id="rect3137" transform="matrix(0.681042,0.732245,-0.732245,0.681042,17.743,13.204)"/>
<rect width="20.772942" x="0" y="0" height="3.0074415" style="fill-rule:evenodd;stroke:#003bc3;stroke-linecap:square;stroke-width:0;stroke-miterlimit:2" id="rect3139" transform="matrix(-0.310303,0.950638,-0.950638,-0.310303,40.7058,12.2692)"/>
<path style="fill-rule:evenodd;stroke:#003bc3;stroke-linejoin:bevel;stroke-linecap:square;stroke-width:0" id="path3141" d="m 21.8227,10.5976 c -0.1738,-5.99409 -5.1509,-10.7252 -11.1461,-10.595 -5.99521,0.130265 -10.7623,5.07314 -10.6754,11.0691 0.08685,5.996 4.99508,10.7988 10.9915,10.7552 5.9965,-0.0434 10.8346,-4.9166 10.8346,-10.9133" transform="translate(21.3059,20.7634)"/>
<path style="fill-rule:evenodd;stroke:#003bc3;stroke-linejoin:bevel;stroke-linecap:square;stroke-width:0" id="path3143" d="m 11.6693,5.6669 c -0.093,-3.20522 -2.75439,-5.73511 -5.96022,-5.66546 -3.20579,0.0696681 -5.7549,2.71277 -5.70846,5.919 0.0464404,3.20623 2.67105,5.7744 5.87751,5.7512 3.20647,-0.0232 5.79347,-2.62915 5.79347,-5.83571" transform="translate(4.00394,28.0459)"/>
<path style="fill-rule:evenodd;stroke:#003bc3;stroke-linejoin:bevel;stroke-linecap:square;stroke-width:0" id="path3145" d="m 43.9959,12.6993 c -0.0835,-3.15005 -2.60657,-5.18065 -5.48817,-5.11219 -2.88157,0.06847 -5.1359,2.38583 -5.09416,5.53685 0.04174,3.15104 2.5778,5.06707 5.46003,5.04417 2.8822,-0.0228 5.1223,-2.31748 5.1223,-5.46883"/>
<path style="fill-rule:evenodd;stroke:#003bc3;stroke-linejoin:bevel;stroke-linecap:square;stroke-width:0" id="path3147" d="m 22.3321,11.6028 c -0.1205,-4.18649 -3.5752,-7.49092 -7.7363,-7.39993 -4.16114,0.090983 -7.46987,3.54328 -7.40959,7.73111 0.060278,4.18775 3.44225,7.44715 7.60428,7.41685 4.16191,-0.0304 7.54491,-3.339 7.54491,-7.52725"/>
</g>
<g id="layer1" transform="matrix(1.9721648,0,0,1.9982831,0.6681974,-0.00100633)">
<rect width="23.80175" x="0" y="0" height="3.0074415" style="fill:#4d4d4d;fill-rule:evenodd;stroke:#003bc3;stroke-linecap:square;stroke-width:0;stroke-miterlimit:2.013" id="shape0" transform="matrix(0.994364,-0.10602,0.10602,0.994364,9.18775,32.6335)"/>
<rect width="23.80175" x="0" y="0" height="3.0074415" style="fill:#4d4d4d;fill-rule:evenodd;stroke:#003bc3;stroke-linecap:square;stroke-width:0;stroke-miterlimit:2" id="shape1" transform="matrix(0.681042,0.732245,-0.732245,0.681042,17.743,13.204)"/>
<rect width="20.772942" x="0" y="0" height="3.0074415" style="fill:#4d4d4d;fill-rule:evenodd;stroke:#003bc3;stroke-linecap:square;stroke-width:0;stroke-miterlimit:2" id="shape2" transform="matrix(-0.310303,0.950638,-0.950638,-0.310303,40.7058,12.2692)"/>
<path style="fill:#52beea;fill-rule:evenodd;stroke:#003bc3;stroke-linejoin:bevel;stroke-linecap:square;stroke-width:0" id="shape11" d="m 21.8227,10.5976 c -0.1738,-5.99409 -5.1509,-10.7252 -11.1461,-10.595 -5.99521,0.130265 -10.7623,5.07314 -10.6754,11.0691 0.08685,5.996 4.99508,10.7988 10.9915,10.7552 5.9965,-0.0434 10.8346,-4.9166 10.8346,-10.9133" transform="translate(21.3059,20.7634)"/>
<path style="fill:#88c941;fill-rule:evenodd;stroke:#003bc3;stroke-linejoin:bevel;stroke-linecap:square;stroke-width:0" id="path11" d="m 11.6693,5.6669 c -0.093,-3.20522 -2.75439,-5.73511 -5.96022,-5.66546 -3.20579,0.0696681 -5.7549,2.71277 -5.70846,5.919 0.0464404,3.20623 2.67105,5.7744 5.87751,5.7512 3.20647,-0.0232 5.79347,-2.62915 5.79347,-5.83571" transform="translate(4.00394,28.0459)"/>
<path style="fill:#f39c12;fill-rule:evenodd;stroke:#003bc3;stroke-linejoin:bevel;stroke-linecap:square;stroke-width:0" id="shape3" d="m 10.5829,5.1139 c -0.0835,-3.15005 -2.60657,-5.18065 -5.48817,-5.11219 -2.88157,0.06847 -5.1359,2.38583 -5.09416,5.53685 0.0417387,3.15104 2.5778,5.06707 5.46003,5.04417 2.8822,-0.0228 5.1223,-2.31748 5.1223,-5.46883" transform="translate(33.413,7.4373)"/>
<path style="fill:#ff4c91;fill-rule:evenodd;stroke:#003bc3;stroke-linejoin:bevel;stroke-linecap:square;stroke-width:0" id="shape4" d="M 15.1467,7.40177 C 15.0262,3.21528 11.5715,-0.0891489 7.4104,0.00183458 3.24926,0.0928178 -0.05947,3.54511 8.1075e-4,7.73295 0.0610893,11.9207 3.44306,15.1801 7.60509,15.1498 11.767,15.1194 15.15,11.8108 15.15,7.62255" transform="translate(7.18542,4.00394)"/>
</g>
</svg>
