<svg width="96" version="1.0" xmlns="http://www.w3.org/2000/svg" height="96" xmlns:xlink="http://www.w3.org/1999/xlink">
<defs>
<linearGradient id="linearGradient3543">
<stop offset="0" style="stop-color:#fff"/>
<stop offset="0.30645162" style="stop-color:#fff"/>
<stop offset="0.51899064" style="stop-color:#fff;stop-opacity:.641"/>
<stop offset="1" style="stop-color:#fff;stop-opacity:0"/>
</linearGradient>
<radialGradient fx="63.875" fy="2.2173476" cx="63.875" cy="2.2173476" gradientTransform="matrix(1.0948456,0,0,0.33117465,-21.844872,32.792567)" r="58.375" id="radialGradient4248" xlink:href="#linearGradient3543" gradientUnits="userSpaceOnUse"/>
<radialGradient fx="64.230392" fy="68.449158" cx="64.230392" cy="68.449158" gradientTransform="matrix(1.4544425,0,0,0.92610887,-45.079796,-12.6013)" r="43.769611" id="radialGradient4252" xlink:href="#linearGradient3543" gradientUnits="userSpaceOnUse"/>
<radialGradient fx="49.233551" fy="70.608253" cx="49.233551" cy="70.608253" gradientTransform="matrix(0.46811249,-0.52911558,1.7948202,1.5821666,-112.03757,-37.344561)" r="25.483549" id="radialGradient4246" xlink:href="#linearGradient3543" gradientUnits="userSpaceOnUse"/>
<radialGradient fx="74.375" fy="67.125" cx="74.375" cy="67.125" gradientTransform="matrix(0.89260147,0,0,0.89141463,-51.611367,-28.371713)" r="3.125" id="radialGradient3449" xlink:href="#linearGradient3543" gradientUnits="userSpaceOnUse"/>
<radialGradient fx="69.75" fy="75.973572" cx="69.75" cy="75.973572" gradientTransform="matrix(2.2593878,-0.06832043,0.00797869,0.26385907,-105.95706,38.8624)" r="58.5" id="radialGradient4250" xlink:href="#linearGradient3543" gradientUnits="userSpaceOnUse"/>
<radialGradient fx="74.375" fy="67.125" cx="74.375" cy="67.125" gradientTransform="matrix(0.84547158,0,0,0.84434747,15.553432,-31.917967)" r="3.125" id="radialGradient3354" xlink:href="#linearGradient3543" gradientUnits="userSpaceOnUse"/>
<radialGradient fx="74.375" fy="67.125" cx="74.375" cy="67.125" gradientTransform="matrix(1.5834493,0,0,1.581344,-53.333661,-72.388859)" r="3.125" id="radialGradient3445" xlink:href="#linearGradient3543" gradientUnits="userSpaceOnUse"/>
<radialGradient fx="74.375" fy="67.125" cx="74.375" cy="67.125" gradientTransform="matrix(1.0219348,0,0,1.020576,-15.635673,-16.92189)" r="3.125" id="radialGradient3447" xlink:href="#linearGradient3543" gradientUnits="userSpaceOnUse"/>
<radialGradient fx="74.375" fy="67.125" cx="74.375" cy="67.125" gradientTransform="matrix(1.0744835,0,0,1.0730548,-39.513825,-14.090919)" r="3.125" id="radialGradient3443" xlink:href="#linearGradient3543" gradientUnits="userSpaceOnUse"/>
<radialGradient fx="74.375" fy="67.125" cx="74.375" cy="67.125" gradientTransform="matrix(1.3572422,0,0,1.3554377,-73.268157,-53.871603)" r="3.125" id="radialGradient3216" xlink:href="#linearGradient3543" gradientUnits="userSpaceOnUse"/>
<radialGradient fx="74.375" fy="67.125" cx="74.375" cy="67.125" gradientTransform="matrix(0.56551763,0,0,0.5647657,38.456917,3.261507)" r="3.125" id="radialGradient3451" xlink:href="#linearGradient3543" gradientUnits="userSpaceOnUse"/>
</defs>
<path style="fill:#3080ca" d="m 12,6 h 72 c 3.324,0 6,2.676 6,6 v 72 c 0,3.324 -2.676,6 -6,6 H 12 C 8.676,90 6,87.324 6,84 V 12 C 6,8.676 8.676,6 12,6 Z"/>
<path style="opacity:.45;fill:#fff" d="m 36.2739,6.0964 c 1.65012,2.21559 0.11259,5.9154 2.60148,5.87867 1.2119,1.71316 -2.41545,0.511042 0.2036,1.83143 1.5061,1.18599 -1.5934,1.86361 0.27178,2.92792 -2.14968,1.10911 0.34844,5.8011 1.94512,6.97538 2.62795,2.21206 1.1622,-4.68339 4.0945,-5.04209 1.59336,-1.8188 4.39184,-2.98633 6.37927,-4.81599 -1.9423,-0.15766 -3.07647,-1.36645 -1.23702,-2.11525 3.38545,3.46867 0.8489,-1.64271 -1.02514,-2.45202 1.81336,-0.576759 3.57698,-0.154404 3.32537,-1.65055 1.91632,-1.40182 -1.84226,-1.85442 -3.18394,-1.5375 -4.45834,0 -8.91667,0 -13.375,0 z M 8.4721,7.5435 C 6.02234,8.241348 5.85146,14.09512 8.31375,10.8446 8.918093,9.50989 11.71083,7.90139 8.4721,7.5435 Z M 19.9186,7.747 c -1.41226,2.21424 0.204911,3.98952 1.37991,1.28879 C 22.13022,7.90801 20.680579,7.78832 19.9186,7.747 Z m 3.529,0.4974 c -2.72875,1.26458 -0.6726,4.21347 -0.60506,4.86932 2.87457,0.994334 4.47323,-0.650114 5.56069,2.16041 2.73516,1.57615 -0.0538,4.31492 -1.08054,5.02818 1.84934,-1.61039 5.40416,4.3783 4.47226,1.21432 -1.11179,-0.811673 2.98515,1.30391 0.85962,-1.33401 -1.95607,-3.15109 0.15527,-1.41071 0.97995,-0.675273 2.80488,-2.51485 -3.1736,-2.81881 -1.68123,-5.40689 -1.30775,-1.05906 -3.02289,-4.26737 -5.33867,-3.64025 -1.55024,2.00457 -0.21415,-4.36779 -2.48861,-1.17898 -0.11789,1.78253 -0.0429,4.04445 -0.70571,0.956351 -0.44407,-0.540606 0.764,-1.79741 0.0273,-1.99318 z M 17.8827,8.267 c -1.8316,0.610549 -1.73323,3.08497 0.518956,3.35025 C 19.17309,10.738054 18.70815,8.43349 17.8827,8.267 Z m -7.1484,0.7914 c -2.37908,0.563598 -1.40799,2.48163 -0.679572,3.02182 -2.94492,0.737557 4.49569,0.942657 0.79268,1.40979 -3.08079,1.23022 2.96666,2.67961 3.95877,1.22095 3.80439,0.930273 0.136908,-3.04503 -0.197041,-5.2 -1.61275,-1.73062 -0.06365,3.98955 -1.52187,0.184316 -0.508787,1.12998 -2.12653,0.166515 -2.35297,-0.636935 z m 75.6011,0.2487 c -3.19244,1.24924 1.98418,5.96347 0.69765,1.67466 C 86.90488,10.463892 87.32124,9.09559 86.3354,9.3071 Z m -66.6656,1.8993 c -2.29408,2.15564 2.91599,3.93824 -0.658894,5.54415 -0.53602,-2.00194 -1.45828,1.00161 -3.50347,-0.615111 -3.5159,1.46374 -5.31387,-0.762449 -8.25753,-2.28843 -1.76803,-0.220055 -1.10378,1.6797 -1.22088,3.45847 0,4.91586 0,9.83173 0,14.7476 1.73349,1.82357 0.676329,0.804576 0,0.301602 0.951467,3.24003 -0.419572,7.97627 3.33085,9.86093 0.637563,1.18245 3.31288,6.23 3.43622,4.7127 -1.34121,-1.40437 -2.71735,-5.6146 -0.447896,-1.8621 2.03276,3.56702 4.77475,5.88058 8.78047,6.72942 2.19006,0.744855 3.99117,3.30532 5.91712,2.74196 1.08905,2.87054 -3.22741,5.62709 0.14491,8.30447 1.76052,2.71045 4.71618,4.48817 3.11596,8.29345 -1.11907,3.71641 -0.63993,7.76588 -1.60779,11.2285 -0.30039,2.10768 2.93804,7.4573 2.65747,3.17353 0.94557,-2.97692 0.92064,-6.25251 3.14759,-8.36068 3.04711,0.02412 0.58237,-3.27611 3.607,-2.84499 1.84565,-2.41887 2.38023,-5.30449 5.49491,-6.26498 0.37205,-2.93614 5.17882,-7.4329 0.21314,-8.57606 -1.34961,-0.665119 -4.8245,-0.904282 -4.55894,-1.23246 0.53803,-2.91343 -4.49347,-3.74284 -6.63424,-4.93482 -2.81075,-1.99486 -7.03423,3.31395 -8.02451,-1.2604 -0.59088,-1.43923 -2.75133,-1.46257 -1.75843,-3.68338 -1.78939,1.77944 -5.28934,1.23862 -4.37303,-2.19782 1.39157,-2.89416 6.73564,-3.03109 7.64626,0.450058 -1.26435,-3.83929 2.44394,-6.82804 4.50253,-9.55947 0.41916,-1.30555 2.90974,-2.42722 2.05268,-0.692077 1.46015,-0.05266 3.67328,-2.6873 1.07941,-1.47128 -0.0367,-2.4027 -2.27298,-1.71942 -2.998,-1.37825 1.34377,-2.13251 8.24498,-0.966646 5.35509,-4.45237 -2.2393,-0.907229 -2.05302,-6.20137 -4.318,-3.25198 0.1906,-1.81724 -4.61001,-5.37447 -4.50525,-2.32716 0.58599,2.72677 0.10714,5.86795 -1.13992,7.65531 -0.26025,-3.99563 -7.07569,-3.11254 -6.19943,-7.37033 1.26945,-2.02928 2.75285,-4.83551 2.89418,-4.58306 2.27505,-0.868509 4.10459,-3.39482 1.46783,-5.05561 -0.14092,1.44748 -1.98303,4.43394 -1.72366,0.821917 -1.70579,2.02218 -1.3162,-3.21781 -2.91375,-3.761249 z m 54.45,1.4018 c -3.99594,0.977352 -5.58007,4.79345 -7.55681,7.95421 -2.91386,1.31358 -2.80294,6.95486 0.45241,5.15311 0.87128,1.52152 -0.60951,3.91972 1.92831,1.93026 2.047,-2.70856 0.35794,-7.08923 3.84142,-8.79714 0.25374,1.32799 -3.21334,6.28675 0.83699,5.47169 3.66156,0.13814 -2.66185,0.364788 -0.88099,2.70339 -1.85027,-1.09766 -0.88884,2.99784 -3.30399,2.04477 -2.09232,1.13797 -3.46433,-0.528366 -2.98503,-2.35379 -1.64596,0.960095 0.5177,3.66863 -2.33958,3.83141 -0.64005,2.27253 -5.90338,1.93 -2.9102,4.24405 1.3289,3.44365 -4.95154,0.215879 -3.16854,4.34837 1.52545,4.08641 4.7224,-1.35405 6.01943,-2.40515 2.50248,-1.94091 6.21066,3.30944 3.95877,3.50459 2.52508,-0.338743 2.00619,-2.73989 -0.0169,-3.66948 -1.09268,-2.83352 3.45903,1.38963 3.2066,2.81029 1.60595,3.00685 0.94462,-3.07856 2.57885,-0.384373 -0.1908,2.84197 6.57418,0.668223 3.34439,4.29028 -2.77688,0.559235 -5.51013,-0.715787 -7.90083,0.100876 -2.22511,-0.01969 -2.11347,-2.39677 -2.92358,-2.99206 -2.83037,0.229926 -6.32794,0.203926 -8.22277,2.49017 -2.04902,2.81095 -5.00383,6.74045 -2.77053,10.3297 2.23487,5.31882 7.77718,0.27589 10.963,3.41707 0.94693,1.30973 -0.8206,2.86661 1.2967,4.28529 0.79672,3.02204 -0.90448,5.8914 1.05227,8.78028 1.01184,2.71684 1.63978,6.78326 5.40576,4.30066 3.98577,-2.39826 2.92416,-6.8193 6.21294,-9.26804 -2.60227,-5.03556 3.18363,-7.2435 4.62722,-11.3315 -3.15395,0.461678 -5.96377,-2.68243 -6.72579,-5.84703 -1.32494,-1.53712 -0.98368,-3.80361 0.49633,-0.916013 2.03426,1.97093 2.07821,7.81918 5.84127,4.81063 1.72035,-0.719477 6.4186,-3.464 2.67511,-4.71298 -2.41304,1.74753 -5.07525,-5.22167 -1.53182,-1.17938 2.57602,1.09276 4.37996,1.74384 4.37996,-1.87922 0,-9.76127 0,-19.6548 0,-29.4822 -0.8024,0.819872 -2.8638,2.33408 -3.90428,1.32791 -1.79037,0.249281 -4.15389,3.73243 -3.59125,0.365356 -1.55624,-0.103042 -0.27858,3.01903 -2.41664,3.10635 -0.21529,1.60509 -2.15987,0.29723 -1.42943,1.82146 -1.50065,-1.06435 -2.77067,-4.42484 0.18614,-2.31558 4.39103,-1.31719 -2.8956,-4.28827 -3.45804,-5.00642 0.94545,-0.226501 -1.02861,-1.21165 -1.26681,-0.881801 z M 37.8801,13.49 c -1.4615,1.2176 2.77854,1.44689 0,0 z m -19.5224,0.6557 c -1.63465,1.70965 2.60328,1.57167 0,0 z m 9.4784,1.6958 c -1.23786,2.02757 1.82903,0.748571 0,0 z m 27.1006,2.3967 c -1.44923,1.66825 -3.36205,-0.439045 -3.39323,0.994852 0.26265,0.433258 1.31467,3.52554 3.61945,1.24357 1.23698,-0.521451 0.74995,-1.83597 -0.22622,-2.23842 z m -30.8558,0.9949 c -2.74881,2.40029 4.6683,2.62144 0.58232,0.275289 l -0.5823,-0.2753 z m 36.2623,6.6474 c -1.97909,1.2904 0.94943,4.0308 -0.0431,5.31808 -1.2401,2.16039 4.60832,-0.152179 1.48461,-1.87583 -0.22257,-1.48088 -1.83002,-3.28772 -1.44154,-3.44225 z m -1.3347,2.6002 c -2.75739,0.779471 -0.62595,4.80385 0.35067,1.01349 0.0549,-0.219748 0.12936,-1.02084 -0.35067,-1.01349 z m -22.0786,2.9167 c -2.56522,1.74896 -0.39843,3.49471 1.48156,2.70778 -0.38596,-1.05524 -1.46417,-1.7201 -1.48156,-2.70777 z m 48.4553,2.9393 c 1.27995,0.645878 -2.34554,1.74921 -0.0498,2.88592 1.33598,1.57089 0.83231,4.943 -1.3392,2.55637 0.40344,-2.66467 -2.94356,-4.65466 1.38903,-5.4423 z m -6.5829,0.0226 c -0.17366,1.71194 3.69395,4.37297 -0.47504,3.50459 -2.20475,0.258597 -5.50697,-0.06736 -2.72943,-2.81428 0.87765,-0.526822 3.18206,1.8176 1.98292,-0.373765 0.42513,-0.02712 0.82107,-0.18758 1.22155,-0.316545 z m -12.7359,3.7081 c -1.60811,1.0359 1.11199,1.83021 0,0 z M 25.687,47.722 c -0.27111,0.904354 5.08598,1.82085 1.38929,0.371963 l -0.5511,-0.1939 -0.8382,-0.178 z m 4.1623,1.2888 c -1.62491,1.64939 3.34782,0.492772 0,0 z m 54.3369,15.1263 c -3.53072,0.09109 -3.06133,9.19702 -0.60013,3.80894 0.2334,-1.16922 1.1689,-2.71242 0.60013,-3.80894 z"/>
<g style="fill:none;stroke-width:2">
<path style="stroke:url(#radialGradient4246)" d="M 7,29.5231 C 58.25,38.34756 38.6336,89 38.6336,89"/>
<path style="stroke:url(#radialGradient4252)" d="M 27.6767,88.8235 C 26.61635,73.2924 56.1293,28.6407 88.8233,20.8751"/>
</g>
<g style="fill-rule:evenodd">
<path style="fill:url(#radialGradient3216)" d="m 31.9181,37.1122 a 4.24138,4.23574 0 0 1 -8.48276,0 4.24138,4.23574 0 1 1 8.48276,0 z"/>
<path style="fill:url(#radialGradient3443)" d="m 43.7586,57.9379 a 3.35776,3.3533 0 0 1 -6.71552,0 3.35776,3.3533 0 1 1 6.71552,0 z"/>
<path style="fill:url(#radialGradient3445)" d="m 69.3837,33.7589 a 4.94828,4.9417 0 0 1 -9.89656,0 4.94828,4.9417 0 1 1 9.89656,0 z"/>
<path style="opacity:.6;fill:url(#radialGradient3447)" d="m 63.5643,51.5843 a 3.19355,3.1893 0 0 1 -6.38709,0 3.19355,3.1893 0 1 1 6.38709,0 z"/>
<path style="opacity:.7;fill:url(#radialGradient3449)" d="m 17.5652,31.4645 a 2.78938,2.78567 0 0 1 -5.57876,0 2.78938,2.78567 0 1 1 5.57876,0 z"/>
<path style="opacity:.6;fill:url(#radialGradient3451)" d="m 82.2845,41.1714 a 1.76724,1.7649 0 0,1 -3.53449,0 1.76724,1.7649 0 1,1 3.53449,0 z "/>
</g>
<g style="fill:none">
<path style="stroke:url(#radialGradient4248);stroke-width:2" d="M 7.1767,47.7015 C 35.2759,28.2877 72.388,27.2287 89,49.2899"/>
<path style="opacity:.6;stroke:url(#radialGradient4250);stroke-width:1.5" d="M 7.1767,67.8213 C 58.4267,56.3495 89.1768,37.6416 89.1768,37.6416"/>
</g>
<path style="opacity:.6;fill:url(#radialGradient3354);fill-rule:evenodd" d="m 81.0775,24.7589 a 2.6421,2.63859 0 0,1 -5.2842,0 2.6421,2.63859 0 1,1 5.2842,0 z "/>
</svg>
