<svg width="96" version="1.0" xmlns="http://www.w3.org/2000/svg" height="96" xmlns:xlink="http://www.w3.org/1999/xlink">
<g id="layer1">
<rect width="84" x="6" y="6" rx="6" height="84" ry="0" style="fill:#f2f2f2;stroke:none" id="rect2419"/>
</g>
<g id="layer3">
<path style="fill:#659d02;stroke-width:0;stroke-miterlimit:10" id="path21" d="m 41.0938,6 0,23.1562 c 0.45785,-0.03541 0.91464,-0.07808 1.375,-0.09375 17.7317,-0.597617 29.2812,14.5625 29.2812,14.5625 0,0 -13.2693,16.125 -27.0938,16.125 -1.26699,0 -2.44843,-0.115384 -3.5625,-0.3125 v 4.3125 c 0.95268,0.120965 1.93805,0.1875 2.96875,0.1875 12.8646,0 22.1791,-6.56784 31.1875,-14.3438 1.49357,1.19617 7.61803,4.10079 8.875,5.375 -8.56532,7.17109 -28.5266,12.9688 -39.8438,12.9688 -1.09088,0 -2.15773,-0.08816 -3.1875,-0.1875 v 22.25 h 42.9062 c 3.324,0 6,-2.676 6,-6 v -72 c 0,-3.324 -2.676,-6 -6,-6 h -42.9062 z  m 0,61.75 0,-4 c -15.7436,-1.98088 -21.125,-19.3438 -21.125,-19.3438 0,0 7.04388,-10.3926 21.125,-11.4688 v -3.78125 c -15.5966,1.25258 -29.0938,14.4688 -29.0938,14.4688 0,0 7.64066,22.1002 29.0938,24.125 z  m 0,-34.8125 0,4.6562 c 0.83391,-0.08932 1.70531,-0.15625 2.59375,-0.15625 8.16763,0 13,6.34375 13,6.34375 l -6.625,5.625 c -2.98432,-4.97492 -4.0048,-7.18144 -8.96875,-7.78125 v 14.125 c 1.12504,0.37825 2.38702,0.625 3.78125,0.625 9.68785,0 18.7188,-12.5625 18.7188,-12.5625 0,0 -8.37418,-11.338 -21.125,-10.9375 -0.46631,0.01473 -0.92185,0.03085 -1.375,0.0625 z  m 0,22.8125 c -6.70822,-2.25383 -8.875,-10.0625 -8.875,-10.0625 0,0 3.89507,-4.66012 8.875,-4.0625 v -4.03125 c -9.48822,1.02601 -15.1875,7.34375 -15.1875,7.34375 0,0 3.28907,12.3787 15.1875,14.5 v -3.6875 z "/>
<path style="opacity:.6;fill:#fff;stroke-width:0;stroke-miterlimit:10" id="path3766" d="m 41.0938,29.1562 c -15.5966,1.25258 -29.0938,14.4688 -29.0938,14.4688 0,0 0.133774,0.377176 0.28125,0.75 1.3919,-1.32151 14.0883,-13.0362 28.8125,-14.2188 v -1 z  m 1.375,3.7188 c -0.46631,0.01473 -0.92185,0.03085 -1.375,0.0625 v 1 c 0.45315,-0.03165 0.90869,-0.04777 1.375,-0.0625 11.157,-0.350437 18.9728,8.27281 20.75,10.4375 0.233108,-0.302786 0.375,-0.5 0.375,-0.5 0,0 -8.37418,-11.338 -21.125,-10.9375 z  m -1.375,4.7188 c -9.48822,1.02601 -15.1875,7.34375 -15.1875,7.34375 0,0 0.06756,0.30706 0.21875,0.75 1.09829,-1.11465 6.52751,-6.18096 14.9688,-7.09375 v -1 z  m 0,4.0312 0,1 c 4.96395,0.59981 5.98443,2.80633 8.96875,7.78125 l 6.625,-5.625 c 0,0 -0.198936,-0.260014 -0.5,-0.59375 l -6.125,5.2188 c -2.98432,-4.97492 -4.0048,-7.18144 -8.96875,-7.78125 z  m 30.25,2.4688 c -1.98713,2.30284 -14.043,15.6562 -26.6875,15.6562 -1.26699,0 -2.44843,-0.115384 -3.5625,-0.3125 v 1 c 1.11407,0.197116 2.29551,0.3125 3.5625,0.3125 13.8245,0 27.0938,-16.125 27.0938,-16.125 0,0 -0.185185,-0.264221 -0.40625,-0.53125 z  m -51.1562,1 c -0.103144,0.139838 -0.21875,0.3125 -0.21875,0.3125 0,0 5.38139,17.3629 21.125,19.3438 v -1 c -13.9479,-1.75493 -19.7612,-15.5246 -20.9062,-18.6562 z  m 12.2812,1.3438 c -0.05952,0.06661 -0.25,0.25 -0.25,0.25 0,0 2.16678,7.80867 8.875,10.0625 v -1 c -5.49314,-1.84559 -7.91843,-7.35511 -8.625,-9.3125 z  m 51.0312,9 c -8.86176,6.94892 -28.1543,12.5 -39.2188,12.5 -1.09088,0 -2.15773,-0.08816 -3.1875,-0.1875 v 1 c 1.02977,0.09934 2.09662,0.1875 3.1875,0.1875 11.3171,0 31.2784,-5.79766 39.8438,-12.9688 -0.145065,-0.147054 -0.364874,-0.345897 -0.625,-0.53125 z "/>
</g>
<rect width="5.5740142" x="84.436516" y="6.0335617" rx="2.787" height="83.984222" ry="0" style="fill:#659d02;fill-rule:evenodd;stroke:none" id="rect3034"/>
</svg>
