<svg width="96" version="1.0" xmlns="http://www.w3.org/2000/svg" height="96" xmlns:xlink="http://www.w3.org/1999/xlink">
<defs>
<linearGradient id="linearGradient1-2">
<stop offset="0" style="stop-opacity:.8"/>
<stop offset="1" style="stop-color:#fff"/>
</linearGradient>
<linearGradient id="linearGradient3678">
<stop offset="0" style="stop-color:#888"/>
<stop offset="1" style="stop-color:#acacac"/>
</linearGradient>
<linearGradient gradientTransform="matrix(0.84404337,0.77540204,-0.77540204,0.84404337,20.514774,25.590102)" xlink:href="#linearGradient1-2" id="linearGradient2" y1="-0.84365028" x1="52.829464" y2="3.4904664" x2="52.864334" gradientUnits="userSpaceOnUse"/>
<linearGradient gradientTransform="matrix(1.146149,0,0,1.146149,-3.8702694,32.568855)" xlink:href="#linearGradient1-2" id="linearGradient4" y1="34.380527" x1="-15.478408" y2="35.764919" x2="-15.478408" gradientUnits="userSpaceOnUse"/>
<linearGradient xlink:href="#linearGradient3678" id="linearGradient1" y1="24" x1="48" y2="80" gradientUnits="userSpaceOnUse" x2="48"/>
<linearGradient gradientTransform="matrix(1.146149,0,0,1.146149,-3.7841541,29.891272)" xlink:href="#linearGradient1-2" id="linearGradient5" y1="34.380527" x1="-15.478408" y2="35.764919" gradientUnits="userSpaceOnUse" x2="-15.478408"/>
</defs>
<path style="fill:#c8c8c8" d="M 12,6 C 8.676,6 6,8.676 6,12 V 90 H 90 V 12 C 90,8.676 87.324,6 84,6 Z"/>
<g style="color:#000">
<rect width="74" x="11" y="23" height="60" style="opacity:.99;fill:url(#linearGradient1)"/>
<g style="fill:#fff">
<rect width="72" x="12" y="24" height="58" style="opacity:.99"/>
<path style="opacity:.4" d="m 75.6074,10.8073 -1.7145,1.7142 3.3216,3.307 -1.9377,.7378 -1.3571,1.3572 2.2951,2.4766 2.7143,-2.7143 2.7142,2.7143 2.3776,-2.5366 -1.3571,-1.3572 -1.8777,-.6778 3.2609,-3.4097 -1.857,-1.7142 -3.2609,3.4097 z "/>
</g>
<path style="fill:#555" d="m 76.2148,10.2 -1.7145,1.7142 2.7143,2.7143 -2.7142,2.7143 1.7145,1.8572 2.7143,-2.7143 2.7142,2.7143 1.857,-1.8572 -2.7143,-2.7143 2.7143,-2.7143 -1.857,-1.7142 -2.7143,2.7143 z"/>
</g>
<path style="opacity:.4;fill:#fff" d="M 71.2,19.3669 60.8,19.2903 65.3566,12.3 h 1.4 z"/>
<path style="fill:#555" d="m 70.5003,18.2669 -9,-.0766 4.5566,-6.9903 z "/>
<path style="opacity:.4;fill:#fff" d="m 58.5,11.1997 -11,.0766 5.5566,8.5906 z "/>
<path style="fill:#555" d="m 57.5,11.2 -9,.0766 4.5566,6.9903 z "/>
<path style="opacity:.4;fill:#fff" d="m 22.5,11.2 -11,.0763 5.5566,8.5906 z "/>
<path style="fill:#555" d="m 21.5,11.2 -9,.0766 4.5566,6.9903 z "/>
<path style="fill:#a0a0a0;stroke:#505050;stroke-width:.573" d="m 72.8811,29.7074 -2.0279,3.5127 c -1.70865,0.996241 -3.45288,2.14796 -4.82306,3.56312 l -35.7398,36.913 -2.85,-2.7294 35.7398,-36.913 c 1.37017,-1.41516 2.68255,-3.18949 3.39803,-4.92783 l 3.4529,-2.148 z "/>
<path style="fill:#c8c8c8;stroke:#000;stroke-linejoin:round;stroke-linecap:round;stroke-width:.182;stroke-dashoffset:1.088" d="m 72.8811,29.7074 -2.0279,3.5127 c -5.65566,2.90278 -5.98603,0.427251 -4.2751,-4.09414 l 3.4529,-2.148 z "/>
<path style="fill:#dd8c00;stroke-width:1.146" d="m 47.0432,60.1444 -2.2247,2.2977 c -1.27525,0.202091 -2.57955,0.807513 -3.6231,1.88532 -1.0552,1.08984 -1.66289,2.43693 -1.80925,3.72536 l -10.4828,10.827 c -2.43292,2.51279 -9.06728,-3.80892 -6.61837,-6.33822 l 10.4828,-10.827 c 1.28905,-0.194113 2.61963,-0.848917 3.67484,-1.93876 1.04355,-1.07781 1.60261,-2.39692 1.75752,-3.67193 l 2.2247,-2.2977 6.6183,6.3382 z "/>
<path style="fill:#a0a0a0;stroke:#505050;stroke-width:.573" d="m 27.6827,29.1409 c -0.143227,0.07878 -0.23517,0.225914 -0.243845,0.389241 0,0.0043 0,0.009 0,0.01322 -0.0038,0.158247 0.07194,0.308491 0.202572,0.399089 0,0 5.63748,3.92318 5.98051,4.16211 0.03233,0.383158 0.31828,3.76575 0.34554,4.08498 -0.199091,0.258453 -3.22879,4.18857 -3.62356,4.70131 -0.627823,-0.287424 -7.88821,-3.61174 -7.88821,-3.61174 -0.154262,-0.07084 -0.334774,-0.053 -0.472824,0.04624 -0.120736,0.08689 -0.192611,0.225052 -0.196162,0.371961 0,0.02031 0,0.04114 0.0028,0.06198 0.384542,3.56647 2.12656,6.83869 4.5615,8.644 0.02924,0.100437 0.07271,0.198854 0.158646,0.260958 1.35094,0.973237 3.60666,1.66821 4.446,1.90592 0.01779,0.51562 0.07512,2.17176 0.07512,2.17176 0.0083,0.246923 0.205705,0.445484 0.452182,0.455696 l 2.6829,.1136 c 0.25922,0.011 0.478647,-0.189306 0.492002,-0.448469 0,0 0.07969,-1.59517 0.107131,-2.14372 0.42981,-0.06571 1.02377,-0.156748 1.02377,-0.156748 0.869824,-0.10375 6.08751,2.86491 8.29228,3.84839 0.181905,0.08096 0.39466,0.03932 0.533298,-0.103853 l 4.9444,-5.1397 c 0.158545,-0.164903 0.176533,-0.420174 0.04157,-0.605407 -1.71765,-2.36414 -4.94655,-6.73482 -4.93221,-7.32812 0.412069,-3.58624 -0.618385,-7.37283 -3.02173,-9.94864 -3.58066,-3.8376 -9.36256,-4.68108 -13.9632,-2.14403 z "/>
<path style="fill:#bb2121;stroke-width:1.146" d="m 73.0305,68.7073 c -2.09908,-2.22778 -23.3957,-20.2217 -23.3957,-20.2217 l -5.8164,5.8626 c 0,0 18.7659,19.8971 20.8639,22.1249 2.09811,2.2287 5.66687,2.29654 7.97278,0.15256 2.30449,-2.14402 2.47338,-5.68907 0.375289,-7.91824 z  m -2.3755,5.7462 c -1.07258,1.02241 -2.77125,0.981342 -3.7927,-0.09169 -1.02196,-1.0721 -0.980888,-2.77076 0.09167,-3.79176 1.07258,-1.02241 2.77125,-0.981348 3.7927,0.09169 1.02196,1.07163 0.980902,2.77029 -0.09166,3.79176 z "/>
<g style="stroke-width:.573">
<rect width="5.7237644" x="-12.243937" y="57.160694" rx="0.87665451" height="4.6670151" style="fill:#f0f0f0;stroke:#505050" transform="rotate(-49.845919)"/>
<g style="stroke-linejoin:round">
<path style="opacity:.2;fill:url(#linearGradient2)" d="m 51.1568,53.4583 14.6025,12.3838 -3.3312,3.6852 -13.3982,-13.8879 Z "/>
<rect width="14.537126" x="-36.147957" y="71.97406" height="1.5867186" style="opacity:.2;fill:url(#linearGradient4)" transform="rotate(-45.494921)"/>
<rect width="14.537126" x="-36.06184" y="69.296478" height="1.5867186" style="opacity:.2;fill:url(#linearGradient5)" transform="rotate(-45.494921)"/>
</g>
</g>
</svg>
