<svg width="96" version="1.0" xmlns="http://www.w3.org/2000/svg" height="96" xmlns:xlink="http://www.w3.org/1999/xlink">
<defs>
<linearGradient id="linearGradient3678">
<stop offset="0" style="stop-color:#888"/>
<stop offset="1" style="stop-color:#acacac"/>
</linearGradient>
<linearGradient xlink:href="#linearGradient3678" id="linearGradient1" y1="24" x1="48" y2="80" gradientUnits="userSpaceOnUse" x2="48"/>
</defs>
<path style="fill:#c8c8c8" d="M 12,6 C 8.676,6 6,8.676 6,12 V 90 H 90 V 12 C 90,8.676 87.324,6 84,6 Z"/>
<g style="color:#000">
<rect width="74" x="11" y="23" height="60" style="opacity:.99;fill:url(#linearGradient1)"/>
<g style="fill:#fff">
<rect width="72" x="12" y="24" height="58" style="opacity:.99"/>
<path style="opacity:.4" d="m 75.6074,10.8073 -1.7145,1.7142 3.3216,3.307 -1.9377,.7378 -1.3571,1.3572 2.2951,2.4766 2.7143,-2.7143 2.7142,2.7143 2.3776,-2.5366 -1.3571,-1.3572 -1.8777,-.6778 3.2609,-3.4097 -1.857,-1.7142 -3.2609,3.4097 z "/>
</g>
<path style="fill:#555" d="m 76.2148,10.2 -1.7145,1.7142 2.7143,2.7143 -2.7142,2.7143 1.7145,1.8572 2.7143,-2.7143 2.7142,2.7143 1.857,-1.8572 -2.7143,-2.7143 2.7143,-2.7143 -1.857,-1.7142 -2.7143,2.7143 z"/>
</g>
<path style="opacity:.4;fill:#fff" d="M 71.2,19.3669 60.8,19.2903 65.3566,12.3 h 1.4 z"/>
<path style="fill:#555" d="m 70.5003,18.2669 -9,-.0766 4.5566,-6.9903 z "/>
<path style="opacity:.4;fill:#fff" d="m 58.5,11.1997 -11,.0766 5.5566,8.5906 z "/>
<path style="fill:#555" d="m 57.5,11.2 -9,.0766 4.5566,6.9903 z "/>
<path style="opacity:.4;fill:#fff" d="m 22.5,11.2 -11,.0763 5.5566,8.5906 z "/>
<path style="fill:#555" d="m 21.5,11.2 -9,.0766 4.5566,6.9903 z "/>
<path style="fill:#a0a0a0;stroke:#505050;stroke-width:.573" d="m 72.8809,29.7076 -2.0279,3.5127 c -1.70863,0.996234 -3.45285,2.14795 -4.82303,3.5631 l -35.7395,36.9127 -2.85,-2.7294 35.7395,-36.9127 c 1.37016,-1.41515 2.68253,-3.18947 3.39801,-4.92779 l 3.4529,-2.148 z "/>
<path style="fill:#c8c8c8;stroke:#000;stroke-linejoin:round;stroke-linecap:round;stroke-width:.182;stroke-dashoffset:1.088" d="m 72.8809,29.7076 -2.0279,3.5127 c -5.65562,2.90276 -5.98598,0.427247 -4.27507,-4.0941 l 3.4529,-2.148 z "/>
<path style="fill:#dd8c00" d="m 47.0433,60.1444 -2.2247,2.2977 c -1.27524,0.20209 -2.57953,0.807506 -3.62308,1.88531 -1.05519,1.08983 -1.66288,2.43691 -1.80924,3.72533 l -10.4827,10.8269 c -2.4329,2.51277 -9.0672,-3.80889 -6.61832,-6.33817 l 10.4827,-10.8269 c 1.28904,-0.194111 2.61961,-0.84891 3.67481,-1.93874 1.04354,-1.0778 1.6026,-2.3969 1.7575,-3.6719 l 2.2247,-2.2977 6.6183,6.3382 z "/>
<path style="fill:#a0a0a0;stroke:#505050;stroke-width:.573" d="m 27.6829,29.1411 c -0.143226,0.07878 -0.235168,0.225912 -0.243844,0.389238 0,0.0043 0,0.009 0,0.01322 -0.0038,0.158246 0.07194,0.308489 0.202571,0.399086 0,0 5.63744,3.92315 5.98047,4.16208 0.03233,0.383154 0.318277,3.76572 0.345537,4.08495 -0.199089,0.258451 -3.22877,4.18853 -3.62353,4.70127 -0.627818,-0.287422 -7.88815,-3.61172 -7.88815,-3.61172 -0.154261,-0.07084 -0.334771,-0.053 -0.47282,0.04624 -0.120736,0.08689 -0.19261,0.22505 -0.196161,0.371958 0,0.02031 0,0.04114 0.0028,0.06198 0.384539,3.56644 2.12655,6.83864 4.56147,8.64394 0.02924,0.100436 0.07271,0.198852 0.158645,0.260955 1.35093,0.97323 3.60663,1.6682 4.44597,1.9059 0.01779,0.515615 0.07512,2.17174 0.07512,2.17174 0.0083,0.246921 0.205704,0.44548 0.452179,0.455692 l 2.6829,.1136 c 0.259218,0.011 0.478643,-0.189305 0.491998,-0.448466 0,0 0.07969,-1.59515 0.10713,-2.14371 0.429807,-0.06571 1.02376,-0.156748 1.02376,-0.156748 0.869817,-0.103748 6.08746,2.86489 8.29222,3.84836 0.181904,0.08096 0.394657,0.03932 0.533294,-0.103851 l 4.9443,-5.1396 c 0.158543,-0.164902 0.17653,-0.42017 0.04157,-0.605403 -1.71764,-2.36412 -4.94651,-6.73476 -4.93217,-7.32806 0.412066,-3.58622 -0.61838,-7.37277 -3.02171,-9.94856 -3.58063,-3.83758 -9.36248,-4.68104 -13.9631,-2.14402 z "/>
<path style="fill:#bb2121;stroke-width:1.146" d="m 73.0304,68.7072 c -2.09906,-2.22776 -23.3955,-20.2216 -23.3955,-20.2216 l -5.8163,5.8625 c 0,0 18.7657,19.897 20.8638,22.1247 2.09809,2.22868 5.66683,2.29652 7.97272,0.15256 2.30447,-2.144 2.47336,-5.68903 0.375285,-7.91818 z  m -2.3755,5.7462 c -1.07258,1.0224 -2.77123,0.981334 -3.79267,-0.09169 -1.02195,-1.07209 -0.980881,-2.77074 0.09167,-3.79173 1.07258,-1.02241 2.77123,-0.98134 3.79267,0.09169 1.02196,1.07162 0.980894,2.77027 -0.09166,3.79173 z "/>
<rect width="5.7237191" x="-12.243891" y="57.160885" rx="0.87664759" height="4.6669784" style="fill:#f0f0f0;stroke:#505050;stroke-width:.573" transform="rotate(-49.845919)"/>
</svg>
