<svg width="96" version="1.0" xmlns="http://www.w3.org/2000/svg" height="96" xmlns:xlink="http://www.w3.org/1999/xlink">
<defs id="defs2410">
<linearGradient id="linearGradient3678">
<stop offset="0" style="stop-color:#888" id="stop3680"/>
<stop offset="1" style="stop-color:#acacac" id="stop3682"/>
</linearGradient>
<linearGradient id="linearGradient3684" xlink:href="#linearGradient3678" y1="24" x1="48" y2="80" x2="48" gradientUnits="userSpaceOnUse"/>
</defs>
<g style="stroke:none;color:#000" id="g15">
<path style="fill:#c8c8c8" id="rect2419" d="M 6,6 90,6 90,90 6,90 Z"/>
<g style="stroke-width:1.5" id="g18">
<rect width="74" x="11" y="23" height="60" style="opacity:.99;fill:url(#linearGradient3684)" id="rect3674"/>
<rect width="72" x="12" y="24" height="58" style="opacity:.99;fill:#fff" id="rect3676"/>
</g>
<g style="fill:#1a1a1a" id="g62">
<path id="path3811" d="m 14,7.4806265 2,0 L 15,9 14,7.4806265 Z"/>
</g>
</g>
<path style="stroke-opacity:.627;fill:#cfcfcf;fill-rule:evenodd;stroke:#000;stroke-width:.105" id="path3079" d="m 84.2507,8.4534 a 1.94434,1.99876 0 0,1 -3.88868,0 1.94434,1.99876 0 1,1 3.88868,0 z "/>
<path style="fill:#1a1a1a;stroke:none;color:#000;stroke-width:1.5" id="rect3822-5" d="m 81.5597,7.2355 -.4536,.4662 .7181,.7382 -.7181,.7382 .4536,.5051 .7181,-.7382 .7181,.7382 .4913,-.5051 -.7181,-.7382 .7181,-.7382 -.4913,-.4662 -.7181,.7382 -.7181,-.7382 z "/>
<g style="stroke-opacity:.627;fill:#cfcfcf;fill-rule:evenodd;stroke:#000;stroke-width:.086" id="g74" transform="matrix(1.1029963,0,0,0.99876136,-8.6799138,0.01046269)">
<path id="path3079-1" d="m 83.9391,14.3456 a 1.6077,1.6077 0 1,1 -3.21541,0 1.6077,1.6077 0 1,1 3.21541,0 z " transform="matrix(1.0964584,0,0,1.2447823,-14.167197,-9.4167389)"/>
<path id="path3079-2" d="m 83.9391,14.3456 a 1.6077,1.6077 0 1,1 -3.21541,0 1.6077,1.6077 0 1,1 3.21541,0 z " transform="matrix(1.0964584,0,0,1.2447823,-21.023726,-9.4167389)"/>
</g>
<g style="fill:#1a1a1a;stroke:none" id="g78" transform="matrix(1.1029963,0,0,0.99876136,-8.6799138,0.01046269)">
<path id="path3811-5" d="m 75.0332,7.6542 2.1929,0 -1.0965,1.8913 -1.0965,-1.8913 z"/>
<path id="path3811-1" d="M 70.3627,9.2485 68.1699,9.2279 69.2801,7.347 70.3627,9.2485 Z"/>
</g>
<g id="g4226" transform="matrix(1.14614,0,0,1.14614,20.51507,25.590351)">
<path style="fill:#a0a0a0;stroke:#505050;stroke-width:.5" id="rect3006" d="m 45.6889,3.5923 -1.7693,3.0648 c -1.49077,0.869208 -3.01259,1.87407 -4.20806,3.10878 l -31.1825,32.2061 -2.4866,-2.3814 31.1825,-32.2061 C 38.4204,6.14977 39.56543,4.60169 40.18968,3.08501 l 3.0126,-1.8741 z"/>
<path style="fill:#c8c8c8;stroke:#000;stroke-linejoin:round;stroke-linecap:round;stroke-width:.159;stroke-dashoffset:1.088" id="path3925" d="M 45.6889,3.5923 43.9196,6.6571 C 38.98511,9.18974 38.69687,7.029871 40.18963,3.08502 l 3.0126,-1.8741 z"/>
<path style="fill:#dd8c00;stroke:none" id="rect3956" d="m 23.1457,30.1482 -1.941,2.0047 c -1.11264,0.176322 -2.25062,0.704544 -3.16111,1.64492 -0.920649,0.950869 -1.45085,2.12619 -1.57855,3.25033 l -9.1461,9.4464 C 5.19625,48.68693 -0.59214,43.17132 1.5445,40.96454 l 9.1461,-9.4464 c 1.12468,-0.169361 2.28559,-0.740669 3.20625,-1.69154 0.910486,-0.940372 1.39826,-2.09128 1.53341,-3.20371 l 1.941,-2.0047 5.7744,5.53 z"/>
<path style="fill:#a0a0a0;stroke:#505050;stroke-width:.5" id="path6" d="M 6.2539,3.098 C 6.128936,3.166734 6.048717,3.295107 6.041148,3.437608 c -9e-5,0.00371 -1.89e-4,0.00783 -2.79e-4,0.011539 -0.0033,0.138068 0.06277,0.269154 0.176742,0.3482 0,0 4.91863,3.42292 5.21792,3.63139 0.02821,0.3343 0.277695,3.28557 0.301479,3.56409 -0.173704,0.225497 -2.81708,3.65447 -3.16151,4.10183 -0.547767,-0.250774 -6.88236,-3.1512 -6.88236,-3.1512 -0.134592,-0.06181 -0.292086,-0.04624 -0.412533,0.04034 -0.105341,0.07581 -0.168051,0.196355 -0.171149,0.324531 -4.22e-4,0.01772 3.56e-4,0.03589 0.0024,0.05408 0.335508,3.1117 1.8554,5.96667 3.97985,7.54178 0.02551,0.08763 0.06344,0.173497 0.138417,0.227682 1.17868,0.849137 3.14676,1.45549 3.87908,1.66289 0.01552,0.449871 0.06554,1.89483 0.06554,1.89483 0.0072,0.215437 0.179475,0.388679 0.394523,0.397589 l 2.3408,0.0991 c 0.226166,0.0096 0.417613,-0.165167 0.429265,-0.391284 0,0 0.06953,-1.39176 0.09347,-1.87037 0.375004,-0.05733 0.893228,-0.136761 0.893228,-0.136761 0.75891,-0.09052 5.31127,2.4996 7.23491,3.35767 0.15871,0.07064 0.344336,0.03431 0.465296,-0.09061 l 4.3139,-4.4843 c 0.138328,-0.143876 0.154022,-0.366596 0.03627,-0.52821 -1.49863,-2.06268 -4.3158,-5.87604 -4.30329,-6.39369 0.359525,-3.12895 -0.539533,-6.4327 -2.63642,-8.68006 -3.12408,-3.34826 -8.16871,-4.08418 -12.1827,-1.87064 z"/>
<path style="fill:#bb2121" id="path68" d="M 45.8193,37.6192 C 43.98788,35.67549 25.4069,19.976 25.4069,19.976 l -5.0747,5.115 c 0,0 16.373,17.36 18.2035,19.3037 1.83057,1.94451 4.94427,2.0037 6.95615,0.133107 2.01064,-1.87063 2.15799,-4.96364 0.327434,-6.90856 z m -2.0726,5.0135 c -0.935815,0.892039 -2.41788,0.856208 -3.30908,-0.08 -0.891643,-0.935393 -0.855812,-2.41745 0.07998,-3.30826 0.935815,-0.892042 2.41788,-0.856213 3.30908,0.08 0.891651,0.934983 0.855824,2.41704 -0.07997,3.30826 z"/>
<rect width="4.9939094" x="-5.1598392" y="21.794134" rx="0.76486957" ry="0.76486957" height="4.0719094" style="fill:#f0f0f0;stroke:#505050;stroke-width:.5" id="rect3853" transform="matrix(0.64484535,-0.76431308,0.76431308,0.64484535,0,0)"/>
</g>
</svg>
