<svg xmlns="http://www.w3.org/2000/svg" viewBox="0 0 48 48"><g fill-rule="evenodd"><path fill="#2ecc71" d="m7.196 40.765v-23.815c0-7.307 8.444-14.45 17.328-14.45 8.884 0 16.281 7.416 16.281 14.45v23.815c0 3.518-1.299 4.761-3.183 4.734-1.884-.027-2.984-1.728-3.481-3.298-.498-1.57-1.132-2.863-3.227-2.916-2.096-.053-3.077 1.431-3.437 2.916-.36 1.485-1.03 3.292-3.133 3.298-2.103.005-2.974-1.932-3.341-3.298-.367-1.366-1.152-2.956-3.262-2.916-2.11.039-2.892 1.596-3.212 2.916-.32 1.32-1.234 3.302-3.568 3.298-2.334-.004-3.764-1.221-3.764-4.734"/><g fill="#fff"><circle cx="15.948" cy="19.226" r="5"/><circle cx="32.05" cy="19.226" r="5"/></g><ellipse cx="17.829" cy="19.879" rx="1.822" ry="1.822"/><ellipse cx="33.832" cy="19.879" rx="1.822" ry="1.822"/></g></svg>