<svg width="48" version="1.0" xmlns="http://www.w3.org/2000/svg" height="48">
<path style="fill:#878787" id="path3874" d="m 8.7292,4.4361 -.0184,39.2633 20.7773,.0163 9.9124,-.7954 .5959,-10.0153 .012,-7.2011 .0171,-21.2563 z "/>
<path style="fill:#ebebeb" id="path3856" d="m 39.424,5.037 -30.0948,0 -.0184,38.0624 20.1773,.0163 9.3116,-.7954 .5959,-9.4153 l .0124,-7.201 Z "/>
<path style="fill:#2f8ec9" id="path3083" d="m 25.092,5.037 c -1.78136,1.75624 -3.29494,4.02716 -4.56856,6.59777 -2.11489,4.26856 -2.65926,7.89318 -1.57813,10.8711 1.08112,2.97791 3.60912,4.86966 7.56445,5.66406 4.15749,0.835003 8.02482,0.252971 11.6016,-1.75 0.39838,-0.223096 0.913322,-0.458579 1.29667,-0.712972 v -0.0039 -4.51705 c -1.18341,1.51422 -2.54101,2.78641 -3.89823,3.75541 -2.68742,1.91866 -5.4566,2.60093 -8.3125,2.02734 -2.71693,-0.545675 -4.31831,-2.11101 -4.76562,-4.68555 -0.42877,-2.58395 0.328195,-5.847 2.28906,-9.80469 1.50178,-3.03112 3.23251,-5.5963 5.1503,-7.44152 Z "/>
<g style="fill-rule:evenodd;stroke:none">
<path style="fill:#282828" id="path4046" d="m .8184,40.3643 c -0.053462,0.03515 -0.033804,0.128583 -0.023486,0.191898 0.090543,0.555393 0.352978,1.07232 0.732583,1.52541 0.037463,0.0447 0.098204,0.123812 0.148252,0.09446 2.72238,-1.59596 5.41564,-3.20417 8.53711,-4.60762 2.20789,-0.992699 4.39678,-1.64166 6.70546,-2.02946 6.34894,-1.06648 13.602,-1.15207 20.3611,-1.80358 0.262773,-0.0019 0.467065,-0.192877 0.465592,-0.394181 -0.0019,-0.278889 -0.03226,-0.510493 -0.03419,-0.774977 -0.0011,-0.144265 -0.189439,-0.333507 -0.395907,-0.325693 -6.76864,0.256153 -13.9144,1.00735 -20.5712,1.61151 -3.07226,0.278832 -5.1782,0.971042 -7.32344,1.87166 -3.02973,1.27193 -5.95038,2.89719 -8.60179,4.64057 z "/>
<path style="fill:#858585" id="path2290" d="m .8048,33.5079 c 0.310823,0.430177 0.819256,0.386101 1.03028,0.372004 2.51758,-0.325231 4.9115,-0.243618 6.84437,-0.223219 0.772366,0.0081 1.39929,-0.136032 1.79783,-0.128066 l .0425,-.6881 c -0.411928,-0.0064 -1.05175,-0.161068 -1.8196,-0.157995 -1.93958,0.0077 -4.63041,0.466126 -6.74362,0.16766 l -1.1525,.0085 .0008,.6493 z "/>
<path style="fill:#282828" id="path2264" d="m 47.2896,40.0241 c 0.05397,0.03437 0.03569,0.128069 0.0263,0.191531 -0.0824,0.55666 -0.337241,1.07737 -0.710171,1.53597 -0.03681,0.04525 -0.09638,0.125236 -0.146854,0.09664 -2.74545,-1.55594 -5.46195,-3.12455 -8.60364,-4.48218 -2.2222,-0.960275 -4.42035,-1.57712 -6.73445,-1.93109 -6.36388,-0.973422 -13.6174,-0.952836 -20.3853,-1.50533 -0.262773,0.0019 -0.469836,-0.18602 -0.471306,-0.387324 -0.002,-0.278889 0.02479,-0.510913 0.02283,-0.775396 -0.0011,-0.144267 0.184536,-0.336247 0.391098,-0.331455 6.77164,0.157042 13.9276,0.803555 20.5926,1.31021 3.07601,0.233831 5.19187,0.89514 7.35008,1.76426 3.04803,1.22745 5.99215,2.80977 8.66882,4.51417 z "/>
<path style="fill:#3c3c3c" id="path3789" d="m 11.8438,28.7812 c -2.84068,0.01792 -4.88214,0.365934 -7.59375,1.75 -0.672134,0.343072 -1.29548,0.83183 -1.4375,1.46875 -0.241055,1.08102 -0.194545,2.22591 0.25,3.625 0.332803,1.04742 0.84986,1.70764 1.5,2.15625 3.48337,2.40359 10.6204,3.29996 15.25,-0.65625 1.09716,-0.937576 1.2008,-2.52259 1.25,-4.0625 0.02001,-0.627132 -0.188263,-1.37862 -0.4375,-1.65625 -0.899274,-1.00168 -1.91566,-1.73795 -5.59375,-2.34375 -1.10955,-0.182745 -2.16002,-0.287731 -3.1875,-0.28125 z  m 0,1.3564 c 0.844314,-0.0052 1.71325,0.07075 2.625,0.21875 3.0224,0.490651 3.79231,0.894826 4.53125,1.70613 0.204806,0.224858 0.360215,0.773313 0.34375,1.28125 -0.04043,1.24723 -0.0884,2.47109 -1,3.21875 -3.29576,2.70315 -9.72545,2.33482 -12.4062,0.53125 -0.5361,-0.360675 -0.976524,-0.901658 -1.25,-1.75 -0.365299,-1.13316 -0.354332,-1.99945 -0.15625,-2.875 0.116704,-0.515862 0.562294,-0.868181 1.125,-1.125 1.82875,-0.834649 3.85322,-1.19161 6.1875,-1.20613 z "/>
<path style="fill:#bebebe" id="path2268" d="m .8254,32.5475 c 0.287418,-0.119228 1.44873,-0.404515 2.15051,-0.427976 -0.165458,0.414474 -0.105008,0.751806 -0.015054,1.07906 l -1.8129,.0821 c -0.106682,0.06159 -0.213588,0.09159 -0.319524,0.254859 -0.226564,-0.2242 -0.240536,-0.889536 -0.00308,-0.988082 z "/>
<path style="fill:#858585" id="path4038" d="m 47.2028,33.1683 c -0.304495,0.43468 -0.813518,0.398051 -1.02472,0.387047 -2.52208,-0.288343 -4.91455,-0.171695 -6.84692,-0.123005 -0.772161,0.01945 -1.40113,-0.115539 -1.79952,-0.101733 l -.0526,-.6874 c 0.41179,-0.01238 1.04928,-0.176446 1.81709,-0.184614 1.93949,-0.02062 4.63672,0.398294 6.74535,0.06893 l 1.1525,-.0085 .0089,.6492 z "/>
<path style="fill:#3c3c3c" id="path3793" d="m 36.0938,28.625 c -1.02747,0.0086 -2.08075,0.113531 -3.1875,0.3125 -3.66885,0.659569 -4.64674,1.42276 -5.53125,2.4375 -0.245147,0.281246 -0.43547,1.02948 -0.40625,1.65625 0.07174,1.53904 0.16726,3.11373 1.28125,4.03125 4.678,3.85295 11.7554,2.98994 15.25,0.40625 0.635156,-0.469592 1.18256,-1.10407 1.5,-2.15625 0.424017,-1.40544 0.413104,-2.54763 0.15625,-3.625 -0.151332,-0.634775 -0.7589,-1.1074 -1.4375,-1.4375 -2.5055,-1.21879 -4.78436,-1.64867 -7.625,-1.625 z  m -.0625,1.4186 c 2.31289,-0.01888 4.33212,0.316842 6.15625,1.11263 0.561282,0.244863 1.03303,0.556259 1.15625,1.0625 0.209136,0.859218 0.188996,1.72289 -0.15625,2.84375 -0.258463,0.839133 -0.661664,1.35603 -1.1875,1.71875 -2.62949,1.81381 -8.9761,2.27084 -12.2812,-0.34375 -0.914165,-0.723164 -1.00408,-1.8976 -1.0625,-3.125 -0.02378,-0.499858 0.144144,-1.05695 0.34375,-1.28125 0.720198,-0.809272 1.45026,-1.24286 4.4375,-1.76888 0.901146,-0.158675 1.75717,-0.211956 2.59375,-0.21875 z "/>
<path style="fill:#bebebe" id="path4064" d="m 47.1681,32.2083 c -0.289135,-0.115007 -1.45449,-0.383266 -2.15654,-0.396453 0.171507,0.412008 0.116,0.75019 0.03085,1.07873 l 1.814,.0556 c 0.107568,0.06002 0.214904,0.08846 0.323219,0.250155 0.223257,-0.227493 0.227488,-0.892962 -0.0115,-0.988022 z "/>
<path style="fill:#3c3c3c" id="path2867" d="m 20.6902,32.6776 c 1.72384,-1.32222 6.07839,-1.03877 6.65479,-0.08118 l .226,-1.2205 c -2.23611,-1.01451 -4.73617,-0.913235 -7.076,0.09822 l .1952,1.2035 z "/>
<g style="fill:#fff">
<path style="opacity:.7" id="path3799" d="m 11.8438,30.1376 c 0.844314,-0.0052 1.71325,0.07075 2.625,0.21875 3.0224,0.490651 3.79231,0.894826 4.53125,1.70613 0.204806,0.224858 0.360215,0.773313 0.34375,1.28125 -0.04043,1.24723 -0.0884,2.47109 -1,3.21875 -3.29576,2.70315 -9.72545,2.33482 -12.4062,0.53125 -0.5361,-0.360675 -0.976524,-0.901658 -1.25,-1.75 -0.365299,-1.13316 -0.354332,-1.99945 -0.15625,-2.875 0.116704,-0.515862 0.562294,-0.868181 1.125,-1.125 1.82875,-0.834649 3.85322,-1.19161 6.1875,-1.20613 z "/>
<path style="opacity:.7" id="path3805" d="m 36.0312,30.0436 c 2.31289,-0.01888 4.33212,0.316842 6.15625,1.11263 0.561282,0.244863 1.03303,0.556259 1.15625,1.0625 0.209136,0.859218 0.188996,1.72289 -0.15625,2.84375 -0.258463,0.839133 -0.661664,1.35603 -1.1875,1.71875 -2.62949,1.81381 -8.9761,2.27084 -12.2812,-0.34375 -0.914165,-0.723164 -1.00408,-1.8976 -1.0625,-3.125 -0.02378,-0.499858 0.144144,-1.05695 0.34375,-1.28125 0.720198,-0.809272 1.45026,-1.24286 4.4375,-1.76888 0.901146,-0.158675 1.75717,-0.211956 2.59375,-0.21875 z "/>
</g>
</g>
</svg>
