<svg width="48" version="1.1" xmlns="http://www.w3.org/2000/svg" height="48" xmlns:xlink="http://www.w3.org/1999/xlink">
<defs id="defs4">
<linearGradient id="linearGradient4149">
<stop offset="0" style="stop-color:#ff5757;stop-opacity:.941" id="stop4151"/>
<stop offset="1" style="stop-color:#640000" id="stop4153"/>
</linearGradient>
<linearGradient id="linearGradient3931-3">
<stop offset="0" style="stop-color:#1e1e1e" id="stop4163"/>
<stop offset="0.65336883" style="stop-color:#1e1e1e" id="stop4169"/>
<stop offset="1" style="stop-color:#646464" id="stop4165"/>
</linearGradient>
<linearGradient id="linearGradient3849-9">
<stop offset="0" style="stop-color:#8dceff" id="stop4191"/>
<stop offset="1" style="stop-color:#00438c" id="stop4193"/>
</linearGradient>
<linearGradient gradientTransform="matrix(1.0541065,0,0,1.0541065,0.88404824,-54.596476)" xlink:href="#linearGradient3931" id="linearGradient4145" y1="1021.6815" x1="40.592285" y2="1034.2355" gradientUnits="userSpaceOnUse" x2="40.579536"/>
<linearGradient id="linearGradient3849">
<stop offset="0" style="stop-color:#fff" id="stop3851"/>
<stop offset="1" style="stop-color:#a0a0a0" id="stop3853"/>
</linearGradient>
<linearGradient id="linearGradient3931">
<stop offset="0" style="stop-color:#646464" id="stop3933"/>
<stop offset="1" style="stop-color:#1e1e1e" id="stop3935"/>
</linearGradient>
<radialGradient fx="8.0337906" fy="1031.9712" cx="8.0337906" cy="1031.9712" gradientTransform="matrix(1.1677648,-0.99852579,0.5848322,0.68395476,-604.27557,334.06996)" xlink:href="#linearGradient3931-3" id="radialGradient4167" r="7.885613" gradientUnits="userSpaceOnUse"/>
<radialGradient fx="-11.56059" fy="20.076797" cx="-11.56059" cy="20.076797" gradientTransform="matrix(1.1869255,-0.02888997,0.03060658,1.2574505,38.89444,995.45901)" xlink:href="#linearGradient4149" id="radialGradient4141" r="5.2232141" gradientUnits="userSpaceOnUse"/>
<radialGradient fx="21.591667" fy="4.6041312" cx="21.591667" cy="4.6041312" gradientTransform="matrix(0.37940827,1.6915894,-0.79558117,0.17844172,21.066798,973.57145)" xlink:href="#linearGradient3931" id="radialGradient4139" r="9.546875" gradientUnits="userSpaceOnUse"/>
<radialGradient fx="21.55192" fy="1030.1448" cx="21.55192" cy="1030.1448" gradientTransform="matrix(-0.25052675,1.6383625,-2.0041541,-0.30646099,2090.1152,1309.5685)" xlink:href="#linearGradient3849" id="radialGradient3809" r="12.575385" gradientUnits="userSpaceOnUse"/>
<radialGradient fx="9.6734276" fy="22.346552" cx="9.6734276" cy="22.346552" gradientTransform="matrix(1.2806575,-0.30758866,0.24868148,1.0353952,-9.6365297,1007.5622)" xlink:href="#linearGradient3849-9" id="radialGradient4187" r="6.0712895" gradientUnits="userSpaceOnUse"/>
</defs>
<g style="stroke:none" id="layer1" transform="translate(0,-1004.3622)">
<path style="stroke-opacity:.941;fill:url(#radialGradient4187);fill-rule:evenodd;stroke-linejoin:round;stroke-linecap:square;stroke-width:1.005" id="path4174" d="m 9.5052,1026.1221 a 6.64897,6.64897 0 0,0 -6.64844,6.6506 6.64897,6.64897 0 0,0 1.84821,4.5927 l 11.0358,-2.3103 a 6.64897,6.64897 0 0,0 0.414993,-2.2824 6.64897,6.64897 0 0,0 -6.65058,-6.6506 z "/>
<path style="fill:url(#radialGradient4167)" id="path3789" d="m 16.7712,1022.5707 -8.1544,.7939 c 0,0 -2.45305,1.7261 -3.76467,2.447 -1.05803,0.5816 -3.29408,1.5058 -3.29408,1.5058 l .847,.9412 c 0,0 -1.02354,1.4262 -1.22352,2.2588 -0.293155,1.2205 -0.209533,2.5466 0.094117,3.7647 0.271508,1.0891 0.763055,2.1703 1.50587,3.0116 0.449155,0.5089 1.6941,1.1296 1.6941,1.1296 l .4706,-.6589 c 0,0 0.706488,-0.21 0.941167,-0.4707 0.179341,-0.1991 0.321226,-0.4876 0.28235,-0.7528 -0.142877,-0.9747 -1.38326,-1.4549 -1.78822,-2.3529 -0.263035,-0.5835 -0.356676,-1.2429 -0.376467,-1.8824 -0.021545,-0.6963 0.28235,-2.0706 0.28235,-2.0706 l 1.5059,1.0354 c 0,0 0.2221,0.8848 0.5647,1.1294 0.386428,0.2757 0.962071,0.3404 1.41175,0.1883 0.420242,-0.1424 0.857265,-0.5056 0.941167,-0.9413 0.09037,-0.4692 -0.216522,-0.9903 -0.5647,-1.3177 -0.679647,-0.6388 -1.83642,-0.4595 -2.63527,-0.9411 -0.43738,-0.2636 -1.1294,-1.0352 -1.1294,-1.0352 0,0 1.08927,-1.2633 1.78822,-1.6941 1.02215,-0.6301 3.3882,-1.2236 3.3882,-1.2236 l 6.0999,1.155 z "/>
<path style="fill:url(#radialGradient4139)" id="path3015" d="m 22.625,1005.7553 c -0.420755,3.8386 -2.08058,7.379 -3.59055,10.5411 -1.06699,2.2344 -2.15519,4.9514 -2.89825,7.4318 6.53683,1.2645 16.4683,0.5055 20.1261,-0.2957 -1.31165,-4.201 -3.60693,-8.4231 -6.29149,-11.2867 -2.36871,-2.5266 -4.8137,-4.3033 -7.3458,-6.3905 z "/>
<path style="fill:url(#linearGradient4145)" id="path3791" d="m 36.1268,1023.8693 c 0,0 2.06795,0.4094 2.60926,0.8556 0.397045,0.3273 0.814704,0.7247 0.941167,1.2235 0.500455,1.9737 2.1217,5.4161 2.1217,5.4161 0,0 -0.262585,-1.5442 0.188233,-2.0706 0.252428,-0.2947 1.1294,-0.2823 1.1294,-0.2823 0,0 0.207493,-1.2521 0.188233,-1.8824 -0.03591,-1.1754 -1.10061,-2.4356 -0.564699,-3.4823 0.319697,-0.6244 1.29524,-1.0365 1.88233,-0.9412 0.587091,0.095 0.821944,0.5964 1.03528,1.0353 0.34531,0.7104 0.369013,1.5678 0.28235,2.3528 -0.06204,0.5622 -0.564699,1.6001 -0.564699,1.6001 0,0 1.27927,1.9125 1.50587,3.0117 0.222037,1.0771 0.117916,2.2377 -0.188234,3.2941 -0.26973,0.9307 -0.542758,2.1124 -1.41175,2.5412 -0.767927,0.3788 -1.81061,0.07 -2.54115,-0.3766 -0.460483,-0.2814 -0.860907,-0.7837 -0.941166,-1.3175 -0.04425,-0.2943 0.28235,-0.8471 0.28235,-0.8471 l -1.4117,-.4706 -2.5663,-3.4482 z "/>
<path style="fill:url(#radialGradient3809)" id="path3787" d="m 36.2623,1023.4325 c -7.69973,0.9384 -9.95834,1.0565 -20.1261,0.2957 -0.868589,2.1286 -1.23408,3.6788 -1.71346,5.8104 -0.865626,3.8491 -1.9488,7.8119 -1.86717,11.4652 0.03368,1.5071 0.1611,3.0186 0.648362,4.4452 0.432523,1.2663 1.0871,2.636 2.27292,3.294 0.75871,0.4212 1.6689,0.5431 2.53644,0.56 2.84685,0.056 5.39454,-2.8531 7.80698,-2.7999 2.01197,0.044 3.62559,1.7896 5.17171,2.6353 1.21886,0.6667 2.41189,1.5894 3.78819,1.7788 0.998579,0.1373 2.2329,0.104 3.55761,-1.4165 1.57986,-1.813 2.03225,-4.5078 2.18503,-6.9078 0.277632,-4.3613 -0.633169,-8.3609 -1.98738,-12.659 -0.643589,-2.0427 -1.56649,-4.553 -2.27313,-6.5014 z "/>
<circle cx="26.719069" cy="1023.0352" style="fill:url(#radialGradient4141);fill-rule:evenodd" r="6.0705237" id="path3785"/>
</g>
</svg>
