<svg width="96" version="1.0" xmlns="http://www.w3.org/2000/svg" height="96" xmlns:xlink="http://www.w3.org/1999/xlink">
<defs id="defs2410">
<linearGradient id="linearGradient3678">
<stop offset="0" style="stop-color:#888" id="stop3680"/>
<stop offset="1" style="stop-color:#acacac" id="stop3682"/>
</linearGradient>
<linearGradient id="linearGradient3684" xlink:href="#linearGradient3678" y1="24" x1="48" y2="80" x2="48" gradientUnits="userSpaceOnUse"/>
</defs>
<g style="stroke:none;color:#000" id="g15">
<path style="fill:#c8c8c8" id="rect2419" d="M 6,6 90,6 90,90 6,90 Z"/>
<g style="stroke-width:1.5" id="g18">
<rect width="74" x="11" y="23" height="60" style="opacity:.99;fill:url(#linearGradient3684)" id="rect3674"/>
<rect width="72" x="12" y="24" height="58" style="opacity:.99;fill:#fff" id="rect3676"/>
</g>
<g style="fill:#1a1a1a" id="g62">
<path id="path3811" d="m 14,7.4806265 2,0 L 15,9 14,7.4806265 Z"/>
</g>
</g>
<path style="stroke-opacity:.627;fill:#cfcfcf;fill-rule:evenodd;stroke:#000;stroke-width:.105" id="path3079" d="m 84.2507,8.4534 a 1.94434,1.99876 0 0,1 -3.88868,0 1.94434,1.99876 0 1,1 3.88868,0 z "/>
<path style="fill:#1a1a1a;stroke:none;color:#000;stroke-width:1.5" id="rect3822-5" d="m 81.5597,7.2355 -.4536,.4662 .7181,.7382 -.7181,.7382 .4536,.5051 .7181,-.7382 .7181,.7382 .4913,-.5051 -.7181,-.7382 .7181,-.7382 -.4913,-.4662 -.7181,.7382 -.7181,-.7382 z "/>
<g style="stroke-opacity:.627;fill:#cfcfcf;fill-rule:evenodd;stroke:#000;stroke-width:.086" id="g74" transform="matrix(1.1029963,0,0,0.99876136,-8.6799138,0.01046269)">
<path id="path3079-1" d="m 83.9391,14.3456 a 1.6077,1.6077 0 1,1 -3.21541,0 1.6077,1.6077 0 1,1 3.21541,0 z " transform="matrix(1.0964584,0,0,1.2447823,-14.167197,-9.4167389)"/>
<path id="path3079-2" d="m 83.9391,14.3456 a 1.6077,1.6077 0 1,1 -3.21541,0 1.6077,1.6077 0 1,1 3.21541,0 z " transform="matrix(1.0964584,0,0,1.2447823,-21.023726,-9.4167389)"/>
</g>
<g style="fill:#1a1a1a;stroke:none" id="g78" transform="matrix(1.1029963,0,0,0.99876136,-8.6799138,0.01046269)">
<path id="path3811-5" d="m 75.0332,7.6542 2.1929,0 -1.0965,1.8913 -1.0965,-1.8913 z"/>
<path id="path3811-1" d="M 70.3627,9.2485 68.1699,9.2279 69.2801,7.347 70.3627,9.2485 Z"/>
</g>
</svg>
