<svg width="48" version="1.0" xmlns="http://www.w3.org/2000/svg" height="48" xmlns:xlink="http://www.w3.org/1999/xlink">
<defs>
<linearGradient id="linearGradient1">
<stop offset="0" style="stop-color:#fff"/>
<stop offset="1" style="stop-color:#fff;stop-opacity:0"/>
</linearGradient>
<linearGradient id="linearGradient4199">
<stop offset="0" style="stop-color:#fff;stop-opacity:.691"/>
<stop offset="1" style="stop-opacity:0"/>
</linearGradient>
<linearGradient id="linearGradient2215">
<stop offset="0"/>
<stop offset="1" style="stop-color:#505050"/>
</linearGradient>
<linearGradient id="linearGradient2949">
<stop offset="0" style="stop-color:#fff"/>
<stop offset="1" style="stop-color:#fff;stop-opacity:.313"/>
</linearGradient>
<linearGradient id="linearGradient4152">
<stop offset="0" style="stop-color:#788492"/>
<stop offset="1" style="stop-color:#fafafa"/>
</linearGradient>
<linearGradient gradientTransform="translate(-14.76113,-6.1279532)" id="linearGradient4301" xlink:href="#linearGradient2949" y1="33.593369" x1="29.425014" y2="38.189564" x2="43.14069" gradientUnits="userSpaceOnUse"/>
<linearGradient xlink:href="#linearGradient1" id="linearGradient10" y1="38.095341" x1="38.314838" y2="33.256329" x2="35.680698" gradientUnits="userSpaceOnUse"/>
<linearGradient gradientTransform="matrix(0.955799,0.125613,-0.13219,1.005843,8.433071,-3.6596532)" id="linearGradient2552" xlink:href="#linearGradient2215" y1="29.294821" x1="26.642763" y2="20.494589" x2="32.263348" gradientUnits="userSpaceOnUse"/>
<linearGradient gradientTransform="translate(-0.386129,-1.3779532)" id="linearGradient4158" xlink:href="#linearGradient4152" y1="41.527054" x1="16.920895" y2="27.556486" x2="14.717065" gradientUnits="userSpaceOnUse"/>
<linearGradient gradientTransform="matrix(0,0.967422,0.946165,0,-16.09433,3.4374468)" id="linearGradient4277" xlink:href="#linearGradient2215" y1="38.03194" x1="26.247757" y2="36.457325" x2="23.782515" gradientUnits="userSpaceOnUse"/>
<linearGradient gradientTransform="matrix(0.943596,0,0,0.963374,6.7925609,5.2536171)" id="linearGradient4146-2" xlink:href="#linearGradient2949" y1="19.362175" x1="-5.2845793" y2="66.499512" x2="33.728188" gradientUnits="userSpaceOnUse"/>
<linearGradient gradientTransform="matrix(1.290919,0,0,1.173295,-3.854317,-7.1606262)" id="linearGradient4185" xlink:href="#linearGradient4152" y1="32.173634" x1="5.4860573" y2="27.665829" x2="12.296931" gradientUnits="userSpaceOnUse"/>
<linearGradient gradientTransform="matrix(1.015688,0,0,1,-0.427129,-1.3779532)" id="linearGradient4197" xlink:href="#linearGradient4199" y1="8.7893238" x1="5.5588484" y2="48.565983" x2="26.936853" gradientUnits="userSpaceOnUse"/>
</defs>
<g style="fill-rule:evenodd">
<path style="fill:url(#linearGradient2552);stroke:#000" d="m 1.7363,33.9864 c 6.58853,1.98434 16.2356,-0.80576 20.3976,-3.02326 8.15311,-4.34393 11.5516,1.55978 12.6675,2.31089 1.72924,1.48159 -3.5638,5.53478 -3.22833,8.83486 0.18621,1.83184 0.932,2.72651 0.932,2.72651 1.46022,-4.13412 6.07551,-2.43828 5.80977,-6.74006 3.50411,1.97766 4.2558,-1.1722 8.3216,-0.54462 -0.57459,-0.87503 -1.31621,-2.17831 -2.91057,-2.86145 -1.69942,-0.63742 -4.57206,-0.54847 -5.31811,-2.71677 -0.1362,-2.45254 -0.09908,-15.5358 -6.01899,-19.5354 -0.86489,-1.74216 0.06845,-4.22448 1.75168,-5.92042 1.522,-1.5335 3.80827,-2.94569 4.59083,-3.8463 C 35.18868,2.6323 31.65977,3.74198 28.20508,5.61101 26.40349,6.5857 24.81711,7.98712 23.69274,8.5116 13.54194,6.49857 2.35204,14.87706 1.22244,29.5794 1.13129,30.7659 1.14947,33.61876 1.7363,33.9864 Z"/>
<path style="opacity:.8;fill:none;stroke:url(#linearGradient4146-2);stroke-width:.953" d="m 2.8896,33.2355 c 5.95175,1.5581 14.5243,-1.1298 18.4516,-3.26608 7.69325,-4.18482 13.6401,1.59103 14.3395,3.28691 1.18976,1.6041 -1.21021,3.73034 -2.74982,6.82116 -0.79074,1.58743 -0.35801,2.53825 -0.35801,2.53825 1.34661,-1.94884 5.64,-1.12225 4.6705,-6.23338 3.89393,2.89894 5.18088,0.1457 7.47814,0.1619 -0.72968,-0.93673 -1.5295,-0.97091 -2.31517,-1.16028 -1.60357,-0.61408 -3.9231,-0.55872 -4.97082,-3.11634 -0.12851,-2.36272 0.49398,-13.9945 -5.79913,-19.1735 -1.08127,-1.3248 -0.91076,-3.92203 0.76899,-6.14552 0.49549,-0.65587 2.44442,-2.21908 3.18285,-3.0867 -3.07763,0.58204 -4.37456,1.12074 -7.63437,2.92132 -1.7,0.93898 -2.84333,2.20068 -3.90428,2.70595 -9.84342,-1.76252 -19.4299,5.16005 -21.6448,18.9703 -0.18152,1.13181 -0.33411,4.4218 0.48478,4.77597 z"/>
<path style="fill:url(#linearGradient4158)" d="m 5.2336,34.0301 c 6.3892,0.69308 12.9759,-1.97199 17.0374,-3.84061 7.07453,-3.30094 10.2813,0.17682 11.8646,1.69592 0.17329,0.23408 0.17166,-1.59232 -1.70203,-2.79383 -7.53362,-3.53451 2.02809,-3.56609 1.5203,-4.86389 -0.58423,-1.49315 -6.96257,-0.63649 -8.07545,-0.25378 -4,1.37561 -5.40659,3.6149 -7.43981,4.03179 -3.74463,0.71235 -6.63769,-1.31015 -9.00524,1.64618 -4.13866,5.1679 -4.8464,4.30808 -4.1998,4.37822 z"/>
<path style="fill:url(#linearGradient4197)" d="M 2.277,33.2351 C 4.8209,25.86598 13.4466,26.2962 16.8548,22.787 20.20827,19.33418 23.97175,8.5413 36.5604,19.93121 36.60642,19.97284 34.57536,14.13644 31.73854,12.20986 30.90963,10.53151 24.85069,8.54158 23.7731,9.04685 13.3375,7.10755 2.9583,15.88627 1.8757,30.13845 1.78888,31.28153 1.71451,32.88087 2.27693,33.23504 Z"/>
<path style="fill:url(#linearGradient4185)" d="m 8.1097,27.0621 c -0.673782,-0.958195 2.62956,-4.35366 3.80208,-3.67307 0.71708,1.04029 -2.31013,4.89743 -3.80208,3.67307 z"/>
<path style="fill:url(#linearGradient4277);stroke:#000;stroke-width:.967" d="m 19.4503,24.4434 c 2.71813,1.81279 9.4059,7.35877 6.23018,8.18601 -10.6212,-0.38973 -8.78372,-5.14216 -11.4975,-5.87616 -1.4638,-1.484 3.7992,-2.99764 5.26733,-2.30985 z"/>
<g style="fill:none">
<path style="stroke:url(#linearGradient4301);stroke-width:.967" d="m 19.1465,25.3582 c 2.23199,1.63601 7.41717,5.67939 6.05341,6.46243 -4.09527,-0.54841 -6.17882,-1.15527 -7.25011,-2.34494 -1.34687,-1.49569 -1.7611,-2.93063 -2.789,-3.22186 -0.218522,-0.06191 2.51757,-1.58342 3.9857,-0.89563 z"/>
<path style="opacity:.7;stroke:url(#linearGradient10);stroke-width:.953" d="m 2.8896,33.2355 c 5.95175,1.5581 14.5243,-1.1298 18.4516,-3.26608 7.69325,-4.18482 13.6401,1.59103 14.3395,3.28691 1.18976,1.6041 -1.21021,3.73034 -2.74982,6.82116 -0.79074,1.58743 -0.35801,2.53825 -0.35801,2.53825 1.34661,-1.94884 5.64,-1.12225 4.6705,-6.23338 3.89393,2.89894 5.18088,0.1457 7.47814,0.1619 -0.72968,-0.93673 -1.5295,-0.97091 -2.31517,-1.16028 -1.60357,-0.61408 -3.9231,-0.55872 -4.97082,-3.11634 -0.12851,-2.36272 0.49398,-13.9945 -5.79913,-19.1735 -1.08127,-1.3248 -0.91076,-3.92203 0.76899,-6.14552 0.49549,-0.65587 2.44442,-2.21908 3.18285,-3.0867 -3.07763,0.58204 -4.37456,1.12074 -7.63437,2.92132 -1.7,0.93898 -2.84333,2.20068 -3.90428,2.70595 -9.84342,-1.76252 -19.4299,5.16005 -21.6448,18.9703 -0.18152,1.13181 -0.33411,4.4218 0.48478,4.77597 z"/>
</g>
</g>
</svg>
