<svg width="48" version="1.1" xmlns="http://www.w3.org/2000/svg" height="48">
<g style="stroke-linecap:round">
<path style="fill:#666;stroke-width:1.539" d="M 9.1562497,5 H 38.84375 C 41.146313,5 43,6.8536875 43,9.15625 v 29.6875 C 43,41.146312 41.146313,43 38.84375,43 H 9.1562497 C 6.8536877,43 5,41.146312 5,38.84375 V 9.15625 C 5,6.8536875 6.8536877,5 9.1562497,5 Z"/>
<g style="stroke-width:.437">
<path style="fill:#80cbff" d="m 9.7778,8 c -0.984887,0 -1.77778,0.79289 -1.77778,1.77778 v 14.2222 h 16 v -16 Z "/>
<path style="fill:#fff" d="M 24,8 V 24 H 40 V 9.7777778 C 40,8.7928901 39.207111,8 38.222222,8 Z"/>
<path style="fill:#80ff66" d="m 8,24 v 14.2222 c 0,0.984888 0.79289,1.77778 1.77778,1.77778 h 14.2222 v -16 Z "/>
<path style="fill:#fff266" d="M 24,24 V 40 H 38.222222 C 39.207111,40 40,39.20711 40,38.222222 V 24 Z"/>
</g>
</g>
<path style="fill:#4d4d4d;fill-rule:evenodd" d="m .6569,12.9507 c -0.201719,0.110438 1.60878,1.29689 5.0016,2.6937 3.39304,1.39681 8.08346,4.93309 7.71596,5.50452 -1.10206,1.55223 -1.75069,3.41316 -1.30206,6.59302 0.0809,0.559737 -1.66285,1.53223 -1.53631,2.37679 0.105818,0.64263 1.94839,-0.63844 2.14945,-0.385798 0.123019,0.453479 -0.984666,2.75014 -0.537357,2.91416 0.327156,0.09722 3.20174,-2.73399 3.36885,-2.68681 4.74289,1.43385 10.9171,0.355429 11.0366,0.310018 -0.01128,-0.02491 4.43558,2.09251 4.82248,1.83943 0.975961,-1.05687 -1.84896,-2.54649 -1.37785,-3.1415 0.206567,-0.311504 3.44369,1.16902 3.60308,0.764706 0.23192,-0.7 -1.50285,-2.16874 -1.76365,-2.60414 -0.226846,-0.40145 -0.271768,-1.04799 0.310016,-1.45363 0.582006,-0.405639 6.53256,-2.68212 6.283,-4.44357 -0.431432,-3.20058 -7.55288,-3.40946 -7.66774,-3.67886 -0.05398,-0.126534 0.319272,-4.57673 -1.75676,-3.75464 -1.2782,0.475745 -0.241123,3.31224 -0.158453,3.67886 0.07628,0.337514 -0.567454,0.299707 -0.688925,0.151563 -0.271159,-0.331126 -1.16235,-3.29037 -2.21834,-2.7626 -1.48103,0.816571 -0.09039,3.36884 -0.385798,3.45152 -0.548718,0.306648 -0.517794,1.05698 -0.957606,1.6672 -0.725305,1.03945 -6.15448,-0.486219 -7.90886,-0.592479 -1.28438,-0.07582 -2.50885,0.974529 -2.62481,0.84049 -1.56392,-1.56612 -4.79817,-4.29553 -8.34289,-5.20139 -1.98785,-0.539455 -4.94499,-2.10039 -5.0636,-2.08055 Z  m 36.203,2.8659 c -0.118406,0.05113 -0.596214,2.51246 -0.365131,2.6248 0.204802,0.153221 0.558967,-2.48167 0.37202,-2.61791 -0.0032,-0.0038 -0.0032,-0.0084 -0.007,-0.007 z  m 1.7568,.3376 c -0.26861,-0.0051 -1.70093,2.28403 -1.37096,2.52835 0.204801,0.153221 1.47937,-2.43482 1.39162,-2.52146 -0.0063,-0.0051 -0.01205,-0.0068 -0.02069,-0.007 z  m -6.9444,2.7902 c 0.339335,0 0.613147,0.309459 0.613147,0.695808 0,0.386357 -0.273812,0.702707 -0.613147,0.702707 -0.339335,0 -0.613144,-0.31635 -0.613144,-0.702707 0,-0.386349 0.273809,-0.695808 0.613144,-0.695808 z  m -1.3778,.4202 c 0.261016,1.12675 0.665006,1.48268 1.88765,1.44674 -1.5562,1.42701 -2.49854,-1.01487 -1.88765,-1.44674 z  m 3.2931,2.9486 c 0.09685,-0.0077 0.170987,0.0074 0.213562,0.04824 0.613095,0.222221 -2.63075,1.39141 -2.65236,1.22629 -0.0326,-0.11381 1.7608,-1.21952 2.4388,-1.27451 z  m .3996,.744 c 0.03355,-0.0025 0.06479,0.0078 0.08957,0.02066 0.578695,0.57495 -1.8321,1.84974 -1.80498,1.80498 -0.194279,-0.117384 1.21207,-1.7866 1.71542,-1.82565 z "/>
</svg>
