<svg width="48" version="1.1" xmlns="http://www.w3.org/2000/svg" height="48" xmlns:xlink="http://www.w3.org/1999/xlink">
<defs>
<linearGradient id="linearGradient1">
<stop offset="0" style="stop-opacity:.8"/>
<stop offset="1" style="stop-color:#fff"/>
</linearGradient>
<linearGradient id="linearGradient2222">
<stop offset="0" style="stop-color:#c9cec5"/>
<stop offset="1" style="stop-color:#eeeeec"/>
</linearGradient>
<linearGradient gradientTransform="rotate(135.64118,23.563415,10.760454)" xlink:href="#linearGradient1" id="linearGradient2" y1="3.4904659" x1="52.864334" y2="-0.83853215" x2="53.012661" gradientUnits="userSpaceOnUse"/>
<linearGradient gradientTransform="matrix(1,0,0,0.921571,-2.7080474e-4,4.2781389)" xlink:href="#linearGradient2222" id="linearGradient2220" y1="25.740677" x1="35" y2="25.295452" x2="35" gradientUnits="userSpaceOnUse"/>
</defs>
<g style="stroke-linejoin:round">
<path style="fill:url(#linearGradient2220);stroke:#828480;stroke-linecap:square" d="M 7,19.5 4.75,22.2488 C 2.59941,24.87615 1.5,27.31744 1.5,31.00373 v 5.49628 h 45 v -5.49628 c 0,-3.68629 -1.09941,-6.12758 -3.25,-8.75493 L 41,19.5 Z"/>
<path style="fill:#474a48;stroke:#474a48;stroke-linecap:round" d="m 9,36.5 v 2.9062 c 0,1.15175 0.942003,2.09375 2.09375,2.09375 h 32.3121 c 1.15175,0 2.09375,-0.942005 2.09375,-2.09375 V 36.5 H 9 Z"/>
</g>
<g style="stroke-linecap:square">
<path style="fill:#f0f1ef;stroke:#828480;stroke-linejoin:round" d="m 12.1197,5.5 h 23.76 c 0.897479,0 1.62,0.665754 1.62,1.5 v 14.6869 l -27,-0.0039 V 7 c 0,-0.834246 0.72252,-1.5 1.62,-1.5 z"/>
<rect width="5.3306642" x="39.010239" y="29.97648" rx="1.7768881" height="3.728013" ry="1.864" style="fill:#57ae3d"/>
<path style="fill:#e1e4de;stroke:#646662;stroke-width:1.152" d="m 12.3619,34.5759 h 26.3763 c 0.959254,0 1.68576,1.12956 1.68576,2.30939 v 8.35139 H 7.57566 l 3.1005,-8.3514 c 0.44875,-1.20875 0.746149,-2.30938 1.68574,-2.30938 z"/>
</g>
<path style="fill:#a0a0a0;stroke:#505050;stroke-width:.5" d="m 41.7265,3.3287 c 0.124964,0.068734 0.205183,0.197107 0.212752,0.339608 9e-05,0.00371 0,0.00783 0,0.011539 0.0033,0.138068 -0.06277,0.269154 -0.176742,0.3482 0,0 -4.91863,3.42292 -5.21792,3.63139 -0.02821,0.3343 -0.277695,3.28557 -0.301479,3.56409 0.173704,0.225497 2.81708,3.65447 3.16151,4.10183 0.547767,-0.250774 6.88236,-3.1512 6.88236,-3.1512 0.134592,-0.06181 0.292086,-0.04624 0.412533,0.04034 0.105341,0.07581 0.168051,0.196355 0.171149,0.324531 0,0.01772 0,0.03589 -0.0024,0.05408 -0.335508,3.1117 -1.8554,5.96667 -3.97985,7.54178 -0.02551,0.08763 -0.06344,0.173497 -0.138417,0.227682 -1.17868,0.849137 -3.14676,1.45549 -3.87908,1.66289 -0.01552,0.449871 -0.06554,1.89483 -0.06554,1.89483 -0.0072,0.215437 -0.179475,0.388679 -0.394523,0.397589 l -2.3408,.0991 c -0.226166,0.0096 -0.417613,-0.165167 -0.429265,-0.391284 0,0 -0.06953,-1.39176 -0.09347,-1.87037 -0.375004,-0.05733 -0.893228,-0.136761 -0.893228,-0.136761 -0.75891,-0.09052 -5.31127,2.4996 -7.23491,3.35767 -0.15871,0.07064 -0.344336,0.03431 -0.465296,-0.09061 l -4.3139,-4.4843 c -0.138328,-0.143876 -0.154022,-0.366596 -0.03627,-0.52821 1.49863,-2.06268 4.3158,-5.87604 4.30329,-6.39369 -0.359525,-3.12895 0.539533,-6.4327 2.63642,-8.68006 3.12408,-3.34826 8.16871,-4.08418 12.1827,-1.87064 z "/>
<path style="fill:#bb2121" d="m 2.1611,37.8499 c 1.83142,-1.94371 20.4124,-17.6432 20.4124,-17.6432 l 5.0747,5.115 c 0,0 -16.373,17.36 -18.2035,19.3037 -1.83057,1.94451 -4.94427,2.0037 -6.95615,0.133107 -2.01064,-1.87063 -2.15799,-4.96364 -0.327434,-6.90856 z "/>
<g style="stroke-width:.5">
<rect width="4.9939094" x="-36.276169" y="-14.72917" rx="0.76486957" height="4.0719094" style="fill:#f0f0f0;stroke:#505050" transform="matrix(-0.64484535,-0.76431308,-0.76431308,0.64484535,0,0)"/>
<path style="opacity:.2;fill:url(#linearGradient2);stroke-linejoin:round" d="m 23.9705,25.6366 -16.3938,16.9738 c -2.07995,2.15353 -5.15718,-1.3567 -3.01226,-3.26509 l 17.605,-15.6636 Z "/>
</g>
</svg>
