<svg width="48" version="1.0" xmlns="http://www.w3.org/2000/svg" viewBox="0 0 48 48" height="48">
<path style="opacity:.7" d="m 4.369,12.3865 c 0.010487,7.47185 9.2279,4.52267 9.57273,7.84157 0.55737,5.36407 -14.7244,20.8436 6.58555,24.8825 11.7573,2.22835 24.2709,-5.19721 23.0154,-19.9942 -1.12911,-13.3073 -12.134,-22.0062 -23.1512,-21.9969 -10.5914,0.0088594 -16.03,3.91934 -16.0225,9.26721 Z  m 10.6578,-6.3722 c 2.99811,0 5.43138,1.70329 5.43138,3.80198 0,2.09869 -2.43325,3.80197 -5.43138,3.80197 -2.99811,0 -5.43138,-1.70329 -5.43138,-3.80197 0,-2.09869 2.43325,-3.80198 5.43138,-3.80198 z "/>
<path style="fill:#e1b637" d="m 4.369,11.767 c 0.010487,7.47185 10.1215,4.55023 9.57273,7.84157 -0.911799,5.46901 -15.0392,20.4239 6.58555,24.8825 11.7201,2.41645 24.2709,-5.19721 23.0154,-19.9942 -1.12911,-13.3073 -12.134,-22.0062 -23.1512,-21.9969 -10.5914,0.0088594 -16.03,3.91934 -16.0225,9.26721 Z  m 10.2048,-6.3722 c 2.99811,0 5.43138,1.70329 5.43138,3.80197 0,2.09869 -2.43325,3.80197 -5.43138,3.80197 -2.99811,0 -5.43138,-1.70329 -5.43138,-3.80197 0,-2.09869 2.43325,-3.80197 5.43138,-3.80197 z "/>
<path style="opacity:.7" d="m 21.7527,34.1057 c -1.08203,0.653867 0.07889,1.405 0.601045,1.84256 0.414122,0.347035 -0.207789,2.02428 -0.949431,1.28307 -0.854677,-0.854187 -1.40496,-2.04254 -1.74019,-2.07299 -1.92675,-0.175061 -0.443237,2.36888 -1.99371,1.80938 -0.927808,-0.334798 0.226573,-1.74027 -1.01238,-2.17162 -0.984272,-0.342682 -0.886481,0.710359 -1.45562,0.197259 -2.67935,-2.41558 -1.27102,-4.51393 -0.03105,-6.15265 1.23998,-1.63875 3.68955,-1.81448 5.506,-0.361344 1.81644,1.45313 2.2982,3.97372 1.07533,5.62629 z "/>
<path style="fill:#4f8b14" d="m 21.4947,33.5898 c -1.08203,0.653865 0.07889,1.40499 0.601046,1.84256 0.414121,0.347035 -0.207789,2.02428 -0.949431,1.28307 -0.854678,-0.854187 -1.40496,-2.04254 -1.74019,-2.07299 -1.92675,-0.175063 -0.443236,2.36888 -1.99371,1.80938 -0.927808,-0.334799 0.226573,-1.74027 -1.01238,-2.17162 -0.984273,-0.342682 -0.886482,0.710359 -1.45562,0.19726 -2.67935,-2.41558 -1.27102,-4.51393 -0.03105,-6.15265 1.23998,-1.63875 3.68955,-1.81448 5.506,-0.361345 1.81644,1.45313 2.2982,3.97372 1.07533,5.62629 z "/>
<path style="opacity:.7" d="m 35.753,28.3467 c -0.971618,0 -1.16622,0.670536 -1.62407,1.10252 -0.363125,0.342595 -1.89372,-0.335791 -1.13037,-0.940408 0.879697,-0.69678 1.07294,-1.51987 1.13037,-1.81587 0.330113,-1.7013 -2.92948,-0.874198 -2.25895,-2.20707 0.488248,-0.970565 2.26379,-0.04647 2.25895,-0.549205 -0.0074,-0.775186 -0.463347,-1.94628 0.508064,-2.13781 2.04394,-0.40297 4.3968,1.00607 5.50505,2.13554 1.05962,1.0799 0.471886,2.9683 -0.154627,4.30976 -0.382794,0.819599 -1.25994,2.48766 -2.27706,2.28686 -1.15414,-0.227859 0.489306,-2.18426 -1.95736,-2.18426 z "/>
<path style="fill:#429eff" d="m 35.4951,27.8308 c -0.971618,0 -1.16622,0.670538 -1.62407,1.10252 -0.363126,0.342595 -1.89372,-0.33579 -1.13037,-0.940408 0.879698,-0.696781 1.07294,-1.51987 1.13037,-1.81587 0.330112,-1.7013 -2.92948,-0.874198 -2.25895,-2.20707 0.48825,-0.970556 2.26379,-0.04646 2.25895,-0.549205 -0.0074,-0.775185 -0.463347,-1.94628 0.508063,-2.13781 2.04394,-0.40297 4.3968,1.00607 5.50505,2.13554 1.05962,1.0799 0.471886,2.9683 -0.154628,4.30976 -0.382794,0.819599 -1.25994,2.48767 -2.27706,2.28687 -1.15414,-0.227859 0.489307,-2.18427 -1.95736,-2.18427 z "/>
<path style="opacity:.7" d="m 29.8601,37.8296 c 0.986636,0 2.64246,0.16654 3.07822,0.679017 1.01893,1.19832 1.92298,-0.377913 1.14784,-1.05838 -0.893291,-0.784193 -2.08057,-1.23553 -2.13889,-1.56866 -0.335213,-1.91471 2.23296,-0.642594 1.56181,-2.14825 -0.401616,-0.900984 -1.64902,0.372893 -2.17025,-0.831572 -0.414076,-0.956869 0.604158,-0.947303 0.06271,-1.47416 -2.54895,-2.48035 -4.43869,-0.894038 -5.90229,0.485118 -1.46365,1.37918 -1.4194,3.84686 0.131743,5.54386 0.637045,0.696959 0.95008,2.37227 1.76253,2.57372 1.16578,0.289085 -0.01787,-2.20071 2.46659,-2.20071 z "/>
<path style="fill:#ef2929" d="m 29.6022,37.3137 c 0.986636,0 2.64246,0.166542 3.07822,0.679018 1.01893,1.19832 1.92298,-0.377913 1.14784,-1.05838 -0.893291,-0.784192 -2.08057,-1.23553 -2.13889,-1.56866 -0.335212,-1.91471 2.23296,-0.642594 1.56181,-2.14825 -0.401616,-0.900984 -1.64902,0.372893 -2.17025,-0.831571 -0.414077,-0.956869 0.604157,-0.947303 0.06271,-1.47416 -2.54895,-2.48035 -4.43869,-0.894038 -5.90229,0.485117 -1.46365,1.37918 -1.4194,3.84686 0.131743,5.54386 0.637043,0.696959 0.950079,2.37227 1.76253,2.57372 1.16578,0.289086 -0.01787,-2.20071 2.46659,-2.20071 z "/>
<path style="opacity:.7" d="m 32.7264,13.3593 c 0.699499,0.877543 0.118096,1.37658 0.135339,1.6776 0.09908,1.73019 2.54837,0.175036 2.22679,1.632 -0.234163,1.06092 -3.35637,-0.525268 -3.34272,0.975139 0.0071,0.77519 0.687877,1.64629 -0.206435,2.07117 -1.25984,0.426667 -0.96625,-0.201668 -2.31855,-1.02338 -1.29296,-0.785652 -1.22982,-0.05637 -2.69144,-0.931576 -2.0854,-1.24872 -0.319173,-5.06005 3.04395,-5.23412 1.40148,-0.07254 2.7612,0.341546 3.15307,0.833164 z "/>
<path style="fill:#a942ff" d="m 32.7264,12.8592 c 0.699499,0.877543 0.118096,1.37658 0.135339,1.6776 0.09908,1.7302 2.54837,0.175036 2.22679,1.632 -0.234163,1.06092 -3.35637,-0.525268 -3.34272,0.975139 0.0071,0.77519 0.687877,1.64629 -0.206435,2.07117 -1.25984,0.426667 -0.96625,-0.201668 -2.31855,-1.02338 -1.29296,-0.785652 -1.22982,-0.05637 -2.69144,-0.931576 -2.0854,-1.24872 -0.319173,-5.06005 3.04395,-5.23412 1.40148,-0.07254 2.7612,0.341546 3.15307,0.833164 z "/>
</svg>
