<svg width="96" version="1.0" xmlns="http://www.w3.org/2000/svg" height="96">
<g style="stroke:none">
<path style="fill:#3781c6" id="rect2419-8" d="m 11.9999,16.2396 72,0 c 3.324,0 6,2.676 6,6 v 51.5209 c 0,3.324 -2.676,6 -6,6 h -72 c -3.324,0 -6,-2.676 -6,-6 v -51.5209 c 0,-3.324 2.676,-6 6,-6 z "/>
<path style="opacity:.8;fill:#fff" id="path3522-9" d="m 36.2738,16.3125 c 1.65012,1.67543 0.11259,4.47323 2.60148,4.44546 1.2119,1.29549 -2.41545,0.38645 0.2036,1.38493 1.5061,0.896847 -1.5934,1.40926 0.27178,2.2141 -2.14968,0.83871 0.34844,4.3868 1.94512,5.27479 2.62795,1.67276 1.1622,-3.54159 4.0945,-3.81283 1.59336,-1.37538 4.39184,-2.25827 6.37927,-3.64186 -1.9423,-0.119223 -3.07647,-1.03331 -1.23702,-1.59955 3.38545,2.62301 0.8489,-1.24222 -1.02514,-1.85422 1.81336,-0.436146 3.57698,-0.11676 3.32537,-1.24815 1.91632,-1.06006 -1.84226,-1.40231 -3.18394,-1.16266 -4.45834,0 -8.91667,0 -13.375,0 z  m -27.8018,1.0943 c -2.44976,0.527713 -2.62064,4.95434 -0.15835,2.49629 0.604343,-1.00931 3.39708,-2.22566 0.15835,-2.49629 z  m 11.4465,.1539 c -1.41226,1.67441 0.204911,3.01688 1.37991,0.974584 0.83171,-0.852828 -0.617931,-0.943338 -1.37991,-0.974584 z  m 3.529,.3761 c -2.72875,0.956277 -0.6726,3.18623 -0.60506,3.68219 2.87457,0.751917 4.47323,-0.491617 5.56069,1.6337 2.73516,1.19189 -0.0538,3.26295 -1.08054,3.80232 1.84934,-1.21778 5.40416,3.31087 4.47226,0.91827 -1.11179,-0.613788 2.98515,0.986018 0.85962,-1.00878 -1.95607,-2.38286 0.15527,-1.06678 0.97995,-0.510642 2.80488,-1.90173 -3.1736,-2.13159 -1.68123,-4.0887 -1.30775,-0.800863 -3.02289,-3.22699 -5.33867,-2.75276 -1.55024,1.51586 -0.21415,-3.30293 -2.48861,-0.891546 -0.11789,1.34795 -0.0429,3.05842 -0.70571,0.723193 -0.44407,-0.408806 0.764,-1.3592 0.0273,-1.50724 z  m -5.5649,.0171 c -1.8316,0.461698 -1.73323,2.33286 0.518956,2.53346 0.771434,-0.664849 0.306494,-2.40756 -0.518956,-2.53346 z  m -7.1484,.5985 c -2.37908,0.426193 -1.40799,1.87661 -0.679572,2.2851 -2.94492,0.557742 4.49569,0.712839 0.79268,1.06609 -3.08079,0.930294 2.96666,2.02632 3.95877,0.923284 3.80439,0.703473 0.136908,-2.30266 -0.197041,-3.93221 -1.61275,-1.3087 -0.06365,3.0169 -1.52187,0.13938 -0.508787,0.854492 -2.12653,0.125919 -2.35297,-0.481651 z  m 75.6011,.1881 c -3.19244,0.944677 1.98418,4.50958 0.69765,1.26638 -0.12817,-0.391613 0.28819,-1.42632 -0.69765,-1.26638 z  m -66.6656,1.4363 c -2.29408,1.6301 2.91599,2.9781 -0.658894,4.19249 -0.53602,-1.51387 -1.45828,0.757419 -3.50347,-0.465148 -3.5159,1.10688 -5.31387,-0.576564 -8.25753,-1.73051 -1.76803,-0.166406 -1.10378,1.27019 -1.22088,2.6153 0,3.71738 0,7.43477 0,11.1522 1.73349,1.37899 0.676329,0.608422 0,0.228072 0.951467,2.45011 -0.419572,6.03166 3.33085,7.45685 0.637563,0.89417 3.31288,4.70356 3.43622,3.56375 -1.34121,-1.06199 -2.71735,-4.24577 -0.447896,-1.40812 2.03276,2.69738 4.77475,4.4469 8.78047,5.08879 2.19006,0.56326 3.99117,2.49949 5.91712,2.07347 1.08905,2.17071 -3.22741,4.25521 0.14491,6.27985 1.76052,2.04964 4.71618,3.39396 3.11596,6.27152 -1.11907,2.81035 -0.63993,5.87257 -1.60779,8.491 -0.30039,1.59383 2.93804,5.63922 2.65747,2.39983 0.94557,-2.25115 0.92064,-4.72816 3.14759,-6.32236 3.04711,0.01824 0.58237,-2.4774 3.607,-2.15138 1.84565,-1.82915 2.38023,-4.01126 5.49491,-4.73759 0.37205,-2.22031 5.17882,-5.62077 0.21314,-6.48523 -1.34961,-0.502964 -4.8245,-0.683819 -4.55894,-0.931988 0.53803,-2.20314 -4.49347,-2.83034 -6.63424,-3.73172 -2.81075,-1.50852 -7.03423,2.50601 -8.02451,-0.953116 -0.59088,-1.08835 -2.75133,-1.106 -1.75843,-2.78538 -1.78939,1.34561 -5.28934,0.936646 -4.37303,-1.66199 1.39157,-2.18857 6.73564,-2.29211 7.64626,0.340334 -1.26435,-2.90328 2.44394,-5.16337 4.50253,-7.22888 0.41916,-0.987259 2.90974,-1.83547 2.05268,-0.52335 1.46015,-0.03982 3.67328,-2.03214 1.07941,-1.11258 -0.0367,-1.81692 -2.27298,-1.30023 -2.998,-1.04223 1.34377,-1.61261 8.24498,-0.730978 5.35509,-3.36689 -2.2393,-0.686047 -2.05302,-4.68948 -4.318,-2.45915 0.1906,-1.3742 -4.61001,-4.06418 -4.50525,-1.7598 0.58599,2.06199 0.10714,4.43735 -1.13992,5.78895 -0.26025,-3.0215 -7.07569,-2.35371 -6.19943,-5.57345 1.26945,-1.53454 2.75285,-3.65662 2.89418,-3.46571 2.27505,-0.656768 4.10459,-2.56717 1.46783,-3.82306 -0.14092,1.09459 -1.98303,3.35295 -1.72366,0.621534 -1.70579,1.52917 -1.3162,-2.43331 -2.91375,-2.84426 z  m 54.45,1.06 c -3.99594,0.739075 -5.58007,3.62481 -7.55681,6.01498 -2.91386,0.99333 -2.80294,5.25927 0.45241,3.89679 0.87128,1.15057 -0.60951,2.9641 1.92831,1.45967 2.047,-2.04822 0.35794,-5.36088 3.84142,-6.65241 0.25374,1.00423 -3.21334,4.75405 0.83699,4.1377 3.66156,0.104462 -2.66185,0.275853 -0.88099,2.04431 -1.85027,-0.830052 -0.88884,2.26697 -3.30399,1.54626 -2.09232,0.860534 -3.46433,-0.399551 -2.98503,-1.77994 -1.64596,0.726025 0.5177,2.77422 -2.33958,2.89732 -0.64005,1.71849 -5.90338,1.45947 -2.9102,3.20936 1.3289,2.60409 -4.95154,0.163248 -3.16854,3.28824 1.52545,3.09015 4.7224,-1.02393 6.01943,-1.81878 2.50248,-1.46772 6.21066,2.5026 3.95877,2.65017 2.52508,-0.256158 2.00619,-2.07191 -0.0169,-2.77486 -1.09268,-2.14271 3.45903,1.05084 3.2066,2.12515 1.60595,2.27378 0.94462,-2.32801 2.57885,-0.290664 -0.1908,2.1491 6.57418,0.505311 3.34439,3.24432 -2.77688,0.422894 -5.51013,-0.541279 -7.90083,0.07628 -2.22511,-0.01489 -2.11347,-1.81244 -2.92358,-2.2626 -2.83037,0.173871 -6.32794,0.154209 -8.22277,1.88307 -2.04902,2.12564 -5.00383,5.09714 -2.77053,7.81133 2.23487,4.0221 7.77718,0.208628 10.963,2.58399 0.94693,0.990419 -0.8206,2.16773 1.2967,3.24054 0.79672,2.28527 -0.90448,4.45508 1.05227,6.63966 1.01184,2.05448 1.63978,5.12951 5.40576,3.25216 3.98577,-1.81357 2.92416,-5.15676 6.21294,-7.0085 -2.60227,-3.8079 3.18363,-5.47754 4.62722,-8.56889 -3.15395,0.349121 -5.96377,-2.02846 -6.72579,-4.42153 -1.32494,-1.16237 -0.98368,-2.87629 0.49633,-0.69269 2.03426,1.49042 2.07821,5.91287 5.84127,3.6378 1.72035,-0.54407 6.4186,-2.61948 2.67511,-3.56396 -2.41304,1.32148 -5.07525,-3.94863 -1.53182,-0.891848 2.57602,0.826346 4.37996,1.31869 4.37996,-1.42107 0,-7.38148 0,-14.863 0,-22.2945 -0.8024,0.619988 -2.8638,1.76503 -3.90428,1.00417 -1.79037,0.188507 -4.15389,2.82247 -3.59125,0.276283 -1.55624,-0.07792 -0.27858,2.28299 -2.41664,2.34903 -0.21529,1.21377 -2.15987,0.224766 -1.42943,1.37739 -1.50065,-0.804863 -2.77067,-3.34607 0.18614,-1.75104 4.39103,-0.996061 -2.8956,-3.2428 -3.45804,-3.78586 0.94545,-0.171281 -1.02861,-0.916251 -1.26681,-0.666819 z  m -36.2397,.6668 c -1.4615,0.92075 2.77854,1.09414 0,0 z  m -19.5224,.4958 c -1.63465,1.29284 2.60328,1.1885 0,0 z  m 9.4784,1.2824 c -1.23786,1.53325 1.82903,0.566071 0,0 z  m 27.1006,1.8124 c -1.44923,1.26153 -3.36205,-0.332007 -3.39323,0.752308 0.26265,0.32763 1.31467,2.66602 3.61945,0.940389 1.23698,-0.394322 0.74995,-1.38836 -0.22622,-1.6927 z  m -30.8558,.7523 c -2.74881,1.8151 4.6683,1.98234 0.58232,0.208174 l -.5823,-.2082 z  m 36.2623,5.0268 c -1.97909,0.975802 0.94943,3.0481 -0.0431,4.02154 -1.2401,1.63369 4.60832,-0.115078 1.48461,-1.4185 -0.22257,-1.11984 -1.83002,-2.48618 -1.44154,-2.60303 z  m -1.3347,1.9663 c -2.75739,0.589437 -0.62595,3.63268 0.35067,0.766403 0.0549,-0.166174 0.12936,-0.771961 -0.35067,-0.766403 z  m -22.0786,2.2056 c -2.56522,1.32257 -0.39843,2.6427 1.48156,2.04763 -0.38596,-0.797973 -1.46417,-1.30074 -1.48156,-2.04762 z  m 48.4553,2.2227 c 1.27995,0.488414 -2.34554,1.32276 -0.0498,2.18234 1.33598,1.18791 0.83231,3.7379 -1.3392,1.93313 0.40344,-2.01503 -2.94356,-3.51986 1.38903,-4.11547 z  m -6.5829,.0171 c -0.17366,1.29457 3.69395,3.30685 -0.47504,2.65017 -2.20475,0.195551 -5.50697,-0.05094 -2.72943,-2.12816 0.87765,-0.398383 3.18206,1.37447 1.98292,-0.282641 0.42513,-0.02051 0.82107,-0.141848 1.22155,-0.239372 z  m -12.7359,2.8041 c -1.60811,0.783348 1.11199,1.38401 0,0 z  m -40.3794,7.3008 c -0.27111,0.683873 5.08598,1.37693 1.38929,0.281279 l -.5511,-.1466 -.8382,-.1346 z  m 4.1623,.9746 c -1.62491,1.24727 3.34782,0.372634 0,0 z  m 54.3369,11.4385 c -3.53072,0.06888 -3.06133,6.9548 -0.60013,2.88032 0.2334,-0.884165 1.1689,-2.05114 0.60013,-2.88032 z "/>
</g>
</svg>
