<svg width="48" version="1.0" xmlns="http://www.w3.org/2000/svg" height="48" xmlns:xlink="http://www.w3.org/1999/xlink">
<defs id="defs4">
<linearGradient gradientTransform="translate(0.34756813,1.2031)" xlink:href="#linearGradient3770" id="linearGradient3849" y1="23.72045" x1="34.265" y2="23.72045" gradientUnits="userSpaceOnUse" x2="45.4021"/>
<linearGradient id="linearGradient3770">
<stop offset="0" style="stop-color:#ffda7d" id="stop3772"/>
<stop offset="0.30000001" style="stop-color:#ffda7d" id="stop3782"/>
<stop offset="0.30000001" style="stop-color:#ffc941" id="stop3780"/>
<stop offset="0.60000002" style="stop-color:#ffc941" id="stop3784"/>
<stop offset="0.60000002" style="stop-color:#dc9e00" id="stop3778"/>
<stop offset="1" style="stop-color:#dc9e00" id="stop3774"/>
</linearGradient>
</defs>
<g style="fill-rule:evenodd;stroke:none" id="g4167" transform="matrix(0.96584784,0.96584784,-0.96584784,0.96584784,6.2205719,-35.887323)">
<g id="g21">
<path style="fill:#d57000" id="path3801" d="m 35.4709,2.7213 c -0.450182,0.433162 -0.756585,1.11931 -0.75686,1.71227 l -0.0329,4.8821 11.0599,0.0048 0.0329,-4.8821 c 4.54e-4,-0.975182 -0.929486,-2.1394 -1.80318,-2.1399 l -7.5926,2e-4 c -0.318749,-1.846e-4 -0.637175,0.162714 -0.907284,0.422614 z"/>
<path style="fill:#d0d0d0" id="path3799" d="m 34.707,9.3157 -.0127,5.0904 11.0599,.0044 .0127,-5.09 z "/>
<path style="fill:url(#linearGradient3849)" id="path3797" d="m 34.6898,14.4037 -.0772,21.0397 11.1201,-.0145 .017,-21.0203 z "/>
<path style="fill:#e9d078" id="path1918" d="m 34.6698,35.4337 5.5406,10.1741 5.5193,-10.1692 -11.0599,-.0048 Z "/>
</g>
<path id="path3803" d="m 37.1696,40.0337 3.0408,5.5741 3.0192,-5.5692 -6.06,-.0048 z "/>
</g>
</svg>
