<svg width="48" version="1.1" xmlns="http://www.w3.org/2000/svg" height="48" xmlns:xlink="http://www.w3.org/1999/xlink">
<defs id="defs7709">
<linearGradient id="linearGradient8868">
<stop offset="0" style="stop-color:#3b1941" id="stop8870"/>
<stop offset="1" style="stop-color:#a646b7" id="stop8872"/>
</linearGradient>
<linearGradient gradientTransform="matrix(1.236264,0,0,0.549587,-5.4828866,3.775206)" xlink:href="#linearGradient8868" id="linearGradient3179" y1="10.602999" x1="12.409452" y2="13.895189" gradientUnits="userSpaceOnUse" x2="16.140554"/>
</defs>
<path style="fill:#e6e6e6;stroke:#25486d" id="rect5498" d="m 20.5312,1.5 c -3.33856,0 -6.03125,3.11123 -6.03125,6.96875 v 12.0625 c 0,3.85751 2.69269,6.96875 6.03125,6.96875 h 13.999 c 0,0 -0.123761,3.18004 -1.60133,5.03434 5.19154,0 6.42468,-5.04883 6.42468,-5.04883 l 2.1464,0.0145 c 4.01274,0 5,-3.11681 5,-6.96875 V 8.46876 c 0,-3.85751 -2.69269,-6.96875 -6.03125,-6.96875 H 20.5312 z"/>
<g style="stroke:none">
<rect width="7" x="15.642976" y="26.409245" rx="0.81387848" height="1.8602936" ry="0.93010002" style="fill:#eeeeec" id="rect8734"/>
<path style="fill:#7e408d" id="rect5189" d="m 10.9681,7.6822 c 2.85778,-1.80567 7.71538,1.41357 8.23376,3.0698 H 15.2565 C 15.194,8.40825 10.9681,7.6822 10.9681,7.6822 z"/>
<path style="fill:url(#linearGradient3179)" id="path5192" d="m 8.921,9.9272 c 1.62249,-1.85718 6.61263,-0.417414 6.61263,0.933115 l -3.7901,.5515 c 1.21534,-1.61309 -2.8225,-1.48464 -2.8225,-1.48464 z "/>
<path style="fill:#7e408d" id="path5176" d="m 16.4474,10.4818 c -6.624,0 -12.5165,5.4483 -11.9375,12.2309 1.26701,14.8421 -2.5695,12.8307 -3.00985,19.6037 0,2.05951 0.98542,3.0392 3.09205,3.0392 1.18749,0 26.2153,0.144413 28.9063,0.144413 2.11413,0 1.94897,-2.03528 1.94897,-2.03528 0,-2.63394 -6.4021,-4.84407 -8.18655,-6.77749 -1.82842,-1.97739 0.186547,-9.03358 0.186547,-9.03358 0.641306,-1.51174 1,-3.18684 1,-4.94096 0,-6.81852 -5.376,-12.2309 -12,-12.2309 z"/>
<path style="fill:#9a5ba8" id="path8838" d="m 11.0625,17.0001 c -1.33587,0 -2.44011,0.784267 -3.09375,1.75 -0.653641,0.965733 -0.96875,2.13013 -0.96875,3.28125 0,2.69482 1.99153,5.03125 4.5625,5.03125 1.07092,0 2.12758,-0.503878 3,-1.3125 0.872415,-0.808622 1.5625,-2.00929 1.5625,-3.4375 0,-1.27751 -0.668754,-2.4724 -1.5625,-3.46875 -0.893746,-0.996351 -2.08474,-1.84375 -3.5,-1.84375 z "/>
<path style="fill:#fff" id="path5157" d="m 15.0938,22.3213 c 0,2.208 -2.10588,3.70991 -3.52632,3.70991 -1.94653,0 -3.52632,-1.792 -3.52632,-4 0,-1.91879 1.08293,-4 3.02946,-4 1.94653,0 4.02318,2.54569 4.02318,4.29009 z"/>
<path style="fill:#6b1a80" id="path5162" d="m 13.0937,22.171 a 1.53617,2 0 1,1 -3.07234,0 1.53617,2 0 1,1 3.07234,0 z "/>
<path style="fill:#9a5ba8" id="path8846" d="m 25.7223,17.003 c -1.05129,0.04043 -2.00447,0.440483 -2.65625,1.15625 -1.56513,1.71879 -1.35247,4.45589 0.28125,6.25 0.698572,0.767154 1.60483,1.34984 2.625,1.5625 1.02017,0.212663 2.2139,-0.03991 3.03125,-0.9375 0.873805,-0.95959 1.07102,-2.24602 1,-3.46875 -0.07102,-1.22273 -0.402818,-2.41953 -1.1875,-3.28125 -0.874585,-0.960447 -2.05234,-1.3213 -3.09375,-1.28125 z "/>
<path style="fill:#fff" id="path5169" d="m 28.0709,18.9849 c -1.30446,-1.43253 -3.42662,-1.05088 -4.25953,-0.136193 -1.1414,1.25346 -1.00906,3.43339 0.295399,4.86592 1.1336,1.24489 2.99816,1.89781 4.13957,0.644351 1.1414,-1.25346 0.855142,-4.24233 -0.175432,-5.37407 z"/>
<path style="fill:#6b1a80" id="path5171" d="m 27.0348,22.1041 a 1.5,2.06984 0 1,1 -2.99999,0 1.5,2.06984 0 1,1 2.99999,0 z "/>
<path style="fill:#fdad38" id="rect5187" d="m 12.018,27.2845 c 6.31421,3.66343 6.51727,-2.25024 7.60406,-2.25024 1.07184,0 1.26735,5.91199 6.39594,2.19605 -0.285266,3.08117 -3.94973,5.8352 -4.99792,6.8352 -2.0319,-1.09375 -6.98131,-2.31138 -9.00208,-6.78101 z"/>
<path style="opacity:.611" id="path8806" d="m 21.2035,29.2918 a 1.05908,0.388038 71 1,0 0.62886,-0.537537 1.05908,0.388038 71 0,0 -0.62886,0.537537 z "/>
<path style="opacity:.611" id="path8816" d="m 18.8324,29.3142 a 0.388037,1.05908 18 1,1 -0.62886,-0.537537 0.388037,1.05908 18 0,1 0.62886,0.537537 z "/>
</g>
</svg>
