<svg width="96" version="1.0" xmlns="http://www.w3.org/2000/svg" height="96" xmlns:xlink="http://www.w3.org/1999/xlink">
<defs>
<linearGradient gradientTransform="matrix(0.56275509,0,0,0.88750533,23.342103,17)" xlink:href="#linearGradient3678" id="linearGradient325" y1="24.125965" x1="11" y2="80.745949" gradientUnits="userSpaceOnUse" x2="11"/>
<linearGradient gradientTransform="matrix(0.54761894,-0.12964052,0,0.88750533,2.7142868,6.6225234)" xlink:href="#linearGradient3678" id="linearGradient343" y1="21.87291" x1="11" y2="78.492805" gradientUnits="userSpaceOnUse" x2="11"/>
<linearGradient id="linearGradient3678">
<stop offset="0" style="stop-color:#888"/>
<stop offset="1" style="stop-color:#acacac"/>
</linearGradient>
<linearGradient gradientTransform="matrix(0.54761905,-0.12964052,0,0.88750533,42.714286,16.622524)" id="linearGradient3684" xlink:href="#linearGradient3678" y1="26.379755" x1="11" y2="83" x2="11" gradientUnits="userSpaceOnUse"/>
</defs>
<path style="fill:#c8c8c8;color:#000" d="M 9.2857,10.391817 48.7143,1.0577174 c 1.82029,-0.430925 3.28571,1.59712 3.28571,4.54719 V 62.50505 c 0,2.95007 -1.46543,5.67195 -3.28571,6.10287 L 9.2857,77.94202 C 7.46541,78.372946 6,76.3449 6,73.39483 V 16.494687 c 0,-2.95007 1.46543,-5.67195 3.28571,-6.10287 z"/>
<path style="fill:url(#linearGradient343)" d="m 8.7381,24.6088 40.5238,-9.5934 v 47.2505 l -40.5238,9.5934 z "/>
<path style="fill:#fff" d="m 9.2857,25.3666 39.4286,-9.3341 v 45.4755 l -39.4286,9.3341 z "/>
<ellipse cx="32.944298" cy="19.916151" rx="2.8662279" ry="3.6818707" style="fill:#4d994d" transform="matrix(0.97595024,-0.21799343,0,1,0,0)"/>
<ellipse cx="24.027311" cy="20.078276" rx="2.8664675" ry="3.6818707" style="fill:#a67f32" transform="matrix(0.9759537,-0.21797793,0,1,0,0)"/>
<ellipse cx="15.11" cy="20.133266" rx="2.8662279" ry="3.6818707" style="fill:#b25959" transform="matrix(0.97595024,-0.21799343,0,1,0,0)"/>
<g style="color:#000">
<path style="opacity:.35" d="m 52,11.6403 -24.5449,5.709 c -2.91753,0.459297 -5.45508,3.86066 -5.45508,7.64453 v 49.938 l 26.7148,-6.3242 c 1.82028,-0.43092 3.28516,-3.1515 3.28516,-6.10156 v -50.8657 Z "/>
<path style="fill:#c8c8c8" d="m 29.2857,18.8915 39.4286,-9.3341 c 1.82029,-0.430925 3.28571,1.59712 3.28571,4.54719 v 56.9003 c 0,2.95007 -1.46543,5.67195 -3.28571,6.10287 l -39.4286,9.3341 c -1.82029,0.430926 -3.28571,-1.59712 -3.28571,-4.54719 v -56.9003 c 0,-2.95007 1.46543,-5.67195 3.28571,-6.10287 z "/>
</g>
<path style="fill:url(#linearGradient325)" d="m 29.5324,39.9119 h 41.6439 v 47.2506 h -41.6439 z " transform="matrix(0.97310369,-0.23036757,0,1,0,0)"/>
<path style="fill:#fff" d="m 30.0952,40.7995 h 40.5184 v 45.4756 h -40.5184 Z " transform="matrix(0.97310369,-0.23036757,0,1,0,0)"/>
<ellipse cx="53.437153" cy="32.883453" rx="2.8662291" ry="3.6818707" style="fill:#4d994d" transform="matrix(0.97595025,-0.21799336,0,1,0,0)"/>
<ellipse cx="44.520092" cy="33.045235" rx="2.8664684" ry="3.6818707" style="fill:#a67f32" transform="matrix(0.97595371,-0.21797786,0,1,0,0)"/>
<ellipse cx="35.602837" cy="33.100567" rx="2.8662291" ry="3.6818707" style="fill:#b25959" transform="matrix(0.97595025,-0.21799336,0,1,0,0)"/>
<g style="color:#000">
<path style="opacity:.35" d="m 72,20.1284 -24.5449,5.7207 c -3.243,0.459294 -5.45508,3.94249 -5.45508,7.64453 v 49.9383 l 26.7148,-6.3242 c 1.82028,-0.43092 3.28516,-3.1515 3.28516,-6.10156 v -50.8778 Z "/>
<path style="fill:#c8c8c8" d="m 49.2857,27.3916 39.4286,-9.3341 c 1.82029,-0.430924 3.28571,1.59712 3.28571,4.54719 v 56.9006 c 0,2.95007 -1.46543,5.67195 -3.28571,6.10287 l -39.4286,9.3341 c -1.82029,0.430926 -3.28572,-1.59712 -3.28572,-4.54719 v -56.9006 c 0,-2.95007 1.46543,-5.67195 3.28572,-6.10287 z"/>
</g>
<path style="fill:url(#linearGradient3684)" d="M 48.7381,41.6086 89.2619,32.0152 V 79.266 l -40.5238,9.5934 z"/>
<path style="fill:#fff" d="M 49.2858,42.3665 88.7144,33.0324 V 78.5083 L 49.2858,87.8424 Z"/>
<ellipse cx="73.93" cy="45.850765" rx="2.8662283" ry="3.6818707" style="fill:#4d994d" transform="matrix(0.97595024,-0.21799341,0,1,0,0)"/>
<ellipse cx="65.012863" cy="46.012222" rx="2.8664677" ry="3.6818707" style="fill:#a67f32" transform="matrix(0.97595371,-0.21797788,0,1,0,0)"/>
<ellipse cx="56.095684" cy="46.068043" rx="2.8662283" ry="3.6818707" style="fill:#b25959" transform="matrix(0.97595024,-0.21799341,0,1,0,0)"/>
</svg>
