<svg width="96" version="1.0" xmlns="http://www.w3.org/2000/svg" height="96">
<g style="stroke:none">
<path style="fill:#3080ca;stroke-width:1.021" id="path2985" d="M 90.9998,48 A 43,42.8693 0 1 1 5.0002,48 43,42.8693 0 1 1 90.9998,48 Z"/>
<path style="opacity:.75;font-family:Sans;fill:#fafafa;text-align:start;line-height:normal;color:#000;text-indent:0;text-decoration-line:none;stroke-width:6.238;text-transform:none" id="path18810" d="m 60.4766,20.9004 a 11.5,11.5 0 0 0 -11.5,11.5 11.5,11.5 0 0 0 0.28125,2.45703 l -11.6914,5.6621 a 11.5,11.5 0 0 0 -8.65625,-3.94922 11.5,11.5 0 0 0 -11.5,11.5 11.5,11.5 0 0 0 11.5,11.5 11.5,11.5 0 0 0 8.56055,-3.83984 l 11.6895,5.9004 a 11.5,11.5 0 0 0 -0.183594,1.96875 11.5,11.5 0 0 0 11.5,11.5 11.5,11.5 0 0 0 11.5,-11.5 11.5,11.5 0 0 0 -11.5,-11.5 11.5,11.5 0 0 0 -8.5293,3.80664 l -11.709,-5.9219 a 11.5,11.5 0 0 0 0.171875,-1.91406 11.5,11.5 0 0 0 -0.158203,-1.88281 l 11.9414,-5.8125 a 11.5,11.5 0 0 0 8.2832,3.52539 11.5,11.5 0 0 0 11.5,-11.5 11.5,11.5 0 0 0 -11.5,-11.5 z"/>
</g>
</svg>
