<svg width="96" version="1.0" xmlns="http://www.w3.org/2000/svg" height="96">
<g style="stroke:none">
<path style="opacity:.65;fill:#fff" id="path4152" d="m 8.5673,4.2142 c -2.54478,0 -4.519,2.28524 -4.519,4.51924 v 68.3368 c 0,2.43 2.21994,5.12025 4.81904,5.12025 h 15.7693 c 1.7595,0 2.18754,0.127994 2.18754,1.8875 v 1.52451 c 0,2.39775 1.97577,4.4875 5.08723,4.4875 h 32.2747 c 3.01354,0 5.08827,-2.08976 5.08827,-4.4875 v -1.52451 c 0,-1.7595 0.427964,-1.8875 2.18746,-1.8875 h 15.7667 c 3.271,0 4.81996,-2.69025 4.81996,-5.12025 v -68.3368 c 0,-2.234 -2.14706,-4.51924 -4.51996,-4.51924 z "/>
<g id="g7">
<path style="fill:#3880d9" id="path3215" d="M 84.937,75.2786 V 11.0071 H 11 v 64.2715 z"/>
<path style="opacity:.7;fill:#0e367e" id="path3726" d="M 11,11 V 75.2813 H 84.9371 V 11 Z m 3,3 H 82 V 72 H 14 Z"/>
<path id="path3174" d="m 10.3123,7 c -1.88391,0 -3.3125,1.42938 -3.3125,3.3125 V 75.6875 C 7,77.57062 8.42839,79 10.3123,79 h 75.3748 c 1.88391,0 3.3125,-1.42938 3.3125,-3.3125 V 10.3123 c 0,-1.88312 -1.42859,-3.3125 -3.3125,-3.3125 z m 2.6875,6 H 83 V 73 H 13 Z"/>
<path id="rect3535" d="m 33,75 c -1.662,0 -3,1.338 -3,3 h -3 v 1 c 1.656,0 3,1.344 3,3 v 2 c 0,1.662 1.338,3 3,3 h 30 c 1.662,0 3,-1.338 3,-3 v -2 c 0,-1.656 1.344,-3 3,-3 v -1 h -3 c 0,-1.662 -1.338,-3 -3,-3 z"/>
<path style="fill:#7f7f7f" id="rect3483" d="m 13,73 h 70 v 1 H 13 Z"/>
<rect width="8.4909124" x="53.275669" y="80.837639" rx="1.6981825" height="3.3963649" ry="1.6982" style="fill:#7fff2a" id="rect3485"/>
</g>
<path style="opacity:.85;fill:#fff" id="path3049" d="m 47.9633,22.4519 c 2.19794,0.03229 4.64413,1.53916 4.64413,4.24415 v 17.188 l 9.6321,-4.4316 c 2.00905,-0.924327 4.10044,-1.56595 5.66201,0 1.56158,1.56596 1.56562,4.14055 0,5.70245 l -17.0669,17.0264 c -1.56182,1.56091 -4.05974,1.56091 -5.62156,0 l -17.0669,-17.0669 c -1.15044,-1.15044 -1.74072,-3.3567 -0.930186,-4.76741 1.47881,-2.57383 3.98818,-2.02689 6.59219,-0.894602 l 9.5916,4.4316 v -17.188 c 0,-2.82747 2.36554,-4.27637 4.56349,-4.24408 z "/>
</g>
</svg>
