<svg width="48" version="1.1" xmlns="http://www.w3.org/2000/svg" viewBox="0 0 48 48" height="48" xmlns:xlink="http://www.w3.org/1999/xlink" style="overflow:visible">
<defs id="defs469">
<linearGradient gradientTransform="matrix(1.4865567,0,0,1.6186948,115.00905,-113.70035)" xlink:href="#linearGradient2768" id="linearGradient4316" y1="88.063614" x1="-74.544006" y2="99.380844" gradientUnits="userSpaceOnUse" x2="-61.955761"/>
<linearGradient gradientTransform="matrix(1.4865567,0,0,1.6186948,139.26767,-113.70035)" xlink:href="#linearGradient2768" id="linearGradient4320" y1="88.063614" x1="-74.544006" y2="99.380844" gradientUnits="userSpaceOnUse" x2="-61.955761"/>
<linearGradient id="linearGradient2768">
<stop offset="0" style="stop-color:#fff" id="stop2770"/>
<stop offset="1" style="stop-color:#b4b4b4" id="stop2772"/>
</linearGradient>
<linearGradient gradientTransform="matrix(1.4865567,0,0,1.6186948,123.47505,-137.95895)" id="linearGradient2926" xlink:href="#linearGradient2768" y1="88.063614" y2="99.380844" x1="-74.544006" x2="-61.955761" gradientUnits="userSpaceOnUse"/>
</defs>
<g style="stroke:none;letter-spacing:0" id="g11">
<g style="stroke-linejoin:round;stroke-linecap:round;stroke-width:1.032" id="g13">
<g style="fill:#3c3c3c" id="g15">
<path id="rect4346" d="m 12.6875,.3335 15.6308,0 c 2.15448,0 3.88896,1.73448 3.88896,3.88896 v 15.6305 c 0,2.15448 -1.73448,3.88896 -3.88896,3.88896 h -15.6308 c -2.15448,0 -3.88896,-1.73448 -3.88896,-3.88896 v -15.6305 c 0,-2.15448 1.73448,-3.88896 3.88896,-3.88896 z "/>
<path id="rect4344" d="m 28.4805,24.5915 15.6306,0 c 2.15448,0 3.88896,1.73447 3.88896,3.88896 v 15.6306 c 0,2.15448 -1.73448,3.88896 -3.88896,3.88896 h -15.6306 c -2.15448,0 -3.88896,-1.73448 -3.88896,-3.88896 v -15.6306 c 0,-2.15448 1.73448,-3.88896 3.88896,-3.88896 z "/>
<path id="rect4342" d="m 4.2225,24.5915 15.6305,0 c 2.15448,0 3.88896,1.73448 3.88896,3.88896 v 15.6306 c 0,2.15448 -1.73448,3.88896 -3.88896,3.88896 h -15.6305 c -2.15448,0 -3.88896,-1.73448 -3.88896,-3.88896 v -15.6306 c 0,-2.15448 1.73448,-3.88896 3.88896,-3.88896 z "/>
</g>
<rect width="22.908312" x="8.4660006" y="0" rx="3.8889589" height="22.908312" ry="3.8889589" style="fill:url(#linearGradient2926)" id="rect2862"/>
<rect width="22.908312" x="0" y="24.2586" rx="3.8889589" ry="3.8889589" height="22.908312" style="fill:url(#linearGradient4316)" id="rect4314"/>
<rect width="22.908312" x="24.258621" y="24.2586" rx="3.8889589" height="22.908312" ry="3.8889589" style="fill:url(#linearGradient4320)" id="rect4318"/>
</g>
<path style="fill:#fff" id="path4332" d="m 20.603,3.3036 8.2253,7.2159 -4.6068,.2272 -.0373,7.3603 -7.0201,0 .0373,-7.3603 -4.2794,0 z "/>
<path style="fill:#282828" id="path3471" d="m 20.0279,2.7287 8.2253,7.2159 -4.6068,.2273 -.0373,7.3603 -7.0201,0 .0373,-7.3603 -4.2794,0 z "/>
<g style="font-family:'Bitstream Vera Sans';text-align:start;word-spacing:0;line-height:125%;font-size:10.32962322px" id="g25">
<g style="fill:#fff;font-weight:bold" id="text4334">
<path id="path4177" d="m 7.9776,39.7461 q -0.534639,0.277407 -1.11467,0.418633 -0.580033,0.141225 -1.2105,0.141225 -1.88132,0 -2.98086,-1.0491 -1.09954,-1.05415 -1.09954,-2.85477 0,-1.80567 1.09954,-2.85477 1.09954,-1.05415 2.98086,-1.05415 0.63047,0 1.2105,0.141225 0.580032,0.141225 1.11467,0.418632 v 1.55852 q -0.539682,-0.368194 -1.06423,-0.539682 -0.524551,-0.171488 -1.10458,-0.171488 -1.03901,0 -1.63418,0.665776 -0.595164,0.665777 -0.595164,1.83593 0,1.16511 0.595164,1.83089 0.595164,0.665776 1.63418,0.665776 0.580033,0 1.10458,-0.171487 0.524551,-0.171488 1.06423,-0.539683 v 1.55852 z "/>
<path id="path4179" d="m 11.483,32.9068 0,1.6039 1.8611,0 0,1.2912 -1.8611,0 0,2.3958 q 0,0.393413 0.156356,0.534638 0.156357,0.136182 0.620383,0.136182 h 0.928052 v 1.2912 h -1.54843 q -1.06928,0 -1.51817,-0.443851 -0.443851,-0.448895 -0.443851,-1.51817 v -2.39579 h -0.89779 v -1.2912 h 0.89779 v -1.60392 h 1.80567 z "/>
<path id="path4181" d="m 18.6502,36.0491 q -0.237056,-0.110962 -0.474113,-0.1614 -0.232013,-0.05548 -0.46907,-0.05548 -0.696039,0 -1.07432,0.448894 -0.373238,0.443851 -0.373238,1.27607 v 2.60258 h -1.80567 v -5.64901 h 1.80567 v 0.928052 q 0.348019,-0.554814 0.796914,-0.807002 0.453938,-0.257231 1.08441,-0.257231 0.09079,0 0.196706,0.01009 0.105919,0.005 0.30767,0.03026 l .005,1.6342 z "/>
<path id="path4183" d="m 19.5581,32.3116 1.8057,0 0,7.8481 -1.8057,0 0,-7.8481 z "/>
</g>
<g style="fill:#282828;font-weight:bold" id="text4322">
<path id="path4186" d="m 7.3945,39.1714 q -0.534639,0.277406 -1.11467,0.418632 -0.580032,0.141225 -1.2105,0.141225 -1.88132,0 -2.98086,-1.0491 -1.09954,-1.05415 -1.09954,-2.85477 0,-1.80567 1.09954,-2.85477 1.09954,-1.05415 2.98086,-1.05415 0.63047,0 1.2105,0.141225 0.580033,0.141225 1.11467,0.418632 v 1.55852 q -0.539682,-0.368195 -1.06423,-0.539683 -0.524551,-0.171488 -1.10458,-0.171488 -1.03901,0 -1.63418,0.665777 -0.595164,0.665776 -0.595164,1.83593 0,1.16511 0.595164,1.83089 0.595164,0.665777 1.63418,0.665777 0.580033,0 1.10458,-0.171488 0.524551,-0.171488 1.06423,-0.539683 v 1.55852 z "/>
<path id="path4188" d="m 10.8999,32.3321 0,1.6039 1.8611,0 0,1.2912 -1.8611,0 0,2.3958 q 0,0.393413 0.156356,0.534639 0.156357,0.136181 0.620383,0.136181 h 0.928052 v 1.2912 h -1.54843 q -1.06928,0 -1.51817,-0.443851 -0.443851,-0.448895 -0.443851,-1.51817 v -2.39579 h -0.89779 v -1.2912 h 0.89779 v -1.60392 h 1.80567 z "/>
<path id="path4190" d="m 18.0671,35.4743 q -0.237057,-0.110963 -0.474113,-0.161401 -0.232013,-0.05548 -0.46907,-0.05548 -0.696039,0 -1.07432,0.448895 -0.373239,0.443851 -0.373239,1.27607 v 2.60258 h -1.80567 v -5.64901 h 1.80567 v 0.928052 q 0.34802,-0.554813 0.796915,-0.807001 0.453938,-0.257232 1.08441,-0.257232 0.09079,0 0.196707,0.01009 0.105919,0.005 0.307669,0.03026 l .005,1.6342 z "/>
<path id="path4192" d="m 18.9749,31.7369 1.8057,0 0,7.8481 -1.8057,0 0,-7.8481 z "/>
</g>
<g style="fill:#fff;font-weight:bold" id="text4338">
<path id="path4163" d="m 33.3054,38.8231 -3.0363,0 -.4792,1.3719 -1.9519,0 2.7892,-7.5303 2.3151,0 2.7892,7.5303 -1.9519,0 -.4741,-1.3719 z  m -2.5521,-1.3971 2.0629,0 -1.0289,-2.996 -1.034,2.996 z "/>
<path id="path4165" d="m 36.6444,32.3469 1.8057,0 0,7.8481 -1.8057,0 0,-7.8481 z "/>
<path id="path4167" d="m 42.1673,32.9421 0,1.6039 1.8611,0 0,1.2912 -1.8611,0 0,2.3958 q 0,0.393413 0.156356,0.534638 0.156357,0.136182 0.620383,0.136182 h 0.928052 v 1.2912 h -1.54843 q -1.06928,0 -1.51817,-0.443851 -0.443851,-0.448895 -0.443851,-1.51817 v -2.39579 h -0.897789 v -1.2912 h 0.897789 v -1.60392 h 1.80567 z "/>
</g>
<g style="fill:#282828;font-weight:bold" id="text4326">
<path id="path4170" d="m 32.7302,38.2483 -3.0363,0 -.4792,1.3719 -1.9519,0 2.7892,-7.5303 2.3151,0 2.7892,7.5303 -1.9519,0 -.4741,-1.3719 z  m -2.5521,-1.3971 2.0629,0 -1.0289,-2.996 -1.034,2.996 z "/>
<path id="path4172" d="m 36.0691,31.7722 1.8057,0 0,7.8481 -1.8057,0 0,-7.8481 z "/>
<path id="path4174" d="m 41.592,32.3673 0,1.6039 1.8611,0 0,1.2912 -1.8611,0 0,2.3958 q 0,0.393413 0.156357,0.534638 0.156356,0.136182 0.620382,0.136182 h 0.928052 v 1.2912 h -1.54843 q -1.06928,0 -1.51817,-0.443851 -0.443851,-0.448895 -0.443851,-1.51817 v -2.39579 h -0.897789 v -1.2912 h 0.897789 v -1.60392 h 1.80567 z "/>
</g>
</g>
</g>
</svg>
