<svg width="48" version="1.1" xmlns="http://www.w3.org/2000/svg" height="48" xmlns:xlink="http://www.w3.org/1999/xlink">
<defs id="defs4">
<linearGradient id="linearGradient3808">
<stop offset="0" style="stop-color:#ffe5a5" id="stop3810"/>
<stop offset="1" style="stop-color:#e88d13" id="stop3812"/>
</linearGradient>
<radialGradient fx="18.341457" fy="1015.4406" cx="18.341457" cy="1015.4406" gradientTransform="matrix(0.22857756,1.7424794,-1.6467468,0.21601943,1686.9808,761.51207)" xlink:href="#linearGradient3808" id="radialGradient3760" r="21" gradientUnits="userSpaceOnUse"/>
</defs>
<g style="fill-rule:evenodd" id="layer1" transform="translate(0,-1004.3622)">
<path style="opacity:.05" id="path835" d="m 24,1006.1122 c -12.7026,0 -23,10.2974 -23,23 0,12.7026 10.2974,23 23,23 12.7026,0 23,-10.2974 23,-23 0,-12.7026 -10.2974,-23 -23,-23 z "/>
<path style="opacity:.08" id="path839" d="m 24,1006.4622 c -12.4264,0 -22.5,10.0736 -22.5,22.5 0,12.4264 10.0736,22.5 22.5,22.5 12.4264,0 22.5,-10.0736 22.5,-22.5 0,-12.4264 -10.0736,-22.5 -22.5,-22.5 z "/>
<path style="opacity:.1" id="path837" d="m 24,1006.8622 c -12.1503,0 -22,9.8497 -22,22 0,12.1503 9.84974,22 22,22 12.1503,0 22,-9.8497 22,-22 0,-12.1503 -9.84974,-22 -22,-22 z "/>
<path style="opacity:.2" id="path833" d="m 24,1007.3622 c -11.8741,0 -21.5,9.6258 -21.5,21.5 0,11.8742 9.62588,21.5 21.5,21.5 11.8741,0 21.5,-9.6258 21.5,-21.5 0,-11.8742 -9.62588,-21.5 -21.5,-21.5 z "/>
<path style="fill:url(#radialGradient3760)" id="path831" d="m 24,1007.3622 c -11.598,0 -21,9.402 -21,21 0,11.598 9.40202,21 21,21 11.598,0 21,-9.402 21,-21 0,-11.598 -9.40202,-21 -21,-21 z "/>
<g style="fill:#58330c">
<path id="path829" d="m 17.9869,1018.1675 c 2.1096,0 3.81541,1.7056 3.81541,3.8153 0,2.1096 -1.70581,3.8153 -3.81541,3.8153 -2.1096,0 -3.81541,-1.7057 -3.81541,-3.8153 0,-2.1097 1.70581,-3.8153 3.81541,-3.8153 z "/>
<path id="path827" d="m 29.311,1018.1675 c 2.1096,0 3.81541,1.7056 3.81541,3.8153 0,2.1096 -1.70581,3.8153 -3.81541,3.8153 -2.1096,0 -3.81541,-1.7057 -3.81541,-3.8153 0,-2.1097 1.70581,-3.8153 3.81541,-3.8153 z "/>
<path id="path2985" d="m 9.8677,1027.874 c 3.21332,5.1455 8.33441,8.4854 14.1323,8.4854 5.79785,0 10.9189,-3.3399 14.1323,-8.4854 -1.13713,8.0862 -7.02039,14.2544 -14.1323,14.2544 -7.11188,0 -12.9951,-6.1682 -14.1323,-14.2544 z "/>
</g>
</g>
</svg>
