<svg width="96" version="1.0" xmlns="http://www.w3.org/2000/svg" height="96" xmlns:xlink="http://www.w3.org/1999/xlink">
<defs>
<linearGradient id="linearGradient3654">
<stop offset="0" style="stop-color:#ffd14c"/>
<stop offset="0.25" style="stop-color:#ffd04c"/>
<stop offset="0.25" style="stop-color:#ffbd05"/>
<stop offset="0.5" style="stop-color:#ffbd05"/>
<stop offset="0.5" style="stop-color:#ebac00"/>
<stop offset="0.75" style="stop-color:#ebac00"/>
<stop offset="0.75" style="stop-color:#dba100"/>
<stop offset="1" style="stop-color:#dba100"/>
</linearGradient>
<linearGradient gradientTransform="translate(48,42.5)" xlink:href="#linearGradient3654" id="linearGradient3656" y1="33.6406" x1="8" y2="33.6406" x2="40" gradientUnits="userSpaceOnUse"/>
</defs>
<path style="fill:#c339bb;fill-rule:evenodd" d="M 6,6 H 90 V 90 H 6 Z"/>
<path style="opacity:.3" d="m 48,18.3918 c -8.39901,0 -15.2021,6.6558 -15.2021,14.8462 0.02041,0.93862 0.02629,1.98678 0.119712,3.15428 -1.32921,0.740341 -1.50484,3.64216 -0.319205,6.56091 0.457189,1.12548 1.08562,2.03512 1.71572,2.77577 0.021,0.02477 0.05865,0.06001 0.0798,0.08412 0.150407,0.77116 0.257008,1.35917 0.438905,2.22903 0.563499,1.76626 2.89718,5.09275 4.94766,7.94879 0.204486,2.20324 0.211915,4.39122 -0.199501,6.89737 -5.902,5.11607 -21.0103,7.40483 -20.9877,12.7013 l -.2793,2.5185 h 59.372 l -.2793,-2.5185 c -0.02407,-4.53303 -15.1979,-7.40483 -21.0276,-12.7013 -0.236035,-2.02882 -0.279757,-4.01588 -0.159599,-6.01417 1.86427,-3.00463 4.32383,-6.87664 4.94767,-8.83199 0.229273,-1.01264 0.34064,-1.69596 0.518706,-2.56548 0.55052,-0.703047 1.06993,-1.52301 1.47632,-2.52343 1.12594,-2.77177 0.987951,-5.45068 -0.159602,-6.35062 0.0802,-1.20437 0.16598,-2.33524 0.199504,-3.36457 0,-8.19036 -6.8031,-14.8462 -15.2021,-14.8462 z "/>
<path style="fill:#fff" d="m 47.5841,18.3918 c -8.10548,0 -14.6708,6.55214 -14.6708,14.615 0.01969,0.924003 0.02537,1.95584 0.115528,3.10516 -1.28275,0.728811 -1.45225,3.58544 -0.308049,6.45873 0.441211,1.10795 1.04767,2.00343 1.65576,2.73254 0.02026,0.02438 0.0566,0.05908 0.07701,0.08281 0.145151,0.75915 0.248027,1.338 0.423567,2.19431 0.543805,1.73876 2.79593,5.01344 4.77475,7.825 0.197339,2.16893 0.204508,4.32283 -0.192529,6.78995 -5.69573,5.03639 -20.276,7.28951 -20.2542,12.5034 l -.2695,1.9873 h 57.297 l -.2695,-1.9873 c -0.02323,-4.46244 -14.6668,-7.28951 -20.2927,-12.5034 -0.227784,-1.99723 -0.269979,-3.95334 -0.154021,-5.92051 1.79912,-2.95784 4.17272,-6.76955 4.77475,-8.69445 0.221261,-0.996872 0.328736,-1.66955 0.500578,-2.52553 0.53128,-0.692098 1.03254,-1.49929 1.42473,-2.48413 1.08659,-2.72861 0.953423,-5.3658 -0.154024,-6.25172 0.07739,-1.18561 0.160179,-2.29887 0.192531,-3.31217 0,-8.0628 -6.56534,-14.6149 -14.6708,-14.6149 z "/>
<g style="color:#000">
<path style="opacity:.3" d="m 72.631,46.5 c -7.0312,0 -11.875,5.37961 -11.875,12 v 7.28125 h 5.8748 l -.031,-6.2812 c -0.01972,-3.99612 2,-7 6,-7 4,0 5.98081,3.11086 6,7 l .031,6.2812 h 5.844 v -7.28125 c 0,-6.62039 -4.87495,-12 -11.8438,-12 z "/>
<path style="fill:#e0e0e0" d="m 72.03125,45 c -7.0312,0 -11.875,5.37961 -11.875,12 v 7.28125 h 5.8748 L 66,58 c -0.01972,-3.996116 2,-7 6,-7 4,0 5.980806,3.110858 6,7 l 0.031,6.28125 h 5.844 V 57 c 0,-6.62039 -4.87495,-12 -11.8438,-12 z"/>
</g>
<path style="opacity:.3" d="M 56,63.5 V 89 H 88.7 V 63.5 Z"/>
<path style="fill:url(#linearGradient3656)" d="m 56,63.5 v 24 h 32 v -24 z"/>
</svg>
