<svg width="48" version="1.0" xmlns="http://www.w3.org/2000/svg" height="48">
<path style="fill:#00df16" d="m 24.078,24 c -3.81707,6.6114 -4.81946,14.0656 -3.40623,21 h 11.9843 c -5.3038,-5.41326 -8.57808,-12.8195 -8.57808,-21 Z "/>
<path style="fill:#04abcf" d="m 24.078,24.0468 c -8.05135,4.64847 -13.1391,12.4549 -14.5937,20.953 h 11.3366 c -1.40471,-6.92178 -0.553797,-14.3525 3.25704,-20.953 Z "/>
<path style="fill:#1e3bdc" d="m 24.0468,24.0782 c -8.19635,-0.223257 -15.6278,3.27161 -21.0468,8.59373 v 9.32811 c 0,2 1,3 3,3 h 3.46871 c 1.46023,-8.48581 6.53624,-16.2789 14.578,-20.9218 Z "/>
<path style="fill:#641edb" d="m 8.7344,20.0624 c -1.93391,0.01769 -3.8504,0.225424 -5.73434,0.609374 v 12.1505 c 5.41324,-5.30382 12.8195,-8.74422 21,-8.74422 -4.81517,-2.78006 -10.0812,-4.06303 -15.2655,-4.01561 Z "/>
<path style="fill:#8021b1" d="m 3,9.4843 v 11.322 c 6.92175,-1.40472 14.3524,-0.539158 20.9529,3.27171 -4.64846,-8.05138 -12.4549,-13.1392 -20.9529,-14.5937 Z "/>
<path style="fill:#9c009b" d="m 6,3 c -2,0 -3,1 -3,3 v 3.63498 c 8.48579,1.46023 16.2788,6.37002 20.9218,14.4119 0,-8.19638 -3.2716,-15.6278 -8.5937,-21.0468 z "/>
<path style="fill:#d10737" d="m 15.1624,3 c 5.3038,5.41326 8.75951,12.8195 8.75951,21 3.81708,-6.6114 5,-14.0656 3.58717,-21 z "/>
<path style="fill:#fd0005" d="m 27.3593,3 c 1.40472,6.92178 0.373369,14.3525 -3.43748,20.953 8.05135,-4.64848 13.3212,-12.4549 14.7757,-20.953 Z "/>
<path style="fill:#ff6500" d="m 38.5311,3 c -1.46024,8.48581 -6.53624,16.2789 -14.578,20.9218 8.19635,0 15.6278,-3.27161 21.0468,-8.59373 v -9.32811 c 0,-2 -1.00726,-3 -3,-3 z "/>
<path style="fill:#fdad00" d="m 45,15.1784 c -5.41324,5.30382 -12.8195,8.74354 -21,8.74352 6.61138,3.81709 14.0655,4.81948 21,3.40624 z "/>
<path style="fill:#fffd01" d="m 24.0468,23.9219 c 4.64846,8.05138 12.4549,13.2396 20.9529,14.6941 v -11.357 c -6.92175,1.40472 -14.3524,0.473709 -20.9529,-3.33716 z "/>
<path style="fill:#b6fd00" d="m 24.078,23.953 c 0,8.19638 3.2716,15.6278 8.5937,21.0468 h 9.32831 c 2,0 3,-1 3,-3 v -3.46884 c -8.48579,-1.46023 -16.2788,-6.53615 -20.9218,-14.578 Z "/>
</svg>
