<svg width="48" version="1.0" xmlns="http://www.w3.org/2000/svg" height="48" xmlns:xlink="http://www.w3.org/1999/xlink">
<defs id="defs4"/>
<g id="g3001" transform="matrix(1.4162549,0,0,1.4162549,-4.3837902,-9.7246916)">
<g id="layer1-1" transform="matrix(0.35587621,0,0,0.35587621,7.1521633,7.9084497)">
<g style="stroke:none" id="g11">
<path style="fill:#ccaa7d" id="rect2419" d="m 18.1645,6 59.6719,0 c 3.324,0 6,2.676 6,6 v 67.6851 c 0,3.324 -2.676,6 -6,6 h -59.6719 c -3.324,0 -6,-2.676 -6,-6 v -67.6851 c 0,-3.324 2.676,-6 6,-6 z "/>
<path style="fill:#3c2510" id="rect2483" d="m 18.89,18 58.0483,0 c 3.24901,0 5.86463,2.676 5.86463,6 v 3.78088 c 0,3.324 -2.61563,6 -5.86463,6 h -58.0483 c -3.24901,0 -5.86464,-2.676 -5.86464,-6 l -0,-3.7809 c 0,-3.324 2.61563,-6 5.86464,-6 z "/>
<g style="fill:#ccaa7d" id="g16">
<path id="rect2481" d="m 18.9339,6.0816 c -6.15068,0.120679 -6.16613,0.014997 -6.16613,5.98641 v 15.7258 c 0,6.01234 0.250969,5.85162 6.16613,5.98641 l 30.832,-1.9955 v -27.6987 z "/>
<path id="path3262" d="m 77.498,6.0816 c 5.52125,0.120679 5.64928,0.135676 5.64928,5.98641 v 15.7258 c 0,6.14714 -0.484337,6.12121 -5.64928,5.98641 l -27.7321,-1.9955 v -27.6987 z "/>
</g>
</g>
<path style="opacity:.5;fill:#3a240f" id="path5008" d="m 54.1204,4.2666 -12.1204,0 .0602,25.3032 .1347,11.9354 5.6868,-.5202 6.0439,-.5524 .0326,-5.8375 .102,-5.0253 z "/>
<path style="fill:#d8cab2" id="polygon120" d="m 54.0602,4.1389 -6.0602,-.4438 -6.0602,.4438 .0602,25.8016 l .1346,10.5647 5.6868,-.4968 6.0439,-.5275 .0326,-5.5745 .102,-3.9658 .0602,-25.8016 z "/>
<g style="stroke:none" id="g22">
<rect width="1" x="47" y="4.1250005" height="32.167938" style="opacity:.2;fill:#8d6137" id="rect4363"/>
<rect width="1" x="48" y="4.1250005" height="32.167938" style="opacity:.2;fill:#fff" id="rect4365"/>
</g>
</g>
</g>
<g style="stroke:none">
<path style="fill:#fff;stroke-width:.279" id="path9" d="m 38.3027,26.815 c -1.26021,-1.61231 -1.19401,-2.05534 -2.75422,-0.792426 l -1.2587,1.0188 c -0.911131,-0.579309 -2.03459,-0.947449 -3.12216,-1.08914 l -.3683,-1.5052 c -0.506099,-2.06833 -1.11785,-1.2957 -2.85275,-0.810943 -1.93501,0.53381 -2.61715,0.179631 -2.11235,2.1373 l .3722,1.4431 c -0.13175,0.116467 -0.314663,0.254705 -0.446409,0.371172 -0.548754,0.414701 -0.981037,0.961152 -1.36215,1.48584 l -1.4593,-.3764 c -1.97078,-0.508264 -1.66921,0.331487 -2.16675,2.00937 -0.60986,1.97307 -1.17116,2.26293 0.8248,2.79149 l 1.5323,.4057 c 0.03475,0.64994 0.193582,1.30752 0.476547,1.97275 l -1.2587,1.0188 c -1.61709,1.30894 -0.927011,1.42046 0.236923,2.83004 1.26021,1.61231 1.19401,2.05532 2.75422,0.792422 l 1.2587,-1.0188 c 0.911135,0.57931 2.03459,0.947454 3.12216,1.08913 l .3683,1.5052 c 0.506095,2.06833 1.11785,1.2957 2.85274,0.810945 1.93501,-0.533807 2.61713,-0.179604 2.11235,-2.1373 l -.3722,-1.4431 c 0.131765,-0.116466 0.314665,-0.254705 0.446413,-0.371172 0.548754,-0.4147 0.981039,-0.961156 1.36216,-1.48583 l 1.4593,.3764 c 1.88992,0.755295 1.66921,-0.331486 2.16676,-2.00937 0.60986,-1.97306 1.17116,-2.26293 -0.824799,-2.79149 l -1.5323,-.4057 c -0.03476,-0.649948 -0.193585,-1.30753 -0.476546,-1.97275 l 1.2587,-1.0188 c 1.61709,-1.30894 0.927011,-1.42046 -0.236921,-2.83004 z  m -6.1751,8.6393 c -1.25866,1.01881 -3.14204,0.853055 -4.21203,-0.383838 -1.06998,-1.23689 -0.853053,-3.14204 0.383843,-4.21202 1.25866,-1.01881 3.14203,-0.853053 4.21201,0.383841 1.01881,1.25866 0.853058,3.14203 -0.383835,4.21201 z "/>
<path style="fill:#82690a" id="path4230" d="m 22.0073,27.2718 c -1.45741,1.02764 -6.65631,-2.65905 -8.43942,-2.68431 -1.7831,-0.02527 -7.08436,3.51266 -8.51207,2.44415 -1.42772,-1.06852 0.471988,-7.15221 -0.0549849,-8.85586 -0.526985,-1.70364 -5.52993,-5.65216 -4.95489,-7.34018 0.575036,-1.68803 6.94802,-1.76127 8.40543,-2.78891 1.45741,-1.02764 3.66667,-7.00588 5.44979,-6.98062 1.7831,0.025258 3.82211,6.06369 5.24983,7.13221 1.42772,1.06852 7.79606,1.32229 8.32304,3.02592 0.526985,1.70364 -4.58581,5.50884 -5.16086,7.19686 -0.575035,1.68803 1.15156,7.8231 -0.305857,8.85074 z "/>
<path style="fill:#ffe305" id="path3574" d="m 22.0073,26.2058 c -1.45741,1.02764 -6.65631,-2.65905 -8.43942,-2.68431 -1.7831,-0.02527 -7.08436,3.51266 -8.51207,2.44415 -1.42772,-1.06852 0.471988,-7.15221 -0.0549862,-8.85586 -0.526984,-1.70364 -5.52993,-5.65216 -4.95489,-7.34018 0.575036,-1.68803 6.94802,-1.76127 8.40543,-2.78891 1.45741,-1.02764 3.66667,-7.00588 5.44979,-6.98063 1.7831,0.0252578 3.82211,6.06369 5.24983,7.13222 1.42772,1.06852 7.79606,1.32229 8.32304,3.02592 0.526985,1.70364 -4.58581,5.50884 -5.16085,7.19686 -0.575035,1.68803 1.15156,7.8231 -0.305857,8.85074 z "/>
</g>
</svg>
