<svg width="48" version="1.1" xmlns="http://www.w3.org/2000/svg" viewBox="0 0 48 48" height="48" xmlns:xlink="http://www.w3.org/1999/xlink" style="overflow:visible">
<defs id="defs469">
<linearGradient id="linearGradient2768">
<stop offset="0" style="stop-color:#f7f7f7" id="stop2770"/>
<stop offset="1" style="stop-color:#b4b4b4" id="stop2772"/>
</linearGradient>
<linearGradient gradientTransform="matrix(1.4865567,0,0,1.6186948,123.47505,-137.95895)" id="linearGradient2926" xlink:href="#linearGradient2768" y1="88.063614" y2="99.380844" x1="-74.544006" x2="-61.955761" gradientUnits="userSpaceOnUse"/>
<linearGradient gradientTransform="matrix(1.4865567,0,0,1.6186948,115.00905,-113.70035)" xlink:href="#linearGradient2768" id="linearGradient4316" y1="88.063614" x1="-74.544006" y2="99.380844" gradientUnits="userSpaceOnUse" x2="-61.955761"/>
<linearGradient gradientTransform="matrix(1.4865567,0,0,1.6186948,139.26767,-113.70035)" xlink:href="#linearGradient2768" id="linearGradient4320" y1="88.063614" x1="-74.544006" y2="99.380844" gradientUnits="userSpaceOnUse" x2="-61.955761"/>
</defs>
<g style="letter-spacing:0" id="g11">
<g style="stroke-linejoin:round;stroke-linecap:round;stroke-width:1.032" id="g13">
<g style="fill:#3c3c3c" id="g15">
<path id="rect4346" d="m 12.6875,.3335 15.6308,0 c 2.15448,0 3.88896,1.73448 3.88896,3.88896 v 15.6305 c 0,2.15448 -1.73448,3.88896 -3.88896,3.88896 h -15.6308 c -2.15448,0 -3.88896,-1.73448 -3.88896,-3.88896 v -15.6305 c 0,-2.15448 1.73448,-3.88896 3.88896,-3.88896 z "/>
<path id="rect4344" d="m 28.4805,24.5915 15.6306,0 c 2.15448,0 3.88896,1.73447 3.88896,3.88896 v 15.6306 c 0,2.15448 -1.73448,3.88896 -3.88896,3.88896 h -15.6306 c -2.15448,0 -3.88896,-1.73448 -3.88896,-3.88896 v -15.6306 c 0,-2.15448 1.73448,-3.88896 3.88896,-3.88896 z "/>
<path id="rect4342" d="m 4.2225,24.5915 15.6305,0 c 2.15448,0 3.88896,1.73448 3.88896,3.88896 v 15.6306 c 0,2.15448 -1.73448,3.88896 -3.88896,3.88896 h -15.6305 c -2.15448,0 -3.88896,-1.73448 -3.88896,-3.88896 v -15.6306 c 0,-2.15448 1.73448,-3.88896 3.88896,-3.88896 z "/>
</g>
<rect width="22.908312" x="8.466" y="0" rx="3.8889589" height="22.908312" style="fill:url(#linearGradient2926)" id="rect2862"/>
<rect width="22.908312" x="0" y="24.2586" rx="3.8889589" height="22.908312" style="fill:url(#linearGradient4316)" id="rect4314"/>
<rect width="22.908312" x="24.258621" y="24.2586" rx="3.8889589" height="22.908312" style="fill:url(#linearGradient4320)" id="rect4318"/>
</g>
<path style="fill:#fff" id="path4332" d="m 28.2532,9.9446 .5751,.5749 -4.6068,.2272 -.0373,7.3603 h -7.0201 l -.5751,-.5748 .6124,-6.7855 h -4.2794 l -.5751,-.5748 z "/>
<path style="fill:#282828" id="path3471" d="m 20.0279,2.7287 8.2253,7.2159 -4.6068,.2273 -.0373,7.3603 -7.0201,0 .0373,-7.3603 -4.2794,0 z "/>
<g style="word-spacing:0;line-height:125%" id="g25">
<g style="fill:#fff" id="text4334">
<path id="path4177" d="m 7.9776,39.7461 c -0.356426,0.184938 -0.727983,0.324482 -1.11467,0.418633 -0.386689,0.09415 -0.790189,0.141225 -1.2105,0.141225 -1.25421,0 -2.26646,-0.330681 -2.98086,-1.0491 -0.916735,-0.921897 -1.08687,-0.685502 -1.09954,-2.85477 0.118632,-2.49451 1.93409,-3.88579 4.0804,-3.90892 0.420313,0 1.74207,-0.01484 1.74207,-0.01484 l .5831,.5747 v 1.55852 c -0.359788,-0.245467 -0.714531,-0.425361 -1.06423,-0.539686 -0.349701,-0.114325 -0.717894,-0.171488 -1.10458,-0.171488 -0.692673,0 -1.2374,0.221925 -1.63418,0.665776 -0.396776,0.443851 -0.595164,1.05583 -0.595164,1.83593 0,0.77674 0.198388,1.38704 0.595164,1.83089 0.396776,0.443851 0.941503,0.665776 1.63418,0.665776 0.386689,0 1.58571,-1.28587 1.58571,-1.28587 l .5831,.5747 v 1.55852 z "/>
<path id="path4179" d="m 11.483,32.9068 v 1.6039 l 1.278,-.5747 .5831,.5747 v 1.2912 h -1.8611 v 2.6961 l 1.1217,-.2042 .5831,.5747 v 1.2912 h -1.54843 c -0.712853,0 -1.1852,-0.186475 -1.51817,-0.443851 -0.586807,-0.453577 -0.944191,-0.810354 -0.944191,-1.51817 v -2.39579 h -0.39745 l -.5831,-.5747 2.7035,-2.8951 z "/>
<path id="path4181" d="m 18.6502,36.0491 c -0.158037,-0.07398 -0.316075,-0.127775 -0.474113,-0.1614 -0.154675,-0.03699 -0.311032,-0.05548 -0.46907,-0.05548 -0.464026,0 -0.822133,0.149631 -1.07432,0.448894 -0.248825,0.295901 -0.373238,0.721257 -0.373238,1.27607 v 2.60258 h -1.80567 l -.5831,-.5748 1.8057,-5.649 .5831,.5748 v 0.928052 c 0.58701,-0.748839 1.392,-1.05505 1.8026,-1.59868 l .5831,.5748 .005,1.6342 z "/>
<path id="path4183" d="m 20.7806,31.7369 .5832,.5747 v 7.8481 h -1.8057 l -.5832,-.5747 Z "/>
</g>
<g style="fill:#282828" id="text4322">
<path id="path4186" d="m 7.3945,39.1714 q -0.534639,0.277406 -1.11467,0.418632 -0.580032,0.141225 -1.2105,0.141225 -1.88132,0 -2.98086,-1.0491 -1.09954,-1.05415 -1.09954,-2.85477 0,-1.80567 1.09954,-2.85477 1.09954,-1.05415 2.98086,-1.05415 0.63047,0 1.2105,0.141225 0.580033,0.141225 1.11467,0.418632 v 1.55852 q -0.539682,-0.368195 -1.06423,-0.539683 -0.524551,-0.171488 -1.10458,-0.171488 -1.03901,0 -1.63418,0.665777 -0.595164,0.665776 -0.595164,1.83593 0,1.16511 0.595164,1.83089 0.595164,0.665777 1.63418,0.665777 0.580033,0 1.10458,-0.171488 0.524551,-0.171488 1.06423,-0.539683 v 1.55852 z "/>
<path id="path4188" d="m 10.9,32.3321 0,1.6039 1.8611,0 0,1.2912 -1.8611,0 0,2.3958 q 0,0.393413 0.156356,0.534639 0.156357,0.136181 0.620383,0.136181 h 0.928052 v 1.2912 h -1.54843 q -1.06928,0 -1.51817,-0.443851 -0.443851,-0.448895 -0.443851,-1.51817 v -2.39579 h -0.89779 v -1.2912 h 0.89779 v -1.60392 h 1.80567 z "/>
<path id="path4190" d="m 18.0671,35.4743 q -0.237057,-0.110963 -0.474113,-0.161401 -0.232013,-0.05548 -0.46907,-0.05548 -0.696039,0 -1.07432,0.448895 -0.373239,0.443851 -0.373239,1.27607 v 2.60258 h -1.80567 v -5.64901 h 1.80567 v 0.928052 q 0.34802,-0.554813 0.796915,-0.807001 0.453938,-0.257232 1.08441,-0.257232 0.09079,0 0.196707,0.01009 0.105919,0.005 0.307669,0.03026 l .005,1.6342 z "/>
<path id="path4192" d="m 18.9749,31.7369 1.8057,0 0,7.8481 -1.8057,0 0,-7.8481 z "/>
</g>
<g style="fill:#fff" id="text4338">
<path id="path4163" d="m 33.3054,38.8231 h -3.0363 l -.4792,1.3719 h -1.9519 l -.5752,-.5748 5.1043,-7.5303 .5752,.5748 2.7892,7.5303 h -1.9519 l -.5752,-.5748 .1011,-.7971 z  m -2.5522,-1.3971 h 2.0629 l -1.0289,-2.996 Z "/>
<path id="path4165" d="m 37.8748,31.7722 .5753,.5747 v 7.8481 h -1.8057 l -.5753,-.5747 z "/>
<path id="path4167" d="m 42.1673,32.9421 v 1.6039 l 1.2858,-.5748 .5753,.5748 v 1.2912 h -1.8611 v 2.7958 l 1.1295,-.304 .5753,.5748 v 1.2912 h -1.54843 c -0.712853,0 -1.17341,-0.202496 -1.51817,-0.443851 -0.54645,-0.382548 -0.943851,-0.924018 -0.943851,-1.51817 v -2.39579 h -0.397789 l -.5753,-.5748 2.7034,-2.8951 Z "/>
</g>
<g style="fill:#282828" id="text4326">
<path id="path4170" d="m 32.7302,38.2483 -3.0363,0 -.4792,1.3719 -1.9519,0 2.7892,-7.5303 2.3151,0 2.7892,7.5303 -1.9519,0 -.4741,-1.3719 z  m -2.5521,-1.3971 2.0629,0 -1.0289,-2.996 -1.034,2.996 z "/>
<path id="path4172" d="m 36.0691,31.7722 1.8057,0 0,7.8481 -1.8057,0 0,-7.8481 z "/>
<path id="path4174" d="m 41.592,32.3673 0,1.6039 1.8611,0 0,1.2912 -1.8611,0 0,2.3958 q 0,0.393413 0.156357,0.534638 0.156356,0.136182 0.620382,0.136182 h 0.928052 v 1.2912 h -1.54843 q -1.06928,0 -1.51817,-0.443851 -0.443851,-0.448895 -0.443851,-1.51817 v -2.39579 h -0.897789 v -1.2912 h 0.897789 v -1.60392 h 1.80567 z "/>
</g>
</g>
</g>
</svg>
