<svg width="48" version="1.1" xmlns="http://www.w3.org/2000/svg" height="48">
<path style="fill:#2980b9" d="M 2,7 H 46 V 43 H 2 Z"/>
<path style="fill:#37353a" d="m 2,38 h 44 v 5 H 2 Z"/>
<path style="fill:#fff" d="m 32,40 h 1.5 v 1 H 32 Z"/>
<path style="fill:#d45500" d="m 11,39.5 h 2 v 2 h -2 z"/>
<path style="fill:#349ba3" d="m 14,39.5 h 2 v 2 h -2 z"/>
<path style="fill:#ccc" d="m 8,39.5 h 2 v 2 H 8 Z"/>
<path style="fill:#008000" d="m 17,39.5 h 2 v 2 h -2 z"/>
<g style="fill:#fff">
<path d="m 37.2001,41.4188 v -0.259027 c 0.05195,-0.09298 0.115276,-0.176656 0.189959,-0.251042 0.0747,-0.07527 0.152617,-0.143891 0.233798,-0.205877 0.08226,-0.06287 0.163439,-0.120875 0.243537,-0.174001 0.08118,-0.05402 0.153699,-0.105813 0.21756,-0.155404 0.06494,-0.05047 0.117438,-0.100957 0.157488,-0.151421 0.04005,-0.05046 0.06007,-0.104049 0.06007,-0.160719 0,-0.08323 -0.02544,-0.144776 -0.07631,-0.184626 -0.05086,-0.03984 -0.12556,-0.05977 -0.224052,-0.05977 -0.09741,0 -0.172102,0.02171 -0.224056,0.06508 -0.05088,0.04249 -0.08389,0.106703 -0.09905,0.192596 l -.4595,-.0212 c 0.01088,-0.07349 0.03301,-0.142564 0.06656,-0.207207 0.03355,-0.06465 0.08118,-0.121313 0.142876,-0.170014 0.06278,-0.0487 0.140711,-0.08677 0.233796,-0.114227 0.09416,-0.02833 0.206195,-0.04249 0.336083,-0.04249 0.123383,0 0.232713,0.01194 0.327965,0.03587 0.09525,0.02302 0.175343,0.05711 0.240291,0.102271 0.06494,0.04516 0.114187,0.100506 0.147745,0.166031 0.03355,0.06465 0.05033,0.138583 0.05033,0.221817 0,0.08767 -0.02111,0.16692 -0.06331,0.237758 -0.04222,0.07085 -0.09634,0.136368 -0.162357,0.196581 -0.06603,0.05933 -0.139629,0.115116 -0.22081,0.167359 -0.0801,0.05224 -0.158027,0.10316 -0.233795,0.152749 -0.07577,0.04959 -0.145042,0.09962 -0.207819,0.150092 -0.0617,0.05047 -0.107698,0.104487 -0.138006,0.162046 h 1.06183 v 0.306825 h -1.60086"/>
<path d="m 40.5714,40.8809 c 0,0.0834 -0.01566,0.158551 -0.04698,0.225447 -0.03035,0.06604 -0.07633,0.122494 -0.137982,0.169412 -0.06165,0.04692 -0.138474,0.08296 -0.23046,0.108163 -0.09101,0.02432 -0.197183,0.03649 -0.318531,0.03649 -0.135047,0 -0.249054,-0.01521 -0.342018,-0.04561 -0.09199,-0.0304 -0.167828,-0.07037 -0.227523,-0.119893 -0.05871,-0.05038 -0.103239,-0.107286 -0.133578,-0.170715 -0.02937,-0.06342 -0.04844,-0.127709 -0.05726,-0.192867 l .4199,-.0325 c 0.0058,0.03909 0.01663,0.07515 0.03229,0.108162 0.01663,0.03215 0.03865,0.05994 0.06606,0.0834 0.0274,0.02346 0.06067,0.04171 0.09982,0.05474 0.04013,0.01208 0.08709,0.01825 0.140915,0.01825 0.09883,0 0.17566,-0.02172 0.230458,-0.06515 0.0548,-0.04343 0.08221,-0.109901 0.08221,-0.199385 0,-0.05472 -0.01327,-0.09861 -0.03964,-0.131623 -0.02544,-0.03302 -0.05822,-0.0582 -0.09834,-0.07559 -0.03915,-0.01825 -0.08172,-0.0304 -0.127709,-0.03649 -0.04599,-0.0061 -0.08955,-0.0093 -0.130641,-0.0093 h -0.143849 v -0.29582 h 0.135047 c 0.0411,0 0.08268,-0.0033 0.124763,-0.01022 0.04305,-0.0069 0.08172,-0.01955 0.115965,-0.03779 0.03425,-0.01825 0.06214,-0.04343 0.08367,-0.07558 0.02152,-0.03302 0.03229,-0.07471 0.03229,-0.125108 0,-0.07558 -0.02397,-0.134663 -0.07192,-0.177231 -0.04697,-0.04343 -0.115965,-0.06515 -0.206971,-0.06515 -0.08514,0 -0.15413,0.02085 -0.206973,0.06255 -0.05187,0.04171 -0.08172,0.100784 -0.08955,0.17723 l -.4124,-.026 c 0.01168,-0.086 0.03818,-0.160725 0.07926,-0.224148 0.04208,-0.06342 0.09443,-0.115979 0.157067,-0.157683 0.06362,-0.04171 0.136514,-0.07255 0.218714,-0.09252 0.08221,-0.02085 0.169299,-0.03128 0.261287,-0.03128 0.121339,0 0.225564,0.013 0.312663,0.03909 0.08709,0.02606 0.158528,0.06125 0.214311,0.105561 0.05579,0.04431 0.09687,0.09601 0.123303,0.155078 0.02642,0.05908 0.03964,0.122082 0.03964,0.188961 0,0.05386 -0.0089,0.104261 -0.02642,0.151167 -0.01762,0.04605 -0.04452,0.08775 -0.08073,0.125108 -0.03523,0.03649 -0.08073,0.06819 -0.136512,0.09513 -0.05579,0.02606 -0.121843,0.04561 -0.198166,0.05864 v 0.0052 c 0.08513,0.0086 0.159023,0.02606 0.221651,0.05212 0.06263,0.02519 0.114001,0.0569 0.154127,0.09513 0.04011,0.03823 0.06997,0.08166 0.08954,0.130323 0.01957,0.04778 0.02937,0.09861 0.02937,0.152471"/>
<rect width="0.30440217" x="41.001884" y="40.008057" height="0.31394249"/>
<rect width="0.30440217" x="41.011528" y="40.673359" height="0.31394249"/>
<path d="m 41.6883,41.3994 v -0.259027 c 0.05195,-0.09298 0.115275,-0.176656 0.189959,-0.251042 0.0747,-0.07527 0.152616,-0.143891 0.233797,-0.205877 0.08226,-0.06287 0.16344,-0.120875 0.243538,-0.174001 0.08118,-0.05402 0.153699,-0.105813 0.21756,-0.155404 0.06494,-0.05046 0.117438,-0.100957 0.157487,-0.151421 0.04005,-0.05046 0.06007,-0.104049 0.06007,-0.160719 0,-0.08323 -0.02544,-0.144776 -0.07632,-0.184626 -0.05086,-0.03984 -0.125559,-0.05977 -0.224052,-0.05977 -0.09741,0 -0.172101,0.02171 -0.224055,0.06508 -0.05088,0.04249 -0.08389,0.106703 -0.09905,0.192596 l -.4595,-.0212 c 0.01088,-0.07349 0.03302,-0.142564 0.06656,-0.207207 0.03355,-0.06465 0.08118,-0.121313 0.142876,-0.170014 0.06278,-0.0487 0.140711,-0.08677 0.233796,-0.114227 0.09416,-0.02833 0.206194,-0.04249 0.336082,-0.04249 0.123383,0 0.232713,0.01194 0.327966,0.03587 0.09525,0.02302 0.175343,0.05711 0.240291,0.102271 0.06494,0.04516 0.114187,0.100506 0.147745,0.166031 0.03355,0.06465 0.05033,0.138583 0.05033,0.221817 0,0.08767 -0.02111,0.16692 -0.06331,0.237758 -0.04223,0.07085 -0.09634,0.136368 -0.162358,0.196581 -0.06603,0.05933 -0.139629,0.115116 -0.22081,0.167359 -0.0801,0.05224 -0.158026,0.10316 -0.233794,0.152749 -0.07577,0.04959 -0.145042,0.09962 -0.207819,0.150093 -0.06171,0.05047 -0.107698,0.104486 -0.138006,0.162045 h 1.06182 v 0.306825 h -1.60086"/>
<path d="m 45.2,40.8832 c 0,0.0834 -0.01566,0.158552 -0.04698,0.225448 -0.03035,0.06604 -0.07633,0.122494 -0.137983,0.169412 -0.06165,0.04692 -0.138473,0.08296 -0.230459,0.108163 -0.09101,0.02432 -0.197184,0.03649 -0.318531,0.03649 -0.135047,0 -0.249055,-0.01521 -0.342018,-0.04561 -0.09199,-0.0304 -0.167829,-0.07037 -0.227523,-0.119893 -0.05871,-0.05038 -0.103239,-0.107286 -0.133578,-0.170715 -0.02937,-0.06342 -0.04844,-0.127709 -0.05726,-0.192868 l .4199,-.0325 c 0.0058,0.03909 0.01663,0.07515 0.03229,0.108163 0.01663,0.03215 0.03865,0.05994 0.06606,0.0834 0.0274,0.02346 0.06067,0.04171 0.09981,0.05474 0.04013,0.01207 0.08709,0.01825 0.140915,0.01825 0.09883,0 0.175661,-0.02172 0.230459,-0.06515 0.0548,-0.04343 0.08221,-0.109901 0.08221,-0.199385 0,-0.05472 -0.01327,-0.09861 -0.03964,-0.131623 -0.02544,-0.03301 -0.05821,-0.0582 -0.09834,-0.07558 -0.03915,-0.01825 -0.08172,-0.0304 -0.127709,-0.03649 -0.04599,-0.0061 -0.08955,-0.0093 -0.130642,-0.0093 h -0.143849 v -0.29582 h 0.135048 c 0.0411,0 0.08268,-0.0033 0.124763,-0.01022 0.04305,-0.0069 0.08172,-0.01955 0.115965,-0.03779 0.03425,-0.01825 0.06214,-0.04343 0.08367,-0.07559 0.02152,-0.03301 0.03228,-0.07471 0.03228,-0.125108 0,-0.07559 -0.02396,-0.134663 -0.07192,-0.177232 -0.04697,-0.04343 -0.115965,-0.06515 -0.206971,-0.06515 -0.08514,0 -0.15413,0.02085 -0.206974,0.06255 -0.05187,0.04171 -0.08171,0.100784 -0.08954,0.17723 l -.4124,-.026 c 0.01168,-0.086 0.03818,-0.160725 0.07926,-0.224148 0.04208,-0.06342 0.09443,-0.115979 0.157067,-0.157683 0.06362,-0.04171 0.136513,-0.07255 0.218713,-0.09252 0.08221,-0.02085 0.1693,-0.03128 0.261287,-0.03128 0.12134,0 0.225565,0.013 0.312664,0.03909 0.08709,0.02606 0.158528,0.06125 0.214311,0.105562 0.05579,0.04431 0.09687,0.09601 0.123303,0.155078 0.02642,0.05908 0.03964,0.122082 0.03964,0.188961 0,0.05386 -0.0089,0.104261 -0.02642,0.151167 -0.01762,0.04605 -0.04452,0.08775 -0.08073,0.125108 -0.03523,0.03649 -0.08073,0.06819 -0.136512,0.09513 -0.05579,0.02606 -0.121844,0.04561 -0.198166,0.05864 v 0.0052 c 0.08513,0.0086 0.159023,0.02606 0.221651,0.05212 0.06263,0.02519 0.114001,0.0569 0.154126,0.09513 0.04012,0.03823 0.06997,0.08166 0.08955,0.130323 0.01957,0.04778 0.02937,0.09861 0.02937,0.152471"/>
<path d="m 30,40 h 1.5 v 1 H 30 Z"/>
<path d="m 28,40 h 1.5 v 1 H 28 Z"/>
<path d="M 34.5,40.9985 35.1379,40 l 0.6353,1 z"/>
</g>
<g style="fill:#90d8d8">
<path d="m 4,11 h 2 v 2 H 4 Z"/>
<path d="m 4,15 h 2 v 2 H 4 Z"/>
<path d="m 4,19 h 2 v 2 H 4 Z"/>
</g>
<g style="fill:#fff">
<path d="m 4.3684,39 c -0.012563,0 -0.022331,0.008 -0.025297,0.02024 l -.1113,.4477 c -0.091996,0.02474 -0.177787,0.06168 -0.258023,0.108769 l -.1973,-.129 -.1948,-.1265 c -0.01088,-0.007 -0.02622,-0.0065 -0.035415,0.0026 l -.2099,.2099 c -0.00894,0.0089 -0.01154,0.02217 -0.00506,0.03289 l .1442,.2352 .1037,.172 c -0.043776,0.07337 -0.078692,0.151812 -0.103715,0.235257 l -.4528,.0936 c -0.012563,0.0026 -0.022767,0.01493 -0.022767,0.02782 v 0.295967 c 0,0.01256 0.010504,0.02487 0.022767,0.02782 l .4376,.1062 c 0.023481,0.09661 0.060762,0.188996 0.108774,0.273201 l -.2555,.387 c -0.00712,0.01075 -0.004,0.02377 0.00506,0.03288 l .2099,.2099 c 0.00894,0.0088 0.022149,0.01166 0.032886,0.0051 l .3997,-.2428 c 0.078254,0.04506 0.163709,0.08221 0.252964,0.106243 l .0911,.4453 c 0.00259,0.01256 0.014927,0.02277 0.027827,0.02277 h 0.298495 c 0.012563,0 0.022331,-0.008 0.025297,-0.02024 l .1113,-.4477 c 0.092022,-0.02474 0.177772,-0.06166 0.258023,-0.108769 l .1973,.1265 .1948,.129 c 0.01088,0.007 0.026232,0.0065 0.035415,-0.0026 l .2099,-.21 c 0.00233,-0.0023 0.00377,-0.0048 0.00506,-0.0076 0.00376,-0.0079 0.00471,-0.01745 0,-0.02529 l -.1441,-.2352 -.1037,-.172 c 0.043763,-0.07337 0.078692,-0.151812 0.103715,-0.235257 l .4528,-.0936 c 0.012563,-0.0026 0.022767,-0.01495 0.022767,-0.02782 v -0.298496 c 0,-0.01256 -0.010504,-0.02233 -0.022767,-0.02529 l -.4376,-.1062 c -0.023481,-0.09661 -0.060762,-0.188997 -0.108774,-0.2732 l .2555,-.387 c 0.00712,-0.01075 0.004,-0.02377 -0.00506,-0.03289 l -.21,-.2099 c -0.00894,-0.0088 -0.022162,-0.01166 -0.032886,-0.0051 l -.3997,.2429 c -0.078254,-0.04506 -0.163709,-0.08222 -0.252964,-0.106243 l -.0911,-.4453 c -0.00259,-0.01256 -0.014927,-0.02277 -0.027827,-0.02277 h -0.298496 Z  m .1316,.8525 c 0.357681,0 0.647633,0.289963 0.647587,0.647644 0,0.357658 -0.289929,0.647601 -0.647587,0.647587 -0.357658,0 -0.647601,-0.289929 -0.647587,-0.647587 0,-0.357658 0.289929,-0.647601 0.647587,-0.647587 z "/>
<path d="m 34.8808,11.3813 c 0,0 -2.43798,4.45473 -0.901717,7.68898 -1.13696,-0.609031 -6.464,-5.42421 -10.1069,-4.35433 -6.46148,1.94078 -4.61119,14.3397 -8.56143,15.1664 -2.49269,0.52166 -3.73617,-1.14199 -5.30047,-2.43856 -0.544391,-0.451221 -1.39188,-0.679876 -2.1523,0.165534 -0.875119,0.972925 -0.332433,2.22359 0.269925,2.89495 1.69382,1.88786 4.4289,3.52364 7.98677,2.58745 6.65548,-1.75127 4.12051,-13.8491 8.49069,-15.0187 1.69586,-0.453859 6.62526,2.90865 7.91502,3.75562 -3.24413,0.09328 -4.97562,4.71406 -4.97562,4.71406 l 15.3702,-.5946 z "/>
</g>
</svg>
