<svg width="48" version="1.1" xmlns="http://www.w3.org/2000/svg" height="48" xmlns:xlink="http://www.w3.org/1999/xlink">
<g id="layer1">
<g style="stroke:none" id="g3782" transform="matrix(1.0487805,0,0,1.0487805,-1.170732,-1.170732)">
<path style="fill:#0052b4" id="path3776" d="m 24,3.5 c -11.3219,0 -20.5,9.17832 -20.5,20.5 0,11.3221 9.17806,20.5 20.5,20.5 11.3209,0 20.5,-9.1778 20.5,-20.5 0,-11.3217 -9.1791,-20.5 -20.5,-20.5 z "/>
<path style="fill:#fff" id="path3774" d="m 23.875,8.6562 c -1.98574,0 -3.59375,1.60801 -3.59375,3.59375 0,1.98574 1.60801,3.59375 3.59375,3.59375 1.98574,0 3.59375,-1.60801 3.59375,-3.59375 0,-1.98574 -1.60801,-3.59375 -3.59375,-3.59375 z  m -5.2812,10.1875 0,2.5 3.25,0 0,13 -3.25,0 0,2.5 12,0 0,-2.5 -3.25,0 0,-15.5 -8.75,0 z "/>
</g>
</g>
</svg>
