<svg width="96" version="1.0" xmlns="http://www.w3.org/2000/svg" height="96">
<path style="opacity:.65;fill:#fff" d="m 8.5673,4.2142 c -2.54478,0 -4.519,2.28524 -4.519,4.51924 v 68.3368 c -1.3e-06,2.43 2.21994,5.12025 4.81904,5.12025 h 15.7693 c 1.7595,0 2.18754,0.127994 2.18754,1.8875 v 1.52451 c 0,2.39775 1.97577,4.4875 5.08723,4.4875 h 32.2747 c 3.01354,0 5.08827,-2.08976 5.08827,-4.4875 v -1.52451 c 0,-1.7595 0.427964,-1.8875 2.18746,-1.8875 h 15.7667 c 3.271,0 4.81996,-2.69025 4.81996,-5.12025 v -68.3368 c 0,-2.234 -2.14706,-4.51924 -4.51996,-4.51924 z "/>
<g>
<path style="fill:#3880d9" d="m 84.937,75.2786 0,-64.2715 -73.9372,0 0,64.2715 z "/>
<path style="opacity:.7;fill:#0e367e" d="m 11,11 0,64.2815 73.9373,0 0,-64.2815 z  m 3,3 68,0 0,58 -68,0 z "/>
<path d="m 10.3123,7 c -1.88391,0 -3.3125,1.42938 -3.3125,3.3125 v 65.3752 c 0,1.88312 1.42859,3.3125 3.3125,3.3125 h 75.3748 c 1.88391,0 3.3125,-1.42938 3.3125,-3.3125 v -65.3752 c 0,-1.88312 -1.42859,-3.3125 -3.3125,-3.3125 z  m 2.6875,6 70,0 0,60 -70,0 z "/>
<path d="m 33,75 c -1.662,0 -3,1.338 -3,3 h -3 v 1 c 1.656,0 3,1.344 3,3 v 2 c 0,1.662 1.338,3 3,3 h 30 c 1.662,0 3,-1.338 3,-3 v -2 c 0,-1.656 1.344,-3 3,-3 v -1 h -3 c 0,-1.662 -1.338,-3 -3,-3 z "/>
<path style="fill:#7f7f7f" d="m 13,73 70,0 0,1 -70,0 z "/>
<rect width="8.4909124" x="53.275669" y="80.837639" rx="1.6981825" height="3.3963649" ry="1.6982" style="fill:#7fff2a"/>
</g>
<path style="opacity:.9;fill:#fefefe" d="m 46.6453,22.9521 c 0.574533,2.56728 1.62892,4.38398 2.16529,6.97662 0.123953,0.599147 -0.220928,0.941351 -0.859861,0.683982 -3.20275,-1.2901 0.671263,-4.50136 -2.09884,-5.05365 -1.01195,-0.201756 -2.6519,0.678061 -3.16195,1.55166 -1.0292,1.76276 1.8218,1.5883 2.05093,3.09538 0.312941,2.05828 -2.84074,1.4879 -3.78238,0.535589 -3.17104,-3.20694 -6.77815,-10.7773 -10.5802,-6.03077 -2.79476,3.48898 5.08819,6.8158 8.04754,7.62152 1.07619,0.293007 1.83615,0.635694 1.59466,1.30152 -0.427661,1.17911 -2.1528,2.72491 -3.1382,1.86123 -1.20712,-1.05801 -2.65772,-1.24164 -3.29122,-0.278297 -0.621363,0.944874 0.164534,1.32947 1,1.73145 1.07608,0.439288 1.14064,0.711936 0.93803,1.73927 -1.09099,0.0958 -2.20013,-0.682726 -2.94698,-1.18817 -2.58795,-2.41393 -6.96299,-6.41062 -8.96603,-0.848136 -1.41215,5.47841 6.0276,7.40989 9.181,6.48806 1.67298,-0.489059 3.4879,-0.753334 3.0486,0.637087 -2.13146,6.7463 -10.4751,1.62549 -12.5696,6.22619 -0.504034,1.10713 0.217809,3.11795 1.61029,3.98273 5.07168,3.1497 6.38527,-2.92888 10.7405,-4.64717 1.76969,-0.698207 3.39133,1.81331 3.01734,2.03631 -5.40099,3.22037 -7.36818,12.7118 -0.582361,12.1436 4.60374,-0.385488 0.718549,-8.58853 4.44784,-9.88842 1.75316,-0.611084 4.69164,-1.07218 4.44804,1.11461 -0.34274,3.07677 -1.48563,10.9262 3.31809,9.57896 4.41699,-1.2388 3.23104,-4.56683 -0.0078,-8.45011 -1.33552,-1.60125 3.27391,-2.45946 3.83811,-1.85652 1.71816,1.83611 3.70698,4.31328 5.73763,2.41543 4.76878,-4.4569 -5.10026,-2.21497 -3.75864,-5.01938 0.3811,-0.796623 2.64496,-2.67735 4.94291,-1.53121 2.24307,1.11877 2.32854,2.89251 4.04526,4.77224 1.18277,1.29508 4.37873,1.18279 6.28091,-0.164158 3.93623,-2.78726 -0.583315,-8.00159 -4.19379,-8.03971 -1.10748,-0.0117 -2.05478,0.185401 -3.01734,0.164154 -1.95497,-0.04315 -4.32895,-3 -3.28311,-3.74431 1.63386,-1.16171 5.54748,0.379668 4.88557,-2.38416 -0.53714,-2.24285 -2.64505,-2.30315 -4.22506,-1.18817 -0.785534,0.554333 -1.52855,-1.55968 -1.33279,-2.32945 0.141358,-0.555841 0.880417,-1.01535 1.99332,-1.62202 2.20934,-1.20435 3.6887,1.44402 5.85098,1.32497 5.07295,-0.279315 6.69498,-6.49331 1.62201,-7.75831 -4.68746,-1.16886 -7.40877,5.54075 -10.6545,5.55002 -1.37565,0.0039 -1.31549,-2.36432 -0.500285,-2.91181 2.2015,-1.47853 3.9776,-2.70184 2.82973,-4.48302 -0.719839,-1.11699 -2.34342,-1.58922 -3.12678,-0.789509 -1.51257,1.54416 -0.767705,3.1232 -3.416,3.40037 -0.944949,0.0989 -1.52907,-0.07297 -1.97768,-0.723067 -2.23154,-3.23375 1.54372,-5.46277 0.4143,-8.64553 -1.68772,-4.75608 -7.54901,-1.69702 -6.57796,2.6421 z "/>
</svg>
