<svg width="96" version="1.0" xmlns="http://www.w3.org/2000/svg" height="96" xmlns:xlink="http://www.w3.org/1999/xlink">
<defs id="defs2410">
<linearGradient id="linearGradient3678">
<stop offset="0" style="stop-color:#888" id="stop3680"/>
<stop offset="1" style="stop-color:#acacac" id="stop3682"/>
</linearGradient>
<linearGradient id="linearGradient3684" xlink:href="#linearGradient3678" y1="24" x1="48" y2="80" x2="48" gradientUnits="userSpaceOnUse"/>
</defs>
<g style="color:#000">
<path style="fill:#c8c8c8" id="rect2419" d="m 12,6 h 72 c 3.324,0 6,2.676 6,6 v 72 c 0,3.324 -2.676,6 -6,6 H 12 C 8.676,90 6,87.324 6,84 V 12 C 6,8.676 8.676,6 12,6 Z"/>
<rect width="74" x="11" y="23" height="60" style="opacity:.99;fill:url(#linearGradient3684)" id="rect3674"/>
<rect width="72" x="12" y="24" height="58" style="opacity:.99;fill:#fff" id="rect3676"/>
<path style="fill:#1a1a1a" id="path3811" d="m 14,7.4806265 h 2 L 15,9 Z"/>
</g>
<path style="stroke-opacity:.627;fill:#cfcfcf;fill-rule:evenodd;stroke:#000;stroke-width:.105" id="path3079" d="m 84.2507,8.4534 a 1.94434,1.99876 0 0,1 -3.88868,0 1.94434,1.99876 0 1,1 3.88868,0 z "/>
<path style="fill:#1a1a1a;color:#000" id="rect3822-5" d="m 81.5597,7.2355 -.4536,.4662 .7181,.7382 -.7181,.7382 .4536,.5051 .7181,-.7382 .7181,.7382 .4913,-.5051 -.7181,-.7382 .7181,-.7382 -.4913,-.4662 -.7181,.7382 -.7181,-.7382 z "/>
<g style="fill-rule:evenodd;stroke:#000;stroke-opacity:.627;stroke-width:.105;fill:#cfcfcf">
<path id="path3079-1" d="m 77.2088,8.4404 a 1.94434,1.99876 0 1,1 -3.88868,0 1.94434,1.99876 0 1,1 3.88868,0 z "/>
<path id="path3079-2" d="m 69.6461,8.4404 a 1.94434,1.99876 0 1,1 -3.88868,0 1.94434,1.99876 0 1,1 3.88868,0 z "/>
</g>
<g style="fill:#1a1a1a">
<path id="path3811-5" d="m 74.0814,7.6552 h 2.41876 l -1.2094,1.889 -1.2094,-1.889 Z "/>
<path id="path3811-1" d="m 68.9299,9.2475 -2.4186,-.0206 1.2245,-1.8786 Z "/>
</g>
<g style="fill:#f9f9f9">
<path id="path4191" d="m 30.1317,14.1254 v 0.731384 q -0.273664,-0.127294 -0.533978,-0.192098 -0.260315,-0.06481 -0.491707,-0.06481 -0.307038,0 -0.453882,0.08795 -0.146844,0.08795 -0.146844,0.273102 0,0.138867 0.0979,0.217557 0.100121,0.07638 0.360436,0.131923 l .3649,.0764 q 0.554003,0.115721 0.787619,0.351793 0.233616,0.236073 0.233616,0.671186 0,0.571666 -0.327062,0.851712 -0.324838,0.277732 -0.99454,0.277732 -0.315937,0 -0.6341,-0.06249 -0.318162,-0.06249 -0.636325,-0.185154 v -0.752192 q 0.318163,0.175898 0.614076,0.26616 0.298139,0.08795 0.574028,0.08795 0.280339,0 0.429408,-0.09721 0.149069,-0.09721 0.149069,-0.277733 0,-0.16201 -0.102346,-0.249958 -0.100121,-0.08795 -0.402709,-0.157382 l -.3315,-.0764 q -0.498381,-0.111093 -0.729772,-0.354109 -0.229166,-0.243015 -0.229166,-0.654984 0,-0.516119 0.320387,-0.793851 0.320388,-0.277732 0.921114,-0.277732 0.273665,0 0.562904,0.04398 0.289238,0.04166 0.598501,0.127294 z "/>
<path id="path4193" d="m 30.7414,14.8798 h 0.796534 l .6697,1.759 .5696,-1.759 h 0.796534 l -1.0479,2.8375 q -0.157968,0.432799 -0.369335,0.604067 -0.209142,0.173583 -0.554004,0.173583 h -0.460557 v -0.543893 h 0.249191 q 0.202467,0 0.293687,-0.06712 0.09345,-0.06712 0.144621,-0.240701 l .0223,-.0718 -1.1102,-2.6917 z "/>
<path id="path4195" d="m 35.9877,14.9609 v 0.629494 q -0.255864,-0.111092 -0.49393,-0.166638 -0.238066,-0.05555 -0.449432,-0.05555 -0.226942,0 -0.338187,0.06018 -0.109021,0.05786 -0.109021,0.180526 0,0.09952 0.08232,0.152752 0.08455,0.05323 0.300363,0.07869 l .1402,.0208 q 0.611851,0.081 0.823218,0.26616 0.211367,0.185155 0.211367,0.580922 0,0.414284 -0.293689,0.622583 -0.293689,0.2083 -0.876615,0.2083 -0.246966,0 -0.511731,-0.04166 -0.26254,-0.03935 -0.540654,-0.120352 v -0.629525 q 0.238066,0.12035 0.487256,0.180525 0.251415,0.06018 0.509505,0.06018 0.233616,0 0.351536,-0.06712 0.117921,-0.06712 0.117921,-0.199042 0,-0.111092 -0.08232,-0.164325 -0.0801,-0.05554 -0.322613,-0.08563 l -.1402,-.0185 q -0.531755,-0.06944 -0.745346,-0.256902 -0.213592,-0.18747 -0.213592,-0.569351 0,-0.411969 0.27144,-0.61101 0.271439,-0.199041 0.832117,-0.199041 0.220267,0 0.462782,0.03472 0.242516,0.03472 0.527304,0.108778 z "/>
<path id="path4197" d="m 37.6252,14.1438 v 0.735974 h 0.820947 v 0.592471 h -0.820947 v 1.09937 q 0,0.180526 0.06898,0.245329 0.06898,0.06249 0.273665,0.06249 h 0.409383 v 0.592494 h -0.683048 q -0.471681,0 -0.669699,-0.20367 -0.195792,-0.205984 -0.195792,-0.696644 v -1.09936 h -0.396034 v -0.592495 h 0.396034 v -0.73599 h 0.796519 z "/>
<path id="path4199" d="m 41.4232,16.169 v 0.236111 h -1.86221 q 0.02892,0.291618 0.202467,0.437428 0.173543,0.145809 0.485032,0.145809 0.251415,0 0.513954,-0.07637 0.264765,-0.07869 0.542879,-0.236072 v 0.638783 q -0.282564,0.111093 -0.565128,0.16664 -0.282564,0.05786 -0.565128,0.05786 -0.676374,0 -1.05239,-0.356423 -0.373785,-0.358738 -0.373785,-1.00446 0,-0.634154 0.36711,-0.997521 0.369336,-0.363365 1.01456,-0.363365 0.587378,0 0.938913,0.367995 0.353762,0.367995 0.353762,0.983633 z  m -.8188,-.2754 q 0,-0.236072 -0.133495,-0.379567 -0.13127,-0.145809 -0.344861,-0.145809 -0.231391,0 -0.37601,0.136552 -0.144621,0.134236 -0.180219,0.388824 h 1.03458 z "/>
<path id="path4201" d="m 44.3333,15.3103 q 0.151294,-0.240701 0.35821,-0.365681 0.209142,-0.127293 0.458333,-0.127293 0.429408,0 0.654124,0.275417 0.224717,0.275418 0.224717,0.800794 v 1.57845 h -0.80097 v -1.35163 q 0.0023,-0.03009 0.0023,-0.06249 0.0023,-0.0324 0.0023,-0.09258 0,-0.275418 -0.07787,-0.398083 -0.07787,-0.12498 -0.251416,-0.12498 -0.226941,0 -0.351536,0.194413 -0.12237,0.194412 -0.12682,0.562407 v 1.27294 h -0.800969 v -1.35163 q 0,-0.430484 -0.07119,-0.553149 -0.0712,-0.12498 -0.253641,-0.12498 -0.229166,0 -0.353761,0.196727 -0.124595,0.194413 -0.124595,0.557779 v 1.27526 h -0.800968 v -2.59217 h 0.800968 v 0.379567 q 0.146844,-0.219871 0.335962,-0.330963 0.191342,-0.111093 0.420509,-0.111093 0.25809,0 0.456107,0.129608 0.198017,0.129608 0.300363,0.363366 z "/>
<path id="path4203" d="m 48.1135,14.0165 h 0.820947 l .5741,2.5111 .5696,-2.5111 h 0.825457 l .5696,2.5111 .5741,-2.5111 h 0.81428 l -.7832,3.4555 h -0.987823 l -.603,-2.6269 -.5963,2.6269 h -0.987823 l -.7899,-3.4555 z "/>
<path id="path4205" d="m 53.3887,14.8798 h 0.796533 v 2.59212 h -0.796533 z  m 0,-1.0091 h 0.796533 v 0.675799 h -0.796533 z "/>
<path id="path4207" d="m 57.4603,15.8936 v 1.57843 h -0.800945 v -0.256918 -0.951279 q 0,-0.335593 -0.01557,-0.462887 -0.01335,-0.127293 -0.04894,-0.187468 -0.04672,-0.081 -0.12682,-0.12498 -0.0801,-0.04628 -0.182443,-0.04628 -0.24919,0 -0.391585,0.201356 -0.142394,0.199042 -0.142394,0.553149 v 1.27526 h -0.796519 v -2.59216 h 0.796519 v 0.379567 q 0.180218,-0.226815 0.382685,-0.333278 0.202467,-0.108779 0.447208,-0.108779 0.431633,0 0.654124,0.275417 0.224716,0.275418 0.224716,0.800795 z "/>
<path id="path4209" d="m 59.8989,15.2594 v -1.38862 h 0.800945 v 3.60123 h -0.800945 v -0.374923 q -0.164644,0.229129 -0.362662,0.335593 -0.198017,0.106465 -0.458332,0.106465 -0.460557,0 -0.75647,-0.379567 -0.295914,-0.381883 -0.295914,-0.981321 0,-0.599438 0.295914,-0.979005 0.295913,-0.381881 0.75647,-0.381881 0.25809,0 0.456108,0.108778 0.200242,0.106463 0.364886,0.333278 z  m -.525,1.678 q 0.255865,0 0.38936,-0.194412 0.13572,-0.194413 0.13572,-0.564722 0,-0.370309 -0.13572,-0.564721 -0.133495,-0.194413 -0.38936,-0.194413 -0.25364,0 -0.38936,0.194413 -0.133495,0.194412 -0.133495,0.564721 0,0.370309 0.133495,0.564722 0.13572,0.194412 0.38936,0.194412 z "/>
<path id="path4211" d="m 62.6555,15.4099 q -0.264765,0 -0.404935,0.199041 -0.137944,0.196727 -0.137944,0.569351 0,0.372624 0.137944,0.571665 0.14017,0.196727 0.404935,0.196727 0.260315,0 0.398259,-0.196727 0.137945,-0.199041 0.137945,-0.571665 0,-0.372624 -0.137945,-0.569351 -0.137944,-0.199041 -0.398259,-0.199041 z  m 0,-.5925 q 0.643,0 1.00343,0.361051 0.362662,0.361051 0.362662,1 0,0.638784 -0.362662,1 -0.360435,0.361052 -1.00343,0.361052 -0.645225,0 -1.01011,-0.361052 -0.362661,-0.361052 -0.362661,-1 0,-0.638784 0.362661,-1 0.364886,-0.361051 1.01011,-0.361051 z "/>
<path id="path4213" d="m 64.3798,14.8798 h 0.774277 l .4183,1.7867 .4205,-1.7867 h 0.665249 l .4183,1.7682 .4205,-1.7682 h 0.774277 l -.6563,2.5921 h -0.869971 l -.4205,-1.7821 -.4183,1.7821 h -0.86997 z "/>
</g>
<g style="fill:#4d4d4d">
<path id="path4166" d="m 30.1317,13.5254 v 0.731384 q -0.273664,-0.127294 -0.533978,-0.192098 -0.260315,-0.06481 -0.491707,-0.06481 -0.307038,0 -0.453882,0.08795 -0.146844,0.08795 -0.146844,0.273104 0,0.138866 0.0979,0.217556 0.100121,0.07638 0.360436,0.131923 l .3649,.0764 q 0.554003,0.115722 0.787619,0.351795 0.233616,0.236072 0.233616,0.671185 0,0.571665 -0.327062,0.851712 -0.324838,0.277732 -0.99454,0.277732 -0.315937,0 -0.6341,-0.06249 -0.318162,-0.06249 -0.636325,-0.185155 v -0.75219 q 0.318163,0.175897 0.614076,0.26616 0.298139,0.08795 0.574028,0.08795 0.280339,0 0.429408,-0.09721 0.149069,-0.09721 0.149069,-0.277732 0,-0.16201 -0.102346,-0.249959 -0.100121,-0.08795 -0.402709,-0.157382 l -.3315,-.0764 q -0.498381,-0.111092 -0.729772,-0.354107 -0.229166,-0.243017 -0.229166,-0.654985 0,-0.516119 0.320387,-0.793852 0.320388,-0.277731 0.921114,-0.277731 0.273665,0 0.562904,0.04398 0.289238,0.04166 0.598501,0.127294 z "/>
<path id="path4168" d="m 30.7414,14.2798 h 0.796534 l .6697,1.759 .5696,-1.759 h 0.796534 l -1.0479,2.8375 q -0.157968,0.432799 -0.369335,0.604067 -0.209142,0.173582 -0.554004,0.173582 h -0.460557 v -0.543891 h 0.249191 q 0.202467,0 0.293687,-0.06712 0.09345,-0.06712 0.144621,-0.240701 l .0223,-.0718 -1.1102,-2.6917 z "/>
<path id="path4170" d="m 35.9877,14.3608 v 0.629494 q -0.255864,-0.111093 -0.49393,-0.16664 -0.238066,-0.05554 -0.449432,-0.05554 -0.226942,0 -0.338187,0.06018 -0.109021,0.05786 -0.109021,0.180527 0,0.09952 0.08232,0.152752 0.08455,0.05323 0.300363,0.07869 l .1402,.0208 q 0.611851,0.081 0.823218,0.26616 0.211367,0.185154 0.211367,0.580923 0,0.414283 -0.293689,0.622582 -0.293689,0.208299 -0.876615,0.208299 -0.246966,0 -0.511731,-0.04166 -0.26254,-0.03935 -0.540654,-0.12035 v -0.629526 q 0.238066,0.120351 0.487256,0.180526 0.251415,0.06018 0.509505,0.06018 0.233616,0 0.351536,-0.06712 0.117921,-0.06712 0.117921,-0.199041 0,-0.111093 -0.08232,-0.164324 -0.0801,-0.05555 -0.322613,-0.08563 l -.1402,-.0186 q -0.531755,-0.06944 -0.745346,-0.256902 -0.213592,-0.187469 -0.213592,-0.569351 0,-0.411969 0.27144,-0.611011 0.271439,-0.199041 0.832117,-0.199041 0.220267,0 0.462782,0.03472 0.242516,0.03472 0.527304,0.108779 z "/>
<path id="path4172" d="m 37.6252,13.5438 v 0.735974 h 0.820947 v 0.592471 h -0.820947 v 1.09937 q 0,0.180526 0.06898,0.245331 0.06898,0.06249 0.273665,0.06249 h 0.409383 v 0.592495 h -0.683048 q -0.471681,0 -0.669699,-0.20367 -0.195792,-0.205985 -0.195792,-0.696645 v -1.09936 h -0.396034 v -0.592495 h 0.396034 v -0.735989 h 0.796519 z "/>
<path id="path4174" d="m 41.4232,15.569 v 0.236111 h -1.86221 q 0.02892,0.29162 0.202467,0.437429 0.173543,0.145809 0.485032,0.145809 0.251415,0 0.513954,-0.07638 0.264765,-0.07869 0.542879,-0.236071 v 0.638784 q -0.282564,0.111092 -0.565128,0.166638 -0.282564,0.05786 -0.565128,0.05786 -0.676374,0 -1.05239,-0.356423 -0.373785,-0.358737 -0.373785,-1.00446 0,-0.634156 0.36711,-0.997521 0.369336,-0.363367 1.01456,-0.363367 0.587378,0 0.938913,0.367995 0.353762,0.367995 0.353762,0.983635 z  m -.8188,-.2754 q 0,-0.236073 -0.133495,-0.379567 -0.13127,-0.14581 -0.344861,-0.14581 -0.231391,0 -0.37601,0.136552 -0.144621,0.134238 -0.180219,0.388825 h 1.03458 z "/>
<path id="path4176" d="m 44.3333,14.7103 q 0.151294,-0.240702 0.35821,-0.365681 0.209142,-0.127294 0.458333,-0.127294 0.429408,0 0.654124,0.275418 0.224717,0.275417 0.224717,0.800794 v 1.57845 h -0.80097 v -1.35163 q 0.0023,-0.03009 0.0023,-0.06249 0.0023,-0.0324 0.0023,-0.09258 0,-0.275417 -0.07787,-0.398083 -0.07787,-0.124978 -0.251416,-0.124978 -0.226941,0 -0.351536,0.194412 -0.12237,0.194412 -0.12682,0.562408 v 1.27294 h -0.800969 v -1.35163 q 0,-0.430485 -0.07119,-0.55315 -0.0712,-0.124979 -0.253641,-0.124979 -0.229166,0 -0.353761,0.196727 -0.124595,0.194412 -0.124595,0.557778 v 1.27526 h -0.800968 v -2.59217 h 0.800968 v 0.379568 q 0.146844,-0.219872 0.335962,-0.330965 0.191342,-0.111093 0.420509,-0.111093 0.25809,0 0.456107,0.129609 0.198017,0.129608 0.300363,0.363366 z "/>
<path id="path4178" d="m 48.1135,13.4165 h 0.820947 l .5741,2.5111 .5696,-2.5111 h 0.825457 l .5696,2.5111 .5741,-2.5111 h 0.81428 l -.7832,3.4555 h -0.987823 l -.603,-2.6269 -.5963,2.6269 h -0.987823 l -.7899,-3.4555 z "/>
<path id="path4180" d="m 53.3887,14.2798 h 0.796533 v 2.59212 h -0.796533 z  m 0,-1.0091 h 0.796533 v 0.675799 h -0.796533 z "/>
<path id="path4182" d="m 57.4603,15.2935 v 1.57843 h -0.800945 v -0.256918 -0.951278 q 0,-0.335593 -0.01557,-0.462887 -0.01335,-0.127294 -0.04894,-0.187469 -0.04672,-0.081 -0.12682,-0.124979 -0.0801,-0.04628 -0.182443,-0.04628 -0.24919,0 -0.391585,0.201356 -0.142394,0.199041 -0.142394,0.55315 v 1.27526 h -0.796519 v -2.59217 h 0.796519 v 0.379568 q 0.180218,-0.226814 0.382685,-0.333279 0.202467,-0.108778 0.447208,-0.108778 0.431633,0 0.654124,0.275418 0.224716,0.275417 0.224716,0.800794 z "/>
<path id="path4184" d="m 59.8989,14.6594 v -1.38862 h 0.800945 v 3.60123 h -0.800945 v -0.374922 q -0.164644,0.229129 -0.362662,0.335593 -0.198017,0.106463 -0.458332,0.106463 -0.460557,0 -0.75647,-0.379567 -0.295914,-0.381881 -0.295914,-0.981319 0,-0.599439 0.295914,-0.979007 0.295913,-0.381881 0.75647,-0.381881 0.25809,0 0.456108,0.108779 0.200242,0.106464 0.364886,0.333279 z  m -.525,1.678 q 0.255865,0 0.38936,-0.194413 0.13572,-0.194412 0.13572,-0.564721 0,-0.370309 -0.13572,-0.564722 -0.133495,-0.194412 -0.38936,-0.194412 -0.25364,0 -0.38936,0.194412 -0.133495,0.194413 -0.133495,0.564722 0,0.370309 0.133495,0.564721 0.13572,0.194413 0.38936,0.194413 z "/>
<path id="path4186" d="m 62.6555,14.8098 q -0.264765,0 -0.404935,0.199042 -0.137944,0.196726 -0.137944,0.56935 0,0.372624 0.137944,0.571665 0.14017,0.196727 0.404935,0.196727 0.260315,0 0.398259,-0.196727 0.137945,-0.199041 0.137945,-0.571665 0,-0.372624 -0.137945,-0.56935 -0.137944,-0.199042 -0.398259,-0.199042 z  m 0,-.5925 q 0.643,0 1.00343,0.361051 0.362662,0.361053 0.362662,1 0,0.638783 -0.362662,1 -0.360435,0.361051 -1.00343,0.361051 -0.645225,0 -1.01011,-0.361051 -0.362661,-0.361052 -0.362661,-1 0,-0.638784 0.362661,-1 0.364886,-0.361051 1.01011,-0.361051 z "/>
<path id="path4188" d="m 64.3798,14.2798 h 0.774277 l .4183,1.7867 .4205,-1.7867 h 0.665249 l .4183,1.7682 .4205,-1.7682 h 0.774277 l -.6563,2.5921 h -0.869971 l -.4205,-1.7821 -.4183,1.7821 h -0.86997 z "/>
</g>
<path style="fill:;color:#4d4d4d" id="path872" d="m 48,29 -6,12 h 12 z m -12,18 -12,6 12,6 z m 24,0 v 12 l 12,-6 z m -12,3 c -1.662,0 -3,1.338 -3,3 0,1.662 1.338,3 3,3 1.662,0 3,-1.338 3,-3 0,-1.662 -1.338,-3 -3,-3 z m -6,15 6,12 6,-12 z"/>
</svg>
