<svg width="96" version="1.0" xmlns="http://www.w3.org/2000/svg" height="96" xmlns:xlink="http://www.w3.org/1999/xlink">
<defs>
<linearGradient id="linearGradient3678">
<stop offset="0" style="stop-color:#888"/>
<stop offset="1" style="stop-color:#acacac"/>
</linearGradient>
<linearGradient gradientTransform="matrix(0.54761905,-0.12964052,0,0.88750533,42.714286,16.622524)" id="linearGradient3684" xlink:href="#linearGradient3678" y1="30.88677" x1="11" y2="83" x2="11" gradientUnits="userSpaceOnUse"/>
<linearGradient gradientTransform="matrix(0.56275509,0,0,0.88750533,23.342103,17)" xlink:href="#linearGradient3678" id="linearGradient325" y1="25.816132" x1="11" y2="77.929451" gradientUnits="userSpaceOnUse" x2="11"/>
<linearGradient gradientTransform="matrix(0.54761894,-0.12964052,0,0.88750533,2.7142868,6.6225234)" xlink:href="#linearGradient3678" id="linearGradient343" y1="20.746212" x1="11" y2="72.85907" gradientUnits="userSpaceOnUse" x2="11"/>
</defs>
<path style="fill:#c8c8c8;color:#000" d="M 9.2857,10.391817 48.7143,1.0577174 c 1.82029,-0.430925 3.28571,1.59712 3.28571,4.54719 V 60.50504 c 0,2.95007 -1.46543,5.67195 -3.28571,6.10287 L 9.2857,75.94201 C 7.46541,76.372936 6,74.34489 6,71.39482 V 16.494687 c 0,-2.95007 1.46543,-5.67195 3.28571,-6.10287 z"/>
<path style="fill:url(#linearGradient343)" d="m 8.7381,23.6089 40.5238,-9.5934 v 46.2504 l -40.5238,9.5934 z "/>
<path style="fill:#fff" d="m 9.2857,24.3666 39.4286,-9.3341 v 44.4754 l -39.4286,9.3341 z "/>
<ellipse cx="32.944298" cy="18.916151" rx="2.8662279" ry="3.6818707" style="fill:#4d994d" transform="matrix(0.97595024,-0.21799343,0,1,0,0)"/>
<ellipse cx="24.027311" cy="19.078276" rx="2.8664675" ry="3.6818707" style="fill:#a67f32" transform="matrix(0.9759537,-0.21797793,0,1,0,0)"/>
<ellipse cx="15.11" cy="19.133266" rx="2.8662279" ry="3.6818707" style="fill:#b25959" transform="matrix(0.97595024,-0.21799343,0,1,0,0)"/>
<g style="color:#000">
<path style="opacity:.35" d="m 52,12.6403 -24.5449,5.709 c -2.91753,0.459297 -5.45508,3.86066 -5.45508,7.64453 v 46.938 l 26.7148,-6.3242 c 1.82028,-0.43092 3.28516,-3.1515 3.28516,-6.10156 v -47.8657 Z "/>
<path style="fill:#c8c8c8" d="m 29.2857,19.8915 39.4286,-9.3341 c 1.82029,-0.430925 3.28571,1.59712 3.28571,4.54719 v 54.9002 c 0,2.95007 -1.46543,5.67195 -3.28571,6.10287 l -39.4286,9.3341 c -1.82029,0.430926 -3.28571,-1.59712 -3.28571,-4.54719 v -54.9002 c 0,-2.95007 1.46543,-5.67195 3.28571,-6.10287 z "/>
</g>
<path style="fill:url(#linearGradient325)" d="m 29.5324,39.912 41.6439,0 v 46.2508 h -41.6439 z " transform="matrix(0.97310369,-0.23036757,0,1,0,0)"/>
<path style="fill:#fff" d="m 30.0952,40.7996 h 40.5184 v 44.4758 h -40.5184 Z " transform="matrix(0.97310369,-0.23036757,0,1,0,0)"/>
<ellipse cx="53.437153" cy="32.883453" rx="2.8662291" ry="3.6818707" style="fill:#4d994d" transform="matrix(0.97595025,-0.21799336,0,1,0,0)"/>
<ellipse cx="35.602837" cy="33.100567" rx="2.8662291" ry="3.6818707" style="fill:#b25959" transform="matrix(0.97595025,-0.21799336,0,1,0,0)"/>
<ellipse cx="44.520092" cy="33.045235" rx="2.8664684" ry="3.6818707" style="fill:#a67f32" transform="matrix(0.97595371,-0.21797786,0,1,0,0)"/>
<g style="color:#000">
<path style="opacity:.35" d="m 72,22.1284 -24.5449,5.7207 c -3.243,0.459294 -5.45508,3.94249 -5.45508,7.64453 v 46.9382 l 26.7148,-6.3242 c 1.82028,-0.43092 3.28516,-3.1515 3.28516,-6.10156 v -47.8777 Z "/>
<path style="fill:#c8c8c8" d="m 49.2857,29.3916 39.4286,-9.3341 c 1.82029,-0.430924 3.28571,1.59712 3.28571,4.54719 v 54.9006 c 0,2.95007 -1.46543,5.67195 -3.28571,6.10287 l -39.4286,9.3341 c -1.82029,0.430926 -3.28572,-1.59712 -3.28572,-4.54719 v -54.9006 c 0,-2.95007 1.46543,-5.67195 3.28572,-6.10287 z"/>
</g>
<path style="fill:url(#linearGradient3684)" d="m 48.7381,42.60865 40.5238,-9.5934 V 79.266 l -40.5238,9.5934 z"/>
<path style="fill:#fff" d="M 49.2858,43.3665 88.7144,34.0324 V 78.5083 L 49.2858,87.8424 Z"/>
<ellipse cx="73.93" cy="46.850765" rx="2.8662283" ry="3.6818707" style="fill:#4d994d" transform="matrix(0.97595024,-0.21799341,0,1,0,0)"/>
<ellipse cx="65.012863" cy="47.012222" rx="2.8664677" ry="3.6818707" style="fill:#a67f32" transform="matrix(0.97595371,-0.21797788,0,1,0,0)"/>
<ellipse cx="56.095684" cy="47.068043" rx="2.8662283" ry="3.6818707" style="fill:#b25959" transform="matrix(0.97595024,-0.21799341,0,1,0,0)"/>
</svg>
