<svg width="48" version="1.1" xmlns="http://www.w3.org/2000/svg" viewBox="0 0 48 48" height="48" xmlns:xlink="http://www.w3.org/1999/xlink" style="overflow:visible">
<defs>
<linearGradient id="linearGradient2768">
<stop offset="0" style="stop-color:#f7f7f7"/>
<stop offset="1" style="stop-color:#b4b4b4"/>
</linearGradient>
<linearGradient gradientTransform="matrix(1.4865567,0,0,1.6186948,139.26767,-113.70035)" xlink:href="#linearGradient2768" id="linearGradient4320" y1="88.063614" x1="-74.544006" y2="99.380844" gradientUnits="userSpaceOnUse" x2="-61.955761"/>
<linearGradient gradientTransform="matrix(1.4865567,0,0,1.6186948,115.00905,-113.70035)" xlink:href="#linearGradient2768" id="linearGradient4316" y1="88.063614" x1="-74.544006" y2="99.380844" gradientUnits="userSpaceOnUse" x2="-61.955761"/>
<linearGradient gradientTransform="matrix(1.4865567,0,0,1.6186948,123.47505,-137.95895)" id="linearGradient2926" xlink:href="#linearGradient2768" y1="88.063614" y2="99.380844" x1="-74.544006" x2="-61.955761" gradientUnits="userSpaceOnUse"/>
</defs>
<g style="fill:#3c3c3c">
<path d="m 12.6875,0.3335 h 15.6308 c 2.15448,0 3.88896,1.73448 3.88896,3.88896 v 15.6305 c 0,2.15448 -1.73448,3.88896 -3.88896,3.88896 H 12.6875 c -2.15448,0 -3.88896,-1.73448 -3.88896,-3.88896 V 4.22246 c 0,-2.15448 1.73448,-3.88896 3.88896,-3.88896 z"/>
<path d="m 28.4805,24.5915 h 15.6306 c 2.15448,0 3.88896,1.73447 3.88896,3.88896 v 15.6306 c 0,2.15448 -1.73448,3.88896 -3.88896,3.88896 H 28.4805 c -2.15448,0 -3.88896,-1.73448 -3.88896,-3.88896 v -15.6306 c 0,-2.15448 1.73448,-3.88896 3.88896,-3.88896 z"/>
<path d="M 4.2225,24.5915 H 19.853 c 2.15448,0 3.88896,1.73448 3.88896,3.88896 v 15.6306 c 0,2.15448 -1.73448,3.88896 -3.88896,3.88896 H 4.2225 c -2.15448,0 -3.88896,-1.73448 -3.88896,-3.88896 v -15.6306 c 0,-2.15448 1.73448,-3.88896 3.88896,-3.88896 z"/>
<rect width="22.908312" x="8.466" y="0" rx="3.8889589" height="22.908312" style="fill:url(#linearGradient2926)"/>
<rect width="22.908312" x="0" y="24.2586" rx="3.8889589" height="22.908312" style="fill:url(#linearGradient4316)"/>
<rect width="22.908312" x="24.258621" y="24.2586" rx="3.8889589" height="22.908312" style="fill:url(#linearGradient4320)"/>
</g>
<path style="fill:#fff" d="m 28.2532,9.9446 .6748,.5654 -4.7065,.2367 -.0373,7.3603 h -7.5952 v -0.5748 l .6124,-6.7855 -5.3968,.0135 .5423,-.5883 z "/>
<path style="fill:#282828" d="m 20.0279,2.7287 8.2253,7.2159 -4.6068,.2273 -.0373,7.3603 h -7.0201 l .0373,-7.3603 h -4.2794 z "/>
<g style="fill:#fff">
<path d="m 7.9776,39.7461 c -0.356426,0.184938 -0.727983,0.324482 -1.11467,0.418633 -0.386689,0.09415 -0.790189,0.141225 -1.2105,0.141225 -1.25421,0 -2.26646,-0.330681 -2.98086,-1.0491 -0.916735,-0.921897 -1.08687,-0.685502 -1.09954,-2.85477 0.118632,-2.49451 1.93409,-3.88579 4.0804,-3.90892 0.420313,0 1.74207,-0.01484 1.74207,-0.01484 l .5831,.5747 v 1.55852 c -0.359788,-0.245467 -0.714531,-0.425361 -1.06423,-0.539686 -0.349701,-0.114325 -0.717894,-0.171488 -1.10458,-0.171488 -0.692673,0 -1.2374,0.221925 -1.63418,0.665776 -0.396776,0.443851 -0.595164,1.05583 -0.595164,1.83593 0,0.77674 0.198388,1.38704 0.595164,1.83089 0.396776,0.443851 0.941503,0.665776 1.63418,0.665776 0.386689,0 1.58571,-1.28587 1.58571,-1.28587 l .5831,-.4249 v 2.5581 z "/>
<path d="m 11.483,32.332 v 2.1787 l 1.278,-.5747 h 0.583 l 0,1.8659 h -1.8611 v 2.6961 l 1.1217,-.2042 .5831,.5747 v 1.2912 h -1.54843 c -0.712853,0 -1.1852,-0.186475 -1.51817,-0.443851 -0.586807,-0.453577 -0.944191,-0.810354 -0.944191,-1.51817 v -2.39579 l -.981,0 v -0.574811 l 2.704,-2.8952 Z "/>
<path d="m 18.6502,36.0491 c -0.158037,-0.07398 -0.316075,-0.127775 -0.474113,-0.1614 -0.154675,-0.03699 -0.311032,-0.05548 -0.46907,-0.05548 -0.464026,0 -0.822133,0.149631 -1.07432,0.448894 -0.248825,0.295901 -0.373238,0.721257 -0.373238,1.27607 v 2.60258 l -2.3885,0 v -0.575036 l 1.8054,-5.649 h 0.291611 v 0.826 l .2915,.6768 c 0.58701,-0.748839 1.392,-1.05519 1.8026,-1.59882 l .5829,.1 .0052,2.1091 z "/>
<path d="m 20.7806,31.737 h 0.5834 l 0,8.4227 -2.3888,0 v -0.575 z"/>
</g>
<g style="fill:#282828">
<path d="m 7.3945,39.1714 q -0.534639,0.277406 -1.11467,0.418632 -0.580032,0.141225 -1.2105,0.141225 -1.88132,0 -2.98086,-1.0491 -1.09954,-1.05415 -1.09954,-2.85477 0,-1.80567 1.09954,-2.85477 1.09954,-1.05415 2.98086,-1.05415 0.63047,0 1.2105,0.141225 0.580033,0.141225 1.11467,0.418632 v 1.55852 Q 6.854818,33.668649 6.33027,33.497161 5.805719,33.325673 5.22569,33.325673 q -1.03901,0 -1.63418,0.665777 -0.595164,0.665776 -0.595164,1.83593 0,1.16511 0.595164,1.83089 0.595164,0.665777 1.63418,0.665777 0.580033,0 1.10458,-0.171488 0.524551,-0.171488 1.06423,-0.539683 v 1.55852 z"/>
<path d="m 10.9,32.3321 v 1.6039 h 1.8611 v 1.2912 H 10.9 v 2.3958 q 0,0.393413 0.156356,0.534639 0.156357,0.136181 0.620383,0.136181 h 0.928052 v 1.2912 h -1.54843 q -1.06928,0 -1.51817,-0.443851 Q 9.09434,38.692274 9.09434,37.623 v -2.39579 H 8.19655 v -1.2912 h 0.89779 v -1.60392 h 1.80567 z"/>
<path d="m 18.0671,35.4743 q -0.237057,-0.110963 -0.474113,-0.161401 -0.232013,-0.05548 -0.46907,-0.05548 -0.696039,0 -1.07432,0.448895 -0.373239,0.443851 -0.373239,1.27607 v 2.60258 h -1.80567 v -5.64901 h 1.80567 v 0.928052 q 0.34802,-0.554813 0.796915,-0.807001 0.453938,-0.257232 1.08441,-0.257232 0.09079,0 0.196707,0.01009 0.105919,0.005 0.307669,0.03026 l .005,1.6342 z "/>
<path d="m 18.9749,31.7369 h 1.8057 v 7.8481 h -1.8057 z"/>
<g style="fill:#fff">
<path d="m 33.3054,38.8231 h -3.0363 l -.4792,1.3719 h -2.7519 l .2248,-.5748 5.1043,-7.5302 h 0.2859 l 3.0785,8.105 h -2.2815 l -.2456,-.5748 .1011,-.7971 z  m -2.5523,-1.3971 h 2.0629 l -1.0289,-2.996 Z "/>
<path d="M 37.8748,31.772 H 38.45 l 0,8.423 H 36.069 v -0.5747 z"/>
<path d="m 42.167,32.367 0,2.179 1.2858,-.575 h 0.5753 v 1.8662 h -1.8611 v 2.7958 l 1.1295,-.304 h 0.5752 l 0,1.866 h -1.54843 c -0.712853,0 -1.17341,-0.202496 -1.51817,-0.443851 -0.54645,-0.382548 -0.943851,-0.924018 -0.943851,-1.51817 v -2.39579 l -.9726,0 v -0.574611 l 2.703,-2.8954 Z "/>
</g>
<g style="fill:#282828">
<path d="m 32.7302,38.2483 h -3.0363 l -.4792,1.3719 h -1.9519 l 2.7892,-7.5303 h 2.3151 l 2.7892,7.5303 h -1.9519 l -.4741,-1.3719 z  m -2.5521,-1.3971 h 2.0629 l -1.0289,-2.996 z "/>
<path d="m 36.0691,31.7722 h 1.8057 v 7.8481 h -1.8057 z"/>
<path d="m 41.592,32.3673 v 1.6039 h 1.8611 v 1.2912 H 41.592 v 2.3958 q 0,0.393413 0.156357,0.534638 0.156356,0.136182 0.620382,0.136182 h 0.928052 v 1.2912 h -1.54843 q -1.06928,0 -1.51817,-0.443851 -0.443851,-0.448895 -0.443851,-1.51817 v -2.39579 h -0.897789 v -1.2912 h 0.897789 v -1.60392 h 1.80567 z"/>
</g>
</g>
</svg>
