<svg width="128" version="1.0" xmlns="http://www.w3.org/2000/svg" height="128" xmlns:xlink="http://www.w3.org/1999/xlink">
<defs>
<linearGradient id="linearGradient4">
<stop offset="0" style="stop-color:#a6a6a6"/>
<stop offset="1" style="stop-color:#fff"/>
</linearGradient>
<linearGradient id="linearGradient2">
<stop offset="0" style="stop-color:#6f490b"/>
<stop offset="1" style="stop-color:#a1670c"/>
</linearGradient>
<linearGradient xlink:href="#linearGradient2" id="linearGradient3" y1="78.631897" x1="80.894402" y2="67.965729" x2="69.159378" gradientUnits="userSpaceOnUse"/>
<linearGradient xlink:href="#linearGradient4" id="linearGradient5" y1="78.631897" x1="80.894402" y2="67.965729" x2="69.159378" gradientUnits="userSpaceOnUse"/>
</defs>
<path style="fill:#f06000" d="m 49.3013,0 c -0.450458,0 -0.843471,0.302314 -0.95047,0.741634 l -3.9625,16.1365 c -3.31238,0.890614 -6.43641,2.21376 -9.3253,3.90897 l -7.1379,-4.664 -7.0281,-4.5971 c -0.390352,-0.253579 -0.90604,-0.204763 -1.23695,0.123154 l -7.5556,7.5743 c -0.321,0.319438 -0.398452,0.808803 -0.16332,1.19411 l 5.1593,8.4819 .0053,-.0053 3.7403,6.158 c -1.57595,2.64182 -2.85812,5.47751 -3.75904,8.48193 l -16.3052,3.3788 c -0.453759,0.09353 -0.781793,0.524267 -0.781793,0.987951 v 5.41365 h 33.4726 a 20.5614,20.5614 0 0,1 19.842,-19.8527 v -33.4618 h -4.01338 z "/>
<path style="fill:#d1d100" d="m 54.6855,0 0,33.4726 a 20.5614,20.5614 0 0,1 19.8527,19.842 h 33.4618 v -3.917 c 0,-0.45249 -0.34256,-0.838407 -0.78179,-0.945113 l -15.8126,-3.8286 c -0.845432,-3.47831 -2.15068,-6.80763 -3.87952,-9.83935 l 9.1647,-13.9143 c 0.255612,-0.388604 0.206419,-0.906265 -0.123154,-1.23427 l -7.5957,-7.5743 c -0.32,-0.318112 -0.813074,-0.357708 -1.19947,-0.123154 l -14.3641,8.6854 c -2.81766,-1.62224 -5.86803,-2.92036 -9.08166,-3.78581 l -3.344,-16.0562 c -0.093791,-0.453807 -0.485812,-0.781793 -0.950468,-0.781793 h -5.34672 z "/>
<path style="fill:#679be4" d="m 0,54.6854 0,3.9143 c 0,0.45249 0.342563,0.841085 0.781793,0.947791 l 15.8126,3.8286 c 0.845432,3.47831 2.15068,6.80494 3.87952,9.83668 l -9.1647,13.9143 c -0.255612,0.388605 -0.20642,0.906265 0.123155,1.23427 l 7.5957,7.577 c 0.32,0.31811 0.813076,0.3577 1.19947,0.1231 l 14.3668,-8.6881 c 2.81766,1.62224 5.86534,2.92303 9.07898,3.78848 l 3.3467,16.0535 c 0.09379,0.45381 0.483134,0.78448 0.94779,0.78448 h 5.34672 v -33.4726 a 20.5614,20.5614 0 0,1 -19.8527,-19.842 h -33.4618 z "/>
<path style="fill:#db9700" d="m 74.5275,54.6854 a 20.5614,20.5614 0 0,1 -19.842,19.8527 v 33.4618 h 4.01606 c 0.450454,0 0.840791,-0.30232 0.94779,-0.74164 l 3.9625,-16.1365 c 3.31315,-0.890811 6.43851,-2.2132 9.32798,-3.90896 l 7.0843,4.6292 7.079,4.6292 c 0.390348,0.25357 0.906039,0.20475 1.23695,-0.1231 l 7.5556,-7.5743 c 0.08581,-0.0854 0.148252,-0.184731 0.198125,-0.28916 0.136671,-0.286168 0.137463,-0.622656 -0.0348,-0.904951 l -5.1566,-8.4792 -.0053,.0053 -3.7403,-6.1606 c 1.57595,-2.64182 2.85544,-5.47483 3.75636,-8.47925 l 16.3052,-3.3762 c 0.45375,-0.09353 0.78179,-0.524267 0.78179,-0.987951 v -5.41633 h -33.4726 z "/>
<g style="fill-rule:evenodd">
<g style="fill:#353535">
<path style="opacity:.03" d="m 126.9629,20.4669 c -0.24047,-0.02215 -0.48385,0.01718 -0.68164,0.132812 -31.8649,25.0605 -48.2139,42.9229 -57.1211,53.3652 -8.5679,9.0707 -16.7446,22.7728 -22.1875,31.7051 l 3.2949,4.0723 c 10.0973,-6.3811 25.3469,-19.1939 30.627,-25.1094 9.93995,-10.5508 26.6056,-31.1609 46.8652,-62.7109 0.62144,-0.770145 -0.0755,-1.38862 -0.79688,-1.45508 z "/>
<path style="opacity:.05" d="m 126.9629,19.4669 c -0.24047,-0.02215 -0.48385,0.01718 -0.68164,0.132812 -31.8649,25.0605 -48.2139,42.9229 -57.1211,53.3652 -8.5679,9.0707 -16.7446,22.7728 -22.1875,31.7051 l 3.2949,4.0723 c 10.0973,-6.3811 25.3469,-19.1939 30.627,-25.1094 9.93995,-10.5508 26.6056,-31.1609 46.8652,-62.7109 0.62144,-0.770145 -0.0755,-1.38862 -0.79688,-1.45508 z "/>
<path style="opacity:.3" d="m 126.9629,16.8669 c -0.24047,-0.02215 -0.48385,0.01718 -0.68164,0.132812 -31.8649,25.0605 -48.2139,42.9229 -57.1211,53.3652 -8.5679,9.0707 -16.7446,22.7728 -22.1875,31.7051 l 3.2949,4.0723 c 10.0973,-6.3811 25.3469,-19.1939 30.627,-25.1094 9.93995,-10.5508 26.6056,-31.1609 46.8652,-62.7109 0.62144,-0.770145 -0.0755,-1.38862 -0.79688,-1.45508 z "/>
<path style="opacity:.1" d="m 126.9629,18.4669 c -0.24047,-0.02215 -0.48385,0.01718 -0.68164,0.132812 -31.8649,25.0605 -48.2139,42.9229 -57.1211,53.3652 -8.5679,9.0707 -16.7446,22.7728 -22.1875,31.7051 l 3.2949,4.0723 c 10.0973,-6.3811 25.3469,-19.1939 30.627,-25.1094 9.93995,-10.5508 26.6056,-31.1609 46.8652,-62.7109 0.62144,-0.770145 -0.0755,-1.38862 -0.79688,-1.45508 z "/>
<path style="opacity:.15" d="m 126.9629,17.6669 c -0.24047,-0.02215 -0.48385,0.01718 -0.68164,0.132812 -31.8649,25.0605 -48.2139,42.9229 -57.1211,53.3652 -8.5679,9.0707 -16.7446,22.7728 -22.1875,31.7051 l 3.2949,4.0723 c 10.0973,-6.3811 25.3469,-19.1939 30.627,-25.1094 9.93995,-10.5508 26.6056,-31.1609 46.8652,-62.7109 0.62144,-0.770145 -0.0755,-1.38862 -0.79688,-1.45508 z "/>
<path style="opacity:.25" d="m 126.9629,16.0669 c -0.24047,-0.02215 -0.48385,0.01718 -0.68164,0.132812 -31.8649,25.0605 -48.2139,42.9229 -57.1211,53.3652 -8.5679,9.0707 -16.7446,22.7728 -22.1875,31.7051 l 3.2949,4.0723 c 10.0973,-6.3811 25.3469,-19.1939 30.627,-25.1094 9.93995,-10.5508 26.6056,-31.1609 46.8652,-62.7109 0.62144,-0.770145 -0.0755,-1.38862 -0.79688,-1.45508 z "/>
<path style="opacity:.35" d="m 126.9629,15.2669 c -0.24047,-0.02215 -0.48385,0.01718 -0.68164,0.132812 -31.8649,25.0605 -48.2139,42.9229 -57.1211,53.3652 -8.5679,9.0707 -16.7446,22.7728 -22.1875,31.7051 l 3.2949,4.0723 c 10.0973,-6.3811 25.3469,-19.1939 30.627,-25.1094 9.93995,-10.5508 26.6056,-31.1609 46.8652,-62.7109 0.62144,-0.770145 -0.0755,-1.38862 -0.79688,-1.45508 z "/>
</g>
<path style="fill:url(#linearGradient3)" d="m 80.8944,78.6319 c 9.93995,-10.5508 26.6057,-31.1594 46.8653,-62.7094 0.82859,-1.02686 -0.68775,-1.78578 -1.47892,-1.32327 -31.8649,25.0605 -48.2142,42.9242 -57.1214,53.3665"/>
<path style="fill:#fff;fill-opacity:.647" d="m 16.5615,117.4111 c 15.7367,-0.31308 11.7326,-13.2085 20.1469,-19.0735 8.25825,-5.75633 18.0885,1.02962 19.3407,6.90132 1.60168,7.51085 -1.73793,14.9254 -10.2331,18.9199 -7.85271,3.69245 -22.7891,4.22938 -29.2544,-6.74774 z"/>
<path style="fill:url(#linearGradient5)" d="m 69.7979,68.3744 c 4.24382,1.43349 8.69423,4.30396 11.0965,10.2575 -5.28004,5.91543 -20.5288,18.7298 -30.6261,25.1109 l -3.2959,-4.0735 c 5.44291,-8.93229 13.6191,-22.6329 22.187,-31.7036 z"/>
<path style="fill:#353535" d="m 21.047,118.919 c 13.1523,-0.72526 9.80253,-13.7543 17.2194,-18.924 7.27925,-5.07393 14.6861,0.09884 15.7898,5.27446 1.4118,6.62045 -1.5319,13.156 -9.02001,16.677 -6.92179,3.25471 -20.8962,2.91927 -23.9892,-3.02741 z"/>
</g>
</svg>
