<svg width="96" version="1.0" xmlns="http://www.w3.org/2000/svg" height="96" xmlns:xlink="http://www.w3.org/1999/xlink">
<rect width="84.123558" x="5.8690858" y="5.8676138" rx="0" height="84.123558" ry="0" style="fill:#c339bb;fill-rule:evenodd;stroke:none" id="rect3028"/>
<g id="g3042" transform="translate(-0.4158795,0.415871)">
<path style="opacity:.2;stroke:none" id="path3835" d="m 48.4159,17.9759 c -8.39901,0 -15.2021,6.6558 -15.2021,14.8462 0.02041,0.93862 0.02629,1.98678 0.119712,3.15428 -1.32921,0.740341 -1.50484,3.64216 -0.319205,6.56091 0.457189,1.12548 1.08562,2.03512 1.71572,2.77577 0.021,0.02477 0.05865,0.06001 0.0798,0.08412 0.150407,0.77116 0.257008,1.35917 0.438905,2.22903 0.563499,1.76626 2.89718,5.09275 4.94766,7.94879 0.204486,2.20324 0.211915,4.39122 -0.199501,6.89737 -5.902,5.11607 -21.0103,7.40483 -20.9877,12.7013 l -.2793,2.0187 h 59.372 l -.2793,-2.0187 c -0.024067,-4.53303 -15.1979,-7.40483 -21.0276,-12.7013 -0.236035,-2.02882 -0.279757,-4.01588 -0.159599,-6.01417 1.86427,-3.00463 4.32383,-6.87664 4.94767,-8.83199 0.229273,-1.01264 0.34064,-1.69596 0.518706,-2.56548 0.55052,-0.703047 1.06993,-1.52301 1.47632,-2.52343 1.12594,-2.77177 0.987951,-5.45068 -0.159602,-6.35062 0.0802,-1.20437 0.16598,-2.33524 0.199504,-3.36457 1e-05,-8.19036 -6.8031,-14.8462 -15.2021,-14.8462 z "/>
<path style="fill:#fff;stroke:none" id="path3798-9" d="m 48,17.9759 c -8.10548,0 -14.6708,6.55214 -14.6708,14.615 0.01969,0.924003 0.02537,1.95584 0.115528,3.10516 -1.28275,0.728811 -1.45225,3.58544 -0.308049,6.45873 0.441211,1.10795 1.04767,2.00343 1.65576,2.73254 0.02026,0.02438 0.0566,0.05908 0.07701,0.08281 0.14515,0.75915 0.248026,1.338 0.423566,2.19431 0.543806,1.73876 2.79593,5.01344 4.77475,7.825 0.197339,2.16893 0.204508,4.32283 -0.192529,6.78995 -5.69573,5.03639 -20.276,7.28951 -20.2542,12.5034 l -.2695,1.9873 h 57.297 l -.2695,-1.9873 c -0.02323,-4.46244 -14.6668,-7.28951 -20.2927,-12.5034 -0.227785,-1.99723 -0.269979,-3.95334 -0.154021,-5.92051 1.79912,-2.95784 4.17272,-6.76955 4.77475,-8.69445 0.221261,-0.996872 0.328736,-1.66955 0.500578,-2.52553 0.53128,-0.692098 1.03254,-1.49929 1.42473,-2.48413 1.08659,-2.72861 0.953423,-5.3658 -0.154024,-6.25172 0.07739,-1.18561 0.160179,-2.29887 0.192531,-3.31217 1e-05,-8.0628 -6.56534,-14.6149 -14.6708,-14.6149 z "/>
</g>
</svg>
