<svg width="96" version="1.0" xmlns="http://www.w3.org/2000/svg" height="96" xmlns:xlink="http://www.w3.org/1999/xlink">
<defs id="defs2410">
<linearGradient id="linearGradient3678">
<stop offset="0" style="stop-color:#888" id="stop3680"/>
<stop offset="1" style="stop-color:#acacac" id="stop3682"/>
</linearGradient>
<linearGradient id="linearGradient3684" xlink:href="#linearGradient3678" y1="24" x1="48" y2="80" x2="48" gradientUnits="userSpaceOnUse"/>
</defs>
<g style="color:#000">
<path style="fill:#c8c8c8" id="rect2419" d="m 12,6 h 72 c 3.324,0 6,2.676 6,6 v 72 c 0,3.324 -2.676,6 -6,6 H 12 C 8.676,90 6,87.324 6,84 V 12 C 6,8.676 8.676,6 12,6 Z"/>
<rect width="74" x="11" y="23" height="60" style="opacity:.99;fill:url(#linearGradient3684)" id="rect3674"/>
<rect width="72" x="12" y="24" height="58" style="opacity:.99;fill:#fff" id="rect3676"/>
</g>
<path style="fill:#626c84;stroke:#626c84;stroke-width:1.075" id="path9" d="m 65.332,39.0605 c -2.77902,-3.55547 -2.63305,-4.53244 -6.07366,-1.74746 l -2.7756,2.2467 c -2.00924,-1.2775 -4.4867,-2.08933 -6.88502,-2.40179 l -.8122,-3.3192 c -1.11605,-4.56111 -2.46511,-2.85731 -6.29092,-1.78831 -4.26712,1.17717 -5.77137,0.396104 -4.65817,4.7132 l .8206,3.1823 c -0.290529,0.256836 -0.693903,0.561674 -0.984432,0.818512 -1.21012,0.914508 -2.1634,2.11955 -3.00383,3.2766 l -3.2181,-.8299 c -4.34598,-1.12083 -3.68097,0.731005 -4.77817,4.4311 -1.34487,4.35103 -2.58267,4.99023 1.81886,6.15581 l 3.379,.8948 c 0.07661,1.43326 0.426907,2.88337 1.05089,4.35033 l -2.7756,2.2467 c -3.56602,2.88649 -2.04426,3.13241 0.522437,6.24085 2.77903,3.55547 2.63304,4.53244 6.07366,1.74746 l 2.7756,-2.2467 c 2.00924,1.2775 4.4867,2.08933 6.88502,2.40178 l .8122,3.3192 c 1.11605,4.5611 2.46511,2.85731 6.29092,1.7883 4.26712,-1.17715 5.77137,-0.396061 4.65817,-4.71319 l -.8206,-3.1823 c 0.29053,-0.256843 0.693903,-0.561676 0.984434,-0.818512 1.21012,-0.914507 2.1634,-2.11956 3.00384,-3.27658 l 3.2181,.8299 c 4.16769,1.66559 3.68097,-0.731003 4.77817,-4.4311 1.34487,-4.35103 2.58267,-4.99024 -1.81885,-6.15581 l -3.379,-.8948 c -0.07661,-1.43327 -0.426905,-2.88337 -1.05088,-4.35033 l 2.7756,-2.2467 c 3.56602,-2.88649 2.04426,-3.13241 -0.52244,-6.24085 z  m -13.6175,19.0515 c -2.77561,2.2467 -6.92888,1.88117 -9.28841,-0.846447 -2.35954,-2.72761 -1.88117,-6.92887 0.84645,-9.28841 2.77562,-2.2467 6.92887,-1.88117 9.28841,0.84645 2.2467,2.77562 1.88117,6.92887 -0.846449,9.28841 z "/>
<circle cx="77.5" cy="14.5" style="fill:#b25959" id="path9843" r="4.5"/>
<circle cx="63.5" cy="14.5" style="fill:#4d994d" id="circle10208" r="4.5"/>
<circle cx="49.5" cy="14.5" style="fill:#a67f32" id="circle10210" r="4.5"/>
</svg>
