<svg width="96" version="1.0" xmlns="http://www.w3.org/2000/svg" height="96">
<path style="opacity:.65;fill:#fff" d="m 8.567,4.2142 c -2.54478,0 -4.519,2.28524 -4.519,4.51924 v 68.3368 c 0,2.43 2.21994,5.12025 4.81904,5.12025 h 15.7693 c 1.7595,0 2.18754,0.127994 2.18754,1.8875 v 1.52451 c 0,2.39775 1.97577,4.4875 5.08723,4.4875 h 32.2747 c 3.01354,0 5.08827,-2.08976 5.08827,-4.4875 v -1.52451 c 0,-1.7595 0.427964,-1.8875 2.18746,-1.8875 h 15.7667 c 3.271,0 4.81996,-2.69025 4.81996,-5.12025 V 8.73344 c 0,-2.234 -2.14706,-4.51924 -4.51996,-4.51924 z"/>
<g style="fill-rule:evenodd">
<rect width="72" x="11.711726" y="11.330991" height="35" style="fill:#00c3ff"/>
<path style="fill:#68a5bb" d="m 13.02,71.0853 v -24.6233 l 70.342,-4.4274 -27.2402,16.0149 -43.1017,13.0359 Z "/>
<path style="fill:#fbf7e5" d="m 13.02,71.0853 34.5558,-14.273 c 8.94986,-4.32515 -3.71552,-3.67639 -0.03027,-8.2178 2.40669,-3.31595 35.4533,-4.97393 35.6038,-6.05522 l -4.8755,29.1228 -65.2572,1.2523 z "/>
<path style="fill:#fff" d="m 45.475,40.5929 c 0.458403,-1.10532 1.78777,-1.15338 2.81918,-1.80215 1.03141,-0.648774 2.57852,-1.92229 3.36927,-2.0905 0.790744,-0.168202 0.848047,2.13855 2.13158,1.87424 1.28352,-0.264315 4.36629,-3.19581 5.5696,-3.46013 1.2033,-0.264316 1.37521,1.56186 1.65025,1.87424 0.275037,0.312373 4.18515,0.601879 4.88199,-1.29755 0.687605,-1.87424 5.06491,0.467045 6.60101,-1.80215 1.51272,-2.23467 2.68166,1.94632 2.68166,1.94632 0,0 7.63242,2.95553 3.16298,4.25307 -4.46943,1.29755 -9.61501,-0.636759 -10.6578,-0.432515 -1.04286,0.204243 -5.35185,0.516616 -6.39472,0.720859 -1.04286,0.204244 -4.40067,0.576688 -5.77588,-0.288344 -1.34582,-0.846548 -10.4725,1.54963 -10.039,0.504603 z "/>
<path style="fill:#efe9c7" d="m 13.02,71.0854 48.3387,-13.6244 c 8.1825,-4.32516 -11.1392,-4.82976 -7.76993,-9.37118 2.20033,-3.31595 31.286,-6.19939 29.4983,-5.40645 l -.1375,30.204 -69.9329,.0269 Z "/>
<path style="fill:#1a6e8e" d="m 12.8161,48.0899 .1375,-3.7349 70.3397,-2.3202 -70.4772,6.0552 Z "/>
<path style="fill:#503525" d="m 77.5862,42.5392 .8939,-.7929 .5351,-.8156 4.2974,-.2477 -.2255,3.0817 -4.6758,-.1442 -.8251,-1.0812 z "/>
<path style="fill:#fff" d="m 18.8579,42.1067 c 1.03172,0.646319 4.49661,-0.09808 6.45195,0.07209 3.84299,0.334438 11.5962,0.09775 11.6388,-0.07209 0.04174,-0.166571 -7.68399,-0.09338 -11.3858,-0.937118 -3.67787,-0.838274 -7.16883,-2.73927 -10.7533,-4.1089 0,0 -1.83438,4.25307 -1.58136,4.25307 0.253024,0 5.42979,0.667743 5.62965,0.792946 z "/>
<path style="fill:#28b433" d="m 12.4052,73.018 44.6029,-7.5685 c 8.18251,-3.08087 5.86791,-2.62949 11.808,-6.44356 3.48576,-3.40446 7.25855,-0.477703 14.271,-7.09431 l -.0879,21.0884 c 0,0 -72.6619,0.07644 -70.594,0.0179 z "/>
</g>
<path d="m 10.312,7 c -1.88391,0 -3.3125,1.42938 -3.3125,3.3125 V 75.6875 C 7,77.57062 8.42809,79 10.312,79 h 75.3748 c 1.88391,0 3.3125,-1.42938 3.3125,-3.3125 V 10.3123 c 0,-1.88312 -1.42859,-3.3125 -3.3125,-3.3125 z m 2.6875,6 H 83 V 73 H 13 Z"/>
<path d="m 33,75 c -1.662,0 -3,1.338 -3,3 h -3 v 1 c 1.656,0 3,1.344 3,3 v 2 c 0,1.662 1.338,3 3,3 h 30 c 1.662,0 3,-1.338 3,-3 v -2 c 0,-1.656 1.344,-3 3,-3 v -1 h -3 c 0,-1.662 -1.338,-3 -3,-3 z"/>
<path style="fill:#7f7f7f" d="m 13,73 h 70 v 1 H 13 Z"/>
<rect width="8.491" x="53.276001" y="80.837997" rx="1.6982" ry="1.698" height="3.396" style="fill:#7fff2a"/>
</svg>
