<svg width="48" version="1.1" xmlns="http://www.w3.org/2000/svg" height="48">
<g style="stroke:none">
<path style="fill:#5e7a80" id="path4158" d="m 5.7877,2.6002 c -1.76638,0 -3.1875,1.4212 -3.1875,3.1875 v 37.5245 c 0,1.7664 1.42112,3.1875 3.1875,3.1875 h 37.5245 c 1.76638,0 3.1875,-1.4211 3.1875,-3.1875 v -37.5245 c 0,-1.7663 -1.42112,-3.1875 -3.1875,-3.1875 z "/>
<path style="fill:#ecf0f1" id="path3792" d="M 5.6875,2.5 C 3.92112,2.5 2.5,3.9212 2.5,5.6875 l 0,36.625 C 2.5,44.0789 3.92112,45.5 5.6875,45.5 l 36.625,0 c 1.76638,0 3.1875,-1.4211 3.1875,-3.1875 l 0,-36.625 C 45.5,3.9212 44.07888,2.5 42.3125,2.5 Z"/>
</g>
<path style="fill:#17d2f8;stroke:#05829b" id="path3790" d="m 13.187,5.9378 c 3.95362,0 7.15625,3.2283 7.15625,7.2187 0,3.9905 -3.20263,7.2188 -7.15625,7.2188 -3.95362,0 -7.15625,-3.2283 -7.15625,-7.2188 0,-3.9904 3.20263,-7.2187 7.15625,-7.2187 z"/>
<path style="fill:#ef38f4;stroke:#940898" id="path3788" d="m 35.156,5.9378 c 3.95362,0 7.15625,3.2283 7.15625,7.2187 0,3.9905 -3.20263,7.2188 -7.15625,7.2188 -3.95362,0 -7.15625,-3.2283 -7.15625,-7.2188 0,-3.9904 3.20263,-7.2187 7.15625,-7.2187 z"/>
<path style="fill:#f1ee13;stroke:#979509" id="path3786" d="m 35.156,28.0935 c 3.95362,0 7.15625,3.2284 7.15625,7.2188 0,3.9904 -3.20263,7.2187 -7.15625,7.2187 -3.95362,0 -7.15625,-3.2283 -7.15625,-7.2187 0,-3.9904 3.20263,-7.2188 7.15625,-7.2188 z"/>
<path style="fill:#88f424;stroke:#4e9808" id="path3392" d="m 13.187,28.156 c 3.95362,0 7.15625,3.2284 7.15625,7.2188 0,3.9904 -3.20263,7.2187 -7.15625,7.2187 -3.95362,0 -7.15625,-3.2283 -7.15625,-7.2187 0,-3.9904 3.20263,-7.2188 7.15625,-7.2188 z"/>
</svg>
