<svg width="48" version="1.0" xmlns="http://www.w3.org/2000/svg" height="48">
<path style="fill:#ccaa7d" d="m 14.9006,4.4998 h 30.0753 c 1.67533,0 3.02407,1.34873 3.02407,3.02407 v 34.1141 c 0,1.67533 -1.34873,3.02407 -3.02407,3.02407 h -30.0753 c -1.67533,0 -3.02407,-1.34873 -3.02407,-3.02407 v -34.1141 c 0,-1.67533 1.34873,-3.02407 3.02407,-3.02407 z "/>
<path style="fill:#3c2510" d="m 15.2663,10.5479 h 29.257 c 1.63754,0 2.95584,1.34873 2.95584,3.02407 v 1.90561 c 0,1.67533 -1.31831,3.02407 -2.95584,3.02407 h -29.257 c -1.63754,0 -2.95585,-1.34874 -2.95585,-3.02407 v -1.90562 c 0,-1.67533 1.31831,-3.02407 2.95585,-3.02407 z "/>
<g style="fill:#ccaa7d">
<path d="m 15.2884,4.5409 c -3.1,0.060824 -3.1078,0.00756 -3.1078,3.01722 v 7.92598 c 0,3.03029 0.126491,2.94928 3.1078,3.01722 l 15.5397,-1.0058 v -13.9605 Z "/>
<path d="m 44.8054,4.5409 c 2.78277,0.060824 2.8473,0.068382 2.8473,3.01722 v 7.92598 c 0,3.09823 -0.244112,3.08516 -2.8473,3.01722 l -13.9773,-1.0058 v -13.9605 Z "/>
</g>
<g style="stroke-width:.504">
<path style="opacity:.5;fill:#3a240f" d="m 33.0228,3.6261 h -6.10882 l .0303,12.7531 .0679,6.0156 2.8662,-.2622 3.0462,-.2784 .0164,-2.9422 .0514,-2.5328 z "/>
<path style="fill:#d8cab2" d="m 32.9925,3.5617 -3.0544,-.2237 -3.0544,.2237 .0303,13.0043 .0678,5.3247 2.8662,-.2504 3.0462,-.2659 .0164,-2.8096 .0514,-1.9988 .0303,-13.0043 z "/>
</g>
<rect width="0.50401145" x="29.434032" y="3.5547364" height="16.213009" style="opacity:.2;fill:#8d6137"/>
<rect width="0.50401145" x="29.938046" y="3.5547364" height="16.213009" style="opacity:.2;fill:#fff"/>
<path style="opacity:.2" d="m 38.3027,26.5149 c -1.26021,-1.61231 -1.19401,-2.05534 -2.75422,-0.792426 l -1.2587,1.0188 c -0.911131,-0.579309 -2.03459,-0.947449 -3.12216,-1.08914 l -.3683,-1.5052 c -0.506099,-2.06833 -1.11785,-1.2957 -2.85275,-0.810943 -1.93501,0.53381 -2.61715,0.179631 -2.11235,2.1373 l .3722,1.4431 c -0.13175,0.116467 -0.314663,0.254705 -0.446409,0.371172 -0.548754,0.414701 -0.981037,0.961152 -1.36215,1.48584 l -1.4593,-.3764 c -1.97078,-0.508264 -1.66921,0.331487 -2.16675,2.00937 -0.60986,1.97307 -1.17116,2.26293 0.8248,2.79149 l 1.5323,.4057 c 0.03475,0.64994 0.193582,1.30752 0.476547,1.97275 l -1.2587,1.0188 c -1.61709,1.30894 -0.927011,1.42046 0.236923,2.83004 1.26021,1.61231 1.19401,2.05532 2.75422,0.792422 l 1.2587,-1.0188 c 0.911135,0.57931 2.03459,0.947454 3.12216,1.08913 l .3683,1.5052 c 0.506095,2.06833 1.11785,1.2957 2.85274,0.810945 1.93501,-0.533807 2.61713,-0.179604 2.11235,-2.1373 l -.3722,-1.4431 c 0.131765,-0.116466 0.314665,-0.254705 0.446413,-0.371172 0.548754,-0.4147 0.981039,-0.961156 1.36216,-1.48583 l 1.4593,.3764 c 1.88992,0.755295 1.66921,-0.331486 2.16676,-2.00937 0.60986,-1.97306 1.17116,-2.26293 -0.824799,-2.79149 l -1.5323,-.4057 c -0.03476,-0.649948 -0.193585,-1.30753 -0.476546,-1.97275 l 1.2587,-1.0188 c 1.61709,-1.30894 0.927011,-1.42046 -0.236921,-2.83004 z  m -6.1751,8.6393 c -1.25866,1.01881 -3.14204,0.853055 -4.21203,-0.383838 -1.06998,-1.23689 -0.853053,-3.14204 0.383843,-4.21202 1.25866,-1.01881 3.14203,-0.853053 4.21201,0.383841 1.01881,1.25866 0.853058,3.14203 -0.383835,4.21201 z "/>
<path style="fill:#fff" d="m 38.3027,26.815 c -1.26021,-1.61231 -1.19401,-2.05534 -2.75422,-0.792426 l -1.2587,1.0188 c -0.911131,-0.579309 -2.03459,-0.947449 -3.12216,-1.08914 l -.3683,-1.5052 c -0.506099,-2.06833 -1.11785,-1.2957 -2.85275,-0.810943 -1.93501,0.53381 -2.61715,0.179631 -2.11235,2.1373 l .3722,1.4431 c -0.13175,0.116467 -0.314663,0.254705 -0.446409,0.371172 -0.548754,0.414701 -0.981037,0.961152 -1.36215,1.48584 l -1.4593,-.3764 c -1.97078,-0.508264 -1.66921,0.331487 -2.16675,2.00937 -0.60986,1.97307 -1.17116,2.26293 0.8248,2.79149 l 1.5323,.4057 c 0.03475,0.64994 0.193582,1.30752 0.476547,1.97275 l -1.2587,1.0188 c -1.61709,1.30894 -0.927011,1.42046 0.236923,2.83004 1.26021,1.61231 1.19401,2.05532 2.75422,0.792422 l 1.2587,-1.0188 c 0.911135,0.57931 2.03459,0.947454 3.12216,1.08913 l .3683,1.5052 c 0.506095,2.06833 1.11785,1.2957 2.85274,0.810945 1.93501,-0.533807 2.61713,-0.179604 2.11235,-2.1373 l -.3722,-1.4431 c 0.131765,-0.116466 0.314665,-0.254705 0.446413,-0.371172 0.548754,-0.4147 0.981039,-0.961156 1.36216,-1.48583 l 1.4593,.3764 c 1.88992,0.755295 1.66921,-0.331486 2.16676,-2.00937 0.60986,-1.97306 1.17116,-2.26293 -0.824799,-2.79149 l -1.5323,-.4057 c -0.03476,-0.649948 -0.193585,-1.30753 -0.476546,-1.97275 l 1.2587,-1.0188 c 1.61709,-1.30894 0.927011,-1.42046 -0.236921,-2.83004 z  m -6.1751,8.6393 c -1.25866,1.01881 -3.14204,0.853055 -4.21203,-0.383838 -1.06998,-1.23689 -0.853053,-3.14204 0.383843,-4.21202 1.25866,-1.01881 3.14203,-0.853053 4.21201,0.383841 1.01881,1.25866 0.853058,3.14203 -0.383835,4.21201 z "/>
<path style="opacity:.6;fill:#82690a" d="M 22.0073,27.2718 C 20.54989,28.29944 15.35099,24.61275 13.56788,24.58749 11.78478,24.56222 6.48352,28.10015 5.05581,27.03164 3.62809,25.96312 5.527798,19.87943 5,18.17578 4.47384,16.47214 -0.529105,12.52362 0.045935,10.8356 0.620971,9.14757 6.993955,9.07433 8.451365,8.04669 c 1.45741,-1.02764 3.66667,-7.00588 5.44979,-6.98062 1.7831,0.025258 3.82211,6.06369 5.24983,7.13221 1.42772,1.06852 7.79606,1.32229 8.32304,3.02592 0.526985,1.70364 -4.58581,5.50884 -5.16086,7.19686 -0.575035,1.68803 1.15156,7.8231 -0.305857,8.85074 z"/>
<path style="fill:#ffe305" d="M 22.0073,26.2058 C 20.54989,27.23344 15.35099,23.54675 13.56788,23.52149 11.78478,23.49622 6.48352,27.03415 5.05581,25.96564 3.62809,24.89712 5.527798,18.81343 5,17.10978 4.47384,15.40614 -0.529106,11.45762 0.045934,9.7696 0.62097,8.08157 6.993954,8.00833 8.451364,6.98069 c 1.45741,-1.02764 3.66667,-7.00588 5.44979,-6.98063 1.7831,0.0252578 3.82211,6.06369 5.24983,7.13222 1.42772,1.06852 7.79606,1.32229 8.32304,3.02592 0.526985,1.70364 -4.58581,5.50884 -5.16085,7.19686 -0.575035,1.68803 1.15156,7.8231 -0.305857,8.85074 z"/>
<path style="opacity:.2;fill:#8d6137;stroke-linecap:round;stroke-width:.1" d="m 26.9247,17.7482 6.0098,-.0977 -.0206,.8491 -5.9699,.002 z "/>
</svg>
