<svg width="96" version="1.0" xmlns="http://www.w3.org/2000/svg" height="96" xmlns:xlink="http://www.w3.org/1999/xlink">
<defs>
<linearGradient id="linearGradient3678">
<stop offset="0" style="stop-color:#888"/>
<stop offset="1" style="stop-color:#acacac"/>
</linearGradient>
<linearGradient gradientTransform="translate(6,18)" id="linearGradient3684" xlink:href="#linearGradient3678" y1="37" x1="27" y2="71" x2="27" gradientUnits="userSpaceOnUse"/>
<linearGradient gradientTransform="translate(-20,-16)" xlink:href="#linearGradient3678" id="linearGradient446" y1="29" x1="25" y2="63" gradientUnits="userSpaceOnUse" x2="25"/>
<linearGradient gradientTransform="translate(-7,-1)" xlink:href="#linearGradient3678" id="linearGradient462" y1="35" x1="26" y2="69" gradientUnits="userSpaceOnUse" x2="26"/>
</defs>
<g style="color:#000">
<path style="fill:#c8c8c8" d="m 6,0 h 56 c 3.324,0 6,2.676 6,6 v 42 c 0,3.324 -2.676,6 -6,6 H 6 C 2.676,54 0,51.324 0,48 V 6 C 0,2.676 2.676,0 6,0 Z"/>
<path style="fill:url(#linearGradient446)" d="M 5,13 H 63 V 47 H 5 Z"/>
<path style="fill:#fff" d="M 6,14 H 62 V 46 H 6 Z"/>
<path style="opacity:.1" d="m 19.997,19 c -4.48813,0 -8,3.27412 -8,8 v 27 h 50 c 3.324,0 6,-2.676 6,-6 V 19 Z"/>
<path style="opacity:.1" d="m 20.497,19.5 c -4.62155,0 -8,2.85713 -8,8 V 54 h 49.5 c 3.324,0 6,-2.676 6,-6 V 19.5 Z"/>
<path style="opacity:.2" d="m 20.997,20 c -5.0256,0 -8,2.68819 -8,8 v 26 h 49 c 3.324,0 6,-2.676 6,-6 V 20 Z"/>
</g>
<circle cx="55.5" cy="6.5" style="fill:#b25959" r="4.5"/>
<circle cx="41.5" cy="6.5" style="fill:#4d994d" r="4.5"/>
<circle cx="27.5" cy="6.5" style="fill:#a67f32" r="4.5"/>
<g style="color:#000">
<path style="opacity:.25" d="m 20.597,20.5 c -4.35773,0 -7.03318,2.77039 -7.1,7.1 L 13.4968,54 H 61.997 c 3.324,0 6,-2.676 6,-6 V 20.5 Z"/>
<path style="fill:#c8c8c8" d="M 20,21 H 76 c 3.324,0 6,2.676 6,6 v 42 c 0,3.324 -1.676,6 -5,6 H 20 c -3.324,0 -6,-2.676 -6,-6 V 27 c 0,-3.324 2.676,-6 6,-6 z"/>
<path style="fill:url(#linearGradient462)" d="M 19,34 H 77 V 68 H 19 Z"/>
<path style="fill:#fff" d="M 20,35 H 76 V 67 H 20 Z"/>
</g>
<ellipse cx="69.5" cy="27.5" rx="4.5" ry="4.5" style="fill:#b25959"/>
<ellipse cx="55.5" cy="27.5" rx="4.5" ry="4.5" style="fill:#4d994d"/>
<ellipse cx="41.5" cy="27.5" rx="4.5" ry="4.5" style="fill:#a67f32"/>
<g style="color:#000">
<path style="opacity:.1" d="m 34,40 c -4.48813,0 -8,3.27412 -8,8 v 27 h 50 c 3.324,0 6,-2.676 6,-6 V 40 Z"/>
<path style="opacity:.1" d="m 34.5,40.5 c -4.62155,0 -8,2.85713 -8,8 V 75 H 76 c 3.324,0 6,-2.676 6,-6 V 40.5 Z"/>
<path style="opacity:.2" d="m 35,41 c -5.0256,0 -8,2.68819 -8,8 v 26 h 49 c 3.324,0 6,-2.676 6,-6 V 41 Z"/>
<path style="opacity:.25" d="m 34.6,41.5 c -4.35773,0 -7.03318,2.77039 -7.1,7.1 V 75 H 76 c 3.324,0 6,-2.676 6,-6 V 41.5 Z"/>
<path style="fill:#c8c8c8" d="m 34,42 h 56 c 3.324,0 6,2.676 6,6 v 42 c 0,3.324 -2.676,6 -6,6 H 34 c -3.324,0 -6,-2.676 -6,-6 V 48 c 0,-3.324 2.676,-6 6,-6 z"/>
<path style="fill:url(#linearGradient3684)" d="M 33,55 H 91 V 89 H 33 Z"/>
<path style="fill:#fff" d="M 34,56 H 90 V 88 H 34 Z"/>
</g>
<circle cx="83.5" cy="48.5" style="fill:#b25959" r="4.5"/>
<circle cx="69.5" cy="48.5" style="fill:#4d994d" r="4.5"/>
<circle cx="55.5" cy="48.5" style="fill:#a67f32" r="4.5"/>
</svg>
