<svg width="48" version="1.1" xmlns="http://www.w3.org/2000/svg" viewBox="0 0 48 48" height="48">
<path style="fill:#00c720" d="m 36,14 c -5.54,0 -10,4.46 -10,10 0,5.54 4.46,10 10,10 5.54,0 10,-4.46 10,-10 0,-5.54 -4.46,-10 -10,-10 z"/>
<path style="fill:#0088f0" d="M 12,14 C 6.46,14 2,18.46 2,24 2,29.54 6.46,34 12,34 17.54,34 22,29.54 22,24 22,18.46 17.54,14 12,14 Z"/>
<path style="fill:#cf4800" d="m 24,14 c -5.54,0 -10,4.46 -10,10 0,5.54 4.46,10 10,10 5.54,0 10,-4.46 10,-10 0,-5.54 -4.46,-10 -10,-10 z"/>
</svg>
