<svg width="96" version="1.0" xmlns="http://www.w3.org/2000/svg" height="96" xmlns:xlink="http://www.w3.org/1999/xlink">
<defs>
<linearGradient id="linearGradient3678">
<stop offset="0" style="stop-color:#888"/>
<stop offset="1" style="stop-color:#acacac"/>
</linearGradient>
<linearGradient gradientTransform="matrix(0.56275509,0,0,0.88750533,2.7893081,12.265055)" xlink:href="#linearGradient3678" id="linearGradient343" y1="24" x1="48" y2="80" gradientUnits="userSpaceOnUse" x2="48"/>
<linearGradient gradientTransform="matrix(0.56275509,0,0,0.88750533,23.342103,17)" xlink:href="#linearGradient3678" id="linearGradient325" y1="24" x1="48" y2="80" gradientUnits="userSpaceOnUse" x2="48"/>
<linearGradient gradientTransform="matrix(0.56275509,0,0,0.88750533,43.894897,21.73445)" id="linearGradient3684" xlink:href="#linearGradient3678" y1="24" x1="48" y2="80" x2="48" gradientUnits="userSpaceOnUse"/>
</defs>
<g style="color:#000">
<g style="stroke-width:.697">
<path style="opacity:.35" d="m 8.4556,13.6494 36.2587,-8.4919 c 1.82131,-0.426557 3.28571,1.59712 3.28571,4.54719 v 64.8008 c 0,2.95007 -1.46797,5.66135 -3.28571,6.10287 l -38.4282,9.3341 c -1.81774,0.441526 -3.28572,-1.59712 -3.28572,-4.54719 v -64.1007 c 0,-3.73026 2.36822,-6.92219 5.45522,-7.64517 z "/>
<path style="fill:#c8c8c8" d="m 9.2857,15.3918 39.4286,-9.3341 c 1.82029,-0.430925 3.28571,1.59712 3.28571,4.54719 v 63.9004 c 0,2.95007 -1.46543,5.67195 -3.28571,6.10287 l -39.4286,9.3341 c -1.82029,0.430926 -3.28571,-1.59712 -3.28571,-4.54719 v -63.9004 c 0,-2.95007 1.46543,-5.67195 3.28571,-6.10287 z "/>
</g>
<g style="stroke-width:.707">
<rect width="41.643875" x="8.9796143" y="32.677677" height="53.25032" style="opacity:.99;fill:url(#linearGradient343)" transform="matrix(0.97310369,-0.23036757,0,1,0,0)"/>
<rect width="40.518368" x="9.5423689" y="33.565182" height="51.475307" style="opacity:.99;fill:#fff" transform="matrix(0.97310369,-0.23036757,0,1,0,0)"/>
</g>
<g style="stroke-width:.697">
<path style="opacity:.35" d="m 51.6113,8.2285 l -24.1562,5.6211 c -2.91754,0.459297 -5.45508,3.86065 -5.45508,7.64453 v 63.9004 c 0,0.538419 0.06342,1.03235 0.154297,1.5 l .0117,-.002 26.5488,-6.2852 c 1.82028,-0.430925 3.28516,-3.1515 3.28516,-6.10156 v -63.9004 c 0,-0.89724 -0.148805,-1.69353 -0.388672,-2.37695 z "/>
<path style="fill:#c8c8c8" d="m 29.2857,15.3918 39.4286,-9.3341 c 1.82029,-0.430925 3.28571,1.59712 3.28571,4.54719 v 63.9004 c 0,2.95007 -1.46543,5.67195 -3.28571,6.10287 l -39.4286,9.3341 c -1.82029,0.430926 -3.28571,-1.59712 -3.28571,-4.54719 v -63.9004 c 0,-2.95007 1.46543,-5.67195 3.28571,-6.10287 z "/>
</g>
<g style="stroke-width:.707">
<rect width="41.643875" x="29.532408" y="37.412376" height="53.25032" style="opacity:.99;fill:url(#linearGradient325)" transform="matrix(0.97310369,-0.23036757,0,1,0,0)"/>
<rect width="40.518368" x="30.095163" y="38.299881" height="51.475307" style="opacity:.99;fill:#fff" transform="matrix(0.97310369,-0.23036757,0,1,0,0)"/>
</g>
<g style="stroke-width:.697">
<path style="opacity:.35" d="m 71.6113,8.2266 l -24.1562,5.623 c -3.24301,0.459294 -5.45508,3.94248 -5.45508,7.64453 v 63.9004 c 0,0.538419 0.06342,1.03235 0.154297,1.5 l .0078,-.002 26.5527,-6.2852 c 1.82028,-0.430925 3.28516,-3.1515 3.28516,-6.10156 v -63.9004 c 0,-0.898003 -0.148424,-1.69512 -0.388672,-2.37891 z "/>
<path style="fill:#c8c8c8" d="m 49.2857,15.3918 39.4286,-9.3341 c 1.82029,-0.430925 3.28571,1.59712 3.28571,4.54719 v 63.9004 c 0,2.95007 -1.46543,5.67195 -3.28571,6.10287 l -39.4286,9.3341 c -1.82029,0.430926 -3.28572,-1.59712 -3.28572,-4.54719 v -63.9004 c 0,-2.95007 1.46543,-5.67195 3.28572,-6.10287 z "/>
</g>
<g style="stroke-width:.707">
<rect width="41.643875" x="50.085201" y="42.147072" height="53.25032" style="opacity:.99;fill:url(#linearGradient3684)" transform="matrix(0.97310369,-0.23036757,0,1,0,0)"/>
<rect width="40.518368" x="50.647957" y="43.034576" height="51.475307" style="opacity:.99;fill:#fff" transform="matrix(0.97310369,-0.23036757,0,1,0,0)"/>
</g>
</g>
<g style="stroke-width:.707">
<ellipse cx="87.508415" cy="34.603275" rx="2.532398" ry="3.9937739" style="fill:#b25959" transform="matrix(0.97310369,-0.23036757,0,1,0,0)"/>
<ellipse cx="79.629845" cy="34.603275" rx="2.532398" ry="3.9937739" style="fill:#4d994d" transform="matrix(0.97310369,-0.23036757,0,1,0,0)"/>
<ellipse cx="71.751274" cy="34.603275" rx="2.532398" ry="3.9937739" style="fill:#a67f32" transform="matrix(0.97310369,-0.23036757,0,1,0,0)"/>
</g>
</svg>
