<svg width="48" version="1.1" xmlns="http://www.w3.org/2000/svg" height="48">
<path style="fill:#ccaa7d" d="m 6,4.1217 h 36 c 1.662,0 3,1.338 3,3 v 34.8783 c 0,1.662 -1.338,3 -3,3 h -36 c -1.662,0 -3,-1.338 -3,-3 v -34.8783 c 0,-1.662 1.338,-3 3,-3 z "/>
<rect width="39.956085" x="3.9800367" y="9.9614334" rx="2.8540061" ry="2.9198806" height="11.679523" style="fill:#3c2510"/>
<g style="fill:#ccaa7d;stroke-width:1.022">
<path d="m 6.1312,4.1614 c -3.12339,0.058728 -3.13123,0.0073 -3.13123,2.91327 v 11.653 c 0,2.92589 0.127445,2.84767 3.13047,2.91327 l 18.7882,-1.3709 v -17.0798 Z "/>
<path d="m 42.1312,4.1614 c 2.80376,0.058728 2.86876,0.066026 2.86876,2.91327 v 11.653 c 0,2.99149 -0.245952,2.97887 -2.86876,2.91327 l -17.2126,-1.3709 v -17.0798 Z "/>
</g>
<path style="opacity:.5;fill:#3a240f" d="m 26.9785,3.2781 -5.8984,0 .0293,12.3137 .0655,14.8088 2.7675,-.2532 2.9412,-.2688 .0159,-2.8408 .0496,-11.446 .0293,-12.3137 z "/>
<path style="fill:#d8cab2" d="m 26.9492,3.216 -2.9492,-.216 l -2.9492,.216 .0293,12.5563 .0655,14.1417 2.7675,-.2418 2.9412,-.2567 .0159,-2.7128 .0496,-10.9304 .0293,-12.5563 z "/>
<path style="opacity:.2;fill:#8d6137" d="M 23.513353,3.2092094 H 24 V 20.5 h -0.486647 z"/>
<path style="opacity:.2;fill:#fff" d="m 24,3.2092094 h 0.486647 V 20.5 H 24 Z"/>
<path style="opacity:.2;fill:#8d6137;stroke-linecap:round;stroke-width:.122" d="m 21.1023,20.5552 5.791,-.128 0,1.1915 -5.786,.0108 z "/>
<path style="fill:#382f22" d="m 13.980176,12.863451 c -1.79229,6e-6 -3.03402,0.204953 -3.7252,0.614838 -0.691199,0.409899 -1.0368,1.10913 -1.03679,2.09769 -4e-6,0.787644 0.257184,1.41454 0.771564,1.88068 0.522407,0.458118 1.22967,0.687178 2.1218,0.687172 1.22967,0 2.21422,-0.434004 2.95364,-1.30202 0.747442,-0.876047 1.12117,-2.0374 1.12118,-3.48409 V 12.86344 h -2.20619 m 4.4245,-0.9162 v 7.70359 h -2.21826 v -2.04944 c -0.506349,0.819788 -1.13726,1.42659 -1.89274,1.82041 -0.755496,0.385781 -1.67977,0.578674 -2.7728,0.578674 -1.38239,-1e-6 -2.48347,-0.385782 -3.30326,-1.15735 C 7.405864,18.063527 7,17.022724 7,15.720704 c -2e-6,-1.51901 0.506335,-2.6643 1.51902,-3.43586 1.02071,-0.771553 2.53973,-1.15734 4.55705,-1.15735 h 3.11036 v -0.217002 c -1.1e-5,-1.02071 -0.33757,-1.80834 -1.01268,-2.36291 -0.667088,-0.562586 -1.60743,-0.843887 -2.82103,-0.843898 -0.77157,1.1e-5 -1.52304,0.09244 -2.25441,0.27728 C 9.366932,8.165829 8.66368,8.44311 7.98857,8.812804 v -2.04946 c 0.811745,-0.313433 1.59938,-0.546509 2.36291,-0.69923 0.763522,-0.160729 1.50695,-0.2411 2.2303,-0.241114 1.95301,1.4e-5 3.41175,0.506354 4.37621,1.51902 0.964445,1.01269 1.44667,2.54778 1.44668,4.60527"/>
<g transform="matrix(0.57696572,0,0,0.57696572,-20.928548,6.2324253)">
<path style="fill:#382f22" d="m 61.7797,58.6479 q 2.24609,0 3.41797,-1.64062 1.19141,-1.64062 1.19141,-4.76562 0,-3.125 -1.19141,-4.76562 -1.17188,-1.64062 -3.41797,-1.64062 -2.24609,0 -3.45703,1.66016 -1.19141,1.64062 -1.19141,4.74609 0,3.10547 1.19141,4.76562 1.21094,1.64062 3.45703,1.64062 z M 57.1313,44.4877 q 1.44531,-1.91406 3.20312,-2.8125 1.75781,-0.917969 4.04297,-0.917969 4.04297,0 6.64062,3.22266 2.59766,3.20312 2.59766,8.26172 0,5.05859 -2.59766,8.28125 -2.59766,3.20312 -6.64062,3.20312 -2.28516,0 -4.04297,-0.898437 -1.75781,-0.917969 -3.20312,-2.83203 v 3.16406 h -6.99219 v -30.3906 h 6.99219 v 11.7188 z"/>
</g>
<g transform="matrix(0.57696572,0,0,0.57696572,14.883535,-0.27624723)">
<path style="fill:#382f22" d="m 45.8922,48.4321 -.889,4.3731 q -1.58585,-1.15334 -3.38794,-1.73001 -1.77807,-0.576671 -3.70031,-0.576671 -2.11446,0 -4.0367,0.744867 -1.89821,0.744867 -3.19572,2.11446 -2.0664,2.09043 -3.19572,4.9017 -1.12931,2.81127 -1.12931,5.81477 0,3.62822 1.8021,5.40629 1.82613,1.77807 5.52643,1.77807 1.82612,0 3.8685,-0.552643 2.06641,-0.552643 4.301,-1.65793 l -.841,4.3731 q -1.92224,0.792923 -3.96461,1.17737 -2.01835,0.408476 -4.15684,0.408476 -5.35824,0 -8.24159,-2.6671 -2.88336,-2.69113 -2.88336,-7.66492 0,-4.18087 1.48973,-7.68895 1.51376,-3.53211 4.4692,-6.34338 2.01835,-1.92224 4.73351,-2.90738 2.71516,-0.985146 5.93491,-0.985146 1.87418,0 3.72433,0.432503 1.85015,0.408476 3.77239,1.24945 z "/>
</g>
</svg>
