<svg width="96" version="1.0" xmlns="http://www.w3.org/2000/svg" height="96">
<g style="stroke:none">
<path style="opacity:.65;fill:#fff" id="path4152" d="m 8.567,4.2142 c -2.54478,0 -4.519,2.28524 -4.519,4.51924 v 68.3368 c -1.3e-06,2.43 2.21994,5.12025 4.81904,5.12025 h 15.7693 c 1.7595,0 2.18754,0.127994 2.18754,1.8875 v 1.52451 c 0,2.39775 1.97577,4.4875 5.08723,4.4875 h 32.2747 c 3.01354,0 5.08827,-2.08976 5.08827,-4.4875 v -1.52451 c 0,-1.7595 0.427964,-1.8875 2.18746,-1.8875 h 15.7667 c 3.271,0 4.81996,-2.69025 4.81996,-5.12025 v -68.3368 c 0,-2.234 -2.14706,-4.51924 -4.51996,-4.51924 z "/>
<rect width="72" x="11.711726" y="11.330991" height="35" style="fill:#00c3ff;fill-rule:evenodd;stroke-linejoin:round;stroke-linecap:round;stroke-width:1.649" id="rect4154"/>
</g>
<g style="fill-rule:evenodd" id="g10430" transform="matrix(1.0286749,0,0,1.0409543,90.161391,14.466924)">
<g style="stroke:none;stroke-width:1.25" id="g21">
<path style="fill:#68a5bb" id="path2784" d="m -74.8942,54.3908 0,-23.6545 68.3432,-4.2532 -26.4662,15.3848 -41.877,12.523 z"/>
<path style="fill:#fbf7e5" id="path2162" d="m -74.6269,54.183 33.3066,-13.5037 c 8.69555,-4.15499 -3.60994,-3.53175 -0.02941,-7.89449 2.3383,-3.18549 34.4459,-4.77824 34.5921,-5.81699 l -4.737,27.977 c 0,0 -62.9131,2.28525 -63.1323,-0.761752 z"/>
<path style="fill:#fff" id="path9629" d="m -43.3614,25.0981 c 0.445377,-1.06183 1.73697,-1.108 2.73907,-1.73125 1.0021,-0.623249 2.50525,-1.84666 3.27353,-2.00825 0.768275,-0.161584 0.82395,2.05441 2.07101,1.8005 1.24705,-0.253916 4.24222,-3.07008 5.41134,-3.324 1.16911,-0.253917 1.33613,1.50041 1.60336,1.8005 0.267222,0.300083 4.06623,0.578199 4.74327,-1.2465 0.668066,-1.8005 4.92099,0.44867 6.41344,-1.73125 1.46974,-2.14675 2.60546,1.86975 2.60546,1.86975 0,0 7.41554,2.83925 3.0731,4.08574 -4.34243,1.2465 -9.3418,-0.611707 -10.355,-0.415499 -1.01323,0.196208 -5.19978,0.496291 -6.21301,0.692499 -1.01323,0.196208 -4.27562,0.553999 -5.61176,-0.277 -1.30758,-0.813242 -10.1749,1.48866 -9.75377,0.48475 z"/>
<path style="fill:#efe9c7" id="path1537" d="m -74.6269,54.3215 46.6978,-13.019 c 7.94999,-4.15499 -10.8227,-4.63974 -7.54915,-9.00249 2.13781,-3.18549 30.397,-5.95549 28.6601,-5.19374 l -.1336,29.0157 c 0,0 -67.4747,1.2465 -67.6751,-1.8005 z "/>
<path style="fill:#1a6e8e" id="path1538" d="m -75.0923,32.3001 .1336,-3.588 68.341,-2.2289 -68.4746,5.817 z "/>
</g>
<g style="stroke:#000" id="g29">
<path style="fill:#503525;stroke-width:.053" id="path7142" d="m -12.1627,26.9678 .8685,-.7617 .5199,-.7835 4.1753,-.238 -.2191,2.9605 -4.5429,-.1385 -.8017,-1.0387 z "/>
</g>
<g style="stroke:none;stroke-width:1.25" id="g33">
<path style="fill:#fff" id="path10257" d="m -69.2222,26.5523 c 1.0024,0.620891 4.36884,-0.09422 6.26862,0.06925 3.73379,0.32128 11.2667,0.0939 11.3081,-0.06925 0.04055,-0.160017 -7.46565,-0.08971 -11.0623,-0.900249 -3.57336,-0.805294 -6.96513,-2.6315 -10.4477,-3.94724 0,0 -1.78226,4.08574 -1.53643,4.08574 0.245834,0 5.2755,0.641472 5.46968,0.761749 z"/>
<path style="fill:#28b433" id="path1821" d="m -75.4915,56.2475 43.3355,-7.2707 c 7.95,-2.95966 5.70117,-2.52604 11.4725,-6.19005 3.38671,-3.27052 7.0523,-0.458909 13.8655,-6.8152 l -.1336,20.2232 c 0,0 -70.549,0.108989 -68.5398,0.05275 z "/>
</g>
</g>
<g style="stroke:none" id="g38">
<path id="path3174" d="m 10.312,6.9998 c -1.88391,0 -3.3125,1.42938 -3.3125,3.3125 l 0,65.3752 C 6.9995,77.57062 8.42809,79 10.312,79 l 75.3748,0 c 1.88391,0 3.3125,-1.42938 3.3125,-3.3125 l 0,-65.3752 c 0,-1.88312 -1.42859,-3.3125 -3.3125,-3.3125 z m 2.6875,6 69.9997,0 0,60.0002 -69.9998,0 z"/>
<path id="rect3535" d="m 32.9997,75.0001 c -1.662,0 -3,1.338 -3,3 h -3 v 1 c 1.656,0 3,1.344 3,3 v 2 c 0,1.662 1.338,3 3,3 h 30 c 1.662,0 3,-1.338 3,-3 v -2 c 0,-1.656 1.344,-3 3,-3 v -1 h -3 c 0,-1.662 -1.338,-3 -3,-3 z "/>
<path style="fill:#7f7f7f" id="rect3483" d="m 12.9995,73.0001 69.9998,0 0,1 -69.9998,0 z"/>
<rect width="8.4910002" x="53.276001" y="80.837997" rx="1.6982" ry="1.698" height="3.3959999" style="fill:#7fff2a" id="rect3485"/>
</g>
</svg>
