<svg width="128" version="1.0" xmlns="http://www.w3.org/2000/svg" viewBox="0 0 112 112" height="128" style="enable-background:new 0 0 112 112">
<path style="fill:#1b6699;fill-rule:evenodd" id="path4138" d="m 63.2356,5.2499 c 7.04438,0 14.6818,0.61125 18.0146,5.625 3.33281,5.01375 -5.64562,8.28656 -3.14531,12.6178 3.06797,1.57313 30.3951,0.63229 30.3951,0.63229 l 1.7502,1.7499 v 29.415 c -5.43,3.1275 -11.1666,-1.35469 -15.9375,-2.2275 -9.00469,4.00688 -9.04875,25.7953 0,29.7 l 9.4998,-5.2374 2.0414,1.6437 c 4.69969,6.31312 4.3963,31.0813 4.3963,31.0813 h -86.1251 c 0,0 0.395625,-26.6579 -2.30813,-29.3607 -2.70375,-2.70281 -4.73906,4.9425 -11.5106,3.495 -4.04719,-1.93594 -6.80625,-5.44219 -6.80625,-15.3844 0,-9.94219 2.63625,-14.3344 6.62625,-16.5787 6.15656,-1.29937 7.15406,6.62156 10.4156,3.36 3.26156,-3.26156 3.64875,-17.8819 3.58313,-29.9062 9.795,0 22.1944,1.875 28.125,-2.8125 0.40125,-5.00156 -3.56344,-4.97344 -3.75,-9.375 1.07719,-5.715 7.70625,-8.22938 14.7356,-8.4375 z "/>
<path style="opacity:0;fill:none;stroke:#254c67;stroke-linejoin:round;stroke-width:7" id="path4350" d="m 62.7533,6.9125 c 6.57475,0 12.8861,0.5705 15.9967,5.25 3.11062,4.6795 -5.26925,7.73413 -2.93563,11.7766 5.72687,2.9365 19.803,2.27587 29.1856,2.22338 0,0 0,27.1513 0,27.454 -5.068,2.919 -10.4221,-1.26438 -14.875,-2.079 -8.40438,3.73975 -8.4455,24.0756 0,27.72 5.00675,0.39375 4.74162,-4.40212 10.5,-3.255 4.38637,5.89225 4.375,28.91 4.375,28.91 h -78.75 c 0,0 0.36925,-24.8806 -2.15425,-27.4032 -2.5235,-2.52263 -4.42312,4.613 -10.7432,3.262 -3.77738,-1.80687 -6.3525,-5.07937 -6.3525,-14.3588 0,-9.27938 2.4605,-13.3787 6.1845,-15.4735 5.74612,-1.21275 6.67713,6.18013 9.72125,3.136 3.04413,-3.04413 3.4055,-16.6897 3.34425,-27.9125 9.142,0 20.7147,1.75 26.25,-2.625 0.3745,-4.66812 -3.32587,-4.64187 -3.5,-8.75 1.00538,-5.334 7.1925,-7.68075 13.7533,-7.875 z "/>
<path style="fill:#3498db;fill-rule:evenodd" id="path10" d="m 63.2356,3.5 c 7.04438,0 13.8066,0.61125 17.1394,5.625 3.33281,5.01375 -5.64562,8.28656 -3.14531,12.6178 6.13594,3.14625 21.2175,2.43844 31.2703,2.38219 0,0 0,29.0906 0,29.415 -5.43,3.1275 -11.1666,-1.35469 -15.9375,-2.2275 -9.00469,4.00688 -9.04875,25.7953 0,29.7 5.36437,0.421875 5.08031,-4.71656 11.25,-3.4875 4.69969,6.31312 4.6875,30.975 4.6875,30.975 h -84.375 c 0,0 0.395625,-26.6578 -2.30813,-29.3606 -2.70375,-2.70281 -4.73906,4.9425 -11.5106,3.495 -4.04719,-1.93594 -6.80625,-5.44219 -6.80625,-15.3844 0,-9.94219 2.63625,-14.3344 6.62625,-16.5787 6.15656,-1.29937 7.15406,6.62156 10.4156,3.36 3.26156,-3.26156 3.64875,-17.8819 3.58313,-29.9062 9.795,0 22.1944,1.875 28.125,-2.8125 0.40125,-5.00156 -3.56344,-4.97344 -3.75,-9.375 1.07719,-5.715 7.70625,-8.22938 14.7356,-8.4375 z "/>
</svg>
