<svg width="48" version="1.1" xmlns="http://www.w3.org/2000/svg" height="48" xmlns:xlink="http://www.w3.org/1999/xlink">
<defs id="defs7386">
<clipPath id="clipPath6279-3">
<rect width="3.8250003" x="26.85" y="220.75" height="6.3750005" style="fill:#bebebe;stroke:none;color:#bebebe;stroke-width:2" id="rect6281-9"/>
</clipPath>
<clipPath id="clipPath6265-334">
<rect width="2.8977277" x="26.96591" y="221.32954" height="5.21591" style="fill:#bebebe;stroke:none;color:#bebebe;stroke-width:2" id="rect6267-61"/>
</clipPath>
<clipPath id="clipPath6259-5">
<rect width="1.8762827" x="26.998718" y="221.50153" height="4.8734746" style="fill:#bebebe;stroke:none;color:#bebebe;stroke-width:2" id="rect6261-61"/>
</clipPath>
</defs>
<path style="fill:#aaa;stroke:none;color:#bebebe" id="path5491" d="m 3.0512,35.1008 4.5549,-5.0203 -.6193,-11.4995 1.0342,-1.0765 22.2284,20.1678 -.8697,.962 -11.6697,.6134 -4.5549,5.0203 -10.1038,-9.1672 Z "/>
<g style="fill:none;stroke:#429cd6;stroke-linecap:round;color:#000;stroke-width:3">
<path id="path3488" d="m 29.3773,29.2929 c -0.986874,-2.13393 -2.82493,-4.56277 -5.25403,-6.76669 -2.4291,-2.20392 -5.02475,-3.79777 -7.24432,-4.57305"/>
<path id="path3494" d="m 36.0149,26.1993 c -1.31869,-2.85142 -3.77475,-6.0969 -7.02059,-9.04184 -3.24583,-2.94494 -6.71421,-5.07469 -9.68007,-6.11063"/>
<path id="path3496" d="m 43.4488,23.9666 c -1.78713,-3.86434 -5.11568,-8.26274 -9.51455,-12.2538 -4.39886,-3.99108 -9.09933,-6.87739 -13.1188,-8.28134"/>
</g>
</svg>
