<svg width="96" version="1.0" xmlns="http://www.w3.org/2000/svg" height="96">
<defs>
<linearGradient gradientTransform="matrix(1.6108448,0,0,1.6108448,-8.4951826,-9.817791)" id="m" y1="21.6146" x1="34.0718" y2="59.0033" x2="34.0718" gradientUnits="userSpaceOnUse">
<stop offset="0" style="stop-color:#ffe2d9"/>
<stop offset="1" style="stop-color:#c98350"/>
</linearGradient>
</defs>
<path style="opacity:.65;fill:#fff" d="m 8.567,4.214 c -2.54478,0 -4.519,2.28524 -4.519,4.51924 v 68.3368 c 0,2.43 2.21994,5.12025 4.81904,5.12025 h 15.7693 46.8252 15.7667 c 3.271,0 4.81996,-2.69025 4.81996,-5.12025 v -68.3368 c 0,-2.234 -2.14706,-4.51924 -4.51996,-4.51924 z "/>
<path style="fill:#3880d9" d="M 84.937,75.2786 V 11.0071 H 11 v 64.2715 z"/>
<path style="opacity:.7;fill:#0e367e" d="M 11,11 V 75.2813 H 84.9371 V 11 Z m 3,3 H 82 V 72 H 14 Z"/>
<path d="m 10.3123,7 c -1.88391,0 -3.3125,1.42938 -3.3125,3.3125 V 75.6875 C 7,77.57062 8.42839,79 10.3123,79 h 75.3748 c 1.88391,0 3.3125,-1.42938 3.3125,-3.3125 V 10.3123 c 0,-1.88312 -1.42859,-3.3125 -3.3125,-3.3125 z m 2.6875,6 H 83 V 73 H 13 Z"/>
<path style="fill:#7f7f7f" d="m 13,73 h 70 v 1 H 13 Z"/>
<g style="stroke-width:1.61">
<path style="fill:#805333" d="m 45.2368,86.6166 c 6.79519,0.905939 15.2518,0.820403 16.2435,0.806872 0.0654,0 0.129673,-0.0013 0.195073,-0.0018 6.1647,-0.0393 10.9624,-3.77147 11.7155,-9.60788 l 1.8779,-12.9436 c 1.61085,-9.66507 -5.63795,-12.0813 -8.05422,-7.2488 l -16.175,14.3786 -16.0419,-10.3515 c -10.9827,-10.9829 -14.4977,-3.81085 -14.4977,-3.81085 7.02359,9.67737 12.6555,27.1681 24.7368,28.7789 z "/>
<path style="fill:url(#m)" d="m 45.2368,84.4166 c 6.79519,0.905939 15.2518,0.820403 16.2435,0.806872 0.0654,0 0.129673,-0.0013 0.195073,-0.0018 6.1647,-0.0393 10.9624,-3.77147 11.7155,-9.60788 l 1.8779,-12.9436 c 1.61085,-9.66507 -5.63796,-12.0813 -8.05422,-7.2488 0,-5.63796 -6.44337,-8.85964 -9.66507,-4.02711 0,-4.83254 -6.44337,-8.05422 -9.66507,-3.22169 v -17.7193 c 0,-6.44337 -9.66507,-8.05422 -9.66507,0 v 33.0223 c 0,0 -1.61842,-2.42384 -3.22169,-4.02711 -10.9827,-10.9829 -14.4977,-1.61085 -14.4977,-1.61085 6.44337,4.83254 12.6555,24.9681 24.7368,26.5789 z "/>
</g>
</svg>
