<svg width="48" version="1.1" xmlns="http://www.w3.org/2000/svg" height="48">
<path style="fill:#e67e22" id="rect4090-5" d="m -0,.0015 0,28.2645 29.8736,0 l .1264,-28.266 -9.7914,.0015 Z "/>
<path style="opacity:.4;fill:#fff;stroke:none" id="path3522-9" d="m 10.7928,.305 c 0.579341,0.736602 0.03953,1.96665 0.913354,1.95444 0.425486,0.569565 -0.848038,0.169903 0.07148,0.608884 0.528777,0.394298 -0.559427,0.619584 0.09542,0.973423 -0.754734,0.368739 0.122334,1.92865 0.682911,2.31905 0.922647,0.735429 0.408037,-1.55705 1.43754,-1.67631 0.559412,-0.604683 1.54193,-0.992846 2.2397,-1.60114 -0.681925,-0.052418 -1.08012,-0.454295 -0.434308,-0.703245 1.1886,1.15321 0.298039,-0.546141 -0.359917,-0.815208 0.636653,-0.191752 1.25584,-0.051331 1.16751,-0.548748 0.672801,-0.466053 -0.646799,-0.616528 -1.11785,-0.511162 -1.56528,0 -3.13055,0 -4.69584,0 z  m -9.7609,.4811 c -0.860085,0.232008 -0.920077,2.17818 -0.055595,1.09749 0.212178,-0.443741 1.19268,-0.978508 0.055595,-1.09749 Z  m 4.0188,.0677 c -0.49583,0.736153 0.0719384,1.32637 0.484473,0.428473 0.292005,-0.374946 -0.216949,-0.414735 -0.484473,-0.428473 Z  m 1.239,.1654 c -0.958038,0.420428 -0.236142,1.40082 -0.21243,1.61887 1.00923,0.33058 1.57051,-0.216139 1.9523,0.718258 0.960285,0.524012 -0.0188846,1.43455 -0.379366,1.67168 0.649284,-0.535395 1.89735,1.45562 1.57016,0.403717 -0.390338,-0.269852 1.04805,0.433504 0.301804,-0.443508 -0.686756,-1.04762 0.0545154,-0.46901 0.34405,-0.224504 0.984761,-0.836092 -1.11422,-0.937154 -0.590262,-1.79759 -0.459138,-0.352097 -1.06131,-1.41875 -1.87435,-1.21025 -0.544273,0.666445 -0.0751847,-1.45213 -0.873723,-0.391967 -0.0413923,0.592626 -0.0150616,1.34463 -0.247768,0.317952 -0.155908,-0.179732 0.268233,-0.597573 0.0095846,-0.66266 Z  m -1.9538,.0075 c -0.643058,0.202985 -0.60852,1.02564 0.1822,1.11383 0.270842,-0.292299 0.107607,-1.05848 -0.1822,-1.11383 Z  m -2.5097,.2631 c -0.835269,0.187375 -0.494331,0.825054 -0.238591,1.00465 -1.03393,0.245211 1.57839,0.3134 0.278301,0.468705 -1.08163,0.409004 1.04156,0.890869 1.38988,0.405921 1.33568,0.309283 0.0480669,-1.01236 -0.0691792,-1.72879 -0.566221,-0.575368 -0.0223477,1.32638 -0.534312,0.0612831 -0.17863,0.375678 -0.746602,0.0553623 -0.8261,-0.211757 Z  m 26.5428,.0827 c -1.12083,0.415328 0.696625,1.98264 0.244938,0.556764 -0.045,-0.172172 0.101175,-0.627081 -0.244938,-0.556764 Z  m -23.4056,.6315 c -0.805431,0.71667 1.02378,1.30932 -0.231331,1.84322 -0.188192,-0.665573 -0.511986,0.332998 -1.23003,-0.204502 -1.2344,0.48664 -1.86565,-0.253486 -2.89914,-0.76082 -0.620737,-0.073157 -0.387526,0.558438 -0.42864,1.14982 2.77556e-17,1.63435 2.77556e-17,3.26868 2.77556e-17,4.90303 0.60861,0.606272 0.237452,0.267493 0,0.100278 0.33405,1.07719 -0.147308,2.65182 1.16943,3.2784 0.223842,0.39312 1.16312,2.06791 1.20642,1.5668 -0.470887,-0.466902 -0.954038,-1.86665 -0.157252,-0.61908 0.71368,1.18591 1.67637,1.95508 3.08274,2.23728 0.768908,0.247638 1.40126,1.0989 2.07744,0.9116 0.382355,0.954347 -1.13311,1.8708 0.050877,2.76093 0.6181,0.901123 1.6558,1.49215 1.09398,2.75727 -0.392894,1.23557 -0.224673,2.58187 -0.564478,3.73307 -0.105464,0.700726 1.03152,2.47928 0.933008,1.05508 0.33198,-0.989715 0.323227,-2.07873 1.10508,-2.77961 1.06981,0.008 0.204465,-1.08919 1.26638,-0.945854 0.64799,-0.804185 0.835677,-1.76355 1.92921,-2.08288 0.130623,-0.976161 1.81823,-2.47117 0.07483,-2.85122 -0.473836,-0.221134 -1.69383,-0.300647 -1.6006,-0.409755 0.188897,-0.968608 -1.57762,-1.24435 -2.32921,-1.64065 -0.986823,-0.663217 -2.46965,1.10177 -2.81732,-0.419037 -0.207452,-0.478492 -0.965962,-0.486251 -0.617367,-1.22459 -0.628237,0.591599 -1.85703,0.411798 -1.53532,-0.730695 0.488565,-0.9622 2.36482,-1.00772 2.68452,0.149628 -0.443901,-1.27642 0.858046,-2.27007 1.58079,-3.17817 0.147162,-0.434048 1.02158,-0.806962 0.720675,-0.230091 0.512644,-0.017508 1.28965,-0.893431 0.37897,-0.489146 -0.0128846,-0.798808 -0.798023,-0.571644 -1.05257,-0.458218 0.471784,-0.708982 2.89473,-0.321375 1.88012,-1.48025 -0.786192,-0.301621 -0.720794,-2.06172 -1.51601,-1.08116 0.0669154,-0.604167 -1.61853,-1.78682 -1.58175,-0.7737 0.205735,0.906554 0.0376154,1.95088 -0.400214,2.54511 -0.0913708,-1.3284 -2.4842,-1.03481 -2.17655,-2.45037 0.445691,-0.674662 0.9665,-1.60763 1.01612,-1.5237 0.798746,-0.288747 1.44108,-1.12865 0.515341,-1.68081 -0.0494769,0.481234 -0.696222,1.47412 -0.60516,0.273257 -0.598886,0.672299 -0.462104,-1.0698 -1.02298,-1.25048 Z  m 19.1168,.4661 c -1.40293,0.324933 -1.95911,1.59365 -2.65312,2.64448 -1.02302,0.436719 -0.984084,2.31224 0.158837,1.71322 0.305897,0.50585 -0.213994,1.30316 0.67701,0.641739 0.718681,-0.900492 0.125669,-2.35691 1.34868,-2.92472 0.08909,0.441508 -1.12817,2.09012 0.293859,1.81914 1.28554,0.045923 -0.934546,0.121278 -0.309307,0.898777 -0.649611,-0.364934 -0.312063,0.996669 -1.16,0.679811 -0.734591,0.378333 -1.21629,-0.175662 -1.04801,-0.782546 -0.57788,0.319196 0.181759,1.21968 -0.8214,1.2738 -0.224716,0.755533 -2.07262,0.641655 -1.02174,1.41099 0.466564,1.14488 -1.73844,0.071777 -1.11245,1.44567 0.535571,1.35858 1.65799,-0.450173 2.11336,-0.799624 0.878592,-0.64528 2.1805,1.10027 1.38988,1.16515 0.886531,-0.11262 0.704353,-0.910908 -0.0059,-1.21997 -0.383628,-0.942046 1.21443,0.462003 1.12581,0.934316 0.563833,0.999669 0.331646,-1.02351 0.905408,-0.12779 -0.06699,0.944846 2.30812,0.22216 1.17418,1.42636 -0.974931,0.185926 -1.93455,-0.237973 -2.7739,0.03354 -0.781216,-0.0066 -0.742018,-0.796839 -1.02644,-0.994746 -0.993715,0.07644 -2.22168,0.0678 -2.88693,0.827884 -0.71939,0.934539 -1.75679,2.24095 -0.972707,3.43424 0.784638,1.76832 2.73048,0.09172 3.84899,1.13605 0.332456,0.435438 -0.288105,0.953046 0.455258,1.4247 0.27972,1.00472 -0.317553,1.95868 0.36944,2.91912 0.355248,0.903253 0.575711,2.25518 1.89791,1.42982 1.39936,-0.797331 1.02664,-2.26717 2.1813,-3.08129 -0.913631,-1.67414 1.11774,-2.4082 1.62457,-3.7673 -1.10732,0.153491 -2.09381,-0.891807 -2.36135,-1.94392 -0.465174,-0.511036 -0.345361,-1.26456 0.174256,-0.30454 0.714207,0.65526 0.729637,2.59958 2.05081,1.59935 0.603997,-0.2392 2.25351,-1.15165 0.9392,-1.56689 -0.847192,0.580989 -1.78187,-1.73602 -0.537807,-0.392102 0.904416,0.363301 1.53776,0.579762 1.53776,-0.624771 0,-3.24526 0,-6.5345 0,-9.80177 -0.281715,0.272578 -1.00545,0.776 -1.37075,0.441482 -0.628581,0.082879 -1.45838,1.24089 -1.26085,0.121468 -0.54638,-0.034262 -0.09781,1.00372 -0.848454,1.03275 -0.07558,0.533633 -0.758309,0.098818 -0.501858,0.60557 -0.526885,-0.353857 -0.972777,-1.4711 0.065331,-0.769847 1.54165,-0.437918 -1.01662,-1.42569 -1.21409,-1.66445 0.331939,-0.0752992 -0.361134,-0.402828 -0.444764,-0.293166 Z  m -12.7234,.2932 c -0.513118,0.404807 0.975516,0.48104 0,0 z  m -6.8541,.218 c -0.573908,0.568398 0.913985,0.522522 0,0 z  m 3.3278,.5638 c -0.4346,0.674092 0.642154,0.248871 0,0 z  m 9.5148,.7968 c -0.508811,0.554631 -1.18039,-0.145966 -1.19133,0.330752 0.09221,0.144042 0.461567,1.17211 1.27075,0.413439 0.434291,-0.173363 0.263298,-0.610391 -0.07943,-0.744192 z  m -10.8331,.3308 c -0.965077,0.798008 1.63899,0.871531 0.204446,0.0915231 l -.2045,-.0915 Z  m 12.7313,2.21 c -0.694839,0.429011 0.333336,1.34009 -0.01512,1.76807 -0.435387,0.718251 1.61793,-0.050592 0.52123,-0.623643 -0.07814,-0.492338 -0.642501,-1.09305 -0.50611,-1.14442 z  m -.4686,.8645 c -0.968092,0.259145 -0.219765,1.5971 0.123117,0.336949 0.01928,-0.073062 0.04541,-0.339392 -0.123117,-0.336949 z  m -7.7515,.9697 c -0.900623,0.581465 -0.139885,1.16186 0.52016,0.900239 -0.135506,-0.350829 -0.514055,-0.571871 -0.52016,-0.900239 Z  m 17.0122,.9772 c 0.449377,0.214731 -0.823493,0.581549 -0.01749,0.959462 0.469049,0.522264 0.292215,1.64337 -0.47018,0.8499 0.141645,-0.885908 -1.03345,-1.54751 0.487675,-1.80936 z  m -2.3112,.0075 c -0.06097,0.569157 1.29691,1.45385 -0.166782,1.16515 -0.774061,0.08598 -1.93344,-0.0224 -0.958277,-0.935646 0.308134,-0.175148 1.11719,0.604284 0.696183,-0.124262 0.149259,-0.00901 0.28827,-0.062361 0.428873,-0.105244 z  m -4.4715,1.2328 c -0.56459,0.344398 0.390409,0.608478 0,0 z  m -14.1768,3.2099 c -0.095184,0.300664 1.78564,0.605366 0.487765,0.123663 l -.1935,-.0645 -.2943,-.0592 Z  m 1.4614,.4285 c -0.570489,0.548363 1.17538,0.163829 0,0 z  m 19.0772,5.0289 c -1.2396,0.03028 -1.0748,3.05768 -0.2107,1.26633 0.08194,-0.388722 0.41039,-0.901785 0.2107,-1.26633 z "/>
<path style="fill:#2980b9" id="rect4090-8" d="m 9,9.867 0,28.266 30,0 0,-28.2166 -9.7059,-.0493 z "/>
<g style="stroke:none" id="g14">
<path style="fill:#fff" id="path3994" d="m 14.5209,13.7058 c -0.306695,0 -0.53519,0.226156 -0.522356,0.547156 v 2.50128 9.57131 5.12424 2.30153 0.199756 c 0,0.299523 0.190384,0.510531 0.464317,0.538471 0.01987,0.002 0.03735,0.01026 0.05804,0.0087 h 1.32662 16.1886 1.32662 c 0.01917,0 0.03961,-0.0024 0.05804,-0.0087 0.273934,-0.02794 0.464317,-0.238948 0.464317,-0.538471 v -0.199756 -2.30153 -5.12424 -4.46409 c -2.47178,-2.58141 -4.93614,-5.57043 -7.40418,-8.15564 h -11.7693 -0.190702 z "/>
<path style="fill:#2980b9" id="path3998" d="m 14.5939,14.3558 0,2.9035 0,13.5495 0,2.9035 1.5435,0 16.979,0 0,-2.9035 0,-8.6418 l -7.0835,-7.8112 Z "/>
</g>
<g id="layer1-4" transform="matrix(0.87833695,0,0,0.70664941,11.851643,16.907428)">
<path style="fill:#ecf0f1" id="rect4090-0" d="M 0,0 0,40 34,40 34.155457,0.06617726 23,0 Z" transform="translate(7,4)"/>
<g style="stroke:#003bc3;fill-rule:evenodd;stroke-linecap:square;stroke-width:0;stroke-miterlimit:2" id="g55">
<rect width="23.362026" x="0" y="0" height="3.1810868" style="fill:#f1c40f" id="line2-4" transform="translate(12.3094,16.5316)"/>
<g style="fill:#7f8c8d" id="g58">
<rect width="23.270403" x="12.3398" y="10.1695" height="3.1810868" id="line-6"/>
<rect width="23.362026" x="0" y="0" height="3.1810868" id="line21-6" transform="translate(12.3009,22.8938)"/>
</g>
<rect width="23.362026" x="0" y="0" height="3.1810868" style="fill:#e74c3c" id="line22-2" transform="translate(12.3448,29.256)"/>
<rect width="23.362026" x="0" y="0" height="3.1810868" style="fill:#7f8c8d" id="line23-5" transform="translate(12.3363,35.6181)"/>
</g>
</g>
</svg>
