<svg width="96" version="1.0" xmlns="http://www.w3.org/2000/svg" height="96" xmlns:xlink="http://www.w3.org/1999/xlink">
<g style="stroke:none">
<rect width="84" x="6" y="6" height="84" style="stroke-opacity:.431;fill:#af6b32;fill-rule:evenodd;stroke-linecap:square" id="rect4150"/>
<path style="fill:#fff;color:#000;stroke-width:1.481" id="path2761" d="m 40.7901,14.4264 -.0267,.0236 c -0.601211,0.654761 -1.56283,0.677125 -2.3149,1.07206 l -3.4618,1.1326 -.8236,.8208 c 0,0 -1.89155,0.298016 -2.99594,0.565483 -0.291107,0.109103 -0.640216,0.118189 -0.887193,0.307653 -0.444332,1.06769 -0.770349,2.13557 -1.21479,3.20326 -0.762658,-0.53221 -2.52613,-0.959687 -3.16447,-0.957142 -1.27332,2.28339 0.453605,5.90504 1.66869,7.77368 -1.24207,1.32352 -2.26735,2.47304 -3.53871,3.77056 0.476152,1.79991 1.18746,3.56819 1.21152,5.45247 0.127096,1.17479 0.134916,2.36776 0.398984,3.522 0.12928,0.211284 0.357201,0.350384 0.599632,0.393294 0.54752,1.41626 1.12357,4.1144 1.38956,5.6112 l .6425,1.3143 -1.047,3.5287 -.8484,4.2446 -3.6168,2.9178 .1795,4.393 2.2597,-.795 c -0.203628,0.995871 -0.274231,1.96792 0.163827,2.52104 1.40658,0.478206 5.14692,0.668399 7.17103,0.925139 l -1.1146,1.2081 c -2.21877,0.976233 -4.56069,2.86451 -4.65437,4.91862 h -1.37315 c -2.47289,0 -4.46374,1.14042 -4.46374,2.55777 v 0.600759 c 0,0.656944 0.428622,1.25425 1.13348,1.70645 -0.639325,0.240376 -1.13464,1.32952 -1.13461,1.66736 0,0.76986 0.954686,1.68391 3.41387,1.93374 11.3859,1.1677 24.1748,1.03714 36.8282,-0.112735 2.46236,-0.225285 2.8789,-1.05242 2.8789,-1.8221 0,-0.3622 -0.330054,-1.4708 -1.05436,-1.71754 0.658726,-0.445841 1.05547,-1.02387 1.05547,-1.65645 v -0.600578 c 0,-1.41753 -1.99087,-2.55795 -4.4638,-2.55795 h -1.24385 c -0.09219,-2.02029 -1.55023,-3.7722 -3.70921,-4.75789 l -1.5047,-1.361 c 2.36823,0.02546 4.93131,-0.596395 6.00188,-0.884956 1.61912,-9.46122 -8.52102,-17.6945 -15.1821,-22.7144 1.65478,0.310381 7.38126,-0.613553 7.38126,-0.613553 3.86851,1.02969 5.12234,3.92784 6.97277,6.40397 0.827151,0.402386 5.78156,0.516209 6.20138,-0.287652 0.494809,-1.74191 1.54343,-4.4766 0.343256,-5.65757 -2.50864,-1.31807 -3.65036,-1.68372 -4.5418,-2.36831 0.450678,0.01818 0.840079,-0.377655 0.862662,-0.700036 1.59759,1.48462 4.96908,0.563302 4.56968,-0.717673 0.770967,1.3768 4.52277,1.04878 4.21413,-0.742222 1.55075,1.60772 4.77339,0.557484 5.01102,-0.790223 -0.09182,-1.09915 -0.205011,-1.28807 -0.717765,-2.02629 0.778931,-1.41916 1.47142,-3.24108 -0.200629,-3.78511 -0.913569,-0.253651 -2.57311,-0.06909 -3.48632,-0.309835 -0.795987,-0.63476 -2.09447,-3.73747 -3.11627,-3.85075 -2.48093,0.07092 -5.07178,1.38553 -7.48981,1.93483 0,0 -5.27684,-0.868955 -8.44496,-1.77991 1.18385,0.06182 4.41943,-4.1464 -1.86133,-6.69072 -0.57654,-0.259287 -2.92135,-0.774405 -2.08576,0.694218 -1.56823,-2.26848 -3.89297,-1.19879 -5.13889,0.94605 -0.334053,-0.06909 -2.75679,-0.141826 -3.37017,-0.203647 2.95897,-1.91065 10.3734,-4.19531 13.3132,-6.13378 -3.07989,-0.624942 -8.49026,-0.863682 -11.5735,-1.4719 z "/>
</g>
</svg>
