<svg width="48" version="1.1" xmlns="http://www.w3.org/2000/svg" height="48">
<defs id="defs4"/>
<g style="stroke:none;fill-rule:evenodd" id="layer1" transform="translate(0,-1004.3622)">
<path style="fill:#3498db" id="path4149" d="m 22.9062,1005.6747 c -11.36,0.5758 -20.4062,9.997 -20.4062,21.5 0,11.8741 9.62588,21.5 21.5,21.5 11.8741,0 21.5,-9.6259 21.5,-21.5 0,-11.8741 -9.62588,-21.5 -21.5,-21.5 -0.371066,0 -0.7273,-0.019 -1.09375,0 z "/>
<path style="fill:#505050" id="path4157" d="m 25.425,1012.656 0,21.4062 .7,.8 3.7375,-.8 0,-2.2187 c 0.614195,0.8984 1.2887,1.5691 2.03125,2 0.742535,0.4216 1.59993,0.625 2.5625,0.625 1.70509,0 3.08742,-0.7467 4.1875,-2.25 1.10005,-1.5127 1.65623,-3.4695 1.65625,-5.8438 -1.6e-05,-2.3744 -0.556202,-4.3089 -1.65625,-5.8125 -1.10008,-1.5125 -2.48241,-2.2499 -4.1875,-2.25 -0.962566,0.0001 -1.81997,0.1942 -2.5625,0.625 -0.742551,0.4218 -1.41706,1.0706 -2.03125,1.9688 l .7,-7.45 -.7,-.8 z  m 7.375,9.2187 c 0.953379,0.0001 1.69246,0.3863 2.1875,1.1563 0.504184,0.7701 0.749988,1.8769 0.75,3.3437 -1.2e-05,1.4668 -0.245816,2.605 -0.75,3.375 -0.49504,0.7701 -1.23412,1.125 -2.1875,1.125 -0.94423,0 -1.67415,-0.3549 -2.1875,-1.125 -0.504204,-0.7792 -0.750006,-1.9174 -0.75,-3.375 -6e-06,-1.4576 0.245796,-2.5425 0.75,-3.3125 0.513355,-0.7793 1.24327,-1.1874 2.1875,-1.1875 z "/>
<path style="fill:#fff" id="path4147" d="m 26.125,9.0938 v 21.4062 h 4.4375 v -2.21875 c 0.614195,0.8984 1.2887,1.5691 2.03125,2 0.742535,0.4216 1.59993,0.625 2.5625,0.625 1.70509,0 3.08742,-0.7467 4.1875,-2.25 1.10005,-1.5127 1.65623,-3.46945 1.65625,-5.84375 -1.6e-05,-2.3744 -0.556202,-4.3089 -1.65625,-5.8125 -1.10008,-1.5125 -2.48241,-2.2499 -4.1875,-2.25 -0.962566,0.0001 -1.81997,0.1942 -2.5625,0.625 -0.742551,0.4218 -1.41706,1.07055 -2.03125,1.96875 v -8.25 h -4.4375 z  m 7.375,9.2188 c 0.953379,0.0001 1.69246,0.38625 2.1875,1.15625 0.504184,0.7701 0.749988,1.87695 0.75,3.34375 -1.2e-05,1.4668 -0.245816,2.605 -0.75,3.375 -0.49504,0.7701 -1.23412,1.125 -2.1875,1.125 -0.94423,0 -1.67414,-0.3549 -2.1875,-1.125 -0.504204,-0.7792 -0.750006,-1.9174 -0.75,-3.375 -6e-06,-1.4576 0.245796,-2.5425 0.75,-3.3125 0.513355,-0.7793 1.24327,-1.1874 2.1875,-1.1875 z " transform="translate(0,1004.3622)"/>
<path style="fill:#505050" id="path4159" d="m 12.1438,1018.3122 c -1.70511,0 -3.11869,0.7467 -4.21875,2.25 -1.0909,1.4944 -1.625,3.4381 -1.625,5.8125 -1.2e-06,2.3743 0.534101,4.3311 1.625,5.8438 1.10006,1.5033 2.51364,2.25 4.21875,2.25 0.971715,0 1.82911,-0.2034 2.5625,-0.625 0.733366,-0.4218 1.41704,-1.0925 2.03125,-2 v 8.0937 l .7,.8 3.7375,-.8 .7,-20.4812 -.7,-.8 h -4.4375 v 2.2812 c -0.614213,-0.9076 -1.29788,-1.5782 -2.03125,-2 -0.733385,-0.4217 -1.59079,-0.625 -2.5625,-0.625 z  m 1.6562,3.5625 c 0.95338,0.0001 1.66121,0.3863 2.15625,1.1563 0.504186,0.7701 0.781238,1.8769 0.78125,3.3437 -1.2e-05,1.4668 -0.277064,2.605 -0.78125,3.375 -0.495039,0.7701 -1.20287,1.125 -2.15625,1.125 -0.935062,0 -1.68331,-0.3549 -2.1875,-1.125 -0.495034,-0.77 -0.718755,-1.9082 -0.71875,-3.375 -5e-06,-1.4668 0.223716,-2.5736 0.71875,-3.3437 0.50419,-0.77 1.25244,-1.1562 2.1875,-1.1563 z "/>
<path style="fill:#fff" id="path4145" d="m 12.8438,14.75 c -1.70511,0 -3.11869,0.7467 -4.21875,2.25 -1.0909,1.4944 -1.625,3.4381 -1.625,5.8125 -1.2e-06,2.3743 0.534101,4.33105 1.625,5.84375 1.10006,1.5033 2.51364,2.25 4.21875,2.25 0.971715,0 1.82911,-0.2034 2.5625,-0.625 0.733366,-0.4218 1.41704,-1.0925 2.03125,-2 v 8.09375 h 4.4375 v -21.2812 h -4.4375 v 2.28125 c -0.614213,-0.9076 -1.29788,-1.5782 -2.03125,-2 -0.733385,-0.4217 -1.59079,-0.625 -2.5625,-0.625 z  m 1.6562,3.5625 c 0.95338,0.0001 1.66121,0.38625 2.15625,1.15625 0.504186,0.7701 0.781238,1.87695 0.78125,3.34375 -1.2e-05,1.4668 -0.277064,2.605 -0.78125,3.375 -0.495039,0.7701 -1.20287,1.125 -2.15625,1.125 -0.935062,0 -1.68331,-0.3549 -2.1875,-1.125 -0.495034,-0.77 -0.718755,-1.9082 -0.71875,-3.375 -5e-06,-1.4668 0.223716,-2.57365 0.71875,-3.34375 0.50419,-0.77 1.25244,-1.15615 2.1875,-1.15625 z " transform="translate(0,1004.3622)"/>
</g>
</svg>
