<svg width="48" version="1.1" xmlns="http://www.w3.org/2000/svg" height="48">
<g style="stroke:none">
<path style="fill:#559c2c" id="path3761" d="M 7.1162791,2 C 4.2818605,2 2,4.2818605 2,7.1162791 L 2,40.883721 C 2,43.71814 4.2818605,46 7.1162791,46 L 40.883721,46 C 43.71814,46 46,43.71814 46,40.883721 L 46,7.1162791 C 46,4.2818605 43.71814,2 40.883721,2 L 7.1162791,2 Z"/>
<path style="opacity:.5" id="path2990" d="m 28.4263,14.3332 c -7.68603,0 -13.9856,6.29949 -13.9856,13.9856 0,7.68603 6.2995,13.9856 13.9856,13.9856 2.97763,0 5.74407,-0.970211 8.01666,-2.57234 l 2.7971,2.822 3.4213,-2.4829 .0002,-.9386 -2.822,-2.7971 c 1.60212,-2.27263 2.57234,-5.03906 2.57234,-8.01666 0,-7.68603 -6.2995,-13.9856 -13.9856,-13.9856 z  m 0,4.845 c 5.08289,0 9.14053,4.05765 9.14053,9.14053 0,1.65899 -0.43807,3.20856 -1.19876,4.54529 l -4.5453,-4.5453 2.9467,-1.9831 .0002,-.9389 -3.4214,-3.4214 -9.2655,9.2654 -.0002,.9386 3.4218,2.4829 2.9219,-2.9469 4.5453,4.5453 c -1.33673,0.76069 -2.8863,1.19876 -4.54529,1.19876 -5.08289,0 -9.14053,-4.05765 -9.14053,-9.14053 0,-5.08289 4.05765,-9.14053 9.14053,-9.14053 z "/>
<path style="fill:#fff" id="path3759" d="m 28.4263,15.2717 c -7.68603,0 -13.9856,6.29949 -13.9856,13.9856 0,7.68603 6.2995,13.9856 13.9856,13.9856 2.97763,0 5.74407,-0.970211 8.01666,-2.57234 l 2.7971,2.822 3.4213,-3.4214 -2.8219,-2.7971 c 1.60213,-2.27263 2.57234,-5.03906 2.57234,-8.01666 0,-7.68603 -6.2995,-13.9856 -13.9856,-13.9856 z  m 0,4.845 c 5.08289,0 9.14053,4.05765 9.14053,9.14053 0,1.65899 -0.43807,3.20856 -1.19876,4.54529 l -4.5453,-4.5453 2.9467,-2.9216 -3.4213,-3.4218 -9.2656,9.2655 3.4217,3.4214 2.9219,-2.9469 4.5453,4.5453 c -1.33673,0.760689 -2.8863,1.19876 -4.54529,1.19876 -5.08289,0 -9.14053,-4.05765 -9.14053,-9.14053 0,-5.08289 4.05765,-9.14053 9.14053,-9.14053 z "/>
<path style="opacity:.5" id="path4223" d="m 12.0008,15.4652 c 0.392345,-0.396745 0.507669,-0.993994 0.242473,-1.25437 l -2.2671,-2.2626 5.0804,-5.0776 c 0.398805,-0.396694 0.519405,-1.00149 0.252061,-1.26398 l -2.0483,-2.0442 c -0.263009,-0.266829 -0.867568,-0.145013 -1.26348,0.254562 l -5.074,5.084 -2.2608,-2.2563 c -0.188163,-0.193194 -0.550729,-0.203881 -0.890919,-0.0262251 -0.340189,0.177656 -0.640086,0.534294 -0.736929,0.876358 l .1072,7.4739 c 0.01256,0.876325 0.950159,1.55468 1.50571,1.50274 l 6.7493,-.631 c 0.211127,-0.06145 0.429318,-0.196878 0.604423,-0.375164 z "/>
<path style="fill:#fff" id="path3939" d="m 12.7255,16.1884 c 0.392344,-0.396746 0.507668,-0.993995 0.242474,-1.25437 l -2.2671,-2.2626 5.0804,-5.0776 c 0.398804,-0.396694 0.519406,-1.00149 0.252064,-1.26398 l -2.0483,-2.0442 c -0.263007,-0.266829 -0.867567,-0.145013 -1.26348,0.254562 l -5.074,5.084 -2.2608,-2.2563 c -0.188163,-0.193194 -0.55073,-0.203881 -0.890919,-0.0262252 -0.340189,0.177656 -0.640086,0.534294 -0.736929,0.876358 l .1072,7.4739 c 0.008,0.557922 0.22303,0.772533 0.780966,0.779425 l 7.474,.0923 c 0.211128,-0.06145 0.42932,-0.19688 0.604423,-0.375166 z "/>
<path style="opacity:.5" id="path4225" d="m 25.4965,11.9454 c -0.395968,0.393128 -0.992987,0.509633 -1.25389,0.244952 l -2.2671,-2.2626 -5.0676,5.0904 c -0.395905,0.399589 -1.00046,0.521385 -1.26348,0.254563 l -2.0483,-2.0442 c -0.267349,-0.26248 -0.146725,-0.867278 0.252065,-1.26398 l 5.074,-5.084 -2.2608,-2.2563 c -0.193541,-0.187806 -0.204969,-0.550325 -0.027986,-0.890865 0.176983,-0.340539 0.533028,-0.64114 0.874896,-0.738664 l 7.4741,.0924 c 0.847418,0.01047 1.55656,0.947084 1.50571,1.50274 l -.6177,6.7505 c -0.06103,0.211248 -0.19603,0.429707 -0.373975,0.605158 z "/>
<path style="fill:#fff" id="path4221" d="m 26.2212,12.6687 c -0.395968,0.393128 -0.992988,0.509633 -1.25389,0.244952 l -2.2671,-2.2626 -5.0676,5.0904 c -0.395905,0.399588 -1.00047,0.521385 -1.26348,0.254562 l -2.0483,-2.0442 c -0.267348,-0.26248 -0.146725,-0.867278 0.252065,-1.26398 l 5.074,-5.084 -2.2608,-2.2563 c -0.19354,-0.187806 -0.204969,-0.550325 -0.027985,-0.890865 0.176983,-0.340539 0.533028,-0.64114 0.874896,-0.738664 l 7.4741,.0924 c 0.557936,0.00689 0.772972,0.221503 0.780966,0.779424 l .1071,7.4738 c -0.06103,0.211248 -0.196029,0.429707 -0.37397,0.605163 z "/>
</g>
</svg>
