<svg width="48" version="1.1" xmlns="http://www.w3.org/2000/svg" height="48" xmlns:xlink="http://www.w3.org/1999/xlink">
<defs id="defs28">
<linearGradient gradientTransform="translate(0.34756813,1.2031)" id="linearGradient3849" xlink:href="#linearGradient3770" y1="23.72045" y2="23.72045" x1="34.265" x2="45.4021" gradientUnits="userSpaceOnUse"/>
<linearGradient id="linearGradient3770">
<stop offset="0" style="stop-color:#ffda7d" id="stop3772"/>
<stop offset="0.30000001" style="stop-color:#ffda7d" id="stop3782"/>
<stop offset="0.30000001" style="stop-color:#ffc941" id="stop3780"/>
<stop offset="0.60000002" style="stop-color:#ffc941" id="stop3784"/>
<stop offset="0.60000002" style="stop-color:#dc9e00" id="stop3778"/>
<stop offset="1" style="stop-color:#dc9e00" id="stop3774"/>
</linearGradient>
</defs>
<path style="fill:#a0892c" id="rect4090" d="m 3,5.6271 0,36.7458 38.25,0 0,-36.8005 -12.6176,.0547 z "/>
<g style="fill-rule:evenodd">
<g style="stroke:#003bc3;stroke-linecap:square;stroke-width:0;stroke-miterlimit:2" id="g5" transform="translate(-5.85,0)">
<rect width="10.45095" x="18.989187" y="19.586189" height="8.3698444" style="fill:#2c3e50" id="shape0"/>
<g style="fill:#ffcf0f" id="g8">
<rect width="1.1826" x="20.383324" y="15.755718" height="3.3673282" id="rect11"/>
<rect width="1.1826" x="22.566635" y="15.766925" height="3.3595202" id="shape1"/>
<rect width="1.1826" x="24.690416" y="15.766925" height="3.3530655" id="shape2"/>
<rect width="1.1826" x="26.923855" y="15.771702" height="3.3530655" id="shape3"/>
<rect width="0.94710809" x="20.689573" y="-34.343719" height="4.2045913" id="shape4" transform="matrix(0,1,-1,0,0,0)"/>
<rect width="0.94710809" x="22.438122" y="-34.329727" height="4.1948419" id="shape5" transform="matrix(0,1,-1,0,0,0)"/>
<rect width="0.94710809" x="24.13899" y="-34.329727" height="4.1867824" id="shape6" transform="matrix(0,1,-1,0,0,0)"/>
<rect width="0.94710809" x="25.927685" y="-34.323761" height="4.1867824" id="shape7" transform="matrix(0,1,-1,0,0,0)"/>
<rect width="1.1826" x="-28.275549" y="-31.788452" height="3.3673282" id="shape8" transform="scale(-1,-1)"/>
<rect width="1.1826" x="-26.092236" y="-31.777245" height="3.3595202" id="shape9" transform="scale(-1,-1)"/>
<rect width="1.1826" x="-23.968571" y="-31.777245" height="3.3530655" id="shape10" transform="scale(-1,-1)"/>
<rect width="1.1826" x="-21.735018" y="-31.772558" height="3.3530655" id="shape11" transform="scale(-1,-1)"/>
<rect width="0.94710809" x="-26.854689" y="14.315266" height="4.2045913" id="shape12" transform="matrix(0,-1,1,0,0,0)"/>
<rect width="0.94710809" x="-25.10614" y="14.32926" height="4.1948419" id="shape13" transform="matrix(0,-1,1,0,0,0)"/>
<rect width="0.94710809" x="-23.40527" y="14.32926" height="4.1867824" id="shape14" transform="matrix(0,-1,1,0,0,0)"/>
<rect width="0.94710809" x="-21.616486" y="14.33511" height="4.1867824" id="shape15" transform="matrix(0,-1,1,0,0,0)"/>
</g>
</g>
<g style="stroke:none" id="g4185" transform="matrix(1.0621268,0,0,1.0621268,-3.5677286,-2.4412666)">
<g id="g21">
<path style="fill:#d57000" id="path3801" d="m 35.4709,2.7213 c -0.450182,0.433162 -0.756585,1.11931 -0.75686,1.71227 l -0.0329,4.8821 11.0599,0.0048 0.0329,-4.8821 c 4.54e-4,-0.975182 -0.929486,-2.1394 -1.80318,-2.1399 l -7.5926,2e-4 c -0.318749,-1.846e-4 -0.637175,0.162714 -0.907284,0.422614 z"/>
<path style="fill:#d0d0d0" id="path3799" d="m 34.707,9.3157 -.0127,5.0904 11.0599,.0044 .0127,-5.09 z "/>
<path style="fill:url(#linearGradient3849)" id="path3797" d="m 34.6898,14.4037 -.0772,21.0397 11.1201,-.0145 .017,-21.0203 z "/>
<path style="fill:#e9d078" id="path1918" d="m 34.6698,35.4337 5.5406,10.1741 5.5193,-10.1692 -11.0599,-.0048 Z "/>
</g>
<path id="path3803" d="m 37.1696,40.0337 3.0408,5.5741 3.0192,-5.5692 -6.06,-.0048 z "/>
</g>
</g>
</svg>
