<svg width="48" version="1.1" xmlns="http://www.w3.org/2000/svg" height="48" xmlns:xlink="http://www.w3.org/1999/xlink">
<defs>
<linearGradient id="linearGradient32">
<stop offset="0" style="stop-color:#b25c00"/>
<stop offset="1" style="stop-color:#fa8600"/>
</linearGradient>
<linearGradient id="linearGradient933">
<stop offset="0" style="stop-color:#666"/>
<stop offset="1"/>
</linearGradient>
<linearGradient id="linearGradient30">
<stop offset="0" style="stop-color:#bababa"/>
<stop offset="1" style="stop-color:#e3e3e3"/>
</linearGradient>
<linearGradient id="linearGradient3770">
<stop offset="0" style="stop-color:#ffda7d"/>
<stop offset="0.3" style="stop-color:#ffda7d"/>
<stop offset="0.3" style="stop-color:#ffc941"/>
<stop offset="0.68" style="stop-color:#ffc941"/>
<stop offset="0.68" style="stop-color:#dc9e00"/>
<stop offset="1" style="stop-color:#dc9e00"/>
</linearGradient>
<linearGradient id="linearGradient28">
<stop offset="0" style="stop-color:#dbc457"/>
<stop offset="1" style="stop-color:#f0da94"/>
</linearGradient>
<linearGradient xlink:href="#linearGradient32" id="linearGradient33" y1="7.4532" x1="45.0425" y2="7.4531498" x2="33.26812" gradientUnits="userSpaceOnUse"/>
<linearGradient xlink:href="#linearGradient933" id="linearGradient935" y1="43.0398" x1="35.9111" y2="43.0398" x2="42.347588" gradientUnits="userSpaceOnUse"/>
<linearGradient xlink:href="#linearGradient30" id="linearGradient31" y1="12.8645" x1="45.0425" y2="12.8645" x2="33.282001" gradientUnits="userSpaceOnUse"/>
<linearGradient xlink:href="#linearGradient28" id="linearGradient29" y1="35.204102" x1="45.0243" y2="35.193802" x2="33.256001" gradientUnits="userSpaceOnUse"/>
<linearGradient gradientTransform="matrix(1.0621268,0,0,1.0621268,-3.1985672,-1.1634218)" id="linearGradient3849" xlink:href="#linearGradient3770" y1="23.72045" y2="23.72045" x1="34.265" x2="45.4021" gradientUnits="userSpaceOnUse"/>
</defs>
<path style="fill:#a0892c" d="M 3,5.627 V 42.3729 H 39.25 V 5.627 Z"/>
<g style="fill-rule:evenodd">
<path style="opacity:.3" d="m 34.27,.6 c -0.338551,0 -0.676,0.173172 -0.96289,0.449219 -0.47815,0.460073 -0.804396,1.18856 -0.804688,1.81836 l -.1074,32.9355 5.9453,10.7969 5.8633,-10.8008 .0469,-32.9258 c 0,-1.03574 -0.988085,-2.2734 -1.91606,-2.2734 Z "/>
<path style="fill:url(#linearGradient33)" d="m 34.1069,0.4491 c -0.47815,0.460073 -0.803589,1.18885 -0.803881,1.81865 l -0.0349,5.1854 11.747,0.0051 0.0349,-5.1854 C 45.050501,1.23708 44.062787,0 43.134809,0 h -8.0643 c -0.338552,0 -0.676761,0.173023 -0.963651,0.44907 z"/>
<path style="fill:url(#linearGradient31)" d="m 33.2955,7.4532 -.0135,5.4066 11.747,.0047 .0135,-5.4062 z "/>
<path style="fill:url(#linearGradient3849)" d="m 33.2772,12.8573 -.082,22.3468 11.811,-.0154 .0181,-22.3262 z "/>
<path style="fill:url(#linearGradient29)" d="M 33.256,35.1938 39.1408,46 45.003,35.199 33.256,35.1939 Z"/>
<path style="fill:url(#linearGradient935)" d="M 35.9111,40.0796 39.1408,46 42.3476,40.0848 35.9111,40.0797 Z"/>
</g>
<g style="stroke-width:.455">
<rect width="12.727273" x="12.001025" y="17.407476" rx="1.3636364" height="12.727273" style="fill:#2c3e50"/>
<g style="fill:#ffe066">
<rect width="3.1818182" x="7.865" y="19.680202" rx="0.90909088" height="1.8181818"/>
<path d="m 10.1828,19.6802 h 1.36364 v 1.81818 h -1.36364 z "/>
<rect width="3.1818182" x="7.865" y="22.86202" rx="0.90909088" height="1.8181818"/>
<path d="m 10.1828,22.862 h 1.36364 v 1.81818 h -1.36364 z "/>
<rect width="3.1818182" x="7.865" y="26.043839" rx="0.90909088" height="1.8181818"/>
<path d="m 10.1828,26.0438 h 1.36364 v 1.81818 h -1.36364 z "/>
<rect width="3.1818182" x="-28.864819" y="19.680202" rx="0.90909088" height="1.8181818" transform="scale(-1,1)"/>
<path d="m 26.5465,19.6802 h -1.36364 v 1.81818 h 1.36364 z "/>
<rect width="3.1818182" x="-28.864819" y="22.86202" rx="0.90909088" height="1.8181818" transform="scale(-1,1)"/>
<path d="m 26.5465,22.862 h -1.36364 v 1.81818 h 1.36364 z "/>
<rect width="3.1818182" x="-28.864819" y="26.043839" rx="0.90909088" height="1.8181818" transform="scale(-1,1)"/>
<path d="m 26.5465,26.0438 h -1.36364 v 1.81818 h 1.36364 z "/>
<rect width="3.1818182" x="13.271" y="14.273752" rx="0.90909088" height="1.8181818" transform="matrix(0,1,1,0,0,0)"/>
<path d="m 14.2738,15.5893 v 1.36364 h 1.81818 v -1.36364 z "/>
<rect width="3.1818182" x="13.271" y="17.45557" rx="0.90909088" height="1.8181818" transform="matrix(0,1,1,0,0,0)"/>
<path d="m 17.4556,15.5893 v 1.36364 h 1.81818 v -1.36364 z "/>
<rect width="3.1818182" x="13.271" y="20.637388" rx="0.90909088" height="1.8181818" transform="matrix(0,1,1,0,0,0)"/>
<path d="m 20.6374,15.5893 v 1.36364 h 1.81818 v -1.36364 z "/>
<rect width="3.1818182" x="-34.270817" y="14.273752" rx="0.90909088" height="1.8181818" transform="rotate(-90)"/>
<path d="m 14.2738,31.9529 v -1.36364 h 1.81818 v 1.36364 z "/>
<rect width="3.1818182" x="-34.270817" y="17.45557" rx="0.90909088" height="1.8181818" transform="rotate(-90)"/>
<path d="m 17.4556,31.9529 v -1.36364 h 1.81818 v 1.36364 z "/>
<rect width="3.1818182" x="-34.270817" y="20.637388" rx="0.90909088" height="1.8181818" transform="rotate(-90)"/>
<path d="m 20.6374,31.9529 v -1.36364 h 1.81818 v 1.36364 z "/>
</g>
</g>
</svg>
