<svg width="128" version="1.0" xmlns="http://www.w3.org/2000/svg" height="128" xmlns:xlink="http://www.w3.org/1999/xlink">
<defs id="defs23">
<linearGradient id="linearGradient855">
<stop offset="0" style="stop-color:#c8c8c8" id="stop851"/>
<stop offset="1" style="stop-color:#dcdcdc" id="stop853"/>
</linearGradient>
<linearGradient xlink:href="#linearGradient855" id="linearGradient857" y1="8.1632833" x1="86.901039" y2="-11.465115" x2="86.930161" gradientUnits="userSpaceOnUse"/>
<linearGradient xlink:href="#linearGradient855" id="linearGradient865" y1="67.570137" x1="55.251305" y2="53.799221" x2="69.238327" gradientUnits="userSpaceOnUse"/>
</defs>
<g style="fill-rule:evenodd">
<path style="opacity:.7" id="rect4260" d="m 27.3346,6.6091 c -0.629725,-0.00397 -1.26053,0.233404 -1.74609,0.712891 l -19.8672,19.6191 c -0.971137,0.958974 -0.980458,2.51129 -0.021484,3.48242 l 39.4062,39.9063 c 0.958974,0.971137 2.51324,0.980458 3.48438,0.02148 l .584,-.5762 .5195,.5273 c 0.990187,1.00275 2.69629,0.912626 3.82422,-0.201172 l .3008,-.2969 40.2109,40.7187 c 0.0017,0.002 0.0022,0.004 0.0039,0.006 l 3.582,3.627 c 0.001,0.001 0.0029,0 0.0039,0.002 l .0527,.0547 .0059,-.006 c 0.997729,0.94151 2.65382,0.84014 3.75977,-0.25196 l .3008,-.2969 4.6191,4.6777 -.4082,.4023 c -0.85038,0.83973 -1.46522,3.10681 -0.36524,3.31836 11.528,2.21716 12.0547,2.33789 12.0547,2.33789 0.61625,0.0423 1.17892,0.0975 2.0293,-0.74219 l 2.0156,-2.0234 c 0.85039,-0.83973 0.57168,-1.43285 0.46875,-2.07031 0,0 -0.0867,-0.4339 -2.74609,-11.2285 -0.26633,-1.08102 -2.30587,-0.60927 -3.15625,0.23047 l -.5449,.5391 -4.6172,-4.6738 .3008,-.2969 c 1.10598,-1.09213 1.22972,-2.7483 0.30078,-3.75781 l .006,-.006 -.0566,-.0566 -3.582,-3.6269 -40.2148,-40.7246 .3027,-.2988 c 1.12793,-1.1138 1.23823,-2.81757 0.248047,-3.82031 l -.5195,-.5273 .584,-.5762 c 0.971137,-0.958974 0.980459,-2.51324 0.02148,-3.48438 l -39.4065,-39.9062 c -0.479487,-0.485568 -1.10856,-0.730407 -1.73828,-0.734375 Z "/>
<rect width="10.809883" x="148.88556" y="-8.1565018" rx="0.33628348" ry="1.9224603" height="13.139077" style="fill:#aaa" id="rect4189" transform="rotate(45.361053)"/>
<rect width="10.183798" x="141.6124" y="-11.44127" rx="2.5437605" height="19.708618" ry="2.8613157" style="fill:#d2d2d2" id="rect47974" transform="rotate(45.361053)"/>
<rect width="72.51017" x="76.822449" y="-11.441271" height="19.708616" style="fill:url(#linearGradient857)" id="rect2220" transform="rotate(45.361053)"/>
</g>
<rect width="3.2847693" x="146.04785" y="-11.441271" rx="0" height="19.708616" style="fill:#646464;fill-opacity:.5" id="rect6143" transform="rotate(45.361053)"/>
<g style="fill-rule:evenodd" id="g16">
<path style="fill:url(#linearGradient865)" id="rect5162" d="m 120.7798,106.1843 c 2.65938,10.7946 2.74515,11.2275 2.74515,11.2275 0.10293,0.63746 0.38249,1.23115 -0.4679,2.07088 l -2.0165,2.0229 c -0.85038,0.83973 -1.4119,0.7839 -2.02815,0.74155 0,0 -0.52714,-0.1206 -12.0552,-2.33776 -1.1,-0.21155 -0.48587,-2.47882 0.36451,-3.31855 l 10.3021,-10.1766 c 0.85038,-0.83974 2.88961,-1.31096 3.15594,-0.22994 z"/>
<rect width="10.183798" x="76.738205" y="-14.726039" rx="2.5437605" ry="2.8613155" height="26.278156" style="fill:#969696" id="rect8083" transform="rotate(45.361053)"/>
<rect width="61.01022" x="22.627014" y="-18.010809" rx="2.463577" height="32.847694" style="fill:#505050" id="rect9056" transform="rotate(45.361053)"/>
</g>
<rect width="3.2847693" x="126.33923" y="-11.441271" rx="0" height="19.708616" style="fill:#646464;fill-opacity:.5" id="rect3272" transform="rotate(45.361053)"/>
</svg>
