<svg width="48" version="1.1" xmlns="http://www.w3.org/2000/svg" height="48" xmlns:xlink="http://www.w3.org/1999/xlink">
<defs>
<linearGradient id="linearGradient2888-4-3">
<stop offset="0" style="stop-color:#fff"/>
<stop offset="1" style="stop-color:#b4b4b4"/>
</linearGradient>
<linearGradient gradientTransform="matrix(1.62769,0,0,1.5792553,-270.84281,-232.41224)" id="linearGradient4859" xlink:href="#linearGradient2888-4-3" y1="165.82466" y2="151.52789" x1="182.28128" x2="175.20076" gradientUnits="userSpaceOnUse"/>
<linearGradient gradientTransform="matrix(1.5140443,0,0,1.468822,53.821398,-37.126325)" id="linearGradient3808" xlink:href="#linearGradient2888-4-3" y1="34.121754" y2="41.695" x1="-26.252876" x2="-21.25" gradientUnits="userSpaceOnUse"/>
</defs>
<path style="fill:#4c8f24" d="M 6,3.0022859 6,45 42,45 42,3 Z"/>
<g style="fill-rule:evenodd;color:#000">
<g style="fill:#fff">
<path style="opacity:.95;stroke-width:2.086" d="m 9.4,25.142445 h 4.357739 V 29.4 Z"/>
<path d="m 20.0153,25.1425 h 10.6957 v 6.25754 h -10.6957 Z "/>
<rect width="16.808247" x="22.191748" y="9" height="3"/>
<rect width="3" x="9" y="9" height="3" style="opacity:.95"/>
<rect width="14.688255" x="24.311741" y="18" height="3"/>
<path style="opacity:.95;stroke-width:2.075" d="m 9,16.174543 h 4.725642 v 6.225462 H 9 Z"/>
<rect width="15.998495" x="23.001499" y="27" height="3"/>
<rect width="3" x="9" y="27" height="3" style="opacity:.95"/>
<rect width="24" x="15" y="36" height="3"/>
<rect width="3" x="9" y="36" height="3" style="opacity:.95"/>
<path d="m 19.9511,16.1746 h 11.9264 v 6.22544 h -11.9264 Z "/>
<path d="m 19.8372,6.415 5.8119,1.692 5.8119,5.293 h -11.6238 Z "/>
<path style="opacity:.95;stroke-width:2.056" d="M 13.66869,8.431 V 13.4 H 9.6 Z"/>
</g>
<g style="stroke-width:.67">
<path style="opacity:.3" d="m 21.1506,6.9193 c -3.35471,-0.016317 -6.69817,1.36071 -9.13068,3.73334 -2.43252,2.37263 -3.89533,5.69094 -3.98935,9.06667 -0.094006,3.37575 1.19009,6.72583 3.49868,9.13068 l .0427,.0213 c 2.30679,2.38427 5.55697,3.7811 8.896,3.79734 1.857,0.009 3.69984,-0.438605 5.39734,-1.216 0.06534,-0.0086 0.125411,-0.0141 0.192,-0.02133 1.44451,-0.156977 3.1571,0.01581 4.58667,1.19467 -0.230749,0.343721 -0.209763,0.844605 0.08533,1.15199 l 13.3974,13.952 c 0.337252,0.35131 0.910086,0.361328 1.25867,0.02133 l 2.3467,-2.2826 c 0.348589,-0.34 0.358585,-0.928696 0.02133,-1.28 l -13.3974,-13.952 c -0.302698,-0.315316 -0.801682,-0.34763 -1.152,-0.106667 -1.11747,-1.48855 -1.24487,-3.20548 -1.04534,-4.65067 0.0064,-0.04655 0.01437,-0.08248 0.02133,-0.128 0.852,-1.70781 1.355,-3.57905 1.408,-5.48268 0.09372,-3.36568 -1.18178,-6.70612 -3.47734,-9.10937 l -.0213,-.0213 c -2.30857,-2.40485 -5.58398,-3.80236 -8.93869,-3.81867 Z  m 0,1.3654 c 2.97712,0.01448 5.91429,1.28508 7.95735,3.41334 2.04307,2.12826 3.19833,5.12375 3.11467,8.12803 v 0.02133 c -0.08926,2.99723 -1.41871,5.9947 -3.58401,8.1067 -2.17038,2.11695 -5.19357,3.36382 -8.17066,3.34934 -2.97706,-0.01447 -5.91423,-1.28507 -7.9573,-3.41333 -2.04307,-2.12827 -3.19833,-5.12375 -3.11467,-8.12803 v -0.02134 c 0.089236,-2.99724 1.41869,-5.99469 3.584,-8.10671 2.17038,-2.11695 5.19357,-3.36381 8.17066,-3.34934 z "/>
<path style="fill:#464646" d="m 32.0283,21.4324 c 0,0 -0.179898,0.367848 -0.398028,0.942699 -0.594363,1.5342 -1.10919,2.74363 -3.14233,4.56685 -1.88362,1.68915 -4.01589,2.41307 -5.04867,2.72335 -0.02181,0.0061 -0.06263,0.01487 -0.0838,0.02095 -0.241257,0.07107 -0.817006,0.293284 -0.817006,0.293284 -0.0033,0.0014 -0.06285,0.02095 -0.06285,0.02095 l .2095,.6285 c 0,0 0.06131,-0.02058 0.06285,-0.02095 0,0 0.310376,-0.128847 0.817006,-0.272335 0.0057,-0.0017 0.01517,0.0017 0.02095,0 1.44091,-0.405723 4.44536,-0.910186 6.66174,0.984597 -0.240245,0.322207 -0.227141,0.78863 0.06285,1.08934 l 13.2606,13.7425 c 0.331412,0.343669 0.901498,0.381576 1.25693,0.06285 l 2.3463,-2.1158 c 0.355432,-0.318729 0.373307,-0.871365 0.0419,-1.21503 l -13.2606,-13.7425 c -0.296973,-0.30798 -0.759743,-0.348439 -1.11029,-0.125694 -1.18917,-1.48325 -1.30993,-3.17583 -1.08934,-4.5878 0.118985,-0.761586 0.339211,-1.40914 0.523722,-1.8854 0.188321,-0.486083 0.335181,-0.796057 0.335181,-0.796057 0.0061,-0.01555 0.01475,-0.02627 0.02095,-0.04189 l -.6075,-.2723 Z "/>
</g>
<ellipse cx="20.513706" cy="18.689354" rx="11.39383" ry="11.054788" style="opacity:.3;fill:url(#linearGradient4859);stroke-width:1.604"/>
<path style="opacity:.45;fill:url(#linearGradient3808);stroke-width:1.004" d="m 11.4282,21.6265 c 7.57022,-1.46882 6.26973,-8.99089 14.5874,-10.4597 -3.24164,-2.59952 -8.48994,-2.15205 -11.5593,0.177958 -3.12922,2.37544 -4.54213,7.34411 -3.02809,10.2817 Z "/>
</g>
<path style="fill:none;stroke:#464646;stroke-width:2.744" d="m 32.8966,19.097 a 11.9427,12.3946 85 0,1 -24.7627,-0.800635 11.9427,12.3946 85 1,1 24.7627,0.800635 Z "/>
</svg>
