<svg width="48" version="1.0" xmlns="http://www.w3.org/2000/svg" height="48">
<path style="fill:#7b969d" id="path4197" d="m 5,3.6535 0,42.0695 38.8357,0 l .1643,-42.0718 -12.7288,.0022 Z "/>
<path style="fill:#ecf0f1" id="rect4090" d="m 4,2.2793 0,42.0695 38.8357,0 l .1643,-42.0718 -12.7288,.0022 Z "/>
<path style="fill:#d40000;fill-rule:evenodd" id="path4151" d="m 38.0254,2.277 -6.2109,.0022 c 0.685028,2.2343 1.55035,4.35607 2.20703,6.00871 -1.00928,7.07209 -2.63691,14.0533 -4.70312,20.7722 -0.740684,2.40864 -1.58959,5.11558 -2.5918,7.8 -4.02134,2.08928 -8.03168,4.4489 -11.5098,7.48909 h 3.87305 c 1.92142,-1.43643 3.99187,-2.67856 6.13086,-3.83287 -0.613904,1.34353 -1.27926,2.63355 -2.00976,3.83287 h 2.80859 c 0.493091,-0.859013 0.959942,-1.71261 1.37109,-2.52022 0.541718,-1.06393 1.07094,-2.14045 1.56641,-3.24475 1.32296,-0.643531 2.58075,-1.32729 3.85742,-1.93209 3.21277,-1.52341 6.61531,-3.04279 10.0684,-4.2421 l .0117,-2.8802 c -4.25266,1.50596 -8.39468,3.48391 -12.4297,5.46755 2.62926,-6.69067 4.50594,-13.9057 5.8457,-21.1188 1.88282,4.3463 4.04751,8.60211 6.5957,12.4736 l .0312,-7.9632 c -1.04002,-1.92507 -2.02243,-3.8916 -2.94922,-5.89019 -0.881881,-1.90407 -1.70502,-3.89182 -2.4707,-5.86783 0.08248,-0.591153 0.103653,-1.20549 0.179688,-1.79345 0.106604,-0.824002 0.219683,-1.69112 0.328125,-2.56047 Z "/>
<path style="fill:#559c2c" id="path3759" d="m 17.8939,4.5 c -6.53653,0 -11.8939,5.35736 -11.8939,11.8939 0,6.53653 5.35736,11.8939 11.8939,11.8939 2.53231,0 4.885,-0.82511 6.81771,-2.18763 l 2.3788,2.4 2.9096,-2.9097 -2.3998,-2.3788 c 1.36252,-1.93274 2.18763,-4.28544 2.18763,-6.81771 0,-6.53653 -5.35735,-11.8939 -11.8939,-11.8939 z  m 0,4.1204 c 4.3227,0 7.77351,3.45079 7.77351,7.77351 0,1.41088 -0.372552,2.7287 -1.01947,3.86551 l -3.8655,-3.8655 2.506,-2.4847 -2.9096,-2.91 -7.8799,7.8798 2.9099,2.9097 2.4849,-2.5062 3.8655,3.8655 c -1.13681,0.646923 -2.45463,1.01948 -3.86551,1.01948 -4.3227,0 -7.77351,-3.4508 -7.77351,-7.77351 0,-4.3227 3.4508,-7.77351 7.77351,-7.77351 z "/>
</svg>
