<svg width="48" version="1.0" xmlns="http://www.w3.org/2000/svg" height="48">
<path style="fill:#7b969d" id="path4197" d="m 5,3.6535 0,42.0695 38.8357,0 l .1643,-42.0718 -12.7288,.0022 Z "/>
<path style="fill:#ecf0f1" id="rect4090" d="m 4,2.2793 0,42.0695 38.8357,0 l .1643,-42.0718 -12.7288,.0022 Z "/>
<g style="fill-rule:evenodd;stroke:none">
<path style="fill:#559c2c" id="path4153" d="m 17.1648,5.4656 c -3.61368,2.27e-05 -6.44771,1.05023 -8.51122,3.12379 -2.05346,2.07361 -3.07853,4.94784 -3.07853,8.60176 -1.5e-06,3.66402 1.015,6.50304 3.07853,8.5565 2.06351,2.05346 4.97797,3.07853 8.69231,3.07853 h 0.452726 l 3.6671,4.1198 h 5.52325 l -4.5272,-5.0706 c 2.0333,-0.926067 3.58599,-2.28779 4.66307,-4.1198 1.0871,-1.832 1.62979,-4.02788 1.62982,-6.5645 -2.4e-05,-3.69419 -1.03516,-6.59357 -3.07853,-8.64704 -2.03335,-2.05343 -4.8573,-3.0785 -8.51122,-3.07853 Z  m 0,4.2103 c 1.78166,2e-05 3.14338,0.683433 4.1198,1.99199 0.976381,1.30859 1.49398,3.14769 1.49399,5.52325 -1.7e-05,2.3655 -0.51761,4.21467 -1.49399,5.52323 -0.976415,1.30858 -2.33814,1.94673 -4.1198,1.94672 -1.81189,5e-06 -3.20881,-0.623062 -4.16506,-1.90144 -0.956277,-1.28844 -1.40345,-3.15267 -1.40345,-5.56851 -7e-06,-2.37555 0.472312,-4.21466 1.44871,-5.52325 0.976387,-1.30855 2.34817,-1.99197 4.1198,-1.99199 z "/>
<path style="fill:#d40000" id="path4151" d="m 38.0254,2.277 -6.2109,.0022 c 0.685028,2.2343 1.55035,4.35607 2.20703,6.00871 -1.00928,7.07209 -2.63691,14.0533 -4.70312,20.7722 -0.740684,2.40864 -1.58959,5.11558 -2.5918,7.79992 -4.02134,2.08928 -8.03168,4.4489 -11.5098,7.48909 h 3.87305 c 1.92142,-1.43643 3.99187,-2.67856 6.13086,-3.83287 -0.613904,1.34353 -1.27926,2.63355 -2.00976,3.83287 h 2.80859 c 0.493091,-0.859013 0.959942,-1.71261 1.37109,-2.52022 0.541718,-1.06393 1.07094,-2.14045 1.56641,-3.24475 1.32296,-0.643531 2.58075,-1.32729 3.85742,-1.93209 3.21277,-1.52341 6.61531,-3.04279 10.0684,-4.2421 l .0117,-2.8802 c -4.25266,1.50596 -8.39468,3.48391 -12.4297,5.46755 2.62926,-6.69067 4.50594,-13.9057 5.8457,-21.1188 1.88282,4.3463 4.04751,8.60211 6.5957,12.4736 l .0312,-7.9632 c -1.04002,-1.92507 -2.02243,-3.8916 -2.94922,-5.89019 -0.881881,-1.90407 -1.70502,-3.89182 -2.4707,-5.86783 0.08248,-0.591153 0.103653,-1.20549 0.179688,-1.79345 0.106604,-0.824002 0.219683,-1.69112 0.328125,-2.56047 Z "/>
</g>
</svg>
