<svg width="48" version="1.1" xmlns="http://www.w3.org/2000/svg" height="48" xmlns:xlink="http://www.w3.org/1999/xlink">
<defs>
<linearGradient id="linearGradient4989">
<stop offset="0" style="stop-color:#f5e323"/>
<stop offset="0.23377985" style="stop-color:#dec241"/>
<stop offset="0.75" style="stop-color:#ff8b00"/>
<stop offset="1" style="stop-color:#c37f43"/>
</linearGradient>
<linearGradient id="linearGradient9">
<stop offset="0" style="stop-opacity:0"/>
<stop offset="1"/>
</linearGradient>
<linearGradient id="linearGradient1">
<stop offset="0" style="stop-color:#fff"/>
<stop offset="1" style="stop-color:#fff;stop-opacity:0"/>
</linearGradient>
<linearGradient xlink:href="#linearGradient9" id="linearGradient12" y1="1.416" x1="23.6227" y2="46.526699" x2="25.994801" gradientUnits="userSpaceOnUse"/>
<linearGradient xlink:href="#linearGradient9" id="linearGradient10" y1="1.416" x1="23.6227" y2="46.526699" x2="25.994801" gradientUnits="userSpaceOnUse"/>
<linearGradient xlink:href="#linearGradient4989" id="linearGradient4158" y1="1.5007336" x1="23.8636" y2="53.975311" x2="23.119411" gradientUnits="userSpaceOnUse"/>
<linearGradient xlink:href="#linearGradient9" id="linearGradient14" y1="1.416" x1="23.6227" y2="46.526699" x2="25.994801" gradientUnits="userSpaceOnUse"/>
<radialGradient fx="24" fy="34" cx="24" cy="34" gradientTransform="matrix(1.1818182,0,0,1,-4.3636363,0)" xlink:href="#linearGradient1" id="radialGradient2" r="11" gradientUnits="userSpaceOnUse"/>
</defs>
<g style="fill-rule:evenodd">
<path style="opacity:.05;fill:url(#linearGradient14)" d="m 23.6227,2.716 13.622,17.4816 C 47.08244,31.8921 40.99884,47.1296 25.9948,47.8267 4.9324,48.805208 3.0272,31.1573 10.7129,20.5437 Z"/>
<path style="opacity:.15;fill:url(#linearGradient12)" d="m 23.6227,2.016 13.622,17.4816 C 47.08244,31.1921 40.99884,46.4296 25.9948,47.1267 4.9324,48.105208 3.0272,30.4573 10.7129,19.8437 Z"/>
<path style="opacity:.3;fill:url(#linearGradient10)" d="m 23.6227,1.416 13.622,17.4816 C 47.08244,30.5921 40.99884,45.8296 25.9948,46.5267 4.9324,47.505208 3.0272,29.8573 10.7129,19.2437 Z"/>
<path style="fill:url(#linearGradient4158)" d="M 23.3294,1.3162 36.717,18.6268 C 46.38545,30.2069 40.40654,45.2953 25.6607,45.9856 4.9607,46.954536 3.0883,29.4793 10.6418,18.9695 Z"/>
</g>
<ellipse cx="24" cy="34" rx="13" ry="11" style="opacity:.4;fill:url(#radialGradient2)"/>
</svg>
