<svg width="48" version="1.1" xmlns="http://www.w3.org/2000/svg" height="48" xmlns:xlink="http://www.w3.org/1999/xlink">
<defs id="defs14"/>
<g style="stroke:none" id="g9">
<path style="fill:#559c2c" id="path3761" d="M 7.1162791,2 C 4.2818605,2 2,4.2818605 2,7.1162791 L 2,40.883721 C 2,43.71814 4.2818605,46 7.1162791,46 L 40.883721,46 C 43.71814,46 46,43.71814 46,40.883721 L 46,7.1162791 C 46,4.2818605 43.71814,2 40.883721,2 L 7.1162791,2 z"/>
<path style="opacity:.5" id="path2990" d="m 23.8438,5.3435 c -9.61748,0 -17.5,7.88252 -17.5,17.5 0,9.61748 7.88252,17.5 17.5,17.5 3.7259,0 7.18752,-1.21402 10.0312,-3.21875 l 3.5,3.5312 4.281,-3.281 .0003,-1.0003 -3.5312,-3.5 c 2.00473,-2.84373 3.21875,-6.30535 3.21875,-10.0312 0,-9.61748 -7.88252,-17.5 -17.5,-17.5 z  m 0,6.0625 c 6.36019,0 11.4375,5.07731 11.4375,11.4375 0,2.07589 -0.548153,4.01486 -1.5,5.6875 l -5.6875,-5.6875 3.6872,-2.6555 .0003,-1.0008 -4.2812,-4.2812 -11.5938,11.5937 -.0002,1.0003 4.2815,3.281 3.6562,-3.6875 5.6875,5.6875 c -1.67264,0.951847 -3.61161,1.5 -5.6875,1.5 -6.36019,0 -11.4375,-5.07731 -11.4375,-11.4375 0,-6.36019 5.07731,-11.4375 11.4375,-11.4375 z "/>
<path style="fill:#fff" id="path3759" d="m 23.8438,6.3438 c -9.61748,0 -17.5,7.88252 -17.5,17.5 0,9.61748 7.88252,17.5 17.5,17.5 3.7259,0 7.18752,-1.21402 10.0312,-3.21875 l 3.5,3.5312 4.281,-4.2812 -3.531,-3.5 c 2.00473,-2.84373 3.21875,-6.30535 3.21875,-10.0312 0,-9.61748 -7.88252,-17.5 -17.5,-17.5 z  m 0,6.0625 c 6.36019,0 11.4375,5.07731 11.4375,11.4375 0,2.07589 -0.548153,4.01486 -1.5,5.6875 l -5.6875,-5.6875 3.6872,-3.6558 -4.281,-4.2817 -11.594,11.5938 4.2815,4.2812 3.6562,-3.6875 5.6875,5.6875 c -1.67264,0.951847 -3.61161,1.5 -5.6875,1.5 -6.36019,0 -11.4375,-5.07731 -11.4375,-11.4375 0,-6.36019 5.07731,-11.4375 11.4375,-11.4375 z "/>
</g>
</svg>
