<?xml version="1.0" encoding="UTF-8" standalone="no"?>
<svg
   xmlns:dc="http://purl.org/dc/elements/1.1/"
   xmlns:cc="http://creativecommons.org/ns#"
   xmlns:rdf="http://www.w3.org/1999/02/22-rdf-syntax-ns#"
   xmlns:svg="http://www.w3.org/2000/svg"
   xmlns="http://www.w3.org/2000/svg"
   xmlns:sodipodi="http://sodipodi.sourceforge.net/DTD/sodipodi-0.dtd"
   xmlns:inkscape="http://www.inkscape.org/namespaces/inkscape"
   version="1.1"
   width="48"
   height="48"
   id="svg2"
   inkscape:version="0.48.5 r10040"
   sodipodi:docname="qtcreator.svg">
  <metadata
     id="metadata16">
    <rdf:RDF>
      <cc:Work
         rdf:about="">
        <dc:format>image/svg+xml</dc:format>
        <dc:type
           rdf:resource="http://purl.org/dc/dcmitype/StillImage" />
        <dc:title />
      </cc:Work>
    </rdf:RDF>
  </metadata>
  <defs
     id="defs14" />
  <sodipodi:namedview
     pagecolor="#ffffff"
     bordercolor="#666666"
     borderopacity="1"
     objecttolerance="10"
     gridtolerance="10"
     guidetolerance="10"
     inkscape:pageopacity="0"
     inkscape:pageshadow="2"
     inkscape:window-width="1291"
     inkscape:window-height="882"
     id="namedview12"
     showgrid="false"
     inkscape:zoom="9.44"
     inkscape:cx="-3.1312243"
     inkscape:cy="25.256578"
     inkscape:window-x="280"
     inkscape:window-y="52"
     inkscape:window-maximized="0"
     inkscape:current-layer="svg2" />
  <rect
     style="fill:#ffffff;fill-opacity:1;fill-rule:evenodd;stroke:none"
     id="rect3772"
     width="24.23189"
     height="29.924698"
     x="2.5093303"
     y="2.4949818"
     rx="7"
     ry="8.2859259" />
  <path
     style="fill:#436430;fill-opacity:1;fill-rule:nonzero;stroke:none"
     d="m 9.5,3.49975 c -3.878,0 -7,3.6908471 -7,8.28125 l 0,4.59375 0,3.25 0,3.03125 0,0.25 C 3.6640375,22.133508 5.1960999,20.831614 6.5418432,19.842441 -1.2911912,15.955302 16.121252,7.3956024 21.331625,2.545625 21.075656,2.5123294 20.800283,2.4301967 20.550375,2.514375 L 17.625,3.49975 z M 6.4623941,19.948373 C 6.5887961,20.011093 6.241214,20.658402 6.381,20.7185 c 0.01815,0.347729 -0.05299,0.694521 -0.006,1 C 11.439884,17.638004 16.704001,12.098502 20.786017,2.7993835 15.383985,11.950156 11.659202,16.128521 6.4623941,19.948373 z M 6.375,21.7185 C 4.7461684,23.030758 4.0219678,23.607858 2.5,24.68725 l 0,0.0625 0,0.375 c 0,4.590403 3.122,8.28125 7,8.28125 l 10.25,0 c 3.878,0 7,-3.690847 7,-8.28125 l 0,-13.34375 C 26.75,7.6461946 24.311943,4.2297805 20.975,3.593875 22.008394,21.062105 7.7954974,30.952413 6.375,21.7185 z"
     id="path3771"
     inkscape:connector-curvature="0"
     sodipodi:nodetypes="ssccccccscsccccccccssssscc" />
  <path
     style="fill:#559c2c;fill-opacity:1;fill-rule:nonzero;stroke:none"
     d="m 7,2.5037798 c -2.5274048,0.2551392 -4.5,2.403125 -4.5,5 l 0,7.8750002 c -0.5735324,1.186146 -0.639032,2.2828 0,3.25 l 0,3.03125 0,0.25 C 3.6640375,21.137538 4.5605067,20.524203 5.90625,19.53503 -1.941788,15.640445 15.38849,7.3499058 20.5625,2.5037798 18.283612,2.5011198 17.625,2.504 17.625,2.504 L 7.5,2.5037798 c -0.173125,-3.8e-6 -0.3315063,-0.017009 -0.5,0 z M 5.90625,19.53503 c 0.126402,0.06272 0.235214,0.127402 0.375,0.1875 0.01815,0.347729 0.04676,0.694521 0.09375,1 5.084198,-4.096056 9.898946,-9.038107 14.5,-18.2187502 C 15.44462,11.72761 11.122435,15.700935 5.90625,19.53503 z M 20.875,2.5037798 C 21.965099,20.03086 7.7980592,29.973096 6.375,20.72253 4.7461684,22.034788 4.0219678,22.611888 2.5,23.69128 l 0,0.0625 0,16.75 c 0,2.77 2.23,5 5,5 l 33,0 c 2.77,0 5,-2.23 5,-5 l 0,-33.0000002 c 0,-2.77 -2.23,-5 -5,-5 l -17.125,0 -2.15625,0 z M 2.5,23.69128 l 0,-1.78125 c -0.4004419,0.265746 -0.7120317,0.459203 -1.25,0.8125 -0.239152,0.233203 0.550455,1.419059 0.90625,1.21875 0.1481466,-0.103703 0.2103745,-0.155409 0.34375,-0.25 z"
     id="path3763"
     inkscape:connector-curvature="0"
     sodipodi:nodetypes="sscccccccsscccccccccsssssscccccccc" />
  <path
     inkscape:connector-curvature="0"
     id="path2992"
     d="m 23.84375,5.7539998 c 9.398898,0 17.09375,7.6948502 17.09375,17.0937502 0,3.641219 -1.165832,7.033396 -3.125,9.8125 l 3.4375,3.40625 0,0.9995 -4.1875,3.188 -3.40625,-3.4375 c -2.779105,1.959167 -6.171281,3.125 -9.8125,3.125 -8.927086,0 -17.503563,-9.108858 -17.03125,-15.6875 1.4486937,1.268659 3.616362,1.1089 5.90625,-0.25 0.568988,5.667752 5.29784,10.03125 11.125,10.03125 2.028714,0 3.927871,-0.538536 5.5625,-1.46875 L 23.84375,27.004 20.28125,30.59775 16.094,27.41 l -2.5e-4,-0.99975 11.3125,-11.3125 4.1875,4.1875 2.5e-4,0.99975 -3.594,2.56275 5.5625,5.5625 c 0.930214,-1.634629 1.46875,-3.533787 1.46875,-5.5625 0,-6.215637 -4.971863,-11.1875 -11.1875,-11.1875 -0.410638,0 -1.979815,1.20787 -2.37475,1.24975 -0.02041,-0.332657 -0.0089,-0.632813 -2.5e-4,-0.999745 0.66022,-1.877332 1.166528,-3.9332879 1.5,-6.1250002 0.288515,-0.016276 0.582324,-0.03125 0.875,-0.031255 z"
     style="opacity:0.5;fill:#000000;fill-opacity:1;fill-rule:nonzero;stroke:none"
     sodipodi:nodetypes="sscccccsccsccccccccccsscccs" />
  <path
     style="fill:#ffffff;fill-opacity:1;fill-rule:nonzero;stroke:none"
     d="m 23.84375,6.7537798 c 9.398898,0 17.09375,7.6948502 17.09375,17.0937502 0,3.641219 -1.165832,7.033396 -3.125,9.8125 l 3.4375,3.40597 -4.1875,4.18778 -3.40625,-3.4375 c -2.779105,1.959167 -6.171281,3.125 -9.8125,3.125 -8.927086,0 -16.3118257,-6.937248 -17.03125,-15.6875 1.4486937,1.268659 3.616362,1.1089 5.90625,-0.25 0.568988,5.667752 5.29784,10.03125 11.125,10.03125 2.028714,0 3.927871,-0.538536 5.5625,-1.46875 l -5.5625,-5.5625 -3.5625,3.59375 L 16.094,27.41 27.40625,16.09753 31.594,20.285 28,23.84753 l 5.5625,5.5625 c 0.930214,-1.634629 1.46875,-3.533787 1.46875,-5.5625 0,-6.215637 -4.971863,-11.1875 -11.1875,-11.1875 -0.821276,0 -1.605503,0.08497 -2.37475,0.24997 0.66022,-1.877332 1.166278,-3.9332579 1.49975,-6.1249702 0.288515,-0.016276 0.582324,-0.03125 0.875,-0.03125 z"
     id="rect2982"
     inkscape:connector-curvature="0"
     sodipodi:nodetypes="ssccccsccsccccccccssccs" />
</svg>
