<svg width="48" version="1.1" xmlns="http://www.w3.org/2000/svg" height="48">
<path style="fill:#fff;fill-rule:evenodd" d="m 9.5093,2.495 h 10.2319 c 3.878,0 7,3.69552 7,8.28593 v 13.3528 c 0,4.5904 -3.122,8.28593 -7,8.28593 h -10.2319 c -3.878,0 -7,-3.69552 -7,-8.28593 v -13.3528 c 0,-4.5904 3.122,-8.28593 7,-8.28593 z "/>
<g style="fill:#436430">
<path d="M 6.375,21.7185 C 4.74617,23.03076 4.02197,23.60786 2.5,24.68725 v 0.0625 0.375 c 0,4.5904 3.122,8.28125 7,8.28125 h 10.25 c 3.878,0 7,-3.69085 7,-8.28125 v -13.3437 c 0,-4.13481 -2.43806,-7.55122 -5.775,-8.18712 1.03339,17.4682 -13.1795,27.3585 -14.6,18.1246 z"/>
<path d="m 6.4624,19.9484 c 0.126402,0.06272 -0.22118,0.710029 -0.081394,0.770127 0.01815,0.347729 -0.05299,0.694521 -0.006,1 5.06488,-4.0805 10.329,-9.62 14.411,-18.9191 -5.40203,9.15077 -9.12682,13.3291 -14.3236,17.149 z"/>
<path d="m 9.5,3.4998 c -3.878,0 -7,3.69085 -7,8.28125 v 4.59375 3.25 3.03125 0.25 C 3.66404,22.133558 5.1961,20.83166 6.54184,19.84249 -1.29119,15.95535 16.12125,7.39569 21.33164,2.54569 21.075671,2.5123944 20.800298,2.430262 20.55039,2.51444 l -2.9254,0.9854 z"/>
</g>
<path style="fill:#559c2c" d="m 7,2.5038 c -2.5274,0.255139 -4.5,2.40313 -4.5,5 v 7.875 c -0.573532,1.18615 -0.639032,2.2828 0,3.25 v 3.03125 0.25 c 1.16404,-0.772492 2.06051,-1.38583 3.40625,-2.375 -7.84804,-3.89458 9.48224,-12.1851 14.6562,-17.0313 -2.27889,-0.00266 -2.9375,0 -2.9375,0 l -10.125,0 c -0.173125,0 -0.331506,-0.017009 -0.5,0 z M 5.9062,19.5351 c 0.126402,0.06272 0.235214,0.127402 0.375,0.1875 0.01815,0.347729 0.04676,0.694521 0.09375,1 5.0842,-4.09606 9.89895,-9.03811 14.5,-18.2188 -5.43038,9.22383 -9.75257,13.1972 -14.9688,17.0313 z M 20.875,2.5038 C 21.9651,20.0309 7.7981,29.9731 6.375,20.7226 4.74617,22.03486 4.02197,22.61196 2.5,23.69135 v 0.0625 16.75 c 0,2.77 2.23,5 5,5 h 33 c 2.77,0 5,-2.23 5,-5 v -33 c 0,-2.77 -2.23,-5 -5,-5 H 23.375 21.21875 Z M 2.5,23.69135 V 21.9101 c -0.400442,0.265746 -0.712032,0.459203 -1.25,0.8125 -0.239152,0.233203 0.550455,1.41906 0.90625,1.21875 0.148147,-0.103703 0.210374,-0.155409 0.34375,-0.25 z"/>
<path style="opacity:.5" d="m 23.8438,5.754 c 9.3989,0 17.0938,7.69485 17.0938,17.0938 0,3.64122 -1.16583,7.0334 -3.125,9.8125 l 3.9556,3.9136 -.5181,.4921 -4.1875,3.188 -3.4062,-3.4375 c -2.77911,1.95917 -6.17128,3.125 -9.8125,3.125 -8.92709,0 -17.5036,-9.10886 -17.0312,-15.6875 1.44869,1.26866 3.61636,1.1089 5.90625,-0.25 0.568988,5.66775 5.29784,10.0312 11.125,10.0312 2.02871,0 3.92787,-0.538536 5.5625,-1.46875 l -5.5625,-5.5625 -3.5625,3.5938 -4.1872,-3.1878 -.4867,-.5158 11.7989,-11.7964 4.6887,4.6871 -.501,.5001 -3.594,2.5628 5.5625,5.5625 c 0.930214,-1.63463 1.46875,-3.53379 1.46875,-5.5625 0,-6.21564 -4.97186,-11.1875 -11.1875,-11.1875 -0.410638,0 -1.97981,1.20787 -2.37475,1.24975 -0.02041,-0.332657 -0.0089,-0.632813 0,-1 0.66022,-1.87733 1.16653,-3.93329 1.5,-6.125 0.288515,-0.016276 0.582324,-0.03125 0.875,-0.031255 z "/>
<path style="fill:#fff" d="m 23.8438,6.7538 c 9.3989,0 17.0938,7.69485 17.0938,17.0938 0,3.64122 -1.16583,7.0334 -3.125,9.8125 l 3.4375,3.406 -4.1875,4.1878 -3.4062,-3.4375 c -2.77911,1.95917 -6.17128,3.125 -9.8125,3.125 -8.92709,0 -16.3118,-6.93725 -17.0312,-15.6875 1.44869,1.26866 3.61636,1.1089 5.90625,-0.25 0.568988,5.66775 5.29784,10.0312 11.125,10.0312 2.02871,0 3.92787,-0.538536 5.5625,-1.46875 l -5.5625,-5.5625 -3.5625,3.5938 -4.1872,-4.1875 11.3122,-11.3125 4.1878,4.1875 -3.594,3.5625 5.5625,5.5625 c 0.930214,-1.63463 1.46875,-3.53379 1.46875,-5.5625 0,-6.21564 -4.97186,-11.1875 -11.1875,-11.1875 -0.821276,0 -1.6055,0.08497 -2.37475,0.24997 0.66022,-1.87733 1.16628,-3.93326 1.49975,-6.12497 0.288515,-0.016276 0.582324,-0.03125 0.875,-0.03125 z "/>
</svg>
