<svg width="48" version="1.1" xmlns="http://www.w3.org/2000/svg" viewBox="0 0 48 48" height="48" xmlns:xlink="http://www.w3.org/1999/xlink" style="overflow: visible;">
<defs>
<linearGradient id="linearGradient4153">
<stop offset="0" style="stop-color:#fff;stop-opacity:.51"/>
<stop offset="1" style="stop-color:#fff;stop-opacity:0"/>
</linearGradient>
<linearGradient id="linearGradient4733">
<stop offset="0"/>
<stop offset="1" style="stop-opacity:.2"/>
</linearGradient>
<linearGradient id="linearGradient7837">
<stop offset="0" style="stop-color:#d1d1d1"/>
<stop offset="1" style="stop-color:#f5f5f5"/>
</linearGradient>
<linearGradient id="linearGradient3570">
<stop offset="0" style="stop-color:#fff"/>
<stop offset="1" style="stop-color:#fff;stop-opacity:0"/>
</linearGradient>
<linearGradient gradientTransform="matrix(0.8,0,0,0.8,0.390383,0.378365)" id="linearGradient4159-0" xlink:href="#linearGradient4153" y1="9.6396875" y2="39.580494" x1="6.0155225" gradientUnits="userSpaceOnUse" x2="29.109051"/>
<linearGradient gradientTransform="scale(0.5)" xlink:href="#linearGradient4733" id="linearGradient1" y1="90" x1="13.8" y2="4.2" gradientUnits="userSpaceOnUse" x2="13.391417"/>
<linearGradient gradientTransform="scale(0.5)" xlink:href="#linearGradient4733" id="linearGradient3" y1="90" x1="13.8" y2="4.2" gradientUnits="userSpaceOnUse" x2="13.391417"/>
<linearGradient gradientTransform="scale(0.5)" xlink:href="#linearGradient4733" id="linearGradient2" y1="90" x1="13.8" y2="4.2" gradientUnits="userSpaceOnUse" x2="13.391417"/>
<linearGradient gradientTransform="scale(0.5)" xlink:href="#linearGradient7837" id="linearGradient7839" y1="89" x1="14" y2="7" x2="14" gradientUnits="userSpaceOnUse"/>
<linearGradient gradientTransform="scale(0.5)" xlink:href="#linearGradient4733" id="linearGradient4759" y1="90" x1="13.8" y2="4.2" x2="13.391417" gradientUnits="userSpaceOnUse"/>
<radialGradient fx="24.25" fy="43" cx="24.25" cy="43" gradientTransform="matrix(1.3427872,-0.00919718,0.01219515,1.7804878,-8.8369815,-33.337944)" xlink:href="#linearGradient3570" id="radialGradient5026" r="20.5" gradientUnits="userSpaceOnUse"/>
</defs>
<path style="opacity:.05;fill:url(#linearGradient1)" d="m 4.9499,3 h 38.1001 c 2.5761,0 4.65,2.0739 4.65,4.65 v 35.3 c 0,2.5761 -2.0739,4.65 -4.65,4.65 h -38.1001 c -2.5761,0 -4.65,-2.0739 -4.65,-4.65 v -35.3 c 0,-2.5761 2.0739,-4.65 4.65,-4.65 z "/>
<path style="opacity:.1;fill:url(#linearGradient2)" d="m 5.2,3 h 37.6001 c 2.4376,0 4.4,1.9624 4.4,4.4 v 35 c 0,2.4376 -1.9624,4.4 -4.4,4.4 h -37.6001 c -2.4376,0 -4.4,-1.9624 -4.4,-4.4 v -35 c 0,-2.4376 1.9624,-4.4 4.4,-4.4 z "/>
<path style="opacity:.15;fill:url(#linearGradient3)" d="m 5.5499,3 h 36.9001 c 2.2991,0 4.15,1.8509 4.15,4.15 v 34.7 c 0,2.2991 -1.8509,4.15 -4.15,4.15 h -36.9001 c -2.2991,0 -4.15,-1.8509 -4.15,-4.15 v -34.7 c 0,-2.2991 1.8509,-4.15 4.15,-4.15 z "/>
<path style="opacity:.3;fill:url(#linearGradient4759)" d="m 5.7,3 h 36.6001 c 2.1606,0 3.9,1.7394 3.9,3.9 v 34.6 c 0,2.1606 -1.7394,3.9 -3.9,3.9 h -36.6001 c -2.1606,0 -3.9,-1.7394 -3.9,-3.9 v -34.6 c 0,-2.1606 1.7394,-3.9 3.9,-3.9 z "/>
<path style="fill:url(#linearGradient7839)" d="m 5.8,3.5 c -1.939,0 -3.5,1.561 -3.5,3.5 v 34 c 0,1.939 1.561,3.5 3.5,3.5 h 36.4001 c 1.939,0 3.5,-1.561 3.5,-3.5 V 7 c 0,-1.939 -1.561,-3.5 -3.5,-3.5 z"/>
<path style="opacity:.6;fill:url(#radialGradient5026)" d="m 5.8,3.5 c -1.939,0 -3.5,1.561 -3.5,3.5 v 34 c 0,1.939 1.561,3.5 3.5,3.5 h 36.4001 c 1.939,0 3.5,-1.561 3.5,-3.5 V 7 c 0,-1.939 -1.561,-3.5 -3.5,-3.5 h -0.330078 c 1.84441,0 3.33008,1.48567 3.33008,3.33008 v 33.3399 c 0,1.84441 -1.03034,3.33008 -3.33008,3.33008 h -35.2399 c -2.62532,0 -3.83008,-1.48567 -3.83008,-3.33008 V 6.83008 C 2.8,4.98567 4.285651,3.5 6.130061,3.5 Z"/>
<path style="opacity:.3" d="m 2.3,41 v 0.5 c 0,1.939 1.561,3.5 3.5,3.5 h 36.4001 c 1.939,0 3.5,-1.561 3.5,-3.5 V 41 c 0,1.939 -1.561,3.5 -3.5,3.5 h -36.4001 c -1.939,0 -3.5,-1.561 -3.5,-3.5 z"/>
<path d="m 43.0901,39.1822 c 0,0.497965 -0.380338,0.90187 -0.851583,0.90187 h -36.477 c -0.471244,0 -0.851583,-0.403905 -0.851583,-0.90187 v -30.3637 c 0,-0.499072 0.381384,-0.90187 0.851583,-0.90187 h 36.477 c 0.471245,0 0.851583,0.403904 0.851583,0.90187 z "/>
<g style="fill:#fff">
<path d="m 26.9525,31.4601 v -2.39099 l 5.5359,-2.512 -5.5359,-2.4873 v -2.38961 l 8.385,4.0308 v 1.69213 z "/>
<path d="m 16.6502,33.934 h -0.3317 q -4.08017,0 -6.34693,-2.2557 -2.26676,-2.2557 -2.26676,-6.28059 0,-4.01383 2.2557,-6.29165 2.26676,-2.27782 6.23636,-2.27782 4.01383,0 6.24742,2.2557 2.24465,2.2557 2.24465,6.31376 0,2.78646 -1.1942,4.7989 -1.18314,2.01244 -3.41673,3.02972 l 3.3283,3.7153 h -4.05806 l -2.698,-3.0076 z  m -.4534,-14.0207 q -1.9461,0 -3.01866,1.43746 -1.07256,1.43746 -1.07256,4.047 0,2.65377 1.05045,4.06911 1.05045,1.40429 3.04078,1.40429 1.95715,0 3.02972,-1.43746 1.07257,-1.43746 1.07257,-4.03594 0,-2.60954 -1.07257,-4.047 -1.07257,-1.43746 -3.02972,-1.43746 z "/>
</g>
<path style="fill:url(#linearGradient4159-0)" d="m 5.762,7.916 c -0.470199,0 -0.85156,0.404053 -0.85156,0.903128 v 30.2625 c 9.29256,-13.8294 21.5824,-23.0099 37.3156,-31.1656 h -36.4641 z "/>
</svg>
