<svg width="48" version="1.1" xmlns="http://www.w3.org/2000/svg" viewBox="0 0 48 48" height="48" xmlns:xlink="http://www.w3.org/1999/xlink" style="overflow: visible;">
<defs>
<linearGradient gradientTransform="matrix(0.8,0,0,0.8,0,0)" id="linearGradient4159" xlink:href="#linearGradient4153" y1="9.6396875" y2="39.580494" x1="6.0155225" gradientUnits="userSpaceOnUse" x2="29.109051"/>
<linearGradient id="linearGradient4153">
<stop offset="0" style="stop-color:#fff;stop-opacity:.51"/>
<stop offset="1" style="stop-color:#fff;stop-opacity:0"/>
</linearGradient>
</defs>
<path style="opacity:.03" d="M 3.78409,3.638 C 2.01807,3.638 0.581,5.09217 0.581,6.8786 V 44.9223 H 47.4566 V 6.8786 c 0,-1.78751 -1.43601,-3.2406 -3.20203,-3.2406 H 3.78417 Z"/>
<path style="opacity:.05" d="m 3.984285,3.8384 c -1.76602,0 -3.20309,1.45417 -3.20309,3.2406 v 37.4437 h 46.3754 V 7.079 c 0,-1.78751 -1.43601,-3.2406 -3.20203,-3.2406 h -39.9702 z"/>
<path style="opacity:.1" d="m 4.0056,4.0929 c -1.60581,0.037547 -3.0479,1.40851 -3.04407,3.13884 v 36.8086 h 45.8635 v -36.8086 c 0,-1.73138 -1.40955,-3.13884 -3.14302,-3.13884 h -39.6765 Z "/>
<path style="opacity:.15" d="m 4.3416,4.3308 c -1.88191,0 -3.14789,1.40867 -3.14406,3.139 v 36.1705 h 45.3271 v -36.1707 c 0,-1.73138 -1.40955,-3.13884 -3.14302,-3.13884 h -39.0401 Z "/>
<path style="opacity:.33" d="m 4.1496,4.6111 c -1.89567,0.16344 -2.66087,1.49411 -2.66088,2.73842 l 0,35.8908 h 44.6366 l 0,-35.691 c 0,-1.60554 -1.18513,-2.93821 -2.84351,-2.93821 h -39.1323 z "/>
<path style="fill:#d0cabe" d="m 43.266,4.9246 -39.0767,0 c -1.30402,0 -2.3604,1.05429 -2.3604,2.35517 v 3.50664 c 0,0.331229 0,8.42179 0,16.3817 0,7.69872 0,15.2752 0,15.597 0.778441,0 43.0169,0 43.7964,0 0,-0.321826 0,-7.8983 0,-15.597 0,-7.95995 0,-16.0495 0,-16.3817 v -3.50664 c 0,-1.30088 -1.05638,-2.35517 -2.35935,-2.35517 z "/>
<path d="m 42.6997,38.8038 c 0,0.497965 -0.380338,0.90187 -0.851583,0.90187 h -36.477 c -0.471244,0 -0.851583,-0.403905 -0.851583,-0.90187 v -30.3637 c 0,-0.499072 0.381384,-0.90187 0.851583,-0.90187 h 36.477 c 0.471245,0 0.851583,0.403904 0.851583,0.90187 v 30.3637 z "/>
<g style="fill:#fff">
<path d="m 26.5621,31.0817 v -2.39099 l 5.5359,-2.512 -5.5359,-2.4873 v -2.38961 l 8.385,4.0308 v 1.69213 z "/>
<path d="m 16.2598,33.5556 h -0.3317 q -4.08017,0 -6.34693,-2.2557 -2.26676,-2.2557 -2.26676,-6.28059 0,-4.01383 2.2557,-6.29165 2.26676,-2.27782 6.23636,-2.27782 4.01383,0 6.24742,2.2557 2.24465,2.2557 2.24465,6.31376 0,2.78646 -1.1942,4.7989 -1.18314,2.01244 -3.41673,3.02972 l 3.3283,3.7153 h -4.05806 l -2.698,-3.0076 z M 15.8064,19.5349 q -1.9461,0 -3.01866,1.43746 -1.07256,1.43746 -1.07256,4.047 0,2.65377 1.05045,4.06911 1.05045,1.40429 3.04078,1.40429 1.95715,0 3.02972,-1.43746 1.07257,-1.43746 1.07257,-4.03594 0,-2.60954 -1.07257,-4.047 -1.07257,-1.43746 -3.02972,-1.43746 z"/>
</g>
<path style="fill:url(#linearGradient4159)" d="m 5.3716,7.5376 c -0.470199,0 -0.85156,0.404053 -0.85156,0.903128 v 30.2625 c 9.29256,-13.8294 21.5824,-23.0099 37.3156,-31.1656 h -36.4641 z "/>
</svg>
