<svg width="48" version="1.1" xmlns="http://www.w3.org/2000/svg" height="48">
<path style="fill:#559c2c;stroke:none" id="path3761" d="m 5.9651,.5 c -3.02767,0 -5.46512,2.43744 -5.46512,5.46512 v 36.0698 c 0,3.02767 2.43744,5.46512 5.46512,5.46512 h 36.0698 c 3.02767,0 5.46511,-2.43744 5.46511,-5.46511 v -36.0698 c 0,-3.02767 -2.43744,-5.46512 -5.46511,-5.46512 h -36.0698 z "/>
<g style="stroke:none" id="g4463" transform="matrix(1.1479006,0,0,1.1479006,-6.5121521,-5.8416152)">
<path style="opacity:.5" id="path2990" d="m 18.1458,6.5683 c -5.89963,0 -10.735,4.83535 -10.735,10.735 0,5.89963 4.83535,10.735 10.735,10.735 2.28557,0 4.40902,-0.744713 6.15341,-1.97447 l 2.147,2.1661 2.6261,-2.0127 .0002,-.6136 -2.1661,-2.147 c 1.22976,-1.74442 1.97447,-3.86787 1.97447,-6.15341 0,-5.89963 -4.83535,-10.735 -10.735,-10.735 z  m 0,3.7189 c 3.90151,0 7.01608,3.11456 7.01608,7.01607 0,1.27341 -0.336252,2.46282 -0.920141,3.48887 l -3.4889,-3.4889 2.2618,-1.629 .0002,-.6139 -2.6262,-2.6262 -7.112,7.1119 -.0001,.6136 2.6264,2.0127 2.2428,-2.262 3.4889,3.4889 c -1.02604,0.583889 -2.21546,0.920141 -3.48887,0.920141 -3.90151,0 -7.01608,-3.11456 -7.01608,-7.01608 0,-3.90151 3.11456,-7.01608 7.01608,-7.01608 z "/>
<path style="fill:#fff" id="path3759" d="m 18.1458,7.1819 c -5.89963,0 -10.735,4.83535 -10.735,10.735 0,5.89963 4.83535,10.735 10.735,10.735 2.28557,0 4.40902,-0.744713 6.15341,-1.97447 l 2.147,2.1661 2.6261,-2.6262 -2.166,-2.147 c 1.22976,-1.74442 1.97447,-3.86788 1.97447,-6.15341 0,-5.89963 -4.83535,-10.735 -10.735,-10.735 z  m 0,3.7189 c 3.90151,0 7.01608,3.11456 7.01608,7.01608 0,1.27341 -0.336252,2.46282 -0.920141,3.48887 l -3.4889,-3.4889 2.2618,-2.2426 -2.6261,-2.6265 -7.1121,7.112 2.6264,2.6262 2.2428,-2.262 3.4889,3.4889 c -1.02604,0.583889 -2.21546,0.920141 -3.48887,0.920141 -3.90151,0 -7.01608,-3.11456 -7.01608,-7.01608 0,-3.90151 3.11456,-7.01608 7.01608,-7.01608 z "/>
</g>
<g id="g4494" transform="translate(0.60771651,0.91157477)">
<path style="opacity:.5" id="path4492" d="m 42.9471,19.0578 c -0.825866,0 -1.53286,0.434045 -1.9192,1.07675 h -8.13046 c 0,0 -1.618,-0.02748 -3.28006,0.77391 -1.66207,0.801374 -3.41961,2.63574 -3.41961,5.68653 0,3.05079 1.75755,4.88514 3.41961,5.68653 0.788438,0.380135 1.56287,0.540786 2.1634,0.639315 v 0.471085 l -3.0708,2.9611 c -0.09451,-0.02506 -0.176372,-0.06728 -0.279151,-0.06728 -0.616704,0 -1.11663,0.482082 -1.11663,1.07675 0,0.594666 0.499927,1.07675 1.11663,1.07675 0.616704,0 1.11663,-0.482082 1.11663,-1.07675 0,-0.09912 -0.04379,-0.178037 -0.06979,-0.269187 l 3.0708,-2.9611 h 3.69885 v -1.07675 h 1.11663 c 0,0 1.1736,0.02748 2.30309,0.572027 1.12946,0.544562 2.1634,1.40201 2.1634,3.73503 0,2.33301 -1.03401,3.19048 -2.1634,3.73503 -1.12946,0.544562 -2.30309,0.572027 -2.30309,0.572027 h -8.13046 c -0.386195,-0.643179 -1.09255,-1.07675 -1.91805,-1.07675 -1.23339,0 -2.23332,0.964164 -2.23332,2.1535 0,1.18935 0.999869,2.1535 2.23332,2.1535 0.825867,0 1.53286,-0.434044 1.9192,-1.07675 h 8.13046 c 0,0 1.618,0.02748 3.28006,-0.77391 1.66207,-0.801374 3.41962,-2.63574 3.41962,-5.68653 0,-3.05079 -1.75755,-4.88514 -3.41962,-5.68653 -1.66207,-0.801374 -3.28006,-0.773909 -3.28006,-0.773909 h -1.11663 v -0.336491 l 3.0708,-2.9611 c 0.09451,0.02506 0.176371,0.06728 0.27915,0.06728 0.616705,0 1.11663,-0.482082 1.11663,-1.07675 0,-0.594666 -0.499927,-1.07673 -1.11663,-1.07673 -0.616703,0 -1.11663,0.482081 -1.11663,1.07675 0,0.09912 0.04379,0.178037 0.06979,0.269188 l -3.0708,2.9611 h -3.69885 v 0.908505 c -0.367946,-0.08472 -0.769084,-0.202573 -1.18642,-0.403781 -1.12946,-0.544563 -2.16341,-1.40201 -2.16341,-3.73503 0,-2.33301 1.03401,-3.19048 2.16341,-3.73503 1.12843,-0.544117 2.30137,-0.571395 2.30137,-0.571395 h 8.13046 c 0.386395,0.642704 1.09334,1.07675 1.9192,1.07675 1.2334,0 2.23332,-0.96415 2.23332,-2.1535 0,-1.18934 -0.999855,-2.1535 -2.23332,-2.1535 z "/>
<path style="fill:#fff" id="path10" d="m 42.9471,19.6779 c -0.825866,0 -1.53286,0.434045 -1.9192,1.07675 h -8.13046 c 0,0 -1.618,-0.02748 -3.28006,0.77391 -1.66207,0.801374 -3.41961,2.63574 -3.41961,5.68653 0,3.05079 1.75755,4.88513 3.41961,5.68653 0.788438,0.380135 1.56287,0.540786 2.1634,0.639315 v 0.471085 l -3.0708,2.9611 c -0.09451,-0.02506 -0.176372,-0.06729 -0.279151,-0.06729 -0.616704,0 -1.11663,0.482082 -1.11663,1.07675 0,0.594666 0.499927,1.07675 1.11663,1.07675 0.616704,0 1.11663,-0.482082 1.11663,-1.07675 0,-0.09912 -0.04379,-0.178037 -0.06979,-0.269187 l 3.0708,-2.9611 h 3.69885 v -1.07675 h 1.11663 c 0,0 1.1736,0.02748 2.30309,0.572027 1.12946,0.544562 2.1634,1.40201 2.1634,3.73503 0,2.33301 -1.03401,3.19048 -2.1634,3.73503 -1.12946,0.544562 -2.30309,0.572027 -2.30309,0.572027 h -8.13046 c -0.386195,-0.643179 -1.09255,-1.07675 -1.91805,-1.07675 -1.23339,0 -2.23332,0.964164 -2.23332,2.1535 0,1.18935 0.999869,2.1535 2.23332,2.1535 0.825867,0 1.53286,-0.434044 1.9192,-1.07675 h 8.13046 c 0,0 1.618,0.02748 3.28006,-0.77391 1.66207,-0.801374 3.41962,-2.63574 3.41962,-5.68653 0,-3.05079 -1.75755,-4.88514 -3.41962,-5.68653 -1.66207,-0.801374 -3.28006,-0.773909 -3.28006,-0.773909 h -1.11663 v -0.336491 l 3.0708,-2.9611 c 0.09451,0.02506 0.176371,0.06728 0.27915,0.06728 0.616705,0 1.11663,-0.482082 1.11663,-1.07675 0,-0.594666 -0.499927,-1.07673 -1.11663,-1.07673 -0.616703,0 -1.11663,0.482081 -1.11663,1.07675 0,0.09912 0.04379,0.178037 0.06979,0.269188 l -3.0708,2.9611 h -3.69885 v 0.908505 c -0.367946,-0.08472 -0.769084,-0.202573 -1.18642,-0.403781 -1.12946,-0.544563 -2.16341,-1.40201 -2.16341,-3.73503 0,-2.33301 1.03401,-3.19048 2.16341,-3.73503 1.12843,-0.544117 2.30137,-0.571395 2.30137,-0.571395 h 8.13046 c 0.386395,0.642704 1.09334,1.07675 1.9192,1.07675 1.2334,0 2.23332,-0.96415 2.23332,-2.1535 0,-1.18934 -0.999855,-2.1535 -2.23332,-2.1535 z "/>
</g>
</svg>
