<svg width="48" version="1.1" xmlns="http://www.w3.org/2000/svg" height="48">
<path style="fill:#559c2c" d="m 5.9651,.5 c -3.02767,0 -5.46512,2.43744 -5.46512,5.46512 v 36.0698 c 0,3.02767 2.43744,5.46512 5.46512,5.46512 h 36.0698 c 3.02767,0 5.46511,-2.43744 5.46511,-5.46511 v -36.0698 c 0,-3.02767 -2.43744,-5.46512 -5.46511,-5.46512 h -36.0698 z "/>
<path style="opacity:.5" d="m 14.3174,1.6981 c -6.77219,0 -12.3227,5.5505 -12.3227,12.3227 0,6.77219 5.5505,12.3227 12.3227,12.3227 2.62361,0 5.06112,-0.854856 7.0635,-2.26649 l 2.4645,2.4865 3.0145,-2.3104 .3424,-.3675 -2.8286,-2.8014 c 1.41164,-2.00242 2.26649,-4.43993 2.26649,-7.0635 0,-6.77219 -5.5505,-12.3227 -12.3227,-12.3227 z  m 0,4.2689 c 4.47855,0 8.05376,3.57521 8.05376,8.05375 0,1.46175 -0.385984,2.82707 -1.05623,4.00488 l -4.0049,-4.0049 2.5963,-1.8699 .3355,-.3673 -3.3499,-3.352 -8.5009,8.5024 .3369,.3657 3.0148,2.3104 2.5745,-2.5966 4.0049,4.0049 c -1.17779,0.670247 -2.54313,1.05623 -4.00488,1.05623 -4.47855,0 -8.05376,-3.57521 -8.05376,-8.05376 0,-4.47855 3.57521,-8.05376 8.05376,-8.05376 z "/>
<path style="fill:#fff" d="m 14.3174,2.4025 c -6.77219,0 -12.3227,5.5505 -12.3227,12.3227 0,6.77219 5.5505,12.3227 12.3227,12.3227 2.62361,0 5.06112,-0.854856 7.0635,-2.26649 l 2.4645,2.4865 3.0145,-3.0146 -2.4864,-2.4645 c 1.41164,-2.00242 2.2665,-4.43994 2.2665,-7.0635 0,-6.77219 -5.5505,-12.3227 -12.3227,-12.3227 z  m 0,4.2689 c 4.47855,0 8.05376,3.57521 8.05376,8.05376 0,1.46175 -0.385984,2.82707 -1.05623,4.00488 l -4.0049,-4.0049 2.5963,-2.5743 -3.0145,-3.015 -8.164,8.1639 3.0148,3.0146 2.5745,-2.5966 4.0049,4.0049 c -1.17779,0.670246 -2.54313,1.05623 -4.00488,1.05623 -4.47855,0 -8.05376,-3.57521 -8.05376,-8.05376 0,-4.47855 3.57521,-8.05376 8.05376,-8.05376 z "/>
<path style="opacity:.5" d="m 43.5548,19.9694 c -0.825866,0 -1.53286,0.434045 -1.9192,1.07675 h -8.13046 c 0,0 -1.618,-0.02748 -3.28006,0.77391 -1.66207,0.801374 -3.41961,2.63574 -3.41961,5.68653 0,3.05079 1.75755,4.88514 3.41961,5.68653 0.788438,0.380135 1.56287,0.540786 2.1634,0.639315 v 0.471085 l -3.0708,2.9611 c -0.09451,-0.02506 -0.176372,-0.06728 -0.279151,-0.06728 -0.616704,0 -1.11663,0.482082 -1.11663,1.07675 0,0.594666 0.499927,1.07675 1.11663,1.07675 0.616704,0 1.11663,-0.482082 1.11663,-1.07675 0,-0.09912 -0.04379,-0.178037 -0.06979,-0.269187 l 3.0708,-2.9611 h 3.69885 v -1.07675 h 1.11663 c 0,0 1.1736,0.02748 2.30309,0.572027 1.12946,0.544562 2.1634,1.40201 2.1634,3.73503 0,2.33301 -1.03401,3.19048 -2.1634,3.73503 -1.12946,0.544562 -2.30309,0.572027 -2.30309,0.572027 h -8.13046 c -0.386195,-0.643179 -1.09255,-1.07675 -1.91805,-1.07675 -1.23339,0 -2.23332,0.964164 -2.23332,2.1535 0,1.18935 0.999869,2.1535 2.23332,2.1535 0.825867,0 1.53286,-0.434044 1.9192,-1.07675 h 8.13046 c 0,0 1.618,0.02748 3.28006,-0.77391 1.66207,-0.801374 3.41962,-2.63574 3.41962,-5.68653 0,-3.05079 -1.75755,-4.88514 -3.41962,-5.68653 -1.66207,-0.801374 -3.28006,-0.773909 -3.28006,-0.773909 h -1.11663 v -0.336491 l 3.0708,-2.9611 c 0.09451,0.02506 0.176371,0.06728 0.27915,0.06728 0.616705,0 1.11663,-0.482082 1.11663,-1.07675 0,-0.594666 -0.499927,-1.07673 -1.11663,-1.07673 -0.616703,0 -1.11663,0.482081 -1.11663,1.07675 0,0.09912 0.04379,0.178037 0.06979,0.269188 l -3.0708,2.9611 h -3.69885 v 0.908505 c -0.367946,-0.08472 -0.769084,-0.202573 -1.18642,-0.403781 -1.12946,-0.544563 -2.16341,-1.40201 -2.16341,-3.73503 0,-2.33301 1.03401,-3.19048 2.16341,-3.73503 1.12843,-0.544117 2.30137,-0.571395 2.30137,-0.571395 h 8.13046 c 0.386395,0.642704 1.09334,1.07675 1.9192,1.07675 1.2334,0 2.23332,-0.96415 2.23332,-2.1535 0,-1.18934 -0.999855,-2.1535 -2.23332,-2.1535 z "/>
<path style="fill:#fff" d="m 43.5548,20.5895 c -0.825866,0 -1.53286,0.434045 -1.9192,1.07675 h -8.13046 c 0,0 -1.618,-0.02748 -3.28006,0.77391 -1.66207,0.801374 -3.41961,2.63574 -3.41961,5.68653 0,3.05079 1.75755,4.88513 3.41961,5.68653 0.788438,0.380135 1.56287,0.540786 2.1634,0.639315 v 0.471085 l -3.0708,2.9611 c -0.09451,-0.02506 -0.176372,-0.06729 -0.279151,-0.06729 -0.616704,0 -1.11663,0.482082 -1.11663,1.07675 0,0.594666 0.499927,1.07675 1.11663,1.07675 0.616704,0 1.11663,-0.482082 1.11663,-1.07675 0,-0.09912 -0.04379,-0.178037 -0.06979,-0.269187 l 3.0708,-2.9611 h 3.69885 v -1.07675 h 1.11663 c 0,0 1.1736,0.02748 2.30309,0.572027 1.12946,0.544562 2.1634,1.40201 2.1634,3.73503 0,2.33301 -1.03401,3.19048 -2.1634,3.73503 -1.12946,0.544562 -2.30309,0.572027 -2.30309,0.572027 h -8.13046 c -0.386195,-0.643179 -1.09255,-1.07675 -1.91805,-1.07675 -1.23339,0 -2.23332,0.964164 -2.23332,2.1535 0,1.18935 0.999869,2.1535 2.23332,2.1535 0.825867,0 1.53286,-0.434044 1.9192,-1.07675 h 8.13046 c 0,0 1.618,0.02748 3.28006,-0.77391 1.66207,-0.801374 3.41962,-2.63574 3.41962,-5.68653 0,-3.05079 -1.75755,-4.88514 -3.41962,-5.68653 -1.66207,-0.801374 -3.28006,-0.773909 -3.28006,-0.773909 h -1.11663 v -0.336491 l 3.0708,-2.9611 c 0.09451,0.02506 0.176371,0.06728 0.27915,0.06728 0.616705,0 1.11663,-0.482082 1.11663,-1.07675 0,-0.594666 -0.499927,-1.07673 -1.11663,-1.07673 -0.616703,0 -1.11663,0.482081 -1.11663,1.07675 0,0.09912 0.04379,0.178037 0.06979,0.269188 l -3.0708,2.9611 h -3.69885 v 0.908505 c -0.367946,-0.08472 -0.769084,-0.202573 -1.18642,-0.403781 -1.12946,-0.544563 -2.16341,-1.40201 -2.16341,-3.73503 0,-2.33301 1.03401,-3.19048 2.16341,-3.73503 1.12843,-0.544117 2.30137,-0.571395 2.30137,-0.571395 h 8.13046 c 0.386395,0.642704 1.09334,1.07675 1.9192,1.07675 1.2334,0 2.23332,-0.96415 2.23332,-2.1535 0,-1.18934 -0.999855,-2.1535 -2.23332,-2.1535 z "/>
</svg>
