<svg width="48" version="1.1" xmlns="http://www.w3.org/2000/svg" height="48">
<g style="stroke:none;fill-rule:evenodd">
<circle cx="24" cy="24" style="fill:#018ac7;stroke-linejoin:round;stroke-linecap:square;stroke-width:1.3" id="path4136" r="22"/>
<path style="fill-opacity:.275" id="path4157" d="m 7.535,33.944 c 0.335041,-0.335042 11.0621,-9.39576 11.0621,-9.39576 2.55825,-0.162457 7.34393,0.549874 9.1516,1.35033 7.11326,3.14981 11.4796,7.46821 19.8791,9.26948 -14.3232,4.50694 -16.7309,-1.38922 -26.5241,-3.85298 -3.93597,-0.990204 -9.77158,1.1957 -13.5687,2.62893 Z "/>
<path style="fill:#88d5f4" id="path4153" d="m 7.5348,33.9444 c 0.335041,-0.335042 11.0623,-10.3962 11.0623,-10.3962 2.55825,-0.162457 7.34393,0.549874 9.1516,1.35033 7.11326,3.14981 11.4796,7.46821 19.8791,9.26948 -14.3232,4.50694 -16.7309,-1.38922 -26.5241,-3.85298 -3.93597,-0.990204 -9.77176,2.19617 -13.5689,3.62941 z "/>
<path style="fill-opacity:.275" id="path4155" d="m 8.3576,13.4457 c 13.9577,-4.94176 19.462,2.24276 33.9483,7.84103 -15.162,-0.309897 -22.2726,1.83302 -34.7708,12.6572 -3.93566,-10.1126 -2.50236,-14.2537 0.822576,-20.4983 Z "/>
<path style="fill:#fff" id="path4149" d="m 7.858,12.4461 c 13.9577,-4.94176 19.4203,1.7168 33.9066,7.31507 -15.162,-0.309897 -21.9652,2.89108 -34.2296,14.1828 -4.50001,-7.33098 -3.06038,-16.1884 0.323,-21.4979 Z "/>
</g>
</svg>
