<svg width="48" version="1.1" xmlns="http://www.w3.org/2000/svg" height="48" xmlns:xlink="http://www.w3.org/1999/xlink">
<defs id="defs15">
<linearGradient gradientTransform="translate(5e-5,-4)" xlink:href="#linearGradient4520" id="linearGradient963" y1="7" x1="12" y2="46" x2="12" gradientUnits="userSpaceOnUse"/>
<linearGradient id="linearGradient4520">
<stop offset="0" style="stop-color:#438599" id="stop4516"/>
<stop offset="1" style="stop-color:#2b5561" id="stop4518"/>
</linearGradient>
</defs>
<rect width="44" x="2" y="5" height="39" style="fill:#e6e6e6" id="rect867"/>
<path style="fill:url(#linearGradient963)" id="rect2988" d="M 2,3 V 45 H 46 V 3 Z m 2,3 h 5 v 5 H 4 Z m 7,0 H 37 V 42 H 11 Z m 28,0 h 5 v 5 H 39 Z M 4,21 h 5 v 5 H 4 Z m 35,0 h 5 v 5 H 39 Z M 4,36 h 5 v 5 H 4 Z m 35,0 h 5 v 5 h -5 z"/>
<path style="fill:#2b5561;stroke-width:.433" id="path3759" d="m 23.9072,13.5 c -5.71945,0 -10.4071,4.68765 -10.4071,10.4071 0,5.71945 4.68765,10.4071 10.4071,10.4071 2.21576,0 4.27435,-0.721965 5.96546,-1.91417 l 2.0814,2.1 2.5459,-2.546 -2.0998,-2.0814 c 1.19219,-1.69114 1.91416,-3.74974 1.91416,-5.96547 0,-5.71945 -4.68765,-10.4071 -10.4071,-10.4071 z  m 0,3.6053 c 3.78235,0 6.80177,3.01943 6.80177,6.80176 0,1.23452 -0.325981,2.3876 -0.892036,3.38231 l -3.3823,-3.3823 2.1928,-2.1741 -2.5459,-2.5463 -6.8949,6.8947 2.5462,2.546 2.1743,-2.1929 3.3823,3.3823 c -0.994703,0.566052 -2.14779,0.892035 -3.38231,0.892035 -3.78235,0 -6.80176,-3.01943 -6.80176,-6.80177 0,-3.78235 3.01943,-6.80176 6.80176,-6.80176 z "/>
</svg>
