<svg width="96" version="1.0" xmlns="http://www.w3.org/2000/svg" height="96">
<g style="stroke:none">
<path style="fill:#3080ca" id="rect2419-8" d="m 12,6 72,0 c 3.324,0 6,2.676 6,6 v 72 c 0,3.324 -2.676,6 -6,6 h -72 c -3.324,0 -6,-2.676 -6,-6 v -72 c 0,-3.324 2.676,-6 6,-6 Z "/>
<path style="opacity:.3;fill:#fff" id="path3522-9" d="m 36.2739,6.0964 c 1.65012,2.21559 0.11259,5.9154 2.60148,5.87867 1.2119,1.71316 -2.41545,0.511042 0.2036,1.83143 1.5061,1.18599 -1.5934,1.86361 0.27178,2.92792 -2.14968,1.10911 0.34844,5.8011 1.94512,6.97538 2.62795,2.21206 1.1622,-4.68339 4.0945,-5.04209 1.59336,-1.8188 4.39184,-2.98633 6.37927,-4.81599 -1.9423,-0.15766 -3.07647,-1.36645 -1.23702,-2.11525 3.38545,3.46867 0.8489,-1.64271 -1.02514,-2.45202 1.81336,-0.576759 3.57698,-0.154404 3.32537,-1.65055 1.91632,-1.40182 -1.84226,-1.85442 -3.18394,-1.5375 -4.45834,0 -8.91667,0 -13.375,0 z M 8.4721,7.5435 C 6.02234,8.241348 5.85146,14.09512 8.31375,10.8446 8.918093,9.50989 11.71083,7.90139 8.4721,7.5435 Z M 19.9186,7.747 c -1.41226,2.21424 0.204911,3.98952 1.37991,1.28879 C 22.13022,7.90801 20.680579,7.78832 19.9186,7.747 Z m 3.529,0.4974 c -2.72875,1.26458 -0.6726,4.21347 -0.60506,4.86932 2.87457,0.994334 4.47323,-0.650114 5.56069,2.16041 2.73516,1.57615 -0.0538,4.31492 -1.08054,5.02818 1.84934,-1.61039 5.40416,4.3783 4.47226,1.21432 -1.11179,-0.811673 2.98515,1.30391 0.85962,-1.33401 -1.95607,-3.15109 0.15527,-1.41071 0.97995,-0.675273 2.80488,-2.51485 -3.1736,-2.81881 -1.68123,-5.40689 -1.30775,-1.05906 -3.02289,-4.26737 -5.33867,-3.64025 -1.55024,2.00457 -0.21415,-4.36779 -2.48861,-1.17898 -0.11789,1.78253 -0.0429,4.04445 -0.70571,0.956351 -0.44407,-0.540606 0.764,-1.79741 0.0273,-1.99318 z M 17.8827,8.267 c -1.8316,0.610549 -1.73323,3.08497 0.518956,3.35025 C 19.17309,10.738054 18.70815,8.43349 17.8827,8.267 Z m -7.1484,0.7914 c -2.37908,0.563598 -1.40799,2.48163 -0.679572,3.02182 -2.94492,0.737557 4.49569,0.942657 0.79268,1.40979 -3.08079,1.23022 2.96666,2.67961 3.95877,1.22095 3.80439,0.930273 0.136908,-3.04503 -0.197041,-5.19995 -1.61275,-1.73062 -0.06365,3.98955 -1.52187,0.184316 -0.508787,1.12998 -2.12653,0.166515 -2.35297,-0.636935 z m 75.6011,0.2487 c -3.19244,1.24924 1.98418,5.96347 0.69765,1.67466 C 86.90488,10.463892 87.32124,9.09559 86.3354,9.3071 Z m -66.6656,1.8993 c -2.29408,2.15564 2.91599,3.93824 -0.658894,5.54415 -0.53602,-2.00194 -1.45828,1.00161 -3.50347,-0.615111 -3.5159,1.46374 -5.31387,-0.762449 -8.25753,-2.28843 -1.76803,-0.220055 -1.10378,1.6797 -1.22088,3.45847 0,4.91586 0,9.83173 0,14.7476 1.73349,1.82357 0.676329,0.804576 0,0.301602 0.951467,3.24003 -0.419572,7.97627 3.33085,9.86093 0.637563,1.18245 3.31288,6.21999 3.43622,4.7127 -1.34121,-1.40437 -2.71735,-5.6146 -0.447896,-1.8621 2.03276,3.56702 4.77475,5.88058 8.78047,6.72942 2.19006,0.744855 3.99117,3.30532 5.91712,2.74196 1.08905,2.87054 -3.22741,5.62709 0.14491,8.30447 1.76052,2.71045 4.71618,4.48817 3.11596,8.29345 -1.11907,3.71641 -0.63993,7.76588 -1.60779,11.2285 -0.30039,2.10768 2.93804,7.4573 2.65747,3.17353 0.94557,-2.97692 0.92064,-6.25251 3.14759,-8.36068 3.04711,0.02412 0.58237,-3.27611 3.607,-2.84499 1.84565,-2.41887 2.38023,-5.30449 5.49491,-6.26498 0.37205,-2.93614 5.17882,-7.4329 0.21314,-8.57606 -1.34961,-0.665119 -4.8245,-0.904282 -4.55894,-1.23246 0.53803,-2.91343 -4.49347,-3.74284 -6.63424,-4.93482 -2.81075,-1.99486 -7.03423,3.31395 -8.02451,-1.2604 -0.59088,-1.43923 -2.75133,-1.46257 -1.75843,-3.68338 -1.78939,1.77944 -5.28934,1.23862 -4.37303,-2.19782 1.39157,-2.89416 6.73564,-3.03109 7.64626,0.450058 -1.26435,-3.83929 2.44394,-6.82804 4.50253,-9.55947 0.41916,-1.30555 2.90974,-2.42722 2.05268,-0.692077 1.46015,-0.05266 3.67328,-2.6873 1.07941,-1.47128 -0.0367,-2.4027 -2.27298,-1.71942 -2.998,-1.37825 1.34377,-2.13251 8.24498,-0.966646 5.35509,-4.45237 -2.2393,-0.907229 -2.05302,-6.20137 -4.318,-3.25198 0.1906,-1.81724 -4.61001,-5.37447 -4.50525,-2.32716 0.58599,2.72677 0.10714,5.86795 -1.13992,7.65531 -0.26025,-3.99563 -7.07569,-3.11254 -6.19943,-7.37033 1.26945,-2.02928 2.75285,-4.83551 2.89418,-4.58306 2.27505,-0.868509 4.10459,-3.39482 1.46783,-5.05561 -0.14092,1.44748 -1.98303,4.43394 -1.72366,0.821917 -1.70579,2.02218 -1.3162,-3.21781 -2.91375,-3.76125 z m 54.45,1.4018 c -3.99594,0.977352 -5.58007,4.79345 -7.55681,7.95421 -2.91386,1.31358 -2.80294,6.95486 0.45241,5.15311 0.87128,1.52152 -0.60951,3.91972 1.92831,1.93026 2.047,-2.70856 0.35794,-7.08923 3.84142,-8.79714 0.25374,1.32799 -3.21334,6.28675 0.83699,5.47169 3.66156,0.13814 -2.66185,0.364788 -0.88099,2.70339 -1.85027,-1.09766 -0.88884,2.99784 -3.30399,2.04477 -2.09232,1.13797 -3.46433,-0.528366 -2.98503,-2.35379 -1.64596,0.960095 0.5177,3.66863 -2.33958,3.83141 -0.64005,2.27253 -5.90338,1.93 -2.9102,4.24405 1.3289,3.44365 -4.95154,0.215879 -3.16854,4.34837 1.52545,4.08641 4.7224,-1.35405 6.01943,-2.40515 2.50248,-1.94091 6.21066,3.30944 3.95877,3.50459 2.52508,-0.338743 2.00619,-2.73989 -0.0169,-3.66948 -1.09268,-2.83352 3.45903,1.38963 3.2066,2.81029 1.60595,3.00685 0.94462,-3.07856 2.57885,-0.384373 -0.1908,2.84197 6.57418,0.668223 3.34439,4.29028 -2.77688,0.559235 -5.51013,-0.715787 -7.90083,0.100876 -2.22511,-0.01969 -2.11347,-2.39677 -2.92358,-2.99206 -2.83037,0.229926 -6.32794,0.203926 -8.22277,2.49017 -2.04902,2.81095 -5.00383,6.74045 -2.77053,10.3297 2.23487,5.31882 7.77718,0.27589 10.963,3.41707 0.94693,1.30973 -0.8206,2.86661 1.2967,4.28529 0.79672,3.02204 -0.90448,5.8914 1.05227,8.78028 1.01184,2.71684 1.63978,6.78326 5.40576,4.30066 3.98577,-2.39826 2.92416,-6.8193 6.21294,-9.26804 -2.60227,-5.03556 3.18363,-7.2435 4.62722,-11.3315 -3.15395,0.461678 -5.96377,-2.68243 -6.72579,-5.84703 -1.32494,-1.53712 -0.98368,-3.80361 0.49633,-0.916013 2.03426,1.97093 2.07821,7.81918 5.84127,4.81063 1.72035,-0.719477 6.4186,-3.464 2.67511,-4.71298 -2.41304,1.74753 -5.07525,-5.22167 -1.53182,-1.17938 2.57602,1.09276 4.37996,1.74384 4.37996,-1.87922 0,-9.76127 0,-19.6548 0,-29.4822 -0.8024,0.819872 -2.8638,2.33408 -3.90428,1.32791 -1.79037,0.249281 -4.15389,3.73243 -3.59125,0.365356 -1.55624,-0.103042 -0.27858,3.01903 -2.41664,3.10635 -0.21529,1.60509 -2.15987,0.29723 -1.42943,1.82146 -1.50065,-1.06435 -2.77067,-4.42484 0.18614,-2.31558 4.39103,-1.31719 -2.8956,-4.28827 -3.45804,-5.00642 0.94545,-0.226501 -1.02861,-1.21165 -1.26681,-0.881801 z M 37.8801,13.49 c -1.4615,1.2176 2.77854,1.44689 0,0 z m -19.5224,0.6557 c -1.63465,1.70965 2.60328,1.57167 0,0 z m 9.4784,1.6958 c -1.23786,2.02757 1.82903,0.748571 0,0 z m 27.1006,2.3967 c -1.44923,1.66825 -3.36205,-0.439045 -3.39323,0.994852 0.26265,0.433258 1.31467,3.52554 3.61945,1.24357 1.23698,-0.521451 0.74995,-1.83597 -0.22622,-2.23842 z m -30.8558,0.9949 c -2.74881,2.40029 4.6683,2.62144 0.58232,0.275289 l -0.5823,-0.2753 z m 36.2623,6.6474 c -1.97909,1.2904 0.94943,4.0308 -0.0431,5.31808 -1.2401,2.16039 4.60832,-0.152179 1.48461,-1.87583 -0.22257,-1.48088 -1.83002,-3.28772 -1.44154,-3.44225 z m -1.3347,2.6002 c -2.75739,0.779471 -0.62595,4.80385 0.35067,1.01349 0.0549,-0.219748 0.12936,-1.02084 -0.35067,-1.01349 z m -22.0786,2.9167 c -2.56522,1.74896 -0.39843,3.49471 1.48156,2.70778 -0.38596,-1.05524 -1.46417,-1.7201 -1.48156,-2.70777 z m 48.4553,2.9393 c 1.27995,0.645878 -2.34554,1.74921 -0.0498,2.88592 1.33598,1.57089 0.83231,4.943 -1.3392,2.55637 0.40344,-2.66467 -2.94356,-4.65466 1.38903,-5.4423 z m -6.5829,0.0226 c -0.17366,1.71194 3.69395,4.37297 -0.47504,3.50459 -2.20475,0.258597 -5.50697,-0.06736 -2.72943,-2.81428 0.87765,-0.526822 3.18206,1.8176 1.98292,-0.373765 0.42513,-0.02712 0.82107,-0.18758 1.22155,-0.316545 z m -12.7359,3.7081 c -1.60811,1.0359 1.11199,1.83021 0,0 z M 25.687,47.722 c -0.27111,0.904354 5.08598,1.82085 1.38929,0.371963 l -0.5511,-0.1939 -0.8382,-0.178 z m 4.1623,1.2888 c -1.62491,1.64939 3.34782,0.492772 0,0 z m 54.3369,15.1263 c -3.53072,0.09109 -3.06133,9.19702 -0.60013,3.80894 0.2334,-1.16922 1.1689,-2.71242 0.60013,-3.80894 z"/>
</g>
<g style="opacity:.2" id="g3168" transform="matrix(1.6811656,0,0,1.6868416,7.1013166,7.0246688)">
<path style="stroke:#003bc3;stroke-width:0;stroke-miterlimit:2" id="path3170" d="M 8.44613,0.00337054 C 8.35527,0.0126868 8.25702,0.0375765 8.18871,0.105664 c 0,0 -3.1588,3.137316 -3.1588,3.137316 -0.13269,0.13213 -0.14888,0.33445 -0.05148,0.49439 0,0 3.69093,6.05297 3.69093,6.05297 -0.65538,1.09426 -1.1876,2.26806 -1.56227,3.51246 0,0 -6.780918,1.3981 -6.780918,1.3981 C 0.137473,14.7397 0,14.918 0,15.1101 c 0,0 0,4.4331 0,4.4331 0,0.1875 0.143515,0.3479 0.326172,0.3922 0,0 6.574938,1.5857 6.574938,1.5857 0.35161,1.4407 0.89474,2.8194 1.61372,4.075 0,0 -3.81108,5.7631 -3.81108,5.7631 -0.1063,0.161 -0.08557,0.3757 0.05147,0.5117 0,0 3.15876,3.1372 3.15876,3.1372 0.13308,0.1317 0.33715,0.1483 0.49783,0.0511 0,0 5.97409,-3.5976 5.97409,-3.5976 1.1718,0.6718 2.4403,1.2102 3.7767,1.5687 0,0 1.3907,6.6497 1.3907,6.6497 0.0388,0.1877 0.2015,0.324 0.3947,0.324 0,0 4.4633,0 4.4633,0 0.1875,0 0.3504,-0.1252 0.3949,-0.3074 0,0 1.648,-6.6835 1.648,-6.6835 1.3784,-0.3692 2.6779,-0.9171 3.8799,-1.6198 0,0 5.8882,3.8364 5.8882,3.8364 0.1623,0.105 0.3773,0.0847 0.515,-0.0511 0,0 3.1416,-3.1374 3.1416,-3.1374 0.1334,-0.1323 0.1663,-0.3348 0.0685,-0.4944 0,0 -2.1458,-3.5125 -2.1458,-3.5125 0,0 -0.9181,0.2073 -0.9785,0.1194 0,0 -1.3555,-1.9804 -3.1245,-4.5524 -2.1154,4.1115 -6.4298,6.9225 -11.3988,6.9225 -7.0609,0 -12.7893,-5.6896 -12.7893,-12.7026 0,-5.1586 3.1058,-9.58935 7.5534,-11.57732 0,0 0,-3.27373 0,-3.27373 -0.8093,0.28139 -1.5914,0.6209 -2.3346,1.02304 -0.0015,-8.5e-4 0.0013,-0.01627 0,-0.01702 0,0 -6.02562,-3.9216758 -6.02562,-3.9216758 C 8.62261,0.00188736 8.53699,-0.0059457 8.44613,0.00337054 c 0,0 0,0 0,0 z" transform="translate(4.00394,4.00394)"/>
</g>
<g style="fill:#f2f2f2" id="layer1-6" transform="matrix(1.6527837,0,0,1.6414306,8.350345,7.2064918)">
<path style="stroke:#003bc3;stroke-width:0;stroke-miterlimit:2" id="gear_path" d="M 8.44613,0.00337054 C 8.35527,0.0126868 8.25702,0.0375765 8.18871,0.105664 c 0,0 -3.1588,3.137316 -3.1588,3.137316 -0.13269,0.13213 -0.14888,0.33445 -0.05148,0.49439 0,0 3.69093,6.05297 3.69093,6.05297 -0.65538,1.09426 -1.1876,2.26806 -1.56227,3.51246 0,0 -6.780918,1.3981 -6.780918,1.3981 C 0.137473,14.7397 0,14.918 0,15.1101 c 0,0 0,4.4331 0,4.4331 0,0.1875 0.143515,0.3479 0.326172,0.3922 0,0 6.574938,1.5857 6.574938,1.5857 0.35161,1.4407 0.89474,2.8194 1.61372,4.075 0,0 -3.81108,5.7631 -3.81108,5.7631 -0.1063,0.161 -0.08557,0.3757 0.05147,0.5117 0,0 3.15876,3.1372 3.15876,3.1372 0.13308,0.1317 0.33715,0.1483 0.49783,0.0511 0,0 5.97409,-3.5976 5.97409,-3.5976 1.1718,0.6718 2.4403,1.2102 3.7767,1.5687 0,0 1.3907,6.6497 1.3907,6.6497 0.0388,0.1877 0.2015,0.324 0.3947,0.324 0,0 4.4633,0 4.4633,0 0.1875,0 0.3504,-0.1252 0.3949,-0.3074 0,0 1.648,-6.6835 1.648,-6.6835 1.3784,-0.3692 2.6779,-0.9171 3.8799,-1.6198 0,0 5.8882,3.8364 5.8882,3.8364 0.1623,0.105 0.3773,0.0847 0.515,-0.0511 0,0 3.1416,-3.1374 3.1416,-3.1374 0.1334,-0.1323 0.1663,-0.3348 0.0685,-0.4944 0,0 -2.1458,-3.5125 -2.1458,-3.5125 0,0 -0.9181,0.2073 -0.9785,0.1194 0,0 -1.3555,-1.9804 -3.1245,-4.5524 -2.1154,4.1115 -6.4298,6.9225 -11.3988,6.9225 -7.0609,0 -12.7893,-5.6896 -12.7893,-12.7026 0,-5.1586 3.1058,-9.58935 7.5534,-11.57732 0,0 0,-3.27373 0,-3.27373 -0.8093,0.28139 -1.5914,0.6209 -2.3346,1.02304 -0.0015,-8.5e-4 0.0013,-0.01627 0,-0.01702 0,0 -6.02562,-3.9216758 -6.02562,-3.9216758 C 8.62261,0.00188736 8.53699,-0.0059457 8.44613,0.00337054 c 0,0 0,0 0,0 z" transform="translate(4.00394,4.00394)"/>
</g>
<g style="stroke:none" id="g134">
<path style="opacity:.2" id="path3172" d="m 38.12,21.8629 a 10.4549,11.0982 0 1,1 -20.9097,0 10.4549,11.0982 0 1,1 20.9097,0 z " transform="matrix(1.7199617,0,0,1.5646068,3.8647717,9.4257549)"/>
<path style="fill:#f2f2f2" id="path2985" d="m 38.12,21.8629 a 10.4549,11.0982 0 1,1 -20.9097,0 10.4549,11.0982 0 1,1 20.9097,0 z " transform="matrix(1.6909248,0,0,1.5224864,5.1684404,9.5429389)"/>
<g id="g3166" transform="matrix(1.8111321,0.5533621,-0.81705694,1.4402864,-10.63883,-100.12198)">
<path style="opacity:.3" id="path2867" d="m 68.7954,74.9412 2.5177,-5.7082 .1247,-2.7829 4.3205,-14.2722 .5747,-.013 -1.9928,10.3167 .1672,4.6531 -4.6534,9.1098 -1.0586,-1.3033 z "/>
<path style="opacity:.3" id="path3876" d="m 64.0092,63.5706 1.2467,-2.1084 -3.5514,-9.6991 -.5287,.1466 2.8335,11.6609 z "/>
<path style="fill:#ccc" id="path2865" d="m 68.7953,74.9433 c 0,0 -2.15238,0.772877 -3.28375,0.621044 -1.13138,-0.151831 -2.57048,-1.09372 -2.57048,-1.09372 l -.6473,-5.8605 -1.0181,-3.6846 -1.362,-12.738 1.2789,-.2214 3.2775,10.6069 4.5496,.4203 5.5443,-11.2739 1.226,.4751 -4.3736,14.2392 -.0495,2.6842"/>
<g style="fill:#e74c3c" id="g142">
<path id="path7549" d="m 67.6094,69.3166 2.1301,-.4968 .7672,-1.7489 -2.0668,.8053 -.8305,1.4404 z "/>
<path id="path7557" d="m 64.3352,68.9245 -.5508,-1.308 -1.5564,-1.1184 .7778,1.7099 1.3293,.7165 z "/>
</g>
</g>
<g style="fill:#f2f2f2" id="g146">
<g id="g3182" transform="matrix(1.2893588,0.70129121,-0.72788353,1.0808175,36.647744,-65.798905)">
<path style="opacity:.3;fill:#000" id="path2818" d="m 49.2591,74.1732 c -1.43752,10.1391 5.2803,23.5949 7.65239,16.1574 -2.02797,0.329988 -2.74824,-0.368591 -3.17441,-1.00462 -2.07078,-1.96358 -2.47403,-8.77218 -2.75738,-14.5973 z "/>
<path style="fill:#ccc" id="path3693" d="m 50.8805,73.1839 c 0,0 -0.860915,0.179685 -1.20722,0.122447 -0.346305,-0.05724 -0.961596,-0.346107 -0.961596,-0.346107 0,0 -2.84618,13.1811 2.24499,19.2472 0.987415,0.141217 3.30275,0.190164 4.69546,0.296363 -4.91969,-1.15389 -5.87415,-10.1194 -4.77163,-19.3199 z "/>
</g>
<g id="g3186" transform="matrix(0.89320403,0.59938906,0.53141122,-0.70412117,-24.290538,50.761274)">
<path style="opacity:.3;fill:#000" id="path3188" d="m 49.2591,74.1732 c -1.43752,10.1391 5.2803,23.5949 7.65239,16.1574 -2.02797,0.329988 -2.74824,-0.368591 -3.17441,-1.00462 -2.07078,-1.96358 -2.47403,-8.77218 -2.75738,-14.5973 z "/>
<path style="fill:#ccc" id="path3190" d="m 50.8805,73.1839 c 0,0 -0.860915,0.179685 -1.20722,0.122447 -0.346305,-0.05724 -0.961596,-0.346107 -0.961596,-0.346107 0,0 -2.84618,13.1811 2.24499,19.2472 0.987415,0.141217 3.30275,0.190164 4.69546,0.296363 -4.91969,-1.15389 -5.87415,-10.1194 -4.77163,-19.3199 z "/>
</g>
</g>
<rect width="7.8517962" x="100.84076" y="52.750484" rx="0" height="1.3855029" ry=".6928" style="opacity:.3" id="rect3192" transform="matrix(0.95477654,0.29732432,-0.95260256,0.30421763,0,0)"/>
</g>
</svg>
