<svg width="48" version="1.1" xmlns="http://www.w3.org/2000/svg" height="48">
<path style="fill:#203040" id="rect4090" d="M 3,3 V 45 H 45 V 3 Z"/>
<path style="fill:#e6e6e6" id="rect813" d="M 21,21 H 42 V 42 H 21 Z"/>
<path style="fill:#f00" id="rect3773" d="m 23,23 h 8 v 8 h -8 z"/>
<path style="fill:#51ff00" id="rect3775" d="m 32,23 h 8 v 8 h -8 z"/>
<path style="fill:#53a8ff" id="rect3777" d="m 23,32 h 8 v 8 h -8 z"/>
<path style="fill:#fffd00" id="rect3779" d="m 32,32 h 8 v 8 h -8 z"/>
<path style="fill:#e6e6e6;color:#4d4d4d" id="path9" d="m 20.9086,8.2966 c -1.10774,-1.42456 -1.04955,-1.816 -2.421,-0.70015 l -1.1064,.9001 c -0.800898,-0.511853 -1.78843,-0.837126 -2.74441,-0.962319 l -.3237,-1.3299 c -0.444864,-1.82749 -0.982605,-1.14483 -2.50761,-0.716517 -1.7009,0.471649 -2.3005,0.158707 -1.85678,1.88842 l .3271,1.275 c -0.115804,0.102908 -0.276595,0.225046 -0.392401,0.327953 -0.482364,0.366414 -0.862346,0.849238 -1.19735,1.31282 l -1.2828,-.3325 c -1.73234,-0.449078 -1.46726,0.29289 -1.90461,1.7754 -0.536072,1.74332 -1.02947,2 0.725007,2.46644 l 1.3469,.3585 c 0.030535,0.57426 0.170167,1.15528 0.41889,1.74303 l -1.1064,.9001 c -1.42144,1.15653 -0.814857,1.25505 0.208246,2.50051 1.10774,1.42457 1.04955,1.816 2.421,0.700152 l 1.1064,-.9001 c 0.800898,0.511853 1.78843,0.837129 2.74442,0.962319 l .3237,1.3299 c 0.444863,1.82749 0.982607,1.14483 2.50761,0.716518 1.7009,-0.471651 2.30051,-0.158689 1.85678,-1.88844 l -.3271,-1.275 c 0.115804,-0.102907 0.276593,-0.225046 0.3924,-0.327951 0.482365,-0.366415 0.862349,-0.849238 1.19735,-1.31283 l 1.2828,.3325 c 1.66126,0.667348 1.46725,-0.292888 1.90461,-1.7754 0.536072,-1.74332 1.02947,-2 -0.725008,-2.46644 l -1.3469,-.3585 c -0.03054,-0.574264 -0.170168,-1.15528 -0.418891,-1.74305 l 1.1064,-.9001 c 1.42144,-1.15653 0.814858,-1.25506 -0.208246,-2.50051 Z  m -5.428,7.6334 c -1.10638,0.90018 -2.7619,0.753719 -3.70243,-0.339145 -0.940526,-1.09287 -0.749843,-2.77618 0.337402,-3.72157 1.10638,-0.90018 2.76189,-0.753721 3.70243,0.339147 0.895549,1.1121 0.749847,2.77618 -0.337399,3.72157 z "/>
</svg>
