<svg width="96" version="1.0" xmlns="http://www.w3.org/2000/svg" height="96">
<g style="stroke:none">
<g style="fill:#fff">
<path style="opacity:.65" id="path4152" d="m 7.5193,3.2144 c -2.54478,0 -4.519,2.28524 -4.519,4.51924 v 73.8366 c 0,2.43 2.21994,5.12025 4.81904,5.12025 h 16.7691 c 1.7595,0 2.18754,0.127994 2.18754,1.8875 v 1.52451 c 0,2.39775 1.97577,4.4875 5.08723,4.4875 h 32.2747 c 3.01354,0 5.08827,-2.08976 5.08827,-4.4875 v -1.52451 c 0,-1.7595 0.427964,-1.8875 2.18746,-1.8875 h 16.7662 c 3.271,0 4.81996,-2.69025 4.81996,-5.12025 v -73.8366 c 0,-2.234 -2.14706,-4.51924 -4.51996,-4.51924 z "/>
<path id="path3215-2" d="m 85.8888,77.779 0,-67.7719 -75.9373,0 0,67.7719 z"/>
</g>
<g style="fill:#505050">
<path id="path3174-8" d="m 9.2639,5.9998 c -1.88391,0 -3.3125,1.42938 -3.3125,3.3125 v 70.8752 c 0,1.88312 1.42859,3.3125 3.3125,3.3125 h 77.3749 c 1.88391,0 3.3125,-1.42938 3.3125,-3.3125 v -70.8752 c 0,-1.88312 -1.42859,-3.3125 -3.3125,-3.3125 z  m 2.6875,6 71.9998,0 0,65.5002 -71.9999,0 z "/>
<path id="rect3535-0" d="m 32.9513,79.5001 c -1.662,0 -3,1.338 -3,3 h -3 v 1 c 1.656,0 3,1.34395 3,2.99995 v 2 c 0,1.662 1.338,3 3,3 h 30 c 1.662,0 3,-1.338 3,-3 v -2 c 0,-1.656 1.344,-2.99995 3,-2.99995 v -1 h -3 c 0,-1.662 -1.338,-3 -3,-3 z "/>
</g>
<rect width="10" x="52.626648" y="83.334" rx="2" ry="2" height="4" style="fill:#7fff2a" id="rect3485-8"/>
<path style="fill:#7c7c7c" id="path4155-9" d="m 27.8624,23.9444 c 0.0068,0.669058 -2.70763,1.22223 -6.0529,1.22223 h -0.698414 c -3.34528,0 -6.1111,2.76582 -6.1111,6.1111 v 26.6958 c 0,3.34528 2.76583,6.0529 6.1111,6.0529 h 53.836 c 3.34528,0 6.0529,-2.70763 6.0529,-6.0529 v -26.6958 c 0,-3.34528 -2.70762,-6.1111 -6.0529,-6.1111 h -27.4126 c -3.34528,0 -6.0529,-0.553165 -6.0529,-1.22223 0,-0.669058 -2.68805,-1.38871 -6.1111,-1.22222 -2.52244,0.122692 -5.88909,0.03452 -7.50805,1.22222 z "/>
<path style="fill:#2de1ff" id="path4153-9" d="m 22.6244,29.0687 c 2.09963,0 3.78308,1.74165 3.78308,3.84127 0,2.099 -1.68345,3.78308 -3.78308,3.78308 -2.09963,0 -3.78308,-1.68345 -3.78308,-3.78308 0,-2.09963 1.68345,-3.84127 3.78308,-3.84127 z"/>
<path style="fill:#fff" id="path4151-3" d="m 63.6562,29.4179 12.8043,0 c 0.669058,0 1.22223,0.553165 1.22223,1.22222 v 2.09525 c 0,0.669052 -0.553167,1.22223 -1.22223,1.22223 h -12.8042 c -0.669057,0 -1.22222,-0.553171 -1.22222,-1.22223 v -2.09522 c 0,-0.669056 0.553164,-1.22222 1.22222,-1.22222 z "/>
</g>
<path style="stroke:#e0e0e0;stroke-linejoin:round;stroke-linecap:round;stroke-width:6;stroke-dashoffset:4" id="path1977-2" d="m 58.1892,44.8799 c 0,5.54127 -4.56184,10.0334 -10.1891,10.0334 -5.62731,0 -10.1892,-4.49211 -10.1892,-10.0334 0,-5.54127 4.56184,-10.0334 10.1892,-10.0334 5.62731,0 10.1891,4.49211 10.1891,10.0334 z "/>
</svg>
