<svg width="96" version="1.0" xmlns="http://www.w3.org/2000/svg" height="96" xmlns:xlink="http://www.w3.org/1999/xlink">
<defs id="defs2410">
<linearGradient xlink:href="#linearGradient4328" id="linearGradient4420" y1="44.644066" x1="-75.29837" y2="33.874649" x2="-64.060669" gradientUnits="userSpaceOnUse"/>
<linearGradient gradientTransform="matrix(-1,0,0,1,432.57143,499.798)" id="linearGradient4389" xlink:href="#linearGradient4328" y1="23.850662" y2="7.8553915" x1="7.8311567" x2="23.87615" gradientUnits="userSpaceOnUse"/>
<linearGradient xlink:href="#linearGradient4300" id="linearGradient4440" y1="33.703506" x1="-100.76391" y2="44.580978" x2="-85.752739" gradientUnits="userSpaceOnUse"/>
<linearGradient xlink:href="#linearGradient4328" id="linearGradient4380" y1="39.497471" x1="-63.893131" y2="25.870348" x2="-77.236305" gradientUnits="userSpaceOnUse"/>
<linearGradient xlink:href="#linearGradient4316" id="linearGradient4430" y1="38.169483" x1="-62.053196" y2="44.623341" x2="-88.089203" gradientUnits="userSpaceOnUse"/>
<linearGradient xlink:href="#linearGradient4288" id="linearGradient4400" y1="33.545033" x1="-100.74815" y2="25.409439" x2="-77.599037" gradientUnits="userSpaceOnUse"/>
<linearGradient id="linearGradient4300">
<stop offset="0" style="stop-color:#e51561" id="stop4302"/>
<stop offset="0.31249884" style="stop-color:#e4156c" id="stop4304"/>
<stop offset="0.56249928" style="stop-color:#e71e2c" id="stop4306"/>
<stop offset="0.75" style="stop-color:#e8301e" id="stop4308"/>
<stop offset="1" style="stop-color:#e6320e" id="stop4310"/>
</linearGradient>
<linearGradient id="linearGradient4316">
<stop offset="0" style="stop-color:#c1cc00" id="stop4318"/>
<stop offset="0.31249884" style="stop-color:#dfcd00" id="stop4320"/>
<stop offset="0.56249928" style="stop-color:#f0cc00" id="stop4322"/>
<stop offset="0.75" style="stop-color:#fd8c08" id="stop4324"/>
<stop offset="1" style="stop-color:#f25c13" id="stop4326"/>
</linearGradient>
<linearGradient gradientTransform="rotate(180,216.28572,273.899)" id="linearGradient4487" xlink:href="#linearGradient4316" y1="23.656355" y2="8" x1="8.2967587" x2="24" gradientUnits="userSpaceOnUse"/>
<linearGradient gradientTransform="matrix(1,0,0,-1,384.57143,547.798)" id="linearGradient4278" xlink:href="#linearGradient4300" y1="23.98805" y2="8" x1="7.9665527" x2="24" gradientUnits="userSpaceOnUse"/>
<linearGradient id="linearGradient4328">
<stop offset="0" style="stop-color:#bec900" id="stop4330"/>
<stop offset="0.31249884" style="stop-color:#9ec80a" id="stop4332"/>
<stop offset="0.56249928" style="stop-color:#71b93d" id="stop4334"/>
<stop offset="0.75" style="stop-color:#35a48f" id="stop4336"/>
<stop offset="1" style="stop-color:#018fca" id="stop4338"/>
</linearGradient>
<linearGradient id="linearGradient4288">
<stop offset="0" style="stop-color:#e81877" id="stop4290"/>
<stop offset="0.31249884" style="stop-color:#dd1d8c" id="stop4294-9"/>
<stop offset="0.56249928" style="stop-color:#6d57b1" id="stop4296"/>
<stop offset="0.75" style="stop-color:#2a78c1" id="stop4298"/>
<stop offset="1" style="stop-color:#018dcb" id="stop4292-2"/>
</linearGradient>
<linearGradient xlink:href="#linearGradient4316" id="linearGradient4410" y1="44.619068" x1="-76.856186" y2="39.707783" x2="-104.47886" gradientUnits="userSpaceOnUse"/>
</defs>
<path style="opacity:.65;fill:#fff"  d="m 8.567,4.2142 c -2.54478,0 -4.519,2.28524 -4.519,4.51924 v 68.3368 c -1.3e-6,2.43 2.21994,5.12025 4.81904,5.12025 h 15.7693 c 1.7595,0 2.18754,0.127994 2.18754,1.8875 v 1.52451 c 0,2.39775 1.97577,4.4875 5.08723,4.4875 h 32.2747 c 3.01354,0 5.08827,-2.08976 5.08827,-4.4875 v -1.52451 c 0,-1.7595 0.427964,-1.8875 2.18746,-1.8875 h 15.7667 c 3.271,0 4.81996,-2.69025 4.81996,-5.12025 V 8.73344 c 0,-2.234 -2.14706,-4.51924 -4.51996,-4.51924 z"/>
<g transform="matrix(2.4592112,0,0,3.7030209,251.03329,-91.149937)">
<path style="fill-rule:evenodd;stroke-linecap:round;stroke-width:3" d="m -97.077,27.864 h 29.0852 v 16.7797 h -29.0847 z"/>
<path style="fill:url(#linearGradient4400)" d="m -77.8024,27.8575 -19.2746,.0065 -.0101,6.1616 14.4822,1.3425 z "/>
<path style="fill:url(#linearGradient4440)" d="m -87.8766,44.581 -9.1594,.0766 -.0409,-11.5182 14.472,2.2288 z "/>
<path style="fill:url(#linearGradient4380)" d="m -77.8067,27.8643 h 9.815 l .0097,11.4696 -14.6229,-3.9659 z "/>
<path style="fill:url(#linearGradient4430)" d="m -88.1888,44.6318 20.197,.0122 .0447,-6.5347 -14.6579,-2.7412 z "/>
<path style="opacity:.35;fill:url(#linearGradient4278);clip-path:url(#clipPath4578-4)" d="m 408.5714,539.798 -16,-16 15.1436,-.8564 z " transform="matrix(0.9019431,0.52444705,-0.9019431,0.52444705,21.322845,-452.71197)"/>
<path style="opacity:.35;fill:url(#linearGradient4487);clip-path:url(#clipPath4562-1)" d="m 408.5714,539.798 15.6793,-15.6324 -16.5301,-.8641 z " transform="matrix(0.93279462,0.53327599,-0.93279462,0.53327599,25.208269,-461.12358)"/>
<path style="opacity:.35;fill:url(#linearGradient4389);clip-path:url(#clipPath4544-4)" d="m 408.6953,507.6534 16.0318,16.0318 -16.9967,-.7283 z " transform="matrix(0.89825324,0.52332346,-0.89825324,0.52332346,20.897675,-451.68235)"/>
<path style="opacity:.3;fill:url(#linearGradient4410)" d="m -97.0361,38.0796 v 6.578 l 20.0148,-.0766 -5.5837,-9.2128 z "/>
<path style="opacity:.3;fill:url(#linearGradient4420)" d="m -68.0268,33.6518 -.1897,10.0879 -9.1773,.9341 -5.2113,-9.3056 z "/>
</g>
<path d="M 10.312,7 C 8.42809,7 7,8.42938 7,10.3125 V 75.6877 C 7,77.57062 8.42809,79 10.312,79 h 75.3748 c 1.88391,0 3.3125,-1.42938 3.3125,-3.3125 V 10.3123 c 0,-1.88312 -1.42859,-3.3125 -3.3125,-3.3125 z m 2.6875,6 h 70 v 60 h -70 z"/>
<path d="m 33,75 c -1.662,0 -3,1.338 -3,3 h -3 v 1 c 1.656,0 3,1.344 3,3 v 2 c 0,1.662 1.338,3 3,3 h 30 c 1.662,0 3,-1.338 3,-3 v -2 c 0,-1.656 1.344,-3 3,-3 v -1 h -3 c 0,-1.662 -1.338,-3 -3,-3 z"/>
<path style="fill:#7f7f7f" d="m 13,73 h 70 v 1 H 13 Z"/>
<rect width="8.4910002" x="53.276001" y="80.837601" rx="1.6982" ry="1.6982" height="3.3964" style="fill:#7fff2a"/>
<g transform="translate(-69.152278,139.3344)">
<path style="opacity:.4;stroke-width:1.009" d="m 93.0791,-114.1682 h -0.710443 c -3.40289,0 -6.21635,2.76582 -6.21635,6.1111 v 26.6958 c 0,3.34528 3.21309,6.0529 6.61598,6.0529 h 49.8953 c 3.40289,0 6.55728,-3.10773 6.55728,-6.453 v -26.2957 c 0,-3.34528 -2.75425,-6.1111 -6.15714,-6.1111 h -23.8165 z "/>
<path style="fill:#fafafa" d="m 99.0147,-116.89 c 0.03568,1.48257 -2.70763,1.22223 -6.0529,1.22223 h -0.698414 c -3.34528,0 -6.1111,2.76582 -6.1111,6.1111 v 26.6958 c 0,3.34528 2.76583,6.0529 6.1111,6.0529 h 49.8367 c 3.34528,0 6.0529,-2.70763 6.0529,-6.0529 v -26.6958 c 0,-3.34528 -2.70762,-6.1111 -6.0529,-6.1111 h -23.4133 c -3.34528,0 -5.96228,0.15854 -6.0529,-1.22223 -0.036,-1.67579 -0.1935,-2.95472 -6.71159,-2.9224 -6.51809,0.0323 -6.93399,1.20133 -6.9076,2.9224 z "/>
<path style="fill:#48b400" d="m 93.9769,-111.7657 c 2.09963,0 3.78308,1.74165 3.78308,3.84127 0,2.099 -1.68345,3.78308 -3.78308,3.78308 -2.09963,0 -3.78308,-1.68345 -3.78308,-3.78308 0,-2.09963 1.68345,-3.84127 3.78308,-3.84127 z "/>
<path style="fill:#388c00" d="m 130.8087,-111.4165 h 12.8043 c 0.66906,0 1.22223,0.55316 1.22223,1.22222 v 2.09525 c 0,0.66905 -0.55317,1.22223 -1.22223,1.22223 h -12.8042 c -0.66906,0 -1.22222,-0.55317 -1.22222,-1.22223 v -2.09522 c 0,-0.66906 0.55317,-1.22222 1.22222,-1.22222 z "/>
<g style="mix-blend-mode:normal;font-family:sans-serif;text-decoration-style:solid;solid-color:#000000;font-variant-position:normal;white-space:normal;font-feature-settings:normal;text-transform:none;font-variant-numeric:normal;text-decoration-color:#000000;text-indent:0;text-orientation:mixed;shape-padding:0;vector-effect:none;text-align:start;color:#000;text-decoration-line:none;image-rendering:auto;font-variant-caps:normal;color-rendering:auto;isolation:auto;color-interpolation:sRGB;font-variant-alternates:normal;solid-opacity:1;text-rendering:auto;line-height:normal;font-variant-ligatures:normal;shape-rendering:auto" transform="translate(69.152492,-140.8344)">
<path style="fill:#aaa;color-interpolation-filters:linearRGB" d="m 48,31.5351 c -7.22392,0 -13.1895,5.91707 -13.1895,13.1905 0,7.27345 5.96563,13.1885 13.1895,13.1885 7.22385,0 13.1895,-5.91509 13.1895,-13.1885 0,-7.27341 -5.96563,-13.1905 -13.1895,-13.1905 z"/>
<path style="fill:#102f54;color-interpolation-filters:linearRGB" d="m 48,37.5351 c 4.0308,0 7.1895,3.20968 7.1895,7.1905 0,3.98077 -3.15877,7.1885 -7.1895,7.1885 -4.0308,0 -7.1895,-3.20772 -7.1895,-7.1885 0,-3.98077 3.15865,-7.1905 7.1895,-7.1905 z"/>
</g>
</g>
</svg>
