<svg width="96" version="1.0" xmlns="http://www.w3.org/2000/svg" height="96" xmlns:xlink="http://www.w3.org/1999/xlink">
<defs>
<linearGradient id="linearGradient854">
<stop offset="0" style="stop-color:#828282"/>
<stop offset="1" style="stop-color:#fff"/>
</linearGradient>
<linearGradient gradientTransform="matrix(0.53290106,0,0,0.53290106,12.806254,25.132005)" id="linearGradient864" xlink:href="#linearGradient854" y1="18.116" y2="62.704" x1="76.724098" gradientUnits="userSpaceOnUse" x2="76.24"/>
<linearGradient gradientTransform="matrix(0.98821181,0,0,1.5990368,0.56583439,-10.697232)" id="linearGradient873" xlink:href="#linearGradient854" y1="27.560459" y2="20.77672" x1="27.099058" gradientUnits="userSpaceOnUse" x2="27.098022"/>
<linearGradient gradientTransform="matrix(0.49640097,0,0,0.49640097,16.959056,24.668371)" id="linearGradient872" xlink:href="#linearGradient854" y1="165.14508" y2="4.959434" x1="1.3640177" gradientUnits="userSpaceOnUse" x2="0"/>
<linearGradient gradientTransform="matrix(0.53290106,0,0,0.53290106,12.806254,25.132005)" id="linearGradient856" xlink:href="#linearGradient854" y1="72.862" y2="8.231" x1="76.24" gradientUnits="userSpaceOnUse" x2="76.240501"/>
</defs>
<path style="opacity:.65;fill:#fff" d="m 7.5193,3.2144 c -2.54478,0 -4.519,2.28524 -4.519,4.51924 v 73.8366 c 0,2.43 2.21994,5.12025 4.81904,5.12025 h 16.7691 c 1.7595,0 2.18754,0.127994 2.18754,1.8875 v 1.52451 c 0,2.39775 1.97577,4.4875 5.08723,4.4875 h 32.2747 c 3.01354,0 5.08827,-2.08976 5.08827,-4.4875 v -1.52451 c 0,-1.7595 0.427964,-1.8875 2.18746,-1.8875 h 16.7662 c 3.271,0 4.81996,-2.69025 4.81996,-5.12025 V 7.73364 c 0,-2.234 -2.14706,-4.51924 -4.51996,-4.51924 z"/>
<path style="fill:#2874d2" d="M 85.8888,77.779 V 10.0071 H 9.9515 V 77.779 Z"/>
<g style="fill:#464646">
<path d="m 9.2639,6 c -1.88391,0 -3.3125,1.42938 -3.3125,3.3125 v 70.8752 c 0,1.88312 1.42859,3.3125 3.3125,3.3125 h 77.3749 c 1.88391,0 3.3125,-1.42938 3.3125,-3.3125 V 9.3123 c 0,-1.88312 -1.42859,-3.3125 -3.3125,-3.3125 z m 2.6875,6 H 83.9512 V 77.5 H 11.9513 Z"/>
<path d="m 32.9513,79.5001 c -1.662,0 -3,1.338 -3,3 h -3 v 1 c 1.656,0 3,1.34395 3,3 v 2 c 0,1.662 1.338,3 3,3 h 30 c 1.662,0 3,-1.338 3,-3 v -2 c 0,-1.656 1.344,-3 3,-3 v -1 h -3 c 0,-1.662 -1.338,-3 -3,-3 z"/>
</g>
<rect width="10" x="52.626648" y="83.334" rx="2" height="4" style="fill:#7fff2a"/>
<path style="opacity:.4;color-interpolation-filters:linearRGB;stroke-width:1.422" d="m 27.3472,21.7279 c -3.10178,0 -5.64637,1.36082 -6.09166,3.13055 h -1.275 c -1.95638,0 -3.9806,2.02093 -3.98055,3.97777 v 35.3277 c 3.7e-05,1.95683 1.87974,3.83611 3.83611,3.83611 h 56.3278 c 1.95683,0 3.83611,-1.87927 3.83611,-3.83611 v -37.6084 c 0,-1.95638 -1.87924,-3.83611 -3.83611,-3.83611 h -26.1583 c -1.40728,0 -2.59058,0.876623 -3.15555,2.13889 h -13.4111 c -0.445207,-1.76974 -2.98878,-3.13055 -6.09166,-3.13055 z "/>
<path style="fill:url(#linearGradient873);stroke-width:.631" d="m 27.3085,28.5918 c -2.81509,0 -5.09754,-1.35666 -5.09754,-3.02899 0,-1.67313 2.28245,-3.02899 5.09754,-3.02899 2.81608,0 5.09804,1.35586 5.09804,3.02899 0,1.67314 -2.28245,3.02899 -5.09804,3.02899 z "/>
<path style="fill:url(#linearGradient872);stroke-width:.988" d="m 75.737,23.8534 h -25.4481 c -1.36212,0 -2.49937,0.90345 -2.8821,2.13899 h -27.1442 c -1.67486,0 -3.03152,1.35766 -3.03152,3.03202 v 34.714 c 0,1.67486 1.35716,3.03152 3.03152,3.03152 h 55.4743 c 1.67535,0 3.03202,-1.35667 3.03202,-3.03152 v -36.853 c 0,-1.67387 -1.35667,-3.03201 -3.03202,-3.03201 z "/>
<g style="fill:#48b400">
<path style="stroke-width:.496" d="m 75.5731,32.1049 c 0,0.252171 -0.188632,0.457186 -0.421941,0.457186 h -5.90668 c -0.233308,0 -0.421941,-0.205015 -0.421941,-0.457186 v -4.03822 c 0,-0.252668 0.188633,-0.457185 0.421941,-0.457185 h 5.90668 c 0.233309,0 0.421941,0.204517 0.421941,0.457185 z "/>
<path style="stroke-width:.514" d="m 65.6739,28.4023 c -0.830976,0 -1.50658,0.676474 -1.50658,1.50759 0,0.831644 0.675601,1.50705 1.50658,1.50705 0.831968,0 1.50807,-0.675412 1.50807,-1.50705 0,-0.831113 -0.676099,-1.50759 -1.50807,-1.50759 z "/>
</g>
<g transform="matrix(1.0119269,0,0,1.0119269,-0.57254594,-0.72315417)">
<path style="fill:url(#linearGradient856);stroke-width:1.061" d="m 36.1415,46.6671 c 0,9.5352 7.75797,17.2932 17.2932,17.2932 9.5352,0 17.2932,-7.75797 17.2932,-17.2932 0,-9.53626 -7.75797,-17.2943 -17.2932,-17.2943 -9.5352,0 -17.2932,7.75797 -17.2932,17.2943 z "/>
<g style="stroke-width:.533">
<path style="fill:url(#linearGradient864)" d="m 65.3156,46.6671 c 0,6.56162 -5.31889,11.88 -11.8811,11.88 -6.56162,0 -11.8811,-5.31835 -11.8811,-11.88 0,-6.56267 5.31941,-11.8811 11.8811,-11.8811 6.56214,0 11.8811,5.31835 11.8811,11.8811 z "/>
<path style="fill:#282828" d="m 60.6762,46.6671 c 0,4 -3.24057,7.24052 -7.24159,7.24052 -4,0 -7.24159,-3.2411 -7.24159,-7.24052 0,-4 3.24164,-7.24265 7.24159,-7.24265 4.00102,0 7.24159,3.24217 7.24159,7.24265 z "/>
<path style="fill:#2162af" d="m 57.6829,46.6666 c 0,2.3469 -1.90192,4.24828 -4.24882,4.24828 -2.34477,0 -4.24882,-1.90139 -4.24882,-4.24828 0,-2.34637 1.90352,-4.24882 4.24882,-4.24882 2.3469,0 4.24882,1.90246 4.24882,4.24882 z "/>
</g>
</g>
</svg>
