<svg width="48" version="1.1" xmlns="http://www.w3.org/2000/svg" height="48" xmlns:xlink="http://www.w3.org/1999/xlink">
<defs id="defs3">
<linearGradient gradientTransform="matrix(1.1574439,0,0,1.1574439,2.3112702,-1.8072332)" xlink:href="#linearGradient7658" id="linearGradient4041" y1="32.700195" x1="3.8106468" y2="32.162891" gradientUnits="userSpaceOnUse" x2="3.8106468"/>
<linearGradient id="linearGradient7658">
<stop offset="0" style="stop-color:#b4bbad" id="stop7660"/>
<stop offset="1" style="stop-color:#e8e8e4" id="stop7662"/>
</linearGradient>
</defs>
<g style="color:#000">
<path style="fill:#888a85" id="path4174" d="M 5.2,12.923 3.3,35.5866 v 7.9165 c 0,1.6895 1.65821,3.7679 3.34771,3.7679 h 34.6899 c 2.05227,0 3.3817,-1.98642 3.36244,-3.7679 V 35.7133 L 42.8,12.923 Z"/>
<path style="fill:url(#linearGradient4041)" id="path4167" d="M 6.3,14.023 4.4,35.9368 v 7.1662 c 0,1.6895 1.25792,3.068 2.94742,3.068 h 33.2897 c 2.05227,0 2.96297,-1.28642 2.96288,-3.068 V 36.0634 L 41.7,14.023 Z"/>
<path style="fill:#fdff00" id="path4161" d="m 9.3786,38.7652 c 2.61585,0 5.33635,0 8.02304,0 2.91908,-0.08373 2.91908,4.33856 0,4.25483 h -7.9285 c -2.9077,0 -3.00225,-4.25483 -0.094556,-4.25483 z"/>
<path style="fill:#819697" id="path4289" d="M 6.71092,14.86405 3.3118,3.344 C 3.0722662,2.5321895 3.511534,1.13612 4.84624,1.13612 h 37.9933 c 1.43094,0 2.196395,0.9735722 1.83212,2.20788 l -3.4,11.52 z"/>
<path style="fill:#586161" id="path4177" d="M 10.3985,18.563 H 37.601 l 0.7996,12.4312 c 0.03431,0.591612 -0.162793,0.879714 -0.63327,0.879716 h -27.63 c -0.582498,0 -0.538837,-0.488369 -0.53883,-0.880017 z"/>
<path style="fill:#fff" id="rect3952" d="m 10.22,22.6046 h 27.56 l 0.09,1.5004 H 10.13 Z"/>
<path style="fill:#06ff00" id="path4151" d="m 23.8958,38.7652 h 0.5229 c 2.91908,-0.08373 2.91908,4.33856 0,4.25483 h -0.428372 c -2.9077,0 -3.00225,-4.25483 -0.09456,-4.25483 z"/>
<path style="fill:#00eaff" id="path4153" d="m 30.9958,38.7652 h 0.5229 c 2.91908,-0.08373 2.91908,4.33856 0,4.25483 h -0.428372 c -2.9077,0 -3.00225,-4.25483 -0.09456,-4.25483 z"/>
<path style="fill:#ff3023" id="path4155" d="m 38.0958,38.7652 h 0.5229 c 2.91908,-0.08373 2.91908,4.33856 0,4.25483 h -0.428372 c -2.9077,0 -3.00225,-4.25483 -0.09456,-4.25483 z"/>
</g>
</svg>
