<svg width="48" version="1.1" xmlns="http://www.w3.org/2000/svg" height="48" xmlns:xlink="http://www.w3.org/1999/xlink">
<defs id="defs3">
<linearGradient id="linearGradient7658">
<stop offset="0" style="stop-color:#b4bbad" id="stop7660"/>
<stop offset="1" style="stop-color:#e8e8e4" id="stop7662"/>
</linearGradient>
<linearGradient gradientTransform="matrix(1.1574439,0,0,1.1574439,2.3112702,-1.8072332)" xlink:href="#linearGradient7658" id="linearGradient4041" y1="34.548553" x1="3.8182862" y2="34.310291" gradientUnits="userSpaceOnUse" x2="3.8182862"/>
</defs>
<g id="g2234" transform="translate(0,-3.097)">
<g style="color:#000">
<path style="opacity:.2" id="path4174" d="m 3,5.923 v 37.5801 c 0,1.6895 1.65821,3.7679 3.34771,3.7679 h 35.2893 c 2.05227,0 3.3817,-1.98642 3.36244,-3.7679 l 0,-37.5801 z "/>
<path style="opacity:.25" id="path1460" d="m 3.3001,6.223 v 36.9803 c 0,1.8937 1.69985,3.76769 3.44786,3.7677 l 34.489,0 c 2.263,0 3.46258,-1.87277 3.46222,-3.7679 l 0,-36.9803 z "/>
<path style="opacity:.25" id="path853" d="m 3.7001,6.6229 v 36.1803 c 0,2.1937 1.39985,3.76789 3.34771,3.7679 l 33.8889,0 c 2.40861,0 3.36921,-1.58704 3.36244,-3.7679 l 0,-36.1804 Z "/>
<path style="fill:url(#linearGradient4041)" id="path4167" d="m 4.1001,7.123 0,30.8145 0,5.166 c 0,1.6895 1.25777,3.06836 2.94727,3.06836 h 33.8885 c 2.05227,0 2.96298,-1.28678 2.96289,-3.06836 l 0,-5.041 v -30.9395 h -39.7994 Z "/>
</g>
<path style="fill:#586161" id="rect858" d="m 7,10.097 h 34 v 25 H 7 Z"/>
<g style="color:#000">
<path style="fill:#fff" id="rect3952" d="m 7,19.097 h 34 v 1.5 H 7 Z"/>
<path style="fill:#fdff00" id="path4161" d="m 9.3786,39.9652 c 2.61581,0 5.33627,0 8.02292,0 2.91904,-0.08373 2.91904,4.33856 0,4.25483 H 9.47314 c -2.90766,0 -3.00221,-4.25483 -0.094555,-4.25483 z"/>
<path style="fill:#06ff00" id="path4151" d="m 23.8956,39.9652 h 0.522892 c 2.91904,-0.08373 2.91904,4.33856 0,4.25483 h -0.428366 c -2.90766,0 -3.00221,-4.25483 -0.09456,-4.25483 z"/>
<path style="fill:#00eaff" id="path4153" d="m 30.9954,39.9652 h 0.522893 c 2.91904,-0.08373 2.91904,4.33856 0,4.25483 h -0.428365 c -2.90766,0 -3.00221,-4.25483 -0.09456,-4.25483 z"/>
<path style="fill:#ff3023" id="path4155" d="m 38.0953,39.9652 h 0.522892 c 2.91904,-0.08373 2.91904,4.33856 0,4.25483 h -0.428365 c -2.90766,0 -3.00221,-4.25483 -0.09456,-4.25483 z"/>
</g>
</g>
</svg>
