<svg width="128" version="1.0" xmlns="http://www.w3.org/2000/svg" height="128" xmlns:xlink="http://www.w3.org/1999/xlink">
<defs id="defs4">
<clipPath id="clipPath4172" clipPathUnits="userSpaceOnUse">
<path style="fill:url(#radialGradient4176);stroke:#586c34;stroke-linejoin:round;stroke-linecap:round;stroke-width:.2" id="path4174" d="m 437.3125,21.3438 c -35.3453,0 -64,28.6547 -64,64 0,12.3865 3.53237,23.9524 9.625,33.75 -1.14535,6.34801 -1.75,12.8845 -1.75,19.5625 0,60.4553 49.0134,109.469 109.469,109.469 6.68859,0 13.2363,-0.60108 19.5938,-1.75 9.79761,6.09263 21.3635,9.625 33.75,9.625 35.3453,0 64,-28.6547 64,-64 0,-12.3865 -3.53237,-23.9524 -9.625,-33.75 1.14892,-6.35749 1.75,-12.9052 1.75,-19.5938 0,-60.4553 -49.0135,-109.469 -109.469,-109.469 -6.68838,0 -13.2364,0.601153 -19.5938,1.75 -9.79693,-6.09141 -21.3648,-9.59375 -33.75,-9.59375 z "/>
</clipPath>
<clipPath id="clipPath4029" clipPathUnits="userSpaceOnUse">
<path style="fill:url(#radialGradient4033);stroke:#586c34;stroke-linejoin:round;stroke-linecap:round;stroke-width:.2" id="path4031" d="m 342.3432,-147.0766 c -34.6717,0 -62.7802,28.1085 -62.7802,62.7802 0,34.6717 28.1085,62.7496 62.7802,62.7496 34.6717,0 62.7802,-28.0779 62.7802,-62.7496 0,-34.6717 -28.1085,-62.7802 -62.7802,-62.7802 z  m 104.6235,104.6235 c -34.6717,0 -62.7802,28.1085 -62.7802,62.7802 0,34.6717 28.1085,62.7802 62.7802,62.7802 34.6717,0 62.7802,-28.1085 62.7802,-62.7802 0,-34.6717 -28.1085,-62.7802 -62.7802,-62.7802 z "/>
</clipPath>
<linearGradient id="linearGradient2949">
<stop offset="0" style="stop-color:#d3f6ff" id="stop2951-1"/>
<stop offset="0.2265625" style="stop-color:#99d1fe" id="stop4314"/>
<stop offset="0.5" style="stop-color:#479ac6" id="stop2953-3"/>
<stop offset="1" style="stop-color:#0c3358" id="stop2955-80"/>
</linearGradient>
<radialGradient fx="428.73471" fy="17.042961" cx="394.6568" cy="-31.996" gradientTransform="matrix(0.58253086,0,0,0.58253086,207.42265,103.97306)" xlink:href="#linearGradient2949" id="radialGradient4176" r="109.96268" gradientUnits="userSpaceOnUse"/>
<radialGradient fx="428.73471" fy="17.042961" cx="394.6568" cy="-31.996" gradientTransform="matrix(0.57142852,0,0,0.57142852,116.82308,-66.028128)" xlink:href="#linearGradient2949" id="radialGradient4033" r="109.96268" gradientUnits="userSpaceOnUse"/>
</defs>
<g style="fill:#2f7499">
<path style="stroke:none" id="path3976" d="m 68.8853,39.4637 c 0,16.2221 -13.1506,29.3727 -29.3727,29.3727 -16.2221,0 -29.3727,-13.1506 -29.3727,-29.3727 0,-16.2221 13.1506,-29.3727 29.3727,-29.3727 16.2221,0 29.3727,13.1506 29.3727,29.3727 z "/>
<path style="stroke:#586c34;stroke-linejoin:round;stroke-linecap:round;stroke-width:.236" id="path3980" d="m 117.8397,88.4181 c 0,16.2221 -13.1506,29.3727 -29.3727,29.3727 -16.2221,0 -29.3727,-13.1506 -29.3727,-29.3727 0,-16.2221 13.1506,-29.3727 29.3727,-29.3727 16.2221,0 29.3727,13.1506 29.3727,29.3727 z "/>
<path style="stroke:none" id="path3188" d="m 114.2293,63.9409 c 0,27.7465 -22.493,50.2396 -50.2396,50.2396 -27.7465,0 -50.2396,-22.493 -50.2396,-50.2396 0,-27.7465 22.493,-50.2396 50.2396,-50.2396 27.7465,0 50.2396,22.493 50.2396,50.2396 z "/>
</g>
<path style="fill:#fff;font-family:Sans;text-align:start;stroke:none;line-height:normal;text-indent:0;color:#000;text-transform:none" id="path4249" d="m 65.8091,28.8894 c -1.26476,-0.01191 -2.52282,0.05439 -3.74343,0.196333 -4.88243,0.56772 -9.53651,2.23013 -13.3245,5.1963 -3.788,2.96617 -7.13345,7.65691 -7.13345,13.0758 0,9.10865 4.42668,12.421 8.8926,15.0523 4.46592,2.63119 9.49481,3.01883 13.9999,4.28008 4.81009,1.62188 12.8833,4.11989 12.9266,9.09514 0,4.03293 -1.77926,5.44265 -4.74087,6.95971 -3.19002,1.63408 -7.62989,1.84103 -12.0471,0.410996 -4.41715,-1.43004 -6.30388,-4.02004 -8.83501,-7.21199 -0.986829,-1.24447 -1.7342,-2.73073 -3.18702,-3.37246 -1.45281,-0.641734 -3.16409,-0.672924 -4.63933,-0.08458 -1.47525,0.588368 -2.69536,1.78865 -3.30781,3.25408 -0.612441,1.46541 -0.665523,3.202 0.0086,4.64009 3.60468,7.68996 9.07357,11.8456 16.2695,14.1753 7.19593,2.32966 15.0823,2.12802 21.7407,-1.28272 5.77102,-2.95618 12.356,-9.31768 12.356,-18.1674 0,-6.50952 -3.79986,-11.8299 -8.28528,-14.6072 -4.48543,-2.77734 -10.4939,-4.06779 -15.0392,-5.34027 -4.54524,-1.27248 -8.68596,-2.53254 -11.0078,-3.90049 -2.32182,-1.36795 -2.7094,-1.70217 -2.7094,-3.90049 0,-1.36658 0.49934,-2.36936 2.12041,-3.63872 1.62106,-1.26936 4.3486,-2.38894 7.32979,-2.73558 5.96238,-0.693295 11.9336,1.25834 14.5287,6.59681 0.685125,1.41213 1.94744,2.53348 3.43048,3.04739 1.48304,0.513911 3.16852,0.41405 4.58051,-0.271377 1.41197,-0.685429 2.53305,-1.94798 3.04666,-3.43113 0.513584,-1.48314 0.41336,-3.16861 -0.272362,-4.58045 -4.57031,-9.40166 -14.1046,-13.3722 -22.958,-13.4553 z "/>
</svg>
