<svg width="96" version="1.1" xmlns="http://www.w3.org/2000/svg" height="96" xmlns:xlink="http://www.w3.org/1999/xlink">
<g style="color:#000">
<path style="opacity:.2" id="path4102" d="M 57.2812,0 C 43.7278,0 31.7953,6.95721 24.875,17.5 l 38.2539,41.1992 h 5.62109 c 0,0 0.840271,-1.39407 1.55078,-1.83789 l 19.6484,-12.2734 c 2.24176,-1.40032 4.72692,-2.52982 5.66211,-0.388672 0.254279,-1.79071 0.388672,-3.61956 0.388672,-5.48047 0,-21.3898 -17.329,-38.7186 -38.7188,-38.7188 z m -31,61.9688 c 1.64961,2.19763 3.52278,4.2 5.59375,6 l -5.5938,-6 z"/>
<path style="opacity:.3" id="path4159" d="m 57.377,1.9766 c -12.9976,0 -24.4397,6.67271 -31.0762,16.7832 l 38.0566,40.9844 h 5.20312 c 0,0 0.775657,-1.48672 1.43164,-1.89648 l 18.1406,-11.332 c 1.86529,-1.16515 3.91231,-2.68414 4.93164,-1.73828 0.284114,-1.84956 0.443359,-3.74091 0.443359,-5.66992 0,-20.5126 -16.6183,-37.1308 -37.1309,-37.1309 z M 27.6485,61.4043 c 1.58196,2.10751 3.37919,4.02764 5.36523,5.75391 l -5.3652,-5.7539 z"/>
<path style="fill:#ebebeb" id="path4161" d="m 57.5953,3.5469 c -12.6895,0 -23.8335,6.69489 -30.0573,16.7444 l 46.3251,49.8836 c 11.2992,-5.88798 19.0321,-17.7054 19.0321,-31.3282 0,-19.5 -15.7998,-35.3 -35.3,-35.3 z"/>
<g style="fill:#464646">
<path id="path4130" d="m 66.8454,9.5413 c 5.0447,0 9.13424,4.08954 9.13424,9.13424 0,5.04471 -4.08954,9.13425 -9.13424,9.13425 -5.0447,0 -9.13424,-4.08954 -9.13424,-9.13425 0,-5.0447 4.08954,-9.13424 9.13424,-9.13424 z"/>
<path id="path4128" d="m 45.2233,11.5785 c 5.0447,0 9.13424,4.08954 9.13424,9.13424 0,5.0447 -4.08954,9.13424 -9.13424,9.13424 -5.0447,0 -9.13424,-4.08954 -9.13424,-9.13424 0,-5.0447 4.08954,-9.13424 9.13424,-9.13424 z"/>
<path id="path4126" d="m 79.7853,27.5428 c 5.0447,0 9.13424,4.08954 9.13424,9.13424 0,5.0447 -4.08954,9.13424 -9.13424,9.13424 -5.0447,0 -9.13424,-4.08954 -9.13424,-9.13424 0,-5.0447 4.08954,-9.13424 9.13424,-9.13424 z"/>
</g>
<path style="fill:#4d9ddf" id="path4327-3" d="M 19.5933,19.1954 4.1285,31.7705 59.9344,91.588 74.1487,77.2378 Z"/>
<path id="rect3549-5" d="M 0.3153,33.9694 57.5911,95.6777 78.9899,75.816 21.7141,14.1077 Z m 2.2173,0.8731 2.1415,-1.9877 3.9753,4.2829 -2.1415,1.9877 z m 17.7771,-16.5002 2.1257,-1.973 3.9753,4.2829 -2.1257,1.973 z M 6.3584,32.9329 19.9944,20.2764 36.6116,38.1795 22.9756,50.836 6.3584,32.9328 Z m 1.8155,7.9876 2.1415,-1.9877 3.9753,4.2829 -2.1415,1.9877 z m 17.7771,-16.5001 2.1257,-1.973 3.9753,4.2829 -2.1257,1.973 z m -12.1358,22.5782 2.1415,-1.9877 3.9753,4.2829 -2.1415,1.9877 z m 17.7771,-16.5002 2.1257,-1.973 3.9753,4.2829 -2.1257,1.973 z m -12.1358,22.5782 2.1415,-1.9877 3.9753,4.2829 -2.1415,1.9877 z m 17.7771,-16.5002 2.1257,-1.973 3.9753,4.2829 -2.1257,1.973 z M 24.6562,52.6471 38.2922,39.9906 54.9094,57.8937 41.2734,70.5502 Z m 0.4416,6.5075 2.1415,-1.9877 3.9753,4.2829 -2.1415,1.9877 z m 17.7771,-16.5002 2.1257,-1.973 3.9753,4.2829 -2.1257,1.973 z m -12.1358,22.5782 2.1415,-1.9877 3.9753,4.2829 -2.1415,1.9877 z m 17.7771,-16.5002 2.1257,-1.973 3.9753,4.2829 -2.1257,1.973 z m -12.1358,22.5782 2.1415,-1.9877 3.9753,4.2829 -2.1415,1.9877 z m 17.7771,-16.5002 2.1257,-1.973 3.9753,4.2829 -2.1257,1.973 z M 42.72,72.1093 56.356,59.4528 72.9732,77.3559 59.3372,90.0124 Z m -0.6983,5.2793 2.1415,-1.9877 3.9898,4.2986 -2.1415,1.9877 z m 17.7771,-16.5002 2.1257,-1.973 3.9898,4.2986 -2.1257,1.973 z m -12.1358,22.5782 2.1415,-1.9877 3.9753,4.2829 -2.1415,1.9877 z m 17.7771,-16.5002 2.1257,-1.973 3.9753,4.2829 -2.1257,1.973 z m -12.1358,22.5782 2.1415,-1.9877 3.9753,4.2829 -2.1415,1.9877 z m 17.7771,-16.5002 2.1257,-1.973 3.9753,4.2829 -2.1257,1.973 z"/>
<g style="solid-color:#000000;color-interpolation:sRGB;shape-rendering:auto;image-rendering:auto;line-height:normal;fill-rule:evenodd;solid-opacity:1;mix-blend-mode:normal;white-space:normal;isolation:auto;color-rendering:auto;shape-padding:0">
<path style="opacity:.2;color-interpolation-filters:linearRGB" id="path829" d="m 72.301,56.8621 c -0.687767,0.478307 -1.55078,1.83789 -1.55078,1.83789 h -11.3073 c -2.52112,0 -4.58776,2.07671 -4.58776,4.5957 v 11.5977 c 0,2.51915 1.66878,4.58984 4.18776,4.58984 h 11.7053 c 0,0 0.936657,1.41328 1.55274,1.8418 l 17.6482,12.2754 c 3.43989,2.14907 6.05078,2.23524 6.05078,-2.69874 v -44.315 c 0,-5.12021 -3.22417,-3.76364 -6.05078,-1.99799 z "/>
<path style="opacity:.3;color-interpolation-filters:linearRGB;stroke-width:.923" id="path845" d="m 72.9919,57.8474 c -0.633017,0.444417 -1.43177,1.89705 -1.43177,1.89705 h -11.6694 c -2.73442,0 -4.0359,1.91733 -4.0359,4.243 v 10.3077 c 0,2.32582 1.04923,4.23759 4.0359,4.23759 h 11.6676 c 0,0 0.845959,1.53311 1.43358,1.90023 l 16.1403,11.3333 c 3.1759,1.98414 5.58641,3.06403 5.58641,-1.49129 v -43.014 c 0,-4.72726 -2.97673,-2.37517 -5.58641,-0.745032 z "/>
<path style="fill:#79e8ef;color-interpolation-filters:linearRGB" id="path971" d="m 93.5,90.702 c 0,2.10743 -1.06975,1.50207 -2.22656,0.779297 l -17.4217,-12.1348 c -0.938105,-0.653423 -1.85156,-2.36328 -1.85156,-2.36328 h -12.5571 c -1.15957,0 -2.08789,-0.930031 -2.08789,-2.08984 v -11.5977 c 0,-1.15933 0.930683,-2.0957 2.08789,-2.0957 h 12.5551 c 0,0 1.07448,-1.87145 1.85547,-2.35938 l 17.4197,-12.1328 c 1.84266,-1.28342 2.22656,-0.868504 2.22656,0.779297 z "/>
</g>
</g>
</svg>
