<svg width="96" version="1.1" xmlns="http://www.w3.org/2000/svg" height="96">
<g style="color:#000" id="g16">
<path style="opacity:.2" id="path4102" d="M 57.2812,0 C 43.7278,0 31.7953,6.95721 24.875,17.5 L 76.0312,72.5938 C 87.9294,65.9845 96,53.2944 96,38.7188 96,17.329 78.671,1e-4 57.2812,0 Z m -31,61.9688 c 1.64961,2.19763 3.52278,4.2 5.59375,6 l -5.5938,-6 z"/>
<path style="opacity:.3" id="path4159" d="M 57.3773,1.9772 C 44.3797,1.9772 32.9365,8.64911 26.3,18.7596 L 75.3584,71.5941 C 86.7687,65.25584 94.5083,53.0861 94.5083,39.1083 94.5083,18.5957 77.8899,1.9774 57.3773,1.9773 Z M 27.6486,61.4048 c 1.58196,2.10751 3.37832,4.02768 5.36436,5.75395 l -5.3644,-5.754 z"/>
<path style="fill:#ebebeb" id="path4161" d="m 57.5953,3.5469 c -12.6895,0 -23.8335,6.69489 -30.0573,16.7444 l 46.3251,49.8836 c 11.2992,-5.88798 19.0321,-17.7054 19.0321,-31.3282 0,-19.5 -15.7998,-35.3 -35.3,-35.3 z"/>
<g style="fill:#464646" id="g8">
<path id="path4130" d="m 66.8454,9.5413 c 5.0447,0 9.13424,4.08954 9.13424,9.13424 0,5.04471 -4.08954,9.13425 -9.13424,9.13425 -5.0447,0 -9.13424,-4.08954 -9.13424,-9.13425 0,-5.0447 4.08954,-9.13424 9.13424,-9.13424 z"/>
<path id="path4128" d="m 45.2233,11.5785 c 5.0447,0 9.13424,4.08954 9.13424,9.13424 0,5.0447 -4.08954,9.13424 -9.13424,9.13424 -5.0447,0 -9.13424,-4.08954 -9.13424,-9.13424 0,-5.0447 4.08954,-9.13424 9.13424,-9.13424 z"/>
<path id="path4126" d="m 79.7853,27.5428 c 5.0447,0 9.13424,4.08954 9.13424,9.13424 0,5.0447 -4.08954,9.13424 -9.13424,9.13424 -5.0447,0 -9.13424,-4.08954 -9.13424,-9.13424 0,-5.0447 4.08954,-9.13424 9.13424,-9.13424 z"/>
</g>
<path style="fill:#4d9ddf" id="path4327-3" d="M 19.5933,19.1954 4.1285,31.7705 59.9344,91.588 74.1487,77.2378 Z"/>
<path id="rect3549-5" d="M 0.3153,33.9694 57.5911,95.6777 78.9899,75.816 21.7141,14.1077 Z m 2.2173,0.8731 2.1415,-1.9877 3.9753,4.2829 -2.1415,1.9877 z m 17.7771,-16.5002 2.1257,-1.973 3.9753,4.2829 -2.1257,1.973 z M 6.3584,32.9329 19.9944,20.2764 36.6116,38.1795 22.9756,50.836 6.3584,32.9328 Z m 1.8155,7.9876 2.1415,-1.9877 3.9753,4.2829 -2.1415,1.9877 z m 17.7771,-16.5001 2.1257,-1.973 3.9753,4.2829 -2.1257,1.973 z m -12.1358,22.5782 2.1415,-1.9877 3.9753,4.2829 -2.1415,1.9877 z m 17.7771,-16.5002 2.1257,-1.973 3.9753,4.2829 -2.1257,1.973 z m -12.1358,22.5782 2.1415,-1.9877 3.9753,4.2829 -2.1415,1.9877 z m 17.7771,-16.5002 2.1257,-1.973 3.9753,4.2829 -2.1257,1.973 z M 24.6562,52.6471 38.2922,39.9906 54.9094,57.8937 41.2734,70.5502 Z m 0.4416,6.5075 2.1415,-1.9877 3.9753,4.2829 -2.1415,1.9877 z m 17.7771,-16.5002 2.1257,-1.973 3.9753,4.2829 -2.1257,1.973 z m -12.1358,22.5782 2.1415,-1.9877 3.9753,4.2829 -2.1415,1.9877 z m 17.7771,-16.5002 2.1257,-1.973 3.9753,4.2829 -2.1257,1.973 z m -12.1358,22.5782 2.1415,-1.9877 3.9753,4.2829 -2.1415,1.9877 z m 17.7771,-16.5002 2.1257,-1.973 3.9753,4.2829 -2.1257,1.973 z M 42.72,72.1093 56.356,59.4528 72.9732,77.3559 59.3372,90.0124 Z m -0.6983,5.2793 2.1415,-1.9877 3.9898,4.2986 -2.1415,1.9877 z m 17.7771,-16.5002 2.1257,-1.973 3.9898,4.2986 -2.1257,1.973 z m -12.1358,22.5782 2.1415,-1.9877 3.9753,4.2829 -2.1415,1.9877 z m 17.7771,-16.5002 2.1257,-1.973 3.9753,4.2829 -2.1257,1.973 z m -12.1358,22.5782 2.1415,-1.9877 3.9753,4.2829 -2.1415,1.9877 z m 17.7771,-16.5002 2.1257,-1.973 3.9753,4.2829 -2.1257,1.973 z"/>
<g style="shape-padding:0;color-rendering:auto;isolation:auto;white-space:normal;solid-opacity:1;mix-blend-mode:normal;shape-rendering:auto;fill-rule:evenodd;image-rendering:auto;line-height:normal;color-interpolation:sRGB;solid-color:#000000" id="g14">
<path style="fill:#11888f;color-interpolation-filters:linearRGB" id="path829" d="m 89.9492,44.5887 -19.6484,12.2734 c -0.71051,0.443821 -1.55078,1.83789 -1.55078,1.83789 h -8.30664 c -2.52112,0 -4.58789,2.07671 -4.58789,4.5957 v 11.5977 c 0,2.51915 2.06892,4.58984 4.58789,4.58984 h 8.30469 c 0,0 0.91628,1.44417 1.55274,1.8418 l 19.6484,12.2754 c 3.43989,2.14907 6.05078,2.23524 6.05078,-2.69874 v -44.315 c 0,-5.12021 -3.22417,-3.76364 -6.05078,-1.99799 z "/>
<path style="fill:#79e8ef;color-interpolation-filters:linearRGB" id="path971" d="m 93.5,90.702 c 0,2.10743 -1.06975,1.50207 -2.22656,0.779297 l -19.4219,-12.1348 c -0.969555,-0.605777 -1.85156,-2.36328 -1.85156,-2.36328 h -9.55664 c -1.15957,0 -2.08789,-0.930031 -2.08789,-2.08984 v -11.5977 c 0,-1.15933 0.930683,-2.0957 2.08789,-2.0957 h 9.55469 c 0,0 1.07448,-1.87145 1.85547,-2.35938 l 19.4199,-12.1328 c 1.90444,-1.18982 2.22656,-0.868504 2.22656,0.779297 z "/>
</g>
</g>
</svg>
