<svg width="96" version="1.1" xmlns="http://www.w3.org/2000/svg" height="96">
<g style="color:#000" id="g6">
<path style="fill:#3080ca" id="path2985" d="m 57.3086,2.5781 a 30.3748,29.0319 0 0,0 -29.0781,18.5488 l 35.957,38.7422 a 30.3748,29.0319 0 0,0 22.7148,-28.1699 30.3748,29.0319 0 0,0 -29.5938,-29.1211 z "/>
<path style="fill:#fff;fill-opacity:.784" id="path3522-9" d="m 58.041,5.9688 c -0.150767,0.0073253 -0.285697,0.0221616 -0.398438,0.0488281 h -4.7832 c -1.30639,0.173907 -2.60572,0.399622 -3.84766,0.740234 0.477231,1.44956 -0.034523,3.22596 1.38086,3.20508 0.814695,1.15166 -1.6122,0.344797 0.148438,1.23242 1.01247,0.797274 -1.05659,1.25719 0.197265,1.97266 -1.44511,0.745599 0.207893,3.89615 1.28125,4.68555 1.76661,1.48705 0.790499,-3.1612 2.76172,-3.40234 1.07112,-1.22267 2.95498,-1.9751 4.29102,-3.20508 -1.3057,-0.105988 -2.07446,-0.928265 -0.837891,-1.43164 2.27585,2.33179 0.568401,-1.13174 -0.691406,-1.67578 1.21902,-0.387721 2.43868,-0.0782164 2.26953,-1.08398 0.966177,-0.706771 -0.252457,-1.04607 -1.2832,-1.08594 -0.171793,-0.0066545 -0.337515,-0.0073253 -0.488281,0 z  m -14.7988,3.0566 c -1.04642,0.553709 -2.04925,1.20171 -3.00781,1.875 1.56224,0.30281 2.45569,-0.403131 3.10742,1.28125 1.83869,1.05955 -0.00119,2.87403 -0.691406,3.35351 1.24321,-1.08257 3.63624,2.96486 3.00977,0.837891 -0.747394,-0.545641 1.96989,0.886602 0.541016,-0.886719 -1.31496,-2.11829 0.137024,-0.937758 0.691406,-0.443359 1.88557,-1.69059 -2.13801,-1.91057 -1.13477,-3.65039 -0.659345,-0.533959 -1.49337,-1.90509 -2.51562,-2.36719 z  m 29.834,1.7266 c -1.95549,0.983611 -2.89901,3.15132 -4.04297,4.98047 -1.95883,0.88305 -1.89346,4.66239 0.294922,3.45117 0.585714,1.02283 -0.422829,2.66943 1.2832,1.33203 1.37608,-1.8208 0.271536,-4.76985 2.61328,-5.91797 0.170574,0.892732 -2.18179,4.1983 0.541016,3.65039 2.46146,0.09288 -1.78701,0.25211 -0.589844,1.82422 -1.24383,-0.737898 -0.597135,2.02156 -2.2207,1.38086 -1.40655,0.764992 -2.3437,-0.350994 -2.02148,-1.57812 -1.10649,0.64542 0.342663,2.45503 -1.57812,2.56445 -0.430268,1.5277 -3.93402,1.30378 -1.92188,2.85938 0.893341,2.31497 -3.36854,0.132115 -2.16992,2.91016 1.02547,2.74707 3.17105,-0.920353 4.04297,-1.62695 1.57713,-1.22321 3.87747,1.82531 2.91016,2.31641 1.39032,-0.354059 1.03612,-1.82597 -0.248047,-2.41602 -0.734546,-1.90482 2.33962,0.96881 2.16992,1.92383 1.07959,2.02133 0.627961,-2.10803 1.72656,-0.296875 -0.12826,1.91049 4.43878,0.47525 2.26758,2.91016 -1.86675,0.375943 -3.71708,-0.500182 -5.32422,0.048828 -1.49582,-0.01331 -1.42807,-1.62131 -1.97266,-2.02148 -1.9027,0.154559 -4.24966,0.138884 -5.52344,1.67578 -1.37744,1.88964 -3.37436,4.54026 -1.87305,6.95312 1.50238,3.57554 5.25485,0.206717 7.39648,2.31836 0.636567,0.880459 -0.585449,1.90568 0.83789,2.85938 0.53559,2.03154 -0.57518,3.97594 0.740234,5.91797 0.680198,1.82638 1.06796,4.52829 3.59961,2.85938 2.67941,-1.61222 1.98056,-4.56675 4.19141,-6.21289 -1.74936,-3.38512 2.13502,-4.84566 3.10547,-7.59375 -2.12023,0.310355 -3.97406,-1.81793 -4.48633,-3.94531 -0.89068,-1.03332 -0.7,-2.5818 0.294922,-0.640625 1.36753,1.32494 1.41563,5.27639 3.94531,3.25391 1.15649,-0.483664 4.29192,-2.31663 1.77539,-3.15625 -1.62215,1.17477 -3.4172,-3.50646 -1.03516,-0.789063 1.37704,0.584148 2.43869,0.940313 2.81055,-0.146484 0,-6.61173 -2.53771,-12.6492 -6.70703,-17.3086 -0.387224,0.390369 -1.13725,-0.043467 -0.738281,0.789062 -0.984554,-0.698299 -1.8081,-2.84122 0,-1.62695 -1.24697,-1.28509 -2.60521,-2.47163 -4.09375,-3.50195 z  m -23.3242,.2461 c -0.982488,0.818521 1.86785,0.972663 0,0 z  m -9.123,.4453 c -0.09473,0.973059 -1.35795,2.96918 -1.18359,0.541016 -0.358347,0.424812 -0.571301,0.334129 -0.738281,0.050781 -3.74157,3.02838 -6.60117,6.9835 -8.24805,11.4922 l 7.6055,8.1953 c 1.41518,-0.565915 3.31668,-0.133434 3.74805,1.51562 -0.849952,-2.58094 1.67473,-4.57397 3.05859,-6.41016 0.281779,-0.877647 1.957,-1.60979 1.38086,-0.443359 0.981571,-0.0354 2.43317,-1.80379 0.689453,-0.986328 -0.02468,-1.6152 -1.5341,-1.16685 -2.02148,-0.9375 0.903343,-1.43357 5.54232,-0.664564 3.59961,-3.00781 -1.50535,-0.609878 -1.33677,-4.15262 -2.85938,-2.16992 0.128138,-1.22163 -3.12902,-3.62666 -3.05859,-1.57812 0.393929,1.83306 0.1,3.92736 -0.738281,5.12891 -0.174938,-2.68604 -4.78046,-2.06936 -4.19141,-4.93164 0.853382,-1.36417 1.87569,-3.27713 1.9707,-3.10742 1.52939,-0.583848 2.75887,-2.23511 0.986328,-3.35156 z  m 2.3672,1.1328 c -0.832143,1.36302 1.22955,0.503223 0,0 z  m 18.1953,1.5781 c -0.974234,1.12147 -2.24662,-0.272519 -2.26758,0.691406 0.176564,0.291257 0.866644,2.37193 2.41602,0.837891 0.831546,-0.350541 0.507793,-1.25875 -0.148438,-1.5293 z  m -20.709,.6914 c -1.84788,1.61357 3.09052,1.77445 0.34375,0.197266 l -.3438,-.1973 z  m 24.3086,4.5352 c -1.19281,0.885554 0.655302,2.65205 0,3.50195 -0.833652,1.45231 3.13701,-0.124487 1.03711,-1.2832 -0.130919,-0.871074 -1.00318,-1.90306 -1.03711,-2.21875 z  m -.8379,1.6777 c -1.85364,0.523994 -0.459261,3.23749 0.197266,0.689453 0.03691,-0.147727 0.125426,-0.694395 -0.197266,-0.689453 z  m -14.8418,1.9727 c -1.72445,1.17573 -0.277482,2.35322 0.986328,1.82422 -0.259458,-0.709379 -0.974634,-1.16026 -0.986328,-1.82422 z  m 28.1562,1.9727 c -0.116745,1.15084 2.45687,2.949 -0.345703,2.36523 -1.48212,0.17384 -3.6914,-0.026459 -1.82422,-1.87305 0.59,-0.354153 2.13814,1.1782 1.33203,-0.294922 0.285787,-0.01822 0.568672,-0.110563 0.83789,-0.197266 z  m 4.3887,0 c 0.860438,0.434188 -1.54329,1.15773 0,1.92188 0.898104,1.05602 0.522281,3.33096 -0.9375,1.72656 0.271211,-1.7913 -1.97506,-3.11895 0.9375,-3.64844 z  m -12.9688,2.5137 c -1.08104,0.696379 0.747525,1.23035 0,0 z  m -27.1699,6.4609 c -0.182252,0.607944 3.42257,1.2201 0.9375,0.246093 l -.3457,-.0996 -.5918,-.1465 z  m 2.8105,.8867 c -1.09233,1.1088 2.25055,0.331266 0,0 z  m .7324,2.5938 c -0.455915,0.017487 -0.924899,0.158436 -1.38281,0.3125 l 9.4043,10.1309 c 0.163659,-0.078542 0.325348,-0.158121 0.515625,-0.216797 0.25011,-1.9738 3.48659,-5.00106 0.148438,-5.76953 -0.907269,-0.447122 -3.284,-0.617274 -3.10547,-0.837891 0.361683,-1.95853 -3,-2.50144 -4.43945,-3.30273 -0.354283,-0.251444 -0.741269,-0.331724 -1.14062,-0.316407 z  m 35.8066,7.5645 c -1.35586,0.034979 -1.82327,2.0125 -1.67578,3.05664 0.631167,-0.823603 1.24474,-1.67284 1.77539,-2.56445 -0.0052,-0.174645 -0.019929,-0.338612 -0.099609,-0.492187 z "/>
<path style="fill:#4d9ddf" id="path4327-3" d="M 19.5933,19.1954 4.1285,31.7705 59.9344,91.588 74.1487,77.2378 Z"/>
<path id="rect3549-5" d="M 0.3153,33.9694 57.5911,95.6777 78.9899,75.816 21.7141,14.1077 0.3153,33.9694 Z m 2.2173,0.8731 2.1415,-1.9877 3.9753,4.2829 -2.1415,1.9877 -3.9753,-4.2829 z m 17.7771,-16.5002 2.1257,-1.973 3.9753,4.2829 -2.1257,1.973 -3.9753,-4.2829 z M 6.3584,32.9329 19.9944,20.2764 36.6116,38.1795 22.9756,50.836 6.3584,32.9328 Z m 1.8155,7.9876 2.1415,-1.9877 3.9753,4.2829 -2.1415,1.9877 -3.9753,-4.2829 z m 17.7771,-16.5001 2.1257,-1.973 3.9753,4.2829 -2.1257,1.973 -3.9753,-4.2829 z m -12.1358,22.5782 2.1415,-1.9877 3.9753,4.2829 -2.1415,1.9877 -3.9753,-4.2829 z m 17.7771,-16.5002 2.1257,-1.973 3.9753,4.2829 -2.1257,1.973 -3.9753,-4.2829 z m -12.1358,22.5782 2.1415,-1.9877 3.9753,4.2829 -2.1415,1.9877 -3.9753,-4.2829 z m 17.7771,-16.5002 2.1257,-1.973 3.9753,4.2829 -2.1257,1.973 -3.9753,-4.2829 z M 24.6562,52.6471 38.2922,39.9906 54.9094,57.8937 41.2734,70.5502 24.6562,52.6471 Z m 0.4416,6.5075 2.1415,-1.9877 3.9753,4.2829 -2.1415,1.9877 -3.9753,-4.2829 z m 17.7771,-16.5002 2.1257,-1.973 3.9753,4.2829 -2.1257,1.973 -3.9753,-4.2829 z m -12.1358,22.5782 2.1415,-1.9877 3.9753,4.2829 -2.1415,1.9877 -3.9753,-4.2829 z m 17.7771,-16.5002 2.1257,-1.973 3.9753,4.2829 -2.1257,1.973 -3.9753,-4.2829 z m -12.1358,22.5782 2.1415,-1.9877 3.9753,4.2829 -2.1415,1.9877 -3.9753,-4.2829 z m 17.7771,-16.5002 2.1257,-1.973 3.9753,4.2829 -2.1257,1.973 -3.9753,-4.2829 z M 42.72,72.1093 56.356,59.4528 72.9732,77.3559 59.3372,90.0124 42.72,72.1093 Z m -0.6983,5.2793 2.1415,-1.9877 3.9898,4.2986 -2.1415,1.9877 -3.9898,-4.2986 z m 17.7771,-16.5002 2.1257,-1.973 3.9898,4.2986 -2.1257,1.973 -3.9898,-4.2986 z m -12.1358,22.5782 2.1415,-1.9877 3.9753,4.2829 -2.1415,1.9877 -3.9753,-4.2829 z m 17.7771,-16.5002 2.1257,-1.973 3.9753,4.2829 -2.1257,1.973 -3.9753,-4.2829 z m -12.1358,22.5782 2.1415,-1.9877 3.9753,4.2829 -2.1415,1.9877 -3.9753,-4.2829 z m 17.7771,-16.5002 2.1257,-1.973 3.9753,4.2829 -2.1257,1.973 -3.9753,-4.2829 z"/>
</g>
<path style="fill:#00f0ff;fill-rule:evenodd;stroke:#00848c;stroke-linejoin:round;stroke-width:2.5" id="path3293" d="M 94.75,44.2637 71.6862,60.0252 H 58.5275 v 8.9653 8.9652 H 71.6862 L 94.75,93.7172 Z"/>
</svg>
