<svg width="96" version="1.1" xmlns="http://www.w3.org/2000/svg" height="96" xmlns:xlink="http://www.w3.org/1999/xlink">
<g style="color:#000">
<g style="stroke-width:1.098">
<path style="fill:#3080ca" id="path2985" d="m 60.1602,2.5781 c -13.5589,-0.310586 -25.9643,7.25729 -31.3789,19.1426 l 40.252,43.3691 c 14.0496,-4.09648 23.6413,-16.4958 23.6211,-30.5352 0.061808,-17.3284 -14.3701,-31.5304 -32.4941,-31.9766 Z "/>
<path style="fill:#fff;fill-opacity:.784" id="path3522-9" d="m 60.9648,6.3027 c -0.165549,0.00805 -0.313705,0.023454 -0.4375,0.052734 h -5.25391 c -1.43448,0.190958 -2.8609,0.438491 -4.22461,0.8125 0.524023,1.59169 -0.03658,3.54246 1.51758,3.51953 0.894575,1.26458 -1.77116,0.378862 0.16211,1.35352 1.11174,0.875447 -1.16,1.3804 0.216796,2.16601 -1.5868,0.818704 0.227652,4.27773 1.40625,5.14453 1.93982,1.63285 0.868707,-3.46959 3.0332,-3.73437 1.17614,-1.34255 3.2439,-2.16895 4.71094,-3.51953 -1.43372,-0.11638 -2.27773,-1.01953 -0.919922,-1.57226 2.499,2.56042 0.625518,-1.24246 -0.757812,-1.83984 1.33854,-0.425737 2.67597,-0.087028 2.49023,-1.19141 1.06091,-0.776069 -0.276397,-1.14763 -1.4082,-1.19141 -0.188638,-0.0073 -0.369608,-0.00805 -0.535156,0 z  m -16.25,3.3555 c -1.14902,0.608 -2.25019,1.31929 -3.30273,2.05859 1.71542,0.3325 2.69648,-0.44133 3.41211,1.4082 2.01897,1.16344 -0.0019,3.15515 -0.759766,3.68164 1.36511,-1.18872 3.99258,3.25544 3.30469,0.919921 -0.820675,-0.599139 2.16272,0.972585 0.59375,-0.974609 -1.44389,-2.32599 0.151027,-1.0292 0.759765,-0.486328 2.07045,-1.85635 -2.3477,-2.09741 -1.24609,-4.00781 -0.723993,-0.586313 -1.63924,-2.0922 -2.76172,-2.59961 z  m 32.7578,1.8965 c -2.14722,1.08005 -3.18333,3.46025 -4.43945,5.46875 -2.15089,0.969632 -2.07873,5.11904 0.324219,3.78906 0.643143,1.12312 -0.463148,2.93142 1.41016,1.46289 1.511,-2 0.297791,-5.23736 2.86914,-6.49805 0.187298,0.980263 -2.39602,4.60944 0.59375,4.00781 2.7028,0.101987 -1.96299,0.277653 -0.648438,2.00391 -1.36579,-0.810248 -0.654746,2.21915 -2.4375,1.51563 -1.54446,0.84 -2.57452,-0.384977 -2.2207,-1.73242 -1.21498,0.708703 0.376692,2.69626 -1.73242,2.81641 -0.472455,1.67749 -4.3188,1.43055 -2.10938,3.13867 0.980933,2.54195 -3.69896,0.144883 -2.38281,3.19531 1.12602,3.01642 3.48204,-1.00928 4.43945,-1.78516 1.73177,-1.34314 4.25747,2.00372 3.19531,2.54297 1.52664,-0.388774 1.13664,-2.00444 -0.273437,-2.65234 -0.806567,-2.09159 2.56915,1.06267 2.38281,2.11133 1.18544,2.21952 0.69017,-2.31491 1.89648,-0.326172 -0.140835,2.09781 4.87432,0.521662 2.49023,3.19531 -2.04978,0.412804 -4.08294,-0.548158 -5.84766,0.05469 -1.64248,-0.01461 -1.56803,-1.7813 -2.16602,-2.2207 -2.08926,0.169714 -4.66578,0.152257 -6.06445,1.83984 -1.5125,2.07492 -3.70515,4.98533 -2.05664,7.63477 1.64969,3.92612 5.76948,0.228186 8.12109,2.54687 0.698982,0.966787 -0.641021,2.09146 0.921875,3.13867 0.588105,2.23073 -0.631889,4.3656 0.8125,6.49805 0.746891,2.00545 1.1713,4.97317 3.95117,3.14062 2.94212,-1.7703 2.17589,-5.01472 4.60352,-6.82227 -1.92088,-3.71703 2.34455,-5.32035 3.41016,-8.33789 -2.32812,0.340786 -4.36524,-1.99606 -4.92773,-4.33203 -0.97801,-1.13464 -0.768255,-2.83463 0.324218,-0.703125 1.50162,1.45485 1.55432,5.79305 4.33203,3.57227 1.26988,-0.531087 4.71249,-2.5429 1.94922,-3.46484 -1.7812,1.28995 -3.75231,-3.85102 -1.13672,-0.867188 1.51206,0.641423 2.67957,1.0332 3.08789,-0.160156 0,-7.26 -2.78712,-13.8896 -7.36523,-19.0059 -0.425191,0.428644 -1.24863,-0.04892 -0.810547,0.865235 -1.08109,-0.766767 -1.98538,-3.11848 0,-1.78516 -1.36923,-1.41109 -2.8616,-2.71436 -4.49609,-3.8457 z  m -25.6113,.2695 c -1.07882,0.898776 2.05099,1.06803 0,0 z  m -10.0176,.4902 c -0.104018,1.06847 -1.49028,3.26 -1.29883,0.59375 -0.393482,0.466464 -0.627195,0.365818 -0.810547,0.05469 -3.75245,3.03718 -6.68303,6.93073 -8.54297,11.3535 l 9.2988,10.0195 c 1.18483,0.0335 2.32063,0.634591 2.6543,1.91016 -0.933289,-2.834 1.83788,-5.02284 3.35742,-7.03906 0.309407,-0.9637 2.15021,-1.76713 1.51758,-0.486328 1.07781,-0.03887 2.67055,-1.9816 0.75586,-1.08398 -0.0271,-1.77357 -1.68358,-1.28113 -2.21875,-1.0293 0.991915,-1.57413 6.08632,-0.729736 3.95312,-3.30273 -1.65295,-0.669676 -1.46872,-4.55992 -3.14062,-2.38281 0.140702,-1.34141 -3.43476,-3.98182 -3.35742,-1.73242 0.432553,2.01279 0.107974,4.3115 -0.8125,5.63086 -0.19209,-2.9494 -5.24837,-2.27114 -4.60156,-5.41406 0.937056,-1.49793 2.05974,-3.59846 2.16406,-3.41211 1.67934,-0.641094 3.02837,-2.45377 1.08203,-3.67969 z  m 2.5996,1.2422 c -0.913734,1.49666 1.35011,0.552564 0,0 z  m 19.9805,1.7344 c -1.06976,1.23143 -2.46722,-0.300625 -2.49023,0.757812 0.193876,0.319814 0.951053,2.60437 2.65234,0.919922 0.913078,-0.384911 0.558464,-1.38066 -0.16211,-1.67773 z  m -22.7402,.7578 c -2.02906,1.77178 3.39304,1.94862 0.376953,0.216797 z  m 26.3145,4.7637 c -1.30976,0.972382 0.719553,2.91247 0,3.8457 -0.915391,1.59471 3.44447,-0.137833 1.13867,-1.41016 -0.143755,-0.956482 -1.10142,-2.0889 -1.13867,-2.43555 Z  m -.9199,1.8418 c -2.03539,0.575371 -0.504102,3.55568 0.216797,0.757812 0.04053,-0.162211 0.137535,-0.763238 -0.216797,-0.757812 z  m -16.2969,2.166 c -1.89353,1.29101 -0.303741,2.58478 1.08398,2.00391 -0.284898,-0.778933 -1.07114,-1.27485 -1.08398,-2.00391 z  m 30.918,2.166 c -0.128192,1.26368 2.6965,3.23866 -0.38086,2.59766 -1.62744,0.190885 -4.05221,-0.029 -2.00195,-2.05664 0.647849,-0.388877 2.34804,1.29334 1.46289,-0.324219 0.313809,-0.02001 0.624307,-0.121593 0.919922,-0.216797 z  m 4.8184,0 c 0.944803,0.47676 -1.69461,1.27225 0,2.11133 0.986163,1.15956 0.573614,3.65624 -1.0293,1.89453 0.297803,-1.96693 -2.16884,-3.42445 1.0293,-4.00586 z  m -14.2402,2.7617 c -1.18703,0.764658 0.820819,1.35099 0,0 z  m -29.5781,7.1562 .4746,.5137 c 0.919268,0.33687 2.15989,0.422789 0.298828,-0.306641 l -.3789,-.1094 Z  m 2.8301,.9102 c -1.19943,1.21752 2.47121,0.363746 0,0 z  m .8047,2.8496 c -0.04257,0.0016 -0.08614,0.01601 -0.128907,0.01953 l 9.7031,10.4531 c 0.774213,-2.11597 3.22416,-4.82931 -0.03711,-5.58008 -0.996226,-0.490961 -3.60619,-0.677674 -3.41016,-0.919922 0.397146,-2.15056 -3.29441,-2.7471 -4.875,-3.62695 -0.38902,-0.276097 -0.813446,-0.362522 -1.25195,-0.345703 z  m 39.3164,8.3047 c -1.4888,0.03841 -2.0018,2.2109 -1.83984,3.35742 0.693053,-0.904357 1.36654,-1.83738 1.94922,-2.81641 -0.0057,-0.191769 -0.02188,-0.372382 -0.109375,-0.541015 z "/>
</g>
<path style="fill:#4d9ddf" id="path4327-3" d="M 19.5933,19.1954 4.1285,31.7705 59.9344,91.588 74.1487,77.2378 Z"/>
<path id="rect3549-5" d="M 0.3153,33.9694 57.5911,95.6777 78.9899,75.816 21.7141,14.1077 Z m 2.2173,0.8731 2.1415,-1.9877 3.9753,4.2829 -2.1415,1.9877 z m 17.7771,-16.5002 2.1257,-1.973 3.9753,4.2829 -2.1257,1.973 z M 6.3584,32.9329 19.9944,20.2764 36.6116,38.1795 22.9756,50.836 6.3584,32.9328 Z m 1.8155,7.9876 2.1415,-1.9877 3.9753,4.2829 -2.1415,1.9877 z m 17.7771,-16.5001 2.1257,-1.973 3.9753,4.2829 -2.1257,1.973 z m -12.1358,22.5782 2.1415,-1.9877 3.9753,4.2829 -2.1415,1.9877 z m 17.7771,-16.5002 2.1257,-1.973 3.9753,4.2829 -2.1257,1.973 z m -12.1358,22.5782 2.1415,-1.9877 3.9753,4.2829 -2.1415,1.9877 z m 17.7771,-16.5002 2.1257,-1.973 3.9753,4.2829 -2.1257,1.973 z M 24.6562,52.6471 38.2922,39.9906 54.9094,57.8937 41.2734,70.5502 Z m 0.4416,6.5075 2.1415,-1.9877 3.9753,4.2829 -2.1415,1.9877 z m 17.7771,-16.5002 2.1257,-1.973 3.9753,4.2829 -2.1257,1.973 z m -12.1358,22.5782 2.1415,-1.9877 3.9753,4.2829 -2.1415,1.9877 z m 17.7771,-16.5002 2.1257,-1.973 3.9753,4.2829 -2.1257,1.973 z m -12.1358,22.5782 2.1415,-1.9877 3.9753,4.2829 -2.1415,1.9877 z m 17.7771,-16.5002 2.1257,-1.973 3.9753,4.2829 -2.1257,1.973 z M 42.72,72.1093 56.356,59.4528 72.9732,77.3559 59.3372,90.0124 Z m -0.6983,5.2793 2.1415,-1.9877 3.9898,4.2986 -2.1415,1.9877 z m 17.7771,-16.5002 2.1257,-1.973 3.9898,4.2986 -2.1257,1.973 z m -12.1358,22.5782 2.1415,-1.9877 3.9753,4.2829 -2.1415,1.9877 z m 17.7771,-16.5002 2.1257,-1.973 3.9753,4.2829 -2.1257,1.973 z m -12.1358,22.5782 2.1415,-1.9877 3.9753,4.2829 -2.1415,1.9877 z m 17.7771,-16.5002 2.1257,-1.973 3.9753,4.2829 -2.1257,1.973 z"/>
<g style="white-space:normal;image-rendering:auto;line-height:normal;shape-rendering:auto;fill-rule:evenodd;mix-blend-mode:normal;color-rendering:auto;solid-opacity:1;solid-color:#000000;isolation:auto;shape-padding:0;color-interpolation:sRGB">
<path style="opacity:.2;color-interpolation-filters:linearRGB" id="path829" d="m 72.301,56.8621 c -0.687767,0.478307 -1.55078,1.83789 -1.55078,1.83789 h -11.3073 c -2.52112,0 -4.58776,2.07671 -4.58776,4.5957 v 11.5977 c 0,2.51915 1.66878,4.58984 4.18776,4.58984 h 11.7053 c 0,0 0.936657,1.41328 1.55274,1.8418 l 17.6482,12.2754 c 3.43989,2.14907 6.05078,2.23524 6.05078,-2.69874 v -44.315 c 0,-5.12021 -3.22417,-3.76364 -6.05078,-1.99799 z"/>
<path style="opacity:.3;color-interpolation-filters:linearRGB;stroke-width:.923" id="path845" d="m 72.9919,57.8474 c -0.633017,0.444417 -1.43177,1.89705 -1.43177,1.89705 h -11.6694 c -2.73442,0 -4.0359,1.91733 -4.0359,4.243 v 10.3077 c 0,2.32582 1.04923,4.23759 4.0359,4.23759 h 11.6676 c 0,0 0.845959,1.53311 1.43358,1.90023 l 16.1403,11.3333 c 3.1759,1.98414 5.58641,3.06403 5.58641,-1.49129 v -43.014 c 0,-4.72726 -2.97673,-2.37517 -5.58641,-0.745032 z"/>
<path style="fill:#79e8ef;color-interpolation-filters:linearRGB" id="path971" d="m 93.5,90.702 c 0,2.10743 -1.06975,1.50207 -2.22656,0.779297 l -17.4217,-12.1348 c -0.938105,-0.653423 -1.85156,-2.36328 -1.85156,-2.36328 h -12.5571 c -1.15957,0 -2.08789,-0.930031 -2.08789,-2.08984 v -11.5977 c 0,-1.15933 0.930683,-2.0957 2.08789,-2.0957 h 12.5551 c 0,0 1.07448,-1.87145 1.85547,-2.35938 l 17.4197,-12.1328 c 1.84266,-1.28342 2.22656,-0.868504 2.22656,0.779297 z"/>
</g>
</g>
</svg>
