<svg width="48" version="1.1" xmlns="http://www.w3.org/2000/svg" height="48">
<g style="stroke-linejoin:round;stroke:none">
<path style="fill:#13978e" id="path4145" d="M 9.910112,2 C 5.5279101,2 2,5.5279101 2,9.9101123 L 2,38.089888 C 2,42.47209 5.5279101,46 9.910112,46 l 28.179776,0 C 42.47209,46 46,42.47209 46,38.089888 L 46,9.9101123 C 46,5.5279101 42.47209,2 38.089888,2 L 9.910112,2 Z"/>
<path style="opacity:.4" id="path4144" d="m 17.9121,6.5315 -5.1289,2.9668 -.0002,.9997 l 4.465,6.7249 c -0.702947,0.82057 -1.25243,1.77174 -1.62109,2.81055 h -8.92969 v 5.93359 h 8.92969 c 0.36867,1.03881 0.918145,1.98998 1.62109,2.81055 l -4.4648,7.7246 -.0002,.9998 5.1291,1.967 4.4648,-7.7246 c 0.52673,0.09716 1.0682,0.154297 1.62305,0.154297 0.55484,0 1.09632,-0.05714 1.62305,-0.154297 l 4.4648,7.7246 5.1291,-1.967 -.0002,-.9998 -4.4648,-7.7246 c 0.702947,-0.82057 1.25243,-1.77174 1.62109,-2.81055 h 8.92969 v -5.93359 h -8.92969 c -0.36867,-1.03881 -0.918145,-1.98998 -1.62109,-2.81055 l 4.465,-6.7249 -.0002,-.9997 -5.1289,-2.9668 -4.4648,7.7246 c -0.52673,-0.097164 -1.0682,-0.154297 -1.62305,-0.154297 -0.55484,1e-06 -1.09632,0.05714 -1.62305,0.154297 z  m 6.2598,10.5391 c 3.20767,0.09348 5.75956,2.72066 5.75977,5.92969 0,3.2765 -2.65612,5.93262 -5.93262,5.93262 -3.27649,0 -5.93262,-2.65612 -5.93262,-5.93261 0.00021,-3.34406 2.76283,-6.02714 6.10547,-5.92969 z "/>
<path style="fill:#fff" id="path4143" d="m 17.9121,7.5312 -5.1291,2.9667 l 4.465,7.7247 c -0.702947,0.82057 -1.25243,1.77174 -1.62109,2.81055 h -8.92969 v 5.93359 h 8.92969 c 0.36867,1.03881 0.918145,1.98998 1.62109,2.81055 l -4.465,7.7247 5.1291,2.9667 4.4648,-7.7246 c 0.52673,0.09716 1.0682,0.154297 1.62305,0.154297 0.55484,0 1.09632,-0.05714 1.62305,-0.154297 l 4.4648,7.7246 5.1291,-2.9667 -4.465,-7.7247 c 0.702947,-0.82057 1.25243,-1.77174 1.62109,-2.81055 h 8.92969 v -5.93359 h -8.92969 c -0.36867,-1.03881 -0.918145,-1.98998 -1.62109,-2.81055 l 4.465,-7.7247 -5.1291,-2.9667 -4.4648,7.7246 c -0.52673,-0.097164 -1.0682,-0.154297 -1.62305,-0.154297 -0.55484,1e-06 -1.09632,0.05714 -1.62305,0.154297 z  m 6.2598,10.5391 c 3.20767,0.09348 5.75956,2.72066 5.75977,5.92969 0,3.2765 -2.65612,5.93262 -5.93262,5.93262 -3.27649,0 -5.93262,-2.65612 -5.93262,-5.93261 0.00021,-3.34406 2.76283,-6.02714 6.10547,-5.92969 z "/>
</g>
</svg>
