<svg width="48" version="1.1" xmlns="http://www.w3.org/2000/svg" height="48" xmlns:xlink="http://www.w3.org/1999/xlink">
<defs id="defs4">
<linearGradient id="linearGradient3670-5">
<stop offset="0" style="stop-color:#fafafa" id="stop3672-4"/>
<stop offset="1" style="stop-color:#c8c8c8" id="stop3674-0"/>
</linearGradient>
<linearGradient gradientTransform="matrix(0.46071209,0,0,0.46071209,-9.2532436,1005.2378)" xlink:href="#linearGradient3834" id="linearGradient3813" y1="60.327255" x1="69.087135" y2="36.595539" gradientUnits="userSpaceOnUse" x2="69.087135"/>
<linearGradient id="linearGradient3834">
<stop offset="0" style="stop-color:#d40000" id="stop3836-4"/>
<stop offset="1" style="stop-color:#d41400" id="stop3838-6"/>
</linearGradient>
<linearGradient gradientTransform="translate(-3.9143411,-1.7677669)" xlink:href="#linearGradient3834" id="linearGradient3781" y1="1013.5833" x1="12.962255" y2="1013.5833" x2="18.247646" gradientUnits="userSpaceOnUse"/>
<linearGradient gradientTransform="translate(-5.3143399,-1.7677669)" xlink:href="#linearGradient3670-5" id="linearGradient3780" y1="1009.1693" x1="12.434731" y2="1047.5551" x2="12.564446" gradientUnits="userSpaceOnUse"/>
<linearGradient gradientTransform="translate(-1.6308891,1.6414979)" xlink:href="#linearGradient3670-5" id="linearGradient3772" y1="1009.1693" x1="22.622" y2="1047.5551" x2="22.877985" gradientUnits="userSpaceOnUse"/>
</defs>
<g id="layer1" transform="translate(0,-1004.3622)">
<g style="color:#000" id="g16">
<g style="stroke-width:.5" id="g18">
<rect width="24.878454" x="6.5469999" y="1007.9444" rx="2.7642727" ry="2.7642727" height="38.699814" style="opacity:.36;stroke:#000" id="rect3787"/>
<path style="fill:url(#linearGradient3780);stroke:#c8c8c8" id="rect3698-2" d="m 10.0109,1007.2446 19.3499,0 c 1.53141,0 2.76427,1.2329 2.76427,2.7643 v 33.1713 c 0,1.5314 -1.23287,2.7642 -2.76427,2.7642 h -19.3499 c -2.05202,0 -2.76427,-0.8687 -2.76427,-2.7642 v -33.1713 c 0,-1.5314 1.23287,-2.7643 2.76427,-2.7643 z "/>
<rect width="24.878454" x="20.291" y="1011.3534" rx="2.7642727" height="38.699814" ry="2.7642727" style="opacity:.36;stroke:#000" id="rect3785"/>
<path style="fill:url(#linearGradient3772);stroke:#c8c8c8" id="rect3666-4" d="m 23.7554,1010.6538 19.3499,0 c 1.53141,0 2.76427,1.2329 2.76427,2.7643 v 33.1712 c 0,1.5315 -1.23287,2.7643 -2.76427,2.7643 h -19.3499 c -1.96291,0 -2.76427,-0.8013 -2.76427,-2.7643 v -33.1712 c 0,-1.5314 1.23287,-2.7643 2.76427,-2.7643 z "/>
</g>
<path style="fill:url(#linearGradient3813);stroke:none;stroke-width:1.5" id="path3805-7" d="m 10.6214,1016.5483 c -0.740715,0 -1.34374,0.603 -1.34374,1.3437 0,0.046 -0.0045,0.089 0,0.1344 0.115718,1.9867 2.68749,3.8968 2.68749,3.8968 0,0 2.54624,-1.9894 2.66509,-3.8968 0.0046,-0.045 0.0224,-0.088 0.0224,-0.1344 0,-0.7407 -0.603029,-1.3437 -1.34374,-1.3437 -0.740714,0 -1.34374,0.603 -1.34374,1.3437 0,-0.7407 -0.603029,-1.3437 -1.34375,-1.3437 z "/>
</g>
<g style="stroke:none" id="g25">
<path style="fill:url(#linearGradient3781);font-family:Serif;text-align:start;word-spacing:0;line-height:125%;letter-spacing:0;font-size:10.88891315px" id="path3913" d="m 9.0479,1009.1616 0,.3807 .6943,0 0,4.5463 -.6943,0 0,.3807 2.1276,0 0,-.3807 -.6943,0 0,-2.15 2.5755,2.5307 1.2766,0 0,-.3807 -.6271,0 -2.6203,-2.5531 2.3516,-1.9932 .6047,0 0,-.3807 -1.8141,0 0,.3807 .6047,0 -2.3516,2.0156 0,-2.0156 .6943,0 0,-.3807 z "/>
<g style="color:#000;stroke-width:1.5" id="layer1-0" transform="translate(2.8984809,1.1997882)">
<path id="path3013" d="m 21.8125,6.9375 -2.0312,5.7188 -.7188,.125 0,.1875 2,0 0,-.1875 -.8125,-.125 .625,-1.75 2.3438,0 .5938,1.75 -.8125,.125 0,.1875 2.5625,0 0,-.1875 -.75,-.125 -2.1562,-5.7188 -.8438,0 z  m .2188,.625 1.0938,2.9375 -2.125,0 1.0312,-2.9375 z " transform="translate(0,1004.3622)"/>
<path id="path3009" d="m 22.2812,1018.3184 c 0,0 2.59954,1.7041 2.71875,3.3438 0.0046,0.038 0,0.084 0,0.125 0,0.6368 -0.60084,1.125 -1.34375,1.125 -0.628378,0 -1.13346,-0.3446 -1.28125,-0.8438 0.258455,1.783 1.4375,2.4063 1.4375,2.4063 h -3.03125 c 0,0 1.16412,-0.629 1.4375,-2.375 -0.166622,0.4746 -0.642076,0.8125 -1.25,0.8125 -0.742911,0 -1.34375,-0.4882 -1.34375,-1.125 0,-0.039 -0.0046,-0.086 0,-0.125 0.116074,-1.7079 2.65625,-3.3438 2.65625,-3.3438 z "/>
<path id="path3007" d="m 29.9688,1021.5997 c 0,0 5.8267,3.8268 6.09375,7.5 0.01041,0.085 0,0.1596 0,0.25 0,1.4265 -1.33569,2.5625 -3,2.5625 -1.40773,0 -2.57517,-0.7876 -2.90625,-1.9062 0.579007,3.9943 3.21875,5.4062 3.21875,5.4062 h -6.8125 c 0,0 2.63756,-1.4013 3.25,-5.3125 -0.373275,1.0632 -1.45059,1.8125 -2.8125,1.8125 -1.66431,0 -3,-1.136 -3,-2.5625 0,-0.088 -0.01041,-0.1623 0,-0.25 0.260037,-3.8262 5.96875,-7.5 5.96875,-7.5 z "/>
<path id="path3005" d="m 36.3438,1033.4747 2.9375,0 c 0,0 -1.12477,0.6176 -1.375,2.3438 0.143083,-0.4834 0.641621,-0.8438 1.25,-0.8438 0.719267,0 1.28125,0.5085 1.28125,1.125 0,0.039 0.0044,0.057 0,0.094 -0.115414,1.5874 -2.625,3.25 -2.625,3.25 0,0 -2.45012,-1.5966 -2.5625,-3.25 -0.0044,-0.038 0,-0.056 0,-0.094 0,-0.6165 0.561984,-1.125 1.28125,-1.125 0.588576,0 1.05743,0.3532 1.21875,0.8125 -0.264679,-1.6902 -1.40625,-2.3125 -1.40625,-2.3125 z "/>
<path id="path3003" d="m 34.5625,36.5625 0,.2188 .6875,.0938 1.9375,5.5938 .875,0 2.0625,-5.5938 .7188,-.0938 0,-.2188 -2.4375,0 0,.2188 .75,.0938 -.5625,1.75 -2.3125,0 -.5938,-1.75 .7812,-.0938 0,-.2188 -1.9062,0 z  m 1.8438,2.4375 h 2.03125 l -1,2.8438 -1.0312,-2.8438 z " transform="translate(0,1004.3622)"/>
</g>
</g>
</g>
</svg>
