<svg width="48" version="1.1" xmlns="http://www.w3.org/2000/svg" height="48">
<g id="layer1" transform="translate(0,-1004.3622)">
<g style="fill:none;stroke:none">
<path id="path3265" d="m 27.5,1048.8622 a 3.50243,3.50011 0 1,1 -7.00485,0 3.50243,3.50011 0 1,1 7.00485,0 z " transform="matrix(1,0,0,1.0444472,0,-46.77459)"/>
<path id="path3267" d="m 27.5,1007.8622 a 3.50243,3.50011 0 1,1 -7.00485,0 3.50243,3.50011 0 1,1 7.00485,0 z " transform="matrix(1,0,0,1.2420366,0,-243.09243)"/>
<g style="fill-rule:evenodd">
<path id="path3269" d="m 11,1028.3622 c 0,3.0376 -2.46414,5.5002 -5.50381,5.5002 -3.03967,0 -5.50381,-2.4626 -5.50381,-5.5002 0,-3.0377 2.46414,-5.5002 5.50381,-5.5002 3.03967,0 5.50381,2.4625 5.50381,5.5002 z "/>
<path id="path3271" d="m 48,1028.3622 c 0,3.0376 -2.46414,5.5002 -5.50381,5.5002 -3.03967,0 -5.50381,-2.4626 -5.50381,-5.5002 0,-3.0377 2.46414,-5.5002 5.50381,-5.5002 3.03967,0 5.50381,2.4625 5.50381,5.5002 z "/>
</g>
<path id="path3293" d="m 27.5,1048.8622 a 3.50243,3.50011 0 1,1 -7.00485,0 3.50243,3.50011 0 1,1 7.00485,0 z " transform="matrix(1,0,0,1.0444472,0,-46.77459)"/>
<path id="path3295" d="m 27.5,1007.8622 a 3.50243,3.50011 0 1,1 -7.00485,0 3.50243,3.50011 0 1,1 7.00485,0 z " transform="matrix(1,0,0,1.2420366,0,-243.09243)"/>
</g>
<g style="fill-rule:evenodd">
<g style="stroke:none;fill:none">
<path id="path3297" d="m 11,1028.3622 c 0,3.0376 -2.46414,5.5002 -5.50381,5.5002 -3.03967,0 -5.50381,-2.4626 -5.50381,-5.5002 0,-3.0377 2.46414,-5.5002 5.50381,-5.5002 3.03967,0 5.50381,2.4625 5.50381,5.5002 z "/>
<path id="path3299" d="m 48,1028.3622 c 0,3.0376 -2.46414,5.5002 -5.50381,5.5002 -3.03967,0 -5.50381,-2.4626 -5.50381,-5.5002 0,-3.0377 2.46414,-5.5002 5.50381,-5.5002 3.03967,0 5.50381,2.4625 5.50381,5.5002 z "/>
</g>
<g style="stroke-linecap:square;stroke-miterlimit:2;stroke:#003bc3;stroke-width:0">
<g style="fill:#2980b9">
<rect width="13.150457" x="23.946743" y="1011.4157" height="10.309778" id="shape11"/>
<rect width="13.150457" x="23.946743" y="1023.014" height="10.309778" id="shape21"/>
<rect width="13.150457" x="23.946743" y="1034.6125" height="10.309778" id="shape3"/>
</g>
<g style="fill:#3498db">
<rect width="13.128598" x="10.859916" y="1011.4158" height="10.309782" id="rect15"/>
<rect width="13.128598" x="10.859916" y="1023.0146" height="10.309782" id="rect17"/>
<rect width="13.128598" x="10.859916" y="1034.6129" height="10.309782" id="shape31"/>
</g>
<g style="fill-opacity:.875;fill:#ecf0f1">
<rect width="2.0955863" x="11.766102" y="1012.9622" height="6.1755695" id="shape4"/>
<rect width="2.0955863" x="11.766102" y="1024.5607" height="6.1755695" id="shape5"/>
<rect width="2.0955863" x="11.823205" y="1036.1592" height="6.1755695" id="shape6"/>
</g>
</g>
</g>
</g>
</svg>
