<svg width="48" version="1.1" xmlns="http://www.w3.org/2000/svg" height="48">
<defs id="defs">
<linearGradient gradientTransform="matrix(0.20987022,0,0,0.15384554,1,1)" id="logoShadingGrad" y1="50.80685" x1="0" y2="50.80685" x2="202.05939" gradientUnits="userSpaceOnUse">
<stop offset="0" style="stop-color:#bfbfbf" id="logoShadingGrad1"/>
<stop offset="1" style="stop-color:#dfdfdf" id="logoShadingGrad2"/>
</linearGradient>
<linearGradient gradientTransform="matrix(0.05431841,-0.20271907,0.14860338,0.03981816,-6.6394822,40.233104)" id="logoGrad" y1="52.558804" x1="0" y2="52.558804" x2="202.0594" gradientUnits="userSpaceOnUse">
<stop offset="0" style="stop-color:#bfbfbf" id="logoGrad1"/>
<stop offset="0.30000001" style="stop-color:#8f8f8f" id="logoGrad2"/>
<stop offset="1" style="stop-color:#dfdfdf" id="logoGrad3"/>
</linearGradient>
</defs>
<g style="stroke:none">
<rect width="48" x="0" y="-48" rx="7.8000002" ry="7.8000002" height="48" style="fill:#e6e6e6" id="rect4875" transform="matrix(0,1,-1,0,0,0)"/>
<rect width="46" x="1" y="-47" rx="7.1875" height="46" ry="7.1875" style="fill:#282828" id="bg" transform="matrix(0,1,-1,0,0,0)"/>
<path style="fill:url(#logoShadingGrad)" id="logoShading" d="m 34.2422,8.8164 c -5.06117,0 -9.16406,4.10289 -9.16406,9.16406 l -6.2891,8.625 c -1.35522,0 -2.61564,0.404315 -3.66675,1.10058 l -14.1223,-6.1318 -0,8.2656 11.2192,4.4192 c 0.485292,3.19398 3.24032,5.64332 6.56982,5.64332 3.67183,2e-06 6.64844,-2.97661 6.64844,-6.64844 l 8.8047,-6.1094 c 5.06117,0 9.16406,-4.10289 9.16406,-9.16406 0,-5.06117 -4.10289,-9.16406 -9.16406,-9.16406 z  m 0,3.2344 c 3.27488,0 5.92969,2.65481 5.92969,5.92969 0,3.27487 -2.65481,5.92968 -5.92969,5.92968 -3.27488,2e-06 -5.92969,-2.65481 -5.92969,-5.92968 0,-3.27488 2.65481,-5.92969 5.92969,-5.92969 z  m 0,1.2578 c -2.5802,0 -4.85156,2.09167 -4.85156,4.67187 0,2.5802 2.27136,4.85156 4.85156,4.85156 2.5802,-2e-06 4.67188,-2.27136 4.67188,-4.85156 0,-2.5802 -2.09167,-4.67187 -4.67188,-4.67187 z  m -15.2734,14.7344 c 2.77868,0 5.03125,2.25256 5.03125,5.03125 0,2.77869 -2.25257,5.03125 -5.03125,5.03125 -2.0569,0 -3.82446,-1.2358 -4.60449,-3.00416 l 1.8643,.7356 c 0.673321,0.624825 1.56954,1.01074 2.56055,1.01074 2.08401,2e-06 3.77344,-1.68942 3.77344,-3.77343 0,-2.08402 -1.68943,-3.77344 -3.77344,-3.77344 l -1.8811,-.8198 c 0.629082,-0.282884 1.32631,-0.43799 2.06079,-0.437988 z "/>
<path style="fill:url(#logoGrad)" id="logo" d="m 34.2422,9.0859 c -5.06117,0 -9.16406,4.1029 -9.16406,9.16406 l -6.2891,8.625 c -1.35522,0 -2.61565,0.404315 -3.66675,1.10058 l -14.1223,-6.1318 -0,8.2656 11.2192,4.4192 c 0.485292,3.19398 3.24032,5.64332 6.56982,5.64332 3.67183,2e-06 6.64844,-2.97661 6.64844,-6.64844 l 8.8047,-6.1094 c 5.06117,0 9.16406,-4.10289 9.16406,-9.16406 0,-5.06117 -4.10289,-9.16406 -9.16406,-9.16406 z  m 0,3.2344 c 3.27488,0 5.92969,2.65481 5.92969,5.92969 0,3.27487 -2.65481,5.92968 -5.92969,5.92968 -3.27488,2e-06 -5.92969,-2.65481 -5.92969,-5.92968 0,-3.27488 2.65481,-5.92969 5.92969,-5.92969 z  m 0,1.2578 c -2.5802,0 -4.85156,2.09167 -4.85156,4.67187 0,2.5802 2.27136,4.85156 4.85156,4.85156 2.5802,-1e-06 4.67188,-2.27136 4.67188,-4.85156 0,-2.5802 -2.09167,-4.67187 -4.67188,-4.67187 z  m -15.2734,14.7344 c 2.77868,0 5.03125,2.25256 5.03125,5.03125 0,2.77869 -2.25257,5.03125 -5.03125,5.03125 -2.0569,0 -3.82446,-1.2358 -4.60449,-3.00416 l 1.8643,.7356 c 0.67332,0.624825 1.56954,1.01074 2.56055,1.01074 2.08401,2e-06 3.77344,-1.68942 3.77344,-3.77343 0,-2.08402 -1.68943,-3.77344 -3.77344,-3.77344 l -1.8811,-.8198 c 0.629083,-0.282884 1.32631,-0.43799 2.06079,-0.437988 z "/>
<path style="fill:#fff;fill-opacity:.176" id="glass" d="M 8.1875,1 C 4.205625,1 1,4.205625 1,8.1875 l 0,9.658203 C 7.7658705,21.759432 15.621609,24 24,24 32.378391,24 40.234129,21.759432 47,17.845703 L 47,8.1875 C 47,4.205625 43.794375,1 39.8125,1 L 8.1875,1 Z"/>
</g>
</svg>
