<svg width="48" version="1.1" xmlns="http://www.w3.org/2000/svg" viewBox="0 0 48 48" height="48" xmlns:xlink="http://www.w3.org/1999/xlink">
<path style="fill:#2a62b2" id="path65" d="m 5.1429,2.0001 h 37.7143 a 3.14286,3.14286 0 0,1 3.14286,3.14286 v 37.7143 a 3.14286,3.14286 0 0,1 -3.14286,3.14286 h -37.7143 a 3.14286,3.14286 0 0,1 -3.14286,-3.14286 v -37.7143 a 3.14286,3.14286 0 0,1 3.14286,-3.14286"/>
<path style="fill:#fff;fill-rule:evenodd" id="path67" d="m 6.6376,2.0001 7.3462,27.5773 c 0.01,-0.279086 0.04667,-0.524649 0.132681,-0.74622 0.102509,-0.258185 0.210572,-0.47211 0.381385,-0.646748 0.170815,-0.174637 0.385787,-0.323452 0.613591,-0.414594 0.227805,-0.09115 0.471481,-0.132681 0.729667,-0.132681 0.163272,0 0.318633,-0.0062 0.447752,0.01661 0.12912,0.02278 0.236762,0.06915 0.331676,0.09947 0.09869,0.03038 0.187995,0.05254 0.248757,0.08292 0.06076,0.03038 0.109896,0.08434 0.132681,0.09947 l -.1658,.4146 c -0.03416,-0.02278 -0.0847,-0.02316 -0.149233,-0.04976 -0.06454,-0.02661 -0.132053,-0.05636 -0.2156,-0.08292 -0.07973,-0.02655 -0.199781,-0.05113 -0.298467,-0.06631 -0.09492,-0.01902 -0.166624,-0.03315 -0.265309,-0.03315 -0.20879,0 -0.413338,0.02735 -0.580381,0.09947 -0.167043,0.07213 -0.296896,0.194962 -0.414596,0.331676 -0.1177,0.136715 -0.21738,0.300091 -0.281913,0.497462 -0.06076,0.1936 -0.08292,0.403753 -0.08292,0.646748 0,0.2354 0.02976,0.4697 0.08292,0.6633 0.05694,0.1936 0.138652,0.357028 0.248756,0.497462 0.110106,0.136662 0.251325,0.222566 0.414596,0.298466 0.167042,0.07596 0.360223,0.116077 0.580381,0.116077 0.254361,0 0.4631,-0.0132 0.630142,-0.06632 0.167043,-0.05311 0.281287,-0.09088 0.364834,-0.132681 l .1492,.4311 c -0.02655,0.01896 -0.08093,0.05254 -0.149234,0.08292 -0.06835,0.02655 -0.146247,0.03975 -0.248757,0.06632 -0.102509,0.02655 -0.211567,0.06395 -0.348229,0.08292 -0.136661,0.01896 -0.304857,0.0166 -0.464305,0.0166 -0.277147,0 -0.518466,-0.04154 -0.746218,-0.132681 -0.227753,-0.09115 -0.433715,-0.206747 -0.596987,-0.381386 -0.03421,-0.03656 -0.06835,-0.0924 -0.09952,-0.13268 l 2.305,8.6231 24.3271,-7.8934 -2.6533,-14.1286 -.1824,.4643 c -0.280448,-0.183752 -0.646853,-0.348281 -1.11105,-0.464304 -0.4642,-0.125715 -0.959147,-0.198996 -1.44273,-0.198996 h -0.132681 l 1.6583,7.8934 .1327,-.0498 v -3.74777 h 1.40952 v 4.70952 c -0.116076,0.03865 -0.291657,0.08434 -0.514067,0.13268 -0.212771,0.04835 -0.456081,0.08434 -0.746219,0.132681 h -0.03315 l .3814,1.8075 c 0.0076,0.01603 -0.0068,0.04976 0,0.06632 0.04531,0.110891 0.07255,0.229115 0.08292,0.364834 l .4311,2.0729 -.4146,-1.9236 c -0.0064,0.245981 -0.06553,0.453358 -0.198995,0.630144 -0.136662,0.186005 -0.344038,0.340056 -0.61359,0.431147 0.06076,0.07595 0.141062,0.173224 0.232152,0.298467 0.09492,0.121471 0.166623,0.262691 0.26531,0.414595 0.09868,0.148081 0.220157,0.301086 0.31507,0.464305 0.09869,0.163271 0.1804,0.2959 0.248758,0.447752 h -0.61359 c -0.0759,-0.144257 -0.157615,-0.266514 -0.248757,-0.414595 -0.09115,-0.148081 -0.157615,-0.298257 -0.248758,-0.431147 -0.09109,-0.136662 -0.207376,-0.263739 -0.298466,-0.381387 -0.09109,-0.117647 -0.160025,-0.211147 -0.232153,-0.298466 -0.04935,0.0038 -0.09612,0 -0.149234,0 h -0.149243 -0.497462 v 1.52565 h -0.563829 v -3.86383 c 0.155676,-0.03797 0.324238,-0.05494 0.514067,-0.06632 0.1936,-0.01519 0.387777,-0.03315 0.547224,-0.03315 0.554295,0 0.955166,0.106281 1.24373,0.315072 0.123567,0.08826 0.243781,0.190719 0.315071,0.315072 l -.4146,-1.708 c -0.2585,0.04301 -0.538109,0.08973 -0.845743,0.116075 -0.338485,0.03865 -0.663404,0.03315 -1.01158,0.03315 -0.70599,0 -1.35997,-0.09958 -1.94019,-0.331675 -0.580223,-0.2321 -1.06003,-0.56671 -1.47589,-1.01158 -0.415852,-0.444872 -0.762876,-1.01032 -0.994976,-1.65828 -0.22241,-0.647953 -0.315071,-1.38076 -0.315071,-2.2221 0,-0.841344 0.113404,-1.59076 0.364833,-2.23871 0.261119,-0.657643 0.626109,-1.2134 1.06129,-1.65828 0.435181,-0.444871 0.928768,-0.779481 1.50904,-1.01158 0.438376,-0.17249 0.912267,-0.270077 1.39297,-0.315071 l -3.2005,-14.3111 h -11.1769 l 1.1774,6.2186 -1.2934,-6.2186 h -8.97134 l 3.0844,14.8914 c 0.583419,-0.412606 1.35651,-0.613591 2.32163,-0.613591 0.609242,0 1.16506,0.08019 1.65828,0.2156 0.502909,0.125714 0.862347,0.259862 1.09445,0.414595 l -.4478,1.1442 c -0.203081,-0.125713 -0.489291,-0.248756 -0.895452,-0.364832 -0.396524,-0.125715 -0.877643,-0.198996 -1.40952,-0.198996 -0.27081,0 -0.51412,0.04148 -0.74622,0.09952 -0.2321,0.05804 -0.439476,0.149285 -0.61359,0.26531 -0.174114,0.116024 -0.30821,0.264 -0.414595,0.447752 -0.08114,0.146038 -0.134305,0.320257 -0.149234,0.514067 l .1492,.796 c 0.106385,0.183752 0.270915,0.352419 0.464305,0.497462 0.193442,0.135404 0.411871,0.248757 0.6633,0.364832 0.261119,0.116025 0.552829,0.232206 0.862295,0.34823 0.435181,0.174061 0.836157,0.356557 1.19397,0.53067 0.367505,0.174062 0.667544,0.3718 0.928663,0.613591 0.270809,0.24179 0.4851,0.523809 0.630142,0.862296 0.145043,0.328794 0.198995,0.736685 0.198995,1.21057 0,0.880053 -0.313866,1.56583 -0.961818,2.03972 -0.595834,0.442357 -1.41093,0.651619 -2.47086,0.679904 l .1161,.597 -.1327,-.597 c -0.07114,0.0018 -0.14237,0.01661 -0.2156,0.01661 -0.396523,0 -0.772566,-0.04149 -1.11105,-0.09947 -0.328796,-0.04834 -0.634387,-0.08155 -0.895453,-0.149234 -0.261119,-0.07736 -0.486462,-0.154785 -0.679905,-0.232151 -0.183752,-0.08705 -0.324761,-0.157562 -0.431148,-0.2156 l .4311,-1.1608 c 0.222409,0.125715 0.557019,0.259862 1.01158,0.414595 0.438743,0.14939 0.964124,0.227124 1.59196,0.232152 l -.8789,-3.9301 c -0.08978,-0.03866 -0.177885,-0.05836 -0.26531,-0.09947 -0.328794,-0.164424 -0.637109,-0.367662 -0.8789,-0.580381 -0.24179,-0.22241 -0.435337,-0.4796 -0.580381,-0.779377 -0.135404,-0.299776 -0.18239,-0.685561 -0.18239,-1.11105 0,-0.858786 0.27479,-1.53272 0.845743,-2.02311 l -3.4492,-15.0407 h -4.39445 z  m 25.5708,0 3.0181,14.2944 c 0.110367,-0.0068 0.219005,-0.01661 0.331676,-0.01661 0.45451,0 0.8624,0.02488 1.21058,0.08292 0.357815,0.05804 0.644024,0.121629 0.895453,0.198995 0.192185,0.05914 0.344038,0.123828 0.480909,0.18239 l -2.7528,-14.7421 h -3.18393 z  m -11.4422,14.51 h 1.5422 c 0.522238,1.52801 1.0559,2.98252 1.55881,4.39445 0.502909,1.41193 1.01032,2.74204 1.5422,3.9799 0.531875,-1.22818 1.05589,-2.53477 1.5588,-3.94675 0.502909,-1.42162 0.996496,-2.89965 1.50904,-4.4276 h 1.50904 c -0.367505,1.0638 -0.722805,2.0427 -1.06129,2.95177 -0.328796,0.899381 -0.642663,1.75801 -0.96182,2.57033 -0.319157,0.812323 -0.642661,1.59353 -0.961819,2.33818 -0.309467,0.735009 -0.616419,1.46363 -0.945214,2.18895 h -1.32665 c -0.328794,-0.725267 -0.659266,-1.45389 -0.978371,-2.18889 -0.309467,-0.744649 -0.632972,-1.52586 -0.961819,-2.33818 -0.319157,-0.812377 -0.639885,-1.67095 -0.978372,-2.57033 -0.338485,-0.909071 -0.686871,-1.88797 -1.04474,-2.95177 z  m 14.4768,1.0116 c -0.366719,0.03399 -0.692423,0.110943 -1.01158,0.248756 -0.415851,0.183753 -0.778066,0.46441 -1.07789,0.812587 -0.290137,0.348176 -0.515481,0.773981 -0.679905,1.27689 -0.164423,0.493219 -0.265309,1.05595 -0.265309,1.67488 0,0.599604 0.09675,1.1485 0.232152,1.64172 0.145043,0.493219 0.333091,0.919077 0.613591,1.27689 0.290138,0.348177 0.645438,0.602538 1.06129,0.795981 0.425491,0.193443 0.921853,0.298467 1.49244,0.298467 0.406162,0 0.764238,-0.02766 1.04474,-0.06631 0.197791,-0.03295 0.292967,-0.05416 0.414596,-0.08292 l -1.7578,-7.8769 h -0.06632 z  m -19.5678,4.1623 .8126,3.8804 h 0.01661 c 1.46997,0 2.18895,-0.519881 2.18895,-1.52565 0,-0.309466 -0.06359,-0.550052 -0.198995,-0.762823 -0.125714,-0.22241 -0.291657,-0.425649 -0.514067,-0.580381 -0.222404,-0.164479 -0.47268,-0.28197 -0.762818,-0.398046 -0.280448,-0.116077 -0.5929,-0.248757 -0.912058,-0.364833 -0.217694,-0.07448 -0.427113,-0.165367 -0.630142,-0.248757 z  m 1.9568,6.0528 h 0.563829 v 3.46584 h 1.82411 v 0.447753 h -2.38794 v -3.91354 z  m 2.9683,0 h 2.4211 v 0.464305 h -1.87388 v 1.17737 h 1.65828 v 0.447752 h -1.65828 v 1.37636 h 2.00645 v 0.447753 h -2.55378 v -3.91354 z  m 4.494,0 h 0.497462 c 0.136661,0.284743 0.2893,0.569957 0.414595,0.862295 0.125295,0.288515 0.239538,0.593162 0.364834,0.912058 0.129066,0.318894 0.248547,0.654709 0.381385,1.01158 0.13289,0.353047 0.279296,0.710023 0.431147,1.12766 h -0.61359 c -0.06454,-0.170867 -0.1089,-0.301086 -0.165838,-0.464306 -0.05694,-0.167042 -0.121681,-0.343251 -0.182391,-0.514066 h -1.7909 l -.3317,.9784 h -0.596987 c 0.151853,-0.417634 0.281706,-0.774557 0.414596,-1.12766 0.132891,-0.356872 0.272695,-0.692634 0.397991,-1.01158 0.129066,-0.318896 0.256142,-0.623543 0.381385,-0.912058 0.125295,-0.292338 0.261328,-0.577552 0.39799,-0.862295 z  m 2.6367,0 h 0.447752 c 0.17841,0.189829 0.346029,0.392385 0.547224,0.646747 0.205019,0.250591 0.399562,0.526429 0.596986,0.795982 0.197423,0.269552 0.405742,0.521243 0.58038,0.779376 0.17841,0.258186 0.326281,0.495261 0.447753,0.696457 v -2.91856 h 0.530671 v 3.91354 h -0.464304 c -0.08355,-0.140485 -0.17181,-0.273114 -0.281915,-0.447753 -0.106281,-0.174638 -0.222933,-0.344613 -0.348228,-0.53067 -0.125296,-0.186058 -0.244724,-0.403386 -0.381386,-0.596986 -0.132891,-0.1936 -0.281705,-0.368814 -0.414595,-0.547224 -0.132891,-0.182233 -0.256143,-0.338014 -0.381386,-0.497462 -0.125243,-0.159448 -0.241948,-0.309677 -0.348229,-0.431148 v 3.05124 h -0.530671 v -3.91354 z  m 4.1291,0 h 2.4211 v 0.464305 h -1.84072 v 1.17737 h 1.64172 v 0.447752 h -1.64172 v 1.37636 h 1.97335 v 0.447753 h -2.55378 v -3.91354 z  m 3.8141,.4478 v 1.49244 h 0.381386 c 0.189829,0 0.362214,-0.0142 0.514067,-0.03315 0.151852,-0.01896 0.278876,-0.04636 0.381385,-0.09952 0.10251,-0.05316 0.19182,-0.137238 0.248758,-0.232152 0.05694,-0.09869 0.08292,-0.221938 0.08292,-0.381386 0,-0.148081 -0.02598,-0.266095 -0.08292,-0.364833 -0.05694,-0.09874 -0.116862,-0.175214 -0.2156,-0.232153 -0.09492,-0.05694 -0.215338,-0.09329 -0.348228,-0.116076 -0.132891,-0.02278 -0.283068,-0.03315 -0.431149,-0.03315 -0.2354,0 -0.405376,-0.01136 -0.530671,0 z  m -10.3477,.1658 c -0.13289,0.284743 -0.259913,0.600756 -0.381385,0.912056 -0.1177,0.307529 -0.230528,0.631506 -0.348228,0.961819 h 1.45928 c -0.121472,-0.330313 -0.226758,-0.65429 -0.34823,-0.961819 -0.1177,-0.3113 -0.252319,-0.627313 -0.381385,-0.912056 z  m 15.7206,3.7643 -24.3105,7.91 .2985,1.4261 6.4508,-1.2769 6.2186,-2.0894 -5.3563,2.6035 c 0,0 4.20409,-1.07936 4.80904,1.65828 l .8623,3.6482 h 2.2221 l -.9783,-4.3115 c -0.616524,-2.78991 3.48239,-4.3779 3.48239,-4.3779 l -.1492,-.7462 .6965,-.2322 6.0859,-2.8025 -.3317,-1.4095 z "/>
</svg>
