<svg width="48" version="1.1" xmlns="http://www.w3.org/2000/svg" height="48">
<path style="fill:#ccaa7d" d="m 6,4.1217 h 36 c 1.662,0 3,1.338 3,3 v 34.8783 c 0,1.662 -1.338,3 -3,3 h -36 c -1.662,0 -3,-1.338 -3,-3 v -34.8783 c 0,-1.662 1.338,-3 3,-3 z "/>
<path style="fill:#3c2510" d="m 6.834,9.9614 h 34.2481 c 1.58112,0 2.85401,1.30227 2.85401,2.91988 v 1.83975 c 0,1.61761 -1.27289,2.91988 -2.85401,2.91988 h -34.2481 c -1.58112,0 -2.85401,-1.30227 -2.85401,-2.91988 v -1.83975 c 0,-1.61761 1.27289,-2.91988 2.85401,-2.91988 z "/>
<g style="fill:#ccaa7d;stroke-width:1.022">
<path d="m 6.1312,4.1614 c -3.12339,0.058728 -3.13123,0.0073 -3.13123,2.91327 v 7.65269 c 0,2.92589 0.127445,2.84767 3.13047,2.91327 l 18.7882,-1.3709 v -13.0795 Z "/>
<path d="m 42.1312,4.1614 c 2.80376,0.058728 2.86876,0.066026 2.86876,2.91327 v 7.65269 c 0,2.99149 -0.245952,2.97887 -2.86876,2.91327 l -17.2126,-1.3709 v -13.0795 Z "/>
</g>
<path style="opacity:.5;fill:#3a240f" d="m 26.9785,3.2781 h -5.8984 l .0293,12.6751 .0655,4.4468 2.7671,-.253 2.9416,-.269 .0159,-3.202 .0496,-.7228 .0293,-12.6751 z "/>
<path style="fill:#d8cab2" d="m 26.9492,3.216 -2.9492,-.216 l -2.9492,.216 .0293,12.7888 .0655,3.9092 2.7675,-.242 2.9412,-.257 .0159,-2.9451 .0496,-.4651 .0293,-12.7888 Z "/>
<path style="opacity:.2;fill:#8d6137" d="M 23.513353,3.2092094 H 24 V 15.105 h -0.486647 z"/>
<path style="opacity:.3;fill:#fff" d="m 24,3.2092094 h 0.486647 V 15.105 H 24 Z"/>
<g style="fill-rule:evenodd">
<path style="opacity:.2" d="m 14.8009,20.793 7.8721,.1717 c 0.167952,0 0.347043,0.0037 0.514996,0.171666 0.167952,0.167951 0.171665,0.32252 0.171665,0.490473 l -.1717,7.725 c 0,0.335905 -0.17909,0.518709 -0.514997,0.686662 -0.335904,0.167952 -0.665851,-0.0037 -0.833803,-0.171666 l -2.3543,-2.5014 c -1.84748,2.35133 -1.84005,5.68871 0.34333,7.87205 1.17567,1.17567 2.68197,1.8638 4.19354,1.8638 1.51158,0 3.0424,-0.516463 4.21807,-1.69213 2.35134,-2.35133 2.33053,-6.03575 0.147142,-8.38709 -1.00771,-1.00772 -1.00771,-2.51998 0,-3.35974 0.797079,-0.753395 2.38172,-0.842012 3.35974,0.171666 4.03086,4.19882 3.88001,11.0757 -0.318807,15.1066 -2.01543,2.01543 -4.69809,3.01641 -7.55328,3.01641 -2.8552,-0.167954 -5.56238,-1.31979 -7.57781,-3.33522 -3.86291,-4.03086 -4.01005,-10.4418 -0.147141,-14.6406 l -1.8638,-1.8393 c -0.167951,-0.167953 -0.339618,-0.497898 -0.171666,-0.833803 0.167952,-0.335906 0.350757,-0.514997 0.686664,-0.514997 z "/>
<path style="fill:#fff" d="m 14.8009,21.093 7.8721,.1717 c 0.167952,0 0.347043,0.0037 0.514996,0.171666 0.167952,0.167951 0.171665,0.32252 0.171665,0.490473 l -.1717,7.725 c 0,0.335905 -0.17909,0.518709 -0.514997,0.686662 -0.335904,0.167952 -0.665851,-0.0037 -0.833803,-0.171666 l -2.3543,-2.5014 c -1.84748,2.35133 -1.84005,5.68871 0.34333,7.87205 1.17567,1.17567 2.68197,1.8638 4.19354,1.8638 1.51158,0 3.0424,-0.516463 4.21807,-1.69213 2.35134,-2.35133 2.33053,-6.03575 0.147142,-8.38709 -1.00771,-1.00772 -1.00771,-2.51998 0,-3.35974 0.797079,-0.753395 2.38172,-0.842012 3.35974,0.171666 4.03086,4.19882 3.88001,11.0757 -0.318807,15.1066 -2.01543,2.01543 -4.69809,3.01641 -7.55328,3.01641 -2.8552,-0.167954 -5.56238,-1.31979 -7.57781,-3.33522 -3.86291,-4.03086 -4.01005,-10.4418 -0.147141,-14.6406 l -1.8638,-1.8393 c -0.167951,-0.167953 -0.339618,-0.497898 -0.171666,-0.833803 0.167952,-0.335906 0.350757,-0.514997 0.686664,-0.514997 z "/>
</g>
<path style="opacity:.15;fill:#8d6137;stroke-linecap:round;stroke-width:.1" d="m 21.0949,16.5487 5.7753,-.0788 -.0062,1.1487 -5.7567,.0124 z "/>
</svg>
