<svg width="48" version="1.1" xmlns="http://www.w3.org/2000/svg" height="48" xmlns:xlink="http://www.w3.org/1999/xlink">
<defs id="defs4">
<clipPath id="clip0">
<rect width="640" height="409" id="rect7"/>
</clipPath>
</defs>
<g style="stroke:none">
<rect width="40.87833" x="3.5608358" y="4.1216722" rx="2.9198806" ry="0" height="40.87833" style="fill:#ccaa7d" id="rect2419"/>
<rect width="39.956001" x="3.9800367" y="5.9614763" rx="2.8539999" ry="2.9198806" height="11.679523" style="fill:#3c2510" id="rect2483"/>
<g style="fill:#ccaa7d" id="g30">
<path id="rect2481" d="M 6.855,4.1614 C 3.86179,4.220128 3.85427,4.1687 3.85427,7.07467 l 0,7.65272 c 0,2.92589 0.122133,2.84767 3.00073,2.91327 l 18.0044,-0.9711 0,-13.4793 z"/>
<path id="path3262" d="m 41.3546,4.1614 c 2.6869,0.058728 2.7492,0.066026 2.7492,2.91327 v 7.65272 c 0,2.99148 -0.235701,2.97887 -2.7492,2.91327 l -16.4952,-.9711 v -13.4793 z "/>
</g>
</g>
<path style="opacity:.5;fill:#3a240f" id="path5008" d="m 26.9785,3.2781 -5.8984,0 .0293,12.3137 .0655,4.8086 2.7675,-.2532 2.9412,-.2688 .0159,-2.8408 .0496,-1.4458 .0293,-12.3137 z "/>
<path style="fill:#d8cab2" id="polygon120" d="m 26.9492,3.216 -2.9492,-.216 l -2.9492,.216 .0293,12.5563 .0655,4.1414 2.7675,-.2418 2.9412,-.2567 .0159,-2.7128 .0496,-.9301 .0293,-12.5563 z "/>
<g style="stroke:none">
<g id="g36">
<rect width="0.48664677" x="23.513353" y="3.2092094" height="11.895531" style="opacity:.2;fill:#8d6137" id="rect4363"/>
<rect width="0.48664677" x="24" y="3.2092094" height="11.895531" style="opacity:.3;fill:#fff" id="rect4365"/>
</g>
<path style="fill:#fff;fill-rule:evenodd" id="path3046" d="m 14.8005,21.0927 7.8721,.1717 c 0.167952,0 0.347043,0.0037 0.514996,0.171666 0.167952,0.167951 0.171665,0.32252 0.171665,0.490473 l -.1717,7.725 c 0,0.335905 -0.17909,0.518709 -0.514997,0.686662 -0.335904,0.167952 -0.665851,-0.0037 -0.833803,-0.171666 l -2.3543,-2.5014 c -1.84748,2.35133 -1.84005,5.68871 0.34333,7.87205 1.17567,1.17567 2.68197,1.8638 4.19354,1.8638 1.51158,0 3.0424,-0.516463 4.21807,-1.69213 2.35134,-2.35133 2.33053,-6.03575 0.147142,-8.38709 -1.00771,-1.00772 -1.00771,-2.51998 0,-3.35974 0.797079,-0.753395 2.38172,-0.842012 3.35974,0.171666 4.03086,4.19882 3.88001,11.0757 -0.318807,15.1066 -2.01543,2.01543 -4.69809,3.01641 -7.55328,3.01641 -2.8552,-0.167954 -5.56238,-1.31979 -7.57781,-3.33522 -3.86291,-4.03086 -4.01005,-10.4418 -0.147141,-14.6406 l -1.8638,-1.8393 c -0.167951,-0.167953 -0.339618,-0.497898 -0.171666,-0.833803 0.167952,-0.335906 0.350757,-0.514997 0.686664,-0.514997 z "/>
</g>
</svg>
