<svg width="96" version="1.0" xmlns="http://www.w3.org/2000/svg" height="96" xmlns:xlink="http://www.w3.org/1999/xlink">
<defs>
<linearGradient gradientTransform="translate(0,2)" xlink:href="#linearGradient3850" id="linearGradient3862" y1="44" x1="67" y2="16" gradientUnits="userSpaceOnUse" x2="67"/>
<linearGradient gradientTransform="translate(0,38.4995)" xlink:href="#linearGradient3850" id="linearGradient22" y1="40" x1="80" y2="16" gradientUnits="userSpaceOnUse" x2="73.569221"/>
<linearGradient gradientTransform="translate(0,0.5005)" xlink:href="#linearGradient3850" id="linearGradient19" y1="40" x1="80" y2="16" gradientUnits="userSpaceOnUse" x2="73.569221"/>
<linearGradient gradientTransform="translate(0,37.4995)" xlink:href="#linearGradient3850" id="linearGradient21" y1="40" x1="80" y2="16" gradientUnits="userSpaceOnUse" x2="73.569221"/>
<linearGradient gradientTransform="translate(0,1.5005)" xlink:href="#linearGradient3850" id="linearGradient20" y1="40" x1="80" y2="16" gradientUnits="userSpaceOnUse" x2="73.569221"/>
<linearGradient gradientTransform="translate(0,39)" xlink:href="#linearGradient3850" id="linearGradient4280" y1="44" x1="67" y2="16" gradientUnits="userSpaceOnUse" x2="67"/>
<linearGradient id="linearGradient16">
<stop offset="0" style="stop-color:#fff"/>
<stop offset="1" style="stop-color:#fff;stop-opacity:0"/>
</linearGradient>
<linearGradient id="linearGradient3850">
<stop offset="0"/>
<stop offset="1" style="stop-opacity:0"/>
</linearGradient>
<linearGradient xlink:href="#linearGradient16" id="linearGradient17" y1="15" x1="16" y2="46.030998" x2="29.755302" gradientUnits="userSpaceOnUse"/>
<linearGradient gradientTransform="translate(0,38)" xlink:href="#linearGradient3850" id="linearGradient4282" y1="40" x1="80" y2="16" gradientUnits="userSpaceOnUse" x2="73.569221"/>
<linearGradient gradientTransform="translate(0,1)" xlink:href="#linearGradient3850" id="linearGradient3859" y1="40" x1="80" y2="16" gradientUnits="userSpaceOnUse" x2="73.569221"/>
<linearGradient gradientTransform="translate(0,37)" xlink:href="#linearGradient16" id="linearGradient18" y1="15" x1="16" y2="46.030998" gradientUnits="userSpaceOnUse" x2="29.755302"/>
</defs>
<g style="color:#000">
<path style="fill:#a28444" d="m 12.0244,5.8113 h 72 c 3.324,0 6,2.676 6,6 v 78 h -84 v -78 c 7.10543e-15,-3.324 2.676,-6 6,-6 z "/>
<path style="opacity:.07;fill:url(#linearGradient3862)" d="m 16,13.9685 c -1.66075,0 -3.03125,1.3705 -3.03125,3.03125 v 26 c 0,1.66075 1.3705,3.03125 3.03125,3.03125 h 64 c 1.66075,0 3.03125,-1.3705 3.03125,-3.03125 v -26 C 83.03125,15.339 81.66075,13.9685 80,13.9685 Z"/>
<path style="opacity:.1;fill:url(#linearGradient20)" d="m 16,13.469 c -1.66075,0 -3.03125,1.3705 -3.03125,3.03125 v 26 c 0,1.66075 1.3705,3.03125 3.03125,3.03125 h 64 c 1.66075,0 3.03125,-1.3705 3.03125,-3.03125 v -26 C 83.03125,14.8395 81.66075,13.469 80,13.469 Z"/>
<path style="opacity:.15;fill:url(#linearGradient3859)" d="m 16.199625,12.9685 c -1.66075,0 -3.03125,1.3705 -3.03125,3.03125 v 26 c 0,1.66075 1.3705,3.03125 3.03125,3.03125 H 80 c 1.66075,0 2.831625,-1.3705 2.831625,-3.03125 v -26 c 0,-1.66075 -1.3705,-3.03125 -3.03125,-3.03125 z"/>
<path style="opacity:.2;fill:url(#linearGradient19)" d="m 16.4996,12.469 c -1.66075,0 -3.03125,1.3705 -3.03125,3.03125 v 26.1998 c 0,1.66075 1.07088,2.8315 2.73163,2.8315 h 63.8 c 1.66075,0 2.53163,-1.27075 2.53163,-2.9315 v -26.0998 c 0,-1.66075 -1.3705,-3.03125 -3.03125,-3.03125 z "/>
<path style="opacity:.5;fill:#333" d="m 16,13.9685 c -1.10119,0 -2.03125,0.93006 -2.03125,2.03125 v 26 c 0,1.10119 0.93006,2.03125 2.03125,2.03125 h 64 c 1.10119,0 2.03125,-0.93006 2.03125,-2.03125 v -26 C 82.03125,14.89856 81.10119,13.9685 80,13.9685 Z"/>
<path style="fill:#dfd0b1" d="m 16,15 h 64 c 0.554,0 1,0.446 1,1 v 26 c 0,0.554 -0.446,1 -1,1 H 16 c -0.554,0 -1,-0.446 -1,-1 V 16 c 0,-0.554 0.446,-1 1,-1 z"/>
<path style="opacity:.9;fill:url(#linearGradient17)" d="m 16,15 h 64 c 0.554,0 1.00203,0.446093 1,1 -28.5379,7.15411 -41,12.1 -65,27 -0.553663,-0.0016 -1,-0.446 -1,-1 V 16 c 0,-0.554 0.446,-1 1,-1 z"/>
<path style="opacity:.2" d="m 37,24.9685 c -1.11432,0 -2.03125,0.916934 -2.03125,2.03125 v 5 c 0,1.11432 0.916934,2.03125 2.03125,2.03125 h 22 c 1.11432,0 2.03125,-0.916934 2.03125,-2.03125 v -5 C 61.03125,25.88543 60.114316,24.9685 59,24.9685 h -2 c -1.11432,0 -2.03125,0.916934 -2.03125,2.03125 V 27.9685 H 41.0312 v -0.96875 c 0,-1.11432 -0.916934,-2.03125 -2.03125,-2.03125 z"/>
<path style="opacity:.07;fill:url(#linearGradient4280)" d="m 16,50.9685 c -1.66075,0 -3.03125,1.3705 -3.03125,3.03125 v 26 c 0,1.66075 1.3705,3.03125 3.03125,3.03125 h 64 c 1.66075,0 3.03125,-1.3705 3.03125,-3.03125 v -26 C 83.03125,52.339 81.66075,50.9685 80,50.9685 Z"/>
<path style="opacity:.1;fill:url(#linearGradient22)" d="m 16,50.468 c -1.66075,0 -3.03125,1.3705 -3.03125,3.03125 v 26 c 0,1.66075 1.3705,3.03125 3.03125,3.03125 h 64 c 1.66075,0 3.03125,-1.3705 3.03125,-3.03125 v -26 C 83.03125,51.8385 81.66075,50.468 80,50.468 Z"/>
<path style="opacity:.15;fill:url(#linearGradient4282)" d="m 16.199625,49.9685 c -1.66075,0 -3.03125,1.3705 -3.03125,3.03125 v 26 c 0,1.66075 1.3705,3.03125 3.03125,3.03125 H 80 c 1.66075,0 2.831625,-1.3705 2.831625,-3.03125 v -26 c 0,-1.66075 -1.3705,-3.03125 -3.03125,-3.03125 z"/>
<path style="opacity:.2;fill:url(#linearGradient21)" d="m 16.4996,49.468 c -1.66075,0 -3.03125,1.3705 -3.03125,3.03125 v 26.1997 c 0,1.66075 1.07088,2.8315 2.73163,2.8315 h 63.8 c 1.66075,0 2.53163,-1.27075 2.53163,-2.9315 v -26.0998 c 0,-1.66075 -1.3705,-3.03125 -3.03125,-3.03125 z "/>
<path style="opacity:.5;fill:#333" d="m 16,50.9685 c -1.10119,0 -2.03125,0.93006 -2.03125,2.03125 v 26 c 0,1.10119 0.93006,2.03125 2.03125,2.03125 h 64 c 1.10119,0 2.03125,-0.93006 2.03125,-2.03125 v -26 C 82.03125,51.89856 81.10119,50.9685 80,50.9685 Z"/>
<path style="fill:#dfd0b1" d="m 16,52 h 64 c 0.554,0 1,0.446 1,1 v 26 c 0,0.554 -0.446,1 -1,1 H 16 c -0.554,0 -1,-0.446 -1,-1 V 53 c 0,-0.554 0.446,-1 1,-1 z"/>
</g>
<path style="fill:#333" d="m 37,26 c -0.554,0 -1,0.446001 -1,1 v 5 c 0,0.554 0.446001,1 1,1 h 22 c 0.554,0 1,-0.446001 1,-1 v -5 c 0,-0.554 -0.446001,-1 -1,-1 h -2 c -0.554,0 -1,0.446001 -1,1 v 1.1 C 56,28.690986 55.442853,29 55,29 H 41 c -0.488604,0 -1,-0.423124 -1,-0.9 V 27 c 0,-0.554 -0.446001,-1 -1,-1 z"/>
<g style="color:#000">
<path style="opacity:.9;fill:url(#linearGradient18)" d="m 16,52 h 64 c 0.554,0 0.994869,0.453449 1,1 -28.5379,7.15411 -41,12.1 -65,27 -0.549863,0.0019 -1,-0.446 -1,-1 V 53 c 0,-0.554 0.446,-1 1,-1 z"/>
<path style="opacity:.2" d="m 37,62 c -1.11432,0 -2.03125,0.916934 -2.03125,2.03125 v 5 c 0,1.11432 0.916934,2.03125 2.03125,2.03125 h 22 c 1.11432,0 2.03125,-0.916934 2.03125,-2.03125 v -5 C 61.03125,62.91693 60.114316,62 59,62 h -2 c -1.11432,0 -2.03125,0.916934 -2.03125,2.03125 V 65 H 41.0312 V 64.03125 C 41.0312,62.91693 40.114266,62 39,62 Z"/>
</g>
<path style="fill:#333" d="m 37,63.0315 c -0.554,0 -1,0.446001 -1,1 v 5 c 0,0.554 0.446001,1 1,1 h 22 c 0.554,0 1,-0.446001 1,-1 v -5 c 0,-0.554 -0.446001,-1 -1,-1 h -2 c -0.554,0 -1,0.446001 -1,1 v 1.1 c 0,0.590986 -0.557147,0.9 -1,0.9 H 41 c -0.488604,0 -1,-0.423124 -1,-0.9 v -1.1 c 0,-0.554 -0.446001,-1 -1,-1 z"/>
</svg>
