<svg width="48" version="1.0" xmlns="http://www.w3.org/2000/svg" height="48" style="enable-background:new">
<g style="stroke:none" id="g4">
<path style="fill:#3792b9" id="path3011" d="m 7.5312,2.5467 c -2.78758,0 -5.03125,2.27493 -5.03125,5.0625 v 26.3438 c 0,2.78758 2.24699,5.19853 5.03125,5.0625 h 20.4688 l -1.4688,7.4375 9.0625,-7.4375 h 4.90625 c 2.78758,0 5,-2.27492 5,-5.0625 v -26.3438 c 0,-2.78758 -2.21242,-5.0625 -5,-5.0625 h -32.9688 z "/>
<path style="opacity:.3" id="path4153" d="m 23.9688,5.803 c -7.45562,0 -13.4688,6.07565 -13.4688,13.5312 0,7.45562 6.01318,13.4687 13.4688,13.4687 7.45552,0 13.5312,-6.01318 13.5312,-13.4687 0,-7.45555 -6.07568,-13.5312 -13.5312,-13.5312 Z  m -4.5625,7.7307 c 1.13909,0 2.0625,0.92341 2.0625,2.0625 0,1.13909 -0.92341,2.0625 -2.0625,2.0625 -1.13909,0 -2.0625,-0.92341 -2.0625,-2.0625 0,-1.13909 0.92341,-2.0625 2.0625,-2.0625 z  m 9.0938,0 c 1.13909,0 2.0625,0.92341 2.0625,2.0625 0,1.13909 -0.92341,2.0625 -2.0625,2.0625 -1.13909,0 -2.0625,-0.92341 -2.0625,-2.0625 0,-1.13909 0.92341,-2.0625 2.0625,-2.0625 z  m 4.25,6.5625 c -0.90239,3.03426 -4.36155,7.39425 -8.5,7.39425 -4.01742,0 -7.35499,-4.41216 -8.375,-7.3125 1.99336,1.81264 4.90052,2.96875 8.25,2.96875 3.50681,0 6.63808,-1.08895 8.625,-3.0505 z "/>
<path style="fill:#fff" id="path3009" d="m 23.9688,6.8027 c -7.45562,0 -13.4688,6.07565 -13.4688,13.5312 0,7.45562 6.01318,13.4688 13.4688,13.4688 7.45552,0 13.5312,-6.01318 13.5312,-13.4688 0,-7.45555 -6.07568,-13.5312 -13.5312,-13.5312 z  m -4.5625,7.5312 c 1.13909,0 2.0625,0.92341 2.0625,2.0625 0,1.13909 -0.92341,2.0625 -2.0625,2.0625 -1.13909,0 -2.0625,-0.92341 -2.0625,-2.0625 0,-1.13909 0.92341,-2.0625 2.0625,-2.0625 z  m 9.0938,0 c 1.13909,0 2.0625,0.92341 2.0625,2.0625 0,1.13909 -0.92341,2.0625 -2.0625,2.0625 -1.13909,0 -2.0625,-0.92341 -2.0625,-2.0625 0,-1.13909 0.92341,-2.0625 2.0625,-2.0625 z  m 4.25,6.5625 c -0.90239,3.03426 -4.36155,7.59375 -8.5,7.59375 -4.01742,0 -7.35499,-4.41216 -8.375,-7.3125 1.99336,1.81264 4.90052,2.96875 8.25,2.96875 3.50681,0 6.63808,-1.28845 8.625,-3.25 z "/>
</g>
</svg>
