<svg width="48" version="1.1" xmlns="http://www.w3.org/2000/svg" height="48">
<g style="stroke:none">
<g id="g3042" transform="matrix(1.0454557,0,0,1.0454557,-2.1364071,0.28782153)">
<path style="fill:#ea2121" id="path3800" d="m 37.627,7.1939 0,29.3921 c 0,0.723335 0.505203,1.30976 1.14604,1.30976 h 7.03998 c 0.64084,0 1.18697,-0.586428 1.18697,-1.30976 v -29.3921 h -9.373 z "/>
<path style="fill:#fff" id="path3792" d="m 42.2929,29.3004 c 1.29386,0 2.37395,1.04155 2.37395,2.33302 0,1.29147 -1.08009,2.33302 -2.37395,2.33302 -1.29386,0 -2.33302,-1.04155 -2.33302,-2.33302 0,-1.29147 1.03916,-2.33302 2.33302,-2.33302 z"/>
</g>
<g id="g3038" transform="matrix(1.0454557,0,0,1.0454557,-1.0909483,0.28782153)">
<path style="fill:#2b96f8" id="path3798" d="m 25.3888,10.4557 0,26.294 c 0,0.648147 0.546133,1.18697 1.18697,1.18697 h 7.03998 c 0.64084,0 1.14604,-0.538826 1.14604,-1.18697 v -26.294 h -9.373 z "/>
<path style="fill:#fff" id="path3001" d="m 30.0957,29.3413 c 1.29386,0 2.33302,1.03916 2.33302,2.33301 0,1.29386 -1.03916,2.37395 -2.33302,2.37395 -1.29386,0 -2.37395,-1.08009 -2.37395,-2.37395 0,-1.29386 1.08009,-2.33301 2.37395,-2.33301 z"/>
</g>
<g id="g4155" transform="matrix(1.0423032,-0.08112596,0.08112596,1.0423032,-2.6591842,1.3019905)">
<path style="fill:#119412" id="path4157" d="m 17.5926,11.5269 -16.3115,19.9838 c -0.409701,0.502235 -0.373783,1.27305 0.12279,1.67813 l 5.4846,4.4613 c 0.496572,0.405082 1.2275,0.297584 1.6372,-0.20465 l 16.3115,-20.0247 -7.2446,-5.8939 z "/>
<path style="fill:#fff" id="path4159" d="m 7.8707,28.2363 c 0.59808,-0.05551 1.21777,0.08224 1.71906,0.491162 1.00258,0.817862 1.1453,2.31275 0.32744,3.31534 -0.81786,1.00258 -2.31275,1.1453 -3.31534,0.327441 -1.00258,-0.817861 -1.1453,-2.31275 -0.327441,-3.31534 0.40893,-0.501293 0.998193,-0.763095 1.59627,-0.818604 z"/>
</g>
</g>
</svg>
