<svg width="48" version="1.1" xmlns="http://www.w3.org/2000/svg" viewBox="0 0 48 48" height="48" xmlns:xlink="http://www.w3.org/1999/xlink" style="overflow: visible;">
<defs>
<linearGradient id="linearGradient4153">
<stop offset="0" style="stop-color:#fff;stop-opacity:.51"/>
<stop offset="1" style="stop-color:#fff;stop-opacity:0"/>
</linearGradient>
<linearGradient xlink:href="#linearGradient4153" id="linearGradient4159" y1="9.6396875" x1="6.0155225" y2="39.580494" x2="29.109051" gradientUnits="userSpaceOnUse"/>
</defs>
<path style="opacity:.03" d="M 3.78409,3.638 C 2.01807,3.638 0.581,5.09217 0.581,6.8786 V 44.9223 H 47.4566 V 6.8786 c 0,-1.78751 -1.43601,-3.2406 -3.20203,-3.2406 H 3.78417 Z"/>
<path style="opacity:.05" d="m 3.984285,3.8384 c -1.76602,0 -3.20309,1.45417 -3.20309,3.2406 v 37.4437 h 46.3754 V 7.079 c 0,-1.78751 -1.43601,-3.2406 -3.20203,-3.2406 h -39.9702 z"/>
<path style="opacity:.1" d="m 4.0056,4.0929 c -1.60581,0.037547 -3.0479,1.40851 -3.04407,3.13884 v 36.8086 h 45.8635 v -36.8086 c 0,-1.73138 -1.40955,-3.13884 -3.14302,-3.13884 h -39.6765 Z "/>
<path style="opacity:.15" d="m 4.3416,4.3308 c -1.88191,0 -3.14789,1.40867 -3.14406,3.139 v 36.1705 h 45.3271 v -36.1707 c 0,-1.73138 -1.40955,-3.13884 -3.14302,-3.13884 h -39.0401 Z "/>
<path style="opacity:.33" d="m 4.1496,4.6111 c -1.89567,0.16344 -2.66087,1.49411 -2.66088,2.73842 l 0,35.8908 h 44.6366 l 0,-35.691 c 0,-1.60554 -1.18513,-2.93821 -2.84351,-2.93821 h -39.1323 z "/>
<path style="fill:#d0cabe" d="m 43.266,4.9246 -39.0767,0 c -1.30402,0 -2.3604,1.05429 -2.3604,2.35517 v 3.50664 c 0,0.331229 0,8.42179 0,16.3817 0,7.69872 0,15.2752 0,15.597 0.778441,0 43.0169,0 43.7964,0 0,-0.321826 0,-7.8983 0,-15.597 0,-7.95995 0,-16.0495 0,-16.3817 v -3.50664 c 0,-1.30088 -1.05638,-2.35517 -2.35935,-2.35517 z "/>
<path d="m 42.6997,38.8038 c 0,0.497965 -0.380338,0.90187 -0.851583,0.90187 h -36.477 c -0.471244,0 -0.851583,-0.403905 -0.851583,-0.90187 v -30.3637 c 0,-0.499072 0.381384,-0.90187 0.851583,-0.90187 h 36.477 c 0.471245,0 0.851583,0.403904 0.851583,0.90187 v 30.3637 z "/>
<path style="fill:#fff" d="m 32.473,21.9739 0,-2.159 7.5756,3.6418 0,1.5288 -7.5756,3.6654 0,-2.1602 5.0015,-2.2696 z "/>
<path style="opacity:.9;fill:url(#linearGradient4159)" d="m 6.7148,9.4219 c -0.587749,0 -1.06445,0.505066 -1.06445,1.12891 v 37.8281 c 11.6157,-17.2867 26.978,-28.7624 46.6445,-38.957 h -45.5801 z " transform="scale(0.8,0.8)"/>
<g style="fill:#fff;fill-rule:evenodd">
<path d="m 17.6747,9.0208 c 0.185368,1.87455 0.459685,3.10943 1.16146,3.48439 0.764681,-0.218342 1.26299,-1.36451 1.82823,-3.16176 -0.198764,1.84375 -0.194788,3.0852 0.387155,3.61344 0.777551,-0.08636 1.48745,-1.11489 2.38745,-2.73159 -0.57057,1.7804 -0.825111,3.00294 -0.344137,3.63495 0.782658,0.09384 1.68273,-0.745946 2.90366,-2.15086 -0.919542,1.61787 -1.41089,2.76508 -1.07543,3.48439 0.746578,0.249892 1.81369,-0.387238 3.29081,-1.5056 -1.29492,1.46682 -2.03724,2.52399 -1.7422,3.31232 -0.466126,-0.629619 -0.512731,-0.701043 -0.774309,-0.989395 -0.24168,-0.266412 -0.308555,-0.352189 -0.774309,-0.77431 -0.504667,-0.447429 -0.605038,-0.515307 -0.903361,-0.731292 -0.306412,-0.221835 -0.384763,-0.259331 -1.0109,-0.623749 -0.515855,-0.291919 -0.625744,-0.352577 -0.946377,-0.494697 -0.335958,-0.148903 -0.437659,-0.198773 -1.07543,-0.408663 -0.573393,-0.182916 -0.687721,-0.205949 -1.03241,-0.279612 -0.349923,-0.07478 -0.453129,-0.102243 -1.07543,-0.172069 -0.71403,-0.07174 -0.828565,-0.06453 -1.20448,-0.06453 -0.359982,0 -0.462734,0.0015 -1.09694,0.06453 -0.666763,0.07434 -0.781055,0.09538 -1.13996,0.172069 -0.361482,0.07725 -0.444783,0.09212 -1.09694,0.30112 -0.56103,0.185492 -0.690436,0.245119 -1.0109,0.387155 -0.334823,0.148409 -0.431374,0.187284 -1.0109,0.516206 -0.557216,0.325104 -0.652647,0.389588 -0.946378,0.60224 -0.293815,0.212725 -0.376028,0.280753 -0.860343,0.709784 -0.486193,0.440254 -0.571827,0.525196 -0.817327,0.795818 -0.261579,0.288354 -0.308184,0.338267 -0.774309,0.967886 0.295044,-0.788336 -0.425767,-1.82399 -1.72069,-3.29081 1.47722,1.11845 2.52272,1.75564 3.26931,1.5056 0.335456,-0.719309 -0.155889,-1.86652 -1.07543,-3.48439 1.22168,1.40577 2.14219,2.24592 2.92517,2.15086 0.480142,-0.632247 0.226188,-1.85532 -0.344137,-3.63495 0.899478,1.61577 1.61042,2.64422 2.38745,2.73159 0.58336,-0.527517 0.586079,-1.78971 0.387155,-3.63495 0.560839,1.78328 1.05201,2.93078 1.80672,3.16176 0.690587,-0.384276 0.934395,-1.60158 1.11845,-3.46288 z "/>
<path d="m 17.6317,13.4301 c 1.92206,-0.02775 3.87426,0.513907 5.61374,1.69918 4.622,3.10861 5.6376,9.4507 2.71008,13.873 -0.344415,0.520276 -0.343085,0.529606 -0.881852,1.09694 l -13.0127,-8.797 c 0.225794,-0.614345 0.21539,-0.623118 0.623749,-1.2475 2.08864,-3.14763 5.83746,-3.44066 8.40989,-1.69918 2.18653,1.48026 3.28576,4.3015 2.19388,7.16233 0.418867,0.291398 0.850143,0.590452 1.26901,0.881852 0.948201,-2.03981 1.15871,-6.604 -2.66707,-9.22715 -3.63417,-2.42711 -8.23266,-1.3878 -10.4532,2 -2.25688,3.37551 -1.53375,8.19315 2.12935,10.6468 2.38203,1.63888 5.47033,1.47127 8.1087,0.06453 l 1.226,2.1078 c -2.44784,1.37378 -6.42955,2.63101 -10.6897,-0.21509 -4.87178,-3.33617 -5.55261,-9.62745 -2.73159,-13.9161 1.84245,-2.76627 4.94833,-4.38452 8.15179,-4.43077 Z "/>
<path d="m 8.9637,29.8412 c 0.466126,0.629617 0.51273,0.701042 0.774309,0.989395 0.245499,0.270621 0.309625,0.355562 0.795818,0.795818 0.484314,0.42903 0.588038,0.497063 0.881852,0.709783 0.288585,0.208929 0.372313,0.27053 0.903361,0.580732 0.608103,0.345498 0.713142,0.386668 1.05392,0.537715 0.322813,0.143077 0.438744,0.198129 1.0109,0.387154 0.639387,0.204776 0.738058,0.224428 1.09694,0.301121 0.357774,0.07646 0.457403,0.09831 1.11845,0.172068 0.641073,0.06378 0.757033,0.06453 1.11845,0.06453 0.375886,0 0.469109,0.0072 1.18297,-0.06453 0.6223,-0.06983 0.747012,-0.09729 1.09694,-0.172068 0.350252,-0.07485 0.45535,-0.10986 1.05392,-0.301121 0.612011,-0.20169 0.722984,-0.240477 1.05392,-0.387154 0.327727,-0.145264 0.420958,-0.20622 0.967887,-0.516206 0.592061,-0.344968 0.689107,-0.384842 0.989395,-0.602241 0.299402,-0.21677 0.372202,-0.279362 0.881852,-0.731292 0.46113,-0.418021 0.555021,-0.50887 0.795818,-0.774309 0.261581,-0.288353 0.308182,-0.359777 0.774309,-0.989395 -0.295046,0.788336 0.425766,1.8455 1.72069,3.31232 -1.47712,-1.11836 -2.52273,-1.75549 -3.2693,-1.5056 -0.335455,0.719303 0.155888,1.86653 1.07543,3.48439 -1.22125,-1.40527 -2.14238,-2.2452 -2.92517,-2.15086 -0.480976,0.632009 -0.226433,1.85456 0.344137,3.63495 -0.9,-1.61688 -1.6098,-2.64543 -2.38745,-2.73159 -0.581812,0.528315 -0.585903,1.76984 -0.387154,3.61344 -0.56545,-1.79793 -1.06306,-2.94405 -1.82823,-3.16176 -0.701001,0.375613 -0.954678,1.61076 -1.13996,3.48439 -0.184144,-1.86222 -0.4486,-3.07925 -1.13996,-3.46288 -0.754328,0.231455 -1.24605,1.37902 -1.80672,3.16176 0.198924,-1.84524 0.196203,-3.10744 -0.387155,-3.63495 -0.777035,0.08738 -1.48797,1.11582 -2.38745,2.73159 0.570431,-1.77996 0.824636,-3.00281 0.344137,-3.63495 -0.782816,-0.09443 -1.68236,0.745525 -2.90366,2.15086 0.919542,-1.61787 1.41089,-2.76508 1.07543,-3.48439 -0.746585,-0.250041 -1.81359,0.387156 -3.29081,1.5056 1.29492,-1.46682 2.03724,-2.52399 1.7422,-3.31232 Z "/>
</g>
</svg>
