<svg width="48" version="1.0" xmlns="http://www.w3.org/2000/svg" height="48" xmlns:xlink="http://www.w3.org/1999/xlink">
<defs>
<linearGradient id="linearGradient3770">
<stop offset="0" style="stop-color:#ffda7d"/>
<stop offset="0.3" style="stop-color:#ffda7d"/>
<stop offset="0.3" style="stop-color:#ffc941"/>
<stop offset="0.6" style="stop-color:#ffc941"/>
<stop offset="0.6" style="stop-color:#dc9e00"/>
<stop offset="1" style="stop-color:#dc9e00"/>
</linearGradient>
<linearGradient id="linearGradient880">
<stop offset="0" style="stop-color:#666"/>
<stop offset="1"/>
</linearGradient>
<linearGradient gradientTransform="matrix(1.0621268,0,0,1.0621268,-0.24856716,-0.16342185)" xlink:href="#linearGradient3770" id="linearGradient3849" y1="23.72045" x1="34.265" y2="23.72045" gradientUnits="userSpaceOnUse" x2="45.4021"/>
<linearGradient xlink:href="#linearGradient880" id="linearGradient882" y1="44.0398" x1="38.8611" y2="44.0398" x2="45.297588" gradientUnits="userSpaceOnUse"/>
</defs>
<g style="stroke-width:1.024">
<path style="opacity:.5" d="M 0.8,6.426 V 43.1698 H 39.6357 L 39.8,6.424 27.0712,6.4259 Z"/>
<path style="fill:#ecf0f1" d="m 0,5.4257 v 36.7438 h 38.8357 l .1643,-36.7458 -12.7288,.0019 z "/>
</g>
<g style="fill-rule:evenodd">
<g style="fill:#7f8c8d">
<rect width="26.684752" x="6.0581465" y="16.578972" height="2.9221342"/>
<rect width="20.151466" x="9.3421354" y="10.734716" height="2.9221342"/>
<rect width="26.684752" x="6.0484376" y="22.423265" height="2.9221342"/>
<rect width="26.684752" x="6.0985818" y="28.267557" height="2.9221342"/>
<rect width="26.684752" x="6.0888729" y="34.111759" height="2.9221342"/>
</g>
<path style="fill:#d57000" d="m 37.0569,1.4491 c -0.47815,0.460073 -0.803589,1.18885 -0.803881,1.81865 l -.0349,5.1854 11.747,.0051 .0349,-5.1854 c 0.000482,-1.03577 -0.987232,-2.27231 -1.91521,-2.27285 l -8.0643,.0002 c -0.338552,-0.0001961 -0.676761,0.172823 -0.963651,0.44887 z "/>
<path style="fill:#d0d0d0" d="m 36.2455,8.4532 -.0135,5.4066 11.747,.0047 .0135,-5.4062 z "/>
<path style="fill:url(#linearGradient3849)" d="m 36.2272,13.8573 -.082,22.3468 11.811,-.0154 .0181,-22.3262 z "/>
<path style="fill:#e9d078" d="m 36.206,36.1938 5.8848,10.8062 5.8622,-10.801 -11.747,-.0051 Z "/>
<path style="fill:url(#linearGradient882)" d="m 38.8611,41.0796 3.2297,5.9204 3.2068,-5.9152 -6.4365,-.0051 Z "/>
</g>
</svg>
