<svg width="48" version="1.1" xmlns="http://www.w3.org/2000/svg" height="48" xmlns:xlink="http://www.w3.org/1999/xlink">
<path style="color:#000000;fill:#6e6e6e" d="M 8.0895,0.204 41.537,0.102 c 1.45526,-0.0044379 4.85161,1.30671 4.998,5.126 0,0 0.297516,13.1707 0,14.028 -0.297516,0.857338 -5.43669,6.17262 -6.47436,6.6317 -1.03767,0.459082 -26.9453,0.451435 -28.1671,0 -1.2218,-0.451435 -5.69733,-5.70958 -6.0916,-6.1497 -0.394274,-0.440123 -1.302,-2.606 -1.302,-2.606 z" />
<path style="color:#000000;fill:#aaaaaa" d="m 7.5871,0 h 33.442 c 1.45527,0 3.0871,1.64691 3.0871,3.11563 0,0 0.445105,13.091591 0,14.0161 -0.445105,0.924509 -5.114696,5.757251 -6.1746,6.2317 -1.059904,0.474449 -26.371342,0.340062 -27.2669,0 -0.895558,-0.340062 -5.8343758,-5.457117 -6.1746,-6.2314 -0.3402242,-0.774283 0,-14.0164 0,-14.0164 C 4.5001,1.64691 6.13192,0 7.58719,0 Z" />
<path style="color:#000000;opacity:0.5" d="m 33.9199,1.7959 -1.8048,0.1379 c -1.52149,0.123352 -6.2373,0.871108 -7.69389,1.92612 -1.45659,1.05502 -2.90978,5.09607 -2.92439,5.15214 l -0.2053,0.6241 0.2055,0.0928 5.16417,-5.63182 c 0.141435,-0.069179 0.273099,-0.116384 0.404733,-0.164463 l 0.3551,3.3304 c 0.265767,0.542611 0.523789,0.982091 0.78169,1.37896 -0.527989,0.783994 -1.10309,1.49282 -1.10309,1.49282 0.0082,-0.142707 0.05553,-1.34024 -0.603131,-2.6757 -0.262412,-0.53205 -0.58811,-0.963698 -0.872952,-1.26827 l -1.213879,1.522689 0.3314,0.2694 c 0.487129,0.108573 1.12387,1.09603 1.30508,1.99688 0.581876,2.89271 0.173943,4.11377 -0.04563,4.92758 -0.362187,1.34236 -0.853244,1.65971 -1.38879,2.93504 -0.135668,-0.09204 -1.25056,-0.873371 -1.72607,-2.01151 -0.380535,-0.910825 -0.578568,-2.08528 -0.535675,-3.44741 0.07352,0.05181 0.703816,0.470451 1.82527,0.379531 0.373816,-0.03031 0.709612,-0.120089 1.00786,-0.227718 l 0.0397,-1.5782 c -0.22562,0.07945 -2.01449,0.425495 -3.21802,-0.21823 -0.786095,-0.420454 -1.61105,-0.845152 -2.25777,-1.36315 l 1.53366,-4.54173 c 0.31881,0.154802 1.83758,-0.295984 1.84139,-0.30408 l 0.3308,-0.4039 -0.3311,-0.3136 c -0.442593,-0.357881 -0.884107,-0.66069 -1.36498,-0.84762 -1.85166,-0.719802 -3.84139,-0.637477 -5.68411,-0.73376 l -1.0833,-0.0538 -0.3718,-0.0157 0.3714,0.7334 c 1.03608,0.935188 1.7341,3.36936 2.39305,4.98161 -0.77269,0.629768 -1.50215,1.12459 -2.04152,1.36948 -0.02773,0.012595 -0.06652,-0.0082 -0.09325,0.00317 h -0.03174 C 14.811487,9.212428 14.392013,8.988528 13.888226,8.524979 12.412556,7.167159 13.012639,7.529886 11.402296,6.545089 11.385496,6.53482 11.354276,6.510161 11.336826,6.50081 10.325896,5.99451 8.304006,6.968788 7.950166,7.142851 7.641966,7.305504 7.330012,7.488695 7.072562,7.715648 l 0.8774,0.1443 c 0.898126,0.158694 3.39682,1.13808 4.12885,1.98069 -0.781061,0.091459 -1.59624,0.228513 -2.44824,0.445949 -1.59046,0.405897 -2.57476,1.28735 -3.02756,2.44482 -0.452799,1.15747 -0.302476,2.57553 0.307517,3.52648 1.77025,2.75973 6.50501,1.34335 6.48564,-1.41059 -0.0098,-0.148625 -0.072,-0.518804 -0.12496,-0.702128 -0.939681,-3.16422 -3.21567,-1.25698 -3.9759,0.167627 -0.014848,0.126943 -0.0043,0.394443 0,0.717152 1.128,-1.08186 1.46842,-1.20903 2.38707,-1.07455 0.09976,0.142755 0.07672,0.298012 0.11317,0.4396 0.0013,2.27502 -3.80208,2.30464 -4.12867,0.303625 -0.079346,-0.486156 -0.07319,-0.904796 -0.01984,-1.23664 0.239803,-1.08445 1.4179,-1.55354 2.23397,-1.76483 1.98962,-0.507764 4.11595,-0.01222 5.86664,-0.338413 1.27157,-0.236966 2.19725,-0.503171 2.98193,-1.03422 l 2.40261,1.77431 c -0.07025,1.75968 0.08993,3.34029 0.573371,4.49745 0.766846,1.83548 1.91324,2.94688 2.38475,3.58341 l 0.5357,0.7211 0.2817,-0.9805 c 0.385029,-1.33297 1.51163,-2.45058 1.97605,-4.32033 0.433317,-1.74454 0.301566,-3.9914 0.301566,-3.9914 0.785411,-0.492745 1.45507,-1.08086 2.00581,-1.7585 0.894262,0.822114 1.93769,1.15745 3.49975,1.44854 1.75069,0.326251 3.87702,-0.169348 5.86664,0.338416 0.971132,0.247841 1.83194,0.540373 2.15262,1.41059 0.007,0.02009 0.02331,0.06785 0.02976,0.08857 0.0092,0.03154 0.01784,0.09981 0.02579,0.132837 0.0075,0.03351 0.01961,0.0978 0.02579,0.132834 0.05335,0.331843 0.05752,0.750484 -0.02182,1.23664 -0.326593,2.00102 -4.12998,1.97139 -4.12867,-0.303627 0.883829,-0.723247 1.92423,0.01347 2.50231,0.635093 -0.0074,-0.260215 0.01441,-0.613781 0,-0.717286 -0.760232,-1.4246 -3.03622,-3.33185 -3.9759,-0.167627 -0.0074,0.02511 -0.02902,0.06361 -0.03572,0.08857 -0.01577,0.06218 -0.0306,0.157118 -0.04167,0.21823 -0.01016,0.06089 -0.03405,0.161626 -0.03968,0.221393 -0.0038,0.04763 -0.0069,0.130239 -0.0079,0.177115 -0.01936,2.75394 4.7154,4.16716 6.48564,1.40743 0.61,-0.950948 0.758332,-2.36584 0.305533,-3.52332 -0.453004,-1.15749 -1.4373,-2.03894 -3.02777,-2.44484 -0.851998,-0.217438 -1.66519,-0.354491 -2.44625,-0.44595 0.518548,-0.159862 0.971129,-0.418571 1.26578,-0.771714 0.0069,-0.00852 0.02503,-0.032461 0.03174,-0.041115 0.0066,-0.00878 2.15127,-1.21722 2.83163,-1.17089 l 0.8281,-0.1819 C 40.851211,7.285893 40.637698,7.165566 40.488287,7.082654 c -0.353836,-0.174062 -2.37772,-1.14518 -3.38864,-0.638877 -0.01745,0.00935 -0.04669,0.030843 -0.06349,0.041115 -1.61034,0.984793 -1.01224,0.622064 -2.48791,1.97989 -0.503784,0.463549 -0.921272,0.687449 -1.3253,0.724272 h -0.03174 c -0.02674,-0.011359 -0.0675,0.012595 -0.09523,0 -0.65581,-0.297752 -1.58618,-0.953664 -2.54347,-1.79329 0.716112,-1.60909 2.03953,-4.3508 2.79926,-4.84283 z M 30.795651,2.8865685 C 30.392808,3.8769675 29.666357,5.4798162 29.360115,6.2580862 28.621528,5.4930312 27.94771,4.6559763 27.510219,3.8376455 Z m -9.944432,0.8872501 c -0.633405,0.869051 -1.491385,2.2901019 -2.268685,3.0171319 -0.193968,-0.703144 -0.01518,-1.7918969 -0.391962,-2.7416369 z" />
<path style="color:#000000;fill:#ffffff" d="M 33.351,2.553 32.1151,2.651 C 30.59361,2.774352 25.8778,3.522107 24.42121,4.57712 22.96462,5.63214 21.51161,9.67293 21.497,9.729 l 1.2557,0.4716 c 0.253501,-0.877624 0.73918,-1.70915 1.71615,-3.05523 0.976966,-1.34608 1.79784,-2.13801 2.1923,-2.33095 0.141435,-0.069178 0.273099,-0.116384 0.404733,-0.164463 l 0.3551,3.3304 c 0.265767,0.54261 0.523789,0.982091 0.78169,1.37896 -0.527989,0.783993 -1.10309,1.49282 -1.10309,1.49282 0.0082,-0.142706 0.05553,-1.34024 -0.603131,-2.67569 C 26.23404,7.644397 25.908342,7.212749 25.6235,6.908177 l -0.8825,1.0749 c 0.476473,0.475765 0.942664,0.912388 1.30508,2.71409 0.581879,2.89271 0.173943,4.11377 -0.04563,4.92758 -0.362187,1.34236 -0.853244,1.65971 -1.38879,2.93504 -0.135668,-0.09204 -1.25056,-0.873371 -1.72607,-2.01151 -0.380535,-0.910825 -0.578568,-2.08528 -0.535675,-3.44741 0.07352,0.05181 0.703816,0.470451 1.82526,0.379532 0.373816,-0.0303 0.709612,-0.120089 1.00786,-0.227718 l 0.0397,-1.5782 c -0.22562,0.07945 -2.01449,0.425494 -3.21802,-0.21823 -0.786093,-0.420455 -1.61105,-0.845152 -2.25777,-1.36315 0.428094,-0.519779 0.836705,-1.17254 1.26776,-2.05263 l 0.2659,-2.4891 c 0.31881,0.154802 0.779868,0.504649 0.783674,0.496553 0.203594,-0.433065 0.531044,-0.979861 1.05772,-1.51784 -0.442593,-0.357881 -0.884368,-0.660976 -1.36524,-0.847906 -1.85166,-0.719802 -3.84139,-0.637477 -5.68411,-0.73376 l -1.0836,-0.0533 0.6828,1.2804 c 0.613742,1.16327 1.05125,2.80613 1.71019,4.41838 -0.77269,0.629768 -1.50215,1.12459 -2.04152,1.36948 -0.02773,0.012594 -0.06652,-0.0082 -0.09325,0.00317 -0.0068,0 -0.0249,0 -0.03174,0 -0.404029,-0.036832 -0.823503,-0.260731 -1.32729,-0.724281 -1.47567,-1.35782 -0.875587,-0.995093 -2.48593,-1.97989 -0.0168,-0.01028 -0.04802,-0.034929 -0.06547,-0.044279 -1.01093,-0.5063 -3.033,0.467924 -3.38684,0.641986 0.342814,0.067787 1.7885,0.442718 2.79561,1.84394 0.0064,0.0089 0.02717,0.032336 0.03372,0.041115 0.0067,0.00864 0.02687,0.035747 0.03373,0.044279 0.294653,0.353142 0.747233,0.608689 1.26578,0.76855 -0.781061,0.09146 -1.59624,0.228513 -2.44824,0.445949 -1.59046,0.405897 -2.57476,1.28734 -3.02756,2.44481 -0.452799,1.15747 -0.302476,2.57553 0.307517,3.52648 1.77025,2.75973 6.50501,1.34335 6.48564,-1.41059 0,-0.04686 -0.0042,-0.129489 -0.0079,-0.177114 -0.0056,-0.05977 -0.03151,-0.157342 -0.04167,-0.218232 -0.01107,-0.0611 -0.02392,-0.159221 -0.03968,-0.221392 -0.0067,-0.02496 -0.02825,-0.06028 -0.03571,-0.08539 -0.939681,-3.16422 -3.21601,-1.25702 -3.97624,0.167591 0.817183,-0.763682 1.95448,-0.911847 2.35334,-0.401634 0.0075,0.0102 0.02677,0.0335 0.03373,0.04427 0.01006,0.01655 0.02705,0.07085 0.03571,0.08857 0.0025,0.0062 0.03131,0.03482 0.03373,0.04111 0.0022,0.0064 0,0.03772 0.002,0.04427 0.0019,0.0067 0,0.03747 0.002,0.04427 0.0048,0.02083 0.03047,0.06654 0.03373,0.08857 0,0.0075 0.0012,0.03667 0.002,0.04427 0,0.0077 0.0016,0.03642 0.002,0.04427 0,0.008 0.0019,0.03616 0.002,0.04427 0.0013,2.27502 -3.80208,2.30464 -4.12867,0.303624 -0.079346,-0.486158 -0.07319,-0.904795 -0.01984,-1.23664 0.00618,-0.03504 0.018278,-0.09933 0.025792,-0.132836 0.00795,-0.03301 0.016539,-0.10128 0.025792,-0.132837 0.00645,-0.02072 0.020764,-0.06847 0.027776,-0.08857 0.320685,-0.870218 1.18347,-1.16275 2.15461,-1.41059 1.98962,-0.507764 4.11595,-0.01222 5.86664,-0.338413 1.27157,-0.236965 2.19725,-0.503171 2.98193,-1.03422 0.634007,0.760418 1.45052,1.3451 2.40261,1.77431 -0.07025,1.75968 0.08993,3.34029 0.573371,4.49745 0.766846,1.83548 1.91324,2.94688 2.38475,3.58341 l 0.5357,0.7211 0.2817,-0.9805 c 0.385029,-1.33297 1.51163,-2.45058 1.97605,-4.32033 0.433317,-1.74454 0.301566,-3.9914 0.301566,-3.9914 0.785411,-0.492744 1.45507,-1.08086 2.00581,-1.75849 0.894262,0.822114 1.93769,1.15745 3.49975,1.44854 1.75069,0.32625 3.87702,-0.169349 5.86664,0.338416 0.971132,0.247839 1.83194,0.540373 2.15262,1.41059 0.007,0.02009 0.02331,0.06785 0.02976,0.08857 0.0092,0.03155 0.01784,0.09981 0.02579,0.132837 0.0075,0.03351 0.01961,0.09781 0.02579,0.132835 0.05335,0.331844 0.05752,0.750484 -0.02182,1.23664 -0.326593,2.00102 -4.12998,1.97139 -4.12867,-0.303625 0,-0.0081 0.0018,-0.03629 0.002,-0.04428 0,-0.0078 0.0014,-0.03655 0.002,-0.04427 0,-0.0076 0.0011,-0.03681 0.002,-0.04427 0.0033,-0.022 0.03091,-0.06458 0.03572,-0.0854 0.0017,-0.0068 0,-0.0376 0.002,-0.04427 0.0021,-0.0066 0,-0.03785 0.002,-0.04428 0.0024,-0.0063 0.03116,-0.03811 0.03373,-0.04427 0.0086,-0.0177 0.02372,-0.07201 0.03372,-0.08857 0.007,-0.01075 0.02619,-0.03085 0.03372,-0.04111 0.398863,-0.510216 1.53824,-0.365071 2.35543,0.398613 -0.760232,-1.4246 -3.03666,-3.33195 -3.97634,-0.167732 -0.0074,0.02511 -0.02902,0.06361 -0.03572,0.08857 -0.01577,0.06218 -0.0306,0.157118 -0.04167,0.218231 -0.01016,0.06089 -0.03405,0.161626 -0.03968,0.221392 -0.0038,0.04763 -0.0069,0.130239 -0.0079,0.177115 -0.01936,2.75394 4.7154,4.16716 6.48564,1.40743 0.61,-0.950948 0.758332,-2.36584 0.305533,-3.52332 -0.453277,-1.15748 -1.43758,-2.03893 -3.02804,-2.44483 -0.851998,-0.217437 -1.66519,-0.35449 -2.44625,-0.445949 0.518548,-0.159862 0.971129,-0.418571 1.26578,-0.771714 0.0069,-0.00852 0.02503,-0.03246 0.03174,-0.041115 0.0066,-0.00878 0.02733,-0.035373 0.03373,-0.04428 1.00739,-1.40121 2.45535,-1.77601 2.79817,-1.8438 -0.353836,-0.174061 -2.3782,-1.14526 -3.38912,-0.638959 -0.01745,0.00935 -0.04669,0.030843 -0.06349,0.041115 -1.61034,0.984793 -1.01224,0.622064 -2.48791,1.97989 -0.503784,0.463549 -0.921272,0.687449 -1.3253,0.724272 -0.0068,0 -0.02491,0 -0.03174,0 -0.02674,-0.011359 -0.0675,0.012595 -0.09523,0 -0.655809,-0.297751 -1.58618,-0.953664 -2.54347,-1.79328 0.716112,-1.60909 1.31018,-3.06457 1.98994,-4.20331 z m -4.7992,1.8692 c 0.574192,0.018713 1.13651,0.110735 1.81733,0.044276 -0.402843,0.990399 -0.677814,1.75194 -0.984056,2.53021 -0.738587,-0.765055 -1.42497,-1.60328 -1.95621,-2.45746 0.39834,-0.100113 0.765551,-0.12867 1.12294,-0.117026 z m -8.2752,0.8476 c 0.07075,0.00735 0.160367,0.04398 0.23411,0.056929 -0.633405,0.86905 -1.38921,1.70197 -2.16651,2.429 0.615494,-2.05997 0.495821,-2.76017 0.119036,-3.70991 1.14585,0.049113 1.79669,-0.218685 2.62283,-0.132836 z" />
<path style="color:#000000;fill:#be0000" d="m 8.7616,36.4847 c 0,0 5.55251,0.875369 9.73603,-0.305244 4.18353,-1.18061 17.9834,-3.65962 17.9834,-3.65962 l 2.7908,3.7985 c 0.856646,1.34218 -0.462778,1.93805 -3.9938,2.37186 -3.53102,0.433812 -4.54621,-1.15261 -10.4275,0.981371 -7.74006,2.80841 -19.5534,2.50795 -19.5534,2.50795 l 3.4645,-5.6948 z" />
<path style="color:#000000;fill:#ff0303" d="m 24.2434,33.1832 c 3.48665,-1.51964 10.1864,-4.25819 12.4357,-0.630592 0,0 1.26348,1.37381 2.52001,3.71305 -5.45913,-4.30568 -10.7356,0.809842 -15.747,2.44374 l 0.7913,-5.5262 z" />
<path style="color:#000000;fill:#6d4810" d="m 19.1153,24.3319 10.5887,-0.7158 1.314,2.522 v 16.783 c 0,1.0158 -0.401062,5.079 -5.89715,5.079 -5.49609,0 -6.01037,-4.06321 -6.00553,-5.079 z" />
<path style="color:#000000;fill:#ae741a" d="m 18.9122,23.6161 c 0,0 3.59603,0.1 5.3959,0.1 1.79987,0 5.3959,-0.1 5.3959,-0.1 v 18.2891 c 0,1.0158 0.100157,5.079 -5.39593,5.079 -5.49609,0 -5.39593,-4.0632 -5.39593,-5.079 z" />
<path style="color:#000000;fill:#c80e0e" d="m 27.8532,29.1418 1.0835,3.9287 c -6.73386,-2.33441 -10.0245,5.97629 -10.0245,5.97629 v -6.28272 c 3.32204,-6.46451 8.941,-3.62226 8.941,-3.62226 z" />
<path style="color:#000000;fill:#f03c3c" d="m 18.9122,24.8246 v 3.9158 c 6.73386,-2.33441 10.7919,6.44626 10.7919,6.44626 V 28.90394 C 26.38206,22.43943 18.9122,24.82457 18.9122,24.82457 Z" />
<path style="color:#000000;fill:#be0000" d="m 29.7041,28.9101 1.3139,0.6 v 6.24 l -1.3139,-0.6 z" />
</svg>
