<svg width="48" version="1.0" xmlns="http://www.w3.org/2000/svg" height="48" xmlns:xlink="http://www.w3.org/1999/xlink">
<defs id="defs254">
<linearGradient gradientTransform="matrix(-0.26774877,0.14299421,0.10134775,0.18976807,-137.73611,17.144297)" xlink:href="#linearGradient3847" id="linearGradient2818" y1="94.556473" y2="122.30511" x1="-87.265961" x2="-62.21632" gradientUnits="userSpaceOnUse"/>
<linearGradient id="linearGradient111012">
<stop offset="0" style="stop-opacity:.314" id="stop111014"/>
<stop offset="1" style="stop-opacity:0" id="stop111013"/>
</linearGradient>
<linearGradient gradientTransform="matrix(0.20184581,-0.10779725,0.1197804,0.22428164,-136.2613,16.510401)" xlink:href="#linearGradient1962" id="linearGradient2816" y1="-21.779987" y2="78.62516" x1="32.122288" x2="104.7999" gradientUnits="userSpaceOnUse"/>
<linearGradient id="linearGradient3847">
<stop offset="0" style="stop-color:#fff" id="stop3849"/>
<stop offset="1" style="stop-color:#fff;stop-opacity:0" id="stop3851"/>
</linearGradient>
<linearGradient id="linearGradient111009">
<stop offset="0" style="stop-color:#284664" id="stop111010"/>
<stop offset="0.5" style="stop-color:#284664" id="stop6922"/>
<stop offset="1" style="stop-color:#284664;stop-opacity:0" id="stop111011"/>
</linearGradient>
<linearGradient id="linearGradient2355">
<stop offset="0" style="stop-color:#a3a3a3" id="stop2356"/>
<stop offset="1" style="stop-color:#ececec" id="stop2357"/>
</linearGradient>
<linearGradient gradientTransform="matrix(0.21794028,-0.11639344,0.12445793,0.23304059,-137.73611,17.144297)" xlink:href="#linearGradient1962" id="linearGradient2815" y1="67.481949" y2="40.076241" x1="75.426605" x2="74.449181" gradientUnits="userSpaceOnUse"/>
<linearGradient id="linearGradient1962">
<stop offset="0" style="stop-color:#a3a3a3" id="stop1963"/>
<stop offset="1" style="stop-color:#e2e2e2" id="stop1964"/>
</linearGradient>
<linearGradient id="linearGradient2206">
<stop offset="0" style="stop-color:#a4d8e5" id="stop2207"/>
<stop offset="0.5" style="stop-color:#0c418f" id="stop6801"/>
<stop offset="1" style="stop-color:#000040" id="stop2208"/>
</linearGradient>
<linearGradient id="linearGradient1969">
<stop offset="0" style="stop-color:#efefef" id="stop1970"/>
<stop offset="0.5" style="stop-color:#dedede" id="stop1971"/>
<stop offset="1" style="stop-color:#ededed" id="stop1972"/>
</linearGradient>
<linearGradient id="linearGradient110997">
<stop offset="0" id="stop111003"/>
<stop offset="0.24502474" style="stop-color:#284664" id="stop111002"/>
<stop offset="0.41858393" style="stop-color:#284664" id="stop111001"/>
<stop offset="0.55566579" style="stop-color:#fff;stop-opacity:.624" id="stop111000"/>
<stop offset="0.77783287" style="stop-color:#fff;stop-opacity:.812" id="stop110999"/>
<stop offset="1" style="stop-color:#284664;stop-opacity:.658" id="stop110998"/>
</linearGradient>
<linearGradient gradientTransform="matrix(0.17348995,-0.07925742,0.10421252,0.32868068,-128.27141,7.3185944)" xlink:href="#linearGradient3847" id="linearGradient9282" y1="39.538773" y2="69.708954" x1="0.24743624" x2="-12.675591" gradientUnits="userSpaceOnUse"/>
<linearGradient gradientTransform="matrix(-0.25550426,0,0,0.25550426,-93.691369,3.8943695)" id="linearGradient3085-1" xlink:href="#linearGradient3847" y1="149.83362" y2="112.83881" x1="83.300087" x2="118.84997" gradientUnits="userSpaceOnUse"/>
<linearGradient gradientTransform="matrix(-0.26774877,0.14299421,0.10134775,0.18976807,-137.73611,17.144297)" xlink:href="#linearGradient2355" id="linearGradient2817" y1="17.002604" y2="114.47857" x1="150.20464" x2="-74.741142" gradientUnits="userSpaceOnUse"/>
<linearGradient gradientTransform="matrix(0.34775787,-0.18572397,0.07799684,0.14604478,-137.73611,17.144297)" xlink:href="#linearGradient1969" id="linearGradient2820" y1="214.76514" y2="182.54021" x1="44.194824" x2="38.483089" gradientUnits="userSpaceOnUse"/>
<linearGradient gradientTransform="matrix(0.26774877,-0.14299421,0.10134775,0.18976807,-137.73611,17.144297)" xlink:href="#linearGradient1962" id="linearGradient2819" y1="143.83983" y2="161.67213" x1="266.6214" x2="43.178593" gradientUnits="userSpaceOnUse"/>
<linearGradient gradientTransform="matrix(0.29854067,0,0,0.29854067,-1.0238656,-1.5929025)" xlink:href="#linearGradient111009" id="linearGradient6920" y1="78.246857" y2="-14.590347" x1="39.723915" x2="86.443604" gradientUnits="userSpaceOnUse"/>
<linearGradient gradientTransform="matrix(0.25550426,0,0,0.25550426,-128.19269,7.4104319)" id="linearGradient3859" xlink:href="#linearGradient3847" y1="149.83362" y2="121.87605" x1="83.300087" x2="113.20168" gradientUnits="userSpaceOnUse"/>
<linearGradient gradientTransform="matrix(0.19729272,0,0,0.2947906,-126.77481,7.3185944)" xlink:href="#linearGradient3847" id="linearGradient111042" y1="83.424652" y2="103.62951" x1="39.47575" x2="30.13172" gradientUnits="userSpaceOnUse"/>
<linearGradient gradientTransform="matrix(0.25550426,0,0,0.25550426,-128.27141,7.3185944)" id="linearGradient3851" xlink:href="#linearGradient2206" y1="17.837265" y2="141.68867" x1="122.87633" gradientUnits="userSpaceOnUse" x2="37.007809"/>
<linearGradient gradientTransform="matrix(0.26163636,0,0,0.24962766,-128.27141,7.3185944)" xlink:href="#linearGradient2206" id="linearGradient10056" y1="11.834055" y2="138.86159" x1="110.59114" x2="25.186369" gradientUnits="userSpaceOnUse"/>
<radialGradient fx="57.287132" fy="47.729149" cx="57.287132" cy="47.729149" gradientTransform="matrix(0.24258596,0,0,0.29577684,-129.94977,5.914412)" xlink:href="#linearGradient110997" r="4.7214861" id="radialGradient9276" gradientUnits="userSpaceOnUse"/>
<radialGradient fx="42.023739" fy="37.865574" cx="41.875938" cy="37.865574" gradientTransform="matrix(1.600959,0,0,0.19674084,-175.10966,36.957625)" xlink:href="#linearGradient111012" r="12.562782" id="radialGradient2821" gradientUnits="userSpaceOnUse"/>
</defs>
<g style="stroke:none" id="g51">
<path style="fill:#254d7b;fill-rule:evenodd" id="path4558" d="m 11.0927,10.7001 c -2.4896,2.47487 -5.79171,3.7935 -6.53131,7.83087 0.238304,-5.03992 4.26268,-9.09777 7.98972,-12.2503 Z "/>
<path style="fill:#2e7bc2" id="path4261" d="m 19.8788,-.5372 c -0.0053,0 -3.72641,0.63976 -6.81115,5.34676 -4.26305,1.83118 -8.95341,4.81717 -10.8978,9.53561 -1.05917,1.93659 -1.6151,4.52465 -1.66873,7.76472 -0.00827,0.45004 0.034326,0.884825 0.068112,1.32818 l -.0341,-.0341 c 0,0 0.274206,5.60523 2.34985,9.94428 0.00358,0.01242 -0.00361,0.02153 0,0.03406 0.023682,0.04696 0.044382,0.08978 0.068112,0.136223 0.136153,0.276298 0.291026,0.520018 0.442725,0.783283 0.091156,0.165073 0.180868,0.352997 0.272446,0.510836 0.00848,0.0132 0.025534,0.02089 0.034055,0.03406 3.86276,6.62853 8.03716,6.91332 8.03716,6.91332 -1.93865,-1.22473 -3.84948,-3.54023 -5.44892,-5.75543 -2.26897,-4.59134 -2.96863,-11 -2.96285,-11 -0.02656,-0.823104 -0.034055,-1.4644 -0.034055,-1.4644 1.26775,1.88125 2.80676,2.91254 3.2353,2.48607 -0.00446,0 -4.22632,-5.0361 -0.476781,-11.8514 1.16706,-2.12637 2.91978,-4.1543 5.24459,-6.02787 -0.206139,0.506262 -0.393512,1.03437 -0.578949,1.60062 -0.201373,0.321137 -0.385105,0.6658 -0.510836,1.02167 -0.07625,0.150831 -0.122971,0.308835 -0.170279,0.476781 -0.0099,0.03426 -0.02523,0.06728 -0.03406,0.102168 -0.03337,0.135875 -0.04962,0.264893 -0.06811,0.408669 -0.01726,0.125429 -0.02646,0.2445 -0.03406,0.374614 -0.0061,0.11023 -0.03388,0.227929 -0.03406,0.340557 -0.000137,0.04689 -0.00075,0.08901 0,0.136222 0.0076,0.483597 0.07744,0.984905 0.136222,1.4644 0.02322,0.189328 0.04523,0.397476 0.06811,0.578948 0.05389,0.427379 0.09379,0.812104 0.102168,1.1579 l .0341,.9536 c -0.02971,-0.04849 -0.03418,-0.05408 -0.03406,-0.06811 -0.0026,-0.006 -0.03439,-0.03406 -0.03406,-0.03406 0.0041,0 -0.457537,1.21275 -0.476781,2.45202 -0.01754,0.743559 0.126695,1.48892 0.647059,2.00929 0,0 0.624051,-1.08999 1.73685,-1.66873 1.11279,-0.578742 2.13161,-1.10009 2.96285,-1.60062 0.831242,-0.500533 3.42829,-2.59949 5.55109,-2.45202 1.25311,1.85819 7.06129,4.06801 11.9876,2.11146 1.74328,4.1205 2.00865,9.43205 -0.578949,12.9071 -0.003,0 2.98558,-0.425621 4.73375,-4.05264 0.01028,0.105323 0.02513,0.199221 0.03406,0.306501 -0.0068,0 -0.0022,0.02959 0,0.03406 -0.822573,12.9532 -8.50216,19.6065 -12.3622,21.3189 4.85562,0.335178 7.82612,-1.36223 7.83283,-1.36223 0.0068,0 -0.652145,0.811667 -2.3839,1.87307 2.17867,0 7.61612,-2.07831 8.68422,-4.25697 l .5449,.2043 c -0.0018,0 6.81649,-4.76667 8.20744,-15.6997 0.0041,-0.01254 0.03281,-0.13276 0.03406,-0.136223 -0.0044,-0.0023 0.02735,0.0023 0.03406,0 0.05007,-0.460402 0.07027,-0.948307 0.102168,-1.43034 0.0015,-0.02284 -0.0014,-0.04522 0,-0.06811 0.01253,-0.175203 0.02436,-0.36681 0.03406,-0.544891 0.0037,-0.07795 -0.0032,-0.159887 0,-0.238391 0.02904,-0.617202 0.04119,-1.25554 0.03406,-1.90712 -0.000624,-0.04384 0.000786,-0.09222 0,-0.136223 -0.01063,-0.708984 -0.04446,-1.42967 -0.102168,-2.17957 -0.03074,-0.3995 -0.0571,-0.814784 -0.102168,-1.22601 -0.0093,-0.160859 -0.01718,-0.308348 -0.03406,-0.476781 -0.03907,-0.252534 -0.09102,-0.499534 -0.136224,-0.749226 -0.373616,-2.06352 -0.944896,-4.00733 -1.70279,-5.78948 -3.21866,-6.64156 -8.11359,-9.61076 -13.7971,-11.081 -2.99535,-0.77484 -6.58814,-0.724272 -9.25869,-0.532049 -0.544393,0.056527 -1.02659,0.128195 -1.4644,0.23839 0.06759,-0.03588 0.07036,-0.117279 0.102168,-0.170279 0.15679,-0.195577 -0.09196,0.01839 -0.170279,0.034055 -0.731404,0.123813 -1.4571,0.329792 -2.04335,0.476781 0.445261,-0.675065 1.01527,-1.34911 1.7709,-1.83901 -0.828724,0.349588 -1.76533,1.18806 -2.6223,2.0774 -0.645226,0.181577 -1.28979,0.357679 -2.04335,0.613004 0.573736,-1.12005 1.70681,-2.5942 3.98453,-4.25697 z "/>
<path style="fill:#e8f0f8" id="path4259" d="m 21.8881,6.5805 c -6.93373,6.70358 -4.17006,10.2535 -9.36534,10.4211 -2.16525,-7.20635 3.71646,-7.14302 9.36534,-10.4211 Z "/>
<path id="path187" d="m 14.8385,12.5402 c -0.900165,0.02242 -1.98033,0.474832 -1.87307,1.83901 0.09162,1.28709 1.3778,1.61745 2.24768,0.544891 0.457709,-0.564354 0.694688,-1.4572 0.408669,-2.28174 -0.212281,-0.06927 -0.483228,-0.109635 -0.783283,-0.102168 z "/>
</g>
<path style="fill:#546c74" id="path4316" d="m 16.7432,19.5767 -11.5461,14.7034 17.6899,13.8913 11.5692,-14.6576 -5.7463,-4.54 Z "/>
<path style="fill:#e2e8ea" id="rect4090" d="m 16.7432,18.6415 -11.5461,14.7034 17.6899,13.8913 11.5692,-14.6576 -5.7463,-4.54 Z "/>
<g style="fill-rule:evenodd" id="g59">
<g style="fill:#afbfcd" id="g61">
<path id="path4254" d="m 16.9699,31.0015 -10.4357,.6408 -1.1961,1.5231 17.7267,13.9202 1.1961,-1.5231 -1.8521,-10.29 -4.6192,.2836 Z "/>
<path id="path4251" d="m 16.7432,18.6415 -1.5875,2.0217 2.5131,15.0468 15.2136,-1.1266 1.5875,-2.0217 z "/>
</g>
<g style="fill:#eaf2f6" id="g65">
<path id="path4238" d="m 16.9548,31.4353 -10.8916,.8065 -.8659,1.1027 17.7267,13.9202 .8659,-1.1027 -1.7992,-10.7722 -4.322,.3201 Z "/>
<path id="path4219" d="m 16.7432,18.6415 -.8659,1.1027 2.5131,15.0468 15.2136,-1.1266 .8659,-1.1027 z "/>
</g>
<path style="fill:#031155;stroke-width:.312" id="path1667" d="m -124.4126,29.8201 c 2.54152,-6.51446 7.50003,5.13217 9.85831,10.9587 -1.0095,-0.459348 -2.07716,-0.942839 -3.8049,-1.86606 0.40073,1.20547 0.84508,2.09995 2.84474,4.64251 -0.6291,0.742585 -11.4061,-7.30686 -8.89815,-13.7351 z "/>
<path style="fill:url(#radialGradient2821);stroke-width:1.25" id="path1934" d="m -87.9555,44.4073 c 0,1.36503 -9.00467,2.47161 -20.1125,2.47161 -11.1078,0 -20.1125,-1.10658 -20.1125,-2.47161 0,-1.36503 9.00467,-2.47161 20.1125,-2.47161 11.1078,-1e-06 20.1125,1.10658 20.1125,2.47161 z "/>
<g style="stroke-opacity:.474" id="g71">
<path style="opacity:.3;fill:url(#linearGradient111042);stroke-width:.312" id="path111031" d="m -124.6783,29.8201 c 2.61002,-6.51446 7.70217,5.13217 10.124,10.9587 -1.03671,-0.459348 -2.13314,-0.942839 -3.90745,-1.86606 0.41153,1.20547 0.86787,2.09995 2.92141,4.64251 -0.64605,0.742585 -11.7134,-7.30686 -9.13796,-13.7351 z "/>
<path style="fill:none;stroke:#000;stroke-width:1.981" id="path2346" d="m -114.746,43.0098 c -0.78867,-1.47673 -9.2449,-17.3106 -9.2449,-17.3106 l -.2442,-2.9274 7.7479,-8.055 12.7953,-1.6958 3.5262,.9768 c 0,0 9.7622,16.8971 8.79737,16.9906 -0.964829,0.09352 -23.3777,12.0214 -23.3777,12.0214 z "/>
</g>
<path style="fill:url(#linearGradient2815);stroke-width:.312" id="path1062" d="m -114.8698,43.5637 c -0.77973,-1.46001 -9.14021,-17.1145 -9.14021,-17.1145 l -.2018,-2.9154 11.0383,-9.8 11.0784,-1.4904 2.8084,1.9403 c 0,0 9.70247,16.6058 8.71808,16.7145 -0.984391,0.108738 -24.3012,12.6656 -24.3012,12.6656 z "/>
<path style="fill:none;stroke:url(#linearGradient2816);stroke-width:1.884" id="path1699" d="m -114.5033,42.0657 c -0.75034,-1.40498 -9.03906,-16.3395 -9.03906,-16.3395 l -.3784,-2.8635 7.9985,-8.8074 12.3231,-1.097 3.2114,1.3047 c 0,0 9.31332,15.9924 8.39537,16.0814 -0.91795,0.08897 -22.5109,11.7213 -22.5109,11.7213 z "/>
<g style="stroke-width:.312" id="g77">
<path style="fill:url(#linearGradient2817)" id="path1697" d="m -90.5797,30.487 -2.036,-3.8122 -28.6366,-1.6985 -2.4168,1.9162 8.8047,16.8767 24.2846,-13.2822 z "/>
<path style="fill:url(#linearGradient2818)" id="path2761" d="m -90.5797,30.487 -2.036,-3.8122 -28.6366,-1.6985 -2.4168,1.9162 8.8047,16.8767 24.2846,-13.2822 z "/>
<path style="fill:url(#linearGradient2819)" id="path1692" d="m -114.7837,43.7821 -2.2465,-4.0684 14.5148,-24.7439 2.9366,-.9428 9.1292,16.7035 -24.334,13.0517 z "/>
<path style="fill:url(#linearGradient2820)" id="path1704" d="m -114.6621,43.6482 -1.7342,-2.8332 8.1009,-13.5405 16.6235,1.5893 1.1601,2.0341 -2.5275,1.2024 -13.7668,-2.4515 -6.4181,13.3789 -1.4378,.6204 z "/>
<path style="fill:#dc5040" id="path2338" d="m -122.6399,29.4004 -1.4117,-2.5053 .9735,-.3283 1.3968,2.5917 -.9586,.2419 z "/>
<path style="fill:#6381ab" id="path2345" d="m -113.475,43.1699 2.0898,-1.0424 -.5984,-.8293 -2.1141,1.1164 .6227,.7553 z "/>
<g style="fill:#dc5040" id="g85">
<path id="path2358" d="m -119.6307,35.0348 -1.4117,-2.5053 .9735,-.3283 1.3968,2.5917 -.9586,.2419 z "/>
<path id="path2359" d="m -116.6216,40.6693 -1.4117,-2.5053 .9735,-.3283 1.3968,2.5917 -.9586,.2419 z "/>
</g>
<g style="fill:#6381ab" id="g89">
<path id="path2360" d="m -121.1353,32.2176 -1.4117,-2.5053 .9735,-.3283 1.3968,2.5917 -.9586,.2419 z "/>
<path id="path2361" d="m -118.1261,37.8521 -1.4117,-2.5053 .9735,-.3283 1.3968,2.5917 -.9586,.2419 z "/>
<path id="path2362" d="m -115.117,43.4865 -1.4117,-2.5053 .9735,-.3283 1.3968,2.5917 -.9586,.2419 z "/>
<path id="path2369" d="m -107.8406,40.1608 2.0898,-1.0424 -.5984,-.8293 -2.1141,1.1164 .6227,.7553 z "/>
</g>
<g style="fill:#dc5040" id="g95">
<path id="path2373" d="m -110.6578,41.6654 2.0898,-1.0424 -.5984,-.8293 -2.1141,1.1164 .6227,.7553 z "/>
<path id="path2374" d="m -105.0233,38.6562 2.0898,-1.0424 -.5984,-.8293 -2.1141,1.1164 .6227,.7553 z "/>
</g>
</g>
<path style="fill:url(#linearGradient10056);stroke:url(#linearGradient3851);stroke-width:.431" id="path1782" d="m -106.9662,45.8725 c 1.07891,-0.280592 9.91371,-4.27203 8.34147,-14.7897 -0.443267,0.394942 -1.03665,0.776691 -2.85425,1.65561 0.4107,-1.74132 3.70983,-10.6004 -5.12136,-10.8722 -8.83579,-0.271986 -11.2817,3.3425 -11.8188,3.82487 -0.41358,-1.61471 -0.69868,-2.68554 -0.43133,-5.99639 -1.04972,0.307552 -4.0057,2.69599 -3.91188,4.9504 0.0938,2.25442 1.46536,4.16121 1.31357,5.01007 -0.7595,-0.8039 -1.55906,-0.753161 -2.41103,-0.907389 -0.28592,1.54586 0.53081,4.61428 1.66887,6.64105 1.06246,1.89214 1.30609,3.32147 7.29302,7.03787 -1.10587,-0.263054 -8.69768,-1.1208 -11.0826,-12.5016 -2.38327,-11.3728 8.89393,-16.7117 9.53413,-16.5797 3.40958,-4.05558 4.5342,-3.96335 6.38795,-4.08365 -0.13893,0.248808 -0.82545,0.656446 -1.1408,2.33365 18.7361,-2.47144 22.501,12.0702 21.8562,17.8934 -0.622748,5.62371 -7.68678,16.0989 -17.6231,16.3837 z "/>
<path style="stroke-opacity:.46;fill:url(#radialGradient9276);stroke:#000;stroke-width:.084" id="path3571" d="m -117.1185,21.3863 c 0.0154,-0.581704 -0.17693,-1.75277 0.18462,-2.20435 0.36155,-0.451585 1.0308,-0.489855 1.98468,-0.505163 -0.10769,1.17872 -0.14616,1.79869 -0.50771,2.25027 -0.36155,0.451586 -0.84618,0.352084 -1.66159,0.45924 z "/>
<g style="stroke-width:.312" id="g101">
<path style="fill:#65a2db" id="path5463" d="m 37.5127,25.6439 c -0.238361,2.81673 0.335732,4.89435 -0.04579,7.34152 1.28189,-0.882842 1.64816,-2.4162 2.47223,-3.62429 -0.320472,1.57982 -0.274692,2.92731 -0.961424,4.73945 1.32768,-0.789908 2.15176,-1.90508 2.88427,-3.90308 -0.30521,1.34749 -0.289956,3.02024 -0.915643,4.04248 1.66341,-0.58856 3.06291,-2.48996 4.02882,-4.4142 0.975515,-1.94339 -0.76304,-7.27956 -2.06019,-7.94556 -1.29716,-0.666003 -5.16781,0.993081 -5.40228,3.76369 z "/>
<path style="fill:#86b6e2" id="path6718" d="m 34.7044,20.3738 c 0.633784,2.58266 -0.724659,6.26774 -1.16164,8.71492 4.20274,-1.95992 4.06011,-4.86316 4.64468,-6.35356 0.05244,1.57982 0.869248,2.79629 0.240002,4.60844 1.52068,-0.789909 3.82791,-2.64852 4.66691,-4.64653 -0.349584,1.34749 -0.332109,4.78592 -0.576817,5.90109 1.90522,-0.588557 2.35454,-2.0253 3.46086,-5.01825 1.11694,-3.02168 -6.17011,-12.3907 -7.65583,-13.0567 -1.48572,-0.666004 -4.24106,7.31236 -3.61816,9.85064 Z "/>
<path style="fill:#b6d3ee" id="path7344" d="m 32.7236,15.1392 c 0.553347,2.58266 2.44171,4.98727 2.0602,7.43445 3.98303,-1.62629 2.70114,-6.55161 3.52521,-7.75971 0.04579,1.57982 0.824073,3.2061 0.732512,5.01825 1.32768,-0.78991 2.79271,-1.99801 2.2891,-5.90109 1.2056,0.882841 2.13649,1.25456 3.75412,3.48489 0.06104,-2.95829 -2.15623,-5.92839 -3.15895,-7.06272 -0.980178,-1.10883 -4.27657,-4.64919 -7.46247,-3.06671 -3.22278,1.6008 -2.28354,5.31435 -1.73972,7.85264 z "/>
<path style="fill:url(#linearGradient9282)" id="path9222" d="m -125.8332,24.8571 c -0.38404,2.2622 -0.0176,3.41695 1.41833,6.57494 0.30235,-1.49804 0.22106,-1.82975 0.49336,-3.15454 0.91852,0.745042 0.38828,-0.387743 1.96472,0.811174 -0.3934,-2.07998 -0.72135,-2.24299 -1.04245,-4.05244 -0.37466,-2.11132 0.69757,-3.45876 -0.43762,-3.60193 -1.13519,-0.143167 -1.97282,0.928005 -2.39634,3.4228 z "/>
</g>
</g>
<path style="fill:url(#linearGradient6920)" id="path247" d="m 12.4511,17.9107 c 0,0 -1.30311,-0.161025 -2.30688,-1.25654 -1.46887,3.66326 0.646297,4.94641 0.65214,4.94151 -0.751481,-1.3293 1.02554,-3.07537 1.65474,-3.68497 z "/>
<g style="font-family:Sans;text-align:start;stroke:none;line-height:normal;color:#000;text-decoration-line:none;stroke-width:2;text-indent:0;text-transform:none" id="g108">
<path style="fill:url(#linearGradient3859)" id="path3077" d="m -99.5597,38.3863 c -0.578967,1.52231 -1.38467,2.7272 -2.63303,4.03735 -0.99229,1.0414 -2.55982,2.33548 -4.82782,3.24377 l .062,.4165 c 2.29403,-0.864657 3.6669,-1.83422 5.1238,-3.34607 1.29028,-1.33895 2.11301,-2.58576 2.71473,-4.16791 z "/>
<path style="fill:url(#linearGradient3085-1)" id="path3083" d="m -123.1771,32.6268 c 0.50595,1.43026 0.9975,2.34213 1.55686,3.37645 0.78167,1.44542 1.34111,2.10369 2.37501,3.06179 1.08424,1.00474 2.49421,1.96813 4.46046,3.20441 l -.1407,.2984 c -2.1366,-1.15329 -3.20609,-1.76498 -4.67773,-3.18864 -1.82749,-1.7679 -3.07074,-3.56974 -4.01358,-6.56881 z "/>
</g>
</svg>
