<svg width="128" version="1.0" xmlns="http://www.w3.org/2000/svg" height="128">
<g style="stroke-width:.975">
<rect width="104.52076" x="11.73962" y="34.466881" height="80" style="fill:#1861ab"/>
<rect width="102.51548" x="11.843966" y="32.4664" height="80" style="fill:#347fcb"/>
</g>
<g style="stroke-linecap:round;stroke-linejoin:round">
<g style="stroke-width:2">
<path style="fill:#282828" d="m 7.0644,13.5331 c -1.44659,0 -2.88224,1.06841 -2.88228,2.83552 l 0,18.0494 0.8003,2.0488 h 118.818 v -19.098 c 0,-1.61373 -2.53177,-3.83576 -4.082,-3.83576 z"/>
<path style="fill:#646464" d="m 7.036,13.5334 c -1.42336,0 -2.836,1.06841 -2.836,2.83552 v 18.098 h 117.5 v -18.098 c 0,-1.61373 -1.31066,-2.83552 -2.836,-2.83552 z"/>
</g>
<circle cx="110.95084" cy="24.203417" style="fill:#fff;stroke-width:3" r="5"/>
</g>
<g style="stroke-linecap:square;fill-rule:evenodd;stroke-width:10">
<path style="opacity:.4" d="m 89.2559,64.2539 -3.4844,3.5859 c 0,0 -5.21378,4.50977 -9.09375,4.50977 -1.44512,0 -6.05207,-1.59844 -10.6855,-3.61133 -4.63348,-2.01288 -9.29156,-4.43945 -14.6699,-4.43945 -9.76702,0 -16.2656,7.54102 -16.2656,7.54102 l -4.7554,4.8002 1.2707,1.1912 7.1721,4.5632 3.4844,-3.5859 c 0,0 5.21379,-4.50977 9.09375,-4.50977 1.44512,0 6.05207,1.59844 10.6855,3.61133 4.63348,2.01288 9.29156,4.43945 14.6699,4.43945 9.76702,0 16.2656,-7.54102 16.2656,-7.54102 l 3.4872,-1.1814 1.0492,-1.3767 z"/>
<path style="fill:none;stroke:#eef4fc" d="m 38.6426,77.7338 c 0,0 5.85521,-6.02554 12.6787,-6.02554 6.82349,0 18.5339,8.05154 25.3574,8.05154 6.82349,0 12.6787,-6.02554 12.6787,-6.02554"/>
</g>
</svg>
