<svg width="48" version="1.1" xmlns="http://www.w3.org/2000/svg" height="48">
<g style="fill:#78af52;image-rendering:optimizeSpeed">
<path style="stroke-width:1.979" id="path29" d="m 17.7067,.2933 c -0.03138,0.123525 -0.06101,0.24705 -0.0837,0.352607 -2.60295,7.72142 -1.34693,12.7724 5.70962,15.3687 2.40845,-6.46107 0.491589,-11.3847 -5.20228,-15.3687 -0.122038,-0.105557 -0.271969,-0.229082 -0.425387,-0.352607"/>
<path style="stroke-width:2.304" id="path31" d="m 24.75,15.8917 c -0.505503,-5.28291 1.50636,-8.79003 6.0153,-10.4612 0.364773,5.39096 -1.70201,9.94196 -6.0153,10.4612"/>
</g>
<g id="g848" transform="matrix(1.0105047,0,0,1.0004869,-0.09039969,-0.02239603)">
<g style="image-rendering:optimizeSpeed">
<path style="fill:#c3e6aa;stroke-width:1.142" id="path830" d="m 27.1593,16.0149 c -0.881399,0.508204 -2.08926,1.1123 -3.38492,1.03372 v 28.9514 c 9.04904,0 16.8937,-6.01807 16.8889,-13.4417 -0.0034,-5.28828 -4.29975,-10.4473 -10.1809,-12.6123 -1.61327,-0.893358 -2.69088,-2.11539 -2.92657,-3.93106"/>
<path style="fill:#8a62bb;stroke-width:1.154" id="path828" d="m 19.9072,16.0146 c -0.837881,1.75363 -0.987412,2.9188 -3.13239,3.97966 -5.50038,2.13517 -9.75039,7.31864 -9.75812,12.564 0,7.42397 7.50228,13.4417 16.7577,13.4417 v -3.10194 c -7.11943,0 -12.8905,-4.62913 -12.8905,-10.3398 0,-5.71067 5.77108,-10.3398 12.8905,-10.3398 v -5.1699 c -1.56749,-0.09616 -2.3481,-0.285856 -3.38462,-1.03398"/>
<g style="stroke-width:1.08">
<path style="fill:#c3e6aa" id="path25" d="m 20.3897,16.0146 c -0.733332,1.75363 -0.864204,3.28495 -2.74154,4.34581 -4.81405,2.13517 -8.53374,6.95248 -8.54051,12.1979 0,7.42397 6.56615,13.4417 14.6667,13.4417 v -3.10194 c -6.23108,0 -11.282,-4.62913 -11.282,-10.3398 0,-5.71067 5.05097,-10.3398 11.282,-10.3398 v -5.1699 c -1.3719,-0.09616 -2.39179,-0.501479 -3.38462,-1.03398"/>
<path style="fill:#8a62bb" id="path27" d="m 27.159,16.0146 c -0.883385,0.435306 -2.22482,1.11256 -3.38462,1.03398 v 28.9514 c 8.10018,0 15.1223,-6.01807 15.118,-13.4417 -0.0031,-5.28828 -3.84888,-10.0811 -9.11334,-12.2462 -1.4441,-0.893358 -2.40872,-2.48155 -2.61969,-4.29722"/>
</g>
</g>
<g style="stroke-width:2.16">
<path style="fill:#f1f1c7" id="path37" d="m 23.7734,22.2188 a 11.2821,10.3398 0 0,0 -11.2812,10.3398 11.2821,10.3398 0 0,0 11.2812,10.3398 11.2821,10.3398 0 0,0 11.2832,-10.3398 11.2821,10.3398 0 0,0 -11.2832,-10.3398 Z  m 0,3.1016 a 7.89744,7.23786 0 0,1 7.89844,7.23828 7.89744,7.23786 0 0,1 -7.89844,7.23828 7.89744,7.23786 0 0,1 -7.89649,-7.23828 7.89744,7.23786 0 0,1 7.89649,-7.23828 z "/>
<path style="fill:#e0e088" id="path39" d="m 23.7734,25.3203 a 7.89744,7.23786 0 0,0 -7.89649,7.23828 7.89744,7.23786 0 0,0 7.89649,7.23828 7.89744,7.23786 0 0,0 7.89844,-7.23828 7.89744,7.23786 0 0,0 -7.89844,-7.23828 z  m 0,3.1016 a 4.51282,4.13592 0 0,1 4.51367,4.13672 4.51282,4.13592 0 0,1 -4.51367,4.13477 4.51282,4.13592 0 0,1 -4.51172,-4.13477 4.51282,4.13592 0 0,1 4.51172,-4.13672 z "/>
<path style="fill:#bfbf6d" id="path41" d="m 23.7734,28.4219 a 4.51282,4.13592 0 0,0 -4.51172,4.13672 4.51282,4.13592 0 0,0 4.51172,4.13477 4.51282,4.13592 0 0,0 4.51367,-4.13477 4.51282,4.13592 0 0,0 -4.51367,-4.13672 z "/>
</g>
</g>
</svg>
