<svg width="48" version="1.0" xmlns="http://www.w3.org/2000/svg" height="48">
<g style="stroke:none">
<g style="stroke-linecap:round">
<g style="stroke-linejoin:round;stroke-miterlimit:0;fill-rule:evenodd">
<path style="opacity:.05" id="path4169" d="m 1.772,4.733 45,0 0,30 -45,0 z "/>
<path style="opacity:.15" id="path4167" d="m 2.0919,4.9945 44.1509,0 .0001,29.193 -44.1509,0 z "/>
<path style="opacity:.25" id="path4165" d="m 2.4387,5.2784 43.2357,0 0,28.3526 -43.2357,0 z "/>
</g>
<path style="fill:#f0f0f0;stroke-width:.326" id="rect2447" d="m 3.0619,6.0005 41.8764,-.0005 .0004,26.9197 -41.8772,0 z "/>
</g>
<g style="stroke-linejoin:bevel;fill-opacity:.919;stroke-width:.125">
<path style="fill:#505050" id="path4235" d="m 3.04,32.3372 0,.6008 41.921,0 -.0005,-.6008 -20.9605,-17.2484 z "/>
<path style="fill:#dcdcdc" id="path3302" d="m 3.04,32.938 41.921,-.0003 -20.961,-17.2484 Z "/>
</g>
<g style="stroke-linecap:round">
<rect width="41.877197" x="3.06145" y="6.0000005" height="26.91972" style="fill:none;stroke-width:.995" id="rect3588"/>
<g style="stroke-width:.117">
<path style="opacity:.2" id="path4237" d="m 37.5996,11.1655 c -5.9147,0.141828 -8.61448,-0.199551 -14.0362,2.31467 -3.09292,1.7857 -6.09168,4.97159 -9.41661,6.29186 1.61482,0.392665 5.20962,-0.424424 6.62369,-0.988822 3.97811,-1.73423 11.8921,-5.47606 12.6544,-2.63111 0.419831,1.56683 -4.32935,3.90814 -8.23787,6.10322 -1.46427,0.845397 -4.40863,2.49922 -5.75579,3.277 1.8954,0 4.9841,-0.344342 7.06987,-0.903221 4.06719,-1.0898 17.1039,-2.02656 15.2582,1.17041 -0.88107,1.52606 -6.6539,3.70758 -9.48203,4.46538 -7.26354,1.94626 -14.0601,5.13684 -24.416,-0.842119 6.32759,8.96681 17.2138,7.32877 26.4256,4.78628 4.89794,-1.45688 9.75867,-3.83649 13.0654,-7.82819 1.19674,-1.58231 0.709616,-4.32347 -1.23161,-5.02473 -2.0352,-0.862273 -4.31647,-0.695446 -6.48169,-0.852772 -1.51983,-0.07409 -3.10461,-0.02253 -4.58528,0.05397 2.17381,-1.56965 4.18512,-3.55159 5.24719,-6.05407 0.273599,-1.60117 -1.00098,-3.42363 -2.70127,-3.33776 z "/>
<path style="fill:#098ed9" id="path2385" d="m 37.5996,10.6655 c -5.9147,0.141828 -8.61448,-0.199551 -14.0362,2.31467 -3.09292,1.7857 -6.09168,4.97159 -9.41661,6.29186 1.61482,0.392665 5.20962,-0.424424 6.62369,-0.988822 3.97811,-1.73423 11.8921,-5.47606 12.6544,-2.63111 0.419831,1.56683 -4.32935,3.90814 -8.23787,6.10322 -1.46427,0.845397 -4.40863,2.49922 -5.75579,3.277 1.8954,0 4.9841,-0.344342 7.06987,-0.903221 4.06719,-1.0898 17.1039,-2.02656 15.2582,1.17041 -0.88107,1.52606 -6.6539,3.70758 -9.48203,4.46538 -7.26354,1.94626 -14.0601,5.13684 -24.416,-0.842119 6.32759,8.96681 17.2138,7.32877 26.4256,4.78628 4.89794,-1.45688 9.75867,-3.83649 13.0654,-7.82819 1.19674,-1.58231 0.709616,-4.32347 -1.23161,-5.02473 -2.0352,-0.862273 -4.31647,-0.695446 -6.48169,-0.852772 -1.51983,-0.07409 -3.10461,-0.02253 -4.58528,0.05397 2.17381,-1.56965 4.18512,-3.55159 5.24719,-6.05407 0.273599,-1.60117 -1.00098,-3.42363 -2.70127,-3.33776 z "/>
</g>
</g>
<g style="stroke-linejoin:bevel">
<path style="opacity:.3;stroke-width:.363" id="rect3219" d="m 3.0619,6.0005 41.8764,0 -20.9382,15.8178 z "/>
<path style="opacity:.9;fill:#fff;stroke-width:.365" id="path4182" d="m 3.0619,6.0005 41.8764,0 -20.9382,12.8126 z "/>
</g>
</g>
</svg>
