<svg width="48" version="1.1" xmlns="http://www.w3.org/2000/svg" viewBox="0.419 -0.43 48 48" height="48" xmlns:xlink="http://www.w3.org/1999/xlink" style="overflow:visible;enable-background:new 0.419 -0.43 132 120">
<defs id="defs251">
<linearGradient xlink:href="#linearGradient4609" id="linearGradient4611" y1="24.318998" x1="17.811478" y2="41.701027" x2="39.331741" gradientUnits="userSpaceOnUse"/>
<linearGradient xlink:href="#linearGradient4641" id="linearGradient4659" y1="20.981699" x1="4.8240995" y2="24.074448" x2="7.1810694" gradientUnits="userSpaceOnUse"/>
<linearGradient xlink:href="#linearGradient4609" id="linearGradient4627" y1="11.533761" x1="28.692875" y2="18.620436" x2="37.590954" gradientUnits="userSpaceOnUse"/>
<linearGradient xlink:href="#linearGradient4641" id="linearGradient4643" y1="-4.4758339" x1="24.864088" y2="16.458542" x2="24.984032" gradientUnits="userSpaceOnUse"/>
<linearGradient xlink:href="#linearGradient4641" id="linearGradient4651" y1="20.886896" x1="43.627834" y2="23.646303" x2="42.117325" gradientUnits="userSpaceOnUse"/>
<linearGradient xlink:href="#linearGradient4609" id="linearGradient4635" y1="10.455386" x1="17.780317" y2="20.310293" x2="26.256853" gradientUnits="userSpaceOnUse"/>
<linearGradient xlink:href="#linearGradient4597" id="linearGradient4599" y1="18.862232" x1="26.295582" y2="19.083689" x2="20.251961" gradientUnits="userSpaceOnUse"/>
<linearGradient id="linearGradient4641">
<stop offset="0" style="stop-color:#fff" id="stop4637"/>
<stop offset="1" style="stop-color:#fff;stop-opacity:0" id="stop4639"/>
</linearGradient>
<linearGradient id="linearGradient4609">
<stop offset="0" style="stop-color:#fff" id="stop4605"/>
<stop offset="1" style="stop-color:#737373" id="stop4607"/>
</linearGradient>
<linearGradient xlink:href="#linearGradient4597" id="linearGradient4565" y1="44.163048" x1="15.321952" y2="37.242466" x2="15.093378" gradientUnits="userSpaceOnUse"/>
<linearGradient id="linearGradient4597">
<stop offset="0" style="stop-color:#ff8b00" id="stop4593"/>
<stop offset="1" style="stop-color:#ff0" id="stop4595"/>
</linearGradient>
<linearGradient id="linearGradient5261">
<stop offset="0" id="stop5257"/>
<stop offset="1" style="stop-color:#464646" id="stop5259"/>
</linearGradient>
<linearGradient xlink:href="#linearGradient4597" id="linearGradient4557" y1="43.941807" x1="35.375732" y2="36.080029" x2="35.480038" gradientUnits="userSpaceOnUse"/>
<linearGradient xlink:href="#linearGradient5261" id="linearGradient5263" y1="33.600651" x1="24.907494" y2="4.5249915" x2="24.703241" gradientUnits="userSpaceOnUse"/>
</defs>
<g style="stroke-width:.347">
<path style="fill:url(#linearGradient5263)" id="path2" d="m 7.7386,19.4785 c 0.037517,-0.03543 0.061139,-0.08233 0.068087,-0.133048 1.27767,-9.25773 8.54977,-16.2387 16.9165,-16.2387 8.48655,0 15.7722,7.09945 16.947,16.5145 0.0073,0.05315 0.03196,0.101435 0.07087,0.138605 0,0 4.40411,4.15539 5.10443,4.81576 -0.913615,0.02189 -4.93422,0.120195 -4.93422,0.120195 -0.118109,0.0028 -0.217113,0.09101 -0.231356,0.20565 -0.293191,2.43445 -0.94002,4.86196 -2.03497,7.00982 -3.04411,5.98123 -8.79606,8.39366 -14.9221,8.39366 -5.71583,0 -11.3945,-1.86948 -14.5845,-7.20492 -1.38224,-2.31079 -1.91859,-4.98215 -2.31183,-7.70945 -0.01598,-0.113247 -0.113247,-0.196966 -0.229272,-0.199745 0,0 -4.69244,-0.11811 -5.61474,-0.141384 0.693375,-0.670101 5.75612,-5.57097 5.75612,-5.57097 z"/>
<path a:adobe-blending-mode="screen" style="fill:url(#linearGradient4643)" id="path24" d="m 37.3904,12.615 c -0.04447,4.98508 -5.60883,9.02638 -12.5263,9.02638 -6.91881,0 -12.5276,-4.0411 -12.5276,-9.02638 0,-4.98528 5.60883,-9.22696 12.5276,-9.22696 6.91742,0 12.5658,4.79485 12.5263,9.22696 z"/>
<path style="fill:#fff" id="path26" d="m 26.153,12.056 c 0,0.258105 -0.19106,0.466187 -0.42728,0.466187 -0.235872,0 -0.426933,-0.208082 -0.426933,-0.466187 0,-0.256715 0.191408,-0.464797 0.426933,-0.464797 0.23622,-3.48e-4 0.42728,0.208082 0.42728,0.464797 z"/>
<path style="fill:url(#linearGradient4611);stroke:none" id="path54" d="m 34.2032,19.6988 c -2.53763,-2.51852 -5.76272,-4.02824 -9.2751,-4.02824 -4.34193,0 -8.24442,2.30662 -10.9512,5.97497 -2.25451,3.05314 -3.68156,7.05047 -3.83857,11.4546 3.1122,5.20622 8.40978,8.63662 14.4257,8.63662 6.46235,0 12.0948,-3.95911 15.0809,-9.82536 -0.437354,-4.92727 -2.46746,-9.2626 -5.44174,-12.2126 z"/>
<path style="fill:url(#linearGradient4635)" id="path61" d="m 24.9281,12.1165 c 0,3.20634 -2.41743,5.8051 -5.40145,5.8051 -2.98193,0 -5.4004,-2.59877 -5.4004,-5.8051 0,-3.20668 2.41848,-5.80545 5.4004,-5.80545 2.98401,0 5.40145,2.59877 5.40145,5.80545 z"/>
<path style="fill:url(#linearGradient4627)" id="path68" d="m 35.4871,12.5305 c 0,2.4546 -2.36359,4.44302 -5.27951,4.44302 -2.91593,0 -5.27951,-1.98842 -5.27951,-4.44302 0,-2.45356 2.36359,-4.44337 5.27951,-4.44337 2.91627,0 5.27951,1.98981 5.27951,4.44337 z"/>
<path id="path83" d="m 24.8072,12.295 c 0,0.947658 -0.706576,1.71711 -1.57781,1.71711 -0.871235,0 -1.57781,-0.769452 -1.57781,-1.71711 0,-0.949743 0.706575,-1.71885 1.57781,-1.71885 0.871234,0 1.57781,0.769104 1.57781,1.71885 z"/>
<path style="fill:#fff" id="path85" d="m 23.3082,11.7951 c 0,0.323065 -0.240041,0.584991 -0.536358,0.584991 -0.297011,0 -0.5374,-0.261578 -0.5374,-0.584991 0,-0.322371 0.240041,-0.58395 0.5374,-0.58395 0.29597,3.48e-4 0.536358,0.261579 0.536358,0.58395 z"/>
<path id="path100" d="m 27.2236,12.5983 c 0,0.653425 -0.48703,1.18388 -1.08661,1.18388 -0.600624,0 -1.08765,-0.530105 -1.08765,-1.18388 0,-0.653774 0.487377,-1.18423 1.08765,-1.18423 0.599581,0 1.08661,0.530105 1.08661,1.18423 z"/>
<path style="fill:#fff" id="path102" d="m 26.0032,12.4097 c 0,0.237609 -0.177512,0.431796 -0.39671,0.431796 -0.219893,0 -0.396363,-0.194187 -0.396363,-0.431796 0,-0.239694 0.17647,-0.432143 0.396363,-0.432143 0.219198,0 0.39671,0.192449 0.39671,0.432143 z"/>
</g>
<g style="stroke:none;fill-rule:evenodd" id="g88">
<path style="fill:url(#linearGradient4651)" id="path5249" d="m 45.9539,24.2201 -4.3025,-3.9663 .3954,2.2932 z "/>
<path style="fill:url(#linearGradient4659)" id="path5253" d="m 2.8018,24.7119 4.9665,-4.4851 -.1779,2.8934 z "/>
</g>
<g style="stroke-width:.347">
<path style="fill:url(#linearGradient4599)" id="path4581" d="m 20.3162,15.6962 c 0,0 2.786,-0.619035 4.43294,-0.619035 1.64624,0 4.3058,0.619035 4.3058,0.619035 l -4.3058,5.0687 z"/>
<path style="fill:url(#linearGradient4557)" id="path4585" d="m 42.8989,40.8964 c 0,1.68863 -3.36891,3.05766 -7.52673,3.05766 -4.15608,0 -7.52603,-1.36868 -7.52603,-3.05766 0,-1.68828 3.36995,-3.05696 7.52603,-3.05696 4.15782,0 7.52673,1.36834 7.52673,3.05696 z"/>
<path style="fill:url(#linearGradient4565)" id="path4587" d="m 22.7337,41.0628 c 0,1.68897 -3.36926,3.05766 -7.52603,3.05766 -4.15747,0 -7.52604,-1.36834 -7.52604,-3.05766 0,-1.68793 3.36857,-3.05801 7.52604,-3.05801 4.15677,0 7.52603,1.37008 7.52603,3.05801 z"/>
</g>
</svg>
