<svg width="48" version="1.0" xmlns="http://www.w3.org/2000/svg" height="48">
<path style="fill:#8c8c8c" d="m 5.832,1.5003 c -1.73516,0 -3.53571,1.80055 -3.53571,3.53571 v 37.928 c 0,1.73516 2,3.53571 3.73571,3.53571 h 36.136 c 1.73516,0 3.53571,-1.80055 3.53571,-3.53571 v -37.928 c 0,-1.73516 -1.80055,-3.53571 -3.53571,-3.53571 z"/>
<path style="fill:#e2e6ea" d="M 6.4317,2.5 C 4.69654,2.5 3.29628,3.90026 3.29628,5.63542 v 36.7292 c 0,1.73516 1.40026,3.13542 3.13542,3.13542 h 35.1366 c 1.73516,0 3.13542,-1.40026 3.13542,-3.13542 V 5.63542 C 44.70372,3.90026 43.30346,2.5 41.5683,2.5 Z"/>
<path style="opacity:.5;fill:#fff" d="m 11.2593,5.6885 c 2.20574,0 3.98148,1.77574 3.98148,3.98148 v 9.55556 c 0,2.20574 -1.77574,3.98148 -3.98148,3.98148 -2.20574,0 -3.98148,-1.77574 -3.98148,-3.98148 V 9.66998 c 0,-2.20574 1.77574,-3.98148 3.98148,-3.98148 z"/>
<path style="fill:#464646" d="m 11.2593,4.8889 c 2.20574,0 3.98148,1.77574 3.98148,3.98148 v 9.55556 c 0,2.20574 -1.77574,3.98148 -3.98148,3.98148 -2.20574,0 -3.98148,-1.77574 -3.98148,-3.98148 V 8.87038 c 0,-2.20574 1.77574,-3.98148 3.98148,-3.98148 z"/>
<path style="opacity:.5;fill:#fff" d="m 24,5.6885 c 2.20574,0 3.98148,1.77574 3.98148,3.98148 v 9.55556 c 0,2.20574 -1.77574,3.98148 -3.98148,3.98148 -2.20574,0 -3.98148,-1.77574 -3.98148,-3.98148 V 9.66998 C 20.01852,7.46424 21.79426,5.6885 24,5.6885 Z"/>
<path style="fill:#464646" d="m 24,4.8889 c 2.20574,0 3.98148,1.77574 3.98148,3.98148 v 9.55556 c 0,2.20574 -1.77574,3.98148 -3.98148,3.98148 -2.20574,0 -3.98148,-1.77574 -3.98148,-3.98148 V 8.87038 C 20.01852,6.66464 21.79426,4.8889 24,4.8889 Z"/>
<path style="opacity:.5;fill:#fff" d="m 36.7407,5.6885 c 2.20574,0 3.98148,1.77574 3.98148,3.98148 v 9.55556 c 0,2.20574 -1.77574,3.98148 -3.98148,3.98148 -2.20574,0 -3.98148,-1.77574 -3.98148,-3.98148 V 9.66998 c 0,-2.20574 1.77574,-3.98148 3.98148,-3.98148 z"/>
<path style="fill:#464646" d="m 36.7407,4.8889 c 2.20574,0 3.98148,1.77574 3.98148,3.98148 v 9.55556 c 0,2.20574 -1.77574,3.98148 -3.98148,3.98148 -2.20574,0 -3.98148,-1.77574 -3.98148,-3.98148 V 8.87038 c 0,-2.20574 1.77574,-3.98148 3.98148,-3.98148 z"/>
<g style="fill:#fff">
<path d="m 24,7.2778 c -1.75913,0 -3.18519,1.42605 -3.18519,3.18518 0,1.75913 1.42606,3.18519 3.18519,3.18519 1.75913,0 3.18518,-1.42606 3.18518,-3.18519 0,-1.75913 -1.42606,-3.18518 -3.18519,-3.18518 z"/>
<path d="m 36.7407,12.0556 c -1.75913,0 -3.18518,1.42605 -3.18518,3.18518 0,1.75913 1.42606,3.18519 3.18518,3.18519 1.75913,0 3.18519,-1.42606 3.18519,-3.18519 0,-1.75913 -1.42606,-3.18518 -3.18519,-3.18518 z"/>
<path d="m 11.2593,13.6481 c -1.75913,0 -3.18519,1.42605 -3.18519,3.18518 0,1.75913 1.42606,3.18519 3.18519,3.18519 1.75913,0 3.18519,-1.42606 3.18519,-3.18519 0,-1.75913 -1.42606,-3.18518 -3.18519,-3.18518 z"/>
</g>
<path d="m 24,24 c 0.439781,0 0.796296,0.35651 0.796296,0.7963 0,0.43978 -0.356515,0.79629 -0.796296,0.79629 -0.439782,0 -0.796297,-0.35651 -0.796297,-0.79629 C 23.203703,24.35651 23.560218,24 24,24 Z"/>
<path d="m 16.037,25.5926 c 0.439781,0 0.796296,0.35652 0.796296,0.7963 0,0.43978 -0.356515,0.7963 -0.796296,0.7963 -0.439782,0 -0.796297,-0.35652 -0.796297,-0.7963 0,-0.43978 0.356515,-0.7963 0.796297,-0.7963 z"/>
<path d="m 31.963,25.5926 c 0.43978,0 0.796295,0.35652 0.796295,0.7963 0,0.43978 -0.356515,0.7963 -0.796295,0.7963 -0.439782,0 -0.796297,-0.35652 -0.796297,-0.7963 0,-0.43978 0.356515,-0.7963 0.796297,-0.7963 z"/>
<path style="fill:#61667b" d="m 24,29.5741 c 3.52903,0 6.37037,2.85212 6.37037,6.37037 0,3.51826 -2.84134,6.37037 -6.37037,6.37037 -3.52903,0 -6.42014,-2.85211 -6.42014,-6.37037 0,-1.36924 0.457074,-2.5945 1.19444,-3.6331 l -.5475,-.5475 c -0.651782,-0.6525 -0.790213,-1.50121 -0.34838,-1.94097 0.441833,-0.43976 1.28919,-0.25435 1.94097,0.39814 l .5475,.4977 c 1.031,-0.71084 2.28469,-1.14468 3.6331,-1.14468 z "/>
<path d="m 12.8519,31.963 c 0.439781,0 0.796296,0.35652 0.796296,0.7963 0,0.43978 -0.356515,0.7963 -0.796296,0.7963 -0.439782,0 -0.796297,-0.35652 -0.796297,-0.7963 0,-0.43978 0.356515,-0.7963 0.796297,-0.7963 z"/>
<path d="m 35.1481,31.963 c 0.439782,0 0.796296,0.35652 0.796296,0.7963 0,0.43978 -0.356514,0.7963 -0.796296,0.7963 -0.439782,0 -0.796296,-0.35652 -0.796296,-0.7963 0,-0.43978 0.356514,-0.7963 0.796296,-0.7963 z"/>
</svg>
