<svg width="48" version="1.0" xmlns="http://www.w3.org/2000/svg" viewBox="0 0 48 48" height="48" xmlns:xlink="http://www.w3.org/1999/xlink">
<defs>
<linearGradient id="linearGradient4">
<stop offset="0"/>
<stop offset="1" style="stop-opacity:.8"/>
</linearGradient>
<linearGradient xlink:href="#linearGradient4" id="linearGradient5" y1="11.3262" x1="24" y2="36.673801" x2="24" gradientUnits="userSpaceOnUse"/>
</defs>
<path style="fill:#1c577d" d="m 45.8718,18.5823 c -1.18462,-4.43061 -0.659458,-5.2862 -4.98502,-4.05033 l -3.4895,0.997 C 36.0264,13.53496 34.03239,11.79021 31.91376,10.54395 l 0.5608,-3.4272 C 33.245213,2.4072 32.665715,2.43944 27.86002,2.00593 23.40109,1.409374 21.7476,1.016405 21.07134,5.49662 l -0.4985,3.3026 c -0.373877,0.124625 -0.872379,0.249251 -1.24625,0.373876 -1.4955,0.373876 -2.86638,1.12163 -4.11264,1.86938 l -2.6794,-2.0563 C 8.916,6.209146 8.80128,8.205538 6.30328,11.229436 c -1.49428,1.76707 -2.34102,1.58655 -2.79517,2.32435 -1.08421,1.76137 0.221069,2.73568 2.04741,4.15617 l 2.8041,2.1809 c -0.498501,1.37088 -0.747751,2.86638 -0.747751,4.48651 l -4.6162,0.353 c -3.77386,1.22604 -2.03118,2.7603 -0.867313,6.68837 1.18461,4.43061 0.659458,5.2862 4.98502,4.05033 l 3.4895,-0.997 c 1.37088,1.99401 3.36489,3.73876 5.48352,4.98502 l -0.5608,3.4272 c -0.770654,4.70955 1.16876,3.65279 5.17196,4.17495 4.45893,0.596556 5.55501,1.92539 6.23127,-2.55482 l 0.4985,-3.3026 c 0.373876,-0.124626 0.872378,-0.249251 1.24625,-0.373877 1.49551,-0.373876 2.86639,-1.12163 4.11264,-1.86938 l 2.6794,2.0563 c 3.2351,3.21557 3.73327,0.780638 6.23127,-2.24326 2.98856,-3.53414 4.83086,-4.34536 1.19218,-7.12834 l -3.2485,-1.5331 c 0.498501,-1.37088 0.747752,-2.86638 0.747752,-4.48651 l 3.4895,-0.997 c 2.24161,-0.64046 3.69474,-1.33439 3.08384,-3.60239 -0.230364,-0.855244 -0.507895,-0.477904 -1.08983,-2.44194 z M 25.5579,30.582255 c -3.48951,0.997004 -7.22827,-0.997002 -8.3499,-4.48651 -1.12163,-3.48951 0.997004,-7.32836 4.48652,-8.45 3.48951,-0.997003 7.17286,0.947509 8.3499,4.5866 0.997003,3.48951 -0.997003,7.22827 -4.48652,8.3499 z"/>
<path style="fill:#2980b9" d="m 45.8718,17.5818 c -1.18462,-4.43061 -0.659458,-5.2862 -4.98502,-4.05033 l -3.4895,.997 c -1.37088,-1.99401 -3.36489,-3.73876 -5.48352,-4.98502 l .5608,-3.4272 c 0.770653,-4.70955 -1.16876,-3.6528 -5.17195,-4.17495 -4.45893,-0.596556 -5.55501,-1.92539 -6.23127,2.55482 l -.4985,3.3026 c -0.373877,0.124625 -0.872379,0.249251 -1.24625,0.373876 -1.4955,0.373876 -2.86638,1.12163 -4.11264,1.86938 l -2.6794,-2.0563 c -3.61855,-2.77703 -3.73327,-0.780638 -6.23127,2.24326 -2.98856,3.53414 -4.40044,3.63954 -0.747753,6.48052 l 2.8041,2.1809 c -0.498501,1.37088 -0.747751,2.86638 -0.747751,4.48651 l -3.4895,.997 c -4.48322,1.28092 -3.15788,2.11626 -1.99401,6.04433 1.18461,4.43061 0.659458,5.2862 4.98502,4.05033 l 3.4895,-.997 c 1.37088,1.99401 3.36489,3.73876 5.48352,4.98502 l -.5608,3.4272 c -0.770654,4.70955 1.16876,3.65279 5.17196,4.17495 4.45893,0.596556 5.55501,1.92539 6.23127,-2.55482 l .4985,-3.3026 c 0.373876,-0.124626 0.872378,-0.249251 1.24625,-0.373877 1.49551,-0.373876 2.86639,-1.12163 4.11264,-1.86938 l 2.6794,2.0563 c 3.2351,3.21557 3.73327,0.780638 6.23127,-2.24326 2.98856,-3.53414 4.40044,-3.63954 0.747752,-6.48052 l -2.8041,-2.1809 c 0.498501,-1.37088 0.747752,-2.86638 0.747752,-4.48651 l 3.4895,-.997 c 4.48322,-1.28092 3.15788,-2.11626 1.99401,-6.04433 z  m -20.3139,12.4002 c -3.48951,0.997004 -7.22827,-0.997002 -8.3499,-4.48651 -1.12163,-3.48951 0.997004,-7.22827 4.48652,-8.3499 3.48951,-0.997003 7.22827,0.997003 8.3499,4.48651 0.997003,3.48951 -0.997003,7.22827 -4.48652,8.3499 z "/>
<path style="opacity:.2;fill:url(#linearGradient5)" d="M 24,11.3262 C 17,11.325703 11.325703,17 11.3262,24 11.325703,31 17,36.674297 24,36.6738 31,36.674297 36.674297,31 36.6738,24 36.674297,17 31,11.325703 24,11.3262 Z m -0.3359,5.5645 c 2.82929,0.05854 5.46954,1.90697 6.38086,4.74219 0.997002,3.48951 -0.996815,7.22798 -4.48633,8.34961 -3.48951,0.997003 -7.22993,-0.996824 -8.35156,-4.48633 -1.12163,-3.48951 0.998769,-7.22798 4.48828,-8.34961 0.654283,-0.186938 1.31584,-0.269368 1.96875,-0.255859 z"/>
<path style="opacity:.2" d="m 24,11.3262 c -7,0 -12.6743,5.67405 -12.6738,12.6738 l 0.012,0.3444 C 11.522202,17.84787 17.14115,12.3662 24,12.356 c 6.86573,0.0012 12.4818,5.48285 12.666,11.9858 0.0041,-0.113892 0.0067,-0.227835 0.0078,-0.341797 0,-7 -5.67404,-12.6743 -12.6738,-12.6738 z"/>
</svg>
