<svg width="48" version="1.1" xmlns="http://www.w3.org/2000/svg" viewBox="0 0 48 48" height="48" xmlns:xlink="http://www.w3.org/1999/xlink" style="overflow: visible;">
<defs>
<linearGradient id="linearGradient4153">
<stop offset="0" style="stop-color:#fff;stop-opacity:.51"/>
<stop offset="1" style="stop-color:#fff;stop-opacity:0"/>
</linearGradient>
<linearGradient xlink:href="#linearGradient4153" id="linearGradient4159" y1="9.6396875" x1="6.0155225" y2="39.580494" x2="29.109051" gradientUnits="userSpaceOnUse"/>
</defs>
<path style="opacity:.03" d="m 3.784505,3.6377 c -1.76602,0 -3.20309,1.45417 -3.20309,3.2406 V 44.922 h 46.8756 V 6.8783 c 0,-1.78751 -1.43601,-3.2406 -3.20203,-3.2406 h -40.4704 z"/>
<path style="opacity:.05" d="m 3.9847,3.8381 c -1.76602,0 -3.20309,1.45417 -3.20309,3.2406 v 37.4437 h 46.3754 V 7.0787 c 0,-1.78751 -1.43601,-3.2406 -3.20203,-3.2406 H 3.98478 Z"/>
<path style="opacity:.1" d="M 4.00604,4.09258 C 2.4002296,4.1301269 0.95814,5.50109 0.96197,7.23142 V 44.04 H 46.82551 V 7.23142 c 0,-1.73138 -1.40955,-3.13884 -3.14302,-3.13884 H 4.00596 Z"/>
<path style="opacity:.15" d="m 4.342,4.3305 c -1.88191,0 -3.14789,1.40867 -3.14406,3.139 v 36.1705 h 45.3271 v -36.1707 c 0,-1.73138 -1.40955,-3.13884 -3.14302,-3.13884 h -39.0401 Z "/>
<path style="opacity:.33" d="m 4.15,4.6108 c -1.89567,0.16344 -2.66087,1.49411 -2.66088,2.73842 l 0,35.8908 h 44.6366 l 0,-35.691 c 0,-1.60554 -1.18513,-2.93821 -2.84351,-2.93821 h -39.1323 Z "/>
<path style="fill:#d0cabe" d="M 43.266,4.9246 H 4.1893 c -1.30402,0 -2.3604,1.05429 -2.3604,2.35517 v 3.50664 16.3817 15.597 h 43.7964 v -15.597 -16.3817 -3.50664 c 0,-1.30088 -1.05638,-2.35517 -2.35935,-2.35517 z"/>
<path d="m 42.6997,38.8038 c 0,0.497965 -0.380338,0.90187 -0.851583,0.90187 h -36.477 c -0.471244,0 -0.851583,-0.403905 -0.851583,-0.90187 v -30.3637 c 0,-0.499072 0.381384,-0.90187 0.851583,-0.90187 h 36.477 c 0.471245,0 0.851583,0.403904 0.851583,0.90187 v 30.3637 z "/>
<g style="fill:#fff">
<path d="m 11.6906,32.3918 c -1.09875,-0.07582 -2.10179,-0.40768 -3.01036,-0.995585 l .9136,-2.2087 c 0.97694,0.697282 1.93773,1.04406 2.88111,1.04406 1.45174,0 2.17761,-0.499656 2.17761,-1.50145 0,-0.499656 -0.185197,-0.969483 -0.556833,-1.41073 -0.371635,-0.44 -1.07513,-0.919767 -2.11298,-1.43931 -1.03785,-0.519544 -1.74383,-0.949597 -2.11795,-1.2914 -0.374121,-0.340562 -0.662481,-0.749485 -0.861349,-1.22179 -0.20011,-0.473555 -0.300788,-1.0018 -0.300788,-1.58349 0,-0.860107 0.270958,-1.61829 0.810389,-2.2758 0.540674,-0.656264 1.26654,-1.09626 2.17637,-1.3175 v -1.72394 h 2.1714 l -.0099,1.627 c 1.17332,0.113112 2.04834,0.396494 2.62258,0.84892 l -.7507,2.1366 c -0.868806,-0.631408 -1.7836,-0.947111 -2.74562,-0.947111 -0.569261,0 -1.01174,0.154124 -1.32496,0.461125 -0.313217,0.308248 -0.469826,0.694799 -0.469826,1.16463 0,0.799201 0.882478,1.62823 2.64867,2.48834 0.92971,0.454912 1.60089,0.875021 2.0123,1.25785 0.411407,0.382821 0.724626,0.82779 0.939653,1.33739 0.215026,0.508358 0.32316,1.07638 0.32316,1.70281 0,0.884964 -0.287116,1.65807 -0.861348,2.31806 -0.574233,0.661237 -1.3722,1.1149 -2.39264,1.36224 v 2.18631 h -2.1602 v -2.01851 h -0.0012 z "/>
<path d="m 21.1045,23.8939 v -2.15896 l 7.5756,3.6418 v 1.5288 l -7.5756,3.6654 v -2.16021 l 5.0015,-2.2696 z "/>
</g>
<path style="fill:url(#linearGradient4159)" d="m 6.7148,9.4219 c -0.587749,0 -1.06445,0.505066 -1.06445,1.12891 v 37.8281 c 11.6157,-17.2867 26.978,-28.7624 46.6445,-38.957 h -45.5801 z " transform="scale(0.8,0.8)"/>
</svg>
