<svg width="48" version="1.1" xmlns="http://www.w3.org/2000/svg" height="48" xmlns:xlink="http://www.w3.org/1999/xlink">
<defs>
<linearGradient id="linearGradient4202">
<stop offset="0" style="stop-color:#59b107"/>
<stop offset="1" style="stop-color:#264d03"/>
</linearGradient>
<radialGradient fx="24.144329" fy="44.155018" cx="24.144329" cy="44.155018" gradientTransform="matrix(2.9639692,-0.00646702,0.00359533,1.6478076,-47.545953,-30.346477)" xlink:href="#linearGradient4202" id="radialGradient4187" r="21.5" gradientUnits="userSpaceOnUse"/>
</defs>
<path style="opacity:.2" d="m 4.846,1.9478 c -3.4745616,0 -4.7497,2.35231 -4.74379,4.7102 l 0.1002,39.895 h 47.8 L 47.90221,6.658 C 47.896283,4.29809 46.40125,1.9478 43.06,1.9478 Z"/>
<path style="opacity:.3" d="m 4.8506,2.4478 c -2.75599,0 -4.24339,1.7521 -4.24339,4.4102 v 38.695 h 46.6001 V 6.858 c 0,-2.44299 -1.37483,-4.4102 -4.44331,-4.4102 z"/>
<path style="fill:#d0cabe" d="m 4.743,3.1484 c -2.45004,0 -3.43452,1.8516 -3.43452,3.60868 v 38.0948 h 45.1828 v -38.095 c 0,-1.71132 -1.22595,-3.60895 -3.83428,-3.60892 Z "/>
<g style="fill-rule:evenodd">
<path style="fill:url(#radialGradient4187)" d="M 6.275,5.168 C 4.342,5.1625464 3.5005,6.025536 3.5005,7.844 V 42.5308 H 44.5 V 7.844 c 0,-1.63914 -0.937607,-2.57101 -2.674,-2.5757 z"/>
<path style="fill:#fff" d="m 14.0033,11.7812 3.8736,12.3438 3.5407,-7.8438 3.8736,6.375 3.7525,-1.5938 h 15.1369 v 3.6875 H 29.5582 l -4.5697,2.75 -3.4196,-5.6875 -3.8131,10.4062 -4.1157,-13.1562 -1.6342,5.6875 H 3.6705 v -3.6875 h 6.3381 l 3.9946,-9.2812 z"/>
<path style="fill:#efff00" d="m 22.3715,34.2002 c 0.473451,0 0.955571,0.13337 1.34446,0.344733 l 1.4133,.6895 v 1.82708 c 0,0.01173 0,0.02278 0,0.03447 -0.07356,1.44953 -1.29016,2.61997 -2.75786,2.61997 -1.51505,0 -2.72339,-1.24281 -2.72339,-2.75786 0,-1.51505 1.20834,-2.75786 2.72339,-2.75786 z "/>
<path style="fill:#0fe" d="m 30.4748,34.2588 c 0.150717,-0.0182 0.283506,-0.02358 0.455282,-0.01172 1.03066,0.07044 1.93734,0.719683 2.33501,1.74574 0.547343,1.4122 -0.173566,2.96893 -1.58577,3.51628 -1.4122,0.547338 -2.96893,-0.139093 -3.51627,-1.5513 -0.171044,-0.441313 -0.228876,-0.905617 -0.172367,-1.34446 l .1723,-1.7582 1.7329,-.4702 c 0.2,-0.05864 0.382845,-0.102486 0.578925,-0.12616 z "/>
<path style="fill:#ffc541" d="m 38.436,34.3103 c 0.473451,0 0.955571,0.13337 1.34446,0.344733 l 1.6203,.6895 -.2068,1.827 c 0,0.01173 0,0.02278 0,0.03447 -0.07355,1.44953 -1.29016,2.61997 -2.75786,2.61997 -1.51505,0 -2.68892,-1.24281 -2.68892,-2.75786 0,-1.51505 1.17387,-2.75786 2.68892,-2.75786 z "/>
</g>
</svg>
