<svg width="48" version="1.1" xmlns="http://www.w3.org/2000/svg" height="48" xmlns:xlink="http://www.w3.org/1999/xlink">
<defs id="defs1308">
<linearGradient id="linearGradient4202">
<stop offset="0" style="stop-color:#59b107" id="stop4204"/>
<stop offset="1" style="stop-color:#264d03" id="stop4206"/>
</linearGradient>
<radialGradient fx="24.144329" fy="44.155018" cx="24.144329" cy="44.155018" gradientTransform="matrix(2.963924,-0.0175994,0.01005678,1.6936655,-47.830167,-32.102551)" xlink:href="#linearGradient4202" id="radialGradient4187" r="21.5" gradientUnits="userSpaceOnUse"/>
</defs>
<path style="opacity:.3" id="path562" d="m 3.8508,2.4478 c -1.78835,0 -3.23916,1.44064 -3.24359,3.21042 v 39.8948 h 46.6001 v -39.8948 c 0,-1.77086 -1.45417,-3.21042 -3.24252,-3.21042 h -40.1139 z "/>
<path style="opacity:.2" id="path563" d="m 3.746,1.9478 c -1.78835,0 -3.6481,1.64043 -3.64379,3.41021 l .1002,41.195 h 47.8 l -.1002,-41.195 c -0.004308,-1.77085 -1.85381,-3.41021 -3.64216,-3.41021 h -40.514 z "/>
<path style="fill:#d0cabe" id="path583" d="m 44.0573,3.1484 -40.3137,0 c -1.3453,0 -2.43512,1.07833 -2.43512,2.40888 v 3.58661 16.7553 18.9527 h 45.1828 v -18.9527 -16.7553 -3.58661 c 0,-1.33055 -1.08982,-2.40888 -2.43404,-2.40888 z "/>
<g style="fill-rule:evenodd" id="g24">
<path style="fill:url(#radialGradient4187)" id="path4196" d="m 6.875,4.9684 c -2.85048,0 -3.3745,0.547029 -3.3745,3.37542 v 12.7187 3.6875 17.7808 l 41,0 v -34.1869 c 0,-2.86814 -0.41261,-3.3754 -3.3745,-3.37542 z "/>
<path style="fill:#fff" id="path4189" d="m 14.0033,11.7812 3.8736,12.3438 3.5407,-7.8438 3.8736,6.375 3.7525,-1.5938 15.1369,0 0,3.6875 -14.6224,0 -4.5697,2.75 -3.4196,-5.6875 -3.8131,10.4062 -4.1157,-13.1562 -1.6342,5.6875 -8.3354,0 0,-3.6875 6.3381,0 3.9946,-9.2812 z "/>
<path style="fill:#efff00" id="path4185" d="m 22.3715,34.2002 c 0.473451,0 0.955571,0.13337 1.34446,0.344733 l 1.4133,.6895 v 1.82708 c 0,0.01173 0,0.02278 0,0.03447 -0.07356,1.44953 -1.29016,2.61997 -2.75786,2.61997 -1.51505,0 -2.72339,-1.24281 -2.72339,-2.75786 0,-1.51505 1.20834,-2.75786 2.72339,-2.75786 z "/>
<path style="fill:#0fe" id="path4183" d="m 30.4748,34.2588 c 0.150717,-0.0182 0.283506,-0.02358 0.455282,-0.01172 1.03066,0.07044 1.93734,0.719683 2.33501,1.74574 0.547343,1.4122 -0.173566,2.96893 -1.58577,3.51628 -1.4122,0.547338 -2.96893,-0.139093 -3.51627,-1.5513 -0.171044,-0.441313 -0.228876,-0.905617 -0.172367,-1.34446 l .1723,-1.7582 1.7329,-.4702 c 0.2,-0.05864 0.382845,-0.102486 0.578925,-0.12616 z "/>
<path style="fill:#ffc541" id="path3035" d="m 38.436,34.3103 c 0.473451,0 0.955571,0.13337 1.34446,0.344733 l 1.6203,.6895 -.2068,1.827 c 0,0.01173 0,0.02278 0,0.03447 -0.07355,1.44953 -1.29016,2.61997 -2.75786,2.61997 -1.51505,0 -2.68892,-1.24281 -2.68892,-2.75786 0,-1.51505 1.17387,-2.75786 2.68892,-2.75786 z "/>
</g>
</svg>
