<svg width="48" version="1.1" xmlns="http://www.w3.org/2000/svg" height="48">
<path style="fill:#cca44c" id="path3001" d="M 3,3 V 45 H 45 V 3 Z"/>
<g style="fill-rule:evenodd" id="g24">
<g id="g7" transform="translate(-4.7683716e-7,-2.6595205)">
<path style="fill:#34495e" id="shape0" d="m 20,5.6517 h 8 v 19.6657 h -8 z "/>
<path style="fill:#ecf0f1" id="shape1" d="m 20,5.6575 4.8,0 v 1.45576 h -4.8 Z "/>
</g>
<g style="fill:#ecf0f1" id="g13" transform="translate(0,-2.6595205)">
<path id="shape2" d="m 23.2,7.1134 h 4.8 v 1.45577 h -4.8 z "/>
<path id="shape3" d="m 20,8.5718 h 4.8 v 1.45577 h -4.8 Z "/>
<path id="shape4" d="m 23.2,10.0277 h 4.8 v 1.45577 h -4.8 z "/>
<path id="shape5" d="m 20,11.4875 h 4.8 v 1.45577 h -4.8 Z "/>
<path id="shape6" d="m 23.2,12.9434 h 4.8 v 1.45577 h -4.8 z "/>
<path id="shape7" d="m 20,14.4017 h 4.8 v 1.45577 h -4.8 Z "/>
<path id="shape8" d="m 23.2,15.8577 h 4.8 v 1.45577 h -4.8 z "/>
<path id="shape9" d="m 20,17.3162 h 4.8 v 1.45577 h -4.8 Z "/>
<path id="shape10" d="m 23.2,18.772 h 4.8 v 1.45577 h -4.8 z "/>
<path id="shape11" d="m 20,20.2305 h 4.8 v 1.45577 h -4.8 Z "/>
<path id="shape12" d="m 23.2,21.6864 h 4.8 v 1.45577 h -4.8 z "/>
<path id="shape13" d="m 20,23.1462 h 4.8 v 1.45577 h -4.8 Z "/>
</g>
<path style="opacity:.05" id="path897" d="m 18,-36.5 h 12 v 14.75 H 18 Z" transform="scale(1,-1)"/>
<path style="opacity:.05" id="path895" d="m 18.25,-36 h 11.5 v 14.25 h -11.5 z" transform="scale(1,-1)"/>
<path style="opacity:.05" id="rect3014" d="m 18.5,-35.5 h 11 v 13.75 h -11 z" transform="scale(1,-1)"/>
<path style="fill:#ecf0f1" id="shape17" d="m 19,-35 h 10 v 13 H 19 Z" transform="scale(1,-1)"/>
<path style="fill:#2c3e50" id="shape18" d="m 21,-33 h 6 v 3 H 21 Z" transform="scale(1,-1)"/>
</g>
</svg>
