<svg width="128" version="1.0" xmlns="http://www.w3.org/2000/svg" height="128">
<path style="fill:#7c7c7c" d="m 63.9832,15.8351 c -34.0907,0 -59.2151,35.1292 -59.2151,78.4062 0,10.6283 2.16595,30 2.16595,30 h 114.132 c 0,0 2.16595,-19.3717 2.16595,-30 0,-43.2771 -25.1585,-78.4062 -59.2491,-78.4062 z "/>
<g style="stroke:#5a5a5a">
<path style="fill:#c2c2c2;stroke-linecap:square;stroke-width:3;stroke-dashoffset:4" d="m 115.0824,56.2788 c 0,28.1777 -22.5014,51.0201 -50.2584,51.0201 -27.757,0 -50.2584,-22.8425 -50.2584,-51.0201 0,-28.1777 22.5014,-51.0201 50.2584,-51.0201 27.757,0 50.2584,22.8425 50.2584,51.0201 z "/>
<path style="fill:none;fill-rule:evenodd;fill-opacity:.75;stroke-width:1.019" d="m 64.8241,5.3231 v 101.565"/>
</g>
<g style="stroke-dashoffset:4;stroke-linejoin:round;stroke-linecap:round">
<path style="stroke:#fff;stroke-width:4.652" d="m 90.3806,55.7384 c 0,13.8987 -11.4421,25.1659 -25.5566,25.1659 -14.1145,0 -25.5566,-11.2672 -25.5566,-25.1659 0,-13.8987 11.4421,-25.1659 25.5566,-25.1659 14.1145,0 25.5566,11.2672 25.5566,25.1659 z "/>
<path style="fill:none;stroke:#a3a3a3;stroke-width:4.123" d="m 82.9581,55.839 c 0,9.59018 -7.89507,17.3646 -17.6342,17.3646 -9.73906,0 -17.6342,-7.77439 -17.6342,-17.3646 0,-9.59018 7.89507,-17.3646 17.6342,-17.3646 9.73906,0 17.6342,7.77439 17.6342,17.3646 z "/>
</g>
</svg>
