<svg width="48" version="1.1" xmlns="http://www.w3.org/2000/svg" height="48">
<g style="fill-rule:evenodd" id="g5">
<g style="stroke:#000;stroke-width:0" id="g7">
<rect width="33.941135" x="16.970558" y="-16.970558" height="33.941116" id="rect830" transform="matrix(0.70710678,0.70710678,-0.70710678,0.70710678,0,0)"/>
<rect width="33.440548" x="17.22064" y="-16.72023" height="33.440548" style="fill:#0f0" id="rect827" transform="matrix(0.70710678,0.70710678,-0.70710678,0.70710678,0,0)"/>
<path style="fill:#000084" id="path829" d="m 47.6529,24.0146 -23.6619,23.6792 -23.6442,-23.6687 47.3061,-.0104 Z "/>
<rect width="31.266912" x="18.307459" y="-15.633413" height="31.266912" style="fill:#008200" id="rect826" transform="matrix(0.70710678,0.70710678,-0.70710678,0.70710678,0,0)"/>
</g>
<g style="stroke:none" id="g13">
<path style="fill:#5c585c" id="path4239" d="m 13.8584,44.111 c 0.626177,-0.04542 1.19048,-0.493059 1.66197,-0.971627 l 31.2396,-32.2022 c 0.539189,-0.550665 0.92369,-1.03946 0.875061,-1.83762 v -1.84384 c 0.0097,-1.73779 -0.401152,-2.81106 -2.21017,-3.27726 l -11.1038,1.0958 c -2.30313,0.642176 -3.26836,1.24435 -3.23627,3.23195 0.373634,1.27938 2.62809,2.58235 4.02379,2.63093 l -15.7258,15.6378 v -15.9003 c 1.07485,0.03715 1.87125,-0.575389 1.92514,-1.83762 l -.0049,-1.637 c -0.07246,-1.56631 -0.727712,-2.29404 -2.2896,-3.01835 l -11.6302,1.0676 c -1.74665,0.56663 -2.29099,1.23512 -2.76048,2.57486 0.077709,1.55923 1.04825,3.03887 2.6729,3.11307 l .6691,.0256 -.0629,31.0913 c 0.693822,1.28522 1.63296,2.02662 2.98094,2.0478 l 2.9759,.0088 z "/>
<path style="fill:#c6c3c6" id="path844" d="m 12.6584,42.9106 c 0.626177,-0.04542 1.19048,-0.493059 1.66197,-0.971627 l 31.2396,-32.2022 c 0.539189,-0.550665 0.92369,-1.03946 0.875061,-1.83762 v -1.84384 c 0.0097,-1.73779 -0.320806,-2.17618 -2.01264,-2.18144 h -11.3003 c -1.31704,0.015853 -2.20094,0.898013 -2.18765,2.27516 l .0256,1.5857 c 0.09629,1.56454 1.55387,1.95344 2.94957,2.00202 l -15.7266,15.6382 -.0003,-15.9007 c 1.07485,0.037153 1.87125,-0.575389 1.92514,-1.83762 l -.0049,-1.637 c -0.07246,-1.56631 -0.794578,-1.98792 -2.44486,-2.03827 l -10.7754,.0875 c -1.34621,0.110456 -2.16647,0.561228 -2.33703,2.12577 l -.0257,1.112 c 0.077709,1.55923 0.650501,2.37596 2.27515,2.45017 l .6691,.0256 .0309,31.1265 c 0.141395,1.19683 0.839669,1.99146 2.18765,2.01264 l 2.9759,.0088 z "/>
<g style="stroke-width:.536" id="g17">
<path style="fill:#676167" id="path4233" d="m 26.2521,42.2544 c -0.000524,0.870035 0.981852,1.70016 1.77204,1.69233 l 3.2282,-.0326 c 0.37507,-0.0084 1.03875,-0.861363 0.749983,-1.46736 l -.6848,-.8478 c -0.311356,-0.539893 0.352042,-2.13364 1.14128,-3.74992 1.14099,-1.4981 2.45837,-1.58288 3.29341,-1.59779 0.249072,0.05686 0.350163,0.342473 0.423903,0.65216 -0.422171,1.15862 -1.75146,2.77068 -3.36377,5.69856 0.269871,0.804933 0.877997,1.35259 1.66815,1.34476 l 3.2608,-.0326 c 0.37507,-0.0084 1.03876,-0.861363 0.749983,-1.46736 l -.6848,-.8478 c -0.315865,-0.547721 0.368799,-2.17427 1.17389,-3.81513 1.05516,-1.51217 2.33336,-1.53258 3.13037,-1.53258 0.318159,0.09788 0.391149,0.499669 0.391295,0.913023 -0.440537,1.16257 -1.74662,2.45451 -3.28018,5.23936 0.343237,0.782366 0.957447,1.55094 1.7476,1.5431 l 3.2282,-.0326 c 0.37507,-0.0084 1.07138,-0.861351 0.782591,-1.46736 l -.6848,-.8478 c -0.64447,-1.11751 1.94668,-4.37388 2.70269,-6.41248 0.46942,-1.45518 -1.34015,-3.20323 -2.23203,-3.48488 -9.24312,2.19715 -12.3103,-0.701792 -18.514,10.5528 z "/>
<path style="fill:#c6c3c6" id="path960" d="m 33.0347,31.3464 c -1.19341,-0.216017 -2.41031,-0.150384 -3.50984,-0.01429 -0.430289,-0.03131 -0.59865,0.666611 -0.442174,1.15167 l .4565,.913 c 0.05885,0.736606 0.428067,1.51238 -3.22819,8.152 -0.359888,0.790177 0.122835,1.60562 0.913024,1.59779 l 3.2282,-.0326 c 0.37507,-0.0084 1.03875,-0.861363 0.749983,-1.46736 l -.6848,-.8478 c -0.311356,-0.539893 0.352042,-2.13364 1.14128,-3.74992 1.14099,-1.4981 2.45837,-1.58288 3.29341,-1.59779 0.249072,0.05686 0.350163,0.342473 0.423903,0.65216 -0.422171,1.15862 -0.963726,2.51765 -2.57603,5.44553 -0.359888,0.790178 0.09026,1.60562 0.880416,1.59779 l 3.2608,-.0326 c 0.37507,-0.0084 1.03876,-0.861363 0.749983,-1.46736 l -.6848,-.8478 c -0.315865,-0.547721 0.368799,-2.17427 1.17389,-3.81513 1.05516,-1.51217 2.33336,-1.53258 3.13037,-1.53258 0.318159,0.09788 0.391149,0.499669 0.391295,0.913023 -0.440537,1.16257 -0.879435,2.39982 -2.41299,5.18467 -0.359888,0.790178 0.09026,1.60563 0.880415,1.59779 l 3.2282,-.0326 c 0.37507,-0.0084 1.07138,-0.861351 0.782591,-1.46736 l -.6848,-.8478 c -0.64447,-1.11751 1.94668,-4.37388 2.70269,-6.41248 0.46942,-1.45518 -1.14128,-2.72814 -2.03316,-3.0098 l -2.4558,-.0378 c -0.442935,0.101011 -0.535699,0.356205 -0.657533,0.820396 l -1.6802,-.0143 c 0.03308,-0.429684 -0.07899,-0.713483 -0.395418,-0.744787 l -2.5732,-.0378 c -0.830079,-0.01701 -0.74798,0.281484 -0.854444,0.791723 l -2.5058,.001 c 0.138196,-0.269525 0.135567,-0.63294 -0.0084,-0.808575 z "/>
<path style="fill:#676167" id="path4235" d="m 20.71,42.195 c 3.82572,-6.94733 3.26243,-7.53408 3.23895,-8.30862 -0.05478,-1.03271 0.172118,-1.43171 1.31436,-1.40825 l 2.1274,-.8048 c 0.915565,0.585852 1.01762,1.0864 0.735975,1.8844 -0.450887,1.21709 -3.80905,6.53826 -3.16457,7.65577 l .6378,1.0639 c 0.288776,0.605976 -0.385025,1.4775 -0.760095,1.48602 l -3.238,.0274 c -0.790177,0.0084 -1.42755,-0.157392 -1.92704,-1.32257 z "/>
</g>
</g>
<path style="fill:#c6c3c6;stroke:#676167;stroke-width:.536" id="path955" d="m 19.9097,41.3952 c 3.82572,-6.94733 3.26243,-7.53408 3.23895,-8.30862 -0.05478,-1.03271 0.172118,-1.43171 1.31436,-1.40825 l 1.7368,-.047 c 1.05619,-0.04696 1.40825,0.328585 1.1266,1.12659 -0.450887,1.21709 -3.85592,6.7492 -3.21145,7.86671 l .6847,.853 c 0.288776,0.605976 -0.385025,1.4775 -0.760095,1.48602 l -3.238,.0274 c -0.790177,0.0084 -1.25177,-0.805829 -0.891883,-1.59601 z "/>
<g style="stroke-width:.509" id="g23">
<ellipse cx="27.061794" cy="29.07692" rx="2.2750204" ry="2.4728482" style="fill:#676167;stroke:none" id="ellipse4237"/>
<ellipse cx="26.261486" cy="28.277075" rx="2.2750204" ry="2.4728482" style="fill:#c6c3c6;stroke:#484448" id="path866"/>
</g>
</g>
</svg>
