<svg width="48" version="1.0" xmlns="http://www.w3.org/2000/svg" height="48">
<path style="fill:#225c90;fill-rule:evenodd" d="M 4.2034,4.7841 V 39.0135 H 43.8738 V 4.7841 Z"/>
<g transform="matrix(0.575,0,0,0.575,-3.6,-3.025)">
<path d="M 11.3125,8 C 9.42859,8 8,9.4293755 8,11.3125 v 63.375 C 8,76.570624 9.42859,78 11.3125,78 h 73.375 C 86.57141,78 88,76.570624 88,74.6875 V 11.3125 C 88,9.4293754 86.57141,8 84.6875,8 Z M 14,14 H 82 V 72 H 14 Z"/>
<path d="m 33,74 c -1.662,0 -3,1.338 -3,3 h -3 v 1 c 1.656,0 3,1.344 3,3 v 2 c 0,1.662 1.338,3 3,3 h 30 c 1.662,0 3,-1.338 3,-3 v -2 c 0,-1.656 1.344,-3 3,-3 v -1 h -3 c 0,-1.662 -1.338,-3 -3,-3 z"/>
<path style="fill:#7f7f7f" d="m 14,72 h 68 v 1 H 14 Z"/>
<rect width="5" x="55.323669" y="81.23436" rx="1" height="2" style="fill:#7fff2a"/>
</g>
<g style="fill:#fff">
<g style="fill-rule:evenodd">
<path d="M 5.4135,6.4666 H 8.8079 V 9.8315 H 5.4135 Z"/>
<path d="m 12.2024,6.4666 h 3.3649 v 3.3649 h -3.3649 z"/>
<path d="m 18.9617,6.4666 h 3.3944 v 3.3649 h -3.3944 z"/>
<path d="m 25.721,6.4666 h 3.3944 V 9.8315 H 25.721 Z"/>
<path d="m 32.5099,6.4666 h 3.3649 v 3.3649 h -3.3649 z"/>
<path d="m 39.2692,6.4666 h 3.3944 v 3.3649 h -3.3944 z"/>
<path d="m 5.4135,33.0848 h 3.3944 v 3.3649 H 5.4135 Z"/>
<path d="m 12.2024,33.0848 h 3.3649 v 3.3649 h -3.3649 z"/>
<path d="m 18.9617,33.0848 h 3.3944 v 3.3649 h -3.3944 z"/>
<path d="m 25.721,33.0848 h 3.3944 v 3.3649 H 25.721 Z"/>
<path d="m 32.5099,33.0848 h 3.3649 v 3.3649 h -3.3649 z"/>
<path d="m 39.2692,33.0848 h 3.3944 v 3.3649 h -3.3944 z"/>
</g>
<g style="opacity:.7;color:#000" transform="matrix(0.53658545,0,0,0.53658545,14.989665,8.4671103)">
<path d="m 26.9375,220.4062 a 1.27513,1.27513 0 0,0 -0.65625,2.1875 c 0.757556,0.75756 0.757556,1.92994 0,2.6875 a 1.28163,1.28163 0 1,0 1.8125,1.8125 c 1.73204,-1.73204 1.73204,-4.58046 0,-6.3125 a 1.27513,1.27513 0 0,0 -1.15625,-0.375 z " transform="matrix(2.1400398,0,0,2.1400398,-34.86019,-455.24422)"/>
<path d="m 27.125,221.0938 a 0.579603,0.579603 0 0 0 -0.34375,1 c 1.02332,1.02332 1.02332,2.66418 0,3.6875 a 0.579603,0.579603 0 1 0 0.8125,0.8125 c 1.46627,-1.46627 1.46627,-3.84623 0,-5.3125 A 0.579603,0.579603 0 0 0 27.125,221.0938 Z" transform="matrix(4.7080854,0,0,4.7080854,-98.900833,-1030.3264)"/>
<path d="m 26.9375,221.9375 c 1.10149,1.10149 1.10149,2.89851 0,4 -0.354248,0.35417 0.177002,0.88542 0.53125,0.53125 1.3881,-1.3881 1.3881,-3.6744 0,-5.0625 -0.103982,-0.11056 -0.266846,-0.1466 -0.406257,-0.0937 -0.260245,0.0987 -0.328066,0.43475 -0.124991,0.62495 z" transform="matrix(7.2761416,0,0,7.2761416,-162.94153,-1605.4065)"/>
</g>
</g>
<path style="fill:#00ffb6;color:#bebebe;stroke-width:.537" d="m 12,18 h 4.63751 l 4.3462,-6.0114 3.0161,.0229 v 17.988 l -2.9113,.0012 -4.4514,-6 h -4.63751 z "/>
</svg>
