<svg width="48" version="1.1" xmlns="http://www.w3.org/2000/svg" height="48">
<circle cx="24" cy="24" style="fill:#ffbc00" r="22"/>
<path style="fill:#fff" d="m 35.6414,2.2225 h 0.385163 l -.245,.2922 h -0.140035 v -0.292237 m -28.3545,.7098 v 0.334068 l -.9103,1.3363 h -0.140035 l -.14,-1.0438 c 0.53677,-0.417537 0.933569,-0.626305 1.1904,-0.626305 m 33.1896,.4594 c 0.7936,0 1.23695,0.598548 1.33037,1.79545 l -.6653,5.6375 h 0.245029 l .5251,-.4175 h 0.140036 v 0.125261 c -0.723615,0.528958 -1.42379,1.97626 -2.10119,4.34348 -0.256829,2.03295 -0.68854,3.91147 -1.29546,5.63753 -0.536934,1.78157 -0.805236,3.42474 -0.805236,4.92795 l -1.0154,2.9654 c 0,0.2506 0.385163,0.501005 1.15532,0.751605 -0.140068,0.584669 -0.350088,0.876906 -0.630192,0.876906 v 0.167014 h 0.24503 v 0.125261 c 0,0.306311 -0.3968,0.459369 -1.1904,0.459369 l .14,.167 v 0.584668 h -0.245029 c 0.163358,0.584669 0.513496,0.876906 1.05027,0.876906 v 0.292236 h -1.05027 v 0.167015 c 0.350088,0 0.525132,0.2506 0.525132,0.751605 l -1.4705,.5847 .14,.167 v 0.125261 c 0,0.19487 -0.175044,0.292237 -0.525133,0.292237 v 0.167015 c 0.443511,0 0.665103,0.09745 0.665267,0.292236 -0.630192,0.250601 -1.45887,1.48933 -2.48635,3.716 -1.05027,1.97626 -1.96023,2.96537 -2.73056,2.96537 h -0.280103 c -0.583481,-0.44549 -1.06207,-1.92075 -1.43543,-4.42558 -1.49378,-3.81374 -2.2405,-6.05389 -2.2405,-6.72242 0,-1.72586 -0.478422,-3.56353 -1.43543,-5.51242 -0.25683,-0.863026 -0.431875,-1.94851 -0.525133,-3.25663 l -.6302,-.167 c -1.5872,2.86763 -2.41587,5.10779 -2.48635,6.72242 -0.443511,0.946494 -0.793599,2.08768 -1.05026,3.42474 0.957007,0.306311 1.43543,0.598547 1.43543,0.876905 v 0.167015 c -0.746888,-0.111343 -1.27202,-0.32019 -1.5754,-0.626305 -0.326815,0.751605 -0.758525,2.84027 -1.29546,6.26305 -0.420074,1.58668 -0.94537,2.3809 -1.5754,2.3809 -1.77339,-0.695894 -3.25668,-1.83728 -4.44658,-3.42474 -0.186681,0 -0.490222,-0.793437 -0.910296,-2.3809 -0.256666,0 -0.431874,-0.793437 -0.525132,-2.3809 -0.886858,-2.25384 -1.49378,-4.83021 -1.82092,-7.72521 v -4.34348 h -0.140036 l -.6302,.167 v -0.167015 c 0,-0.194831 0.210119,-0.292236 0.630192,-0.292236 l -.14,-2.506 v -1.96258 l -1.0154,-6.2631 v -2.67216 c 0.443511,-1.67015 1.21367,-2.506 2.31098,-2.506 h 7.35251 v 0.292237 c -0.583481,0.027875 -0.980281,0.180972 -1.1904,0.459369 -0.443511,-0.306115 -0.875222,-0.459369 -1.29546,-0.459369 h -1.43543 l -.8052,.1253 -.14,-.1253 h -0.105026 l -1.0503,.1253 -.5251,-.1253 -.3852,.1253 -.4201,-.1253 c 1.70455,2.22647 2.70761,4.10695 3.01083,5.63753 h 1.1904 v 0.292236 h -0.910296 v 0.334069 c 0.350089,1.28056 0.606919,1.92075 0.770162,1.92075 h 0.280104 l .6302,-.167 .14,.167 .14,-.167 .14,.167 v 0.125261 c -0.466785,0.334068 -0.781963,0.793437 -0.945206,1.37791 h -0.105027 v 0.292237 h 0.245029 c 0.326815,4.64842 0.93357,8.1709 1.82092,10.5635 l .5251,.4175 h 0.280104 c 0.350088,0 1.08534,-1.62851 2.20608,-4.88495 0.723614,-1.47526 1.24875,-2.76989 1.5754,-3.88411 l -.14,-.4594 c 0.723615,-1.08567 1.4705,-1.62851 2.2405,-1.62851 h 0.245029 c 0.490059,0 0.840311,0.306311 1.05027,0.918542 0.653465,0.918737 1.1786,2.29684 1.5754,4.13432 l 1.9602,4.3435 c 0.256666,0.306311 0.385163,0.654259 0.385163,1.04384 0.723451,1.64239 1.37708,2.72884 1.96023,3.25663 h 0.420074 c 0.490058,0 1.14369,-2.03295 1.96023,-6.0969 0.140019,0 0.525132,-1.08567 1.15532,-3.25663 v -0.167015 l -2.2061,-.2922 -.5251,.167 h -0.665267 v -0.334069 l 1.3304,-.1253 h 2.59125 c 1.00355,-3.59089 1.92582,-6.37447 2.76662,-8.35073 0.280104,-4.06395 0.665103,-6.0969 1.15532,-6.0969 l 1.5754,-.7516 m -7.4574,.4594 c -0.140068,0.389779 -0.443511,0.584669 -0.910296,0.584669 v -0.292237 l .9103,-.2922 m -13.1988,.7516 h 3.5353 v 0.292237 l -.8052,.1253 -.7702,-.1253 -.6653,.2922 -.245,-.2922 h -1.05026 v -0.292237 m -18.4223,.5847 h 0.385163 l .245,.2922 v 0.167015 l -.7702,.8769 v 0.751605 h -0.280104 v -0.459369 l .14,-.1253 v -0.167015 l -.6653,-.7516 c 0.163391,-0.389779 0.478422,-0.584473 0.945206,-0.584669 m 25.7322,1.7954 h 0.385163 v 0.125261 c 0,0.19489 -0.128398,0.292237 -0.385163,0.292237 l -.14,.167 v 0.167015 l -.3852,-.167 v -0.292237 l .5251,-.2922 m -1.9602,1.6285 v 0.167015 c 0,0.222647 -0.560208,0.459369 -1.67997,0.709773 v -0.292237 l .7702,-.4175 .14,.1253 h 0.105027 l .6653,-.2922 m -22.8639,1.5032 v 0.125261 l -.2801,.2922 -.105,-.1253 v -0.167015 l .105,-.1253 h 0.280104 m 19.0779,0 v 0.125261 c -0.490222,0.44549 -1.28366,0.849148 -2.38145,1.21097 v -0.292237 c 0.186681,0 0.280103,-0.153077 0.280103,-0.459369 l 2.1012,-.5847 m 6.6527,1.4614 .14,.167 v 0.125261 l -.245,.3341 h -0.140036 l -.2801,-.3341 v -0.125261 l .5251,-.167 m 4.8317,.167 h 0.140035 v 0.125261 l -.245,.3341 h -0.140035 v -0.167014 l .245,-.2922 m -2.2061,2.0877 .5251,.4175 c -0.09339,0.306311 -0.350089,0.459369 -0.770162,0.459369 l -.2801,-.4594 c 0,-0.139159 0.175044,-0.278357 0.525133,-0.417536 m 3.1501,1.9207 .105,.167 v 0.125261 l -.105,.167 h -0.280104 v -0.167014 l .2801,-.2922 m -4.9711,1.5032 v 0.125261 l -.6653,.6263 h -0.385162 v -0.167014 c 0,-0.250601 0.350088,-0.445295 1.05026,-0.584669 m -21.7002,5.8037 h 0.140035 v 0.125261 c -0.350089,0.918737 -0.653466,1.47545 -0.910296,1.67015 h -0.280104 v -0.626305 l 1.0503,-1.1691 m 17.1275,6.9726 h 0.140035 v 0.292236 l -1.0503,.6263 -.14,-.167 v -0.292237 l 1.0503,-.4594 m -14.3887,1.9626 h 0.245029 l .4201,1.6285 h -0.280103 l -.3852,-1.5032 v -0.125261 m 14.0035,1.9207 h 0.105027 l .4201,.4594 -.14,.1253 h -0.140036 l -.245,-.4175 v -0.167014"/>
<path style="fill:#0a5c19" d="m 38.8789,13.7219 c -0.520911,0 -1.03811,0.218647 -1.40276,0.590637 0,0 -11.4377,11.7345 -16.2917,16.7101 -3.4773,-3.56375 -5.94608,-6.09622 -5.94608,-6.09622 -0.731205,-0.748995 -2.08663,-0.748995 -2.81783,0 l -4.9835,5.1066 c -0.70515,0.725846 -0.70515,2.01816 0,2.744 l 12.3323,12.6302 c 0.731205,0.748995 2.08663,0.748995 2.81783,0 l 22.6903,-23.244 c 0.71232,-0.726853 0.71232,-2.02945 0,-2.75631 l -4.9835,-5.0942 c -0.367522,-0.374926 -0.890058,-0.593027 -1.41507,-0.590637 Z "/>
<path style="opacity:.2;fill:#fff" d="m 38.8789,13.7227 c -0.520911,0 -1.03769,0.217854 -1.40234,0.589844 0,0 -1.53867,1.57705 -1.79102,1.83594 -0.231826,0.769846 -0.467764,1.58023 -0.708985,2.44336 h -1.67187 c -0.107363,0.110142 -0.260662,0.265514 -0.375,0.382812 l 1.5215,.2012 v 0.167969 c -0.630188,2.17096 -1.01428,3.25586 -1.1543,3.25586 -0.81654,4.06395 -1.47088,6.09766 -1.96094,6.09766 h -0.419922 c -0.58315,-0.52779 -1.23553,-1.61542 -1.95898,-3.25781 0,-0.389581 -0.130053,-0.736658 -0.386719,-1.04297 l -.293,-.6484 c -1.18651,1.21706 -1.52132,1.56156 -2.69531,2.76562 0.59043,1.49331 0.888672,2.91976 0.888672,4.27539 0,0.668531 0.746454,2.90892 2.24023,6.72266 0.075921,0.509349 0.159519,0.946891 0.24414,1.37109 l 7.5996,-7.7832 v -0.144531 l -.1406,-.168 c 0.1791,0 0.332023,-0.01175 0.470704,-0.027343 l .5449,-.5566 h -0.070313 v -0.167969 c 0.280104,0 0.490791,-0.292284 0.630859,-0.876953 -0.770157,-0.2506 -1.15625,-0.501353 -1.15625,-0.751953 l 1.0156,-2.9648 c 0,-1.50321 0.269707,-3.14616 0.806641,-4.92773 0.60692,-1.72606 1.03809,-3.60377 1.29492,-5.63672 0.070971,-0.248013 0.143372,-0.444055 0.214844,-0.671875 -0.356285,-0.304286 -0.818194,-0.484556 -1.28711,-0.482422 z  m -25.0488,10.6426 c -0.521656,0 -1.04455,0.18605 -1.41016,0.560547 l -2.459,2.5195 c 0.348918,1.97891 0.84523,3.79049 1.49023,5.42969 0.093258,1.58746 0.268725,2.38086 0.52539,2.38086 0.420074,1.58746 0.723476,2.38086 0.910157,2.38086 1.1899,1.58746 2.67192,2.72793 4.44531,3.42383 0.63003,0 1.1561,-0.794179 1.57617,-2.38086 0.536935,-3.42278 0.968107,-5.51011 1.29492,-6.26172 0.30338,0.306115 0.829284,0.513657 1.57617,0.625 v -0.166016 c 0,-0.278358 -0.47854,-0.570642 -1.43555,-0.876953 0.100963,-0.525963 0.221685,-1.0131 0.351562,-1.47852 -3.0301,-3.10575 -5.45703,-5.5957 -5.45703,-5.5957 -0.365602,-0.374497 -0.886546,-0.560547 -1.4082,-0.560547 z  m 10.4355,5.666 l -1.0508,.459 v 0.292969 l .1406,.166 1.0508,-.625 v -0.292969 h -0.140625 z  m -14.3887,1.9629 v 0.125 l .3848,1.5039 h 0.28125 l -.4199,-1.6289 h -0.246094 z  m 14.0039,1.9199 v 0.167969 l .2441,.418 h 0.140625 l .1406,-.125 -.4199,-.4609 h -0.105469 z "/>
</svg>
