<svg width="48" version="1.1" xmlns="http://www.w3.org/2000/svg" height="48" viewBox="0 0 48 48">
<path style="fill:#353535" d="M 24,0 3.214844,12 V 36 L 24,48 44.785156,36 V 12 Z"/>
<path style="fill:#ff3500" d="m 22.5146,21.3783 c -2.84324,-1.52084 -1.96721,-4.81174 -0.505458,-6.35341 3.46385,-3.65323 9.19091,-3.53486 12.6906,-2.3618 -0.963586,-2.56899 -3.99747,-4.20363 -7.10885,-4.08761 0.564976,-2.16561 -1.92381,-4.54486 -3.79481,-4.36011 0.322223,5.60335 -5.56815,6.90221 -6.56627,11.4066 -0.820166,3.70132 1.18494,6.92878 5.28479,5.75632 z"/>
<path style="fill:#ffec00" d="m 20.9668,23.9642 c -2.7387,1.7019 -5.15069,-0.70221 -5.75494,-2.73896 -1.43186,-4.8264 1.53418,-9.727 4.3,-12.1713 -2.7066,-0.45 -5.63918,1.3601 -7.0944,4.11264 -1.59299,-1.57209 -4.89787,-0.60636 -5.67337,1.10635 5.01375,2.52263 3.19341,8.27327 6.59528,11.3899 2.79535,2.56095 6.59297,2.4382 7.62751,-1.6986 z"/>
<path style="fill:#ff9100" d="m 22.46,26.5998 c 0.104533,3.22273 -3.18348,4.10952 -5.24948,3.61444 -4.89572,-1.17317 -7.65674,-6.19213 -8.39068,-9.80948 -1.74302,2.11898 -1.64172,5.56372 0.014451,8.20025 -2.15796,0.59352 -2.97406,3.9385 -1.87856,5.46646 4.69153,-3.08073 8.76156,1.37105 13.1615,-0.0168 3.61552,-1.14038 5.40803,-4.49058 2.34273,-7.45492 z"/>
<path style="fill:#ff3500" d="m 25.4854,26.6216 c 2.84324,1.52084 1.96721,4.81174 0.505458,6.35341 -3.46385,3.65323 -9.19091,3.53486 -12.6906,2.3618 0.963586,2.56899 3.99747,4.20363 7.10885,4.08761 -0.564976,2.16561 1.92381,4.54486 3.79481,4.36011 -0.322223,-5.60335 5.56815,-6.90221 6.56627,-11.4066 0.820166,-3.70132 -1.18494,-6.92878 -5.28479,-5.75632 z"/>
<path style="fill:#ffec00" d="m 26.993,24.0132 c 2.7387,-1.70189 5.1507,0.70222 5.75494,2.73897 1.43186,4.8264 -1.53418,9.72699 -4.3,12.1713 2.7066,0.45001 5.63918,-1.36009 7.0944,-4.11264 1.59298,1.57209 4.89787,0.60637 5.67337,-1.10635 -5.01376,-2.52262 -3.19341,-8.27326 -6.59528,-11.3899 -2.79535,-2.56094 -6.59297,-2.43819 -7.62751,1.6986 z"/>
<path style="fill:#ff9100" d="m 25.5155,21.4055 c -0.104533,-3.22274 3.18348,-4.10953 5.24948,-3.61445 4.89572,1.17317 7.65674,6.19214 8.39068,9.80949 1.74302,-2.11899 1.64172,-5.56373 -0.01445,-8.20025 2.15796,-0.59353 2.97406,-3.9385 1.87856,-5.46646 -4.69153,3.08072 -8.76156,-1.37106 -13.1615,0.0167 -3.61552,1.14038 -5.40803,4.49059 -2.34273,7.45493 z"/>
</svg>
