<svg width="48" version="1.1" xmlns="http://www.w3.org/2000/svg" height="48">
<g style="stroke-width:.179">
<circle cx="24.774662" cy="24" style="fill:#ffbc00" r="22"/>
<path style="fill:#fff" d="m 36.4164,2.2225 h 0.385163 l -.245,.2922 h -0.140035 v -0.292237 m -28.3545,.7098 v 0.334068 l -.9103,1.3363 h -0.140035 l -.14,-1.0438 c 0.53677,-0.417537 0.933569,-0.626305 1.1904,-0.626305 m 33.1896,.4594 c 0.7936,3.72e-05 1.23695,0.598548 1.33037,1.79545 l -.6653,5.6375 h 0.245029 l .5251,-.4175 h 0.140036 v 0.125261 c -0.723615,0.528958 -1.42379,1.97626 -2.10119,4.34348 -0.256829,2.03295 -0.68854,3.91147 -1.29546,5.63753 -0.536934,1.78157 -0.805236,3.42474 -0.805236,4.92795 l -1.0154,2.9654 c -2.8e-05,0.2506 0.385163,0.501005 1.15532,0.751605 -0.140068,0.584669 -0.350088,0.876906 -0.630192,0.876906 v 0.167014 h 0.24503 v 0.125261 c -2.8e-05,0.306311 -0.3968,0.459369 -1.1904,0.459369 l .14,.167 v 0.584668 h -0.245029 c 0.163358,0.584669 0.513496,0.876906 1.05027,0.876906 v 0.292236 h -1.05027 v 0.167015 c 0.350088,8e-06 0.525132,0.2506 0.525132,0.751605 l -1.4705,.5847 .14,.167 v 0.125261 c -2.6e-05,0.19487 -0.175044,0.292237 -0.525133,0.292237 v 0.167015 c 0.443511,6e-06 0.665103,0.09745 0.665267,0.292236 -0.630192,0.250601 -1.45887,1.48933 -2.48635,3.716 -1.05027,1.97626 -1.96023,2.96537 -2.73056,2.96537 h -0.280103 c -0.583481,-0.44549 -1.06207,-1.92075 -1.43543,-4.42558 -1.49378,-3.81374 -2.2405,-6.05389 -2.2405,-6.72242 -1.7e-05,-1.72586 -0.478422,-3.56353 -1.43543,-5.51242 -0.25683,-0.863026 -0.431875,-1.94851 -0.525133,-3.25663 l -.6302,-.167 c -1.5872,2.86763 -2.41587,5.10779 -2.48635,6.72242 -0.443511,0.946494 -0.793599,2.08768 -1.05026,3.42474 0.957007,0.306311 1.43543,0.598547 1.43543,0.876905 v 0.167015 c -0.746888,-0.111343 -1.27202,-0.32019 -1.5754,-0.626305 -0.326815,0.751605 -0.758525,2.84027 -1.29546,6.26305 -0.420074,1.58668 -0.94537,2.3809 -1.5754,2.3809 -1.77339,-0.695894 -3.25668,-1.83728 -4.44658,-3.42474 -0.186681,4e-06 -0.490222,-0.793437 -0.910296,-2.3809 -0.256666,6e-06 -0.431874,-0.793437 -0.525132,-2.3809 -0.886858,-2.25384 -1.49378,-4.83021 -1.82092,-7.72521 v -4.34348 h -0.140036 l -.6302,.167 v -0.167015 c 1.6e-06,-0.194831 0.210119,-0.292236 0.630192,-0.292236 l -.14,-2.506 v -1.96258 l -1.0154,-6.2631 v -2.67216 c 0.443511,-1.67015 1.21367,-2.506 2.31098,-2.506 h 7.35251 v 0.292237 c -0.583481,0.0278749 -0.980281,0.180972 -1.1904,0.459369 -0.443511,-0.306115 -0.875222,-0.459369 -1.29546,-0.459369 h -1.43543 l -.8052,.1253 -.14,-.1253 h -0.105026 l -1.0503,.1253 -.5251,-.1253 -.3852,.1253 -.4201,-.1253 c 1.70455,2.22647 2.70761,4.10695 3.01083,5.63753 h 1.1904 v 0.292236 h -0.910296 v 0.334069 c 0.350089,1.28056 0.606919,1.92075 0.770162,1.92075 h 0.280104 l .6302,-.167 .14,.167 .14,-.167 .14,.167 v 0.125261 c -0.466785,0.334068 -0.781963,0.793437 -0.945206,1.37791 h -0.105027 v 0.292237 h 0.245029 c 0.326815,4.64842 0.93357,8.1709 1.82092,10.5635 l .5251,.4175 h 0.280104 c 0.350088,1.6e-05 1.08534,-1.62851 2.20608,-4.88495 0.723614,-1.47526 1.24875,-2.76989 1.5754,-3.88411 l -.14,-.4594 c 0.723615,-1.08567 1.4705,-1.62851 2.2405,-1.62851 h 0.245029 c 0.490059,2.7e-05 0.840311,0.306311 1.05027,0.918542 0.653465,0.918737 1.1786,2.29684 1.5754,4.13432 l 1.9602,4.3435 c 0.256666,0.306311 0.385163,0.654259 0.385163,1.04384 0.723451,1.64239 1.37708,2.72884 1.96023,3.25663 h 0.420074 c 0.490058,1.2e-05 1.14369,-2.03295 1.96023,-6.0969 0.140019,1.8e-05 0.525132,-1.08567 1.15532,-3.25663 v -0.167015 l -2.2061,-.2922 -.5251,.167 h -0.665267 v -0.334069 l 1.3304,-.1253 h 2.59125 c 1.00355,-3.59089 1.92582,-6.37447 2.76662,-8.35073 0.280104,-4.06395 0.665103,-6.0969 1.15532,-6.0969 l 1.5754,-.7516 m -7.4574,.4594 c -0.140068,0.389779 -0.443511,0.584669 -0.910296,0.584669 v -0.292237 l .9103,-.2922 m -13.1988,.7516 h 3.5353 v 0.292237 l -.8052,.1253 -.7702,-.1253 -.6653,.2922 -.245,-.2922 h -1.05026 v -0.292237 m -18.4223,.5847 h 0.385163 l .245,.2922 v 0.167015 l -.7702,.8769 v 0.751605 h -0.280104 v -0.459369 l .14,-.1253 v -0.167015 l -.6653,-.7516 c 0.163391,-0.389779 0.478422,-0.584473 0.945206,-0.584669 m 25.7322,1.7954 h 0.385163 v 0.125261 c -1.8e-05,0.19489 -0.128398,0.292237 -0.385163,0.292237 l -.14,.167 v 0.167015 l -.3852,-.167 v -0.292237 l .5251,-.2922 m -1.9602,1.6285 v 0.167015 c -1.7e-05,0.222647 -0.560208,0.459369 -1.67997,0.709773 v -0.292237 l .7702,-.4175 .14,.1253 h 0.105027 l .6653,-.2922 m -22.8639,1.5032 v 0.125261 l -.2801,.2922 -.105,-.1253 v -0.167015 l .105,-.1253 h 0.280104 m 19.0779,0 v 0.125261 c -0.490222,0.44549 -1.28366,0.849148 -2.38145,1.21097 v -0.292237 c 0.186681,2.9e-05 0.280103,-0.153077 0.280103,-0.459369 l 2.1012,-.5847 m 6.6527,1.4614 .14,.167 v 0.125261 l -.245,.3341 h -0.140036 l -.2801,-.3341 v -0.125261 l .5251,-.167 m 4.8317,.167 h 0.140035 v 0.125261 l -.245,.3341 h -0.140035 v -0.167014 l .245,-.2922 m -2.2061,2.0877 .5251,.4175 c -0.09339,0.306311 -0.350089,0.459369 -0.770162,0.459369 l -.2801,-.4594 c -2.1e-05,-0.139159 0.175044,-0.278357 0.525133,-0.417536 m 3.1501,1.9207 .105,.167 v 0.125261 l -.105,.167 h -0.280104 v -0.167014 l .2801,-.2922 m -4.9711,1.5032 v 0.125261 l -.6653,.6263 h -0.385162 v -0.167014 c -1.8e-05,-0.250601 0.350088,-0.445295 1.05026,-0.584669 m -21.7002,5.8037 h 0.140035 v 0.125261 c -0.350089,0.918737 -0.653466,1.47545 -0.910296,1.67015 h -0.280104 v -0.626305 l 1.0503,-1.1691 m 17.1275,6.9726 h 0.140035 v 0.292236 l -1.0503,.6263 -.14,-.167 v -0.292237 l 1.0503,-.4594 m -14.3887,1.9626 h 0.245029 l .4201,1.6285 h -0.280103 l -.3852,-1.5032 v -0.125261 m 14.0035,1.9207 h 0.105027 l .4201,.4594 -.14,.1253 h -0.140036 l -.245,-.4175 v -0.167014"/>
</g>
</svg>
