<svg width="128" version="1.0" xmlns="http://www.w3.org/2000/svg" height="128">
<g style="stroke-dashoffset:4">
<path style="fill:#707d88;stroke:none;stroke-linejoin:round;stroke-linecap:round;stroke-width:1.97" id="path2041" d="m 63.9829,15.8351 c -34.5327,0 -59.9829,35.1292 -59.9829,78.4062 0,10.6283 2,30 2,30 h 116 c 0,0 2,-19.3717 2,-30 0,-43.2771 -25.4847,-78.4062 -60.0174,-78.4062 Z "/>
<path style="fill:#c2c2c2;stroke:#5a5a5a;stroke-linecap:square;stroke-width:3" id="path2311" d="m 115.0824,56.2788 c 0,28.1777 -22.5014,51.0201 -50.2584,51.0201 -27.757,0 -50.2584,-22.8425 -50.2584,-51.0201 0,-28.1777 22.5014,-51.0201 50.2584,-51.0201 27.757,0 50.2584,22.8425 50.2584,51.0201 z "/>
</g>
<path style="fill:none;fill-rule:evenodd;stroke:#646464;fill-opacity:.75;stroke-width:1.019" id="path2893" d="m 64.8241,5.3231 v 101.565"/>
<g style="stroke-dashoffset:4;stroke-linecap:round;stroke-linejoin:round">
<path style="fill:#062b4a;stroke:#fff;stroke-width:4.652" id="path1977" d="m 90.3806,55.7384 c 0,13.8987 -11.4421,25.1659 -25.5566,25.1659 -14.1145,0 -25.5566,-11.2672 -25.5566,-25.1659 0,-13.8987 11.4421,-25.1659 25.5566,-25.1659 14.1145,0 25.5566,11.2672 25.5566,25.1659 z "/>
<path style="fill:none;stroke:#3c9ef0;stroke-width:4.123" id="path2928" d="m 82.9581,55.839 c 0,9.59018 -7.89507,17.3646 -17.6342,17.3646 -9.73906,0 -17.6342,-7.77439 -17.6342,-17.3646 0,-9.59018 7.89507,-17.3646 17.6342,-17.3646 9.73906,0 17.6342,7.77439 17.6342,17.3646 z "/>
</g>
</svg>
