<svg width="48" version="1.0" xmlns="http://www.w3.org/2000/svg" height="48">
<path style="fill:#67679d" d="M 24,2 C 11.8407,2 2,11.84072 2,24 2,36.1593 11.84072,46 24,46 36.1593,46 46,36.15928 46,24 46,11.8407 36.15928,2 24,2 Z"/>
<path style="opacity:.45" d="m 18.7619,10.25 1.2005,1.5 V 22.2589 H 30.4386 L 36.3095,10.25 37.51,11.75 v 27.5 h -7.0714 l -1.2005,-1.5 1.2005,-10.1548 H 19.9624 V 39.25 H 12.891 l -1.2005,-1.5 z"/>
<path style="fill:#fff" d="m 11.6905,10.25 h 7.0714 V 20.7589 H 29.2381 V 10.25 h 7.0714 v 27.5 H 29.2381 V 26.0952 H 18.7619 V 37.75 h -7.0714 z"/>
</svg>
