<svg width="48" version="1.0" xmlns="http://www.w3.org/2000/svg" height="48">
<g style="stroke:none;fill-rule:evenodd" id="g4">
<path style="fill:#67679d" id="path4143" d="M 24,2 C 11.8407,2 2,11.84072 2,24 2,36.1593 11.84072,46 24,46 36.1593,46 46,36.15928 46,24 46,11.8407 36.15928,2 24,2 Z"/>
<path style="fill:#fff" id="path2992" d="m 11.6905,10.25 7.0714,0 0,10.5089 10.4762,0 0,-10.5089 7.0714,0 0,27.5 -7.0714,0 0,-11.6548 -10.4762,0 0,11.6548 -7.0714,0 0,-27.5 z"/>
<path style="opacity:.5" id="path4142" d="m 10.3895,8.75 7.0714,0 1.3011,1.5 -1.2006,9.0089 10.3757,0 0,-10.5089 7.0714,0 1.3005,1.5 -1.2,26 -5.871,1.5 -1.3009,-1.5 0,-11.6548 -10.3757,0 0,11.6548 -5.8704,1.5 -1.3015,-1.5 z"/>
<path style="fill:#fff" id="path4140" d="m 11.6905,10.25 7.0715,0 -10e-5,10.5089 10.4762,0 0,-10.5089 7.0709,0 5e-4,27.5 -7.0715,0 10e-5,-11.6548 -10.4762,0 0,11.6548 -7.0709,0 z"/>
</g>
</svg>
