<svg width="48" version="1.1" xmlns="http://www.w3.org/2000/svg" height="48" xmlns:xlink="http://www.w3.org/1999/xlink">
<defs>
<linearGradient id="linearGradient11">
<stop offset="0" style="stop-color:#fff"/>
<stop offset="0.5" style="stop-color:#f7f7f7"/>
<stop offset="0.5" style="stop-color:#ededed"/>
<stop offset="1" style="stop-color:#bfbfbf"/>
</linearGradient>
<linearGradient id="linearGradient7">
<stop offset="0" style="stop-color:#554b44"/>
<stop offset="1" style="stop-color:#8d8783"/>
</linearGradient>
<linearGradient id="linearGradient3">
<stop offset="0" style="stop-color:#0f2240"/>
<stop offset="1" style="stop-color:#414e6b"/>
</linearGradient>
<linearGradient id="linearGradient1">
<stop offset="0" style="stop-color:#f8e4a4"/>
<stop offset="1" style="stop-color:#c78d18"/>
</linearGradient>
<linearGradient xlink:href="#linearGradient11" id="linearGradient14" y1="8.5848827" x1="37.323219" y2="10.677319" x2="39.415657" gradientUnits="userSpaceOnUse"/>
<linearGradient xlink:href="#linearGradient1" id="linearGradient2" y1="14.189847" x1="24.348719" y2="36.591755" x2="24.347742" gradientUnits="userSpaceOnUse"/>
<linearGradient xlink:href="#linearGradient11" id="linearGradient16" y1="4.0630593" x1="3.2554309" y2="10.677319" x2="9.2773724" gradientUnits="userSpaceOnUse"/>
<linearGradient xlink:href="#linearGradient1" id="linearGradient6" y1="6.9628921" x1="24.530472" y2="45.694698" x2="24.346258" gradientUnits="userSpaceOnUse"/>
<linearGradient xlink:href="#linearGradient3" id="linearGradient4" y1="44.086445" x1="24.328978" y2="7.0867934" x2="23.978403" gradientUnits="userSpaceOnUse"/>
<linearGradient xlink:href="#linearGradient11" id="linearGradient12" y1="8.5848827" x1="11.369809" y2="10.677319" x2="9.2773724" gradientUnits="userSpaceOnUse"/>
<linearGradient xlink:href="#linearGradient7" id="linearGradient10" y1="5.932662" x1="4.8557196" y2="4.163229" x2="6.6251531" gradientUnits="userSpaceOnUse"/>
<linearGradient xlink:href="#linearGradient11" id="linearGradient18" y1="2.5074553" x1="43.822971" y2="8.5848827" x2="37.323219" gradientUnits="userSpaceOnUse"/>
<linearGradient xlink:href="#linearGradient7" id="linearGradient8" y1="5.9326625" x1="43.837307" y2="4.1632285" x2="42.066589" gradientUnits="userSpaceOnUse"/>
</defs>
<g style="stroke:#000">
<path style="opacity:.05;stroke-width:1.5" d="m 5.3885,2.3063 -.1982,.0721 c -0.995588,0.34258 -1.77697,1.12513 -2.11946,2.12075 l -.0721,.1969 .9896,.9896 .8673,.2471 3.2043,3.2056 -.0656,.0721 c -0.84333,0.839454 -1.54823,1.80826 -2.08858,2.86841 -0.089099,0.201878 -0.109194,0.427832 -0.056622,0.642143 0.034738,0.289364 0.14664,0.563259 0.323002,0.795281 0.385927,0.398727 0.883285,0.67087 1.42713,0.781125 l .6087,.1518 -.2213,-.5868 c -0.344109,-0.613755 -0.26362,-1.37735 0.199463,-1.90713 0.292391,-0.482179 0.660486,-0.91395 1.09126,-1.27785 l 29.02,28.4757 3.0653,1.5172 -1.4799,-3.0267 -28.513,-29.0586 c 0.359709,-0.427106 0.786662,-0.791997 1.2637,-1.08225 0.299726,-0.238065 0.662271,-0.383017 1.04364,-0.415656 0.30228,0.016518 0.6,0.086612 0.877639,0.207185 l .5379,.1853 -.1017,-.5701 c -0.110347,-0.544903 -0.383122,-1.04284 -0.782411,-1.4297 -0.232135,-0.176314 -0.507116,-0.288481 -0.796566,-0.323002 -0.07839,-0.019464 -0.158585,-0.028301 -0.239356,-0.028311 -0.138526,0 -0.27511,0.028233 -0.401501,0.084933 -1.06005,0.540183 -2.0278,1.24535 -2.86713,2.08858 l -.0734,.0656 -3.2056,-3.2043 -.2471,-.8673 z "/>
<path style="opacity:.1;stroke-width:1.25" d="m 5.3885,2.3063 -.1982,.0721 c -0.995588,0.34258 -1.77697,1.12513 -2.11946,2.12075 l -.0721,.1969 .9896,.9896 .8673,.2471 3.2043,3.2056 -.0656,.0721 c -0.84333,0.839454 -1.54823,1.80826 -2.08858,2.86841 -0.089099,0.201878 -0.109194,0.427832 -0.056622,0.642143 0.034738,0.289364 0.14664,0.563259 0.323002,0.795281 0.385927,0.398727 0.883285,0.67087 1.42713,0.781125 l .6087,.1518 -.2213,-.5868 c -0.344109,-0.613755 -0.26362,-1.37735 0.199463,-1.90713 0.292391,-0.482179 0.660486,-0.91395 1.09126,-1.27785 l 29.02,28.4757 3.0653,1.5172 -1.4799,-3.0267 -28.513,-29.0586 c 0.359709,-0.427106 0.786662,-0.791997 1.2637,-1.08225 0.299726,-0.238065 0.662271,-0.383017 1.04364,-0.415656 0.30228,0.016518 0.6,0.086612 0.877639,0.207185 l .5379,.1853 -.1017,-.5701 c -0.110347,-0.544903 -0.383122,-1.04284 -0.782411,-1.4297 -0.232135,-0.176314 -0.507116,-0.288481 -0.796566,-0.323002 -0.07839,-0.019464 -0.158585,-0.028301 -0.239356,-0.028311 -0.138526,0 -0.27511,0.028233 -0.401501,0.084933 -1.06005,0.540183 -2.0278,1.24535 -2.86713,2.08858 l -.0734,.0656 -3.2056,-3.2043 -.2471,-.8673 z "/>
<path style="opacity:.05;stroke-width:1.5" d="m 43.3046,2.3063 -.9909,.9896 -.2471,.8673 -3.2043,3.2043 -.0733,-.0656 c -0.839202,-0.843483 -1.80695,-1.54844 -2.86713,-2.08857 -0.126324,-0.056379 -0.263168,-0.085327 -0.401501,-0.084933 -0.08105,0 -0.161818,0.00946 -0.240642,0.028311 -0.289543,0.034835 -0.564534,0.146342 -0.796567,0.323002 -0.398601,0.38585 -0.67094,0.883417 -0.781125,1.42713 l -.1518,.6087 .5881,-.2213 c 0.278435,-0.120441 0.576011,-0.190587 0.878926,-0.207185 0.375335,0.031191 0.733066,0.172673 1.0282,0.406648 0.482223,0.29217 0.913792,0.660721 1.27785,1.09126 l -28.4757,29.02 -1.5172,3.0653 2.9685,-1.7856 29.1168,-28.2072 c 0.426828,0.35982 0.792342,0.786615 1.08225,1.2637 0.469185,0.531832 0.5522,1.30165 0.207184,1.92128 l -.1853,.5379 .5701,-.1017 c 0.54516,-0.110047 1.04412,-0.382859 1.43099,-0.782411 0.176704,-0.231396 0.287834,-0.506109 0.321715,-0.795281 0.05299,-0.214394 0.03306,-0.440329 -0.05662,-0.642143 -0.539529,-1.05912 -1.24361,-2.02598 -2.086,-2.86455 l -.0669,-.0759 3.2043,-3.2056 .8673,-.2471 .9896,-.9896 -.0721,-.1982 c -0.342918,-0.995308 -1.12523,-1.77715 -2.12075,-2.11946 Z "/>
<path style="opacity:.1;stroke-width:1.25" d="m 43.3046,2.3063 -.9909,.9896 -.2471,.8673 -3.2043,3.2043 -.0733,-.0656 c -0.839202,-0.843483 -1.80695,-1.54844 -2.86713,-2.08857 -0.126324,-0.056379 -0.263168,-0.085327 -0.401501,-0.084933 -0.08105,0 -0.161818,0.00946 -0.240642,0.028311 -0.289543,0.034835 -0.564534,0.146342 -0.796567,0.323002 -0.398601,0.38585 -0.67094,0.883417 -0.781125,1.42713 l -.1518,.6087 .5881,-.2213 c 0.278435,-0.120441 0.576011,-0.190587 0.878926,-0.207185 0.375335,0.031191 0.733066,0.172673 1.0282,0.406648 0.482223,0.29217 0.913792,0.660721 1.27785,1.09126 l -28.4757,29.02 -1.5172,3.0653 2.9685,-1.7856 29.1168,-28.2072 c 0.426828,0.35982 0.792342,0.786615 1.08225,1.2637 0.469185,0.531832 0.5522,1.30165 0.207184,1.92128 l -.1853,.5379 .5701,-.1017 c 0.54516,-0.110047 1.04412,-0.382859 1.43099,-0.782411 0.176704,-0.231396 0.287834,-0.506109 0.321715,-0.795281 0.05299,-0.214394 0.03306,-0.440329 -0.05662,-0.642143 -0.539529,-1.05912 -1.24361,-2.02598 -2.086,-2.86455 l -.0669,-.0759 3.2043,-3.2056 .8673,-.2471 .9896,-.9896 -.0721,-.1982 c -0.342918,-0.995308 -1.12523,-1.77715 -2.12075,-2.11946 Z "/>
<path style="opacity:.15" d="m 43.3046,2.3063 -.9909,.9896 -.2471,.8673 -3.2043,3.2043 -.0733,-.0656 c -0.839202,-0.843483 -1.80695,-1.54844 -2.86713,-2.08857 -0.126324,-0.056379 -0.263168,-0.085327 -0.401501,-0.084933 -0.08105,0 -0.161818,0.00946 -0.240642,0.028311 -0.289543,0.034835 -0.564534,0.146342 -0.796567,0.323002 -0.398601,0.38585 -0.67094,0.883417 -0.781125,1.42713 l -.1518,.6087 .5881,-.2213 c 0.278435,-0.120441 0.576011,-0.190587 0.878926,-0.207185 0.375335,0.031191 0.733066,0.172673 1.0282,0.406648 0.482223,0.29217 0.913792,0.660721 1.27785,1.09126 l -28.4757,29.02 -1.5172,3.0653 2.9685,-1.7856 29.1168,-28.2072 c 0.426828,0.35982 0.792342,0.786615 1.08225,1.2637 0.469185,0.531832 0.5522,1.30165 0.207184,1.92128 l -.1853,.5379 .5701,-.1017 c 0.54516,-0.110047 1.04412,-0.382859 1.43099,-0.782411 0.176704,-0.231396 0.287834,-0.506109 0.321715,-0.795281 0.05299,-0.214394 0.03306,-0.440329 -0.05662,-0.642143 -0.539529,-1.05912 -1.24361,-2.02598 -2.086,-2.86455 l -.0669,-.0759 3.2043,-3.2056 .8673,-.2471 .9896,-.9896 -.0721,-.1982 c -0.342918,-0.995308 -1.12523,-1.77715 -2.12075,-2.11946 Z "/>
<path style="opacity:.15" d="m 5.3885,2.3063 -.1982,.0721 c -0.995588,0.34258 -1.77697,1.12513 -2.11946,2.12075 l -.0721,.1969 .9896,.9896 .8673,.2471 3.2043,3.2056 -.0656,.0721 c -0.84333,0.839454 -1.54823,1.80826 -2.08858,2.86841 -0.089099,0.201878 -0.109194,0.427832 -0.056622,0.642143 0.034738,0.289364 0.14664,0.563259 0.323002,0.795281 0.385927,0.398727 0.883285,0.67087 1.42713,0.781125 l .6087,.1518 -.2213,-.5868 c -0.344109,-0.613755 -0.26362,-1.37735 0.199463,-1.90713 0.292391,-0.482179 0.660486,-0.91395 1.09126,-1.27785 l 29.02,28.4757 3.0653,1.5172 -1.4799,-3.0267 -28.513,-29.0586 c 0.359709,-0.427106 0.786662,-0.791997 1.2637,-1.08225 0.299726,-0.238065 0.662271,-0.383017 1.04364,-0.415656 0.30228,0.016518 0.6,0.086612 0.877639,0.207185 l .5379,.1853 -.1017,-.5701 c -0.110347,-0.544903 -0.383122,-1.04284 -0.782411,-1.4297 -0.232135,-0.176314 -0.507116,-0.288481 -0.796566,-0.323002 -0.07839,-0.019464 -0.158585,-0.028301 -0.239356,-0.028311 -0.138526,0 -0.27511,0.028233 -0.401501,0.084933 -1.06005,0.540183 -2.0278,1.24535 -2.86713,2.08858 l -.0734,.0656 -3.2056,-3.2043 -.2471,-.8673 z "/>
<path style="opacity:.2;stroke-width:.75" d="m 43.3046,2.3063 -.9909,.9896 -.2471,.8673 -3.2043,3.2043 -.0733,-.0656 c -0.839202,-0.843483 -1.80695,-1.54844 -2.86713,-2.08857 -0.126324,-0.056379 -0.263168,-0.085327 -0.401501,-0.084933 -0.08105,0 -0.161818,0.00946 -0.240642,0.028311 -0.289543,0.034835 -0.564534,0.146342 -0.796567,0.323002 -0.398601,0.38585 -0.67094,0.883417 -0.781125,1.42713 l -.1518,.6087 .5881,-.2213 c 0.278435,-0.120441 0.576011,-0.190587 0.878926,-0.207185 0.375335,0.031191 0.733066,0.172673 1.0282,0.406648 0.482223,0.29217 0.913792,0.660721 1.27785,1.09126 l -28.4757,29.02 -1.5172,3.0653 2.9685,-1.7856 29.1168,-28.2072 c 0.426828,0.35982 0.792342,0.786615 1.08225,1.2637 0.469185,0.531832 0.5522,1.30165 0.207184,1.92128 l -.1853,.5379 .5701,-.1017 c 0.54516,-0.110047 1.04412,-0.382859 1.43099,-0.782411 0.176704,-0.231396 0.287834,-0.506109 0.321715,-0.795281 0.05299,-0.214394 0.03306,-0.440329 -0.05662,-0.642143 -0.539529,-1.05912 -1.24361,-2.02598 -2.086,-2.86455 l -.0669,-.0759 3.2043,-3.2056 .8673,-.2471 .9896,-.9896 -.0721,-.1982 c -0.342918,-0.995308 -1.12523,-1.77715 -2.12075,-2.11946 Z "/>
<path style="opacity:.25;stroke-width:.5" d="m 43.3046,2.3063 -.9909,.9896 -.2471,.8673 -3.2043,3.2043 -.0733,-.0656 c -0.839202,-0.843483 -1.80695,-1.54844 -2.86713,-2.08857 -0.126324,-0.056379 -0.263168,-0.085327 -0.401501,-0.084933 -0.08105,0 -0.161818,0.00946 -0.240642,0.028311 -0.289543,0.034835 -0.564534,0.146342 -0.796567,0.323002 -0.398601,0.38585 -0.67094,0.883417 -0.781125,1.42713 l -.1518,.6087 .5881,-.2213 c 0.278435,-0.120441 0.576011,-0.190587 0.878926,-0.207185 0.375335,0.031191 0.733066,0.172673 1.0282,0.406648 0.482223,0.29217 0.913792,0.660721 1.27785,1.09126 l -28.4757,29.02 -1.5172,3.0653 2.9685,-1.7856 29.1168,-28.2072 c 0.426828,0.35982 0.792342,0.786615 1.08225,1.2637 0.469185,0.531832 0.5522,1.30165 0.207184,1.92128 l -.1853,.5379 .5701,-.1017 c 0.54516,-0.110047 1.04412,-0.382859 1.43099,-0.782411 0.176704,-0.231396 0.287834,-0.506109 0.321715,-0.795281 0.05299,-0.214394 0.03306,-0.440329 -0.05662,-0.642143 -0.539529,-1.05912 -1.24361,-2.02598 -2.086,-2.86455 l -.0669,-.0759 3.2043,-3.2056 .8673,-.2471 .9896,-.9896 -.0721,-.1982 c -0.342918,-0.995308 -1.12523,-1.77715 -2.12075,-2.11946 Z "/>
<path style="opacity:.2;stroke-width:.75" d="m 5.3885,2.3063 -.1982,.0721 c -0.995588,0.34258 -1.77697,1.12513 -2.11946,2.12075 l -.0721,.1969 .9896,.9896 .8673,.2471 3.2043,3.2056 -.0656,.0721 c -0.84333,0.839454 -1.54823,1.80826 -2.08858,2.86841 -0.089099,0.201878 -0.109194,0.427832 -0.056622,0.642143 0.034738,0.289364 0.14664,0.563259 0.323002,0.795281 0.385927,0.398727 0.883285,0.67087 1.42713,0.781125 l .6087,.1518 -.2213,-.5868 c -0.344109,-0.613755 -0.26362,-1.37735 0.199463,-1.90713 0.292391,-0.482179 0.660486,-0.91395 1.09126,-1.27785 l 29.02,28.4757 3.0653,1.5172 -1.4799,-3.0267 -28.513,-29.0586 c 0.359709,-0.427106 0.786662,-0.791997 1.2637,-1.08225 0.299726,-0.238065 0.662271,-0.383017 1.04364,-0.415656 0.30228,0.016518 0.6,0.086612 0.877639,0.207185 l .5379,.1853 -.1017,-.5701 c -0.110347,-0.544903 -0.383122,-1.04284 -0.782411,-1.4297 -0.232135,-0.176314 -0.507116,-0.288481 -0.796566,-0.323002 -0.07839,-0.019464 -0.158585,-0.028301 -0.239356,-0.028311 -0.138526,0 -0.27511,0.028233 -0.401501,0.084933 -1.06005,0.540183 -2.0278,1.24535 -2.86713,2.08858 l -.0734,.0656 -3.2056,-3.2043 -.2471,-.8673 z "/>
<path style="opacity:.25;stroke-width:.5" d="m 5.3885,2.3063 -.1982,.0721 c -0.995588,0.34258 -1.77697,1.12513 -2.11946,2.12075 l -.0721,.1969 .9896,.9896 .8673,.2471 3.2043,3.2056 -.0656,.0721 c -0.84333,0.839454 -1.54823,1.80826 -2.08858,2.86841 -0.089099,0.201878 -0.109194,0.427832 -0.056622,0.642143 0.034738,0.289364 0.14664,0.563259 0.323002,0.795281 0.385927,0.398727 0.883285,0.67087 1.42713,0.781125 l .6087,.1518 -.2213,-.5868 c -0.344109,-0.613755 -0.26362,-1.37735 0.199463,-1.90713 0.292391,-0.482179 0.660486,-0.91395 1.09126,-1.27785 l 29.02,28.4757 3.0653,1.5172 -1.4799,-3.0267 -28.513,-29.0586 c 0.359709,-0.427106 0.786662,-0.791997 1.2637,-1.08225 0.299726,-0.238065 0.662271,-0.383017 1.04364,-0.415656 0.30228,0.016518 0.6,0.086612 0.877639,0.207185 l .5379,.1853 -.1017,-.5701 c -0.110347,-0.544903 -0.383122,-1.04284 -0.782411,-1.4297 -0.232135,-0.176314 -0.507116,-0.288481 -0.796566,-0.323002 -0.07839,-0.019464 -0.158585,-0.028301 -0.239356,-0.028311 -0.138526,0 -0.27511,0.028233 -0.401501,0.084933 -1.06005,0.540183 -2.0278,1.24535 -2.86713,2.08858 l -.0734,.0656 -3.2056,-3.2043 -.2471,-.8673 z "/>
<path style="opacity:.3;stroke-width:.25" d="m 5.3885,2.3063 -.1982,.0721 c -0.995588,0.34258 -1.77697,1.12513 -2.11946,2.12075 l -.0721,.1969 .9896,.9896 .8673,.2471 3.2043,3.2056 -.0656,.0721 c -0.84333,0.839454 -1.54823,1.80826 -2.08858,2.86841 -0.089099,0.201878 -0.109194,0.427832 -0.056622,0.642143 0.034738,0.289364 0.14664,0.563259 0.323002,0.795281 0.385927,0.398727 0.883285,0.67087 1.42713,0.781125 l .6087,.1518 -.2213,-.5868 c -0.344109,-0.613755 -0.26362,-1.37735 0.199463,-1.90713 0.292391,-0.482179 0.660486,-0.91395 1.09126,-1.27785 l 29.02,28.4757 3.0653,1.5172 -1.4799,-3.0267 -28.513,-29.0586 c 0.359709,-0.427106 0.786662,-0.791997 1.2637,-1.08225 0.299726,-0.238065 0.662271,-0.383017 1.04364,-0.415656 0.30228,0.016518 0.6,0.086612 0.877639,0.207185 l .5379,.1853 -.1017,-.5701 c -0.110347,-0.544903 -0.383122,-1.04284 -0.782411,-1.4297 -0.232135,-0.176314 -0.507116,-0.288481 -0.796566,-0.323002 -0.07839,-0.019464 -0.158585,-0.028301 -0.239356,-0.028311 -0.138526,0 -0.27511,0.028233 -0.401501,0.084933 -1.06005,0.540183 -2.0278,1.24535 -2.86713,2.08858 l -.0734,.0656 -3.2056,-3.2043 -.2471,-.8673 z "/>
</g>
<path style="fill:url(#linearGradient12);stroke-width:.659" d="m 5.3885,2.3063 -.1982,.0721 c -0.995588,0.34258 -1.77697,1.12513 -2.11946,2.12075 l -.0721,.1969 .9896,.9896 .8673,.2471 3.2043,3.2056 -.0656,.0721 c -0.84333,0.839454 -1.54823,1.80826 -2.08858,2.86841 -0.089099,0.201878 -0.109194,0.427832 -0.056622,0.642143 0.034738,0.289364 0.14664,0.563259 0.323002,0.795281 0.385927,0.398727 0.883285,0.67087 1.42713,0.781125 l .6087,.1518 -.2213,-.5868 c -0.344109,-0.613755 -0.26362,-1.37735 0.199463,-1.90713 0.292391,-0.482179 0.660486,-0.91395 1.09126,-1.27785 l 29.02,28.4757 3.0653,1.5172 -1.4799,-3.0267 -28.513,-29.0586 c 0.359709,-0.427106 0.786662,-0.791997 1.2637,-1.08225 0.299726,-0.238065 0.662271,-0.383017 1.04364,-0.415656 0.30228,0.016518 0.6,0.086612 0.877639,0.207185 l .5379,.1853 -.1017,-.5701 c -0.110347,-0.544903 -0.383122,-1.04284 -0.782411,-1.4297 -0.232135,-0.176314 -0.507116,-0.288481 -0.796566,-0.323002 -0.07839,-0.019464 -0.158585,-0.028301 -0.239356,-0.028311 -0.138526,0 -0.27511,0.028233 -0.401501,0.084933 -1.06005,0.540183 -2.0278,1.24535 -2.86713,2.08858 l -.0734,.0656 -3.2056,-3.2043 -.2471,-.8673 Z "/>
<path style="opacity:.3;stroke:#000;stroke-width:.25" d="m 43.3046,2.3063 -.9909,.9896 -.2471,.8673 -3.2043,3.2043 -.0733,-.0656 c -0.839202,-0.843483 -1.80695,-1.54844 -2.86713,-2.08857 -0.126324,-0.056379 -0.263168,-0.085327 -0.401501,-0.084933 -0.08105,0 -0.161818,0.00946 -0.240642,0.028311 -0.289543,0.034835 -0.564534,0.146342 -0.796567,0.323002 -0.398601,0.38585 -0.67094,0.883417 -0.781125,1.42713 l -.1518,.6087 .5881,-.2213 c 0.278435,-0.120441 0.576011,-0.190587 0.878926,-0.207185 0.375335,0.031191 0.733066,0.172673 1.0282,0.406648 0.482223,0.29217 0.913792,0.660721 1.27785,1.09126 l -28.4757,29.02 -1.5172,3.0653 2.9685,-1.7856 29.1168,-28.2072 c 0.426828,0.35982 0.792342,0.786615 1.08225,1.2637 0.469185,0.531832 0.5522,1.30165 0.207184,1.92128 l -.1853,.5379 .5701,-.1017 c 0.54516,-0.110047 1.04412,-0.382859 1.43099,-0.782411 0.176704,-0.231396 0.287834,-0.506109 0.321715,-0.795281 0.05299,-0.214394 0.03306,-0.440329 -0.05662,-0.642143 -0.539529,-1.05912 -1.24361,-2.02598 -2.086,-2.86455 l -.0669,-.0759 3.2043,-3.2056 .8673,-.2471 .9896,-.9896 -.0721,-.1982 c -0.342918,-0.995308 -1.12523,-1.77715 -2.12075,-2.11946 Z "/>
<path style="fill:url(#linearGradient14);stroke-width:.659" d="m 43.3046,2.3063 -.9909,.9896 -.2471,.8673 -3.2043,3.2043 -.0733,-.0656 c -0.839202,-0.843483 -1.80695,-1.54844 -2.86713,-2.08857 -0.126324,-0.056379 -0.263168,-0.085327 -0.401501,-0.084933 -0.08105,0 -0.161818,0.00946 -0.240642,0.028311 -0.289543,0.034835 -0.564534,0.146342 -0.796567,0.323002 -0.398601,0.38585 -0.67094,0.883417 -0.781125,1.42713 l -.1518,.6087 .5881,-.2213 c 0.278435,-0.120441 0.576011,-0.190587 0.878926,-0.207185 0.375335,0.031191 0.733066,0.172673 1.0282,0.406648 0.482223,0.29217 0.913792,0.660721 1.27785,1.09126 l -28.4757,29.02 -1.5172,3.0653 2.9685,-1.7856 29.1168,-28.2072 c 0.426828,0.35982 0.792342,0.786615 1.08225,1.2637 0.469185,0.531832 0.5522,1.30165 0.207184,1.92128 l -.1853,.5379 .5701,-.1017 c 0.54516,-0.110047 1.04412,-0.382859 1.43099,-0.782411 0.176704,-0.231396 0.287834,-0.506109 0.321715,-0.795281 0.05299,-0.214394 0.03306,-0.440329 -0.05662,-0.642143 -0.539529,-1.05912 -1.24361,-2.02598 -2.086,-2.86455 l -.0669,-.0759 3.2043,-3.2056 .8673,-.2471 .9896,-.9896 -.0721,-.1982 c -0.342918,-0.995308 -1.12523,-1.77715 -2.12075,-2.11946 Z "/>
<g style="stroke:#000">
<path style="opacity:.05;stroke-width:1.5" d="m 23.9773,7.0867 c -3.008,2.1301 -6.48227,3.50908 -10.1323,4.02163 -0.623162,0.07599 -1.2436,0.120859 -1.86131,0.134608 l -.6359,.0144 -.008,.636 c -0.0034,0.269479 -0.0063,0.535993 -0.0087,0.799542 -0.0054,0.595885 -0.0081,1.17712 -0.0082,1.74371 0.0012,8.38897 0.607019,13.6948 2.48468,18.1116 0.01515,0.03558 0.03024,0.07089 0.04553,0.106342 0.308302,0.714177 0.653377,1.41191 1.03384,2.0904 0.82487,1.45086 1.77847,2.82465 2.8493,4.10478 1.92429,2.25506 3.97911,4.39539 6.15387,6.40998 l .4551,.4349 .4551,-.4349 c 2.17475,-2.01461 4.22956,-4.15494 6.15387,-6.40998 1.07139,-1.27991 2.02503,-2.65395 2.8493,-4.10537 0.399031,-0.712047 0.759322,-1.44512 1.0793,-2.19602 0.470462,-1.11051 0.857223,-2.25465 1.15705,-3.42284 0.980139,-3.77073 1.3269,-8.34285 1.32769,-14.6888 0,-0.566631 -0.0027,-1.14776 -0.0082,-1.74338 -0.0024,-0.263549 -0.0053,-0.530172 -0.0087,-0.799871 l -.008,-.636 -.6359,-.0144 c -0.618023,-0.01423 -1.23846,-0.0591 -1.86132,-0.134608 -3.64992,-0.512583 -7.12408,-1.89153 -10.132,-4.02156 l -.368,-.2481 z "/>
<path style="opacity:.1" d="m 23.9773,7.0867 c -3.008,2.1301 -6.48227,3.50908 -10.1323,4.02163 -0.623162,0.07599 -1.2436,0.120859 -1.86131,0.134608 l -.6359,.0144 -.008,.636 c -0.0034,0.269479 -0.0063,0.535993 -0.0087,0.799542 -0.0054,0.595885 -0.0081,1.17712 -0.0082,1.74371 0.0012,8.38897 0.607019,13.6948 2.48468,18.1116 0.01515,0.03558 0.03024,0.07089 0.04553,0.106342 0.308302,0.714177 0.653377,1.41191 1.03384,2.0904 0.82487,1.45086 1.77847,2.82465 2.8493,4.10478 1.92429,2.25506 3.97911,4.39539 6.15387,6.40998 l .4551,.4349 .4551,-.4349 c 2.17475,-2.01461 4.22956,-4.15494 6.15387,-6.40998 1.07139,-1.27991 2.02503,-2.65395 2.8493,-4.10537 0.399031,-0.712047 0.759322,-1.44512 1.0793,-2.19602 0.470462,-1.11051 0.857223,-2.25465 1.15705,-3.42284 0.980139,-3.77073 1.3269,-8.34285 1.32769,-14.6888 0,-0.566631 -0.0027,-1.14776 -0.0082,-1.74338 -0.0024,-0.263549 -0.0053,-0.530172 -0.0087,-0.799871 l -.008,-.636 -.6359,-.0144 c -0.618023,-0.01423 -1.23846,-0.0591 -1.86132,-0.134608 -3.64992,-0.512583 -7.12408,-1.89153 -10.132,-4.02156 l -.368,-.2481 z "/>
<path style="opacity:.15;stroke-width:.5" d="m 23.9773,7.0867 c -3.008,2.1301 -6.48227,3.50908 -10.1323,4.02163 -0.623162,0.07599 -1.2436,0.120859 -1.86131,0.134608 l -.6359,.0144 -.008,.636 c -0.0034,0.269479 -0.0063,0.535993 -0.0087,0.799542 -0.0054,0.595885 -0.0081,1.17712 -0.0082,1.74371 0.0012,8.38897 0.607019,13.6948 2.48468,18.1116 0.01515,0.03558 0.03024,0.07089 0.04553,0.106342 0.308302,0.714177 0.653377,1.41191 1.03384,2.0904 0.82487,1.45086 1.77847,2.82465 2.8493,4.10478 1.92429,2.25506 3.97911,4.39539 6.15387,6.40998 l .4551,.4349 .4551,-.4349 c 2.17475,-2.01461 4.22956,-4.15494 6.15387,-6.40998 1.07139,-1.27991 2.02503,-2.65395 2.8493,-4.10537 0.399031,-0.712047 0.759322,-1.44512 1.0793,-2.19602 0.470462,-1.11051 0.857223,-2.25465 1.15705,-3.42284 0.980139,-3.77073 1.3269,-8.34285 1.32769,-14.6888 0,-0.566631 -0.0027,-1.14776 -0.0082,-1.74338 -0.0024,-0.263549 -0.0053,-0.530172 -0.0087,-0.799871 l -.008,-.636 -.6359,-.0144 c -0.618023,-0.01423 -1.23846,-0.0591 -1.86132,-0.134608 -3.64992,-0.512583 -7.12408,-1.89153 -10.132,-4.02156 l -.368,-.2481 z "/>
</g>
<g style="stroke-width:.659">
<path style="fill:url(#linearGradient4)" d="m 22.4195,42.254 c -2.8802,-2.90677 -4.24934,-4.50386 -5.61546,-6.5504 -2.47251,-3.70398 -3.66437,-7.67332 -4.13795,-13.781 -0.125897,-1.62367 -0.261854,-6.29326 -0.233537,-8.02107 l .0256,-1.5648 .3294,-.0199 c 3.471,-0.210117 7.49062,-1.56355 10.7757,-3.62825 l .7995,-.5025 .76,.4965 c 0.91748,0.599388 3.41791,1.84127 4.53422,2.252 2.09484,0.770767 4.77,1.36102 6.16845,1.36102 h 0.393365 v 3.1091 c -0.0016,11.8643 -1.54273,17.4055 -6.4194,23.0811 -1.75001,2.03674 -5.23001,5.6 -5.46997,5.60073 -0.0514,0 -0.91068,-0.824448 -1.90951,-1.83249 z  m 3.1814,-6.7946 c 3.08469,-3.12452 4.6871,-6.3792 5.34244,-10.8511 0.279379,-1.90641 0.339243,-2.75939 0.390309,-5.56129 l .0488,-2.6787 -3.4603,-1.0892 c -1.90315,-0.599063 -3.51121,-1.08917 -3.57348,-1.08913 -0.178128,0 -6.94005,2.14421 -7.02542,2.22764 -0.106972,0.104545 0.08224,5.44485 0.242061,6.83178 0.540364,4.68944 1.74526,7.76573 4.24527,10.8389 0.69587,0.855398 2.36575,2.50323 2.53712,2.50361 0.07417,0 0.638083,-0.50943 1.25315,-1.13244 z "/>
<path style="fill:url(#linearGradient6)" d="m 14.9883,12.2726 a 24.7036,24.7036 0 0,0 9.35823,-3.84821 24.7021,24.7021 0 0,0 9.35804,3.84834 20.2993,20.2993 0 0,0 2.33696,0.263549 q 0.0072,0.736752 0.0091,1.44293 0,0.230605 0,0.457784 c 0.0011,8 -0.565643,13.0343 -2.17105,17.0885 q -0.121628,0.307233 -0.251294,0.607218 c -0.24431,0.565708 -0.510561,1.11501 -0.800597,1.65377 a 26.0708,26.0708 0 0,1 -2.88988,4.22608 70.8131,70.8131 0 0,1 -5.59185,5.8583 70.804,70.804 0 0,1 -5.59192,-5.85876 26.1675,26.1675 0 0,1 -2.88995,-4.22535 21.1159,21.1159 0 0,1 -1.05202,-2.26198 23.6371,23.6371 0 0,1 -0.885987,-2.73116 c -0.934684,-3.58736 -1.28613,-8.05716 -1.28527,-14.3568 q 0,-0.227509 0,-0.458115 0.0018,-0.705916 0.0091,-1.44247 a 20.3153,20.3153 0 0,0 2.33696,-0.263549 m 9.3585,-5.4339 -.3681,.2479 a 23.0879,23.0879 0 0,1 -10.1323,4.02163 q -0.934743,0.113985 -1.86131,0.134608 l -.6359,.0144 -.008,.636 q -0.0051,0.404218 -0.0087,0.799542 -0.0081,0.893827 -0.0082,1.74371 c 0.0012,8.38897 0.607019,13.6948 2.48468,18.1116 0.01515,0.03558 0.03024,0.07089 0.04553,0.106342 a 22.5342,22.5342 0 0,0 1.03384,2.0904 27.8531,27.8531 0 0,0 2.8493,4.10478 75.8652,75.8652 0 0,0 6.15387,6.40998 l .4551,.4349 .4551,-.4349 a 75.8739,75.8739 0 0,0 6.15387,-6.40998 27.729,27.729 0 0,0 2.8493,-4.10537 22.6741,22.6741 0 0,0 1.0793,-2.19602 24.1928,24.1928 0 0,0 1.15705,-3.42284 c 0.980139,-3.77073 1.3269,-8.34285 1.32769,-14.6888 q 0,-0.849946 -0.0082,-1.74338 -0.0036,-0.395323 -0.0087,-0.799871 l -.008,-.636 -.6359,-.0144 q -0.927034,-0.02135 -1.86132,-0.134608 a 23.0882,23.0882 0 0,1 -10.132,-4.02156 l -.3679,-.2481"/>
<path style="fill:url(#linearGradient2)" d="m 24.3465,13.937 -5.9001,1.8597 -1.3375,.4217 q -0.01535,1.10651 -0.0066,2.13679 c 0.03538,3.85875 0.350455,6.96244 1.16943,9.64511 a 17.7594,17.7594 0 0,0 0.960373,2.4823 19.7972,19.7972 0 0,0 5.11443,6.43745 19.7964,19.7964 0 0,0 5.11443,-6.43804 17.7714,17.7714 0 0,0 0.960373,-2.48178 c 0.819045,-2.68267 1.13425,-5.78629 1.16976,-9.64498 q 0.0094,-1.0316 -0.0066,-2.13699 l -1.3375,-.4217 -5.9005,-1.8595"/>
<path style="fill:url(#linearGradient10)" d="M 4.8557,5.9327 8.06,9.1383 9.8307,7.3676 6.6251,4.1633 Z"/>
<path style="fill:url(#linearGradient8)" d="M 42.0666,4.1632 38.8623,7.3675 40.633,9.1382 43.8373,5.9326 Z"/>
<path style="fill:url(#linearGradient16)" d="m 8.06,9.1382 -.0656,.0721 c -0.84333,0.839454 -1.54823,1.80826 -2.08858,2.86841 -0.089099,0.201878 -0.109194,0.427832 -0.056622,0.642143 0.034738,0.289364 0.14664,0.563259 0.323002,0.795281 0.385927,0.398727 0.883285,0.67087 1.42713,0.781125 l .6087,.1518 -.2213,-.5868 c -0.344109,-0.613755 -0.26362,-1.37735 0.199463,-1.90713 0.292391,-0.482179 0.660486,-0.91395 1.09126,-1.27785 l 2.0924,-2.0924 c 0.359709,-0.427106 0.786662,-0.791997 1.2637,-1.08225 0.299726,-0.238065 0.662271,-0.383017 1.04364,-0.415656 0.30228,0.016518 0.6,0.086612 0.877639,0.207185 l .5379,.1853 -.1017,-.5701 c -0.110347,-0.544903 -0.383122,-1.04284 -0.782411,-1.4297 -0.232135,-0.176314 -0.507116,-0.288481 -0.796566,-0.323002 -0.07839,-0.019464 -0.158585,-0.028301 -0.239356,-0.028311 -0.138526,0 -0.27511,0.028233 -0.401501,0.084933 -1.06005,0.540183 -2.0278,1.24535 -2.86713,2.08858 l -.0734,.0656 z "/>
<path style="fill:url(#linearGradient18)" d="m 38.8623,7.3675 -.0733,-.0656 c -0.839202,-0.843483 -1.80695,-1.54844 -2.86713,-2.08857 -0.126324,-0.056379 -0.263168,-0.085327 -0.401501,-0.084933 -0.08105,0 -0.161818,0.00946 -0.240642,0.028311 -0.289543,0.034835 -0.564534,0.146342 -0.796567,0.323002 -0.398601,0.38585 -0.67094,0.883417 -0.781125,1.42713 l -.1518,.6087 .5881,-.2213 c 0.278435,-0.120441 0.576011,-0.190587 0.878926,-0.207185 0.375335,0.031191 0.733066,0.172673 1.0282,0.406648 0.482223,0.29217 0.913792,0.660721 1.27785,1.09126 l 2.0924,2.0924 c 0.426828,0.35982 0.792342,0.786615 1.08225,1.2637 0.469185,0.531832 0.5522,1.30165 0.207184,1.92128 l -.1853,.5379 .5701,-.1017 c 0.54516,-0.110047 1.04412,-0.382859 1.43099,-0.782411 0.176704,-0.231396 0.287834,-0.506109 0.321715,-0.795281 0.05299,-0.214394 0.03306,-0.440329 -0.05662,-0.642143 -0.539529,-1.05912 -1.24361,-2.02598 -2.086,-2.86455 l -.0669,-.0759 z "/>
</g>
</svg>
