<svg width="48" version="1.1" xmlns="http://www.w3.org/2000/svg" height="48" xmlns:xlink="http://www.w3.org/1999/xlink">
<defs>
<linearGradient id="linearGradient3762">
<stop offset="0" style="stop-color:#c80000"/>
<stop offset="1" style="stop-color:#8c0000"/>
</linearGradient>
<linearGradient gradientTransform="matrix(1.5601735,0,0,1.5601735,4.6830309,-7.5500399)" xlink:href="#linearGradient3762" id="linearGradient4172" y1="15.663023" x1="20.66172" y2="26.047228" gradientUnits="userSpaceOnUse" x2="20.560743"/>
</defs>
<path style="fill:#ccaa7d;stroke-width:.487" d="m 6.4807,4.1217 h 35.0386 c 1.61761,0 2.91988,1.30227 2.91988,2.91988 v 35.0386 c 0,1.61761 -1.30227,2.91988 -2.91988,2.91988 h -35.0386 c -1.61761,0 -2.91988,-1.30227 -2.91988,-2.91988 v -35.0386 c 0,-1.61761 1.30227,-2.91988 2.91988,-2.91988 z "/>
<rect width="39.956085" x="3.9800367" y="9.9614334" rx="2.8540061" ry="2.9198806" height="11.679523" style="fill:#3c2510"/>
<g style="fill:#ccaa7d">
<path d="m 6.855,4.1614 c -2.99321,0.058728 -3,0.0073 -3,2.91327 v 11.653 c 0,2.92589 0.122133,2.84767 3,2.91327 l 18.0044,-.9711 v -17.4796 Z "/>
<path d="m 41.3546,4.1614 c 2.6869,0.058728 2.7492,0.066026 2.7492,2.91327 v 11.653 c 0,2.99149 -0.235701,2.97887 -2.7492,2.91327 l -16.4952,-.9711 v -17.4796 Z "/>
</g>
<g style="stroke-width:.487">
<path style="opacity:.5;fill:#3a240f" d="m 26.9785,3.2781 h -5.89835 l .0293,12.3137 .0655,14.8088 2.7675,-.2532 2.9412,-.2688 .0159,-2.8408 .0496,-11.446 z "/>
<path style="fill:#d8cab2" d="m 26.9492,3.216 -2.9492,-.216 l -2.9492,.216 .0293,12.5563 .0655,14.1417 2.7675,-.2418 2.9412,-.2567 .0159,-2.7128 .0496,-10.9304 .0293,-12.5563 z "/>
<path style="opacity:.2;fill:#8d6137" d="M 23.513353,3.2092094 H 24 V 20.84 h -0.486647 z"/>
<path style="opacity:.2;fill:#fff" d="m 24,3.2092094 h 0.486647 V 20.84 H 24 Z"/>
</g>
<path style="fill:url(#linearGradient4172)" d="m 48,16.4248 c 0,9.0215 -1.40163,14.5629 -8.15373,16.8652 v 10.1993 c 0,2.49824 6.59272,0.970499 6.65015,4.51074 h -16.5394 c 0.0281,-3.57536 6.65015,-2.0483 6.65015,-4.51074 v -10.1993 c -7.00198,-2.30236 -8.15373,-7.84374 -8.15373,-16.8652 Z "/>
<path style="opacity:.2;fill:#8d6137;stroke-linecap:round;stroke-width:.11" d="m 21.1038,20.8752 5.7932,-.0626 -.0173,.8283 -5.7723,.0068 z "/>
</svg>
