<svg width="48" version="1.1" xmlns="http://www.w3.org/2000/svg" height="48" xmlns:xlink="http://www.w3.org/1999/xlink">
<defs id="defs11">
<linearGradient id="linearGradient3762">
<stop offset="0" style="stop-color:#c80000" id="stop3764"/>
<stop offset="1" style="stop-color:#8c0000" id="stop3766"/>
</linearGradient>
<linearGradient xlink:href="#linearGradient3762" id="linearGradient3768" y1="15.663023" x1="20.66172" y2="26.047228" x2="20.560743" gradientUnits="userSpaceOnUse"/>
<linearGradient xlink:href="#linearGradient3762" id="linearGradient4163" y1="15.663023" x1="20.66172" y2="26.047228" gradientUnits="userSpaceOnUse" x2="20.560743"/>
</defs>
<g id="g4157" transform="matrix(-0.8262584,-0.80858969,-0.80858969,0.8262584,77.600378,31.2377)">
<path style="fill:#a0a0a0;stroke:#505050;stroke-width:.315" id="rect3006-2" d="m 47.567,11.6632 -1.1148,1.931 c -0.939285,0.54766 -1.89814,1.18079 -2.65136,1.95874 l -19.6471,20.292 -1.5668,-1.5004 19.6471,-20.292 c 0.75322,-0.777949 1.47467,-1.75334 1.86799,-2.70896 l 1.8981,-1.1809 1.5668,1.5004 z"/>
<path style="fill:#c8c8c8;stroke:#000;stroke-linejoin:round;stroke-linecap:round;stroke-width:.101;stroke-dashoffset:1.088" id="path3925-5" d="m 47.567,11.6632 -1.1148,1.931 c -3.10906,1.59573 -3.29067,0.234871 -2.35013,-2.25065 l 1.8981,-1.1809 1.5668,1.5004 z"/>
<path style="fill:#dd8c00;stroke:none" id="rect3956-2" d="m 33.7341,28.7581 -1.223,1.2631 c -0.701038,0.111095 -1.41804,0.44391 -1.99171,1.0364 -0.580071,0.599111 -0.914133,1.33964 -0.994592,2.04793 l -5.7626,5.9518 c -1.33743,1.38135 -5.72637,-2.81986 -4.38016,-4.21027 l 5.7626,-5.9518 c 0.708623,-0.106709 1.44008,-0.466671 2.02015,-1.06578 0.573667,-0.592498 0.880997,-1.31765 0.966151,-2.01855 l 1.223,-1.2631 4.3802,4.2102 z "/>
</g>
<g id="g4198" transform="matrix(0.80878164,0.86951797,-0.86951797,0.80878164,42.518187,-32.472455)">
<path style="fill:#a0a0a0;stroke:#505050;stroke-width:.307" id="path6-2" d="m 22.9445,21.071 c -0.07665,0.04216 -0.125857,0.120904 -0.1305,0.208312 -5.5e-5,0.0023 -1.16e-4,0.0048 -1.71e-4,0.0071 -0.002,0.08469 0.0385,0.165096 0.108412,0.213582 0,0 3.01703,2.09958 3.20061,2.22745 0.0173,0.205055 0.170335,2.01533 0.184924,2.18617 -0.106548,0.138318 -1.72797,2.24161 -1.93924,2.51602 -0.335994,-0.153822 -4.22156,-1.93291 -4.22156,-1.93291 -0.08256,-0.03791 -0.179162,-0.02836 -0.253043,0.02474 -0.06461,0.0465 -0.103081,0.120442 -0.104981,0.199064 -2.59e-4,0.01087 2.18e-4,0.02201 0.0015,0.03317 0.205797,1.90868 1.13808,3.65989 2.4412,4.62604 0.01565,0.05375 0.03891,0.106421 0.0849,0.139657 0.722989,0.520851 1.93019,0.892782 2.37938,1.02 0.0095,0.275946 0.0402,1.16227 0.0402,1.16227 0.0044,0.132146 0.110088,0.238411 0.241996,0.243876 l 1.4358,0.0608 c 0.138727,0.0059 0.256159,-0.101311 0.263306,-0.240009 0,0 0.04265,-0.85369 0.05733,-1.14726 0.230024,-0.03516 0.547896,-0.08389 0.547896,-0.08389 0.465507,-0.05552 3.25787,1.53323 4.43781,2.05956 0.09735,0.04333 0.211212,0.02105 0.285407,-0.05558 l 2.6461,-2.7506 c 0.08485,-0.08825 0.09447,-0.224866 0.02225,-0.323998 -0.919242,-1.26523 -2.64726,-3.6043 -2.63959,-3.92182 0.220528,-1.91926 -0.330944,-3.94575 -1.61715,-5.32425 -1.91627,-2.05379 -5.01059,-2.50519 -7.47273,-1.14743 z"/>
<path style="fill:#bb2121" id="path68-2" d="M 47.2135,42.2459 C 46.09013,41.05365 34.6928,31.4238 34.6928,31.4238 L 31.58,34.5613 c 0,0 10.043,10.6484 11.1658,11.8407 1.12285,1.19274 3.03276,1.22905 4.26682,0.08165 1.2333,-1.14742 1.32369,-3.04464 0.200844,-4.23763 z m -1.2713,3.0752 c -0.574018,0.547167 -1.4831,0.525188 -2.02975,-0.04907 -0.546924,-0.573759 -0.524946,-1.48284 0.04906,-2.02925 0.574018,-0.547169 1.4831,-0.525192 2.02975,0.04907 0.546929,0.573508 0.524953,1.48259 -0.04905,2.02925 z"/>
<rect width="3.0632079" x="-5.4953995" y="40.335258" rx="0.46916237" ry="0.46916237" height="2.4976635" style="fill:#f0f0f0;stroke:#505050;stroke-width:.307" id="rect3853-7" transform="matrix(0.64484535,-0.76431308,0.76431308,0.64484535,0,0)"/>
</g>
<g style="fill:url(#linearGradient3768)" id="layer1" transform="matrix(2.17409,0,0,2.17409,-33.12387,-31.408684)">
<path style="fill:url(#linearGradient4163);stroke:none" id="path39063" d="m 27.7642,15.3668 c 0,5.78237 -0.898378,9.33414 -5.22617,10.8098 v 6.53726 c 0,1.60126 4.22563,0.622046 4.26244,2.89118 h -10.601 c 0.01801,-2.29164 4.26244,-1.31287 4.26244,-2.89118 v -6.53726 c -4.48795,-1.47571 -5.22617,-5.02748 -5.22617,-10.8098 Z "/>
</g>
</svg>
