<svg width="48" version="1.0" xmlns="http://www.w3.org/2000/svg" height="48" xmlns:xlink="http://www.w3.org/1999/xlink">
<defs id="defs4">
<linearGradient id="linearGradient3768" xlink:href="#linearGradient3762" y1="15.663023" y2="26.047228" x1="20.66172" gradientUnits="userSpaceOnUse" x2="20.560743"/>
<linearGradient xlink:href="#linearGradient3762" id="linearGradient4180" y1="15.663023" x1="20.66172" y2="26.047228" gradientUnits="userSpaceOnUse" x2="20.560743"/>
<linearGradient id="linearGradient3762">
<stop offset="0" style="stop-color:#b40000" id="stop3764"/>
<stop offset="1" style="stop-color:#640000" id="stop3766"/>
</linearGradient>
<linearGradient gradientTransform="translate(0.34756813,1.2031)" xlink:href="#linearGradient3770" id="linearGradient3849" y1="23.72045" x1="34.265" y2="23.72045" gradientUnits="userSpaceOnUse" x2="45.4021"/>
<linearGradient id="linearGradient3770">
<stop offset="0" style="stop-color:#ffda7d" id="stop3772"/>
<stop offset="0.30000001" style="stop-color:#ffda7d" id="stop3782"/>
<stop offset="0.30000001" style="stop-color:#ffc941" id="stop3780"/>
<stop offset="0.60000002" style="stop-color:#ffc941" id="stop3784"/>
<stop offset="0.60000002" style="stop-color:#dc9e00" id="stop3778"/>
<stop offset="1" style="stop-color:#dc9e00" id="stop3774"/>
</linearGradient>
</defs>
<path style="fill:#ecf0f1" id="rect4090" d="m 0,1.0019 0,45.9986 h 38.8357 l .1643,-46.001 -12.7288,.0024 z "/>
<g style="fill-rule:evenodd;stroke:none" id="g4185" transform="matrix(1.0621484,0,0,1.0621484,-0.61847746,-1.441784)">
<g id="g21">
<path style="fill:#d57000" id="path3801" d="m 35.4709,2.7213 c -0.450182,0.433162 -0.756585,1.11931 -0.75686,1.71227 l -0.0329,4.8821 11.0599,0.0048 0.0329,-4.8821 c 4.54e-4,-0.975182 -0.929486,-2.1394 -1.80318,-2.1399 l -7.5926,2e-4 c -0.318749,-1.846e-4 -0.637175,0.162714 -0.907284,0.422614 z"/>
<path style="fill:#d0d0d0" id="path3799" d="m 34.707,9.3157 -.0127,5.0904 11.0599,.0044 .0127,-5.09 z "/>
<path style="fill:url(#linearGradient3849)" id="path3797" d="m 34.6898,14.4037 -.0772,21.0397 11.1201,-.0145 .017,-21.0203 z "/>
<path style="fill:#e9d078" id="path1918" d="m 34.6698,35.4337 5.5406,10.1741 5.5193,-10.1692 -11.0599,-.0048 Z "/>
</g>
<path id="path3803" d="m 37.1696,40.0337 3.0408,5.5741 3.0192,-5.5692 -6.06,-.0048 z "/>
</g>
<g style="fill:url(#linearGradient3768)" id="layer1-4" transform="matrix(1.9156385,0,0,1.9156385,-22.055292,-24.82181)">
<path style="fill:url(#linearGradient4180);stroke:none" id="path39063" d="m 27.7642,15.3668 c 0,5.78237 -0.898378,9.33414 -5.22617,10.8098 v 6.53726 c 0,1.60126 4.22563,0.622046 4.26244,2.89118 h -10.601 c 0.01801,-2.29164 4.26244,-1.31287 4.26244,-2.89118 v -6.53726 c -4.48795,-1.47571 -5.22617,-5.02748 -5.22617,-10.8098 Z "/>
</g>
</svg>
