<svg width="48" version="1.0" xmlns="http://www.w3.org/2000/svg" height="48">
<defs id="defs1894"/>
<g style="color:#000;stroke-width:8;stroke:none;line-height:normal;text-decoration-line:none;font-family:Sans;text-transform:none;text-align:start;text-indent:0">
<path style="fill:#3551ae" id="path4142" d="m 8.2962,2.5 c -3.20032,0 -5.82874,2.62843 -5.82874,5.82874 v 31.3425 c 0,3.20032 2.62843,5.82874 5.82874,5.82874 h 31.4076 c 3.20032,0 5.82874,-2.62843 5.82874,-5.82874 v -31.3425 c 0,-3.20032 -2.62843,-5.82874 -5.82874,-5.82874 Z "/>
<path style="fill:#fff" id="rect5811" d="m 8.2962,5.8307 31.4076,0 c 1.41272,0 2.49823,1.08532 2.49822,2.49803 l -.0002,25.1625 h -9.04236 c 0,0 -5.29859,-11.4934 0.351286,-20.3356 -17.5146,0.27632 -19.0865,20.3356 -19.0865,20.3356 h -8.62602 v -25.1625 c 0,-1.41272 1.08532,-2.49803 2.49803,-2.49803 z "/>
</g>
</svg>
