<svg xmlns:xlink="http://www.w3.org/1999/xlink" version="1.1" width="48" xmlns="http://www.w3.org/2000/svg" height="48">
<defs id="defs7222">
<linearGradient id="linearGradient5106">
<stop offset="0" style="stop-color:#6b9fd5" id="stop5108"/>
<stop offset="1" style="stop-color:#3677ba" id="stop5110"/>
</linearGradient>
<linearGradient gradientTransform="matrix(1.1219512,0,0,1.1219512,-2.9268293,-2.9268293)" xlink:href="#linearGradient5106" id="linearGradient3841" y1="11.038096" x1="17.340046" y2="37.504093" gradientUnits="userSpaceOnUse" x2="17.345901"/>
<radialGradient fx="62.202274" fy="-5.7132163" cx="62.202274" cy="-5.7132163" gradientTransform="matrix(-8.0936304,-6.65364e-7,4.2410538e-7,-5.1595468,527.44223,-29.012446)" xlink:href="#linearGradient5106" id="radialGradient3844" r="9.7552835" gradientUnits="userSpaceOnUse"/>
</defs>
<g style="stroke:none" id="layer1">
<path style="fill:url(#radialGradient3844)" id="path4147" d="m 24,1 c -12.7027,0 -23,10.2976 -23,23 0,12.7028 10.2973,23 23,23 12.7015,0 23,-10.2971 23,-23 0,-12.7024 -10.2985,-23 -23,-23 Z "/>
<path style="fill:#fff" id="path3012" d="m 24,6 c 9.94029,0 18,8.05902 18,18 0,9.94143 -8.05971,18 -18,18 -9.94121,0 -18,-8.05866 -18,-18 8.88178e-16,-9.94098 8.05879,-18 18,-18 Z "/>
<path style="fill:#224b74" id="path4151" d="m 24.8765,9.8744 c -1.12651,-0.0032 -2.44231,0.261426 -3.64634,1.33232 -1.92645,1.71343 -2.46136,4.30026 -0.596037,5.46951 1.86532,1.16925 2.8807,0.56373 3.29573,0.245426 0.415031,-0.318303 0.81801,-1.10083 1.19207,-1.47256 0.374065,-0.371729 0.945415,-0.833039 1.68293,-1.05183 0.737515,-0.218788 1.36544,-0.114344 2.34908,0.280488 0.983644,0.39484 2.18298,1.25504 2.2439,2.52439 0.06092,1.26935 -2.2275,3.49256 -5.43445,4.62805 -3.59658,1.27344 -9.17697,1.26587 -9.29116,5.01372 l -.1052,3.7515 h 6.62653 c 0.0018,-2.39044 -0.837506,-3.23392 3.29573,-4.17226 3.31298,-0.799073 8.80761,-2.25714 10.2729,-5.53963 1.46526,-3.2825 -1.44539,-6.62004 -3.22561,-7.88872 -0.445054,-0.317172 -1.02405,-0.627374 -1.64787,-0.946646 -0.467865,-0.239455 -0.971148,-0.482821 -1.47256,-0.70122 -1.50423,-0.655207 -3.007,-1.18541 -3.75153,-1.29726 -0.49635,-0.07456 -1.1122,-0.173347 -1.78811,-0.175305 Z  m -4.4527,22.3689 c -1.49714,-0.05718 -2.97044,0.766153 -3.64634,2.20884 -0.901208,1.92358 -0.06535,4.21769 1.85823,5.1189 1.92358,0.901207 4.21769,0.06535 5.1189,-1.85823 0.901207,-1.92358 0.06535,-4.21769 -1.85823,-5.1189 -0.480896,-0.225302 -0.973514,-0.331553 -1.47256,-0.350609 z "/>
<path style="fill:url(#linearGradient3841)" id="path3010" d="m 24.8765,9.2744 c -1.12651,-0.00325 -2.44231,0.261426 -3.64634,1.33232 -1.92645,1.71343 -2.46136,4.30026 -0.596037,5.46951 1.86532,1.16925 2.8807,0.56373 3.29573,0.245426 0.415031,-0.318303 0.81801,-1.10083 1.19207,-1.47256 0.374065,-0.371729 0.945415,-0.833039 1.68293,-1.05183 0.737515,-0.218788 1.36544,-0.114344 2.34908,0.280488 0.983644,0.39484 2.18298,1.25504 2.2439,2.52439 0.06092,1.26935 -2.2275,3.49256 -5.43445,4.62805 -3.59658,1.27344 -9.17697,1.26587 -9.29116,5.01372 l -.1052,3.7515 h 6.62653 c 0.0018,-2.39044 -0.837506,-3.23392 3.29573,-4.17226 3.31298,-0.799073 8.80761,-2.25714 10.2729,-5.53963 1.46526,-3.2825 -1.40213,-6.68305 -3.22561,-7.88872 -2.06566,-1.3658 -4.3527,-2.35846 -6.87195,-2.94512 -0.48884,-0.113836 -1.1122,-0.173347 -1.78811,-0.175305 Z  m -4.4527,22.3689 c -1.49714,-0.05718 -2.97044,0.766153 -3.64634,2.20884 -0.901208,1.92358 -0.06535,4.21769 1.85823,5.1189 1.92358,0.901207 4.21769,0.06535 5.1189,-1.85823 0.901207,-1.92358 0.06535,-4.21769 -1.85823,-5.1189 -0.480896,-0.225302 -0.973514,-0.331553 -1.47256,-0.350609 Z "/>
</g>
</svg>
