<svg width="96" version="1.0" xmlns="http://www.w3.org/2000/svg" height="96" xmlns:xlink="http://www.w3.org/1999/xlink">
<defs>
<linearGradient id="linearGradient3678">
<stop offset="0" style="stop-color:#888"/>
<stop offset="1" style="stop-color:#acacac"/>
</linearGradient>
<linearGradient id="linearGradient3684" xlink:href="#linearGradient3678" y1="24" x1="48" y2="80" x2="48" gradientUnits="userSpaceOnUse"/>
</defs>
<g style="color:#000">
<path style="fill:#c8c8c8" d="m 12,6 h 72 c 3.324,0 6,2.676 6,6 v 72 c 0,3.324 -2.676,6 -6,6 H 12 C 8.676,90 6,87.324 6,84 V 12 C 6,8.676 8.676,6 12,6 Z"/>
<rect width="74" x="11" y="23" height="60" style="opacity:.99;fill:url(#linearGradient3684)"/>
<rect width="72" x="12" y="24" height="58" style="opacity:.99;fill:#fff"/>
</g>
<circle cx="77.5" cy="14.5" style="fill:#b25959" r="4.5"/>
<circle cx="63.5" cy="14.5" style="fill:#4d994d" r="4.5"/>
<circle cx="49.5" cy="14.5" style="fill:#a67f32" r="4.5"/>
<path style="fill:#4d4d4d;fill-rule:evenodd" d="m 5.7445,33.6696 c -0.371588,0.203457 2.96354,2.389 9.21347,4.96207 6.25033,2.57307 14.8906,9.08727 14.2136,10.1399 -2.03011,2.85937 -3.22496,6.28739 -2.39854,12.145 0.149039,1.0311 -3.06314,2.82252 -2.83004,4.3783 0.194927,1.18379 3.58914,-1.17608 3.9595,-0.710682 0.226615,0.835355 -1.81386,5.06604 -0.989866,5.36818 0.602655,0.179092 5.89794,-5.03629 6.20577,-4.94939 8.73691,2.6413 20.1104,0.654741 20.3306,0.571084 -0.02068,-0.04589 8.1708,3.85463 8.8835,3.38842 1.79783,-1.94686 -3.40598,-4.6909 -2.53814,-5.78697 0.380516,-0.573826 6.34364,2.15347 6.63725,1.40867 0.427221,-1.28938 -2.76841,-3.99504 -3.24883,-4.7971 -0.417872,-0.739514 -0.500623,-1.93051 0.571084,-2.67774 1.07212,-0.74723 12.0337,-4.94076 11.574,-8.18552 -0.794741,-5.89581 -13.9132,-6.28059 -14.1248,-6.77685 -0.09943,-0.233104 0.588131,-8.43081 -3.23614,-6.91645 -2.35458,0.876372 -0.444175,6.1015 -0.291887,6.77685 0.14051,0.621746 -1.04531,0.552098 -1.26908,0.279197 -0.499502,-0.609968 -2.14117,-6.06119 -4.08641,-5.08898 -2.7282,1.50421 -0.166509,6.20577 -0.710682,6.35806 -1.01079,0.564889 -0.953831,1.94706 -1.76401,3.07116 -1.33609,1.91478 -11.3372,-0.89566 -14.569,-1.0914 -2.36596,-0.1397 -4.62157,1.79518 -4.83517,1.54827 -2.8809,-2.88496 -8.83874,-7.91282 -15.3685,-9.5815 -3.66183,-0.993736 -9.1092,-3.86915 -9.32768,-3.8326 Z  m 66.6898,5.2793 c -0.218144,0.09414 -1.09829,4.62823 -0.672613,4.83517 0.377267,0.282244 1.02968,-4.57151 0.685302,-4.82248 -0.0058,-0.0066 -0.0058,-0.01572 -0.01274,-0.01271 z  m 3.2361,.6218 c -0.494805,-0.0091 -3.13328,4.20743 -2.52545,4.6575 0.377268,0.282243 2.72516,-4.48521 2.56352,-4.64481 -0.01168,-0.0093 -0.02209,-0.01239 -0.03809,-0.01271 z  m -12.7923,5.1397 c 0.62509,0 1.12948,0.570063 1.12948,1.28176 0,0.7117 -0.504386,1.29445 -1.12948,1.29445 -0.625092,0 -1.12948,-0.582754 -1.12948,-1.29445 0,-0.7117 0.504386,-1.28176 1.12948,-1.28176 z  m -2.5381,.7741 c 0.480818,2.07559 1.22501,2.73125 3.47726,2.66505 -2.86668,2.62871 -4.60258,-1.8695 -3.47726,-2.66505 z  m 6.0662,5.4316 c 0.178415,-0.01446 0.314976,0.01352 0.393404,0.08884 1.12938,0.409353 -4.84612,2.56312 -4.88592,2.25895 -0.06006,-0.209649 3.24357,-2.24649 4.49252,-2.34779 z  m .7361,1.3706 c 0.06182,-0.0048 0.119348,0.01453 0.164978,0.03805 1.06602,1.05912 -3.37492,3.40741 -3.32497,3.32497 -0.357882,-0.216251 2.23276,-3.2911 3.16,-3.36304 z "/>
</svg>
