<svg width="128" version="1.0" xmlns="http://www.w3.org/2000/svg" height="128" xmlns:xlink="http://www.w3.org/1999/xlink">
<defs>
<linearGradient id="linearGradient3326">
<stop offset="0" style="stop-color:#ff0"/>
<stop offset="1" style="stop-color:#ff0;stop-opacity:0"/>
</linearGradient>
<linearGradient id="linearGradient3316">
<stop offset="0" style="stop-color:#fff"/>
<stop offset="1" style="stop-color:#fff;stop-opacity:0"/>
</linearGradient>
<linearGradient id="linearGradient3243">
<stop offset="0" style="stop-color:#ff0"/>
<stop offset="1" style="stop-color:#ff0;stop-opacity:0"/>
</linearGradient>
<linearGradient id="linearGradient3520">
<stop offset="0" style="stop-color:#ff0"/>
<stop offset="1" style="stop-color:#ff0;stop-opacity:0"/>
</linearGradient>
<linearGradient id="linearGradient4105">
<stop offset="0" style="stop-color:#f2bb88;stop-opacity:.271"/>
<stop offset="1" style="stop-color:#f00"/>
</linearGradient>
<linearGradient id="linearGradient3189">
<stop offset="0"/>
<stop offset="1" style="stop-color:#737373"/>
</linearGradient>
<linearGradient gradientTransform="translate(0,-9.453042)" xlink:href="#linearGradient4105" id="linearGradient3860" y1="119.03125" x1="27.194328" y2="97.502022" gradientUnits="userSpaceOnUse" x2="15.89603"/>
<linearGradient gradientTransform="translate(0,-1.4206533)" xlink:href="#linearGradient3189" id="linearGradient4199" y1="124.08918" x1="121.72385" y2="6.4387059" x2="120.91307" gradientUnits="userSpaceOnUse"/>
<linearGradient gradientTransform="translate(0,-9.453042)" xlink:href="#linearGradient3520" id="linearGradient3876" y1="92.761131" x1="17.856874" y2="48.526318" gradientUnits="userSpaceOnUse" x2="20.91498"/>
<radialGradient fx="18.455824" fy="93.597523" cx="18.455824" cy="93.597523" gradientTransform="matrix(0.7411822,0,0,0.7411822,4.7768949,14.77166)" xlink:href="#linearGradient3326" id="radialGradient3866" r="24.027034" gradientUnits="userSpaceOnUse"/>
<radialGradient fx="19.541824" fy="97.869293" cx="19.541824" cy="97.869293" gradientTransform="matrix(1.1337114,-0.65454873,1.4454615,2.5036128,-143.66947,-145.94789)" xlink:href="#linearGradient3243" id="radialGradient3864" r="3.4979758" gradientUnits="userSpaceOnUse"/>
<radialGradient fx="19.562754" fy="95.740891" cx="19.562754" cy="95.740891" gradientTransform="matrix(1.5013052,-0.8667791,1.9141367,3.3153824,-194.75209,-217.80076)" xlink:href="#linearGradient3316" id="radialGradient3862" r="3.4979758" gradientUnits="userSpaceOnUse"/>
</defs>
<g style="fill-rule:evenodd">
<path style="opacity:.65;fill:#fff;vector-effect:none" d="m 0.9395,1.0293 42.2012,67.1074 -43.0449,58.834 h 20.6641 l 35.5527,-47.7031 30.6348,47.7031 h 40.752 L 84.4279,60.0762 128.0802,1.0293 H 107.5001 L 71.92,48.3711 41.4805,1.0293 Z"/>
<path style="fill:url(#linearGradient4199)" d="M 8.1797,5.0289 47.9725,68.3061 7.9787,122.9713 h 10.773 L 70.4925,53.546 39.2967,5.0289 H 8.1798 Z m 101.2968,0 -51.7984,68.965 31.4535,48.9777 h 31.217 L 79.5648,59.9244 120.1486,5.0287 h -10.6722 z"/>
</g>
<path style="fill:url(#linearGradient3860)" d="m 51.075,23.3179 1.6608,2.5724 c 11.4329,-3.96715 29.4692,-2.34126 39.2831,2.33947 l .7813,-1.0352 c -11.1118,-5.59297 -26.9597,-7.09621 -41.7252,-3.87678 Z  m 49.6531,8.3543 -.7722,.9127 c 11.6337,7.44076 17.3255,18.0886 17.3255,31.1496 0,22.4363 -22.1013,40.625 -49.3438,40.625 -27.2424,0 -49.3438,-18.1888 -49.3438,-40.625 0,-10.3002 2.79554,-18.3187 10.4708,-25.4867 l -3.2358,-5.1186 c -11.9195,8.13019 -17.8288,18.7558 -17.8288,32.1679 0,24.4489 25.088,44.2812 56,44.2812 30.912,0 56.0235,-19.8323 56,-44.2812 -0.0113,-11.7899 -5.93093,-24.9654 -19.2719,-33.6247 z "/>
<path style="opacity:.558;fill:#ff0" d="M 26.421,35.0513 C 10.9574,45.2471 4.2952,67.8612 15.5627,83.8593 c 15.4955,23.6134 49.1006,29.1469 74.0625,18.6875 5.96322,-2.63331 -2.85951,1.15901 -5.03125,1.5625 -24.2864,7.19529 -54.8776,-2.46761 -65.4062,-26.75 -5.91298,-13.8821 -1.16666,-30.746 8.77703,-40.8513 -0.728412,-1.11918 -0.813693,-1.30227 -1.11454,-1.72581 z"/>
<path style="fill:url(#radialGradient3862);stroke-width:8.165" d="m 23.1302,79.6284 a 13.3912,6.06395 60 1,1 -10.5031,6.06394 13.3912,6.06395 60 1,1 10.5031,-6.06394 Z "/>
<path style="fill:url(#radialGradient3864);stroke-width:4.187" d="m 20.5715,81.1057 a 6.8664,3.10932 60 1,1 -5.38548,3.10931 6.8664,3.10932 60 1,1 5.38548,-3.10931 z "/>
<path style="fill:url(#radialGradient3866);stroke-width:2.965" d="m 32.778,98.4665 -12.4454,-10.8471 -3.0828,16.2807 .721,-16.4933 -14.6508,7.7406 13.3445,-9.7196 -15.1865,-6.6282 15.9193,4.373 -4.2865,-16.0059 6.5065,15.1728 9.8414,-13.3308 -7.8058,14.5471 16.5585,-.6173 -16.2402,2.9672 10.8067,12.561 Z "/>
<path style="fill:none;fill-rule:evenodd;stroke:url(#linearGradient3876);stroke-width:4" d="m 18.9152,84.0854 c -12.0632,-16.6748 -5.49449,-30.4553 4.40486,-43.0121"/>
<path style="opacity:.463;fill:#ff0;isolation:auto;color-rendering:auto;white-space:normal;solid-opacity:1;mix-blend-mode:normal;color-interpolation-filters:linearRGB;shape-rendering:auto;image-rendering:auto;line-height:normal;color-interpolation:sRGB;color:#000;solid-color:#000000" d="m 60.3848,22.459 c -3.34155,0.215711 -6.38546,0.6751 -8.91211,1.35938 l -.0547,.0156 1.3223,2.0645 c 12.4476,-3.0324 28.1726,-1.16853 38.4883,3.36133 l 1.2617,-1.6562 c -9.3858,-4.24454 -22.0808,-5.79166 -32.1055,-5.14453 z  m 39.6094,10.0762 -.0547,.0156 c 0.0092,0.0055 0.01815,0.01013 0.02734,0.01563 z  m -.0273,.0312 -1.1992,1.4355 c 11.3712,7.78643 18.0078,19.7225 17.5547,31.959 -0.45815,12.3732 -5.2118,25.2687 -21.5615,32.5625 -12.9485,5.77651 -23.1988,6.37466 -33.462,6.36129 -5.62867,-0.007 -19,-3.29114 -26.1603,-6.81113 l -1.6292,2.1187 c 7.46488,3.98432 18.6799,6.90543 27.7896,6.69238 11.7903,-0.27574 20.8199,-0.73307 34.1335,-6.54094 18.9751,-8.29696 22.7515,-25.7544 23.2258,-34.2794 0.64583,-11.6085 -4.70591,-25.1933 -18.6641,-33.5293 z  m -73.834,.9844 c -11.2727,8.08582 -17.8926,19.3563 -17.8633,32.5353 l .3457,-.1699 v 0.0039 c -0.028955,13.0204 6.41359,24.3005 17.4512,32.377 l 1.1582,-1.5352 c -10.6291,-7.74769 -16.9845,-18.3513 -16.9551,-30.6699 v -0.0059 c -0.02962,-12.4136 6.13909,-23.1074 16.9121,-30.8613 Z "/>
</svg>
