<svg width="128" version="1.0" xmlns="http://www.w3.org/2000/svg" height="128">
<g style="fill-rule:evenodd;stroke-linecap:square" id="g4">
<path style="fill:#cdf2ff;stroke:#007196;stroke-width:3" id="path4141" d="m 49.7012,10.0527 0,41.6055 c -13.1224,5.69126 -21.6207,18.6224 -21.6387,32.9258 0.000497,19.8475 16.09,35.937 35.9375,35.9375 19.8475,-0.0005 35.937,-16.09 35.9375,-35.9375 -0.018686,-14.9401 -9.27856,-28.3105 -23.2578,-33.582 v -40.9492 z "/>
<path style="fill:#08dd20;stroke:none;stroke-width:3.294" id="path4149" d="m 37.9062,73.4062 a 28.4895,28.4895 0 0,0 -2.39648,11.3965 28.4895,28.4895 0 0,0 28.4902,28.4902 28.4895,28.4895 0 0,0 28.4902,-28.4902 28.4895,28.4895 0 0,0 -2.41797,-11.3965 h -52.166 z "/>
</g>
</svg>
