<svg width="128" version="1.0" xmlns="http://www.w3.org/2000/svg" height="128">
<g style="stroke:none;stroke-linejoin:round;stroke-linecap:round;stroke-width:2" id="g4" transform="matrix(0.95066848,0,0,1,3.257125,0)">
<rect width="109.94449" x="8.9226637" y="34.466881" height="80" style="fill:#1861ab" id="rect4222"/>
<rect width="107.83515" x="9.032424" y="32.4664" height="80" style="fill:#347fcb" id="rect6173"/>
</g>
<g style="stroke:none">
<g style="stroke-linejoin:round;stroke-linecap:round;stroke-width:2" id="g17">
<path style="fill:#282828" id="path4220" d="m 7.0644,13.5331 c -1.44659,1e-06 -2.88224,1.06841 -2.88228,2.83552 l -.0004,18.0494 .8003,2.0488 h 118.818 v -19.098 c 0,-1.61373 -2.53177,-3.83576 -4.082,-3.83576 z "/>
<path style="fill:#646464" id="rect5316" d="m 7.036,13.5334 c -1.42336,0 -2.836,1.06841 -2.836,2.83552 v 18.098 h 117.5 v -18.098 c 0,-1.61373 -1.31066,-2.83552 -2.836,-2.83552 z "/>
</g>
<g style="fill:#fff">
<text x="18.834534" y="77.779922" style="font-family:sans-serif;text-align:justify;line-height:125%;font-weight:bold;font-size:42.92050552px" id="text6333" xml:space="preserve"><tspan x="18.834534" y="77.779922" id="tspan6335">>_</tspan>
</text>
<circle cx="110.95084" cy="24.203417" style="stroke-linejoin:round;stroke-linecap:round;stroke-width:3" id="path4218" r="5"/>
</g>
</g>
</svg>
