<svg width="48" version="1.1" xmlns="http://www.w3.org/2000/svg" height="48">
<g style="stroke:none" id="g4" transform="matrix(1.0777579,0,0,1.0777579,-1.8662005,-1.1121902)">
<path style="fill:#59a50f" id="path3825" d="m 24.6377,30.1048 -.1442,.2944 c 0,0 1.62373,3.4902 1.8351,5.0771 0.16619,1.2478 0.0092,2.7937 -0.510751,3.4791 -0.347489,0.4581 -2.47764,1.2018 -2.47764,1.2018 l .1122,1.6905 3.6013,.096 2.651,-9.9485 c -1.64414,-0.6397 -3.35875,-2.1481 -5.06699,-1.8905 z "/>
<path style="fill:#6dca12" id="path4160" d="m 8.5685,2.4258 2.1191,7.0984 3.401,4.0559 c -1.25248,0.2187 -1.87044,1.0377 -2.8253,1.5988 -1.20186,1.0558 -1.74315,2.3812 -2.26852,3.7776 l -4.0091,2.9724 c -0.204489,-0.175 -0.356299,-0.033 -0.520765,0.034 -0.584048,0.3432 -1.21951,0.6403 -1.56029,1.1877 -0.620967,1.6083 0.055116,2.096 0.722613,3.0921 0.426922,0.4613 0.886821,0.5519 1.80339,0.6136 0,0 4.19874,-2.5669 6.81912,-3.5784 2.38358,-0.9201 4.67892,0.731 7.84204,-1.7258 -3.16122,2.9107 -0.54143,13.7682 -2.19811,17.2675 -0.600438,1.2683 -2.02108,1.6917 -2.74003,2.8967 -0.181408,0.3041 -0.341482,1.0058 -0.341482,1.0058 l 7.8267,-.7142 c 0,0 -0.05322,-6.6597 -0.292117,-10.2912 -0.01796,-0.2729 0.637337,-1.1946 1.0175,-1.2598 2.38274,-0.409 5.81587,1.564 7.16084,2.4837 0.177997,2.9158 -1.9526,9.0983 -1.9526,9.0983 l -.0621,.1823 3.8451,1.9538 1.5963,-.695 1.7239,-.1329 -.0901,-.7248 c -0.339825,-0.7113 -1.94258,-2.4519 -1.94258,-2.4519 0,0 1.5037,-4.2868 0.545509,-9.0534 1.743,2.6197 3.82823,1.111 4.66937,1.2067 -0.522548,1.0445 -0.229015,2.2589 -0.166322,3.5572 0.05551,1.1495 0.751356,2.4126 0.449877,3.437 -0.35059,1.1913 -2.76206,2.6119 -2.76206,2.6119 l .3906,.4546 2.2153,-.096 -.1362,1.2939 2.1852,-1.2578 h 0.971427 l .5909,.5227 1.0776,-.7671 1.6664,-.07 c -0.960337,-5.4238 -1.1483,-9.3023 -1.67045,-14.7977 -0.134575,-1.4164 -0.899272,-4.5021 -1.2959,-5.444 -1.31564,-3.1244 -3.43094,-5.7131 -6.76194,-6.4635 -4.16642,-0.9386 -7.56601,0.6277 -12.3037,2.7541 0.358557,-0.8395 0.773656,-3.7434 1.55788,-4.1542 1.06964,-0.56 1.98716,-0.8128 3.11257,-1.1256 1.00892,-0.3776 1.64634,-0.9924 2.32742,-1.5764 1.87495,-2.2545 3.48651,-4.585 5.06745,-6.9241 -2.84722,0.6559 -5.69532,1.7629 -8.54255,2.8341 -1.8043,0.6733 -3.42153,1.5332 -4.78904,2.8662 l -2.9163,2.9023 c -0.655273,0.5054 -0.987769,-0.014 -1.35599,-0.4166 l -2.1512,-3.2207 Z "/>
<g style="fill:#315b09" id="g8">
<path id="path4158" d="m 29.8358,7.4511 -3.8715,3.5081 2.6271,-.68 -5.2872,1.9369 z "/>
<path id="path4156" d="m 17.5752,14.3713 c 0.246517,0 0.490673,0.015 0.731799,0.039 -2.07644,0.1497 -3.02232,0.4913 -4.82521,1.372 0.661911,-0.4806 1.03197,-0.8395 2.22164,-1.2276 0.520746,-0.1072 1.07461,-0.1697 1.62395,-0.1805 0.0824,0 0.165647,0 0.24782,0 z"/>
</g>
<path id="path4154" d="m 16.9402,16.0147 c 0.04376,-8e-4 0.08848,-7e-4 0.131199,0 1.02524,0.017 1.72016,0.4471 1.72016,0.4471 -2.27332,-0.5837 -3.52223,-0.098 -4.49575,1.3165 -0.11682,-0.088 0.64652,-1.3184 1.65602,-1.6109 0.351097,-0.1017 0.682017,-0.1471 0.988366,-0.1527 z"/>
<path id="path4152" d="m 16.8965,16.7396 c 0.211745,-0.01 0.423687,0.013 0.644332,0.056 0.424852,0.1414 0.620298,0.4404 0.828011,0.7277 -0.440541,-0.3738 -0.900459,-0.6648 -1.45193,-0.5277 0.625745,0.063 0.86046,0.4388 0.950464,0.9304 0.07489,0.6578 -0.516187,1.048 -0.912562,1.1026 -0.396813,0.055 -0.904753,-0.039 -1.19537,-0.4444 -0.08665,-0.1655 -0.310427,-0.7754 0.04373,-1.2109 -0.394028,0.141 -0.729545,0.373 -1.04668,0.636 0.266143,-0.3718 0.592562,-0.6626 1.08749,-0.9749 0.353982,-0.188 0.6996,-0.2807 1.05251,-0.2944 z"/>
<g style="fill:#1d3705" id="g14">
<path id="path4150" d="m 5.1936,23.3285 c 0.364484,0.4329 0.719379,0.8475 0.893313,1.4201 0.02325,0.5309 -0.210564,0.5172 -0.438645,0.5147 -0.193087,0 -0.554918,-0.2178 -0.438644,-0.3946 0.09312,-0.1416 0.17821,-0.5506 0.140206,-0.7431 z"/>
<path id="path3816" d="m 3.8556,23.4587 c 0.285902,0.3023 0.566279,0.5007 0.620912,0.9213 0.02016,0.1002 0.0402,0.351 -0.158232,0.3125 C 3.740105,24.1462 4.088044,24.204 3.8556,23.4587 Z"/>
</g>
</g>
</svg>
