<svg width="48" version="1.1" xmlns="http://www.w3.org/2000/svg" height="48" viewBox="0 0 48 48">
<path style="fill:#4385c8" d="M 24,6 C 16.329919,6 6.6279569,11.843062 3.1347656,23.115234 2.9629623,23.671751 2.9568545,24.266242 3.1171875,24.826172 6.4903786,36.632343 16.5,42 24,42 c 7.5,0 17.50962,-5.367657 20.882812,-17.173828 0.155776,-0.541759 0.155776,-1.116444 0,-1.658203 C 41.581919,11.805198 31.662881,6 24,6 Z"/>
<path style="fill:#fafafa" d="m 24,14 c 7.5,0 15.5,7 15.5,10 0,3 -8,10 -15.5,10 C 16.5,34 8.5,27 8.5,24 8.5,21 16.5,14 24,14 Z"/>
<path style="fill:#55aaff" d="m 24,16 a 8,8 0 0,0 -8,8 8,8 0 0,0 8,8 8,8 0 0,0 8,-8 8,8 0 0,0 -8,-8 Z "/>
<path style="fill:#030507" d="M 24,21.5 A 2.5,2.5 0 0 0 21.5,24 2.5,2.5 0 0 0 24,26.5 2.5,2.5 0 0 0 26.5,24 2.5,2.5 0 0 0 24,21.5 Z"/>
</svg>
