<svg width="22" version="1.1" xmlns="http://www.w3.org/2000/svg" height="22">
<defs id="defs3051">
<style type="text/css" id="current-color-scheme">
.ColorScheme-Text {
color:#4d4d4d;
}
</style>
</defs>
<path style="fill:currentColor" id="path2" d="m 10,4 v 6.0625 C 9.8355341,10.028131 9.6680171,10.010463 9.5,10.009766 8.1219579,10.01024 7.0052552,11.127817 7.0058594,12.505859 7.0063337,13.883139 8.1227207,15 9.5,15 c 1.366668,-0.0015 2.477809,-1.102157 2.492188,-2.46875 L 12,8 h 3 z m 7,0 c -0.552285,0 -1,0.4477153 -1,1 v 13.5 c 0,0.672822 1,0.652499 1,0 V 16 h 2 v -3 h -2 v -1 h 2 V 9 H 17 V 6 h 1 c 1.333333,0 1.333333,-2 0,-2 z M 4,7 v 12 h 9 v -3 h 2 v -1 h -3 v 3 H 5 V 8 H 9 V 7 Z m 13,3 h 1 v 1 h -1 z m 0,4 h 1 v 1 h -1 z" class="ColorScheme-Text"/>
</svg>
