<svg width="22" version="1.1" xmlns="http://www.w3.org/2000/svg" viewBox="0 0 22 22" height="22">
<defs id="defs3051">
<style type="text/css" id="current-color-scheme">
.ColorScheme-Text {
color:#4d4d4d;
}
</style>
</defs>
<path style="fill:currentColor;fill-opacity:1;stroke:none" d="m 11,3 c -4.432,0 -8,3.568 -8,8 0,4.432 3.568,8 8,8 4.432,0 8,-3.568 8,-8 0,-4.432 -3.568,-8 -8,-8 z  m 0,1 c 3.878,0 7,3.122 7,7 0,3.878 -3.122,7 -7,7 -3.878,0 -7,-3.122 -7,-7 0,-3.878 3.122,-7 7,-7 z  m 0,5 c -1.108,0 -2,0.892001 -2,2 0,1.108 0.892001,2 2,2 1.108,0 2,-0.892001 2,-2 0,-1.108 -0.892001,-2 -2,-2 z  m 0,1 c 0.554,0 1,0.446001 1,1 0,0.554 -0.446001,1 -1,1 -0.554,0 -1,-0.446001 -1,-1 0,-0.554 0.446001,-1 1,-1 z " class="ColorScheme-Text"/>
</svg>
