<svg width="22" version="1.1" xmlns="http://www.w3.org/2000/svg" height="22" viewBox="0 0 22 22">
<defs id="defs3051">
<style type="text/css" id="current-color-scheme">
.ColorScheme-Text {
color:#4d4d4d;
}
</style>
</defs>
<path style="fill:currentColor" d="m 2.3848,1 c -0.767353,0 -1.38477,0.617413 -1.38477,1.38477 v 17.2305 c 0,0.764649 0.620117,1.38477 1.38477,1.38477 h 17.2305 c 0.764649,0 1.38477,-0.620117 1.38477,-1.38477 v -17.2305 c 0,-0.767353 -0.617413,-1.38477 -1.38477,-1.38477 h -17.2305 z  m 8.1738,2 c 2.35615,0 4.44247,1.01185 5.72461,2.56445 v 0.0019531 l -3.9863,2.1094 a 2.5,2.14892 0 0,0 -1.78906,-0.648437 2.5,2.14892 0 0,0 -2.5,2.14844 2.5,2.14892 0 0,0 2.5,2.15039 2.5,2.14892 0 0,0 1.76758,-0.628906 l 3.9922,2.1113 c -1.28349,1.54164 -3.36255,2.54492 -5.70898,2.54492 -3.89876,0 -7.05859,-2.76436 -7.05859,-6.17578 0,-3.41142 3.15983,-6.17773 7.05859,-6.17773 z  m 7.5859,3.3008 c 1.13958,1.72708 1.13958,3.85495 0,5.58203 l -4.1445,-2.0937 c 0.287122,-0.434265 0.287021,-0.96235 0,-1.39648 l 4.1445,-2.0918 z  m -15.1445,10.6992 h 16 c 0.5,0 1,0.447782 1,1 0,0.552216 -0.5,1 -1,1 h -16 c -0.5,0 -1,-0.447784 -1,-1 0,-0.552218 0.5,-1 1,-1 z " class="ColorScheme-Text"/>
</svg>
