<svg width="22" version="1.1" xmlns="http://www.w3.org/2000/svg" viewBox="0 0 22 22" height="22">
<defs id="defs3051">
<style type="text/css" id="current-color-scheme">
.ColorScheme-Text {
color:#4d4d4d;
}
</style>
</defs>
<path style="fill:currentColor" d="M 0,0 V 16 H 5 V 12 H 1 V 1 h 14 v 4 h 1 V 0 Z m 3,3 v 7 H 5 V 9 H 4 V 4 h 2 v 1 h 4 V 4 h 2 v 1 h 1 V 3 Z M 6,6 V 22 H 22 V 6 Z m 1,1 h 14 v 11 h -6 v 1 H 12 V 18 H 7 Z m 2,2 v 7 H 19 V 9 Z m 1,1 h 2 v 2 h 4 v -2 h 2 v 5 h -8 z m -9,3 h 3 v 2 H 1 Z m 6,6 h 3 v 2 H 7 Z m 9,0 h 4 v 2 h -4 z" class="ColorScheme-Text"/>
</svg>
