<svg width="22" version="1.1" xmlns="http://www.w3.org/2000/svg" viewBox="0 0 22 22" height="22">
<defs id="defs3051">
<style type="text/css" id="current-color-scheme">
.ColorScheme-Text {
color:#4d4d4d;
}
</style>
</defs>
<path style="fill:currentColor" d="m 3,2 v 18 h 8 V 17 H 9 V 16 H 4 V 3 h 14 v 6 h 1 V 2 Z m 3,3 v 9 h 5 V 13 H 7 V 6 h 2 v 2 h 4 V 6 h 2 v 3 h 1 V 5 Z m 11,5 c -1.65686,0 -3,1.34314 -3,3 v 3 h -2 v 6 h 10 v -6 h -2 v -3 c 0,-1.65686 -1.34314,-3 -3,-3 z m 0,1 c 1.10457,0 2,0.89543 2,2 v 3 h -4 v -3 c 0,-1.10457 0.895431,-2 2,-2 z M 4,17 h 3 v 2 H 4 Z" class="ColorScheme-Text"/>
</svg>
