<svg width="22" version="1.1" xmlns="http://www.w3.org/2000/svg" height="22" viewBox="0 0 22 22">
<defs id="defs3051">
<style type="text/css" id="current-color-scheme">
.ColorScheme-Text {
color:#4d4d4d;
}
</style>
</defs>
<path style="fill:currentColor" d="M 2.3847656,1 C 1.6174128,1 1,1.6174128 1,2.3847656 V 19.615234 C 1,20.379883 1.6201172,21 2.3847656,21 H 19.615234 C 20.379883,21 21,20.379883 21,19.615234 V 2.3847656 C 21,1.6174128 20.382587,1 19.615234,1 Z m 8.2031254,2 c 2.309853,0 4.34135,1.0429438 5.517578,2.6171875 l -4.298828,2.1875 c -0.300795,-0.2927621 -0.732912,-0.4804687 -1.21875,-0.4804687 -0.909707,0 -1.6464848,0.6454142 -1.6464848,1.4414062 0,0.795991 0.7367778,1.441406 1.6464848,1.441406 0.481076,0 0.910495,-0.184882 1.210937,-0.472656 l 4.306641,2.179687 C 14.929227,13.488304 12.89773,14.529297 10.587891,14.529297 6.9490743,14.529297 4,11.949601 4,8.765625 4,5.581652 6.9490743,3 10.587891,3 Z m 6.529297,2.8828125 c 1.176953,1.7837195 1.176953,3.9819015 0,5.7656255 l -4.28125,-2.16211 c 0.140164,-0.211996 0.222656,-0.458179 0.222656,-0.720703 0,-0.262523 -0.0825,-0.5087081 -0.222656,-0.7207031 z M 4,17 h 14 c 0.5,0 1,0.447782 1,1 0,0.552216 -0.5,1 -1,1 H 4 C 3.5,19 3,18.552216 3,18 3,17.447782 3.5,17 4,17 Z" class="ColorScheme-Text"/>
</svg>
