<svg width="22" version="1.1" xmlns="http://www.w3.org/2000/svg" height="22" xmlns:xlink="http://www.w3.org/1999/xlink">
<defs id="defs3051">
<style type="text/css" id="current-color-scheme">
.ColorScheme-Text {
color:#4d4d4d;
}
</style>
</defs>
<path style="fill:currentColor" d="m 4.7578,2 c -1.662,0 -3,1.338 -3,3 v 12 c 0,1.662 1.338,3 3,3 h 12.2422 c 1.662,0 3,-1.338 3,-3 v -12 c 0,-1.662 -1.338,-3 -3,-3 h -12.2422 z  m 6.7422,2 l 2.5,3 h -2 v 4.11719 c 0.151585,0 2.22629,0.09376 2.57812,-0.308594 0.438488,-0.501449 0.180413,-1.09854 -0.578125,-1.09375 v -1.73047 h 3 v 1.73047 c -0.71,-0.0339401 -0.956071,0.365001 -1.05273,0.884765 -0.33517,1.80223 -2.22182,1.7795 -3.94727,1.74805 v 2.18359 c 0.863837,0.186322 1.46102,0.793083 1.46094,1.48438 0,0.85112 -0.895556,1.54102 -2,1.54102 -1.10444,0 -2,-0.689892 -2,-1.54102 0.002,-0.712561 0.637567,-1.33118 1.53711,-1.49609 0.0013,-0.02907 0.002453,-0.060176 0.001953,-0.097656 -0.0056,-0.391007 -0.137134,-0.245918 -1.3457,-0.875 -1.84528,-0.9605 -2.48252,-1.29204 -2.69922,-2.25586 -0.05784,-0.257226 -0.08,-0.397005 -0.105469,-0.486328 -0.311473,-0.145033 -0.564177,-0.362412 -0.726562,-0.625 -0.145473,-0.193247 -0.210165,-0.418289 -0.199219,-0.646485 -0.0015,-0.01106 -0.0028062,-0.0221131 -0.0039062,-0.0332031 0,-0.828729 0.816004,-1.50043 1.82227,-1.5 1.00549,0 1.82031,0.671899 1.82031,1.5 -0.0021,0.773245 -0.617897,1.41849 -1.55273,1.49023 0.04998,0.447349 0.199248,0.633046 0.433594,0.822266 0.336218,0.271476 2.3366,1.4043 2.55664,1.4043 v -6.2168 h -2 l 2.5,-3 z " class="ColorScheme-Text"/>
</svg>
