<svg xmlns="http://www.w3.org/2000/svg" viewBox="0 0 22 22">
  <defs id="defs3051">
    <style type="text/css" id="current-color-scheme">
      .ColorScheme-Text {
        color:#4d4d4d;
      }
      </style>
  </defs>
<path style="fill:currentColor;fill-opacity:1;stroke:none" d="m 3,3 v 16 h 8 v -3 h -2 v -1 h -5 v -11 h 14 v 5 h 1 v -6 h -16 z  m 3,3 v 7 h 5 v -1 h -4 v -5 h 2 v 2 h 4 v -2 h 2 v 2 h 1 v -3 h -10 z  m 11,4 c -1.65686,0 -3,1.34314 -3,3 v 3 h -2 v 6 h 10 v -6 h -2 v -3 c 0,-1.65686 -1.34314,-3 -3,-3 z  m 0,1 c 1.10457,0 2,0.89543 2,2 v 3 h -4 v -3 c 0,-1.10457 0.895431,-2 2,-2 z  m -13,5 h 3 v 2 h -3 v -2 z " class="ColorScheme-Text"/>
</svg>
