<svg width="22" version="1.1" xmlns="http://www.w3.org/2000/svg" viewBox="0 0 22 22" height="22">
<defs id="defs3051">
<style type="text/css" id="current-color-scheme">
.ColorScheme-Text {
color:#4d4d4d;
}
</style>
</defs>
<path style="fill:currentColor" d="m 11,9 c -2.23551,1.6e-05 -4.3107,0.661774 -6.04297,1.79883 l .5918,.8047 c 1.566,-1.01526 3.43813,-1.60352 5.45117,-1.60352 2.01302,0 3.88519,0.588287 5.45117,1.60352 l .5918,-.8047 c -1.73225,-1.13702 -3.80747,-1.79881 -6.04297,-1.79883 z  m 0,4 c -1.34511,1.5e-05 -2.59934,0.375198 -3.66406,1.02734 l .5957,.8105 h 0.0019532 c 0.896167,-0.531682 1.94455,-0.837891 3.06641,-0.837891 1.12182,0 2.17025,0.30624 3.06641,0.837891 h 0.001953 l .5957,-.8105 c -1.0647,-0.652117 -2.31899,-1.02733 -3.66406,-1.02734 z  m 0,4 c -1.108,0 -2,0.892 -2,2 0,1.108 0.892003,2 2,2 1.10801,0 2,-0.892 2,-2 0,-1.108 -0.891995,-2 -2,-2 z  m 0,1 c 0.554002,0 1,0.446 1,1 0,0.554 -0.445998,1 -1,1 -0.553994,0 -1,-0.446 -1,-1 0,-0.554 0.446006,-1 1,-1 z " class="ColorScheme-Text"/>
<path style="fill:currentColor;opacity:.2" d="M 11 1 A 19 19 0 0 0 0.21289062 4.359375 L 0.80664062 5.1660156 A 18 18 0 0 1 11 2 A 18 18 0 0 1 21.193359 5.1660156 L 21.787109 4.359375 A 19 19 0 0 0 11 1 z M 11 5 C 7.8737197 5 4.9762931 5.9468937 2.578125 7.5703125 L 3.1738281 8.3769531 C 5.4053189 6.8748248 8.0963829 6 11 6 C 13.903553 6 16.59471 6.8748853 18.826172 8.3769531 L 19.421875 7.5683594 C 17.023737 5.9450014 14.126225 5 11 5 z " class="ColorScheme-Text"/>
</svg>
