<svg width="22" version="1.1" xmlns="http://www.w3.org/2000/svg" viewBox="0 0 22 22" height="22">
<defs id="defs3051">
<style type="text/css" id="current-color-scheme">
.ColorScheme-Text {
color:#4d4d4d;
}
</style>
</defs>
<path style="fill:currentColor" d="m 11,5 c -3.12628,0 -6.0237,0.946897 -8.42188,2.57031 l .5957,.8066 c 2.23149,-1.50213 4.92255,-2.37695 7.82617,-2.37695 2.90355,0 5.59471,0.874888 7.82617,2.37695 l .5957,-.8086 c -2.39814,-1.62336 -5.29565,-2.56836 -8.42188,-2.56836 z  m 0,4 c -2.23551,1.6e-05 -4.3107,0.661772 -6.04297,1.79883 l .5918,.8047 c 1.566,-1.01526 3.43813,-1.60352 5.45117,-1.60352 2.01302,0 3.88519,0.588283 5.45117,1.60352 l .5918,-.8047 c -1.73225,-1.13702 -3.80747,-1.79881 -6.04297,-1.79883 z  m 0,4 c -1.34511,1.5e-05 -2.59934,0.375202 -3.66406,1.02734 l .5957,.8105 h 0.0019532 c 0.896167,-0.531682 1.94455,-0.837891 3.06641,-0.837891 1.12182,0 2.17025,0.30624 3.06641,0.837891 h 0.001953 l .5957,-.8105 c -1.0647,-0.652117 -2.31899,-1.02733 -3.66406,-1.02734 z  m -7.5,2 c -0.831,0 -1.5,0.669 -1.5,1.5 v 1.5 h -1 v 3 h 5 v -3 h -1 v -1.5 c 0,-0.831 -0.669,-1.5 -1.5,-1.5 z  m 0,1 c 0.277,0 0.5,0.223 0.5,0.5 v 1.5 h -1 v -1.5 c 0,-0.277 0.223,-0.5 0.5,-0.5 z  m 7.5,1 c -1.108,0 -2,0.892 -2,2 0,1.108 0.892003,2 2,2 1.10801,0 2,-0.892 2,-2 0,-1.108 -0.891995,-2 -2,-2 z  m 0,1 c 0.554002,0 1,0.446 1,1 0,0.554 -0.445998,1 -1,1 -0.553994,0 -1,-0.446 -1,-1 0,-0.554 0.446006,-1 1,-1 z " class="ColorScheme-Text"/>
<path style="fill:currentColor;opacity:.2" d="M 11 1 A 19 19 0 0 0 0.21289062 4.359375 L 0.80664062 5.1660156 A 18 18 0 0 1 11 2 A 18 18 0 0 1 21.193359 5.1660156 L 21.787109 4.359375 A 19 19 0 0 0 11 1 z " class="ColorScheme-Text"/>
</svg>
