<svg xmlns="http://www.w3.org/2000/svg" viewBox="0 0 48 48"><path fill="#1793d1" d="m24 1c4.211 9.883 5.211 12.966 17.492 35.832-1.553-.932-3.573-1.759-6.355-2.482 4.048 2.078 6.03 3.973 7.929 5.447 1.208 2.24 2.517 4.594 3.934 7.203-7.184-4.147-12.772-6.728-17.976-7.747.173-.783.281-1.664.303-2.542.116-4.668-2.147-8.654-5.02-8.897-2.876-.244-5.332 3.382-5.447 8.05v.242c-.009 1.097.137 2.115.363 3.087-5.262.99-10.934 3.603-18.218 7.808 9.269-16.655 13.85-25.33 16.766-31.413 1.526 1.283 3.604 2.521 6.597 3.753-2.784-1.947-4.535-3.664-5.932-5.145 2.278-4.867 3.522-8.178 5.568-13.195"/></svg>