<svg width="48" version="1.1" xmlns="http://www.w3.org/2000/svg" height="48">
<g style="stroke-miterlimit:2;stroke:#003bc3;stroke-linecap:square;stroke-width:0;fill-rule:evenodd">
<g style="fill:#2980b9">
<rect width="13.150457" x="23.946743" y="7.0535107" height="10.309778" id="shape11"/>
<rect width="13.150457" x="23.946743" y="18.651777" height="10.309778" id="shape21"/>
<rect width="13.150457" x="23.946743" y="30.396162" height="10.164833" id="shape3"/>
</g>
<g style="fill:#3498db">
<rect width="13.128598" x="10.859916" y="7.0535717" height="10.309782" id="rect15"/>
<rect width="13.128598" x="10.859916" y="18.652388" height="10.309782" id="rect17"/>
<rect width="13.128598" x="10.859916" y="30.250715" height="10.309782" id="shape31"/>
</g>
<g style="fill:#ecf0f1;fill-opacity:.875" id="g33" transform="translate(0,-1004.3622)">
<rect width="2.0955863" x="11.766102" y="1012.9622" height="6.1755695" id="shape4"/>
<rect width="2.0955863" x="11.766102" y="1024.5607" height="6.1755695" id="shape5"/>
<rect width="2.0955863" x="11.823205" y="1036.1592" height="6.1755695" id="shape6"/>
</g>
</g>
<g id="g4385" transform="translate(3,0)">
<rect width="24.644115" x="18.296389" y="18.377302" height="22.373775" style="fill:#e6e6e6;fill-rule:evenodd;stroke:none;color:#000;stroke-width:1.2" id="rect3003"/>
<g style="fill:none;stroke:#b31d1d;stroke-width:.3" id="g3862" transform="matrix(0.95855917,0,0,0.98594101,0.66503318,-990.79036)">
<g id="g3796" transform="translate(-2.4390361,-1.756106)">
<g id="g3786">
<path id="path3782" d="m 23.0858,23.1212 .8773,-1.5621 .8542,1.5314" transform="translate(0,1004.3622)"/>
<path id="path3784" d="m 24.8423,1027.4834 .8773,-1.5621 .8542,1.5313"/>
</g>
<g id="g3790" transform="translate(3.5504592,-0.02497449)">
<path id="path3792" d="m 23.0858,23.1212 .8773,-1.5621 .8542,1.5314" transform="translate(0,1004.3622)"/>
<path id="path3794" d="m 24.8423,1027.4834 .8773,-1.5621 .8542,1.5313"/>
</g>
</g>
<g id="g3804" transform="translate(4.6160664,-1.8067255)">
<g id="g3806">
<path id="path3808" d="m 23.0858,23.1212 .8773,-1.5621 .8542,1.5314" transform="translate(0,1004.3622)"/>
<path id="path3810" d="m 24.8423,1027.4834 .8773,-1.5621 .8542,1.5313"/>
</g>
<g id="g3812" transform="translate(3.5504592,-0.02497449)">
<path id="path3814" d="m 23.0858,23.1212 .8773,-1.5621 .8542,1.5314" transform="translate(0,1004.3622)"/>
<path id="path3816" d="m 24.8423,1027.4834 .8773,-1.5621 .8542,1.5313"/>
</g>
</g>
<g id="g3848" transform="translate(11.671792,-1.854713)">
<g id="g3850">
<path id="path3852" d="m 23.0858,23.1212 .8773,-1.5621 .8542,1.5314" transform="translate(0,1004.3622)"/>
<path id="path3854" d="m 24.8423,1027.4834 .8773,-1.5621 .8542,1.5313"/>
</g>
<g id="g3856" transform="translate(3.5504592,-0.02497449)">
<path id="path3858" d="m 23.0858,23.1212 .8773,-1.5621 .8542,1.5314" transform="translate(0,1004.3622)"/>
<path id="path3860" d="m 24.8423,1027.4834 .8773,-1.5621 .8542,1.5313"/>
</g>
</g>
</g>
<g style="fill:none;stroke:#b31d1d;stroke-width:.3" id="g3885" transform="matrix(0,-0.85251874,1,0,-1005.1266,56.1747)">
<g id="g3887" transform="translate(-2.4390361,-1.756106)">
<g id="g3889">
<path id="path3891" d="m 23.0858,23.1212 .8773,-1.5621 .8542,1.5314" transform="translate(0,1004.3622)"/>
<path id="path3893" d="m 24.8423,1027.4834 .8773,-1.5621 .8542,1.5313"/>
</g>
<g id="g3895" transform="translate(3.5504592,-0.02497449)">
<path id="path3897" d="m 23.0858,23.1212 .8773,-1.5621 .8542,1.5314" transform="translate(0,1004.3622)"/>
<path id="path3899" d="m 24.8423,1027.4834 .8773,-1.5621 .8542,1.5313"/>
</g>
</g>
<g id="g3901" transform="translate(4.6160664,-1.8067255)">
<g id="g3903">
<path id="path3905" d="m 23.0858,23.1212 .8773,-1.5621 .8542,1.5314" transform="translate(0,1004.3622)"/>
<path id="path3907" d="m 24.8423,1027.4834 .8773,-1.5621 .8542,1.5313"/>
</g>
<g id="g3909" transform="translate(3.5504592,-0.02497449)">
<path id="path3911" d="m 23.0858,23.1212 .8773,-1.5621 .8542,1.5314" transform="translate(0,1004.3622)"/>
<path id="path3913" d="m 24.8423,1027.4834 .8773,-1.5621 .8542,1.5313"/>
</g>
</g>
<g id="g3915" transform="translate(11.671792,-1.854713)">
<g id="g3917">
<path id="path3919" d="m 23.0858,23.1212 .8773,-1.5621 .8542,1.5314" transform="translate(0,1004.3622)"/>
<path id="path3921" d="m 24.8423,1027.4834 .8773,-1.5621 .8542,1.5313"/>
</g>
<g id="g3923" transform="translate(3.5504592,-0.02497449)">
<path id="path3925" d="m 23.0858,23.1212 .8773,-1.5621 .8542,1.5314" transform="translate(0,1004.3622)"/>
<path id="path3927" d="m 24.8423,1027.4834 .8773,-1.5621 .8542,1.5313"/>
</g>
</g>
</g>
<g style="fill:none;stroke:#b31d1d;stroke-width:.3" id="g3929" transform="matrix(0.95855917,0,0,-0.98594101,0.66503318,1049.8797)">
<g id="g3931" transform="translate(-2.4390361,-1.756106)">
<g id="g3933">
<path id="path3935" d="m 23.0858,23.1212 .8773,-1.5621 .8542,1.5314" transform="translate(0,1004.3622)"/>
<path id="path3937" d="m 24.8423,1027.4834 .8773,-1.5621 .8542,1.5313"/>
</g>
<g id="g3939" transform="translate(3.5504592,-0.02497449)">
<path id="path3941" d="m 23.0858,23.1212 .8773,-1.5621 .8542,1.5314" transform="translate(0,1004.3622)"/>
<path id="path3943" d="m 24.8423,1027.4834 .8773,-1.5621 .8542,1.5313"/>
</g>
</g>
<g id="g3945" transform="translate(4.6160664,-1.8067255)">
<g id="g3947">
<path id="path3949" d="m 23.0858,23.1212 .8773,-1.5621 .8542,1.5314" transform="translate(0,1004.3622)"/>
<path id="path3951" d="m 24.8423,1027.4834 .8773,-1.5621 .8542,1.5313"/>
</g>
<g id="g3953" transform="translate(3.5504592,-0.02497449)">
<path id="path3955" d="m 23.0858,23.1212 .8773,-1.5621 .8542,1.5314" transform="translate(0,1004.3622)"/>
<path id="path3957" d="m 24.8423,1027.4834 .8773,-1.5621 .8542,1.5313"/>
</g>
</g>
<g id="g3959" transform="translate(11.671792,-1.854713)">
<g id="g3961">
<path id="path3963" d="m 23.0858,23.1212 .8773,-1.5621 .8542,1.5314" transform="translate(0,1004.3622)"/>
<path id="path3965" d="m 24.8423,1027.4834 .8773,-1.5621 .8542,1.5313"/>
</g>
<g id="g3967" transform="translate(3.5504592,-0.02497449)">
<path id="path3969" d="m 23.0858,23.1212 .8773,-1.5621 .8542,1.5314" transform="translate(0,1004.3622)"/>
<path id="path3971" d="m 24.8423,1027.4834 .8773,-1.5621 .8542,1.5313"/>
</g>
</g>
</g>
<g style="fill:none;stroke:#b31d1d;stroke-width:.3" id="g3973" transform="matrix(0,-0.8666944,-1,0,1066.3336,56.6173)">
<g id="g3975" transform="translate(-2.4390361,-1.756106)">
<g id="g3977">
<path id="path3979" d="m 23.0858,23.1212 .8773,-1.5621 .8542,1.5314" transform="translate(0,1004.3622)"/>
<path id="path3981" d="m 24.8423,1027.4834 .8773,-1.5621 .8542,1.5313"/>
</g>
<g id="g3983" transform="translate(3.5504592,-0.02497449)">
<path id="path3985" d="m 23.0858,23.1212 .8773,-1.5621 .8542,1.5314" transform="translate(0,1004.3622)"/>
<path id="path3987" d="m 24.8423,1027.4834 .8773,-1.5621 .8542,1.5313"/>
</g>
</g>
<g id="g3989" transform="translate(4.6160664,-1.8067255)">
<g id="g3991">
<path id="path3993" d="m 23.0858,23.1212 .8773,-1.5621 .8542,1.5314" transform="translate(0,1004.3622)"/>
<path id="path3995" d="m 24.8423,1027.4834 .8773,-1.5621 .8542,1.5313"/>
</g>
<g id="g3997" transform="translate(3.5504592,-0.02497449)">
<path id="path3999" d="m 23.0858,23.1212 .8773,-1.5621 .8542,1.5314" transform="translate(0,1004.3622)"/>
<path id="path4001" d="m 24.8423,1027.4834 .8773,-1.5621 .8542,1.5313"/>
</g>
</g>
<g id="g4003" transform="translate(11.671792,-1.854713)">
<g id="g4005">
<path id="path4007" d="m 23.0858,23.1212 .8773,-1.5621 .8542,1.5314" transform="translate(0,1004.3622)"/>
<path id="path4009" d="m 24.8423,1027.4834 .8773,-1.5621 .8542,1.5313"/>
</g>
<g id="g4011" transform="translate(3.5504592,-0.02497449)">
<path id="path4013" d="m 23.0858,23.1212 .8773,-1.5621 .8542,1.5314" transform="translate(0,1004.3622)"/>
<path id="path4015" d="m 24.8423,1027.4834 .8773,-1.5621 .8542,1.5313"/>
</g>
</g>
</g>
<g style="stroke:none;color:#000;stroke-width:.3" id="g127" transform="translate(0,-1004.3622)">
<g style="fill:#1a1a1a" id="g129">
<rect width="10.496265" x="22.124481" y="23.817427" height="0.72033197" id="rect4017" transform="translate(0,1004.3622)"/>
<rect width="6.3800826" x="22.124481" y="1030.1797" height="0.72033197" id="rect4019"/>
<rect width="9.0556011" x="22.124481" y="1032.1797" height="0.72033197" id="rect4021"/>
<rect width="11.834024" x="22.124481" y="1034.1797" height="0.72033197" id="rect4023"/>
</g>
<path style="fill:#3498db;fill-rule:evenodd" id="path4025" d="m 35.75,31.5312 c -1.96073,0 -3.53125,1.53077 -3.53125,3.40625 0,1.87548 1.57052,3.375 3.53125,3.375 1.96073,0 3.5625,-1.49952 3.5625,-3.375 0,-1.87548 -1.60177,-3.40625 -3.5625,-3.40625 z m 0,0.6875 c 1.5629,0 2.84375,1.2238 2.84375,2.71875 0,1.49495 -1.28085,2.6875 -2.84375,2.6875 -1.5629,0 -2.8125,-1.19255 -2.8125,-2.6875 0,-1.49495 1.2496,-2.71875 2.8125,-2.71875 z" transform="translate(0,1004.3622)"/>
</g>
</g>
</svg>
