<svg width="48" version="1.1" xmlns="http://www.w3.org/2000/svg" height="48">
<g id="g7" transform="translate(0,1)">
<path style="opacity:.65;fill:#fff" id="rect4154" d="M 3,1 V 12 H 45 V 4 H 23 V 1 Z"/>
<path id="folderTab" d="M 4,3 V 16 H 44 V 6 H 22 V 3 Z" transform="translate(0,-1)"/>
<path style="fill:#fff" id="folderPaper" d="m 6,8 h 36 v 33 h -36 Z "/>
<path style="fill:#5e87b2" id="folderFront" d="m 2,11 h 44 v 32 h -44 Z "/>
</g>
<path style="fill:#fff" id="path39063" d="m 24,15.75 c 2.1744,5.10269 2.6904,6.69454 9.03125,18.5 -0.801754,-0.48139 -1.84466,-0.907968 -3.28125,-1.28125 2.09006,1.07275 3.11141,2.05112 4.09375,2.8125 0.623646,1.15644 1.29961,2.37173 2.03125,3.71875 -3.70891,-2.14122 -6.59438,-3.47372 -9.28125,-4 0.08928,-0.404401 0.14504,-0.85929 0.15625,-1.3125 0.05969,-2.40986 -1.10874,-4.46792 -2.59375,-4.59375 -1.48502,-0.125827 -2.75281,1.7464 -2.8125,4.15625 v 0.125 c -0.0045,0.566167 0.07091,1.09207 0.1875,1.59375 -2.71697,0.511048 -5.64548,1.8601 -9.40625,4.03125 4.78575,-8.59902 7.15099,-13.0778 8.65625,-16.2188 0.787803,0.66254 1.86081,1.30156 3.40625,1.9375 -1.43748,-1.00538 -2.34136,-1.89185 -3.0625,-2.65625 1.17616,-2.513 1.81861,-4.22251 2.875,-6.8125 z"/>
</svg>
