<svg width="48" version="1.1" xmlns="http://www.w3.org/2000/svg" height="48">
<path style="opacity:.65;fill:#fff;stroke:none" id="rect4154" d="m 3,1.959 0,9.342 42,0 0,-6.9866 -22,0 0,-2.3555 z"/>
<g id="folderLayer">
<g style="stroke:none">
<g id="g3053" transform="matrix(1,0,0,1.1773318,0,-5.2823341)">
<rect width="18" x="4" y="6.9996953" height="10" id="folderTab"/>
<rect width="40" x="4" y="9" height="30" id="folderBackground"/>
<rect width="35.999992" x="6" y="10.9998" height="27.999756" style="fill:#fff" id="folderPaper"/>
<rect width="43.999996" x="2" y="12.999983" height="28.000008" style="fill:#5e87b2" id="folderFront"/>
</g>
<rect width="35.999992" x="6" y="7.6680799" height="32.965004" style="fill:#fff" id="rect3849"/>
<rect width="43.999996" x="2" y="10.022959" height="32.965298" style="fill:#5e87b2" id="rect3851"/>
<rect width="30" x="9.380971" y="11.101083" height="30" style="fill:none" id="rect3265"/>
<path style="fill:#fff" id="path39063" d="m 31.649,14.2547 c 0.216586,0.0279 0.406463,0.181944 0.46875,0.40625 l .875,3.1562 c 0.08305,0.299075 -0.107175,0.604451 -0.40625,0.6875 l -15.25,4.25 h 15.8125 c 0.322645,0 0.5625,0.209871 0.5625,0.5 v 11.8125 c 0,0.290129 -0.239855,0.5 -0.5625,0.5 h -18.2812 c -0.322645,0 -0.59375,-0.209871 -0.59375,-0.5 v -11.8125 c 0,-0.07253 0.03311,-0.124803 0.0625,-0.1875 -0.0084,-0.02052 -0.02516,-0.04059 -0.03125,-0.0625 l -.875,-3.1562 c -0.08305,-0.299075 0.07592,-0.604451 0.375,-0.6875 l 17.625,-4.875 c 0.07477,-0.02076 0.146555,-0.04055 0.21875,-0.03125 z "/>
</g>
</g>
</svg>
