<svg width="48" version="1.1" xmlns="http://www.w3.org/2000/svg" height="48">
<path style="opacity:.65;fill:#fff;stroke:none" id="rect4154" d="m 3,1.959 0,9.342 42,0 0,-6.9866 -22,0 0,-2.3555 z"/>
<g id="folderLayer">
<g style="stroke:none" id="g3053" transform="matrix(1,0,0,1.1773318,0,-5.2823341)">
<rect width="18" x="4" y="6.9996953" height="10" id="folderTab"/>
<rect width="40" x="4" y="9" height="30" id="folderBackground"/>
<rect width="35.999992" x="6" y="10.9998" height="27.999756" style="fill:#fff" id="folderPaper"/>
<rect width="43.999996" x="2" y="12.999983" height="28.000008" style="fill:#5e87b2" id="folderFront"/>
</g>
</g>
<path style="fill:#fff;stroke:none" id="path39063" d="m 29.2795,12.8332 c 0.189187,-0.01539 0.398699,0 0.625,0 h 12.4557 c -1.05649,0 -2.875,0.322926 -2.875,1.78125 l .0625,18.3311 -5.7058,-6.2188 -6.3125,6.1562 v -18.2374 c 0,-1.17814 0.42569,-1.70474 1.75,-1.8125 z "/>
</svg>
