<svg width="48" version="1.1" xmlns="http://www.w3.org/2000/svg" height="48">
<g id="g7" transform="translate(0,1)">
<path style="opacity:.65;fill:#fff" id="rect4154" d="M 3,1 V 12 H 45 V 4 H 23 V 1 Z"/>
<path id="folderTab" d="M 4,3 V 16 H 44 V 6 H 22 V 3 Z" transform="translate(0,-1)"/>
<path style="fill:#fff" id="folderPaper" d="m 6,8 h 36 v 33 h -36 Z "/>
<path style="fill:#5e87b2" id="folderFront" d="m 2,11 h 44 v 32 h -44 Z "/>
</g>
<g style="fill:#fff" id="layer1" transform="translate(4.7574841e-7,1.0937)">
<path id="path3046" d="m 23.5625,14.1875 c -0.38907,0.05829 -0.65625,0.215959 -0.65625,0.375 v 2.40625 l .625,1.8438 c -1.94966,0.237595 -3.46875,1.89243 -3.46875,3.90625 0,0.831777 0.248418,1.58352 0.6875,2.21875 -0.762227,2.05929 -1.16687,3.12749 -1.90625,5.125 h -1.21875 v 1.625 h 0.625 c -0.443837,1.19906 -1.30044,3.51736 -1.375,3.71875 -0.181931,0.491504 0.06043,1.87896 0.28125,2.875 l .6562,.125 2.4688,-6.7188 h 7.4375 l 2.4688,6.7188 .6562,-.125 c 0.22081,-0.996035 0.463182,-2.3835 0.28125,-2.875 -0.07456,-0.201391 -0.931163,-2.51969 -1.375,-3.71875 h 0.625 v -1.625 h -1.21875 c -0.739377,-1.99751 -1.14402,-3.06571 -1.90625,-5.125 0.439082,-0.63523 0.6875,-1.38697 0.6875,-2.21875 0,-2.01382 -1.51909,-3.66866 -3.46875,-3.90625 l .625,-1.8438 v -2.40625 c 0,-0.212054 -0.49506,-0.375 -1.09375,-0.375 -0.149628,0 -0.30781,-0.01943 -0.4375,0 z  m -1.2812,12.0625 c 0.522171,0.255502 1.09754,0.40625 1.71875,0.40625 0.621213,0 1.19658,-0.150748 1.71875,-0.40625 l 1.125,3.0938 .25,.7188 h -6.1875 l .25,-.7188 z "/>
</g>
</svg>
