<svg width="48" version="1.1" xmlns="http://www.w3.org/2000/svg" height="48">
<g id="g7" transform="translate(0,1)">
<path style="opacity:.65;fill:#fff" id="rect4154" d="M 3,1 V 12 H 45 V 4 H 23 V 1 Z"/>
<path id="folderTab" d="M 4,3 V 16 H 44 V 6 H 22 V 3 Z" transform="translate(0,-1)"/>
<path style="fill:#fff" id="folderPaper" d="m 6,8 h 36 v 33 h -36 Z "/>
<path style="fill:#5e87b2" id="folderFront" d="m 2,11 h 44 v 32 h -44 Z "/>
</g>
<path style="fill:#fff;fill-rule:evenodd;stroke-linecap:square;stroke-width:.682" id="path4143" d="M 23.9991,15 A 12.5006,12.4997 0 0 0 11.5,27.5 12.5006,12.4997 0 0 0 23.9991,40 12.5006,12.4997 0 0 0 36.5,27.5 12.5006,12.4997 0 0 0 23.9991,15 Z m 5.1646,6.4797 c 0.210982,0.02174 0.411185,0.09124 0.550352,0.213137 0.278331,0.243901 0.284278,0.700701 0.169474,1.029 l -3.5607,10.1834 c -0.101357,0.289878 -0.220583,0.549034 -0.683137,0.614954 -0.462554,0.06592 -0.979956,-0.240428 -1.21078,-0.773933 0,0 -1.51531,-3.57502 -1.8083,-3.84696 -0.292987,-0.271996 -4.05165,-1.95143 -4.05165,-1.95143 -0.485899,-0.316288 -0.584525,-0.909784 -0.490951,-1.22292 0.09357,-0.313137 0.439542,-0.597042 0.768747,-0.714536 l 9.6984,-3.4609 c 0.184769,-0.06592 0.407509,-0.09162 0.618493,-0.06989 z"/>
</svg>
