<svg width="48" version="1.1" xmlns="http://www.w3.org/2000/svg" height="48">
<g id="g7" transform="translate(0,1)">
<path style="opacity:.65;fill:#fff" id="rect4154" d="M 3,1 V 12 H 45 V 4 H 23 V 1 Z"/>
<path id="folderTab" d="M 4,3 V 16 H 44 V 6 H 22 V 3 Z" transform="translate(0,-1)"/>
<path style="fill:#fff" id="folderPaper" d="m 6,8 h 36 v 33 h -36 Z "/>
<path style="fill:#5e87b2" id="folderFront" d="m 2,11 h 44 v 32 h -44 Z "/>
</g>
<path style="fill:#fff;fill-rule:evenodd" id="rect3359" d="m 19.1129,17.8872 -2.4451,-.0157 c 0.01499,5.49936 0.02472,9.18902 0.02921,11.069 h -5.69698 l 12.9899,10.288 13.0101,-10.288 h -5.75748 l -.0022,-5.2191 -2.4268,-.008 c -0.0028,-0.428289 -0.0067,-1.07817 -0.01159,-1.94965 l 2.4302,-.0111 v -3.88078 h -2.44405 v 1.94595 l -4.8242,-.0043 v -1.93425 h 2.4255 l -.0097,1.9343 .0058,1.939 h -2.41632 l .0139,1.946 -2.4441,.0111 -.0005,.0039 -.0098,-3.9 -2.4254,.0157 z "/>
</svg>
