<svg width="48" version="1.1" xmlns="http://www.w3.org/2000/svg" height="48">
<g style="stroke:none">
<path style="opacity:.65;fill:#fff" id="rect4154" d="m 3,1.959 0,9.342 42,0 0,-6.9866 -22,0 0,-2.3555 z"/>
<g id="g5">
<rect width="18" x="4" y="2.9586298" height="11.773318" id="folderTab"/>
<rect width="40" x="4" y="5.313652" height="35.319954" id="folderBackground"/>
<rect width="35.999992" x="6" y="7.6680799" height="32.965004" style="fill:#fff" id="folderPaper"/>
<rect width="43.999996" x="2" y="10.022959" height="32.965298" style="fill:#5e87b2" id="folderFront"/>
<path style="opacity:.35;fill:#fff" id="path3522-9" d="m 17.8576,10.0622 c 0.864345,0.89998 0.05899,2.40286 1.36268,2.38793 0.634802,0.695894 -1.26523,0.207588 0.106617,0.743934 0.78891,0.481753 -0.834632,0.757007 0.142355,1.18933 -1.12602,0.450525 0.182523,2.35643 1.01888,2.83342 1.37654,0.898547 0.608773,-1.90241 2.14474,-2.04811 0.83462,-0.738801 2.30049,-1.21306 3.34152,-1.95627 -1.0174,-0.06404 -1.61149,-0.555058 -0.647966,-0.859224 1.77333,1.40899 0.44466,-0.667274 -0.536976,-0.99602 0.949853,-0.234283 1.87365,-0.06272 1.74186,-0.670459 1.00379,-0.569423 -0.964993,-0.753273 -1.66777,-0.624537 -2.33532,0 -4.67064,0 -7.00596,0 z M 3.2948,10.65 C 2.0116,10.933467 1.92209,13.31129 3.21182,11.99092 3.528378,11.448758 4.99124,10.79538 3.2948,10.65 z m 5.9958,0.0827 c -0.739756,0.899431 0.107306,1.62056 0.722816,0.523508 C 10.449066,10.798099 9.689731,10.749485 9.2906,10.7327 z m 1.8485,0.2021 c -1.42935,0.513678 -0.352319,1.71152 -0.316937,1.97793 1.50572,0.403902 2.34312,-0.264079 2.91274,0.877566 1.4327,0.640238 -0.02812,1.75274 -0.565989,2.04246 0.96869,-0.654146 2.83074,1.77848 2.34259,0.493261 -0.582366,-0.329705 1.56365,0.529654 0.450282,-0.541878 -1.0246,-1.27998 0.08137,-0.573036 0.513312,-0.274298 1.46922,-1.02154 -1.66237,-1.14501 -0.880653,-2.1963 -0.685013,-0.430191 -1.58342,-1.73342 -2.79645,-1.47869 -0.812024,0.814262 -0.112126,-1.77421 -1.30355,-0.478904 -0.06174,0.72407 -0.02249,1.64287 -0.369648,0.388473 -0.232618,-0.219596 0.400187,-0.730115 0.01435,-0.809638 z M 8.2242,10.9439 C 7.264783,11.191908 7.316313,12.19702 8.496033,12.30478 8.900123,11.947649 8.656579,11.01152 8.2242,10.9439 z m -3.7443,0.3214 c -1.24618,0.228934 -0.737517,1.00805 -0.355968,1.22748 -1.54257,0.299598 2.35489,0.382912 0.41521,0.572664 -1.61374,0.49972 1.55396,1.08846 2.07364,0.495954 1.99278,0.377882 0.07173,-1.2369 -0.103174,-2.11224 -0.844778,-0.702985 -0.03328,1.62057 -0.797162,0.07488 -0.266508,0.459003 -1.1139,0.06764 -1.23251,-0.258724 z m 39.6005,0.101 c -1.67222,0.507447 1.03933,2.42239 0.365436,0.680253 -0.06714,-0.21036 0.150948,-0.766167 -0.365436,-0.680253 z M 9.1603,12.1378 c -1.20166,0.875627 1.52743,1.59973 -0.345134,2.25205 -0.280774,-0.813196 -0.763857,0.406857 -1.83515,-0.249861 -1.84166,0.594577 -2.78345,-0.309709 -4.32537,-0.929569 -0.926112,-0.08938 -0.578165,0.6823 -0.639508,1.40484 0,1.99684 0,3.99368 0,5.99052 0.908014,0.740743 0.35427,0.326823 0,0.12252 0.498381,1.31611 -0.219776,3.23999 1.74473,4.00554 0.333957,0.480314 1.73531,2.52658 1.79992,1.91431 -0.702548,-0.57046 -1.42338,-2.28067 -0.234615,-0.756391 1.06478,1.44894 2.50106,2.38871 4.5993,2.73351 1.14717,0.302563 2.09061,1.34264 3.09944,1.11379 0.570453,1.16602 -1.69054,2.28574 0.07586,3.3733 0.922175,1.10099 2.47037,1.82311 1.63217,3.36883 -0.586176,1.50962 -0.335195,3.15452 -0.842172,4.56106 -0.157344,0.856147 1.53897,3.02918 1.392,1.2891 0.495294,-1.20923 0.482233,-2.53979 1.64873,-3.39613 1.5961,0.0098 0.305047,-1.33076 1.88937,-1.15564 0.966773,-0.982552 1.24679,-2.1547 2.87828,-2.54486 0.194884,-1.19267 2.71271,-3.01927 0.111667,-3.48362 -0.706944,-0.270182 -2.52711,-0.367331 -2.38802,-0.500639 0.281819,-1.18344 -2.35373,-1.52035 -3.47508,-2.00454 -1.47229,-0.810317 -3.68459,1.34614 -4.20331,-0.511978 -0.309511,-0.584621 -1.44117,-0.594102 -0.921085,-1.49621 -0.937301,0.722816 -2.7706,0.503134 -2.29063,-0.892762 0.728921,-1.17562 3.52819,-1.23124 4.00518,0.182815 -0.662277,-1.55953 1.28016,-2.77357 2.35847,-3.88308 0.219558,-0.530319 1.52414,-0.985945 1.07522,-0.281125 0.764843,-0.02139 1.9241,-1.09159 0.565403,-0.597638 -0.01928,-0.975983 -1.19061,-0.698434 -1.57038,-0.559851 0.70388,-0.866234 4.3188,-0.392655 2.80504,-1.80856 -1.17296,-0.36852 -1.07539,-2.51901 -2.26181,-1.32096 0.09985,-0.73817 -2.41477,-2.18313 -2.35989,-0.945305 0.306951,1.10763 0.05612,2.38358 -0.597102,3.10961 -0.136319,-1.62304 -3.70631,-1.26433 -3.24731,-2.99386 0.664951,-0.824301 1.44197,-1.9642 1.516,-1.86166 1.19169,-0.352791 2.15002,-1.37899 0.76886,-2.05361 -0.07379,0.587971 -1.03872,1.80108 -0.902861,0.333865 -0.893506,0.821414 -0.689442,-1.30708 -1.52624,-1.52783 z m 28.5214,0.5695 c -2.09311,0.397003 -2.92289,1.94712 -3.95832,3.23103 -1.5263,0.533583 -1.46821,2.82509 0.236975,2.09321 0.456385,0.618047 -0.319267,1.5922 1.01007,0.784076 1.07224,-1.10022 0.187491,-2.87967 2.01217,-3.57342 0.132914,0.539434 -1.68317,2.5537 0.438424,2.22262 1.91796,0.05611 -1.3943,0.148178 -0.461471,1.09812 -0.969188,-0.445876 -0.465583,1.21773 -1.73066,0.830592 -1.09598,0.462247 -1.81465,-0.214623 -1.56359,-0.956114 -0.862169,0.389994 0.271176,1.49021 -1.22549,1.55633 -0.335265,0.923109 -3.09224,0.783973 -1.52438,1.72395 0.696091,1.39882 -2.59367,0.0877 -1.65971,1.76632 0.799045,1.65991 2.47363,-0.55002 3.15303,-0.976979 1.31082,-0.788402 3.2532,1.34431 2.07364,1.42357 1.32266,-0.137599 1.05086,-1.11295 -0.0088,-1.49056 -0.572355,-1.15099 1.81187,0.564474 1.67965,1.14155 0.841211,1.2214 0.4948,-1.25052 1.35082,-0.156134 -0.09995,1.15441 3.44361,0.271435 1.75182,1.74273 -1.45455,0.227164 -2.88626,-0.290755 -4.13852,0.04098 -1.16554,-0.0081 -1.10706,-0.973576 -1.5314,-1.21538 -1.48257,0.09339 -3.31463,0.08284 -4.30716,1.01151 -1.0733,1.14182 -2.62105,2.738 -1.45123,4.19595 1.17064,2.16053 4.07375,0.112066 5.74251,1.38803 0.496008,0.532018 -0.429838,1.16443 0.679222,1.7407 0.41733,1.22756 -0.473774,2.39311 0.551188,3.56658 0.530012,1.10359 0.858933,2.75538 2.83159,1.74695 2.08778,-0.974178 1.53169,-2.77002 3.25439,-3.76471 -1.36309,-2.04546 1.66761,-2.94234 2.42378,-4.60288 -1.65207,0.187534 -3.12387,-1.08961 -3.52303,-2.37508 -0.694017,-0.624383 -0.515261,-1.54504 0.259982,-0.372087 1.06556,0.800597 1.08858,3.17617 3.05971,1.95409 0.901133,-0.292255 3.36212,-1.40709 1.40124,-1.91443 -1.26397,0.709852 -2.65846,-2.12106 -0.802382,-0.47907 1.34934,0.443881 2.29427,0.708353 2.29427,-0.763344 0,-3.96506 0,-7.98385 0,-11.9758 -0.420304,0.333035 -1.50009,0.948116 -2.0451,0.539402 -0.937812,0.101262 -2.17584,1.51612 -1.88113,0.148409 -0.815172,-0.04186 -0.145929,1.22634 -1.26585,1.26181 -0.112768,0.651992 -1.13136,0.120735 -0.748748,0.739885 -0.786053,-0.432341 -1.4513,-1.79739 0.0975,-0.940597 2.30006,-0.535048 -1.51674,-1.74191 -1.81135,-2.03363 0.495236,-0.092 -0.538795,-0.492176 -0.663567,-0.35819 z M 18.699,13.0655 c -0.765543,0.494593 1.45542,0.587735 0,0 z M 8.473,13.3319 c -0.856242,0.694467 1.36362,0.638417 0,0 z m 4.9649,0.6888 c -0.648403,0.823605 0.958062,0.304071 0,0 z m 14.1956,0.9736 c -0.759121,0.677647 -1.76108,-0.178341 -1.77741,0.404113 0.13757,0.17599 0.688635,1.43208 1.8959,0.505139 0.64794,-0.211814 0.392828,-0.745775 -0.118499,-0.909252 z M 11.471,15.3984 c -1.43985,0.975005 2.4453,1.06484 0.305023,0.111823 l -0.305,-0.1118 z m 18.9945,2.7002 c -1.03666,0.524165 0.497321,1.63732 -0.02256,2.16023 -0.649577,0.877558 2.41387,-0.06181 0.77765,-0.761966 -0.116578,-0.601539 -0.958581,-1.33548 -0.755092,-1.39825 z m -0.6992,1.0562 c -1.44435,0.316624 -0.327879,1.95134 0.183685,0.411685 0.02876,-0.08927 0.06776,-0.414669 -0.183685,-0.411685 z m -11.5649,1.1848 c -1.34369,0.710433 -0.208701,1.41956 0.776055,1.09991 C 18.775284,21.010868 18.210512,20.740799 18.2014,20.3396 z m 25.3813,1.194 c 0.67045,0.262358 -1.22861,0.710536 -0.02609,1.17227 0.699798,0.638102 0.435971,2.00787 -0.701486,1.03841 0.211327,-1.0824 -1.54186,-1.89074 0.727588,-2.21068 z m -3.4481,0.0091 c -0.09096,0.695396 1.93492,1.77632 -0.24883,1.42357 -1.15486,0.105046 -2.8846,-0.02737 -1.4297,-1.14317 0.45972,-0.213996 1.6668,0.738315 1.03867,-0.151823 0.222687,-0.01101 0.430085,-0.07619 0.639859,-0.128587 z m -6.6712,1.5062 c -0.842341,0.420785 0.582472,0.743438 0,0 z m -21.1511,3.9218 c -0.142011,0.36735 2.66409,0.739634 0.727716,0.151091 l -0.2886,-0.0788 -0.4391,-0.0723 z m 2.1803,0.5235 c -0.851147,0.66999 1.75362,0.200167 0,0 z m 28.4622,6.1443 c -1.84942,0.037 -1.60355,3.73587 -0.314354,1.5472 0.122254,-0.474939 0.61228,-1.1018 0.314354,-1.5472 z"/>
<g style="font-family:KanjiStrokeOrders;word-spacing:0;line-height:125%;font-weight:500;letter-spacing:0;font-size:13.85730267px" id="text3845">
<path style="font-family:Sans;fill:#fff;text-align:start;font-weight:bold" id="path4147" d="m 14.9264,27.2715 0,4.6146 -2.4359,0 0,-.7511 0,-2.7674 q 0,-0.99464 -0.04736,-1.36678 -0.0406,-0.372145 -0.148858,-0.548067 -0.142092,-0.23682 -0.385677,-0.365379 -0.243586,-0.135325 -0.554834,-0.135325 -0.757821,0 -1.19086,0.588665 -0.433041,0.581898 -0.433041,1.61714 v 3.72821 h -2.42232 v -10.5283 h 2.42232 v 4.05976 q 0.548067,-0.663094 1.1638,-0.974342 0.615729,-0.318014 1.36002,-0.318014 1.31265,0 1.98928,0.805185 0.683392,0.805185 0.683392,2.34113 z "/>
<path style="font-family:Sans;fill:#fff;text-align:start;font-weight:bold" id="path4149" d="m 19.832,22.1562 0,2.1517 2.4967,0 0,1.7322 -2.4967,0 0,3.214 q 0,0.527768 0.209754,0.717223 0.209754,0.182689 0.83225,0.182689 h 1.24499 v 1.73216 h -2.07724 q -1.43445,0 -2.03665,-0.595431 -0.595431,-0.602197 -0.595431,-2.03664 v -3.21397 h -1.20439 v -1.73216 h 1.20439 v -2.15167 h 2.42232 z "/>
<path style="font-family:Sans;fill:#fff;text-align:start;font-weight:bold" id="path4151" d="m 30.8407,25.5664 q 0.460106,-0.703691 1.08937,-1.06907 0.636029,-0.372144 1.39385,-0.372144 1.30589,0 1.98928,0.805185 0.683392,0.805185 0.683392,2.34113 v 4.61459 h -2.43585 v -3.9515 q 0.0068,-0.08796 0.0068,-0.182689 0.0068,-0.09473 0.0068,-0.270651 0,-0.805185 -0.236819,-1.1638 -0.23682,-0.365378 -0.764588,-0.365378 -0.690159,0 -1.06907,0.568366 -0.372145,0.568366 -0.385677,1.6442 v 3.72144 h -2.43585 v -3.9515 q 0,-1.25852 -0.21652,-1.61714 -0.216521,-0.365378 -0.771354,-0.365378 -0.696925,0 -1.07584,0.575132 -0.37891,0.568366 -0.37891,1.63067 v 3.72821 h -2.43585 v -7.57821 h 2.43585 v 1.10967 q 0.446573,-0.642795 1.02171,-0.967576 0.581899,-0.32478 1.27882,-0.32478 0.784887,0 1.38708,0.37891 0.602197,0.378911 0.913445,1.0623 z "/>
<path style="font-family:Sans;fill:#fff;text-align:start;font-weight:bold" id="path4153" d="m 38.27,21.3578 2.4223,0 0,10.5283 -2.4223,0 0,-10.5283 z "/>
</g>
</g>
</g>
</svg>
