<svg width="48" version="1.1" xmlns="http://www.w3.org/2000/svg" height="48">
<path style="opacity:.65;fill:#fff;stroke:none" id="rect4154" d="m 3,1.959 0,9.342 42,0 0,-6.9866 -22,0 0,-2.3555 z"/>
<g id="folderLayer">
<g style="stroke:none" id="g3053" transform="matrix(1,0,0,1.1773318,0,-5.2823341)">
<rect width="18" x="4" y="6.9996953" height="10" id="folderTab"/>
<rect width="40" x="4" y="9" height="30" id="folderBackground"/>
<rect width="35.999992" x="6" y="10.9998" height="27.999756" style="fill:#fff" id="folderPaper"/>
<rect width="43.999996" x="2" y="12.999983" height="28.000008" style="fill:#5e87b2" id="folderFront"/>
</g>
<g style="fill:#fff" id="layer1" transform="matrix(1.1818418,0,0,1.1818418,-1.4095987,-3.5555951)">
<path style="stroke:none" id="path39063" d="m 27.7642,15.3668 c 0,5.78237 -0.898378,9.33414 -5.22617,10.8098 v 6.53726 c 0,1.60126 4.22563,0.622046 4.26244,2.89118 h -10.601 c 0.01801,-2.29164 4.26244,-1.31287 4.26244,-2.89118 v -6.53726 c -4.48795,-1.47571 -5.22617,-5.02748 -5.22617,-10.8098 z "/>
</g>
</g>
</svg>
