<svg width="48" version="1.1" xmlns="http://www.w3.org/2000/svg" height="48">
<g id="g7" transform="translate(0,1)">
<path style="opacity:.65;fill:#fff" id="rect4154" d="M 3,1 V 12 H 45 V 4 H 23 V 1 Z"/>
<path id="folderTab" d="M 4,3 V 16 H 44 V 6 H 22 V 3 Z" transform="translate(0,-1)"/>
<path style="fill:#fff" id="folderPaper" d="m 6,8 h 36 v 33 h -36 Z "/>
<path style="fill:#5e87b2" id="folderFront" d="m 2,11 h 44 v 32 h -44 Z "/>
</g>
<path style="fill:#fff" id="path2993" d="m 23.9702,16.034798 c -0.57822,0 -1.09599,0.329209 -1.38728,0.852488 l -9.9122,18.8553 c -0.233226,0.465136 -0.23775,1.08981 0.04942,1.55495 C 13.007312,37.762672 13.463895,38 14.04212,38 h 19.8914 c 0.578219,0 1.10463,-0.286746 1.33786,-0.751884 0.291048,-0.465136 0.29441,-1.04756 0.06531,-1.57084 l -9.9792,-18.8395 c -0.286928,-0.523278 -0.80906,-0.803068 -1.38728,-0.803068 z m -0.1165,3.8459 c 1.23118,-0.0072 2.37844,1.10745 2.22388,2.02267 -0.377665,2.71304 -0.896782,5.40604 -1.22137,8.12246 h -1.5373 c -0.391312,-2.82865 -0.927589,-5.30485 -1.38728,-8.12246 -0.162768,-0.901693 0.690888,-2.0154 1.92207,-2.02267 z m 0.1006,12.4026 c 0.768647,-0.0031 1.55088,0.424954 1.90442,1.13665 0.631902,1.10157 -0.0026,2.62755 -1.23549,2.94223 -1.27298,0.429588 -2.77441,-0.634127 -2.72514,-1.98914 -0.01553,-0.632875 0.303082,-1.2081 0.785419,-1.60437 0.35783,-0.326814 0.809603,-0.48371 1.27079,-0.485371 z"/>
</svg>
