<svg width="48" version="1.1" xmlns="http://www.w3.org/2000/svg" height="48">
<g id="g7" transform="translate(0,1)">
<path style="opacity:.65;fill:#fff" id="rect4154" d="M 3,1 V 12 H 45 V 4 H 23 V 1 Z"/>
<path id="folderTab" d="M 4,3 V 16 H 44 V 6 H 22 V 3 Z" transform="translate(0,-1)"/>
<path style="fill:#fff" id="folderPaper" d="m 6,8 h 36 v 33 h -36 Z "/>
<path style="fill:#5e87b2" id="folderFront" d="m 2,11 h 44 v 32 h -44 Z "/>
</g>
<g style="fill:#fff" id="text4309" transform="translate(0,1.9448)">
<path style="font-family:'DejaVu Serif';text-align:start;font-style:italic" id="path4314" d="m 22.5574,38.0552 h -2.8576 l 1.2666,-6.4721 q -1.43653,0 -2.67226,-0.556078 -0.926797,-0.417059 -1.88449,-1.57555 -0.895904,-1.08126 -1.18939,-2.65682 -0.169913,-0.926797 0.308932,-3.44459 0.664204,-3.4137 0.417058,-5.08193 -0.247146,-1.73002 -0.942243,-2.30155 l .1854,-.9114 h 1.54466 q 1.56011,1.591 1.97717,2.99664 0.602418,2.00806 -0.04634,5.29819 -0.571524,2.93486 -0.03089,4.58764 0.648758,2.0544 2.64137,2.00806 l 2.904,-14.8905 h 2.85762 l -2.904,14.8905 q 1.94627,0.04634 3.4137,-2.00806 1.15849,-1.65279 1.73002,-4.58764 0.695097,-3.52183 2.02351,-5.29819 1.1585,-1.54466 3.13566,-2.99664 h 1.56011 l -.1854,.9114 q -0.880456,0.556078 -1.83815,2.30155 -0.880457,1.62189 -1.56011,5.08193 -0.478845,2.5178 -1.01948,3.44459 -0.91135,1.57555 -2.20886,2.65682 -1.42109,1.15849 -2.50235,1.57555 -1.45198,0.556078 -2.85762,0.556078 l -1.2666,6.4721 z "/>
</g>
</svg>
