<svg width="48" version="1.1" xmlns="http://www.w3.org/2000/svg" height="48">
<g id="g7" transform="translate(0,1)">
<path style="opacity:.65;fill:#fff" id="rect4154" d="M 3,1 V 12 H 45 V 4 H 23 V 1 Z"/>
<path id="folderTab" d="M 4,3 V 16 H 44 V 6 H 22 V 3 Z" transform="translate(0,-1)"/>
<path style="fill:#fff" id="folderPaper" d="m 6,8 h 36 v 33 h -36 Z "/>
<path style="fill:#5e87b2" id="folderFront" d="m 2,11 h 44 v 32 h -44 Z "/>
</g>
<path style="fill:#fff" id="path829" d="m 25.3105,14.3867 l -.9434,.2695 c -1.31369,0.443704 -5.03856,2.02607 -8.26367,3.47461 -3.36996,1.5136 -3.8457,1.74193 -3.8457,1.92188 0,0.07808 0.776545,0.54278 1.6875,1.04688 2.92477,1.61848 9.25409,4.8557 9.51172,4.85742 0.137197,0.000896 0.515797,-0.089997 0.841797,-0.236328 0.326,-0.146329 2.73616,-1.29688 5.33008,-2.53125 2.59391,-1.23437 5.02825,-2.38878 5.42969,-2.5625 1.06173,-0.459459 1.11784,-0.50788 0.607422,-0.84375 -0.786134,-0.517298 -4.78649,-2.65529 -7.58789,-4.04688 l -2.7676,-1.3496 z  m -.7402,2.4961 c 1.16062,-0.0045 2.10943,0.131925 2.79883,0.371094 1.03955,0.360632 1.47137,0.569353 1.68555,0.876953 0.559463,0.803485 0.945312,1.47937 0.945312,1.61914 0,0.207507 -0.506718,0.405999 -0.876953,0.337891 -0.15911,-0.02927 -0.480045,-0.097416 -0.708985,-0.134766 -0.337092,-0.05499 -0.470187,-0.143525 -0.673828,-0.505859 -0.288409,-0.51315 -1.02094,-1.05419 -1.75391,-1.24805 -1.1196,-0.296122 -4.21355,-0.058254 -5.16016,0.404297 -0.53483,0.261339 -0.800135,0.830136 -0.876953,1.78711 -0.05237,0.652259 -0.073542,0.785848 0.167969,1.04492 0.327045,0.350816 1.27568,0.840373 2.29297,1.18164 0.566807,0.190129 0.857944,0.221429 1.24805,0.167968 0.908362,-0.124505 1.04672,-0.335052 0.505859,-1.01172 -0.466436,-0.583567 -0.558592,-0.926537 -0.404296,-1.21484 0.108212,-0.202213 0.163339,-0.253856 0.673828,-0.201172 0.723384,0.07466 2.23826,0.70729 2.59766,1.04492 0.31634,0.297185 0.410006,0.972804 0.134766,1.24805 -0.313757,0.313757 -1.74963,1.05132 -2.29297,1.21484 -0.633537,0.190666 -1.55877,0.255932 -2.32812,0.066407 -1.62643,-0.400688 -3.46621,-1.35538 -3.94531,-2.02344 -0.379331,-0.528923 -0.708984,-1.38105 -0.708984,-1.85547 0,-0.572074 0.340797,-1.40107 0.810547,-1.88867 0.595288,-0.617916 1.42286,-0.863559 3.57422,-1.11328 0.801845,-0.09307 1.59855,-0.16527 2.29492,-0.167969 z  m -13.2559,4.1484 c -0.143868,0.143765 -0.136094,5.95585 0,10.0176 l .0664,2.9023 .8105,.4707 c 0.691739,0.400275 4.74089,3.08612 8.63477,5.76758 0.648479,0.446565 1.24614,0.807741 1.34766,0.810547 0.161179,0.0046 0.212607,-0.193538 0.271484,-1.78711 0.03709,-1.0036 0.085296,-3.90888 0.134766,-6.41016 0.109844,-5.55327 0.168271,-5.34791 -1.01172,-6.13867 -1.44673,-0.969512 -3.07296,-1.90808 -5.73438,-3.30469 -1.45135,-0.761614 -3.01549,-1.59305 -3.50781,-1.88867 -0.536334,-0.322053 -0.856182,-0.461893 -0.978516,-0.439453 -0.01747,0.0031 -0.023383,-0.0098 -0.033203,0 z  m 25.5,.1016 c -0.145203,0 -2.75507,1.16139 -6.10547,2.73242 -2.06896,0.97015 -4.38583,2.08674 -5.12695,2.42773 -0.741116,0.340993 -1.44075,0.671327 -1.51758,0.742187 -0.230016,0.212112 -0.741241,13.0719 -0.541015,13.5938 0.064949,0.169254 0.169217,0.157196 0.742187,-0.167968 0.355281,-0.201628 2.16088,-1.26851 4.01367,-2.32813 4.90264,-2.80382 6.5493,-3.82182 6.61133,-4.11523 0.0285,-0.13481 0.136433,-0.805016 0.236328,-1.48438 0.09989,-0.679357 0.517733,-3.34415 0.945313,-5.93555 0.715326,-4.33533 0.87984,-5.46484 0.742187,-5.46484 z  m -1.959,3.8125 l -4.2812,5.834 3.9785,1.8887 -1.6191,1.0469 -4.0137,-1.7891 -1.4844,.7422 -.0664,2.834 -1.5527,.709 c -0.03958,-2.97616 -0.294422,-5.92385 0.371094,-9.04102 h 1.45117 l .1016,4.2852 4.8242,-5.9375 2.291,-.5723 z  m -21.0117,.2012 l 6.7461,3.2383 -.1348,2.1582 -2.4629,-.9785 c -0.31213,1.25279 -0.360265,3.74852 -0.539063,5.66797 l -1.9238,-1.0117 .1699,-5.6328 -2.125,-1.1133 .2695,-2.3281 z "/>
</svg>
