<svg width="48" version="1.1" xmlns="http://www.w3.org/2000/svg" height="48">
<path style="opacity:.65;fill:#fff;stroke:none" id="rect4154" d="m 3,1.959 0,9.342 42,0 0,-6.9866 -22,0 0,-2.3555 z"/>
<defs id="defs12"/>
<g id="folderLayer">
<g style="stroke:none" id="g3053" transform="matrix(1,0,0,1.1773318,0,-5.2823341)">
<rect width="18" x="4" y="6.9996953" height="10" id="folderTab"/>
<rect width="40" x="4" y="9" height="30" id="folderBackground"/>
<rect width="35.999992" x="6" y="10.9998" height="27.999756" style="fill:#fff" id="folderPaper"/>
<rect width="43.999996" x="2" y="12.999983" height="28.000008" style="fill:#5e87b2" id="folderFront"/>
</g>
</g>
<g style="fill:#fff;stroke:none">
<path id="path4175" d="m 17.1247,15.5412 c 1.71793,-0.08573 3.43833,0.351381 5.15625,0.90625 0.3644,0.117313 0.65445,0.438355 0.65625,0.6875 0.01998,2.34831 0.04214,4.71442 0.0625,7.0625 0.0012,0.249364 -0.241438,0.326707 -0.5625,0.1875 -3.03519,-1.30864 -6.09011,-2.25955 -9.125,0.21875 -0.321648,0.261128 -0.57989,0.363447 -0.625,0.15625 -0.421013,-1.95696 -0.860249,-3.94906 -1.28125,-5.90625 -0.04505,-0.206274 0.197515,-0.694296 0.5625,-1.03125 1.71792,-1.58855 3.43832,-2.19552 5.15625,-2.28125 z "/>
<path id="path4173" d="m 36.4685,15.5725 c 0.105475,-0.02717 0.14756,0.0091 0.125,0.15625 -0.421013,2.75856 -0.859957,5.52247 -1.28125,8.28125 -0.04479,0.292933 -0.303061,0.76966 -0.625,1.03125 -3.03756,2.48268 -6.08717,1.55725 -9.125,0.25 -0.321953,-0.139207 -0.5636,-0.467764 -0.5625,-0.71875 0.02037,-2.36744 0.01101,-4.72608 0.03125,-7.09375 0.0012,-0.251161 0.321916,-0.367543 0.6875,-0.25 3.43822,1.10835 6.87429,1.80648 10.3125,-1.375 0.182645,-0.168707 0.332031,-0.25408 0.4375,-0.28125 z "/>
<path id="path4171" d="m 17.531,24.7287 c 1.63678,0.02037 3.26847,0.64825 4.90625,1.375 0.317815,0.14059 0.59225,0.469607 0.59375,0.71875 0.02036,2.34808 0.01064,4.6834 0.03125,7.03125 0.0012,0.249364 -0.19426,0.349754 -0.46875,0.1875 -2.59383,-1.52759 -5.18741,-2.80249 -7.78125,-1.09375 -0.27477,0.17954 -0.51739,0.207387 -0.5625,0 l -1.2812,-5.8438 c -0.04505,-0.206275 0.181585,-0.619634 0.5,-0.875 1.12294,-0.902829 2.22079,-1.35555 3.34375,-1.46875 0.233949,-0.02359 0.484925,-0.03425 0.71875,-0.03125 z "/>
<path id="path39063" d="m 34.9372,26.7287 c 0.09003,0.0014 0.11631,0.04058 0.09375,0.1875 l -1.2812,8.2812 c -0.0448,0.292935 -0.287438,0.757269 -0.5625,0.9375 -2.59649,1.71312 -5.18505,0.494955 -7.78125,-1.03125 -0.275369,-0.162485 -0.47025,-0.499474 -0.46875,-0.75 0.01999,-2.36744 0.01127,-4.72631 0.03125,-7.09375 0.0012,-0.250983 0.275044,-0.35957 0.59375,-0.21875 2.99686,1.32754 5.97189,2.28714 8.96875,-0.125 0.159207,-0.127913 0.31622,-0.1889 0.40625,-0.1875 z "/>
</g>
</svg>
