<svg width="48" version="1.1" xmlns="http://www.w3.org/2000/svg" height="48">
<g id="g7" transform="translate(0,1)">
<path style="opacity:.65;fill:#fff" id="rect4154" d="M 3,1 V 12 H 45 V 4 H 23 V 1 Z"/>
<path id="folderTab" d="M 4,3 V 16 H 44 V 6 H 22 V 3 Z" transform="translate(0,-1)"/>
<path style="fill:#fff" id="folderPaper" d="m 6,8 h 36 v 33 h -36 Z "/>
<path style="fill:#5e87b2" id="folderFront" d="m 2,11 h 44 v 32 h -44 Z "/>
</g>
<g style="fill:#fff;fill-rule:evenodd" id="g12" transform="translate(0,1.4871202)">
<g style="stroke-miterlimit:2" id="g9">
<path id="path3159" d="m 11.2638,12.6746 1.5309,-1.3575 14.0454,13.7109 -2.096,1.9291 z"/>
<path id="path3161" d="m 24.7165,26.9298 2.0961,-1.9291 3.5881,3.9474 -1.629,1.9142 z"/>
</g>
<path id="path3163" d="m 30.5828,29.8825 c 4.86479,-4.7355 3.6546,4.48104 10.5383,9.59364 -7.26991,2.4505 -16.3185,-3.96699 -10.5383,-9.59364 z"/>
</g>
</svg>
