<svg width="48" version="1.1" xmlns="http://www.w3.org/2000/svg" height="48">
<g id="g7" transform="translate(0,1)">
<path style="opacity:.65;fill:#fff" id="rect4154" d="M 3,1 V 12 H 45 V 4 H 23 V 1 Z"/>
<path id="folderTab" d="M 4,3 V 16 H 44 V 6 H 22 V 3 Z" transform="translate(0,-1)"/>
<path style="fill:#fff" id="folderPaper" d="m 6,8 h 36 v 33 h -36 Z "/>
<path style="fill:#5e87b2" id="folderFront" d="m 2,11 h 44 v 32 h -44 Z "/>
</g>
<g style="fill:#fff" id="g9" transform="translate(0,1.8602099)">
<path id="path3009" d="m 39.0555,13.2039 c -0.05653,-0.0035 -0.09887,0.01409 -0.164267,0.03285 l -10.8745,1.9384 c 0.09903,1.48671 0.125904,2.99194 0.09856,4.50089 l 10.2174,-1.8398 v 10.5787 c -10e-7,0.216989 -0.423143,0.390552 -0.82133,0.229973 -1.48297,-0.59804 -3.73222,-0.860473 -5.45363,-0.361385 -2.6923,0.780574 -3.79382,3.70932 -2.95679,5.25652 0.837025,1.54719 4.00563,2.02833 6.6692,1.14986 1.81626,-0.59902 3.82557,-1.83405 4.1395,-3.581 l -0.0328,-15.3096 c 0.0014,-0.01294 0,-0.05286 0,-0.06571 v -2.23402 c 0,-0.161819 -0.651775,-0.28527 -0.821331,-0.295679 z m -10.9401,6.472 -5.0594,0.8871 -0.0328,12.4842 c -0.420141,1.42835 -2.32324,2.94913 -4.13951,3.54815 -2.66357,0.878471 -5.83218,0.430187 -6.6692,-1.11701 -0.837024,-1.54719 0.297342,-4.47594 2.98964,-5.25652 1.72141,-0.499087 3.93782,-0.236655 5.42078,0.361385 0.398188,0.160581 0.854186,-0.01298 0.854185,-0.229972 v -11.3344 -0.229973 -2.00405 c 10e-7,-0.215759 0.198391,-0.45082 0.459944,-0.525652 l 2.5296,-0.4599 c 0.182851,1.33624 0.06395,2.68409 -0.03285,3.87668 h 2.46399 c 0.143975,-1.18122 0.152019,-2.3815 0.03286,-4.00809 h -1.67551 l 2.7597,-0.4929 c -0.02271,-0.340885 -0.03424,-0.679248 -0.06571,-1.01845 -6.5156,0.629851 -13.0809,1.41404 -19.7119,0.854185 0.746567,8.12365 -1.68012,15.8048 -0.229973,22.6687 6.63037,0.629849 13.2317,1.2041 19.7447,0.854183 -0.677853,-6.01837 0.246123,-12.498 0.361385,-18.8577 z M 9.422,16.5219 h 2.46399 c 0.04407,1.58904 0.03603,2.01023 -0.03286,3.15391 H 9.35629 C 9.456185,18.4451 9.557273,17.75088 9.421996,16.5219 Z m -0.2956,4.928 h 2.46399 c -0.01174,1.32969 -0.236994,2.60801 -0.361385,3.97524 H 8.797865 C 8.922248,24.09546 9.163941,22.91438 9.126397,21.4499 Z m 14.8825,0 h 2.56255 c -0.01174,1.32969 -0.138436,2.57047 -0.262825,3.97524 h -2.5297 c 0.01175,-1.32968 0.229966,-2.39813 0.229973,-3.97524 z M 8.7322,27.2321 h 2.46399 c 0.02961,1.37917 -0.0568,2.78207 -0.03285,3.97524 H 8.50223 C 8.513973,29.87766 8.663195,28.94572 8.732203,27.2321 Z m 14.9483,0 h 2.56255 c 0.02961,1.30408 -0.0568,2.74453 -0.03285,3.97524 h -2.66111 c 0.01174,-1.32968 -0.01269,-2.29916 0.131413,-3.97524 z m -12.5828,5.7165 c -0.01174,1.32968 0.176014,2.71127 0.164265,4.04095 -0.823475,0 -1.77193,-0.09856 -2.5954,-0.09856 -0.138443,-1.36723 -0.208862,-2.547 -0.197119,-3.87668 0.823474,0 1.80478,-0.06571 2.62826,-0.06571 z m 15.0468,0 c -0.01174,1.32968 0.17602,2.90839 0.164266,4.23807 h -2.49685 c 0.01174,-1.32968 -0.176019,-2.84268 -0.164266,-4.17236 0.823475,0 1.67337,-0.06571 2.49685,-0.06571 z"/>
<path id="path3005" d="m 24.4686,15.7994 .7885,-.1314 h -0.7885 c 0.0065,0.04273 -0.0058,0.0887 0,0.131414 z "/>
</g>
</svg>
