<svg width="48" version="1.1" xmlns="http://www.w3.org/2000/svg" height="48">
<g id="g7" transform="translate(0,1)">
<path style="opacity:.65;fill:#fff" id="rect4154" d="M 3,1 V 12 H 45 V 4 H 23 V 1 Z"/>
<path id="folderTab" d="M 4,3 V 16 H 44 V 6 H 22 V 3 Z" transform="translate(0,-1)"/>
<path style="fill:#fff" id="folderPaper" d="m 6,8 h 36 v 33 h -36 Z "/>
<path style="fill:#5e87b2" id="folderFront" d="m 2,11 h 44 v 32 h -44 Z "/>
</g>
<g style="fill:#fff;fill-rule:evenodd" id="g4206" transform="matrix(1.0972125,0,0,1.0972125,-2.3331,1.2891345)">
<path id="path3012" d="m 29.4688,15.4531 2.5,6.5625 -3.6875,5.125 3.1562,1 2.1562,-3.125 .9688,3.6875 4.3125,.3438 -2.3125,-6.6562 3.875,-4.7812 -3.9688,-.875 -1.625,2.5 -1.1562,-3.0625 -4.2188,-.7188 z "/>
<path id="path3010" d="m 11.2813,17.4219 -.0938,.125 -3.625,1.7188 4.7812,11.0312 7.6562,-3.7812 -1.5625,-3.2188 -3.7188,1.875 -3.4375,-7.75 z "/>
<path id="path3001" d="m 17.6875,18.4844 3.625,7.9062 -.7812,5.4375 4.5,.7188 1.0938,-6.0625 4.4375,-6.3125 -3.7188,-.5312 -2.4062,3.3125 -1.9688,-3.8125 -4.7812,-.6562 z "/>
</g>
</svg>
