<svg width="48" version="1.1" xmlns="http://www.w3.org/2000/svg" height="48">
<g id="g7" transform="translate(0,1)">
<path style="opacity:.65;fill:#fff" id="rect4154" d="M 3,1 V 12 H 45 V 4 H 23 V 1 Z"/>
<path id="folderTab" d="M 4,3 V 16 H 44 V 6 H 22 V 3 Z" transform="translate(0,-1)"/>
<path style="fill:#fff" id="folderPaper" d="m 6,8 h 36 v 33 h -36 Z "/>
<path style="fill:#5e87b2" id="folderFront" d="m 2,11 h 44 v 32 h -44 Z "/>
</g>
<path style="fill:#fff" id="path13148" d="M 31.4113,12.18423 8.2111,35.38443 c 0,0 0.322674,2.90105 2.90046,5.47883 2.57777,2.57778 5.47712,2.89874 5.47712,2.89874 l 23.2002,-23.1985 c 0,0 -0.32096,-2.90105 -2.89874,-5.47883 -2.57762,-2.57762 -5.47883,-2.90046 -5.47883,-2.90046 z m 1.5504,1.5436 c 0.236866,-0.0032 0.464511,0.08973 0.632175,0.256981 0.34369,0.342919 0.34369,0.899158 0,1.24207 -0.342633,0.340528 -0.896017,0.340528 -1.23865,0 -0.343692,-0.342916 -0.343692,-0.899155 0,-1.24207 0.161144,-0.160754 0.378814,-0.25312 0.606473,-0.256981 z m -2.1741,1.9565 c 0.236863,-0.0032 0.466223,0.08802 0.633885,0.255267 0.343693,0.342919 0.343693,0.900869 0,1.24379 -0.34263,0.340528 -0.896015,0.340528 -1.23865,0 -0.343692,-0.342918 -0.343692,-0.900868 0,-1.24379 0.161145,-0.160755 0.377102,-0.251407 0.604762,-0.255267 z m 4.5092,0.2707 c 0.236864,-0.0032 0.464513,0.08974 0.632171,0.256983 0.343694,0.342917 0.343694,0.899155 0,1.24207 -0.342628,0.34053 -0.896013,0.34053 -1.23865,0 -0.343691,-0.342916 -0.343691,-0.899154 0,-1.24207 0.161147,-0.160756 0.378816,-0.253123 0.606475,-0.256983 z m -6.6267,1.6841 c 0.236865,-0.0032 0.464513,0.08974 0.632173,0.256981 0.343692,0.342917 0.343692,0.899157 0,1.24207 -0.342631,0.340527 -0.896014,0.340527 -1.23865,0 -0.343691,-0.342916 -0.343691,-0.899156 0,-1.24207 0.161146,-0.160758 0.378815,-0.253122 0.606473,-0.256981 z m 4.4543,0.2724 c 0.236863,-0.0032 0.46451,0.08802 0.632171,0.255268 0.343693,0.342917 0.343693,0.899156 0,1.24207 -0.34263,0.340529 -0.896014,0.340529 -1.23864,0 -0.343693,-0.342918 -0.343693,-0.899157 0,-1.24207 0.161145,-0.160755 0.378813,-0.251407 0.606474,-0.255268 z m 4.4526,0.5431 c 0.236864,-0.0032 0.466224,0.08802 0.633887,0.255267 0.34369,0.342918 0.34369,0.899156 0,1.24207 -0.342632,0.340528 -0.896017,0.340528 -1.23865,0 -0.343693,-0.342917 -0.343693,-0.899155 0,-1.24207 0.161145,-0.160755 0.377101,-0.251408 0.60476,-0.255267 z m -11.8382,0.7915 c 0.960932,-0.127983 7.81066,6.28964 7.24343,6.85282 l -10.6476,10.5705 c -0.585697,0.58152 -7.90108,-6.23875 -7.31539,-6.82027 l 10.6459,-10.5705 c 0.01828,-0.01818 0.04267,-0.02842 0.07367,-0.03256 z m 5.2664,0.6202 c 0.236864,-0.0032 0.466223,0.08974 0.633887,0.25698 0.343691,0.342917 0.343691,0.899155 0,1.24207 -0.342632,0.340529 -0.897731,0.340529 -1.24036,0 -0.34369,-0.342917 -0.34369,-0.899155 0,-1.24207 0.161144,-0.160755 0.378816,-0.253123 0.606475,-0.25698 z m 4.3995,0.5431 c 0.236864,-0.0032 0.46451,0.08973 0.632173,0.256979 0.343691,0.342919 0.343691,0.899158 0,1.24207 -0.342631,0.340529 -0.896015,0.340529 -1.23865,0 -0.343691,-0.342917 -0.343691,-0.899156 0,-1.24207 0.161145,-0.160753 0.378815,-0.253121 0.606475,-0.256979 z m -9.5014,0.3581 c -0.06966,-0.01196 -0.121172,-0.0045 -0.152476,0.02571 l -9.1074,8.8127 c -0.501006,0.484741 5.26907,5.734 5.77007,5.24926 l 9.1074,-8.811 c 0.469558,-0.454312 -4.57285,-5.0974 -5.6176,-5.27668 z m -0.2292,1.1406 c 0.236864,-0.0032 0.46451,0.08974 0.632172,0.25698 0.343691,0.34292 0.343691,0.899157 0,1.24207 -0.34263,0.340529 -0.896014,0.340529 -1.23865,0 -0.34369,-0.342917 -0.34369,-0.899154 0,-1.24207 0.161146,-0.160755 0.378814,-0.25312 0.606476,-0.25698 z m 7.6131,0.4561 c 0.236864,-0.0032 0.464511,0.08974 0.632172,0.25698 0.343692,0.342919 0.343692,0.899158 0,1.24207 -0.342629,0.340527 -0.896016,0.340527 -1.23864,0 -0.343693,-0.342916 -0.343693,-0.899155 0,-1.24207 0.161144,-0.160755 0.378814,-0.253122 0.606473,-0.25698 z m -5.9564,1.2494 c 0.236864,-0.0032 0.466224,0.08974 0.633885,0.256978 0.343693,0.342919 0.343693,0.899158 0,1.24208 -0.342629,0.340527 -0.897729,0.340527 -1.24036,0 -0.34369,-0.342919 -0.34369,-0.899158 0,-1.24208 0.161146,-0.160752 0.378816,-0.253119 0.606476,-0.256978 z m -3.7677,0.4133 c 0.236864,-0.0032 0.46451,0.08973 0.632173,0.256981 0.343691,0.342918 0.343691,0.899157 0,1.24207 -0.342633,0.340528 -0.896018,0.340528 -1.23865,0 -0.343691,-0.342917 -0.343691,-0.899156 0,-1.24207 0.161146,-0.160756 0.378815,-0.25312 0.606477,-0.256981 z m 5.5555,1.1705 c 0.236863,-0.0032 0.464512,0.08974 0.632172,0.256982 0.343693,0.342917 0.343693,0.899155 0,1.24207 -0.342632,0.340527 -0.896016,0.340527 -1.23865,0 -0.343693,-0.342918 -0.343693,-0.899156 0,-1.24207 0.161144,-0.160757 0.378816,-0.253122 0.606475,-0.256982 z m -3.8971,0.5349 c 0.236864,-0.0032 0.466225,0.08974 0.633885,0.25698 0.343692,0.34292 0.343693,0.899157 0,1.24207 -0.342628,0.340526 -0.897727,0.340526 -1.24036,0 -0.343693,-0.342918 -0.343693,-0.899155 0,-1.24207 0.161145,-0.160755 0.378814,-0.253118 0.606474,-0.25698 z m -4.0757,0.5474 c 0.236863,-0.0032 0.464511,0.08973 0.632173,0.25698 0.34369,0.342918 0.34369,0.899157 0,1.24207 -0.342632,0.34053 -0.896016,0.34053 -1.23865,0 -0.343691,-0.342918 -0.343691,-0.899157 0,-1.24207 0.161145,-0.160755 0.378816,-0.25312 0.606475,-0.25698 z m 5.8617,1.0348 c 0.236865,-0.0032 0.464512,0.08974 0.632173,0.25698 0.343692,0.342915 0.343692,0.899155 0,1.24207 -0.34263,0.340529 -0.896016,0.340529 -1.23865,0 -0.343693,-0.342916 -0.343693,-0.899156 0,-1.24207 0.161143,-0.160757 0.378814,-0.253123 0.606473,-0.25698 z m -4.2033,0.6707 c 0.236864,-0.0032 0.466223,0.08974 0.633885,0.25698 0.343693,0.342917 0.343693,0.899155 0,1.24207 -0.342631,0.340526 -0.897728,0.340526 -1.24036,0 -0.343693,-0.34292 -0.343693,-0.899158 0,-1.24207 0.161144,-0.160755 0.378815,-0.253122 0.606474,-0.25698 z m -3.8127,0.5546 c 0.236864,-0.0032 0.464508,0.08974 0.632171,0.25698 0.343693,0.34292 0.343693,0.899157 0,1.24207 -0.34263,0.340528 -0.896014,0.340528 -1.23865,0 -0.343692,-0.342918 -0.343693,-0.899156 0,-1.24207 0.161144,-0.160753 0.378815,-0.25312 0.606475,-0.25698 z m 5.6004,1.0292 c 0.236864,-0.0032 0.464512,0.08974 0.632172,0.25698 0.343692,0.34292 0.343692,0.899158 0,1.24207 -0.34263,0.34053 -0.896017,0.34053 -1.23865,0 -0.343693,-0.342917 -0.343693,-0.899155 0,-1.24207 0.161144,-0.160756 0.378815,-0.253119 0.606474,-0.25698 z m -3.9421,0.6763 c 0.236864,-0.0032 0.466227,0.08973 0.633887,0.256981 0.343692,0.342919 0.343692,0.899155 0,1.24207 -0.342631,0.340529 -0.897729,0.340529 -1.24036,0 -0.343694,-0.342919 -0.343694,-0.899155 0,-1.24207 0.161145,-0.160756 0.378814,-0.25312 0.606473,-0.256981 z m -5.7195,1.6785 c 0.236864,-0.0032 0.464513,0.08973 0.632173,0.256981 0.343692,0.342919 0.343692,0.899156 0,1.24207 -0.34263,0.34053 -0.896016,0.34053 -1.23865,0 -0.343691,-0.342915 -0.343691,-0.899152 0,-1.24207 0.161145,-0.160756 0.378816,-0.253121 0.606475,-0.256981 z m 7.5073,-0.0947 c 0.236863,-0.0032 0.464509,0.08973 0.632171,0.256981 0.343692,0.342918 0.343692,0.899155 0,1.24207 -0.34263,0.340528 -0.896016,0.340528 -1.23864,0 -0.343694,-0.342917 -0.343694,-0.899154 0,-1.24207 0.161143,-0.160756 0.378813,-0.253122 0.606474,-0.256981 z m -9.6813,2.0512 c 0.236862,-0.0032 0.466224,0.08803 0.633886,0.255266 0.343693,0.342919 0.343693,0.900872 0,1.24379 -0.342632,0.340529 -0.896018,0.340529 -1.23865,0 -0.343692,-0.342916 -0.343692,-0.900869 0,-1.24379 0.161145,-0.160755 0.377102,-0.251406 0.604761,-0.255266 z m 4.5092,0.2707 c 0.236863,-0.0032 0.464509,0.08974 0.632171,0.25698 0.343692,0.342918 0.343692,0.899159 0,1.24208 -0.342628,0.340528 -0.896013,0.340528 -1.23865,0 -0.34369,-0.342917 -0.34369,-0.899158 0,-1.24208 0.161147,-0.160755 0.378817,-0.25312 0.606478,-0.25698 z m -6.6267,1.6841 c 0.236862,-0.0032 0.464509,0.08974 0.632171,0.25698 0.343693,0.342918 0.343693,0.899158 0,1.24207 -0.342632,0.340529 -0.896014,0.340529 -1.23864,0 -0.343693,-0.342917 -0.343693,-0.899157 0,-1.24207 0.161143,-0.160753 0.378811,-0.253121 0.606474,-0.25698 z m 4.4543,0.2724 c 0.236864,-0.0032 0.464512,0.08802 0.632174,0.255268 0.343691,0.342919 0.343691,0.899155 0,1.24207 -0.342631,0.340527 -0.896016,0.340527 -1.23865,0 -0.343692,-0.342918 -0.343692,-0.899154 0,-1.24207 0.161146,-0.160757 0.378815,-0.251409 0.606473,-0.255268 z m 4.4526,0.5431 c 0.236864,-0.0032 0.466224,0.08804 0.633886,0.255268 0.343691,0.342918 0.343691,0.899156 0,1.24207 -0.342632,0.340529 -0.896017,0.340529 -1.23865,0 -0.343691,-0.342917 -0.343691,-0.899155 0,-1.24207 0.161144,-0.160756 0.3771,-0.251408 0.604761,-0.255268 z m -6.5719,1.4117 c 0.236861,-0.0032 0.466222,0.08974 0.633885,0.256981 0.34369,0.342917 0.34369,0.899155 0,1.24207 -0.342632,0.340527 -0.897732,0.340527 -1.24036,0 -0.343693,-0.342919 -0.343693,-0.899158 0,-1.24207 0.161145,-0.160756 0.378814,-0.253122 0.606476,-0.256981 z m 4.3995,0.5431 c 0.236863,-0.0032 0.464511,0.08973 0.632172,0.256981 0.343693,0.34292 0.343693,0.899156 0,1.24207 -0.342632,0.340528 -0.896016,0.340528 -1.23865,0 -0.343692,-0.342918 -0.343692,-0.899154 0,-1.24207 0.161144,-0.160755 0.378814,-0.253121 0.606474,-0.256981 z m -2.1175,1.9548 c 0.236863,-0.0032 0.464509,0.08973 0.632173,0.25698 0.343692,0.342919 0.343692,0.899157 0,1.24207 -0.342633,0.340532 -0.896017,0.340532 -1.23865,0 -0.343691,-0.342916 -0.343691,-0.899154 0,-1.24207 0.161145,-0.160754 0.378815,-0.25312 0.606475,-0.25698 z"/>
</svg>
