<svg width="48" version="1.1" xmlns="http://www.w3.org/2000/svg" height="48">
<g id="g7" transform="translate(0,1)">
<path style="opacity:.65;fill:#fff" id="rect4154" d="M 3,1 V 12 H 45 V 4 H 23 V 1 Z"/>
<path id="folderTab" d="M 4,3 V 16 H 44 V 6 H 22 V 3 Z" transform="translate(0,-1)"/>
<path style="fill:#fff" id="folderPaper" d="m 6,8 h 36 v 33 h -36 Z "/>
<path style="fill:#5e87b2" id="folderFront" d="m 2,11 h 44 v 32 h -44 Z "/>
</g>
<rect width="30" x="9.380971" y="11.101083" height="30" style="fill:none" id="rect3265"/>
<path style="fill:#fff" id="path39063" d="m 31.649,16.68755 c 0.216586,0.0279 0.406463,0.181944 0.46875,0.40625 l 0.875,3.1562 c 0.08305,0.299075 -0.107175,0.604451 -0.40625,0.6875 l -15.25,4.25 H 33.149 c 0.322645,0 0.5625,0.209871 0.5625,0.5 V 37.5 c 0,0.290129 -0.239855,0.5 -0.5625,0.5 H 14.8678 c -0.322645,0 -0.59375,-0.209871 -0.59375,-0.5 V 25.6875 c 0,-0.07253 0.03311,-0.124803 0.0625,-0.1875 -0.0084,-0.02052 -0.02516,-0.04059 -0.03125,-0.0625 l -0.875,-3.1562 c -0.08305,-0.299075 0.07592,-0.604451 0.375,-0.6875 l 17.625,-4.875 c 0.07477,-0.02076 0.146555,-0.04055 0.21875,-0.03125 z"/>
</svg>
