<svg width="48" version="1.1" xmlns="http://www.w3.org/2000/svg" height="48">
<g id="g7" transform="translate(0,1)">
<path style="opacity:.65;fill:#fff" id="rect4154" d="M 3,1 V 12 H 45 V 4 H 23 V 1 Z"/>
<path id="folderTab" d="M 4,3 V 16 H 44 V 6 H 22 V 3 Z" transform="translate(0,-1)"/>
<path style="fill:#fff" id="folderPaper" d="m 6,8 h 36 v 33 h -36 Z "/>
<path style="fill:#5e87b2" id="folderFront" d="m 2,11 h 44 v 32 h -44 Z "/>
</g>
<g style="fill:#fff;color:#000" id="g10" transform="translate(0,1.40529)">
<path style="fill-rule:evenodd" id="path862" d="m 10.4277,12.5215 c -0.70593,0 -1.27734,0.601389 -1.27734,1.34766 v 21.0703 c 0,0.74627 0.571411,1.34766 1.27734,1.34766 h 27.1445 c 0.705929,0 1.27734,-0.601388 1.27734,-1.34766 v -21.0703 c 0,-0.74627 -0.571412,-1.34766 -1.27734,-1.34766 z m 0.7109,1.6875 c 0.136973,-0.02467 0.310221,-0.01821 0.529297,0.01172 0.03846,0.0053 0.870478,-3.9e-5 0.910156,0 l 23.6328,0.0215 c 1.11011,0.0011 1.14258,0.03247 1.14258,1.14258 v 17.9336 c 0,1.11011 0.02693,1.14258 -1.14258,1.14258 h -24.4219 c -1.1695,0 -1.14258,-0.03247 -1.14258,-1.14258 V 15.3848 c 0,-0.758266 0.08127,-1.10177 0.492188,-1.17578 z"/>
<path id="path858" d="m 18.638,18.5744 c -0.958181,0 -1.78352,0.425915 -1.78352,0.425915 0,0 1.37764,0.71886 1.91662,1.67704 0.538977,0.958182 0.718732,4.79155 0.718732,4.79155 h 12.458 c 0,0 0.186178,-4.55878 -1.01155,-5.69662 -1.13635,-1.07953 -2.76845,-0.825211 -2.76845,-0.825211 l -.0532,.4792 c 0,0 -0.599087,-0.419269 -1.67704,-0.479155 -1.07796,-0.05988 -1.86338,0.05324 -1.86338,0.05324 l .3727,.3727 c 0,0 -1.51752,-0.612253 -2.95479,-0.612253 -1.43727,0 -1.73028,0.05324 -1.73028,0.05324 l .5324,.3194 c 0,0 -1.19802,-0.559014 -2.1562,-0.559014 z "/>
<path id="path4900" d="m 19.197,26.3474 v 4.20591 c 0,0.908546 0.713363,1.65042 1.59718,1.65042 h 3.03465 c -0.223016,2.29799 -0.669688,4.01901 -0.559014,6.01605 0.06932,1.25094 1.12236,2.87493 2.79507,2.87493 1.49806,0 2.58411,-1.4881 2.68859,-2.98141 0.116513,-1.66536 -0.608802,-3.60722 -0.931689,-5.90957 h 2.82169 c 0.883825,0 1.59718,-0.741877 1.59718,-1.65042 V 26.3474 Z"/>
</g>
</svg>
