<svg width="48" version="1.1" xmlns="http://www.w3.org/2000/svg" height="48">
<g style="stroke:none">
<g id="g4">
<path style="opacity:.65;fill:#fff" id="rect4154" d="m 3,1.959 0,9.342 h 42 v -6.98655 h -22 v -2.35547 z "/>
<rect width="18" x="4" y="2.9586298" height="11.773318" id="folderTab"/>
<rect width="40" x="4" y="5.313652" height="35.319954" id="folderBackground"/>
<rect width="35.999992" x="6" y="7.6680799" height="32.965004" style="fill:#fff" id="folderPaper"/>
<rect width="43.999996" x="2" y="10.022959" height="32.965298" style="fill:#5e87b2" id="folderFront"/>
</g>
<path style="fill:#fff;fill-rule:evenodd;stroke-linecap:square;stroke-width:.682" id="path4143" d="m 23.9991,14 a 12.5006,12.4997 0 0,0 -12.4991,12.5 12.5006,12.4997 0 0,0 12.4991,12.5 12.5006,12.4997 0 0,0 12.5009,-12.5 12.5006,12.4997 0 0,0 -12.5009,-12.5 Z  m 5.1646,6.4797 c 0.210982,0.02174 0.411185,0.09124 0.550352,0.213137 0.278331,0.243901 0.284278,0.700701 0.169474,1.029 l -3.5607,10.1834 c -0.101357,0.289878 -0.220583,0.549034 -0.683137,0.614954 -0.462554,0.06592 -0.979956,-0.240428 -1.21078,-0.773933 0,0 -1.51531,-3.57502 -1.8083,-3.84696 -0.292987,-0.271996 -4.05165,-1.95143 -4.05165,-1.95143 -0.485899,-0.316288 -0.584525,-0.909784 -0.490951,-1.22292 0.09357,-0.313137 0.439542,-0.597042 0.768747,-0.714536 l 9.6984,-3.4609 c 0.184769,-0.06592 0.407509,-0.09162 0.618493,-0.06989 z "/>
</g>
</svg>
