<svg width="48" version="1.1" xmlns="http://www.w3.org/2000/svg" height="48">
<g id="g7" transform="translate(0,1)">
<path style="opacity:.65;fill:#fff" id="rect4154" d="M 3,1 V 12 H 45 V 4 H 23 V 1 Z"/>
<path id="folderTab" d="M 4,3 V 16 H 44 V 6 H 22 V 3 Z" transform="translate(0,-1)"/>
<path style="fill:#fff" id="folderPaper" d="m 6,8 h 36 v 33 h -36 Z "/>
<path style="fill:#5e87b2" id="folderFront" d="m 2,11 h 44 v 32 h -44 Z "/>
</g>
<g style="fill:#fff" id="layer1" transform="translate(-1.1630275,1.0510879)">
<path id="path3049" d="m 24.7812,14.125 c -0.417505,5.75e-4 -0.851659,0.139578 -1.1875,0.375 -0.680923,0.475456 -0.728864,1.22089 -0.125,1.71875 1.27994,1.01044 2.55671,2.05218 3.84375,3.0625 l -11.8125,-0.0312 c -1.34389,0 -2.146,0.66011 -2.3125,1.59375 -0.146926,0.823867 0.489274,1.84375 1.65625,1.84375 1.99195,0.0027 4.00096,0.0039 6,0 l -10.6875,7.9375 c -0.01383,0.01053 -0.04867,-0.01054 -0.0625,0 -1.00886,0.773709 -1.32298,2.06041 -0.6875,2.875 0.646673,0.828417 2.00922,0.856317 3.03125,0.03125 l 5.8438,-4.7812 c 0,0 -0.0684,0.643375 -0.0625,1.03125 0.0066,0.388531 0.127464,1.12618 0.3125,1.71875 0.391821,1.2492 1.07544,2.41757 2,3.4375 0.948273,1.04639 2.08949,1.87146 3.4375,2.46875 1.41845,0.627633 2.96889,0.97125 4.5625,0.96875 1.59361,-0.0033 3.11347,-0.336564 4.53125,-0.96875 1.34748,-0.603186 2.52114,-1.45091 3.46875,-2.5 0.922483,-1.02397 1.57697,-2.18762 1.96875,-3.4375 0.198254,-0.6322 0.32358,-1.26222 0.375,-1.90625 0.04939,-0.632843 0.0277,-1.27275 -0.0625,-1.90625 -0.175158,-1.23671 -0.592193,-2.41049 -1.25,-3.46875 -0.603356,-0.971322 -1.38985,-1.81545 -2.3125,-2.53125 l -9.3125,-7.1562 c -0.0079,-0.0066 -0.02265,0.0059 -0.03125,0 -0.306213,-0.234435 -0.707495,-0.375575 -1.125,-0.375 z m 3.8438,8.1875 c 3.53488,0 6.40625,2.55596 6.40625,5.71875 0,3.16279 -2.87137,5.71875 -6.40625,5.71875 -3.53488,0 -6.40625,-2.55596 -6.40625,-5.71875 0,-3.16279 2.87137,-5.71875 6.40625,-5.71875 z m 0,2 c -0.971971,0 -1.86862,0.342885 -2.53125,0.90625 -0.673339,0.573089 -1.10607,1.39544 -1.15625,2.3125 -0.05198,0.943195 0.306832,1.81969 0.96875,2.46875 0.674051,0.661209 1.64403,1.0625 2.71875,1.0625 1.0741,0 2.04467,-0.401291 2.71875,-1.0625 0.661237,-0.649058 1.02075,-1.52495 0.96875,-2.46875 -0.05076,-0.917059 -0.482168,-1.73941 -1.15625,-2.3125 C 30.493775,24.655385 29.59635,24.3125 28.625,24.3125 Z"/>
</g>
</svg>
