<svg width="48" version="1.1" xmlns="http://www.w3.org/2000/svg" height="48">
<path style="opacity:.65;fill:#fff;stroke:none" id="rect4154" d="m 3,1.959 0,9.342 42,0 0,-6.9866 -22,0 0,-2.3555 z"/>
<g id="folderLayer">
<g style="stroke:none" id="g3053" transform="matrix(1,0,0,1.1773318,0,-5.2823341)">
<rect width="18" x="4" y="6.9996953" height="10" id="folderTab"/>
<rect width="40" x="4" y="9" height="30" id="folderBackground"/>
<rect width="35.999992" x="6" y="10.9998" height="27.999756" style="fill:#fff" id="folderPaper"/>
<rect width="43.999996" x="2" y="12.999983" height="28.000008" style="fill:#5e87b2" id="folderFront"/>
</g>
<g style="fill:#fff" id="layer1" transform="matrix(1.162552,0,0,1.162552,-4.2826813,-4.4123121)">
<path style="stroke:none" id="path3026" d="m 20.5938,15.375 v 4.21875 h 5 C 25.50795,19.419803 25.43982,19.247693 25.37505,19.0625 25.053686,18.087313 25.12073,16.74417 26.5938,16.53125 26.66674,16.52072 26.71503,16.5055 26.7813,16.5 c 0.06627,-0.0055 0.15379,-0.0087 0.21875,0 0.909495,0.121959 1.43774,1.11044 1.75,1.9375 0.143194,0.379268 0.243501,0.764852 0.34375,1.15625 h 0.09375 v 0.375 c 0.08952,0.397957 0.15906,0.813708 0.21875,1.21875 -0.07655,-0.0082 -0.14145,-0.02805 -0.21875,-0.03125 V 26.75 c 0.303522,-0.0078 0.60247,-0.09011 0.875,-0.1875 0.223561,0.470342 0.690366,1.07417 1.375,1.5625 0.291862,0.208179 0.782308,0.49125 1.3125,0.5625 0.189138,0.481347 0.169084,0.999251 -0.3125,1.46875 -0.465229,0.453556 -1.15504,0.487612 -1.75,0.21875 -0.699508,-0.353479 -1.16587,-1.00344 -1.5,-1.71875 V 29.875 c 0.09412,0.149064 0.172958,0.299803 0.28125,0.4375 -0.0609,0.230123 -0.139434,0.411617 -0.28125,0.53125 v 1.4375 h 8.15625 v -16.9062 h -16.75 z m 9.6562,0.9688 c 0.624061,-0.05505 0.996248,0.283319 1.3125,0.75 0.500619,0.738742 0.3547,1.78919 0.15625,2.625 -0.167806,0.756099 -0.466966,1.47062 -0.75,2.1875 C 30.612494,21.583061 30.174156,21.352921 29.6875,21.25005 29.74733,20.296003 29.773036,19.2297 29.40625,18.2813 29.33731,18.094454 29.09306,17.782222 29,17.5938 c 0.04184,-0.10882 0.02012,-0.322909 0.15625,-0.53125 0.284157,-0.434895 0.58771,-0.6741 1.09375,-0.71875 z m 3.2812,2.0312 c 0.370047,0.0081 0.764264,0.131193 1.03125,0.40625 0.40766,0.31934 0.42123,0.775738 0.34375,1.3125 -0.124635,0.863428 -1.26018,2.003 -2.15625,2.71875 -0.294664,0.234024 -0.609691,0.484107 -0.90625,0.71875 -0.08489,-0.545844 -0.303367,-1.04528 -0.65625,-1.4375 0.606499,-0.466053 1.04178,-1.18115 1.125,-2 0.03405,-0.335028 -0.06348,-0.778861 -0.0625,-1.125 0.149787,-0.208754 0.311901,-0.295949 0.53125,-0.40625 0.204033,-0.1026 0.527971,-0.1924 0.75,-0.1875 z m -22.2188,2.1875 v 16.9062 h 16.75 V 20.5625 h -16.75 z m 9.625,1 c 0.624061,-0.05505 1.0275,0.252069 1.34375,0.71875 0.500619,0.738742 0.3547,1.78919 0.15625,2.625 -0.167806,0.756099 -0.466966,1.47062 -0.75,2.1875 -0.356256,-0.323239 -0.794594,-0.553379 -1.28125,-0.65625 0.05983,-0.954047 0.08554,-1.9891 -0.28125,-2.9375 -0.06894,-0.186846 -0.31319,-0.530328 -0.40625,-0.71875 0.04184,-0.10882 -0.01113,-0.291659 0.125,-0.5 0.284157,-0.434895 0.58771,-0.6741 1.09375,-0.71875 z m 14.0625,0.0312 c 0.535451,0.0169 0.796841,0.18581 1.03125,0.8125 0.188328,0.503491 -0.05309,1.09269 -0.375,1.5 -0.787294,0.929775 -1.94372,1.60765 -3.15625,1.6875 -0.350554,0.04329 -0.676979,-0.0511 -1,-0.1875 0.262792,-0.425254 0.40625,-0.900528 0.40625,-1.4375 0,-0.07481 -0.02545,-0.14544 -0.03125,-0.21875 0.388337,0.07312 0.879832,-0.0536 1.40625,-0.53125 0.481733,-0.437106 1.0729,-1.05854 1.46875,-1.59375 0.07393,-0.01128 0.17351,-0.03365 0.25,-0.03125 z m -17.5,0.0938 c 0.06627,-0.0055 0.15379,-0.0087 0.21875,0 0.909495,0.121959 1.43774,1.11044 1.75,1.9375 0.333294,0.882772 0.518549,1.81556 0.65625,2.75 -0.09808,-0.01051 -0.180382,-0.03125 -0.28125,-0.03125 -0.595349,0 -1.17286,0.211652 -1.625,0.53125 -0.968646,-0.621561 -1.74002,-1.52417 -2.125,-2.625 -0.321364,-0.975187 -0.25432,-2.31833 1.21875,-2.53125 0.07294,-0.01053 0.12123,-0.02575 0.1875,-0.03125 z m 6.75,1.875 c 0.370047,0.0081 0.764264,0.131193 1.03125,0.40625 0.40766,0.31934 0.42123,0.806988 0.34375,1.34375 -0.124635,0.863428 -1.26018,2.003 -2.15625,2.71875 -0.294664,0.234024 -0.609691,0.452857 -0.90625,0.6875 -0.08489,-0.545844 -0.303367,-1.04528 -0.65625,-1.4375 0.606499,-0.466053 1.04178,-1.18115 1.125,-2 0.03405,-0.335028 -0.06348,-0.778861 -0.0625,-1.125 0.149787,-0.208754 0.280651,-0.295949 0.5,-0.40625 0.204033,-0.1026 0.559221,-0.1924 0.78125,-0.1875 z m -9.75,1.4688 c 0.08705,-0.01255 0.17064,-0.0012 0.25,0 0.431604,0.0066 0.825322,0.153229 1.21875,0.34375 0.404833,0.780571 1.31876,1.31447 2.09375,1.625 -0.503896,0.423291 -0.894381,1.03793 -1,1.71875 -0.707435,-0.03606 -1.36334,-0.184088 -2,-0.5 -0.737242,-0.389576 -1.29565,-0.764539 -1.53125,-1.59375 -0.120826,-0.425262 -0.08537,-0.919871 0.1875,-1.21875 0.212677,-0.232952 0.520115,-0.33736 0.78125,-0.375 z m 20.2812,0.375 c 0.06181,0.03424 0.12722,0.08701 0.1875,0.125 0.870615,0.502099 1.06783,1.59814 0.1875,2.3125 -1.0494,0.851557 -2.55708,0.258136 -3.59375,-0.34375 -0.497406,-0.272765 -0.913686,-0.633126 -1.34375,-1 0.473639,-0.204923 0.893902,-0.519657 1.1875,-0.9375 0.176806,0.344879 0.937528,0.59764 1.34375,0.5625 0.723522,-0.06258 1.41899,-0.322632 2.03125,-0.71875 z m -9.3125,1.4062 c 0.07393,-0.01128 0.17351,-0.0024 0.25,0 0.535451,0.0169 0.796841,0.15456 1.03125,0.78125 0.188328,0.503491 -0.05309,1.09269 -0.375,1.5 -0.787294,0.929775 -1.94372,1.60765 -3.15625,1.6875 -0.350554,0.04329 -0.676979,-0.01985 -1,-0.15625 0.262792,-0.425254 0.40625,-0.931778 0.40625,-1.46875 0,-0.07481 -0.02545,-0.14544 -0.03125,-0.21875 0.388337,0.07312 0.879832,-0.0536 1.40625,-0.53125 0.481733,-0.437106 1.0729,-1.05854 1.46875,-1.59375 z m -11.625,1.3438 c 0.215281,0.194965 0.654966,0.438849 1.09375,0.59375 0.666097,0.23515 1.50202,0.366132 2.125,0.21875 -0.0035,0.05794 0,0.0974 0,0.15625 0,0.321209 0.05615,0.650897 0.15625,0.9375 -0.655956,-0.147516 -1.58308,-0.086 -2.15625,0.09375 -0.573177,0.179763 -1.34153,0.630579 -1.65625,1.03125 -0.672376,-0.220865 -1.03353,-0.74794 -1.09375,-1.03125 -0.106465,-0.500892 0.119102,-1.06405 0.59375,-1.46875 0.252865,-0.215602 0.526891,-0.4345 0.9375,-0.53125 z m 3.4375,2.0625 c 0.289731,0.696929 0.82781,1.25668 1.53125,1.53125 -0.877944,1.4951 -2.88946,3.11246 -4.25,2.53125 -1.84405,-0.787754 -1.23678,-2.89893 0.71875,-3.59375 0.660812,-0.234793 1.31761,-0.40786 2,-0.46875 z m 8.2188,0.375 c 0.06181,0.03424 0.09597,0.08701 0.15625,0.125 0.870615,0.502099 1.09908,1.59814 0.21875,2.3125 -1.0494,0.851557 -2.55708,0.258136 -3.59375,-0.34375 -0.497406,-0.272765 -0.913686,-0.601876 -1.34375,-0.96875 0.473639,-0.204923 0.893902,-0.550907 1.1875,-0.96875 0.176806,0.344879 0.937528,0.59764 1.34375,0.5625 0.723522,-0.06258 1.41899,-0.322632 2.03125,-0.71875 z m -4.75,1.1875 c 0.223561,0.470342 0.721616,1.07417 1.40625,1.5625 0.291862,0.208179 0.782308,0.46 1.3125,0.53125 0.189138,0.481347 0.169084,0.999251 -0.3125,1.46875 -0.465229,0.453556 -1.15504,0.487612 -1.75,0.21875 -0.932677,-0.471306 -1.50473,-1.45185 -1.8125,-2.4375 -0.12392,-0.383985 -0.15772,-0.799541 -0.1875,-1.21875 0.147736,0.02435 0.282886,0.03125 0.4375,0.03125 0.327346,0 0.614617,-0.05203 0.90625,-0.15625 z m -1.6562,0.0312 c 0.0214,0.0063 0.07181,0.02355 0.09375,0.03125 0.03305,0.466696 -0.06329,1.1292 0.03125,1.5625 0.181116,0.830226 0.499485,1.52831 0.96875,2.125 -0.112672,0.425728 -0.328717,0.605033 -0.78125,0.71875 -0.611418,0.153642 -1.29217,0.0029 -1.71875,-0.5 -0.332544,-0.39199 -0.56743,-0.92185 -0.5,-1.4375 1.07565,-0.453575 1.61534,-1.54011 1.90625,-2.5 z"/>
</g>
</g>
</svg>
