<svg width="48" version="1.1" xmlns="http://www.w3.org/2000/svg" height="48" xmlns:xlink="http://www.w3.org/1999/xlink">
<path style="opacity:.65;fill:#fff;stroke:none" id="rect4154" d="m 3,1.959 0,9.342 42,0 0,-6.9866 -22,0 0,-2.3555 z"/>
<defs id="defs867">
</defs>
<g id="folderLayer">
<g style="stroke:none">
<g id="g3053" transform="matrix(1,0,0,1.1773318,0,-5.2823341)">
<rect width="18" x="4" y="6.9996953" height="10" id="folderTab"/>
<rect width="40" x="4" y="9" height="30" id="folderBackground"/>
<rect width="35.999992" x="6" y="10.9998" height="27.999756" style="fill:#fff" id="folderPaper"/>
<rect width="43.999996" x="2" y="12.999983" height="28.000008" style="fill:#5e87b2" id="folderFront"/>
</g>
<rect width="35.999992" x="6" y="7.6680799" height="32.965004" style="fill:#fff" id="rect3849"/>
<rect width="43.999996" x="2" y="10.022959" height="32.965298" style="fill:#5e87b2" id="rect3851"/>
</g>
<g style="stroke:#fff;stroke-width:.573" id="g3979" transform="matrix(0.31391454,0,0,0.35112469,8.5828551,9.7954132)">
<g style="fill:#fff" id="g3968" transform="translate(78.737439,2.9792544)">
<g style="stroke-width:.614">
<path id="path3186" d="m -56.3988,57.8317 c 0,0 -5.27622,1.36053 -7.11142,-2.26755 -1.83521,-3.62808 0.458802,-4.76186 0.458802,-4.76186 l 2.9822,-2.0408 c 0,0 2.06461,-10.204 9.86423,-7.25616 l 1.147,2.9478 -.9176,3.1746 -2.294,5.2154 -1.147,2.9478 c 0,0 -2.29401,2.26755 -2.98221,2.0408 z "/>
<path id="path3188" d="m -47.4522,40.8251 -1.8352,-.907 -.9176,-2.0408 0,-1.814 2.294,-2.0408 2.7528,-1.3605 2.0646,.2268 c 0,0 -4.58801,6.80265 -4.35861,7.93643 z "/>
</g>
<path id="path3190" d="m -49.5833,61.7386 -1.7024,-2.3408 -.8512,-1.064 .6384,-2.3408 4.6817,-11.0658 .8512,-3.6177 c 0,0 6.17131,-10.0018 9.15057,-11.7042 2.97925,-1.70243 4.89449,-8.08655 4.89449,-8.08655 0,0 0.212804,-1.48963 1.06402,-1.70243 0.851215,-0.212804 5.3201,-1.48963 5.3201,-1.48963 h 12.1298 c 0,0 1.27682,-2.12804 4.25608,4.46888 l 1.4896,2.3408 c 0,0 0.425608,0.638412 -0.425607,2.12804 -0.851216,1.48963 -1.70243,4.25608 -1.70243,4.25608 l -1.7024,3.4049 -2.3408,4.8945 .6384,3.1921 1.064,2.5536 2.9793,3.4049 1.4896,.6384 2.3408,.4256 .4256,-2.7664 -.2128,-.4256 .6384,-1.4896 c 0,0 1.48963,-0.851216 2.34084,-0.851216 0.851215,0 2.34084,2.55365 1.06402,3.40486 -1.27682,0.851216 -1.48963,0.425608 -1.48963,0.425608 l -.6384,1.9152 h 4.04327 2.55365 l -.2128,-.6384 1.7024,-.4256 c 0,0 3.83047,1.70243 0.212804,3.40486 l -2.9793,-.4256 -4.6817,-.2128 c 0,0 -0.851216,3.83047 -4.04327,3.61767 -3.19206,-0.212804 -6.38412,0 -6.80972,-1.27682 l -3.4049,-1.2768 -.8512,-.4256 c 0,0 -1.48963,1.70243 -2.12804,0.638412 -0.638412,-1.06402 -0.212804,-2.34084 -0.212804,-2.34084 l 1.7024,-.4256 1.2768,.6384 2.3408,.8512 -2.3408,-3.4049 -1.7024,-2.7665 c 0,0 -4.04327,8.29935 -7.66094,10.853 0,0 -11.7042,-2.55365 -23.1956,5.10729 z "/>
</g>
<path style="fill:#fff;stroke-width:.614" id="path3977" d="m 28.9912,66.7066 9.4054,7.2562 7.7996,2.4943 5.735,-1.3605 3.2116,1.1338 5.2762,1.1338 0,.2268 1.6058,-.2268 c 0,0 0,-2.72106 -0.917603,-2.72106 -0.917602,0 -1.83521,0.90702 -1.83521,0.90702 l -1.3764,-.6803 -.6882,-1.1338 .6882,-.6803 8.9466,-1.1338 1.8352,-.907 1.6058,-1.814 -.4588,-1.3605 -1.147,-.4535 -1.6058,.4535 -1.147,.6803 -.2294,.6803 h -2.06461 l -1.147,-.2268 -.2294,-2.0408 -.2294,-1.1338 -8.7172,-3.8548 c 0,0 -13.0758,-2.94782 -24.3165,4.76186 z "/>
</g>
</g>
</svg>
