<svg width="48" version="1.1" xmlns="http://www.w3.org/2000/svg" height="48">
<path style="opacity:.65;fill:#fff;stroke:none" id="rect4154" d="m 3,1.959 0,9.342 42,0 0,-6.9866 -22,0 0,-2.3555 z"/>
<g id="folderLayer">
<g style="stroke:none">
<g id="g3053" transform="matrix(1,0,0,1.1773318,0,-5.2823341)">
<rect width="18" x="4" y="6.9996953" height="10" id="folderTab"/>
<rect width="40" x="4" y="9" height="30" id="folderBackground"/>
<rect width="35.999992" x="6" y="10.9998" height="27.999756" style="fill:#fff" id="folderPaper"/>
<rect width="43.999996" x="2" y="12.999983" height="28.000008" style="fill:#5e87b2" id="folderFront"/>
</g>
<rect width="35.999992" x="6" y="7.6680799" height="32.965004" style="fill:#fff" id="rect3849"/>
<rect width="43.999996" x="2" y="10.022959" height="32.965298" style="fill:#5e87b2" id="rect3851"/>
<rect width="30" x="9.380971" y="11.101083" height="30" style="fill:none" id="rect3265"/>
</g>
<path style="fill:#fff" id="PATH_1" d="m 25.9287,11.547 c -0.466076,0.03884 -0.931855,0.06154 -1.38961,0.119793 l .2156,.024 c 0.335685,-0.122067 0.816099,-0.06052 1.17398,-0.143752 z  m -2.0365,.2156 c -0.757372,0.04716 -1.81003,0.429754 -1.48544,0.07187 -1.23454,0.552075 -3.44018,1.33762 -4.67195,2.49171 l -.024,-.2635 c -0.565947,0.676918 -2.45892,2.01957 -2.6115,2.89901 l -.1677,.0479 c -0.294071,0.496591 -0.485725,1.04686 -0.718762,1.55732 -0.287135,0.493122 -0.457878,0.399173 -0.503133,0.35938 -0.754596,1.53416 -1.1369,2.8271 -1.46148,3.88131 0.233037,0.346782 0.007,2.08689 0.09583,3.47402 -0.380073,6.8524 4.82335,13.5091 10.4939,15.0461 0.832276,0.296845 2.06319,0.280947 3.11463,0.311464 -1.24286,-0.355105 -1.40193,-0.201241 -2.6115,-0.622927 -0.871115,-0.410589 -1.05845,-0.878135 -1.67711,-1.41356 l .2396,.4313 c -1.20957,-0.430006 -0.692248,-0.527834 -1.67711,-0.838551 l .2635,-.3354 c -0.39117,-0.03051 -1.04434,-0.653938 -1.22189,-1.00627 l -.4313,.024 c -0.516007,-0.63807 -0.786095,-1.1036 -0.766676,-1.46148 l -.1438,.2396 c -0.158132,-0.269106 -1.9079,-2.38378 -1.00627,-1.89274 -0.166454,-0.152584 -0.378793,-0.256471 -0.622927,-0.694803 l .1917,-.1917 c -0.435558,-0.557619 -0.818381,-1.29477 -0.790638,-1.53336 0.233037,0.31349 0.392919,0.378547 0.551051,0.431257 -1.09583,-2.72154 -1.15907,-0.157546 -1.98857,-2.77921 h 0.19167 c -0.135938,-0.202522 -0.227227,-0.430495 -0.335423,-0.646886 l .0719,-.7667 c -0.787886,-0.912729 -0.209579,-3.88202 -0.09583,-5.51051 0.08045,-0.663046 0.660997,-1.36082 1.1021,-2.46775 l -.2635,-.0479 c 0.513237,-0.896083 2.92823,-3.61273 4.04903,-3.47402 0.543752,-0.682466 -0.110208,0.0042 -0.215629,-0.167711 1.19293,-1.23454 1.56461,-0.880161 2.37191,-1.1021 0.868341,-0.516009 -0.748786,0.205049 -0.335421,-0.191669 1.50087,-0.382847 1.08136,-0.859988 3.04276,-1.05418 0.08366,0.04862 -0.0027,0.07984 -0.119794,0.119794 1.38051,-0.373072 3.63607,-0.160198 5.17509,0.55105 2.04185,0.954343 4.34359,3.76876 4.43237,6.42094 l .0958,.024 c -0.05271,1.05421 0.156121,2.28134 -0.215628,3.40214 l .2635,-.5271 c 0.03051,0.807306 -0.24059,1.19918 -0.479175,1.89274 l -.4313,.2156 c -0.352329,0.682466 0.03683,0.411821 -0.215628,0.958349 -0.549302,0.488267 -1.67861,1.53487 -2.03649,1.62919 -0.263553,-0.0055 0.184102,-0.311964 0.239587,-0.431258 -0.735176,0.504914 -0.598681,0.770202 -1.72503,1.07814 l -.024,-.0719 c -2.7798,1.30945 -6.63859,-1.27853 -6.58865,-4.81571 -0.03051,0.224714 -0.07994,0.171997 -0.143752,0.263546 -0.141487,-1.81991 0.832705,-3.66213 2.49171,-4.40841 1.62294,-0.801758 3.5335,-0.459031 4.69591,0.622926 -0.638077,-0.835049 -1.91968,-1.73638 -3.4261,-1.65315 -1.47313,0.02219 -2.84578,0.970423 -3.3063,1.98857 -0.754597,0.477171 -0.846616,1.83473 -1.17398,2.08441 -0.44388,3.2542 0.836474,4.64769 2.99484,6.30115 0.154211,0.104061 0.171946,0.184743 0.167711,0.239587 2.54676,0.951568 5.20049,0.736972 7.40325,-1.03023 0.560399,-0.435557 1.16414,-1.18684 1.34169,-1.19794 -0.266329,0.402266 0.03482,0.19872 -0.167712,0.55105 0.557626,-0.901631 -0.246167,-0.367165 0.57501,-1.55732 l .3115,.4073 c -0.113744,-0.749048 0.922793,-1.64252 0.814597,-2.82713 0.24136,-0.360652 0.279184,0.389619 0.02396,1.22189 0.352329,-0.923825 0.07893,-1.08468 0.16771,-1.84482 0.0971,0.25523 0.247657,0.545494 0.311464,0.814597 -0.227488,-0.890536 0.218904,-1.51771 0.335423,-2.03649 -0.113745,-0.04994 -0.351814,0.40733 -0.407299,-0.646887 0.0084,-0.457749 0.144507,-0.245636 0.191669,-0.35938 -0.09155,-0.04994 -0.337687,-0.406775 -0.479174,-1.07814 0.102644,-0.160906 0.265812,0.40629 0.407299,0.431257 -0.09155,-0.535429 -0.234039,-0.931099 -0.239587,-1.34169 -0.413364,-0.865566 -0.143491,0.102158 -0.479175,-0.383339 -0.438331,-1.37326 0.351812,-0.310184 0.407298,-0.934391 0.665819,0.968213 1.04712,2.46924 1.2219,3.09068 -0.133163,-0.754596 -0.335414,-1.49677 -0.598967,-2.2042 0.202519,0.086 -0.32737,-1.56668 0.263546,-0.479174 -0.629756,-2.3165 -2.69972,-4.47117 -4.60008,-5.48655 0.233037,0.213618 0.51272,0.485477 0.407299,0.527092 -0.946019,-0.563173 -0.774494,-0.626703 -0.910433,-0.862514 -0.768467,-0.31349 -0.807267,0.02496 -1.31773,0 -1.45094,-0.768467 -1.7323,-0.6673 -3.06672,-1.15002 l .0479,.2875 c -0.962664,-0.321814 -1.11594,0.119293 -2.15629,0 -0.06104,-0.04994 0.343483,-0.192425 0.670845,-0.239588 -0.929374,0.122067 -0.88695,-0.171246 -1.7969,0.04791 0.224715,-0.158131 0.456218,-0.274134 0.694804,-0.407298 z  m 1.1021,.3594 .1677,-.024 .024,-.024 -.1917,.0479 z  m .1917,-.0479 c 0.291296,-0.06381 0.336709,-0.118785 -0.551051,-0.143753 0.266328,0.04716 0.59544,0.08272 0.551051,0.143753 z  m -1.5334,2.6355 c -0.167148,0.04994 -0.393173,0.115378 -0.479174,0.191669 0.136399,-0.06684 0.311272,-0.1426 0.479174,-0.191669 z  m -10.7335,3.3542 c 0.01448,0.35117 -0.124201,0.598737 -0.167711,0.670844 0.03879,-0.02921 0.117581,-0.09703 0.287505,-0.215629 0.317999,-0.716103 -0.03131,-0.356941 -0.119794,-0.455215 z  m -.5511,2.2042 c -0.432783,0.552076 -0.219158,0.679661 -0.263546,1.05419 0.155358,-0.479946 0.202513,-0.776759 0.263546,-1.05419 z  m 17.7534,3.3303 c -0.06173,0.0013 -0.128872,0.164806 -0.167712,0.335422 0.09155,0.04994 0.150811,0.624198 0.239588,0.263546 0.03052,-0.448041 -0.01012,-0.600355 -0.07187,-0.598968 z  m 5.4626,1.5334 -.0719,.1677 c -0.0995,0.698516 -0.285891,1.39667 -0.551051,2.06045 0.303129,-0.720568 0.523053,-1.46039 0.622927,-2.22816 z  m -5.7741,.3354 c -0.06659,0.330136 -0.262028,0.608039 -0.431257,0.910432 -0.932149,0.585367 -0.08878,-0.363659 0,-0.718763 -1.00151,1.26228 -0.131647,0.773732 -0.167712,1.12606 0.296846,-0.410589 0.52129,-0.85443 0.598969,-1.31773 z  m -2.0365,1.9167 c -0.405041,0.09988 -0.832491,0.11072 -1.24585,0.07187 -0.499366,0.0055 0.09354,0.259507 0.742721,0.35938 0.180325,-0.141486 0.358871,-0.292545 0.503133,-0.431256 z  m -6.3011,.0719 c 0.108196,0.402266 0.340206,0.746997 0.55105,1.1021 l -.1677,-.4552 c -0.172004,-0.191424 -0.269595,-0.419396 -0.38334,-0.646885 z  m -.3833,.6708 -.0719,.3594 c 0.327361,0.44388 0.587354,0.923031 1.00627,1.26981 -0.302394,-0.585367 -0.521027,-0.835758 -0.93439,-1.62919 z  m .6229,.5271 c 1.16519,2.08901 4.74554,3.65461 6.61261,2.87505 -0.865567,0.03052 -1.97594,0.02245 -2.94692,-0.335423 -0.356839,-0.184487 -0.817644,-0.553327 -0.862515,-0.694802 -0.01828,0.04915 -0.04283,0.09343 -0.02396,0.16771 -0.715756,-0.335684 -1.37572,-0.840049 -1.9167,-1.46148 0.288522,0.418912 0.582816,0.83098 0.982308,1.15002 -0.676916,-0.230263 -1.58127,-1.64281 -1.84482,-1.70107 z "/>
</g>
</svg>
