<svg width="48" version="1.1" xmlns="http://www.w3.org/2000/svg" height="48">
<g id="g7" transform="translate(0,1)">
<path style="opacity:.65;fill:#fff" id="rect4154" d="M 3,1 V 12 H 45 V 4 H 23 V 1 Z"/>
<path id="folderTab" d="M 4,3 V 16 H 44 V 6 H 22 V 3 Z" transform="translate(0,-1)"/>
<path style="fill:#fff" id="folderPaper" d="m 6,8 h 36 v 33 h -36 Z "/>
<path style="fill:#5e87b2" id="folderFront" d="m 2,11 h 44 v 32 h -44 Z "/>
</g>
<path style="fill:#fff" id="path2999" d="m 22.71875,16.03125 v 6.25 h -9.5 c -0.441118,0 -0.8125,0.288807 -0.8125,0.65625 0,0.367442 0.371382,0.65625 0.8125,0.65625 h 9.5 V 26.375 h -9.5 c -0.441118,0 -0.8125,0.288808 -0.8125,0.65625 0,0.367444 0.371382,0.65625 0.8125,0.65625 h 9.5 v 2.75 h -9.5 c -0.441118,0 -0.8125,0.320057 -0.8125,0.6875 0,0.367442 0.371382,0.65625 0.8125,0.65625 h 9.5 v 2.4375 C 22.130347,33.618546 21.17924,33.312499 19.90625,33.3125 16.97775,33.3125 15,35.30447 15,37.5 c 0,1.67903 1.33925,2.5 3.4375,2.5 3.16672,0 5.48606,-2.06861 5.5,-4.1875 v -4.03125 h 5.09375 C 28.627147,32.190786 28.157354,32.598543 27.625,33 c -0.08537,0.261525 0.07174,0.3838 0.3125,0.375 0.739412,-0.526879 1.34555,-1.03881 1.875,-1.59375 h 4.96875 c 0.441117,0 0.8125,-0.288808 0.8125,-0.65625 0,-0.367443 -0.371383,-0.6875 -0.8125,-0.6875 h -3.9375 c 0.598128,-0.911448 0.951553,-1.82302 1.0625,-2.75 h 2.875 c 0.441117,0 0.8125,-0.288806 0.8125,-0.65625 0,-0.367442 -0.371383,-0.65625 -0.8125,-0.65625 h -2.875 c -0.109422,-0.941559 -0.440592,-1.89136 -1,-2.78125 h 3.875 c 0.441117,0 0.8125,-0.288808 0.8125,-0.65625 0,-0.367443 -0.371383,-0.65625 -0.8125,-0.65625 H 29.875 C 29.221439,21.566905 28.43165,20.87951 27.5,20.25 25.74741,19.06579 24.47352,17.49464 23.9375,16.03125 Z m 1.2188,5.0312 c 0.91856,0.399401 1.73706,0.804299 2.5,1.21875 h -2.5 z m 0,2.5312 h 4.5625 c 0.828203,0.639625 1.50609,1.3548 2,2.15625 0.124825,0.20255 0.2298,0.407637 0.3125,0.625 h -6.875 z m 0,4.0938 h 7.125 c -0.0044,0.873071 -0.308338,1.79968 -0.9375,2.75 h -6.1875 z"/>
</svg>
