<svg width="48" version="1.1" xmlns="http://www.w3.org/2000/svg" height="48">
<path style="opacity:.65;fill:#fff;stroke:none" id="rect4154" d="m 3,1.959 0,9.342 42,0 0,-6.9866 -22,0 0,-2.3555 z"/>
<g id="folderLayer">
<g style="stroke:none">
<g id="g3053" transform="matrix(1,0,0,1.1773318,0,-5.2823341)">
<rect width="18" x="4" y="6.9996953" height="10" id="folderTab"/>
<rect width="40" x="4" y="9" height="30" id="folderBackground"/>
<rect width="35.999992" x="6" y="10.9998" height="27.999756" style="fill:#fff" id="folderPaper"/>
<rect width="43.999996" x="2" y="12.999983" height="28.000008" style="fill:#5e87b2" id="folderFront"/>
</g>
<rect width="35.999992" x="6" y="7.6680799" height="32.965004" style="fill:#fff" id="rect3849"/>
<rect width="43.999996" x="2" y="10.022959" height="32.965298" style="fill:#5e87b2" id="rect3851"/>
<rect width="30" x="9.380971" y="11.101083" height="30" style="fill:none" id="rect3265"/>
</g>
<g style="fill:#fff" id="layer1" transform="matrix(1.0976104,0,0,1.0976104,-2.1337468,-2.6606505)">
<path style="stroke:none" id="path2997" d="m 23.8438,13.9375 c -1.01341,0.0047 -1.96095,0.09932 -2.8125,0.25 -2.50857,0.443182 -2.96875,1.35182 -2.96875,3.0625 v 2.25 h 5.9375 v 0.78125 h -5.9375 -2.21875 c -1.72286,0 -3.24689,1.03006 -3.71875,3 -0.544291,2.25801 -0.568434,3.67352 0,6.03125 0.421387,1.755 1.43339,3 3.15625,3 h 2.03125 v -2.71875 c 0,-1.95665 1.70838,-3.6875 3.71875,-3.6875 h 5.90625 c 1.64824,0 2.96875,-1.34471 2.96875,-3 V 17.25 c 0,-1.60654 -1.36002,-2.79438 -2.96875,-3.0625 -1.01835,-0.16952 -2.08034,-0.2547 -3.09375,-0.25 z M 20.6563,15.75 c 0.612327,0 1.09375,0.500113 1.09375,1.125 0,0.622671 -0.481423,1.125 -1.09375,1.125 -0.614522,0 -1.125,-0.502329 -1.125,-1.125 -1e-6,-0.624887 0.510478,-1.125 1.125,-1.125 z m 10,4.5312 v 2.625 c 0,2.04085 -1.74569,3.75 -3.71875,3.75 H 21.0313 c -1.6219,0 -2.96875,1.37574 -2.96875,3 v 5.65625 c 0,1.60654 1.40172,2.57034 2.96875,3.03125 1.87649,0.551762 3.66105,0.651479 5.90625,0 1.49241,-0.432101 2.96875,-1.32057 2.96875,-3.03125 v -2.25 h -5.90625 v -0.75 h 5.90625 2.96875 c 1.72286,0 2.36959,-1.19625 2.96875,-3 0.618912,-1.85693 0.592578,-3.64915 0,-6.03125 -0.425776,-1.71512 -1.2437,-3 -2.96875,-3 H 30.6563 z m -3.3438,14.2812 c 0.614523,0 1.125,0.502329 1.125,1.125 0,0.624885 -0.510478,1.125 -1.125,1.125 -0.612328,0 -1.125,-0.500115 -1.125,-1.125 0,-0.622671 0.512672,-1.125 1.125,-1.125 z"/>
</g>
</g>
</svg>
