<svg width="48" version="1.1" xmlns="http://www.w3.org/2000/svg" height="48">
<g id="g7" transform="translate(0,1)">
<path style="opacity:.65;fill:#fff" id="rect4154" d="M 3,1 V 12 H 45 V 4 H 23 V 1 Z"/>
<path id="folderTab" d="M 4,3 V 16 H 44 V 6 H 22 V 3 Z" transform="translate(0,-1)"/>
<path style="fill:#fff" id="folderPaper" d="m 6,8 h 36 v 33 h -36 Z "/>
<path style="fill:#5e87b2" id="folderFront" d="m 2,11 h 44 v 32 h -44 Z "/>
</g>
<path style="fill:#fff;fill-rule:evenodd" id="folderGlyph" d="m 14.1489,18.5 v 5 h 9.0156 v 10 h -3.5 V 35 h -5.5156 v 2 h 5.5156 v 1.5 h 9 V 37 h 5.4844 v -2 h -5.4844 v -1.5 h -3.5 v -10 h 8.9844 v -5 z m 18,1 c 0.523635,-3.1e-5 1,0.476385 1,1 0,0.523615 -0.476365,1.00003 -1,1 -0.523635,-3.1e-5 -1,-0.476444 -1,-1 0,-0.523556 0.476365,-0.999969 1,-1 z M 24.1645,35 c 0.523635,-3.1e-5 1,0.476385 1,1 0,0.523615 -0.476365,1.00003 -1,1 -0.523635,-3.1e-5 -1,-0.476444 -1,-1 0,-0.523556 0.476365,-0.999969 1,-1 z"/>
</svg>
