<svg width="48" version="1.1" xmlns="http://www.w3.org/2000/svg" height="48">
<path style="opacity:.65;fill:#fff;stroke:none" id="rect4154" d="m 3,1.959 0,9.342 42,0 0,-6.9866 -22,0 0,-2.3555 z"/>
<g id="folderLayer">
<g style="stroke:none" id="g3053" transform="matrix(1,0,0,1.1773318,0,-5.2823341)">
<rect width="18" x="4" y="6.9996953" height="10" id="folderTab"/>
<rect width="40" x="4" y="9" height="30" id="folderBackground"/>
<rect width="35.999992" x="6" y="10.9998" height="27.999756" style="fill:#fff" id="folderPaper"/>
<rect width="43.999996" x="2" y="12.999983" height="28.000008" style="fill:#5e87b2" id="folderFront"/>
</g>
<path style="fill:#fff;fill-rule:evenodd;stroke:none" id="folderGlyph" d="m 14.1489,17.009 0,5 9.0156,0 0,10 -3.5,0 0,1.5 -5.5156,0 0,2 5.5156,0 0,1.5 9,0 0,-1.5 5.4844,0 0,-2 -5.4844,0 0,-1.5 -3.5,0 0,-10 8.9844,0 0,-5 z  m 18,1 c 0.523635,-3.1e-05 1,0.476385 1,1 0,0.523615 -0.476365,1.00003 -1,1 -0.523635,-3.1e-05 -1,-0.476444 -1,-1 0,-0.523556 0.476365,-0.999969 1,-1 z  m -7.9844,15.5 c 0.523635,-3.1e-05 1,0.476385 1,1 0,0.523615 -0.476365,1.00003 -1,1 -0.523635,-3.1e-05 -1,-0.476444 -1,-1 0,-0.523556 0.476365,-0.999969 1,-1 z "/>
</g>
</svg>
