<svg width="48" version="1.1" xmlns="http://www.w3.org/2000/svg" height="48">
<g id="g7" transform="translate(0,1)">
<path style="opacity:.65;fill:#fff" id="rect4154" d="M 3,1 V 12 H 45 V 4 H 23 V 1 Z"/>
<path id="folderTab" d="M 4,3 V 16 H 44 V 6 H 22 V 3 Z" transform="translate(0,-1)"/>
<path style="fill:#fff" id="folderPaper" d="m 6,8 h 36 v 33 h -36 Z "/>
<path style="fill:#5e87b2" id="folderFront" d="m 2,11 h 44 v 32 h -44 Z "/>
</g>
<g style="fill:#fff" id="g11" transform="translate(0,1.20328)">
<path id="rect5696" d="m 13.6424,19.7192 c -1.52696,0 -1.93467,0.455901 -1.93467,1.93467 v 15.2676 c 0,0.758764 0.616484,1.37525 1.37525,1.37525 h 19.7663 c 0.758764,0 1.35194,-0.616483 1.35194,-1.37525 v -15.2209 c 0,-1.81001 -0.262746,-1.98129 -1.91136,-1.98129 z m 2.0464,3.3798 h 14.5773 c 0.156216,0 0.279711,0.123495 0.279711,0.279711 v 2.29678 c 0,0.156217 -0.123495,0.303021 -0.279711,0.303021 H 15.6888 c -0.156216,0 -0.279711,-0.146804 -0.279711,-0.303021 v -2.29678 c 0,-0.156216 0.123495,-0.279711 0.279711,-0.279711 z m -1.8133,5.7139 h 18.1812 c 0.266083,0 0.489495,0.223412 0.489495,0.489495 v 6.82652 c 0,0.266083 -0.223412,0.466186 -0.489495,0.466186 H 13.8755 c -0.266082,0 -0.466185,-0.200103 -0.466185,-0.466186 v -6.82652 c 0,-0.266083 0.200103,-0.489495 0.466185,-0.489495 z"/>
<rect width="1.6885724" x="34.603653" y="24.222994" rx="0.40902433" height="6.191433" ry="0.40902439" id="rect5746"/>
<path id="path3188" d="m 33.677,14.4121 c 0.09137,0.826609 -0.504668,1.57077 -1.33128,1.66214 -0.826608,0.09136 -1.57077,-0.504667 -1.66214,-1.33128 -0.09136,-0.826609 0.504669,-1.57077 1.33128,-1.66214 0.826608,-0.09136 1.57077,0.504667 1.66214,1.33128 z"/>
<path id="path3046" d="m 24.0373,-25.3051 .0023,18.4221 -1.2794,.1921 .0019,-18.6861 z " transform="matrix(0.29798473,0.95457064,-0.95773198,0.28766205,0,0)"/>
</g>
</svg>
