<svg width="48" version="1.1" xmlns="http://www.w3.org/2000/svg" height="48">
<path style="opacity:.65;fill:#fff;stroke:none" id="rect4154" d="m 3,1.959 0,9.342 42,0 0,-6.9866 -22,0 0,-2.3555 z"/>
<g id="folderLayer">
<g style="stroke:none" id="g3053" transform="matrix(1,0,0,1.1773318,0,-5.2823341)">
<rect width="18" x="4" y="6.9996953" height="10" id="folderTab"/>
<rect width="40" x="4" y="9" height="30" id="folderBackground"/>
<rect width="35.999992" x="6" y="10.9998" height="27.999756" style="fill:#fff" id="folderPaper"/>
<rect width="43.999996" x="2" y="12.999983" height="28.000008" style="fill:#5e87b2" id="folderFront"/>
</g>
<path style="fill:#fff;fill-rule:evenodd;stroke:none" id="path3272" d="m 24.0687,16.9951 c -2.62764,0.000156 -5.23791,1.08121 -7.09455,2.93713 -1.85665,1.85592 -2.93766,4.46384 -2.93766,7.08827 0,2.62443 1.08101,5.23235 2.93766,7.08827 1.85665,1.85592 4.46692,2.93697 7.09455,2.93713 2.62764,0.000155 5.23946,-1.07989 7.09847,-2.93583 1.85901,-1.85593 2.94158,-4.46485 2.94158,-7.08958 0,-2.62473 -1.08256,-5.23365 -2.94158,-7.08958 -1.85901,-1.85593 -4.47084,-2.93598 -7.09847,-2.93582 z  m 0,2.6734 c 1.92693,-0.000115 3.84296,0.791571 5.20624,2.15259 1.36328,1.36102 2.15751,3.27457 2.15751,5.19937 0,1.9248 -0.794228,3.83836 -2.15751,5.19937 -1.36328,1.36102 -3.27931,2.1527 -5.20624,2.15259 -1.92693,-0.000115 -3.84078,-0.792885 -5.20232,-2.15389 -1.36154,-1.36101 -2.15359,-3.27349 -2.15359,-5.19807 0,-1.92459 0.792047,-3.83706 2.15359,-5.19807 1.36154,-1.36101 3.27539,-2.15378 5.20232,-2.15389 z  m -1.3342,1.3367 0,7.352 1.3382,0 1.3381,0 4.6835,0 0,-2.6734 -4.6835,0 0,-4.6785 -2.6763,0 z "/>
</g>
</svg>
