<svg width="48" version="1.1" xmlns="http://www.w3.org/2000/svg" height="48">
<path style="opacity:.65;fill:#fff;stroke:none" id="rect4154" d="m 3,1.959 0,9.342 42,0 0,-6.9866 -22,0 0,-2.3555 z"/>
<g id="folderLayer">
<g style="stroke:none">
<g id="g3053" transform="matrix(1,0,0,1.1773318,0,-5.2823341)">
<rect width="18" x="4" y="6.9996953" height="10" id="folderTab"/>
<rect width="40" x="4" y="9" height="30" id="folderBackground"/>
<rect width="35.999992" x="6" y="10.9998" height="27.999756" style="fill:#fff" id="folderPaper"/>
<rect width="43.999996" x="2" y="12.999983" height="28.000008" style="fill:#5e87b2" id="folderFront"/>
</g>
<rect width="35.999992" x="6" y="7.6680799" height="32.965004" style="fill:#fff" id="rect3849"/>
<rect width="43.999996" x="2" y="10.022959" height="32.965298" style="fill:#5e87b2" id="rect3851"/>
<rect width="30" x="9.380971" y="11.101083" height="30" style="fill:none" id="rect3265"/>
</g>
<g style="fill:#fff" id="layer1" transform="translate(7.5e-5,-0.2755603)">
<path style="stroke:none" id="path2995" d="m 23.9062,14.9688 c -6.20755,0 -11.3125,5.10495 -11.3125,11.3125 0,6.20755 5.10495,11.2812 11.3125,11.2812 2.40486,0 4.63327,-0.768557 6.46875,-2.0625 l 2.25,2.25 2.7812,-2.75 -2.2812,-2.25 c 1.29394,-1.83547 2.0625,-4.06389 2.0625,-6.46875 0,-6.20755 -5.0737,-11.3125 -11.2812,-11.3125 z m 0,3.9062 c 4.10515,0 7.375,3.3011 7.375,7.40625 0,1.33987 -0.354385,2.57665 -0.96875,3.65625 l -3.6562,-3.6562 2.3438,-2.375 -2.75,-2.75 -7.4688,7.4688 2.75,2.75 2.375,-2.375 3.6562,3.6875 c -1.0796,0.614365 -2.31638,0.96875 -3.65625,0.96875 -4.10515,0 -7.40625,-3.26985 -7.40625,-7.375 0,-4.10515 3.3011,-7.40625 7.40625,-7.40625 z"/>
</g>
</g>
</svg>
