<svg width="48" version="1.1" xmlns="http://www.w3.org/2000/svg" height="48">
<path style="opacity:.65;fill:#fff" d="M 3,2 V 13 H 45 V 5 H 23 V 2 Z"/>
<path d="M 4,3 V 16 H 44 V 6 H 22 V 3 Z"/>
<path style="fill:#fff" d="M 6,9 H 42 V 42 H 6 Z"/>
<path style="fill:#5e87b2" d="M 2,12 H 46 V 44 H 2 Z"/>
<g style="fill:#fff">
<path d="m 24,19.5 c -1.62184,0 -2.93966,1.22327 -2.93966,2.73815 0.0039,0.173608 0.0057,0.376735 0.0237,0.592673 -0.25667,0.136934 -0.288214,0.669205 -0.05927,1.20905 0.08828,0.208171 0.210224,0.384562 0.331896,0.521554 0.0039,0.0045 0.0078,0.0073 0.01188,0.01188 0.02904,0.142633 0.04787,0.253982 0.08298,0.414871 0.108807,0.326685 0.564184,0.941574 0.96013,1.46983 0.03948,0.407509 0.04388,0.804794 -0.03557,1.26832 -0.641573,0.532694 -1.83266,0.909576 -2.76186,1.30388 -0.334233,-0.15368 -0.63726,-0.321564 -0.853449,-0.509698 -0.03418,-0.281435 -0.02926,-0.564395 -0.01188,-0.841596 0.27,-0.4168 0.62086,-0.949662 0.711208,-1.22091 0.03321,-0.140469 0.04533,-0.234981 0.07113,-0.355601 0.07973,-0.09753 0.154507,-0.216828 0.213362,-0.355606 0.163063,-0.3845 0.142487,-0.752317 -0.0237,-0.877155 0.01146,-0.167068 0.03069,-0.319498 0.03556,-0.462287 0,-1.13616 -0.988364,-2.0625 -2.20474,-2.0625 -1.21638,0 -2.20474,0.926346 -2.20474,2.0625 0.003,0.130205 0.01019,0.276624 0.0237,0.43858 -0.192503,0.102694 -0.219124,0.495974 -0.0474,0.900862 0.0662,0.156124 0.157668,0.288422 0.248924,0.391163 0.003,0.0035 0.0088,0.0086 0.01188,0.01188 0.02177,0.106978 0.03292,0.187524 0.05927,0.30819 0.08161,0.245013 0.414246,0.706183 0.711207,1.10237 0.02961,0.305628 0.03588,0.61248 -0.0237,0.960131 -0.854754,0.709698 -3.03777,1.0196 -3.03448,1.75431 l -.2963,1.9203 c 0,0.391377 0.58727,0.7417 1.51724,0.983837 l .1303,.5215 a 0.319825,0.320071 0 0,0 0.201509,0.213364 c 0.04128,0.01597 0.06468,0.05011 0.177801,0.08297 0.595932,0.173143 1.50448,0.296337 2.52479,0.296337 0.961407,0 1.82237,-0.115384 2.41811,-0.27263 l .1541,.6282 a 0.426433,0.42676 0 0,0 0.260776,0.284484 c 0.05505,0.02132 0.09807,0.06285 0.248923,0.106677 0.794575,0.23086 2.00599,0.391164 3.36638,0.391164 1.3604,0 2.58366,-0.160304 3.37824,-0.391164 0.150838,-0.04384 0.193884,-0.08537 0.248922,-0.106677 a 0.426433,0.42676 0 0,0 0.248924,-0.272627 l .1778,-.6282 c 0.594193,0.154982 1.44143,0.260775 2.3944,0.260775 1.0203,0 1.94072,-0.123192 2.53664,-0.296334 0.113138,-0.0329 0.136526,-0.067 0.177803,-0.08297 a 0.319825,0.320071 0 0,0 0.189656,-0.201509 l .166,-.5453 c 0.907251,-0.24176 1.48169,-0.58612 1.48169,-0.971984 l -.2963,-1.9203 c -0.0036,-0.628814 -2.20207,-1.0196 -3.04634,-1.75431 -0.03418,-0.281438 -0.02925,-0.564397 -0.01188,-0.841597 0.27,-0.4168 0.620862,-0.94966 0.711209,-1.22091 0.0332,-0.14047 0.04534,-0.234981 0.07112,-0.355605 0.07973,-0.09753 0.154507,-0.216824 0.213362,-0.355602 0.163062,-0.3845 0.142487,-0.752318 -0.0237,-0.877157 0.01146,-0.167068 0.0307,-0.319497 0.03557,-0.462285 0,-1.13616 -0.988364,-2.0625 -2.20474,-2.0625 -1.21638,0 -2.20474,0.926346 -2.20474,2.0625 0.003,0.130205 0.01019,0.276623 0.0237,0.438577 -0.192501,0.102694 -0.219121,0.495978 -0.04742,0.900865 0.06621,0.156124 0.157669,0.288419 0.248922,0.391164 0.003,0.0035 0.0088,0.0086 0.01188,0.01188 0.02178,0.106978 0.03292,0.187524 0.05927,0.30819 0.08162,0.245012 0.414247,0.706183 0.711209,1.10237 0.02961,0.305629 0.03588,0.612481 -0.0237,0.960131 -0.244032,0.202615 -0.592856,0.363872 -0.971986,0.521553 -0.914483,-0.385878 -2.03725,-0.788316 -2.64332,-1.31574 -0.04557,-0.375251 -0.04691,-0.744624 -0.0237,-1.11422 0.36,-0.555732 0.83967,-1.26226 0.960131,-1.62393 0.04428,-0.187298 0.06044,-0.313311 0.09484,-0.474137 0.106307,-0.130039 0.206009,-0.289101 0.284482,-0.474142 0.217417,-0.51266 0.197886,-1.00704 -0.0237,-1.17349 0.01548,-0.222755 0.02909,-0.437848 0.03556,-0.628231 0,-1.51489 -1.31788,-2.73817 -2.93972,-2.73817 Z "/>
<path style="color:#000" d="M 8.5,16 V 16.5 39 h 31 V 16 Z m 1,1 h 29 v 21 h -29 z"/>
</g>
</svg>
