<svg width="48" version="1.1" xmlns="http://www.w3.org/2000/svg" height="48">
<g id="g7" transform="translate(0,1)">
<path style="opacity:.65;fill:#fff" id="rect4154" d="M 3,1 V 12 H 45 V 4 H 23 V 1 Z"/>
<path id="folderTab" d="M 4,3 V 16 H 44 V 6 H 22 V 3 Z" transform="translate(0,-1)"/>
<path style="fill:#fff" id="folderPaper" d="m 6,8 h 36 v 33 h -36 Z "/>
<path style="fill:#5e87b2" id="folderFront" d="m 2,11 h 44 v 32 h -44 Z "/>
</g>
<g style="fill:#fff" id="layer1" transform="translate(-46.938788,9.4053433)">
<g id="layer1-0" transform="translate(-1.1431423,-3.7140472)">
<g id="g2964" transform="matrix(1.0373433,0,0,1.059811,-59.459858,-65.606398)">
<path id="path21" d="m 113.7765,81.113 c 0,0 3.47512,-5.12729 10.4138,-5.65758 v -1.86033 c -7.68545,0.617227 -14.3407,7.12644 -14.3407,7.12644 0,0 3.76941,10.897 14.3407,11.8947 v -1.97722 c -7.75788,-0.97611 -10.4138,-9.52602 -10.4138,-9.52602 z m 10.4138,5.5936 v 1.8108 c -5.86311,-1.04529 -7.49057,-7.14019 -7.49057,-7.14019 0,0 2.81512,-3.11856 7.49057,-3.62414 v 1.98695 c -0.004,0 -0.006,-0.0011 -0.009,-0.0011 -2.45393,-0.294483 -4.37093,1.99776 -4.37093,1.99776 0,0 1.07432,3.85933 4.37989,4.96993 m 0,-16.5422 v 3.4307 c 0.22561,-0.01745 0.45122,-0.03197 0.67806,-0.03969 8.73753,-0.294484 14.4306,7.16613 14.4306,7.16613 0,0 -6.53871,7.95091 -13.3509,7.95091 -0.62433,0 -1.20882,-0.05791 -1.75779,-0.15504 v 2.12161 c 0.46945,0.0596 0.95619,0.0947 1.46408,0.0947 6.3392,0 10.9235,-3.23747 15.3626,-7.06915 0.73598,0.58943 3.74907,2.02324 4.36846,2.65112 -4.22067,3.53365 -14.0572,6.38213 -19.6339,6.38213 -0.53754,0 -1.05378,-0.0326 -1.56121,-0.0815 v 2.981 h 21.4132 v -25.4328 l -21.4133,1e-4 v -7.5e-5 z m 0,7.5886 v -2.2977 c 0.22329,-0.0156 0.44828,-0.02764 0.67806,-0.0349 6.28314,-0.197352 10.4055,5.39938 10.4055,5.39938 0,0 -4.45231,6.18354 -9.22613,6.18354 -0.68702,0 -1.30302,-0.110412 -1.85739,-0.2968 v -6.96662 c 2.44605,0.295565 2.93835,1.37606 4.40892,3.82752 l 3.2707,-2.758 c 0,0 -2.38753,-3.13123 -6.41224,-3.13123 -0.43778,0 -0.85642,0.03073 -1.26735,0.07474"/>
</g>
</g>
</g>
</svg>
