<svg width="48" version="1.1" xmlns="http://www.w3.org/2000/svg" height="48">
<g id="g7" transform="translate(0,1)">
<path style="opacity:.65;fill:#fff" id="rect4154" d="M 3,1 V 12 H 45 V 4 H 23 V 1 Z"/>
<path id="folderTab" d="M 4,3 V 16 H 44 V 6 H 22 V 3 Z" transform="translate(0,-1)"/>
<path style="fill:#fff" id="folderPaper" d="m 6,8 h 36 v 33 h -36 Z "/>
<path style="fill:#5e87b2" id="folderFront" d="m 2,11 h 44 v 32 h -44 Z "/>
</g>
<path style="fill:#fff" id="path3001" d="m 33.3379,16.3825 v 20.25 c 0,0.552263 0.385721,1 0.875,1 h 5.375 c 0.48928,0 0.90625,-0.447737 0.90625,-1 v -20.25 h -7.15625 z  m -9.3438,2.125 v 18.25 c 0,0.494858 0.416971,0.90625 0.90625,0.90625 h 5.375 c 0.489279,0 0.875,-0.411392 0.875,-0.90625 v -18.25 h -7.15625 z  m -6.875,.125 -11.5312,14.125 c -0.312805,0.383455 -0.285382,0.971971 0.09375,1.28125 l 4.1875,3.4062 c 0.379132,0.309279 0.937196,0.227204 1.25,-0.15625 l 11.5312,-14.1562 -5.5312,-4.5 z  m -6.5,11.625 c 0.456632,-0.04238 0.929766,0.06278 1.3125,0.375 0.765469,0.624435 0.874434,1.76578 0.25,2.53125 -0.624434,0.765467 -1.76578,0.874434 -2.53125,0.25 -0.765469,-0.624435 -0.874434,-1.76578 -0.25,-2.53125 0.312217,-0.382734 0.762118,-0.58262 1.21875,-0.625 z  m 26.2812,.8125 c 0.987857,0 1.8125,0.795218 1.8125,1.78125 0,0.986033 -0.824643,1.78125 -1.8125,1.78125 -0.987857,0 -1.78125,-0.795217 -1.78125,-1.78125 0,-0.986032 0.793393,-1.78125 1.78125,-1.78125 z  m -9.3125,.0312 c 0.987857,0 1.78125,0.793394 1.78125,1.78125 0,0.987855 -0.793393,1.8125 -1.78125,1.8125 -0.987856,0 -1.8125,-0.824645 -1.8125,-1.8125 0,-0.987856 0.824644,-1.78125 1.8125,-1.78125 z "/>
</svg>
