<svg width="48" version="1.1" xmlns="http://www.w3.org/2000/svg" height="48">
<g id="g7" transform="translate(0,1)">
<path style="opacity:.65;fill:#fff" id="rect4154" d="M 3,1 V 12 H 45 V 4 H 23 V 1 Z"/>
<path id="folderTab" d="M 4,3 V 16 H 44 V 6 H 22 V 3 Z" transform="translate(0,-1)"/>
<path style="fill:#fff" id="folderPaper" d="m 6,8 h 36 v 33 h -36 Z "/>
<path style="fill:#5e87b2" id="folderFront" d="m 2,11 h 44 v 32 h -44 Z "/>
</g>
<path style="fill:#fff" id="path3738-0" d="m 17.8867,15.75 c -0.93026,0 -1.67917,0.86413 -1.67917,1.9375 v 7.10417 h -0.559717 c -0.930267,0 -1.67917,0.86413 -1.67917,1.93749 v 6.45835 c 0,1.07337 0.748904,1.93748 1.67917,1.93748 h 0.559717 v 1.93751 c 0,1.07338 0.748911,1.9375 1.67917,1.9375 h 12.3139 c 0.93026,0 1.67917,-0.864123 1.67917,-1.9375 v -1.93751 h 0.559717 c 0.930267,0 1.67917,-0.864115 1.67917,-1.93748 v -6.45835 c 0,-1.07336 -0.748904,-1.93749 -1.67917,-1.93749 h -0.524735 -0.03497 V 17.6875 c 0,-1.07337 -0.748904,-1.9375 -1.67916,-1.9375 z m 0.3964,1.233 h 11.3102 c 1.27931,0 1.27931,0 1.27931,1.22889 v 6.43359 1.47118 h -13.6786 v -1.54425 -6.38377 c 0,-1.20563 0,-1.20563 1.08916,-1.20563 z m 10.798,11.6836 c 0.30897,0 0.559723,0.289341 0.559723,0.645833 0,0.356491 -0.250753,0.645841 -0.559723,0.645841 -0.30897,0 -0.559731,-0.28935 -0.559731,-0.645841 0,-0.356492 0.250761,-0.645833 0.559731,-0.645833 z m 2.2389,0 c 0.30897,0 0.559724,0.289341 0.559724,0.645833 0,0.356491 -0.250754,0.645841 -0.559724,0.645841 -0.308964,0 -0.559717,-0.28935 -0.559717,-0.645841 0,-0.356492 0.250747,-0.645833 0.559717,-0.645833 z M 17.1939,33.832 h 13.6786 v 1.8234 1.4324 c 0,0.658684 0,0.658684 -0.660229,0.658684 h -12.3224 c -0.696042,0 -0.696042,0 -0.696042,-0.71355 v -1.77993 z"/>
</svg>
