<svg width="48" version="1.1" xmlns="http://www.w3.org/2000/svg" height="48">
<path style="opacity:.65;fill:#fff;stroke:none" id="rect4154" d="m 3,1.959 0,9.342 42,0 0,-6.9866 -22,0 0,-2.3555 z"/>
<g id="folderLayer">
<g style="stroke:none">
<g id="g3053" transform="matrix(1,0,0,1.1773318,0,-5.2823341)">
<rect width="18" x="4" y="6.9996953" height="10" id="folderTab"/>
<rect width="40" x="4" y="9" height="30" id="folderBackground"/>
<rect width="35.999992" x="6" y="10.9998" height="27.999756" style="fill:#fff" id="folderPaper"/>
<rect width="43.999996" x="2" y="12.999983" height="28.000008" style="fill:#5e87b2" id="folderFront"/>
</g>
<rect width="35.999992" x="6" y="7.6680799" height="32.965004" style="fill:#fff" id="rect3849"/>
<rect width="43.999996" x="2" y="10.022959" height="32.965298" style="fill:#5e87b2" id="rect3851"/>
<rect width="30" x="9.380971" y="11.101083" height="30" style="fill:none" id="rect3265"/>
<g id="layer1-0" transform="matrix(0.95914281,0,0,0.95914281,0.71127192,0.99309879)">
<path style="fill:#fff" id="path2998" d="m 16.5938,15.75 c -1.79619,0 -3.2539,0.297012 -3.25,0.65625 0.0036,0.359237 -1.45381,0.65625 -3.25,0.65625 h -0.375 c -1.79619,0 -3.28125,1.48506 -3.28125,3.28125 v 13.0625 c 0,1.79619 1.48506,3.25 3.28125,3.25 H 38.625 c 1.79619,0 3.25,-1.45381 3.25,-3.25 v -13.0625 c 0,-1.79619 -1.45381,-3.28125 -3.25,-3.28125 H 23.9062 c -1.79619,0 -3.25,-0.297013 -3.25,-0.65625 0,-0.359238 -1.48506,-0.65625 -3.28125,-0.65625 H 16.5937 z m -6.0625,2.6875 c 1.12735,0 2.03125,0.935147 2.03125,2.0625 0,1.12703 -0.903897,2.03125 -2.03125,2.03125 -1.12735,0 -2.03125,-0.903898 -2.03125,-2.03125 0,-1.12735 0.903897,-2.0625 2.03125,-2.0625 z m 22.0312,0.1875 h 6.875 c 0.359238,0 0.65625,0.297013 0.65625,0.65625 v 1.125 c 0,0.359237 -0.297012,0.65625 -0.65625,0.65625 h -6.875 c -0.359238,0 -0.65625,-0.297013 -0.65625,-0.65625 v -1.125 c 0,-0.359237 0.297012,-0.65625 0.65625,-0.65625 z m -8.4062,2.2812 c 3.2916,0 5.96875,2.67715 5.96875,5.96875 0,3.2916 -2.67715,5.9375 -5.96875,5.9375 -3.2916,0 -5.96875,-2.6459 -5.96875,-5.9375 0,-3.2916 2.67715,-5.96875 5.96875,-5.96875 z"/>
<path style="fill:none;font-size:12px" id="path601" d="m 41.4715,33.3919 c 0,1.79619 -1.46961,3.2658 -3.2658,3.2658 H 9.3034 c -1.79619,0 -3.2658,-1.46961 -3.2658,-3.2658 V 20.3287 c 0,-1.79619 1.46961,-3.2658 3.2658,-3.2658 h 0.381118 c 1.79619,0 3.26253,-0.293922 3.25894,-0.653159 -0.0039,-0.359238 1.46275,-0.653159 3.25894,-0.653159 h 0.775626 c 1.79619,0 3.2658,0.293921 3.2658,0.653159 0,0.359237 1.46961,0.653159 3.2658,0.653159 h 14.6961 c 1.79619,0 3.2658,1.46961 3.2658,3.2658 v 13.0632 z"/>
</g>
</g>
</g>
</svg>
