<svg width="48" version="1.1" xmlns="http://www.w3.org/2000/svg" height="48">
<g id="g7" transform="translate(0,1)">
<path style="opacity:.65;fill:#fff" id="rect4154" d="M 3,1 V 12 H 45 V 4 H 23 V 1 Z"/>
<path id="folderTab" d="M 4,3 V 16 H 44 V 6 H 22 V 3 Z" transform="translate(0,-1)"/>
<path style="fill:#fff" id="folderPaper" d="m 6,8 h 36 v 33 h -36 Z "/>
<path style="fill:#5e87b2" id="folderFront" d="m 2,11 h 44 v 32 h -44 Z "/>
</g>
<g style="fill:#fff" id="layer1" transform="translate(-0.01164113,1.15635)">
<path id="path2999" d="m 32.0312,13.875 c -5.19697,0 -6.17359,7.375 -3.25,7.375 2.92316,0 8.44718,-7.375 3.25,-7.375 z m -8.3125,0.9062 c -2.92464,0.379601 -1.90102,5.46744 -0.34375,5.5625 1.55664,0.09506 3.26945,-5.9421 0.34375,-5.5625 z m -4.9062,2 c -0.128254,0.01361 -0.259358,0.06439 -0.40625,0.125 -2.3507,0.970023 -0.348131,4.95662 0.96875,4.6875 1.23557,-0.251906 1.3613,-5.01668 -0.5625,-4.8125 z m -3.625,3.125 c -0.204381,-0.0069 -0.420927,0.0875 -0.65625,0.25 -1.88174,1.30019 0.611632,4.42462 1.71875,3.9375 0.968729,-0.426418 0.368167,-4.13935 -1.0625,-4.1875 z m 10.75,2.4062 c -4.03421,-0.06825 -9.3737,1.96696 -10.2812,6.03125 -0.982909,4.39827 4.034,10.5 9.28125,10.5 2.58138,0 5.56796,-2.32851 6.125,-5.28125 0.425441,-2.25163 -5.00769,-1.36489 -4.8125,0.125 0.233844,1.78584 -1.30043,2.68252 -2.8125,1.53125 -4.81357,-3.66483 7.96764,-5.49315 7.125,-10.5 -0.262283,-1.55849 -2.20448,-2.3653 -4.625,-2.40625 z"/>
</g>
</svg>
