<svg width="48" version="1.1" xmlns="http://www.w3.org/2000/svg" height="48">
<g id="g7" transform="translate(0,1)">
<path style="opacity:.65;fill:#fff" id="rect4154" d="M 3,1 V 12 H 45 V 4 H 23 V 1 Z"/>
<path id="folderTab" d="M 4,3 V 16 H 44 V 6 H 22 V 3 Z" transform="translate(0,-1)"/>
<path style="fill:#fff" id="folderPaper" d="m 6,8 h 36 v 33 h -36 Z "/>
<path style="fill:#5e87b2" id="folderFront" d="m 2,11 h 44 v 32 h -44 Z "/>
</g>
<g style="fill:#fff" id="g3" transform="matrix(0.04568666,0,0,0.0530168,12.304215,13.301396)">
<path id="path5" d="M 446.844,208.875 C 447.625,203.313 448,197.656 448,192 448,121.437 390.594,64 320,64 279.062,64 241.469,83.344 217.656,115.063 209.25,113.031 200.688,112 192,112 130.25,112 80,162.25 80,224 c 0,1.563 0.031,3.094 0.094,4.625 C 33.813,242.375 0,285.313 0,336 0,397.75 50.25,448 112,448 h 272 c 70.594,0 128,-57.406 128,-128 0,-46.656 -25.656,-88.812 -65.156,-111.125 z M 384,416 H 112 c -44.188,0 -80,-35.813 -80,-80 0,-44.187 35.813,-80 80,-80 2.438,0 4.75,0.5 7.125,0.719 -4.5,-10 -7.125,-21.031 -7.125,-32.719 0,-44.188 35.813,-80 80,-80 14.438,0 27.813,4.125 39.5,10.813 C 246,120.25 280.156,96 320,96 c 53.031,0 96,42.969 96,96 0,12.625 -2.594,24.625 -7.031,35.688 40.844,11.062 71.031,48 71.031,92.312 0,53.031 -42.969,96 -96,96 z"/>
<g id="g3036" transform="matrix(0,0.83755709,-1.1939485,0,599.85716,73.585384)">
<polygon points="280,224 152,224 152,256 280,256 280,288 360,240 280,192 " id="polygon7"/>
<polygon points="232,288 152,336 232,384 232,352 360,352 360,320 232,320 " id="polygon9"/>
</g>
</g>
</svg>
