<svg width="48" version="1.1" xmlns="http://www.w3.org/2000/svg" height="48">
<g id="g7" transform="translate(0,1)">
<path style="opacity:.65;fill:#fff" id="rect4154" d="M 3,1 V 12 H 45 V 4 H 23 V 1 Z"/>
<path id="folderTab" d="M 4,3 V 16 H 44 V 6 H 22 V 3 Z" transform="translate(0,-1)"/>
<path style="fill:#fff" id="folderPaper" d="m 6,8 h 36 v 33 h -36 Z "/>
<path style="fill:#5e87b2" id="folderFront" d="m 2,11 h 44 v 32 h -44 Z "/>
</g>
<g style="fill:#fff;fill-rule:evenodd" id="g10" transform="matrix(1.1798409,0,0,1.1798409,-4.2721275,-2.9557101)">
<path id="folderGlyph-6" d="m 14.6394,15.4952 v 21.3366 h 4.1909 V 36.169 c 0,-0.19029 0.296813,-0.342849 0.668119,-0.342849 h 8.88294 c 0.371305,0 0.683303,0.152559 0.683303,0.342849 v 0.662839 h 4.22129 v -21.3366 h -4.22129 v 1.01712 c 0,0.19029 -0.311998,0.342848 -0.683303,0.342848 h -8.88294 c -0.371306,0 -0.668119,-0.152558 -0.668119,-0.342848 v -1.01712 H 14.63937 Z M 18.8,17.4951 h 10.2344 v 8.1484 H 18.8 Z m -3.2343,0.1257 h 1.8677 v 2.1371 h -1.8677 z m 14.9264,0 h 1.8525 v 2.1371 h -1.8525 z m -14.9264,7.4627 h 1.8677 v 2.1257 h -1.8677 z m 14.9264,0 h 1.8525 v 2.1257 H 30.4921 Z M 18.8,27.1063 h 10.2344 v 8.1484 H 18.8 Z m -3.2343,5.4513 h 1.8677 v 2.1371 h -1.8677 z m 14.9264,0 h 1.8525 v 2.1371 h -1.8525 z"/>
<rect width="10.764833" x="18.481901" y="34.03019" rx="1.3516369" height="1.552201" ry="2.345692e-07" id="rect3025"/>
<rect width="10.764833" x="18.563597" y="17.07852" rx="1.3516369" ry="2.345692e-07" height="1.552201" id="rect3027"/>
</g>
</svg>
