<svg width="48" version="1.1" xmlns="http://www.w3.org/2000/svg" height="48">
<g id="g7" transform="translate(0,1)">
<path style="opacity:.65;fill:#fff" id="rect4154" d="M 3,1 V 12 H 45 V 4 H 23 V 1 Z"/>
<path id="folderTab" d="M 4,3 V 16 H 44 V 6 H 22 V 3 Z" transform="translate(0,-1)"/>
<path style="fill:#fff" id="folderPaper" d="m 6,8 h 36 v 33 h -36 Z "/>
<path style="fill:#5e87b2" id="folderFront" d="m 2,11 h 44 v 32 h -44 Z "/>
</g>
<g id="layer1-0" transform="matrix(0.95914281,0,0,0.95914281,0.71127192,2.8400306)">
<path style="fill:#fff" id="path2998" d="m 16.5938,15.75 c -1.79619,0 -3.2539,0.297012 -3.25,0.65625 0.0036,0.359237 -1.45381,0.65625 -3.25,0.65625 h -0.375 c -1.79619,0 -3.28125,1.48506 -3.28125,3.28125 v 13.0625 c 0,1.79619 1.48506,3.25 3.28125,3.25 H 38.625 c 1.79619,0 3.25,-1.45381 3.25,-3.25 v -13.0625 c 0,-1.79619 -1.45381,-3.28125 -3.25,-3.28125 H 23.9062 c -1.79619,0 -3.25,-0.297013 -3.25,-0.65625 0,-0.359238 -1.48506,-0.65625 -3.28125,-0.65625 H 16.5937 Z m -6.0625,2.6875 c 1.12735,0 2.03125,0.935147 2.03125,2.0625 0,1.12703 -0.903897,2.03125 -2.03125,2.03125 -1.12735,0 -2.03125,-0.903898 -2.03125,-2.03125 0,-1.12735 0.903897,-2.0625 2.03125,-2.0625 z m 22.0312,0.1875 h 6.875 c 0.359238,0 0.65625,0.297013 0.65625,0.65625 v 1.125 c 0,0.359237 -0.297012,0.65625 -0.65625,0.65625 h -6.875 c -0.359238,0 -0.65625,-0.297013 -0.65625,-0.65625 v -1.125 c 0,-0.359237 0.297012,-0.65625 0.65625,-0.65625 z m -8.4062,2.2812 c 3.2916,0 5.96875,2.67715 5.96875,5.96875 0,3.2916 -2.67715,5.9375 -5.96875,5.9375 -3.2916,0 -5.96875,-2.6459 -5.96875,-5.9375 0,-3.2916 2.67715,-5.96875 5.96875,-5.96875 z"/>
<path style="fill:none;font-size:12px" id="path601" d="m 41.4715,33.3919 c 0,1.79619 -1.46961,3.2658 -3.2658,3.2658 H 9.3034 c -1.79619,0 -3.2658,-1.46961 -3.2658,-3.2658 V 20.3287 c 0,-1.79619 1.46961,-3.2658 3.2658,-3.2658 h 0.381118 c 1.79619,0 3.26253,-0.293922 3.25894,-0.653159 -0.0039,-0.359238 1.46275,-0.653159 3.25894,-0.653159 h 0.775626 c 1.79619,0 3.2658,0.293921 3.2658,0.653159 0,0.359237 1.46961,0.653159 3.2658,0.653159 h 14.6961 c 1.79619,0 3.2658,1.46961 3.2658,3.2658 v 13.0632 z"/>
</g>
</svg>
