<svg width="48" version="1.1" xmlns="http://www.w3.org/2000/svg" height="48">
<path style="opacity:.65;fill:#fff;stroke:none" id="rect4154" d="m 3,1.959 0,9.342 42,0 0,-6.9866 -22,0 0,-2.3555 z"/>
<g id="folderLayer">
<g style="stroke:none">
<g id="g3053" transform="matrix(1,0,0,1.1773318,0,-5.2823341)">
<rect width="18" x="4" y="6.9996953" height="10" id="folderTab"/>
<rect width="40" x="4" y="9" height="30" id="folderBackground"/>
<rect width="35.999992" x="6" y="10.9998" height="27.999756" style="fill:#fff" id="folderPaper"/>
<rect width="43.999996" x="2" y="12.999983" height="28.000008" style="fill:#5e87b2" id="folderFront"/>
</g>
<rect width="35.999992" x="6" y="7.6680799" height="32.965004" style="fill:#fff" id="rect3849"/>
<rect width="43.999996" x="2" y="10.022959" height="32.965298" style="fill:#5e87b2" id="rect3851"/>
<rect width="30" x="9.380971" y="11.101083" height="30" style="fill:none" id="rect3265"/>
<g style="fill:#fff" id="layer1" transform="matrix(1.0934832,0,0,1.0934832,-2.9274858,-2.1786754)">
<path id="path2995" d="m 33.0312,13.5625 -2.8125,2.8125 -1.7188,3.6875 c -1.06348,-0.27121 -2.27396,-0.40625 -3.5625,-0.40625 -1.29526,0 -2.49502,0.132343 -3.5625,0.40625 -2.39014,-3.35484 -4.78428,-5.80334 -5.84375,-6.03125 -0.0099,-0.0019 -0.0528,0.0016 -0.0625,0 -0.0095,-0.0014 -0.02195,0.00096 -0.03125,0 -0.02294,-0.0019 -0.04109,-0.000617 -0.0625,0 -0.0084,0.000454 -0.0543,-0.000842 -0.0625,0 -0.02421,0.0032 -0.0406,-0.0069 -0.0625,0 -0.0072,0.0025 -0.02435,-0.0029 -0.03125,0 -0.01018,0.0047 -0.0529,0.02555 -0.0625,0.03125 -0.003,0.0021 -0.02825,0.02905 -0.03125,0.03125 -0.0087,0.0069 -0.02315,-0.0078 -0.03125,0 -0.0052,0.0054 0.0049,0.0567 0,0.0625 -0.0143,0.01799 -0.05085,0.04104 -0.0625,0.0625 -0.0038,0.0074 -0.02785,0.02355 -0.03125,0.03125 -0.0082,0.01978 0.0064,0.07164 0,0.09375 -0.002,0.0096 -0.02955,0.0526 -0.03125,0.0625 -0.158865,1.02891 1.15481,3.92096 3.28125,7.1875 -0.06251,0.05846 -0.13037,0.12604 -0.1875,0.1875 -0.424186,0.456315 -0.6875,1.01795 -0.6875,1.625 0,0.128522 0.01008,0.259158 0.03125,0.375 0.0015,0.01659 -0.0015,0.04572 0,0.0625 0.251147,2.76487 1.07316,7.78923 1.5625,11.3125 v 0.03125 c 0.203687,1.02735 1.12983,1.69513 2.21875,2.09375 1.08892,0.398624 2.41545,0.5646 3.75,0.5625 1.33455,-0.002 2.70073,-0.162364 3.78125,-0.5625 1.08052,-0.400135 1.97534,-1.06804 2.15625,-2.09375 v -0.03125 l 1.5938,-11.3125 v -0.03125 c 0.01001,-0.065 -0.00069,-0.15085 0,-0.15625 0.0074,-0.05757 0.03125,-0.130852 0.03125,-0.25 0,-0.607047 -0.263315,-1.16868 -0.6875,-1.625 -0.240575,-0.258798 -0.545083,-0.509915 -0.875,-0.71875 l 1.625,-3.5 .4688,-4 z  m -8.0938,7.2188 c 1.11821,0 2.17979,0.09919 3.09375,0.3125 l -2.1562,4.5938 c 0.629521,0.999975 1.21424,1.94665 1.6875,2.8125 l 2.9062,-6.375 c 0.200367,0.140203 0.368867,0.265186 0.5,0.40625 0.285421,0.307042 0.40625,0.601081 0.40625,0.875 0,0.0081 0.0087,0.05711 0,0.125 -0.01085,0.08415 -0.03735,0.12115 -0.03125,0.09375 v 0.03125 l -1.5625,11.3438 c -0.07618,0.431901 -0.56777,0.885101 -1.46875,1.21875 -0.90098,0.333648 -2.1474,0.4981 -3.375,0.5 -1.2276,0.0019 -2.43364,-0.166831 -3.34375,-0.5 -0.91012,-0.333173 -1.41154,-0.772561 -1.5,-1.21875 -0.495038,-3.56119 -1.32624,-8.69867 -1.5625,-11.3438 l -.0312,-.0312 v -0.03125 c -0.01455,-0.06878 0,-0.13154 0,-0.1875 0,-0.27392 0.08958,-0.567957 0.375,-0.875 0.02421,0.03536 0.06937,0.08958 0.09375,0.125 0.157753,0.229178 0.310818,0.466035 0.46875,0.6875 0.373879,0.524284 0.757174,0.994716 1.125,1.46875 l .0312,-.0312 c 0.184231,0.275691 0.370081,0.56421 0.5625,0.84375 0.186966,0.271617 0.376214,0.51816 0.5625,0.78125 1.4723,2.07933 2.931,3.89344 4.125,5.1875 l .1562,-.125 c 1.1,1.42919 2.49261,2.19462 2.59375,2.125 0.09058,-0.06235 -0.126039,-1.62041 -1.0625,-3.15625 l .25,-.1562 c -0.881499,-1.7769 -2.27285,-4.08166 -3.9375,-6.5 -0.193257,-0.280756 -0.369922,-0.540847 -0.5625,-0.8125 -0.371303,-0.611338 -0.78708,-1.26158 -1.21875,-1.90625 0.867703,-0.18409 1.84232,-0.28125 2.875,-0.28125 z "/>
<path id="path39063" d="m 23.5625,30.25 c 0.660675,0.824716 1.30489,1.56962 1.875,2.1875 l .1562,-.125 -.4688,1.0625 c -0.805695,1.44313 -3.14828,0.473567 -2.53125,-1.15625 l .9688,-1.9688 z "/>
</g>
</g>
</g>
</svg>
