<svg width="48" version="1.1" xmlns="http://www.w3.org/2000/svg" height="48">
<g id="g7" transform="translate(0,1)">
<path style="opacity:.65;fill:#fff" id="rect4154" d="M 3,1 V 12 H 45 V 4 H 23 V 1 Z"/>
<path id="folderTab" d="M 4,3 V 16 H 44 V 6 H 22 V 3 Z" transform="translate(0,-1)"/>
<path style="fill:#fff" id="folderPaper" d="m 6,8 h 36 v 33 h -36 Z "/>
<path style="fill:#5e87b2" id="folderFront" d="m 2,11 h 44 v 32 h -44 Z "/>
</g>
<g style="fill:#fff" id="layer1" transform="matrix(1.1644505,0,0,1.1644505,-3.946812,-3.1224569)">
<path id="path3014" d="m 24.1875,14 c -5.04647,0 -9.16686,3.69734 -9.9375,9.28125 -0.0042,0.03059 -0.0086,0.07237 -0.03125,0.09375 0,0 -3.33178,3.47082 -3.75,3.875 0.556296,0.01403 3.40625,0.0625 3.40625,0.0625 0.06998,0.0019 0.1154,0.05666 0.125,0.125 0.237185,1.645 0.79129,3.19997 1.625,4.59375 0.721533,1.2068 1.62906,2.22202 2.65625,3.03125 -2.42285,0.03899 -4.375,0.850506 -4.375,1.84375 0,1.01893 2.05488,1.84375 4.5625,1.84375 2.35051,0 4.26755,-0.726151 4.5,-1.65625 0.402293,0.0536 0.807829,0.0625 1.21875,0.0625 0.645543,0 1.2835,-0.05544 1.90625,-0.1875 0.20905,0.939887 2.16394,1.65625 4.53125,1.65625 2.50783,0 4.53125,-0.793989 4.53125,-1.8125 0,-1.01852 -2.02342,-1.84375 -4.53125,-1.84375 -0.140036,0 -0.269444,-0.005 -0.40625,0 1.18475,-0.955586 2.19159,-2.19065 2.9375,-3.65625 0.66043,-1.29551 1.10441,-2.68788 1.28125,-4.15625 0.0086,-0.06915 0.05376,-0.1233 0.125,-0.125 0,0 2.41769,-0.04932 2.96875,-0.0625 -0.42241,-0.39831 -3.3125,-3.40625 -3.3125,-3.40625 -0.02347,-0.02242 -0.0581,-0.06169 -0.0625,-0.09375 C 33.447629,17.78993 29.30626,14 24.1875,14 Z m -3.125,1.9375 c 1.79984,0 3.25,1.56585 3.25,3.5 0,0.08399 0.0054,0.16755 0,0.25 C 24.3125,18.20761 25.74123,17 27.5,17 c 1.75898,0 3.1875,1.20761 3.1875,2.6875 0,1.48052 -1.42873,2.6875 -3.1875,2.6875 l 0.125,-0.2188 c 0,0 -1.14888,-0.328127 -2.28125,-0.5 -0.0037,-0.0029 -0.02755,0.0029 -0.03125,0 -0.610405,-0.489163 -1,-1.20472 -1,-1.96875 -0.04605,0.702974 -0.280841,1.34724 -0.65625,1.875 C 22.3726,21.686891 20.75,22.1562 20.75,22.1562 l 3.5,4.9688 3.2188,-4.6875 c 0.642921,0.360062 1.24143,0.816026 1.78125,1.375 1.57382,1.62859 2.36108,4.74982 2.3125,6.75 -1.22006,3.43859 -3.98675,5.40625 -7.40625,5.40625 -0.862143,0 -1.69935,-0.132877 -2.46875,-0.375 C 21.578435,35.54822 21.463923,35.54078 21.3438,35.5 c -0.01371,-0.0051 -0.01759,-0.02605 -0.03125,-0.03125 -1.88843,-0.712073 -3.3911,-2.18292 -4.1875,-4.28125 -0.15692,-1.75137 0.244544,-4.62695 1.4375,-6.3125 0.560722,-0.792839 1.20685,-1.46985 1.9375,-2 -1.52983,-0.287997 -2.6875,-1.71088 -2.6875,-3.4375 0,-1.93415 1.45142,-3.5 3.25,-3.5 z m 1.875,2.1562 c -0.708481,0 -1.3125,0.665177 -1.3125,1.4375 0,0.770627 0.604019,1.375 1.3125,1.375 0.70848,0 1.28125,-0.604373 1.28125,-1.375 0,-0.772323 -0.57277,-1.4375 -1.28125,-1.4375 z m 2.375,0.6875 c -0.488139,0 -0.90625,0.437107 -0.90625,0.96875 0,0.531644 0.417828,0.96875 0.90625,0.96875 0.487575,0 0.875,-0.437389 0.875,-0.96875 0,-0.531925 -0.387425,-0.96875 -0.875,-0.96875 z"/>
</g>
</svg>
