<svg width="48" version="1.1" xmlns="http://www.w3.org/2000/svg" height="48">
<path style="opacity:.65;fill:#fff;stroke:none" id="rect4154" d="m 3,1.959 0,9.342 42,0 0,-6.9866 -22,0 0,-2.3555 z"/>
<g id="folderLayer">
<g style="stroke:none" id="g3053" transform="matrix(1,0,0,1.1773318,0,-5.2823341)">
<rect width="18" x="4" y="6.9996953" height="10" id="folderTab"/>
<rect width="40" x="4" y="9" height="30" id="folderBackground"/>
<rect width="35.999992" x="6" y="10.9998" height="27.999756" style="fill:#fff" id="folderPaper"/>
<rect width="43.999996" x="2" y="12.999983" height="28.000008" style="fill:#5e87b2" id="folderFront"/>
</g>
<path style="fill:#fff;fill-rule:evenodd;stroke:none" id="folderGlyph" d="m 19.0096,17.071 0,3.9628 0,9.3053 c -0.463641,-0.23894 -0.970553,-0.388962 -1.4973,-0.388932 -1.82705,0.0001 -3.48722,1.65201 -3.48722,3.46749 0,1.81538 1.66017,3.46739 3.48722,3.46749 1.82705,9.9e-05 3.49111,-1.65191 3.49111,-3.46749 v -12.3839 h 10.9659 v 9.30534 c -0.463638,-0.23894 -0.970552,-0.388962 -1.4973,-0.388932 -1.82705,0.0001 -3.48722,1.65201 -3.48722,3.46749 0,1.81538 1.66017,3.46739 3.48722,3.46749 1.82705,9.9e-05 3.49111,-1.65191 3.49111,-3.46749 v -12.3839 -3.96285 h -14.9536 z "/>
</g>
</svg>
