<svg width="48" version="1.1" xmlns="http://www.w3.org/2000/svg" height="48">
<g id="g7" transform="translate(0,1)">
<path style="opacity:.65;fill:#fff" id="rect4154" d="M 3,1 V 12 H 45 V 4 H 23 V 1 Z"/>
<path id="folderTab" d="M 4,3 V 16 H 44 V 6 H 22 V 3 Z" transform="translate(0,-1)"/>
<path style="fill:#fff" id="folderPaper" d="m 6,8 h 36 v 33 h -36 Z "/>
<path style="fill:#5e87b2" id="folderFront" d="m 2,11 h 44 v 32 h -44 Z "/>
</g>
<path style="fill:#fff;fill-rule:evenodd;stroke:none" id="folderGlyph" d="m 19.5231,16.9471 c -2.87999,0.000171 -5.49805,2.62044 -5.49805,5.5 0,2.87956 2.61805,5.49983 5.49805,5.5 2.87999,0.000171 5.50195,-2.62012 5.50195,-5.5 0,-2.87988 -2.62196,-5.50017 -5.50195,-5.5 z  m 0,2 c 1.83272,-0.000109 3.50195,1.66735 3.50195,3.5 0,1.83265 -1.66923,3.50011 -3.50195,3.5 -1.83272,-0.000109 -3.49805,-1.66755 -3.49805,-3.5 0,-1.83245 1.66532,-3.49989 3.49805,-3.5 z  m 6.916,9 -1.4141,1.4141 7.5859,7.5859 1.4141,-1.4141 -7.5859,-7.5859 z "/>
</svg>
