<svg width="48" version="1.1" xmlns="http://www.w3.org/2000/svg" height="48">
<path style="opacity:.65;fill:#fff;stroke:none" id="rect4154" d="m 3,1.959 0,9.342 42,0 0,-6.9866 -22,0 0,-2.3555 z"/>
<g id="folderLayer">
<g style="stroke:none" id="g3053" transform="matrix(1,0,0,1.1773318,0,-5.2823341)">
<rect width="18" x="4" y="6.9996953" height="10" id="folderTab"/>
<rect width="40" x="4" y="9" height="30" id="folderBackground"/>
<rect width="35.999992" x="6" y="10.9998" height="27.999756" style="fill:#fff" id="folderPaper"/>
<rect width="43.999996" x="2" y="12.999983" height="28.000008" style="fill:#5e87b2" id="folderFront"/>
</g>
<path style="fill:#fff;stroke:none" id="folderGlyph" d="m 23.9387,17.0435 c -2.61818,0.000155 -5.22035,1.07847 -7.07031,2.92969 -1.84996,1.85122 -2.92578,4.45253 -2.92578,7.07031 0,2.61778 1.07582,5.21909 2.92578,7.07031 1.84996,1.85122 4.45214,2.92953 7.07031,2.92969 2.61817,0.000155 5.21994,-1.07846 7.07227,-2.92969 1.85232,-1.85123 2.93164,-4.45224 2.93164,-7.07031 0,-2.61808 -1.07932,-5.21908 -2.93164,-7.07031 -1.85232,-1.85123 -4.45409,-2.92984 -7.07227,-2.92969 z  m 0,2 c 4.18908,-0.000248 8.00391,3.81108 8.00391,8 0,4.18892 -3.81483,8.00025 -8.00391,8 -4.18908,-0.000248 -7.99609,-3.81155 -7.99609,-8 0,-4.18845 3.80701,-7.99975 7.99609,-8 z  m -1.9961,2 0,5 -4,0 6,7 6,-7 -4,0 0,-5 -4,0 z "/>
</g>
</svg>
