<svg width="48" version="1.1" xmlns="http://www.w3.org/2000/svg" height="48">
<path style="opacity:.65;fill:#fff;stroke:none" id="rect4154" d="m 3,1.959 0,9.342 42,0 0,-6.9866 -22,0 0,-2.3555 z"/>
<g id="folderLayer">
<g style="stroke:none">
<g id="g3053" transform="matrix(1,0,0,1.1773318,0,-5.2823341)">
<rect width="18" x="4" y="6.9996953" height="10" id="folderTab"/>
<rect width="40" x="4" y="9" height="30" id="folderBackground"/>
<rect width="35.999992" x="6" y="10.9998" height="27.999756" style="fill:#fff" id="folderPaper"/>
<rect width="43.999996" x="2" y="12.999983" height="28.000008" style="fill:#5e87b2" id="folderFront"/>
</g>
<rect width="35.999992" x="6" y="7.6680799" height="32.965004" style="fill:#fff" id="rect3849"/>
<rect width="43.999996" x="2" y="10.022959" height="32.965298" style="fill:#5e87b2" id="rect3851"/>
<rect width="30" x="9.380971" y="11.101083" height="30" style="fill:none" id="rect3265"/>
</g>
<g style="fill:#fff" id="layer1" transform="translate(-1.2466048,-0.4941521)">
<path style="stroke:none" id="path3025" d="m 24.4688,14.2188 c -2.24236,0.08034 -5.0039,0.961995 -7.5625,3.875 -0.08333,0.09481 -0.125,0.211172 -0.125,0.34375 0,0.01408 -0.0011,0.04825 0,0.0625 0.0048,0.07814 0.02269,0.14894 0.0625,0.21875 -0.0047,0.03814 -0.03219,0.166833 -0.15625,0.40625 -0.00018,0.000186 -0.0625,0.125 -0.0625,0.125 -0.176462,0.30478 -0.448281,0.671205 -0.8125,1.09375 -0.2596,0.214791 -0.758831,0.52615 -1.0625,0.46875 -0.166834,-0.03204 -0.34432,0.0074 -0.46875,0.125 l -1.4375,1.375 c -0.16406,0.154798 -0.21703,0.387292 -0.125,0.59375 0.11906,0.268303 1.20046,2.63597 2.8125,3 0.627223,0.141515 1.11469,-0.303042 1.5625,-0.90625 l -.2188,-.3125 .4062,.0312 c 0.106905,-0.158047 0.236573,-0.301039 0.34375,-0.46875 0.491056,-0.768803 1.09664,-1.72663 1.6875,-1.78125 0.293115,-0.02722 0.640923,0.177501 1.03125,0.59375 0.03436,0.04163 0.09365,0.05522 0.15625,0.125 l .125,.1562 .6562,.75 h 0.03125 c 0.0081,0.0077 0.01879,0.01905 0.03125,0.03125 v 0.03125 c 0.0057,0.0056 0.03125,0 0.03125,0 0.01728,0.01422 0.866816,0.738937 1.9375,1.90625 l 3.2188,-3.2812 c -0.652243,-0.991961 -1.4375,-2.21875 -1.4375,-2.21875 -0.0013,-0.0018 -0.0625,-0.09375 -0.0625,-0.09375 -0.0017,-0.0018 -0.01929,-0.01844 -0.03125,-0.03125 -0.280339,-0.305521 -0.65464,-0.798385 -0.75,-1.25 -0.04333,-0.206644 -0.0086,-0.38571 0.0625,-0.53125 0.199138,-0.407525 1.23803,-1.30014 6.34375,-0.78125 -0.197846,-0.528493 -0.39681,-1.14364 -0.34375,-1.59375 -0.01654,-0.01148 -0.08905,-0.0593 -0.09375,-0.0625 0.0018,-0.02389 0,-0.0625 0,-0.0625 l -.1562,-.3125 c -0.000472,-0.000314 -0.420957,-0.298822 -0.5625,-0.40625 -0.0087,-0.0096 -0.09375,-0.09375 -0.09375,-0.09375 -0.03745,-0.03804 -0.09375,-0.0625 -0.09375,-0.0625 l -.0625,-.0312 -.0625,-.0625 c 0.000595,0.00029 -0.13098,-0.03141 -0.21875,-0.0625 -0.560399,-0.263027 -2.25764,-0.98659 -4.5,-0.90625 z  m 10.5,1.6562 l -.2188,.125 -2.3125,1.1562 c -0.80837,0.352928 -0.81001,1.5039 -0.78125,2 l -9,9 -1.1875,-1.1562 -1.625,.5938 .125,.4375 c 0.01204,0.04461 0.266522,1.08289 -0.59375,1.71875 -1.81091,1.33855 -5.78044,3.97251 -5.96875,6.5 -0.03425,0.457911 0.104988,0.854988 0.40625,1.15625 l .6562,.6562 c 0.301448,0.300892 0.730145,0.43995 1.1875,0.40625 2.52768,-0.188868 5.09876,-4.15803 6.4375,-5.96875 0.635669,-0.860274 1.70556,-0.57435 1.75,-0.5625 l .4375,.0938 .1562,-.4062 .4375,-1.25 -.2188,-.1875 -.9062,-.9375 8.9688,-9 c 0.469098,0.02511 1.64529,0.0022 2,-0.8125 v -0.03125 l 1.2812,-2.5 -.3125,-.3125 -.7188,-.7188 z  m -6.4062,9.9688 -3.0312,3.0625 c 0.583953,0.87202 1.13462,1.82826 1.5625,2.84375 h 0.03125 v 0.03125 c 0.07591,0.152945 1.87691,3.74338 3.1875,4.9375 0.0024,0.0033 0.03125,0 0.03125,0 v 0.03125 c 0.210347,0.238493 0.54092,0.38329 0.90625,0.40625 0.71603,0.04518 1.60449,-0.355729 2.40625,-1.0625 0.802873,-0.707698 1.32982,-1.56707 1.375,-2.28125 0.0022,-0.03388 0,-0.06061 0,-0.09375 0,-0.101285 -0.01141,-0.18774 -0.03125,-0.28125 -0.04296,-0.204421 -0.150338,-0.383859 -0.28125,-0.53125 0,0 -0.04139,-0.04307 -0.0625,-0.0625 -0.710846,-1.05933 -3.84641,-4.54121 -5.28125,-5.78125 -0.01061,-0.01612 -0.564501,-0.841591 -0.8125,-1.21875 z "/>
</g>
</g>
</svg>
