<svg width="48" version="1.1" xmlns="http://www.w3.org/2000/svg" height="48">
<g id="g7" transform="translate(0,1)">
<path style="opacity:.65;fill:#fff" id="rect4154" d="M 3,1 V 12 H 45 V 4 H 23 V 1 Z"/>
<path id="folderTab" d="M 4,3 V 16 H 44 V 6 H 22 V 3 Z" transform="translate(0,-1)"/>
<path style="fill:#fff" id="folderPaper" d="m 6,8 h 36 v 33 h -36 Z "/>
<path style="fill:#5e87b2" id="folderFront" d="m 2,11 h 44 v 32 h -44 Z "/>
</g>
<g style="fill:#fff" id="layer1" transform="matrix(1.1818691,0,0,1.1818691,-1.4100149,-2.5804966)">
<path id="path39063" d="m 27.7642,15.3668 c 0,5.78237 -0.898378,9.33414 -5.22617,10.8098 v 6.53726 c 0,1.60126 4.22563,0.622046 4.26244,2.89118 h -10.601 c 0.01801,-2.29164 4.26244,-1.31287 4.26244,-2.89118 V 26.1766 C 15.97396,24.70089 15.23574,21.14912 15.23574,15.3668 Z"/>
</g>
</svg>
