<svg width="48" version="1.1" xmlns="http://www.w3.org/2000/svg" height="48">
<g id="g7" transform="translate(0,1)">
<path style="opacity:.65;fill:#fff" id="rect4154" d="M 3,1 V 12 H 45 V 4 H 23 V 1 Z"/>
<path id="folderTab" d="M 4,3 V 16 H 44 V 6 H 22 V 3 Z" transform="translate(0,-1)"/>
<path style="fill:#fff" id="folderPaper" d="m 6,8 h 36 v 33 h -36 Z "/>
<path style="fill:#5e87b2" id="folderFront" d="m 2,11 h 44 v 32 h -44 Z "/>
</g>
<path style="fill:#fff;stroke:none" id="path3813" d="m 23.8601,20.25 c -1.32389,0 -2.39961,0.998535 -2.39961,2.23512 0.0032,0.141714 0.0046,0.307524 0.01935,0.483791 -0.209516,0.111778 -0.235265,0.546264 -0.04838,0.986934 0.07206,0.169927 0.171603,0.313912 0.270923,0.425737 0.0032,0.0037 0.0063,0.006 0.0097,0.0097 0.0237,0.116429 0.03907,0.207322 0.06773,0.338653 0.08882,0.266669 0.460536,0.768595 0.783742,1.1998 0.03223,0.332643 0.03582,0.656942 -0.02904,1.03531 -0.523708,0.434831 -1.49598,0.742475 -2.25447,1.06434 -0.27283,-0.125448 -0.520187,-0.262489 -0.696659,-0.41606 -0.0279,-0.229733 -0.02388,-0.460709 -0.0097,-0.686984 0.220391,-0.340229 0.506801,-0.775197 0.58055,-0.996611 0.02711,-0.114663 0.037,-0.191812 0.05806,-0.290273 0.06509,-0.07961 0.126122,-0.176993 0.174165,-0.290276 0.133106,-0.313862 0.11631,-0.614106 -0.01935,-0.71601 0.0094,-0.136376 0.02506,-0.260802 0.02903,-0.377359 0,-0.927433 -0.806788,-1.68359 -1.7997,-1.68359 -0.992915,0 -1.7997,0.756164 -1.7997,1.68359 0.0025,0.106285 0.0083,0.225805 0.01935,0.358007 -0.157138,0.08383 -0.178869,0.404857 -0.0387,0.735362 0.05404,0.127442 0.128702,0.235435 0.203193,0.319302 0.0025,0.0028 0.0072,0.007 0.0097,0.0097 0.01777,0.08732 0.02687,0.153073 0.04838,0.251571 0.06662,0.200001 0.338144,0.576448 0.580549,0.899853 0.02417,0.24948 0.02929,0.499959 -0.01935,0.783742 -0.697725,0.579317 -2.47969,0.832285 -2.47701,1.43202 l -.2419,1.5675 c 0,0.319475 0.479381,0.60544 1.2385,0.803093 l .1064,.4257 a 0.261069,0.26127 0 0,0 0.164489,0.174166 c 0.0337,0.01303 0.0528,0.04091 0.145137,0.06773 0.486451,0.141334 1.22809,0.241896 2.06095,0.241896 0.784784,0 1.48758,-0.09419 1.97387,-0.222544 l .1258,.5128 a 0.348092,0.348359 0 0,0 0.212868,0.232221 c 0.04493,0.0174 0.08006,0.0513 0.203193,0.08708 0.648601,0.188448 1.63746,0.319302 2.74793,0.319302 1.11048,0 2.10901,-0.130854 2.75761,-0.319302 0.123127,-0.03578 0.158265,-0.06969 0.203192,-0.08708 a 0.348092,0.348359 0 0,0 0.203193,-0.222542 l .1451,-.5128 c 0.485032,0.12651 1.17662,0.212868 1.95452,0.212868 0.832858,0 1.58418,-0.10056 2.07063,-0.241894 0.09235,-0.02685 0.111444,-0.05469 0.145138,-0.06773 a 0.261069,0.26127 0 0,0 0.154814,-0.16449 l .1355,-.4451 c 0.740577,-0.197345 1.20948,-0.478442 1.20948,-0.793418 l -.2419,-1.5675 c -0.0029,-0.513293 -1.79752,-0.832286 -2.48669,-1.43202 -0.0279,-0.229734 -0.02388,-0.46071 -0.0097,-0.686985 0.220391,-0.340229 0.506801,-0.775195 0.58055,-0.99661 0.0271,-0.114664 0.03701,-0.191812 0.05805,-0.290275 0.06509,-0.07961 0.126122,-0.176991 0.174165,-0.290274 0.133105,-0.313862 0.11631,-0.614107 -0.01935,-0.716012 0.0094,-0.136375 0.02506,-0.260801 0.02904,-0.377357 0,-0.927433 -0.806789,-1.68359 -1.7997,-1.68359 -0.992914,0 -1.7997,0.756164 -1.7997,1.68359 0.0025,0.106285 0.0083,0.225804 0.01935,0.358005 -0.157136,0.08383 -0.178866,0.40486 -0.0387,0.735364 0.05404,0.127442 0.128702,0.235433 0.203192,0.319302 0.0025,0.0028 0.0072,0.007 0.0097,0.0097 0.01778,0.08732 0.02687,0.153074 0.04838,0.251572 0.06662,0.2 0.338144,0.576448 0.58055,0.899852 0.02417,0.249481 0.02929,0.49996 -0.01935,0.783742 -0.1992,0.165393 -0.483941,0.297024 -0.793419,0.425737 -0.746481,-0.314987 -1.66298,-0.643492 -2.15771,-1.07402 -0.0372,-0.306313 -0.03829,-0.607827 -0.01935,-0.909527 0.293855,-0.453637 0.685411,-1.03037 0.783742,-1.32559 0.03614,-0.152888 0.04934,-0.255752 0.07742,-0.387032 0.08678,-0.106148 0.168163,-0.235989 0.232219,-0.387035 0.177475,-0.418478 0.161532,-0.822032 -0.01935,-0.957907 0.01264,-0.181833 0.02374,-0.35741 0.02903,-0.512817 -4.5e-05,-1.23659 -1.07576,-2.23513 -2.39965,-2.23513 z "/>
<rect width="20" x="14" y="16.999983" rx="3.0233593e-07" height="20" ry="3.0233593e-07" style="fill:none;fill-rule:evenodd;stroke:#fff;color:#000" id="rect3875"/>
</svg>
