<svg width="48" version="1.1" xmlns="http://www.w3.org/2000/svg" height="48">
<g id="g7" transform="translate(0,1)">
<path style="opacity:.65;fill:#fff" id="rect4154" d="M 3,1 V 12 H 45 V 4 H 23 V 1 Z"/>
<path id="folderTab" d="M 4,3 V 16 H 44 V 6 H 22 V 3 Z" transform="translate(0,-1)"/>
<path style="fill:#fff" id="folderPaper" d="m 6,8 h 36 v 33 h -36 Z "/>
<path style="fill:#5e87b2" id="folderFront" d="m 2,11 h 44 v 32 h -44 Z "/>
</g> 67,4.3291577)"> <rect width="22.00351" x="13.317569" y="19.49649" height="22.00351" style="fill:#fff" id="rect3280"/>
<g style="fill:#5e87b2" id="g4176" transform="matrix(0.73345034,0,0,0.73345034,6.7165158,-725.22111)">
<rect width="4" x="32.035389" y="1019.362" height="20" id="rect3340"/>
<rect width="4" x="22" y="1019.362" height="20" id="rect3330"/>
<rect width="4" x="11.965413" y="1019.362" height="20" id="rect3334"/>
</g>
<g style="fill:#fff" id="g16" transform="translate(0,1.2995167)">
<g id="g4181" transform="matrix(0.73345034,0,0,0.73345034,6.7165158,-726.52063)">
<rect width="36" x="5.9999995" y="1015.3622" height="7" id="rect3282"/>
<path id="path3376" d="m 17,4 -2,5 v 2 h 2 V 9 Z m 14,0 v 5 2 h 2 V 9 Z" transform="translate(0,1004.3622)"/>
</g>
<path id="path3381" d="m 19.1852,13.063 v 3.6673 H 29.4535 V 13.063 Z"/>
</g>
</svg>
