<svg width="48" version="1.1" xmlns="http://www.w3.org/2000/svg" height="48">
<path style="opacity:.65;fill:#fff" d="M 3,2 V 13 H 45 V 5 H 23 V 2 Z"/>
<path d="M 4,3 V 16 H 44 V 6 H 22 V 3 Z"/>
<path style="fill:#fff" d="M 6,9 H 42 V 42 H 6 Z"/>
<path style="fill:#5e87b2" d="M 2,12 H 46 V 44 H 2 Z"/>
<path style="fill:#fff" d="m 20.9504,14.4898 c -2.30969,0.39049 -3.25853,1.48377 -3.25853,3.36143 v 2.46962 h 6.51706 v 1.7577 h -6.51706 -3.03595 c -1.89103,0 -3.62288,1.36261 -4.08174,3.29283 -0.458861,1.93022 -0.515342,2.89482 0,5.11995 0.446636,1.93005 1.5733,3.29283 3.46433,3.29283 h 2.22952 v -2.98413 c 0,-2.14764 1.87514,-4.04744 4.08174,-4.04744 h 6.48311 c 1.80913,0 3.25835,-1.47597 3.25835,-3.29283 v -5.60857 c 0,-1.76336 -1.35004,-3.01509 -3.25853,-3.36143 -1.90849,-0.346342 -3.57262,-0.39049 -5.88231,0 z m -0.4116,1.715 c 0.672096,0 1.20051,0.548929 1.20051,1.23481 0,0.683451 -0.528415,1.23481 -1.20051,1.23481 -0.674506,0 -1.23481,-0.551361 -1.23481,-1.23481 0,-0.685882 0.560306,-1.23481 1.23481,-1.23481 z m 11.2763,5.5731 v 2.88123 c 0,2.24006 -2.21623,4.11604 -4.38189,4.11604 h -5.88292 c -1.78022,0 -3.25853,1.51003 -3.25853,3.29283 v 5.60871 c 0,1.76335 1.36871,2.77137 3.25853,3.32713 1.88982,0.55576 3.94878,0.547841 5.88292,0 1.93414,-0.547841 3.25853,-1.44947 3.25853,-3.32713 v -2.46962 h -6.48276 v -1.72372 h 6.48276 3.55868 c 1.89103,0 2.58075,-1.01982 3.25853,-2.99283 0.482621,-1.40489 0.476275,-3.4903 0,-5.4198 -0.464835,-1.88315 -1.3651,-3.29283 -3.25853,-3.29283 z M 27.845,36.8534 c 0.674507,0 1.23481,0.551361 1.23481,1.23481 0,0.685881 -0.560306,1.23481 -1.23481,1.23481 -0.672097,0 -1.23481,-0.548931 -1.23481,-1.23481 0,-0.68345 0.562714,-1.23481 1.23481,-1.23481 z"/>
</svg>
