<svg width="48" version="1.1" xmlns="http://www.w3.org/2000/svg" height="48">
<path style="opacity:.65;fill:#fff" d="M 3,2 V 13 H 45 V 5 H 23 V 2 Z"/>
<path d="M 4,3 V 16 H 44 V 6 H 22 V 3 Z"/>
<path style="fill:#fff" d="M 6,9 H 42 V 42 H 6 Z"/>
<path style="fill:#5e87b2" d="M 2,12 H 46 V 44 H 2 Z"/>
<g style="fill:#fff">
<path d="m 19.525,16.947 a 5.5,5.5 0 0 0 -5.5,5.5 5.5,5.5 0 0 0 5.5,5.5 5.5,5.5 0 0 0 5.5,-5.5 5.5,5.5 0 0 0 -5.5,-5.5 z m 0,2 a 3.5,3.5 0 0 1 3.5,3.5 3.5,3.5 0 0 1 -3.5,3.5 3.5,3.5 0 0 1 -3.5,-3.5 3.5,3.5 0 0 1 3.5,-3.5 z"/>
<path style="color:#000" d="m 25.2188,26.7363 -1.4121,1.416 8.8379,8.8027 1.4102,-1.418 z "/>
</g>
</svg>
