<svg width="48" version="1.1" xmlns="http://www.w3.org/2000/svg" height="48">
<path style="opacity:.65;fill:#fff;stroke:none" id="rect4154" d="m 3,1.959 0,9.342 42,0 0,-6.9866 -22,0 0,-2.3555 z"/>
<defs id="defs12"/>
<g id="folderLayer">
<g style="stroke:none" id="g3053" transform="matrix(1,0,0,1.1773318,0,-5.2823341)">
<rect width="18" x="4" y="6.9996953" height="10" id="folderTab"/>
<rect width="40" x="4" y="9" height="30" id="folderBackground"/>
<rect width="35.999992" x="6" y="10.9998" height="27.999756" style="fill:#fff" id="folderPaper"/>
<rect width="43.999996" x="2" y="12.999983" height="28.000008" style="fill:#5e87b2" id="folderFront"/>
</g>
</g>
<path style="fill:#fff;stroke:none" id="path39063" d="m 24,14.2476 c 2.1744,5.10269 2.6904,6.69454 9.03125,18.5 -0.801754,-0.48139 -1.84466,-0.907968 -3.28125,-1.28125 2.09006,1.07275 3.11141,2.05112 4.09375,2.8125 0.623646,1.15644 1.29961,2.37173 2.03125,3.71875 -3.70891,-2.14122 -6.59438,-3.47372 -9.28125,-4 0.08928,-0.404401 0.14504,-0.85929 0.15625,-1.3125 0.05969,-2.40986 -1.10874,-4.46792 -2.59375,-4.59375 -1.48502,-0.125827 -2.75281,1.7464 -2.8125,4.15625 v 0.125 c -0.0045,0.566167 0.07091,1.09207 0.1875,1.59375 -2.71697,0.511048 -5.64548,1.8601 -9.40625,4.03125 4.78575,-8.59902 7.15099,-13.0778 8.65625,-16.2188 0.787803,0.66254 1.86081,1.30156 3.40625,1.9375 -1.43748,-1.00538 -2.34136,-1.89185 -3.0625,-2.65625 1.17616,-2.513 1.81861,-4.22251 2.875,-6.8125 z "/>
</svg>
