<?xml version="1.0" encoding="UTF-8" standalone="no"?>
<!-- Created with Inkscape (http://www.inkscape.org/) -->

<svg
   xmlns:dc="http://purl.org/dc/elements/1.1/"
   xmlns:cc="http://creativecommons.org/ns#"
   xmlns:rdf="http://www.w3.org/1999/02/22-rdf-syntax-ns#"
   xmlns:svg="http://www.w3.org/2000/svg"
   xmlns="http://www.w3.org/2000/svg"
   xmlns:sodipodi="http://sodipodi.sourceforge.net/DTD/sodipodi-0.dtd"
   xmlns:inkscape="http://www.inkscape.org/namespaces/inkscape"
   width="48"
   height="48"
   id="svg865"
   version="1.1"
   inkscape:version="0.48.5 r10040"
   sodipodi:docname="folder-tux.svg">
   <path style="opacity:.65;fill:#fff;stroke:none" id="rect4154" d="m 3,1.959 0,9.342 42,0 0,-6.9866 -22,0 0,-2.3555 z"/>
  <defs
     id="defs867" />
  <sodipodi:namedview
     id="base"
     pagecolor="#ffffff"
     bordercolor="#666666"
     borderopacity="1.0"
     inkscape:pageopacity="0.0"
     inkscape:pageshadow="2"
     inkscape:zoom="12.775946"
     inkscape:cx="-2.437784"
     inkscape:cy="13.77171"
     inkscape:document-units="px"
     inkscape:current-layer="folderLayer"
     showgrid="true"
     inkscape:window-width="1873"
     inkscape:window-height="1056"
     inkscape:window-x="47"
     inkscape:window-y="0"
     inkscape:window-maximized="1"
     borderlayer="true"
     inkscape:showpageshadow="false"
     showguides="false"
     inkscape:guide-bbox="true">
    <sodipodi:guide
       position="0,39.000017"
       orientation="30,0"
       id="guide4110" />
    <sodipodi:guide
       position="30,39.000017"
       orientation="0,-30"
       id="guide4116" />
    <sodipodi:guide
       position="30,9.0000174"
       orientation="0,18"
       id="guide4120" />
    <sodipodi:guide
       position="48,9.0000174"
       orientation="-30,0"
       id="guide4122" />
    <sodipodi:guide
       position="48,39.000017"
       orientation="0,-18"
       id="guide4124" />
    <sodipodi:guide
       position="4,41.000017"
       orientation="34,0"
       id="guide4164" />
    <sodipodi:guide
       position="22,41.000017"
       orientation="0,-18"
       id="guide4170" />
    <sodipodi:guide
       position="6,37.0002"
       orientation="27.999817,0"
       id="guide4174" />
    <sodipodi:guide
       position="6,9.0003836"
       orientation="0,35.999992"
       id="guide4176" />
    <sodipodi:guide
       position="41.999992,9.0003836"
       orientation="-27.999817,0"
       id="guide4178" />
    <sodipodi:guide
       position="41.999992,37.0002"
       orientation="0,-35.999992"
       id="guide4180" />
    <sodipodi:guide
       position="14,31.000017"
       orientation="20,0"
       id="guide4221" />
    <sodipodi:guide
       position="34,11.000017"
       orientation="-20,0"
       id="guide4225" />
    <sodipodi:guide
       position="34,31.000017"
       orientation="0,-20"
       id="guide4227" />
    <sodipodi:guide
       position="14,31.000017"
       orientation="11,0"
       id="guide4412" />
    <sodipodi:guide
       position="14,20.000017"
       orientation="6.123234e-17,1"
       id="guide4414" />
    <sodipodi:guide
       position="25,20.000017"
       orientation="-11,0"
       id="guide4416" />
    <sodipodi:guide
       position="25,31.000017"
       orientation="0,-11"
       id="guide4418" />
    <sodipodi:guide
       position="25,20.000017"
       orientation="9,0"
       id="guide4420" />
    <sodipodi:guide
       position="25,11.000017"
       orientation="0,9"
       id="guide4422" />
    <sodipodi:guide
       position="34,11.000017"
       orientation="-9,0"
       id="guide4424" />
    <sodipodi:guide
       position="34,20.000017"
       orientation="0,-9"
       id="guide4426" />
    <sodipodi:guide
       position="23.000001,35.000017"
       orientation="-1.9999999,0"
       id="guide4068" />
    <sodipodi:guide
       position="23.000001,37.000017"
       orientation="0,2"
       id="guide4070" />
    <sodipodi:guide
       position="25,37.000017"
       orientation="1.9999999,0"
       id="guide4072" />
    <sodipodi:guide
       position="25,35.000017"
       orientation="0,-2"
       id="guide4074" />
    <sodipodi:guide
       orientation="0,1"
       position="-5.0900019,45.012788"
       id="guide3049" />
    <sodipodi:guide
       orientation="0,1"
       position="14,5.0286766"
       id="guide3051" />
    <sodipodi:guide
       orientation="1,0"
       position="18.481902,18.990154"
       id="guide3071" />
  </sodipodi:namedview>
  <metadata
     id="metadata870">
    <rdf:RDF>
      <cc:Work
         rdf:about="">
        <dc:format>image/svg+xml</dc:format>
        <dc:type
           rdf:resource="http://purl.org/dc/dcmitype/StillImage" />
        <dc:title></dc:title>
      </cc:Work>
    </rdf:RDF>
  </metadata>
  <g
     inkscape:groupmode="layer"
     id="folderLayer"
     inkscape:label="folder">
    <g
       id="g3910"
       transform="matrix(1.0181857,0,0,1.0181857,-0.43645647,-0.41778786)"
       style="opacity:0.3" />
    <g
       id="g3053"
       transform="matrix(1,0,0,1.1773318,0,-5.2823341)">
      <rect
         style="fill:#000000;fill-opacity:1;stroke:none"
         id="folderTab"
         width="18"
         height="10"
         x="4"
         y="6.9996953" />
      <rect
         y="9"
         x="4"
         height="30"
         width="40"
         id="folderBackground"
         style="fill:#000000;fill-opacity:1;stroke:none" />
      <rect
         y="10.9998"
         x="6"
         height="27.999756"
         width="35.999992"
         id="folderPaper"
         style="fill:#ffffff;fill-opacity:1;stroke:none" />
      <rect
         style="fill:#5e87b2;fill-opacity:1;stroke:none"
         id="folderFront"
         width="43.999996"
         height="28.000008"
         x="2"
         y="12.999983" />
    </g>
    <rect
       y="7.6680799"
       x="6"
       height="32.965004"
       width="35.999992"
       id="rect3849"
       style="fill:#ffffff;fill-opacity:1;stroke:none" />
    <rect
       style="fill:#5e87b2;fill-opacity:1;stroke:none"
       id="rect3851"
       width="43.999996"
       height="32.965298"
       x="2"
       y="10.022959" />
    <rect
       style="fill:none;stroke:none"
       id="rect3265"
       width="30"
       height="30"
       x="9.380971"
       y="11.101083" />
    <g
       id="g3930"
       transform="matrix(0.85183062,0,0,0.85183062,3.3975598,2.9220396)">
      <path
         d="m 8.2524263,11.268767 c -0.828722,0 -1.49896,0.705695 -1.49896,1.58177 v 24.7369 c 0,0.876077 0.670235,1.58177 1.49896,1.58177 H 40.119726 c 0.82872,0 1.49896,-0.705695 1.49896,-1.58177 v -24.7369 c 0,-0.876077 -0.670237,-1.58177 -1.49896,-1.58177 z m 1.4575,1.9941 c 0.04515,0.0062 1.0216697,-4.5e-5 1.0682497,0 l 27.7432,0.0266 c 1.3032,0.0013 1.34161,0.03841 1.34161,1.34161 v 21.0516 c 0,1.3032 0.03132,1.34161 -1.34161,1.34161 H 9.8507763 c -1.37293,0 -1.34161,-0.03841 -1.34161,-1.34161 v -21.0516 c 0,-1.18688 0.172088,-1.50877 1.20082,-1.36824 z"
         id="rect2459"
         style="fill:#ffffff;fill-opacity:1;fill-rule:evenodd;stroke:none"
         inkscape:connector-curvature="0" />
      <path
         d="m 17.891426,18.374967 c -1.12485,0 -2.09375,0.5 -2.09375,0.5 0,0 1.61727,0.8439 2.25,1.96875 0.632728,1.12485 0.84375,5.625 0.84375,5.625 h 14.625 c 0,0 0.218562,-5.35174 -1.1875,-6.6875 -1.33401,-1.2673 -3.25,-0.96875 -3.25,-0.96875 l -0.0625,0.5625 c 0,0 -0.703294,-0.492197 -1.96875,-0.5625 -1.26546,-0.0703 -2.1875,0.0625 -2.1875,0.0625 l 0.4375,0.4375 c 0,0 -1.78148,-0.71875 -3.46875,-0.71875 -1.68727,0 -2.03125,0.0625 -2.03125,0.0625 l 0.625,0.375 c 0,0 -1.4064,-0.65625 -2.53125,-0.65625 z m 0.6562,9.125 v 4.9375 c 0,1.06658 0.837447,1.9375 1.875,1.9375 h 3.5625 c -0.261807,2.69771 -0.786174,4.71809 -0.65625,7.0625 0.08138,1.46853 1.31759,3.375 3.28125,3.375 1.75863,0 3.0336,-1.74695 3.15625,-3.5 0.136779,-1.95504 -0.714699,-4.23467 -1.09375,-6.9375 h 3.3125 c 1.03756,0 1.875,-0.870921 1.875,-1.9375 v -4.9375 h -15.3125 z"
         id="path4900"
         style="color:#000000;fill:#ffffff;fill-opacity:1;stroke:none"
         inkscape:connector-curvature="0" />
    </g>
  </g>
</svg>
