<svg width="48" version="1.1" xmlns="http://www.w3.org/2000/svg" height="48">
<path style="opacity:.65;fill:#fff;stroke:none" id="rect4154" d="m 3,1.959 0,9.342 42,0 0,-6.9866 -22,0 0,-2.3555 z"/>
<g id="folderLayer">
<g style="stroke:none">
<g id="g3053" transform="matrix(1,0,0,1.1773318,0,-5.2823341)">
<rect width="18" x="4" y="6.9996953" height="10" id="folderTab"/>
<rect width="40" x="4" y="9" height="30" id="folderBackground"/>
<rect width="35.999992" x="6" y="10.9998" height="27.999756" style="fill:#fff" id="folderPaper"/>
<rect width="43.999996" x="2" y="12.999983" height="28.000008" style="fill:#5e87b2" id="folderFront"/>
</g>
<rect width="35.999992" x="6" y="7.6680799" height="32.965004" style="fill:#fff" id="rect3849"/>
<rect width="43.999996" x="2" y="10.022959" height="32.965298" style="fill:#5e87b2" id="rect3851"/>
<rect width="30" x="9.380971" y="11.101083" height="30" style="fill:none" id="rect3265"/>
<g style="fill:#fff">
<path id="rect5696" d="m 13.6424,19.7192 c -1.52696,0 -1.93467,0.455901 -1.93467,1.93467 v 15.2676 c 0,0.758764 0.616484,1.37525 1.37525,1.37525 h 19.7663 c 0.758764,0 1.35194,-0.616483 1.35194,-1.37525 v -15.2209 c 0,-1.81001 -0.262746,-1.98129 -1.91136,-1.98129 z  m 2.0464,3.3798 14.5773,0 c 0.156216,0 0.279711,0.123495 0.279711,0.279711 v 2.29678 c 0,0.156217 -0.123495,0.303021 -0.279711,0.303021 h -14.5773 c -0.156216,0 -0.279711,-0.146804 -0.279711,-0.303021 v -2.29678 c 0,-0.156216 0.123495,-0.279711 0.279712,-0.279711 z  m -1.8133,5.7139 18.1812,0 c 0.266083,0 0.489495,0.223412 0.489495,0.489495 v 6.82652 c 0,0.266083 -0.223412,0.466186 -0.489495,0.466186 h -18.1812 c -0.266082,0 -0.466185,-0.200103 -0.466185,-0.466186 v -6.82652 c 0,-0.266083 0.200103,-0.489495 0.466186,-0.489495 z "/>
<rect width="1.6885724" x="34.603653" y="24.222994" rx="0.40902433" height="6.191433" ry="0.40902439" id="rect5746"/>
<path id="path3188" d="m 33.677,14.4121 c 0.09137,0.826609 -0.504668,1.57077 -1.33128,1.66214 -0.826608,0.09136 -1.57077,-0.504667 -1.66214,-1.33128 -0.09136,-0.826609 0.504669,-1.57077 1.33128,-1.66214 0.826608,-0.09136 1.57077,0.504667 1.66214,1.33128 z "/>
<path id="path3046" d="m 24.0373,-25.3051 .0023,18.4221 -1.2794,.1921 .0019,-18.6861 z " transform="matrix(0.29798473,0.95457064,-0.95773198,0.28766205,0,0)"/>
</g>
</g>
</g>
</svg>
