<svg width="48" version="1.1" xmlns="http://www.w3.org/2000/svg" height="48">
<path style="opacity:.65;fill:#fff" d="M 3,2 V 13 H 45 V 5 H 23 V 2 Z"/>
<path d="M 4,3 V 16 H 44 V 6 H 22 V 3 Z"/>
<path style="fill:#fff" d="M 6,9 H 42 V 42 H 6 Z"/>
<path style="fill:#5e87b2" d="M 2,12 H 46 V 44 H 2 Z"/>
<path style="fill:#fff" d="m 24,14 a 14,14 0 0,0 -6.53516,1.6582 h 2.71484 v 0.183594 c -0.371305,0.01773 -0.622148,0.115808 -0.75586,0.292969 -0.282235,-0.1948 -0.558749,-0.292969 -0.826172,-0.292969 h -0.912109 l -.5137,.0801 -.0703,-.0645 a 14,14 0 0,0 -1.09375,0.68164 c 0.776798,1.11627 1.24972,2.08274 1.41016,2.89258 h 0.757812 v 0.183593 h -0.578125 v 0.212891 c 0.222783,0.814901 0.386353,1.22266 0.490235,1.22266 h 0.175781 l .4023,-.1055 .0879,.1055 .0898,-.1055 .0898,.1055 v 0.080078 c -0.297046,0.212588 -0.497681,0.505017 -0.601563,0.876953 h -0.068359 v 0.1875 h 0.15625 c 0.207973,2.95808 0.593527,5.2001 1.1582,6.72266 l .3359,.2637 h 0.177735 c 0.222783,0 0.689146,-1.03515 1.40234,-3.10742 0.46048,-0.938801 0.796038,-1.76361 1.00391,-2.47266 l -.0879,-.293 c 0.460481,-0.69088 0.935783,-1.03516 1.42578,-1.03516 h 0.15625 c 0.311854,0 0.532406,0.194384 0.666015,0.583984 0.415842,0.58465 0.751398,1.46156 1.00391,2.63086 l 1.2461,2.7637 c 0.163333,0.194925 0.246094,0.418102 0.246094,0.666016 0.460376,1.04516 0.876951,1.73445 1.24805,2.07031 h 0.267578 c 0.311854,0 0.726478,-1.29471 1.24609,-3.88086 0.0891,0 0.333347,-0.688795 0.734375,-2.07031 v -0.105468 l -1.4023,-.1875 -.334,.1074 h -0.423828 v -0.21289 l .8457,-.0801 h 1.64844 c 0.638622,-2.28511 1.22666,-4.05684 1.76172,-5.31445 0.05539,-0.803589 0.119217,-1.46751 0.1875,-2.02148 a 14,14 0 0,0 -8.93359,-3.22266 z  m 8.9336,3.2227 a 14,14 0 0,1 2.01367,2.05664 l .3848,-3.252 c -0.05945,-0.761664 -0.342638,-1.14255 -0.847656,-1.14258 h -0.001953 l -1,.4805 c -0.215023,0 -0.39736,0.628572 -0.548828,1.85742 z  m 2.0137,2.0566 l -.0391,.3359 h 0.15625 l .0898,-.0703 a 14,14 0 0,0 -0.207031,-0.265625 z  m .207,.2656 a 14,14 0 0,1 0.09375,0.121094 c 0.07936,-0.09418 0.159972,-0.175705 0.240234,-0.234375 v -0.080079 h -0.089843 l -.2441,.1934 z  m .0938,.1211 c -0.375937,0.446174 -0.74172,1.28545 -1.09766,2.5293 -0.163437,1.29369 -0.438,2.48754 -0.824219,3.58594 -0.341684,1.13372 -0.513672,2.18013 -0.513672,3.13672 l -.6445,1.8867 c 0,0.15947 0.24623,0.319042 0.736328,0.478515 -0.08914,0.372062 -0.224096,0.556641 -0.402344,0.556641 v 0.107422 h 0.15625 v 0.078125 c 0,0.194924 -0.252796,0.292968 -0.757812,0.292968 l .0879,.1074 v 0.371094 h -0.15625 c 0.103955,0.372063 0.328339,0.558594 0.669922,0.558594 v 0.1875 h -0.669922 v 0.105469 c 0.222782,0 0.335938,0.15774 0.335938,0.476562 l -.9375,.373 .0918,.1074 v 0.078125 c 0,0.124009 -0.111201,0.185547 -0.333985,0.185547 v 0.107421 c 0.282234,0 0.42177,0.06159 0.421875,0.185547 -0.401029,0.159472 -0.92818,0.946313 -1.58203,2.36328 -0.668351,1.25762 -1.24612,1.88867 -1.73633,1.88867 h -0.179688 c -0.371304,-0.283492 -0.674517,-1.22243 -0.912109,-2.81641 -0.950586,-2.42692 -1.42578,-3.85192 -1.42578,-4.27734 0,-1.09827 -0.30701,-2.26761 -0.916016,-3.50781 -0.163437,-0.549197 -0.272685,-1.23983 -0.332031,-2.07227 l -.4023,-.1074 c -1.01004,1.82485 -1.53718,3.24985 -1.58203,4.27734 -0.282235,0.602313 -0.504638,1.32883 -0.667969,2.17969 0.609003,0.194925 0.912109,0.38341 0.91211,0.560547 v 0.103515 c -0.475292,-0.07085 -0.806941,-0.201683 -1,-0.396484 -0.207972,0.478294 -0.482536,1.80625 -0.824219,3.98438 -0.26732,1.0097 -0.602979,1.51562 -1.00391,1.51562 -1.12852,-0.442841 -2.07287,-1.16949 -2.83008,-2.17969 -0.118797,0 -0.312758,-0.505424 -0.580078,-1.51562 -0.163332,0 -0.274638,-0.50347 -0.333984,-1.51367 -0.564363,-1.43426 -0.948071,-3.07375 -1.15625,-4.91602 v -2.76367 h -0.091797 l -.3984,.1055 v -0.105469 c 0,-0.123984 0.131117,-0.1875 0.398437,-0.1875 l -.0879,-1.5938 v -1.25 l -.6465,-3.9863 v -0.732422 a 14,14 0 0,0 -4.03125,9.78125 14,14 0 0,0 14,14 14,14 0 0,0 14,-14 14,14 0 0,0 -2.75195,-8.33398 z  m -21.2168,-1.4473 a 14,14 0 0,1 1.97656,-1.67969 c -0.157465,-0.22628 -0.323036,-0.458464 -0.505859,-0.697265 l .2676,.0801 .2461,-.0801 .332,.0801 .6699,-.0801 h 0.066406 l .0176,.0156 a 14,14 0 0,1 0.363282,-0.199219 h -1.96289 c -0.698287,0 -1.18847,0.530929 -1.4707,1.59375 v 0.966797 z "/>
</svg>
