<svg width="48" version="1.1" xmlns="http://www.w3.org/2000/svg" height="48">
<g id="g7" transform="translate(0,1)">
<path style="opacity:.65;fill:#fff" id="rect4154" d="M 3,1 V 12 H 45 V 4 H 23 V 1 Z"/>
<path id="folderTab" d="M 4,3 V 16 H 44 V 6 H 22 V 3 Z" transform="translate(0,-1)"/>
<path style="fill:#fff" id="folderPaper" d="m 6,8 h 36 v 33 h -36 Z "/>
<path style="fill:#5e87b2" id="folderFront" d="m 2,11 h 44 v 32 h -44 Z "/>
</g>
<path style="font-family:'Bitstream Charter';fill:#fff;text-align:start;font-style:italic;word-spacing:0;line-height:125%;font-weight:bold;letter-spacing:0;font-size:40px" id="path2987" d="m 10.2205,19.022 .1053,1.2116 2.1331,.1227 .3756,.3681 -2.2188,13.8031 -.4923,.3835 -2.1525,.1227 .1091,1.2575 9.4612,.0001 -.1088,-1.2574 -2.1121,-.1076 -.3985,-.3988 .8932,-5.7819 h 2.1429 l 3.4986,4.9078 c 1.42574,1.95707 2.37961,2.79613 5.09676,2.82212 0.781313,0.0077 1.09912,0.05111 3.20071,0 6.86436,-4.60065 10.2678,-8.1075 10.7161,-9.69306 0.271464,-0.960293 -0.342924,-1.54926 -1.54991,-1.54926 -0.588773,0 -1.2465,0.188101 -1.97202,0.567763 l -.2598,3.2974 c -1.35871,1.47392 -3.20115,3.07941 -5.47039,4.75441 l 1.0474,-6.3342 c 0.21902,-1.29538 0.268311,-1.98652 -0.862891,-2.25458 l -4.8809,.8284 -.2013,.7054 2.3081,.2762 c 0.197539,0.446598 0.105898,1.41755 -0.111055,2.91395 l -.7087,4.647 c -0.01333,0.04781 -0.01984,0.100234 -0.02713,0.153372 -0.746471,-0.293883 -1.24637,-0.817199 -1.83788,-1.61027 l -4.9187,-6.5949 7.4153,-6.104 2.6917,-.1994 -.1095,-1.2577 -8.4905,.0001 .1095,1.2578 2.1127,.1225 .2381,.4141 -7.9336,6.6562 h -1.01081 l 1.0925,-6.7482 .4128,-.3681 2.2334,-.1227 -.1053,-1.2118 z "/>
</svg>
