<svg width="48" version="1.1" xmlns="http://www.w3.org/2000/svg" height="48">
<g id="g7" transform="translate(0,1)">
<path style="opacity:.65;fill:#fff" id="rect4154" d="M 3,1 V 12 H 45 V 4 H 23 V 1 Z"/>
<path id="folderTab" d="M 4,3 V 16 H 44 V 6 H 22 V 3 Z" transform="translate(0,-1)"/>
<path style="fill:#fff" id="folderPaper" d="m 6,8 h 36 v 33 h -36 Z "/>
<path style="fill:#5e87b2" id="folderFront" d="m 2,11 h 44 v 32 h -44 Z "/>
</g>
<g style="fill:#fff" id="layer1" transform="matrix(0.83136248,0,0,0.83136248,4.0562416,9.2317717)">
<path style="fill-rule:evenodd" id="path3006" d="m 24.5,3.9375 c -0.582667,0.00468 -1.23744,0.282089 -1.8125,0.6875 -0.131272,0.069028 -0.258778,0.166994 -0.375,0.28125 -0.160146,0.137804 -0.300021,0.286279 -0.375,0.40625 -1.81736,2.52004 0.358556,7.04733 1.53125,9.625 -0.67203,4.11283 -1.74921,8.18634 -3.125,12.0938 -0.493184,1.40077 -1.05143,2.97015 -1.71875,4.53125 -3.04133,1.38008 -6.08062,2.95798 -8.59375,5.09375 -0.836836,0.711007 -1.82593,1.69464 -1.78125,2.875 0.042539,1.14211 1.73582,1.48978 2.59375,1.53125 3.82028,0.186242 6.53078,-3.69789 8.21875,-6.59375 0.360704,-0.618734 0.701346,-1.26405 1.03125,-1.90625 0.880894,-0.374253 1.74368,-0.742023 2.59375,-1.09375 2.89554,-1.19918 5.99548,-2.42546 9.125,-3.15625 0.148019,0.153253 0.286277,0.319551 0.4375,0.46875 1.09064,1.07598 2.43959,2.22396 4.0625,2.1875 1.57573,-0.03646 2.89641,-1.40637 3.3125,-2.84375 0.871153,-3.01097 -3.92326,-2.26846 -5.4375,-2 -0.292654,0.05196 -0.583164,0.12789 -0.875,0.1875 -0.52637,-0.616899 -1.01012,-1.26882 -1.46875,-1.875 C 30.17258,22.22803 28.73512,19.85032 27.4375,17.4063 26.850299,16.29898 26.29108,15.14921 25.78125,14.00005 25.83618,13.656258 25.88689,13.310731 25.9375,12.9688 26.29211,10.57483 26.778812,7.72884 26.125,5.3438 25.841705,4.30982 25.217129,3.93179 24.5,3.93755 Z m -0.8125,2.0312 c 0.124869,0.240756 0.232187,0.646995 0.28125,0.90625 0.16265,0.853952 0.19361,1.74121 0.15625,2.625 -0.218836,-0.771902 -0.4111,-1.54651 -0.5,-2.34375 -0.03682,-0.326727 -0.03396,-0.641665 0,-0.96875 0.0065,-0.061716 0.03786,-0.145834 0.0625,-0.21875 z M 25,18.1875 c 1.53732,3.09948 3.36344,6.15795 5.59375,8.78125 -3.25254,0.904516 -6.43645,2.18459 -9.5,3.5 C 22.84444,26.57773 24.10792,22.38229 25,18.18755 Z m 10.75,9.5312 c 0.723608,-0.02453 1.5824,0.04235 1.6875,0.5 0.05326,0.23307 -0.08393,0.692126 -0.28125,0.90625 -0.0125,-0.0097 -0.01621,-0.03225 -0.0625,-0.03125 -0.289192,0.0072 -0.625129,-0.154348 -0.875,-0.28125 -0.524821,-0.265038 -1.01051,-0.608714 -1.46875,-1 0.12548,-0.01453 0.249517,-0.05015 0.375,-0.0625 0.18088,-0.01796 0.383797,-0.02305 0.625,-0.03125 z m -18.125,5.9688 c -1.00777,1.9263 -2.2401,3.69822 -3.84375,4.875 -0.894746,0.656314 -2.15197,0.930622 -3.125,0.25 -0.18553,-0.129404 -0.14415,-0.26061 -0.09375,-0.375 0.119752,-0.271677 0.561592,-0.684505 0.96875,-1.03125 1.77594,-1.50888 3.89991,-2.68471 6.09375,-3.71875 z"/>
</g>
</svg>
