<svg width="48" version="1.1" xmlns="http://www.w3.org/2000/svg" height="48">
<path style="opacity:.65;fill:#fff;stroke:none" id="rect4154" d="m 3,1.959 0,9.342 42,0 0,-6.9866 -22,0 0,-2.3555 z"/>
<g id="folderLayer">
<g style="stroke:none">
<g id="g3053" transform="matrix(1,0,0,1.1773318,0,-5.2823341)">
<rect width="18" x="4" y="6.9996953" height="10" id="folderTab"/>
<rect width="40" x="4" y="9" height="30" id="folderBackground"/>
<rect width="35.999992" x="6" y="10.9998" height="27.999756" style="fill:#fff" id="folderPaper"/>
<rect width="43.999996" x="2" y="12.999983" height="28.000008" style="fill:#5e87b2" id="folderFront"/>
</g>
<rect width="35.999992" x="6" y="7.6680799" height="32.965004" style="fill:#fff" id="rect3849"/>
<rect width="43.999996" x="2" y="10.022959" height="32.965298" style="fill:#5e87b2" id="rect3851"/>
<rect width="30" x="9.380971" y="11.101083" height="30" style="fill:none" id="rect3265"/>
</g>
<g id="layer1" transform="matrix(1.1736265,0,0,1.1736265,-3.2329091,-4.3458355)">
<path style="fill:#fff;stroke:none" id="path39063" d="m 25.0625,14.3438 c 2.05199,0.02317 5.0767,0.310551 6.75,0.6875 l 0.125,0.9062 c 0.934941,-1.19693 4.16475,0.675591 7.0625,2.125 -3.94655,-0.632701 -7.43373,-0.675666 -8.875,2 -3.0282,-1.04082 -4.00543,0.4329 -0.5625,0.4375 -1.53993,1.4053 -3.23452,2.64536 -4.4375,4.46875 -3.7944,-1.55756 -1.41917,0.207466 -0.15625,0.71875 0,0 -0.823146,0.546744 -1.53125,2.5 -0.922381,2.54432 -2.28232,1.78596 -3.125,0.96875 -1.79103,-1.7369 -2.34584,-2.16996 -0.21875,0.5625 -1.18324,1.64608 -3.13969,2.97174 -6.53125,3.4375 C 12.952188,35.19923 12.75,37 12.75,37 c 0,0 -0.947245,0.408792 -1.25,0.625 -0.302755,0.216208 -0.625,0.9375 -0.625,0.9375 l -0.2812,-0.1562 c 0.495505,-2.09555 1.21347,-4.01009 2.0625,-5.8125 -0.728278,-4.52914 0.0511,-8.18023 1.34375,-10.2812 0.37155,1.27568 0.540171,2.58836 1.28125,3.78125 -1.8033,-7.67686 0.778089,-7.65639 1.3125,-8.21875 0.421685,1.81429 0.793279,3.65766 1.71875,5.4375 -0.498846,-1.80885 -0.8815,-5.51829 -0.875,-5.96875 0.01115,-0.778731 3.03803,-2.41247 4.8125,-2.53125 0.03258,0.783925 0.150652,1.54471 0.34375,2.28125 0.03892,-1.01946 0.26414,-2.0026 0.3125,-2.46875 0.02361,-0.227547 0.925055,-0.29515 2.15625,-0.28125 z"/>
</g>
</g>
</svg>
