<svg width="48" version="1.1" xmlns="http://www.w3.org/2000/svg" height="48">
<path style="opacity:.65;fill:#fff;stroke:none" id="rect4154" d="m 3,1.959 0,9.342 42,0 0,-6.9866 -22,0 0,-2.3555 z"/>
<g id="folderLayer">
<g style="stroke:none" id="g3053" transform="matrix(1,0,0,1.1773318,0,-5.2823341)">
<rect width="18" x="4" y="6.9996953" height="10" id="folderTab"/>
<rect width="40" x="4" y="9" height="30" id="folderBackground"/>
<rect width="35.999992" x="6" y="10.9998" height="27.999756" style="fill:#fff" id="folderPaper"/>
<rect width="43.999996" x="2" y="12.999983" height="28.000008" style="fill:#5e87b2" id="folderFront"/>
</g>
<path style="fill:#fff;fill-rule:evenodd;stroke:none" id="folderGlyph" d="m 19.5231,16.9471 c -2.87999,0.000171 -5.49805,2.62044 -5.49805,5.5 0,2.87956 2.61805,5.49983 5.49805,5.5 2.87999,0.000171 5.50195,-2.62012 5.50195,-5.5 0,-2.87988 -2.62196,-5.50017 -5.50195,-5.5 z  m 0,2 c 1.83272,-0.000109 3.50195,1.66735 3.50195,3.5 0,1.83265 -1.66923,3.50011 -3.50195,3.5 -1.83272,-0.000109 -3.49805,-1.66755 -3.49805,-3.5 0,-1.83245 1.66532,-3.49989 3.49805,-3.5 z  m 6.916,9 -1.4141,1.4141 7.5859,7.5859 1.4141,-1.4141 -7.5859,-7.5859 z "/>
</g>
</svg>
