<svg width="48" version="1.1" xmlns="http://www.w3.org/2000/svg" height="48">
<g id="g7" transform="translate(0,1)">
<path style="opacity:.65;fill:#fff" id="rect4154" d="M 3,1 V 12 H 45 V 4 H 23 V 1 Z"/>
<path id="folderTab" d="M 4,3 V 16 H 44 V 6 H 22 V 3 Z" transform="translate(0,-1)"/>
<path style="fill:#fff" id="folderPaper" d="m 6,8 h 36 v 33 h -36 Z "/>
<path style="fill:#5e87b2" id="folderFront" d="m 2,11 h 44 v 32 h -44 Z "/>
</g>
<path style="fill:#fff;fill-rule:evenodd" id="folderGlyph" d="m 19.0096,18.185852 v 3.9628 9.3053 c -0.463641,-0.23894 -0.970553,-0.388962 -1.4973,-0.388932 -1.82705,10e-5 -3.48722,1.65201 -3.48722,3.46749 0,1.81538 1.66017,3.46739 3.48722,3.46749 1.82705,9.9e-5 3.49111,-1.65191 3.49111,-3.46749 v -12.3839 h 10.9659 v 9.30534 c -0.463638,-0.23894 -0.970552,-0.388962 -1.4973,-0.388932 -1.82705,10e-5 -3.48722,1.65201 -3.48722,3.46749 0,1.81538 1.66017,3.46739 3.48722,3.46749 1.82705,9.9e-5 3.49111,-1.65191 3.49111,-3.46749 v -12.3839 -3.96285 h -14.9536 z"/>
</svg>
