<svg width="48" version="1.1" xmlns="http://www.w3.org/2000/svg" height="48">
<g id="g7" transform="translate(0,1)">
<path style="opacity:.65;fill:#fff" id="rect4154" d="M 3,1 V 12 H 45 V 4 H 23 V 1 Z"/>
<path id="folderTab" d="M 4,3 V 16 H 44 V 6 H 22 V 3 Z" transform="translate(0,-1)"/>
<path style="fill:#fff" id="folderPaper" d="m 6,8 h 36 v 33 h -36 Z "/>
<path style="fill:#5e87b2" id="folderFront" d="m 2,11 h 44 v 32 h -44 Z "/>
</g>
<path style="mix-blend-mode:normal;font-family:sans-serif;text-decoration-style:solid;solid-color:#000000;white-space:normal;color-interpolation-filters:linearRGB;text-transform:none;text-decoration-color:#000000;text-indent:0;text-align:start;color:#000;text-decoration-line:none;image-rendering:auto;color-rendering:auto;fill-rule:evenodd;isolation:auto;color-interpolation:sRGB;solid-opacity:1;text-rendering:auto;line-height:normal;fill:#fff;shape-rendering:auto" id="path4231" d="m 26.7002,13.0053 c -0.172448,0.01993 -0.305114,0.101385 -0.335498,0.207991 l -.0348,-.0069 -.8044,4.7874 1.0101,-.009 .78,-4.6395 c 0.001,-0.0062 -0.000324,-0.01463 0,-0.02081 0.0081,-0.146005 -0.180884,-0.289424 -0.433608,-0.31922 -0.06322,-0.0074 -0.124287,-0.0066 -0.181773,0 z  m -.1646,4.9796 -2.2377,13.3069 h 4.4668 c 1.26726,3.19043 3.31968,8.05902 2.0148,8.09988 h -13.5108 c -1.47141,0.01673 0.866706,-4.87451 2.19928,-8.09988 h 3.82386 l 2.2336,-13.2978 -4.7824,.042 -.3717,6.7131 c -0.628729,2.09668 -2.62434,6.07164 -4.02778,9.50246 -0.704465,1.72212 -1.26308,3.30502 -1.42338,4.51521 -0.08021,0.605091 -0.07154,1.12546 0.133383,1.55044 0.201212,0.417318 0.646724,0.680246 1.17198,0.681395 v 0.001439 h 0.02843 l 15.5654,-.0005 h 0.03756 v -0.000904 c 0.259693,0.0045 0.504523,-0.05262 0.703551,-0.185835 0.208725,-0.139699 0.353006,-0.350975 0.438589,-0.584634 0.171163,-0.467321 0.153204,-1.0403 0.04703,-1.71728 -0.212354,-1.35395 -0.824463,-3.13095 -1.55812,-4.99042 -0.733658,-1.85947 -1.59051,-3.79371 -2.29378,-5.41318 -0.699517,-1.61087 -1.24718,-2.945 -1.35646,-3.46169 l -.3206,-6.6693 -.9816,.0085 z  m -2.4009,13.3476 -1.2457,6.7127 c -0.0104,0.02095 -0.01965,0.04224 -0.02392,0.06512 -0.0035,0.02063 -0.0092,0.05225 -0.0081,0.07235 0.0104,0.158295 0.189401,0.234886 0.412816,0.25818 0.223414,0.02331 0.429528,-0.08182 0.497819,-0.231955 l .0163,.0073 1.2828,-6.8836 h -0.931889 z "/>
</svg>
