<svg width="48" version="1.1" xmlns="http://www.w3.org/2000/svg" height="48">
<g id="g7" transform="translate(0,1)">
<path style="opacity:.65;fill:#fff" id="rect4154" d="M 3,1 V 12 H 45 V 4 H 23 V 1 Z"/>
<path id="folderTab" d="M 4,3 V 16 H 44 V 6 H 22 V 3 Z" transform="translate(0,-1)"/>
<path style="fill:#fff" id="folderPaper" d="m 6,8 h 36 v 33 h -36 Z "/>
<path style="fill:#5e87b2" id="folderFront" d="m 2,11 h 44 v 32 h -44 Z "/>
</g>
<path style="opacity:.35;fill:#fff;stroke-width:.985" id="path3522-9" d="m 17.8576,12.038 c 0.864344,0.873636 0.05899,2.33253 1.36268,2.31803 0.634802,0.675525 -1.26523,0.201513 0.106617,0.722159 0.788909,0.467652 -0.83463,0.73485 0.142355,1.15452 -1.12602,0.437339 0.182523,2.28746 1.01888,2.75049 1.37654,0.872247 0.608773,-1.84673 2.14474,-1.98816 0.834619,-0.717176 2.30049,-1.17755 3.34152,-1.89901 -1.0174,-0.06216 -1.61149,-0.53881 -0.647965,-0.834074 1.77333,1.36775 0.444659,-0.647741 -0.536976,-0.966866 0.949852,-0.227425 1.87365,-0.06088 1.74186,-0.650833 1.00379,-0.552756 -0.964991,-0.731225 -1.66777,-0.606257 -2.33532,0 -4.67064,0 -7.00595,0 z  m -14.5628,.5706 c -1.2832,0.275169 -1.37271,2.58339 -0.08298,1.30167 0.316558,-0.526293 1.77942,-1.16055 0.08298,-1.30167 z  m 5.9958,.0803 c -0.739755,0.873104 0.107306,1.57312 0.722816,0.508184 0.43565,-0.4447 -0.323685,-0.49189 -0.722816,-0.508184 z  m 1.8485,.1962 c -1.42935,0.498642 -0.352319,1.66142 -0.316937,1.92004 1.50572,0.392079 2.34312,-0.256349 2.91274,0.851879 1.4327,0.621498 -0.02812,1.70144 -0.565989,1.98268 0.96869,-0.634999 2.83074,1.72642 2.34259,0.478824 -0.582365,-0.320055 1.56365,0.51415 0.450282,-0.526017 -1.0246,-1.24252 0.08137,-0.556264 0.513311,-0.26627 1.46922,-0.991639 -1.66237,-1.1115 -0.880652,-2.13201 -0.685012,-0.417598 -1.58342,-1.68268 -2.79645,-1.43541 -0.812024,0.790428 -0.112126,-1.72228 -1.30355,-0.464886 -0.06174,0.702876 -0.02249,1.59478 -0.369648,0.377103 -0.232618,-0.21317 0.400187,-0.708745 0.01435,-0.785941 z  m -2.9149,.0088 c -0.959463,0.240799 -0.907933,1.21649 0.271786,1.3211 0.404089,-0.346677 0.160546,-1.25541 -0.271833,-1.32105 Z  m -3.7443,.312 c -1.24618,0.222233 -0.737516,0.978544 -0.355968,1.19155 -1.54257,0.290831 2.35489,0.371705 0.41521,0.555903 -1.61374,0.485092 1.55396,1.0566 2.07364,0.481437 1.99278,0.366822 0.07173,-1.20069 -0.103174,-2.05041 -0.844777,-0.682408 -0.03328,1.57314 -0.797161,0.07268 -0.266508,0.445568 -1.1139,0.06566 -1.23251,-0.25115 z  m 39.6005,.0981 c -1.67222,0.492594 1.03933,2.35149 0.365435,0.660341 -0.06714,-0.204202 0.150948,-0.74374 -0.365435,-0.660341 z  m -34.9201,.7489 c -1.20166,0.849997 1.52743,1.5529 -0.345134,2.18613 -0.280774,-0.789394 -0.763856,0.394949 -1.83515,-0.242548 -1.84166,0.577175 -2.78345,-0.300643 -4.32537,-0.902359 -0.926111,-0.08677 -0.578164,0.662328 -0.639507,1.36372 0,1.93839 0,3.87678 0,5.81517 0.908013,0.719061 0.35427,0.317258 0,0.118933 0.498381,1.27759 -0.219776,3.14515 1.74473,3.8883 0.333957,0.466256 1.73531,2.45263 1.79992,1.85828 -0.702547,-0.553761 -1.42338,-2.21391 -0.234615,-0.734251 1.06478,1.40653 2.50106,2.31879 4.5993,2.6535 1.14717,0.293706 2.09061,1.30334 3.09944,1.08119 0.570453,1.13189 -1.69054,2.21883 0.07586,3.27456 0.922175,1.06876 2.47037,1.76975 1.63217,3.27022 -0.586175,1.46543 -0.335195,3.06219 -0.842171,4.42755 -0.157344,0.831088 1.53897,2.94051 1.392,1.25137 0.495293,-1.17384 0.482232,-2.46545 1.64873,-3.29672 1.5961,0.0095 0.305047,-1.29181 1.88937,-1.12181 0.966773,-0.953792 1.24679,-2.09163 2.87828,-2.47037 0.194884,-1.15776 2.71271,-2.93089 0.111667,-3.38165 -0.706943,-0.262273 -2.52711,-0.356578 -2.38802,-0.485984 0.281819,-1.1488 -2.35373,-1.47585 -3.47508,-1.94587 -1.47229,-0.786598 -3.68459,1.30674 -4.20331,-0.496991 -0.309511,-0.567509 -1.44117,-0.576712 -0.921085,-1.45241 -0.937299,0.701658 -2.7706,0.488406 -2.29063,-0.86663 0.72892,-1.14121 3.52819,-1.1952 4.00518,0.177463 -0.662277,-1.51388 1.28016,-2.69239 2.35847,-3.76942 0.219558,-0.514796 1.52414,-0.957087 1.07522,-0.272897 0.764842,-0.02076 1.9241,-1.05964 0.565402,-0.580145 -0.01928,-0.947416 -1.19061,-0.677989 -1.57038,-0.543463 0.703879,-0.840879 4.31879,-0.381161 2.80504,-1.75562 -1.17296,-0.357734 -1.07539,-2.44528 -2.26181,-1.2823 0.09985,-0.716564 -2.41477,-2.11923 -2.35989,-0.917636 0.306951,1.07521 0.05612,2.31381 -0.597101,3.01859 -0.136319,-1.57553 -3.70631,-1.22732 -3.24731,-2.90623 0.66495,-0.800173 1.44197,-1.90671 1.516,-1.80717 1.19169,-0.342465 2.15002,-1.33863 0.76886,-1.9935 -0.07379,0.570761 -1.03872,1.74836 -0.90286,0.324093 -0.893505,0.797402 -0.689441,-1.26879 -1.52624,-1.48308 z  m 28.5214,.5528 c -2.09311,0.385383 -2.92289,1.89013 -3.95831,3.13646 -1.5263,0.517964 -1.46821,2.7424 0.236974,2.03194 0.456384,0.599955 -0.319266,1.54559 1.01007,0.761126 1.07224,-1.06802 0.18749,-2.79538 2.01217,-3.46882 0.132914,0.523644 -1.68317,2.47895 0.438423,2.15756 1.91796,0.05447 -1.3943,0.143842 -0.46147,1.06598 -0.969187,-0.432824 -0.465583,1.18209 -1.73066,0.80628 -1.09598,0.448718 -1.81465,-0.20834 -1.56359,-0.928127 -0.862169,0.378579 0.271175,1.44659 -1.22549,1.51077 -0.335265,0.896089 -3.09224,0.761025 -1.52438,1.67349 0.69609,1.35788 -2.59367,0.08514 -1.65971,1.71462 0.799045,1.61132 2.47363,-0.533921 3.15303,-0.948382 1.31082,-0.765326 3.2532,1.30496 2.07364,1.3819 1.32266,-0.133572 1.05086,-1.08037 -0.0088,-1.44693 -0.572354,-1.1173 1.81187,0.547952 1.67965,1.10814 0.84121,1.18565 0.494799,-1.21392 1.35082,-0.151564 -0.09995,1.12062 3.44361,0.26349 1.75182,1.69172 -1.45455,0.220515 -2.88626,-0.282244 -4.13852,0.03978 -1.16554,-0.0079 -1.10706,-0.945078 -1.5314,-1.1798 -1.48257,0.09066 -3.31463,0.08042 -4.30716,0.981902 -1.0733,1.1084 -2.62105,2.65786 -1.45123,4.07313 1.17064,2.09729 4.07375,0.108785 5.7425,1.3474 0.496007,0.516447 -0.429838,1.13035 0.67922,1.68975 0.41733,1.19163 -0.473772,2.32306 0.551188,3.46218 0.530011,1.07129 0.858932,2.67473 2.83159,1.69582 2.08778,-0.945663 1.53169,-2.68894 3.25439,-3.65452 -1.36309,-1.98559 1.66761,-2.85622 2.42378,-4.46815 -1.65207,0.182044 -3.12387,-1.05772 -3.52303,-2.30556 -0.694016,-0.606107 -0.51526,-1.49982 0.259982,-0.361196 1.06556,0.777164 1.08858,3.0832 3.05971,1.89689 0.901133,-0.2837 3.36212,-1.3659 1.40124,-1.85839 -1.26397,0.689075 -2.65846,-2.05898 -0.802381,-0.465047 1.34937,0.430875 2.2943,0.687605 2.2943,-0.741014 0,-3.849 0,-7.75016 0,-11.6253 -0.420304,0.323288 -1.50009,0.920365 -2.0451,0.523615 -0.937811,0.0983 -2.17584,1.47174 -1.88113,0.144064 -0.815171,-0.04064 -0.145928,1.19044 -1.26585,1.22488 -0.112767,0.632907 -1.13136,0.1172 -0.748747,0.718228 -0.786052,-0.419687 -1.4513,-1.74478 0.0975,-0.913066 2.30006,-0.519387 -1.51674,-1.69092 -1.81135,-1.9741 0.495235,-0.08931 -0.538795,-0.47777 -0.663567,-0.347706 z  m -18.9828,.3478 c -0.765542,0.480116 1.45542,0.570532 0,0 z  m -10.226,.2586 c -0.856241,0.67414 1.36362,0.619731 0,0 z  m 4.9649,.6686 c -0.648402,0.799498 0.958061,0.295171 0,0 z  m 14.1956,.9451 c -0.75912,0.657812 -1.76108,-0.173121 -1.77741,0.392283 0.13757,0.170839 0.688634,1.39016 1.8959,0.490355 0.647939,-0.205615 0.392827,-0.723946 -0.118499,-0.882638 z  m -16.1625,.3923 c -1.43985,0.946466 2.4453,1.03367 0.305023,0.10855 l -.305,-.1085 z  m 18.9945,2.6212 c -1.03666,0.508821 0.497321,1.58939 -0.02256,2.097 -0.649576,0.851872 2.41387,-0.06 0.77765,-0.739663 -0.116578,-0.58393 -0.95858,-1.29639 -0.755092,-1.35732 z  m -.6992,1.0253 c -1.44435,0.307355 -0.327879,1.89422 0.183685,0.399634 0.02876,-0.08666 0.06776,-0.402532 -0.183685,-0.399634 z  m -11.5649,1.1501 c -1.34369,0.689638 -0.208701,1.37801 0.776053,1.06771 -0.20217,-0.416094 -0.766941,-0.678259 -0.776053,-1.06771 z  m 25.3813,1.1591 c 0.67045,0.254679 -1.22861,0.689739 -0.02609,1.13796 0.699798,0.619425 0.435971,1.9491 -0.701485,1.00802 0.211327,-1.05072 -1.54186,-1.8354 0.727587,-2.14597 z  m -3.4481,.0088 c -0.09096,0.675042 1.93492,1.72433 -0.24883,1.3819 -1.15486,0.101971 -2.8846,-0.02657 -1.4297,-1.10971 0.459719,-0.207731 1.6668,0.716704 1.03867,-0.147378 0.222686,-0.01069 0.430084,-0.07396 0.639858,-0.124824 z  m -6.6712,1.4621 c -0.84234,0.408467 0.582471,0.721675 0,0 z  m -21.1511,3.807 c -0.142011,0.356597 2.66409,0.717983 0.727715,0.146668 l -.2886,-.0765 -.4391,-.0702 z  m 2.1803,.5082 c -0.851146,0.65038 1.75362,0.194309 0,0 z  m 28.4622,5.9645 c -1.84942,0.03592 -1.60355,3.62652 -0.314354,1.50191 0.122254,-0.461038 0.612279,-1.06955 0.314354,-1.50191 z "/>
<g style="font-family:KanjiStrokeOrders;word-spacing:0;line-height:125%;font-weight:500;letter-spacing:0;font-size:13.85730267px" id="text3845" transform="translate(0,1.0120214)">
<path style="font-family:Sans;fill:#fff;text-align:start;font-weight:bold" id="path4147" d="m 14.9264,27.2715 v 4.6146 H 12.4905 V 31.135 28.3676 q 0,-0.99464 -0.04736,-1.36678 -0.0406,-0.372145 -0.148858,-0.548067 -0.142092,-0.23682 -0.385677,-0.365379 -0.243586,-0.135325 -0.554834,-0.135325 -0.757821,0 -1.19086,0.588665 -0.433041,0.581898 -0.433041,1.61714 v 3.72821 H 7.30755 v -10.5283 h 2.42232 v 4.05976 q 0.548067,-0.663094 1.1638,-0.974342 0.615729,-0.318014 1.36002,-0.318014 1.31265,0 1.98928,0.805185 0.683392,0.805185 0.683392,2.34113 z"/>
<path style="font-family:Sans;fill:#fff;text-align:start;font-weight:bold" id="path4149" d="m 19.832,22.1562 v 2.1517 h 2.4967 v 1.7322 H 19.832 v 3.214 q 0,0.527768 0.209754,0.717223 0.209754,0.182689 0.83225,0.182689 h 1.24499 v 1.73216 h -2.07724 q -1.43445,0 -2.03665,-0.595431 -0.595431,-0.602197 -0.595431,-2.03664 v -3.21397 h -1.20439 v -1.73216 h 1.20439 v -2.15167 h 2.42232 z"/>
<path style="font-family:Sans;fill:#fff;text-align:start;font-weight:bold" id="path4151" d="m 30.8407,25.5664 q 0.460106,-0.703691 1.08937,-1.06907 0.636029,-0.372144 1.39385,-0.372144 1.30589,0 1.98928,0.805185 0.683392,0.805185 0.683392,2.34113 v 4.61459 h -2.43585 v -3.9515 q 0.0068,-0.08796 0.0068,-0.182689 0.0068,-0.09473 0.0068,-0.270651 0,-0.805185 -0.236819,-1.1638 -0.23682,-0.365378 -0.764588,-0.365378 -0.690159,0 -1.06907,0.568366 -0.372145,0.568366 -0.385677,1.6442 v 3.72144 h -2.43585 v -3.9515 q 0,-1.25852 -0.21652,-1.61714 -0.216521,-0.365378 -0.771354,-0.365378 -0.696925,0 -1.07584,0.575132 -0.37891,0.568366 -0.37891,1.63067 v 3.72821 h -2.43585 v -7.57821 h 2.43585 v 1.10967 q 0.446573,-0.642795 1.02171,-0.967576 0.581899,-0.32478 1.27882,-0.32478 0.784887,0 1.38708,0.37891 0.602197,0.378911 0.913445,1.0623 z"/>
<path style="font-family:Sans;fill:#fff;text-align:start;font-weight:bold" id="path4153" d="m 38.27,21.3578 h 2.4223 V 31.8861 H 38.27 Z"/>
</g>
</svg>
