<svg width="48" version="1.1" xmlns="http://www.w3.org/2000/svg" height="48">
<g id="g7" transform="translate(0,1)">
<path style="opacity:.65;fill:#fff" id="rect4154" d="M 3,1 V 12 H 45 V 4 H 23 V 1 Z"/>
<path id="folderTab" d="M 4,3 V 16 H 44 V 6 H 22 V 3 Z" transform="translate(0,-1)"/>
<path style="fill:#fff" id="folderPaper" d="m 6,8 h 36 v 33 h -36 Z "/>
<path style="fill:#5e87b2" id="folderFront" d="m 2,11 h 44 v 32 h -44 Z "/>
</g>
<path style="fill:#fff" id="path4175" d="m 24,14.96875 c -6.77277,0 -12.2452,5.47817 -12.25,12.25 v 9.5 C 11.7536,38.25634 13.02395,39.5 14.5625,39.5 H 24 c 6.77356,-0.0027 12.25,-5.50718 12.25,-12.2812 0,-6.77587 -5.47418,-12.25 -12.25,-12.25 z m 3.5625,2.875 c 3.16216,0 5.75,2.58784 5.75,5.75 0,3.16216 -2.58784,5.75 -5.75,5.75 h -2.875 v 3.09375 c 0,3.16216 -2.58784,5.75 -5.75,5.75 -3.16216,0 -5.75,-2.58784 -5.75,-5.75 0,-3.16216 2.58784,-5.75 5.75,-5.75 h 2.875 v -3.09375 c 0,-3.16216 2.58784,-5.75 5.75,-5.75 z m 0,2.6875 c -1.70566,0 -3.0625,1.35684 -3.0625,3.0625 v 3.0625 h 3.0625 c 1.70566,0 3.0625,-1.35684 3.0625,-3.0625 0,-1.70566 -1.35684,-3.0625 -3.0625,-3.0625 z m -8.625,8.8438 c -1.70566,0 -3.0625,1.35684 -3.0625,3.0625 0,1.70566 1.35684,3.0625 3.0625,3.0625 1.70566,0 3.0625,-1.35684 3.0625,-3.0625 v -3.0625 z"/>
</svg>
