<svg width="48" version="1.1" xmlns="http://www.w3.org/2000/svg" height="48">
<g id="g7" transform="translate(0,1)">
<path style="opacity:.65;fill:#fff" id="rect4154" d="M 3,1 V 12 H 45 V 4 H 23 V 1 Z"/>
<path id="folderTab" d="M 4,3 V 16 H 44 V 6 H 22 V 3 Z" transform="translate(0,-1)"/>
<path style="fill:#fff" id="folderPaper" d="m 6,8 h 36 v 33 h -36 Z "/>
<path style="fill:#5e87b2" id="folderFront" d="m 2,11 h 44 v 32 h -44 Z "/>
</g>
<g style="fill:#fff" id="g16" transform="translate(0,1.7276557)">
<g id="layer1" transform="translate(-5.71875,2.2722943)">
<path style="fill-rule:evenodd" id="path2543" d="m 14.8125,10.7188 c -0.774284,0 -1.375,0.65022 -1.375,1.46875 v 15.5 c 0,0.81853 0.600716,1.5 1.375,1.5 h 13.2188 l -0.6875,2.8438 c -0.01851,0.07953 -0.03125,0.167066 -0.03125,0.25 0,0.87941 1.0758,1.59375 2.40625,1.59375 1.33045,0 2.40625,-0.71434 2.40625,-1.59375 0,-0.05818 0.0092,-0.09968 0,-0.15625 l -0.7188,-2.9375 h 13.1875 c 0.774283,0 1.40625,-0.68147 1.40625,-1.5 v -15.5 c 0,-0.81853 -0.631967,-1.46875 -1.40625,-1.46875 h -29.7812 z m 0.7812,1.8438 c 0.150236,-0.02706 0.353461,-0.03283 0.59375,0 0.04218,0.0058 0.956475,-4.2e-5 1,0 l 25.9062,0.0312 c 1.2176,0.0012 1.28125,0.03241 1.28125,1.25 v 12.0625 c 0,1.2176 0.0015,1.25 -1.28125,1.25 h -26.7812 c -1.28274,0 -1.25,-0.03241 -1.25,-1.25 V 13.8438 c 0,-0.831691 0.08054,-1.20008 0.53125,-1.28125 z m 11.2188,19.0312 c -3.97351,0.411715 -6.8718,1.65033 -6.84375,3.125 0.03443,1.81023 4.43273,3.28125 9.8125,3.28125 5.37977,0 9.72193,-1.47102 9.6875,-3.28125 C 39.440999,33.25957 36.55,32.01845 32.625,31.5938 l 0.2812,1.0625 c 0.01229,0.06442 0.03125,0.1525 0.03125,0.21875 0,1.00137 -1.44683,1.8125 -3.21875,1.8125 -1.77192,4e-6 -3.21875,-0.81113 -3.21875,-1.8125 0,-0.09444 0.0066,-0.19069 0.03125,-0.28125 l 0.2812,-1 z"/>
</g>
<g style="font-family:'Arial Black';text-align:start;word-spacing:0;line-height:125%;font-weight:bold;letter-spacing:0;font-size:9.77899075px" id="text3022">
<path id="path4155" d="m 15.9443,18.0436 h 7.6034 v 1.9989 h -2.551 v 6.0959 h -2.5013 v -6.0959 h -2.551 v -1.9989 z"/>
<path id="path4157" d="m 23.8845,18.0436 h 2.6173 l 1.8222,5.8254 1.7946,-5.8254 h 2.54 l -3.0038,8.0948 h -2.7111 l -3.059,-8.0948 z"/>
</g>
</g>
</svg>
