<svg width="48" version="1.1" xmlns="http://www.w3.org/2000/svg" height="48">
<g id="g7" transform="translate(0,1)">
<path style="opacity:.65;fill:#fff" id="rect4154" d="M 3,1 V 12 H 45 V 4 H 23 V 1 Z"/>
<path id="folderTab" d="M 4,3 V 16 H 44 V 6 H 22 V 3 Z" transform="translate(0,-1)"/>
<path style="fill:#fff" id="folderPaper" d="m 6,8 h 36 v 33 h -36 Z "/>
<path style="fill:#5e87b2" id="folderFront" d="m 2,11 h 44 v 32 h -44 Z "/>
</g>
<g style="fill:#fff">
<path style="font-family:Sans;text-align:start;line-height:normal;color:#000;text-indent:0;text-decoration-line:none;text-transform:none" id="path845" d="m 31.2422,16.3867 l -.002,.002 h -18.5859 v 18.082 h 0.019531 l -.002,.002 4.252,4.0273 h 18.584 v -18.0762 l .0098,-.0098 -4.2754,-4.0273 z  m -17.1055,1.0879 h 16.0273 v 2.94336 h -12.4336 l -3.5938,-2.9434 z  m 17.1035,.0684 l 3.0742,2.875 h -3.07617 l .002,-2.875 z  m -17.5098,.8867 l 3.1934,2.7422 v 0.007813 12.2051 h -3.19336 v -14.9551 z  m 4.3027,3.1113 h 12.1309 v 11.8438 h -12.1309 v -11.8438 z  m 13.2051,0 h 3.1582 v 14.7871 l -3.1562,-2.8301 -.002,-11.957 z  m -17.3711,12.8301 l 3.0566,.1016 v 2.66797 l -3.0566,-2.7695 z  m 4.166,.1016 h 12.6211 l 3.334,2.9082 h -15.9551 v -2.9082 z "/>
<circle cx="20.334999" cy="26.783907" r="1.5" id="path3754"/>
<circle cx="24.315479" cy="26.783907" r="1.5" id="path3756"/>
<circle cx="28.295958" cy="26.783907" r="1.5" id="path3758"/>
</g>
</svg>
