<svg width="48" version="1.1" xmlns="http://www.w3.org/2000/svg" height="48">
<path style="opacity:.65;fill:#fff;stroke:none" id="rect4154" d="m 3,1.959 0,9.342 42,0 0,-6.9866 -22,0 0,-2.3555 z"/>
<g id="folderLayer">
<g style="stroke:none" id="g3053" transform="matrix(1,0,0,1.1773318,0,-5.2823341)">
<rect width="18" x="4" y="6.9996953" height="10" id="folderTab"/>
<rect width="40" x="4" y="9" height="30" id="folderBackground"/>
<rect width="35.999992" x="6" y="10.9998" height="27.999756" style="fill:#fff" id="folderPaper"/>
<rect width="43.999996" x="2" y="12.999983" height="28.000008" style="fill:#5e87b2" id="folderFront"/>
</g>
</g>
<path style="fill:#fff;stroke:none" id="path4184" d="m 14.4784,18.5004 c -1.77384,0 -3.21048,1.44888 -3.21048,3.23922 0,1.79039 1.43664,3.23922 3.21048,3.23922 1.77385,0 3.21048,-1.44883 3.21048,-3.23922 0,-1.79035 -1.43664,-3.23922 -3.21048,-3.23922 z  m 9.5216,0 c -1.77385,0 -3.21048,1.44888 -3.21048,3.23922 0,1.79039 1.43664,3.23922 3.21048,3.23922 1.77384,0 3.21048,-1.44883 3.21048,-3.23922 0,-1.79035 -1.43664,-3.23922 -3.21048,-3.23922 z  m 9.5216,0 c -1.77385,0 -3.21048,1.44888 -3.21048,3.23922 0,1.79039 1.43663,3.23922 3.21048,3.23922 1.77384,0 3.21048,-1.44883 3.21048,-3.23922 0,-1.79035 -1.43664,-3.23922 -3.21048,-3.23922 z  m -9.5216,9.4945 c -1.77385,0 -3.21048,1.44719 -3.21048,3.23753 0,1.79035 1.43664,3.23922 3.21048,3.23922 1.77384,0 3.21048,-1.44888 3.21048,-3.23922 0,-1.79035 -1.43664,-3.23753 -3.21048,-3.23753 z  m 9.5216,0 c -1.77385,0 -3.21048,1.44719 -3.21048,3.23753 0,1.79035 1.43663,3.23922 3.21048,3.23922 1.77384,0 3.21048,-1.44888 3.21048,-3.23922 0,-1.79035 -1.43664,-3.23753 -3.21048,-3.23753 z  m -19.0431,.027 c -1.77384,0 -3.21048,1.44888 -3.21048,3.23922 0,1.79035 1.43664,3.23922 3.21048,3.23922 1.77385,0 3.21048,-1.44888 3.21048,-3.23922 0,-1.79035 -1.43664,-3.23922 -3.21048,-3.23922 z "/>
</svg>
