<svg width="48" version="1.1" xmlns="http://www.w3.org/2000/svg" height="48">
<g id="g7" transform="translate(0,1)">
<path style="opacity:.65;fill:#fff" id="rect4154" d="M 3,1 V 12 H 45 V 4 H 23 V 1 Z"/>
<path id="folderTab" d="M 4,3 V 16 H 44 V 6 H 22 V 3 Z" transform="translate(0,-1)"/>
<path style="fill:#fff" id="folderPaper" d="m 6,8 h 36 v 33 h -36 Z "/>
<path style="fill:#5e87b2" id="folderFront" d="m 2,11 h 44 v 32 h -44 Z "/>
</g>
<g style="fill:#fff;fill-rule:evenodd" id="g23" transform="matrix(0.93664463,0,0,0.93664463,1.5737195,3.3083742)">
<path id="path3163" d="m 23.7545,28.3853 c -5.95348,-5.94907 -7.95285,9.79864 -15.8259,5.23647 10.2677,12.0514 22.8201,1.75262 15.8259,-5.23647 z"/>
<path style="stroke-miterlimit:2" id="path3159" d="m 38.0792,12.8961 c -0.352651,0.04771 -4.07111,3.28644 -7.63518,6.76687 -3.58308,3.499 -7.00848,7.50909 -7.00848,7.50909 0.850953,0.569619 1.60493,1.54964 2.30514,2.48376 0,0 3.94218,-3.48767 7.47534,-7.03285 3.53316,-3.54519 6.78738,-7.50569 6.74132,-8.00212 -0.04606,-0.496436 -1.5255,-1.77246 -1.87815,-1.72475 z"/>
</g>
</svg>
