<svg width="48" version="1.1" xmlns="http://www.w3.org/2000/svg" height="48">
<path style="opacity:.65;fill:#fff;stroke:none" id="rect4154" d="m 3,1.959 0,9.342 42,0 0,-6.9866 -22,0 0,-2.3555 z"/>
<g id="folderLayer">
<g style="stroke:none" id="g3053" transform="matrix(1,0,0,1.1773318,0,-5.2823341)">
<rect width="18" x="4" y="6.9996953" height="10" id="folderTab"/>
<rect width="40" x="4" y="9" height="30" id="folderBackground"/>
<rect width="35.999992" x="6" y="10.9998" height="27.999756" style="fill:#fff" id="folderPaper"/>
<rect width="43.999996" x="2" y="12.999983" height="28.000008" style="fill:#5e87b2" id="folderFront"/>
</g>
<path style="fill:#fff;fill-rule:evenodd;stroke:none" id="folderGlyph-6" d="m 24.0231,16.9471 c -2.87999,0.000171 -5.49805,2.62044 -5.49805,5.5 0,1.26513 0.525042,2.46487 1.33594,3.42969 -1.07697,0.492882 -2.07303,1.1623 -2.91016,2 -1.84996,1.85122 -2.92578,4.45253 -2.92578,7.07031 v 2 h 8 v -2 -2 h -2 v 2 h -4 c 0,-3.38125 2.48239,-6.51457 5.64258,-7.59766 0.179992,-0.67174 0.257813,-1.6085 0.257813,-2.18555 -0.829024,-0.658524 -1.40039,-1.65339 -1.40039,-2.7168 0,-1.83245 1.66532,-3.49989 3.49805,-3.5 1.83272,-0.000109 3.50195,1.66735 3.50195,3.5 0,1.0626 -0.571423,2.05634 -1.40039,2.71484 -0.0037,0.578253 0.07335,1.5156 0.253907,2.18945 3.16094,1.08365 5.64648,4.21498 5.64648,7.5957 h -4 v -2 h -2 v 2 2 h 2 3.70312 2.08594 0.210938 v -2 c 0,-2.61807 -1.07932,-5.21908 -2.93164,-7.07031 -0.837424,-0.836931 -1.83216,-1.50523 -2.9082,-1.99805 0.812777,-0.965176 1.33984,-2.16545 1.33984,-3.43164 0,-2.87988 -2.62196,-5.50017 -5.50195,-5.5 z "/>
</g>
</svg>
