<svg width="48" version="1.1" xmlns="http://www.w3.org/2000/svg" height="48">
<path style="opacity:.65;fill:#fff" d="M 3,2 V 13 H 45 V 5 H 23 V 2 Z"/>
<path d="M 4,3 V 16 H 44 V 6 H 22 V 3 Z"/>
<path style="fill:#fff" d="M 6,9 H 42 V 42 H 6 Z"/>
<path style="fill:#5e87b2" d="M 2,12 H 46 V 44 H 2 Z"/>
<path style="fill:#fff" d="m 24,14.1445 l -12,6.9277 v 13.8555 l 12,6.9277 12,-6.9277 v -13.8555 l -12,-6.9277 z  m -.0156,2.4277 c 1.06602,-0.01521 2.40583,1.31223 2.08984,2.52344 1.7963,-0.06699 3.54721,0.876215 4.10352,2.35938 -2.02049,-0.677244 -5.32638,-0.74585 -7.32617,1.36328 -0.843918,0.890055 -1.35048,2.78994 0.291016,3.66797 -2.36698,0.676899 -3.52429,-1.18537 -3.05078,-3.32227 0.576247,-2.60053 3.97705,-3.35094 3.79102,-6.58594 0.03376,-0.0033 0.067181,-0.005359 0.101563,-0.005859 z  m -3.0176,2.7598 c 0.147977,0.002 0.294911,0.014713 0.441406,0.039063 -1.5968,1.41117 -3.30713,4.2409 -2.48047,7.02734 0.348853,1.17588 1.73917,2.56459 3.32031,1.58203 -0.597274,2.38831 -2.7885,2.45899 -4.40234,0.980469 -1.96401,-1.79933 -0.913991,-5.11978 -3.80859,-6.57617 0.447723,-0.988804 2.35571,-1.54629 3.27539,-0.638672 0.761381,-1.44015 2.22385,-2.43385 3.6543,-2.41406 z  m 6.4121,2.707 c 2.11486,0.039698 4.15132,1.65608 6.44727,0.148438 0.632467,0.882141 0.161875,2.81358 -1.08398,3.15625 0.95616,1.52215 1.01411,3.51297 0.007812,4.73633 -0.423727,-2.08841 -2.01729,-4.98675 -4.84375,-5.66406 -1.19277,-0.285827 -3.0916,0.225343 -3.03125,2.08594 -1.7697,-1.71141 -0.733841,-3.64436 1.35352,-4.30273 0.317527,-0.10015 0.632661,-0.14833 0.945312,-0.158203 0.068392,-0.00216 0.136857,-0.003233 0.205078,-0.001954 z  m -12.1426,3.8867 c 0.423728,2.08841 2.01729,4.9848 4.84375,5.66211 1.19277,0.285824 3.0916,-0.227304 3.03125,-2.08789 1.7697,1.71141 0.733843,3.64631 -1.35352,4.30469 -2.54023,0.80125 -4.88908,-1.76884 -7.59766,0.009765 -0.632468,-0.882142 -0.159922,-2.81359 1.08594,-3.15625 -0.956161,-1.52216 -1.01609,-3.50906 -0.009766,-4.73242 z  m 12.627,.1152 c 0.745533,-0.01059 1.56347,0.339477 2.26953,0.986328 1.96401,1.79934 0.912033,5.11978 3.80664,6.57617 -0.44772,0.988809 -2.35571,1.54629 -3.27539,0.638672 -0.840146,1.58913 -2.53309,2.63285 -4.0957,2.37305 1.5968,-1.41118 3.30908,-4.24091 2.48242,-7.02734 -0.348846,-1.17588 -1.74113,-2.56264 -3.32227,-1.58008 0.335966,-1.34342 1.17623,-1.95318 2.13477,-1.9668 z  m -1.9863,3.332 c 1.66957,0.05196 2.43273,1.66184 2.0332,3.46484 -0.576247,2.60053 -3.97705,3.34899 -3.79102,6.58398 -1.08019,0.106663 -2.51758,-1.26535 -2.19141,-2.51562 -1.7963,0.06699 -3.54916,-0.878167 -4.10547,-2.36133 2.02049,0.677244 5.32833,0.74585 7.32812,-1.36328 0.843919,-0.890056 1.34853,-2.78994 -0.292969,-3.66797 0.369841,-0.105765 0.710351,-0.150247 1.01953,-0.140625 z "/>
</svg>
