<svg width="48" version="1.1" xmlns="http://www.w3.org/2000/svg" height="48">
<g id="g7" transform="translate(0,1)">
<path style="opacity:.65;fill:#fff" id="rect4154" d="M 3,1 V 12 H 45 V 4 H 23 V 1 Z"/>
<path id="folderTab" d="M 4,3 V 16 H 44 V 6 H 22 V 3 Z" transform="translate(0,-1)"/>
<path style="fill:#fff" id="folderPaper" d="m 6,8 h 36 v 33 h -36 Z "/>
<path style="fill:#5e87b2" id="folderFront" d="m 2,11 h 44 v 32 h -44 Z "/>
</g>
<path style="fill:#fff;stroke:none" id="folderGlyph" d="m 23.9387,17.0435 c -2.61818,0.000155 -5.22035,1.07847 -7.07031,2.92969 -1.84996,1.85122 -2.92578,4.45253 -2.92578,7.07031 0,2.61778 1.07582,5.21909 2.92578,7.07031 1.84996,1.85122 4.45214,2.92953 7.07031,2.92969 2.61817,0.000155 5.21994,-1.07846 7.07227,-2.92969 1.85232,-1.85123 2.93164,-4.45224 2.93164,-7.07031 0,-2.61808 -1.07932,-5.21908 -2.93164,-7.07031 -1.85232,-1.85123 -4.45409,-2.92984 -7.07227,-2.92969 z  m 0,2 c 4.18908,-0.000248 8.00391,3.81108 8.00391,8 0,4.18892 -3.81483,8.00025 -8.00391,8 -4.18908,-0.000248 -7.99609,-3.81155 -7.99609,-8 0,-4.18845 3.80701,-7.99975 7.99609,-8 z  m -1.9961,2 0,5 -4,0 6,7 6,-7 -4,0 0,-5 -4,0 z "/>
</svg>
