<svg width="48" version="1.1" xmlns="http://www.w3.org/2000/svg" height="48">
<path style="opacity:.65;fill:#fff;stroke:none" id="rect4154" d="m 3,1.959 0,9.342 42,0 0,-6.9866 -22,0 0,-2.3555 z"/>
<g id="folderLayer">
<g style="stroke:none">
<g id="g3053" transform="matrix(1,0,0,1.1773318,0,-5.2823341)">
<rect width="18" x="4" y="6.9996953" height="10" id="folderTab"/>
<rect width="40" x="4" y="9" height="30" id="folderBackground"/>
<rect width="35.999992" x="6" y="10.9998" height="27.999756" style="fill:#fff" id="folderPaper"/>
<rect width="43.999996" x="2" y="12.999983" height="28.000008" style="fill:#5e87b2" id="folderFront"/>
</g>
<rect width="35.999992" x="6" y="7.6680799" height="32.965004" style="fill:#fff" id="rect3849"/>
<rect width="43.999996" x="2" y="10.022959" height="32.965298" style="fill:#5e87b2" id="rect3851"/>
<rect width="30" x="9.380971" y="11.101083" height="30" style="fill:none" id="rect3265"/>
<path style="fill:#fff" id="path6068" d="m 12.8356,13.8493 c -0.584046,0 -1.05723,0.505889 -1.05723,1.12331 v 17.4443 c 0,0.61742 0.473185,1.09027 1.05723,1.09027 h 9.81243 l -.3635,1.5529 c -0.01396,0.05999 -0.03304,0.135674 -0.03304,0.198231 0,0.663341 0.813554,1.18939 1.81712,1.18939 1.00356,0 1.81712,-0.526044 1.81712,-1.18939 0,-0.04389 -0.02606,-0.08947 -0.03304,-0.132154 l -.3635,-1.6188 h 9.81243 c 0.584045,0 1.05723,-0.47285 1.05723,-1.09027 v -17.4443 c 0,-0.617419 -0.473187,-1.12331 -1.05723,-1.12331 h -22.4662 z  m 1.5198,2.1145 c 0.0733,-0.000544 0.140643,0.02064 0.231269,0.03304 0.03182,0.0043 0.727058,-3e-05 0.759885,0 h 18.0721 c 0.918438,0.000881 0.958116,0.03968 0.958116,0.958116 v 13.3805 c 0,0.918417 0.0094,0.925078 -0.958116,0.925078 h -18.6997 c -0.967526,0 -0.958116,-0.0067 -0.958116,-0.925078 v -13.3806 c 0,-0.627346 0.0565,-0.896891 0.396462,-0.958116 0.05667,-0.01026 0.124933,-0.0325 0.198231,-0.03304 z  m 7.5658,18.7659 c -3.01985,0.305909 -5.2083,1.26102 -5.18704,2.37877 0.02596,1.36546 3.34264,2.44485 7.40062,2.44485 4.05798,0 7.29443,-1.07939 7.26847,-2.44485 -0.02104,-1.10656 -2.20204,-2.03029 -5.18704,-2.34573 l .2313,.7599 c 0.0093,0.04821 0,0.08257 0,0.132154 0,0.749353 -1.06406,1.38762 -2.37877,1.38762 -1.31471,2e-06 -2.37877,-0.638263 -2.37877,-1.38762 0,-0.07067 0.01479,-0.130463 0.03304,-0.198231 l .1982,-.7268 z "/>
</g>
</g>
</svg>
