<svg width="48" version="1.1" xmlns="http://www.w3.org/2000/svg" height="48">
<path style="opacity:.65;fill:#fff;stroke:none" id="rect4154" d="m 3,1.959 0,9.342 42,0 0,-6.9866 -22,0 0,-2.3555 z"/>
<defs id="defs12"/>
<g id="folderLayer">
<g style="stroke:none" id="g3053" transform="matrix(1,0,0,1.1773318,0,-5.2823341)">
<rect width="18" x="4" y="6.9996953" height="10" id="folderTab"/>
<rect width="40" x="4" y="9" height="30" id="folderBackground"/>
<rect width="35.999992" x="6" y="10.9998" height="27.999756" style="fill:#fff" id="folderPaper"/>
<rect width="43.999996" x="2" y="12.999983" height="28.000008" style="fill:#5e87b2" id="folderFront"/>
</g>
</g>
<path style="fill:#fff;stroke:none" id="path4175" d="m 24,13.5584 c -6.77277,0 -12.2452,5.47817 -12.25,12.25 v 9.5 c 0.0036,1.53759 1.27395,2.78125 2.8125,2.78125 h 9.4375 c 6.77356,-0.0027 12.25,-5.50718 12.25,-12.2812 0,-6.77587 -5.47418,-12.25 -12.25,-12.25 z  m 3.5625,2.875 c 3.16216,0 5.75,2.58784 5.75,5.75 0,3.16216 -2.58784,5.75 -5.75,5.75 h -2.875 v 3.09375 c 0,3.16216 -2.58784,5.75 -5.75,5.75 -3.16216,0 -5.75,-2.58784 -5.75,-5.75 0,-3.16216 2.58784,-5.75 5.75,-5.75 h 2.875 v -3.09375 c 0,-3.16216 2.58784,-5.75 5.75,-5.75 z  m 0,2.6875 c -1.70566,0 -3.0625,1.35684 -3.0625,3.0625 v 3.0625 h 3.0625 c 1.70566,0 3.0625,-1.35684 3.0625,-3.0625 0,-1.70566 -1.35684,-3.0625 -3.0625,-3.0625 z  m -8.625,8.8438 c -1.70566,0 -3.0625,1.35684 -3.0625,3.0625 0,1.70566 1.35684,3.0625 3.0625,3.0625 1.70566,0 3.0625,-1.35684 3.0625,-3.0625 v -3.0625 h -3.0625 z "/>
</svg>
