<svg width="48" version="1.1" xmlns="http://www.w3.org/2000/svg" height="48" xmlns:xlink="http://www.w3.org/1999/xlink">
<path style="opacity:.65;fill:#fff;stroke:none" id="rect4154" d="m 3,1.959 0,9.342 42,0 0,-6.9866 -22,0 0,-2.3555 z"/>
<defs id="defs867"/>
<g id="folderLayer">
<g style="stroke:none">
<g id="g3053" transform="matrix(1,0,0,1.1773318,0,-5.2823341)">
<rect width="18" x="4" y="6.9996953" height="10" id="folderTab"/>
<rect width="40" x="4" y="9" height="30" id="folderBackground"/>
<rect width="35.999992" x="6" y="10.9998" height="27.999756" style="fill:#fff" id="folderPaper"/>
<rect width="43.999996" x="2" y="12.999983" height="28.000008" style="fill:#5e87b2" id="folderFront"/>
</g>
<rect width="35.999992" x="6" y="7.6680799" height="32.965004" style="fill:#fff" id="rect3849"/>
<rect width="43.999996" x="2" y="10.022959" height="32.965298" style="fill:#5e87b2" id="rect3851"/>
</g>
<g id="g3064" transform="matrix(0.90350905,0,0,0.99233895,3.7676066,-1.1152674)">
<g style="color:#000;stroke:none" id="g3061" transform="matrix(0.10026416,0.55208164,-0.55208164,0.10026416,38.099384,-2.9012983)">
<path style="fill:#fff" id="path3059" d="m 41.0093,18.6414 -4.0596,0 -2.0298,-3.5157 2.0298,-3.5157 4.0596,0 2.0298,3.5157 z "/>
<path style="fill:#5e87b2" id="path3057" d="m 41.9217,24.5763 c 0,1.07184 -0.8689,1.94074 -1.94074,1.94074 -1.07184,0 -1.94074,-0.8689 -1.94074,-1.94074 0,-1.07184 0.8689,-1.94074 1.94074,-1.94074 1.07184,0 1.94074,0.8689 1.94074,1.94074 z " transform="translate(-1.0014763,-9.4506063)"/>
</g>
<g style="fill:#fff" id="g3054" transform="matrix(0.60498501,0,0,0.60498501,15.41954,5.37064)">
<g style="stroke:none" id="g3059" transform="matrix(-0.84575495,-0.00904111,0.00904111,-0.84575495,29.603082,74.204227)">
<rect width="8.9404516" x="-51.076382" y="-23.349331" height="11.749688" id="rect2921" transform="matrix(-0.7125326,-0.70163901,0.78951843,-0.61372686,0,0)"/>
<path id="path2917" d="m 4.6221,60.5345 c 4.01624,1.50644 8.8997,0.939332 12.4391,-1.81199 4.84912,-3.76943 5.35757,-10.1954 1.13567,-14.3527 -4.22191,-4.15736 -11.5754,-4.47184 -16.4245,-0.702411 -3.53939,2.75132 -4.75779,6.92745 -3.52058,10.5941 l 6.5165,-5.0655 6.3704,6.273 -6.5165,5.0655 z "/>
<path id="rect2928" d="m 25.3026,45.5025 c 0.692455,0.486618 1.65728,0.401863 2.87175,-0.50733 l 11.1227,-8.3333 .7763,-.5855 3.7762,-2.9033 c 2.9402,-2.24314 3.16544,-5.97365 0.476082,-8.37557 -2.68951,-2.40193 -7.23658,-2.52932 -10.1768,-0.28618 l -3.8079,2.8719 -.7446,.617 -10.394,7.8942 c -1.69795,1.29683 -0.9801,2.29162 -0.271758,3.02432 l 6.1184,6.3324 c 0.08867,0.09164 0.154354,0.181843 0.253277,0.251355 z  m 1.1492,-5.1238 -2.2471,-2.2307 c -0.464877,-0.461449 -0.292173,-1.2171 0.397199,-1.737 l 12.3848,-9.3406 c 0.689372,-0.519897 1.6151,-0.59255 2.07983,-0.131112 l 2.2471,2.2307 c 0.464725,0.461436 0.255231,1.24498 -0.434141,1.76488 l -12.385,9.3406 c -0.689372,0.519899 -1.57801,0.564677 -2.04273,0.103241 z "/>
</g>
</g>
</g>
</g>
</svg>
