<svg width="48" version="1.1" xmlns="http://www.w3.org/2000/svg" height="48">
<path style="opacity:.65;fill:#fff;stroke:none" id="rect4154" d="m 3,1.959 0,9.342 42,0 0,-6.9866 -22,0 0,-2.3555 z"/>
<g id="folderLayer">
<g style="stroke:none" id="g3053" transform="matrix(1,0,0,1.1773318,0,-5.2823341)">
<rect width="18" x="4" y="6.9996953" height="10" id="folderTab"/>
<rect width="40" x="4" y="9" height="30" id="folderBackground"/>
<rect width="35.999992" x="6" y="10.9998" height="27.999756" style="fill:#fff" id="folderPaper"/>
<rect width="43.999996" x="2" y="12.999983" height="28.000008" style="fill:#5e87b2" id="folderFront"/>
</g>
<path style="fill:#fff;stroke:none" id="path2993" d="m 23.9702,14.066 c -0.57822,0 -1.09599,0.329209 -1.38728,0.852488 l -9.9122,18.8553 c -0.233226,0.465136 -0.23775,1.08981 0.04942,1.55495 0.287172,0.465136 0.743755,0.702464 1.32198,0.702464 h 19.8914 c 0.578219,0 1.10463,-0.286746 1.33786,-0.751884 0.291048,-0.465136 0.29441,-1.04756 0.06531,-1.57084 l -9.9792,-18.8395 c -0.286928,-0.523278 -0.80906,-0.803068 -1.38728,-0.803068 z  m -.1165,3.8459 c 1.23118,-0.0072 2.37844,1.10745 2.22388,2.02267 -0.377665,2.71304 -0.896782,5.40604 -1.22137,8.12246 h -1.5373 c -0.391312,-2.82865 -0.927589,-5.30485 -1.38728,-8.12246 -0.162768,-0.901693 0.690888,-2.0154 1.92207,-2.02267 z  m .1006,12.4026 c 0.768647,-0.0031 1.55088,0.424954 1.90442,1.13665 0.631902,1.10157 -0.0026,2.62755 -1.23549,2.94223 -1.27298,0.429588 -2.77441,-0.634127 -2.72514,-1.98914 -0.01553,-0.632875 0.303082,-1.2081 0.785419,-1.60437 0.35783,-0.326814 0.809603,-0.48371 1.27079,-0.485371 z "/>
</g>
</svg>
