<svg width="48" version="1.1" xmlns="http://www.w3.org/2000/svg" height="48" xmlns:xlink="http://www.w3.org/1999/xlink">
<g id="g7" transform="translate(0,1)">
<path style="opacity:.65;fill:#fff" id="rect4154" d="M 3,1 V 12 H 45 V 4 H 23 V 1 Z"/>
<path id="folderTab" d="M 4,3 V 16 H 44 V 6 H 22 V 3 Z" transform="translate(0,-1)"/>
<path style="fill:#fff" id="folderPaper" d="m 6,8 h 36 v 33 h -36 Z "/>
<path style="fill:#5e87b2" id="folderFront" d="m 2,11 h 44 v 32 h -44 Z "/>
</g>
<rect width="5.6843896" x="21.157804" y="39.91153" rx="0.9473983" ry="0.93294132" height="3.7317653" style="fill:#fff" id="rect3211"/>
<path style="fill:#fff" id="use3310" d="m 22.144,36.6345 c -0.200277,0 -0.371194,0.159346 -0.371194,0.365532 v 2.19318 c 0,0.206185 0.170919,0.36553 0.371194,0.36553 h 0.74239 c 0.200277,0 0.371194,-0.159345 0.371194,-0.36553 v -0.365529 h 1.11359 c 0.205642,0 0.371194,-0.163027 0.371194,-0.365532 v -0.731056 c 0,-0.202504 -0.165552,-0.36553 -0.371194,-0.36553 h -1.11359 v -0.365531 c 0,-0.206186 -0.170919,-0.365531 -0.371194,-0.365531 H 22.144 Z"/>
<use width="96" x="0" y="0" height="96" style="fill:#fff" xlink:href="#use3310" id="use3312" transform="translate(1.4189972e-6,-4.3863615)"/>
<use width="96" x="0" y="0" height="96" style="fill:#fff" xlink:href="#use3312" id="use3314" transform="translate(1.4189972e-6,-4.3863615)"/>
<path style="fill:#fff" id="use3342" d="m 25.856,34.4413 c 0.200277,0 0.371194,0.159344 0.371194,0.365531 v 2.19318 c 0,0.206186 -0.170919,0.365531 -0.371194,0.365531 h -0.74239 c -0.200277,0 -0.371194,-0.159345 -0.371194,-0.365531 v -0.36553 h -1.11359 c -0.205641,0 -0.371194,-0.163027 -0.371194,-0.36553 v -0.731064 c 0,-0.202503 0.165553,-0.36553 0.371194,-0.36553 h 1.11359 v -0.36553 c 0,-0.206185 0.170919,-0.36553 0.371194,-0.36553 H 25.856 Z"/>
<use width="96" x="0" y="0" height="96" style="fill:#fff" xlink:href="#use3342" id="use3344" transform="translate(1.4189972e-6,-4.3863615)"/>
<path style="fill:#fff" id="path3878" d="m 20.903,13.255 c -0.763004,0 -1.36496,0.527452 -1.36496,1.18263 l -.0057,11.8263 c 2.4e-05,0.655178 0.601987,1.18263 1.36499,1.18263 h 6.19963 c 0.763002,0 1.36496,-0.527451 1.36496,-1.18263 l .0057,-11.8263 c 0,-0.655176 -0.601964,-1.18263 -1.36496,-1.18263 h -6.19963 z  m .7821,8.6926 h 4.5542 v 3.4098 h -4.5542 z "/>
</svg>
