<svg width="48" version="1.1" xmlns="http://www.w3.org/2000/svg" height="48">
<path style="opacity:.65;fill:#fff;stroke:none" id="rect4154" d="m 3,1.959 0,9.342 42,0 0,-6.9866 -22,0 0,-2.3555 z"/>
<g id="folderLayer">
<g style="stroke:none" id="g3053" transform="matrix(1,0,0,1.1773318,0,-5.2823341)">
<rect width="18" x="4" y="6.9996953" height="10" id="folderTab"/>
<rect width="40" x="4" y="9" height="30" id="folderBackground"/>
<rect width="35.999992" x="6" y="10.9998" height="27.999756" style="fill:#fff" id="folderPaper"/>
<rect width="43.999996" x="2" y="12.999983" height="28.000008" style="fill:#5e87b2" id="folderFront"/>
</g>
<g style="stroke:#fff;stroke-width:.797" id="g27" transform="matrix(2.6415533,-1.8287422,2.1876085,2.2082197,-27.786549,22.903985)">
<g style="fill:#19aeff;stroke-width:6.339" id="g37" transform="matrix(0.12565,-0.0012861,0.0012838,0.12587,26.584,7.6481)">
<path style="fill:none" id="path41" d="m -147.4658,1.7637 11.19,9.2261 -16.315,18.646 39.622,-15.538 -12.431,17.092 25.639,-10.877 -15.538,20.2 13.207,10.876"/>
</g>
</g>
</g>
</svg>
