<svg width="48" version="1.1" xmlns="http://www.w3.org/2000/svg" height="48">
<path style="opacity:.65;fill:#fff;stroke:none" id="rect4154" d="m 3,1.959 0,9.342 42,0 0,-6.9866 -22,0 0,-2.3555 z"/>
<g id="folderLayer">
<g style="stroke:none" id="g3053" transform="matrix(1,0,0,1.1773318,0,-5.2823341)">
<rect width="18" x="4" y="6.9996953" height="10" id="folderTab"/>
<rect width="40" x="4" y="9" height="30" id="folderBackground"/>
<rect width="35.999992" x="6" y="10.9998" height="27.999756" style="fill:#fff" id="folderPaper"/>
<rect width="43.999996" x="2" y="12.999983" height="28.000008" style="fill:#5e87b2" id="folderFront"/>
</g>
<g style="fill:#fff" id="layer3" transform="matrix(0.30454597,0,0,0.39909268,23.332124,6.8873256)">
<path id="path3856" d="m -11.6236,75.3398 c -0.792649,-0.07539 -1.81409,-0.394056 -2.09821,-0.675537 l .0091,-11.6296 -.9381,-3.6951 -.9381,-3.6951 -5.1797,9.0229 c -2.84885,4.9626 -5.45813,9.31294 -5.79839,9.66741 -0.86375,0.899818 -1.36579,0.859482 -2.85501,-0.229364 -1.27523,-0.932391 -1.56117,-1.39621 -1.39488,-2.26261 0.149834,-0.780644 0.01978,-0.543388 6.09677,-11.1223 3.01173,-5.24285 5.50794,-9.69862 5.54713,-9.90171 0.06098,-0.31595 -0.196572,-0.510905 -1.78446,-1.35074 -1.83362,-0.96981 -1.85873,-0.977254 -2.10782,-0.625022 -0.442438,0.625627 -1.07673,0.443555 -2.31471,-0.664428 -1.69883,-1.52045 -1.7577,-1.27579 1.98738,-8.25981 1.69805,-3.16661 3.2747,-5.95083 3.50368,-6.18714 l .4163,-.4297 7.4387,-.0499 7.4387,-.0499 -.2539,-.8095 c -0.591495,-1.88561 0.0095,-4.19663 1.44837,-5.56931 2.44153,-2.32924 6.36397,-1.55568 7.90246,1.55847 0.579908,1.17383 0.635892,3.05555 0.130563,4.38842 -0.761049,2.00737 -2.53385,3.22584 -4.6934,3.22584 -1.13716,0 -1.19375,0.01883 -1.11651,0.371533 0.04475,0.204342 0.327755,4.66386 0.628899,9.91004 0.412151,7.18 0.502564,9.70737 0.365658,10.2214 -0.100033,0.375618 -0.156083,0.723641 -0.124557,0.77339 1.57401,0.888629 3.19056,1.80148 4.90476,2.31477 1.33622,-1.87745 3.79733,-4.72921 4.27523,-4.95382 3.31797,-0.462086 6.85292,-0.488971 10.1599,0.0229 5.65738,6.56011 11.1844,13.7649 16.1971,20.8446 l -41.2337,.0825 8.7135,-13.7349 c -0.03569,-0.02979 -2.82976,-1.4995 -6.20907,-3.26604 -5.49669,-2.8734 -6.61951,-3.36642 -6.60593,-2.9006 0.0022,0.07386 0.425783,1.87241 0.941399,3.99676 l 1.19,3.8625 .0191,5.6271 c 0.01843,5.44325 0.0075,5.63849 -0.334064,5.97681 -0.375441,0.371853 -1.13427,0.403831 -3.33394,0.194644 z  m 6.7209,-24.8079 c -0.126001,-2.38697 -0.277007,-4.51805 -0.335569,-4.73573 -0.08264,-0.307176 -0.471447,0.423869 -1.73672,3.26544 -0.896631,2.01367 -1.65596,3.71102 -1.68739,3.77189 -0.06085,0.117854 3.79502,2.17412 3.91682,2.08877 0.03957,-0.02773 -0.03115,-2.00339 -0.157146,-4.39036 z  m -11.16,-6.8789 c 1.06846,-2.38463 1.99537,-4.47373 2.05981,-4.64247 0.108626,-0.284436 -0.01879,-0.30322 -1.74886,-0.257798 l -1.866,.049 -1.971,3.6822 c -1.08403,2.02522 -1.93552,3.71732 -1.8922,3.76023 0.110518,0.109463 3.28292,1.74115 3.38881,1.743 0.04772,0.000818 0.960953,-1.94954 2.02941,-4.33417 z "/>
</g>
</g>
</svg>
