<svg width="48" version="1.1" xmlns="http://www.w3.org/2000/svg" height="48">
<g id="g7" transform="translate(0,1)">
<path style="opacity:.65;fill:#fff" id="rect4154" d="M 3,1 V 12 H 45 V 4 H 23 V 1 Z"/>
<path id="folderTab" d="M 4,3 V 16 H 44 V 6 H 22 V 3 Z" transform="translate(0,-1)"/>
<path style="fill:#fff" id="folderPaper" d="m 6,8 h 36 v 33 h -36 Z "/>
<path style="fill:#5e87b2" id="folderFront" d="m 2,11 h 44 v 32 h -44 Z "/>
</g>
<g id="g3882" transform="matrix(0.39409474,0,0,0.33763388,5.0365653,9.1341047)">
<g style="fill:#fff">
<g style="stroke:none">
<path id="path3070" d="m 19.7009,79.4119 c 0,0 8.11173,8.18749 17.4064,5.07624 9.29469,-3.11125 7.60475,-6.05874 7.60475,-6.05874 0,0 5.06983,4.25749 9.46368,5.73124 4.39385,1.47375 13.8575,0 12.8436,-6.71374 -1.01397,-6.71374 3.21089,6.38624 12.3366,7.36874 l -13.5195,-11.4625 c 0,0 -3.21089,5.73124 -6.59078,9.33374 -3.37989,3.6025 -14.1402,-10.0914 -17.0684,-4.58499 -2.97559,5.59552 -22.4762,1.31 -22.4762,1.31 z "/>
<path id="path3840" d="m 35.3511,65.9711 c 0,0 6.35919,8.18749 13.6458,5.07624 7.28658,-3.11125 5.96175,-6.05874 5.96175,-6.05874 0,0 3.9745,4.25749 7.41906,5.73124 3.44456,1.47375 10.8636,0 10.0687,-6.71374 -0.7949,-6.71374 2.51718,6.38624 9.67127,7.36874 l -10.5987,-11.4625 c 0,0 -2.51718,5.73124 -5.16685,9.33374 -2.64966,3.6025 -11.0852,-10.0914 -13.3808,-4.58499 -2.33272,5.59552 -17.6203,1.31 -17.6203,1.31 z "/>
</g>
<g id="g3844" transform="translate(-4.3402765,0)">
<path id="path5-6" d="m 63.489,37.8822 c 0.07823,-0.492226 0.115791,-0.992862 0.115791,-1.49341 0,-6.24471 -5.75011,-11.3278 -12.8212,-11.3278 -4.10058,0 -7.86611,1.71191 -10.2514,4.51899 -0.841992,-0.179828 -1.69961,-0.27107 -2.56985,-0.27107 -6.18523,0 -11.2185,4.44704 -11.2185,9.91181 0,0.138322 0.0031,0.273813 0.0094,0.409304 -4.63576,1.21685 -8.02266,5.01679 -8.02266,9.50251 0,5.46477 5.03332,9.91181 11.2186,9.91181 h 27.245 c 7.07109,0 12.8212,-5.08033 12.8212,-11.3278 0,-4.12898 -2.56985,-7.85971 -6.52639,-9.83438 z  m -6.2948,18.3302 h -27.245 c -4.42612,0 -8.01325,-3.16939 -8.01325,-7.07987 0,-3.91048 3.58723,-7.07986 8.01325,-7.07986 0.244204,0 0.475787,0.04425 0.71368,0.06363 -0.450745,-0.884983 -0.71368,-1.86121 -0.71368,-2.89558 0,-3.91056 3.58723,-7.07987 8.01325,-7.07987 1.44619,0 2.78591,0.365056 3.95654,0.956932 1.4524,-3.05877 4.87366,-5.20485 8.86466,-5.20485 5.31188,0 9.6159,3.80269 9.6159,8.49584 0,1.11729 -0.259829,2.17927 -0.704264,3.15833 4.09116,0.978969 7.11486,4.24792 7.11486,8.16946 0,4.69315 -4.30402,8.49584 -9.6159,8.49584 z "/>
<path id="path3842" d="m 82.9595,24.3074 c 0.03585,-0.22554 0.05306,-0.454934 0.05306,-0.684286 0,-2.86135 -2.63472,-5.19044 -5.87473,-5.19044 -1.8789,0 -3.60428,0.784405 -4.69721,2.07062 -0.385804,-0.0824 -0.778769,-0.124206 -1.17752,-0.124206 -2.8341,0 -5.14039,2.03765 -5.14039,4.54164 0,0.06338 0.0014,0.125462 0.0043,0.187545 -2.12413,0.557566 -3.67602,2.29872 -3.67602,4.35409 0,2.50398 2.30629,4.54164 5.14039,4.54164 h 12.4838 c 3.24,0 5.87473,-2.32783 5.87473,-5.19044 0,-1.89192 -1.17752,-3.60136 -2.99042,-4.50615 z  m -2.8843,8.399 h -12.4838 c -2.02807,0 -3.67171,-1.45223 -3.67171,-3.24403 0,-1.7918 1.64369,-3.24403 3.67171,-3.24403 0.111895,0 0.218007,0.02028 0.327011,0.02916 -0.206533,-0.405502 -0.327011,-0.852813 -0.327011,-1.32676 0,-1.79184 1.64368,-3.24403 3.67171,-3.24403 0.662652,0 1.27652,0.16727 1.81291,0.43847 0.665496,-1.40154 2.23313,-2.38489 4.06182,-2.38489 2.43393,0 4.40605,1.74241 4.40605,3.89283 0,0.511946 -0.119055,0.998551 -0.322698,1.44716 1.87459,0.448567 3.26006,1.94642 3.26006,3.74328 0,2.15042 -1.97212,3.89283 -4.40605,3.89283 z "/>
</g>
</g>
</g>
</svg>
