<svg width="48" version="1.1" xmlns="http://www.w3.org/2000/svg" height="48">
<g id="g7" transform="translate(0,1)">
<path style="opacity:.65;fill:#fff" id="rect4154" d="M 3,1 V 12 H 45 V 4 H 23 V 1 Z"/>
<path id="folderTab" d="M 4,3 V 16 H 44 V 6 H 22 V 3 Z" transform="translate(0,-1)"/>
<path style="fill:#fff" id="folderPaper" d="m 6,8 h 36 v 33 h -36 Z "/>
<path style="fill:#5e87b2" id="folderFront" d="m 2,11 h 44 v 32 h -44 Z "/>
</g>
<g id="layer1" transform="translate(-0.59657031,1.4374)">
<path style="fill:#fff" id="path2994" d="m 25.9375,14 -4.0938,.4062 v 16.8125 l 4.0312,-.625 v -7.15625 l 5.4375,7.9375 4.25,-1.3438 -5.5625,-7.625 5.625,-7.2188 -4.3438,-1 -5.4062,7.2188 .0625,-7.4062 z  m -9.25,4.125 c -0.04614,0.0047 -0.12151,-0.0036 -0.15625,0.03125 l -1.5938,1.625 c -0.06738,0.06759 -0.0807,0.16818 -0.03125,0.25 l 1.875,3.0938 c -0.332861,0.559557 -0.590964,1.14489 -0.78125,1.78125 l -3.4375,.7188 c -0.09584,0.01981 -0.1875,0.12054 -0.1875,0.21875 v 2.25 c 0,0.09584 0.09473,0.19615 0.1875,0.21875 l 3.3438,.8125 c 0.178567,0.73673 0.447343,1.42035 0.8125,2.0625 l -1.9375,2.9688 c -0.05399,0.08231 -0.03837,0.18053 0.03125,0.25 l 1.5938,1.5938 c 0.06759,0.06738 0.16839,0.08093 0.25,0.03125 l 3.0312,-1.8438 c 0.595132,0.343603 1.25874,0.629189 1.9375,0.8125 l .6875,3.4062 c 0.01981,0.09612 0.12061,0.15625 0.21875,0.15625 h 2.25 c 0.09514,0 0.19615,-0.06321 0.21875,-0.15625 l .8125,-3.4062 c 0.700041,-0.188752 1.35827,-0.484384 1.96875,-0.84375 l 3,1.9688 c 0.08245,0.05371 0.18011,0.03821 0.25,-0.03125 l 1.625,-1.5938 c 0.0678,-0.06766 0.08091,-0.16839 0.03125,-0.25 l -1.0938,-1.8125 -.375,.125 c -0.05162,0.0159 -0.09431,-0.01758 -0.125,-0.0625 0,0 -0.695332,-0.99724 -1.59375,-2.3125 -1.07447,2.10249 -3.25745,3.53125 -5.78125,3.53125 -3.58627,-1e-06 -6.5,-2.91373 -6.5,-6.5 0,-2.63798 1.5848,-4.88967 3.84375,-5.90625 v -1.6875 c -0.411123,0.1439 -0.809996,0.325618 -1.1875,0.53125 l -3.0625,-2.0312 c -0.04115,-0.02692 -0.07885,-0.0048 -0.125,0 z "/>
</g>
</svg>
