<svg width="48" version="1.1" xmlns="http://www.w3.org/2000/svg" height="48">
<path style="opacity:.65;fill:#fff;stroke:none" id="rect4154" d="m 3,1.959 0,9.342 42,0 0,-6.9866 -22,0 0,-2.3555 z"/>
<g id="folderLayer">
<g style="stroke:none">
<g id="g3053" transform="matrix(1,0,0,1.1773318,0,-5.2823341)">
<rect width="18" x="4" y="6.9996953" height="10" id="folderTab"/>
<rect width="40" x="4" y="9" height="30" id="folderBackground"/>
<rect width="35.999992" x="6" y="10.9998" height="27.999756" style="fill:#fff" id="folderPaper"/>
<rect width="43.999996" x="2" y="12.999983" height="28.000008" style="fill:#5e87b2" id="folderFront"/>
</g>
<rect width="35.999992" x="6" y="7.6680799" height="32.965004" style="fill:#fff" id="rect3849"/>
<rect width="43.999996" x="2" y="10.022959" height="32.965298" style="fill:#5e87b2" id="rect3851"/>
<rect width="30" x="9.380971" y="11.101083" height="30" style="fill:none" id="rect3265"/>
</g>
<g style="fill:#fff" id="layer1" transform="matrix(1.0793629,0,0,1.0793629,-1.8749834,-2.2839057)">
<path style="stroke:none" id="path3003" d="m 25.1875,14.0625 -.875,.25 c -1.2171,0.41108 -4.66827,1.87672 -7.65625,3.21875 -3.12218,1.40231 -3.5625,1.61454 -3.5625,1.78125 0,0.07234 0.718523,0.50172 1.5625,0.96875 2.70972,1.49948 8.57381,4.4984 8.8125,4.5 0.12711,0.00083 0.47922,-0.08318 0.78125,-0.21875 0.30203,-0.13557 2.53431,-1.20014 4.9375,-2.34375 2.40319,-1.14361 4.65933,-2.21405 5.03125,-2.375 0.983661,-0.425676 1.03539,-0.470076 0.5625,-0.78125 -0.728332,-0.479263 -4.43583,-2.46074 -7.03125,-3.75 l -2.5625,-1.25 z  m -.6875,2.3125 c 1.07528,-0.0042 1.95504,0.122166 2.59375,0.34375 0.96311,0.334115 1.36407,0.527517 1.5625,0.8125 0.518328,0.744407 0.875,1.37051 0.875,1.5 0,0.192249 -0.469487,0.3756 -0.8125,0.3125 -0.147411,-0.02712 -0.444144,-0.0904 -0.65625,-0.125 -0.312307,-0.05095 -0.436332,-0.133058 -0.625,-0.46875 -0.267203,-0.47542 -0.945931,-0.976645 -1.625,-1.15625 -1.03728,-0.274349 -3.90425,-0.05354 -4.78125,0.375 -0.495505,0.242123 -0.74133,0.769641 -0.8125,1.65625 -0.04852,0.6043 -0.0675,0.728725 0.15625,0.96875 0.302999,0.325022 1.18251,0.777575 2.125,1.09375 0.525131,0.17615 0.79483,0.20578 1.15625,0.15625 0.841572,-0.115351 0.969841,-0.310586 0.46875,-0.9375 -0.43214,-0.540658 -0.517951,-0.857892 -0.375,-1.125 0.100255,-0.187345 0.152046,-0.23631 0.625,-0.1875 0.670195,0.06917 2.07328,0.655944 2.40625,0.96875 0.29308,0.275334 0.380003,0.901245 0.125,1.15625 -0.290687,0.290687 -1.62161,0.973502 -2.125,1.125 -0.586955,0.176647 -1.44346,0.238089 -2.15625,0.0625 -1.50684,-0.371227 -3.21237,-1.25606 -3.65625,-1.875 -0.351439,-0.490033 -0.65625,-1.27921 -0.65625,-1.71875 0,-0.530011 0.31479,-1.29825 0.75,-1.75 0.551518,-0.572483 1.31932,-0.799889 3.3125,-1.03125 0.742887,-0.08623 1.47983,-0.15375 2.125,-0.15625 z  m -12.2812,3.8438 c -0.13329,0.133195 -0.126087,5.51817 0,9.28125 l .0625,2.6875 .75,.4375 c 0.640877,0.370844 4.39243,2.85945 8,5.34375 0.600798,0.41373 1.15595,0.7474 1.25,0.75 0.149328,0.0043 0.19545,-0.179851 0.25,-1.65625 0.03436,-0.929806 0.07917,-3.62014 0.125,-5.9375 0.101767,-5.14495 0.155729,-4.95488 -0.9375,-5.6875 -1.34035,-0.898226 -2.84677,-1.76858 -5.3125,-3.0625 -1.34464,-0.705614 -2.79388,-1.47611 -3.25,-1.75 -0.496898,-0.298373 -0.792911,-0.42704 -0.90625,-0.40625 -0.01619,0.0029 -0.02215,-0.0091 -0.03125,0 z  m 23.625,.0938 c -0.134526,0 -2.5522,1.07573 -5.65625,2.53125 -1.91683,0.898817 -4.06337,1.93408 -4.75,2.25 -0.686624,0.315921 -1.33507,0.62185 -1.40625,0.6875 -0.213104,0.196516 -0.685504,12.1103 -0.5,12.5938 0.06017,0.156809 0.156659,0.145007 0.6875,-0.15625 0.329158,-0.186802 2.00219,-1.17455 3.71875,-2.15625 4.54216,-2.59766 6.06753,-3.54066 6.125,-3.8125 0.0264,-0.124898 0.1262,-0.745593 0.21875,-1.375 0.09255,-0.629406 0.478859,-3.09914 0.875,-5.5 0.66273,-4.01656 0.815032,-5.0625 0.6875,-5.0625 z  m -1.8125,3.5311 -3.9688,5.4062 3.6875,1.75 l -1.5,.9688 -3.7188,-1.6562 -1.375,.6875 -.0625,2.625 -1.4375,.6562 c -0.03667,-2.75733 -0.272832,-5.48703 0.34375,-8.375 h 1.34375 l .0938,3.9688 4.4688,-5.5 2.125,-.5312 z  m -19.4688,.1875 6.25,3 -.125,2 -2.2812,-.9062 c -0.28918,1.16068 -0.334349,3.47168 -0.5,5.25 l -1.7812,-.9375 .1562,-5.2188 -1.9688,-1.0312 .25,-2.1562 z "/>
</g>
</g>
</svg>
