<svg width="48" version="1.1" xmlns="http://www.w3.org/2000/svg" height="48">
<g id="g7" transform="translate(0,1)">
<path style="opacity:.65;fill:#fff" id="rect4154" d="M 3,1 V 12 H 45 V 4 H 23 V 1 Z"/>
<path id="folderTab" d="M 4,3 V 16 H 44 V 6 H 22 V 3 Z" transform="translate(0,-1)"/>
<path style="fill:#fff" id="folderPaper" d="m 6,8 h 36 v 33 h -36 Z "/>
<path style="fill:#5e87b2" id="folderFront" d="m 2,11 h 44 v 32 h -44 Z "/>
</g>
<g style="fill:#fff" id="g3057" transform="matrix(0.56181681,0,0,0.62171871,-10.852851,-14.793163)">
<path id="path3329" d="m -24.806,19.5676 c 0,2.5226 -2.04497,4.56757 -4.56757,4.56757 -2.5226,0 -4.56757,-2.04497 -4.56757,-4.56757 0,-2.5226 2.04497,-4.56757 4.56757,-4.56757 2.5226,0 4.56757,2.04497 4.56757,4.56757 z" transform="matrix(1.283852,0,0,1.095473,107.77473,40.52972)"/>
<path id="path3428" d="m 70.1391,52.6336 c -5.87346,0 -10.6533,4.25916 -10.6533,9.53125 0,5.27209 4.77983,9.5625 10.6533,9.5625 5.87345,0 10.6185,-4.29041 10.6185,-9.5625 0,-5.27209 -4.74501,-9.53125 -10.6185,-9.53125 z m 0,3.2187 c 3.89802,0 7.03255,2.8136 7.03255,6.31251 0,3.49891 -3.13454,6.34376 -7.03255,6.34376 -3.89802,0 -7.06737,-2.84485 -7.06737,-6.34376 0,-3.49891 3.16935,-6.31251 7.06737,-6.31251 z"/>
<path id="path3435" d="m 59.5252,62.2899 -6.754,9 2.2281,2 c 1.09769,0.511972 2.00028,1.29905 2.57628,2.28125 l 2.1933,1.9688 10.0962,-6.0625 -10.3399,-9.1875 z"/>
<path id="path4205" d="m -40.25,33.375 c 0,2.48528 -2.01472,4.5 -4.5,4.5 -2.48528,0 -4.5,-2.01472 -4.5,-4.5 0,-2.48528 2.01472,-4.5 4.5,-4.5 2.48528,0 4.5,2.01472 4.5,4.5 z" transform="matrix(0.98449261,0,0,0.97652563,97.184989,45.690193)"/>
<path id="path4207" d="m 52.2141,71.2899 c -4.1916,0 -7.58959,3.05004 -7.58959,6.8125 0,3.76242 3.39799,6.81247 7.58959,6.81247 4.19161,0 7.58959,-3.05004 7.58959,-6.81247 0,-3.76246 -3.39798,-6.8125 -7.58959,-6.8125 z m 0,1.375 c 3.3456,0 6.05775,2.43447 6.05775,5.43752 0,3.00302 -2.71215,5.43749 -6.05775,5.43749 -3.3456,0 -6.05775,-2.43446 -6.05775,-5.43749 0,-3.00306 2.71215,-5.43752 6.05775,-5.43752 z"/>
<path id="rect3263-1" d="m 39.33,67.6602 v 8.4375 l 12.524,5.875 c 0.05719,0.0248 0.12313,-0.0013 0.145949,-0.06236 l 2.6563,-7.0625 c 0.02268,-0.0613 -0.03012,-0.131811 -0.08759,-0.15626 l -15.2387,-7.0313 z"/>
</g>
</svg>
