<svg width="48" version="1.1" xmlns="http://www.w3.org/2000/svg" height="48">
<path style="opacity:.65;fill:#fff;stroke:none" id="rect4154" d="m 3,1.959 0,9.342 42,0 0,-6.9866 -22,0 0,-2.3555 z"/>
<g id="folderLayer">
<g style="stroke:none">
<g id="g3053" transform="matrix(1,0,0,1.1773318,0,-5.2823341)">
<rect width="18" x="4" y="6.9996953" height="10" id="folderTab"/>
<rect width="40" x="4" y="9" height="30" id="folderBackground"/>
<rect width="35.999992" x="6" y="10.9998" height="27.999756" style="fill:#fff" id="folderPaper"/>
<rect width="43.999996" x="2" y="12.999983" height="28.000008" style="fill:#5e87b2" id="folderFront"/>
</g>
<rect width="35.999992" x="6" y="7.6680799" height="32.965004" style="fill:#fff" id="rect3849"/>
<rect width="43.999996" x="2" y="10.022959" height="32.965298" style="fill:#5e87b2" id="rect3851"/>
<rect width="30" x="9.380971" y="11.101083" height="30" style="fill:none" id="rect3265"/>
<path style="fill:#fff" id="path39063" d="m 24.0485,13.9994 c 1.5317,-0.002 3.32243,5.10271 4.56275,6.00145 1.24032,0.898736 6.75946,1.05132 7.23463,2.50746 0.475175,1.45613 -3.88575,4.79074 -4.35722,6.24809 -0.471468,1.45734 1.07361,6.70268 -0.164423,7.60458 -1.23803,0.901891 -5.74403,-2.22167 -7.27573,-2.21972 -1.5317,0.002 -5.99431,3.11845 -7.23463,2.21972 -1.24032,-0.898736 0.310751,-6.10734 -0.164424,-7.56347 -0.475176,-1.45613 -4.8698,-4.79074 -4.39832,-6.24809 0.471468,-1.45734 5.95549,-1.60556 7.19352,-2.50746 1.23803,-0.901889 3.07215,-6.0406 4.60385,-6.04256 z "/>
</g>
</g>
</svg>
