<svg width="48" version="1.1" xmlns="http://www.w3.org/2000/svg" height="48">
<g id="g7" transform="translate(0,1)">
<path style="opacity:.65;fill:#fff" id="rect4154" d="M 3,1 V 12 H 45 V 4 H 23 V 1 Z"/>
<path id="folderTab" d="M 4,3 V 16 H 44 V 6 H 22 V 3 Z" transform="translate(0,-1)"/>
<path style="fill:#fff" id="folderPaper" d="m 6,8 h 36 v 33 h -36 Z "/>
<path style="fill:#5e87b2" id="folderFront" d="m 2,11 h 44 v 32 h -44 Z "/>
</g>
<path style="fill:#fff;fill-rule:evenodd" id="path3079" d="m 23.9254,12.056 c 1.93912,1.29858 4.11443,3.26653 -2.56403,5.43049 -6.67846,2.16465 -0.251824,6.81032 -0.251824,6.81032 l 1.0989,1.6089 c 4.95541,-0.865896 2.999,-2.04971 2.999,-2.04971 -4.3087,-4.00366 -0.658574,-2.95794 2.60982,-5.42181 3.26872,-2.46318 -3.89184,-6.37821 -3.89184,-6.37821 z  m 1.717,11.2049 c 0.234874,0.183881 0.475424,0.403246 0.778367,0.617117 2.52655,0.322411 4.28102,1.00376 4.28102,1.78523 0,1.08967 -3.37564,2.77703 -7.55474,2.77703 -4.17795,0 -7.57767,-1.68736 -7.57767,-2.77703 0,-0.7274 1.53086,-1.35204 3.77737,-1.69707 -0.189943,-0.140627 -0.373009,-0.294481 -0.572329,-0.46284 -2.85392,0.424546 -4.83045,1.22151 -4.83045,2.15991 0,0.05922 0.0077,0.118191 0.02289,0.176319 h -0.02289 v 11.7693 c 0,0.332824 0.530242,0.983057 0.869939,1.27831 0.251692,1.33192 3.70683,3.19579 8.33311,3.19579 4.60072,0 8.04293,-1.85268 8.33311,-3.17374 0.356117,-0.301494 0.869941,-0.959134 0.869941,-1.30035 v -1.38849 l .1831,-.0662 c 0.176058,-0.06665 4.30943,-1.66398 5.17385,-4.49614 0.337237,-1.10779 0.09555,-2.2494 -0.663902,-3.39414 l -.0229,-.0441 -.0229,-.022 c -0.728234,-0.413498 -3.66074,-0.03018 -4.64731,0.1102 v -2.46847 h -0.04578 c 0.01516,-0.05813 0.04578,-0.117114 0.04578,-0.176319 0,-1.13542 -2.84147,-2.10576 -6.70769,-2.40235 z  m -5.0136,1.5649 c -1.64483,0.21609 -2.61939,0.619845 -3.20504,1.14607 0.864278,0.770902 2.91647,1.71911 5.72329,1.71911 2.80759,0 4.85923,-0.948208 5.72329,-1.71911 -0.452341,-0.407867 -1.01742,-0.734885 -2.15196,-0.969755 -0.558299,0.419121 -1.90932,0.99714 -5.03649,1.65299 l -1.0531,-1.8293 z  m 14.8348,6.083 c 0.219537,0.136058 0.228932,0.263199 0.228932,0.352638 v 0.02204 c -0.01586,0.756678 -2.03271,2.08625 -3.3424,2.77703 v -2.57867 l .0458,.022 h 0.06868 c 1.28564,-0.304574 2.74078,-0.602479 2.999,-0.595076 z "/>
</svg>
