<svg width="48" version="1.1" xmlns="http://www.w3.org/2000/svg" height="48">
<g id="g7" transform="translate(0,1)">
<path style="opacity:.65;fill:#fff" id="rect4154" d="M 3,1 V 12 H 45 V 4 H 23 V 1 Z"/>
<path id="folderTab" d="M 4,3 V 16 H 44 V 6 H 22 V 3 Z" transform="translate(0,-1)"/>
<path style="fill:#fff" id="folderPaper" d="m 6,8 h 36 v 33 h -36 Z "/>
<path style="fill:#5e87b2" id="folderFront" d="m 2,11 h 44 v 32 h -44 Z "/>
</g>
<path style="fill:#fff" id="path39063" d="m 24.0484,15.9749 c 1.53169,-0.002 3.3224,5.10271 4.56271,6.00145 1.24031,0.898736 6.7594,1.05132 7.23457,2.50746 0.475171,1.45613 -3.88572,4.79074 -4.35718,6.24809 -0.471464,1.45734 1.0736,6.70268 -0.164421,7.60458 -1.23802,0.901891 -5.74398,-2.22167 -7.27567,-2.21972 -1.53169,0.002 -5.99426,3.11845 -7.23457,2.21972 -1.24031,-0.898736 0.310748,-6.10734 -0.164423,-7.56347 -0.475171,-1.45613 -4.86976,-4.79074 -4.39828,-6.24809 0.471464,-1.45734 5.95544,-1.60556 7.19346,-2.50746 1.23802,-0.901889 3.07212,-6.0406 4.60381,-6.04256 z "/>
</svg>
