<svg width="48" version="1.1" xmlns="http://www.w3.org/2000/svg" height="48">
<g id="g7" transform="translate(0,1)">
<path style="opacity:.65;fill:#fff" id="rect4154" d="M 3,1 V 12 H 45 V 4 H 23 V 1 Z"/>
<path id="folderTab" d="M 4,3 V 16 H 44 V 6 H 22 V 3 Z" transform="translate(0,-1)"/>
<path style="fill:#fff" id="folderPaper" d="m 6,8 h 36 v 33 h -36 Z "/>
<path style="fill:#5e87b2" id="folderFront" d="m 2,11 h 44 v 32 h -44 Z "/>
</g>
<path style="fill:#fff" id="path4175" d="m 21.5939,17.445 c -0.417306,0.01203 -0.747319,0.03799 -0.96875,0.0625 -2.68499,0.297167 -5.0337,1.00319 -7.65625,2.3125 -4.22685,2.11026 -6.87622,4.51808 -8.375,7.5625 -0.671091,1.36315 -0.9297,2.32211 -0.9375,3.75 -0.005,0.903426 0.07918,1.39018 0.3125,2.125 0.840436,2.6469 3.22427,4.5124 6,4.71875 2.68598,0.199661 4.7022,-0.864749 5.59375,-2.96875 0.32323,-0.76278 0.40259,-1.41528 0.3125,-2.25 -0.220301,-2.04123 -1.54886,-3.58004 -3.5,-4.09375 -0.597454,-0.157305 -1.50736,-0.191786 -2.09375,-0.03125 -1.60777,0.440158 -2.77384,1.89874 -2.34375,3.6875 0.364894,1.51763 2.12545,2.47742 3.625,1.875 0.598802,-0.240556 0.9547,-0.548491 0.78125,-1.1875 -0.176788,-0.65123 -0.60003,-0.797274 -1.4375,-0.5625 -0.329647,0.09242 -0.565852,0.03574 -0.8125,-0.1875 -0.413796,-0.374525 -0.424094,-0.935118 0,-1.34375 0.516238,-0.497403 1.48195,-0.562496 2.34375,-0.125001 0.852891,0.432985 1.4784,1.67648 1.34375,2.65625 -0.144549,1.05176 -0.76965,1.787 -1.78125,2.125 -0.337733,0.11284 -0.48518,0.127 -1.28125,0.125 -0.853894,-0.0021 -0.894737,-0.02614 -1.375,-0.1875 -1.80161,-0.605386 -2.98897,-2.22984 -3,-4.125 -0.007,-1.19681 0.400069,-2.16213 1.34375,-3.09375 0.887075,-0.875742 2.04089,-1.31303 3.5,-1.3125 1.81382,0.000655 3.30625,0.617722 4.625,1.9375 0.992446,0.993237 1.74246,2.35136 2.03125,3.65625 l .0938,.4062 2.625,1.2812 c 0.02089,-0.01911 -0.003,-0.193081 -0.03125,-0.3125 -0.106741,-0.451288 -0.124221,-1.71847 -0.03125,-2.25 0.135209,-0.772995 0.328837,-1.17691 0.71875,-1.5625 0.60115,-0.594482 1.34277,-0.84275 2.46875,-0.84375 1.49771,-0.0014 2.76969,0.546764 3.90625,1.6875 0.255033,0.255967 0.793379,0.858891 1.21875,1.34375 0.425374,0.484848 0.857849,0.94392 0.9375,1 0.223483,0.157334 3.24357,1.53774 3.28125,1.5 0.01832,-0.01835 -0.06759,-0.218449 -0.21875,-0.4375 -0.591656,-0.857417 -1.08917,-1.94607 -1.28125,-2.8125 -0.131399,-0.592753 -0.11078,-1.47633 0.0625,-1.875 0.162221,-0.373268 0.509229,-0.67244 0.875,-0.78125 0.391799,-0.116564 1.25859,-0.129886 2.40625,0 1.37643,0.15577 2.12363,0.19362 3.03125,0.125 2.06696,-0.156258 3.4226,-0.509369 4.9375,-1.25 0.791712,-0.387078 0.953763,-0.537177 1.125,-1 0.16325,-0.44128 0.23949,-0.84375 0.15625,-0.84375 -0.02946,0 -0.314334,0.103193 -0.624999,0.25 -1.16573,0.550871 -2.14268,0.79747 -3.03125,0.75 -0.923726,-0.04934 -2.45454,-0.542887 -4.25,-1.40625 l -.8125,-.4062 -.6562,-1.5938 .625,.4062 c 1.02519,0.680762 2.67703,1.49293 3.6875,1.8125 1.54373,0.488204 2.75694,0.414462 4,-0.21875 0.438141,-0.223182 1.28125,-0.79701 1.28125,-0.875 0,-0.147001 -0.442817,-1.57027 -0.687499,-2.21875 -0.61187,-1.62167 -1.02288,-2.14399 -2.03125,-2.625 -1.11949,-0.534026 -2.35659,-0.920479 -4.625,-1.4375 -1.08453,-0.230278 -2.18056,-0.456502 -3.28125,-0.59375 l -.0312,1.3438 c -2.5644,-0.797496 -4.797,-1.33719 -7.28125,-1.59375 -0.641952,-0.0663 -2.07028,-0.09455 -3.375,-0.09375 -0.507388,0.000308 -1.0202,-0.01203 -1.4375,0 z  m 18.4062,2.75 c 0.828426,-0.0021 1.63135,0.416915 2.09375,1.1875 0.788445,1.31397 0.131178,3.03348 -1.34375,3.53125 -0.973377,0.328506 -2.12979,-0.08032 -2.71875,-0.9375 -0.483399,-0.70353 -0.56982,-1.61326 -0.21875,-2.375 0.199475,-0.432833 0.676581,-0.928066 1.0625,-1.125 0.364122,-0.18584 0.748433,-0.280292 1.125,-0.28125 z  m 0,.6875 c -0.388224,0.0082 -0.79107,0.166504 -1.125,0.46875 -0.509853,0.461444 -0.669236,1.30099 -0.375,1.9375 0.241565,0.522593 0.684941,0.88149 1.21875,0.96875 0.756966,0.12375 1.46694,-0.222133 1.78125,-0.875 0.214998,-0.446613 0.263899,-0.766537 0.15625,-1.1875 -0.213685,-0.835598 -0.915118,-1.32821 -1.65625,-1.3125 z  m .375,.875 c 0.287788,0 0.644148,0.170758 0.6875,0.34375 0.05889,0.235082 -0.02185,0.414643 -0.25,0.53125 -0.352303,0.180064 -0.797319,0.124569 -1.0625,-0.125 -0.326932,-0.307697 0.03357,-0.75 0.625,-0.75 z "/>
</svg>
