<svg width="48" version="1.1" xmlns="http://www.w3.org/2000/svg" height="48">
<path style="opacity:.65;fill:#fff;stroke:none" id="rect4154" d="m 3,1.959 0,9.342 42,0 0,-6.9866 -22,0 0,-2.3555 z"/>
<g id="folderLayer">
<g style="stroke:none">
<g id="g3053" transform="matrix(1,0,0,1.1773318,0,-5.2823341)">
<rect width="18" x="4" y="6.9996953" height="10" id="folderTab"/>
<rect width="40" x="4" y="9" height="30" id="folderBackground"/>
<rect width="35.999992" x="6" y="10.9998" height="27.999756" style="fill:#fff" id="folderPaper"/>
<rect width="43.999996" x="2" y="12.999983" height="28.000008" style="fill:#5e87b2" id="folderFront"/>
</g>
<rect width="35.999992" x="6" y="7.6680799" height="32.965004" style="fill:#fff" id="rect3849"/>
<rect width="43.999996" x="2" y="10.022959" height="32.965298" style="fill:#5e87b2" id="rect3851"/>
<rect width="30" x="9.380971" y="11.101083" height="30" style="fill:none" id="rect3265"/>
</g>
<g style="fill:#fff" id="layer1" transform="translate(0.00633406,0.17490877)">
<path style="stroke:none" id="path3003" d="m 25.75,13.5 c -0.750307,0.07346 -1.1804,1.42732 -2.0625,1.59375 -1.44185,-0.217604 -2.918,0.382269 -4.34375,-0.03125 C 17.94134,14.225273 17.62722,15.889472 17,16.625 c -1.19968,0.397241 -2.55374,0.595132 -3.59375,1.34375 -1.56078,0.980134 -2.0722,2.87843 -1.59375,4.5 0.816531,1.51899 1.92878,2.96139 3.34375,4.0625 1.06188,1.079 2.77288,0.979237 4.15625,1.4375 0.171106,0.06226 0.314115,0.15815 0.4375,0.28125 0.06435,0.03891 0.10807,0.08945 0.15625,0.125 -0.216219,-0.227862 -0.444988,-0.449505 -0.5625,-0.75 -0.2475,-0.999355 -0.54793,-2.0947 -0.25,-3.125 0.084,0.05907 0.2439,0.09621 0.28125,-0.03125 -0.0039,-0.424774 -0.281086,-0.788431 -0.40625,-1.1875 0.240704,0.228923 0.49649,0.422367 0.78125,0.59375 0.756634,0.357801 1.54784,0.80278 2.40625,0.84375 1.13658,0.140433 2.07972,-0.62383 3.1875,-0.6875 0.831191,-0.122157 1.37696,0.651731 2.125,0.84375 0.503376,0.331328 0.443114,1.11091 0.1875,1.59375 -0.578407,0.529067 -1.39714,0.69653 -1.9375,1.28125 -0.443427,0.592738 -1.08279,1.01607 -1.75,1.3125 -0.732392,0.27426 -1.37892,0.83278 -2.1875,0.84375 -0.506004,0.05188 -1.02484,-0.178121 -1.25,-0.65625 -0.08974,-0.236175 -0.243999,-0.443241 -0.40625,-0.625 0.223356,0.549936 -1.67429,0.727573 -1,1.5625 0.173389,1.60577 1.14561,3.15912 2.65625,4 1.43491,0.865467 2.07461,0.06913 1.9375,-1.78125 0.01702,-1.10907 1.23635,-2.23826 2.53125,-1.65625 0.96245,0.556009 2.32429,1.75384 3.0625,0.3125 0.4939,0.115964 0.762793,0.07345 1.1875,0.40625 2.04667,-2.79467 2.68062,-1.4056 2.53125,-4.4375 0.279272,-0.212946 0.553358,-0.411897 1.09375,-0.8125 0.706284,-0.68972 0.820814,-1.67903 1.46875,-2.40625 0.620507,-0.808102 1.20363,-2.11548 0.25,-2.90625 -1.26823,-0.789355 -2.61024,0.629433 -3.9375,0.21875 -0.337627,-1.06355 -0.646082,-2.14694 -1.0625,-3.1875 -0.583074,-1.90108 -2.42902,-3.10848 -4.21875,-4 -0.355694,-0.34365 -0.624898,-0.43072 -0.875,-0.40625 V 13.5 z m -0.7812,0.875 c 0.03264,0 0.0271,0.05355 -0.0625,0.21875 -0.151414,0.278978 -0.26413,0.487829 -0.34375,0.78125 -0.05626,0.207346 -0.15183,0.472021 -0.21875,0.71875 C 24.25583,16.41789 24.307462,16.5 23.93755,16.5 H 23.7813 c 0.138773,0.03125 0.275038,0.06274 0.40625,0.125 0.142181,0.07528 0.27988,0.188929 0.375,0.3125 -0.86569,0.153578 -1.76297,-0.210707 -2.625,0 -0.458593,0.05718 -0.942462,0.271805 -1.125,0.6875 -0.307241,0.415636 -0.50335,0.900116 -0.53125,1.40625 -0.0724,0.404257 -0.03948,0.827396 0.25,1.15625 0.25065,0.41711 0.391575,0.919099 0.53125,1.375 0.454064,0.268779 0.926585,-0.203928 1.40625,-0.09375 0.542929,0.02418 1.12584,0.03445 1.5625,-0.3125 0.517033,-0.29295 1.1146,-0.591748 1.375,-1.125 0.24843,-0.405908 0.29227,-0.888614 0.21875,-1.34375 -0.09424,-0.366644 0.312381,-1.08629 0.71875,-0.8125 0.01502,-0.08637 0.03125,-0.167111 0.03125,-0.28125 0,-0.46221 -0.236739,-0.634878 -0.53125,-0.90625 -0.387722,-0.35727 -0.450353,-0.12914 -0.59375,-0.75 -0.125728,-0.544335 0.03415,-0.71863 0.21875,-0.6875 0.234148,0.0395 0.453378,0.475108 0.65625,0.90625 0.562935,1.19632 0.727377,2.15994 0.90625,2.5 0.281578,0.535256 0.552046,1.37293 0.90625,1.8125 0.964886,1.19739 1.77885,1.45752 1.90625,2.78125 0.106054,1.102 -0.618473,1.31711 0.34375,1.4375 0.321778,0.03773 0.68871,-0.701841 0.71875,-0.8125 0.124466,-0.458793 0.317599,-0.716661 0.625,-1 0.349289,-0.321779 0.858327,-0.520353 1.3125,-0.625 0.587009,-0.135303 -0.2724,0.49682 -0.34375,0.5625 -0.36723,0.338404 -0.385669,0.527646 -0.625,0.96875 -0.230333,0.42448 0.04431,0.5976 0.375,0.75 0.213966,0 0.612525,0.04158 0.9375,0.09375 -0.329695,-0.01651 -0.716445,0.0082 -0.9375,-0.09375 -0.609397,0 -1.04556,0.04102 -1.4375,0.3125 -0.286488,0.197972 -0.717437,0.806391 -0.875,1 -0.39102,0.480369 -0.34375,0.36779 -0.34375,-0.28125 0,-0.385275 0.140275,-0.429662 -0.09375,-0.96875 -0.285439,-0.32119 0,-0.646522 0,-1.15625 0,-0.510614 -0.109958,-0.715602 -0.28125,-1.03125 -0.114093,-0.210175 -0.471488,-0.514876 -0.625,-0.65625 -0.25969,-0.239418 -0.456126,-0.412695 -0.78125,-0.5625 -0.353299,-0.162835 -0.56803,-0.337231 -0.8125,-0.5625 -0.2222,-0.204811 -0.400509,-0.759108 -0.53125,-1 -0.17504,-0.322545 -0.25,-0.520808 -0.25,-0.96875 0,-0.0171 -5.26e-4,-0.04598 0,-0.0625 -0.102071,0.153284 -0.20265,0.288523 -0.21875,0.46875 -0.142299,0.563437 -0.181946,1.26384 -0.75,1.625 -0.4592,0.357036 -1.00007,0.648313 -1.5625,0.84375 0.436926,-0.09857 0.874181,0.150309 1.28125,0.28125 0.754572,0.18512 1.55007,0.101255 2.3125,0.25 0.430902,0.117086 1.07708,-0.176649 1.28125,0.34375 -0.07135,0.486324 -0.819006,0.19033 -1.1875,0.21875 -0.695362,-0.04658 -1.32539,-0.37305 -2.03125,-0.34375 -0.436726,-0.01058 -0.861588,-0.08066 -1.28125,-0.1875 -0.671575,-0.06443 -1.33307,-0.08462 -2,-0.1875 -0.450788,0.02358 -1.04879,0.257382 -1.375,-0.15625 -0.351842,-0.431554 -0.402217,-0.974703 -0.59375,-1.46875 -0.229602,-0.753451 -0.323144,-1.62432 0.09375,-2.34375 0.210845,-0.441872 0.580511,-0.794307 1.03125,-1.03125 -0.06804,-0.07818 -0.17919,-0.18603 -0.25,-0.21875 -0.193508,-0.08908 -0.231354,-0.18816 -0.5,-0.25 -0.162618,-0.03714 -0.370273,0.12813 -0.53125,0.1875 -0.08009,0.03479 -0.364931,0.11799 -0.53125,0.15625 -0.19607,0.0454 -0.331968,0.160104 -0.53125,0.34375 -0.14959,0.137897 -0.24424,0.374189 -0.3125,0.5 -0.113119,0.208349 -0.19921,0.348838 -0.28125,0.5 -0.09738,0.1794 -0.16154,0.399487 -0.25,0.5625 -0.108799,0.200448 -0.202832,0.42296 -0.3125,0.625 -0.10925,0.201393 -0.09743,0.376853 -0.15625,0.59375 -0.05941,0.21896 -0.07531,0.348017 -0.125,0.53125 -0.04597,0.169379 -0.09375,0.414589 -0.09375,0.625 0,0.21796 -0.02917,0.371134 0.03125,0.59375 0.03392,0.125045 0.377818,0.25307 0.5,0.28125 0.273767,0.06297 0.5,-0.05663 0.5,0.25 0,0.27503 -0.181787,0.27765 -0.4375,0.21875 C 17.71021,22.35377 17.624749,22.160354 17.4688,21.96875 17.359352,21.83433 17.12824,21.61909 17.0313,21.5 16.858622,21.287879 16.756274,21.116835 16.62505,20.875 16.49786,20.640652 16.5313,20.355865 16.5313,20.09375 c 0,-0.245609 0.12627,-0.368126 0.1875,-0.59375 0.06231,-0.229749 0.277571,-0.387822 0.40625,-0.625 0.138144,-0.254569 0.27082,-0.481222 0.34375,-0.75 0.06587,-0.242838 0.252535,-0.404917 0.40625,-0.59375 0.135415,-0.166373 0.467765,-0.383916 0.59375,-0.5 0.171049,-0.157646 0.33796,-0.31723 0.53125,-0.40625 0.235867,-0.108655 0.435182,-0.19382 0.625,-0.28125 0.161822,-0.07459 0.261071,-0.23344 0.46875,-0.28125 C 20.283699,16.01828 20.503966,16 20.75005,16 h 0.71875 c 0.193671,0 0.297854,0.243821 0.40625,0.34375 0.110975,0.102232 0.58344,-0.07696 0.65625,-0.09375 0.233713,-0.05365 0.54012,0 0.78125,0 0.446494,0 0.476423,-0.0265 0.71875,-0.25 0.1478,-0.136186 0.1875,-0.3196 0.1875,-0.53125 0,-0.228157 0.13298,-0.37319 0.21875,-0.53125 0.08564,-0.157823 0.24512,-0.34671 0.34375,-0.4375 0.09941,-0.09168 0.15485,-0.1282 0.1875,-0.125 z m -8.0625,3.25 c -1.60738,3.83765 -0.394916,4.30602 1.125,5.90625 0.281769,0.641849 0.23887,1.81799 -0.09375,2.84375 -0.398717,-0.413453 -1.60266,-0.769314 -1.9375,-1.5625 -0.854398,-0.900898 -3.36862,-2.2824 -2.71875,-3.53125 0.0763,0.568272 1.79281,3.35706 3.46875,2.21875 -1.0078,-1.52942 -2.6362,-3.58092 -1.0625,-5.28125 0.306858,-0.32738 0.748647,-0.54033 1.21875,-0.59375 z m 6.3125,0.625 c 0.227803,0 0.455429,0.01675 0.65625,0.0625 0.228837,0.05248 0.307514,0.13014 0.5,0.21875 0.185901,0.0856 0.284775,0.140582 0.4375,0.28125 0.119346,0.11001 0.348271,0.44653 0.46875,0.5 -0.286693,-0.06585 -0.257851,-0.200956 -0.5,-0.3125 -0.13841,-0.06367 -0.376119,-0.227444 -0.21875,0.0625 0.08116,0.149571 0.0625,0.34425 0.0625,0.59375 0,0.01533 5.1e-4,0.04322 0,0.0625 0.01465,0.04304 0.04726,0.06882 0.0625,0.125 0.06894,0.254039 0.05675,0.332971 0,0.4375 -0.09742,0.179519 -0.0691,-0.313471 -0.0625,-0.5625 -0.03958,-0.116436 -0.08333,-0.215756 -0.1875,-0.34375 -0.118768,-0.145855 -0.266426,-0.298716 -0.5,-0.40625 C 23.821587,18.9151 23.28676,18.94752 23.3438,19 c 0.01254,0.01179 0.231201,0.146179 0.34375,0.25 0.05732,0.05248 0.34375,0.27932 0.34375,0.40625 0,0.207112 0.09404,0.362291 0.03125,0.59375 -0.0289,0.106558 -0.23214,0.28951 -0.3125,0.34375 0.06871,-0.126637 0.1875,-0.264638 0.1875,-0.40625 0,-0.188068 0.02062,-0.440642 -0.0625,-0.59375 -0.09083,-0.16737 -0.19811,-0.25 -0.46875,-0.25 -0.109861,0 -0.654228,0.0144 -0.5,0.15625 0.04296,0.0395 0.3779,0.285745 0.3125,0.40625 -0.08502,0.15641 -0.20041,0.25636 -0.5,0.1875 -0.153972,-0.03538 -0.51878,-0.08922 -0.5625,-0.25 -0.03785,-0.139607 -0.08545,-0.373663 0,-0.53125 0.0753,-0.138724 0.101835,-0.293825 0.21875,-0.4375 0.116047,-0.142554 0.228612,-0.20886 0.375,-0.34375 C 22.81988,18.46682 23.062606,18.25 23.2188,18.25 z M 26.1563,32 c -0.547745,0.02329 -1.10962,0.280302 -1.21875,0.71875 -0.14153,1.37985 0.57591,1.55199 0.8125,2.40625 0.09025,0.332568 0.240495,0.672141 0.3125,0.9375 0.0663,0.749205 0.162606,1.39236 0.0625,1.59375 0.171159,0.07883 0.0625,0.768592 0.0625,0.9375 0,0.366704 2.26856,0.1086 2.46875,0.0625 0.04581,-0.01058 -0.19599,-1.20762 -0.21875,-1.3125 -0.07098,-0.327026 0,-0.727632 0,-1.0625 0,-0.278564 0.0625,-0.635419 0.0625,-1 0,-0.285934 0.272372,-0.602736 0.5,-0.8125 0.08511,-0.07841 0.14653,-0.16121 0.21875,-0.25 0.284509,-0.349545 -0.570953,-0.121483 -0.90625,0.1875 -0.358697,0.68518 -0.46875,0.218468 -0.46875,-0.1875 C 27.71652,33.757779 27.522551,33.26256 27.37505,32.75 27.255228,32.197765 26.704045,31.97671 26.1563,32 z"/>
</g>
</g>
</svg>
