<svg width="48" version="1.1" xmlns="http://www.w3.org/2000/svg" height="48">
<g id="g7" transform="translate(0,1)">
<path style="opacity:.65;fill:#fff" id="rect4154" d="M 3,1 V 12 H 45 V 4 H 23 V 1 Z"/>
<path id="folderTab" d="M 4,3 V 16 H 44 V 6 H 22 V 3 Z" transform="translate(0,-1)"/>
<path style="fill:#fff" id="folderPaper" d="m 6,8 h 36 v 33 h -36 Z "/>
<path style="fill:#5e87b2" id="folderFront" d="m 2,11 h 44 v 32 h -44 Z "/>
</g>
<g style="fill:#fff" id="layer1" transform="matrix(1.0889488,0,0,1.0889488,-0.81319244,-0.9821978)">
<path id="path3001" d="m 33.7188,14.3438 c -0.115451,0.05272 -0.2504,0.219962 -0.34375,0.5 -0.210228,0.630685 -1.47594,4.43706 -7.84375,5.75 a 3.59507,3.59507 0 0 1 1.21875,2.75 3.59613,3.59613 0 0 1 -7.1875,0 3.59507,3.59507 0 0 1 0.90625,-2.34375 c -4.00625,-0.442938 -5.75,-4.03125 -5.75,-4.03125 l -0.0938,3.75 a 2.86262,2.86262 0 0 1 4.6875,2.1875 2.86262,2.86262 0 0 1 -3.46875,2.8125 c 0.641131,1.71868 0.386866,3.44891 -0.78125,4.375 -0.231042,0.183172 -0.478958,0.306164 -0.75,0.40625 4.0876,2.66199 10.7847,4.69737 15.3125,1.65625 0.922666,0.511984 1.93805,1.01825 2.90625,1.40625 0.0022,0.07324 0.01216,0.153943 0.03125,0.21875 l 0.3125,-0.0938 c 0.06463,0.024 0.12335,0.03983 0.1875,0.0625 l 0.0938,0.0938 2.3438,0.875 c 0.0011,0.728164 0.418777,1.50179 1.3125,1.84375 1.77045,0.677421 3.40625,1.53125 3.40625,1.53125 -0.844527,-2.86674 -1.13672,-5.14005 -3.34375,-4.9375 -0.286913,0.02633 -0.519219,0.117288 -0.71875,0.25 l -2.125,-1.375 H 33.8126 c -0.03232,-0.02012 -0.06103,-0.04256 -0.09375,-0.0625 l -0.0938,-0.3438 c -0.06085,0.03811 -0.12174,0.12717 -0.1875,0.1875 -0.678596,-0.391787 -1.41465,-0.758412 -2.15625,-1.09375 2.41504,-2.74416 3.74302,-7.6499 2.84375,-15.8125 -0.04403,-0.345081 -0.143907,-0.5413 -0.28125,-0.5625 -0.03434,-0.0053 -0.08652,-0.01757 -0.125,0 z m -19.0938,6.375 a 2.86262,2.86262 0 0 0 -1.03125,2.0625 c 0.368282,0.273375 0.740405,0.565326 1.0625,0.9375 0.194504,-0.791268 -0.0625,-1.40625 -0.0625,-1.40625 l 0.0312,-1.5938 z M 20.4688,21 c 0.325196,0.03595 0.644535,0.04005 1,0.03125 1.54236,-0.0387 2.89044,-0.195839 4.0625,-0.4375 A 3.59507,3.59507 0 0 0 20.4688,21 Z m -3.6875,0.3438 a 1.84929,1.84929 0 0 0 -1.71875,1.84375 1.85938,1.85938 0 0 0 3.71875,0 1.84929,1.84929 0 0 0 -2,-1.84375 z M 10.2188,22 c -0.519332,0.04946 -0.997624,0.238538 -1.40625,0.5625 -1.45289,1.15186 -1.381,3.67785 0.1875,5.65625 1.5685,1.9784 4.01586,2.65186 5.46875,1.5 1.45289,-1.15186 1.381,-3.67785 -0.1875,-5.65625 C 13.30099,22.826 11.96019,22.08897 10.75005,22 10.568529,21.98665 10.391911,21.98351 10.2188,22 Z m 13.4062,0.375 a 1.84929,1.84929 0 0 0 -1.71875,1.84375 1.84929,1.84929 0 1 0 3.6875,0 A 1.84929,1.84929 0 0 0 23.625,22.375 Z"/>
</g>
</svg>
