<svg width="48" version="1.1" xmlns="http://www.w3.org/2000/svg" height="48">
<g id="g7" transform="translate(0,1)">
<path style="opacity:.65;fill:#fff" id="rect4154" d="M 3,1 V 12 H 45 V 4 H 23 V 1 Z"/>
<path id="folderTab" d="M 4,3 V 16 H 44 V 6 H 22 V 3 Z" transform="translate(0,-1)"/>
<path style="fill:#fff" id="folderPaper" d="m 6,8 h 36 v 33 h -36 Z "/>
<path style="fill:#5e87b2" id="folderFront" d="m 2,11 h 44 v 32 h -44 Z "/>
</g>
<rect width="30" x="9.380971" y="11.101083" height="30" style="fill:none" id="rect3265"/>
<g style="fill:#fff" id="g4187" transform="matrix(1.0490401,0,0,1.0389179,-0.14050437,0.6242878)">
<path id="path4144" d="m 17.7588,14.7249 h 23.4375 c 0.528177,0 0.968431,0.300963 0.96875,0.65625 v 0.71875 c 0,0.355286 -0.440573,0.65625 -0.96875,0.65625 H 18.8838 L 13.29,37.84995 c -0.07809,0.295035 -0.430018,0.51667 -0.875,0.53125 -0.445301,0.01458 -0.847942,-0.180147 -0.96875,-0.46875 l -3.9375,-9.4062 -2.0312,0.6875 c -0.444026,0.151162 -0.989896,0.03517 -1.25,-0.25 l -0.2188,-0.25 C 3.741633,28.400859 3.836081,28.043189 4.25875,27.85 l 4.1562,-1.9062 c 0.256598,-0.11729 0.584295,-0.13583 0.875,-0.0625 0.290385,0.07333 0.5147,0.235735 0.59375,0.4375 l 2.2812,5.8438 4.6562,-16.9062 c 0.08064,-0.307257 0.473393,-0.53125 0.9375,-0.53125 z"/>
<path id="path39063" d="m 27.6651,20.5687 c 1.09828,1.47897 1.86135,3.09827 2.3125,4.875 1.13257,-1.43941 2.01553,-2.45508 2.59375,-3.03125 0.774211,-0.774289 1.404,-1.26665 1.90625,-1.5 0.502581,-0.233066 1.02696,-0.34375 1.59375,-0.34375 0.63537,0 1.12787,0.136564 1.46875,0.4375 0.341218,0.300357 0.5,0.707853 0.5,1.21875 0,0.481728 -0.159119,0.881364 -0.5,1.1875 -0.341218,0.305844 -0.772617,0.46875 -1.28125,0.46875 -0.369793,0 -0.801529,-0.06245 -1.28125,-0.1875 -0.480394,-0.125054 -0.783518,-0.1875 -0.96875,-0.1875 -0.485437,0 -0.967206,0.13974 -1.40625,0.4375 -0.60209,0.406927 -1.34032,1.2638 -2.21875,2.59375 0.978942,2.97268 1.75612,4.78422 2.34375,5.4375 0.345252,0.386999 0.70481,0.59375 1.0625,0.59375 0.299195,0 0.5624,-0.0781 0.78125,-0.21875 0.333486,-0.226136 0.84041,-0.781514 1.53125,-1.6875 l .625,.3125 c -1.01357,1.46829 -2.00191,2.52486 -2.96875,3.125 -0.736896,0.464689 -1.44221,0.6875 -2.15625,0.6875 -0.737568,0 -1.35394,-0.153027 -1.84375,-0.4375 -0.489471,-0.284763 -0.932958,-0.731541 -1.3125,-1.375 -0.380214,-0.643749 -0.825705,-1.67629 -1.34375,-3.09375 -1.36084,1.48735 -2.4143,2.5664 -3.1875,3.25 -0.773203,0.684182 -1.42618,1.13379 -1.9375,1.34375 -0.511995,0.209384 -1.07433,0.3125 -1.65625,0.3125 -0.604107,0 -1.08284,-0.140318 -1.4375,-0.4375 -0.354665,-0.29718 -0.53125,-0.681165 -0.53125,-1.15625 0,-0.504832 0.209838,-0.923072 0.59375,-1.25 0.385256,-0.32664 0.874729,-0.5 1.46875,-0.5 0.313987,0 0.666149,0.08625 1.0625,0.25 0.581582,0.245485 0.994843,0.375 1.25,0.375 0.336511,0 0.638655,-0.0662 0.90625,-0.1875 0.347941,-0.151046 0.777981,-0.495747 1.3125,-1 0.324745,-0.311911 0.941807,-0.951287 1.8125,-1.96875 -1.11745,-3.52026 -1.99703,-5.65148 -2.625,-6.34375 -0.399376,-0.445339 -0.890851,-0.65625 -1.5,-0.65625 -0.316005,0 -0.730638,0.04586 -1.1875,0.125 l .1875,-.5938 6.0312,-.875 z "/>
</g>
</svg>
