<svg width="48" version="1.1" xmlns="http://www.w3.org/2000/svg" height="48">
<path style="opacity:.65;fill:#fff;stroke:none" id="rect4154" d="m 3,1.959 0,9.342 42,0 0,-6.9866 -22,0 0,-2.3555 z"/>
<g id="folderLayer">
<g style="stroke:none" id="g3053" transform="matrix(1,0,0,1.1773318,0,-5.2823341)">
<rect width="18" x="4" y="6.9996953" height="10" id="folderTab"/>
<rect width="40" x="4" y="9" height="30" id="folderBackground"/>
<rect width="35.999992" x="6" y="10.9998" height="27.999756" style="fill:#fff" id="folderPaper"/>
<rect width="43.999996" x="2" y="12.999983" height="28.000008" style="fill:#5e87b2" id="folderFront"/>
</g>
<path style="fill:#fff;stroke:none" id="path3738-0" d="m 17.8867,15.6626 c -0.93026,0 -1.67917,0.86413 -1.67917,1.9375 v 7.10417 h -0.559717 c -0.930267,0 -1.67917,0.86413 -1.67917,1.93749 v 6.45835 c 0,1.07337 0.748904,1.93748 1.67917,1.93748 h 0.559717 v 1.93751 c 0,1.07338 0.748911,1.9375 1.67917,1.9375 h 12.3139 c 0.93026,0 1.67917,-0.864123 1.67917,-1.9375 v -1.93751 h 0.559717 c 0.930267,0 1.67917,-0.864115 1.67917,-1.93748 v -6.45835 c 0,-1.07336 -0.748904,-1.93749 -1.67917,-1.93749 h -0.524735 -0.03497 v -7.10417 c 0,-1.07337 -0.748904,-1.9375 -1.67916,-1.9375 z  m .3964,1.233 11.3102,0 c 1.27931,0 1.27931,0 1.27931,1.22889 v 6.43359 1.47118 h -13.6786 v -1.54425 -6.38377 c 0,-1.20563 0,-1.20563 1.08916,-1.20563 z  m 10.798,11.6836 c 0.30897,0 0.559723,0.289341 0.559723,0.645833 0,0.356491 -0.250753,0.645841 -0.559723,0.645841 -0.30897,0 -0.559731,-0.28935 -0.559731,-0.645841 0,-0.356492 0.250761,-0.645833 0.559731,-0.645833 z  m 2.2389,0 c 0.30897,0 0.559724,0.289341 0.559724,0.645833 0,0.356491 -0.250754,0.645841 -0.559724,0.645841 -0.308964,0 -0.559717,-0.28935 -0.559717,-0.645841 0,-0.356492 0.250747,-0.645833 0.559717,-0.645833 z  m -14.1261,5.1654 13.6786,0 0,1.8234 0,1.4324 c 0,0.658684 0,0.658684 -0.660229,0.658684 h -12.3224 c -0.696042,0 -0.696042,0 -0.696042,-0.71355 v -1.77993 z "/>
</g>
</svg>
