<svg width="48" version="1.1" xmlns="http://www.w3.org/2000/svg" height="48">
<path style="opacity:.65;fill:#fff;stroke:none" id="rect4154" d="m 3,1.959 0,9.342 42,0 0,-6.9866 -22,0 0,-2.3555 z"/>
<g id="folderLayer">
<g style="stroke:none">
<g id="g3053" transform="matrix(1,0,0,1.1773318,0,-5.2823341)">
<rect width="18" x="4" y="6.9996953" height="10" id="folderTab"/>
<rect width="40" x="4" y="9" height="30" id="folderBackground"/>
<rect width="35.999992" x="6" y="10.9998" height="27.999756" style="fill:#fff" id="folderPaper"/>
<rect width="43.999996" x="2" y="12.999983" height="28.000008" style="fill:#5e87b2" id="folderFront"/>
</g>
<g style="fill:#fff;fill-rule:evenodd">
<path id="folderGlyph-6" d="m 14.6394,15.4952 0,21.3366 4.1909,0 0,-.6628 c 0,-0.19029 0.296813,-0.342849 0.668119,-0.342849 h 8.88294 c 0.371305,0 0.683303,0.152559 0.683303,0.342849 v 0.662839 h 4.22129 v -21.3366 h -4.22129 v 1.01712 c 0,0.19029 -0.311998,0.342848 -0.683303,0.342848 h -8.88294 c -0.371306,0 -0.668119,-0.152558 -0.668119,-0.342848 v -1.01712 h -4.19093 z  m 4.1606,1.9999 10.2344,0 0,8.1484 -10.2344,0 0,-8.1484 z  m -3.2343,.1257 1.8677,0 0,2.1371 -1.8677,0 0,-2.1371 z  m 14.9264,0 1.8525,0 0,2.1371 -1.8525,0 0,-2.1371 z  m -14.9264,7.4627 1.8677,0 0,2.1257 -1.8677,0 0,-2.1257 z  m 14.9264,0 1.8525,0 0,2.1257 -1.8525,0 0,-2.1257 z  m -11.6921,2.0228 10.2344,0 0,8.1484 -10.2344,0 0,-8.1484 z  m -3.2343,5.4513 1.8677,0 0,2.1371 -1.8677,0 0,-2.1371 z  m 14.9264,0 1.8525,0 0,2.1371 -1.8525,0 0,-2.1371 z "/>
<rect width="10.764833" x="18.481901" y="34.03019" rx="1.3516369" height="1.552201" ry="2.345692e-07" id="rect3025"/>
<rect width="10.764833" x="18.563597" y="17.07852" rx="1.3516369" ry="2.345692e-07" height="1.552201" id="rect3027"/>
</g>
</g>
</g>
</svg>
