<svg width="48" version="1.1" xmlns="http://www.w3.org/2000/svg" height="48">
<path style="opacity:.65;fill:#fff;stroke:none" id="rect4154" d="m 3,1.959 0,9.342 42,0 0,-6.9866 -22,0 0,-2.3555 z"/>
<g id="folderLayer">
<g style="stroke:none">
<g id="g3053" transform="matrix(1,0,0,1.1773318,0,-5.2823341)">
<rect width="18" x="4" y="6.9996953" height="10" id="folderTab"/>
<rect width="40" x="4" y="9" height="30" id="folderBackground"/>
<rect width="35.999992" x="6" y="10.9998" height="27.999756" style="fill:#fff" id="folderPaper"/>
<rect width="43.999996" x="2" y="12.999983" height="28.000008" style="fill:#5e87b2" id="folderFront"/>
</g>
<rect width="35.999992" x="6" y="7.6680799" height="32.965004" style="fill:#fff" id="rect3849"/>
<rect width="43.999996" x="2" y="10.022959" height="32.965298" style="fill:#5e87b2" id="rect3851"/>
<rect width="30" x="9.380971" y="11.101083" height="30" style="fill:none" id="rect3265"/>
</g>
<path style="fill:#fff;fill-rule:evenodd" id="rect3359" d="m 19.1129,15.8872 -2.4451,-.0157 c 0.01499,5.49936 0.02472,9.18902 0.02921,11.069 h -5.69698 l 12.9899,10.288 13.0101,-10.288 h -5.75748 l -.0022,-5.2191 -2.4268,-.008 c -0.0028,-0.428289 -0.0067,-1.07817 -0.01159,-1.94965 l 2.4302,-.0111 v -3.88078 h -2.44405 v 1.94595 l -4.8242,-.0043 v -1.93425 h 2.4255 l -.0097,1.9343 .0058,1.939 h -2.41632 l .0139,1.946 -2.4441,.0111 -.0005,.0039 -.0098,-3.9 -2.4254,.0157 z "/>
</g>
</svg>
