<svg width="48" version="1.1" xmlns="http://www.w3.org/2000/svg" height="48">
<path style="opacity:.65;fill:#fff;stroke:none" id="rect4154" d="m 3,1.959 0,9.342 42,0 0,-6.9866 -22,0 0,-2.3555 z"/>
<g id="folderLayer">
<g style="stroke:none" id="g3053" transform="matrix(1,0,0,1.1773318,0,-5.2823341)">
<rect width="18" x="4" y="6.9996953" height="10" id="folderTab"/>
<rect width="40" x="4" y="9" height="30" id="folderBackground"/>
<rect width="35.999992" x="6" y="10.9998" height="27.999756" style="fill:#fff" id="folderPaper"/>
<rect width="43.999996" x="2" y="12.999983" height="28.000008" style="fill:#5e87b2" id="folderFront"/>
</g>
<g style="fill:#fff" id="g23" transform="matrix(0.96195413,0,0,0.80269373,2.5129149,5.5615867)">
<g style="font-family:TheMixPlain;word-spacing:0;line-height:125%;font-weight:bold;letter-spacing:0;font-size:10.50872612px" id="text25" transform="scale(0.87572745,1.1419078)">
<path id="path4183" d="m 19.2651,18.746 -3.089,0 -.4875,1.3957 -1.9858,0 2.8376,-7.6609 2.3552,0 2.8376,7.6609 -1.9858,0 -.4823,-1.3957 z  m -2.5964,-1.4213 2.0987,0 -1.0468,-3.0479 -1.0519,3.0479 z "/>
<path id="path4185" d="m 26.1136,17.5556 q -0.574696,0 -0.867175,0.194986 -0.287348,0.194986 -0.287348,0.574696 0,0.348922 0.230905,0.54904 0.236036,0.194986 0.651664,0.194986 0.518253,0 0.872306,-0.369448 0.354054,-0.374578 0.354054,-0.933881 v -0.210379 h -0.954406 z  m 2.8068,-.6927 0,3.2788 -1.8524,0 0,-.8518 q -0.369447,0.523384 -0.831256,0.764551 -0.46181,0.236036 -1.12374,0.236036 -0.892832,0 -1.45213,-0.518253 -0.554171,-0.523384 -0.554171,-1.35464 0,-1.01085 0.692714,-1.48292 0.697845,-0.472072 2.1859,-0.472072 h 1.08269 v -0.143674 q 0,-0.436153 -0.343791,-0.63627 -0.343792,-0.205249 -1.07242,-0.205249 -0.590089,0 -1.09808,0.118018 -0.50799,0.118018 -0.944143,0.354054 v -1.40082 q 0.59009,-0.143674 1.18531,-0.215511 0.595221,-0.07697 1.19044,-0.07697 1.55476,0 2.24234,0.615746 0.692713,0.610614 0.692713,1.99091 z "/>
</g>
<g style="stroke:#f9f9f9;stroke-width:1.138" id="g14">
<path id="path29" d="m 12,26.5 h 4"/>
<path id="path31" d="m 17,26.5 h 1"/>
<path id="path33" d="m 19,26.5 h 5"/>
<path id="path35" d="m 25,26.5 h 2"/>
<path id="path37" d="m 28.3463,26.5 h 1.08657"/>
<path id="path39" d="m 30.5818,26.5 h 2.14544"/>
<path id="path41" d="m 12,28.5 h 1"/>
<path id="path43" d="m 14,28.5 h 4"/>
<path id="path45" d="m 19,28.5 h 3"/>
<path id="path47" d="m 23,28.5 h 2"/>
<path id="path49" d="m 26.1731,28.5 h 3.25972"/>
<path id="path51" d="m 30.5818,28.5 h 2.14544"/>
<path id="path53" d="m 12,30.5 h 3"/>
<path id="path55" d="m 16,30.5 h 2"/>
<path id="path57" d="m 19,30.5 h 7"/>
<path id="path59" d="m 27.2597,30.5 h 1.08657"/>
<path id="path61" d="m 29.509,30.5 h 3.21816"/>
<path id="path63" d="m 12,32.5 h 4"/>
<path id="path65" d="m 17,32.5 h 2"/>
<path id="path67" d="m 20,32.5 h 1"/>
<path id="path69" d="m 22,32.5 h 1"/>
<path id="path71" d="m 24,32.5 h 4.34629"/>
<path id="path73" d="m 29.509,32.5 h 3.21816"/>
<path id="path75" d="m 12,34.5 h 3"/>
<path id="path77" d="m 16,34.5 h 1"/>
<path id="path79" d="m 18,34.5 h 2"/>
<path id="path81" d="m 21,34.5 h 6"/>
<path id="path83" d="m 28.3463,34.5 h 2.17315"/>
<path id="path85" d="m 31.6545,34.5 h 1.07272"/>
<path id="path87" d="m 12,36.5 h 2"/>
<path id="path89" d="m 15,36.5 h 6"/>
<path id="path91" d="m 22,36.5 h 5.36361 5.3636"/>
<path id="path93" d="m 12,38.5 h 3"/>
<path id="path95" d="m 16,38.5 h 4"/>
</g>
</g>
</g>
</svg>
