<svg width="48" version="1.1" xmlns="http://www.w3.org/2000/svg" height="48">
<path style="opacity:.65;fill:#fff" id="path1" d="M 3,2 V 13 H 45 V 5 H 23 V 2 Z"/>
<path id="path2" d="M 4,3 V 16 H 44 V 6 H 22 V 3 Z"/>
<path style="fill:#fff" id="path3" d="M 6,9 H 42 V 42 H 6 Z"/>
<path style="fill:#5e87b2" id="path4" d="M 2,12 H 46 V 44 H 2 Z"/>
<path style="paint-order:stroke fill markers;fill:#fff" id="path2-6" d="m 19.2064,14 c -2.43478,0 -2.4347,3.65213 -2.4347,8.52168 0,3.19174 -0.608597,6.69571 0.608792,9.13049 0.750567,1.50113 2.00899,2.26297 3.05857,2.649 0.960664,0.353331 1.31929,-0.286778 0.890933,-1.21852 -0.454198,-0.987947 -0.906008,-2.35116 -0.906008,-3.8652 0,-1.9 0.608519,-5.47842 1.82591,-5.47842 0.871034,0 2.4349,0.608759 3.65229,1.82615 1.21739,1.21738 1.82614,2.43475 1.82614,4.26084 0,1.01935 -0.401653,2.01395 -0.878689,2.83576 -0.71,1.22317 -0.356406,2.01788 0.920137,1.42202 1.68508,-0.786568 3.6106,-2.58421 3.6106,-6.69248 0,-6.08696 -9.7392,-13.3913 -12.174,-13.3913 Z  m 4.8696,22.5218 c -3.65217,0 -4.86964,1.21741 -4.86964,3.0435 0,1.21738 0.608774,2.4347 4.86964,2.4347 4.26086,0 4.86964,-1.21731 4.86964,-2.4347 0,-1.82609 -1.21747,-3.0435 -4.86964,-3.0435 z "/>
</svg>
