<svg width="48" version="1.1" xmlns="http://www.w3.org/2000/svg" height="48">
<g id="g7" transform="translate(0,1)">
<path style="opacity:.65;fill:#fff" id="rect4154" d="M 3,1 V 12 H 45 V 4 H 23 V 1 Z"/>
<path id="folderTab" d="M 4,3 V 16 H 44 V 6 H 22 V 3 Z" transform="translate(0,-1)"/>
<path style="fill:#fff" id="folderPaper" d="m 6,8 h 36 v 33 h -36 Z "/>
<path style="fill:#5e87b2" id="folderFront" d="m 2,11 h 44 v 32 h -44 Z "/>
</g>
<g style="fill:#fff" id="layer1" transform="translate(7.5e-5,1.25)">
<path id="path2995" d="m 23.9062,14.9688 c -6.20755,0 -11.3125,5.10495 -11.3125,11.3125 0,6.20755 5.10495,11.2812 11.3125,11.2812 2.40486,0 4.63327,-0.768557 6.46875,-2.0625 l 2.25,2.25 2.7812,-2.75 -2.2812,-2.25 c 1.29394,-1.83547 2.0625,-4.06389 2.0625,-6.46875 0,-6.20755 -5.0737,-11.3125 -11.2812,-11.3125 z m 0,3.9062 c 4.10515,0 7.375,3.3011 7.375,7.40625 0,1.33987 -0.354385,2.57665 -0.96875,3.65625 l -3.6562,-3.6562 2.3438,-2.375 -2.75,-2.75 -7.4688,7.4688 2.75,2.75 2.375,-2.375 3.6562,3.6875 c -1.0796,0.614365 -2.31638,0.96875 -3.65625,0.96875 -4.10515,0 -7.40625,-3.26985 -7.40625,-7.375 0,-4.10515 3.3011,-7.40625 7.40625,-7.40625 z"/>
</g>
</svg>
