<svg width="48" version="1.1" xmlns="http://www.w3.org/2000/svg" height="48">
<g id="g7" transform="translate(0,1)">
<path style="opacity:.65;fill:#fff" id="rect4154" d="M 3,1 V 12 H 45 V 4 H 23 V 1 Z"/>
<path id="folderTab" d="M 4,3 V 16 H 44 V 6 H 22 V 3 Z" transform="translate(0,-1)"/>
<path style="fill:#fff" id="folderPaper" d="m 6,8 h 36 v 33 h -36 Z "/>
<path style="fill:#5e87b2" id="folderFront" d="m 2,11 h 44 v 32 h -44 Z "/>
</g>
<path style="fill:#fff" id="path4179" d="m 31.1812,15.03135 c -1.34201,0 -2.4375,1.09549 -2.4375,2.4375 0,1.34201 1.09549,2.40625 2.4375,2.40625 1.34201,0 2.40625,-1.06424 2.40625,-2.40625 0,-1.34201 -1.06424,-2.4375 -2.40625,-2.4375 z m -5.8125,2.3438 c -1.51911,0 -2.97742,0.339961 -4.3125,0.96875 l 2.0625,3.5938 c 0.692175,-0.278574 1.45955,-0.4375 2.25,-0.4375 3.0257,0 5.52177,2.24347 5.9375,5.15625 h 4.1875 c -0.18909,-2.28878 -1.16351,-4.41139 -2.75,-6.09375 -1.01602,0.517466 -2.2512,0.51879 -3.3125,-0.09375 -1.0621,-0.613342 -1.69088,-1.70389 -1.75,-2.84375 -0.753962,-0.17577 -1.51912,-0.25 -2.3125,-0.25 z m -5.8125,1.8125 c -0.488702,0.341426 -0.944355,0.725871 -1.375,1.15625 -1.20591,1.20591 -2.05533,2.66085 -2.53125,4.25 0.958764,0.621065 1.59375,1.71002 1.59375,2.9375 0,1.22722 -0.634986,2.28545 -1.59375,2.90625 0.47592,1.58915 1.32534,3.04409 2.53125,4.25 0.430379,0.430379 0.886563,0.814557 1.375,1.15625 L 21.65,32.2502 c -1.39926,-1.10178 -2.3125,-2.80389 -2.3125,-4.71875 0,-1.91566 0.912972,-3.64822 2.3125,-4.75 z m -5.8125,5.9062 c -1.34201,0 -2.4375,1.09549 -2.4375,2.4375 0,1.34201 1.09549,2.40625 2.4375,2.40625 1.34201,0 2.4375,-1.06424 2.4375,-2.40625 0,-1.34201 -1.09549,-2.4375 -2.4375,-2.4375 z m 17.5625,3.2812 c -0.414665,2.91384 -2.911,5.15625 -5.9375,5.15625 -0.79098,0 -1.55783,-0.158393 -2.25,-0.4375 l -2.0625,3.625 c 1.33481,0.629056 2.79286,0.9375 4.3125,0.9375 0.79391,0 1.55827,-0.07423 2.3125,-0.25 0.05806,-1.1412 0.687104,-2.23014 1.75,-2.84375 1.06156,-0.613075 2.29621,-0.612281 3.3125,-0.09375 1.58516,-1.68263 2.56144,-3.80577 2.75,-6.09375 z m -0.125,6.7812 c -1.34201,0 -2.4375,1.06423 -2.4375,2.40625 0,1.34202 1.09549,2.4375 2.4375,2.4375 1.34201,0 2.4375,-1.09548 2.4375,-2.4375 0,-1.34202 -1.09549,-2.40625 -2.4375,-2.40625 z"/>
</svg>
