<svg width="48" version="1.1" xmlns="http://www.w3.org/2000/svg" height="48">
<g id="g7" transform="translate(0,1)">
<path style="opacity:.65;fill:#fff" id="rect4154" d="M 3,1 V 12 H 45 V 4 H 23 V 1 Z"/>
<path id="folderTab" d="M 4,3 V 16 H 44 V 6 H 22 V 3 Z" transform="translate(0,-1)"/>
<path style="fill:#fff" id="folderPaper" d="m 6,8 h 36 v 33 h -36 Z "/>
<path style="fill:#5e87b2" id="folderFront" d="m 2,11 h 44 v 32 h -44 Z "/>
</g>
<path style="fill:#fff;fill-rule:evenodd" id="path3272" d="m 24.0687,18.4492 c -2.62764,1.56e-4 -5.23791,1.08121 -7.09455,2.93713 -1.85665,1.85592 -2.93766,4.46384 -2.93766,7.08827 0,2.62443 1.08101,5.23235 2.93766,7.08827 1.85665,1.85592 4.46692,2.93697 7.09455,2.93713 2.62764,1.55e-4 5.23946,-1.07989 7.09847,-2.93583 1.85901,-1.85593 2.94158,-4.46485 2.94158,-7.08958 0,-2.62473 -1.08256,-5.23365 -2.94158,-7.08958 -1.85901,-1.85593 -4.47084,-2.93598 -7.09847,-2.93582 z m 0,2.6734 c 1.92693,-1.15e-4 3.84296,0.791571 5.20624,2.15259 1.36328,1.36102 2.15751,3.27457 2.15751,5.19937 0,1.9248 -0.794228,3.83836 -2.15751,5.19937 -1.36328,1.36102 -3.27931,2.1527 -5.20624,2.15259 -1.92693,-1.15e-4 -3.84078,-0.792885 -5.20232,-2.15389 -1.36154,-1.36101 -2.15359,-3.27349 -2.15359,-5.19807 0,-1.92459 0.792047,-3.83706 2.15359,-5.19807 1.36154,-1.36101 3.27539,-2.15378 5.20232,-2.15389 z m -1.3342,1.3367 v 7.352 h 1.3382 1.3381 4.6835 v -2.6734 h -4.6835 v -4.6785 h -2.6763 z"/>
</svg>
