<svg width="48" version="1.1" xmlns="http://www.w3.org/2000/svg" height="48">
<path style="opacity:.65;fill:#fff;stroke:none" id="rect4154" d="m 3,1.959 0,9.342 42,0 0,-6.9866 -22,0 0,-2.3555 z"/>
<g id="folderLayer">
<g style="stroke:none" id="g3053" transform="matrix(1,0,0,1.1773318,0,-5.2823341)">
<rect width="18" x="4" y="6.9996953" height="10" id="folderTab"/>
<rect width="40" x="4" y="9" height="30" id="folderBackground"/>
<rect width="35.999992" x="6" y="10.9998" height="27.999756" style="fill:#fff" id="folderPaper"/>
<rect width="43.999996" x="2" y="12.999983" height="28.000008" style="fill:#5e87b2" id="folderFront"/>
</g>
<g style="fill:#fff;fill-rule:evenodd;stroke:none" id="g4206" transform="matrix(1.0972125,0,0,1.0972125,-2.3331,0.23872542)">
<path id="path3012" d="m 29.4688,15.4531 2.5,6.5625 -3.6875,5.125 3.1562,1 2.1562,-3.125 .9688,3.6875 4.3125,.3438 -2.3125,-6.6562 3.875,-4.7812 -3.9688,-.875 -1.625,2.5 -1.1562,-3.0625 -4.2188,-.7188 z "/>
<path id="path3010" d="m 11.2813,17.4219 -.0938,.125 -3.625,1.7188 4.7812,11.0312 7.6562,-3.7812 -1.5625,-3.2188 -3.7188,1.875 -3.4375,-7.75 z "/>
<path id="path3001" d="m 17.6875,18.4844 3.625,7.9062 -.7812,5.4375 4.5,.7188 1.0938,-6.0625 4.4375,-6.3125 -3.7188,-.5312 -2.4062,3.3125 -1.9688,-3.8125 -4.7812,-.6562 z "/>
</g>
</g>
</svg>
