<svg width="48" version="1.1" xmlns="http://www.w3.org/2000/svg" height="48">
<g id="g7" transform="translate(0,1)">
<path style="opacity:.65;fill:#fff" id="rect4154" d="M 3,1 V 12 H 45 V 4 H 23 V 1 Z"/>
<path id="folderTab" d="M 4,3 V 16 H 44 V 6 H 22 V 3 Z" transform="translate(0,-1)"/>
<path style="fill:#fff" id="folderPaper" d="m 6,8 h 36 v 33 h -36 Z "/>
<path style="fill:#5e87b2" id="folderFront" d="m 2,11 h 44 v 32 h -44 Z "/>
</g>
<path style="fill:#fff" id="path4184" d="m 14.4784,20.00006 c -1.77384,0 -3.21048,1.44888 -3.21048,3.23922 0,1.79039 1.43664,3.23922 3.21048,3.23922 1.77385,0 3.21048,-1.44883 3.21048,-3.23922 0,-1.79035 -1.43664,-3.23922 -3.21048,-3.23922 z m 9.5216,0 c -1.77385,0 -3.21048,1.44888 -3.21048,3.23922 0,1.79039 1.43664,3.23922 3.21048,3.23922 1.77384,0 3.21048,-1.44883 3.21048,-3.23922 0,-1.79035 -1.43664,-3.23922 -3.21048,-3.23922 z m 9.5216,0 c -1.77385,0 -3.21048,1.44888 -3.21048,3.23922 0,1.79039 1.43663,3.23922 3.21048,3.23922 1.77384,0 3.21048,-1.44883 3.21048,-3.23922 0,-1.79035 -1.43664,-3.23922 -3.21048,-3.23922 z M 24,29.49456 c -1.77385,0 -3.21048,1.44719 -3.21048,3.23753 0,1.79035 1.43664,3.23922 3.21048,3.23922 1.77384,0 3.21048,-1.44888 3.21048,-3.23922 0,-1.79035 -1.43664,-3.23753 -3.21048,-3.23753 z m 9.5216,0 c -1.77385,0 -3.21048,1.44719 -3.21048,3.23753 0,1.79035 1.43663,3.23922 3.21048,3.23922 1.77384,0 3.21048,-1.44888 3.21048,-3.23922 0,-1.79035 -1.43664,-3.23753 -3.21048,-3.23753 z m -19.0431,0.027 c -1.77384,0 -3.21048,1.44888 -3.21048,3.23922 0,1.79035 1.43664,3.23922 3.21048,3.23922 1.77385,0 3.21048,-1.44888 3.21048,-3.23922 0,-1.79035 -1.43664,-3.23922 -3.21048,-3.23922 z"/>
</svg>
