<svg width="48" version="1.1" xmlns="http://www.w3.org/2000/svg" height="48">
<g id="g7" transform="translate(0,1)">
<path style="opacity:.65;fill:#fff" id="rect4154" d="M 3,1 V 12 H 45 V 4 H 23 V 1 Z"/>
<path id="folderTab" d="M 4,3 V 16 H 44 V 6 H 22 V 3 Z" transform="translate(0,-1)"/>
<path style="fill:#fff" id="folderPaper" d="m 6,8 h 36 v 33 h -36 Z "/>
<path style="fill:#5e87b2" id="folderFront" d="m 2,11 h 44 v 32 h -44 Z "/>
</g>
<g style="fill:#fff" id="layer1" transform="matrix(0.52745067,0,0,0.66563062,3.3627467,11.009307)">
<path style="fill-rule:evenodd" id="path4127" d="M 0,0 0,30 13.334,15.0012 z" transform="translate(5,9)"/>
<path style="fill-rule:evenodd" id="path4125" d="M 0,0 17.6439,17 19,18.3 20.3561,17 38,0 z" transform="translate(5,9)"/>
<path style="fill-rule:evenodd" id="path4123" d="M 13.334,0 0,15.0012 13.334,30 z" transform="translate(29.666,9)"/>
<path style="fill-rule:evenodd" id="rect3260" d="M 15.2227,0 0,12.6309 l 37.5547,0 L 22.332,0 18.7773,3.36719 z" transform="translate(5.22266,26.3691)"/>
</g>
<g style="fill:#ff0505" id="g4280" transform="matrix(1.2694179,0,0,1.4174352,-7.797978,-19.197216)">
<path style="fill-rule:evenodd;stroke:none" id="path4149" d="m 31.3611,13.5436 0,16.1524 7,0 0,-16.1524 z "/>
<path style="stroke:none" id="path3766" d="m 34.8611,35.2309 -7.5,-9 15,0 z "/>
</g>
</svg>
