<svg width="128" version="1.0" xmlns="http://www.w3.org/2000/svg" height="128" xmlns:xlink="http://www.w3.org/1999/xlink">
<path style="fill:#2554b7" id="path35" d="m 6.3425,21.7178 c 0,-8.45643 6.9189,-15.3753 15.3753,-15.3753 h 84.5643 c 8.45643,0 15.3753,6.9189 15.3753,15.3753 v 84.5643 c 0,8.45643 -6.9189,15.3753 -15.3753,15.3753 h -84.5643 c -8.45643,0 -15.3753,-6.9189 -15.3753,-15.3753 v -84.5643 z "/>
<path style="fill:#fff" id="path4214" d="m 60.5723,24.6074 c -0.328605,0 -0.615305,0.220536 -0.69336,0.541016 l -2.8906,11.7715 c -2.41636,0.649696 -4.69531,1.61492 -6.80273,2.85156 l -5.207,-3.4023 -5.127,-3.3535 c -0.284759,-0.184984 -0.660949,-0.149381 -0.902343,0.089844 l -5.5117,5.5254 c -0.234166,0.233028 -0.290668,0.590016 -0.119141,0.871094 l 3.7637,6.1875 .0039,-.0039 2.7285,4.4922 c -1.14964,1.92719 -2.08498,3.9958 -2.74219,6.1875 l -11.8945,2.4648 c -0.331014,0.06823 -0.570312,0.382449 -0.570312,0.720703 v 7.80469 c 0,0.330088 0.249897,0.613565 0.570312,0.691406 l 11.5352,2.793 c 0.616736,2.5374 1.56891,4.96415 2.83008,7.17578 l -6.6855,10.1504 c -0.186467,0.283484 -0.15059,0.661113 0.089844,0.90039 l 5.541,5.5273 c 0.233442,0.23206 0.593132,0.260937 0.875,0.089844 l 10.4805,-6.3379 c 2.05546,1.18341 4.27872,2.13233 6.62305,2.76367 l 2.4414,11.7109 c 0.06842,0.33105 0.352443,0.57227 0.691406,0.57227 h 7.83008 c 0.328604,0 0.613351,-0.22054 0.691406,-0.54102 l 2.8906,-11.7715 c 2.41692,-0.649848 4.69685,-1.61451 6.80469,-2.85156 l 5.168,3.377 5.1641,3.377 c 0.284758,0.184984 0.660949,0.14938 0.902343,-0.089844 l 5.5117,-5.5254 c 0.0626,-0.0623 0.108149,-0.134762 0.144531,-0.210938 0.0997,-0.208758 0.100278,-0.454224 -0.02539,-0.660156 l -3.7617,-6.1855 -.0039,.0039 -2.7285,-4.4941 c 1.14964,-1.92719 2.08302,-3.99385 2.74023,-6.18555 l 11.8945,-2.4629 c 0.33101,-0.06823 0.57031,-0.382449 0.57031,-0.720703 v -7.80859 c 0,-0.330088 -0.24989,-0.611612 -0.57031,-0.689453 l -11.5352,-2.793 c -0.616736,-2.5374 -1.56891,-4.96611 -2.83008,-7.17773 l 6.6855,-10.1504 c 0.186467,-0.283483 0.150589,-0.661113 -0.089844,-0.90039 l -5.541,-5.5254 c -0.233442,-0.23206 -0.593131,-0.260937 -0.875,-0.089844 l -10.4785,6.3359 c -2.05546,-1.18341 -4.28068,-2.13038 -6.625,-2.76172 l -2.4395,-11.7129 c -0.068421,-0.331049 -0.354396,-0.570312 -0.693359,-0.570312 h -7.82812 z  m 3.4277,16.6816 a 22.71,22.71 0 0,1 22.7109,22.7109 22.71,22.71 0 0,1 -22.7109,22.7109 22.71,22.71 0 0,1 -22.7109,-22.7109 22.71,22.71 0 0,1 22.7109,-22.7109 z "/>
</svg>
