<svg width="48" version="1.0" xmlns="http://www.w3.org/2000/svg" height="48">
<defs id="defs2252"/>
<path style="fill:#2554b7" id="path4164" d="M 8.2333333,2.5 C 5.08,2.5 2.5,5.08 2.5,8.2333333 l 0,31.5333337 C 2.5,42.92 5.08,45.5 8.2333333,45.5 l 31.5333337,0 C 42.92,45.5 45.5,42.92 45.5,39.766667 l 0,-31.5333337 C 45.5,5.08 42.92,2.5 39.766667,2.5 l -31.5333337,0 z"/>
<g style="fill:#fff">
<path id="path4162" d="m 26.4747,7.3375 -.056,9.4846 6.9203,-9.2607 5.5766,1.2766 -7.2003,9.2607 7.1443,9.8206 -5.4646,1.7357 -6.9763,-10.2125 0,9.2047 -5.1846,.7839 0,-21.5896 l 5.2406,-.5039 Z "/>
<path id="path35" d="m 14.5938,12.6005 c 0.05926,-0.0061 0.115115,-0.000968 0.167969,0.03359 l 3.9305,2.5755 c 0.000896,0.000538 -0.000895,0.01066 0,0.0112 0.484823,-0.264091 0.994916,-0.487066 1.52292,-0.671875 v 2.15 c -2.90114,1.30558 -4.92708,4.21545 -4.92708,7.60339 0,4.60581 3.73664,8.34245 8.34245,8.34245 3.24129,0 6.05548,-1.84615 7.43542,-4.54635 1.15383,1.68917 2.03802,2.98984 2.03802,2.98984 0.03942,0.05769 0.112875,0.08761 0.179167,0.06719 l .4591,-.1456 1.3997,2.3068 c 0.06378,0.104812 0.04228,0.237845 -0.04479,0.324739 l -2.0492,2.0604 c -0.08976,0.08921 -0.230051,0.102573 -0.335938,0.03359 l -3.8409,-2.5195 c -0.78403,0.46153 -1.63168,0.821391 -2.53073,1.0638 l -1.075,4.3896 c -0.02903,0.119504 -0.135361,0.201562 -0.257553,0.201562 h -2.91146 c -0.126043,0 -0.23211,-0.08931 -0.257552,-0.21276 l -.907,-4.3672 c -0.87173,-0.235425 -1.69922,-0.588923 -2.46354,-1.03021 l -3.8969,2.3628 c -0.104812,0.0638 -0.237935,0.05294 -0.324739,-0.03359 l -2.0604,-2.0604 c -0.0894,-0.08922 -0.102931,-0.230229 -0.03359,-0.335937 l 2.4859,-3.7849 c -0.468966,-0.8247 -0.823273,-1.73013 -1.0526,-2.6763 l -4.2888,-1.0414 c -0.119146,-0.02903 -0.21276,-0.134465 -0.21276,-0.257552 v -2.91146 c 0,-0.126133 0.08967,-0.243308 0.21276,-0.26875 l 4.4232,-.9182 c 0.244381,-0.817265 0.59152,-1.58814 1.01901,-2.30677 l -2.4076,-3.9753 c -0.06351,-0.105081 -0.05294,-0.237935 0.03359,-0.32474 l 2.0604,-2.0604 c 0.04461,-0.0447 0.10871,-0.06107 0.167969,-0.06719 z "/>
</g>
</svg>
