<svg width="48" version="1.1" xmlns="http://www.w3.org/2000/svg" height="48" xmlns:xlink="http://www.w3.org/1999/xlink">
<defs>
<linearGradient id="linearGradient2">
<stop offset="0" style="stop-color:#d44d3f"/>
<stop offset="1" style="stop-color:#9f3123"/>
</linearGradient>
<linearGradient xlink:href="#linearGradient2" id="linearGradient3" y1="26.5" x1="9" y2="26.5" x2="39" gradientUnits="userSpaceOnUse"/>
<linearGradient xlink:href="#linearGradient2" id="linearGradient5" y1="14.5" x1="6" y2="14.5" x2="42" gradientUnits="userSpaceOnUse"/>
</defs>
<g style="fill-rule:evenodd">
<path style="fill:#800000" d="m 17,4 -0.5,5 h 15 L 31,4 Z"/>
<path style="fill:#c0392b" d="m 17,4 -2,5 v 3 h 2 V 9 Z m 14,0 v 5 3 h 2 V 9 Z"/>
<path style="fill:url(#linearGradient3)" d="M 9,12 H 39 V 41 H 9 Z"/>
<path style="fill:#600" d="m 33,14.9998 h 4 v 20 h -4 z"/>
<g style="fill:#750000">
<path d="m 22,14.9998 h 4 v 20 h -4 z"/>
<path d="m 11,14.9998 h 4 v 20 h -4 z"/>
</g>
<path style="fill:#fff" d="m 26,18 v 11 l 3.974609,0.05859 -0.15039,3.158203 L 35,29 V 18 Z"/>
<path style="opacity:.3" d="m 9,12.5 h 30 v 7 H 9 Z"/>
<path style="fill:url(#linearGradient5)" d="m 6,11 h 36 v 7 H 6 Z"/>
</g>
</svg>
