<svg width="48" version="1.1" xmlns="http://www.w3.org/2000/svg" height="48">
<g style="fill-rule:evenodd">
<path style="fill:#800000" id="path3381" d="m 17,4 -0.5,5 h 15 L 31,4 Z"/>
<g style="fill:#c0392b">
<path id="path3376" d="m 17,4 -2,5 v 3 h 2 V 9 Z m 14,0 v 5 3 h 2 V 9 Z"/>
<path id="rect3280" d="M 9,12 H 39 V 41 H 9 Z"/>
</g>
<g style="fill:#800000" id="g6">
<path id="rect3340" d="m 33,15 h 4 v 20 h -4 z"/>
<path id="rect3330" d="m 22,15 h 4 v 20 h -4 z"/>
<path id="rect3334" d="m 11,15 h 4 v 20 h -4 z"/>
</g>
<path style="fill:#c0392b" id="rect3282" d="m 6,11 h 36 v 7 H 6 Z"/>
</g>
<g style="fill:none" id="g17">
<path id="path3332" d="M 24,41 Z"/>
<path id="path3336" d="M 18,41 Z"/>
<path id="path3338" d="M 30,41 Z"/>
</g>
<path style="fill:#fff;fill-rule:evenodd" id="path3423" d="m 26,18 v 11 l 3.974609,0.05859 -0.15039,3.158203 L 35,29 V 18 Z"/>
</svg>
