<svg width="48" version="1.1" xmlns="http://www.w3.org/2000/svg" height="48">
<g id="g7" transform="translate(0,1)">
<path style="opacity:.65;fill:#fff" id="rect4154" d="M 3,1 V 12 H 45 V 4 H 23 V 1 Z"/>
<path id="folderTab" d="M 4,3 V 16 H 44 V 6 H 22 V 3 Z" transform="translate(0,-1)"/>
<path style="fill:#fff" id="folderPaper" d="m 6,8 h 36 v 33 h -36 Z "/>
<path style="fill:#5e87b2" id="folderFront" d="m 2,11 h 44 v 32 h -44 Z "/>
</g>
<path style="fill:#fff;fill-rule:evenodd" id="folderGlyph" d="M 24.0192,17.5 22.6051,18.9141 22.611,18.92 14.0251,27.5059 15.4392,28.92 24.0251,20.3341 32.611,28.92 34.0251,27.5059 32.0192,25.5 h 0.0059 v -8 h -2 v 6.0059 L 25.4392,18.92 25.4451,18.9141 24.031,17.5 24.0251,17.5059 Z m -7.9941,13 v 7 h 2 14 v -2 -5 h -2 v 5 h -12 v -5 z"/>
</svg>
