<svg version="1.1" xmlns="http://www.w3.org/2000/svg" viewBox="0 0 22 22">
<defs id="defs3051">
<style type="text/css" id="current-color-scheme">
.ColorScheme-Text {
color:#4d4d4d;
}
</style>
</defs>
<path style="fill:currentColor" d="m 4,2 v 18 h 14 v -18 h -14 z  m 1,1 h 12 v 16 h -12 v -16 z  m 5.7031,5 c -0.211467,-0.00235 -0.498292,0.152517 -0.921875,0.271484 -0.94488,0.262008 -1.27775,0.0879451 -1.03125,1.04883 l .1816,.707 c -0.064332,0.05717 -0.152464,0.124476 -0.216797,0.18164 -0.267961,0.20355 -0.479914,0.474891 -0.666016,0.732422 l -.7129,-.1875 c -0.962342,-0.249471 -0.815638,0.162768 -1.05859,0.986328 -0.297797,0.968446 -0.572297,1.11166 0.402344,1.37109 l .75,.1992 c 0.016964,0.319011 0.0942512,0.642241 0.232422,0.96875 l -.6172,.5 c -0.789633,0.64247 -0.451164,0.696802 0.117188,1.38867 0.615366,0.791369 0.583839,1.0105 1.3457,0.390625 l .6133,-.502 c 0.444913,0.284342 0.994323,0.465613 1.52539,0.535156 l .1777,.7383 c 0.24713,1.0152 0.54737,0.636374 1.39453,0.398438 0.94488,-0.262008 1.27775,-0.089888 1.03125,-1.05078 l -.1816,-.707 c 0.06433,-0.05717 0.152464,-0.124474 0.216797,-0.181641 0.267961,-0.203549 0.479916,-0.472937 0.666016,-0.730468 l .7129,.1855 c 0.922858,0.370722 0.815633,-0.162768 1.05859,-0.986329 0.297798,-0.968436 0.572298,-1.10971 -0.402344,-1.36914 l -.75,-.1992 c -0.01697,-0.319013 -0.094262,-0.642232 -0.232421,-0.96875 l .6172,-.502 c 0.789634,-0.64247 0.451164,-0.694851 -0.117187,-1.38672 -0.615367,-0.79137 -0.58384,-1.0105 -1.3457,-0.390625 l -.6133,.5 c -0.444912,-0.284342 -0.994332,-0.463656 -1.52539,-0.533203 l -.1777,-.7383 c -0.123565,-0.507602 -0.261189,-0.667571 -0.472656,-0.669922 z  m .1719,3.4902 c 0.420256,-0.0011 0.840865,0.172175 1.13477,0.513672 0.497491,0.617791 0.416484,1.54122 -0.1875,2.06641 -0.614611,0.500067 -1.53415,0.419607 -2.05664,-0.1875 -0.522478,-0.607106 -0.416483,-1.54122 0.1875,-2.06641 0.268893,-0.218777 0.595008,-0.325306 0.921875,-0.326172 z " class="ColorScheme-Text"/>
</svg>
