<svg width="22" version="1.1" xmlns="http://www.w3.org/2000/svg" height="22">
<defs id="defs3051">
<style type="text/css" id="current-color-scheme">
.ColorScheme-Text {
color:#4d4d4d;
}
</style>
</defs>
<path style="fill:currentColor" d="m 2,2 v 18 h 18 v -18 h -18 z  m 9.002,5.2188 c 1.03661,0 1.8382,0.328885 2.40234,0.986328 0.564142,0.654188 0.845703,1.58614 0.845703,2.79687 0,1.20748 -0.281561,2.14139 -0.845703,2.79883 -0.564143,0.654188 -1.36573,0.980469 -2.40234,0.980469 -1.04014,0 -1.84211,-0.326281 -2.40625,-0.980469 -0.564142,-0.657442 -0.845703,-1.59135 -0.845703,-2.79883 0,-1.21074 0.281561,-2.14269 0.845703,-2.79687 0.564142,-0.657443 1.36611,-0.986328 2.40625,-0.986328 z  m 0,1.2832 c -0.43721,0 -0.748675,0.188213 -0.935547,0.5625 -0.186872,0.371032 -0.279297,1.01252 -0.279297,1.92383 0,0.921071 0.0924247,1.56973 0.279297,1.94727 0.186872,0.377541 0.498337,0.566406 0.935547,0.566406 0.433685,0 0.744769,-0.188865 0.931641,-0.566406 0.186872,-0.377541 0.279297,-1.02619 0.279297,-1.94727 0,-0.911306 -0.092425,-1.5528 -0.279297,-1.92383 -0.183347,-0.374287 -0.494431,-0.5625 -0.931641,-0.5625 z " class="ColorScheme-Text"/>
</svg>
