<svg width="22" version="1.1" xmlns="http://www.w3.org/2000/svg" height="22">
<defs id="defs3051">
<style type="text/css" id="current-color-scheme">
.ColorScheme-Text {
color:#4d4d4d;
}
</style>
</defs>
<path style="fill:currentColor" d="m 2,2 v 18 h 18 v -18 h -18 z  m 10.7031,6 c 0.211482,0.002351 0.34713,0.162285 0.470703,0.669922 l .1797,.7383 c 0.531098,0.069552 1.08045,0.250793 1.52539,0.535156 l .6133,-.5 c 0.761917,-0.619915 0.730294,-0.402753 1.3457,0.388672 0.568392,0.691917 0.904923,0.746158 0.115234,1.38867 l -.6133,.5 c 0.138177,0.326538 0.215462,0.649716 0.232422,0.96875 l .748,.1992 c 0.974708,0.259449 0.700161,0.40063 0.402344,1.36914 -0.242978,0.823615 -0.13567,1.35708 -1.05859,0.986329 l -.7109,-.1836 c -0.186114,0.257548 -0.398036,0.524952 -0.666016,0.728515 -0.064337,0.05717 -0.15442,0.124471 -0.21875,0.181641 l .1816,.709 c 0.246513,0.960969 -0.086304,0.7868 -1.03125,1.04883 -0.847222,0.237951 -1.14543,0.616836 -1.39258,-0.398438 l -.1797,-.7383 c -0.531105,-0.069549 -1.08045,-0.250793 -1.52539,-0.535156 l -.6133,.5 c -0.761917,0.619915 -0.730293,0.402753 -1.3457,-0.388672 -0.568391,-0.691919 -0.904924,-0.746157 -0.115234,-1.38867 l .6133,-.5 c -0.13818,-0.326531 -0.215457,-0.649716 -0.232422,-0.96875 l -.748,-.1992 c -0.974708,-0.259449 -0.700162,-0.40063 -0.402344,-1.36914 0.24297,-0.823615 0.096184,-1.23582 1.05859,-0.986329 l .7109,.1836 c 0.186114,-0.257548 0.398036,-0.524952 0.666016,-0.728515 0.064337,-0.057171 0.15441,-0.124471 0.21875,-0.181641 l -.1816,-.709 c -0.246513,-0.960953 0.086305,-0.786801 1.03125,-1.04883 0.423613,-0.118976 0.710393,-0.273835 0.921875,-0.271484 z  m .1738,3.4883 c -0.326889,0 -0.654916,0.109332 -0.923828,0.328125 -0.604024,0.525219 -0.710015,1.45926 -0.1875,2.06641 0.522519,0.607147 1.44199,0.689553 2.05664,0.189454 0.604026,-0.525219 0.685027,-1.45053 0.1875,-2.06836 -0.293917,-0.341521 -0.712527,-0.516736 -1.13281,-0.515625 z " class="ColorScheme-Text"/>
</svg>
