<svg width="22" version="1.1" xmlns="http://www.w3.org/2000/svg" height="22">
<defs id="defs3051">
<style type="text/css" id="current-color-scheme">
.ColorScheme-Text {
color:#4d4d4d;
}
</style>
</defs>
<path style="fill:currentColor" d="m 2,2 v 18 h 18 v -18 h -18 z  m 5.8262,5.4414 c 0.900805,1e-07 1.5957,0.308814 2.08594,0.927734 0.490234,0.615856 0.736327,1.49302 0.736329,2.63281 0,1.13673 -0.246095,2.01585 -0.736329,2.63477 -0.490234,0.615856 -1.18513,0.921875 -2.08594,0.921875 -0.903869,0 -1.60156,-0.306019 -2.0918,-0.921875 -0.490234,-0.61892 -0.734375,-1.49804 -0.734375,-2.63477 0,-1.13979 0.244141,-2.01696 0.734375,-2.63281 0.490234,-0.61892 1.18793,-0.927734 2.0918,-0.927734 z  m 5.9297,.123 h 1.68164 v 5.63867 h 1.5625 v 1.22266 h -4.79883 v -1.22266 h 1.5625 v -4.43359 l -1.6035,.3301 v -1.20508 l 1.5957,-.3301 z  m -5.9297,1.084 c -0.379931,0 -0.65011,0.176941 -0.8125,0.529297 -0.16239,0.349292 -0.244141,0.952638 -0.244141,1.81055 1e-07,0.867102 0.0817507,1.47856 0.244141,1.83399 0.16239,0.35542 0.432569,0.533203 0.8125,0.533203 0.376867,0 0.646204,-0.177783 0.808594,-0.533203 0.16239,-0.35542 0.244141,-0.966883 0.244141,-1.83399 0,-0.857909 -0.0817506,-1.46126 -0.244141,-1.81055 -0.159326,-0.352356 -0.428662,-0.529297 -0.808594,-0.529297 z " class="ColorScheme-Text"/>
</svg>
