<svg width="22" version="1.1" xmlns="http://www.w3.org/2000/svg" height="22">
<defs id="defs3051">
<style type="text/css" id="current-color-scheme">
.ColorScheme-Text {
color:#4d4d4d;
}
</style>
</defs>
<path style="fill:currentColor" d="m 2,2 v 18 h 18 v -18 Z  m 8,3 v 1.18359 c -1.18457,0 -1.15627,0.478338 -1.15627,2.21094 0.092972,1.44707 -0.09483,1.62341 -1.20312,2.6155 1.26106,0.842851 1.20312,1.24124 1.20312,2.59596 0,1.7326 -0.028278,2.21094 1.15627,2.21094 v 1.18359 c -1.77683,0 -2.47658,-0.706366 -2.47658,-2.50977 0.178763,-1.55187 -0.031926,-2.4977 -1.52343,-2.84597 v -1.28906 c 1.66176,-0.06374 1.57695,-1.49556 1.52343,-2.84598 0,-1.8034 0.699754,-2.50977 2.47658,-2.50977 z  m 2,0 c 1.77684,0 2.47651,0.706366 2.47651,2.50977 -0.177242,1.53993 0.04402,2.49225 1.52343,2.84598 v 1.28906 c -1.65072,0.07388 -1.57406,1.50284 -1.52343,2.84597 0,1.8034 -0.699669,2.50977 -2.47651,2.50977 v -1.18359 c 1.1846,0 1.1562,-0.478337 1.1562,-2.21094 -0.09347,-1.44075 0.100286,-1.60939 1.20312,-2.59596 -1.26591,-0.848361 -1.20312,-1.25468 -1.20312,-2.6155 0,-1.7326 0.02836,-2.21094 -1.1562,-2.21094 v -1.18359 z " class="ColorScheme-Text"/>
</svg>
