<svg width="22" version="1.1" xmlns="http://www.w3.org/2000/svg" height="22">
<defs id="defs3051">
<style type="text/css" id="current-color-scheme">
.ColorScheme-Text {
color:#4d4d4d;
}
</style>
</defs>
<path style="fill:currentColor" d="m 2,2 v 18 h 18 v -18 h -18 z  m 8.9492,2.7578 c 3.40138,0 6.18164,2.79781 6.18164,6.19922 0,1.31773 -0.42185,2.53918 -1.13086,3.54492 l 1.25,1.2324 -1.5234,1.5078 -1.2324,-1.2344 c -1.00575,0.709012 -2.22719,1.13086 -3.54492,1.13086 -3.40141,0 -6.19922,-2.78024 -6.19922,-6.18164 0,-3.4014 2.79781,-6.19922 6.19922,-6.19922 z  m 0,2.1406 c -2.2494,0 -4.05859,1.80919 -4.05859,4.05859 0,2.2494 1.80919,4.04102 4.05859,4.04102 0.734177,0 1.41039,-0.19461 2.00195,-0.53125 l -2.002,-2.0195 -1.3027,1.3008 -1.5059,-1.5059 4.0918,-4.0938 1.5078,1.5078 -1.2852,1.3008 2.0039,2.0039 c 0.33664,-0.591564 0.53125,-1.26973 0.53125,-2.00391 0,-2.2494 -1.79161,-4.05859 -4.04101,-4.05859 z " class="ColorScheme-Text"/>
</svg>
