<svg width="22" version="1.1" xmlns="http://www.w3.org/2000/svg" height="22">
<defs id="defs3051">
<style type="text/css" id="current-color-scheme">
.ColorScheme-Text {
color:#4d4d4d;
}
</style>
</defs>
<path style="fill:currentColor" d="m 8,2 v 5 h 2 v 1 h 1 v 1 h 1 V 8 h 2 V 7 H 12 V 6 H 10 V 4 h 2 V 3 H 11 V 2 Z m 4,1 h 2 V 2 h -2 z m 0,1 v 2 h 2 V 4 Z m 0,5 v 1 h 2 V 9 Z m 0,1 h -2 v 1 H 2 l 9,9 9,-9 h -8 z m -2,0 V 8 H 8 v 2 z m 0,1 h 1 v 1 h 2 v 2 h -2 v -2 h -1 z" class="ColorScheme-Text"/>
</svg>
