<svg width="22" version="1.1" xmlns="http://www.w3.org/2000/svg" height="22">
<defs id="defs3051">
<style type="text/css" id="current-color-scheme">
.ColorScheme-Text {
color:#4d4d4d;
}
</style>
</defs>
<path style="fill:currentColor;fill-opacity:1;stroke:none" id="rect5233" d="m 7,3 v 1 10.5039 a 2.5,2.5 0 0 0 -1.5,-0.503906 2.5,2.5 0 0 0 -2.5,2.5 2.5,2.5 0 0 0 2.5,2.5 2.5,2.5 0 0 0 2.5,-2.5 v -9.5 h 10 v 5.50391 a 2.5,2.5 0 0 0 -1.5,-0.503906 2.5,2.5 0 0 0 -2.5,2.5 2.5,2.5 0 0 0 2.5,2.5 2.5,2.5 0 0 0 2.5,-2.5 v -10.5 -0.5 -0.5 H 8 7 Z M 8,4 H 18 V 6 H 8 Z" class="ColorScheme-Text"/>
</svg>
