<svg width="22" version="1.0" xmlns="http://www.w3.org/2000/svg" viewBox="0 0 22 22" height="22">
<defs id="defs3051">
<style type="text/css" id="current-color-scheme">
.ColorScheme-Text {
color:#4d4d4d;
}
</style>
</defs>
<path style="fill:currentColor" d="m 2,2 v 18 h 18 v -18 h -18 z  m 14,2 a 2,2 0 0,1 2,2 2,2 0 0,1 -2,2 2,2 0 0,1 -1.98438,-1.77344 c -0.519224,-0.0677457 -1.07559,-0.125699 -1.63867,-0.160156 -1.13715,-0.0695879 -2.29487,-0.0353567 -3.16016,0.175781 -0.865287,0.211137 -1.34214,0.540175 -1.50977,1.00977 -0.101516,0.284391 -0.0832712,0.447364 0.0117188,0.662109 0.094993,0.214745 0.308407,0.478361 0.646484,0.751953 0.181627,0.146984 0.396278,0.295381 0.634766,0.443359 v -0.109375 h 4 v 2.1543 c 0.573641,0.307444 1.11553,0.637735 1.58008,1.01367 0.451542,0.365415 0.840667,0.782566 1.07422,1.31055 0.233548,0.527981 0.268177,1.16989 0.052734,1.77344 -0.395478,1.10789 -1.45111,1.6927 -2.56641,1.96484 -1.11529,0.272144 -2.38535,0.289624 -3.60742,0.214844 -0.685137,-0.041927 -1.34992,-0.116848 -1.96094,-0.201172 a 2,2 0 0,1 -1.57227,0.769531 2,2 0 0,1 -2,-2 2,2 0 0,1 2,-2 2,2 0 0,1 1.98633,1.77539 c 0.519213,0.067923 1.0756,0.125699 1.63867,0.160156 1.13715,0.069588 2.29487,0.035356 3.16016,-0.175781 0.865288,-0.211137 1.34214,-0.542127 1.50977,-1.01172 0.101516,-0.28439 0.083271,-0.447365 -0.011719,-0.662109 -0.094992,-0.214746 -0.31036,-0.478362 -0.648437,-0.751954 -0.181032,-0.146502 -0.397424,-0.293915 -0.634766,-0.441406 v 0.107422 h -4 v -2.15625 c -0.573607,-0.30743 -1.11361,-0.635802 -1.57812,-1.01172 -0.451542,-0.365416 -0.840666,-0.782566 -1.07422,-1.31055 -0.233548,-0.527982 -0.268176,-1.1699 -0.0527343,-1.77344 0.395478,-1.1079 1.45111,-1.69075 2.56641,-1.96289 1.11529,-0.272137 2.38535,-0.291577 3.60742,-0.216797 0.685871,0.0419716 1.34939,0.114782 1.96094,0.199219 a 2,2 0 0,1 1.57031,-0.767578 z " class="ColorScheme-Text"/>
</svg>
