<svg width="22" version="1.0" xmlns="http://www.w3.org/2000/svg" viewBox="0 0 22 22" height="22">
<defs id="defs3051">
<style type="text/css" id="current-color-scheme">
.ColorScheme-Text {
color:#4d4d4d;
}
</style>
</defs>
<path style="fill:currentColor" d="m 2,2 v 18 h 18 v -18 h -18 z  m 3,2 h 3 v 3 h -1 v 8 h 1 v 3 h -3 v -3 h 1 v -3 h -1 v -2 h 1 v -3 h -1 v -3 z  m 13,0 v 0.785156 c -0.81005,1.19678 -2.08211,1.63166 -3.77148,2.33008 -1.25028,0.51689 -2.37736,1.15105 -3.26562,2.05859 -0.951393,0.97209 -0.98809,1.76817 -0.945313,2.31445 0.044053,0.562635 0.434786,1.07956 0.757813,1.25781 0.2962,0.163453 1.02907,0.21242 1.44141,-0.208985 0.220379,-0.225226 0.32699,-0.537689 0.490234,-0.75 0.3197,-0.415795 1.10614,-0.51639 1.54688,-0.134765 0.36516,0.316186 0.510754,0.657329 0.527344,1.08008 0.026541,0.676446 -0.380727,1.23391 -0.740234,1.5957 -0.46778,0.470764 -1.00578,0.703035 -1.61524,0.845703 -0.54223,0.126933 -1.15497,0.089217 -1.77734,-0.050781 -1.11039,-0.24978 -1.86825,-0.977222 -2.33398,-1.98242 -0.202526,-0.43711 -0.304923,-1.03325 -0.314453,-1.51172 -0.014453,-1.0212 0.336635,-1.87852 0.867188,-2.60156 0.264149,-0.359985 0.562044,-0.691844 0.902344,-0.980469 1.21851,-1.03347 2.6368,-1.55341 4.01562,-2.01172 1.51468,-0.50347 3.48243,-0.965996 4.21484,-2.03516 z  m -12,1 v 1 h 1 v -1 h -1 z  m 0,11 v 1 h 1 v -1 h -1 z " class="ColorScheme-Text"/>
</svg>
