<svg width="22" version="1.0" xmlns="http://www.w3.org/2000/svg" viewBox="0 0 22 22" height="22">
<defs id="defs3051">
<style type="text/css" id="current-color-scheme">
.ColorScheme-Text {
color:#4d4d4d;
}
</style>
</defs>
<path style="fill:currentColor" d="m 2,2 v 18 h 18 v -18 h -18 z  m 14,2 a 2,2 0 0,1 2,2 2,2 0 0,1 -2,2 2,2 0 0,1 -1.85547,-1.26758 c -0.229777,0.0130052 -0.464443,0.0300817 -0.701172,0.0527343 -0.897483,0.0858801 -1.81358,0.254053 -2.50586,0.521484 -0.692277,0.267432 -1.10102,0.609801 -1.23828,0.964844 -0.0968864,0.250606 -0.0592111,0.409416 0.1875,0.728516 h 3.11328 v 2.72852 c 0.068853,0.074672 0.135237,0.15211 0.199219,0.230468 0.48869,0.598507 0.827226,1.4661 0.5,2.3125 -0.35833,0.926859 -1.19701,1.47434 -2.09766,1.82227 -0.900643,0.347925 -1.92373,0.521594 -2.90234,0.615234 -0.292478,0.027987 -0.577352,0.045931 -0.857422,0.060547 a 2,2 0 0,1 -1.8418,1.23047 2,2 0 0,1 -2,-2 2,2 0 0,1 2,-2 2,2 0 0,1 1.85938,1.26758 c 0.22854,-0.013038 0.461874,-0.03021 0.697266,-0.052734 0.897484,-0.08588 1.81163,-0.252099 2.50391,-0.519532 0.692277,-0.267431 1.10297,-0.609799 1.24023,-0.964843 0.096952,-0.250773 0.057991,-0.410655 -0.189453,-0.730469 h -3.11133 v -2.72852 c -0.0688529,-0.074614 -0.135237,-0.150157 -0.199219,-0.228515 -0.48869,-0.598508 -0.827225,-1.4661 -0.5,-2.3125 0.35833,-0.926858 1.19701,-1.47629 2.09766,-1.82422 0.900644,-0.347926 1.92373,-0.519641 2.90234,-0.613281 0.291786,-0.0279207 0.577972,-0.0478902 0.857422,-0.0625 a 2,2 0 0,1 1.8418,-1.23047 z " class="ColorScheme-Text"/>
</svg>
