<svg width="22" version="1.0" xmlns="http://www.w3.org/2000/svg" viewBox="0 0 22 22" height="22">
<defs id="defs3051">
<style type="text/css" id="current-color-scheme">
.ColorScheme-Text {
color:#4d4d4d;
}
</style>
</defs>
<path style="fill:currentColor" d="m 2,2 v 18 h 18 v -18 h -18 z  m 14,2 a 2,2 0 0,1 2,2 2,2 0 0,1 -2,2 2,2 0 0,1 -1.90234,-1.39258 c -0.3979,0.0012004 -0.810276,0.0094316 -1.23047,0.0351562 -1.02927,0.0630128 -2.0712,0.220618 -2.83984,0.503906 -0.76865,0.283288 -1.18374,0.640462 -1.30664,1.0625 -0.0528951,0.181645 -0.0389837,0.267624 0.0234375,0.402344 0.0493303,0.106466 0.151519,0.241424 0.308594,0.388672 h 3.94727 v 2.19141 c 0.267959,0.161652 0.523359,0.334687 0.757812,0.525391 0.349244,0.284072 0.66163,0.614236 0.859376,1.04101 0.197743,0.42678 0.248318,0.95391 0.103515,1.45117 -0.306714,1.05327 -1.23107,1.6844 -2.23047,2.05274 -1,0.368332 -2.15425,0.52559 -3.26758,0.59375 -0.495347,0.030325 -0.979608,0.039787 -1.43945,0.039062 a 2,2 0 0,1 -1.7832,1.10547 2,2 0 0,1 -2,-2 2,2 0 0,1 2,-2 2,2 0 0,1 1.9043,1.39258 c 0.397315,-0.00123 0.809007,-0.009473 1.22852,-0.035156 1.02927,-0.063013 2.07119,-0.220618 2.83984,-0.503906 0.76865,-0.283289 1.18374,-0.640462 1.30664,-1.0625 0.05289,-0.181645 0.038982,-0.267625 -0.023438,-0.402344 -0.04933,-0.106467 -0.151519,-0.241424 -0.308593,-0.388672 h -3.94727 v -2.19141 c -0.267958,-0.161652 -0.523358,-0.334687 -0.757812,-0.525391 -0.349242,-0.284072 -0.66163,-0.614236 -0.859375,-1.04102 -0.197745,-0.426779 -0.248319,-0.95391 -0.103516,-1.45117 0.306714,-1.05327 1.23107,-1.6844 2.23047,-2.05273 1,-0.368332 2.15425,-0.525591 3.26758,-0.59375 0.495347,-0.0303256 0.979608,-0.0397875 1.43945,-0.0390624 a 2,2 0 0,1 1.7832,-1.10547 z " class="ColorScheme-Text"/>
</svg>
