<svg width="22" version="1.1" xmlns="http://www.w3.org/2000/svg" height="22">
<defs id="defs3051">
<style type="text/css" id="current-color-scheme">
.ColorScheme-Text {
color:#4d4d4d;
}
</style>
</defs>
<path style="fill:currentColor" d="m 2,2 v 18 h 18 v -18 h -18 z  m 9,3 c 4.14214,0 7.5,2.43647 7.5,5.42969 0,2.99322 -3.35786,5.41797 -7.5,5.41797 -0.562,0 -1.09831,-0.057878 -1.625,-0.142578 l -3.0195,2.8965 .6328,-3.6055 c -2.09337,-0.961504 -3.48828,-2.64126 -3.48828,-4.56641 0,-2.99321 3.35786,-5.42969 7.5,-5.42969 z  m -.043,1.0547 c -2.28219,0 -4.14453,1.86236 -4.14453,4.14453 0,2.28219 1.86236,4.15625 4.14453,4.15625 0.884141,0 1.71191,-0.291861 2.38672,-0.767578 l .8301,.8418 1.0137,-1.0117 -.832,-.8418 c 0.475713,-0.674806 0.755859,-1.49281 0.755859,-2.37695 0,-2.28219 -1.8721,-4.14453 -4.1543,-4.14453 z  m 0,1.4297 c 1.50925,0 2.72852,1.2056 2.72852,2.71484 0,0.492606 -0.137411,0.956599 -0.363281,1.35351 l -1.3535,-1.3535 .875,-.8633 -1.0137,-1.0117 -2.748,2.75 1.0117,1.0117 .8633,-.875 1.3535,1.3535 c -0.39691,0.22587 -0.860916,0.351563 -1.35352,0.351563 -1.50924,0 -2.7168,-1.20756 -2.7168,-2.7168 0,-1.50925 1.20755,-2.71484 2.7168,-2.71484 z " class="ColorScheme-Text"/>
</svg>
