<svg width="22" version="1.1" xmlns="http://www.w3.org/2000/svg" height="22">
<defs id="defs3051">
<style type="text/css" id="current-color-scheme">
.ColorScheme-Text {
color:#4d4d4d;
}
</style>
</defs>
<path style="fill:currentColor" d="m 2,2 v 18 h 18 v -18 h -18 z  m 9,3 a 6,6 0 0,1 6,6 6,6 0 0,1 -6,6 6,6 0 0,1 -6,-6 6,6 0 0,1 6,-6 z  m 0,1 a 5,5 0 0,0 -5,5 5,5 0 0,0 5,5 5,5 0 0,0 5,-5 5,5 0 0,0 -5,-5 z  m .4844,1.5547 c 0.660962,0.0076375 1.32773,0.127898 1.93164,0.345703 v 1.73828 c -1.66047,-1.07785 -3.75781,-0.70621 -3.75781,1.37305 0,2.36015 2.58812,2.26498 3.75781,1.375 v 1.7207 c -3.09758,1.04841 -5.8418,-0.221648 -5.8418,-3.0957 0,-2.48127 1.92727,-3.47994 3.91016,-3.45703 z " class="ColorScheme-Text"/>
</svg>
