<svg width="22" version="1.1" xmlns="http://www.w3.org/2000/svg" height="22">
<defs id="defs3051">
<style type="text/css" id="current-color-scheme">
.ColorScheme-Text {
color:#4d4d4d;
}
</style>
</defs>
<path style="fill:currentColor" d="m 2,2 v 18 h 18 v -18 h -18 z  m 4.8613,2.4023 h 1.15039 v 1.61328 c 0.78074,0.0624593 1.75844,0.198536 2.84961,0.490234 v 1.80469 c -1.20938,-0.507938 -2.25426,-0.638496 -2.84961,-0.667969 v 2.03906 c 1.83567,0.348147 3.48828,0.665334 3.48828,2.95508 0,2.12766 -1.72255,2.70656 -3.48828,2.80664 v 2.1543 h -1.15039 l -.0078,-2.1387 c -1.17726,-0.047089 -2.2873,-0.265526 -3.33984,-0.654296 v -1.86133 c 1.12487,0.577105 2.20538,0.856771 3.34766,0.894532 v -2.20899 c -2.07462,-0.38034 -3.36133,-0.900512 -3.36133,-2.82031 0,-1.76169 1.28666,-2.68173 3.35352,-2.76367 l .0078,-1.6426 z  m 7.1387,1.5977 h 2 v 10 h -2 v -10 z  m -7.1387,1.6641 c -0.656118,0.036964 -1.10938,0.378395 -1.10938,0.894531 0,0.638548 0.477033,0.887975 1.10938,0.960937 v -1.85547 z  m 1.1504,4.1699 v 1.97656 c 0.742722,-0.0085 1.23633,-0.26873 1.23633,-0.945313 0,-0.633572 -0.351164,-0.937082 -1.23633,-1.03125 z " class="ColorScheme-Text"/>
</svg>
