<svg width="22" version="1.1" xmlns="http://www.w3.org/2000/svg" height="22">
<defs id="defs3051">
<style type="text/css" id="current-color-scheme">
.ColorScheme-Text {
color:#4d4d4d;
}
</style>
</defs>
<path style="fill:currentColor" d="m 2,2 v 18 h 18 v -18 h -18 z  m 9,1.5 a 7.5,7.5 0 0,1 7.5,7.5 7.5,7.5 0 0,1 -7.5,7.5 7.5,7.5 0 0,1 -7.5,-7.5 7.5,7.5 0 0,1 7.5,-7.5 z  m -.3574,1.5 c -0.25378,-0.002821 -0.597132,0.181447 -1.10547,0.324219 -1.13394,0.314438 -1.5341,0.106616 -1.23828,1.25977 l .2188,.8496 c -0.077205,0.0686049 -0.184514,0.150145 -0.261719,0.21875 -0.321577,0.244277 -0.57549,0.565941 -0.798828,0.875 l -.8555,-.2207 c -1.15489,-0.29939 -0.977966,0.195254 -1.26953,1.18359 -0.357383,1.16221 -0.685275,1.33319 0.484375,1.64453 l .8965,.2383 c 0.020358,0.382843 0.113481,0.770271 0.279297,1.16211 l -.7363,.5996 c -0.947628,0.771023 -0.543399,0.837662 0.138672,1.66797 0.738493,0.949713 0.698977,1.2107 1.61328,0.466797 l .7383,-.5996 c 0.53394,0.341236 1.19275,0.557165 1.83008,0.640625 l .2148,.8867 c 0.29658,1.21833 0.655205,0.764057 1.67188,0.478515 1.13394,-0.31443 1.5341,-0.106595 1.23828,-1.25976 l -.2188,-.8496 c 0.0772,-0.06861 0.184519,-0.15015 0.261719,-0.21875 0.321577,-0.244276 0.575491,-0.565942 0.798828,-0.875 l .8555,.2207 c 1.10751,0.4449 0.977957,-0.195252 1.26953,-1.18359 0.357383,-1.16221 0.685275,-1.33319 -0.484375,-1.64453 l -.8965,-.2383 c -0.020357,-0.382845 -0.113479,-0.770262 -0.279297,-1.16211 l .7363,-.5996 c 0.947628,-0.771021 0.543401,-0.837665 -0.138672,-1.66797 -0.738494,-0.949713 -0.69898,-1.2107 -1.61328,-0.466797 l -.7383,.5996 c -0.53394,-0.341237 -1.19276,-0.557163 -1.83008,-0.640625 l -.2148,-.8867 c -0.148288,-0.609166 -0.312626,-0.8 -0.566406,-0.802734 z  m .209,4.1875 c 0.504346,-0.001333 1.00863,0.207361 1.36133,0.617188 0.597034,0.741399 0.498271,1.85216 -0.226563,2.48242 -0.73759,0.600122 -1.83977,0.502016 -2.4668,-0.226562 -0.62702,-0.72858 -0.500223,-1.8502 0.224609,-2.48047 0.322694,-0.262554 0.715154,-0.391538 1.10742,-0.392578 z " class="ColorScheme-Text"/>
</svg>
