<svg width="22" version="1.1" xmlns="http://www.w3.org/2000/svg" height="22">
<defs id="defs3051">
<style type="text/css" id="current-color-scheme">
.ColorScheme-Text {
color:#4d4d4d;
}
</style>
</defs>
<path style="fill:currentColor" d="m 2,2 v 18 h 18 v -18 h -18 z  m 13.2383,1.75 a 2,2 0 0,1 2,2 2,2 0 0,1 -2,2 2,2 0 0,1 -2,-2 2,2 0 0,1 2,-2 z  m -4.9883,2.75 a 4.75,4.75 0 0,1 4.75,4.75 4.75,4.75 0 0,1 -4.75,4.75 4.75,4.75 0 0,1 -4.75,-4.75 4.75,4.75 0 0,1 4.75,-4.75 z  m 1,1.25 a 2,2 0 0,0 -2,2 2,2 0 0,0 2,2 2,2 0 0,0 2,-2 2,2 0 0,0 -2,-2 z " class="ColorScheme-Text"/>
</svg>
