<svg width="22" version="1.1" xmlns="http://www.w3.org/2000/svg" height="22">
<defs id="defs3051">
<style type="text/css" id="current-color-scheme">
.ColorScheme-Text {
color:#4d4d4d;
}
</style>
</defs>
<path style="fill:currentColor;fill-opacity:1" d="m 2,2 v 18 h 18 v -18 h -18 z  m 13,3 h 1 v 2 h 2 v 1 h -2 v 2 h -1 v -2 h -2 v -1 h 2 v -2 z  m -5.9043,1.5 c 0.524933,0 1.02878,0.0536525 1.51172,0.162109 0.482938,0.108457 0.947434,0.269382 1.39258,0.482422 v 1.79492 c -0.449344,-0.282763 -0.893334,-0.489396 -1.33008,-0.621094 -0.436745,-0.131698 -0.895968,-0.197266 -1.37891,-0.197266 -0.86509,0 -1.54548,0.256281 -2.04102,0.767578 -0.495537,0.511297 -0.742188,1.21464 -0.742188,2.11328 0,0.89477 0.24665,1.59808 0.742188,2.10938 0.495537,0.511297 1.17593,0.767578 2.04102,0.767578 0.482938,0 0.942161,-0.065569 1.37891,-0.197265 0.436744,-0.131698 0.880734,-0.338331 1.33008,-0.621094 v 1.79492 c -0.445144,0.21304 -0.90964,0.373964 -1.39258,0.482422 -0.482939,0.108456 -0.986786,0.162109 -1.51172,0.162109 -1.5664,0 -2.80717,-0.403305 -3.72266,-1.20898 -0.915484,-0.809554 -1.37305,-1.90624 -1.37305,-3.28906 0,-1.3867 0.457563,-2.48143 1.37305,-3.28711 0.915484,-0.809553 2.15626,-1.21484 3.72266,-1.21484 z  m 5.9043,5.5 h 1 v 2 h 2 v 1 h -2 v 2 h -1 v -2 h -2 v -1 h 2 v -2 z " class="ColorScheme-Text"/>
</svg>
