<svg width="22" version="1.1" xmlns="http://www.w3.org/2000/svg" height="22">
<defs id="defs3051">
<style type="text/css" id="current-color-scheme">
.ColorScheme-Text {
color:#4d4d4d;
}
</style>
</defs>
<path style="fill:currentColor" d="M 2,2 V 20 H 20 V 2 Z m 7.666,1 h 1.66797 c 1.47735,0 2.66602,1.18867 2.66602,2.66602 v 2.38199 c 0,1.4018288 -1,1.9519747 -2.723,1.95198 C 8,10 7,10.062286 7,13.66602 V 15 C 5.52267,15 4,14 4,12.33398 V 9.66601 c 0,-1.47733 1.18868,-2.66602 2.66602,-2.66602 h 1.33398 3 V 5.66601 h -4 c 0,-1.47735 1.18867,-2.66602 2.66602,-2.66602 z m 0,0.666 c -0.369333,0 -0.666016,0.298635 -0.666016,0.667969 0,0.369333 0.296683,0.666016 0.666016,0.666016 0.369333,0 0.667968,-0.296683 0.667968,-0.666016 C 10.333968,3.964635 10.035333,3.666 9.666,3.666 Z M 15,7 c 1.47733,0 3,1 3,2.66602 v 2.66797 c 0,1.47733 -1.18868,2.66602 -2.66602,2.66602 h -4.33398 v 1.33398 h 4 c 0,1.47733 -1.18867,2.66602 -2.66602,2.66602 h -1.66797 c -1.47735,0 -2.66602,-1.18868 -2.66602,-2.66602 v -2.383995 c 0,-1.33399 1,-1.949987 2.750177,-1.95 C 14,12 15,12 15,8.33399 V 7 Z M 12.334,17 c -0.369333,0 -0.667968,0.296683 -0.667968,0.666016 0,0.369333 0.298635,0.667968 0.667968,0.667968 0.369333,0 0.666016,-0.298635 0.666016,-0.667968 C 13,17.296683 12.703333,17 12.334,17 Z" class="ColorScheme-Text"/>
</svg>
