<svg width="22" version="1.1" xmlns="http://www.w3.org/2000/svg" height="22">
<defs id="defs3051">
<style type="text/css" id="current-color-scheme">
.ColorScheme-Text {
color:#4d4d4d;
}
</style>
</defs>
<path style="fill:currentColor;fill-opacity:1;stroke:none" id="rect3009" d="m 3,3.5 v 15 h 1 2 10 2 1 V 3.5 H 18 16 6 4 Z m 1,1 h 1 v 1 H 4 Z m 2,0 H 16 V 10 H 6 Z m 11,0 h 1 v 1 h -1 z m -13,3 h 1 v 1 H 4 Z m 13,0 h 1 v 1 h -1 z m -13,3 h 1 v 1 H 4 Z m 13,0 h 1 v 1 H 17 Z M 6,12 h 10 v 5.5 H 6 Z m -2,1.5 h 1 v 1 H 4 Z m 13,0 h 1 v 1 h -1 z m -13,3 h 1 v 1 H 4 Z m 13,0 h 1 v 1 h -1 z" class="ColorScheme-Text"/>
</svg>
