<svg width="22" version="1.1" xmlns="http://www.w3.org/2000/svg" height="22">
<defs id="defs3051">
<style type="text/css" id="current-color-scheme">
.ColorScheme-Text {
color:#4d4d4d;
}
</style>
</defs>
<path style="fill:currentColor" d="M 2,2 V 20 H 20 V 2 Z M 3,4 H 5 V 6 H 3 Z m 3,0 h 10 v 6 H 6 Z m 11,0 h 2 V 6 H 17 Z M 3,7 H 5 V 9 H 3 Z m 14,0 h 2 V 9 H 17 Z M 3,10 h 2 v 2 H 3 Z m 14,0 h 2 v 2 H 17 Z M 6,12 h 10 v 6 H 6 Z m -3,1 h 2 v 2 H 3 Z m 14,0 h 2 v 2 H 17 Z M 3,16 h 2 v 2 H 3 Z m 14,0 h 2 v 2 h -2 z" class="ColorScheme-Text"/>
</svg>
