<svg width="22" version="1.1" xmlns="http://www.w3.org/2000/svg" height="22">
<defs id="defs3051">
<style type="text/css" id="current-color-scheme">
.ColorScheme-Text {
color:#4d4d4d;
}
</style>
</defs>
<path style="fill:currentColor" d="m 2,2 v 18 h 18 v -18 h -18 z  m 1,1 h 1 v 1 h -1 v -1 z  m 2,0 h 12 v 7 h -12 v -7 z  m 13,0 h 1 v 1 h -1 v -1 z  m -15,3 h 1 v 1 h -1 v -1 z  m 15,0 h 1 v 1 h -1 v -1 z  m -15,3 h 1 v 1 h -1 v -1 z  m 15,0 h 1 v 1 h -1 v -1 z  m -15,3 h 1 v 1 h -1 v -1 z  m 2,0 h 12 v 7 h -12 v -7 z  m 13,0 h 1 v 1 h -1 v -1 z  m -15,3 h 1 v 1 h -1 v -1 z  m 15,0 h 1 v 1 h -1 v -1 z  m -15,3 h 1 v 1 h -1 v -1 z  m 15,0 h 1 v 1 h -1 v -1 z " class="ColorScheme-Text"/>
</svg>
