<svg width="16" version="1.1" xmlns="http://www.w3.org/2000/svg" viewBox="0 0 16 16" height="16">
<defs id="defs3051">
<style type="text/css" id="current-color-scheme">
.ColorScheme-Text {
color:#4d4d4d;
}
</style>
</defs>
<path style="fill:currentColor;fill-opacity:1;stroke:none" id="path4488" d="m 8.002,0 c -1.105,2.96059e-16 -2,0.894999 -2,2 0,1.105 0.895,2 2,2 0.325,0 0.63425,-0.08075 0.90625,-0.21875 l 1.5,2.2188 -2.625,4.5 c -0.433,0.75 -0.21425,0.75 0.21875,1.5 l 2.998,-5.125 3,5.125 c 0.433,-0.75 0.653704,-0.75 0.220703,-1.5 0.010001,0.008 -2.625,-4.5 -2.625,-4.5 l 1.5,-2.2188 c 0.271001,0.138 0.579298,0.21875 0.904297,0.21875 1.105,0 2,-0.895001 2,-2 0,-1.105 -0.895,-2 -2,-2 -1.105,2.96059e-16 -2,0.894999 -2,2 0,0.404999 0.1397,0.77875 0.345703,1.09375 v 0.03125 l -.7812,1.1562 -.0312,.0625 c -0.01101,0.001 -0.02021,0 -0.03125,0 -0.492,-0.001 -0.60425,-0.56875 -1.40625,-0.59375 l -.4375,-.625 c 0.005,-0.007 -0.005,-0.02325 0,-0.03125 0.207,-0.315 0.34375,-0.688751 0.34375,-1.09375 0,-1.105 -0.895,-2 -2,-2 z  m 0,12 l -7.002,-4.1992 v 7.19922 h 12 l -4.998,-3 z  m -.002,-11 c 0.552,0 1,0.448 1,1 0,0.551999 -0.448,1 -1,1 -0.552,0 -1,-0.448001 -1,-1 0,-0.552 0.448,-1 1,-1 z  m 6,0 c 0.552,0 1,0.448 1,1 0,0.551999 -0.448,1 -1,1 -0.552,0 -1,-0.448001 -1,-1 0,-0.552 0.448,-1 1,-1 z  m -3.0605,4 h 0.125 c 0.245001,0.032 0.4375,0.246 0.4375,0.5 0,0.276 -0.224,0.5 -0.5,0.5 h -0.001953 c -0.276,0 -0.5,-0.224 -0.5,-0.5 0,-0.254 0.194452,-0.468 0.439453,-0.5 z  m -8.9395,4.5996 l 7.5,4.4004 h -7.5 v -4.40039 z " class="ColorScheme-Text"/>
</svg>
