<svg width="16" version="1.0" xmlns="http://www.w3.org/2000/svg" height="16" style="overflow:visible">
<defs id="defs3051">
<style type="text/css" id="current-color-scheme">
.ColorScheme-Text {
color:#4d4d4d;
}
</style>
</defs>
<path style="fill:currentColor;fill-opacity:1;stroke:none" id="text2468" d="m 1.0103,4.8391 c -0.0337049,0.126061 0.016499,0.27469 0.128758,0.324155 0.129819,0.0572171 0.330865,-0.0012862 0.392737,-0.108682 0.780732,-1.35488 1.31989,-1.59633 2.58673,-1.59633 h 1.24976 l -.7064,6.0431 c -0.108679,0.762194 -0.461871,1.36106 -1.38561,2.20492 -0.84223,0.762188 -1.08675,1.19773 -1.08675,1.79659 0,0.816642 0.652051,1.49716 1.49428,1.49716 0.84223,0 1.49428,-0.626089 1.84748,-1.7966 0.244513,-0.707745 0.624885,-3.4843 0.869406,-6.23363 l .326,-3.5115 h 2.9614 c -0.326029,2.15047 -0.570549,5.09037 -0.570549,6.64194 0,3.04877 1.03241,4.89981 2.68971,4.89981 1.05958,0 2.01049,-0.734976 2.66254,-2.01436 0.314391,-0.629987 0.405712,-1.09897 0.524411,-2.00269 0.03796,-0.288951 -0.120102,-0.421388 -0.280613,-0.458409 -0.167321,-0.0386 -0.341089,0.135953 -0.418105,0.39258 -0.275111,0.916686 -0.700825,1.41522 -1.45582,1.41522 -0.543374,0 -1.11392,-0.381095 -1.41278,-0.952737 -0.244519,-0.489978 -0.326028,-0.925515 -0.326028,-1.82381 0,-2.06881 0.135847,-4.60038 0.326028,-6.09755 l 3.1859,.0079 c 0.14679,0 0.253913,-0.081336 0.253913,-0.24604 v -1.86966 c 0,-0.227369 -0.137479,-0.350433 -0.366082,-0.350433 h -8.98954 c -1.46712,0 -2.15337,0.226013 -2.94126,0.988196 -0.706937,0.7083 -1.13233,1.44011 -1.5596,2.8508 Z " class="ColorScheme-Text"/>
</svg>
