<svg width="16" version="1.1" xmlns="http://www.w3.org/2000/svg" height="16"><defs id="defs3051">
<style type="text/css" id="current-color-scheme">
.ColorScheme-Text {
color:#4d4d4d;
}
</style>
</defs>
<path style="fill:currentColor;fill-opacity:1;stroke:none" id="path7270-2" d="m 12.2161,.0064 c -0.196585,0.0113 -0.395248,0.0392 -0.590194,0.09 -1.86616,0.48638 -2.98414,2.38327 -2.49756,4.23848 0.101655,0.38761 0.289886,0.74145 0.502248,1.0562 -0.108409,0.0174 -1.62792,2.59746 -1.62792,2.59746 l 3.4121,.0235 .8012,-1.1168 c 0.380141,0.0299 0.782663,0.0195 1.17257,-0.0822 1.86616,-0.48638 2.98413,-2.38327 2.49757,-4.23848 -0.101665,-0.38761 -0.289896,-0.73949 -0.502248,-1.05424 l -1.3602,2.308 c -0.279595,0.47453 -0.88143,0.63141 -1.35823,0.35402 l -.8756,-.5085 c -0.476809,-0.27742 -0.633308,-0.87505 -0.353723,-1.34959 l 1.3602,-2.3099 c -0.19007,-0.015 -0.383838,-0.0191 -0.580423,-0.008 z  m -8.6143,.6904 c -0.229937,0.0472 -0.444477,0.13114 -0.656639,0.21906 -0.016686,0.62522 0.0866272,1.44383 -0.156339,1.65862 -0.23876,0.21107 -1.03793,0.0344 -1.65528,-0.0313 -0.13127,0.23682 -0.233554,0.48592 -0.310729,0.75107 0.477689,0.39643 1.13925,0.84021 1.15498,1.1579 0.0158867,0.32165 -0.625475,0.80605 -1.06117,1.25179 0.103283,0.2582 0.248561,0.49425 0.40453,0.71978 0.607789,-0.12659 1.36562,-0.37407 1.62401,-0.18777 0.263079,0.1897 0.265477,1.00679 0.343951,1.62733 0.249331,0.0751 0.511251,0.10465 0.779765,0.12518 0.281104,-0.55541 0.568193,-1.32169 0.875515,-1.40826 0.315475,-0.0888 0.960993,0.45878 1.49697,0.78236 0.218526,-0.15181 0.413453,-0.33754 0.594101,-0.53201 -0.253617,-0.57314 -0.721324,-1.29377 -0.594101,-1.59603 0.127353,-0.30254 0.974901,-0.4703 1.56147,-0.68848 0.004,-0.0736 0.031274,-0.14435 0.031274,-0.21906 0,-0.19165 -0.034471,-0.37954 -0.062547,-0.56331 -0.605572,-0.16105 -1.4644,-0.24164 -1.62205,-0.53201 -0.156608,-0.28842 0.240258,-1.06292 0.435804,-1.65862 -0.200991,-0.17884 -0.418059,-0.33764 -0.65469,-0.46942 -0.50045,0.37567 -1.08348,0.99578 -1.40512,0.93884 -0.316614,-0.0561 -0.663782,-0.82072 -1.0006,-1.34567 -0.040166,0.007 -0.08333,-0.008 -0.123117,0 z  m .6234,1.8777 c 0.931168,0 1.68654,0.7566 1.68654,1.68992 0,0.93331 -0.755376,1.68991 -1.68654,1.68991 -0.931158,0 -1.68654,-0.7566 -1.68654,-1.68991 0,-0.93332 0.755386,-1.68992 1.68654,-1.68992 z  m 8.4875,6.347 c -0.087126,0.0107 -0.164701,0.0345 -0.220834,0.0685 h -9.0874 c -0.252718,-0.095 -0.723393,-0.0429 -0.936094,0.17995 l -2.1614,2.1183 c -0.191459,0.17387 -0.300867,0.48162 -0.304864,0.70608 -0.0526558,0.88825 1.00208,1.32317 1.63963,0.79606 l 1.3602,-1.3359 .006,3.5441 c 0,0.57118 0.460054,1.00143 0.998641,1.00143 h 7.9969 c 0.522971,0 0.994735,-0.44594 0.994735,-0.93884 l -.004,-3.6067 1.3368,1.3124 c 0.637555,0.52711 1.69225,0.0923 1.63963,-0.79606 -0.004,-0.22446 -0.113404,-0.53026 -0.304864,-0.70413 l -2.1614,-2.1202 c -0.174584,-0.18291 -0.529945,-0.25706 -0.791486,-0.22493 Z " class="ColorScheme-Text"/>
</svg>
