<svg width="16" version="1.1" xmlns="http://www.w3.org/2000/svg" height="16">
<defs id="defs3051">
<style type="text/css" id="current-color-scheme">
.ColorScheme-Text {
color:#4d4d4d;
}
</style>
</defs>
<path style="fill:currentColor;fill-opacity:1;stroke:none" id="path818" d="m 4.8926,1 v 0.0019531 c -0.986301,0.0869742 -1.24916,1.3378 -0.376953,1.75 l .4707,.2188 v 2.51953 l -3.6133,5.4121 c -0.676096,1.01209 -0.396764,2.29319 0.3125,3.10742 0.680329,0.781018 1.72704,0.990234 2.60938,0.990234 h 7.41797 c 0.88235,0 1.95319,-0.188831 2.60938,-0.990234 0.756205,-0.923554 0.894132,-2.19594 0.314453,-3.08008 l -3.584,-5.4648 v -2.4668 l .5039,-.2461 c 0.916363,-0.443738 0.543295,-1.76637 -0.503907,-1.75195 h -6.06641 c -0.031416,-0.00129 -0.062334,-0.00129 -0.09375,0 z  m 2.1055,1.8613 h 2.04297 v 2.65039 c -0.00223,0.132925 0.0387361,0.306298 0.158203,0.484375 l 3.6465,5.4336 c 0.307212,0.562571 0.144676,0.922506 -0.064453,1.21094 -0.27931,0.385225 -0.741137,0.359375 -1.06836,0.359375 h -7.41797 c -0.5435,0 -0.860569,-0.157572 -1.00586,-0.332031 -0.436003,-0.426552 -0.320626,-0.849648 -0.15625,-1.18359 l 3.6777,-5.4785 c 0.104207,-0.155249 0.183273,-0.316236 0.1875,-0.494141 v -2.65039 z  m -.7852,6.1387 l -2.2324,3 h 8.04688 l -2.2305,-3 h -3.58398 z " class="ColorScheme-Text"/>
</svg>
