<svg width="16" version="1.1" xmlns="http://www.w3.org/2000/svg" height="16">
<defs id="defs3051">
<style type="text/css" id="current-color-scheme">
.ColorScheme-Text {
color:#4d4d4d;
}
</style>
</defs>
<path style="fill:currentColor;fill-opacity:1;stroke:none" id="path29274-9-1" d="M 4.8925,0.00106 A 1.00593,1.00593 0 0 0 4.51532,1.887 l 0.4715,0.2514 V 4.90444 C 4.85992,5.10482 4.72958,5.28086 4.54677,5.59595 4.27256,6.06858 3.93606,6.64253 3.57237,7.29329 2.84499,8.59478 2.02294,10.12585 1.37211,11.31661 0.79817,12.3667 0.80665,13.77224 1.655,14.83702 c 0.0101,0.0132 0.0216,0.0185 0.0314,0.0314 0.67781,0.89509 1.72653,1.13156 2.60887,1.13156 h 7.418 c 0.88235,0 1.93107,-0.23647 2.60888,-1.13156 0.009,-0.0116 0.0223,-0.0199 0.0314,-0.0314 0.84116,-1.05575 0.84209,-2.44178 0.28289,-3.48898 -0.004,-0.009 0.004,-0.0225 0,-0.0314 C 13.4619,8.92491 12.15024,7.07419 11.05317,4.87304 V 2.16987 l 0.5029,-0.2829 A 1.00593,1.00593 0 0 0 11.05316,0.00103 H 4.98674 a 1.00593,1.00593 0 0 0 -0.0943,0 z m 2.106,2.0117 h 2.04309 v 3.14322 a 1.00593,1.00593 0 0 0 0.0942,0.44005 c 1.20865,2.47149 2.59069,4.3454 3.709,6.63219 a 1.00593,1.00593 0 0 0 0.0314,0.0629 c 0.24111,0.44115 0.26143,0.8862 -0.0942,1.32015 a 1.00593,1.00593 0 0 0 -0.0629,0.0314 c -0.14529,0.19938 -0.46233,0.34576 -1.00583,0.34576 h -7.418 c -0.5435,0 -0.86054,-0.14638 -1.00583,-0.34576 a 1.00593,1.00593 0 0 0 -0.0629,-0.0314 C 2.87075,13.17731 2.89108,12.73225 3.13233,12.29112 3.78185,11.10275 4.61121,9.55854 5.33258,8.2678 5.69326,7.62242 6.04219,7.0583 6.30698,6.60189 6.57178,6.14547 6.78322,5.75838 6.8099,5.72179 A 1.00593,1.00593 0 0 0 6.99849,5.15601 Z m -0.7858,6.9485 -2.2317,4.0213 h 8.04664 l -2.2317,-4.0213 z" class="ColorScheme-Text"/>
</svg>
