<svg version="1.1" xmlns="http://www.w3.org/2000/svg" viewBox="0 0 16 16">
<defs id="defs3051">
<style type="text/css" id="current-color-scheme">
.ColorScheme-Text {
color:#4d4d4d;
}
</style>
</defs>
<path style="fill:currentColor;fill-opacity:1;stroke:none" id="path4" d="M 4.0625,1 C 3.7091,1 3.368596,1.0812692 3.05273,1.191406 l 1.666,1.6699 c 0.342798,0.342751 0.342798,0.885732 0,1.22852 l -0.6289,0.6309 c -0.342799,0.342761 -0.887682,0.342761 -1.23047,0 l -1.6699,-1.668 c -0.110127,0.315812 -0.189453,0.656392 -0.189453,1.00977 0,1.69134 1.37101,3.0625 3.0625,3.0625 0.3534,0 0.695859,-0.079336 1.01172,-0.189453 1.71684,1.77189 2.17712,2.21558 3.99219,3.99219 -0.110127,0.315856 -0.193359,0.6564 -0.193359,1.00977 0,1.69134 1.37296,3.0625 3.06445,3.0625 0.383604,0 0.755344,-0.08998 1.09375,-0.21875 l -1.7754,-1.7773 c -0.342799,-0.342769 -0.342799,-0.913081 0,-1.25586 l 0.5996,-0.6016 c 0.171395,-0.171389 0.405225,-0.273437 0.628906,-0.273437 0.223688,0 0.459457,0.102047 0.630859,0.273437 l 1.7207,1.7207 c 0.09279,-0.292449 0.164062,-0.606523 0.164062,-0.929688 0,-1.69134 -1.37101,-3.0625 -3.0625,-3.0625 -0.353401,0 -0.695869,0.081287 -1.01172,0.191406 -1.86374,-1.83566 -2.69497,-2.63127 -3.99219,-3.99219 0.110127,-0.315821 0.191406,-0.658357 0.191406,-1.01172 0,-1.69134 -1.37101,-3.0625 -3.0625,-3.0625 z M 8,2 v 1 h 5 v 5 h 1 V 2 Z M 1,8 v 6 H 7 V 13 H 2 V 12 8 Z" class="ColorScheme-Text"/>
</svg>
