<svg width="24" version="1.1" xmlns="http://www.w3.org/2000/svg" height="24">
<defs id="defs3051">
<style type="text/css" id="current-color-scheme">
.ColorScheme-Text {
color:#4d4d4d;
}
</style>
</defs>
<path style="fill:currentColor" d="m 3,3 v 18 h 18 v -18 h -18 z  m 11.6426,3.7441 c 0.893509,-0.0112774 1.88374,0.150048 2.82422,0.400391 v 1.72266 c -1.85967,-0.83156 -3.98438,-0.88732 -3.98438,0.244141 0,1.54817 4.51758,0.1338 4.51758,3.41211 0,3.6489 -4.65739,2.70336 -6.34961,2.07617 v -1.77148 c 2.32669,1.23656 4.32812,1.02278 4.32812,-0.048828 0,-1.67939 -4.39844,-0.311051 -4.39844,-3.51563 0,-1.84961 1.35671,-2.498 3.0625,-2.51953 z  m -6.9922,.1445 h 2.09961 v 7.3457 c 0,1.01363 -0.275898,1.77012 -0.828125,2.27148 -0.548594,0.501364 -1.38074,0.753907 -2.49609,0.753907 h -0.425781 v -1.58594 h 0.326172 c 0.945466,0 1.32422,-0.584266 1.32422,-1.43945 v -7.3457 z " class="ColorScheme-Text"/>
</svg>
