<svg width="24" version="1.1" xmlns="http://www.w3.org/2000/svg" height="24">
<defs id="defs3051">
<style type="text/css" id="current-color-scheme">
.ColorScheme-Text {
color:#4d4d4d;
}
</style>
</defs>
<path style="fill:currentColor;fill-opacity:1;stroke:none" d="m 3,3 v 18 h 1.55469 c 0.249518,-0.356146 0.5988,-0.667559 0.923828,-0.927734 1.78932,-1.43267 3.94983,-2.49222 6.11523,-3.41797 0.475127,-1.04719 0.877371,-2.10334 1.22852,-3.04297 0.979555,-2.62113 1.75199,-5.34464 2.23047,-8.10352 -0.330776,-0.685 -0.771432,-1.57645 -1.10351,-2.50781 h -10.9492 z  m 13.9746,0 c -0.05749,0.396987 -0.120879,0.788068 -0.179687,1.16211 -0.03604,0.229368 -0.046838,0.468605 -0.085938,0.699219 0.362997,0.770855 0.753792,1.54627 1.17188,2.28906 0.917799,1.62863 1.93923,3.20786 3.11914,4.68164 v -8.83203 h -4.02539 z  m -.8359,4.6875 c -0.635154,2.81389 -1.52695,5.6282 -2.77344,8.23828 2.18123,-0.882368 4.42835,-1.7624 6.74414,-2.36914 -1.58796,-1.75973 -2.87615,-3.79002 -3.9707,-5.86914 z  m 4.8613,6.7852 c -2.22818,0.490217 -4.45792,1.2952 -6.51953,2.09961 -0.605252,0.235932 -1.20093,0.502857 -1.82812,0.753906 -0.234888,0.430791 -0.487322,0.850581 -0.744141,1.26562 -0.476674,0.770456 -1.07044,1.64237 -1.78125,2.4082 h 10.873 v -6.52734 z  m -10.1211,3.6074 c -1.56201,0.693626 -3.05,1.46442 -4.31445,2.47656 -0.174906,0.140337 -0.361646,0.298908 -0.505859,0.443359 h 2.54883 c 0.924933,-0.769195 1.64997,-1.80066 2.27148,-2.91992 z " class="ColorScheme-Text"/>
</svg>
