<svg width="24" version="1.1" xmlns="http://www.w3.org/2000/svg" height="24">
<defs id="defs3051">
<style type="text/css" id="current-color-scheme">
.ColorScheme-Text {
color:#4d4d4d;
}
</style>
</defs>
<path style="fill:currentColor" d="m 3,3 v 18 h 18 v -18 h -18 z  m 10.4375,5.5 c 0.222057,0.0024685 0.366342,0.170106 0.496094,0.703125 l .1875,.7754 c 0.557652,0.0730294 1.13437,0.261967 1.60156,0.560546 l .6445,-.5254 c 0.8,-0.650911 0.76593,-0.42084 1.41211,0.410156 0.596811,0.726513 0.95222,0.782391 0.123047,1.45703 l -.6465,.5254 c 0.145082,0.342865 0.226331,0.682592 0.244141,1.01758 l .7871,.209 c 1.02344,0.272422 0.734584,0.420565 0.421875,1.4375 -0.255127,0.864794 -0.142259,1.4264 -1.11133,1.03711 l -.748,-.1953 c -0.195418,0.270425 -0.417839,0.553837 -0.699218,0.767579 -0.067554,0.060028 -0.160956,0.129423 -0.228516,0.189453 l .1914,.7441 c 0.258839,1.00902 -0.091792,0.826434 -1.08398,1.10156 -0.889583,0.249849 -1.20339,0.648067 -1.46289,-0.417969 l -.1875,-.7754 c -0.557659,-0.073027 -1.13437,-0.261966 -1.60156,-0.560546 l -.6445,.5254 c -0.8,0.650912 -0.765929,0.42084 -1.41211,-0.410156 -0.596811,-0.726516 -0.95222,-0.78239 -0.123047,-1.45703 l .6465,-.5254 c -0.145081,-0.342858 -0.226321,-0.682592 -0.244141,-1.01758 l -.7871,-.209 c -1.02344,-0.272422 -0.734584,-0.422519 -0.421875,-1.43945 0.255119,-0.864794 0.100798,-1.29712 1.11133,-1.03516 l .748,.1953 c 0.195421,-0.270426 0.417839,-0.553837 0.699218,-0.767579 0.067554,-0.060029 0.160966,-0.131376 0.228516,-0.191406 l -.1914,-.7422 c -0.258838,-1.009 0.09179,-0.826434 1.08398,-1.10156 0.444793,-0.124925 0.74474,-0.287625 0.966797,-0.285156 z  m .1816,3.6641 c -0.343233,0 -0.686393,0.114017 -0.96875,0.34375 -0.634226,0.55148 -0.745907,1.53241 -0.197266,2.16992 0.548645,0.637503 1.51477,0.722371 2.16016,0.197266 0.634228,-0.551479 0.719669,-1.5212 0.197266,-2.16992 -0.308613,-0.358597 -0.750107,-0.542182 -1.19141,-0.541016 z " class="ColorScheme-Text"/>
</svg>
