<svg width="24" version="1.1" xmlns="http://www.w3.org/2000/svg" height="24">
<defs id="defs3051">
<style type="text/css" id="current-color-scheme">
.ColorScheme-Text {
color:#4d4d4d;
}
</style>
</defs>
<path style="fill:currentColor" d="m 3,3 v 18 h 18 v -18 h -18 z  m 5.8262,2 c 0.900804,0 1.5957,0.261576 2.08594,0.783203 0.490234,0.519045 0.736329,1.25813 0.736329,2.21875 -1e-06,0.958037 -0.246095,1.69712 -0.736329,2.21875 -0.490233,0.519045 -1.18513,0.779297 -2.08594,0.779297 -0.903868,0 -1.60156,-0.260252 -2.0918,-0.779297 -0.490234,-0.521627 -0.734375,-1.26071 -0.734375,-2.21875 0,-0.96062 0.244141,-1.69971 0.734375,-2.21875 0.490234,-0.521627 1.18793,-0.783203 2.0918,-0.783203 z  m 5.9297,.1055 h 1.68164 v 4.75195 h 1.5625 v 1.0293 h -4.79883 v -1.0293 h 1.5625 v -3.73828 l -1.6035,.2793 v -1.01562 l 1.5957,-.2773 z  m -5.9297,.9141 c -0.379931,1e-07 -0.65011,0.148347 -0.8125,0.445313 -0.16239,0.294383 -0.244141,0.802344 -0.244141,1.52539 1e-07,0.730794 0.0817508,1.24537 0.244141,1.54492 0.16239,0.299548 0.432569,0.449219 0.8125,0.449219 0.376867,0 0.646204,-0.149671 0.808594,-0.449219 0.16239,-0.299548 0.244141,-0.814128 0.244141,-1.54492 0,-0.723047 -0.0817507,-1.23101 -0.244141,-1.52539 -0.159326,-0.296966 -0.428663,-0.445312 -0.808594,-0.445313 z  m 6.252,6.9805 c 0.932963,0 1.65242,0.261576 2.16016,0.783203 0.507736,0.519045 0.761719,1.25813 0.761719,2.21875 0,0.958037 -0.253983,1.69712 -0.761719,2.21875 -0.507734,0.519045 -1.22719,0.779297 -2.16016,0.779297 -0.936137,0 -1.65828,-0.260252 -2.16602,-0.779297 -0.507735,-0.521627 -0.761718,-1.26071 -0.761718,-2.21875 0,-0.960619 0.253983,-1.6997 0.761718,-2.21875 0.507735,-0.521627 1.22988,-0.783203 2.16602,-0.783203 z  m -7.4258,.1055 h 1.74219 v 4.75195 h 1.61719 v 1.0293 h -4.96875 v -1.0293 h 1.61914 v -3.73828 l -1.6621,.2793 v -1.01563 l 1.6523,-.2773 z  m 7.4258,.9141 c -0.393494,0 -0.675563,0.148347 -0.84375,0.445313 -0.168187,0.294383 -0.251953,0.802344 -0.251953,1.52539 0,0.730794 0.083766,1.24537 0.251953,1.54492 0.168187,0.299548 0.450256,0.449219 0.84375,0.449219 0.390321,0 0.669703,-0.149671 0.837891,-0.449219 0.168187,-0.299548 0.251953,-0.814128 0.251953,-1.54492 0,-0.723046 -0.083766,-1.23101 -0.251953,-1.52539 -0.165014,-0.296966 -0.444396,-0.445313 -0.837891,-0.445313 z " class="ColorScheme-Text"/>
</svg>
