<svg width="24" version="1.1" xmlns="http://www.w3.org/2000/svg" height="24">
<defs id="defs3051">
<style type="text/css" id="current-color-scheme">
.ColorScheme-Text {
color:#4d4d4d;
}
</style>
</defs>
<path style="fill:currentColor" d="m 9,3 v 5 h 2 v 1 h 1 v 1 h 1 v -1 h 2 v -1 h -2 v -1 h -2 v -2 h 2 v -1 h -1 v -1 h -3 z  m 4,1 h 2 v -1 h -2 v 1 z  m 0,1 v 2 h 2 v -2 h -2 z  m 0,5 v 1 h 2 v -1 h -2 z  m 0,1 h -2 v 1 h 1 v 1 h 2 v 2 h -2 v -2 h -1 v -1 h -8 l 9,9 9,-9 h -8 v -1 z  m -2,0 v -2 h -2 v 2 h 2 z " class="ColorScheme-Text"/>
</svg>
