<svg width="24" version="1.1" xmlns="http://www.w3.org/2000/svg" viewBox="0 0 24 24" height="24">
<defs id="defs3051">
<style type="text/css" id="current-color-scheme">
.ColorScheme-Text {
color:#4d4d4d;
}
</style>
</defs>
<path style="fill:currentColor" d="m 4,2 v 20 h 16 v -20 h -16 z  m 1,1 h 14 v 18 h -14 v -18 z  m 6.6875,6 c -0.222056,-0.0024685 -0.522004,0.160231 -0.966797,0.285156 -0.992193,0.275128 -1.34282,0.0925617 -1.08398,1.10156 l .1914,.7422 c -0.06755,0.06003 -0.160962,0.131378 -0.228516,0.191406 -0.281379,0.213742 -0.503799,0.497153 -0.699219,0.767579 l -.748,-.1953 c -1.01053,-0.261962 -0.856209,0.170361 -1.11133,1.03516 -0.312709,1.01694 -0.601569,1.16703 0.421875,1.43945 l .7871,.209 c 0.017808,0.334987 0.0990548,0.67472 0.244141,1.01758 l -.6465,.5254 c -0.829174,0.674641 -0.473763,0.730515 0.123047,1.45703 0.64618,0.830996 0.612096,1.06107 1.41211,0.410156 l .6445,-.5254 c 0.467191,0.29858 1.0439,0.487519 1.60156,0.560546 l .1875,.7754 c 0.259504,1.06604 0.573308,0.667818 1.46289,0.417969 0.992192,-0.275129 1.34282,-0.092545 1.08398,-1.10156 l -.1914,-.7441 c 0.06756,-0.06003 0.160961,-0.129425 0.228516,-0.189453 0.281379,-0.213741 0.503799,-0.497154 0.699218,-0.767579 l .748,.1953 c 0.96907,0.389287 0.856202,-0.172315 1.11133,-1.03711 0.312709,-1.01694 0.601568,-1.16508 -0.421875,-1.4375 l -.7871,-.209 c -0.01781,-0.334986 -0.099059,-0.674713 -0.244141,-1.01758 l .6465,-.5254 c 0.829173,-0.674641 0.473764,-0.730518 -0.123047,-1.45703 -0.646181,-0.830996 -0.612096,-1.06107 -1.41211,-0.410156 l -.6445,.5254 c -0.46719,-0.298579 -1.04391,-0.487517 -1.60156,-0.560546 l -.1875,-.7754 c -0.129752,-0.533019 -0.274038,-0.700656 -0.496094,-0.703125 z  m .1816,3.6641 c 0.441299,-0.001166 0.882793,0.182419 1.19141,0.541016 0.522404,0.648725 0.436961,1.61844 -0.197266,2.16992 -0.645387,0.525105 -1.61151,0.440237 -2.16016,-0.197266 -0.54864,-0.637509 -0.436959,-1.61844 0.197266,-2.16992 0.282357,-0.229733 0.625517,-0.342842 0.96875,-0.34375 z " class="ColorScheme-Text"/>
</svg>
