<svg width="24" version="1.1" xmlns="http://www.w3.org/2000/svg" height="24">
<defs id="defs3051">
<style type="text/css" id="current-color-scheme">
.ColorScheme-Text {
color:#4d4d4d;
}
</style>
</defs>
<path style="fill:currentColor" d="m 3,3 v 18 h 18 v -18 h -18 z  m 9.0469,2 c 0.368337,0 0.66406,0.243874 0.664063,0.546875 v 1.28906 c 0,0.0028453 0,0.0049777 0,0.0078125 0.948444,0.273749 1.75391,1.07268 1.75391,1.86719 0,0.598631 -0.44249,1.1939 -1.07031,1.56836 l 1.0859,4.1641 h 1.76953 v 0.5 h -1.63867 l .5078,1.9473 c -0.663449,0.379479 -1.03335,1.08214 -1.11133,2.10938 l -.8711,-4.0566 h -0.703125 v 0.398438 c 0,0.16131 -0.19134,0.291016 -0.429688,0.291015 -0.238347,0 -0.429687,-0.129705 -0.429687,-0.291015 v -0.398438 h -0.714844 l -.8613,3.9961 c -0.0747495,-1.0129 -0.439253,-1.71199 -1.09375,-2.09766 0.174212,-0.667989 0.34007,-1.30045 0.496094,-1.89844 h -1.65039 v -0.5 h 1.7793 c 0.441121,-1.69051 0.805156,-3.08222 1.08984,-4.17383 -0.616172,-0.371962 -1.04883,-0.957477 -1.04883,-1.55859 0,-0.82452 0.837893,-1.61779 1.81055,-1.87695 v -1.28711 c 0,-0.303001 0.297679,-0.546875 0.666016,-0.546875 z  m -.0293,2.6543 c -0.731534,0 -1.32031,0.470476 -1.32031,1.05664 0,0.586165 0.588778,1.05859 1.32031,1.05859 0.731546,0 1.32031,-0.472429 1.32031,-1.05859 0,-0.586165 -0.588767,-1.05664 -1.32031,-1.05664 z  m -.2344,3.0039 l -.8164,3.7852 h 0.607422 v -0.412109 c 0,-0.16131 0.19134,-0.291016 0.429687,-0.291016 0.238348,0 0.429688,0.129706 0.429688,0.291016 v 0.412109 h 0.595703 l -.8105,-3.7812 c -0.065862,0.005334 -0.132857,0.007813 -0.199219,0.007813 -0.078775,0 -0.158272,-0.004362 -0.236328,-0.011719 z " class="ColorScheme-Text"/>
</svg>
