<svg width="24" version="1.1" xmlns="http://www.w3.org/2000/svg" height="24">
<defs id="defs3051">
<style type="text/css" id="current-color-scheme">
.ColorScheme-Text {
color:#4d4d4d;
}
</style>
</defs>
<path style="fill:currentColor" d="m 3,3 v 18 h 18 v -18 h -18 z  m 8,3 v 1.18359 c -1.18457,0 -1.15625,0.478336 -1.15625,2.21094 0.101669,1.27678 -0.060469,1.94498 -1.20312,2.61523 0.99842,0.5127 1.20312,0.749178 1.20312,1.58008 0.048674,1.35419 -0.464328,2.91173 1.15625,3.22656 v 1.18359 c -2.54227,0.05617 -2.44492,-2.03945 -2.47656,-3.95117 -0.0227401,-1.37391 -0.14268,-1.4043 -1.52344,-1.4043 v -1.28906 c 1.20671,0 1.52344,-0.129436 1.52344,-2.8457 0,-1.8034 0.699737,-2.50977 2.47656,-2.50977 z  m 2,0 c 1.77684,0 2.47656,0.706362 2.47656,2.50977 0.08288,2.7907 0.423805,2.8457 1.52344,2.8457 v 1.28906 c -1.12861,-0.07538 -1.48706,0.252156 -1.52344,1.4043 0.075851,2.09108 -0.048722,3.72414 -2.47656,3.95117 v -1.18359 c 1.61765,-0.112296 1.15625,-1.99885 1.15625,-3.22656 0,-0.8309 0.20471,-1.06738 1.20312,-1.58008 -1.28162,-0.523101 -1.20312,-1.44018 -1.20312,-2.61523 0,-1.7326 -0.032237,-2.21094 -1.2168,-2.21094 l .0605,-1.1836 z " class="ColorScheme-Text"/>
</svg>
