<svg width="24" version="1.1" xmlns="http://www.w3.org/2000/svg" height="24">
<path style="opacity:.22" d="M 4,4 V 22 H 22 V 4 Z"/>
<path style="fill:#ecf0f1" d="M 3,3 V 21 H 21 V 3 Z"/>
<g style="fill-rule:evenodd">
<path style="fill:#cb3300" d="m 14.828,7.5803 1.2928,3.3935 -1.9068,2.6502 1.6321,.5171 1.115,-1.616 .501,1.9068 2.23,.1778 -1.1958,-3.442 l 2.0038,-2.4724 -2.0523,-.4525 -.8403,1.2928 -.5979,-1.5837 -2.1816,-.3717 Z "/>
<path style="fill:#007fff" d="m 5.423,8.5984 -.0485,.0646 -1.8745,.8888 2.4724,5.7043 3.9591,-1.9553 -.808,-1.6645 -1.923,.9696 -1.7776,-4.0076 Z "/>
<path style="fill:#e6ae00" d="m 8.7357,9.1478 1.8745,4.0884 -.404,2.8118 2.327,.3717 .5656,-3.135 2.2947,-3.2643 -1.923,-.2747 -1.2443,1.7129 -1.0181,-1.9715 -2.4724,-.3393 Z "/>
</g>
</svg>
