<svg width="24" version="1.1" xmlns="http://www.w3.org/2000/svg" height="24">
<defs id="defs3051">
<style type="text/css" id="current-color-scheme">
.ColorScheme-Text {
color:#4d4d4d;
}
</style>
</defs>
<path style="fill:currentColor" d="m 3,3 v 18 h 18 v -18 h -18 z  m 7.666,1 h 1.66797 c 1.47735,0 2.66602,1.18867 2.66602,2.66602 v 4 c -3.73823,0 -7.33398,-0.667144 -7.33398,4 v 1.33398 c -1.47733,0 -2.66602,-1.18868 -2.66602,-2.66602 v -2.66797 c 0,-1.47733 1.18868,-2.66602 2.66602,-2.66602 h 1.33398 3 v -1.33398 h -4 c 0,-1.47735 1.18867,-2.66602 2.66602,-2.66602 z  m 0,.666 c -0.369333,0 -0.666016,0.298635 -0.666016,0.667969 0,0.369333 0.296683,0.666016 0.666016,0.666016 0.369333,0 0.667968,-0.296683 0.667968,-0.666016 0,-0.369334 -0.298635,-0.667969 -0.667968,-0.667969 z  m 2.0957,7.334 c 0.169186,0.001881 0.278094,0.129046 0.376953,0.535156 l .1445,.5918 c 0.424879,0.055642 0.862793,0.200243 1.21875,0.427735 l .4922,-.4004 c 0.609536,-0.495934 0.583841,-0.322596 1.07617,0.310547 0.45472,0.553535 0.723551,0.597315 0.091797,1.11133 l -.4902,.4004 c 0.110544,0.261233 0.171977,0.520163 0.185547,0.775391 l .5996,.1582 c 0.77977,0.20756 0.560521,0.320893 0.322266,1.0957 -0.194384,0.658894 -0.109315,1.08566 -0.847656,0.789063 l -.5703,-.1465 c -0.148891,0.206039 -0.316866,0.421133 -0.53125,0.583984 -0.051471,0.045736 -0.124311,0.098801 -0.175781,0.144531 l .1465,.5664 c 0.197211,0.768777 -0.070213,0.630221 -0.826172,0.839844 -0.67778,0.190361 -0.915563,0.493862 -1.11328,-0.318359 l -.1445,-.5918 c -0.424886,-0.05564 -0.862794,-0.200242 -1.21875,-0.427735 l -.4922,.4004 c -0.609536,0.495934 -0.583843,0.322596 -1.07617,-0.310547 -0.45471,-0.553536 -0.72355,-0.597314 -0.0917969,-1.11133 l .4902,-.4004 c -0.110544,-0.261227 -0.171977,-0.520164 -0.185547,-0.775391 l -.5996,-.1582 c -0.779769,-0.207559 -0.560521,-0.320893 -0.322266,-1.0957 0.194377,-0.658894 0.077726,-0.988653 0.847656,-0.789063 l .5703,.1465 c 0.148892,-0.206038 0.316865,-0.421134 0.53125,-0.583984 0.05147,-0.045737 0.124311,-0.098801 0.175781,-0.144531 l -.1465,-.5664 c -0.197211,-0.768772 0.070213,-0.630221 0.826172,-0.839844 0.338891,-0.095181 0.567141,-0.218678 0.736328,-0.216797 z  m .1387,2.791 c -0.261512,0 -0.523152,0.086683 -0.738282,0.261718 -0.48322,0.420177 -0.568403,1.16857 -0.15039,1.6543 0.418017,0.485718 1.15476,0.550473 1.64648,0.150391 0.483224,-0.420176 0.548413,-1.16003 0.150391,-1.6543 -0.235135,-0.273218 -0.571974,-0.412998 -0.908203,-0.412109 z " class="ColorScheme-Text"/>
</svg>
