<svg width="24" version="1.1" xmlns="http://www.w3.org/2000/svg" height="24">
<defs id="defs3051">
<style type="text/css" id="current-color-scheme">
.ColorScheme-Text {
color:#4d4d4d;
}
</style>
</defs>
<path style="ffill:currentColor;fill-opacity:1;stroke:none" id="rect5233" d="m 8,4 v 1 10.5039 a 2.5,2.5 0 0,0 -1.5,-0.503906 2.5,2.5 0 0,0 -2.5,2.5 2.5,2.5 0 0,0 2.5,2.5 2.5,2.5 0 0,0 2.5,-2.5 v -9.5 h 10 v 5.50391 a 2.5,2.5 0 0,0 -1.5,-0.503906 2.5,2.5 0 0,0 -2.5,2.5 2.5,2.5 0 0,0 2.5,2.5 2.5,2.5 0 0,0 2.5,-2.5 v -10.5 -0.5 -0.5 h -11 -1 Z  m 1,1 h 10 v 2 h -10 Z " class="ColorScheme-Text"/>
</svg>
