<svg width="24" version="1.1" xmlns="http://www.w3.org/2000/svg" height="24">
<defs id="defs3051">
<style type="text/css" id="current-color-scheme">
.ColorScheme-Text {
color:#4d4d4d;
}
</style>
</defs>
<path style="fill:currentColor" d="m 3,3 v 18 h 18 v -18 h -18 z  m 8.6426,3 c 0.25378,0.0028213 0.418118,0.193568 0.566406,0.802734 l .2148,.8867 c 0.637319,0.0834625 1.29614,0.299388 1.83008,0.640625 l .7383,-.5996 c 0.914304,-0.743901 0.874786,-0.482916 1.61328,0.466797 0.682073,0.830304 1.0863,0.896949 0.138672,1.66797 l -.7363,.5996 c 0.165816,0.391848 0.258937,0.779265 0.279297,1.16211 l .8965,.2383 c 1.16965,0.311339 0.841758,0.482317 0.484375,1.64453 -0.291574,0.988341 -0.162018,1.62849 -1.26953,1.18359 l -.8555,-.2207 c -0.223337,0.309058 -0.477251,0.630724 -0.798828,0.875 -0.077205,0.068604 -0.184519,0.15014 -0.261719,0.21875 l .2188,.8496 c 0.295816,1.15317 -0.104342,0.94533 -1.23828,1.25977 -1.01667,0.285542 -1.3753,0.739818 -1.67188,-0.478515 l -.2148,-.8867 c -0.637327,-0.08346 -1.29614,-0.299389 -1.83008,-0.640625 l -.7383,.5996 c -0.914304,0.743901 -0.874787,0.482916 -1.61328,-0.466797 -0.682071,-0.830306 -1.0863,-0.896947 -0.138672,-1.66797 l .7363,-.5996 c -0.165816,-0.391838 -0.258939,-0.779267 -0.279297,-1.16211 l -.8965,-.2383 c -1.16965,-0.311339 -0.841758,-0.482317 -0.484375,-1.64453 0.291565,-0.98834 0.114636,-1.48298 1.26953,-1.18359 l .8555,.2207 c 0.223338,-0.309059 0.477251,-0.630723 0.798828,-0.875 0.0772045,-0.0686048 0.184514,-0.150145 0.261719,-0.21875 l -.2188,-.8496 c -0.295817,-1.15315 0.104343,-0.945332 1.23828,-1.25977 0.508337,-0.142772 0.85169,-0.32704 1.10547,-0.324219 z  m .209,4.1875 c -0.392267,0.001037 -0.784727,0.130024 -1.10742,0.392578 -0.724832,0.630265 -0.851629,1.75189 -0.22461,2.48047 0.627024,0.728578 1.72921,0.826684 2.4668,0.226562 0.724834,-0.630265 0.823597,-1.74102 0.226563,-2.48242 -0.352702,-0.409827 -0.856984,-0.618522 -1.36133,-0.617188 z " class="ColorScheme-Text"/>
</svg>
