<svg width="24" version="1.1" xmlns="http://www.w3.org/2000/svg" height="24">
<defs id="defs3051">
<style type="text/css" id="current-color-scheme">
.ColorScheme-Text {
color:#4d4d4d;
}
</style>
</defs>
<path style="fill:currentColor;fill-opacity:1;stroke:none" d="m 3,3 .0039,3.3117 6.8066,8.1875 c 0,0 1.49278,1.74045 3.25586,2.80742 1.31241,0.793023 2.64396,0.716939 3.82848,-0.18568 0.883063,-0.671901 1.11584,-1.80634 0.884413,-2.90221 -0.484097,-2.33865 -2.95508,-4.7793 -2.95508,-4.7793 l -3.3789,-4.084 c -0.239794,-0.494541 0.101094,-1.07243 0.40625,-1.07573 0.04359,0 0.08661,0.00481 0.126954,0.015625 0.231423,0.066289 0.33789,0.193359 0.33789,0.193359 l 2.9395,3.541 c 0,0 2.89337,2.90258 3.60895,5.54984 0.498331,1.94886 0.169438,3.70312 -1.04825,4.68193 -1.5406,1.23838 -3.55001,1.34804 -5.12125,0.431013 -2.00668,-1.17657 -3.63086,-3.12413 -3.63086,-3.12413 l -6.0645,-7.4063 v 12.8379 h 18 v -18 h -13.0508 l 2.9824,3.6699 c 0,0 2.771,3.32145 4.40923,5.28528 2.89279,3.47775 -0.429847,5.65084 -3.1582,3.16506 -0.928735,-0.839139 -2.919,-3.05776 -2.919,-3.05776 l -3.4277,-4.1934 c 0,0 -0.261676,-0.247251 -0.185547,-0.503906 0.103535,-0.331813 0.60213,-0.819386 1.02539,-0.268607 l 3.3887,4.1328 c 0,0 2.25816,2.79799 3.71978,3.53627 0.86466,0.443519 2.26245,-0.209311 0.876953,-1.83395 -1.68086,-2.02435 -4.78618,-5.66127 -4.78618,-5.66127 l -3.1582,-3.5859 .0547,-.6846 z " class="ColorScheme-Text"/>
</svg>
