<svg width="24" version="1.0" xmlns="http://www.w3.org/2000/svg" viewBox="0 0 24 24" height="24">
<defs id="defs3051">
<style type="text/css" id="current-color-scheme">
.ColorScheme-Text {
color:#4d4d4d;
}
</style>
</defs>
<path style="fill:currentColor" d="m 3,3 v 18 h 18 v -18 h -18 z  m 14,2 a 2,2 0 0,1 2,2 2,2 0 0,1 -2,2 2,2 0 0,1 -1.90234,-1.39258 c -0.397899,0.001071 -0.810278,0.0094316 -1.23047,0.0351562 -1.02927,0.063012 -2.0712,0.220618 -2.83984,0.503906 -0.76865,0.283288 -1.18374,0.642415 -1.30664,1.06445 -0.05289,0.181645 -0.0389825,0.265671 0.0234375,0.400391 0.0493301,0.106466 0.15152,0.241424 0.308593,0.388672 h 3.94727 v 2.19141 c 0.267958,0.16136 0.523359,0.334687 0.757812,0.525391 0.349244,0.284073 0.661631,0.61619 0.859376,1.04297 0.197746,0.426779 0.248318,0.953909 0.103515,1.45117 -0.306714,1.05327 -1.23107,1.68245 -2.23047,2.05078 -1,0.368332 -2.15425,0.52559 -3.26758,0.59375 -0.495346,0.030326 -0.979608,0.037684 -1.43945,0.037109 a 2,2 0 0,1 -1.7832,1.10742 2,2 0 0,1 -2,-2 2,2 0 0,1 2,-2 2,2 0 0,1 1.90625,1.39453 c 0.396729,-0.001131 0.807739,-0.009515 1.22656,-0.035156 1.02927,-0.063012 2.07119,-0.222571 2.83984,-0.505859 0.76865,-0.283288 1.18374,-0.640462 1.30664,-1.0625 0.05289,-0.181645 0.038982,-0.265671 -0.023438,-0.400391 -0.04933,-0.106466 -0.151519,-0.242866 -0.308593,-0.390625 h -3.94727 v -2.19336 c -0.267386,-0.161382 -0.523816,-0.333106 -0.757812,-0.523438 -0.349242,-0.284073 -0.66163,-0.614238 -0.859375,-1.04101 -0.197745,-0.42678 -0.248319,-0.95391 -0.103516,-1.45117 0.306714,-1.05327 1.23107,-1.68245 2.23047,-2.05078 1,-0.368332 2.1523,-0.527543 3.26562,-0.595703 0.496035,-0.0303679 0.98085,-0.039822 1.44141,-0.0390624 a 2,2 0 0,1 1.7832,-1.10547 z " class="ColorScheme-Text"/>
</svg>
