<svg width="24" version="1.0" xmlns="http://www.w3.org/2000/svg" viewBox="0 0 24 24" height="24">
<defs id="defs3051">
<style type="text/css" id="current-color-scheme">
.ColorScheme-Text {
color:#4d4d4d;
}
</style>
</defs>
<path style="fill:currentColor" d="m 3,3 v 18 h 18 v -18 h -18 z  m 14,2 a 2,2 0 0,1 2,2 2,2 0 0,1 -2,2 2,2 0 0,1 -1.98438,-1.77344 c -0.519044,-0.0677458 -1.07559,-0.125698 -1.63867,-0.160156 -1.13715,-0.0695873 -2.29682,-0.0353562 -3.16211,0.175781 -0.865288,0.211138 -1.34019,0.540174 -1.50781,1.00977 -0.101517,0.28439 -0.0852267,0.447364 0.0097657,0.662109 0.0949924,0.214745 0.31036,0.478361 0.648438,0.751953 0.181596,0.146959 0.396532,0.295406 0.634766,0.443359 v -0.109375 h 4 v 2.1543 c 0.573142,0.307238 1.11394,0.638029 1.57812,1.01367 0.451542,0.365415 0.84262,0.782565 1.07617,1.31055 0.233548,0.527981 0.268177,1.16989 0.052734,1.77344 -0.395478,1.10789 -1.45111,1.6927 -2.56641,1.96484 -1.11529,0.272144 -2.3873,0.289624 -3.60938,0.214844 -0.684404,-0.041882 -1.34849,-0.116961 -1.95898,-0.201172 a 2,2 0 0,1 -1.57227,0.769531 2,2 0 0,1 -2,-2 2,2 0 0,1 2,-2 2,2 0 0,1 1.98633,1.77344 c 0.518511,0.067641 1.07431,0.125739 1.63672,0.160156 1.13715,0.069587 2.29682,0.035356 3.16211,-0.175782 0.865288,-0.211137 1.34019,-0.540174 1.50781,-1.00977 0.101483,-0.28439 0.085224,-0.447365 -0.009766,-0.662109 -0.094992,-0.214747 -0.31036,-0.478361 -0.648437,-0.751954 -0.181597,-0.146958 -0.396533,-0.295406 -0.634766,-0.443359 v 0.109375 h -4 v -2.1543 c -0.573142,-0.307238 -1.11394,-0.638029 -1.57812,-1.01367 -0.451542,-0.365415 -0.842619,-0.782565 -1.07617,-1.31055 -0.233552,-0.527981 -0.268177,-1.1699 -0.0527343,-1.77344 0.395478,-1.10789 1.45111,-1.6927 2.56641,-1.96484 1.11529,-0.272141 2.3873,-0.289629 3.60938,-0.214844 0.684404,0.0418818 1.34849,0.116961 1.95898,0.201172 a 2,2 0 0,1 1.57227,-0.769531 z " class="ColorScheme-Text"/>
</svg>
