<svg width="24" version="1.0" xmlns="http://www.w3.org/2000/svg" viewBox="0 0 24 24" height="24">
<defs id="defs3051">
<style type="text/css" id="current-color-scheme">
.ColorScheme-Text {
color:#4d4d4d;
}
</style>
</defs>
<path style="fill:currentColor" d="m 3,3 v 18 h 18 v -18 h -18 z  m 14,2 a 2,2 0 0,1 2,2 2,2 0 0,1 -2,2 2,2 0 0,1 -1.85547,-1.26758 c -0.229812,0.0130058 -0.464405,0.0300782 -0.701172,0.0527343 -0.897483,0.0858801 -1.81163,0.254052 -2.50391,0.521484 -0.692277,0.267431 -1.10297,0.609801 -1.24023,0.964844 -0.096952,0.250774 -0.057991,0.408983 0.189453,0.728516 h 3.11133 v 2.72852 c 0.068837,0.074598 0.135251,0.150174 0.199219,0.228515 0.48869,0.598508 0.827225,1.46805 0.5,2.31445 -0.35833,0.926859 -1.19701,1.47434 -2.09766,1.82227 -0.900643,0.347925 -1.92373,0.521594 -2.90234,0.615234 -0.291787,0.027921 -0.577972,0.045937 -0.857422,0.060547 a 2,2 0 0,1 -1.8418,1.23047 2,2 0 0,1 -2,-2 2,2 0 0,1 2,-2 2,2 0 0,1 1.85938,1.26758 c 0.228508,-0.012979 0.461907,-0.030213 0.697266,-0.052734 0.897483,-0.08588 1.81358,-0.252099 2.50586,-0.519532 0.692277,-0.267431 1.10102,-0.6098 1.23828,-0.964843 0.096887,-0.250606 0.057543,-0.411085 -0.189453,-0.730469 h -3.11133 v -2.72852 c -0.068853,-0.074613 -0.135237,-0.150157 -0.199219,-0.228515 -0.48869,-0.598508 -0.827225,-1.4661 -0.5,-2.3125 0.35833,-0.926859 1.19701,-1.47629 2.09766,-1.82422 0.900643,-0.347925 1.92373,-0.519641 2.90234,-0.613281 0.292478,-0.0279879 0.577352,-0.0478085 0.857422,-0.0625 a 2,2 0 0,1 1.8418,-1.23047 z " class="ColorScheme-Text"/>
</svg>
