<svg width="24" version="1.1" xmlns="http://www.w3.org/2000/svg" height="24">
<defs id="defs3051">
<style type="text/css" id="current-color-scheme">
.ColorScheme-Text {
color:#4d4d4d;
}
</style>
</defs>
<path style="fill:currentColor;fill-opacity:1" d="m 3,3 v 18 h 18 v -18 h -18 z  m 6,4 h 2 v 4.13086 c 0.38366,-0.46418 0.791633,-0.805557 1.22266,-1.02344 0.431024,-0.222617 0.90743,-0.359319 1.42774,-0.332031 0.773824,0.040584 1.23186,0.352243 1.65039,0.84375 0.479299,0.562873 0.69922,1.38379 0.699219,2.45898 v 3.92188 h -2 v -2.77148 c 0,-0.696271 -0.046699,-1.19145 -0.099609,-1.43359 -0.0529,-0.242146 -0.132041,-0.45254 -0.207032,-0.576172 -0.100264,-0.165301 -0.235733,-0.294772 -0.40625,-0.384766 -0.170514,-0.09473 -0.36415,-0.140625 -0.582031,-0.140625 -0.530491,0 -0.946862,0.20511 -1.25,0.617188 -0.303139,0.407341 -0.455078,0.974529 -0.455078,1.69922 v 2.99023 h -2 v -10 z " class="ColorScheme-Text"/>
</svg>
