<svg width="24" version="1.1" xmlns="http://www.w3.org/2000/svg" height="24">
<defs id="defs3051">
<style type="text/css" id="current-color-scheme">
.ColorScheme-Text {
color:#4d4d4d;
}
</style>
</defs>
<path style="fill:currentColor" d="m 3,3 v 18 h 18 v -18 h -18 z  m 7.666,1 h 1.66797 c 1.47735,0 2.66602,1.18867 2.66602,2.66602 v 4 c -3.73823,0 -7.33398,-0.667144 -7.33398,4 v 1.33398 c -1.47733,0 -2.66602,-1.18868 -2.66602,-2.66602 v -2.66797 c 0,-1.47733 1.18868,-2.66602 2.66602,-2.66602 h 1.33398 3 v -1.33398 h -4 c 0,-1.47735 1.18867,-2.66602 2.66602,-2.66602 z  m 0,.666 c -0.369333,0 -0.666016,0.298635 -0.666016,0.667969 0,0.369333 0.296683,0.666016 0.666016,0.666016 0.369333,0 0.667968,-0.296683 0.667968,-0.666016 0,-0.369334 -0.298635,-0.667969 -0.667968,-0.667969 z  m 5.668,3.334 c 1.47733,0 2.66602,1.18868 2.66602,2.66602 v 2.66797 c 0,1.47733 -1.18868,2.66602 -2.66602,2.66602 h -4.33398 v 1.33398 h 4 c 0,1.47733 -1.18867,2.66602 -2.66602,2.66602 h -1.66797 c -1.47735,0 -2.66602,-1.18868 -2.66602,-2.66602 v -4 c 3.80265,0 7.33398,0.641777 7.33398,-4 v -1.33398 z  m -3,10 c -0.369333,0 -0.667968,0.296683 -0.667968,0.666016 0,0.369333 0.298635,0.667968 0.667968,0.667968 0.369333,0 0.666016,-0.298635 0.666016,-0.667968 0,-0.369333 -0.296683,-0.666016 -0.666016,-0.666016 z " class="ColorScheme-Text"/>
</svg>
