<svg width="24" version="1.1" xmlns="http://www.w3.org/2000/svg" height="24">
<path style="opacity:.22" d="M 4,4 V 22 H 22 V 4 Z"/>
<path style="fill:#ecf0f1" d="M 3,3 V 21 H 21 V 3 Z"/>
<path style="fill:#1793d1" d="m 12,4.749 c 1.32753,3.11563 1.64277,4.08755 5.51439,11.2961 -0.489584,-0.293815 -1.12639,-0.55453 -2.00342,-0.782453 1.27614,0.65509 1.90097,1.25249 2.49963,1.71718 0.380824,0.706164 0.793489,1.44827 1.2402,2.27076 -2.26477,-1.30735 -4.02639,-2.12101 -5.66698,-2.44225 0.05454,-0.246842 0.08859,-0.524579 0.09552,-0.801369 0.03657,-1.47159 -0.676843,-2.72819 -1.58256,-2.80479 -0.906662,-0.07692 -1.68092,1.06618 -1.71717,2.53777 v 0.07629 c -0.0029,0.34583 0.04319,0.666755 0.114436,0.97318 -1.65885,0.312101 -3.44696,1.13585 -5.74324,2.46148 2.92207,-5.2505 4.36623,-7.98533 5.28553,-9.90298 0.481073,0.404468 1.13617,0.794749 2.07972,1.18314 -0.877659,-0.613793 -1.42966,-1.15508 -1.87007,-1.62197 0.718142,-1.53433 1.11031,-2.57813 1.75532,-4.15974"/>
</svg>
