<svg width="24" version="1.1" xmlns="http://www.w3.org/2000/svg" height="24">
<defs id="defs3051">
<style type="text/css" id="current-color-scheme">
.ColorScheme-Text {
color:#4d4d4d;
}
</style>
</defs>
<path style="fill:currentColor;fill-opacity:1" d="m 3,3 v 18 h 18 v -18 h -18 z  m 13,3 h 1 v 2 h 2 v 1 h -2 v 2 h -1 v -2 h -2 v -1 h 2 v -2 z  m -10,1 h 2 v 4.13086 c 0.38366,-0.464178 0.791633,-0.805557 1.22266,-1.02344 0.431024,-0.222617 0.90743,-0.359319 1.42773,-0.332031 0.773825,0.0405835 1.23186,0.352243 1.65039,0.84375 0.479299,0.562872 0.699221,1.38379 0.699219,2.45898 v 3.92188 h -2 v -2.77148 c 0,-0.696269 -0.046699,-1.19145 -0.099609,-1.43359 -0.052904,-0.242146 -0.132042,-0.45254 -0.207032,-0.576172 -0.100265,-0.1653 -0.235735,-0.294776 -0.40625,-0.384766 -0.170514,-0.094725 -0.36415,-0.140625 -0.582031,-0.140625 -0.530492,0 -0.946862,0.20511 -1.25,0.617188 -0.303133,0.40734 -0.455078,0.97453 -0.455078,1.69922 v 2.99023 h -2 v -10 z  m 10,6 h 1 v 2 h 2 v 1 h -2 v 2 h -1 v -2 h -2 v -1 h 2 v -2 z " class="ColorScheme-Text"/>
</svg>
