<svg width="24" version="1.1" xmlns="http://www.w3.org/2000/svg" height="24">
<defs id="defs3051">
<style type="text/css" id="current-color-scheme">
.ColorScheme-Text {
color:#4d4d4d;
}
</style>
</defs>
<path style="fill:currentColor" d="M 3,3 V 21 H 21 V 3 Z m 7.666,1 h 1.66797 c 1.47735,0 2.66602,1.18867 2.66602,2.66602 V 9.03151 C 15,11 13,11 12.27699,11 9,11.002711 8,11 8,14.66602 V 16 C 6.52267,16 5,15 5,13.33398 v -2.66797 c 0,-1.47733 1.18868,-2.66602 2.66602,-2.66602 h 1.33398 3 V 6.66601 h -4 c 0,-1.47735 1.18867,-2.66602 2.66602,-2.66602 z m 0,0.666 c -0.369333,0 -0.666016,0.298635 -0.666016,0.667969 0,0.369333 0.296683,0.666016 0.666016,0.666016 0.369333,0 0.667968,-0.296683 0.667968,-0.666016 C 11.333968,4.964635 11.035333,4.666 10.666,4.666 Z M 16,8 c 1.47733,0 3,0.9535346 3,2.66602 v 2.66797 c 0,1.47733 -1.18868,2.66602 -2.66602,2.66602 h -4.33398 v 1.33398 h 4 c 0,1.47733 -1.18867,2.66602 -2.66602,2.66602 h -1.66797 c -1.47735,0 -2.66602,-1.18868 -2.66602,-2.66602 V 14.971995 C 9,13 11,13 11.750187,13 15,13 16,13 16,9.33399 V 8 Z M 13.334,18 c -0.369333,0 -0.667968,0.296683 -0.667968,0.666016 0,0.369333 0.298635,0.667968 0.667968,0.667968 0.369333,0 0.666016,-0.298635 0.666016,-0.667968 C 14,18.296683 13.703333,18 13.334,18 Z" class="ColorScheme-Text"/>
</svg>
