<svg width="24" version="1.1" xmlns="http://www.w3.org/2000/svg" height="24">
<defs id="defs3051">
<style type="text/css" id="current-color-scheme">
.ColorScheme-Text {
color:#4d4d4d;
}
</style>
</defs>
<path style="fill:currentColor" d="m 3,3 v 18 h 18 v -18 h -18 z  m 4.5117,4.0703 h 0.859375 v 1.20508 c 0.740426,0.0592348 1.43545,0.181808 2.12891,0.367188 v 1.34766 c -0.612356,-0.257189 -1.33611,-0.458799 -2.12891,-0.498047 v 1.52344 c 1.4273,0.262491 2.60742,0.52874 2.60742,2.20898 0,1.60331 -1.31344,2.02237 -2.60742,2.0957 v 1.60938 h -0.859375 l -.0059,-1.5977 c -0.886613,-0.035465 -1.71253,-0.198857 -2.49609,-0.488281 v -1.39258 c 0.771422,0.395773 1.57356,0.63923 2.50195,0.669922 v -1.65039 l -.1758,-.0332 c -1.67194,-0.293815 -2.33594,-0.878804 -2.33594,-2.07617 0,-1.31352 0.960454,-2.00318 2.50586,-2.06445 l .0059,-1.2266 z  m 9.041,.1914 c 0.8792,0 1.69102,0.197454 2.44727,0.589844 v 1.64062 c -0.703871,-0.48021 -1.42356,-0.75 -2.2832,-0.75 -1.42544,0 -2.3457,0.943651 -2.3457,2.63477 0,1.67559 0.915019,2.62695 2.3457,2.62695 0.800625,0 1.51628,-0.224819 2.2832,-0.748047 v 1.64062 c -0.608536,0.315749 -1.43188,0.589844 -2.44727,0.589844 -1.32019,0 -2.36708,-0.369276 -3.13867,-1.10547 -0.771585,-0.739732 -1.15625,-1.74034 -1.15625,-3.00391 0,-1.2671 0.384665,-2.26967 1.15625,-3.00586 0.771588,-0.739732 1.81848,-1.10938 3.13867,-1.10938 z  m -9.041,2.2461 c -0.487664,0.027474 -0.828125,0.279872 -0.828125,0.667969 0,0.488917 0.374506,0.664455 0.828125,0.716797 v -1.38477 z  m .8594,3.1152 v 1.47656 c 0.385185,-0.0044 0.923828,-0.09698 0.923828,-0.705078 0,-0.46271 -0.249032,-0.699697 -0.923828,-0.771484 z " class="ColorScheme-Text"/>
</svg>
