<svg width="24" version="1.1" xmlns="http://www.w3.org/2000/svg" height="24">
<defs id="defs3051">
<style type="text/css" id="current-color-scheme">
.ColorScheme-Text {
color:#4d4d4d;
}
</style>
</defs>
<path style="fill:currentColor" d="m 3,3 v 18 h 18 v -18 h -18 z  m 11.1211,1.2227 l 5.6562,5.6562 -9.8984,9.8984 -5.6562,-5.6562 9.8984,-9.8984 z  m -.5293,1.9434 l -1.0605,1.0605 1.0605,1.0605 1.0605,-1.0605 -1.0605,-1.0605 z  m 1.5898,1.5918 l -1.0605,1.0605 1.0605,1.0605 1.0605,-1.0605 -1.0605,-1.0605 z  m -3.7129,.5293 l -1.0605,1.0605 1.0605,1.0605 1.0605,-1.0605 -1.0605,-1.0605 z  m 5.3047,1.0605 l -1.0605,1.0605 1.0605,1.0605 1.0605,-1.0605 -1.0605,-1.0605 z  m -3.7109,.5312 l -1.0625,1.0605 1.0625,1.0625 1.0605,-1.0625 -1.0605,-1.0605 z  m -3.7148,.5293 l -1.0605,1.0605 1.0605,1.0605 1.0605,-1.0605 -1.0605,-1.0605 z  m 5.3047,1.0605 l -1.0605,1.0605 1.0605,1.0605 1.0605,-1.0605 -1.0605,-1.0605 z  m -3.7129,.5312 l -1.0605,1.0605 1.0605,1.0605 1.0605,-1.0605 -1.0605,-1.0605 z  m -3.7129,.5312 l -1.0605,1.0605 1.0605,1.0605 1.0605,-1.0605 -1.0605,-1.0605 z  m 5.3047,1.0605 l -1.0605,1.0605 1.0605,1.0605 1.0605,-1.0605 -1.0605,-1.0605 z  m -3.7129,.5293 l -1.0605,1.0605 1.0605,1.0605 1.0605,-1.0605 -1.0605,-1.0605 z  m 1.5898,1.5918 l -1.0605,1.0605 1.0605,1.0605 1.0605,-1.0605 -1.0605,-1.0605 z " class="ColorScheme-Text"/>
</svg>
