<svg width="24" version="1.1" xmlns="http://www.w3.org/2000/svg" height="24">
<defs id="defs3051">
<style type="text/css" id="current-color-scheme">
.ColorScheme-Text {
color:#4d4d4d;
}
</style>
</defs>
<path style="fill:currentColor" d="m 3,3 v 18 h 18 v -18 h -18 z  m 1,2 h 2 v 2 h -2 v -2 z  m 3,0 h 10 v 6 h -10 v -6 z  m 11,0 h 2 v 2 h -2 v -2 z  m -14,3 h 2 v 2 h -2 v -2 z  m 14,0 h 2 v 2 h -2 v -2 z  m -14,3 h 2 v 2 h -2 v -2 z  m 14,0 h 2 v 2 h -2 v -2 z  m -11,2 h 10 v 6 h -10 v -6 z  m -3,1 h 2 v 2 h -2 v -2 z  m 14,0 h 2 v 2 h -2 v -2 z  m -14,3 h 2 v 2 h -2 v -2 z  m 14,0 h 2 v 2 h -2 v -2 z " class="ColorScheme-Text"/>
</svg>
