<svg width="24" version="1.1" xmlns="http://www.w3.org/2000/svg" height="24">
<defs id="defs3051">
<style type="text/css" id="current-color-scheme">
.ColorScheme-Text {
color:#4d4d4d;
}
</style>
</defs>
<path style="fill:currentColor;fill-opacity:1;stroke:none" id="path845" d="m 3,3 v 18 h 18 v -18 h -18 z  m 1,1 h 1 v 1 h -1 v -1 z  m 2,0 h 12 v 7 h -12 v -7 z  m 13,0 h 1 v 1 h -1 v -1 z  m -15,3 h 1 v 1 h -1 v -1 z  m 15,0 h 1 v 1 h -1 v -1 z  m -15,3 h 1 v 1 h -1 v -1 z  m 15,0 h 1 v 1 h -1 v -1 z  m -15,3 h 1 v 1 h -1 v -1 z  m 2,0 h 12 v 7 h -12 v -7 z  m 13,0 h 1 v 1 h -1 v -1 z  m -15,3 h 1 v 1 h -1 v -1 z  m 15,0 h 1 v 1 h -1 v -1 z  m -15,3 h 1 v 1 h -1 v -1 z  m 15,0 h 1 v 1 h -1 v -1 z " class="ColorScheme-Text"/>
</svg>
