<svg width="22" version="1.0" xmlns="http://www.w3.org/2000/svg" height="22">
<path style="opacity:.6;fill:#fff" d="m 10.9971,1.2822 c -0.788192,0 -1.59119,0.302352 -2.19693,0.9081 h -0.00244 l -6.8813,6.8913 c -0.587851,0.587861 -0.903442,1.3664 -0.915385,2.15064 v 0.0024 c 0,0.03424 0,0.0452 0,0.04394 -0.0401798,0.868267 1.08542,1.35855 1.33768,1.45735 0.414119,0.162195 0.882922,0.301587 1.34989,0.436962 0.023403,0.0068 0.0401,0.01278 0.063466,0.01953 -0.165392,0.132102 -0.361168,0.270182 -0.473559,0.654222 -0.133795,0.457178 0.1,1.06178 0.356389,1.31821 0.416718,0.416736 0.773013,0.519938 1.1839,0.678635 0.410884,0.158695 0.85968,0.301119 1.29374,0.439403 0.33836,0.107787 0.631381,0.206674 0.908061,0.30514 -0.077475,0.09827 -0.138944,0.121113 -0.217251,0.275848 -0.103304,0.204123 -0.200562,0.50572 -0.161108,0.854395 0.039454,0.348674 0.229026,0.678207 0.436943,0.886129 0.448392,0.448421 0.921275,0.51204 1.26201,0.56146 0.224663,0.03259 0.360187,0.04165 0.515057,0.05614 l -.0684,.2954 .4419,.4419 c 0.727545,0.727576 1.72855,0.838956 2.58017,0.715249 0.851606,-0.1237 1.66004,-0.47157 2.34826,-0.964244 l .0732,-.0538 .0659,-.0659 c 0.165199,-0.165211 0.35779,-0.394397 0.42962,-0.773839 0.04483,-0.236736 -0.08084,-0.437519 -0.163548,-0.656662 0.119275,-0.05215 0.0811,-0.03695 0.227014,-0.09765 0.653506,-0.271831 1.51541,-0.713143 2.27259,-1.56476 l .5688,-.6371 -.4614,-.7178 c -0.216512,-0.336736 -0.405057,-0.350888 -0.641991,-0.529725 0.663904,-0.144195 1.53494,-0.342479 2.72663,-0.883688 0.694253,-0.315318 1.20787,-0.66628 1.50611,-1.21812 0.296545,-0.548702 0.234217,-1.05398 0.231894,-1.23521 v -0.0073 l .0025,-.0269 -.0025,-.022 c -0.01188,-0.785026 -0.336557,-1.55957 -0.915385,-2.13841 l -6.891,-6.8913 c -0.574289,-0.574321 -1.36235,-0.9081 -2.15054,-0.9081 Z "/>
<path d="m 19.4346,15.1369 c -0.178727,-0.0057 -0.347864,0.01225 -0.475001,0.04399 -0.2397,0.0599 -1.40416,0.0875 -1.31065,0.835654 1.02876,0.3739 2.61909,0.660253 2.80604,-0.08796 0.140327,-0.561014 -0.484194,-0.774491 -1.02038,-0.791673 z "/>
<path d="m 5.4608,16.5724 c -0.167729,-0.01955 -0.331824,0 -0.492257,0.08205 -0.641571,0.323618 -1.0734,1.04267 -0.474023,1.34004 0.599436,0.297371 1.02421,-0.04123 1.5497,-0.410211 0.525549,-0.368932 0.550057,-0.457237 0.474027,-0.583417 -0.12047,-0.2 -0.554253,-0.369803 -1.05744,-0.428447 Z "/>
<path d="m 17.2432,16.7963 c -0.488843,0.195491 -0.483098,0.874627 -0.09196,1.16787 0.391045,0.293298 0.880467,0.103587 1.07591,-0.09196 0.195602,-0.19549 -0.0064,-0.880411 -0.983948,-1.07591 z "/>
<path d="m 10.9981,2.4074 c -0.505954,0 -1.01536,0.190483 -1.40306,0.578181 l -6.8843,6.892 c -0.38,0.38 -0.578343,0.876315 -0.585894,1.37218 0,0.0083 0,0.02256 0,0.03088 l .0095,.0149 c 0.131889,0.501801 3.54199,1.12358 3.92217,1.50379 0.574187,0.57419 -2.2008,0.998468 -1.62661,1.57266 0.574187,0.574187 3.47304,1.10639 4.04725,1.68059 0.574191,0.574191 -1.1755,1.18349 -0.601309,1.75768 0.574187,0.574198 2.5,-0.140904 2.15084,1.3568 0.775399,0.775401 2.39359,0.405362 3.4768,-0.370035 0.574183,-0.574191 -1.09841,-0.520512 -0.52422,-1.0947 0.57419,-0.574194 2.02429,-0.576891 3.24554,-1.9504 -0.491575,-0.764506 -2.1006,-1.09098 -1.5264,-1.66516 0.574183,-0.574187 1.68485,-0.286058 4.09354,-1.37994 1.17582,-0.534014 1.08378,-0.934424 1.07927,-1.42619 0,-0.01035 0,-0.0204 0,-0.03083 v -0.01262 c -0.0075,-0.495862 -0.206219,-0.979595 -0.586212,-1.35958 l -6.892,-6.892 c -0.387697,-0.3877 -0.851125,-0.578181 -1.35708,-0.578181 Z "/>
<g style="fill:#fff">
<path d="m 11.1397,4.0994 c 0.678321,0.102371 3.11068,3.04625 3.93527,3.62437 0.824593,0.578117 0.631209,0.957283 0.631209,0.993427 l -2.2584,-.9841 -.1233,1.505 -1.2765,-.6013 -1.6668,1.1828 -.7585,-2.59 -.962,2.2663 -2.6293,.2953 .0277,-1.2025 3.9224,-3.9686 c 0.286533,-0.28991 0.58863,-0.606476 1.15801,-0.520548 Z "/>
<path d="m 7.3392,12.9737 c 1.35253,0.350765 3.7865,0.975883 4.99383,0.984106 l .048,1.1781 c -1.03385,-0.10657 -3.62433,-0.733312 -4.1401,-0.996792 Z "/>
</g>
</svg>
