<svg width="22" version="1.0" xmlns="http://www.w3.org/2000/svg" height="22" xmlns:xlink="http://www.w3.org/1999/xlink">
<defs>
<linearGradient id="linearGradient3770">
<stop offset="0" style="stop-color:#ffda7d"/>
<stop offset="0.3" style="stop-color:#ffda7d"/>
<stop offset="0.3" style="stop-color:#ffc941"/>
<stop offset="0.68" style="stop-color:#ffc941"/>
<stop offset="0.68" style="stop-color:#dc9e00"/>
<stop offset="1" style="stop-color:#dc9e00"/>
</linearGradient>
<linearGradient id="linearGradient6">
<stop offset="0" style="stop-color:#b25c00"/>
<stop offset="1" style="stop-color:#fa8600"/>
</linearGradient>
<linearGradient id="linearGradient9">
<stop offset="0" style="stop-color:#bababa"/>
<stop offset="1" style="stop-color:#e3e3e3"/>
</linearGradient>
<linearGradient id="linearGradient13">
<stop offset="0" style="stop-color:#dbc457"/>
<stop offset="1" style="stop-color:#f0da94"/>
</linearGradient>
<linearGradient id="linearGradient869">
<stop offset="0" style="stop-color:#666"/>
<stop offset="1"/>
</linearGradient>
<linearGradient gradientTransform="matrix(0.47799828,0,0,0.47799828,1.3673396,0.54187068)" xlink:href="#linearGradient9" id="linearGradient12" y1="21.217579" x1="34.573826" y2="13.371971" x2="26.778454" gradientUnits="userSpaceOnUse"/>
<linearGradient gradientTransform="matrix(0.47799828,0,0,0.47799828,1.3673396,0.54187068)" xlink:href="#linearGradient6" id="linearGradient8" y1="17.639959" x1="38.194466" y2="10" x2="30.600706" gradientUnits="userSpaceOnUse"/>
<linearGradient gradientTransform="matrix(0.33711691,0.33887246,-0.33887246,0.33711691,7.3538928,-9.6774989)" xlink:href="#linearGradient869" id="linearGradient871" y1="44.033699" x1="37.169601" y2="44.038601" x2="43.229599" gradientUnits="userSpaceOnUse"/>
<linearGradient gradientTransform="matrix(0.33711691,0.33887246,-0.33887246,0.33711691,7.0633666,-9.1541323)" xlink:href="#linearGradient3770" id="linearGradient3849" y1="23.720449" x1="34.265" y2="23.720449" gradientUnits="userSpaceOnUse" x2="45.4021"/>
<linearGradient gradientTransform="matrix(0.47799828,0,0,0.47799828,1.3673396,0.54187068)" xlink:href="#linearGradient13" id="linearGradient15" y1="38.854919" x1="16.81628" y2="31.010721" x2="9.0194902" gradientUnits="userSpaceOnUse"/>
</defs>
<g style="fill-rule:evenodd">
<path style="fill:#aaa" d="m 0,-0 v 22 l 19,0 v -22 Z "/>
<path style="fill:#f2f2f2" d="M 1,1 V 21 H 18 V 1 Z"/>
</g>
<g style="fill:#385389">
<path style="opacity:.9" d="m 8.8664,2.1988 -.0195,3.3086 2.4141,-3.2305 1.9453,.4453 -2.5118,3.2305 2.4922,3.4259 -1.9063,.6055 -2.4336,-3.5626 v 3.21098 l -1.8086,.2735 v -7.53136 l 1.8281,-.1758 Z "/>
<path style="opacity:.9" d="m 4.7219,4.0347 c 0.020674,-0.00213 0.040157,0 0.058594,0.011718 l 1.3711,.8984 c 0,0 0,0.00373 0,0.0039 0.169126,-0.092127 0.347067,-0.16991 0.531259,-0.234379 v 0.750011 c -1.01204,0.455444 -1.71877,1.47053 -1.71877,2.65238 0,1.6067 1.3035,2.91019 2.91019,2.91019 1.1307,0 2.11241,-0.644017 2.59379,-1.58595 0.402505,0.589291 0.710947,1.04298 0.710947,1.04298 0.01375,0.02012 0.03938,0.03056 0.0625,0.02344 l .1602,-.0508 .4883,.8047 c 0.02225,0.03656 0.01475,0.08297 -0.01562,0.113282 l -.7148,.7187 c -0.03132,0.03112 -0.08025,0.03578 -0.117189,0.01172 l -1.3399,-.8789 c -0.273502,0.161 -0.569199,0.286535 -0.882826,0.371099 l -.375,1.5313 c -0.010123,0.04169 -0.047221,0.07031 -0.089845,0.07031 h -1.01564 c -0.043969,0 -0.080969,-0.03115 -0.089844,-0.07422 l -.3164,-1.5235 c -0.304095,-0.082124 -0.592756,-0.205442 -0.859385,-0.359381 l -1.3594,.8242 c -0.036563,0.02226 -0.083001,0.01847 -0.113282,-0.01172 l -.7187,-.7187 c -0.031184,-0.03112 -0.035907,-0.08032 -0.011718,-0.117188 l .8672,-1.3203 c -0.163594,-0.287688 -0.287192,-0.60354 -0.367191,-0.933604 l -1.4961,-.3633 c -0.0415631,-0.0101245 -0.0743103,-0.0469085 -0.0743103,-0.0898453 v -1.01564 c 0,-0.044003 0.031282,-0.084876 0.07422,-0.093752 l 1.543,-.3203 c 0.0852503,-0.285096 0.206347,-0.55401 0.355472,-0.804695 l -.8398,-1.3868 c -0.0220658,-0.0366565 -0.0183776,-0.0830022 0.0118052,-0.113283 l .7187,-.7187 c 0.015562,-0.015592 0.037923,-0.021305 0.058595,-0.023437 z "/>
</g>
<g style="fill-rule:evenodd">
<path style="opacity:.05" d="m 18.7975,4.2878 c -0.29855,-0.0065277 -0.634532,0.121351 -0.835565,0.321155 l -12.2815,12.0555 .0206,.0206 -1.5778,5.3028 5.3089,-1.5587 12.2568,-12.0709 c 0.330462,-0.32875 0.412,-1.03599 0.117636,-1.33223 l -2.56,-2.573 c -0.107453,-0.108016 -0.269925,-0.16133 -0.449057,-0.165245 Z "/>
<path style="opacity:.2" d="m 18.5618,4.0636 c -0.298551,-0.0065277 -0.634534,0.121351 -0.835566,0.321155 l -11.8977,11.7679 .0206,.0206 -1.5778,5.3028 5.3089,-1.5587 11.873,-11.7833 c 0.330461,-0.32875 0.412,-1.03599 0.117635,-1.33223 l -2.56,-2.573 c -0.107452,-0.108016 -0.269925,-0.16133 -0.449056,-0.165245 Z "/>
<path style="opacity:.25" d="m 18.34,3.8523 c -0.298551,-0.0065277 -0.634534,0.121351 -0.835565,0.321155 l -11.4346,11.514 .0355,-.0317 -1.6524,5.2953 5.0549,-1.4167 11.7236,-11.6115 c 0.330462,-0.32875 0.412,-1.03599 0.117635,-1.33223 l -2.56,-2.573 c -0.107452,-0.108016 -0.269925,-0.16133 -0.449056,-0.165246 Z "/>
<path style="opacity:.35" d="m 18.4667,3.7678 c -0.29855,-0.00653 -0.634532,0.121351 -0.835564,0.321155 l -11.6336,11.5144 .0206,.0206 -1.4876,5.079 4.9872,-1.4319 11.6388,-11.5559 c 0.330462,-0.32875 0.412,-1.03599 0.117635,-1.33223 l -2.3583,-2.4497 c -0.107452,-0.108016 -0.269926,-0.16133 -0.449058,-0.165245 Z "/>
<path style="fill:url(#linearGradient8)" d="m 18.3896,3.26 c -0.298551,-0.00653 -0.634363,0.120953 -0.835394,0.320756 l -1.6655,1.6347 3.7269,3.7495 1.6655,-1.6347 c 0.330462,-0.32875 0.411639,-1.0362 0.117278,-1.33244 l -2.5596,-2.5729 c -0.107452,-0.108016 -0.269943,-0.161067 -0.449074,-0.164983 Z "/>
<path style="fill:url(#linearGradient12)" d="m 15.8974,5.2242 -1.7293,1.7118 3.727,3.7494 1.7292,-1.7116 Z "/>
<path style="fill:url(#linearGradient3849)" d="m 14.1674,6.9337 -8.5113,8.4152 3.7537,3.7634 8.4844,-8.429 Z "/>
<path style="fill:url(#linearGradient15)" d="m 5.6787,15.3649 -1.5799,5.3074 5.3067,-1.5579 -3.7269,-3.7495 Z "/>
<path style="fill:url(#linearGradient871)" d="m 4.9626,17.7628 -.8638,2.9096 2.9051,-.8543 -2.0413,-2.0552 Z "/>
</g>
</svg>
