<svg width="22" version="1.1" xmlns="http://www.w3.org/2000/svg" height="22">
<defs id="defs3051">
<style type="text/css" id="current-color-scheme">
.ColorScheme-Text {
color:#4d4d4d;
}
</style>
</defs>
<path style="fill:currentColor" d="m 17.5996,2 c -0.6,0 -0.599609,0.0061605 -0.599609,0.507812 v 2.49219 h 5 v -2.49023 c 0,-0.508977 0,-0.509766 -0.650391,-0.509766 h -3.75 z  m -7.6992,2 l -2.9004,.2656 v 10.9395 l 2.8691,-.3828 v -4.67578 l 3.7344,5.1758 2.9258,-.8828 -3.8281,-4.9687 3.8594,-4.707 -2.9883,-.6465 -3.7031,4.7051 .0312,-4.8223 z  m 7.0996,2 v 8 h 5 v -8 h -5 z  m -13.5488,.6758 c -0.03167,0 -0.06986,0.01825 -0.09375,0.03125 l -1.0898,1.0586 c -0.0464,0.046 -0.06526,0.122181 -0.03125,0.175781 l 1.2773,2 c -0.22912,0.3639 -0.398064,0.762181 -0.529297,1.17578 l -2.3652,.4707 c -0.065955,0.017 -0.125,0.05504 -0.125,0.11914 v 1.46875 c 0,0.062 0.06152,0.131385 0.125,0.146485 l 2.3027,.5293 c 0.122648,0.4795 0.309159,0.936116 0.560547,1.35352 l -1.3379,1.9121 c -0.0371299,0.054 -0.0178,0.130681 0.03125,0.175781 l 1.0879,1.0293 c 0.0464,0.042 0.130877,0.06525 0.1875,0.03125 l 2.0859,-1.207 c 0.41008,0.2235 0.839197,0.410097 1.30664,0.529297 l .498,2.207 c 0.01429,0.064001 0.057828,0.117188 0.125,0.117188 h 1.55664 c 0.0656,0 0.140564,-0.056287 0.15625,-0.117188 l .5586,-2.207 c 0.481832,-0.1229 0.951027,-0.324793 1.37109,-0.558593 l 2.0547,1.2949 c 0.056541,0.034 0.13747,0.01575 0.185547,-0.03125 l 1.0898,-1.0293 c 0.04668,-0.046 0.06546,-0.122381 0.03125,-0.175781 l -.748,-1.1758 -.248,.0879 c -0.03554,0.017 -0.07289,0 -0.09375,-0.029297 0,0 -0.471178,-0.673697 -1.08984,-1.5293 -0.739591,1.3676 -2.24676,2.29297 -3.98438,2.29297 -2.46872,0 -4.48242,-1.87258 -4.48242,-4.20508 0,-1.7157 1.09138,-3.19252 2.64648,-3.85352 v -1.08789 c -0.283046,0.094 -0.548705,0.190119 -0.808594,0.324219 h -0.03125 l -2.0859,-1.2949 c -0.02836,-0.017 -0.062,-0.0303437 -0.09375,-0.0273437 v -0.0019532 z  m 13.5488,8.3242 l 2,5 h 1 l 2,-5 h -5 z " class="ColorScheme-Text"/>
</svg>
