<svg width="22" version="1.1" xmlns="http://www.w3.org/2000/svg" height="22" viewBox="0 0 22 22">
<defs id="defs3051">
<style type="text/css" id="current-color-scheme">
.ColorScheme-Text {
color:#4d4d4d;
}
</style>
</defs>
<path style="fill:currentColor;fill-opacity:1;stroke:none" id="path291" d="m 12.2832,.959 c -0.699875,-0.0142323 -1.43555,0.229496 -2.02148,0.615234 -0.584306,0.384108 -1.05111,0.945967 -1.31641,1.59375 -0.265297,0.649411 -0.329751,1.37728 -0.181641,2.0625 0.14811,0.683588 0.506188,1.3226 1.01562,1.80273 -0.258787,-0.426424 -0.391272,-0.93197 -0.375,-1.43164 0.0146499,-0.499668 0.178062,-0.992517 0.462891,-1.4043 0.28483,-0.410149 0.692061,-0.735028 1.1543,-0.923828 0.462236,-0.188799 0.981269,-0.251221 1.4707,-0.146484 0.763433,0.16337 1.52166,0.853898 1.75586,1.61328 l 6.752,-.4062 -5.5469,-1.3242 c -0.266926,-0.605461 -0.819963,-1.19583 -1.30078,-1.51758 -0.607101,-0.406252 -1.20835,-0.519766 -1.86914,-0.533203 z  m -10.0332,1.291 c -0.800776,0.826815 -1.25977,1.97429 -1.25,3.125 0.0097655,1.16698 0.502933,2.32325 1.33789,3.13867 0.11608,0.113365 0.239164,0.218876 0.367188,0.318359 l -1.0801,-.332 c -0.216469,0.82682 -0.149736,1.72364 0.185547,2.50977 0.336911,0.784498 0.94076,1.45183 1.68945,1.86523 0.571284,0.315753 1.22233,0.484375 1.875,0.484375 0.652666,0 1.30372,-0.168621 1.875,-0.484375 -0.525712,0.0472 -1.06153,-0.038412 -1.54492,-0.25 -0.483396,-0.20996 -0.912117,-0.546228 -1.23438,-0.962891 -0.37109,-0.481766 -0.566082,-0.822279 -0.613281,-1.42773 l 5.8926,.7656 -5.4258,-1.6699 c -0.186018,-0.122084 -0.480227,-0.404319 -0.632813,-0.566406 -0.340658,-0.411141 -0.499918,-1.04331 -0.501953,-1.74609 -0.0014466,-0.499596 0.129708,-0.965216 0.435547,-1.30078 l 6.75,3.4082 -8.125,-6.875 z  m 11.2754,4.168 c -0.348306,0.41178 -0.540338,0.929538 -0.650391,1.45703 -0.119363,0.572116 -0.122919,1.1995 0.029297,1.68555 0.313446,1.00092 0.77421,1.90688 0.957031,2.66602 0.119135,0.49469 0.184592,1.21708 0.029297,1.70117 -0.534636,1.6666 -1.81691,2.38346 -3.54492,2.5625 -0.842883,0.087332 -2.13217,-0.01335 -3.0957,-0.490234 l .0254,5 1.25,-2.4863 c 1.652,0.483395 3.49839,0.24511 4.97461,-0.638672 0.745438,-0.44596 1.39975,-1.05208 1.85547,-1.79102 0.457353,-0.738927 0.710611,-1.61068 0.669922,-2.47656 -0.05859,-1.23534 -0.6888,-2.36231 -1.29102,-3.44141 -0.603839,-1.07909 -1.21062,-2.22201 -1.21875,-3.45898 0,-0.0960279 0.003166,-0.193034 0.009766,-0.289062 z " class="ColorScheme-Text"/>
</svg>
