<svg width="22" version="1.1" xmlns="http://www.w3.org/2000/svg" height="22" viewBox="0 0 22 22" xmlns:xlink="http://www.w3.org/1999/xlink">
<defs id="defs3051">
<style type="text/css" id="current-color-scheme">
.ColorScheme-Text {
color:#4d4d4d;
}
</style>
</defs>
<path style="fill:currentColor;fill-opacity:1;stroke:none" id="path832" d="m 11,1 c -5.52285,0 -10,4.47715 -10,10 0.00818,4.36808 2.85055,8.22541 7.02021,9.527 l -.0204,-4.223 c 0.742034,0.240227 1.4668,0.258962 2.38347,0.07647 1.74633,-0.347666 2.58425,-0.901789 2.94477,-2.05861 0.384443,-1.23357 0.0859,-2.55093 -0.320602,-3.76769 -0.140339,-0.42007 -0.17578,-0.875795 -0.116339,-1.31454 0.06369,-0.464218 0.261835,-0.910613 0.564709,-1.26868 -0.0062,1.19281 0.552797,2.36554 1.05213,3.26087 0.523667,0.93834 1.07082,1.91747 1.12177,2.99168 0.03538,0.752941 -0.183993,1.51014 -0.581692,2.15268 -0.396277,0.64255 -0.965244,1.17046 -1.61345,1.55825 -1.28367,0.768507 -2.89007,0.975711 -4.3266,0.555367 l -1.0335,2.055 c 0.947162,0.296033 1.93311,0.449435 2.92544,0.455163 5.52285,0 10,-4.47715 10,-10 0,-1.69326 -0.430255,-3.35875 -1.25,-4.84035 l -5.914,.3526 c -0.267493,-0.774706 -1.36597,-1.57019 -2.4483,-1.17997 -0.947309,0.341539 -1.37821,1.32592 -1.39518,1.91319 -0.012559,0.434545 -0.018335,0.889647 0.206697,1.26045 -0.442989,-0.417511 -0.682841,-0.992461 -0.883152,-1.56675 -0.396745,-1.13745 0.0528969,-2.58017 1.05385,-3.31981 1.12107,-0.828404 2.52078,-0.718736 3.55414,0.010031 0.468667,0.33052 0.908882,0.916785 1.14099,1.44327 l 4.6552,1.0343 c -1.76949,-3.15389 -5.10392,-5.10668 -8.72028,-5.107 Z  m -7.348,3.3483 7.0652,5.9783 -5.753,-2.6006 c -0.312243,1.0855 -0.184549,2.11546 0.83217,2.7851 l 4.3774,1.4459 -4.9903,-.2333 c 0.118187,0.991168 1.57759,1.73916 3.08446,1.86369 -3.17053,1.9202 -5.74845,-0.790417 -5.15937,-3.80435 l .9417,.2896 c -0.112121,-0.0869948 -0.220237,-0.179305 -0.321841,-0.278533 -0.72605,-0.709061 -1.15489,-1.71367 -1.16338,-2.72843 -0.0084927,-1 0.390629,-1.99842 1.08696,-2.71739 Z " class="ColorScheme-Text"/>
</svg>
