<svg version="1.1" xmlns="http://www.w3.org/2000/svg" viewBox="0 0 22 22">
<defs id="defs3051">
<style type="text/css" id="current-color-scheme">
.ColorScheme-Text {
color:#4d4d4d;
}
</style>
</defs>
<path style="fill:currentColor;fill-opacity:1;stroke:none" id="path4" d="m 4.9993,5.3806 .0007,7.1571 4.4583,4.4623 h 7.16751 l .3742,-1 -11,-11 Z  m 1.5943,-1.2977 .5256,.8756 c 2.66431,-1.13096 5.7487,-0.532992 7.7968,1.51156 2.0413,2.04795 2.63662,5.12842 1.50526,7.78893 l .8746,.5239 c 1.36668,-3.06409 0.70606,-6.6529 -1.66223,-9.03012 -2.37743,-2.37251 -5.97123,-3.03635 -9.03998,-1.66986 Z  m 3.0161,2.3563 .2313,1.0044 c 1.09305,-0.016599 2.1466,0.408157 2.92223,1.17815 0.772405,0.774333 1.19943,1.8275 1.18431,2.92085 l 1.0063,.2325 c 0.08236,-1.44094 -0.453382,-2.8487 -1.47303,-3.87065 -1.02331,-1.01623 -2.43099,-1.54908 -3.87107,-1.46533 Z  m -7.6104,8.6379 4.3056,4.3035 1.4352,-1.4345 -4.3056,-4.3035 Z " class="ColorScheme-Text"/>
</svg>
