<svg width="22" version="1.1" xmlns="http://www.w3.org/2000/svg" height="22">
<defs id="defs3051">
<style type="text/css" id="current-color-scheme">
.ColorScheme-Text {
color:#4d4d4d;
}
</style>
</defs>
<path style="fill:currentColor;fill-opacity:1;stroke:none" id="path4499" d="m 16.2949,3.5 c -0.301109,0.0014 -0.579458,0.0960862 -0.839844,0.28125 -0.658934,0.471329 -2.0319,1.21665 -4.45508,1.21875 -2.4232,0.0025053 -3.79614,-0.74742 -4.45508,-1.21875 -0.260379,-0.18517 -0.511553,-0.27484 -0.814453,-0.273438 -0.302901,0.0012571 -0.649826,0.0825933 -1.00586,0.273438 -1.29662,0.684545 -2.49233,2.92551 -3.14062,5.83203 -0.552656,2.46887 -0.755255,5.84524 -0.425781,7.20312 0.286953,1.16709 0.785842,1.68359 1.66797,1.68359 1.30725,-0.02242 2.94674,-0.981442 3.98828,-2.94531 0.598063,-1.15369 2.50186,-1.58017 4.18555,-1.52539 1.68366,-0.059 3.63184,0.282988 4.18555,1.52539 1.04154,1.96387 2.68104,2.92286 3.98828,2.94531 0.882129,0 1.38102,-0.516497 1.66797,-1.68359 0.329474,-1.35788 0.126875,-4.73427 -0.425781,-7.20312 -0.648311,-2.90653 -1.84401,-5.14749 -3.14062,-5.83203 -0.356034,-0.190775 -0.679359,-0.282653 -0.980469,-0.28125 z  m -1.2949,3.166 c 0.552296,0 1,0.44772 1,1 0,0.55228 -0.447704,1 -1,1 -0.552296,0 -1,-0.44772 -1,-1 0,-0.55228 0.447704,-1 1,-1 z  m -9,.334 h 1 v 2 h 2 v 1 h -2 v 2 h -1 v -2 h -2 v -1 h 2 v -2 z  m 7,1.7891 c 0.55229,0 1,0.44772 1,1 0,0.552281 -0.44771,0.999999 -1,0.999999 -0.55227,1e-06 -1,-0.447718 -1,-0.999999 0,-0.55228 0.44773,-1 1,-1 z  m 4,0 c 0.55227,0 1,0.44772 1,1 0,0.552281 -0.44773,0.999999 -1,0.999999 -0.55229,1e-06 -1,-0.447718 -1,-0.999999 0,-0.55228 0.44771,-1 1,-1 z  m -2,2.2109 c 0.552297,0 1,0.44772 1,1 0,0.552279 -0.447703,1 -1,1 -0.552295,0 -1,-0.447721 -1,-1 0,-0.55228 0.447705,-1 1,-1 z " class="ColorScheme-Text"/>
</svg>
