<svg version="1.1" xmlns="http://www.w3.org/2000/svg" viewBox="0 0 22 22">
<path style="fill:#2c2c2c" d="m 3,4 v 11 h 6 v 1 h -2 v 2 h 8 v -2 h -2 v -1 h 6 v -11 h -16 z  m 1,1 h 14 v 9 h -14 v -9 z "/>
<path style="opacity:.5;fill:#fff" d="M 2,3 V 16 H 9 V 15 H 3 V 4 h 16 v 11 h -6 v 1 h 7 V 3 Z m 4,13 v 3 h 10 v -3 h -1 v 2 H 7 v -2 z"/>
<path style="fill:#7fff2a" d="m 10,16 h 2 v 1 h -2 z"/>
<path style="fill:#3880d9" d="m 4,5 h 14 v 9 H 4 Z"/>
<path style="opacity:.9;fill:#fff" d="m 10,6 v 4 H 7 l 4,3 4,-3 H 12 V 6 Z"/>
</svg>
