<svg width="22" version="1.1" xmlns="http://www.w3.org/2000/svg" height="22">
<defs id="defs3051">
<style type="text/css" id="current-color-scheme">
.ColorScheme-Text {
color:#4d4d4d;
}
</style>
</defs>
<path style="fill:currentColor;fill-opacity:1;stroke:none" id="path823" d="m 11,2 c -4.97063,0 -9,4.02953 -9,9 0,4.97066 4.02941,9 9,9 4.97014,0 9,-4.02928 9,-9 0,-4.97048 -4.02987,-9 -9,-9 z  m 0,2.0098 c 1.12793,0 2.04297,0.915039 2.04297,2.04297 0,1.12793 -0.915039,2.04102 -2.04297,2.04102 -1.12793,0 -2.04297,-0.913083 -2.04297,-2.04102 1e-07,-1.12793 0.915039,-2.04297 2.04297,-2.04297 z  m -5.2891,5.043 h 10.6113 c 0.259845,0 0.416818,0.101555 0.464843,0.291016 0.04803,0.189461 -0.024582,0.453342 -0.210937,0.521484 l -4.0078,1.4648 1.4844,6.373 c 0.04839,0.231947 0.036224,0.485093 -0.208984,0.585937 -0.24521,0.100838 -0.515357,0.033206 -0.654297,-0.259765 l -2.1816,-4.5996 -2.1836,4.5996 c -0.103213,0.217426 -0.438676,0.396852 -0.689453,0.246094 -0.250777,-0.150757 -0.237512,-0.390077 -0.189453,-0.619141 l 1.4844,-6.3262 -3.998,-1.4648 c -0.236563,-0.086706 -0.308672,-0.362646 -0.246094,-0.521484 0.0625786,-0.158836 0.161165,-0.291016 0.525391,-0.291016 z " class="ColorScheme-Text"/>
</svg>
