<svg version="1.1" xmlns="http://www.w3.org/2000/svg" viewBox="0 0 22 22">
<path style="fill:#2c2c2c" d="m 1,2 v 14 h 8 v 1 H 7 v 2 h 8 v -2 h -2 v -1 h 8 V 2 Z M 2,3 H 20 V 15 H 2 Z"/>
<path style="opacity:.5;fill:#fff" d="M 0,1 V 17 H 9 V 16 H 1 V 2 h 20 v 14 h -8 v 1 h 9 V 1 Z m 6,16 v 3 h 10 v -3 h -1 v 2 H 7 v -2 z"/>
<path style="fill:#7fff2a" d="m 10,17 h 2 v 1 h -2 z"/>
<path style="fill:#3880d9" d="M 2,3 H 20 V 15 H 2 Z"/>
<path style="opacity:.95;fill:#fefefe;stroke-width:.241" d="m 10.6741,4.5449 c 0.138547,0.61909 0.392808,1.05718 0.522152,1.68239 0.02989,0.144482 -0.05328,0.227003 -0.207353,0.16494 -0.772331,-0.311103 0.161873,-1.08549 -0.506128,-1.21867 -0.244027,-0.048653 -0.639495,0.163512 -0.762492,0.374177 -0.248187,0.425083 0.439321,0.383012 0.494575,0.746439 0.075464,0.496347 -0.685034,0.358802 -0.912107,0.129155 -0.764685,-0.773341 -1.63453,-2.59891 -2.55138,-1.4543 -0.673946,0.841354 1.227,1.6436 1.94063,1.8379 0.259519,0.0706574 0.44278,0.153295 0.384546,0.313857 -0.103128,0.284338 -0.51914,0.657102 -0.756766,0.448829 -0.291092,-0.255135 -0.640899,-0.299417 -0.793665,-0.0671102 -0.14984,0.227853 0.0396722,0.320597 0.241146,0.417533 0.259493,0.105933 0.275061,0.171681 0.226203,0.419418 -0.263089,0.0231017 -0.530553,-0.164637 -0.710653,-0.286523 -0.624075,-0.58211 -1.6791,-1.5459 -2.16212,-0.204525 -0.340535,1.3211 1.45353,1.78687 2.21396,1.56457 0.403433,-0.117935 0.841093,-0.181664 0.735158,0.153631 -0.513994,1.62685 -2.52603,0.391981 -3.03111,1.50142 -0.121545,0.26698 0.052524,0.751883 0.388316,0.96042 1.22302,0.759539 1.53978,-0.706288 2.59003,-1.12065 0.426754,-0.16837 0.817806,0.437273 0.72762,0.491049 -1.30243,0.77658 -1.77681,3.0654 -0.140434,2.92838 1.11018,-0.09297 0.173276,-2.07109 1.07258,-2.38456 0.422768,-0.14736 1.13137,-0.258553 1.07263,0.268784 -0.08266,0.741952 -0.358255,2.63481 0.800144,2.30993 1.06514,-0.298732 0.779153,-1.10127 -0.0019,-2.03771 -0.322056,-0.386135 0.789491,-0.59309 0.925546,-0.447693 0.414328,0.442771 0.893924,1.04013 1.38361,0.582472 1.14997,-1.07476 -1.22991,-0.534132 -0.906381,-1.2104 0.0919,-0.192103 0.637822,-0.645632 1.19196,-0.369245 0.540908,0.269787 0.561519,0.697518 0.975499,1.15081 0.28522,0.312304 1.05591,0.285226 1.51462,-0.03959 0.949207,-0.672137 -0.140664,-1.92955 -1.01132,-1.93875 -0.267066,-0.0028 -0.495503,0.04471 -0.727621,0.03958 -0.471434,-0.0104 -1.04391,-0.723439 -0.79171,-0.902927 0.394,-0.280142 1.33775,0.091555 1.17814,-0.574931 -0.129493,-0.540852 -0.637808,-0.555393 -1.01882,-0.28652 -0.189429,0.133675 -0.368604,-0.376111 -0.321397,-0.561738 0.03409,-0.134039 0.21231,-0.244848 0.480681,-0.391144 0.532774,-0.290424 0.889517,0.34822 1.41094,0.319511 1.22332,-0.067356 1.61447,-1.56584 0.391141,-1.87089 -1.13038,-0.281859 -1.78662,1.33614 -2.56931,1.33837 -0.331734,0 -0.317226,-0.570147 -0.120643,-0.702172 0.530883,-0.356542 0.959184,-0.651539 0.682379,-1.08106 -0.173587,-0.269358 -0.565107,-0.383234 -0.754012,-0.190387 -0.364749,0.372368 -0.185128,0.753148 -0.823754,0.819986 -0.227872,0.0238489 -0.36873,-0.0175969 -0.476911,-0.174365 -0.538127,-0.779807 0.372262,-1.31733 0.1,-2.08484 -0.406988,-1.14691 -1.82042,-0.40923 -1.58625,0.637133 Z "/>
</svg>
