<svg version="1.1" xmlns="http://www.w3.org/2000/svg" viewBox="0 0 22 22">
<path style="fill:#2c2c2c" d="m 2,3 v 13 h 7 v 1 H 7 v 2 h 8 v -2 h -2 v -1 h 7 V 3 Z M 3,4 H 19 V 15 H 3 Z"/>
<path style="opacity:.5;fill:#fff" d="M 1,2 V 17 H 9 V 16 H 2 V 3 h 18 v 13 h -7 v 1 h 8 V 2 Z m 5,15 v 3 h 10 v -3 h -1 v 2 H 7 v -2 z"/>
<path style="fill:#7fff2a" d="m 10,17 h 2 v 1 h -2 z"/>
<path style="fill:#3880d9" d="M 3,4 H 19 V 15 H 3 Z"/>
<path style="opacity:.9;fill:#fff" d="m 10,6 v 4 H 7 l 4,3 4,-3 H 12 V 6 Z"/>
</svg>
