<svg version="1.1" xmlns="http://www.w3.org/2000/svg" viewBox="0 0 22 22">
<path style="fill:#2c2c2c" d="m 3,4 v 11 h 6 v 1 h -2 v 2 h 8 v -2 h -2 v -1 h 6 v -11 h -16 z  m 1,1 h 14 v 9 h -14 v -9 z "/>
<path style="opacity:.5;fill:#fff" d="M 2,3 V 16 H 9 V 15 H 3 V 4 h 16 v 11 h -6 v 1 h 7 V 3 Z m 4,13 v 3 h 10 v -3 h -1 v 2 H 7 v -2 z"/>
<path style="fill:#7fff2a" d="m 10,16 h 2 v 1 h -2 z"/>
<path style="fill:#3880d9" d="m 4,5 h 14 v 9 H 4 Z"/>
<path style="fill:#e5e5e5" d="M 13,6 12,7 H 6 v 5.334 H 16 V 6.00004 Z"/>
<path style="fill:#48b400" d="M 15,8 H 14 V 7 h 1 z"/>
<path style="fill:#103056" d="m 13,9.5 c 0,0.828411 -0.671514,1.499861 -1.5,1.499861 C 10.671589,10.999861 10,10.328415 10,9.5 10,8.6714567 10.67158,8 11.5,8 12.328477,8 13,8.6714467 13,9.5 Z"/>
</svg>
