<svg width="22" version="1.1" xmlns="http://www.w3.org/2000/svg" height="22" viewBox="0 0 22 22">
<g style="stroke-width:1.777">
<path style="fill:#643b14" d="m 11,1 c -5.51407,0 -10,4.48593 -10,10 -6.66134e-16,5.51407 4.48593,10 10,10 5.51407,0 10,-4.48593 10,-10 0,-5.51407 -4.48593,-10 -10,-10 Z "/>
<path style="fill:#fff" d="m 11,2.3333 c -4.77883,0 -8.66667,3.88784 -8.66667,8.66667 0,4.77883 3.88784,8.66667 8.66667,8.66667 4.77883,0 8.66667,-3.88784 8.66667,-8.66667 0,-4.77883 -3.88784,-8.66667 -8.66667,-8.66667"/>
</g>
<g style="fill:#d88639;stroke-width:1.333">
<path d="m 9.8581,2.5506 4.0749,7.2603 2.9543,-4.9755 c -1.70981,-1.53555 -3.94776,-2.59604 -7.02919,-2.2848 z "/>
<path d="m 17.7464,5.8256 -4.3565,7.1711 h 5.87283 c 0.637268,-2.57894 0.0017,-5.38629 -1.51633,-7.1711 z "/>
<path d="m 8.7176,2.7546 c -2.43243,0.735891 -4.47701,2.49949 -5.51709,4.98767 l 8.3947,-.0059 z "/>
<path d="m 10.8752,14.1876 2.5995,4.8357 c 2.35097,-0.639659 4.24744,-2.31052 5.28753,-4.79871 z "/>
<path d="m 8.3051,12.3619 -2.9376,4.9462 c 2.21427,1.83192 4.31379,2.32942 6.60156,2.12085 z "/>
<path d="m 4.2063,16.1258 4.4104,-7.1679 h -5.90728 c -0.71726,2.71764 0.183419,5.40452 1.49693,7.16783 z "/>
</g>
</svg>
