<svg version="1.1" xmlns="http://www.w3.org/2000/svg" viewBox="0 0 16 16">
<defs id="defs3051">
<style type="text/css" id="current-color-scheme">
.ColorScheme-Text {
color:#4d4d4d;
}
</style>
</defs>
<path style="fill:currentColor" d="M 1,1 V 15 H 15 V 3 H 9 L 7,1 Z m 5,3 h 8 V 5 H 6 L 5,6 H 7 V 8 H 5 V 6 L 4,7 v 7 H 2 V 6 h 2 z m 2,2 h 3 V 9 H 8 Z m 4,0 h 2 V 8 H 12 Z M 5,9 h 2 v 2 H 5 Z m 7,0 h 2 v 2 h -2 z m -4,2 h 3 v 3 H 8 Z m -3,1 h 2 v 2 H 5 Z m 7,0 h 2 v 2 h -2 z" class="ColorScheme-Text"/>
</svg>
