<svg version="1.1" xmlns="http://www.w3.org/2000/svg" viewBox="0 0 16 16">
<defs id="defs3051">
<style type="text/css" id="current-color-scheme">
.ColorScheme-Text {
color:#4d4d4d;
}
</style>
</defs>
<path style="fill:currentColor" d="M 1,0 V 14 H 15 V 2 H 9.00781 l -2,-2 -0.0078,0.0078 V -1.25e-5 Z m 5,3 h 8 V 13 H 2 V 5 H 4 Z M 8,3.9919275 V 9.59962 C 7.734768,9.202004 7.173086,8.889775 6.40039,8.896495 c -0.831145,0.00723 -1.51464,0.671288 -1.51172,1.57812 0.00259,0.802891 0.663913,1.53352 1.70508,1.53516 C 7.99356,12.011975 9,11.163352 9,10.275395 L 9.002,5.6989225 c 0.869708,0.544501 1.44541,1.19369 1.25195,2.11719 0.343208,-0.06945 0.7498,-0.367562 0.757813,-1.01172 0.01148,-0.922722 -0.887286,-2.04799 -2.01172,-2.79688 v -0.015625 z" class="ColorScheme-Text"/>
</svg>
