<svg width="16" version="1.1" xmlns="http://www.w3.org/2000/svg" height="16">
<defs id="defs3051">
<style type="text/css" id="current-color-scheme">
.ColorScheme-Text {
color:#4d4d4d;
}
</style>
</defs>
<path style="fill:currentColor;fill-opacity:1;stroke:none" id="path4528" d="m 1,1 v 4 h 6 l .0117,6 h -2.01172 v 1 h -4 v 2 h 4 v 1 h 6 v -1 h 4 v -2 h -4 v -1 h -2 v -6 h 6 v -4 h -14 z  m 12,1 c 0.523634,-3.1e-05 1,0.476385 1,1 0,0.523615 -0.476366,1 -1,1 -0.523634,-3.1e-05 -1,-0.476444 -1,-1 0,-0.523556 0.476366,-1 1,-1 z  m -5,10 c 0.523635,-3.1e-05 1,0.476386 1,1 0,0.523616 -0.476365,1 -1,1 -0.523635,-3.1e-05 -1,-0.476444 -1,-1 0,-0.523556 0.476365,-1 1,-1 z " class="ColorScheme-Text"/>
</svg>
