<svg version="1.1" xmlns="http://www.w3.org/2000/svg" viewBox="0 0 16 16">
<defs id="defs3051">
<style type="text/css" id="current-color-scheme">
.ColorScheme-Text {
color:#4d4d4d;
}
</style>
</defs>
<path style="fill:currentColor" d="m 1,1 v 14 h 14 v -12 h -5.99219 l -2,-2 -.0078,.0078 v -0.0078125 h -6 z  m 5,3 h 8 v 10 h -12 v -8 h 2 l 2,-2 z  m 2,.9922 v 5.60742 c -0.265232,-0.397616 -0.826913,-0.709845 -1.59961,-0.703125 -0.831145,0.0072 -1.51464,0.671294 -1.51172,1.57812 0.00259,0.802891 0.663911,1.53352 1.70508,1.53516 1.39981,0.0022 2.40625,-0.846418 2.40625,-1.73438 l .002,-4.5762 c 0.869708,0.544501 1.44541,1.19369 1.25195,2.11719 0.343208,-0.0694499 0.7498,-0.367561 0.757813,-1.01172 0.01148,-0.922722 -0.887285,-2.04798 -2.01172,-2.79688 v -0.015625 h -1 z " class="ColorScheme-Text"/>
</svg>
