<svg version="1.1" xmlns="http://www.w3.org/2000/svg" viewBox="0 0 16 16">
<defs id="defs3051">
<style type="text/css" id="current-color-scheme">
.ColorScheme-Text {
color:#4d4d4d;
}
</style>
</defs>
<path style="fill:currentColor" d="M 1,0 V 14 H 15 V 2 H 9.00781 l -2,-2 -0.0078,0.0078 V -1.25e-5 Z m 5,3 h 8 V 13 H 2 V 5 H 4 Z M 4,5 v 7 h 8 V 5 Z m 2,0.9941 4,0.0117 V 8 H 6 V 5.99408 Z M 4.5,6 h 1 v 1 h -1 z m 6,0 h 1 v 1 h -1 z m -6,2 h 1 v 1 h -1 z m 6,0 h 1 v 1 h -1 z M 6,9 h 4 v 2 H 6 Z m -1.5,1 h 1 v 1 h -1 z m 6,0 h 1 v 1 h -1 z" class="ColorScheme-Text"/>
</svg>
