<svg version="1.1" xmlns="http://www.w3.org/2000/svg" viewBox="0 0 16 16">
<defs id="defs3051">
<style type="text/css" id="current-color-scheme">
.ColorScheme-Text {
color:#4d4d4d;
}
</style>
</defs>
<path style="fill:currentColor" d="M 1,1 V 15 H 15 V 3 H 9 L 7,1 v 0 0 z m 5,3 h 8 V 14 H 2 V 6 H 4 Z M 4,6 v 7 h 9 V 6 Z m 3,1 3,0 V 9 H 7 Z M 5,7 H 6 V 8 H 5 Z m 6,0 h 1 V 8 H 11 Z M 5,9 h 1 v 1 H 5 Z m 6,0 h 1 v 1 h -1 z m -4,1 h 3 v 2 H 7 Z m -2,1 h 1 v 1 H 5 Z m 6,0 h 1 v 1 h -1 z" class="ColorScheme-Text"/>
</svg>
