<svg width="16" version="1.1" xmlns="http://www.w3.org/2000/svg" height="16">
<defs id="defs3051">
<style type="text/css" id="current-color-scheme">
.ColorScheme-Text {
color:#4d4d4d;
}
</style>
</defs>
<path style="fill:currentColor;fill-opacity:1;stroke:none" id="folderGlyph" d="M 7.997263,1 C 6.164537,1.0001086 4.343018,1.754929 3.048046,3.0507831 1.753074,4.3466371 1,6.167554 1,8 1,9.832446 1.753074,11.653363 3.048046,12.949217 4.343018,14.245071 6.164544,14.999888 7.997263,15 9.829982,15.000108 11.651221,14.245078 12.947852,12.949217 14.244476,11.653356 15,9.832649 15,8 15,6.167344 14.244476,4.346644 12.947852,3.0507831 11.651228,1.754922 9.829989,0.99989504 7.997263,1 Z m 0,1.4 C 10.929619,2.3998265 13.6,5.067756 13.6,8 c 0,2.932244 -2.670381,5.600175 -5.602737,5.6 C 5.064907,13.599826 2.4,10.931915 2.4,8 2.4,5.068085 5.064907,2.4001751 7.997263,2.4 Z M 7,4 V 7 H 4 L 7.999993,12.2 12,7 H 9 V 4 Z" class="ColorScheme-Text"/>
</svg>
