<svg version="1.1" xmlns="http://www.w3.org/2000/svg" viewBox="0 0 16 16">
<defs id="defs3051">
<style type="text/css" id="current-color-scheme">
.ColorScheme-Text {
color:#4d4d4d;
}
</style>
</defs>
<path style="fill:currentColor" d="m 8,2 c -3.31371,0 -6,0.895432 -6,2 v 8 c 0,1.10457 2.68629,2 6,2 3.31371,0 6,-0.895432 6,-2 v -8 c 0,-1.10457 -2.68629,-2 -6,-2 z  m 0,1 c 2.76142,0 5,0.447716 5,1 0,0.552283 -2.23858,1 -5,1 -2.76142,0 -5,-0.447717 -5,-1 0,-0.552284 2.23858,-1 5,-1 z  m -5,2.2031 c 1.1089,0.560138 2.98669,0.795991 5,0.796875 2.0122,0 3.88975,-0.237481 5,-0.796875 v 2.79688 c -0.479453,0.401366 -2.5,1 -5,1 -2.5,0 -4.55705,-0.678491 -5,-1 v -2.79688 z  m 0,3.8984 c 1.1089,0.560138 2.98669,0.897554 5,0.898438 2.0122,0 3.88975,-0.33709 5,-0.896484 v 2.89648 c -0.555532,0.25753 -2.23858,1 -5,1 -2.76142,0 -4.5,-0.791193 -5,-1 v -2.89844 z " class="ColorScheme-Text"/>
</svg>
