<svg width="48" version="1.0" xmlns="http://www.w3.org/2000/svg" viewBox="0 0 56.25 53.625" height="48" xmlns:xlink="http://www.w3.org/1999/xlink" style="overflow:visible">
<defs id="defs268">
<linearGradient id="linearGradient3171">
<stop offset="0" style="stop-color:#fff" id="stop3173"/>
<stop offset="1" style="stop-color:#fff;stop-opacity:.068" id="stop3175"/>
</linearGradient>
<linearGradient gradientTransform="matrix(0.75145547,0,0,0.83592555,4.0350222,6.7062091)" xlink:href="#linearGradient3171" id="linearGradient3065" y1="38.811657" x1="9.3437004" y2="46.82093" gradientUnits="userSpaceOnUse" x2="10.924745"/>
</defs>
<g style="stroke:none;fill-rule:evenodd">
<path style="fill:#fff;fill-opacity:.647" id="path4147" d="m 10.2754,31.4512 c -0.81592,0.03165 -1.65582,0.285275 -2.45703,0.84375 -3.2654,2.27607 -1.71131,7.28084 -7.81836,7.40234 2.50903,4.25997 8.30606,4.0521 11.3535,2.61914 1.32161,-0.621432 2.30632,-1.46281 2.99023,-2.42773 -1.47697,-2.1827 -1.42034,-4.75272 -0.742188,-7.33594 -0.913937,-0.688215 -2.09221,-1.14943 -3.32617,-1.10156 z " transform="matrix(1.171875,0,0,1.1718751,0,-1.312501)"/>
<path style="opacity:.7" id="path3834" d="m 9.9573,14.0863 c 0.01191,8.48519 10.4795,5.13603 10.8711,8.90505 0.632963,6.09155 -16.7214,23.6705 7.47873,28.2571 13.3519,2.53056 27.5627,-5.90207 26.1369,-22.7059 C 53.16178,13.43045 40.66433,3.55185 28.15293,3.56235 16.12503,3.572411 9.94873,8.01323 9.95733,14.08635 Z M 23.6041,8.4965 c 3.40474,0 6.16803,1.93429 6.16803,4.31761 2e-6,2.38332 -2.76327,4.3176 -6.16803,4.3176 -3.40474,0 -6.16803,-1.93429 -6.16803,-4.3176 0,-2.38332 2.76327,-4.31761 6.16803,-4.31761 z"/>
<path style="fill:#e1b637" id="path2193" d="m 9.9573,13.3828 c 0.01191,8.48519 11.4943,5.16733 10.8711,8.90505 -1.03547,6.21072 -17.0789,23.1938 7.47873,28.2571 13.3097,2.74418 27.5627,-5.90207 26.1369,-22.7059 C 53.16178,12.72695 40.66433,2.84835 28.15293,2.85885 16.12503,2.868911 9.94873,7.30973 9.95733,13.38285 Z M 23.6041,7.793 c 3.40474,0 6.16803,1.93429 6.16803,4.3176 2e-6,2.38332 -2.76327,4.3176 -6.16803,4.3176 -3.40474,0 -6.16803,-1.93429 -6.16803,-4.3176 0,-2.38332 2.76327,-4.3176 6.16803,-4.3176 z"/>
<path style="opacity:.7" id="path3795" d="m 51.8005,1.6447 c -0.106801,-0.01557 -0.220271,0.072086 -0.31128,0.119018 -14.8139,10.4319 -22.3282,18.7677 -26.5503,23.2178 l .2197,.2563 c -3.854,3.68934 -7.87129,9.03677 -10.5103,12.854 0.34909,0.585 0.887778,0.936019 2.0874,1.75781 4.06231,-2.69682 10.1829,-7.18537 13.1836,-9.85107 4.84345,-4.30276 12.6245,-13.2774 22.4121,-26.8799 0.295553,-0.329041 -0.210616,-1.42729 -0.531007,-1.474 z "/>
<path style="opacity:.7" id="path3787" d="m 32.572,43.2579 c -1.22878,0.742545 0.08959,1.59554 0.682564,2.09245 0.470288,0.3941 -0.235971,2.29881 -1.0782,1.45708 -0.9706,-0.970032 -1.59552,-2.31955 -1.97621,-2.35413 -2.18807,-0.198804 -0.503352,2.69015 -2.26411,2.05477 -1.05364,-0.380204 0.257303,-1.97629 -1.14969,-2.46614 -1.11777,-0.389157 -1.00671,0.806699 -1.65304,0.224012 -3.04275,-2.74318 -1.4434,-5.12611 -0.03526,-6.98708 1.40816,-1.861 4.18995,-2.06056 6.25276,-0.41035 2.0628,1.65021 2.6099,4.51264 1.22118,6.38933 z"/>
<path style="fill:#4f8b14" id="path1937" d="m 32.2791,42.672 c -1.22878,0.742544 0.08959,1.59554 0.682564,2.09245 0.470288,0.3941 -0.235971,2.29881 -1.0782,1.45708 -0.9706,-0.970032 -1.59552,-2.31955 -1.97621,-2.35413 -2.18807,-0.198804 -0.503352,2.69015 -2.26411,2.05477 -1.05364,-0.380204 0.257303,-1.97629 -1.14969,-2.46614 -1.11777,-0.389157 -1.00671,0.806699 -1.65304,0.224012 -3.04275,-2.74318 -1.4434,-5.12611 -0.03526,-6.98708 1.40816,-1.861 4.18995,-2.06056 6.25276,-0.41035 2.0628,1.65021 2.6099,4.51264 1.22118,6.38933 z"/>
<path style="opacity:.7" id="path3789" d="m 44.4641,26.1669 c -1.1034,0 -1.32439,0.761476 -1.84434,1.25204 -0.412375,0.389058 -2.15056,-0.381331 -1.28368,-1.06795 0.999011,-0.791278 1.21846,-1.726 1.28368,-2.06214 0.374885,-1.93203 -3.3268,-0.992754 -2.56533,-2.5064 0.554469,-1.10219 2.57082,-0.05277 2.56533,-0.623689 -0.0084,-0.880317 -0.526189,-2.21024 0.576971,-2.42774 2.32115,-0.457621 4.99312,1.14252 6.25169,2.42516 1.20334,1.22636 0.535887,3.37086 -0.175599,4.89425 -0.434711,0.930755 -1.43082,2.82505 -2.58589,2.59701 -1.31067,-0.258762 0.55567,-2.4805 -2.22283,-2.4805 z"/>
<path style="fill:#429eff" id="path2876" d="m 44.1712,25.581 c -1.1034,0 -1.32439,0.761477 -1.84434,1.25204 -0.412375,0.389058 -2.15056,-0.381331 -1.28368,-1.06795 0.999011,-0.791278 1.21846,-1.726 1.28368,-2.06214 0.374885,-1.93203 -3.3268,-0.992754 -2.56533,-2.5064 0.554469,-1.10219 2.57082,-0.05277 2.56533,-0.623689 -0.0084,-0.880317 -0.526189,-2.21024 0.576971,-2.42774 2.32115,-0.457621 4.99312,1.14252 6.25169,2.42516 1.20334,1.22636 0.535887,3.37086 -0.175599,4.89425 -0.434711,0.930755 -1.43082,2.82505 -2.58589,2.59701 -1.31067,-0.258762 0.55567,-2.4805 -2.22283,-2.4805 z"/>
<path style="opacity:.7" id="path3791" d="m 43.4065,39.484 c 1.12045,0 3.00085,0.189127 3.49571,0.771107 1.15712,1.36084 2.18379,-0.429167 1.30352,-1.20192 -1.01445,-0.890546 -2.36275,-1.4031 -2.42898,-1.7814 -0.380676,-2.17439 2.53581,-0.729743 1.77364,-2.4396 -0.456086,-1.02318 -1.87267,0.423465 -2.46459,-0.944351 -0.470237,-1.08664 0.686098,-1.07578 0.07122,-1.67409 -2.89466,-2.81674 -5.04069,-1.01529 -6.7028,0.550909 -1.66216,1.56623 -1.61191,4.36857 0.149611,6.29572 0.723445,0.791482 1.07894,2.694 2.00157,2.92278 1.32389,0.328291 -0.02029,-2.49917 2.80113,-2.49917 z"/>
<path style="fill:#ef2929" id="path2852" d="m 43.1136,38.8981 c 1.12045,0 3.00085,0.189128 3.49571,0.771107 1.15712,1.36084 2.18379,-0.429166 1.30352,-1.20192 -1.01445,-0.890545 -2.36275,-1.4031 -2.42898,-1.7814 -0.380676,-2.17439 2.53581,-0.729743 1.77364,-2.4396 -0.456086,-1.02318 -1.87267,0.423464 -2.46459,-0.944351 -0.470237,-1.08664 0.686098,-1.07578 0.07122,-1.67409 -2.89466,-2.81674 -5.04069,-1.01529 -6.7028,0.550908 -1.66216,1.56623 -1.61191,4.36857 0.149611,6.29572 0.723445,0.791482 1.07894,2.694 2.00157,2.92278 1.32389,0.328292 -0.02029,-2.49917 2.80113,-2.49917 z"/>
</g>
<path style="opacity:.291;fill:none;stroke:url(#linearGradient3065);stroke-linejoin:round;stroke-width:1.17;stroke-miterlimit:5" id="path3161" d="m 4.6833,45.6952 c 2.38083,-0.03 4.01908,-2.85991 4.63946,-4.65441 1.87066,-5.41127 7.67003,-2.77651 6.56308,0.949975 -1.49584,5.03567 -7.20342,4.37029 -11.2025,3.70443 z "/>
<g style="fill-rule:evenodd;stroke:none" id="g3758" transform="matrix(0.46826423,-0.00121396,0.00121396,0.46826423,-6.7311937,-8.2831328)">
<path style="fill:#89590c" id="path3096-2" d="m 77.1475,79.9553 c 10.0311,-9.52866 27.0041,-28.2862 47.9812,-57.2805 0.84398,-0.934723 -0.5609,-1.73823 -1.33935,-1.33934 -31.6933,22.1956 -48.2195,38.3541 -57.2606,47.834"/>
<path style="fill:#f0f0f0;stroke-width:1.251" id="path3098-0" d="m 67.1156,69.5927 c 3.96842,1.59073 7.49479,4.11464 9.46895,9.91543 -5.34491,5.35784 -19.9922,17.2098 -29.9525,22.7564 l -2.9253,-4.0564 c 5.65981,-8.22424 14.7636,-20.4249 23.4088,-28.6156 z "/>
<path style="fill:#353535" id="path3100-7" d="m 17.9814,115.1805 c 12.5723,0.005 10.0697,-12.5888 17.4115,-17.1229 7.20559,-4.45008 13.9904,0.871549 14.7683,5.86226 0.994998,6.38392 -2.15624,12.4564 -9.47867,15.4155 -6.76864,2.73532 -20.0683,1.67596 -22.7011,-4.15485 z "/>
</g>
</svg>
