<svg width="48" version="1.0" xmlns="http://www.w3.org/2000/svg" height="48" xmlns:xlink="http://www.w3.org/1999/xlink">
<defs id="defs5">
<clipPath id="clipPath3341" clipPathUnits="userSpaceOnUse">
<path style="fill:#563c00;fill-rule:evenodd;stroke:none" id="path3343" d="m -1333.3652,532.0312 c 0,73.8126 -17.5111,106.896 -40.0937,149.312 l -77.2188,133.7188 17.3125,10 77.4063,-134.0312 .062,-.1562 .094,-.1562 c 22.6462,-42.5355 42.4375,-81.5794 42.4375,-158.688 h -20 z "/>
</clipPath>
<linearGradient id="linearGradient3564">
<stop offset="0" style="stop-color:#563c00" id="stop3566"/>
<stop offset="1" style="stop-color:#563c00;stop-opacity:0" id="stop3568"/>
</linearGradient>
<linearGradient gradientTransform="matrix(0.2105241,0,0,0.2105241,463.88566,-59.838021)" xlink:href="#linearGradient3564" id="linearGradient4053" y1="809.39612" x1="-1439.8972" y2="620.08234" gradientUnits="userSpaceOnUse" x2="-1274.3896"/>
</defs>
<g style="stroke:none">
<path style="opacity:.575;fill:url(#linearGradient4053);fill-rule:evenodd;clip-path:url(#clipPath3341)" id="path3308" d="m 187,52.1562 c -2e-5,15.5393 -3.68332,22.5079 -8.4375,31.4375 l -8.8125,14.5938 0,2.46875 8.6875,-15 0,-0.0625 0.0312,-0.0312 c 4.7676,-8.95474 8.9063,-17.1731 8.9063,-33.4062 l -0.375,0 z" transform="matrix(0.38095238,0,0,0.38095238,-0.6428571,2.4142857)"/>
<path style="fill:#ffb000" id="path4170" d="M 24,2.5 C 12.125,2.5 2.5,12.12496 2.5,24 2.5,35.875 12.12496,45.5 24,45.5 35.875,45.5 45.5,35.87504 45.5,24 45.5,12.125 35.87504,2.5 24,2.5 Z"/>
<path style="fill:#ff001c" id="path3086" d="m 26.3978,7.0637 c -4.7092,3.06696 -9.50893,5.83086 -13.0288,13.3173 -3.51987,7.4864 -3.7435,14.2833 -2.51367,20.5407 1.65333,1.17786 3.45641,2.38462 5.41034,3.0243 6.01771,-2.39698 11.4195,-6.87408 15.3653,-12.7317 3.94575,-5.85762 5.56874,-11.7926 5.82665,-17.7133 -1.83979,-0.240064 -3.84706,-0.738069 -6.55284,-2.26285 -2.52154,-1.42095 -3.30002,-2.78842 -4.50695,-4.17438 Z "/>
<path style="fill:#fff" id="path4000" d="m 26.1757,3.9985 c 1.82418,0.096819 4.7807,1.23864 7.82387,3.13551 4.42644,2.75909 7.3418,6.07726 6.51447,7.40456 -0.827328,1.32729 -5.07846,0.169034 -9.50489,-2.59006 -4.42645,-2.75909 -7.3418,-6.07726 -6.51447,-7.40456 0.258541,-0.41478 0.851851,-0.589465 1.68102,-0.545458 z "/>
</g>
</svg>
