<svg width="48" version="1.1" xmlns="http://www.w3.org/2000/svg" height="48" xmlns:xlink="http://www.w3.org/1999/xlink">
<defs id="defs4">
<linearGradient id="linearGradient4370">
<stop offset="0" style="stop-color:#8a5b30" id="stop4372"/>
<stop offset="1" style="stop-color:#8a5b30;stop-opacity:0" id="stop4374"/>
</linearGradient>
<linearGradient xlink:href="#linearGradient4370" id="linearGradient3013" y1="38.127232" x1="8" y2="71.877235" gradientUnits="userSpaceOnUse" x2="8"/>
</defs>
<g id="layer1-1" transform="matrix(0.48664677,0,0,0.48664677,0.64095515,1.2017913)">
<g style="stroke:none" id="g11">
<path style="fill:url(#linearGradient3013)" id="rect5138" d="m 6,36 0,48 c 0,1.781762 0.7745675,3.371709 2,4.46875 L 8,36 6,36 z"/>
<rect width="84" x="6" y="6" rx="6" height="84" ry="0" style="fill:#c39d69" id="rect2419"/>
<rect width="82.104904" x="6.8614073" y="18" rx="5.8646359" height="24" ry="6" style="fill:#3c2510" id="rect2483"/>
<g style="fill:#ccaa7d" id="g16">
<path id="rect2481" d="M 12.7691,6.0816 C 6.61842,6.202279 6.60297,6.0965974 6.60297,12.06801 v 23.9456 c 0,6.01234 0.250969,5.85162 6.16613,5.98641 l 36.9968,-1.9955 V 4.08602 z"/>
<path id="path3262" d="m 83.6616,6.0816 c 5.52125,0.120679 5.64928,0.135676 5.64928,5.98641 v 23.9456 c 0,6.14714 -0.484337,6.12121 -5.64928,5.98641 L 49.7659,40.00452 V 4.08602 z"/>
</g>
</g>
<path style="opacity:.5;fill:#3a240f" id="path5008" d="m 54.1204,4.2666 -12.1204,0 .0602,25.3032 .1347,30.4302 l 5.6868,-.5202 6.0439,-.5524 .0326,-5.8375 .102,-23.5201 .0602,-25.3032 z "/>
<path style="fill:#d8cab2" id="polygon120" d="M 54.0602,4.1389 48,3.6951 41.9398,4.1389 42,29.9405 42.1346,59 l 5.6868,-0.4968 6.0439,-0.5275 0.0326,-5.5745 0.102,-22.4606 0.0602,-25.8016 z"/>
<g style="stroke:none" id="g22">
<rect width="1" x="47" y="4.1250005" height="35.714287" style="opacity:.2;fill:#8d6137" id="rect4363"/>
<rect width="1" x="48" y="4.1250005" height="35.714287" style="opacity:.2;fill:#fff" id="rect4365"/>
</g>
</g>
<path style="fill:#fff;stroke:none" id="path9" d="m 42.6442,32.6239 c -0.460441,-1.7221 -0.25632,-2.05465 -1.93759,-1.57429 l -1.3563,.3875 c -0.532835,-0.775035 -1.30787,-1.45319 -2.13134,-1.93759 l .218,-1.3321 c 0.299539,-1.83052 -0.454275,-1.41978 -2.01024,-1.62273 -1.7331,-0.23187 -2.15913,-0.748364 -2.42198,0.993012 l -.1938,1.2837 c -0.145319,0.04843 -0.339078,0.09688 -0.484394,0.145318 -0.581274,0.145319 -1.11411,0.435958 -1.59851,0.726594 l -1.0414,-.7992 c -1.40646,-1.07938 -1.45105,-0.303419 -2.42198,0.871915 -1.1616,1.37365 -1.71037,1.41462 -0.290637,2.51886 l 1.0899,.8477 c -0.193758,0.532836 -0.290637,1.11411 -0.290637,1.74382 l -1.3563,.3875 c -1.74254,0.497869 -1.22741,0.82255 -0.775035,2.34932 0.460437,1.7221 0.256319,2.05465 1.93759,1.57429 l 1.3563,-.3875 c 0.532836,0.775034 1.30787,1.45319 2.13134,1.93758 l -.218,1.3321 c -0.299538,1.83051 0.454277,1.41977 2.01025,1.62273 1.7331,0.231871 2.15913,0.748364 2.42198,-0.993011 l .1938,-1.2837 c 0.145319,-0.04843 0.339078,-0.09688 0.484395,-0.14532 0.581276,-0.145319 1.11411,-0.435956 1.59851,-0.726593 l 1.0414,.7992 c 1.25742,1.24983 1.45105,0.303419 2.42198,-0.871914 1.1616,-1.37365 1.71037,-1.41462 0.290637,-2.51886 l -1.0899,-.8477 c 0.193758,-0.532835 0.290638,-1.11411 0.290638,-1.74382 l 1.3563,-.3875 c 1.74254,-0.497869 1.22741,-0.822552 0.775034,-2.34932 z  m -7.8956,4.8197 c -1.35631,0.387518 -2.8095,-0.387516 -3.24545,-1.74382 -0.435957,-1.35631 0.387517,-2.80949 1.74383,-3.24545 1.35631,-0.387517 2.8095,0.387516 3.24545,1.74383 0.387516,1.35631 -0.387516,2.80949 -1.74383,3.24545 z "/>
</svg>
