<svg width="48" version="1.0" xmlns="http://www.w3.org/2000/svg" height="48" style="overflow:visible">
<path style="fill:#c19246" id="path32" d="m .8,3.2997 c -0.44,1e-07 -0.800003,0.360008 -0.800003,0.800014 v 39.8003 c 0,0.440009 0.360001,0.800015 0.800003,0.800015 h 46.4 c 0.440001,0 0.800003,-0.360008 0.800003,-0.800015 v -39.8003 c 0,-0.440009 -0.360002,-0.800015 -0.800003,-0.800015 Z "/>
<path style="fill:#293d27" id="path811" d="m 44.4001,6.1003 -40.8,0 c -0.44,0 -0.800003,0.360008 -0.800003,0.800014 v 34.1996 c 0,0.44001 0.360002,0.800015 0.800003,0.800015 h 40.8 c 0.440006,0 0.800003,-0.360007 0.800003,-0.800015 v -34.1996 c 0,-0.440009 -0.359997,-0.800014 -0.800003,-0.800014 z "/>
<g id="g4158" transform="translate(3.0318666e-4,1.7560717e-7)">
<g style="fill:#fff" id="g4964" transform="matrix(0.74115953,0,0,0.89690642,-11.403166,-20.612876)">
<path style="font-family:'Field Day Filter';text-align:start;stroke:none;line-height:125%;font-size:28px" id="text5124" d="m 33.872,41.1364 -.1923,3.077 c -0.455861,9e-06 -1.22511,0.007 -2.30775,0.02136 -1.01143,0.0285 -1.78068,0.04275 -2.30775,0.04274 -0.854728,9e-06 -1.62398,-0.02849 -2.30775,-0.08548 l -.0641,1.4958 c 1.79491,-0.08547 3.09837,-0.320512 3.91036,-0.705145 l .3633,2.9274 c -0.954449,0.470109 -2.49295,0.755016 -4.61551,0.85473 l -.2564,1.1325 h 0.811986 c 2.12256,3e-06 4.31634,0.05698 6.58137,0.170944 l -.2564,3.077 c -2.15106,-0.113963 -4.77933,-0.170945 -7.88482,-0.170945 -0.897459,0 -1.34619,-0.555569 -1.34619,-1.66671 0,-0.284907 0.156699,-1.23222 0.470097,-2.84195 0.142453,-0.641036 0.235048,-1.47439 0.277785,-2.50006 0.05698,-1.51 0.0926,-2.34336 0.10684,-2.50006 0.07122,-0.726504 0.156699,-1.22509 0.256418,-1.49577 0.199433,-0.541312 0.562691,-0.811974 1.08977,-0.811986 0.24217,1.2e-05 0.612549,0.03562 1.11114,0.106839 0.498584,0.07123 0.868965,0.106852 1.11114,0.106842 0.612546,1e-05 1.52425,-0.03561 2.73511,-0.106842 1.22509,-0.08546 2.12968,-0.128196 2.71374,-0.128208 m 7.4341,2.4573 -.3633,3.077 c -1.18237,-0.11395 -2.89894,-0.270649 -5.14971,-0.470092 l .2992,-3.077 c 1.18237,0.08548 2.9203,0.242182 5.21381,0.470099 m .1709,3.889 -.2778,3.077 c -1.48152,-0.113961 -2.4787,-0.170942 -2.99153,-0.170944 -1.08265,2e-06 -2.03709,0.113965 -2.86332,0.341888 l -.1282,-3.0343 c 0.911703,-0.256411 1.96586,-0.38462 3.16248,-0.384626 0.612547,6e-06 1.64534,0.05698 3.09837,0.170945 m 11.3281,1.3462 c -1.2e-05,0.59831 -0.04275,1.36044 -0.128209,2.28638 -0.113973,1.26784 -0.178078,2.02284 -0.192312,2.26502 h -1.88039 c 0.01423,-0.1567 0.09259,-0.804864 0.235047,-1.9445 0.09971,-0.797739 0.149568,-1.45303 0.149577,-1.96586 -9e-06,-1.56699 -0.427369,-2.35048 -1.28209,-2.35049 -0.398877,7e-06 -0.890341,0.163829 -1.4744,0.491467 0.113958,0.726519 0.170938,1.53138 0.170945,2.41459 -7e-06,0.569818 -0.05698,1.77355 -0.170945,3.6112 h -1.88039 c 0.11396,-1.76643 0.170941,-2.90606 0.170945,-3.41889 -4e-06,-1.13963 -0.106844,-1.93737 -0.320521,-2.39323 -0.142458,-0.05697 -0.284912,-0.08547 -0.427363,-0.08548 -0.541325,6e-06 -0.990056,0.277791 -1.34619,0.833355 -0.05698,1.70945 -0.299156,3.51861 -0.726514,5.42749 l -1.7308,-.7692 c 0.242171,-1.15387 0.420237,-2.52855 0.534201,-4.12404 0.07122,-1.3818 0.149577,-2.7636 0.235048,-4.14541 h 1.88039 l -.0214,.1282 c 0.512831,-0.256409 1.0043,-0.384617 1.4744,-0.384626 0.470095,9e-06 0.85472,0.13534 1.15388,0.405994 0.797736,-0.68377 1.73081,-1.02566 2.79922,-1.02567 1.85189,9e-06 2.77784,1.58125 2.77785,4.74371 m 12.2412,-3.9745 -.4487,3.0343 c -1.66672,-0.398865 -4.02433,-0.598301 -7.07283,-0.598307 -1.02567,6e-06 -1.51001,0.612558 -1.45303,1.83765 l .0427,.6838 c 1.36755,0.44161 2.67813,0.662413 3.93173,0.66241 0.527073,3e-06 1.78779,-0.09259 3.78215,-0.277784 l -.1282,3.077 c -2.67814,0.156699 -4.37334,0.235049 -5.0856,0.235049 -1.4103,0 -2.46445,-0.235049 -3.16248,-0.705146 -0.840477,-0.58406 -1.26072,-1.54562 -1.26072,-2.88469 0,-1.51001 0.220804,-2.74935 0.662411,-3.71805 0.598304,-1.32481 1.55274,-1.98722 2.86332,-1.98723 3.09124,9e-06 5.53432,0.213689 7.32925,0.641043 m 6.9536,-1.9399 c -6e-06,1.3004 -0.380053,2.10628 -1.14014,2.41764 -0.119056,0.04579 -0.883728,0.119056 -2.29402,0.219787 -0.915778,0.0641 -1.48813,0.444153 -1.71708,1.14014 0.329678,-0.0092 0.874563,-0.04579 1.63466,-0.109894 0.695986,-0.0641 1.24087,-0.09616 1.63466,-0.09616 0.63188,2e-06 1.19508,0.06868 1.68961,0.20605 l -.2885,1.9643 c -0.412106,-0.09158 -0.915781,-0.137367 -1.51103,-0.137367 -0.393788,0 -0.979883,0.02748 -1.75829,0.08243 -0.769253,0.05495 -1.35077,0.08242 -1.74455,0.08242 -0.357152,0 -0.618146,-0.2381 -0.782987,-0.714304 -0.11905,-0.338835 -0.178574,-0.737197 -0.178575,-1.19509 1e-06,-1.21798 0.325098,-2.04675 0.975298,-2.48633 0.412099,-0.274727 1.12182,-0.439567 2.12918,-0.494518 1.05314,-0.05494 1.75828,-0.18315 2.11544,-0.384626 0.04578,-0.494512 -0.421261,-0.741771 -1.40114,-0.741777 -0.467048,6e-06 -1.05314,0.06411 -1.75829,0.192313 -0.760092,0.137371 -1.32787,0.297632 -1.70334,0.480781 l -.2335,-1.8957 c 1.07146,-0.521985 2.22991,-0.782981 3.47537,-0.782988 0.833348,7e-06 1.49729,0.160269 1.99181,0.480781 0.576934,0.384633 0.8654,0.975307 0.865407,1.77202"/>
</g>
</g>
<g style="opacity:.4" id="g4170" transform="matrix(1.042652,0,0,1.042652,0.4997908,1.8454004)">
<path id="path4172" d="m 13.1044,27.1508 c -0.558008,-0.193364 -1.04472,-0.134075 -1.08733,0.132526 l -6.5664,13.7856 1.9855,.8432 6.566,-13.784 -.0414,-.0178 c 0.03914,-0.03566 0.06859,-0.07673 0.07634,-0.129039 0.04185,-0.265052 -0.37588,-0.637053 -0.932726,-0.830417 z "/>
</g>
<g id="g4166" transform="matrix(1.042652,0,0,1.042652,1.3683e-4,0.94563671)">
<path style="fill:#dcdcdc" id="path4168" d="m 13.1044,27.1508 c -0.558008,-0.193364 -1.04472,-0.134075 -1.08733,0.132526 l -6.5664,13.7856 1.9855,.8432 6.566,-13.784 -.0414,-.0178 c 0.03914,-0.03566 0.06859,-0.07673 0.07634,-0.129039 0.04185,-0.265052 -0.37588,-0.637053 -0.932726,-0.830417 z "/>
</g>
</svg>
