<svg width="48" version="1.1" xmlns="http://www.w3.org/2000/svg" viewBox="0 0 48 48" height="48" xmlns:xlink="http://www.w3.org/1999/xlink" style="overflow:visible;enable-background:new 0 0 128 128">
<defs>
<linearGradient id="linearGradient1">
<stop offset="0" style="stop-opacity:.8"/>
<stop offset="1" style="stop-color:#fff"/>
</linearGradient>
<linearGradient gradientTransform="rotate(135.64118,23.557063,10.776157)" xlink:href="#linearGradient1" id="linearGradient2" y1="3.4904659" x1="52.864334" y2="-0.83853215" x2="53.012661" gradientUnits="userSpaceOnUse"/>
</defs>
<g>
<path style="fill:#3080ca" d="m 48,37.1089 a 11.3557,10.8537 0 1,1 -22.7113,0 11.3557,10.8537 0 1,1 22.7113,0 z "/>
<path style="opacity:.5;fill:#fff" d="m 37.3802,26.3592 c -0.139866,-0.0054 -0.269532,-0.0016 -0.36132,0.02007 h -1.94712 c -0.531799,0.07079 -1.06016,0.162445 -1.56572,0.3011 0.194269,0.590082 -0.01411,1.31327 0.562054,1.30477 0.331643,0.468813 -0.656492,0.140505 0.06022,0.501835 0.412149,0.32455 -0.430121,0.511682 0.08029,0.802932 -0.588268,0.303514 0.08497,1.58562 0.521906,1.90697 0.719144,0.605339 0.321675,-1.2869 1.12411,-1.38506 0.436028,-0.49772 1.20252,-0.804076 1.74638,-1.30477 -0.531517,-0.04315 -0.844622,-0.377216 -0.341245,-0.582128 0.926441,0.949214 0.231811,-0.461024 -0.281026,-0.682491 0.496234,-0.157831 0.99223,-0.03219 0.923375,-0.441612 0.393306,-0.287709 -0.102315,-0.425386 -0.521906,-0.441613 z  m -6.2227,1.2446 c -0.425973,0.225401 -0.834261,0.48871 -1.22447,0.762789 0.635949,0.123266 1,-0.163763 1.26462,0.521906 0.748485,0.431319 -5.6e-05,1.1698 -0.281025,1.36499 0.506078,-0.440688 1.47949,1.20708 1.22447,0.341245 -0.304245,-0.222117 0.802468,0.360556 0.220807,-0.361319 -0.535286,-0.862305 0.05535,-0.381917 0.281025,-0.18066 0.767568,-0.688196 -0.870081,-0.77719 -0.461686,-1.48543 -0.268403,-0.217362 -0.607607,-0.775409 -1.02374,-0.963519 z  m 12.1443,.7026 c -0.796034,0.400403 -1.18034,1.2828 -1.64601,2.02741 -0.79739,0.359469 -0.770397,1.89819 0.12044,1.40513 0.238431,0.41637 -0.172578,1.0864 0.521907,0.54198 0.560167,-0.741203 0.110619,-1.94143 1.06388,-2.4088 0.06944,0.363409 -0.887582,1.70847 0.220807,1.48543 1.002,0.03781 -0.72822,0.102748 -0.240879,0.742715 -0.506332,-0.30038 -0.242385,0.822866 -0.903301,0.562054 -0.572569,0.31141 -0.954169,-0.142812 -0.823005,-0.642347 -0.450424,0.262734 0.139558,1 -0.642348,1.04381 -0.175151,0.621886 -1.60195,0.531004 -0.782857,1.16425 0.363656,0.942364 -1.37115,0.05346 -0.883226,1.18433 0.417445,1.11826 1.29108,-0.374782 1.64601,-0.662421 0.642013,-0.49794 1.5781,0.743537 1.18433,0.94345 0.565964,-0.144129 0.422384,-0.743398 -0.100367,-0.983593 -0.299015,-0.775403 0.952306,0.394094 0.883225,0.782858 0.439475,0.822834 0.255354,-0.857717 0.702567,-0.12044 -0.05221,0.777711 1.80722,0.193138 0.923374,1.18433 -0.759907,0.153037 -1.51369,-0.203411 -2.16792,0.02007 -0.608912,-0.0054 -0.581244,-0.660109 -0.802931,-0.823009 -0.774542,0.06292 -1.72969,0.05686 -2.24821,0.682491 -0.560722,0.769225 -1.37394,1.84813 -0.76279,2.83035 0.611583,1.45551 2.13919,0.08385 3.011,0.943447 0.259131,0.358413 -0.238161,0.776027 0.341245,1.16425 0.218026,0.826989 -0.234372,1.61825 0.3011,2.4088 0.276891,0.743472 0.434781,1.84363 1.46535,1.16425 1.09072,-0.656295 0.806249,-1.85914 1.70623,-2.52924 -0.712122,-1.378 0.869577,-1.97261 1.26462,-3.09129 -0.863092,0.126339 -1.61814,-0.73986 -1.82668,-1.60586 -0.362574,-0.420639 -0.284569,-1.05116 0.120439,-0.260954 0.556687,0.539351 0.576095,2.14814 1.60587,1.32484 0.47078,-0.196887 1.74706,-0.942907 0.722641,-1.28469 -0.660337,0.478218 -1.39121,-1.42736 -0.421541,-0.321174 0.560561,0.237793 0.992804,0.382189 1.14418,-0.06022 0,-2.69147 -1.03274,-5.14903 -2.72997,-7.04576 -0.157629,0.15891 -0.46351,-0.01773 -0.301099,0.321173 -0.400788,-0.284259 -0.736035,-1.15672 0,-0.662421 -0.50761,-0.523126 -1.06014,-1.00579 -1.66609,-1.4252 z  m -9.4947,.1004 c -0.4,0.3332 0.760355,0.395948 0,0 z  m -3.7135,.1806 c -0.03856,0.396108 -0.552735,1.20925 -0.48176,0.220806 -0.145874,0.172931 -0.233127,0.135421 -0.3011,0.02007 -2.08796,1.68997 -3.50636,4.08672 -3.89422,6.80486 0.111324,0.255056 0.28152,0.471212 0.582128,0.622273 0.174472,0.323581 0.909693,1.69717 0.94345,1.2847 -0.367027,-0.384311 -0.741484,-1.52872 -0.12044,-0.501833 0.556274,0.976126 1.29255,1.61446 2.38873,1.84675 0.599314,0.203832 1.0989,0.896879 1.62594,0.742715 0.298024,0.785536 -0.882699,1.53561 0.04015,2.26829 0.481771,0.741723 1.28099,1.22696 0.843083,2.26829 -0.25302,0.840276 -0.195259,1.74666 -0.321174,2.56939 0.284305,0.142023 0.565336,0.282393 0.863151,0.401467 0.112849,-0.494007 0.253609,-0.955763 0.622274,-1.30477 0.833855,0.0066 0.155893,-0.900839 0.983592,-0.782858 0.505069,-0.661932 0.653157,-1.44339 1.5055,-1.70623 0.101813,-0.803485 1.4191,-2.03575 0.06022,-2.34858 -0.369327,-0.182013 -1.33729,-0.251439 -1.26462,-0.341248 0.147232,-0.797269 -1.22077,-1.01873 -1.8066,-1.34491 -0.769171,-0.545902 -1.917,0.890465 -2.18799,-0.361319 -0.161696,-0.393852 -0.753471,-0.395936 -0.481761,-1.00367 -0.489674,0.486951 -1.45515,0.338196 -1.2044,-0.602197 0.380807,-0.792 1.83843,-0.83219 2.08763,0.12044 -0.345994,-1.05064 0.681206,-1.86207 1.24454,-2.60953 0.114704,-0.357268 0.796587,-0.655485 0.562054,-0.18066 0.399573,-0.01441 0.990848,-0.734234 0.281025,-0.401467 -0.01005,-0.657508 -0.624602,-0.474755 -0.823005,-0.381393 0.367728,-0.583571 2.25618,-0.270593 1.46535,-1.22447 -0.612791,-0.248267 -0.544435,-1.69034 -1.16425,-0.883226 0.05216,-0.497295 -1.27321,-1.47626 -1.24454,-0.642347 0.160357,0.746193 0.04016,1.59851 -0.301101,2.08763 -0.07121,-1.09342 -1.94602,-0.842172 -1.70623,-2.00733 0.347391,-0.55532 0.764256,-1.3337 0.802932,-1.26462 0.622577,-0.23767 1.12302,-0.910507 0.401467,-1.36499 z  m .9635,.4617 c -0.338744,0.554852 0.500522,0.204849 0,0 z  m 7.407,.6423 c -0.396586,0.456523 -0.914842,-0.111364 -0.923373,0.281025 0.07187,0.118564 0.352882,0.965719 0.983593,0.341248 0.338502,-0.142696 0.206915,-0.512142 -0.06022,-0.622273 z  m -8.4308,.281 c -0.752225,0.656845 1.25866,0.722326 0.140512,0.08029 l -.1405,-.0803 z  m 9.8962,1.8467 c -0.485565,0.360486 0.266756,1.07923 0,1.4252 -0.33936,0.5912 1.27635,-0.05022 0.421537,-0.521906 -0.05329,-0.354593 -0.407729,-0.774791 -0.421537,-0.903299 z  m -.3412,.6825 c -0.75457,0.213305 -0.186963,1.31827 0.08029,0.281026 0.01502,-0.06014 0.05107,-0.283038 -0.08029,-0.281026 z  m -6.0421,.8029 c -0.701982,0.47861 -0.113,0.958061 0.401466,0.742715 -0.105618,-0.28877 -0.396706,-0.472434 -0.401466,-0.742715 z  m 11.4619,.8029 c -0.04753,0.46848 1,1.20116 -0.140516,0.963518 -0.603336,0.07077 -1.50279,-0.01109 -0.742712,-0.762789 0.240171,-0.144166 0.870127,0.479233 0.54198,-0.12044 0.116337,-0.0074 0.231653,-0.045 0.341245,-0.08029 z  m 1.7865,0 c 0.350263,0.176747 -0.628237,0.471795 0,0.782857 0.365595,0.42988 0.212847,1.35567 -0.381393,0.702565 0.110402,-0.729196 -0.804238,-1.26989 0.381393,-1.48543 z  m -5.2793,1.0237 c -0.440066,0.283478 0.304299,0.500843 0,0 z  m -11.0604,2.6296 c -0.07419,0.247479 1.393,0.49686 0.381394,0.100367 l -.1405,-.0402 -.2409,-.0602 z  m 1.1442,.3613 c -0.444662,0.451363 0.916142,0.13485 0,0 z  m 14.8743,4.1351 c -0.551938,0.01424 -0.74253,0.8195 -0.68249,1.24454 0.256932,-0.335268 0.506621,-0.680854 0.722638,-1.04381 -0.0021,-0.07109 -0.0077,-0.138219 -0.04015,-0.200733 z "/>
</g>
<path style="fill:#a0a0a0;stroke:#505050;stroke-width:.5" d="m 41.7266,3.3601 c 0.124964,0.068734 0.205183,0.197107 0.212752,0.339608 9e-05,0.00371 0,0.00783 0,0.011539 0.0033,0.138068 -0.06277,0.269154 -0.176742,0.3482 0,0 -4.91863,3.42292 -5.21792,3.63139 -0.02821,0.3343 -0.277695,3.28557 -0.301479,3.56409 0.173704,0.225497 2.81708,3.65447 3.16151,4.10183 0.547767,-0.250774 6.88236,-3.1512 6.88236,-3.1512 0.134592,-0.06181 0.292086,-0.04624 0.412533,0.04034 0.105341,0.07581 0.168051,0.196355 0.171149,0.324531 0,0.01772 0,0.03589 -0.0024,0.05408 -0.335508,3.1117 -1.8554,5.96667 -3.97985,7.54178 -0.02551,0.08763 -0.06344,0.173497 -0.138417,0.227682 -1.17868,0.849137 -3.14676,1.45549 -3.87908,1.66289 -0.01552,0.449871 -0.06554,1.89483 -0.06554,1.89483 -0.0072,0.215437 -0.179475,0.388679 -0.394523,0.397589 l -2.3408,.0991 c -0.226166,0.0096 -0.417613,-0.165167 -0.429265,-0.391284 0,0 -0.06953,-1.39176 -0.09347,-1.87037 -0.375004,-0.05733 -0.893228,-0.136761 -0.893228,-0.136761 -0.75891,-0.09052 -5.31127,2.4996 -7.23491,3.35767 -0.15871,0.07064 -0.344336,0.03431 -0.465296,-0.09061 l -4.3139,-4.4843 c -0.138328,-0.143876 -0.154022,-0.366596 -0.03627,-0.52821 1.49863,-2.06268 4.3158,-5.87604 4.30329,-6.39369 -0.359525,-3.12895 0.539533,-6.4327 2.63642,-8.68006 3.12408,-3.34826 8.16871,-4.08418 12.1827,-1.87064 z "/>
<path style="fill:#0087a0" d="m 2.1612,37.8813 c 1.83142,-1.94371 20.4124,-17.6432 20.4124,-17.6432 l 5.0747,5.115 c 0,0 -16.373,17.36 -18.2035,19.3037 -1.83057,1.94451 -4.94427,2.0037 -6.95615,0.133107 -2.01064,-1.87063 -2.15799,-4.96364 -0.327434,-6.90856 z  m 2.0726,5.0135 c 0.935815,0.892039 2.41788,0.856208 3.30908,-0.08 0.891643,-0.935393 0.855812,-2.41745 -0.07998,-3.30826 -0.935815,-0.892042 -2.41788,-0.856213 -3.30908,0.08 -0.891651,0.934983 -0.855824,2.41704 0.07997,3.30826 z "/>
<g style="stroke-width:.5">
<rect width="4.9939094" x="-36.300201" y="-14.709003" rx="0.76486957" height="4.0719094" style="fill:#f0f0f0;stroke:#505050" transform="matrix(-0.64484535,-0.76431308,-0.76431308,0.64484535,0,0)"/>
<path style="opacity:.2;fill:url(#linearGradient2);stroke-linejoin:round" d="m 23.9706,25.668 -13.3532,14.0063 -2.9206,-3.1988 14.4727,-12.7624 Z "/>
</g>
</svg>
