<svg width="96" version="1.0" xmlns="http://www.w3.org/2000/svg" height="96" xmlns:xlink="http://www.w3.org/1999/xlink">
<defs>
<linearGradient id="linearGradient3778">
<stop offset="0"/>
<stop offset="0.5" style="stop-opacity:0"/>
<stop offset="1" style="stop-color:#fff"/>
</linearGradient>
<linearGradient id="linearGradient5">
<stop offset="0" style="stop-color:#fff"/>
<stop offset="1" style="stop-color:#b2b2b2"/>
</linearGradient>
<linearGradient id="linearGradient3">
<stop offset="0" style="stop-color:#ff9500"/>
<stop offset="1" style="stop-color:#b85d00"/>
</linearGradient>
<linearGradient id="linearGradient1">
<stop offset="0" style="stop-color:#f2f2f2"/>
<stop offset="1" style="stop-color:#737373"/>
</linearGradient>
<linearGradient id="linearGradient3745">
<stop offset="0" style="stop-color:#ccc"/>
<stop offset="0.40964222" style="stop-color:#ccc"/>
<stop offset="0.72741055" style="stop-color:#7a7a7a"/>
<stop offset="1" style="stop-color:#404040"/>
</linearGradient>
<linearGradient gradientTransform="matrix(0,1,1,0,-10,58)" xlink:href="#linearGradient3778" id="linearGradient3940" y1="24" x1="10" y2="24" gradientUnits="userSpaceOnUse" x2="18"/>
<linearGradient gradientTransform="translate(0,12)" xlink:href="#linearGradient3745" id="linearGradient3913" y1="22" x1="9" y2="26" gradientUnits="userSpaceOnUse" x2="9"/>
<linearGradient gradientTransform="translate(0,36)" xlink:href="#linearGradient3745" id="linearGradient3926" y1="22" x1="9" y2="26" gradientUnits="userSpaceOnUse" x2="9"/>
<linearGradient gradientTransform="matrix(0,1,1,0,-10,22)" xlink:href="#linearGradient3778" id="linearGradient3918" y1="24" x1="10" y2="24" gradientUnits="userSpaceOnUse" x2="18"/>
<linearGradient gradientTransform="matrix(0,1,1,0,-10,34)" xlink:href="#linearGradient3778" id="linearGradient3905" y1="24" x1="10" y2="24" gradientUnits="userSpaceOnUse" x2="18"/>
<linearGradient gradientTransform="matrix(1.0498945,0,0,1.0498945,-2.8818925,-0.82829568)" xlink:href="#linearGradient3" id="linearGradient4" y1="37.418316" x1="58.653893" y2="42.216969" x2="65.700554" gradientUnits="userSpaceOnUse"/>
<linearGradient xlink:href="#linearGradient3745" id="linearGradient3985" y1="22" x1="9" y2="26" gradientUnits="userSpaceOnUse" x2="9"/>
<linearGradient gradientTransform="matrix(1.0498945,0,0,1.0498945,-2.8818925,-0.82829568)" xlink:href="#linearGradient1" id="linearGradient2" y1="12.815916" x1="75.381699" y2="17.628529" x2="82.44165" gradientUnits="userSpaceOnUse"/>
<linearGradient gradientTransform="translate(0,48)" xlink:href="#linearGradient3745" id="linearGradient3935" y1="22" x1="9" y2="26" gradientUnits="userSpaceOnUse" x2="9"/>
<linearGradient gradientTransform="translate(0,24)" xlink:href="#linearGradient3745" id="linearGradient3900" y1="22" x1="9" y2="26" gradientUnits="userSpaceOnUse" x2="9"/>
<linearGradient gradientTransform="matrix(0,1,1,0,-10,46)" xlink:href="#linearGradient3778" id="linearGradient3931" y1="24" x1="10" y2="24" gradientUnits="userSpaceOnUse" x2="18"/>
<linearGradient gradientTransform="matrix(0,1,1,0,-10,10)" xlink:href="#linearGradient3778" id="linearGradient3983" y1="24" x1="10" y2="24" gradientUnits="userSpaceOnUse" x2="18"/>
<radialGradient fx="33.749451" fy="76.761742" cx="33.749451" cy="76.761742" gradientTransform="matrix(0.82106326,0.75969403,-1.5116163,1.633727,122.64162,-75.207003)" xlink:href="#linearGradient5" id="radialGradient11" r="6.9293799" gradientUnits="userSpaceOnUse"/>
</defs>
<path style="fill:#2e75b8" d="m 12,6 h 72 c 3.324,0 6,2.676 6,6 v 72 c 0,3.324 -2.676,6 -6,6 H 12 C 8.676,90 6,87.324 6,84 V 12 C 6,8.676 8.676,6 12,6 Z"/>
<path style="opacity:.1" d="m 80.1748,12.1966 c -0.36526,0.002 -0.682596,0.128639 -0.855468,0.382812 l -.7812,1.1484 c -0.384775,-0.212 -0.804158,-0.166415 -0.982422,0.0957 l -16.8496,24.8301 c -0.169534,0.249275 0.166725,0.790247 0.527344,1.10938 -0.509951,-0.297912 -1.0281,-0.410099 -1.24023,-0.109375 l -9.3984,13.3223 -10.7207,17.3535 c -0.145628,0.21411 -0.08454,0.522269 0.126953,0.78125 l -.0137,-.0078 -7.9141,7.8223 c 0.562018,1.47743 0.241245,4.24078 -0.599609,6.91406 l 3.7812,-5.5352 c -0.334583,-0.364836 -0.507529,-0.834824 -0.296876,-1.14453 0.263949,-0.388089 0.923059,-0.378221 1.47852,0 0.55544,0.378195 0.82843,1 0.564453,1.38867 -0.210638,0.309719 -0.707932,0.327954 -1.16992,0.150391 l -3.9648,5.8027 -.5859,.25 .0176,-.2441 c -0.06573,0.188727 -0.122715,0.378484 -0.193359,0.564453 4.19833,-2.1893 6.60059,-3.08035 9.65625,-2.26172 l 4.1699,-10.3164 c 0.347736,0.142861 0.702394,0.09892 0.861328,-0.134766 l 12.2012,-16.3457 9.3984,-13.3223 c 0.212953,-0.301996 -0.14394,-0.852675 -0.724609,-1.24805 l -2.6484,-1.8027 2.6816,1.7891 c 0.409246,0.278666 1.17075,0.528128 1.36523,0.242187 l 16.9023,-24.7949 c 0.194485,-0.285945 0.03425,-0.74086 -0.375,-1.01953 l .7812,-1.1484 c 0.345747,-0.508345 0.01271,-1.36983 -0.714844,-1.86524 l -3.3418,-2.2773 c -0.363782,-0.247705 -0.777318,-0.371136 -1.14258,-0.369141 Z  m -6.8242,2.5234 -13.168,19.375 -2.125,3.1309 -.166,.2402 .7305,.5098 c 0.816775,0.556155 2.02,0.170569 2.69922,-0.828125 0.546426,-0.803088 0.594334,-1.74904 0.162109,-2.38867 l 6.7207,-7.666 7.0039,-10.3633 c -0.408675,-0.278347 -0.561257,-0.730286 -0.367187,-1.01562 z "/>
<path style="opacity:.16" d="m 79.8384,11.9639 c -0.36526,0.002 -0.682596,0.128639 -0.855468,0.382812 l -.7812,1.1484 c -0.384775,-0.212 -0.804158,-0.166415 -0.982422,0.0957 l -16.8496,24.8301 c -0.169534,0.249275 0.166725,0.790247 0.527344,1.10938 -0.509951,-0.297912 -1.0281,-0.410099 -1.24023,-0.109375 l -9.3984,13.3223 -10.7207,17.3535 c -0.145628,0.21411 -0.08454,0.522269 0.126953,0.78125 l -.0137,-.0078 -7.9141,7.8223 c 0.562018,1.47743 0.241245,4.24078 -0.599609,6.91406 l 3.7812,-5.5352 c -0.334583,-0.364836 -0.507529,-0.834824 -0.296876,-1.14453 0.263949,-0.388089 0.923059,-0.378221 1.47852,0 0.55544,0.378195 0.82843,1 0.564453,1.38867 -0.210638,0.309719 -0.707932,0.327954 -1.16992,0.150391 l -3.9648,5.8027 -.5859,.25 .0176,-.2441 c -0.06573,0.188727 -0.122715,0.378484 -0.193359,0.564453 4.19833,-2.1893 6.60059,-3.08035 9.65625,-2.26172 l 4.1699,-10.3164 c 0.347736,0.142861 0.702394,0.09892 0.861328,-0.134766 l 12.2012,-16.3457 9.3984,-13.3223 c 0.212953,-0.301996 -0.14394,-0.852675 -0.724609,-1.24805 l -2.6484,-1.8027 2.6816,1.7891 c 0.409246,0.278666 1.17075,0.528128 1.36523,0.242187 l 16.9023,-24.7949 c 0.194485,-0.285945 0.03425,-0.74086 -0.375,-1.01953 l .7812,-1.1484 c 0.345747,-0.508345 0.01271,-1.36983 -0.714844,-1.86524 l -3.3418,-2.2773 c -0.363782,-0.247705 -0.777318,-0.371136 -1.14258,-0.369141 Z  m -6.8242,2.5234 -13.168,19.375 -2.125,3.1309 -.166,.2402 .7305,.5098 c 0.816775,0.556155 2.02,0.170569 2.69922,-0.828125 0.546426,-0.803088 0.594334,-1.74904 0.162109,-2.38867 l 6.7207,-7.666 7.0039,-10.3633 c -0.408675,-0.278347 -0.561257,-0.730286 -0.367187,-1.01563 Z "/>
<rect width="2" x="24" y="6" height="84" style="opacity:.17;fill:#fff"/>
<rect width="1" x="23" y="6" height="84" style="opacity:.4"/>
<rect width="17.54179" x="5.9757748" y="6.0075603" rx="0" height="84.016663" style="fill:#222;fill-rule:evenodd"/>
<path style="opacity:.3;fill:url(#linearGradient3918)" d="m 10,36 c 0,-2.20914 1.79086,-4 4,-4 2.20914,0 4,1.79086 4,4 0,2.20914 -1.79086,4 -4,4 -2.20914,0 -4,-1.79086 -4,-4 z m 1,0 c 0,1.65685 1.34315,3 3,3 1.65685,0 3,-1.34315 3,-3 0,-1.65685 -1.34315,-3 -3,-3 -1.65685,0 -3,1.34315 -3,3 z"/>
<path style="opacity:.6;fill:#7f7f7f" d="m 17,36 a 3,3 0 0 1 -6,0 3,3 0 1 1 6,0 z"/>
<path style="opacity:.3;fill:#fff;fill-rule:evenodd" d="m 5.9766,6.0078 v 84.0156 h 17.541 v -2 h -15.541 v -80.0156 h 15.541 v -2 h -17.541 z "/>
<rect width="12" x="4" y="34" rx="2" height="4" style="fill:url(#linearGradient3913)"/>
<path style="opacity:.3;fill:url(#linearGradient3905)" d="m 10,48 c 0,-2.20914 1.79086,-4 4,-4 2.20914,0 4,1.79086 4,4 0,2.20914 -1.79086,4 -4,4 -2.20914,0 -4,-1.79086 -4,-4 z m 1,0 c 0,1.65685 1.34315,3 3,3 1.65685,0 3,-1.34315 3,-3 0,-1.65685 -1.34315,-3 -3,-3 -1.65685,0 -3,1.34315 -3,3 z"/>
<path style="opacity:.6;fill:#7f7f7f" d="m 17,48 a 3,3 0 0 1 -6,0 3,3 0 1 1 6,0 z"/>
<rect width="12" x="4" y="46" rx="2" height="4" style="fill:url(#linearGradient3900)"/>
<path style="opacity:.3;fill:url(#linearGradient3931)" d="m 10,60 c 0,-2.20914 1.79086,-4 4,-4 2.20914,0 4,1.79086 4,4 0,2.20914 -1.79086,4 -4,4 -2.20914,0 -4,-1.79086 -4,-4 z m 1,0 c 0,1.65685 1.34315,3 3,3 1.65685,0 3,-1.34315 3,-3 0,-1.65685 -1.34315,-3 -3,-3 -1.65685,0 -3,1.34315 -3,3 z"/>
<path style="opacity:.6;fill:#7f7f7f" d="m 17,60 a 3,3 0 0 1 -6,0 3,3 0 1 1 6,0 z"/>
<rect width="12" x="4" y="58" rx="2" height="4" style="fill:url(#linearGradient3926)"/>
<path style="opacity:.3;fill:url(#linearGradient3940)" d="m 10,72 c 0,-2.20914 1.79086,-4 4,-4 2.20914,0 4,1.79086 4,4 0,2.20914 -1.79086,4 -4,4 -2.20914,0 -4,-1.79086 -4,-4 z m 1,0 c 0,1.65685 1.34315,3 3,3 1.65685,0 3,-1.34315 3,-3 0,-1.65685 -1.34315,-3 -3,-3 -1.65685,0 -3,1.34315 -3,3 z"/>
<path style="opacity:.6;fill:#7f7f7f" d="m 17,72 a 3,3 0 0 1 -6,0 3,3 0 1 1 6,0 z"/>
<rect width="12" x="4" y="70" rx="2" height="4" style="fill:url(#linearGradient3935)"/>
<path style="opacity:.3;fill:url(#linearGradient3983)" d="m 10,24 c 0,-2.20914 1.79086,-4 4,-4 2.20914,0 4,1.79086 4,4 0,2.20914 -1.79086,4 -4,4 -2.20914,0 -4,-1.79086 -4,-4 z m 1,0 c 0,1.65685 1.34315,3 3,3 1.65685,0 3,-1.34315 3,-3 0,-1.65685 -1.34315,-3 -3,-3 -1.65685,0 -3,1.34315 -3,3 z"/>
<path style="opacity:.6;fill:#7f7f7f" d="m 17,24 a 3,3 0 0 1 -6,0 3,3 0 1 1 6,0 z"/>
<rect width="12" x="4" y="22" rx="2" height="4" style="fill:url(#linearGradient3985)"/>
<path style="opacity:.2" d="m 79.5088,11.6956 c -0.36526,0.002 -0.682596,0.128639 -0.855468,0.382812 l -.7812,1.1484 c -0.384775,-0.212 -0.804158,-0.166415 -0.982422,0.0957 l -16.8496,24.8301 c -0.169534,0.249275 0.166725,0.790247 0.527344,1.10938 -0.509951,-0.297912 -1.0281,-0.410099 -1.24023,-0.109375 l -9.3984,13.3223 -10.7207,17.3535 c -0.145628,0.21411 -0.08454,0.522269 0.126953,0.78125 l -.0137,-.0078 -7.9141,7.8223 c 0.562018,1.47743 0.241245,4.24078 -0.599609,6.91406 l 3.7812,-5.5352 c -0.334583,-0.364836 -0.507529,-0.834824 -0.296876,-1.14453 0.263949,-0.388089 0.923059,-0.378221 1.47852,0 0.55544,0.378195 0.82843,1 0.564453,1.38867 -0.210638,0.309719 -0.707932,0.327954 -1.16992,0.150391 l -3.9648,5.8027 -.5859,.25 .0176,-.2441 c -0.06573,0.188727 -0.122715,0.378484 -0.193359,0.564453 4.19833,-2.1893 6.60059,-3.08035 9.65625,-2.26172 l 4.1699,-10.3164 c 0.347736,0.142861 0.702394,0.09892 0.861328,-0.134766 l 12.2012,-16.3457 9.3984,-13.3223 c 0.212953,-0.301996 -0.14394,-0.852675 -0.724609,-1.24805 l -2.6484,-1.8027 2.6816,1.7891 c 0.409246,0.278666 1.17075,0.528128 1.36523,0.242187 l 16.9023,-24.7949 c 0.194485,-0.285945 0.03425,-0.74086 -0.375,-1.01953 l .7812,-1.1484 c 0.345747,-0.508345 0.01271,-1.36983 -0.714844,-1.86524 l -3.3418,-2.2773 c -0.363782,-0.247705 -0.777318,-0.371136 -1.14258,-0.369141 Z  m -6.8242,2.5234 -13.168,19.375 -2.125,3.1309 -.166,.2402 .7305,.5098 c 0.816775,0.556155 2.02,0.170569 2.69922,-0.828125 0.546426,-0.803088 0.594334,-1.74904 0.162109,-2.38867 l 6.7207,-7.666 7.0039,-10.3633 c -0.408675,-0.278347 -0.561257,-0.730286 -0.367187,-1.01562 z "/>
<path style="opacity:.25" d="m 79.1752,11.3004 c -0.36526,0.002 -0.682596,0.128639 -0.855468,0.382812 l -.7812,1.1484 c -0.384775,-0.212 -0.804158,-0.166415 -0.982422,0.0957 l -16.8496,24.8301 c -0.169534,0.249275 0.166725,0.790247 0.527344,1.10938 -0.509951,-0.297912 -1.0281,-0.410099 -1.24023,-0.109375 l -9.3984,13.3223 -10.7207,17.3535 c -0.145628,0.21411 -0.08454,0.522269 0.126953,0.78125 l -.0137,-.0078 -7.9141,7.8223 c 0.562018,1.47743 0.241245,4.24078 -0.599609,6.91406 l 3.7812,-5.5352 c -0.334583,-0.364836 -0.507529,-0.834824 -0.296876,-1.14453 0.263949,-0.388089 0.923059,-0.378221 1.47852,0 0.55544,0.378195 0.82843,1 0.564453,1.38867 -0.210638,0.309719 -0.707932,0.327954 -1.16992,0.150391 l -3.9648,5.8027 -.5859,.25 .0176,-.2441 c -0.06573,0.188727 -0.122715,0.378484 -0.193359,0.564453 4.19833,-2.1893 6.60059,-3.08035 9.65625,-2.26172 l 4.1699,-10.3164 c 0.347736,0.142861 0.702394,0.09892 0.861328,-0.134766 l 12.2012,-16.3457 9.3984,-13.3223 c 0.212953,-0.301996 -0.14394,-0.852675 -0.724609,-1.24805 l -2.6484,-1.8027 2.6816,1.7891 c 0.409246,0.278666 1.17075,0.528128 1.36523,0.242187 l 16.9023,-24.7949 c 0.194485,-0.285945 0.03425,-0.74086 -0.375,-1.01953 l .7812,-1.1484 c 0.345747,-0.508345 0.01271,-1.36983 -0.714844,-1.86524 l -3.3418,-2.2773 c -0.363782,-0.247705 -0.777318,-0.371136 -1.14258,-0.369141 Z  m -6.8242,2.5234 -13.168,19.375 -2.125,3.1309 -.166,.2402 .7305,.5098 c 0.816775,0.556155 2.02,0.170569 2.69922,-0.828125 0.546426,-0.803088 0.594334,-1.74904 0.162109,-2.38867 l 6.7207,-7.666 7.0039,-10.3633 c -0.408675,-0.278347 -0.561257,-0.730286 -0.367187,-1.01562 z "/>
<path style="fill:url(#linearGradient2)" d="m 80.0237,11.3692 c -0.727564,-0.495409 -1.65195,-0.493897 -1.9977,0.01445 l -.7828,1.1484 c -0.384775,-0.212 -0.803967,-0.167108 -0.982231,0.09501 l -16.8498,24.8307 c -0.194475,0.285946 0.278914,0.954988 0.688176,1.23366 l 5.3077,3.5417 c 0.409246,0.278666 1.16977,0.527796 1.36425,0.241855 l 16.9019,-24.7952 c 0.194485,-0.285945 0.03428,-0.741491 -0.374974,-1.02016 l .7828,-1.1484 c 0.345747,-0.508345 0.01084,-1.36935 -0.716714,-1.86476 l -3.3408,-2.2773 Z "/>
<path style="fill:url(#radialGradient11)" d="m 38.6924,69.9061 -7.9125,7.8224 c 0.562019,1.47743 0.24153,4.24043 -0.599325,6.91371 l 3.7799,-5.5348 c -0.334583,-0.364836 -0.507974,-0.834599 -0.29732,-1.14431 0.263949,-0.388089 0.924659,-0.378614 1.48012,0 0.55544,0.378196 0.828096,1 0.564119,1.38805 -0.210638,0.309719 -0.709184,0.329284 -1.17117,0.151721 l -3.9638,5.8031 -.5862,.2498 .0175,-.2457 c -0.06573,0.188727 -0.123522,0.378431 -0.194166,0.5644 4.19833,-2.1893 6.60159,-3.07863 9.65726,-2.26 l 4.2015,-10.3916 Z "/>
<path style="fill:#f2f2f2" d="m 72.0565,13.5222 -13.1676,19.3754 -2.1247,3.1317 -.166,.2406 .73,.5101 c 0.816776,0.556156 2.0196,0.169531 2.69883,-0.829164 0.546427,-0.803089 0.595285,-1.74786 0.16306,-2.38749 l 6.7199,-7.6674 7.0044,-10.3624 c -0.408676,-0.278347 -0.561599,-0.730397 -0.367529,-1.01574 l -1.4902,-.9953 Z "/>
<path style="fill:url(#linearGradient4)" d="m 60.1236,38.6713 c -0.56397,-0.384001 -1.18729,-0.551366 -1.42507,-0.214288 l -9.3973,13.3218 -10.7216,17.3538 c -0.194489,0.285947 -0.02098,0.742001 0.38826,1.02069 l 4.4388,3.0228 c 0.409248,0.278693 0.89694,0.272789 1.09142,-0.01316 l 12.2012,-16.3462 9.3974,-13.3216 c 0.212953,-0.301996 -0.142176,-0.85339 -0.722846,-1.24876 z "/>
</svg>
