<svg width="96" version="1.0" xmlns="http://www.w3.org/2000/svg" height="96" xmlns:xlink="http://www.w3.org/1999/xlink">
<defs>
<linearGradient id="linearGradient3543">
<stop offset="0" style="stop-color:#fff"/>
<stop offset="0.3" style="stop-color:#fff"/>
<stop offset="0.5" style="stop-color:#fff;stop-opacity:.641"/>
<stop offset="1" style="stop-color:#fff;stop-opacity:0"/>
</linearGradient>
<radialGradient fx="74.375" fy="67.125" cx="74.375" cy="67.125" gradientTransform="matrix(1.5834493,0,0,1.581344,-51.465881,-72.524649)" r="3.125" id="radialGradient3445" xlink:href="#linearGradient3543" gradientUnits="userSpaceOnUse"/>
<radialGradient fx="74.375" fy="67.125" cx="74.375" cy="67.125" gradientTransform="matrix(0.56551763,0,0,0.5647657,40.324697,3.125717)" r="3.125" id="radialGradient3451" xlink:href="#linearGradient3543" gradientUnits="userSpaceOnUse"/>
<radialGradient fx="74.375" fy="67.125" cx="74.375" cy="67.125" gradientTransform="matrix(1.0219348,0,0,1.020576,-13.767893,-17.05768)" r="3.125" id="radialGradient3447" xlink:href="#linearGradient3543" gradientUnits="userSpaceOnUse"/>
<radialGradient fx="74.375" fy="67.125" cx="74.375" cy="67.125" gradientTransform="matrix(1.3572422,0,0,1.3554377,-71.400377,-54.007393)" r="3.125" id="radialGradient3216" xlink:href="#linearGradient3543" gradientUnits="userSpaceOnUse"/>
<radialGradient fx="74.375" fy="67.125" cx="74.375" cy="67.125" gradientTransform="matrix(1.0744835,0,0,1.0730548,-37.646045,-14.226709)" r="3.125" id="radialGradient3443" xlink:href="#linearGradient3543" gradientUnits="userSpaceOnUse"/>
<radialGradient fx="74.375" fy="67.125" cx="74.375" cy="67.125" gradientTransform="matrix(0.84547158,0,0,0.84434747,17.421212,-32.053757)" r="3.125" id="radialGradient3354" xlink:href="#linearGradient3543" gradientUnits="userSpaceOnUse"/>
<radialGradient fx="63.875" fy="2.2173476" cx="63.875" cy="2.2173476" gradientTransform="matrix(1.0948456,0,0,0.33117465,-19.977092,32.656777)" r="58.375" id="radialGradient4248" xlink:href="#linearGradient3543" gradientUnits="userSpaceOnUse"/>
<radialGradient fx="69.75" fy="75.973572" cx="69.75" cy="75.973572" gradientTransform="matrix(2.2593878,-0.06832043,0.00797869,0.26385907,-104.08928,38.72661)" r="58.5" id="radialGradient4250" xlink:href="#linearGradient3543" gradientUnits="userSpaceOnUse"/>
<radialGradient fx="64.230392" fy="68.449158" cx="64.230392" cy="68.449158" gradientTransform="matrix(1.4544425,0,0,0.92610887,-43.212016,-12.73709)" r="43.769611" id="radialGradient4252" xlink:href="#linearGradient3543" gradientUnits="userSpaceOnUse"/>
<radialGradient fx="74.375" fy="67.125" cx="74.375" cy="67.125" gradientTransform="matrix(0.89260147,0,0,0.89141463,-49.743587,-28.507503)" r="3.125" id="radialGradient3449" xlink:href="#linearGradient3543" gradientUnits="userSpaceOnUse"/>
<radialGradient fx="49.233551" fy="70.608253" cx="49.233551" cy="70.608253" gradientTransform="matrix(0.46811249,-0.52911558,1.7948202,1.5821666,-110.16979,-37.480351)" r="25.483549" id="radialGradient4246" xlink:href="#linearGradient3543" gradientUnits="userSpaceOnUse"/>
</defs>
<path style="opacity:.2" d="m 91,48.1987 a 43,41.5229 0 1 1 -86,0 43,41.5229 0 1 1 86,0 z"/>
<path style="fill:#3080ca" d="m 90.0592,46.6794 a 42.2741,40.4051 0 1 1 -84.5477,0 42.2741,40.4051 0 1 1 84.5477,0 z"/>
<path style="opacity:.45;fill:#fff" d="M 50.5249,6.6611 C 50.004225,6.64093 49.52151,6.655 49.17981,6.73583 h -7.24857 c -1.97974,0.263543 -3.94667,0.604737 -5.82874,1.12091 0.723211,2.19671 -0.05254,4.88894 2.09237,4.85729 1.23461,1.74526 -2.44394,0.52306 0.224182,1.86819 1.53432,1.20821 -1.60122,1.90485 0.298909,2.98909 -2.18996,1.1299 0.316316,5.90283 1.94291,7.0991 2.67717,2.25351 1.1975,-4.79077 4.18474,-5.1562 1.62321,-1.85287 4.47663,-2.99335 6.50129,-4.85729 -1.97869,-0.160618 -3.14429,-1.40427 -1.27036,-2.1671 3.44888,3.53366 0.862966,-1.71626 -1.04618,-2.54072 1.84734,-0.587563 3.69379,-0.119833 3.43746,-1.644 1.46417,-1.07106 -0.38089,-1.58359 -1.94291,-1.644 z m -23.1655,4.6332 c -1.58578,0.839106 -3.10572,1.81933 -4.55836,2.83965 2.36746,0.458886 3.72017,-0.609643 4.70782,1.94291 2.7864,1.60568 0,4.35484 -1.04618,5.08146 1.88399,-1.64056 5.50773,4.49363 4.55836,1.27036 -1.13262,-0.826879 2.98736,1.34225 0.822002,-1.34509 -1.99272,-3.21012 0.206056,-1.42177 1.04618,-0.672546 2.85744,-2.56196 -3.23907,-2.89326 -1.71873,-5.52983 -1,-0.809176 -2.26195,-2.88663 -3.8111,-3.58691 z m 45.21,2.6155 c -2.96341,1.49059 -4.39407,4.77552 -6.12765,7.54747 -2.96846,1.3382 -2.86797,7.06643 0.448365,5.23091 0.887607,1.55003 -0.642458,4.04437 1.94291,2.01764 2.08535,-2.75929 0.411806,-7.22739 3.96055,-8.96728 0.258494,1.35287 -3.30422,6.36015 0.822004,5.52983 3.73016,0.140751 -2.71096,0.382503 -0.896732,2.76492 -1.88493,-1.11823 -0.902331,3.0633 -3.36273,2.09237 -2.13152,1.15929 -3.55211,-0.531651 -3.06382,-2.39128 -1.6768,0.978088 0.519534,3.72 -2.39128,3.88582 -0.652041,2.31511 -5.96362,1.97678 -2.91436,4.33418 1.35379,3.50816 -5.10442,0.199003 -3.288,4.40892 1.55403,4.16298 4.80632,-1.39521 6.12765,-2.46601 2.39003,-1.85369 5.87481,2.76798 4.40892,3.5122 2.10693,-0.536551 1.57242,-2.76746 -0.373637,-3.66164 -1.11315,-2.88661 3.54517,1.4671 3.288,2.91436 1.63604,3.06318 0.950611,-3.19304 2.61546,-0.448363 -0.19437,2.8952 6.72776,0.718997 3.43746,4.40892 -2.82892,0.569715 -5.63506,-0.757243 -8.07056,0.07473 -2.26681,-0.02017 -2.16381,-2.4574 -2.98909,-3.06383 -2.8834,0.234224 -6.43914,0.211666 -8.36946,2.54072 -2.08741,2.86361 -5.11478,6.88009 -2.83965,10.5366 2.27675,5.41847 7.96361,0.312157 11.2091,3.51219 0.964672,1.33427 -0.886606,2.88893 1.27036,4.33418 0.811648,3.07865 -0.872501,6.02428 1.12091,8.96728 1.03079,2.76774 1.61857,6.86331 5.4551,4.33419 4.06045,-2.4432 3.00144,-6.92104 6.35182,-9.41565 -2.65103,-5.12991 3.23719,-7.34347 4.70783,-11.508 -3.21305,0.470327 -6.02389,-2.75429 -6.8002,-5.97818 -1.34976,-1.56592 -1.05937,-3.91317 0.44836,-0.971458 2.07239,2.00785 2.14464,7.99693 5.97819,4.932 1.75258,-0.732957 6.50381,-3.51018 2.69019,-4.78256 -2.45825,1.78027 -5.17909,-5.31365 -1.56928,-1.19564 2.08681,0.885234 3.69593,1.42278 4.25945,-0.224182 0,-10.0196 -3.8446,-19.1684 -10.1629,-26.2294 -0.58681,0.591577 -1.72552,-0.066 -1.12091,1.19564 -1.49202,-1.05822 -2.74005,-4.30615 0,-2.46601 -1.88969,-1.94745 -3.94661,-3.74426 -6.20238,-5.30564 z m -35.346,0.3736 c -1.48889,1.24041 2.83059,1.474 0,0 z m -13.8245,0.6725 c -0.143554,1.4746 -2.05768,4.5017 -1.79346,0.822 -0.543049,0.643771 -0.867864,0.504134 -1.12091,0.07473 -7.7729,6.29127 -13.0532,15.2137 -14.4971,25.3326 0.414428,0.949502 1.04802,1.75419 2.1671,2.31655 0.649507,1.2046 3.38653,6.31808 3.5122,4.78256 -1.36634,-1.43068 -2.76034,-5.691 -0.448365,-1.86818 2.07085,3.63384 4.81178,6.01018 8.89257,6.87493 2.23108,0.75881 4.09089,3.33883 6.05292,2.76492 1.10946,2.92433 -3.28604,5.71665 0.149464,8.4442 1.7935,2.76123 4.76876,4.56762 3.13856,8.4442 -0.94192,3.12811 -0.726894,6.50232 -1.19564,9.56511 1.05839,0.52871 2.10459,1.05127 3.21327,1.49455 0.420106,-1.83905 0.944114,-3.55804 2.31655,-4.85729 3.10421,0.02457 0.580347,-3.35357 3.66164,-2.91436 1.88023,-2.46419 2.43152,-5.37335 5.60455,-6.35182 0.379023,-2.99115 5.28291,-7.57854 0.224182,-8.7431 -1.3749,-0.677581 -4.97837,-0.936036 -4.70782,-1.27037 0.548106,-2.96801 -4.54458,-3.79243 -6.72546,-5.00673 -2.86341,-2.03224 -7.13646,3.31495 -8.14529,-1.34509 -0.601947,-1.4662 -2.80496,-1.47396 -1.79346,-3.73637 -1.82292,1.81278 -5.41712,1.25901 -4.48365,-2.24181 1.41764,-2.94839 6.84397,-3.09801 7.77165,0.448362 -1.28804,-3.91123 2.53594,-6.93195 4.63309,-9.71455 0.427014,-1.33001 2.96547,-2.44019 2.09237,-0.672547 1.4875,-0.05365 3.68865,-2.73335 1.04618,-1.49455 -0.0374,-2.44772 -2.32522,-1.76738 -3.06382,-1.41982 1.36895,-2.17247 8.39913,-1.00734 5.4551,-4.55836 -2.28125,-0.924225 -2.02678,-6.29264 -4.33418,-3.288 0.194182,-1.85129 -4.73982,-5.49569 -4.63309,-2.39128 0.59697,2.77787 0.149504,5.95079 -1.12091,7.77165 -0.265109,-4.0705 -7.24449,-3.13517 -6.35182,-7.47274 1.29324,-2.0673 2.84511,-4.965 2.98909,-4.70782 2.31768,-0.884779 4.18071,-3.38956 1.49455,-5.08146 z m 3.5869,1.7187 c -1.26105,2.06556 1.8633,0.762598 0,0 z m 27.5743,2.3912 c -1.47638,1.69951 -3.4057,-0.414577 -3.43746,1.04618 0.26757,0.441378 1.31368,3.5951 3.66164,1.27037 1.26015,-0.531219 0.770289,-1.90656 -0.224183,-2.31655 z M 23.1745,20.112 c -2.80032,2.44525 4.68562,2.68902 0.523091,0.298909 l -0.523,-0.2989 z m 36.8407,6.8749 c -1.80762,1.34199 0.993064,4.01767 0,5.30564 -1.26334,2.20087 4.75151,-0.186961 1.56927,-1.94291 C 61.386072,29.02958 60.06661,27.4653 60.0152,26.9869 Z m -1.2703,2.5407 c -2.80905,0.794076 -0.696009,4.90755 0.298909,1.04618 0.05593,-0.223871 0.190108,-1.05367 -0.298909,-1.04618 z m -22.493,2.9891 c -2.61328,1.78173 -0.420663,3.56659 1.49455,2.76492 -0.393191,-1.07501 -1.47683,-1.75874 -1.49455,-2.76492 z m 42.6694,2.9891 c -0.17692,1.74402 3.724,4.47157 -0.5231,3.58691 -2.24605,0.263442 -5.59448,-0.04127 -2.76491,-2.83965 0.89409,-0.536692 3.23924,1.78405 2.01764,-0.448365 0.43309,-0.02761 0.86238,-0.167516 1.27036,-0.298909 z m 6.6508,0 c 1.30393,0.65798 -2.33875,1.75636 0,2.91436 1.36101,1.60032 0.79237,5.04679 -1.41982,2.61545 0.411,-2.71459 -2.99395,-4.72743 1.41982,-5.52983 z m -19.6534,3.811 c -1.63824,1.05531 1.13282,1.8645 0,0 z M 24.744,49.1062 c -0.276189,0.921295 5.18576,1.84967 1.41982,0.373637 l -0.523,-0.1495 -0.8968,-0.2241 z m 4.2594,1.3452 c -1.65535,1.6803 3.41054,0.502009 0,0 z m 55.373,15.3938 c -2.05471,0.05301 -2.76423,3.05077 -2.54072,4.63309 0.95649,-1.24811 1.88601,-2.53463 2.69018,-3.88581 -0.008,-0.264663 -0.0287,-0.514552 -0.14946,-0.747274 z"/>
<path style="fill:url(#radialGradient4246)" d="m 10.0039,28.5859 a 42.2741,40.4051 0 0,0 -0.947265,1.85547 c 12.4356,2.20468 20.4807,6.88231 25.6309,12.6289 5.2006,5.80283 7.4879,12.7391 8.22266,19.4727 1.11986,10.2627 -1.39781,19.9193 -2.66406,23.9531 a 42.2741,40.4051 0 0,0 1.99023,0.347656 c 1.34348,-4.33677 3.79962,-14.0752 2.66016,-24.5176 -0.76739,-7.0326 -3.18532,-14.4135 -8.7207,-20.5898 -5.39499,-6.01973 -13.7351,-10.84 -26.1719,-13.1504 z "/>
<path style="fill:url(#radialGradient4252)" d="m 81.7676,22.6797 c -13.3806,5.74809 -25.6715,16.8013 -35.0859,28.4941 -5.71128,7.09347 -10.3608,14.4277 -13.5293,21.002 -1.90667,3.95616 -3.27842,7.61504 -4.01562,10.8301 a 42.2741,40.4051 0 0,0 1.87695,0.845703 c 0.66923,-3.08065 2.00588,-6.79061 3.94141,-10.8066 3.08867,-6.4087 7.66205,-13.6357 13.2832,-20.6172 9.38418,-11.6552 21.7023,-22.5846 34.8184,-28.0957 a 42.2741,40.4051 0 0,0 -1.28906,-1.65234 z "/>
<g style="fill-rule:evenodd">
<path style="fill:url(#radialGradient3216)" d="m 33.7859,36.9764 a 4.24138,4.23574 0 0,1 -8.48276,0 4.24138,4.23574 0 1,1 8.48276,0 z "/>
<path style="fill:url(#radialGradient3443)" d="m 45.6264,57.8021 a 3.35776,3.3533 0 0,1 -6.71552,0 3.35776,3.3533 0 1,1 6.71552,0 z "/>
<path style="fill:url(#radialGradient3445)" d="m 71.2515,33.6231 a 4.94828,4.9417 0 0,1 -9.89656,0 4.94828,4.9417 0 1,1 9.89656,0 z "/>
<path style="opacity:.6;fill:url(#radialGradient3447)" d="m 65.4321,51.4485 a 3.19355,3.1893 0 0,1 -6.38709,0 3.19355,3.1893 0 1,1 6.38709,0 z "/>
<path style="opacity:.7;fill:url(#radialGradient3449)" d="m 19.433,31.3287 a 2.78938,2.78567 0 0,1 -5.57876,0 2.78938,2.78567 0 1,1 5.57876,0 z "/>
<path style="opacity:.6;fill:url(#radialGradient3451)" d="m 84.1523,41.0356 a 1.76724,1.7649 0 0,1 -3.53449,0 1.76724,1.7649 0 1,1 3.53449,0 z "/>
</g>
<path style="fill:url(#radialGradient4248)" d="m 54.2676,31.8066 c -15.0997,-0.067211 -31.579,5.11646 -45.791,14.9355 l 1.1367,1.6465 c 13.8872,-9.59469 30.0123,-14.6472 44.6465,-14.582 14.6342,0.06514 27.7225,5.21064 35.8086,15.9492 l 1.5977,-1.2031 c -8.52587,-11.3226 -22.2988,-16.6789 -37.3984,-16.7461 Z "/>
<path style="opacity:.6;fill:url(#radialGradient4250)" d="m 88.959,37.8438 c -6.88176,3.88273 -34.9382,18.7175 -77.9902,28.627 a 42.2741,40.4051 0 0,0 0.773438,1.36133 c 42.2231,-9.77506 70.033,-24.2558 77.5586,-28.4629 a 42.2741,40.4051 0 0,0 -0.341797,-1.52539 z "/>
<path style="opacity:.6;fill:url(#radialGradient3354);fill-rule:evenodd" d="m 82.9453,24.6231 a 2.6421,2.63859 0 0,1 -5.2842,0 2.6421,2.63859 0 1,1 5.2842,0 z "/>
</svg>
