<svg width="96" version="1.0" xmlns="http://www.w3.org/2000/svg" height="96">
<g style="stroke:none" id="g7">
<path style="fill:#3080ca" id="path2985" d="m 90.9998,48 a 43,41.0989 0 1,1 -85.9996,0 43,41.0989 0 1,1 85.9996,0 z "/>
<path style="opacity:.6;fill:#fff" id="path3522-9" d="m 50.7686,9.9497 c -0.501806,-0.019501 -0.967034,-0.0058 -1.29635,0.072014 h -6.98593 c -1.90801,0.253994 -3.80367,0.582825 -5.61754,1.08029 0.697003,2.11712 -0.05063,4.7118 2.01656,4.68129 1.18987,1.68203 -2.35539,0.504107 0.21606,1.80049 1.47872,1.16443 -1.5432,1.83583 0.288078,2.88079 -2.11061,1.08895 0.304855,5.68895 1.87251,6.84188 2.58017,2.17186 1.15411,-4.61718 4.03311,-4.96937 1.5644,-1.78574 4.31443,-2.88489 6.26572,-4.68129 -1.90699,-0.1548 -3.03036,-1.35339 -1.22433,-2.08858 3.32391,3.40562 0.831698,-1.65407 -1.00828,-2.44866 1.7804,-0.566274 3.55995,-0.115483 3.31291,-1.58444 1.41112,-1.03225 -0.367091,-1.52621 -1.87251,-1.58443 z  m -22.3261,4.4653 c -1.52832,0.808703 -2.99319,1.75341 -4.39319,2.73676 2.28168,0.442259 3.58538,-0.587552 4.53724,1.87251 2.68544,1.5475 -0.000202,4.19705 -1.00828,4.89734 1.81573,-1.58111 5.30816,4.33082 4.3932,1.22434 -1.09158,-0.796919 2.87912,1.29362 0.792218,-1.29636 -1.92052,-3.09381 0.198582,-1.37025 1.00828,-0.648176 2.7539,-2.46913 -3.1217,-2.78843 -1.65645,-5.32947 -0.962985,-0.779855 -2.17999,-2.78203 -3.67301,-3.45694 z  m 43.5719,2.5207 c -2.85604,1.43658 -4.23486,4.60248 -5.90562,7.274 -2.8609,1.28971 -2.76405,6.81038 0.43212,5.04137 0.855446,1.49386 -0.61918,3.89783 1.87251,1.94453 2.00979,-2.65931 0.396887,-6.96552 3.81704,-8.64236 0.249125,1.30385 -3.18449,6.1297 0.792219,5.32947 3.595,0.135655 -2.61274,0.368641 -0.86424,2.66473 -1.81664,-1.07771 -0.869637,2.9523 -3.24089,2.01656 -2.05429,1.11728 -3.42341,-0.512388 -2.95281,-2.30464 -1.61604,0.942648 0.500709,3.58521 -2.30464,3.74502 -0.628412,2.23123 -5.74754,1.90516 -2.80876,4.17714 1.30474,3.38105 -4.91946,0.191793 -3.16886,4.24917 1.49772,4.01214 4.63217,-1.34465 5.90562,-2.37666 2.30343,-1.78652 5.66194,2.66769 4.24916,3.38494 2.0306,-0.517111 1.51545,-2.66718 -0.360098,-3.52897 -1.07282,-2.78201 3.41672,1.41394 3.16886,2.80876 1.57676,2.95219 0.916169,-3.07734 2.52069,-0.432117 -0.18732,2.7903 6.48399,0.692945 3.31291,4.24917 -2.72642,0.549072 -5.43089,-0.729804 -7.77813,0.07201 -2.18467,-0.0195 -2.08541,-2.36836 -2.88079,-2.95281 -2.77892,0.225741 -6.20583,0.203999 -8.06621,2.44866 -2.01178,2.75986 -4.92946,6.6308 -2.73676,10.1548 2.19425,5.22214 7.67506,0.300849 10.803,3.38494 0.929718,1.28592 -0.854481,2.78425 1.22433,4.17714 0.782239,2.9671 -0.840887,5.806 1.0803,8.64236 0.993445,2.66746 1.55992,6.61463 5.25744,4.17714 3.91333,-2.35467 2.89268,-6.67026 6.12167,-9.07449 -2.55498,-4.94404 3.1199,-7.07739 4.53725,-11.091 -3.09663,0.453283 -5.80563,-2.65449 -6.5538,-5.76157 -1.30086,-1.50919 -1.02099,-3.77138 0.432117,-0.936261 1.99729,1.9351 2.06693,7.70718 5.76157,4.7533 1.68908,-0.706398 6.26815,-3.38299 2.59272,-4.60927 -2.36917,1.71576 -4.99143,-5.12111 -1.51242,-1.15232 2.0112,0.853161 3.56201,1.37123 4.10512,-0.216057 0,-9.65659 -3.70531,-18.4738 -9.79469,-25.279 -0.565544,0.570143 -1.663,-0.06361 -1.0803,1.15232 -1.43795,-1.01988 -2.64076,-4.15012 0,-2.37666 -1.82122,-1.87689 -3.80361,-3.60859 -5.97765,-5.1134 z  m -34.0653,.36 c -1.43494,1.19546 2.72803,1.42059 0,0 z  m -13.3236,.6481 c -0.138349,1.42117 -1.98312,4.33859 -1.72848,0.792215 -0.523371,0.620447 -0.836414,0.48587 -1.08029,0.07204 -7.49126,6.06332 -12.5802,14.6625 -13.9718,24.4147 0.39941,0.9151 1.01004,1.69063 2.08858,2.23261 0.625971,1.16095 3.26383,6.08915 3.38493,4.60927 -1.31684,-1.37884 -2.66032,-5.48479 -0.43212,-1.80049 1.99581,3.50218 4.63744,5.7924 8.57036,6.62582 2.15024,0.731314 3.94266,3.21785 5.8336,2.66474 1.06926,2.81837 -3.16698,5.50952 0.14405,8.13823 1.72852,2.66118 4.59597,4.40212 3.02483,8.13823 -0.907791,3.01476 -0.700556,6.26671 -1.15232,9.21853 1.02004,0.509555 2.02834,1.01318 3.09684,1.4404 0.404885,-1.77242 0.909906,-3.42912 2.23261,-4.68129 2.99173,0.02367 0.559321,-3.23206 3.52896,-2.80876 1.8121,-2.37491 2.34342,-5.17866 5.40147,-6.12168 0.365288,-2.88277 5.09149,-7.30394 0.21606,-8.42631 -1.32508,-0.653028 -4.79799,-0.902117 -4.53724,-1.22434 0.528249,-2.86047 -4.37992,-3.65501 -6.48177,-4.82532 -2.75966,-1.95861 -6.87788,3.19483 -7.85016,-1.29635 -0.580137,-1.41308 -2.70332,-1.42055 -1.72847,-3.60099 -1.75686,1.7471 -5.22084,1.21339 -4.32119,-2.16058 1.36627,-2.84156 6.59598,-2.98576 7.49005,0.432115 -1.24137,-3.76951 2.44405,-6.68078 4.46522,-9.36256 0.411545,-1.28182 2.85802,-2.35178 2.01656,-0.648177 1.43361,-0.05171 3.55499,-2.63431 1.00828,-1.4404 -0.03605,-2.35902 -2.24097,-1.70334 -2.95281,-1.36838 1.31935,-2.09375 8.0948,-0.970838 5.25744,-4.39319 -2.19859,-0.890736 -1.95334,-6.06464 -4.17714,-3.16887 0.187134,-1.78421 -4.56808,-5.29656 -4.46522,-2.30463 0.575338,2.67722 0.144088,5.73517 -1.0803,7.49005 -0.255502,-3.923 -6.982,-3.02157 -6.12167,-7.20198 1.24638,-1.99239 2.74203,-4.7851 2.88079,-4.53724 2.2337,-0.85272 4.02923,-3.26675 1.44039,-4.89735 z  m 3.457,1.6565 c -1.21536,1.99073 1.79578,0.734968 0,0 z  m 26.5752,2.3046 c -1.42289,1.63793 -3.28229,-0.399557 -3.31291,1.00828 0.257875,0.425384 1.26608,3.46483 3.52897,1.22433 1.21449,-0.511973 0.742378,-1.83748 -0.216062,-2.23261 z  m -30.2484,1.0083 c -2.69885,2.35665 4.51584,2.59158 0.504136,0.288078 l -.5041,-.2881 z  m 35.5058,6.6258 c -1.74212,1.29336 0.957081,3.87209 0,5.1134 -1.21756,2.12112 4.57935,-0.18019 1.51241,-1.87251 -0.191196,-1.27222 -1.46286,-2.77982 -1.51241,-3.24089 z  m -1.2243,2.4486 c -2.70727,0.765305 -0.67079,4.72973 0.288078,1.00828 0.0539,-0.215758 0.183216,-1.01549 -0.288078,-1.00828 z  m -21.678,2.8808 c -2.51859,1.71717 -0.405421,3.43736 1.4404,2.66474 -0.378943,-1.03606 -1.42332,-1.69501 -1.4404,-2.66474 z  m 41.1233,2.8808 c -0.170504,1.68082 3.58907,4.30954 -0.50414,3.45694 -2.16467,0.253899 -5.39177,-0.03979 -2.66473,-2.73676 0.861697,-0.517247 3.12188,1.71941 1.94453,-0.43212 0.417404,-0.02661 0.831135,-0.161455 1.22434,-0.288079 z  m 6.4099,0 c 1.25668,0.634137 -2.25402,1.69272 0,2.80876 1.31169,1.54234 0.763658,4.86393 -1.36838,2.52069 0.396104,-2.61623 -2.88547,-4.55614 1.36838,-5.32947 z  m -18.9413,3.6729 c -1.57888,1.01707 1.09178,1.79695 0,0 z  m -39.6829,9.4347 c -0.26618,0.887914 4.99787,1.78265 1.36838,0.360098 l -.5041,-.1441 -.8643,-.216 z  m 4.1051,1.2964 c -1.59537,1.61941 3.28696,0.483819 0,0 z  m 53.3666,14.836 c -1.98026,0.0511 -2.66407,2.94023 -2.44866,4.46522 0.921835,-1.20288 1.81767,-2.44279 2.59271,-3.74502 -0.0075,-0.255073 -0.02773,-0.495909 -0.14405,-0.720199 z "/>
</g>
</svg>
