<svg width="48" version="1.1" xmlns="http://www.w3.org/2000/svg" viewBox="0 0 48 48" height="48" xmlns:xlink="http://www.w3.org/1999/xlink" style="overflow:visible;enable-background:new 0 0 128 128">
<defs>
<linearGradient id="linearGradient1">
<stop offset="0" style="stop-opacity:.8"/>
<stop offset="1" style="stop-color:#fff"/>
</linearGradient>
<linearGradient gradientTransform="translate(-1.491475,0.18)" xlink:href="#linearGradient16" id="linearGradient17" y1="42.53705" x1="34.083" y2="42.53705" x2="47.9" gradientUnits="userSpaceOnUse"/>
<linearGradient gradientTransform="rotate(135.64118,23.557063,10.776157)" xlink:href="#linearGradient1" id="linearGradient2" y1="3.4904659" x1="52.864334" y2="-0.83853215" x2="53.012661" gradientUnits="userSpaceOnUse"/>
<linearGradient id="linearGradient16">
<stop offset="0" style="stop-color:#fff"/>
<stop offset="0.5"/>
<stop offset="1" style="stop-color:#fff"/>
</linearGradient>
<linearGradient gradientTransform="translate(-7.4914753,-10.32)" xlink:href="#linearGradient16" id="linearGradient20" y1="42.53705" x1="34.083" y2="42.53705" gradientUnits="userSpaceOnUse" x2="47.9"/>
<linearGradient gradientTransform="translate(-5.4914753,-6.82)" xlink:href="#linearGradient16" id="linearGradient19" y1="42.53705" x1="34.083" y2="42.53705" gradientUnits="userSpaceOnUse" x2="47.9"/>
<linearGradient gradientTransform="translate(-3.4914753,-3.32)" xlink:href="#linearGradient16" id="linearGradient18" y1="42.53705" x1="34.083" y2="42.53705" gradientUnits="userSpaceOnUse" x2="47.9"/>
</defs>
<path style="fill:#00c220" d="m 26.6534,27 c 7.75505,4.6801 6.75505,-2.3199 13.755,2.4341 v 8 c -7,-5.754 -6,2.246 -13.8169,-2.434 z "/>
<path style="opacity:.1;fill:url(#linearGradient20)" d="m 26.6534,27 c 7.75505,4.6801 6.75505,-2.3199 13.755,2.4341 v 8 c -7,-5.754 -6,2.246 -13.8169,-2.434 z "/>
<path style="fill:#f00" d="m 28.6534,30.5 c 7.75505,4.6801 6.75505,-2.3199 13.755,2.4341 v 8 c -7,-5.754 -6,2.246 -13.8169,-2.434 z "/>
<path style="opacity:.1;fill:url(#linearGradient19)" d="m 28.6534,30.5 c 7.75505,4.6801 6.75505,-2.3199 13.755,2.4341 v 8 c -7,-5.754 -6,2.246 -13.8169,-2.434 z "/>
<path style="fill:#d9b72b" d="m 30.6534,34 c 7.75505,4.6801 6.75505,-2.3199 13.755,2.4341 v 8 c -7,-5.754 -6,2.246 -13.8169,-2.434 z "/>
<path style="opacity:.1;fill:url(#linearGradient18)" d="m 30.6534,34 c 7.75505,4.6801 6.75505,-2.3199 13.755,2.4341 v 8 c -7,-5.754 -6,2.246 -13.8169,-2.434 z "/>
<path style="fill:#2b94d9" d="m 32.6534,37.5 c 7.75505,4.6801 6.75505,-2.3199 13.755,2.4341 v 8 c -7,-5.754 -6,2.246 -13.8169,-2.434 z "/>
<path style="opacity:.1;fill:url(#linearGradient17)" d="m 32.6534,37.5 c 7.75505,4.6801 6.75505,-2.3199 13.755,2.4341 v 8 c -7,-5.754 -6,2.246 -13.8169,-2.434 z "/>
<path style="fill:#a0a0a0;stroke:#505050;stroke-width:.5" d="m 41.7266,3.3601 c 0.124964,0.068734 0.205183,0.197107 0.212752,0.339608 9e-05,0.00371 0,0.00783 0,0.011539 0.0033,0.138068 -0.06277,0.269154 -0.176742,0.3482 0,0 -4.91863,3.42292 -5.21792,3.63139 -0.02821,0.3343 -0.277695,3.28557 -0.301479,3.56409 0.173704,0.225497 2.81708,3.65447 3.16151,4.10183 0.547767,-0.250774 6.88236,-3.1512 6.88236,-3.1512 0.134592,-0.06181 0.292086,-0.04624 0.412533,0.04034 0.105341,0.07581 0.168051,0.196355 0.171149,0.324531 0,0.01772 0,0.03589 -0.0024,0.05408 -0.335508,3.1117 -1.8554,5.96667 -3.97985,7.54178 -0.02551,0.08763 -0.06344,0.173497 -0.138417,0.227682 -1.17868,0.849137 -3.14676,1.45549 -3.87908,1.66289 -0.01552,0.449871 -0.06554,1.89483 -0.06554,1.89483 -0.0072,0.215437 -0.179475,0.388679 -0.394523,0.397589 l -2.3408,.0991 c -0.226166,0.0096 -0.417613,-0.165167 -0.429265,-0.391284 0,0 -0.06953,-1.39176 -0.09347,-1.87037 -0.375004,-0.05733 -0.893228,-0.136761 -0.893228,-0.136761 -0.75891,-0.09052 -5.31127,2.4996 -7.23491,3.35767 -0.15871,0.07064 -0.344336,0.03431 -0.465296,-0.09061 l -4.3139,-4.4843 c -0.138328,-0.143876 -0.154022,-0.366596 -0.03627,-0.52821 1.49863,-2.06268 4.3158,-5.87604 4.30329,-6.39369 -0.359525,-3.12895 0.539533,-6.4327 2.63642,-8.68006 3.12408,-3.34826 8.16871,-4.08418 12.1827,-1.87064 z "/>
<path style="fill:#0087a0" d="m 2.1612,37.8813 c 1.83142,-1.94371 20.4124,-17.6432 20.4124,-17.6432 l 5.0747,5.115 c 0,0 -16.373,17.36 -18.2035,19.3037 -1.83057,1.94451 -4.94427,2.0037 -6.95615,0.133107 -2.01064,-1.87063 -2.15799,-4.96364 -0.327434,-6.90856 z  m 2.0726,5.0135 c 0.935815,0.892039 2.41788,0.856208 3.30908,-0.08 0.891643,-0.935393 0.855812,-2.41745 -0.07998,-3.30826 -0.935815,-0.892042 -2.41788,-0.856213 -3.30908,0.08 -0.891651,0.934983 -0.855824,2.41704 0.07997,3.30826 z "/>
<g style="stroke-width:.5">
<rect width="4.9939094" x="-36.300201" y="-14.709003" rx="0.76486957" height="4.0719094" style="fill:#f0f0f0;stroke:#505050" transform="matrix(-0.64484535,-0.76431308,-0.76431308,0.64484535,0,0)"/>
<path style="opacity:.2;fill:url(#linearGradient2);stroke-linejoin:round" d="m 23.9706,25.668 -13.3532,14.0063 -2.9206,-3.1988 14.4727,-12.7624 Z "/>
</g>
</svg>
