<svg width="48" version="1.1" xmlns="http://www.w3.org/2000/svg" height="48">
<g style="color:#000">
<path style="fill:#d17c00;display:block" d="m 5.201,34.4777 -2e-4,6.6827 c -4.12e-5,1.37809 1.1249,2.47866 2.51085,2.47866 h 27.9734 c 1.38595,0 2.51085,-1.10057 2.51085,-2.47866 l 10e-5,-6.6827 z"/>
<g style="fill:#3d2400">
<path style="opacity:.05" d="m 5.201,34.6801 v 2 h 32.995 v -2 z"/>
<path style="opacity:.1" d="m 5.201,34.6801 v 1.5 h 32.995 v -1.5 z"/>
<path style="opacity:.2" d="m 5.201,34.6801 v 1 h 32.995 v -1 z"/>
</g>
</g>
<path style="fill:#009b20" d="m 30.0357,5.5345 c -0.385678,-0.018712 -0.776009,0.095633 -1.12666,0.321903 -2.58242,1.67017 -3.00646,7.40117 -3.38,10.1078 -0.177074,1.2857 -1.49092,1.59631 -1.54514,1.60952 l -.515,.161 .0644,.515 .2897,1.5773 .3219,.0644 1.5129,.4829 -2.3434,7.2112 h 1.97371 l 2.1724,-6.6961 1.9314,.5472 1.3842,-1.5773 -.3863,-.3863 c -0.03875,-0.04053 -0.900817,-1.01174 -0.354093,-2.18894 1.15084,-2.47811 3.84357,-7.56386 2.57523,-10.3653 -0.229644,-0.507617 -0.59852,-0.852116 -1.09447,-0.997901 l -1.0945,-.3219 c -0.123983,-0.036321 -0.257724,-0.0581435 -0.386284,-0.0643807 Z "/>
<path style="fill:#969b00" d="m 15.711,4.3756 c -1.37062,0.128113 -2.61181,1.10279 -2.73618,3.02589 -0.163992,2.53569 3.24239,13.2622 3.05808,15.2904 -0.261612,0.942259 -0.858717,3.99345 -1.17447,4.89345 H 24.2184 C 23.05659,26.24667 20.76516,23.22672 20.34641,21.91932 19.939588,20.52677 19.637556,7.77372 19.12318,6.40362 18.579975,4.95668 17.08162,4.24752 15.711,4.37563 Z m 0.515,1.2876 c 0.399389,0.013055 0.808702,0.134289 1.12666,0.354094 0.814782,0.563288 1.1245,1.79051 0.482855,2.70399 -0.641645,0.913481 -1.97607,1.05011 -2.89713,0.386284 -0.761998,-0.549183 -0.953147,-1.897 -0.386284,-2.70399 0.354287,-0.504369 1.00825,-0.762137 1.6739,-0.740378 z"/>
<path style="fill:#9b002b" d="m 2.9958,6.8221 -.6116,.3219 -1.3842,.7082 .0644,.3541 .5794,3.9272 c 0.127288,1.34611 1.80678,1.89694 2.54304,2.09237 l 3.7663,7.5325 -2.2211,1.191 .0644,2.6396 .7082,.0322 c 0.070735,0.0038 1.70663,0.116848 2.22113,1.6739 0.030738,0.09303 0.066719,0.195248 0.096571,0.289713 l 2.1565,0 h 4.24844 c -0.219766,-0.290429 -0.987544,-2.64418 -1.19009,-2.92984 -0.948785,-1.33729 -0.03852,-2.74151 0,-2.80056 l .3541,-.6116 -.515,-.4185 -1.6095,-1.2232 -.3863,.2253 -1.8027,.8691 -3.7985,-7.5004 c 0.260981,-0.671171 0.791494,-2.37711 -0.225332,-3.28342 l -.0322,-.0322 z "/>
<path style="fill:#007b9b" d="m 40.6263,8.3672 c -0.376978,0.015238 -0.703381,0.044192 -0.997901,0.096571 -2.85502,0.507757 -3.91674,2.02952 -4.53884,3.76627 -0.656572,1.83299 -0.556486,5.48365 -1.60952,7.24283 -0.516848,0.815077 -4.72602,5.07975 -7.75787,8.11248 l 2.0602,-5e-4 h 5.02169 c 1.72525,-2.48839 3.37091,-4.82841 4.12036,-5.37579 2.37012,-1.1467 5.00713,-1.96978 6.56683,-2.9937 1.25104,-0.821281 3.18293,-3.8513 3.50875,-5.72988 -1.69454,1.24759 -2.77144,1.92211 -3.92722,2.47866 -0.863771,0.415934 -1.99195,0.678292 -2.86494,0.03219 -0.751352,-0.55608 -0.957963,-1.11356 -1.12666,-1.60952 -0.359648,-1.05733 -0.185867,-2.50488 0.804758,-3.25122 1.21784,-0.917526 2.55655,-1.25242 4.15255,-1.86704 -0.880213,-0.776285 -2.28124,-0.947043 -3.41218,-0.90133 z"/>
<g style="color:#000">
<path style="opacity:.35;fill:#3d2400" d="m 5.201,34.6801 v 0.5 h 32.995 v -0.5 z"/>
<path style="fill:#ffaa05" d="m 5.4875,27.5728 -1.6481,7.119 h 35.7493 l -1.6481,-7.119 z"/>
</g>
</svg>
