<svg width="48" version="1.1" xmlns="http://www.w3.org/2000/svg" height="48" xmlns:xlink="http://www.w3.org/1999/xlink">
<defs>
<linearGradient id="linearGradient20">
<stop offset="0" style="stop-color:#008a1d"/>
<stop offset="1" style="stop-color:#00b227"/>
</linearGradient>
<linearGradient id="linearGradient16">
<stop offset="0" style="stop-color:#bd0000"/>
<stop offset="1" style="stop-color:#fa0000"/>
</linearGradient>
</defs>
<linearGradient gradientTransform="rotate(-145.97125,19.237356,17.353795)" xlink:href="#linearGradient20" id="linearGradient21" y1="22.931374" x1="6.1251235" y2="19.259069" x2="13.227151" gradientUnits="userSpaceOnUse"/>
<linearGradient gradientTransform="rotate(11.949498,20.180628,32.390148)" xlink:href="#linearGradient16" id="linearGradient17" y1="23.04681" x1="6.3403964" y2="19.259069" x2="13.227151" gradientUnits="userSpaceOnUse"/>
<g style="stroke:#505050;fill:#a0a0a0">
<path style="stroke-width:.3" d="m 41.6626,3.7356 c 0.08542,0.00416 0.162417,0.052226 0.203987,0.127019 0.001,0.00197 0.0021,0.00416 0.0032,0.00615 0.0381,0.073528 0.03695,0.161553 -0.0036,0.234119 0,0 -1.74979,3.13843 -1.85621,3.3295 0.07275,0.187554 0.714771,1.84343 0.775231,2 0.152924,0.07581 2.47939,1.228 2.78268,1.37844 0.229178,-0.279237 2.8794,-3.50866 2.8794,-3.50866 0.05625,-0.068712 0.145219,-0.101761 0.232898,-0.086799 0.07671,0.013136 0.14221,0.061586 0.177603,0.12984 0.0049,0.00942 0.0093,0.019432 0.01293,0.02977 0.637877,1.76496 0.570023,3.70318 -0.160306,5.11083 0.0093,0.05393 0.0115,0.110171 -0.01468,0.159098 -0.411713,0.767644 -1.31266,1.61215 -1.65269,1.91657 0.11,0.246487 0.463196,1.03824 0.463196,1.03824 0.0528,0.117978 0.0056,0.256652 -0.10798,0.31803 l -1.2352,.6692 c -0.11934,0.06467 -0.268479,0.02087 -0.334245,-0.0979 0,0 -0.403625,-0.731635 -0.542442,-0.983228 -0.217139,0.0678 -0.517282,0.161307 -0.517282,0.161307 -0.432743,0.150885 -2.20427,2.74421 -3.01504,3.71266 -0.06693,0.07982 -0.176513,0.109085 -0.274567,0.07355 l -3.5043,-1.2813 c -0.112383,-0.04114 -0.17944,-0.157013 -0.158514,-0.275074 0.264841,-1.50572 0.779569,-4.30166 0.636638,-4.57729 -1.01692,-1.5914 -1.40166,-3.6081 -0.86305,-5.37073 0.802464,-2.62607 3.32707,-4.3498 6.0723,-4.21312 z "/>
<path style="stroke-width:.5" d="m 25.9278,35.0972 -.436,-3.5119 c 0.665389,-1.59222 1.27377,-3.3114 1.48321,-5.01721 l 1.2864,-13.7776 3.4196,.4009 -1.2864,13.7776 c -0.209432,1.70581 -0.189708,3.63123 0.226588,5.21764 l -1.2738,3.3114 z "/>
</g>
<path style="fill:url(#linearGradient21)" d="m 24.8306,23.1123 .3401,-2.7696 c 0.781418,-0.811447 1.3709,-1.91893 1.53042,-3.21811 0.161291,-1.31367 -0.124247,-2.57103 -0.7,-3.54491 l .9532,-9.1012 c 0.317874,-3.03501 8.31527,-2.11787 7.94095,0.930894 l -.9532,9.1012 c -0.795219,0.813152 -1.37702,1.96884 -1.53832,3.28252 -0.159512,1.29917 0.145161,2.51148 0.707975,3.4805 l -.3401,2.7696 -7.9409,-.9309 z "/>
<path style="fill:#007b9b;stroke-width:.6" d="m 29.4256,32.7461 c 0.47546,-1.52917 6.35713,-14.8771 6.35713,-14.8771 l 4.0801,1.421 c 0,0 -4.25507,13.6617 -4.73004,15.1907 -0.47479,1.52937 -2.13698,2.38045 -3.71319,1.90182 -1.57555,-0.478978 -2.46869,-2.10683 -1.99401,-3.63642 z  m 2.4358,2.1562 c 0.738936,0.234456 1.5281,-0.174768 1.762,-0.913695 0.234354,-0.738604 -0.174868,-1.52776 -0.913468,-1.76156 -0.738937,-0.234459 -1.5281,0.174765 -1.762,0.913695 -0.234466,0.738385 0.174753,1.52754 0.913463,1.76156 z "/>
<g style="stroke:#505050;stroke-width:.3">
<rect width="2.9945078" x="-43.714439" y="-4.4053488" rx="0.45864028" height="2.4416471" style="fill:#f0f0f0" transform="matrix(-0.91480788,-0.40388927,-0.40388927,0.91480788,0,0)"/>
<path style="fill:#a0a0a0" d="m 23.7592,38.2034 c -0.07946,0.0316 -0.169457,0.01982 -0.238279,-0.0311 -0.0017,-0.0014 -0.0037,-0.0028 -0.0054,-0.0043 -0.06514,-0.05113 -0.100584,-0.131709 -0.09369,-0.214592 0,0 0.292509,-3.58133 0.310223,-3.79932 -0.143909,-0.140567 -1.41419,-1.38174 -1.53399,-1.49898 -0.170586,-0.0057 -2.76535,-0.09061 -3.10371,-0.10189 -0.09292,0.349088 -1.16728,4.38623 -1.16728,4.38623 -0.02274,0.08585 -0.09002,0.152778 -0.176022,0.175478 -0.07525,0.01982 -0.154952,0.0028 -0.215432,-0.0446 -0.0083,-0.0066 -0.01647,-0.01386 -0.02411,-0.02175 -1.3117,-1.34217 -2.05284,-3.13438 -1.97123,-4.7181 -0.03082,-0.04524 -0.05607,-0.09554 -0.05254,-0.150888 0.05673,-0.869233 0.526907,-2.01108 0.710289,-2.42902 -0.202219,-0.17878 -0.851673,-0.753093 -0.851673,-0.753093 -0.09693,-0.0855 -0.111375,-0.231295 -0.03346,-0.33419 l .847,-1.1208 c 0.08184,-0.108302 0.235712,-0.130214 0.344774,-0.04935 0,0 0.67044,0.49871 0.90101,0.670196 0.169566,-0.151632 0.403989,-0.361099 0.403989,-0.361099 0.331361,-0.316594 0.869471,-3.4108 1.20623,-4.62811 0.02785,-0.100382 0.11547,-0.172399 0.219407,-0.180714 l 3.7202,-.2854 c 0.119333,-0.0091 0.228362,0.06858 0.25822,0.184703 0.382688,1.48016 1.07241,4.23815 1.31668,4.42982 1.5848,1.02718 2.77039,2.70333 3.01032,4.53073 0.357465,2.72258 -1.22629,5.33727 -3.78153,6.35006 z "/>
</g>
<path style="fill:#969b00;stroke-width:.65" d="m 23.3221,22.9052 -4.4624,.4149 c 0,0 -2.03613,-15.3779 -2.25401,-17.0991 -0.218258,-1.72164 1.03918,-3.30729 2.80873,-3.54278 1.76906,-0.234854 3.38078,0.969828 3.59878,2.6916 0.217998,1.72177 0.308922,17.5354 0.308922,17.5354 z  m -5.0067,-16.8764 c 0.100425,0.833727 0.858323,1.4284 1.6918,1.32744 0.834101,-0.100465 1.42878,-0.858372 1.32777,-1.69222 -0.100211,-0.833562 -0.858113,-1.42824 -1.692,-1.32761 -0.833893,0.100633 -1.42857,0.858541 -1.32756,1.69238 Z "/>
<g style="stroke:#505050">
<rect width="2.9945078" x="18.829296" y="-29.856821" rx="0.45864028" height="2.4416473" style="fill:#f0f0f0;stroke-width:.3" transform="matrix(1,-0.03051285,-0.03051285,-1,0,0)"/>
<path style="fill:#a0a0a0;stroke-width:.5" d="m 9.5018,3.557 1.7241,3.0904 c -0.0181,1.72557 0.06436,3.54735 0.511473,5.20679 l 4.5267,15.1765 -3.3195,.9139 -4.5267,-15.1765 c -0.447121,-1.65943 -1.18914,-3.43624 -2.17122,-4.74983 l -.0644,-3.5474 Z "/>
</g>
<path style="fill:#c8c8c8;stroke:#000;stroke-linejoin:round;stroke-linecap:round;stroke-width:.159;stroke-dashoffset:1.088" d="m 9.5018,3.557 1.7241,3.0904 c -0.355633,5.53507 -2.35778,4.67512 -4.97927,1.37088 l -.0644,-3.5474 Z "/>
<path style="fill:url(#linearGradient17)" d="m 15.5634,16.1763 .7259,2.6943 c -0.419098,1.04566 -0.549058,2.29351 -0.208531,3.55737 0.344331,1.27796 1.08156,2.33578 1.98122,3.0218 l 1.9977,6.8663 c 0.852515,2.93011 -6.90938,5.08817 -7.70851,2.12228 l -1.9977,-6.8663 c 0.431247,-1.05243 0.535977,-2.34206 0.19165,-3.62003 -0.34053,-1.26385 -1.07855,-2.27273 -1.96434,-2.95914 l -.7259,-2.6943 7.7085,-2.1223 Z "/>
<g style="color:#000">
<path style="fill:#d17c00;display:block" d="m 7.48695,36.4777 0,6.6827 c 0,1.37809 1.1249,2.47866 2.51085,2.47866 H 37.971 c 1.38595,0 2.51085,-1.10057 2.51085,-2.47866 l 0,-6.6827 z"/>
<g style="fill:#3d2400">
<path style="opacity:.05" d="m 7.487,36.6801 v 2 h 32.995 v -2 z "/>
<path style="opacity:.1" d="m 7.487,36.6801 v 1.5 h 32.995 v -1.5 z "/>
<path style="opacity:.2" d="m 7.487,36.6801 v 1 h 32.995 v -1 z "/>
<path style="opacity:.35" d="m 7.487,36.6801 v 0.5 h 32.995 v -0.5 z "/>
</g>
<path style="fill:#ffaa05" d="m 7.7735,29.5728 -1.6481,7.119 h 35.7493 l -1.6481,-7.119 z "/>
</g>
</svg>
