<svg width="48" version="1.0" xmlns="http://www.w3.org/2000/svg" height="48" style="overflow:visible">
<path style="fill:#c19246" id="path32" d="m .8,3.2997 c -0.44,1e-07 -0.800003,0.360008 -0.800003,0.800014 v 39.8003 c 0,0.440009 0.360001,0.800015 0.800003,0.800015 h 46.4 c 0.440001,0 0.800003,-0.360008 0.800003,-0.800015 v -39.8003 c 0,-0.440009 -0.360002,-0.800015 -0.800003,-0.800015 Z "/>
<path style="fill:#293d27" id="path811" d="m 44.4001,6.1003 -40.8,0 c -0.44,0 -0.800003,0.360008 -0.800003,0.800014 v 34.1996 c 0,0.44001 0.360002,0.800015 0.800003,0.800015 h 40.8 c 0.440006,0 0.800003,-0.360007 0.800003,-0.800015 v -34.1996 c 0,-0.440009 -0.359997,-0.800014 -0.800003,-0.800014 z "/>
<g style="font-family:'Comic Sans MS';fill:#fff;text-align:start;stroke:none;word-spacing:0;line-height:125%;letter-spacing:0" id="g15" transform="matrix(1.042652,0,0,1.042652,-2.398e-5,3.289973)">
<path style="font-weight:bold" id="path4151" d="m 15.7979,20.1445 q -0.712802,-0.02707 -1.43463,-1.67824 -0.47821,-1.06469 -0.821077,-2.45421 -0.667689,0.09925 -2.18352,0.198502 -1.4256,0.09925 -2.18352,0.234593 -0.41505,0.99251 -1.44365,2.98655 -0.397004,0.649642 -1.10078,0.649642 -0.496255,0 -0.893259,-0.333844 -0.397004,-0.342866 -0.397004,-0.86619 0,-0.460164 1.31733,-3.1219 -0.126319,-0.279707 -0.108274,-0.523323 0.036091,-0.433095 0.875213,-0.676712 1.28124,-2.21961 2.85121,-4.60164 2.25571,-3.41965 2.77903,-3.41965 0.99251,0 1.32635,1.20003 0.180456,0.965441 0.568438,2.89632 0.550391,2.59857 1.3444,5.94604 0.06316,0.252638 0.460164,1.19101 0.324822,0.775962 0.324822,1.16394 0,0.523324 -0.397005,0.875214 -0.387981,0.35189 -0.884236,0.333844 z m -3.3655,-9.2574 q -0.703779,1.20906 -1.9399,3.29333 0.406025,-0.09023 1.26319,-0.144365 1.01056,-0.06316 1.27222,-0.09925 -0.216547,-1.17297 -0.595506,-3.04971 z"/>
<path style="font-weight:bold" id="path4153" d="m 26.4921,24.6077 q -2.10232,0.784985 -5.31444,0.784985 -0.54137,0 -0.974465,-0.451141 -0.424072,-0.45114 -0.424072,-0.965441 v -9.56419 q -0.02707,-0.613551 -0.04512,-1.2271 -0.02707,-0.694757 0.04512,-1.17297 0.126319,-0.848145 1.57899,-1.0286 0.685735,-0.198502 2.27375,-0.198502 1.70531,0 3.26626,1.10078 1.83163,1.28124 1.83163,3.2031 0,1.03762 -0.378958,1.75043 -0.297753,0.577461 -1.03762,1.23613 0.875213,0.424073 1.55193,1.28124 0.766939,0.956419 0.766939,1.90381 0,1.20003 -1.30831,2.27375 -0.875213,0.712802 -1.83163,1.07371 z  m -2.8602,-11.3778 q -1.16394,0 -1.39854,0.01805 l .009,1.9128 -.009,1.8948 q 0.821076,0.09925 1.23613,0.06316 2.76098,-0.216547 2.76098,-2.03013 0,-0.64062 -0.812054,-1.23613 -0.839122,-0.622574 -1.78652,-0.622574 z  m 1.0557,6.3791 q -0.821076,0 -2.45421,-0.06316 v 3.37453 q 1.55193,-0.08121 3.36551,-0.595506 1.58801,-0.451141 1.56997,-0.974464 -0.02707,-0.694757 -1.01958,-1.23613 -0.775963,-0.433095 -1.4617,-0.505278 z "/>
<path style="font-weight:bold" id="path4155" d="m 39.9035,23.6724 q -0.812053,0 -1.20003,-0.857168 -0.180456,-0.406026 -0.360913,-0.487232 -0.135342,-0.06316 -0.712802,-0.06316 -1.13688,0 -2.62564,1.76847 -2.08427,2.47225 -2.08427,4.62871 0,0.983486 0.658665,1.68727 0.658666,0.703779 1.57899,0.703779 0.893259,0 1.81359,-0.469186 0.324822,-0.171433 1.37147,-0.884236 0.70378,-0.469186 1.06469,-0.469186 0.541369,0 0.920327,0.397004 0.35189,0.369935 0.35189,0.848144 0,0.532347 -0.469186,0.92935 -2.48128,2.09329 -5.05278,2.09329 -2.03013,0 -3.42867,-1.47974 -1.33538,-1.42561 -1.33538,-3.35649 0,-3.02264 2.64369,-6.17161 2.24668,-2.67075 4.59261,-2.67075 0.397004,0 0.712802,0.02707 0.324822,0.02707 0.568438,0.08121 0.397004,-0.387981 0.956419,-0.387981 0.920327,0 1.13687,1.05567 0.153388,0.757917 0.153388,1.76847 0,0.451141 -0.261661,0.821076 -0.342867,0.487232 -0.992511,0.487232 z"/>
</g>
<g style="opacity:.4" id="g4170" transform="matrix(1.042652,0,0,1.042652,0.4997908,1.8454004)">
<path id="path4172" d="m 13.1044,27.1508 c -0.558008,-0.193364 -1.04472,-0.134075 -1.08733,0.132526 l -6.5664,13.7856 1.9855,.8432 6.566,-13.784 -.0414,-.0178 c 0.03914,-0.03566 0.06859,-0.07673 0.07634,-0.129039 0.04185,-0.265052 -0.37588,-0.637053 -0.932726,-0.830417 z "/>
</g>
<g id="g4166" transform="matrix(1.042652,0,0,1.042652,1.3683e-4,0.94563671)">
<path style="fill:#dcdcdc" id="path4168" d="m 13.1044,27.1508 c -0.558008,-0.193364 -1.04472,-0.134075 -1.08733,0.132526 l -6.5664,13.7856 1.9855,.8432 6.566,-13.784 -.0414,-.0178 c 0.03914,-0.03566 0.06859,-0.07673 0.07634,-0.129039 0.04185,-0.265052 -0.37588,-0.637053 -0.932726,-0.830417 z "/>
</g>
</svg>
