<svg width="48" version="1.0" xmlns="http://www.w3.org/2000/svg" viewBox="0 0 56.25 53.625" height="48" xmlns:xlink="http://www.w3.org/1999/xlink" style="overflow:visible">
<defs>
<linearGradient id="linearGradient1">
<stop offset="0" style="stop-color:#6f490b"/>
<stop offset="1" style="stop-color:#a1670c"/>
</linearGradient>
<linearGradient id="linearGradient3">
<stop offset="0" style="stop-color:#b2b2b2"/>
<stop offset="1" style="stop-color:#fff"/>
</linearGradient>
<linearGradient id="linearGradient3171">
<stop offset="0" style="stop-color:#fff"/>
<stop offset="1" style="stop-color:#fff;stop-opacity:.068"/>
</linearGradient>
<linearGradient xlink:href="#linearGradient1" id="linearGradient2" y1="29.063419" x1="29.491283" y2="24.025688" x2="24.50581" gradientUnits="userSpaceOnUse"/>
<linearGradient xlink:href="#linearGradient3" id="linearGradient4" y1="29.063419" x1="29.491283" y2="24.025688" x2="24.50581" gradientUnits="userSpaceOnUse"/>
<linearGradient gradientTransform="matrix(0.75145547,0,0,0.83592555,4.0350222,6.7062091)" xlink:href="#linearGradient3171" id="linearGradient3065" y1="38.811657" x1="9.3437004" y2="46.82093" gradientUnits="userSpaceOnUse" x2="10.924745"/>
</defs>
<g style="fill-rule:evenodd">
<path style="fill:#fff;fill-opacity:.647" d="m 12.0415,35.5444 c -0.956156,0.03709 -1.94041,0.334307 -2.87933,0.98877 -3.82664,2.66727 -2.00544,8.53224 -9.16214,8.67462 2.94027,4.99215 9.73366,4.74855 13.3049,3.0693 1.54876,-0.728241 2.70272,-1.71423 3.50417,-2.845 -1.73082,-2.55785 -1.66446,-5.56959 -0.869751,-8.59681 -1.07102,-0.806502 -2.45181,-1.34699 -3.89786,-1.29089 z "/>
<path style="opacity:.7" d="m 9.9573,14.0863 c 0.01191,8.48519 10.4795,5.13603 10.8711,8.90505 0.632963,6.09155 -16.7214,23.6705 7.47873,28.2571 13.3519,2.53056 27.5627,-5.90207 26.1369,-22.7059 C 53.16178,13.43045 40.66433,3.55185 28.15293,3.56235 16.12503,3.572411 9.94873,8.01323 9.95733,14.08635 Z M 23.6041,8.4965 c 3.40474,0 6.16803,1.93429 6.16803,4.31761 0,2.38332 -2.76327,4.3176 -6.16803,4.3176 -3.40474,0 -6.16803,-1.93429 -6.16803,-4.3176 0,-2.38332 2.76327,-4.31761 6.16803,-4.31761 z"/>
<path style="fill:#e1b637" d="m 9.9573,13.3828 c 0.01191,8.48519 11.4943,5.16733 10.8711,8.90505 -1.03547,6.21072 -17.0789,23.1938 7.47873,28.2571 13.3097,2.74418 27.5627,-5.90207 26.1369,-22.7059 C 53.16178,12.72695 40.66433,2.84835 28.15293,2.85885 16.12503,2.868911 9.94873,7.30973 9.95733,13.38285 Z M 23.6041,7.793 c 3.40474,0 6.16803,1.93429 6.16803,4.3176 0,2.38332 -2.76327,4.3176 -6.16803,4.3176 -3.40474,0 -6.16803,-1.93429 -6.16803,-4.3176 0,-2.38332 2.76327,-4.3176 6.16803,-4.3176 z"/>
<path style="opacity:.7" d="m 51.8005,1.6447 c -0.106801,-0.01557 -0.220271,0.072086 -0.31128,0.119018 -14.8139,10.4319 -22.3282,18.7677 -26.5503,23.2178 l .2197,.2563 c -3.854,3.68934 -7.87129,9.03677 -10.5103,12.854 0.34909,0.585 0.887778,0.936019 2.0874,1.75781 4.06231,-2.69682 10.1829,-7.18537 13.1836,-9.85107 4.84345,-4.30276 12.6245,-13.2774 22.4121,-26.8799 0.295553,-0.329041 -0.210616,-1.42729 -0.531007,-1.474 z "/>
<path style="opacity:.7" d="m 32.572,43.2579 c -1.22878,0.742545 0.08959,1.59554 0.682564,2.09245 0.470288,0.3941 -0.235971,2.29881 -1.0782,1.45708 -0.9706,-0.970032 -1.59552,-2.31955 -1.97621,-2.35413 -2.18807,-0.198804 -0.503352,2.69015 -2.26411,2.05477 -1.05364,-0.380204 0.257303,-1.97629 -1.14969,-2.46614 -1.11777,-0.389157 -1.00671,0.806699 -1.65304,0.224012 -3.04275,-2.74318 -1.4434,-5.12611 -0.03526,-6.98708 1.40816,-1.861 4.18995,-2.06056 6.25276,-0.41035 2.0628,1.65021 2.6099,4.51264 1.22118,6.38933 z"/>
<path style="fill:#4f8b14" d="m 32.2791,42.672 c -1.22878,0.742544 0.08959,1.59554 0.682564,2.09245 0.470288,0.3941 -0.235971,2.29881 -1.0782,1.45708 -0.9706,-0.970032 -1.59552,-2.31955 -1.97621,-2.35413 -2.18807,-0.198804 -0.503352,2.69015 -2.26411,2.05477 -1.05364,-0.380204 0.257303,-1.97629 -1.14969,-2.46614 -1.11777,-0.389157 -1.00671,0.806699 -1.65304,0.224012 -3.04275,-2.74318 -1.4434,-5.12611 -0.03526,-6.98708 1.40816,-1.861 4.18995,-2.06056 6.25276,-0.41035 2.0628,1.65021 2.6099,4.51264 1.22118,6.38933 z"/>
<path style="opacity:.7" d="m 44.4641,26.1669 c -1.1034,0 -1.32439,0.761476 -1.84434,1.25204 -0.412375,0.389058 -2.15056,-0.381331 -1.28368,-1.06795 1,-0.791278 1.21846,-1.726 1.28368,-2.06214 0.374885,-1.93203 -3.3268,-0.992754 -2.56533,-2.5064 0.554469,-1.10219 2.57082,-0.05277 2.56533,-0.623689 -0.0084,-0.880317 -0.526189,-2.21024 0.576971,-2.42774 2.32115,-0.457621 4.99312,1.14252 6.25169,2.42516 1.20334,1.22636 0.535887,3.37086 -0.175599,4.89425 -0.434711,0.930755 -1.43082,2.82505 -2.58589,2.59701 -1.31067,-0.258762 0.55567,-2.4805 -2.22283,-2.4805 z"/>
<path style="fill:#429eff" d="m 44.1712,25.581 c -1.1034,0 -1.32439,0.761477 -1.84434,1.25204 -0.412375,0.389058 -2.15056,-0.381331 -1.28368,-1.06795 1,-0.791278 1.21846,-1.726 1.28368,-2.06214 0.374885,-1.93203 -3.3268,-0.992754 -2.56533,-2.5064 0.554469,-1.10219 2.57082,-0.05277 2.56533,-0.623689 -0.0084,-0.880317 -0.526189,-2.21024 0.576971,-2.42774 2.32115,-0.457621 4.99312,1.14252 6.25169,2.42516 1.20334,1.22636 0.535887,3.37086 -0.175599,4.89425 -0.434711,0.930755 -1.43082,2.82505 -2.58589,2.59701 -1.31067,-0.258762 0.55567,-2.4805 -2.22283,-2.4805 z"/>
<path style="opacity:.7" d="m 43.4065,39.484 c 1.12045,0 3,0.189127 3.49571,0.771107 1.15712,1.36084 2.18379,-0.429167 1.30352,-1.20192 -1.01445,-0.890546 -2.36275,-1.4031 -2.42898,-1.7814 -0.380676,-2.17439 2.53581,-0.729743 1.77364,-2.4396 -0.456086,-1.02318 -1.87267,0.423465 -2.46459,-0.944351 -0.470237,-1.08664 0.686098,-1.07578 0.07122,-1.67409 -2.89466,-2.81674 -5.04069,-1.01529 -6.7028,0.550909 -1.66216,1.56623 -1.61191,4.36857 0.149611,6.29572 0.723445,0.791482 1.07894,2.694 2.00157,2.92278 1.32389,0.328291 -0.02029,-2.49917 2.80113,-2.49917 z"/>
<path style="fill:#ef2929" d="m 43.1136,38.8981 c 1.12045,0 3,0.189128 3.49571,0.771107 1.15712,1.36084 2.18379,-0.429166 1.30352,-1.20192 -1.01445,-0.890545 -2.36275,-1.4031 -2.42898,-1.7814 -0.380676,-2.17439 2.53581,-0.729743 1.77364,-2.4396 -0.456086,-1.02318 -1.87267,0.423464 -2.46459,-0.944351 -0.470237,-1.08664 0.686098,-1.07578 0.07122,-1.67409 -2.89466,-2.81674 -5.04069,-1.01529 -6.7028,0.550908 -1.66216,1.56623 -1.61191,4.36857 0.149611,6.29572 0.723445,0.791482 1.07894,2.694 2.00157,2.92278 1.32389,0.328292 -0.02029,-2.49917 2.80113,-2.49917 z"/>
</g>
<path style="opacity:.291;fill:none;stroke:url(#linearGradient3065)" d="m 4.6833,45.6952 c 2.38083,-0.03 4.01908,-2.85991 4.63946,-4.65441 1.87066,-5.41127 7.67003,-2.77651 6.56308,0.949975 -1.49584,5.03567 -7.20342,4.37029 -11.2025,3.70443 z "/>
<g style="fill-rule:evenodd">
<path style="fill:url(#linearGradient2)" d="m 29.4913,29.0634 c 4.68564,-4.47411 12.6107,-13.2782 22.3983,-26.8807 0.394071,-0.438722 -0.26476,-0.81327 -0.628796,-0.625539 -14.8139,10.4319 -22.5329,18.0184 -26.755,22.4685"/>
<path style="fill:url(#linearGradient4)" d="m 24.7811,24.2232 c 1.8602,0.740064 3.77869,2.12635 4.71016,4.84026 -2.49633,2.51537 -9.60489,7.87429 -14.2622,10.4837 l -1.3747,-1.8959 c 2.6403,-3.85799 6.61318,-9.77957 10.6515,-13.6255 z "/>
<path style="fill:#353535" d="m 1.8287,45.6299 c 5.88716,-0.01292 4.7,-5.90711 8.1324,-8.03918 3.36872,-2.09256 6.55226,0.391132 6.92258,2.72716 0.473671,2.98815 -0.994569,5.8355 -4.41981,7.23003 -3.16619,1.28907 -9.39523,0.809154 -10.6352,-1.91801 z "/>
</g>
</svg>
