<svg width="48" version="1.0" xmlns="http://www.w3.org/2000/svg" height="48" xmlns:xlink="http://www.w3.org/1999/xlink">
<defs>
<linearGradient id="linearGradient1">
<stop offset="0" style="stop-color:#f0a500"/>
<stop offset="1" style="stop-color:#ffc033"/>
</linearGradient>
<linearGradient id="linearGradient3">
<stop offset="0" style="stop-color:#e50019"/>
<stop offset="1" style="stop-color:#ff3d53"/>
</linearGradient>
<linearGradient xlink:href="#linearGradient1" id="linearGradient2" y1="42.4347" x1="13.232555" y2="9.7722034" x2="33.473797" gradientUnits="userSpaceOnUse"/>
<linearGradient xlink:href="#linearGradient3" id="linearGradient4" y1="42.561604" x1="13.671697" y2="12.37344" x2="30.568045" gradientUnits="userSpaceOnUse"/>
</defs>
<path style="fill:url(#linearGradient2)" d="M 24,2.5 C 12.125,2.5 2.5,12.12496 2.5,24 2.5,35.875 12.12496,45.5 24,45.5 35.875,45.5 45.5,35.87504 45.5,24 45.5,12.125 35.87504,2.5 24,2.5 Z"/>
<path style="fill:url(#linearGradient4)" d="m 26.3978,7.0637 c -4.7092,3.06696 -9.50893,5.83086 -13.0288,13.3173 -3.51987,7.4864 -3.7435,14.2833 -2.51367,20.5407 1.65333,1.17786 3.45641,2.38462 5.41034,3.0243 6.01771,-2.39698 11.4195,-6.87408 15.3653,-12.7317 C 35.57672,25.35668 37.19971,19.4217 37.45762,13.501 35.61783,13.260936 33.61056,12.762931 30.90478,11.23815 28.38324,9.8172 27.60476,8.44973 26.39783,7.06377 Z"/>
<path style="fill:#fff" d="m 26.1757,3.9985 c 1.82418,0.096819 4.7807,1.23864 7.82387,3.13551 4.42644,2.75909 7.3418,6.07726 6.51447,7.40456 -0.827328,1.32729 -5.07846,0.169034 -9.50489,-2.59006 C 26.5827,9.18942 23.66735,5.87125 24.49468,4.54395 24.753221,4.12917 25.346531,3.954485 26.1757,3.998492 Z"/>
</svg>
