<svg width="48" version="1.1" xmlns="http://www.w3.org/2000/svg" viewBox="0 0 48 48" height="48" style="overflow:visible;enable-background:new 0 0 128 128">
<path style="fill:#a0a0a0;stroke:#505050;stroke-width:.5" d="m 41.7265,3.3597 c 0.124964,0.068734 0.205183,0.197107 0.212752,0.339608 9e-05,0.00371 0,0.00783 0,0.011539 0.0033,0.138068 -0.06277,0.269154 -0.176742,0.3482 0,0 -4.91863,3.42292 -5.21792,3.63139 -0.02821,0.3343 -0.277695,3.28557 -0.301479,3.56409 0.173704,0.225497 2.81708,3.65447 3.16151,4.10183 0.547767,-0.250774 6.88236,-3.1512 6.88236,-3.1512 0.134592,-0.06181 0.292086,-0.04624 0.412533,0.04034 0.105341,0.07581 0.168051,0.196355 0.171149,0.324531 0,0.01772 0,0.03589 -0.0024,0.05408 -0.335508,3.1117 -1.8554,5.96667 -3.97985,7.54178 -0.02551,0.08763 -0.06344,0.173497 -0.138417,0.227682 -1.17868,0.849137 -3.14676,1.45549 -3.87908,1.66289 -0.01552,0.449871 -0.06554,1.89483 -0.06554,1.89483 -0.0072,0.215437 -0.179475,0.388679 -0.394523,0.397589 l -2.3408,.0991 c -0.226166,0.0096 -0.417613,-0.165167 -0.429265,-0.391284 0,0 -0.06953,-1.39176 -0.09347,-1.87037 -0.375004,-0.05733 -0.893228,-0.136761 -0.893228,-0.136761 -0.75891,-0.09052 -5.31127,2.4996 -7.23491,3.35767 -0.15871,0.07064 -0.344336,0.03431 -0.465296,-0.09061 l -4.3139,-4.4843 c -0.138328,-0.143876 -0.154022,-0.366596 -0.03627,-0.52821 1.49863,-2.06268 4.3158,-5.87604 4.30329,-6.39369 -0.359525,-3.12895 0.539533,-6.4327 2.63642,-8.68006 3.12408,-3.34826 8.16871,-4.08418 12.1827,-1.87064 z "/>
<path style="fill:#0087a0" d="m 2.1611,37.8809 c 1.83142,-1.94371 20.4124,-17.6432 20.4124,-17.6432 l 5.0747,5.115 c 0,0 -16.373,17.36 -18.2035,19.3037 -1.83057,1.94451 -4.94427,2.0037 -6.95615,0.133107 -2.01064,-1.87063 -2.15799,-4.96364 -0.327434,-6.90856 z  m 2.0726,5.0135 c 0.935815,0.892039 2.41788,0.856208 3.30908,-0.08 0.891643,-0.935393 0.855812,-2.41745 -0.07998,-3.30826 -0.935815,-0.892042 -2.41788,-0.856213 -3.30908,0.08 -0.891651,0.934983 -0.855824,2.41704 0.07997,3.30826 z "/>
<rect width="4.9939094" x="-36.29985" y="-14.709151" rx="0.76486957" height="4.0719094" style="fill:#f0f0f0;stroke:#505050;stroke-width:.5" transform="matrix(-0.64484535,-0.76431308,-0.76431308,0.64484535,0,0)"/>
<path style="fill:#ecf0f1" d="M 26,27.001163 V 48 H 47.907313 L 48,27 40.819678,27.0011 Z"/>
<path style="fill:#3498db" d="M 31.24495,30.3199 C 39,35 38,28 45,32.754 v 8 C 38,35 39,43 31.18305,38.32 Z"/>
<path style="fill:none;fill-rule:evenodd;stroke:#3498db;stroke-linecap:round;stroke-width:2" d="M 31,30.6245 V 45"/>
</svg>
