<svg width="48" version="1.0" xmlns="http://www.w3.org/2000/svg" height="48" style="overflow:visible">
<path style="fill:#c19246" id="path32" d="m .8,3.2997 c -0.44,0 -0.800003,0.360008 -0.800003,0.800014 v 39.8003 c 0,0.440008 0.360001,0.800015 0.800003,0.800015 h 46.4 c 0.440001,0 0.800003,-0.360008 0.800003,-0.800015 v -39.8003 c 0,-0.440008 -0.360002,-0.800015 -0.800003,-0.800015 Z "/>
<path style="fill:#293d27" id="path811" d="m 44.4002,6.1003 -40.8,0 c -0.44,0 -0.800003,0.360008 -0.800003,0.800014 v 34.1996 c 0,0.44001 0.360002,0.800016 0.800003,0.800016 h 40.8 c 0.440005,0 0.800003,-0.360007 0.800003,-0.800016 v -34.1996 c 0,-0.440009 -0.359998,-0.800014 -0.800003,-0.800014 z "/>
<g style="fill:#fff;fill-rule:evenodd;stroke:#003bc3;stroke-linecap:square;stroke-width:0;stroke-miterlimit:2" id="g4155" transform="matrix(0.65026507,0.55430202,-0.55430202,0.65026507,22.479569,-6.3373759)">
<path id="shape0" d="m 19.9706,16.3573 3.8782,.6485 -6.4261,29.7955 c -0.245607,-3.32811 -1.44368,-5.62595 -3.59417,-6.89316 2.72981,-10.467 4.77715,-18.3173 6.14204,-23.5508 z "/>
<path id="shape11" d="m 24.0552,6.7348 c -3.98305,0.027755 -8.03561,3.17145 -8.03561,6.46013 0,3.28866 3.93251,6.43257 8.04653,6.43257 4.11398,0 8.03336,-3.1994 8.03336,-6.43257 0,-3.23319 -4.06123,-6.48788 -8.04428,-6.46013 z m 0,2.9847 c 2.40366,0 4.33742,1.54954 4.33742,3.47551 0,1.92597 -1.93377,3.47547 -4.33742,3.47547 -2.40362,0 -4.33744,-1.5495 -4.33744,-3.47547 0,-1.92597 1.93383,-3.47551 4.33744,-3.47551 z"/>
<path id="shape1" d="m 28.0491,16.2916 -3.9034,.6528 6.4498,30.0555 c 0.256211,-3.37521 1.47424,-5.68644 3.65414,-6.93329 z "/>
<rect width="4.3691449" x="21.966648" y="0.9999997" rx="2.1844914" ry="1.7970699" height="7.8294134" id="shape2"/>
<rect width="27.883154" x="10.058423" y="32.026501" height="1.6060013" id="shape3"/>
<rect width="2.827395" x="22.599823" y="29.669432" rx="1.4137" ry="0.95671546" height="6.2186508" id="shape4"/>
</g>
</svg>
