<svg width="48" version="1.0" xmlns="http://www.w3.org/2000/svg" height="48" style="overflow:visible">
<path style="fill:#c19246" id="path32" d="m .8,3.2997 c -0.44,1e-07 -0.800003,0.360008 -0.800003,0.800014 v 39.8003 c 0,0.440008 0.360001,0.800015 0.800003,0.800015 h 46.4 c 0.440001,-7.10543e-15 0.800003,-0.360008 0.800003,-0.800015 v -39.8003 c 0,-0.440009 -0.360002,-0.800015 -0.800003,-0.800015 Z "/>
<path style="fill:#293d27" id="path811" d="m 44.4001,6.1003 -40.8,0 c -0.44,0 -0.800003,0.360008 -0.800003,0.800014 v 34.1996 c 0,0.44001 0.360002,0.800016 0.800003,0.800016 h 40.8 c 0.440006,0 0.800003,-0.360007 0.800003,-0.800016 v -34.1996 c 0,-0.440009 -0.359997,-0.800014 -0.800003,-0.800014 z "/>
<path style="font-family:Symbol;fill:#fff;text-align:justify;stroke:none;font-weight:bold;font-size:28px" id="text2468" d="m 12.5169,18.817 c -0.05537,0.206701 0.02711,0.450408 0.211533,0.531516 0.213274,0.09382 0.543566,-0.0021 0.645214,-0.178206 1.28263,-2.22159 2.16839,-2.61751 4.24964,-2.61751 h 2.05319 l -1.1605,9.9088 c -0.178544,1.24977 -0.75879,2.23173 -2.27636,3.6154 -1.38367,1.24976 -1.78538,1.96392 -1.78538,2.94588 0,1.33904 1.07123,2.4549 2.4549,2.4549 1.38367,0 2.4549,-1.0266 3.03515,-2.94588 0.401702,-1.16049 1.0266,-5.71322 1.42831,-10.2213 l .5356,-5.7578 h 4.86517 c -0.535621,3.52612 -0.937334,8.34668 -0.937334,10.8908 0,4.99907 1.69611,8.03422 4.41882,8.03422 1.74075,0 3.30295,-1.20514 4.37419,-3.30295 0.516499,-1.03299 0.666526,-1.80198 0.861533,-3.28382 0.06235,-0.473795 -0.197311,-0.690953 -0.461008,-0.751654 -0.274885,-0.06328 -0.560363,0.222921 -0.686889,0.643714 -0.451969,1.50309 -1.15136,2.32053 -2.39171,2.32053 -0.892688,0 -1.83001,-0.624883 -2.321,-1.56221 -0.401713,-0.803418 -0.53562,-1.51757 -0.53562,-2.99051 0,-3.39223 0.223179,-7.54325 0.53562,-9.99815 l 5.2341,.013 c 0.241155,0 0.417144,-0.133367 0.417144,-0.403432 v -3.06567 c 0,-0.372816 -0.225859,-0.574606 -0.601422,-0.574606 h -14.7686 c -2.41027,0 -3.53769,0.370594 -4.83209,1.62035 -1.1614,1.1614 -1.86026,2.36136 -2.56221,4.67446 z "/>
</svg>
