<svg width="48" version="1.1" xmlns="http://www.w3.org/2000/svg" height="48" xmlns:xlink="http://www.w3.org/1999/xlink">
<defs>
<linearGradient id="linearGradient4370">
<stop offset="0" style="stop-color:#8a5b30"/>
<stop offset="1" style="stop-color:#8a5b30;stop-opacity:0"/>
</linearGradient>
<linearGradient gradientTransform="matrix(0.48664677,0,0,0.48664677,0.64095515,1.2017913)" xlink:href="#linearGradient4370" id="linearGradient3013" y1="38.127232" x1="8" y2="71.877235" gradientUnits="userSpaceOnUse" x2="8"/>
</defs>
<path style="fill:url(#linearGradient3013)" d="m 3.5608,18.7211 v 23.359 c 0,0.867089 0.376941,1.64083 0.973294,2.1747 v -25.5337 Z "/>
<path style="fill:#c39d69" d="m 6.4807,4.222 h 35.0386 c 1.61761,0 2.91988,0.202386 2.91988,1.82 v 36.0381 c 0,1.61761 -1.30227,2.91988 -2.91988,2.91988 h -35.0386 c -1.61761,0 -2.91988,-1.30227 -2.91988,-2.91988 v -36.0381 c 0,-1.61761 1.30227,-1.82 2.91988,-1.82 z "/>
<rect width="39.956085" x="3.9800367" y="9.9614334" rx="2.8540061" height="11.679523" ry="2.9198806" style="fill:#3c2510"/>
<g style="fill:#ccaa7d">
<path d="m 6.855,4.1614 c -2.99321,0.058728 -3,0.0073 -3,2.91327 v 11.653 c 0,2.92589 0.122133,2.84767 3,2.91327 l 18.0044,-.9711 v -17.4796 Z "/>
<path d="m 41.3546,4.1614 c 2.6869,0.058728 2.7492,0.066026 2.7492,2.91327 v 11.653 c 0,2.99149 -0.235701,2.97887 -2.7492,2.91327 l -16.4952,-.9711 v -17.4796 Z "/>
<path style="opacity:.5;fill:#3a240f" d="m 26.9785,3.2781 h -5.89835 l .0293,12.3137 .0655,13.8087 2.7675,-.2532 2.9412,-.2688 .0159,-1.8408 .0496,-11.446 z "/>
<path style="fill:#d8cab2" d="m 26.9492,3.216 -2.9492,-.216 l -2.9492,.216 .0293,12.5563 .0655,13.1417 2.7675,-.2418 2.9412,-.2567 .0159,-1.7128 .0496,-10.9304 .0293,-12.5563 z "/>
<rect width="0.48664677" x="23.513353" y="3.2092092" height="17.380241" style="opacity:.2;fill:#8d6137"/>
<rect width="0.48664677" x="24" y="3.2092092" height="17.380241" style="opacity:.2;fill:#fff"/>
</g>
<path style="opacity:.2" d="m 42.6442,32.1241 c -0.460441,-1.7221 -0.25632,-2.05465 -1.93759,-1.57429 l -1.3563,.3875 c -0.532835,-0.775035 -1.30787,-1.45319 -2.13134,-1.93759 l .218,-1.3321 c 0.299539,-1.83052 -0.454275,-1.41978 -2.01024,-1.62273 -1.7331,-0.23187 -2.15913,-0.748364 -2.42198,0.993012 l -.1938,1.2837 c -0.145319,0.04843 -0.339078,0.09688 -0.484394,0.145318 -0.581274,0.145319 -1.11411,0.435958 -1.59851,0.726594 l -1.0414,-.7992 c -1.40646,-1.07938 -1.45105,-0.303419 -2.42198,0.871915 -1.1616,1.37365 -1.82265,1.65126 -0.601274,2.76798 l 1.4005,.5986 c -0.193758,0.532836 -0.290637,1.11411 -0.290637,1.74382 l -1.3563,.3875 c -1.74254,0.497869 -1.38852,0.845029 -0.936146,2.3718 1.46366,2.12846 1.14519,1.82423 3.455,1.16431 0.532836,0.775034 1.30787,1.45319 2.13134,1.93758 l -.218,1.3321 c -0.299538,1.83051 0.454277,1.41977 2.01025,1.62273 1.57699,-1.14444 0.788347,-1.0459 4.69868,-3.14862 1.59499,1.48981 2.54983,1.18496 3.77762,0.07519 1.1616,-1.37365 1.39613,-1.56252 -0.0236,-2.66676 l -1.0899,-.8477 c 0.193758,-0.532835 0.290638,-1.11411 0.290638,-1.74382 l 1.4565,.087 c 1.74254,-0.497869 1.12723,-1.29701 0.674853,-2.82378 z  m -7.8956,4.8197 c -1.35631,0.387518 -2.8095,-0.387516 -3.24545,-1.74382 -0.435957,-1.35631 0.387517,-2.80949 1.74383,-3.24545 1.35631,-0.387517 2.8095,0.387516 3.24545,1.74383 0.387516,1.35631 -0.387516,2.80949 -1.74383,3.24545 z "/>
<path style="fill:#fff" d="m 42.6442,32.6239 c -0.460441,-1.7221 -0.25632,-2.05465 -1.93759,-1.57429 l -1.3563,.3875 c -0.532835,-0.775035 -1.30787,-1.45319 -2.13134,-1.93759 l .218,-1.3321 c 0.299539,-1.83052 -0.454275,-1.41978 -2.01024,-1.62273 -1.7331,-0.23187 -2.15913,-0.748364 -2.42198,0.993012 l -.1938,1.2837 c -0.145319,0.04843 -0.339078,0.09688 -0.484394,0.145318 -0.581274,0.145319 -1.11411,0.435958 -1.59851,0.726594 l -1.0414,-.7992 c -1.40646,-1.07938 -1.45105,-0.303419 -2.42198,0.871915 -1.1616,1.37365 -1.71037,1.41462 -0.290637,2.51886 l 1.0899,.8477 c -0.193758,0.532836 -0.290637,1.11411 -0.290637,1.74382 l -1.3563,.3875 c -1.74254,0.497869 -1.22741,0.82255 -0.775035,2.34932 0.460437,1.7221 0.256319,2.05465 1.93759,1.57429 l 1.3563,-.3875 c 0.532836,0.775034 1.30787,1.45319 2.13134,1.93758 l -.218,1.3321 c -0.299538,1.83051 0.454277,1.41977 2.01025,1.62273 1.7331,0.231871 2.15913,0.748364 2.42198,-0.993011 l .1938,-1.2837 c 0.145319,-0.04843 0.339078,-0.09688 0.484395,-0.14532 0.581276,-0.145319 1.11411,-0.435956 1.59851,-0.726593 l 1.0414,.7992 c 1.25742,1.24983 1.45105,0.303419 2.42198,-0.871914 1.1616,-1.37365 1.71037,-1.41462 0.290637,-2.51886 l -1.0899,-.8477 c 0.193758,-0.532835 0.290638,-1.11411 0.290638,-1.74382 l 1.3563,-.3875 c 1.74254,-0.497869 1.22741,-0.822552 0.775034,-2.34932 z  m -7.8956,4.8197 c -1.35631,0.387518 -2.8095,-0.387516 -3.24545,-1.74382 -0.435957,-1.35631 0.387517,-2.80949 1.74383,-3.24545 1.35631,-0.387517 2.8095,0.387516 3.24545,1.74383 0.387516,1.35631 -0.387516,2.80949 -1.74383,3.24545 z "/>
<path style="opacity:.2;fill:#8d6137" d="m 21.0939,20.873 5.803,-.0533 .0093,.8213 -5.7989,-.0061 z "/>
</svg>
