<svg width="48" version="1.0" xmlns="http://www.w3.org/2000/svg" height="48" xmlns:xlink="http://www.w3.org/1999/xlink">
<defs>
<linearGradient id="linearGradient4171">
<stop offset="0" style="stop-color:#959691"/>
<stop offset="1" style="stop-color:#6c6e66"/>
</linearGradient>
<linearGradient id="linearGradient5073-6">
<stop offset="0" style="stop-color:#acbfd5"/>
<stop offset="0.99776268" style="stop-color:#acbfd5"/>
<stop offset="1" style="stop-color:#668ab2"/>
<stop offset="1" style="stop-color:#668ab2"/>
</linearGradient>
<linearGradient id="linearGradient5052">
<stop offset="0" style="stop-color:#eeeeec"/>
<stop offset="1" style="stop-color:#888a85"/>
</linearGradient>
<linearGradient gradientTransform="translate(4.9767083,-2.087494)" xlink:href="#linearGradient4171" id="linearGradient4177" y1="25.446541" x1="16.477091" y2="42.327896" x2="35.336472" gradientUnits="userSpaceOnUse"/>
<linearGradient gradientTransform="translate(4.9767083,-2.087494)" xlink:href="#linearGradient4171" id="linearGradient4193" y1="24.057085" x1="14.514952" y2="43.791698" x2="37.106022" gradientUnits="userSpaceOnUse"/>
<linearGradient gradientTransform="matrix(1.0421519,0,0,-1.0421519,3.9661903,29.430974)" xlink:href="#linearGradient5052" id="linearGradient3101" y1="10.03125" x1="23.499411" y2="10.03125" gradientUnits="userSpaceOnUse" x2="26"/>
<linearGradient gradientTransform="matrix(0.37158978,0,0,0.38942743,-3.3443442,-10.116364)" xlink:href="#linearGradient5073-6" id="linearGradient1523-6" y1="38.817001" x1="9" y2="119.00701" x2="9" gradientUnits="userSpaceOnUse"/>
</defs>
<path style="fill:url(#linearGradient1523-6)" d="m 1.87499,2 h 41.1249 c 1.03875,0 1.87499,0.836247 1.87499,1.87499 v 34.8749 c 0,1.03875 -0.836248,1.87499 -1.87499,1.87499 H 1.87499 C 0.83624,40.62488 0,39.788632 0,38.74989 V 3.87499 C 0,2.83624 0.836247,2 1.87499,2 Z"/>
<path style="fill:#2f4155" d="m 5.43744,6.1937 h 34 c 0.623248,0 1.125,0.501748 1.125,1.125 v 23.2499 c 0,0.623248 -0.501749,1.125 -1.125,1.125 h -34 c -0.623248,0 -1.125,-0.501749 -1.125,-1.125 V 7.3187 c 0,-0.623249 0.501748,-1.125 1.125,-1.125 z"/>
<path style="fill:#3e556f" d="m 5.43744,6.9437 h 34 c 0.623248,0 1.125,0.501748 1.125,1.125 v 23.2499 c 0,0.623248 -0.501749,1.125 -1.125,1.125 h -34 c -0.623248,0 -1.125,-0.501748 -1.125,-1.125 V 8.0687 c 0,-0.623248 0.501748,-1.125 1.125,-1.125 z"/>
<path style="fill:#8c8c8c" d="m 7.3124,3.8312 c 0,0.828425 -0.67157,1.5 -1.5,1.5 -0.828425,0 -1.5,-0.671571 -1.5,-1.5 0,-0.828425 0.67157,-1.5 1.5,-1.5 0.828425,0 1.5,0.67157 1.5,1.5 z "/>
<path style="fill:#fff" d="m 7.3124,4.2062 c 0,0.828425 -0.67157,1.5 -1.5,1.5 -0.828425,0 -1.5,-0.67157 -1.5,-1.5 0,-0.828425 0.67157,-1.5 1.5,-1.5 0.828425,0 1.5,0.67157 1.5,1.5 z "/>
<g style="fill:none">
<path style="opacity:.1;stroke:#272727;stroke-width:3" d="m 32.43787,22.3657 c 0,0 -4.63205,-0.989943 -3.83026,-5.15868 0.975653,-5.07268 10.6358,-0.182782 10.6358,-3.75465 0,-5.73695 -21.812,0.167385 -22.3679,-3.75465 C 16.45189,6.70931 22.37679,7.2015 25.31832,5.73447 30.47561,3.16239 24.18455,3.41035 23.83299,0.07544"/>
<g style="stroke:#000">
<path style="opacity:.25;stroke-width:2.5" d="m 32.43787,22.3657 c 0,0 -4.63205,-0.989943 -3.83026,-5.15868 0.975653,-5.07268 10.6358,-0.182782 10.6358,-3.75465 0,-5.73695 -21.812,0.167385 -22.3679,-3.75465 C 16.45189,6.70931 22.37679,7.2015 25.31832,5.73447 30.47561,3.16239 24.18455,3.41035 23.83299,0.07544"/>
<path style="opacity:.35;stroke-width:2" d="m 32.43787,22.3657 c 0,0 -4.63205,-0.989943 -3.83026,-5.15868 0.975653,-5.07268 10.6358,-0.182782 10.6358,-3.75465 0,-5.73695 -21.812,0.167385 -22.3679,-3.75465 C 16.45189,6.70931 22.37679,7.2015 25.31832,5.73447 30.47561,3.16239 24.18455,3.41035 23.83299,0.07544"/>
</g>
<path style="stroke:#fff;stroke-width:1.441" d="m 32.43787,22.3657 c 0,0 -4.63205,-0.989943 -3.83026,-5.15868 0.975653,-5.07268 10.6358,-0.182782 10.6358,-3.75465 0,-5.73695 -21.812,0.167385 -22.3679,-3.75465 C 16.45189,6.70931 22.37679,7.2015 25.31832,5.73447 30.47561,3.16239 24.18455,3.41035 23.83299,0.07544"/>
</g>
<g style="color:#000">
<g style="stroke-linejoin:round">
<g style="stroke-linecap:round;stroke:#000">
<path style="opacity:.05;stroke-width:2.215" d="m 26.6777,18.0352 c 11.3945,-0.01613 -7.09886,-0.01613 4.47132,0 11.5702,0.01613 15.4112,10.9818 15.7324,17.6314 0.321182,6.64955 -6.30624,11.2258 -13.2513,11.2258 h -9.2601 c -6.94508,0 -13.5748,-4.63864 -13.2513,-11.257 0.323461,-6.61836 4.1645,-17.584 15.5591,-17.6001 z"/>
<path style="opacity:.1;stroke-width:2.157" d="m 26.7388,18.3058 c 11.0946,-0.01571 -6.91204,-0.01571 4.35365,0 11.2657,0.0157 15.0056,10.6928 15.3184,17.1674 0.31273,6.47456 -6.14029,10.9304 -12.9026,10.9304 h -9.01641 c -6.76231,0 -13.2176,-4.51657 -12.9026,-10.9608 0.314948,-6.44419 4.05491,-17.1212 15.1496,-17.137 z"/>
<path style="opacity:.15;stroke-width:2.099" d="m 26.7,18.6763 c 10.7948,-0.01529 -6.72523,-0.01529 4.23599,0 10.9612,0.01528 14.6001,10.4038 14.9044,16.7034 0.304278,6.29957 -5.97433,10.635 -12.5538,10.635 h -8.77272 c -6.57955,0 -12.8603,-4.39451 -12.5538,-10.6646 0.306436,-6.27003 3.94532,-16.6585 14.7402,-16.6738 z"/>
<path style="opacity:.25;stroke-width:2.04" d="m 26.861,19.1473 c 10.4949,-0.01487 -6.53842,-0.01487 4.11832,0 10.6567,0.01486 14.1945,10.1148 14.4904,16.2394 0.295825,6.12459 -5.80838,10.3396 -12.2051,10.3396 h -8.52904 c -6.39678,0 -12.5031,-4.27243 -12.2051,-10.3683 0.297924,-6.09586 3.83573,-16.1958 14.3307,-16.2107 z"/>
</g>
<path style="fill:url(#linearGradient3101);stroke:#888a85;stroke-linecap:square;stroke-width:1.042" d="m 27.4146,20.0515 h 3.1265 v -1.5632 c 0,-0.932584 -3.12645,-0.932584 -3.12645,0 v 1.56323 z"/>
<g style="stroke-linecap:round">
<path style="fill:url(#linearGradient4177);stroke:url(#linearGradient4193);stroke-width:2" d="m 26.88,19.3376 c 10.2876,-0.01456 -6.40925,-0.01456 4.03696,0 10.4462,0.01456 13.9141,9.915 14.2041,15.9186 0.289982,6.00359 -5.69363,10.1353 -11.964,10.1353 h -8.36054 c -6.27041,0 -12.2561,-4.18803 -11.964,-10.1635 0.292038,-5.97543 3.75995,-15.8758 14.0476,-15.8904 z"/>
<path style="fill:none;stroke:#fff;stroke-width:2.003" d="m 26.945308,20.76863 c -4.5993,0.0067 -7.51131,2.18417 -9.44597,5.07875 -1.93467,2.89457 -2.95104,6.56578 -3.08132,9.27422 -0.120605,2.50725 1.01563,4.60118 2.95186,6.18282 1.93623,1.58163 4.82237,2.55515 7.59767,2.55515 h 7.97004 c 2.77839,0 5.66299,-0.900296 7.59767,-2.47061 1.93468,-1.57032 3.0718,-3.60669 2.95186,-6.12983 -0.12944,-2.7227 -1.15989,-6.51403 -3.11083,-9.41176 -1.95094,-2.89772 -4.88467,-5.07211 -9.56405,-5.07875 -0.209835,-2.96e-4 -0.255414,2.86e-4 -0.44278,0 -0.362241,-5.49e-4 -0.572474,5.06e-4 -0.85604,0 -0.439648,0.001 -1.23231,-0.0015 -2.15487,0 -0.176928,2.73e-4 -0.215954,-2.83e-4 -0.413261,0 z"/>
</g>
<path style="fill:none;stroke:#fff;stroke-linecap:square;stroke-width:2" d="m 32.4788,21.1735 c 0.136424,1.86167 -0.842294,2.65501 -1.98009,2.93105 v 7.6989"/>
</g>
<path style="fill:#fff;color-rendering:auto;solid-opacity:1;mix-blend-mode:normal;color-interpolation-filters:linearRGB;shape-rendering:auto;image-rendering:auto;line-height:normal;color-interpolation:sRGB;solid-color:#000000" d="m 24.4826,20.1272 -.0449,1 c -0.05016,1.07124 0.211867,2 0.734374,2.68359 0.323879,0.424044 0.803843,0.563757 1.24414,0.785156 v 7.20703 1 h 2 v -1 -7.69922 a 1,1 0 0,0 -0.765625,-0.970703 c -0.394587,-0.09573 -0.684843,-0.270243 -0.888672,-0.537109 -0.203829,-0.266867 -0.36141,-0.66406 -0.328125,-1.375 l .0469,-1 -1.998,-.0938 z "/>
</g>
<path style="fill:none;stroke:#747672;stroke-linecap:round;stroke-width:1.042" d="m 26.06,19.3376 h 5.7258"/>
<path style="fill:#729fcf;fill-rule:evenodd" d="m 31.0621,20.123 a 2.08431,2.33397 0 0,1 -4.16861,0 2.08431,2.33397 0 1,1 4.16861,0 z "/>
</svg>
