<svg width="128" version="1.0" xmlns="http://www.w3.org/2000/svg" height="128" xmlns:xlink="http://www.w3.org/1999/xlink">
<defs id="defs12259">
<linearGradient id="linearGradient5073">
<stop offset="0" style="stop-color:#acbfd5" id="stop5075"/>
<stop offset="0.84661525" style="stop-color:#acbfd5" id="stop5081"/>
<stop offset="0.85787153" style="stop-color:#668ab2" id="stop5083"/>
<stop offset="1" style="stop-color:#668ab2" id="stop5077"/>
</linearGradient>
<linearGradient id="linearGradient4171">
<stop offset="0" style="stop-color:#b6b7b1" id="stop4173"/>
<stop offset="1" style="stop-color:#8e9187" id="stop4175"/>
</linearGradient>
<linearGradient gradientTransform="matrix(1.0421519,0,0,-1.0421519,-1.010518,31.039544)" id="linearGradient3101-2" xlink:href="#linearGradient5052" y1="10.03125" y2="10.03125" x1="23.499411" x2="26.000536" gradientUnits="userSpaceOnUse"/>
<linearGradient gradientTransform="matrix(1.0529626,0,0,1.0529626,-1158.5852,10.919994)" xlink:href="#linearGradient5073" id="linearGradient5079" y1="26.493605" x1="1108.8569" y2="98.65657" x2="1108.8119" gradientUnits="userSpaceOnUse"/>
<linearGradient id="linearGradient5052">
<stop offset="0" style="stop-color:#eeeeec" id="stop5054"/>
<stop offset="1" style="stop-color:#888a85" id="stop5056"/>
</linearGradient>
<linearGradient gradientTransform="matrix(1.048902,0,0,1.048902,-15.112172,-8.277371)" xlink:href="#linearGradient4407" id="linearGradient4433" y1="8.5129795" x1="30.834169" y2="25.939911" x2="35.053295" gradientUnits="userSpaceOnUse"/>
<linearGradient gradientTransform="translate(0,-0.478924)" id="linearGradient4177" xlink:href="#linearGradient4171" y1="25.446541" y2="54.499775" x1="16.477091" gradientUnits="userSpaceOnUse" x2="48.860779"/>
<linearGradient gradientTransform="translate(0,-0.478924)" id="linearGradient4193" xlink:href="#linearGradient4187" y1="61.943634" y2="22.700779" x1="43.333855" gradientUnits="userSpaceOnUse" x2="15.302572"/>
<linearGradient id="linearGradient4187">
<stop offset="0" style="stop-color:#747672" id="stop4189"/>
<stop offset="1" style="stop-color:#9c9e9a" id="stop4191"/>
</linearGradient>
<linearGradient id="linearGradient4407">
<stop offset="0" style="stop-color:#e6e6e6" id="stop4409"/>
<stop offset="0.56323987" style="stop-color:#aaa" id="stop4571"/>
<stop offset="0.76957035" style="stop-color:#646464" id="stop4573"/>
<stop offset="1" style="stop-color:#646464" id="stop4411"/>
</linearGradient>
</defs>
<path style="fill:url(#linearGradient5079)" id="path35" d="m 118.9946,112.7223 c 0.0895,1.41471 -0.94767,2.16878 -2.30567,2.16769 h -105.386 c -1.35706,-0.001 -2.39044,-0.94748 -2.29735,-2.36109 4.64441,-70.0335 0.220596,-0.98368 4.69832,-71.1098 0.09582,-1.4636 1.3062,-2.60448 2.68864,-2.60231 l 95.4562,.1195 c 1.38138,0.0022 2.58714,1.20173 2.67811,2.66533 4.31694,69.8373 0.13488,1.05603 4.46762,71.1207 z "/>
<ellipse cx="28.485218" cy="45.410141" rx="5.0933824" ry="3.2266009" style="fill:#fff;stroke:#fff;stroke-width:1.58" id="ellipse132"/>
<path style="fill:#3e556f" id="path141" d="m 25.4951,51.1199 c -1.4713,0 -2.73307,1.22672 -2.81246,2.73595 l -2.0075,38.2773 c -0.04107,0.770371 0.228494,1.53096 0.739391,2.08511 0.508687,0.550886 1.19838,0.855121 1.94187,0.855121 h 81.2832 c 0.74256,0 1.43215,-0.302064 1.93883,-0.851861 0.51079,-0.553059 0.78161,-1.31256 0.7456,-2.08511 0,-0.0033 -2.01063,-38.2795 -2.01063,-38.2795 -0.0758,-1.50705 -1.33695,-2.73595 -2.81236,-2.73595 h -77.006 v -0.001 z "/>
<g id="g4232" transform="matrix(1.9850249,0,0,1.9850249,29.358045,8.2946063)">
<path style="fill:none;stroke:url(#linearGradient4433);stroke-width:1.441" id="path3590" d="m 25.59216,22.3658 c 0,0 -4.63205,-0.989943 -3.83026,-5.15868 0.975653,-5.07268 10.6358,-0.182782 10.6358,-3.75465 0,-5.73695 -21.812,0.167385 -22.3679,-3.75465 C 9.6061799,6.70941 15.53108,7.2016 18.47261,5.73457 23.6299,3.16249 17.33884,3.41045 16.98728,0.07554"/>
<g style="stroke-linejoin:round;color:#000" id="g4198">
<path style="fill:url(#linearGradient3101-2);stroke:#888a85;stroke-linecap:square;stroke-width:1.042" id="rect5006-2" d="m 22.4379,21.6601 3.1265,0 0,-1.5632 c 0,-0.932584 -3.12645,-0.932584 -3.12645,0 v 1.56323 z "/>
<g style="stroke-linecap:round" id="g4201">
<path style="fill:url(#linearGradient4177);stroke:url(#linearGradient4193);stroke-width:2" id="rect1413-4" d="m 21.9033,20.9462 c 10.2876,-0.01456 -6.40925,-0.01456 4.03696,0 10.4462,0.01456 13.9141,9.915 14.2041,15.9186 0.289982,6.00359 -5.69363,10.1353 -11.964,10.1353 h -8.36054 c -6.27041,0 -12.2561,-4.18803 -11.964,-10.1635 0.292038,-5.97543 3.75995,-15.8758 14.0476,-15.8904 z "/>
<path style="fill:none;stroke:#fff;stroke-width:2.003" id="path6963-7" d="m 21.9686,22.3772 c -4.5993,0.0067 -7.51131,2.18417 -9.44597,5.07875 -1.93467,2.89457 -2.95104,6.56578 -3.08132,9.27422 -0.120605,2.50725 1.01563,4.60118 2.95186,6.18282 1.93623,1.58163 4.82237,2.55515 7.59767,2.55515 l 7.97004,0 c 2.77839,0 5.66299,-0.900296 7.59767,-2.47061 1.93468,-1.57032 3.0718,-3.60669 2.95186,-6.12983 -0.12944,-2.7227 -1.15989,-6.51403 -3.11083,-9.41176 -1.95094,-2.89772 -4.88467,-5.07211 -9.56405,-5.07875 -0.209835,-2.96e-4 -0.255414,2.86e-4 -0.44278,0 -0.362241,-5.49e-4 -0.572474,5.06e-4 -0.85604,0 -0.439648,0.001 -1.23231,-0.0015 -2.15487,0 -0.176928,2.73e-4 -0.215954,-2.83e-4 -0.413261,0 z"/>
</g>
<g style="stroke-linecap:square;stroke-width:2" id="g4205">
<path style="fill:none;stroke:#fff" id="path7118-7" d="m 27.5021,22.7821 c 0.136424,1.86167 -0.842294,2.65501 -1.98009,2.93105 v 7.6989"/>
<path style="mix-blend-mode:normal;font-family:sans-serif;text-decoration-style:solid;solid-color:#000000;white-space:normal;color-interpolation-filters:linearRGB;text-transform:none;text-decoration-color:#000000;text-indent:0;text-align:start;text-decoration-line:none;image-rendering:auto;color-rendering:auto;isolation:auto;color-interpolation:sRGB;solid-opacity:1;text-rendering:auto;fill:#fff;line-height:normal;stroke:none;shape-rendering:auto" id="path3918-4" d="m 19.5059,21.7358 -.0449,1 c -0.05016,1.07124 0.211867,1.99949 0.734374,2.68359 0.323879,0.424044 0.803843,0.563757 1.24414,0.785156 v 7.20703 1 h 2 v -1 -7.69922 a 1.0001,1.0001 0 0,0 -0.765625,-0.970703 c -0.394587,-0.09573 -0.684843,-0.270243 -0.888672,-0.537109 -0.203829,-0.266867 -0.36141,-0.66406 -0.328125,-1.375 l .0469,-1 -1.998,-.0938 z "/>
</g>
</g>
<path style="fill:none;stroke:#747672;stroke-linecap:round;stroke-width:1.042" id="path7120-6" d="m 21.0833,20.9462 5.7258,0"/>
<path style="fill:#729fcf;fill-rule:evenodd;stroke:none" id="path7103-0" d="m 26.0854,21.7316 a 2.08431,2.33397 0 0 1 -4.16861,0 2.08431,2.33397 0 1 1 4.16861,0 z"/>
</g>
</svg>
