<svg width="48" version="1.1" xmlns="http://www.w3.org/2000/svg" height="48" xmlns:xlink="http://www.w3.org/1999/xlink">
<defs>
<linearGradient id="linearGradient1">
<stop offset="0" style="stop-opacity:.8"/>
<stop offset="1" style="stop-color:#fff"/>
</linearGradient>
<linearGradient gradientTransform="matrix(0.56864636,0.52240153,-0.52240153,0.56864636,5.582783,3.68277)" xlink:href="#linearGradient1" id="linearGradient2" y1="-0.84365028" x1="52.829464" y2="3.4904664" x2="52.864334" gradientUnits="userSpaceOnUse"/>
<linearGradient gradientTransform="matrix(0.77218007,0,0,0.77218007,1.3450187,4.7592318)" xlink:href="#linearGradient1" id="linearGradient5" y1="34.380527" x1="-15.478408" y2="35.764919" gradientUnits="userSpaceOnUse" x2="-15.478408"/>
<linearGradient gradientTransform="matrix(0.77218007,0,0,0.77218007,1.2870017,6.5631638)" xlink:href="#linearGradient1" id="linearGradient4" y1="34.380527" x1="-15.478408" y2="35.764919" x2="-15.478408" gradientUnits="userSpaceOnUse"/>
</defs>
<g style="line-height:100%">
<rect width="48" x="0" y="4.3483262" height="39.252476" style="fill:#2980b9"/>
<rect width="48" x="0" y="39.288036" height="4.363637" style="fill:#37353a"/>
<rect width="1.4788888" x="37.988712" y="40.875748" height="1.1934434" style="fill:#fff"/>
<rect width="1.7586871" x="7.5505252" y="40.342983" height="1.8249223" style="fill:#d45500"/>
<rect width="1.7586871" x="10.913362" y="40.342983" height="1.8249223" style="fill:#349ba3"/>
<rect width="1.7586871" x="4.3903322" y="40.342983" height="1.8249223" style="fill:#ccc"/>
<rect width="1.7586871" x="13.770673" y="40.342983" height="1.8249223" style="fill:#008000"/>
<g style="fill:#fff">
<path d="m 41.2224,42.0938 v -0.2129 c 0.04271,-0.07644 0.09477,-0.145228 0.156165,-0.20638 0.06141,-0.06188 0.125465,-0.118293 0.192204,-0.169252 0.06762,-0.05169 0.134362,-0.09937 0.200211,-0.143045 0.06674,-0.04441 0.126356,-0.08699 0.178856,-0.127758 0.05339,-0.04149 0.09654,-0.083 0.12947,-0.124482 0.03292,-0.04149 0.04939,-0.08554 0.04939,-0.132127 0,-0.06842 -0.02091,-0.11902 -0.06274,-0.15178 -0.04181,-0.03275 -0.103222,-0.04913 -0.184192,-0.04913 -0.08008,0 -0.141485,0.01785 -0.184196,0.0535 -0.04183,0.03493 -0.06897,0.08772 -0.08143,0.158333 l -0.3778,-0.0174 c 0.0089,-0.06041 0.02714,-0.117202 0.05472,-0.170344 0.02758,-0.05315 0.06674,-0.09973 0.117458,-0.139769 0.05161,-0.04004 0.115678,-0.07133 0.192203,-0.0939 0.07741,-0.02329 0.169512,-0.03493 0.276292,-0.03493 0.101433,0 0.191313,0.0098 0.269619,0.02949 0.07831,0.01893 0.14415,0.04695 0.197543,0.08408 0.05339,0.03712 0.09387,0.08263 0.121461,0.136493 0.02758,0.05315 0.04138,0.113929 0.04138,0.182355 0,0.07208 -0.01736,0.137225 -0.05205,0.195461 -0.03471,0.05824 -0.0792,0.112107 -0.133474,0.161608 -0.05428,0.04877 -0.114789,0.09464 -0.181527,0.137586 -0.06585,0.04295 -0.129913,0.08481 -0.192202,0.125574 -0.06229,0.04077 -0.119238,0.08189 -0.170847,0.123391 -0.05073,0.04149 -0.08854,0.0859 -0.113454,0.133217 h 0.872924 v 0.25224 h -1.31606"/>
<path d="m 43.9939,41.6517 c 0,0.06856 -0.01287,0.130345 -0.03862,0.18534 -0.02495,0.05429 -0.06275,0.100702 -0.113435,0.139273 -0.05068,0.03858 -0.113839,0.0682 -0.189461,0.08892 -0.07481,0.02 -0.162103,0.03 -0.261863,0.03 -0.111021,0 -0.204747,-0.0125 -0.281172,-0.03749 -0.07562,-0.02499 -0.137971,-0.05785 -0.187046,-0.09856 -0.04826,-0.04142 -0.08487,-0.0882 -0.109814,-0.140345 -0.02414,-0.05213 -0.03982,-0.104989 -0.04707,-0.158556 l .3452,-.0267 c 0.0048,0.03214 0.01367,0.06178 0.02654,0.08892 0.01367,0.02643 0.03178,0.04928 0.0543,0.06856 0.02253,0.01929 0.04988,0.03429 0.08206,0.045 0.03299,0.0099 0.0716,0.015 0.115846,0.015 0.08125,0 0.14441,-0.01786 0.18946,-0.05356 0.04505,-0.03571 0.06758,-0.09035 0.06758,-0.163913 0,-0.04499 -0.01091,-0.08107 -0.03258,-0.108208 -0.02091,-0.02714 -0.04786,-0.04785 -0.08085,-0.06214 -0.03218,-0.015 -0.06718,-0.02499 -0.104989,-0.03 -0.03781,-0.005 -0.07361,-0.0076 -0.1074,-0.0076 h -0.118258 v -0.243193 h 0.111022 c 0.03379,0 0.06797,-0.0027 0.102567,-0.0084 0.03539,-0.0057 0.06718,-0.01607 0.09533,-0.03107 0.02816,-0.015 0.05109,-0.03571 0.06878,-0.06214 0.01769,-0.02714 0.02654,-0.06142 0.02654,-0.102851 0,-0.06214 -0.0197,-0.110706 -0.05913,-0.145701 -0.03862,-0.03571 -0.09533,-0.05356 -0.17015,-0.05356 -0.07,0 -0.126711,0.01714 -0.170153,0.05142 -0.04264,0.03429 -0.06718,0.08286 -0.07361,0.145701 l -.3391,-.0214 c 0.0096,-0.0707 0.03139,-0.132132 0.06516,-0.184272 0.03459,-0.05213 0.07763,-0.09535 0.129124,-0.12963 0.0523,-0.03429 0.112228,-0.05964 0.179804,-0.07606 0.06758,-0.01714 0.13918,-0.02571 0.214803,-0.02571 0.09975,0 0.185436,0.01069 0.25704,0.03214 0.0716,0.02143 0.130326,0.05036 0.176184,0.08678 0.04586,0.03643 0.07964,0.07893 0.101368,0.127489 0.02172,0.04857 0.03259,0.100364 0.03259,0.155344 0,0.04428 -0.0073,0.08571 -0.02172,0.124275 -0.01449,0.03785 -0.0366,0.07214 -0.06637,0.102851 -0.02896,0.03 -0.06637,0.05606 -0.112226,0.07821 -0.04586,0.02143 -0.100167,0.03749 -0.162912,0.04821 v 0.0043 c 0.06998,0.0071 0.130732,0.02143 0.182219,0.04285 0.05149,0.0207 0.09372,0.04678 0.126707,0.07821 0.03298,0.03143 0.05752,0.06713 0.07361,0.107138 0.01609,0.03928 0.02414,0.08107 0.02414,0.125347"/>
<rect width="0.25024819" x="44.347847" y="40.934139" height="0.25809124"/>
<rect width="0.25024819" x="44.355774" y="41.481083" height="0.25809124"/>
<path d="M 44.9121,42.0779 V 41.865 c 0.04271,-0.07644 0.09477,-0.145229 0.156165,-0.206381 0.06141,-0.06188 0.125466,-0.118292 0.192204,-0.169251 0.06763,-0.05169 0.134363,-0.09937 0.200211,-0.143046 0.06674,-0.04441 0.126356,-0.08699 0.178856,-0.127757 0.05339,-0.04149 0.09655,-0.083 0.12947,-0.124483 0.03292,-0.04149 0.04939,-0.08554 0.04939,-0.132126 0,-0.06842 -0.02091,-0.119021 -0.06274,-0.151781 -0.04181,-0.03275 -0.103222,-0.04913 -0.184193,-0.04913 -0.08008,0 -0.141484,0.01785 -0.184196,0.0535 -0.04183,0.03493 -0.06897,0.08772 -0.08143,0.158332 l -0.3778,-0.0175 c 0.0089,-0.06041 0.02714,-0.117202 0.05472,-0.170344 0.02758,-0.05315 0.06674,-0.09973 0.117458,-0.139769 0.05161,-0.04004 0.115678,-0.07133 0.192203,-0.0939 0.07741,-0.02329 0.169512,-0.03493 0.276293,-0.03493 0.101432,0 0.191312,0.0098 0.269619,0.02949 0.0783,0.01893 0.144149,0.04695 0.197543,0.08408 0.05339,0.03712 0.09387,0.08263 0.121461,0.136494 0.02758,0.05315 0.04138,0.113929 0.04138,0.182355 0,0.07208 -0.01736,0.137225 -0.05205,0.195461 -0.03471,0.05824 -0.0792,0.112107 -0.133474,0.161608 -0.05428,0.04878 -0.114789,0.09464 -0.181528,0.137585 -0.06585,0.04295 -0.129913,0.08481 -0.192201,0.125575 -0.06229,0.04077 -0.119239,0.08189 -0.170848,0.123391 -0.05073,0.04149 -0.08854,0.0859 -0.113453,0.133217 h 0.872924 v 0.25224 h -1.31606"/>
<path d="m 47.799,41.6535 c 0,0.06856 -0.01287,0.130346 -0.03862,0.18534 -0.02495,0.0543 -0.06275,0.100702 -0.113435,0.139274 -0.05068,0.03857 -0.113838,0.0682 -0.18946,0.08892 -0.07482,0.02 -0.162104,0.03 -0.261863,0.03 -0.111022,0 -0.204747,-0.0125 -0.281172,-0.03749 -0.07562,-0.02499 -0.137972,-0.05785 -0.187046,-0.09856 -0.04826,-0.04142 -0.08487,-0.0882 -0.109814,-0.140344 -0.02414,-0.05213 -0.03982,-0.104989 -0.04707,-0.158556 l .3452,-.0267 c 0.0048,0.03214 0.01367,0.06178 0.02654,0.08892 0.01367,0.02643 0.03178,0.04928 0.05431,0.06856 0.02253,0.01929 0.04988,0.03429 0.08206,0.045 0.03299,0.0099 0.0716,0.015 0.115846,0.015 0.08125,0 0.14441,-0.01786 0.189459,-0.05356 0.04506,-0.03571 0.06758,-0.09035 0.06758,-0.163914 0,-0.04499 -0.01091,-0.08107 -0.03258,-0.108207 -0.02091,-0.02714 -0.04786,-0.04785 -0.08085,-0.06214 -0.03218,-0.015 -0.06718,-0.02499 -0.104989,-0.03 -0.03781,-0.005 -0.07361,-0.0076 -0.1074,-0.0076 h -0.118258 v -0.243193 h 0.111022 c 0.03379,0 0.06798,-0.0027 0.102567,-0.0084 0.03539,-0.0057 0.06718,-0.01607 0.09533,-0.03107 0.02816,-0.015 0.05109,-0.03571 0.06878,-0.06214 0.01769,-0.02714 0.02654,-0.06142 0.02654,-0.102851 0,-0.06214 -0.0197,-0.110707 -0.05913,-0.145702 -0.03862,-0.03571 -0.09533,-0.05356 -0.17015,-0.05356 -0.07,0 -0.12671,0.01714 -0.170152,0.05143 -0.04264,0.03429 -0.06718,0.08285 -0.07362,0.145701 l -.3391,-.0214 c 0.0096,-0.0707 0.03139,-0.132132 0.06516,-0.184272 0.03459,-0.05213 0.07763,-0.09535 0.129124,-0.129631 0.0523,-0.03429 0.112227,-0.05964 0.179804,-0.07606 0.06758,-0.01714 0.13918,-0.02571 0.214803,-0.02571 0.09975,0 0.185436,0.01069 0.25704,0.03214 0.0716,0.02143 0.130326,0.05036 0.176184,0.08678 0.04586,0.03643 0.07964,0.07893 0.101367,0.12749 0.02172,0.04857 0.03259,0.100363 0.03259,0.155344 0,0.04428 -0.0073,0.08571 -0.02172,0.124274 -0.01449,0.03785 -0.0366,0.07214 -0.06637,0.102851 -0.02896,0.03 -0.06637,0.05606 -0.112226,0.07821 -0.04586,0.02143 -0.100168,0.0375 -0.162912,0.04821 v 0.0043 c 0.06998,0.0071 0.130732,0.02143 0.182219,0.04285 0.05149,0.02071 0.09372,0.04678 0.126707,0.07821 0.03298,0.03143 0.05752,0.06714 0.07361,0.107139 0.01609,0.03928 0.02414,0.08107 0.02414,0.125346"/>
<rect width="1.4788888" x="35.792946" y="40.889698" height="1.1934434"/>
<rect width="1.4788888" x="33.639023" y="40.903648" height="1.1934434"/>
<path style="fill-rule:evenodd" d="m 40.2346,41.5369 .2182,-.3416 .2173,.3421 z "/>
</g>
<g style="fill:#90d8d8">
<rect width="2.2" x="2.2518878" y="8.6679535" height="2.1983016"/>
<rect width="2.2" x="2.2518878" y="13.03159" height="2.1983016"/>
<rect width="2.2" x="2.2518878" y="17.395227" height="2.1983016"/>
</g>
</g>
<path style="fill:#fff" d="m 1.9487,39.8 c -0.01376,0 -0.02577,0.0092 -0.02904,0.02266 l -.1211,.4931 c -0.101212,0.02721 -0.196668,0.06764 -0.28494,0.11944 l -.2181,-.1425 -.2147,-.1405 c -0.01193,-0.0077 -0.02768,-0.0063 -0.0378,0.0038 l -.2309,.2314 c -0.0098,0.0098 -0.01217,0.02471 -0.005,0.03649 l .1576,.2592 0,0 .1143,.1882 c -0.04815,0.08072 -0.08733,0.167369 -0.114859,0.259171 l -.4982,.1032 c -0.01386,0.0029 -0.02389,0.01602 -0.02389,0.03019 v 0.326908 c 0,0.01383 0.01047,0.0257 0.02389,0.02896 l .4832,.117 c 0.02583,0.106282 0.06572,0.207929 0.118541,0.300566 l -.28,.4252 c -0.0078,0.01187 -0.0063,0.02769 0.0038,0.03771 l .2321,.2315 c 0.0098,0.0097 0.02484,0.01093 0.03665,0.0038 l .439,-.2655 c 0.0861,0.04957 0.179219,0.08931 0.277414,0.11576 l .1023,.4905 c 0.0029,0.01387 0.01476,0.02397 0.02896,0.02397 h 0.327971 c 0.01376,0 0.02569,-0.0092 0.02896,-0.02266 l .1211,-.4931 c 0.101235,-0.02722 0.196733,-0.06762 0.285022,-0.11944 l .2165,.1414 .2163,.1414 c 0.01193,0.0077 0.02768,0.0063 0.0378,-0.0038 l .2309,-.2314 c 0.0026,-0.0026 0.0045,-0.0056 0.0061,-0.0088 0.0042,-0.0087 0.0042,-0.01902 -0.0011,-0.02765 l -.1576,-.2591 0,0 -.1143,-.1882 c 0.04815,-0.08072 0.08725,-0.167287 0.114777,-0.259089 l .4982,-.1032 c 0.01387,-0.0029 0.02389,-0.01602 0.02389,-0.03019 v -0.327071 c 0,-0.01383 -0.01047,-0.02562 -0.02389,-0.02888 l -.4832,-.117 c -0.02583,-0.106281 -0.06571,-0.208011 -0.118536,-0.300647 l .28,-.4252 c 0.0078,-0.01187 0.0063,-0.02769 -0.0038,-0.03771 l -.2321,-.2314 c -0.0098,-0.0097 -0.02484,-0.01093 -0.03665,-0.0038 l -.4389,.2654 c -0.0861,-0.04957 -0.1793,-0.08923 -0.277495,-0.115677 l -.1022,-.4906 c -0.0029,-0.01387 -0.01484,-0.02389 -0.02904,-0.02389 h -0.32789 z  m .1436,.6987 a 0.951234,0.951234 0 0,1 0.951271,0.951271 0.951234,0.951234 0 0,1 -0.951271,0.951271 0.951234,0.951234 0 0,1 -0.951271,-0.951271 0.951234,0.951234 0 0,1 0.951271,-0.951271 z "/>
<path style="fill:#dcdcdc;stroke:#505050;stroke-width:.386" d="m 40.863,6.4566 -1.3662,2.3666 c -1.15114,0.671185 -2.32626,1.44712 -3.24938,2.40054 l -24.0785,24.8689 -1.9201,-1.8389 24.0785,-24.8689 c 0.923111,-0.953418 1.80728,-2.14881 2.28931,-3.31996 l 2.3263,-1.4471 z "/>
<path style="fill:#f0f0f0;stroke:#000;stroke-linejoin:round;stroke-linecap:round;stroke-width:.123;stroke-dashoffset:1.088" d="m 40.863,6.4566 -1.3662,2.3666 c -3.81031,1.95565 -4.03289,0.287846 -2.88021,-2.75829 l 2.3263,-1.4471 z "/>
<path style="fill:#dd8c00;stroke-width:.772" d="m 23.4556,26.9626 -1.4988,1.548 c -0.859159,0.136153 -1.73788,0.544035 -2.44095,1.27018 -0.710906,0.734242 -1.12032,1.6418 -1.21892,2.50984 l -7.0624,7.2943 c -1.6391,1.69291 -6.10878,-2.56613 -4.45891,-4.27016 l 7.0624,-7.2943 c 0.868456,-0.130777 1.76489,-0.57193 2.4758,-1.30617 0.70306,-0.726137 1.07971,-1.61484 1.18407,-2.47384 l 1.4988,-1.548 4.4589,4.2702 z "/>
<g style="stroke-width:.386">
<g style="stroke-linejoin:round">
<rect width="9.7939081" x="-20.459026" y="33.111126" height="1.069" style="opacity:.2;fill:url(#linearGradient4)" transform="rotate(-45.494921)"/>
<rect width="9.7939081" x="-20.401009" y="31.307192" height="1.069" style="opacity:.2;fill:url(#linearGradient5)" transform="rotate(-45.494921)"/>
</g>
<path style="fill:#dcdcdc;stroke:#505050" d="m 10.4119,6.075 c -0.09649,0.05307 -0.158438,0.152202 -0.164283,0.262238 0,0.0029 0,0.006 0,0.0089 -0.0025,0.106613 0.04847,0.207835 0.136477,0.268873 0,0 3.79807,2.64311 4.02917,2.80409 0.02178,0.258139 0.214431,2.53705 0.232797,2.75212 -0.134131,0.174124 -2.17529,2.82191 -2.44125,3.16735 -0.422975,-0.193643 -5.31442,-2.43329 -5.31442,-2.43329 -0.103929,-0.04773 -0.225543,-0.0357 -0.318549,0.03115 -0.08134,0.05854 -0.129766,0.151622 -0.132158,0.250596 0,0.01368 0,0.02771 0.0019,0.04176 0.259073,2.40279 1.4327,4.60734 3.07316,5.82361 0.0197,0.06767 0.04899,0.133971 0.106883,0.175812 0.910153,0.655686 2.42986,1.1239 2.99535,1.28405 0.01198,0.347382 0.05061,1.46315 0.05061,1.46315 0.0056,0.166356 0.138587,0.30013 0.304642,0.30701 l 1.8075,.0765 c 0.174641,0.0074 0.322473,-0.127538 0.33147,-0.302141 0,0 0.05369,-1.07469 0.07218,-1.44426 0.289571,-0.04427 0.689733,-0.105604 0.689733,-0.105604 0.586015,-0.0699 4.10126,1.93014 5.58665,2.59273 0.122553,0.05455 0.265889,0.02649 0.359292,-0.06997 l 3.3311,-3.4627 c 0.106814,-0.111099 0.118933,-0.283078 0.02801,-0.407874 -1.15721,-1.59276 -3.33257,-4.53736 -3.32292,-4.93708 0.277618,-2.41611 -0.416616,-4.9672 -2.03579,-6.70257 -2.41235,-2.58546 -6.30772,-3.15372 -9.40724,-1.44447 Z "/>
</g>
<path style="fill:#bb2121;stroke-width:.772" d="m 40.9635,32.7316 c -1.41419,-1.50089 -15.762,-13.6237 -15.762,-13.6237 l -3.9186,3.9497 c 0,0 12.6429,13.405 14.0564,14.9059 1.41353,1.50151 3.81787,1.54722 5.3714,0.102783 1.55258,-1.44446 1.66636,-3.83282 0.252838,-5.33465 z  m -1.6004,3.8713 c -0.722617,0.688815 -1.86704,0.661147 -2.55521,-0.06177 -0.688509,-0.722291 -0.660841,-1.86671 0.06176,-2.55457 0.722617,-0.688817 1.86704,-0.661151 2.55521,0.06177 0.688516,0.721976 0.660851,1.86639 -0.06175,2.55457 z "/>
<g style="stroke-width:.386">
<rect width="3.8561974" x="-3.1990833" y="23.470806" rx="0.59061706" height="3.1442473" style="fill:#f0f0f0;stroke:#505050" transform="rotate(-49.845919)"/>
<path style="opacity:.2;fill:url(#linearGradient2);stroke-linejoin:round" d="m 26.2268,22.4581 9.8379,8.3432 -2.2443,2.4828 -9.0266,-9.3565 z "/>
</g>
</svg>
