<svg width="48" version="1.1" xmlns="http://www.w3.org/2000/svg" height="48">
<g style="text-align:start;stroke:none;line-height:100%" id="g8">
<rect width="48" x="-4.7353717e-07" y="4.3483262" height="39.252476" style="fill:#2980b9" id="rect907"/>
<rect width="47.999989" x="4.8583702e-06" y="39.288036" height="4.363637" style="fill:#37353a" id="rect920"/>
<rect width="1.4788888" x="37.988712" y="40.875748" height="1.1934434" style="fill:#fff" id="rect827"/>
<rect width="1.7586871" x="7.5505252" y="40.342983" height="1.8249223" style="fill:#d45500" id="rect5248"/>
<rect width="1.7586871" x="10.913362" y="40.342983" height="1.8249223" style="fill:#349ba3" id="rect5250"/>
<rect width="1.7586871" x="4.3903322" y="40.342983" height="1.8249223" style="fill:#ccc" id="rect5252"/>
<rect width="1.7586871" x="13.770673" y="40.342983" height="1.8249223" style="fill:#008000" id="rect5254"/>
<g style="fill:#fff;font-family:'Liberation Sans'" id="g17">
<path style="font-weight:bold" id="text3830" d="m 41.2224,42.0938 0,-.2129 c 0.04271,-0.07644 0.09477,-0.145228 0.156165,-0.20638 0.06141,-0.06188 0.125465,-0.118293 0.192204,-0.169252 0.06762,-0.05169 0.134362,-0.09937 0.200211,-0.143045 0.06674,-0.04441 0.126356,-0.08699 0.178856,-0.127758 0.05339,-0.04149 0.09654,-0.083 0.12947,-0.124482 0.03292,-0.04149 0.04939,-0.08554 0.04939,-0.132127 -3e-06,-0.06842 -0.02091,-0.11902 -0.06274,-0.15178 -0.04181,-0.03275 -0.103222,-0.04913 -0.184192,-0.04913 -0.08008,1e-06 -0.141485,0.01785 -0.184196,0.0535 -0.04183,0.03493 -0.06897,0.08772 -0.08143,0.158333 l -.3778,-.0174 c 0.0089,-0.06041 0.02714,-0.117202 0.05472,-0.170344 0.02758,-0.05315 0.06674,-0.09973 0.117458,-0.139769 0.05161,-0.04004 0.115678,-0.07133 0.192203,-0.0939 0.07741,-0.02329 0.169512,-0.03493 0.276292,-0.03493 0.101433,1e-06 0.191313,0.0098 0.269619,0.02949 0.07831,0.01893 0.14415,0.04695 0.197543,0.08408 0.05339,0.03712 0.09387,0.08263 0.121461,0.136493 0.02758,0.05315 0.04138,0.113929 0.04138,0.182355 -3e-06,0.07208 -0.01736,0.137225 -0.05205,0.195461 -0.03471,0.05824 -0.0792,0.112107 -0.133474,0.161608 -0.05428,0.04877 -0.114789,0.09464 -0.181527,0.137586 -0.06585,0.04295 -0.129913,0.08481 -0.192202,0.125574 -0.06229,0.04077 -0.119238,0.08189 -0.170847,0.123391 -0.05073,0.04149 -0.08854,0.0859 -0.113454,0.133217 h 0.872924 v 0.25224 h -1.31606"/>
<path style="font-weight:bold" id="text3834" d="m 43.9939,41.6517 c 0,0.06856 -0.01287,0.130345 -0.03862,0.18534 -0.02495,0.05429 -0.06275,0.100702 -0.113435,0.139273 -0.05068,0.03858 -0.113839,0.0682 -0.189461,0.08892 -0.07481,0.02 -0.162103,0.03 -0.261863,0.03 -0.111021,0 -0.204747,-0.0125 -0.281172,-0.03749 -0.07562,-0.02499 -0.137971,-0.05785 -0.187046,-0.09856 -0.04826,-0.04142 -0.08487,-0.0882 -0.109814,-0.140345 -0.02414,-0.05213 -0.03982,-0.104989 -0.04707,-0.158556 l .3452,-.0267 c 0.0048,0.03214 0.01367,0.06178 0.02654,0.08892 0.01367,0.02643 0.03178,0.04928 0.0543,0.06856 0.02253,0.01929 0.04988,0.03429 0.08206,0.045 0.03299,0.0099 0.0716,0.015 0.115846,0.015 0.08125,0 0.14441,-0.01786 0.18946,-0.05356 0.04505,-0.03571 0.06758,-0.09035 0.06758,-0.163913 -3e-06,-0.04499 -0.01091,-0.08107 -0.03258,-0.108208 -0.02091,-0.02714 -0.04786,-0.04785 -0.08085,-0.06214 -0.03218,-0.015 -0.06718,-0.02499 -0.104989,-0.03 -0.03781,-0.005 -0.07361,-0.0076 -0.1074,-0.0076 h -0.118258 v -0.243193 h 0.111022 c 0.03379,1e-06 0.06797,-0.0027 0.102567,-0.0084 0.03539,-0.0057 0.06718,-0.01607 0.09533,-0.03107 0.02816,-0.015 0.05109,-0.03571 0.06878,-0.06214 0.01769,-0.02714 0.02654,-0.06142 0.02654,-0.102851 0,-0.06214 -0.0197,-0.110706 -0.05913,-0.145701 -0.03862,-0.03571 -0.09533,-0.05356 -0.17015,-0.05356 -0.06999,1e-06 -0.126711,0.01714 -0.170153,0.05142 -0.04264,0.03429 -0.06718,0.08286 -0.07361,0.145701 l -.3391,-.0214 c 0.0096,-0.0707 0.03139,-0.132132 0.06516,-0.184272 0.03459,-0.05213 0.07763,-0.09535 0.129124,-0.12963 0.0523,-0.03429 0.112228,-0.05964 0.179804,-0.07606 0.06758,-0.01714 0.13918,-0.02571 0.214803,-0.02571 0.09975,3e-06 0.185436,0.01069 0.25704,0.03214 0.0716,0.02143 0.130326,0.05036 0.176184,0.08678 0.04586,0.03643 0.07964,0.07893 0.101368,0.127489 0.02172,0.04857 0.03259,0.100364 0.03259,0.155344 0,0.04428 -0.0073,0.08571 -0.02172,0.124275 -0.01449,0.03785 -0.0366,0.07214 -0.06637,0.102851 -0.02896,0.03 -0.06637,0.05606 -0.112226,0.07821 -0.04586,0.02143 -0.100167,0.03749 -0.162912,0.04821 v 0.0043 c 0.06998,0.0071 0.130732,0.02143 0.182219,0.04285 0.05149,0.0207 0.09372,0.04678 0.126707,0.07821 0.03298,0.03143 0.05752,0.06713 0.07361,0.107138 0.01609,0.03928 0.02414,0.08107 0.02414,0.125347"/>
<rect width="0.25024819" x="44.347847" y="40.934139" height="0.25809124" id="rect5274"/>
<rect width="0.25024819" x="44.355774" y="41.481083" height="0.25809124" id="rect5276"/>
<path style="font-weight:bold" id="path5278" d="m 44.9121,42.0779 0,-.2129 c 0.04271,-0.07644 0.09477,-0.145229 0.156165,-0.206381 0.06141,-0.06188 0.125466,-0.118292 0.192204,-0.169251 0.06763,-0.05169 0.134363,-0.09937 0.200211,-0.143046 0.06674,-0.04441 0.126356,-0.08699 0.178856,-0.127757 0.05339,-0.04149 0.09655,-0.083 0.12947,-0.124483 0.03292,-0.04149 0.04939,-0.08554 0.04939,-0.132126 -4e-06,-0.06842 -0.02091,-0.119021 -0.06274,-0.151781 -0.04181,-0.03275 -0.103222,-0.04913 -0.184193,-0.04913 -0.08008,1e-06 -0.141484,0.01785 -0.184196,0.0535 -0.04183,0.03493 -0.06897,0.08772 -0.08143,0.158332 l -.3778,-.0175 c 0.0089,-0.06041 0.02714,-0.117202 0.05472,-0.170344 0.02758,-0.05315 0.06674,-0.09973 0.117458,-0.139769 0.05161,-0.04004 0.115678,-0.07133 0.192203,-0.0939 0.07741,-0.02329 0.169512,-0.03493 0.276293,-0.03493 0.101432,1e-06 0.191312,0.0098 0.269619,0.02949 0.0783,0.01893 0.144149,0.04695 0.197543,0.08408 0.05339,0.03712 0.09387,0.08263 0.121461,0.136494 0.02758,0.05315 0.04138,0.113929 0.04138,0.182355 -3e-06,0.07208 -0.01736,0.137225 -0.05205,0.195461 -0.03471,0.05824 -0.0792,0.112107 -0.133474,0.161608 -0.05428,0.04878 -0.114789,0.09464 -0.181528,0.137585 -0.06585,0.04295 -0.129913,0.08481 -0.192201,0.125575 -0.06229,0.04077 -0.119239,0.08189 -0.170848,0.123391 -0.05073,0.04149 -0.08854,0.0859 -0.113453,0.133217 h 0.872924 v 0.25224 h -1.31606"/>
<path style="font-weight:bold" id="path5280" d="m 47.799,41.6535 c 0,0.06856 -0.01287,0.130346 -0.03862,0.18534 -0.02495,0.0543 -0.06275,0.100702 -0.113435,0.139274 -0.05068,0.03857 -0.113838,0.0682 -0.18946,0.08892 -0.07482,0.02 -0.162104,0.03 -0.261863,0.03 -0.111022,0 -0.204747,-0.0125 -0.281172,-0.03749 -0.07562,-0.02499 -0.137972,-0.05785 -0.187046,-0.09856 -0.04826,-0.04142 -0.08487,-0.0882 -0.109814,-0.140344 -0.02414,-0.05213 -0.03982,-0.104989 -0.04707,-0.158556 l .3452,-.0267 c 0.0048,0.03214 0.01367,0.06178 0.02654,0.08892 0.01367,0.02643 0.03178,0.04928 0.05431,0.06856 0.02253,0.01929 0.04988,0.03429 0.08206,0.045 0.03299,0.0099 0.0716,0.015 0.115846,0.015 0.08125,0 0.14441,-0.01786 0.189459,-0.05356 0.04506,-0.03571 0.06758,-0.09035 0.06758,-0.163914 -3e-06,-0.04499 -0.01091,-0.08107 -0.03258,-0.108207 -0.02091,-0.02714 -0.04786,-0.04785 -0.08085,-0.06214 -0.03218,-0.015 -0.06718,-0.02499 -0.104989,-0.03 -0.03781,-0.005 -0.07361,-0.0076 -0.1074,-0.0076 h -0.118258 v -0.243193 h 0.111022 c 0.03379,1e-06 0.06798,-0.0027 0.102567,-0.0084 0.03539,-0.0057 0.06718,-0.01607 0.09533,-0.03107 0.02816,-0.015 0.05109,-0.03571 0.06878,-0.06214 0.01769,-0.02714 0.02654,-0.06142 0.02654,-0.102851 0,-0.06214 -0.0197,-0.110707 -0.05913,-0.145702 -0.03862,-0.03571 -0.09533,-0.05356 -0.17015,-0.05356 -0.06999,1e-06 -0.12671,0.01714 -0.170152,0.05143 -0.04264,0.03429 -0.06718,0.08285 -0.07362,0.145701 l -.3391,-.0214 c 0.0096,-0.0707 0.03139,-0.132132 0.06516,-0.184272 0.03459,-0.05213 0.07763,-0.09535 0.129124,-0.129631 0.0523,-0.03429 0.112227,-0.05964 0.179804,-0.07606 0.06758,-0.01714 0.13918,-0.02571 0.214803,-0.02571 0.09975,4e-06 0.185436,0.01069 0.25704,0.03214 0.0716,0.02143 0.130326,0.05036 0.176184,0.08678 0.04586,0.03643 0.07964,0.07893 0.101367,0.12749 0.02172,0.04857 0.03259,0.100363 0.03259,0.155344 0,0.04428 -0.0073,0.08571 -0.02172,0.124274 -0.01449,0.03785 -0.0366,0.07214 -0.06637,0.102851 -0.02896,0.03 -0.06637,0.05606 -0.112226,0.07821 -0.04586,0.02143 -0.100168,0.0375 -0.162912,0.04821 v 0.0043 c 0.06998,0.0071 0.130732,0.02143 0.182219,0.04285 0.05149,0.02071 0.09372,0.04678 0.126707,0.07821 0.03298,0.03143 0.05752,0.06714 0.07361,0.107139 0.01609,0.03928 0.02414,0.08107 0.02414,0.125346"/>
<rect width="1.4788888" x="35.792946" y="40.889698" height="1.1934434" id="rect5282"/>
<rect width="1.4788888" x="33.639023" y="40.903648" height="1.1934434" id="rect5284"/>
<path style="fill-rule:evenodd" id="path5286" d="m 40.2346,41.5369 .2182,-.3416 .2173,.3421 z "/>
</g>
<g style="fill:#90d8d8" id="g28">
<rect width="2.1999536" x="2.2518878" y="8.6679535" height="2.1983016" id="rect5288"/>
<rect width="2.1999536" x="2.2518878" y="13.03159" height="2.1983016" id="rect5290"/>
<rect width="2.1999536" x="2.2518878" y="17.395227" height="2.1983016" id="rect5292"/>
</g>
</g>
<g id="g4196" transform="matrix(0.772174,0,0,0.772174,5.5831649,3.6827823)">
<path style="fill:#dcdcdc;stroke:#505050;stroke-width:.5" id="rect3006" d="m 45.6889,3.5923 -1.7693,3.0648 c -1.49077,0.869208 -3.01259,1.87407 -4.20806,3.10878 l -31.1825,32.2061 -2.4866,-2.3814 31.1825,-32.2061 C 38.4204,6.14977 39.56543,4.60169 40.18968,3.08501 l 3.0126,-1.8741 z"/>
<path style="fill:#f0f0f0;stroke:#000;stroke-linejoin:round;stroke-linecap:round;stroke-width:.159;stroke-dashoffset:1.088" id="path3925" d="M 45.6889,3.5923 43.9196,6.6571 C 38.98511,9.18974 38.69687,7.029871 40.18963,3.08502 l 3.0126,-1.8741 z"/>
<path style="fill:#dd8c00;stroke:none" id="rect3956" d="m 23.1457,30.1482 -1.941,2.0047 c -1.11264,0.176322 -2.25062,0.704544 -3.16111,1.64492 -0.920649,0.950869 -1.45085,2.12619 -1.57855,3.25033 l -9.1461,9.4464 C 5.19625,48.68693 -0.59214,43.17132 1.5445,40.96454 l 9.1461,-9.4464 c 1.12468,-0.169361 2.28559,-0.740669 3.20625,-1.69154 0.910486,-0.940372 1.39826,-2.09128 1.53341,-3.20371 l 1.941,-2.0047 5.7744,5.53 z"/>
<path style="fill:#dcdcdc;stroke:#505050;stroke-width:.5" id="path6" d="M 6.2539,3.098 C 6.128936,3.166734 6.048717,3.295107 6.041148,3.437608 c -9e-5,0.00371 -1.89e-4,0.00783 -2.79e-4,0.011539 -0.0033,0.138068 0.06277,0.269154 0.176742,0.3482 0,0 4.91863,3.42292 5.21792,3.63139 0.02821,0.3343 0.277695,3.28557 0.301479,3.56409 -0.173704,0.225497 -2.81708,3.65447 -3.16151,4.10183 -0.547767,-0.250774 -6.88236,-3.1512 -6.88236,-3.1512 -0.134592,-0.06181 -0.292086,-0.04624 -0.412533,0.04034 -0.105341,0.07581 -0.168051,0.196355 -0.171149,0.324531 -4.22e-4,0.01772 3.56e-4,0.03589 0.0024,0.05408 0.335508,3.1117 1.8554,5.96667 3.97985,7.54178 0.02551,0.08763 0.06344,0.173497 0.138417,0.227682 1.17868,0.849137 3.14676,1.45549 3.87908,1.66289 0.01552,0.449871 0.06554,1.89483 0.06554,1.89483 0.0072,0.215437 0.179475,0.388679 0.394523,0.397589 l 2.3408,0.0991 c 0.226166,0.0096 0.417613,-0.165167 0.429265,-0.391284 0,0 0.06953,-1.39176 0.09347,-1.87037 0.375004,-0.05733 0.893228,-0.136761 0.893228,-0.136761 0.75891,-0.09052 5.31127,2.4996 7.23491,3.35767 0.15871,0.07064 0.344336,0.03431 0.465296,-0.09061 l 4.3139,-4.4843 c 0.138328,-0.143876 0.154022,-0.366596 0.03627,-0.52821 -1.49863,-2.06268 -4.3158,-5.87604 -4.30329,-6.39369 0.359525,-3.12895 -0.539533,-6.4327 -2.63642,-8.68006 -3.12408,-3.34826 -8.16871,-4.08418 -12.1827,-1.87064 z"/>
<path style="fill:#bb2121" id="path68" d="M 45.8193,37.6192 C 43.98788,35.67549 25.4069,19.976 25.4069,19.976 l -5.0747,5.115 c 0,0 16.373,17.36 18.2035,19.3037 1.83057,1.94451 4.94427,2.0037 6.95615,0.133107 2.01064,-1.87063 2.15799,-4.96364 0.327434,-6.90856 z m -2.0726,5.0135 c -0.935815,0.892039 -2.41788,0.856208 -3.30908,-0.08 -0.891643,-0.935393 -0.855812,-2.41745 0.07998,-3.30826 0.935815,-0.892042 2.41788,-0.856213 3.30908,0.08 0.891651,0.934983 0.855824,2.41704 -0.07997,3.30826 z"/>
<rect width="4.9939094" x="-5.1598392" y="21.794134" rx="0.76486957" height="4.0719094" ry="0.76486957" style="fill:#f0f0f0;stroke:#505050;stroke-width:.5" id="rect3853" transform="matrix(0.64484535,-0.76431308,0.76431308,0.64484535,0,0)"/>
</g>
<path style="fill:#fff" id="path4214" d="m 1.9487,39.7999 c -0.01376,0 -0.02577,0.0092 -0.02904,0.02266 l -.1211,.4931 c -0.101212,0.02721 -0.196668,0.06764 -0.28494,0.11944 l -.2181,-.1425 -.2147,-.1405 c -0.01193,-0.0077 -0.02768,-0.0063 -0.0378,0.0038 l -.2309,.2314 c -0.0098,0.0098 -0.01217,0.02471 -0.005,0.03649 l .1576,.2592 .0002,-.0002 .1143,.1882 c -0.04815,0.08072 -0.08733,0.167369 -0.114859,0.259171 l -.4982,.1032 c -0.01386,0.0029 -0.02389,0.01602 -0.02389,0.03019 v 0.326908 c 0,0.01383 0.01047,0.0257 0.02389,0.02896 l .4832,.117 c 0.02583,0.106282 0.06572,0.207929 0.118541,0.300566 l -.28,.4252 c -0.0078,0.01187 -0.0063,0.02769 0.0038,0.03771 l .2321,.2315 c 0.0098,0.0097 0.02484,0.01093 0.03665,0.0038 l .439,-.2655 c 0.0861,0.04957 0.179219,0.08931 0.277414,0.11576 l .1023,.4905 c 0.0029,0.01387 0.01476,0.02397 0.02896,0.02397 h 0.327971 c 0.01376,0 0.02569,-0.0092 0.02896,-0.02266 l .1211,-.4931 c 0.101235,-0.02722 0.196733,-0.06762 0.285022,-0.11944 l .2165,.1414 .2163,.1414 c 0.01193,0.0077 0.02768,0.0063 0.0378,-0.0038 l .2309,-.2314 c 0.0026,-0.0026 0.0045,-0.0056 0.0061,-0.0088 0.0042,-0.0087 0.0042,-0.01902 -0.0011,-0.02765 l -.1576,-.2591 -.0002,.0002 -.1143,-.1882 c 0.04815,-0.08072 0.08725,-0.167287 0.114777,-0.259089 l .4982,-.1032 c 0.01387,-0.0029 0.02389,-0.01602 0.02389,-0.03019 v -0.327071 c 0,-0.01383 -0.01047,-0.02562 -0.02389,-0.02888 l -.4832,-.117 c -0.02583,-0.106281 -0.06571,-0.208011 -0.118536,-0.300647 l .28,-.4252 c 0.0078,-0.01187 0.0063,-0.02769 -0.0038,-0.03771 l -.2321,-.2314 c -0.0098,-0.0097 -0.02484,-0.01093 -0.03665,-0.0038 l -.4389,.2654 c -0.0861,-0.04957 -0.1793,-0.08923 -0.277495,-0.115677 l -.1022,-.4906 c -0.0029,-0.01387 -0.01484,-0.02389 -0.02904,-0.02389 h -0.32789 z  m .1436,.6987 a 0.951234,0.951234 0 0,1 0.951271,0.951271 0.951234,0.951234 0 0,1 -0.951271,0.951271 0.951234,0.951234 0 0,1 -0.951271,-0.951271 0.951234,0.951234 0 0,1 0.951271,-0.951271 z "/>
</svg>
