<svg width="96" version="1.0" xmlns="http://www.w3.org/2000/svg" height="96" xmlns:xlink="http://www.w3.org/1999/xlink">
<defs>
<linearGradient id="linearGradient37">
<stop offset="0" style="stop-color:#bd000f"/>
<stop offset="0.46820849" style="stop-color:#bd000f"/>
<stop offset="1" style="stop-color:#ff0016"/>
</linearGradient>
<linearGradient id="linearGradient3778">
<stop offset="0"/>
<stop offset="0.5" style="stop-opacity:0"/>
<stop offset="1" style="stop-color:#fff"/>
</linearGradient>
<linearGradient id="linearGradient3745">
<stop offset="0" style="stop-color:#ccc"/>
<stop offset="0.40964222" style="stop-color:#ccc"/>
<stop offset="0.72741055" style="stop-color:#7a7a7a"/>
<stop offset="1" style="stop-color:#404040"/>
</linearGradient>
<linearGradient xlink:href="#linearGradient3745" id="linearGradient3985" y1="22" x1="9" y2="26" gradientUnits="userSpaceOnUse" x2="9"/>
<linearGradient gradientTransform="matrix(0,1,1,0,-10,22)" xlink:href="#linearGradient3778" id="linearGradient3918" y1="24" x1="10" y2="24" gradientUnits="userSpaceOnUse" x2="18"/>
<linearGradient gradientTransform="translate(0,48)" xlink:href="#linearGradient3745" id="linearGradient3935" y1="22" x1="9" y2="26" gradientUnits="userSpaceOnUse" x2="9"/>
<linearGradient gradientTransform="matrix(0,1,1,0,-10,46)" xlink:href="#linearGradient3778" id="linearGradient3931" y1="24" x1="10" y2="24" gradientUnits="userSpaceOnUse" x2="18"/>
<linearGradient gradientTransform="matrix(0,1,1,0,-10,10)" xlink:href="#linearGradient3778" id="linearGradient3983" y1="24" x1="10" y2="24" gradientUnits="userSpaceOnUse" x2="18"/>
<linearGradient gradientTransform="translate(0,24)" xlink:href="#linearGradient3745" id="linearGradient3900" y1="22" x1="9" y2="26" gradientUnits="userSpaceOnUse" x2="9"/>
<linearGradient gradientTransform="matrix(0,1,1,0,-10,34)" xlink:href="#linearGradient3778" id="linearGradient3905" y1="24" x1="10" y2="24" gradientUnits="userSpaceOnUse" x2="18"/>
<linearGradient gradientTransform="translate(0,12)" xlink:href="#linearGradient3745" id="linearGradient3913" y1="22" x1="9" y2="26" gradientUnits="userSpaceOnUse" x2="9"/>
<linearGradient gradientTransform="translate(0,36)" xlink:href="#linearGradient3745" id="linearGradient3926" y1="22" x1="9" y2="26" gradientUnits="userSpaceOnUse" x2="9"/>
<linearGradient gradientTransform="matrix(0,1,1,0,-10,58)" xlink:href="#linearGradient3778" id="linearGradient3940" y1="24" x1="10" y2="24" gradientUnits="userSpaceOnUse" x2="18"/>
<radialGradient fx="56.719601" fy="48" cx="56.719601" cy="48" xlink:href="#linearGradient37" id="radialGradient38" r="30" gradientUnits="userSpaceOnUse"/>
</defs>
<path style="fill:#64a0dc" d="m 12,6 h 72 c 3.324,0 6,2.676 6,6 v 72 c 0,3.324 -2.676,6 -6,6 H 12 C 8.676,90 6,87.324 6,84 V 12 C 6,8.676 8.676,6 12,6 Z"/>
<path style="opacity:.1;color:#000;stroke-width:2" d="m 56.7196,20 c -16.62,0 -30,13.38 -30,30 0,16.62 13.38,30 30,30 16.62,0 30,-13.38 30,-30 0,-16.62 -13.38,-30 -30,-30 z  m 0,16.6666 c 7.38666,0 13.3333,5.94666 13.3333,13.3333 0,7.38666 -5.94666,13.3333 -13.3333,13.3333 -7.38666,0 -13.3333,-5.94666 -13.3333,-13.3333 0,-7.38666 5.94666,-13.3333 13.3333,-13.3333 z "/>
<rect width="2" x="24" y="6" height="84" style="opacity:.17;fill:#fff"/>
<rect width="1" x="23" y="6" height="84" style="opacity:.4"/>
<rect width="17.54179" x="5.9757748" y="6.0075603" rx="0" height="84.016663" style="fill:#222;fill-rule:evenodd"/>
<path style="opacity:.3;fill:url(#linearGradient3918)" d="m 10,36 c 0,-2.20914 1.79086,-4 4,-4 2.20914,0 4,1.79086 4,4 0,2.20914 -1.79086,4 -4,4 -2.20914,0 -4,-1.79086 -4,-4 z m 1,0 c 0,1.65685 1.34315,3 3,3 1.65685,0 3,-1.34315 3,-3 0,-1.65685 -1.34315,-3 -3,-3 -1.65685,0 -3,1.34315 -3,3 z"/>
<path style="opacity:.6;fill:#7f7f7f" d="m 17,36 a 3,3 0 0 1 -6,0 3,3 0 1 1 6,0 z"/>
<path style="opacity:.3;fill:#fff;fill-rule:evenodd" d="m 5.9766,6.0078 v 84.0156 h 17.541 v -2 h -15.541 v -80.0156 h 15.541 v -2 h -17.541 z "/>
<rect width="12" x="4" y="34" rx="2" height="4" style="fill:url(#linearGradient3913)"/>
<path style="opacity:.3;fill:url(#linearGradient3905)" d="m 10,48 c 0,-2.20914 1.79086,-4 4,-4 2.20914,0 4,1.79086 4,4 0,2.20914 -1.79086,4 -4,4 -2.20914,0 -4,-1.79086 -4,-4 z m 1,0 c 0,1.65685 1.34315,3 3,3 1.65685,0 3,-1.34315 3,-3 0,-1.65685 -1.34315,-3 -3,-3 -1.65685,0 -3,1.34315 -3,3 z"/>
<path style="opacity:.6;fill:#7f7f7f" d="m 17,48 a 3,3 0 0 1 -6,0 3,3 0 1 1 6,0 z"/>
<rect width="12" x="4" y="46" rx="2" height="4" style="fill:url(#linearGradient3900)"/>
<path style="opacity:.3;fill:url(#linearGradient3931)" d="m 10,60 c 0,-2.20914 1.79086,-4 4,-4 2.20914,0 4,1.79086 4,4 0,2.20914 -1.79086,4 -4,4 -2.20914,0 -4,-1.79086 -4,-4 z m 1,0 c 0,1.65685 1.34315,3 3,3 1.65685,0 3,-1.34315 3,-3 0,-1.65685 -1.34315,-3 -3,-3 -1.65685,0 -3,1.34315 -3,3 z"/>
<path style="opacity:.6;fill:#7f7f7f" d="m 17,60 a 3,3 0 0 1 -6,0 3,3 0 1 1 6,0 z"/>
<rect width="12" x="4" y="58" rx="2" height="4" style="fill:url(#linearGradient3926)"/>
<path style="opacity:.3;fill:url(#linearGradient3940)" d="m 10,72 c 0,-2.20914 1.79086,-4 4,-4 2.20914,0 4,1.79086 4,4 0,2.20914 -1.79086,4 -4,4 -2.20914,0 -4,-1.79086 -4,-4 z m 1,0 c 0,1.65685 1.34315,3 3,3 1.65685,0 3,-1.34315 3,-3 0,-1.65685 -1.34315,-3 -3,-3 -1.65685,0 -3,1.34315 -3,3 z"/>
<path style="opacity:.6;fill:#7f7f7f" d="m 17,72 a 3,3 0 0 1 -6,0 3,3 0 1 1 6,0 z"/>
<rect width="12" x="4" y="70" rx="2" height="4" style="fill:url(#linearGradient3935)"/>
<path style="opacity:.3;fill:url(#linearGradient3983)" d="m 10,24 c 0,-2.20914 1.79086,-4 4,-4 2.20914,0 4,1.79086 4,4 0,2.20914 -1.79086,4 -4,4 -2.20914,0 -4,-1.79086 -4,-4 z m 1,0 c 0,1.65685 1.34315,3 3,3 1.65685,0 3,-1.34315 3,-3 0,-1.65685 -1.34315,-3 -3,-3 -1.65685,0 -3,1.34315 -3,3 z"/>
<path style="opacity:.6;fill:#7f7f7f" d="m 17,24 a 3,3 0 0 1 -6,0 3,3 0 1 1 6,0 z"/>
<rect width="12" x="4" y="22" rx="2" height="4" style="fill:url(#linearGradient3985)"/>
<g style="stroke-width:2;color:#000">
<path style="opacity:.2" d="m 56.7196,19.5 c -16.62,0 -30,13.38 -30,30 0,16.62 13.38,30 30,30 16.62,0 30,-13.38 30,-30 0,-16.62 -13.38,-30 -30,-30 z  m 0,16.6666 c 7.38666,0 13.3333,5.94666 13.3333,13.3333 0,7.38666 -5.94666,13.3333 -13.3333,13.3333 -7.38666,0 -13.3333,-5.94666 -13.3333,-13.3333 0,-7.38666 5.94666,-13.3333 13.3333,-13.3333 z "/>
<path style="opacity:.3" d="m 56.7196,19 c -16.62,0 -30,13.38 -30,30 0,16.62 13.38,30 30,30 16.62,0 30,-13.38 30,-30 0,-16.62 -13.38,-30 -30,-30 z  m 0,16.6666 c 7.38666,0 13.3333,5.94666 13.3333,13.3333 0,7.38666 -5.94666,13.3333 -13.3333,13.3333 -7.38666,0 -13.3333,-5.94666 -13.3333,-13.3333 0,-7.38666 5.94666,-13.3333 13.3333,-13.3333 z "/>
<path style="fill:url(#radialGradient38)" d="m 56.7196,18 c -16.62,0 -30,13.38 -30,30 0,16.62 13.38,30 30,30 16.62,0 30,-13.38 30,-30 0,-16.62 -13.38,-30 -30,-30 z  m 0,16.6666 c 7.38666,0 13.3333,5.94666 13.3333,13.3333 0,7.38666 -5.94666,13.3333 -13.3333,13.3333 -7.38666,0 -13.3333,-5.94666 -13.3333,-13.3333 0,-7.38666 5.94666,-13.3333 13.3333,-13.3333 z "/>
<path style="fill:#fff;fill-rule:evenodd" d="m 44.626,23.25 c -6.20914,3.02764 -11.0883,8.30188 -13.5938,14.7949 l 10.4618,5.9766 c 1.24916,-4.823 4.70024,-8.73584 9.24024,-10.5938 l -6.1084,-10.1778 z  m 24.1876,0 -6.1084,10.1778 c 4.54,1.85792 7.99108,5.77076 9.24024,10.5938 l 10.4618,-5.9766 c -2.50536,-6.49302 -7.38454,-11.7672 -13.5937,-14.7949 z  m -27.3194,28.7284 -10.4618,5.9766 c 2.50542,6.49304 7.3846,11.7673 13.5938,14.7949 l 6.1084,-10.1778 c -4.53992,-1.85796 -7.99102,-5.77078 -9.24018,-10.5938 z  m 30.4512,0 c -1.24916,4.823 -4.70026,8.73582 -9.24024,10.5938 l 6.1084,10.1778 c 6.20914,-3.02764 11.0883,-8.30186 13.5938,-14.7949 l -10.4618,-5.9766 z "/>
<path style="fill:#7e1722" d="m 38.118802,28.7104 c -1.144964,0 -2.06676,0.9218 -2.06676,2.06678 0,1.14496 0.921796,2.06676 2.06676,2.06676 1.14498,0 2.06678,-0.9218 2.06678,-2.06676 0,-1.14498 -0.921796,-2.06678 -2.06678,-2.06678 z m 37.2016,0 c -1.14498,0 -2.06678,0.9218 -2.06678,2.06678 0,1.14496 0.921794,2.06676 2.06678,2.06676 1.144966,0 2.06676,-0.9218 2.06676,-2.06676 0,-1.14498 -0.921794,-2.06678 -2.06676,-2.06678 z m -37.2016,1.3778 c 0.38166,0 0.688936,0.30726 0.688936,0.68892 0,0.38164 -0.307276,0.68892 -0.688936,0.68892 -0.381646,0 -0.68892,-0.30728 -0.68892,-0.68892 0,-0.38166 0.307276,-0.68892 0.68892,-0.68892 z m 37.2016,0 c 0.381646,0 0.68892,0.30726 0.68892,0.68892 0,0.38164 -0.307274,0.68892 -0.68892,0.68892 -0.38166,0 -0.68892,-0.30728 -0.68892,-0.68892 0,-0.38166 0.30726,-0.68892 0.68892,-0.68892 z m -37.2016,33.0682 c -1.144964,0 -2.06676,0.9218 -2.06676,2.06678 0,1.14496 0.921796,2.06676 2.06676,2.06676 1.14498,0 2.06678,-0.9218 2.06678,-2.06676 0,-1.14498 -0.921796,-2.06678 -2.06678,-2.06678 z m 37.2016,0 c -1.14498,0 -2.06678,0.9218 -2.06678,2.06678 0,1.14496 0.921794,2.06676 2.06678,2.06676 1.144966,0 2.06676,-0.9218 2.06676,-2.06676 0,-1.14498 -0.921794,-2.06678 -2.06676,-2.06678 z m -37.2016,1.3778 c 0.38166,0 0.688936,0.30728 0.688936,0.68894 0,0.38164 -0.307276,0.68892 -0.688936,0.68892 -0.381646,0 -0.68892,-0.30728 -0.68892,-0.68892 0,-0.38166 0.307276,-0.68894 0.68892,-0.68894 z m 37.2016,0 c 0.381646,0 0.68892,0.30728 0.68892,0.68894 0,0.38164 -0.307274,0.68892 -0.68892,0.68892 -0.38166,0 -0.68892,-0.30728 -0.68892,-0.68892 0,-0.38166 0.30726,-0.68894 0.68892,-0.68894 z"/>
<path style="opacity:.4" d="m 75.0935,32.2598 c 3.00782,3.90596 4.96194,8.6819 5.40372,13.913 0.06314,0.747314 0.0969,1.50399 0.0969,2.2686 0,6.1169 -2.0631,11.7203 -5.5006,16.1842 0.0042,0.18584 0,0.437084 0.0082,0.629358 0.015,0.363738 0.331164,0.638462 0.694254,0.651692 l .006,.006 .003,-.003 c 0.006,0 0.0106,0.003 0.0162,0.003 0.38166,0 0.68892,-0.307246 0.68892,-0.68892 0,-0.07456 -0.02146,-0.1428 -0.04306,-0.209896 3.4283,-4.62218 5.50328,-10.3277 5.50328,-16.5717 0,-6.45698 -2.19958,-12.3537 -5.83966,-17.0562 0.22323,-0.1137 0.379364,-0.33951 0.379364,-0.60819 0,-0.38166 -0.307244,-0.68892 -0.68892,-0.68892 -0.214064,0 -0.409964,0.10132 -0.53613,0.253626 -0.521422,0.469314 -0.820554,1.06805 -0.19138,1.91735 z "/>
<path style="fill:#cea476" d="m 74.5938,32.2598 c 3.00782,3.90596 4.96194,8.6819 5.40372,13.913 0.06314,0.747314 0.0969,1.50399 0.0969,2.2686 0,6.1169 -2.0631,11.7203 -5.5006,16.1842 0.0042,0.18584 0,0.437084 0.0082,0.629358 0.015,0.363738 0.331164,0.638462 0.694254,0.651692 l .006,.006 .003,-.003 c 0.006,0 0.0106,0.003 0.0162,0.003 0.38166,0 0.68892,-0.307246 0.68892,-0.68892 0,-0.07456 -0.02146,-0.1428 -0.04306,-0.209896 3.4283,-4.62218 5.50328,-10.3277 5.50328,-16.5717 0,-6.45698 -2.19958,-12.3537 -5.83966,-17.0562 0.22323,-0.1137 0.379364,-0.33951 0.379364,-0.60819 0,-0.38166 -0.307244,-0.68892 -0.68892,-0.68892 -0.214064,0 -0.409964,0.10132 -0.53613,0.253626 -0.521422,0.469314 -0.820554,1.06805 -0.19138,1.91735 z "/>
<path style="opacity:.4" d="m 39.2439,32.2594 c -3.00782,3.90596 -4.96194,8.6819 -5.40372,13.913 -0.06314,0.747314 -0.0969,1.50399 -0.0969,2.2686 0,6.1169 2.0631,11.7203 5.5006,16.1842 0.04148,0.17912 0.07156,0.490344 0.06352,0.682618 -0.015,0.363738 -0.327326,0.592826 -0.690416,0.606056 h -0.0816 l -.003,-.003 c -0.006,0 -0.0106,0.003 -0.0162,0.003 -0.38166,0 -0.68892,-0.307246 -0.68892,-0.68892 0,-0.07456 0.02146,-0.1428 0.04306,-0.209896 -3.4283,-4.62218 -5.50328,-10.3277 -5.50328,-16.5717 0,-6.45698 2.19958,-12.3537 5.83966,-17.0562 -0.22323,-0.1137 -0.379364,-0.33951 -0.379364,-0.60819 0,-0.38166 0.343804,-0.68892 0.72548,-0.68892 0.214064,0 0.440188,0.06192 0.566354,0.214218 0.521422,0.469314 0.75377,1.10746 0.1246,1.95676 z "/>
<path style="fill:#cea476" d="m 38.7438,32.2594 c -3.00782,3.90596 -4.96194,8.6819 -5.40372,13.913 -0.06314,0.747314 -0.0969,1.50399 -0.0969,2.2686 0,6.1169 2.0631,11.7203 5.5006,16.1842 0.04148,0.17912 0.07156,0.490344 0.06352,0.682618 -0.015,0.363738 -0.327326,0.592826 -0.690416,0.606056 h -0.0816 l -.003,-.003 c -0.006,0 -0.0106,0.003 -0.0162,0.003 -0.38166,0 -0.68892,-0.307246 -0.68892,-0.68892 0,-0.07456 0.02146,-0.1428 0.04306,-0.209896 -3.4283,-4.62218 -5.50328,-10.3277 -5.50328,-16.5717 0,-6.45698 2.19958,-12.3537 5.83966,-17.0562 -0.22323,-0.1137 -0.379364,-0.33951 -0.379364,-0.60819 0,-0.38166 0.343804,-0.68892 0.72548,-0.68892 0.214064,0 0.440188,0.06192 0.566354,0.214218 0.521422,0.469314 0.75377,1.10746 0.1246,1.95676 z "/>
</g>
</svg>
