<svg width="48" version="1.1" xmlns="http://www.w3.org/2000/svg" height="48" xmlns:xlink="http://www.w3.org/1999/xlink">
<defs>
<linearGradient id="linearGradient8">
<stop offset="0" style="stop-color:#3989d0"/>
<stop offset="0.1" style="stop-color:#64a0dc"/>
<stop offset="1" style="stop-color:#64a0dc"/>
</linearGradient>
<linearGradient id="linearGradient11">
<stop offset="0" style="stop-color:#f2f2f2"/>
<stop offset="1" style="stop-color:#fff"/>
</linearGradient>
<linearGradient xlink:href="#linearGradient11" id="linearGradient12" y1="4.7620001" x1="10.664" y2="11.407" x2="10.664" gradientUnits="userSpaceOnUse"/>
<linearGradient xlink:href="#linearGradient8" id="linearGradient9" y1="24.004055" x1="4.6829" y2="24.004055" x2="43.32052" gradientUnits="userSpaceOnUse"/>
</defs>
<g style="color:#000">
<path style="fill:#2864a0" d="M 4.9573,9.8188 C 4.911892,21.9034 4.838522,27.1537 4.9571191,42.0131 l 4.3312,3.3359 33.7651,-0.2782 V 4.6388 c 0,0 0.188684,-2.12948 -1.59342,-2.1308 -3.32944,-0.00247 -10.4218,-0.00706 -15.3973,-0.00552 0,0 2.59145,0.0252 -15.6467,0.00552 C 6.7196491,2.58414 4.8937691,4.48314 4.9573491,9.81869 Z"/>
<path style="fill:url(#linearGradient12)" d="M 41.7002,11.407 H 10.664 C 8.99814,11.407001 7.6738,9.78987 7.6738,8.08443 7.6738,6.37899 8.99815,4.762 10.664,4.762 h 31.0362 v 0.06601 c -1.76046,0.0831 -3.18997,1.47552 -3.18997,3.25643 0,1.78091 1.42951,3.17333 3.18997,3.25643 v 0.06614 z"/>
<path style="fill:url(#linearGradient9)" d="m 7.768,45.5001 c -1.815,0 -2.9986,-1.0729 -3.0851,-3.04256 V 8.26964 C 4.6955964,4.89683 6.64838,2.54154 10.416,2.508 4.74062,3.24193 4.81621,12.16281 10.46512,12.13009 h 32.8554 v 32.912 c 0,0.257417 -0.390088,0.45802 -0.651498,0.45802 z"/>
<path style="fill:#c61423" d="m 25.3863,14.0998 c -8.31,0 -15,6.69 -15,15 0,8.31 6.69,15 15,15 8.31,0 15,-6.69 15,-15 0,-8.31 -6.69,-15 -15,-15 z m 0,8.3333 c 3.69333,0 6.66666,2.97333 6.66666,6.66666 0,3.69333 -2.97333,6.66666 -6.66666,6.66666 -3.69333,0 -6.66666,-2.97333 -6.66666,-6.66666 0,-3.69333 2.97333,-6.66666 6.66666,-6.66666 z"/>
<path style="fill:#fff;fill-rule:evenodd" d="m 19.3395,16.7248 c -3.10457,1.51382 -5.54416,4.15094 -6.79688,7.39746 l 5.2309,2.9883 c 0.624578,-2.4115 2.35012,-4.36792 4.62012,-5.29688 l -3.0542,-5.0889 z m 12.0938,0 -3.0542,5.0889 c 2.27,0.928957 3.99554,2.88538 4.62012,5.29688 l 5.2309,-2.9883 C 36.97744,20.87577 34.53785,18.23866 31.43328,16.72483 Z M 17.7736,31.089 12.5427,34.0773 c 1.25271,3.24652 3.6923,5.88364 6.79688,7.39746 l 3.0542,-5.0889 c -2.26996,-0.92898 -3.99551,-2.88539 -4.62009,-5.29689 z m 15.2256,0 c -0.624579,2.4115 -2.35013,4.36791 -4.62012,5.29688 l 3.0542,5.0889 c 3.10457,-1.51382 5.54417,-4.15093 6.79688,-7.39746 l -5.2309,-2.9883 z"/>
<path style="fill:#7e1722" d="m 16.0859,19.455 c -0.572482,0 -1.03338,0.460898 -1.03338,1.03339 0,0.572482 0.460898,1.03338 1.03338,1.03338 0.57249,0 1.03339,-0.460897 1.03339,-1.03338 0,-0.57249 -0.460898,-1.03339 -1.03339,-1.03339 z m 18.6008,0 c -0.57249,0 -1.03339,0.460898 -1.03339,1.03339 0,0.572482 0.460897,1.03338 1.03339,1.03338 0.572483,0 1.03338,-0.460897 1.03338,-1.03338 0,-0.57249 -0.460897,-1.03339 -1.03338,-1.03339 z m -18.6008,0.6889 c 0.19083,0 0.344468,0.15363 0.344468,0.34446 0,0.190822 -0.153638,0.34446 -0.344468,0.34446 -0.190823,0 -0.34446,-0.153637 -0.34446,-0.34446 0,-0.19083 0.153638,-0.34446 0.34446,-0.34446 z m 18.6008,0 c 0.190823,0 0.34446,0.15363 0.34446,0.34446 0,0.190822 -0.153637,0.34446 -0.34446,0.34446 -0.19083,0 -0.34446,-0.153637 -0.34446,-0.34446 0,-0.19083 0.15363,-0.34446 0.34446,-0.34446 z M 16.0859,36.678 c -0.572482,0 -1.03338,0.460897 -1.03338,1.03339 0,0.572483 0.460898,1.03338 1.03338,1.03338 0.57249,0 1.03339,-0.460897 1.03339,-1.03338 0,-0.57249 -0.460898,-1.03339 -1.03339,-1.03339 z m 18.6008,0 c -0.57249,0 -1.03339,0.460897 -1.03339,1.03339 0,0.572483 0.460897,1.03338 1.03339,1.03338 0.572483,0 1.03338,-0.460897 1.03338,-1.03338 0,-0.57249 -0.460897,-1.03339 -1.03338,-1.03339 z m -18.6008,0.6889 c 0.19083,0 0.344468,0.153637 0.344468,0.344467 0,0.190823 -0.153638,0.34446 -0.344468,0.34446 -0.190823,0 -0.34446,-0.153637 -0.34446,-0.34446 0,-0.19083 0.153638,-0.344467 0.34446,-0.344467 z m 18.6008,0 c 0.190823,0 0.34446,0.153637 0.34446,0.344467 0,0.190823 -0.153637,0.34446 -0.34446,0.34446 -0.19083,0 -0.34446,-0.153637 -0.34446,-0.34446 0,-0.19083 0.15363,-0.344467 0.34446,-0.344467 z"/>
<g style="fill:#cea476">
<path d="m 34.3234,21.2297 c 1.50391,1.95298 2.48097,4.34095 2.70186,6.95648 0.03157,0.373657 0.04845,0.751995 0.04845,1.1343 0,3.05845 -1.03155,5.86014 -2.7503,8.09212 0.0021,0.09292 0,0.218542 0.0041,0.314679 0.0075,0.181869 0.165582,0.319231 0.347127,0.325846 l .003,.003 .0015,-.0015 c 0.003,0 0.0053,0.0015 0.0081,0.0015 0.19083,0 0.34446,-0.153623 0.34446,-0.34446 0,-0.03728 -0.01073,-0.0714 -0.02153,-0.104948 1.71415,-2.31109 2.75164,-5.16383 2.75164,-8.28585 0,-3.22849 -1.09979,-6.17686 -2.91983,-8.5281 0.111615,-0.05685 0.189682,-0.169755 0.189682,-0.304095 0,-0.19083 -0.153622,-0.34446 -0.34446,-0.34446 -0.107032,0 -0.204982,0.05066 -0.268065,0.126813 -0.260711,0.234657 -0.410277,0.534024 -0.09569,0.958675 z "/>
<path d="m 16.3984,21.2295 c -1.50391,1.95298 -2.48097,4.34095 -2.70186,6.95648 -0.03157,0.373657 -0.04845,0.751995 -0.04845,1.1343 0,3.05845 1.03155,5.86014 2.7503,8.09212 0.02074,0.08956 0.03578,0.245172 0.03176,0.341309 -0.0075,0.181869 -0.163663,0.296413 -0.345208,0.303028 l -.0408,0 -.0015,-.0015 c -0.003,0 -0.0053,0.0015 -0.0081,0.0015 -0.19083,0 -0.34446,-0.153623 -0.34446,-0.34446 0,-0.03728 0.01073,-0.0714 0.02153,-0.104948 -1.71415,-2.31109 -2.75164,-5.16383 -2.75164,-8.28585 0,-3.22849 1.09979,-6.17686 2.91983,-8.5281 -0.111615,-0.05685 -0.189682,-0.169755 -0.189682,-0.304095 0,-0.19083 0.171902,-0.34446 0.36274,-0.34446 0.107032,0 0.220094,0.03096 0.283177,0.107109 0.260711,0.234657 0.376885,0.553728 0.0623,0.978379 z "/>
</g>
</g>
</svg>
