<svg version="1.1" xmlns="http://www.w3.org/2000/svg" viewBox="0 0 22 22">
<defs id="defs3051">
<style type="text/css" id="current-color-scheme">
.ColorScheme-Text {
color:#4d4d4d;
}
</style>
</defs>
<path style="fill:currentColor" d="M 3,3 V 19 H 19 V 5 h -6.99219 l -2,-2 -0.0078,0.0078 V 3 Z m 6.0078,5 h 8.99219 v 10 h -14 v -8 h 3 V 9.99219 l 0.0078,0.0078 z M 8,10 v 7 h 8 v -7 z m 0.5,1 h 1 v 1 h -1 z m 6,0 h 1 v 1 h -1 z M 10,11 h 4 v 2 h -4 z m -1.5,2 h 1 v 1 h -1 z m 6,0 h 1 v 1 h -1 z M 10,14 h 4 v 2 h -4 z m -1.5,1 h 1 v 1 h -1 z m 6,0 h 1 v 1 h -1 z" class="ColorScheme-Text"/>
</svg>
