<svg width="22" version="1.1" xmlns="http://www.w3.org/2000/svg" viewBox="0 0 22 22" height="22">
<defs id="defs3051">
<style type="text/css" id="current-color-scheme">
.ColorScheme-Text {
color:#4d4d4d;
}
</style>
</defs>
<path style="fill:currentColor" d="M 2,3 V 19 H 20 V 5 h -8 l -2,-2 0,0 v 0 h -8 z m 7,3 h 10 v 12 h -16 V 8 h 4 v 0 l 0,0 2,-2 z M 10,8 c -1.108,0 -2,0.892 -2,2 0,1.108 0.892,2 2,2 1.108,0 2,-0.892 2,-2 0,-1.108 -0.892,-2 -2,-2 z m 4,2 -3.5,6 L 8,13 4.5,17 h 13 z" class="ColorScheme-Text"/>
</svg>
