<svg width="22" version="1.1" xmlns="http://www.w3.org/2000/svg" height="22">
<defs id="defs3051">
<style type="text/css" id="current-color-scheme">
.ColorScheme-Text {
color:#4d4d4d;
}
</style>
</defs>
<path style="fill:currentColor;fill-opacity:1;stroke:none" id="path4536" d="m 3,3 v 4 h 6.99414 l .0117,8 h -2.00586 v 1 h -5 v 2 h 5 v 1 h 6 v -1 h 5 v -2 h -5 v -1 h -2 v -8 h 7 v -4 h -16 z  m 14,1 c 0.523634,-3.1e-05 1,0.476385 1,1 0,0.523615 -0.476366,1 -1,1 -0.523634,-3.1e-05 -1,-0.476444 -1,-1 0,-0.523556 0.476366,-1 1,-1 z  m -6,12 c 0.523635,-2.9e-05 1,0.476386 1,1 0,0.523616 -0.476365,1 -1,1 -0.523635,-3.1e-05 -1,-0.476445 -1,-1 0,-0.523556 0.476365,-1 1,-1 z " class="ColorScheme-Text"/>
</svg>
