<svg version="1.1" xmlns="http://www.w3.org/2000/svg" viewBox="0 0 22 22">
<defs id="defs3051">
<style type="text/css" id="current-color-scheme">
.ColorScheme-Text {
color:#4d4d4d;
}
</style>
</defs>
<path style="fill:currentColor" d="M 2,3 V 19 H 20 V 5 H 12 L 10,3 10,3 V 3 Z m 7,3 h 10 v 12 h -16 V 8 l 4,0 v 0 l 0,0 z M 8,8 v 9 H 18 V 8 Z m 1,1 h 1 v 1 H 9 Z m 2,0 h 4 v 3 h -4 z m 5,0 h 1 v 1 h -1 z m -7,3 h 1 v 1 H 9 Z m 7,0 h 1 v 1 h -1 z m -5,1 h 4 v 3 h -4 z m -2,2 h 1 v 1 H 9 Z m 7,0 h 1 v 1 h -1 z" class="ColorScheme-Text"/>
</svg>
