<svg version="1.1" xmlns="http://www.w3.org/2000/svg" viewBox="0 0 22 22">
<defs id="defs3051">
<style type="text/css" id="current-color-scheme">
.ColorScheme-Text {
color:#4d4d4d;
}
</style>
</defs>
<path style="fill:currentColor" d="M 3,3 V 19 H 19 V 5 h -6.99219 l -2,-2 -0.0078,0.0078 V 2.99999 Z m 6.0078,3 h 8.99219 v 12 h -14 V 8 h 3 V 7.99219 l 0.0078,0.0078 z M 11,8.0004495 V 14.80273 c -0.170392,-0.386339 -1.08788,-0.780888 -1.83203,-0.777343 -1.34346,0.0064 -2.14348,0.802531 -2.14648,1.55664 -0.00436,1.09483 1.02194,1.55464 2.14648,1.55469 1.12455,4.1e-5 2.84766,-0.548863 2.84766,-1.65625 V 9.9828665 c 1.49789,0.5673615 2.43164,1.6082505 2.43164,2.7187505 0,0.285514 -0.07419,0.56624 -0.205078,0.835937 0.526377,-0.21714 0.833984,-0.950968 0.833984,-1.46875 0,-0.829257 -0.449378,-1.61965 -1.37695,-2.2031205 -0.427948,-0.269202 -1.66798,-0.767595 -1.68359,-1.8418 v -0.023437 h -0.002 z" class="ColorScheme-Text"/>
</svg>
