<svg width="24" version="1.0" xmlns="http://www.w3.org/2000/svg" height="24" xmlns:xlink="http://www.w3.org/1999/xlink">
<defs id="defs4">
<linearGradient id="ButtonColor-6" y1="21" x1="10.31979" y2="0.99929649" x2="10.31979" gradientUnits="userSpaceOnUse">
<stop offset="0" style="stop-color:#c8c8c8" id="stop3189-4"/>
<stop offset="1" style="stop-color:#e6e6e6" id="stop3191-0"/>
</linearGradient>
<linearGradient gradientTransform="matrix(0.2570698,0,0,0.2570698,-0.33949467,-0.7525833)" xlink:href="#ButtonColor-6" id="linearGradient3022" y1="90" x1="48" y2="5.9877172" gradientUnits="userSpaceOnUse" x2="48"/>
</defs>
<g style="stroke:none">
<rect width="21.593863" x="1.2029241" y="0.78983551" rx="1.5424188" ry="1.5424188" height="21.593863" style="opacity:.75;fill:url(#linearGradient3022)" id="rect2419"/>
<path style="fill:#333" id="path9" d="m 21.4624,8.6745 c -0.512514,-1.91684 -0.285312,-2.287 -2.1567,-1.75232 l -1.5097,.4313 c -0.593084,-0.862673 -1.45577,-1.61751 -2.37236,-2.15669 l .2427,-1.4827 c 0.333407,-2.03753 -0.505648,-1.58034 -2.23757,-1.80623 -1.92909,-0.258098 -2.40329,-0.832995 -2.69587,1.1053 l -.2157,1.4289 c -0.161753,0.0539179 -0.377425,0.107829 -0.539172,0.16176 -0.647001,0.161741 -1.2401,0.485248 -1.77927,0.808748 l -1.1592,-.8896 c -1.56551,-1.20144 -1.61514,-0.337737 -2.69587,0.970515 -1.29296,1.52899 -1.90378,1.57459 -0.323507,2.8037 l 1.2132,.9435 c -0.215665,0.59309 -0.323501,1.2401 -0.323501,1.94102 l -1.5097,.4313 c -1.9396,0.554175 -1.36621,0.915562 -0.862679,2.61499 0.512501,1.91684 0.285306,2.287 2.15669,1.75231 l 1.5097,-.4313 c 0.593096,0.86268 1.45577,1.61752 2.37236,2.15669 l -.2426,1.4827 c -0.333413,2.03751 0.505649,1.58032 2.23757,1.80623 1.92909,0.258085 2.40329,0.832995 2.69587,-1.1053 l .2157,-1.4289 c 0.161753,-0.05392 0.377418,-0.107836 0.539165,-0.161747 0.647021,-0.161767 1.2401,-0.485261 1.77928,-0.808768 l 1.1592,.8896 c 1.39962,1.39117 1.61515,0.33773 2.69587,-0.970515 1.29295,-1.52899 1.90378,-1.57459 0.323501,-2.8037 l -1.2131,-.9435 c 0.215672,-0.59309 0.323501,-1.24009 0.323501,-1.94102 l 1.5097,-.4313 c 1.9396,-0.554174 1.36621,-0.915568 0.862686,-2.61499 z  m -8.7885,5.3648 c -1.50981,0.431357 -3.12733,-0.431316 -3.61259,-1.941 -0.485254,-1.50968 0.431336,-3.12721 1.94102,-3.61246 1.50969,-0.43133 3.1272,0.431349 3.61246,1.94103 0.431343,1.50967 -0.43133,3.1272 -1.94102,3.61246 z "/>
</g>
</svg>
