<svg width="24" version="1.0" xmlns="http://www.w3.org/2000/svg" height="24" xmlns:xlink="http://www.w3.org/1999/xlink">
<defs>
<linearGradient id="ButtonColor-6" y1="21" x1="10.31979" y2="1" x2="10.31979" gradientUnits="userSpaceOnUse">
<stop offset="0" style="stop-color:#c8c8c8"/>
<stop offset="1" style="stop-color:#e6e6e6"/>
</linearGradient>
<linearGradient gradientTransform="matrix(0.2570698,0,0,0.2570698,-0.33949467,-0.7525833)" xlink:href="#ButtonColor-6" id="linearGradient3035" y1="90" x1="48" y2="5.9877172" gradientUnits="userSpaceOnUse" x2="48"/>
</defs>
<rect width="21.593863" x="1.2029241" y="0.78983551" rx="1.5424188" height="21.593863" style="opacity:.75;fill:url(#linearGradient3035)"/>
<g style="fill:#333;fill-rule:evenodd">
<path d="m 11.9961,2.6973 c -2.33087,0 -4.64606,0.959343 -6.29297,2.60742 -1.64695,1.64807 -2.60547,3.96438 -2.60547,6.29492 0,2.33052 0.958516,4.64681 2.60547,6.29492 1.64695,1.64808 3.96212,2.60729 6.29297,2.60742 2.33087,0 4.64782,-0.957386 6.29688,-2.60547 1.64906,-1.64808 2.60938,-3.96608 2.60938,-6.29688 0,-2.33077 -0.960315,-4.64681 -2.60938,-6.29492 C 16.64393,3.65663 14.327,2.69716 11.9961,2.69729 Z m 0,2.375 c 1.7093,-9.94e-5 3.40983,0.701566 4.61914,1.91016 1.20931,1.2086 1.91406,2.90795 1.91406,4.61719 0,1.70923 -0.704756,3.40859 -1.91406,4.61719 -1.20931,1.20859 -2.90984,1.91221 -4.61914,1.91211 -1.7093,0 -3.40747,-0.703527 -4.61523,-1.91211 C 6.1731,15.00825 5.47071,13.3087 5.47071,11.59965 5.47071,9.89061 6.1731,8.193 7.38087,6.98442 8.58863,5.77584 10.2868,5.07241 11.9961,5.07231 Z"/>
<path d="m 10.8129,6.2584 v 6.5286 h 1.187 1.187 4.1546 V 10.413 H 13.1869 V 6.2584 Z"/>
</g>
</svg>
