<svg width="24" version="1.0" xmlns="http://www.w3.org/2000/svg" height="24" xmlns:xlink="http://www.w3.org/1999/xlink">
<defs id="defs4">
<clipPath id="clipPath2883">
<path style="opacity:.3;fill:#f00;stroke:none;color:#000;stroke-width:4" id="path2885" d="m -100,-74 0,96 96,0 0,-96 -96,0 z  m 48,16 c 17.664,0 32,14.336 32,32 4e-06,17.664 -14.336,32 -32,32 -17.664,0 -32,-14.336 -32,-32 0,-17.664 14.336,-32 32,-32 z  m 12.125,16.125 -16.25,18.875 -8,-7.25 -7.75,8.375 15.75,15.625 24,-27.25 -7.75,-8.375 z "/>
</clipPath>
<clipPath id="clipPath3266">
<path style="opacity:.3;fill:#f00;stroke:none;color:#000;stroke-width:4" id="path3268" d="M 0,0 0,96 96,96 96,0 0,0 z m 12,6 72,0 c 3.324,0 6,2.676 6,6 l 0,72 c 0,3.324 -2.676,6 -6,6 L 12,90 C 8.676,90 6,87.324 6,84 L 6,12 C 6,8.676 8.676,6 12,6 z"/>
</clipPath>
<linearGradient id="ButtonColor-6" y1="21" x1="10.31979" y2="0.99929649" x2="10.31979" gradientUnits="userSpaceOnUse">
<stop offset="0" style="stop-color:#c8c8c8" id="stop3189-4"/>
<stop offset="1" style="stop-color:#e6e6e6" id="stop3191-0"/>
</linearGradient>
<linearGradient gradientTransform="matrix(0.2570698,0,0,0.2570698,-0.33949467,-0.7525833)" xlink:href="#ButtonColor-6" id="linearGradient3026" y1="90" x1="48" y2="5.9877172" gradientUnits="userSpaceOnUse" x2="48"/>
</defs>
<g style="stroke:none">
<rect width="21.593863" x="1.2029241" y="0.78983551" rx="1.5424188" ry="1.5424188" height="21.593863" style="opacity:.75;fill:url(#linearGradient3026)" id="rect2419"/>
<g style="fill:#333;fill-rule:evenodd">
<rect width="2" x="4.4699688" y="-9.7261829" height="6.000082" id="rect3303" transform="scale(1,-1)"/>
<path id="rect3332" d="m 11.97,3.7261 c -3.64104,0 -6.65843,2.56855 -7.34961,6 h 2.06055 c 0.650607,-2.31218 2.76332,-4 5.28906,-4 2.52574,0 4.63846,1.68782 5.28906,4 h 2.06055 c -0.691176,-3.43145 -3.70857,-6 -7.34961,-6 z  m -7.3496,9 c 0.691177,3.43145 3.70857,6 7.34961,6 3.64104,0 6.65843,-2.56855 7.34961,-6 h -2.06055 c -0.650606,2.31218 -2.76332,4 -5.28906,4 -2.52574,0 -4.63846,-1.68782 -5.28906,-4 h -2.06055 z "/>
<rect width="2" x="-9.7261829" y="-10.470051" height="6.000082" id="rect3341" transform="matrix(0,-1,-1,0,0,0)"/>
<rect width="2" x="-19.469969" y="12.72594" height="6.000082" id="rect3343" transform="scale(-1,1)"/>
<rect width="2" x="12.72594" y="13.469887" height="6.000082" id="rect3345" transform="matrix(0,1,1,0,0,0)"/>
</g>
</g>
</svg>
