<svg width="24" version="1.0" xmlns="http://www.w3.org/2000/svg" height="24" xmlns:xlink="http://www.w3.org/1999/xlink">
<defs id="defs4">
<linearGradient id="ButtonColor-6" y1="21" x1="10.31979" y2="0.99929649" x2="10.31979" gradientUnits="userSpaceOnUse">
<stop offset="0" style="stop-color:#c8c8c8" id="stop3189-4"/>
<stop offset="1" style="stop-color:#e6e6e6" id="stop3191-0"/>
</linearGradient>
<linearGradient gradientTransform="matrix(0.2570698,0,0,0.2570698,-0.33949467,-0.7525833)" xlink:href="#ButtonColor-6" id="linearGradient3022" y1="90" x1="48" y2="5.9877172" gradientUnits="userSpaceOnUse" x2="48"/>
</defs>
<g style="stroke:none">
<rect width="21.593863" x="1.2029241" y="0.78983551" rx="1.5424188" ry="1.5424188" height="21.593863" style="opacity:.75;fill:url(#linearGradient3022)" id="rect2419"/>
<path style="fill:#333" id="path3823" d="m 3.3633,1.5137 c -1.40448,0 -1.43945,0.03497 -1.43945,1.43945 v 17.2734 c 0,1.43643 -0.0289199,1.43945 1.43945,1.43945 h 17.2734 c 1.43643,0 1.43945,-0.06692 1.43945,-1.43945 v -17.2734 c 0,-1.43643 -0.06692,-1.43945 -1.43945,-1.43945 h -17.2734 z  m -.4805,1.0488 h 2.16016 v 2.53516 h -2.16016 v -2.53516 z  m 16.0762,0 h 2.1582 v 2.53516 h -2.1582 v -2.53516 z  m -7.1465,.5469 h 1.16211 0.003907 v 0.046875 c 0.025474,2.2388 1.72205,3.27878 2.41992,3.83984 1.51262,1.21607 2.24609,2.86349 2.24609,4.5918 0,1.07915 -0.381372,2.12861 -1.03516,3.06055 0.213439,-0.562095 0.333984,-1.14518 0.333984,-1.74024 0,-2.31445 -1.5222,-3.84097 -3.96484,-5.02344 v 9.03516 c 0,1.47995 -1.67007,2.82626 -3.50391,2.82617 -1.83383,-9.4e-05 -3.5,-1.34639 -3.5,-2.82617 0,-1.47978 1.66618,-2.82804 3.5,-2.82812 0.871848,-4.7e-05 1.70199,0.310723 2.33789,0.789062 v -11.7715 z  m -8.9297,4.5215 h 2.16016 v 2.53516 h -2.16016 v -2.53516 z  m 16.0762,0 h 2.1582 v 2.53516 h -2.1582 v -2.53516 z  m -16.0762,5.0684 h 2.16016 v 2.53516 h -2.16016 v -2.53516 z  m 16.0762,0 h 2.1582 v 2.53516 h -2.1582 v -2.53516 z  m -16.0762,5.0684 h 2.16016 v 2.53516 h -2.16016 v -2.53516 z  m 16.0762,0 h 2.1582 v 2.53516 h -2.1582 v -2.53516 z "/>
</g>
</svg>
