<svg width="24" version="1.0" xmlns="http://www.w3.org/2000/svg" height="24" xmlns:xlink="http://www.w3.org/1999/xlink">
<defs>
<linearGradient id="ButtonColor-6" y1="21" x1="10.31979" y2="1" x2="10.31979" gradientUnits="userSpaceOnUse">
<stop offset="0" style="stop-color:#c8c8c8"/>
<stop offset="1" style="stop-color:#e6e6e6"/>
</linearGradient>
<linearGradient gradientTransform="matrix(0.2570698,0,0,0.2570698,-0.33949467,-0.7525833)" xlink:href="#ButtonColor-6" id="linearGradient3026" y1="90" x1="48" y2="5.9877172" gradientUnits="userSpaceOnUse" x2="48"/>
</defs>
<rect width="21.593863" x="1.2029241" y="0.78983551" rx="1.5424188" height="21.593863" style="opacity:.75;fill:url(#linearGradient3026)"/>
<g style="fill:#333;fill-rule:evenodd">
<rect width="13.6" x="5.2" y="11.133322" rx="0" height="1.1333333"/>
<rect width="13.6" x="-18.5" y="11.433333" rx="0" height="1.1333333" transform="rotate(-90)"/>
<path d="M 7.144,7.161 C 8.15358,7.951265 10.14985,9.08557 12,9.10392 13.85003,9.1222687 15.73631,7.95127 16.85599,7.161 16.502912,6.883787 16.332021,6.64652 15.92299,6.45 15.215348,7.054807 13.43358,7.95224 12,7.97059 10.56628,7.9889386 8.78464,7.07316 8.07699,6.45 7.667961,6.64652 7.497059,6.883787 7.143978,7.161 Z"/>
<path style="color:#000;solid-color:#000000" d="m 12,3.1992 c -4.68258,-10e-8 -8.5,3.81742 -8.5,8.5 2e-7,4.68258 3.81742,8.5 8.5,8.5 4.68258,0 8.5,-3.81742 8.5,-8.5 0,-4.68258 -3.81742,-8.5 -8.5,-8.5 z m 0,2 c 3.60188,10e-8 6.5,2.89812 6.5,6.5 0,3.60188 -2.89812,6.50195 -6.5,6.50195 -3.60188,0 -6.5,-2.9 -6.5,-6.50195 -1e-7,-3.60188 2.89812,-6.5 6.5,-6.5 z"/>
<path d="m 7.144,16.193 c 1.00958,-0.790265 3.00585,-1.92457 4.85594,-1.94292 1.85009,-0.01835 3.73637,1.15265 4.85605,1.94292 -0.353078,0.277213 -0.523969,0.51448 -0.933,0.711 C 15.215348,16.299192 13.43358,15.40176 12,15.38341 10.56628,15.36506 8.78464,16.28084 8.07699,16.904 7.667961,16.70748 7.497059,16.470213 7.143978,16.193 Z"/>
</g>
</svg>
