<svg width="24" version="1.0" xmlns="http://www.w3.org/2000/svg" height="24" xmlns:xlink="http://www.w3.org/1999/xlink">
<defs>
<linearGradient id="ButtonColor-6" y1="21" x1="10.31979" y2="1" x2="10.31979" gradientUnits="userSpaceOnUse">
<stop offset="0" style="stop-color:#c8c8c8"/>
<stop offset="1" style="stop-color:#e6e6e6"/>
</linearGradient>
<linearGradient gradientTransform="matrix(0.2570698,0,0,0.2570698,-0.33949467,-0.7525833)" xlink:href="#ButtonColor-6" id="linearGradient3023" y1="90" x1="48" y2="5.9877172" gradientUnits="userSpaceOnUse" x2="48"/>
</defs>
<rect width="21.593863" x="1.2029241" y="0.78983551" rx="1.5424188" height="21.593863" style="opacity:.75;fill:url(#linearGradient3023)"/>
<g style="fill:#333">
<path d="m 3,11 v 2 h 6.1562 v -2 z m 11.8437,0 v 2 H 21 v -2 z"/>
<path d="m 10.5,8 c -1.3677,0 -2.5,1.1323 -2.5,2.5 v 3 c 0,1.3677 1.1323,2.5 2.5,2.5 h 3 c 1.3677,0 2.5,-1.1323 2.5,-2.5 v -3 c 0,-1.3677 -1.1323,-2.5 -2.5,-2.5 h -3 z  m 0,2 h 3 c 0.294297,0 0.5,0.205704 0.5,0.5 v 3 c 0,0.294297 -0.205703,0.5 -0.5,0.5 h -3 c -0.294296,0 -0.5,-0.205703 -0.5,-0.5 v -3 c 0,-0.294296 0.205704,-0.5 0.5,-0.5 z "/>
</g>
</svg>
