<svg width="24" version="1.0" xmlns="http://www.w3.org/2000/svg" height="24" xmlns:xlink="http://www.w3.org/1999/xlink">
<defs>
<linearGradient id="ButtonColor-6" y1="21" x1="10.31979" y2="1" x2="10.31979" gradientUnits="userSpaceOnUse">
<stop offset="0" style="stop-color:#c8c8c8"/>
<stop offset="1" style="stop-color:#e6e6e6"/>
</linearGradient>
<linearGradient gradientTransform="matrix(0.2570698,0,0,0.2570698,-0.33949467,-0.7525833)" xlink:href="#ButtonColor-6" id="linearGradient3035" y1="90" x1="48" y2="5.9877172" gradientUnits="userSpaceOnUse" x2="48"/>
</defs>
<rect width="21.593863" x="1.2029241" y="0.78983551" rx="1.5424188" height="21.593863" style="opacity:.75;fill:url(#linearGradient3035)"/>
<path style="fill:#333" d="M 8,4 V 15.5039 C 7.567749,15.17795 7.041372,15 6.5,15 5.00415,15 3.7751105,15.985399 3.7,17.5 3.6119572,19.27538 4.87485,20.3298 6.5,20.3 8.47044,20.26387 10,18.8807 10,17.5 v -9 h 8.5 v 5.00391 c -0.432251,-0.32595 -0.958634,-0.506524 -1.5,-0.503904 -1.4917,0.0072 -2.692935,0.922862 -2.8,2.5 -0.11606,1.70964 1.11231,2.8139 2.8,2.8 1.91502,-0.01577 3.5,-1.41929 3.5,-2.8 v -11.5 H 8 Z m 2,1.5 h 8.5 V 7 H 10 Z"/>
</svg>
