<svg width="24" version="1.0" xmlns="http://www.w3.org/2000/svg" height="24" xmlns:xlink="http://www.w3.org/1999/xlink">
<defs>
<linearGradient id="ButtonColor-6" y1="21" x1="10.31979" y2="1" x2="10.31979" gradientUnits="userSpaceOnUse">
<stop offset="0" style="stop-color:#c8c8c8"/>
<stop offset="1" style="stop-color:#e6e6e6"/>
</linearGradient>
<linearGradient gradientTransform="matrix(0.2570698,0,0,0.2570698,-0.33949467,-0.7525833)" xlink:href="#ButtonColor-6" id="linearGradient3035" y1="90" x1="48" y2="5.9877172" gradientUnits="userSpaceOnUse" x2="48"/>
</defs>
<rect width="21.593863" x="1.2029241" y="0.78983551" rx="1.5424188" height="21.593863" style="opacity:.75;fill:url(#linearGradient3035)"/>
<path style="fill:#333" d="m 8,4 v 11.5039 c -0.432251,-0.32595 -0.958629,-0.50278 -1.5,-0.503906 -1.38071,0 -2.5,1.11929 -2.5,2.5 0,1.38071 1.11973,2.46502 2.5,2.5 1.97014,0.04993 3,-1.11929 3,-2.5 v -9 h 9.5 v 5.00391 c -0.432251,-0.32595 -0.958629,-0.50278 -1.5,-0.503906 -1.38071,0 -2.5,1.11929 -2.5,2.5 0,1.38071 1.1195,2.4757 2.5,2.5 1.91479,0.03371 3,-1.11929 3,-2.5 v -11.5 h -12.5 z  m 1.5,1.5 h 9.5 v 1.5 h -9.5 v -1.5 z "/>
</svg>
