<svg width="24" version="1.0" xmlns="http://www.w3.org/2000/svg" height="24" xmlns:xlink="http://www.w3.org/1999/xlink">
<defs id="defs4">
<linearGradient id="ButtonColor-6" y1="21" x1="10.31979" y2="0.99929649" x2="10.31979" gradientUnits="userSpaceOnUse">
<stop offset="0" style="stop-color:#c8c8c8" id="stop3189-4"/>
<stop offset="1" style="stop-color:#e6e6e6" id="stop3191-0"/>
</linearGradient>
<linearGradient gradientTransform="matrix(0.2570698,0,0,0.2570698,-0.33949467,-0.7525833)" xlink:href="#ButtonColor-6" id="linearGradient3022" y1="90" x1="48" y2="5.9877172" gradientUnits="userSpaceOnUse" x2="48"/>
</defs>
<g style="stroke:none">
<rect width="21.593863" x="1.2029241" y="0.78983551" rx="1.5424188" height="21.593863" ry="1.5424188" style="opacity:.75;fill:url(#linearGradient3022)" id="rect2419"/>
<path style="fill:#333" id="path2998" d="m 7.7324,3.9143 c -1.01372,0 -1.83619,0.045762 -1.83398,0.369141 0.00206,0.57671 -0.603119,0.771117 -1.83398,0.771117 h -0.212891 c -1.01372,0 -1.85156,0.837838 -1.85156,1.85156 v 9.64693 c 0,1.01372 0.837838,1.83398 1.85156,1.83398 h 16.3145 c 1.01372,3.55271e-15 1.83398,-0.820262 1.83398,-1.83398 v -9.64693 c 0,-1.01372 -0.82026,-1.85156 -1.83398,-1.85156 h -8.30664 c -1.26706,0 -1.82613,-0.23052 -1.83398,-0.771117 -0.004524,-0.311265 -0.839792,-0.369141 -1.85352,-0.369141 Z  m -3.6562,2.5289 c 0.636247,0 1.14648,0.527813 1.14648,1.16406 0,0.636067 -0.510235,1.14648 -1.14648,1.14648 -0.636248,0 -1.14648,-0.510235 -1.14648,-1.14648 0,-0.636247 0.510235,-1.16406 1.14648,-1.16406 z  m 11.8164,.1055 3.8809,0 c 0.202743,0 0.371093,0.168349 0.371093,0.371094 v 1.14844 c 0,0.202744 -0.16835,0.371094 -0.371093,0.371094 h -3.88086 c -0.202746,0 -0.36914,-0.16835 -0.36914,-0.371094 v -1.14844 c 0,-0.202745 0.166395,-0.371094 0.36914,-0.371094 z  m -4.365,2.6369 c 1.933,0 3.5,1.567 3.5,3.5 0,1.933 -1.567,3.5 -3.5,3.5 -1.933,0 -3.5,-1.567 -3.5,-3.5 -1e-07,-1.933 1.567,-3.5 3.5,-3.5 z "/>
</g>
</svg>
