<svg width="24" version="1.0" xmlns="http://www.w3.org/2000/svg" height="24" xmlns:xlink="http://www.w3.org/1999/xlink">
<defs id="defs4">
<clipPath id="clipPath2883">
<path style="opacity:.3;fill:#f00;stroke:none;color:#000;stroke-width:4" id="path2885" d="m -100,-74 0,96 96,0 0,-96 -96,0 z  m 48,16 c 17.664,0 32,14.336 32,32 4e-06,17.664 -14.336,32 -32,32 -17.664,0 -32,-14.336 -32,-32 0,-17.664 14.336,-32 32,-32 z  m 12.125,16.125 -16.25,18.875 -8,-7.25 -7.75,8.375 15.75,15.625 24,-27.25 -7.75,-8.375 z "/>
</clipPath>
<clipPath id="clipPath3266">
<path style="opacity:.3;fill:#f00;stroke:none;color:#000;stroke-width:4" id="path3268" d="M 0,0 0,96 96,96 96,0 0,0 z m 12,6 72,0 c 3.324,0 6,2.676 6,6 l 0,72 c 0,3.324 -2.676,6 -6,6 L 12,90 C 8.676,90 6,87.324 6,84 L 6,12 C 6,8.676 8.676,6 12,6 z"/>
</clipPath>
<linearGradient id="ButtonColor-6" y1="21" x1="10.31979" y2="0.99929649" x2="10.31979" gradientUnits="userSpaceOnUse">
<stop offset="0" style="stop-color:#c8c8c8" id="stop3189-4"/>
<stop offset="1" style="stop-color:#e6e6e6" id="stop3191-0"/>
</linearGradient>
<linearGradient gradientTransform="matrix(0.2570698,0,0,0.2570698,-0.33949467,-0.7525833)" xlink:href="#ButtonColor-6" id="linearGradient3035" y1="90" x1="48" y2="5.9877172" gradientUnits="userSpaceOnUse" x2="48"/>
</defs>
<g style="stroke:none">
<rect width="21.593863" x="1.2029241" y="0.78983551" rx="1.5424188" height="21.593863" ry="1.5424188" style="opacity:.75;fill:url(#linearGradient3035)" id="rect2419"/>
<g style="fill:#333;fill-rule:evenodd">
<path id="path4152" d="m 11.9961,2.6973 c -2.33087,0.0001366 -4.64606,0.959343 -6.29297,2.60742 -1.64695,1.64807 -2.60547,3.96438 -2.60547,6.29492 0,2.33052 0.958516,4.64681 2.60547,6.29492 1.64695,1.64808 3.96212,2.60729 6.29297,2.60742 2.33087,0.000138 4.64782,-0.957386 6.29688,-2.60547 1.64906,-1.64808 2.60938,-3.96608 2.60938,-6.29688 0,-2.33077 -0.960315,-4.64681 -2.60938,-6.29492 -1.64905,-1.64808 -3.96598,-2.60755 -6.29688,-2.60742 z  m 0,2.375 c 1.7093,-9.94e-05 3.40983,0.701566 4.61914,1.91016 1.20931,1.2086 1.91406,2.90795 1.91406,4.61719 0,1.70923 -0.704756,3.40859 -1.91406,4.61719 -1.20931,1.20859 -2.90984,1.91221 -4.61914,1.91211 -1.7093,-0.000103 -3.40747,-0.703527 -4.61523,-1.91211 -1.20777,-1.20859 -1.91016,-2.90814 -1.91016,-4.61719 0,-1.70904 0.70239,-3.40665 1.91016,-4.61523 1.20776,-1.20858 2.90593,-1.91201 4.61523,-1.91211 z "/>
<path id="path3272" d="m 10.8129,6.2584 0,6.5286 1.187,0 1.187,0 4.1546,0 0,-2.374 -4.1546,0 0,-4.1546 -2.374,0 z "/>
</g>
</g>
</svg>
