<svg width="24" version="1.0" xmlns="http://www.w3.org/2000/svg" height="24" xmlns:xlink="http://www.w3.org/1999/xlink">
<defs id="defs4">
<clipPath id="clipPath2883">
<path style="opacity:.3;fill:#f00;stroke:none;color:#000;stroke-width:4" id="path2885" d="m -100,-74 0,96 96,0 0,-96 -96,0 z  m 48,16 c 17.664,0 32,14.336 32,32 4e-06,17.664 -14.336,32 -32,32 -17.664,0 -32,-14.336 -32,-32 0,-17.664 14.336,-32 32,-32 z  m 12.125,16.125 -16.25,18.875 -8,-7.25 -7.75,8.375 15.75,15.625 24,-27.25 -7.75,-8.375 z "/>
</clipPath>
<clipPath id="clipPath3266">
<path style="opacity:.3;fill:#f00;stroke:none;color:#000;stroke-width:4" id="path3268" d="M 0,0 0,96 96,96 96,0 0,0 z m 12,6 72,0 c 3.324,0 6,2.676 6,6 l 0,72 c 0,3.324 -2.676,6 -6,6 L 12,90 C 8.676,90 6,87.324 6,84 L 6,12 C 6,8.676 8.676,6 12,6 z"/>
</clipPath>
<linearGradient id="ButtonColor-6" y1="21" x1="10.31979" y2="0.99929649" x2="10.31979" gradientUnits="userSpaceOnUse">
<stop offset="0" style="stop-color:#c8c8c8" id="stop3189-4"/>
<stop offset="1" style="stop-color:#e6e6e6" id="stop3191-0"/>
</linearGradient>
<linearGradient gradientTransform="matrix(0.2570698,0,0,0.2570698,-0.33949467,-0.7525833)" xlink:href="#ButtonColor-6" id="linearGradient3035" y1="90" x1="48" y2="5.9877172" gradientUnits="userSpaceOnUse" x2="48"/>
</defs>
<g style="stroke:none">
<rect width="21.593863" x="1.2029241" y="0.78983551" rx="1.5424188" ry="1.5424188" height="21.593863" style="opacity:.75;fill:url(#linearGradient3035)" id="rect2419"/>
<g style="fill-rule:evenodd">
<path style="fill:#333" id="path3274" d="m 11.9661,3.7261 c -3.92726,0.000232 -7.49609,3.57333 -7.49609,7.5 0,3.92667 3.56883,7.49977 7.49609,7.5 3.92726,0.000233 7.50391,-3.57289 7.50391,-7.5 0,-3.92711 -3.57664,-7.50023 -7.50391,-7.5 z  m .002,2 c 2.87995,-0.000171 5.50191,2.62012 5.50191,5.5 0,2.87988 -2.62196,5.50017 -5.50195,5.5 -2.87999,-0.000171 -5.49805,-2.62044 -5.49805,-5.5 0,-2.87956 2.61805,-5.49983 5.49805,-5.5 z "/>
<path style="opacity:.8;fill:#0a0a0a;stroke-linejoin:bevel;stroke-linecap:round;stroke-width:.5;stroke-dashoffset:2.25" id="path3223" d="m 14.7391,11.8514 a 2.3672,2.3672 0 1,1 -4.73439,0 2.3672,2.3672 0 1,1 4.73439,0 z " transform="translate(-0.40197656,-0.71462499)"/>
</g>
</g>
</svg>
