<svg width="24" version="1.0" xmlns="http://www.w3.org/2000/svg" height="24" xmlns:xlink="http://www.w3.org/1999/xlink">
<defs>
<linearGradient id="ButtonColor-6" y1="21" x1="10.31979" y2="1" x2="10.31979" gradientUnits="userSpaceOnUse">
<stop offset="0" style="stop-color:#c8c8c8"/>
<stop offset="1" style="stop-color:#e6e6e6"/>
</linearGradient>
<linearGradient gradientTransform="matrix(0.2570698,0,0,0.2570698,-0.33949467,-0.7525833)" xlink:href="#ButtonColor-6" id="linearGradient3026" y1="90" x1="48" y2="5.9877172" gradientUnits="userSpaceOnUse" x2="48"/>
</defs>
<rect width="21.593863" x="1.2029241" y="0.78983551" rx="1.5424188" height="21.593863" style="opacity:.75;fill:url(#linearGradient3026)"/>
<g style="fill:#333;fill-rule:evenodd">
<rect width="2" x="4.4699688" y="-9.7261829" height="6" transform="scale(1,-1)"/>
<path d="m 11.97,3.7261 c -3.64104,0 -6.65843,2.56855 -7.34961,6 h 2.06055 c 0.650607,-2.31218 2.76332,-4 5.28906,-4 2.52574,0 4.63846,1.68782 5.28906,4 h 2.06055 c -0.691176,-3.43145 -3.70857,-6 -7.34961,-6 z m -7.3496,9 c 0.691177,3.43145 3.70857,6 7.34961,6 3.64104,0 6.65843,-2.56855 7.34961,-6 h -2.06055 c -0.650606,2.31218 -2.76332,4 -5.28906,4 -2.52574,0 -4.63846,-1.68782 -5.28906,-4 z"/>
<rect width="2" x="-9.7261829" y="-10.470051" height="6" transform="matrix(0,-1,-1,0,0,0)"/>
<rect width="2" x="-19.469969" y="12.72594" height="6" transform="scale(-1,1)"/>
<rect width="2" x="12.72594" y="13.469887" height="6" transform="matrix(0,1,1,0,0,0)"/>
</g>
</svg>
