<svg width="24" version="1.0" xmlns="http://www.w3.org/2000/svg" height="24" xmlns:xlink="http://www.w3.org/1999/xlink">
<defs id="defs4">
<clipPath id="clipPath2883">
<path style="opacity:.3;fill:#f00;stroke:none;color:#000;stroke-width:4" id="path2885" d="m -100,-74 0,96 96,0 0,-96 -96,0 z  m 48,16 c 17.664,0 32,14.336 32,32 4e-06,17.664 -14.336,32 -32,32 -17.664,0 -32,-14.336 -32,-32 0,-17.664 14.336,-32 32,-32 z  m 12.125,16.125 -16.25,18.875 -8,-7.25 -7.75,8.375 15.75,15.625 24,-27.25 -7.75,-8.375 z "/>
</clipPath>
<clipPath id="clipPath3266">
<path style="opacity:.3;fill:#f00;stroke:none;color:#000;stroke-width:4" id="path3268" d="M 0,0 0,96 96,96 96,0 0,0 z m 12,6 72,0 c 3.324,0 6,2.676 6,6 l 0,72 c 0,3.324 -2.676,6 -6,6 L 12,90 C 8.676,90 6,87.324 6,84 L 6,12 C 6,8.676 8.676,6 12,6 z"/>
</clipPath>
<linearGradient id="ButtonColor-6" y1="21" x1="10.31979" y2="0.99929649" x2="10.31979" gradientUnits="userSpaceOnUse">
<stop offset="0" style="stop-color:#c8c8c8" id="stop3189-4"/>
<stop offset="1" style="stop-color:#e6e6e6" id="stop3191-0"/>
</linearGradient>
<linearGradient gradientTransform="matrix(0.2570698,0,0,0.2570698,-0.33949467,-0.7525833)" xlink:href="#ButtonColor-6" id="linearGradient3027" y1="90" x1="48" y2="5.9877172" gradientUnits="userSpaceOnUse" x2="48"/>
</defs>
<rect width="21.593863" x="1.2029241" y="0.78983551" rx="1.5424188" ry="1.5424188" height="21.593863" style="opacity:.75;fill:url(#linearGradient3027);stroke:none" id="rect2419"/>
<g id="layer0" transform="matrix(0.50144847,0,0,0.50591311,-7.8339178e-4,-0.82951921)">
<rect width="30.011864" x="0" y="0" height="30.011864" style="fill:#333;fill-rule:evenodd;stroke:#003bc3;stroke-linecap:square;stroke-width:0;stroke-miterlimit:2.013" id="shape0" transform="translate(9.00002,9.00002)"/>
<g style="fill:#f9f9f9">
<rect width="4" x="0" y="0" height="11" id="rect3314" transform="translate(30.9748,13.2578)"/>
<rect width="4" x="0" y="0" height="11" id="rect3320" transform="matrix(0,1,1,0,23.9748,13.2578)"/>
<rect width="4" x="0" y="0" height="14.258593" id="rect3282" transform="matrix(0.707107,0.707107,0.707107,-0.707107,22.064,23.34)"/>
<path style="fill-rule:evenodd;stroke:#003bc3;stroke-linecap:square;stroke-width:0;stroke-miterlimit:2" id="shape1" d="m 13.1366,6.2256 c -0.19,-3.59116 -3.23075,-6.36289 -6.82415,-6.22037 -3.59342,0.142523 -6.40514,3.14639 -6.31011,6.74132 0.0950307,3.59492 3.06152,6.44612 6.65746,6.39852 3.5958,-0.0475 6.4862,-2.976 6.4862,-6.57222" transform="translate(13.347,21.2746)"/>
</g>
</g>
</svg>
