<svg width="24" version="1.1" xmlns="http://www.w3.org/2000/svg" viewBox="0 0 24 24" height="24">
<defs id="defs3051">
<style type="text/css" id="current-color-scheme">
.ColorScheme-Text {
color:#4d4d4d;
}
</style>
</defs>
<path style="fill:currentColor" d="M 3,3 V 21 H 21 V 5 h -8.99219 l -2,-2 -0.0078,0.0078 V 3 Z m 6.0078,5 h 10.99219 v 12 h -16 V 10 h 3 V 9.99219 l 0.0078,0.0078 z M 8,10 v 9 h 10 v -9 z m 0.5,1 h 1 v 1 h -1 z m 8,0 h 1 v 1 h -1 z M 10,11 h 6 v 3 h -6 z m -1.5,3 h 1 v 1 h -1 z m 8,0 h 1 v 1 h -1 z M 10,15 h 6 v 3 h -6 z m -1.5,2 h 1 v 1 h -1 z m 8,0 h 1 v 1 h -1 z" class="ColorScheme-Text"/>
</svg>
