<svg width="24" version="1.1" xmlns="http://www.w3.org/2000/svg" height="24">
<defs id="defs3051">
<style type="text/css" id="current-color-scheme">
.ColorScheme-Text {
color:#4d4d4d;
}
</style>
</defs>
<path style="fill:currentColor;fill-opacity:1;stroke:none" id="folderGlyph" d="M 11.996481,3 C 9.640119,3 7.298166,3.970623 5.633202,5.6367211 3.968238,7.302819 3,9.643998 3,12 c 0,2.356002 0.968238,4.697181 2.633202,6.363279 1.664964,1.666098 4.006926,2.636577 6.363279,2.636721 2.356353,1.39e-4 4.697946,-0.970614 6.365043,-2.636721 C 20.028612,16.697172 21,14.356263 21,12 21,9.643728 20.028612,7.302828 18.361524,5.6367211 16.694436,3.970614 14.352843,3 11.996481,3 Z m 0,1.8 C 15.766653,4.799777 19.2,8.229972 19.2,12 c 0,3.770028 -3.433347,7.200225 -7.203519,7.2 C 8.226309,19.199776 4.8,15.769605 4.8,12 4.8,8.230395 8.226309,4.8002252 11.996481,4.8 Z M 11,7 v 5 H 7 L 12,18.218166 17,12 H 13 V 7 Z" class="ColorScheme-Text"/>
</svg>
