<svg width="24" version="1.1" xmlns="http://www.w3.org/2000/svg" viewBox="0 0 24 24" height="24">
<defs id="defs3051">
<style type="text/css" id="current-color-scheme">
.ColorScheme-Text {
color:#4d4d4d;
}
</style>
</defs>
<path style="fill:currentColor" d="M 3,3 V 21 H 21 V 5 h -8.99219 l -2,-2 -0.0078,0.0078 V 3 Z M 9.0078,6 H 20 V 20 H 4 V 8 H 7 V 7.99219 l 0.0078,0.0078 z M 12,8 v 7.6027 c -0.170392,-0.386339 -1.08788,-0.780889 -1.83203,-0.777343 -1.34346,0.0064 -2.16498,0.902562 -2.16798,1.65667 -0.00436,1.09483 1.04344,1.82228 2.16797,1.81836 1.35948,-0.0047 2.84766,-0.712505 2.84766,-1.81989 v -6.49805 c 1.49789,0.567362 2.43164,1.60825 2.43164,2.71875 0,0.285514 -0.07419,0.56624 -0.205078,0.835937 0.526377,-0.21714 0.833984,-0.950968 0.833984,-1.46875 0,-0.829257 -0.449378,-1.61965 -1.37695,-2.20312 -0.427948,-0.269202 -1.66798,-0.767595 -1.68359,-1.8418 z" class="ColorScheme-Text"/>
</svg>
