<svg width="24" version="1.1" xmlns="http://www.w3.org/2000/svg" viewBox="0 0 24 24" height="24">
<defs id="defs3051">
<style type="text/css" id="current-color-scheme">
.ColorScheme-Text {
color:#4d4d4d;
}
</style>
</defs>
<path style="fill:currentColor" d="m 2,3 v 18 h 20 v -16 h -9.99219 l -2,-2 -.0078,.0078 v -0.0078125 h -8 z  m 7.0078,3 h 11.9922 v 14 h -18 v -12 h 4 v -0.0078125 l .0078,.0078 2,-2 z  m 2.9922,2 v 7.60352 c -0.170392,-0.386339 -1.08788,-0.78089 -1.83203,-0.777344 -1.34346,0.0064 -2.16497,0.902142 -2.16797,1.65625 -0.00436,1.09483 1.04344,1.82228 2.16797,1.81836 1.35948,-0.0047 2.84766,-0.712927 2.84766,-1.82031 v -6.49805 c 1.49789,0.567362 2.43164,1.60825 2.43164,2.71875 0,0.285514 -0.07419,0.56624 -0.205078,0.835937 0.526377,-0.21714 0.833984,-0.950968 0.833984,-1.46875 0,-0.829257 -0.449381,-1.61965 -1.37695,-2.20312 -0.427948,-0.269202 -1.66798,-0.767592 -1.68359,-1.8418 l -1.0156,-.0234 z " class="ColorScheme-Text"/>
</svg>
