<svg width="24" version="1.0" xmlns="http://www.w3.org/2000/svg" height="24">
<defs id="defs3051">
<style type="text/css" id="current-color-scheme">
.ColorScheme-Text {
color:#4d4d4d;
}
</style>
</defs>
<path style="fill:currentColor;fill-opacity:1;stroke:none" id="path844" d="m 5.3281,3.0117 c -0.730347,0 -1.32031,0.582399 -1.32031,1.30469 v 2.19922 2.76367 10.4023 c 0,0.722291 0.589965,1.30664 1.32031,1.30664 h 13.3477 c 0.730347,0 1.31641,-0.584349 1.31641,-1.30664 v -10.4023 -2.76367 -2.19922 c 0,-0.722289 -0.58606,-1.30469 -1.31641,-1.30469 h -13.3477 z  m 1.1504,1.9766 h 11.0293 c 0.266129,1e-07 0.484376,0.225266 0.484376,0.501953 v 3.00586 c 0,0.276687 -0.218247,0.492187 -0.484376,0.492187 h -11.0293 c -0.26613,0 -0.484375,-0.215502 -0.484375,-0.492187 v -3.00586 c 0,-0.276687 0.218245,-0.501953 0.484375,-0.501953 z  m -.1484,6 h 1.32812 c 0.183673,0 0.335938,0.15674 0.335938,0.34375 v 1.3125 c 0,0.187009 -0.152264,0.343751 -0.335938,0.34375 h -1.32812 c -0.183674,0 -0.335938,-0.156741 -0.335938,-0.34375 v -1.3125 c 0,-0.18701 0.152264,-0.34375 0.335938,-0.34375 z  m 3,0 h 1.32812 c 0.183673,0 0.333985,0.15674 0.333985,0.34375 v 1.3125 c -1e-06,0.187009 -0.150312,0.343751 -0.333985,0.34375 h -1.32812 c -0.183674,0 -0.335938,-0.156741 -0.335938,-0.34375 v -1.3125 c 0,-0.18701 0.152264,-0.34375 0.335938,-0.34375 z  m 3,0 h 1.32617 c 0.183676,0 0.335938,0.15674 0.335938,0.34375 v 1.3125 c -1e-06,0.187009 -0.152262,0.343751 -0.335938,0.34375 h -1.32617 c -0.183676,0 -0.33789,-0.156741 -0.33789,-0.34375 v -1.3125 c 0,-0.18701 0.154214,-0.34375 0.33789,-0.34375 z  m 4,0 h 1.32617 c 0.183674,0 0.335938,0.15674 0.335938,0.34375 v 1.3125 c 0,0.187009 -0.152264,0.343751 -0.335938,0.34375 h -1.32617 c -0.183676,0 -0.33789,-0.156741 -0.33789,-0.34375 v -1.3125 c -1e-06,-0.18701 0.154214,-0.34375 0.33789,-0.34375 z  m -10,3 h 1.32812 c 0.183673,0 0.335938,0.15674 0.335938,0.34375 v 1.3125 c 0,0.187009 -0.152264,0.343751 -0.335938,0.34375 h -1.32812 c -0.183674,0 -0.335938,-0.156741 -0.335938,-0.34375 v -1.3125 c 0,-0.18701 0.152264,-0.34375 0.335938,-0.34375 z  m 3,0 h 1.32812 c 0.183673,0 0.333985,0.15674 0.333985,0.34375 v 1.3125 c -1e-06,0.187009 -0.150312,0.343751 -0.333985,0.34375 h -1.32812 c -0.183674,0 -0.335938,-0.156741 -0.335938,-0.34375 v -1.3125 c 0,-0.18701 0.152264,-0.34375 0.335938,-0.34375 z  m 3,0 h 1.32617 c 0.183676,0 0.335938,0.15674 0.335938,0.34375 v 1.3125 c -1e-06,0.187009 -0.152262,0.343751 -0.335938,0.34375 h -1.32617 c -0.183676,0 -0.33789,-0.156741 -0.33789,-0.34375 v -1.3125 c 0,-0.18701 0.154214,-0.34375 0.33789,-0.34375 z  m 4,0 h 1.32617 c 0.183674,0 0.335938,0.154787 0.335938,0.341797 v 4.31445 c 0,0.187009 -0.152264,0.343751 -0.335938,0.34375 h -1.32617 c -0.183676,0 -0.33789,-0.156741 -0.33789,-0.34375 v -4.31445 c -1e-06,-0.18701 0.154214,-0.341797 0.33789,-0.341797 z  m -10,3 h 1.32812 c 0.183673,0 0.335938,0.15674 0.335938,0.34375 v 1.3125 c 0,0.187009 -0.152264,0.343751 -0.335938,0.34375 h -1.32812 c -0.183674,0 -0.335938,-0.156741 -0.335938,-0.34375 v -1.3125 c 0,-0.18701 0.152264,-0.34375 0.335938,-0.34375 z  m 3,0 h 1.32812 c 0.183673,0 0.333985,0.15674 0.333985,0.34375 v 1.3125 c -1e-06,0.187009 -0.150312,0.343751 -0.333985,0.34375 h -1.32812 c -0.183674,0 -0.335938,-0.156741 -0.335938,-0.34375 v -1.3125 c 0,-0.18701 0.152264,-0.34375 0.335938,-0.34375 z  m 3,0 h 1.32617 c 0.183676,0 0.335938,0.15674 0.335938,0.34375 v 1.3125 c -1e-06,0.187009 -0.152262,0.343751 -0.335938,0.34375 h -1.32617 c -0.183676,0 -0.33789,-0.156741 -0.33789,-0.34375 v -1.3125 c 0,-0.18701 0.154214,-0.34375 0.33789,-0.34375 z " class="ColorScheme-Text"/>
</svg>
