<svg width="24" version="1.0" xmlns="http://www.w3.org/2000/svg" height="24">
<path style="opacity:.6;fill:#fff" d="m 11.9968,1.3104 c -0.867011,0 -1.75031,0.332587 -2.41662,0.998909 h -0.00268 l -7.5694,7.5804 c -0.646635,0.646647 -0.993786,1.50304 -1.00692,2.3657 v 0.0026 c 0,0.03766 0,0.04972 0,0.04833 -0.0441979,0.955094 1.19396,1.49441 1.47144,1.60309 0.455531,0.178414 0.971214,0.331746 1.48488,0.480658 0.025743,0.0075 0.04411,0.01406 0.069813,0.02148 -0.181931,0.145312 -0.397285,0.2972 -0.520915,0.719644 -0.147175,0.502896 0.109974,1.16796 0.392028,1.45003 0.45839,0.458409 0.850314,0.571932 1.30229,0.746498 0.451972,0.174565 0.945647,0.331231 1.42311,0.483343 0.372196,0.118566 0.694519,0.227342 0.998867,0.335654 -0.085223,0.108097 -0.152838,0.133225 -0.238977,0.303433 -0.113634,0.224535 -0.220618,0.556292 -0.177219,0.939834 0.043399,0.383542 0.251929,0.746028 0.480637,0.974742 0.493231,0.493263 1.0134,0.563244 1.38821,0.617606 0.247129,0.03585 0.396205,0.04582 0.566562,0.06175 l -.0752,.3249 .4861,.4861 c 0.800298,0.800333 1.90141,0.922851 2.83818,0.786773 0.936766,-0.13607 1.82604,-0.518727 2.58309,-1.06067 l .0806,-.0591 .0725,-.0725 c 0.181718,-0.181732 0.393568,-0.433836 0.472581,-0.851222 0.04931,-0.26041 -0.08892,-0.481271 -0.179902,-0.722328 0.131202,-0.05737 0.08921,-0.04065 0.249715,-0.107415 0.718856,-0.299014 1.66696,-0.784458 2.49985,-1.72124 l .6256,-.7008 -.5075,-.7895 c -0.238163,-0.370409 -0.445563,-0.385976 -0.70619,-0.582697 0.730294,-0.158614 1.68843,-0.376727 3,-0.972056 0.763678,-0.34685 1.32865,-0.732908 1.65673,-1.33994 0.326199,-0.603572 0.257638,-1.15938 0.255083,-1.35873 v -0.008 l .0027,-.0296 -.0027,-.0242 c -0.013055,-0.863507 -0.370205,-1.7155 -1.00692,-2.35222 l -7.5801,-7.5804 c -0.631717,-0.631752 -1.49859,-0.998909 -2.36559,-0.998909 Z "/>
<path d="m 21.278,16.5506 c -0.196599,-0.0064 -0.38265,0.01347 -0.522501,0.04839 -0.26367,0.06589 -1.54458,0.09625 -1.44171,0.919219 1.13164,0.41129 2.881,0.726278 3.08664,-0.09676 0.154359,-0.617115 -0.532613,-0.85194 -1.12242,-0.87084 z "/>
<path d="m 5.9069,18.1297 c -0.184502,-0.02151 -0.365006,0 -0.541482,0.09025 -0.705728,0.355979 -1.18074,1.14693 -0.521425,1.47404 0.659379,0.327108 1.12664,-0.04535 1.70467,-0.451232 0.578104,-0.405825 0.605062,-0.50296 0.521429,-0.641758 -0.132517,-0.21992 -0.609678,-0.406784 -1.16319,-0.471292 z "/>
<path d="m 18.8675,18.3759 c -0.537727,0.21504 -0.531407,0.96209 -0.101156,1.28465 0.43015,0.322628 0.968514,0.113946 1.1835,-0.101156 0.215162,-0.215039 -0.007,-0.968451 -1.08234,-1.1835 z "/>
<path d="m 11.9979,2.5482 c -0.556549,0 -1.11689,0.209531 -1.54337,0.635998 l -7.5727,7.5812 c -0.417998,0.417989 -0.636177,0.963946 -0.644484,1.50939 0,0.0091 0,0.02482 0,0.03397 l .0105,.0164 c 0.145078,0.551981 3.89619,1.23594 4.31438,1.65417 0.631605,0.631608 -2.42088,1.09831 -1.78928,1.72993 0.631605,0.631605 3.82034,1.21702 4.45198,1.84865 0.63161,0.63161 -1.29306,1.30184 -0.66144,1.93344 0.631605,0.631618 2.75,-0.154994 2.36592,1.49248 0.852939,0.852941 2.63295,0.445898 3.82448,-0.407039 0.631601,-0.631609 -1.20826,-0.572563 -0.576642,-1.20416 0.631609,-0.631613 2.22672,-0.63458 3.57009,-2.14544 -0.540732,-0.840957 -2.31066,-1.2 -1.67904,-1.83168 0.631601,-0.631606 1.85334,-0.314664 4.50289,-1.51793 1.2934,-0.587415 1.19215,-1.02787 1.1872,-1.56881 0,-0.01138 0,-0.02244 0,-0.03391 v -0.01388 c -0.00825,-0.545458 -0.22684,-1.07756 -0.644833,-1.49554 l -7.5812,-7.5812 c -0.426467,-0.42647 -0.936238,-0.635998 -1.49278,-0.635998 Z "/>
<g style="fill:#fff">
<path d="m 12.1536,4.4094 c 0.746153,0.112609 3.42174,3.35088 4.32879,3.9868 0.907052,0.635928 0.69433,1.05301 0.69433,1.09277 l -2.4842,-1.0825 -.1356,1.6555 -1.4042,-.6614 -1.8334,1.301 -.8344,-2.849 -1.0582,2.4929 -2.8922,.3248 .0305,-1.3228 4.3146,-4.3655 c 0.315186,-0.318901 0.647493,-0.667123 1.27381,-0.572603 Z "/>
<path d="m 7.9731,14.1711 c 1.48778,0.385842 4.16515,1.07347 5.49321,1.08252 l .0528,1.2959 c -1.13723,-0.117227 -3.98676,-0.806643 -4.55411,-1.09647 Z "/>
</g>
</svg>
