<svg width="24" version="1.0" xmlns="http://www.w3.org/2000/svg" height="24" xmlns:xlink="http://www.w3.org/1999/xlink">
<defs>
<linearGradient id="linearGradient3770">
<stop offset="0" style="stop-color:#ffda7d"/>
<stop offset="0.3" style="stop-color:#ffda7d"/>
<stop offset="0.3" style="stop-color:#ffc941"/>
<stop offset="0.68" style="stop-color:#ffc941"/>
<stop offset="0.68" style="stop-color:#dc9e00"/>
<stop offset="1" style="stop-color:#dc9e00"/>
</linearGradient>
<linearGradient id="linearGradient6">
<stop offset="0" style="stop-color:#b25c00"/>
<stop offset="1" style="stop-color:#fa8600"/>
</linearGradient>
<linearGradient id="linearGradient9">
<stop offset="0" style="stop-color:#bababa"/>
<stop offset="1" style="stop-color:#e3e3e3"/>
</linearGradient>
<linearGradient id="linearGradient13">
<stop offset="0" style="stop-color:#dbc457"/>
<stop offset="1" style="stop-color:#f0da94"/>
</linearGradient>
<linearGradient id="linearGradient869">
<stop offset="0" style="stop-color:#666"/>
<stop offset="1"/>
</linearGradient>
<linearGradient gradientTransform="matrix(0.52145267,0,0,0.52145267,1.4916432,0.59113166)" xlink:href="#linearGradient9" id="linearGradient12" y1="21.217579" x1="34.573826" y2="13.371971" x2="26.778454" gradientUnits="userSpaceOnUse"/>
<linearGradient gradientTransform="matrix(0.52145267,0,0,0.52145267,1.4916432,0.59113166)" xlink:href="#linearGradient6" id="linearGradient8" y1="17.639959" x1="38.194466" y2="10" x2="30.600706" gradientUnits="userSpaceOnUse"/>
<linearGradient gradientTransform="matrix(0.3677639,0.36967905,-0.36967905,0.3677639,8.0224286,-10.557272)" xlink:href="#linearGradient869" id="linearGradient871" y1="44.033699" x1="37.169601" y2="44.038601" x2="43.229599" gradientUnits="userSpaceOnUse"/>
<linearGradient gradientTransform="matrix(0.3677639,0.36967905,-0.36967905,0.3677639,7.7054909,-9.9863262)" xlink:href="#linearGradient3770" id="linearGradient3849" y1="23.720449" x1="34.265" y2="23.720449" gradientUnits="userSpaceOnUse" x2="45.4021"/>
<linearGradient gradientTransform="matrix(0.52145267,0,0,0.52145267,1.4916432,0.59113166)" xlink:href="#linearGradient13" id="linearGradient15" y1="38.854919" x1="16.81628" y2="31.010721" x2="9.0194902" gradientUnits="userSpaceOnUse"/>
</defs>
<g style="fill-rule:evenodd">
<path style="fill:#aaa" d="m 0,-0 v 24 l 21,0 v -24 Z "/>
<path style="fill:#f2f2f2" d="M 1,1 V 23 H 20 V 1 Z"/>
</g>
<g style="fill:#385389">
<path style="opacity:.9" d="m 8.8667,2.3987 -.0213,3.6094 2.6336,-3.5242 2.1222,.4858 -2.7401,3.5242 2.7188,3.7373 -2.0796,.6605 -2.6549,-3.8865 v 3.50289 l -1.973,.2983 v -8.21603 l 1.9943,-.1918 Z "/>
<path style="opacity:.9" d="m 4.3454,4.4015 c 0.022553,-0.00232 0.043807,0 0.063921,0.012783 l 1.4958,.9801 c 0,0 0,0.00407 0,0.00426 0.184501,-0.100504 0.378618,-0.185358 0.579555,-0.255688 v 0.818194 c -1.10404,0.496848 -1.87502,1.60421 -1.87502,2.8935 0,1.75277 1.422,3.17475 3.17476,3.17475 1.23349,0 2.30444,-0.702563 2.82958,-1.73013 0.439096,0.642863 0.775579,1.1378 0.775579,1.1378 0.015,0.02195 0.04296,0.03333 0.06818,0.02557 l .1747,-.0554 .5327,.8778 c 0.02427,0.03989 0.01609,0.09052 -0.01704,0.12358 l -.7798,.7841 c -0.03416,0.03395 -0.08755,0.03902 -0.127841,0.01278 l -1.4617,-.9588 c -0.298366,0.175637 -0.620944,0.312584 -0.963083,0.404835 l -.4091,1.6705 c -0.011043,0.04547 -0.051513,0.0767 -0.098013,0.0767 h -1.10796 c -0.047966,0 -0.08833,-0.03398 -0.098012,-0.08097 l -.3452,-1.662 c -0.33174,-0.089587 -0.646643,-0.224117 -0.937511,-0.392052 l -1.483,.8992 c -0.039887,0.02428 -0.090547,0.02014 -0.12358,-0.01278 l -.7841,-.7841 c -0.03402,-0.03395 -0.039171,-0.08762 -0.012783,-0.127843 l .946,-1.4403 c -0.178467,-0.313842 -0.3133,-0.658408 -0.400572,-1.01848 l -1.6321,-.3963 c -0.0453415,-0.0110481 -0.0810657,-0.0511734 -0.0810657,-0.0980125 v -1.10797 c 0,-0.048004 0.034126,-0.092592 0.080968,-0.102274 l 1.6833,-.3494 c 0.093,-0.311014 0.225106,-0.604374 0.387788,-0.877849 l -.9162,-1.5129 c -0.024072,-0.0399887 -0.020048,-0.0905479 0.0128785,-0.123582 l .7841,-.7841 c 0.016976,-0.01701 0.041371,-0.023243 0.063922,-0.025568 z "/>
</g>
<g style="fill-rule:evenodd">
<path style="opacity:.05" d="m 20.5064,4.6776 c -0.325691,-0.0071211 -0.692217,0.132383 -0.911525,0.350351 l -13.398,13.1515 .0224,.0224 -1.7212,5.7849 5.7915,-1.7004 13.371,-13.1683 c 0.360504,-0.358636 0.449454,-1.13018 0.12833,-1.45335 l -2.7927,-2.8069 c -0.117221,-0.117835 -0.294463,-0.175996 -0.48988,-0.180268 Z "/>
<path style="opacity:.2" d="m 20.2492,4.433 c -0.325692,-0.00712 -0.692219,0.132383 -0.911527,0.350351 l -12.9793,12.8377 .0224,.0224 -1.7212,5.7849 5.7915,-1.7004 12.9523,-12.8545 c 0.360503,-0.358636 0.449455,-1.13018 0.128329,-1.45335 l -2.7927,-2.8069 c -0.11722,-0.117835 -0.294464,-0.175996 -0.489879,-0.180268 Z "/>
<path style="opacity:.25" d="m 20.0072,4.2025 c -0.325692,-0.00712 -0.692219,0.132383 -0.911526,0.350351 l -12.4741,12.5607 .0387,-.0346 -1.8027,5.7767 5.5145,-1.5455 12.7894,-12.6671 c 0.360504,-0.358636 0.449454,-1.13018 0.128329,-1.45335 l -2.7927,-2.8069 c -0.11722,-0.117835 -0.294463,-0.175996 -0.489879,-0.180268 Z "/>
<path style="opacity:.35" d="m 20.1455,4.1104 c -0.325691,-0.0071237 -0.692217,0.132383 -0.911525,0.350351 l -12.6912,12.5612 .0224,.0224 -1.6229,5.5407 5.4406,-1.5621 12.6969,-12.6065 c 0.360504,-0.358636 0.449454,-1.13018 0.128329,-1.45335 l -2.5727,-2.6724 c -0.11722,-0.117835 -0.294465,-0.175996 -0.489881,-0.180268 Z "/>
<path style="fill:url(#linearGradient8)" d="m 20.0614,3.5564 c -0.325692,-0.00712 -0.692032,0.131948 -0.911339,0.349916 l -1.8169,1.7833 4.0657,4.0904 1.8169,-1.7833 c 0.360504,-0.358637 0.449061,-1.13041 0.12794,-1.45358 l -2.7923,-2.8068 c -0.11722,-0.117835 -0.294483,-0.17571 -0.489899,-0.179981 Z "/>
<path style="fill:url(#linearGradient12)" d="m 17.3426,5.6992 -1.8865,1.8674 4.0658,4.0902 1.8864,-1.8672 z "/>
<path style="fill:url(#linearGradient3849)" d="m 15.4554,7.564 -9.285,9.1802 4.0949,4.1056 9.2557,-9.1953 z "/>
<path style="fill:url(#linearGradient15)" d="m 6.1949,16.7617 -1.7235,5.7899 5.7891,-1.6995 -4.0657,-4.0904 Z "/>
<path style="fill:url(#linearGradient871)" d="m 5.4138,19.3775 -.9423,3.1741 3.1692,-.932 -2.2269,-2.242 Z "/>
</g>
</svg>
