<svg width="24" version="1.1" xmlns="http://www.w3.org/2000/svg" viewBox="0 0 24 24" height="24">
<defs id="defs3051">
<style type="text/css" id="current-color-scheme">
.ColorScheme-Text {
color:#4d4d4d;
}
</style>
</defs>
<path style="fill:currentColor;fill-opacity:1;stroke:none" id="path4" d="m 13.5059,3 -3.1868,.2979 v 12.3075 l 3.1518,-.4301 v -5.26057 l 4.2024,5.8231 3.2919,-.9927 -4.3074,-5.5913 4.3425,-5.2936 -3.3619,-.7279 -4.1674,5.2936 .0351,-5.4259 Z  m -7.1791,3.0107 c -0.035628,0 -0.078214,0.019125 -0.105084,0.033751 l -1.2257,1.1911 c -0.052201,0.051751 -0.073396,0.138264 -0.035132,0.198565 l 1.4358,2.2499 c -0.257763,0.409392 -0.447709,0.85771 -0.595348,1.32302 l -2.6615,.5297 c -0.074206,0.01912 -0.139986,0.06075 -0.139986,0.132864 v 1.65433 c 0,0.06975 0.068575,0.147827 0.139986,0.164815 l 2.5915,.5956 c 0.137981,0.539444 0.347535,1.05211 0.630349,1.52169 l -1.5058,2.1509 c -0.041774,0.06075 -0.020049,0.147827 0.035132,0.198565 l 1.2257,1.1578 c 0.052201,0.04725 0.146404,0.072 0.210106,0.03375 l 2.3463,-1.3563 c 0.461346,0.251441 0.944962,0.461256 1.47084,0.595357 l .5603,2.4814 c 0.01608,0.072 0.06443,0.132639 0.139999,0.132639 h 1.75098 c 0.0738,0 0.157434,-0.06413 0.175081,-0.132639 l .6303,-2.4814 c 0.542068,-0.138264 1.0683,-0.365404 1.54088,-0.628433 l 2.3113,1.4558 c 0.06361,0.03825 0.156031,0.01913 0.210119,-0.03375 l 1.2257,-1.1581 c 0.05251,-0.05175 0.07361,-0.138264 0.03512,-0.19834 l -.8405,-1.3231 -.2802,.099 c -0.03998,0.01912 -0.08162,0 -0.105087,-0.03375 0,0 -0.529684,-0.758035 -1.22569,-1.7206 -0.83205,1.53857 -2.52769,2.58089 -4.48253,2.58089 -2.77735,0 -5.04285,-2.10715 -5.04285,-4.73125 0,-1.93019 1.22717,-3.59048 2.97668,-4.33412 v -1.22424 c -0.318428,0.105751 -0.618151,0.213303 -0.91053,0.364167 -0.0002172,0 -0.034262,0 -0.035132,0 l -2.3463,-1.456 c -0.0319054,-0.0191253 -0.0693819,-0.0360005 -0.105098,-0.0326255 Z " class="ColorScheme-Text"/>
</svg>
