<svg width="24" version="1.1" xmlns="http://www.w3.org/2000/svg" viewBox="0 0 24 24" height="24">
<g transform="matrix(0.25714249,0,0,0.21311371,43.990339,5.4299716)">
<path style="fill:#00cca9" d="m -159.4071,-6.7099 v 61 h 69.9968 v -61 z"/>
<path style="fill:#e58800" d="m -89.4103,-6.7099 -24.0852,17.7735 -4.8633,-2.2833 -19.7196,15.9475 9.0998,5.8015 -3.0583,2.6149 28.9486,21.1462 h 13.6812 z"/>
<path style="fill:#319b3b" d="m -138.0308,24.5933 -5.1148,3.9906 .4097,3.24 -16.6713,13.0214 v 9.44488 h 56.6417 l -29.0862,-21.2133 2.9895,-2.6485 z "/>
</g>
<path style="color:#4d4d4d" d="m 2,3 v 15 h 8 v 1 H 8 v 2 h 8 v -2 h -2 v -1 h 8 V 3 Z M 3,4 H 21 V 17 H 3 Z"/>
<path style="opacity:.5;fill:#fff;-inkscape-stroke:none;color:#000;stroke-width:1.177" d="m 1,2 v 17 h 9 V 18 H 2 V 3 h 20 v 15 h -8 v 1 h 9 V 2 Z m 6,17 v 3 h 10 v -3 h -1 v 2 H 8 v -2 z"/>
<path style="fill:#7fff2a;stroke-width:.53" d="m 11,19 h 2 v 1 h -2 z"/>
<g style="fill-rule:evenodd">
<path style="fill:#3e3e3e;color:#000;stroke-width:.217" d="m 13.1926,10.2033 c 0,0 -0.05831,0.119225 -0.129007,0.305542 -0.192642,0.497255 -0.359505,0.889251 -1.01848,1.48018 -0.610512,0.547477 -1.30161,0.782109 -1.63635,0.882677 -0.0071,0.0019 -0.0203,0.0048 -0.02716,0.0068 -0.07819,0.02304 -0.264803,0.09506 -0.264803,0.09506 -0.0011,0.000485 -0.02037,0.0068 -0.02037,0.0068 l .0679,.2037 c 0,0 0.01987,-0.0067 0.02037,-0.0068 0,0 0.100598,-0.04176 0.264803,-0.08827 0.0019,-0.000486 0.0049,0.000485 0.0068,0 0.467021,-0.1315 1.44081,-0.295004 2.15917,0.319122 -0.07787,0.104432 -0.07362,0.255607 0.02037,0.353074 l 3.1059,3.1787 c 0.107416,0.111387 0.292189,0.123673 0.407392,0.02037 l .7605,-.6858 c 0.115201,-0.103306 0.120995,-0.282422 0.01358,-0.393809 l -3.1059,-3.1787 c -0.09625,-0.09982 -0.246244,-0.112936 -0.359862,-0.04074 -0.38543,-0.480743 -0.42457,-1.02933 -0.353073,-1.48697 0.03857,-0.246841 0.109944,-0.456724 0.169747,-0.611084 0.06104,-0.157547 0.108637,-0.258013 0.108637,-0.258013 0.002,-0.005 0.0048,-0.0085 0.0068,-0.01358 l -.1969,-.0883 z "/>
<g style="fill:#fff">
<ellipse cx="9.4604883" cy="9.3143539" rx="3.6929159" ry="3.5830195" style="opacity:.5;stroke-width:.52"/>
<path style="opacity:.35;stroke-width:.326" d="m 6.5157,10.2663 c 2.45363,-0.476067 2.03211,-2.91409 4.72798,-3.39016 -1.05067,-0.842542 -2.75171,-0.697511 -3.74654,0.057679 -1.01423,0.769914 -1.47218,2.38033 -0.981452,3.33246 Z "/>
</g>
</g>
<path style="fill:none;stroke:#3d3d3d;stroke-width:.889" d="m 13.474,9.4465 a 3.87082,4.01729 85 0,1 -8.02598,-0.259498 3.87082,4.01729 85 1,1 8.02598,0.259498 Z "/>
</svg>
