<svg width="24" version="1.1" xmlns="http://www.w3.org/2000/svg" height="24" viewBox="0 0 24 24">
<defs id="defs3051">
<style type="text/css" id="current-color-scheme">
.ColorScheme-Text {
color:#4d4d4d;
}
</style>
</defs>
<path style="fill:currentColor;fill-opacity:1;stroke:none" id="path312" d="m 13.2656,.9668 c -0.748306,0.0177568 -1.4336,0.23975 -2.07812,0.664063 -0.642735,0.422519 -1.15544,1.04134 -1.44727,1.75391 -0.291827,0.714352 -0.36214,1.51579 -0.199219,2.26953 0.162921,0.751947 0.556805,1.45232 1.11719,1.98047 -0.284666,-0.469066 -0.431962,-1.02263 -0.414062,-1.57227 0.01611,-0.549634 0.196455,-1.09196 0.509765,-1.54492 0.313315,-0.451163 0.761071,-0.809895 1.26953,-1.01758 0.508457,-0.20768 1.07845,-0.26595 1.61914,-0.162109 0.78596,0.148603 1.59247,0.910028 1.83984,1.6582 l 7.5176,-.3281 -6.2656,-1.6191 c -0.293619,-0.666007 -0.708705,-1.10001 -1.30469,-1.51367 -0.696961,-0.483745 -1.5203,-0.583635 -2.16406,-0.568359 z  m -10.8906,1.4082 c -0.880854,0.909496 -1.38574,2.17172 -1.375,3.4375 0.010742,1.28368 0.554199,2.55617 1.47266,3.45312 0.128024,0.125029 0.263069,0.239932 0.404297,0.349609 l -1.1895,-.3652 c -0.238116,0.909503 -0.163733,1.89698 0.205078,2.76172 0.370603,0.862948 1.03386,1.59603 1.85742,2.05078 0.628412,0.347328 1.34457,0.53125 2.0625,0.53125 0.717933,0 1.43409,-0.18392 2.0625,-0.53125 -0.578283,0.05192 -1.16749,-0.04264 -1.69922,-0.275391 -0.531735,-0.230954 -0.969729,-0.483081 -1.32422,-0.941406 -0.4082,-0.529944 -0.67269,-1.0547 -0.724609,-1.7207 l 6.498,.875 -5.9668,-1.8359 c -0.205076,-0.134459 -0.396284,-0.290108 -0.564453,-0.468749 -0.488767,-0.517413 -0.792156,-1.20703 -0.847656,-1.91602 -0.05192,-0.687494 0.127934,-1.3903 0.503906,-1.9668 l 7.5625,4.125 -8.9375,-7.5625 z  m 12.4023,4.584 c -0.383136,0.452958 -0.634282,1.01628 -0.714844,1.60352 -0.07519,0.555009 1e-06,1.12338 0.146484,1.66406 0.146809,0.538896 0.365236,1.05681 0.580078,1.57422 0.214842,0.517414 0.428713,1.03761 0.56836,1.58008 0.137857,0.542475 0.200521,1.11264 0.107422,1.66406 -0.155761,0.923821 -0.745618,1.74593 -1.51367,2.28125 -0.768055,0.535314 -1.70411,0.800456 -2.63867,0.861328 -1.17985,0.07699 -2.37761,-0.162929 -3.4375,-0.6875 l .0273,5.5 1.375,-2.7363 c 1.8172,0.531734 3.84881,0.270989 5.47266,-0.701172 0.819982,-0.490555 1.53973,-1.15788 2.04102,-1.9707 0.503088,-0.812819 0.781086,-1.77019 0.736328,-2.72266 -0.06445,-1.35887 -0.757486,-2.59816 -1.41992,-3.78516 -0.664222,-1.187 -1.33285,-2.44597 -1.3418,-3.80664 0,-0.10563 0.004499,-0.212728 0.011719,-0.318359 z " class="ColorScheme-Text"/>
</svg>
