<svg width="24" version="1.1" xmlns="http://www.w3.org/2000/svg" height="24" viewBox="0 0 24 24">
<defs id="defs3051">
<style type="text/css" id="current-color-scheme">
.ColorScheme-Text {
color:#4d4d4d;
}
</style>
</defs>
<path style="fill:currentColor;fill-opacity:1;stroke:none" id="path4" d="m 13.375,1 c -0.769853,-0.0161148 -1.54297,0.206546 -2.1875,0.630859 -0.642736,0.422519 -1.15544,1.04134 -1.44727,1.75391 -0.291827,0.714353 -0.36214,1.51579 -0.199219,2.26953 0.162921,0.751948 0.556807,1.45232 1.11719,1.98047 -0.284666,-0.469067 -0.431962,-1.02263 -0.414062,-1.57227 0.016115,-0.549635 0.196454,-1.09196 0.509765,-1.54492 0.313315,-0.451164 0.761069,-0.809897 1.26953,-1.01758 0.508458,-0.20768 1.07845,-0.26595 1.61914,-0.162109 0.785961,0.148603 1.4987,0.646165 1.91406,1.33008 h 7.44336 l -6.1875,-1.375 c -0.293619,-0.666008 -0.781416,-1.24561 -1.38477,-1.64844 -0.605136,-0.40283 -1.32585,-0.630208 -2.05273,-0.644531 z  m -11,1.375 c -0.880855,0.909497 -1.38574,2.17172 -1.375,3.4375 0.010742,1.28368 0.554202,2.55616 1.47266,3.45312 0.128024,0.125029 0.263069,0.239931 0.404297,0.349609 l -1.1895,-.3652 c -0.238116,0.909504 -0.163734,1.89698 0.205078,2.76172 0.370603,0.862949 1.03386,1.59603 1.85742,2.05078 0.628413,0.347328 1.34457,0.53125 2.0625,0.53125 0.717934,0 1.43409,-0.18392 2.0625,-0.53125 -0.578284,0.05192 -1.16749,-0.042644 -1.69922,-0.275391 -0.531736,-0.230955 -1.00489,-0.600265 -1.35938,-1.05859 -0.4082,-0.529945 -0.659018,-1.1797 -0.710937,-1.8457 l 6.5195,1.1172 -5.9668,-1.8359 c -0.205076,-0.13446 -0.396284,-0.290107 -0.564453,-0.468749 -0.488767,-0.517413 -0.792156,-1.20703 -0.847656,-1.91602 -0.0519196,-0.687495 0.127933,-1.3903 0.503906,-1.9668 l 7.5625,4.125 -8.9375,-7.5625 z  m 12.4023,4.584 c -0.383136,0.452959 -0.634282,1.01628 -0.714844,1.60352 -0.07519,0.55501 0,1.12338 0.146484,1.66406 0.146809,0.538896 0.365235,1.05681 0.580078,1.57422 0.214842,0.517414 0.428713,1.03761 0.56836,1.58008 0.137857,0.542475 0.200521,1.11264 0.107422,1.66406 -0.155761,0.923822 -0.745615,1.74593 -1.51367,2.28125 -0.768056,0.535315 -1.70411,0.800456 -2.63867,0.861328 -1.17985,0.07699 -2.37761,-0.162928 -3.4375,-0.6875 l .0273,5.5 1.375,-2.7363 c 1.8172,0.531735 3.84881,0.27099 5.47266,-0.701172 0.819983,-0.490555 1.53973,-1.15788 2.04102,-1.9707 0.503089,-0.81282 0.781086,-1.77019 0.736328,-2.72266 -0.06445,-1.35887 -0.757483,-2.59816 -1.41992,-3.78516 -0.664223,-1.187 -1.33285,-2.44597 -1.3418,-3.80664 0,-0.10563 0.004479,-0.212728 0.011719,-0.318359 z " class="ColorScheme-Text"/>
</svg>
