<svg width="24" version="1.1" xmlns="http://www.w3.org/2000/svg" height="24" viewBox="0 0 24 24" xmlns:xlink="http://www.w3.org/1999/xlink">
<defs id="defs3051">
<style type="text/css" id="current-color-scheme">
.ColorScheme-Text {
color:#4d4d4d;
}
</style>
</defs>
<path style="fill:currentColor;fill-opacity:1;stroke:none" id="path832" d="m 12,1 c -6.07513,0 -11,4.92487 -11,11 0.009,4.80489 3.13561,9.04795 7.72223,10.4797 l -.0224,-4.6453 c 1.93224,0.308088 3.71168,0.286702 4.76938,-0.268294 1.10474,-0.57968 1.41352,-1.71538 1.38357,-3.12251 -0.03231,-1.51805 -0.885682,-2.8687 -0.772516,-4.38 0.03849,-0.513984 0.288018,-1.00167 0.621179,-1.39555 -0.0063,0.091853 -0.0093,0.185576 -0.0093,0.277429 0.0078,1.18319 0.589111,2.27735 1.1667,3.30953 0.576034,1.03217 1.17791,2.10922 1.23395,3.29085 0.03892,0.828234 -0.202391,1.66115 -0.639861,2.36795 -0.435904,0.706805 -1.06177,1.28751 -1.7748,1.71408 -1.41204,0.845358 -3.17908,1.07328 -4.75926,0.610904 l -1.1368,2.2605 c 1.04187,0.325632 2.1264,0.494374 3.21795,0.500679 6.07513,0 11,-4.92487 11,-11 0,-1.86258 -0.47328,-3.69463 -1.375,-5.32439 l -6.3596,.4182 c -0.4592,-1.11639 -1.72537,-1.62558 -2.91847,-1.24879 -1.08233,0.341809 -1.56121,1.15873 -1.58739,2.04308 -0.011156,0.376751 0.112095,0.960577 0.35963,1.36846 -0.487288,-0.459262 -0.829797,-1.06955 -0.971468,-1.72342 -0.141671,-0.655424 -0.18833,-1.34356 -0.008623,-1.99006 0.331528,-1.19268 1.60718,-2.18623 2.97379,-2.24464 1.47573,-0.063078 3.00325,0.997207 3.35871,2.18154 l 5.1208,1.1377 c -1.94644,-3.46928 -5.61431,-5.61735 -9.59231,-5.6177 Z  m -8.0828,3.6832 7.7717,6.5761 -6.5761,-3.587 c -0.424807,1.38969 0.259012,2.82695 1.14573,3.37462 l 4.8325,2.0058 -5.5419,-.6797 c 0.586762,1.36873 1.493,2.33623 3.15056,2.47322 -3.35888,1.48378 -5.61196,-1.35784 -5.38043,-4.18478 l 1.0359,.3185 c -0.123334,-0.095694 -0.24226,-0.197236 -0.354025,-0.306386 -0.798656,-0.779967 -1.27038,-1.88503 -1.27972,-3.00127 -0.0093419,-1.10068 0.429692,-2.19826 1.19565,-2.98913 Z " class="ColorScheme-Text"/>
</svg>
