<svg version="1.1" xmlns="http://www.w3.org/2000/svg" viewBox="0 0 24 24">
<defs id="defs3051">
<style type="text/css" id="current-color-scheme">
.ColorScheme-Text {
color:#4d4d4d;
}
</style>
</defs>
<path style="fill:currentColor;fill-opacity:1;stroke:none" id="path4" d="m 5,5.6782 v 8.05177 l 5.2656,5.2701 8.0634,.0048 .6709,-1.0048 -13,-13 Z  m 2.1686,-1.2099 .5913,.985 c 2.99735,-1.27233 6.46729,-0.599616 8.7714,1.7005 2.29646,2.30394 2.9662,5.76947 1.69342,8.76255 l .9839,.5894 c 1.53751,-3.4471 0.794316,-7.48451 -1.87002,-10.1589 -2.67461,-2.66907 -6.71763,-3.41589 -10.17,-1.87859 Z  m 3.3931,2.6508 .2602,1.13 c 1.22968,-0.018674 2.41492,0.459177 3.2875,1.32541 0.868956,0.871125 1.34936,2.05594 1.33235,3.28595 l 1.1321,.2616 c 0.092656,-1.62106 -0.510054,-3.20479 -1.65715,-4.35448 -1.15122,-1.14326 -2.73486,-1.74272 -4.35496,-1.64849 Z  m -8.5617,9.7176 4.8437,4.8415 1.6146,-1.6138 -4.8437,-4.8415 Z " class="ColorScheme-Text"/>
</svg>
