<svg width="24" version="1.1" xmlns="http://www.w3.org/2000/svg" viewBox="0 0 24 24" height="24" xmlns:xlink="http://www.w3.org/1999/xlink">
<defs>
<linearGradient id="linearGradient2541">
<stop offset="0" style="stop-color:#fee964"/>
<stop offset="1" style="stop-color:#fee964;stop-opacity:0"/>
</linearGradient>
<linearGradient id="linearGradient3737">
<stop offset="0" style="stop-color:#fff"/>
<stop offset="1" style="stop-color:#fff;stop-opacity:0"/>
</linearGradient>
<radialGradient fx="16.086679" fy="13.970486" cx="16.086679" cy="13.970486" r="1.767767" id="radialGradient2547" xlink:href="#linearGradient2541" gradientUnits="userSpaceOnUse"/>
<radialGradient fx="13.611806" fy="11.584001" cx="13.611806" cy="11.584001" gradientTransform="matrix(1.952381,0,0,1.952381,-12.96362,-11.03238)" r="1.8561553" id="radialGradient2561" xlink:href="#linearGradient3737" gradientUnits="userSpaceOnUse"/>
<radialGradient fx="16.086679" fy="13.970486" cx="16.086679" cy="13.970486" r="1.767767" id="radialGradient2559" xlink:href="#linearGradient2541" gradientUnits="userSpaceOnUse"/>
<radialGradient fx="13.611806" fy="11.584001" cx="13.611806" cy="11.584001" gradientTransform="matrix(1.952381,0,0,1.952381,-12.96362,-11.03238)" r="1.8561553" id="radialGradient2529" xlink:href="#linearGradient3737" gradientUnits="userSpaceOnUse"/>
<radialGradient fx="16.086679" fy="13.970486" cx="16.086679" cy="13.970486" r="1.767767" id="radialGradient2582" xlink:href="#linearGradient2541" gradientUnits="userSpaceOnUse"/>
<radialGradient fx="13.611806" fy="11.584001" cx="13.611806" cy="11.584001" gradientTransform="matrix(1.952381,0,0,1.952381,-12.96362,-11.03238)" r="1.8561553" id="radialGradient2584" xlink:href="#linearGradient3737" gradientUnits="userSpaceOnUse"/>
<radialGradient fx="16.086679" fy="13.970486" cx="16.086679" cy="13.970486" r="1.767767" id="radialGradient2569" xlink:href="#linearGradient2541" gradientUnits="userSpaceOnUse"/>
<radialGradient fx="13.611806" fy="11.584001" cx="13.611806" cy="11.584001" gradientTransform="matrix(1.952381,0,0,1.952381,-12.96362,-11.03238)" r="1.8561553" id="radialGradient2571" xlink:href="#linearGradient3737" gradientUnits="userSpaceOnUse"/>
</defs>
<path style="color:#4d4d4d" d="m 3,4 v 13 h 7 v 1 H 8 v 2 h 8 v -2 h -2 v -1 h 7 V 4 Z M 4,5 H 20 V 16 H 4 Z"/>
<path style="opacity:.5;fill:#fff;-inkscape-stroke:none;color:#000;stroke-width:1.177" d="m 2,3 v 15 h 8 V 17 H 3 V 4 h 18 v 13 h -7 v 1 h 8 V 3 Z m 5,15 v 3 h 10 v -3 h -1 v 2 H 8 v -2 z"/>
<path style="fill:#2b366f;stroke-width:2.171" d="M 4,5 H 20 V 16 H 4 Z"/>
<path style="fill:#7fff2a;stroke-width:.53" d="m 11,18 h 2 v 1 h -2 z"/>
<g style="color:#000" transform="matrix(1.2654638,0,0,1.2654638,1.6807326,2.5180938)">
<path style="fill:#fe6" d="M 12.5375,3.6112 C 13.278267,7.09656 11.07794,9.12035 7.45806,7.09381 7.736313,8.16039 8.46381,9.08193 9.56678,9.44523 11.2921,10.013526 13.28043,9.081249 13.69846,7.27806 14.039298,5.80783 13.479084,4.37923 12.53749,3.6112 Z"/>
<g transform="matrix(0.45967866,0,0,0.48378233,-2.369378,-0.94304512)">
<circle cx="16.086679" cy="13.970486" style="fill:url(#radialGradient2547);stroke-width:2" r="1.767767" transform="translate(-2.474874,-2.386485)"/>
<path style="fill:url(#radialGradient2529)" d="m 16.9706,11.584 -3.04,.267 -.3188,3.0917 -.267,-3.04 -3.0917,-.3188 3.04,-.267 .3188,-3.0917 .267,3.04 z "/>
</g>
<g transform="matrix(0.2903234,0,0,0.30554676,3.5925767,0.86507192)">
<circle cx="16.086679" cy="13.970486" style="fill:url(#radialGradient2559);stroke-width:2" r="1.767767" transform="translate(-2.474874,-2.386485)"/>
<path style="fill:url(#radialGradient2561)" d="m 16.9706,11.584 -3.04,.267 -.3188,3.0917 -.267,-3.04 -3.0917,-.3188 3.04,-.267 .3188,-3.0917 .267,3.04 z "/>
</g>
<g transform="matrix(0.2903234,0,0,0.30554676,2.0486292,3.8155614)">
<circle cx="16.086679" cy="13.970486" style="fill:url(#radialGradient2569);stroke-width:2" r="1.767767" transform="translate(-2.474874,-2.386485)"/>
<path style="fill:url(#radialGradient2571)" d="m 16.9706,11.584 -3.04,.267 -.3188,3.0917 -.267,-3.04 -3.0917,-.3188 3.04,-.267 .3188,-3.0917 .267,3.04 z "/>
</g>
<g transform="matrix(0.2903234,0,0,0.30554676,-0.30792602,4.6280129)">
<circle cx="16.086679" cy="13.970486" style="fill:url(#radialGradient2582);stroke-width:2" r="1.767767" transform="translate(-2.474874,-2.386485)"/>
<path style="fill:url(#radialGradient2584)" d="m 16.9706,11.584 -3.04,.267 -.3188,3.0917 -.267,-3.04 -3.0917,-.3188 3.04,-.267 .3188,-3.0917 .267,3.04 z "/>
</g>
</g>
</svg>
