<svg width="24" version="1.1" xmlns="http://www.w3.org/2000/svg" viewBox="0 0 24 24" height="24">
<path style="color:#4d4d4d" d="m 1,2 v 16 h 9 v 1 H 7 v 2 h 10 v -2 h -3 v -1 h 9 V 2 Z M 2,3 H 22 V 17 H 2 Z"/>
<path style="opacity:.5;fill:#fff;-inkscape-stroke:none;color:#000;stroke-width:1.177" d="M 0,1 V 19 H 10 V 18 H 1 V 2 h 22 v 16 h -9 v 1 H 24 V 1 Z m 6,18 v 3 h 12 v -3 h -1 v 2 H 7 v -2 z"/>
<path style="fill:#3880d9;stroke-width:2.171" d="M 2,3 H 22 V 17 H 2 Z"/>
<path style="fill:#7fff2a;stroke-width:.53" d="m 11,19 h 2 v 1 h -2 z"/>
<path style="opacity:.93;fill:#fefefe;stroke-width:.281" d="m 11.6198,4.8194 c 0.161637,0.722269 0.458275,1.23337 0.609175,1.96278 0.03487,0.168562 -0.06216,0.264836 -0.24191,0.192429 -0.90105,-0.362952 0.188851,-1.2664 -0.59048,-1.42178 -0.284699,-0.056761 -0.746076,0.190763 -0.889572,0.436538 -0.289551,0.495928 0.512539,0.446847 0.577001,0.870843 0.08804,0.579069 -0.799203,0.4186 -1.06412,0.150681 -0.892129,-0.902229 -1.90694,-3.03205 -2.97659,-1.69667 -0.786268,0.981577 1.43149,1.91753 2.26407,2.14421 0.302771,0.082434 0.516576,0.178844 0.448636,0.366165 -0.120316,0.331726 -0.605661,0.766616 -0.88289,0.523632 -0.339607,-0.297657 -0.747713,-0.349318 -0.92594,-0.078295 -0.174812,0.265828 0.046289,0.374028 0.281336,0.48712 0.302741,0.123588 0.320904,0.200293 0.263902,0.48932 -0.306935,0.0269519 -0.618977,-0.192076 -0.829093,-0.334276 -0.728085,-0.679126 -1.95894,-1.80354 -2.52247,-0.238612 -0.397289,1.54128 1.69578,2.08467 2.58295,1.82533 0.47067,-0.13759 0.981273,-0.211941 0.857682,0.179235 -0.599657,1.89798 -2.94703,0.45731 -3.53629,1.75165 -0.141803,0.311476 0.06128,0.877193 0.453033,1.12049 1.42685,0.886125 1.79641,-0.824001 3.02169,-1.30742 0.497878,-0.196431 0.954104,0.51015 0.848888,0.572888 -1.51949,0.906007 -2.07294,3.57629 -0.163839,3.41644 1.2952,-0.108452 0.202154,-2.41627 1.25134,-2.78197 0.493228,-0.17192 1.31993,-0.301643 1.2514,0.31358 -0.09642,0.865608 -0.417961,3.07394 0.9335,2.69491 1.24266,-0.34852 0.909009,-1.28482 -0.0022,-2.37732 -0.375731,-0.45049 0.92107,-0.691935 1.0798,-0.522307 0.483381,0.516565 1.04291,1.21348 1.6142,0.679549 1.34163,-1.25389 -1.43489,-0.623152 -1.05744,-1.41213 0.107217,-0.224119 0.744123,-0.753236 1.39062,-0.430785 0.631057,0.31475 0.655103,0.813768 1.13808,1.3426 0.332752,0.364353 1.23189,0.332762 1.76704,-0.04618 1.1074,-0.784158 -0.164108,-2.25114 -1.17987,-2.26186 -0.311574,-0.0033 -0.578084,0.05216 -0.848887,0.04618 -0.550005,-0.01214 -1.21789,-0.844009 -0.923659,-1.05341 0.459665,-0.326832 1.56071,0.106814 1.37449,-0.670751 -0.151107,-0.630996 -0.744139,-0.647961 -1.18865,-0.334276 -0.220999,0.155954 -0.430037,-0.438795 -0.374962,-0.655359 0.039769,-0.156378 0.247693,-0.285655 0.560793,-0.456333 0.621568,-0.338827 1.03777,0.406255 1.64609,0.372762 1.42721,-0.0785814 1.88354,-1.8268 0.456331,-2.18269 -1.31875,-0.328843 -2.08436,1.55881 -2.9975,1.56142 -0.38702,0.0011 -0.370095,-0.665169 -0.140748,-0.819198 0.619362,-0.415964 1.11904,-0.760126 0.796106,-1.26124 -0.202517,-0.31425 -0.659289,-0.447105 -0.879677,-0.222117 -0.425541,0.434428 -0.215983,0.87867 -0.961045,0.956648 -0.265848,0.0278242 -0.430183,-0.0205291 -0.556393,-0.203425 -0.627814,-0.909771 0.434304,-1.53688 0.116557,-2.4323 -0.474817,-1.33806 -2.12381,-0.477434 -1.85062,0.743319 Z "/>
</svg>
