<svg version="1.1" xmlns="http://www.w3.org/2000/svg" viewBox="0 0 24 24">
<defs id="defs3051">
<style type="text/css" id="current-color-scheme">
.ColorScheme-Text {
color:#4d4d4d;
}
</style>
</defs>
<path style="fill:currentColor;fill-opacity:1;stroke:none" d="m 4,4 v 16 h 16 v -16 h -16 z  m 1,4 h 14 v 11 h -14 v -11 z  m 6.7031,.5 c -0.211483,-0.0023511 -0.498262,0.152508 -0.921875,0.271484 -0.944947,0.262028 -1.27776,0.0878726 -1.03125,1.04883 l .1816,.709 c -0.0643359,0.05717 -0.154413,0.12447 -0.21875,0.181641 -0.267981,0.203563 -0.479901,0.470966 -0.666016,0.728515 l -.7109,-.1836 c -0.962412,-0.249487 -0.815623,0.162713 -1.05859,0.986329 -0.297819,0.968512 -0.572367,1.10969 0.402344,1.36914 l .748,.1992 c 0.016964,0.319035 0.0942425,0.642217 0.232422,0.96875 l -.6133,.5 c -0.789691,0.642516 -0.453158,0.69675 0.115234,1.38867 0.615411,0.791426 0.583784,1.00859 1.3457,0.388672 l .6133,-.5 c 0.444944,0.284363 0.994285,0.465606 1.52539,0.535156 l .1797,.7383 c 0.247148,1.01528 0.545355,0.636389 1.39258,0.398438 0.944948,-0.262029 1.27776,-0.087855 1.03125,-1.04883 l -.1816,-.709 c 0.06434,-0.05717 0.154412,-0.124472 0.21875,-0.181641 0.267981,-0.203563 0.479902,-0.470966 0.666016,-0.728515 l .7109,.1836 c 0.922927,0.370749 0.815616,-0.162711 1.05859,-0.986329 0.297819,-0.968512 0.572367,-1.10969 -0.402344,-1.36914 l -.748,-.1992 c -0.01696,-0.319036 -0.094245,-0.64221 -0.232422,-0.96875 l .6133,-.5 c 0.78969,-0.642515 0.453159,-0.696753 -0.115234,-1.38867 -0.615412,-0.791427 -0.583784,-1.00859 -1.3457,-0.388672 l -.6133,.5 c -0.444944,-0.284363 -0.994292,-0.465604 -1.52539,-0.535156 l -.1797,-.7383 c -0.123573,-0.507638 -0.25922,-0.667571 -0.470703,-0.669922 z  m .1738,3.4883 c 0.420286,-0.001111 0.838895,0.174104 1.13281,0.515625 0.497527,0.617836 0.416527,1.54314 -0.1875,2.06836 -0.614656,0.500101 -1.53412,0.417695 -2.05664,-0.189454 -0.522516,-0.607151 -0.416525,-1.54119 0.1875,-2.06641 0.268912,-0.218795 0.596939,-0.32726 0.923828,-0.328125 z " class="ColorScheme-Text"/>
</svg>
