<svg width="24" version="1.1" xmlns="http://www.w3.org/2000/svg" viewBox="0 0 24 24" height="24">
<g transform="matrix(0.23194444,0,0,0.17793854,-8.188408,-3.2497352)">
<rect width="72" x="51.039845" y="46.362835" height="35" style="fill:#00c3ff;fill-rule:evenodd"/>
<g style="fill-rule:evenodd" transform="matrix(1.0286749,0,0,1.0409543,129.48951,49.498772)">
<g>
<path style="fill:#68a5bb" d="M -74.8942,54.3908 V 30.7363 l 68.3432,-4.2532 -26.4662,15.3848 -41.877,12.523 z"/>
<path style="fill:#fbf7e5" d="m -74.6269,54.183 33.3066,-13.5037 c 8.69555,-4.15499 -3.60994,-3.53175 -0.02941,-7.89449 2.3383,-3.18549 34.4459,-4.77824 34.5921,-5.81699 l -4.737,27.977 c 0,0 -62.9131,2.28525 -63.1323,-0.761752 z"/>
<path style="fill:#fff" d="m -43.3614,25.0981 c 0.445377,-1.06183 1.73697,-1.108 2.73907,-1.73125 1.0021,-0.623249 2.50525,-1.84666 3.27353,-2.00825 0.768275,-0.161584 0.82395,2.05441 2.07101,1.8005 1.24705,-0.253916 4.24222,-3.07008 5.41134,-3.324 1.16911,-0.253917 1.33613,1.50041 1.60336,1.8005 0.267222,0.300083 4.06623,0.578199 4.74327,-1.2465 0.668066,-1.8005 4.92099,0.44867 6.41344,-1.73125 1.46974,-2.14675 2.60546,1.86975 2.60546,1.86975 0,0 7.41554,2.83925 3.0731,4.08574 -4.34243,1.2465 -9.3418,-0.611707 -10.355,-0.415499 -1.01323,0.196208 -5.19978,0.496291 -6.21301,0.692499 -1.01323,0.196208 -4.27562,0.553999 -5.61176,-0.277 -1.30758,-0.813242 -10.1749,1.48866 -9.75377,0.48475 z"/>
<path style="fill:#efe9c7" d="m -74.6269,54.3215 46.6978,-13.019 c 7.94999,-4.15499 -10.8227,-4.63974 -7.54915,-9.00249 2.13781,-3.18549 30.397,-5.95549 28.6601,-5.19374 l -.1336,29.0157 c 0,0 -67.4747,1.2465 -67.6751,-1.8005 z "/>
<path style="fill:#1a6e8e" d="m -75.0923,32.3001 .1336,-3.588 68.341,-2.2289 -68.4746,5.817 z "/>
</g>
<g style="stroke:#000">
<path style="fill:#503525;stroke-width:.053" d="m -12.1627,26.9678 .8685,-.7617 .5199,-.7835 4.1753,-.238 -.2191,2.9605 -4.5429,-.1385 -.8017,-1.0387 z "/>
</g>
<g>
<path style="fill:#fff" d="m -69.2222,26.5523 c 1.0024,0.620891 4.36884,-0.09422 6.26862,0.06925 3.73379,0.32128 11.2667,0.0939 11.3081,-0.06925 0.04055,-0.160017 -7.46565,-0.08971 -11.0623,-0.900249 -3.57336,-0.805294 -6.96513,-2.6315 -10.4477,-3.94724 0,0 -1.78226,4.08574 -1.53643,4.08574 0.245834,0 5.2755,0.641472 5.46968,0.761749 z"/>
<path style="fill:#28b433" d="m -75.4915,56.2475 43.3355,-7.2707 c 7.95,-2.95966 5.70117,-2.52604 11.4725,-6.19005 3.38671,-3.27052 7.0523,-0.458909 13.8655,-6.8152 l -.1336,20.2232 c 0,0 -70.549,0.108989 -68.5398,0.05275 z "/>
</g>
</g>
</g>
<path style="color:#4d4d4d" d="m 3,4 v 13 h 7 v 1 H 8 v 2 h 8 v -2 h -2 v -1 h 7 V 4 Z M 4,5 H 20 V 16 H 4 Z"/>
<path style="opacity:.5;fill:#fff;-inkscape-stroke:none;color:#000;stroke-width:1.177" d="m 2,3 v 15 h 8 V 17 H 3 V 4 h 18 v 13 h -7 v 1 h 8 V 3 Z m 5,15 v 3 h 10 v -3 h -1 v 2 H 8 v -2 z"/>
<path style="fill:#7fff2a;stroke-width:.53" d="m 11,18 h 2 v 1 h -2 z"/>
</svg>
