<svg width="24" version="1.1" xmlns="http://www.w3.org/2000/svg" viewBox="0 0 24 24" height="24">
<defs>
<linearGradient gradientTransform="matrix(0.46860909,0,0,0.46860909,-4.434943,-5.1288106)" id="m" y1="21.6146" x1="34.0718" y2="59.0033" x2="34.0718" gradientUnits="userSpaceOnUse">
<stop offset="0" style="stop-color:#ffe2d9"/>
<stop offset="1" style="stop-color:#c98350"/>
</linearGradient>
</defs>
<path style="color:#4d4d4d" d="M 1,2 V 18 H 23 V 2 Z M 2,3 H 22 V 17 H 2 Z"/>
<path style="opacity:.5;fill:#fff;-inkscape-stroke:none;color:#000;stroke-width:1.177" d="M 0,1 V 19 H 24 V 1 Z M 1,2 H 23 V 18 H 1 Z"/>
<path style="fill:#3880d9;stroke-width:2.171" d="M 2,3 H 22 V 17 H 2 Z"/>
<g style="stroke-width:.468">
<path style="fill:#805333" d="m 11.1962,22.9248 c 1.97678,0.263546 4.43688,0.238663 4.72538,0.234726 0.01903,0 0.03772,0 0.05675,0 1.79337,-0.01143 3.18906,-1.09716 3.40814,-2.79502 l .5463,-3.7654 c 0.468611,-2.81165 -1.64013,-3.51456 -2.34304,-2.10874 l -4.7055,4.1829 -4.6667,-3.0113 c -3.19497,-3.19502 -4.21751,-1.10861 -4.21751,-1.10861 2.04322,2.81523 3.6816,7.90344 7.19616,8.37204 z "/>
<path style="fill:url(#m)" d="m 11.1962,22.2848 c 1.97678,0.263546 4.43688,0.238663 4.72538,0.234727 0.01903,0 0.03772,0 0.05675,0 1.79337,-0.01143 3.18906,-1.09715 3.40814,-2.79502 l .5463,-3.7654 c 0.468611,-2.81166 -1.64013,-3.51456 -2.34304,-2.10874 0,-1.64013 -1.87443,-2.57735 -2.81166,-1.17152 0,-1.40583 -1.87443,-2.34304 -2.81166,-0.937218 v -5.1547 c 0,-1.87443 -2.81165,-2.34304 -2.81165,0 v 9.60648 c 0,0 -0.470813,-0.705117 -0.937218,-1.17152 -3.19497,-3.19502 -4.21751,-0.468611 -4.21751,-0.468611 1.87443,1.40583 3.6816,7.26344 7.19616,7.73204 z "/>
</g>
</svg>
