<svg width="24" version="1.1" xmlns="http://www.w3.org/2000/svg" viewBox="0 0 24 24" height="24">
<path style="color:#4d4d4d" d="m 2,3 v 15 h 8 v 1 H 8 v 2 h 8 v -2 h -2 v -1 h 8 V 3 Z M 3,4 H 21 V 17 H 3 Z"/>
<path style="opacity:.5;fill:#fff" d="m 1,2 v 17 h 9 V 18 H 2 V 3 h 20 v 15 h -8 v 1 h 9 V 2 Z m 6,17 v 3 h 10 v -3 h -1 v 2 H 8 v -2 z"/>
<path style="fill:#3880d9" d="M 3,4 H 21 V 17 H 3 Z"/>
<path style="fill:#7fff2a" d="m 11,19 h 2 v 1 h -2 z"/>
<path style="opacity:.9;fill:#fff" d="m 11,6 v 5 H 7 l 5,4 5,-4 H 13 V 6 Z"/>
</svg>
