<svg width="24" version="1.1" xmlns="http://www.w3.org/2000/svg" viewBox="0 0 24 24" height="24">
<path style="color:#4d4d4d" d="m 2,3 v 15 h 8 v 1 H 8 v 2 h 8 v -2 h -2 v -1 h 8 V 3 Z M 3,4 H 21 V 17 H 3 Z"/>
<path style="opacity:.5;fill:#fff" d="m 1,2 v 17 h 9 V 18 H 2 V 3 h 20 v 15 h -8 v 1 h 9 V 2 Z m 6,17 v 3 h 10 v -3 h -1 v 2 H 8 v -2 z"/>
<path style="fill:#3880d9;stroke-width:2.171" d="M 3,4 H 21 V 17 H 3 Z"/>
<path style="fill:#7fff2a;stroke-width:.53" d="m 11,19 h 2 v 1 h -2 z"/>
<path style="fill:#e5e5e5" d="M 14,6 13,7 H 6 v 7 H 18 V 6 Z"/>
<path style="fill:#48b400" d="M 17,8 H 15 V 7 h 2 z"/>
<path style="fill:#103056;stroke-width:1.333" d="m 14,10.5001 c 0,1.1046 -0.895352,1.99991 -2,1.99991 -1.10455,0 -2,-0.895303 -2,-1.99991 0,-1.10478 0.89544,-2.00009 2,-2.00009 1.10464,0 2,0.895304 2,2.00009 z "/>
</svg>
