<svg width="24" version="1.1" xmlns="http://www.w3.org/2000/svg" viewBox="0 0 24 24" height="24">
<path style="color:#4d4d4d" d="m 3,4 v 13 h 7 v 1 H 8 v 2 h 8 v -2 h -2 v -1 h 7 V 4 Z M 4,5 H 20 V 16 H 4 Z"/>
<path style="opacity:.5;fill:#fff" d="m 2,3 v 15 h 8 V 17 H 3 V 4 h 18 v 13 h -7 v 1 h 8 V 3 Z m 5,15 v 3 h 10 v -3 h -1 v 2 H 8 v -2 z"/>
<path style="fill:#3880d9;stroke-width:2.171" d="M 4,5 H 20 V 16 H 4 Z"/>
<path style="fill:#7fff2a;stroke-width:.53" d="m 11,18 h 2 v 1 h -2 z"/>
<path style="fill:#e5e5e5" d="m 14,7 -1,1 h -6 v 5 h 10 v -6 Z "/>
<path style="fill:#48b400" d="M 16,9 H 14 V 8 h 2 z"/>
<path style="fill:#103056" d="m 14,10.5 c 0,0.828411 -0.671514,1.499861 -1.5,1.499861 C 11.671589,11.999861 11,11.328415 11,10.5 11,9.671457 11.67158,9 12.5,9 13.328477,9 14,9.671447 14,10.5 Z"/>
</svg>
