<svg width="24" version="1.1" xmlns="http://www.w3.org/2000/svg" viewBox="0 0 24 24" height="24">
<path style="color:#4d4d4d" d="m 1,2 v 16 h 9 v 1 H 7 v 2 h 10 v -2 h -3 v -1 h 9 V 2 Z M 2,3 H 22 V 17 H 2 Z"/>
<path style="opacity:.5;fill:#fff" d="M 0,1 V 19 H 10 V 18 H 1 V 2 h 22 v 16 h -9 v 1 H 24 V 1 Z m 6,18 v 3 h 12 v -3 h -1 v 2 H 7 v -2 z"/>
<path style="fill:#3880d9;stroke-width:2.171" d="M 2,3 H 22 V 17 H 2 Z"/>
<path style="fill:#7fff2a;stroke-width:.53" d="m 11,19 h 2 v 1 h -2 z"/>
<path style="fill:#e5e5e5" d="M 15,6 14,7 H 5 v 7 H 19 V 6 Z"/>
<path style="fill:#48b400" d="M 18,8 H 16 V 7 h 2 z"/>
<path style="fill:#103056;stroke-width:1.333" d="m 13.5,10.5001 c 0,1.1046 -0.895352,1.99991 -2,1.99991 -1.10455,0 -2,-0.895303 -2,-1.99991 0,-1.10478 0.89544,-2.00009 2,-2.00009 1.10464,0 2,0.895304 2,2.00009 z"/>
</svg>
