<svg width="24" version="1.1" xmlns="http://www.w3.org/2000/svg" height="24" viewBox="0 0 24 24">
<g style="stroke-width:1.955">
<path style="fill:#19445f" d="M 12,1 C 5.934523,1 1,5.934523 1,12 1,18.065477 5.934523,23 12,23 18.065477,23 23,18.065477 23,12 23,5.934523 18.065477,1 12,1 Z"/>
<path style="fill:#0b1d28" d="m 12,2.4666 c -5.25671,0 -9.53334,4.27662 -9.53334,9.53334 0,5.25671 4.27662,9.53334 9.53334,9.53334 5.25671,0 9.53334,-4.27662 9.53334,-9.53334 0,-5.25671 -4.27662,-9.53334 -9.53334,-9.53334"/>
</g>
<g style="fill:#afd1e9;stroke-width:1.466">
<path d="m 10.7439,2.7057 4.4824,7.9863 3.2497,-5.473 c -1.88079,-1.68911 -4.34254,-2.85564 -7.73211,-2.51328 Z "/>
<path d="m 19.421,6.3082 -4.7921,7.8882 H 21.1 C 21.866391,10.771206 20.824238,8.1467353 19.421,6.3082 Z"/>
<path d="m 9.4894,2.9301 c -2.67567,0.80948 -4.92471,2.74944 -6.0688,5.48644 l 9.2342,-.0065 z "/>
<path d="m 11.8627,15.5064 2.8594,5.3193 c 2.58607,-0.703625 4.67218,-2.54157 5.81628,-5.27858 z "/>
<path d="m 9.0356,13.4981 -3.2684,5.4245 c 2.43093,2.00139 4.80402,2.61771 7.31725,2.36893 z "/>
<path d="m 4.5269,17.6384 4.8514,-7.8847 h -6.49801 c -0.788986,2.9894 0.201761,5.94497 1.64662,7.88461 z "/>
</g>
</svg>
