<svg width="24" version="1.1" xmlns="http://www.w3.org/2000/svg" viewBox="0 0 24 24" height="24">
<defs id="defs3051">
<style type="text/css" id="current-color-scheme">
.ColorScheme-Text {
color:#4d4d4d;
}
</style>
</defs>
<path style="fill:currentColor;fill-opacity:1;stroke:none" id="path4491" d="m 11,3 c -0.67521,0.004 -1.34721,0.092995 -2,0.265625 v 1.0332 0.011719 c -0.456193,0.136396 -0.897279,0.318982 -1.31641,0.544922 l -.0078,-.0078 -.7324,-.7324 c -1.16695,0.68805 -2.14008,1.66118 -2.82812,2.82812 l .5215,.5215 .2188,.2188 c -0.226613,0.419048 -0.409852,0.860139 -0.546875,1.31641 h -0.013672 -1.03516 c -0.17062,0.65304 -0.257896,1.32505 -0.259766,2 0.004,0.67521 0.093005,1.34721 0.265625,2 h 1.0332 0.011719 c 0.136396,0.456193 0.318982,0.897279 0.544922,1.31641 l -.2188,.2188 -.5215,.5215 c 0.68805,1.16696 1.66116,2.14007 2.82812,2.82812 l .5215,-.5215 .2188,-.2188 c 0.419049,0.226612 0.860138,0.409854 1.31641,0.546875 v 0.308594 0.740234 c 0.65304,0.17062 1.32504,0.257896 2,0.259766 0.335,-0.002 0.66853,-0.02661 1,-0.07031 v -1.00586 c -0.330451,0.0488 -0.66509,0.07497 -1,0.07617 -0.33545,-0.0005 -0.66894,-0.02592 -1,-0.07422 v -0.0039 -0.921875 -0.08984 c -0.890757,-0.150653 -1.736,-0.5005 -2.47266,-1.02345 l -.0625,.0625 -.6504,.6504 -.0039,.0039 c -0.536296,-0.402053 -1.01144,-0.878676 -1.41211,-1.41602 l .002,-.002 .6504,-.6504 .0645,-.0645 c -0.52475,-0.735547 -0.876605,-1.58015 -1.0293,-2.4707 h -0.085937 -0.919922 -0.00391 c -0.0488,-0.33045 -0.074972,-0.66509 -0.076172,-1 0.0005,-0.33545 0.025919,-0.66894 0.074219,-1 h 0.00391 0.921875 0.089844 c 0.150645,-0.890756 0.500491,-1.736 1.02344,-2.47266 l -.0625,-.0625 -.6504,-.6504 -.0039,-.0039 c 0.402074,-0.536296 0.878676,-1.01144 1.41602,-1.41211 l .002,.002 .6504,.6504 .0645,.0645 c 0.735561,-0.524757 1.58014,-0.876612 2.4707,-1.0293 v -0.085937 -0.919922 -0.00391 c 0.330439,-0.0488 0.665089,-0.074972 1,-0.076172 0.335449,0.0005 0.668939,0.025919 1,0.074219 v 0.00391 0.921875 0.089844 c 0.890755,0.150645 1.736,0.500491 2.47266,1.02344 l .0625,-.0625 .6504,-.6504 .0039,-.0039 c 0.53631,0.40206 1.01143,0.878676 1.41211,1.41602 l -.002,.002 -.6504,.6504 -.0645,.0645 c 0.518572,0.797168 0.595704,0.693359 0.595704,0.693359 0,0 1.14216,-0.983693 1.4043,-1.2793 -0.68803,-1.16696 -1.66117,-2.14008 -2.82812,-2.82812 l -.7285,.7285 -.0117,.0117 c -0.419048,-0.226613 -0.860138,-0.409854 -1.31641,-0.546876 v -0.013672 -1.03516 c -0.65304,-0.17062 -1.32504,-0.257896 -2,-0.259766 z  m 5,7 v 5 h -3 l 4,6 4,-6 h -3 v -5 z " class="ColorScheme-Text"/>
</svg>
