<svg width="48" version="1.1" xmlns="http://www.w3.org/2000/svg" height="48">
<g style="stroke:none;color:#000">
<path style="fill:#bb8d51" id="path3020" d="m 5.968,8.021 4e-4,13.5877 c 4.31e-5,1.33783 1.09204,2.40625 2.4375,2.40625 l 19.1563,0 c 1.34546,0 2.43755,-1.06842 2.4375,-2.40625 L 29.9989,8.021 Z"/>
<path style="fill:#429cd6;fill-rule:evenodd" id="path1306" d="m 14.625,24.9996 c -0.641938,1.58363 -1.12796,3.06605 -1.28125,3.8125 -0.449645,2.18957 -0.433665,4.96588 1.53125,7.46875 1.34837,1.71753 3.77113,2.78125 6.53125,2.78125 h 8.59375 v 4.78125 c -0.0053,0.876222 0.722944,1.68383 1.59375,1.78125 0.12054,0.01251 0.254555,0.01249 0.375,0 0.361334,-0.03746 0.723652,-0.17001 1,-0.40625 l 7.6875,-7.0625 c 0.784567,-0.65183 0.845346,-2.02916 0.09375,-2.71875 l -7.7188,-7.7812 c -0.510023,-0.471543 -1.30199,-0.62412 -1.9375,-0.34375 -0.635503,0.280371 -1.09805,0.961658 -1.09375,1.65625 v 4.09375 h -7.1875 c -4.00137,-0.261715 -4.94692,-2.71587 -4.5625,-4.75 0.236971,-1.25392 0.546858,-2.35285 0.84375,-3.3125 h -4.46875 z "/>
</g>
<path style="opacity:.5;fill:#3a240f" id="path5008" d="m 21.5551,8.989 -5.8984,0 .0293,2.3135 .0655,10.7089 2.7675,-.2532 2.9412,-.2688 .0159,-2.8408 .0496,-7.3461 .0293,-2.3135 z "/>
<path style="fill:#d1c1a5" id="polygon120" d="m 21.5258,8.9269 -2.9492,-.216 -2.9492,.216 .0293,2.5562 .0655,10.0416 2.7675,-.2418 2.9412,-.2567 .0159,-2.7128 .0496,-6.8303 .0293,-2.5562 z "/>
<g style="stroke:none">
<g id="g4158" transform="translate(-5.4234295,6.6109731)">
<path style="opacity:.2;fill:#7f5731" id="rect4363" d="m 23.5134,2.3091 .4866,0 0,8.2799 -.4866,0 z "/>
<path style="opacity:.2;fill:#fff" id="rect4365" d="m 24,2.3091 .4866,0 0,8.2799 -.4866,0 z "/>
</g>
<path style="opacity:.55;fill-rule:evenodd;stroke-linecap:square;stroke-width:.3" id="rect4162" d="m 5.968,9 24.031,0 0,1 -24.031,0 z"/>
<path style="fill:#ccaa7d;color:#000" id="path4306" d="m 5.948,0 -3.9,9.021 31.904,0 L 30.052,0 Z"/>
</g>
</svg>
