<svg width="48" version="1.1" xmlns="http://www.w3.org/2000/svg" height="48">
<g style="mix-blend-mode:normal;font-family:sans-serif;text-decoration-style:solid;solid-color:#000000;white-space:normal;text-transform:none;text-decoration-color:#000000;text-indent:0;text-align:start;text-decoration-line:none;color:#000;image-rendering:auto;color-rendering:auto;fill-rule:evenodd;stroke-width:12;isolation:auto;stroke-linecap:round;color-interpolation:sRGB;solid-opacity:1;text-rendering:auto;line-height:normal;stroke:none;shape-rendering:auto" id="g4">
<path style="opacity:.6;fill:#fff;color-interpolation-filters:linearRGB" id="path4192" d="m 7.0999,42.4458 c -0.085028,-1.69209 0.613168,-3.33397 1.9082,-4.48735 l 16.4961,-15.12 16.4961,15.12 c 5.85547,5.36701 -2.44553,13.6699 -8.29492,8.30854 l -8.2012,-7.517 -8.2012,7.517 c -3.69563,3.48529 -9.95408,1.14143 -10.2031,-3.82118 z "/>
<path style="fill:#919191;color-interpolation-filters:linearRGB" id="path4137" d="m 5.6001,40.9631 c -0.085029,-1.68666 0.613167,-3.32328 1.9082,-4.47296 l 16.4961,-15.0715 16.4961,15.0715 c 5.85574,5.35004 -2.44573,13.6259 -8.29492,8.28189 l -8.2012,-7.4929 -8.2012,7.4929 c -3.69562,3.47411 -9.95408,1.13777 -10.2031,-3.80892 z "/>
<path style="opacity:.6;fill:#fff;color-interpolation-filters:linearRGB" id="path4156" d="m 7.0999,21.0272 c -0.085028,-1.69209 0.613168,-3.33397 1.9082,-4.48735 l 16.4961,-15.12 16.4961,15.12 c 5.85547,5.36701 -2.44553,13.6699 -8.29492,8.30854 l -8.2012,-7.517 -8.2012,7.517 c -3.69563,3.48529 -9.95408,1.14143 -10.2031,-3.82118 z "/>
<path style="fill:#919191;color-interpolation-filters:linearRGB" id="path4158" d="m 5.6001,19.5445 c -0.0850289,-1.68666 0.613167,-3.32328 1.9082,-4.47296 l 16.4961,-15.0715 16.4961,15.0715 c 5.85574,5.35004 -2.44573,13.6259 -8.29492,8.28189 l -8.2012,-7.4929 -8.2012,7.4929 c -3.69562,3.47411 -9.95408,1.13777 -10.2031,-3.80892 z "/>
</g>
</svg>
