<svg width="48" version="1.1" xmlns="http://www.w3.org/2000/svg" height="48">
<g style="mix-blend-mode:normal;font-family:sans-serif;text-decoration-style:solid;solid-color:#000000;white-space:normal;text-transform:none;text-decoration-color:#000000;text-indent:0;text-align:start;text-decoration-line:none;color:#000;image-rendering:auto;color-rendering:auto;fill-rule:evenodd;stroke-width:12;isolation:auto;stroke-linecap:round;color-interpolation:sRGB;solid-opacity:1;text-rendering:auto;line-height:normal;stroke:none;shape-rendering:auto" id="g4">
<path style="opacity:.6;fill:#fff;color-interpolation-filters:linearRGB" id="path4140" d="m 7.3959,7.0894 c -5.1083,-0.116864 -7.76451,6.37073 -4.17986,10.209 l 7.4426,8.2012 -7.4426,8.2012 c -5.30755,5.84853 2.91194,14.1509 8.22633,8.29492 l 14.9704,-16.4961 -14.9705,-16.4961 c -1.04786,-1.18849 -2.50763,-1.87899 -4.04646,-1.91406 Z "/>
<path style="fill:#919191;color-interpolation-filters:linearRGB" id="path4137" d="m 5.9354,5.5898 c -5.14272,-0.116864 -7.81682,6.37073 -4.20802,10.209 l 7.4927,8.2012 -7.4927,8.2012 c -5.34405,5.84938 2.93162,14.1508 8.28174,8.29492 l 15.0713,-16.4961 -15.0713,-16.4961 c -1.05492,-1.18849 -2.52452,-1.87899 -4.07372,-1.91406 Z "/>
<path style="opacity:.6;fill:#fff;color-interpolation-filters:linearRGB" id="path4156" d="m 28.9832,7.0894 c -5.1083,-0.116864 -7.76451,6.37073 -4.17986,10.209 l 7.4426,8.2012 -7.4426,8.2012 c -5.30755,5.84853 2.91194,14.1509 8.22633,8.29492 l 14.9704,-16.4961 -14.9705,-16.4961 c -1.04786,-1.18849 -2.50763,-1.87899 -4.04646,-1.91406 Z "/>
<path style="fill:#919191;color-interpolation-filters:linearRGB" id="path4158" d="m 27.5226,5.5898 c -5.14271,-0.116854 -7.81681,6.37073 -4.20801,10.209 l 7.4927,8.2012 -7.4927,8.2012 c -5.34405,5.84938 2.93162,14.1508 8.28174,8.29492 l 15.0713,-16.4961 -15.0713,-16.4961 c -1.05492,-1.18849 -2.52452,-1.87899 -4.07372,-1.91406 Z "/>
</g>
</svg>
