<svg width="48" version="1.1" xmlns="http://www.w3.org/2000/svg" height="48">
<g style="mix-blend-mode:normal;font-family:sans-serif;text-decoration-style:solid;solid-color:#000000;white-space:normal;text-transform:none;text-decoration-color:#000000;text-indent:0;text-align:start;text-decoration-line:none;color:#000;image-rendering:auto;color-rendering:auto;fill-rule:evenodd;stroke-width:12;isolation:auto;stroke-linecap:round;color-interpolation:sRGB;solid-opacity:1;text-rendering:auto;line-height:normal;stroke:none;shape-rendering:auto" id="g4">
<path style="opacity:.6;fill:#fff;color-interpolation-filters:linearRGB" id="path4140" d="m 42.4933,7.0953 c -1.67777,-0.085026 -3.30576,0.613169 -4.44938,1.9082 l -14.992,16.4961 14.992,16.4961 c 5.32234,5.85632 13.5539,-2.44593 8.23824,-8.29492 l -7.4534,-8.2012 7.4534,-8.2012 c 3.4558,-3.69562 1.13178,-9.95407 -3.78884,-10.2031 z "/>
<path style="fill:#919191;color-interpolation-filters:linearRGB" id="path4137" d="m 41.0965,5.5957 c -1.68666,-0.0850289 -3.32328,0.613167 -4.47296,1.9082 l -15.0715,16.4961 15.0715,16.4961 c 5.35004,5.85574 13.6259,-2.44573 8.28189,-8.29492 l -7.4929,-8.2012 7.4929,-8.2012 c 3.47411,-3.69562 1.13777,-9.95408 -3.80892,-10.2031 z "/>
<path style="opacity:.6;fill:#fff;color-interpolation-filters:linearRGB" id="path4156" d="m 20.9412,7.0953 c -1.67777,-0.085026 -3.30576,0.613169 -4.44938,1.9082 l -14.992,16.4961 14.992,16.4961 c 5.32234,5.85632 13.5539,-2.44593 8.23824,-8.29492 l -7.4534,-8.2012 7.4534,-8.2012 c 3.4558,-3.69562 1.13178,-9.95407 -3.78884,-10.2031 z "/>
<path style="fill:#919191;color-interpolation-filters:linearRGB" id="path4158" d="m 19.5445,5.5957 c -1.68666,-0.0850289 -3.32328,0.613167 -4.47296,1.9082 l -15.0715,16.4961 15.0715,16.4961 c 5.35004,5.85574 13.6259,-2.44573 8.28189,-8.29492 l -7.4929,-8.2012 7.4929,-8.2012 c 3.47411,-3.69562 1.13777,-9.95408 -3.80892,-10.2031 z "/>
</g>
</svg>
