<svg width="48" version="1.1" xmlns="http://www.w3.org/2000/svg" height="48">
<path style="opacity:.5" id="path4201" d="m 5.3,6.6292 0,36.7438 38.8357,0 L 44.3,6.6272 31.5712,6.6291 Z"/>
<path style="fill:#ecf0f1" id="rect4090" d="m 4.5,5.6291 0,36.7438 38.8357,0 L 43.5,5.6271 30.7712,5.629 Z"/>
<g style="stroke:none">
<g style="fill:#5c696c">
<path id="path4302" d="m 6,15 36,0 0,3 -36,0 z "/>
<path id="path4298" d="m 6,21 36,0 0,3 -36,0 z "/>
<path id="path4296" d="m 6,27 36,0 0,3 -36,0 z "/>
<path id="path4778" d="m 6,33 36,0 0,3 -36,0 z "/>
<path id="path4157" d="m 6,9 36,0 0,3 -36,0 z "/>
</g>
<g style="stroke-width:1.467;stroke-linejoin:round;fill-rule:evenodd" id="g4144" transform="matrix(1.1078181,0,0,1.1078181,-0.6724027,-0.6067032)">
<path style="opacity:.2" id="path4199" d="m 4.7927,5.6374 18.1681,0 c 2.39324,0 3.16318,0.716893 3.16318,2.78476 v 27.7941 l -8.3519,-9.4568 -8.4586,9.5586 .0714,-27.9172 c 0,-2.23969 -3.19549,-2.76336 -4.59211,-2.76336 z "/>
<path style="fill:#bd0f1f" id="path4386" d="m 4.669,5.6271 19.3681,0 c 2.39324,0 3.16318,0.716893 3.16318,2.78476 v 26.8041 l -8.3519,-9.4568 -8.4586,9.5586 .0714,-26.9272 c 0,-2.23969 -4.39549,-2.76336 -5.79211,-2.76336 z "/>
</g>
</g>
</svg>
