<svg width="48" version="1.1" xmlns="http://www.w3.org/2000/svg" height="48">
<g style="stroke:none">
<path style="opacity:.6" id="path4459" d="m 3.7813,12.6 c -0.430993,0 -0.78125,0.397456 -0.78125,0.90625 v 11.1875 c 0,0.508794 0.350257,0.90625 0.78125,0.90625 h 19.0312 4.58789 16.818 c 0.430996,0 0.78125,-0.397456 0.78125,-0.90625 v -11.1875 c 0,-0.508794 -0.350254,-0.90625 -0.78125,-0.90625 h -11.8375 -2.60547 z "/>
<path style="fill:#c4c4c4" id="path4426" d="m 3.7812,12 c -0.430993,0 -0.78125,0.397456 -0.78125,0.90625 v 11.1875 c 0,0.508794 0.350257,0.90625 0.78125,0.90625 h 19.0312 4.58789 16.8181 c 0.430996,0 0.78125,-0.397456 0.78125,-0.90625 v -11.1875 c 0,-0.508794 -0.350254,-0.90625 -0.78125,-0.90625 h -11.8376 -2.60547 -25.9941 Z "/>
<path id="path4422" d="m 5.9688,13.5625 c 0.552368,0 1.03125,0.416381 1.03125,0.96875 0,0.552369 -0.478882,1.03125 -1.03125,1.03125 -0.552368,0 -1,-0.478881 -1,-1.03125 0,-0.552369 0.447632,-0.96875 1,-0.96875 z "/>
<path id="path4420" d="m 8,15.5625 c 0.552368,0 1,0.44763 1,1 0,0.55237 -0.447632,0.96875 -1,0.96875 -0.552368,0 -1,-0.41638 -1,-0.96875 0,-0.55237 0.447632,-1 1,-1 z "/>
<path id="path4418" d="m 6,17.5312 c 0.552368,0 1,0.478881 1,1.03125 0,0.552369 -0.447632,1 -1,1 -0.552368,0 -1,-0.447631 -1,-1 0,-0.552369 0.447632,-1.03125 1,-1.03125 z "/>
<path id="path4416" d="m 8,19.5625 c 0.552368,0 1,0.416381 1,0.96875 0,0.552369 -0.447632,1.03125 -1,1.03125 -0.552368,0 -1,-0.478881 -1,-1.03125 0,-0.552369 0.447632,-0.96875 1,-0.96875 z "/>
<path id="rect2894" d="m 6,21.5625 c 0.552368,0 1,0.447631 1,1 0,0.552369 -0.447632,0.96875 -1,0.96875 -0.552368,0 -1,-0.416381 -1,-0.96875 0,-0.552369 0.447632,-1 1,-1 z "/>
<rect width="0.4932631" x="-66.219238" y="-105.93275" height="0" style="opacity:.231" id="rect4792"/>
<rect width="0.4932631" x="-83.546005" y="-119.51112" height="0" style="opacity:.231" id="rect4794"/>
<g style="stroke-width:1.467;stroke-linejoin:round;fill-rule:evenodd" id="g4144" transform="matrix(1.1078181,0,0,1.1078181,8.832524,5.7711958)">
<path style="opacity:.2" id="path4199" d="m 4.7927,5.6374 18.1681,0 c 2.39324,0 3.16318,0.716893 3.16318,2.78476 l 0,27.7941 -8.3519,-9.4568 -8.4586,9.5586 0.0714,-27.9172 C 9.38488,6.16117 6.18939,5.6375 4.79277,5.6375 Z"/>
<path style="fill:#bd0f1f" id="path4386" d="m 4.669,5.6271 19.3681,0 c 2.39324,0 3.16318,0.716893 3.16318,2.78476 v 26.8041 l -8.3519,-9.4568 -8.4586,9.5586 .0714,-26.9272 c 0,-2.23969 -4.39549,-2.76336 -5.79211,-2.76336 z "/>
</g>
</g>
</svg>
