<svg width="48" version="1.0" xmlns="http://www.w3.org/2000/svg" height="48">
<g style="stroke:none">
<g style="fill-rule:evenodd">
<path style="fill:#626266" id="path3046" d="M 27.9778,15.2195 C 21.05954,21.51165 12.1192,29.6529 5.2009,35.9451 5.176822,35.9676 4.642512,36.45374 4.17936,37.54585 3.716215,38.63798 3.700163,40.53209 1.96151,41.7962 c -1.16536,1.0979 -0.877274,2.05565 -0.362417,2.81861 0.058765,0.0871 0.16488,0.18143 0.26332,0.27598 0.083644,0.10568 0.166305,0.21904 0.246325,0.28501 0.709976,0.58528 1.63508,0.96295 2.83691,-0.0948 1.42129,-1.61345 3.3062,-1.45041 4.43592,-1.80881 1.12971,-0.3584 1.66357,-0.845 1.68824,-0.86687 6.91047,-6.30076 15.8664,-14.4248 22.7769,-20.7256 -1.08793,-0.33151 -2.4165,-1.45024 -3.53272,-2.68206 -1.12067,-1.22976 -2.10916,-2.66138 -2.33618,-3.77813 z"/>
<path style="fill:#c2c2c4" id="path3878" d="M 27.5778,14.5198 C 20.65954,20.81196 11.7192,28.9532 4.8009,35.2454 4.776822,35.2679 4.242512,35.75404 3.77936,36.84615 3.316215,37.93828 3.300163,39.83239 1.56151,41.0965 c -1.16536,1.0979 -0.877274,2.05565 -0.362417,2.81861 0.058765,0.0871 0.16488,0.18143 0.26332,0.27598 0.083644,0.10568 0.166305,0.21904 0.246325,0.28501 0.709976,0.58528 1.63508,0.96295 2.83691,-0.0948 1.42129,-1.61345 3.30619,-1.45041 4.43592,-1.80881 1.12971,-0.3584 1.66357,-0.845 1.68824,-0.86687 6.91047,-6.30076 15.8664,-14.4248 22.7769,-20.7256 -1.08793,-0.33151 -2.4165,-1.45025 -3.53272,-2.68207 -1.12067,-1.22976 -2.10916,-2.66138 -2.33618,-3.77813 z"/>
</g>
<g style="fill:#1ab85d" id="g10" transform="translate(0,-80)">
<path id="path3835" d="m 36.5926,84.1392 c -1.76217,1.64678 -3.18694,5.35508 -5.66172,5.38362 -2.61279,3.93557 3.17757,10.3668 7.55779,8.40835 0.09185,-2.71337 4.09176,-3.98996 5.72076,-5.51229 6.55741,-6.12801 -1.6728,-13.8345 -7.61683,-8.27968 z"/>
<path id="path3837" d="m 28.6356,90.3923 c -0.474847,-0.02036 -0.868791,0.101438 -1.14329,0.377168 -0.932135,0.811934 -0.0049,-0.0054 -2.7934,2.53409 -0.775702,0.706442 8.96885,10.6303 9.55884,10.101 1.86494,-1.67316 1.2644,-1.12618 1.88584,-1.68547 l .7779,-.7425 .0118,-.0236 c 1.0677,-1.12137 -0.24987,-4.13213 -2.80518,-7.02474 -1.90677,-2.15847 -4.06796,-3.47488 -5.4925,-3.53594 z "/>
</g>
<g style="fill:#14964b">
<path id="rect10614" d="m 37.0922,4.7389 c -1.76217,1.64678 -3.18694,5.35508 -5.66172,5.38362 -2.61279,3.93557 3.17757,10.3668 7.55779,8.40835 0.09185,-2.71337 4.09176,-3.98996 5.72076,-5.51229 6.55741,-6.12801 -1.6728,-13.8345 -7.61683,-8.27968 z"/>
<path id="path3144" d="m 29.1352,10.992 c -0.474847,-0.02036 -0.868791,0.101438 -1.14329,0.377168 -0.932135,0.811934 -0.0049,-0.0054 -2.7934,2.53409 -0.775702,0.706442 8.96885,10.6303 9.55884,10.101 1.86494,-1.67316 1.2644,-1.12618 1.88584,-1.68547 l .7779,-.7425 .0118,-.0236 c 1.0677,-1.12137 -0.24987,-4.13213 -2.80518,-7.02474 -1.90677,-2.15847 -4.06796,-3.47488 -5.4925,-3.53594 z "/>
</g>
<path style="fill:#696969;fill-rule:evenodd" id="path4161" d="m 16.334,26.9839 c 0,0 -6.0585,5.3086 -10.6647,9.49796 -0.016031,0.01498 -0.371776,0.338653 -0.680143,1.06578 -0.308363,0.727142 -0.766197,2.46023 -2.24674,3.52545 -0.60634,0.819331 -0.673717,1.30314 -0.065979,2.06038 0.607738,0.757239 1.49372,0.598072 2.05282,0.126651 1.16987,-1.42202 2.97135,-1.66125 3.72353,-1.89987 0.752163,-0.238626 1.10761,-0.562606 1.12403,-0.577167 4.601,-4.19506 15.1645,-13.7992 15.1645,-13.7992 Z "/>
</g>
</svg>
