<svg width="48" version="1.0" xmlns="http://www.w3.org/2000/svg" height="48" xmlns:xlink="http://www.w3.org/1999/xlink">
<g style="stroke:none" id="layer1" transform="translate(0,-80)">
<g style="fill-rule:evenodd">
<path style="fill:#626266" id="path3046" d="m 27.9778,95.2195 c -6.91826,6.29215 -15.8586,14.4334 -22.7769,20.7256 -0.024078,0.0225 -0.558388,0.50864 -1.02154,1.60075 -0.463145,1.09213 -0.479197,2.98624 -2.21785,4.25035 -1.16536,1.0979 -0.877274,2.05565 -0.362417,2.81861 0.058765,0.0871 0.16488,0.18143 0.26332,0.27598 0.083644,0.10568 0.166305,0.21904 0.246325,0.28501 0.709976,0.58528 1.63508,0.96295 2.83691,-0.0948 1.42129,-1.61345 3.3062,-1.45041 4.43592,-1.80881 1.12971,-0.3584 1.66357,-0.845 1.68824,-0.86687 6.91047,-6.30076 15.8664,-14.4248 22.7769,-20.7256 -1.08793,-0.33151 -2.4165,-1.45024 -3.53272,-2.68206 -1.12067,-1.22976 -2.10916,-2.66138 -2.33618,-3.77813 z "/>
<path style="fill:#c2c2c4" id="path3878" d="m 27.5778,94.5198 c -6.91826,6.29216 -15.8586,14.4334 -22.7769,20.7256 -0.024078,0.0225 -0.558388,0.50864 -1.02154,1.60075 -0.463145,1.09213 -0.479197,2.98624 -2.21785,4.25035 -1.16536,1.0979 -0.877274,2.05565 -0.362417,2.81861 0.058765,0.0871 0.16488,0.18143 0.26332,0.27598 0.083644,0.10568 0.166305,0.21904 0.246325,0.28501 0.709976,0.58528 1.63508,0.96295 2.83691,-0.0948 1.42129,-1.61345 3.30619,-1.45041 4.43592,-1.80881 1.12971,-0.3584 1.66357,-0.845 1.68824,-0.86687 6.91047,-6.30076 15.8664,-14.4248 22.7769,-20.7256 -1.08793,-0.33151 -2.4165,-1.45025 -3.53272,-2.68207 -1.12067,-1.22976 -2.10916,-2.66138 -2.33618,-3.77813 z "/>
</g>
<g style="fill:#1ab85d">
<path id="path3835" d="m 36.5926,84.1392 c -1.76217,1.64678 -3.18694,5.35508 -5.66172,5.38362 -2.61279,3.93557 3.17757,10.3668 7.55779,8.40835 0.09185,-2.71337 4.09176,-3.98996 5.72076,-5.51229 6.55741,-6.12801 -1.6728,-13.8345 -7.61683,-8.27968 z "/>
<path id="path3837" d="m 28.6356,90.3923 c -0.474847,-0.02036 -0.868791,0.101438 -1.14329,0.377168 -0.932135,0.811934 -0.0049,-0.0054 -2.7934,2.53409 -0.775702,0.706442 8.96885,10.6303 9.55884,10.101 1.86494,-1.67316 1.2644,-1.12618 1.88584,-1.68547 l .7779,-.7425 .0118,-.0236 c 1.0677,-1.12137 -0.24987,-4.13213 -2.80518,-7.02474 -1.90677,-2.15847 -4.06796,-3.47488 -5.4925,-3.53594 z "/>
</g>
<g style="fill:#14964b">
<path id="rect10614" d="m 37.0922,84.7389 c -1.76217,1.64678 -3.18694,5.35508 -5.66172,5.38362 -2.61279,3.93557 3.17757,10.3668 7.55779,8.40835 0.09185,-2.71337 4.09176,-3.98996 5.72076,-5.51229 6.55741,-6.12801 -1.6728,-13.8345 -7.61683,-8.27968 z "/>
<path id="path3144" d="m 29.1352,90.992 c -0.474847,-0.02036 -0.868791,0.101438 -1.14329,0.377168 -0.932135,0.811934 -0.0049,-0.0054 -2.7934,2.53409 -0.775702,0.706442 8.96885,10.6303 9.55884,10.101 1.86494,-1.67316 1.2644,-1.12618 1.88584,-1.68547 l .7779,-.7425 .0118,-.0236 c 1.0677,-1.12137 -0.24987,-4.13213 -2.80518,-7.02474 -1.90677,-2.15847 -4.06796,-3.47488 -5.4925,-3.53594 z "/>
</g>
</g>
</svg>
