<svg width="48" version="1.1" xmlns="http://www.w3.org/2000/svg" height="48" xmlns:xlink="http://www.w3.org/1999/xlink">
<defs>
<linearGradient id="linearGradient1">
<stop offset="0" style="stop-opacity:.8"/>
<stop offset="1" style="stop-color:#fff"/>
</linearGradient>
<linearGradient gradientTransform="matrix(-0.48134792,0.85637466,-0.85637466,-0.48134792,33.150694,-4.7840583)" xlink:href="#linearGradient1" id="linearGradient3" y1="3.4904659" x1="52.864334" y2="-0.83853215" gradientUnits="userSpaceOnUse" x2="53.012661"/>
</defs>
<path style="fill:#429cd6" d="m 40.7,9.018 c -0.928278,0 -1.7,0.907722 -1.7,1.836 V 33.013 H 30 V 24 L 17,36 30,48 v -8.98338 h 12.534 c 1.46609,0 2.49182,-1.01639 2.49182,-2.49162 V 10.854 c 0,-0.953395 -0.855427,-1.836 -1.80882,-1.836 z"/>
<path style="fill:#a0a0a0;stroke:#505050;stroke-width:.461" d="m 26.1798,.4376 c 0.128749,0.0273241 0.23391,0.119285 0.278672,0.243137 0.0011,0.003253 0.0023,0.006866 0.0033,0.0101181 0.03981,0.121077 0.01647,0.254523 -0.06308,0.354799 0,0 -3.43015,4.33781 -3.63882,4.60193 0.06441,0.302834 0.632609,2.97643 0.68602,3.22881 0.21369,0.152774 3.46487,2.47536 3.88865,2.7785 0.41685,-0.367878 5.23736,-4.6225 5.23736,-4.6225 0.102373,-0.090561 0.245652,-0.11889 0.37518,-0.074595 0.113307,0.038818 0.20091,0.128542 0.237895,0.240936 0.0051,0.01554 0.0093,0.031798 0.01233,0.048412 0.535083,2.83829 -0.04463,5.76628 -1.50034,7.72526 0,0.08422 -0.0097,0.170206 -0.06143,0.238103 -0.814269,1.06501 -2.39071,2.12649 -2.98217,2.50536 0.106496,0.401529 0.448405,1.69126 0.448405,1.69126 0.0512,0.192225 -0.05468,0.391286 -0.242256,0.456617 l -2.0412,.713 c -0.197213,0.06891 -0.413021,-0.03431 -0.483732,-0.230931 0,0 -0.433295,-1.2108 -0.582327,-1.62717 -0.346569,0.04956 -0.825553,0.117866 -0.825553,0.117866 -0.694552,0.122822 -4.02369,3.62713 -5.49361,4.89908 -0.121317,0.104805 -0.294993,0.122313 -0.435219,0.04429 l -5.0088,-2.8084 c -0.160632,-0.09013 -0.234006,-0.282669 -0.173176,-0.456891 0.772631,-2.22245 2.24218,-6.34364 2.09281,-6.79755 -1.15363,-2.66782 -1.24223,-5.82633 0.0095,-8.37177 1.86493,-3.79236 6.12434,-5.79034 10.2615,-4.9076 z "/>
<path style="fill:#0087a0;stroke-width:.923" d="m .4548,41.5029 c 1.09838,-2.20628 13.3165,-21.0389 13.3165,-21.0389 l 5.8493,3.1623 c 0,0 -9.8241,19.7094 -10.9217,21.9154 -1.09742,2.20676 -3.83201,3.09103 -6.10898,1.97626 -2.27588,-1.11513 -3.23249,-3.8079 -2.1352,-6.01502 Z  m 3.1704,3.8748 c 1.06498,0.537912 2.36455,0.110254 2.90162,-0.954851 0.537674,-1.0645 0.110018,-2.36407 -0.954615,-2.9009 -1.06498,-0.537914 -2.36456,-0.110258 -2.90162,0.954852 -0.537791,1.06414 -0.110139,2.36371 0.954606,2.9009 z "/>
<rect width="4.6086507" x="-28.489096" y="-0.039668433" rx="0.70586318" height="3.7577794" style="fill:#f0f0f0;stroke:#505050;stroke-width:.461" transform="matrix(-0.83852111,-0.54486912,-0.54486912,0.83852111,0,0)"/>
<path style="opacity:.2;fill:url(#linearGradient3);stroke-linejoin:round;stroke-width:.491" d="m 17.0795,24.1298 -8.7283,16.8885 -3.6359,-2.2107 10.1268,-16.0244 Z "/>
</svg>
