<svg width="48" version="1.1" xmlns="http://www.w3.org/2000/svg" height="48" xmlns:xlink="http://www.w3.org/1999/xlink">
<defs>
<linearGradient id="linearGradient1">
<stop offset="0" style="stop-opacity:.8"/>
<stop offset="1" style="stop-color:#fff"/>
</linearGradient>
<linearGradient id="linearGradient871">
<stop offset="0" style="stop-color:#d2d2d2"/>
<stop offset="1" style="stop-color:#b2b2b2"/>
</linearGradient>
<linearGradient gradientTransform="rotate(135.64118,23.557021,10.77614)" xlink:href="#linearGradient1" id="linearGradient2" y1="3.4904659" x1="52.864334" y2="-0.83853215" x2="53.012661" gradientUnits="userSpaceOnUse"/>
<linearGradient xlink:href="#linearGradient871" id="linearGradient873" y1="17.5" x1="2.7812" y2="30.5" x2="2.7374001" gradientUnits="userSpaceOnUse"/>
</defs>
<path style="opacity:.6" d="M 2.78125,18.1 C 2.3502572,18.1 2,18.497456 2,19.00625 v 11.1875 C 2,30.702544 2.3502572,31.1 2.78125,31.1 H 22.8125 27.400391 45.21875 C 45.649746,31.1 46,30.702544 46,30.19375 V 19.00625 C 46,18.497456 45.649746,18.1 45.21875,18.1 H 32.380859 29.775391 Z"/>
<path style="fill:url(#linearGradient873)" d="m 2.7812,17.5 c -0.430993,0 -0.78125,0.397456 -0.78125,0.90625 v 11.1875 c 0,0.508794 0.350257,0.90625 0.78125,0.90625 h 20.0312 4.58789 17.8184 c 0.430996,0 0.78125,-0.397456 0.78125,-0.90625 V 18.40625 C 46,17.897456 45.649686,17.5 45.21869,17.5 H 32.38079 29.77532 2.78122 Z"/>
<path d="m 4.9688,19.0625 c 0.552368,0 1.03125,0.416381 1.03125,0.96875 0,0.552369 -0.478882,1.03125 -1.03125,1.03125 -0.552368,0 -1,-0.478881 -1,-1.03125 0,-0.552369 0.447632,-0.96875 1,-0.96875 z"/>
<path d="m 7,21.0625 c 0.552368,0 1,0.44763 1,1 0,0.55237 -0.447632,0.96875 -1,0.96875 -0.552368,0 -1,-0.41638 -1,-0.96875 0,-0.55237 0.447632,-1 1,-1 z"/>
<path d="m 5,23.0312 c 0.552368,0 1,0.478881 1,1.03125 0,0.552369 -0.447632,1 -1,1 -0.552368,0 -1,-0.447631 -1,-1 0,-0.552369 0.447632,-1.03125 1,-1.03125 z"/>
<path d="m 7,25.0625 c 0.552368,0 1,0.416381 1,0.96875 0,0.552369 -0.447632,1.03125 -1,1.03125 -0.552368,0 -1,-0.478881 -1,-1.03125 0,-0.552369 0.447632,-0.96875 1,-0.96875 z"/>
<path d="m 5,27.0625 c 0.552368,0 1,0.447631 1,1 0,0.552369 -0.447632,0.96875 -1,0.96875 -0.552368,0 -1,-0.416381 -1,-0.96875 0,-0.552369 0.447632,-1 1,-1 z"/>
<rect width="0.4932631" x="-66.219238" y="-105.93275" height="0" style="opacity:.231"/>
<rect width="0.4932631" x="-83.546005" y="-119.51112" height="0" style="opacity:.231"/>
<path style="opacity:.5" d="m 37.8313,3.0955 c -2.73248,-0.030533 -5.43612,1.0421 -7.38867,3.13477 -2.09689,2.24736 -2.99429,5.55073 -2.63477,8.67968 0.01247,0.516172 -2.78724,4.30633 -4.28906,6.37305 l -.0449,-.0449 c 0,0 -19.1811,15.2991 -21.0125,17.2428 -1.83056,1.94492 -1.68447,5.03758 0.326172,6.9082 2.01188,1.87059 5.12646,1.8117 6.95703,-0.132812 1.8305,-1.9437 18.8035,-18.903 18.8035,-18.903 l -.0391,-.0391 c 2.00217,-0.920282 6.30564,-3.35185 7.04492,-3.26367 0,0 0.517574,0.07939 0.892578,0.136719 0.02394,0.47861 0.09375,1.86914 0.09375,1.86914 0.01165,0.226117 0.203522,0.402178 0.429687,0.392578 l 2.3418,-.0996 c 0.215048,-0.0089 0.387332,-0.183 0.394532,-0.398437 0,0 0.04893,-1.44466 0.06445,-1.89453 0.73232,-0.2074 2.70023,-0.812973 3.87891,-1.66211 0.07498,-0.05419 0.113162,-0.140885 0.138672,-0.228515 2.12445,-1.57511 3.64496,-4.42932 3.98047,-7.54102 0.002,-0.01819 0.0024,-0.03697 0.002,-0.05469 -0.0031,-0.128175 -0.06653,-0.248408 -0.171875,-0.324218 -0.120447,-0.08658 -0.277518,-0.102826 -0.41211,-0.04102 0,0 -6.33505,2.90157 -6.88281,3.15234 -0.34443,-0.44736 -2.98645,-3.87607 -3.16016,-4.10156 0.02378,-0.27852 0.272571,-3.23015 0.300781,-3.56445 0.29929,-0.20847 5.21875,-3.63281 5.21875,-3.63281 0.113972,-0.079046 0.179081,-0.209588 0.175781,-0.347656 v -0.011719 c -0.0076,-0.1425 -0.08798,-0.271109 -0.21294,-0.339843 -1.50525,-0.830078 -3.15544,-1.24535 -4.79492,-1.26367 z  m -31.741,36.366 c 0.598893,-0.01448 1.20397,0.198509 1.67187,0.644531 0.935792,0.89081 0.971721,2.3732 0.080078,3.30859 -0.8912,0.936209 -2.37278,0.972116 -3.30859,0.08008 -0.935794,-0.89122 -0.971729,-2.37361 -0.080078,-3.30859 0.4456,-0.468108 1.03783,-0.710132 1.63672,-0.724613 z "/>
<path style="fill:#a0a0a0;stroke:#505050;stroke-width:.5" d="m 41.7265,3.3601 c 0.124964,0.068734 0.205183,0.197107 0.212752,0.339608 0,0.00371 0,0.00783 0,0.011539 0.0033,0.138068 -0.06277,0.269154 -0.176742,0.3482 0,0 -4.91863,3.42292 -5.21792,3.63139 -0.02821,0.3343 -0.277695,3.28557 -0.301479,3.56409 0.173704,0.225497 2.81708,3.65447 3.16151,4.10183 0.547767,-0.250774 6.88236,-3.1512 6.88236,-3.1512 0.134592,-0.06181 0.292086,-0.04624 0.412533,0.04034 0.105341,0.07581 0.168051,0.196355 0.171149,0.324531 0,0.01772 0,0.03589 -0.0024,0.05408 -0.335508,3.1117 -1.8554,5.96667 -3.97985,7.54178 -0.02551,0.08763 -0.06344,0.173497 -0.138417,0.227682 -1.17868,0.849137 -3.14676,1.45549 -3.87908,1.66289 -0.01552,0.449871 -0.06554,1.89483 -0.06554,1.89483 -0.0072,0.215437 -0.179475,0.388679 -0.394523,0.397589 l -2.3408,.0991 c -0.226166,0.0096 -0.417613,-0.165167 -0.429265,-0.391284 0,0 -0.06953,-1.39176 -0.09347,-1.87037 -0.375004,-0.05733 -0.893228,-0.136761 -0.893228,-0.136761 -0.75891,-0.09052 -5.31127,2.4996 -7.23491,3.35767 -0.15871,0.07064 -0.344336,0.03431 -0.465296,-0.09061 l -4.3139,-4.4843 c -0.138328,-0.143876 -0.154022,-0.366596 -0.03627,-0.52821 1.49863,-2.06268 4.3158,-5.87604 4.30329,-6.39369 -0.359525,-3.12895 0.539533,-6.4327 2.63642,-8.68006 3.12408,-3.34826 8.16871,-4.08418 12.1827,-1.87064 z "/>
<path style="fill:#0087a0" d="m 2.1611,37.8813 c 1.83142,-1.94371 20.4124,-17.6432 20.4124,-17.6432 l 5.0747,5.115 c 0,0 -16.373,17.36 -18.2035,19.3037 -1.83057,1.94451 -4.94427,2.0037 -6.95615,0.133107 -2.01064,-1.87063 -2.15799,-4.96364 -0.327434,-6.90856 z  m 2.0726,5.0135 c 0.935815,0.892039 2.41788,0.856208 3.30908,-0.08 0.891643,-0.935393 0.855812,-2.41745 -0.07998,-3.30826 -0.935815,-0.892042 -2.41788,-0.856213 -3.30908,0.08 -0.891651,0.934983 -0.855824,2.41704 0.07997,3.30826 z "/>
<g style="stroke-width:.5">
<rect width="4.9939094" x="-36.300148" y="-14.708939" rx="0.76486957" height="4.0719094" style="fill:#f0f0f0;stroke:#505050" transform="matrix(-0.64484535,-0.76431308,-0.76431308,0.64484535,0,0)"/>
<path style="opacity:.2;fill:url(#linearGradient2);stroke-linejoin:round" d="m 23.9705,25.668 -13.3532,14.0063 -2.9206,-3.1988 14.4727,-12.7624 z "/>
</g>
</svg>
