<svg width="48" version="1.1" xmlns="http://www.w3.org/2000/svg" viewBox="0 0 48 48" height="48">
<g style="stroke:none" id="g5" transform="matrix(2.1875,0,0,2.1875,-0.0625,-0.0625)">
<path style="fill:#0088f0" id="path4497" d="M 5,9 C 3.892,9 3,9.892 3,11 3,12.108 3.892,13 5,13 6.108,13 7,12.108 7,11 7,9.892 6.108,9 5,9 Z"/>
<path style="fill:#bf0000" id="path4495" d="m 11,9 c -1.108,0 -2,0.892 -2,2 0,1.108 0.892,2 2,2 1.108,0 2,-0.892 2,-2 0,-1.108 -0.892,-2 -2,-2 z"/>
<path style="fill:#00ce20" id="path4493" d="m 17,9 c -1.108,0 -2,0.892 -2,2 0,1.108 0.892,2 2,2 1.108,0 2,-0.892 2,-2 0,-1.108 -0.892,-2 -2,-2 z"/>
</g>
</svg>
