<svg width="48" version="1.0" xmlns="http://www.w3.org/2000/svg" height="48" xmlns:xlink="http://www.w3.org/1999/xlink">
<defs id="defs7660"/>
<g id="layer1" transform="translate(0,-80)">
<path id="path4205" d="m 16.4468,82.9384 c -0.287293,0.01677 -0.627082,0.40202 -0.526969,0.702625 0.160182,0.481389 0.634332,1.79273 2.03761,2.35379 1.27928,0.511867 2.45256,0.714063 2.74024,1.26472 v 0.386443 c 0,0 0.526968,0.142109 0.526968,0.526968 l .527,-.3513 c 0,0 -0.28105,-0.648146 -0.28105,-1.08907 l -.6324,.1757 c -0.198941,-0.115957 -1.44544,-0.818277 -2.7051,-1.29986 -0.761707,-0.440922 -1.25447,-1.29138 -1.33499,-2.21327 -0.03004,-0.345709 -0.178937,-0.466768 -0.351312,-0.456706 Z  m 14.1228,.1054 c -0.172428,-0.01012 -0.321278,0.110992 -0.351313,0.456706 -0.08009,0.92189 -0.538568,1.77235 -1.29986,2.21327 -1.28895,0.493173 -2.59269,1.28256 -2.74024,1.37012 l -.1405,-.1405 h -0.175656 c 0.187582,0.18716 -0.210787,0.772887 -0.210787,0.772887 l .527,.3513 c 0,-0.348186 0.75768,-0.226416 0.456706,-0.526969 l -.1757,-.1757 c 0.255622,-0.552755 1.31045,-0.713732 2.59971,-1.22959 1.40286,-0.561059 1.87785,-1.90753 2.03761,-2.38892 0.10038,-0.300606 -0.23959,-0.685854 -0.526968,-0.702625 z "/>
<path id="path4201" d="m 13.5306,80.0715 c -0.318285,0.01821 -0.673097,0.209467 -1.01881,0.87828 0,0 0.341638,-0.326008 0.5621,-0.245918 0,0 0.534772,1.53886 0.59723,1.72143 -0.123439,0.206529 -0.0947,0.490231 0.245919,0.913411 0.581293,0.721663 1.11944,1.78797 1.29986,2.52945 l .1757,.0351 c -0.358519,0.0116 -0.491837,0.316181 -0.491837,0.316181 -0.902079,2.26447 -0.852669,6.25336 -0.491837,6.25336 0.360831,0 0.421575,0.175656 0.421575,0.175656 v 0.07026 c -0.12509,0.194418 -0.190914,0.387447 -0.105394,0.421575 0.267251,0.107069 0.526968,1.05394 0.526968,1.05394 l 1.2296,-1.8268 -.2108,-.4216 -.2811,-.2108 c -0.187116,0 -0.450813,0.213199 -0.702625,0.456706 -0.103145,-0.02994 -0.364302,-0.117364 -0.281049,-0.351312 0.100323,-0.28074 0.105393,-1.26472 0.105393,-1.26472 l 1.4404,-2.7754 c 0,0 -0.195889,-0.537993 -0.175656,-1.15933 0.01467,-0.459599 -0.28156,-0.629245 -0.59723,-0.702624 -0.0036,-0.03976 -0.231905,-2.46743 -0.808019,-3.30233 0,0 -0.457171,-0.592162 -0.87828,-0.491837 0,0 -0.496175,-1.30508 -0.316181,-1.54577 0.181258,-0.240273 0.44254,-0.07518 0.702624,-0.03513 0,0 -0.418067,-0.522196 -0.948543,-0.491837 z "/>
<path id="path4203" d="m 35.0309,80.0012 c -0.530352,-0.03036 -0.913412,0.526969 -0.913412,0.526969 0.260506,-0.04004 0.487499,-0.20514 0.667493,0.03513 0.179995,0.240694 -0.316181,1.51064 -0.316181,1.51064 -0.420689,-0.100323 -0.87828,0.526969 -0.87828,0.526969 -0.576498,0.834854 -0.804408,3.26227 -0.808018,3.30233 -0.320397,0.07137 -0.612407,0.236937 -0.597231,0.702624 0.01981,0.621338 -0.175656,1.15933 -0.175656,1.15933 l 1.4404,2.7402 c 0,0 0.0055,0.984404 0.105393,1.26472 0.08276,0.23161 -0.171822,0.320097 -0.281049,0.351313 -0.251812,-0.243532 -0.515509,-0.421575 -0.702625,-0.421575 l -.2811,.2108 -.2108,.4216 1.2296,1.8268 c 0,0 0.259718,-0.98242 0.526968,-1.08907 0.1088,-0.04359 -0.0065,-0.294698 -0.210787,-0.5621 l .1405,.1405 v -0.07026 c 0,0 0.02561,-0.140525 0.386443,-0.140525 0.359989,0 0.445373,-4.0236 -0.456706,-6.28849 0,0 -0.174421,-0.265599 -0.526968,-0.28105 l .2108,-.0351 c 0.180416,-0.741473 0.68301,-1.80778 1.26472,-2.52945 0.348775,-0.432744 0.379288,-0.742181 0.245919,-0.948543 0.06907,-0.199508 0.597231,-1.6863 0.597231,-1.6863 0.220461,-0.08009 0.562099,0.245918 0.562099,0.245918 -0.345709,-0.668813 -0.700594,-0.895196 -1.01881,-0.913412 z "/>
<path id="path4193" d="m 33.7839,98.219 .3293,1.3041 2.0549,1.5675 c 1.10315,0.46157 1.65447,1.64171 2.00223,1.98906 0.346921,0.34734 1.11967,0.382 1.11967,0.382 l -.0659,-.2108 c 0,0 1.29628,0.86434 1.85733,0.76402 0,0 0.35566,0.22087 0.35566,0.42151 0,0.0752 0.166067,0.17397 0.395177,0.26346 0.07637,0.0298 0.15101,0.0674 0.237107,0.0922 0.347258,0.10141 0.734456,0.14297 0.922081,0.0263 0,0 0.711319,0.11675 0.711319,0.73765 0,0 -0.493811,0.30509 -0.764011,0.1449 0,0 0.537104,0.85962 1.59388,-0.19758 0.526072,-0.52692 -0.118554,-1.13284 -0.118554,-1.13284 0,0 0.161874,0.70057 -0.316141,0.5269 0,0 -2.92437,-2.55507 -5.0451,-2.18665 l -.2766,-.8826 -.8826,-.8826 c -1.4429,-2.45879 -4.10984,-2.72672 -4.10984,-2.72672 z "/>
<path id="path4195" d="m 14.4203,97.9029 c 0,0 -2.30909,0.321716 -2.95066,0.856218 -0.64115,0.534502 -1.76512,2.23933 -1.76512,2.23933 0,0 -0.960754,0.903 -1.01429,1.33043 l .2898,-.2108 -.3161,.3161 c 0,0 -2.01224,0.22972 -2.25251,0.79036 0,0 0.080852,0.0826 0.197588,0.18441 l -.0659,-.0396 c 0,0 -2.21994,0.35427 -2.66086,1.39629 0,0 -0.096737,-0.34701 -0.237107,-0.48739 0,0 -0.192421,0.75885 -0.342487,0.90892 -0.150065,0.15048 0.094511,1.21999 0.856218,1.11967 0,0 -0.331764,-1.1185 0.790355,-1.65975 0,0 0.592765,0.0519 0.592765,0.59277 0,0 0.540076,-0.56083 0.540076,-0.92208 l 1.2777,-.5137 c 0.09884,0.0224 0.205573,0.0396 0.316142,0.0396 l 1.449,-.5533 c 0.26725,0.10624 1.53824,-0.57832 1.69926,-0.68497 0.159761,-0.10703 3.59611,-4.70261 3.59611,-4.70261 z "/>
<path id="path4197" d="m 36.7134,115.13 -.5796,1.9364 c 1.89689,2.60001 0.263451,7.74548 0.263451,7.74548 l .4742,-.4874 .303,.6191 -.079,-1.067 c 0.04637,0 0.382314,-0.0844 0.711319,-0.15807 l -.1976,.0527 .1712,.9221 c 0,0 0.641445,-0.42798 0.935254,0.93525 0,0 1.15349,-0.58647 1.55436,0.82988 0,0 1.04063,-0.21372 1.04063,-0.0527 0,0.15976 0.696372,1.20829 -0.105382,1.50167 0,0 1.95398,0.63528 1.60706,-1.42264 -0.000843,-0.00041 -0.167653,0.85623 -0.408351,0.85623 0,0 -1.51079,-2.61933 -4.07033,-3.74102 0.0195,-0.004 0.118554,-0.0263 0.118554,-0.0263 1.12296,-4.6495 -1.73878,-8.44362 -1.73878,-8.44362 z "/>
<path id="path4199" d="m 10.7898,114.8139 c 0,0 -2.40353,3.10065 -2.00223,5.58517 0.400456,2.48534 -0.171243,3.05603 -0.171243,3.05603 l .4215,-.5796 -.0922,.7245 c -2.5587,1.12169 -4.05715,3.74102 -4.05715,3.74102 -0.240694,0 -0.407928,-0.85623 -0.40835,-0.85623 -0.346921,2.05792 1.60705,1.42264 1.60705,1.42264 -0.801331,-0.29338 -0.105382,-1.34191 -0.105382,-1.50167 0,-0.16103 1.04063,0.0527 1.04063,0.0527 0.400454,-1.41635 1.55436,-0.82988 1.55436,-0.82988 0.293807,-1.36323 0.935252,-0.93525 0.935252,-0.93525 l .1449,-1.225 .2503,.8299 .1976,-.5401 c 0,0 0.338899,0.54008 0.579593,0.54008 0,0 -1.94433,-6.50479 0.553248,-7.89037 l -.4479,-1.5939 Z  m -1.4358,7.6137 .0395,.1317 -.0527,-.1186 .0132,-.0131 z "/>
<path id="path4191" d="m 14.5516,97.1257 c -2.75979,2.82948 -4.37572,7.10511 -4.1535,12.3764 0.364935,8.66691 5.63766,16.4356 12.0764,17.3713 0.09219,0.0594 0.621918,0.0668 1.17593,0.0582 0.65381,0.0194 1.31987,0.0197 1.43916,-0.0582 6.43878,-0.93574 11.7111,-8.70442 12.0764,-17.3713 0.220519,-5.23088 -1.36957,-9.48185 -4.09093,-12.3116 -2.07943,0.65099 -7.25956,1.02568 -9.51313,1.01626 -2.25357,-0.0093 -7.12393,-0.430275 -9.0104,-1.08099 z "/>
<g style="fill:#a0a0a0" id="g14">
<path id="path53" d="m 33.7839,97.4323 .3293,1.3041 2.0549,1.5675 c 1.10315,0.46157 1.65447,1.64171 2.00223,1.98905 0.346921,0.34735 1.11967,0.38201 1.11967,0.38201 l -.0659,-.2108 c 0,0 1.29628,0.86435 1.85733,0.76402 0,0 0.35566,0.22087 0.35566,0.42152 0,0.0752 0.166067,0.17397 0.395177,0.26346 0.07637,0.0298 0.15101,0.0674 0.237107,0.0922 0.347258,0.1014 0.734456,0.14297 0.922081,0.0263 0,0 0.711319,0.11675 0.711319,0.73765 0,0 -0.493811,0.30509 -0.764011,0.1449 0,0 0.537104,0.85962 1.59388,-0.19758 0.526072,-0.52692 -0.118554,-1.13284 -0.118554,-1.13284 0,0 0.161874,0.70056 -0.316141,0.5269 0,0 -2.92437,-2.55507 -5.0451,-2.18665 l -.2766,-.8826 -.8826,-.8826 c -1.4429,-2.45879 -4.10984,-2.72672 -4.10984,-2.72672 z "/>
<path id="path71" d="m 14.4203,97.1162 c 0,0 -2.30909,0.321715 -2.95066,0.856218 -0.64115,0.534502 -1.76512,2.23933 -1.76512,2.23933 0,0 -0.960754,0.903 -1.01429,1.33043 l .2898,-.2108 -.3161,.3161 c 0,0 -2.01224,0.22972 -2.25251,0.79036 0,0 0.080852,0.0826 0.197588,0.18441 l -.0659,-.0396 c 0,0 -2.21994,0.35428 -2.66086,1.3963 0,0 -0.096737,-0.34701 -0.237107,-0.48739 0,0 -0.192421,0.75885 -0.342487,0.90892 -0.150065,0.15048 0.094511,1.21999 0.856218,1.11966 0,0 -0.331764,-1.1185 0.790355,-1.65974 0,0 0.592765,0.0519 0.592765,0.59277 0,0 0.540076,-0.56083 0.540076,-0.92208 l 1.2777,-.5137 c 0.09884,0.0224 0.205573,0.0396 0.316142,0.0396 l 1.449,-.5533 c 0.26725,0.10623 1.53824,-0.57833 1.69926,-0.68498 0.159761,-0.10702 3.59611,-4.7026 3.59611,-4.7026 z "/>
</g>
<path id="path102" d="m 23.7911,86.7468 c -0.718289,0 -1.74352,0.449106 -2.66086,1.15919 0,0 0.593907,0.818599 1.42264,0.684973 0,0 -0.9251,2.0655 -2.56865,0.421523 l 1.0802,-1.0406 c -0.09754,0.0774 -0.195354,0.154215 -0.289797,0.237107 -0.745045,-0.689594 -2.45905,-1.28819 -1.91002,-0.316143 0.694684,1.22961 0.250278,1.80464 0.250278,1.80464 -0.277559,-0.118604 -0.541283,-0.245717 -0.777181,-0.382004 -2.18691,1.8442 -3.92543,4.27494 -3.92543,5.88814 0,1.73123 9.37887,2.05492 9.37887,2.05492 0,0 9.37888,-0.323691 9.37888,-2.05492 0,-1.6132 -1.7381,-4.04352 -3.92543,-5.88814 -0.320127,0.185009 -0.685698,0.351604 -1.08015,0.500558 l .1317,-.1186 c 0,0 -0.457578,-0.575034 0.237106,-1.80464 0.527975,-0.933639 -1.03274,-0.416128 -1.81781,0.237107 0.08243,0.07028 0.170569,0.136657 0.250279,0.210762 -0.199384,0.000421 0.03941,0.808052 -0.184415,1.1065 -0.195592,0.259663 -0.80384,0.116553 -1.00112,0.02634 -0.196855,-0.09021 -0.964026,-0.922185 -0.790354,-0.935253 0.615014,0 1.19828,-0.816699 1.1987,-0.816699 -0.845837,-0.598772 -1.74644,-0.974771 -2.39741,-0.974771 z "/>
<path style="fill:#8c8c8c" id="path124" d="m 12.9688,80.0715 c -0.318286,0.01821 -0.673097,0.209467 -1.01881,0.87828 0,0 0.341639,-0.326008 0.5621,-0.245918 0,0 0.534773,1.53886 0.597231,1.72143 -0.12344,0.206529 -0.0947,0.490231 0.245918,0.913411 0.581293,0.721663 1.11944,1.78797 1.29986,2.52945 l .1757,.0351 c -0.35852,0.0116 -0.491837,0.316181 -0.491837,0.316181 -0.902079,2.26447 -0.85267,6.25336 -0.491838,6.25336 0.360831,0 0.421575,0.175656 0.421575,0.175656 v 0.07026 c -0.12509,0.194418 -0.190914,0.387447 -0.105394,0.421575 0.267252,0.107069 0.526969,1.05394 0.526969,1.05394 l 1.2296,-1.8268 -.2108,-.4216 -.2811,-.2108 c -0.187116,0 -0.450812,0.213199 -0.702624,0.456706 -0.103145,-0.02994 -0.364302,-0.117364 -0.28105,-0.351312 0.100324,-0.28074 0.105394,-1.26472 0.105394,-1.26472 l 1.4404,-2.7754 c 0,0 -0.19589,-0.537993 -0.175656,-1.15933 0.01467,-0.459599 -0.28156,-0.629245 -0.597231,-0.702624 -0.0036,-0.03976 -0.231904,-2.46743 -0.808018,-3.30233 0,0 -0.457171,-0.592162 -0.878281,-0.491837 0,0 -0.496175,-1.30508 -0.316181,-1.54577 0.181258,-0.240273 0.44254,-0.07518 0.702625,-0.03513 0,0 -0.418067,-0.522196 -0.948543,-0.491837 z "/>
<g style="fill:#a0a0a0" id="g20">
<path id="path133" d="m 34.4691,80.0012 c -0.530352,-0.03036 -0.913412,0.526969 -0.913412,0.526969 0.260507,-0.04004 0.487499,-0.20514 0.667494,0.03513 0.179994,0.240694 -0.316181,1.51064 -0.316181,1.51064 -0.420689,-0.100323 -0.878281,0.526969 -0.878281,0.526969 -0.576497,0.834854 -0.804407,3.26227 -0.808018,3.30233 -0.320397,0.07137 -0.612406,0.236937 -0.597231,0.702624 0.01981,0.621338 -0.175656,1.15933 -0.175656,1.15933 l 1.4404,2.7402 c 0,0 0.0055,0.984404 0.105394,1.26472 0.08276,0.23161 -0.171823,0.320097 -0.28105,0.351313 -0.251811,-0.243532 -0.515508,-0.421575 -0.702624,-0.421575 l -.2811,.2108 -.2108,.4216 1.2296,1.8268 c 0,0 0.259718,-0.98242 0.526969,-1.08907 0.1088,-0.04359 -0.0065,-0.294698 -0.210788,-0.5621 l .1405,.1405 v -0.07026 c 0,0 0.02561,-0.140525 0.386444,-0.140525 0.359988,0 0.445372,-4.0236 -0.456706,-6.28849 0,0 -0.174422,-0.265599 -0.526969,-0.28105 l .2108,-.0351 c 0.180416,-0.741473 0.683009,-1.80778 1.26472,-2.52945 0.348775,-0.432744 0.379288,-0.742181 0.245918,-0.948543 0.06907,-0.199508 0.597231,-1.6863 0.597231,-1.6863 0.220461,-0.08009 0.5621,0.245918 0.5621,0.245918 -0.34571,-0.668813 -0.700595,-0.895196 -1.01881,-0.913412 z "/>
<path id="path146" d="m 16.4468,82.6009 c -0.287293,0.01677 -0.627082,0.402019 -0.526969,0.702624 0.160182,0.481389 0.634332,1.79273 2.03761,2.35379 1.27928,0.511867 2.45256,0.714063 2.74024,1.26472 v 0.386443 c 0,0 0.526968,0.142109 0.526968,0.526969 l .527,-.3513 c 0,0 -0.28105,-0.648146 -0.28105,-1.08907 l -.6324,.1757 c -0.198941,-0.115958 -1.44544,-0.818278 -2.7051,-1.29986 -0.761707,-0.440923 -1.25447,-1.29138 -1.33499,-2.21327 -0.03004,-0.34571 -0.178937,-0.466769 -0.351312,-0.456706 Z  m 14.1228,.1054 c -0.172428,-0.01012 -0.321278,0.110993 -0.351313,0.456706 -0.08009,0.921891 -0.538568,1.77235 -1.29986,2.21327 -1.28895,0.493173 -2.59269,1.28256 -2.74024,1.37012 l -.1405,-.1405 h -0.175656 c 0.187582,0.18716 -0.210787,0.772887 -0.210787,0.772887 l .527,.3513 c 0,-0.348186 0.75768,-0.226416 0.456706,-0.526968 l -.1757,-.1757 c 0.255622,-0.552756 1.31045,-0.713733 2.59971,-1.22959 1.40286,-0.561059 1.87785,-1.90753 2.03761,-2.38892 0.10038,-0.300605 -0.23959,-0.685854 -0.526968,-0.702625 z "/>
</g>
<path style="fill:#f00" id="path188" d="m 14.3991,96.9424 c -2.80844,2.87937 -4.45453,7.22881 -4.2284,12.593 0.371369,8.81971 5.73773,16.7254 12.29,17.6776 0.218565,0.0318 0.437747,-0.10602 0.658629,-0.25028 v -3.68832 c -1.74398,-0.63648 -3.34785,-3.04646 -2.04175,-3.00335 0.07202,0.002 0.160097,0.008 0.25028,0.0263 0.659714,0.13193 1.25018,0.20665 1.79147,0.25028 v -16.9136 c -0.548666,0.025 -1.2787,-0.0688 -1.73878,-0.71133 l -.6455,-.5006 .2108,-.1185 c 0,0 -0.68624,-1.00879 -0.579593,-2.01541 0.09998,-0.940357 1.63401,-2.04022 1.84416,-2.18664 -1.9669,-0.114157 -5.62516,-0.405086 -7.81134,-1.15919 z  m 18.85,.0659 c -2.17973,0.682389 -5.61369,0.974835 -7.53471,1.09332 0.248022,0.247102 0.620852,0.524396 1.17236,0.843045 0,0 1.2785,2.41161 0.263451,3.75418 0,0 -1.41915,1.28589 -2.63452,1.11967 v 16.7687 c 0.970869,-0.0229 1.54119,-0.1449 1.54119,-0.1449 -0.239234,1.75641 -0.832105,2.59468 -1.54119,2.87162 v 3.67516 c 0.203512,0.13093 0.404218,0.25328 0.605939,0.22393 6.55229,-0.95223 11.9182,-8.85789 12.29,-17.6776 0.224407,-5.3231 -1.3932,-9.64746 -4.16253,-12.5271 z  m -19.6798,4.0703 c 0.38112,0.004 0.782049,0.21549 1.13284,0.8167 l .5796,2.8848 h -0.105382 c 0,0 -0.591499,1.33854 -0.698147,1.71244 -0.106642,0.37305 -3.62626,2.45195 -3.35901,-0.48739 0.267251,-2.94019 0.856217,-3.95177 0.856217,-3.95177 0,0 0.755419,-0.98429 1.59388,-0.97478 z  m 20.2726,.4347 c 0.470681,-0.017 0.843045,0.0527 0.843045,0.0527 0.854866,0.80217 1.38312,4.87386 1.38312,4.87386 -0.160181,2.13674 -2.3443,1.54161 -2.34472,1.54118 0,-0.5345 -0.430896,-2.02224 -0.698147,-2.45009 -0.268093,-0.42658 -1.12051,-0.70084 -1.06698,-2.35789 0.0432,-1.34574 1.09921,-1.63155 1.88368,-1.65975 z  m -5.6774,5.6115 c 1.49644,0 1.06833,0.54008 1.9232,0.54008 0.855288,0 1.3398,0.36976 1.60705,1.27774 0.267251,0.90924 0.953071,-0.0953 0.579593,2.89796 -0.37432,2.9933 -1.92319,1.80464 -1.92319,1.80464 l -.7904,1.9364 c 0,0 -0.269447,-2.0345 -0.803528,-1.55437 -0.535345,0.48097 -1.01429,1.11967 -1.01429,1.11967 -0.37432,-0.26768 -0.170907,-1.38439 -1.13284,-1.33043 -0.962358,0.054 0,-0.17125 0,-0.17125 0,0 -0.908908,0.1677 -0.908908,-1.4358 0,-1.60309 -0.636506,-2.51302 -0.316142,-2.72673 0.320786,-0.21413 0.485274,0.2154 0.645456,-0.10533 0.160182,-0.32079 0.637519,-2.25252 2.13396,-2.25252 z  m -10.2219,.0131 c 0.444525,-0.016 0.866529,0.27461 1.58071,0.72449 0.03245,0.021 0.05848,0.0452 0.09221,0.0659 h 0.922081 l .5664,.8562 c 0,0 0.695623,0.58601 0.434694,1.06698 0,0 0.572542,0.92038 0.171243,1.50167 0,0 -0.666704,2.63863 -2.41058,2.62135 -0.02655,0 -0.05248,0.002 -0.07903,0 -1.80373,-0.10028 -1.85975,0.0696 -2.1603,0.21076 0,0 -0.706676,-1.0244 -1.02746,-1.22506 -0.320784,-0.1998 -0.566421,-0.0659 -0.566421,-0.0659 0,0 -1.01641,-0.77621 -0.434694,-2.23934 l -.4215,-1.9891 c 0,0 0.02413,-0.006 0.06587,-0.0263 0.365467,-0.18042 2.19412,-1.08163 2.80576,-1.36995 0.164609,-0.0776 0.312866,-0.1264 0.461041,-0.13173 z  m 15.3592,9.0759 c 0,0 1.49146,0.26827 1.27774,1.76511 0,0 -1.76048,2.30318 -2.13396,3.42488 0,-0.00042 -0.860188,1.11367 -2.41058,0.63228 0,0 -1.32958,-4.80639 3.2668,-5.82227 z  m -18.6129,.2634 c 0.493911,-0.0627 1.95052,0.38835 2.79258,2.30521 0,0 0.470414,1.49914 0.737665,1.65974 0,0 0.213125,2.40628 -1.81781,1.76513 0,0 -0.584323,-0.69815 -1.17236,-0.69815 0.000421,-0.00042 -1.75753,-1.76478 -2.29203,-2.72672 -0.534502,-0.96194 -0.27578,-1.54888 -0.329314,-1.9232 -0.05312,-0.3739 1.70948,-0.10332 1.92319,-0.31614 0.02671,-0.0269 0.08751,-0.0569 0.158072,-0.0659 z "/>
<g style="fill:#a0a0a0" id="g25">
<path id="path279" d="m 36.7134,114.3433 -.5796,1.9364 c 1.89689,2.60001 0.263451,7.74548 0.263451,7.74548 l .4742,-.4874 .303,.6191 -.079,-1.067 c 0.04637,0 0.382314,-0.0844 0.711319,-0.15808 l -.1976,.0527 .1712,.9221 c 0,0 0.641445,-0.42799 0.935254,0.93525 0,0 1.15349,-0.58647 1.55436,0.82987 0,0 1.04063,-0.21372 1.04063,-0.0527 0,0.15976 0.696372,1.20829 -0.105382,1.50167 0,0 1.95398,0.63527 1.60706,-1.42264 -0.000843,-0.00042 -0.167653,0.85622 -0.408351,0.85622 0,0 -1.51079,-2.61932 -4.07033,-3.74102 0.0195,-0.004 0.118554,-0.0263 0.118554,-0.0263 1.12296,-4.6495 -1.73878,-8.44363 -1.73878,-8.44363 z "/>
<path id="path297" d="m 10.7898,114.0272 c 0,0 -2.40353,3.10066 -2.00223,5.58517 0.400456,2.48535 -0.171243,3.05604 -0.171243,3.05604 l .4215,-.5796 -.0922,.7245 c -2.5587,1.1217 -4.05715,3.74102 -4.05715,3.74102 -0.240694,0 -0.407928,-0.85622 -0.40835,-0.85622 -0.346921,2.05791 1.60705,1.42264 1.60705,1.42264 -0.801331,-0.29338 -0.105382,-1.34191 -0.105382,-1.50167 0,-0.16103 1.04063,0.0527 1.04063,0.0527 0.400454,-1.41634 1.55436,-0.82987 1.55436,-0.82987 0.293807,-1.36324 0.935252,-0.93525 0.935252,-0.93525 l .1449,-1.225 .2503,.8299 .1976,-.5401 c 0,0 0.338899,0.54008 0.579593,0.54008 0,0 -1.94433,-6.5048 0.553248,-7.89037 l -.4479,-1.5939 z  m -1.4358,7.6137 .0395,.1317 -.0527,-.1186 .0132,-.0132 z "/>
</g>
</g>
<g style="font-family:'Bitstream Vera Sans';font-size:12px" id="g3372" transform="matrix(0.30549106,0,0,0.30549106,9.6418988,9.7839838)">
<g style="fill:#fff;stroke:#6d6d6d;stroke-width:0" id="g4237">
<path style="font-weight:bold" id="path3162" d="m 33.9645,61.626 28.219,-28.1847 63.3204,63.471 -28.2189,28.1847"/>
<path style="font-weight:bold" id="path3940" d="m 97.3774,33.4995 28.1847,28.2189 -63.471,63.3204 -28.1847,-28.2189"/>
</g>
<path style="fill:#323232;stroke:none;font-weight:bold;stroke-width:2.3" id="text1928" d="M 114.8594,62.0482 96.8215,80.0555 114.7465,98.011 97.9518,114.7772 80.0268,96.8217 61.9889,114.829 45.1405,97.952 63.1784,79.9447 45.2534,61.9892 62.0481,45.223 79.9731,63.1785 98.011,45.1712 l 16.8484,16.877"/>
</g>
</svg>
