<svg width="128" version="1.0" xmlns="http://www.w3.org/2000/svg" height="128" xmlns:xlink="http://www.w3.org/1999/xlink">
<path style="fill:#ff3219;stroke:none" id="path4059" d="m 63.9848,8 c -30.8724,0 -55.9848,25.1192 -55.9848,56 0,30.8808 25.1124,56 55.9848,56 30.8724,0 56.0152,-25.1192 56.0152,-56 0,-30.8808 -25.1428,-56 -56.0152,-56 z  m 0,17.8251 c 6.85469,0 13.2388,1.86215 18.7934,5.01901 l -51.9403,51.9544 c -3.156,-5.5561 -5.01764,-11.9419 -5.01764,-18.7985 0,-21.1108 17.0595,-38.1749 38.1645,-38.1749 z  m 34.6066,22.1749 c 2.26573,4.86902 3.55797,10.2734 3.55797,16 0,21.1108 -17.0595,38.1749 -38.1645,38.1749 -5.72508,0 -11.128,-1.29259 -15.9956,-3.55894 l 50.6022,-50.616 z "/>
</svg>
