<svg width="128" version="1.1" xmlns="http://www.w3.org/2000/svg" height="128" style="display:inline;enable-background:new">
<g style="stroke:none" id="g61">
<path style="opacity:.65;fill:#fff" id="path4213" d="m 8.633,18.8719 c -2.63991,-1.6e-05 -5.81981,3.16026 -5.80013,5.8001 l .6668,89.4275 h 121 l .6636,-82.8615 c 0.0292,-3.63765 -3.80407,-7.0357 -6.98407,-7.0357 h -17.869 l -55.1447,.003 v -1.3666 c 0,-1.83881 -3.9666,-3.9666 -3.9666,-3.9666 z "/>
<path id="rect2985" d="m 9.3332,21.3719 c -1.73276,-1e-05 -4,2.19218 -4,4 v 2 c 0,22.1431 0.6668,50.2333 0.6668,62.9938 v 23.7338 c 0,2.5513 2.05959,4.6027 4.62097,4.6027 h 106.758 c 2.56138,0 4.60034,-2.0515 4.62097,-4.6027 l .6636,-82.0612 c 0.0206,-2.5512 -2.72757,-5.4858 -5.28457,-5.336 h -17.0693 l -57.6441,.003 v -1.3666 c 0,-1.83881 -2.05707,-3.96659 -3.9666,-3.9666 z "/>
</g>
<path style="fill:#ecf0f1;stroke:#7f8c8d;stroke-width:3" id="rect4090" d="m 40.928,1.8908 -30.6058,81.3526 76.4251,28.752 30.9307,-81.2352 -25.0506,-9.4195 Z "/>
<g style="fill-rule:evenodd">
<path style="fill:#7f8c8d;stroke:#003bc3;stroke-linecap:square;stroke-width:0;stroke-miterlimit:2.013" id="line2" d="m 54.8906,20.1113 l -2.4336,6.4688 39.6562,14.9199 2.4336,-6.4707 -39.6562,-14.918 z  m -11.3301,10.5078 l -2.4355,6.4688 52.5137,19.7559 2.4336,-6.4688 -52.5117,-19.7559 z  m -4.8887,12.9316 l -2.4336,6.4707 52.5137,19.7559 2.4336,-6.4707 -52.5137,-19.7559 z  m -4.7695,12.9766 l -2.4336,6.4707 52.5137,19.7559 2.4336,-6.4707 -52.5137,-19.7559 z "/>
<rect width="122.664" x="2.667" y="66.65" rx="4.5" height="56.051998" ry="4.5" style="fill:#5e87b2;stroke:none;stroke-linecap:round;stroke-width:2" id="rect4210"/>
</g>
</svg>
