<svg width="48" version="1.0" xmlns="http://www.w3.org/2000/svg" height="48" xmlns:xlink="http://www.w3.org/1999/xlink">
<defs>
<linearGradient id="linearGradient3654">
<stop offset="0" style="stop-color:#f2b200"/>
<stop offset="0.2" style="stop-color:#f2b200"/>
<stop offset="0.2" style="stop-color:#e5a800"/>
<stop offset="0.4" style="stop-color:#e5a800"/>
<stop offset="0.4" style="stop-color:#d99f00"/>
<stop offset="0.6" style="stop-color:#d99f00"/>
<stop offset="0.6" style="stop-color:#cc9600"/>
<stop offset="0.8" style="stop-color:#cc9600"/>
<stop offset="0.8" style="stop-color:#b28300"/>
<stop offset="1" style="stop-color:#b28300"/>
</linearGradient>
<linearGradient xlink:href="#linearGradient3654" id="linearGradient3656" y1="33.6406" x1="8" y2="33.6406" x2="40" gradientUnits="userSpaceOnUse"/>
</defs>
<g style="color:#000;fill-rule:evenodd">
<path style="fill:#666" d="M 12.156,14.5 V 21 h 5.874825 L 18,15.5 c -0.02298,-3.996099 2,-7 6,-7 4,0 5.980806,3.110858 6,7 l 0.031,5.5 h 5.844 V 14.5 C 35.875516,7.87961 31,2.5 24,2.5 c -7,0 -11.844204,5.37961 -11.844,12 z"/>
<path style="fill:#737373" d="M 12.6562,14.5 V 21 h 4.874 l -0.0301,-5.498 c -0.01028,-2.08291 0.507454,-3.9477 1.60156,-5.3125 1.09412,-1.3648 2.77329,-2.18945 4.89845,-2.18945 2.12962,0 3.79843,0.856151 4.88477,2.23242 1.08633,1.37627 1.60522,3.23683 1.61523,5.26562 l 0.0291,5.502 h 4.846 v -6.5 c 0,-6.37488 -4.63222,-11.5 -11.376195,-11.5 C 17.25504,3 12.6562,8.1235 12.6562,14.5 Z"/>
<path style="fill:#808080" d="m 24.0312,3.5 c -6.52412,0 -10.875,4.86391 -10.875,11 V 21 h 3.871428 L 17,15.5039 C 16.98929,13.33667 17.525943,11.35511 18.71093,9.87695 19.89972,8.39404 21.74549,7.5 24,7.5 c 2.26362,0 4.0992,0.929289 5.27734,2.42188 1.17414,1.48751 1.71223,3.46168 1.72266,5.57422 L 31.02742,21 H 34.875 v -6.5 c 0,-6.13261 -4.38677,-11 -10.8438,-11 z"/>
<path style="fill:#8c8c8c" d="m 13.6562,14.5 v 6.5 h 2.86866 l -.0251,-5.4941 c -0.01111,-2.25127 0.545007,-4.35057 1.82031,-5.94141 1.28543,-1.60345 3.293,-2.56445 5.67969,-2.56445 2.40046,0 4.39783,1 5.66992,2.61133 1.2614,1.59807 1.81924,3.68692 1.83008,5.88281 l .0251,5.5058 h 2.85 v -6.5 c 0,-5.89411 -4.13805,-10.5 -10.3787,-10.5 -6.2406,0 -10.34,4.60028 -10.34,10.5 Z "/>
<path style="fill:#999" d="m 14.1562,14.5 v 6.5 h 1.86753 l -.0235,-5.4922 c -0.01152,-2.33514 0.564481,-4.55288 1.92969,-6.25586 1.38336,-1.72561 3.54941,-2.75195 6.07031,-2.75195 2.53928,0 4.69501,1.06831 6.0625,2.80078 1.34827,1.70812 1.92625,3.9124 1.9375,6.19141 l .024,5.5078 h 1.851 v -6.5 c 0,-5.66004 -3.88546,-10 -9.88037,-10 -5.99491,0 -9.83866,4.3319 -9.83866,10 Z "/>
<path style="fill:#bfbfbf" d="M 24.0312,2.5 C 17,2.5 12.1562,7.87961 12.1562,14.5 V 21 h 3.365 l -0.021,-5.4902 c -0.01194,-2.41892 0.584283,-4.7556 2.03906,-6.57031 1.48216,-1.84886 3.80433,-2.93945 6.46094,-2.93945 2.67952,0 4.99119,1.13564 6.45508,2.99023 1.43482,1.81778 2.03327,4.13805 2.04492,6.5 l 0.021,5.5098 h 3.354 v -6.5 c 0,-6.62039 -4.8749,-12 -11.8438,-12 z"/>
<path style="fill:#a6a6a6" d="M 24.0312,2.5 C 17,2.5 12.1562,7.87961 12.1562,14.5 V 21 h 3.36409 l -0.0211,-5.4902 c -0.01194,-2.41892 0.584283,-4.7556 2.03906,-6.57031 1.48216,-1.84886 3.80433,-2.93945 6.46094,-2.93945 2.67952,0 4.99119,1.13564 6.45508,2.99023 1.43482,1.81778 2.03327,4.13805 2.04492,6.5 l 0.021,5.5098 h 3.354 v -6.5 c 0,-6.62039 -4.8749,-12 -11.8438,-12 z"/>
<path style="fill:#d8d8d8" d="M 24.0312,2.5 C 17,2.5 12.1562,7.87961 12.1562,14.5 V 21 h 2.859 l -0.015,-5.4883 c -0.01235,-2.50266 0.604344,-4.95864 2.14844,-6.88477 1.58156,-1.97285 4.05812,-3.12695 6.85156,-3.12695 2.82079,0 5.28666,1.20208 6.84766,3.17969 1.52113,1.92712 2.14028,4.36381 2.15234,6.80859 l 0.015,5.5117 h 2.86 v -6.5 c 0,-6.62039 -4.8749,-12 -11.8438,-12 z"/>
<path style="fill:#b2b2b2" d="M 24.0312,2.5 C 17,2.5 12.1562,7.87961 12.1562,14.5 V 21 h 2.859 l -0.016,-5.4883 c -0.01235,-2.50266 0.604344,-4.95864 2.14844,-6.88477 1.58156,-1.97285 4.05812,-3.12695 6.85156,-3.12695 2.82079,0 5.28666,1.20208 6.84766,3.17969 1.52113,1.92712 2.14028,4.36381 2.15234,6.80859 l 0.016,5.5117 h 2.859 v -6.5 c 0,-6.62039 -4.8749,-12 -11.8438,-12 z"/>
<path style="fill:#bfbfbf" d="M 24.0312,2.5 C 17,2.5 12.1562,7.87961 12.1562,14.5 V 21 h 2.351 l -0.008,-5.4863 c -0.01277,-2.58641 0.624617,-5.16195 2.25781,-7.19922 1.68136,-2.09735 4.31103,-3.31445 7.24219,-3.31445 2.96284,0 5.58163,1.26787 7.24023,3.36914 1.60724,2.03622 2.2473,4.58963 2.25977,7.11719 l 0.008,5.5137 h 2.367 v -6.5 c 0,-6.62039 -4.8749,-12 -11.8438,-12 z"/>
<path style="fill:#ccc" d="m 12.1562,14.5 v 6.5 h 1.84981 l -.006,-5.4863 c -0.01285,-2.66955 0.645488,-5.36405 2.36719,-7.51172 1.78145,-2.2222 4.56325,-3.50195 7.63281,-3.50195 3.10548,0 5.87623,1.3332 7.63281,3.55859 1.69319,2.14511 2.35431,4.81548 2.36719,7.42578 l .006,5.5156 h 1.86904 v -6.5 c 0,-6.62039 -4.8749,-12 -11.875,-12 -7,0 -11.8439,5.37961 -11.8439,12 Z "/>
<path style="fill:#d9d9d9" d="m 12.1562,14.5 v 6.5 h 1.34976 l -.0059,-5.4863 c -0.01293,-2.75276 0.666537,-5.56637 2.47656,-7.82422 1.88174,-2.3473 4.8149,-3.68945 8.02344,-3.68945 3.24858,0 6.17056,1.39817 8.02539,3.74805 1.779,2.25383 2.46133,5.04133 2.47461,7.73438 l .0059,5.5176 h 1.3691 v -6.5 c 0,-6.62039 -4.8749,-12 -11.875,-12 -7,0 -11.8439,5.37958 -11.8439,12 Z "/>
<path style="fill:#e5e5e5" d="m 12.1562,14.5 v 6.5 h 0.849759 l -.0056,-5.4863 c -0.01299,-2.83603 0.687741,-5.76889 2.58594,-8.13672 1.98216,-2.47257 5.06609,-3.87695 8.41406,-3.87695 3.39204,0 6.46467,1.46288 8.41797,3.9375 1.8647,2.3624 2.56834,5.26718 2.58203,8.04297 l .006,5.5195 h 0.869 v -6.5 c 0,-6.62039 -4.8749,-12 -11.8751,-12 -7,0 -11.844,5.37961 -11.844,12 Z "/>
<path style="fill:#f2f2f2" d="M 12.056,14.5 V 21 h 0.54595 l -0.0039,-5.4863 c -0.01295,-2.8942 0.67493,-5.9734 2.634623,-8.41794 2.05252,-2.56033 5.32144,-4.09573 8.76728,-4.09573 3.49266,0 6.78645,1.58863 8.80878,4.15071 1.92462,2.43831 2.575377,5.49408 2.589317,8.32781 l 0.0039,5.5215 H 35.975 v -6.5 C 35.975,7.87966 31,2.4 24,2.4 17,2.4 12.056,7.8888384 12.056,14.5 Z"/>
</g>
<path style="fill:url(#linearGradient3656)" d="M 8,21 V 45 H 40 V 21 Z"/>
</svg>
