<svg width="48" version="1.1" xmlns="http://www.w3.org/2000/svg" height="48">
<path style="opacity:.5" d="M 5.372,6.628 V 43.3718 H 44.2077 L 44.372,6.626 31.6432,6.6279 Z"/>
<path style="fill:#ecf0f1" d="m 4.5719,5.628 0,36.7438 38.8357,0 .1643,-36.7458 -12.7288,.0019 z "/>
<g transform="matrix(-0.64864854,0,0,0.64864854,39.567562,8.4324065)">
<g style="fill:#c76b00" transform="matrix(-1.0868712,0,0,1.0868712,49.81656,2.3067628)">
<path d="m 28.6183,3.5116 c -1.09486,0.122487 -2.0112,1.15338 -2.00449,2.25505 v 4.98067 h -9.43505 c -3.47028,0 -6.51753,1.34841 -8.21283,3.50785 -2.47048,3.14685 -2.5,7.62156 -1.93466,10.3745 0.548486,2.67088 4.29951,13.0047 7.2166,11.6708 2.91709,-1.33395 0.173452,-4.48649 -1.05483,-10.9859 -0.483326,-2.5575 0.71545,-6.41018 5.74635,-6.73923 h 7.67442 v 5.87202 c -0.0053,0.873305 0.53731,1.7355 1.33632,2.08801 0.799024,0.352508 1.80868,0.175267 2.44993,-0.417602 l 9.6911,-9.7997 c 0.944978,-0.867012 0.90291,-2.57695 -0.08352,-3.39649 l -9.6911,-8.881 c -0.463268,-0.396032 -1.09203,-0.591883 -1.69825,-0.528962 Z "/>
</g>
</g>
</svg>
