<svg width="160" version="1.0" xmlns="http://www.w3.org/2000/svg" height="160">
<path style="fill:#646464" d="m 37.9277,0 l .0371,35.0723 h 74.2441 l 14.0625,21.3301 v 64.3262 h 33.7285 v -100.998 l -12.4629,-19.7305 h -109.609 z "/>
<path style="fill:#fff" d="m 129.9531,70.4121 l -3.6816,.0059 v 37.5723 l 3.7871,-.0058 c 3.66477,-0.00565 6.60902,-2.66236 6.59961,-5.95704 l -.0742,-25.6777 c -0.0094,-3.29468 -2.96609,-5.94314 -6.63086,-5.9375 z "/>
<path style="fill:#3f3f3f" d="m 126.2715,79.1152 v 1.51172 l 2.3359,.0059 .0039,-1.5117 -2.3399,-.0059 z  m 0,9.377 v 1.51172 l 2.3027,.0059 .0019,-1.5117 -2.3047,-.0059 z  m 0,10.0391 v 1.51172 l 2.5469,.0059 .0039,-1.5117 -2.5508,-.0059 z "/>
<path style="fill:#fff" d="m 139.6875,6.1309 l -55.5977,.0625 c -0.388761,0 -0.701519,0.314364 -0.701172,0.703125 l .0254,28.1758 h 28.7949 l 5.1543,7.8164 22.3574,-.0254 c 0.38876,0 0.70152,-0.314364 0.70118,-0.703125 l -.0332,-35.3281 c 0,-0.388761 -0.31241,-0.701614 -0.70117,-0.701172 z "/>
<path style="fill:#636363" d="m 122.0525,9.435 12.0664,0 0,30.1267 -12.0664,0 z "/>
<path style="fill:#646464" d="m 0,39.272 109.6087,0 12.463,19.7299 0,100.998 -121.9465,0 Z "/>
<path style="fill:#fff" d="m 29.6269,109.8256 h 62.0836 c 3.66477,0 6.61511,2.6524 6.61511,5.9471 v 25.6788 c 0,3.2947 -2.95034,5.9471 -6.61511,5.9471 h -62.0836 c -3.66477,0 -6.61511,-2.6524 -6.61511,-5.9471 v -25.6788 c 0,-3.2947 2.95034,-5.9471 6.61511,-5.9471 z " transform="matrix(1,-0.00153932,0.00285462,1,0,0)"/>
<g style="fill:#3f3f3f">
<path d="m 32.5391,118.2656 -.0039,1.5117 58.1445,.1289 .0039,-1.5117 z "/>
<path d="m 32.5039,127.6406 -.0039,1.5117 58.1445,.1289 .0039,-1.5117 z "/>
<path d="m 32.75,137.6816 -.0039,1.5117 58.1445,.1289 .0039,-1.5117 z "/>
</g>
<path style="fill:#fff" d="m 46.1204,45.518 h 55.5981 c 0.38876,0 0.70173,0.312974 0.70173,0.701736 v 35.3299 c 0,0.388761 -0.31297,0.701735 -0.70173,0.701735 h -55.5981 c -0.388762,0 -0.701736,-0.312974 -0.701736,-0.701735 v -35.3299 c 0,-0.388762 0.312974,-0.701736 0.701736,-0.701736 z " transform="matrix(1,-0.00113658,8.9116331e-4,1,0,0)"/>
<path style="fill:#636363" d="m 84.1243,48.7071 12.0664,0 0,30.1267 -12.0664,0 z "/>
</svg>
