<svg width="48" version="1.1" xmlns="http://www.w3.org/2000/svg" height="48" xmlns:xlink="http://www.w3.org/1999/xlink">
<defs id="defs13">
<linearGradient id="linearGradient2888-4-3">
<stop offset="0.0000000" style="stop-color:#fff" id="stop2889-50"/>
<stop offset="1" style="stop-color:#b4b4b4" id="stop2894-1"/>
</linearGradient>
<linearGradient id="linearGradient4214">
<stop offset="0" style="stop-color:#696969" id="stop4216"/>
<stop offset="1" style="stop-color:#282828" id="stop4218"/>
</linearGradient>
<linearGradient gradientTransform="matrix(1.9256264,0,0,1.868326,-324.78178,-277.88898)" id="linearGradient4859" xlink:href="#linearGradient2888-4-3" y1="165.82466" y2="151.52789" x1="182.28128" x2="175.20076" gradientUnits="userSpaceOnUse"/>
<linearGradient gradientTransform="matrix(0.79306874,0,0,0.79306874,-9.6450616,-9.3523644)" id="linearGradient4220" xlink:href="#linearGradient4214" y1="64.221565" y2="69.096527" x1="69.966942" gradientUnits="userSpaceOnUse" x2="64.52948"/>
<linearGradient gradientTransform="matrix(1.7911787,0,0,1.7376788,59.309771,-46.857453)" id="linearGradient3808" xlink:href="#linearGradient2888-4-3" y1="34.121754" y2="41.695" x1="-26.252876" x2="-21.25" gradientUnits="userSpaceOnUse"/>
</defs>
<path style="opacity:.5" id="path4144" d="m 4,5 0,39 39,0 v -39 z "/>
<path style="fill:#e2e8ea" id="rect4090" d="m 3,3 0,39 39,0 0,-39 Z "/>
<g id="g867">
<path style="opacity:.3;fill:#1e1e1e;fill-rule:evenodd;color:#000;stroke-width:.793" id="path4233" d="m 20.6589,5.2504 c -3.96876,-0.019303 -7.92422,1.60977 -10.802,4.41671 -2.87777,2.80692 -4.60835,6.73262 -4.71956,10.7263 -0.111213,3.99366 1.40792,7.95694 4.13908,10.802 l .0505,.0252 c 2.72903,2.82069 6.57413,4.4732 10.5243,4.49242 2.19691,0.01066 4.37706,-0.518888 6.38528,-1.43858 0.0773,-0.01019 0.148366,-0.01668 0.227144,-0.02524 1.70892,-0.185709 3.73498,0.0187 5.42623,1.41334 -0.272985,0.406636 -0.248158,1 0.100949,1.36286 l 10.1977,10.2874 c 0.398984,0.415615 1.07667,0.427466 1.48906,0.02524 l 2.7762,-2.7004 c 0.412396,-0.40223 0.424221,-1.09869 0.02524,-1.51429 l -10.1977,-10.2874 c -0.358104,-0.373033 -0.948424,-0.411261 -1.36287,-0.126192 -1.32201,-1.76102 -1.47273,-3.79222 -1.23668,-5.50194 0.0076,-0.05508 0.017,-0.09758 0.02524,-0.151429 1.00795,-2.02041 1.60302,-4.23417 1.66573,-6.48624 0.11088,-3.98175 -1.3981,-7.93362 -4.11384,-10.7768 l -.0252,-.0252 c -2.73114,-2.84504 -6.60608,-4.49836 -10.5749,-4.51764 z  m 0,1.6153 c 3.52205,0.017131 6.99686,1.5203 9.41388,4.03812 2.41704,2.51782 3.78376,6.06161 3.68479,9.6158 v 0.02524 c -0.105599,3.54585 -1.67839,7.09198 -4.24003,9.59058 -2.56765,2.50444 -6.14421,3.97955 -9.66624,3.96241 -3.52199,-0.01715 -6.99679,-1.52032 -9.41383,-4.03814 -2.41704,-2.51784 -3.78376,-6.06161 -3.68479,-9.6158 v -0.02525 c 0.10557,-3.54586 1.67838,-7.09197 4.24002,-9.59059 2.56765,-2.50444 6.14421,-3.97953 9.66624,-3.96241 z "/>
<path style="fill:url(#linearGradient4220);fill-rule:evenodd;color:#000;stroke-width:.793" id="path4249" d="m 33.5277,22.42 c 0,0 -0.212827,0.43518 -0.470884,1.11525 -0.703157,1.81502 -1.31222,3.24583 -3.71751,5.40277 -2.22841,1.99833 -4.75096,2.85476 -5.9728,3.22184 -0.0258,0.0073 -0.0741,0.01759 -0.09913,0.02478 -0.285416,0.08408 -0.966553,0.346968 -0.966553,0.346968 -0.0039,0.0016 -0.07435,0.02478 -0.07435,0.02478 l .2478,.7435 c 0,0 0.07253,-0.02435 0.07435,-0.02478 0,0 0.367188,-0.152432 0.966552,-0.322184 0.0068,-0.002 0.01795,0.002 0.02478,0 1.70466,-0.479988 5.25905,-1.07679 7.88112,1.16482 -0.284221,0.381185 -0.268718,0.932982 0.07435,1.28874 l 10.0359,10.0395 c 0.392074,0.406574 1.06651,0.45142 1.48701,0.07435 l 2.7757,-2.5031 c 0.420491,-0.37707 0.441638,-1.03086 0.04957,-1.43743 l -10.0358,-10.0395 c -0.351331,-0.364353 -0.898808,-0.412217 -1.31352,-0.148701 -1.40684,-1.75474 -1.54971,-3.75714 -1.28874,-5.42757 0.140764,-0.900989 0.401301,-1.66708 0.619585,-2.23051 0.222792,-0.575056 0.396534,-0.941768 0.396534,-0.941768 0.0073,-0.0184 0.01745,-0.03108 0.02478,-0.04956 l -.7187,-.3222 z "/>
<ellipse cx="19.905357" cy="19.174864" rx="13.479384" ry="13.078282" style="opacity:.35;fill:url(#linearGradient4859);fill-rule:evenodd;color:#000;stroke-width:1.897" id="path4272"/>
<path style="opacity:.35;fill:url(#linearGradient3808);fill-rule:evenodd;color:#000;stroke-width:1.188" id="path5507" d="m 9.1568,22.6497 c 8.9559,-1.73768 7.41735,-10.6366 17.2575,-12.3743 -3.835,-3.07534 -10.044,-2.54596 -13.6751,0.210532 -3.70199,2.81024 -5.37353,8.6884 -3.58236,12.1637 z "/>
<path style="fill:none;stroke:#4d4d4d;stroke-width:3.246" id="path2420" d="m 34.5548,19.6572 a 14.1288,14.6634 85 0,1 -29.2954,-0.947186 14.1288,14.6634 85 1,1 29.2954,0.947186 Z "/>
</g>
</svg>
