<svg width="48" version="1.1" xmlns="http://www.w3.org/2000/svg" height="48">
<circle cx="24" cy="24" style="paint-order:normal;fill:#5b6d71;fill-rule:evenodd" id="path818" r="22"/>
<path style="fill:#dee2e4;color:#4d4d4d" id="path855" d="m 23.0449,8 c -0.676751,-0.00756 -1.59365,0.488398 -2.94922,0.869141 -3.02386,0.838531 -4.08962,0.278312 -3.30078,3.35352 l .5859,2.2656 c -0.205879,0.182962 -0.49334,0.402985 -0.699218,0.585938 -0.857548,0.651438 -1.53529,1.51175 -2.13086,2.33594 l -2.2773,-.5918 c -3.07974,-0.798396 -2.60922,0.518617 -3.38672,3.1543 -0.953031,3.09938 -1.83004,3.55645 1.28906,4.38672 l 2.3926,.6367 c 0.05428,1.02097 0.301964,2.05659 0.744141,3.10156 l -1.9668,1.5977 c -2.52704,2.05615 -1.44973,2.233 0.369141,4.44727 1.96934,2.53269 1.87042,3.22992 4.30859,1.24609 l 1.9648,-1.6035 c 1.42384,0.910013 3.18132,1.48837 4.88086,1.71094 l .5742,2.3633 c 0.790879,3.24906 1.74981,2.03493 4.46094,1.27344 3.02386,-0.838529 4.08962,-0.278282 3.30078,-3.35352 l -.5859,-2.2656 c 0.205879,-0.183019 0.493336,-0.402988 0.699218,-0.585938 0.857547,-0.651432 1.53529,-1.51174 2.13086,-2.33594 l 2.2773,.5918 c 2.9534,1.18646 2.60919,-0.518617 3.38672,-3.1543 0.953033,-3.09938 1.83005,-3.55645 -1.28906,-4.38672 l -2.3926,-.6367 c -0.05428,-1.02097 -0.301963,-2.05656 -0.744141,-3.10156 l 1.9668,-1.5977 c 2.52704,-2.05615 1.44973,-2.23495 -0.369141,-4.44922 -1.96934,-2.53269 -1.87042,-3.22799 -4.30859,-1.24414 l -1.9648,1.6035 c -1.42384,-0.91001 -3.18135,-1.48836 -4.88086,-1.71094 l -.5742,-2.3633 c -0.39544,-1.62452 -0.834973,-2.13505 -1.51172,-2.14258 z  m .9551,10 a 6,6 0 0,1 6,6 6,6 0 0,1 -6,6 6,6 0 0,1 -6,-6 6,6 0 0,1 6,-6 z "/>
</svg>
