<svg width="48" version="1.1" xmlns="http://www.w3.org/2000/svg" height="48">
<path style="opacity:.5" d="M 5.372,6.628 V 43.3718 H 44.2077 L 44.372,6.626 31.6432,6.6279 Z"/>
<path style="fill:#ecf0f1" d="m 4.572,5.6282 0,36.7438 38.8357,0 .1643,-36.7458 -12.7288,.0019 z "/>
<g style="fill-rule:evenodd">
<g>
<rect width="26.684752" x="10.630147" y="16.781471" height="2.9221342" style="fill:#b4bcbc;stroke-miterlimit:2.013"/>
<g style="stroke-miterlimit:2">
<g style="fill:#b4bcbc">
<rect width="20.151466" x="13.914136" y="10.937217" height="2.9221342"/>
<rect width="16.36001" x="10.620436" y="22.625763" height="2.9221363"/>
<rect width="9.8099051" x="10.67058" y="28.470057" height="2.922138"/>
</g>
<rect width="26.684752" x="10.660873" y="34.314259" height="2.9221342" style="fill:#7f8c8d"/>
</g>
</g>
<g style="stroke:#a38503" transform="matrix(-1,0,0,1,48.48503,-5.2458449)">
<path style="fill:#9fd36d;stroke:#59852f;stroke-width:1.024" d="m 3.9652,13.1036 0,30.7126 39.9263,0 l -39.9263,-30.7126 Z  m 6.1425,13.3088 15.3563,11.2613 -15.3563,0 0,-11.2613 z "/>
<g style="fill:none;fill-opacity:.75;stroke-linecap:round">
<path style="stroke:#59852f" d="m 8.5,43.5 0,-3"/>
<path style="stroke:#59852f" d="m 14.5,43.5 0,-3"/>
<path style="stroke:#59852f" d="m 20.5,43.5 0,-2.9643"/>
<path style="stroke:#59852f" d="m 26.5,43.5 0,-3"/>
<path style="stroke:#59852f" d="m 32.5,43.5 0,-3"/>
</g>
</g>
</g>
</svg>
