<svg width="48" version="1.1" xmlns="http://www.w3.org/2000/svg" height="48">
<path style="opacity:.5" id="path4144" d="m 4.0001,5 -.0001,38.9999 39.0001,.0002 v -39.0001 z "/>
<path style="fill:#e2e8ea" id="rect4090" d="m 3,3 -.0001,38.9998 39.0001,.0002 0,-39.0001 Z "/>
<g style="stroke:none" id="g6">
<path style="opacity:.6" id="rect3896" d="m 23.6623,9.4131 c -8.55965,0 -15.5764,6.96318 -15.5764,15.4984 0,8.53521 7.01674,15.4977 15.5764,15.4977 3.14632,0 6.08232,-0.94333 8.53972,-2.55708 l 9.8609,9.8002 c 0.43411,0.431449 1.09824,0.46595 1.48935,0.07725 l 2.9527,-2.9346 c 0.391101,-0.388706 0.356141,-1.04851 -0.07797,-1.47996 l -9.8399,-9.78 c 1.67199,-2.46809 2.65093,-5.43595 2.65093,-8.62348 0,-8.53521 -7.01604,-15.4984 -15.5757,-15.4984 z  m 0,5.6506 c 5.52492,0 9.92583,4.38495 9.92583,9.84788 0,5.46289 -4.40091,9.84788 -9.92583,9.84788 -5.52492,0 -9.92657,-4.38495 -9.92657,-9.84788 0,-5.46293 4.40165,-9.84788 9.92657,-9.84788 z "/>
<rect width="6.2353573" x="-1.5675442" y="46.868389" rx="1.0086598" ry="1.1195862" height="16.965984" style="fill:#c8c8c8" id="rect3755" transform="matrix(0.70710678,-0.70710678,0.70710678,0.70710678,0,0)"/>
<circle cx="24.157726" cy="22.635143" style="fill:#fff;fill-rule:evenodd;stroke-linejoin:round;fill-opacity:.392;stroke-linecap:square" id="path4228" r="11"/>
</g>
<path style="fill:none;stroke:#c8c8c8;stroke-width:5.726" id="path2985" d="m 37.5298,22.3377 a 12.8825,12.8825 0 0,1 -12.8825,12.8825 12.8825,12.8825 0 0,1 -12.8825,-12.8825 12.8825,12.8825 0 0,1 12.8825,-12.8825 12.8825,12.8825 0 0,1 12.8825,12.8825 Z "/>
</svg>
