<svg width="48" version="1.0" xmlns="http://www.w3.org/2000/svg" viewBox="0 0 48 48" height="48">
<g style="stroke:none" id="g4508" transform="matrix(1.0238829,0,0,1.0231065,-0.57377247,-0.57195925)">
<path style="opacity:.6;fill:#fff" id="path4137" d="m 40.7053,11.4997 c -2.58472,-3.30688 -3.03405,-3.45491 -6.2341,-0.864649 l -2.5815,2.0896 c -1.86876,-1.18818 -4.173,-1.94325 -6.40363,-2.23386 l -.7554,-3.0871 c -1.03802,-4.2422 -2.74836,-3.81339 -6.30668,-2.81913 -5.25288,0.414522 -4.91223,1.52427 -3.87687,5.53952 l .7632,2.9598 c -0.270216,0.238879 -0.645386,0.522403 -0.915602,0.761283 -1.12551,0.850567 -2.01214,1.97135 -2.79381,3.0475 l -2.9931,-.7719 c -4.04212,-1.04246 -3.36256,1.03115 -4.91717,4.04492 -1.28321,3.82003 -1.92901,4.71768 2.16477,5.80177 l 3.1427,.8322 c 0.071254,1.33305 0.397058,2.68177 0.97741,4.04616 l -2.8969,.9202 c -3.6133,3.01377 -1.58592,4.08286 0.801316,6.97396 2.58472,3.30688 2.44894,4.21554 5.649,1.62528 l 2.5815,-2.0896 c 1.86876,1.18818 4.173,1.94325 6.40363,2.23385 l .7554,3.0871 c 1.03802,4.2422 2.29275,2.65753 5.85107,1.66327 3.96877,-1.09485 5.63836,-0.562173 4.56902,-4.68146 l -1,-2.662 c 0.270217,-0.238885 0.645387,-0.522405 0.915604,-0.761283 1.12551,-0.850566 2.01214,-1.97136 2.79382,-3.04749 l 2.9931,.7719 c 3.87629,1.54913 3.4236,-0.679892 4.44409,-4.12128 0.793024,-4.04681 3.11841,-6.3862 -1.38292,-6.81461 l -3.4515,.257 c -0.07125,-1.33306 -0.397057,-2.68177 -0.977408,-4.04616 l 2.5815,-2.0896 c 3.31669,-2.68467 2.83742,-3.87257 0.09919,-6.56513 z  m -13.2505,17.9802 c -2.58154,2.08961 -6.44442,1.74964 -8.63898,-0.787265 -2.19456,-2.5369 -1.74964,-6.44441 0.787268,-8.63898 2.58155,-2.08961 6.44441,-1.74964 8.63898,0.787268 2.08961,2.58155 1.74964,6.44441 -0.787268,8.63898 z "/>
<path style="fill:#919191" id="path9" d="M 40.1202,10.7602 C 37.53548,7.45332 37.67125,6.54466 34.4712,9.13492 l -2.5815,2.0896 C 30.02094,10.03634 27.7167,9.28127 25.48607,8.99066 l -0.7554,-3.0871 C 23.69265,1.66136 22.43792,3.24603 18.8796,4.24029 14.91083,5.33515 13.51176,4.608699 14.54712,8.62395 l 0.7632,2.9598 c -0.270216,0.238879 -0.645386,0.522403 -0.915602,0.761283 -1.12551,0.850567 -2.01214,1.97135 -2.79381,3.0475 l -2.9931,-0.7719 c -4.04212,-1.04246 -3.4236,0.679894 -4.44409,4.12128 -1.25084,4.04681 -2.40209,4.64132 1.69169,5.72541 l 3.1427,0.8322 c 0.071254,1.33305 0.397058,2.68177 0.97741,4.04616 l -2.5815,2.0896 c -3.31669,2.68467 -1.90133,2.9134 0.485909,5.8045 2.58472,3.30688 2.44894,4.21554 5.649,1.62528 l 2.5815,-2.0896 c 1.86876,1.18818 4.173,1.94325 6.40363,2.23385 l 0.7554,3.0871 c 1.03802,4.2422 2.29275,2.65753 5.85107,1.66327 3.96877,-1.09485 5.36784,-0.368369 4.33248,-4.38365 l -0.7632,-2.9598 c 0.270217,-0.238885 0.645387,-0.522405 0.915604,-0.761283 1.12551,-0.850566 2.01214,-1.97136 2.79382,-3.04749 l 2.9931,0.7719 c 3.87629,1.54913 3.4236,-0.679892 4.44409,-4.12128 1.25084,-4.04681 2.40209,-4.64133 -1.69168,-5.72541 l -3.1427,-0.8322 c -0.07125,-1.33306 -0.397057,-2.68177 -0.977408,-4.04616 l 2.5815,-2.0896 c 3.31669,-2.68467 1.90133,-2.9134 -0.485912,-5.8045 z M 27.4548,28.4797 c -2.58154,2.08961 -6.44442,1.74964 -8.63898,-0.787265 -2.19456,-2.5369 -1.74964,-6.44441 0.787268,-8.63898 2.58155,-2.08961 6.44441,-1.74964 8.63898,0.787268 2.08961,2.58155 1.74964,6.44441 -0.787266,8.63898 z"/>
</g>
</svg>
