<svg width="48" version="1.1" xmlns="http://www.w3.org/2000/svg" height="48" xmlns:xlink="http://www.w3.org/1999/xlink">
<defs id="defs3815">
<linearGradient id="linearGradient3755">
<stop offset="0" style="stop-color:#00448c" id="stop3757"/>
<stop offset="1" style="stop-color:#006ebf" id="stop3759"/>
</linearGradient>
<linearGradient gradientTransform="matrix(0.99999804,0,0,0.99999804,-378.8564,-514.07552)" xlink:href="#linearGradient3755" id="linearGradient3761" y1="559.57648" x1="402.87729" y2="516.57672" x2="402.75009" gradientUnits="userSpaceOnUse"/>
<linearGradient gradientTransform="matrix(0.99999804,0,0,0.99999804,-378.8564,-514.07552)" xlink:href="#linearGradient3755" id="linearGradient4150" y1="559.57648" x1="402.87729" y2="516.57672" gradientUnits="userSpaceOnUse" x2="402.75009"/>
</defs>
<g style="fill-rule:evenodd;stroke:none">
<path style="fill:url(#linearGradient4150)" id="path4152" d="m 23.9916,2.5 c -5.62907,0.00033 -11.221,2.31869 -15.1983,6.29882 -3.97741,3.98011 -6.29321,9.57292 -6.29321,15.2012 0,5.62822 2.3158,11.221 6.29321,15.2012 3.97741,3.98013 9.56927,6.29849 15.1983,6.29882 5.62907,0.000331 11.2243,-2.31588 15.2068,-6.29602 3.98249,-3.98014 6.30162,-9.57509 6.30162,-15.204 0,-5.62885 -2.31912,-11.2238 -6.30162,-15.204 -3.98248,-3.98014 -9.57767,-6.29634 -15.2068,-6.29602 Z "/>
<path style="fill:#fff" id="path4150" d="m 23.9916,8.2333 c 4.12799,-0.00024 8.23261,1.69757 11.1531,4.61633 2.92049,2.91878 4.62194,7.02248 4.62194,11.1503 0,4.12782 -1.70145,8.23153 -4.62194,11.1503 -2.9205,2.91877 -7.02513,4.61657 -11.1531,4.61633 -4.12798,-0.00025 -8.22794,-1.70039 -11.1447,-4.61913 -2.91677,-2.91876 -4.61354,-7.02014 -4.61354,-11.1475 0,-4.12736 1.69677,-8.22875 4.61354,-11.1475 2.91676,-2.91874 7.01671,-4.61888 11.1447,-4.61913 z "/>
<path style="fill:url(#linearGradient3761)" id="path3272" d="m 21.1333,11.1 0,15.7667 2.8667,0 2.8667,0 10.0333,0 0,-5.7333 -10.0333,0 0,-10.0333 -5.7333,0 z "/>
</g>
</svg>
