<svg width="48" version="1.0" xmlns="http://www.w3.org/2000/svg" height="48" xmlns:xlink="http://www.w3.org/1999/xlink">
<defs>
<linearGradient id="linearGradient3654">
<stop offset="0" style="stop-color:#f2b200"/>
<stop offset="0.25" style="stop-color:#f2b200"/>
<stop offset="0.25" style="stop-color:#e5a800"/>
<stop offset="0.5" style="stop-color:#e5a800"/>
<stop offset="0.5" style="stop-color:#cc9600"/>
<stop offset="0.75" style="stop-color:#cc9600"/>
<stop offset="0.75" style="stop-color:#bf8d00"/>
<stop offset="1" style="stop-color:#bf8d00"/>
</linearGradient>
<linearGradient xlink:href="#linearGradient3654" id="linearGradient3656" y1="33.6406" x1="8" y2="33.6406" x2="40" gradientUnits="userSpaceOnUse"/>
</defs>
<g style="color:#000;fill-rule:evenodd">
<path style="fill:#7a7a7a" d="m 24.03125,2.5 c -7.0312,0 -11.875,5.37961 -11.875,12 v 7.28125 h 5.8748 L 18,15.5 c -0.01972,-3.996116 2,-7 6,-7 4,0 5.980806,3.110858 6,7 l 0.031,6.28125 H 35.875 V 14.5 c 0,-6.62039 -4.87495,-12 -11.8438,-12 z"/>
<path style="fill:#8a8a8a" d="m 24.03125,3 c -6.77616,0 -11.375,5.1235 -11.375,11.5 v 6.78125 H 17.5293 L 17.5,15.50195 c -0.01028,-2.08291 0.507454,-3.9477 1.60156,-5.3125 C 20.19567,8.82465 21.87484,8 24,8 c 2.12962,0 3.79843,0.856151 4.88477,2.23242 1.08633,1.37627 1.60522,3.23683 1.61523,5.26562 l 0.0293,5.7832 h 4.8457 v -6.78125 c 0,-6.37488 -4.63222,-11.5 -11.3438,-11.5 z"/>
<path style="fill:#999" d="m 24.03125,3.5 c -6.52412,0 -10.875,4.86391 -10.875,11 v 6.781 h 3.87109 l -0.0273,-5.7771 C 16.98934,13.33667 17.525993,11.35511 18.71098,9.87695 19.89977,8.39404 21.74554,7.5 24,7.5 c 2.26362,0 4.0992,0.929289 5.27734,2.42188 1.17414,1.48751 1.71223,3.46168 1.72266,5.57422 l 0.0273,5.7849 H 34.875 V 14.5 c 0,-6.13261 -4.38677,-11 -10.8438,-11 z"/>
<path style="fill:#ababab" d="m 24.0312,4 c -6.2756,0 -10.375,4.60027 -10.375,10.5 v 6.681 h 2.86914 l -.0254,-5.6751 c -0.01111,-2.25127 0.545007,-4.35057 1.82031,-5.94141 1.28543,-1.60345 3.293,-2.56445 5.67969,-2.56445 2.40046,0 4.39783,1 5.66992,2.61133 1.2614,1.59807 1.81924,3.68692 1.83008,5.88281 l .0254,5.6869 h 2.84961 v -6.681 c 0,-5.89411 -4.13805,-10.5 -10.3438,-10.5 z "/>
<path style="fill:#bdbdbd" d="m 24.0312,4.5 c -6.03125,0 -9.875,4.33189 -9.875,10 v 6.681 h 1.86719 l -.0234,-5.6732 c -0.01152,-2.33514 0.564481,-4.55288 1.92969,-6.25586 1.38336,-1.72561 3.54941,-2.75195 6.07031,-2.75195 2.53928,0 4.69501,1.06831 6.0625,2.80078 1.34827,1.70812 1.92625,3.9124 1.9375,6.19141 l .0234,5.6888 h 1.85156 v -6.681 c 0,-5.66004 -3.88546,-10 -9.84375,-10 z "/>
<path style="fill:#ccc" d="m 24.0312,5 c -5.79183,0 -9.375,4.05794 -9.375,9.5 v 6.581 h 0.865234 l -.0215,-5.5712 c -0.01194,-2.41892 0.58428,-4.7556 2.03906,-6.57031 1.48216,-1.84886 3.80433,-2.93945 6.46094,-2.93945 2.67952,0 4.99119,1.13564 6.45508,2.99023 1.43482,1.81778 2.03327,4.13805 2.04492,6.5 l .0215,5.5908 h 0.853516 v -6.581 c 0,-5.43116 -3.62826,-9.5 -9.34375,-9.5 z "/>
</g>
<path style="fill:url(#linearGradient3656)" d="M 8,21 V 45 H 40 V 21 Z"/>
</svg>
