<svg width="48" version="1.1" xmlns="http://www.w3.org/2000/svg" height="48">
<path style="fill:#bb8d51;stroke:none;color:#000" id="path3020" d="m 3.008,10.5943 .0007,27.3296 c 5.62e-05,2.26742 1.85084,4.07823 4.13119,4.07823 h 33.6662 c 2.28035,0 4.13128,-1.81081 4.13119,-4.07823 l -.0014,-27.3296 z "/>
<path style="opacity:.5;fill:#3a240f" id="path5008" d="m 30.0254,15.235 -9.9969,0 .0497,3.921 .111,18.1499 4.6905,-.4291 4.9849,-.4556 .0269,-4.8147 .0841,-12.4505 .0497,-3.921 z "/>
<path style="fill:#d1c1a5" id="polygon120" d="m 29.9757,12.1297 -4.9984,-.3661 -4.9984,.3661 .0497,7.3324 .111,17.019 4.6905,-.4098 4.9849,-.4351 .0269,-4.5978 .0841,-11.5763 .0497,-7.3324 z "/>
<g style="stroke:none" id="g10" transform="matrix(1.694847,0,0,1.694847,-6.507246,0)">
<g id="g4158" transform="translate(-5.4234295,6.6109731)">
<path style="opacity:.2;fill:#7f5731" id="rect4363" d="m 23.5134,.539 .4866,0 0,10.05 -.4866,0 z "/>
<path style="opacity:.2;fill:#fff" id="rect4365" d="m 24,.539 .4866,0 0,10.05 -.4866,0 z "/>
</g>
<path style="opacity:.55;fill-rule:evenodd;stroke-linecap:square;stroke-width:.3" id="rect4162" d="m 5.6142,7.2297 24.7386,0 0,1 -24.7386,0 z "/>
<path style="fill:#ccaa7d;color:#000" id="path4306" d="m 5.5942,0 -1.776,7.2508 28.3636,0 l -1.776,-7.2508 Z "/>
</g>
<g id="g4177" transform="translate(-36.895882,7.5044646)">
<g style="stroke:none" id="g4153" transform="translate(36.895882,-7.504392)">
<path style="opacity:.6" id="rect3896" d="m 23.6623,9.4131 c -8.55965,0 -15.5764,6.96318 -15.5764,15.4984 0,8.53521 7.01674,15.4977 15.5764,15.4977 3.14632,0 6.08232,-0.94333 8.53972,-2.55708 l 9.8609,9.8002 c 0.43411,0.431449 1.09824,0.46595 1.48935,0.07725 l 2.9527,-2.9346 c 0.391101,-0.388706 0.356141,-1.04851 -0.07797,-1.47996 l -9.8399,-9.78 c 1.67199,-2.46809 2.65093,-5.43595 2.65093,-8.62348 0,-8.53521 -7.01604,-15.4984 -15.5757,-15.4984 z m 0,5.6506 c 5.52492,0 9.92583,4.38495 9.92583,9.84788 0,5.46289 -4.40091,9.84788 -9.92583,9.84788 -5.52492,0 -9.92657,-4.38495 -9.92657,-9.84788 0,-5.46293 4.40165,-9.84788 9.92657,-9.84788 z"/>
<rect width="6.2353573" x="-1.5675442" y="46.868389" rx="1.0086598" height="16.965984" ry="1.1195862" style="fill:#dcdcdc" id="rect3755" transform="matrix(0.70710678,-0.70710678,0.70710678,0.70710678,0,0)"/>
<circle cx="24.157726" cy="22.635143" style="fill:#fff;fill-rule:evenodd;stroke-linejoin:round;fill-opacity:.275;stroke-linecap:square" r="11" id="path4228"/>
</g>
<path style="fill:none;stroke:#dcdcdc;stroke-width:5.726" id="path2985" d="m 74.4257,14.8333 a 12.8825,12.8825 0 0,1 -12.8825,12.8825 12.8825,12.8825 0 0,1 -12.8825,-12.8825 12.8825,12.8825 0 0,1 12.8825,-12.8825 12.8825,12.8825 0 0,1 12.8825,12.8825 z "/>
</g>
</svg>
