<svg width="48" version="1.1" xmlns="http://www.w3.org/2000/svg" height="48">
<circle cx="24" cy="24" style="paint-order:normal;fill:#5b6d71;fill-rule:evenodd" id="path818" r="22"/>
<g style="stroke-width:1.016" id="g5">
<path style="opacity:.3" id="path816" d="m 32.0366,24.212 -5.4268,-1.5741 -1.5505,-5.5092 4.6515,-4.7222 v -1.5 c 0,0 -11.5513,9.60646 -10.0783,13.3055 l -9.0222,7.8214 c -1.26624,1.63919 -0.978605,4.8498 0.494375,6.34516 1.47299,1.49536 4.24465,1.20358 5.62453,-0.19775 l 8.33,-8.4596 c 3.64369,1.57406 8.8484,1.32329 11.4635,-2.10909 2.1807,-2.86222 2.0203,-7.79614 0.16532,-9.62229 0.186224,2.72201 -2.87947,4.42327 -4.6515,6.22223 z "/>
<path style="fill:#dee2e4" id="path9" d="m 36.6881,17.9898 -4.6515,4.7222 -5.4268,-1.5741 -1.5505,-5.5092 4.6515,-4.7222 c -1.22452,-1.20411 -5.03467,-1.4544 -7.75254,0.78703 -3.30757,2.72775 -3.79874,7.3194 -2.32576,11.0184 l -8.5278,8.6573 c -1.47298,1.49537 -1.47298,4.01386 0,5.50922 1.47299,1.49536 3.95379,1.49536 5.42678,0 l 8.5278,-8.6573 c 3.64369,1.57406 8.8484,1.32329 11.4635,-2.10909 2.1807,-2.86222 1.69668,-6.58379 0.165292,-8.1223 z "/>
</g>
</svg>
