<svg width="48" version="1.1" xmlns="http://www.w3.org/2000/svg" height="48" xmlns:xlink="http://www.w3.org/1999/xlink">
<defs id="defs21">
<linearGradient gradientTransform="matrix(0.79306874,0,0,0.79306874,-6.9974147,-7.0711418)" id="linearGradient4220" xlink:href="#linearGradient4214" y1="64.221565" y2="69.096527" x1="69.966942" gradientUnits="userSpaceOnUse" x2="64.52948"/>
<linearGradient gradientTransform="matrix(1.7911787,0,0,1.7376788,61.957418,-44.576231)" id="linearGradient3808" xlink:href="#linearGradient2888-4-3" y1="34.121754" y2="41.695" x1="-26.252876" x2="-21.25" gradientUnits="userSpaceOnUse"/>
<linearGradient gradientTransform="matrix(1.9256264,0,0,1.868326,-322.13413,-275.60776)" id="linearGradient4859" xlink:href="#linearGradient2888-4-3" y1="165.82466" y2="151.52789" x1="182.28128" x2="175.20076" gradientUnits="userSpaceOnUse"/>
<linearGradient id="linearGradient2888-4-3">
<stop offset="0.0000000" style="stop-color:#fff" id="stop2889-50"/>
<stop offset="1" style="stop-color:#b4b4b4" id="stop2894-1"/>
</linearGradient>
<linearGradient id="linearGradient4214">
<stop offset="0" style="stop-color:#696969" id="stop4216"/>
<stop offset="1" style="stop-color:#282828" id="stop4218"/>
</linearGradient>
</defs>
<path style="fill:#bb8d51;color:#000" id="path3020" d="m 3.008,10.5943 0,27.3296 c 5.62e-05,2.26742 1.85084,4.07823 4.13119,4.07823 h 33.6662 c 2.28035,0 4.13128,-1.81081 4.13119,-4.07823 l -.0014,-27.3296 z "/>
<path style="opacity:.5;fill:#3a240f" id="path5008" d="m 30.0254,13.235 h -9.9969 l .1607,21.6706 4.6905,-.4291 4.9849,-.4556 .1607,-20.786 z "/>
<path style="fill:#d4c5ab" id="polygon120" d="m 29.9757,12.1297 -4.9984,-.3661 -4.9984,.3661 .1607,21.9513 4.6905,-.4098 4.9849,-.4351 z "/>
<g id="g10" transform="matrix(1.694847,0,0,1.694847,-6.507246,0)">
<g id="g4158" transform="translate(-5.4234295,6.6109731)">
<path style="opacity:.2;fill:#7f5731" id="rect4363" d="m 23.5134,.539 .4866,0 0,10.05 -.4866,0 z "/>
<path style="opacity:.2;fill:#fff" id="rect4365" d="m 24,.539 .4866,0 0,10.05 -.4866,0 z "/>
</g>
<path style="opacity:.55;fill-rule:evenodd;stroke-linecap:square;stroke-width:.3" id="rect4162" d="m 5.6142,7.2297 h 24.7386 v 1 h -5.87906 l .2708,1.947 h -15.1164 l .4006,-1.947 h -4.41458 Z "/>
<path style="fill:#ccaa7d;color:#000" id="path4306" d="m 5.5942,0 -1.776,7.2508 h 7.0909 l -.3363,1.062 h 13.9417 l -1.0272,-1.062 h 8.69458 l -1.776,-7.2508 Z "/>
</g>
<g id="g876">
<path style="opacity:.3;fill:#000;fill-rule:evenodd;color:#000;stroke-width:.793" id="path4233" d="m 23.3065,7.5316 c -3.96876,-0.019303 -7.92422,1.60977 -10.802,4.41671 -2.87777,2.80692 -4.60835,6.73262 -4.71956,10.7263 -0.111213,3.99366 1.40792,7.95694 4.13908,10.802 l .0505,.0252 c 2.72903,2.82069 6.57413,4.4732 10.5243,4.49242 2.19691,0.01066 4.37706,-0.518888 6.38528,-1.43858 0.0773,-0.01019 0.148366,-0.01668 0.227144,-0.02524 1.70892,-0.185709 3.73498,0.0187 5.42623,1.41334 -0.272985,0.406636 -0.248158,1 0.100949,1.36286 l 7.8078,7.7631 c 0.398984,0.415615 1.07667,0.427466 1.48906,0.02524 l 2.7762,-2.7004 c 0.412396,-0.40223 0.424221,-1.09869 0.02524,-1.51429 l -7.8078,-7.7631 c -0.358104,-0.373033 -0.948424,-0.411261 -1.36287,-0.126192 -1.32201,-1.76102 -1.47273,-3.79222 -1.23668,-5.50194 0.0076,-0.05508 0.017,-0.09758 0.02524,-0.151429 1.00795,-2.02041 1.60302,-4.23417 1.66573,-6.48624 0.11088,-3.98175 -1.3981,-7.93362 -4.11384,-10.7768 l -.0252,-.0252 c -2.73114,-2.84504 -6.60608,-4.49836 -10.5749,-4.51764 z  m 0,1.6153 c 3.52205,0.017131 6.99686,1.5203 9.41388,4.03812 2.41704,2.51782 3.78376,6.06161 3.68479,9.6158 v 0.02524 c -0.105599,3.54585 -1.67839,7.09198 -4.24003,9.59058 -2.56765,2.50444 -6.14421,3.97955 -9.66624,3.96241 -3.52199,-0.01715 -6.99679,-1.52032 -9.41383,-4.03814 -2.41704,-2.51784 -3.78376,-6.06161 -3.68479,-9.6158 v -0.02525 c 0.10557,-3.54586 1.67838,-7.09197 4.24002,-9.59059 2.56765,-2.50444 6.14421,-3.97953 9.66624,-3.96241 z "/>
<path style="fill:url(#linearGradient4220);fill-rule:evenodd;color:#000;stroke-width:.793" id="path4249" d="m 36.1753,24.7012 c 0,0 -0.212827,0.43518 -0.470884,1.11525 -0.703157,1.81502 -1.31222,3.24583 -3.71751,5.40277 -2.22841,1.99833 -4.75096,2.85476 -5.9728,3.22184 -0.0258,0.0073 -0.0741,0.01759 -0.09913,0.02478 -0.285416,0.08408 -0.966553,0.346968 -0.966553,0.346968 -0.0039,0.0016 -0.07435,0.02478 -0.07435,0.02478 l .2478,.7435 c 0,0 0.07253,-0.02435 0.07435,-0.02478 0,0 0.367188,-0.152432 0.966552,-0.322184 0.0068,-0.002 0.01795,0.002 0.02478,0 1.70466,-0.479988 5.25905,-1.07679 7.88112,1.16482 -0.284221,0.381185 -0.268718,0.932982 0.07435,1.28874 l 7.646,7.5152 c 0.392074,0.406574 1.06651,0.45142 1.48701,0.07435 l 2.7757,-2.5031 c 0.420491,-0.37707 0.441638,-1.03086 0.04957,-1.43743 l -7.6459,-7.5152 c -0.351331,-0.364353 -0.898808,-0.412217 -1.31352,-0.148701 -1.40684,-1.75474 -1.54971,-3.75714 -1.28874,-5.42757 0.140764,-0.900989 0.401301,-1.66708 0.619585,-2.23051 0.222792,-0.575056 0.396534,-0.941768 0.396534,-0.941768 0.0073,-0.0184 0.01745,-0.03108 0.02478,-0.04956 l -.7187,-.3222 z "/>
<ellipse cx="22.553005" cy="21.456087" rx="13.479384" ry="13.078282" style="opacity:.3;fill:url(#linearGradient4859);fill-rule:evenodd;color:#000;stroke-width:1.897" id="path4272"/>
<path style="opacity:.3;fill:url(#linearGradient3808);fill-rule:evenodd;color:#000;stroke-width:1.188" id="path5507" d="m 11.8044,24.9309 c 8.9559,-1.73768 7.41735,-10.6366 17.2575,-12.3743 -3.835,-3.07534 -10.044,-2.54596 -13.6751,0.210532 -3.70199,2.81024 -5.37353,8.6884 -3.58236,12.1637 z "/>
<path style="fill:none;stroke:#4d4d4d;stroke-width:3.246" id="path2420" d="m 37.2024,21.9384 a 14.1288,14.6634 85 0,1 -29.2954,-0.947186 14.1288,14.6634 85 1,1 29.2954,0.947186 Z "/>
</g>
</svg>
