<svg width="128" version="1.0" xmlns="http://www.w3.org/2000/svg" height="128">
<g style="stroke:none;stroke-linejoin:round;stroke-linecap:round" id="layer1">
<path style="fill:#505050;stroke-width:8;stroke-dashoffset:4" id="path2941" d="m 56,24 c -1.98431,-0.00326 -3.90222,0.732684 -5.375,2.0625 l -40,36 c -1.67791,1.51548 -2.625,3.67651 -2.625,5.9375 -8e-07,2.26099 0.947089,4.42202 2.625,5.9375 l 40,36 c 1.47277,1.3298 3.39068,2.06576 5.375,2.0625 h 56 c 4.37052,0 8,-3.62948 8,-8 v -72 c 0,-4.37052 -3.62948,-8 -8,-8 h -56 z "/>
<path style="fill:#fff;stroke-width:.885" id="rect3376" d="m 59.1782,37.8643 l -11.8125,11.7812 17.0625,17.0625 -17.0625,17.0312 11.8125,11.8125 17.0312,-17.0625 17.0625,17.0625 11.7812,-11.8125 -17.0312,-17.0312 17.0312,-17.0625 -11.7812,-11.7812 -17.0625,17.0312 -17.0312,-17.0312 z "/>
</g>
</svg>
