<svg width="48" version="1.1" xmlns="http://www.w3.org/2000/svg" height="48" xmlns:xlink="http://www.w3.org/1999/xlink">
<defs>
<linearGradient id="linearGradient2888-4-3">
<stop offset="0" style="stop-color:#fff"/>
<stop offset="1" style="stop-color:#b4b4b4"/>
</linearGradient>
<linearGradient id="linearGradient4214">
<stop offset="0" style="stop-color:#696969"/>
<stop offset="1" style="stop-color:#282828"/>
</linearGradient>
<linearGradient id="linearGradient6">
<stop offset="0" style="stop-color:#b25c00"/>
<stop offset="1" style="stop-color:#fa8600"/>
</linearGradient>
<linearGradient id="linearGradient4">
<stop offset="0" style="stop-color:#bababa"/>
<stop offset="1" style="stop-color:#e3e3e3"/>
</linearGradient>
<linearGradient id="linearGradient3770">
<stop offset="0" style="stop-color:#ffda7d"/>
<stop offset="0.3" style="stop-color:#ffda7d"/>
<stop offset="0.3" style="stop-color:#ffc941"/>
<stop offset="0.68" style="stop-color:#ffc941"/>
<stop offset="0.68" style="stop-color:#dc9e00"/>
<stop offset="1" style="stop-color:#dc9e00"/>
</linearGradient>
<linearGradient id="linearGradient2">
<stop offset="0" style="stop-color:#dbc457"/>
<stop offset="1" style="stop-color:#f0da94"/>
</linearGradient>
<linearGradient gradientTransform="matrix(0.79306874,0,0,0.79306874,-10.728821,-10.260625)" id="linearGradient4220" xlink:href="#linearGradient4214" y1="65.53083" y2="70.405807" x1="71.326965" gradientUnits="userSpaceOnUse" x2="65.88945"/>
<linearGradient gradientTransform="matrix(1.7911787,0,0,1.7376788,58.226012,-47.765714)" id="linearGradient3808" xlink:href="#linearGradient2888-4-3" y1="34.121754" y2="41.695" x1="-26.252876" x2="-21.25" gradientUnits="userSpaceOnUse"/>
<linearGradient xlink:href="#linearGradient6" id="linearGradient7" y1="22.503565" x1="42.270569" y2="16.273001" x2="36.369301" gradientUnits="userSpaceOnUse"/>
<linearGradient gradientTransform="matrix(1.9256264,0,0,1.868326,-325.86554,-278.79724)" id="linearGradient4859" xlink:href="#linearGradient2888-4-3" y1="165.82466" y2="151.52789" x1="182.28128" x2="175.20076" gradientUnits="userSpaceOnUse"/>
<linearGradient xlink:href="#linearGradient2" id="linearGradient3" y1="41.126499" x1="22.439699" y2="34.884899" x2="16.5177" gradientUnits="userSpaceOnUse"/>
<linearGradient xlink:href="#linearGradient4" id="linearGradient5" y1="25.234501" x1="39.404499" y2="18.988157" x2="33.490723" gradientUnits="userSpaceOnUse"/>
<linearGradient gradientTransform="matrix(0.53505776,0.56443547,-0.56443547,0.53505776,17.474249,-2.8031646)" xlink:href="#linearGradient3770" id="linearGradient3849" y1="23.72045" x1="34.265" y2="23.72045" gradientUnits="userSpaceOnUse" x2="45.4021"/>
<linearGradient gradientTransform="matrix(0.53505776,0.56443547,-0.56443547,0.53505776,17.967352,-3.6430724)" xlink:href="#linearGradient4214" id="linearGradient884" y1="40.033699" x1="37.169601" y2="40.038601" x2="43.229599" gradientUnits="userSpaceOnUse"/>
</defs>
<g style="fill-rule:evenodd;color:#000">
<g style="stroke-width:.793">
<path style="opacity:.3" d="m 19.5751,4.3421 c -3.96876,-0.019303 -7.92422,1.60977 -10.802,4.41671 -2.87777,2.80692 -4.60835,6.73262 -4.71956,10.7263 -0.111213,3.99366 1.40792,7.95694 4.13908,10.802 l 0.0505,0.0252 c 2.72903,2.82069 6.57413,4.4732 10.5243,4.49242 2.19691,0.01066 4.37706,-0.518888 6.38528,-1.43858 0.0773,-0.01019 0.148366,-0.01668 0.227144,-0.02524 1.70892,-0.185709 3.73498,0.0187 5.42623,1.41334 -0.272985,0.406636 -0.248158,1 0.100949,1.36286 l 11.2763,11.3257 c 0.398984,0.415615 1.07667,0.427466 1.48906,0.02524 l 2.7762,-2.7004 c 0.412396,-0.40223 0.424221,-1.09869 0.02524,-1.51429 l -11.2763,-11.3257 c -0.358104,-0.373033 -0.948424,-0.411261 -1.36287,-0.126192 -1.32201,-1.76102 -1.47273,-3.79222 -1.23668,-5.50194 0.0076,-0.05508 0.017,-0.09758 0.02524,-0.151429 1.00795,-2.02041 1.60302,-4.23417 1.66573,-6.48624 0.11088,-3.98175 -1.3981,-7.93362 -4.11384,-10.7768 l -0.0252,-0.0252 c -2.73114,-2.84504 -6.60608,-4.49836 -10.5749,-4.51764 z m 0,1.6153 c 3.52205,0.017131 6.99686,1.5203 9.41388,4.03812 2.41704,2.51782 3.78376,6.06161 3.68479,9.6158 v 0.02524 c -0.105599,3.54585 -1.67839,7.09198 -4.24003,9.59058 -2.56765,2.50444 -6.14421,3.97955 -9.66624,3.96241 C 15.24551,33.172403 11.77071,31.66923 9.35367,29.15141 6.93663,26.63357 5.56991,23.0898 5.66888,19.53561 V 19.51036 C 5.77445,15.9645 7.34726,12.41839 9.9089,9.91977 12.47655,7.41533 16.05311,5.94024 19.57514,5.95736 Z"/>
<path style="fill:url(#linearGradient4220)" d="m 32.4439,21.5117 c 0,0 -0.212827,0.43518 -0.470884,1.11525 -0.703157,1.81502 -1.31222,3.24583 -3.71751,5.40277 -2.22841,1.99833 -4.75096,2.85476 -5.9728,3.22184 -0.0258,0.0073 -0.0741,0.01759 -0.09913,0.02478 -0.285416,0.08408 -0.966553,0.346968 -0.966553,0.346968 -0.0039,0.0016 -0.07435,0.02478 -0.07435,0.02478 l .2478,.7435 c 0,0 0.07253,-0.02435 0.07435,-0.02478 0,0 0.367188,-0.152432 0.966552,-0.322184 0.0068,-0.002 0.01795,0.002 0.02478,0 1.70466,-0.479988 5.25905,-1.07679 7.88112,1.16482 -0.284221,0.381185 -0.268718,0.932982 0.07435,1.28874 l 11.1145,11.0778 c 0.392074,0.406574 1.06651,0.45142 1.48701,0.07435 l 2.7757,-2.5031 c 0.420491,-0.37707 0.441638,-1.03086 0.04957,-1.43743 l -11.1144,-11.0778 c -0.351331,-0.364353 -0.898808,-0.412217 -1.31352,-0.148701 -1.40684,-1.75474 -1.54971,-3.75714 -1.28874,-5.42757 0.140764,-0.900989 0.401301,-1.66708 0.619585,-2.23051 0.222792,-0.575056 0.396534,-0.941768 0.396534,-0.941768 0.0073,-0.0184 0.01745,-0.03108 0.02478,-0.04956 l -.7187,-.3222 z "/>
</g>
<ellipse cx="18.821598" cy="18.266603" rx="13.479384" ry="13.078282" style="opacity:.35;fill:url(#linearGradient4859);stroke-width:1.897"/>
<path style="opacity:.35;fill:url(#linearGradient3808);stroke-width:1.188" d="M 8.073,21.7414 C 17.0289,20.00372 15.49035,11.1048 25.3305,9.3671 21.4955,6.29176 15.2865,6.82114 11.6554,9.577632 c -3.70199,2.81024 -5.37353,8.6884 -3.58236,12.1637 z"/>
</g>
<path style="fill:none;stroke:#464646;stroke-width:3.246" d="M 33.471,18.7489 A 14.1288,14.6634 85 0 1 4.1756,17.801714 14.1288,14.6634 85 1 1 33.471,18.7489 Z"/>
<g style="fill-rule:evenodd">
<path style="opacity:.2" d="m 40.5,15.1757 c -0.485365,-0.02233 -1.03626,0.17117 -1.37109,0.488281 l -22.6465,21.1934 .0332,.0352 -1.2539,3.8691 -.002,-.002 -1.5195,4.6953 8.6914,-2.3242 -3.293,-3.4766 3.3008,3.4727 22.6036,-21.2168 c 0.550671,-0.521522 0.711335,-1.6687 0.24414,-2.16211 l -4.0625,-4.2871 c -0.170395,-0.179968 -0.433338,-0.271715 -0.724559,-0.285113 Z "/>
<path style="fill:url(#linearGradient7)" d="m 40.5002,13.1758 c -0.485365,-0.02233 -1.03659,0.171852 -1.37143,0.488964 l -2.7732,2.5936 5.915,6.2452 2.7732,-2.5936 c 0.550671,-0.521522 0.710225,-1.66934 0.24303,-2.16275 l -4.0626,-4.2854 c -0.170445,-0.180012 -0.432767,-0.272583 -0.723988,-0.285981 z"/>
<path style="fill:url(#linearGradient5)" d="m 36.3693,16.273 -2.88,2.7165 5.9152,6.245 2.8798,-2.7163 z"/>
<path style="fill:url(#linearGradient3849)" d="M 33.4883,18.9856 16.4816,34.8577 22.4397,41.1265 39.4033,25.2308 Z"/>
<path style="fill:url(#linearGradient3)" d="m 16.5177,34.8849 -2.7781,8.571 8.693,-2.3258 -5.915,-6.2452 z"/>
<path style="fill:url(#linearGradient884)" d="m 15.2588,38.7571 -1.5192,4.6988 4.7589,-1.2757 -3.2397,-3.423 z"/>
</g>
</svg>
