<svg width="128" version="1.0" xmlns="http://www.w3.org/2000/svg" height="128">
<g style="stroke:none">
<path style="fill:#8c8c8c" id="path4161" d="m 0,8 0,104.9063 128,0 L 128,8 Z"/>
<g style="fill:#fff">
<path id="path4159" d="M 7.5938,15.7188 40,15.7188 40,40.5 7.5938,40.5 Z"/>
<path id="path4155" d="m 48,15.7188 0,90 32,0 0,-34.1914 8,0 0,34.1914 32,0 0,-90 -32,0 0,35.1484 -8,0 0,-35.1484 z "/>
<path id="path4147" d="m 7.5938,81.9501 32.4062,0 0,23.7687 -32.4062,0 z"/>
<path id="path4199" d="M 7.5938,48.2188 40,48.2188 40,73 7.5938,73 Z"/>
</g>
<path style="fill:#3b7ad4;fill-rule:evenodd" id="path3006" d="m 70.8946,41.2655 c -1.2953,0.036 -2.45122,0.580995 -3.3568,1.50782 l -14.3283,14.3282 h -0.06771 c -0.770087,0.541207 -1.41255,1.28127 -1.78127,2.19273 -0.608402,1.5039 -0.355552,3.18807 0.479172,4.52347 0.130733,0.209263 0.248417,0.426859 0.411461,0.617192 0.100867,0.1178 0.160495,0.234427 0.27344,0.343752 0.05935,0.05923 0.143583,0.149805 0.20573,0.205731 l 14.8074,14.8048 c 1.25187,1.30387 3.04784,1.75808 4.79692,1.30209 1.74908,-0.45599 3.10916,-1.74574 3.56514,-3.49482 0.45598,-1.74907 0.0018,-3.61535 -1.30209,-4.86722 l -2.4427,-6.4428 h 17.9351 0.20573 26.5632 v -10.0079 h -26.5632 -0.20573 -17.9351 l 2.4427,-6.4427 c 1.46882,-1.43601 1.89773,-3.66072 1.09637,-5.55212 -0.801362,-1.89137 -2.74615,-3.07455 -4.79952,-3.01825 z "/>
</g>
</svg>
