<svg width="16" version="1.1" xmlns="http://www.w3.org/2000/svg" height="15.999995">
<g style="color:#bebebe">
<path style="fill:#808080" d="M 2.9328,1.0007 C 2.42514,1.0402 1.99128,1.51799 2.00017,2.02762 v 12.9453 c -0.008,0.5398 0.48663,1.03477 1.02589,1.02691 h 9.948 c 0.53926,0.008 1.03373,-0.48711 1.02589,-1.02691 V 5.01497 c -0.004,-0.26704 -0.1184,-0.53079 -0.31088,-0.71573 l -2.9844,-2.9874 C 10.51992,1.11917 10.25643,1.0045 9.98966,1.00065 h -6.9636 c -0.0311,-9.9e-4 -0.0622,-9.9e-4 -0.0933,0 z"/>
<g style="fill:#fff">
<path d="M 4.0208,3.0547 H 9.9896 V 5.0463 H 4.0208 Z"/>
<path d="m 4.0208,7.0379 h 7.9584 V 9.0295 H 4.0208 Z"/>
<path d="m 4.0208,11.021 h 7.9584 v 1.9916 H 4.0208 Z"/>
</g>
</g>
</svg>
