<svg width="48" version="1.0" xmlns="http://www.w3.org/2000/svg" height="48" xmlns:xlink="http://www.w3.org/1999/xlink">
<g style="fill-rule:evenodd;stroke:none" id="g9">
<g style="stroke-linejoin:round;stroke-linecap:round;stroke-miterlimit:0" id="g11">
<path style="opacity:.05" id="path4169" d="m 1,5.2593 46,0 0,37.4815 -46,0 z "/>
<path style="opacity:.15" id="path4167" d="m 1.327,5.586 45.132,0 .0001,36.4733 -45.132,0 z "/>
<path style="opacity:.25" id="path4165" d="m 1.6815,5.9407 44.1965,0 0,35.4233 -44.1965,0 z "/>
<path style="fill:#5c656c" id="rect4162" d="m 2.1358,6.3951 43.1605,0 0,34.0741 -43.1605,0 z "/>
</g>
<path style="fill:#f3f6f7" id="path4127" d="m 2.1358,6.3951 0,34.0741 l 15.1448,-17.0357 -15.1448,-17.0384 Z "/>
<path style="fill:#f5fbfe" id="path4125" d="m 2.1358,6.3951 21.5802,20.1037 21.5802,-20.1037 Z "/>
<path style="fill:#e7ecef" id="path4123" d="m 45.2963,6.3951 -15.1448,17.0384 15.1448,17.0357 0,-34.0741 z "/>
<path style="fill:#dbe4e7" id="rect3260-9" d="m 19.6785,26.123 -17.2899,14.3461 42.6546,0 -17.2899,-14.3461 -4.0373,3.8245 z "/>
</g>
<g id="g4346" transform="matrix(0.48743316,0,0,0.48743316,63.060687,19.245047)">
<g style="font-family:Sans;text-align:start;fill-rule:evenodd;stroke:none;line-height:normal;color:#000;text-indent:0;text-transform:none" id="g49" transform="translate(-117.51181,-29.330592)">
<path style="opacity:.3;fill:#1e1e1e" id="path4233" d="m 39.7219,16.5763 c -5.85895,-0.0285 -11.6983,2.37646 -15.9466,6.52023 -4.24837,4.14377 -6.80315,9.93914 -6.96733,15.8348 -0.164179,5.8957 2.07848,11.7466 6.11039,15.9466 l .0745,.0372 c 4.02878,4.16409 9.70518,6.60364 15.5367,6.63201 3.24323,0.01577 6.46172,-0.766018 9.42638,-2.12373 0.114116,-0.01509 0.219027,-0.02462 0.335326,-0.03725 2.52282,-0.274159 5.51384,0.02761 8.01057,2.08647 -0.402999,0.600305 -0.366347,1.47509 0.149033,2.01195 l 23.3983,24.367 c 0.589006,0.613559 1.58945,0.631054 2.19825,0.03725 l 4.0984,-3.9866 c 0.608797,-0.593798 0.626263,-1.62195 0.03725,-2.2355 l -23.3983,-24.367 c -0.528657,-0.550695 -1.40013,-0.607131 -2.01195,-0.186292 -1.95163,-2.59973 -2.17414,-5.59833 -1.82567,-8.12234 0.01124,-0.08131 0.0251,-0.144041 0.03725,-0.22355 1.48801,-2.98267 2.36648,-6.25075 2.45906,-9.57542 0.163695,-5.87813 -2.06396,-11.7121 -6.07312,-15.9094 l -.0372,-.0372 c -4.0319,-4.20005 -9.75234,-6.64078 -15.6113,-6.66926 z  m 0,2.3845 c 5.19949,0.02529 10.3292,2.24437 13.8974,5.96135 3.56819,3.71699 5.58584,8.94856 5.43973,14.1955 v 0.03725 c -0.155886,5.23462 -2.47776,10.4697 -6.25942,14.1583 -3.79055,3.69722 -9.0705,5.87486 -14.27,5.84958 -5.19949,-0.02529 -10.3292,-2.24437 -13.8974,-5.96135 -3.56819,-3.71699 -5.58584,-8.94856 -5.43973,-14.1955 v -0.03724 c 0.155861,-5.23465 2.47775,-10.4696 6.25942,-14.1583 3.79055,-3.69722 9.0705,-5.87486 14.27,-5.84958 z "/>
<path style="fill:#464646" id="path4249" d="m 58.7196,41.9232 c 0,0 -0.314189,0.642441 -0.695151,1.64641 -1.03805,2.67945 -1.93719,4.79172 -5.48804,7.97595 -3.28973,2.95007 -7.01369,4.21439 -8.81745,4.7563 -0.03809,0.01065 -0.109387,0.02597 -0.146348,0.03659 -0.42135,0.124125 -1.42689,0.512216 -1.42689,0.512216 -0.0057,0.0025 -0.109761,0.03659 -0.109761,0.03659 l .3659,1.0976 c 0,0 0.107068,-0.03594 0.109761,-0.03659 0,0 0.54207,-0.225031 1.42689,-0.47563 0.01,-0.0029 0.0265,0.0029 0.03659,0 2.51654,-0.708591 7.76376,-1.58963 11.6346,1.71959 -0.419584,0.56273 -0.396698,1.37733 0.109761,1.90252 l 23.1595,24.001 c 0.578806,0.600212 1.57446,0.666417 2.19522,0.10976 l 4.0977,-3.6952 c 0.620758,-0.556655 0.651975,-1.52183 0.07317,-2.12204 l -23.1595,-24.001 c -0.5187,-0.537883 -1.32688,-0.608544 -1.93911,-0.219521 -2.07687,-2.59047 -2.28779,-5.54655 -1.90252,-8.01254 0.207806,-1.3301 0.592427,-2.46105 0.914673,-3.29282 0.3289,-0.848939 0.585391,-1.3903 0.585391,-1.3903 0.01077,-0.02716 0.02577,-0.04588 0.03659,-0.07317 l -1.061,-.4756 z "/>
</g>
<path style="fill:none;stroke:#464646;stroke-width:4.792" id="path2420" d="m -57.2758,8.514 a 20.8579,21.6471 85 0,1 -43.2478,-1.3983 20.8579,21.6471 85 1,1 43.2478,1.3983 z "/>
<g style="fill:#fff;fill-rule:evenodd;stroke:none" id="g4186" transform="translate(-117.51181,-29.330592)">
<path style="opacity:.8" id="path3874" d="m 28.2181,53.5612 c 9.36721,5.55197 21.626,2.69855 27.3615,-6.36955 5.73556,-9.06811 2.78729,-20.9347 -6.57992,-26.4867 -9.36722,-5.55197 -21.626,-2.69855 -27.3615,6.36955 -5.73557,9.0681 -2.78729,20.9347 6.57992,26.4867 z  m .5507,-.4863 c -1.35269,-0.793511 -2.63612,-1.76581 -3.79302,-2.91118 -7.40412,-7.33039 -7.27076,-19.0905 0.301735,-26.2579 7.5725,-7.16741 19.7211,-7.0383 27.1252,0.292088 5.4428,5.3886 6.98287,13.4423 3.89294,20.3597 l -11.1968,-4.6899 c -0.129833,0.288398 -0.272894,0.571189 -0.447384,0.847063 -0.308556,0.487835 -0.685222,0.917298 -1.08827,1.30138 l 8.5377,8.4398 c -6.38929,6.0475 -16.0276,6.90405 -23.3322,2.6191 z "/>
<path style="opacity:.8" id="path3099" d="m 50.5467,21.7922 c -8.7834,-6.43591 -21.2614,-4.78716 -27.8509,3.68071 -6.58957,8.46788 -4.80833,20.5649 3.97507,27.0008 8.78341,6.43591 21.2614,4.78716 27.8509,-3.68071 6.58957,-8.46786 4.80833,-20.5649 -3.97508,-27.0008 z  m -.5953,.4306 c 1.26919,0.921197 2.45206,2.0136 3.49218,3.26598 6.65679,8.01516 5.38133,19.7067 -2.85179,26.1044 -8.23311,6.39767 -20.3117,5.08871 -26.9685,-2.92645 -4.89343,-5.89198 -5.64363,-14.0572 -1.89617,-20.6416 l 10.6881,5.7558 c 0.157271,-0.274399 0.327103,-0.54197 0.527574,-0.799583 0.354501,-0.455542 0.771113,-0.846374 1.20957,-1.18948 l -7.6773,-9.2295 c 6.94669,-5.39804 16.6226,-5.31398 23.4763,-0.339528 z "/>
<path style="opacity:.7" id="path3869" d="M 44.5681,18.6305 C 34.1112,15.59353 22.9534,21.41773 19.6639,31.6309 16.37446,41.844 22.1926,52.5984 32.6495,55.6354 43.1064,58.67237 54.2642,52.84817 57.5537,42.635 60.84314,32.4219 55.025,21.6675 44.5681,18.6305 Z m -0.4118,0.6085 c 1.50799,0.430584 2.99355,1.0516 4.39981,1.8718 9.00005,5.24926 11.8076,16.6702 6.26479,25.5015 -5.54279,8.83129 -17.3388,11.7399 -26.3388,6.49068 -6.61598,-3.85876 -10.1184,-11.2727 -8.85369,-18.7426 l 12.0132,1.7454 c 0.0537,-0.311682 0.121621,-0.621238 0.221667,-0.93195 0.176963,-0.54943 0.434453,-1.05935 0.728818,-1.53191 l -10.3748,-6.0404 c 4.67673,-7.4514 13.7959,-10.6877 21.939,-8.36248 z"/>
</g>
</g>
</svg>
