<svg width="48" version="1.0" xmlns="http://www.w3.org/2000/svg" height="48" xmlns:xlink="http://www.w3.org/1999/xlink">
<defs id="defs25">
<linearGradient id="linearGradient2888-4-3">
<stop offset="0.0000000" style="stop-color:#fff" id="stop2889-50"/>
<stop offset="1" style="stop-color:#b4b4b4" id="stop2894-1"/>
</linearGradient>
<linearGradient id="linearGradient4214">
<stop offset="0" style="stop-color:#696969" id="stop4216"/>
<stop offset="1" style="stop-color:#282828" id="stop4218"/>
</linearGradient>
<linearGradient gradientTransform="matrix(1.9256264,0,0,1.868326,-325.86554,-278.79724)" id="linearGradient4859" xlink:href="#linearGradient2888-4-3" y1="165.82466" y2="151.52789" x1="182.28128" x2="175.20076" gradientUnits="userSpaceOnUse"/>
<linearGradient gradientTransform="matrix(0.79306874,0,0,0.79306874,-10.728821,-10.260625)" id="linearGradient4220" xlink:href="#linearGradient4214" y1="65.53083" y2="70.405807" x1="71.326965" gradientUnits="userSpaceOnUse" x2="65.88945"/>
<linearGradient gradientTransform="matrix(1.7911787,0,0,1.7376788,58.226012,-47.765714)" id="linearGradient3808" xlink:href="#linearGradient2888-4-3" y1="34.121754" y2="41.695" x1="-26.252876" x2="-21.25" gradientUnits="userSpaceOnUse"/>
</defs>
<g style="fill-rule:evenodd" id="g9">
<g style="stroke-linejoin:round;stroke-linecap:round;stroke-miterlimit:0" id="g11">
<path style="opacity:.05" id="path4169" d="m 1,5.2593 46,0 0,37.4815 -46,0 z "/>
<path style="opacity:.15" id="path4167" d="m 1.327,5.586 45.132,0 0,36.4733 -45.132,0 z "/>
<path style="opacity:.25" id="path4165" d="m 1.6815,5.9407 44.1965,0 0,35.4233 -44.1965,0 z "/>
<path style="fill:#5c656c" id="rect4162" d="m 2.1358,6.3951 43.1605,0 0,34.0741 -43.1605,0 z "/>
</g>
<path style="fill:#f3f6f7" id="path4127" d="m 2.1358,6.3951 0,34.0741 l 15.1448,-17.0357 -15.1448,-17.0384 Z "/>
<path style="fill:#f5fbfe" id="path4125" d="m 2.1358,6.3951 21.5802,20.1037 21.5802,-20.1037 Z "/>
<path style="fill:#e7ecef" id="path4123" d="m 45.2963,6.3951 -15.1448,17.0384 15.1448,17.0357 0,-34.0741 z "/>
<path style="fill:#dbe4e7" id="rect3260-9" d="m 19.6785,26.123 -17.2899,14.3461 42.6546,0 -17.2899,-14.3461 -4.0373,3.8245 z "/>
</g>
<g id="g893" transform="matrix(0.84896049,0,0,0.84896049,8.2978295,7.451713)">
<g style="fill-rule:evenodd;color:#000" id="g868">
<g style="stroke-width:.793" id="g864">
<path style="opacity:.3" id="path4233-3" d="m 19.5751,4.3421 c -3.96876,-0.019303 -7.92422,1.60977 -10.802,4.41671 -2.87777,2.80692 -4.60835,6.73262 -4.71956,10.7263 -0.111213,3.99366 1.40792,7.95694 4.13908,10.802 l 0.0505,0.0252 c 2.72903,2.82069 6.57413,4.4732 10.5243,4.49242 2.19691,0.01066 4.37706,-0.518888 6.38528,-1.43858 0.0773,-0.01019 0.148366,-0.01668 0.227144,-0.02524 1.70892,-0.185709 3.73498,0.0187 5.42623,1.41334 -0.272985,0.406636 -0.248158,1 0.100949,1.36286 l 11.2763,11.3257 c 0.398984,0.415615 1.07667,0.427466 1.48906,0.02524 l 2.7762,-2.7004 c 0.412396,-0.40223 0.424221,-1.09869 0.02524,-1.51429 l -11.2763,-11.3257 c -0.358104,-0.373033 -0.948424,-0.411261 -1.36287,-0.126192 -1.32201,-1.76102 -1.47273,-3.79222 -1.23668,-5.50194 0.0076,-0.05508 0.017,-0.09758 0.02524,-0.151429 1.00795,-2.02041 1.60302,-4.23417 1.66573,-6.48624 0.11088,-3.98175 -1.3981,-7.93362 -4.11384,-10.7768 l -0.0252,-0.0252 c -2.73114,-2.84504 -6.60608,-4.49836 -10.5749,-4.51764 z m 0,1.6153 c 3.52205,0.017131 6.99686,1.5203 9.41388,4.03812 2.41704,2.51782 3.78376,6.06161 3.68479,9.6158 v 0.02524 c -0.105599,3.54585 -1.67839,7.09198 -4.24003,9.59058 -2.56765,2.50444 -6.14421,3.97955 -9.66624,3.96241 C 15.24551,33.172403 11.77071,31.66923 9.35367,29.15141 6.93663,26.63357 5.56991,23.0898 5.66888,19.53561 V 19.51036 C 5.77445,15.9645 7.34726,12.41839 9.9089,9.91977 12.47655,7.41533 16.05311,5.94024 19.57514,5.95736 Z"/>
<path style="fill:url(#linearGradient4220)" id="path4249-6" d="m 32.4439,21.5117 c 0,0 -0.212827,0.43518 -0.470884,1.11525 -0.703157,1.81502 -1.31222,3.24583 -3.71751,5.40277 -2.22841,1.99833 -4.75096,2.85476 -5.9728,3.22184 -0.0258,0.0073 -0.0741,0.01759 -0.09913,0.02478 -0.285416,0.08408 -0.966553,0.346968 -0.966553,0.346968 -0.0039,0.0016 -0.07435,0.02478 -0.07435,0.02478 l .2478,.7435 c 0,0 0.07253,-0.02435 0.07435,-0.02478 0,0 0.367188,-0.152432 0.966552,-0.322184 0.0068,-0.002 0.01795,0.002 0.02478,0 1.70466,-0.479988 5.25905,-1.07679 7.88112,1.16482 -0.284221,0.381185 -0.268718,0.932982 0.07435,1.28874 l 11.1145,11.0778 c 0.392074,0.406574 1.06651,0.45142 1.48701,0.07435 l 2.7757,-2.5031 c 0.420491,-0.37707 0.441638,-1.03086 0.04957,-1.43743 l -11.1144,-11.0778 c -0.351331,-0.364353 -0.898808,-0.412217 -1.31352,-0.148701 -1.40684,-1.75474 -1.54971,-3.75714 -1.28874,-5.42757 0.140764,-0.900989 0.401301,-1.66708 0.619585,-2.23051 0.222792,-0.575056 0.396534,-0.941768 0.396534,-0.941768 0.0073,-0.0184 0.01745,-0.03108 0.02478,-0.04956 l -.7187,-.3222 z "/>
</g>
<ellipse cx="18.821598" cy="18.266603" rx="13.479384" ry="13.078282" style="opacity:.35;fill:url(#linearGradient4859);stroke-width:1.897" id="path4272"/>
<path style="opacity:.35;fill:url(#linearGradient3808);stroke-width:1.188" id="path5507" d="M 8.073,21.7414 C 17.0289,20.00372 15.49035,11.1048 25.3305,9.3671 21.4955,6.29176 15.2865,6.82114 11.6554,9.577632 c -3.70199,2.81024 -5.37353,8.6884 -3.58236,12.1637 z"/>
</g>
<path style="fill:none;stroke:#464646;stroke-width:3.246" id="path2420-7" d="M 33.471,18.7489 A 14.1288,14.6634 85 0 1 4.1756,17.801714 14.1288,14.6634 85 1 1 33.471,18.7489 Z"/>
</g>
</svg>
