<svg width="48" version="1.0" xmlns="http://www.w3.org/2000/svg" height="48">
<g style="stroke:none;fill-rule:evenodd" id="layer1">
<path style="fill:#9d1100" id="path4153" d="m 5.9062,1.25 0,43.0938 24.6878,0 L 42.0937,33.594 42.0625,1.25 5.9063,1.25 Z"/>
<path style="fill:#fff" id="path1306" d="m 32.0938,12.2188 c 0.587596,6.3e-05 1.20355,0.234795 1.6875,0.71875 0.967909,0.967905 0.967909,2.34459 0,3.3125 l -6.4688,6.4375 6.4688,6.4688 c 0.967909,0.967911 0.967909,2.34459 0,3.3125 -0.967909,0.967909 -2.37584,0.96791 -3.34375,0 l -6.3125,-6.4375 -6.4375,6.4375 c -0.967909,0.967909 -2.34459,0.967908 -3.3125,0 -0.967908,-0.829636 -0.967908,-2.34459 0,-3.3125 l 6.3125,-6.3125 -6.4688,-6.4375 c -0.967909,-0.967908 -0.967909,-2.37584 0,-3.34375 0.96791,-0.967909 2.37584,-0.96791 3.34375,0 l 6.4375,6.3125 6.4375,-6.4375 c 0.483955,-0.483954 1.06865,-0.718813 1.65625,-0.71875 z "/>
</g>
</svg>
