<svg width="128" version="1.0" xmlns="http://www.w3.org/2000/svg" height="128">
<g style="stroke:none;stroke-linejoin:round;stroke-linecap:round" id="layer1" transform="matrix(-1,0,0,1,128,0)">
<path style="fill:#505050;stroke-width:8;stroke-dashoffset:4" id="path2941" d="m 56,24 c -1.98431,-0.0033 -3.90222,0.732684 -5.375,2.0625 l -40,36 C 8.94709,63.57798 8,65.73901 8,68 c -8e-7,2.26099 0.947089,4.42202 2.625,5.9375 l 40,36 c 1.47277,1.3298 3.39068,2.06576 5.375,2.0625 h 56 c 4.37052,0 8,-3.62948 8,-8 V 32 c 0,-4.37052 -3.62948,-8 -8,-8 z"/>
<path style="fill:#fff;stroke-width:.885" id="rect3376" d="M 59.1782,37.8643 47.3657,49.6455 64.4282,66.708 47.3657,83.7392 59.1782,95.5517 76.2094,78.4892 93.2719,95.5517 105.0531,83.7392 88.0219,66.708 105.0531,49.6455 93.2719,37.8643 76.2094,54.8955 Z"/>
</g>
</svg>
