<svg width="48" version="1.0" xmlns="http://www.w3.org/2000/svg" height="48" xmlns:xlink="http://www.w3.org/1999/xlink">
<defs>
<linearGradient id="linearGradient4158">
<stop offset="0" style="stop-color:#c8c8c8"/>
<stop offset="1" style="stop-color:#646464"/>
</linearGradient>
<linearGradient id="linearGradient964">
<stop offset="0" style="stop-color:#666"/>
<stop offset="1"/>
</linearGradient>
<linearGradient id="linearGradient3770">
<stop offset="0" style="stop-color:#ffda7d"/>
<stop offset="0.30000001" style="stop-color:#ffda7d"/>
<stop offset="0.30000001" style="stop-color:#ffc941"/>
<stop offset="0.60000002" style="stop-color:#ffc941"/>
<stop offset="0.60000002" style="stop-color:#dc9e00"/>
<stop offset="1" style="stop-color:#dc9e00"/>
</linearGradient>
<linearGradient xlink:href="#linearGradient964" id="linearGradient966" y1="28.298313" x1="2.4569364" y2="31.55405" x2="5.7056303" gradientUnits="userSpaceOnUse"/>
<linearGradient gradientTransform="matrix(0.53666915,0.53666915,-0.73355593,0.73355593,11.180182,-19.947429)" id="linearGradient3849" xlink:href="#linearGradient3770" y1="23.72045" y2="23.72045" x1="34.265" x2="45.4021" gradientUnits="userSpaceOnUse"/>
<linearGradient xlink:href="#linearGradient4158" id="linearGradient4164" y1="20.21179" x1="27.59503" y2="47.799793" x2="27.626514" gradientUnits="userSpaceOnUse"/>
</defs>
<path style="fill:url(#linearGradient4164)" d="m 26.5632,47.9999 c 1.28412,-0.0063 2.44449,-0.789001 2.4375,-1.64429 V 38.9842 l 16.5305,0.0208 c 1.29454,0.0047 2.47578,-0.782071 2.46875,-1.64429 v -6.65992 c 0.007,-0.862218 -1.17421,-1.64897 -2.46875,-1.64429 H 29.0007 v -7.35076 c 0.0088,-0.620647 -0.563226,-1.22862 -1.40567,-1.49395 -0.842447,-0.265328 -1.91094,-0.174047 -2.62558,0.224303 l -12.0004,12.325 c -0.895823,0.920055 -0.895826,1.61923 0,2.53928 l 12.0004,12.3249 c 0.443334,0.244017 1.01866,0.379262 1.59375,0.374648 z"/>
<g style="fill-rule:evenodd">
<path style="fill:#d57000" d="m 28.9161,.0159 c -0.559347,0.0761498 -1.22711,0.415041 -1.66223,0.849862 l -3.5989,3.5636 5.932,5.939 3.599,-3.5636 c 0.715594,-0.715107 1.07054,-2.0682 0.602025,-2.53745 l -4.0749,-4.0746 c -0.170927,-0.171198 -0.461312,-0.222592 -0.796922,-0.1769 Z "/>
<path style="fill:#d0d0d0" d="m 23.6688,4.4433 -3.7409,3.7273 5.9323,5.9387 3.7406,-3.727 z "/>
<path style="fill:url(#linearGradient3849)" d="m 19.9272,8.1664 -15.4752,15.3924 5.9785,5.9572 15.4287,-15.4104 Z "/>
<path style="fill:#e9d078" d="m 4.4898,23.5823 -4.4898,10.4367 10.4217,-4.4976 -5.932,-5.939 Z "/>
<path style="fill:url(#linearGradient966)" d="m 2.457,28.2982 -2.457,5.7208 5.7056,-2.465 -3.2487,-3.2557 Z "/>
</g>
</svg>
