<svg width="48" version="1.1" xmlns="http://www.w3.org/2000/svg" height="48">
<g style="word-spacing:0;line-height:125%;letter-spacing:0">
<path d="m 18.6741,44.259099 -0.7632,0.6313 2.5005,2.5995 h 10.0891 v -2.4939 L 28,42.396499 l -1.504,2.3161 0.2637,-0.7935 v -15.6799 c 0,-7.25506 -3.66445,-11.2322 -11.5997,-11.2322 -7.48178,0 -13.712,3.85723 -13.712,7.088 0,1.53036 3.26312,3.78357 4.96353,3.78357 h 5.21457 v -5.32794 c 1.02024,-0.226721 1.87045,-0.340081 2.72065,-0.340081 3.74089,0 4.3899,1.78916 4.38425,5.89445 l -1e-4,1.201 C 6.8847,31.969968 0.1,31.913788 0.1,38.432008 c 0,4.30769 4.9,9.568 9.82564,9.56801 3.06073,5e-6 5.12098,-1.30364 8.74851,-3.74089 z m 0,-3.9231 c -2.21053,1.1336 -4.02429,3.2996 -5.49798,3.2996 -2.60729,0 -3.19386,-1.64373 -3.19386,-4.25101 0,-3.74089 3.00405,-5.21457 9.69231,-6.68826 z"/>
<path style="fill:#d2d2d2" d="m 17.1741,41.659091 0.7368,3.2308 H 28 v -2.4939 l -3.004,-0.2834 -0.7368,-0.7935 v -14.6802 c 0,-7.25506 -2.66397,-10.0324 -10.5992,-10.0324 -7.48178,0 -12.3563,3.34413 -12.3563,6.5749 0,1.53036 0.906883,2.09717 2.60729,2.09717 h 5.21457 v -5.32794 c 1.02024,-0.226721 1.87045,-0.340081 2.72065,-0.340081 3.74089,0 5.38462,1.81377 5.38462,5.89474 v 1.7004 C 5.38463,29.86965 3e-5,31.51337 3e-5,38.03158 3e-5,42.33927 3.06076,45.4 7.42513,45.4 c 3.06073,0 6.12146,-1.30364 9.74899,-3.74089 z m 0,-2.3239 c -2.21053,1.1336 -4.02429,1.7004 -5.49798,1.7004 -2.60729,0 -4.19433,-1.64373 -4.19433,-4.25101 0,-3.74089 3.00405,-5.21457 9.69231,-6.68826 z"/>
</g>
<g style="fill:#d2d2d2;stroke:#000;stroke-width:3.081" transform="matrix(0,-0.59420315,0.59420315,0,19.676187,28.59351)">
<path d="m 18.9702,38.3156 6.055,-6.055 13.0859,13.1301 c 0.910431,0.92033 2.58093,0.920352 3.49134,0 l 4.2421,-4.2421 c 0.92033,-0.910431 0.920353,-2.58093 0,-3.49134 l -13.108,-13.108 6.0326,-6.0326 c 1.83925,-1.83925 0.449829,-4.00951 -1.50261,-4.19845 l -21.9203,-2.1213 c -1.44721,-0.150223 -2.84607,1.24864 -2.69584,2.69585 l 2.1213,21.9203 c 0.229451,2.37101 2.94151,2.75954 4.19851,1.50254 z "/>
</g>
</svg>
