<svg width="48" version="1.1" xmlns="http://www.w3.org/2000/svg" height="48" xmlns:xlink="http://www.w3.org/1999/xlink">
<defs id="defs4">
<linearGradient id="linearGradient4162">
<stop offset="0" style="stop-color:#dcdcdc" id="stop4164"/>
<stop offset="1" style="stop-color:#5a5a5a" id="stop4166"/>
</linearGradient>
<linearGradient xlink:href="#linearGradient4162" id="linearGradient4168" y1="38.3377" x1="15.501" y2="15.93664" x2="39.361275" gradientUnits="userSpaceOnUse"/>
</defs>
<g style="font-family:'Bitstream Charter';text-align:start;stroke:none;word-spacing:0;line-height:125%;letter-spacing:0" id="g9">
<path style="font-weight:bold" id="path4152" d="m 18.6741,44.2591 -0.7632,0.6309 2.5005,2.5998 10.0891,0 0,-2.4939 L 28,42.396 l -1.504,2.3165 0.2637,-0.7935 0,-15.6803 c 0,-7.25506 -3.66446,-11.2327 -11.5997,-11.2327 -7.48178,0 -13.712,3.85823 -13.712,7.089 0,1.53036 3.26311,3.78346 4.96351,3.78346 l 5.21457,0 0,-5.32794 c 1.02024,-0.226721 1.87045,-0.340081 2.72065,-0.340081 3.74089,0 4.38414,1.81377 4.38414,5.89474 l 0,1.400821 C 6.88467,32.16997 0.1,31.91379 0.1,38.432 0.1,42.73969 5,48 9.92563,47.999899 c 3.06073,-6.3e-5 5.12097,-1.30364 8.7485,-3.74089 z m 0,-3.6241 c -2.21053,1.1336 -4.02429,3.0006 -5.49798,3.0006 -2.60729,0 -3.19384,-1.64373 -3.19384,-4.25101 0,-3.74089 3.00405,-5.21457 9.69231,-6.68826 z"/>
<path style="fill:#d2d2d2;font-weight:bold" id="path4149" d="m 17.1741,41.659091 0.7368,3.2308 10.0891,0 0,-2.4939 -3.004,-0.2834 -0.7368,-0.7935 0,-14.6802 c 0,-7.25506 -2.66397,-10.0324 -10.5992,-10.0324 -7.48178,0 -12.3563,3.34413 -12.3563,6.5749 0,1.53036 0.906883,2.09717 2.60729,2.09717 l 5.21457,0 0,-5.32794 c 1.02024,-0.22672 1.87045,-0.340081 2.72065,-0.340081 3.74089,0 5.38462,1.81377 5.38462,5.89474 l 0,1.7004 C 5.38463,29.86965 3e-5,31.51337 3e-5,38.03158 3e-5,42.33927 3.06076,45.4 7.42513,45.4 c 3.06073,0 6.12146,-1.30364 9.74899,-3.74089 z m 0,-2.3239 c -2.21053,1.1336 -4.02429,1.70041 -5.49798,1.70041 -2.60729,0 -4.19433,-1.64372 -4.19433,-4.25101 0,-3.74089 3.00405,-5.21457 9.69231,-6.68826 l 0,9.23887 z"/>
</g>
<g style="fill:url(#linearGradient4168)" id="layer2" transform="matrix(0,0.64905867,-0.64905867,0,55.909259,-8.20372)">
<path style="stroke:none" id="path2465" d="m 15.501,38.3377 c 0.914657,0.901364 2.56616,0.890867 3.46924,-0.0221 l 6.055,-6.055 13.0859,13.1301 c 0.910431,0.92033 2.58093,0.920352 3.49134,0 l 4.2421,-4.2421 c 0.92033,-0.910431 0.920353,-2.58093 0,-3.49134 l -13.108,-13.108 6.0326,-6.0326 c 0.665135,-0.652691 0.906105,-1.70263 0.592093,-2.58002 -0.314012,-0.877388 -1.16646,-1.53602 -2.0947,-1.61843 l -21.9203,-2.1213 c -1.44721,-0.150223 -2.84607,1.24864 -2.69584,2.69585 l 2.1213,21.9203 c 0.05442,0.572546 0.317659,1.12295 0.729204,1.5247 z"/>
</g>
</svg>
