<svg width="48" version="1.0" xmlns="http://www.w3.org/2000/svg" height="48" xmlns:xlink="http://www.w3.org/1999/xlink">
<defs>
<linearGradient id="linearGradient964">
<stop offset="0" style="stop-color:#666"/>
<stop offset="1"/>
</linearGradient>
<linearGradient id="linearGradient3770">
<stop offset="0" style="stop-color:#ffda7d"/>
<stop offset="0.3" style="stop-color:#ffda7d"/>
<stop offset="0.3" style="stop-color:#ffc941"/>
<stop offset="0.6" style="stop-color:#ffc941"/>
<stop offset="0.6" style="stop-color:#dc9e00"/>
<stop offset="1" style="stop-color:#dc9e00"/>
</linearGradient>
<linearGradient xlink:href="#linearGradient964" id="linearGradient966" y1="28.298313" x1="2.4569364" y2="31.55405" x2="5.7056303" gradientUnits="userSpaceOnUse"/>
<linearGradient gradientTransform="matrix(0.53666915,0.53666915,-0.73355593,0.73355593,11.180182,-19.947429)" id="linearGradient3849" xlink:href="#linearGradient3770" y1="23.72045" y2="23.72045" x1="34.265" x2="45.4021" gradientUnits="userSpaceOnUse"/>
</defs>
<path style="fill:#d2d2d2;stroke:#000;stroke-width:1.602" d="m 29.1847,36.9756 13.2448,.0167 c 1.03724,0.0013 1.97805,-0.626601 1.97805,-1.31746 v -5.33617 c 0,-0.690864 -0.940813,-1.31747 -1.97805,-1.31747 h -13.2448 v -5.8897 c 0,-1.64301 -2.31002,-1.96213 -3.22998,-1.01729 l -9.6152,9.8752 c -0.717766,0.737181 -0.717769,1.29739 0,2.03456 l 9.6152,9.8752 c 1.0925,1.12204 3.22998,0.243508 3.22998,-1.0173 z "/>
<g style="fill-rule:evenodd">
<path style="fill:#d57000" d="m 28.9161,.0159 c -0.559347,0.0761498 -1.22711,0.415041 -1.66223,0.849862 l -3.5989,3.5636 5.932,5.939 3.599,-3.5636 c 0.715594,-0.715107 1.07054,-2.0682 0.602025,-2.53745 l -4.0749,-4.0746 c -0.170927,-0.171198 -0.461312,-0.222592 -0.796922,-0.1769 Z "/>
<path style="fill:#d0d0d0" d="m 23.6688,4.4433 -3.7409,3.7273 5.9323,5.9387 3.7406,-3.727 z "/>
<path style="fill:url(#linearGradient3849)" d="m 19.9272,8.1664 -15.4752,15.3924 5.9785,5.9572 15.4287,-15.4104 Z "/>
<path style="fill:#e9d078" d="m 4.4898,23.5823 -4.4898,10.4367 10.4217,-4.4976 -5.932,-5.939 Z "/>
<path style="fill:url(#linearGradient966)" d="m 2.457,28.2982 -2.457,5.7208 5.7056,-2.465 -3.2487,-3.2557 Z "/>
</g>
</svg>
