<svg width="48" version="1.1" xmlns="http://www.w3.org/2000/svg" height="48" xmlns:xlink="http://www.w3.org/1999/xlink">
<defs id="defs4">
<linearGradient id="linearGradient4148">
<stop offset="0" style="stop-color:#5a5a5a" id="stop4150"/>
<stop offset="1" style="stop-color:#dcdcdc" id="stop4152"/>
</linearGradient>
<linearGradient xlink:href="#linearGradient4148" id="linearGradient4154" y1="38.858177" x1="16.769037" y2="15.412094" x2="39.074718" gradientUnits="userSpaceOnUse"/>
</defs>
<g style="font-family:'Bitstream Charter';text-align:start;stroke:none;word-spacing:0;line-height:125%;letter-spacing:0" id="g9">
<g style="font-weight:bold" id="text4144" transform="translate(0,-0.500001)">
<path id="path4146" d="m 18.6741,44.7591 -.7632,.6313 2.5005,2.5995 10.0891,0 0,-2.4939 l -2.5005,-2.5995 -1.504,2.3161 .2637,-.7935 v -15.6799 c 0,-7.25506 -3.66445,-11.2322 -11.5997,-11.2322 -7.48178,0 -13.712,3.85723 -13.712,7.088 0,1.53036 3.26312,3.78357 4.96353,3.78357 h 5.21457 v -5.32794 c 1.02024,-0.226721 1.87045,-0.340081 2.72065,-0.340081 3.74089,0 4.3899,1.78916 4.38425,5.89445 l -.0001,1.201 c -11.8462,2.66397 -18.6309,2.60779 -18.6309,9.12601 -1.41553e-15,4.30769 4.9,9.568 9.82564,9.56801 3.06073,5e-06 5.12098,-1.30364 8.74851,-3.74089 z  m 0,-3.9231 c -2.21053,1.1336 -4.02429,3.2996 -5.49798,3.2996 -2.60729,0 -3.19386,-1.64373 -3.19386,-4.25101 0,-3.74089 3.00405,-5.21457 9.69231,-6.68826 z "/>
</g>
<g style="fill:#d2d2d2;font-weight:bold" id="text2982" transform="translate(0,-1.500109)">
<path id="path4143" d="m 17.1741,43.1592 0.7368,3.2308 10.0891,0 0,-2.4939 -3.004,-0.2834 -0.7368,-0.7935 0,-14.6802 c 0,-7.25506 -2.66397,-10.0324 -10.5992,-10.0324 -7.48178,0 -12.3563,3.34413 -12.3563,6.5749 0,1.53036 0.906883,2.09717 2.60729,2.09717 l 5.21457,0 0,-5.32794 c 1.02024,-0.226721 1.87045,-0.340081 2.72065,-0.340081 3.74089,0 5.38462,1.81377 5.38462,5.89474 l 0,1.7004 C 5.38463,31.369759 3e-5,33.013479 3e-5,39.531689 c 0,4.30769 3.06073,7.36842 7.4251,7.36842 3.06073,0 6.12146,-1.30364 9.74899,-3.74089 z m 0,-2.3239 c -2.21053,1.1336 -4.02429,1.7004 -5.49798,1.7004 -2.60729,0 -4.19433,-1.64373 -4.19433,-4.25101 0,-3.74089 3.00405,-5.21457 9.69231,-6.68826 l 0,9.23887 z"/>
</g>
</g>
<g style="fill:url(#linearGradient4154)" id="layer2" transform="matrix(0,-0.64905867,0.64905867,0,18.090741,30.2039)">
<path style="stroke:none" id="path2465" d="m 15.501,38.3377 c 0.914657,0.901364 2.56616,0.890867 3.46924,-0.0221 l 6.055,-6.055 13.0859,13.1301 c 0.910431,0.92033 2.58093,0.920352 3.49134,0 l 4.2421,-4.2421 c 0.92033,-0.910431 0.920353,-2.58093 0,-3.49134 l -13.108,-13.108 6.0326,-6.0326 c 0.665135,-0.652691 0.906105,-1.70263 0.592093,-2.58002 -0.314012,-0.877388 -1.16646,-1.53602 -2.0947,-1.61843 l -21.9203,-2.1213 c -1.44721,-0.150223 -2.84607,1.24864 -2.69584,2.69585 l 2.1213,21.9203 c 0.05442,0.572546 0.317659,1.12295 0.729204,1.5247 z"/>
</g>
</svg>
