<svg width="128" version="1.0" xmlns="http://www.w3.org/2000/svg" height="128" xmlns:xlink="http://www.w3.org/1999/xlink">
<defs>
<linearGradient id="linearGradient28">
<stop offset="0" style="stop-color:#dbc457"/>
<stop offset="1" style="stop-color:#f0da94"/>
</linearGradient>
<linearGradient id="linearGradient938">
<stop offset="0" style="stop-color:#666"/>
<stop offset="1"/>
</linearGradient>
<linearGradient id="linearGradient26">
<stop offset="0" style="stop-color:#bababa"/>
<stop offset="1" style="stop-color:#e3e3e3"/>
</linearGradient>
<linearGradient id="linearGradient3770">
<stop offset="0" style="stop-color:#ffda7d"/>
<stop offset="0.3" style="stop-color:#ffda7d"/>
<stop offset="0.3" style="stop-color:#ffc941"/>
<stop offset="0.68" style="stop-color:#ffc941"/>
<stop offset="0.68" style="stop-color:#dc9e00"/>
<stop offset="1" style="stop-color:#dc9e00"/>
</linearGradient>
<linearGradient id="linearGradient24">
<stop offset="0" style="stop-color:#b25c00"/>
<stop offset="1" style="stop-color:#fa8600"/>
</linearGradient>
<linearGradient xlink:href="#linearGradient28" id="linearGradient29" y1="100.9537" x1="45.1017" y2="82.7659" x2="26.8925" gradientUnits="userSpaceOnUse"/>
<linearGradient gradientTransform="matrix(1.6450052,1.6450052,-2.2485051,2.2485051,47.399892,-50.661982)" id="linearGradient3849" xlink:href="#linearGradient3770" y1="23.72045" y2="23.72045" x1="34.265" x2="45.4021" gradientUnits="userSpaceOnUse"/>
<linearGradient xlink:href="#linearGradient26" id="linearGradient27" y1="53.7174" x1="92.393898" y2="35.5256" x2="74.213402" gradientUnits="userSpaceOnUse"/>
<linearGradient xlink:href="#linearGradient24" id="linearGradient25" y1="42.262508" x1="103.82051" y2="24.1007" x2="85.680099" gradientUnits="userSpaceOnUse"/>
<linearGradient xlink:href="#linearGradient938" id="linearGradient940" y1="97.221489" x1="20.661285" y2="107.20102" x2="30.619225" gradientUnits="userSpaceOnUse"/>
</defs>
<circle cx="25.732271" cy="-72.618324" style="fill:#ff1700;stroke-width:1.764" r="10.571689" transform="rotate(150.28205)"/>
<path style="fill:#a600ff" d="m 126.2003,79.1128 c -1.53887,5.63208 -7.35684,8.953 -12.9904,7.41501 -5.62726,-1.53756 -8.94819,-7.35552 -7.41086,-12.9867 1.53887,-5.63208 7.35684,-8.95301 12.9872,-7.4172 5.6323,1.5428 8.95081,7.36011 7.41414,12.9889 z"/>
<path style="fill:#ffa500" d="m 23.9864,51.1898 c -1.54062,5.62901 -7.35617,8.95059 -12.9859,7.41238 -5.63361,-1.53799 -8.953,-7.35683 -7.41413,-12.9889 1.53821,-5.62967 7.35464,-8.94972 12.9874,-7.41326 5.63054,1.53974 8.95147,7.35771 7.4126,12.9898 z"/>
<path style="fill:#6400ff" d="m 118.8203,59.1262 c -5.64706,1.48848 -11.4286,-1.88888 -12.9132,-7.53617 -1.483,-5.64816 1.89283,-11.4288 7.54033,-12.9094 5.64949,-1.48783 11.4317,1.88713 12.9119,7.54098 1.48454,5.64728 -1.89151,11.424 -7.53902,12.9046 z"/>
<path style="fill:#ffdc00" d="m 35.0538,32.2345 c -4.14841,4.10689 -10.8432,4.07661 -14.9512,-0.0773 -4.10929,-4.14906 -4.07638,-10.8393 0.0681,-14.9459 4.15191,-4.11498 10.8463,-4.07835 14.9556,0.0707 4.11083,4.14819 4.07727,10.8408 -0.0725,14.9525 z"/>
<circle cx="-39.156925" cy="-35.158707" style="fill:#00ca0b;stroke-width:1.764" r="10.573452" transform="rotate(150.28205)"/>
<path style="fill:#0bf" d="m 89.0596,14.0457 c -1.53975,5.63055 -7.35859,8.94994 -12.9889,7.41414 -5.63054,-1.53974 -8.95147,-7.35771 -7.41413,-12.9889 1.53974,-5.63055 7.3577,-8.95147 12.9889,-7.41414 5.62901,1.54062 8.95147,7.35771 7.41414,12.9889 z"/>
<g style="fill:none">
<path style="opacity:.7" d="m 118.787,66.1254 c -5.63033,-1.5358 -11.4483,1.78512 -12.9872,7.4172 -1.53733,5.6312 1.78359,11.4492 7.41085,12.9867 5.63361,1.53799 11.4516,-1.78293 12.9904,-7.41501 1.5358,-5.63033 -1.78271,-11.4476 -7.41414,-12.9889 z"/>
<path style="opacity:.7" d="m 113.4474,38.6806 c -5.64816,1.48301 -9.02333,7.26128 -7.54033,12.9094 1.48609,5.64641 7.26611,9.02465 12.9132,7.53617 5.64663,-1.48214 9.02356,-7.25735 7.53902,-12.9046 -1.48016,-5.65385 -7.26237,-9.02881 -12.9119,-7.54098 z"/>
<circle cx="-76.618317" cy="-72.618324" style="opacity:.7;stroke-width:1.764" r="10.571689" transform="rotate(150.28205)"/>
<path style="opacity:.7" d="m 68.6566,8.4709 c -1.53734,5.6312 1.78359,11.4492 7.41413,12.9889 5.63033,1.5358 11.4492,-1.78359 12.9889,-7.41414 C 90.59849,8.41358 87.2745,2.59736 81.64549,1.05676 76.01428,-0.48058 70.19629,2.84035 68.65659,8.4709 Z"/>
<circle cx="-39.1534" cy="-35.156944" style="opacity:.7;stroke-width:1.764" r="10.571689" transform="rotate(150.28205)"/>
</g>
<g style="fill:#fff">
<rect width="1" x="116" y="77" height="0" style="opacity:.578"/>
<rect width="1" x="-141.37" y="33.53812" height="0" style="opacity:.578"/>
<rect width="1" x="-78.040306" y="106.44318" height="0" style="opacity:.578"/>
<rect width="1" x="-335.41028" y="62.9813" height="0" style="opacity:.578"/>
<path style="fill-opacity:.757" d="M 43.2201,52.2709 V 50.2094 Z"/>
</g>
<rect width="70" x="36.399498" y="113.97501" height="5" style="opacity:.7"/>
<rect width="70" x="36.399498" y="112.97501" height="5" style="fill:#a0a0a0"/>
<g style="fill-rule:evenodd">
<path style="fill:url(#linearGradient25)" d="m 101.7643,10.5298 c -1.71452,0.233415 -3.76136,1.27219 -5.09509,2.60501 l -11.0315,10.9233 18.1828,18.2044 11.0315,-10.9233 c 2.19345,-2.19196 3.28144,-6.33946 1.84533,-7.77782 l -12.4903,-12.4894 c -0.52393,-0.524759 -1.41402,-0.682293 -2.44274,-0.542238 z"/>
<path style="fill:url(#linearGradient27)" d="M 85.6801,24.1007 74.2134,35.5256 92.3971,53.7291 103.8629,42.3051 Z"/>
<path style="fill:url(#linearGradient3849)" d="m 74.2114,35.5128 -47.4349,47.1809 18.3252,18.26 47.2922,-47.2363 z"/>
<path style="fill:url(#linearGradient29)" d="M 26.8925,82.7659 13.1303,114.7567 45.0751,100.9705 26.8923,82.7661 Z"/>
<path style="fill:url(#linearGradient940)" d="m 20.6615,97.2213 -7.5313,17.5355 17.489,-7.5558 -9.9579,-9.9795 z"/>
</g>
</svg>
