<svg width="48" version="1.0" xmlns="http://www.w3.org/2000/svg" height="48" xmlns:xlink="http://www.w3.org/1999/xlink">
<defs>
<linearGradient id="linearGradient945">
<stop offset="0" style="stop-color:#666"/>
<stop offset="1"/>
</linearGradient>
<linearGradient id="linearGradient3770">
<stop offset="0" style="stop-color:#ffda7d"/>
<stop offset="0.3" style="stop-color:#ffda7d"/>
<stop offset="0.3" style="stop-color:#ffc941"/>
<stop offset="0.6" style="stop-color:#ffc941"/>
<stop offset="0.6" style="stop-color:#dc9e00"/>
<stop offset="1" style="stop-color:#dc9e00"/>
</linearGradient>
<linearGradient xlink:href="#linearGradient945" id="linearGradient947" y1="28.298241" x1="2.4570098" y2="31.55405" x2="5.7056303" gradientUnits="userSpaceOnUse"/>
<linearGradient gradientTransform="matrix(0.53666915,0.53666915,-0.73355593,0.73355593,11.180182,-19.947429)" xlink:href="#linearGradient3770" id="linearGradient3849" y1="23.72045" x1="34.265" y2="23.72045" gradientUnits="userSpaceOnUse" x2="45.4021"/>
</defs>
<g style="color:#000">
<path style="fill:#d2d2d2" d="m 33.6211,22.3965 c -0.117824,-0.002058 -0.236733,0.008398 -0.347656,0.035157 -0.221846,0.053516 -0.396007,0.154886 -0.498047,0.263671 -0.102044,0.108787 -0.158203,0.212487 -0.158203,0.435547 v 6.69141 h -13.7461 c -0.35732,0 -0.486844,0.089389 -0.558594,0.162109 -0.071751,0.072719 -0.119141,0.17833 -0.119141,0.353516 v 5.33789 c 0,0.175183 0.049364,0.282729 0.121094,0.355469 0.071728,0.072746 0.197877,0.160638 0.554688,0.160156 l 12.9453,-.0176 h 0.802735 v 6.70898 c 0,0.177735 0.229901,0.491067 0.669921,0.646485 0.440021,0.155418 0.892395,0.10962 1.18359,-0.189453 l 9.6152,-9.875 c 0.28813,-0.295928 0.3125,-0.430065 0.3125,-0.458985 0,-0.028918 -0.024366,-0.161102 -0.3125,-0.457031 l -9.6152,-9.875 c -0.146098,-0.150043 -0.496139,-0.271169 -0.849609,-0.277344 z "/>
<path style="opacity:.88" d="m 34.3398,20.8496 c -0.47212,-0.105705 -0.970753,-0.0901 -1.44141,0.02344 -0.470653,0.113537 -0.931181,0.340985 -1.29102,0.724609 -0.359834,0.383624 -0.59375,0.934755 -0.59375,1.5332 v 5.08984 h -12.1426 c -0.679915,0 -1.28945,0.22342 -1.69727,0.636719 -0.407812,0.413299 -0.582031,0.96479 -0.582031,1.48047 v 5.33789 c 0,0.515676 0.172242,1.06685 0.580078,1.48047 0.407836,0.41362 1.02074,0.637637 1.70117,0.636719 l 12.1406,-.0156 v 5.10547 c 0,1.08306 0.838378,1.83771 1.74023,2.15625 0.901856,0.318541 2.06394,0.242878 2.86523,-0.580078 l 9.6152,-9.877 c 0.42963,-0.441248 0.765625,-0.956393 0.765625,-1.57617 0,-0.619775 -0.335996,-1.13297 -0.765625,-1.57422 l -9.6152,-9.877 c -0.362602,-0.372403 -0.807178,-0.599372 -1.2793,-0.705078 z  m -1.0664,1.582 c 0.443693,-0.107034 1.00247,0.04213 1.19727,0.242187 l 9.6152,9.875 c 0.288135,0.295929 0.3125,0.428113 0.3125,0.457031 0,0.02892 -0.02437,0.163057 -0.3125,0.458985 l -9.6152,9.875 c -0.291199,0.299073 -0.743573,0.344871 -1.18359,0.189453 -0.44002,-0.155418 -0.669922,-0.46875 -0.669922,-0.646485 v -6.70898 l -13.748,.0176 c -0.356811,0 -0.48296,-0.08741 -0.554688,-0.160156 -0.07173,-0.07274 -0.121094,-0.180286 -0.121094,-0.355469 v -5.33789 c 0,-0.175186 0.04739,-0.280797 0.119141,-0.353516 0.07175,-0.07272 0.201274,-0.162109 0.558594,-0.162109 h 13.7461 v -6.69141 c 0,-0.22306 0.05616,-0.32676 0.158204,-0.435547 0.10204,-0.108786 0.2762,-0.210155 0.498046,-0.263671 z "/>
</g>
<g style="fill-rule:evenodd">
<path style="fill:#d57000" d="m 28.9161,.0159 c -0.559347,0.0761498 -1.22711,0.415041 -1.66223,0.849862 l -3.5989,3.5636 5.932,5.939 3.599,-3.5636 c 0.715594,-0.715107 1.07054,-2.0682 0.602025,-2.53745 l -4.0749,-4.0746 c -0.170927,-0.171198 -0.461312,-0.222592 -0.796922,-0.1769 Z "/>
<path style="fill:#d0d0d0" d="m 23.6688,4.4433 -3.7409,3.7273 5.9323,5.9387 3.7406,-3.727 z "/>
<path style="fill:url(#linearGradient3849)" d="m 19.9272,8.1664 -15.4752,15.3924 5.9785,5.9572 15.4287,-15.4104 Z "/>
<path style="fill:#e9d078" d="m 4.4898,23.5823 -4.4898,10.4367 10.4217,-4.4976 -5.932,-5.939 Z "/>
<path style="fill:url(#linearGradient947)" d="m 2.457,28.2982 -2.457,5.7208 5.7056,-2.465 -3.2487,-3.2557 Z "/>
</g>
</svg>
