<svg width="48" version="1.1" xmlns="http://www.w3.org/2000/svg" height="48">
<path d="m 18.6741,44.259099 -0.7632,0.6313 2.5005,2.5995 h 10.0891 v -2.4939 L 28,42.396499 l -1.504,2.3161 0.2637,-0.7935 v -15.6799 c 0,-7.25506 -3.66445,-11.2322 -11.5997,-11.2322 -7.48178,0 -13.712,3.85723 -13.712,7.088 0,1.53036 3.26312,3.78357 4.96353,3.78357 h 5.21457 v -5.32794 c 1.02024,-0.226721 1.87045,-0.340081 2.72065,-0.340081 3.74089,0 4.3899,1.78916 4.38425,5.89445 l 0,1.201 C 6.8847,31.969968 0.1,31.913788 0.1,38.432008 c 0,4.30769 4.9,9.568 9.82564,9.56801 3.06073,0 5.12098,-1.30364 8.74851,-3.74089 z m 0,-3.9231 c -2.21053,1.1336 -4.02429,3.2996 -5.49798,3.2996 -2.60729,0 -3.19386,-1.64373 -3.19386,-4.25101 0,-3.74089 3.00405,-5.21457 9.69231,-6.68826 z"/>
<g style="fill:#d2d2d2">
<path d="m 17.1741,41.659091 0.7368,3.2308 H 28 v -2.4939 l -3.004,-0.2834 -0.7368,-0.7935 v -14.6802 c 0,-7.25506 -2.66397,-10.0324 -10.5992,-10.0324 -7.48178,0 -12.3563,3.34413 -12.3563,6.5749 0,1.53036 0.906883,2.09717 2.60729,2.09717 h 5.21457 v -5.32794 c 1.02024,-0.226721 1.87045,-0.340081 2.72065,-0.340081 3.74089,0 5.38462,1.81377 5.38462,5.89474 v 1.7004 C 5.38463,29.86965 0,31.51337 0,38.03158 0,42.33927 3.06076,45.4 7.42513,45.4 c 3.06073,0 6.12146,-1.30364 9.74899,-3.74089 z m 0,-2.3239 c -2.21053,1.1336 -4.02429,1.7004 -5.49798,1.7004 -2.60729,0 -4.19433,-1.64373 -4.19433,-4.25101 0,-3.74089 3.00405,-5.21457 9.69231,-6.68826 z"/>
<path style="color:#000" d="m 43.0898,1.8848 c -0.156543,0 -0.313091,0.036896 -0.386719,0.111328 l -.002,.002 -8.4375,8.4375 -4.2324,-4.2324 c -0.337658,-0.337658 -0.445265,-0.276591 -0.589844,-0.210938 -0.144579,0.0656533 -0.319933,0.278584 -0.345703,0.544922 l -1.2617,13.0293 v 0.002 c -0.02276,0.219235 0.378426,0.620417 0.597657,0.597657 h 0.002 l 13.0293,-1.2617 c 0.365034,-0.03533 0.403294,-0.14414 0.458984,-0.347656 0.05569,-0.203517 -0.01764,-0.480531 -0.125,-0.587891 l -4.2461,-4.2461 8.4512,-8.4238 .002,-.002 c 0.14888,-0.147279 0.148865,-0.626181 0,-0.773438 l -.002,-.002 -2.5234,-2.5234 -.002,-.002 c -0.07364,-0.07444 -0.230176,-0.11133 -0.386718,-0.111328 z "/>
</g>
<path style="opacity:.88;color:#000" d="m 43.0898,0 c -0.610352,0 -1.22016,0.23654 -1.6875,0.708984 l -7.1387,7.1387 -2.9375,-2.9375 C 30.570871,4.154955 29.48697,3.960287 28.68548,4.324247 c -0.801497,0.36396 -1.32561,1.1433 -1.41211,2.03711 l -1.2617,13.0254 0.002,-0.0059 c -0.155764,1.50064 1.10483,2.76125 2.60547,2.60547 l -0.0059,0.002 13.0254,-1.2617 c 1.04382,-0.101014 1.8236,-0.864447 2.04883,-1.6875 0.225228,-0.823052 0.0419,-1.72568 -0.597656,-2.36523 l -2.9492,-2.9492 7.1504,-7.127 c 0.944844,-0.934682 0.944886,-2.44032 0,-3.375 l -2.5137,-2.5137 C 44.309973,0.236575 43.700164,0 43.089814,0 Z m -0.3867,1.9961 c 0.147256,-0.148864 0.626158,-0.14888 0.773437,0 l 2.5274,2.5272 c 0.148865,0.147257 0.14888,0.626159 0,0.773438 l -8.4532,8.4257 4.2461,4.2461 c 0.10736,0.10736 0.180692,0.384374 0.125,0.587891 -0.05569,0.203516 -0.09395,0.31233 -0.458984,0.347656 l -13.0313,1.2617 c -0.219231,0.02276 -0.620413,-0.378422 -0.597657,-0.597657 l 1.2617,-13.0312 c 0.02577,-0.266338 0.201124,-0.479269 0.345703,-0.544922 0.144579,-0.065653 0.252186,-0.126721 0.589844,0.210938 l 4.2324,4.2324 z"/>
</svg>
