<svg width="48" version="1.1" xmlns="http://www.w3.org/2000/svg" height="48">
<path d="m 18.6741,44.2591 -0.7632,0.6309 2.5005,2.5998 H 30.5005 V 44.9959 L 28,42.396 26.496,44.7125 26.7597,43.919 V 28.2387 c 0,-7.25506 -3.66446,-11.2327 -11.5997,-11.2327 -7.48178,0 -13.712,3.85823 -13.712,7.089 0,1.53036 3.26311,3.78346 4.96351,3.78346 h 5.21457 v -5.32794 c 1.02024,-0.226721 1.87045,-0.340081 2.72065,-0.340081 3.74089,0 4.38414,1.81377 4.38414,5.89474 V 29.506 C 6.88467,32.16997 0.1,31.91379 0.1,38.432 0.1,42.73969 5,48 9.92563,48 c 3.06073,0 5.12097,-1.30364 8.7485,-3.74089 z m 0,-3.6241 c -2.21053,1.1336 -4.02429,3 -5.49798,3 -2.60729,0 -3.19384,-1.64373 -3.19384,-4.25101 0,-3.74089 3.00405,-5.21457 9.69231,-6.68826 z"/>
<path style="fill:#d2d2d2" d="m 17.1741,41.659091 0.7368,3.2308 H 28 v -2.4939 l -3.004,-0.2834 -0.7368,-0.7935 v -14.6802 c 0,-7.25506 -2.66397,-10.0324 -10.5992,-10.0324 -7.48178,0 -12.3563,3.34413 -12.3563,6.5749 0,1.53036 0.906883,2.09717 2.60729,2.09717 h 5.21457 v -5.32794 c 1.02024,-0.22672 1.87045,-0.340081 2.72065,-0.340081 3.74089,0 5.38462,1.81377 5.38462,5.89474 v 1.7004 C 5.38463,29.86965 0,31.51337 0,38.03158 0,42.33927 3.06076,45.4 7.42513,45.4 c 3.06073,0 6.12146,-1.30364 9.74899,-3.74089 z m 0,-2.3239 c -2.21053,1.1336 -4.02429,1.70041 -5.49798,1.70041 -2.60729,0 -4.19433,-1.64372 -4.19433,-4.25101 0,-3.74089 3.00405,-5.21457 9.69231,-6.68826 v 9.23887 z"/>
<g style="color:#000">
<path style="fill:#d2d2d2" d="m 45.3418,2.0039 l -14.2305,1.377 c -0.398586,0.0385729 -0.44111,0.157954 -0.501953,0.380859 -0.060839,0.222905 0.021175,0.527066 0.136719,0.642578 l 4.6387,4.6387 -9.2344,9.2012 v 0.001953 c -0.162625,0.160876 -0.162608,0.6829 0,0.84375 v 0.001953 l 2.7578,2.7559 .002,.0039 c 0.160875,0.162626 0.684852,0.162608 0.845703,0 v -0.003906 l 9.2188,-9.2148 4.6211,4.6211 c 0.348924,0.348925 0.478091,0.293193 0.642578,0.220703 0.164486,-0.072487 0.35265,-0.294392 0.38086,-0.585937 l 1.377,-14.2285 v -0.0039062 c 0.024857,-0.23947 -0.412875,-0.677203 -0.652344,-0.652344 h -0.001953 z "/>
<path style="opacity:.88" d="m 45.4453,0 c -0.1,-0.0012824 -0.20243,0.00320998 -0.304687,0.0136719 l -14.2227,1.377 c -1.14081,0.1104 -1.99292,0.946746 -2.23828,1.8457 -0.245363,0.898958 -0.04587,1.88186 0.652343,2.58008 l 3.2207,3.2227 -7.8125,7.7871 c -1.02945,1.02116 -1.02925,2.66544 0.002,3.68555 l 2.7461,2.7461 c 1.02097,1.03207 2.66653,1.03212 3.6875,0 l 7.7969,-7.7988 3.209,3.2109 c 0.814343,0.814343 1.98701,1.02092 2.86328,0.634766 0.876267,-0.386159 1.46887,-1.23495 1.56445,-2.22266 l 1.377,-14.2227 c 0.156922,-1.53386 -1.04234,-2.84014 -2.54102,-2.85938 z  m -.1035,2.0039 h 0.002 c 0.239469,-0.024859 0.677201,0.412874 0.652344,0.652344 l -1.377,14.2324 c -0.02821,0.291545 -0.216374,0.51345 -0.38086,0.585937 -0.164487,0.07249 -0.293654,0.128222 -0.642578,-0.220703 l -4.6211,-4.6211 -9.2188,9.2187 c -0.160851,0.162608 -0.684828,0.162626 -0.845703,0 l -2.7598,-2.7618 c -0.162608,-0.16085 -0.162625,-0.682874 0,-0.84375 l 9.2344,-9.2032 -4.6387,-4.6387 c -0.115544,-0.115512 -0.197558,-0.419673 -0.136719,-0.642578 0.06084,-0.222905 0.103367,-0.342287 0.501953,-0.380859 l 14.2305,-1.377 z "/>
</g>
</svg>
