<svg width="128" version="1.0" xmlns="http://www.w3.org/2000/svg" height="128" xmlns:xlink="http://www.w3.org/1999/xlink">
<defs id="defs1309">
<linearGradient gradientTransform="translate(0.34756813,1.2031)" id="linearGradient3849" xlink:href="#linearGradient3770" y1="23.72045" y2="23.72045" x1="34.265" x2="45.4021" gradientUnits="userSpaceOnUse"/>
<linearGradient id="linearGradient3770">
<stop offset="0" style="stop-color:#ffda7d" id="stop3772"/>
<stop offset="0.30000001" style="stop-color:#ffda7d" id="stop3782"/>
<stop offset="0.30000001" style="stop-color:#ffc941" id="stop3780"/>
<stop offset="0.60000002" style="stop-color:#ffc941" id="stop3784"/>
<stop offset="0.60000002" style="stop-color:#dc9e00" id="stop3778"/>
<stop offset="1" style="stop-color:#dc9e00" id="stop3774"/>
</linearGradient>
</defs>
<g id="layer1">
<circle cx="93.004997" cy="70.773003" style="fill:#ff1700" id="circle76" r="5.9920001" d="m 98.996997,70.773003 c 0,3.30929 -2.682709,5.992 -5.992,5.992 -3.30929,0 -5.992,-2.68271 -5.992,-5.992 0,-3.309291 2.68271,-5.992 5.992,-5.992 3.309291,0 5.992,2.682709 5.992,5.992 z" transform="matrix(-1.532253,0.874618,-0.874618,-1.532253,218.0578,102.92187)"/>
<path style="fill:#a600ff" id="path78" d="m 126.2003,79.1128 c -1.53887,5.63208 -7.35684,8.953 -12.9904,7.41501 -5.62726,-1.53756 -8.94819,-7.35552 -7.41086,-12.9867 1.53887,-5.63208 7.35684,-8.95301 12.9872,-7.4172 5.6323,1.5428 8.95081,7.36011 7.41414,12.9889 z "/>
<path style="fill:#ffa500" id="path80" d="m 23.9864,51.1898 c -1.54062,5.62901 -7.35617,8.95059 -12.9859,7.41238 -5.63361,-1.53799 -8.953,-7.35683 -7.41413,-12.9889 1.53821,-5.62967 7.35464,-8.94972 12.9874,-7.41326 5.63054,1.53974 8.95147,7.35771 7.4126,12.9898 z "/>
<path style="fill:#6400ff" id="path82" d="m 118.8203,59.1262 c -5.64706,1.48848 -11.4286,-1.88888 -12.9132,-7.53617 -1.483,-5.64816 1.89283,-11.4288 7.54033,-12.9094 5.64949,-1.48783 11.4317,1.88713 12.9119,7.54098 1.48454,5.64728 -1.89151,11.424 -7.53902,12.9046 z "/>
<path style="fill:#ffdc00" id="path84" d="m 35.0538,32.2345 c -4.14841,4.10689 -10.8432,4.07661 -14.9512,-0.0773 -4.10929,-4.14906 -4.07638,-10.8393 0.0681,-14.9459 4.15191,-4.11498 10.8463,-4.07835 14.9556,0.0707 4.11083,4.14819 4.07727,10.8408 -0.0725,14.9525 z "/>
<circle cx="56.226002" cy="92.004997" style="fill:#00ca0b" id="circle88" r="5.993" d="m 62.219002,92.004997 c 0,3.309843 -2.683158,5.993 -5.993,5.993 -3.309843,0 -5.993,-2.683157 -5.993,-5.993 0,-3.309842 2.683157,-5.993 5.993,-5.993 3.309842,0 5.993,2.683158 5.993,5.993 z" transform="matrix(-1.532253,0.874618,-0.874618,-1.532253,218.0578,102.92187)"/>
<path style="fill:#0bf" id="path90" d="m 89.0596,14.0457 c -1.53975,5.63055 -7.35859,8.94994 -12.9889,7.41414 -5.63054,-1.53974 -8.95147,-7.35771 -7.41413,-12.9889 1.53974,-5.63055 7.3577,-8.95147 12.9889,-7.41414 5.62901,1.54062 8.95147,7.35771 7.41414,12.9889 z "/>
<g style="fill:none">
<path style="opacity:.7" id="path92" d="m 118.787,66.1254 c -5.63033,-1.5358 -11.4483,1.78512 -12.9872,7.4172 -1.53733,5.6312 1.78359,11.4492 7.41085,12.9867 5.63361,1.53799 11.4516,-1.78293 12.9904,-7.41501 1.5358,-5.63033 -1.78271,-11.4476 -7.41414,-12.9889 z "/>
<path style="opacity:.7" id="path94" d="m 113.4474,38.6806 c -5.64816,1.48301 -9.02333,7.26128 -7.54033,12.9094 1.48609,5.64641 7.26611,9.02465 12.9132,7.53617 5.64663,-1.48214 9.02356,-7.25735 7.53902,-12.9046 -1.48016,-5.65385 -7.26237,-9.02881 -12.9119,-7.54098 z "/>
<circle cx="34.993" cy="70.773003" style="opacity:.7" id="circle96" r="5.9920001" d="m 40.985,70.773003 c 0,3.30929 -2.68271,5.992 -5.992,5.992 -3.30929,0 -5.992,-2.68271 -5.992,-5.992 0,-3.309291 2.68271,-5.992 5.992,-5.992 3.30929,0 5.992,2.682709 5.992,5.992 z" transform="matrix(-1.532253,0.874618,-0.874618,-1.532253,218.0578,102.92187)"/>
<path style="opacity:.7" id="path98" d="m 68.6566,8.4709 c -1.53734,5.6312 1.78359,11.4492 7.41413,12.9889 5.63033,1.5358 11.4492,-1.78359 12.9889,-7.41414 1.53886,-5.63208 -1.78513,-11.4483 -7.41414,-12.9889 -5.63121,-1.53734 -11.4492,1.78359 -12.9889,7.41414 z "/>
<circle cx="56.228001" cy="92.005997" style="opacity:.7" id="circle100" r="5.9920001" d="m 62.220001,92.005997 c 0,3.30929 -2.68271,5.992 -5.992,5.992 -3.309291,0 -5.992,-2.68271 -5.992,-5.992 0,-3.309291 2.682709,-5.992 5.992,-5.992 3.30929,0 5.992,2.682709 5.992,5.992 z" transform="matrix(-1.532253,0.874618,-0.874618,-1.532253,218.0578,102.92187)"/>
</g>
<g style="stroke:none">
<g style="fill:#fff">
<g style="stroke-linejoin:round;stroke-linecap:round;stroke-width:3.632;stroke-dashoffset:4">
<rect width="1" x="116" y="77" height="0" style="opacity:.578" id="rect1327"/>
<rect width="1" x="-141.37" y="33.53812" height="0" style="opacity:.578" id="rect2306"/>
</g>
<rect width="1" x="-78.040306" y="106.44318" height="0" style="opacity:.578" id="rect1327-6"/>
<rect width="1" x="-335.41028" y="62.9813" height="0" style="opacity:.578" id="rect2306-2"/>
<path style="fill-opacity:.757" id="path2276" d="m 43.2201,52.2709 0,-2.0615 0,2.0615 z "/>
</g>
<rect width="70.000008" x="36.399498" y="113.97501" height="4.9999971" style="opacity:.7" id="rect4189"/>
<rect width="70.000008" x="36.399498" y="112.97501" height="4.9999971" style="fill:#a0a0a0" id="rect3950"/>
<g style="fill-rule:evenodd" id="g4270" transform="matrix(1.6450052,1.6450052,-2.2485051,2.2485051,592.73044,380.7202)">
<g id="g4211" transform="translate(-297.2198,24.135594)">
<path style="fill:#d57000" id="path3801" d="m 35.4709,2.7213 c -0.450182,0.433162 -0.756585,1.11931 -0.75686,1.71227 l -0.0329,4.8821 11.0599,0.0048 0.0329,-4.8821 c 4.54e-4,-0.975182 -0.929486,-2.1394 -1.80318,-2.1399 l -7.5926,2e-4 c -0.318749,-1.846e-4 -0.637175,0.162714 -0.907284,0.422614 z"/>
<path style="fill:#d0d0d0" id="path3799" d="m 34.707,9.3157 -.0127,5.0904 11.0599,.0044 .0127,-5.09 z "/>
<path style="fill:url(#linearGradient3849)" id="path3797" d="m 34.6898,14.4037 -.0772,21.0397 11.1201,-.0145 .017,-21.0203 z "/>
<path style="fill:#e9d078" id="path1918-2" d="m 34.6698,35.4337 5.5406,10.1741 5.5193,-10.1692 -11.0599,-.0048 Z "/>
</g>
<path id="path3803" d="m -260.0502,64.1693 3.0408,5.5741 3.0192,-5.5692 -6.06,-.0048 z "/>
</g>
</g>
</g>
</svg>
