<svg width="48" version="1.0" xmlns="http://www.w3.org/2000/svg" height="48">
<g style="stroke-width:2;stroke:none;stroke-opacity:0">
<g style="fill:#fff">
<path style="opacity:.6" id="path4147" d="m 8.0343,7.6026 c 7.47105,3.14687 10.4729,5.1458 17.4675,5.1458 6.99456,0 10.1352,-3.05314 17.3395,-6.7761 1.86268,-0.962584 5.27803,3.52617 3.41456,5.8909 l -18.2668,23.1805 c -1.19662,1.47381 -3.77784,1.47381 -4.97446,0 l -18.2668,-23.1805 c -1.87141,-2.3748 -0.0268956,-5.6563 3.28669,-4.2606 Z "/>
<path style="opacity:.6" id="path4149" d="m 45.489,37.366 c 0,-1.39649 -1.08249,-2.4808 -2.5299,-2.92995 h -14.8977 -12.1185 -9.20196 c -1.39649,0 -2.5299,1.1334 -2.5299,2.5299 v 4.23619 c 0,1.39649 1.1334,2.5299 2.5299,2.5299 h 36.2181 c 1.39649,0 2.5299,-1.1334 2.5299,-2.5299 z "/>
</g>
<g style="fill:#919191">
<path id="path3939" d="m 6.5342,6.1023 c 7.47105,3.14687 10.4729,5.1458 17.4675,5.1458 6.99456,0 9.99295,-1.99893 17.4669,-5.1458 3.31468,-1.39563 5.15065,1.89588 3.28719,4.2606 l -18.2668,23.1805 c -1.19662,1.47381 -3.77784,1.47381 -4.97446,0 l -18.2668,-23.1805 c -1.87141,-2.3748 -0.0268956,-5.6563 3.28669,-4.2606 Z "/>
<path id="path3328" d="m 43.989,36.7656 c 0,-1.39649 -1.1334,-2.5299 -2.5299,-2.5299 h -14.8977 -12.1185 -7.90202 c -1.39649,0 -2.5299,1.1334 -2.5299,2.5299 v 2.93616 c 0,1.39649 1.1334,2.5299 2.5299,2.5299 h 34.9182 c 1.39649,0 2.5299,-1.1334 2.5299,-2.5299 z "/>
</g>
</g>
</svg>
