<svg width="48" version="1.0" xmlns="http://www.w3.org/2000/svg" height="48">
<g style="stroke:none">
<path style="fill:#d6dfe2;fill-rule:evenodd;stroke-linejoin:round;stroke-linecap:round;stroke-width:2.647" id="rect822" d="m 4,2 h 40 c 1.108,0 2,0.892 2,2 v 40 c 0,1.108 -0.892,2 -2,2 H 4 C 2.892,46 2,45.108 2,44 V 4 C 2,2.892 2.892,2 4,2 Z"/>
<g style="fill:#c76b00">
<path style="stroke-width:1.526" id="path3591" d="m 33.5467,6.3075 c 1.67043,0.186878 3.06849,1.75971 3.05826,3.44054 v 7.59902 H 43 v 11.9432 h -6.39504 v 8.95896 c 0.0081,1.3324 -0.819774,2.64786 -2.03882,3.18568 -1.21907,0.537822 -2.75951,0.267406 -3.73787,-0.637136 l -14.7857,-14.9514 c -1.44176,-1.3228 -1.37757,-3.93166 0.127433,-5.18203 l 14.7857,-13.5498 c 0.706808,-0.604229 1.66611,-0.903039 2.59102,-0.807041 z"/>
<path style="fill-rule:evenodd;stroke-linejoin:round;stroke-linecap:round;stroke-width:2.391" id="rect812" d="M 12,6 H 8 C 6.892,6 6,6.892 6,8 v 32 c 0,1.108 0.892,2 2,2 h 4 c 1.108,0 2,-0.892 2,-2 V 8 C 14,6.892 13.108,6 12,6 Z"/>
</g>
</g>
</svg>
