<svg width="48" version="1.0" xmlns="http://www.w3.org/2000/svg" height="48">
<g style="stroke-width:2;stroke:none;stroke-opacity:0">
<g style="fill:#fff">
<path style="opacity:.6" id="path4147" d="m 43.3974,8.0339 c -3.14687,7.47105 -5.1458,10.4729 -5.1458,17.4675 0,6.99456 1.99893,9.99295 5.1458,17.4669 1.39563,3.31468 -1.89587,5.15065 -4.2606,3.28719 l -23.1805,-18.2668 c -1.47381,-1.19662 -1.47381,-3.77784 1.77636e-15,-4.97446 l 23.0203,-19.5485 c 2.30469,-1.9571 5.81651,1.25478 4.42081,4.56837 z "/>
<path style="opacity:.6" id="path4149" d="m 12.734,45.4886 c 1.39649,0 2.5299,-1.1334 2.5299,-2.5299 v -14.8977 -12.1185 -9.10155 c 0,-1.39649 -1.1334,-2.5299 -2.5299,-2.5299 h -4.23607 c -1.39649,0 -2.5299,1.1334 -2.5299,2.5299 v 36.1178 c 0,1.39649 1.1334,2.5299 2.5299,2.5299 z "/>
</g>
<g style="fill:#919191">
<path id="path3939" d="m 41.8977,6.5342 c -3.14687,7.47105 -5.1458,10.4729 -5.1458,17.4675 0,6.99456 1.99893,9.99295 5.1458,17.4669 1.39563,3.31468 -1.89587,5.15065 -4.2606,3.28719 l -23.1805,-18.2668 c -1.47381,-1.19662 -1.47381,-3.77784 0,-4.97446 l 23.1805,-18.2668 c 2.3748,-1.87141 5.6563,-0.026896 4.2606,3.28669 z "/>
<path id="path3328" d="m 11.2344,43.989 c 1.39649,0 2.5299,-1.1334 2.5299,-2.5299 v -14.8977 -12.1185 -7.90202 c 0,-1.39649 -1.1334,-2.5299 -2.5299,-2.5299 h -2.93616 c -1.39649,0 -2.5299,1.1334 -2.5299,2.5299 v 34.9182 c 0,1.39649 1.1334,2.5299 2.5299,2.5299 z "/>
</g>
</g>
</svg>
