<svg width="48" version="1.0" xmlns="http://www.w3.org/2000/svg" height="48">
<g style="stroke:none">
<g style="opacity:.6;fill:#fff" id="g4139" transform="translate(0,1.4995525)">
<g id="g4141" transform="matrix(0,1,1,0,-59.94765,-1.061)">
<path style="stroke-opacity:0;stroke-width:2" id="path4143" d="m 7.5953,69.8414 c 7.47104,3.14687 10.4728,5.1458 17.4674,5.1458 6.99455,0 9.45657,-3.1741 17.2495,-5.41755 2.77117,-0.797774 5.36805,2.16763 3.50459,4.53234 l -18.2669,23.1805 c -1.19662,1.47381 -3.40671,1.71646 -5.17981,0.857552 l -18.0615,-24.0381 c -1.81625,-2.41725 -0.0269,-5.65631 3.28669,-4.26059 z"/>
</g>
</g>
<path style="stroke-opacity:0;fill:#919191;stroke-width:2" id="path3939" d="m 9.89375,6.5343 c 3.14687,7.47104 5.1458,10.4728 5.1458,17.4674 0,6.99455 -1.99893,9.99294 -5.1458,17.4669 -1.39563,3.31468 1.89588,5.15065 4.26059,3.28719 l 23.1805,-18.2669 c 1.47381,-1.19662 1.47381,-3.77784 0,-4.97446 L 14.15434,3.24763 C 11.77954,1.37622 8.49803,3.22073 9.89375,6.53432 Z"/>
</g>
</svg>
