<svg width="48" version="1.0" xmlns="http://www.w3.org/2000/svg" height="48">
<g style="stroke:none">
<path style="fill:#d6dfe2;fill-rule:evenodd;stroke-linejoin:round;stroke-linecap:round;stroke-width:4.193" id="rect819" d="m 4,2 h 40 c 1.108,0 2,0.892 2,2 v 40 c 0,1.108 -0.892,2 -2,2 H 4 C 2.892,46 2,45.108 2,44 V 4 C 2,2.892 2.892,2 4,2 Z"/>
<path style="fill:#c76b00;stroke-width:1.526" id="path3591" d="m 24.5467,6.3075 c 1.67043,0.186878 3.06849,1.75971 3.05826,3.44054 v 7.59902 h 14.3951 l -2.6862,11.9432 h -11.7089 v 8.95896 c 0.0081,1.3324 -0.819775,2.64786 -2.03883,3.18568 -1.21907,0.537823 -2.75951,0.267406 -3.73787,-0.637136 l -14.7857,-14.9514 c -1.44175,-1.3228 -1.37757,-3.93166 0.127433,-5.18203 l 14.7857,-13.5498 c 0.70681,-0.604227 1.66611,-0.903038 2.59102,-0.807039 z "/>
</g>
</svg>
