<svg width="48" version="1.0" xmlns="http://www.w3.org/2000/svg" height="48">
<g style="stroke-width:2;stroke:none;stroke-opacity:0">
<g style="fill:#fff">
<path style="opacity:.6" id="path4147" d="m 7.9344,43.398 c 7.47105,-3.14687 10.4729,-5.1458 17.4675,-5.1458 6.99456,0 9.99295,1.99893 17.4669,5.1458 3.31468,1.39563 5.2115,-3.14551 3.28719,-5.46099 l -18.2668,-21.9801 c -1.19662,-1.47381 -3.77784,-1.47381 -4.97446,-1.77636e-15 l -19.7069,21.9801 c -2.01838,2.25122 1.41312,6.85669 4.72671,5.46099 z "/>
<path style="opacity:.6" id="path4149" d="m 45.3892,12.7346 c 0,1.39649 -1.1334,2.5299 -2.5299,2.5299 h -14.8977 -12.1185 -9.20212 c -1.39649,0 -2.5299,-1.1334 -2.5299,-2.5299 v -2.93616 c 0,-1.39649 1.2333,-3.42944 2.62979,-3.42944 h 36.2183 c 1.30049,0.287996 2.43,2.03294 2.43,3.42944 z "/>
</g>
<g style="fill:#919191">
<path id="path3939" d="m 6.5342,41.8977 c 7.47105,-3.14687 10.4729,-5.1458 17.4675,-5.1458 6.99456,0 9.99295,1.99893 17.4669,5.1458 3.31468,1.39563 5.15065,-1.89587 3.28719,-4.2606 l -18.2668,-23.1805 c -1.19662,-1.47381 -3.77784,-1.47381 -4.97446,0 l -18.2668,23.1805 c -1.87141,2.3748 -0.026896,5.6563 3.28669,4.2606 z "/>
<path id="path3328" d="m 43.989,11.2344 c 0,1.39649 -1.1334,2.5299 -2.5299,2.5299 h -14.8977 -12.1185 -7.90202 c -1.39649,0 -2.5299,-1.1334 -2.5299,-2.5299 v -2.93616 c 0,-1.39649 1.1334,-2.5299 2.5299,-2.5299 h 34.9182 c 1.39649,0 2.5299,1.1334 2.5299,2.5299 z "/>
</g>
</g>
</svg>
