<svg width="48" version="1.0" xmlns="http://www.w3.org/2000/svg" height="48">
<g style="stroke:none">
<g style="opacity:.6;fill:#fff" id="g4139" transform="translate(1.5000262,1.4997522)">
<g id="g4141" transform="matrix(0,1,1,0,-59.94765,-1.061)">
<path style="stroke-opacity:0;stroke-width:2" id="path4143" d="M 39.1672,101.4134 C 36.02033,93.94236 34.0214,90.9406 34.0214,83.946 c 0,-6.99455 1.99893,-9.99294 5.1458,-17.4669 1.39563,-3.31468 -2.67544,-6.72233 -4.98501,-4.79095 l -24.1478,20.1936 c -1.75577,1.19662 0.217923,3.95526 1.69173,5.15188 l 22.0801,17.6664 c 2.36087,1.88894 6.75667,0.0269 5.36095,-3.28669 z"/>
</g>
</g>
<path style="stroke-opacity:0;fill:#919191;stroke-width:2" id="path3939" d="m 41.46575,38.1062 c -7.47104,-3.14687 -10.4728,-5.1458 -17.4674,-5.1458 -6.99455,0 -9.99294,1.99893 -17.4669,5.1458 C 3.21677,39.50183 1.3808,36.21032 3.24426,33.84561 l 18.2669,-23.1805 c 1.19662,-1.47381 3.77784,-1.47381 4.97446,0 l 18.2668,23.1805 c 1.87141,2.37479 0.0269,5.65631 -3.28669,4.26059 z"/>
</g>
</svg>
