<svg width="48" version="1.0" xmlns="http://www.w3.org/2000/svg" height="48">
<path style="fill:#ff3219;color:#bebebe;stroke-width:1.593" d="m 0,30 h 4.95 l 4.05,3.9375 3.9375,-3.9375 h 5.06252 v 5.2875 l -3.9375,3.825 3.9375,3.825 v 5.0625 h -5.175 l -3.825,-3.825 -3.825,3.825 h -5.175 v -5.0625 l 3.825,-3.825 -3.825,-3.825 v -5.2875 Z "/>
<path style="fill:#4d575a" d="m 21.7677,.0354 c -1.53518,-0.167312 -3.23349,0.25995 -4.38477,1.24414 l -.041,.0332 -10.5703,9.6875 .1094,-.0957 c -2.61754,2.17469 -2.70878,5.91022 -0.201168,8.21093 l -.1055,-.1016 10.5801,10.6992 .0488,.0449 c 1.63068,1.50764 3.84807,1.90583 5.91016,0.996094 2.0623,-0.909853 3.25566,-2.8293 3.24219,-5.0332 v -3.36328 h 5.16992 c 1.96043,0.134956 2.59735,0.733727 3.0332,1.39844 0.438484,0.668726 0.56312,1.69409 0.435547,2.36914 -0.608241,3.21848 -1.60244,5.58132 -2.21289,7.85352 -0.305227,1.1361 -0.599352,2.32719 -0.255859,3.82812 0.343492,1.50094 1.66264,2.92069 3.02344,3.54297 1.17301,0.536383 2.62674,0.44962 3.62695,0.03125 1,-0.418369 1.68853,-1.02846 2.28906,-1.66992 1.20106,-1.28291 2.08644,-2.82398 2.90234,-4.46094 1.6318,-3.27392 2.79515,-6.6843 3.21094,-8.70898 0.74745,-3.63973 0.849256,-9.23483 -2.68164,-13.7324 -2.54623,-3.24334 -6.73825,-4.95899 -11.2871,-4.95899 h -7.25391 v -2.39648 c 0.0087,-1.43611 -0.53286,-2.623 -1.28906,-3.54297 -0.756202,-0.919973 -1.7612,-1.70742 -3.29883,-1.875 z "/>
<path style="fill:#d6dfe2" d="m 21.1772,2.985 c 1.18997,0.133128 2.18592,1.25358 2.17862,2.45095 v 5.41335 h 10.2547 c 3.77175,0 7.08371,1.46555 8.92629,3.81258 2.68509,3.42022 2.71718,8.28365 2.10273,11.2757 -0.596133,2.9029 -4.67301,14.1344 -7.84351,12.6847 -3.1705,-1.44983 -0.18852,-4.87624 1.14646,-11.9403 0.525313,-2.77967 -0.777602,-6.96704 -6.24554,-7.32467 h -8.34111 v 6.38213 c 0.0058,0.94917 -0.583986,1.88627 -1.45241,2.2694 -0.868437,0.383131 -1.9658,0.190493 -2.66276,-0.453879 l -10.533,-10.651 c -1.02707,-0.942329 -0.981347,-2.80081 0.090775,-3.69155 l 10.533,-9.6525 c 0.503512,-0.430436 1.1869,-0.643301 1.84578,-0.574914 z "/>
</svg>
