<svg width="48" version="1.1" xmlns="http://www.w3.org/2000/svg" height="48">
<g style="stroke:none" id="g4">
<path style="stroke-opacity:.55;fill:#c61423;stroke-width:2.8" id="rect4152" d="M 24,4 C 12.92,4 4,12.92 4,24 4,35.08 12.92,44 24,44 35.08,44 44,35.08 44,24 44,12.92 35.08,4 24,4 Z m 0,11.1111 c 4.92444,0 8.88888,3.96444 8.88888,8.88888 0,4.92444 -3.96444,8.88888 -8.88888,8.88888 -4.92444,0 -8.88888,-3.96444 -8.88888,-8.88888 0,-4.92444 3.96444,-8.88888 8.88888,-8.88888 z"/>
<path style="fill:#fff;fill-rule:evenodd" id="path4412" d="M 15.9375,7.5 C 11.79807,9.51843 8.54528,13.03458 6.875,17.36328 l 6.9746,3.9844 c 0.832771,-3.21533 3.1335,-5.82389 6.16016,-7.0625 l -4.0723,-6.7852 z m 16.125,0 -4.0723,6.7852 c 3.02665,1.23861 5.32739,3.84717 6.16016,7.0625 l 6.9746,-3.9844 C 39.45468,13.0346 36.20189,9.51845 32.06246,7.50002 Z M 13.8496,26.6523 6.875,30.6367 c 1.67028,4.3287 4.92307,7.84485 9.0625,9.86328 l 4.0723,-6.7852 c -3.02665,-1.23862 -5.32739,-3.84717 -6.16016,-7.0625 z m 20.3008,0 c -0.832771,3.21533 -3.1335,5.82388 -6.16016,7.0625 l 4.0723,6.7852 c 4.13943,-2.01843 7.39222,-5.53458 9.0625,-9.86328 l -6.9746,-3.9844 z"/>
</g>
<path style="font-family:Sans;fill:#e6e6e6;text-align:start;stroke:#464646;line-height:normal;color:#000;text-indent:0;text-decoration-line:none;stroke-width:2;text-transform:none" id="path4851" d="m 23.8311,22.796 c -0.728268,0.875987 -0.770958,2.18341 -0.615781,3.09783 0.08848,0.521407 0.225195,1.05888 0.345207,1.5006 1.42825,5.25684 2.62291,10.8784 4.22832,16.0979 0.219419,0.523324 1.05312,1.72328 2.40641,2.0247 1.68088,0.374339 2.45549,-0.352323 2.79618,-0.637742 1.08878,-0.912149 2.22887,-1.91377 3.1757,-2.7162 1.10619,1.20967 2.25291,2.46733 3.35901,3.64758 0.53336,0.582315 1.39824,1.11246 2.36859,1.18024 1.01989,0.07125 1.95058,-0.284656 2.50608,-0.761975 0.652083,-0.560311 1.22254,-1.0465 1.8074,-1.66658 0.266146,-0.282176 0.612496,-0.776129 0.750663,-1.64262 -0.02403,-1.04181 -0.222379,-2.01863 -0.824122,-2.74837 l -3.3313,-3.6944 c 1.23194,-1.09631 2.39152,-1.75465 3.28791,-3.02254 0.538568,-0.761775 0.628409,-1.57507 0.273157,-2.6524 -0.491377,-1.49121 -1.30029,-1.78723 -1.64988,-1.94065 -5.64163,-2.47579 -11.6084,-4.88727 -16.4042,-6.95608 -0.389891,-0.168191 -1.00797,-0.35054 -1.4911,-0.392242 -1.18395,-0.102193 -2.25998,0.406962 -2.98824,1.28295 Z "/>
</svg>
