<svg width="48" version="1.0" xmlns="http://www.w3.org/2000/svg" height="48" xmlns:xlink="http://www.w3.org/1999/xlink">
<defs id="defs1308">
<linearGradient id="linearGradient3384">
<stop offset="0" style="stop-color:#fff" id="stop3386"/>
<stop offset="1" style="stop-color:#eeeeec" id="stop3388"/>
</linearGradient>
<radialGradient fx="24.842901" fy="30.77803" cx="24.842901" cy="30.77803" gradientTransform="matrix(1.48996,0,0,0.657586,-13.0149,5.2238)" xlink:href="#linearGradient3384" id="radialGradient3390" r="22.999998" gradientUnits="userSpaceOnUse"/>
</defs>
<rect width="44.999996" x="1.5" y="6.5" rx="1.03125" height="24.000004" ry="1.03125" style="fill:url(#radialGradient3390);stroke:#888a85;stroke-linecap:round;stroke-dashoffset:1.4" id="rect3376"/>
<path style="font-family:'Bitstream Vera Sans';fill:#2e3436;stroke:none;font-weight:bold;font-size:17.50059891px" id="text3378" d="m 15.6419,22.6228 -5.0299,0 -.7937,2.3771 -3.2335,0 4.6205,-13.0481 3.8351,0 4.6205,13.0481 -3.2335,0 -.7854,-2.3771 m -4.2278,-2.6396 3.4173,0 -1.7045,-4.9725 -1.7128,4.9725 m 14.7387,2.9979 c 0.64057,2e-06 1.12795,-0.244704 1.46217,-0.734118 0.33977,-0.489409 0.50966,-1.20022 0.50967,-2.13244 -1e-05,-0.932207 -0.1699,-1.64302 -0.50967,-2.13244 -0.33422,-0.489404 -0.8216,-0.734109 -1.46217,-0.734117 -0.64057,8e-06 -1.32103,0.247626 -1.66637,0.742857 -0.33979,0.489419 -0.50968,1.19732 -0.50967,2.1237 -1e-05,0.926391 0.16988,1.6372 0.50967,2.13244 0.34534,0.489414 1.0258,0.73412 1.66637,0.734118 m -2.176,-6.3361 c 0.41218,-0.570971 1.05644,-0.990467 1.55776,-1.25849 0.5013,-0.273827 1.07781,-0.410746 1.72953,-0.410756 1.15302,1e-05 2.09994,0.480682 2.84079,1.44202 0.74082,0.955526 1.11123,2.18779 1.11124,3.69681 -1e-05,1.50902 -0.37042,2.74421 -1.11124,3.70555 -0.74085,0.955519 -1.68777,1.43328 -2.84079,1.43328 -0.65172,0 -1.22823,-0.134005 -1.72953,-0.402016 -0.50132,-0.273838 -1.14558,-0.696246 -1.55776,-1.26723 v 1.4158 h -2.99118 v -12.9112 h 2.99118 v 4.5562 m 17.0233,-1.1274 0,2.5519 c -0.40663,-0.291309 -0.81603,-0.506883 -1.22822,-0.646723 -0.40663,-0.139824 -0.82996,-0.209739 -1.26999,-0.209748 -0.83553,9e-06 -1.48724,0.256367 -1.95513,0.769076 -0.46233,0.506898 -0.69349,1.21771 -0.69349,2.13244 0,0.914738 0.23116,1.62846 0.69349,2.14118 0.46789,0.506893 1.1196,0.760338 1.95513,0.760336 0.46788,2e-06 0.91071,-0.07283 1.32848,-0.218487 0.42332,-0.145656 0.81324,-0.36123 1.16973,-0.646723 v 2.56067 c -0.4679,0.180616 -0.94415,0.314622 -1.42874,0.402017 -0.47904,0.09322 -0.96086,0.139832 -1.44546,0.139832 -1.68776,0 -3.00789,-0.45154 -3.96039,-1.35462 -0.95249,-0.908906 -1.42874,-2.1703 -1.42874,-3.7842 0,-1.61389 0.47625,-2.87237 1.42874,-3.77546 0.9525,-0.908898 2.27263,-1.36335 3.96039,-1.36336 0.49017,1e-05 0.97199,0.04662 1.44546,0.139832 0.47902,0.0874 0.95527,0.22141 1.42874,0.402017"/>
<g style="stroke-dashoffset:1.4;stroke-linecap:round;stroke-linejoin:round">
<rect width="42.97773" x="2.5" y="7.5" rx="0" height="22.000011" ry="0" style="fill:none;stroke:#fff" id="rect3382"/>
<path style="fill:#f57900;stroke:none;color:#000" id="path3364" d="M 12.66665,34 35.33335,34 24,46 12.66665,34 Z"/>
</g>
</svg>
