<svg width="48" version="1.0" xmlns="http://www.w3.org/2000/svg" height="48">
<g id="layer1" transform="translate(0,-80)">
<path style="fill:#748da7" id="path25" d="m 7.9206,90.3523 -.358,-.6264 c 0.115217,-0.088355 12.1878,-9.78253 24.4654,-5.08386 12.3795,4.73736 12.7906,17.2348 12.7906,17.2348 -0.054813,-0.0812 -5.56566,-8.14741 -13.8344,-11.8517 -10.5004,-4.70463 -22.9394,0.276281 -23.0637,0.327236 Z "/>
<path style="fill:#fafafa" id="path4503" d="m 41.6688,115.9654 c 0,0 -4.42196,-13.6534 -14.8067,-17.5122 -10.3851,-3.8588 -22.7996,3.53306 -22.7996,3.53306 0,0 5.14523,11.9464 15.5871,15.6483 7.1167,2.52306 14.7996,1.00014 22.0191,-1.66914 z "/>
<g style="stroke:none;stroke-width:1.153">
<path style="fill:#273c51" id="path4499" d="m 22.8568,117.6868 c -0.324916,0.00058 -0.649096,-0.012 -0.979231,-0.0445 -5.28215,-0.52842 -9.15269,-5.255 -8.62391,-10.5379 0.528428,-5.28217 5.25571,-9.15272 10.5379,-8.62392 5.28179,0.528429 9.15234,5.25574 8.62391,10.5379 -0.495404,4.95267 -4.6849,8.6599 -9.55863,8.66842 z "/>
<path id="path48" d="m 22.8479,110.5829 c 1.4543,0 2.63725,-1.17181 2.63725,-2.62611 0,-1.45429 -1.18295,-2.63723 -2.63725,-2.63723 -1.4543,0 -2.62612,1.18294 -2.62612,2.63723 0,1.4543 1.17182,2.62611 2.62612,2.62611 z "/>
</g>
<path style="fill:#658db6" id="path4505" d="m 21.8984,15.332 c -10.1668,-0.186607 -19.8984,5.88672 -19.8984,5.88672 0,0 4.95719,16.6494 17.1074,21.2441 2.27824,0.86144 4.65409,1.2401 7,1.2832 10.1656,0.18675 19.8926,-5.89062 19.8926,-5.89062 0,0 -4.95719,-16.6491 -17.1074,-21.2441 -2.27824,-0.861437 -4.64795,-1.23623 -6.99414,-1.2793 z  m -3.2969,2.9961 c 2.58905,-0.04471 5.28849,0.287253 7.88477,1.25195 10.3847,3.8588 15.1816,16.3848 15.1816,16.3848 0,0 -5.89175,2.38853 -13.0625,2.30273 -2.80594,-0.03356 -5.80987,-0.449976 -8.73047,-1.53516 -10.3851,-3.85844 -15.8125,-14.7461 -15.8125,-14.7461 0,0 6.77192,-3.52408 14.5391,-3.6582 z " transform="translate(0,80)"/>
<path style="fill:none;fill-rule:evenodd;stroke:#e74531;stroke-linecap:round;stroke-width:5" id="path4487" d="m 5.5589,122.2353 37.3429,-36.4705"/>
</g>
</svg>
