<svg width="32" version="1.1" xmlns="http://www.w3.org/2000/svg" height="32" viewBox="0 0 32 32">
<path style="fill:#f00" d="m 15.5317,29.9474 5.4727,-.5484 -.688,-8.8446 -5.4669,.548 c -0.131402,0.01264 -0.267645,0.01946 -0.401952,0.01946 -2.51083,0 -4.55384,-2.29771 -4.55384,-5.12195 0,-2.82424 2.04334,-5.12195 4.55384,-5.12195 0.134314,0 0.27055,0.0068 0.402275,0.01946 l 5.4666,.548 .688,-8.8446 -5.4727,-.548 c -0.361596,-0.034818 -0.724483,-0.052922 -1.08414,-0.052922 -6.86418,0 -12.4476,6.28054 -12.4476,14 0,7.71946 5.58342,14 12.4476,14 0.359658,0 0.722545,-0.0181 1.08414,-0.05259 z "/>
<path style="fill:#fff" d="m 21.0044,29.399 2.4337,-.2581 -.7501,-8.8396 -2.3716,.2532 z "/>
<path style="fill:#808080" d="m 23.4381,29.1409 5.6714,-.6015 c 0.534362,-0.04883 0.93444,-0.548731 0.886679,-1.10976 l -.5665,-6.804 c -0.04741,-0.559658 -0.522593,-0.978976 -1.0573,-0.931171 l -5.6844,.6068 z "/>
<path style="fill:#fff" d="m 22.7004,11.7029 .7379,-8.8439 -2.4339,-.258 -.688,8.8446 z "/>
<path style="fill:#808080" d="m 28.3723,12.3049 c 0.534703,0.04883 1.00989,-0.370145 1.0573,-0.93117 l .5823,-6.874 c 0.04777,-0.561023 -0.352317,-1.06024 -0.886679,-1.10976 l -5.6869,-.531 -.7379,8.8439 Z "/>
</svg>
