<svg width="48" version="1.0" xmlns="http://www.w3.org/2000/svg" height="48" xmlns:xlink="http://www.w3.org/1999/xlink">
<g style="stroke:none">
<g style="fill-rule:evenodd" id="g9">
<g style="stroke-linejoin:round;stroke-linecap:round;stroke-miterlimit:0" id="g11">
<path style="opacity:.05" id="path4169" d="m 1,5.2593 46,0 0,37.4815 -46,0 z "/>
<path style="opacity:.15" id="path4167" d="m 1.327,5.586 45.132,0 .0001,36.4733 -45.132,0 z "/>
<path style="opacity:.25" id="path4165" d="m 1.6815,5.9407 44.1965,0 0,35.4233 -44.1965,0 z "/>
<path style="fill:#5c656c" id="rect4162" d="m 2.1358,6.3951 43.1605,0 0,34.0741 -43.1605,0 z "/>
</g>
<path style="fill:#f3f6f7" id="path4127" d="m 2.1358,6.3951 0,34.0741 l 15.1448,-17.0357 -15.1448,-17.0384 Z "/>
<path style="fill:#f5fbfe" id="path4125" d="m 2.1358,6.3951 21.5802,20.1037 21.5802,-20.1037 Z "/>
<path style="fill:#e7ecef" id="path4123" d="m 45.2963,6.3951 -15.1448,17.0384 15.1448,17.0357 0,-34.0741 z "/>
<path style="fill:#dbe4e7" id="rect3260-9" d="m 19.6785,26.123 -17.2899,14.3461 42.6546,0 -17.2899,-14.3461 -4.0373,3.8245 z "/>
</g>
<path style="fill:#1a1a1a" id="path3798-9" d="m 23.9999,14.255 c -3.85437,0 -6.97636,2.93973 -6.97636,6.55717 0.0094,0.414513 0.01207,0.87751 0.05494,1.39316 -0.609982,0.326963 -0.690582,1.60872 -0.146484,2.89781 0.209807,0.497045 0.498197,0.898819 0.787358,1.22594 0.0096,0.01081 0.02691,0.02625 0.03663,0.03706 0.06902,0.340628 0.117943,0.600346 0.201417,0.984517 0.258594,0.780078 1.32954,2.24929 2.27053,3.51082 0.09384,0.97309 0.09725,1.93946 -0.09155,3.04635 -2.70848,2.25963 -9.64181,3.27048 -9.63139,5.60978 l -.1282,.8913 h 27.2463 l -.1282,-.8916 c -0.01105,-2.00208 -6.97446,-3.27048 -9.64976,-5.60971 -0.108318,-0.896117 -0.128382,-1.77378 -0.07324,-2.65639 0.85553,-1.32708 1.98424,-3.03716 2.27053,-3.90085 0.105215,-0.447248 0.156323,-0.749042 0.238038,-1.13306 0.252638,-0.310518 0.491001,-0.672686 0.677496,-1.11453 0.516701,-1.22424 0.453377,-2.4074 -0.07324,-2.80493 0.0368,-0.531941 0.07617,-1.03138 0.09155,-1.48604 5e-06,-3.61744 -3.12199,-6.55717 -6.97636,-6.55717 z "/>
</g>
</svg>
