<svg width="48" version="1.0" xmlns="http://www.w3.org/2000/svg" height="48" xmlns:xlink="http://www.w3.org/1999/xlink">
<g style="stroke:none">
<g style="fill-rule:evenodd" id="g9">
<g style="stroke-linejoin:round;stroke-linecap:round;stroke-miterlimit:0" id="g11">
<path style="opacity:.05" id="path4169" d="m 1,5.2593 46,0 0,37.4815 -46,0 z "/>
<path style="opacity:.15" id="path4167" d="m 1.327,5.586 45.132,0 .0001,36.4733 -45.132,0 z "/>
<path style="opacity:.25" id="path4165" d="m 1.6815,5.9407 44.1965,0 0,35.4233 -44.1965,0 z "/>
<path style="fill:#5c656c" id="rect4162" d="m 2.1358,6.3951 43.1605,0 0,34.0741 -43.1605,0 z "/>
</g>
<path style="fill:#f3f6f7" id="path4127" d="m 2.1358,6.3951 0,34.0741 l 15.1448,-17.0357 -15.1448,-17.0384 Z "/>
<path style="fill:#f5fbfe" id="path4125" d="m 2.1358,6.3951 21.5802,20.1037 21.5802,-20.1037 Z "/>
<path style="fill:#e7ecef" id="path4123" d="m 45.2963,6.3951 -15.1448,17.0384 15.1448,17.0357 0,-34.0741 z "/>
<path style="fill:#dbe4e7" id="rect3260-9" d="m 19.6785,26.123 -17.2899,14.3461 42.6546,0 -17.2899,-14.3461 -4.0373,3.8245 z "/>
</g>
<g id="g37">
<path style="fill:#fff" id="path3046" d="m 2.2868,45.607 .7614,-19.9439 15.2014,.0007 -.0013,20.5873 -15.9614,-.6441 Z "/>
<path style="fill:#464646" id="path3004" d="m 8.3444,19.394 c 0,0 -7.1237,5.00373 -7.21694,5.09417 -0.684373,0.48314 -1.11968,1.20456 -1.11973,2.02129 l -.0077,18.8494 c -9.35865e-05,1.46151 1.39252,2.64043 3.11918,2.6405 l 14.7621,.0006 c 1.72666,6.8e-05 3.11943,-1.17869 3.11952,-2.6402 l -.0052,-18.8494 c 5.3e-05,-0.867776 -0.564504,-1.56525 -1.22948,-2.12548 l -7.0145,-4.9852 c -1.22087,-1.0335 -3.18622,-1.03907 -4.40722,-0.0057 z  m 1.0289,.9587 c 0.720576,-0.666089 1.77427,-0.63452 2.40747,-0.09849 0.633209,0.536032 0.633152,1.39225 -0.000126,1.92822 -0.63328,0.535975 -1.65777,0.546881 -2.29098,0.01085 -0.593633,-0.502519 -0.670769,-1.32809 -0.116369,-1.84057 Z  m -5.6452,7.1839 c 0.415512,-0.351668 0.994163,-0.569649 1.6309,-0.569626 l 10.3531,.0004 c 1.27347,4.7e-05 2.29739,0.86684 2.29732,1.94476 l -.0009,14.1542 c -7.5e-05,1.07792 -1.03057,1.95009 -2.30405,1.95002 l -10.3467,-.0058 c -1.27347,-0.000142 -2.29739,-0.866924 -2.29732,-1.94484 l -.0055,-14.1487 c -0.0002107,-0.538963 0.257634,-1.02873 0.673148,-1.3804 z "/>
<path style="fill:#ffa600" id="rect1410" d="m 12.0277,30.005 -.0009,11.995 2.9258,.0001 .0009,-11.995 z "/>
<path style="fill:#646464" id="path9411" d="m 10.9881,20.1263 c -1.07998,0.038015 -2.41365,-0.294405 -3.38385,-1.05662 -1.05466,-0.828569 -1.44944,-2.06158 -1.59126,-3.19311 -0.14183,-1.13152 0.347476,-2.20692 0.876241,-2.86822 0.528762,-0.661298 1.69346,-1.38744 2.83722,-1.50898 1.14376,-0.121541 2.30824,0.184293 3.3629,1.01286 1.05466,0.82857 1.47945,2.11347 1.62127,3.24499 0.141826,1.13152 -0.458902,2.44738 -0.987671,3.10868 -0.208482,0.260753 -0.339249,0.387842 -0.652269,0.589323 l 1.0868,.8538 c 0.247669,-0.2308 0.357844,-0.364562 0.581816,-0.644676 1.24646,-1.55889 1.62924,-3.32866 1.44148,-4.82669 -0.187764,-1.49802 -0.921912,-2.84749 -2.14506,-3.80843 -1.22315,-0.96094 -2.71721,-1.36201 -4.23143,-1.20111 -1.17116,0.124453 -2.42899,0.606737 -3.51396,1.54239 -0.31782,0.274079 -0.62199,0.592401 -0.904396,0.945591 -1.24646,1.55889 -1.62945,3.34266 -1.44169,4.84069 0.187767,1.49802 0.922118,2.8335 2.14527,3.79444 1.22315,0.960943 2.717,1.37601 4.23122,1.2151 0.283914,-0.03017 1.12232,-0.285047 0.857437,-0.161509 -0.0026,0.0013 0.959653,-0.1668 0.758153,-0.274527 0.320201,-0.597743 -0.37867,-1.33342 -0.948246,-1.60403 z "/>
</g>
</g>
</svg>
