<svg width="48" version="1.0" xmlns="http://www.w3.org/2000/svg" height="48" xmlns:xlink="http://www.w3.org/1999/xlink">
<g style="stroke:none">
<g style="fill-rule:evenodd" id="g9">
<g style="stroke-linejoin:round;stroke-linecap:round;stroke-miterlimit:0" id="g11">
<path style="opacity:.05" id="path4169" d="m 1,5.2593 46,0 0,37.4815 -46,0 z "/>
<path style="opacity:.15" id="path4167" d="m 1.327,5.586 45.132,0 .0001,36.4733 -45.132,0 z "/>
<path style="opacity:.25" id="path4165" d="m 1.6815,5.9407 44.1965,0 0,35.4233 -44.1965,0 z "/>
<path style="fill:#5c656c" id="rect4162" d="m 2.1358,6.3951 43.1605,0 0,34.0741 -43.1605,0 z "/>
</g>
<path style="fill:#f3f6f7" id="path4127" d="m 2.1358,6.3951 0,34.0741 l 15.1448,-17.0357 -15.1448,-17.0384 Z "/>
<path style="fill:#f5fbfe" id="path4125" d="m 2.1358,6.3951 21.5802,20.1037 21.5802,-20.1037 Z "/>
<path style="fill:#e7ecef" id="path4123" d="m 45.2963,6.3951 -17.2439,19.9761 17.2439,14.098 Z "/>
<path style="fill:#dbe4e7" id="rect3260-9" d="m 19.6785,26.123 -17.2899,14.3461 42.6546,0 -17.2899,-14.3461 -4.0373,3.8245 z "/>
</g>
<g id="g5" transform="matrix(0.77103816,0,0,0.77103816,18.074081,12.917763)">
<path style="fill:#dca100" id="path7624" d="m 9.1875,21.7812 0,23.7188 29.625,0 0,-23.7188 z"/>
<path style="fill:#b4b4b4;fill-rule:evenodd" id="rect2989" d="M 24.0312,2.5 C 17,2.5 12.1562,7.87961 12.1562,14.5 l 0,7.28125 5.8748,0 L 18,15.5 c -0.01972,-3.996116 2,-7 6,-7 4,0 5.980806,3.110858 6,7 l 0.031,6.28125 5.84395,0 0,-7.28125 C 35.875516,7.87961 31,2.5 24.03115,2.5 Z"/>
</g>
</g>
</svg>
