<svg width="48" version="1.0" xmlns="http://www.w3.org/2000/svg" height="48" xmlns:xlink="http://www.w3.org/1999/xlink">
<g style="fill-rule:evenodd;stroke:none">
<g>
<g style="stroke-linejoin:round;stroke-linecap:round;stroke-miterlimit:0" id="g36">
<path style="opacity:.05" id="path4169" d="m 1,5.2593 46,0 0,37.4815 -46,0 z"/>
<path style="opacity:.15" id="path4167" d="m 1.327,5.586 45.132,0 10e-5,36.4733 -45.132,0 z"/>
<path style="opacity:.25" id="path4165" d="m 1.6815,5.9407 44.1965,0 0,35.4233 -44.1965,0 z"/>
<path style="fill:#5c656c" id="rect4162" d="m 2.1358,6.3951 43.1605,0 0,34.0741 -43.1605,0 z"/>
</g>
<path style="fill:#f3f6f7" id="path4127" d="m 2.1367,6.3945 0,34.0742 43.1602,0 0,-34.0742 -21.5801,23.5527 z "/>
<path style="fill:#f5fbfe" id="path4125" d="M 2.1358,6.3951 23.716,12.799 45.2962,6.3951 Z"/>
</g>
<path style="fill:#429cd6" id="path3006" d="m 13.9603,22.9908 c 1.14546,-0.03521 2.22968,0.703232 2.67672,1.88582 0.447033,1.1826 0.207546,2.57376 -0.611822,3.47163 l -3.5944,4.0288 h 23.9506 c 1.00411,-0.01592 1.94109,0.570835 2.44728,1.54295 0.506198,0.972096 0.506198,2.15666 0,3.12875 -0.506198,0.972094 -1.44319,1.60157 -2.44728,1.5858 h -23.9506 l 3.5944,4.0288 c 0.727341,0.782731 0.980907,1.94942 0.726538,3.04303 -0.254366,1.09361 -1.0127,1.90073 -1.98842,2.18583 -0.975713,0.285112 -1.97837,0.00092 -2.67672,-0.814331 l -8.2595,-9.2577 c -0.034667,-0.03498 -0.081615,-0.09155 -0.114717,-0.128581 -0.063006,-0.06835 -0.096693,-0.140649 -0.152955,-0.2143 -0.090957,-0.11901 -0.156504,-0.254892 -0.229433,-0.385736 -0.465645,-0.834958 -0.607067,-1.88841 -0.267672,-2.82874 0.205683,-0.569887 0.564622,-1.03312 0.994213,-1.37151 h 0.03824 l 7.9919,-8.9577 c 0.505172,-0.579504 1.15113,-0.920404 1.8737,-0.94291 z "/>
</g>
</svg>
