<svg width="48" version="1.0" xmlns="http://www.w3.org/2000/svg" height="48" xmlns:xlink="http://www.w3.org/1999/xlink">
<g style="fill-rule:evenodd;stroke:none">
<g id="g9">
<g style="stroke-linejoin:round;stroke-linecap:round;stroke-miterlimit:0" id="g11">
<path style="opacity:.05" id="path4169" d="m 1,5.2593 46,0 0,37.4815 -46,0 z "/>
<path style="opacity:.15" id="path4167" d="m 1.327,5.586 45.132,0 .0001,36.4733 -45.132,0 z "/>
<path style="opacity:.25" id="path4165" d="m 1.6815,5.9407 44.1965,0 0,35.4233 -44.1965,0 z "/>
<path style="fill:#5c656c" id="rect4162" d="m 2.1358,6.3951 43.1605,0 0,34.0741 -43.1605,0 z "/>
</g>
<path style="fill:#f3f6f7" id="path4127" d="m 2.1358,6.3951 0,34.0741 l 15.1448,-17.0357 -15.1448,-17.0384 Z "/>
<path style="fill:#f5fbfe" id="path4125" d="m 2.1358,6.3951 21.5802,20.1037 21.5802,-20.1037 Z "/>
<path style="fill:#e7ecef" id="path4123" d="m 45.2963,6.3951 -15.1448,17.0384 15.1448,17.0357 0,-34.0741 z "/>
<path style="fill:#dbe4e7" id="rect3260-9" d="m 19.6785,26.123 -17.2899,14.3461 42.6546,0 -17.2899,-14.3461 -4.0373,3.8245 z "/>
</g>
<g>
<path style="fill:#005ca0" id="path4152" d="m 34.3629,20.7364 c -3.56904,0.000209 -7.11454,1.47014 -9.6363,3.99369 -2.52183,2.52354 -3.99013,6.06959 -3.99013,9.63814 0,3.56851 1.46831,7.11454 3.99013,9.63814 2.52183,2.52355 6.06728,3.99348 9.6363,3.99369 3.56904,0.00021 7.11663,-1.46836 9.64169,-3.99192 2.52505,-2.52356 3.99547,-6.07097 3.99547,-9.63991 0,-3.56891 -1.47041,-7.11632 -3.99547,-9.63991 -2.52504,-2.52356 -6.07261,-3.99212 -9.64169,-3.99192 z "/>
<path style="fill:#fff" id="path4150" d="m 34.3629,24.3715 c 2.6173,-0.000152 5.21979,1.07632 7.07149,2.92693 1.8517,1.85062 2.93049,4.45252 2.93049,7.06971 0,2.6172 -1.07878,5.2191 -2.93049,7.06971 -1.85171,1.85061 -4.4542,2.92708 -7.07149,2.92693 -2.6173,-0.000159 -5.21683,-1.07811 -7.06616,-2.9287 -1.84934,-1.8506 -2.92516,-4.45103 -2.92516,-7.06794 0,-2.6169 1.07582,-5.21734 2.92516,-7.06794 1.84934,-1.85059 4.44886,-2.92855 7.06616,-2.9287 z "/>
<path style="fill:#005ca0" id="path3272" d="m 32.5506,26.1891 0,9.9967 1.8176,0 1.8176,0 6.3615,0 0,-3.6351 -6.3615,0 0,-6.3615 -3.6351,0 z "/>
</g>
</g>
</svg>
