<svg width="48" version="1.0" xmlns="http://www.w3.org/2000/svg" height="48">
<g style="fill-rule:evenodd;stroke:none" id="g4">
<g id="g9">
<g style="stroke-linejoin:round;stroke-linecap:round;stroke-miterlimit:0" id="g11">
<path style="opacity:.05" id="path4169" d="m 1,5.2593 46,0 0,37.4815 -46,0 z"/>
<path style="opacity:.15" id="path4167" d="m 1.327,5.586 45.132,0 10e-5,36.4733 -45.132,0 z"/>
<path style="opacity:.25" id="path4165" d="m 1.6815,5.9407 44.1965,0 0,35.4233 -44.1965,0 z"/>
<path style="fill:#5c656c" id="rect4162" d="m 2.1358,6.3951 43.1605,0 0,34.0741 -43.1605,0 z"/>
</g>
<path style="fill:#f3f6f7" id="path4127" d="m 2.1358,6.3951 0,34.0741 16.5466,-18.6596 z "/>
<path style="fill:#f5fbfe" id="path4125" d="M 2.1358,6.3951 23.716,26.4988 45.2962,6.3951 Z"/>
<path style="fill:#e7ecef" id="path4123" d="m 45.2963,6.3951 -15.1448,17.0384 15.1448,17.0357 0,-34.0741 z"/>
<path style="fill:#dbe4e7" id="rect3260-9" d="m 19.6785,26.123 -17.2899,14.3461 42.6546,0 L 27.7533,26.123 23.716,29.9475 Z"/>
</g>
<path style="fill:#d67742" id="path3006" d="m 14.4702,.0011 c 1.24806,-0.0342245 2.4294,0.683615 2.91648,1.83322 0.487075,1.14961 0.226138,2.50195 -0.666624,3.37478 l -3.9164,3.9164 h 18.0571 c 1.09405,-0.01548 2.11495,0.554911 2.66649,1.4999 0.551538,0.944978 0.551538,2.0965 0,3.04147 -0.55154,0.944979 -1.57245,1.5569 -2.6665,1.54157 h -18.0571 l 3.9164,3.9164 c 0.792492,0.760897 1.06877,1.89504 0.791616,2.95814 -0.27715,1.0631 -1.10342,1.84771 -2.16653,2.12486 -1.0631,0.277155 -2.15558,0.000892 -2.91648,-0.791616 l -8.9994,-8.9994 c -0.0377691,-0.033998 -0.0889209,-0.088994 -0.124991,-0.124992 -0.0686492,-0.066457 -0.105354,-0.136725 -0.166656,-0.208321 -0.0991035,-0.115685 -0.170523,-0.247782 -0.249983,-0.374975 -0.507353,-0.811667 -0.661443,-1.83573 -0.291649,-2.74983 0.224108,-0.553989 0.615196,-1.00429 1.08326,-1.33324 h 0.041665 l 8.7078,-8.7078 c 0.55042,-0.563339 1.25423,-0.894728 2.04153,-0.916608 z "/>
</g>
</svg>
