<svg width="48" version="1.0" xmlns="http://www.w3.org/2000/svg" height="48">
<g style="stroke:none">
<g style="fill-rule:evenodd" id="g9">
<g style="stroke-linejoin:round;stroke-linecap:round;stroke-miterlimit:0" id="g11">
<path style="opacity:.05" id="path4169" d="m 1,5.2593 46,0 0,37.4815 -46,0 z"/>
<path style="opacity:.15" id="path4167" d="m 1.327,5.586 45.132,0 10e-5,36.4733 -45.132,0 z"/>
<path style="opacity:.25" id="path4165" d="m 1.6815,5.9407 44.1965,0 0,35.4233 -44.1965,0 z"/>
<path style="fill:#5c656c" id="rect4162" d="m 2.1358,6.3951 43.1605,0 0,34.0741 -43.1605,0 z"/>
</g>
<path style="fill:#f3f6f7" id="path4127" d="m 2.1358,6.3951 0,34.0741 L 17.2806,23.4335 2.1358,6.3951 Z"/>
<path style="fill:#f5fbfe" id="path4125" d="M 2.1358,6.3951 23.716,26.4988 45.2962,6.3951 Z"/>
<path style="fill:#e7ecef" id="path4123" d="m 45.2963,6.3951 -15.1448,17.0384 15.1448,17.0357 0,-34.0741 z"/>
<path style="fill:#dbe4e7" id="rect3260-9" d="m 19.6785,26.123 -17.2899,14.3461 42.6546,0 L 27.7533,26.123 23.716,29.9475 Z"/>
</g>
<g id="g4244" transform="matrix(0.75921351,0,0,0.75921351,13.456661,14.191236)">
<path style="fill:#9d1100" id="path2993" d="m 23.9449,3.4688 c -1.08097,0 -2.04919,0.615488 -2.59375,1.59375 l -18.5312,35.25 c -0.436012,0.869564 -0.443112,2.03668 0.09375,2.90625 0.536863,0.869565 1.38778,1.3125 2.46875,1.3125 h 37.1875 c 1.08097,0 2.06399,-0.536684 2.5,-1.40625 0.544109,-0.869565 0.553308,-1.95924 0.125,-2.9375 l -18.6562,-35.2188 c -0.536408,-0.97826 -1.51278,-1.5 -2.59375,-1.5 z "/>
<g style="fill:#fff" id="g4247">
<path id="path2991" d="m 23.7261,10.6562 c 2.30167,-0.01359 4.4452,2.07026 4.15625,3.78125 -0.706036,5.07197 -1.67444,10.1092 -2.28125,15.1875 h -2.875 c -0.731551,-5.28811 -1.73437,-9.92002 -2.59375,-15.1875 -0.304288,-1.6857 1.29208,-3.76765 3.59375,-3.78125 z "/>
<path id="path3009" d="m 23.9136,33.8438 c 1.43697,-0.0057 2.90157,0.794497 3.5625,2.125 1.18133,2.05937 -0.0076,4.91172 -2.3125,5.5 -2.37982,0.803109 -5.18586,-1.18558 -5.09375,-3.71875 -0.02904,-1.18315 0.56703,-2.25918 1.46875,-3 0.668959,-0.610971 1.51282,-0.903143 2.375,-0.90625 z"/>
</g>
</g>
</g>
</svg>
