<svg width="48" version="1.0" xmlns="http://www.w3.org/2000/svg" height="48">
<g style="fill-rule:evenodd;stroke:none">
<g id="g9">
<g style="stroke-linejoin:round;stroke-linecap:round;stroke-miterlimit:0" id="g11">
<path style="opacity:.05" id="path4169" d="m 1,5.2593 46,0 0,37.4815 -46,0 z"/>
<path style="opacity:.15" id="path4167" d="m 1.327,5.586 45.132,0 10e-5,36.4733 -45.132,0 z"/>
<path style="opacity:.25" id="path4165" d="m 1.6815,5.9407 44.1965,0 0,35.4233 -44.1965,0 z"/>
<path style="fill:#5c656c" id="rect4162" d="m 2.1358,6.3951 43.1605,0 0,34.0741 -43.1605,0 z"/>
</g>
<path style="fill:#f3f6f7" id="path4127" d="m 2.1358,6.3951 0,34.0741 16.5514,-18.6552 z"/>
<path style="fill:#f5fbfe" id="path4125" d="M 2.1358,6.3951 23.716,26.4988 45.2962,6.3951 Z"/>
<path style="fill:#e7ecef" id="path4123" d="M 45.2963,6.3951 28.7127,21.844 45.2963,40.4692 Z"/>
<path style="fill:#dbe4e7" id="rect3260-9" d="m 19.6785,26.123 -17.2899,14.3461 42.6546,0 L 27.7533,26.123 23.716,29.9475 Z"/>
</g>
<path style="fill:#429cd6" id="path3006-4" d="m 13.8906,.002 c -0.728433,0.0202429 -1.37942,0.326446 -1.88867,0.847656 l -8.0566,8.0566 h -0.0390625 c -0.43307,0.304357 -0.794601,0.719854 -1.00195,1.23242 -0.342145,0.845745 -0.199882,1.79395 0.269531,2.54492 0.0735198,0.117682 0.140726,0.240621 0.232422,0.347656 0.0567171,0.066248 0.0907836,0.129913 0.154297,0.191406 0.0333697,0.033308 0.0802824,0.085729 0.115234,0.117188 l 8.3262,8.3262 c 0.703994,0.733253 1.7156,0.988852 2.69922,0.732422 0.983624,-0.256438 1.74748,-0.983181 2.00391,-1.9668 0.256426,-0.983625 0.000813,-2.03232 -0.732422,-2.73633 l -3.623,-3.623 h 5.66016 l 7.5938,7.5937 c 0.703995,0.733253 1.7156,0.988852 2.69922,0.732422 0.983625,-0.256439 1.74748,-0.98318 2.00391,-1.9668 0.256427,-0.983624 0.000815,-2.03232 -0.732422,-2.73633 l -3.623,-3.623 h 5.66016 l 7.5938,7.5937 c 0.704009,0.733253 1.7156,0.988852 2.69922,0.732422 0.983623,-0.256439 1.74748,-0.98318 2.00391,-1.9668 0.256427,-0.983624 0.000815,-2.03232 -0.732422,-2.73633 l -3.623,-3.623 c -1.84364,-1.84365 -1.82407,-3.80484 0,-5.62891 l 3.623,-3.623 c 0.82601,-0.807558 1.06784,-2.05939 0.617188,-3.12305 -0.450656,-1.06364 -1.54252,-1.72698 -2.69727,-1.69531 -0.728423,0.0202429 -1.37941,0.326441 -1.88867,0.847656 l -7.5957,7.5938 h -5.66016 l 3.623,-3.623 c 0.82601,-0.807558 1.06784,-2.05939 0.617187,-3.12305 -0.450655,-1.06364 -1.54447,-1.72698 -2.69922,-1.69531 -0.728425,0.0202429 -1.37941,0.326441 -1.88867,0.847656 l -7.5938,7.5938 h -5.66016 l 3.623,-3.623 c 0.826008,-0.807558 1.06784,-2.05939 0.617188,-3.12305 -0.450656,-1.06364 -1.54447,-1.72698 -2.69922,-1.69531 z "/>
</g>
</svg>
