<svg width="48" version="1.1" xmlns="http://www.w3.org/2000/svg" height="48">
<path style="fill:#d6dfe2" d="M 47,24 A 23,23 0 0 1 24,47 23,23 0 0 1 1,24 23,23 0 0 1 24,1 23,23 0 0 1 47,24 Z"/>
<path style="fill:#4d575a" d="m 14.2857,10.4159 c -4.81663,0 -8.78571,3.96909 -8.78571,8.78572 v 5.7143 c 0,4.81662 3.96908,8.78572 8.78571,8.78572 h 2.92857 l 0,-5.8575 -2.9283,0 c -1.67308,0 -2.92857,-1.25548 -2.92857,-2.92857 v -5.7143 c 0,-1.6731 1.25549,-2.92858 2.92857,-2.92858 h 19.4286 c 1.67308,0 2.92857,1.25548 2.92857,2.92858 v 5.7143 c 0,1.67309 -1.25549,2.92857 -2.92857,2.92857 h -2.57589 l .8237,-.8237 c 0.799764,-0.745865 0.823556,-1.83498 0.82366,-2.92857 l 0,-2.1051 -3.2948,0 c -0.65965,0 -1.26852,0.361126 -1.73884,0.82366 l -5.8571,5.8571 -2.0132,2.105 2.0132,2.1048 5.8571,5.8571 c 0.653467,0.63945 1.5567,0.82366 2.47098,0.82366 h 2.5625 v -2.47098 c 0.01174,-0.152304 0.01174,-0.305286 0,-0.45759 0.01287,-0.782639 -0.283042,-1.53885 -0.82366,-2.10491 l -.8237,-.8237 h 2.57589 c 4.81663,0 8.78571,-3.9691 8.78571,-8.78572 v -5.7143 c 0,-4.81663 -3.9944,-8.2925 -8.78571,-8.78572 h -19.4286 z "/>
</svg>
