<svg width="48" version="1.1" xmlns="http://www.w3.org/2000/svg" height="48">
<g style="opacity:.6;fill:#fff" id="g4137" transform="translate(-60,-243.50044)">
<path style="font-family:Sans;text-align:start;stroke:none;line-height:normal;color:#bebebe;text-indent:0;stroke-width:5.467;text-transform:none" id="path4139" d="m 95.4857,249.0236 c -0.09804,0.006 -0.19571,0.0166 -0.292625,0.0325 h -2.24346 v 2.47106 c -0.103135,0.87964 2.62917,2.85562 2.62917,2.85562 l -11.0748,4.5537 .9999,1.4996 h 9.10389 l -.8128,.8128 -1.845,3.3776 .9997,1.4995 h 1.98335 c 1.03685,0.28121 2.14368,-0.0458 2.86122,-0.84536 l 5.6899,-5.6899 2.0159,-2.0159 -1,-1.4993 -6.7058,-6.2065 c -0.601684,-0.61697 -1.45066,-0.92787 -2.30849,-0.84536 z  m -31.9857,9.9128 1,1.4995 8.5512,0 c 1.6247,0 2.82871,1.20399 2.82871,2.82871 v 11.3798 c 0,4.67734 3.87381,8.51864 8.55115,8.51864 h 10.2094 l -.8454,.8454 c -0.824395,0.72964 -1.84509,3.34502 -1.84509,3.34502 l .9997,1.4996 h 1.85329 c 1.07012,0.34394 2.24241,0.0254 2.99128,-0.81285 l 5.6899,-5.6899 2.0159,-2.0159 -1.0001,-1.4999 -6.7057,-6.2059 c -0.524555,-0.53115 -1.23691,-0.83478 -1.98335,-0.84536 h -2.86122 v 2.50357 c -0.103135,0.87964 0.209392,1.75712 0.845361,2.37351 l .8128,.8129 h -10.1768 c -1.6247,0 -2.86122,-1.20401 -2.86122,-2.82871 v -11.3798 c 0,-4.67734 -3.8413,-8.51864 -8.51864,-8.51864 l -9.5512,4.1904 z  m 0,22.727 1,1.4996 8.5512,0 c 0.652878,0 1.24073,-0.1182 1.85329,-0.26011 -1.36877,-1.5674 -0.99949,-1.49955 -0.99949,-1.49955 l -10.405,.26 z "/>
</g>
<g id="layer9" transform="translate(-60.999948,-245)">
<path style="font-family:Sans;fill:#919191;text-align:start;stroke:none;line-height:normal;color:#bebebe;text-indent:0;stroke-width:5.467;text-transform:none" id="path4544" d="m 95.4857,249.0236 c -0.09804,0.006 -0.19571,0.0166 -0.292625,0.0325 h -2.24346 v 2.47106 c -0.103135,0.87964 0.209392,1.75712 0.845361,2.37351 l .8454,.8454 h -10.2094 c -0.652879,0 -1.27324,0.1182 -1.88581,0.26011 1.36877,1.56726 2.47533,3.35765 2.95878,5.42982 h 9.10387 l -.8128,.8128 c -0.82436,0.72961 -1.15364,1.86943 -0.845361,2.92625 l .0003,1.9509 1.9831,-.0001 c 1.03685,0.28121 2.14368,-0.0458 2.86122,-0.84536 l 5.6899,-5.6899 2.0158,-2.0156 -2.0158,-2.0162 -5.6899,-5.6899 c -0.601684,-0.61697 -1.45066,-0.92787 -2.30849,-0.84536 z  m -30.9857,5.7224 l -.0001,5.69 8.5513,-.0001 c 1.6247,-2e-05 2.82871,1.20399 2.82871,2.82871 v 11.3798 c 0,4.67734 3.87381,8.51864 8.55115,8.51864 h 10.2094 l -.8454,.8454 c -0.82436,0.72961 -1.15364,1.86943 -0.845361,2.92625 l .0002,1.9183 1.853,0 c 1.07012,0.34394 2.24241,0.0254 2.99128,-0.81285 l 5.6899,-5.6899 2.0158,-2.0163 -2.0158,-2.0155 -5.6899,-5.6899 c -0.524555,-0.53115 -1.23691,-0.83478 -1.98335,-0.84536 h -2.86122 v 2.50357 c -0.103135,0.87964 0.209392,1.75712 0.845361,2.37351 l .8128,.8129 h -10.1768 c -1.6247,0 -2.86122,-1.20401 -2.86122,-2.82871 v -11.3798 c 0,-4.67734 -3.8413,-8.51864 -8.51864,-8.51864 h -8.55115 z  m 0,22.7272 -.0001,5.6898 8.5513,.0001 c 0.652878,1e-05 1.24119,-0.11819 1.85375,-0.2601 -1.36877,-1.5674 -2.44326,-3.35766 -2.92671,-5.42983 h -7.47819 z "/>
</g>
</svg>
