<svg width="48" version="1.1" xmlns="http://www.w3.org/2000/svg" height="48">
<g style="fill-rule:evenodd;stroke:none" id="g4" transform="translate(-0.60015,0)">
<g style="fill:#fff" id="g6">
<path style="opacity:.6" id="path4161" d="M 2.4543,37.437438 0.827,36.5 23.1557,22.5387 c 0,0 -0.74133,3.321938 -2.09385,4.074308 -3.94196,2.19282 -14.9977,8.74112 -18.6075,10.8244 z"/>
<path style="opacity:.6" id="path4143" d="M 22.6803,37.437438 21.053,36.5 43.3816,22.5387 c 0,0 -0.74133,3.321938 -2.09385,4.074308 -3.94196,2.19282 -14.9977,8.74112 -18.6075,10.8244 z"/>
<path style="opacity:.6" id="rect4145" d="m 47.0239,12.2747 1.3498,1.4712 0,23.3573 c 0,0.474937 -0.575372,0.848997 -1.07144,0.837755 h -4.41241 l -1.2027,-1.7751 z "/>
</g>
<g style="fill:#919191" id="g9">
<path id="path7812" d="m .8266,36.5 0,-25 c 3.60983,2.08333 15.7705,9.07736 19.7345,11.4137 1.41694,0.835127 1.35252,1.4465 0,2.19887 -3.94196,2.19282 -16.1247,9.3041 -19.7345,11.3874 z "/>
<path id="path3004" d="m 21.053,36.5 4e-4,-25 c 3.60983,2.08333 15.7705,9.07736 19.7345,11.4137 1.41694,0.835127 1.35252,1.4465 0,2.19887 -3.94196,2.19282 -16.1251,9.30412 -19.7349,11.3874 z"/>
<rect width="5.7038326" x="41.469585" y="11.88857" rx="0.89565933" height="24.571428" ry="0.85728616" id="rect7879"/>
</g>
</g>
</svg>
