<svg width="48" version="1.1" xmlns="http://www.w3.org/2000/svg" height="48">
<g style="fill-rule:evenodd;stroke:none" id="g4" transform="translate(-0.64976222,0)">
<path style="opacity:.6;fill:#fff" id="path4141" d="m 27.4475,11.5 c 0,0 -16.4638,10.0455 -19.416,13.5254 v -10.7792 l -1.7639,-2.1134 -5.1445,24.1055 1.5996,1.7228 h 4.41236 c 0.496195,0 0.896484,-0.382485 0.896484,-0.857422 v -10.0048 c 4.13679,2.3473 16.6604,9.54979 20.2148,11.6011 v -11.6108 c 4.17916,2.34138 16.6802,9.5642 20.2266,11.6108 v -25.6998 l -1.299,-1.5001 c 0,0 -16.3698,11.0925 -18.9275,13.9531 v -12.453 l -.7988,-1.5001 z "/>
<g style="fill:#919191" id="g7">
<path id="path7812" d="m 47.1734,36.5 -4e-4,-25 c -3.60983,2.08333 -15.7701,9.07736 -19.7341,11.4137 -1.41694,0.835127 -1.35252,1.4465 0,2.19887 3.94196,2.19282 16.1247,9.3041 19.7345,11.3874 z"/>
<path id="path3004" d="m 26.9466,36.5 4e-4,-25 c -3.60983,2.08333 -15.7709,9.07736 -19.7349,11.4137 -1.41694,0.835127 -1.35252,1.4465 0,2.19887 3.94196,2.19282 16.1247,9.3041 19.7345,11.3874 z"/>
<rect width="5.7038326" x="-6.5304151" y="11.88857" rx="0.89565933" height="24.571428" ry="0.85728616" id="rect7879" transform="scale(-1,1)"/>
</g>
</g>
</svg>
