<svg width="48" version="1.1" xmlns="http://www.w3.org/2000/svg" height="48">
<g style="opacity:.6;fill:#fff" id="g4137" transform="translate(-39.99999,-243.50006)">
<path style="font-family:Sans;text-align:start;stroke:none;line-height:normal;color:#000;text-indent:0;stroke-width:2;text-transform:none" id="path4139" d="m 53.2857,251.4158 c -4.81663,0 -8.78571,3.96909 -8.78571,8.78572 v 11.7143 c 0,4.81662 3.96908,8.78572 8.78571,8.78572 h 2.92857 v -5.85715 l -1.0003,-1.5003 c 0,0 -4.85686,2.10052 -4.85686,-1.42824 v -11.7143 c 0,-1.6731 1.25549,-2.92858 2.92857,-2.92858 h 23.4286 c 1.67308,0 2.92857,1.25548 2.92857,2.92858 v 11.7143 c 0,1.67309 -1.25549,2.92857 -2.92857,2.92857 h -4.57589 l .8237,-.8237 c 0.799763,-0.74587 1.11738,-1.87516 0.82366,-2.92857 v -2.10491 l -.9998,-1.5002 -12.904,8.786 .9998,1.4998 2.0134,2.1049 5.8571,5.8571 c 0.653466,0.63945 1.56454,0.94314 2.47098,0.82366 h 0.274554 2.28795 v -2.47098 c 0.01174,-0.1523 0.01174,-0.30529 0,-0.45759 0.01287,-0.78264 -0.283043,-1.53885 -0.82366,-2.10491 l -.8237,-.8237 h 4.57589 c 4.81663,0 8.78571,-3.9691 8.78571,-8.78572 v -11.7143 c 0,-4.81663 -3.96908,-8.78572 -8.78571,-8.78572 h -23.4286 z "/>
</g>
<path style="font-family:Sans;fill:#919191;text-align:start;stroke:none;line-height:normal;color:#000;text-indent:0;stroke-width:2;text-transform:none" id="path4516" d="m 12.2858,6.4158 c -4.81663,0 -8.78571,3.96909 -8.78571,8.78572 v 11.7143 c 0,4.81662 3.96908,8.78572 8.78571,8.78572 h 2.92857 l -.0003,-5.8575 -2.9283,.0004 c -1.67308,0.000223 -2.92857,-1.25548 -2.92857,-2.92857 v -11.7143 c 0,-1.6731 1.25549,-2.92858 2.92857,-2.92858 h 23.4286 c 1.67308,0 2.92857,1.25548 2.92857,2.92858 v 11.7143 c 0,1.67309 -1.25549,2.92857 -2.92857,2.92857 h -4.57589 l .8237,-.8237 c 0.799763,-0.745865 1.11738,-1.87516 0.82366,-2.92857 l .0002,-2.1051 -2.2881,.0002 h -0.549107 c -0.0305,-0.000477 -0.06102,-0.000477 -0.09152,0 -0.121905,-0.0076 -0.244167,-0.0076 -0.366072,0 -0.655829,0.0709 -1.26852,0.361126 -1.73884,0.82366 l -5.8571,5.8571 -2.0132,2.105 2.0132,2.1048 5.8571,5.8571 c 0.653466,0.63945 1.56454,0.94314 2.47098,0.82366 h 0.274554 2.28795 v -2.47098 c 0.01174,-0.152304 0.01174,-0.305286 0,-0.45759 0.01287,-0.782639 -0.283043,-1.53885 -0.82366,-2.10491 l -.8237,-.8237 h 4.57589 c 4.81663,0 8.78571,-3.9691 8.78571,-8.78572 v -11.7143 c 0,-4.81663 -3.96908,-8.78572 -8.78571,-8.78572 h -23.4286 z "/>
</svg>
