<svg width="48" version="1.0" xmlns="http://www.w3.org/2000/svg" height="48">
<path style="fill:#d6dfe2" d="M 47,24 A 23,23 0 0 1 24,47 23,23 0 0 1 1,24 23,23 0 0 1 24,1 23,23 0 0 1 47,24 Z"/>
<g style="fill:#4d575a" transform="translate(1)">
<path d="m 11.325872,12 h 8.592286 c 0.180462,0 0.325744,0.145282 0.325744,0.325745 v 23.34851 C 20.243902,35.854718 20.09862,36 19.918158,36 h -8.592286 c -0.180463,0 -0.325745,-0.145282 -0.325745,-0.325745 V 12.325745 C 11,12.145282 11.145409,12 11.325872,12 Z"/>
<path d="m 26.081842,12 h 8.592285 c 0.180463,0 0.325745,0.145282 0.325745,0.325745 v 23.34851 C 35,35.854718 34.85459,36 34.674127,36 H 26.081842 C 25.90138,36 25.756098,35.854718 25.756098,35.674255 V 12.325745 C 25.756098,12.145282 25.90138,12 26.081842,12 Z"/>
</g>
</svg>
