<svg width="48" version="1.1" xmlns="http://www.w3.org/2000/svg" height="48">
<g style="stroke:none;fill-rule:evenodd" id="g4">
<g style="fill:#fff" id="g6">
<path style="opacity:.6" id="path4156" d="m 4.6569,37.7672 -1.1569,-1.2672 20.4536,-13.0717 c 0.622089,0.806364 1.1915,2.24553 -0.219346,3.18448 z "/>
<path style="opacity:.6" id="path4144" d="m 24.8837,37.7672 -1.1569,-1.2672 20.4536,-13.0717 c 0.622089,0.806364 1.1915,2.24553 -0.219346,3.18448 z "/>
</g>
<g style="fill:#919191" id="layer1">
<path id="path7812" d="m 3.5,36.5 0,-25 c 3.60983,2.08333 15.7705,9.07736 19.7345,11.4137 1.41694,0.835127 1.35252,1.4465 0,2.19887 C 19.29254,27.30539 7.1098,34.41667 3.5,36.49997 Z"/>
<path id="path3004" d="m 23.727,36.5 -2e-4,-25 c 3.60983,2.08333 15.7705,9.07736 19.7345,11.4137 1.41694,0.835127 1.35252,1.4465 0,2.19887 -3.94196,2.19282 -16.1245,9.30412 -19.7343,11.3874 z"/>
</g>
</g>
</svg>
