<svg width="48" version="1.1" xmlns="http://www.w3.org/2000/svg" height="48">
<path style="fill:#d6dfe2" d="M 47,24 A 23,23 0 0 1 24,47 23,23 0 0 1 1,24 23,23 0 0 1 24,1 23,23 0 0 1 47,24 Z"/>
<g style="fill:#4d575a">
<path d="m 6.9636,30.5059 v 5.6898 h 8.75153 c 0.652878,0 1.24119,-0.11819 1.85375,-0.260101 -1.36877,-1.5674 -2.74278,-3.35766 -3.22623,-5.42983 z "/>
<path d="m 6.9636,17.4687 h 5.8512 c 1.6247,0 2.82871,1.20399 2.82871,2.82871 v 7.3798 c 0,4.67734 3.87381,8.51836 8.55115,8.51864 h 4.5097 l -.8454,.8454 c -0.82436,0.72961 -1.18818,1.86943 -1.04531,2.92625 l .2002,2.0182 h 1.853 c 1.13939,0 2.24241,-0.0746 2.99128,-0.91285 l 5.6899,-5.6899 2.0158,-2.0163 -2.0158,-2.0155 -5.6899,-5.6899 c -0.524555,-0.53115 -1.23683,-0.84536 -1.98335,-0.84536 h -2.86122 v 2.50357 c -0.103135,0.87964 0.209392,1.75712 0.845361,2.37351 l .8128,.8129 h -4.4771 c -1.6247,0 -2.86122,-1.20401 -2.86122,-2.82871 v -7.3798 c 0,-4.67734 -3.8413,-8.51881 -8.51864,-8.51864 h -5.851 z "/>
<path d="m 27.55,6.0554 v 2.47106 c -0.103135,0.87964 0.209392,1.75712 0.845361,2.37351 l .8454,.8454 h -7.50934 c -0.652879,0 -1.27324,0.1182 -1.88581,0.26011 1.36877,1.56726 2.47533,3.35765 2.95878,5.42982 h 6.40381 l -.8128,.8128 c -0.82436,0.72961 -1.07608,1.85404 -0.945448,2.92625 l .1004,2.0507 h 1.9831 c 1.14531,0 2.14368,-0.14569 2.86122,-0.94525 l 5.6899,-5.6899 2.0158,-2.0156 -2.0158,-2.0162 -5.6899,-5.6899 c -0.601684,-0.61697 -1.44828,-0.897596 -2.30849,-0.84536 Z "/>
</g>
</svg>
