<svg width="48" version="1.1" xmlns="http://www.w3.org/2000/svg" height="48">
<path style="fill:#d6dfe2" d="M 47,24 A 23,23 0 0 1 24,47 23,23 0 0 1 1,24 23,23 0 0 1 24,1 23,23 0 0 1 47,24 Z"/>
<g style="fill:#4d575a">
<path d="m 39,13.5 -15.7345,9.4137 c -1.411417,0.844428 -1.35252,1.4465 0,2.19887 L 39,34.5 Z"/>
<path d="m 26.773,13.5 -15.7343,9.4137 c -1.41141,0.844436 -1.35252,1.4465 0,2.19887 l 15.7345,9.3874 z "/>
<path d="m 13.8082,11.5641 h -3.91251 c -0.496195,0 -0.895659,0.38235 -0.895659,0.857286 v 23.1571 c 0,0.474937 0.399464,0.857286 0.895659,0.857286 h 3.91251 c 0.496195,0 0.895659,-0.382348 0.895659,-0.857286 v -23.1571 c 0,-0.474936 -0.399464,-0.857286 -0.895659,-0.857286 z "/>
</g>
</svg>
