<svg width="48" version="1.0" xmlns="http://www.w3.org/2000/svg" height="48">
<path style="fill:#d6dfe2" d="M 47,24 A 23,23 0 0 1 24,47 23,23 0 0 1 1,24 23,23 0 0 1 24,1 23,23 0 0 1 47,24 Z"/>
<g style="fill:#4d575a">
<path d="m 10.325745,10 h 9.592413 c 0.180462,0 0.325744,0.145282 0.325744,0.325745 v 27.34851 C 20.243902,37.854718 20.09862,38 19.918158,38 H 10.325745 C 10.145282,38 10,37.854718 10,37.674255 V 10.325745 C 10,10.145282 10.145282,10 10.325745,10 Z"/>
<path d="m 28.081842,10 h 9.592413 C 37.854718,10 38,10.145282 38,10.325745 v 27.34851 C 38,37.854718 37.854718,38 37.674255,38 H 28.081842 C 27.90138,38 27.756098,37.854718 27.756098,37.674255 V 10.325745 C 27.756098,10.145282 27.90138,10 28.081842,10 Z"/>
</g>
</svg>
