<svg width="48" version="1.1" xmlns="http://www.w3.org/2000/svg" height="48">
<g style="stroke:none;fill-rule:evenodd" id="g4">
<path style="opacity:.6;fill:#fff" id="path4152" d="m 24.2734,11.5 -19.9688,11.6055 c -0.869468,0.505305 -1.38957,2.78986 0.234375,4.0082 0,0 17.7248,10.103 21.3346,12.1863 v -11.8797 c 0.832916,0.481705 16.6894,9.8496 20.207,11.8797 v -26.2998 l -1.6022,-1.5002 -18.6049,11.1621 v -9.66191 l -1.6002,-1.5002 z "/>
<g style="fill:#919191" id="layer1">
<path id="path7812" d="m 44.5,36.5 0,-25 c -3.60983,2.08333 -15.7705,9.07736 -19.7345,11.4137 -1.41694,0.835127 -1.35252,1.4465 0,2.19887 3.94196,2.19282 16.1247,9.3041 19.7345,11.3874 z"/>
<path id="path3004" d="m 24.2732,36.5 -2e-4,-25 c -3.60983,2.08333 -15.7703,9.07736 -19.7343,11.4137 -1.41694,0.835127 -1.35252,1.4465 0,2.19887 3.94196,2.19282 16.1247,9.3041 19.7345,11.3874 z"/>
</g>
</g>
</svg>
