<svg width="48" version="1.1" xmlns="http://www.w3.org/2000/svg" height="48">
<path style="fill:#d6dfe2" d="M 47,24 A 23,23 0 0 1 24,47 23,23 0 0 1 1,24 23,23 0 0 1 24,1 23,23 0 0 1 47,24 Z"/>
<g style="fill:#4d575a">
<path d="m 9.827,11.5 13.7341,11.4137 c 1.33133,0.965765 1.35252,1.4465 0,2.19887 L 9.8266,36.49997 Z"/>
<path d="m 21.4526,11.5 13.7349,11.4137 c 1.33136,0.965734 1.35252,1.4465 0,2.19887 L 21.453,36.49997 Z"/>
<path d="m 33.3652,11.8886 h 3.91251 c 0.496196,0 0.89566,0.38235 0.89566,0.857286 v 22.8569 c 0,0.474937 -0.399464,0.857286 -0.89566,0.857286 H 33.3652 c -0.496195,0 -0.895659,-0.382349 -0.895659,-0.857286 v -22.8569 c 0,-0.474936 0.399464,-0.857286 0.895659,-0.857286 z"/>
</g>
</svg>
