<svg width="48" version="1.1" xmlns="http://www.w3.org/2000/svg" height="48">
<path style="fill:#d6dfe2" d="M 47,24 A 23,23 0 0 1 24,47 23,23 0 0 1 1,24 23,23 0 0 1 24,1 23,23 0 0 1 47,24 Z"/>
<g style="fill:#4d575a">
<path d="M 38.173,11.5 24.4389,22.9137 c -1.33133,0.965765 -1.35252,1.4465 0,2.19887 l 13.7345,11.3874 z"/>
<path d="M 26.5474,11.5 12.8125,22.9137 c -1.33136,0.965734 -1.35252,1.4465 0,2.19887 l 13.7345,11.3874 z"/>
<path d="m 14.6348,11.8886 h -3.91251 c -0.496195,0 -0.895659,0.38235 -0.895659,0.857286 v 22.8569 c 0,0.474937 0.399464,0.857286 0.895659,0.857286 h 3.91251 c 0.496195,0 0.895659,-0.382349 0.895659,-0.857286 v -22.8569 c 0,-0.474936 -0.399464,-0.857286 -0.895659,-0.857286 z"/>
</g>
</svg>
