<svg width="48" version="1.1" xmlns="http://www.w3.org/2000/svg" height="48" viewBox="0 0 48 48" xmlns:xlink="http://www.w3.org/1999/xlink">
<defs id="defs30">
<linearGradient id="linearGradient859">
<stop offset="0" style="stop-color:#f2ba56" id="stop855"/>
<stop offset="0.3" style="stop-color:#e59a13" id="stop863"/>
<stop offset="1" style="stop-color:#fabc51" id="stop857"/>
</linearGradient>
<linearGradient gradientTransform="translate(0,1)" xlink:href="#linearGradient859" id="linearGradient861" y1="3" x1="23.5" y2="37" x2="23.5" gradientUnits="userSpaceOnUse"/>
<linearGradient gradientTransform="matrix(2,0,0,2,-19,-15)" id="a" y1="30" x1="22" y2="23" gradientUnits="userSpaceOnUse" x2="22">
<stop offset="0" style="stop-color:#8d9096" id="stop2"/>
<stop offset="1" style="stop-color:#e6e6e6" id="stop4"/>
</linearGradient>
</defs>
<g style="fill:#040404">
<path style="opacity:.05" id="circle1480" d="m 24,3.2012 c -2.97656,0 -6.05078,2.31832 -6.05078,5.21289 0,0.250122 0.021243,0.538616 0.064453,0.785156 -5.42189,1.84099 -6.808,7.59208 -6.81445,13.1953 0,7.32056 -6,11.3765 -9,14.3047 l -0,3.1016 h 14.2305 a 7.8,7.8 0 0,0 7.57031,6 7.8,7.8 0 0,0 7.57031,-6 h 14.2305 v -3.10156 c -3,-2.92822 -9,-6.98413 -9,-14.3047 -0.0065,-5.60323 -1.39257,-11.3543 -6.81445,-13.1953 0.04322,-0.24654 0.064783,-0.333862 0.064453,-0.583984 4e-06,-2.89457 -3.07422,-5.41406 -6.05078,-5.41406 z "/>
<path style="opacity:.1" id="circle1438" d="m 24,3.4004 c -2.97656,0 -5.84961,2.32027 -5.84961,5.21484 0,0.250122 0.021243,0.538616 0.064453,0.785156 -5.42189,1.84099 -6.808,7.39286 -6.81445,12.9961 0,7.32056 -6,11.5757 -9,14.5039 l 0,2.6992 h 14.1895 a 7.6,7.6 0 0,0 7.41016,6 7.6,7.6 0 0,0 7.42773,-6 h 14.1719 v -2.69922 c -3,-2.92822 -9,-7.18335 -9,-14.5039 -0.0065,-5.60323 -1.39257,-11.1551 -6.81445,-12.9961 0.04322,-0.24654 0.064783,-0.335815 0.064453,-0.585938 4e-06,-2.89457 -2.87305,-5.41406 -5.84961,-5.41406 z "/>
</g>
<path style="opacity:.15" id="path1085" d="m 24,3.5996 c -2.97656,0 -5.65039,2.32027 -5.65039,5.21484 0,0.250122 0.021243,0.538616 0.064453,0.785156 -5.42189,1.84099 -6.808,7.19365 -6.81445,12.7969 0,7.32056 -6,11.7749 -9,14.7031 l -0,2.3008 h 14.1523 a 7.4,7.4 0 0,0 7.24805,6 7.4,7.4 0 0,0 7.24805,-6 h 14.1523 v -2.30078 c -3,-2.92822 -9,-7.38256 -9,-14.7031 -0.0065,-5.60323 -1.39257,-10.9559 -6.81445,-12.7969 0.04322,-0.24654 0.064783,-0.335816 0.064453,-0.585938 4e-06,-2.89457 -2.67383,-5.41406 -5.65039,-5.41406 z "/>
<path style="opacity:.2" id="path838" d="m 24,3.8008 c -2.97656,0 -5.45117,2.31832 -5.45117,5.21289 0,0.250122 0.021243,0.538616 0.064453,0.785156 -5.42189,1.84099 -6.808,6.99443 -6.81445,12.5977 0,7.32056 -6,11.9761 -9,14.9043 l 0,1.8984 h 14.1113 a 7.2,7.2 0 0,0 7.08984,6 7.2,7.2 0 0,0 7.09766,-6 h 14.1035 v -1.89844 c -3,-2.92822 -9,-7.58374 -9,-14.9043 -0.0065,-5.60323 -1.39257,-10.7567 -6.81445,-12.5977 0.04322,-0.24654 0.064783,-0.535034 0.064453,-0.785156 4e-06,-2.89457 -2.47461,-5.21289 -5.45117,-5.21289 z "/>
<circle cx="24" cy="38" style="fill:url(#a)" r="7" id="circle18"/>
<path style="fill:url(#linearGradient861)" id="path20" d="M 24,4 C 21.023437,4 18.75,6.3202735 18.75,9.214843 18.749674,9.464965 18.771238,9.75346 18.814453,10 13.392567,11.840989 12.006455,16.792279 12,22.395508 12,29.716069 6,34.571773 3,37.5 V 39 H 24 45 V 37.5 C 42,34.571775 36,29.716069 36,22.395508 35.99355,16.792279 34.607432,11.840989 29.185546,10 29.228761,9.75346 29.25033,9.464965 29.25,9.214843 29.25,6.3202735 26.976562,4 24,4 Z"/>
<path style="opacity:.3" id="path22" d="M 3,37.5 H 45 V 39 H 3 Z"/>
<path style="opacity:.3" id="path24" d="m 18.8,8.5 c -0.07727,0.514236 -0.05104,1.01342 0.01441,1.5 h 10.3711 C 29.288666,9.487155 29.26281,9 29.2,8.5 Z"/>
</svg>
