<svg xmlns:xlink="http://www.w3.org/1999/xlink" version="1.0" width="48" xmlns="http://www.w3.org/2000/svg" height="48">
<defs id="defs4"/>
<g id="layer2">
<g style="fill:#c0941c" id="g3905" transform="matrix(0,1.0868712,-1.0868712,0,45.693237,-1.8165599)">
<path style="stroke:none" id="path3591" d="m 28.4797,3.652 c -1.09486,0.122487 -2.0112,1.15338 -2.00449,2.25505 v 4.98095 l -9.4351,-.0003 c -3.47028,-0.000103 -6.51753,1.34841 -8.21283,3.50785 -2.47048,3.14685 -1.83584,7.56584 -1.93422,10.3745 -0.051052,1.45743 0,11.5082 0,11.5082 h 7.82797 c 0,0 0.0084,-7.41426 0,-10.8233 -0.0064,-2.60276 -0.829211,-6.73547 4.07971,-6.73923 l 7.6744,.0002 v 5.87178 c -0.0053,0.873305 0.53731,1.7355 1.33632,2.08801 0.799024,0.352508 1.80868,0.175267 2.44993,-0.417602 l 9.6911,-9.7997 c 0.944978,-0.867012 0.90291,-2.57695 -0.08352,-3.39649 l -9.6911,-8.881 c -0.463268,-0.396032 -1.09203,-0.591883 -1.69825,-0.528962 z "/>
</g>
</g>
</svg>
