<svg width="16" version="1.1" xmlns="http://www.w3.org/2000/svg" height="16">
<g style="color:#000">
<path style="opacity:.88" d="M 8,-4.84375e-4 3.6230469,3.5253906 3.5742188,3.5742188 C 3.1700863,3.978201 3,4.5010052 3,5 V 7 H 5 C 5.3503221,7 5.675955,6.7869334 6,6.5976562 V 9.4023438 C 5.675955,9.2130666 5.3503221,9 5,9 H 3 v 2 c 0,0.498995 0.1700863,1.021799 0.5742188,1.425781 l 0.048828,0.04883 L 8,16 l 4.376953,-3.524875 0.04883,-0.04883 C 12.829571,12.021927 13,11.499124 13,11 V 9 H 11 C 10.64989,9 10.324105,9.2130443 10,9.4023438 V 6.5976562 C 10.324105,6.7869557 10.64989,7 11,7 h 2 V 5 C 13,4.500876 12.829571,3.9780726 12.425781,3.5742188 l -0.04883,-0.048828 z"/>
<path style="opacity:.88;fill:#fff;line-height:normal" d="M 8,1.2544844 4.28125,4.28125 C 4.093,4.46943 4,4.73472 4,5 v 1 h 1 c 0.26531,4e-5 0.53057,-0.09314 0.71875,-0.28125 L 7,4.638 v 6.724 L 5.71875,10.28125 C 5.53057,10.09314 5.26531,10 5,10 H 4 v 1 c 0,0.26528 0.093,0.53057 0.28125,0.71875 L 8,14.744516 11.71875,11.71875 C 11.90689,11.53058 12,11.26531 12,11 v -1 h -1 c -0.2653,0 -0.53058,0.0931 -0.71875,0.28125 L 9,11.362 V 4.638 l 1.28125,1.08075 C 10.46942,5.9069 10.7347,6 11,6 h 1 V 5 c -3e-5,-0.26531 -0.09311,-0.53058 -0.28125,-0.71875 z"/>
</g>
</svg>
