<svg width="16" version="1.1" xmlns="http://www.w3.org/2000/svg" height="16">
<g style="line-height:normal;stroke:none;fill:#c0941c;color:#000;text-align:start;stroke-width:2;text-indent:0;text-transform:none" id="layer12" transform="translate(-261.00015,-667)">
<path style="font-family:Sans" id="path15417" d="m 268,670 0,10 2,0 0,-10 -2,0 z"/>
<g style="font-family:Bitstream Vera Sans">
<path id="path3613-6-6-5-4" d="m 265.0002,677 0,1 c 0,0.26528 0.093,0.53057 0.28125,0.71875 l 3.7188,3.7188 c 0,0 2.47917,-2.47917 3.71875,-3.71875 0.18814,-0.18817 0.28122,-0.45344 0.28125,-0.71875 v -1 h -1 c -0.2653,0 -0.53058,0.0931 -0.71875,0.28125 l -2.2812,2.2812 -2.2812,-2.2812 c -0.18818,-0.18811 -0.45344,-0.28129 -0.71875,-0.28125 z "/>
<path id="path3613-6-6-5-4-5" d="m 265.0004,673 0,-1 c 0,-0.26528 0.093,-0.53057 0.28125,-0.71875 l 3.7188,-3.7188 c 0,0 2.47917,2.47917 3.71875,3.71875 0.18814,0.18817 0.28122,0.45344 0.28125,0.71875 v 1 h -1 c -0.2653,0 -0.53058,-0.0931 -0.71875,-0.28125 l -2.2812,-2.2812 -2.2812,2.2812 c -0.18818,0.18811 -0.45344,0.28129 -0.71875,0.28125 z "/>
</g>
</g>
</svg>
