<svg xmlns:xlink="http://www.w3.org/1999/xlink" version="1.0" width="48" xmlns="http://www.w3.org/2000/svg" height="48">
<defs id="defs4"/>
<g id="layer2">
<path style="fill:#c0941c;stroke:none" id="path3591" d="m 6.276,29.1372 c 0.133128,-1.18997 1.25357,-2.18592 2.45095,-2.17862 h 5.41365 l -.0003,-10.2547 c -0.000112,-3.77175 1.46555,-7.08372 3.81258,-8.92629 3.42022,-2.68509 8.22309,-1.99532 11.2757,-2.10225 1.58404,-0.055487 12.508,0 12.508,0 v 8.508 c 0,0 -8.05835,0.0091 -11.7636,0 -2.82886,-0.007 -7.32059,-0.901246 -7.32468,4.43412 l .0003,8.3411 h 6.38187 c 0.94917,-0.0058 1.88626,0.583987 2.26939,1.45241 0.383131,0.868436 0.190493,1.9658 -0.45388,2.66276 l -10.651,10.533 c -0.942331,1.02707 -2.80081,0.981347 -3.69155,-0.09078 l -9.6525,-10.533 c -0.430436,-0.503513 -0.643301,-1.18689 -0.574913,-1.84577 Z "/>
</g>
</svg>
