<svg width="16" version="1.1" xmlns="http://www.w3.org/2000/svg" height="16">
<g style="line-height:normal;stroke:none;text-align:start;fill:#c0941c;text-transform:none;stroke-width:2;text-indent:0" id="layer12" transform="translate(-241.00015,-667)">
<path style="font-family:Sans;color:#000" id="path15405" d="m 244,674 0,2 10,0 0,-2 -10,0 z"/>
<g style="font-family:Bitstream Vera Sans;color:#bebebe">
<path id="rect3217-6-2-2-4-85-5" d="m 251.0002,671 0,1 c 0,0.25689 0.12983,0.52846 0.3125,0.71875 l 2.2812,2.2812 -2.2812,2.2812 c -0.18267,0.19029 -0.3125,0.46186 -0.3125,0.71875 v 1 h 1 c 0.30945,0 0.55232,-0.0903 0.75,-0.28125 l 3.6562,-3.7188 -3.6562,-3.7188 c -0.19768,-0.19095 -0.44055,-0.28125 -0.75,-0.28125 z "/>
<path id="rect3217-6-2-2-4-85-5-2" d="m 247.0002,671 0,1 c 0,0.25689 -0.12983,0.52846 -0.3125,0.71875 l -2.2812,2.2812 2.2812,2.2812 c 0.18267,0.19029 0.3125,0.46186 0.3125,0.71875 v 1 h -1 c -0.30945,0 -0.55232,-0.0903 -0.75,-0.28125 l -3.6562,-3.7188 3.6562,-3.7188 c 0.19768,-0.19095 0.44055,-0.28125 0.75,-0.28125 z "/>
</g>
</g>
</svg>
