<svg width="16" version="1.1" xmlns="http://www.w3.org/2000/svg" height="16">
<g style="color:#000">
<path style="opacity:.88" d="m 16,8 -3.5259,-4.377 -.0488,-.0488 c -0.403982,-0.404133 -0.926786,-0.574219 -1.42578,-0.574219 h -2 v 2 c -5.28e-05,0.350322 0.213067,0.675955 0.402344,1 h -2.80469 c 0.189277,-0.324045 0.402397,-0.649678 0.402344,-1 v -2 h -2 c -0.498995,0 -1.0218,0.170086 -1.42578,0.574219 l -.0488,.0488 -3.5249,4.377 3.5249,4.377 .0488,.0488 c 0.403852,0.403788 0.926655,0.574161 1.42578,0.574217 h 2 v -2 c 0,-0.35011 -0.213044,-0.675895 -0.402344,-1 h 2.80469 c -0.1893,0.324105 -0.402344,0.64989 -0.402344,1 v 2 h 2 c 0.499124,-5.6e-05 1.02193,-0.170429 1.42578,-0.574219 l .0488,-.0488 z "/>
<path style="opacity:.88;fill:#fff;line-height:normal" d="M 14.745015,8 11.71825,4.28125 C 11.53007,4.093 11.26478,4 11,4 H 10 v 1 c -4e-5,0.26531 0.09314,0.53057 0.2812502,0.71875 L 11.3615,7 H 4.6374998 l 1.08075,-1.28125 C 5.9063598,5.53057 6,5.26531 6,5 V 4 h -1 c -0.26528,0 -0.53057,0.093 -0.71875,0.28125 L 1.2549838,8 l 3.025766,3.71875 c 0.18817,0.18814 0.45344,0.28122 0.71875,0.28125 h 1 v -1 c 0,-0.2653 -0.0931,-0.53058 -0.28125,-0.71875 L 4.6374998,9 H 11.3615 l -1.08075,1.28125 C 10.0926,10.46942 10,10.7347 10,11 v 1 H 11 c 0.26531,-3e-5 0.53058,-0.09311 0.71875,-0.28125 z"/>
</g>
</svg>
