<svg width="48" version="1.0" xmlns="http://www.w3.org/2000/svg" height="48">
<path style="opacity:.88" d="m 44.6743,28.5458 c -0.167637,-1.5376 -0.956588,-2.54052 -1.87655,-3.2967 -0.919963,-0.756179 -2.10683,-1.29941 -3.54295,-1.29066 h -2.39451 v -7.25359 c 0.000135,-4.54897 -1.71767,-8.7407 -4.96097,-11.2869 -4.68947,-3.68154 -10.5318,-2.65326 -13.0233,-2.74053 -1.0681,-0.0374144 -4.02661,-0.0302987 -6.96065,-0.0233503 -2.93403,0.0069451 -5.66786,0.0212277 -5.66786,0.0212277 l -2.9846,.0149 v 14.4902 l 2.9974,.0022 c 0,0 8.05432,0.0091 11.7751,0 1.72666,-0.0042 3.29659,-0.07749 3.85287,0.08916 0.278143,0.08332 0.228617,0.0806 0.256858,0.120999 0.02819,0.04032 0.204619,0.315693 0.205912,1.22485 v 5.34095 h -3.36251 c -2.20374,-0.01338 -4.12328,1.17918 -5.03315,3.24151 -0.909738,2.06209 -0.512053,4.27919 0.995592,5.90986 l .0467,.0488 10.6989,10.5821 -.1019,-.1061 c 2.30072,2.50761 6.03415,2.41588 8.20885,-0.201666 l -.0955,.1104 9.6884,-10.5715 .034,-.0403 c 0.984186,-1.15132 1.41133,-2.85052 1.24396,-4.38574 z "/>
<path style="fill:#fff;opacity:.88" d="m 41.724,29.1372 c -0.133127,-1.18997 -1.25357,-2.18592 -2.45095,-2.17862 h -5.41365 l .0003,-10.2547 c 0.000112,-3.77175 -1.46555,-7.08372 -3.81258,-8.92629 -3.42022,-2.68509 -8.22309,-1.99532 -11.2757,-2.10225 -1.58404,-0.055487 -12.5079,0 -12.5079,0 v 8.508 c 0,0 8.05835,0.0091 11.7635,0 2.82887,-0.007 7.32059,-0.901246 7.32467,4.43412 l -.0002,8.3411 h -6.38187 c -0.94917,-0.0058 -1.88627,0.583987 -2.2694,1.45241 -0.383131,0.868436 -0.190493,1.9658 0.45388,2.66276 l 10.651,10.533 c 0.942331,1.02707 2.80081,0.981347 3.69155,-0.09078 l 9.6525,-10.533 c 0.430435,-0.503513 0.6433,-1.1869 0.574913,-1.84578 z "/>
<path d="m 38.8005,29.1041 -.0892,.0976 c -0.000436,-0.0039 -0.0017,-0.000327 -0.0021,-0.0042 0.01957,0.179463 0.06403,-0.006 0.09128,-0.09341 z "/>
</svg>
