<svg width="48" version="1.1" xmlns="http://www.w3.org/2000/svg" height="48">
<g style="fill-rule:evenodd">
<path style="opacity:.4" d="M 30.6594,6.159 C 25.87652,9.70021 19.0651,20.73 13.268,28.0155 l 8.5364,0.7423 c -1.41885,6.16619 -2.60347,15.855 -4.28552,18.4917 3.38751,-2.0539 12.147,-15.6754 18.212,-23.5267 l -9.9808,-0.868 C 27.38651,17.28953 28.27695,9.6341 30.65937,6.159 Z"/>
<path style="fill:#f1c600" d="M 30.1599,5.2592 C 25.37702,8.80041 18.5656,19.8302 12.7685,27.1157 l 8.5364,0.7423 c -1.41885,6.16619 -2.60347,15.855 -4.28552,18.4917 3.38751,-2.0539 12.147,-15.6754 18.212,-23.5267 l -9.9808,-0.868 C 26.88701,16.38973 27.77745,8.7343 30.15987,5.2592 Z"/>
</g>
</svg>
