<svg width="48" version="1.1" xmlns="http://www.w3.org/2000/svg" height="48">
<g style="fill-rule:evenodd">
<path style="opacity:.4" d="M 30.6594,6.159 C 25.87652,9.70021 19.0651,20.73 13.268,28.0155 l 8.5364,0.7423 c -1.41885,6.16619 -2.60347,15.855 -4.28552,18.4917 3.38751,-2.0539 12.147,-15.6754 18.212,-23.5267 l -9.9808,-0.868 C 27.38651,17.28953 28.27695,9.6341 30.65937,6.159 Z"/>
<path style="fill:#f1c600" d="M 30.1599,5.2592 C 25.37702,8.80041 18.5656,19.8302 12.7685,27.1157 l 8.5364,0.7423 c -1.41885,6.16619 -2.60347,15.855 -4.28552,18.4917 3.38751,-2.0539 12.147,-15.6754 18.212,-23.5267 l -9.9808,-0.868 C 26.88701,16.38973 27.77745,8.7343 30.15987,5.2592 Z"/>
</g>
<g style="letter-spacing:0;line-height:125%;word-spacing:0">
<path style="fill:#1e1e1e" d="m 44.2287,34.5008 c 2.31733,-0.07736 3.76873,-1.27643 3.77133,-2.82361 0.007,-4.17188 -0.0112,-3.54634 -4.218,-3.55334 -3.63502,-0.0061 -8.36826,2.12219 -10.6401,4.7524 -1.99926,2.32078 -2.99889,4.87363 -2.99889,7.69724 0,4.52551 3.08977,7.42648 7.67898,7.42648 2.81714,0 6.22497,-1.19907 9.49649,-3.67456 v -2.28209 c -2.58995,1.93398 -5.04359,2.86229 -6.99742,2.86229 -2.81714,0 -4.49834,-1.85662 -4.49834,-5.22174 0,-4.79627 2.45364,-8.39347 5.49797,-9.12838 l 2.908,3.9453 z"/>
<path style="fill:#d2d2d2" d="M 44.22867,32.500714 C 46.546,32.423354 48,31.224284 48,29.677104 c 0,-1.8953 -1.77207,-3.13305 -4.99815,-3.13305 -3.63502,0 -7.58811,1.7019 -9.85999,4.33211 -1.99926,2.32078 -2.99889,4.87363 -2.99889,7.69724 0,4.52551 3.08977,7.42648 7.67898,7.42648 2.81714,0 6.22497,-1.19907 9.49649,-3.67456 v -2.28209 c -2.58995,1.93398 -5.04359,2.86229 -6.99742,2.86229 -2.81714,0 -4.49834,-1.85662 -4.49834,-5.22174 0,-4.79627 2.45364,-8.39347 5.49797,-9.12838 l 2.908,3.9453 z"/>
</g>
</svg>
