<svg width="48" version="1.1" xmlns="http://www.w3.org/2000/svg" height="48">
<g style="fill-rule:evenodd">
<path style="opacity:.4" d="M 30.6594,6.159 C 25.87652,9.70021 19.0651,20.73 13.268,28.0155 l 8.5364,0.7423 c -1.41885,6.16619 -2.60347,15.855 -4.28552,18.4917 3.38751,-2.0539 12.147,-15.6754 18.212,-23.5267 l -9.9808,-0.868 C 27.38651,17.28953 28.27695,9.6341 30.65937,6.159 Z"/>
<path style="fill:#f1c600" d="M 30.1599,5.2592 C 25.37702,8.80041 18.5656,19.8302 12.7685,27.1157 l 8.5364,0.7423 c -1.41885,6.16619 -2.60347,15.855 -4.28552,18.4917 3.38751,-2.0539 12.147,-15.6754 18.212,-23.5267 l -9.9808,-0.868 C 26.88701,16.38973 27.77745,8.7343 30.15987,5.2592 Z"/>
</g>
<g style="letter-spacing:0;line-height:125%;word-spacing:0">
<path style="fill:#1e1e1e" d="m 45.6516,25.6538 c 1.46174,-0.258759 2.33878,-2.03456 2.33878,-2.89709 0,-1.06378 0.02891,-1.67487 -0.01373,-2.11662 -5.17551,-1.03125 -11.1685,2.52151 -12.1918,7.06416 l -2.8504,.9775 -.0365,2.2649 2.4484,-.23 -1.5714,8.198 c -0.657781,3.56512 -1.24247,4.65163 -2.37532,5.83042 l -4.9788,-1.5583 c -0.567315,0.292822 -0.392994,2.19685 -0.392994,3.03063 0,1.00628 1.05976,1.78256 2.52149,1.78256 2.26569,0 4.93336,-1.4088 7.01633,-3.99638 1.38865,-1.72506 2.15606,-3.82388 2.63112,-6.38271 l 1.3521,-6.9042 h 5.29879 v -2.29611 h -4.9699 c 0.730866,-3.19135 1.64445,-4.29065 2.70421,-5.29693 z "/>
<path style="fill:#d2d2d2" d="m 45.6516,23.6538 c 1.46174,-0.258759 2.33878,-2.03456 2.33878,-2.89709 0,-1.06378 -1.42519,-1.98381 -3.54471,-1.98381 -3.80051,0 -7.63757,2.78884 -8.66079,7.33149 l -2.8504,.9775 -.0365,1.8648 2.4484,-.23 -1.5714,8.198 c -0.657781,3.56512 -1.24247,4.65163 -2.37532,5.83042 l -3.9101,-1.6388 c -0.950128,0.31626 -1.46174,2.27734 -1.46174,3.11112 0,1.00628 1.05976,1.78256 2.52149,1.78256 2.26569,0 4.93336,-1.4088 7.01633,-3.99638 1.38865,-1.72506 2.15606,-3.82388 2.63112,-6.38271 l 1.3521,-6.9042 h 5.29879 v -2.29611 h -4.9699 c 0.730866,-3.19135 1.64445,-4.29065 2.70421,-5.29693 z "/>
</g>
</svg>
