<svg width="48" version="1.0" xmlns="http://www.w3.org/2000/svg" height="48">
<g style="fill:#eec323">
<path style="-inkscape-stroke:none;color:#000" d="m 24.2617,.8789 c -2.10056,-0.0296965 -3.2067,1.2468 -4.13672,2.35547 -0.930019,1.10867 -1.72884,2.40617 -2.5,3.71094 -0.771156,1.30477 -1.50118,2.61495 -2.13672,3.63281 -0.635538,1.01786 -1.34109,1.75286 -1.2207,1.66797 0.120369,-0.08487 -0.80828,0.333052 -1.98047,0.589844 -1.17219,0.256791 -2.6507,0.504791 -4.13867,0.792968 -1.48798,0.288178 -2.97933,0.603747 -4.33594,1.10742 -1.35661,0.503675 -2.93,1.11885 -3.60742,3.10742 -0.677431,1.98858 0.193926,3.43502 0.960937,4.66211 0.767012,1.22709 1.7552,2.38683 2.75781,3.52344 1.00261,1.13661 2.02132,2.23533 2.79297,3.1543 0.771653,0.918969 1.25447,1.81651 1.21094,1.67578 -0.043531,-0.140731 0.065269,0.872237 -0.052734,2.06641 -0.118004,1.19417 -0.339654,2.67744 -0.525391,4.18164 -0.185737,1.5042 -0.344965,3.01898 -0.285156,4.46484 0.059808,1.44586 0.15793,3.13381 1.83984,4.39258 1.68191,1.25873 3.3264,0.875668 4.73047,0.52539 1.40407,-0.350277 2.81427,-0.928941 4.20508,-1.53125 1.39081,-0.602309 2.75083,-1.23368 3.86328,-1.68359 1.11245,-0.449909 2.11409,-0.630726 1.9668,-0.632813 -0.147298,-0.0021 0.849963,0.206258 1.94922,0.6875 1.09925,0.481243 2.44127,1.1515 3.81445,1.79297 1.37318,0.641468 2.76463,1.26048 4.1582,1.65039 1.39357,0.389915 3.02919,0.818033 4.74609,-0.392578 1.32991,-1.1768 1.8249,-2.7391 1.96096,-4.3379 0.100746,-1.44359 -0.01516,-2.96184 -0.158203,-4.4707 -0.143048,-1.50886 -0.322126,-2.99829 -0.40625,-4.19531 -0.08412,-1.19703 0.05336,-2.20585 0.0059,-2.06641 -0.0475,0.139444 0.460432,-0.743887 1.25781,-1.64062 0.797381,-0.896738 1.8484,-1.96647 2.88281,-3.07422 1.03441,-1.10775 2.054,-2.24044 2.85547,-3.44531 0.801468,-1.20488 1.71261,-2.62585 1.0918,-4.63281 -0.620786,-2.00699 -2.17578,-2.66513 -3.51758,-3.20703 -1.3418,-0.541906 -2.82157,-0.900252 -4.30078,-1.23047 -1.47921,-0.330217 -2.95079,-0.620259 -4.11523,-0.910156 -1.16444,-0.289898 -2.08278,-0.732797 -1.96484,-0.644531 0.117933,0.08826 -0.565426,-0.667666 -1.17188,-1.70312 -0.606489,-1.03546 -1.29936,-2.36531 -2.03324,-3.69141 -0.733881,-1.3261 -1.49629,-2.64473 -2.39453,-3.7793 -0.898238,-1.13457 -1.96778,-2.4429 -4.06836,-2.47266 z "/>
<path d="m 36.8963,44.3379 c -2.27786,1.60615 -10.4035,-4.15596 -13.1904,-4.19544 -2.7869,-0.03948 -11.0725,5.49012 -13.304,3.82008 -2.23145,-1.67005 0.737693,-11.1786 -0.08594,-13.8413 -0.82365,-2.6627 -8.643,-8.83404 -7.74425,-11.4723 0.898753,-2.6383 10.8594,-2.75277 13.1373,-4.35893 2.27786,-1.60615 5.73083,-10.9498 8.51775,-10.9104 2.7869,0.039482 5.97377,9.47725 8.20523,11.1473 2.23145,1.67005 12.1849,2.06667 13.0085,4.72936 0.82365,2.6627 -7.16739,8.61004 -8.06616,11.2483 -0.898753,2.6383 1.79983,12.2271 -0.478041,13.8333 z"/>
</g>
<path style="fill-opacity:.51" d="m 36.8963,44.3379 c -2.27786,1.60615 -10.4035,-4.15596 -13.1904,-4.19544 -2.7869,-0.03948 -11.0725,5.49012 -13.304,3.82008 -2.23145,-1.67005 0.737693,-11.1786 -0.08594,-13.8413 -0.82365,-2.6627 -8.643,-8.83404 -7.74425,-11.4723 0.898753,-2.6383 10.8594,-2.75277 13.1373,-4.35893 2.27786,-1.60615 5.73083,-10.9498 8.51775,-10.9104 2.7869,0.039482 5.97377,9.47725 8.20523,11.1473 2.23145,1.67005 12.1849,2.06667 13.0085,4.72936 0.82365,2.6627 -7.16739,8.61004 -8.06616,11.2483 -0.898753,2.6383 1.79983,12.2271 -0.478041,13.8333 z"/>
</svg>
