<svg width="48" version="1.0" xmlns="http://www.w3.org/2000/svg" height="48">
<path style="opacity:.4" d="m 37.4983,45.3218 c -2.3274,1.64473 -10.6298,-4.25579 -13.4773,-4.29622 -2.84751,-0.04043 -11.3133,5.622 -13.5934,3.91185 -2.27998,-1.71017 0.753737,-11.4471 -0.08781,-14.1738 -0.841563,-2.72666 -8.83098,-9.04625 -7.91268,-11.7479 0.9183,-2.70168 11.0956,-2.8189 13.423,-4.46364 2.3274,-1.64473 5.85547,-11.2128 8.70301,-11.1725 2.84751,0.04043 6.10369,9.70491 8.38369,11.4151 2.27998,1.71017 12.4499,2.11632 13.2914,4.84297 0.841563,2.72666 -7.32328,8.81687 -8.24159,11.5185 -0.9183,2.70168 1.83897,12.5208 -0.488438,14.1656 z "/>
<path style="fill:#eec323" d="m 36.8963,44.3379 c -2.27786,1.60615 -10.4035,-4.15596 -13.1904,-4.19544 -2.7869,-0.039482 -11.0725,5.49012 -13.304,3.82008 -2.23145,-1.67005 0.737693,-11.1786 -0.08594,-13.8413 -0.82365,-2.6627 -8.643,-8.83404 -7.74425,-11.4723 0.898753,-2.6383 10.8594,-2.75277 13.1373,-4.35893 2.27786,-1.60615 5.73083,-10.9498 8.51775,-10.9104 2.7869,0.039482 5.97377,9.47725 8.20523,11.1473 2.23145,1.67005 12.1849,2.06667 13.0085,4.72936 0.82365,2.6627 -7.16739,8.61004 -8.06616,11.2483 -0.898753,2.6383 1.79983,12.2271 -0.478041,13.8333 z "/>
</svg>
