<svg width="48" version="1.1" xmlns="http://www.w3.org/2000/svg" height="48" viewBox="0 0 48 48">
<g style="stroke-width:.42">
<path style="opacity:.4" id="path866" d="m 3,24 c 0,11.5983 8.42985,22.4 21,22.4 12.5702,0 21,-10.8017 21,-22.4 Z "/>
<path style="fill:#ededed" id="path2" d="M 24,3 C 12.40212,3 3,12.4017 3,24 3,35.59788 12.40212,45 24,45 35.59788,45 45,35.59788 45,24 45,12.4017 35.59788,3 24,3 Z"/>
<path style="fill:#5e92ef" id="path8" d="m 24,6.3613 c -0.41286,0 -0.826934,0.010083 -1.24609,0.039063 -6.21584,0.426845 -11.5827,4.14626 -14.3633,9.41211 -0.034478,0.06529 -0.069837,0.129545 -0.103516,0.195312 -0.040407,0.0789 -0.085757,0.1548 -0.125,0.234376 l .0117,.0059 c -0.952269,1.93072 -1.57504,4.04781 -1.75586,6.28906 -0.25998,3.22056 0.361222,6.45489 1.66406,9.13281 0.32214,0.66276 1.15129,0.930819 1.80859,0.568359 l .0234,-.0137 c 0.591359,-0.3255 0.807379,-1.03641 0.517579,-1.63281 -1.02438,-2.10882 -1.63092,-4.67031 -1.53516,-7.18359 0.086151,-2.26426 0.690988,-4.40067 1.68359,-6.31055 2.46919,-4.7506 7.38428,-8.06535 13.0195,-8.21094 0.1344,-0.00336 0.266831,0 0.400391,0 z "/>
<path style="fill:#e2574c" id="path10" d="m 39.1137,23.995 c 0,2.29782 -0.60354,4.56666 -1.54812,6.5562 -0.28938,0.60984 -0.07224,1.33644 0.5187,1.66992 l .0227,.0126 c 0.65688,0.37044 1.48554,0.09828 1.8081,-0.58002 1.1046,-2.32386 1.72494,-4.97406 1.72494,-7.6587 0,-2.95764 -0.73206,-5.74224 -2.01894,-8.19 l -2.2369,1.1735 c 1.10208,2.09706 1.72956,4.48308 1.72956,7.01652 z "/>
<path style="fill:#f4b459" id="path14" d="m 24,6.36168 v 2.52588 c 5.95308,4.2e-4 11.10312,3.4377 13.56642,8.4399 l 2.26464,-1.11384 C 36.95532,10.37604 30.94764,6.36294 24,6.36168 Z"/>
<path style="opacity:.15;fill:#060606" id="path4" d="m 36.0417,14.3068 c 0.370088,-0.280211 0.907668,0.322685 0.552465,0.638822 l -15.8327,14.0914 -1.7989,-1.7989 Z "/>
<path style="fill:#324d5b" id="path16" d="m 35.1548,12.2459 c 0.418016,-0.387038 0.952496,0.218369 0.59934,0.59976 l -14.9927,16.1914 -1.7989,-1.7989 Z "/>
<path style="fill:#1e2d36" id="path18" d="m 24,21.8996 c -1.16004,0 -2.1,0.93996 -2.1,2.1 0,1.16004 0.93996,2.1 2.1,2.1 1.16004,0 2.1,-0.93996 2.1,-2.1 0,-1.16004 -0.93996,-2.1 -2.1,-2.1 z "/>
</g>
</svg>
