<svg width="48" version="1.1" xmlns="http://www.w3.org/2000/svg" height="48">
<g style="stroke:none;color:#000" id="g4" transform="matrix(1.043478,0,0,1.043478,-1.0434772,-1.0435659)">
<path style="fill:#00abc8" id="path42961" d="m 33.1712,1.2882 c -0.737359,1.33755 -1.43704,3.09079 -2.20877,4.41753 -0.28847,-0.0215 -0.570697,-0.0962 -0.864301,-0.0962 -1.02104,0 -2.0285,0.14966 -2.97704,0.38413 -0.937363,-1.17637 -1.93708,-2.76001 -2.881,-3.93738 -0.874583,0.32281 -1.69716,0.696 -2.49687,1.15241 0.294799,1.48313 0.85092,3.29141 1.1524,4.80167 -1.05407,0.76464 -1.92431,1.63488 -2.68894,2.68894 -1.51027,-0.30147 -3.31855,-0.8576 -4.80167,-1.15241 -0.456416,0.79971 -0.829615,1.62228 -1.1524,2.49687 1.17735,0.94393 2.76099,1.94366 3.93737,2.881 -0.234629,0.94854 -0.384134,1.95602 -0.384134,2.97704 0,0.29348 0.07578,0.57583 0.09603,0.8643 -1.32675,0.77175 -3.07998,1.47142 -4.41754,2.20876 0.157464,0.84436 0.394284,1.70169 0.672234,2.49687 1.5101,-0.0307 3.37882,-0.29071 4.8977,-0.28794 0.575048,1.20391 1.29232,2.31651 2.20877,3.26514 -0.528697,1.43767 -1.37711,3.09949 -1.92067,4.51357 0.654251,0.53993 1.38133,1.00252 2.11274,1.4405 1.1346,-0.98372 2.38293,-2.37078 3.55324,-3.36117 1.16176,0.53028 2.42349,0.81525 3.7453,0.96033 0.505647,1.46512 0.935083,3.34375 1.4405,4.80167 0.926654,-0.006 1.80328,-0.0433 2.68894,-0.19206 0.247535,-1.51475 0.339169,-3.43739 0.576201,-4.99374 1.26022,-0.35906 2.49331,-0.82045 3.55324,-1.53654 1.304,0.81271 2.76229,1.93263 4.03341,2.68893 0.68755,-0.58593 1.33473,-1.2331 1.92067,-1.92066 -0.75631,-1.27111 -1.87624,-2.72941 -2.68895,-4.0334 0.71609,-1.05993 1.17749,-2.293 1.53654,-3.55324 1.55635,-0.23693 3.47898,-0.32866 4.99374,-0.57619 0.14858,-0.88567 0.18688,-1.76229 0.19207,-2.68894 -1.45793,-0.50543 -3.33655,-0.93486 -4.80167,-1.44051 -0.14508,-1.32181 -0.43006,-2.58353 -0.96033,-3.74529 0.99039,-1.17032 2.37744,-2.41863 3.36116,-3.55324 C 44.1612,8.52755 43.69861,7.80046 43.15868,7.14622 41.7446,7.68978 40.08276,8.53819 38.6451,9.06688 37.69648,8.15043 36.58388,7.43318 35.37996,6.85812 35.37726,5.33922 35.637975,3.47052 35.66806,1.96041 34.872866,1.6826 34.01556,1.44564 33.17119,1.28818 Z m -3.0731,10.4676 c 3.39442,0 6.14614,2.75172 6.14614,6.14615 0,3.39441 -2.75172,6.14613 -6.14614,6.14613 -3.39442,0 -6.14614,-2.75172 -6.14614,-6.14613 0,-3.39443 2.75172,-6.14615 6.14614,-6.14615 z"/>
<path style="fill:#0082f0" id="path3757" d="M 9.5625,24.337 C 8.855266,24.48174 8.18379,24.75472 7.53125,25.0245 7.4799,26.94312 7.809809,29.4279 7.0625,30.087 6.328143,30.73471 3.86758,30.19482 1.96875,29.99325 1.564986,30.72 1.237366,31.49209 1,32.30575 c 1.46921,1.2165 3.51412,2.5876 3.5625,3.5625 0.04898,0.98704 -1.94114,2.4759 -3.28125,3.84375 0.317716,0.79233 0.77027,1.49541 1.25,2.1875 1.86942,-0.38847 4.20528,-1.13422 5,-0.5625 0.809162,0.5821 0.821144,3.09577 1.0625,5 0.766877,0.23048 1.58038,0.312 2.40625,0.375 0.864612,-1.70439 1.74227,-4.04683 2.6875,-4.3125 0.970327,-0.27257 2.94519,1.41328 4.59375,2.40625 0.67211,-0.46587 1.28807,-1.05949 1.84375,-1.65625 -0.780063,-1.75879 -2.23505,-3.94746 -1.84375,-4.875 0.391672,-0.92841 3.00831,-1.45547 4.8125,-2.125 0.01352,-0.22588 0.09375,-0.42696 0.09375,-0.65625 0,-0.58809 -0.101148,-1.18606 -0.1875,-1.75 -1.86258,-0.49421 -4.51509,-0.73397 -5,-1.625 C 17.518338,31.23316 18.742305,28.8525 19.34375,27.0245 18.725567,26.47571 18.04033,25.99138 17.3125,25.587 15.77322,26.7398 13.98928,28.63674 13,28.462 12.026185,28.28991 10.97347,25.9479 9.9375,24.337 c -0.123508,0.0215 -0.252907,-0.0246 -0.375,0 z m 2.0312,7.6875 c 1.933,0 3.5,1.567 3.5,3.5 0,1.933 -1.567,3.5 -3.5,3.5 -1.933,0 -3.5,-1.567 -3.5,-3.5 0,-1.933 1.567,-3.5 3.5,-3.5 z"/>
</g>
</svg>
