<svg xmlns:xlink="http://www.w3.org/1999/xlink" version="1.0" width="48" xmlns="http://www.w3.org/2000/svg" height="48">
<defs id="defs4"/>
<g style="stroke:none;fill-rule:evenodd" id="layer1" transform="translate(0,-80)">
<path style="fill:#00a200" id="path3008" d="m 7,82.5038 c -2.5274,0.255139 -4.5,2.40313 -4.5,5 v 33 c 0,2.77 2.23,5 5,5 h 33 c 2.77,0 5,-2.23 5,-5 v -33 c 0,-2.77 -2.23,-5 -5,-5 h -33 c -0.173125,0 -0.331506,-0.01701 -0.5,0 z "/>
<g style="fill:#fff">
<path id="path3006" d="m 16.0625,88.69128 c 0.936108,-0.02567 1.82217,0.512744 2.1875,1.375 0.36533,0.862264 0.169614,1.87659 -0.5,2.53125 l -2.9375,2.9375 10.09375,0 c 0.820589,-0.01161 1.586319,0.41621 2,1.125 0.413681,0.70878 0.413681,1.57248 0,2.28125 -0.413681,0.70878 -1.179413,1.16775 -2,1.15625 l -10.09375,0 2.9375,2.9375 c 0.594407,0.57071 0.801625,1.42137 0.59375,2.21875 -0.207876,0.79738 -0.827615,1.38587 -1.625,1.59375 -0.797382,0.20788 -1.61679,6.7e-4 -2.1875,-0.59375 l -6.75,-6.75 C 7.75292,99.47828 7.71456,99.43703 7.6875,99.41003 7.63601,99.36019 7.60848,99.30748 7.5625,99.25378 7.48817,99.16701 7.4346,99.06793 7.375,98.97253 6.994461,98.36374 6.878887,97.59564 7.15625,96.91003 c 0.168092,-0.41552 0.461427,-0.75327 0.8125,-1 l 0.03125,0 6.53125,-6.53125 c 0.412845,-0.422531 0.940739,-0.67109 1.53125,-0.6875 z"/>
<path id="path3049" d="m 31.875,101.035 c 0.600827,0.006 1.16572,0.2417 1.59375,0.6875 l 6.75,6.75 c 0.02833,0.0256 0.0667,0.0667 0.09375,0.0937 0.05149,0.0498 0.07902,0.10265 0.125,0.15625 0.07433,0.0868 0.1279,0.18585 0.1875,0.28125 0.380537,0.6088 0.496113,1.34563 0.21875,2.03125 -0.168094,0.41551 -0.461428,0.78452 -0.8125,1.03125 l -.0312,.0313 -6.5312,6.5 c -0.412846,0.42253 -0.97199,0.6711 -1.5625,0.6875 -0.936107,0.0257 -1.79092,-0.51275 -2.15625,-1.375 -0.36533,-0.86226 -0.169613,-1.87659 0.5,-2.53125 l 2.9375,-2.9375 h -10.0938 c -0.820588,0.0116 -1.58632,-0.41622 -2,-1.125 -0.413681,-0.70878 -0.41368,-1.57247 0,-2.28125 0.413681,-0.70878 1.17941,-1.1367 2,-1.125 h 10.0938 l -2.9375,-2.9688 c -0.594416,-0.57071 -0.801626,-1.42137 -0.59375,-2.21875 0.207875,-0.79738 0.796367,-1.41714 1.59375,-1.625 0.199346,-0.052 0.424726,-0.0645 0.625,-0.0625 z "/>
</g>
</g>
</svg>
