<svg width="96" version="1.0" xmlns="http://www.w3.org/2000/svg" height="96">
<defs id="defs2410">
<clipPath id="clipPath3613">
<rect width="84" x="6" y="6" rx="6" height="84" ry="6" style="fill:#fff;stroke:none" id="rect3615"/>
</clipPath>
</defs>
<rect width="84" x="6" y="6" rx="6" height="84" ry="0" style="fill:#d2d2d2;stroke:none" id="rect2419-8"/>
<g style="fill:#b3b3b3" id="g38">
<g style="fill-rule:evenodd" id="g40">
<path id="path4386" d="m 35.6664,21.9354 1.8406,.0108 1.2271,2.2205 -4.2948,-.0251 z "/>
<path id="path4388" d="m 35.6625,43.4777 1.8347,0 1.2232,-2.2063 -4.2811,0 z "/>
<path id="path4390" d="m 45.7078,26.8837 .9088,1.4815 -1.0561,1.7929 -2.1206,-3.4569 z "/>
<path id="path4392" d="m 26.5296,37.0525 .9223,1.4864 2.2828,.173 -2.1522,-3.4682 z "/>
<path id="path4394" d="m 46.6168,37.0352 -.906,1.4905 -2.2758,.1914 2.1142,-3.4777 z "/>
<path id="path4396" d="m 27.4874,26.8565 -.9193,1.4687 1.0356,1.7949 2.1451,-3.4269 z "/>
</g>
<path id="path4398" d="m 36.5735,24.1291 c -2.39871,0.000133 -4.78153,0.92436 -6.47639,2.51105 -1.69487,1.58669 -2.68169,3.81629 -2.68169,6.06 0,2.24374 0.986818,4.47332 2.68169,6.06002 1.69486,1.5867 4.07768,2.51094 6.47639,2.51103 2.3986,0.00017 4.7829,-0.923224 6.47992,-2.50992 1.69702,-1.58662 2.68522,-3.81713 2.68522,-6.06112 0,-2.24396 -0.988194,-4.47441 -2.68522,-6.06112 -1.69702,-1.58669 -4.08132,-2.51007 -6.47992,-2.50993 z  m .0009,3.4284 c 1.43922,-8.5e-05 2.86947,0.554612 3.88774,1.50663 1.01818,0.952021 1.6116,2.28964 1.6116,3.63599 0,1.34636 -0.593424,2.68399 -1.6116,3.63603 -1.01827,0.952037 -2.44852,1.5067 -3.88774,1.50662 -1.43921,-8.5e-05 -2.86963,-0.554579 -3.88655,-1.50662 -1.01692,-0.952038 -1.60805,-2.28975 -1.60805,-3.63603 0,-1.34622 0.591131,-2.68398 1.60805,-3.63599 1.01692,-0.952012 2.44734,-1.50656 3.88655,-1.50663 z "/>
</g>
<g style="font-family:Sans;text-align:start;fill-rule:evenodd;stroke:none;line-height:normal;text-indent:0;color:#000;text-transform:none" id="g49">
<path style="opacity:.3;fill:#1e1e1e" id="path4233" d="m 39.7219,16.5763 c -5.85895,-0.0285 -11.6983,2.37646 -15.9466,6.52023 -4.24837,4.14377 -6.80315,9.93914 -6.96733,15.8348 -0.164179,5.8957 2.07848,11.7466 6.11039,15.9466 l .0745,.0372 c 4.02878,4.16409 9.70518,6.60364 15.5367,6.63201 3.24323,0.01577 6.46172,-0.766018 9.42638,-2.12373 0.114116,-0.01509 0.219027,-0.02462 0.335326,-0.03725 2.52282,-0.274159 5.51384,0.02761 8.01057,2.08647 -0.402999,0.600305 -0.366347,1.47509 0.149033,2.01195 l 23.3983,24.367 c 0.589006,0.613559 1.58945,0.631054 2.19825,0.03725 l 4.0984,-3.9866 c 0.608797,-0.593798 0.626263,-1.62195 0.03725,-2.2355 l -23.3983,-24.367 c -0.528657,-0.550695 -1.40013,-0.607131 -2.01195,-0.186292 -1.95163,-2.59973 -2.17414,-5.59833 -1.82567,-8.12234 0.01124,-0.08131 0.0251,-0.144041 0.03725,-0.22355 1.48801,-2.98267 2.36648,-6.25075 2.45906,-9.57542 0.163695,-5.87813 -2.06396,-11.7121 -6.07312,-15.9094 l -.0372,-.0372 c -4.0319,-4.20005 -9.75234,-6.64078 -15.6113,-6.66926 Z  m 0,2.3845 c 5.19949,0.02529 10.3292,2.24437 13.8974,5.96135 3.56819,3.71699 5.58584,8.94856 5.43973,14.1955 v 0.03725 c -0.155886,5.23462 -2.47776,10.4697 -6.25942,14.1583 -3.79055,3.69722 -9.0705,5.87486 -14.27,5.84958 -5.19949,-0.02529 -10.3292,-2.24437 -13.8974,-5.96135 -3.56819,-3.71699 -5.58584,-8.94856 -5.43973,-14.1955 v -0.03724 c 0.155861,-5.23465 2.47775,-10.4696 6.25942,-14.1583 3.79055,-3.69722 9.0705,-5.87486 14.27,-5.84958 z "/>
<path style="fill:#464646" id="path4249" d="m 58.7196,41.9232 c 0,0 -0.314189,0.642441 -0.695151,1.64641 -1.03805,2.67945 -1.93719,4.79172 -5.48804,7.97595 -3.28973,2.95007 -7.01369,4.21439 -8.81745,4.7563 -0.03809,0.01065 -0.109387,0.02597 -0.146348,0.03659 -0.42135,0.124125 -1.42689,0.512216 -1.42689,0.512216 -0.0057,0.0025 -0.109761,0.03659 -0.109761,0.03659 l .3659,1.0976 c 0,0 0.107068,-0.03594 0.109761,-0.03659 0,0 0.54207,-0.225031 1.42689,-0.47563 0.01,-0.0029 0.0265,0.0029 0.03659,0 2.51654,-0.708591 7.76376,-1.58963 11.6346,1.71959 -0.419584,0.56273 -0.396698,1.37733 0.109761,1.90252 l 23.1595,24.001 c 0.578806,0.600212 1.57446,0.666417 2.19522,0.10976 l 4.0977,-3.6952 c 0.620758,-0.556655 0.651975,-1.52183 0.07317,-2.12204 l -23.1595,-24.001 c -0.5187,-0.537883 -1.32688,-0.608544 -1.93911,-0.219521 -2.07687,-2.59047 -2.28779,-5.54655 -1.90252,-8.01254 0.207806,-1.3301 0.592427,-2.46105 0.914673,-3.29282 0.3289,-0.848939 0.585391,-1.3903 0.585391,-1.3903 0.01077,-0.02716 0.02577,-0.04588 0.03659,-0.07317 l -1.061,-.4756 z "/>
</g>
<path style="fill:none;stroke:#464646;stroke-width:4.792" id="path2420" d="m 60.236,37.8446 a 20.8579,21.6471 85 0,1 -43.2478,-1.3983 20.8579,21.6471 85 1,1 43.2478,1.3983 Z "/>
<g style="stroke:none;fill-rule:evenodd;fill:#fff">
<path style="opacity:.8" id="path3874" d="m 28.2181,53.5612 c 9.36721,5.55197 21.626,2.69855 27.3615,-6.36955 5.73556,-9.06811 2.78729,-20.9347 -6.57992,-26.4867 -9.36722,-5.55197 -21.626,-2.69855 -27.3615,6.36955 -5.73557,9.0681 -2.78729,20.9347 6.57992,26.4867 z  m .5507,-.4863 c -1.35269,-0.793511 -2.63612,-1.76581 -3.79302,-2.91118 -7.40412,-7.33039 -7.27076,-19.0905 0.301735,-26.2579 7.5725,-7.16741 19.7211,-7.0383 27.1252,0.292088 5.4428,5.3886 6.98287,13.4423 3.89294,20.3597 l -11.1968,-4.6899 c -0.129833,0.288398 -0.272894,0.571189 -0.447384,0.847063 -0.308556,0.487835 -0.685222,0.917298 -1.08827,1.30138 l 8.5377,8.4398 c -6.38929,6.0475 -16.0276,6.90405 -23.3322,2.6191 z "/>
<path style="opacity:.8" id="path3099" d="m 50.5467,21.7922 c -8.7834,-6.43591 -21.2614,-4.78716 -27.8509,3.68071 -6.58957,8.46788 -4.80833,20.5649 3.97507,27.0008 8.78341,6.43591 21.2614,4.78716 27.8509,-3.68071 6.58957,-8.46786 4.80833,-20.5649 -3.97508,-27.0008 z  m -.5953,.4306 c 1.26919,0.921197 2.45206,2.0136 3.49218,3.26598 6.65679,8.01516 5.38133,19.7067 -2.85179,26.1044 -8.23311,6.39767 -20.3117,5.08871 -26.9685,-2.92645 -4.89343,-5.89198 -5.64363,-14.0572 -1.89617,-20.6416 l 10.6881,5.7558 c 0.157271,-0.274399 0.327103,-0.54197 0.527574,-0.799583 0.354501,-0.455542 0.771113,-0.846374 1.20957,-1.18948 l -7.6773,-9.2295 c 6.94669,-5.39804 16.6226,-5.31398 23.4763,-0.339528 z "/>
<path style="opacity:.7" id="path3869" d="M 44.5681,18.6305 C 34.1112,15.59353 22.9534,21.41773 19.6639,31.6309 16.37446,41.844 22.1926,52.5984 32.6495,55.6354 43.1064,58.67237 54.2642,52.84817 57.5537,42.635 60.84314,32.4219 55.025,21.6675 44.5681,18.6305 Z m -0.4118,0.6085 c 1.50799,0.430584 2.99355,1.0516 4.39981,1.8718 9.00005,5.24926 11.8076,16.6702 6.26479,25.5015 -5.54279,8.83129 -17.3388,11.7399 -26.3388,6.49068 -6.61598,-3.85876 -10.1184,-11.2727 -8.85369,-18.7426 l 12.0132,1.7454 c 0.0537,-0.311682 0.121621,-0.621238 0.221667,-0.93195 0.176963,-0.54943 0.434453,-1.05935 0.728818,-1.53191 l -10.3748,-6.0404 c 4.67673,-7.4514 13.7959,-10.6877 21.939,-8.36248 z"/>
</g>
<g id="g4254">
<g style="fill:#969696">
<path id="path4062" d="m 16.4091,11.4578 c -1.16866,6.5e-5 -2.32959,0.45354 -3.15533,1.23206 -0.825749,0.778516 -1.30653,1.87248 -1.30653,2.97336 0,1.1009 0.480783,2.19485 1.30653,2.97337 0.825744,0.77852 1.98667,1.232 3.15533,1.23204 1.16861,8.3e-5 2.33026,-0.452983 3.15705,-1.2315 0.826799,-0.778478 1.30825,-1.87289 1.30825,-2.97391 0,-1.10101 -0.481453,-2.19538 -1.30825,-2.97391 -0.826799,-0.778516 -1.98844,-1.23157 -3.15705,-1.23151 z m 4e-4,1.6822 c 0.701195,-4.1e-5 1.39802,0.272122 1.89413,0.739234 0.496061,0.467112 0.785181,1.12342 0.785181,1.78401 0,0.660596 -0.28912,1.31691 -0.785181,1.78403 -0.496106,0.467121 -1.19293,0.739268 -1.89413,0.739226 -0.70119,-4.1e-5 -1.3981,-0.272105 -1.89355,-0.739226 -0.495448,-0.46712 -0.783451,-1.12347 -0.783451,-1.78403 0,-0.660526 0.288003,-1.3169 0.783451,-1.78401 0.495449,-0.467107 1.19236,-0.739196 1.89355,-0.739234 z"/>
<g style="fill-rule:evenodd" id="g11">
<path id="path4104" d="m 10.1594,6.8531 .4817,.0028 .3211,.5812 -1.124,-.0066 z "/>
<path id="path4106" d="m 10.1584,12.4911 .4802,0 .3201,-.5774 -1.1204,0 z "/>
<path id="path4108" d="m 12.7875,8.1481 .2379,.3877 -.2764,.4692 -.555,-.9047 Z "/>
<path id="path4110" d="m 7.7682,10.8095 .2414,.389 .5975,.0453 -.5633,-.9077 z "/>
<path id="path4112" d="m 13.0254,10.805 -.2371,.3901 -.5956,.0501 .5533,-.9102 z "/>
<path id="path4114" d="m 8.0188,8.141 -.2406,.3844 .271,.4698 .5614,-.8969 Z "/>
</g>
<path id="path4116" d="M 10.3968,7.4272 C 9.769013,7.4272348 9.14538,7.669122 8.70181,8.084389 8.258232,8.499656 7.999963,9.083185 7.999963,9.670409 c 0,0.587228 0.258269,1.17075 0.701847,1.58602 0.443577,0.41527 1.06721,0.657161 1.69499,0.657183 0.62776,4.5e-5 1.25177,-0.241625 1.69592,-0.656894 0.444143,-0.415248 0.702772,-0.999016 0.702772,-1.58631 0,-0.587286 -0.258629,-1.17104 -0.702772,-1.58631 C 11.648577,7.668831 11.02456,7.427166 10.3968,7.427201 Z m 2e-4,0.8973 c 0.37667,-2.22e-5 0.750993,0.145153 1.01749,0.394314 0.266477,0.249162 0.421787,0.599241 0.421787,0.951607 0,0.352367 -0.15531,0.702451 -0.421787,0.951617 -0.2665,0.249166 -0.640823,0.394332 -1.01749,0.39431 -0.376668,-2.2e-5 -0.751037,-0.145144 -1.01718,-0.39431 C 9.113674,10.372872 8.958963,10.022766 8.958963,9.670421 8.958963,9.318091 9.113674,8.967974 9.37982,8.718814 9.645967,8.469655 10.020336,8.32452 10.397,8.3245 Z"/>
<g style="fill-rule:evenodd" id="g20">
<path id="path4246" d="m 10.9175,20.0894 .4817,.0028 .3211,.5812 -1.124,-.0066 z "/>
<path id="path4248" d="m 10.9165,25.7275 .4802,0 .3201,-.5774 -1.1204,0 z "/>
<path id="path4250" d="m 13.5456,21.3845 .2379,.3877 -.2764,.4692 -.555,-.9047 z "/>
<path id="path4252" d="m 8.5263,24.0459 .2414,.389 .5975,.0453 -.5633,-.9077 z "/>
<path id="path4254" d="m 13.7835,24.0413 -.2371,.3901 -.5956,.0501 .5533,-.9102 z "/>
<path id="path4256" d="m 8.777,21.3774 -.2406,.3844 .271,.4698 .5614,-.8969 z "/>
</g>
<path id="path4258" d="m 11.155,20.6636 c -0.627786,3.4e-5 -1.25142,0.241922 -1.69499,0.657189 -0.443579,0.415268 -0.701847,0.998796 -0.701847,1.58602 0,0.587228 0.258269,1.17075 0.701847,1.58602 0.443576,0.415269 1.06721,0.657161 1.69499,0.657183 0.62776,4.4e-5 1.25178,-0.241625 1.69592,-0.656895 0.444143,-0.415247 0.702772,-0.999015 0.702772,-1.58631 0,-0.587286 -0.258629,-1.17104 -0.702772,-1.58631 C 12.406777,20.90523 11.78276,20.663566 11.155,20.663601 Z m 2e-4,0.8973 c 0.376671,-2.2e-5 0.750994,0.145152 1.01749,0.394314 0.266476,0.249162 0.421786,0.599241 0.421786,0.951607 0,0.352368 -0.15531,0.702451 -0.421786,0.951617 -0.2665,0.249167 -0.640823,0.394332 -1.01749,0.39431 -0.376668,-2.2e-5 -0.751036,-0.145143 -1.01718,-0.39431 -0.266147,-0.249166 -0.420857,-0.599271 -0.420857,-0.951617 0,-0.352331 0.15471,-0.702447 0.420857,-0.951607 0.266147,-0.249159 0.640515,-0.394294 1.01718,-0.394314 z"/>
<g style="fill-rule:evenodd" id="g29">
<path id="path4316" d="m 12.2673,25.6275 .3361,.002 .2241,.4055 -.7843,-.0046 z "/>
<path id="path4318" d="m 12.2666,29.5615 .3351,0 .2234,-.4029 -.7818,0 z "/>
<path id="path4320" d="m 14.101,26.5312 .166,.2706 -.1929,.3274 -.3873,-.6313 z "/>
<path id="path4322" d="m 10.5988,28.3882 .1684,.2714 .4169,.0316 -.393,-.6334 z "/>
<path id="path4324" d="m 14.267,28.385 -.1655,.2722 -.4156,.035 .3861,-.6351 z "/>
<path id="path4326" d="m 10.7737,26.5262 -.1679,.2682 .1891,.3278 .3917,-.6258 z "/>
</g>
<path id="path4328" d="m 12.433,26.0281 c -0.438045,2.4e-5 -0.873191,0.168804 -1.1827,0.458561 -0.309512,0.289758 -0.489722,0.696922 -0.489722,1.10666 0,0.409745 0.18021,0.816905 0.489722,1.10666 0.30951,0.289759 0.744656,0.458541 1.1827,0.458556 0.438027,3.1e-5 0.87344,-0.168596 1.18335,-0.458355 0.309906,-0.289744 0.490367,-0.697075 0.490367,-1.10687 0,-0.409786 -0.180461,-0.817104 -0.490367,-1.10686 C 13.306444,26.196694 12.871031,26.02807 12.433,26.028095 Z m 2e-4,0.6261 c 0.262826,-1.5e-5 0.524015,0.101282 0.709968,0.275137 0.185937,0.173856 0.294306,0.418127 0.294306,0.663995 0,0.245868 -0.108369,0.490143 -0.294306,0.664002 -0.185953,0.173858 -0.447142,0.275149 -0.709968,0.275134 -0.262824,-1.6e-5 -0.524044,-0.101276 -0.709751,-0.275134 -0.185707,-0.173859 -0.293658,-0.418149 -0.293658,-0.664002 0,-0.245843 0.107951,-0.490141 0.293658,-0.663995 0.185707,-0.173854 0.446927,-0.275123 0.709751,-0.275137 z"/>
<g id="g4220">
<g style="fill-rule:evenodd">
<path id="path5188" d="m 22.9872,7.025 .4817,.0028 .3211,.5812 -1.124,-.0066 Z "/>
<path id="path5190" d="m 22.9862,12.663 .4802,0 .3201,-.5774 -1.1204,0 z "/>
<path id="path5192" d="m 25.6153,8.32 .2379,.3877 -.2764,.4692 -.555,-.9047 z "/>
<path id="path5194" d="m 20.596,10.9814 .2414,.389 .5975,.0453 -.5633,-.9077 z "/>
<path id="path5196" d="m 25.8532,10.9769 -.2371,.3901 -.5956,.0501 .5533,-.9102 z "/>
<path id="path5198" d="m 20.8466,8.3129 -.2406,.3844 .271,.4698 .5614,-.8969 Z "/>
</g>
<path id="path5200" d="m 23.2246,7.5991 c -0.627787,3.48e-5 -1.25142,0.241922 -1.69499,0.657189 -0.443578,0.415267 -0.701847,0.998796 -0.701847,1.58602 0,0.587228 0.258269,1.17075 0.701847,1.58602 0.443577,0.41527 1.06721,0.657161 1.69499,0.657183 0.62776,4.5e-5 1.25177,-0.241625 1.69592,-0.656894 0.444143,-0.415248 0.702772,-0.999016 0.702772,-1.58631 0,-0.587286 -0.258629,-1.17104 -0.702772,-1.58631 C 24.476377,7.840731 23.85236,7.599066 23.2246,7.599101 Z m 2e-4,0.8973 c 0.37667,-2.22e-5 0.750993,0.145153 1.01749,0.394314 0.266477,0.249162 0.421787,0.599241 0.421787,0.951607 0,0.352367 -0.15531,0.702451 -0.421787,0.951617 -0.2665,0.249166 -0.640823,0.394332 -1.01749,0.39431 -0.376668,-2.2e-5 -0.751037,-0.145144 -1.01718,-0.39431 -0.266146,-0.249166 -0.420857,-0.599272 -0.420857,-0.951617 0,-0.35233 0.154711,-0.702447 0.420857,-0.951607 C 22.473767,8.641555 22.848136,8.49642 23.2248,8.4964 Z"/>
</g>
</g>
</g>
</svg>
