<svg width="48" version="1.0" xmlns="http://www.w3.org/2000/svg" height="48">
<path style="fill:#0099c4" d="m 7.5,2.5 h 33 c 2.77,0 5,2.23 5,5 v 33 c 0,2.77 -2.23,5 -5,5 h -33 c -2.77,0 -5,-2.23 -5,-5 v -33 c 0,-2.77 2.23,-5 5,-5 z"/>
<path style="fill:#fff;fill-rule:evenodd" d="m 41,23.9716 c 0.0097,0.834256 -0.315154,1.62996 -0.90625,2.21875 -0.591107,0.588787 -1.38454,0.91928 -2.21875,0.90625 h -20.3125 l 7.9062,7.9062 c 1.2066,1.21001 1.21001,3.16839 0,4.375 -1.21,1.20663 -3.19964,1.21001 -4.40625,0 l -13.1562,-13.1875 c -1.20611,-1.20681 -1.20611,-3.13694 0,-4.34375 l 13.1875,-13.1875 c 0.87701,-0.900713 2.2102,-1.1917 3.375,-0.71875 1.16481,0.472949 1.93663,1.61784 1.9375,2.875 0,0.834515 -0.33936,1.63682 -0.9375,2.21875 l -7.9062,7.875 h 20.3125 c 0.821405,-0.01283 1.59858,0.302244 2.1875,0.875 0.588919,0.572757 0.92735,1.36605 0.9375,2.1875 z "/>
</svg>
