<svg width="48" version="1.1" xmlns="http://www.w3.org/2000/svg" height="48">
<defs id="defs15">
<clipPath id="clipPath3613">
<rect width="84" x="6" y="6" rx="6" ry="6" height="84" style="fill:#fff;stroke:none" id="rect3615"/>
</clipPath>
</defs>
<g style="color:#000;text-rendering:auto;text-decoration-color:#000000;stroke:none;line-height:normal;fill-rule:evenodd;color-interpolation:sRGB;text-transform:none;text-indent:0;stroke-width:3.5;color-rendering:auto;solid-color:#000000;isolation:auto;font-family:sans-serif;mix-blend-mode:normal;text-align:start;shape-rendering:auto;white-space:normal;text-decoration-style:solid;solid-opacity:1;image-rendering:auto;text-decoration-line:none">
<path style="color-interpolation-filters:linearRGB;fill:#8c8c8c" id="path4147" d="m 32.9549,34.2773 -18.8554,-.0293 c -2.87145,-0.0011 -5.17894,-2.39353 -5.20312,-5.24023 v -0.0078 -10.0254 h -6.62105 c -1.30163,0 -2.27539,-1.1252 -2.27539,-2.30665 v -10.3613 c 0,-1.18144 0.973769,-2.30665 2.27539,-2.30664 h 43.418 c 1.30161,-4.44089e-16 2.30664,1.00473 2.30664,2.30664 v 10.3613 c 0,1.30201 -0.999369,2.32461 -2.33008,2.30664 h -7.55484 v 10.0195 c 0,3.06027 -2.46017,5.28696 -5.16016,5.2832 z "/>
<path style="color-interpolation-filters:linearRGB;fill:#fff" id="path4160" d="m 33.459,31.7776 c 1.11859,0.0014 2.14754,-1.70863 2.15613,-2.78344 v -12.5192 h 9.88438 v -9.975 h -42.9993 v 9.975 h 8.89624 v 12.5036 c 0,1.18864 1.03864,2.76805 2.20554,2.76977 z "/>
</g>
<g id="layer1-3" transform="matrix(0.59090909,0,0,-0.59090909,20.818187,58.63636)">
<path style="fill:#9d1100;stroke:none;stroke-width:1.3" id="path11066" d="m 287.8571,428.7907 a 125,125 0 1 1 -250,0 125,125 0 1 1 250,0 z" transform="matrix(0.176,0,0,0.176,-4.6628579,-35.46717)"/>
<g style="fill:none;stroke:#fff;stroke-linecap:round;stroke-width:6.163;stroke-miterlimit:0" id="g4150">
<path id="path3341" d="M 31.3587,47.3587 16.6413,32.6413"/>
<path id="path3803" d="M 16.6413,47.3587 31.3587,32.6413"/>
</g>
</g>
</svg>
