<svg width="128" version="1.0" xmlns="http://www.w3.org/2000/svg" height="128">
<g style="stroke:none" id="g4">
<path style="fill:#8c8c8c" id="path4161" d="m 0,8 0,104.9063 128,0 L 128,8 Z"/>
<g style="fill:#fff" id="g7">
<path id="path4159" d="M 7.5938,15.7188 40,15.7188 40,40.5 7.5938,40.5 Z"/>
<path id="path4157" d="m 48,15.7188 32,0 0,24.7812 -32,0 z"/>
<path id="path4155" d="m 88,15.7188 32,0 0,24.7812 -32,0 z"/>
<path id="path4153" d="M 7.5938,48 40,48 l 0,25.00005 -32.4062,0 z"/>
<path id="path4151" d="m 48,48 32,0 0,25 -32,0 z"/>
<path id="path4149" d="m 88,48 32,0 0,25 -32,0 z"/>
<path id="path4147" d="m 7.5938,80.5 32.4062,0 0,25.2188 -32.4062,0 z"/>
<path id="path4145" d="m 48,80.5 32,0 0,25.2188 -32,0 z"/>
<path id="rect6427" d="m 88,80.5 32,0 0,25.2188 -32,0 z"/>
</g>
</g>
</svg>
