<svg width="48" version="1.0" xmlns="http://www.w3.org/2000/svg" height="48">
<path style="fill:#fff" d="m 15.8996,41.9192 -9.6935,-23.9268 17.9293,-8.0721 10.9316,24.2819 -19.1674,7.7168 Z "/>
<path style="fill:#666" d="m 9.1234,7.7859 c 0,0 -5.7446,9.68467 -5.80654,9.84086 -0.550591,0.933274 -0.680885,2.01531 -0.247209,2.97861 l 10.0011,22.2356 c 0.776043,1.7238 3.04461,2.37468 5.08112,1.4578 l 17.4112,-7.8389 c 2.03651,-0.916885 3.05318,-3.0468 2.27714,-4.77059 l -10.0164,-22.2288 c -0.460781,-1.02351 -1.49704,-1.54631 -2.57885,-1.85392 l -10.9206,-2.1545 c -1.98878,-0.57058 -4.30973,0.466575 -5.20103,2.33379 Z  m 4.9157,-1.3777 c 1.03149,0.295937 1.77995,2.43003 1.31768,3.39848 -0.462272,0.968456 -2.99078,2.0219 -4.02227,1.72596 -0.967017,-0.277428 -1.24568,-2.48051 -0.806758,-3.51408 0.438924,-1.03357 2.47987,-1.9063 3.51135,-1.61036 Z  m -6.036,13.4329 c 0.303308,-0.635431 0.870024,-1.19982 1.62102,-1.53794 l 12.211,-5.4977 c 1.50199,-0.676239 3.16995,-0.197685 3.74231,1.07368 l 7.5157,16.6943 c 0.572355,1.27137 -0.179862,2.84729 -1.68188,3.52351 l -12.2063,5.4879 c -1.50204,0.676126 -3.17,0.197585 -3.74236,-1.07378 l -7.5203,-16.6845 c -0.286473,-0.635557 -0.24246,-1.35013 0.0608505,-1.98557 Z "/>
<path style="fill:#fff" d="m 27.412,38.7111 -17.5448,-18.9376 13.9042,-13.9029 18.8285,18.8309 -15.1878,14.0096 Z "/>
<path style="fill:#8c8c8c" d="m 8.9773,9.1956 c 0,0 -1.93898,11.0921 -1.94154,11.2601 -0.184053,1.06784 0.077633,2.12581 0.82459,2.87286 l 17.2331,17.2472 c 1.33665,1.33682 3.68864,1.14137 5.26795,-0.437812 l 13.5023,-13.5012 c 1.57931,-1.57918 1.77505,-3.93117 0.438398,-5.26799 l -17.2449,-17.2354 c -0.793641,-0.793737 -1.94793,-0.915307 -3.06853,-0.819503 l -10.9752,1.856 c -2.0619,0.171373 -3.86456,1.96384 -4.03617,4.02574 Z  m 1.8179,-.0642 c 0.04983,-1.26828 1.04245,-2.20314 2.11185,-2.29201 1.06942,-0.088881 1.85248,0.69429 1.76348,1.76371 -0.089,1.06943 -1.01605,2.01643 -2.08546,2.10531 -1.00257,0.08333 -1.82821,-0.601202 -1.78987,-1.577 z  m 1.4073,11.7338 c 0.05839,-0.701683 0.388271,-1.4303 0.970668,-2.01266 l 9.4696,-9.4688 c 1.16479,-1.16471 2.89408,-1.30842 3.87991,-0.322461 l 12.945,12.9466 c 0.985825,0.985962 0.841017,2.72619 -0.323804,3.89088 l -9.4687,9.4581 c -1.16488,1.16462 -2.89416,1.30834 -3.88,0.322388 l -12.9458,-12.9357 c -0.493144,-0.492758 -0.705265,-1.17654 -0.646871,-1.87823 Z "/>
<path style="fill:#ffa600" d="m 22.0512,15.5318 10.9701,10.9718 2.6761,-2.6759 -10.9701,-10.9718 Z "/>
</svg>
