<svg width="128" version="1.0" xmlns="http://www.w3.org/2000/svg" height="128">
<path style="fill:#d6dfe2" d="m 8,1 h 112 c 4.432,0 8,3.568 8,8 v 42 c 0,4.432 -3.568,8 -8,8 H 8 C 3.568,59 0,55.432 0,51 V 9 C 0,4.568 3.568,1 8,1 Z"/>
<path style="fill:#429cd6" d="m 92.6279,62 a 3.13828,3.13828 0 0,0 -2.24009,0.946906 c 0,0 -24.5688,25.2029 -34.1653,35.0463 -7.13257,-7.31486 -18.6118,-19.0883 -18.6118,-19.0883 a 3.13828,3.13828 0 0,0 -4.49398,0 l -10.226,10.491 a 3.13828,3.13828 0 0,0 0,4.38059 l 31.0855,31.8838 a 3.13828,3.13828 0 0,0 4.49398,0 l 46.639,-47.8433 a 3.13828,3.13828 0 0,0 0,-4.38059 l -10.2275,-10.4895 a 3.13828,3.13828 0 0,0 -2.25388,-0.946906 Z "/>
<g style="fill:#000">
<path d="m 32.1759,42.5801 h -12.617 l -1.7361,6.7001 h -11.3211 l 13.4728,-40.588 h 12.079 l 13.4728,40.588 h -11.59 l -1.7605,-6.7001 Z  m -2.3228,-8.7765 -3.9612,-14.5907 -3.9367,14.5907 Z "/>
<path d="m 49.0719,8.6922 h 20.7349 q 5.18372,0 7.94674,2.90705 2.78748,2.90705 2.78748,7.19841 0,3.5992 -1.98058,6.17402 -1.32038,1.71654 -3.86333,2.71325 3.86333,1.05207 5.67275,3.62689 1.83386,2.54713 1.83386,6.4232 0,3.15623 -1.29593,5.67567 -1.29593,2.51944 -3.54547,3.98681 -1.39374,0.913643 -4.20566,1.32894 -3.74108,0.553725 -4.96365,0.553725 h -19.1211 v -40.588 Z  m 11.1743,15.9196 h 4.81696 q 2.59186,0 3.59437,-0.996702 1.02696,-1.02439 1.02696,-2.93473 0,-1.77192 -1.02696,-2.76862 -1.00251,-0.996702 -3.52102,-0.996702 h -4.8903 v 7.69676 z  m 0,15.9472 h 5.64834 q 2.86083,0 4.0345,-1.13513 1.17367,-1.16282 1.17367,-3.10085 0,-1.79961 -1.17367,-2.87936 -1.14922,-1.10745 -4.05895,-1.10745 h -5.62384 v 8.2228 z "/>
<path d="m 111.839,32.6961 9.7073,3.3223 q -0.97806,4.62359 -3.0809,7.72444 -2.10282,3.10085 -5.23262,4.67897 -3.10533,1.57811 -7.92228,1.57811 -5.84391,0 -9.56054,-1.91035 -3.69218,-1.93803 -6.38185,-6.78312 -2.68966,-4.84508 -2.68966,-12.4034 0,-10.0778 4.71914,-15.4766 4.7436,-5.42649 13.3994,-5.42649 6.77307,0 10.6364,3.10085 3.8878,3.10085 5.77056,9.52405 l -9.7806,2.464 q -0.51348,-1.85497 -1.07587,-2.71325 -0.92915,-1.43968 -2.27398,-2.21489 -1.34484,-0.775214 -3.00755,-0.775214 -3.76552,0 -5.77055,3.43309 -1.51599,2.54713 -1.51599,8.00131 0,6.75543 1.80942,9.27487 1.80942,2.49176 5.08591,2.49176 3.1787,0 4.79249,-2.0211 1.63826,-2.02109 2.3718,-5.86947 z "/>
</g>
</svg>
