<svg width="48" version="1.0" xmlns="http://www.w3.org/2000/svg" height="48">
<g id="layer2" transform="matrix(0.93028103,0,0,0.93028103,-5.8267487,-2.5315352)">
<path style="fill:#c0941c;stroke:none" id="path3591" d="m 6.276,29.1372 c 0.133128,-1.18997 1.25357,-2.18592 2.45095,-2.17862 l 5.41365,0 -3e-4,-10.2547 c -1.12e-4,-3.77175 1.46555,-7.08372 3.81258,-8.92629 3.42022,-2.68509 8.22309,-1.99532 11.2757,-2.10225 1.58404,-0.055487 12.508,0 12.508,0 l 0,8.508 c 0,0 -8.05835,0.0091 -11.7636,0 -2.82886,-0.007 -7.32059,-0.901246 -7.32468,4.43412 l 3e-4,8.3411 6.38187,0 c 0.94917,-0.0058 1.88626,0.583987 2.26939,1.45241 0.383131,0.868436 0.190493,1.9658 -0.45388,2.66276 l -10.651,10.533 c -0.942331,1.02707 -2.80081,0.981347 -3.69155,-0.09078 l -9.6525,-10.533 C 6.420494,30.479437 6.207629,29.79606 6.276017,29.13718 Z"/>
</g>
<g id="layer2-8" transform="matrix(0.93028061,0,0,-0.93028061,9.1732322,50.531504)">
<g style="fill:#c0941c" id="g3905" transform="matrix(0,1.0868712,-1.0868712,0,45.693237,-1.8165599)">
<path style="stroke:none" id="path3591-2" d="m 28.4797,3.652 c -1.09486,0.122487 -2.0112,1.15338 -2.00449,2.25505 l 0,4.98095 -9.4351,-3e-4 c -3.47028,-1.03e-4 -6.51753,1.34841 -8.21283,3.50785 -2.47048,3.14685 -1.83584,7.56584 -1.93422,10.3745 -0.051052,1.45743 0,11.5082 0,11.5082 l 7.82797,0 c 0,0 0.0084,-7.41426 0,-10.8233 -0.0064,-2.60276 -0.829211,-6.73547 4.07971,-6.73923 l 7.6744,2e-4 0,5.87178 c -0.0053,0.873305 0.53731,1.7355 1.33632,2.08801 0.799024,0.352508 1.80868,0.175267 2.44993,-0.417602 l 9.6911,-9.7997 c 0.944978,-0.867012 0.90291,-2.57695 -0.08352,-3.39649 l -9.6911,-8.881 C 29.714602,3.784886 29.08584,3.589035 28.47962,3.651956 Z"/>
</g>
</g>
</svg>
