<svg width="48" version="1.1" xmlns="http://www.w3.org/2000/svg" height="48">
<g style="color:#000">
<path style="opacity:.88" d="m 10.2088,8.7461 c 3.60909,-3.67862 8.63583,-5.71484 13.7891,-5.71484 5.06768,0 10.2658,1.8882 13.916,5.8457 3.24263,3.51551 5.70509,8.26482 5.58398,13.7598 -0.08421,3.82084 -1.23244,7.61413 -3.38867,10.832 h 1.88867 v 11.5 h -23.875 v -0.9375 h -0.03125 v -22 h 11.5 v 3.57227 c 0.523163,-0.971488 0.906222,-2.02545 0.90625,-3.06641 0,-1.6289 -0.751812,-3.4484 -1.90234,-4.59961 -1.15103,-1.15172 -2.97184,-1.90625 -4.59766,-1.90625 -1.62581,0 -3.52874,0.677942 -4.59766,1.90625 -2.39569,2.75292 -1.90234,5.60347 -1.90234,9.09375 h -13 c 0.0079,-8.24055 1.06877,-13.5536 5.71092,-18.2852 z "/>
<path style="opacity:.88;fill:#fff" d="m 12.3299,10.8672 c 3.0411,-3.09619 7.32883,-4.83594 11.668,-4.83594 4.31136,0 8.71462,1.63039 11.7109,4.87891 2.84972,3.08954 4.88962,7.0974 4.78906,11.6602 -0.09464,4.29411 -1.75485,8.55376 -4.83398,11.6309 -0.86951,0.86891 -1.83968,1.62219 -2.875,2.26758 h 6.20898 v 5.5 h -17.875 v -0.9375 h -0.03125 v -16 h 5.5 v 6.66797 l .8594,-.3359 c 1.22519,-0.479469 2.35008,-1.19832 3.26367,-2.11133 1.74525,-1.74402 2.78311,-4.24663 2.7832,-6.71484 0,-2.4686 -1.03607,-4.97448 -2.78125,-6.7207 -1.74537,-1.7464 -4.25104,-2.78516 -6.71875,-2.78516 -2.46771,0 -5.07452,0.943225 -6.71875,2.78516 -2.32073,2.59977 -2.77203,5.19673 -2.78125,8.21484 h -7 c -0.01416,-4.9358 1.28696,-9.55491 4.83202,-13.1642 z "/>
</g>
</svg>
