<svg width="48" version="1.1" xmlns="http://www.w3.org/2000/svg" height="48">
<g style="stroke:none">
<g style="fill-rule:evenodd">
<path style="fill:#c0392b" id="rect3280" d="m 9,17 30,0 0,23.9998 -30,0 z"/>
<path style="fill:#800000" id="rect3340" d="m 11,20 0,15 4,0 0,-15 z m 11,0 0,15 4,0 0,-15 z m 11,0 0,15 4,0 0,-15 z"/>
<g style="fill:#c0392b" id="g19" transform="matrix(0.98480775,0.17364818,-0.17364818,0.98480775,178.62249,-995.99493)">
<rect width="36" x="5.9999995" y="1015.3622" height="7" id="rect3282"/>
<path id="path3376" d="m 17,4 -2,5 0,2 2,0 0,-2 0,-5 z m 14,0 0,5 0,2 2,0 0,-2 -2,-5 z" transform="translate(0,1004.3622)"/>
</g>
<path style="fill:#800000" id="path3381" d="m 20.264,-0 -.8682,4.924 13.7873,2.4311 .8682,-4.924 -13.7873,-2.4311 z "/>
</g>
<g style="fill:none">
<path id="path3332" d="m 24,40.9997 c -1.65691,0 -3.00009,-1.344 -3.00009,-3.002 0,-1.658 1.34319,-3.0021 3.00009,-3.0021 1.65691,0 3.00009,1.3441 3.00009,3.0021 0,1.658 -1.34319,3.002 -3.00009,3.002 z"/>
<path id="path3336" d="m 18,40.9997 c -1.65691,0 -3.00009,-1.344 -3.00009,-3.002 0,-1.658 1.34319,-3.0021 3.00009,-3.0021 1.65691,0 3.00009,1.3441 3.00009,3.0021 0,1.658 -1.34319,3.002 -3.00009,3.002 z"/>
<path id="path3338" d="m 30,40.9997 c -1.65691,0 -3.00009,-1.344 -3.00009,-3.002 0,-1.658 1.34319,-3.0021 3.00009,-3.0021 1.65691,0 3.00009,1.3441 3.00009,3.0021 0,1.658 -1.34319,3.002 -3.00009,3.002 z"/>
</g>
</g>
</svg>
