<svg width="48" version="1.1" xmlns="http://www.w3.org/2000/svg" height="48">
<g style="stroke:none">
<g style="stroke-width:1.5" id="g4144" transform="translate(-3.894604,-1.55861)">
<path style="fill:#fff;fill-opacity:.647" id="path4137" d="m 23.9999,4.7008 c -5.74499,0 -10.9987,4.2625 -10.9987,9.50765 0.01395,0.601028 0.01798,1.27236 0.08189,2.02004 -0.909188,0.474084 -1.02932,2.33259 -0.218338,4.20171 0.312723,0.720699 0.742571,1.30325 1.17357,1.77757 0.01437,0.01567 0.04011,0.03806 0.05458,0.05373 0.102868,0.493898 0.175796,0.870479 0.300214,1.42751 0.385437,1.13108 1.98169,3.26139 3.38425,5.09055 0.139869,1.41095 0.144949,0.911704 -0.136462,2.51665 -4.03703,3.27639 -13.64,4.64992 -13.5553,10.735 l -0.191,1.2924 40.211,0 -0.191,-1.2928 c 0.121642,-5.31987 -9.59578,-7.34308 -13.5834,-10.7349 -0.161451,-1.29934 -0.191354,-0.671468 -0.109172,-1.95121 1.27518,-1.92422 2.95754,-4.40378 3.38425,-5.6561 0.156826,-0.648492 0.233002,-1.08608 0.354799,-1.64289 0.376561,-0.450241 0.731843,-0.975371 1.00982,-1.61603 0.770149,-1.7751 0.675764,-3.49064 -0.109173,-4.06704 0.05486,-0.771296 0.113537,-1.49546 0.136461,-2.1547 8e-6,-5.24515 -5.15309,-9.50765 -10.8981,-9.50765 z"/>
<path style="fill:#1a1a1a" id="path3798-9-2" d="m 23.9999,6.2084 c -5.13074,0 -9.28658,3.91322 -9.28658,8.72857 0.01246,0.551778 0.01606,1.1681 0.07313,1.85451 -0.811978,0.435237 -0.919268,2.14145 -0.194993,3.85741 0.279285,0.661643 0.663175,1.19646 1.04809,1.63191 0.01283,0.01439 0.03582,0.03494 0.04875,0.04933 0.09187,0.453427 0.157,0.79915 0.268115,1.31054 0.344227,1.0384 1.76981,2.99414 3.02241,4.67342 0.124915,1.29533 0.129452,2.58172 -0.121871,4.05515 -3.60539,3.00791 -12.8347,5.35363 -12.8208,8.4676 l -0.1706,1.1865 36.2689,0 -0.1706,-1.1869 c -0.01471,-2.66506 -9.28404,-5.35363 -12.8453,-8.4675 -0.144188,-1.19287 -0.170895,-2.36117 -0.0975,-3.53605 1.13884,-1.76654 2.64132,-4.04292 3.02241,-5.19262 0.140058,-0.595353 0.208089,-0.997085 0.316864,-1.50827 0.336299,-0.413347 0.653595,-0.895447 0.901849,-1.48361 0.687805,-1.62964 0.603511,-3.20461 -0.0975,-3.73378 0.049,-0.708094 0.101396,-1.37292 0.121871,-1.97814 6e-6,-4.81535 -4.05581,-8.72857 -9.18655,-8.72857 z"/>
</g>
<g id="layer1" transform="matrix(0.68292683,0,0,0.68292683,17.609756,-2.3902439)">
<path style="fill:#3e659e" id="path3006" d="M 24,3.5 C 12.6781,3.5 3.5,12.67832 3.5,24 3.5,35.3221 12.67806,44.5 24,44.5 35.3209,44.5 44.5,35.3222 44.5,24 44.5,12.6783 35.3209,3.5 24,3.5 Z"/>
<g style="fill:#fff" id="g4142">
<path id="path3004" d="m 23.567,8.0402 c 2.15593,0 3.90176,1.74583 3.90176,3.90176 0,2.15593 -1.74583,3.90176 -3.90176,3.90176 -2.15593,0 -3.90176,-1.74583 -3.90176,-3.90176 0,-2.15593 1.74583,-3.90176 3.90176,-3.90176 z"/>
<path id="path6495" d="m 18.5938,21.0397 8.75,0 0,14.7688 3.25,0 0,2.5 -12,0 0,-2.5 3.25,0 0,-12.2688 -3.25,0 z"/>
</g>
</g>
</g>
</svg>
