<svg width="48" version="1.0" xmlns="http://www.w3.org/2000/svg" height="48">
<path style="fill:#d6dfe2" d="M 6.8125,3 C 4.70502,3 3,4.800915 3,7.062375 v 33.81275 c 0,2.26264 1.70502,4.125 3.8125,4.125 h 34.375 c 2.10923,0 3.8125,-1.86237 3.8125,-4.125 V 7.062375 c 0,-2.26185 -1.70327,-4.0625 -3.8125,-4.0625 z"/>
<path style="fill:#257ab2" d="m 6.4012,21.8575 h 4.97064 l -.0208,19.0502 c -0.0047,1.29454 0.782071,1.87541 1.64429,1.86838 h 4.15971 c 0.862218,0.007 1.64897,-0.573834 1.64429,-1.86838 v -19.0502 h 5.05089 c 2.36041,0 3.04138,-2.52312 1.86953,-4.03125 l -9.3246,-12 c -0.787905,-1.014 -1.75137,-1.014 -2.53928,0 l -9.3246,12 c -1.14326,1.47134 -0.405889,4.03125 1.86994,4.03125 z "/>
<g style="line-height:100%">
<path d="M 38.343,18.9029 H 31.4883 L 30.4066,22 H 26 L 32.2967,5 h 5.2264 l 6.2967,17 h -4.4066 l -1.0703,-3.0971 z m -5.7616,-3.1541 h 4.6571 L 34.9157,8.9852 Z"/>
<path d="m 41.7277,26 v 2.653 L 33.207,38.6865 h 8.7825 V 42 H 27.1757 v -2.653 l 8.5203,-10.033 -8.2584,-2.5e-4 v -3.3135 z"/>
</g>
</svg>
