<svg width="48" version="1.0" xmlns="http://www.w3.org/2000/svg" height="48" style="overflow:visible;enable-background:new 0 0.446 123 98">
<g style="stroke:none">
<path style="fill:#d6dfe2" id="path4152" d="M 6.8125,2.99975 C 4.70502,2.99975 3,4.80079 3,7.06225 L 3,40.875 C 3,43.13764 4.70502,45 6.8125,45 l 34.375,0 C 43.29673,45 45,43.13763 45,40.875 L 45,7.06225 C 45,4.8004 43.29673,2.99975 41.1875,2.99975 Z"/>
<g style="fill:#5c696c" id="g7">
<path id="path4147" d="m 12.665491,18 7.70068,0 C 20.732496,18 21,18.33319 21,18.743783 l 0,7.512435 C 21,26.666806 20.732495,27 20.366171,27 l -7.70065,0 C 12.299196,27 12,26.666809 12,26.256218 l 0,-7.512435 C 12,18.333191 12.299196,18 12.665521,18 Z"/>
<path id="path4153" d="m 24.665491,18 7.70068,0 C 32.732496,18 33,18.33319 33,18.743783 l 0,7.512435 C 33,26.666806 32.732495,27 32.366171,27 l -7.70065,0 C 24.299196,27 24,26.666809 24,26.256218 l 0,-7.512435 C 24,18.333191 24.299196,18 24.665521,18 Z"/>
</g>
</g>
<rect width="29.985384" x="7.5073075" y="13.507308" rx="2.1416879" height="17.985384" ry="2.2479424" style="fill:none;fill-rule:evenodd;stroke:#5c696c;stroke-linejoin:round;stroke-linecap:round;stroke-width:3" id="rect4170"/>
</svg>
