<svg width="48" version="1.0" xmlns="http://www.w3.org/2000/svg" height="48" style="overflow:visible;enable-background:new 0 0.446 123 98">
<g style="stroke:none">
<path style="fill:#d6dfe2" id="path4304" d="m 6.8125,2.9998 c -2.10748,0 -3.8125,1.80104 -3.8125,4.0625 v 33.8127 c 0,2.26263 1.70502,4.12499 3.8125,4.12499 h 34.375 c 2.10923,7.10543e-15 3.8125,-1.86237 3.8125,-4.12499 v -33.8127 c 0,-2.26185 -1.70277,-4.06249 -3.812,-4.06249 z "/>
<g style="fill:#5c696c">
<path id="path4302" d="m 21,27 21,0 0,3 -21,0 z"/>
<path id="path4300" d="M 6.6654517,27 14.4661,27 c 0.366309,0 0.633801,0.341309 0.633801,0.761907 l 0,7.376139 c 0,0.420594 -0.267493,0.761908 -0.633801,0.761908 l -7.8006077,0 C 6.299183,35.899954 6,35.558643 6,35.138046 L 6,27.761907 C 6,27.34131 6.299183,27 6.6654923,27 Z"/>
<path id="path4298" d="m 21,33 12,0 0,3 -12,0 z"/>
<path id="path4141" d="m 21,15 21,0 0,3 -21,0 z"/>
<path id="path4143" d="M 6.6654517,15 14.4661,15 c 0.366309,0 0.633801,0.341309 0.633801,0.761907 l 0,7.476139 c 0,0.420594 -0.267493,0.761908 -0.633801,0.761908 l -7.8006077,0 C 6.299183,23.999954 6,23.658643 6,23.238046 L 6,15.761907 C 6,15.34131 6.299183,15 6.6654923,15 Z"/>
<path id="path4145" d="m 21,21 12,0 0,3 -12,0 z"/>
</g>
</g>
</svg>
