<svg width="48" version="1.0" xmlns="http://www.w3.org/2000/svg" height="48">
<g id="layer1">
<g style="fill:#e7161d">
<path id="path3105" d="m 16.6012,20.0187 c -0.883167,1.56569 -2.36026,4.41668 -2.83518,6.26288 -1.21382,4.71865 -1.33129,9.85199 -1.51679,12.7445 -0.0091,0.127426 0.03804,0.236189 0.139475,0.31382 l 8.0373,6.0846 c 0.121205,0.093 0.28348,0.09438 0.400991,0.03488 0.117505,-0.05949 0.212438,-0.178512 0.209212,-0.331254 -0.07223,-7.19102 1.13655,-15.3906 2.57367,-22.3897 l -.8369,-.523 c 0,0 -2.99483,-1.68684 -6.17178,-2.19674 z "/>
<path id="path23453" d="m 22.4338,23.4167 c 2.48926,6.14021 5.67471,15.0615 7.61589,21.1005 0.03939,0.120329 0.157205,0.188794 0.261515,0.209213 0.104314,0.02042 0.214526,0.0093 0.296386,-0.08717 2.20273,-2.54689 4.59925,-4.79077 6.57277,-6.69481 0.0022,-0.0017 -0.0022,-0.01572 0,-0.01743 0.06355,-0.06233 0.10541,-0.137254 0.104606,-0.226648 -0.0094,-0.313607 -0.114436,-0.776329 -0.296383,-1.39475 -0.182131,-0.619038 -0.451045,-1.37541 -0.767113,-2.24903 -0.632117,-1.74722 -1.49145,-3.89807 -2.44081,-5.99743 -0.578048,-1.27826 -2.49243,-5.96189 -3.10038,-7.10073 -5.32988,-0.83564 -5.96817,0.774776 -8.24647,2.45824 z "/>
</g>
<path style="fill:#ffcb00" id="path3107" d="m 23.5467,2.5 -2.9115,2.4931 -3.6961,-1.0461 -1.1158,3.6612 -3.6612,1.1158 1.0461,3.6961 -2.4931,2.9115 2.8767,2.5454 -.5056,3.8007 3.7833,.5753 1.6388,3.4694 3.4869,-1.5517 3.2602,2.0398 2.0921,-3.2079 3.8356,-.0349 .0349,-3.8356 3.2079,-2.0921 -2.0398,-3.2602 1.5691,-3.5043 l -3.4869,-1.6214 -.5753,-3.7833 -3.8007,.5056 -2.5454,-2.8767 Z "/>
</g>
</svg>
