<svg width="48" version="1.0" xmlns="http://www.w3.org/2000/svg" height="48" style="overflow:visible;enable-background:new 0 0.446 123 98">
<path style="fill:#d6dfe2" id="path4152" d="M 6.8125,3 C 4.70502,3 3,4.80079 3,7.06225 V 40.875 C 3,43.13764 4.70502,45 6.8125,45 h 34.375 C 43.29673,45 45,43.13763 45,40.875 V 7.06225 C 45,4.8004 43.29673,3 41.1875,3 Z"/>
<g style="fill:#5c696c">
<g id="g7" transform="translate(-19.525424,-63.050847)">
<path id="path4147" d="m 12.665491,18 h 7.70068 C 20.732496,18 21,18.33319 21,18.743783 v 7.512435 C 21,26.666806 20.732495,27 20.366171,27 h -7.70065 C 12.299196,27 12,26.666809 12,26.256218 V 18.743783 C 12,18.333191 12.299196,18 12.665521,18 Z"/>
<path id="path4153" d="m 24.665491,18 h 7.70068 C 32.732496,18 33,18.33319 33,18.743783 v 7.512435 C 33,26.666806 32.732495,27 32.366171,27 h -7.70065 C 24.299196,27 24,26.666809 24,26.256218 V 18.743783 C 24,18.333191 24.299196,18 24.665521,18 Z"/>
</g>
<path id="rect3261" d="M 9,9 V 39 H 39 V 9 Z m 3,3 H 36 V 28.711 L 28.3,17.404615 21.798,29.218 17.6,23.057846 12,34 Z"/>
</g>
</svg>
