<svg width="48" version="1.1" xmlns="http://www.w3.org/2000/svg" height="48">
<g style="color:#000">
<path style="opacity:.88" d="m 8.7461,37.7912 c -3.67862,-3.60909 -5.71484,-8.63583 -5.71484,-13.7891 0,-5.06768 1.8882,-10.2658 5.8457,-13.916 3.51551,-3.24263 8.26482,-5.70509 13.7598,-5.58398 3.82084,0.08421 7.61413,1.23244 10.832,3.38867 v -1.88867 h 11.5 v 23.875 h -0.9375 v 0.03125 h -22 v -11.5 h 3.57227 c -0.971488,-0.523163 -2.02545,-0.906222 -3.06641,-0.90625 -1.6289,0 -3.4484,0.751812 -4.59961,1.90234 -1.15172,1.15103 -1.90625,2.97184 -1.90625,4.59766 0,1.62581 0.677942,3.52874 1.90625,4.59766 2.75292,2.39569 5.60347,1.90234 9.09375,1.90234 v 13 c -8.24055,-0.0079 -13.5536,-1.06877 -18.2852,-5.71092 z "/>
<path style="opacity:.88;fill:#fff" d="m 10.8672,35.6701 c -3.09619,-3.0411 -4.83594,-7.32883 -4.83594,-11.668 0,-4.31136 1.63039,-8.71462 4.87891,-11.7109 3.08954,-2.84972 7.0974,-4.88962 11.6602,-4.78906 4.29411,0.09464 8.55376,1.75485 11.6309,4.83398 0.86891,0.86951 1.62219,1.83968 2.26758,2.875 v -6.20898 h 5.5 v 17.875 h -0.9375 v 0.03125 h -16 v -5.5 h 6.66797 l -.3359,-.8594 c -0.479469,-1.22519 -1.19832,-2.35008 -2.11133,-3.26367 -1.74402,-1.74525 -4.24663,-2.78311 -6.71484,-2.7832 -2.4686,0 -4.97448,1.03607 -6.7207,2.78125 -1.7464,1.74537 -2.78516,4.25104 -2.78516,6.71875 0,2.46771 0.943225,5.07452 2.78516,6.71875 2.59977,2.32073 5.19673,2.77203 8.21484,2.78125 v 7 c -4.9358,0.01416 -9.55491,-1.28696 -13.1642,-4.83202 z "/>
</g>
</svg>
