<svg width="48" version="1.0" xmlns="http://www.w3.org/2000/svg" height="48" style="overflow:visible;enable-background:new 0 0.446 123 98">
<g style="stroke:none">
<path style="fill:#d6dfe2" id="path4152" d="M 6.8125,2.99975 C 4.70502,2.99975 3,4.80079 3,7.06225 L 3,40.875 C 3,43.13764 4.70502,45 6.8125,45 l 34.375,0 C 43.29673,45 45,43.13763 45,40.875 L 45,7.06225 C 45,4.8004 43.29673,2.99975 41.1875,2.99975 Z"/>
<g style="stroke-linecap:round;fill-rule:evenodd;stroke-linejoin:round;fill:#5c696c;stroke-width:3">
<path id="rect4144" d="m 6,-27 24,0 0,21 -24,0 z" transform="matrix(0,1,-1,0,0,0)"/>
<path id="rect4157" d="m 30,17 0,16 -12,0 0,8 24,0 0,-24 z"/>
</g>
</g>
</svg>
