<svg width="48" version="1.0" xmlns="http://www.w3.org/2000/svg" height="48" style="overflow:visible;enable-background:new 0 0.446 123 98">
<g style="stroke:none">
<path style="fill:#d6dfe2" id="path4304" d="M 6.8125,2.9998 C 4.70502,2.9998 3,4.80084 3,7.0623 L 3,40.875 c 0,2.26263 1.70502,4.12499 3.8125,4.12499 l 34.375,0 C 43.29673,44.99999 45,43.13762 45,40.875 L 45,7.0623 C 45,4.80045 43.29723,2.99981 41.188,2.99981 Z"/>
<g style="fill:#5c696c">
<path id="path4298" d="m 6,21 33,0 0,3 -33,0 z"/>
<path id="path4778" d="m 5.9461,33 33,0 0,3 -33,0 z "/>
<path id="path4157" d="m 6,9 33,0 0,3 -33,0 z"/>
<path id="path4161" d="M 12,6 12,39 9,39 9,6 Z"/>
<path id="path4165" d="m 24,6 0,33 -3,0 0,-33 z"/>
<path id="path4169" d="m 36,6 0,33 -3,0 0,-33 z"/>
</g>
</g>
</svg>
