<svg width="48" version="1.0" xmlns="http://www.w3.org/2000/svg" height="48">
<path style="fill:#ecf0f1" d="m 5,1 h 38 c 1.662,0 3,1.338 3,3 v 40 c 0,1.662 -1.338,3 -3,3 H 5 C 3.338,47 2,45.662 2,44 V 4 C 2,2.338 3.338,1 5,1 Z"/>
<path style="fill:#2a84bf" d="m 6.4012,27.1852 h 4.97064 l -.0208,-21.131 c -0.0047,-1.29454 0.782071,-1.87541 1.64429,-1.86838 h 4.15971 c 0.862218,-0.007 1.64897,0.573834 1.64429,1.86838 v 21.131 h 5.05089 c 2.36041,0 3.04138,2.52312 1.86953,4.03125 l -9.3246,12 c -0.787905,1.014 -1.75137,1.014 -2.53928,0 l -9.3246,-12 c -1.14326,-1.47134 -0.405889,-4.03125 1.86994,-4.03125 Z "/>
<g style="line-height:100%">
<path d="M 39.343,17.9029 H 32.4883 L 31.4066,21 H 27 L 33.2967,4 h 5.2264 l 6.2967,17 h -4.4066 l -1.0703,-3.0971 z m -5.7616,-3.1541 h 4.6571 l -2.3228,-6.7636 -2.3342,6.7636 z"/>
<path d="m 28.4377,27 h 14.29 v 2.653 l -9.1206,11.0335 h 9.3824 V 44 H 28.1757 V 41.347 L 37.2963,30.3135 H 28.4376 V 27 Z"/>
</g>
</svg>
