<svg width="48" version="1.1" xmlns="http://www.w3.org/2000/svg" height="48">
<g style="fill-rule:evenodd;fill:#00c800;stroke:none">
<path style="text-align:start;shape-rendering:auto;mix-blend-mode:normal;color-interpolation-filters:linearRGB;isolation:auto;white-space:normal;font-family:sans-serif;text-decoration-line:none;solid-opacity:1;image-rendering:auto;text-decoration-style:solid;text-rendering:auto;solid-color:#000000;line-height:normal;text-decoration-color:#000000;color:#000;text-transform:none;stroke-width:3;color-rendering:auto;text-indent:0;color-interpolation:sRGB" id="path4141" d="m 22.5312,7.5 c -4.33726,0 -8.59623,1.76595 -11.6641,4.83203 -3.06969,3.06784 -4.83594,7.32886 -4.83594,11.668 0,4.31136 1.63039,8.71458 4.87891,11.7109 3.08954,2.84972 7.09744,4.88962 11.6602,4.78906 4.29411,-0.09464 8.5538,-1.75485 11.6309,-4.83398 2.01302,-2.01441 3.44609,-4.54505 4.20703,-7.26172 l .5332,-1.9043 h -7.20508 l -.373,.9531 c -0.479469,1.22519 -1.19832,2.35008 -2.11133,3.26367 -1.74402,1.74525 -4.24663,2.78303 -6.71484,2.7832 -2.4686,0.000171 -4.97446,-1.03609 -6.7207,-2.78125 -1.74638,-1.74539 -2.78516,-4.25104 -2.78516,-6.71875 0,-2.46771 1.03878,-4.97336 2.78516,-6.71875 1.74505,-1.74404 4.24784,-2.78005 6.71484,-2.78125 h 1.5 v -7 h -1.5 z "/>
<path id="rect4125" d="m 25.0312,21.0938 0,5.5 11.4375,0 0,12.4062 5.5,0 0,-17.875 -.9375,0 0,-.0312 -16,0 z "/>
</g>
</svg>
