<svg width="48" version="1.0" xmlns="http://www.w3.org/2000/svg" height="48">
<g id="layer1" transform="translate(-10.7151,0)">
<g style="fill:#e7161d" id="g5">
<path id="path3105" d="m 16.6012,20.0187 c -0.883167,1.56569 -2.36026,4.41668 -2.83518,6.26288 -1.21382,4.71865 -1.33129,9.85199 -1.51679,12.7445 -0.0091,0.127426 0.03804,0.236189 0.139475,0.31382 l 8.0373,6.0846 c 0.121205,0.093 0.28348,0.09438 0.400991,0.03488 0.117505,-0.05949 0.212438,-0.178512 0.209212,-0.331254 -0.07223,-7.19102 1.13655,-15.3906 2.57367,-22.3897 l -.8369,-.523 c 0,0 -2.99483,-1.68684 -6.17178,-2.19674 z "/>
<path id="path23453" d="m 22.4338,23.4167 c 2.48926,6.14021 5.67471,15.0615 7.61589,21.1005 0.03939,0.120329 0.157205,0.188794 0.261515,0.209213 0.104314,0.02042 0.214526,0.0093 0.296386,-0.08717 2.20273,-2.54689 4.59925,-4.79077 6.57277,-6.69481 0.0022,-0.0017 -0.0022,-0.01572 0,-0.01743 0.06355,-0.06233 0.10541,-0.137254 0.104606,-0.226648 -0.0094,-0.313607 -0.114436,-0.776329 -0.296383,-1.39475 -0.182131,-0.619038 -0.451045,-1.37541 -0.767113,-2.24903 -0.632117,-1.74722 -1.49145,-3.89807 -2.44081,-5.99743 -0.578048,-1.27826 -2.49243,-5.96189 -3.10038,-7.10073 -5.32988,-0.83564 -5.96817,0.774776 -8.24647,2.45824 z"/>
</g>
<path style="fill:#ffcb00" id="path3107" d="m 23.5467,2.5 -2.9115,2.4931 -3.6961,-1.0461 -1.1158,3.6612 -3.6612,1.1158 l 1.0461,3.6961 -2.4931,2.9115 2.8767,2.5454 -.5056,3.8007 3.7833,.5753 1.6388,3.4694 3.4869,-1.5517 3.2602,2.0398 2.0921,-3.2079 3.8356,-.0349 .0349,-3.8356 3.2079,-2.0921 -2.0398,-3.2602 1.5691,-3.5043 -3.4869,-1.6214 -.5753,-3.7833 -3.8007,.5056 -2.5454,-2.8767 Z "/>
</g>
<path style="fill:#00a200;fill-rule:evenodd;stroke:none" id="path3049" d="m 24.5241,11.7332 c 0.0077,-0.772837 0.310895,-1.49945 0.884322,-2.05002 l 8.6824,-8.6824 c 0.03293,-0.03644 0.0858,-0.0858 0.120526,-0.120589 0.06406,-0.06624 0.132036,-0.101639 0.200982,-0.160786 0.111649,-0.09562 0.239056,-0.164517 0.361768,-0.241179 0.783091,-0.48948 1.73087,-0.638144 2.61277,-0.281375 0.534466,0.216217 1.00912,0.593529 1.32648,1.04511 l .0403,.0401 8.3609,8.401 c 0.543495,0.531038 0.863227,1.25026 0.884322,2.00982 0.03306,1.2041 -0.659543,2.30364 -1.76864,2.77356 -1.10911,0.46992 -2.41383,0.218172 -3.25591,-0.643144 l -3.7785,-3.7785 v 12.9835 c 0.01492,1.05551 -0.535378,2.04046 -1.44707,2.57257 -0.911694,0.532113 -2.02265,0.532112 -2.93434,0 -0.911695,-0.532112 -1.46212,-1.51706 -1.44707,-2.57257 v -12.9835 l -3.8187,3.7785 c -0.734097,0.76459 -1.82829,1.03112 -2.85395,0.763733 -1.02566,-0.267386 -1.82285,-1.02436 -2.09022,-2.05002 -0.06689,-0.256416 -0.08296,-0.54632 -0.08039,-0.80393 z "/>
<g id="layer2" transform="matrix(0.51192804,-0.43196999,0.43196999,0.51192804,13.165101,32.529862)">
<path style="fill:#00a200;fill-rule:evenodd;stroke:none" id="path3182" d="m 22.0986,2 -0.208,0.8322 -2.0284,2.1324 0,24.305 c -3.98037,1.09937 -6.23808,4.71227 -6.23808,8.10527 0,4.33794 4.6214,8.62519 10.3499,8.62519 5.72848,0 10.4019,-4.28725 10.4019,-8.62519 0,-3.45174 -2.3572,-7.10245 -6.44598,-8.15728 l 0,-4.95749 -2.4965,-2.1844 0,-1.45627 1.4605,-0.9882 0,-2.34042 -1.2005,-0.4161 0,-2.23641 2.2915,-1.0402 0,-1.92435 -1.7714,-1.1962 0,-1.6643 1.9274,-1.4043 0,-1.82033 -3.9038,-3.5887 z m 1.8754,35.1747 c 2.03333,0 3.92618,1.37391 3.83621,3.21623 -0.08997,1.84232 -1.80287,3.26865 -3.83621,3.26865 -2.03333,0 -3.78398,-1.24637 -3.78398,-3.26865 3e-6,-2.02228 1.75065,-3.21623 3.78398,-3.21623 z"/>
</g>
</svg>
