<svg width="128" version="1.0" xmlns="http://www.w3.org/2000/svg" height="128" xmlns:xlink="http://www.w3.org/1999/xlink">
<defs id="defs1309">
<linearGradient id="linearGradient3770">
<stop offset="0" style="stop-color:#ffcf55" id="stop3772"/>
<stop offset="0.3" style="stop-color:#ffcf55" id="stop3782"/>
<stop offset="0.3" style="stop-color:#ffbe19" id="stop3780"/>
<stop offset="0.65547752" style="stop-color:#ffbe19" id="stop3784"/>
<stop offset="0.65547752" style="stop-color:#dc9e00" id="stop3778"/>
<stop offset="1" style="stop-color:#dc9e00" id="stop3774"/>
</linearGradient>
<linearGradient gradientTransform="matrix(-3.8219335,3.2061824,-2.0940697,-2.614453,272.62967,5.32998)" id="linearGradient3849" xlink:href="#linearGradient3770" y1="23.72045" y2="23.72045" x1="34.265" x2="45.4021" gradientUnits="userSpaceOnUse"/>
</defs>
<path style="fill:#ff1700" id="circle76" d="M 24.2234,75.8237 A 10.5717,10.5717 0 0 1 13.6517,86.3954 10.5717,10.5717 0 0 1 3.08,75.8237 10.5717,10.5717 0 0 1 13.6517,65.252 10.5717,10.5717 0 0 1 24.2234,75.8237 Z"/>
<path style="fill:#a600ff" id="path78" d="m 126.2003,79.1128 c -1.53887,5.63208 -7.35684,8.953 -12.9904,7.41501 -5.62726,-1.53756 -8.94819,-7.35552 -7.41086,-12.9867 1.53887,-5.63208 7.35684,-8.95301 12.9872,-7.4172 5.6323,1.5428 8.95081,7.36011 7.41414,12.9889 z"/>
<path style="fill:#ffa500" id="path80" d="m 23.9864,51.1898 c -1.54062,5.62901 -7.35617,8.95059 -12.9859,7.41238 -5.63361,-1.53799 -8.953,-7.35683 -7.41413,-12.9889 1.53821,-5.62967 7.35464,-8.94972 12.9874,-7.41326 5.63054,1.53974 8.95147,7.35771 7.4126,12.9898 z"/>
<path style="fill:#6400ff" id="path82" d="m 118.8203,59.1262 c -5.64706,1.48848 -11.4286,-1.88888 -12.9132,-7.53617 -1.483,-5.64816 1.89283,-11.4288 7.54033,-12.9094 5.64949,-1.48783 11.4317,1.88713 12.9119,7.54098 1.48454,5.64728 -1.89151,11.424 -7.53902,12.9046 z"/>
<path style="fill:#ffdc00" id="path84" d="m 35.0538,32.2345 c -4.14841,4.10689 -10.8432,4.07661 -14.9512,-0.0773 -4.10929,-4.14906 -4.07638,-10.8393 0.0681,-14.9459 4.15191,-4.11498 10.8463,-4.07835 14.9556,0.0707 4.11083,4.14819 4.07727,10.8408 -0.0725,14.9525 z"/>
<path style="fill:#0012ff" id="path86" d="m 109.9776,32.5982 c -4.15234,4.1071 -10.8423,4.07813 -14.9534,-0.074 -4.10754,-4.146 -4.07419,-10.8425 0.0788,-14.952 4.14688,-4.10601 10.8377,-4.07551 14.9446,0.0729 4.11652,4.15104 4.08317,10.8476 -0.0701,14.9532 z"/>
<path style="fill:#00ca0b" id="circle88" d="M 62.01,11.1235 A 10.5735,10.5735 0 0 1 51.4365,21.697 10.5735,10.5735 0 0 1 40.863,11.1235 10.5735,10.5735 0 0 1 51.4365,0.55 10.5735,10.5735 0 0 1 62.01,11.1235 Z"/>
<path style="fill:#0bf" id="path90" d="m 89.0596,14.0457 c -1.53975,5.63055 -7.35859,8.94994 -12.9889,7.41414 -5.63054,-1.53974 -8.95147,-7.35771 -7.41413,-12.9889 1.53974,-5.63055 7.3577,-8.95147 12.9889,-7.41414 5.62901,1.54062 8.95147,7.35771 7.41414,12.9889 z"/>
<g style="fill:#96604b" id="g21">
<path id="path3195" d="m 31.5372,77.1228 c 0.737369,15.0686 -4.54402,19.7186 -3.27118,25.3694 1.06879,4.74494 9.60071,4.26219 10.314,0.0334 C 39.479244,97.19449 38.226752,91.47 35.58937,78.9283 33.991,71.32752 28.24032,62.4039 28.24032,62.4039 c 0,0 2.96176,7.87056 3.29688,14.7189 z"/>
<path style="fill-rule:evenodd" id="path4331" d="m 58.4934,119.734 c 0,3.98071 -11.9151,4.1077 -26.6131,4.1077 -14.698,0 -26.6131,-0.12699 -26.6131,-4.1077 0,-3.98071 11.9151,-10.3077 26.6131,-10.3077 14.698,0 26.6131,6.32703 26.6131,10.3077 z"/>
</g>
<path style="fill:url(#linearGradient3849);fill-rule:evenodd" id="path3797" d="m 118.0161,86.4799 -48.0466,-60.8096 -42.4698,35.6908 48.236,60.5658 Z "/>
</svg>
