<svg width="48" version="1.0" xmlns="http://www.w3.org/2000/svg" height="48" style="overflow:visible;enable-background:new 0 0.446 123 98">
<g style="stroke:none">
<path style="fill:#d6dfe2" id="path4152" d="M 6.8125,2.99975 C 4.70502,2.99975 3,4.80079 3,7.06225 L 3,40.875 C 3,43.13764 4.70502,45 6.8125,45 l 34.375,0 C 43.29673,45 45,43.13763 45,40.875 L 45,7.06225 C 45,4.8004 43.29673,2.99975 41.1875,2.99975 Z"/>
<g style="fill:#5c696c">
<path id="path4150" d="m 6.6654911,12 7.7006799,0 C 14.732496,12 15,12.33319 15,12.743783 l 0,7.512435 C 15,20.666806 14.732495,21 14.366171,21 L 6.6655215,21 C 6.2991962,21 6,20.666809 6,20.256218 L 6,12.743783 C 6,12.333191 6.2991962,12 6.6655215,12 Z"/>
<path id="path4144" d="m 6.6654911,27 7.7006799,0 C 14.732496,27 15,27.352649 15,27.78722 l 0,7.42556 C 15,35.647346 14.732495,36 14.366171,36 L 6.6655215,36 C 6.2991962,36 6,35.647351 6,35.21278 L 6,27.78722 C 6,27.352654 6.2991962,27 6.6655215,27 Z"/>
<path id="path4147" d="m 18.665491,12 7.70068,0 C 26.732496,12 27,12.33319 27,12.743783 l 0,7.512435 C 27,20.666806 26.732495,21 26.366171,21 l -7.70065,0 C 18.299196,21 18,20.666809 18,20.256218 l 0,-7.512435 C 18,12.333191 18.299196,12 18.665521,12 Z"/>
<path id="path4149" d="m 18.665491,27 7.70068,0 C 26.732496,27 27,27.352649 27,27.78722 l 0,7.42556 C 27,35.647346 26.732495,36 26.366171,36 l -7.70065,0 C 18.299196,36 18,35.647351 18,35.21278 l 0,-7.42556 C 18,27.352654 18.299196,27 18.665521,27 Z"/>
<path id="path4153" d="m 30.665491,12 7.70068,0 C 38.732496,12 39,12.33319 39,12.743783 l 0,7.512435 C 39,20.666806 38.732495,21 38.366171,21 l -7.70065,0 C 30.299196,21 30,20.666809 30,20.256218 l 0,-7.512435 C 30,12.333191 30.299196,12 30.665521,12 Z"/>
</g>
</g>
</svg>
