<svg width="48" version="1.0" xmlns="http://www.w3.org/2000/svg" height="48" style="overflow:visible;enable-background:new 0 0.446 123 98">
<g style="stroke:none" id="g4">
<path style="fill:#d6dfe2" id="path4152" d="M 6.8125,2.99975 C 4.70502,2.99975 3,4.80079 3,7.06225 L 3,40.875 C 3,43.13764 4.70502,45 6.8125,45 l 34.375,0 C 43.29673,45 45,43.13763 45,40.875 L 45,7.06225 C 45,4.8004 43.29673,2.99975 41.1875,2.99975 Z"/>
<g style="fill-rule:evenodd" id="g7">
<rect width="6" x="18.099989" y="6" height="35.999996" style="fill:#5c696c;stroke-linejoin:round;stroke-linecap:round;stroke-width:3" id="rect4172"/>
<path style="fill:#2b88c5;color:#000;stroke-width:5.333" id="rect1332" d="m 33.297,18.1949 0,3.1464 -3.1475,0 c -3.50099,-0.02481 -3.14754,-0.690183 -3.14754,2.65928 -0.1437,3.42814 -0.09447,2.65928 3.14754,2.65928 h 3.14755 v 3.14586 c -0.02501,3.50009 -0.689189,3.14586 2.65935,3.14586 3.42747,0.143458 2.65935,0.09565 2.65935,-3.14586 v -3.14586 h 3.14466 c 3.49937,0.02513 3.14466,0.688534 3.14466,-2.65928 0.143298,-3.42688 0.09638,-2.65928 -3.14466,-2.65928 h -3.14466 v -3.1464 c 0.02494,-3.5004 0.689506,-3.1464 -2.65935,-3.1464 -3.4277,-0.143535 -2.65935,-0.09528 -2.65935,3.1464 z "/>
</g>
</g>
</svg>
