<svg width="48" version="1.0" xmlns="http://www.w3.org/2000/svg" height="48" xmlns:xlink="http://www.w3.org/1999/xlink">
<path style="fill:#d6dfe2" d="M 6.8125,3 C 4.70502,3 3,4.80079 3,7.06225 V 40.875 C 3,43.13764 4.70502,45 6.8125,45 h 34.375 C 43.29673,45 45,43.13763 45,40.875 V 7.06225 C 45,4.8004 43.29673,3 41.1875,3 Z"/>
<g style="fill:#5c696c">
<path d="M 9,9 V 39 H 39 V 9 Z m 3,3 24,0 V 32 L 28.428571,19.857214 21.398461,31.142857 18.571429,27.285786 12,36 Z"/>
<path d="m 22.5,19 a 3.5,3.5 0 0,1 -3.5,3.5 3.5,3.5 0 0,1 -3.5,-3.5 3.5,3.5 0 0,1 3.5,-3.5 3.5,3.5 0 0,1 3.5,3.5 Z "/>
</g>
</svg>
