<svg width="16.085251" version="1.1" xmlns="http://www.w3.org/2000/svg" height="16.02426">
<g style="color:#000;stroke-width:2;stroke:none;line-height:normal;text-decoration-line:none;font-family:Sans;text-transform:none;text-align:start;text-indent:0" id="layer12" transform="translate(-60.952227,-646.97574)">
<g style="fill:#4085b0">
<path id="path12113-8" d="m 11.043,.0233 c -0.323773,-0.0060621 -0.994141,0 -0.994141,0 l -.002,5.0002 .002,.0332 v 0.966797 h 6 v -0.849609 c 0.092864,-0.610578 -0.384407,-1.15856 -1.00195,-1.15039 h -1.5625 l 2.2812,-2.2812 c 0.724538,-0.67473 0.133204,-1.8793 -0.84375,-1.71875 -0.223942,0.0242 -0.433153,0.12331 -0.59375,0.28125 l -2.2812,2.2812 v -1.5625 c 0.013144,-0.562928 -0.440829,-1.00247 -1.00391,-1.00018 Z " transform="translate(60.952227,646.97574)"/>
<path id="path4160" d="m 61.9062,653 c -0.515356,0.0486 -0.908482,0.48237 -0.90625,1 v 8 c 5.5e-05,0.55226 0.447738,0.99994 1,1 h 8 c 0.552262,-6e-05 0.999945,-0.44774 1,-1 v -8 c -5.5e-05,-0.55226 -0.447738,-0.99994 -1,-1 h -8 c -0.03123,-0.001 -0.06252,-0.001 -0.09375,0 z "/>
</g>
<path style="fill:#fff" id="rect13039" d="m 62.9522,657 6,0 0,4 -6,0 z "/>
</g>
</svg>
