<svg width="48" version="1.0" xmlns="http://www.w3.org/2000/svg" height="48" style="overflow:visible;enable-background:new 0 0.446 123 98">
<g style="stroke:none">
<path style="fill:#d6dfe2" id="path4216" d="m 6.8125,2.9998 c -2.10748,0 -3.8125,1.80104 -3.8125,4.0625 v 33.8127 c 0,2.26263 1.70502,4.12499 3.8125,4.12499 h 34.375 c 2.10923,7.10543e-15 3.8125,-1.86237 3.8125,-4.12499 v -33.8127 c 0,-2.26185 -1.70327,-4.06249 -3.8125,-4.06249 z "/>
<path style="fill:#5c696c" id="path19" d="m 12.0743,12 -3.043,0 0,23.8378 11.9688,0 0,2.125 c 0,0.572986 0.468839,1.03125 0.96875,1.03125 h 10.2951 c 0.499915,0 0.90625,-0.458263 0.90625,-1.03125 v -7.25 c 0,-0.572986 -0.406339,-1.03125 -0.90625,-1.03125 h -10.2951 c -0.499915,0 -0.96875,0.458263 -0.96875,1.03125 v 2.18164 h -8.92578 v -9.02539 h 8.92578 v 2.01172 c 0,0.572979 0.468847,1.03125 0.96875,1.03125 h 10.2951 c 0.499907,0 0.90625,-0.45827 0.90625,-1.03125 v -7.21875 c 0,-0.572979 -0.406347,-1.03125 -0.90625,-1.03125 h -10.2951 c -0.499907,0 -0.96875,0.458271 -0.96875,1.03125 v 2.26367 h -8.92578 z "/>
</g>
</svg>
