<svg width="48" version="1.0" xmlns="http://www.w3.org/2000/svg" height="48" style="overflow:visible;enable-background:new 0 0.446 123 98">
<g style="stroke:none">
<path style="fill:#d6dfe2" id="path4304" d="m 6.8125,2.9998 c -2.10748,0 -3.8125,1.80104 -3.8125,4.0625 v 33.8127 c 0,2.26263 1.70502,4.12499 3.8125,4.12499 h 34.375 c 2.10923,7.10543e-15 3.8125,-1.86237 3.8125,-4.12499 v -33.8127 c 0,-2.26185 -1.70277,-4.06249 -3.812,-4.06249 z "/>
<g style="fill:#5c696c">
<path id="path4302" d="m 6,14 36,0 0,3 -36,0 z"/>
<path id="path4298" d="m 6,20 27,0 0,3 -27,0 z"/>
<path id="path4296" d="m 6,26 36,0 0,3 -36,0 z"/>
<path id="path4778" d="m 6,32 27,0 0,3 -27,0 z"/>
</g>
</g>
</svg>
