<svg width="16.085251" version="1.1" xmlns="http://www.w3.org/2000/svg" height="16.02426">
<g style="color:#000;stroke-width:2;stroke:none;line-height:normal;text-decoration-line:none;font-family:Sans;text-transform:none;text-align:start;text-indent:0" id="layer12" transform="translate(-60.952227,-646.97574)">
<g style="fill:#4085b0">
<path id="path12113-8" d="m 61.9464,656.9998 c -0.323746,-0.006 -0.655729,0.0001 -0.994141,0.00018 v 6 h 6 v -0.84961 c 0.092864,-0.61058 -0.384407,-1.15856 -1.00195,-1.15039 h -3 v -3 c 0.01314,-0.56293 -0.440829,-1.00247 -1.00391,-1.00018 z "/>
<path id="path4187" d="m 64.9011,649.9882 c -0.515356,0.0486 -0.908482,0.48237 -0.90625,1 v 8 c 5.5e-05,0.55226 0.447738,0.99994 1,1 h 8 c 0.552262,-6e-05 0.999945,-0.44774 1,-1 v -8 c -5.5e-05,-0.55226 -0.447738,-0.99994 -1,-1 h -8 c -0.03123,-0.001 -0.06252,-0.001 -0.09375,0 z "/>
</g>
<path style="fill:#fff" id="rect13039" d="m 65.9471,654 6,0 0,3.9882 -6,0 z "/>
<g style="fill:#4085b0">
<path id="path4183" d="m 76.0433,652.9759 c 0.323746,0.006 0.655729,-0.0001 0.994141,-0.00018 v -6 h -6 v 0.84961 c -0.09286,0.61058 0.384407,1.15856 1.00195,1.15039 h 3 v 3 c -0.01314,0.56293 0.440829,1.00247 1.00391,1.00018 z "/>
<path id="path4189" d="m 61.9464,652.9759 c -0.323746,0.006 -0.655729,-0.0001 -0.994141,-0.00018 v -6 h 6 v 0.84961 c 0.09286,0.61058 -0.384407,1.15856 -1.00195,1.15039 h -3 v 3 c 0.01314,0.56293 -0.440829,1.00247 -1.00391,1.00018 z "/>
<path id="path4191" d="m 76.0433,656.9998 c 0.323746,-0.006 0.655729,0.0001 0.994141,0.00018 v 6 h -6 v -0.84961 c -0.09286,-0.61058 0.384407,-1.15856 1.00195,-1.15039 h 3 v -3 c -0.01314,-0.56293 0.440829,-1.00247 1.00391,-1.00018 z "/>
</g>
</g>
</svg>
