<svg width="96" version="1.0" xmlns="http://www.w3.org/2000/svg" height="96" xmlns:xlink="http://www.w3.org/1999/xlink">
<defs>
<linearGradient id="linearGradient3678">
<stop offset="0" style="stop-color:#888"/>
<stop offset="1" style="stop-color:#acacac"/>
</linearGradient>
<linearGradient gradientTransform="matrix(0.78571429,0,0,0.78571429,1.2857143,1.2857143)" id="linearGradient3684" xlink:href="#linearGradient3678" y1="24" x1="48" y2="80" x2="48" gradientUnits="userSpaceOnUse"/>
<linearGradient gradientTransform="matrix(0.78571429,0,0,0.78571429,19.285714,19.285714)" xlink:href="#linearGradient3678" id="linearGradient5" y1="24" x1="48" y2="80" gradientUnits="userSpaceOnUse" x2="48"/>
</defs>
<g style="color:#000">
<path style="fill:#c8c8c8" d="M 10.714286,6 H 67.285715 C 69.897429,6 72,8.1025715 72,10.714286 V 67.285715 C 72,69.897429 69.897429,72 67.285715,72 H 10.714286 C 8.1025715,72 6,69.897429 6,67.285715 V 10.714286 C 6,8.1025715 8.1025715,6 10.714286,6 Z"/>
<rect width="58.142857" x="9.9285717" y="19.357143" height="47.142857" style="opacity:.99;fill:url(#linearGradient3684)"/>
<rect width="56.57143" x="10.714286" y="20.142857" height="45.57143" style="opacity:.99;fill:#fff"/>
<circle cx="62.178574" cy="12.678572" style="fill:#b25959" r="3.5357144"/>
<circle cx="51.178574" cy="12.678572" style="fill:#4d994d" r="3.5357144"/>
<circle cx="40.17857" cy="12.678572" style="fill:#a67f32" r="3.5357144"/>
<path style="fill:#c8c8c8" d="M 28.714285,24 H 85.285714 C 87.897429,24 90,26.102571 90,28.714285 V 85.285714 C 90,87.897429 87.897429,90 85.285714,90 H 28.714285 C 26.102571,90 24,87.897429 24,85.285714 V 28.714285 C 24,26.102571 26.102571,24 28.714285,24 Z"/>
<rect width="58.142857" x="27.928572" y="37.357143" height="47.142857" style="opacity:.99;fill:url(#linearGradient5)"/>
<rect width="56.57143" x="28.714285" y="38.142857" height="45.57143" style="opacity:.99;fill:#fff"/>
<circle cx="80.178574" cy="30.678572" style="fill:#b25959" r="3.5357144"/>
<circle cx="69.178574" cy="30.678572" style="fill:#4d994d" r="3.5357144"/>
<circle cx="58.17857" cy="30.678572" style="fill:#a67f32" r="3.5357144"/>
</g>
</svg>
