<svg width="48" version="1.0" xmlns="http://www.w3.org/2000/svg" height="48">
<g style="stroke:none">
<path style="fill:#3c4c50" id="rect3899" d="m 6.0098,2.7461 0,33.2227 L 12,36 l 0,4 6,0 11.5508,-4.0312 1.44922,0 0,6.15625 8.10156,0 0,-33.0664 -6.1875,0 0,-6.3125 -26.9043,0 z"/>
<g style="fill:#a9bbbf;fill-rule:evenodd" id="g9">
<path id="path1306" d="m 17.883,12.021 c -0.01564,9.29712 0.07626,21.1016 0,32.279 h 24.0731 c 1.32968,-0.475943 2.42858,-1.2686 3.14383,-2.53925 0.01046,-12.0877 -0.127184,-20.1278 -0.02419,-29.7397 z "/>
<path id="path2987" d="m 11.931,6.0685 c -0.01564,9.29712 0.07626,22.7103 0,33.8877 h 3.081 c 0.03423,-10.7043 -0.01417,-22.5006 0,-30.9193 h 24.0817 c 0.0061,-1.14948 0.01919,-1.84304 0.03125,-2.9685 z "/>
<path id="path2991" d="m 3.088,0 c -0.015644,9.29712 0.076265,24.8101 0,35.9875 h 5.787 c 0.046886,-10.68 -0.014382,-24.4323 0,-32.9815 h 24.106 c 0.0058,-0.963781 -0.01015,-2.05907 0,-3.006 Z "/>
</g>
</g>
<g style="stroke:#000">
<g id="g3894" transform="matrix(0.38330256,0,0,0.38095032,-1.7153119,-348.47837)">
<rect width="16.335632" x="-657.81592" y="760.18213" rx="2.6425266" ry="2.933136" height="44.448147" style="stroke:none" id="rect3896" transform="matrix(0.70710678,-0.70710678,0.70710678,0.70710678,0,0)"/>
<ellipse cx="64.10714" cy="59.07143" rx="33.75" ry="32.142857" style="fill:none;stroke-width:14.639" id="path3898" transform="matrix(1,0,0,1.05,-11.071429,909.44432)"/>
</g>
<g id="g3776" transform="matrix(0.38724929,0,0,0.38724929,-0.35075198,-355.96343)">
<rect width="16.335632" x="-657.81592" y="760.18213" rx="2.6425266" height="44.448147" ry="2.933136" style="fill:#e6e6e6;stroke:none" id="rect3755" transform="matrix(0.70710678,-0.70710678,0.70710678,0.70710678,0,0)"/>
<path style="fill:none;stroke:#e6e6e6;stroke-width:14.639" id="path2985" d="m 97.8571,59.0714 a 33.75,32.1429 0 0 1 -33.75,32.1429 33.75,32.1429 0 0 1 -33.75,-32.1429 33.75,32.1429 0 0 1 33.75,-32.1429 33.75,32.1429 0 0 1 33.75,32.1429 z" transform="matrix(1,0,0,1.05,-11.071429,909.44432)"/>
</g>
</g>
</svg>
