<svg width="128" version="1.0" xmlns="http://www.w3.org/2000/svg" height="128">
<g style="stroke:none">
<g style="fill:#a0a0a0">
<rect width="16.050314" x="103.94969" y="-16.050314" rx="0.15479258" ry="0.18696606" height="16.050314" id="use3300" transform="scale(1,-1)"/>
<rect width="16.050314" x="0" y="-120.00001" rx="0.15479258" ry="0.18696606" height="16.050314" id="use3302" transform="scale(1,-1)"/>
<rect width="16.050314" x="104" y="-120.00001" rx="0.15479258" ry="0.18696606" height="16.050314" id="use3304" transform="scale(1,-1)"/>
<path id="rect3961" d="m 104,24 0,8 8,0 0,-8 -8,0 z m 0,16 0,8 8,0 0,-8 -8,0 z m 0,16 0,8 8,0 0,-8 -8,0 z m 0,16 0,8 8,0 0,-8 -8,0 z m 0,16 0,8 8,0 0,-8 -8,0 z m -80,16 0,8 8,0 0,-8 -8,0 z m 16,0 0,8 8,0 0,-8 -8,0 z m 16,0 0,8 8,0 0,-8 -8,0 z m 16,0 0,8 8,0 0,-8 -8,0 z m 16,0 0,8 8,0 0,-8 -8,0 z"/>
<path id="path3002" d="m 16,96 0,-8 -8,0 0,8 8,0 z m 0,-16 0,-8 -8,0 0,8 8,0 z m 0,-16 0,-8 -8,0 0,8 8,0 z m 0,-16 0,-8 -8,0 0,8 8,0 z m 0,-16 0,-8 -8,0 0,8 8,0 z m 80,-16 0,-8 -8,0 0,8 8,0 z m -16,0 0,-8 -8,0 0,8 8,0 z m -16,0 0,-8 -8,0 0,8 8,0 z m -16,0 0,-8 -8,0 0,8 8,0 z m -16,0 0,-8 -8,0 0,8 8,0 z"/>
<rect width="16.050314" x="-0.05031395" y="-16.050314" rx="0.15479258" height="16.050314" ry="0.18696606" id="rect3030" transform="scale(1,-1)"/>
</g>
<path style="opacity:.6" id="rect3896" d="M 51.168,19 C 28.0106,19 9.0274,37.8383 9.0274,60.9297 c 0,23.0913 18.9832,41.9277 42.1406,41.9277 8.5121,0 16.4552,-2.5521 23.1035,-6.91797 l 26.6777,26.5137 c 1.17445,1.16725 2.9712,1.26059 4.0293,0.20899 l 7.9883,-7.9394 c 1.05809,-1.05161 0.96351,-2.83666 -0.21094,-4.00391 l -26.6211,-26.459 c 4.52343,-6.67722 7.17188,-14.7065 7.17188,-23.3301 -10e-7,-23.0913 -18.9813,-41.9297 -42.1387,-41.9297 z m 0,15.2871 c 14.9472,0 26.8535,11.8631 26.8535,26.6426 0,14.7794 -11.9063,26.6426 -26.8535,26.6426 -14.9472,0 -26.8555,-11.8631 -26.8555,-26.6426 0,-14.7795 11.9083,-26.6426 26.8555,-26.6426 z"/>
<rect width="16.869232" x="-8.7536287" y="113.14085" rx="2.7288442" height="45.900036" ry="3.0289462" style="fill:#c8c8c8" id="rect3755" transform="matrix(0.70710678,-0.70710678,0.70710678,0.70710678,0,0)"/>
</g>
<path style="fill:none;stroke:#c8c8c8;stroke-width:15.49" id="path2985" d="m 88.6852,53.9663 a 34.8524,34.8525 0 0,1 -34.8524,34.8525 34.8524,34.8525 0 0,1 -34.8524,-34.8525 34.8524,34.8525 0 0,1 34.8524,-34.8525 34.8524,34.8525 0 0,1 34.8524,34.8525 Z "/>
</svg>
