<svg width="16" version="1.1" xmlns="http://www.w3.org/2000/svg" height="16">
<path style="fill:#4085b0" d="M 3.0625,1 C 1.91877,1 1,1.8743 1,2.9519 V 13.0481 C 1,14.1257 1.918769,15 3.0625,15 h 9.875 C 14.08123,15 15,14.1257 15,13.0481 V 2.9519 C 15,1.8743 14.081231,1 12.9375,1 Z"/>
<g style="fill:#fff">
<path d="M 4,2 H 9 C 9,2 8.970527,3.564 9,4 4,4 4,4 4,7 L 2,6.9645 V 4 C 2,2.5 2.5,2 4,2 Z"/>
<path d="M 4,14 H 9 C 9,14 8.970527,12.436 9,12 4,12 4,12 4,9 L 2,9.0355 V 12 c 0,1.5 0.5,2 2,2 z"/>
</g>
</svg>
