<svg width="16" version="1.1" xmlns="http://www.w3.org/2000/svg" height="16">
<g style="stroke:none" id="g4">
<path style="fill:#4085b0" id="path4146" d="M 3.0625,1 C 1.91877,1 1,1.8743 1,2.9519 L 1,13.0481 C 1,14.1257 1.918769,15 3.0625,15 l 9.875,0 C 14.08123,15 15,14.1257 15,13.0481 L 15,2.9519 C 15,1.8743 14.081231,1 12.9375,1 Z"/>
<g style="fill:#fff" id="g7">
<path id="path4144" d="m 4,1.9941 3,0 c 0,0 -0.029473,1.5522 0,1.9882 -2,0 -3,0.994 -3,2.9822 l -2,0 0,-2.9822 C 2,2.9882 3.02151,1.9941 4,1.9941 Z"/>
<path id="path4142" d="m 9,1.9941 3,0 c 0.978494,0 2,0.9941 2,1.9882 l 0,2.9822 -2,0 C 12,4.8106 11,3.9823 9,3.9823 9.029473,3.5463 9,1.9941 9,1.9941 Z"/>
<path id="path4140" d="m 2,8.9527 2,0 c 0,2.1539 1,2.9822 3,2.9822 -0.029473,0.436 0,1.9882 0,1.9882 h -3 c -0.978494,0 -2,-0.9941 -2,-1.9882 z "/>
<path id="rect2816" d="m 12,8.9527 2,0 0,2.9822 c 0,0.9941 -1.02151,1.9882 -2,1.9882 h -3 c 0,0 0.02947,-1.5522 0,-1.9882 2,0 3,-0.8283 3,-2.9822 z "/>
</g>
</g>
</svg>
