<svg width="16" version="1.1" xmlns="http://www.w3.org/2000/svg" height="16">
<path style="fill:#4085b0" d="M 3.0625,1 C 1.91877,1 1,1.8743 1,2.9519 V 13.0481 C 1,14.1257 1.918769,15 3.0625,15 h 9.875 C 14.08123,15 15,14.1257 15,13.0481 V 2.9519 C 15,1.8743 14.081231,1 12.9375,1 Z"/>
<g style="fill:#fff">
<path d="m 4,1.9941 h 3 c 0,0 -0.029473,1.5522 0,1.9882 -2,0 -3,0.994 -3,2.9822 H 2 V 3.9823 C 2,2.5 2.5,1.9941 4,1.9941 Z"/>
<path d="m 9,1.9941 h 3 c 1.5,0 2,0.5059 2,1.9882 V 6.9645 H 12 C 12,4.8106 11,3.9823 9,3.9823 9.029473,3.5463 9,1.9941 9,1.9941 Z"/>
<path d="m 4,14 h 3 c 0,0 -0.029473,-1.5522 0,-1.9882 -2,0 -3,-0.994 -3,-2.9822 H 2 v 2.9822 C 2,13.4941 2.5,14 4,14 Z"/>
<path d="m 9,14 h 3 c 1.5,0 2,-0.5059 2,-1.9882 V 9.0296 h -2 c 0,2.1539 -1,2.9822 -3,2.9822 C 9.029473,12.4478 9,14 9,14 Z"/>
</g>
</svg>
