<svg width="16" version="1.1" xmlns="http://www.w3.org/2000/svg" height="16">
<g style="stroke:none" id="g4">
<path style="fill:#4085b0" id="path4146" d="M 3.0625,1 C 1.91877,1 1,1.859908 1,2.9375 l 0,10.125 C 1,14.14009 1.918769,15 3.0625,15 l 9.875,0 C 14.08123,15 15,14.140092 15,13.0625 L 15,2.9375 C 15,1.85991 14.081231,1 12.9375,1 l -9.875,0 z"/>
<g style="fill:#fff" id="g7">
<path id="path4144" d="M 2,4 3.65625,4 5,4 5,6 7,6 7,7.40625 7,9 5.34375,9 4,9 4,10.5 5.34375,10.5 7,10.5 7,12 5.34375,12 3.65625,12 2,12 2,10.40625 2,9 2,7.40625 l 1.65625,0 L 5,7.40625 5,6 3.65625,6 2,6 2,4 Z"/>
<path id="path4142" d="m 12,4 2,0 0,1.59375 0,6.40625 -2,0 0,-4.8125 -1,0 0,-1.59375 1,0 L 12,4 Z"/>
<path id="path4140" d="M 8,5 10,5 10,7 8,7 8,5 Z"/>
<path id="rect2816" d="m 8,10 2,0 0,2 -2,0 0,-2 z"/>
</g>
</g>
</svg>
