<svg width="16" version="1.1" xmlns="http://www.w3.org/2000/svg" height="16">
<path style="fill:#4085b0" d="M 3.0625,1 C 1.91877,1 1,1.8743 1,2.9519 V 13.0481 C 1,14.1257 1.918769,15 3.0625,15 h 9.875 C 14.08123,15 15,14.1257 15,13.0481 V 2.9519 C 15,1.8743 14.081231,1 12.9375,1 Z"/>
<g style="fill:#fff">
<path d="M 14,4 V 9 C 14,9 12.436,8.970527 12,9 12,4 12,4 9,4 L 9.0355,2 H 12 c 1.5,0 2,0.5 2,2 z"/>
<path d="M 2,4 V 9 C 2,9 3.564,8.97053 4,9 4,4 4,4 7,4 L 6.9645,2 H 4 C 2.5,2 2,2.5 2,4 Z"/>
</g>
</svg>
