<svg width="48" version="1.0" xmlns="http://www.w3.org/2000/svg" height="48">
<path style="fill:#889699;fill-rule:evenodd" d="m 0,0 v 47 h 41.452 c 3.548,0 5.54765,-2 5.544,-5.55537 l -.0427,-41.4442 Z "/>
<path style="opacity:.6" d="m 45.3,45.4 v -6 h -6 v 6 z"/>
<path style="opacity:.6" d="m 45.3,6.4 v -6 h -6 v 6 z"/>
<path style="opacity:.6" d="m 6.3,6.4 v -6 h -6 v 6 z"/>
<path style="opacity:.6" d="m 12.3,6.4 v -3 h -3 v 3 z "/>
<path style="opacity:.6" d="m 18.3,6.4 v -3 h -3 v 3 z "/>
<path style="opacity:.6" d="m 24.3,6.4 v -3 h -3 v 3 z "/>
<path style="opacity:.6" d="m 30.3,6.4 v -3 h -3 v 3 z "/>
<path style="opacity:.6" d="m 36.3,6.4 v -3 h -3 v 3 z "/>
<path style="opacity:.6" d="m 12.3,42.4 v -3 h -3 v 3 z"/>
<path style="opacity:.6" d="m 6.3,45.4 v -6 h -6 v 6 z"/>
<path style="opacity:.6" d="m 18.3,42.4 v -3 h -3 v 3 z"/>
<path style="fill:#fff" d="M 6,45 V 39 H 0 v 6 z"/>
<path style="opacity:.6" d="m 24.3,42.4 v -3 h -3 v 3 z"/>
<path style="fill:#fff" d="m 45,45 v -6 h -6 v 6 z"/>
<path style="opacity:.6" d="m 30.3,42.4 v -3 h -3 v 3 z"/>
<path style="opacity:.6" d="m 36.3,42.4 v -3 h -3 v 3 z"/>
<path style="opacity:.6" d="m 6.3,33.4 h -3 v 3 h 3 z"/>
<path style="opacity:.6" d="m 6.3,27.4 h -3 v 3 h 3 z"/>
<path style="opacity:.6" d="m 6.3,21.4 h -3 v 3 h 3 z"/>
<path style="opacity:.6" d="m 6.3,15.4 h -3 v 3 h 3 z"/>
<path style="opacity:.6" d="m 6.3,9.4 h -3 v 3 h 3 z "/>
<path style="opacity:.6" d="m 42.3,33.4 h -3 v 3 h 3 z"/>
<path style="opacity:.6" d="m 42.3,27.4 h -3 v 3 h 3 z"/>
<path style="opacity:.6" d="m 42.3,21.4 h -3 v 3 h 3 z"/>
<path style="opacity:.6" d="m 42.3,15.4 h -3 v 3 h 3 z"/>
<path style="opacity:.6" d="m 42.3,9.4 h -3 v 3 h 3 z "/>
<g style="fill:#fff">
<path d="M 12,6 V 3 H 9 v 3 z"/>
<path d="M 18,6 V 3 h -3 v 3 z"/>
<path d="M 24,6 V 3 h -3 v 3 z"/>
<path d="M 30,6 V 3 h -3 v 3 z"/>
<path d="M 36,6 V 3 h -3 v 3 z"/>
<path d="M 6,6 V 0 H 0 v 6 z"/>
<path d="M 12,42 V 39 H 9 v 3 z"/>
<path d="m 18,42 v -3 h -3 v 3 z"/>
<path d="m 24,42 v -3 h -3 v 3 z"/>
<path d="m 30,42 v -3 h -3 v 3 z"/>
<path d="m 36,42 v -3 h -3 v 3 z"/>
<path d="M 6,33 H 3 v 3 h 3 z"/>
<path d="M 6,27 H 3 v 3 h 3 z"/>
<path d="M 6,21 H 3 v 3 h 3 z"/>
<path d="M 6,15 H 3 v 3 h 3 z"/>
<path d="M 6,9 H 3 v 3 h 3 z"/>
<path d="m 42,33 h -3 v 3 h 3 z"/>
<path d="m 42,27 h -3 v 3 h 3 z"/>
<path d="m 42,21 h -3 v 3 h 3 z"/>
<path d="m 42,15 h -3 v 3 h 3 z"/>
<path d="m 42,9 h -3 v 3 h 3 z"/>
</g>
<path style="opacity:.6" d="m 18.6133,5.8809 c -8.68401,0 -15.8027,7.06342 -15.8027,15.7227 0,8.65924 7.11872,15.7227 15.8027,15.7227 3.19195,0 6.17085,-0.956668 8.66406,-2.59375 l 10.0039,9.9414 c 0.440422,0.437719 1.11493,0.472476 1.51172,0.078125 l 2.9941,-2.9766 c 0.396786,-0.394351 0.362297,-1.06423 -0.078125,-1.50195 l -9.9844,-9.9219 c 1.69665,-2.50403 2.69141,-5.51398 2.69141,-8.74805 0,-8.65924 -7.11872,-15.7227 -15.8027,-15.7227 z  m 0,5.7305 c 5.60519,0 10.0703,4.44991 10.0703,9.99219 0,5.54228 -4.46512,9.99023 -10.0703,9.99023 -5.60519,0 -10.0703,-4.44796 -10.0703,-9.99023 0,-5.54228 4.46512,-9.99219 10.0703,-9.99219 z "/>
<path style="fill:#fff" d="M 45,6 V 0 h -6 v 6 z"/>
<path style="fill:#e6e6e6" d="m 20.1875,4.2637 c -8.78786,0 -15.9746,7.18674 -15.9746,15.9746 0,8.78787 7.18675,15.9727 15.9746,15.9727 3.22534,0 6.23217,-0.971162 8.75,-2.63086 l 10.1094,10.1094 c 0.444957,0.444957 1.12647,0.480949 1.52734,0.080078 l 3.0254,-3.0254 c 0.400872,-0.400872 0.366832,-1.08239 -0.078125,-1.52734 l -10.084,-10.084 c 1.71804,-2.54607 2.72461,-5.60815 2.72461,-8.89453 0,-8.78787 -7.18675,-15.9746 -15.9746,-15.9746 z  m 0,5.8086 c 5.64848,0 10.1641,4.51753 10.1641,10.166 0,5.64849 -4.51559,10.1641 -10.1641,10.1641 -5.64848,0 -10.166,-4.51557 -10.166,-10.1641 0,-5.64849 4.51754,-10.166 10.166,-10.166 z "/>
</svg>
