<svg width="24" version="1.1" xmlns="http://www.w3.org/2000/svg" height="24">
<defs id="defs3051">
<style type="text/css" id="current-color-scheme">
.ColorScheme-Text {
color:#da4453;
}
</style>
</defs>
<path style="fill:currentColor;fill-opacity:1;stroke:none" id="path819" d="m 11.9804,3 c -0.740103,0 -0.980469,0.39772 -0.980469,1.34766 v 6.50391 c 0,1.5318 2,1.52356 2,0 v -6.50391 c 0,-0.995231 -0.254789,-1.34777 -1.01953,-1.34766 z  m -3.2148,2.3359 a 0.600143,0.600143 0 0,0 -0.271485,0.060547 c -2.86141,1.35382 -4.68983,4.23878 -4.69336,7.4043 0,4.52137 3.67785,8.19904 8.19922,8.19922 4.52137,0 8.19904,-3.67785 8.19922,-8.19922 -0.0043,-3.16475 -1.83263,-6.04885 -4.69336,-7.40234 a 0.600233,0.600233 0 1,0 -0.511718,1.08594 c 2.44435,1.15649 4.00215,3.61228 4.00586,6.31641 0,3.87279 -3.12721,7 -7,7 -3.87279,0 -7,-3.12721 -7,-7 0.00302,-2.70478 1.56092,-5.16159 4.00586,-6.31836 a 0.600143,0.600143 0 0,0 -0.240234,-1.14648 z " class="ColorScheme-Text"/>
</svg>
