<svg width="24" version="1.1" xmlns="http://www.w3.org/2000/svg" height="24">
<defs id="defs3051">
<style type="text/css" id="current-color-scheme">
.ColorScheme-Text {
color:#4d4d4d;
}
</style>
</defs>
<path style="fill:currentColor;fill-opacity:1;stroke:none" id="path4488" d="m 17.0614,3 c 0.45433,0 0.894349,0.105858 1.30043,0.24747 l -2.1438,2.1421 c -0.4407,0.440708 -0.4407,1.14308 0,1.58381 l .8081,.8077 c 0.4407,0.44072 1.14218,0.44072 1.58287,0 l 2.1438,-2.1441 c 0.141579,0.40607 0.247139,0.846336 0.247139,1.3007 0,2.17471 -1.76396,3.93775 -3.93854,3.93775 -0.45433,0 -0.894348,-0.1039 -1.30042,-0.245491 -1.69805,1.73466 -3.41323,3.41465 -5.13305,5.13352 0.141579,0.406125 0.24714,0.844364 0.24714,1.29872 0,2.17472 -1.76199,3.93775 -3.93658,3.93775 -0.493159,0 -0.973254,-0.115553 -1.4083,-0.281127 l 2.2851,-2.2846 c 0.440701,-0.440731 0.440701,-1.17674 0,-1.61747 l -.7728,-.7721 c -0.220343,-0.220372 -0.522508,-0.352398 -0.810069,-0.352398 -0.287573,0 -0.587751,0.132025 -0.808108,0.352398 l -2.2125,2.2154 c -0.119292,-0.376029 -0.211835,-0.782231 -0.211835,-1.19776 0,-2.17471 1.762,-3.93775 3.93658,-3.93775 0.45433,0 0.894375,0.105884 1.30043,0.24747 1.71585,-1.72903 3.43816,-3.40798 5.13305,-5.13352 -0.141579,-0.406081 -0.245178,-0.846348 -0.245178,-1.3007 0,-2.17472 1.762,-3.93775 3.93658,-3.93775 z " class="ColorScheme-Text"/>
</svg>
