<svg width="24" version="1.1" xmlns="http://www.w3.org/2000/svg" height="24">
<defs id="defs1">
<style type="text/css" id="current-color-scheme">
.ColorScheme-Text {
color:#da4453;
}
</style>
</defs>
<path style="fill:currentColor" d="m 4.5,4 a 0.5,0.5 0 0,0 -0.353516,0.146484 0.5,0.5 0 0,0 0,0.707031 l 7.1465,7.1465 -7.1465,7.1465 a 0.5,0.5 0 0,0 0,0.707032 0.5,0.5 0 0,0 0.707031,0 l 7.1465,-7.1465 7.1465,7.1465 a 0.5,0.5 0 0,0 0.707032,0 0.5,0.5 0 0,0 0,-0.707032 l -7.1465,-7.1465 7.1465,-7.1465 a 0.5,0.5 0 0,0 0,-0.707031 0.5,0.5 0 0,0 -0.707032,0 l -7.1465,7.1465 -7.1465,-7.1465 a 0.5,0.5 0 0,0 -0.353515,-0.146484 z " class="ColorScheme-Text"/>
</svg>
