<svg width="24" version="1.1" xmlns="http://www.w3.org/2000/svg" height="24">
<defs id="defs3051">
<style type="text/css" id="current-color-scheme">
.ColorScheme-Text {
color:#4d4d4d;
}
</style>
</defs>
<path style="fill:currentColor;fill-opacity:1;stroke:none" id="path4496" d="m 12,4.4746 a 6.15182,6.15182 0 0,0 -6.15234,6.15234 6.15182,6.15182 0 0,0 3.12891,5.34961 v 3.02344 h 6.05078 v -3.02734 a 6.15182,6.15182 0 0,0 3.125,-5.3457 6.15182,6.15182 0 0,0 -6.15234,-6.15234 z  m 0,.8594 a 5.28088,5.28088 0 0,1 5.28125,5.28125 5.28088,5.28088 0 0,1 -2.99023,4.75195 v 2.80273 h -4.58203 v -2.80469 a 5.28088,5.28088 0 0,1 -2.99023,-4.75 5.28088,5.28088 0 0,1 5.28125,-5.28125 z  m -1,6.666 v 1 h 2 v -1 h -2 z  m -2,8 v 1 h 6 v -1 h -6 z  m 1,2.0039 v 0.996094 h 4.01172 v -0.996094 h -4.01172 z " class="ColorScheme-Text"/>
</svg>
