<svg width="24" version="1.1" xmlns="http://www.w3.org/2000/svg" height="24">
<defs id="defs3051">
<style type="text/css" id="current-color-scheme">
.ColorScheme-Text {
color:#4d4d4d;
}
</style>
</defs>
<path style="fill:currentColor" d="m 21.7425,3.6221 c -1.20375,0.020139 -3.971,2.012 -6.40039,4.56055 -1.54279,1.61846 -3.13399,3.96959 -3.59961,5.02148 0.772825,0.398924 1.02036,0.673389 1.48438,1.40039 1.36102,-0.68856 3.58011,-2.52187 4.81445,-3.75586 4.27967,-4.52772 4.93576,-6.45578 4.11523,-7.10937 -0.102566,-0.081699 -0.242097,-0.120064 -0.414062,-0.117188 z  m -11.0234,9.8281 c -4.03114,-0.268372 -4.16164,5.49554 -9.18164,3.80273 6.73997,5.62144 10.6228,2.42187 11.5039,-0.0332 0.36495,-1.01679 -0.06864,-3.57182 -2.32227,-3.76953 z " class="ColorScheme-Text"/>
</svg>
