<svg width="24" version="1.1" xmlns="http://www.w3.org/2000/svg" height="24">
<defs id="defs3051">
<style type="text/css" id="current-color-scheme">
.ColorScheme-Text {
color:#4d4d4d;
}
</style>
</defs>
<path style="fill:currentColor;fill-opacity:1;stroke:none" d="m 15.0019,1.0083 c -0.183404,0.662844 -0.306268,1.50432 -0.505859,2.16602 -0.128602,0.020682 -0.260061,0.018184 -0.388672,0.048828 -0.447253,0.106553 -0.872651,0.276822 -1.26367,0.478516 -0.533362,-0.417472 -1.1375,-1.00856 -1.67383,-1.42578 -0.349412,0.232666 -0.669989,0.484198 -0.972656,0.767578 0.283908,0.618897 0.71619,1.35233 1.00586,1.98242 -0.381927,0.444939 -0.673498,0.917468 -0.898438,1.45898 -0.693011,0.025553 -1.54222,-0.029548 -2.22266,-0.00391 -0.116471,0.39793 -0.194019,0.798055 -0.244141,1.21484 0.614224,0.290605 1.41228,0.561776 2.02539,0.849609 -0.0038,0.439976 0.036027,0.896508 0.142578,1.34375 0.03063,0.128552 0.09384,0.244894 0.132812,0.369141 -0.500627,0.476506 -1.19614,0.96516 -1.70508,1.42773 0.157089,0.353424 0.349952,0.706085 0.554687,1.02539 0.658272,-0.171052 1.44962,-0.481372 2.11523,-0.638672 0.377529,0.467344 0.808157,0.881272 1.30859,1.20117 -0.08155,0.684924 -0.280564,1.49965 -0.371093,2.17578 0.34293,0.168237 0.712043,0.294636 1.07812,0.410156 0.394335,-0.549305 0.793842,-1.28584 1.20312,-1.8418 0.564231,0.111047 1.14806,0.103679 1.74219,0.0293 0.374392,0.589003 0.757326,1.36725 1.13086,1.95312 0.405274,-0.09935 0.787727,-0.207651 1.16016,-0.365234 -0.04962,-0.689346 -0.210942,-1.53962 -0.269531,-2.24609 0.514551,-0.288794 1.00693,-0.62064 1.39648,-1.04492 0.656009,0.21991 1.41116,0.557212 2.04688,0.755859 0.240026,-0.328416 0.455716,-0.676734 0.640625,-1.03906 -0.463938,-0.477907 -1.10752,-1.0019 -1.59961,-1.48828 0.203056,-0.539015 0.276975,-1.12535 0.302735,-1.71484 0.657011,-0.266205 1.48928,-0.506935 2.12695,-0.773438 -0.02735,-0.403454 -0.102837,-0.792762 -0.197266,-1.19922 -0.691373,-0.06921 -1.55936,-0.060313 -2.25391,-0.128906 -0.201492,-0.563862 -0.45703,-1.08747 -0.810547,-1.54102 0.311695,-0.615994 0.789069,-1.30854 1.10156,-1.9082 -0.268172,-0.274669 -0.544822,-0.54515 -0.84961,-0.775391 -0.562686,0.385669 -1.20276,0.930877 -1.77734,1.3125 -0.51117,-0.30244 -1.07278,-0.500692 -1.66016,-0.626953 -0.159769,-0.665029 -0.242305,-1.5092 -0.386718,-2.17383 -0.377315,-0.038703 -0.777765,-0.0542983 -1.16406,-0.035156 z  m .3027,4.832 c 1.28661,-0.041234 2.46738,0.823977 2.77734,2.125 0.354233,1.48687 -0.56391,2.97975 -2.05078,3.33398 -1.48687,0.354233 -2.97975,-0.563892 -3.33398,-2.05078 -0.354234,-1.48687 0.565869,-2.97975 2.05273,-3.33398 0.185857,-0.044279 0.370886,-0.068329 0.554688,-0.074219 z  m -9.1328,6.1602 c -0.232631,-0.0026 -0.547699,0.167954 -1.01367,0.298828 -1.03944,0.288231 -1.40593,0.09529 -1.13477,1.15234 l .2012,.7793 c -0.070771,0.06289 -0.169464,0.138285 -0.240234,0.201172 -0.294779,0.223921 -0.527696,0.519432 -0.732422,0.802734 l -.7832,-.2031 c -1.05865,-0.274435 -0.896796,0.178009 -1.16406,1.08398 -0.327601,1.06536 -0.628823,1.22242 0.443359,1.50781 l .8223,.2188 c 0.018662,0.35094 0.103862,0.707217 0.255859,1.06641 l -.6758,.5488 c -0.868661,0.706768 -0.498279,0.768183 0.126953,1.5293 0.676953,0.87057 0.642356,1.10964 1.48047,0.427734 l .6758,-.5508 c 0.48944,0.312802 1.09352,0.511386 1.67773,0.587891 l .1973,.8125 c 0.271862,1.11681 0.601259,0.699249 1.5332,0.4375 1.03944,-0.28823 1.40593,-0.09528 1.13477,-1.15234 l -.2012,-.7793 c 0.070795,-0.062898 0.169489,-0.138274 0.24026,-0.20116 0.294779,-0.223919 0.527697,-0.519429 0.732422,-0.802734 l .7832,.2031 c 1.01522,0.407824 0.896788,-0.178009 1.16406,-1.08398 0.327602,-1.06536 0.628824,-1.22242 -0.443359,-1.50781 l -.8223,-.2188 c -0.01866,-0.35094 -0.103862,-0.707207 -0.255859,-1.06641 l .6758,-.5488 c 0.868662,-0.706768 0.498279,-0.768181 -0.126953,-1.5293 -0.676953,-0.870571 -0.642356,-1.10965 -1.48047,-0.427734 l -.6758,.5508 c -0.48944,-0.312801 -1.09353,-0.511385 -1.67773,-0.587891 l -.1973,-.8125 c -0.135931,-0.558403 -0.286901,-0.733742 -0.51953,-0.736328 Z  m .0371,3.8457 c 0.511985,-0.04938 1.04311,0.141178 1.40234,0.558594 0.547282,0.679618 0.4574,1.69765 -0.207031,2.27539 -0.676122,0.550111 -1.68695,0.460829 -2.26172,-0.207032 -0.574768,-0.667871 -0.459351,-1.69765 0.205078,-2.27539 0.253546,-0.206292 0.554137,-0.321933 0.861328,-0.351563 z " class="ColorScheme-Text"/>
</svg>
