<svg version="1.1" xmlns="http://www.w3.org/2000/svg" viewBox="0 0 24 24">
<defs id="defs3051">
<style type="text/css" id="current-color-scheme">
.ColorScheme-Text {
color:#4d4d4d;
}
</style>
</defs>
<path style="fill:currentColor;fill-opacity:1;stroke:none" id="path835" d="m 12,4 c -1.46201,0 -2.82883,0.401415 -4.00977,1.08984 l 1.1074,1.0977 3.4336,3.4688 .9922,-.9922 -2.9961,-2.9922 c 0.472795,-0.110929 0.964864,-0.171875 1.47266,-0.171875 3.59876,-1e-07 6.5,2.90124 6.5,6.5 0,1.03115 -0.245382,2 -0.669922,2.86523 l 1.1074,1.0996 c 0.67215,-1.17061 1.0625,-2.52158 1.0625,-3.96484 0,-4.40942 -3.59058,-8 -8,-8 z  m -6.9551,4.0645 c -0.66166,1.16382 -1.04492,2.50447 -1.04492,3.93555 0,4.40942 3.59058,8 8,8 1.44887,0 2.8048,-0.393307 3.97852,-1.07031 l -1.1074,-1.1016 -3.457,-3.4395 -.9922,.9922 2.9668,2.9629 c -0.447419,0.098762 -0.910481,0.15625 -1.38867,0.15625 -3.59876,0 -6.5,-2.90124 -6.5,-6.5 0,-1.01807 0.239822,-1.9755 0.654297,-2.83203 l -1.1094,-1.1035 z " class="ColorScheme-Text"/>
</svg>
