<svg xmlns="http://www.w3.org/2000/svg" viewBox="0 0 24 24">
  <defs id="defs3051">
    <style type="text/css" id="current-color-scheme">
      .ColorScheme-Text {
        color:#4d4d4d;
      }
      </style>
  </defs>
    <path
        style="fill:currentColor;fill-opacity:1;stroke:none"
        d="m 12,2 c -0.692499,0 -1.25,0.557501 -1.25,1.25 0,0.692499 0.557501,1.25 1.25,1.25 0.692499,0 1.25,-0.557501 1.25,-1.25 C 13.25,2.557501 12.692499,2 12,2 Z M 5.383789,4.5 4.5,5.383789 6.116211,7 7,6.116211 Z M 18.616211,4.5 17,6.116211 17.883789,7 19.5,5.383789 Z M 12,5.75 c -3.4625,0 -6.25,2.7875 -6.25,6.25 0,3.4625 2.7875,6.25 6.25,6.25 3.4625,0 6.25,-2.7875 6.25,-6.25 C 18.25,8.5375 15.4625,5.75 12,5.75 Z M 12,7 c 2.77,0 5,2.23 5,5 0,2.77 -2.23,5 -5,5 C 9.23,17 7,14.77 7,12 7,9.23 9.23,7 12,7 Z M 3.25,10.75 C 2.557501,10.75 2,11.307501 2,12 c 0,0.692499 0.557501,1.25 1.25,1.25 0.692499,0 1.25,-0.557501 1.25,-1.25 0,-0.692499 -0.557501,-1.25 -1.25,-1.25 z m 17.5,0 c -0.692499,0 -1.25,0.557501 -1.25,1.25 0,0.692499 0.557501,1.25 1.25,1.25 0.692499,0 1.25,-0.557501 1.25,-1.25 0,-0.692499 -0.557501,-1.25 -1.25,-1.25 z M 6.116211,17 4.5,18.616211 5.383789,19.5 7,17.883789 Z M 17.883789,17 17,17.883789 18.616211,19.5 19.5,18.616211 Z M 12,19.5 c -0.692499,0 -1.25,0.557501 -1.25,1.25 0,0.692499 0.557501,1.25 1.25,1.25 0.692499,0 1.25,-0.557501 1.25,-1.25 0,-0.692499 -0.557501,-1.25 -1.25,-1.25 z"
        id="rect4148"
        class="ColorScheme-Text"
     />
</svg>
