<svg xmlns="http://www.w3.org/2000/svg" viewBox="0 0 24 24">
  <defs id="defs3051">
    <style type="text/css" id="current-color-scheme">
      .ColorScheme-Text {
        color:#4d4d4d;
      }
      </style>
  </defs>
 <path
     style="fill:currentColor;fill-opacity:1;stroke:none" d="m 18.617875,2 -4.1142,4.1162518 -0.25868,0.2587501 0.25868,0.2587501 4.1142,4.1162525 0.88335,-0.8837515 -2.864821,-2.8662508 H 22 V 5.75 H 16.636404 L 19.501225,2.8837459 Z M 8.246946,5.75 c -2.0764866,0 -3.7481712,1.6725008 -3.7481712,3.75 0,2.0775005 1.6716846,3.75 3.7481712,3.75 2.076488,0 3.748172,-1.672501 3.748172,-3.75 0,-2.0775006 -1.671684,-3.75 -3.748172,-3.75 z m 0,8.75 C 4.7861097,14.5 2,17.287503 2,20.75 v 1.25 h 12.493912 v -1.25 c 0,-3.4625 -2.786129,-6.25 -6.246966,-6.25 z m 0,1.25 c 2.768663,0 4.997569,2.23 4.997569,5 H 3.2493968 c 0,-2.77 2.2288877,-5 4.9975492,-5 z"
     class="ColorScheme-Text"
     />
</svg>
