<svg width="24" version="1.1" xmlns="http://www.w3.org/2000/svg" height="24" viewBox="0 0 24 24">
<defs id="defs3051">
<style type="text/css" id="current-color-scheme">
.ColorScheme-Text {
color:#4d4d4d;
}
</style>
</defs>
<path style="fill:currentColor" d="m 12,4 c -3.6526,0 -8.27399,2.59755 -9.9375,7.60742 a 1.42864,1.33333 0 0,0 -0.00781,0.759767 c 1.60636,5.2472 6.37371,7.63281 9.94531,7.63281 3.5716,0 8.33895,-2.38561 9.94531,-7.63281 a 1.42864,1.33333 0 0,0 0,-0.736329 c -1.57193,-5.05013 -6.29614,-7.63086 -9.94531,-7.63086 Z  m 0,3 a 5,5 0 0,1 5,5 5,5 0 0,1 -5,5 5,5 0 0,1 -5,-5 5,5 0 0,1 5,-5 z  m 0,2 a 3,3 0 0,0 -3,3 3,3 0 0,0 3,3 3,3 0 0,0 3,-3 3,3 0 0,0 -3,-3 z " class="ColorScheme-Text"/>
</svg>
