<svg width="24" version="1.1" xmlns="http://www.w3.org/2000/svg" height="24">
<defs id="defs3051">
<style type="text/css" id="current-color-scheme">
.ColorScheme-Text {
color:#4d4d4d;
}
</style>
</defs>
<path style="fill:currentColor;fill-opacity:1;stroke:none" id="path833" d="m 3,3 v 1 h 10 v -0.5 -0.5 h -10 z  m 0,3 v 1 h 10 v -0.5 -0.5 h -10 z  m 0,3 v 1 h 18 v -0.5 -0.5 h -18 z  m 0,4 v 1 h 8 v -1 h -8 z  m 10,0 v 4 4 h 4 4 v -4 -4 h -4 -4 z  m 1,1 h 3 3 v 3 3 h -3 -3 v -3 -3 z  m -11,2 v 1 h 8 v -1 h -8 z  m 0,4 v 1 h 8 v -1 h -8 z " class="ColorScheme-Text"/>
</svg>
