<svg width="24" version="1.0" xmlns="http://www.w3.org/2000/svg" height="24" style="overflow:visible">
<defs id="defs3051">
<style type="text/css" id="current-color-scheme">
.ColorScheme-Text {
color:#4d4d4d;
}
</style>
</defs>
<path style="fill:currentColor;fill-opacity:1;stroke:none" id="text2468" d="m 3.0133,7.9359 c -0.043335,0.162078 0.021213,0.353173 0.165547,0.416771 0.16691,0.073565 0.425399,-0.00165 0.504949,-0.139734 1.0038,-1.74199 1.697,-2.05243 3.3258,-2.05243 h 1.60684 l -.9082,7.7697 c -0.13973,0.979967 -0.593835,1.74994 -1.7815,2.8349 -1.08287,0.979958 -1.39725,1.53994 -1.39725,2.30991 0,1.04997 0.838353,1.92493 1.92122,1.92493 1.08287,0 1.92122,-0.804974 2.37533,-2.30992 0.314375,-0.909959 0.803425,-4.47983 1.11781,-8.01469 l .4192,-4.5148 h 3.80752 c -0.419181,2.76489 -0.733565,6.54477 -0.733565,8.53966 0,3.91986 1.32739,6.29977 3.4582,6.29977 1.36232,0 2.58492,-0.944972 3.42327,-2.5899 0.404217,-0.809985 0.521629,-1.41296 0.674243,-2.5749 0.0488,-0.371509 -0.154417,-0.541786 -0.360789,-0.589384 -0.215127,-0.04962 -0.438544,0.174796 -0.537564,0.504746 -0.353715,1.1786 -0.901063,1.81957 -1.87177,1.81957 -0.698625,0 -1.43218,-0.48998 -1.81643,-1.22495 -0.314383,-0.629973 -0.41918,-1.18995 -0.41918,-2.34491 0,-2.6599 0.174661,-5.91479 0.41918,-7.83972 l 4.0962,.0102 c 0.18873,0 0.32646,-0.104575 0.32646,-0.316338 v -2.40384 c 0,-0.292332 -0.176759,-0.450558 -0.470677,-0.450558 h -11.558 c -1.8863,0 -2.76862,0.290589 -3.78163,1.27054 -0.908921,0.910673 -1.45585,1.85158 -2.00521,3.66532 z " class="ColorScheme-Text"/>
</svg>
