<svg width="24" version="1.1" xmlns="http://www.w3.org/2000/svg" viewBox="0 0 24 24" height="24">
<defs id="defs3051">
<style type="text/css" id="current-color-scheme">
.ColorScheme-Text {
color:#4d4d4d;
}
</style>
</defs>
<path style="fill:currentColor;fill-opacity:1;stroke:none" d="M 10.5,2 C 9.115,2 8,3.115 8,4.5 8,5.885 9.115,7 10.5,7 11.156861,7 11.748103,6.7434843 12.193359,6.3320312 L 14.251953,9.859375 10.244141,16.074219 2,11 V 22 H 20 L 11.353516,16.699219 15.005859,11.152344 19,18 c 0.57735,-1 0.878131,-1 0.300781,-2 L 15.759766,9.859375 17.814453,6.3378906 C 18.258928,6.7454136 18.846667,7 19.5,7 20.885,7 22,5.885 22,4.5 22,3.115 20.885,2 19.5,2 18.115,2 17,3.115 17,4.5 c 0,0.173125 0.01759,0.3428224 0.05078,0.5058594 l -1.603515,2.78125 C 14.99208,7.7765564 14.8937,7.0029531 14.113281,7.0019531 L 12.951172,4.9882812 C 12.982152,4.8305233 13,4.667103 13,4.5 13,3.115 11.885,2 10.5,2 Z m 0,1 C 11.331,3 12,3.669 12,4.5 12,5.331 11.331,6 10.5,6 9.669,6 9,5.331 9,4.5 9,3.669 9.669,3 10.5,3 Z m 9,0 C 20.331,3 21,3.669 21,4.5 21,5.331 20.331,6 19.5,6 18.669,6 18,5.331 18,4.5 18,3.669 18.669,3 19.5,3 Z M 15,9 c 0.277,0 0.5,0.223 0.5,0.5 C 15.5,9.777 15.277,10 15,10 14.723,10 14.5,9.777 14.5,9.5 14.5,9.223 14.723,9 15,9 Z M 3,13 16,21 H 3 Z" class="ColorScheme-Text"/>
</svg>
