<svg width="24" version="1.1" xmlns="http://www.w3.org/2000/svg" viewBox="0 0 24 24" height="24">
<defs id="defs3051">
<style type="text/css" id="current-color-scheme">
.ColorScheme-Text {
color:#4d4d4d;
}
</style>
</defs>
<path style="fill:currentColor;fill-opacity:1;stroke:none" id="path3011" d="m 12.0045,3 c -0.35883,0 -0.70641,0.02925 -1.05512,0.070875 -0.341956,0.0405 -0.690661,0.097875 -1.01913,0.175387 -0.10575,0.02475 -0.208091,0.075375 -0.31608,0.10575 -0.0945,0.025875 -0.187852,0.041625 -0.281216,0.070875 -0.118114,0.037125 -0.240716,0.066375 -0.35208,0.10575 -0.120364,0.04275 -0.232841,0.093375 -0.35208,0.140512 -0.231716,0.093375 -0.446569,0.20475 -0.668171,0.316013 -0.079875,0.0405 -0.167603,0.063 -0.246341,0.10575 -0.258716,0.136013 -0.496058,0.295763 -0.73791,0.456525 -0.09225,0.061875 -0.191216,0.11025 -0.281205,0.175388 -0.037125,0.027 -0.068625,0.04275 -0.10575,0.070875 -0.10575,0.079875 -0.214853,0.159525 -0.316091,0.24615 -0.120353,0.100125 -0.236216,0.210262 -0.35208,0.316012 -0.036,0.03375 -0.06975,0.072 -0.10575,0.10575 -0.012375,0.012375 -0.0225,0.0225 -0.034875,0.034875 -0.018,0.018 -0.016875,0.052875 -0.034875,0.070875 -0.236216,0.229387 -0.493807,0.44865 -0.703035,0.702788 -0.00562,0.01125 0.00563,0.028125 0,0.034875 -0.203602,0.247388 -0.38583,0.503775 -0.562432,0.773663 -0.023625,0.036 -0.04725,0.068625 -0.070875,0.10575 -0.016875,0.027 -0.052875,0.041625 -0.070875,0.070875 -0.0675,0.11025 -0.113614,0.235125 -0.175478,0.352012 -0.02025,0.037125 -0.050625,0.068625 -0.070875,0.10575 -0.084375,0.164137 -0.168728,0.326025 -0.246341,0.492525 -0.0045,0.01125 0.0045,0.025875 0,0.034875 -0.131614,0.2844 -0.249728,0.5778 -0.35208,0.878063 -0.021375,0.059625 -0.050625,0.115875 -0.070875,0.1755 -0.00338,0.01125 0.00338,0.02475 0,0.034875 -0.0225,0.06975 -0.0495,0.140625 -0.070875,0.2115 -0.082125,0.2889 -0.157478,0.577912 -0.211477,0.878175 -0.03825,0.215887 -0.08325,0.4464 -0.10575,0.668025 -0.030375,0.2979 -0.034875,0.609412 -0.034875,0.914062 0,0.454275 0.0405,0.89955 0.10575,1.33594 0.00675,0.04612 -0.00788,0.09563 0,0.140512 0.0495,0.299138 0.132728,0.5904 0.211477,0.878288 0.02925,0.108 0.072,0.209137 0.10575,0.316012 0.045,0.145013 0.088875,0.280013 0.140614,0.42165 0.086625,0.238388 0.175477,0.474525 0.281216,0.702675 0.05625,0.11925 0.114727,0.236138 0.175478,0.352013 0.170978,0.328388 0.35433,0.646537 0.562421,0.94905 0.018,0.027 0.05175,0.04387 0.070875,0.07088 0.222716,0.316012 0.443194,0.629662 0.703035,0.914175 0.045,0.0495 0.0945,0.09225 0.140602,0.140625 0.045,0.04725 0.0945,0.0945 0.140614,0.140512 0.240716,0.240638 0.507307,0.4554 0.773899,0.668025 0.344205,0.274275 0.707535,0.516038 1.09,0.73755 0.0135,0.01125 0.021375,0.027 0.034875,0.03487 0.059625,0.03375 0.115864,0.07313 0.175478,0.10575 0.355455,0.1755 0.77841,0.365513 1.05512,0.492525 0.123739,0.04725 0.259852,0.06413 0.386955,0.105751 0.059625,0.02025 0.115864,0.05175 0.175477,0.07088 0.152978,0.04612 0.301466,0.10125 0.456694,0.140512 0.04725,0.01237 0.093375,0.02362 0.140614,0.03487 0.328455,0.07763 0.67716,0.136012 1.01911,0.175388 0.34758,0.0405 0.69516,0.07087 1.05512,0.07087 0.382455,0 0.754785,-0.02362 1.12486,-0.07087 0.410569,-0.054 0.766024,-0.139388 1.12485,-0.211388 1.91001,-0.490275 3.5568,-1.59896 4.74578,-3.09229 0.0315,-0.03937 0.07538,-0.06525 0.10575,-0.105751 0.01013,-0.0135 0.02475,-0.0225 0.03487,-0.03487 0.01575,-0.02025 0.02025,-0.0495 0.03488,-0.07088 0.700785,-0.927675 1.21147,-2.00261 1.51181,-3.16316 0.063,-0.244013 0.132738,-0.485775 0.175477,-0.737663 0.0056,-0.03375 -0.0056,-0.07088 0,-0.10575 0.0068,-0.045 0.02813,-0.08887 0.03488,-0.140625 0.0068,-0.04838 0.02925,-0.09225 0.03487,-0.140512 h -0.03487 c 0.0495,-0.370012 0.10575,-0.741038 0.10575,-1.12455 0,-0.620663 -0.05625,-1.24132 -0.175477,-1.82723 -0.01013,-0.04838 -0.02475,-0.09225 -0.03487,-0.140513 -0.05175,-0.233887 -0.139478,-0.475762 -0.211478,-0.702899 -0.0034,-0.01125 0.0034,-0.02475 0,-0.034875 -0.0135,-0.04275 -0.02025,-0.063 -0.03487,-0.10575 -0.04387,-0.133875 -0.09112,-0.290138 -0.140602,-0.42165 -0.0135,-0.036 -0.02025,-0.072 -0.03487,-0.10575 -0.04838,-0.122625 -0.121489,-0.231637 -0.175478,-0.3519 -0.0023,0 0.0023,-0.02925 0,-0.034875 -0.02812,-0.06075 -0.0765,-0.115763 -0.10575,-0.175387 -0.11025,-0.228262 -0.222716,-0.449775 -0.35208,-0.667912 -0.06525,-0.11025 -0.10575,-0.244013 -0.175477,-0.352012 -0.027,-0.0405 -0.07763,-0.06525 -0.10575,-0.10575 -0.07538,-0.111375 -0.165353,-0.208125 -0.246342,-0.316013 -0.09,-0.1125 -0.157488,-0.242888 -0.246352,-0.352012 -0.0056,-0.01125 0.0056,-0.028125 0,-0.034875 -0.193486,-0.235012 -0.416214,-0.453149 -0.633305,-0.667912 -0.104625,-0.1035 -0.206978,-0.218138 -0.316091,-0.316013 -0.0315,-0.028125 -0.073125,-0.04275 -0.10575,-0.070875 -0.235092,-0.204637 -0.483683,-0.382275 -0.73791,-0.56205 -0.061875,-0.04275 -0.113603,-0.099 -0.175478,-0.140625 -0.07875,-0.05175 -0.166477,-0.091125 -0.246341,-0.140513 -0.151853,-0.0945 -0.299216,-0.19575 -0.456694,-0.281137 -0.138352,-0.075375 -0.278966,-0.142875 -0.421819,-0.211387 -0.240716,-0.11475 -0.485943,-0.22275 -0.73791,-0.316013 -0.299205,-0.111375 -0.600671,-0.202387 -0.914512,-0.281137 -0.27558,-0.06975 -0.559046,-0.13275 -0.843638,-0.175387 -0.446568,-0.068625 -0.905512,-0.10575 -1.37121,-0.10575 m 0,1.1246 c 0.33633,0 0.658046,0.030375 0.984251,0.070875 0.202478,0.025875 0.39933,0.06525 0.597297,0.10575 0.01125,0 0.02363,0 0.03487,0 0.186727,0.039375 0.380205,0.088875 0.562432,0.140512 0.108,0.030375 0.210353,0.070875 0.316091,0.10575 0.193467,0.064125 0.375694,0.131513 0.562422,0.211387 0.218227,0.09 0.42633,0.1719 0.633296,0.281025 -0.03487,0.01125 -0.07088,0.023625 -0.10575,0.034875 -0.05288,0.019125 -0.127103,0.108 -0.140603,0.140512 -0.0225,0.054 0.0056,0.129375 0,0.2115 0.04275,0.019125 0.0675,0.100125 0.140603,0.140512 0.02813,0.01575 0.04612,-0.01125 0.07088,0 0.04275,0.023625 0.07875,0.097875 0.07087,0.140512 -0.01238,0.061875 -0.099,0.02475 -0.140603,0.070875 0.0068,0.08775 -0.04838,0.118125 -0.07087,0.175388 0.0135,0.037125 0.06413,0.027 0.07087,0.070875 -0.0079,0.048375 -0.08887,0.055125 -0.07087,0.10575 0.081,0.063 0.169853,-0.02475 0.246342,-0.034875 0.167602,-0.021375 0.318341,0.046125 0.421818,-0.034875 -0.0135,-0.079875 0.113614,-0.1035 0.10575,-0.175388 -0.0068,-0.054 -0.10125,-0.068625 -0.140602,-0.10575 -0.02138,-0.02025 -0.045,-0.066375 -0.07088,-0.10575 -0.02925,-0.045 -0.072,-0.097875 -0.10575,-0.140625 -0.04387,-0.0585 -0.140603,-0.131513 -0.140603,-0.175388 0.0011,-0.050625 0.0585,-0.070875 0.07088,-0.140625 -0.0135,-0.064125 -0.131613,0 -0.140613,-0.070875 0.0023,-0.021375 0.02362,-0.057375 0.03487,-0.070875 0.168727,0.09225 0.335205,0.201263 0.492693,0.316013 0.036,0.023625 0.06975,0.046125 0.10575,0.070875 0.121478,0.091125 0.232842,0.19125 0.35208,0.281137 -0.07538,0.0135 -0.113613,0.10125 -0.175477,0.1755 -0.04275,0.05175 -0.111375,0.113512 -0.175478,0.140512 -0.0315,0.0135 -0.0765,-0.018 -0.10575,0 -0.04162,0.028125 -0.05738,0.108 -0.10575,0.140625 -0.03487,0.023625 -0.139488,0.10575 -0.175477,0.10575 -0.04275,0.00113 -0.11025,-0.045 -0.140614,-0.034875 -0.045,0.014625 -0.01913,0.086625 -0.07088,0.10575 -0.099,0.034875 -0.281216,-0.077625 -0.31608,0.070875 0.04275,0.0855 0.172103,0.057375 0.246341,0.10575 0.04725,0.02925 0.128239,0.160875 0.140603,0.211387 0.01125,0.04275 0.01688,0.201375 0,0.246263 -0.04612,0.11925 -0.178853,0.109125 -0.31608,0.10575 -0.03825,-0.00113 -0.07088,0 -0.10575,0 -0.232841,-0.01575 -0.457819,-0.095625 -0.562433,0.070875 0.0079,0.127013 0.02813,0.205762 0,0.3159 -0.02025,0.081 -0.109125,0.140625 -0.10575,0.2115 0.0023,0.036 0.06187,0.09225 0.07087,0.140512 0.0056,0.025875 -0.01238,0.082125 0,0.10575 0.03825,0.07425 0.142864,-0.01125 0.211478,0 0.06638,0.01125 0.141727,0.136013 0.140602,0.211387 -0.0011,0.05175 -0.03713,0.125887 -0.07088,0.175387 -0.06525,0.100125 -0.187852,0.086625 -0.281216,0.140512 -0.07875,0.043875 -0.0945,0.133762 -0.140602,0.211388 -0.0495,0.08325 -0.09112,0.124762 -0.07087,0.246263 -0.0675,0.132637 -0.141728,0.218137 -0.281217,0.281137 -0.04162,0.019125 -0.1035,0.043875 -0.140602,0.070875 -0.03037,0.021375 -0.063,0.057375 -0.10575,0.10575 -0.05288,0.0585 -0.1125,0.095625 -0.140614,0.140625 -0.02137,0.034875 -0.01125,0.0945 -0.03487,0.140512 -0.03262,0.063 -0.099,0.1125 -0.140602,0.175387 -0.01913,0.02925 -0.04838,0.066375 -0.07088,0.10575 -0.04725,0.086625 -0.113614,0.169763 -0.10575,0.246263 0.0079,0.07425 0.100125,0.0765 0.10575,0.140512 0.0045,0.036 -0.03712,0.06638 -0.03487,0.10575 0.0011,0.05738 0.03037,0.09675 0.03487,0.140513 0.01125,0.111375 -0.0495,0.135 -0.07087,0.2115 -0.01013,0.036 0.009,0.0765 0,0.10575 -0.018,0.05625 -0.104625,0.11025 -0.10575,0.1755 -0.0011,0.04725 0.06637,0.109125 0.07087,0.175387 0.0023,0.045 -0.04275,0.06413 -0.03487,0.10575 0.01575,0.08212 0.182227,0.18225 0.246341,0.246263 0.08437,0.08438 0.174352,0.156375 0.211477,0.246375 0.03038,0.07537 0.04612,0.188775 0.10575,0.24615 0.04387,0.04162 0.119228,0.06075 0.175478,0.10575 0.05288,0.0405 0.120352,0.06187 0.175477,0.10575 0.09112,0.072 0.205842,0.221512 0.35208,0.211387 0.0765,-0.01125 0.159728,-0.05625 0.246342,-0.07087 0.08887,-0.01575 0.191227,-0.04387 0.281216,-0.03487 0.06862,0.01125 0.139477,0.07425 0.211466,0.07087 0.07537,0 0.160864,-0.06862 0.246353,-0.10575 0.148477,-0.06412 0.38133,-0.172012 0.597296,-0.140512 0.164227,0.02363 0.167602,0.244012 0.281216,0.316012 0.132728,0.01125 0.246341,-0.06075 0.35208,-0.03488 0.07875,0.01913 0.167603,0.148388 0.175478,0.211388 0.0079,0.06525 -0.06075,0.136125 -0.07088,0.175387 -0.02025,0.08775 -0.01912,0.190125 -0.03487,0.246263 -0.01237,0.04275 -0.036,0.09675 -0.03487,0.140625 0,0.03937 0.06525,0.159637 0.10575,0.211387 0.0495,0.063 0.115863,0.108 0.175477,0.175388 0.09788,0.122625 0.174353,0.265387 0.246341,0.421762 0.01912,0.04162 -0.018,0.08662 0,0.140513 -0.03262,0.251887 -0.115852,0.424012 -0.281216,0.702787 -0.07762,0.09 -0.177727,0.16875 -0.175477,0.281138 -0.0056,0.269887 0.152988,0.4419 0.140613,0.702787 -0.027,0.350775 0.027,0.3744 0,0.562163 0.118114,0.05962 0.03487,0.262012 0,0.386887 -0.05063,0.148388 -0.1125,0.182138 -0.140613,0.281138 0.07988,0.03487 0.192352,0.02137 0.281216,0 0,0 0.108,0.4509 0.10575,0.456525 -0.907763,0.896287 -2.04612,1.56083 -3.30483,1.93297 -0.618671,0.149512 -0.802024,0.149512 -1.09,0.211387 -0.375694,0.06188 -0.768274,0.10575 -1.15973,0.10575 -0.27333,0 -0.543296,-0.01125 -0.808773,-0.03487 -0.204717,-0.02025 -0.398194,-0.06975 -0.597297,-0.10575 -0.05962,-0.01125 -0.116977,-0.0225 -0.175477,-0.03487 -0.183353,-0.06188 -0.394819,-0.099 -0.562433,-0.140512 -0.191216,-0.054 -0.376819,-0.108 -0.562421,-0.1755 0.01575,-0.01462 0.030375,-0.01237 0.034875,-0.03487 0.010125,-0.045 0.00225,-0.06975 0,-0.140513 0.016875,-0.07313 0.09,-0.06525 0.10575,-0.140512 -0.0315,-0.054 -0.093375,-0.04275 -0.140602,-0.07088 -0.046125,-0.027 -0.0765,-0.08325 -0.070875,-0.140625 0.07875,-0.03262 0.224966,0.07425 0.281205,-0.03487 0.028125,-0.05175 -0.03825,-0.158513 0,-0.211388 0.025875,-0.03487 0.190103,-0.06188 0.246353,-0.07088 0.079875,-0.0135 0.166477,-0.01125 0.211466,-0.03487 0.0495,-0.03262 0.113614,-0.118125 0.10575,-0.2115 -0.0045,-0.04388 -0.03713,-0.06638 -0.070875,-0.10575 -0.028125,-0.03263 -0.014625,-0.07425 -0.034875,-0.10575 -0.034875,-0.05288 -0.09,-0.06525 -0.10575,-0.140512 0.108,-0.02137 0.265467,0.114637 0.42183,0.07088 0.07425,-0.02137 0.176603,-0.2115 0.211467,-0.281138 0.01125,-0.02137 -0.01125,-0.045 0,-0.07087 0.0135,-0.02925 0.06637,-0.05513 0.07087,-0.07088 0.01125,-0.0405 -0.009,-0.07988 0,-0.10575 0.027,-0.0765 0.09563,-0.08438 0.140602,-0.140625 0.03375,-0.04275 0.07312,-0.09787 0.10575,-0.140512 0.03488,-0.04612 0.04725,-0.100125 0.07088,-0.140625 0.0225,-0.137138 -0.0675,-0.231638 -0.03488,-0.3519 0.036,-0.135 0.220478,-0.185625 0.35208,-0.246263 0.045,-0.02137 0.1035,-0.05625 0.140614,-0.07088 0.09,-0.0315 0.197977,-0.0405 0.281216,-0.07087 0.140603,-0.05175 0.176603,-0.187762 0.246341,-0.316012 0.03263,-0.06075 0.06413,-0.132638 0.07088,-0.175388 0.0056,-0.03937 -0.0079,-0.05963 0,-0.10575 0.0068,-0.045 0.0225,-0.09112 0.03487,-0.1404 0.01575,-0.06525 0.03487,-0.173137 0.03487,-0.246262 0,-0.05963 -0.03262,-0.08775 -0.03487,-0.140513 -0.01013,-0.194625 0.06863,-0.24525 0.140603,-0.352012 0.036,-0.05288 0.045,-0.102375 0.07087,-0.140625 0.121489,-0.181013 0.331841,-0.254138 0.316091,-0.5274 -0.0056,-0.09 -0.03937,-0.287775 -0.10575,-0.3159 -0.03825,-0.01688 -0.120364,-0.01238 -0.175477,-0.03488 -0.177728,-0.06637 -0.308217,-0.302513 -0.492694,-0.316013 -0.03937,0 -0.06188,0.03488 -0.10575,0.03488 -0.07312,0 -0.165353,-0.05963 -0.246341,-0.07088 -0.05175,-0.01125 -0.145103,0.01463 -0.175478,0 -0.04725,-0.0225 -0.03262,-0.114637 -0.07087,-0.140512 -0.03038,-0.02025 -0.0945,-0.01688 -0.140602,-0.03488 -0.07425,-0.02812 -0.125989,-0.063 -0.211478,-0.07087 -0.02587,-0.0011 -0.07537,0 -0.10575,0 -0.04725,-0.01125 -0.09675,-0.045 -0.140602,-0.07088 -0.054,-0.03262 -0.08325,-0.0585 -0.10575,-0.10575 0.0495,-0.161888 -0.108,-0.187763 -0.140603,-0.281138 -0.01575,-0.04387 0.01463,-0.10125 0,-0.140512 -0.01912,-0.05625 -0.07987,-0.0945 -0.140614,-0.140625 -0.109125,-0.08325 -0.195728,-0.156263 -0.35208,-0.175388 -0.068625,-0.01125 -0.163103,0 -0.246341,0 -0.08775,-0.01125 -0.181102,-0.06525 -0.246341,-0.140625 -0.063,-0.07312 -0.0855,-0.140512 -0.140614,-0.175387 -0.052875,-0.03375 -0.139477,-0.03488 -0.175477,-0.07088 -0.01575,-0.01575 -0.019125,-0.03487 -0.034875,-0.07087 -0.025875,-0.054 -0.068625,-0.11025 -0.034875,-0.1755 -0.059625,-0.03038 -0.039375,0.081 -0.10575,0.07087 -0.0585,-0.08325 -0.113614,-0.129375 -0.246341,-0.10575 -0.06075,0.01125 -0.104625,0.0675 -0.175477,0.07088 -0.0585,0 -0.099,-0.05963 -0.175477,-0.07088 -0.0585,-0.01125 -0.134989,0.0405 -0.175477,0.03488 -0.064125,-0.01238 -0.082125,-0.06638 -0.140614,-0.10575 -0.04275,-0.02813 -0.116977,-0.106875 -0.140602,-0.10575 -0.075375,0 -0.141728,0.160762 -0.246341,0.10575 -0.050625,-0.06413 0.095625,-0.07988 0.034875,-0.140625 -0.045,-0.04612 -0.068625,0.01125 -0.10575,0.03487 -0.041625,0.02812 -0.0945,0.05288 -0.140614,0.07088 -0.1035,0.03825 -0.165353,0.02812 -0.246341,0.07087 -0.07425,0.03825 -0.097875,0.099 -0.140614,0.1755 -0.034875,0.063 -0.088875,0.172012 -0.140602,0.175387 -0.063,0 -0.119239,-0.081 -0.175478,-0.10575 -0.172103,-0.07425 -0.278966,0.03375 -0.421819,0.03487 -0.132739,0 -0.322841,-0.192262 -0.316091,-0.3159 0.0045,-0.07537 0.06075,-0.18675 0.070875,-0.281137 0.00675,-0.07425 0.06975,-0.142875 0.070875,-0.211388 0.00113,-0.09112 -0.151864,-0.165375 -0.211477,-0.1755 -0.140602,-0.02587 -0.33183,0.06863 -0.492682,0 -0.030375,-0.05063 0.052875,-0.09112 0.070875,-0.140512 0.010125,-0.02813 -0.010125,-0.03825 0,-0.07088 0.018,-0.04725 0.08325,-0.09 0.10575,-0.140513 0.016875,-0.03825 0.018,-0.09225 0.034875,-0.140625 0.019125,-0.05513 0.066375,-0.102375 0.070875,-0.140512 0.00563,-0.05063 -0.030375,-0.106875 -0.070875,-0.140625 -0.124853,0.01125 -0.210341,0 -0.281216,0.03487 -0.161977,0.07425 -0.119228,0.299137 -0.281216,0.352012 -0.05625,0.018 -0.149603,0.02363 -0.211466,0.03487 -0.052875,0.01125 -0.120364,0.036 -0.175478,0.03488 -0.06525,-0.0011 -0.172103,-0.06413 -0.211477,-0.10575 -0.010125,-0.01125 -0.027,-0.0405 -0.034875,-0.07088 0.00225,-0.01125 -0.00225,-0.02362 0,-0.03487 0.05175,-0.250762 0.104625,-0.499275 0.175478,-0.737663 0.00338,-0.01125 -0.00337,-0.02475 0,-0.034875 0.04725,-0.156262 0.115852,-0.303637 0.175477,-0.456525 0.014625,-0.01125 0.021375,-0.025875 0.034875,-0.034875 0.0866353,-0.059615 0.175488,-0.133752 0.281226,-0.140503 0.064125,0 0.184477,0.0225 0.246341,0.034875 0.05625,0.01125 0.09225,0.066375 0.140614,0.070875 0.138352,0.01125 0.167603,-0.115763 0.281216,-0.175387 0.116977,0.016875 0.175478,-0.01125 0.281205,0 0.072,0.01125 0.155239,0.10125 0.211477,0.10575 0.04725,0 0.059625,-0.077625 0.10575,-0.070875 0.045,0.01125 0.133852,0.121388 0.140602,0.175387 0.00788,0.0675 -0.054,0.13725 -0.034875,0.211388 0.070875,0.072 0.214841,0.063 0.31608,0.10575 0.066375,-0.054 0.010125,-0.13275 0,-0.211388 -0.00225,-0.034875 0.0045,-0.07425 0,-0.10575 -0.00675,-0.054 -0.034875,-0.0945 -0.034875,-0.140512 -0.001125,-0.213637 0.173228,-0.337388 0.31608,-0.421762 0.061875,-0.037125 0.121489,-0.077625 0.175478,-0.10575 0.075375,-0.03825 0.1125,-0.070875 0.175477,-0.10575 0.113614,-0.064125 0.227227,-0.1035 0.316091,-0.175388 0.041625,-0.09675 -0.0045,-0.220388 0,-0.316013 0.041625,-0.02475 0.061875,0 0.10575,0 0.068625,-0.014625 0.10125,-0.102375 0.140614,-0.140512 0.0225,-0.0225 0.077625,-0.048375 0.10575,-0.070875 0.068625,-0.054 0.081,-0.117 0.140603,-0.140625 0.021375,-0.01125 0.072,-0.019125 0.10575,-0.034875 0.045,-0.012375 0.1035,-0.045 0.175477,-0.070875 0.04725,-0.01575 0.157478,-0.016875 0.175477,-0.034875 0.0225,-0.0225 -0.00675,-0.106875 0,-0.140512 0.036,-0.169875 0.305955,-0.189 0.456694,-0.246263 0.10575,-0.0405 0.200228,-0.12825 0.31608,-0.10575 -0.0225,0.081 -0.123727,0.04275 -0.10575,0.140512 0.025875,0.136125 0.197978,-0.014625 0.246353,-0.034875 0.091125,-0.03825 0.266591,-0.061875 0.386944,-0.10575 0.10575,-0.03825 0.275591,-0.09 0.175477,-0.211387 -0.08325,0 -0.1035,0.07425 -0.175477,0.10575 -0.0495,0.01125 -0.063,-0.030375 -0.10575,-0.034875 -0.0405,0 -0.064125,0.04275 -0.10575,0.034875 -0.041625,-0.01125 -0.099,-0.09225 -0.10575,-0.140512 -0.016875,-0.124875 0.123739,-0.153 0.175478,-0.246263 -0.03375,-0.113625 -0.186727,-0.027 -0.281216,-0.070875 0.010125,-0.0675 0.061875,-0.128138 0.140614,-0.140512 0.064125,-0.01125 0.208091,0.01125 0.246341,0.034875 0.0225,0.019125 0,0.07425 0.034875,0.10575 0.03825,0.034875 0.091125,0.01125 0.140614,0 0.018,-0.0855 -0.119239,-0.048375 -0.10575,-0.10575 0.10125,-0.066375 0.298091,-0.018 0.421819,-0.034875 0.07088,-0.01125 0.147363,-0.06975 0.211477,-0.10575 0.06075,-0.03375 0.111375,-0.091125 0.175478,-0.034875 0.018,0.06075 -0.036,0.07425 -0.07087,0.10575 -0.114739,0.102375 -0.227228,0.232762 -0.316092,0.3519 0.05513,0.054 0.152989,0.02475 0.246353,0.034875 0.036,0 0.0675,0.028125 0.10575,0.034875 0.045,0.01125 0.10575,-0.0135 0.140614,0 0.063,0.01575 0.07875,0.10575 0.140602,0.10575 0.102375,0 0.09337,-0.140625 0.03488,-0.211387 0.018,-0.070875 0.05962,-0.09 0.03487,-0.140625 -0.04612,-0.09225 -0.237341,0.01575 -0.246341,-0.10575 -0.0056,-0.075375 0.07875,-0.084375 0.10575,-0.140625 -0.01238,-0.145012 0.119227,-0.151763 0.10575,-0.281137 -0.0068,-0.054 -0.0675,-0.055125 -0.10575,-0.10575 -0.01912,-0.025875 -0.01125,-0.0855 -0.03487,-0.10575 -0.07875,-0.066375 -0.236216,-0.0495 -0.246341,-0.175388 -0.0045,-0.07425 0.01125,-0.129375 0,-0.211387 -0.01012,-0.075375 -0.07425,-0.301387 -0.140603,-0.316013 -0.08437,-0.018 -0.145114,0.128138 -0.246352,0.175388 -0.05513,0.025875 -0.156353,0.045 -0.211467,0.034875 -0.036,-0.01125 -0.100125,-0.036 -0.10575,-0.10575 -0.00675,-0.07875 0.05625,-0.09225 0.070875,-0.175275 -0.012385,-0.0495 -0.057385,-0.032625 -0.10576,-0.070875 -0.055125,-0.041625 -0.102375,-0.130388 -0.175477,-0.140512 -0.037125,0 -0.104625,0.032625 -0.140602,0.034875 -0.0675,0 -0.119239,-0.016875 -0.175477,-0.034875 0.023625,-0.01125 0.046125,-0.027 0.070875,-0.034875 0.137227,-0.04725 0.281216,-0.066375 0.421819,-0.10575 0.02475,-0.01125 0.046125,-0.028125 0.070875,-0.034875 0.034875,0.037125 0.063,0.115762 0.10575,0.140512 0.02813,0.01575 0.07088,-0.01125 0.10575,0 0.11025,0.03375 0.195727,0.095625 0.316091,0.070875 0.04162,-0.073125 -0.08325,-0.08325 -0.03487,-0.140625 0.081,0.01125 0.148477,0.045 0.211477,0.070875 0.08662,-0.063 0.143978,-0.07425 0.140603,-0.175388 -0.0011,-0.05175 -0.06975,-0.070875 -0.10575,-0.10575 0.07087,-0.012375 0.139489,-0.02475 0.211477,-0.034875 0.0056,0.019125 0.02363,0.03375 0.03488,0.034875 0.04275,0.01125 0.185603,-0.057375 0.211467,-0.070875 0.0045,0 -0.0068,-0.030375 0,-0.034875 0.284591,-0.030375 0.586057,-0.034875 0.878512,-0.034875 m -2.8122,.5274 c -0.025875,0.048375 -0.052875,0.088875 -0.10575,0.10575 0.0135,0.073125 -0.0945,0.118012 -0.10575,0.175275 -0.00675,0.039375 -0.00225,0.10575 0,0.140625 0.0225,0.358763 -0.28233,0.5364 -0.633296,0.5274 -0.068625,0.06525 -0.032625,0.191137 -0.070875,0.281137 -0.0315,0.075375 -0.134977,0.147263 -0.211466,0.140512 -0.05625,0 -0.140614,-0.088875 -0.140614,-0.140512 0,-0.064125 0.091125,-0.102375 0.034875,-0.1755 0.00788,-0.0495 0.119227,-0.09675 0.10575,-0.175388 -0.0135,-0.08325 -0.108,-0.021375 -0.211477,-0.034875 -0.0585,-0.01125 -0.149603,-0.041625 -0.211477,-0.070875 0.113614,-0.075375 0.230602,-0.14175 0.35208,-0.2115 0.10574,-0.063 0.208092,-0.118012 0.316081,-0.175387 0.283466,-0.142762 0.587171,-0.274275 0.878513,-0.386662 m 6.0461,.8432 c -0.03037,0 -0.045,0.02025 -0.07087,0.034875 -0.05738,0.034875 -0.06075,0.088875 -0.10575,0.10575 -0.06075,0.023625 -0.131603,0.01125 -0.140603,0.070875 -0.0068,0.046125 0.03712,0.061875 0.03487,0.10575 -0.0225,0.055125 -0.05962,0.07425 -0.07087,0.140512 0.0765,0.12375 0.257591,-0.01125 0.35208,-0.034875 0.04275,-0.012375 0.08213,0 0.10575,-0.034875 0.02588,-0.039375 0.01463,-0.118125 0.03487,-0.1755 0.02138,-0.063 0.07763,-0.048375 0.07088,-0.10575 -0.0068,-0.05625 -0.119239,-0.11475 -0.211466,-0.10575 m -8.2261,.8783 c 0.068625,0.018 0.220466,0.217013 0.070875,0.281137 -0.014625,0.01125 -0.210352,0.0405 -0.246341,0.034875 -0.05175,-0.01125 -0.08775,-0.09675 -0.140614,-0.10575 -0.1035,-0.018 -0.245216,0.113625 -0.31608,0 0.018,-0.066375 0.09675,-0.048375 0.175478,-0.070875 0.140602,-0.03825 0.335205,-0.172013 0.456694,-0.140512 m .2812,.3519 c 0.034875,0 0.063,0.066375 0.10575,0.070875 0.0405,0 0.081,-0.0405 0.10575,-0.034875 0.063,0.016875 0.0945,0.129375 0.034875,0.1755 -0.0495,0 -0.068625,-0.041625 -0.10575,-0.034875 -0.102375,0.018 -0.134989,0.217013 -0.211477,0.211387 -0.072,-0.01125 -0.108,-0.158512 -0.034875,-0.211387 0.00225,-0.045 -0.037125,-0.06075 -0.034875,-0.10575 0.0225,-0.028125 0.081,-0.07425 0.140602,-0.070875 m -.3521,.0349 c 0.021375,0.00113 0.027,0 0.034875,0 -0.010125,0.079875 -0.043875,0.102375 -0.10575,0.140625 -0.106875,0.064125 -0.176603,0.143887 -0.211466,0.281137 -0.010125,0.0405 -0.124864,0.150638 -0.175477,0.140513 -0.119239,-0.02475 0.04275,-0.247388 0.070875,-0.281138 0.030375,-0.037125 0.06975,-0.063 0.10575,-0.10575 0.03375,-0.041625 0.037125,-0.118125 0.070875,-0.140625 0.036,-0.02475 0.148478,-0.037125 0.211466,-0.034875 m 10.6862,.0349 c 0.054,0.014625 0.06525,0.077625 0.10575,0.10575 0.03037,0.02025 0.072,0.0135 0.10575,0.034875 0.03937,0.02475 0.06075,0.0675 0.10575,0.10575 0.063,0.052875 0.157478,0.099 0.246341,0.140625 0.018,0.01125 0.0495,0.025875 0.07088,0.034875 0.06188,0.079875 0.116989,0.163012 0.175478,0.246263 0.0068,0.045 0.0135,0.111375 0.03488,0.140512 0.0585,0.079875 0.147352,0.148388 0.211477,0.246263 -0.0011,0.093375 0.0405,0.149625 0.10575,0.175387 0.08212,0.1395 0.167603,0.278887 0.246342,0.42165 0.03262,0.06525 0.03937,0.145012 0.07088,0.211388 -0.02362,0 -0.04838,0.01125 -0.07088,0 -0.07425,-0.1305 -0.460069,-0.156263 -0.492694,0.034875 -0.01462,0.084375 0.05513,0.196763 -0.07087,0.211388 -0.07988,0.01125 -0.172103,-0.082125 -0.281216,-0.10575 -0.045,-0.01125 -0.10575,0.01575 -0.140603,0 -0.08212,-0.028125 -0.06975,-0.125887 -0.140602,-0.175387 -0.0405,-0.028125 -0.146239,-0.063 -0.211478,-0.070875 -0.0405,0 -0.063,0 -0.10575,0 -0.05063,-0.01125 -0.132727,-0.01125 -0.175477,-0.034875 -0.0405,-0.02475 -0.130489,-0.06975 -0.140603,-0.10575 -0.01575,-0.055125 0.10125,-0.128137 0.10575,-0.175275 0.0023,-0.034875 -0.02587,-0.050625 -0.03487,-0.10575 -0.0056,-0.032625 0.0068,-0.08325 0,-0.10575 -0.01125,-0.03825 -0.07987,-0.06975 -0.140614,-0.070875 -0.054,0 -0.0945,0.03375 -0.140602,0.034875 -0.06637,0.00113 -0.199103,-0.041625 -0.281216,-0.034875 -0.0495,0 -0.0945,0.0315 -0.140614,0.034875 -0.130478,0.01125 -0.214841,-0.01125 -0.31608,0 -0.07425,0 -0.212603,0.03825 -0.281216,0.070875 -0.03487,0.01575 -0.06075,0.048375 -0.10575,0.070875 -0.02025,0.01125 -0.04387,0.023625 -0.07087,0.034875 -0.04275,0.019125 -0.100125,0.059625 -0.140603,0.070875 -0.0585,0.014625 -0.139489,0 -0.246352,0 -0.0765,0 -0.210342,-0.01575 -0.211467,-0.10575 -0.0011,-0.138262 0.255342,-0.081 0.386955,-0.10575 0.0495,-0.01125 0.08212,-0.070875 0.140603,-0.10575 0.02812,-0.016875 0.04387,-0.016875 0.07087,-0.034875 0.045,-0.0315 0.133852,-0.104625 0.140602,-0.140512 0.0068,-0.03375 -0.03937,-0.081 -0.03487,-0.10575 0.0056,-0.0315 0.06413,-0.06525 0.10575,-0.10575 0.063,-0.061875 0.09787,-0.134887 0.175478,-0.175388 0.05287,-0.028125 0.151864,-0.027 0.175489,-0.070875 0.0056,-0.048375 -0.0011,-0.061875 0,-0.10575 0.03262,-0.030375 0.04275,-0.06525 0.07088,-0.070875 0.081,-0.018 0.151852,0.039375 0.246341,0.034875 0.0405,0 0.09675,-0.01125 0.140602,-0.034875 0.03712,-0.02475 0.06975,-0.050625 0.10575,-0.070875 0.03937,-0.02025 0.05738,-0.066375 0.10575,-0.070875 0.118114,-0.01125 0.192353,0.139387 0.246342,0.211387 0.045,0.059625 0.172113,0.133763 0.246352,0.175388 0.04162,0.023625 0.0945,0.050625 0.140603,0.070875 0.09787,0.043875 0.277841,0.185512 0.281216,0.281137 0.0023,0.04725 -0.04275,0.06075 -0.03487,0.10575 0.07425,0.012375 0.138352,-0.066375 0.140602,-0.140512 0.0011,-0.046125 -0.04387,-0.05625 -0.03487,-0.10575 0.03487,-0.07425 0.166478,-0.01125 0.211478,-0.034875 -0.0079,-0.084375 -0.139478,-0.09675 -0.211478,-0.140512 -0.03825,-0.023625 -0.06525,-0.054 -0.10575,-0.070875 -0.0585,-0.023625 -0.130477,-0.036 -0.175477,-0.070875 -0.04275,-0.032625 -0.06413,-0.09 -0.10575,-0.140512 -0.06075,-0.072 -0.177728,-0.082125 -0.140603,-0.246263 0.018,-0.02475 0.04162,-0.077625 0.07088,-0.070875 m -9.9134,.2463 h 0.10575 c 0.03825,0.00113 0.09,-0.02025 0.10575,0 -0.02475,0.099 -0.238466,0.070875 -0.31608,0.034875 0.0045,-0.037125 0.05625,-0.030375 0.10575,-0.034875 m -.3521,.1755 c 0.025875,0 0.043875,-0.01125 0.070875,0 -0.06975,0.0585 -0.161977,0.1035 -0.281216,0.140512 -0.057375,0.018 -0.130477,0.028125 -0.140602,-0.034875 -0.012375,-0.077625 0.052875,-0.063 0.10575,-0.070875 0.06525,-0.01125 0.168739,-0.032625 0.246353,-0.034875 m 9.7728,0 c -0.04838,0.01575 -0.07425,0.127013 0,0.140512 0.03488,-0.02025 0.04388,-0.0765 0.03488,-0.140512 -0.01913,-0.02025 -0.01913,0 -0.03488,0 m -.0349,.2114 c -0.02362,0.01125 -0.045,0.01125 -0.07087,0.034875 0.0011,0.084375 0.01687,0.138262 0,0.211387 0.04838,0.09225 0.150727,0.02925 0.175477,-0.034875 0.029246,-0.156262 -0.033754,-0.230512 -0.105755,-0.211387 m .4928,.4216 c 0.05513,0.09 0.158603,0.154125 0.281217,0.175387 0.045,-0.03375 0.0495,-0.118012 0.07088,-0.175388 -0.05288,0.00113 -0.109125,0 -0.175478,0 -0.06638,0 -0.137227,-0.0315 -0.175477,0 m -13.1473,3.0225 c 0.184477,-0.01125 0.238466,0.242888 0.386944,0.316013 0.037125,0.01913 0.09225,0.02475 0.140614,0.03488 0.039375,0.01125 0.068625,0.0225 0.10575,0.03487 0.079875,0.027 0.182228,0.01125 0.246341,0.03487 0.095625,0.04275 0.164227,0.232762 0.246341,0.281137 0.0045,0.04837 -0.014625,0.104625 0,0.140513 0.039375,0.05288 0.111375,0.072 0.175478,0.10575 0.0765,0.04162 0.1035,0.142762 0.175478,0.175387 0.02475,0.01125 0.066375,-0.01125 0.10575,0 0.099,0.03037 0.125989,0.16515 0.211477,0.1404 0.05625,-0.01575 0.061875,-0.08775 0.070875,-0.1404 0.037125,-0.0405 0.08325,-0.104625 0.140602,-0.10575 0.093375,0 0.106875,0.08437 0.140614,0.175388 0.019125,0.05175 0.057375,0.121387 0.070875,0.175387 0.023625,0.09337 0.019125,0.365513 0,0.42165 -0.023625,0.06862 -0.119239,0.100125 -0.175478,0.1755 -0.027,0.03487 -0.0495,0.07987 -0.070875,0.10575 -0.036,0.045 -0.077625,0.06413 -0.10575,0.10575 -0.01575,0.02362 -0.02025,0.07425 -0.034875,0.10575 -0.045,0.09563 -0.108,0.1665 -0.070875,0.281138 0.01575,0.04725 0.06975,0.0855 0.070875,0.140625 0,0.06525 -0.129353,0.104625 -0.140602,0.175387 -0.00788,0.05288 0.054,0.14175 0.070875,0.211388 0.012375,0.05288 0.109125,0.10575 0.140602,0.140625 0.052875,0.05963 0.09225,0.136012 0.140614,0.211387 0.095625,0.146138 0.152978,0.314888 0.246341,0.456525 0.048375,0.07425 0.142853,0.133875 0.175478,0.211388 0.016875,0.03937 -0.01575,0.10575 0,0.140625 0.054,0.121387 0.299216,0.256387 0.421819,0.316012 0.057375,0.02813 0.123739,0 0.175478,0.03488 0.079875,0.04387 0.240728,0.176513 0.281216,0.246263 0.036,0.063 0.052875,0.217012 0.070875,0.3159 0.023625,0.131625 -0.00562,0.244012 0,0.386887 0.0045,0.07763 0.03375,0.133763 0.034875,0.211388 0,0.027 0.00113,0.07875 0,0.10575 -0.00225,0.09337 0.00788,0.186637 0,0.281025 -0.0045,0.05175 -0.00338,0.09788 0,0.140625 0.0045,0.04612 0.0315,0.06413 0.034875,0.10575 0.00225,0.04387 -0.039375,0.106875 -0.034875,0.140625 0.010125,0.0945 0.086625,0.159637 0.10575,0.246262 0.014625,0.06863 0.043875,0.233888 0.034875,0.316013 -0.00563,0.04387 -0.028125,0.09338 -0.034875,0.140512 -0.0045,0.03712 0.00563,0.06975 0,0.10575 -0.00675,0.05288 -0.03825,0.09112 -0.034875,0.140513 0.00675,0.10125 0.09,0.18 0.10575,0.281137 0.00563,0.03375 -0.00113,0.07312 0,0.10575 0.00113,0.03037 0.025875,0.04275 0.034875,0.07087 -0.295841,-0.168632 -0.572557,-0.35752 -0.843649,-0.562157 -0.257591,-0.194625 -0.507307,-0.409387 -0.73791,-0.63315 -0.01125,-0.01125 -0.023625,-0.023625 -0.034875,-0.034875 -0.232852,-0.229387 -0.465694,-0.481275 -0.668171,-0.737662 -0.116977,-0.148388 -0.245216,-0.300263 -0.35208,-0.456526 -0.063,-0.093374 -0.116989,-0.184387 -0.175478,-0.281137 -0.036,-0.057375 -0.070875,-0.117 -0.10575,-0.175388 -0.100125,-0.172124 -0.194591,-0.346275 -0.281216,-0.527287 -0.055125,-0.113625 -0.091125,-0.233888 -0.140602,-0.352013 -0.118114,-0.278887 -0.230591,-0.549899 -0.31608,-0.843412 -0.06075,-0.208013 -0.09675,-0.41715 -0.140614,-0.633037 -0.03375,-0.16425 -0.082125,-0.325013 -0.10575,-0.492526 -0.012375,-0.09112 -0.025875,-0.189 -0.034875,-0.281137 -0.027,-0.264263 -0.034875,-0.5364 -0.034875,-0.808425 0,-0.339638 0.02925,-0.656663 0.070875,-0.983925 0.00112,-0.01125 -0.00113,-0.02362 0,-0.03487 0.070875,0 0.167614,-0.1035 0.246353,-0.10575 m 3.0237,.8434 c 0.072,-0.03262 0.0945,0.131625 0.034875,0.140625 -0.05625,0.01125 -0.09,-0.11475 -0.034875,-0.140625" class="ColorScheme-Text"/>
</svg>
