<svg width="24" version="1.1" xmlns="http://www.w3.org/2000/svg" height="24">
<defs id="defs3051">
<style type="text/css" id="current-color-scheme">
.ColorScheme-Text {
color:#4d4d4d;
}
</style>
</defs>
<path style="fill:currentColor;fill-opacity:1;stroke:none" id="path4494" d="m 15.9874,4.0066 c -0.205578,0.011737 -0.414195,0.039607 -0.618058,0.092373 -1.95153,0.505205 -3.12058,2.47609 -2.61173,4.4031 0.106305,0.402612 0.304919,0.769997 0.526997,1.09693 -0.113369,0.01807 -1.70306,2.69805 -1.70306,2.69805 l 3.5689,.025 .837,-1.1604 c 0.397531,0.03106 0.818686,0.02096 1.22643,-0.08468 1.95153,-0.505201 3.12055,-2.47609 2.61173,-4.4031 -0.106316,-0.40261 -0.302994,-0.768071 -0.52506,-1.095 l -1.4221,2.3978 c -0.292387,0.492896 -0.921565,0.655693 -1.42018,0.367567 l -.9164,-.5292 c -0.498624,-0.288157 -0.662435,-0.908084 -0.37006,-1.40099 l 1.4221,-2.3997 c -0.198767,-0.01558 -0.400855,-0.019221 -0.606434,-0.0077 z  m -8.8447,.1712 c -0.253031,0.0515906 -0.491151,0.142531 -0.724621,0.23863 -0.0183616,0.68338 0.0968695,1.57804 -0.170499,1.81281 -0.26274,0.230704 -1.14188,0.0371721 -1.82124,-0.0346397 -0.144454,0.25885 -0.25801,0.53192 -0.342935,0.821732 0.525665,0.433307 1.25368,0.917114 1.27099,1.26435 0.0174821,0.35157 -0.688849,0.882995 -1.1683,1.37019 0.113657,0.282218 0.273989,0.53866 0.445622,0.785168 0.668833,-0.138366 1.50203,-0.409544 1.78636,-0.205913 0.289502,0.207346 0.293392,1.10184 0.379747,1.7801 0.274372,0.08209 0.560885,0.114194 0.85637,0.136635 0.309336,-0.607076 0.626683,-1.44493 0.964869,-1.53955 0.34716,-0.09706 1.05899,0.500766 1.6488,0.854449 0.240474,-0.165932 0.454141,-0.36862 0.652933,-0.581179 -0.27909,-0.626455 -0.792935,-1.41317 -0.652933,-1.74353 0.140143,-0.330683 1.07113,-0.515903 1.71662,-0.754378 0.0043,-0.080447 0.03487,-0.156971 0.03487,-0.23863 1e-06,-0.209478 -0.03691,-0.41303 -0.06781,-0.613894 -0.666381,-0.176032 -1.61288,-0.265722 -1.78636,-0.583103 -0.172338,-0.31525 0.265312,-1.1617 0.480497,-1.81281 -0.221178,-0.195475 -0.460347,-0.36786 -0.720745,-0.511899 -0.550712,0.410616 -1.19218,1.08796 -1.54611,1.02573 -0.348413,-0.061319 -0.731789,-0.896483 -1.10243,-1.47027 -0.0442,0.00766 -0.089905,-0.00875 -0.133687,0 z  m .6859,2.0514 c 1.02469,0 1.85611,0.827321 1.85611,1.84746 0,1.02013 -0.83142,1.84746 -1.85611,1.84746 -1.02468,0 -1.85611,-0.827329 -1.85611,-1.84746 0,-1.02014 0.831436,-1.84746 1.85611,-1.84746 z  m 10.011,6.7663 c -0.09933,-0.0072 -0.195627,-0.0051 -0.284811,0.0058 -0.118841,0.01449 -0.225684,0.04631 -0.302248,0.09237 h -10.6078 c -0.344705,-0.128732 -0.986681,-0.05754 -1.27681,0.244379 l -2.9489,2.8693 c -0.261148,0.235559 -0.411109,0.652344 -0.41656,0.956443 -0.071822,1.20341 1.36818,1.79374 2.2378,1.0796 l 1.8541,-1.8109 .0077,4.2106 c 0,0.773836 0.627427,1.35672 1.36206,1.35672 h 9.12364 c 0.713329,0 1.35625,-0.604265 1.35625,-1.27205 l -.0058,-4.2954 1.8232,1.7782 c 0.869617,0.71413 2.30764,0.125866 2.23587,-1.07768 -0.0054,-0.304101 -0.153476,-0.71896 -0.414623,-0.954519 l -2.9489,-2.8732 c -0.178598,-0.185854 -0.496384,-0.288327 -0.79437,-0.309834 z " class="ColorScheme-Text"/>
</svg>
