<svg width="24" version="1.1" xmlns="http://www.w3.org/2000/svg" viewBox="0 0 24 24" height="24">
<defs id="defs3051">
<style type="text/css" id="current-color-scheme">
.ColorScheme-Text {
color:#4d4d4d;
}
</style>
</defs>
<path style="fill:currentColor;fill-opacity:1;stroke:none" id="path4" d="m 20.4524,3.0084 a 2.24999,10.125 44 0,0 -8.37574,5.73499 2.24999,10.125 44 0,0 -3.98573,4.62754 c 1.21053,0.385479 2.15451,1.32949 2.53997,2.54009 a 2.24999,10.125 44 0,0 4.62731,-3.98592 2.24999,10.125 44 0,0 5.56771,-8.7497 2.24999,10.125 44 0,0 -0.373524,-0.166999 m -12.9525,11.9885 c -4.49989,1.2058 -1.12497,4.05446 -4.49987,6.00306 4.50369,0 6.74981,-2.25097 6.74981,-3.75301 0,-0.748006 0.076048,-2.12567 -2.24994,-2.25005 z " class="ColorScheme-Text"/>
</svg>
