<svg width="24" version="1.1" xmlns="http://www.w3.org/2000/svg" viewBox="0 0 24 24" height="24">
<defs id="defs3051">
<style type="text/css" id="current-color-scheme">
.ColorScheme-Text {
color:#4d4d4d;
}
</style>
</defs>
<path style="fill:currentColor;fill-opacity:1;stroke:none" id="path823" d="m 6.9395,3 c -0.45433,0 -0.894701,0.106435 -1.30078,0.248047 l 2.1426,2.1406 c 0.4407,0.440708 0.4407,1.14325 0,1.58398 l -.8066,.8086 c -0.4407,0.44072 -1.14329,0.44072 -1.58398,0 l -2.1426,-2.1445 c -0.141579,0.40607 -0.248047,0.846418 -0.248047,1.30078 0,2.17471 1.76487,3.9375 3.93945,3.9375 0.45433,0 0.892754,-0.10255 1.29883,-0.244141 1.69805,1.73466 3.41299,3.41394 5.13281,5.13281 -0.141579,0.406126 -0.246094,0.844471 -0.246094,1.29883 0,2.17472 1.76096,3.9375 3.93555,3.9375 0.493159,0 0.975105,-0.115677 1.41016,-0.28125 l -2.2852,-2.2852 c -0.4407,-0.440731 -0.4407,-1.17646 0,-1.61719 l .7715,-.7715 c 0.220343,-0.220373 0.522985,-0.353516 0.810547,-0.353516 0.287572,0 0.588238,0.133143 0.808594,0.353516 l 2.2129,2.2148 c 0.119293,-0.376029 0.210938,-0.781733 0.210938,-1.19727 0,-2.17471 -1.76292,-3.9375 -3.9375,-3.9375 -0.45433,0 -0.892771,0.104508 -1.29883,0.246094 -1.71585,-1.72903 -3.43792,-3.40727 -5.13281,-5.13281 0.141579,-0.406081 0.244141,-0.84643 0.244141,-1.30078 0,-2.17472 -1.76097,-3.9375 -3.93555,-3.9375 z  m 5.0605,1 v 1 h 7 v 7 h 1 v -8 h -8 z  m -8,8 v 8 h 8 v -1 h -7 v -7 h -1 z " class="ColorScheme-Text"/>
</svg>
