<svg width="24" version="1.1" xmlns="http://www.w3.org/2000/svg" viewBox="0 0 24 24" height="24">
<defs id="defs3051">
<style type="text/css" id="current-color-scheme">
.ColorScheme-Text {
color:#4d4d4d;
}
</style>
</defs>
<path style="fill:currentColor;fill-opacity:1;stroke:none" id="path837" d="m 12,3 c -2.11287,0 -4.04583,0.725423 -5.57812,1.93555 -0.00575,0.00453 -0.0118461,0.0091179 -0.0175781,0.0136719 -0.059678,0.047367 -0.11931,0.0937359 -0.177734,0.142578 l -.9668,-1.0918 h -2.25977 v 2.38477 l 1.1738,1.1719 c -0.742726,1.31017 -1.17383,2.82385 -1.17383,4.44336 0,1.61951 0.431102,3.13319 1.17383,4.44336 l -1.1738,1.1738 v 2.38281 h 2.25977 l .9648,-1.0918 c 0.058425,0.04884 0.12001,0.095216 0.179688,0.142578 0.00574,0.0045 0.0118331,0.009182 0.0175781,0.013672 1.5323,1.21012 3.46526,1.93555 5.57812,1.93555 2.20325,0 4.21226,-0.786695 5.77344,-2.0918 l .9688,1.0918 h 2.25781 v -2.38281 l -1.1738,-1.1738 c 0.742726,-1.31017 1.17383,-2.82385 1.17383,-4.44336 0,-1.61951 -0.431102,-3.13319 -1.17383,-4.44336 l 1.1738,-1.1719 v -2.38477 h -2.25781 l -.9688,1.0918 c -0.058421,-0.048842 -0.118057,-0.0952109 -0.177735,-0.142578 -0.0057,-0.0045401 -0.011818,-0.0091379 -0.017578,-0.0136719 -1.53229,-1.21012 -3.46526,-1.93555 -5.57812,-1.93555 z  m 0,1.125 c 1.39553,0 2.70157,0.362513 3.83594,0.994141 l -2.5781,2.5781 c -0.401,-0.116445 -0.818262,-0.197266 -1.25781,-0.197266 -0.43955,0 -0.856815,0.0808208 -1.25781,0.197266 l -1.3223,-1.3223 -1.2559,-1.2559 c 1.13437,-0.631628 2.4404,-0.994141 3.83594,-0.994141 z  m -7.5371,.7949 l .9492,.9492 c -0.1606,0.172565 -0.316158,0.35029 -0.462891,0.535156 -0.0045401,0.00574 -0.0091379,0.0118331 -0.0136719,0.0175781 -0.045414,0.057504 -0.0868354,0.117145 -0.130859,0.175781 l -1.0098,-1.0098 .668,-.668 z  m 15.0742,0 l .668,.668 -1.0098,1.0098 c -0.190235,-0.25338 -0.391979,-0.497022 -0.607421,-0.728516 l .9492,-.9492 z  m -14.418,3.2441 l 2.5781,2.5801 c -0.116445,0.400997 -0.197266,0.816309 -0.197266,1.25586 0,0.43955 0.0808208,0.856815 0.197266,1.25781 l -1.3223,1.3223 -1.2559,1.2559 c -0.631628,-1.13437 -0.994141,-2.4404 -0.994141,-3.83594 0,-1.39553 0.362513,-2.70157 0.994141,-3.83594 z  m 13.7637,0 c 0.631628,1.13437 0.992188,2.4404 0.992188,3.83594 0,1.39553 -0.36056,2.70157 -0.992188,3.83594 l -1.2578,-1.2559 -1.3223,-1.3223 c 0.116445,-0.401 0.197266,-0.818262 0.197266,-1.25781 0,-0.43955 -0.080822,-0.854862 -0.197266,-1.25586 l 2.5801,-2.5801 z  m -6.8828,.4609 c 0.102566,0 0.198646,0.022385 0.298828,0.03125 0.444086,0.039319 0.859146,0.159998 1.23633,0.353516 0.626643,0.321506 1.13357,0.828435 1.45508,1.45508 0.193518,0.377181 0.314196,0.792244 0.353516,1.23633 0.0089,0.100187 0.03125,0.196262 0.03125,0.298828 0,0.102565 -0.02238,0.198646 -0.03125,0.298828 -0.03932,0.444086 -0.159998,0.859147 -0.353516,1.23633 -0.321506,0.626643 -0.828435,1.13357 -1.45508,1.45508 -0.377182,0.193518 -0.792243,0.314196 -1.23633,0.353516 -0.100187,0.008872 -0.196263,0.03125 -0.298828,0.03125 -0.102565,0 -0.198646,-0.02238 -0.298828,-0.03125 -0.444086,-0.03932 -0.859145,-0.159998 -1.23633,-0.353516 -0.626642,-0.321508 -1.13357,-0.828435 -1.45508,-1.45508 -0.193518,-0.377182 -0.314195,-0.792242 -0.353516,-1.23633 -0.0088706,-0.100182 -0.03125,-0.196263 -0.03125,-0.298828 0,-0.102565 0.022379,-0.198646 0.03125,-0.298828 0.03932,-0.444086 0.159998,-0.859146 0.353516,-1.23633 0.321506,-0.626644 0.828436,-1.13357 1.45508,-1.45508 0.377183,-0.193518 0.792242,-0.314196 1.23633,-0.353516 0.100182,-0.0088706 0.196263,-0.03125 0.298828,-0.03125 z  m -1.2578,7.6777 c 0.400996,0.116445 0.818262,0.197266 1.25781,0.197266 0.43955,0 0.856815,-0.080812 1.25781,-0.197266 l 2.5781,2.5801 c -1.13437,0.631628 -2.4404,0.992188 -3.83594,0.992188 -1.39553,0 -2.70157,-0.36056 -3.83594,-0.992188 l 1.2559,-1.2578 1.3223,-1.3223 z  m -5.9375,1.0996 c 0.190236,0.25338 0.39198,0.497022 0.607422,0.728515 l -.9492,.9492 -.668,-.668 1.0098,-1.0098 z  m 14.3906,0 l 1.0098,1.0098 -.668,.668 -.9492,-.9492 c 0.215442,-0.231493 0.417187,-0.475135 0.607421,-0.728515 z " class="ColorScheme-Text"/>
</svg>
