<svg width="16" version="1.1" xmlns="http://www.w3.org/2000/svg" viewBox="0 0 16 16" height="16">
<defs id="defs3051">
<style type="text/css" id="current-color-scheme">
.ColorScheme-Text {
color:#4d4d4d;
}
</style>
</defs>
<path style="fill:currentColor" d="m 1,1 v 2 h 1 v -1 h 1 v -1 h -2 z  m 3,0 v 1 h 2 v -1 h -2 z  m 3,0 v 1 h 2 v -1 h -2 z  m 3,0 v 1 h 2 v -1 h -2 z  m 3,0 v 1 h 1 v 1 h 1 v -2 h -2 z  m -12,3 v 2 h 1 v -2 h -1 z  m 3,0 v 8 h 8 v -8 h -8 z  m 10,0 v 2 h 1 v -2 h -1 z  m -13,3 v 2 h 1 v -2 h -1 z  m 13,0 v 2 h 1 v -2 h -1 z  m -13,3 v 2 h 1 v -2 h -1 z  m 13,0 v 2 h 1 v -2 h -1 z  m -13,3 v 2 h 2 v -1 h -1 v -1 h -1 z  m 13,0 v 1 h -1 v 1 h 2 v -2 h -1 z  m -10,1 v 1 h 2 v -1 h -2 z  m 3,0 v 1 h 2 v -1 h -2 z  m 3,0 v 1 h 2 v -1 h -2 z " class="ColorScheme-Text"/>
</svg>
