<svg width="16" version="1.1" xmlns="http://www.w3.org/2000/svg" height="16" viewBox="0 0 16 16">
<defs id="defs3051">
<style type="text/css" id="current-color-scheme">
.ColorScheme-Text {
color:#4d4d4d;
}
</style>
</defs>
<path style="fill:currentColor" d="m .5,0 c -0.276142,0 -0.5,0.223858 -0.5,0.5 v 1 c 0,0.27614 0.223858,0.5 0.5,0.5 h 0.5 v 12 h -0.5 c -0.276142,0 -0.5,0.2239 -0.5,0.5 v 1 c 0,0.2761 0.223858,0.5 0.5,0.5 h 1 c 0.27614,0 0.5,-0.2239 0.5,-0.5 v -0.5 h 12 v 0.5 c 0,0.2761 0.2239,0.5 0.5,0.5 h 1 c 0.2761,0 0.5,-0.2239 0.5,-0.5 v -1 c 0,-0.2761 -0.2239,-0.5 -0.5,-0.5 h -0.5 v -12 h 0.5 c 0.2761,0 0.5,-0.22386 0.5,-0.5 v -1 c 0,-0.276142 -0.2239,-0.5 -0.5,-0.5 h -1 c -0.2761,0 -0.5,0.223858 -0.5,0.5 v 0.5 h -12 v -0.5 c 0,-0.276142 -0.22386,-0.5 -0.5,-0.5 h -1 z  m 1.5,2 h 12 v 12 h -12 v -12 z  m 2.5,2 c -0.27614,0 -0.5,0.22386 -0.5,0.5 v 7 c 0,0.2761 0.22386,0.5 0.5,0.5 h 2 c 0.27614,0 0.5,-0.2239 0.5,-0.5 v -7 c 0,-0.27614 -0.22386,-0.5 -0.5,-0.5 h -2 z  m 5,2 c -0.27614,0 -0.5,0.22386 -0.5,0.5 v 3 c 0,0.27614 0.22386,0.5 0.5,0.5 h 2 c 0.2761,0 0.5,-0.22386 0.5,-0.5 v -3 c 0,-0.27614 -0.2239,-0.5 -0.5,-0.5 h -2 z " class="ColorScheme-Text"/>
</svg>
