<svg width="16" version="1.1" xmlns="http://www.w3.org/2000/svg" height="16" viewBox="0 0 16 16">
<defs id="defs3051">
<style type="text/css" id="current-color-scheme">
.ColorScheme-Text {
color:#4d4d4d;
}
</style>
</defs>
<path style="fill:currentColor" d="m 8,-0 v 2 h -1 v 3 h 1 v 2 h -1 v 3 h 1 v 2 h -1 v 3 h 1 v 1 h 1 v -1 h 1 v -3 h -1 v -2 h 1 v -3 h -1 v -2 h 1 v -3 h -1 v -2 Z " class="ColorScheme-Text"/>
<path style="fill:currentColor" d="m 6.0025,2.7692 c -0.905934,-0.0075985 -1.7774,-0.202052 -2.38153,-0.517347 -0.402734,-0.210197 -0.677267,-0.465504 -0.819734,-0.724571 -0.0890667,-0.16192 -0.134533,-0.326626 -0.134533,-0.527245 h -1.33333 c 0,2.09556 2.4164,3.0834 4.65794,3.10217 z  m 5.008,6.3239 c 1.76247,-0.028594 2.63933,-1.68649 2.63933,-3.11165 0,-1.401 -0.960933,-3.13802 -2.655,-3.12565 l .01,1.333 c 0.298334,-0.002 0.527867,0.111351 0.749201,0.337484 0.332066,0.33919 0.562733,0.95827 0.562733,1.45514 0,0.444842 -0.141,0.929863 -0.375333,1.25842 -0.1172,0.164273 -0.2534,0.290694 -0.406601,0.377643 -0.1532,0.086949 -0.324266,0.139111 -0.545667,0.142704 z  m -4.9554,3.7478 c -0.741,-0.009065 -1.2872,-0.230426 -1.64133,-0.542676 -0.354067,-0.312242 -0.539067,-0.71266 -0.537134,-1.22044 0,-0.352174 0.140933,-0.716093 0.399467,-1.03397 0.387733,-0.476822 1.03167,-0.822385 1.7436,-0.825631 l -.0067,-1.3331 c -1.85887,0.00847 -3.46154,1.47218 -3.47027,3.18673 -0.00667,1.78295 1.43047,3.07674 3.49554,3.102 z  m 8.6755,2.1653 c -0.0073,-0.320014 -0.105267,-0.610888 -0.284,-0.86073 -0.621134,-0.868302 -2.11093,-1.04935 -3.3714,-1.1208 l -.0755,1.3309 c 0.492267,0.02793 0.941868,0.07372 1.315,0.143164 0.3732,0.06943 0.668667,0.166526 0.844201,0.262586 0.117,0.06405 0.176666,0.122602 0.203133,0.159601 0.02667,0.03699 0.034,0.05206 0.03533,0.115656 z " class="ColorScheme-Text"/>
</svg>
