<svg width="16" version="1.1" xmlns="http://www.w3.org/2000/svg" viewBox="0 0 16 16" height="16">
<defs id="defs3051">
<style type="text/css" id="current-color-scheme">
.ColorScheme-Text {
color:#4d4d4d;
}
</style>
</defs>
<path style="fill:currentColor" d="m 2,6 v 1 h -2 v 1 h 2 v 1 h 3 v -1 h 2 v 1 h 3 v -1 h 2 v 1 h 3 v -1 h 1 v -1 h -1 v -1 h -3 v 1 h -2 v -1 h -3 v 1 h -2 v -1 Z " class="ColorScheme-Text"/>
<path style="fill:currentColor" d="m 4.1025,10.0085 c -0.019063,2.24147 -1.00659,4.65787 -3.10221,4.65787 v -1.33333 c 0.200632,0 0.365325,-0.04533 0.527225,-0.134467 0.259047,-0.142533 0.514328,-0.417067 0.724511,-0.8198 0.315282,-0.604134 0.509762,-1.4756 0.517467,-2.3816 Z  m 4.991,-4.9863 c -0.0033326,-0.221467 -0.0557885,-0.392533 -0.142731,-0.545734 -0.0869555,-0.1532 -0.213376,-0.2894 -0.377649,-0.4066 -0.328553,-0.234334 -0.813553,-0.375334 -1.2584,-0.375334 -0.496845,0 -1.11592,0.230667 -1.45513,0.562734 -0.226134,0.221333 -0.339664,0.450867 -0.337491,0.7492 l -1.333,.01 c -0.012331,-1.69407 1.72471,-2.655 3.12564,-2.655 1.42516,0 3.08295,0.876867 3.11166,2.63927 z  m 6.4137,4.9825 c -0.02526,2.06507 -1.31905,3.50227 -3.10284,3.49553 -1.71368,-0.0087 -3.17745,-1.6114 -3.18587,-3.47034 l 1.3331,-.0067 c 0.00333,0.711867 0.348775,1.3558 0.825611,1.74353 0.317888,0.258533 0.681827,0.397667 1.03313,0.399467 0.508629,0 0.909034,-0.183067 1.22128,-0.537134 0.312243,-0.354133 0.533604,-0.900334 0.542669,-1.64133 z  m .8628,-7.3204 c -0.06359,0 -0.07863,0.00933 -0.115637,0.035333 -0.03699,0.026667 -0.09556,0.086133 -0.159607,0.203133 -0.09606,0.175533 -0.19316,0.471 -0.262599,0.8442 -0.06943,0.373133 -0.115257,0.822734 -0.143144,1.315 l -1.3309,-.0755 c 0.07141,-1.26047 0.252509,-2.75027 1.12078,-3.3714 0.249842,-0.178733 0.540709,-0.276733 0.860723,-0.284 z " class="ColorScheme-Text"/>
</svg>
