<svg width="16" version="1.1" xmlns="http://www.w3.org/2000/svg" height="16">
<defs id="defs3051">
<style type="text/css" id="current-color-scheme">
.ColorScheme-Text {
color:#da4453;
}
</style>
</defs>
<path style="fill:currentColor;fill-opacity:1;stroke:none" id="path11066" d="m 8.2031,1.002 c -3.9443,-0.114503 -7.20369,3.05209 -7.20312,6.99805 0,3.86646 3.13354,7.00118 7,7.00118 3.86646,0 7,-3.13472 7,-7.00118 0,-3.78728 -3.01119,-6.88815 -6.79688,-6.99805 Z  m -.2148,1.1387 c 0.443489,-0.0065305 1.01172,0.210205 1.01172,0.806641 v 3.89844 c 0,1.10317 -2,1.10317 -2,0 v -3.89844 c 0,-0.569286 0.544792,-0.80011 0.988281,-0.806641 Z  m -2.207,1.4375 c 0.852269,-0.0460895 1.16902,1.1 0.414062,1.49805 -1.48874,0.822758 -1.84806,2.32139 -1.45508,3.7168 0.392978,1.3954 1.52508,2.54492 3.23242,2.54492 1.70113,0 2.86882,-1.10128 3.27734,-2.44922 0.408519,-1.34794 0.07458,-2.85247 -1.53125,-3.83008 -0.906389,-0.552049 -0.078264,-1.91142 0.828125,-1.35937 2.1794,1.32679 2.81838,3.69959 2.22656,5.65234 -0.59182,1.95275 -2.39588,3.57617 -4.80078,3.57617 -2.44194,0 -4.20608,-1.72319 -4.76367,-3.70312 -0.557595,-1.97994 0.0761336,-4.35797 2.2168,-5.54102 0.108528,-0.062664 0.230326,-0.0988017 0.355469,-0.105469 Z " class="ColorScheme-Text"/>
</svg>
