<svg width="16" version="1.1" xmlns="http://www.w3.org/2000/svg" height="16">
<defs id="defs3051">
<style type="text/css" id="current-color-scheme">
.ColorScheme-Text {
color:#da4453;
}
</style>
</defs>
<path style="fill:currentColor;fill-opacity:1;stroke:none" d="m 7.9844,1 c -0.575561,0.0084714 -0.984375,0.30805 -0.984375,1.04688 v 4.95898 c 0,1.32384 2,1.35979 2,0 v -4.95898 c 0,-0.774058 -0.440071,-1.05533 -1.01562,-1.04688 z  m -2.9883,2.3047 a 0.750075,0.750075 0 0,0 -0.402344,0.125 c -1.79456,1.15659 -2.88039,3.14822 -2.88086,5.2832 0,3.46365 2.82346,6.2876 6.28711,6.28711 3.46365,0 6.2876,-2.82346 6.28711,-6.28711 -0.0027,-2.13262 -1.08828,-4.12203 -2.88086,-5.27734 a 0.750348,0.750348 0 1,0 -0.8125,1.26172 c 1.36624,0.88054 2.19128,2.39021 2.19336,4.01562 0,2.65284 -2.13427,4.78749 -4.78711,4.78711 -2.65284,0 -4.78749,-2.13427 -4.78711,-4.78711 0,-1.62721 0.825604,-3.13997 2.19336,-4.02148 a 0.750075,0.750075 0 0,0 -0.410156,-1.38672 z " class="ColorScheme-Text"/>
</svg>
