<svg width="16" version="1.1" xmlns="http://www.w3.org/2000/svg" viewBox="0 0 16 16" height="16">
<defs id="defs3051">
<style type="text/css" id="current-color-scheme">
.ColorScheme-Text {
color:#4d4d4d;
}
</style>
</defs>
<path style="fill:currentColor" d="m 8.0625,0 c -1.05523,0 -2.10892,0.210895 -3.09766,0.630859 l 2.0273,3.5156 c 0.708974,-0.192435 1.41726,-0.197402 2.14453,0 l 2.0273,-3.5156 c -1,-0.420499 -2.04633,-0.630993 -3.10156,-0.630859 z  m -4.8262,1.6367 c -1.67076,1.27379 -2.83384,3.18699 -3.10937,5.36328 h 4.06445 c 0.18178,-0.722565 0.552823,-1.3639 1.06445,-1.86523 l -2.0195,-3.498 z  m 9.6562,0 l -2.0195,3.498 c 0.51163,0.501337 0.882673,1.14267 1.06445,1.86523 h 4.0625 c -0.275538,-2.17629 -1.43667,-4.08949 -3.10742,-5.36328 z  m -12.7656,7.3633 c 0.275538,2.17629 1.43862,4.09144 3.10937,5.36523 l 2.0195,-3.5 c -0.511631,-0.501337 -0.882674,-1.14267 -1.06445,-1.86523 h -4.06445 z  m 11.8105,0 c -0.18178,0.722565 -0.552823,1.3639 -1.06445,1.86523 l 2.0195,3.5 c 1.67075,-1.27379 2.83188,-3.18894 3.10742,-5.36523 h -4.0625 z  m -4.9453,2.8535 l -2.0273,3.5176 c 1.98,0.840997 4.22175,0.839927 6.19922,0 l -2.0273,-3.5176 c -0.708987,0.192438 -1.41729,0.197397 -2.14453,0 z " class="ColorScheme-Text"/>
</svg>
