<svg width="16" version="1.1" xmlns="http://www.w3.org/2000/svg" height="16" viewBox="0 0 16 16">
<defs id="defs3051">
<style type="text/css" id="current-color-scheme">
.ColorScheme-Text {
color:#4d4d4d;
}
</style>
</defs>
<path style="fill:currentColor" d="m 1.5312,1 c -0.134806,0 -0.26369,0.055456 -0.357422,0.152344 -0.0897367,0.0927653 -0.173278,0.216638 -0.173778,0.345703 l -0,12.5371 c -0.0249705,0.689839 1.02232,0.691884 1,0.002 v -12.0371 h 12.0351 c 0.708311,0.044333 0.708311,-1.04438 0,-1 h -12.5039 z  m 3.5723,4.8399 c -2.54458,3.29709 -2.35352,7.55273 -2.35352,7.55273 0.042969,1.33333 2.04297,1.26888 2,-0.06445 0,0 -0.056459,-3.68705 1.93359,-6.26562 1.65153,-2.1399 5.48209,-2.12531 6.54297,-2.03125 1.37658,0.196618 1.58745,-1.90787 0.199219,-1.98828 -0.470786,-0.0458046 -5.78942,-0.484839 -8.32221,2.79692 Z " class="ColorScheme-Text"/>
</svg>
