<svg width="16" version="1.1" xmlns="http://www.w3.org/2000/svg" height="16">
<defs id="defs3051">
<style type="text/css" id="current-color-scheme">
.ColorScheme-Text {
color:#4d4d4d;
}
</style>
</defs>
<path style="fill:currentColor;fill-opacity:1;stroke:none" id="path4488" d="m 11.938,1 c 0.3534,0 0.694368,0.081888 1.01023,0.192025 l -1.6674,1.6688 c -0.342798,0.342751 -0.342798,0.886576 0,1.22936 l .6297,.6295 c 0.342799,0.342761 0.887143,0.342761 1.22993,0 l 1.6693,-1.6669 c 0.110127,0.315812 0.190276,0.656246 0.190276,1.00962 0,1.69134 -1.37058,3.0625 -3.06207,3.0625 -0.3534,0 -0.69633,-0.079928 -1.01219,-0.190045 -1.71684,1.77189 -2.1768,2.21632 -3.99187,3.99293 0.110127,0.315856 0.192238,0.656254 0.192238,1.00962 0,1.69134 -1.37254,3.0625 -3.06403,3.0625 -0.383604,0 -0.754204,-0.08899 -1.09261,-0.21776 l 1.7753,-1.7777 c 0.342799,-0.342769 0.342799,-0.914292 0,-1.25707 l -.6003,-.6018 c -0.171395,-0.171389 -0.405996,-0.273191 -0.629677,-0.273191 -0.223688,0 -0.458273,0.101801 -0.629675,0.273191 l -1.7203,1.7223 c -0.09279,-0.292448 -0.164775,-0.607264 -0.164775,-0.930429 0,-1.69134 1.37058,-3.0625 3.06207,-3.0625 0.353401,0 0.69634,0.081906 1.01219,0.192025 1.86374,-1.83566 2.69465,-2.63201 3.99187,-3.99293 -0.110127,-0.315821 -0.190276,-0.658228 -0.190276,-1.01159 0,-1.69134 1.37058,-3.0625 3.06207,-3.0625 z " class="ColorScheme-Text"/>
</svg>
