<svg width="16" version="1.1" xmlns="http://www.w3.org/2000/svg" height="16" viewBox="0 0 16 16">
<defs id="defs3051">
<style type="text/css" id="current-color-scheme">
.ColorScheme-Text {
color:#4d4d4d;
}
</style>
</defs>
<path style="fill:currentColor" d="M 10,1 C 9.446,1 9,1.446 9,2 H 7 V 13 H 6 C 6,12.446 5.554,12 5,12 H 1 c -0.554,0 -1,0.446 -1,1 v 1 c 0,0.554 0.446,1 1,1 h 4 c 0.554,0 1,-0.446 1,-1 H 8 V 13 3 h 1 c 0,0.554 0.446,1 1,1 h 4 c 0.554,0 1,-0.446 1,-1 V 2 C 15,1.446 14.554,1 14,1 Z" class="ColorScheme-Text"/>
</svg>
