<svg width="16" version="1.1" xmlns="http://www.w3.org/2000/svg" height="16" viewBox="0 0 16 16">
<defs id="defs3051">
<style type="text/css" id="current-color-scheme">
.ColorScheme-Text {
color:#4d4d4d;
}
</style>
</defs>
<path style="fill:currentColor" d="m 1,1 c -0.554,0 -1,0.446 -1,1 v 1 c 0,0.554 0.446,1 1,1 h 4 c 0.112552,0 0.221464,-0.0187516 0.322266,-0.0527344 l 1.1895,2.0527 h -3.51172 v 4 h 5.82617 l 1.3828,2.3867 c -0.130958,0.169073 -0.208984,0.381913 -0.208984,0.613281 v 1 c 0,0.554 0.446,1 1,1 h 4 c 0.554,0 1,-0.446 1,-1 v -1 c 0,-0.554 -0.446,-1 -1,-1 h -3.35156 l -1.1582,-2 h 2.50977 v -4 h -4.82617 l -2.1738,-3.752 v -0.248047 c 0,-0.554 -0.446,-1 -1,-1 h -4 z  m 3,6 h 3.08984 l 1.1582,2 h -4.24805 v -2 z  m 4.752,0 h 3.24805 v 2 h -2.08984 l -1.1582,-2 z " class="ColorScheme-Text"/>
</svg>
