<svg width="16" version="1.1" xmlns="http://www.w3.org/2000/svg" height="16" viewBox="0 0 16 16">
<defs id="defs3051">
<style type="text/css" id="current-color-scheme">
.ColorScheme-Text {
color:#4d4d4d;
}
</style>
</defs>
<path style="fill:currentColor" d="M 1,1 C 0.446,1 0,1.446 0,2 V 3 C 0,3.554 0.446,4 1,4 H 5 C 5.554,4 6,3.554 6,3 h 7 v 9 h -2 c -0.554,0 -1,0.446 -1,1 v 1 c 0,0.554 0.446,1 1,1 h 4 c 0.554,0 1,-0.446 1,-1 v -1 c 0,-0.554 -0.446,-1 -1,-1 H 14 V 2 H 6 C 6,1.446 5.554,1 5,1 Z m 1,5 v 4 h 9 V 6 Z m 1,1 h 7 V 9 H 3 Z" class="ColorScheme-Text"/>
</svg>
