<svg width="16" xmlns="http://www.w3.org/2000/svg" height="16" viewBox="0 0 16 16">
<defs id="defs3051">
<style type="text/css" id="current-color-scheme">
.ColorScheme-Text {
color:#4d4d4d;
}
</style>
</defs>
<path style="fill:currentColor" d="M6.5 4C7.32843 4 8 3.32843 8 2.5C8 1.67157 7.32843 1 6.5 1C5.67157 1 5 1.67157 5 2.5C5 3.32843 5.67157 4 6.5 4ZM8.94547 3.02177C8.70549 4.15203 7.70177 5 6.5 5C5.29052 5 4.28164 4.14112 4.05001 3H1.5C1.22386 3 1 2.77614 1 2.5C1 2.22386 1.22386 2 1.5 2H4.05001C4.28164 0.85888 5.29052 0 6.5 0C7.71599 0 8.72921 0.868147 8.95366 2.01844C11.6294 2.23691 13.7631 4.3706 13.9816 7.04634C15.1319 7.27079 16 8.28401 16 9.5C16 10.7095 15.1411 11.7184 14 11.95V14.5C14 14.7761 13.7761 15 13.5 15C13.2239 15 13 14.7761 13 14.5V11.95C11.8589 11.7184 11 10.7095 11 9.5C11 8.29823 11.848 7.29451 12.9782 7.05453C12.769 4.9249 11.0751 3.23105 8.94547 3.02177ZM13.5 11C14.3284 11 15 10.3284 15 9.5C15 8.67157 14.3284 8 13.5 8C12.6716 8 12 8.67157 12 9.5C12 10.3284 12.6716 11 13.5 11Z" class="ColorScheme-Text"/>
</svg>
