<svg width="16" version="1.1" xmlns="http://www.w3.org/2000/svg" height="16" viewBox="0 0 16 16">
<defs id="defs3051">
<style type="text/css" id="current-color-scheme">
.ColorScheme-Text {
color:#4d4d4d;
}
</style>
</defs>
<path style="fill:currentColor" d="m 13.5625,1 a 1.5,1.5 0 0,0 -1.47852,1.25195 c -1.26089,0.339804 -2.47606,0.824097 -3.59961,1.45508 -0.178734,-0.711056 -0.0359365,-1.57631 0.439453,-2.59375 -1.35383,0.819255 -2.12834,2.1826 -1.81445,3.47461 -1.18403,0.862584 -2.22593,1.9187 -3.06055,3.17578 -0.690725,-0.781658 -1.05297,-1.96513 -1.06641,-3.55469 -1.18808,1.78598 -1.27072,4 0.0507812,5.42188 -0.325438,0.745865 -0.587765,1.5451 -0.777344,2.40039 a 1.5,1.5 0 0,0 -1.19336,1.46875 1.5,1.5 0 0,0 1.5,1.5 1.5,1.5 0 0,0 1.5,-1.5 1.5,1.5 0 0,0 -0.806641,-1.33008 c 0.164037,-0.726439 0.384407,-1.40735 0.652344,-2.04492 1.25883,0.423137 2.5515,0.09802 4.09375,-1.28711 -1.31153,0.172179 -2.37677,0.0248945 -3.18359,-0.443359 0.762007,-1.18064 1.72096,-2.16681 2.82031,-2.9707 0.772168,0.672537 1.81667,0.837201 3.39453,0.339844 -0.959814,-0.257179 -1.66066,-0.647535 -2.0957,-1.16992 1.03327,-0.576701 2.15413,-1.02157 3.32812,-1.33984 a 1.5,1.5 0 0,0 1.29688,0.746094 1.5,1.5 0 0,0 1.5,-1.5 1.5,1.5 0 0,0 -1.5,-1.5 z " class="ColorScheme-Text"/>
</svg>
