<svg width="16" version="1.1" xmlns="http://www.w3.org/2000/svg" height="16" viewBox="0 0 16 16">
<defs id="defs3051">
<style type="text/css" id="current-color-scheme">
.ColorScheme-Text {
color:#4d4d4d;
}
</style>
</defs>
<path style="fill:currentColor;fill-opacity:.4" d="m 4.504,14.8322 v -3.26608 c 0,-0.133107 -0.071866,-0.255851 -0.187844,-0.321118 -0.115982,-0.06521 -0.258328,-0.06293 -0.372041,0.0064 -0.302199,0.184233 -0.657071,0.290275 -1.03831,0.290275 -1.11106,0.00031 -2.01141,-0.900299 -2.01141,-2.0112 0,-1.11081 0.900346,-2.01157 2.01134,-2.01141 v 0 c 0.38133,0 0.736108,0.105978 1.03837,0.290249 0.113713,0.069341 0.25612,0.071885 0.372224,0.00663 0.116104,-0.065271 0.187661,-0.188139 0.187661,-0.32134 v -2.32792 c 0,-0.368694 0.309926,-0.665228 0.678746,-0.665228 h 2.54103 c 0.130359,0 0.251031,-0.068915 0.317283,-0.181146 0.066252,-0.112259 0.068369,-0.251254 0.00529,-0.365323 -0.160037,-0.289054 -0.251092,-0.62219 -0.251092,-0.975499 0,-1.11075 0.90056,-2.01184 2.01171,-2.01184 1.11081,0 2.01122,0.901402 2.01122,2.01218 0,0.353249 -0.09105,0.68623 -0.251,0.975193 -0.06319,0.114129 -0.06129,0.253155 0.005,0.365506 0.06629,0.112354 0.187057,0.180932 0.317478,0.180932 h 2.93539 c 0.368882,0 0.674884,0.296534 0.674884,0.665228 v 2.26903 c 0,0.129704 -0.06825,0.249847 -0.179629,0.316306 -0.111381,0.066462 -0.249651,0.06959 -0.36373,0.00788 -0.284113,-0.153648 -0.609368,-0.240894 -0.955041,-0.240802 -1.11103,0 -2.01156,0.900576 -2.01156,2.01139 0,1.1109 0.900531,2.01151 2.01156,2.0112 0.345704,0 0.670959,-0.08728 0.95507,-0.240863 0.114203,-0.06175 0.252441,-0.05886 0.363947,0.0077 0.111473,0.06654 0.179413,0.186778 0.179413,0.316542 v 3.20718 c 0,0.368879 -0.305982,0.667804 -0.674001,0.669279 l -2.9058,.0015 c -0.129704,0 -0.249847,-0.06825 -0.316306,-0.179629 -0.06646,-0.111381 -0.06959,-0.249651 -0.0079,-0.36373 0.153648,-0.284113 0.240894,-0.609368 0.240802,-0.955041 0,-1.11103 -0.900576,-2.01156 -2.01139,-2.01156 -1.1109,0 -2.01151,0.900531 -2.0112,2.01156 0,0.345704 0.08728,0.670959 0.240863,0.95507 0.06175,0.114203 0.05886,0.252441 -0.0077,0.363947 -0.06654,0.111473 -0.186778,0.179413 -0.316542,0.179413 l -2.549,-.0015 c -0.367771,-0.001505 -0.677789,-0.30043 -0.677789,-0.669309 Z " class="ColorScheme-Text"/>
<path style="fill:currentColor" d="m 9.8066,.4668 c -1.38147,0 -2.51172,1.13072 -2.51172,2.51172 0,0.368795 0.11959,0.705803 0.263672,1.02344 h -2.375 c -0.636822,0 -1.17969,0.515168 -1.17969,1.16406 v 2.16016 c -0.336544,-0.16847 -0.697046,-0.306707 -1.09766,-0.306641 -1.38129,0 -2.51176,1.13072 -2.51172,2.51172 0,1.38106 1.13039,2.51015 2.51172,2.50977 0.400509,0 0.761123,-0.138184 1.09766,-0.306641 v 3.09766 c 0,0.649023 0.538225,1.16732 1.17578,1.16992 h 0.00195 l 2.5488,.002 c 0.304285,0 0.589511,-0.161509 0.746094,-0.423828 0.156513,-0.262201 0.162724,-0.588982 0.017578,-0.857422 -0.115353,-0.213389 -0.179688,-0.457203 -0.179688,-0.71875 0,-0.840754 0.671025,-1.51172 1.51172,-1.51172 0.840576,0 1.50986,0.670948 1.50977,1.51172 0,0.261458 -0.06432,0.505423 -0.179687,0.71875 -0.145466,0.269 -0.138643,0.59561 0.01758,0.857422 0.156227,0.261821 0.440659,0.423986 0.746094,0.423828 l 2.9062,-.002 h 0.0019 c 0.637707,-0.002556 1.17191,-0.524563 1.17193,-1.16992 v -3.20703 c 0,-0.304286 -0.161507,-0.58951 -0.423828,-0.746094 -0.262201,-0.156513 -0.588983,-0.162724 -0.857422,-0.01758 -0.21339,0.115353 -0.45525,0.179688 -0.716797,0.179688 -0.840754,0 -1.51172,-0.669073 -1.51172,-1.50977 0,-0.840578 0.670949,-1.51181 1.51172,-1.51172 0.261458,0 0.50347,0.064321 0.716797,0.179688 0.26901,0.145518 0.595604,0.138651 0.857422,-0.017578 0.261898,-0.15627 0.423828,-0.440989 0.423828,-0.746092 v -2.26953 c 0,-0.645347 -0.538943,-1.16406 -1.17578,-1.16406 h -2.76953 c 0.143931,-0.317441 0.263671,-0.652838 0.263671,-1.02148 0,-1.38098 -1.13041,-2.51367 -2.51172,-2.51367 z  m 0,1 c 0.84032,0 1.51172,0.673098 1.51172,1.51367 0,0.267332 -0.06939,0.515512 -0.189453,0.732422 -0.148594,0.26838 -0.142229,0.5971 0.01367,0.861328 0.156096,0.264565 0.442353,0.427734 0.748047,0.427734 h 2.93359 c 0.100926,0 0.175783,0.0720221 0.175783,0.164062 v 2.10547 c -0.310727,-0.137293 -0.638483,-0.252048 -0.998047,-0.251953 -1.38129,0 -2.51172,1.13068 -2.51172,2.51172 0,1.38111 1.13041,2.51015 2.51172,2.50977 0.359541,0 0.687379,-0.11472 0.998047,-0.251953 v 3.04297 c 0,0.0924 -0.0774,0.169528 -0.175781,0.169922 l -2.7402,.002 c 0.137771,-0.311175 0.252049,-0.639775 0.251954,-1 0,-1.38129 -1.12872,-2.51172 -2.50977,-2.51172 -1.38111,0 -2.5121,1.13041 -2.51172,2.51172 0,0.360203 0.114242,0.688884 0.251953,1 l -2.3828,-.002 h -0.00195 c -0.097235,-0.0013 -0.177734,-0.0817 -0.177734,-0.169922 v -3.26562 c 0,-0.313087 -0.17083,-0.60444 -0.443359,-0.757812 -0.272662,-0.153302 -0.609048,-0.147715 -0.876953,0.01563 -0.226466,0.138056 -0.488828,0.216792 -0.777347,0.216792 -0.840789,0 -1.51172,-0.669016 -1.51172,-1.50977 0,-0.840616 0.671013,-1.51184 1.51172,-1.51172 0.288584,0 0.550765,0.078665 0.777344,0.216797 0.267496,0.163117 0.60378,0.169159 0.876953,0.015625 0.273255,-0.153618 0.443359,-0.445542 0.443359,-0.757812 v -2.32812 c 0,-0.088494 0.078868,-0.164062 0.179688,-0.164062 h 2.54102 c 0.306577,0 0.592233,-0.163785 0.748047,-0.427734 0.155691,-0.263816 0.160307,-0.592588 0.011719,-0.861328 -0.120111,-0.216943 -0.189453,-0.466975 -0.189453,-0.734375 0,-0.840489 0.670885,-1.51172 1.51172,-1.51172 z " class="ColorScheme-Text"/>
</svg>
