<svg width="16" version="1.1" xmlns="http://www.w3.org/2000/svg" viewBox="0 0 16 16" height="16">
<defs id="defs3051">
<style type="text/css" id="current-color-scheme">
.ColorScheme-Text {
color:#4d4d4d;
}
</style>
</defs>
<path style="fill:currentColor" d="m 0,0 v 16 h 16 v -16 h -16 z  m 1,1 h 14 v 14 h -14 v -14 z  m 6,2 c -1.165,0.41093 -2,1.18673 -2,2.51172 0,0.522301 -0.182597,1.25118 -1,1.4043 l -1,.084 v 2 l 1,.082 c 0.712938,0.208964 1,0.814298 1,1.40234 0,1.34724 0.835,2.10469 2,2.51562 v -1.09375 c -0.596,-0.34494 -1,-0.781611 -1,-1.52148 -0.04366,-1.32274 -0.647929,-2.08514 -1.98047,-2.38867 1.17761,-0.41229 2.09964,-0.982759 1.98047,-2.38672 0,-0.739881 0.404,-1.17654 1,-1.52148 v -1.08789 z  m 2,0 v 1.08984 c 0.596,0.34494 1,0.78161 1,1.52148 0.04371,1.32226 0.648809,2.08329 1.98047,2.38672 -1.17816,0.41245 -2.09957,0.984442 -1.98047,2.38867 0,0.739881 -0.404,1.17654 -1,1.52148 v 1.0918 c 1.165,-0.41093 1.85841,-1.22712 2,-2.51367 0.054838,-0.498266 0.182642,-1.24994 1,-1.40234 h 1 v -2.08398 l -1,-.082 c -0.712853,-0.209923 -1,-0.836056 -1,-1.4043 0,-1.28586 -0.835,-2.10274 -2,-2.51367 z " class="ColorScheme-Text"/>
</svg>
