<svg width="16" version="1.1" xmlns="http://www.w3.org/2000/svg" height="16" viewBox="0 0 16 16">
<defs id="defs3051">
<style type="text/css" id="current-color-scheme">
.ColorScheme-Text {
color:#4d4d4d;
}
</style>
</defs>
<path style="fill:currentColor" d="m 8.373,.0332 c -0.264357,0.0159523 -0.512116,0.135429 -0.652344,0.373047 l -2.0254,3.4336 6.1699,5.1602 3.0312,-2.5938 c 0.345806,-0.411978 0.300438,-1.01844 -0.09375,-1.37695 l -2.9941,2.3398 2.3359,-2.8945 -1.4316,-1.1973 -2.6855,2.3906 2.0586,-2.916 -2.3574,-1.9707 -2.3828,2.7891 1.7266,-3.3301 c -0.203909,-0.147337 -0.457883,-0.221594 -0.699219,-0.207031 z  m -3.2109,4.4414 l -.7695,.916 6.1699,5.1602 .7695,-.918 -6.1699,-5.1582 z  m -1.3105,1.5586 l -.6387,.7617 c -0.284387,0.338809 -0.222136,1.05217 0.117188,1.33594 l .9004,.752 c 0.26882,0.224815 0.409151,0.567544 0.375,0.916016 -0.0538178,0.229611 -0.200893,0.426904 -0.404297,0.546875 l -3.0391,2.3828 c -0.55256,0.433367 -0.82428,1.13241 -0.708984,1.82422 l .0137,.084 c 0.134708,0.808278 0.841268,1.39784 1.66211,1.38867 l .082,-.002 c 0.70397,-0.0078 1.34638,-0.397424 1.67773,-1.01758 l 1.8789,-3.5176 c 0.105298,-0.19707 0.286535,-0.342014 0.501953,-0.402343 0.304648,-0.07251 0.62553,0.008709 0.857422,0.21875 l .918,.7676 c 0.339324,0.283766 1.0535,0.221619 1.33789,-0.117188 l .6387,-.7617 -6.1699,-5.1602 z  m -1.6855,7.4492 c 0.187158,-0.016514 0.381736,0.03803 0.537109,0.167969 0.310749,0.259877 0.350283,0.722924 0.0898438,1.0332 -0.260437,0.310274 -0.722455,0.349717 -1.0332,0.089844 -0.310748,-0.259876 -0.352235,-0.720975 -0.0917968,-1.03125 0.13022,-0.155143 0.310889,-0.243252 0.498047,-0.259766 z " class="ColorScheme-Text"/>
</svg>
