<svg width="16" version="1.1" xmlns="http://www.w3.org/2000/svg" height="16" viewBox="0 0 16 16">
<defs id="defs3051">
<style type="text/css" id="current-color-scheme">
.ColorScheme-Text {
color:#4d4d4d;
}
</style>
</defs>
<path style="fill:currentColor" d="m 3,0 v 5.93164 l 1,-.9316 v -5 h -1 z  m 5,0 v 4.93164 l 1,1.0684 v -6 h -1 z  m 5,0 v 6 l 1,-.8867 v -5.11328 h -1 z  m -8,2 v 2 h 2 v -2 h -2 z  m 5,0 v 2 h 2 v -2 h -2 z  m -8,7 v 3 h 3 v -3 h -3 z  m 5,0 v 3 h 3 v -3 h -3 z  m 5,0 v 3 h 3 v -3 h -3 z " class="ColorScheme-Text"/>
<path style="fill:currentColor" d="m 1,14.8891 c 2.13595,0 3.09974,-2.78793 3.05778,-4.36107 -0.0279201,-1.04649 0.23994,-1.78878 0.60764,-2.26318 0.367705,-0.474406 0.831381,-0.692304 1.28984,-0.704313 0.458454,-0.012032 0.925325,0.177664 1.31594,0.645508 0.390605,0.467849 0.699327,1.23094 0.723903,2.34998 0.113033,5.14687 5.89523,5.58021 5.89523,0.0335 0,-0.981493 0.07437,-1.83474 0.265501,-2.34712 0.09556,-0.256192 0.209959,-0.417524 0.330822,-0.513702 0.120856,-0.096178 0.257895,-0.153077 0.513367,-0.153077 v -1.15134 c -0.378384,0 -0.719596,0.083404 -1.02002,0.259306 -1.12078,0.656244 -1.24102,2.34801 -1.24102,3.90593 0,1.10506 -0.27,1.84481 -0.606713,2.27843 -0.336717,0.43362 -0.722694,0.5871 -1.12301,0.56588 -0.480382,-0.025444 -1.02016,-0.334742 -1.4062,-1.02272 -0.257349,-0.458655 -0.439388,-1.0841 -0.456877,-1.8804 -0.12385,-5.63928 -6.38277,-5.35094 -6.23931,0.027977 0.00904,0.340148 -0.049853,0.798234 -0.180704,1.2495 -0.130822,0.45127 -0.333591,0.897635 -0.582195,1.23655 -0.331472,0.451892 -0.692391,0.692983 -1.14395,0.692983 z " class="ColorScheme-Text"/>
</svg>
