<svg width="16" version="1.1" xmlns="http://www.w3.org/2000/svg" viewBox="0 0 16 16" height="16">
<defs id="defs3051">
<style type="text/css" id="current-color-scheme">
.ColorScheme-Text {
color:#4d4d4d;
}
</style>
</defs>
<path style="fill:currentColor" d="m 9,1.0996 v 3 h 3 v -3 l -3,-0 z  m -9,1 v 1 h 6 l -.8867,-1 h -5.11328 z  m 2,2 v 2 h 2 v -2 h -2 z  m 7,2 v 3 h 3 v -3 h -3 z  m -9,1 v 1 h 4.93164 l 1.0684,-1 h -6 z  m 2,2 v 2 h 2 v -2 h -2 z  m 7,2 v 3 h 3 v -3 h -3 z  m -9,1 v 1 h 5.93164 l -.9316,-1 h -5 z " class="ColorScheme-Text"/>
<path style="fill:currentColor" d="m 14.9801,15.0998 c 0,-2.20773 -2.85107,-3.19138 -4.45454,-3.14862 -1.02967,0.027461 -1.74993,-0.235919 -2.20493,-0.58858 -0.455,-0.352654 -0.657867,-0.790124 -0.669134,-1.22044 -0.0113334,-0.430318 0.1642,-0.869215 0.612934,-1.24385 0.448734,-0.374636 1.19047,-0.678527 2.2936,-0.702742 5.26794,-0.115763 5.6976,-6.0769 0.03133,-6.0769 -0.9778,0 -1.82407,-0.076538 -2.31527,-0.259773 -0.245597,-0.0916212 -0.391264,-0.197919 -0.474264,-0.302245 -0.083,-0.104325 -0.133333,-0.217949 -0.133333,-0.456853 h -1.33333 c 0,0.391833 0.086867,0.750126 0.271733,1.06586 0.685467,1.17066 2.43067,1.28607 3.98447,1.28607 1.0904,0 1.80954,0.266745 2.22274,0.58758 0.413133,0.320834 0.550533,0.675581 0.530867,1.04647 -0.02333,0.445069 -0.3106,0.958177 -0.976401,1.33177 -0.443867,0.249069 -1.0544,0.428059 -1.8378,0.445275 -5.7594,0.126414 -5.46827,6.56767 0.03267,6.42093 0.3282,-0.0087 0.7788,0.04872 1.22167,0.177144 0.442934,0.1284 0.880401,0.327792 1.20807,0.56817 0.436934,0.320501 0.655867,0.653612 0.655867,1.07073 z " class="ColorScheme-Text"/>
</svg>
