<svg width="16" version="1.1" xmlns="http://www.w3.org/2000/svg" height="16" viewBox="0 0 16 16">
<defs id="defs3051">
<style type="text/css" id="current-color-scheme">
.ColorScheme-Text {
color:#4d4d4d;
}
</style>
</defs>
<path style="fill:currentColor" d="M 4.6523,0 C 3.917696,0.00822551 3.32815,0.609123 3.33394,1.34375 3.33602,1.616869 3.421921,1.882761 3.580034,2.105469 l -1.6836,2.0195 C 1.71611,4.04083 1.519241,3.998119 1.320262,4 c -0.735369,0.00716 -1.32609,0.608369 -1.32031,1.34375 0.00608302,0.733836 0.604033,1.3248 1.33789,1.32227 0.192907,0 0.38349,-0.042105 0.558594,-0.123047 h 0.00195 l 1.6816,2.0176 c -0.162362,0.228687 -0.248477,0.50275 -0.246094,0.783203 0.00608,0.733836 0.604033,1.3248 1.33789,1.32227 0.72629,-0.0027 1.31678,-0.586293 1.32812,-1.3125 v -0.00195 l 2.832,-0.707 c 0.235637,0.427299 0.685871,0.691745 1.17383,0.689453 0.134558,0 0.268234,-0.021779 0.396485,-0.0625 l 1.9648,3.1445 c -0.233203,0.245175 -0.364467,0.569844 -0.367188,0.908203 l -2.8379,0.709 C 8.93,13.598158 8.476944,13.32873 7.986149,13.334002 c -0.725943,0.0074 -1.30925,0.603843 -1.30469,1.33399 0.0051,0.730929 0.597465,1.3198 1.32422,1.31641 0.716955,-0.003 1.3,-0.581749 1.3125,-1.30273 l 2.8437,-0.7109 c 0.234424,0.430179 0.685877,0.697152 1.17578,0.695313 0.734601,-0.0018 1.32937,-0.597427 1.33008,-1.33203 l -0.002,-0.0196 c -0.01036,-0.733838 -0.611821,-1.32133 -1.3457,-1.31445 -0.131936,0.0015 -0.26292,0.02255 -0.388671,0.0625 l -1.9648,-3.1426 c 0.235978,-0.248116 0.367455,-0.577508 0.367187,-0.919922 v -0.0196 c -0.0079,-0.53645 -0.336499,-1.01593 -0.833984,-1.2168 l 0.3438,-2.7559 c 0.662304,-0.088747 1.15663,-0.654047 1.15625,-1.32227 v -0.0196 c -0.01142,-0.733845 -0.613769,-1.32048 -1.34766,-1.3125 -0.485962,0.00542 -0.930483,0.274829 -1.16016,0.703125 l -3.4922,-0.7754 V 1.279088 C 5.97061,0.558304 5.37346,-0.008552 4.652134,0 Z m 1.1992,1.9473 3.4824,0.7715 c 0.013294,0.531436 0.341004,1.0042 0.833985,1.20312 l -0.3457,2.7578 c -0.654226,0.088583 -1.14512,0.642598 -1.1543,1.30273 l -2.832,0.709 C 5.599257,8.260471 5.144318,7.994714 4.652455,8 4.462701,8.002355 4.27559,8.044967 4.103627,8.125215 l -1.6816,-2.0195 C 2.582055,5.880285 2.668054,5.610686 2.668121,5.334231 l -0.0019,-0.0196 C 2.6621603,5.044854 2.5763501,4.782656 2.420127,4.562678 l 1.6836,-2.0195 c 0.178092,0.082334 0.37216,0.124349 0.568359,0.123047 0.496361,-0.00132 0.9509,-0.27826 1.17969,-0.71875 z" class="ColorScheme-Text"/>
</svg>
