<svg width="16" version="1.1" xmlns="http://www.w3.org/2000/svg" height="16" viewBox="0 0 16 16">
<defs id="defs3051">
<style type="text/css" id="current-color-scheme">
.ColorScheme-Text {
color:#4d4d4d;
}
</style>
</defs>
<path style="fill:currentColor;opacity:.3" d="m 5.9609,6 v 3.96094 c 0.34535,0 0.680482,-0.0436151 1,-0.126953 v -2.83398 h 2.83398 c 0.0833382,-0.319518 0.126953,-0.65465 0.126953,-1 h -3.96094 z  m 3.834,1 c -0.360588,1.38249 -1.4515,2.4734 -2.83398,2.83398 v 1.02734 c 1.93908,-0.396007 3.46337,-1.92225 3.85937,-3.86133 h -1.02539 z " class="ColorScheme-Text"/>
<path style="fill:currentColor" d="m 5.9609,1.0391 c -2.74229,0 -4.96094,2.21865 -4.96094,4.96094 0,2.74229 2.21865,4.96094 4.96094,4.96094 v 4.03906 h 9 v -9 h -4.03906 c 0,-2.74229 -2.21865,-4.96094 -4.96094,-4.96094 z  m 0,1 c 2.18496,0 3.96094,1.77598 3.96094,3.96094 0,0.34535 -0.0436151,0.680482 -0.126953,1 h 1.02539 3.14063 v 7 h -7 v -3.13867 -1.02734 c -0.319518,0.0833382 -0.65465,0.126953 -1,0.126953 -2.18496,0 -3.96094,-1.77598 -3.96094,-3.96094 0,-2.18496 1.77598,-3.96094 3.96094,-3.96094 z " class="ColorScheme-Text"/>
</svg>
