<svg width="16" version="1.1" xmlns="http://www.w3.org/2000/svg" height="16" viewBox="0 0 16 16">
<defs id="defs3051">
<style type="text/css" id="current-color-scheme">
.ColorScheme-Text {
color:#4d4d4d;
}
</style>
</defs>
<path style="fill:currentColor" d="m 8.293,0 c -0.276783,-0.00309614 -0.523127,0.166844 -0.609375,0.419922 -0.397869,1.12248 -0.550396,1.98282 -0.464844,2.70313 0.085502,0.720316 0.475161,1.30252 1.00391,1.62305 1.48903,0.902642 3.55231,0.262227 5.20703,0.673828 0.444819,0.110627 0.747277,0.277664 0.957031,0.548828 0.419519,0.542346 0.582803,1.84868 -0.425781,4.62891 -0.278696,0.769038 0.91857,1.16943 1.19726,0.400391 1.06042,-2.92312 1.0915,-4.66686 0.246094,-5.75977 -0.422711,-0.546455 -1.03481,-0.843491 -1.65625,-0.998047 -1.54503,-0.384233 -4.01501,-0.0193984 -4.84961,-0.525391 -0.240164,-0.14559 -0.370554,-0.29827 -0.421875,-0.730469 -0.0513811,-0.432199 0.0425421,-1.14182 0.40625,-2.16797 0.146533,-0.394125 -0.154852,-0.810748 -0.589844,-0.816406 z  m -5.7988,.4473 a 0.634114,0.610142 0 0,0 -0.496094,0.996094 l 11.8887,14.3262 a 0.634361,0.610379 0 1,0 0.992187,-0.759765 l -11.8887,-14.3262 a 0.634114,0.610142 0 0,0 -0.496094,-0.236328 z  m -.2812,5.1445 c -0.46989,-0.0329667 -1.00781,-0.0213038 -1.63281,0.03125 -0.843101,0.0712492 -0.733726,1.28805 0.109375,1.2168 1.14889,-0.0966117 1.89631,-0.0143078 2.30273,0.130859 0.406429,0.145148 0.487326,0.272277 0.552734,0.513672 0.231081,0.852884 -0.890442,3.07082 -0.878906,4.61523 0.00499,0.621103 0.190316,1.27947 0.691406,1.78906 1.00217,1.01919 2.89786,1.35627 6.42383,1.03906 0.854554,-0.064739 0.735192,-1.30218 -0.117188,-1.21484 -3.38718,0.304725 -4.88613,-0.155004 -5.38477,-0.66211 -0.249313,-0.253558 -0.340627,-0.541578 -0.34375,-0.958984 -0.011404,-1.59036 1.27455,-3.29717 0.835938,-4.91602 -0.156159,-0.576377 -0.637572,-1.09754 -1.33789,-1.34766 -0.350159,-0.125056 -0.750814,-0.203361 -1.2207,-0.236328 z " class="ColorScheme-Text"/>
</svg>
