<svg width="16" version="1.1" xmlns="http://www.w3.org/2000/svg" height="16" viewBox="0 0 16 16">
<defs id="defs3051">
<style type="text/css" id="current-color-scheme">
.ColorScheme-Text {
color:#4d4d4d;
}
</style>
</defs>
<path style="fill:currentColor" d="m 3.7784,4.5165 c -0.539625,-0.229986 -1.40836,0.0726874 -1.84105,0.544104 -0.881011,0.959973 -1.13867,2.5763 -0.7828,3.82973 0.436134,1.53613 1.62689,3.09958 3.28253,3.48913 0.844393,0.19905 1.75007,0.115396 2.53238,-0.260719 0.512972,-0.238189 0.926213,-0.57898 1.25182,-0.943225 0.867191,-0.977157 1.19675,-2.22365 1.53915,-3.45118 -5.31e-05,0 0.00637,-0.021041 0.00637,-0.020935 0.246521,-0.863386 0.724818,-2.48301 1.90084,-2.8248 0.597097,-0.153611 1.38556,0.069287 1.9893,0.809487 0.549558,0.756512 0.677886,1.73832 0.663778,2.55233 -0.04366,0.851123 -0.251599,1.62518 -0.526452,2.27704 -0.407229,0.965807 -0.944846,1.63089 -1.3047,2.00427 0.400887,-0.330865 1.03928,-0.920324 1.58607,-1.86349 0.37004,-0.638278 0.693155,-1.43536 0.833519,-2.35666 0.073512,-0.399887 0.304046,-1.83579 -0.454629,-3.12781 -0.613435,-1.15035 -1.80426,-1.80782 -3.00264,-1.67969 -1.7019,0.154323 -2.63353,1.62553 -3.04557,2.51587 -0.49846,1.2669 -0.886642,2.53382 -1.79509,3.56643 -0.558619,0.455125 -1.07532,0.334128 -1.39168,0.172218 -1.18483,-0.82548 -1.33326,-2.16626 -0.964796,-3.49164 0.368465,-1.32539 -0.115315,-1.58659 -0.476354,-1.74048 Z " class="ColorScheme-Text"/>
</svg>
