<svg width="16" version="1.1" xmlns="http://www.w3.org/2000/svg" viewBox="0 0 16 16" height="16">
<defs id="defs3051">
<style type="text/css" id="current-color-scheme">
.ColorScheme-Text {
color:#4d4d4d;
}
</style>
</defs>
<path style="fill:currentColor" d="m 2.998,1 c -0.553283,0 -0.998047,0.446 -0.998047,1 v 3 c 0,0.554 0.444764,1 0.998047,1 h 3.00391 c 0.553283,0 0.998047,-0.446 0.998047,-1 v -3 c 0,-0.554 -0.444764,-1 -0.998047,-1 h -3.00391 z  m 7.002,.4004 l -2,2.123 2,1.9941 v -1.51758 c 1.10386,0 2,0.894713 2,2 h -1.59961 l 2.123,2 1.9941,-2 h -1.51758 c -0.001065,-1.65793 -1.34422,-3.00107 -3,-3 v -1.59961 z  m -4.6895,5.7441 l .0781,.8008 .7207,.0781 .1816,-.8281 -.9805,-.0508 z  m -.9023,.1543 l -.8262,.3613 .3867,.7246 .6973,-.3105 -.2578,-.7754 z  m -2.4238,.0254 v 2.35156 h 2.3457 l -2.3457,-2.3516 z  m 5.1582,.1816 l -.3867,.748 .6191,.3887 .5156,-.6211 -.748,-.5156 z  m 1.3672,1.1621 l -.6445,.5176 .3086,.5918 .7988,-.2324 -.4629,-.877 z  m 2.4883,.332 c -0.553283,0 -0.998047,0.446 -0.998047,1 v 3 c 0,0.554 0.444764,1 0.998047,1 h 3.00391 c 0.553282,0 0.998047,-0.446001 0.998047,-1 v -3 c 0,-0.554 -0.444765,-1 -0.998047,-1 h -3.00391 z  m -1.8438,1.4238 l -.7988,.0781 -.0254,.748 .8242,.0781 v -0.904297 z  m -7.4023,.3105 l .1035,.9023 .7988,-.1289 -.0781,-.748 -.8242,-.0254 z  m 4.9004,1.2656 l 2.3477,2.3496 v -2.34961 h -2.34766 z  m -3.7656,.1543 l -.7227,.4141 .541,.7227 .6191,-.541 -.4375,-.5957 z  m 4.3594,.957 l -.6172,.3594 .3086,.7754 .8496,-.4902 -.541,-.6445 z  m -3.3789,.1035 l -.4648,.6973 .7988,.4121 .3359,-.748 -.6699,-.3613 z  m 2.0371,.4648 l -.7227,.0254 -.0254,.8262 .9023,-.0508 -.1543,-.8008 z " class="ColorScheme-Text"/>
</svg>
