<svg width="16" version="1.1" xmlns="http://www.w3.org/2000/svg" viewBox="0 0 16 16" height="16">
<defs id="defs3051">
<style type="text/css" id="current-color-scheme">
.ColorScheme-Text {
color:#4d4d4d;
}
</style>
</defs>
<path style="fill:currentColor" d="m 3,1 c -0.554,0 -1,0.446 -1,1 v 3 c 0,0.554 0.446,1 1,1 h 3 c 0.554,0 1,-0.446 1,-1 v -3 c 0,-0.554 -0.446,-1 -1,-1 h -3 z  m 7,.4004 l -2,2.123 2,1.9941 v -1.51758 c 1.10457,0 2,0.895433 2,2 h -1.59961 l 2.123,2 1.9941,-2 h -1.51758 c 0,-1.65685 -1.34315,-3 -3,-3 v -1.59961 z  m -7,5.5996 v 7 l 1.4297,-1.6426 .9141,2.3633 1.4004,-.6504 -1.0742,-2.0703 h 2.33008 l -5,-5 z  m 8,2 c -0.554,0 -1,0.446 -1,1 v 3 c 0,0.554 0.446,1 1,1 h 3 c 0.554,0 1,-0.446001 1,-1 v -3 c 0,-0.554 -0.446,-1 -1,-1 h -3 z " class="ColorScheme-Text"/>
</svg>
