<svg width="16" version="1.1" xmlns="http://www.w3.org/2000/svg" height="16">
<defs id="defs3051">
<style type="text/css" id="current-color-scheme">
.ColorScheme-Text {
color:#4d4d4d;
}
</style>
</defs>
<path style="fill:currentColor" d="m 15.1155,2.1924 c -0.97358,0.109326 -2.51932,1.14178 -4.54102,3.19531 -0.97672,0.992104 -1.7567,2.27934 -2.07812,3.14063 0.437501,0.233425 0.759673,0.477584 1.00195,0.947266 0.848335,-0.365276 2.04319,-1.2233 3.01953,-2.21484 2.48432,-2.52299 3.57742,-4.40218 3.02539,-4.96289 -0.05657,-0.057834 -0.133387,-0.092404 -0.232422,-0.105469 -0.05805,-0.0078 -0.123334,-0.0078 -0.195312,0 z  m -7.9727,6.7363 c -2.72167,0.112194 -3.14353,4.17417 -6.82617,1.63866 4.04717,5.60049 8.06391,2.57988 8.52734,1.03906 0.377718,-1.25584 -0.514558,-2.72664 -1.70117,-2.67774 Z " class="ColorScheme-Text"/>
</svg>
