<svg width="16" version="1.1" xmlns="http://www.w3.org/2000/svg" height="16">
<defs id="defs3051">
<style type="text/css" id="current-color-scheme">
.ColorScheme-Text {
color:#4d4d4d;
}
</style>
</defs>
<path style="fill:currentColor;fill-opacity:1;stroke:none" id="path4501" d="m 8.0273,1.2617 a 4.12451,4.12451 0 0,0 -4.125,4.125 4.12451,4.12451 0 0,0 2.09766,3.58594 v 2.02734 h 4.05664 v -2.0293 a 4.12451,4.12451 0 0,0 2.0957,-3.58398 4.12451,4.12451 0 0,0 -4.125,-4.125 z  m -.0273,1.1328 a 2.98838,2.98838 0 0,1 2.98828,2.98828 2.98838,2.98838 0 0,1 -1.98828,2.8125 v 1.80469 h -2 v -1.80469 a 2.98838,2.98838 0 0,1 -1.98828,-2.8125 2.98838,2.98838 0 0,1 2.98828,-2.98828 z  m -1,3.6055 v 1 h 2 v -1 h -2 z  m -1,6 v 1 h 4 v -1 h -4 z  m 1,2 v 1 h 2 v -1 h -2 z " class="ColorScheme-Text"/>
</svg>
