<svg width="16" version="1.1" xmlns="http://www.w3.org/2000/svg" height="16" viewBox="0 0 16 16">
<defs id="defs3051">
<style type="text/css" id="current-color-scheme">
.ColorScheme-Text {
color:#4d4d4d;
}
</style>
</defs>
<path style="fill:currentColor" d="m 13,1 h 2 v 3 h -2 z" class="ColorScheme-Text"/>
<path style="fill:currentColor;opacity:.95" d="m 12,1 h 1 v 3 h -1 z" class="ColorScheme-Text"/>
<path style="fill:currentColor;opacity:.9" d="m 11,1 h 1 v 3 h -1 z" class="ColorScheme-Text"/>
<path style="fill:currentColor;opacity:.85" d="m 10,1 h 1 v 3 h -1 z" class="ColorScheme-Text"/>
<path style="fill:currentColor;opacity:.8" d="m 9,1 h 1 V 4 H 9 Z" class="ColorScheme-Text"/>
<path style="fill:currentColor;opacity:.75" d="M 8,1 H 9 V 4 H 8 Z" class="ColorScheme-Text"/>
<path style="fill:currentColor;opacity:.7" d="M 7,1 H 8 V 4 H 7 Z" class="ColorScheme-Text"/>
<path style="fill:currentColor;opacity:.65" d="M 6,1 H 7 V 4 H 6 Z" class="ColorScheme-Text"/>
<path style="fill:currentColor;opacity:.6" d="M 5,1 H 6 V 4 H 5 Z" class="ColorScheme-Text"/>
<path style="fill:currentColor;opacity:.55" d="M 4,1 H 5 V 4 H 4 Z" class="ColorScheme-Text"/>
<path style="fill:currentColor;opacity:.5" d="M 3,1 H 4 V 4 H 3 Z" class="ColorScheme-Text"/>
<path style="fill:currentColor;opacity:.45" d="M 2,1 H 3 V 4 H 2 Z" class="ColorScheme-Text"/>
<path style="fill:currentColor;opacity:.4" d="M 1,1 H 2 V 4 H 1 Z" class="ColorScheme-Text"/>
<path style="fill:currentColor"  d="m 13,11 h 2 v 3 h -2 z" class="ColorScheme-Text"/>
<path style="fill:currentColor;opacity:.95" d="m 12,11 h 1 v 3 h -1 z" class="ColorScheme-Text"/>
<path style="fill:currentColor;opacity:.9" d="m 11,11 h 1 v 3 h -1 z" class="ColorScheme-Text"/>
<path style="fill:currentColor;opacity:.85" d="m 10,11 h 1 v 3 h -1 z" class="ColorScheme-Text"/>
<path style="fill:currentColor;opacity:.8" d="m 9,11 h 1 v 3 H 9 Z" class="ColorScheme-Text"/>
<path style="fill:currentColor;opacity:.75" d="m 8,11 h 1 v 3 H 8 Z" class="ColorScheme-Text"/>
<path style="fill:currentColor;opacity:.7" d="m 7,11 h 1 v 3 H 7 Z" class="ColorScheme-Text"/>
<path style="fill:currentColor;opacity:.65" d="m 6,11 h 1 v 3 H 6 Z" class="ColorScheme-Text"/>
<path style="fill:currentColor;opacity:.6" d="m 5,11 h 1 v 3 H 5 Z" class="ColorScheme-Text"/>
<path style="fill:currentColor;opacity:.55" d="m 4,11 h 1 v 3 H 4 Z" class="ColorScheme-Text"/>
<path style="fill:currentColor;opacity:.5" d="m 3,11 h 1 v 3 H 3 Z" class="ColorScheme-Text"/>
<path style="fill:currentColor;opacity:.45" d="m 2,11 h 1 v 3 H 2 Z" class="ColorScheme-Text"/>
<path style="fill:currentColor;opacity:.4" d="m 1,11 h 1 v 3 H 1 Z" class="ColorScheme-Text"/>
<path style="fill:currentColor"  d="m -3,6 h 2 v 3 h -2 z" transform="scale(-1,1)" class="ColorScheme-Text"/>
<path style="fill:currentColor;opacity:.95" d="m -4,6 h 1 v 3 h -1 z" transform="scale(-1,1)" class="ColorScheme-Text"/>
<path style="fill:currentColor;opacity:.9" d="m -5,6 h 1 v 3 h -1 z" transform="scale(-1,1)" class="ColorScheme-Text"/>
<path style="fill:currentColor;opacity:.85" d="m -6,6 h 1 v 3 h -1 z" transform="scale(-1,1)" class="ColorScheme-Text"/>
<path style="fill:currentColor;opacity:.8" d="m -7,6 h 1 v 3 h -1 z" transform="scale(-1,1)" class="ColorScheme-Text"/>
<path style="fill:currentColor;opacity:.75" d="m -8,6 h 1 v 3 h -1 z" transform="scale(-1,1)" class="ColorScheme-Text"/>
<path style="fill:currentColor;opacity:.7" d="m -9,6 h 1 v 3 h -1 z" transform="scale(-1,1)" class="ColorScheme-Text"/>
<path style="fill:currentColor;opacity:.65" d="m -10,6 h 1 v 3 h -1 z" transform="scale(-1,1)" class="ColorScheme-Text"/>
<path style="fill:currentColor;opacity:.6" d="m -11,6 h 1 v 3 h -1 z" transform="scale(-1,1)" class="ColorScheme-Text"/>
<path style="fill:currentColor;opacity:.55" d="m -12,6 h 1 v 3 h -1 z" transform="scale(-1,1)" class="ColorScheme-Text"/>
<path style="fill:currentColor;opacity:.5" d="m -13,6 h 1 v 3 h -1 z" transform="scale(-1,1)" class="ColorScheme-Text"/>
<path style="fill:currentColor;opacity:.45" d="m -14,6 h 1 v 3 h -1 z" transform="scale(-1,1)" class="ColorScheme-Text"/>
<path style="fill:currentColor;opacity:.4" d="m -15,6 h 1 v 3 h -1 z" transform="scale(-1,1)" class="ColorScheme-Text"/>
</svg>
