<svg width="16" version="1.1" xmlns="http://www.w3.org/2000/svg" height="16" viewBox="0 0 16 16">
<defs id="defs3051">
<style type="text/css" id="current-color-scheme">
.ColorScheme-Text {
color:#4d4d4d;
}
</style>
</defs>
<path style="fill:currentColor" d="M 1.99609,0.00391 C 1.78454,0.00425 1.58193,0.10652 1.42773,0.26953 1.27353,0.43254 1.15672,0.65544 1.08008,0.93359 v 0.002 l -1.07227,4 c -0.002,0.006 -0.003,0.039 -0.004,0.0645 H 0 V 5.14648 16 H 4 V 5.14648 5 H 3.996 C 3.995,4.9698 3.994,4.9428 3.992,4.9355 l -1.07227,-4 C 2.91909,0.9345 2.91878,0.9325 2.91773,0.9315 2.83793,0.65277 2.71988,0.42983 2.56421,0.26744 2.40854,0.10505 2.20741,0.00343 1.99585,0.00377 Z M 1.17969,2.5 H 2.82031 L 3.49023,5 H 0.50977 Z" class="ColorScheme-Text"/>
<path style="fill:currentColor;opacity:.6" d="M 7.99609,0.00391 C 7.78454,0.00425 7.58193,0.10652 7.42773,0.26953 7.27353,0.43254 7.15672,0.65544 7.08008,0.93359 v 0.002 l -1.07227,4 c -0.002,0.006 -0.003,0.039 -0.004,0.0645 H 6 V 5.14648 16 h 4 V 5.14648 5 H 9.996 C 9.995,4.9698 9.994,4.9428 9.992,4.9355 l -1.07227,-4 C 8.91909,0.9345 8.91878,0.9325 8.91773,0.9315 8.83793,0.65277 8.71988,0.42983 8.56421,0.26744 8.40854,0.10505 8.20741,0.00343 7.99585,0.00377 Z M 7.17969,2.5 H 8.82031 L 9.49023,5 H 6.50977 Z" class="ColorScheme-Text"/>
<path style="fill:currentColor;opacity:.3" d="m 13.99609,0.00391 c -0.21155,3.4e-4 -0.41416,0.10261 -0.56836,0.26562 -0.1542,0.16301 -0.27101,0.38591 -0.34765,0.66406 v 0.002 l -1.07227,4 c -0.002,0.006 -0.003,0.039 -0.004,0.0645 H 12 V 5.14648 16 h 4 V 5.14648 5 H 15.996 C 15.995,4.9698 15.994,4.9428 15.992,4.9355 l -1.07227,-4 c -6.4e-4,-0.001 -9.5e-4,-0.003 -0.002,-0.004 C 14.83793,0.65277 14.71988,0.42983 14.56421,0.26744 14.40854,0.10505 14.20741,0.00343 13.99585,0.00377 Z M 13.17969,2.5 h 1.64062 L 15.49023,5 h -2.98046 z" class="ColorScheme-Text"/>
</svg>
