<svg width="16" version="1.1" xmlns="http://www.w3.org/2000/svg" height="16" viewBox="0 0 16 16">
<defs id="defs3051">
<style type="text/css" id="current-color-scheme">
.ColorScheme-Text {
color:#4d4d4d;
}
</style>
</defs>
<path style="fill:currentColor" d="m 5.303,.7002 c -2.00841,-0.0546431 -2.49819,1.68227 -2.6149,2.66151 -0.167928,1.40724 0.09058,3.04184 0.358145,4.65324 0.249452,1.70566 0.604911,2.96019 0.481941,4.58012 -0.0474764,0.625426 -1.01947,0.9447 -1.47547,-0.027844 -0.247659,-0.528204 -0.273254,-1.41039 -0.252695,-2.31527 0.0417276,-1.80976 0.0680759,-2.17625 0.0680759,-2.17625 l -1.4064,-.0122 c 0,0 -0.0346034,0.447809 -0.0824375,2.54203 -0.0234082,1.04706 0.0254103,1.83283 0.35499,2.6837 0.353395,0.912345 1.38589,1.83231 2.36036,1.74472 1.40015,-0.125851 1.97236,-1.91728 1.97026,-2.79015 0,-1.35045 -0.319471,-2.95615 -0.58205,-4.54017 -0.262579,-1.58423 -0.460327,-3.14433 -0.344406,-4.11577 0.0580116,-0.485872 0.181566,-0.786718 0.32456,-0.949762 0.391596,-0.44714 1.15563,-0.398813 1.64112,-0.022594 0.133325,0.11643 0.211183,0.257694 0.26665,0.541034 0.110934,0.566478 -0.012213,1.61486 -0.216373,2.70843 -0.203651,1.09377 -0.469589,2.22306 -0.444959,3.27379 0.045725,1.96731 1.287,2.26018 1.8408,2.29268 0.613317,0.03595 1.58637,-0.107202 2.02511,-1.25417 0.287005,-0.750588 0.241918,-1.508 0.216373,-2.19528 -0.242532,-1.99743 0.414342,-1.85776 1.17571,-0.853768 0.402483,0.53074 0.895734,0.759132 1.32194,0.727262 1.26705,-0.094747 2.32453,-1.02202 3.46665,-0.085491 v -1.69078 c -1.5139,-0.749164 -2.33461,-0.163857 -3.40416,0.107779 -0.417812,0.0441965 -0.753285,-0.588025 -1.03635,-0.871317 -0.339187,-0.339462 -0.404549,-0.600263 -1.20361,-0.78985 -1.24263,-0.0360442 -1.61119,0.990069 -1.71277,1.43859 -0.164875,0.726875 -0.092615,1.43797 -0.0681891,2.09096 0.136347,1.21442 0.0366541,1.62796 -0.556937,1.7087 -0.338364,0.0460214 -0.58926,-0.310167 -0.566077,-0.853832 0.0377638,-0.885581 0.166942,-1.56647 0.377718,-2.69831 0.210775,-1.13163 0.431219,-2.3052 0.21332,-3.41821 -0.344781,-1.76028 -1.68749,-2.07092 -2.49602,-2.09259 Z " class="ColorScheme-Text"/>
</svg>
