<svg width="16" version="1.1" xmlns="http://www.w3.org/2000/svg" height="16" viewBox="0 0 16 16">
<defs id="defs3051">
<style type="text/css" id="current-color-scheme">
.ColorScheme-Text {
color:#4d4d4d;
}
</style>
</defs>
<path style="fill:currentColor" d="m 0,0 v 16 h 2.75 c 0.13807,0 0.25,-0.1119 0.25,-0.25 0,-0.1381 -0.11193,-0.25 -0.25,-0.25 h -2.25 v -15 h 2.25 c 0.13807,0 0.25,-0.111929 0.25,-0.25 0,-0.138071 -0.11193,-0.25 -0.25,-0.25 h -2.75 z  m 13.25,0 c -0.1381,0 -0.25,0.111929 -0.25,0.25 0,0.138071 0.1119,0.25 0.25,0.25 h 2.25 v 15 h -2.25 c -0.1381,0 -0.25,0.1119 -0.25,0.25 0,0.1381 0.1119,0.25 0.25,0.25 h 2.75 v -16 h -2.75 z  m -5.1816,2.0508 c -0.768157,0 -1.28516,0.605643 -1.28516,1.49414 0,0.888468 0.516955,1.49414 1.28516,1.49414 0.409371,0 0.800815,-0.172546 1.02539,-0.548828 0.07007,-0.11743 0.118021,-0.249767 0.144531,-0.398438 h -0.351562 c -0.0208301,0.10038 -0.057295,0.187975 -0.109375,0.265625 -0.171712,0.257568 -0.45502,0.353516 -0.708984,0.353516 -0.492733,0 -0.943359,-0.372799 -0.943359,-1.16602 0,-0.76793 0.424975,-1.16406 0.943359,-1.16406 0.303282,0 0.561473,0.130327 0.708984,0.351562 0.05208,0.07671 0.0885449,0.166248 0.109375,0.267578 h 0.351562 c -0.0265097,-0.14962 -0.0744616,-0.281957 -0.144531,-0.398438 -0.204107,-0.341984 -0.57398,-0.550781 -1.02539,-0.550781 z  m -4.25,.041 l -1.0684,2.9082 h 0.369141 l .293,-.8242 h 1.17773 l .291,.8242 h 0.369141 l -1.0684,-2.9082 h -0.363281 z  m 7.3379,0 v 2.9082 h 1.7793 v -0.3125 h -1.42578 v -0.988281 h 1.3125 v -0.3125 h -1.3125 v -0.982422 h 1.40234 v -0.3125 h -1.75586 z  m -7.166,.459 h 0.0214844 l .4668,1.3125 h -0.955078 l .4668,-1.3125 z  m -.9395,4.041 v 2.9082 h 1.05273 c 0.842105,0 0.970703,-0.494461 0.970703,-0.773438 0,-0.382572 -0.206426,-0.563349 -0.316406,-0.632812 -0.08996,-0.05682 -0.180511,-0.08807 -0.269531,-0.09375 v -0.0292969 c 0.0833301,-0.02273 0.161392,-0.0561656 0.232422,-0.103516 0.189127,-0.124429 0.240234,-0.32506 0.240234,-0.503906 0,-0.383898 -0.246323,-0.771484 -0.892578,-0.771484 h -1.01758 z  m 3.8633,0 v 2.9082 h 0.898438 c 0.884873,0 1.38672,-0.551765 1.38672,-1.46094 0,-0.943294 -0.541758,-1.44727 -1.34766,-1.44727 h -0.9375 z  m 4.2637,0 v 2.9082 h 0.353516 v -1.30078 h 1.26172 v -0.3125 h -1.26172 v -0.982422 h 1.39062 v -0.3125 h -1.74414 z  m -7.7734,.3125 h 0.664062 c 0.511899,0 0.556641,0.340085 0.556641,0.458984 0,0.311272 -0.253921,0.505859 -0.568359,0.505859 h -0.652344 v -0.964844 z  m 3.8633,0 h 0.5625 c 0.912675,0 1.02734,0.755245 1.02734,1.13477 0,0.716545 -0.350619,1.14844 -1.06836,1.14844 h -0.521484 v -2.2832 z  m -3.8633,1.2715 h 0.714844 c 0.360617,0 0.619141,0.237927 0.619141,0.550781 0,0.40035 -0.3954,0.460938 -0.634766,0.460938 h -0.699219 v -1.01172 z  m .5957,2.875 c -0.641017,0 -1.01172,0.562555 -1.01172,1.49414 0,0.462025 0.102135,1.49414 1.01172,1.49414 0.909591,0 1.01172,-1.03214 1.01172,-1.49414 0,-0.909566 -0.356013,-1.49414 -1.01172,-1.49414 z  m 4,0 c -0.641017,0 -1.01172,0.562556 -1.01172,1.49414 0,0.462005 0.102126,1.49414 1.01172,1.49414 0.909582,0 1.01172,-1.03211 1.01172,-1.49414 0,-0.909566 -0.356012,-1.49414 -1.01172,-1.49414 z  m 4.041,.041 l -.7266,.4824 v 0.357422 l .7266,-.4707 v 2.53906 h 0.353515 v -2.9082 h -0.353515 z  m -8.041,.2656 c 0.612674,0 0.669922,0.862314 0.669922,1.1875 0,0.382255 -0.0710519,1.18164 -0.669922,1.18164 -0.602547,0 -0.669922,-0.814398 -0.669922,-1.18164 0,-0.33993 0.0605699,-1.1875 0.669922,-1.1875 z  m 4,0 c 0.616177,0 0.669922,0.878126 0.669922,1.1875 0,0.382206 -0.0710329,1.18164 -0.669922,1.18164 -0.602521,0 -0.669922,-0.814328 -0.669922,-1.18164 0,-0.339889 0.0605549,-1.1875 0.669922,-1.1875 z " class="ColorScheme-Text"/>
</svg>
