<svg width="16" version="1.1" xmlns="http://www.w3.org/2000/svg" height="16">
<defs id="defs3051">
<style type="text/css" id="current-color-scheme">
.ColorScheme-Text {
color:#4d4d4d;
}
</style>
</defs>
<path style="fill:currentColor" d="m 8,2 a 1,1 0 0,0 -1,1 1,1 0 0,0 0.0136719,0.169922 3,3 0 0,0 -2.01367,2.83008 c 0,1.86784 -0.664496,2.6645 -2,4 v 1 h 10 v -1 c -1.3355,-1.3355 -2,-2.13216 -2,-4 a 3,3 0 0,0 -2.01562,-2.83008 1,1 0 0,0 0.015625,-0.169922 1,1 0 0,0 -1,-1 z  m 0,2 a 2,2 0 0,1 2,2 c 0,1.76026 0.647822,2.88857 1.63867,4 h -1.63867 -4 -1.63867 c 0.99085,-1.11143 1.63867,-2.23974 1.63867,-4 a 2,2 0 0,1 2,-2 z  m -1.4121,8 a 1.5,1.5 0 0,0 -0.0878906,0.5 1.5,1.5 0 0,0 1.5,1.5 1.5,1.5 0 0,0 1.5,-1.5 1.5,1.5 0 0,0 -0.0878906,-0.5 h -2.82422 z " class="ColorScheme-Text"/>
</svg>
