<svg width="16" version="1.1" xmlns="http://www.w3.org/2000/svg" height="16">
<defs id="defs3051">
<style type="text/css" id="current-color-scheme">
.ColorScheme-Text {
color:#4d4d4d;
}
</style>
</defs>
<path style="fill:#da4453" d="m 2,2.7071 .7071,-.7071 11.2929,11.267 -.7071,.733 Z "/>
<path style="fill:currentColor" d="m 8,2 a 1,1 0 0,0 -1,1 1,1 0 0,0 0.0136719,0.169922 3,3 0 0,0 -1.27344,0.863281 l .707,.707 a 2,2 0 0,1 1.55273,-0.740234 2,2 0 0,1 2,2 c 0,1.58547 0.542694,2.65451 1.37109,3.66406 l 1.3359,1.3359 h 0.292969 v -1 c -1.3355,-1.3355 -2,-2.13216 -2,-4 a 3,3 0 0,0 -2.01562,-2.83008 1,1 0 0,0 0.015625,-0.169922 1,1 0 0,0 -1,-1 z  m -3.0352,4.6719 c -0.149308,1.40986 -0.80147,2.16475 -1.96484,3.32812 v 1 h 6.29297 l -1,-1 h -2.29297 -1.63867 c 0.673577,-0.755547 1.18258,-1.52391 1.44336,-2.48828 l -.8398,-.8398 z  m 1.623,5.3281 a 1.5,1.5 0 0,0 -0.0878906,0.5 1.5,1.5 0 0,0 1.5,1.5 1.5,1.5 0 0,0 1.5,-1.5 1.5,1.5 0 0,0 -0.0878906,-0.5 h -2.82422 z " class="ColorScheme-Text"/>
</svg>
