<svg width="16" version="1.1" xmlns="http://www.w3.org/2000/svg" height="16" viewBox="0 0 16 16">
<defs id="defs3051">
<style type="text/css" id="current-color-scheme">
.ColorScheme-Text {
color:#4d4d4d;
}
</style>
</defs>
<path style="fill:currentColor;opacity:.4" d="M 2.5,3 C 2.5,2.72386 2.72386,2.5 3,2.5 h 10 c 0.2761,0 0.5,0.22386 0.5,0.5 v 10 c 0,0.2761 -0.2239,0.5 -0.5,0.5 H 3 C 2.72386,13.5 2.5,13.2761 2.5,13 Z" class="ColorScheme-Text"/>
<path style="fill:currentColor" d="M 2,3 C 2,2.44772 2.44772,2 3,2 h 10 c 0.5523,0 1,0.44772 1,1 v 10 c 0,0.5523 -0.4477,1 -1,1 H 3 C 2.44772,14 2,13.5523 2,13 Z M 13,3 H 3 v 10 h 10 z" class="ColorScheme-Text"/>
</svg>
