<svg width="16" version="1.1" xmlns="http://www.w3.org/2000/svg" height="16" viewBox="0 0 16 16">
<defs id="defs3051">
<style type="text/css" id="current-color-scheme">
.ColorScheme-Text {
color:#4d4d4d;
}
</style>
</defs>
<path style="fill:currentColor" d="m 2.0312,.6562 a 1.34059,1.34059 0 0,0 -1.33984,1.33984 1.34059,1.34059 0 0,0 1.33984,1.3418 1.34059,1.34059 0 0,0 1.33984,-1.3418 1.34059,1.34059 0 0,0 -1.33984,-1.33984 z  m 11.8145,0 a 1.34059,1.34059 0 0,0 -1.33984,1.33984 1.34059,1.34059 0 0,0 1.33984,1.3418 1.34059,1.34059 0 0,0 1.3418,-1.3418 1.34059,1.34059 0 0,0 -1.3418,-1.33984 z  m -5.9062,.1055 a 1.23609,1.23609 0 0,0 -1.23633,1.23438 1.23609,1.23609 0 0,0 1.23633,1.23633 1.23609,1.23609 0 0,0 1.23633,-1.23633 1.23609,1.23609 0 0,0 -1.23633,-1.23438 z  m 2.9531,.1953 a 1.04067,1.04067 0 0,0 -1.04102,1.03906 1.04067,1.04067 0 0,0 1.04102,1.04102 1.04067,1.04067 0 0,0 1.04102,-1.04102 1.04067,1.04067 0 0,0 -1.04102,-1.03906 z  m -5.9082,.0937 a 0.946917,0.946917 0 0,0 -0.945312,0.945313 0.946917,0.946917 0 0,0 0.945312,0.947266 0.946917,0.946917 0 0,0 0.947266,-0.947266 0.946917,0.946917 0 0,0 -0.947266,-0.945313 z  m -2.9531,2.9102 a 1.06404,1.06404 0 0,0 -1.06445,1.0625 1.06404,1.06404 0 0,0 1.06445,1.06445 1.06404,1.06404 0 0,0 1.06445,-1.06445 1.06404,1.06404 0 0,0 -1.06445,-1.0625 z  m 11.8145,0 a 1.06261,1.06261 0 0,0 -1.0625,1.0625 1.06261,1.06261 0 0,0 1.0625,1.0625 1.06261,1.06261 0 0,0 1.0625,-1.0625 1.06261,1.06261 0 0,0 -1.0625,-1.0625 z  m -2.9141,.4883 a 0.607759,0.625 0 0,0 -0.607422,0.623047 0.607759,0.625 0 0,0 0.607422,0.626953 0.607759,0.625 0 0,0 0.609375,-0.626953 0.607759,0.625 0 0,0 -0.609375,-0.623047 z  m -5.8438,.0625 a 0.607759,0.625 0 0,0 -0.607422,0.623047 0.607759,0.625 0 0,0 0.607422,0.626953 0.607759,0.625 0 0,0 0.609375,-0.626953 0.607759,0.625 0 0,0 -0.609375,-0.623047 z  m -3.0566,2.3242 a 1.21573,1.21573 0 0,0 -1.21484,1.21484 1.21573,1.21573 0 0,0 1.21484,1.2168 1.21573,1.21573 0 0,0 1.21484,-1.2168 1.21573,1.21573 0 0,0 -1.21484,-1.21484 z  m 11.8145,.0059 a 1.20992,1.20992 0 0,0 -1.20898,1.20898 1.20992,1.20992 0 0,0 1.20898,1.21094 1.20992,1.20992 0 0,0 1.21094,-1.21094 1.20992,1.20992 0 0,0 -1.21094,-1.20898 z  m 0,3.1426 a 1.09545,1.09545 0 0,0 -1.09375,1.09375 1.09545,1.09545 0 0,0 1.09375,1.0957 1.09545,1.09545 0 0,0 1.0957,-1.0957 1.09545,1.09545 0 0,0 -1.0957,-1.09375 z  m -11.8145,.0586 a 1.03628,1.03628 0 0,0 -1.03711,1.03516 1.03628,1.03628 0 0,0 1.03711,1.03711 1.03628,1.03628 0 0,0 1.03711,-1.03711 1.03628,1.03628 0 0,0 -1.03711,-1.03516 z  m 2.9941,.4375 a 0.607759,0.625 0 0,0 -0.607422,0.623047 0.607759,0.625 0 0,0 0.607422,0.626953 0.607759,0.625 0 0,0 0.609375,-0.626953 0.607759,0.625 0 0,0 -0.609375,-0.623047 z  m 5.9063,.0312 a 0.607759,0.625 0 0,0 -0.607422,0.623047 0.607759,0.625 0 0,0 0.607422,0.626953 0.607759,0.625 0 0,0 0.609375,-0.626953 0.607759,0.625 0 0,0 -0.609375,-0.623047 z  m -8.9004,2.2539 a 1.34059,1.34059 0 0,0 -1.33984,1.33984 1.34059,1.34059 0 0,0 1.33984,1.3418 1.34059,1.34059 0 0,0 1.33984,-1.3418 1.34059,1.34059 0 0,0 -1.33984,-1.33984 z  m 11.8145,0 a 1.34059,1.34059 0 0,0 -1.33984,1.33984 1.34059,1.34059 0 0,0 1.33984,1.3418 1.34059,1.34059 0 0,0 1.3418,-1.3418 1.34059,1.34059 0 0,0 -1.3418,-1.33984 z  m -5.9062,.0938 a 1.24704,1.24704 0 0,0 -1.24805,1.24609 1.24704,1.24704 0 0,0 1.24805,1.24805 1.24704,1.24704 0 0,0 1.24609,-1.24805 1.24704,1.24704 0 0,0 -1.24609,-1.24609 z  m 2.9531,.1406 a 1.10631,1.10631 0 0,0 -1.10547,1.10547 1.10631,1.10631 0 0,0 1.10547,1.10742 1.10631,1.10631 0 0,0 1.10547,-1.10742 1.10631,1.10631 0 0,0 -1.10547,-1.10547 z  m -5.9082,.0605 a 1.04564,1.04564 0 0,0 -1.04492,1.04492 1.04564,1.04564 0 0,0 1.04492,1.04688 1.04564,1.04564 0 0,0 1.04688,-1.04688 1.04564,1.04564 0 0,0 -1.04688,-1.04492 z " class="ColorScheme-Text"/>
<path style="fill:currentColor;opacity:.5" d="m 10.9512,3.6055 c -0.81919,0 -1.48633,0.665185 -1.48633,1.48437 0,0.81919 0.667138,1.48633 1.48633,1.48633 0.81917,0 1.48633,-0.667158 1.48633,-1.48633 0,-0.81918 -0.667158,-1.48437 -1.48633,-1.48437 z  m -5.8789,.043 c -0.81919,0 -1.48633,0.667138 -1.48633,1.48633 0,0.81919 0.667138,1.48633 1.48633,1.48633 0.81917,0 1.48633,-0.667158 1.48633,-1.48633 0,-0.81918 -0.667158,-1.48632 -1.48633,-1.48633 z  m 5.8789,.2852 c 0.64096,0 1.15625,0.51528 1.15625,1.15625 0,0.64097 -0.51529,1.15819 -1.15625,1.1582 -0.64097,0 -1.15625,-0.517233 -1.15625,-1.1582 0,-0.64097 0.51528,-1.15626 1.15625,-1.15625 z  m -5.8789,.0449 c 0.64096,0 1.15625,0.51528 1.15625,1.15625 0,0.64097 -0.51529,1.15624 -1.15625,1.15625 -0.64097,0 -1.15625,-0.51528 -1.15625,-1.15625 0,-0.64097 0.51528,-1.15626 1.15625,-1.15625 z  m 2.9551,.2812 a 0.874889,0.874889 0 0,0 -0.875,0.875 0.874889,0.874889 0 0,0 0.875,0.875 0.874889,0.874889 0 0,0 0.875,-0.875 0.874889,0.874889 0 0,0 -0.875,-0.875 z  m 0,2.4863 c -0.76599,0 -1.39063,0.622672 -1.39063,1.38867 0,0.766 0.624635,1.39062 1.39063,1.39062 0.76599,0 1.38867,-0.624635 1.38867,-1.39062 0,-0.76599 -0.622682,-1.38866 -1.38867,-1.38867 z  m 0,.3066 c 0.59936,0 1.08008,0.482681 1.08008,1.08203 0,0.59935 -0.480718,1.08202 -1.08008,1.08203 -0.59935,0 -1.08203,-0.482681 -1.08203,-1.08203 0,-0.59935 0.482681,-1.08205 1.08203,-1.08203 z  m 2.9238,.2168 a 0.821795,0.821795 0 0,0 -0.822266,0.820313 0.821795,0.821795 0 0,0 0.822266,0.822266 0.821795,0.821795 0 0,0 0.822266,-0.822266 0.821795,0.821795 0 0,0 -0.822266,-0.820313 z  m -5.877,.0156 a 0.849579,0.849579 0 0,0 -0.849609,0.849609 0.849579,0.849579 0 0,0 0.849609,0.849609 0.849579,0.849579 0 0,0 0.849609,-0.849609 0.849579,0.849579 0 0,0 -0.849609,-0.849609 z  m 5.877,2.3203 c -0.81919,0 -1.48633,0.665185 -1.48633,1.48438 0,0.81919 0.667138,1.48633 1.48633,1.48633 0.81917,0 1.48633,-0.667158 1.48633,-1.48633 0,-0.81918 -0.667158,-1.48437 -1.48633,-1.48438 z  m -5.8789,.043 c -0.81919,0 -1.48633,0.667139 -1.48633,1.48633 0,0.81919 0.667138,1.48633 1.48633,1.48633 0.81917,0 1.48633,-0.667158 1.48633,-1.48633 0,-0.81918 -0.667158,-1.48632 -1.48633,-1.48633 z  m 5.8789,.2852 c 0.64096,0 1.15625,0.51528 1.15625,1.15625 0,0.64097 -0.51529,1.15819 -1.15625,1.1582 -0.64097,0 -1.15625,-0.517233 -1.15625,-1.1582 0,-0.64097 0.51528,-1.15626 1.15625,-1.15625 z  m -5.8789,.0449 c 0.64096,0 1.15625,0.51528 1.15625,1.15625 0,0.64097 -0.51529,1.15624 -1.15625,1.15625 -0.64097,0 -1.15625,-0.51528 -1.15625,-1.15625 0,-0.64097 0.51528,-1.15626 1.15625,-1.15625 z  m 2.9551,.3652 a 0.791535,0.791535 0 0,0 -0.791016,0.791016 0.791535,0.791535 0 0,0 0.791016,0.791015 0.791535,0.791535 0 0,0 0.791016,-0.791015 0.791535,0.791535 0 0,0 -0.791016,-0.791016 z " class="ColorScheme-Text"/>
</svg>
