<svg width="16" version="1.1" xmlns="http://www.w3.org/2000/svg" height="16" viewBox="0 0 16 16">
<defs id="defs3051">
<style type="text/css" id="current-color-scheme">
.ColorScheme-Text {
color:#4d4d4d;
}
</style>
</defs>
<path style="fill:currentColor" d="m 1.4805,0 a 1.47964,1.4502 0 0,0 -1.48047,1.44922 1.47964,1.4502 0 0,0 1.48047,1.45117 1.47964,1.4502 0 0,0 1.47852,-1.45117 1.47964,1.4502 0 0,0 -1.47852,-1.44922 z  m 13.0391,0 a 1.47964,1.4502 0 0,0 -1.47851,1.44922 1.47964,1.4502 0 0,0 1.47851,1.45117 1.47964,1.4502 0 0,0 1.48047,-1.45117 1.47964,1.4502 0 0,0 -1.48047,-1.44922 z  m -9.7793,.0195 a 1.45903,1.43 0 0,0 -1.45898,1.42969 1.45903,1.43 0 0,0 1.45898,1.43164 1.45903,1.43 0 0,0 1.45898,-1.43164 1.45903,1.43 0 0,0 -1.45898,-1.42969 z  m 6.5195,0 a 1.45903,1.43001 0 0,0 -1.45898,1.42969 1.45903,1.43001 0 0,0 1.45898,1.43164 1.45903,1.43001 0 0,0 1.45898,-1.43164 1.45903,1.43001 0 0,0 -1.45898,-1.42969 z  m -3.2598,.0938 a 1.3643,1.33716 0 0,0 -1.36523,1.33594 1.3643,1.33716 0 0,0 1.36523,1.33789 1.3643,1.33716 0 0,0 1.36523,-1.33789 1.3643,1.33716 0 0,0 -1.36523,-1.33594 z  m -6.5195,3.1895 a 1.45033,1.42148 0 0,0 -1.45117,1.42188 1.45033,1.42148 0 0,0 1.45117,1.42188 1.45033,1.42148 0 0,0 1.44922,-1.42188 1.45033,1.42148 0 0,0 -1.44922,-1.42188 z  m 13.0391,.002 a 1.44875,1.41993 0 0,0 -1.44726,1.41992 1.44875,1.41993 0 0,0 1.44726,1.41992 1.44875,1.41993 0 0,0 1.44922,-1.41992 1.44875,1.41993 0 0,0 -1.44922,-1.41992 z  m -9.7793,.5293 a 0.909499,0.891407 0 0,0 -0.910156,0.890625 0.909499,0.891407 0 0,0 0.910156,0.892578 0.909499,0.891407 0 0,0 0.908203,-0.892578 0.909499,0.891407 0 0,0 -0.908203,-0.890625 z  m 6.5195,.0039 a 0.904491,0.886498 0 0,0 -0.904297,0.886719 0.904491,0.886498 0 0,0 0.904297,0.886719 0.904491,0.886498 0 0,0 0.904296,-0.886719 0.904491,0.886498 0 0,0 -0.904296,-0.886719 z  m -3.2598,.2637 a 0.635733,0.623086 0 0,0 -0.636719,0.623047 0.635733,0.623086 0 0,0 0.636719,0.623047 0.635733,0.623086 0 0,0 0.634766,-0.623047 0.635733,0.623086 0 0,0 -0.634766,-0.623047 z  m -6.5195,2.584 a 1.34183,1.31513 0 0,0 -1.3418,1.31445 1.34183,1.31513 0 0,0 1.3418,1.31445 1.34183,1.31513 0 0,0 1.3418,-1.31445 1.34183,1.31513 0 0,0 -1.3418,-1.31445 z  m 13.0391,.0059 a 1.33541,1.30884 0 0,0 -1.33398,1.30859 1.33541,1.30884 0 0,0 1.33398,1.30859 1.33541,1.30884 0 0,0 1.33594,-1.30859 1.33541,1.30884 0 0,0 -1.33594,-1.30859 z  m -9.7793,.6914 a 0.630474,0.617932 0 0,0 -0.630859,0.617188 0.630474,0.617932 0 0,0 0.630859,0.617188 0.630474,0.617932 0 0,0 0.628906,-0.617188 0.630474,0.617932 0 0,0 -0.628906,-0.617188 z  m 6.5195,.0039 a 0.624827,0.612397 0 0,0 -0.625,0.613281 0.624827,0.612397 0 0,0 0.625,0.611328 0.624827,0.612397 0 0,0 0.625,-0.611328 0.624827,0.612397 0 0,0 -0.625,-0.613281 z  m -3.2598,.2402 a 0.379981,0.372422 0 0,0 -0.380859,0.373047 0.379981,0.372422 0 0,0 0.380859,0.373047 0.379981,0.372422 0 0,0 0.380859,-0.373047 0.379981,0.372422 0 0,0 -0.380859,-0.373047 z  m -6.5195,2.2227 a 1.45419,1.42526 0 0,0 -1.45508,1.42578 1.45419,1.42526 0 0,0 1.45508,1.42383 1.45419,1.42526 0 0,0 1.45313,-1.42383 1.45419,1.42526 0 0,0 -1.45313,-1.42578 z  m 13.0391,.0039 a 1.45051,1.42165 0 0,0 -1.44922,1.42188 1.45051,1.42165 0 0,0 1.44922,1.42188 1.45051,1.42165 0 0,0 1.45117,-1.42188 1.45051,1.42165 0 0,0 -1.45117,-1.42188 z  m -9.7793,.5176 a 0.922201,0.903855 0 0,0 -0.921875,0.904297 0.922201,0.903855 0 0,0 0.921875,0.902343 0.922201,0.903855 0 0,0 0.921875,-0.902343 0.922201,0.903855 0 0,0 -0.921875,-0.904297 z  m 6.5195,.0059 a 0.915899,0.897679 0 0,0 -0.916016,0.898438 0.915899,0.897679 0 0,0 0.916016,0.896484 0.915899,0.897679 0 0,0 0.916015,-0.896484 0.915899,0.897679 0 0,0 -0.916015,-0.898438 z  m -3.2598,.2637 a 0.647793,0.634906 0 0,0 -0.648438,0.634766 0.647793,0.634906 0 0,0 0.648438,0.634765 0.647793,0.634906 0 0,0 0.646484,-0.634765 0.647793,0.634906 0 0,0 -0.646484,-0.634766 z  m -6.5195,2.459 a 1.47964,1.4502 0 0,0 -1.48047,1.44922 1.47964,1.4502 0 0,0 1.48047,1.45117 1.47964,1.4502 0 0,0 1.47852,-1.45117 1.47964,1.4502 0 0,0 -1.47852,-1.44922 z  m 13.0391,0 a 1.47964,1.4502 0 0,0 -1.47851,1.44922 1.47964,1.4502 0 0,0 1.47851,1.45117 1.47964,1.4502 0 0,0 1.48047,-1.45117 1.47964,1.4502 0 0,0 -1.48047,-1.44922 z  m -9.7793,.0137 a 1.46451,1.43538 0 0,0 -1.46484,1.43555 1.46451,1.43538 0 0,0 1.46484,1.43555 1.46451,1.43538 0 0,0 1.46484,-1.43555 1.46451,1.43538 0 0,0 -1.46484,-1.43555 z  m 6.5195,.002 a 1.46249,1.4334 0 0,0 -1.46289,1.43359 1.46249,1.4334 0 0,0 1.46289,1.43359 1.46249,1.4334 0 0,0 1.46289,-1.43359 1.46249,1.4334 0 0,0 -1.46289,-1.43359 z  m -3.2598,.0859 a 1.37639,1.34901 0 0,0 -1.37695,1.34766 1.37639,1.34901 0 0,0 1.37695,1.34961 1.37639,1.34901 0 0,0 1.37695,-1.34961 1.37639,1.34901 0 0,0 -1.37695,-1.34766 z " class="ColorScheme-Text"/>
</svg>
