<svg width="16" version="1.1" xmlns="http://www.w3.org/2000/svg" height="16" viewBox="0 0 16 16">
<defs id="defs3051">
<style type="text/css" id="current-color-scheme">
.ColorScheme-Text {
color:#4d4d4d;
}
</style>
</defs>
<g style="fill-rule:evenodd">
<path style="fill:currentColor" d="M 13.5,2 H 2.5 C 2.22386,2 2,2.22386 2,2.5 v 11 C 2,13.7761 2.22386,14 2.5,14 h 11 C 13.7761,14 14,13.7761 14,13.5 V 2.5 C 14,2.22386 13.7761,2 13.5,2 Z M 2.5,1 C 1.67157,1 1,1.67157 1,2.5 v 11 C 1,14.3284 1.67157,15 2.5,15 h 11 C 14.3284,15 15,14.3284 15,13.5 V 2.5 C 15,1.67157 14.3284,1 13.5,1 Z" class="ColorScheme-Text"/>
<path style="fill:currentColor;opacity:.7" d="M 2,11.6076 V 14 H 4.39241 C 3.41312,13.4099 2.59008,12.5869 2,11.6076 Z M 11.6076,14 H 14 V 11.6076 C 13.4099,12.5869 12.5869,13.4099 11.6076,14 Z M 14,4.39241 V 2 H 11.6076 C 12.5869,2.59008 13.4099,3.41312 14,4.39241 Z M 4.39241,2 H 2 V 4.39241 C 2.59008,3.41313 3.41313,2.59008 4.39241,2 Z" class="ColorScheme-Text"/>
<path style="fill:currentColor;opacity:.55" d="M 8,1 C 4.13401,1 1,4.13401 1,8 c 0,3.866 3.13401,7 7,7 3.866,0 7,-3.134 7,-7 C 15,4.13401 11.866,1 8,1 Z M 8,2 C 4.68629,2 2,4.68629 2,8 c 0,3.3137 2.68629,6 6,6 3.3137,0 6,-2.6863 6,-6 C 14,4.68629 11.3137,2 8,2 Z" class="ColorScheme-Text"/>
<path style="fill:currentColor;opacity:.45" d="M 8,2 C 4.68629,2 2,4.68629 2,8 c 0,3.3137 2.68629,6 6,6 3.3137,0 6,-2.6863 6,-6 C 14,4.68629 11.3137,2 8,2 Z M 8,3 C 5.23858,3 3,5.23858 3,8 c 0,2.7614 2.23858,5 5,5 2.7614,0 5,-2.2386 5,-5 C 13,5.23858 10.7614,3 8,3 Z" class="ColorScheme-Text"/>
<path style="fill:currentColor;opacity:.35" d="M 8,3 C 5.23858,3 3,5.23858 3,8 c 0,2.7614 2.23858,5 5,5 2.7614,0 5,-2.2386 5,-5 C 13,5.23858 10.7614,3 8,3 Z M 8,4 C 5.79086,4 4,5.79086 4,8 c 0,2.2091 1.79086,4 4,4 2.2091,0 4,-1.7909 4,-4 C 12,5.79086 10.2091,4 8,4 Z" class="ColorScheme-Text"/>
<path style="fill:currentColor;opacity:.25" d="M 8,4 C 5.79086,4 4,5.79086 4,8 c 0,2.2091 1.79086,4 4,4 2.2091,0 4,-1.7909 4,-4 C 12,5.79086 10.2091,4 8,4 Z M 8,5 C 6.34315,5 5,6.34315 5,8 5,9.65685 6.34315,11 8,11 9.65685,11 11,9.65685 11,8 11,6.34315 9.65685,5 8,5 Z" class="ColorScheme-Text"/>
<path style="fill:currentColor;opacity:.1" d="M 8,5 C 6.34315,5 5,6.34315 5,8 5,9.65685 6.34315,11 8,11 9.65685,11 11,9.65685 11,8 11,6.34315 9.65685,5 8,5 Z M 8,6 C 6.89543,6 6,6.89543 6,8 6,9.10457 6.89543,10 8,10 9.10457,10 10,9.10457 10,8 10,6.89543 9.10457,6 8,6 Z" class="ColorScheme-Text"/>
</g>
</svg>
