<svg width="16" version="1.1" xmlns="http://www.w3.org/2000/svg" viewBox="0 0 16 16" height="16">
<defs id="defs3051">
<style type="text/css" id="current-color-scheme">
.ColorScheme-Text {
color:#4d4d4d;
}
</style>
</defs>
<path style="fill:currentColor" d="m 8.1348,.002 c -1.54128,0.0326854 -3.47126,0.57698 -4.63477,1.39648 l 1.0742,2.2812 c 1.05112,-0.657562 2.53809,-1.13441 3.45703,-1.10352 0.946558,0.0318313 1.56165,0.72919 1.50977,1.4375 -0.0927468,1.262 -0.952622,1.906 -2.16992,2.82812 -0.82324,0.623576 -1.33789,1.83261 -1.33789,2.52344 v 0.613281 h 2.75 v -0.613281 c 0,-1.34296 3.76309,-2.27761 3.77344,-5.41211 0.006385,-2.53142 -1.96908,-4.00321 -4.42188,-3.95117 z  m -.6699,12.1621 c -1.19431,1e-06 -1.82227,0.737541 -1.82227,1.74609 0,1.00855 0.475582,1.74609 1.82227,1.74609 1.34668,0 1.83227,-0.734503 1.82422,-1.74609 -0.0082213,-1.01159 -0.629907,-1.74609 -1.82422,-1.74609 z " class="ColorScheme-Text"/>
</svg>
