<svg width="16" version="1.1" xmlns="http://www.w3.org/2000/svg" height="16" viewBox="0 0 16 16">
<defs id="defs3051">
<style type="text/css" id="current-color-scheme">
.ColorScheme-Text {
color:#4d4d4d;
}
</style>
</defs>
<path style="fill:currentColor" d="m 5.5,0 c -3.0376,0 -5.5,2.4624 -5.5,5.5 0,2.86866 2.19737,5.21375 5,5.4668 v 0.001953 4.03125 h 10 v -10 h -4.03125 c 0.0149,0.1649 0.03125,0.3312 0.03125,0.5 0,1.3289 -0.4654,2.5493 -1.25,3.5 -0.0909,0.1057 -0.18275,0.214 -0.28125,0.3125 -0.0252,0.0264 -0.06785,0.0366 -0.09375,0.0625 -0.1005,0.0965 -0.17365,0.2237 -0.28125,0.3125 -0.0278,0.0239 -0.06545,0.0392 -0.09375,0.0625 -0.1092,0.0865 -0.22805,0.1718 -0.34375,0.25 -0.0185,0.0131 -0.0438,0.01845 -0.0625,0.03125 -0.1579,0.1038 -0.30005,0.2251 -0.46875,0.3125 -0.7564,0.392 -1.62105,0.59375 -2.53125,0.59375 -0.201503,0 -0.369764,-0.091776 -0.5625,-0.121094 v -5.81641 h 5.9375 c -0.2529,-2.8029 -2.60005,-5 -5.46875,-5 z " class="ColorScheme-Text"/>
<path style="fill:currentColor;opacity:.4" d="m 5.0313,4.9999 v 5.9688 c 0.1649,0.0149 0.3312,0.0313 0.5,0.0313 3.0376,0 5.5,-2.4625 5.5,-5.5 0,-0.1688 -0.0164,-0.3351 -0.0313,-0.5 z " class="ColorScheme-Text"/>
</svg>
