<svg width="16" version="1.1" xmlns="http://www.w3.org/2000/svg" height="16" viewBox="0 0 16 16">
<defs id="defs3051">
<style type="text/css" id="current-color-scheme">
.ColorScheme-Text {
color:#4d4d4d;
}
</style>
</defs>
<path style="fill:currentColor" d="m 5.5,0 c -3.0376,0 -5.5,2.4624 -5.5,5.5 0,2.86905 2.19672,5.22591 5,5.47852 v 5.02148 h 2 9 v -2 -7 -2 h -5.02148 c -0.252656,-2.80323 -2.6095,-5 -5.47852,-5 z  m 0,1 c 2.31626,0 4.22389,1.75006 4.47266,4 h -3.97266 -1 v 1 3.97266 c -2.24999,-0.248718 -4,-2.15636 -4,-4.47266 0,-2.4853 2.0147,-4.5 4.5,-4.5 z  m .5,5 h 3.97266 c -0.231044,2.09053 -1.89389,3.74991 -3.98633,3.97461 l .0137,-3.9746 z  m 4.9785,0 h 3.99023 v 9 h -9 l .0137,-4.0215 c 2.64681,-0.230059 4.75785,-2.33406 4.99609,-4.97852 z " class="ColorScheme-Text"/>
</svg>
