<svg width="16" version="1.1" xmlns="http://www.w3.org/2000/svg" height="16" viewBox="0 0 16 16">
<defs id="defs3051">
<style type="text/css" id="current-color-scheme">
.ColorScheme-Text {
color:#4d4d4d;
}
</style>
</defs>
<path style="fill:currentColor;opacity:.4" d="m 5.5,.0002 c -3.0376,0 -5.5,2.4625 -5.5,5.49999 0,3.0376 2.4624,5.49999 5.5,5.49999 3.0376,0 5.5,-2.4624 5.5,-5.49999 0,-3.0375 -2.4624,-5.49999 -5.5,-5.49999 Z  m 0,2 c 1.933,0 3.5,1.567 3.5,3.5 0,1.933 -1.567,3.5 -3.5,3.5 -1.933,0 -3.5,-1.567 -3.5,-3.5 0,-1.933 1.567,-3.5 3.5,-3.5 Z " class="ColorScheme-Text"/>
<path style="fill:currentColor" d="m 4.9688,5 v 2 1 h 1 v -2 h 2 v -1 h -1 -2 z  m 7,0 c 0.013,0.1678 0.03125,0.329 0.03125,0.5 0,0.177856 0.011297,0.237194 0.019531,0.255859 v 0.0019531 l .002,.002 v 0.0019532 h 0.001954 l .002,.002 h 0.001953 c 0.006475,1.25e-05 -0.001494,-0.0049216 -0.058594,0.236328 h 3 v 9 h -9 v -3 c -0.150781,0.035687 -0.20495,0.049248 -0.220703,0.050781 h -0.0019531 -0.0019532 v -0.001953 -0.001953 c 0.0006045,-0.001255 0.0029344,-0.004075 0.0039063,-0.005859 l .002,-.002 v -0.001953 -0.001953 -0.001953 -0.001953 h -0.0019531 v -0.001953 l -.002,-.002 -.002,-.002 c -0.0168456,-0.012488 -0.0744015,-0.025391 -0.244141,-0.025391 -0.1711,0 -0.3323,-0.01825 -0.5,-0.03125 v 4.03125 h 2 9 v -2 -7 -2 h -2 -2.03125 z " class="ColorScheme-Text"/>
</svg>
