<svg width="16" version="1.1" xmlns="http://www.w3.org/2000/svg" height="16" viewBox="0 0 16 16">
<defs id="defs3051">
<style type="text/css" id="current-color-scheme">
.ColorScheme-Text {
color:#4d4d4d;
}
</style>
</defs>
<path style="fill:currentColor" d="m 5.5,2e-5 c -3.0376,0 -5.5,2.4624 -5.5,5.5 0,2.51724 1.69171,4.63363 4,5.28516 V 4.00002 h 6.78516 C 10.13368,1.69173 8.01724,2e-5 5.5,2e-5 Z m -0.5,5 v 5 c 0.1655,0.019 0.45437,0 0.625,0 2.41625,0 4.375,-1.95875 4.375,-4.375 0,-0.20963 -0.01,-0.42325 -0.0391,-0.625 z m 5.9688,0 c 0.0149,0.1649 0.0312,0.3312 0.0312,0.5 0,3.0376 -2.4624,5.5 -5.5,5.5 -0.1583,0 -0.31385,-0.018 -0.46875,-0.0312 v 4.0312 h 10 v -10 H 11 Z" class="ColorScheme-Text"/>
</svg>
