<svg width="16" version="1.1" xmlns="http://www.w3.org/2000/svg" height="16" viewBox="0 0 16 16">
<defs id="defs3051">
<style type="text/css" id="current-color-scheme">
.ColorScheme-Text {
color:#4d4d4d;
}
</style>
</defs>
<path style="fill:currentColor" d="m 5.5,0 c -3.0376,0 -5.5,2.46245 -5.5,5.5 0,3.03755 2.4624,5.5 5.5,5.5 3.0376,0 5.5,-2.46245 5.5,-5.5 0,-3.03755 -2.4624,-5.5 -5.5,-5.5 z  m 0,1 c 2.4853,0 4.5,2.01474 4.5,4.5 0,2.48526 -2.0147,4.5 -4.5,4.5 -2.4853,0 -4.5,-2.01474 -4.5,-4.5 0,-2.48526 2.0147,-4.5 4.5,-4.5 z  m -.5312,4 v 2 1 h 1 v -2 h 2 v -1 h -1 -2 z  m 7.0312,0 l -.0312,1 h 3 v 9 h -9 v -3 c -0.150781,0.035687 -0.204898,0.049248 -0.220703,0.050781 h -0.0019531 -0.0019532 v -0.001953 -0.001953 -0.001953 h 0.0019532 c 0.0007816,-0.001085 0.001471,-0.003014 0.0019531,-0.003906 l .002,-.002 v -0.001953 -0.001953 -0.001953 l -.002,-.002 v -0.001953 h -0.0019531 v -0.001953 l -.002,-.002 c -0.0168438,-0.012488 -0.0745656,-0.025391 -0.244141,-0.025391 -0.1711,0 -0.3323,-0.01825 -0.5,-0.03125 v 4.03125 h 2 9 v -2 -7 -2 h -2 -2 z " class="ColorScheme-Text"/>
</svg>
