<svg width="16" version="1.1" xmlns="http://www.w3.org/2000/svg" height="16" viewBox="0 0 16 16">
<defs id="defs3051">
<style type="text/css" id="current-color-scheme">
.ColorScheme-Text {
color:#4d4d4d;
}
</style>
</defs>
<path style="fill:currentColor" d="m 5,7.80532 c -1.55639,0 -2.80529,-1.24889 -2.80529,-2.80529 0,-1.55639 1.2489,-2.80529 2.80529,-2.80529 1.55639,0 2.80529,1.2489 2.80529,2.80529 0,1.5564 -1.2489,2.80529 -2.80529,2.80529 z m 0,-6.8053 c -2.21066,0 -4,1.78934 -4,4 0,2.21067 1.78934,4 4,4 2.21066,0 4,-1.78933 4,-4 0,-2.21066 -1.78934,-4 -4,-4 z" class="ColorScheme-Text"/>
<path style="fill:currentColor" d="m 11,13.80532 c -1.55639,0 -2.80529,-1.24889 -2.80529,-2.80529 0,-1.55639 1.2489,-2.80529 2.80529,-2.80529 1.55639,0 2.80529,1.2489 2.80529,2.80529 0,1.5564 -1.2489,2.80529 -2.80529,2.80529 z m 0,-6.8053 c -2.21066,0 -4,1.78934 -4,4 0,2.21067 1.78934,4 4,4 2.21066,0 4,-1.78933 4,-4 0,-2.21066 -1.78934,-4 -4,-4 z" class="ColorScheme-Text"/>
</svg>
