<svg width="16" version="1.1" xmlns="http://www.w3.org/2000/svg" height="16" viewBox="0 0 16 16">
<defs id="defs3051">
<style type="text/css" id="current-color-scheme">
.ColorScheme-Text {
color:#4d4d4d;
}
</style>
</defs>
<path style="fill:currentColor" d="m 5,5 v 4 c 0.1324,0.0152 0.3635,0 0.5,0 1.933,0 3.5,-1.567 3.5,-3.5 0,-0.1677 -0.008,-0.3386 -0.0313,-0.5 z  m 5.9687,0 c 0.0149,0.1649 0.0313,0.3312 0.0313,0.5 0,3.0376 -2.4624,5.5 -5.5,5.5 -0.1583,0 -0.3138,-0.0181 -0.4687,-0.0313 v 4.0313 h 10 v -10 h -8 Z " class="ColorScheme-Text"/>
<path style="fill:currentColor;opacity:.4" d="m 5.5,0 c -3.0376,0 -5.5,2.4624 -5.5,5.5 0,2.8687 2.1971,5.2157 5,5.4687 v -5.9687 h 5.9687 c -0.2529,-2.8029 -2.6,-5 -5.4687,-5 z " class="ColorScheme-Text"/>
</svg>
