<svg width="16" version="1.1" xmlns="http://www.w3.org/2000/svg" height="16" viewBox="0 0 16 16">
<defs id="defs3051">
<style type="text/css" id="current-color-scheme">
.ColorScheme-Text {
color:#4d4d4d;
}
</style>
</defs>
<path style="fill:currentColor" d="m 1.5,0 a 1.5,1.5 0 0,0 -1.5,1.5 1.5,1.5 0 0,0 1.5,1.5 1.5,1.5 0 0,0 1.5,-1.5 1.5,1.5 0 0,0 -1.5,-1.5 z  m 13,0 a 1.5,1.5 0 0,0 -1.5,1.5 1.5,1.5 0 0,0 1.5,1.5 1.5,1.5 0 0,0 1.5,-1.5 1.5,1.5 0 0,0 -1.5,-1.5 z  m -8.75,2 c -2.06452,0 -3.75,1.68548 -3.75,3.75 v 4.5 c 0,2.06452 1.68548,3.75 3.75,3.75 h 4.5 c 2.06452,0 3.75,-1.68548 3.75,-3.75 v -4.5 c 0,-2.06452 -1.68548,-3.75 -3.75,-3.75 h -4.5 z  m 0,1.5 h 4.5 c 1.25947,0 2.25,0.99053 2.25,2.25 v 4.5 c 0,1.25947 -0.990529,2.25 -2.25,2.25 h -4.5 c -1.25947,0 -2.25,-0.990529 -2.25,-2.25 v -4.5 c 0,-1.25947 0.99053,-2.25 2.25,-2.25 z  m -4.25,9.5 a 1.5,1.5 0 0,0 -1.5,1.5 1.5,1.5 0 0,0 1.5,1.5 1.5,1.5 0 0,0 1.5,-1.5 1.5,1.5 0 0,0 -1.5,-1.5 z  m 13,0 a 1.5,1.5 0 0,0 -1.5,1.5 1.5,1.5 0 0,0 1.5,1.5 1.5,1.5 0 0,0 1.5,-1.5 1.5,1.5 0 0,0 -1.5,-1.5 z " class="ColorScheme-Text"/>
</svg>
