<svg width="16" version="1.1" xmlns="http://www.w3.org/2000/svg" viewBox="0 0 16 16" height="16">
<defs id="defs3051">
<style type="text/css" id="current-color-scheme">
.ColorScheme-Text {
color:#4d4d4d;
}
</style>
</defs>
<path style="fill:currentColor" d="m 10,1 v 5 h 5 v -5 h -5 z  m -8.9746,3 l 0,.5586 v 1.41797 h 1.11523 v -0.861328 h 0.871094 v -1.11523 h -1.98633 z  m 3.416,0 v 1.11523 h 1.42773 v -1.11523 h -1.42773 z  m 2.8574,0 v 1.11523 h 1.42773 v -1.11523 h -1.42773 z  m -6.2598,3.3105 v 1.41797 h 1.11523 v -1.41797 h -1.11523 z  m 9.8594,0 v 1.41797 h 1.11523 v -1.41797 h -1.11523 z  m -9.8594,2.8359 v 1.41797 h 1.11523 v -1.41797 h -1.11523 z  m 9.8594,0 v 1.41797 h 1.11523 v -1.41797 h -1.11523 z  m -9.8594,2.8359 v 1.97656 h 1.98633 v -1.11523 h -0.871094 v -0.861328 h -1.11523 z  m 9.8594,0 v 0.861328 h -0.871094 v 1.11523 h 1.98633 v -1.97656 h -1.11523 z  m -6.4434,.8613 v 1.11523 h 1.42773 v -1.11523 h -1.42773 z  m 2.8574,0 v 1.11523 h 1.42773 v -1.11523 h -1.42773 z " class="ColorScheme-Text"/>
</svg>
