<svg width="16" version="1.1" xmlns="http://www.w3.org/2000/svg" height="16">
<defs id="defs3051">
<style type="text/css" id="current-color-scheme">
.ColorScheme-Text {
color:#4d4d4d;
}
</style>
</defs>
<path style="fill:currentColor;fill-opacity:1;stroke:none" d="m 10.1445,.0059 c -0.13706,0.48516 -0.231901,1.09972 -0.380859,1.58398 -0.094625,0.0147299 -0.192446,0.0131262 -0.287109,0.0351562 -0.329199,0.076601 -0.641516,0.19919 -0.929688,0.345703 -0.390763,-0.307721 -0.831664,-0.741289 -1.22461,-1.04883 -0.257682,0.169349 -0.495268,0.351924 -0.71875,0.558594 0.206679,0.454507 0.521544,0.994298 0.732422,1.45703 -0.282297,0.324807 -0.496868,0.668348 -0.664062,1.06445 -0.509624,0.016423 -1.13439,-0.0262856 -1.63477,-0.0097656 -0.086963,0.291239 -0.145352,0.583392 -0.183594,0.888672 0.450641,0.215014 1.03455,0.41788 1.48438,0.630859 -0.00426,0.322427 0.0247145,0.65821 0.101562,0.986328 0.02209,0.094312 0.0694163,0.178346 0.0976563,0.269531 -0.369677,0.347547 -0.884021,0.703703 -1.25977,1.04102 0.114321,0.259532 0.256782,0.517265 0.40625,0.751953 0.484567,-0.123168 1.06671,-0.34592 1.55664,-0.458984 0.27602,0.343751 0.592104,0.648663 0.958984,0.884766 -0.0622501,0.50168 -0.212433,1.0966 -0.28125,1.5918 0.251579,0.124433 0.522238,0.218811 0.791016,0.304687 0.291769,-0.401251 0.587843,-0.939628 0.890625,-1.3457 0.414481,0.083257 0.844169,0.0798857 1.28125,0.0273437 0.273307,0.432901 0.553484,1.00495 0.826172,1.43555 0.298309,-0.07147 0.577206,-0.149426 0.851563,-0.263672 -0.03417,-0.505357 -0.148731,-1.13051 -0.189453,-1.64844 0.37929,-0.209934 0.743413,-0.450125 1.03125,-0.759766 0.4816,0.163343 1.03325,0.412854 1.5,0.560547 0.177574,-0.239881 0.339397,-0.4968 0.476562,-0.761719 -0.339518,-0.351778 -0.809738,-0.735662 -1.16992,-1.09375 0.151093,-0.394346 0.205656,-0.825881 0.226563,-1.25781 0.483957,-0.192903 1.09667,-0.365406 1.56641,-0.558594 -0.01876,-0.295765 -0.072554,-0.580717 -0.140625,-0.878906 -0.508104,-0.05302 -1.14581,-0.0489845 -1.65625,-0.101562 -0.146266,-0.4139 -0.333387,-0.797298 -0.591797,-1.13086 0.231229,-0.450399 0.584642,-0.958056 0.816406,-1.39648 -0.196259,-0.202185 -0.39972,-0.402519 -0.623046,-0.572266 -0.415004,0.280769 -0.886814,0.679266 -1.31055,0.957031 -0.374829,-0.223345 -0.787298,-0.370359 -1.21875,-0.464844 -0.115251,-0.487903 -0.171426,-1.10619 -0.275391,-1.59375 -0.277291,-0.0296184 -0.571378,-0.0420374 -0.855469,-0.0292969 z  m .2051,3.543 c 0.946119,-0.025941 1.81355,0.609961 2.03711,1.56445 0.255491,1.09084 -0.427072,2.18284 -1.52149,2.4375 -1.09441,0.254658 -2.18787,-0.424769 -2.44336,-1.51562 -0.255491,-1.09084 0.425125,-2.17893 1.51953,-2.43359 0.136801,-0.031832 0.273044,-0.0490294 0.408203,-0.0527344 z  m -6.5879,4.4512 c -0.169202,-0.0018911 -0.397408,0.121608 -0.736328,0.216797 -0.756025,0.209642 -1.0234,0.0690572 -0.826172,0.837891 l .1445,.5664 c -0.0514744,0.0457423 -0.122355,0.100744 -0.173828,0.146484 -0.214404,0.162866 -0.382345,0.377926 -0.53125,0.583984 l -.5703,-.1465 c -0.769997,-0.199607 -0.65131,0.130113 -0.845703,0.789063 -0.238277,0.774877 -0.459527,0.888132 0.320312,1.0957 l .5996,.1582 c 0.013574,0.255252 0.0749939,0.514138 0.185547,0.775391 l -.4902,.3984 c -0.631811,0.514059 -0.362959,0.559693 0.0917969,1.11328 0.492374,0.633199 0.466583,0.806525 1.07617,0.310547 l .4922,-.3984 c 0.355989,0.227513 0.793836,0.370136 1.21875,0.425781 l .1445,.5918 c 0.197736,0.812299 0.437398,0.508739 1.11523,0.318359 0.756025,-0.209641 1.02144,-0.069047 0.824219,-0.837891 l -.1445,-.5684 c 0.051473,-0.04575 0.122354,-0.100744 0.173828,-0.146484 0.214404,-0.162865 0.384298,-0.375973 0.533203,-0.582031 l .5703,.1465 c 0.738409,0.296625 0.651304,-0.130112 0.845703,-0.789063 0.238277,-0.774877 0.457574,-0.888132 -0.322266,-1.0957 l -.5977,-.1602 c -0.013575,-0.255252 -0.076947,-0.512178 -0.1875,-0.773438 l .4922,-.4004 c 0.631811,-0.514059 0.362959,-0.559691 -0.0917969,-1.11328 -0.492374,-0.6332 -0.466585,-0.80653 -1.07617,-0.310547 l -.4922,.4004 c -0.355987,-0.227512 -0.795796,-0.372088 -1.2207,-0.427734 l -.1445,-.5898 c -0.0988679,-0.406148 -0.207753,-0.533275 -0.376953,-0.535156 z  m .0273,2.7969 c 0.372386,-0.03591 0.758249,0.102648 1.01953,0.40625 0.39806,0.494313 0.332875,1.23408 -0.150391,1.6543 -0.49177,0.400119 -1.22647,0.333417 -1.64453,-0.152344 -0.418051,-0.485768 -0.334827,-1.23213 0.148438,-1.65234 0.184414,-0.150044 0.403521,-0.234307 0.626953,-0.255859 z " class="ColorScheme-Text"/>
</svg>
