<svg xmlns="http://www.w3.org/2000/svg" viewBox="0 0 16 16">
  <defs id="defs3051">
    <style type="text/css" id="current-color-scheme">
      .ColorScheme-Text {
        color:#4d4d4d;
      }
      </style>
  </defs>
 <path
     style="fill:currentColor;fill-opacity:1;stroke:none" d="M 12.175215,1.5 9.2097994,4.4673337 12.175215,7.5339335 12.834783,6.8740665 10.995384,5.0336667 h 4.004817 V 4 h -4.004816 l 1.8394,-1.8407336 z m -6.5108289,1.366599 c -1.5504434,0 -2.7986343,1.2488003 -2.7986343,2.8 9.123e-4,1.5512002 1.2481909,2.8 2.7986343,2.8 1.5504434,0 2.7986347,-1.2488 2.7986347,-2.8 0,-1.5512004 -1.2481913,-2.8 -2.7986347,-2.8 z m 0,6.5333349 c -2.584091,0 -4.6643858,2.0813335 -4.6643858,4.6666685 v 0.933333 h 9.3287857 v -0.933334 c 0,-2.585334 -2.0803092,-4.6666675 -4.6644,-4.6666675 z m 0,0.9333335 c 2.067268,0 3.7315177,1.665068 3.7315177,3.733335 H 1.9333306 c 0,-2.068267 1.6642358,-3.733334 3.731503,-3.733334 z"
     class="ColorScheme-Text"
     />
</svg>
