<svg version="1.1" xmlns="http://www.w3.org/2000/svg" viewBox="0 0 16 16">
<defs id="defs3051">
<style type="text/css" id="current-color-scheme">
.ColorScheme-Text {
color:#4d4d4d;
}
</style>
</defs>
<path style="fill:currentColor;fill-opacity:1;stroke:none" id="path835" d="m 8,1 c -1.27926,0 -2.4752284,0.3512384 -3.5085516,0.9536107 L 5.4604471,2.9140719 8.464849,5.9492742 9.333025,5.0810986 6.7114355,2.4629216 C 7.125132,2.3658586 7.555692,2.3125309 8,2.3125309 c 3.148917,-10e-8 5.687504,2.5385869 5.687504,5.6875041 0,0.902257 -0.214709,1.75 -0.586182,2.507078 l 0.968976,0.962151 C 14.658443,10.444979 15,9.26288 15,8 15,4.141781 11.85824,1 8,1 Z M 1.9143057,4.5564132 C 1.3353528,5.5747564 1,6.7478261 1,8 c 0,3.858245 3.1417599,7 7,7 1.267762,0 2.454202,-0.344144 3.481208,-0.936522 l -0.968976,-0.9639 -3.024877,-3.009565 -0.8681758,0.868175 2.5959518,2.59254 c -0.391492,0.08642 -0.796671,0.136719 -1.215087,0.136719 -3.1489174,0 -5.6875043,-2.538587 -5.6875043,-5.687505 0,-0.890811 0.2098444,-1.7285633 0.5725103,-2.4780276 L 1.9143293,4.5563782 Z" class="ColorScheme-Text"/>
</svg>
