<svg xmlns="http://www.w3.org/2000/svg" viewBox="0 0 16 16">
  <defs id="defs3051">
    <style type="text/css" id="current-color-scheme">
      .ColorScheme-Text {
        color:#4d4d4d;
      }
      </style>
  </defs>
    <path
        style="fill:currentColor;fill-opacity:1;stroke:none"
        d="m 8,1 c -0.4847491,0 -0.875,0.3902507 -0.875,0.875 0,0.4847493 0.3902509,0.875 0.875,0.875 0.484749,0 0.875,-0.3902507 0.875,-0.875 0,-0.4847493 -0.390251,-0.875 -0.875,-0.875 z M 3.3691408,2.75 2.75,3.3691406 3.8808596,4.5 4.5,3.8808594 Z m 9.2617182,0 L 11.5,3.8808594 12.119141,4.5 13.25,3.3691406 Z M 8,3.625 c -2.4237501,0 -4.375,1.95125 -4.375,4.375 0,2.42375 1.9512499,4.375 4.375,4.375 C 10.42375,12.375 12.375,10.42375 12.375,8 12.375,5.57625 10.42375,3.625 8,3.625 Z m 0,1.125 C 9.8005,4.75 11.25,6.1995 11.25,8 c 0,1.8005 -1.4495001,3.25 -3.25,3.25 -1.8005,0 -3.25,-1.4495 -3.25,-3.25 0,-1.8005 1.4495001,-3.25 3.25,-3.25 z M 1.875,7.125 c -0.4847492,0 -0.875,0.3902509 -0.875,0.875 0,0.484749 0.3902508,0.875 0.875,0.875 0.4847493,0 0.875,-0.390251 0.875,-0.875 0,-0.4847491 -0.3902508,-0.875 -0.875,-0.875 z m 12.25,0 c -0.484749,0 -0.875,0.3902509 -0.875,0.875 0,0.484749 0.390251,0.875 0.875,0.875 C 14.609749,8.875 15,8.484749 15,8 15,7.5152509 14.609749,7.125 14.125,7.125 Z M 3.8808596,11.5 2.75,12.630859 3.3691407,13.25 4.5,12.119141 Z m 8.2382814,0 L 11.5,12.119141 12.630859,13.25 13.25,12.630859 Z m -4.1191408,1.75 c -0.4847492,0 -0.875,0.390251 -0.875,0.875 0,0.484749 0.3902509,0.875 0.875,0.875 0.484749,0 0.875,-0.390251 0.875,-0.875 0,-0.484749 -0.390251,-0.875 -0.875,-0.875 z"
        id="rect4148"
        class="ColorScheme-Text"
     />
</svg>
