<svg width="16" version="1.1" xmlns="http://www.w3.org/2000/svg" height="16" viewBox="0 0 16 16">
<defs id="defs3051">
<style type="text/css" id="current-color-scheme">
.ColorScheme-Text {
color:#4d4d4d;
}
</style>
</defs>
<path style="fill:currentColor;fill-opacity:1;stroke:none" id="path4495" d="m 8,1 c -0.77582,0 -1.43701,0.27296 -1.98242,0.818359 -0.54541,0.54541 -0.818359,1.20466 -0.818359,1.98047 h 5.60156 c 0,-0.77581 -0.272949,-1.43506 -0.818359,-1.98047 -0.5454,-0.5454 -1.2066,-0.81836 -1.98242,-0.81836 Z  m 5.6055,2.5078 c -0.141653,-0.00125 -0.283778,0.053309 -0.398438,0.167969 l -1.5137,1.5137 h -7.38672 l -1.5137,-1.5137 c -0.20251,-0.2025 -0.567739,-0.2124 -0.787109,0 -0.21935,0.21242 -0.22932,0.557789 0,0.787109 l 1.5137,1.5137 v 2.57227 h -1.95898 c -0.28483,0 -0.553547,0.259447 -0.560547,0.560547 -0.00676,0.3011 0.243017,0.560547 0.560547,0.560547 h 1.95898 c 0,0.93332 0.169482,1.73149 0.507813,2.39648 l -1.7676,1.9863 c -0.19822,0.22269 -0.178938,0.582475 0.044922,0.796875 0.22386,0.21444 0.578932,0.199388 0.794922,-0.04492 l 1.6016,-1.8105 c 0.65597,0.59532 1.94322,1.15632 3.18945,1.16992 1.24623,0.01353 2.5149,-0.380933 3.30273,-1.06445 l 1.7324,1.7227 c 0.20242,0.20139 0.57084,0.21237 0.78711,0 0.21625,-0.21238 0.22877,-0.557239 0,-0.787109 l -1.8184,-1.8281 c 0.39083,-0.69416 0.585938,-1.53963 0.585938,-2.53711 h 1.95898 c 0.28483,-1.9e-06 0.553547,-0.259449 0.560547,-0.560549 0.00676,-0.3011 -0.243017,-0.560547 -0.560547,-0.560547 h -1.95898 v -2.57227 l 1.5137,-1.5137 c 0.20251,-0.20251 0.21241,-0.567739 0,-0.787109 -0.10621,-0.109675 -0.24702,-0.166723 -0.388672,-0.167969 z " class="ColorScheme-Text"/>
</svg>
