<svg width="22" version="1.1" xmlns="http://www.w3.org/2000/svg" height="22">
<defs id="defs3051">
<style type="text/css" id="current-color-scheme">
.ColorScheme-Text {
color:#4d4d4d;
}
</style>
</defs>
<path style="fill:currentColor;fill-opacity:1;stroke:none" id="path42961" d="m 12.5731,2 c -0.396008,0.718349 -0.771781,1.65995 -1.18625,2.37249 -0.154925,-0.011553 -0.306499,-0.051658 -0.464183,-0.051658 -0.548363,0 -1.08943,0.080376 -1.59885,0.206303 -0.503423,-0.631785 -1.04034,-1.4823 -1.54728,-2.11461 -0.469705,0.173362 -0.911479,0.373789 -1.34097,0.618911 0.158325,0.796531 0.456998,1.76769 0.618911,2.5788 -0.566104,0.410659 -1.03347,0.878029 -1.44413,1.44413 -0.811108,-0.161909 -1.78227,-0.460586 -2.5788,-0.618912 -0.245124,0.429492 -0.445555,0.871262 -0.618911,1.34097 0.632309,0.506944 1.48283,1.04386 2.11461,1.54728 -0.12601,0.509422 -0.206303,1.0505 -0.206303,1.59885 0,0.157614 0.040701,0.309256 0.051576,0.464181 -0.712549,0.414473 -1.65415,0.790242 -2.37249,1.18625 0.084568,0.453471 0.211755,0.913907 0.361031,1.34097 0.81102,-0.0165 1.81463,-0.156131 2.63038,-0.154646 0.308836,0.646574 0.694058,1.24411 1.18625,1.75359 -0.283944,0.77212 -0.739596,1.66463 -1.03152,2.42407 0.351373,0.28998 0.741864,0.53842 1.13467,0.773639 0.609349,-0.528319 1.27978,-1.27326 1.90831,-1.80516 0.623935,0.284799 1.30157,0.437844 2.01146,0.515759 0.271565,0.786859 0.502199,1.7958 0.773639,2.5788 0.49767,-0.0033 0.968473,-0.02327 1.44413,-0.103153 0.132942,-0.813514 0.182155,-1.84609 0.309456,-2.68195 0.67682,-0.192836 1.33906,-0.440632 1.90831,-0.825215 0.700329,0.436473 1.48352,1.03794 2.16618,1.44413 0.369262,-0.314688 0.71683,-0.662252 1.03152,-1.03152 -0.406184,-0.682667 -1.00765,-1.46586 -1.44413,-2.16619 0.384576,-0.56925 0.632382,-1.23148 0.825215,-1.90831 0.835858,-0.127247 1.86844,-0.176514 2.68195,-0.309456 0.0798,-0.475653 0.100363,-0.946454 0.103153,-1.44413 -0.783003,-0.271446 -1.79194,-0.502077 -2.5788,-0.773639 -0.077914,-0.709899 -0.230969,-1.38752 -0.515759,-2.01146 0.531902,-0.628533 1.27684,-1.29896 1.80516,-1.90831 -0.235221,-0.392802 -0.48366,-0.783294 -0.773639,-1.13467 -0.759444,0.291928 -1.65195,0.747578 -2.42407,1.03152 -0.509471,-0.49219 -1.107,-0.8774 -1.75359,-1.18625 -0.001543,-0.815742 0.138569,-1.81935 0.154728,-2.63038 -0.427069,-0.149198 -0.887499,-0.276463 -1.34098,-0.361031 Z  m -1.6505,5.6217 c 1.82301,0 3.30086,1.47784 3.30086,3.30087 0,1.82301 -1.47785,3.30087 -3.30086,3.30087 -1.82301,0 -3.30085,-1.47784 -3.30085,-3.30087 0,-1.82301 1.47785,-3.30087 3.30085,-3.30087 z " class="ColorScheme-Text"/>
</svg>
