<svg width="22" version="1.1" xmlns="http://www.w3.org/2000/svg" height="22">
<defs id="defs3051">
<style type="text/css" id="current-color-scheme">
.ColorScheme-Text {
color:#4d4d4d;
}
</style>
</defs>
<path style="fill:currentColor;fill-opacity:1;stroke:none" id="path4492" d="m 7,1.9941 v 2 l 1.002,.0059 v 4.51172 c -1.90402,2.98041 -2.57717,4.07522 -4.54492,7.21289 -0.664221,1.05913 -0.642055,2.86349 0.322266,3.96094 0.780678,0.888454 1.96071,1.30859 3.00195,1.30859 h 8.4375 c 1.32285,0 2.3338,-0.482168 3.00195,-1.30859 0.92741,-1.14711 1.01813,-2.84079 0.322266,-3.92578 -2.04633,-3.16359 -2.72072,-4.26617 -4.54688,-7.2832 v -4.48242 l .9941,0 v -2 l -7.9902,-0 z  m 3,2 l 1.998,0 v 4.59961 c -0.0025,0.170904 0.116407,0.341196 0.189453,0.496094 2.14315,3.26218 2.89667,4.41572 4.75391,7.53125 0.450099,0.755043 0.238424,1.49814 -0.166015,1.98633 -0.390226,0.377335 -0.980029,0.423828 -1.55664,0.423828 h -8.73828 c -0.612708,0 -1.07188,-0.266926 -1.33594,-0.558594 -0.321892,-0.355548 -0.636006,-0.978879 -0.0859374,-1.85156 2.02488,-3.21251 2.96804,-4.78768 4.68164,-7.39063 0.134902,-0.185843 0.254956,-0.407984 0.259766,-0.636719 v -4.59961 z  m -1.5352,9 l -3.041,5.0059 h 11.1641 l -3.1426,-5.0059 h -4.98047 z " class="ColorScheme-Text"/>
</svg>
