<svg width="22" version="1.1" xmlns="http://www.w3.org/2000/svg" height="22">
<defs id="defs3051">
<style type="text/css" id="current-color-scheme">
.ColorScheme-Text {
color:#4d4d4d;
}
</style>
</defs>
<path style="fill:currentColor;fill-opacity:1;stroke:none" id="path4494" d="m 15,2.7383 c -0.207238,0.0119121 -0.417538,0.040197 -0.623047,0.09375 -1.96728,0.512737 -3.14576,2.51301 -2.63281,4.46875 0.107162,0.408615 0.30738,0.781477 0.53125,1.11328 -0.114284,0.018343 -1.7168,2.73828 -1.7168,2.73828 l 3.5977,.0254 .8438,-1.1777 c 0.40074,0.03152 0.825294,0.021276 1.23633,-0.0859375 1.96728,-0.512734 3.14574,-2.51301 2.63281,-4.46875 -0.107173,-0.408613 -0.305439,-0.779523 -0.529297,-1.11133 l -1.4336,2.4336 c -0.294747,0.500245 -0.929004,0.665469 -1.43164,0.373047 l -.9238,-.5371 c -0.502648,-0.292453 -0.667782,-0.921623 -0.373047,-1.42188 l 1.4336,-2.4355 c -0.200371,-0.015812 -0.40409,-0.0195075 -0.611328,-0.0078126 z  m -8.916,.1738 c -0.255073,0.0523598 -0.495115,0.144656 -0.730469,0.242188 -0.0185099,0.693569 0.0976512,1.60157 -0.171875,1.83984 -0.26486,0.234144 -1.1511,0.0377263 -1.83594,-0.0351562 -0.14562,0.262709 -0.260092,0.539851 -0.345703,0.833984 0.529908,0.439767 1.2638,0.930787 1.28125,1.2832 0.0176232,0.356812 -0.694409,0.89616 -1.17773,1.39062 0.114574,0.286426 0.2762,0.546691 0.449219,0.796875 0.674231,-0.140429 1.51415,-0.415651 1.80078,-0.208984 0.291838,0.210438 0.29576,1.11827 0.382812,1.80664 0.276586,0.08331 0.565412,0.115896 0.863281,0.138672 0.311833,-0.616127 0.631741,-1.46647 0.972656,-1.5625 0.349962,-0.0985073 1.06754,0.508232 1.66211,0.867188 0.242415,-0.168405 0.457807,-0.374115 0.658203,-0.589844 -0.281342,-0.635795 -0.799334,-1.43424 -0.658203,-1.76953 0.141275,-0.335613 1.07978,-0.523594 1.73047,-0.765625 0.0044,-0.081646 0.035156,-0.159311 0.035156,-0.242188 1e-06,-0.212601 -0.037209,-0.419188 -0.068359,-0.623047 -0.671761,-0.178656 -1.6259,-0.269684 -1.80078,-0.591797 -0.173729,-0.31995 0.267453,-1.17902 0.484375,-1.83984 -0.222963,-0.19839 -0.464063,-0.373345 -0.726562,-0.519531 -0.555157,0.416738 -1.2018,1.10418 -1.55859,1.04102 -0.351225,-0.0622332 -0.737695,-0.909849 -1.11133,-1.49219 -0.044557,0.00777 -0.0906304,-0.00888 -0.134766,0 z  m .6914,2.082 c 1.03296,0 1.87109,0.839656 1.87109,1.875 0,1.03534 -0.83813,1.875 -1.87109,1.875 -1.03295,0 -1.87109,-0.839664 -1.87109,-1.875 0,-1.03535 0.838146,-1.875 1.87109,-1.875 z  m 10.0918,6.8672 c -0.100131,-0.007276 -0.197206,-0.005185 -0.28711,0.00586 -0.1198,0.01471 -0.227505,0.047 -0.304687,0.09375 h -10.6934 c -0.347487,-0.130628 -0.994644,-0.058372 -1.28711,0.248046 l -2.9727,2.9121 c -0.263256,0.239071 -0.414427,0.66207 -0.419922,0.970703 -0.0724017,1.22135 1.37922,1.82048 2.25586,1.0957 l 1.8691,-1.8379 .0078,4.2734 c 0,0.785374 0.632491,1.37695 1.37305,1.37695 h 9.19727 c 0.719085,0 1.36719,-0.613274 1.36719,-1.29102 l -.0059,-4.3594 1.8379,1.8047 c 0.876636,0.724777 2.32626,0.127743 2.25391,-1.09375 -0.0055,-0.308634 -0.154714,-0.729679 -0.417969,-0.96875 l -2.9727,-2.916 c -0.180039,-0.188625 -0.500391,-0.292626 -0.800781,-0.314453 z " class="ColorScheme-Text"/>
</svg>
