<svg width="22" version="1.1" xmlns="http://www.w3.org/2000/svg" height="22">
<defs id="defs3051">
<style type="text/css" id="current-color-scheme">
.ColorScheme-Text {
color:#4d4d4d;
}
</style>
</defs>
<path style="fill:currentColor;fill-opacity:1;stroke:none" id="path4591" d="m 2,1 v 14 h 8 v 1.503906 C 9.567749,16.177956 9.0413714,16.001126 8.5,16 7.1192881,16 6,17.119288 6,18.5 6,19.880712 7.1192881,21 8.5,21 9.8807119,21 11,19.880712 11,18.5 V 15 h 5 V 9 h 4 v 5.503906 C 19.567749,14.177956 19.041371,14.001126 18.5,14 17.119288,14 16,15.119288 16,16.5 c 0,1.380712 1.119288,2.5 2.5,2.5 1.380712,0 2.369096,-1.125507 2.5,-2.5 V 6 5 H 16 V 1 Z m 3,1 h 8 V 5 H 10 V 7 H 5 Z M 3,3 H 4 V 4 H 3 Z m 11,0 h 1 V 4 H 14 Z M 3,6 H 4 V 7 H 3 Z m 8,0 h 9 V 8 H 11 Z M 3,9 h 1 v 1 H 3 Z m 2,0 h 5 v 5 H 5 Z m 6,0 h 2 v 5 h -2 z m 3,0 h 1 v 1 H 14 Z M 3,12 h 1 v 1 H 3 Z m 11,0 h 1 v 1 h -1 z" class="ColorScheme-Text"/>
</svg>
