<svg width="22" version="1.1" xmlns="http://www.w3.org/2000/svg" height="22">
<defs id="defs3051">
<style type="text/css" id="current-color-scheme">
.ColorScheme-Text {
color:#4d4d4d;
}
</style>
</defs>
<path style="fill:currentColor;fill-opacity:1;stroke:none" id="path827" d="m 7.668,2.0078 c -0.585842,0.061687 -1.13963,0.27689 -1.61328,0.626953 -0.630695,0.46323 -1.05078,1.19168 -1.05078,2.10937 0.0086101,0.343674 0.291865,0.621645 0.646484,0.634766 0.35462,-0.0131199 0.637871,-0.291093 0.646484,-0.634766 0,-0.563388 0.223916,-0.880611 0.566406,-1.13477 0.343781,-0.252899 0.857373,-0.374649 1.37305,-0.349609 0.515671,0.022535 1.01376,0.190362 1.37305,0.505859 0.360582,0.316749 0.605469,0.732141 0.605469,1.4082 0,2.71177 1.89052,4.39578 3.87695,4.3457 1.1063,-0.028795 1.72656,-0.896484 1.72656,-0.896484 l -.5449,-1.1113 c 0,0 -0.381297,0.732626 -1.22266,0.753906 -1.24071,0.0313 -2.54297,-0.914612 -2.54297,-3.0918 0,-0.991563 -0.436887,-1.8068 -1.05078,-2.34766 -0.615185,-0.537097 -1.39781,-0.783304 -2.18359,-0.818359 -0.194343,-0.00873 -0.40774,-0.019688 -0.603516,0 h -0.0019531 z  m 4.832,1.9922 l .5,1 h 7 v 14 h -10 l -1,1 h 12 v -16 h -8.5 z  m -8.9277,3 c -1.42457,0 -2.57227,1.11375 -2.57227,2.5 v 2.5 h 4 v -5 h -1.42773 z  m 2.4277,0 v 5 h 4 v -2.5 c 0,-1.38625 -1.14769,-2.5 -2.57227,-2.5 h -1.42773 z  m -5,6 v 2.625 c 0,2.58417 2.00571,4.375 4.5,4.375 2.493,0 4.5,-1.79083 4.5,-4.375 v -2.625 h -5.14258 -3.85742 z  m 10,1 v 4 h 3 v -4 h -3 z  m 5,0 v 4 h 3 v -4 h -3 z " class="ColorScheme-Text"/>
</svg>
