<svg width="22" version="1.1" xmlns="http://www.w3.org/2000/svg" height="22">
<defs id="defs3051">
<style type="text/css" id="current-color-scheme">
.ColorScheme-Text {
color:#4d4d4d;
}
</style>
</defs>
<path style="fill:currentColor;fill-opacity:1;stroke:none" id="path3908" d="m 17.6766,2 -1.7458,1.618 c -0.511523,0.473633 -0.600986,1.29373 -0.303143,1.9214 l -6.6714,6.7491 a 1.68994,1.6744 0 0,0 -0.03319,0 1.68994,1.6744 0 0,0 -0.953681,-0.167078 1.68994,1.6744 0 0,0 -0.980239,0.494639 l -4.4719,4.5001 a 1.69271,1.67713 0 1,0 2.41187,2.35228 l 4.4719,-4.498 a 1.68994,1.6744 0 0,0 0.336334,-1.95657 l 6.6714,-6.7139 c 0.631964,0.27956 1.44273,0.164561 1.93392,-0.329761 l 1.6042,-1.7565 -2.2702,-2.2138 Z  m -11.6788,.1009 c -0.452407,0 -0.890092,0.104316 -1.29445,0.244023 l 2.1354,2.1148 c 0.438835,0.434778 0.438835,1.12606 0,1.56086 l -.8054,.7981 c -0.438835,0.43479 -1.13663,0.43479 -1.57546,0 l -2.1354,-2.1148 c -0.14098,0.400606 -0.245613,0.833416 -0.245613,1.28167 0,2.14545 1.75558,3.88457 3.92096,3.88457 0.452407,0 0.890092,-0.102138 1.29445,-0.241824 l 1.3321,1.3191 a 2.80082,2.77505 0 0,1 0.068595,0 l 2.3455,-2.3238 -1.3653,-1.3542 c 0.14098,-0.400617 0.245613,-0.835617 0.245613,-1.28386 0,-2.14546 -1.75558,-3.88457 -3.92096,-3.88457 z  m 7.4214,8.8792 -2.3455,2.3238 a 2.80082,2.77505 0 0,1 0.0354,0.105523 l 1.2945,1.2838 c -0.14098,0.400662 -0.245612,0.833424 -0.245612,1.28167 0,2.14546 1.75557,3.88457 3.92096,3.88457 0.491073,0 0.967442,-0.113654 1.40065,-0.276999 l -2.2746,-2.2534 c -0.438836,-0.434801 -0.438836,-1.16124 0,-1.59604 l .7701,-.7629 c 0.219411,-0.217407 0.519086,-0.347348 0.80543,-0.347348 0.286356,0 0.58601,0.129941 0.805433,0.347348 l 2.2039,2.1852 c 0.118786,-0.370969 0.21021,-0.770605 0.21021,-1.18054 0,-2.14545 -1.75558,-3.88457 -3.92096,-3.88457 -0.452407,0 -0.890108,0.104343 -1.29444,0.244024 l -1.3653,-1.3542 z " class="ColorScheme-Text"/>
</svg>
