<svg width="16" version="1.1" xmlns="http://www.w3.org/2000/svg" height="16">
<defs id="defs3051">
<style type="text/css" id="current-color-scheme">
.ColorScheme-Text {
color:#4d4d4d;
}
</style>
</defs>
<path style="fill:currentColor" d="m 1,1 v 14 h 14 v -14 h -14 z  m 6.959,2.0078 c 2.7211,0 4.94531,2.23591 4.94531,4.95703 0,1.05419 -0.33709,2.03135 -0.904297,2.83594 l 1,.9863 -1.2188,1.2051 -.9863,-.9844 c -0.804596,0.567209 -1.78175,0.902344 -2.83594,0.902344 -2.72112,0 -4.95898,-2.22419 -4.95898,-4.94531 0,-2.72112 2.23786,-4.95703 4.95898,-4.95703 z  m 0,1.7109 c -1.79952,0 -3.24609,1.44657 -3.24609,3.24609 0,1.79952 1.44657,3.23438 3.24609,3.23438 0.587341,0 1.13026,-0.156471 1.60352,-0.425781 l -1.6035,-1.6152 -1.041,1.041 -1.2051,-1.2051 3.2734,-3.2754 1.2051,1.2051 -1.0273,1.041 1.6035,1.6035 c 0.269313,-0.473251 0.423828,-1.01617 0.423828,-1.60352 0,-1.79952 -1.4329,-3.24609 -3.23242,-3.24609 z " class="ColorScheme-Text"/>
</svg>
