<svg width="16" version="1.1" xmlns="http://www.w3.org/2000/svg" height="16">
<defs id="defs3051">
<style type="text/css" id="current-color-scheme">
.ColorScheme-Text {
color:#4d4d4d;
}
</style>
</defs>
<path style="fill:currentColor" d="M 1,1 V 15 H 15 V 1 Z M 7,3 V 4.08789 C 6.404,4.432831 6,4.870149 6,5.61003 6.119168,7.01399 5.197138,7.58381 4.01953,7.9961 5.35207,8.299628 5.95634,9.061258 6,10.384 c 0,0.739873 0.404,1.17732 1,1.52226 v 1.09375 C 5.835,12.58908 5,11.831265 5,10.484025 5,9.895979 4.712938,9.291004 4,9.08204 L 3,9 V 7 L 4,6.91602 C 4.817403,6.762901 5,6.034301 5,5.512 5,4.18701 5.835,3.41093 7,3 Z m 2,0 c 1.165,0.41093 2,1.22809 2,2.51395 0,0.568241 0.287147,1.194097 1,1.40402 L 13,7 V 9.08399 H 12 C 11.182642,9.236395 11.054838,9.987709 11,10.485975 10.858407,11.772525 10.165,12.58907 9,13 V 11.9082 C 9.596,11.563259 10,11.125881 10,10.386 9.880895,8.98177 10.802308,8.41049 11.98047,7.99804 10.64881,7.694609 10.04371,6.934231 10,5.61197 10,4.872096 9.596,4.43477 9,4.08983 V 3 Z" class="ColorScheme-Text"/>
</svg>
