<svg version="1.1" xmlns="http://www.w3.org/2000/svg" viewBox="0 0 16 16">
<defs id="defs3051">
<style type="text/css" id="current-color-scheme">
.ColorScheme-Text {
color:#4d4d4d;
}
</style>
</defs>
<path style="fill:currentColor" d="m 2,1 v 14 h 12 v -14 h -12 z  m 1,1 h 10 v 12 h -10 v -12 z  m 4.7461,3 c -0.17976,-0.0019984 -0.423133,0.129339 -0.783203,0.230469 -0.803204,0.222723 -1.08649,0.0738145 -0.876953,0.890625 l .1562,.6035 c -0.0546862,0.0485949 -0.130861,0.105702 -0.185547,0.154297 -0.227783,0.173029 -0.408209,0.400225 -0.566406,0.619141 l -.6055,-.1562 c -0.818048,-0.212064 -0.691913,0.137819 -0.898437,0.837891 -0.253145,0.823234 -0.486705,0.945484 0.341797,1.16602 l .6367,.168 c 0.01442,0.27118 0.0798133,0.546668 0.197266,0.824219 l -.5234,.4238 c -0.671236,0.546138 -0.383523,0.593508 0.0996093,1.18164 0.523098,0.67271 0.494949,0.857007 1.14258,0.330079 l .5215,-.4238 c 0.378202,0.241708 0.845436,0.394008 1.29688,0.453125 l .1523,.6289 c 0.210075,0.862984 0.465408,0.540148 1.18555,0.33789 0.803204,-0.222724 1.08649,-0.075757 0.876953,-0.892578 l -.1562,-.6016 c 0.05468,-0.0486 0.13086,-0.105702 0.185547,-0.154297 0.227782,-0.173028 0.408211,-0.400226 0.566407,-0.619141 l .6055,.1562 c 0.784486,0.315138 0.691908,-0.137817 0.898438,-0.837891 0.253145,-0.823232 0.486704,-0.945483 -0.341797,-1.16602 l -.6367,-.168 c -0.014418,-0.27118 -0.079814,-0.546661 -0.197265,-0.824219 l .5234,-.4238 c 0.671235,-0.546137 0.383519,-0.593511 -0.099609,-1.18164 -0.523099,-0.672711 -0.494948,-0.857006 -1.14258,-0.330078 l -.5215,.4238 c -0.378202,-0.241708 -0.845442,-0.394006 -1.29688,-0.453125 l -.1523,-.6289 c -0.105037,-0.431491 -0.222584,-0.566361 -0.402344,-0.568359 z  m .1484,2.9648 c 0.357243,0 0.715014,0.14916 0.964844,0.439453 0.422898,0.525158 0.353267,1.31138 -0.160156,1.75781 -0.522456,0.425085 -1.30391,0.355918 -1.74805,-0.160156 -0.444138,-0.516078 -0.355218,-1.31138 0.158203,-1.75781 0.228575,-0.185975 0.507301,-0.278562 0.785156,-0.279297 z " class="ColorScheme-Text"/>
</svg>
