<svg width="16" version="1.1" xmlns="http://www.w3.org/2000/svg" height="16">
<defs id="defs3051">
<style type="text/css" id="current-color-scheme">
.ColorScheme-Text {
color:#4d4d4d;
}
</style>
</defs>
<path style="fill:currentColor" d="m 1,1 v 14 h 14 v -14 h -14 z  m 7.9961,4 c 0.17976,0.0019984 0.297307,0.136868 0.402344,0.568359 l .1523,.6289 c 0.451433,0.0591191 0.918672,0.211417 1.29687,0.453125 l .5215,-.4238 c 0.64763,-0.526928 0.619479,-0.342633 1.14258,0.330078 0.483134,0.58813 0.770844,0.635504 0.099609,1.18164 l -.5234,.4238 c 0.117459,0.277557 0.182845,0.55304 0.197265,0.824219 l .6367,.168 c 0.828501,0.220531 0.594942,0.342782 0.341797,1.16602 -0.206531,0.7 -0.113952,1.15303 -0.898438,0.837891 l -.6055,-.1562 c -0.158196,0.218914 -0.338624,0.446112 -0.566407,0.619141 -0.054687,0.048594 -0.130867,0.105697 -0.185547,0.154297 l .1562,.6016 c 0.209537,0.816821 -0.07375,0.669855 -0.876953,0.892578 -0.720138,0.202258 -0.975472,0.525092 -1.18555,-0.33789 l -.1523,-.6289 c -0.451439,-0.059118 -0.918673,-0.211417 -1.29688,-0.453125 l -.5215,.4238 c -0.647629,0.526927 -0.61948,0.342632 -1.14258,-0.330079 -0.483133,-0.588132 -0.770845,-0.635502 -0.0996093,-1.18164 l .5234,-.4238 c -0.117452,-0.277552 -0.182845,-0.553041 -0.197266,-0.824219 l -.6367,-.168 c -0.828502,-0.220531 -0.594942,-0.342782 -0.341797,-1.16602 0.206525,-0.7 0.0803892,-1.04995 0.898438,-0.837891 l .6055,.1562 c 0.158197,-0.218916 0.338623,-0.446112 0.566406,-0.619141 0.0546863,-0.0485946 0.130861,-0.105701 0.185547,-0.154297 l -.1562,-.6035 c -0.209536,-0.81681 0.0737494,-0.667902 0.876953,-0.890625 0.360071,-0.101129 0.603443,-0.232467 0.783203,-0.230469 z  m .1484,2.9648 c -0.277855,0 -0.556581,0.0933221 -0.785156,0.279297 -0.513421,0.446436 -0.602341,1.24173 -0.158203,1.75781 0.444141,0.516074 1.22559,0.585241 1.74805,0.160156 0.513422,-0.446436 0.583054,-1.23265 0.160156,-1.75781 -0.249829,-0.290293 -0.607601,-0.440398 -0.964844,-0.439453 z " class="ColorScheme-Text"/>
</svg>
