<svg version="1.1" xmlns="http://www.w3.org/2000/svg" viewBox="0 0 16 16">
<defs id="defs3051">
<style type="text/css" id="current-color-scheme">
.ColorScheme-Text {
color:#4d4d4d;
}
</style>
</defs>
<path style="fill:currentColor" d="m 2,1 v 14 h 12 v -14 h -12 z  m 1,1 h 10 v 12 h -10 v -12 z  m 5.002,2.8496 c -0.800109,0 -1.41761,0.272441 -1.85156,0.820312 -0.433957,0.545159 -0.650391,1.32308 -0.650391,2.33203 0,1.00624 0.216433,1.78416 0.650391,2.33203 0.433957,0.545159 1.05145,0.816407 1.85156,0.816407 0.797396,0 1.4137,-0.271248 1.84766,-0.816407 0.433958,-0.547871 0.650391,-1.32579 0.650391,-2.33203 0,-1.00895 -0.216433,-1.78687 -0.650391,-2.33203 -0.433957,-0.547871 -1.05026,-0.820312 -1.84766,-0.820312 z  m 0,1.0703 c 0.336317,0 0.575761,0.15489 0.716797,0.466797 0.143748,0.309195 0.214844,0.84409 0.214844,1.60352 0,0.767562 -0.0710955,1.30843 -0.214844,1.62305 -0.143748,0.314619 -0.383192,0.472657 -0.716797,0.472657 -0.336317,0 -0.576955,-0.158038 -0.720703,-0.472657 -0.143748,-0.314619 -0.214844,-0.855485 -0.214844,-1.62305 1e-07,-0.759425 0.0710955,-1.29432 0.214844,-1.60352 0.143748,-0.311907 0.384386,-0.466797 0.720703,-0.466797 z " class="ColorScheme-Text"/>
</svg>
