<svg width="16" version="1.1" xmlns="http://www.w3.org/2000/svg" height="16">
<defs id="defs3051">
<style type="text/css" id="current-color-scheme">
.ColorScheme-Text {
color:#4d4d4d;
}
</style>
</defs>
<path style="fill:currentColor" d="m 1,1 v 14 h 14 v -14 h -14 z  m 9.5527,2.1875 c 0.994701,0.0094866 1.97467,0.232929 2.45703,0.361328 v 1.57812 c -1.71112,-0.765135 -3.65039,-0.810563 -3.65039,0.224609 0,1.44599 4.14062,0.107392 4.14062,3.12891 0,3.41121 -4.41554,2.423 -5.82031,1.90234 v -1.62305 c 2.32391,1.23509 3.9668,0.828151 3.9668,-0.0449218 0,-1.57424 -4.03125,-0.261139 -4.03125,-3.22266 0,-1.87425 1.48371,-2.31855 2.9375,-2.30469 z  m -6.5391,.127 h 1.92383 v 6.73437 c 0,2.12098 -1.32631,2.77149 -3.04883,2.77148 h -0.388672 v -1.45312 h 0.298828 c 0.866674,0 1.21484,-0.53444 1.21484,-1.31836 v -6.73437 z " class="ColorScheme-Text"/>
</svg>
