<svg width="16" version="1.1" xmlns="http://www.w3.org/2000/svg" height="16">
<defs id="defs3051">
<style type="text/css" id="current-color-scheme">
.ColorScheme-Text {
color:#4d4d4d;
}
</style>
</defs>
<path style="fill:currentColor" d="m 1,1 v 14 h 14 v -14 h -14 z  m 4.3555,1 c 0.75067,0 1.32975,0.217655 1.73828,0.652344 0.408528,0.432537 0.613281,1.04909 0.613281,1.84961 1e-07,0.798364 -0.204753,1.41492 -0.613281,1.84961 -0.408528,0.432537 -0.987611,0.648438 -1.73828,0.648438 -0.753223,0 -1.33366,-0.215901 -1.74219,-0.648438 -0.408528,-0.434686 -0.613281,-1.05125 -0.613281,-1.84961 0,-0.800516 0.204753,-1.41707 0.613281,-1.84961 0.408528,-0.434689 0.988964,-0.652344 1.74219,-0.652344 z  m 4.9414,.0879 h 1.40039 v 3.95898 h 1.30273 v 0.859375 h -3.99805 v -0.859375 h 1.30273 v -3.11328 l -1.3379,.2324 v -0.845703 l 1.3301,-.2324 z  m -4.9414,.7617 c -0.316609,0 -0.54241,0.123622 -0.677734,0.371094 -0.135325,0.245319 -0.203125,0.668945 -0.203125,1.27148 0,0.608995 0.0678001,1.03749 0.203125,1.28711 0.135325,0.249623 0.361125,0.375 0.677734,0.375 0.314056,0 0.538503,-0.125377 0.673828,-0.375 0.135325,-0.249623 0.203125,-0.678115 0.203125,-1.28711 0,-0.602539 -0.0678002,-1.02617 -0.203125,-1.27148 -0.132772,-0.247471 -0.357219,-0.371094 -0.673828,-0.371094 z  m 5.209,5.1504 c 0.777469,0 1.37767,0.217655 1.80078,0.652344 0.423112,0.432537 0.634766,1.04909 0.634766,1.84961 0,0.798364 -0.211654,1.41492 -0.634766,1.84961 -0.423112,0.432538 -1.02331,0.648438 -1.80078,0.648438 -0.780113,0 -1.38157,-0.215901 -1.80469,-0.648438 -0.423112,-0.434688 -0.634766,-1.05124 -0.634766,-1.84961 0,-0.800516 0.211653,-1.41707 0.634766,-1.84961 0.423112,-0.434689 1.02457,-0.652344 1.80469,-0.652344 z  m -6.1875,.0879 h 1.45117 v 3.95898 h 1.34961 v 0.859375 h -4.14258 l 0,-.8594 h 1.34961 v -3.11328 l -1.3848,.2324 v -0.845703 l 1.377,-.2324 z  m 6.1875,.7617 c -0.327912,0 -0.561016,0.123622 -0.701172,0.371094 -0.140156,0.245319 -0.210938,0.668945 -0.210937,1.27148 -2e-07,0.608994 0.0707815,1.03749 0.210937,1.28711 0.140156,0.249623 0.37326,0.375 0.701172,0.375 0.325268,0 0.55711,-0.125377 0.697266,-0.375 0.140156,-0.249623 0.210937,-0.678116 0.210937,-1.28711 0,-0.60254 -0.070781,-1.02617 -0.210937,-1.27148 -0.137512,-0.247471 -0.369353,-0.371094 -0.697266,-0.371094 z " class="ColorScheme-Text"/>
</svg>
