<svg width="16" version="1.1" xmlns="http://www.w3.org/2000/svg" height="16">
<defs id="defs3051">
<style type="text/css" id="current-color-scheme">
.ColorScheme-Text {
color:#4d4d4d;
}
</style>
</defs>
<path style="fill:currentColor" d="m 1,1 v 14 h 14 v -14 h -14 z  m 4.0918,3.7363 c 0.825737,0 1.46273,0.284219 1.91211,0.851562 0.449381,0.564535 0.673828,1.36925 0.673828,2.41406 0,1.042 -0.224447,1.84672 -0.673828,2.41406 -0.449381,0.564534 -1.08637,0.847656 -1.91211,0.847656 -0.828546,0 -1.46859,-0.283122 -1.91797,-0.847656 -0.449381,-0.567344 -0.673828,-1.37206 -0.673828,-2.41406 0,-1.04481 0.224447,-1.84953 0.673828,-2.41406 0.449381,-0.567343 1.08942,-0.851562 1.91797,-0.851562 z  m 5.4336,.1152 h 1.54297 v 5.16797 h 1.43164 v 1.12109 h -4.39844 v -1.12109 h 1.43164 v -4.06445 l -1.4687,.3027 v -1.10352 l 1.4609,-.3027 z  m -5.4336,.9941 c -0.34827,0 -0.597236,0.161383 -0.746094,0.484375 -0.148857,0.320184 -0.224609,0.87374 -0.224609,1.66016 0,0.794842 0.075752,1.35389 0.224609,1.67969 0.148857,0.325801 0.397824,0.488281 0.746094,0.488281 0.345461,0 0.591377,-0.16248 0.740234,-0.488281 0.148857,-0.325801 0.224609,-0.884845 0.224609,-1.67969 0,-0.786416 -0.075752,-1.33997 -0.224609,-1.66016 -0.146049,-0.322992 -0.391964,-0.484375 -0.740234,-0.484375 z " class="ColorScheme-Text"/>
</svg>
