<svg width="16" version="1.1" xmlns="http://www.w3.org/2000/svg" height="16">
<defs id="defs3051">
<style type="text/css" id="current-color-scheme">
.ColorScheme-Text {
color:#4d4d4d;
}
</style>
</defs>
<path style="fill:currentColor" d="m 1,1 v 14 h 14 v -14 h -14 z  m 7,1 c 0.277,0 0.5,0.204667 0.5,0.458984 v 1.08203 c 0,0.0037705 0,0.0079706 0,0.0117188 0.859425,0.202232 1.61328,0.917528 1.61328,1.62891 0,0.512875 -0.378358,1.02316 -0.916015,1.34375 l .9063,3.4746 h 1.89648 v 0.5 h -1.76758 l .4414,1.6914 c -0.568671,0.325268 -0.886287,0.928105 -0.953125,1.80859 l -.752,-3.5 h -1.94141 l -.7441,3.4473 c -0.064071,-0.868203 -0.376503,-1.4663 -0.9375,-1.79688 0.151518,-0.580972 0.294158,-1.13111 0.429688,-1.65039 h -1.77539 v -0.5 h 1.90625 c 0.367343,-1.40721 0.671412,-2.56893 0.910156,-3.48438 -0.527896,-0.318442 -0.898438,-0.818944 -0.898437,-1.33398 0,-0.71555 0.73508,-1.40589 1.58203,-1.61914 0,-0.0073636 0,-0.0140316 0,-0.0214844 v -1.08203 c 0,-0.254317 0.223,-0.458984 0.5,-0.458984 z  m .0137,2.2754 c -0.627029,0 -1.13086,0.403823 -1.13086,0.90625 0,0.502427 0.503831,0.90625 1.13086,0.90625 0.62704,0 1.13281,-0.403823 1.13281,-0.90625 0,-0.502427 -0.505773,-0.90625 -1.13281,-0.90625 z  m -.1992,2.5742 l -.6797,3.1504 h 1.72656 l -.6758,-3.1465 c -0.0555047,0.0044131 -0.112051,0.0058594 -0.167969,0.0058594 -0.0671084,0 -0.134669,-0.0035457 -0.201172,-0.0097656 h -0.0019531 z " class="ColorScheme-Text"/>
</svg>
