<svg width="16" version="1.1" xmlns="http://www.w3.org/2000/svg" height="16">
<defs id="defs3051">
<style type="text/css" id="current-color-scheme">
.ColorScheme-Text {
color:#4d4d4d;
}
</style>
</defs>
<path style="fill:currentColor;fill-opacity:1;stroke:none" d="m 1,1 v 14 h 0.115234 c 0.210121,-0.3 0.505588,-0.562152 0.779297,-0.78125 1.5068,-1.20646 3.32494,-2.09933 5.14844,-2.87891 0.400106,-0.881841 0.739456,-1.77123 1.03516,-2.5625 0.824888,-2.20727 1.47402,-4.50095 1.87695,-6.82422 -0.134982,-0.279531 -0.291745,-0.60801 -0.449219,-0.953125 h -8.50586 z  m 10.4023,0 c -0.01487,0.136598 -0.027952,0.275508 -0.050782,0.410156 0.305682,0.649141 0.634257,1.30027 0.986329,1.92578 0.778012,1.38058 1.66012,2.72063 2.66211,3.96875 v -6.30469 h -3.59766 z  m -.5332,2.7891 c -0.534867,2.3696 -1.28431,4.73954 -2.33398,6.9375 1.83683,-0.743046 3.72955,-1.4832 5.67969,-1.99414 -1.33723,-1.48188 -2.42397,-3.19252 -3.3457,-4.94336 z  m 4.1309,5.7148 c -1.87636,0.412813 -3.7893,1.09018 -5.52539,1.76758 -0.509685,0.198682 -1.01285,0.423357 -1.54102,0.634766 -0.1978,0.362774 -0.408732,0.716897 -0.625,1.06641 -0.40141,0.648807 -0.90142,1.38243 -1.5,2.02734 h 9.19141 v -5.49609 z  m -8.5586,3.0371 c -1.31537,0.584106 -2.568,1.2336 -3.63281,2.08594 -0.14729,0.11818 -0.304338,0.251403 -0.425781,0.373047 h 2.14648 c 0.77889,-0.647742 1.38873,-1.51644 1.91211,-2.45898 z " class="ColorScheme-Text"/>
</svg>
