<svg width="16" version="1.1" xmlns="http://www.w3.org/2000/svg" height="16">
<defs id="defs3051">
<style type="text/css" id="current-color-scheme">
.ColorScheme-Text {
color:#4d4d4d;
}
</style>
</defs>
<path style="fill:currentColor" d="m 1,1 v 14 h 14 v -14 h -14 z  m 6,2 v 1.08789 c -0.596,0.344941 -1,0.982779 -1,1.72266 0.119168,1.40396 -0.802862,1.77326 -1.98047,2.18555 1.33254,0.303528 1.93681,0.864758 1.98047,2.1875 0,0.739873 0.404,1.37772 1,1.72266 v 1.09375 c -1.165,-0.41093 -2,-1.46917 -2,-2.81641 0,-0.588046 -0.287062,-0.892596 -1,-1.10156 v -2.16602 c 0.817403,-0.153119 1,-0.581219 1,-1.10352 0,-1.32499 0.835,-2.40157 2,-2.8125 z  m 2,0 c 1.165,0.41093 2,1.52859 2,2.81445 0,0.568241 0.287147,0.893597 1,1.10352 v 2.16602 c -0.817358,0.152405 -0.945162,0.603294 -1,1.10156 -0.141593,1.28655 -0.835,2.40352 -2,2.81445 v -1.0918 c 0.596,-0.344941 1,-0.982779 1,-1.72266 -0.119105,-1.40423 0.802308,-1.77505 1.98047,-2.1875 -1.33166,-0.303431 -1.93676,-0.863289 -1.98047,-2.18555 0,-0.739874 -0.404,-1.37772 -1,-1.72266 v -1.08984 z " class="ColorScheme-Text"/>
</svg>
