<svg width="16" version="1.1" xmlns="http://www.w3.org/2000/svg" height="16">
<defs id="defs3051">
<style type="text/css" id="current-color-scheme">
.ColorScheme-Text {
color:#4d4d4d;
}
</style>
</defs>
<path style="fill:currentColor" d="m 1,1 v 14 h 14 v -14 h -14 z  m 6,1 v 1.08789 c -0.596,0.344941 -1,0.982783 -1,1.72266 v 0.380859 c 0,1.29978 -0.826469,2.38776 -1.98047,2.80469 1.154,0.416929 1.98047,1.50686 1.98047,2.80664 v 0.38086 c 0,0.739873 0.404,1.37772 1,1.72266 v 1.09375 c -1.165,-0.41093 -2,-1.50963 -2,-2.81641 v -0.38086 c 0,-0.739875 -0.404,-1.37576 -1,-1.7207 v -2.16602 c 0.596,-0.344941 1,-0.982782 1,-1.72266 v -0.380859 c 0,-1.30678 0.835,-2.40157 2,-2.8125 z  m 2,0 c 1.165,0.41093 2,1.50768 2,2.81445 v 0.380859 c 0,0.739874 0.404,1.37772 1,1.72266 v 2.16602 c -0.596,0.344941 -1,0.980831 -1,1.7207 v 0.380859 c 0,1.30678 -0.835,2.40352 -2,2.81445 v -1.0918 c 0.596,-0.344941 1,-0.982783 1,-1.72266 v -0.380859 c 0,-1.29978 0.826469,-2.39071 1.98047,-2.80664 -1.153,-0.416929 -1.98047,-1.50591 -1.98047,-2.80469 v -0.380859 c 0,-0.739874 -0.404,-1.37772 -1,-1.72266 v -1.08984 z " class="ColorScheme-Text"/>
</svg>
