<svg width="16" version="1.1" xmlns="http://www.w3.org/2000/svg" height="16">
<defs id="defs3051">
<style type="text/css" id="current-color-scheme">
.ColorScheme-Text {
color:#4d4d4d;
}
</style>
</defs>
<path style="fill:currentColor" d="m 1,1 v 14 h 14 v -14 h -14 z  m 6,1 h 2 c 1.108,0 2,0.892 2,2 v 3 h -4 c -1.53261,0 -2,0.595784 -2,3 v 1 c -1.108,0 -2,-0.892 -2,-2 v -2 c 0,-1.108 0.892,-2 2,-2 h 3 v -1 h -3 c 0,-1.108 0.892,-2 2,-2 z  m 0,.5 c -0.277,0 -0.5,0.223 -0.5,0.5 0,0.277 0.223,0.5 0.5,0.5 0.277,0 0.5,-0.223 0.5,-0.5 0,-0.277 -0.223,-0.5 -0.5,-0.5 z  m 2.2969,5.5 c 0.140952,-0.0105065 0.227863,0.0787242 0.306641,0.402344 l .1094,.4414 c 0.31866,0.0417312 0.647096,0.151647 0.914062,0.322266 l .3691,-.3008 c 0.457152,-0.371951 0.437393,-0.240482 0.80664,0.234375 0.34103,0.415152 0.544128,0.446521 0.070313,0.832031 l -.3691,.3008 c 0.08291,0.195924 0.128492,0.388656 0.138672,0.580078 l .4492,.1211 c 0.584828,0.15567 0.420879,0.241157 0.242187,0.822265 -0.145787,0.494171 -0.081008,0.814247 -0.634765,0.591797 l -.4277,-.1113 c -0.111669,0.15453 -0.237649,0.315361 -0.398437,0.4375 -0.038601,0.034297 -0.092259,0.075075 -0.130859,0.109375 l .1074,.4238 c 0.147907,0.576579 -0.050217,0.473643 -0.617187,0.63086 -0.508334,0.142772 -0.687649,0.368931 -0.835938,-0.240235 l -.1094,-.4414 c -0.318664,-0.04173 -0.647095,-0.151647 -0.914062,-0.322266 l -.3691,.3008 c -0.457152,0.371951 -0.437393,0.240482 -0.806641,-0.234375 -0.341035,-0.415153 -0.544128,-0.446522 -0.0703125,-0.832032 l .3691,-.3008 c -0.0829076,-0.19592 -0.128493,-0.388657 -0.138672,-0.580078 l -.4492,-.1211 c -0.584827,-0.15567 -0.420879,-0.241157 -0.242188,-0.822265 0.145783,-0.49417 0.057318,-0.74149 0.634766,-0.591797 l .4277,.1113 c 0.111669,-0.154529 0.237649,-0.315361 0.398438,-0.4375 0.0386022,-0.0343023 0.0922571,-0.0750727 0.130859,-0.109375 l -.1074,-.4238 c -0.147908,-0.576574 0.0502183,-0.473643 0.617188,-0.630859 0.238283,-0.0669242 0.404927,-0.152839 0.529297,-0.162109 z  m .1289,2.0938 c -0.196134,0 -0.39334,0.064036 -0.554687,0.195312 -0.362416,0.315133 -0.424838,0.875944 -0.111328,1.24024 0.313512,0.36429 0.865582,0.413341 1.23438,0.113281 0.362418,-0.315133 0.409845,-0.869533 0.111328,-1.24023 -0.176351,-0.204913 -0.427516,-0.309261 -0.679688,-0.308594 z " class="ColorScheme-Text"/>
</svg>
