<svg width="16" version="1.1" xmlns="http://www.w3.org/2000/svg" height="16">
<path style="opacity:.24" d="M 15,1 V 15 H 1 v 1 H 16 V 1 Z"/>
<path style="fill:#ecf0f1" d="M 1,1 V 15 H 15 V 1 Z"/>
<g style="fill-rule:evenodd">
<path style="fill:#cb3300" d="m 10.1626,4.6202 .9886,2.5951 -1.4582,2.0266 1.2481,.3954 .8526,-1.2357 .3831,1.4582 1.7053,.136 l -.9144,-2.6321 1.5323,-1.8907 -1.5694,-.346 -.6426,.9886 -.4572,-1.211 -1.6683,-.2842 Z "/>
<path style="fill:#007fff" d="m 2.9706,5.3988 -.0371,.0494 -1.4335,.6797 1.8907,4.3621 3.0275,-1.4952 -.6179,-1.2728 -1.4706,.7414 -1.3593,-3.0646 Z "/>
<path style="fill:#e6ae00" d="m 5.5038,5.8189 1.4335,3.1264 -.3089,2.1502 1.7795,.2842 .4325,-2.3973 1.7548,-2.4962 -1.4706,-.2101 -.9515,1.3099 -.7785,-1.5076 -1.8907,-.2595 Z "/>
</g>
</svg>
