<svg width="16" version="1.1" xmlns="http://www.w3.org/2000/svg" height="16">
<defs id="defs3051">
<style type="text/css" id="current-color-scheme">
.ColorScheme-Text {
color:#4d4d4d;
}
</style>
</defs>
<path style="fill:currentColor" d="m 1,1 v 14 h 14 v -14 h -14 z  m 6.7324,2.5 c 0.190335,0.0021159 0.312612,0.144688 0.423828,0.601562 l .1621,.666 c 0.477989,0.0625969 0.972597,0.224541 1.37305,0.480469 l .5527,-.4492 c 0.685728,-0.557926 0.657066,-0.362675 1.21094,0.349609 0.511554,0.622728 0.814238,0.671735 0.103516,1.25 l -.5527,.4492 c 0.12436,0.293886 0.193721,0.585914 0.208985,0.873047 l .6738,.1777 c 0.87724,0.233505 0.629365,0.362714 0.361328,1.23438 -0.21868,0.741255 -0.120537,1.22039 -0.951172,0.886719 l -.6426,-.166 c -0.167502,0.231793 -0.356473,0.473043 -0.597656,0.65625 -0.057903,0.051453 -0.139369,0.112612 -0.197266,0.164062 l .1641,.6387 c 0.221862,0.864881 -0.0772811,0.707533 -0.927735,0.943359 -0.762502,0.214157 -1.03147,0.556329 -1.25391,-0.357421 l -.1621,-.666 c -0.477996,-0.062595 -0.972596,-0.224543 -1.37305,-0.480469 l -.5527,.4492 c -0.685728,0.557925 -0.657067,0.362675 -1.21094,-0.34961 -0.511553,-0.62273 -0.814238,-0.671734 -0.103516,-1.25 l .5527,-.4492 c -0.124362,-0.293879 -0.193716,-0.585915 -0.208984,-0.873047 l -.6738,-.1777 c -0.87724,-0.233505 -0.629365,-0.362713 -0.361328,-1.23438 0.218674,-0.741255 0.085,-1.11126 0.951172,-0.886719 l .6426,.166 c 0.167503,-0.231794 0.356473,-0.473042 0.597656,-0.65625 0.0579035,-0.0514536 0.139362,-0.112609 0.197266,-0.164062 l -.1641,-.6387 c -0.221863,-0.864861 0.0772806,-0.707534 0.927734,-0.943359 0.381252,-0.107079 0.639743,-0.246257 0.830078,-0.244141 z  m .1562,3.1406 c -0.294201,0 -0.588057,0.0980067 -0.830078,0.294922 -0.543624,0.472699 -0.640187,1.31294 -0.169922,1.85938 0.470269,0.546434 1.29837,0.620013 1.85156,0.169922 0.543626,-0.472699 0.615744,-1.30528 0.167969,-1.86133 -0.264526,-0.30737 -0.641273,-0.463891 -1.01953,-0.462891 z " class="ColorScheme-Text"/>
</svg>
