<svg width="16" version="1.1" xmlns="http://www.w3.org/2000/svg" height="16">
<defs id="defs3051">
<style type="text/css" id="current-color-scheme">
.ColorScheme-Text {
color:#4d4d4d;
}
</style>
</defs>
<path style="fill:currentColor" d="m 1,1 v 14 h 14 v -14 h -14 z  m 7,1 c 3.31371,0 6,2.68629 6,6 0,3.31371 -2.68629,6 -6,6 -3.31371,0 -6,-2.68629 -6,-6 0,-3.31371 2.68629,-6 6,-6 z  m 0,1 c -0.171098,0 -0.333761,0.0137812 -0.5,0.03125 -0.137054,0.0139186 -0.272696,0.0377379 -0.40625,0.0625 -0.030065,0.00571 -0.063873,-0.00622 -0.09375,0 -0.0423134,0.0086586 -0.0830833,0.0215298 -0.125,0.03125 -0.0737836,0.0172715 -0.146184,0.0422517 -0.21875,0.0625 -0.00199,0.01122 0.00391,0.02313 0,0.03125 -0.0156534,0.0324672 -0.06646,0.05135 -0.0625,0.09375 0.003003,0.047 0.03852,0.0525 0.0625,0.0625 0.036993,0.006 0.12028,-0.01425 0.15625,-0.03125 0.0669955,-0.0313 0.100255,-0.137 0.15625,-0.125 0.043978,0.01 0.08676,0.16775 0.09375,0.21875 0.00698,0.0536 -0.00275,0.10625 0,0.15625 0.0060005,0.0842 0.104275,0.04975 0.15625,0.09375 0.01496,0.014 0.01827,0.07575 0.03125,0.09375 0.025008,0.034 0.05755,0.0265 0.0625,0.0625 0.009999,0.087 -0.07048,0.0915 -0.0625,0.1875 -0.018007,0.038 -0.06635,0.04375 -0.0625,0.09375 0.0060005,0.081 0.12523,0.0005 0.15625,0.0625 0.01705,0.0332 -0.01926,0.078 -0.03125,0.125 0.039023,0.0452 0.067996,0.125 0,0.125 -0.041993,0 -0.05173,-0.08375 -0.09375,-0.09375 -0.024002,-0.01 -0.06372,0.01 -0.09375,0 -0.025003,-0.005 -0.06977,0.01 -0.09375,0 -0.061996,-0.007 -0.119235,0.00475 -0.15625,-0.03125 0.059994,-0.0789 0.141756,-0.15075 0.21875,-0.21875 0.022935,-0.022 0.04324,-0.05275 0.03125,-0.09375 -0.0419985,-0.038 -0.053765,0.00825 -0.09375,0.03125 -0.042999,0.023 -0.108235,0.0525 -0.15625,0.0625 -0.082995,0.011 -0.213259,-0.01275 -0.28125,0.03125 -0.009999,0.037 0.07449,0.0055 0.0625,0.0625 -0.033996,0.01 -0.067735,0.023 -0.09375,0 -0.02294,-0.021 0.015015,-0.0495 0,-0.0625 -0.0259985,-0.023 -0.14449,-0.04125 -0.1875,-0.03125 -0.052993,0.01 -0.08676,0.04875 -0.09375,0.09375 0.0639925,0.03 0.16451,-0.0135 0.1875,0.0625 -0.03399,0.0619 -0.10475,0.07225 -0.09375,0.15625 0.003998,0.033 0.035495,0.08375 0.0625,0.09375 0.027027,0.005 0.035495,-0.03125 0.0625,-0.03125 0.027978,0.003 0.0295,0.04125 0.0625,0.03125 0.0479935,-0.02 0.07,-0.0725 0.125,-0.0625 0.065989,0.0806 -0.055007,0.1 -0.125,0.125 -0.0799975,0.03 -0.189005,0.06775 -0.25,0.09375 -0.031999,0.013 -0.139255,0.12225 -0.15625,0.03125 -0.013001,-0.0651 0.047485,-0.071 0.0625,-0.125 -0.0779955,-0.014 -0.148757,0.06775 -0.21875,0.09375 -0.100991,0.0381 -0.25727,0.04335 -0.28125,0.15625 -0.00385,0.023 0.015015,0.07875 0,0.09375 -0.012001,0.013 -0.09398,0.02025 -0.125,0.03125 -0.047993,0.018 -0.09497,0.02125 -0.125,0.03125 -0.022027,0.007 -0.048475,0.02125 -0.0625,0.03125 -0.040013,0.016 -0.04777,0.05775 -0.09375,0.09375 -0.018018,0.015 -0.047485,0.01625 -0.0625,0.03125 -0.026004,0.026 -0.04777,0.08375 -0.09375,0.09375 -0.028968,0 -0.066745,-0.017 -0.09375,0 -0.00275,0.064 0.027005,0.15375 0,0.21875 -0.0589985,0.0487 -0.111512,0.11325 -0.1875,0.15625 -0.0419975,0.024 -0.074015,0.00625 -0.125,0.03125 -0.0359975,0.018 -0.084025,0.06975 -0.125,0.09375 -0.0959915,0.0559 -0.21875,0.107 -0.21875,0.25 0,0.031 0.0263,0.05775 0.03125,0.09375 0.00275,0.021 -0.0011,0.07075 0,0.09375 0.00698,0.052 0.044,0.11925 0,0.15625 -0.0669955,-0.028 -0.171725,-0.04575 -0.21875,-0.09375 -0.013035,-0.0496 0.0362,-0.11125 0.03125,-0.15625 -0.005,-0.036 -0.063775,-0.08375 -0.09375,-0.09375 -0.030002,-0.004 -0.03049,0.03125 -0.0625,0.03125 -0.037994,-0.004 -0.108235,-0.0525 -0.15625,-0.0625 -0.070994,-0.01 -0.109504,0.011 -0.1875,0 -0.075999,0.0402 -0.095507,0.135 -0.1875,0.125 -0.032995,-0.003 -0.055745,-0.0525 -0.09375,-0.0625 h -0.03125 c -0.131105,0.297934 -0.241235,0.612503 -0.3125,0.9375 -0.004971,0.02267 -0.02659,0.039716 -0.03125,0.0625 -0.00201,0.010094 0.00195,0.021134 0,0.03125 0.02052,-0.002 0.044185,0.01 0.0625,0 0.041998,-0.007 0.087985,-0.01925 0.125,-0.03125 0.108993,-0.034 0.079513,-0.16975 0.1875,-0.21875 0.0479985,-0.024 0.104505,-0.02125 0.1875,-0.03125 0.02695,0.022 0.06635,0.05975 0.0625,0.09375 -0.003025,0.026 -0.04952,0.05775 -0.0625,0.09375 -0.011,0.033 0.011,0.06775 0,0.09375 -0.014993,0.034 -0.08176,0.06175 -0.09375,0.09375 -0.00699,0.021 0.00698,0.0445 0,0.0625 -0.01199,0.034 -0.05127,0.05975 -0.03125,0.09375 0.106991,0.042 0.218505,-0.017 0.3125,0 0.039996,0.0071 0.15735,0.03175 0.15625,0.09375 -0.000935,0.0456 -0.05755,0.10625 -0.0625,0.15625 -0.005995,0.063 -0.0285,0.1365 -0.03125,0.1875 -0.0039985,0.083 0.130756,0.21875 0.21875,0.21875 0.0949905,-0.002 0.166262,-0.08125 0.28125,-0.03125 0.0379995,0.017 0.05173,0.0625 0.09375,0.0625 0.034997,-0.002 0.07076,-0.083 0.09375,-0.125 0.028997,-0.0513 0.043755,-0.06775 0.09375,-0.09375 0.0539935,-0.029 0.118502,-0.0365 0.1875,-0.0625 0.030993,-0.011 0.065755,-0.01325 0.09375,-0.03125 0.024013,-0.014 0.032525,-0.06025 0.0625,-0.03125 0.040018,0.04 -0.06524,0.05075 -0.03125,0.09375 0.0689915,0.0364 0.106255,-0.0625 0.15625,-0.0625 0.016,-0.001 0.064765,0.0435 0.09375,0.0625 0.038973,0.026 0.05074,0.0525 0.09375,0.0625 0.0269995,0.005 0.086005,-0.04125 0.125,-0.03125 0.050996,0.008 0.086005,0.09375 0.125,0.09375 0.046997,-0.001 0.085015,-0.08375 0.125,-0.09375 0.0879885,-0.016 0.117255,0.03875 0.15625,0.09375 0.042993,0.007 0.022515,-0.05125 0.0625,-0.03125 -0.022,0.045 0.013265,0.05675 0.03125,0.09375 0.01001,0.023 0.02025,0.02125 0.03125,0.03125 0.0239965,0.023 0.05877,0.0405 0.09375,0.0625 0.036994,0.0231 0.05173,0.076 0.09375,0.125 0.0439945,0.05 0.129508,0.08375 0.1875,0.09375 0.0549945,0.01 0.11027,-0.01 0.15625,0 0.102993,0.0129 0.146755,0.03775 0.21875,0.09375 0.041002,0.031 0.08077,0.05675 0.09375,0.09375 0.01001,0.026 -0.01001,0.096 0,0.125 0.022,0.063 0.12675,0.0796 0.09375,0.1875 0.014998,0.031 0.05778,0.0405 0.09375,0.0625 0.028996,0.018 0.06273,0.02125 0.09375,0.03125 0.019982,0.01 0.044515,0 0.0625,0 0.0569965,0.004 0.075995,0.0445 0.125,0.0625 0.030993,0.011 0.07373,0.01725 0.09375,0.03125 0.02497,0.017 0.03148,0.07875 0.0625,0.09375 0.0199985,0.01 0.09101,-0.01 0.125,0 0.0539935,0.007 0.108235,0.03125 0.15625,0.03125 h 0.0625 c 0.122986,0.01 0.225758,0.1435 0.34375,0.1875 0.0369985,0.013 0.068725,0.02025 0.09375,0.03125 0.043978,0.019 0.0899,0.15875 0.09375,0.21875 0.009999,0.182 -0.137757,0.22375 -0.21875,0.34375 -0.01694,0.0251 -0.03852,0.09 -0.0625,0.125 -0.047988,0.071 -0.10074,0.0575 -0.09375,0.1875 0.00099,0.036 0.03125,0.05375 0.03125,0.09375 0,0.0479 -0.02025,0.1445 -0.03125,0.1875 -0.00798,0.034 0.00495,0.06475 0,0.09375 -0.00495,0.031 0.00385,0.0365 0,0.0625 -0.004015,0.0293 -0.0405,0.085 -0.0625,0.125 -0.046002,0.0859 -0.062255,0.1535 -0.15625,0.1875 -0.0559955,0.02 -0.127506,0.0415 -0.1875,0.0625 -0.024998,0.009 -0.063775,0.01725 -0.09375,0.03125 -0.086988,0.041 -0.22602,0.0975 -0.25,0.1875 -0.022,0.0799 0.046265,0.159 0.03125,0.25 -0.01595,0.028 -0.00727,0.0315 -0.03125,0.0625 -0.021027,0.029 -0.07076,0.06575 -0.09375,0.09375 -0.030003,0.0363 -0.075765,0.074 -0.09375,0.125 -0.006,0.018 0.00698,0.00425 0,0.03125 -0.003025,0.01 -0.02223,0.0445 -0.03125,0.0625 -0.00798,0.018 0.00699,0.0485 0,0.0625 -0.023001,0.0461 -0.107245,0.14225 -0.15625,0.15625 -0.103988,0.029 -0.209255,-0.04525 -0.28125,-0.03125 0.009999,0.051 0.06977,0.05875 0.09375,0.09375 0.01298,0.021 -0.018975,0.0405 0,0.0625 0.022935,0.026 0.05975,0.0335 0.0625,0.0625 0.006001,0.0616 -0.0295,0.13525 -0.0625,0.15625 -0.029997,0.014 -0.10323,0.02125 -0.15625,0.03125 -0.036993,0.007 -0.138265,0.00725 -0.15625,0.03125 -0.025025,0.035 0.01903,0.12125 0,0.15625 -0.037994,0.074 -0.135525,-0.022 -0.1875,0 -0.002126,0.02012 0.02188,0.04535 0.03125,0.0625 0.263528,0.103616 0.529325,0.223304 0.8125,0.28125 0.142714,0.029203 0.290639,0.045739 0.4375,0.0625 0.184365,0.021209 0.372167,0.03125 0.5625,0.03125 0.365889,0 0.718961,-0.019139 1.0625,-0.09375 0.628741,-0.136552 1.20271,-0.401368 1.71875,-0.75 0.266002,-0.179707 0.523794,-0.398794 0.75,-0.625 0.03059,-0.03059 0.06395,-0.06238 0.09375,-0.09375 -0.058979,0.01359 -0.13442,0.02314 -0.1875,0 0.019,-0.066 0.05976,-0.0885 0.09375,-0.1875 0.02299,-0.0831 0.079,-0.21 0,-0.25 0.01804,-0.1249 -0.01798,-0.1411 0,-0.375 0.008,-0.174 -0.09755,-0.28875 -0.09375,-0.46875 -0.001001,-0.0749 0.07302,-0.1275 0.125,-0.1875 0.10999,-0.1859 0.1655,-0.30085 0.1875,-0.46875 -0.01199,-0.036 0.01298,-0.06575 0,-0.09375 -0.050996,-0.111 -0.08326,-0.19725 -0.15625,-0.28125 -0.04,-0.0452 -0.092,-0.083 -0.125,-0.125 -0.02702,-0.0342 -0.0625,-0.099 -0.0625,-0.125 -0.00099,-0.029 0.02325,-0.06475 0.03125,-0.09375 0.01,-0.037 -0.01397,-0.09825 0,-0.15625 0.00599,-0.0272 0.0675,-0.082 0.0625,-0.125 -0.004999,-0.0416 -0.07198,-0.112 -0.125,-0.125 -0.069993,-0.017 -0.13076,0.01 -0.21875,0 -0.076995,-0.049 -0.077511,-0.1715 -0.1875,-0.1875 -0.143984,-0.0207 -0.30725,0.05075 -0.40625,0.09375 -0.05699,0.025 -0.10626,0.02125 -0.15625,0.03125 -0.047997,0.003 -0.11027,-0.02125 -0.15625,-0.03125 -0.059994,-0.005 -0.1285,0.02125 -0.1875,0.03125 -0.056996,0.01 -0.105265,0.0525 -0.15625,0.0625 -0.096998,0.007 -0.189005,-0.10825 -0.25,-0.15625 -0.036997,-0.03 -0.05877,-0.0355 -0.09375,-0.0625 -0.036993,-0.03 -0.096015,-0.0345 -0.125,-0.0625 -0.038967,-0.0381 -0.04149,-0.1365 -0.0625,-0.1875 -0.024992,-0.06 -0.099253,-0.09925 -0.15625,-0.15625 -0.0419925,-0.042 -0.14525,-0.10225 -0.15625,-0.15625 -0.005995,-0.028 0.03345,-0.06475 0.03125,-0.09375 -0.00297,-0.044 -0.0636,-0.06275 -0.0625,-0.09375 0.001001,-0.0442 0.05051,-0.088 0.0625,-0.125 0.006,-0.02 -0.00699,-0.0385 0,-0.0625 0.01397,-0.0506 0.06949,-0.08225 0.0625,-0.15625 -0.00297,-0.03 -0.03015,-0.05575 -0.03125,-0.09375 -0.00099,-0.027 0.034,-0.0385 0.03125,-0.0625 -0.002998,-0.044 -0.05755,-0.04575 -0.0625,-0.09375 -0.006001,-0.051 0.03049,-0.09825 0.0625,-0.15625 0.01397,-0.026 0.01827,-0.07375 0.03125,-0.09375 0.027994,-0.0422 0.07175,-0.05175 0.09375,-0.09375 0.01496,-0.032 0.017225,-0.07075 0.03125,-0.09375 0.018997,-0.03 0.05877,-0.05475 0.09375,-0.09375 0.028022,-0.032 0.04248,-0.07975 0.0625,-0.09375 0.024997,-0.018 0.066745,-0.01925 0.09375,-0.03125 0.092988,-0.043 0.14251,-0.0985 0.1875,-0.1875 -0.013017,-0.0801 0.0295,-0.10025 0.0625,-0.15625 0.031002,-0.0516 0.041775,-0.12625 0.09375,-0.15625 0.062997,-0.036 0.1435,-0.02775 0.1875,-0.09375 0.02205,-0.0339 0.03125,-0.09 0.03125,-0.125 0,-0.0492 -0.04975,-0.115 -0.09375,-0.125 -0.045996,-0.01 -0.098985,0.049 -0.125,0 -0.00807,-0.017 0.00385,-0.0445 0,-0.0625 -0.005995,-0.034 -0.0614,-0.06975 -0.0625,-0.09375 -0.002998,-0.0466 0.07978,-0.10225 0.09375,-0.15625 0.01903,-0.074 0.00495,-0.13375 0,-0.21875 0.069999,-0.111 0.220016,-0.04125 0.375,-0.03125 h 0.0625 c 0.091988,0.001 0.18773,0.0175 0.21875,-0.0625 0.01199,-0.03 0.008,-0.1595 0,-0.1875 -0.008,-0.034 -0.06273,-0.105 -0.09375,-0.125 -0.049995,-0.032 -0.1595,-0.0055 -0.1875,-0.0625 0.022995,-0.099 0.15276,-0.0385 0.21875,-0.0625 0.03394,-0.012 0.03247,-0.0525 0.0625,-0.0625 0.021,-0.006 0.06476,0.03125 0.09375,0.03125 0.024,0 0.07076,-0.07775 0.09375,-0.09375 0.03203,-0.021 0.06575,-0.0445 0.09375,-0.0625 0.01901,-0.012 0.04149,-0.02125 0.0625,-0.03125 0.01208,-0.0054 0.02049,-0.02117 0.03125,-0.03125 -0.02845,-0.021183 -0.06509,-0.041618 -0.09375,-0.0625 0.00599,0.0481 -0.10275,0.04075 -0.09375,0.09375 -0.068997,0.057 -0.169259,0.0485 -0.28125,0.0625 -0.050996,0.01 -0.10224,0.042 -0.15625,0 -0.01202,-0.033 0.0576,-0.0305 0.0625,-0.0625 -0.00396,-0.03 -0.0535,-0.0375 -0.0625,-0.0625 0.01496,-0.039 0.0663,-0.03575 0.0625,-0.09375 0.028,-0.031 0.08575,-0.0225 0.09375,-0.0625 0.00599,-0.029 -0.03352,-0.0465 -0.0625,-0.0625 -0.01694,-0.009 -0.01327,-0.02125 -0.03125,-0.03125 -0.04897,-0.027 -0.06477,-0.08075 -0.09375,-0.09375 0.0008,-0.011 -7.5e-05,-0.02225 0,-0.03125 -0.125851,-0.0665144 -0.243074,-0.1317 -0.375,-0.1875 -0.239277,-0.101205 -0.493403,-0.186703 -0.75,-0.25 -0.139225,-0.034526 -0.262598,-0.07117 -0.40625,-0.09375 -0.0520981,-0.008291 -0.103629,-0.02458 -0.15625,-0.03125 -0.040041,-0.00492 -0.08466,0.00397 -0.125,0 -0.168085,-0.01707 -0.327411,-0.03125 -0.5,-0.03125 z  m -2.0312,.4688 c -0.195539,0.0880779 -0.381297,0.169733 -0.5625,0.28125 -0.0203967,0.012493 -0.0422599,0.0185049 -0.0625,0.03125 -0.010395,0.01 -0.0296,0.02125 -0.03125,0.03125 0.037021,0.0492 -0.03125,0.05075 -0.03125,0.09375 0,0.035 0.056735,0.09375 0.09375,0.09375 0.050991,0.004 0.13524,-0.04275 0.15625,-0.09375 0.02497,-0.061 -0.01473,-0.1435 0.03125,-0.1875 0.203503,0.0052706 0.374416,-0.0674261 0.40625,-0.25 z  m 4.1875,.1875 c 0.06199,-0.005 0.15245,0.0255 0.15625,0.0625 0.00501,0.037 -0.04847,0.05175 -0.0625,0.09375 -0.01294,0.0382 -0.01426,0.06675 -0.03125,0.09375 -0.015,0.024 -0.0345,0.02125 -0.0625,0.03125 -0.062992,0.013 -0.167765,0.11425 -0.21875,0.03125 0.00803,-0.045 0.016235,-0.05675 0.03125,-0.09375 0.001045,-0.029 -0.0362,-0.0315 -0.03125,-0.0625 0.006004,-0.037 0.05278,-0.0475 0.09375,-0.0625 0.02901,-0.011 0.05574,-0.0395 0.09375,-0.0625 0.01622,-0.01 0.01282,-0.02125 0.03125,-0.03125 z  m -5.4688,.625 c -0.0537931,0.0480533 -0.104587,0.105942 -0.15625,0.15625 0.008484,0.00725 0.02157,0.03125 0.03125,0.03125 0.0239965,0.004 0.14624,-0.02125 0.15625,-0.03125 0.0828088,-0.03565 0.016162,-0.118153 -0.03125,-0.15625 z  m .1875,.1875 c -0.040018,-0.003 -0.078735,0.0445 -0.09375,0.0625 -0.00204,0.031 0.0011,0.0325 0,0.0625 -0.049022,0.035 -0.016765,0.14625 0.03125,0.15625 0.0509955,0.004 0.088254,-0.14425 0.15625,-0.15625 0.023963,-0.004 0.0295,0.04125 0.0625,0.03125 0.040018,-0.0312 0.01077,-0.114 -0.03125,-0.125 -0.016027,-0.004 -0.035495,0.03125 -0.0625,0.03125 -0.028017,-0.002 -0.03852,-0.0625 -0.0625,-0.0625 z  m -.2305,.0273 c -0.0054337,0.0012499 -0.0125187,0.0039062 -0.0195312,0.0039062 -0.0419925,-0.002 -0.10102,0.01425 -0.125,0.03125 -0.021945,0.016 -0.03951,0.06575 -0.0625,0.09375 -0.022974,0.029 -0.04248,0.0375 -0.0625,0.0625 -0.017985,0.0229 -0.141496,0.1705 -0.0625,0.1875 0.0339955,0.0067 0.11801,-0.06675 0.125,-0.09375 0.023001,-0.0915 0.085256,-0.1445 0.15625,-0.1875 0.040958,-0.025 0.05552,-0.04075 0.0625,-0.09375 -0.0025025,-0.005 -0.006285,-0.0051562 -0.0117188,-0.0039062 z  m 6.7617,.1602 c -0.03203,0.002 -0.06774,0.01725 -0.09375,0.03125 -0.024,0.012 -0.03852,0.0465 -0.0625,0.0625 -0.029,0.013 -0.06675,0 -0.09375,0 -0.06299,0.003 -0.10224,-0.012 -0.15625,0 -0.01798,0.004 -0.0405,0.01125 -0.0625,0.03125 -0.0011,0.03 0.0038,0.0305 0,0.0625 -0.016,0.029 -0.05877,0.0445 -0.09375,0.0625 -0.052,0.0272 -0.08298,0.083 -0.125,0.125 -0.027,0.028 -0.0587,0.0415 -0.0625,0.0625 -0.003,0.017 0.0038,0.0405 0,0.0625 -0.005,0.024 -0.06378,0.07275 -0.09375,0.09375 -0.01799,0.012 -0.01222,0.02025 -0.03125,0.03125 -0.04002,0.024 -0.06075,0.0525 -0.09375,0.0625 -0.087989,0.017 -0.2511,-0.0305 -0.25,0.0625 0.001001,0.061 0.07402,0.09375 0.125,0.09375 0.07099,-0.01 0.11726,0.01 0.15625,0 0.027,-0.008 0.06576,-0.0495 0.09375,-0.0625 0.01804,-0.008 0.04853,-0.02125 0.0625,-0.03125 0.03001,-0.015 0.03951,-0.02025 0.0625,-0.03125 0.045996,-0.021 0.13849,-0.0625 0.1875,-0.0625 0.067997,-0.01 0.13176,0.01 0.21875,0 0.031,-0.003 0.06075,0 0.09375,0 0.054994,-0.004 0.1435,0 0.1875,0 h 0.09375 c 0.04099,0.001 0.08675,0.00525 0.09375,0.03125 0.0049,0.015 -0.0038,0.0405 0,0.0625 0.005,0.037 0.03345,0.06975 0.03125,0.09375 -0.002,0.0313 -0.10475,0.05675 -0.09375,0.09375 0.00701,0.023 0.06674,0.07675 0.09375,0.09375 0.028,0.014 0.09101,-0.01 0.125,0 0.02798,0.01 0.03549,0 0.0625,0 0.043003,0.005 0.12924,0.0435 0.15625,0.0625 0.047,0.0333 0.03875,0.107 0.09375,0.125 0.024,0.01 0.06377,-0.01 0.09375,0 0.07299,0.017 0.13453,0.0725 0.1875,0.0625 0.08399,-0.0099 0.05249,-0.10025 0.0625,-0.15625 0.00709,-0.043 0.01839,-0.0495 0.0625,-0.0625 -0.03456,-0.0674543 -0.0875,-0.122043 -0.125,-0.1875 -0.079398,-0.13859 -0.15809,-0.276244 -0.25,-0.40625 -0.001,0.0492 -0.04474,0.135 -0.09375,0.125 -0.01397,0.0383 -0.03252,0.07175 -0.0625,0.09375 -0.082995,-0.015 -0.15048,-0.03375 -0.1875,-0.09375 0.026,-0.023 0.081,0 0.125,0 h 0.125 c -0.00501,-0.03 0.03235,-0.06175 0.03125,-0.09375 -0.003004,-0.064 -0.12251,-0.1585 -0.1875,-0.1875 -0.031,-0.014 -0.06575,-0.0475 -0.09375,-0.0625 -0.049004,-0.0272 -0.12627,-0.086 -0.15625,-0.125 -0.035998,-0.0476 -0.07726,-0.135 -0.15625,-0.125 z  m -6.1504,.0273 c -0.011247,0.0012499 -0.0245969,0.0039062 -0.0371094,0.0039062 h -0.09375 c -0.032032,0.004 -0.05975,0.00625 -0.0625,0.03125 0.051997,0.024 0.202745,0.03475 0.21875,-0.03125 -0.0049995,-0.005 -0.0141436,-0.0051562 -0.0253906,-0.0039062 z  m 6.1641,.1191 c 0.004945,-0.0005 0.011088,0.0027656 0.017578,0.0097656 0.00605,0.043 -0.00826,0.07975 -0.03125,0.09375 -0.04901,-0.01 -0.033,-0.08275 0,-0.09375 0.00498,-0.005 0.008727,-0.0092656 0.013672,-0.0097656 z  m -6.5137,.0098 c -0.050996,0.002 -0.11225,0.02125 -0.15625,0.03125 -0.034012,0.005 -0.10178,-0.02075 -0.09375,0.03125 0.007002,0.042 0.055745,0.04325 0.09375,0.03125 0.0693312,-0.0216667 0.112567,-0.0619684 0.15625,-0.09375 z  m 6.4531,.1523 c 0.01621,0.0005156 0.034875,0.0114062 0.046875,0.0039062 0.048,-0.013 0.08153,0.021 0.0625,0.125 -0.015994,0.042 -0.09299,0.09325 -0.125,0.03125 0.011,-0.0486 0.0011,-0.10025 0,-0.15625 0.004235,-0.00325 0.010222,-0.0040781 0.015625,-0.0039062 z  m -8.2969,2.3477 c -0.032064,0.228804 -0.0625,0.449858 -0.0625,0.6875 0,0.172589 0.01418,0.331915 0.03125,0.5 0.0139186,0.137054 0.0377379,0.272696 0.0625,0.40625 0.0098581,0.0531698 0.0197236,0.103685 0.03125,0.15625 0.0610736,0.278519 0.144623,0.553501 0.25,0.8125 0.0085772,0.0210813 0.0223945,0.0415633 0.03125,0.0625 0.122814,0.290366 0.264454,0.553233 0.4375,0.8125 0.0132388,0.019835 0.0177365,0.042866 0.03125,0.0625 0.149138,0.216682 0.319419,0.434853 0.5,0.625 0.0297959,0.031374 0.0631566,0.063157 0.09375,0.09375 0.226205,0.226206 0.483998,0.445293 0.75,0.625 0.031345,0.02118 0.061904,0.04202 0.09375,0.0625 0.00594,-0.019 -0.00275,-0.0395 0,-0.0625 0.00385,-0.024 -0.00275,-0.0365 0,-0.0625 0.004015,-0.033 0.0274,-0.06475 0.03125,-0.09375 0.005995,-0.055 -0.02124,-0.17275 -0.03125,-0.21875 -0.012001,-0.0581 -0.05551,-0.09325 -0.0625,-0.15625 -0.003025,-0.023 0.03345,-0.06475 0.03125,-0.09375 -0.00198,-0.028 -0.0285,-0.0315 -0.03125,-0.0625 -0.0022,-0.029 -0.00275,-0.05975 0,-0.09375 0.00495,-0.063 -0.0011,-0.1255 0,-0.1875 0.0011,-0.019 0,-0.07575 0,-0.09375 0,-0.0516 -0.0285,-0.073 -0.03125,-0.125 -0.00385,-0.0951 0.015015,-0.162 0,-0.25 -0.01199,-0.0669 -0.00727,-0.17675 -0.03125,-0.21875 -0.026994,-0.0466 -0.13448,-0.12625 -0.1875,-0.15625 -0.034991,-0.02 -0.086995,-0.01225 -0.125,-0.03125 -0.080993,-0.0399 -0.24528,-0.13775 -0.28125,-0.21875 -0.01001,-0.024 0.011,-0.06775 0,-0.09375 -0.022,-0.0516 -0.092,-0.076 -0.125,-0.125 -0.061985,-0.095 -0.093259,-0.2155 -0.15625,-0.3125 -0.031999,-0.0495 -0.05877,-0.11725 -0.09375,-0.15625 -0.020999,-0.023 -0.08577,-0.05875 -0.09375,-0.09375 -0.010945,-0.0467 -0.0362,-0.09 -0.03125,-0.125 0.007001,-0.0482 0.09375,-0.081 0.09375,-0.125 0,-0.037 -0.05249,-0.06275 -0.0625,-0.09375 -0.025014,-0.077 0.03247,-0.1235 0.0625,-0.1875 0.008965,-0.021 0.02124,-0.0475 0.03125,-0.0625 0.018023,-0.028 0.03852,-0.0335 0.0625,-0.0625 0.01397,-0.017 0.013265,-0.06975 0.03125,-0.09375 0.037999,-0.0503 0.108995,-0.04775 0.125,-0.09375 0.01298,-0.037 0.015015,-0.21925 0,-0.28125 -0.008965,-0.036 -0.04952,-0.05975 -0.0625,-0.09375 -0.023001,-0.0606 -0.03176,-0.15625 -0.09375,-0.15625 -0.039028,0 -0.068725,0.0355 -0.09375,0.0625 -0.005995,0.036 0.005765,0.08275 -0.03125,0.09375 -0.056997,0.0168 -0.090256,-0.07375 -0.15625,-0.09375 -0.026037,-0.01 -0.045505,0.01 -0.0625,0 -0.0479935,-0.0222 -0.074015,-0.06575 -0.125,-0.09375 -0.042003,-0.024 -0.067735,-0.05875 -0.09375,-0.09375 -0.01001,-0.024 0.00275,-0.06175 0,-0.09375 -0.055,-0.032 -0.123502,-0.12825 -0.1875,-0.15625 -0.0419925,-0.019 -0.10323,-0.0445 -0.15625,-0.0625 -0.024987,-0.008 -0.036485,0.01 -0.0625,0 -0.031999,-0.008 -0.068725,-0.01825 -0.09375,-0.03125 -0.0674575,-0.0334 -0.099886,-0.10525 -0.15625,-0.15625 z  m 1.9375,.5312 c -0.03597,0.018 -0.037015,0.0725 0,0.0625 0.038995,-0.007 0.048015,-0.0845 0,-0.0625 z " class="ColorScheme-Text"/>
</svg>
