<svg width="16" version="1.1" xmlns="http://www.w3.org/2000/svg" height="16">
<defs id="defs3051">
<style type="text/css" id="current-color-scheme">
.ColorScheme-Text {
color:#4d4d4d;
}
</style>
</defs>
<path style="fill:currentColor;fill-opacity:1;stroke:none" d="m 1,1 .0039,2.9336 5.1055,6.1406 c 0,0 1.11887,1.38595 2.44141,2.1858 0.984077,0.595152 2.08036,0.348588 2.96875,-0.328375 0.662301,-0.503927 1.0388,-1.69568 0.865235,-2.51758 -0.363074,-1.75399 -2.2168,-3.58398 -2.2168,-3.58398 l -2.5332,-3.0645 c -0.179846,-0.370906 0.07582,-1.07736 0.304688,-1.07983 0.032695,0 0.06349,0.00361 0.09375,0.011719 0.173568,0.049717 0.253906,0.144531 0.253906,0.144531 l 2.3049,2.554 c 0,0 2.3604,2.37493 2.868,4.368 0.478075,1.87713 -0.211644,3.70435 -1.13036,4.37709 -1.19608,0.875844 -2.90452,1.14145 -4.08295,0.453677 -1.50501,-0.882425 -2.69782,-2.24477 -2.69782,-2.24477 l -4.5488,-5.5547 v 9.20463 h 14 v -14 h -10.2871 l 2.2363,2.752 c 0,0 1.87484,2.11697 3.10352,3.58984 2.16959,2.60831 -0.136234,4.69002 -2.36914,2.52344 -0.696551,-0.629354 -1.98633,-2.06836 -1.98633,-2.06836 l -2.5703,-3.1445 c 0,0 -0.195769,-0.186414 -0.138672,-0.378906 0.077651,-0.24886 0.452085,-0.86418 0.769531,-0.451095 l 2.6414,3.1209 c 0,0 1.38936,1.85477 2.48558,2.40842 0.524902,0.251245 1.1414,-0.248394 0.658203,-0.875175 -1.26065,-1.51826 -3.38672,-4.02344 -3.38672,-4.02344 l -2.3691,-2.6895 .041,-.7636 z " class="ColorScheme-Text"/>
</svg>
