<svg width="16" version="1.0" xmlns="http://www.w3.org/2000/svg" viewBox="0 0 16 16" height="16">
<defs id="defs3051">
<style type="text/css" id="current-color-scheme">
.ColorScheme-Text {
color:#4d4d4d;
}
</style>
</defs>
<path style="fill:currentColor" d="m 1,1 v 14 h 14 v -14 h -14 z  m 11,1 a 2,2 0 0,1 2,2 2,2 0 0,1 -2,2 2,2 0 0,1 -1.98828,-1.83594 c -0.403525,-0.045419 -0.82226,-0.084853 -1.24805,-0.107422 -1.03829,-0.0550344 -2.08936,-0.0132331 -2.85742,0.1875 -0.768067,0.200733 -1.16018,0.491249 -1.2793,0.927734 -0.069923,0.256213 -0.0410044,0.376694 0.0585938,0.542969 0.0995982,0.166274 0.31682,0.370125 0.650391,0.568359 0.189743,0.112761 0.416049,0.22172 0.664062,0.328125 v -0.611328 h 4 v 1.98242 c 0.476053,0.180718 0.927759,0.379258 1.32812,0.617188 0.443854,0.263773 0.839078,0.579376 1.10156,1.01758 0.262483,0.438201 0.346743,1.00697 0.197265,1.55469 -0.27823,1.0195 -1.21114,1.58203 -2.20508,1.8418 -0.993935,0.259762 -2.14153,0.285522 -3.25391,0.226562 -0.518317,-0.027473 -1.02676,-0.07589 -1.50586,-0.132812 a 2,2 0 0,1 -1.66211,0.892578 2,2 0 0,1 -2,-2 2,2 0 0,1 2,-2 2,2 0 0,1 1.99219,1.83594 c 0.40237,0.045225 0.819701,0.084924 1.24414,0.107421 1.03829,0.055035 2.08936,0.013233 2.85742,-0.1875 0.768067,-0.200733 1.16018,-0.491249 1.2793,-0.927734 0.069927,-0.256213 0.041006,-0.376694 -0.058594,-0.542969 -0.099598,-0.166274 -0.316821,-0.370125 -0.650391,-0.568359 -0.189742,-0.112761 -0.416048,-0.22172 -0.664062,-0.328125 v 0.611328 h -4 v -1.98242 c -0.476052,-0.180718 -0.927759,-0.379258 -1.32812,-0.617188 -0.443854,-0.263774 -0.83908,-0.579376 -1.10156,-1.01758 -0.262482,-0.438202 -0.346744,-1.00697 -0.197266,-1.55469 0.278231,-1.0195 1.21114,-1.58203 2.20508,-1.8418 0.993935,-0.259763 2.14153,-0.285524 3.25391,-0.226562 0.518318,0.0274735 1.02676,0.0758907 1.50586,0.132812 a 2,2 0 0,1 1.66211,-0.892578 z " class="ColorScheme-Text"/>
</svg>
