<svg width="16" version="1.0" xmlns="http://www.w3.org/2000/svg" viewBox="0 0 16 16" height="16">
<defs id="defs3051">
<style type="text/css" id="current-color-scheme">
.ColorScheme-Text {
color:#4d4d4d;
}
</style>
</defs>
<path style="fill:currentColor" d="m 1,1 v 14 h 14 v -14 h -14 z  m 10,2 a 2,2 0 0,1 2,2 2,2 0 0,1 -2,2 2,2 0 0,1 -1.86914,-1.30273 c -0.379657,0.0468197 -0.753465,0.122528 -1.0332,0.228516 -0.316698,0.12 -0.470172,0.263866 -0.507812,0.345703 -0.0497937,0.108262 -0.0467752,0.155326 0.0996093,0.390625 0.146385,0.235299 0.443622,0.550151 0.771484,0.880859 0.327863,0.330708 0.685579,0.677367 0.953125,1.10742 0.267546,0.430055 0.437439,1.05218 0.175781,1.62109 -0.249505,0.542478 -0.739422,0.834963 -1.22656,1.01953 -0.470217,0.178156 -0.97801,0.267022 -1.46094,0.318359 a 2,2 0 0,1 -1.90234,1.39062 2,2 0 0,1 -2,-2 2,2 0 0,1 2,-2 2,2 0 0,1 1.87305,1.30273 c 0.378334,-0.046873 0.750503,-0.122886 1.0293,-0.228515 0.316698,-0.12 0.470172,-0.263866 0.507812,-0.345703 0.0497937,-0.108262 0.0467752,-0.155326 -0.0996093,-0.390625 -0.146385,-0.235299 -0.443622,-0.550151 -0.771484,-0.880859 -0.327863,-0.330708 -0.685579,-0.677367 -0.953125,-1.10742 -0.267546,-0.430055 -0.437439,-1.05219 -0.175781,-1.62109 0.249505,-0.542478 0.739422,-0.834963 1.22656,-1.01953 0.470217,-0.178156 0.97801,-0.26702 1.46094,-0.318359 a 2,2 0 0,1 1.90234,-1.39062 z " class="ColorScheme-Text"/>
</svg>
