<svg width="16" version="1.0" xmlns="http://www.w3.org/2000/svg" viewBox="0 0 16 16" height="16">
<defs id="defs3051">
<style type="text/css" id="current-color-scheme">
.ColorScheme-Text {
color:#4d4d4d;
}
</style>
</defs>
<path style="fill:currentColor" d="m 1,1 v 14 h 14 v -14 h -14 z  m 13,.5 v 0.710938 c -0.76954,1.08538 -1.97713,1.48183 -3.58203,2.11523 -1.18777,0.46878 -2.25966,1.04412 -3.10352,1.86719 -0.903863,0.88161 -0.939071,1.60222 -0.898438,2.09766 0.04185,0.510267 0.413827,0.978963 0.720703,1.14062 0.28139,0.148239 0.977423,0.192728 1.36914,-0.189453 0.20936,-0.204263 0.311714,-0.487139 0.466797,-0.679688 0.30372,-0.377093 1.05005,-0.46915 1.46875,-0.123047 0.346902,0.286755 0.484241,0.59707 0.5,0.980469 0.025214,0.613484 -0.35964,1.11915 -0.701172,1.44727 -0.44439,0.426946 -0.956172,0.636236 -1.53516,0.765624 -0.51512,0.115122 -1.0982,0.082046 -1.68945,-0.044921 -1.05487,-0.22653 -1.77435,-0.887191 -2.2168,-1.79883 -0.1924,-0.396428 -0.289778,-0.937156 -0.298828,-1.37109 -0.01373,-0.92615 0.320193,-1.70168 0.824219,-2.35742 0.250942,-0.326478 0.532184,-0.628865 0.855469,-0.890625 1.15759,-0.937277 2.50653,-1.40857 3.81641,-1.82422 1.43894,-0.45661 3.30811,-0.876056 4.00391,-1.8457 z  m -12,.5 h 3 v 3 h -1 v 6 h 1 v 3 h -3 v -3 h 1 v -2 h -1 v -2 h 1 v -2 h -1 v -3 z  m 1,1 v 1 h 1 v -1 h -1 z  m 0,9 v 1 h 1 v -1 h -1 z " class="ColorScheme-Text"/>
</svg>
