<svg width="16" version="1.0" xmlns="http://www.w3.org/2000/svg" viewBox="0 0 16 16" height="16">
<defs id="defs3051">
<style type="text/css" id="current-color-scheme">
.ColorScheme-Text {
color:#4d4d4d;
}
</style>
</defs>
<path style="fill:currentColor" d="m 1,1 v 14 h 14 v -14 h -14 z  m 11,1 a 2,2 0 0,1 2,2 2,2 0 0,1 -2,2 2,2 0 0,1 -1.94531,-1.55078 c -0.0679393,-0.0017549 -0.134733,-0.0050634 -0.203126,-0.0058594 -0.773405,-0.0090012 -1.5637,0.0515053 -2.15234,0.214844 -0.58864,0.163339 -0.902649,0.400125 -1.01367,0.648438 -0.0578933,0.129483 -0.0585655,0.19024 -0.0292969,0.302734 0.0251672,0.0967305 0.0943507,0.232285 0.212891,0.390625 h 3.13086 v 2.70898 c 0.079661,0.0843457 0.157314,0.170694 0.230469,0.259766 0.247326,0.301141 0.459286,0.640714 0.564453,1.04492 0.105166,0.404207 0.078011,0.873864 -0.109375,1.29297 -0.37,0.827556 -1.17032,1.25458 -1.98438,1.48047 -0.814052,0.225882 -1.71398,0.279532 -2.57031,0.269532 -0.14471,-0.001685 -0.286069,-0.008334 -0.427734,-0.013672 a 2,2 0 0,1 -1.70312,0.957031 2,2 0 0,1 -2,-2 2,2 0 0,1 2,-2 2,2 0 0,1 1.94727,1.55078 c 0.0672911,0.001729 0.133436,0.005071 0.201172,0.00586 0.773405,0.009001 1.5637,-0.051506 2.15234,-0.214844 0.58864,-0.163339 0.902649,-0.400125 1.01367,-0.648438 0.057893,-0.129483 0.0585659,-0.19024 0.0292969,-0.302734 -0.0251672,-0.09673 -0.0943507,-0.232285 -0.212891,-0.390625 h -3.13086 v -2.70898 c -0.079661,-0.0843457 -0.157314,-0.170693 -0.230469,-0.259766 -0.247326,-0.301141 -0.459287,-0.640714 -0.564453,-1.04492 -0.105166,-0.404208 -0.078011,-0.873864 0.109375,-1.29297 0.37,-0.827556 1.17032,-1.25458 1.98438,-1.48047 0.814052,-0.225887 1.71398,-0.279498 2.57031,-0.269531 0.144709,0.0016842 0.286069,0.0083338 0.427734,0.0136718 a 2,2 0 0,1 1.70312,-0.957031 z " class="ColorScheme-Text"/>
</svg>
