<svg width="16" version="1.1" xmlns="http://www.w3.org/2000/svg" height="16">
<defs id="defs3051">
<style type="text/css" id="current-color-scheme">
.ColorScheme-Text {
color:#4d4d4d;
}
</style>
</defs>
<path style="fill:currentColor" d="m 1,1 v 14 h 14 v -14 h -14 z  m 7,2 a 5,5 0 0,1 5,5 5,5 0 0,1 -5,5 5,5 0 0,1 -5,-5 5,5 0 0,1 5,-5 z  m 0,1 a 4,4 0 0,0 -4,4 4,4 0 0,0 4,4 4,4 0 0,0 4,-4 4,4 0 0,0 -4,-4 z  m .1855,1.4121 c 0.845213,-0.0094427 1.55457,0.237568 1.62695,0.263672 v 1.30273 c -0.846077,-0.549208 -1.88254,-0.603792 -2.4375,-0.0488281 -0.519556,0.527803 -0.513166,1.64504 0,2.1582 0.619881,0.619881 1.82903,0.414138 2.4375,-0.0488281 v 1.29102 c -0.677411,0.229277 -1.20135,0.273438 -1.56445,0.273438 -0.852524,0 -1.5357,-0.236258 -2.04883,-0.708985 -1.04338,-0.961226 -1.03493,-2.82424 0,-3.76953 0.588707,-0.542352 1.32894,-0.705546 1.98633,-0.712891 z " class="ColorScheme-Text"/>
</svg>
