<svg width="16" version="1.1" xmlns="http://www.w3.org/2000/svg" height="16">
<defs id="defs3051">
<style type="text/css" id="current-color-scheme">
.ColorScheme-Text {
color:#4d4d4d;
}
</style>
</defs>
<path style="fill:currentColor" d="m 1,1 v 14 h 14 v -14 h -14 z  m 3.1523,2.7754 h 0.736328 v 1.0332 c 0.377614,0.0302088 1.04492,0.103651 1.82617,0.3125 v 1.15625 c -0.77308,-0.324693 -1.4437,-0.4088 -1.82617,-0.427734 v 1.30664 c 1.21061,0.225982 2.23438,0.441955 2.23438,1.89258 0,1.30991 -1.01801,1.72793 -2.23438,1.79687 v 1.37891 h -0.736328 l -.0039,-1.3691 c -0.763642,-0.030546 -1.46908,-0.170641 -2.13867,-0.417969 v -1.19336 c 0.574281,0.294631 1.2763,0.545582 2.14258,0.574219 v -1.41602 l -.1504,-.0273 c -1.41862,-0.249298 -2.00195,-0.739277 -2.00195,-1.7793 0,-1.13695 0.833118,-1.71738 2.14844,-1.76953 l .0039,-1.0508 z  m 7.75,.1641 c 0.715749,0 1.42184,0.153246 2.09766,0.503906 v 1.40625 c -0.671289,-0.457983 -1.29072,-0.640625 -1.95703,-0.640625 -1.24819,0 -2.01172,0.837369 -2.01172,2.25586 0,0.700796 0.179127,1.25189 0.537109,1.65234 0.84349,0.943563 2.36416,0.687268 3.43164,-0.0410156 v 1.40625 c -0.321577,0.166857 -0.656978,0.292008 -1.00586,0.376953 -0.348882,0.08494 -0.712579,0.128906 -1.0918,0.128906 -1.13159,0 -2.0281,-0.316245 -2.68945,-0.947265 -0.661357,-0.634054 -0.992188,-1.49312 -0.992188,-2.57617 0,-1.08608 0.33083,-1.94515 0.992188,-2.57617 0.661358,-0.634054 1.55786,-0.949219 2.68945,-0.949219 z  m -7.75,1.9238 c -0.406648,0.0229099 -0.708984,0.230092 -0.708984,0.574219 0,0.307947 0.168644,0.550935 0.708984,0.613281 v -1.1875 z  m .7363,2.6719 v 1.26367 c 0.330095,-0.00379 0.792969,-0.083728 0.792969,-0.603516 0,-0.410626 -0.225656,-0.599804 -0.792969,-0.660156 z " class="ColorScheme-Text"/>
</svg>
