<svg width="16" version="1.1" xmlns="http://www.w3.org/2000/svg" height="16">
<defs id="defs3051">
<style type="text/css" id="current-color-scheme">
.ColorScheme-Text {
color:#4d4d4d;
}
</style>
</defs>
<path style="fill:currentColor" d="m 1,1 v 14 h 14 v -14 h -14 z  m 8.7676,.9902 l 4.2422,4.2422 -7.7773,7.7773 -4.2422,-4.2422 7.7773,-7.7773 z  m -.3535,1.0605 l -.707,.707 .707,.707 .707,-.707 -.707,-.707 z  m 1.4141,1.4141 l -.707,.707 .707,.707 .707,-.707 -.707,-.707 z  m -3.3594,.5293 l -.707,.707 .707,.707 .709,-.707 -.709,-.707 z  m 4.7734,.8848 l -.707,.707 .707,.707 .707,-.707 -.707,-.707 z  m -3.3574,.5293 l -.707,.707 .707,.707 .707,-.707 -.707,-.707 z  m -3.1836,.3535 l -.707,.707 .707,.709 .707,-.709 -.707,-.707 z  m 4.5977,1.0605 l -.707,.709 .707,.707 .707,-.707 -.707,-.709 z  m -3.1836,.3555 l -.707,.707 .707,.707 .707,-.707 -.707,-.707 z  m -3.3574,.5293 l -.707,.707 .707,.707 .707,-.707 -.707,-.707 z  m 4.7734,.8848 l -.709,.707 .709,.707 .707,-.707 -.707,-.707 z  m -3.3594,.5293 l -.707,.707 .707,.707 .707,-.707 -.707,-.707 z  m 1.4141,1.4141 l -.707,.707 .707,.707 .707,-.707 -.707,-.707 z " class="ColorScheme-Text"/>
</svg>
