<svg width="16" version="1.1" xmlns="http://www.w3.org/2000/svg" height="16">
<defs id="defs3051">
<style type="text/css" id="current-color-scheme">
.ColorScheme-Text {
color:#4d4d4d;
}
</style>
</defs>
<path style="fill:currentColor" d="M 1,1 V 15 H 15 V 1 Z m 6,1 h 2 c 1.108,0 2,0.892 2,2 V 5.5 C 11,7 10,7 9,7 H 7 C 5.4673918,7 4,7.5957841 4,10 v 1 C 2.892,11 2,10.108 2,9 V 7 C 2,5.892 2.892,5 4,5 H 8 V 4 H 5 C 5,2.892 5.892,2 7,2 Z M 7,2.5 C 6.723,2.5 6.5,2.723 6.5,3 6.5,3.277 6.723,3.5 7,3.5 7.277,3.5 7.5,3.277 7.5,3 7.5,2.723 7.277,2.5 7,2.5 Z M 12,5 c 1.108,0 2,0.892 2,2 v 2 c 0,1.108 -0.892,2 -2,2 H 8 v 1 h 3 c 0,1.108 -0.892,2 -2,2 H 7 C 5.892,14 5,13.108 5,12 V 10.5 C 5,9 6,9 7,9 h 2 c 1.541956,0 3,-0.7548413 3,-3 z m -3,7.5 c -0.277,0 -0.5,0.223 -0.5,0.5 0,0.277 0.223,0.5 0.5,0.5 0.277,0 0.5,-0.223 0.5,-0.5 0,-0.277 -0.223,-0.5 -0.5,-0.5 z" class="ColorScheme-Text"/>
</svg>
