<svg width="16" version="1.1" xmlns="http://www.w3.org/2000/svg" height="16">
<defs id="defs3051">
<style type="text/css" id="current-color-scheme">
.ColorScheme-Text {
color:#4d4d4d;
}
</style>
</defs>
<path style="fill:currentColor;fill-opacity:1" d="M 1,1 V 15 H 15 V 1 Z M 5,4 H 7 V 7.0507812 C 7.2877448,6.7026455 7.5009498,6.4485669 7.8242188,6.2851562 8.1474876,6.1181932 8.5037667,6.0332031 8.8945312,6.0332031 c 0.6891667,0 1.2111658,0.2120295 1.5664068,0.6347657 C 10.81973,7.090705 11,7.7053227 11,8.5117188 V 12 H 9 V 9.375 C 9,8.8527964 9.0033826,8.4942104 8.9785156,8.2988281 8.9572009,8.1034458 8.9181666,7.9595501 8.8613281,7.8671875 8.7867276,7.7428533 8.6864803,7.6456207 8.5585938,7.578125 8.4307072,7.507077 8.2845044,7.4726563 8.1210938,7.4726562 c -0.3978695,0 -0.645693,0.1538315 -0.8730469,0.4628907 C 7.020693,8.2410538 7,8.6654664 7,9.2089844 V 12 H 5 Z" class="ColorScheme-Text"/>
</svg>
