<svg width="16" version="1.1" xmlns="http://www.w3.org/2000/svg" height="16">
<defs id="defs3051">
<style type="text/css" id="current-color-scheme">
.ColorScheme-Text {
color:#4d4d4d;
}
</style>
</defs>
<path style="fill:currentColor;fill-opacity:1" d="M 1,1 V 15 H 15 V 1 Z m 7.8223,3.5 c 0.3937,0 0.770608,0.042598 1.13281,0.126953 0.362205,0.084355 0.711064,0.209302 1.04492,0.375 v 1.39648 C 10.663022,6.178507 10.331495,6.01649 10.003936,5.914058 9.676377,5.811626 9.462208,5.761714 9.1,5.761714 8.451182,5.761714 7.97165,5.959742 7.6,6.357417 7.228347,6.755092 7,7.303004 7,8.001947 c 0,0.695932 0.228346,1.24295 0.6,1.64062 0.371653,0.397676 0.851182,0.595703 1.5,0.595703 0.362204,0 0.576373,-0.04991 0.903936,-0.152343 0.327559,-0.102432 0.659086,-0.264449 0.996094,-0.484376 v 1.39648 c -0.333858,0.165698 -0.682717,0.290645 -1.04492,0.375 -0.362204,0.08436 -0.739112,0.126953 -1.13281,0.126953 -1.1748,0 -2.10636,-0.312813 -2.79297,-0.939453 -0.686613,-0.629653 -1.0293,-1.48306 -1.0293,-2.55859 0,-1.07854 0.342683,-1.93 1.0293,-2.55664 C 6.715943,4.815648 7.6475,4.5 8.8223,4.5 Z" class="ColorScheme-Text"/>
</svg>
