<svg width="16" version="1.1" xmlns="http://www.w3.org/2000/svg" height="16">
<defs id="defs3051">
<style type="text/css" id="current-color-scheme">
.ColorScheme-Text {
color:#4d4d4d;
}
</style>
</defs>
<path style="fill:currentColor;fill-opacity:1" d="m 1,1 v 14 h 14 v -14 h -14 z  m 10,2 h 1 l -.0176,1.9902 2.0176,.0098 v 1 h -2 v 2 l -.0176,1.9902 2.0176,.0098 v 1 h -2 v 2 h -1 v -2 h -2 v 1 h -2 v -2.625 c 0,-0.522203 0.0033826,-0.88079 -0.0214844,-1.07617 -0.0213145,-0.195382 -0.0603495,-0.339278 -0.117188,-0.431641 -0.0746004,-0.124334 -0.174848,-0.221567 -0.302734,-0.289062 -0.127886,-0.0710477 -0.27409,-0.105469 -0.4375,-0.105469 -0.397869,1e-07 -0.645693,0.153832 -0.873047,0.462891 -0.227354,0.305507 -0.248047,0.72992 -0.248047,1.27344 v 2.79102 h -2 v -8 h 2 v 3.05078 c 0.287744,-0.348135 0.50095,-0.602214 0.824219,-0.765625 0.323268,-0.166963 0.679548,-0.251953 1.07031,-0.251953 0.689166,0 1.21117,0.21203 1.56641,0.634766 0.358793,0.422736 0.539062,1.03735 0.539062,1.84375 v 1.48828 h 2 v -2 -2 h -2 v -1 h 2 v -2 z " class="ColorScheme-Text"/>
</svg>
