<svg width="16" version="1.1" xmlns="http://www.w3.org/2000/svg" height="16">
<defs id="defs3051">
<style type="text/css" id="current-color-scheme">
.ColorScheme-Text {
color:#4d4d4d;
}
</style>
</defs>
<path style="fill:currentColor;fill-opacity:1" d="M 1,1 V 15 H 15 V 1 Z m 10,2 h 1 L 11.9824,4.9902 14,5 V 6 H 12 V 8 L 11.9824,9.9902 14,10 v 1 h -2 v 2 H 11 V 11 H 9 v -1 h 2 V 8 6 H 9 V 5 h 2 z M 5.8223,4.5 c 0.3937,0 0.770609,0.042598 1.13281,0.126953 0.362204,0.084355 0.711065,0.209302 1.04492,0.375 v 1.39648 C 7.663022,6.178507 7.331494,6.016489 7.003936,5.914058 6.676378,5.811627 6.462208,5.761714 6.1,5.761714 5.451182,5.761714 4.97165,5.959742 4.6,6.357417 4.228347,6.755092 4,7.303004 4,8.001947 c 0,0.695932 0.228347,1.24295 0.6,1.64062 0.371653,0.397676 0.851182,0.595703 1.5,0.595703 0.362204,0 0.576374,-0.04991 0.903936,-0.152343 C 7.331494,9.983494 7.663022,9.821478 8,9.601551 v 1.39648 c -0.333857,0.165698 -0.682717,0.290645 -1.04492,0.375 -0.362204,0.08436 -0.739113,0.126953 -1.13281,0.126953 -1.1748,0 -2.10636,-0.312814 -2.79297,-0.939453 -0.686613,-0.629653 -1.0293,-1.48306 -1.0293,-2.55859 0,-1.07854 0.342684,-1.93 1.0293,-2.55664 C 3.715943,4.815649 4.6475,4.5 5.8223,4.5 Z" class="ColorScheme-Text"/>
</svg>
