<svg width="16" version="1.1" xmlns="http://www.w3.org/2000/svg" height="16">
<defs id="defs3051">
<style type="text/css" id="current-color-scheme">
.ColorScheme-Text {
color:#4d4d4d;
}
</style>
</defs>
<path style="fill:currentColor" d="M 1 1 L 1 15 L 15 15 L 15 1 L 1 1 z M 11.5 2.25 A 1.75 1.75 0 0 1 13.25 4 A 1.75 1.75 0 0 1 11.5 5.75 A 1.75 1.75 0 0 1 9.75 4 A 1.75 1.75 0 0 1 11.5 2.25 z M 7.25 5 A 3.75 3.75 0 0 1 11 8.75 A 3.75 3.75 0 0 1 7.25 12.5 A 3.75 3.75 0 0 1 3.5 8.75 A 3.75 3.75 0 0 1 7.25 5 z M 8.25 6 A 1.75 1.75 0 0 0 6.5 7.75 A 1.75 1.75 0 0 0 8.25 9.5 A 1.75 1.75 0 0 0 10 7.75 A 1.75 1.75 0 0 0 8.25 6 z " class="ColorScheme-Text"/>
</svg>
