<svg width="16" version="1.1" xmlns="http://www.w3.org/2000/svg" height="16">
<defs id="defs3051">
<style type="text/css" id="current-color-scheme">
.ColorScheme-Text {
color:#4d4d4d;
}
</style>
</defs>
<path style="fill:currentColor" d="m 1,1 v 14 h 14 v -14 h -14 z  m 7,1.5 a 5.5,5.5 0 0,1 5.5,5.5 5.5,5.5 0 0,1 -5.5,5.5 5.5,5.5 0 0,1 -5.5,-5.5 5.5,5.5 0 0,1 5.5,-5.5 z  m 0,1.5 a 4,4 0 0,0 -4,4 4,4 0 0,0 4,4 4,4 0 0,0 4,-4 4,4 0 0,0 -4,-4 z  m .4043,1.1289 c 0.550799,0.0063646 1.10612,0.107559 1.60938,0.289063 v 1.44727 c -1.38372,-0.898202 -3.13086,-0.588175 -3.13086,1.14453 0,2.09917 2.29194,1.78284 3.13086,1.14453 v 1.43555 c -2.57348,0.871026 -4.86914,-0.178952 -4.86914,-2.58008 0,-2.06772 1.60737,-2.89995 3.25977,-2.88086 z " class="ColorScheme-Text"/>
</svg>
