<svg width="16" version="1.1" xmlns="http://www.w3.org/2000/svg" height="16">
<defs id="defs3051">
<style type="text/css" id="current-color-scheme">
.ColorScheme-Text {
color:#4d4d4d;
}
</style>
</defs>
<path style="fill:currentColor" d="m 1,1 v 14 h 14 v -14 h -14 z  m 7,1.25 a 5.75,5.75 0 0,1 5.75,5.75 5.75,5.75 0 0,1 -5.75,5.75 5.75,5.75 0 0,1 -5.75,-5.75 5.75,5.75 0 0,1 5.75,-5.75 z  m -.2676,1.25 c -0.190335,-0.002116 -0.448826,0.137062 -0.830078,0.244141 -0.850453,0.235825 -1.1496,0.0784984 -0.927734,0.943359 l .1641,.6387 c -0.057904,0.051453 -0.139362,0.112609 -0.197266,0.164062 -0.241183,0.183208 -0.430153,0.424456 -0.597656,0.65625 l -.6426,-.166 c -0.866172,-0.224541 -0.732498,0.145464 -0.951172,0.886719 -0.268037,0.871667 -0.515912,1 0.361328,1.23438 l .6738,.1777 c 0.015268,0.287132 0.0846224,0.579168 0.208984,0.873047 l -.5527,.4492 c -0.710722,0.578266 -0.408037,0.627272 0.103516,1.25 0.553873,0.712286 0.525209,0.907535 1.21094,0.34961 l .5527,-.4492 c 0.400454,0.255926 0.895051,0.417874 1.37305,0.480469 l .1621,.666 c 0.22244,0.913747 0.491404,0.571578 1.25391,0.357421 0.850454,-0.235826 1.1496,-0.078478 0.927735,-0.943359 l -.1641,-.6387 c 0.057897,-0.05145 0.139366,-0.112612 0.197266,-0.164062 0.241183,-0.183207 0.430154,-0.424457 0.597656,-0.65625 l .6426,.166 c 0.830635,0.333671 0.732492,-0.145463 0.951172,-0.886719 0.268037,-0.871666 0.515912,-1 -0.361328,-1.23438 l -.6738,-.1777 c -0.015264,-0.287133 -0.084625,-0.579161 -0.208985,-0.873047 l .5527,-.4492 c 0.710722,-0.578265 0.408038,-0.627272 -0.103516,-1.25 -0.553874,-0.712284 -0.525209,-0.907535 -1.21094,-0.349609 l -.5527,.4492 c -0.400453,-0.255928 -0.895058,-0.417872 -1.37305,-0.480469 l -.1621,-.666 c -0.111216,-0.456874 -0.233493,-0.599442 -0.423828,-0.601562 z  m .1562,3.1406 c 0.378257,-0.001 0.755005,0.155521 1.01953,0.462891 0.447775,0.55605 0.375657,1.38863 -0.167969,1.86133 -0.55319,0.450091 -1.38129,0.376512 -1.85156,-0.169922 -0.470265,-0.54644 -0.373702,-1.38668 0.169922,-1.85938 0.242021,-0.196915 0.535877,-0.294922 0.830078,-0.294922 z " class="ColorScheme-Text"/>
</svg>
