<svg width="16" version="1.1" xmlns="http://www.w3.org/2000/svg" height="16">
<defs id="defs3051">
<style type="text/css" id="current-color-scheme">
.ColorScheme-Text {
color:#4d4d4d;
}
</style>
</defs>
<path style="fill:currentColor" d="m 1,1 v 14 h 14 v -14 h -14 z  m 4.3027,1.5 h 0.958984 v 1.34375 c 1.1501,0.092008 2.02095,0.31551 2.375,0.410156 v 1.50391 c -0.538642,-0.22623 -1.39008,-0.507882 -2.375,-0.556641 v 1.69922 l .1895,.0371 c 1.92093,0.302508 2.71875,0.948601 2.71875,2.42773 0,1.72256 -1.35532,2.25183 -2.9082,2.33984 v 1.79492 h -0.958984 l -.0059,-1.7832 c -1.06538,-0.042615 -1.98857,-0.250689 -2.78516,-0.544922 v -1.55273 c 0.749915,0.384739 1.67066,0.711002 2.79102,0.748047 v -1.84375 c -1.82051,-0.324448 -2.80273,-0.807376 -2.80273,-2.35156 0,-1.91223 1.76466,-2.26181 2.79688,-2.30273 l .0059,-1.3691 z  m 5.6973,1.5 h 2 v 8 h -2 v -8 z  m -5.6973,1.2188 c -0.561731,0.031647 -0.925781,0.325409 -0.925781,0.746094 0,0.548012 0.429719,0.743543 0.925781,0.800781 v -1.54688 z  m .959,3.4766 v 1.64648 c 0.434028,-0.005 1.03125,-0.111879 1.03125,-0.787109 0,-0.514437 -0.28016,-0.779472 -1.03125,-0.859375 z " class="ColorScheme-Text"/>
</svg>
