<svg width="16" version="1.1" xmlns="http://www.w3.org/2000/svg" height="16">
<defs id="defs3051">
<style type="text/css" id="current-color-scheme">
.ColorScheme-Text {
color:#4d4d4d;
}
</style>
</defs>
<path style="fill:currentColor" d="m 1,1 v 14 h 14 v -14 h -14 z  m 7,2 c 3.31371,0 6,1.94918 6,4.34375 0,2.39458 -2.68629,4.33398 -6,4.33398 -0.449599,0 -0.877474,-0.045525 -1.29883,-0.113281 l -2.416,2.3164 .5059,-2.8848 c -1.67469,-0.769204 -2.79102,-2.11222 -2.79102,-3.65234 0,-2.39457 2.68629,-4.34375 6,-4.34375 z  m -.0332,.8438 c -1.82575,0 -3.31641,1.49067 -3.31641,3.31641 0,1.82575 1.49067,3.32227 3.31641,3.32227 0.707313,0 1.36836,-0.232708 1.9082,-0.613281 l .6641,.6738 .8105,-.8086 -.6641,-.6738 c 0.380571,-0.539846 0.603515,-1.19308 0.603515,-1.90039 0,-1.82575 -1.49651,-3.31641 -3.32227,-3.31641 z  m 0,1.1426 c 1.2074,0 2.18164,0.966431 2.18164,2.17383 0,0.394083 -0.11032,0.764498 -0.291016,1.08203 l -1.082,-1.082 .6992,-.6914 -.8105,-.8086 -2.1973,2.1992 .8086,.8086 .6914,-.6992 1.082,1.084 c -0.317528,0.180695 -0.687951,0.28125 -1.08203,0.28125 -1.2074,0 -2.17383,-0.966435 -2.17383,-2.17383 0,-1.2074 0.966431,-2.17383 2.17383,-2.17383 z " class="ColorScheme-Text"/>
</svg>
