<svg width="16" version="1.1" xmlns="http://www.w3.org/2000/svg" height="16">
<path style="opacity:.24" d="M 15,1 V 15 H 1 v 1 H 16 V 1 Z"/>
<path style="fill:#ecf0f1" d="M 1,1 V 15 H 15 V 1 Z"/>
<path style="fill:#1793d1" d="m 8,1.7492 c 1.14442,2.68589 1.41618,3.52375 4.75378,9.73803 -0.422054,-0.253288 -0.971028,-0.478043 -1.72709,-0.674529 1.10012,0.564733 1.63876,1.07974 2.15485,1.48033 0.328296,0.608763 0.684042,1.24851 1.06914,1.95755 -1.95239,-1.12703 -3.47103,-1.82846 -4.88532,-2.10539 0.047016,-0.212796 0.076367,-0.452223 0.082346,-0.690836 0.0315238,-1.26862 -0.583486,-2.35188 -1.36428,-2.41792 -0.781606,-0.0663114 -1.44907,0.919119 -1.48032,2.18774 v 0.06577 c -0.00246,0.29813 0.037231,0.57479 0.098652,0.838949 -1.43005,0.269052 -2.97152,0.979183 -4.95107,2.12197 2.51902,-4.5263 3.76399,-6.88391 4.55649,-8.53705 0.414718,0.348679 0.979456,0.685128 1.79286,1.01995 -0.756603,-0.529131 -1.23247,-0.995758 -1.61213,-1.39825 0.619088,-1.3227 0.957168,-2.22252 1.51321,-3.58599"/>
</svg>
