<svg width="16" version="1.1" xmlns="http://www.w3.org/2000/svg" height="16">
<defs id="defs3051">
<style type="text/css" id="current-color-scheme">
.ColorScheme-Text {
color:#4d4d4d;
}
</style>
</defs>
<path style="fill:currentColor" d="m 1,1 v 14 h 14 v -14 h -14 z  m 7.002,3.8496 c 0.877136,0 1.5539,0.272442 2.03125,0.820312 0.477353,0.545159 0.716797,1.32308 0.716797,2.33203 0,1.00624 -0.239444,1.78416 -0.716797,2.33203 -0.477353,0.545159 -1.15411,0.816407 -2.03125,0.816407 -0.880119,0 -1.5578,-0.271248 -2.03516,-0.816407 -0.477353,-0.54787 -0.716797,-1.32579 -0.716797,-2.33203 0,-1.00895 0.239444,-1.78687 0.716797,-2.33203 0.477353,-0.547871 1.15504,-0.820312 2.03516,-0.820312 z  m 0,1.0703 c -0.369948,0 -0.632892,0.15489 -0.791016,0.466797 -0.158123,0.309194 -0.238281,0.844091 -0.238281,1.60352 0,0.767562 0.0801582,1.30843 0.238281,1.62305 0.158123,0.314619 0.421067,0.472656 0.791016,0.472657 0.366965,0 0.628986,-0.158038 0.787109,-0.472657 0.158123,-0.314619 0.238281,-0.855485 0.238281,-1.62305 0,-0.759425 -0.0801582,-1.29432 -0.238281,-1.60352 -0.15514,-0.311907 -0.417161,-0.466797 -0.787109,-0.466797 z " class="ColorScheme-Text"/>
</svg>
