<svg width="22" version="1.1" xmlns="http://www.w3.org/2000/svg" height="22">
<defs id="defs3051">
<style type="text/css" id="current-color-scheme">
.ColorScheme-Text {
color:#da4453;
}
</style>
</defs>
<path style="fill:currentColor;fill-opacity:1;stroke:none" id="path11066" d="m 11.2611,2.0039 c -5.07043,-0.147195 -9.2604,3.92348 -9.25968,8.99605 0,4.97037 4.0282,9 8.99856,9 4.97036,0 9,-4.02971 8.99856,-9 0,-4.86858 -3.87091,-8.85478 -8.73744,-8.99605 z  m -.2762,1.4638 c 0.57011,-0.00839 1.01506,0.27022 1.01506,1.03694 v 5.01148 c 0,1.41813 -2,1.41813 -2,0 v -5.01148 c 0,-0.731822 0.414826,-1.02855 0.984935,-1.03694 Z  m -2.8372,1.8479 c 1.0956,-0.0592491 1.50279,1.41393 0.532281,1.92575 -1.91379,1.05766 -2.37569,2.98417 -1.87052,4.77798 0.505176,1.7938 1.96051,3.27152 4.15531,3.27152 2.18682,0 3.6879,-1.41571 4.21306,-3.14849 0.525155,-1.73279 0.09587,-3.66688 -1.96844,-4.9236 -1.16517,-0.709664 -0.100609,-2.45715 1.06456,-1.74749 2.80164,1.7056 3.62305,4.75586 2.86227,7.26614 -0.76079,2.51028 -3.07992,4.5972 -6.17145,4.5972 -3.13913,0 -5.40695,-2.21518 -6.12374,-4.7604 -0.716794,-2.54522 0.0978705,-5.60221 2.84971,-7.12302 0.139514,-0.0805551 0.296086,-0.12701 0.456958,-0.135581 Z " class="ColorScheme-Text"/>
</svg>
