<svg width="22" version="1.1" xmlns="http://www.w3.org/2000/svg" height="22">
<defs id="defs3051">
<style type="text/css" id="current-color-scheme">
.ColorScheme-Text {
color:#da4453;
}
</style>
</defs>
<path style="fill:currentColor;fill-opacity:1;stroke:none" d="m 10.9805,2 c -0.740103,0 -0.980469,0.397724 -0.980469,1.34766 v 6.50391 c 0,1.5318 2,1.52356 2,0 v -6.50391 c 0,-0.995231 -0.254788,-1.34777 -1.01953,-1.34766 z  m 3.5156,2.125 a 1,1 0 0,0 -0.470703,1.88672 c 2.06544,1.11338 3.35093,3.26496 3.35156,5.61133 0,3.53359 -2.84327,6.37655 -6.37695,6.37695 -3.53368,0 -6.37662,-2.84336 -6.37695,-6.37695 0.0018751,-2.34516 1.28719,-4.49462 3.35156,-5.60742 a 1,1 0 1,0 -0.949219,-1.76172 c -2.70801,1.45975 -4.39988,4.29278 -4.40234,7.36914 0,4.61434 3.76256,8.37643 8.37695,8.37695 4.6144,0 8.37652,-3.76261 8.37695,-8.37695 0,-3.07795 -1.69294,-5.91254 -4.40234,-7.37305 a 1,1 0 0,0 -0.478515,-0.125 z " class="ColorScheme-Text"/>
</svg>
