<svg width="22" version="1.1" xmlns="http://www.w3.org/2000/svg" height="22" viewBox="0 0 22 22">
<defs id="defs3051">
<style type="text/css" id="current-color-scheme">
.ColorScheme-Text {
color:#da4453;
}
</style>
</defs>
<path style="fill:currentColor" d="m 6.0775,6.0776 .9835,.021 .0314,0 c 0.255045,0.011772 0.514014,0.129484 0.690583,0.313901 l 3.2172,3.2172 3.2483,-3.2169 c 0.266817,-0.231503 0.447308,-0.306056 0.690585,-0.313902 l .9833,-.0212 -.0209,.9836 c -0.0061,0.286371 -0.03531,0.553251 -0.251122,0.753364 l -3.2169,3.2169 3.1853,3.1853 c 0.188341,0.188341 0.302659,0.455918 0.282511,0.721974 l .021,.9835 -.9834,-.0211 c -0.266752,-0.0057 -0.533628,-0.09417 -0.721969,-0.282512 l -3.2167,-3.2167 -3.217,3.217 c -0.188341,0.188341 -0.455919,0.302658 -0.721972,0.282511 l -.9836,.0209 .0212,-.9833 c 0,-0.266817 0.094169,-0.533633 0.28251,-0.721974 l 3.217,-3.1856 -3.2172,-3.2172 c -0.211882,-0.196186 -0.306053,-0.47085 -0.282509,-0.753361 Z " class="ColorScheme-Text"/>
</svg>
