<svg width="22" version="1.1" xmlns="http://www.w3.org/2000/svg" height="22">
<defs id="defs3051">
<style type="text/css" id="current-color-scheme">
.ColorScheme-Text {
color:#4d4d4d;
}
</style>
</defs>
<path style="fill:currentColor" d="m 11,3 a 1,1 0 0,0 -1,1 1,1 0 0,0 0.009766,0.128906 4,4 0 0,0 -3.00977,3.87109 c 0,2.99999 -1,4 -3,6 v 1 h 14 v -1 c -2,-2 -3,-3 -3,-6 a 4,4 0 0,0 -3.00977,-3.87109 1,1 0 0,0 0.009766,-0.128906 1,1 0 0,0 -1,-1 z  m 0,2 a 3,3 0 0,1 3,3 c 0,2.99999 0.585941,4 2.58594,6 h -11.1719 c 2,-2 2.58594,-3 2.58594,-6 a 3,3 0 0,1 3,-3 z  m -1.7305,11 a 2,2 0 0,0 -0.269531,1 2,2 0 0,0 2,2 2,2 0 0,0 2,-2 2,2 0 0,0 -0.271484,-1 h -3.45898 z " class="ColorScheme-Text"/>
</svg>
