<svg width="22" version="1.1" xmlns="http://www.w3.org/2000/svg" height="22">
<defs id="defs3051">
<style type="text/css" id="current-color-scheme">
.ColorScheme-Text {
color:#4d4d4d;
}
</style>
</defs>
<path style="fill:#da4453" d="M 3,3.707031 18.292969,19 19,18.292969 3.7070312,3 Z"/>
<path style="fill:currentColor" d="m 11,3 a 1,1 0 0,0 -1,1 1,1 0 0,0 0.009766,0.128906 4,4 0 0,0 -2.24023,1.51953 l .7168,.7168 a 3,3 0 0,1 2.51367,-1.36523 3,3 0 0,1 3,3 c 0,3 0.58594,4 2.58594,6 h -0.464844 l 1,1 h 0.878906 v -1 c -2,-2 -3,-3 -3,-6 a 4,4 0 0,0 -3.00977,-3.87109 1,1 0 0,0 0.009766,-0.128906 1,1 0 0,0 -1,-1 z  m -4.0527,6.0684 c -0.225362,2.20472 -1.20614,3.19051 -2.94727,4.93164 v 1 h 8.87891 l -1,-1 h -6.46484 c 1.47964,-1.47964 2.18218,-2.41586 2.44922,-4.01562 l -.916,-.916 z  m 2.3223,6.9316 a 2,2 0 0,0 -0.269531,1 2,2 0 0,0 2,2 2,2 0 0,0 2,-2 2,2 0 0,0 -0.271484,-1 h -3.45898 z " class="ColorScheme-Text"/>
</svg>
