<svg xmlns="http://www.w3.org/2000/svg" viewBox="0 0 22 22">
  <defs id="defs3051">
    <style type="text/css" id="current-color-scheme">
      .ColorScheme-Text {
        color:#4d4d4d;
      }
      </style>
  </defs>
 <path
     style="fill:currentColor;fill-opacity:1;stroke:none" d="m 16.294297,3 -3.291357,3.293 -0.206944,0.207 0.206944,0.207 3.291357,3.293 0.70668,-0.707 -2.291855,-2.293 h 4.290875 v -1 h -4.290875 l 2.291856,-2.293 z m -8.2967385,3 c -1.6611889,0 -2.998536,1.338 -2.998536,3 C 5,10.662 6.3363696,12 7.9975585,12 c 1.661189,0 2.9985365,-1.338 2.9985365,-3 0,-1.662 -1.3373475,-3 -2.9985365,-3 z m 0,7 c -2.7686682,0 -4.997555,2.23 -4.997555,5 v 1 h 9.9951255 v -1 c 0,-2.77 -2.228902,-5 -4.9975705,-5 z m 0,1 c 2.2149295,0 3.9980535,1.784 3.9980535,4 H 4 c 0,-2.216 1.7831094,-4 3.998038,-4 z"
     class="ColorScheme-Text"
     />
</svg>
