<svg version="1.1" xmlns="http://www.w3.org/2000/svg" viewBox="0 0 22 22">
<defs id="defs3051">
<style type="text/css" id="current-color-scheme">
.ColorScheme-Text {
color:#4d4d4d;
}
</style>
</defs>
<path style="fill:currentColor;fill-opacity:1;stroke:none" id="path4" d="m 11,3 c -4.40942,0 -8,3.59058 -8,8 0,4.40942 3.59058,8 8,8 4.40942,0 8,-3.59058 8,-8 0,-4.40942 -3.59058,-8 -8,-8 z m 0,1.5 c 3.59876,0 6.5,2.90124 6.5,6.5 0,3.59876 -2.90124,6.5 -6.5,6.5 C 7.40124,17.5 4.5,14.59876 4.5,11 4.5,7.40124 7.40124,4.5 11,4.5 Z M 11,7 c -1.75,1e-7 -3,1.25 -3,3 H 7 v 4 h 8 V 10 H 14 C 14,8.25 12.75,7 11,7 Z m 0,1 c 1.25,2e-7 2,0.75 2,2 H 9 C 9,8.75 9.75,8 11,8 Z" class="ColorScheme-Text"/>
</svg>
