<svg width="22" version="1.1" xmlns="http://www.w3.org/2000/svg" height="22">
<defs id="defs3051">
<style type="text/css" id="current-color-scheme">
.ColorScheme-Text {
color:#4d4d4d;
}
</style>
</defs>
<path style="fill:currentColor;fill-opacity:1;stroke:none" d="m 10.9844,2 c -0.575562,0.0108676 -0.984375,0.35102 -0.984375,1.29883 v 6.59766 c 0,1.4611 2,1.4818 2,0 v -6.59766 c 0,-0.992994 -0.440082,-1.30966 -1.01562,-1.29883 z  m 3.7793,3.2656 a 0.771417,0.771417 0 0,0 -0.382813,1.44336 c 1.85554,1.16242 2.98104,3.19324 2.98438,5.38281 0,3.52458 -2.84066,6.36755 -6.36523,6.36719 -3.52458,0 -6.36559,-2.84261 -6.36523,-6.36719 0.00181,-2.19114 1.1275,-4.22541 2.98438,-5.38867 a 0.771417,0.771417 0 0,0 -0.400391,-1.42773 0.771417,0.771417 0 0,0 -0.417969,0.123047 c -2.30497,1.44398 -3.70672,3.97345 -3.70898,6.69336 0,4.35838 3.54983,7.90865 7.9082,7.9082 4.35838,0 7.90865,-3.54984 7.9082,-7.9082 a 0.771417,0.771417 0 0,0 0,-0.001953 c -0.004115,-2.71794 -1.40565,-5.24457 -3.70898,-6.6875 a 0.771417,0.771417 0 0,0 -0.435547,-0.136719 z " class="ColorScheme-Text"/>
</svg>
