<svg width="22" version="1.1" xmlns="http://www.w3.org/2000/svg" height="22" viewBox="0 0 22 22">
<defs id="defs3051">
<style type="text/css" id="current-color-scheme">
.ColorScheme-Text {
color:#4d4d4d;
}
</style>
</defs>
<path style="fill:currentColor;fill-opacity:1;stroke:none" id="path4490" d="m 11,2.0002 c -1.10878,0 -2.0545,0.390455 -2.83398,1.16992 -0.779483,0.779483 -1.16797,1.72131 -1.16797,2.83008 h 8.00391 c 0,-1.10876 -0.388485,-2.0506 -1.16797,-2.83008 -0.779468,-0.779469 -1.72521,-1.16992 -2.83398,-1.16992 Z  m 7.207,3.2246 c -0.182127,-0.00161 -0.364297,0.067423 -0.511719,0.214844 l -1.9473,1.9473 h -9.49609 l -1.9473,-1.9473 c -0.260372,-0.260359 -0.72967,-0.273088 -1.01172,0 -0.282023,0.273113 -0.294842,0.71883 0,1.01367 l 1.9473,1.9453 v 3.30664 h -2.51953 c -0.366213,0 -0.711703,0.333571 -0.720703,0.720703 -0.00869,0.387131 0.312447,0.720703 0.720703,0.720703 h 2.51953 c 0,1.19999 0.217344,2.22704 0.652344,3.08203 l -2.2734,2.5527 c -0.254856,0.286317 -0.229228,0.749732 0.058594,1.02539 0.287822,0.275711 0.743781,0.255514 1.02148,-0.05859 l 2.0586,-2.3262 c 0.843396,0.765417 2.49926,1.48642 4.10156,1.50391 1.60231,0.0174 3.23316,-0.490326 4.24609,-1.36914 l 2.2285,2.2148 c 0.260256,0.258932 0.733655,0.273049 1.01172,0 0.278037,-0.273062 0.294135,-0.716169 0,-1.01172 l -2.3379,-2.3496 c 0.5025,-0.892498 0.751954,-1.98119 0.751954,-3.26367 h 2.51953 c 0.366212,-6e-06 0.711703,-0.333576 0.720703,-0.720707 0.0087,-0.387132 -0.312448,-0.720703 -0.720703,-0.720703 h -2.51953 v -3.30664 l 1.9473,-1.9453 c 0.260372,-0.260372 0.2731,-0.731623 0,-1.01367 -0.136557,-0.141012 -0.317874,-0.213242 -0.5,-0.214844 z " class="ColorScheme-Text"/>
</svg>
