<svg width="16" version="1.1" xmlns="http://www.w3.org/2000/svg" height="16">
<defs id="defs3051">
<style type="text/css" id="current-color-scheme">
.ColorScheme-Text {
color:#4d4d4d;
}
</style>
</defs>
<path style="fill:currentColor;fill-opacity:1;stroke:none" id="path2" d="M 6,1 V 7.0625 C 5.8355341,7.0281312 5.6680171,7.0104634 5.5,7.0097656 4.1219579,7.0102401 3.0052552,8.1278174 3.0058594,9.5058594 3.0063337,10.883139 4.1227207,12 5.5,12 6.8666679,11.998535 7.9778095,10.897843 7.9921875,9.53125 L 8,4 h 3 z m 7,0 c -0.552285,0 -1,0.4477153 -1,1 v 12.5 c 0,0.661796 1,0.661796 1,0 V 13 h 2 V 10 H 13 V 9 h 2 V 6 H 13 V 3 h 1 c 1.333333,0 1.333333,-2 0,-2 z M 1,4 v 11 h 8 v -2 h 2 V 12 H 8 v 2 H 2 V 5 H 5 V 4 Z m 12,3 h 1 v 1 h -1 z m 0,4 h 1 v 1 h -1 z" class="ColorScheme-Text"/>
</svg>
