<svg width="16" version="1.1" xmlns="http://www.w3.org/2000/svg" height="16" viewBox="0 0 16 16">
<defs id="defs3051">
<style type="text/css" id="current-color-scheme">
.ColorScheme-Text {
color:#4d4d4d;
}
</style>
</defs>
<path style="fill:currentColor" d="m 1.0762,0 c -0.59683,0 -1.07617,0.479344 -1.07617,1.07617 v 11.8477 c 0,0.594726 0.481447,1.07617 1.07617,1.07617 h 0.925781 c -0.0017561,-0.02516 -0.0019531,-0.050562 -0.0019531,-0.076172 v -11.8477 c 0,-0.596828 0.479344,-1.07617 1.07617,-1.07617 h 10.9219 c -0.038743,-0.560924 -0.503008,-1 -1.07422,-1 h -11.8477 z  m 3,2 c -0.59683,0 -1.07617,0.479344 -1.07617,1.07617 v 11.8477 c 0,0.594726 0.481447,1.07617 1.07617,1.07617 h 10.8477 c 0.594726,0 1.07617,-0.481448 1.07617,-1.07617 v -11.8477 c 0,-0.59683 -0.479345,-1.07617 -1.07617,-1.07617 h -10.8477 z  m 5.6777,1.5 c 1.84125,0 3.45888,0.831058 4.39648,2.08594 l -3.4258,1.7441 c -0.239773,-0.23337 -0.583427,-0.384766 -0.970703,-0.384766 -0.725156,0 -1.31445,0.515882 -1.31445,1.15039 0,0.63451 0.5893,1.14844 1.31445,1.14844 0.38348,0 0.723398,-0.147559 0.962891,-0.376953 l 3.4336,1.7383 c -0.937619,1.25488 -2.55525,2.08398 -4.39648,2.08398 -2.90061,0 -5.25391,-2.0557 -5.25391,-4.59375 0,-2.53804 2.35329,-4.5957 5.25391,-4.5957 z  m 5.0156,2.6367 c 0.77525,1.17492 0.77525,2.62195 0,3.79688 l -2.8184,-1.4258 c 0.195655,-0.295933 0.195591,-0.653372 0,-0.949219 l 2.8184,-1.4219 z  m -9.7695,7.8633 h 9 c 0.5,0 1,0 1,0.5 0,0.5 -0.5,0.5 -1,0.5 h -9 c -0.5,0 -1,0 -1,-0.5 0,-0.5 0.5,-0.5 1,-0.5 z " class="ColorScheme-Text"/>
</svg>
