<svg width="16" version="1.1" xmlns="http://www.w3.org/2000/svg" viewBox="0 0 16 16" height="16">
<defs id="defs3051">
<style type="text/css" id="current-color-scheme">
.ColorScheme-Text {
color:#4d4d4d;
}
</style>
</defs>
<path style="fill:currentColor;fill-opacity:1;stroke:none" d="m 8,2 a 6,6 0 0,0 -6,6 6,6 0 0,0 6,6 6,6 0 0,0 6,-6 6,6 0 0,0 -6,-6 z  m 0,1 a 5,5 0 0,1 5,5 5,5 0 0,1 -5,5 5,5 0 0,1 -5,-5 5,5 0 0,1 5,-5 z  m 0,3 a 2,2 0 0,0 -2,2 2,2 0 0,0 2,2 2,2 0 0,0 2,-2 2,2 0 0,0 -2,-2 z  m 0,1 a 1,1 0 0,1 1,1 1,1 0 0,1 -1,1 1,1 0 0,1 -1,-1 1,1 0 0,1 1,-1 z " class="ColorScheme-Text"/>
</svg>
