<svg width="16" version="1.1" xmlns="http://www.w3.org/2000/svg" height="16" viewBox="0 0 16 16">
<defs id="defs3051">
<style type="text/css" id="current-color-scheme">
.ColorScheme-Text {
color:#4d4d4d;
}
</style>
</defs>
<path style="fill:currentColor" d="M 2.0761719 1 C 1.4793419 1 1 1.4793439 1 2.0761719 L 1 13.923828 C 1 14.518554 1.4814469 15 2.0761719 15 L 13.923828 15 C 14.518554 15 15 14.518552 15 13.923828 L 15 2.0761719 C 15 1.4793419 14.520655 1 13.923828 1 L 2.0761719 1 z M 8 2.5 A 4.5 4.5 0 0 1 12.5 7 A 4.5 4.5 0 0 1 8 11.5 A 4.5 4.5 0 0 1 3.5 7 A 4.5 4.5 0 0 1 8 2.5 z M 8 5.5 A 1.5 1.5 0 0 0 6.5 7 A 1.5 1.5 0 0 0 8 8.5 A 1.5 1.5 0 0 0 9.5 7 A 1.5 1.5 0 0 0 8 5.5 z M 3 13 L 13 13 C 13.5 13 14 13 14 13.5 C 14 14 13.5 14 13 14 L 3 14 C 2.5 14 2 14 2 13.5 C 2 13 2.5 13 3 13 z " class="ColorScheme-Text"/>
</svg>
