<svg xmlns="http://www.w3.org/2000/svg" viewBox="0 0 16 16">
  <defs id="defs3051">
    <style type="text/css" id="current-color-scheme">
      .ColorScheme-Text {
        color:#4d4d4d;
      }
      </style>
  </defs>
<path  style="fill:currentColor;fill-opacity:1;stroke:none" d="m 2,2 v 12 h 1 4 v -2 h -1 v -1 h -3 v -1 -7 h 10 v 3 h 1 v -4 h -12 z  m 2,2 v 6 h 4 v -1 h -3 v -4 h 1 v 2 h 2 v -1 h 2 v -1 h 1 v 1 h 1 v -2 h -8 z  m 8,3 c -2,0.0091784 -3,0.500781 -3,2.30078 v 1.69922 h -1 v 5 h 8 v -5 h -1 v -1.69922 c 0,-1.8 -1,-2.30996 -3,-2.30078 z  m 0,1 c 1,0 2,0 2,1.30078 v 1.69922 h -4 v -1.69922 c 0,-1.3 1,-1.30078 2,-1.30078 z  m -9,4 h 2 v 1 h -2 v -1 z " class="ColorScheme-Text"/>
</svg>
