<svg width="16" version="1.1" xmlns="http://www.w3.org/2000/svg" height="16" viewBox="0 0 16 16">
<defs id="defs3051">
<style type="text/css" id="current-color-scheme">
.ColorScheme-Text {
color:#4d4d4d;
}
</style>
</defs>
<path style="fill:currentColor" d="M 2.0761719 1 C 1.4793419 1 1 1.4793439 1 2.0761719 L 1 13.923828 C 1 14.518554 1.4814469 15 2.0761719 15 L 7 15 L 7 14 L 3 14 C 2.5 14 2 14 2 13.5 C 2 13 2.5 13 3 13 L 7 13 L 7 11.386719 A 4.5 4.5 0 0 1 3.5 7 A 4.5 4.5 0 0 1 8 2.5 A 4.5 4.5 0 0 1 12.5 7 L 15 7 L 15 2.0761719 C 15 1.4793419 14.520655 1 13.923828 1 L 2.0761719 1 z M 8 5.5 A 1.5 1.5 0 0 0 6.5 7 A 1.5 1.5 0 0 0 8 8.5 A 1.5 1.5 0 0 0 9.5 7 A 1.5 1.5 0 0 0 8 5.5 z M 12 8 C 10 8.0092 9 8.7816412 9 10.300781 L 9 11 L 8 11 L 8 16 L 16 16 L 16 11 L 15 11 L 15 10.300781 C 15 8.7546875 14 7.99082 12 8 z M 12 9 C 13 9 14 9.2503912 14 10.300781 L 14 11 L 10 11 L 10 10.300781 C 10 9.2503912 11 9 12 9 z " class="ColorScheme-Text"/>
</svg>
