<svg width="16" version="1.1" xmlns="http://www.w3.org/2000/svg" height="16">
<defs id="defs3051">
<style type="text/css" id="current-color-scheme">
.ColorScheme-Text {
color:#4d4d4d;
}
</style>
</defs>
<path style="fill:currentColor" d="M 2.5,0 C 1.115,0 0,1.115 0,2.5 v 11 C 0,14.885 1.115,16 2.5,16 h 11 C 14.885,16 16,14.885 16,13.5 V 2.5 C 16,1.115 14.885,0 13.5,0 Z m 6,1 2.5,3 H 9 v 4.11719 c 0.151585,0 2.226281,0.093764 2.57812,-0.308594 0.438488,-0.5014493 0.180413,-1.09854 -0.578125,-1.09375 v -1.73047 h 3 v 1.73047 C 13.29,6.680902 13.043928,7.0798477 12.947265,7.599612 12.612095,9.401844 10.725445,9.37945 9,9.348 v 2.183252 c 0.863837,0.186322 1.46102,0.793088 1.46094,1.48438 0,0.85112 -0.895556,1.54102 -2,1.54102 -1.10444,0 -2,-0.689896 -2,-1.54102 0.00199,-0.712561 0.637567,-1.33118 1.53711,-1.49609 0.00125,-0.02907 0.00248,-0.06018 0.00195,-0.09766 -0.00559,-0.391007 -0.137131,-0.245918 -1.3457,-0.875 -1.84528,-0.9605 -2.48252,-1.29204 -2.69922,-2.25586 C 3.8972434,8.033796 3.8750764,7.894021 3.8496091,7.804698 3.5381361,7.659665 3.2854331,7.442286 3.1230471,7.179698 2.9775741,6.986452 2.9128821,6.76141 2.9238281,6.533214 2.9223681,6.522159 2.9210681,6.51109 2.9199181,6.5 c 0,-0.828729 0.816008,-1.50043 1.82227,-1.5 1.00549,0 1.82031,0.671899 1.82031,1.5 -0.00206,0.773245 -0.617503,1.41849 -1.55234,1.49023 0.049979,0.447349 0.1988573,0.6330458 0.433203,0.822266 0.336218,0.271476 2.336605,1.4043 2.556645,1.4043 V 4 h -2 l 2.5,-3 z" class="ColorScheme-Text"/>
</svg>
