<svg width="16" version="1.1" xmlns="http://www.w3.org/2000/svg" viewBox="0 0 16 16" height="16">
<defs id="defs3051">
<style type="text/css" id="current-color-scheme">
.ColorScheme-Text {
color:#4d4d4d;
}
</style>
</defs>
<path style="fill:currentColor" d="M 2,1 V 15 H 7 V 13 H 6 V 12 H 3 V 2 h 10 v 4 h 1 V 1 Z m 2,2 v 8 H 7 V 10 H 5 V 4 h 1 v 2 h 4 V 4 h 1 v 2 h 1 V 3 Z m 8,4 C 10,7.0091784 9,7.500781 9,9.30078 V 11 H 8 v 5 h 8 V 11 H 15 V 9.30078 C 15,7.50078 14,6.99082 12,7 Z m 0,1 c 1,0 2,0 2,1.30078 V 11 H 10 V 9.30078 C 10,8.00078 11,8 12,8 Z m -9,5 h 2 v 1 H 3 Z" class="ColorScheme-Text"/>
</svg>
