<svg width="48" version="1.1" xmlns="http://www.w3.org/2000/svg" height="48" xmlns:xlink="http://www.w3.org/1999/xlink">
<defs>
<linearGradient xlink:href="#linearGradient9168" id="linearGradient12" y1="39.168533" x1="16.018969" y2="39.168533" x2="32.080532" gradientUnits="userSpaceOnUse"/>
<linearGradient xlink:href="#linearGradient10" id="linearGradient8" y1="18.115" x1="10.04155" y2="18.115" x2="37.958351" gradientUnits="userSpaceOnUse"/>
<linearGradient id="linearGradient10">
<stop offset="0" style="stop-color:#e8a945"/>
<stop offset="1" style="stop-color:#bf7f17"/>
</linearGradient>
<linearGradient id="linearGradient9168">
<stop offset="0" style="stop-color:#ebebeb"/>
<stop offset="0.49" style="stop-color:#ebebeb"/>
<stop offset="0.51" style="stop-color:#c7c7c7"/>
<stop offset="1" style="stop-color:#c7c7c7"/>
</linearGradient>
</defs>
<path style="fill:#5a5a5a" d="m 16.5951,32.1125 c -0.321838,0 -0.577033,0.254696 -0.577033,0.577032 v 14.634 c 0,0.322336 0.255195,0.577033 0.577033,0.577033 h 14.9369 c 0.726326,0 1.17663,-0.458729 1.17663,-1.17656 v -14.0345 c 0,-0.322336 -0.255195,-0.577032 -0.577032,-0.577032 z  m 2.097,7.7005 h 3.9418 v 3.9417 h -3.9418 z  m 7.93,0 h 3.9418 v 3.9417 h -3.9418 z "/>
<path style="fill:#64430e" d="m 18,38.8 h 12 v 6.11486 H 18 Z"/>
<rect width="12.309719" x="17.845297" y="-46.683613" height="13.335554" style="opacity:.715;fill:none" transform="scale(1,-1)"/>
<path style="fill:url(#linearGradient12)" d="m 16.596,31.2745 c -0.321837,0 -0.577032,0.254696 -0.577032,0.577032 v 14.634 c 0,0.322336 0.255195,0.577033 0.577032,0.577033 h 14.9075 c 0.321837,0 0.577032,-0.254697 0.577032,-0.577033 v -14.634 c 0,-0.322336 -0.255195,-0.577032 -0.577032,-0.577032 z M 18,41 h 4 v 4 h -4 z m 8,0 h 4 v 4 h -4 z"/>
<path style="fill:#69470f" d="m 11.7085,0 c -0.925609,0 -1.666947,0.745428 -1.66695,1.66695 l 0,34.795525 c 0,0.921529 0.741348,1.66695 1.66695,1.66695 h 24.5835 c 1.357812,0 2.266646,-0.887751 2.26665,-2.2669 L 38.55865,1.967 C 38.558654,0.63869034 37.817301,0 36.8917,0 Z"/>
<path style="fill:url(#linearGradient8)" d="m 11.7085,0 c -0.925609,0 -1.666947,0.745428 -1.66695,1.66695 l 0,33.995625 c 0,0.921529 0.741348,1.66695 1.66695,1.66695 h 24.5829 c 0.925609,0 1.666947,-0.745428 1.66695,-1.66695 l 0,-33.995625 C 37.958353,0.74542 37.217002,0 36.2914,0 Z"/>
<g transform="matrix(1.3412151,0,0,1,-7.1890953,-0.6362499)">
<path style="opacity:.35" d="m 24.0282,1.1363 3.5219,5.5616 h -0.6304 l -1.9548,-1 v 12.8285 c 0.271249,0 2.93332,-2.52659 3.82818,-3.66528 0.386632,-0.491974 0.61088,-1.17349 0.61088,-1.83264 0,-0.994156 0.361191,-1.22176 -0.447977,-1.22176 h -0.895957 v -4.64308 h 4.88703 v 4.64268 h -0.77378 c -0.705099,0.07735 -1.21082,0.445213 -1.34393,1.54756 -0.198521,1.64401 -0.940909,2.72318 -3.706,5.33501 l -2.1584,2.1584 v 7.81925 l .6109,.3258 c 0.434631,0.19662 1.08129,0.829141 1.34393,1.42538 1.33165,3.02311 -0.424498,4.676 -2.85077,4.676 -1.7582,-0.06032 -3.01367,-0.907927 -3.01367,-2.56569 0,-1.95001 0.659665,-2.85485 1.50684,-3.5357 0.68011,-0.307668 0.823442,-0.517381 0.814504,-1.50684 -0.01,-1.09344 -0.158695,-0.969381 -2.32134,-2.72859 -3.30198,-2.68601 -3.72549,-3.33205 -4.11325,-6.02734 -0.285988,-1.98783 -0.07497,-1.51597 -0.895956,-2.28062 -1.51106,-1.40738 -1.26941,-3.51127 0.529428,-4.39833 1.62051,-0.799126 3.56198,0.05396 4.15398,1.83264 0.291775,0.876652 -0.445387,2.40751 -1.38466,2.93222 -0.859529,0.48017 -1.21469,-0.303897 -1.01813,1.46611 0.108796,0.979651 0.395652,2.08689 0.610879,2.48424 0.369649,0.682437 4.00459,3.90963 4.39833,3.90963 v -18.978 l -2.0359,1 h -0.63 c 0.92812,-1.50915 2.4591,-4.04345 3.35816,-5.56168 z "/>
<path style="fill:#fff" d="m 24.0282,2.1364 2.8915,4.5612 h -1.9548 v 12.8285 c 0.271249,0 2.93332,-2.52659 3.82818,-3.66528 0.386632,-0.491974 0.61088,-1.17349 0.61088,-1.83264 0,-0.994156 0.361191,-1.22176 -0.447977,-1.22176 h -0.895957 v -4.8425 h 4.88703 v 4.8425 h -0.77378 c -0.705099,0.07735 -1.21082,0.445213 -1.34393,1.54756 -0.198521,1.64401 -0.940909,2.72318 -3.706,5.33501 l -2.1584,2.1584 v 7.81925 l .6109,.3258 c 0.434631,0.19662 1.04696,0.845476 1.34393,1.42538 1.0584,2.06673 -0.424498,4.27616 -2.85077,4.27616 -1.7582,-0.06032 -3.01367,-0.907927 -3.01367,-2.56569 0,-1.95001 0.659665,-2.455 1.50684,-3.13585 0.68011,-0.307668 0.823442,-0.517381 0.814504,-1.50684 -0.01,-1.09344 -0.158695,-0.969381 -2.32134,-2.72859 -3.30198,-2.68601 -3.72549,-3.33205 -4.11325,-6.02734 -0.285988,-1.98783 -0.07497,-1.51597 -0.895956,-2.28062 -1.51106,-1.40738 -1.26941,-3.51127 0.529428,-4.39833 1.62051,-0.799126 3.56198,0.05396 4.15398,1.83264 0.291775,0.876652 -0.445387,2.40751 -1.38466,2.93222 -0.859529,0.48017 -1.21469,-0.303897 -1.01813,1.46611 0.108796,0.979651 0.395652,2.08689 0.610879,2.48424 0.369649,0.682437 4.00459,3.90963 4.39833,3.90963 v -18.978 h -2.03627 c 0.92812,-1.50915 1.82954,-3.043 2.7286,-4.56123 z "/>
</g>
</svg>
