<svg width="16" version="1.1" xmlns="http://www.w3.org/2000/svg" height="16" viewBox="0 0 16 16">
<defs id="defs3051">
<style type="text/css" id="current-color-scheme">
.ColorScheme-Text {
color:#4d4d4d;
}
</style>
</defs>
<path style="fill:currentColor" d="m 1.0762,0 c -0.59683,0 -1.07617,0.479346 -1.07617,1.07617 v 11.8477 c 0,0.594726 0.481449,1.07617 1.07617,1.07617 h 0.925781 c -0.00176,-0.02516 -0.0019531,-0.050562 -0.0019531,-0.076172 v -11.8477 c 0,-0.596828 0.479346,-1.07617 1.07617,-1.07617 h 10.9219 c -0.03874,-0.560924 -0.503007,-1 -1.07422,-1 h -11.8477 z  m 3,2 c -0.59683,0 -1.07617,0.479346 -1.07617,1.07617 v 11.8477 c 0,0.594726 0.481449,1.07617 1.07617,1.07617 h 10.8477 c 0.594726,0 1.07617,-0.48145 1.07617,-1.07617 v -11.8477 c 0,-0.59683 -0.479347,-1.07617 -1.07617,-1.07617 h -10.8477 z  m 5.5215,1.5 a 4.5,4.5 0 0,1 4.5,4.5 4.5,4.5 0 0,1 -4.5,4.5 4.5,4.5 0 0,1 -4.5,-4.5 4.5,4.5 0 0,1 4.5,-4.5 z  m 0,3 a 1.5,1.5 0 0,0 -1.5,1.5 1.5,1.5 0 0,0 1.5,1.5 1.5,1.5 0 0,0 1.5,-1.5 1.5,1.5 0 0,0 -1.5,-1.5 z  m -4.5977,7.5 h 9 c 0.5,0 1,0 1,0.5 0,0.5 -0.5,0.5 -1,0.5 h -9 c -0.5,0 -1,0 -1,-0.5 0,-0.5 0.5,-0.5 1,-0.5 z " class="ColorScheme-Text"/>
</svg>
