<svg width="16" version="1.1" xmlns="http://www.w3.org/2000/svg" viewBox="0 0 16 16" height="16">
<defs id="defs3051">
<style type="text/css" id="current-color-scheme">
.ColorScheme-Text {
color:#4d4d4d;
}
</style>
</defs>
<path style="fill:currentColor" d="M 0,0 V 12 H 1 3 V 11 H 1 V 10 H 3 V 9 H 1 V 1 h 10 v 2 h 1 V 0 Z M 2,2 V 8 H 3 V 3 h 7 V 2 Z M 4,4 V 16 H 16 V 4 Z m 1,1 h 10 v 8 h -5 v 1 H 8 V 13 H 5 Z m 1,1 v 6 h 8 V 6 Z m 1,1 h 1 v 2 h 4 V 7 h 1 v 4 H 7 Z m -2,7 h 2 v 1 H 5 Z m 6,0 h 3 v 1 h -3 z" class="ColorScheme-Text"/>
</svg>
