<svg width="16" version="1.1" xmlns="http://www.w3.org/2000/svg" height="16">
<defs id="defs3051">
<style type="text/css" id="current-color-scheme">
.ColorScheme-Text {
color:#4d4d4d;
}
</style>
</defs>
<path style="fill:currentColor;fill-opacity:1;stroke:none" id="path2" d="m 8.0605,.0098 c -0.453296,0.0492719 -0.88156,0.220391 -1.24805,0.5 -0.488,0.37 -0.8125,0.952547 -0.8125,1.68555 0.0066646,0.274506 0.225613,0.497332 0.5,0.507812 0.274387,-0.0104801 0.493335,-0.233307 0.5,-0.507812 0,-0.45 0.1725,-0.70325 0.4375,-0.90625 0.266,-0.202 0.6635,-0.299297 1.0625,-0.279297 0.399,0.018 0.7845,0.152297 1.0625,0.404297 0.279,0.253 0.46875,0.585 0.46875,1.125 0,2.166 1.463,3.5107 3,3.4707 0.856,-0.023 1.687,-0.479453 2.25,-1.31445 l -.5625,-1 c -0.376,0.915 -1.06775,1.2955 -1.71875,1.3125 -0.96,0.025 -1.96875,-0.72975 -1.96875,-2.46875 0,-0.792 -0.3375,-1.443 -0.8125,-1.875 -0.476,-0.429 -1.08145,-0.626297 -1.68945,-0.654297 -0.150371,-0.00697083 -0.315315,-0.0157263 -0.466797,0 h -0.0019531 z  m -3.0605,4 c -1.108,0 -2,0.891 -2,2 v 2 h 3 v -4 h -1 z  m 2,0 v 4 h 3 v -2 c 0,-1.109 -0.892,-2 -2,-2 h -1 z  m -4,5 v 2.25 c 0,2.215 1.56,3.75 3.5,3.75 1.939,0 3.5,-1.535 3.5,-3.75 v -2.25 h -4 -3 z " class="ColorScheme-Text"/>
</svg>
