<svg width="16" version="1.1" xmlns="http://www.w3.org/2000/svg" viewBox="0 0 16 16" height="16">
<defs id="defs3051">
<style type="text/css" id="current-color-scheme">
.ColorScheme-Text {
color:#4d4d4d;
}
</style>
</defs>
<path style="fill:currentColor;fill-opacity:1;stroke:none" d="M 8,2 C 4.68629,2 2,4.68629 2,8 c 0,3.31371 2.68629,6 6,6 V 13 C 5.23858,13 3,10.76142 3,8 3,5.23858 5.23858,3 8,3 c 2.76142,0 5,2.23858 5,5 h 1 C 14,4.68629 11.31371,2 8,2 Z M 8,6 C 6.89543,6 6,6.895432 6,8 6,9.10457 6.895432,10 8,10 V 9 C 7.447716,9 7,8.552284 7,8 7,7.447716 7.447716,7 8,7 8.552284,7 9,7.447716 9,8 h 1 C 10,6.89543 9.104568,6 8,6 Z m 1,3 v 7 h 6 V 9 Z m 1,1 h 1 v 1 h -1 z m 3,0 h 1 v 1 h -1 z m -3,2 h 1 v 1 h -1 z m 3,0 h 1 v 1 h -1 z m -3,2 h 1 v 1 h -1 z m 3,0 h 1 v 1 h -1 z" class="ColorScheme-Text"/>
</svg>
