<svg width="16" version="1.1" xmlns="http://www.w3.org/2000/svg" viewBox="0 0 16 16" height="16">
<defs id="defs3051">
<style type="text/css" id="current-color-scheme">
.ColorScheme-Text {
color:#4d4d4d;
}
</style>
</defs>
<path style="fill:currentColor" d="m 8,2 c -3.87891,0 -7,3.12109 -7,7 0,1.9375 0.78125,3.69141 2.04688,4.95312 l .707,-.707 c -1.08594,-1.08594 -1.75391,-2.58594 -1.75391,-4.24609 0,-3.32422 2.67578,-6 6,-6 3.32422,0 6,2.67578 6,6 0,1.66016 -0.667969,3.16016 -1.75391,4.24609 l .707,.707 c 1.26562,-1.26172 2.04688,-3.01562 2.04688,-4.95312 0,-3.87891 -3.12109,-7 -7,-7 z  m 0,3 c -2.21484,0 -4,1.78516 -4,4 0,1.10938 0.445312,2.10547 1.17188,2.82812 l .7031,-.7031 c -0.539062,-0.542969 -0.875,-1.29297 -0.875,-2.125 0,-1.66016 1.33984,-3 3,-3 1.66016,0 3,1.33984 3,3 0,0.832031 -0.335938,1.58203 -0.875,2.125 l .7031,.7031 c 0.726563,-0.722656 1.17188,-1.71875 1.17188,-2.82812 0,-2.21484 -1.78516,-4 -4,-4 z  m 0,3 c -0.554688,0 -1,0.445312 -1,1 v 5 h 2 v -5 c 0,-0.554688 -0.445312,-1 -1,-1 z " class="ColorScheme-Text"/>
</svg>
