<svg width="16" version="1.1" xmlns="http://www.w3.org/2000/svg" viewBox="0 0 16 16" height="16">
<defs id="defs3051">
<style type="text/css" id="current-color-scheme">
.ColorScheme-Text {
color:#4d4d4d;
}
</style>
</defs>
<path style="fill:currentColor" d="M 8,4 C 5.8440191,4 3.8019094,4.4574872 1.9550781,5.2734375 L 2.5117188,6.1230469 C 4.1948687,5.4030785 6.0470389,5 8,5 9.9529641,5 11.805133,5.4030788 13.488281,6.1230469 L 14.044922,5.2734375 C 12.198092,4.457488 10.155985,4 8,4 Z M 8,7 C 6.4583897,7 4.9954006,7.3182224 3.6679688,7.8886719 L 4.2265625,8.7402344 C 5.3895702,8.264815 6.6618109,8 8,8 9.3381917,8 10.610431,8.264816 11.773438,8.7402344 L 12.332031,7.8886719 C 11.004603,7.318225 9.5416126,7 8,7 Z m 0,3 c -0.9268978,0 -1.8111516,0.179102 -2.6191406,0.503906 l 0.5625,0.857422 C 6.583834,11.127575 7.2763705,11 8,11 c 0.7236288,0 1.4161655,0.127575 2.056641,0.361328 l 0.5625,-0.857422 C 9.811153,10.179103 8.9269006,10 8,10 Z m 0,3 A 1.5,1.5 0 0 0 6.5,14.5 1.5,1.5 0 0 0 8,16 1.5,1.5 0 0 0 9.5,14.5 1.5,1.5 0 0 0 8,13 Z" class="ColorScheme-Text"/>
<path style="fill:currentColor;opacity:.2" d="m 8,1 a 19,19 0 0,0 -7.75977,1.65625 l .5566,.8477 a 18,18 0 0,1 7.20312,-1.50391 18,18 0 0,1 7.20313,1.50391 l .5566,-.8477 a 19,19 0 0,0 -7.75977,-1.65625 Z " class="ColorScheme-Text"/>
</svg>
