<svg width="16" version="1.1" xmlns="http://www.w3.org/2000/svg" viewBox="0 0 16 16" height="16">
<defs id="defs3051">
<style type="text/css" id="current-color-scheme">
.ColorScheme-Text {
color:#4d4d4d;
}
</style>
</defs>
<path style="fill:currentColor" d="M 8 7 C 6.4583897 7 4.9954007 7.3182224 3.6679688 7.8886719 L 4.2265625 8.7402344 C 5.3895702 8.264815 6.6618109 8 8 8 C 9.3381917 8 10.610431 8.264816 11.773438 8.7402344 L 12.332031 7.8886719 C 11.004603 7.318225 9.5416126 7 8 7 z M 8 10 C 7.0731022 10 6.1888484 10.179102 5.3808594 10.503906 L 5.9433594 11.361328 C 6.583834 11.127575 7.2763705 11 8 11 C 8.7236288 11 9.4161657 11.127575 10.056641 11.361328 L 10.619141 10.503906 C 9.8111532 10.179103 8.9269006 10 8 10 z M 8 13 A 1.5 1.5 0 0 0 6.5 14.5 A 1.5 1.5 0 0 0 8 16 A 1.5 1.5 0 0 0 9.5 14.5 A 1.5 1.5 0 0 0 8 13 z " class="ColorScheme-Text"/>
<path style="fill:currentColor;opacity:.2" d="M 8 1 A 19 19 0 0 0 0.24023438 2.65625 L 0.796875 3.5039062 A 18 18 0 0 1 8 2 A 18 18 0 0 1 15.203125 3.5039062 L 15.759766 2.65625 A 19 19 0 0 0 8 1 z M 8 4 C 5.8440191 4 3.8019094 4.4574872 1.9550781 5.2734375 L 2.5117188 6.1230469 C 4.1948686 5.4030785 6.0470389 5 8 5 C 9.9529641 5 11.805133 5.4030788 13.488281 6.1230469 L 14.044922 5.2734375 C 12.198092 4.457488 10.155985 4 8 4 z " class="ColorScheme-Text"/>
</svg>
