<svg width="16" version="1.1" xmlns="http://www.w3.org/2000/svg" viewBox="0 0 16 16" height="16">
<defs id="defs3051">
<style type="text/css" id="current-color-scheme">
.ColorScheme-Text {
color:#4d4d4d;
}
</style>
</defs>
<path style="fill:currentColor" d="m 8,10 c -0.926898,0 -1.81115,0.179102 -2.61914,0.503906 l .5625,.8574 c 0.640475,-0.233753 1.33301,-0.361328 2.05664,-0.361328 0.723629,0 1.41617,0.127575 2.05664,0.361328 l .5625,-.8574 c -0.807988,-0.324803 -1.69224,-0.503906 -2.61914,-0.503906 z  m -5.5,.0273 c -0.75,0 -1.5,0.491036 -1.5,1.47266 v 1.5 h -1 v 3 h 5 v -3 h -1 v -1.5 c 0,-0.98162 -0.75,-1.47266 -1.5,-1.47266 z  m 0,.9727 c 0.277,0 0.5,0.223 0.5,0.5 v 1.5 h -1 v -1.5 c 0,-0.277 0.223,-0.5 0.5,-0.5 z  m 5.5,2 a 1.5,1.5 0 0,0 -1.5,1.5 1.5,1.5 0 0,0 1.5,1.5 1.5,1.5 0 0,0 1.5,-1.5 1.5,1.5 0 0,0 -1.5,-1.5 z " class="ColorScheme-Text"/>
<path style="fill:currentColor;opacity:.2" d="M 8 1 A 19 19 0 0 0 0.24023438 2.65625 L 0.796875 3.5039062 A 18 18 0 0 1 8 2 A 18 18 0 0 1 15.203125 3.5039062 L 15.759766 2.65625 A 19 19 0 0 0 8 1 z M 8 4 C 5.8440191 4 3.8019094 4.4574872 1.9550781 5.2734375 L 2.5117188 6.1230469 C 4.1948686 5.4030785 6.0470389 5 8 5 C 9.9529641 5 11.805133 5.4030788 13.488281 6.1230469 L 14.044922 5.2734375 C 12.198092 4.457488 10.155985 4 8 4 z M 8 7 C 6.4583897 7 4.9954007 7.3182224 3.6679688 7.8886719 L 4.2265625 8.7402344 C 5.3895702 8.264815 6.6618109 8 8 8 C 9.3381917 8 10.610431 8.264816 11.773438 8.7402344 L 12.332031 7.8886719 C 11.004603 7.318225 9.5416126 7 8 7 z " class="ColorScheme-Text"/>
</svg>
