<svg width="16" version="1.0" xmlns="http://www.w3.org/2000/svg" height="16">
<defs id="defs3051">
<style type="text/css" id="current-color-scheme">
.ColorScheme-Text {
color:#4d4d4d;
}
</style>
</defs>
<path style="fill:currentColor;fill-opacity:1;stroke:none" id="path840" d="M 2.9160156 1 C 2.4089666 1 2 1.4078389 2 1.9140625 L 2 4.15625 L 2 6.09375 L 2 14.085938 C 2 14.592161 2.4089666 15 2.9160156 15 L 13.083984 15 C 13.591033 15 14 14.592161 14 14.085938 L 14 6.09375 L 14 4.15625 L 14 1.9140625 C 14 1.4078389 13.591033 1 13.083984 1 L 2.9160156 1 z M 4.3769531 3 L 11.623047 3 C 11.830039 3 12 3.1713927 12 3.3789062 L 12 5.6308594 C 12 5.838374 11.830038 6 11.623047 6 L 4.3769531 6 C 4.1699613 6 4 5.838375 4 5.6308594 L 4 3.3789062 C 4 3.171392 4.169962 3 4.3769531 3 z M 4.234375 8 L 4.765625 8 C 4.9482997 8 5 8.0571316 5 8.2441406 L 5 8.7558594 C 5 8.942869 4.9482991 9 4.765625 9 L 4.234375 9 C 4.0517 9 4 8.9428684 4 8.7558594 L 4 8.2441406 C 4 8.0571307 4.0517008 8 4.234375 8 z M 6.234375 8 L 6.765625 8 C 6.9482997 8 7 8.0571316 7 8.2441406 L 7 8.7558594 C 7 8.942869 6.9482987 9 6.765625 9 L 6.234375 9 C 6.0517 9 6 8.9428684 6 8.7558594 L 6 8.2441406 C 6 8.0571307 6.0517008 8 6.234375 8 z M 8.234375 8 L 8.765625 8 C 8.9482997 8 9 8.0571316 9 8.2441406 L 9 8.7558594 C 9 8.942869 8.9482987 9 8.765625 9 L 8.234375 9 C 8.0517 9 8 8.9428684 8 8.7558594 L 8 8.2441406 C 8 8.0571307 8.0517008 8 8.234375 8 z M 11.234375 8 L 11.765625 8 C 11.9483 8 12 8.0571316 12 8.2441406 L 12 8.7558594 C 12 8.942869 11.948301 9 11.765625 9 L 11.234375 9 C 11.0517 9 11 8.9428684 11 8.7558594 L 11 8.2441406 C 11 8.0571307 11.051698 8 11.234375 8 z M 4.234375 10 L 4.765625 10 C 4.9482997 10 5 10.057132 5 10.244141 L 5 10.755859 C 5 10.942869 4.9482987 11 4.765625 11 L 4.234375 11 C 4.0517 11 4 10.942868 4 10.755859 L 4 10.244141 C 4 10.057131 4.0517008 10 4.234375 10 z M 6.234375 10 L 6.765625 10 C 6.9482997 10 7 10.057131 7 10.244141 L 7 10.755859 C 7 10.942869 6.9482987 11 6.765625 11 L 6.234375 11 C 6.0517 11 6 10.942864 6 10.755859 L 6 10.244141 C 6 10.057131 6.0517013 10 6.234375 10 z M 8.234375 10 L 8.765625 10 C 8.9482997 10 9 10.057131 9 10.244141 L 9 10.755859 C 9 10.942869 8.9482987 11 8.765625 11 L 8.234375 11 C 8.0517 11 8 10.942864 8 10.755859 L 8 10.244141 C 8 10.057131 8.0517013 10 8.234375 10 z M 11.234375 10 L 11.765625 10 C 11.9483 10 12 10.057131 12 10.244141 L 12 12.755859 C 12 12.942869 11.948301 13 11.765625 13 L 11.234375 13 C 11.0517 13 11 12.942864 11 12.755859 L 11 10.244141 C 11 10.057131 11.051698 10 11.234375 10 z M 4.234375 12 L 4.765625 12 C 4.9482997 12 5 12.057132 5 12.244141 L 5 12.755859 C 5 12.942869 4.9482987 13 4.765625 13 L 4.234375 13 C 4.0517 13 4 12.942868 4 12.755859 L 4 12.244141 C 4 12.057131 4.0517008 12 4.234375 12 z M 6.234375 12 L 6.765625 12 C 6.9482997 12 7 12.057131 7 12.244141 L 7 12.755859 C 7 12.942869 6.9482987 13 6.765625 13 L 6.234375 13 C 6.0517 13 6 12.942864 6 12.755859 L 6 12.244141 C 6 12.057131 6.0517013 12 6.234375 12 z M 8.234375 12 L 8.765625 12 C 8.9482997 12 9 12.057131 9 12.244141 L 9 12.755859 C 9 12.942869 8.9482987 13 8.765625 13 L 8.234375 13 C 8.0517 13 8 12.942864 8 12.755859 L 8 12.244141 C 8 12.057131 8.0517013 12 8.234375 12 z " class="ColorScheme-Text"/>
</svg>
