<svg version="1.1" xmlns="http://www.w3.org/2000/svg" viewBox="0 0 16 16">
<path style="color:#4d4d4d" d="m 1,2 v 9 h 5 v 1 H 5 v 2 h 6 v -2 h -1 v -1 h 5 V 2 Z m 1,1 h 12 v 7 H 2 Z"/>
<path style="opacity:.5;fill:#fff" d="M 0,1 V 12 H 6 V 11 H 1 V 2 h 14 v 9 h -5 v 1 h 6 V 1 Z m 4,11 v 3 h 8 v -3 h -1 v 2 H 5 v -2 z"/>
<path style="fill:#7fff2a" d="m 7,12 h 2 v 1 H 7 Z"/>
<path style="fill:#3880d9" d="m 2,3 h 12 v 7 H 2 Z"/>
<g style="stroke-width:.889;stroke-linecap:round">
<rect width="4" x="3" y="4" height="2" style="fill:#fff"/>
<rect width="4" x="6" y="7" height="2" style="fill:#80ff80"/>
<rect width="4" x="9" y="4" height="2" style="fill:#fcff5f"/>
</g>
</svg>
