<svg width="16" version="1.0" xmlns="http://www.w3.org/2000/svg" height="16">
<path style="opacity:.6;fill:#fff" d="m 7.9976,.2246 c -0.630553,0 -1.27295,0.241881 -1.75754,0.726479 h -0.00195 l -5.505,5.513 c -0.47028,0.470288 -0.722753,1.09312 -0.732307,1.72051 v 0.00195 c 0,0.027389 0,0.036159 0,0.035152 -0.0321438,0.694613 0.868333,1.08684 1.07014,1.16588 0.331295,0.129756 0.706337,0.241269 1.07991,0.349569 0.018722,0.00543 0.03208,0.010224 0.050773,0.015623 -0.132313,0.105682 -0.288934,0.216146 -0.378847,0.523377 -0.107036,0.365742 0.079981,0.849424 0.285111,1.05457 0.333374,0.333388 0.61841,0.41595 0.947116,0.542907 0.328707,0.126956 0.687743,0.240895 1.03499,0.351522 0.270688,0.08623 0.505104,0.165339 0.726448,0.244112 -0.06198,0.07862 -0.111155,0.09689 -0.173801,0.220678 -0.082643,0.163298 -0.160449,0.404576 -0.128886,0.683515 0.031563,0.278939 0.183221,0.542565 0.349554,0.708903 0.358713,0.358736 0.737019,0.409631 1.00961,0.449167 0.17973,0.02607 0.288149,0.03332 0.412045,0.04491 l -.0547,.2363 .3535,.3535 c 0.582035,0.58206 1.38284,0.671164 2.06413,0.572199 0.681284,-0.09896 1.32803,-0.377256 1.87861,-0.771395 l .0586,-.043 .0527,-.0527 c 0.132159,-0.132168 0.286232,-0.315517 0.343696,-0.61907 0.03586,-0.189389 -0.06467,-0.350015 -0.130839,-0.525329 0.09542,-0.04172 0.06488,-0.02956 0.181611,-0.07812 0.522805,-0.217465 1.21233,-0.570514 1.81807,-1.25181 l .455,-.5097 -.3691,-.5742 c -0.173209,-0.269388 -0.324045,-0.28071 -0.513592,-0.423779 0.531123,-0.115356 1.22795,-0.273983 2.1813,-0.70695 0.555402,-0.252254 0.966292,-0.533023 1.20489,-0.974498 0.237236,-0.438961 0.187374,-0.843186 0.185515,-0.988168 v -0.00586 l .002,-.0215 -.002,-.0176 c -0.009504,-0.628027 -0.269241,-1.24766 -0.732303,-1.71073 l -5.5128,-5.513 c -0.459431,-0.459456 -1.08988,-0.726479 -1.72043,-0.726479 Z "/>
<path d="m 14.7476,11.3084 c -0.142981,-0.0046 -0.278291,0.0098 -0.38,0.03519 -0.19176,0.04792 -1.12333,0.07 -1.04852,0.668522 0.823011,0.29912 2.09527,0.528202 2.24483,-0.07037 0.112261,-0.448811 -0.387355,-0.619592 -0.816302,-0.633338 z "/>
<path d="m 3.5686,12.4568 c -0.134183,-0.01564 -0.265459,0 -0.393805,0.06564 -0.513256,0.258894 -0.858719,0.834133 -0.379218,1.07203 0.479548,0.237896 0.819371,-0.03298 1.23976,-0.328169 0.420439,-0.295145 0.440045,-0.365789 0.379221,-0.466733 -0.096376,-0.159941 -0.443402,-0.295842 -0.845954,-0.342757 z "/>
<path d="m 12.9945,12.6359 c -0.391074,0.156393 -0.386478,0.699701 -0.07357,0.934292 0.312836,0.234638 0.704373,0.08287 0.860726,-0.07357 0.156482,-0.156392 -0.0051,-0.704328 -0.787157,-0.860725 z "/>
<path d="m 7.9984,1.1248 c -0.404763,0 -0.812285,0.152386 -1.12245,0.462544 l -5.5074,5.5136 c -0.303998,0.303991 -0.462674,0.701051 -0.468715,1.09774 0,0.00666 0,0.01805 0,0.024703 l .0076,.0119 c 0.105511,0.401441 2.83359,0.898864 3.13773,1.20303 0.459349,0.459352 -1.76064,0.798774 -1.30129,1.25813 0.459349,0.459349 2.77843,0.885108 3.2378,1.34447 0.459352,0.459352 -0.940403,0.946789 -0.481047,1.40614 0.459349,0.459358 2,-0.112723 1.72067,1.08544 0.620319,0.62032 1.91487,0.324289 2.78144,-0.296028 0.459346,-0.459352 -0.878731,-0.416409 -0.419376,-0.875755 0.459352,-0.459355 1.61943,-0.461512 2.59643,-1.56032 -0.393259,-0.611604 -1.68048,-0.872782 -1.22112,-1.33213 0.459346,-0.459349 1.34788,-0.228846 3.27483,-1.10395 0.940657,-0.427211 0.867021,-0.747538 0.863419,-1.14095 0,-0.00828 0,-0.016323 0,-0.024667 l 0,-.0101 c -0.006033,-0.396689 -0.164975,-0.783675 -0.468969,-1.08766 l -5.5136,-5.5136 c -0.310157,-0.31016 -0.680899,-0.462544 -1.08566,-0.462544 Z "/>
<g style="fill:#fff">
<path d="m 8.1117,2.4784 c 0.542656,0.081897 2.48854,2.437 3.14821,2.89949 0.659674,0.462493 0.504967,0.765826 0.504967,0.794741 l -1.8067,-.7873 -.0986,1.204 -1.0212,-.481 -1.3334,.9462 -.6068,-2.072 -.7696,1.813 -2.1034,.2362 .0222,-.962 3.1379,-3.1749 c 0.229226,-0.231928 0.470903,-0.48518 0.926409,-0.416438 Z "/>
<path d="m 5.0713,9.5778 c 1.08202,0.280612 3.0292,0.780706 3.99506,0.787284 l .0384,.9425 c -0.827077,-0.085256 -2.89946,-0.586649 -3.31208,-0.797433 Z "/>
</g>
</svg>
