<svg width="16" version="1.1" xmlns="http://www.w3.org/2000/svg" height="16">
<defs id="defs3051">
<style type="text/css" id="current-color-scheme">
.ColorScheme-Text {
color:#4d4d4d;
}
</style>
</defs>
<path style="fill:currentColor" d="m 12.6113,1 c -0.549476,0 -0.611328,0 -0.611328,0.607422 v 1.39258 h 4 v -1.39062 c 0,-0.609375 0,-0.609375 -0.650391,-0.609375 h -2.73828 z  m -5.6016,2.6992 l -2.0098,.1836 v 7.51953 l 1.9902,-.2617 v -3.21484 l 2.5039,3.5586 2.0117,-.6074 -2.5762,-3.416 2.5977,-3.2344 -2.0547,-.4453 -2.4844,3.2344 .0215,-3.3164 z  m 4.9902,.3008 v 6 h 4 v -6 h -4 z  m -9.4395,1.5391 c -0.021771,0 -0.0480331,0.0125474 -0.0644531,0.0214844 l -.75,.7285 c -0.0319001,0.031625 -0.0448664,0.0842432 -0.0214844,0.121094 l .8789,1.375 c -0.15752,0.250181 -0.275012,0.524243 -0.365234,0.808594 l -1.625,.3223 c -0.0453476,0.0116875 -0.0859375,0.0379617 -0.0859375,0.0820313 v 1.01172 c 0,0.04262 0.0422985,0.089231 0.0859375,0.099609 l 1.582,.3652 c 0.08432,0.329657 0.213889,0.642729 0.386719,0.929688 l -.9199,1.3145 c -0.025529,0.03712 -0.0122366,0.090078 0.0214844,0.121094 l .748,.707 c 0.0319,0.02887 0.0899773,0.044864 0.128906,0.021484 l 1.4336,-.8301 c 0.281931,0.153657 0.577073,0.281332 0.898437,0.363281 l .3418,1.5176 c 0.00982,0.044 0.0397545,0.080078 0.0859375,0.080078 h 1.07031 c 0.0451,0 0.0966384,-0.038208 0.107422,-0.080078 l .3848,-1.5176 c 0.33126,-0.0845 0.652608,-0.222073 0.941406,-0.382812 l 1.4121,.8887 c 0.03887,0.02337 0.0958513,0.012779 0.128906,-0.019531 l .75,-.709 c 0.03209,-0.03163 0.044995,-0.084378 0.021485,-0.121094 l -.5137,-.8086 -.1719,.0605 c -0.02444,0.01169 -0.0501132,0.001088 -0.0644531,-0.019532 0,0 -0.322714,-0.464511 -0.748047,-1.05273 -0.50847,0.940227 -1.54562,1.57812 -2.74023,1.57812 -1.69725,0 -3.08203,-1.28703 -3.08203,-2.89062 0,-1.17955 0.751179,-2.194 1.82031,-2.64844 v -0.748047 c -0.194594,0.064625 -0.377966,0.128509 -0.556641,0.220703 h -0.0214843 l -1.4336,-.8887 c -0.019497,-0.011688 -0.0426261,-0.0215933 -0.0644531,-0.0195313 v -0.0019531 z  m 9.4395,5.4609 l 1.5,4 h 1 l 1.5,-4 h -4 z " class="ColorScheme-Text"/>
</svg>
