<svg width="16" version="1.0" xmlns="http://www.w3.org/2000/svg" height="16" xmlns:xlink="http://www.w3.org/1999/xlink">
<defs>
<linearGradient id="linearGradient3770">
<stop offset="0" style="stop-color:#ffda7d"/>
<stop offset="0.3" style="stop-color:#ffda7d"/>
<stop offset="0.3" style="stop-color:#ffc941"/>
<stop offset="0.68" style="stop-color:#ffc941"/>
<stop offset="0.68" style="stop-color:#dc9e00"/>
<stop offset="1" style="stop-color:#dc9e00"/>
</linearGradient>
<linearGradient id="linearGradient6">
<stop offset="0" style="stop-color:#b25c00"/>
<stop offset="1" style="stop-color:#fa8600"/>
</linearGradient>
<linearGradient id="linearGradient9">
<stop offset="0" style="stop-color:#bababa"/>
<stop offset="1" style="stop-color:#e3e3e3"/>
</linearGradient>
<linearGradient id="linearGradient13">
<stop offset="0" style="stop-color:#dbc457"/>
<stop offset="1" style="stop-color:#f0da94"/>
</linearGradient>
<linearGradient id="linearGradient869">
<stop offset="0" style="stop-color:#666"/>
<stop offset="1"/>
</linearGradient>
<linearGradient gradientTransform="matrix(0.34782628,0,0,0.34782628,0.99497562,0.39430448)" xlink:href="#linearGradient9" id="linearGradient12" y1="21.217579" x1="34.573826" y2="13.371971" x2="26.778454" gradientUnits="userSpaceOnUse"/>
<linearGradient gradientTransform="matrix(0.34782628,0,0,0.34782628,0.99497562,0.39430448)" xlink:href="#linearGradient6" id="linearGradient8" y1="17.639959" x1="38.194466" y2="10" x2="30.600706" gradientUnits="userSpaceOnUse"/>
<linearGradient gradientTransform="matrix(0.24531076,0.24658822,-0.24658822,0.24531076,5.3512267,-7.0420513)" xlink:href="#linearGradient869" id="linearGradient871" y1="44.033699" x1="37.169601" y2="44.038601" x2="43.229599" gradientUnits="userSpaceOnUse"/>
<linearGradient gradientTransform="matrix(0.24531076,0.24658822,-0.24658822,0.24531076,5.1398187,-6.6612118)" xlink:href="#linearGradient3770" id="linearGradient3849" y1="23.720449" x1="34.265" y2="23.720449" gradientUnits="userSpaceOnUse" x2="45.4021"/>
<linearGradient gradientTransform="matrix(0.34782628,0,0,0.34782628,0.99497562,0.39430448)" xlink:href="#linearGradient13" id="linearGradient15" y1="38.854919" x1="16.81628" y2="31.010721" x2="9.0194902" gradientUnits="userSpaceOnUse"/>
</defs>
<g style="fill-rule:evenodd">
<path style="fill:#aaa" d="m 0,-0 v 16.0088 l 14,-.0088 v -16 Z "/>
<path style="fill:#f2f2f2" d="M 1,1 V 15 H 13 V 1 Z"/>
</g>
<g style="fill:#385389">
<path style="opacity:.9" d="m 6.4664,1.6 -.0157,2.6541 1.9366,-2.5914 1.5605,.3573 -2.0149,2.5914 2,2.7482 -1.5292,.4857 -1.9522,-2.8578 v 2.5758 l -1.4509,.2194 v -6.04153 l 1.4665,-.141 Z "/>
<path style="opacity:.9" d="m 3.1417,3.0728 c 0.016584,-0.00171 0.032213,0 0.047003,0.0094 l 1.1,.7207 c 0,0 0,0.00299 0,0.00313 0.13567,-0.073902 0.278412,-0.136298 0.426167,-0.188014 v 0.601646 c -0.81184,0.36535 -1.37877,1.17963 -1.37877,2.1277 0,1.28887 1.04565,2.33451 2.33451,2.33451 0.907027,0 1.69454,-0.516619 2.08069,-1.27223 0.322883,0.47272 0.57031,0.836665 0.57031,0.836665 0.011033,0.016143 0.031586,0.024515 0.050137,0.0188 l .1285,-.0408 .3917,.6455 c 0.017847,0.029329 0.01183,0.066558 -0.012532,0.090873 l -.5734,.5766 c -0.02512,0.024964 -0.064376,0.028703 -0.094007,0.0094 l -1.0748,-.705 c -0.219399,0.129152 -0.456602,0.229854 -0.708188,0.29769 l -.3008,1.2283 c -0.00812,0.03344 -0.03788,0.0564 -0.072072,0.0564 h -0.814728 c -0.035271,0 -0.064952,-0.02499 -0.072072,-0.05954 l -.2538,-1.2221 c -0.24394,-0.0658797 -0.475499,-0.164801 -0.689385,-0.288289 l -1.0905,.6612 c -0.02933,0.017854 -0.066582,0.014817 -0.090873,-0.0094 l -.5766,-.5766 c -0.025016,-0.024967 -0.028804,-0.064426 -0.0094,-0.094007 l .6957,-1.0591 c -0.131233,-0.230779 -0.230381,-0.48415 -0.294555,-0.748922 l -1.2001,-.2914 c -0.0333413,-0.0081218 -0.0596105,-0.0376293 -0.0596105,-0.0720724 v -0.814727 c 0,-0.035299 0.025094,-0.068086 0.059538,-0.075206 l 1.2378,-.2569 c 0.0683864,-0.2287 0.165528,-0.444418 0.285154,-0.645513 l -.6737,-1.1125 c -0.017701,-0.029405 -0.014742,-0.066583 0.00947,-0.090874 l .5766,-.5766 c 0.012483,-0.012508 0.030421,-0.017091 0.047004,-0.018801 z "/>
</g>
<g style="fill-rule:evenodd">
<path style="opacity:.05" d="m 13.6784,3.1201 c -0.217247,-0.00475 -0.461732,0.088304 -0.608018,0.233696 l -8.9369,8.7725 .015,.015 -1.1481,3.8587 3.8631,-1.1342 8.9189,-8.7837 c 0.240468,-0.239222 0.299801,-0.753865 0.0856,-0.96943 l -1.8628,-1.8723 c -0.07819,-0.0786 -0.196417,-0.117395 -0.326766,-0.120245 z "/>
<path style="opacity:.2" d="m 13.5069,2.9569 c -0.217247,-0.00475 -0.461733,0.088304 -0.608018,0.233696 l -8.6576,8.5632 .015,.015 -1.1481,3.8587 3.8631,-1.1342 8.6396,-8.5744 c 0.240468,-0.239222 0.299801,-0.753865 0.0856,-0.96943 l -1.8628,-1.8723 c -0.07819,-0.0786 -0.196417,-0.117395 -0.326766,-0.120245 z "/>
<path style="opacity:.25" d="m 13.3455,2.8032 c -0.217247,-0.00475 -0.461733,0.088304 -0.608018,0.233696 l -8.3207,8.3784 .0258,-.0231 -1.2024,3.8533 3.6783,-1.0309 8.5309,-8.4494 c 0.240468,-0.239222 0.299801,-0.753865 0.0856,-0.96943 l -1.8628,-1.8723 c -0.07819,-0.0786 -0.196417,-0.117395 -0.326766,-0.120245 z "/>
<path style="opacity:.35" d="m 13.4377,2.7417 c -0.217247,-0.00475 -0.461732,0.088304 -0.608017,0.233696 l -8.4655,8.3787 .015,.015 -1.0825,3.6958 3.629,-1.0419 8.4692,-8.4089 c 0.240468,-0.239222 0.299801,-0.753865 0.0856,-0.96943 l -1.7161,-1.7826 c -0.07819,-0.0786 -0.196418,-0.117395 -0.326767,-0.120245 z "/>
<path style="fill:url(#linearGradient8)" d="m 13.3816,2.3722 c -0.217247,-0.00475 -0.461608,0.088014 -0.607893,0.233405 l -1.2119,1.1895 2.7119,2.7284 1.2119,-1.1895 c 0.240468,-0.239222 0.299538,-0.754018 0.08534,-0.969583 l -1.8625,-1.8722 c -0.07819,-0.0786 -0.19643,-0.117204 -0.326779,-0.120054 z "/>
<path style="fill:url(#linearGradient12)" d="m 11.5681,3.8015 -1.2583,1.2456 2.712,2.7283 1.2583,-1.2455 z "/>
<path style="fill:url(#linearGradient3849)" d="m 10.3092,5.0454 -6.1934,6.1235 2.7314,2.7385 6.1739,-6.1336 Z "/>
<path style="fill:url(#linearGradient15)" d="m 4.1322,11.1806 -1.1496,3.8621 3.8615,-1.1336 -2.7119,-2.7284 Z "/>
<path style="fill:url(#linearGradient871)" d="m 3.6112,12.9255 -.6286,2.1172 2.1139,-.6217 -1.4854,-1.4955 z "/>
</g>
</svg>
