<svg width="16" version="1.1" xmlns="http://www.w3.org/2000/svg" viewBox="0 0 16 16" height="16">
<defs id="defs3051">
<style type="text/css" id="current-color-scheme">
.ColorScheme-Text {
color:#4d4d4d;
}
</style>
</defs>
<path style="fill:currentColor;fill-opacity:1;stroke:none" id="path4" d="m 9.1712,1.0001 -2.4786,.2317 v 9.57241 l 2.4513,-.3345 v -4.0915 l 3.2685,4.529 2.5603,-.7721 -3.3502,-4.3488 3.3774,-4.1172 -2.6148,-.5661 -3.2413,4.1172 .0273,-4.2201 Z  m -5.5837,2.3416 c -0.02771,0 -0.060833,0.014875 -0.081731,0.02625 l -.9533,.9264 c -0.0406,0.04025 -0.057085,0.107537 -0.027324,0.154437 l 1.1167,1.7499 c -0.20048,0.318412 -0.348214,0.6671 -0.463043,1.029 l -2.07,.412 c -0.057715,0.014875 -0.108877,0.04725 -0.108877,0.103338 v 1.28669 c 0,0.05425 0.053336,0.114975 0.108877,0.128187 l 2.0156,.4632 c 0.107317,0.419563 0.270302,0.8183 0.490266,1.18352 l -1.1712,1.6729 c -0.032491,0.04725 -0.015593,0.114975 0.027324,0.154438 l .9533,.9005 c 0.0406,0.03675 0.113868,0.056 0.163414,0.02625 l 1.8249,-1.0549 c 0.35882,0.195563 0.734961,0.35875 1.14397,0.46305 l .4358,1.93 c 0.012504,0.056 0.050111,0.103162 0.108887,0.103162 h 1.36185 c 0.0574,0 0.122446,-0.04988 0.136171,-0.103162 l .4903,-1.93 c 0.421603,-0.107537 0.83089,-0.2842 1.19845,-0.488775 l 1.7977,1.1323 c 0.04947,0.02975 0.121357,0.01487 0.163424,-0.02625 l .9533,-.9007 c 0.04084,-0.04025 0.05725,-0.107537 0.02732,-0.154262 l -.6537,-1.0291 -.2179,.077 c -0.0311,0.01487 -0.06348,0 -0.08173,-0.02625 0,0 -0.411971,-0.589574 -0.953303,-1.33822 -0.647142,1.19665 -1.96596,2.00734 -3.48637,2.00734 -2.16013,0 -3.92217,-1.63888 -3.92217,-3.67981 0,-1.50124 0.954457,-2.79256 2.31517,-3.37094 v -0.952175 c -0.247665,0.08225 -0.480779,0.1659 -0.708183,0.283238 -0.000169,0 -0.026648,0 -0.027324,0 l -1.8249,-1.1324 c -0.024815,-0.014875 -0.053963,-0.028 -0.081742,-0.025375 z " class="ColorScheme-Text"/>
</svg>
