<svg width="16" version="1.1" xmlns="http://www.w3.org/2000/svg" height="16" viewBox="0 0 16 16">
<defs id="defs3051">
<style type="text/css" id="current-color-scheme">
.ColorScheme-Text {
color:#4d4d4d;
}
</style>
</defs>
<path style="fill:currentColor;fill-opacity:1;stroke:none" id="path322" d="m 9.0508,.9727 c -1.3994,-0.0431582 -2.26807,0.645585 -2.57812,1.57227 -0.27735,0.828945 -0.187492,1.92573 0.673828,2.67773 -0.363678,-0.714383 -0.39689,-1.45118 0.0605468,-1.98438 0.914779,-1.06629 2.45452,-0.708959 3.11719,0.447266 l 4.6758,-.3516 -3.9082,-1.1172 c -0.244763,-0.407238 -0.914865,-1.20941 -2.04102,-1.24414 z  m -7.1758,.9023 c -0.560542,0.578769 -0.881837,1.38201 -0.875,2.1875 0.00684,0.816884 0.35303,1.62647 0.9375,2.19727 0.0816359,0.0797259 0.167742,0.152739 0.257812,0.222656 l -.7578,-.2324 c -0.16107,2.80312 1.97486,4.17045 3.9375,3.0625 -1.2826,0.0202129 -2.24933,-0.56966 -2.25977,-1.49414 l 4.1621,.2676 -3.6953,-1.1758 c -0.238374,-0.153308 -0.473525,-0.343731 -0.634766,-0.542969 -0.620162,-0.766306 -0.484263,-1.58706 -0.265625,-2.07422 l 4.8809,2.3945 -5.6875,-4.8125 z  m 7.8926,2.916 c -0.684817,1.00497 -0.6,2.18221 -0.261719,3.19531 0.200427,0.600252 0.421482,1.55575 0.316406,2.09375 -0.227569,1.16518 -1.20376,1.60163 -2.27539,1.67578 -0.661811,0.04579 -1.4795,-0.023111 -2.17188,-0.255859 l .0176,3.5 1.0977,-1.707 c 1.1564,0.338374 2.3104,0.331537 3.34375,-0.28711 0.521805,-0.31217 0.979824,-0.797198 1.29883,-1.31445 0.320149,-0.517249 0.413248,-1.25912 0.384766,-1.86523 -0.041015,-0.864736 -0.461558,-1.66701 -0.904297,-2.41016 -0.503898,-0.845808 -0.944516,-1.84036 -0.845703,-2.625 z " class="ColorScheme-Text"/>
</svg>
