<svg width="16" version="1.1" xmlns="http://www.w3.org/2000/svg" height="16" viewBox="0 0 16 16">
<defs id="defs3051">
<style type="text/css" id="current-color-scheme">
.ColorScheme-Text {
color:#4d4d4d;
}
</style>
</defs>
<path style="fill:currentColor;fill-opacity:1;stroke:none" id="path134" d="m 9.0156,.8359 c -0.591293,-0.00922011 -1.1611,0.146057 -1.56836,0.410156 -0.440013,0.285339 -0.789308,0.70948 -0.988281,1.19531 -0.198971,0.487053 -0.2478,1.03297 -0.136719,1.54688 0.111081,0.512686 0.379649,0.993422 0.761719,1.35352 -0.418122,-0.741623 -0.349225,-1.42404 0.0019531,-1.99219 0.392056,-0.634283 1.20282,-0.906156 1.96875,-0.802734 0.580266,0.0783519 1.25544,0.749896 1.43945,1.40234 l 5.0645,-.1055 -4.0879,-1.4062 c -0.148962,-0.433558 -0.737545,-1.04388 -1.10547,-1.25195 -0.416192,-0.235373 -0.889715,-0.342438 -1.34961,-0.349609 z  m -7.2773,.8164 c -0.600576,0.620105 -1.00763,1.48355 -0.9375,2.34375 0.0950472,1.16584 0.558947,1.90461 1.2793,2.59375 l -.8105,-.25 c -0.360515,2.00732 1.25446,4.12059 3.10547,4.04102 0.489043,-0.021024 1.12233,-0.138187 1.55078,-0.375 -1.36337,0.068254 -3.02525,-0.972986 -2.98438,-2.13867 l 4.4219,.3477 -4.0703,-1.252 c -0.139512,-0.091562 -0.371452,-0.294509 -0.474609,-0.425781 -0.499314,-0.635402 -0.405646,-1.60052 -0.0839844,-2.07227 l 5.0977,2.3438 -6.0938,-5.1562 z  m 8.1562,2.9277 c -0.261227,0.308832 -0.405742,0.696182 -0.488281,1.0918 -0.0895209,0.429082 -0.0512536,0.888669 0.0214844,1.26367 0.235596,1.21462 0.666676,2.21796 0.443359,3.33203 -0.203876,1.01709 -1.26199,1.55055 -2.40039,1.69336 -0.630597,0.079109 -1.49912,0.062429 -2.2832,-0.195313 l .0195,3.75 1.0156,-1.7188 c 1.23899,0.362543 2.57702,0.185895 3.67969,-0.484375 1.2862,-0.781837 1.82478,-2.02849 1.79492,-3.3418 -0.01913,-0.841332 -0.447883,-1.76906 -0.896485,-2.58008 -0.536267,-0.969505 -1.03458,-1.93495 -0.90625,-2.81055 z " class="ColorScheme-Text"/>
</svg>
