<svg width="16" version="1.1" xmlns="http://www.w3.org/2000/svg" height="16" viewBox="0 0 16 16">
<defs id="defs3051">
<style type="text/css" id="current-color-scheme">
.ColorScheme-Text {
color:#4d4d4d;
}
</style>
</defs>
<path style="fill:currentColor;fill-opacity:1;stroke:none" id="path291" d="m 8.875,1 c -0.489906,-0.0102549 -0.982424,0.130373 -1.39258,0.400391 -0.409014,0.268876 -0.734214,0.663739 -0.919922,1.11719 -0.185708,0.454588 -0.23063,0.963708 -0.126953,1.44336 0.103677,0.478512 0.354331,0.925623 0.710938,1.26172 -0.181151,-0.298497 -0.275062,-0.652184 -0.263672,-1.00195 0.010255,-0.349767 0.106889,-0.707456 0.324219,-0.982422 0.408489,-0.516822 1.09756,-0.743489 1.80469,-0.638672 0.612989,0.0908632 1.14961,0.583148 1.3125,1.08594 l 4.6758,-.3516 -4.0293,-1.0488 c -0.2,-0.374293 -0.482248,-0.64952 -0.789062,-0.875 -0.385087,-0.256346 -0.844081,-0.401046 -1.30664,-0.410156 z  m -7,.875 c -0.560543,0.57877 -0.881837,1.38201 -0.875,2.1875 0.00684,0.816885 0.353029,1.62647 0.9375,2.19727 0.0816359,0.0797259 0.167741,0.152739 0.257812,0.222656 l -.7578,-.2324 c -0.151528,0.578774 -0.103839,1.20752 0.130859,1.75781 0.235838,0.549149 0.657555,1.0153 1.18164,1.30469 0.399899,0.221027 0.855634,0.337891 1.3125,0.337891 0.456866,0 0.912601,-0.116863 1.3125,-0.337891 -1.3603,0.0675544 -2.2858,-0.68872 -2.39062,-1.58594 l 4.1406,.2734 -3.543,-1.0898 c -0.238374,-0.153308 -0.473525,-0.343731 -0.634766,-0.542969 -0.620163,-0.766307 -0.484263,-1.58706 -0.265625,-2.07422 l 4.8809,2.3945 -5.6875,-4.8125 z  m 7.8926,2.916 c -0.243813,0.288246 -0.384087,0.651029 -0.455078,1.02148 -0.139356,0.727211 -0.0447807,1.51956 0.255859,2.16211 0.258326,0.552115 0.516307,1.41129 0.392578,1.94531 -0.266598,1.15066 -1.35806,1.83601 -2.42969,1.91016 -0.661812,0.045794 -1.46387,-0.097332 -2.15625,-0.330078 l .0176,3.5 .875,-1.7402 c 1.1564,0.338375 2.44907,0.171381 3.48242,-0.447266 0.521806,-0.312171 0.979825,-0.736655 1.29883,-1.25391 0.320149,-0.51725 0.497232,-1.1263 0.46875,-1.73242 -0.041015,-0.864737 -0.482744,-1.65479 -0.904297,-2.41016 -0.422686,-0.755363 -0.847822,-1.55599 -0.853515,-2.42188 0,-0.0672189 0.0032325,-0.135905 0.0078125,-0.203125 z " class="ColorScheme-Text"/>
</svg>
