<svg width="16" version="1.1" xmlns="http://www.w3.org/2000/svg" height="16" viewBox="0 0 16 16" xmlns:xlink="http://www.w3.org/1999/xlink">
<defs id="defs3051">
<style type="text/css" id="current-color-scheme">
.ColorScheme-Text {
color:#4d4d4d;
}
</style>
</defs>
<path style="fill:currentColor;fill-opacity:1;stroke:none" id="path832" d="m 8,1 c -3.86599,0 -7,3.13401 -7,7 0.00573,3.05766 1.99539,5.75779 4.91415,6.6689 l -.0143,-2.9561 c 0.5865,0.290277 1.13239,0.07015 1.78526,0.02755 1.08237,-0.228998 1.7289,-0.555123 1.9905,-1.41433 0.278794,-1.31005 -0.619656,-2.00663 -0.35185,-3.55828 0.055786,-0.323218 0.183284,-0.637429 0.395296,-0.888077 -0.00403,0.058452 -0.00595,0.118094 -0.00595,0.176545 0.00499,0.75294 0.374889,1.44923 0.742443,2.10606 0.366566,0.656838 0.749575,1.34223 0.785241,2.09417 0.02476,0.527059 -0.128795,1.0571 -0.407185,1.50688 -0.277393,0.449785 -0.67567,0.819326 -1.12942,1.09078 -0.898569,0.537955 -2.02305,0.682998 -3.02862,0.388757 l -.7234,1.4385 c 0.663013,0.207223 1.35318,0.314604 2.04781,0.318614 3.86599,0 7,-3.13401 7,-7 0,-1.18528 -0.301178,-2.35113 -0.875,-3.38825 l -4.032,.5987 c -0.219489,-0.612048 -1.1254,-0.966888 -1.65361,-0.804535 -0.766329,0.235542 -1.08202,1.01668 -1,1.84823 -0.310092,-0.292258 -0.77491,-0.904108 -0.864961,-1.32023 -0.0902565,-0.417066 -0.105268,-0.92253 0.0528752,-1.31917 0.36557,-0.916897 1.26792,-1.3648 2.13089,-1.33087 0.960994,0.0377785 1.83633,0.797375 2.09241,1.3382 l 3.2535,.9528 c -1.23864,-2.20772 -3.57274,-3.57468 -6.1042,-3.5749 Z  m -5.1436,2.3438 5.0872,4.5109 -4.1469,-1.703 c -0.225362,0.757294 -0.0276477,1.15543 0.324097,1.50236 l 3.7097,1.1783 -3.0956,.1346 c 0.202667,0.564083 1.22947,0.966496 2.09007,1.06906 -0.227537,0.372527 -1.59782,0.607392 -2.15569,0.53174 -0.998076,-0.135349 -1.81529,-1.04216 -2.08037,-1.89186 -0.154925,-0.496611 -0.244705,-1.0244 -0.112942,-1.52768 l .6592,.2027 c -0.078485,-0.0608966 -0.154166,-0.125514 -0.225289,-0.194973 -0.508235,-0.496343 -0.808424,-1.19957 -0.814368,-1.9099 -0.0059449,-0.70043 0.273441,-1.3989 0.76087,-1.90217 Z " class="ColorScheme-Text"/>
</svg>
