<svg width="16" version="1.1" xmlns="http://www.w3.org/2000/svg" height="16">
<defs id="defs3051">
<style type="text/css" id="current-color-scheme">
.ColorScheme-Text {
color:#4d4d4d;
}
</style>
</defs>
<path style="fill:currentColor;fill-opacity:1;stroke:none" id="path823" d="m 8,1 c -3.86604,0 -7,3.13408 -7,7 0,3.86606 3.13398,6.99991 7,6.99991 3.86567,0 7,-3.1338 7,-6.99991 0,-3.86593 -3.13434,-7 -7,-7 Z  m 0,1.0662 c 0.902343,1e-07 1.63281,0.732422 1.63281,1.63477 0,0.902343 -0.730469,1.63281 -1.63281,1.63281 -0.902343,0 -1.63281,-0.730471 -1.63281,-1.63281 0,-0.902343 0.730468,-1.63477 1.63281,-1.63477 Z  m -4.03,3.9748 2,.0019 h 6.08749 c 0.207878,0 0.332674,0.080854 0.371094,0.232422 0.03842,0.151568 -0.01888,0.361503 -0.167968,0.416016 l -3.0067,1.1719 1.3898,5.0979 c 0.03871,0.185558 0.0282,0.388073 -0.167968,0.46875 -0.196168,0.08067 -0.412286,0.02735 -0.523438,-0.207032 l -1.9464,-3.2796 -1.9483,3.2796 c -0.0825707,0.173941 -0.350159,0.317872 -0.550781,0.197265 -0.200621,-0.120605 -0.188838,-0.310889 -0.150391,-0.49414 l 1.3877,-5.0628 -2.9988,-1.1719 c -0.18925,-0.0693646 -0.245375,-0.288946 -0.195312,-0.416016 0.050063,-0.12707 0.128542,-0.234375 0.419922,-0.234375 z " class="ColorScheme-Text"/>
</svg>
