<svg width="16" version="1.1" xmlns="http://www.w3.org/2000/svg" height="16">
<defs id="defs3051">
<style type="text/css" id="current-color-scheme">
.ColorScheme-Text {
color:#4d4d4d;
}
</style>
</defs>
<path style="fill:currentColor;fill-opacity:1;stroke:none" id="path10" d="m 3.7846,2.0188 c -0.24234,0.001 -0.52104,0.0664 -0.80589,0.21875 -1.03738,0.54647 -1.99198,2.33598 -2.51067,4.65625 -0.44216,1.97089 -0.60455,4.66601 -0.34095,5.75 0.22958,0.93169 0.62706,1.34375 1.33282,1.34375 1.04588,-0.0179 2.35927,-1.18225 3.19257,-2.75 0.6027,-0.86787 2.00051,-1.26248 3.34756,-1.21875 1.34704,-0.047101 2.74485,0.35088 3.34755,1.21875 0.8333,1.56775 2.14669,2.73208 3.19257,2.75 0.70576,0 1.10324,-0.41206 1.33282,-1.34375 0.2636,-1.08399 0.10121,-3.77911 -0.34095,-5.75 -0.51869,-2.32027 -1.47329,-4.10978 -2.51067,-4.65625 -0.5697,-0.30459 -1.04015,-0.29563 -1.4568,0 -0.52719,0.37626 -1.62582,0.77958 -3.56452,0.78125 -1.93871,0.002 -3.03734,-0.40499 -3.56453,-0.78125 -0.20832,-0.14782 -0.40857,-0.21987 -0.65091,-0.21875 z  m .248,3 h 0.9919 v 1 h 0.9919 v 1 h -0.9919 v 1 h -0.9919 v -1 h -0.9919 v -1 h 0.9919 z  m 7.439,0 c 0.2739,0 0.49593,0.22386 0.49593,0.5 0,0.27614 -0.22203,0.5 -0.49593,0.5 -0.2739,0 -0.49593,-0.22386 -0.49593,-0.5 0,-0.27614 0.22203,-0.5 0.49593,-0.5 z  m -.9919,1 c 0.2739,0 0.49594,0.22386 0.49594,0.5 0,0.27614 -0.22204,0.5 -0.49594,0.5 -0.27389,0 -0.49593,-0.22386 -0.49593,-0.5 0,-0.27614 0.22204,-0.5 0.49593,-0.5 z  m 1.9837,0 c 0.27389,0 0.49593,0.22386 0.49593,0.5 0,0.27614 -0.22204,0.5 -0.49593,0.5 -0.2739,0 -0.49594,-0.22386 -0.49594,-0.5 0,-0.27614 0.22204,-0.5 0.49594,-0.5 z  m -.9919,1 c 0.2739,0 0.49593,0.22386 0.49593,0.5 0,0.27614 -0.22203,0.5 -0.49593,0.5 -0.2739,0 -0.49593,-0.22386 -0.49593,-0.5 0,-0.27614 0.22203,-0.5 0.49593,-0.5 z " class="ColorScheme-Text"/>
</svg>
