<svg width="16" version="1.1" xmlns="http://www.w3.org/2000/svg" height="16">
<defs id="defs3051">
<style type="text/css" id="current-color-scheme">
.ColorScheme-Text {
color:#4d4d4d;
}
</style>
</defs>
<path style="fill:currentColor;fill-opacity:1;stroke:none" id="path6495" d="m 8,0 c -4.41833,0 -8,3.5818 -8,8 0,4.41836 3.58169,8 8,8 4.41791,0 8,-3.58158 8,-8 0,-4.41821 -3.5821,-8 -8,-8 Z  m 0,1.8481 c 0.902343,0 1.63372,0.731376 1.63372,1.63372 0,0.902343 -0.731376,1.63382 -1.63372,1.63382 -0.902343,0 -1.63372,-0.731478 -1.63372,-1.63382 0,-0.902343 0.731376,-1.63372 1.63372,-1.63372 Z  m -4.2311,4.1939 h 8.48837 c 0.207876,0 0.333673,0.08099 0.372093,0.232558 0.03842,0.151568 -0.01952,0.362638 -0.168604,0.417151 l -3.2064,1.1722 1.1882,5.4979 c 0.03871,0.185558 0.02829,0.388074 -0.167878,0.46875 -0.196168,0.08067 -0.412104,0.02653 -0.523256,-0.207849 l -1.7456,-3.6795 -1.7471,3.6795 c -0.0825707,0.173941 -0.35025,0.31828 -0.550872,0.197674 -0.200621,-0.120606 -0.18961,-0.311662 -0.151163,-0.494913 l 1.1875,-5.4616 -3.1984,-1.1722 c -0.18925,-0.0693646 -0.247011,-0.290081 -0.196948,-0.417151 0.0500629,-0.12707 0.128678,-0.232558 0.420058,-0.232558 Z " class="ColorScheme-Text"/>
</svg>
