<svg version="1.1" xmlns="http://www.w3.org/2000/svg" viewBox="0 0 16 16">
<path style="color:#4d4d4d" d="m 1,2 v 9 h 5 v 1 H 5 v 2 h 6 v -2 h -1 v -1 h 5 V 2 Z m 1,1 h 12 v 7 H 2 Z"/>
<path style="opacity:.5;fill:#fff" d="M 0,1 V 12 H 6 V 11 H 1 V 2 h 14 v 9 h -5 v 1 h 6 V 1 Z m 4,11 v 3 h 8 v -3 h -1 v 2 H 5 v -2 z"/>
<path style="fill:#7fff2a" d="m 7,12 h 2 v 1 H 7 Z"/>
<path style="fill:#3880d9" d="m 2,3 h 12 v 7 H 2 Z"/>
<path style="fill:#fefefe;stroke-width:.149" d="m 7.787,3.957 c 0.0905525,0.361136 0.256731,0.616688 0.341267,0.981392 0.0195401,0.084281 -0.0348227,0.132418 -0.135521,0.096215 -0.50478,-0.181477 0.10579,-0.6332 -0.330794,-0.71089 -0.159492,-0.028381 -0.417961,0.095382 -0.498349,0.21827 -0.16221,0.247965 0.28713,0.223424 0.323243,0.435423 0.0493209,0.289535 -0.447724,0.209301 -0.596134,0.075341 -0.499782,-0.451116 -1.06829,-1.51603 -1.66753,-0.84834 -0.440477,0.49079 0.80194,0.958769 1.26836,1.07211 0.169616,0.041217 0.289392,0.089423 0.251332,0.183083 -0.0674045,0.165864 -0.339299,0.383309 -0.494607,0.261817 -0.190251,-0.148829 -0.418879,-0.17466 -0.518723,-0.039148 -0.097936,0.132914 0.0259266,0.187015 0.157608,0.243561 0.169599,0.061794 0.179775,0.100147 0.147842,0.244661 -0.171949,0.0134757 -0.346758,-0.0960383 -0.464467,-0.167138 -0.407883,-0.339564 -1.09742,-0.901773 -1.41312,-0.119306 -0.222566,0.77064 0.949999,1.04234 1.447,0.912666 0.263676,-0.068795 0.549721,-0.10597 0.480485,0.089618 -0.335936,0.948993 -1.65096,0.228656 -1.98107,0.87583 -0.079439,0.155738 0.0343286,0.438598 0.253796,0.560245 0.799338,0.443064 1.00637,-0.412002 1.69279,-0.653711 0.278917,-0.098216 0.5345,0.255076 0.475557,0.286445 -0.85124,0.453005 -1.16129,1.78815 -0.0917849,1.70822 0.725587,-0.054229 0.113249,-1.20814 0.701015,-1.39099 0.276313,-0.08596 0.739441,-0.150822 0.701048,0.156791 -0.0540267,0.432805 -0.234148,1.53697 0.522958,1.34746 0.696154,-0.174261 0.509238,-0.64241 -0.0012325,-1.18867 -0.210488,-0.225246 0.515996,-0.345969 0.604918,-0.261154 0.270796,0.258283 0.584251,0.606743 0.904298,0.339775 0.751599,-0.626946 -0.803842,-0.311577 -0.592393,-0.706069 0.0600657,-0.11206 0.416868,-0.376619 0.779043,-0.215393 0.353526,0.157376 0.366997,0.406885 0.637567,0.671304 0.186413,0.182177 0.690121,0.166381 0.989922,-0.023092 0.620381,-0.39208 -0.09193,-1.12557 -0.660976,-1.13094 -0.174548,-0.00164 -0.32385,0.02608 -0.475557,0.023091 -0.308119,-0.00607 -0.682277,-0.422005 -0.517445,-0.526706 0.257511,-0.163416 0.874327,0.053407 0.770006,-0.335377 -0.08466,-0.315499 -0.416882,-0.323981 -0.665905,-0.167138 -0.123805,0.077977 -0.240911,-0.219398 -0.210057,-0.327681 0.02229,-0.078189 0.138761,-0.142828 0.314163,-0.228167 0.34821,-0.169414 0.581368,0.203128 0.922161,0.186382 0.79954,-0.039291 1.05518,-0.913405 0.255642,-1.09135 -0.738802,-0.164422 -1.1677,0.77941 -1.67926,0.780714 -0.216814,0.0005487 -0.207333,-0.332586 -0.07885,-0.4096 0.346975,-0.207983 0.626903,-0.380064 0.44599,-0.63062 -0.113453,-0.157126 -0.369343,-0.223553 -0.492808,-0.111059 -0.238393,0.217215 -0.120996,0.439336 -0.538389,0.478325 -0.148932,0.0139119 -0.240994,-0.0102648 -0.311698,-0.101713 -0.351709,-0.454887 0.243303,-0.76844 0.0653004,-1.21615 -0.265999,-0.669031 -1.18979,-0.238717 -1.03674,0.37166 Z "/>
</svg>
