<svg version="1.1" xmlns="http://www.w3.org/2000/svg" viewBox="0 0 16 16">
<defs id="defs3051">
<style type="text/css" id="current-color-scheme">
.ColorScheme-Text {
color:#4d4d4d;
}
</style>
</defs>
<path style="fill:currentColor;fill-opacity:1;stroke:none" id="path4" d="m 2,2 v 3 9 h 1 11 v -1 -11 h -11 -1 z  m 1,3 h 10 v 8 h -10 v -8 z  m 4.791,.5 c -0.148038,-0.0016458 -0.348002,0.10617 -0.644531,0.189453 -0.661463,0.18342 -0.895216,0.0617062 -0.722656,0.734375 l .127,.4961 c -0.0450357,0.04002 -0.107308,0.0869336 -0.152344,0.126953 -0.187586,0.142495 -0.334564,0.331435 -0.464844,0.511719 l -.498,-.1309 c -0.673688,-0.174642 -0.572108,0.114875 -0.742188,0.691406 -0.208473,0.677958 -0.399094,0.77737 0.283203,0.958984 l .5234,.1387 c 0.011876,0.223325 0.0653833,0.451114 0.162109,0.679688 l -.4297,.3496 c -0.552784,0.449762 -0.317797,0.488311 0.0800781,0.972656 0.430788,0.553998 0.408063,0.705426 0.941406,0.271484 l .4316,-.3496 c 0.311461,0.199055 0.694632,0.324362 1.06641,0.373047 l .127,.5176 c 0.173003,0.710693 0.381553,0.445863 0.974609,0.279297 0.661463,-0.18342 0.895216,-0.061692 0.722656,-0.734375 l -.127,-.4961 c 0.0450349,-0.04003 0.107308,-0.086936 0.152344,-0.126953 0.187587,-0.142494 0.334563,-0.331435 0.464844,-0.511719 l .498,.1309 c 0.646048,0.259525 0.572104,-0.114875 0.742188,-0.691407 0.208472,-0.677959 0.399095,-0.77737 -0.283203,-0.958984 l -.5234,-.1387 c -0.01187,-0.223325 -0.065388,-0.45111 -0.162109,-0.679688 l .4297,-.3496 c 0.552784,-0.449761 0.317802,-0.488313 -0.080078,-0.972656 -0.430788,-0.553998 -0.408063,-0.705426 -0.941406,-0.271484 l -.4316,.3496 c -0.311461,-0.199054 -0.694637,-0.324361 -1.06641,-0.373047 l -.127,-.5176 c -0.0865013,-0.355347 -0.18204,-0.467104 -0.330078,-0.46875 z  m .123,2.4414 c 0.2942,0 0.587226,0.122263 0.792969,0.361328 0.34827,0.432484 0.29196,1.07961 -0.130859,1.44727 -0.430259,0.35007 -1.07369,0.294145 -1.43945,-0.130859 -0.365761,-0.425007 -0.291959,-1.07961 0.130859,-1.44727 0.188239,-0.153156 0.417662,-0.229864 0.646484,-0.230469 z " class="ColorScheme-Text"/>
</svg>
