<svg width="16" version="1.1" xmlns="http://www.w3.org/2000/svg" height="16">
<defs id="defs3051">
<style type="text/css" id="current-color-scheme">
.ColorScheme-Text {
color:#4d4d4d;
}
</style>
</defs>
<path style="fill:currentColor;fill-opacity:1;stroke:none" id="rect1880" d="M 1.7136718,3 C 1.318425,3 1,3.3488315 1,3.7820145 v 9.4359695 c 0,0.433184 0.318425,0.782032 0.7136718,0.782032 H 14.286328 C 14.681575,14 15,13.651168 15,13.217984 V 3.7820145 c 0,-0.433183 -0.318425,-0.78203 -0.713672,-0.78203 z m 0.2863282,1 h 2 v 2 H 2 Z m 4,0 h 2 v 2 H 6 Z m 4,0 h 2 v 2 h -2 z m -6,3 h 2 v 2 H 4 Z m 4,0 h 2 v 2 H 8 Z m 4,0 h 2 v 2 h -2 z m -10,3 H 4 V 12 H 2 Z m 3,0 h 6 V 12 H 5 Z m 7,0 h 2 V 12 h -2 z" class="ColorScheme-Text"/>
</svg>
