<svg version="1.1" xmlns="http://www.w3.org/2000/svg" viewBox="0 0 16 16">
<defs>
<linearGradient gradientTransform="matrix(0.32216875,0,0,0.32216875,-3.2990234,-3.9635573)" id="m" y1="21.6146" x1="34.0718" y2="59.0033" x2="34.0718" gradientUnits="userSpaceOnUse">
<stop offset="0" style="stop-color:#ffe2d9"/>
<stop offset="1" style="stop-color:#c98350"/>
</linearGradient>
</defs>
<path style="color:#4d4d4d" d="m 1,2 v 9 H 15 V 2 Z m 1,1 h 12 v 7 H 2 Z"/>
<path style="opacity:.5;fill:#fff" d="M 0,1 V 12 H 16 V 1 Z m 1,1 h 14 v 9 H 1 Z"/>
<path style="fill:#3880d9" d="m 2,3 h 12 v 7 H 2 Z"/>
<g style="stroke-width:.322">
<path style="fill:#664229" d="m 7.4474,15.3233 c 1.35904,0.181188 3.05036,0.164081 3.2487,0.161375 0.01308,0 0.02594,0 0.03902,0 1.23294,-0.0079 2.19248,-0.754294 2.3431,-1.92158 l .3756,-2.5887 c 0.322165,-1.93301 -1.12759,-2.41626 -1.61085,-1.44976 l -3.235,2.8757 -3.2084,-2.0703 c -2.19654,-2.19658 -2.89954,-0.762169 -2.89954,-0.762169 1.40472,1.93547 2.5311,5.43362 4.94736,5.75578 Z "/>
<path style="fill:url(#m)" d="m 7.4474,14.8833 c 1.35904,0.181187 3.05036,0.16408 3.2487,0.161374 0.01308,0 0.02594,0 0.03902,0 1.23294,-0.0079 2.19248,-0.754294 2.3431,-1.92158 l .3756,-2.5887 c 0.32217,-1.93301 -1.12759,-2.41626 -1.61084,-1.44976 0,-1.12759 -1.28867,-1.77193 -1.93301,-0.805421 0,-0.966507 -1.28867,-1.61084 -1.93301,-0.644338 v -3.04351 c 0,-1.28867 -1.93301,-1.34671 -1.93301,0 v 6.10411 c 0,0 -0.323684,-0.484768 -0.644337,-0.805422 -2.19654,-2.19658 -2.89954,-0.32217 -2.89954,-0.32217 1.28867,0.966508 2.5311,4.99362 4.94736,5.31578 Z "/>
</g>
</svg>
