<svg version="1.1" xmlns="http://www.w3.org/2000/svg" viewBox="0 0 16 16">
<path style="color:#4d4d4d" d="m 1,2 v 9 h 5 v 1 H 5 v 2 h 6 v -2 h -1 v -1 h 5 V 2 Z m 1,1 h 12 v 7 H 2 Z"/>
<path style="opacity:.5;fill:#fff" d="M 0,1 V 12 H 6 V 11 H 1 V 2 h 14 v 9 h -5 v 1 h 6 V 1 Z m 4,11 v 3 h 8 v -3 h -1 v 2 H 5 v -2 z"/>
<path style="fill:#7fff2a" d="m 7,12 h 2 v 1 H 7 Z"/>
<path style="fill:#3880d9" d="m 2,3 h 12 v 7 H 2 Z"/>
<path style="fill:#e5e5e5" d="m 9,3 -1,1 h -4 v 5.334 h 8 v -6.33396 Z "/>
<path style="fill:#48b400" d="M 11,5 H 10 V 4 h 1 z"/>
<path style="fill:#103056" d="M 10,6.5 C 10,7.3284107 9.3284856,7.9998612 8.5,7.9998612 7.6715893,7.9998612 7,7.3284145 7,6.5 7,5.6714567 7.6715805,5 8.5,5 9.3284766,5 10,5.6714467 10,6.5 Z"/>
</svg>
