<svg width="16" version="1.0" xmlns="http://www.w3.org/2000/svg" height="16">
<path style="fill:#4d4d4d" d="m 1.82,.5 c -0.61962,0 -1.32,0.695183 -1.32,1.309 v 12.382 c 0,0.613818 0.70038,1.309 1.32,1.309 h 12.36 c 0.619619,0 1.32,-0.695182 1.32,-1.309 v -12.382 c 0,-0.613817 -0.700381,-1.309 -1.32,-1.309 Z "/>
<path style="fill:#dce0e3" d="M 2.0450048,1 C 1.4666929,1 1,1.4623225 1,2.0352184 V 13.964356 C 1,14.537252 1.4666929,15 2.0450048,15 H 13.954996 C 14.533307,15 15,14.537252 15,13.964356 V 2.0352184 C 15,1.4623225 14.533307,1 13.954996,1 Z"/>
<g style="fill:#333">
<path d="m 4,2 c 0.554,0 1,0.466412 1,1.17 v 9.66 C 5,13.533589 4.554,14 4,14 3.446,14 3,13.533589 3,12.83 V 3.17 C 3,2.466412 3.446,2 4,2 Z"/>
<path d="m 8,2 c 0.554,0 1,0.4664116 1,1.17 v 9.66 C 9,13.533589 8.554,14 8,14 7.446,14 7,13.533589 7,12.83 V 3.17 C 7,2.4664116 7.446,2 8,2 Z"/>
<path d="m 12,2 c 0.554,0 1,0.4664116 1,1.17 v 9.66 C 13,13.533589 12.554,14 12,14 11.446,14 11,13.533589 11,12.83 V 3.17 C 11,2.4664116 11.446,2 12,2 Z"/>
</g>
<g style="fill:#fff">
<path d="m 3,8 h 2 v 3 H 3 Z"/>
<path d="M 7,5 H 9 V 8 H 7 Z"/>
<path d="m 11,7 h 2 v 3 h -2 z"/>
</g>
</svg>
