<svg width="22" version="1.1" xmlns="http://www.w3.org/2000/svg" viewBox="0 0 22 22" height="22">
<defs id="defs3051">
<style type="text/css" id="current-color-scheme">
.ColorScheme-Text {
color:#4d4d4d;
}
</style>
</defs>
<path style="fill:currentColor" d="m 9.9883,3 l -4.9883,4.9902 v 0.0097656 1 4 1 0.009766 l 4.9883,4.9902 h 1.01172 v -0.402344 -15.1953 -0.402344 h -1.01172 z  m 2.877,.5371 l -.2441,.9766 a 7,7 0 0,1 4.37891,6.48633 7,7 0 0,1 -4.38086,6.47852 l .2441,.9746 a 8,8 0 0,0 5.13672,-7.45312 8,8 0 0,0 -5.13477,-7.46289 z  m .459,3.7441 l -.5391,.8613 a 4,4 0 0,1 1.21484,2.85742 4,4 0 0,1 -1.21094,2.86133 l .5391,.8633 a 5,5 0 0,0 1.67188,-3.72461 5,5 0 0,0 -1.67578,-3.71875 z  m -11.3242,.7188 v 1 4 1 h 2 v -1 -4 -1 h -2 z " class="ColorScheme-Text"/>
<path style="opacity:.2;fill:currentColor" d="m 13.2148,.4814 -.2129,.9785 a 10,10 0 0,1 6.99805,9.53906 10,10 0 0,1 -7,9.53906 l .2148,.9805 a 11,11 0 0,0 7.78516,-10.5195 11,11 0 0,0 -7.78516,-10.5176 z " class="ColorScheme-Text"/>
</svg>
