<svg width="48" version="1.1" xmlns="http://www.w3.org/2000/svg" height="48">
<path style="fill:#5a5a5a" id="path4189" d="m 16.5951,32.1125 c -0.321838,0 -0.577033,0.254696 -0.577033,0.577032 v 14.634 c 0,0.322336 0.255195,0.577033 0.577033,0.577033 h 15.5365 c 0.321837,0 0.577032,-0.254697 0.577032,-0.577033 v -14.634 c 0,-0.322336 -0.255195,-0.577032 -0.577032,-0.577032 z m 2.097,8.700575 h 3.9418 v 3.94185 h -3.9418 z m 7.93,0 h 3.9418 v 3.94185 h -3.9418 z"/>
<rect width="12.309719" x="17.845297" y="-46.683613" height="13.335554" style="opacity:.715;fill:none" id="rect3458" transform="scale(1,-1)"/>
<path style="fill:#c8c8c8" id="rect3448" d="m 16.596,31.2745 c -0.321837,0 -0.577032,0.254696 -0.577032,0.577032 v 14.634 c 0,0.322336 0.255195,0.577033 0.577032,0.577033 h 14.9075 c 0.321837,0 0.577032,-0.254697 0.577032,-0.577033 v -14.634 c 0,-0.322336 -0.255195,-0.577032 -0.577032,-0.577032 z m 1.4681,8.700575 h 3.9418 v 3.94185 h -3.9418 z m 7.93,0 h 3.9418 v 3.94185 h -3.9418 z"/>
<path style="fill:#004564" id="path4146" d="m 12.708475,2 c -0.925609,0 -1.66695,0.745428 -1.66695,1.66695 v 31.6965 c 0,0.921529 0.741348,1.66695 1.66695,1.66695 H 35.892 c 0.925609,0 1.666625,-0.745428 1.666625,-1.66695 V 3.66695 C 37.558625,2.74542 36.817276,2 35.891675,2 Z"/>
<path style="fill:#007cb4" id="path4152" d="m 12.708475,2 c -0.925609,0 -1.66695,0.745428 -1.66695,1.66695 v 30.8966 c 0,0.921529 0.741348,1.66695 1.66695,1.66695 h 22.5829 c 0.925609,0 1.66695,-0.745428 1.66695,-1.66695 V 3.66695 C 36.958325,2.74542 36.216977,2 35.291375,2 Z"/>
<g style="fill:#fff" id="g834" transform="translate(-0.5938,-4.8438)">
<path id="path3004" d="m 23.875,10.5562 c 1.98574,0 3.59375,1.60801 3.59375,3.59375 0,1.98574 -1.60801,3.59375 -3.59375,3.59375 -1.98574,0 -3.59375,-1.60801 -3.59375,-3.59375 0,-1.98574 1.60801,-3.59375 3.59375,-3.59375 z"/>
<path id="path6495" d="m 18.5938,21.8438 h 8.75 v 11.5 h 3.25 v 2.5 h -12 v -2.5 h 3.25 v -9 h -3.25 z"/>
</g>
</svg>
