<svg width="22" version="1.1" xmlns="http://www.w3.org/2000/svg" height="22">
<defs id="defs3051">
<style type="text/css" id="current-color-scheme">
.ColorScheme-Text {
color:#4d4d4d;
}
</style>
</defs>
<path style="fill:currentColor" d="M 10,1 9,2.48244 V 11.5 C 8.195651,11.612624 4.9973236,13.184904 5,15.98633 5.00295,19.069673 7.8486953,20.997811 11,21 14.151305,21.0022 16.996314,19.072609 17,15.98633 17.0033,13.188108 13.87544,11.60706 13,11.5 V 11.13088 L 11,10.5 V 10 L 13,9.5 V 8 L 11,7.5 V 7 L 13,6.5 V 5 L 11,4.5 V 4 h 3 V 2 L 11.1367,1 Z m 0.9844,14.78706 c 1.17253,0 2.26477,0.688213 2.21289,1.60938 -0.05188,0.921157 -1.04036,1.63281 -2.21289,1.63281 -1.17253,0 -2.18164,-0.621679 -2.18164,-1.63281 0,-1.01114 1.00911,-1.60938 2.18164,-1.60938 z" class="ColorScheme-Text"/>
</svg>
