<svg width="22" version="1.1" xmlns="http://www.w3.org/2000/svg" height="22">
<defs id="defs3051">
<style type="text/css" id="current-color-scheme">
.ColorScheme-Text {
color:#4d4d4d;
}
</style>
</defs>
<path style="fill:currentColor" d="M 10,1 9,2.48244 V 11.5 c -0.804349,0.112624 -4.0026764,1.684904 -4,4.48633 0.00295,3.083343 2.8486953,5.011481 6,5.01367 3.151305,0.0022 5.996314,-1.927391 6,-5.01367 0.0033,-2.798222 -3.12456,-4.37927 -4,-4.48633 V 11.13088 L 11,10.5 V 10 L 13,9.5 V 8 L 11,7.5 V 7 l 2,-0.5 v -1 L 11,5 V 4.5 L 13,4 V 2.5 L 11.1367,1 Z m 0.9844,14.78706 c 1.17253,0 2.26477,0.688213 2.21289,1.60938 -0.05188,0.921157 -1.04036,1.63281 -2.21289,1.63281 -1.17253,0 -2.18164,-0.621679 -2.18164,-1.63281 0,-1.01114 1.00911,-1.60938 2.18164,-1.60938 z" class="ColorScheme-Text"/>
</svg>
