<svg version="1.1" xmlns="http://www.w3.org/2000/svg" viewBox="0 0 22 22">
<defs id="defs3051">
<style type="text/css" id="current-color-scheme">
.ColorScheme-Text {
color:#4d4d4d;
}
</style>
</defs>
<path style="fill:currentColor;fill-opacity:1;stroke:none" id="path823" d="m 11,3 c -4.432,0 -8,3.568 -8,8 0,4.432 3.568,8 8,8 4.432,0 8,-3.568 8,-8 0,-4.432 -3.568,-8 -8,-8 z  m 0,1 c 3.878,0 7,3.122 7,7 0,3.878 -3.122,7 -7,7 -3.878,0 -7,-3.122 -7,-7 0,-3.878 3.122,-7 7,-7 z  m .5,1 c -2.5,0 -3.5,2 -3.5,3.5 v 0.5 h 2 v -0.5 c 0,-1.01735 0.671573,-1.5 1.5,-1.5 0.828427,0 1.5,0.414389 1.5,1.5 0,0.828427 -0.486139,1.5 -1.5,1.5 h -1.5 v 3 h 2 v -1 c 1.75406,-0.262323 3,-1.16479 3,-3.5 0,-1.5 -1,-3.5 -3.5,-3.5 z  m -1.5,9 v 2 h 2 v -2 h -2 z " class="ColorScheme-Text"/>
</svg>
