<svg width="22" version="1.1" xmlns="http://www.w3.org/2000/svg" height="22">
<g style="stroke-width:.458">
<path style="fill:#e6e6e6;stroke:#646464" d="m 9.662,9.3959 v 12.359 h 2.558 v -12.359 c 0,-0.67723 -0.630927,-1.14581 -1.2161,-1.14581 -0.585166,0 -1.3419,0.475452 -1.3419,1.14581 z "/>
<path style="fill:#969696" d="m 7,20 h 8 v 2 H 7 Z"/>
<g style="fill:#429cd6">
<path d="m 15.9974,9.1632 c -0.012448,-1.2181 -0.652214,-2.34707 -1.69061,-2.984 a 0.885841,0.885841 0 0,0 -1.21796,0.292033 0.885841,0.885841 0 0,0 0.292033,1.21796 c 0.519007,0.318347 0.835352,0.877948 0.843574,1.48646 -0.0033,0.609233 -0.315888,1.17239 -0.833193,1.49477 a 0.885841,0.885841 0 0,0 -0.283037,1.22003 0.885841,0.885841 0 0,0 1.22003,0.283036 c 1.03497,-0.644982 1.66665,-1.77973 1.66915,-2.99922 v -0.00554 z "/>
<path d="m 18.8319,9.1652 c -0.013686,-1.76117 -0.755516,-3.43922 -2.04907,-4.63449 a 0.885786,0.885786 0 0,0 -1.25186,0.049133 0.885786,0.885786 0 0,0 0.04913,1.25186 c 0.933887,0.862911 1.46868,2.07248 1.47954,3.34385 -0.0015,1.27357 -0.528573,2.48835 -1.45878,3.35838 a 0.885786,0.885786 0 0,0 -0.04221,1.25186 0.885786,0.885786 0 0,0 1.25186,0.04221 c 1.28846,-1.2051 2.02074,-2.89172 2.0214,-4.65589 v -0.00348 z "/>
<path d="m 21.6665,9.1694 c -0.007614,-2.3556 -0.917534,-4.61968 -2.54248,-6.32511 a 0.885786,0.885786 0 0,0 -1.25256,-0.030449 0.885786,0.885786 0 0,0 -0.03045,1.25256 c 1.31202,1.37699 2.04688,3.20318 2.05392,5.10505 -0.000779,1.90449 -0.731569,3.73569 -2.04215,5.11752 a 0.885786,0.885786 0 0,0 0.03321,1.25256 0.885786,0.885786 0 0,0 1.25256,-0.03322 c 1.62219,-1.71037 2.527,-3.97814 2.52795,-6.33547 v -0.00206 z "/>
<path d="m 6.0026,9.1935 c 0.012444,1.2181 0.652214,2.34707 1.69061,2.984 a 0.885841,0.885841 0 0,0 1.21796,-0.292033 0.885841,0.885841 0 0,0 -0.292033,-1.21796 c -0.519007,-0.318347 -0.835352,-0.877948 -0.843574,-1.48646 0.0032999,-0.609233 0.315888,-1.17239 0.833193,-1.49477 a 0.885841,0.885841 0 0,0 0.283037,-1.22003 0.885841,0.885841 0 0,0 -1.22003,-0.283037 c -1.03497,0.644987 -1.66665,1.77973 -1.66915,2.99922 v 0.00554 z "/>
<path d="m 3.1681,9.1914 c 0.013687,1.76117 0.755516,3.43922 2.04907,4.63449 a 0.885786,0.885786 0 0,0 1.25186,-0.049133 0.885786,0.885786 0 0,0 -0.0491334,-1.25186 c -0.933887,-0.862911 -1.46868,-2.07248 -1.47954,-3.34384 0.0014667,-1.27357 0.528568,-2.48835 1.45878,-3.35838 a 0.885786,0.885786 0 0,0 0.0422117,-1.25186 0.885786,0.885786 0 0,0 -1.25186,-0.0422135 c -1.28846,1.2051 -2.02074,2.89172 -2.0214,4.65589 v 0.00348 z "/>
<path d="m .3335,9.1873 c 0.00761434,2.3556 0.917534,4.61968 2.54249,6.32506 a 0.885786,0.885786 0 0,0 1.25256,0.03045 0.885786,0.885786 0 0,0 0.03045,-1.25256 c -1.31202,-1.37699 -2.04688,-3.20318 -2.05392,-5.10505 0.0007792,-1.90449 0.731569,-3.73568 2.04215,-5.11752 a 0.885786,0.885786 0 0,0 -0.0332166,-1.25256 0.885786,0.885786 0 0,0 -1.25256,0.0332166 c -1.62219,1.71037 -2.52701,3.97814 -2.52795,6.33547 v 0.00206 z "/>
</g>
</g>
</svg>
