<svg version="1.1" xmlns="http://www.w3.org/2000/svg" viewBox="0 0 22 22">
<path style="fill:#2c2c2c" d="m 1,2 v 14 h 8 v 1 H 7 v 2 h 8 v -2 h -2 v -1 h 8 V 2 Z M 2,3 H 20 V 15 H 2 Z"/>
<path style="opacity:.5;fill:#fff" d="M 0,1 V 17 H 9 V 16 H 1 V 2 h 20 v 14 h -8 v 1 h 9 V 1 Z m 6,16 v 3 h 10 v -3 h -1 v 2 H 7 v -2 z"/>
<path style="fill:#7fff2a" d="m 10,17 h 2 v 1 h -2 z"/>
<path style="fill:#3880d9" d="M 2,3 H 20 V 15 H 2 Z"/>
<g style="color:#bebebe;stroke-width:.264">
<g style="fill:#ffdc4c">
<path style="line-height:normal" d="m 10.9969,5.4529 c -1.94814,0 -3.5471,1.59896 -3.5471,3.5471 0,1.94814 1.59895,3.5471 3.5471,3.5471 1.94814,0 3.5471,-1.59896 3.5471,-3.5471 0,-1.94814 -1.59895,-3.5471 -3.5471,-3.5471 z "/>
<rect width="1.45" x="5.2" y="8.275" rx="0.40781251" height="1.45"/>
<rect width="1.45" x="15.35" y="8.275" rx="0.40781251" height="1.45"/>
<rect width="1.45" x="3.2" y="-11.725" rx="0.40781251" height="1.45" transform="rotate(90)"/>
</g>
<rect width="1.45" x="13.35" y="-11.725" rx="0.40781251" height="1.45" style="fill:#eec623" transform="rotate(90)"/>
<g style="fill:#ffdc4c">
<rect width="1.45" x="-7.2142153" y="-14.86714" rx="0.40781251" height="1.45" transform="rotate(135)"/>
<rect width="1.45" x="2.9357846" y="-14.86714" rx="0.40781251" height="1.45" transform="rotate(135)"/>
<rect width="1.45" x="8.3421421" y="-2.1392162" rx="0.40781251" height="1.45" transform="rotate(45)"/>
<rect width="1.45" x="18.492146" y="-2.1392162" rx="0.40781251" height="1.45" transform="rotate(45)"/>
</g>
</g>
</svg>
