<svg width="22" version="1.1" xmlns="http://www.w3.org/2000/svg" viewBox="0 0 22 22" height="22">
<defs id="defs3051">
<style type="text/css" id="current-color-scheme">
.ColorScheme-Text {
color:#4d4d4d;
}
</style>
</defs>
<path style="fill:#ff0000" d="m 10,5 v 14 l 2,1 2,-1 V 5 Z"/>
<path style="fill:currentColor" d="M 12,2 C 10.892,2 10,2.892 10,4 V 14.765625 C 9.3641388,15.334356 9,16.146903 9,17 c 0,1.656854 1.343146,3 3,3 1.656854,0 3,-1.343146 3,-3 0,-0.852416 -0.364645,-1.664145 -1,-2.232422 V 4 C 14,2.892 13.108,2 12,2 Z m 0,1 c 0.554,0 1,0.446 1,1 v 11.263672 c 0.61861,0.349704 1,0.995903 1,1.695312 0,1.081041 -0.895928,1.957032 -2,1.957032 -1.104072,0 -2,-0.875991 -2,-1.957032 0,-0.700106 0.380773,-1.347212 1,-1.697265 V 4 C 11,3.446 11.446,3 12,3 Z M 7,5 V 6 H 9 V 5 Z M 7,8 V 9 H 9 V 8 Z m 0,3 v 1 h 2 v -1 z m 5,5 c -0.552285,0 -1,0.447715 -1,1 0,0.552285 0.447715,1 1,1 0.552285,0 1,-0.447715 1,-1 0,-0.552285 -0.447715,-1 -1,-1 z" class="ColorScheme-Text"/>
</svg>
