<svg width="22" version="1.1" xmlns="http://www.w3.org/2000/svg" viewBox="0 0 22 22" height="22">
<defs id="defs3051">
<style type="text/css" id="current-color-scheme">
.ColorScheme-Text {
color:#4d4d4d;
}
</style>
</defs>
<path style="fill:#8c8c8c" d="m 11,9 v 6.88281 a 1.5,1.5 0 0,0 -0.5,1.11719 1.5,1.5 0 0,0 1.5,1.5 1.5,1.5 0 0,0 1.5,-1.5 1.5,1.5 0 0,0 -0.5,-1.11719 v -6.88281 h -2 z "/>
<path style="fill:currentColor" d="m 12,2 c -1.108,0 -2,0.892 -2,2 v 10.1289 c -0.921089,0.641486 -1.4998,1.70349 -1.5,2.87109 0,1.933 1.567,3.5 3.5,3.5 1.933,0 3.5,-1.567 3.5,-3.5 C 15.499805,15.83238 14.921089,14.77038 14,14.1289 V 4 C 14,2.892 13.108,2 12,2 Z m 0,1 c 0.554,0 1,0.446 1,1 v 10.709 c 0.910976,0.397583 1.49989,1.29706 1.5,2.29102 0,1.38071 -1.11929,2.5 -2.5,2.5 -1.38071,0 -2.5,-1.11929 -2.5,-2.5 0,-0.993957 0.589024,-1.89343 1.5,-2.29102 V 4 C 11,3.446 11.446,3 12,3 Z M 7,5 V 6 H 9 V 5 Z M 7,8 V 9 H 9 V 8 Z m 0,3 v 1 h 2 v -1 z" class="ColorScheme-Text"/>
</svg>
