<svg width="48" version="1.1" xmlns="http://www.w3.org/2000/svg" height="48">
<path style="fill:#5a5a5a" id="path4189" d="m 16.5951,32.1125 c -0.321838,0 -0.577033,0.254696 -0.577033,0.577032 v 14.634 c 0,0.322336 0.255195,0.577033 0.577033,0.577033 h 14.9369 c 0.726326,0 1.17663,-0.458729 1.17663,-1.17656 v -14.0345 c 0,-0.322336 -0.255195,-0.577032 -0.577032,-0.577032 z  m 2.097,7.7005 h 3.9418 v 3.9417 h -3.9418 z  m 7.93,0 h 3.9418 v 3.9417 h -3.9418 z "/>
<rect width="12.309719" x="17.845297" y="-46.683613" height="13.335554" style="opacity:.715;fill:none" id="rect3458" transform="scale(1,-1)"/>
<path style="fill:#c8c8c8" id="rect3448" d="m 16.596,31.2745 c -0.321837,0 -0.577032,0.254696 -0.577032,0.577032 v 14.634 c 0,0.322336 0.255195,0.577033 0.577032,0.577033 h 14.9075 c 0.321837,0 0.577032,-0.254697 0.577032,-0.577033 v -14.634 c 0,-0.322336 -0.255195,-0.577032 -0.577032,-0.577032 z  m 1.4681,7.7005 h 3.9418 v 3.9417 h -3.9418 z  m 7.93,0 3.9418,0 v 3.9417 h -3.9418 z "/>
<path style="fill:#004564" id="path4146" d="m 11.7085,0 c -0.925609,0 -1.66695,0.745428 -1.66695,1.66695 v 33.696 c 0,0.921529 0.741348,1.66695 1.66695,1.66695 H 36.292 c 1.357812,0 2.26665,-0.887751 2.26665,-2.2669 V 1.967 C 38.55865,0.63869034 37.817301,0 36.8917,0 Z"/>
<path style="fill:#007cb4" id="path4152" d="m 11.7085,0 c -0.925609,0 -1.66695,0.745428 -1.66695,1.66695 v 32.8961 c 0,0.921529 0.741348,1.66695 1.66695,1.66695 h 24.5829 c 0.925609,0 1.66695,-0.745428 1.66695,-1.66695 v -32.8961 c 0,-0.92153 -0.741348,-1.66695 -1.66695,-1.66695 z "/>
<g style="fill:#fff" id="g834" transform="translate(-0.5938,-4.8438)">
<path id="path3004" d="m 23.875,10.5562 c 1.98574,0 3.59375,1.60801 3.59375,3.59375 0,1.98574 -1.60801,3.59375 -3.59375,3.59375 -1.98574,0 -3.59375,-1.60801 -3.59375,-3.59375 0,-1.98574 1.60801,-3.59375 3.59375,-3.59375 z"/>
<path id="path6495" d="m 18.5938,19.8438 h 8.75 v 12.5 h 3.25 v 2.5 h -12 v -2.5 h 3.25 v -10 h -3.25 z"/>
</g>
</svg>
