<svg width="16" version="1.1" xmlns="http://www.w3.org/2000/svg" height="16">
<defs id="defs3051">
<style type="text/css" id="current-color-scheme">
.ColorScheme-Text {
color:#4d4d4d;
}
</style>
</defs>
<path style="fill:currentColor" d="M 7.5,1 7,2 V 8.27581 C 5.9381443,8.5247707 4,9.6376383 4,11.5 c 0,2.056545 2.1048779,3.495409 4.5,3.5 2.395122,0.0046 4.496096,-1.383736 4.5,-3.5 0.0034,-1.8473634 -2.31253,-3.1235795 -3,-3.23981 V 8 H 9 V 7 h 1 V 6 H 9 V 5 h 1 V 4 H 9 V 3 h 2 V 1.5 L 9,1 Z m 0.993,10.19167 c 0.7565438,0 1.552441,0.555883 1.521,1.208 -0.031441,0.652117 -0.874033,1.15666 -1.521,1.15666 -0.646967,0 -1.4915728,-0.484519 -1.503,-1.15666 -0.011427,-0.672141 0.7464562,-1.208 1.503,-1.208 z" class="ColorScheme-Text"/>
</svg>
