<svg width="16" version="1.1" xmlns="http://www.w3.org/2000/svg" height="16">
<g style="stroke-width:.333">
<path style="fill:#e6e6e6;stroke:#646464" d="m 7.1663,15.8218 h 1.65435 l 0,-8.8638 c 0,-0.492539 -0.395056,-0.791118 -0.820638,-0.791118 -0.425582,0 -0.833665,0.303576 -0.833665,0.791118 z "/>
<path style="fill:#969696" d="m 5,14 h 6 v 2 h -6 Z "/>
<g style="fill:#429cd6">
<path d="m 12.7712,6.3082 c -0.012716,-1.2443 -0.666245,-2.39755 -1.72697,-3.04818 a 0.904895,0.904895 0 0,0 -1.24415,0.298314 0.904895,0.904895 0 0,0 0.298314,1.24415 c 0.530172,0.325194 0.853318,0.896835 0.861718,1.51843 -0.0033,0.622339 -0.322682,1.1976 -0.851115,1.52692 a 0.904895,0.904895 0 0,0 -0.289124,1.24628 0.904895,0.904895 0 0,0 1.24628,0.289124 c 1.05723,-0.658859 1.7025,-1.81801 1.70506,-3.06373 v -0.00566 z "/>
<path d="m 15.6667,6.3103 c -0.013982,-1.79905 -0.771768,-3.51319 -2.09315,-4.73416 a 0.904841,0.904841 0 0,0 -1.27879,0.050191 0.904841,0.904841 0 0,0 0.05019,1.27879 c 0.953971,0.881475 1.50028,2.11706 1.51137,3.41576 -0.0015,1.30096 -0.539939,2.54187 -1.49016,3.43063 a 0.904841,0.904841 0 0,0 -0.04312,1.27879 0.904841,0.904841 0 0,0 1.27879,0.04312 c 1.31617,-1.23102 2.06421,-2.95392 2.06487,-4.75605 v -0.0035467 Z "/>
<path d="m 3.2288,6.3399 c 0.012715,1.2443 0.666245,2.39755 1.72697,3.04818 a 0.904895,0.904895 0 0,0 1.24415,-0.298315 0.904895,0.904895 0 0,0 -0.298314,-1.24415 c -0.530172,-0.325194 -0.853318,-0.896835 -0.861718,-1.51843 0.0033333,-0.622339 0.322682,-1.1976 0.851115,-1.52692 a 0.904895,0.904895 0 0,0 0.289125,-1.24627 0.904895,0.904895 0 0,0 -1.24628,-0.289125 c -1.05723,0.658859 -1.7025,1.81801 -1.70506,3.06373 v 0.00566 z "/>
<path d="m .3333,6.3377 c 0.0139816,1.79905 0.771768,3.51319 2.09315,4.73416 a 0.904841,0.904841 0 0,0 1.27879,-0.05019 0.904841,0.904841 0 0,0 -0.05019,-1.27879 c -0.953971,-0.881471 -1.50028,-2.11706 -1.51137,-3.41576 0.0014833,-1.30096 0.539939,-2.54187 1.49016,-3.43063 a 0.904841,0.904841 0 0,0 0.0431209,-1.27879 0.904841,0.904841 0 0,0 -1.27879,-0.0431213 c -1.31617,1.23102 -2.06421,2.95392 -2.06487,4.75606 v 0.00355 z "/>
</g>
</g>
</svg>
