<?xml version="1.0" encoding="UTF-8" standalone="no"?>
<svg
   width="48"
   version="1.1"
   height="48"
   id="svg16"
   sodipodi:docname="nm-device-wwan.svg"
   inkscape:version="1.1.2 (0a00cf5339, 2022-02-04, custom)"
   xmlns:inkscape="http://www.inkscape.org/namespaces/inkscape"
   xmlns:sodipodi="http://sodipodi.sourceforge.net/DTD/sodipodi-0.dtd"
   xmlns="http://www.w3.org/2000/svg"
   xmlns:svg="http://www.w3.org/2000/svg">
  <defs
     id="defs20" />
  <sodipodi:namedview
     id="namedview18"
     pagecolor="#ffffff"
     bordercolor="#666666"
     borderopacity="1.0"
     inkscape:pageshadow="2"
     inkscape:pageopacity="0.0"
     inkscape:pagecheckerboard="0"
     showgrid="true"
     inkscape:zoom="7.760417"
     inkscape:cx="9.8577177"
     inkscape:cy="39.044294"
     inkscape:current-layer="svg16">
    <inkscape:grid
       type="xygrid"
       id="grid1166" />
  </sodipodi:namedview>
  <path
     style="fill:#e6e6e6;stroke:#646464"
     d="m 21.499,20.87368 v 26.59158 h 4.963075 l -1.5e-4,-26.59158 C 26.461917,19.39606 25.276753,18.50032 24,18.50032 c -1.276752,0 -2.501,0.91073 -2.501,2.37336 z"
     id="path2"
     sodipodi:nodetypes="sccszs" />
  <path
     id="rect4"
     style="fill:#969696"
     d="m 15,42 h 18 v 6 H 15 Z"
     sodipodi:nodetypes="ccccc" />
  <path
     d="M 38.313515,18.924449 C 38.27537,15.191531 36.314777,11.73177 33.132592,9.7798846 a 2.7146886,2.7146886 0 0 0 -3.732473,0.8949454 2.7146886,2.7146886 0 0 0 0.894945,3.732473 c 1.590517,0.975585 2.559961,2.690508 2.585162,4.555311 -0.01,1.867018 -0.968049,3.592816 -2.553348,4.580762 a 2.7146886,2.7146886 0 0 0 -0.867376,3.738836 2.7146886,2.7146886 0 0 0 3.738836,0.867375 c 3.171706,-1.976576 5.1075,-5.454036 5.115187,-9.19121 v -0.01697 z"
     id="path6"
     style="fill:#429cd6;fill-rule:evenodd;stroke-width:1.08581" />
  <path
     d="M 46.999997,18.930855 C 46.958052,13.533683 44.684691,8.3912526 40.720539,4.7283476 a 2.7145258,2.7145258 0 0 0 -3.836385,0.1505715 2.7145258,2.7145258 0 0 0 0.150571,3.8363849 c 2.861925,2.644426 4.500836,6.351187 4.534105,10.247335 -0.0045,3.90288 -1.619822,7.625635 -4.470487,10.291874 a 2.7145258,2.7145258 0 0 0 -0.129363,3.836385 2.7145258,2.7145258 0 0 0 3.836384,0.129365 c 3.948517,-3.693069 6.192648,-8.861787 6.194635,-14.268199 v -0.01064 z"
     id="path8"
     style="fill:#429cd6;fill-rule:evenodd;stroke-width:1.08581" />
  <path
     d="m 9.6864855,19.01952 c 0.038144,3.732918 1.9987375,7.192679 5.1809225,9.144564 a 2.7146886,2.7146886 0 0 0 3.732473,-0.894946 2.7146886,2.7146886 0 0 0 -0.894945,-3.732473 c -1.590517,-0.975585 -2.559961,-2.690507 -2.585162,-4.55531 0.01,-1.867019 0.968049,-3.592816 2.553348,-4.580763 a 2.7146886,2.7146886 0 0 0 0.867376,-3.738835 2.7146886,2.7146886 0 0 0 -3.738836,-0.867376 c -3.171706,1.976576 -5.1074999,5.454036 -5.1151874,9.19121 v 0.01697 z"
     id="path841"
     style="fill:#429cd6;fill-rule:evenodd;stroke-width:1.08581" />
  <path
     d="m 1.0000031,19.013113 c 0.041945,5.397173 2.3153058,10.539603 6.2794581,14.202508 A 2.7145258,2.7145258 0 0 0 11.115846,33.065049 2.7145258,2.7145258 0 0 0 10.965275,29.228664 C 8.1033502,26.584239 6.464439,22.877478 6.4311697,18.98133 6.4356216,15.07845 8.0509924,11.355695 10.901657,8.689455 A 2.7145258,2.7145258 0 0 0 11.03102,4.85307 2.7145258,2.7145258 0 0 0 7.1946355,4.7237055 C 3.2461189,8.4167744 1.0019879,13.585492 1.0000009,18.991904 v 0.01064 z"
     id="path843"
     style="fill:#429cd6;fill-rule:evenodd;stroke-width:1.08581" />
</svg>
