<svg width="48" version="1.1" xmlns="http://www.w3.org/2000/svg" height="48">
<path style="fill:#e6e6e6;stroke:#646464" d="m 21.499,20.8737 v 26.5916 h 4.96307 l -.0002,-26.5916 c -8e-06,-1.47762 -1.18517,-2.37336 -2.46192,-2.37336 -1.27675,0 -2.501,0.91073 -2.501,2.37336 z "/>
<path style="fill:#969696" d="m 15,42 h 18 v 6 H 15 Z"/>
<g style="fill:#429cd6">
<path d="m 38.3135,18.9244 c -0.038145,-3.73292 -1.99874,-7.19268 -5.18092,-9.14456 a 2.71469,2.71469 0 0,0 -3.73247,0.894945 2.71469,2.71469 0 0,0 0.894945,3.73247 c 1.59052,0.975585 2.55996,2.69051 2.58516,4.55531 -0.01,1.86702 -0.968049,3.59282 -2.55335,4.58076 a 2.71469,2.71469 0 0,0 -0.867376,3.73884 2.71469,2.71469 0 0,0 3.73884,0.867375 c 3.17171,-1.97658 5.1075,-5.45404 5.11519,-9.19121 v -0.01697 z "/>
<path d="m 47,18.9309 c -0.041945,-5.39717 -2.31531,-10.5396 -6.27946,-14.2025 a 2.71453,2.71453 0 0,0 -3.83638,0.150572 2.71453,2.71453 0 0,0 0.150571,3.83638 c 2.86192,2.64443 4.50084,6.35119 4.53411,10.2473 -0.0045,3.90288 -1.61982,7.62563 -4.47049,10.2919 a 2.71453,2.71453 0 0,0 -0.129363,3.83638 2.71453,2.71453 0 0,0 3.83638,0.129365 c 3.94852,-3.69307 6.19265,-8.86179 6.19463,-14.2682 v -0.01064 z "/>
<path d="m 9.6865,19.0195 c 0.038144,3.73292 1.99874,7.19268 5.18092,9.14456 a 2.71469,2.71469 0 0,0 3.73247,-0.894946 2.71469,2.71469 0 0,0 -0.894945,-3.73247 c -1.59052,-0.975585 -2.55996,-2.69051 -2.58516,-4.55531 0.01,-1.86702 0.968049,-3.59282 2.55335,-4.58076 a 2.71469,2.71469 0 0,0 0.867376,-3.73883 2.71469,2.71469 0 0,0 -3.73884,-0.867376 c -3.17171,1.97658 -5.1075,5.45404 -5.11519,9.19121 v 0.01697 z "/>
<path d="m 1,19.0131 c 0.041945,5.39717 2.31531,10.5396 6.27946,14.2025 a 2.71453,2.71453 0 0,0 3.83638,-0.150572 2.71453,2.71453 0 0,0 -0.150571,-3.83639 c -2.86192,-2.64442 -4.50084,-6.35119 -4.53411,-10.2473 0.0044519,-3.90288 1.61982,-7.62563 4.47049,-10.2919 a 2.71453,2.71453 0 0,0 0.129363,-3.83639 2.71453,2.71453 0 0,0 -3.83638,-0.129364 c -3.94852,3.69307 -6.19265,8.86179 -6.19463,14.2682 v 0.01064 z "/>
</g>
</svg>
